<?xml version="1.0" encoding="UTF-8" standalone="no"?>
<!-- Created with Inkscape (http://www.inkscape.org/) -->

<svg
   width="172.6701mm"
   height="172.6701mm"
   viewBox="0 0 172.6701 172.6701"
   version="1.1"
   id="svg1"
   xml:space="preserve"
   xmlns="http://www.w3.org/2000/svg"
   xmlns:svg="http://www.w3.org/2000/svg"><defs
     id="defs1" /><g
     id="layer1"
     transform="translate(157.25102,198.81012)"><path
       id="path5"
       style="fill:#ffffff;fill-opacity:1;stroke-width:0.805188;stroke-linecap:round;stroke-linejoin:round"
       d="M -2.0863309 -198.17657 L -10.088943 -183.11289 L -10.930235 -165.68398 L -19.198981 -165.68398 L -11.423229 -155.47426 L -12.166336 -140.07934 C -28.353216 -157.12094 -50.823548 -166.77435 -74.327399 -166.78417 C -103.64471 -166.77397 -130.92652 -151.79225 -146.66717 -127.05894 L -157.25102 -127.05894 L -149.61996 -115.86014 L -157.25102 -26.140039 L -8.5138455 -26.140039 L 15.419061 -26.140039 L 8.0799737 -154.80195 L 15.419061 -165.68398 L 7.4593397 -165.68398 L 6.4490654 -183.39297 L -2.0863309 -198.17657 z M -83.43072 -192.21621 C -85.584619 -189.65499 -86.77489 -186.4211 -86.795372 -183.07465 C -86.842092 -175.15518 -80.459903 -168.69733 -72.540428 -168.65072 C -64.621155 -168.60402 -58.163395 -174.98588 -58.116503 -182.90515 C -58.102813 -186.26049 -59.266203 -189.5144 -61.404157 -192.10045 C -60.83125 -190.6836 -60.536835 -189.16959 -60.537027 -187.64129 C -60.575787 -181.07411 -65.930869 -175.78172 -72.498054 -175.82031 C -79.065241 -175.85911 -84.357627 -181.21415 -84.319038 -187.78134 C -84.309338 -189.30285 -84.007827 -190.80837 -83.43072 -192.21621 z M -46.035586 -144.06928 C -35.245855 -144.06928 -26.655618 -141.39778 -20.265583 -136.05529 C -13.875548 -130.81756 -10.680638 -123.43222 -10.680638 -113.89954 C -10.680638 -105.51917 -13.875548 -96.563054 -20.265583 -87.03038 C -26.655618 -77.602459 -37.183531 -66.236562 -51.849185 -52.932719 L -9.5809638 -52.932719 L -9.5809638 -37.533659 L -80.761632 -37.533659 L -80.761632 -46.647315 C -69.133864 -57.856064 -60.072551 -67.440794 -53.577762 -75.402149 C -47.082972 -83.363504 -42.421461 -90.696507 -39.593085 -97.400806 C -36.659955 -104.1051 -35.193354 -111.01886 -35.193354 -118.14218 C -35.193354 -129.45568 -38.964539 -135.11272 -46.506875 -135.11272 C -49.859025 -135.11272 -52.582859 -133.54143 -54.677953 -130.39879 C -56.773046 -127.36091 -57.820397 -123.58972 -57.820397 -119.08527 C -57.820397 -115.94263 -56.720704 -112.95709 -54.520856 -110.12871 C -56.301686 -108.45264 -58.344045 -107.14306 -60.648648 -106.20027 C -62.848496 -105.25748 -65.048397 -104.78588 -67.248245 -104.78588 C -71.019413 -104.78588 -74.161981 -105.93844 -76.676093 -108.24304 C -79.190205 -110.6524 -80.447439 -114.10901 -80.447439 -118.61346 C -80.447439 -123.43218 -79.03318 -127.77964 -76.204804 -131.65556 C -73.376428 -135.53149 -69.395876 -138.56937 -64.262897 -140.76922 C -59.025164 -142.96907 -52.949394 -144.06928 -46.035586 -144.06928 z M -127.273 -86.872766 L -90.975479 -86.872766 L -90.975479 -71.945512 L -127.273 -71.945512 L -127.273 -86.872766 z " /></g></svg>
