<?xml version="1.0" encoding="UTF-8" standalone="no"?>
<!-- Created with Inkscape (http://www.inkscape.org/) -->

<svg
   width="172.6701mm"
   height="172.6701mm"
   viewBox="0 0 172.6701 172.6701"
   version="1.1"
   id="svg1"
   xml:space="preserve"
   xmlns="http://www.w3.org/2000/svg"
   xmlns:svg="http://www.w3.org/2000/svg"><defs
     id="defs1" /><g
     id="layer1"
     transform="translate(157.25102,198.81012)"><path
       id="path5"
       style="fill:#ffffff;fill-opacity:1;stroke-width:0.805188;stroke-linecap:round;stroke-linejoin:round"
       d="M -2.0863309 -198.17657 L -10.088943 -183.11289 L -10.930235 -165.68398 L -19.198981 -165.68398 L -11.423229 -155.47426 L -12.166336 -140.07934 C -28.353216 -157.12094 -50.823548 -166.77435 -74.327399 -166.78417 C -103.64471 -166.77397 -130.92652 -151.79225 -146.66717 -127.05894 L -157.25102 -127.05894 L -149.61996 -115.86014 L -157.25102 -26.140039 L -8.5138455 -26.140039 L 15.419061 -26.140039 L 8.0799737 -154.80195 L 15.419061 -165.68398 L 7.4593397 -165.68398 L 6.4490654 -183.39297 L -2.0863309 -198.17657 z M -83.43072 -192.21621 C -85.584619 -189.65499 -86.77489 -186.4211 -86.795372 -183.07465 C -86.842092 -175.15518 -80.459903 -168.69733 -72.540428 -168.65072 C -64.621155 -168.60402 -58.163395 -174.98588 -58.116503 -182.90515 C -58.102813 -186.26049 -59.266203 -189.5144 -61.404157 -192.10045 C -60.83125 -190.6836 -60.536835 -189.16959 -60.537027 -187.64129 C -60.575787 -181.07411 -65.930869 -175.78172 -72.498054 -175.82031 C -79.065241 -175.85911 -84.357627 -181.21415 -84.319038 -187.78134 C -84.309338 -189.30285 -84.007827 -190.80837 -83.43072 -192.21621 z M -23.487092 -144.38347 L -19.715746 -136.52658 C -40.876189 -127.41293 -53.604003 -113.37605 -57.898945 -94.415459 C -51.823174 -97.348589 -46.061455 -98.81519 -40.614212 -98.81519 C -30.138745 -98.81519 -21.915933 -95.986672 -15.944916 -90.32992 C -9.8691457 -84.673168 -6.8312609 -77.026114 -6.8312609 -67.388684 C -6.8312609 -61.417668 -8.4548866 -56.075199 -11.702281 -51.361239 C -14.844921 -46.647279 -19.297065 -42.980777 -25.058572 -40.36191 C -30.715324 -37.743044 -37.209827 -36.433468 -44.542654 -36.433468 C -57.00846 -36.433468 -66.593706 -39.890603 -73.298005 -46.804411 C -79.897549 -53.718219 -83.197142 -63.722199 -83.197142 -76.816533 C -83.197142 -93.263016 -78.116381 -107.24755 -67.955179 -118.77056 C -57.689221 -130.39833 -42.866706 -138.93623 -23.487092 -144.38347 z M -45.013943 -87.815861 C -49.413639 -87.815861 -54.18035 -86.035211 -59.313329 -82.473552 L -59.313329 -80.430782 C -59.313329 -69.012523 -58.056095 -60.632169 -55.541983 -55.289681 C -53.027871 -49.947193 -49.047319 -47.2757 -43.600076 -47.2757 C -39.095625 -47.2757 -35.63849 -49.004009 -33.229133 -52.460913 C -30.819775 -55.917818 -29.6154 -60.841553 -29.6154 -67.231588 C -29.6154 -73.726378 -30.9768 -78.75428 -33.700422 -82.315939 C -36.319289 -85.982352 -40.090474 -87.815861 -45.013943 -87.815861 z M -129.70852 -86.872766 L -93.410989 -86.872766 L -93.410989 -71.945512 L -129.70852 -71.945512 L -129.70852 -86.872766 z " /></g></svg>
