<?xml version="1.0" encoding="UTF-8" standalone="no"?>
<!-- Created with Inkscape (http://www.inkscape.org/) -->

<svg
   width="172.6701mm"
   height="172.6701mm"
   viewBox="0 0 172.6701 172.6701"
   version="1.1"
   id="svg1"
   xml:space="preserve"
   xmlns="http://www.w3.org/2000/svg"
   xmlns:svg="http://www.w3.org/2000/svg"><defs
     id="defs1" /><g
     id="layer1"
     transform="translate(157.25102,198.81012)"><path
       id="path5"
       style="fill:#ffffff;fill-opacity:1;stroke-width:0.805188;stroke-linecap:round;stroke-linejoin:round"
       d="M -2.0863309 -198.17657 L -10.088943 -183.11289 L -10.930235 -165.68398 L -19.198981 -165.68398 L -11.423229 -155.47426 L -12.166336 -140.07934 C -28.353216 -157.12094 -50.823548 -166.77435 -74.327399 -166.78417 C -103.64471 -166.77397 -130.92652 -151.79225 -146.66717 -127.05894 L -157.25102 -127.05894 L -149.61996 -115.86014 L -157.25102 -26.140039 L -8.5138455 -26.140039 L 15.419061 -26.140039 L 8.0799737 -154.80195 L 15.419061 -165.68398 L 7.4593397 -165.68398 L 6.4490654 -183.39297 L -2.0863309 -198.17657 z M -83.43072 -192.21621 C -85.584619 -189.65499 -86.77489 -186.4211 -86.795372 -183.07465 C -86.842092 -175.15518 -80.459903 -168.69733 -72.540428 -168.65072 C -64.621155 -168.60402 -58.163395 -174.98588 -58.116503 -182.90515 C -58.102813 -186.26049 -59.266203 -189.5144 -61.404157 -192.10045 C -60.83125 -190.6836 -60.536835 -189.16959 -60.537027 -187.64129 C -60.575787 -181.07411 -65.930869 -175.78172 -72.498054 -175.82031 C -79.065241 -175.85911 -84.357627 -181.21415 -84.319038 -187.78134 C -84.309338 -189.30285 -84.007827 -190.80837 -83.43072 -192.21621 z M -79.2687 -136.55139 L -71.569428 -136.55139 C -67.588751 -136.44663 -58.89383 -136.39429 -45.485232 -136.39429 C -31.552861 -136.39429 -22.492065 -136.44663 -18.301879 -136.55139 L -10.759187 -136.55139 L -7.6167427 -129.79469 C -9.6070814 -126.65205 -13.378267 -119.84298 -18.930264 -109.36752 C -24.482261 -98.892051 -29.720047 -87.788379 -34.643517 -76.055856 C -39.566986 -64.323333 -42.028596 -55.157337 -42.028596 -48.557793 C -42.028596 -43.320059 -40.195603 -39.391332 -36.52919 -36.772465 C -40.090849 -32.477524 -44.647676 -30.330481 -50.199673 -30.330481 C -55.332652 -30.330481 -59.313204 -31.744224 -62.14158 -34.5726 C -64.969956 -37.400976 -66.384215 -41.329703 -66.384215 -46.357927 C -66.384215 -52.643207 -64.865273 -59.294735 -61.827387 -66.313298 C -58.789502 -73.436615 -53.341832 -83.074203 -45.485232 -95.225745 L -26.943728 -123.824 L -62.769965 -123.824 C -64.236531 -119.11004 -65.126856 -113.55769 -65.44112 -107.16765 C -67.326704 -106.85339 -69.264897 -106.69636 -71.255235 -106.69636 C -73.350329 -106.69636 -75.392688 -106.85339 -77.383027 -107.16765 L -81.782758 -134.19443 L -79.2687 -136.55139 z M -126.25136 -80.926876 L -89.953836 -80.926876 L -89.953836 -65.999105 L -126.25136 -65.999105 L -126.25136 -80.926876 z " /></g></svg>
