<?xml version="1.0" encoding="UTF-8" standalone="no"?>
<!-- Created with Inkscape (http://www.inkscape.org/) -->

<svg
   width="172.6701mm"
   height="172.6701mm"
   viewBox="0 0 172.6701 172.6701"
   version="1.1"
   id="svg1"
   xml:space="preserve"
   xmlns="http://www.w3.org/2000/svg"
   xmlns:svg="http://www.w3.org/2000/svg"><defs
     id="defs1" /><g
     id="layer1"
     transform="translate(157.25102,198.81012)"><path
       id="path5"
       style="fill:#ffffff;fill-opacity:1;stroke-width:0.805188;stroke-linecap:round;stroke-linejoin:round"
       d="M -2.0863309 -198.17657 L -10.088943 -183.11289 L -10.930235 -165.68398 L -19.198981 -165.68398 L -11.423229 -155.47426 L -12.166336 -140.07934 C -28.353216 -157.12094 -50.823548 -166.77435 -74.327399 -166.78417 C -103.64471 -166.77397 -130.92652 -151.79225 -146.66717 -127.05894 L -157.25102 -127.05894 L -149.61996 -115.86014 L -157.25102 -26.140039 L -8.5138455 -26.140039 L 15.419061 -26.140039 L 8.0799737 -154.80195 L 15.419061 -165.68398 L 7.4593397 -165.68398 L 6.4490654 -183.39297 L -2.0863309 -198.17657 z M -83.43072 -192.21621 C -85.584619 -189.65499 -86.77489 -186.4211 -86.795372 -183.07465 C -86.842092 -175.15518 -80.459903 -168.69733 -72.540428 -168.65072 C -64.621155 -168.60402 -58.163395 -174.98588 -58.116503 -182.90515 C -58.102813 -186.26049 -59.266203 -189.5144 -61.404157 -192.10045 C -60.83125 -190.6836 -60.536835 -189.16959 -60.537027 -187.64129 C -60.575787 -181.07411 -65.930869 -175.78172 -72.498054 -175.82031 C -79.065241 -175.85911 -84.357627 -181.21415 -84.319038 -187.78134 C -84.309338 -189.30285 -84.007827 -190.80837 -83.43072 -192.21621 z M -45.328136 -144.22637 C -34.328896 -144.22637 -25.58215 -141.86945 -19.08736 -137.15549 C -12.592571 -132.44153 -9.3453193 -126.10353 -9.3453193 -118.14218 C -9.3453193 -113.84723 -10.916603 -109.55263 -14.059243 -105.25769 C -17.201884 -100.96275 -21.33946 -97.453273 -26.472439 -94.729651 C -19.97765 -91.587011 -14.896889 -87.920509 -11.230476 -83.730323 C -7.4593075 -79.540136 -5.5739733 -74.145325 -5.5739733 -67.545781 C -5.5739733 -58.013106 -9.0311083 -50.418394 -15.944916 -44.761642 C -22.858725 -39.209644 -32.181746 -36.433468 -43.914269 -36.433468 C -56.799093 -36.433468 -66.750731 -39.000278 -73.769294 -44.133256 C -80.683102 -49.266235 -84.140237 -56.598722 -84.140237 -66.131397 C -84.140237 -71.054866 -82.568436 -75.92626 -79.425796 -80.744975 C -76.283156 -85.668445 -71.883871 -90.015905 -66.227119 -93.787073 C -70.941079 -96.40594 -74.607064 -99.548508 -77.22593 -103.21492 C -79.844797 -106.88133 -81.154373 -111.43816 -81.154373 -116.8854 C -81.154373 -125.26578 -77.907121 -131.91731 -71.412332 -136.84078 C -64.917542 -141.76425 -56.222621 -144.22637 -45.328136 -144.22637 z M -45.328136 -133.06995 C -49.518323 -133.06995 -52.818433 -131.70803 -55.22779 -128.98441 C -57.637147 -126.36554 -58.841523 -122.80372 -58.841523 -118.29927 C -58.841523 -114.31859 -57.322581 -111.019 -54.284695 -108.40013 C -51.142055 -105.88602 -46.585228 -103.37207 -40.614212 -100.85796 C -37.995345 -102.63879 -35.900644 -105.1004 -34.329324 -108.24304 C -32.758004 -111.38568 -31.972362 -114.73761 -31.972362 -118.29927 C -31.972362 -122.80372 -33.229079 -126.36554 -35.743191 -128.98441 C -38.152549 -131.70803 -41.347458 -133.06995 -45.328136 -133.06995 z M -51.770637 -87.344572 C -54.913277 -84.83046 -57.217861 -81.949601 -58.684427 -78.702206 C -60.150992 -75.454811 -60.884292 -71.578943 -60.884292 -67.074492 C -60.884292 -60.893966 -59.36535 -56.022572 -56.327464 -52.460913 C -53.289579 -49.004009 -49.152002 -47.2757 -43.914269 -47.2757 C -38.78129 -47.2757 -34.800738 -49.004009 -31.972362 -52.460913 C -29.039231 -55.917818 -27.572631 -60.73687 -27.572631 -66.917395 C -27.572631 -70.374299 -28.672323 -73.307501 -30.872171 -75.716858 C -32.967264 -78.23097 -35.638757 -80.27333 -38.886152 -81.84465 C -42.133547 -83.520724 -46.428149 -85.354234 -51.770637 -87.344572 z M -131.12238 -86.872766 L -94.824856 -86.872766 L -94.824856 -71.945512 L -131.12238 -71.945512 L -131.12238 -86.872766 z " /></g></svg>
