<?xml version="1.0" encoding="UTF-8" standalone="no"?>
<!-- Created with Inkscape (http://www.inkscape.org/) -->

<svg
   width="172.6701mm"
   height="172.6701mm"
   viewBox="0 0 172.6701 172.6701"
   version="1.1"
   id="svg1"
   xml:space="preserve"
   xmlns="http://www.w3.org/2000/svg"
   xmlns:svg="http://www.w3.org/2000/svg"><defs
     id="defs1" /><g
     id="layer1"
     transform="translate(157.25102,198.81012)"><path
       id="path5"
       style="fill:#ffffff;fill-opacity:1;stroke-width:0.805188;stroke-linecap:round;stroke-linejoin:round"
       d="M -2.0863309 -198.17657 L -10.088943 -183.11289 L -10.930235 -165.68398 L -19.198981 -165.68398 L -11.423229 -155.47426 L -12.166336 -140.07934 C -28.353216 -157.12094 -50.823548 -166.77435 -74.327399 -166.78417 C -103.64471 -166.77397 -130.92652 -151.79225 -146.66717 -127.05894 L -157.25102 -127.05894 L -149.61996 -115.86014 L -157.25102 -26.140039 L -8.5138455 -26.140039 L 15.419061 -26.140039 L 8.0799737 -154.80195 L 15.419061 -165.68398 L 7.4593397 -165.68398 L 6.4490654 -183.39297 L -2.0863309 -198.17657 z M -83.43072 -192.21621 C -85.584619 -189.65499 -86.77489 -186.4211 -86.795372 -183.07465 C -86.842092 -175.15518 -80.459903 -168.69733 -72.540428 -168.65072 C -64.621155 -168.60402 -58.163395 -174.98588 -58.116503 -182.90515 C -58.102813 -186.26049 -59.266203 -189.5144 -61.404157 -192.10045 C -60.83125 -190.6836 -60.536835 -189.16959 -60.537027 -187.64129 C -60.575787 -181.07411 -65.930869 -175.78172 -72.498054 -175.82031 C -79.065241 -175.85911 -84.357627 -181.21415 -84.319038 -187.78134 C -84.309338 -189.30285 -84.007827 -190.80837 -83.43072 -192.21621 z M -45.642845 -143.75457 C -33.17704 -143.75457 -23.644135 -140.29795 -17.044591 -133.38414 C -10.340292 -126.47033 -6.9883572 -116.46635 -6.9883572 -103.37202 C -6.9883572 -86.925535 -12.120943 -72.888145 -22.386901 -61.260376 C -32.548103 -49.737363 -47.318794 -41.252325 -66.698408 -35.805083 L -70.469754 -43.661967 C -59.994287 -48.166418 -51.561074 -53.927621 -45.17104 -60.946184 C -38.781005 -68.069501 -34.538744 -76.345172 -32.443651 -85.773092 C -38.309912 -82.839961 -44.018774 -81.373361 -49.570771 -81.373361 C -60.046238 -81.373361 -68.321909 -84.201879 -74.397679 -89.858631 C -80.368695 -95.515383 -83.354239 -103.16244 -83.354239 -112.79987 C -83.354239 -118.77088 -81.782955 -124.11335 -78.640314 -128.82731 C -75.39292 -133.54127 -70.940776 -137.20777 -65.284024 -139.82664 C -59.522517 -142.44551 -52.975672 -143.75457 -45.642845 -143.75457 z M -46.585423 -132.91285 C -51.089874 -132.91285 -54.547009 -131.18402 -56.956367 -127.72712 C -59.365724 -124.27022 -60.5701 -119.347 -60.5701 -112.95696 C -60.5701 -106.46217 -59.261041 -101.38141 -56.642174 -97.714999 C -53.918553 -94.15334 -50.094509 -92.372689 -45.17104 -92.372689 C -40.876098 -92.372689 -36.109904 -94.15334 -30.872171 -97.714999 L -30.872171 -99.757768 C -30.872171 -111.17603 -32.129405 -119.55638 -34.643517 -124.89887 C -37.157629 -130.24136 -41.138181 -132.91285 -46.585423 -132.91285 z M -129.39432 -86.872766 L -93.096796 -86.872766 L -93.096796 -71.945512 L -129.39432 -71.945512 L -129.39432 -86.872766 z " /></g></svg>
