<?xml version="1.0" encoding="UTF-8" standalone="no"?>
<!-- Created with Inkscape (http://www.inkscape.org/) -->

<svg
   width="172.6701mm"
   height="172.6701mm"
   viewBox="0 0 172.6701 172.6701"
   version="1.1"
   id="svg1"
   xml:space="preserve"
   xmlns="http://www.w3.org/2000/svg"
   xmlns:svg="http://www.w3.org/2000/svg"><defs
     id="defs1" /><g
     id="layer1"
     transform="translate(157.25102,198.81012)"><path
       id="path5"
       style="fill:#ffffff;fill-opacity:1;stroke-width:0.805188;stroke-linecap:round;stroke-linejoin:round"
       d="M -2.0863309 -198.17657 L -10.088943 -183.11289 L -10.930235 -165.68398 L -19.198981 -165.68398 L -11.423229 -155.47426 L -12.166336 -140.07934 C -28.353216 -157.12094 -50.823548 -166.77435 -74.327399 -166.78417 C -103.64471 -166.77397 -130.92652 -151.79225 -146.66717 -127.05894 L -157.25102 -127.05894 L -149.61996 -115.86014 L -157.25102 -26.140039 L -8.5138455 -26.140039 L 15.419061 -26.140039 L 8.0799737 -154.80195 L 15.419061 -165.68398 L 7.4593397 -165.68398 L 6.4490654 -183.39297 L -2.0863309 -198.17657 z M -83.43072 -192.21621 C -85.584619 -189.65499 -86.77489 -186.4211 -86.795372 -183.07465 C -86.842092 -175.15518 -80.459903 -168.69733 -72.540428 -168.65072 C -64.621155 -168.60402 -58.163395 -174.98588 -58.116503 -182.90515 C -58.102813 -186.26049 -59.266203 -189.5144 -61.404157 -192.10045 C -60.83125 -190.6836 -60.536835 -189.16959 -60.537027 -187.64129 C -60.575787 -181.07411 -65.930869 -175.78172 -72.498054 -175.82031 C -79.065241 -175.85911 -84.357627 -181.21415 -84.319038 -187.78134 C -84.309338 -189.30285 -84.007827 -190.80837 -83.43072 -192.21621 z M -36.76225 -133.11335 C -25.750132 -133.11335 -17.326406 -128.97193 -11.490925 -120.68931 C -5.5613228 -112.50081 -2.596894 -100.59459 -2.596894 -84.970557 C -2.596894 -69.346526 -5.5613228 -57.345876 -11.490925 -48.969137 C -17.326406 -40.686518 -25.750132 -36.545089 -36.76225 -36.545089 C -47.774368 -36.545089 -56.245568 -40.686518 -62.17517 -48.969137 C -68.104772 -57.345876 -71.069717 -69.346526 -71.069717 -84.970557 C -71.069717 -100.50047 -68.104772 -112.40669 -62.17517 -120.68931 C -56.245568 -128.97193 -47.774368 -133.11335 -36.76225 -133.11335 z M -100.1527 -132.26586 L -95.494066 -130.14816 L -95.494066 -48.545907 C -93.705773 -47.51058 -90.881696 -46.569393 -87.022749 -45.722307 C -83.163801 -44.969341 -80.104944 -44.498748 -77.846048 -44.310507 L -78.269794 -37.533659 L -135.87145 -37.533659 L -135.58929 -44.310507 C -127.21255 -45.251713 -120.81207 -46.663494 -116.3884 -48.545907 L -116.3884 -116.17124 L -135.30662 -116.17124 L -135.30662 -124.35988 C -129.2829 -124.83049 -123.07127 -125.72472 -116.67107 -127.04241 C -110.27086 -128.45422 -104.76461 -130.19521 -100.1527 -132.26586 z M -36.76225 -125.91276 C -41.562404 -125.91276 -45.044899 -122.75999 -47.209675 -116.45391 C -49.280329 -110.14782 -50.315945 -99.653381 -50.315945 -84.970557 C -50.315945 -70.381854 -49.280329 -59.934369 -47.209675 -53.628284 C -45.044899 -47.41632 -41.562404 -44.310507 -36.76225 -44.310507 C -31.962096 -44.310507 -28.527074 -47.41632 -26.45642 -53.628284 C -24.291644 -59.934369 -23.209073 -70.381854 -23.209073 -84.970557 C -23.209073 -99.55926 -24.291644 -110.00623 -26.45642 -116.31231 C -28.527074 -122.71252 -31.962096 -125.91276 -36.76225 -125.91276 z " /></g></svg>
