<?xml version="1.0" encoding="UTF-8" standalone="no"?>
<!-- Created with Inkscape (http://www.inkscape.org/) -->

<svg
   width="172.6701mm"
   height="172.6701mm"
   viewBox="0 0 172.6701 172.6701"
   version="1.1"
   id="svg1"
   xml:space="preserve"
   xmlns="http://www.w3.org/2000/svg"
   xmlns:svg="http://www.w3.org/2000/svg"><defs
     id="defs1" /><g
     id="layer1"
     transform="translate(157.25102,198.81012)"><path
       id="path5"
       style="fill:#ffffff;fill-opacity:1;stroke-width:0.805188;stroke-linecap:round;stroke-linejoin:round"
       d="M -2.0863309 -198.17657 L -10.088943 -183.11289 L -10.930235 -165.68398 L -19.198981 -165.68398 L -11.423229 -155.47426 L -12.166336 -140.07934 C -28.353216 -157.12094 -50.823548 -166.77435 -74.327399 -166.78417 C -103.64471 -166.77397 -130.92652 -151.79225 -146.66717 -127.05894 L -157.25102 -127.05894 L -149.61996 -115.86014 L -157.25102 -26.140039 L -8.5138455 -26.140039 L 15.419061 -26.140039 L 8.0799737 -154.80195 L 15.419061 -165.68398 L 7.4593397 -165.68398 L 6.4490654 -183.39297 L -2.0863309 -198.17657 z M -83.43072 -192.21621 C -85.584619 -189.65499 -86.77489 -186.4211 -86.795372 -183.07465 C -86.842092 -175.15518 -80.459903 -168.69733 -72.540428 -168.65072 C -64.621155 -168.60402 -58.163395 -174.98588 -58.116503 -182.90515 C -58.102813 -186.26049 -59.266203 -189.5144 -61.404157 -192.10045 C -60.83125 -190.6836 -60.536835 -189.16959 -60.537027 -187.64129 C -60.575787 -181.07411 -65.930869 -175.78172 -72.498054 -175.82031 C -79.065241 -175.85911 -84.357627 -181.21415 -84.319038 -187.78134 C -84.309338 -189.30285 -84.007827 -190.80837 -83.43072 -192.21621 z M -58.26378 -130.56984 C -49.148778 -130.56984 -42.175849 -127.14196 -37.345677 -120.28623 C -32.437599 -113.50841 -29.983853 -103.65351 -29.983853 -90.72111 C -29.983853 -77.788714 -32.437599 -67.85553 -37.345677 -60.921896 C -42.175849 -54.066168 -49.148778 -50.638286 -58.26378 -50.638286 C -67.378783 -50.638286 -74.390077 -54.066168 -79.298155 -60.921896 C -84.206233 -67.85553 -86.660497 -77.788714 -86.660497 -90.72111 C -86.660497 -103.5756 -84.206233 -113.4305 -79.298155 -120.28623 C -74.390077 -127.14196 -67.378783 -130.56984 -58.26378 -130.56984 z M -110.73345 -129.86859 L -106.87683 -128.11573 L -106.87683 -60.57153 C -105.39662 -59.714563 -103.05952 -58.935358 -99.865375 -58.234204 C -96.671229 -57.610956 -94.139201 -57.221096 -92.269457 -57.065284 L -92.62034 -51.456324 L -140.29857 -51.456324 L -140.06499 -57.065284 C -133.13135 -57.844344 -127.83348 -59.013409 -124.1719 -60.57153 L -124.1719 -116.54692 L -139.83141 -116.54692 L -139.83141 -123.32481 C -134.84543 -123.71434 -129.7036 -124.45414 -124.406 -125.54482 C -119.10839 -126.71341 -114.55084 -128.15466 -110.73345 -129.86859 z M -58.26378 -124.61 C -62.236986 -124.61 -65.119477 -122.0002 -66.911315 -116.7805 C -68.625247 -111.5608 -69.482217 -102.87445 -69.482217 -90.72111 C -69.482217 -78.64568 -68.625247 -69.997693 -66.911315 -64.777991 C -65.119477 -59.636195 -62.236986 -57.065284 -58.26378 -57.065284 C -54.290574 -57.065284 -51.446967 -59.636195 -49.733035 -64.777991 C -47.941197 -69.997693 -47.045344 -78.64568 -47.045344 -90.72111 C -47.045344 -102.79654 -47.941197 -111.44401 -49.733035 -116.66371 C -51.446967 -121.96132 -54.290574 -124.61 -58.26378 -124.61 z M -9.766999 -105.32849 C -7.040289 -105.32849 -5.0147693 -104.5104 -3.6903673 -102.87437 C -2.2880593 -101.31625 -1.5866198 -99.134686 -1.5866198 -96.33007 C -1.5866198 -93.525454 -2.2880593 -91.344404 -3.6903673 -89.786284 C -5.0147693 -88.228164 -7.040289 -87.448959 -9.766999 -87.448959 C -12.493709 -87.448959 -14.558111 -88.228164 -15.960419 -89.786284 C -17.284821 -91.42231 -17.947378 -93.60336 -17.947378 -96.33007 C -17.947378 -99.212592 -17.284821 -101.43304 -15.960419 -102.99116 C -14.558111 -104.54928 -12.493709 -105.32849 -9.766999 -105.32849 z M -9.766999 -68.517814 C -7.040289 -68.517814 -5.0147693 -67.699727 -3.6903673 -66.063701 C -2.2880593 -64.505581 -1.5866198 -62.324013 -1.5866198 -59.519397 C -1.5866198 -56.714781 -2.2880593 -54.533731 -3.6903673 -52.975611 C -5.0147693 -51.417491 -7.040289 -50.638286 -9.766999 -50.638286 C -12.493709 -50.638286 -14.558111 -51.417491 -15.960419 -52.975611 C -17.284821 -54.611637 -17.947378 -56.792687 -17.947378 -59.519397 C -17.947378 -62.401919 -17.284821 -64.622369 -15.960419 -66.180489 C -14.558111 -67.738609 -12.493709 -68.517814 -9.766999 -68.517814 z " /></g></svg>
