<?xml version="1.0" encoding="UTF-8" standalone="no"?>
<!-- Created with Inkscape (http://www.inkscape.org/) -->

<svg
   width="172.6701mm"
   height="172.6701mm"
   viewBox="0 0 172.6701 172.6701"
   version="1.1"
   id="svg1"
   xml:space="preserve"
   xmlns="http://www.w3.org/2000/svg"
   xmlns:svg="http://www.w3.org/2000/svg"><defs
     id="defs1" /><g
     id="layer1"
     transform="translate(157.25102,198.81012)"><path
       id="path5"
       style="fill:#ffffff;fill-opacity:1;stroke-width:0.805188;stroke-linecap:round;stroke-linejoin:round"
       d="M -2.0863309 -198.17657 L -10.088943 -183.11289 L -10.930235 -165.68398 L -19.198981 -165.68398 L -11.423229 -155.47426 L -12.166336 -140.07934 C -28.353216 -157.12094 -50.823548 -166.77435 -74.327399 -166.78417 C -103.64471 -166.77397 -130.92652 -151.79225 -146.66717 -127.05894 L -157.25102 -127.05894 L -149.61996 -115.86014 L -157.25102 -26.140039 L -8.5138455 -26.140039 L 15.419061 -26.140039 L 8.0799737 -154.80195 L 15.419061 -165.68398 L 7.4593397 -165.68398 L 6.4490654 -183.39297 L -2.0863309 -198.17657 z M -83.43072 -192.21621 C -85.584619 -189.65499 -86.77489 -186.4211 -86.795372 -183.07465 C -86.842092 -175.15518 -80.459903 -168.69733 -72.540428 -168.65072 C -64.621155 -168.60402 -58.163395 -174.98588 -58.116503 -182.90515 C -58.102813 -186.26049 -59.266203 -189.5144 -61.404157 -192.10045 C -60.83125 -190.6836 -60.536835 -189.16959 -60.537027 -187.64129 C -60.575787 -181.07411 -65.930869 -175.78172 -72.498054 -175.82031 C -79.065241 -175.85911 -84.357627 -181.21415 -84.319038 -187.78134 C -84.309338 -189.30285 -84.007827 -190.80837 -83.43072 -192.21621 z M -94.858446 -132.26586 L -90.199299 -130.14816 L -90.199299 -48.545907 C -88.411006 -47.51058 -85.587445 -46.569393 -81.728498 -45.722307 C -77.869551 -44.969341 -74.810693 -44.498748 -72.551797 -44.310507 L -72.975544 -37.533659 L -130.5772 -37.533659 L -130.29504 -44.310507 C -121.9183 -45.251713 -115.51782 -46.663494 -111.09415 -48.545907 L -111.09415 -116.17124 L -130.01237 -116.17124 L -130.01237 -124.35988 C -123.98865 -124.83049 -117.77702 -125.72472 -111.37682 -127.04241 C -104.97661 -128.45422 -99.470359 -130.19521 -94.858446 -132.26586 z M -30.197277 -132.26586 L -25.538646 -130.14816 L -25.538646 -48.545907 C -23.750353 -47.51058 -20.926793 -46.569393 -17.067845 -45.722307 C -13.208898 -44.969341 -10.150041 -44.498748 -7.8911445 -44.310507 L -8.3143745 -37.533659 L -65.916543 -37.533659 L -65.633873 -44.310507 C -57.257134 -45.251713 -50.857166 -46.663494 -46.433495 -48.545907 L -46.433495 -116.17124 L -65.35172 -116.17124 L -65.35172 -124.35988 C -59.327997 -124.83049 -53.115853 -125.72472 -46.715648 -127.04241 C -40.315443 -128.45422 -34.809189 -130.19521 -30.197277 -132.26586 z " /></g></svg>
