<?xml version="1.0" encoding="UTF-8" standalone="no"?>
<!-- Created with Inkscape (http://www.inkscape.org/) -->

<svg
   width="172.6701mm"
   height="172.6701mm"
   viewBox="0 0 172.6701 172.6701"
   version="1.1"
   id="svg1"
   xml:space="preserve"
   xmlns="http://www.w3.org/2000/svg"
   xmlns:svg="http://www.w3.org/2000/svg"><defs
     id="defs1" /><g
     id="layer1"
     transform="translate(157.25102,198.81012)"><path
       id="path5"
       style="fill:#ffffff;fill-opacity:1;stroke-width:0.805188;stroke-linecap:round;stroke-linejoin:round"
       d="M -2.0863309 -198.17657 L -10.088943 -183.11289 L -10.930235 -165.68398 L -19.198981 -165.68398 L -11.423229 -155.47426 L -12.166336 -140.07934 C -28.353216 -157.12094 -50.823548 -166.77435 -74.327399 -166.78417 C -103.64471 -166.77397 -130.92652 -151.79225 -146.66717 -127.05894 L -157.25102 -127.05894 L -149.61996 -115.86014 L -157.25102 -26.140039 L -8.5138455 -26.140039 L 15.419061 -26.140039 L 8.0799737 -154.80195 L 15.419061 -165.68398 L 7.4593397 -165.68398 L 6.4490654 -183.39297 L -2.0863309 -198.17657 z M -83.43072 -192.21621 C -85.584619 -189.65499 -86.77489 -186.4211 -86.795372 -183.07465 C -86.842092 -175.15518 -80.459903 -168.69733 -72.540428 -168.65072 C -64.621155 -168.60402 -58.163395 -174.98588 -58.116503 -182.90515 C -58.102813 -186.26049 -59.266203 -189.5144 -61.404157 -192.10045 C -60.83125 -190.6836 -60.536835 -189.16959 -60.537027 -187.64129 C -60.575787 -181.07411 -65.930869 -175.78172 -72.498054 -175.82031 C -79.065241 -175.85911 -84.357627 -181.21415 -84.319038 -187.78134 C -84.309338 -189.30285 -84.007827 -190.80837 -83.43072 -192.21621 z M -106.35128 -129.86859 L -102.49467 -128.11573 L -102.49467 -60.57153 C -101.01446 -59.714563 -98.67736 -58.935358 -95.483214 -58.234204 C -92.289068 -57.610956 -89.757039 -57.221096 -87.887295 -57.065284 L -88.237661 -51.456324 L -135.9164 -51.456324 L -135.68283 -57.065284 C -128.74919 -57.844344 -123.45132 -59.013409 -119.78974 -60.57153 L -119.78974 -116.54692 L -135.44873 -116.54692 L -135.44873 -123.32481 C -130.46275 -123.71434 -125.32093 -124.45414 -120.02332 -125.54482 C -114.72571 -126.71341 -110.16868 -128.15466 -106.35128 -129.86859 z M -52.829487 -129.86859 L -48.973391 -128.11573 L -48.973391 -60.57153 C -47.493177 -59.714563 -45.156079 -58.935358 -41.961933 -58.234204 C -38.767787 -57.610956 -36.235758 -57.221096 -34.366014 -57.065284 L -34.716381 -51.456324 L -82.395124 -51.456324 L -82.16103 -57.065284 C -75.227396 -57.844344 -69.930042 -59.013409 -66.26846 -60.57153 L -66.26846 -116.54692 L -81.927452 -116.54692 L -81.927452 -123.32481 C -76.941468 -123.71434 -71.799645 -124.45414 -66.502037 -125.54482 C -61.204429 -126.71341 -56.646881 -128.15466 -52.829487 -129.86859 z M -14.14916 -105.32849 C -11.42245 -105.32849 -9.3969308 -104.5104 -8.0725288 -102.87437 C -6.6702208 -101.31625 -5.969298 -99.134686 -5.969298 -96.33007 C -5.969298 -93.525454 -6.6702208 -91.344404 -8.0725288 -89.786284 C -9.3969308 -88.228164 -11.42245 -87.448959 -14.14916 -87.448959 C -16.87587 -87.448959 -18.940273 -88.228164 -20.342581 -89.786284 C -21.666983 -91.42231 -22.32954 -93.60336 -22.32954 -96.33007 C -22.32954 -99.212592 -21.666983 -101.43304 -20.342581 -102.99116 C -18.940273 -104.54928 -16.87587 -105.32849 -14.14916 -105.32849 z M -14.14916 -68.517814 C -11.42245 -68.517814 -9.3969308 -67.699727 -8.0725288 -66.063701 C -6.6702208 -64.505581 -5.969298 -62.324013 -5.969298 -59.519397 C -5.969298 -56.714781 -6.6702208 -54.533731 -8.0725288 -52.975611 C -9.3969308 -51.417491 -11.42245 -50.638286 -14.14916 -50.638286 C -16.87587 -50.638286 -18.940273 -51.417491 -20.342581 -52.975611 C -21.666983 -54.611637 -22.32954 -56.792687 -22.32954 -59.519397 C -22.32954 -62.401919 -21.666983 -64.622369 -20.342581 -66.180489 C -18.940273 -67.738609 -16.87587 -68.517814 -14.14916 -68.517814 z " /></g></svg>
