<?xml version="1.0" encoding="UTF-8" standalone="no"?>
<!-- Created with Inkscape (http://www.inkscape.org/) -->

<svg
   width="172.6701mm"
   height="172.6701mm"
   viewBox="0 0 172.6701 172.6701"
   version="1.1"
   id="svg1"
   xml:space="preserve"
   xmlns="http://www.w3.org/2000/svg"
   xmlns:svg="http://www.w3.org/2000/svg"><defs
     id="defs1" /><g
     id="layer1"
     transform="translate(157.25102,198.81012)"><path
       id="path5"
       style="fill:#ffffff;fill-opacity:1;stroke-width:0.805188;stroke-linecap:round;stroke-linejoin:round"
       d="M -2.0863309 -198.17657 L -10.088943 -183.11289 L -10.930235 -165.68398 L -19.198981 -165.68398 L -11.423229 -155.47426 L -12.166336 -140.07934 C -28.353216 -157.12094 -50.823548 -166.77435 -74.327399 -166.78417 C -103.64471 -166.77397 -130.92652 -151.79225 -146.66717 -127.05894 L -157.25102 -127.05894 L -149.61996 -115.86014 L -157.25102 -26.140039 L -8.5138455 -26.140039 L 15.419061 -26.140039 L 8.0799737 -154.80195 L 15.419061 -165.68398 L 7.4593397 -165.68398 L 6.4490654 -183.39297 L -2.0863309 -198.17657 z M -83.43072 -192.21621 C -85.584619 -189.65499 -86.77489 -186.4211 -86.795372 -183.07465 C -86.842092 -175.15518 -80.459903 -168.69733 -72.540428 -168.65072 C -64.621155 -168.60402 -58.163395 -174.98588 -58.116503 -182.90515 C -58.102813 -186.26049 -59.266203 -189.5144 -61.404157 -192.10045 C -60.83125 -190.6836 -60.536835 -189.16959 -60.537027 -187.64129 C -60.575787 -181.07411 -65.930869 -175.78172 -72.498054 -175.82031 C -79.065241 -175.85911 -84.357627 -181.21415 -84.319038 -187.78134 C -84.309338 -189.30285 -84.007827 -190.80837 -83.43072 -192.21621 z M -38.527001 -133.25443 C -32.409157 -133.25443 -26.997332 -132.21882 -22.291299 -130.14816 C -17.585266 -128.17163 -13.91443 -125.34807 -11.279051 -121.67736 C -8.6436728 -118.10078 -7.3263211 -113.95935 -7.3263211 -109.25331 C -7.3263211 -103.98256 -8.8789695 -99.464961 -11.984951 -95.700135 C -15.090933 -91.935308 -19.702956 -89.064791 -25.820799 -87.088257 C -18.102905 -85.394085 -12.69108 -82.61748 -9.585098 -78.758533 C -6.479116 -74.899586 -4.9259508 -69.675585 -4.9259508 -63.087138 C -4.9259508 -57.345778 -6.6674567 -52.451502 -10.149921 -48.404314 C -13.538265 -44.357125 -17.961947 -41.345223 -23.420946 -39.368689 C -28.879945 -37.392155 -34.527066 -36.404012 -40.362548 -36.404012 C -48.833407 -36.404012 -56.033694 -38.145518 -61.963296 -41.627983 C -67.798778 -45.110448 -70.71625 -49.863338 -70.71625 -55.887061 C -70.71625 -59.369526 -69.681151 -62.052218 -67.610497 -63.934632 C -65.539842 -65.911166 -62.951578 -66.899309 -59.845596 -66.899309 C -56.645493 -66.899309 -53.398295 -65.628396 -50.104072 -63.087138 C -50.951158 -61.298846 -51.374795 -59.134219 -51.374795 -56.592961 C -51.374795 -53.5811 -50.480564 -51.13422 -48.692272 -49.251807 C -46.809858 -47.369394 -44.033254 -46.428207 -40.362548 -46.428207 C -32.26817 -46.428207 -28.22117 -52.028372 -28.22117 -63.228732 C -28.22117 -69.346575 -30.197456 -74.099466 -34.150524 -77.48781 C -38.009471 -80.876154 -43.515725 -82.570187 -50.668895 -82.570187 L -50.668895 -91.323658 C -36.833157 -92.453106 -29.915123 -98.429436 -29.915123 -109.25331 C -29.915123 -114.71231 -30.762398 -118.71287 -32.45657 -121.25413 C -34.150742 -123.88951 -36.456237 -125.20686 -39.373977 -125.20686 C -42.856442 -125.20686 -45.492179 -123.98342 -47.280471 -121.53628 C -48.974643 -119.08915 -49.821402 -116.1242 -49.821402 -112.64174 C -49.821402 -109.53575 -49.162984 -106.75915 -47.845295 -104.31201 C -50.480674 -101.48839 -53.86874 -100.07661 -58.010049 -100.07661 C -61.774876 -100.07661 -64.692865 -101.20614 -66.76352 -103.46504 C -68.834175 -105.72393 -69.869274 -108.64192 -69.869274 -112.21851 C -69.869274 -116.92454 -68.269152 -120.83016 -65.06905 -123.93614 C -61.774826 -127.13624 -57.727826 -129.48921 -52.927672 -130.99514 C -48.033397 -132.50107 -43.233034 -133.25443 -38.527001 -133.25443 z M -98.387946 -132.26586 L -93.728799 -130.14816 L -93.728799 -48.545907 C -91.940506 -47.51058 -89.116946 -46.569393 -85.257998 -45.722307 C -81.399051 -44.969341 -78.340194 -44.498748 -76.081298 -44.310507 L -76.505044 -37.533659 L -134.1067 -37.533659 L -133.82454 -44.310507 C -125.4478 -45.251713 -119.04732 -46.663494 -114.62365 -48.545907 L -114.62365 -116.17124 L -133.54187 -116.17124 L -133.54187 -124.35988 C -127.51815 -124.83049 -121.30652 -125.72472 -114.90632 -127.04241 C -108.50611 -128.45422 -102.99986 -130.19521 -98.387946 -132.26586 z " /></g></svg>
