<?xml version="1.0" encoding="UTF-8" standalone="no"?>
<!-- Created with Inkscape (http://www.inkscape.org/) -->

<svg
   width="172.6701mm"
   height="172.6701mm"
   viewBox="0 0 172.6701 172.6701"
   version="1.1"
   id="svg1"
   xml:space="preserve"
   xmlns="http://www.w3.org/2000/svg"
   xmlns:svg="http://www.w3.org/2000/svg"><defs
     id="defs1" /><g
     id="layer1"
     transform="translate(157.25102,198.81012)"><path
       id="path5"
       style="fill:#ffffff;fill-opacity:1;stroke-width:0.805188;stroke-linecap:round;stroke-linejoin:round"
       d="M -2.0863309 -198.17657 L -10.088943 -183.11289 L -10.930235 -165.68398 L -19.198981 -165.68398 L -11.423229 -155.47426 L -12.166336 -140.07934 C -28.353216 -157.12094 -50.823548 -166.77435 -74.327399 -166.78417 C -103.64471 -166.77397 -130.92652 -151.79225 -146.66717 -127.05894 L -157.25102 -127.05894 L -149.61996 -115.86014 L -157.25102 -26.140039 L -8.5138455 -26.140039 L 15.419061 -26.140039 L 8.0799737 -154.80195 L 15.419061 -165.68398 L 7.4593397 -165.68398 L 6.4490654 -183.39297 L -2.0863309 -198.17657 z M -83.43072 -192.21621 C -85.584619 -189.65499 -86.77489 -186.4211 -86.795372 -183.07465 C -86.842092 -175.15518 -80.459903 -168.69733 -72.540428 -168.65072 C -64.621155 -168.60402 -58.163395 -174.98588 -58.116503 -182.90515 C -58.102813 -186.26049 -59.266203 -189.5144 -61.404157 -192.10045 C -60.83125 -190.6836 -60.536835 -189.16959 -60.537027 -187.64129 C -60.575787 -181.07411 -65.930869 -175.78172 -72.498054 -175.82031 C -79.065241 -175.85911 -84.357627 -181.21415 -84.319038 -187.78134 C -84.309338 -189.30285 -84.007827 -190.80837 -83.43072 -192.21621 z M -59.724156 -130.68663 C -54.660266 -130.68663 -50.181 -129.82966 -46.2857 -128.11573 C -42.3904 -126.4797 -39.351862 -124.1426 -37.170494 -121.10427 C -34.989126 -118.14384 -33.898343 -114.71596 -33.898343 -110.82066 C -33.898343 -106.45792 -35.184057 -102.71846 -37.754955 -99.602222 C -40.325853 -96.485982 -44.143079 -94.110001 -49.206969 -92.473975 C -42.818677 -91.071667 -38.338894 -88.773451 -35.767996 -85.579305 C -33.197098 -82.385159 -31.911901 -78.061424 -31.911901 -72.608004 C -31.911901 -67.855738 -33.353146 -63.804182 -36.235668 -60.454224 C -39.040284 -57.104266 -42.701979 -54.611637 -47.220527 -52.975611 C -51.739075 -51.339585 -56.413271 -50.521497 -61.243444 -50.521497 C -68.254984 -50.521497 -74.214894 -51.962742 -79.122972 -54.845264 C -83.953144 -57.727786 -86.368008 -61.662177 -86.368008 -66.648161 C -86.368008 -69.530683 -85.511038 -71.750617 -83.797106 -73.308737 C -82.083174 -74.944763 -79.941006 -75.76285 -77.370108 -75.76285 C -74.721304 -75.76285 -72.033227 -74.711466 -69.306517 -72.608004 C -70.007671 -71.12779 -70.358649 -69.335567 -70.358649 -67.232105 C -70.358649 -64.739113 -69.618327 -62.713593 -68.138113 -61.155473 C -66.579993 -59.597353 -64.281778 -58.818665 -61.243444 -58.818665 C -54.543527 -58.818665 -51.193411 -63.453979 -51.193411 -72.724793 C -51.193411 -77.788683 -52.829586 -81.722557 -56.101638 -84.527173 C -59.295785 -87.331789 -63.853333 -88.734152 -69.774189 -88.734152 L -69.774189 -95.979704 C -58.322007 -96.914576 -52.595909 -101.86147 -52.595909 -110.82066 C -52.595909 -115.33921 -53.296832 -118.65044 -54.69914 -120.7539 C -56.101448 -122.93527 -58.01032 -124.02554 -60.425406 -124.02554 C -63.307928 -124.02554 -65.489495 -123.01304 -66.969709 -120.98748 C -68.372017 -118.96192 -69.07294 -116.50766 -69.07294 -113.62514 C -69.07294 -111.05424 -68.527548 -108.75603 -67.436864 -106.73047 C -69.618232 -104.39329 -72.422957 -103.22474 -75.850821 -103.22474 C -78.967061 -103.22474 -81.381924 -104.15948 -83.095856 -106.02922 C -84.809788 -107.89896 -85.666759 -110.31434 -85.666759 -113.27477 C -85.666759 -117.17007 -84.342679 -120.40302 -81.693875 -122.97392 C -78.967165 -125.62273 -75.617048 -127.57048 -71.643842 -128.81698 C -67.59273 -130.06347 -63.619456 -130.68663 -59.724156 -130.68663 z M -109.27255 -129.86859 L -105.41594 -128.11573 L -105.41594 -60.57153 C -103.93573 -59.714563 -101.59863 -58.935358 -98.404483 -58.234204 C -95.210337 -57.610956 -92.678308 -57.221096 -90.808564 -57.065284 L -91.159447 -51.456324 L -138.83767 -51.456324 L -138.6041 -57.065284 C -131.67046 -57.844344 -126.37259 -59.013409 -122.71101 -60.57153 L -122.71101 -116.54692 L -138.37052 -116.54692 L -138.37052 -123.32481 C -133.38453 -123.71434 -128.24271 -124.45414 -122.9451 -125.54482 C -117.6475 -126.71341 -113.08995 -128.15466 -109.27255 -129.86859 z M -11.227892 -105.32849 C -8.5011817 -105.32849 -6.4756621 -104.5104 -5.1512601 -102.87437 C -3.7489521 -101.31625 -3.0475125 -99.134686 -3.0475125 -96.33007 C -3.0475125 -93.525454 -3.7489521 -91.344404 -5.1512601 -89.786284 C -6.4756621 -88.228164 -8.5011817 -87.448959 -11.227892 -87.448959 C -13.954602 -87.448959 -16.019004 -88.228164 -17.421312 -89.786284 C -18.745714 -91.42231 -19.407754 -93.60336 -19.407754 -96.33007 C -19.407754 -99.212592 -18.745714 -101.43304 -17.421312 -102.99116 C -16.019004 -104.54928 -13.954602 -105.32849 -11.227892 -105.32849 z M -11.227892 -68.517814 C -8.5011817 -68.517814 -6.4756621 -67.699727 -5.1512601 -66.063701 C -3.7489521 -64.505581 -3.0475125 -62.324013 -3.0475125 -59.519397 C -3.0475125 -56.714781 -3.7489521 -54.533731 -5.1512601 -52.975611 C -6.4756621 -51.417491 -8.5011817 -50.638286 -11.227892 -50.638286 C -13.954602 -50.638286 -16.019004 -51.417491 -17.421312 -52.975611 C -18.745714 -54.611637 -19.407754 -56.792687 -19.407754 -59.519397 C -19.407754 -62.401919 -18.745714 -64.622369 -17.421312 -66.180489 C -16.019004 -67.738609 -13.954602 -68.517814 -11.227892 -68.517814 z " /></g></svg>
