<?xml version="1.0" encoding="UTF-8" standalone="no"?>
<!-- Created with Inkscape (http://www.inkscape.org/) -->

<svg
   width="172.6701mm"
   height="172.6701mm"
   viewBox="0 0 172.6701 172.6701"
   version="1.1"
   id="svg1"
   xml:space="preserve"
   xmlns="http://www.w3.org/2000/svg"
   xmlns:svg="http://www.w3.org/2000/svg"><defs
     id="defs1" /><g
     id="layer1"
     transform="translate(157.25102,198.81012)"><path
       id="path5"
       style="fill:#ffffff;fill-opacity:1;stroke-width:0.805188;stroke-linecap:round;stroke-linejoin:round"
       d="M -2.0863309 -198.17657 L -10.088943 -183.11289 L -10.930235 -165.68398 L -19.198981 -165.68398 L -11.423229 -155.47426 L -12.166336 -140.07934 C -28.353216 -157.12094 -50.823548 -166.77435 -74.327399 -166.78417 C -103.64471 -166.77397 -130.92652 -151.79225 -146.66717 -127.05894 L -157.25102 -127.05894 L -149.61996 -115.86014 L -157.25102 -26.140039 L -8.5138455 -26.140039 L 15.419061 -26.140039 L 8.0799737 -154.80195 L 15.419061 -165.68398 L 7.4593397 -165.68398 L 6.4490654 -183.39297 L -2.0863309 -198.17657 z M -83.43072 -192.21621 C -85.584619 -189.65499 -86.77489 -186.4211 -86.795372 -183.07465 C -86.842092 -175.15518 -80.459903 -168.69733 -72.540428 -168.65072 C -64.621155 -168.60402 -58.163395 -174.98588 -58.116503 -182.90515 C -58.102813 -186.26049 -59.266203 -189.5144 -61.404157 -192.10045 C -60.83125 -190.6836 -60.536835 -189.16959 -60.537027 -187.64129 C -60.575787 -181.07411 -65.930869 -175.78172 -72.498054 -175.82031 C -79.065241 -175.85911 -84.357627 -181.21415 -84.319038 -187.78134 C -84.309338 -189.30285 -84.007827 -190.80837 -83.43072 -192.21621 z M -61.06826 -131.1543 C -54.83578 -130.84268 -49.771723 -129.4792 -45.876423 -127.06411 L -73.688679 -81.255538 L -55.809667 -81.255538 L -54.640746 -100.30347 C -52.147754 -100.30347 -50.356047 -100.80998 -49.265363 -101.82276 C -48.096773 -102.83554 -47.20092 -104.54948 -46.577672 -106.96456 L -39.91658 -106.96456 L -40.033369 -80.671078 C -37.072941 -79.814112 -33.33348 -78.918259 -28.814932 -77.983387 L -29.399392 -72.37391 L -40.617829 -72.37391 L -40.617829 -51.456324 L -55.809667 -51.456324 L -55.809667 -72.37391 L -89.581765 -72.37391 L -90.516592 -76.580888 L -61.06826 -131.1543 z M -111.90185 -129.86859 L -108.04524 -128.11573 L -108.04524 -60.57153 C -106.56502 -59.714563 -104.22793 -58.935358 -101.03378 -58.234204 C -97.839634 -57.610956 -95.307605 -57.221096 -93.437861 -57.065284 L -93.788744 -51.456324 L -141.46697 -51.456324 L -141.23339 -57.065284 C -134.29976 -57.844344 -129.00241 -59.013409 -125.34082 -60.57153 L -125.34082 -116.54692 L -140.99982 -116.54692 L -140.99982 -123.32481 C -136.01383 -123.71434 -130.87201 -124.45414 -125.5744 -125.54482 C -120.27679 -126.71341 -115.71924 -128.15466 -111.90185 -129.86859 z M -8.5985949 -105.32849 C -5.8718848 -105.32849 -3.8463652 -104.5104 -2.5219632 -102.87437 C -1.1196552 -101.31625 -0.41821564 -99.134686 -0.41821564 -96.33007 C -0.41821564 -93.525454 -1.1196552 -91.344404 -2.5219632 -89.786284 C -3.8463652 -88.228164 -5.8718848 -87.448959 -8.5985949 -87.448959 C -11.325305 -87.448959 -13.389707 -88.228164 -14.792015 -89.786284 C -16.116417 -91.42231 -16.778457 -93.60336 -16.778457 -96.33007 C -16.778457 -99.212592 -16.116417 -101.43304 -14.792015 -102.99116 C -13.389707 -104.54928 -11.325305 -105.32849 -8.5985949 -105.32849 z M -8.5985949 -68.517814 C -5.8718848 -68.517814 -3.8463652 -67.699727 -2.5219632 -66.063701 C -1.1196552 -64.505581 -0.41821564 -62.324013 -0.41821564 -59.519397 C -0.41821564 -56.714781 -1.1196552 -54.533731 -2.5219632 -52.975611 C -3.8463652 -51.417491 -5.8718848 -50.638286 -8.5985949 -50.638286 C -11.325305 -50.638286 -13.389707 -51.417491 -14.792015 -52.975611 C -16.116417 -54.611637 -16.778457 -56.792687 -16.778457 -59.519397 C -16.778457 -62.401919 -16.116417 -64.622369 -14.792015 -66.180489 C -13.389707 -67.738609 -11.325305 -68.517814 -8.5985949 -68.517814 z " /></g></svg>
