<?xml version="1.0" encoding="UTF-8" standalone="no"?>
<!-- Created with Inkscape (http://www.inkscape.org/) -->

<svg
   width="172.6701mm"
   height="172.6701mm"
   viewBox="0 0 172.6701 172.6701"
   version="1.1"
   id="svg1"
   xml:space="preserve"
   xmlns="http://www.w3.org/2000/svg"
   xmlns:svg="http://www.w3.org/2000/svg"><defs
     id="defs1" /><g
     id="layer1"
     transform="translate(157.25102,198.81012)"><path
       id="path5"
       style="fill:#ffffff;fill-opacity:1;stroke-width:0.805188;stroke-linecap:round;stroke-linejoin:round"
       d="M -2.0863309 -198.17657 L -10.088943 -183.11289 L -10.930235 -165.68398 L -19.198981 -165.68398 L -11.423229 -155.47426 L -12.166336 -140.07934 C -28.353216 -157.12094 -50.823548 -166.77435 -74.327399 -166.78417 C -103.64471 -166.77397 -130.92652 -151.79225 -146.66717 -127.05894 L -157.25102 -127.05894 L -149.61996 -115.86014 L -157.25102 -26.140039 L -8.5138455 -26.140039 L 15.419061 -26.140039 L 8.0799737 -154.80195 L 15.419061 -165.68398 L 7.4593397 -165.68398 L 6.4490654 -183.39297 L -2.0863309 -198.17657 z M -83.43072 -192.21621 C -85.584619 -189.65499 -86.77489 -186.4211 -86.795372 -183.07465 C -86.842092 -175.15518 -80.459903 -168.69733 -72.540428 -168.65072 C -64.621155 -168.60402 -58.163395 -174.98588 -58.116503 -182.90515 C -58.102813 -186.26049 -59.266203 -189.5144 -61.404157 -192.10045 C -60.83125 -190.6836 -60.536835 -189.16959 -60.537027 -187.64129 C -60.575787 -181.07411 -65.930869 -175.78172 -72.498054 -175.82031 C -79.065241 -175.85911 -84.357627 -181.21415 -84.319038 -187.78134 C -84.309338 -189.30285 -84.007827 -190.80837 -83.43072 -192.21621 z M -99.234923 -132.26586 L -94.576293 -130.14816 L -94.576293 -48.545907 C -92.788 -47.51058 -89.964439 -46.569393 -86.105492 -45.722307 C -82.246545 -44.969341 -79.18717 -44.498748 -76.928274 -44.310507 L -77.352021 -37.533659 L -134.95367 -37.533659 L -134.67152 -44.310507 C -126.29478 -45.251713 -119.89481 -46.663494 -115.47114 -48.545907 L -115.47114 -116.17124 L -134.38937 -116.17124 L -134.38937 -124.35988 C -128.36564 -124.83049 -122.1535 -125.72472 -115.75329 -127.04241 C -109.35309 -128.45422 -103.84684 -130.19521 -99.234923 -132.26586 z M -58.292719 -132.12478 L -51.233719 -131.98371 C -41.256928 -131.79547 -35.985971 -131.70104 -35.421247 -131.70104 L -15.373375 -131.98371 L -11.279051 -129.01903 L -12.549775 -118.28894 L -47.562625 -118.28894 L -49.539248 -94.712081 C -44.644974 -95.93565 -40.221292 -96.547111 -36.268224 -96.547111 C -26.950278 -96.547111 -19.373826 -94.053276 -13.538345 -89.064881 C -7.608743 -84.170606 -4.6437975 -76.970319 -4.6437975 -67.464132 C -4.6437975 -61.53453 -6.0555779 -56.216617 -8.8791979 -51.510584 C -11.608697 -46.804551 -15.561786 -43.086759 -20.738422 -40.357259 C -25.915059 -37.721881 -32.032774 -36.404012 -39.091824 -36.404012 C -44.833185 -36.404012 -50.057186 -37.204331 -54.763219 -38.804383 C -59.375132 -40.404434 -62.998495 -42.616017 -65.633873 -45.439637 C -68.269252 -48.357377 -69.58712 -51.604576 -69.58712 -55.181161 C -69.58712 -58.945988 -68.551505 -61.816504 -66.48085 -63.793038 C -64.410195 -65.863693 -61.869404 -66.899309 -58.857543 -66.899309 C -57.163371 -66.899309 -55.468821 -66.569583 -53.774649 -65.910738 C -51.986356 -65.251894 -50.386235 -64.310707 -48.974425 -63.087138 C -49.821511 -61.110604 -50.245148 -59.03989 -50.245148 -56.875114 C -50.245148 -53.769132 -49.350917 -51.228341 -47.562625 -49.251807 C -45.680211 -47.275273 -42.856651 -46.286613 -39.091824 -46.286613 C -30.620964 -46.286613 -26.385623 -53.346032 -26.385623 -67.464132 C -26.385623 -74.146699 -27.703491 -78.993502 -30.33887 -82.005363 C -32.974249 -85.111345 -36.5037 -86.66451 -40.927371 -86.66451 C -43.65687 -86.66451 -46.574343 -86.146961 -49.680325 -85.111634 C -52.786307 -84.076306 -55.845681 -82.61757 -58.857543 -80.735157 L -66.622443 -88.217387 L -62.95135 -128.31313 L -58.292719 -132.12478 z " /></g></svg>
