<?xml version="1.0" encoding="UTF-8" standalone="no"?>
<!-- Created with Inkscape (http://www.inkscape.org/) -->

<svg
   width="172.6701mm"
   height="172.6701mm"
   viewBox="0 0 172.6701 172.6701"
   version="1.1"
   id="svg1"
   xml:space="preserve"
   xmlns="http://www.w3.org/2000/svg"
   xmlns:svg="http://www.w3.org/2000/svg"><defs
     id="defs1" /><g
     id="layer1"
     transform="translate(157.25102,198.81012)"><path
       id="path5"
       style="fill:#ffffff;fill-opacity:1;stroke-width:0.805188;stroke-linecap:round;stroke-linejoin:round"
       d="M -2.0863309 -198.17657 L -10.088943 -183.11289 L -10.930235 -165.68398 L -19.198981 -165.68398 L -11.423229 -155.47426 L -12.166336 -140.07934 C -28.353216 -157.12094 -50.823548 -166.77435 -74.327399 -166.78417 C -103.64471 -166.77397 -130.92652 -151.79225 -146.66717 -127.05894 L -157.25102 -127.05894 L -149.61996 -115.86014 L -157.25102 -26.140039 L -8.5138455 -26.140039 L 15.419061 -26.140039 L 8.0799737 -154.80195 L 15.419061 -165.68398 L 7.4593397 -165.68398 L 6.4490654 -183.39297 L -2.0863309 -198.17657 z M -83.43072 -192.21621 C -85.584619 -189.65499 -86.77489 -186.4211 -86.795372 -183.07465 C -86.842092 -175.15518 -80.459903 -168.69733 -72.540428 -168.65072 C -64.621155 -168.60402 -58.163395 -174.98588 -58.116503 -182.90515 C -58.102813 -186.26049 -59.266203 -189.5144 -61.404157 -192.10045 C -60.83125 -190.6836 -60.536835 -189.16959 -60.537027 -187.64129 C -60.575787 -181.07411 -65.930869 -175.78172 -72.498054 -175.82031 C -79.065241 -175.85911 -84.357627 -181.21415 -84.319038 -187.78134 C -84.309338 -189.30285 -84.007827 -190.80837 -83.43072 -192.21621 z M -109.9738 -129.86859 L -106.11719 -128.11573 L -106.11719 -60.57153 C -104.63698 -59.714563 -102.29988 -58.935358 -99.105732 -58.234204 C -95.911586 -57.610956 -93.379557 -57.221096 -91.509813 -57.065284 L -91.860696 -51.456324 L -139.53892 -51.456324 L -139.30535 -57.065284 C -132.37171 -57.844344 -127.07384 -59.013409 -123.41226 -60.57153 L -123.41226 -116.54692 L -139.07177 -116.54692 L -139.07177 -123.32481 C -134.08578 -123.71434 -128.94396 -124.45414 -123.64635 -125.54482 C -118.34874 -126.71341 -113.7912 -128.15466 -109.9738 -129.86859 z M -76.084398 -129.7518 L -70.241861 -129.63501 C -61.983825 -129.4792 -57.62069 -129.40144 -57.153254 -129.40144 L -40.559435 -129.63501 L -37.170494 -127.1809 L -38.22211 -118.29979 L -67.203286 -118.29979 L -68.839362 -98.784184 C -64.78825 -99.796962 -61.126555 -100.30347 -57.854503 -100.30347 C -50.141809 -100.30347 -43.87032 -98.239069 -39.040148 -94.110051 C -34.13207 -90.058939 -31.678323 -84.099028 -31.678323 -76.230522 C -31.678323 -71.322444 -32.846872 -66.920427 -35.184052 -63.025127 C -37.443326 -59.129826 -40.71516 -56.052923 -44.999991 -53.793649 C -49.284821 -51.612281 -54.348878 -50.521497 -60.191828 -50.521497 C -64.944094 -50.521497 -69.267829 -51.183537 -73.163129 -52.507939 C -76.980523 -53.832341 -79.979662 -55.663447 -82.16103 -58.000627 C -84.342398 -60.415713 -85.433181 -63.103273 -85.433181 -66.063701 C -85.433181 -69.179941 -84.576211 -71.555922 -82.862279 -73.191948 C -81.148347 -74.90588 -79.045062 -75.76285 -76.55207 -75.76285 C -75.149762 -75.76285 -73.747399 -75.490154 -72.345091 -74.944812 C -70.864877 -74.39947 -69.540281 -73.620782 -68.371691 -72.608004 C -69.072845 -70.971978 -69.423823 -69.258037 -69.423823 -67.466199 C -69.423823 -64.895301 -68.6835 -62.791499 -67.203286 -61.155473 C -65.645166 -59.519447 -63.308068 -58.701359 -60.191828 -58.701359 C -53.180288 -58.701359 -49.674641 -64.544622 -49.674641 -76.230522 C -49.674641 -81.761848 -50.764908 -85.774005 -52.946276 -88.266997 C -55.127644 -90.837895 -58.049533 -92.123092 -61.711115 -92.123092 C -63.970389 -92.123092 -66.385253 -91.694865 -68.956151 -90.837899 C -71.527049 -89.980933 -74.059078 -88.773501 -76.55207 -87.215381 L -82.979068 -93.408802 L -79.94101 -126.59644 L -76.084398 -129.7518 z M -10.526643 -105.32849 C -7.7999325 -105.32849 -5.7744129 -104.5104 -4.4500109 -102.87437 C -3.0477029 -101.31625 -2.3462633 -99.134686 -2.3462633 -96.33007 C -2.3462633 -93.525454 -3.0477029 -91.344404 -4.4500109 -89.786284 C -5.7744129 -88.228164 -7.7999325 -87.448959 -10.526643 -87.448959 C -13.253353 -87.448959 -15.317755 -88.228164 -16.720063 -89.786284 C -18.044465 -91.42231 -18.706505 -93.60336 -18.706505 -96.33007 C -18.706505 -99.212592 -18.044465 -101.43304 -16.720063 -102.99116 C -15.317755 -104.54928 -13.253353 -105.32849 -10.526643 -105.32849 z M -10.526643 -68.517814 C -7.7999325 -68.517814 -5.7744129 -67.699727 -4.4500109 -66.063701 C -3.0477029 -64.505581 -2.3462633 -62.324013 -2.3462633 -59.519397 C -2.3462633 -56.714781 -3.0477029 -54.533731 -4.4500109 -52.975611 C -5.7744129 -51.417491 -7.7999325 -50.638286 -10.526643 -50.638286 C -13.253353 -50.638286 -15.317755 -51.417491 -16.720063 -52.975611 C -18.044465 -54.611637 -18.706505 -56.792687 -18.706505 -59.519397 C -18.706505 -62.401919 -18.044465 -64.622369 -16.720063 -66.180489 C -15.317755 -67.738609 -13.253353 -68.517814 -10.526643 -68.517814 z " /></g></svg>
