<?xml version="1.0" encoding="UTF-8" standalone="no"?>
<!-- Created with Inkscape (http://www.inkscape.org/) -->

<svg
   width="172.6701mm"
   height="172.6701mm"
   viewBox="0 0 172.6701 172.6701"
   version="1.1"
   id="svg1"
   xml:space="preserve"
   xmlns="http://www.w3.org/2000/svg"
   xmlns:svg="http://www.w3.org/2000/svg"><defs
     id="defs1" /><g
     id="layer1"
     transform="translate(157.25102,198.81012)"><path
       id="path5"
       style="fill:#ffffff;fill-opacity:1;stroke-width:0.805188;stroke-linecap:round;stroke-linejoin:round"
       d="M -2.0863309 -198.17657 L -10.088943 -183.11289 L -10.930235 -165.68398 L -19.198981 -165.68398 L -11.423229 -155.47426 L -12.166336 -140.07934 C -28.353216 -157.12094 -50.823548 -166.77435 -74.327399 -166.78417 C -103.64471 -166.77397 -130.92652 -151.79225 -146.66717 -127.05894 L -157.25102 -127.05894 L -149.61996 -115.86014 L -157.25102 -26.140039 L -8.5138455 -26.140039 L 15.419061 -26.140039 L 8.0799737 -154.80195 L 15.419061 -165.68398 L 7.4593397 -165.68398 L 6.4490654 -183.39297 L -2.0863309 -198.17657 z M -83.43072 -192.21621 C -85.584619 -189.65499 -86.77489 -186.4211 -86.795372 -183.07465 C -86.842092 -175.15518 -80.459903 -168.69733 -72.540428 -168.65072 C -64.621155 -168.60402 -58.163395 -174.98588 -58.116503 -182.90515 C -58.102813 -186.26049 -59.266203 -189.5144 -61.404157 -192.10045 C -60.83125 -190.6836 -60.536835 -189.16959 -60.537027 -187.64129 C -60.575787 -181.07411 -65.930869 -175.78172 -72.498054 -175.82031 C -79.065241 -175.85911 -84.357627 -181.21415 -84.319038 -187.78134 C -84.309338 -189.30285 -84.007827 -190.80837 -83.43072 -192.21621 z M -42.429088 -130.92021 L -39.624608 -125.07767 C -55.36162 -118.29985 -64.827178 -107.86015 -68.021324 -93.759168 C -63.502776 -95.940536 -59.217924 -97.03132 -55.166812 -97.03132 C -47.376212 -97.03132 -41.26077 -94.928034 -36.820128 -90.72111 C -32.30158 -86.514186 -30.042247 -80.826972 -30.042247 -73.65962 C -30.042247 -69.218977 -31.249679 -65.245704 -33.664765 -61.739934 C -36.001945 -58.234164 -39.312662 -55.507204 -43.597492 -53.559554 C -47.804416 -51.611904 -52.63466 -50.638286 -58.088081 -50.638286 C -67.358895 -50.638286 -74.487354 -53.209197 -79.473339 -58.350993 C -84.381417 -63.492789 -86.83568 -70.932828 -86.83568 -80.671078 C -86.83568 -92.90232 -83.057336 -103.30261 -75.500454 -111.87227 C -67.865666 -120.51984 -56.841698 -126.8691 -42.429088 -130.92021 z M -111.02542 -129.86859 L -107.16881 -128.11573 L -107.16881 -60.57153 C -105.68859 -59.714563 -103.35149 -58.935358 -100.15735 -58.234204 C -96.963201 -57.610956 -94.431173 -57.221096 -92.561429 -57.065284 L -92.912312 -51.456324 L -140.59054 -51.456324 L -140.35696 -57.065284 C -133.42333 -57.844344 -128.12597 -59.013409 -124.46439 -60.57153 L -124.46439 -116.54692 L -140.12338 -116.54692 L -140.12338 -123.32481 C -135.1374 -123.71434 -129.99558 -124.45414 -124.69797 -125.54482 C -119.40036 -126.71341 -114.84281 -128.15466 -111.02542 -129.86859 z M -9.4750272 -105.32849 C -6.7483171 -105.32849 -4.7227975 -104.5104 -3.3983955 -102.87437 C -1.9960875 -101.31625 -1.2946479 -99.134686 -1.2946479 -96.33007 C -1.2946479 -93.525454 -1.9960875 -91.344404 -3.3983955 -89.786284 C -4.7227975 -88.228164 -6.7483171 -87.448959 -9.4750272 -87.448959 C -12.201737 -87.448959 -14.26614 -88.228164 -15.668448 -89.786284 C -16.99285 -91.42231 -17.65489 -93.60336 -17.65489 -96.33007 C -17.65489 -99.212592 -16.99285 -101.43304 -15.668448 -102.99116 C -14.26614 -104.54928 -12.201737 -105.32849 -9.4750272 -105.32849 z M -58.438964 -88.85094 C -61.711016 -88.85094 -65.255546 -87.52686 -69.07294 -84.878056 L -69.07294 -83.358769 C -69.07294 -74.867015 -68.138204 -68.634408 -66.26846 -64.661202 C -64.398716 -60.687996 -61.43846 -58.701359 -57.387348 -58.701359 C -54.03739 -58.701359 -51.466479 -59.987074 -49.674641 -62.557972 C -47.882803 -65.12887 -46.986433 -68.790565 -46.986433 -73.542831 C -46.986433 -78.373003 -47.999451 -82.112463 -50.025007 -84.761267 C -51.972657 -87.487977 -54.777381 -88.85094 -58.438964 -88.85094 z M -9.4750272 -68.517814 C -6.7483171 -68.517814 -4.7227975 -67.699727 -3.3983955 -66.063701 C -1.9960875 -64.505581 -1.2946479 -62.324013 -1.2946479 -59.519397 C -1.2946479 -56.714781 -1.9960875 -54.533731 -3.3983955 -52.975611 C -4.7227975 -51.417491 -6.7483171 -50.638286 -9.4750272 -50.638286 C -12.201737 -50.638286 -14.26614 -51.417491 -15.668448 -52.975611 C -16.99285 -54.611637 -17.65489 -56.792687 -17.65489 -59.519397 C -17.65489 -62.401919 -16.99285 -64.622369 -15.668448 -66.180489 C -14.26614 -67.738609 -12.201737 -68.517814 -9.4750272 -68.517814 z " /></g></svg>
