<?xml version="1.0" encoding="UTF-8" standalone="no"?>
<!-- Created with Inkscape (http://www.inkscape.org/) -->

<svg
   width="172.6701mm"
   height="172.6701mm"
   viewBox="0 0 172.6701 172.6701"
   version="1.1"
   id="svg1"
   xml:space="preserve"
   xmlns="http://www.w3.org/2000/svg"
   xmlns:svg="http://www.w3.org/2000/svg"><defs
     id="defs1" /><g
     id="layer1"
     transform="translate(157.25102,198.81012)"><path
       id="path5"
       style="fill:#ffffff;fill-opacity:1;stroke-width:0.805188;stroke-linecap:round;stroke-linejoin:round"
       d="M -2.0863309 -198.17657 L -10.088943 -183.11289 L -10.930235 -165.68398 L -19.198981 -165.68398 L -11.423229 -155.47426 L -12.166336 -140.07934 C -28.353216 -157.12094 -50.823548 -166.77435 -74.327399 -166.78417 C -103.64471 -166.77397 -130.92652 -151.79225 -146.66717 -127.05894 L -157.25102 -127.05894 L -149.61996 -115.86014 L -157.25102 -26.140039 L -8.5138455 -26.140039 L 15.419061 -26.140039 L 8.0799737 -154.80195 L 15.419061 -165.68398 L 7.4593397 -165.68398 L 6.4490654 -183.39297 L -2.0863309 -198.17657 z M -83.43072 -192.21621 C -85.584619 -189.65499 -86.77489 -186.4211 -86.795372 -183.07465 C -86.842092 -175.15518 -80.459903 -168.69733 -72.540428 -168.65072 C -64.621155 -168.60402 -58.163395 -174.98588 -58.116503 -182.90515 C -58.102813 -186.26049 -59.266203 -189.5144 -61.404157 -192.10045 C -60.83125 -190.6836 -60.536835 -189.16959 -60.537027 -187.64129 C -60.575787 -181.07411 -65.930869 -175.78172 -72.498054 -175.82031 C -79.065241 -175.85911 -84.357627 -181.21415 -84.319038 -187.78134 C -84.309338 -189.30285 -84.007827 -190.80837 -83.43072 -192.21621 z M -108.45452 -129.86859 L -104.5979 -128.11573 L -104.5979 -60.57153 C -103.11769 -59.714563 -100.78059 -58.935358 -97.586445 -58.234204 C -94.392299 -57.610956 -91.86027 -57.221096 -89.990526 -57.065284 L -90.341409 -51.456324 L -138.01964 -51.456324 L -137.78606 -57.065284 C -130.85242 -57.844344 -125.55507 -59.013409 -121.89349 -60.57153 L -121.89349 -116.54692 L -137.55248 -116.54692 L -137.55248 -123.32481 C -132.5665 -123.71434 -127.42467 -124.45414 -122.12707 -125.54482 C -116.82946 -126.71341 -112.27191 -128.15466 -108.45452 -129.86859 z M -83.913894 -129.51823 L -78.188146 -129.51823 C -75.227718 -129.44032 -68.761298 -129.40144 -58.78933 -129.40144 C -48.427832 -129.40144 -41.689233 -129.44032 -38.572993 -129.51823 L -32.963516 -129.51823 L -30.626191 -124.49321 C -32.106405 -122.15603 -34.91113 -117.09197 -39.040148 -109.30137 C -43.169166 -101.51077 -47.064674 -93.252645 -50.726256 -84.527173 C -54.387838 -75.801701 -56.218427 -68.985337 -56.218427 -64.077259 C -56.218427 -60.181959 -54.854948 -57.260069 -52.128238 -55.312419 C -54.777042 -52.118273 -58.166041 -50.521497 -62.295059 -50.521497 C -66.112453 -50.521497 -69.072709 -51.573398 -71.176171 -53.67686 C -73.279633 -55.780322 -74.331534 -58.701695 -74.331534 -62.441183 C -74.331534 -67.115543 -73.201867 -72.062435 -70.942593 -77.282137 C -68.683319 -82.579745 -64.63228 -89.747088 -58.78933 -98.784184 L -44.999991 -120.05265 L -71.643842 -120.05265 C -72.734526 -116.54688 -73.396566 -112.41756 -73.630284 -107.6653 C -75.032592 -107.43158 -76.473837 -107.31493 -77.954051 -107.31493 C -79.512171 -107.31493 -81.031699 -107.43158 -82.511913 -107.6653 L -85.783548 -127.76536 L -83.913894 -129.51823 z M -12.04593 -105.32849 C -9.3192196 -105.32849 -7.2937 -104.5104 -5.969298 -102.87437 C -4.56699 -101.31625 -3.8655504 -99.134686 -3.8655504 -96.33007 C -3.8655504 -93.525454 -4.56699 -91.344404 -5.969298 -89.786284 C -7.2937 -88.228164 -9.3192196 -87.448959 -12.04593 -87.448959 C -14.77264 -87.448959 -16.837042 -88.228164 -18.23935 -89.786284 C -19.563752 -91.42231 -20.225792 -93.60336 -20.225792 -96.33007 C -20.225792 -99.212592 -19.563752 -101.43304 -18.23935 -102.99116 C -16.837042 -104.54928 -14.77264 -105.32849 -12.04593 -105.32849 z M -12.04593 -68.517814 C -9.3192196 -68.517814 -7.2937 -67.699727 -5.969298 -66.063701 C -4.56699 -64.505581 -3.8655504 -62.324013 -3.8655504 -59.519397 C -3.8655504 -56.714781 -4.56699 -54.533731 -5.969298 -52.975611 C -7.2937 -51.417491 -9.3192196 -50.638286 -12.04593 -50.638286 C -14.77264 -50.638286 -16.837042 -51.417491 -18.23935 -52.975611 C -19.563752 -54.611637 -20.225792 -56.792687 -20.225792 -59.519397 C -20.225792 -62.401919 -19.563752 -64.622369 -18.23935 -66.180489 C -16.837042 -67.738609 -14.77264 -68.517814 -12.04593 -68.517814 z " /></g></svg>
