<?xml version="1.0" encoding="UTF-8" standalone="no"?>
<!-- Created with Inkscape (http://www.inkscape.org/) -->

<svg
   width="172.6701mm"
   height="172.6701mm"
   viewBox="0 0 172.6701 172.6701"
   version="1.1"
   id="svg1"
   xml:space="preserve"
   xmlns="http://www.w3.org/2000/svg"
   xmlns:svg="http://www.w3.org/2000/svg"><defs
     id="defs1" /><g
     id="layer1"
     transform="translate(157.25102,198.81012)"><path
       id="path5"
       style="fill:#ffffff;fill-opacity:1;stroke-width:0.805188;stroke-linecap:round;stroke-linejoin:round"
       d="M -2.0863309 -198.17657 L -10.088943 -183.11289 L -10.930235 -165.68398 L -19.198981 -165.68398 L -11.423229 -155.47426 L -12.166336 -140.07934 C -28.353216 -157.12094 -50.823548 -166.77435 -74.327399 -166.78417 C -103.64471 -166.77397 -130.92652 -151.79225 -146.66717 -127.05894 L -157.25102 -127.05894 L -149.61996 -115.86014 L -157.25102 -26.140039 L -8.5138455 -26.140039 L 15.419061 -26.140039 L 8.0799737 -154.80195 L 15.419061 -165.68398 L 7.4593397 -165.68398 L 6.4490654 -183.39297 L -2.0863309 -198.17657 z M -83.43072 -192.21621 C -85.584619 -189.65499 -86.77489 -186.4211 -86.795372 -183.07465 C -86.842092 -175.15518 -80.459903 -168.69733 -72.540428 -168.65072 C -64.621155 -168.60402 -58.163395 -174.98588 -58.116503 -182.90515 C -58.102813 -186.26049 -59.266203 -189.5144 -61.404157 -192.10045 C -60.83125 -190.6836 -60.536835 -189.16959 -60.537027 -187.64129 C -60.575787 -181.07411 -65.930869 -175.78172 -72.498054 -175.82031 C -79.065241 -175.85911 -84.357627 -181.21415 -84.319038 -187.78134 C -84.309338 -189.30285 -84.007827 -190.80837 -83.43072 -192.21621 z M -37.256794 -133.39551 C -27.374124 -133.39551 -19.514903 -131.27784 -13.679422 -127.04241 C -7.8439404 -122.80698 -4.9259508 -117.11238 -4.9259508 -109.95921 C -4.9259508 -106.10027 -6.3377312 -102.24161 -9.1613512 -98.382658 C -11.984971 -94.523711 -15.702763 -91.370425 -20.314676 -88.923287 C -14.479194 -86.099667 -9.9146444 -82.805513 -6.620421 -79.040686 C -3.232077 -75.27586 -1.5375272 -70.42854 -1.5375272 -64.498938 C -1.5375272 -55.933958 -4.6438574 -49.110352 -10.855821 -44.027836 C -17.067785 -39.039441 -25.444556 -36.545089 -35.98607 -36.545089 C -47.562912 -36.545089 -56.504188 -38.8511 -62.810273 -43.463013 C -69.022237 -48.074926 -72.12805 -54.663751 -72.12805 -63.228732 C -72.12805 -67.652403 -70.71627 -72.028612 -67.89265 -76.358163 C -65.06903 -80.781834 -61.115942 -84.687967 -56.033426 -88.076311 C -60.268856 -90.429327 -63.563527 -93.252888 -65.916543 -96.547111 C -68.26956 -99.841335 -69.446044 -103.93581 -69.446044 -108.83008 C -69.446044 -116.35974 -66.528054 -122.33607 -60.692573 -126.75974 C -54.857091 -131.18341 -47.045343 -133.39551 -37.256794 -133.39551 z M -101.77637 -132.26586 L -97.117223 -130.14816 L -97.117223 -48.545907 C -95.32893 -47.51058 -92.505369 -46.569393 -88.646422 -45.722307 C -84.787475 -44.969341 -81.728617 -44.498748 -79.469721 -44.310507 L -79.893468 -37.533659 L -137.49512 -37.533659 L -137.21297 -44.310507 C -128.83623 -45.251713 -122.43574 -46.663494 -118.01207 -48.545907 L -118.01207 -116.17124 L -136.9303 -116.17124 L -136.9303 -124.35988 C -130.90657 -124.83049 -124.69443 -125.72472 -118.29422 -127.04241 C -111.89402 -128.45422 -106.38828 -130.19521 -101.77637 -132.26586 z M -37.256794 -123.37183 C -41.021621 -123.37183 -43.986049 -122.14787 -46.150825 -119.70074 C -48.3156 -117.34772 -49.398172 -114.14799 -49.398172 -110.10081 C -49.398172 -106.52422 -48.033347 -103.55928 -45.303848 -101.20626 C -42.480228 -98.947363 -38.385755 -96.688307 -33.020877 -94.429411 C -30.66786 -96.029463 -28.785486 -98.241562 -27.373676 -101.06518 C -25.961866 -103.8888 -25.255976 -106.9007 -25.255976 -110.10081 C -25.255976 -114.14799 -26.385504 -117.34772 -28.6444 -119.70074 C -30.809175 -122.14787 -33.680209 -123.37183 -37.256794 -123.37183 z M -43.045071 -82.288033 C -45.868691 -80.029137 -47.939406 -77.440873 -49.257095 -74.523133 C -50.574784 -71.605392 -51.233719 -68.122897 -51.233719 -64.075708 C -51.233719 -58.522589 -49.868894 -54.145863 -47.139395 -50.94576 C -44.409896 -47.839778 -40.692104 -46.286613 -35.98607 -46.286613 C -31.374158 -46.286613 -27.797234 -47.839778 -25.255976 -50.94576 C -22.620597 -54.051742 -21.303246 -58.381512 -21.303246 -63.934632 C -21.303246 -67.040614 -22.291389 -69.675834 -24.267923 -71.840609 C -26.150336 -74.099505 -28.550259 -75.934923 -31.468 -77.346733 C -34.385741 -78.852664 -38.244917 -80.499741 -43.045071 -82.288033 z " /></g></svg>
