<?xml version="1.0" encoding="UTF-8" standalone="no"?>
<!-- Created with Inkscape (http://www.inkscape.org/) -->

<svg
   width="172.6701mm"
   height="172.6701mm"
   viewBox="0 0 172.6701 172.6701"
   version="1.1"
   id="svg1"
   xml:space="preserve"
   xmlns="http://www.w3.org/2000/svg"
   xmlns:svg="http://www.w3.org/2000/svg"><defs
     id="defs1" /><g
     id="layer1"
     transform="translate(157.25102,198.81012)"><path
       id="path5"
       style="fill:#ffffff;fill-opacity:1;stroke-width:0.805188;stroke-linecap:round;stroke-linejoin:round"
       d="M -2.0863309 -198.17657 L -10.088943 -183.11289 L -10.930235 -165.68398 L -19.198981 -165.68398 L -11.423229 -155.47426 L -12.166336 -140.07934 C -28.353216 -157.12094 -50.823548 -166.77435 -74.327399 -166.78417 C -103.64471 -166.77397 -130.92652 -151.79225 -146.66717 -127.05894 L -157.25102 -127.05894 L -149.61996 -115.86014 L -157.25102 -26.140039 L -8.5138455 -26.140039 L 15.419061 -26.140039 L 8.0799737 -154.80195 L 15.419061 -165.68398 L 7.4593397 -165.68398 L 6.4490654 -183.39297 L -2.0863309 -198.17657 z M -83.43072 -192.21621 C -85.584619 -189.65499 -86.77489 -186.4211 -86.795372 -183.07465 C -86.842092 -175.15518 -80.459903 -168.69733 -72.540428 -168.65072 C -64.621155 -168.60402 -58.163395 -174.98588 -58.116503 -182.90515 C -58.102813 -186.26049 -59.266203 -189.5144 -61.404157 -192.10045 C -60.83125 -190.6836 -60.536835 -189.16959 -60.537027 -187.64129 C -60.575787 -181.07411 -65.930869 -175.78172 -72.498054 -175.82031 C -79.065241 -175.85911 -84.357627 -181.21415 -84.319038 -187.78134 C -84.309338 -189.30285 -84.007827 -190.80837 -83.43072 -192.21621 z M -58.672541 -130.80342 C -50.492411 -130.80342 -43.987108 -129.05059 -39.156936 -125.54482 C -34.326764 -122.03905 -31.911901 -117.32598 -31.911901 -111.40512 C -31.911901 -108.21097 -33.08045 -105.0169 -35.41763 -101.82276 C -37.75481 -98.628612 -40.83223 -96.018301 -44.649624 -93.992745 C -39.819452 -91.655565 -36.040592 -88.929123 -33.313882 -85.812883 C -30.509266 -82.696643 -29.107421 -78.684486 -29.107421 -73.776408 C -29.107421 -66.686962 -31.678332 -61.03863 -36.820128 -56.831706 C -41.961924 -52.702688 -48.895454 -50.638286 -57.620926 -50.638286 C -67.203364 -50.638286 -74.604519 -52.547157 -79.824221 -56.364551 C -84.966018 -60.181945 -87.536929 -65.635347 -87.536929 -72.724793 C -87.536929 -76.386375 -86.367863 -80.008671 -84.030683 -83.592347 C -81.693503 -87.253929 -78.421669 -90.487397 -74.214745 -93.292013 C -77.720515 -95.239663 -80.447474 -97.576761 -82.395124 -100.30347 C -84.342774 -103.03018 -85.316393 -106.41918 -85.316393 -110.47029 C -85.316393 -116.70277 -82.901529 -121.64967 -78.071357 -125.31125 C -73.241185 -128.97283 -66.774765 -130.80342 -58.672541 -130.80342 z M -112.07703 -129.86859 L -108.22094 -128.11573 L -108.22094 -60.57153 C -106.74072 -59.714563 -104.40363 -58.935358 -101.20948 -58.234204 C -98.015333 -57.610956 -95.483305 -57.221096 -93.613561 -57.065284 L -93.963927 -51.456324 L -141.64267 -51.456324 L -141.40858 -57.065284 C -134.47494 -57.844344 -129.17759 -59.013409 -125.51601 -60.57153 L -125.51601 -116.54692 L -141.175 -116.54692 L -141.175 -123.32481 C -136.18901 -123.71434 -131.04719 -124.45414 -125.74958 -125.54482 C -120.45198 -126.71341 -115.89443 -128.15466 -112.07703 -129.86859 z M -58.672541 -122.50677 C -61.788781 -122.50677 -64.243044 -121.49375 -66.034882 -119.46819 C -67.82672 -117.52054 -68.722574 -114.87187 -68.722574 -111.52191 C -68.722574 -108.56148 -67.592907 -106.10722 -65.333633 -104.15957 C -62.996453 -102.28982 -59.607454 -100.42035 -55.166812 -98.550607 C -53.219162 -99.875009 -51.660752 -101.7056 -50.492162 -104.04278 C -49.323572 -106.37996 -48.739297 -108.8731 -48.739297 -111.52191 C -48.739297 -114.87187 -49.67455 -117.52054 -51.544294 -119.46819 C -53.336132 -121.49375 -55.712113 -122.50677 -58.672541 -122.50677 z M -8.4234118 -105.32849 C -5.6967017 -105.32849 -3.6706653 -104.5104 -2.3462633 -102.87437 C -0.94395531 -101.31625 -0.24303253 -99.134686 -0.24303253 -96.33007 C -0.24303253 -93.525454 -0.94395531 -91.344404 -2.3462633 -89.786284 C -3.6706653 -88.228164 -5.6967017 -87.448959 -8.4234118 -87.448959 C -11.150122 -87.448959 -13.214524 -88.228164 -14.616832 -89.786284 C -15.941234 -91.42231 -16.603274 -93.60336 -16.603274 -96.33007 C -16.603274 -99.212592 -15.941234 -101.43304 -14.616832 -102.99116 C -13.214524 -104.54928 -11.150122 -105.32849 -8.4234118 -105.32849 z M -63.46398 -88.500574 C -65.80116 -86.63083 -67.515101 -84.488662 -68.605785 -82.073576 C -69.696469 -79.65849 -70.241344 -76.776 -70.241344 -73.426042 C -70.241344 -68.829588 -69.112194 -65.206776 -66.85292 -62.557972 C -64.593646 -59.987074 -61.516226 -58.701359 -57.620926 -58.701359 C -53.803532 -58.701359 -50.842759 -59.987074 -48.739297 -62.557972 C -46.557929 -65.12887 -45.467662 -68.712282 -45.467662 -73.308737 C -45.467662 -75.879635 -46.285233 -78.061202 -47.921259 -79.85304 C -49.479379 -81.722784 -51.466016 -83.241794 -53.881102 -84.410384 C -56.296188 -85.65688 -59.490774 -87.02036 -63.46398 -88.500574 z M -8.4234118 -68.517814 C -5.6967017 -68.517814 -3.6706653 -67.699727 -2.3462633 -66.063701 C -0.94395531 -64.505581 -0.24303253 -62.324013 -0.24303253 -59.519397 C -0.24303253 -56.714781 -0.94395531 -54.533731 -2.3462633 -52.975611 C -3.6706653 -51.417491 -5.6967017 -50.638286 -8.4234118 -50.638286 C -11.150122 -50.638286 -13.214524 -51.417491 -14.616832 -52.975611 C -15.941234 -54.611637 -16.603274 -56.792687 -16.603274 -59.519397 C -16.603274 -62.401919 -15.941234 -64.622369 -14.616832 -66.180489 C -13.214524 -67.738609 -11.150122 -68.517814 -8.4234118 -68.517814 z " /></g></svg>
