<?xml version="1.0" encoding="UTF-8" standalone="no"?>
<!-- Created with Inkscape (http://www.inkscape.org/) -->

<svg
   width="172.6701mm"
   height="172.6701mm"
   viewBox="0 0 172.6701 172.6701"
   version="1.1"
   id="svg1"
   xml:space="preserve"
   xmlns="http://www.w3.org/2000/svg"
   xmlns:svg="http://www.w3.org/2000/svg"><defs
     id="defs1" /><g
     id="layer1"
     transform="translate(157.25102,198.81012)"><path
       id="path5"
       style="fill:#ffffff;fill-opacity:1;stroke-width:0.805188;stroke-linecap:round;stroke-linejoin:round"
       d="M -2.0863309 -198.17657 L -10.088943 -183.11289 L -10.930235 -165.68398 L -19.198981 -165.68398 L -11.423229 -155.47426 L -12.166336 -140.07934 C -28.353216 -157.12094 -50.823548 -166.77435 -74.327399 -166.78417 C -103.64471 -166.77397 -130.92652 -151.79225 -146.66717 -127.05894 L -157.25102 -127.05894 L -149.61996 -115.86014 L -157.25102 -26.140039 L -8.5138455 -26.140039 L 15.419061 -26.140039 L 8.0799737 -154.80195 L 15.419061 -165.68398 L 7.4593397 -165.68398 L 6.4490654 -183.39297 L -2.0863309 -198.17657 z M -83.43072 -192.21621 C -85.584619 -189.65499 -86.77489 -186.4211 -86.795372 -183.07465 C -86.842092 -175.15518 -80.459903 -168.69733 -72.540428 -168.65072 C -64.621155 -168.60402 -58.163395 -174.98588 -58.116503 -182.90515 C -58.102813 -186.26049 -59.266203 -189.5144 -61.404157 -192.10045 C -60.83125 -190.6836 -60.536835 -189.16959 -60.537027 -187.64129 C -60.575787 -181.07411 -65.930869 -175.78172 -72.498054 -175.82031 C -79.065241 -175.85911 -84.357627 -181.21415 -84.319038 -187.78134 C -84.309338 -189.30285 -84.007827 -190.80837 -83.43072 -192.21621 z M -58.906118 -130.45305 C -49.635304 -130.45305 -42.546244 -127.88214 -37.638166 -122.74034 C -32.652182 -117.59855 -30.159036 -110.15851 -30.159036 -100.42026 C -30.159036 -88.189018 -33.976262 -77.749324 -41.61105 -69.101758 C -49.167932 -60.532098 -60.153018 -54.221726 -74.565628 -50.170614 L -77.370108 -56.013668 C -69.579508 -59.363626 -63.308018 -63.648479 -58.555752 -68.868181 C -53.803486 -74.165789 -50.6483 -80.32063 -49.09018 -87.33217 C -53.452916 -85.150802 -57.698886 -84.060018 -61.827904 -84.060018 C -69.618504 -84.060018 -75.772828 -86.163303 -80.291376 -90.370227 C -84.732018 -94.577151 -86.952469 -100.26437 -86.952469 -107.43172 C -86.952469 -111.87236 -85.783919 -115.84563 -83.446739 -119.3514 C -81.031653 -122.85717 -77.72042 -125.58362 -73.513496 -127.53127 C -69.228666 -129.47892 -64.359539 -130.45305 -58.906118 -130.45305 z M -110.79184 -129.86859 L -106.93523 -128.11573 L -106.93523 -60.57153 C -105.45501 -59.714563 -103.11792 -58.935358 -99.92377 -58.234204 C -96.729624 -57.610956 -94.197595 -57.221096 -92.327851 -57.065284 L -92.678734 -51.456324 L -140.35696 -51.456324 L -140.12338 -57.065284 C -133.18975 -57.844344 -127.89188 -59.013409 -124.2303 -60.57153 L -124.2303 -116.54692 L -139.88981 -116.54692 L -139.88981 -123.32481 C -134.90382 -123.71434 -129.762 -124.45414 -124.46439 -125.54482 C -119.16678 -126.71341 -114.60923 -128.15466 -110.79184 -129.86859 z M -59.607368 -122.38946 C -62.957326 -122.38946 -65.528237 -121.10426 -67.320075 -118.53337 C -69.111913 -115.96247 -70.007766 -112.30077 -70.007766 -107.54851 C -70.007766 -102.71833 -69.034148 -98.939992 -67.086498 -96.213282 C -65.060942 -93.564478 -62.217334 -92.239881 -58.555752 -92.239881 C -55.361606 -92.239881 -51.817076 -93.564478 -47.921776 -96.213282 L -47.921776 -97.732569 C -47.921776 -106.22432 -48.856512 -112.45693 -50.726256 -116.43014 C -52.596 -120.40334 -55.556256 -122.38946 -59.607368 -122.38946 z M -9.7086046 -105.32849 C -6.9818946 -105.32849 -4.956375 -104.5104 -3.631973 -102.87437 C -2.2296649 -101.31625 -1.5282254 -99.134686 -1.5282254 -96.33007 C -1.5282254 -93.525454 -2.2296649 -91.344404 -3.631973 -89.786284 C -4.956375 -88.228164 -6.9818946 -87.448959 -9.7086046 -87.448959 C -12.435315 -87.448959 -14.499717 -88.228164 -15.902025 -89.786284 C -17.226427 -91.42231 -17.888984 -93.60336 -17.888984 -96.33007 C -17.888984 -99.212592 -17.226427 -101.43304 -15.902025 -102.99116 C -14.499717 -104.54928 -12.435315 -105.32849 -9.7086046 -105.32849 z M -9.7086046 -68.517814 C -6.9818946 -68.517814 -4.956375 -67.699727 -3.631973 -66.063701 C -2.2296649 -64.505581 -1.5282254 -62.324013 -1.5282254 -59.519397 C -1.5282254 -56.714781 -2.2296649 -54.533731 -3.631973 -52.975611 C -4.956375 -51.417491 -6.9818946 -50.638286 -9.7086046 -50.638286 C -12.435315 -50.638286 -14.499717 -51.417491 -15.902025 -52.975611 C -17.226427 -54.611637 -17.888984 -56.792687 -17.888984 -59.519397 C -17.888984 -62.401919 -17.226427 -64.622369 -15.902025 -66.180489 C -14.499717 -67.738609 -12.435315 -68.517814 -9.7086046 -68.517814 z " /></g></svg>
