<?xml version="1.0" encoding="UTF-8" standalone="no"?>
<!-- Created with Inkscape (http://www.inkscape.org/) -->

<svg
   width="172.6701mm"
   height="172.6701mm"
   viewBox="0 0 172.6701 172.6701"
   version="1.1"
   id="svg1"
   xml:space="preserve"
   xmlns="http://www.w3.org/2000/svg"
   xmlns:svg="http://www.w3.org/2000/svg"><defs
     id="defs1" /><g
     id="layer1"
     transform="translate(157.25102,198.81012)"><path
       id="path5"
       style="fill:#ffffff;fill-opacity:1;stroke-width:0.805188;stroke-linecap:round;stroke-linejoin:round"
       d="M -2.0863309 -198.17657 L -10.088943 -183.11289 L -10.930235 -165.68398 L -19.198981 -165.68398 L -11.423229 -155.47426 L -12.166336 -140.07934 C -28.353216 -157.12094 -50.823548 -166.77435 -74.327399 -166.78417 C -103.64471 -166.77397 -130.92652 -151.79225 -146.66717 -127.05894 L -157.25102 -127.05894 L -149.61996 -115.86014 L -157.25102 -26.140039 L -8.5138455 -26.140039 L 15.419061 -26.140039 L 8.0799737 -154.80195 L 15.419061 -165.68398 L 7.4593397 -165.68398 L 6.4490654 -183.39297 L -2.0863309 -198.17657 z M -83.43072 -192.21621 C -85.584619 -189.65499 -86.77489 -186.4211 -86.795372 -183.07465 C -86.842092 -175.15518 -80.459903 -168.69733 -72.540428 -168.65072 C -64.621155 -168.60402 -58.163395 -174.98588 -58.116503 -182.90515 C -58.102813 -186.26049 -59.266203 -189.5144 -61.404157 -192.10045 C -60.83125 -190.6836 -60.536835 -189.16959 -60.537027 -187.64129 C -60.575787 -181.07411 -65.930869 -175.78172 -72.498054 -175.82031 C -79.065241 -175.85911 -84.357627 -181.21415 -84.319038 -187.78134 C -84.309338 -189.30285 -84.007827 -190.80837 -83.43072 -192.21621 z M -82.70725 -145.33121 L -77.461058 -142.94635 L -77.461058 -51.055314 C -75.447299 -49.889454 -72.267586 -48.82955 -67.922106 -47.875664 C -63.576625 -47.027765 -60.132065 -46.498071 -57.588369 -46.286097 L -58.065343 -38.655038 L -122.9296 -38.655038 L -122.61179 -46.286097 C -113.17892 -47.34597 -105.97178 -48.935568 -100.99037 -51.055314 L -100.99037 -127.20726 L -122.29346 -127.20726 L -122.29346 -136.4284 C -115.51027 -136.95833 -108.51532 -137.96506 -101.30818 -139.44889 C -94.101043 -141.0387 -87.900629 -142.99949 -82.70725 -145.33121 z M -30.084622 -111.94514 C -26.375065 -111.94514 -23.619211 -110.83257 -21.817426 -108.60684 C -19.909654 -106.48709 -18.956102 -103.51905 -18.956102 -99.703508 C -18.956102 -95.887964 -19.909654 -92.920439 -21.817426 -90.800692 C -23.619211 -88.680945 -26.375065 -87.621041 -30.084622 -87.621041 C -33.794179 -87.621041 -36.602692 -88.680945 -38.510464 -90.800692 C -40.312249 -93.026426 -41.213142 -95.993951 -41.213142 -99.703508 C -41.213142 -103.62504 -40.312249 -106.64574 -38.510464 -108.76549 C -36.602692 -110.88523 -33.794179 -111.94514 -30.084622 -111.94514 z M -30.084622 -61.866024 C -26.375065 -61.866024 -23.619211 -60.753461 -21.817426 -58.527727 C -19.909654 -56.40798 -18.956102 -53.439938 -18.956102 -49.624394 C -18.956102 -45.80885 -19.909654 -42.841325 -21.817426 -40.721578 C -23.619211 -38.601832 -26.375065 -37.541927 -30.084622 -37.541927 C -33.794179 -37.541927 -36.602692 -38.601832 -38.510464 -40.721578 C -40.312249 -42.947312 -41.213142 -45.914837 -41.213142 -49.624394 C -41.213142 -53.545925 -40.312249 -56.566627 -38.510464 -58.686373 C -36.602692 -60.80612 -33.794179 -61.866024 -30.084622 -61.866024 z " /></g></svg>
