<?xml version="1.0" encoding="UTF-8" standalone="no"?>
<!-- Created with Inkscape (http://www.inkscape.org/) -->

<svg
   width="172.6701mm"
   height="172.6701mm"
   viewBox="0 0 172.6701 172.6701"
   version="1.1"
   id="svg1"
   xml:space="preserve"
   xmlns="http://www.w3.org/2000/svg"
   xmlns:svg="http://www.w3.org/2000/svg"><defs
     id="defs1" /><g
     id="layer1"
     transform="translate(157.25102,198.81012)"><path
       id="path5"
       style="fill:#ffffff;fill-opacity:1;stroke-width:0.805188;stroke-linecap:round;stroke-linejoin:round"
       d="M -2.0863309 -198.17657 L -10.088943 -183.11289 L -10.930235 -165.68398 L -19.198981 -165.68398 L -11.423229 -155.47426 L -12.166336 -140.07934 C -28.353216 -157.12094 -50.823548 -166.77435 -74.327399 -166.78417 C -103.64471 -166.77397 -130.92652 -151.79225 -146.66717 -127.05894 L -157.25102 -127.05894 L -149.61996 -115.86014 L -157.25102 -26.140039 L -8.5138455 -26.140039 L 15.419061 -26.140039 L 8.0799737 -154.80195 L 15.419061 -165.68398 L 7.4593397 -165.68398 L 6.4490654 -183.39297 L -2.0863309 -198.17657 z M -83.43072 -192.21621 C -85.584619 -189.65499 -86.77489 -186.4211 -86.795372 -183.07465 C -86.842092 -175.15518 -80.459903 -168.69733 -72.540428 -168.65072 C -64.621155 -168.60402 -58.163395 -174.98588 -58.116503 -182.90515 C -58.102813 -186.26049 -59.266203 -189.5144 -61.404157 -192.10045 C -60.83125 -190.6836 -60.536835 -189.16959 -60.537027 -187.64129 C -60.575787 -181.07411 -65.930869 -175.78172 -72.498054 -175.82031 C -79.065241 -175.85911 -84.357627 -181.21415 -84.319038 -187.78134 C -84.309338 -189.30285 -84.007827 -190.80837 -83.43072 -192.21621 z M -15.928897 -119.73381 C -10.090266 -119.73381 -5.4423581 -118.28861 -1.9845283 -115.39764 C 1.4733015 -112.56335 3.2022352 -108.56711 3.2022352 -103.40871 C 3.2022352 -98.873849 1.4733015 -94.026912 -1.9845283 -88.86851 C -5.4423581 -83.766794 -11.138955 -77.616529 -19.074958 -70.41744 L 3.7975477 -70.41744 L 3.7975477 -62.084615 L -34.720515 -62.084615 L -34.720515 -67.016097 C -28.428398 -73.081471 -23.524817 -78.268272 -20.010301 -82.576388 C -16.495786 -86.884504 -13.97332 -90.852684 -12.442805 -94.480571 C -10.855604 -98.108458 -10.062071 -101.84955 -10.062071 -105.70418 C -10.062071 -111.82623 -12.102805 -114.88759 -16.184178 -114.88759 C -17.998122 -114.88759 -19.471899 -114.0369 -20.605614 -112.33633 C -21.739329 -110.69244 -22.306285 -108.65171 -22.306285 -106.21422 C -22.306285 -104.51365 -21.711265 -102.89852 -20.520865 -101.36801 C -21.484522 -100.46103 -22.589855 -99.752209 -23.836941 -99.242037 C -25.027342 -98.731866 -26.217382 -98.476709 -27.407783 -98.476709 C -29.448469 -98.476709 -31.149339 -99.10031 -32.509797 -100.3474 C -33.870254 -101.65117 -34.550499 -103.52197 -34.550499 -105.95946 C -34.550499 -108.567 -33.78503 -110.91953 -32.254515 -113.01691 C -30.724 -115.11428 -28.569978 -116.75799 -25.792377 -117.94839 C -22.958091 -119.13879 -19.670155 -119.73381 -15.928897 -119.73381 z M -59.463707 -119.64906 C -52.831476 -119.64906 -47.75848 -117.15466 -44.243964 -112.16631 C -40.672763 -107.23465 -38.887185 -100.06428 -38.887185 -90.654448 C -38.887185 -81.244616 -40.672763 -74.017081 -44.243964 -68.97205 C -47.75848 -63.983706 -52.831476 -61.489303 -59.463707 -61.489303 C -66.095938 -61.489303 -71.198032 -63.983706 -74.769233 -68.97205 C -78.340434 -74.017081 -80.126012 -81.244616 -80.126012 -90.654448 C -80.126012 -100.00759 -78.340434 -107.17797 -74.769233 -112.16631 C -71.198032 -117.15466 -66.095938 -119.64906 -59.463707 -119.64906 z M -121.44959 -119.13901 L -118.64407 -117.86364 L -118.64407 -68.716769 C -117.56705 -68.093226 -115.86618 -67.526269 -113.54206 -67.016097 C -111.21794 -66.562611 -109.37572 -66.279392 -108.01527 -66.16602 L -108.27055 -62.084615 L -142.96197 -62.084615 L -142.79195 -66.16602 C -137.74692 -66.732877 -133.89255 -67.583054 -131.22832 -68.716769 L -131.22832 -109.44555 L -142.62194 -109.44555 L -142.62194 -114.37703 C -138.99405 -114.66046 -135.25296 -115.19935 -131.39833 -115.99295 C -127.5437 -116.84324 -124.22719 -117.89193 -121.44959 -119.13901 z M -59.463707 -115.31237 C -62.35468 -115.31237 -64.452058 -113.41351 -65.75583 -109.61556 C -67.002916 -105.81762 -67.626516 -99.497422 -67.626516 -90.654448 C -67.626516 -81.868159 -67.002916 -75.576025 -65.75583 -71.778081 C -64.452058 -68.036822 -62.35468 -66.16602 -59.463707 -66.16602 C -56.572735 -66.16602 -54.503937 -68.036822 -53.256851 -71.778081 C -51.953079 -75.576025 -51.300898 -81.868159 -51.300898 -90.654448 C -51.300898 -99.440737 -51.953079 -105.73287 -53.256851 -109.53081 C -54.503937 -113.38544 -56.572735 -115.31237 -59.463707 -115.31237 z M -93.305052 -101.28274 C -91.321052 -101.28274 -89.847274 -100.68772 -88.883617 -99.497319 C -87.863274 -98.363604 -87.353478 -96.776539 -87.353478 -94.735852 C -87.353478 -92.695166 -87.863274 -91.107584 -88.883617 -89.973869 C -89.847274 -88.840154 -91.321052 -88.273198 -93.305052 -88.273198 C -95.289053 -88.273198 -96.791411 -88.840154 -97.811754 -89.973869 C -98.775412 -91.16427 -99.257144 -92.751852 -99.257144 -94.735852 C -99.257144 -96.833225 -98.775412 -98.448354 -97.811754 -99.582068 C -96.791411 -100.71578 -95.289053 -101.28274 -93.305052 -101.28274 z M -93.305052 -74.498845 C -91.321052 -74.498845 -89.847274 -73.903824 -88.883617 -72.713424 C -87.863274 -71.579709 -87.353478 -69.992127 -87.353478 -67.951441 C -87.353478 -65.910754 -87.863274 -64.323689 -88.883617 -63.189974 C -89.847274 -62.05626 -91.321052 -61.489303 -93.305052 -61.489303 C -95.289053 -61.489303 -96.791411 -62.05626 -97.811754 -63.189974 C -98.775412 -64.380375 -99.257144 -65.96744 -99.257144 -67.951441 C -99.257144 -70.048813 -98.775412 -71.664459 -97.811754 -72.798173 C -96.791411 -73.931888 -95.289053 -74.498845 -93.305052 -74.498845 z " /></g></svg>
