<?xml version="1.0" encoding="UTF-8" standalone="no"?>
<!-- Created with Inkscape (http://www.inkscape.org/) -->

<svg
   width="172.6701mm"
   height="172.6701mm"
   viewBox="0 0 172.6701 172.6701"
   version="1.1"
   id="svg1"
   xml:space="preserve"
   xmlns="http://www.w3.org/2000/svg"
   xmlns:svg="http://www.w3.org/2000/svg"><defs
     id="defs1" /><g
     id="layer1"
     transform="translate(157.25102,198.81012)"><path
       id="path5"
       style="fill:#ffffff;fill-opacity:1;stroke-width:0.805188;stroke-linecap:round;stroke-linejoin:round"
       d="M -2.0863309 -198.17657 L -10.088943 -183.11289 L -10.930235 -165.68398 L -19.198981 -165.68398 L -11.423229 -155.47426 L -12.166336 -140.07934 C -28.353216 -157.12094 -50.823548 -166.77435 -74.327399 -166.78417 C -103.64471 -166.77397 -130.92652 -151.79225 -146.66717 -127.05894 L -157.25102 -127.05894 L -149.61996 -115.86014 L -157.25102 -26.140039 L -8.5138455 -26.140039 L 15.419061 -26.140039 L 8.0799737 -154.80195 L 15.419061 -165.68398 L 7.4593397 -165.68398 L 6.4490654 -183.39297 L -2.0863309 -198.17657 z M -83.43072 -192.21621 C -85.584619 -189.65499 -86.77489 -186.4211 -86.795372 -183.07465 C -86.842092 -175.15518 -80.459903 -168.69733 -72.540428 -168.65072 C -64.621155 -168.60402 -58.163395 -174.98588 -58.116503 -182.90515 C -58.102813 -186.26049 -59.266203 -189.5144 -61.404157 -192.10045 C -60.83125 -190.6836 -60.536835 -189.16959 -60.537027 -187.64129 C -60.575787 -181.07411 -65.930869 -175.78172 -72.498054 -175.82031 C -79.065241 -175.85911 -84.357627 -181.21415 -84.319038 -187.78134 C -84.309338 -189.30285 -84.007827 -190.80837 -83.43072 -192.21621 z M -60.611958 -119.64906 C -53.979726 -119.64906 -48.906213 -117.15466 -45.391698 -112.16631 C -41.820497 -107.23465 -40.034919 -100.06428 -40.034919 -90.654448 C -40.034919 -81.244616 -41.820497 -74.017081 -45.391698 -68.97205 C -48.906213 -63.983706 -53.979726 -61.489303 -60.611958 -61.489303 C -67.244189 -61.489303 -72.345765 -63.983706 -75.916966 -68.97205 C -79.488168 -74.017081 -81.273745 -81.244616 -81.273745 -90.654448 C -81.273745 -100.00759 -79.488168 -107.17797 -75.916966 -112.16631 C -72.345765 -117.15466 -67.244189 -119.64906 -60.611958 -119.64906 z M -15.716507 -119.56379 C -8.9709042 -119.56379 -3.8126835 -117.69351 -0.24148224 -113.95225 C 3.3864048 -110.21099 5.2005628 -104.7971 5.2005628 -97.711381 C 5.2005628 -88.811721 2.4229402 -81.216258 -3.1322619 -74.924142 C -8.6307782 -68.688711 -16.623782 -64.09693 -27.110643 -61.149272 L -29.151346 -65.400692 C -23.482772 -67.838179 -18.919572 -70.956182 -15.461742 -74.754126 C -12.003912 -78.608756 -9.7080216 -83.086732 -8.5743069 -88.188448 C -11.748708 -86.601248 -14.838131 -85.807715 -17.842475 -85.807715 C -23.511049 -85.807715 -27.989025 -87.338137 -31.276797 -90.399166 C -34.507884 -93.460196 -36.12353 -97.598308 -36.12353 -102.8134 C -36.12353 -106.04448 -35.273353 -108.93539 -33.572781 -111.48625 C -31.815523 -114.03711 -29.406345 -116.0212 -26.345315 -117.43834 C -23.2276 -118.85549 -19.684508 -119.56379 -15.716507 -119.56379 z M -122.59784 -119.13901 L -119.79181 -117.86364 L -119.79181 -68.716769 C -118.71478 -68.093226 -117.01391 -67.526269 -114.68979 -67.016097 C -112.36568 -66.562611 -110.52346 -66.279392 -109.163 -66.16602 L -109.41828 -62.084615 L -144.1097 -62.084615 L -143.93969 -66.16602 C -138.89466 -66.732877 -135.04028 -67.583054 -132.37605 -68.716769 L -132.37605 -109.44555 L -143.76967 -109.44555 L -143.76967 -114.37703 C -140.14179 -114.66046 -136.4007 -115.19935 -132.54607 -115.99295 C -128.69144 -116.84324 -125.37544 -117.89193 -122.59784 -119.13901 z M -60.611958 -115.31237 C -63.50293 -115.31237 -65.600308 -113.41351 -66.90408 -109.61556 C -68.151166 -105.81762 -68.77425 -99.497422 -68.77425 -90.654448 C -68.77425 -81.868159 -68.151166 -75.576025 -66.90408 -71.778081 C -65.600308 -68.036822 -63.50293 -66.16602 -60.611958 -66.16602 C -57.720985 -66.16602 -55.651671 -68.036822 -54.404584 -71.778081 C -53.100813 -75.576025 -52.449148 -81.868159 -52.449148 -90.654448 C -52.449148 -99.440737 -53.100813 -105.73287 -54.404584 -109.53081 C -55.651671 -113.38544 -57.720985 -115.31237 -60.611958 -115.31237 z M -16.226553 -113.69697 C -18.66404 -113.69697 -20.534842 -112.76157 -21.838614 -110.89094 C -23.142385 -109.02031 -23.79405 -106.35597 -23.79405 -102.89814 C -23.79405 -99.383629 -23.085742 -96.634587 -21.668598 -94.650586 C -20.194769 -92.723271 -18.125971 -91.759807 -15.461742 -91.759807 C -13.137627 -91.759807 -10.558 -92.723271 -7.7237129 -94.650586 L -7.7237129 -95.755945 C -7.7237129 -101.93469 -8.4039575 -106.46931 -9.7644152 -109.36028 C -11.124873 -112.25126 -13.278895 -113.69697 -16.226553 -113.69697 z M -94.453303 -101.28274 C -92.469302 -101.28274 -90.995525 -100.68772 -90.031867 -99.497319 C -89.011524 -98.363604 -88.501211 -96.776539 -88.501211 -94.735852 C -88.501211 -92.695166 -89.011524 -91.107584 -90.031867 -89.973869 C -90.995525 -88.840154 -92.469302 -88.273198 -94.453303 -88.273198 C -96.437303 -88.273198 -97.939144 -88.840154 -98.959488 -89.973869 C -99.923145 -91.16427 -100.40539 -92.751852 -100.40539 -94.735852 C -100.40539 -96.833225 -99.923145 -98.448354 -98.959488 -99.582068 C -97.939144 -100.71578 -96.437303 -101.28274 -94.453303 -101.28274 z M -94.453303 -74.498845 C -92.469302 -74.498845 -90.995525 -73.903824 -90.031867 -72.713424 C -89.011524 -71.579709 -88.501211 -69.992127 -88.501211 -67.951441 C -88.501211 -65.910754 -89.011524 -64.323689 -90.031867 -63.189974 C -90.995525 -62.05626 -92.469302 -61.489303 -94.453303 -61.489303 C -96.437303 -61.489303 -97.939144 -62.05626 -98.959488 -63.189974 C -99.923145 -64.380375 -100.40539 -65.96744 -100.40539 -67.951441 C -100.40539 -70.048813 -99.923145 -71.664459 -98.959488 -72.798173 C -97.939144 -73.931888 -96.437303 -74.498845 -94.453303 -74.498845 z " /></g></svg>
