<?xml version="1.0" encoding="UTF-8" standalone="no"?>
<!-- Created with Inkscape (http://www.inkscape.org/) -->

<svg
   width="172.6701mm"
   height="172.6701mm"
   viewBox="0 0 172.6701 172.6701"
   version="1.1"
   id="svg1"
   xml:space="preserve"
   xmlns="http://www.w3.org/2000/svg"
   xmlns:svg="http://www.w3.org/2000/svg"><defs
     id="defs1" /><g
     id="layer1"
     transform="translate(157.25102,198.81012)"><path
       id="path5"
       style="fill:#ffffff;fill-opacity:1;stroke-width:0.805188;stroke-linecap:round;stroke-linejoin:round"
       d="M -2.0863309 -198.17657 L -10.088943 -183.11289 L -10.930235 -165.68398 L -19.198981 -165.68398 L -11.423229 -155.47426 L -12.166336 -140.07934 C -28.353216 -157.12094 -50.823548 -166.77435 -74.327399 -166.78417 C -103.64471 -166.77397 -130.92652 -151.79225 -146.66717 -127.05894 L -157.25102 -127.05894 L -149.61996 -115.86014 L -157.25102 -26.140039 L -8.5138455 -26.140039 L 15.419061 -26.140039 L 8.0799737 -154.80195 L 15.419061 -165.68398 L 7.4593397 -165.68398 L 6.4490654 -183.39297 L -2.0863309 -198.17657 z M -83.43072 -192.21621 C -85.584619 -189.65499 -86.77489 -186.4211 -86.795372 -183.07465 C -86.842092 -175.15518 -80.459903 -168.69733 -72.540428 -168.65072 C -64.621155 -168.60402 -58.163395 -174.98588 -58.116503 -182.90515 C -58.102813 -186.26049 -59.266203 -189.5144 -61.404157 -192.10045 C -60.83125 -190.6836 -60.536835 -189.16959 -60.537027 -187.64129 C -60.575787 -181.07411 -65.930869 -175.78172 -72.498054 -175.82031 C -79.065241 -175.85911 -84.357627 -181.21415 -84.319038 -187.78134 C -84.309338 -189.30285 -84.007827 -190.80837 -83.43072 -192.21621 z M -19.500255 -119.73381 C -15.815682 -119.73381 -12.556327 -119.11073 -9.7220405 -117.86364 C -6.8877538 -116.67324 -4.6770878 -114.97237 -3.0898872 -112.76163 C -1.5026866 -110.60757 -0.70915395 -108.11368 -0.70915395 -105.27939 C -0.70915395 -102.10499 -1.644555 -99.384015 -3.5151842 -97.116586 C -5.3858135 -94.849156 -8.1634362 -93.120223 -11.848009 -91.929822 C -7.1997787 -90.909479 -3.9399069 -89.237189 -2.0692776 -86.913074 C -0.19864839 -84.588959 0.73623586 -81.442892 0.73623586 -77.474891 C 0.73623586 -74.017061 -0.31245314 -71.069506 -2.4098253 -68.632019 C -4.4505118 -66.194533 -7.1143297 -64.380375 -10.402102 -63.189974 C -13.689875 -61.999574 -17.091098 -61.404554 -20.605614 -61.404554 C -25.70733 -61.404554 -30.043954 -62.453243 -33.615156 -64.550615 C -37.129671 -66.647987 -38.886669 -69.510317 -38.886669 -73.138204 C -38.886669 -75.235577 -38.263068 -76.851222 -37.015982 -77.984937 C -35.768896 -79.175337 -34.210411 -79.770358 -32.339781 -79.770358 C -30.412466 -79.770358 -28.45644 -79.005405 -26.472439 -77.474891 C -26.982611 -76.397862 -27.237767 -75.094016 -27.237767 -73.563501 C -27.237767 -71.749558 -26.699391 -70.275781 -25.622362 -69.142066 C -24.488647 -68.008351 -22.816358 -67.441394 -20.605614 -67.441394 C -15.730641 -67.441394 -13.293399 -70.814037 -13.293399 -77.55964 C -13.293399 -81.244213 -14.483439 -84.10706 -16.86424 -86.147746 C -19.188355 -88.188433 -22.504871 -89.208541 -26.812987 -89.208541 L -26.812987 -94.480571 C -18.480184 -95.1608 -14.313492 -98.760535 -14.313492 -105.27939 C -14.313492 -108.56717 -14.823804 -110.97583 -15.844147 -112.50634 C -16.864491 -114.09354 -18.253044 -114.88759 -20.010301 -114.88759 C -22.107674 -114.88759 -23.695256 -114.15071 -24.772285 -112.67688 C -25.792628 -111.20305 -26.302424 -109.41747 -26.302424 -107.3201 C -26.302424 -105.44947 -25.905916 -103.77718 -25.112316 -102.30335 C -26.699516 -100.60278 -28.74025 -99.752084 -31.234423 -99.752084 C -33.501852 -99.752084 -35.258849 -100.43233 -36.505935 -101.79279 C -37.753022 -103.15324 -38.376622 -104.91076 -38.376622 -107.06482 C -38.376622 -109.8991 -37.413158 -112.25164 -35.485843 -114.12227 C -33.501842 -116.04958 -31.064083 -117.46671 -28.173111 -118.37369 C -25.225452 -119.28066 -22.334542 -119.73381 -19.500255 -119.73381 z M -118.30353 -119.13901 L -115.4975 -117.86364 L -115.4975 -68.716769 C -114.42047 -68.093226 -112.72011 -67.526269 -110.396 -67.016097 C -108.07188 -66.562611 -106.22966 -66.279392 -104.8692 -66.16602 L -105.12449 -62.084615 L -139.81591 -62.084615 L -139.64589 -66.16602 C -134.60086 -66.732877 -130.74597 -67.583054 -128.08174 -68.716769 L -128.08174 -109.44555 L -139.47588 -109.44555 L -139.47588 -114.37703 C -135.84799 -114.66046 -132.10639 -115.19935 -128.25176 -115.99295 C -124.39713 -116.84324 -121.08113 -117.89193 -118.30353 -119.13901 z M -55.552318 -119.13901 L -52.746288 -117.86364 L -52.746288 -68.716769 C -51.669259 -68.093226 -49.968905 -67.526269 -47.64479 -67.016097 C -45.320675 -66.562611 -43.478454 -66.279392 -42.117996 -66.16602 L -42.373277 -62.084615 L -77.0647 -62.084615 L -76.894685 -66.16602 C -71.849654 -66.732877 -67.994762 -67.583054 -65.330533 -68.716769 L -65.330533 -109.44555 L -76.724669 -109.44555 L -76.724669 -114.37703 C -73.096782 -114.66046 -69.355695 -115.19935 -65.501065 -115.99295 C -61.646435 -116.84324 -58.329919 -117.89193 -55.552318 -119.13901 z M -90.158991 -101.28274 C -88.17499 -101.28274 -86.701213 -100.68772 -85.737556 -99.497319 C -84.717212 -98.363604 -84.207416 -96.776539 -84.207416 -94.735852 C -84.207416 -92.695166 -84.717212 -91.107584 -85.737556 -89.973869 C -86.701213 -88.840154 -88.17499 -88.273198 -90.158991 -88.273198 C -92.142992 -88.273198 -93.64535 -88.840154 -94.665693 -89.973869 C -95.62935 -91.16427 -96.111083 -92.751852 -96.111083 -94.735852 C -96.111083 -96.833225 -95.62935 -98.448354 -94.665693 -99.582068 C -93.64535 -100.71578 -92.142992 -101.28274 -90.158991 -101.28274 z M -90.158991 -74.498845 C -88.17499 -74.498845 -86.701213 -73.903824 -85.737556 -72.713424 C -84.717212 -71.579709 -84.207416 -69.992127 -84.207416 -67.951441 C -84.207416 -65.910754 -84.717212 -64.323689 -85.737556 -63.189974 C -86.701213 -62.05626 -88.17499 -61.489303 -90.158991 -61.489303 C -92.142992 -61.489303 -93.64535 -62.05626 -94.665693 -63.189974 C -95.62935 -64.380375 -96.111083 -65.96744 -96.111083 -67.951441 C -96.111083 -70.048813 -95.62935 -71.664459 -94.665693 -72.798173 C -93.64535 -73.931888 -92.142992 -74.498845 -90.158991 -74.498845 z " /></g></svg>
