<?xml version="1.0" encoding="UTF-8" standalone="no"?>
<!-- Created with Inkscape (http://www.inkscape.org/) -->

<svg
   width="172.6701mm"
   height="172.6701mm"
   viewBox="0 0 172.6701 172.6701"
   version="1.1"
   id="svg1"
   xml:space="preserve"
   xmlns="http://www.w3.org/2000/svg"
   xmlns:svg="http://www.w3.org/2000/svg"><defs
     id="defs1" /><g
     id="layer1"
     transform="translate(157.25102,198.81012)"><path
       id="path5"
       style="fill:#ffffff;fill-opacity:1;stroke-width:0.805188;stroke-linecap:round;stroke-linejoin:round"
       d="M -2.0863309 -198.17657 L -10.088943 -183.11289 L -10.930235 -165.68398 L -19.198981 -165.68398 L -11.423229 -155.47426 L -12.166336 -140.07934 C -28.353216 -157.12094 -50.823548 -166.77435 -74.327399 -166.78417 C -103.64471 -166.77397 -130.92652 -151.79225 -146.66717 -127.05894 L -157.25102 -127.05894 L -149.61996 -115.86014 L -157.25102 -26.140039 L -8.5138455 -26.140039 L 15.419061 -26.140039 L 8.0799737 -154.80195 L 15.419061 -165.68398 L 7.4593397 -165.68398 L 6.4490654 -183.39297 L -2.0863309 -198.17657 z M -83.43072 -192.21621 C -85.584619 -189.65499 -86.77489 -186.4211 -86.795372 -183.07465 C -86.842092 -175.15518 -80.459903 -168.69733 -72.540428 -168.65072 C -64.621155 -168.60402 -58.163395 -174.98588 -58.116503 -182.90515 C -58.102813 -186.26049 -59.266203 -189.5144 -61.404157 -192.10045 C -60.83125 -190.6836 -60.536835 -189.16959 -60.537027 -187.64129 C -60.575787 -181.07411 -65.930869 -175.78172 -72.498054 -175.82031 C -79.065241 -175.85911 -84.357627 -181.21415 -84.319038 -187.78134 C -84.309338 -189.30285 -84.007827 -190.80837 -83.43072 -192.21621 z M -20.477973 -120.07436 C -15.943114 -119.84761 -12.258671 -118.85557 -9.4243843 -117.09831 L -29.661392 -83.767013 L -16.65185 -83.767013 L -15.801773 -97.626632 C -13.987829 -97.626632 -12.683984 -97.995076 -11.890384 -98.731991 C -11.040098 -99.468905 -10.387917 -100.71611 -9.9344306 -102.47336 L -5.0882148 -102.47336 L -5.1729642 -83.341716 C -3.0189062 -82.718173 -0.29792756 -82.066508 2.9898451 -81.38628 L 2.564548 -77.304875 L -5.5982612 -77.304875 L -5.5982612 -62.084615 L -16.65185 -62.084615 L -16.65185 -77.304875 L -41.225027 -77.304875 L -41.905606 -80.36567 L -20.477973 -120.07436 z M -120.21659 -119.13901 L -117.41107 -117.86364 L -117.41107 -68.716769 C -116.33405 -68.093226 -114.63318 -67.526269 -112.30906 -67.016097 C -109.98495 -66.562611 -108.14272 -66.279392 -106.78227 -66.16602 L -107.03755 -62.084615 L -141.72897 -62.084615 L -141.55895 -66.16602 C -136.51392 -66.732877 -132.65955 -67.583054 -129.99532 -68.716769 L -129.99532 -109.44555 L -141.38894 -109.44555 L -141.38894 -114.37703 C -137.76105 -114.66046 -134.01996 -115.19935 -130.16533 -115.99295 C -126.3107 -116.84324 -122.99419 -117.89193 -120.21659 -119.13901 z M -57.46538 -119.13901 L -54.659866 -117.86364 L -54.659866 -68.716769 C -53.582837 -68.093226 -51.881967 -67.526269 -49.557852 -67.016097 C -47.233737 -66.562611 -45.391515 -66.279392 -44.031057 -66.16602 L -44.286339 -62.084615 L -78.977762 -62.084615 L -78.807746 -66.16602 C -73.762716 -66.732877 -69.90834 -67.583054 -67.244111 -68.716769 L -67.244111 -109.44555 L -78.637731 -109.44555 L -78.637731 -114.37703 C -75.009844 -114.66046 -71.268756 -115.19935 -67.414126 -115.99295 C -63.559496 -116.84324 -60.242981 -117.89193 -57.46538 -119.13901 z M -92.072569 -101.28274 C -90.088569 -101.28274 -88.614275 -100.68772 -87.650617 -99.497319 C -86.630274 -98.363604 -86.120478 -96.776539 -86.120478 -94.735852 C -86.120478 -92.695166 -86.630274 -91.107584 -87.650617 -89.973869 C -88.614275 -88.840154 -90.088569 -88.273198 -92.072569 -88.273198 C -94.05657 -88.273198 -95.558411 -88.840154 -96.578754 -89.973869 C -97.542412 -91.16427 -98.024144 -92.751852 -98.024144 -94.735852 C -98.024144 -96.833225 -97.542412 -98.448354 -96.578754 -99.582068 C -95.558411 -100.71578 -94.05657 -101.28274 -92.072569 -101.28274 z M -92.072569 -74.498845 C -90.088569 -74.498845 -88.614275 -73.903824 -87.650617 -72.713424 C -86.630274 -71.579709 -86.120478 -69.992127 -86.120478 -67.951441 C -86.120478 -65.910754 -86.630274 -64.323689 -87.650617 -63.189974 C -88.614275 -62.05626 -90.088569 -61.489303 -92.072569 -61.489303 C -94.05657 -61.489303 -95.558411 -62.05626 -96.578754 -63.189974 C -97.542412 -64.380375 -98.024144 -65.96744 -98.024144 -67.951441 C -98.024144 -70.048813 -97.542412 -71.664459 -96.578754 -72.798173 C -95.558411 -73.931888 -94.05657 -74.498845 -92.072569 -74.498845 z " /></g></svg>
