<?xml version="1.0" encoding="UTF-8" standalone="no"?>
<!-- Created with Inkscape (http://www.inkscape.org/) -->

<svg
   width="172.6701mm"
   height="172.6701mm"
   viewBox="0 0 172.6701 172.6701"
   version="1.1"
   id="svg1"
   xml:space="preserve"
   xmlns="http://www.w3.org/2000/svg"
   xmlns:svg="http://www.w3.org/2000/svg"><defs
     id="defs1" /><g
     id="layer1"
     transform="translate(157.25102,198.81012)"><path
       id="path5"
       style="fill:#ffffff;fill-opacity:1;stroke-width:0.805188;stroke-linecap:round;stroke-linejoin:round"
       d="M -2.0863309 -198.17657 L -10.088943 -183.11289 L -10.930235 -165.68398 L -19.198981 -165.68398 L -11.423229 -155.47426 L -12.166336 -140.07934 C -28.353216 -157.12094 -50.823548 -166.77435 -74.327399 -166.78417 C -103.64471 -166.77397 -130.92652 -151.79225 -146.66717 -127.05894 L -157.25102 -127.05894 L -149.61996 -115.86014 L -157.25102 -26.140039 L -8.5138455 -26.140039 L 15.419061 -26.140039 L 8.0799737 -154.80195 L 15.419061 -165.68398 L 7.4593397 -165.68398 L 6.4490654 -183.39297 L -2.0863309 -198.17657 z M -83.43072 -192.21621 C -85.584619 -189.65499 -86.77489 -186.4211 -86.795372 -183.07465 C -86.842092 -175.15518 -80.459903 -168.69733 -72.540428 -168.65072 C -64.621155 -168.60402 -58.163395 -174.98588 -58.116503 -182.90515 C -58.102813 -186.26049 -59.266203 -189.5144 -61.404157 -192.10045 C -60.83125 -190.6836 -60.536835 -189.16959 -60.537027 -187.64129 C -60.575787 -181.07411 -65.930869 -175.78172 -72.498054 -175.82031 C -79.065241 -175.85911 -84.357627 -181.21415 -84.319038 -187.78134 C -84.309338 -189.30285 -84.007827 -190.80837 -83.43072 -192.21621 z M -118.81409 -119.13901 L -116.00806 -117.86364 L -116.00806 -68.716769 C -114.93103 -68.093226 -113.23016 -67.526269 -110.90605 -67.016097 C -108.58193 -66.562611 -106.73971 -66.279392 -105.37925 -66.16602 L -105.63453 -62.084615 L -140.32595 -62.084615 L -140.15594 -66.16602 C -135.11091 -66.732877 -131.25653 -67.583054 -128.5923 -68.716769 L -128.5923 -109.44555 L -139.98592 -109.44555 L -139.98592 -114.37703 C -136.35804 -114.66046 -132.61695 -115.19935 -128.76232 -115.99295 C -124.90769 -116.84324 -121.59169 -117.89193 -118.81409 -119.13901 z M -56.062881 -119.13901 L -53.256851 -117.86364 L -53.256851 -68.716769 C -52.179822 -68.093226 -50.478952 -67.526269 -48.154837 -67.016097 C -45.830722 -66.562611 -43.9885 -66.279392 -42.628042 -66.16602 L -42.883324 -62.084615 L -77.574746 -62.084615 L -77.404731 -66.16602 C -72.359701 -66.732877 -68.505325 -67.583054 -65.841096 -68.716769 L -65.841096 -109.44555 L -77.234715 -109.44555 L -77.234715 -114.37703 C -73.606828 -114.66046 -69.865741 -115.19935 -66.011111 -115.99295 C -62.156481 -116.84324 -58.840482 -117.89193 -56.062881 -119.13901 z M -31.404438 -119.05375 L -27.153018 -118.969 C -21.14433 -118.85563 -17.969683 -118.79847 -17.629568 -118.79847 L -5.5558865 -118.969 L -3.0898872 -117.18306 L -3.8552151 -110.72092 L -24.9423 -110.72092 L -26.132408 -96.521273 C -23.18475 -97.258188 -20.520932 -97.626632 -18.140131 -97.626632 C -12.528244 -97.626632 -7.9650432 -96.124274 -4.4505276 -93.11993 C -0.87932634 -90.172272 0.90625132 -85.836165 0.90625132 -80.110905 C 0.90625132 -76.539704 0.056074676 -73.336993 -1.6444974 -70.502706 C -3.2883837 -67.66842 -5.6689817 -65.429173 -8.7866971 -63.785287 C -11.904413 -62.198086 -15.588856 -61.404554 -19.840286 -61.404554 C -23.298116 -61.404554 -26.444183 -61.886286 -29.27847 -62.849943 C -32.056071 -63.813601 -34.238673 -65.14551 -35.825874 -66.846082 C -37.413074 -68.60334 -38.206607 -70.559366 -38.206607 -72.713424 C -38.206607 -74.980853 -37.583006 -76.709787 -36.33592 -77.900188 C -35.088834 -79.147274 -33.558412 -79.770358 -31.744469 -79.770358 C -30.724126 -79.770358 -29.704017 -79.572362 -28.683674 -79.175562 C -27.606645 -78.778762 -26.642663 -78.211805 -25.792377 -77.474891 C -26.302549 -76.28449 -26.557705 -75.037289 -26.557705 -73.733517 C -26.557705 -71.862888 -26.019329 -70.332466 -24.9423 -69.142066 C -23.808585 -67.951665 -22.107715 -67.356645 -19.840286 -67.356645 C -14.73857 -67.356645 -12.18804 -71.608045 -12.18804 -80.110905 C -12.18804 -84.135593 -12.981573 -87.054567 -14.568773 -88.86851 C -16.155974 -90.73914 -18.281415 -91.674541 -20.945645 -91.674541 C -22.589531 -91.674541 -24.347045 -91.36274 -26.217674 -90.739197 C -28.088304 -90.115654 -29.930525 -89.236897 -31.744469 -88.103182 L -36.421186 -92.609884 L -34.210468 -116.75776 L -31.404438 -119.05375 z M -90.669554 -101.28274 C -88.685554 -101.28274 -87.211776 -100.68772 -86.248119 -99.497319 C -85.227776 -98.363604 -84.717463 -96.776539 -84.717463 -94.735852 C -84.717463 -92.695166 -85.227776 -91.107584 -86.248119 -89.973869 C -87.211776 -88.840154 -88.685554 -88.273198 -90.669554 -88.273198 C -92.653555 -88.273198 -94.155396 -88.840154 -95.175739 -89.973869 C -96.139397 -91.16427 -96.621646 -92.751852 -96.621646 -94.735852 C -96.621646 -96.833225 -96.139397 -98.448354 -95.175739 -99.582068 C -94.155396 -100.71578 -92.653555 -101.28274 -90.669554 -101.28274 z M -90.669554 -74.498845 C -88.685554 -74.498845 -87.211776 -73.903824 -86.248119 -72.713424 C -85.227776 -71.579709 -84.717463 -69.992127 -84.717463 -67.951441 C -84.717463 -65.910754 -85.227776 -64.323689 -86.248119 -63.189974 C -87.211776 -62.05626 -88.685554 -61.489303 -90.669554 -61.489303 C -92.653555 -61.489303 -94.155396 -62.05626 -95.175739 -63.189974 C -96.139397 -64.380375 -96.621646 -65.96744 -96.621646 -67.951441 C -96.621646 -70.048813 -96.139397 -71.664459 -95.175739 -72.798173 C -94.155396 -73.931888 -92.653555 -74.498845 -90.669554 -74.498845 z " /></g></svg>
