<?xml version="1.0" encoding="UTF-8" standalone="no"?>
<!-- Created with Inkscape (http://www.inkscape.org/) -->

<svg
   width="172.6701mm"
   height="172.6701mm"
   viewBox="0 0 172.6701 172.6701"
   version="1.1"
   id="svg1"
   xml:space="preserve"
   xmlns="http://www.w3.org/2000/svg"
   xmlns:svg="http://www.w3.org/2000/svg"><defs
     id="defs1" /><g
     id="layer1"
     transform="translate(157.25102,198.81012)"><path
       id="path5"
       style="fill:#ffffff;fill-opacity:1;stroke-width:0.805188;stroke-linecap:round;stroke-linejoin:round"
       d="M -2.0863309 -198.17657 L -10.088943 -183.11289 L -10.930235 -165.68398 L -19.198981 -165.68398 L -11.423229 -155.47426 L -12.166336 -140.07934 C -28.353216 -157.12094 -50.823548 -166.77435 -74.327399 -166.78417 C -103.64471 -166.77397 -130.92652 -151.79225 -146.66717 -127.05894 L -157.25102 -127.05894 L -149.61996 -115.86014 L -157.25102 -26.140039 L -8.5138455 -26.140039 L 15.419061 -26.140039 L 8.0799737 -154.80195 L 15.419061 -165.68398 L 7.4593397 -165.68398 L 6.4490654 -183.39297 L -2.0863309 -198.17657 z M -83.43072 -192.21621 C -85.584619 -189.65499 -86.77489 -186.4211 -86.795372 -183.07465 C -86.842092 -175.15518 -80.459903 -168.69733 -72.540428 -168.65072 C -64.621155 -168.60402 -58.163395 -174.98588 -58.116503 -182.90515 C -58.102813 -186.26049 -59.266203 -189.5144 -61.404157 -192.10045 C -60.83125 -190.6836 -60.536835 -189.16959 -60.537027 -187.64129 C -60.575787 -181.07411 -65.930869 -175.78172 -72.498054 -175.82031 C -79.065241 -175.85911 -84.357627 -181.21415 -84.319038 -187.78134 C -84.309338 -189.30285 -84.007827 -190.80837 -83.43072 -192.21621 z M -18.904943 -119.56379 C -12.15934 -119.56379 -7.0011194 -117.69351 -3.4299181 -113.95225 C 0.19796893 -110.21099 2.0116102 -104.7971 2.0116102 -97.711381 C 2.0116102 -88.811721 -0.7654957 -81.216258 -6.3206977 -74.924142 C -11.819214 -68.688711 -19.812218 -64.09693 -30.299079 -61.149272 L -32.339781 -65.400692 C -26.671208 -67.838179 -22.108008 -70.956182 -18.650178 -74.754126 C -15.192348 -78.608756 -12.896458 -83.086732 -11.762743 -88.188448 C -14.937144 -86.601248 -18.026567 -85.807715 -21.030911 -85.807715 C -26.699484 -85.807715 -31.17746 -87.338137 -34.465233 -90.399166 C -37.69632 -93.460196 -39.311966 -97.598308 -39.311966 -102.8134 C -39.311966 -106.04448 -38.461789 -108.93539 -36.761217 -111.48625 C -35.003959 -114.03711 -32.594781 -116.0212 -29.533751 -117.43834 C -26.416036 -118.85549 -22.872944 -119.56379 -18.904943 -119.56379 z M -119.40889 -119.13901 L -116.60337 -117.86364 L -116.60337 -68.716769 C -115.52634 -68.093226 -113.82547 -67.526269 -111.50136 -67.016097 C -109.17724 -66.562611 -107.33502 -66.279392 -105.97456 -66.16602 L -106.22984 -62.084615 L -140.92127 -62.084615 L -140.75125 -66.16602 C -135.70622 -66.732877 -131.85185 -67.583054 -129.18762 -68.716769 L -129.18762 -109.44555 L -140.58124 -109.44555 L -140.58124 -114.37703 C -136.95335 -114.66046 -133.21226 -115.19935 -129.35763 -115.99295 C -125.503 -116.84324 -122.18649 -117.89193 -119.40889 -119.13901 z M -56.657677 -119.13901 L -53.852163 -117.86364 L -53.852163 -68.716769 C -52.775134 -68.093226 -51.074264 -67.526269 -48.750149 -67.016097 C -46.426034 -66.562611 -44.583812 -66.279392 -43.223355 -66.16602 L -43.478636 -62.084615 L -78.170059 -62.084615 L -78.000043 -66.16602 C -72.955013 -66.732877 -69.100638 -67.583054 -66.436408 -68.716769 L -66.436408 -109.44555 L -77.830028 -109.44555 L -77.830028 -114.37703 C -74.202141 -114.66046 -70.461054 -115.19935 -66.606424 -115.99295 C -62.751794 -116.84324 -59.435278 -117.89193 -56.657677 -119.13901 z M -19.415506 -113.69697 C -21.852992 -113.69697 -23.723278 -112.76157 -25.027049 -110.89094 C -26.330821 -109.02031 -26.983002 -106.35597 -26.983002 -102.89814 C -26.983002 -99.383629 -26.274177 -96.634587 -24.857034 -94.650586 C -23.383205 -92.723271 -21.314407 -91.759807 -18.650178 -91.759807 C -16.326063 -91.759807 -13.746952 -92.723271 -10.912666 -94.650586 L -10.912666 -95.755945 C -10.912666 -101.93469 -11.59291 -106.46931 -12.953368 -109.36028 C -14.313825 -112.25126 -16.467847 -113.69697 -19.415506 -113.69697 z M -91.26435 -101.28274 C -89.280349 -101.28274 -87.806572 -100.68772 -86.842915 -99.497319 C -85.822571 -98.363604 -85.312775 -96.776539 -85.312775 -94.735852 C -85.312775 -92.695166 -85.822571 -91.107584 -86.842915 -89.973869 C -87.806572 -88.840154 -89.280349 -88.273198 -91.26435 -88.273198 C -93.248351 -88.273198 -94.750709 -88.840154 -95.771052 -89.973869 C -96.734709 -91.16427 -97.216442 -92.751852 -97.216442 -94.735852 C -97.216442 -96.833225 -96.734709 -98.448354 -95.771052 -99.582068 C -94.750709 -100.71578 -93.248351 -101.28274 -91.26435 -101.28274 z M -91.26435 -74.498845 C -89.280349 -74.498845 -87.806572 -73.903824 -86.842915 -72.713424 C -85.822571 -71.579709 -85.312775 -69.992127 -85.312775 -67.951441 C -85.312775 -65.910754 -85.822571 -64.323689 -86.842915 -63.189974 C -87.806572 -62.05626 -89.280349 -61.489303 -91.26435 -61.489303 C -93.248351 -61.489303 -94.750709 -62.05626 -95.771052 -63.189974 C -96.734709 -64.380375 -97.216442 -65.96744 -97.216442 -67.951441 C -97.216442 -70.048813 -96.734709 -71.664459 -95.771052 -72.798173 C -94.750709 -73.931888 -93.248351 -74.498845 -91.26435 -74.498845 z " /></g></svg>
