<?xml version="1.0" encoding="UTF-8" standalone="no"?>
<!-- Created with Inkscape (http://www.inkscape.org/) -->

<svg
   width="172.6701mm"
   height="172.6701mm"
   viewBox="0 0 172.6701 172.6701"
   version="1.1"
   id="svg1"
   xml:space="preserve"
   xmlns="http://www.w3.org/2000/svg"
   xmlns:svg="http://www.w3.org/2000/svg"><defs
     id="defs1" /><g
     id="layer1"
     transform="translate(157.25102,198.81012)"><path
       id="path5"
       style="fill:#ffffff;fill-opacity:1;stroke-width:0.805188;stroke-linecap:round;stroke-linejoin:round"
       d="M -2.0863309 -198.17657 L -10.088943 -183.11289 L -10.930235 -165.68398 L -19.198981 -165.68398 L -11.423229 -155.47426 L -12.166336 -140.07934 C -28.353216 -157.12094 -50.823548 -166.77435 -74.327399 -166.78417 C -103.64471 -166.77397 -130.92652 -151.79225 -146.66717 -127.05894 L -157.25102 -127.05894 L -149.61996 -115.86014 L -157.25102 -26.140039 L -8.5138455 -26.140039 L 15.419061 -26.140039 L 8.0799737 -154.80195 L 15.419061 -165.68398 L 7.4593397 -165.68398 L 6.4490654 -183.39297 L -2.0863309 -198.17657 z M -83.43072 -192.21621 C -85.584619 -189.65499 -86.77489 -186.4211 -86.795372 -183.07465 C -86.842092 -175.15518 -80.459903 -168.69733 -72.540428 -168.65072 C -64.621155 -168.60402 -58.163395 -174.98588 -58.116503 -182.90515 C -58.102813 -186.26049 -59.266203 -189.5144 -61.404157 -192.10045 C -60.83125 -190.6836 -60.536835 -189.16959 -60.537027 -187.64129 C -60.575787 -181.07411 -65.930869 -175.78172 -72.498054 -175.82031 C -79.065241 -175.85911 -84.357627 -181.21415 -84.319038 -187.78134 C -84.309338 -189.30285 -84.007827 -190.80837 -83.43072 -192.21621 z M -61.249645 -119.73381 C -55.411014 -119.73381 -50.762589 -118.28861 -47.304759 -115.39764 C -43.84693 -112.56335 -42.117996 -108.56711 -42.117996 -103.40871 C -42.117996 -98.873849 -43.84693 -94.026912 -47.304759 -88.86851 C -50.762589 -83.766794 -56.459703 -77.616529 -64.395706 -70.41744 L -41.522683 -70.41744 L -41.522683 -62.084615 L -80.040746 -62.084615 L -80.040746 -67.016097 C -73.748629 -73.081471 -68.845565 -78.268272 -65.331049 -82.576388 C -61.816534 -86.884504 -59.293551 -90.852684 -57.763036 -94.480571 C -56.175835 -98.108458 -55.382303 -101.84955 -55.382303 -105.70418 C -55.382303 -111.82623 -57.423037 -114.88759 -61.504409 -114.88759 C -63.318353 -114.88759 -64.79213 -114.0369 -65.925845 -112.33633 C -67.05956 -110.69244 -67.626516 -108.65171 -67.626516 -106.21422 C -67.626516 -104.51365 -67.031496 -102.89852 -65.841096 -101.36801 C -66.804753 -100.46103 -67.910086 -99.752209 -69.157172 -99.242037 C -70.347573 -98.731866 -71.53813 -98.476709 -72.728531 -98.476709 C -74.769217 -98.476709 -76.46957 -99.10031 -77.830028 -100.3474 C -79.190486 -101.65117 -79.87073 -103.52197 -79.87073 -105.95946 C -79.87073 -108.567 -79.105261 -110.91953 -77.574746 -113.01691 C -76.044232 -115.11428 -73.89021 -116.75799 -71.112609 -117.94839 C -68.278322 -119.13879 -64.990903 -119.73381 -61.249645 -119.73381 z M -16.354194 -119.64906 C -9.7219628 -119.64906 -4.6489666 -117.15466 -1.134451 -112.16631 C 2.4367503 -107.23465 4.222328 -100.06428 4.222328 -90.654448 C 4.222328 -81.244616 2.4367503 -74.017081 -1.134451 -68.97205 C -4.6489666 -63.983706 -9.7219628 -61.489303 -16.354194 -61.489303 C -22.986425 -61.489303 -28.088518 -63.983706 -31.65972 -68.97205 C -35.230921 -74.017081 -37.016499 -81.244616 -37.016499 -90.654448 C -37.016499 -100.00759 -35.230921 -107.17797 -31.65972 -112.16631 C -28.088518 -117.15466 -22.986425 -119.64906 -16.354194 -119.64906 z M -121.44959 -119.13901 L -118.64407 -117.86364 L -118.64407 -68.716769 C -117.56705 -68.093226 -115.86618 -67.526269 -113.54206 -67.016097 C -111.21794 -66.562611 -109.37572 -66.279392 -108.01527 -66.16602 L -108.27055 -62.084615 L -142.96197 -62.084615 L -142.79195 -66.16602 C -137.74692 -66.732877 -133.89255 -67.583054 -131.22832 -68.716769 L -131.22832 -109.44555 L -142.62194 -109.44555 L -142.62194 -114.37703 C -138.99405 -114.66046 -135.25296 -115.19935 -131.39833 -115.99295 C -127.5437 -116.84324 -124.22719 -117.89193 -121.44959 -119.13901 z M -16.354194 -115.31237 C -19.245166 -115.31237 -21.342544 -113.41351 -22.646316 -109.61556 C -23.893402 -105.81762 -24.517003 -99.497422 -24.517003 -90.654448 C -24.517003 -81.868159 -23.893402 -75.576025 -22.646316 -71.778081 C -21.342544 -68.036822 -19.245166 -66.16602 -16.354194 -66.16602 C -13.463221 -66.16602 -11.394424 -68.036822 -10.147338 -71.778081 C -8.8435656 -75.576025 -8.1913846 -81.868159 -8.1913846 -90.654448 C -8.1913846 -99.440737 -8.8435656 -105.73287 -10.147338 -109.53081 C -11.394424 -113.38544 -13.463221 -115.31237 -16.354194 -115.31237 z M -93.305052 -101.28274 C -91.321052 -101.28274 -89.847274 -100.68772 -88.883617 -99.497319 C -87.863274 -98.363604 -87.353478 -96.776539 -87.353478 -94.735852 C -87.353478 -92.695166 -87.863274 -91.107584 -88.883617 -89.973869 C -89.847274 -88.840154 -91.321052 -88.273198 -93.305052 -88.273198 C -95.289053 -88.273198 -96.791411 -88.840154 -97.811754 -89.973869 C -98.775412 -91.16427 -99.257144 -92.751852 -99.257144 -94.735852 C -99.257144 -96.833225 -98.775412 -98.448354 -97.811754 -99.582068 C -96.791411 -100.71578 -95.289053 -101.28274 -93.305052 -101.28274 z M -93.305052 -74.498845 C -91.321052 -74.498845 -89.847274 -73.903824 -88.883617 -72.713424 C -87.863274 -71.579709 -87.353478 -69.992127 -87.353478 -67.951441 C -87.353478 -65.910754 -87.863274 -64.323689 -88.883617 -63.189974 C -89.847274 -62.05626 -91.321052 -61.489303 -93.305052 -61.489303 C -95.289053 -61.489303 -96.791411 -62.05626 -97.811754 -63.189974 C -98.775412 -64.380375 -99.257144 -65.96744 -99.257144 -67.951441 C -99.257144 -70.048813 -98.775412 -71.664459 -97.811754 -72.798173 C -96.791411 -73.931888 -95.289053 -74.498845 -93.305052 -74.498845 z " /></g></svg>
