<?xml version="1.0" encoding="UTF-8" standalone="no"?>
<!-- Created with Inkscape (http://www.inkscape.org/) -->

<svg
   width="172.6701mm"
   height="172.6701mm"
   viewBox="0 0 172.6701 172.6701"
   version="1.1"
   id="svg1"
   xml:space="preserve"
   xmlns="http://www.w3.org/2000/svg"
   xmlns:svg="http://www.w3.org/2000/svg"><defs
     id="defs1" /><g
     id="layer1"
     transform="translate(157.25102,198.81012)"><path
       id="path5"
       style="fill:#ffffff;fill-opacity:1;stroke-width:0.805188;stroke-linecap:round;stroke-linejoin:round"
       d="M -2.0863309 -198.17657 L -10.088943 -183.11289 L -10.930235 -165.68398 L -19.198981 -165.68398 L -11.423229 -155.47426 L -12.166336 -140.07934 C -28.353216 -157.12094 -50.823548 -166.77435 -74.327399 -166.78417 C -103.64471 -166.77397 -130.92652 -151.79225 -146.66717 -127.05894 L -157.25102 -127.05894 L -149.61996 -115.86014 L -157.25102 -26.140039 L -8.5138455 -26.140039 L 15.419061 -26.140039 L 8.0799737 -154.80195 L 15.419061 -165.68398 L 7.4593397 -165.68398 L 6.4490654 -183.39297 L -2.0863309 -198.17657 z M -83.43072 -192.21621 C -85.584619 -189.65499 -86.77489 -186.4211 -86.795372 -183.07465 C -86.842092 -175.15518 -80.459903 -168.69733 -72.540428 -168.65072 C -64.621155 -168.60402 -58.163395 -174.98588 -58.116503 -182.90515 C -58.102813 -186.26049 -59.266203 -189.5144 -61.404157 -192.10045 C -60.83125 -190.6836 -60.536835 -189.16959 -60.537027 -187.64129 C -60.575787 -181.07411 -65.930869 -175.78172 -72.498054 -175.82031 C -79.065241 -175.85911 -84.357627 -181.21415 -84.319038 -187.78134 C -84.309338 -189.30285 -84.007827 -190.80837 -83.43072 -192.21621 z M -60.144286 -119.73381 C -54.305655 -119.73381 -49.65723 -118.28861 -46.199401 -115.39764 C -42.741571 -112.56335 -41.012637 -108.56711 -41.012637 -103.40871 C -41.012637 -98.873849 -42.741571 -94.026912 -46.199401 -88.86851 C -49.65723 -83.766794 -55.354344 -77.616529 -63.290347 -70.41744 L -40.417325 -70.41744 L -40.417325 -62.084615 L -78.935387 -62.084615 L -78.935387 -67.016097 C -72.64327 -73.081471 -67.739689 -78.268272 -64.225174 -82.576388 C -60.710658 -86.884504 -58.188192 -90.852684 -56.657677 -94.480571 C -55.070476 -98.108458 -54.276944 -101.84955 -54.276944 -105.70418 C -54.276944 -111.82623 -56.317678 -114.88759 -60.399051 -114.88759 C -62.212994 -114.88759 -63.686771 -114.0369 -64.820486 -112.33633 C -65.954201 -110.69244 -66.521158 -108.65171 -66.521158 -106.21422 C -66.521158 -104.51365 -65.926137 -102.89852 -64.735737 -101.36801 C -65.699394 -100.46103 -66.804727 -99.752209 -68.051813 -99.242037 C -69.242214 -98.731866 -70.432254 -98.476709 -71.622655 -98.476709 C -73.663341 -98.476709 -75.364211 -99.10031 -76.724669 -100.3474 C -78.085127 -101.65117 -78.765371 -103.52197 -78.765371 -105.95946 C -78.765371 -108.567 -77.999902 -110.91953 -76.469388 -113.01691 C -74.938873 -115.11428 -72.784851 -116.75799 -70.00725 -117.94839 C -67.172963 -119.13879 -63.885544 -119.73381 -60.144286 -119.73381 z M -17.034772 -119.73381 C -11.196142 -119.73381 -6.547717 -118.28861 -3.0898872 -115.39764 C 0.36794265 -112.56335 2.0968763 -108.56711 2.0968763 -103.40871 C 2.0968763 -98.873849 0.36794265 -94.026912 -3.0898872 -88.86851 C -6.547717 -83.766794 -12.244831 -77.616529 -20.180834 -70.41744 L 2.6921888 -70.41744 L 2.6921888 -62.084615 L -35.825874 -62.084615 L -35.825874 -67.016097 C -29.533757 -73.081471 -24.630176 -78.268272 -21.11566 -82.576388 C -17.601145 -86.884504 -15.078678 -90.852684 -13.548164 -94.480571 C -11.960963 -98.108458 -11.16743 -101.84955 -11.16743 -105.70418 C -11.16743 -111.82623 -13.208164 -114.88759 -17.289537 -114.88759 C -19.103481 -114.88759 -20.577258 -114.0369 -21.710973 -112.33633 C -22.844688 -110.69244 -23.411644 -108.65171 -23.411644 -106.21422 C -23.411644 -104.51365 -22.816624 -102.89852 -21.626223 -101.36801 C -22.589881 -100.46103 -23.695214 -99.752209 -24.9423 -99.242037 C -26.132701 -98.731866 -27.323258 -98.476709 -28.513658 -98.476709 C -30.554345 -98.476709 -32.254698 -99.10031 -33.615156 -100.3474 C -34.975613 -101.65117 -35.655858 -103.52197 -35.655858 -105.95946 C -35.655858 -108.567 -34.890389 -110.91953 -33.359874 -113.01691 C -31.829359 -115.11428 -29.675337 -116.75799 -26.897736 -117.94839 C -24.06345 -119.13879 -20.776031 -119.73381 -17.034772 -119.73381 z M -120.34423 -119.13901 L -117.5382 -117.86364 L -117.5382 -68.716769 C -116.46117 -68.093226 -114.76082 -67.526269 -112.4367 -67.016097 C -110.11259 -66.562611 -108.27036 -66.279392 -106.90991 -66.16602 L -107.16519 -62.084615 L -141.85661 -62.084615 L -141.6866 -66.16602 C -136.64156 -66.732877 -132.78667 -67.583054 -130.12244 -68.716769 L -130.12244 -109.44555 L -141.51658 -109.44555 L -141.51658 -114.37703 C -137.88869 -114.66046 -134.14709 -115.19935 -130.29246 -115.99295 C -126.43783 -116.84324 -123.12183 -117.89193 -120.34423 -119.13901 z M -92.199694 -101.28274 C -90.215693 -101.28274 -88.741915 -100.68772 -87.778258 -99.497319 C -86.757915 -98.363604 -86.248119 -96.776539 -86.248119 -94.735852 C -86.248119 -92.695166 -86.757915 -91.107584 -87.778258 -89.973869 C -88.741915 -88.840154 -90.215693 -88.273198 -92.199694 -88.273198 C -94.183694 -88.273198 -95.686052 -88.840154 -96.706395 -89.973869 C -97.670053 -91.16427 -98.151785 -92.751852 -98.151785 -94.735852 C -98.151785 -96.833225 -97.670053 -98.448354 -96.706395 -99.582068 C -95.686052 -100.71578 -94.183694 -101.28274 -92.199694 -101.28274 z M -92.199694 -74.498845 C -90.215693 -74.498845 -88.741915 -73.903824 -87.778258 -72.713424 C -86.757915 -71.579709 -86.248119 -69.992127 -86.248119 -67.951441 C -86.248119 -65.910754 -86.757915 -64.323689 -87.778258 -63.189974 C -88.741915 -62.05626 -90.215693 -61.489303 -92.199694 -61.489303 C -94.183694 -61.489303 -95.686052 -62.05626 -96.706395 -63.189974 C -97.670053 -64.380375 -98.151785 -65.96744 -98.151785 -67.951441 C -98.151785 -70.048813 -97.670053 -71.664459 -96.706395 -72.798173 C -95.686052 -73.931888 -94.183694 -74.498845 -92.199694 -74.498845 z " /></g></svg>
