<?xml version="1.0" encoding="UTF-8" standalone="no"?>
<!-- Created with Inkscape (http://www.inkscape.org/) -->

<svg
   width="172.6701mm"
   height="172.6701mm"
   viewBox="0 0 172.6701 172.6701"
   version="1.1"
   id="svg1"
   xml:space="preserve"
   xmlns="http://www.w3.org/2000/svg"
   xmlns:svg="http://www.w3.org/2000/svg"><defs
     id="defs1" /><g
     id="layer1"
     transform="translate(157.25102,198.81012)"><path
       id="path5"
       style="fill:#ffffff;fill-opacity:1;stroke-width:0.805188;stroke-linecap:round;stroke-linejoin:round"
       d="M -2.0863309 -198.17657 L -10.088943 -183.11289 L -10.930235 -165.68398 L -19.198981 -165.68398 L -11.423229 -155.47426 L -12.166336 -140.07934 C -28.353216 -157.12094 -50.823548 -166.77435 -74.327399 -166.78417 C -103.64471 -166.77397 -130.92652 -151.79225 -146.66717 -127.05894 L -157.25102 -127.05894 L -149.61996 -115.86014 L -157.25102 -26.140039 L -8.5138455 -26.140039 L 15.419061 -26.140039 L 8.0799737 -154.80195 L 15.419061 -165.68398 L 7.4593397 -165.68398 L 6.4490654 -183.39297 L -2.0863309 -198.17657 z M -83.43072 -192.21621 C -85.584619 -189.65499 -86.77489 -186.4211 -86.795372 -183.07465 C -86.842092 -175.15518 -80.459903 -168.69733 -72.540428 -168.65072 C -64.621155 -168.60402 -58.163395 -174.98588 -58.116503 -182.90515 C -58.102813 -186.26049 -59.266203 -189.5144 -61.404157 -192.10045 C -60.83125 -190.6836 -60.536835 -189.16959 -60.537027 -187.64129 C -60.575787 -181.07411 -65.930869 -175.78172 -72.498054 -175.82031 C -79.065241 -175.85911 -84.357627 -181.21415 -84.319038 -187.78134 C -84.309338 -189.30285 -84.007827 -190.80837 -83.43072 -192.21621 z M -18.352521 -120.07436 C -13.817663 -119.84761 -10.133219 -118.85557 -7.2989326 -117.09831 L -27.535423 -83.767013 L -14.526398 -83.767013 L -13.675804 -97.626632 C -11.861861 -97.626632 -10.558015 -97.995076 -9.7644152 -98.731991 C -8.9141292 -99.468905 -8.2624649 -100.71611 -7.808979 -102.47336 L -2.9622464 -102.47336 L -3.0475125 -83.341716 C -0.89345458 -82.718173 1.8275241 -82.066508 5.1152967 -81.38628 L 4.6905165 -77.304875 L -3.4722928 -77.304875 L -3.4722928 -62.084615 L -14.526398 -62.084615 L -14.526398 -77.304875 L -39.099576 -77.304875 L -39.779637 -80.36567 L -18.352521 -120.07436 z M -62.482128 -119.73381 C -58.797555 -119.73381 -55.5382 -119.11073 -52.703913 -117.86364 C -49.869626 -116.67324 -47.65896 -114.97237 -46.07176 -112.76163 C -44.484559 -110.60757 -43.691027 -108.11368 -43.691027 -105.27939 C -43.691027 -102.10499 -44.626428 -99.384015 -46.497057 -97.116586 C -48.367686 -94.849156 -51.145309 -93.120223 -54.829881 -91.929822 C -50.181651 -90.909479 -46.922296 -89.237189 -45.051667 -86.913074 C -43.181038 -84.588959 -42.245637 -81.442892 -42.245637 -77.474891 C -42.245637 -74.017061 -43.294326 -71.069506 -45.391698 -68.632019 C -47.432384 -66.194533 -50.096202 -64.380375 -53.383975 -63.189974 C -56.671748 -61.999574 -60.072971 -61.404554 -63.587486 -61.404554 C -68.689203 -61.404554 -73.025827 -62.453243 -76.597028 -64.550615 C -80.111544 -66.647987 -81.869058 -69.510317 -81.869058 -73.138204 C -81.869058 -75.235577 -81.245457 -76.851222 -79.998371 -77.984937 C -78.751285 -79.175337 -77.192283 -79.770358 -75.321654 -79.770358 C -73.394339 -79.770358 -71.438829 -79.005405 -69.454829 -77.474891 C -69.965 -76.397862 -70.21964 -75.094016 -70.21964 -73.563501 C -70.21964 -71.749558 -69.681263 -70.275781 -68.604235 -69.142066 C -67.47052 -68.008351 -65.79823 -67.441394 -63.587486 -67.441394 C -58.712513 -67.441394 -56.275271 -70.814037 -56.275271 -77.55964 C -56.275271 -81.244213 -57.465829 -84.10706 -59.84663 -86.147746 C -62.170745 -88.188433 -65.486744 -89.208541 -69.79486 -89.208541 L -69.79486 -94.480571 C -61.462056 -95.1608 -57.295364 -98.760535 -57.295364 -105.27939 C -57.295364 -108.56717 -57.805677 -110.97583 -58.82602 -112.50634 C -59.846363 -114.09354 -61.235433 -114.88759 -62.992691 -114.88759 C -65.090063 -114.88759 -66.677128 -114.15071 -67.754157 -112.67688 C -68.7745 -111.20305 -69.284813 -109.41747 -69.284813 -107.3201 C -69.284813 -105.44947 -68.887788 -103.77718 -68.094188 -102.30335 C -69.681389 -100.60278 -71.722123 -99.752084 -74.216295 -99.752084 C -76.483724 -99.752084 -78.240722 -100.43233 -79.487808 -101.79279 C -80.734894 -103.15324 -81.358495 -104.91076 -81.358495 -107.06482 C -81.358495 -109.8991 -80.39503 -112.25164 -78.467715 -114.12227 C -76.483714 -116.04958 -74.045956 -117.46671 -71.154983 -118.37369 C -68.207325 -119.28066 -65.316414 -119.73381 -62.482128 -119.73381 z M -122.34256 -119.13901 L -119.53653 -117.86364 L -119.53653 -68.716769 C -118.4595 -68.093226 -116.75914 -67.526269 -114.43503 -67.016097 C -112.11091 -66.562611 -110.26869 -66.279392 -108.90823 -66.16602 L -109.163 -62.084615 L -143.85494 -62.084615 L -143.68492 -66.16602 C -138.63989 -66.732877 -134.785 -67.583054 -132.12077 -68.716769 L -132.12077 -109.44555 L -143.51439 -109.44555 L -143.51439 -114.37703 C -139.8865 -114.66046 -136.14542 -115.19935 -132.29079 -115.99295 C -128.43616 -116.84324 -125.12016 -117.89193 -122.34256 -119.13901 z M -94.198021 -101.28274 C -92.21402 -101.28274 -90.740243 -100.68772 -89.776586 -99.497319 C -88.756242 -98.363604 -88.24593 -96.776539 -88.24593 -94.735852 C -88.24593 -92.695166 -88.756242 -91.107584 -89.776586 -89.973869 C -90.740243 -88.840154 -92.21402 -88.273198 -94.198021 -88.273198 C -96.182022 -88.273198 -97.68438 -88.840154 -98.704723 -89.973869 C -99.66838 -91.16427 -100.15011 -92.751852 -100.15011 -94.735852 C -100.15011 -96.833225 -99.66838 -98.448354 -98.704723 -99.582068 C -97.68438 -100.71578 -96.182022 -101.28274 -94.198021 -101.28274 z M -94.198021 -74.498845 C -92.21402 -74.498845 -90.740243 -73.903824 -89.776586 -72.713424 C -88.756242 -71.579709 -88.24593 -69.992127 -88.24593 -67.951441 C -88.24593 -65.910754 -88.756242 -64.323689 -89.776586 -63.189974 C -90.740243 -62.05626 -92.21402 -61.489303 -94.198021 -61.489303 C -96.182022 -61.489303 -97.68438 -62.05626 -98.704723 -63.189974 C -99.66838 -64.380375 -100.15011 -65.96744 -100.15011 -67.951441 C -100.15011 -70.048813 -99.66838 -71.664459 -98.704723 -72.798173 C -97.68438 -73.931888 -96.182022 -74.498845 -94.198021 -74.498845 z " /></g></svg>
