<?xml version="1.0" encoding="UTF-8" standalone="no"?>
<!-- Created with Inkscape (http://www.inkscape.org/) -->

<svg
   width="172.6701mm"
   height="172.6701mm"
   viewBox="0 0 172.6701 172.6701"
   version="1.1"
   id="svg1"
   xml:space="preserve"
   xmlns="http://www.w3.org/2000/svg"
   xmlns:svg="http://www.w3.org/2000/svg"><defs
     id="defs1" /><g
     id="layer1"
     transform="translate(157.25102,198.81012)"><path
       id="path5"
       style="fill:#ffffff;fill-opacity:1;stroke-width:0.805188;stroke-linecap:round;stroke-linejoin:round"
       d="M -2.0863309 -198.17657 L -10.088943 -183.11289 L -10.930235 -165.68398 L -19.198981 -165.68398 L -11.423229 -155.47426 L -12.166336 -140.07934 C -28.353216 -157.12094 -50.823548 -166.77435 -74.327399 -166.78417 C -103.64471 -166.77397 -130.92652 -151.79225 -146.66717 -127.05894 L -157.25102 -127.05894 L -149.61996 -115.86014 L -157.25102 -26.140039 L -8.5138455 -26.140039 L 15.419061 -26.140039 L 8.0799737 -154.80195 L 15.419061 -165.68398 L 7.4593397 -165.68398 L 6.4490654 -183.39297 L -2.0863309 -198.17657 z M -83.43072 -192.21621 C -85.584619 -189.65499 -86.77489 -186.4211 -86.795372 -183.07465 C -86.842092 -175.15518 -80.459903 -168.69733 -72.540428 -168.65072 C -64.621155 -168.60402 -58.163395 -174.98588 -58.116503 -182.90515 C -58.102813 -186.26049 -59.266203 -189.5144 -61.404157 -192.10045 C -60.83125 -190.6836 -60.536835 -189.16959 -60.537027 -187.64129 C -60.575787 -181.07411 -65.930869 -175.78172 -72.498054 -175.82031 C -79.065241 -175.85911 -84.357627 -181.21415 -84.319038 -187.78134 C -84.309338 -189.30285 -84.007827 -190.80837 -83.43072 -192.21621 z M -59.973754 -119.73381 C -56.289181 -119.73381 -53.029826 -119.11073 -50.195539 -117.86364 C -47.361252 -116.67324 -45.150586 -114.97237 -43.563386 -112.76163 C -41.976185 -110.60757 -41.182652 -108.11368 -41.182652 -105.27939 C -41.182652 -102.10499 -42.118054 -99.384015 -43.988683 -97.116586 C -45.859312 -94.849156 -48.636935 -93.120223 -52.321507 -91.929822 C -47.673277 -90.909479 -44.413922 -89.237189 -42.543293 -86.913074 C -40.672664 -84.588959 -39.737263 -81.442892 -39.737263 -77.474891 C -39.737263 -74.017061 -40.785952 -71.069506 -42.883324 -68.632019 C -44.92401 -66.194533 -47.588345 -64.380375 -50.876118 -63.189974 C -54.16389 -61.999574 -57.564597 -61.404554 -61.079112 -61.404554 C -66.180829 -61.404554 -70.517453 -62.453243 -74.088654 -64.550615 C -77.60317 -66.647987 -79.360684 -69.510317 -79.360684 -73.138204 C -79.360684 -75.235577 -78.737083 -76.851222 -77.489997 -77.984937 C -76.242911 -79.175337 -74.683909 -79.770358 -72.81328 -79.770358 C -70.885965 -79.770358 -68.930455 -79.005405 -66.946455 -77.474891 C -67.456626 -76.397862 -67.711783 -75.094016 -67.711783 -73.563501 C -67.711783 -71.749558 -67.172889 -70.275781 -66.09586 -69.142066 C -64.962146 -68.008351 -63.289856 -67.441394 -61.079112 -67.441394 C -56.204139 -67.441394 -53.766897 -70.814037 -53.766897 -77.55964 C -53.766897 -81.244213 -54.957455 -84.10706 -57.338256 -86.147746 C -59.662371 -88.188433 -62.97837 -89.208541 -67.286485 -89.208541 L -67.286485 -94.480571 C -58.953682 -95.1608 -54.78699 -98.760535 -54.78699 -105.27939 C -54.78699 -108.56717 -55.297303 -110.97583 -56.317646 -112.50634 C -57.337989 -114.09354 -58.727059 -114.88759 -60.484317 -114.88759 C -62.581689 -114.88759 -64.168754 -114.15071 -65.245783 -112.67688 C -66.266126 -111.20305 -66.776439 -109.41747 -66.776439 -107.3201 C -66.776439 -105.44947 -66.379414 -103.77718 -65.585814 -102.30335 C -67.173015 -100.60278 -69.213749 -99.752084 -71.707921 -99.752084 C -73.97535 -99.752084 -75.732348 -100.43233 -76.979434 -101.79279 C -78.22652 -103.15324 -78.850121 -104.91076 -78.850121 -107.06482 C -78.850121 -109.8991 -77.886656 -112.25164 -75.959341 -114.12227 C -73.97534 -116.04958 -71.537582 -117.46671 -68.646609 -118.37369 C -65.698951 -119.28066 -62.80804 -119.73381 -59.973754 -119.73381 z M -119.83418 -119.13901 L -117.02815 -117.86364 L -117.02815 -68.716769 C -115.95112 -68.093226 -114.25077 -67.526269 -111.92665 -67.016097 C -109.60254 -66.562611 -107.76032 -66.279392 -106.39986 -66.16602 L -106.65463 -62.084615 L -141.34656 -62.084615 L -141.17655 -66.16602 C -136.13152 -66.732877 -132.27663 -67.583054 -129.6124 -68.716769 L -129.6124 -109.44555 L -141.00602 -109.44555 L -141.00602 -114.37703 C -137.37813 -114.66046 -133.63704 -115.19935 -129.78241 -115.99295 C -125.92778 -116.84324 -122.61178 -117.89193 -119.83418 -119.13901 z M -34.975796 -118.88373 L -30.809125 -118.88373 C -28.655068 -118.82705 -23.949999 -118.79847 -16.694225 -118.79847 C -9.155022 -118.79847 -4.2519577 -118.82705 -1.9845283 -118.88373 L 2.0968763 -118.88373 L 3.7975477 -115.22762 C 2.7205187 -113.52705 0.67978473 -109.84261 -2.3245592 -104.17404 C -5.3289032 -98.505463 -8.1631698 -92.496548 -10.827399 -86.147746 C -13.491629 -79.798944 -14.824055 -74.838719 -14.824055 -71.267517 C -14.824055 -68.433231 -13.83201 -66.307789 -11.848009 -64.890646 C -13.775324 -62.566531 -16.241146 -61.404554 -19.24549 -61.404554 C -22.023091 -61.404554 -24.177113 -62.169506 -25.707628 -63.700021 C -27.238143 -65.230536 -28.003095 -67.356494 -28.003095 -70.077409 C -28.003095 -73.478553 -27.181499 -77.077772 -25.537613 -80.875717 C -23.893726 -84.730347 -20.945655 -89.945728 -16.694225 -96.521273 L -6.6612454 -111.9963 L -26.047659 -111.9963 C -26.841259 -109.44544 -27.322992 -106.44124 -27.493049 -102.98341 C -28.513392 -102.81335 -29.562081 -102.72813 -30.63911 -102.72813 C -31.772825 -102.72813 -32.878158 -102.81335 -33.955187 -102.98341 L -36.33592 -117.60836 L -34.975796 -118.88373 z M -91.689647 -101.28274 C -89.705646 -101.28274 -88.231869 -100.68772 -87.268212 -99.497319 C -86.247868 -98.363604 -85.737556 -96.776539 -85.737556 -94.735852 C -85.737556 -92.695166 -86.247868 -91.107584 -87.268212 -89.973869 C -88.231869 -88.840154 -89.705646 -88.273198 -91.689647 -88.273198 C -93.673648 -88.273198 -95.176006 -88.840154 -96.196349 -89.973869 C -97.160006 -91.16427 -97.641739 -92.751852 -97.641739 -94.735852 C -97.641739 -96.833225 -97.160006 -98.448354 -96.196349 -99.582068 C -95.176006 -100.71578 -93.673648 -101.28274 -91.689647 -101.28274 z M -91.689647 -74.498845 C -89.705646 -74.498845 -88.231869 -73.903824 -87.268212 -72.713424 C -86.247868 -71.579709 -85.737556 -69.992127 -85.737556 -67.951441 C -85.737556 -65.910754 -86.247868 -64.323689 -87.268212 -63.189974 C -88.231869 -62.05626 -89.705646 -61.489303 -91.689647 -61.489303 C -93.673648 -61.489303 -95.176006 -62.05626 -96.196349 -63.189974 C -97.160006 -64.380375 -97.641739 -65.96744 -97.641739 -67.951441 C -97.641739 -70.048813 -97.160006 -71.664459 -96.196349 -72.798173 C -95.176006 -73.931888 -93.673648 -74.498845 -91.689647 -74.498845 z " /></g></svg>
