<?xml version="1.0" encoding="UTF-8" standalone="no"?>
<!-- Created with Inkscape (http://www.inkscape.org/) -->

<svg
   width="172.6701mm"
   height="172.6701mm"
   viewBox="0 0 172.6701 172.6701"
   version="1.1"
   id="svg1"
   xml:space="preserve"
   xmlns="http://www.w3.org/2000/svg"
   xmlns:svg="http://www.w3.org/2000/svg"><defs
     id="defs1" /><g
     id="layer1"
     transform="translate(157.25102,198.81012)"><path
       id="path5"
       style="fill:#ffffff;fill-opacity:1;stroke-width:0.805188;stroke-linecap:round;stroke-linejoin:round"
       d="M -2.0863309 -198.17657 L -10.088943 -183.11289 L -10.930235 -165.68398 L -19.198981 -165.68398 L -11.423229 -155.47426 L -12.166336 -140.07934 C -28.353216 -157.12094 -50.823548 -166.77435 -74.327399 -166.78417 C -103.64471 -166.77397 -130.92652 -151.79225 -146.66717 -127.05894 L -157.25102 -127.05894 L -149.61996 -115.86014 L -157.25102 -26.140039 L -8.5138455 -26.140039 L 15.419061 -26.140039 L 8.0799737 -154.80195 L 15.419061 -165.68398 L 7.4593397 -165.68398 L 6.4490654 -183.39297 L -2.0863309 -198.17657 z M -83.43072 -192.21621 C -85.584619 -189.65499 -86.77489 -186.4211 -86.795372 -183.07465 C -86.842092 -175.15518 -80.459903 -168.69733 -72.540428 -168.65072 C -64.621155 -168.60402 -58.163395 -174.98588 -58.116503 -182.90515 C -58.102813 -186.26049 -59.266203 -189.5144 -61.404157 -192.10045 C -60.83125 -190.6836 -60.536835 -189.16959 -60.537027 -187.64129 C -60.575787 -181.07411 -65.930869 -175.78172 -72.498054 -175.82031 C -79.065241 -175.85911 -84.357627 -181.21415 -84.319038 -187.78134 C -84.309338 -189.30285 -84.007827 -190.80837 -83.43072 -192.21621 z M -16.609475 -119.81908 C -10.657473 -119.81908 -5.9243409 -118.54381 -2.4098253 -115.99295 C 1.1046902 -113.44209 2.8622043 -110.01229 2.8622043 -105.70418 C 2.8622043 -103.38006 2.0120276 -101.05611 0.31145559 -98.731991 C -1.3891165 -96.407876 -3.6283628 -94.50901 -6.4059638 -93.035181 C -2.8914483 -91.334609 -0.14240598 -89.350519 1.8415947 -87.08309 C 3.8822812 -84.81566 4.9029066 -81.896169 4.9029066 -78.324968 C 4.9029066 -73.166566 3.0321046 -69.057034 -0.70915395 -65.996005 C -4.4504125 -62.991661 -9.4953451 -61.489303 -15.844147 -61.489303 C -22.816493 -61.489303 -28.201806 -62.878373 -31.99975 -65.655974 C -35.741009 -68.433575 -37.611294 -72.401238 -37.611294 -77.55964 C -37.611294 -80.223869 -36.761118 -82.86014 -35.060546 -85.467684 C -33.359974 -88.131914 -30.979376 -90.483931 -27.918346 -92.524618 C -30.469204 -93.941761 -32.453294 -95.642631 -33.870437 -97.626632 C -35.287581 -99.610633 -35.995889 -102.07646 -35.995889 -105.02411 C -35.995889 -109.55897 -34.238892 -113.15871 -30.724376 -115.82294 C -27.209861 -118.48717 -22.504792 -119.81908 -16.609475 -119.81908 z M -62.609768 -119.73381 C -58.925196 -119.73381 -55.665841 -119.11073 -52.831554 -117.86364 C -49.997267 -116.67324 -47.786601 -114.97237 -46.199401 -112.76163 C -44.6122 -110.60757 -43.818667 -108.11368 -43.818667 -105.27939 C -43.818667 -102.10499 -44.754068 -99.384015 -46.624698 -97.116586 C -48.495327 -94.849156 -51.272949 -93.120223 -54.957522 -91.929822 C -50.309292 -90.909479 -47.04942 -89.237189 -45.178791 -86.913074 C -43.308162 -84.588959 -42.373277 -81.442892 -42.373277 -77.474891 C -42.373277 -74.017061 -43.421966 -71.069506 -45.519339 -68.632019 C -47.560025 -66.194533 -50.223843 -64.380375 -53.511616 -63.189974 C -56.799388 -61.999574 -60.200612 -61.404554 -63.715127 -61.404554 C -68.816843 -61.404554 -73.153468 -62.453243 -76.724669 -64.550615 C -80.239185 -66.647987 -81.996182 -69.510317 -81.996182 -73.138204 C -81.996182 -75.235577 -81.372581 -76.851222 -80.125495 -77.984937 C -78.878409 -79.175337 -77.319924 -79.770358 -75.449295 -79.770358 C -73.52198 -79.770358 -71.565953 -79.005405 -69.581953 -77.474891 C -70.092124 -76.397862 -70.347281 -75.094016 -70.347281 -73.563501 C -70.347281 -71.749558 -69.808904 -70.275781 -68.731875 -69.142066 C -67.598161 -68.008351 -65.925871 -67.441394 -63.715127 -67.441394 C -58.840154 -67.441394 -56.402912 -70.814037 -56.402912 -77.55964 C -56.402912 -81.244213 -57.592953 -84.10706 -59.973754 -86.147746 C -62.297869 -88.188433 -65.614384 -89.208541 -69.9225 -89.208541 L -69.9225 -94.480571 C -61.589697 -95.1608 -57.423005 -98.760535 -57.423005 -105.27939 C -57.423005 -108.56717 -57.933318 -110.97583 -58.953661 -112.50634 C -59.974004 -114.09354 -61.362557 -114.88759 -63.119815 -114.88759 C -65.217187 -114.88759 -66.804769 -114.15071 -67.881798 -112.67688 C -68.902141 -111.20305 -69.411937 -109.41747 -69.411937 -107.3201 C -69.411937 -105.44947 -69.015429 -103.77718 -68.221829 -102.30335 C -69.80903 -100.60278 -71.849764 -99.752084 -74.343936 -99.752084 C -76.611365 -99.752084 -78.368363 -100.43233 -79.615449 -101.79279 C -80.862535 -103.15324 -81.486136 -104.91076 -81.486136 -107.06482 C -81.486136 -109.8991 -80.522671 -112.25164 -78.595356 -114.12227 C -76.611355 -116.04958 -74.173596 -117.46671 -71.282624 -118.37369 C -68.334966 -119.28066 -65.444055 -119.73381 -62.609768 -119.73381 z M -122.4702 -119.13901 L -119.66417 -117.86364 L -119.66417 -68.716769 C -118.58714 -68.093226 -116.88627 -67.526269 -114.56215 -67.016097 C -112.23804 -66.562611 -110.39582 -66.279392 -109.03536 -66.16602 L -109.29064 -62.084615 L -143.98206 -62.084615 L -143.81205 -66.16602 C -138.76702 -66.732877 -134.91264 -67.583054 -132.24841 -68.716769 L -132.24841 -109.44555 L -143.64203 -109.44555 L -143.64203 -114.37703 C -140.01414 -114.66046 -136.27306 -115.19935 -132.41843 -115.99295 C -128.5638 -116.84324 -125.2478 -117.89193 -122.4702 -119.13901 z M -16.609475 -113.78224 C -18.876905 -113.78224 -20.662482 -113.04535 -21.966254 -111.57152 C -23.270026 -110.15437 -23.921691 -108.22693 -23.921691 -105.78944 C -23.921691 -103.63538 -23.100094 -101.84981 -21.456208 -100.43266 C -19.755636 -99.072205 -17.289814 -97.711715 -14.058727 -96.351258 C -12.641583 -97.314915 -11.50767 -98.646824 -10.657384 -100.3474 C -9.8070979 -102.04797 -9.3820096 -103.86213 -9.3820096 -105.78944 C -9.3820096 -108.22693 -10.062254 -110.15437 -11.422712 -111.57152 C -12.726484 -113.04535 -14.455417 -113.78224 -16.609475 -113.78224 z M -94.325662 -101.28274 C -92.341661 -101.28274 -90.867884 -100.68772 -89.904226 -99.497319 C -88.883883 -98.363604 -88.37357 -96.776539 -88.37357 -94.735852 C -88.37357 -92.695166 -88.883883 -91.107584 -89.904226 -89.973869 C -90.867884 -88.840154 -92.341661 -88.273198 -94.325662 -88.273198 C -96.309663 -88.273198 -97.811504 -88.840154 -98.831847 -89.973869 C -99.795504 -91.16427 -100.27775 -92.751852 -100.27775 -94.735852 C -100.27775 -96.833225 -99.795504 -98.448354 -98.831847 -99.582068 C -97.811504 -100.71578 -96.309663 -101.28274 -94.325662 -101.28274 z M -20.095568 -89.038526 C -21.79614 -87.678068 -23.043341 -86.119583 -23.836941 -84.362325 C -24.630542 -82.605068 -25.027049 -80.50769 -25.027049 -78.070203 C -25.027049 -74.725745 -24.205453 -72.089474 -22.561567 -70.162159 C -20.917681 -68.291529 -18.678434 -67.356645 -15.844147 -67.356645 C -13.066546 -67.356645 -10.912524 -68.291529 -9.3820096 -70.162159 C -7.794809 -72.032788 -7.0012763 -74.640479 -7.0012763 -77.984937 C -7.0012763 -79.855566 -7.5962966 -81.442631 -8.7866971 -82.746403 C -9.9204118 -84.106861 -11.366125 -85.212194 -13.123383 -86.06248 C -14.880641 -86.969452 -17.204595 -87.961497 -20.095568 -89.038526 z M -94.325662 -74.498845 C -92.341661 -74.498845 -90.867884 -73.903824 -89.904226 -72.713424 C -88.883883 -71.579709 -88.37357 -69.992127 -88.37357 -67.951441 C -88.37357 -65.910754 -88.883883 -64.323689 -89.904226 -63.189974 C -90.867884 -62.05626 -92.341661 -61.489303 -94.325662 -61.489303 C -96.309663 -61.489303 -97.811504 -62.05626 -98.831847 -63.189974 C -99.795504 -64.380375 -100.27775 -65.96744 -100.27775 -67.951441 C -100.27775 -70.048813 -99.795504 -71.664459 -98.831847 -72.798173 C -97.811504 -73.931888 -96.309663 -74.498845 -94.325662 -74.498845 z " /></g></svg>
