<?xml version="1.0" encoding="UTF-8" standalone="no"?>
<!-- Created with Inkscape (http://www.inkscape.org/) -->

<svg
   width="172.6701mm"
   height="172.6701mm"
   viewBox="0 0 172.6701 172.6701"
   version="1.1"
   id="svg1"
   xml:space="preserve"
   xmlns="http://www.w3.org/2000/svg"
   xmlns:svg="http://www.w3.org/2000/svg"><defs
     id="defs1" /><g
     id="layer1"
     transform="translate(157.25102,198.81012)"><path
       id="path5"
       style="fill:#ffffff;fill-opacity:1;stroke-width:0.805188;stroke-linecap:round;stroke-linejoin:round"
       d="M -2.0863309 -198.17657 L -10.088943 -183.11289 L -10.930235 -165.68398 L -19.198981 -165.68398 L -11.423229 -155.47426 L -12.166336 -140.07934 C -28.353216 -157.12094 -50.823548 -166.77435 -74.327399 -166.78417 C -103.64471 -166.77397 -130.92652 -151.79225 -146.66717 -127.05894 L -157.25102 -127.05894 L -149.61996 -115.86014 L -157.25102 -26.140039 L -8.5138455 -26.140039 L 15.419061 -26.140039 L 8.0799737 -154.80195 L 15.419061 -165.68398 L 7.4593397 -165.68398 L 6.4490654 -183.39297 L -2.0863309 -198.17657 z M -83.43072 -192.21621 C -85.584619 -189.65499 -86.77489 -186.4211 -86.795372 -183.07465 C -86.842092 -175.15518 -80.459903 -168.69733 -72.540428 -168.65072 C -64.621155 -168.60402 -58.163395 -174.98588 -58.116503 -182.90515 C -58.102813 -186.26049 -59.266203 -189.5144 -61.404157 -192.10045 C -60.83125 -190.6836 -60.536835 -189.16959 -60.537027 -187.64129 C -60.575787 -181.07411 -65.930869 -175.78172 -72.498054 -175.82031 C -79.065241 -175.85911 -84.357627 -181.21415 -84.319038 -187.78134 C -84.309338 -189.30285 -84.007827 -190.80837 -83.43072 -192.21621 z M -61.674425 -119.73381 C -57.989852 -119.73381 -54.730497 -119.11073 -51.89621 -117.86364 C -49.061924 -116.67324 -46.851258 -114.97237 -45.264057 -112.76163 C -43.676857 -110.60757 -42.883324 -108.11368 -42.883324 -105.27939 C -42.883324 -102.10499 -43.818725 -99.384015 -45.689354 -97.116586 C -47.559983 -94.849156 -50.337606 -93.120223 -54.022179 -91.929822 C -49.373949 -90.909479 -46.114077 -89.237189 -44.243448 -86.913074 C -42.372818 -84.588959 -41.437934 -81.442892 -41.437934 -77.474891 C -41.437934 -74.017061 -42.486623 -71.069506 -44.583995 -68.632019 C -46.624682 -66.194533 -49.2885 -64.380375 -52.576272 -63.189974 C -55.864045 -61.999574 -59.265268 -61.404554 -62.779784 -61.404554 C -67.8815 -61.404554 -72.218124 -62.453243 -75.789326 -64.550615 C -79.303841 -66.647987 -81.060839 -69.510317 -81.060839 -73.138204 C -81.060839 -75.235577 -80.437755 -76.851222 -79.190668 -77.984937 C -77.943582 -79.175337 -76.384581 -79.770358 -74.513951 -79.770358 C -72.586636 -79.770358 -70.631127 -79.005405 -68.647126 -77.474891 C -69.157298 -76.397862 -69.411937 -75.094016 -69.411937 -73.563501 C -69.411937 -71.749558 -68.873561 -70.275781 -67.796532 -69.142066 C -66.662817 -68.008351 -64.990528 -67.441394 -62.779784 -67.441394 C -57.904811 -67.441394 -55.467569 -70.814037 -55.467569 -77.55964 C -55.467569 -81.244213 -56.657609 -84.10706 -59.03841 -86.147746 C -61.362525 -88.188433 -64.679041 -89.208541 -68.987157 -89.208541 L -68.987157 -94.480571 C -60.654354 -95.1608 -56.487661 -98.760535 -56.487661 -105.27939 C -56.487661 -108.56717 -56.997974 -110.97583 -58.018317 -112.50634 C -59.038661 -114.09354 -60.427214 -114.88759 -62.184471 -114.88759 C -64.281844 -114.88759 -65.869426 -114.15071 -66.946455 -112.67688 C -67.966798 -111.20305 -68.476594 -109.41747 -68.476594 -107.3201 C -68.476594 -105.44947 -68.080086 -103.77718 -67.286485 -102.30335 C -68.873686 -100.60278 -70.91442 -99.752084 -73.408592 -99.752084 C -75.676022 -99.752084 -77.433019 -100.43233 -78.680105 -101.79279 C -79.927191 -103.15324 -80.550792 -104.91076 -80.550792 -107.06482 C -80.550792 -109.8991 -79.587328 -112.25164 -77.660013 -114.12227 C -75.676012 -116.04958 -73.238253 -117.46671 -70.347281 -118.37369 C -67.399622 -119.28066 -64.508712 -119.73381 -61.674425 -119.73381 z M -16.779491 -119.56379 C -10.033888 -119.56379 -4.8756678 -117.69351 -1.3044665 -113.95225 C 2.3234206 -110.21099 4.1375786 -104.7971 4.1375786 -97.711381 C 4.1375786 -88.811721 1.359956 -81.216258 -4.1952461 -74.924142 C -9.6937624 -68.688711 -17.68625 -64.09693 -28.173111 -61.149272 L -30.213813 -65.400692 C -24.545239 -67.838179 -19.982039 -70.956182 -16.524209 -74.754126 C -13.066379 -78.608756 -10.771006 -83.086732 -9.6372912 -88.188448 C -12.811692 -86.601248 -15.901115 -85.807715 -18.905459 -85.807715 C -24.574033 -85.807715 -29.052009 -87.338137 -32.339781 -90.399166 C -35.570868 -93.460196 -37.186514 -97.598308 -37.186514 -102.8134 C -37.186514 -106.04448 -36.335821 -108.93539 -34.635249 -111.48625 C -32.877991 -114.03711 -30.469329 -116.0212 -27.408299 -117.43834 C -24.290584 -118.85549 -20.747492 -119.56379 -16.779491 -119.56379 z M -121.53485 -119.13901 L -118.72882 -117.86364 L -118.72882 -68.716769 C -117.65179 -68.093226 -115.95144 -67.526269 -113.62733 -67.016097 C -111.30321 -66.562611 -109.46047 -66.279392 -108.10001 -66.16602 L -108.3553 -62.084615 L -143.04724 -62.084615 L -142.8767 -66.16602 C -137.83167 -66.732877 -133.9773 -67.583054 -131.31307 -68.716769 L -131.31307 -109.44555 L -142.70669 -109.44555 L -142.70669 -114.37703 C -139.0788 -114.66046 -135.33771 -115.19935 -131.48308 -115.99295 C -127.62845 -116.84324 -124.31245 -117.89193 -121.53485 -119.13901 z M -17.289537 -113.69697 C -19.727024 -113.69697 -21.597826 -112.76157 -22.901598 -110.89094 C -24.20537 -109.02031 -24.857034 -106.35597 -24.857034 -102.89814 C -24.857034 -99.383629 -24.148726 -96.634587 -22.731582 -94.650586 C -21.257753 -92.723271 -19.188439 -91.759807 -16.524209 -91.759807 C -14.200094 -91.759807 -11.620984 -92.723271 -8.7866971 -94.650586 L -8.7866971 -95.755945 C -8.7866971 -101.93469 -9.4669418 -106.46931 -10.827399 -109.36028 C -12.187857 -112.25126 -14.341879 -113.69697 -17.289537 -113.69697 z M -93.390319 -101.28274 C -91.406318 -101.28274 -89.93254 -100.68772 -88.968883 -99.497319 C -87.94854 -98.363604 -87.438227 -96.776539 -87.438227 -94.735852 C -87.438227 -92.695166 -87.94854 -91.107584 -88.968883 -89.973869 C -89.93254 -88.840154 -91.406318 -88.273198 -93.390319 -88.273198 C -95.374319 -88.273198 -96.876677 -88.840154 -97.89702 -89.973869 C -98.860678 -91.16427 -99.34241 -92.751852 -99.34241 -94.735852 C -99.34241 -96.833225 -98.860678 -98.448354 -97.89702 -99.582068 C -96.876677 -100.71578 -95.374319 -101.28274 -93.390319 -101.28274 z M -93.390319 -74.498845 C -91.406318 -74.498845 -89.93254 -73.903824 -88.968883 -72.713424 C -87.94854 -71.579709 -87.438227 -69.992127 -87.438227 -67.951441 C -87.438227 -65.910754 -87.94854 -64.323689 -88.968883 -63.189974 C -89.93254 -62.05626 -91.406318 -61.489303 -93.390319 -61.489303 C -95.374319 -61.489303 -96.876677 -62.05626 -97.89702 -63.189974 C -98.860678 -64.380375 -99.34241 -65.96744 -99.34241 -67.951441 C -99.34241 -70.048813 -98.860678 -71.664459 -97.89702 -72.798173 C -96.876677 -73.931888 -95.374319 -74.498845 -93.390319 -74.498845 z " /></g></svg>
