<?xml version="1.0" encoding="UTF-8" standalone="no"?>
<!-- Created with Inkscape (http://www.inkscape.org/) -->

<svg
   width="172.6701mm"
   height="172.6701mm"
   viewBox="0 0 172.6701 172.6701"
   version="1.1"
   id="svg1"
   xml:space="preserve"
   xmlns="http://www.w3.org/2000/svg"
   xmlns:svg="http://www.w3.org/2000/svg"><defs
     id="defs1" /><g
     id="layer1"
     transform="translate(157.25102,198.81012)"><path
       id="path5"
       style="fill:#ffffff;fill-opacity:1;stroke-width:0.805188;stroke-linecap:round;stroke-linejoin:round"
       d="M -2.0863309 -198.17657 L -10.088943 -183.11289 L -10.930235 -165.68398 L -19.198981 -165.68398 L -11.423229 -155.47426 L -12.166336 -140.07934 C -28.353216 -157.12094 -50.823548 -166.77435 -74.327399 -166.78417 C -103.64471 -166.77397 -130.92652 -151.79225 -146.66717 -127.05894 L -157.25102 -127.05894 L -149.61996 -115.86014 L -157.25102 -26.140039 L -8.5138455 -26.140039 L 15.419061 -26.140039 L 8.0799737 -154.80195 L 15.419061 -165.68398 L 7.4593397 -165.68398 L 6.4490654 -183.39297 L -2.0863309 -198.17657 z M -83.43072 -192.21621 C -85.584619 -189.65499 -86.77489 -186.4211 -86.795372 -183.07465 C -86.842092 -175.15518 -80.459903 -168.69733 -72.540428 -168.65072 C -64.621155 -168.60402 -58.163395 -174.98588 -58.116503 -182.90515 C -58.102813 -186.26049 -59.266203 -189.5144 -61.404157 -192.10045 C -60.83125 -190.6836 -60.536835 -189.16959 -60.537027 -187.64129 C -60.575787 -181.07411 -65.930869 -175.78172 -72.498054 -175.82031 C -79.065241 -175.85911 -84.357627 -181.21415 -84.319038 -187.78134 C -84.309338 -189.30285 -84.007827 -190.80837 -83.43072 -192.21621 z M -61.504409 -120.07436 C -56.969551 -119.84761 -53.285107 -118.85557 -50.450821 -117.09831 L -70.687312 -83.767013 L -57.678286 -83.767013 L -56.827692 -97.626632 C -55.013749 -97.626632 -53.71042 -97.995076 -52.91682 -98.731991 C -52.066534 -99.468905 -51.414353 -100.71611 -50.960867 -102.47336 L -46.114134 -102.47336 L -46.199401 -83.341716 C -44.045343 -82.718173 -41.324364 -82.066508 -38.036591 -81.38628 L -38.461888 -77.304875 L -46.624698 -77.304875 L -46.624698 -62.084615 L -57.678286 -62.084615 L -57.678286 -77.304875 L -82.251464 -77.304875 L -82.931525 -80.36567 L -61.504409 -120.07436 z M -15.078819 -119.73381 C -9.2401888 -119.73381 -4.5922808 -118.28861 -1.134451 -115.39764 C 2.3233788 -112.56335 4.0523125 -108.56711 4.0523125 -103.40871 C 4.0523125 -98.873849 2.3233788 -94.026912 -1.134451 -88.86851 C -4.5922808 -83.766794 -10.288878 -77.616529 -18.224881 -70.41744 L 4.647625 -70.41744 L 4.647625 -62.084615 L -33.870437 -62.084615 L -33.870437 -67.016097 C -27.578321 -73.081471 -22.67474 -78.268272 -19.160224 -82.576388 C -15.645709 -86.884504 -13.123242 -90.852684 -11.592727 -94.480571 C -10.005527 -98.108458 -9.2119941 -101.84955 -9.2119941 -105.70418 C -9.2119941 -111.82623 -11.252728 -114.88759 -15.334101 -114.88759 C -17.148045 -114.88759 -18.621822 -114.0369 -19.755537 -112.33633 C -20.889251 -110.69244 -21.456208 -108.65171 -21.456208 -106.21422 C -21.456208 -104.51365 -20.860671 -102.89852 -19.67027 -101.36801 C -20.633928 -100.46103 -21.739261 -99.752209 -22.986347 -99.242037 C -24.176748 -98.731866 -25.367305 -98.476709 -26.557705 -98.476709 C -28.598392 -98.476709 -30.299262 -99.10031 -31.65972 -100.3474 C -33.020177 -101.65117 -33.700422 -103.52197 -33.700422 -105.95946 C -33.700422 -108.567 -32.934953 -110.91953 -31.404438 -113.01691 C -29.873923 -115.11428 -27.719901 -116.75799 -24.9423 -117.94839 C -22.108013 -119.13879 -18.820078 -119.73381 -15.078819 -119.73381 z M -122.30018 -119.13901 L -119.49415 -117.86364 L -119.49415 -68.716769 C -118.41712 -68.093226 -116.71625 -67.526269 -114.39214 -67.016097 C -112.06802 -66.562611 -110.2258 -66.279392 -108.86534 -66.16602 L -109.12062 -62.084615 L -143.81205 -62.084615 L -143.64203 -66.16602 C -138.597 -66.732877 -134.74263 -67.583054 -132.0784 -68.716769 L -132.0784 -109.44555 L -143.47202 -109.44555 L -143.47202 -114.37703 C -139.84413 -114.66046 -136.10304 -115.19935 -132.24841 -115.99295 C -128.39378 -116.84324 -125.07778 -117.89193 -122.30018 -119.13901 z M -94.155646 -101.28274 C -92.171646 -101.28274 -90.697868 -100.68772 -89.734211 -99.497319 C -88.713868 -98.363604 -88.203555 -96.776539 -88.203555 -94.735852 C -88.203555 -92.695166 -88.713868 -91.107584 -89.734211 -89.973869 C -90.697868 -88.840154 -92.171646 -88.273198 -94.155646 -88.273198 C -96.139647 -88.273198 -97.641488 -88.840154 -98.661831 -89.973869 C -99.625489 -91.16427 -100.10774 -92.751852 -100.10774 -94.735852 C -100.10774 -96.833225 -99.625489 -98.448354 -98.661831 -99.582068 C -97.641488 -100.71578 -96.139647 -101.28274 -94.155646 -101.28274 z M -94.155646 -74.498845 C -92.171646 -74.498845 -90.697868 -73.903824 -89.734211 -72.713424 C -88.713868 -71.579709 -88.203555 -69.992127 -88.203555 -67.951441 C -88.203555 -65.910754 -88.713868 -64.323689 -89.734211 -63.189974 C -90.697868 -62.05626 -92.171646 -61.489303 -94.155646 -61.489303 C -96.139647 -61.489303 -97.641488 -62.05626 -98.661831 -63.189974 C -99.625489 -64.380375 -100.10774 -65.96744 -100.10774 -67.951441 C -100.10774 -70.048813 -99.625489 -71.664459 -98.661831 -72.798173 C -97.641488 -73.931888 -96.139647 -74.498845 -94.155646 -74.498845 z " /></g></svg>
