<?xml version="1.0" encoding="UTF-8" standalone="no"?>
<!-- Created with Inkscape (http://www.inkscape.org/) -->

<svg
   width="172.6701mm"
   height="172.6701mm"
   viewBox="0 0 172.6701 172.6701"
   version="1.1"
   id="svg1"
   xml:space="preserve"
   xmlns="http://www.w3.org/2000/svg"
   xmlns:svg="http://www.w3.org/2000/svg"><defs
     id="defs1" /><g
     id="layer1"
     transform="translate(157.25102,198.81012)"><path
       id="path5"
       style="fill:#ffffff;fill-opacity:1;stroke-width:0.805188;stroke-linecap:round;stroke-linejoin:round"
       d="M -2.0863309 -198.17657 L -10.088943 -183.11289 L -10.930235 -165.68398 L -19.198981 -165.68398 L -11.423229 -155.47426 L -12.166336 -140.07934 C -28.353216 -157.12094 -50.823548 -166.77435 -74.327399 -166.78417 C -103.64471 -166.77397 -130.92652 -151.79225 -146.66717 -127.05894 L -157.25102 -127.05894 L -149.61996 -115.86014 L -157.25102 -26.140039 L -8.5138455 -26.140039 L 15.419061 -26.140039 L 8.0799737 -154.80195 L 15.419061 -165.68398 L 7.4593397 -165.68398 L 6.4490654 -183.39297 L -2.0863309 -198.17657 z M -83.43072 -192.21621 C -85.584619 -189.65499 -86.77489 -186.4211 -86.795372 -183.07465 C -86.842092 -175.15518 -80.459903 -168.69733 -72.540428 -168.65072 C -64.621155 -168.60402 -58.163395 -174.98588 -58.116503 -182.90515 C -58.102813 -186.26049 -59.266203 -189.5144 -61.404157 -192.10045 C -60.83125 -190.6836 -60.536835 -189.16959 -60.537027 -187.64129 C -60.575787 -181.07411 -65.930869 -175.78172 -72.498054 -175.82031 C -79.065241 -175.85911 -84.357627 -181.21415 -84.319038 -187.78134 C -84.309338 -189.30285 -84.007827 -190.80837 -83.43072 -192.21621 z M -61.546784 -120.07436 C -57.011925 -119.84761 -53.327482 -118.85557 -50.493195 -117.09831 L -70.730203 -83.767013 L -57.720661 -83.767013 L -56.870584 -97.626632 C -55.05664 -97.626632 -53.752795 -97.995076 -52.959195 -98.731991 C -52.108909 -99.468905 -51.456728 -100.71611 -51.003242 -102.47336 L -46.157026 -102.47336 L -46.241775 -83.341716 C -44.087717 -82.718173 -41.366739 -82.066508 -38.078966 -81.38628 L -38.504263 -77.304875 L -46.667072 -77.304875 L -46.667072 -62.084615 L -57.720661 -62.084615 L -57.720661 -77.304875 L -82.293838 -77.304875 L -82.974417 -80.36567 L -61.546784 -120.07436 z M -15.461742 -119.73381 C -11.777169 -119.73381 -8.5172973 -119.11073 -5.6830106 -117.86364 C -2.8487238 -116.67324 -0.63805782 -114.97237 0.94914276 -112.76163 C 2.5363433 -110.60757 3.329876 -108.11368 3.329876 -105.27939 C 3.329876 -102.10499 2.394475 -99.384015 0.52384572 -97.116586 C -1.3467835 -94.849156 -4.1244062 -93.120223 -7.808979 -91.929822 C -3.1607487 -90.909479 0.098606277 -89.237189 1.9692355 -86.913074 C 3.8398648 -84.588959 4.7752658 -81.442892 4.7752658 -77.474891 C 4.7752658 -74.017061 3.7265768 -71.069506 1.6292046 -68.632019 C -0.41148185 -66.194533 -3.0758165 -64.380375 -6.3635892 -63.189974 C -9.6513618 -61.999574 -13.052585 -61.404554 -16.567101 -61.404554 C -21.668817 -61.404554 -26.004924 -62.453243 -29.576126 -64.550615 C -33.090641 -66.647987 -34.848155 -69.510317 -34.848155 -73.138204 C -34.848155 -75.235577 -34.224555 -76.851222 -32.977469 -77.984937 C -31.730382 -79.175337 -30.171381 -79.770358 -28.300751 -79.770358 C -26.373436 -79.770358 -24.417927 -79.005405 -22.433926 -77.474891 C -22.944098 -76.397862 -23.199254 -75.094016 -23.199254 -73.563501 C -23.199254 -71.749558 -22.660361 -70.275781 -21.583332 -69.142066 C -20.449617 -68.008351 -18.777844 -67.441394 -16.567101 -67.441394 C -11.692128 -67.441394 -9.2543688 -70.814037 -9.2543688 -77.55964 C -9.2543688 -81.244213 -10.444926 -84.10706 -12.825727 -86.147746 C -15.149842 -88.188433 -18.465841 -89.208541 -22.773957 -89.208541 L -22.773957 -94.480571 C -14.441154 -95.1608 -10.274978 -98.760535 -10.274978 -105.27939 C -10.274978 -108.56717 -10.784774 -110.97583 -11.805117 -112.50634 C -12.825461 -114.09354 -14.21453 -114.88759 -15.971788 -114.88759 C -18.06916 -114.88759 -19.656226 -114.15071 -20.733255 -112.67688 C -21.753598 -111.20305 -22.263911 -109.41747 -22.263911 -107.3201 C -22.263911 -105.44947 -21.866886 -103.77718 -21.073286 -102.30335 C -22.660486 -100.60278 -24.70122 -99.752084 -27.195393 -99.752084 C -29.462822 -99.752084 -31.220336 -100.43233 -32.467422 -101.79279 C -33.714508 -103.15324 -34.338109 -104.91076 -34.338109 -107.06482 C -34.338109 -109.8991 -33.374128 -112.25164 -31.446813 -114.12227 C -29.462812 -116.04958 -27.02557 -117.46671 -24.134597 -118.37369 C -21.186939 -119.28066 -18.296029 -119.73381 -15.461742 -119.73381 z M -122.34256 -119.13901 L -119.53653 -117.86364 L -119.53653 -68.716769 C -118.4595 -68.093226 -116.75914 -67.526269 -114.43503 -67.016097 C -112.11091 -66.562611 -110.26869 -66.279392 -108.90823 -66.16602 L -109.163 -62.084615 L -143.85494 -62.084615 L -143.68492 -66.16602 C -138.63989 -66.732877 -134.785 -67.583054 -132.12077 -68.716769 L -132.12077 -109.44555 L -143.51439 -109.44555 L -143.51439 -114.37703 C -139.8865 -114.66046 -136.14542 -115.19935 -132.29079 -115.99295 C -128.43616 -116.84324 -125.12016 -117.89193 -122.34256 -119.13901 z M -94.198021 -101.28274 C -92.21402 -101.28274 -90.740243 -100.68772 -89.776586 -99.497319 C -88.756242 -98.363604 -88.24593 -96.776539 -88.24593 -94.735852 C -88.24593 -92.695166 -88.756242 -91.107584 -89.776586 -89.973869 C -90.740243 -88.840154 -92.21402 -88.273198 -94.198021 -88.273198 C -96.182022 -88.273198 -97.68438 -88.840154 -98.704723 -89.973869 C -99.66838 -91.16427 -100.15011 -92.751852 -100.15011 -94.735852 C -100.15011 -96.833225 -99.66838 -98.448354 -98.704723 -99.582068 C -97.68438 -100.71578 -96.182022 -101.28274 -94.198021 -101.28274 z M -94.198021 -74.498845 C -92.21402 -74.498845 -90.740243 -73.903824 -89.776586 -72.713424 C -88.756242 -71.579709 -88.24593 -69.992127 -88.24593 -67.951441 C -88.24593 -65.910754 -88.756242 -64.323689 -89.776586 -63.189974 C -90.740243 -62.05626 -92.21402 -61.489303 -94.198021 -61.489303 C -96.182022 -61.489303 -97.68438 -62.05626 -98.704723 -63.189974 C -99.66838 -64.380375 -100.15011 -65.96744 -100.15011 -67.951441 C -100.15011 -70.048813 -99.66838 -71.664459 -98.704723 -72.798173 C -97.68438 -73.931888 -96.182022 -74.498845 -94.198021 -74.498845 z " /></g></svg>
