<?xml version="1.0" encoding="UTF-8" standalone="no"?>
<!-- Created with Inkscape (http://www.inkscape.org/) -->

<svg
   width="172.6701mm"
   height="172.6701mm"
   viewBox="0 0 172.6701 172.6701"
   version="1.1"
   id="svg1"
   xml:space="preserve"
   xmlns="http://www.w3.org/2000/svg"
   xmlns:svg="http://www.w3.org/2000/svg"><defs
     id="defs1" /><g
     id="layer1"
     transform="translate(157.25102,198.81012)"><path
       id="path5"
       style="fill:#ffffff;fill-opacity:1;stroke-width:0.805188;stroke-linecap:round;stroke-linejoin:round"
       d="M -2.0863309 -198.17657 L -10.088943 -183.11289 L -10.930235 -165.68398 L -19.198981 -165.68398 L -11.423229 -155.47426 L -12.166336 -140.07934 C -28.353216 -157.12094 -50.823548 -166.77435 -74.327399 -166.78417 C -103.64471 -166.77397 -130.92652 -151.79225 -146.66717 -127.05894 L -157.25102 -127.05894 L -149.61996 -115.86014 L -157.25102 -26.140039 L -8.5138455 -26.140039 L 15.419061 -26.140039 L 8.0799737 -154.80195 L 15.419061 -165.68398 L 7.4593397 -165.68398 L 6.4490654 -183.39297 L -2.0863309 -198.17657 z M -83.43072 -192.21621 C -85.584619 -189.65499 -86.77489 -186.4211 -86.795372 -183.07465 C -86.842092 -175.15518 -80.459903 -168.69733 -72.540428 -168.65072 C -64.621155 -168.60402 -58.163395 -174.98588 -58.116503 -182.90515 C -58.102813 -186.26049 -59.266203 -189.5144 -61.404157 -192.10045 C -60.83125 -190.6836 -60.536835 -189.16959 -60.537027 -187.64129 C -60.575787 -181.07411 -65.930869 -175.78172 -72.498054 -175.82031 C -79.065241 -175.85911 -84.357627 -181.21415 -84.319038 -187.78134 C -84.309338 -189.30285 -84.007827 -190.80837 -83.43072 -192.21621 z M -63.460362 -120.07436 C -58.925504 -119.84761 -55.240544 -118.85557 -52.406257 -117.09831 L -72.643264 -83.767013 L -59.633723 -83.767013 L -58.783645 -97.626632 C -56.969702 -97.626632 -55.665856 -97.995076 -54.872256 -98.731991 C -54.02197 -99.468905 -53.370306 -100.71611 -52.91682 -102.47336 L -48.070087 -102.47336 L -48.154837 -83.341716 C -46.000779 -82.718173 -43.2798 -82.066508 -39.992027 -81.38628 L -40.417325 -77.304875 L -48.580134 -77.304875 L -48.580134 -62.084615 L -59.633723 -62.084615 L -59.633723 -77.304875 L -84.2069 -77.304875 L -84.887478 -80.36567 L -63.460362 -120.07436 z M -16.43946 -120.07436 C -11.904601 -119.84761 -8.2201578 -118.85557 -5.3858711 -117.09831 L -25.622362 -83.767013 L -12.61282 -83.767013 L -11.762743 -97.626632 C -9.9487993 -97.626632 -8.6449539 -97.995076 -7.8513537 -98.731991 C -7.0010676 -99.468905 -6.3494033 -100.71611 -5.8959175 -102.47336 L -1.0491849 -102.47336 L -1.134451 -83.341716 C 1.0196069 -82.718173 3.7405856 -82.066508 7.0283583 -81.38628 L 6.603578 -77.304875 L -1.5592313 -77.304875 L -1.5592313 -62.084615 L -12.61282 -62.084615 L -12.61282 -77.304875 L -37.186514 -77.304875 L -37.866576 -80.36567 L -16.43946 -120.07436 z M -124.25562 -119.13901 L -121.44959 -117.86364 L -121.44959 -68.716769 C -120.37256 -68.093226 -118.67221 -67.526269 -116.34809 -67.016097 C -114.02398 -66.562611 -112.18175 -66.279392 -110.8213 -66.16602 L -111.07606 -62.084615 L -145.768 -62.084615 L -145.59798 -66.16602 C -140.55295 -66.732877 -136.69806 -67.583054 -134.03383 -68.716769 L -134.03383 -109.44555 L -145.42797 -109.44555 L -145.42797 -114.37703 C -141.80008 -114.66046 -138.05848 -115.19935 -134.20385 -115.99295 C -130.34922 -116.84324 -127.03322 -117.89193 -124.25562 -119.13901 z M -96.111083 -101.28274 C -94.127082 -101.28274 -92.653305 -100.68772 -91.689647 -99.497319 C -90.669304 -98.363604 -90.158991 -96.776539 -90.158991 -94.735852 C -90.158991 -92.695166 -90.669304 -91.107584 -91.689647 -89.973869 C -92.653305 -88.840154 -94.127082 -88.273198 -96.111083 -88.273198 C -98.095083 -88.273198 -99.597441 -88.840154 -100.61778 -89.973869 C -101.58144 -91.16427 -102.06317 -92.751852 -102.06317 -94.735852 C -102.06317 -96.833225 -101.58144 -98.448354 -100.61778 -99.582068 C -99.597441 -100.71578 -98.095083 -101.28274 -96.111083 -101.28274 z M -96.111083 -74.498845 C -94.127082 -74.498845 -92.653305 -73.903824 -91.689647 -72.713424 C -90.669304 -71.579709 -90.158991 -69.992127 -90.158991 -67.951441 C -90.158991 -65.910754 -90.669304 -64.323689 -91.689647 -63.189974 C -92.653305 -62.05626 -94.127082 -61.489303 -96.111083 -61.489303 C -98.095083 -61.489303 -99.597441 -62.05626 -100.61778 -63.189974 C -101.58144 -64.380375 -102.06317 -65.96744 -102.06317 -67.951441 C -102.06317 -70.048813 -101.58144 -71.664459 -100.61778 -72.798173 C -99.597441 -73.931888 -98.095083 -74.498845 -96.111083 -74.498845 z " /></g></svg>
