<?xml version="1.0" encoding="UTF-8" standalone="no"?>
<!-- Created with Inkscape (http://www.inkscape.org/) -->

<svg
   width="172.6701mm"
   height="172.6701mm"
   viewBox="0 0 172.6701 172.6701"
   version="1.1"
   id="svg1"
   xml:space="preserve"
   xmlns="http://www.w3.org/2000/svg"
   xmlns:svg="http://www.w3.org/2000/svg"><defs
     id="defs1" /><g
     id="layer1"
     transform="translate(157.25102,198.81012)"><path
       id="path5"
       style="fill:#ffffff;fill-opacity:1;stroke-width:0.805188;stroke-linecap:round;stroke-linejoin:round"
       d="M -2.0863309 -198.17657 L -10.088943 -183.11289 L -10.930235 -165.68398 L -19.198981 -165.68398 L -11.423229 -155.47426 L -12.166336 -140.07934 C -28.353216 -157.12094 -50.823548 -166.77435 -74.327399 -166.78417 C -103.64471 -166.77397 -130.92652 -151.79225 -146.66717 -127.05894 L -157.25102 -127.05894 L -149.61996 -115.86014 L -157.25102 -26.140039 L -8.5138455 -26.140039 L 15.419061 -26.140039 L 8.0799737 -154.80195 L 15.419061 -165.68398 L 7.4593397 -165.68398 L 6.4490654 -183.39297 L -2.0863309 -198.17657 z M -83.43072 -192.21621 C -85.584619 -189.65499 -86.77489 -186.4211 -86.795372 -183.07465 C -86.842092 -175.15518 -80.459903 -168.69733 -72.540428 -168.65072 C -64.621155 -168.60402 -58.163395 -174.98588 -58.116503 -182.90515 C -58.102813 -186.26049 -59.266203 -189.5144 -61.404157 -192.10045 C -60.83125 -190.6836 -60.536835 -189.16959 -60.537027 -187.64129 C -60.575787 -181.07411 -65.930869 -175.78172 -72.498054 -175.82031 C -79.065241 -175.85911 -84.357627 -181.21415 -84.319038 -187.78134 C -84.309338 -189.30285 -84.007827 -190.80837 -83.43072 -192.21621 z M -60.951988 -120.07436 C -56.41713 -119.84761 -52.73217 -118.85557 -49.897883 -117.09831 L -70.13489 -83.767013 L -57.125349 -83.767013 L -56.275271 -97.626632 C -54.461328 -97.626632 -53.157482 -97.995076 -52.363882 -98.731991 C -51.513596 -99.468905 -50.861932 -100.71611 -50.408446 -102.47336 L -45.561713 -102.47336 L -45.646463 -83.341716 C -43.492405 -82.718173 -40.771426 -82.066508 -37.483653 -81.38628 L -37.908951 -77.304875 L -46.07176 -77.304875 L -46.07176 -62.084615 L -57.125349 -62.084615 L -57.125349 -77.304875 L -81.698526 -77.304875 L -82.379104 -80.36567 L -60.951988 -120.07436 z M -121.74724 -119.13901 L -118.94121 -117.86364 L -118.94121 -68.716769 C -117.86418 -68.093226 -116.16383 -67.526269 -113.83972 -67.016097 C -111.5156 -66.562611 -109.67338 -66.279392 -108.31292 -66.16602 L -108.56769 -62.084615 L -143.25963 -62.084615 L -143.08961 -66.16602 C -138.04458 -66.732877 -134.18969 -67.583054 -131.52546 -68.716769 L -131.52546 -109.44555 L -142.9196 -109.44555 L -142.9196 -114.37703 C -139.29171 -114.66046 -135.5501 -115.19935 -131.69547 -115.99295 C -127.84084 -116.84324 -124.52484 -117.89193 -121.74724 -119.13901 z M -33.062218 -118.88373 L -28.896064 -118.88373 C -26.742006 -118.82705 -22.036937 -118.79847 -14.781163 -118.79847 C -7.2419605 -118.79847 -2.3388962 -118.82705 -0.071466777 -118.88373 L 4.0099378 -118.88373 L 5.7106092 -115.22762 C 4.6335803 -113.52705 2.5928463 -109.84261 -0.4114977 -104.17404 C -3.4158417 -98.505463 -6.2501083 -92.496548 -8.9143379 -86.147746 C -11.578567 -79.798944 -12.910476 -74.838719 -12.910476 -71.267517 C -12.910476 -68.433231 -11.918431 -66.307789 -9.9344306 -64.890646 C -11.861746 -62.566531 -14.327568 -61.404554 -17.331912 -61.404554 C -20.109513 -61.404554 -22.264052 -62.169506 -23.794567 -63.700021 C -25.325081 -65.230536 -26.090034 -67.356494 -26.090034 -70.077409 C -26.090034 -73.478553 -25.267921 -77.077772 -23.624034 -80.875717 C -21.980148 -84.730347 -19.032593 -89.945728 -14.781163 -96.521273 L -4.7476671 -111.9963 L -24.134597 -111.9963 C -24.928198 -109.44544 -25.40993 -106.44124 -25.579987 -102.98341 C -26.600331 -102.81335 -27.64902 -102.72813 -28.726048 -102.72813 C -29.859763 -102.72813 -30.965096 -102.81335 -32.042125 -102.98341 L -34.422858 -117.60836 L -33.062218 -118.88373 z M -93.602709 -101.28274 C -91.618708 -101.28274 -90.144931 -100.68772 -89.181273 -99.497319 C -88.16093 -98.363604 -87.650617 -96.776539 -87.650617 -94.735852 C -87.650617 -92.695166 -88.16093 -91.107584 -89.181273 -89.973869 C -90.144931 -88.840154 -91.618708 -88.273198 -93.602709 -88.273198 C -95.586709 -88.273198 -97.089067 -88.840154 -98.10941 -89.973869 C -99.073068 -91.16427 -99.5548 -92.751852 -99.5548 -94.735852 C -99.5548 -96.833225 -99.073068 -98.448354 -98.10941 -99.582068 C -97.089067 -100.71578 -95.586709 -101.28274 -93.602709 -101.28274 z M -93.602709 -74.498845 C -91.618708 -74.498845 -90.144931 -73.903824 -89.181273 -72.713424 C -88.16093 -71.579709 -87.650617 -69.992127 -87.650617 -67.951441 C -87.650617 -65.910754 -88.16093 -64.323689 -89.181273 -63.189974 C -90.144931 -62.05626 -91.618708 -61.489303 -93.602709 -61.489303 C -95.586709 -61.489303 -97.089067 -62.05626 -98.10941 -63.189974 C -99.073068 -64.380375 -99.5548 -65.96744 -99.5548 -67.951441 C -99.5548 -70.048813 -99.073068 -71.664459 -98.10941 -72.798173 C -97.089067 -73.931888 -95.586709 -74.498845 -93.602709 -74.498845 z " /></g></svg>
