<?xml version="1.0" encoding="UTF-8" standalone="no"?>
<!-- Created with Inkscape (http://www.inkscape.org/) -->

<svg
   width="172.6701mm"
   height="172.6701mm"
   viewBox="0 0 172.6701 172.6701"
   version="1.1"
   id="svg1"
   xml:space="preserve"
   xmlns="http://www.w3.org/2000/svg"
   xmlns:svg="http://www.w3.org/2000/svg"><defs
     id="defs1" /><g
     id="layer1"
     transform="translate(157.25102,198.81012)"><path
       id="path5"
       style="fill:#ffffff;fill-opacity:1;stroke-width:0.805188;stroke-linecap:round;stroke-linejoin:round"
       d="M -2.0863309 -198.17657 L -10.088943 -183.11289 L -10.930235 -165.68398 L -19.198981 -165.68398 L -11.423229 -155.47426 L -12.166336 -140.07934 C -28.353216 -157.12094 -50.823548 -166.77435 -74.327399 -166.78417 C -103.64471 -166.77397 -130.92652 -151.79225 -146.66717 -127.05894 L -157.25102 -127.05894 L -149.61996 -115.86014 L -157.25102 -26.140039 L -8.5138455 -26.140039 L 15.419061 -26.140039 L 8.0799737 -154.80195 L 15.419061 -165.68398 L 7.4593397 -165.68398 L 6.4490654 -183.39297 L -2.0863309 -198.17657 z M -83.43072 -192.21621 C -85.584619 -189.65499 -86.77489 -186.4211 -86.795372 -183.07465 C -86.842092 -175.15518 -80.459903 -168.69733 -72.540428 -168.65072 C -64.621155 -168.60402 -58.163395 -174.98588 -58.116503 -182.90515 C -58.102813 -186.26049 -59.266203 -189.5144 -61.404157 -192.10045 C -60.83125 -190.6836 -60.536835 -189.16959 -60.537027 -187.64129 C -60.575787 -181.07411 -65.930869 -175.78172 -72.498054 -175.82031 C -79.065241 -175.85911 -84.357627 -181.21415 -84.319038 -187.78134 C -84.309338 -189.30285 -84.007827 -190.80837 -83.43072 -192.21621 z M -15.801773 -119.64906 C -9.1695418 -119.64906 -4.0960287 -117.15466 -0.58151316 -112.16631 C 2.9896881 -107.23465 4.7752658 -100.06428 4.7752658 -90.654448 C 4.7752658 -81.244616 2.9896881 -74.017081 -0.58151316 -68.97205 C -4.0960287 -63.983706 -9.1695418 -61.489303 -15.801773 -61.489303 C -22.434004 -61.489303 -27.53558 -63.983706 -31.106782 -68.97205 C -34.677983 -74.017081 -36.463561 -81.244616 -36.463561 -90.654448 C -36.463561 -100.00759 -34.677983 -107.17797 -31.106782 -112.16631 C -27.53558 -117.15466 -22.434004 -119.64906 -15.801773 -119.64906 z M -122.00253 -119.13901 L -119.1965 -117.86364 L -119.1965 -68.716769 C -118.11947 -68.093226 -116.41911 -67.526269 -114.095 -67.016097 C -111.77088 -66.562611 -109.92866 -66.279392 -108.5682 -66.16602 L -108.82297 -62.084615 L -143.51491 -62.084615 L -143.34489 -66.16602 C -138.29986 -66.732877 -134.44497 -67.583054 -131.78074 -68.716769 L -131.78074 -109.44555 L -143.17436 -109.44555 L -143.17436 -114.37703 C -139.54647 -114.66046 -135.80539 -115.19935 -131.95076 -115.99295 C -128.09613 -116.84324 -124.78013 -117.89193 -122.00253 -119.13901 z M -73.536233 -119.05375 L -69.284813 -118.969 C -63.276125 -118.85563 -60.101478 -118.79847 -59.761363 -118.79847 L -47.687165 -118.969 L -45.221682 -117.18306 L -45.98701 -110.72092 L -67.074095 -110.72092 L -68.264204 -96.521273 C -65.316545 -97.258188 -62.652211 -97.626632 -60.27141 -97.626632 C -54.659522 -97.626632 -50.096322 -96.124274 -46.581806 -93.11993 C -43.010605 -90.172272 -41.225027 -85.836165 -41.225027 -80.110905 C -41.225027 -76.539704 -42.075721 -73.336993 -43.776293 -70.502706 C -45.420179 -67.66842 -47.800777 -65.429173 -50.918492 -63.785287 C -54.036208 -62.198086 -57.720651 -61.404554 -61.972081 -61.404554 C -65.429911 -61.404554 -68.575978 -61.886286 -71.410265 -62.849943 C -74.187866 -63.813601 -76.370468 -65.14551 -77.957669 -66.846082 C -79.544869 -68.60334 -80.338402 -70.559366 -80.338402 -72.713424 C -80.338402 -74.980853 -79.714801 -76.709787 -78.467715 -77.900188 C -77.220629 -79.147274 -75.690208 -79.770358 -73.876264 -79.770358 C -72.855921 -79.770358 -71.835296 -79.572362 -70.814952 -79.175562 C -69.737923 -78.778762 -68.774459 -78.211805 -67.924173 -77.474891 C -68.434344 -76.28449 -68.689501 -75.037289 -68.689501 -73.733517 C -68.689501 -71.862888 -68.151124 -70.332466 -67.074095 -69.142066 C -65.940381 -67.951665 -64.239511 -67.356645 -61.972081 -67.356645 C -56.870365 -67.356645 -54.319835 -71.608045 -54.319835 -80.110905 C -54.319835 -84.135593 -55.113368 -87.054567 -56.700568 -88.86851 C -58.287769 -90.73914 -60.413211 -91.674541 -63.07744 -91.674541 C -64.721326 -91.674541 -66.47884 -91.36274 -68.34947 -90.739197 C -70.220099 -90.115654 -72.062321 -89.236897 -73.876264 -88.103182 L -78.552981 -92.609884 L -76.342263 -116.75776 L -73.536233 -119.05375 z M -15.801773 -115.31237 C -18.692745 -115.31237 -20.790123 -113.41351 -22.093895 -109.61556 C -23.340981 -105.81762 -23.964582 -99.497422 -23.964582 -90.654448 C -23.964582 -81.868159 -23.340981 -75.576025 -22.093895 -71.778081 C -20.790123 -68.036822 -18.692745 -66.16602 -15.801773 -66.16602 C -12.9108 -66.16602 -10.841486 -68.036822 -9.5943997 -71.778081 C -8.2906278 -75.576025 -7.6389635 -81.868159 -7.6389635 -90.654448 C -7.6389635 -99.440737 -8.2906278 -105.73287 -9.5943997 -109.53081 C -10.841486 -113.38544 -12.9108 -115.31237 -15.801773 -115.31237 z M -93.85799 -101.28274 C -91.873989 -101.28274 -90.400212 -100.68772 -89.436555 -99.497319 C -88.416211 -98.363604 -87.905899 -96.776539 -87.905899 -94.735852 C -87.905899 -92.695166 -88.416211 -91.107584 -89.436555 -89.973869 C -90.400212 -88.840154 -91.873989 -88.273198 -93.85799 -88.273198 C -95.841991 -88.273198 -97.344349 -88.840154 -98.364692 -89.973869 C -99.328349 -91.16427 -99.810082 -92.751852 -99.810082 -94.735852 C -99.810082 -96.833225 -99.328349 -98.448354 -98.364692 -99.582068 C -97.344349 -100.71578 -95.841991 -101.28274 -93.85799 -101.28274 z M -93.85799 -74.498845 C -91.873989 -74.498845 -90.400212 -73.903824 -89.436555 -72.713424 C -88.416211 -71.579709 -87.905899 -69.992127 -87.905899 -67.951441 C -87.905899 -65.910754 -88.416211 -64.323689 -89.436555 -63.189974 C -90.400212 -62.05626 -91.873989 -61.489303 -93.85799 -61.489303 C -95.841991 -61.489303 -97.344349 -62.05626 -98.364692 -63.189974 C -99.328349 -64.380375 -99.810082 -65.96744 -99.810082 -67.951441 C -99.810082 -70.048813 -99.328349 -71.664459 -98.364692 -72.798173 C -97.344349 -73.931888 -95.841991 -74.498845 -93.85799 -74.498845 z " /></g></svg>
