<?xml version="1.0" encoding="UTF-8" standalone="no"?>
<!-- Created with Inkscape (http://www.inkscape.org/) -->

<svg
   width="172.6701mm"
   height="172.6701mm"
   viewBox="0 0 172.6701 172.6701"
   version="1.1"
   id="svg1"
   xml:space="preserve"
   xmlns="http://www.w3.org/2000/svg"
   xmlns:svg="http://www.w3.org/2000/svg"><defs
     id="defs1" /><g
     id="layer1"
     transform="translate(157.25102,198.81012)"><path
       id="path5"
       style="fill:#ffffff;fill-opacity:1;stroke-width:0.805188;stroke-linecap:round;stroke-linejoin:round"
       d="M -2.0863309 -198.17657 L -10.088943 -183.11289 L -10.930235 -165.68398 L -19.198981 -165.68398 L -11.423229 -155.47426 L -12.166336 -140.07934 C -28.353216 -157.12094 -50.823548 -166.77435 -74.327399 -166.78417 C -103.64471 -166.77397 -130.92652 -151.79225 -146.66717 -127.05894 L -157.25102 -127.05894 L -149.61996 -115.86014 L -157.25102 -26.140039 L -8.5138455 -26.140039 L 15.419061 -26.140039 L 8.0799737 -154.80195 L 15.419061 -165.68398 L 7.4593397 -165.68398 L 6.4490654 -183.39297 L -2.0863309 -198.17657 z M -83.43072 -192.21621 C -85.584619 -189.65499 -86.77489 -186.4211 -86.795372 -183.07465 C -86.842092 -175.15518 -80.459903 -168.69733 -72.540428 -168.65072 C -64.621155 -168.60402 -58.163395 -174.98588 -58.116503 -182.90515 C -58.102813 -186.26049 -59.266203 -189.5144 -61.404157 -192.10045 C -60.83125 -190.6836 -60.536835 -189.16959 -60.537027 -187.64129 C -60.575787 -181.07411 -65.930869 -175.78172 -72.498054 -175.82031 C -79.065241 -175.85911 -84.357627 -181.21415 -84.319038 -187.78134 C -84.309338 -189.30285 -84.007827 -190.80837 -83.43072 -192.21621 z M -16.481835 -119.73381 C -10.643204 -119.73381 -5.9947792 -118.28861 -2.5369494 -115.39764 C 0.92088048 -112.56335 2.6498141 -108.56711 2.6498141 -103.40871 C 2.6498141 -98.873849 0.92088048 -94.026912 -2.5369494 -88.86851 C -5.9947792 -83.766794 -11.691893 -77.616529 -19.627896 -70.41744 L 3.2446099 -70.41744 L 3.2446099 -62.084615 L -35.272936 -62.084615 L -35.272936 -67.016097 C -28.980819 -73.081471 -24.077755 -78.268272 -20.563239 -82.576388 C -17.048724 -86.884504 -14.526257 -90.852684 -12.995742 -94.480571 C -11.408542 -98.108458 -10.615009 -101.84955 -10.615009 -105.70418 C -10.615009 -111.82623 -12.655743 -114.88759 -16.737116 -114.88759 C -18.55106 -114.88759 -20.024837 -114.0369 -21.158552 -112.33633 C -22.292266 -110.69244 -22.859223 -108.65171 -22.859223 -106.21422 C -22.859223 -104.51365 -22.263686 -102.89852 -21.073286 -101.36801 C -22.036943 -100.46103 -23.142276 -99.752209 -24.389362 -99.242037 C -25.579763 -98.731866 -26.77032 -98.476709 -27.960721 -98.476709 C -30.001407 -98.476709 -31.70176 -99.10031 -33.062218 -100.3474 C -34.422676 -101.65117 -35.10292 -103.52197 -35.10292 -105.95946 C -35.10292 -108.567 -34.337968 -110.91953 -32.807453 -113.01691 C -31.276938 -115.11428 -29.122916 -116.75799 -26.345315 -117.94839 C -23.511028 -119.13879 -20.223093 -119.73381 -16.481835 -119.73381 z M -120.89717 -119.13901 L -118.09114 -117.86364 L -118.09114 -68.716769 C -117.01411 -68.093226 -115.31375 -67.526269 -112.98964 -67.016097 C -110.66552 -66.562611 -108.82279 -66.279392 -107.46233 -66.16602 L -107.71761 -62.084615 L -142.40955 -62.084615 L -142.23902 -66.16602 C -137.19399 -66.732877 -133.33961 -67.583054 -130.67538 -68.716769 L -130.67538 -109.44555 L -142.069 -109.44555 L -142.069 -114.37703 C -138.44111 -114.66046 -134.70003 -115.19935 -130.8454 -115.99295 C -126.99077 -116.84324 -123.67477 -117.89193 -120.89717 -119.13901 z M -72.430874 -119.05375 L -68.179454 -118.969 C -62.170766 -118.85563 -58.996119 -118.79847 -58.656005 -118.79847 L -46.581806 -118.969 L -44.116324 -117.18306 L -44.881652 -110.72092 L -65.968736 -110.72092 L -67.158845 -96.521273 C -64.211186 -97.258188 -61.546852 -97.626632 -59.166051 -97.626632 C -53.554163 -97.626632 -48.990963 -96.124274 -45.476447 -93.11993 C -41.905246 -90.172272 -40.119668 -85.836165 -40.119668 -80.110905 C -40.119668 -76.539704 -40.970362 -73.336993 -42.670934 -70.502706 C -44.31482 -67.66842 -46.695418 -65.429173 -49.813133 -63.785287 C -52.930849 -62.198086 -56.615292 -61.404554 -60.866722 -61.404554 C -64.324552 -61.404554 -67.470619 -61.886286 -70.304906 -62.849943 C -73.082507 -63.813601 -75.265109 -65.14551 -76.85231 -66.846082 C -78.43951 -68.60334 -79.233043 -70.559366 -79.233043 -72.713424 C -79.233043 -74.980853 -78.609442 -76.709787 -77.362356 -77.900188 C -76.11527 -79.147274 -74.584849 -79.770358 -72.770905 -79.770358 C -71.750562 -79.770358 -70.729937 -79.572362 -69.709593 -79.175562 C -68.632564 -78.778762 -67.6691 -78.211805 -66.818814 -77.474891 C -67.328985 -76.28449 -67.584142 -75.037289 -67.584142 -73.733517 C -67.584142 -71.862888 -67.045765 -70.332466 -65.968736 -69.142066 C -64.835022 -67.951665 -63.134152 -67.356645 -60.866722 -67.356645 C -55.765006 -67.356645 -53.214476 -71.608045 -53.214476 -80.110905 C -53.214476 -84.135593 -54.008009 -87.054567 -55.595209 -88.86851 C -57.18241 -90.73914 -59.307852 -91.674541 -61.972081 -91.674541 C -63.615968 -91.674541 -65.373482 -91.36274 -67.244111 -90.739197 C -69.11474 -90.115654 -70.956962 -89.236897 -72.770905 -88.103182 L -77.447622 -92.609884 L -75.236388 -116.75776 L -72.430874 -119.05375 z M -92.752631 -101.28274 C -90.768631 -101.28274 -89.294853 -100.68772 -88.331196 -99.497319 C -87.310853 -98.363604 -86.80054 -96.776539 -86.80054 -94.735852 C -86.80054 -92.695166 -87.310853 -91.107584 -88.331196 -89.973869 C -89.294853 -88.840154 -90.768631 -88.273198 -92.752631 -88.273198 C -94.736632 -88.273198 -96.23899 -88.840154 -97.259333 -89.973869 C -98.22299 -91.16427 -98.704723 -92.751852 -98.704723 -94.735852 C -98.704723 -96.833225 -98.22299 -98.448354 -97.259333 -99.582068 C -96.23899 -100.71578 -94.736632 -101.28274 -92.752631 -101.28274 z M -92.752631 -74.498845 C -90.768631 -74.498845 -89.294853 -73.903824 -88.331196 -72.713424 C -87.310853 -71.579709 -86.80054 -69.992127 -86.80054 -67.951441 C -86.80054 -65.910754 -87.310853 -64.323689 -88.331196 -63.189974 C -89.294853 -62.05626 -90.768631 -61.489303 -92.752631 -61.489303 C -94.736632 -61.489303 -96.23899 -62.05626 -97.259333 -63.189974 C -98.22299 -64.380375 -98.704723 -65.96744 -98.704723 -67.951441 C -98.704723 -70.048813 -98.22299 -71.664459 -97.259333 -72.798173 C -96.23899 -73.931888 -94.736632 -74.498845 -92.752631 -74.498845 z " /></g></svg>
