<?xml version="1.0" encoding="UTF-8" standalone="no"?>
<!-- Created with Inkscape (http://www.inkscape.org/) -->

<svg
   width="172.6701mm"
   height="172.6701mm"
   viewBox="0 0 172.6701 172.6701"
   version="1.1"
   id="svg1"
   xml:space="preserve"
   xmlns="http://www.w3.org/2000/svg"
   xmlns:svg="http://www.w3.org/2000/svg"><defs
     id="defs1" /><g
     id="layer1"
     transform="translate(157.25102,198.81012)"><path
       id="path5"
       style="fill:#ffffff;fill-opacity:1;stroke-width:0.805188;stroke-linecap:round;stroke-linejoin:round"
       d="M -2.0863309 -198.17657 L -10.088943 -183.11289 L -10.930235 -165.68398 L -19.198981 -165.68398 L -11.423229 -155.47426 L -12.166336 -140.07934 C -28.353216 -157.12094 -50.823548 -166.77435 -74.327399 -166.78417 C -103.64471 -166.77397 -130.92652 -151.79225 -146.66717 -127.05894 L -157.25102 -127.05894 L -149.61996 -115.86014 L -157.25102 -26.140039 L -8.5138455 -26.140039 L 15.419061 -26.140039 L 8.0799737 -154.80195 L 15.419061 -165.68398 L 7.4593397 -165.68398 L 6.4490654 -183.39297 L -2.0863309 -198.17657 z M -83.43072 -192.21621 C -85.584619 -189.65499 -86.77489 -186.4211 -86.795372 -183.07465 C -86.842092 -175.15518 -80.459903 -168.69733 -72.540428 -168.65072 C -64.621155 -168.60402 -58.163395 -174.98588 -58.116503 -182.90515 C -58.102813 -186.26049 -59.266203 -189.5144 -61.404157 -192.10045 C -60.83125 -190.6836 -60.536835 -189.16959 -60.537027 -187.64129 C -60.575787 -181.07411 -65.930869 -175.78172 -72.498054 -175.82031 C -79.065241 -175.85911 -84.357627 -181.21415 -84.319038 -187.78134 C -84.309338 -189.30285 -84.007827 -190.80837 -83.43072 -192.21621 z M -17.842475 -120.07436 C -13.307616 -119.84761 -9.6226562 -118.85557 -6.7883694 -117.09831 L -27.025377 -83.767013 L -14.015835 -83.767013 L -13.165758 -97.626632 C -11.351814 -97.626632 -10.047969 -97.995076 -9.2543688 -98.731991 C -8.4040828 -99.468905 -7.7524185 -100.71611 -7.2989326 -102.47336 L -2.4522 -102.47336 L -2.5369494 -83.341716 C -0.38289143 -82.718173 2.3380872 -82.066508 5.6258599 -81.38628 L 5.2005628 -77.304875 L -2.9622464 -77.304875 L -2.9622464 -62.084615 L -14.015835 -62.084615 L -14.015835 -77.304875 L -38.589012 -77.304875 L -39.269591 -80.36567 L -17.842475 -120.07436 z M -122.8526 -119.13901 L -120.04657 -117.86364 L -120.04657 -68.716769 C -118.96954 -68.093226 -117.26919 -67.526269 -114.94508 -67.016097 C -112.62096 -66.562611 -110.77874 -66.279392 -109.41828 -66.16602 L -109.67305 -62.084615 L -144.36498 -62.084615 L -144.19497 -66.16602 C -139.14994 -66.732877 -135.29505 -67.583054 -132.63082 -68.716769 L -132.63082 -109.44555 L -144.02495 -109.44555 L -144.02495 -114.37703 C -140.39707 -114.66046 -136.65546 -115.19935 -132.80083 -115.99295 C -128.9462 -116.84324 -125.6302 -117.89193 -122.8526 -119.13901 z M -74.386311 -119.05375 L -70.13489 -118.969 C -64.126203 -118.85563 -60.952072 -118.79847 -60.611958 -118.79847 L -48.537759 -118.969 L -46.07176 -117.18306 L -46.837088 -110.72092 L -67.924173 -110.72092 L -69.114798 -96.521273 C -66.167139 -97.258188 -63.502805 -97.626632 -61.122004 -97.626632 C -55.510116 -97.626632 -50.946916 -96.124274 -47.4324 -93.11993 C -43.861199 -90.172272 -42.075621 -85.836165 -42.075621 -80.110905 C -42.075621 -76.539704 -42.925798 -73.336993 -44.62637 -70.502706 C -46.270256 -67.66842 -48.650854 -65.429173 -51.76857 -63.785287 C -54.886285 -62.198086 -58.571245 -61.404554 -62.822675 -61.404554 C -66.280505 -61.404554 -69.426572 -61.886286 -72.260859 -62.849943 C -75.03846 -63.813601 -77.220545 -65.14551 -78.807746 -66.846082 C -80.394947 -68.60334 -81.188479 -70.559366 -81.188479 -72.713424 C -81.188479 -74.980853 -80.564879 -76.709787 -79.317792 -77.900188 C -78.070706 -79.147274 -76.540285 -79.770358 -74.726341 -79.770358 C -73.705998 -79.770358 -72.68589 -79.572362 -71.665546 -79.175562 C -70.588517 -78.778762 -69.624536 -78.211805 -68.77425 -77.474891 C -69.284422 -76.28449 -69.539578 -75.037289 -69.539578 -73.733517 C -69.539578 -71.862888 -69.001202 -70.332466 -67.924173 -69.142066 C -66.790458 -67.951665 -65.090105 -67.356645 -62.822675 -67.356645 C -57.720959 -67.356645 -55.169912 -71.608045 -55.169912 -80.110905 C -55.169912 -84.135593 -55.963445 -87.054567 -57.550646 -88.86851 C -59.137846 -90.73914 -61.263805 -91.674541 -63.928034 -91.674541 C -65.57192 -91.674541 -67.328918 -91.36274 -69.199547 -90.739197 C -71.070176 -90.115654 -72.912398 -89.236897 -74.726341 -88.103182 L -79.403059 -92.609884 L -77.192341 -116.75776 L -74.386311 -119.05375 z M -94.708068 -101.28274 C -92.724067 -101.28274 -91.250289 -100.68772 -90.286632 -99.497319 C -89.266289 -98.363604 -88.755976 -96.776539 -88.755976 -94.735852 C -88.755976 -92.695166 -89.266289 -91.107584 -90.286632 -89.973869 C -91.250289 -88.840154 -92.724067 -88.273198 -94.708068 -88.273198 C -96.692068 -88.273198 -98.194426 -88.840154 -99.214769 -89.973869 C -100.17843 -91.16427 -100.66016 -92.751852 -100.66016 -94.735852 C -100.66016 -96.833225 -100.17843 -98.448354 -99.214769 -99.582068 C -98.194426 -100.71578 -96.692068 -101.28274 -94.708068 -101.28274 z M -94.708068 -74.498845 C -92.724067 -74.498845 -91.250289 -73.903824 -90.286632 -72.713424 C -89.266289 -71.579709 -88.755976 -69.992127 -88.755976 -67.951441 C -88.755976 -65.910754 -89.266289 -64.323689 -90.286632 -63.189974 C -91.250289 -62.05626 -92.724067 -61.489303 -94.708068 -61.489303 C -96.692068 -61.489303 -98.194426 -62.05626 -99.214769 -63.189974 C -100.17843 -64.380375 -100.66016 -65.96744 -100.66016 -67.951441 C -100.66016 -70.048813 -100.17843 -71.664459 -99.214769 -72.798173 C -98.194426 -73.931888 -96.692068 -74.498845 -94.708068 -74.498845 z " /></g></svg>
