<?xml version="1.0" encoding="UTF-8" standalone="no"?>
<!-- Created with Inkscape (http://www.inkscape.org/) -->

<svg
   width="172.6701mm"
   height="172.6701mm"
   viewBox="0 0 172.6701 172.6701"
   version="1.1"
   id="svg1"
   xml:space="preserve"
   xmlns="http://www.w3.org/2000/svg"
   xmlns:svg="http://www.w3.org/2000/svg"><defs
     id="defs1" /><g
     id="layer1"
     transform="translate(157.25102,198.81012)"><path
       id="path5"
       style="fill:#ffffff;fill-opacity:1;stroke-width:0.805188;stroke-linecap:round;stroke-linejoin:round"
       d="M -2.0863309 -198.17657 L -10.088943 -183.11289 L -10.930235 -165.68398 L -19.198981 -165.68398 L -11.423229 -155.47426 L -12.166336 -140.07934 C -28.353216 -157.12094 -50.823548 -166.77435 -74.327399 -166.78417 C -103.64471 -166.77397 -130.92652 -151.79225 -146.66717 -127.05894 L -157.25102 -127.05894 L -149.61996 -115.86014 L -157.25102 -26.140039 L -8.5138455 -26.140039 L 15.419061 -26.140039 L 8.0799737 -154.80195 L 15.419061 -165.68398 L 7.4593397 -165.68398 L 6.4490654 -183.39297 L -2.0863309 -198.17657 z M -83.43072 -192.21621 C -85.584619 -189.65499 -86.77489 -186.4211 -86.795372 -183.07465 C -86.842092 -175.15518 -80.459903 -168.69733 -72.540428 -168.65072 C -64.621155 -168.60402 -58.163395 -174.98588 -58.116503 -182.90515 C -58.102813 -186.26049 -59.266203 -189.5144 -61.404157 -192.10045 C -60.83125 -190.6836 -60.536835 -189.16959 -60.537027 -187.64129 C -60.575787 -181.07411 -65.930869 -175.78172 -72.498054 -175.82031 C -79.065241 -175.85911 -84.357627 -181.21415 -84.319038 -187.78134 C -84.309338 -189.30285 -84.007827 -190.80837 -83.43072 -192.21621 z M -121.44959 -119.13901 L -118.64407 -117.86364 L -118.64407 -68.716769 C -117.56705 -68.093226 -115.86618 -67.526269 -113.54206 -67.016097 C -111.21794 -66.562611 -109.37572 -66.279392 -108.01527 -66.16602 L -108.27055 -62.084615 L -142.96197 -62.084615 L -142.79195 -66.16602 C -137.74692 -66.732877 -133.89255 -67.583054 -131.22832 -68.716769 L -131.22832 -109.44555 L -142.62194 -109.44555 L -142.62194 -114.37703 C -138.99405 -114.66046 -135.25296 -115.19935 -131.39833 -115.99295 C -127.5437 -116.84324 -124.22719 -117.89193 -121.44959 -119.13901 z M -72.983295 -119.05375 L -68.731875 -118.969 C -62.723187 -118.85563 -59.549057 -118.79847 -59.208942 -118.79847 L -47.134744 -118.969 L -44.668745 -117.18306 L -45.434073 -110.72092 L -66.521158 -110.72092 L -67.711783 -96.521273 C -64.764124 -97.258188 -62.09979 -97.626632 -59.718989 -97.626632 C -54.107101 -97.626632 -49.543901 -96.124274 -46.029385 -93.11993 C -42.458184 -90.172272 -40.672606 -85.836165 -40.672606 -80.110905 C -40.672606 -76.539704 -41.522783 -73.336993 -43.223355 -70.502706 C -44.867241 -67.66842 -47.247839 -65.429173 -50.365555 -63.785287 C -53.48327 -62.198086 -57.16823 -61.404554 -61.41966 -61.404554 C -64.87749 -61.404554 -68.023557 -61.886286 -70.857844 -62.849943 C -73.635445 -63.813601 -75.81753 -65.14551 -77.404731 -66.846082 C -78.991932 -68.60334 -79.785464 -70.559366 -79.785464 -72.713424 C -79.785464 -74.980853 -79.16238 -76.709787 -77.915294 -77.900188 C -76.668208 -79.147274 -75.13727 -79.770358 -73.323326 -79.770358 C -72.302983 -79.770358 -71.282874 -79.572362 -70.262531 -79.175562 C -69.185502 -78.778762 -68.222038 -78.211805 -67.371752 -77.474891 C -67.881923 -76.28449 -68.136563 -75.037289 -68.136563 -73.733517 C -68.136563 -71.862888 -67.598186 -70.332466 -66.521158 -69.142066 C -65.387443 -67.951665 -63.68709 -67.356645 -61.41966 -67.356645 C -56.317944 -67.356645 -53.766897 -71.608045 -53.766897 -80.110905 C -53.766897 -84.135593 -54.56043 -87.054567 -56.147631 -88.86851 C -57.734831 -90.73914 -59.860789 -91.674541 -62.525019 -91.674541 C -64.168905 -91.674541 -65.925903 -91.36274 -67.796532 -90.739197 C -69.667161 -90.115654 -71.509383 -89.236897 -73.323326 -88.103182 L -78.000043 -92.609884 L -75.789326 -116.75776 L -72.983295 -119.05375 z M -28.768423 -119.05375 L -24.517003 -118.969 C -18.508315 -118.85563 -15.334185 -118.79847 -14.99407 -118.79847 L -2.9198717 -118.969 L -0.45387238 -117.18306 L -1.2192003 -110.72092 L -22.306285 -110.72092 L -23.49691 -96.521273 C -20.549252 -97.258188 -17.884917 -97.626632 -15.504117 -97.626632 C -9.8922287 -97.626632 -5.3290284 -96.124274 -1.8145128 -93.11993 C 1.7566885 -90.172272 3.5422661 -85.836165 3.5422661 -80.110905 C 3.5422661 -76.539704 2.6920895 -73.336993 0.99151743 -70.502706 C -0.65236888 -67.66842 -3.0329668 -65.429173 -6.1506823 -63.785287 C -9.2683977 -62.198086 -12.953358 -61.404554 -17.204788 -61.404554 C -20.662618 -61.404554 -23.808685 -61.886286 -26.642971 -62.849943 C -29.420573 -63.813601 -31.602658 -65.14551 -33.189859 -66.846082 C -34.777059 -68.60334 -35.570592 -70.559366 -35.570592 -72.713424 C -35.570592 -74.980853 -34.946991 -76.709787 -33.699905 -77.900188 C -32.452819 -79.147274 -30.922398 -79.770358 -29.108454 -79.770358 C -28.088111 -79.770358 -27.068002 -79.572362 -26.047659 -79.175562 C -24.97063 -78.778762 -24.006649 -78.211805 -23.156363 -77.474891 C -23.666534 -76.28449 -23.921691 -75.037289 -23.921691 -73.733517 C -23.921691 -71.862888 -23.383314 -70.332466 -22.306285 -69.142066 C -21.172571 -67.951665 -19.472217 -67.356645 -17.204788 -67.356645 C -12.103072 -67.356645 -9.552025 -71.608045 -9.552025 -80.110905 C -9.552025 -84.135593 -10.345558 -87.054567 -11.932758 -88.86851 C -13.519959 -90.73914 -15.645917 -91.674541 -18.310147 -91.674541 C -19.954033 -91.674541 -21.71103 -91.36274 -23.58166 -90.739197 C -25.452289 -90.115654 -27.294511 -89.236897 -29.108454 -88.103182 L -33.785171 -92.609884 L -31.574453 -116.75776 L -28.768423 -119.05375 z M -93.305052 -101.28274 C -91.321052 -101.28274 -89.847274 -100.68772 -88.883617 -99.497319 C -87.863274 -98.363604 -87.353478 -96.776539 -87.353478 -94.735852 C -87.353478 -92.695166 -87.863274 -91.107584 -88.883617 -89.973869 C -89.847274 -88.840154 -91.321052 -88.273198 -93.305052 -88.273198 C -95.289053 -88.273198 -96.791411 -88.840154 -97.811754 -89.973869 C -98.775412 -91.16427 -99.257144 -92.751852 -99.257144 -94.735852 C -99.257144 -96.833225 -98.775412 -98.448354 -97.811754 -99.582068 C -96.791411 -100.71578 -95.289053 -101.28274 -93.305052 -101.28274 z M -93.305052 -74.498845 C -91.321052 -74.498845 -89.847274 -73.903824 -88.883617 -72.713424 C -87.863274 -71.579709 -87.353478 -69.992127 -87.353478 -67.951441 C -87.353478 -65.910754 -87.863274 -64.323689 -88.883617 -63.189974 C -89.847274 -62.05626 -91.321052 -61.489303 -93.305052 -61.489303 C -95.289053 -61.489303 -96.791411 -62.05626 -97.811754 -63.189974 C -98.775412 -64.380375 -99.257144 -65.96744 -99.257144 -67.951441 C -99.257144 -70.048813 -98.775412 -71.664459 -97.811754 -72.798173 C -96.791411 -73.931888 -95.289053 -74.498845 -93.305052 -74.498845 z " /></g></svg>
