<?xml version="1.0" encoding="UTF-8" standalone="no"?>
<!-- Created with Inkscape (http://www.inkscape.org/) -->

<svg
   width="172.6701mm"
   height="172.6701mm"
   viewBox="0 0 172.6701 172.6701"
   version="1.1"
   id="svg1"
   xml:space="preserve"
   xmlns="http://www.w3.org/2000/svg"
   xmlns:svg="http://www.w3.org/2000/svg"><defs
     id="defs1" /><g
     id="layer1"
     transform="translate(157.25102,198.81012)"><path
       id="path5"
       style="fill:#ffffff;fill-opacity:1;stroke-width:0.805188;stroke-linecap:round;stroke-linejoin:round"
       d="M -2.0863309 -198.17657 L -10.088943 -183.11289 L -10.930235 -165.68398 L -19.198981 -165.68398 L -11.423229 -155.47426 L -12.166336 -140.07934 C -28.353216 -157.12094 -50.823548 -166.77435 -74.327399 -166.78417 C -103.64471 -166.77397 -130.92652 -151.79225 -146.66717 -127.05894 L -157.25102 -127.05894 L -149.61996 -115.86014 L -157.25102 -26.140039 L -8.5138455 -26.140039 L 15.419061 -26.140039 L 8.0799737 -154.80195 L 15.419061 -165.68398 L 7.4593397 -165.68398 L 6.4490654 -183.39297 L -2.0863309 -198.17657 z M -83.43072 -192.21621 C -85.584619 -189.65499 -86.77489 -186.4211 -86.795372 -183.07465 C -86.842092 -175.15518 -80.459903 -168.69733 -72.540428 -168.65072 C -64.621155 -168.60402 -58.163395 -174.98588 -58.116503 -182.90515 C -58.102813 -186.26049 -59.266203 -189.5144 -61.404157 -192.10045 C -60.83125 -190.6836 -60.536835 -189.16959 -60.537027 -187.64129 C -60.575787 -181.07411 -65.930869 -175.78172 -72.498054 -175.82031 C -79.065241 -175.85911 -84.357627 -181.21415 -84.319038 -187.78134 C -84.309338 -189.30285 -84.007827 -190.80837 -83.43072 -192.21621 z M -120.34423 -119.13901 L -117.5382 -117.86364 L -117.5382 -68.716769 C -116.46117 -68.093226 -114.76082 -67.526269 -112.4367 -67.016097 C -110.11259 -66.562611 -108.27036 -66.279392 -106.90991 -66.16602 L -107.16519 -62.084615 L -141.85661 -62.084615 L -141.6866 -66.16602 C -136.64156 -66.732877 -132.78667 -67.583054 -130.12244 -68.716769 L -130.12244 -109.44555 L -141.51658 -109.44555 L -141.51658 -114.37703 C -137.88869 -114.66046 -134.14709 -115.19935 -130.29246 -115.99295 C -126.43783 -116.84324 -123.12183 -117.89193 -120.34423 -119.13901 z M -71.877937 -119.05375 L -67.626516 -118.969 C -61.617829 -118.85563 -58.443698 -118.79847 -58.103583 -118.79847 L -46.029385 -118.969 L -43.563386 -117.18306 L -44.328714 -110.72092 L -65.415799 -110.72092 L -66.606424 -96.521273 C -63.658765 -97.258188 -60.994431 -97.626632 -58.61363 -97.626632 C -53.001742 -97.626632 -48.438542 -96.124274 -44.924026 -93.11993 C -41.352825 -90.172272 -39.567247 -85.836165 -39.567247 -80.110905 C -39.567247 -76.539704 -40.417424 -73.336993 -42.117996 -70.502706 C -43.761882 -67.66842 -46.14248 -65.429173 -49.260196 -63.785287 C -52.377911 -62.198086 -56.062871 -61.404554 -60.314301 -61.404554 C -63.772131 -61.404554 -66.918198 -61.886286 -69.752485 -62.849943 C -72.530086 -63.813601 -74.712171 -65.14551 -76.299372 -66.846082 C -77.886573 -68.60334 -78.680105 -70.559366 -78.680105 -72.713424 C -78.680105 -74.980853 -78.056505 -76.709787 -76.809418 -77.900188 C -75.562332 -79.147274 -74.031911 -79.770358 -72.217967 -79.770358 C -71.197624 -79.770358 -70.177516 -79.572362 -69.157172 -79.175562 C -68.080143 -78.778762 -67.116162 -78.211805 -66.265876 -77.474891 C -66.776048 -76.28449 -67.031204 -75.037289 -67.031204 -73.733517 C -67.031204 -71.862888 -66.492828 -70.332466 -65.415799 -69.142066 C -64.282084 -67.951665 -62.581731 -67.356645 -60.314301 -67.356645 C -55.212585 -67.356645 -52.661538 -71.608045 -52.661538 -80.110905 C -52.661538 -84.135593 -53.455071 -87.054567 -55.042272 -88.86851 C -56.629472 -90.73914 -58.755431 -91.674541 -61.41966 -91.674541 C -63.063546 -91.674541 -64.820544 -91.36274 -66.691173 -90.739197 C -68.561802 -90.115654 -70.404024 -89.236897 -72.217967 -88.103182 L -76.894685 -92.609884 L -74.683967 -116.75776 L -71.877937 -119.05375 z M -34.465233 -118.88373 L -30.299079 -118.88373 C -28.145021 -118.82705 -23.439952 -118.79847 -16.184178 -118.79847 C -8.6449756 -118.79847 -3.7419113 -118.82705 -1.4744819 -118.88373 L 2.6069227 -118.88373 L 4.3075941 -115.22762 C 3.2305651 -113.52705 1.1898311 -109.84261 -1.8145128 -104.17404 C -4.8188568 -98.505463 -7.6531235 -92.496548 -10.317353 -86.147746 C -12.981583 -79.798944 -14.313492 -74.838719 -14.313492 -71.267517 C -14.313492 -68.433231 -13.321447 -66.307789 -11.337446 -64.890646 C -13.264761 -62.566531 -15.730583 -61.404554 -18.734927 -61.404554 C -21.512528 -61.404554 -23.66655 -62.169506 -25.197065 -63.700021 C -26.72758 -65.230536 -27.493049 -67.356494 -27.493049 -70.077409 C -27.493049 -73.478553 -26.670936 -77.077772 -25.027049 -80.875717 C -23.383163 -84.730347 -20.435608 -89.945728 -16.184178 -96.521273 L -6.1506823 -111.9963 L -25.537613 -111.9963 C -26.331213 -109.44544 -26.812945 -106.44124 -26.983002 -102.98341 C -28.003346 -102.81335 -29.052035 -102.72813 -30.129064 -102.72813 C -31.262778 -102.72813 -32.368111 -102.81335 -33.44514 -102.98341 L -35.825874 -117.60836 L -34.465233 -118.88373 z M -92.199694 -101.28274 C -90.215693 -101.28274 -88.741915 -100.68772 -87.778258 -99.497319 C -86.757915 -98.363604 -86.248119 -96.776539 -86.248119 -94.735852 C -86.248119 -92.695166 -86.757915 -91.107584 -87.778258 -89.973869 C -88.741915 -88.840154 -90.215693 -88.273198 -92.199694 -88.273198 C -94.183694 -88.273198 -95.686052 -88.840154 -96.706395 -89.973869 C -97.670053 -91.16427 -98.151785 -92.751852 -98.151785 -94.735852 C -98.151785 -96.833225 -97.670053 -98.448354 -96.706395 -99.582068 C -95.686052 -100.71578 -94.183694 -101.28274 -92.199694 -101.28274 z M -92.199694 -74.498845 C -90.215693 -74.498845 -88.741915 -73.903824 -87.778258 -72.713424 C -86.757915 -71.579709 -86.248119 -69.992127 -86.248119 -67.951441 C -86.248119 -65.910754 -86.757915 -64.323689 -87.778258 -63.189974 C -88.741915 -62.05626 -90.215693 -61.489303 -92.199694 -61.489303 C -94.183694 -61.489303 -95.686052 -62.05626 -96.706395 -63.189974 C -97.670053 -64.380375 -98.151785 -65.96744 -98.151785 -67.951441 C -98.151785 -70.048813 -97.670053 -71.664459 -96.706395 -72.798173 C -95.686052 -73.931888 -94.183694 -74.498845 -92.199694 -74.498845 z " /></g></svg>
