<?xml version="1.0" encoding="UTF-8" standalone="no"?>
<!-- Created with Inkscape (http://www.inkscape.org/) -->

<svg
   width="172.6701mm"
   height="172.6701mm"
   viewBox="0 0 172.6701 172.6701"
   version="1.1"
   id="svg1"
   xml:space="preserve"
   xmlns="http://www.w3.org/2000/svg"
   xmlns:svg="http://www.w3.org/2000/svg"><defs
     id="defs1" /><g
     id="layer1"
     transform="translate(157.25102,198.81012)"><path
       id="path5"
       style="fill:#ffffff;fill-opacity:1;stroke-width:0.805188;stroke-linecap:round;stroke-linejoin:round"
       d="M -2.0863309 -198.17657 L -10.088943 -183.11289 L -10.930235 -165.68398 L -19.198981 -165.68398 L -11.423229 -155.47426 L -12.166336 -140.07934 C -28.353216 -157.12094 -50.823548 -166.77435 -74.327399 -166.78417 C -103.64471 -166.77397 -130.92652 -151.79225 -146.66717 -127.05894 L -157.25102 -127.05894 L -149.61996 -115.86014 L -157.25102 -26.140039 L -8.5138455 -26.140039 L 15.419061 -26.140039 L 8.0799737 -154.80195 L 15.419061 -165.68398 L 7.4593397 -165.68398 L 6.4490654 -183.39297 L -2.0863309 -198.17657 z M -83.43072 -192.21621 C -85.584619 -189.65499 -86.77489 -186.4211 -86.795372 -183.07465 C -86.842092 -175.15518 -80.459903 -168.69733 -72.540428 -168.65072 C -64.621155 -168.60402 -58.163395 -174.98588 -58.116503 -182.90515 C -58.102813 -186.26049 -59.266203 -189.5144 -61.404157 -192.10045 C -60.83125 -190.6836 -60.536835 -189.16959 -60.537027 -187.64129 C -60.575787 -181.07411 -65.930869 -175.78172 -72.498054 -175.82031 C -79.065241 -175.85911 -84.357627 -181.21415 -84.319038 -187.78134 C -84.309338 -189.30285 -84.007827 -190.80837 -83.43072 -192.21621 z M -107.84732 -133.25443 C -98.152889 -133.25443 -90.435052 -130.85399 -84.693692 -126.05384 C -78.952331 -121.3478 -76.081298 -114.71254 -76.081298 -106.14756 C -76.081298 -98.617906 -78.952331 -90.570344 -84.693692 -82.005363 C -90.435052 -73.534503 -99.893878 -63.322832 -113.07077 -51.369507 L -75.093244 -51.369507 L -75.093244 -37.533659 L -139.048 -37.533659 L -139.048 -45.722307 C -128.6006 -55.793218 -120.45913 -64.404768 -114.62365 -71.557939 C -108.78817 -78.71111 -104.59978 -85.299935 -102.05852 -91.323658 C -99.423145 -97.34738 -98.105793 -103.55901 -98.105793 -109.95921 C -98.105793 -120.12424 -101.49386 -125.20686 -108.27055 -125.20686 C -111.28241 -125.20686 -113.7298 -123.79508 -115.61222 -120.97146 C -117.49463 -118.24196 -118.43582 -114.85389 -118.43582 -110.80671 C -118.43582 -107.98309 -117.44768 -105.30039 -115.47114 -102.75914 C -117.07119 -101.2532 -118.90609 -100.07672 -120.97675 -99.229635 C -122.95328 -98.382549 -124.93008 -97.958912 -126.90662 -97.958912 C -130.29496 -97.958912 -133.11852 -98.994527 -135.37742 -101.06518 C -137.63632 -103.22996 -138.76584 -106.33577 -138.76584 -110.38296 C -138.76584 -114.71251 -137.49493 -118.61864 -134.95367 -122.10111 C -132.41241 -125.58357 -128.83601 -128.3127 -124.2241 -130.28924 C -119.51806 -132.26577 -114.05928 -133.25443 -107.84732 -133.25443 z M -33.303547 -133.11335 C -22.291429 -133.11335 -13.867702 -128.97193 -8.0322212 -120.68931 C -2.1026192 -112.50081 0.86232635 -100.59459 0.86232635 -84.970557 C 0.86232635 -69.346526 -2.1026192 -57.345876 -8.0322212 -48.969137 C -13.867702 -40.686518 -22.291429 -36.545089 -33.303547 -36.545089 C -44.315665 -36.545089 -52.786347 -40.686518 -58.715949 -48.969137 C -64.645551 -57.345876 -67.610497 -69.346526 -67.610497 -84.970557 C -67.610497 -100.50047 -64.645551 -112.40669 -58.715949 -120.68931 C -52.786347 -128.97193 -44.315665 -133.11335 -33.303547 -133.11335 z M -33.303547 -125.91276 C -38.103701 -125.91276 -41.586196 -122.75999 -43.750971 -116.45391 C -45.821626 -110.14782 -46.856725 -99.653381 -46.856725 -84.970557 C -46.856725 -70.381854 -45.821626 -59.934369 -43.750971 -53.628284 C -41.586196 -47.41632 -38.103701 -44.310507 -33.303547 -44.310507 C -28.503393 -44.310507 -25.067854 -47.41632 -22.997199 -53.628284 C -20.832424 -59.934369 -19.750369 -70.381854 -19.750369 -84.970557 C -19.750369 -99.55926 -20.832424 -110.00623 -22.997199 -116.31231 C -25.067854 -122.71252 -28.503393 -125.91276 -33.303547 -125.91276 z " /></g></svg>
