<?xml version="1.0" encoding="UTF-8" standalone="no"?>
<!-- Created with Inkscape (http://www.inkscape.org/) -->

<svg
   width="172.6701mm"
   height="172.6701mm"
   viewBox="0 0 172.6701 172.6701"
   version="1.1"
   id="svg1"
   xml:space="preserve"
   xmlns="http://www.w3.org/2000/svg"
   xmlns:svg="http://www.w3.org/2000/svg"><defs
     id="defs1" /><g
     id="layer1"
     transform="translate(157.25102,198.81012)"><path
       id="path5"
       style="fill:#ffffff;fill-opacity:1;stroke-width:0.805188;stroke-linecap:round;stroke-linejoin:round"
       d="M -2.0863309 -198.17657 L -10.088943 -183.11289 L -10.930235 -165.68398 L -19.198981 -165.68398 L -11.423229 -155.47426 L -12.166336 -140.07934 C -28.353216 -157.12094 -50.823548 -166.77435 -74.327399 -166.78417 C -103.64471 -166.77397 -130.92652 -151.79225 -146.66717 -127.05894 L -157.25102 -127.05894 L -149.61996 -115.86014 L -157.25102 -26.140039 L -8.5138455 -26.140039 L 15.419061 -26.140039 L 8.0799737 -154.80195 L 15.419061 -165.68398 L 7.4593397 -165.68398 L 6.4490654 -183.39297 L -2.0863309 -198.17657 z M -83.43072 -192.21621 C -85.584619 -189.65499 -86.77489 -186.4211 -86.795372 -183.07465 C -86.842092 -175.15518 -80.459903 -168.69733 -72.540428 -168.65072 C -64.621155 -168.60402 -58.163395 -174.98588 -58.116503 -182.90515 C -58.102813 -186.26049 -59.266203 -189.5144 -61.404157 -192.10045 C -60.83125 -190.6836 -60.536835 -189.16959 -60.537027 -187.64129 C -60.575787 -181.07411 -65.930869 -175.78172 -72.498054 -175.82031 C -79.065241 -175.85911 -84.357627 -181.21415 -84.319038 -187.78134 C -84.309338 -189.30285 -84.007827 -190.80837 -83.43072 -192.21621 z M -102.55255 -133.25443 C -92.858121 -133.25443 -85.140285 -130.85399 -79.398924 -126.05384 C -73.657564 -121.3478 -70.787047 -114.71254 -70.787047 -106.14756 C -70.787047 -98.617906 -73.657564 -90.570344 -79.398924 -82.005363 C -85.140285 -73.534503 -94.599627 -63.322832 -107.77652 -51.369507 L -69.798994 -51.369507 L -69.798994 -37.533659 L -133.75375 -37.533659 L -133.75375 -45.722307 C -123.30635 -55.793218 -115.16488 -64.404768 -109.3294 -71.557939 C -103.49392 -78.71111 -99.305531 -85.299935 -96.764273 -91.323658 C -94.128894 -97.34738 -92.811542 -103.55901 -92.811542 -109.95921 C -92.811542 -120.12424 -96.199609 -125.20686 -102.9763 -125.20686 C -105.98816 -125.20686 -108.43555 -123.79508 -110.31797 -120.97146 C -112.20038 -118.24196 -113.14157 -114.85389 -113.14157 -110.80671 C -113.14157 -107.98309 -112.15291 -105.30039 -110.17637 -102.75914 C -111.77643 -101.2532 -113.61184 -100.07672 -115.6825 -99.229635 C -117.65903 -98.382549 -119.63583 -97.958912 -121.61237 -97.958912 C -125.00071 -97.958912 -127.82427 -98.994527 -130.08317 -101.06518 C -132.34207 -103.22996 -133.47159 -106.33577 -133.47159 -110.38296 C -133.47159 -114.71251 -132.20068 -118.61864 -129.65942 -122.10111 C -127.11816 -125.58357 -123.54176 -128.3127 -118.92984 -130.28924 C -114.22381 -132.26577 -108.76451 -133.25443 -102.55255 -133.25443 z M -26.738573 -132.26586 L -22.079426 -130.14816 L -22.079426 -48.545907 C -20.291133 -47.51058 -17.467572 -46.569393 -13.608625 -45.722307 C -9.7496777 -44.969341 -6.6908201 -44.498748 -4.4319241 -44.310507 L -4.8556709 -37.533659 L -62.457323 -37.533659 L -62.17517 -44.310507 C -53.79843 -45.251713 -47.397946 -46.663494 -42.974274 -48.545907 L -42.974274 -116.17124 L -61.892499 -116.17124 L -61.892499 -124.35988 C -55.868777 -124.83049 -49.65715 -125.72472 -43.256944 -127.04241 C -36.856739 -128.45422 -31.350486 -130.19521 -26.738573 -132.26586 z " /></g></svg>
