<?xml version="1.0" encoding="UTF-8" standalone="no"?>
<!-- Created with Inkscape (http://www.inkscape.org/) -->

<svg
   width="172.6701mm"
   height="172.6701mm"
   viewBox="0 0 172.6701 172.6701"
   version="1.1"
   id="svg1"
   xml:space="preserve"
   xmlns="http://www.w3.org/2000/svg"
   xmlns:svg="http://www.w3.org/2000/svg"><defs
     id="defs1" /><g
     id="layer1"
     transform="translate(157.25102,198.81012)"><path
       id="path5"
       style="fill:#ffffff;fill-opacity:1;stroke-width:0.805188;stroke-linecap:round;stroke-linejoin:round"
       d="M -2.0863309 -198.17657 L -10.088943 -183.11289 L -10.930235 -165.68398 L -19.198981 -165.68398 L -11.423229 -155.47426 L -12.166336 -140.07934 C -28.353216 -157.12094 -50.823548 -166.77435 -74.327399 -166.78417 C -103.64471 -166.77397 -130.92652 -151.79225 -146.66717 -127.05894 L -157.25102 -127.05894 L -149.61996 -115.86014 L -157.25102 -26.140039 L -8.5138455 -26.140039 L 15.419061 -26.140039 L 8.0799737 -154.80195 L 15.419061 -165.68398 L 7.4593397 -165.68398 L 6.4490654 -183.39297 L -2.0863309 -198.17657 z M -83.43072 -192.21621 C -85.584619 -189.65499 -86.77489 -186.4211 -86.795372 -183.07465 C -86.842092 -175.15518 -80.459903 -168.69733 -72.540428 -168.65072 C -64.621155 -168.60402 -58.163395 -174.98588 -58.116503 -182.90515 C -58.102813 -186.26049 -59.266203 -189.5144 -61.404157 -192.10045 C -60.83125 -190.6836 -60.536835 -189.16959 -60.537027 -187.64129 C -60.575787 -181.07411 -65.930869 -175.78172 -72.498054 -175.82031 C -79.065241 -175.85911 -84.357627 -181.21415 -84.319038 -187.78134 C -84.309338 -189.30285 -84.007827 -190.80837 -83.43072 -192.21621 z M -112.71989 -130.68663 C -104.69557 -130.68663 -98.307432 -128.69999 -93.555166 -124.72679 C -88.8029 -120.83149 -86.426402 -115.3392 -86.426402 -108.24976 C -86.426402 -102.01728 -88.8029 -95.356443 -93.555166 -88.266997 C -98.307432 -81.255457 -106.13681 -72.8024 -117.04366 -62.908338 L -85.608365 -62.908338 L -85.608365 -51.456324 L -138.5457 -51.456324 L -138.5457 -58.234204 C -129.89814 -66.570147 -123.15902 -73.698606 -118.32885 -79.619462 C -113.49868 -85.540319 -110.03191 -90.99372 -107.92845 -95.979704 C -105.74708 -100.96569 -104.65681 -106.10751 -104.65681 -111.40512 C -104.65681 -119.81897 -107.46102 -124.02554 -113.07025 -124.02554 C -115.56325 -124.02554 -117.58877 -122.85699 -119.14689 -120.51981 C -120.70501 -118.26053 -121.48421 -115.45633 -121.48421 -112.10637 C -121.48421 -109.76919 -120.66612 -107.54874 -119.0301 -105.44528 C -120.3545 -104.19878 -121.87403 -103.22464 -123.58796 -102.52349 C -125.22398 -101.82234 -126.85964 -101.47188 -128.49567 -101.47188 C -131.30029 -101.47188 -133.63738 -102.32885 -135.50713 -104.04278 C -137.37687 -105.83462 -138.31212 -108.40553 -138.31212 -111.75549 C -138.31212 -115.33916 -137.26022 -118.57211 -135.15676 -121.45463 C -133.0533 -124.33716 -130.09304 -126.59649 -126.27565 -128.23252 C -122.38035 -129.86854 -117.86168 -130.68663 -112.71989 -130.68663 z M -49.966612 -129.86859 L -46.11 -128.11573 L -46.11 -60.57153 C -44.629786 -59.714563 -42.292688 -58.935358 -39.098542 -58.234204 C -35.904396 -57.610956 -33.372367 -57.221096 -31.502623 -57.065284 L -31.853506 -51.456324 L -79.531733 -51.456324 L -79.298155 -57.065284 C -72.364521 -57.844344 -67.067167 -59.013409 -63.405585 -60.57153 L -63.405585 -116.54692 L -79.064578 -116.54692 L -79.064578 -123.32481 C -74.078594 -123.71434 -68.936771 -124.45414 -63.639163 -125.54482 C -58.341555 -126.71341 -53.784006 -128.15466 -49.966612 -129.86859 z M -11.286286 -105.32849 C -8.5595761 -105.32849 -6.5340565 -104.5104 -5.2096544 -102.87437 C -3.8073464 -101.31625 -3.1059069 -99.134686 -3.1059069 -96.33007 C -3.1059069 -93.525454 -3.8073464 -91.344404 -5.2096544 -89.786284 C -6.5340565 -88.228164 -8.5595761 -87.448959 -11.286286 -87.448959 C -14.012996 -87.448959 -16.077399 -88.228164 -17.479707 -89.786284 C -18.804109 -91.42231 -19.466149 -93.60336 -19.466149 -96.33007 C -19.466149 -99.212592 -18.804109 -101.43304 -17.479707 -102.99116 C -16.077399 -104.54928 -14.012996 -105.32849 -11.286286 -105.32849 z M -11.286286 -68.517814 C -8.5595761 -68.517814 -6.5340565 -67.699727 -5.2096544 -66.063701 C -3.8073464 -64.505581 -3.1059069 -62.324013 -3.1059069 -59.519397 C -3.1059069 -56.714781 -3.8073464 -54.533731 -5.2096544 -52.975611 C -6.5340565 -51.417491 -8.5595761 -50.638286 -11.286286 -50.638286 C -14.012996 -50.638286 -16.077399 -51.417491 -17.479707 -52.975611 C -18.804109 -54.611637 -19.466149 -56.792687 -19.466149 -59.519397 C -19.466149 -62.401919 -18.804109 -64.622369 -17.479707 -66.180489 C -16.077399 -67.738609 -14.012996 -68.517814 -11.286286 -68.517814 z " /></g></svg>
