<?xml version="1.0" encoding="UTF-8" standalone="no"?>
<!-- Created with Inkscape (http://www.inkscape.org/) -->

<svg
   width="172.6701mm"
   height="172.6701mm"
   viewBox="0 0 172.6701 172.6701"
   version="1.1"
   id="svg1"
   xml:space="preserve"
   xmlns="http://www.w3.org/2000/svg"
   xmlns:svg="http://www.w3.org/2000/svg"><defs
     id="defs1" /><g
     id="layer1"
     transform="translate(157.25102,198.81012)"><path
       id="path5"
       style="fill:#ffffff;fill-opacity:1;stroke-width:0.805188;stroke-linecap:round;stroke-linejoin:round"
       d="M -2.0863309 -198.17657 L -10.088943 -183.11289 L -10.930235 -165.68398 L -19.198981 -165.68398 L -11.423229 -155.47426 L -12.166336 -140.07934 C -28.353216 -157.12094 -50.823548 -166.77435 -74.327399 -166.78417 C -103.64471 -166.77397 -130.92652 -151.79225 -146.66717 -127.05894 L -157.25102 -127.05894 L -149.61996 -115.86014 L -157.25102 -26.140039 L -8.5138455 -26.140039 L 15.419061 -26.140039 L 8.0799737 -154.80195 L 15.419061 -165.68398 L 7.4593397 -165.68398 L 6.4490654 -183.39297 L -2.0863309 -198.17657 z M -83.43072 -192.21621 C -85.584619 -189.65499 -86.77489 -186.4211 -86.795372 -183.07465 C -86.842092 -175.15518 -80.459903 -168.69733 -72.540428 -168.65072 C -64.621155 -168.60402 -58.163395 -174.98588 -58.116503 -182.90515 C -58.102813 -186.26049 -59.266203 -189.5144 -61.404157 -192.10045 C -60.83125 -190.6836 -60.536835 -189.16959 -60.537027 -187.64129 C -60.575787 -181.07411 -65.930869 -175.78172 -72.498054 -175.82031 C -79.065241 -175.85911 -84.357627 -181.21415 -84.319038 -187.78134 C -84.309338 -189.30285 -84.007827 -190.80837 -83.43072 -192.21621 z M -106.08205 -133.25443 C -96.387622 -133.25443 -88.669785 -130.85399 -82.928425 -126.05384 C -77.187064 -121.3478 -74.316547 -114.71254 -74.316547 -106.14756 C -74.316547 -98.617906 -77.187064 -90.570344 -82.928425 -82.005363 C -88.669785 -73.534503 -98.129128 -63.322832 -111.30602 -51.369507 L -73.328494 -51.369507 L -73.328494 -37.533659 L -137.28325 -37.533659 L -137.28325 -45.722307 C -126.83585 -55.793218 -118.69438 -64.404768 -112.8589 -71.557939 C -107.02342 -78.71111 -102.83503 -85.299935 -100.29377 -91.323658 C -97.658394 -97.34738 -96.340526 -103.55901 -96.340526 -109.95921 C -96.340526 -120.12424 -99.729109 -125.20686 -106.5058 -125.20686 C -109.51766 -125.20686 -111.96505 -123.79508 -113.84747 -120.97146 C -115.72988 -118.24196 -116.67107 -114.85389 -116.67107 -110.80671 C -116.67107 -107.98309 -115.68241 -105.30039 -113.70587 -102.75914 C -115.30593 -101.2532 -117.14134 -100.07672 -119.212 -99.229635 C -121.18853 -98.382549 -123.16533 -97.958912 -125.14187 -97.958912 C -128.53021 -97.958912 -131.35377 -98.994527 -133.61267 -101.06518 C -135.87157 -103.22996 -137.00109 -106.33577 -137.00109 -110.38296 C -137.00109 -114.71251 -135.73018 -118.61864 -133.18892 -122.10111 C -130.64766 -125.58357 -127.07126 -128.3127 -122.45935 -130.28924 C -117.75331 -132.26577 -112.29401 -133.25443 -106.08205 -133.25443 z M -35.068297 -133.25443 C -28.950454 -133.25443 -23.538629 -132.21882 -18.832596 -130.14816 C -14.126562 -128.17163 -10.455726 -125.34807 -7.8203478 -121.67736 C -5.1849691 -118.10078 -3.8671007 -113.95935 -3.8671007 -109.25331 C -3.8671007 -103.98256 -5.4202659 -99.464961 -8.5262479 -95.700135 C -11.63223 -91.935308 -16.244253 -89.064791 -22.362096 -87.088257 C -14.644201 -85.394085 -9.2318596 -82.61748 -6.1258776 -78.758533 C -3.0198956 -74.899586 -1.4672472 -69.675585 -1.4672472 -63.087138 C -1.4672472 -57.345778 -3.2082363 -52.451502 -6.690701 -48.404314 C -10.079045 -44.357125 -14.502727 -41.345223 -19.961726 -39.368689 C -25.420724 -37.392155 -31.067846 -36.404012 -36.903327 -36.404012 C -45.374187 -36.404012 -52.574474 -38.145518 -58.504076 -41.627983 C -64.339557 -45.110448 -67.257547 -49.863338 -67.257547 -55.887061 C -67.257547 -59.369526 -66.221931 -62.052218 -64.151276 -63.934632 C -62.080622 -65.911166 -59.492358 -66.899309 -56.386376 -66.899309 C -53.186273 -66.899309 -49.939075 -65.628396 -46.644851 -63.087138 C -47.491937 -61.298846 -47.915575 -59.134219 -47.915575 -56.592961 C -47.915575 -53.5811 -47.021344 -51.13422 -45.233051 -49.251807 C -43.350638 -47.369394 -40.574033 -46.428207 -36.903327 -46.428207 C -28.80895 -46.428207 -24.761949 -52.028372 -24.761949 -63.228732 C -24.761949 -69.346575 -26.738752 -74.099466 -30.69182 -77.48781 C -34.550767 -80.876154 -40.056504 -82.570187 -47.209675 -82.570187 L -47.209675 -91.323658 C -33.373937 -92.453106 -26.45642 -98.429436 -26.45642 -109.25331 C -26.45642 -114.71231 -27.303178 -118.71287 -28.99735 -121.25413 C -30.691522 -123.88951 -32.997533 -125.20686 -35.915274 -125.20686 C -39.397738 -125.20686 -42.032958 -123.98342 -43.821251 -121.53628 C -45.515423 -119.08915 -46.362698 -116.1242 -46.362698 -112.64174 C -46.362698 -109.53575 -45.703764 -106.75915 -44.386075 -104.31201 C -47.021453 -101.48839 -50.410036 -100.07661 -54.551346 -100.07661 C -58.316172 -100.07661 -61.233645 -101.20614 -63.3043 -103.46504 C -65.374954 -105.72393 -66.41057 -108.64192 -66.41057 -112.21851 C -66.41057 -116.92454 -64.810449 -120.83016 -61.610346 -123.93614 C -58.316123 -127.13624 -54.268606 -129.48921 -49.468452 -130.99514 C -44.574177 -132.50107 -39.77433 -133.25443 -35.068297 -133.25443 z " /></g></svg>
