<?xml version="1.0" encoding="UTF-8" standalone="no"?>
<!-- Created with Inkscape (http://www.inkscape.org/) -->

<svg
   width="172.6701mm"
   height="172.6701mm"
   viewBox="0 0 172.6701 172.6701"
   version="1.1"
   id="svg1"
   xml:space="preserve"
   xmlns="http://www.w3.org/2000/svg"
   xmlns:svg="http://www.w3.org/2000/svg"><defs
     id="defs1" /><g
     id="layer1"
     transform="translate(157.25102,198.81012)"><path
       id="path5"
       style="fill:#ffffff;fill-opacity:1;stroke-width:0.805188;stroke-linecap:round;stroke-linejoin:round"
       d="M -2.0863309 -198.17657 L -10.088943 -183.11289 L -10.930235 -165.68398 L -19.198981 -165.68398 L -11.423229 -155.47426 L -12.166336 -140.07934 C -28.353216 -157.12094 -50.823548 -166.77435 -74.327399 -166.78417 C -103.64471 -166.77397 -130.92652 -151.79225 -146.66717 -127.05894 L -157.25102 -127.05894 L -149.61996 -115.86014 L -157.25102 -26.140039 L -8.5138455 -26.140039 L 15.419061 -26.140039 L 8.0799737 -154.80195 L 15.419061 -165.68398 L 7.4593397 -165.68398 L 6.4490654 -183.39297 L -2.0863309 -198.17657 z M -83.43072 -192.21621 C -85.584619 -189.65499 -86.77489 -186.4211 -86.795372 -183.07465 C -86.842092 -175.15518 -80.459903 -168.69733 -72.540428 -168.65072 C -64.621155 -168.60402 -58.163395 -174.98588 -58.116503 -182.90515 C -58.102813 -186.26049 -59.266203 -189.5144 -61.404157 -192.10045 C -60.83125 -190.6836 -60.536835 -189.16959 -60.537027 -187.64129 C -60.575787 -181.07411 -65.930869 -175.78172 -72.498054 -175.82031 C -79.065241 -175.85911 -84.357627 -181.21415 -84.319038 -187.78134 C -84.309338 -189.30285 -84.007827 -190.80837 -83.43072 -192.21621 z M -115.64116 -130.68663 C -107.61684 -130.68663 -101.2287 -128.69999 -96.476435 -124.72679 C -91.724169 -120.83149 -89.348188 -115.3392 -89.348188 -108.24976 C -89.348188 -102.01728 -91.724169 -95.356443 -96.476435 -88.266997 C -101.2287 -81.255457 -109.05808 -72.8024 -119.96492 -62.908338 L -88.53015 -62.908338 L -88.53015 -51.456324 L -141.46697 -51.456324 L -141.46697 -58.234204 C -132.8194 -66.570147 -126.08081 -73.698606 -121.25063 -79.619462 C -116.42046 -85.540319 -112.9537 -90.99372 -110.85023 -95.979704 C -108.66887 -100.96569 -107.57808 -106.10751 -107.57808 -111.40512 C -107.57808 -119.81897 -110.38281 -124.02554 -115.99204 -124.02554 C -118.48503 -124.02554 -120.51055 -122.85699 -122.06867 -120.51981 C -123.62679 -118.26053 -124.40548 -115.45633 -124.40548 -112.10637 C -124.40548 -109.76919 -123.58791 -107.54874 -121.95188 -105.44528 C -123.27628 -104.19878 -124.7953 -103.22464 -126.50923 -102.52349 C -128.14525 -101.82234 -129.78143 -101.47188 -131.41745 -101.47188 C -134.22207 -101.47188 -136.55917 -102.32885 -138.42891 -104.04278 C -140.29866 -105.83462 -141.23339 -108.40553 -141.23339 -111.75549 C -141.23339 -115.33916 -140.18149 -118.57211 -138.07803 -121.45463 C -135.97457 -124.33716 -133.01431 -126.59649 -129.19692 -128.23252 C -125.30162 -129.86854 -120.78295 -130.68663 -115.64116 -130.68663 z M -56.861282 -130.68663 C -51.797392 -130.68663 -47.317609 -129.82966 -43.422309 -128.11573 C -39.527009 -126.4797 -36.488988 -124.1426 -34.30762 -121.10427 C -32.126252 -118.14384 -31.035468 -114.71596 -31.035468 -110.82066 C -31.035468 -106.45792 -32.320666 -102.71846 -34.891564 -99.602222 C -37.462462 -96.485982 -41.280204 -94.110001 -46.344095 -92.473975 C -39.955802 -91.071667 -35.47602 -88.773451 -32.905122 -85.579305 C -30.334224 -82.385159 -29.048509 -78.061424 -29.048509 -72.608004 C -29.048509 -67.855738 -30.490271 -63.804182 -33.372793 -60.454224 C -36.177409 -57.104266 -39.838588 -54.611637 -44.357136 -52.975611 C -48.875684 -51.339585 -53.550397 -50.521497 -58.380569 -50.521497 C -65.392109 -50.521497 -71.351503 -51.962742 -76.259581 -54.845264 C -81.089753 -57.727786 -83.505134 -61.662177 -83.505134 -66.648161 C -83.505134 -69.530683 -82.648163 -71.750617 -80.934231 -73.308737 C -79.220299 -74.944763 -77.077615 -75.76285 -74.506717 -75.76285 C -71.857913 -75.76285 -69.170353 -74.711466 -66.443643 -72.608004 C -67.144797 -71.12779 -67.495258 -69.335567 -67.495258 -67.232105 C -67.495258 -64.739113 -66.755453 -62.713593 -65.275239 -61.155473 C -63.717119 -59.597353 -61.418903 -58.818665 -58.380569 -58.818665 C -51.680653 -58.818665 -48.330537 -63.453979 -48.330537 -72.724793 C -48.330537 -77.788683 -49.966712 -81.722557 -53.238764 -84.527173 C -56.43291 -87.331789 -60.990459 -88.734152 -66.911315 -88.734152 L -66.911315 -95.979704 C -55.459132 -96.914576 -49.733035 -101.86147 -49.733035 -110.82066 C -49.733035 -115.33921 -50.433958 -118.65044 -51.836266 -120.7539 C -53.238574 -122.93527 -55.147445 -124.02554 -57.562531 -124.02554 C -60.445053 -124.02554 -62.626104 -123.01304 -64.106318 -120.98748 C -65.508626 -118.96192 -66.210065 -116.50766 -66.210065 -113.62514 C -66.210065 -111.05424 -65.664674 -108.75603 -64.57399 -106.73047 C -66.755358 -104.39329 -69.560082 -103.22474 -72.987946 -103.22474 C -76.104186 -103.22474 -78.51905 -104.15948 -80.232982 -106.02922 C -81.946914 -107.89896 -82.803885 -110.31434 -82.803885 -113.27477 C -82.803885 -117.17007 -81.479288 -120.40302 -78.830484 -122.97392 C -76.103774 -125.62273 -72.754174 -127.57048 -68.780968 -128.81698 C -64.729856 -130.06347 -60.756582 -130.68663 -56.861282 -130.68663 z M -8.3650174 -105.32849 C -5.6383074 -105.32849 -3.612271 -104.5104 -2.287869 -102.87437 C -0.88556094 -101.31625 -0.18463816 -99.134686 -0.18463816 -96.33007 C -0.18463816 -93.525454 -0.88556094 -91.344404 -2.287869 -89.786284 C -3.612271 -88.228164 -5.6383074 -87.448959 -8.3650174 -87.448959 C -11.091727 -87.448959 -13.15613 -88.228164 -14.558438 -89.786284 C -15.88284 -91.42231 -16.54488 -93.60336 -16.54488 -96.33007 C -16.54488 -99.212592 -15.88284 -101.43304 -14.558438 -102.99116 C -13.15613 -104.54928 -11.091727 -105.32849 -8.3650174 -105.32849 z M -8.3650174 -68.517814 C -5.6383074 -68.517814 -3.612271 -67.699727 -2.287869 -66.063701 C -0.88556094 -64.505581 -0.18463816 -62.324013 -0.18463816 -59.519397 C -0.18463816 -56.714781 -0.88556094 -54.533731 -2.287869 -52.975611 C -3.612271 -51.417491 -5.6383074 -50.638286 -8.3650174 -50.638286 C -11.091727 -50.638286 -13.15613 -51.417491 -14.558438 -52.975611 C -15.88284 -54.611637 -16.54488 -56.792687 -16.54488 -59.519397 C -16.54488 -62.401919 -15.88284 -64.622369 -14.558438 -66.180489 C -13.15613 -67.738609 -11.091727 -68.517814 -8.3650174 -68.517814 z " /></g></svg>
