<?xml version="1.0" encoding="UTF-8" standalone="no"?>
<!-- Created with Inkscape (http://www.inkscape.org/) -->

<svg
   width="172.6701mm"
   height="172.6701mm"
   viewBox="0 0 172.6701 172.6701"
   version="1.1"
   id="svg1"
   xml:space="preserve"
   xmlns="http://www.w3.org/2000/svg"
   xmlns:svg="http://www.w3.org/2000/svg"><defs
     id="defs1" /><g
     id="layer1"
     transform="translate(157.25102,198.81012)"><path
       id="path5"
       style="fill:#ffffff;fill-opacity:1;stroke-width:0.805188;stroke-linecap:round;stroke-linejoin:round"
       d="M -2.0863309 -198.17657 L -10.088943 -183.11289 L -10.930235 -165.68398 L -19.198981 -165.68398 L -11.423229 -155.47426 L -12.166336 -140.07934 C -28.353216 -157.12094 -50.823548 -166.77435 -74.327399 -166.78417 C -103.64471 -166.77397 -130.92652 -151.79225 -146.66717 -127.05894 L -157.25102 -127.05894 L -149.61996 -115.86014 L -157.25102 -26.140039 L -8.5138455 -26.140039 L 15.419061 -26.140039 L 8.0799737 -154.80195 L 15.419061 -165.68398 L 7.4593397 -165.68398 L 6.4490654 -183.39297 L -2.0863309 -198.17657 z M -83.43072 -192.21621 C -85.584619 -189.65499 -86.77489 -186.4211 -86.795372 -183.07465 C -86.842092 -175.15518 -80.459903 -168.69733 -72.540428 -168.65072 C -64.621155 -168.60402 -58.163395 -174.98588 -58.116503 -182.90515 C -58.102813 -186.26049 -59.266203 -189.5144 -61.404157 -192.10045 C -60.83125 -190.6836 -60.536835 -189.16959 -60.537027 -187.64129 C -60.575787 -181.07411 -65.930869 -175.78172 -72.498054 -175.82031 C -79.065241 -175.85911 -84.357627 -181.21415 -84.319038 -187.78134 C -84.309338 -189.30285 -84.007827 -190.80837 -83.43072 -192.21621 z M -106.92954 -133.25443 C -97.235115 -133.25443 -89.517279 -130.85399 -83.775918 -126.05384 C -78.034558 -121.3478 -75.163524 -114.71254 -75.163524 -106.14756 C -75.163524 -98.617906 -78.034558 -90.570344 -83.775918 -82.005363 C -89.517279 -73.534503 -98.976104 -63.322832 -112.153 -51.369507 L -74.175471 -51.369507 L -74.175471 -37.533659 L -138.13022 -37.533659 L -138.13022 -45.722307 C -127.68283 -55.793218 -119.54136 -64.404768 -113.70587 -71.557939 C -107.87039 -78.71111 -103.68252 -85.299935 -101.14127 -91.323658 C -98.505888 -97.34738 -97.18802 -103.55901 -97.18802 -109.95921 C -97.18802 -120.12424 -100.57609 -125.20686 -107.35277 -125.20686 C -110.36464 -125.20686 -112.81203 -123.79508 -114.69444 -120.97146 C -116.57686 -118.24196 -117.51804 -114.85389 -117.51804 -110.80671 C -117.51804 -107.98309 -116.5299 -105.30039 -114.55337 -102.75914 C -116.15342 -101.2532 -117.98884 -100.07672 -120.05949 -99.229635 C -122.03603 -98.382549 -124.01231 -97.958912 -125.98885 -97.958912 C -129.37719 -97.958912 -132.20075 -98.994527 -134.45965 -101.06518 C -136.71854 -103.22996 -137.84807 -106.33577 -137.84807 -110.38296 C -137.84807 -114.71251 -136.57767 -118.61864 -134.03642 -122.10111 C -131.49516 -125.58357 -127.91823 -128.3127 -123.30632 -130.28924 C -118.60029 -132.26577 -113.14151 -133.25443 -106.92954 -133.25443 z M -54.833499 -132.12478 L -47.774498 -131.98371 C -37.797708 -131.79547 -32.527267 -131.70104 -31.962543 -131.70104 L -11.914672 -131.98371 L -7.8203478 -129.01903 L -9.0910713 -118.28894 L -44.103921 -118.28894 L -46.080545 -94.712081 C -41.18627 -95.93565 -36.762588 -96.547111 -32.80952 -96.547111 C -23.491574 -96.547111 -15.914606 -94.053276 -10.079125 -89.064881 C -4.1495227 -84.170606 -1.1850939 -76.970319 -1.1850939 -67.464132 C -1.1850939 -61.53453 -2.5968743 -56.216617 -5.4204943 -51.510584 C -8.1499936 -46.804551 -12.103082 -43.086759 -17.279719 -40.357259 C -22.456355 -37.721881 -28.57407 -36.404012 -35.63312 -36.404012 C -41.374481 -36.404012 -46.597965 -37.204331 -51.303999 -38.804383 C -55.915911 -40.404434 -59.539791 -42.616017 -62.17517 -45.439637 C -64.810548 -48.357377 -66.1279 -51.604576 -66.1279 -55.181161 C -66.1279 -58.945988 -65.092801 -61.816504 -63.022146 -63.793038 C -60.951492 -65.863693 -58.410184 -66.899309 -55.398322 -66.899309 C -53.70415 -66.899309 -52.010117 -66.569583 -50.315945 -65.910738 C -48.527652 -65.251894 -46.927531 -64.310707 -45.515721 -63.087138 C -46.362807 -61.110604 -46.786445 -59.03989 -46.786445 -56.875114 C -46.786445 -53.769132 -45.892214 -51.228341 -44.103921 -49.251807 C -42.221508 -47.275273 -39.397947 -46.286613 -35.63312 -46.286613 C -27.16226 -46.286613 -22.926919 -53.346032 -22.926919 -67.464132 C -22.926919 -74.146699 -24.244271 -78.993502 -26.87965 -82.005363 C -29.515028 -85.111345 -33.044479 -86.66451 -37.468151 -86.66451 C -40.19765 -86.66451 -43.115639 -86.146961 -46.221621 -85.111634 C -49.327603 -84.076306 -52.386461 -82.61757 -55.398322 -80.735157 L -63.163223 -88.217387 L -59.492646 -128.31313 L -54.833499 -132.12478 z " /></g></svg>
