<?xml version="1.0" encoding="UTF-8" standalone="no"?>
<!-- Created with Inkscape (http://www.inkscape.org/) -->

<svg
   width="172.6701mm"
   height="172.6701mm"
   viewBox="0 0 172.6701 172.6701"
   version="1.1"
   id="svg1"
   xml:space="preserve"
   xmlns="http://www.w3.org/2000/svg"
   xmlns:svg="http://www.w3.org/2000/svg"><defs
     id="defs1" /><g
     id="layer1"
     transform="translate(157.25102,198.81012)"><path
       id="path5"
       style="fill:#ffffff;fill-opacity:1;stroke-width:0.805188;stroke-linecap:round;stroke-linejoin:round"
       d="M -2.0863309 -198.17657 L -10.088943 -183.11289 L -10.930235 -165.68398 L -19.198981 -165.68398 L -11.423229 -155.47426 L -12.166336 -140.07934 C -28.353216 -157.12094 -50.823548 -166.77435 -74.327399 -166.78417 C -103.64471 -166.77397 -130.92652 -151.79225 -146.66717 -127.05894 L -157.25102 -127.05894 L -149.61996 -115.86014 L -157.25102 -26.140039 L -8.5138455 -26.140039 L 15.419061 -26.140039 L 8.0799737 -154.80195 L 15.419061 -165.68398 L 7.4593397 -165.68398 L 6.4490654 -183.39297 L -2.0863309 -198.17657 z M -83.43072 -192.21621 C -85.584619 -189.65499 -86.77489 -186.4211 -86.795372 -183.07465 C -86.842092 -175.15518 -80.459903 -168.69733 -72.540428 -168.65072 C -64.621155 -168.60402 -58.163395 -174.98588 -58.116503 -182.90515 C -58.102813 -186.26049 -59.266203 -189.5144 -61.404157 -192.10045 C -60.83125 -190.6836 -60.536835 -189.16959 -60.537027 -187.64129 C -60.575787 -181.07411 -65.930869 -175.78172 -72.498054 -175.82031 C -79.065241 -175.85911 -84.357627 -181.21415 -84.319038 -187.78134 C -84.309338 -189.30285 -84.007827 -190.80837 -83.43072 -192.21621 z M -14.173448 -133.53658 L -10.785025 -126.47758 C -29.797399 -118.28909 -41.233027 -105.67697 -45.091975 -88.641134 C -39.632976 -91.276513 -34.456448 -92.594381 -29.562173 -92.594381 C -20.150107 -92.594381 -12.761479 -90.053073 -7.3966011 -84.970557 C -1.9376024 -79.888041 0.79152964 -73.016963 0.79152964 -64.357862 C 0.79152964 -58.992984 -0.66720675 -54.193137 -3.5849474 -49.957707 C -6.4085674 -45.722277 -10.408612 -42.427606 -15.585249 -40.074589 C -20.667765 -37.721573 -26.503227 -36.545089 -33.091673 -36.545089 C -44.292033 -36.545089 -52.9041 -39.651419 -58.927823 -45.863383 C -64.857425 -52.075347 -67.82237 -61.063579 -67.82237 -72.828662 C -67.82237 -87.605607 -63.257303 -100.17076 -54.127599 -110.52404 C -44.903773 -120.97143 -31.585772 -128.64231 -14.173448 -133.53658 z M -108.20027 -133.25443 C -98.505839 -133.25443 -90.787486 -130.85399 -85.046125 -126.05384 C -79.304764 -121.3478 -76.434248 -114.71254 -76.434248 -106.14756 C -76.434248 -98.617906 -79.304764 -90.570344 -85.046125 -82.005363 C -90.787486 -73.534503 -100.24683 -63.322832 -113.42372 -51.369507 L -75.446194 -51.369507 L -75.446194 -37.533659 L -139.40095 -37.533659 L -139.40095 -45.722307 C -128.95355 -55.793218 -120.81208 -64.404768 -114.9766 -71.557939 C -109.14112 -78.71111 -104.95273 -85.299935 -102.41147 -91.323658 C -99.776095 -97.34738 -98.458743 -103.55901 -98.458743 -109.95921 C -98.458743 -120.12424 -101.84681 -125.20686 -108.6235 -125.20686 C -111.63536 -125.20686 -114.08275 -123.79508 -115.96517 -120.97146 C -117.84758 -118.24196 -118.78877 -114.85389 -118.78877 -110.80671 C -118.78877 -107.98309 -117.80011 -105.30039 -115.82357 -102.75914 C -117.42363 -101.2532 -119.25904 -100.07672 -121.3297 -99.229635 C -123.30623 -98.382549 -125.28303 -97.958912 -127.25957 -97.958912 C -130.64791 -97.958912 -133.47147 -98.994527 -135.73037 -101.06518 C -137.98927 -103.22996 -139.11879 -106.33577 -139.11879 -110.38296 C -139.11879 -114.71251 -137.84788 -118.61864 -135.30662 -122.10111 C -132.76537 -125.58357 -129.18896 -128.3127 -124.57705 -130.28924 C -119.87101 -132.26577 -114.41223 -133.25443 -108.20027 -133.25443 z M -33.51542 -82.711263 C -37.468488 -82.711263 -41.750785 -81.111659 -46.362698 -77.911556 L -46.362698 -76.076009 C -46.362698 -65.816857 -45.23317 -58.287361 -42.974274 -53.487207 C -40.715378 -48.687053 -37.138971 -46.286613 -32.244697 -46.286613 C -28.197508 -46.286613 -25.091695 -47.839778 -22.926919 -50.94576 C -20.762144 -54.051742 -19.679572 -58.475424 -19.679572 -64.216785 C -19.679572 -70.052266 -20.903012 -74.56986 -23.350149 -77.769963 C -25.703166 -81.064186 -29.091749 -82.711263 -33.51542 -82.711263 z " /></g></svg>
