<?xml version="1.0" encoding="UTF-8" standalone="no"?>
<!-- Created with Inkscape (http://www.inkscape.org/) -->

<svg
   width="172.6701mm"
   height="172.6701mm"
   viewBox="0 0 172.6701 172.6701"
   version="1.1"
   id="svg1"
   xml:space="preserve"
   xmlns="http://www.w3.org/2000/svg"
   xmlns:svg="http://www.w3.org/2000/svg"><defs
     id="defs1" /><g
     id="layer1"
     transform="translate(157.25102,198.81012)"><path
       id="path5"
       style="fill:#ffffff;fill-opacity:1;stroke-width:0.805188;stroke-linecap:round;stroke-linejoin:round"
       d="M -2.0863309 -198.17657 L -10.088943 -183.11289 L -10.930235 -165.68398 L -19.198981 -165.68398 L -11.423229 -155.47426 L -12.166336 -140.07934 C -28.353216 -157.12094 -50.823548 -166.77435 -74.327399 -166.78417 C -103.64471 -166.77397 -130.92652 -151.79225 -146.66717 -127.05894 L -157.25102 -127.05894 L -149.61996 -115.86014 L -157.25102 -26.140039 L -8.5138455 -26.140039 L 15.419061 -26.140039 L 8.0799737 -154.80195 L 15.419061 -165.68398 L 7.4593397 -165.68398 L 6.4490654 -183.39297 L -2.0863309 -198.17657 z M -83.43072 -192.21621 C -85.584619 -189.65499 -86.77489 -186.4211 -86.795372 -183.07465 C -86.842092 -175.15518 -80.459903 -168.69733 -72.540428 -168.65072 C -64.621155 -168.60402 -58.163395 -174.98588 -58.116503 -182.90515 C -58.102813 -186.26049 -59.266203 -189.5144 -61.404157 -192.10045 C -60.83125 -190.6836 -60.536835 -189.16959 -60.537027 -187.64129 C -60.575787 -181.07411 -65.930869 -175.78172 -72.498054 -175.82031 C -79.065241 -175.85911 -84.357627 -181.21415 -84.319038 -187.78134 C -84.309338 -189.30285 -84.007827 -190.80837 -83.43072 -192.21621 z M -105.094 -133.25443 C -95.399568 -133.25443 -87.681732 -130.85399 -81.940371 -126.05384 C -76.199011 -121.3478 -73.328494 -114.71254 -73.328494 -106.14756 C -73.328494 -98.617906 -76.199011 -90.570344 -81.940371 -82.005363 C -87.681732 -73.534503 -97.140557 -63.322832 -110.31745 -51.369507 L -72.339924 -51.369507 L -72.339924 -37.533659 L -136.29519 -37.533659 L -136.29519 -45.722307 C -125.8478 -55.793218 -117.70633 -64.404768 -111.87084 -71.557939 C -106.03536 -78.71111 -101.84698 -85.299935 -99.30572 -91.323658 C -96.670341 -97.34738 -95.352473 -103.55901 -95.352473 -109.95921 C -95.352473 -120.12424 -98.741056 -125.20686 -105.51774 -125.20686 C -108.5296 -125.20686 -110.97648 -123.79508 -112.8589 -120.97146 C -114.74131 -118.24196 -115.6825 -114.85389 -115.6825 -110.80671 C -115.6825 -107.98309 -114.69435 -105.30039 -112.71782 -102.75914 C -114.31787 -101.2532 -116.15329 -100.07672 -118.22394 -99.229635 C -120.20048 -98.382549 -122.17676 -97.958912 -124.1533 -97.958912 C -127.54164 -97.958912 -130.3652 -98.994527 -132.6241 -101.06518 C -134.883 -103.22996 -136.01252 -106.33577 -136.01252 -110.38296 C -136.01252 -114.71251 -134.74213 -118.61864 -132.20087 -122.10111 C -129.65961 -125.58357 -126.08269 -128.3127 -121.47078 -130.28924 C -116.76474 -132.26577 -111.30596 -133.25443 -105.094 -133.25443 z M -64.29287 -131.84263 L -57.374946 -131.84263 C -53.79836 -131.74851 -45.986096 -131.70104 -33.93865 -131.70104 C -21.420602 -131.70104 -13.279128 -131.74851 -9.5143013 -131.84263 L -2.7379707 -131.84263 L 0.085629577 -125.77168 C -1.7026631 -122.94806 -5.0907293 -116.83035 -10.079125 -107.41828 C -15.06752 -98.006216 -19.773455 -88.029324 -24.197126 -77.48781 C -28.620797 -66.946295 -30.832897 -58.710909 -30.832897 -52.781307 C -30.832897 -48.075274 -29.185819 -44.545306 -25.891596 -42.19229 C -29.091699 -38.333342 -33.185655 -36.404012 -38.174051 -36.404012 C -42.785963 -36.404012 -46.362887 -37.674925 -48.904145 -40.216183 C -51.445403 -42.757441 -52.715799 -46.286892 -52.715799 -50.804684 C -52.715799 -56.451924 -51.350974 -62.428254 -48.621475 -68.734339 C -45.891976 -75.134544 -40.9977 -83.794084 -33.93865 -94.712081 L -17.279202 -120.40664 L -49.468452 -120.40664 C -50.786141 -116.17121 -51.58646 -111.18302 -51.868822 -105.44166 C -53.562994 -105.1593 -55.303983 -105.01791 -57.092276 -105.01791 C -58.974689 -105.01791 -60.810107 -105.1593 -62.5984 -105.44166 L -66.551647 -129.72493 L -64.29287 -131.84263 z " /></g></svg>
