<?xml version="1.0" encoding="UTF-8" standalone="no"?>
<!-- Created with Inkscape (http://www.inkscape.org/) -->

<svg
   width="172.6701mm"
   height="172.6701mm"
   viewBox="0 0 172.6701 172.6701"
   version="1.1"
   id="svg1"
   xml:space="preserve"
   xmlns="http://www.w3.org/2000/svg"
   xmlns:svg="http://www.w3.org/2000/svg"><defs
     id="defs1" /><g
     id="layer1"
     transform="translate(157.25102,198.81012)"><path
       id="path5"
       style="fill:#ffffff;fill-opacity:1;stroke-width:0.805188;stroke-linecap:round;stroke-linejoin:round"
       d="M -2.0863309 -198.17657 L -10.088943 -183.11289 L -10.930235 -165.68398 L -19.198981 -165.68398 L -11.423229 -155.47426 L -12.166336 -140.07934 C -28.353216 -157.12094 -50.823548 -166.77435 -74.327399 -166.78417 C -103.64471 -166.77397 -130.92652 -151.79225 -146.66717 -127.05894 L -157.25102 -127.05894 L -149.61996 -115.86014 L -157.25102 -26.140039 L -8.5138455 -26.140039 L 15.419061 -26.140039 L 8.0799737 -154.80195 L 15.419061 -165.68398 L 7.4593397 -165.68398 L 6.4490654 -183.39297 L -2.0863309 -198.17657 z M -83.43072 -192.21621 C -85.584619 -189.65499 -86.77489 -186.4211 -86.795372 -183.07465 C -86.842092 -175.15518 -80.459903 -168.69733 -72.540428 -168.65072 C -64.621155 -168.60402 -58.163395 -174.98588 -58.116503 -182.90515 C -58.102813 -186.26049 -59.266203 -189.5144 -61.404157 -192.10045 C -60.83125 -190.6836 -60.536835 -189.16959 -60.537027 -187.64129 C -60.575787 -181.07411 -65.930869 -175.78172 -72.498054 -175.82031 C -79.065241 -175.85911 -84.357627 -181.21415 -84.319038 -187.78134 C -84.309338 -189.30285 -84.007827 -190.80837 -83.43072 -192.21621 z M -126.08393 -119.73381 C -120.2453 -119.73381 -115.59687 -118.28861 -112.13904 -115.39764 C -108.68122 -112.56335 -106.95228 -108.56711 -106.95228 -103.40871 C -106.95228 -98.873849 -108.68122 -94.026912 -112.13904 -88.86851 C -115.59687 -83.766794 -121.29399 -77.616529 -129.22999 -70.41744 L -106.35697 -70.41744 L -106.35697 -62.084615 L -144.87503 -62.084615 L -144.87503 -67.016097 C -138.58291 -73.081471 -133.67985 -78.268272 -130.16533 -82.576388 C -126.65082 -86.884504 -124.12835 -90.852684 -122.59784 -94.480571 C -121.01064 -98.108458 -120.2171 -101.84955 -120.2171 -105.70418 C -120.2171 -111.82623 -122.25732 -114.88759 -126.33869 -114.88759 C -128.15264 -114.88759 -129.62693 -114.0369 -130.76065 -112.33633 C -131.89436 -110.69244 -132.4608 -108.65171 -132.4608 -106.21422 C -132.4608 -104.51365 -131.86578 -102.89852 -130.67538 -101.36801 C -131.63904 -100.46103 -132.74437 -99.752209 -133.99146 -99.242037 C -135.18186 -98.731866 -136.37242 -98.476709 -137.56282 -98.476709 C -139.6035 -98.476709 -141.30386 -99.10031 -142.66431 -100.3474 C -144.02477 -101.65117 -144.70502 -103.52197 -144.70502 -105.95946 C -144.70502 -108.567 -143.94006 -110.91953 -142.40955 -113.01691 C -140.87903 -115.11428 -138.7245 -116.75799 -135.94689 -117.94839 C -133.11261 -119.13879 -129.82519 -119.73381 -126.08393 -119.73381 z M -13.84582 -119.73381 C -8.0071891 -119.73381 -3.3592812 -118.28861 0.098548685 -115.39764 C 3.5563785 -112.56335 5.2853122 -108.56711 5.2853122 -103.40871 C 5.2853122 -98.873849 3.5563785 -94.026912 0.098548685 -88.86851 C -3.3592812 -83.766794 -9.0558781 -77.616529 -16.991881 -70.41744 L 5.8806247 -70.41744 L 5.8806247 -62.084615 L -32.637438 -62.084615 L -32.637438 -67.016097 C -26.345321 -73.081471 -21.44174 -78.268272 -17.927224 -82.576388 C -14.412709 -86.884504 -11.890243 -90.852684 -10.359728 -94.480571 C -8.7725271 -98.108458 -7.9789944 -101.84955 -7.9789944 -105.70418 C -7.9789944 -111.82623 -10.019728 -114.88759 -14.101101 -114.88759 C -15.915045 -114.88759 -17.388822 -114.0369 -18.522537 -112.33633 C -19.656252 -110.69244 -20.223208 -108.65171 -20.223208 -106.21422 C -20.223208 -104.51365 -19.627671 -102.89852 -18.437271 -101.36801 C -19.400928 -100.46103 -20.506778 -99.752209 -21.753864 -99.242037 C -22.944265 -98.731866 -24.134305 -98.476709 -25.324706 -98.476709 C -27.365392 -98.476709 -29.066262 -99.10031 -30.42672 -100.3474 C -31.787178 -101.65117 -32.467422 -103.52197 -32.467422 -105.95946 C -32.467422 -108.567 -31.701953 -110.91953 -30.171438 -113.01691 C -28.640923 -115.11428 -26.486901 -116.75799 -23.7093 -117.94839 C -20.875014 -119.13879 -17.587078 -119.73381 -13.84582 -119.73381 z M -57.38063 -119.64906 C -50.748399 -119.64906 -45.674886 -117.15466 -42.160371 -112.16631 C -38.589169 -107.23465 -36.803592 -100.06428 -36.803592 -90.654448 C -36.803592 -81.244616 -38.589169 -74.017081 -42.160371 -68.97205 C -45.674886 -63.983706 -50.748399 -61.489303 -57.38063 -61.489303 C -64.012861 -61.489303 -69.114438 -63.983706 -72.685639 -68.97205 C -76.25684 -74.017081 -78.042418 -81.244616 -78.042418 -90.654448 C -78.042418 -100.00759 -76.25684 -107.17797 -72.685639 -112.16631 C -69.114438 -117.15466 -64.012861 -119.64906 -57.38063 -119.64906 z M -57.38063 -115.31237 C -60.271603 -115.31237 -62.368981 -113.41351 -63.672753 -109.61556 C -64.919839 -105.81762 -65.543439 -99.497422 -65.543439 -90.654448 C -65.543439 -81.868159 -64.919839 -75.576025 -63.672753 -71.778081 C -62.368981 -68.036822 -60.271603 -66.16602 -57.38063 -66.16602 C -54.489658 -66.16602 -52.42086 -68.036822 -51.173774 -71.778081 C -49.870002 -75.576025 -49.217821 -81.868159 -49.217821 -90.654448 C -49.217821 -99.440737 -49.870002 -105.73287 -51.173774 -109.53081 C -52.42086 -113.38544 -54.489658 -115.31237 -57.38063 -115.31237 z M -91.221975 -101.28274 C -89.237975 -101.28274 -87.764197 -100.68772 -86.80054 -99.497319 C -85.780197 -98.363604 -85.269884 -96.776539 -85.269884 -94.735852 C -85.269884 -92.695166 -85.780197 -91.107584 -86.80054 -89.973869 C -87.764197 -88.840154 -89.237975 -88.273198 -91.221975 -88.273198 C -93.205976 -88.273198 -94.708334 -88.840154 -95.728677 -89.973869 C -96.692335 -91.16427 -97.174067 -92.751852 -97.174067 -94.735852 C -97.174067 -96.833225 -96.692335 -98.448354 -95.728677 -99.582068 C -94.708334 -100.71578 -93.205976 -101.28274 -91.221975 -101.28274 z M -91.221975 -74.498845 C -89.237975 -74.498845 -87.764197 -73.903824 -86.80054 -72.713424 C -85.780197 -71.579709 -85.269884 -69.992127 -85.269884 -67.951441 C -85.269884 -65.910754 -85.780197 -64.323689 -86.80054 -63.189974 C -87.764197 -62.05626 -89.237975 -61.489303 -91.221975 -61.489303 C -93.205976 -61.489303 -94.708334 -62.05626 -95.728677 -63.189974 C -96.692335 -64.380375 -97.174067 -65.96744 -97.174067 -67.951441 C -97.174067 -70.048813 -96.692335 -71.664459 -95.728677 -72.798173 C -94.708334 -73.931888 -93.205976 -74.498845 -91.221975 -74.498845 z " /></g></svg>
