<?xml version="1.0" encoding="UTF-8" standalone="no"?>
<!-- Created with Inkscape (http://www.inkscape.org/) -->

<svg
   width="172.6701mm"
   height="172.6701mm"
   viewBox="0 0 172.6701 172.6701"
   version="1.1"
   id="svg1"
   xml:space="preserve"
   xmlns="http://www.w3.org/2000/svg"
   xmlns:svg="http://www.w3.org/2000/svg"><defs
     id="defs1" /><g
     id="layer1"
     transform="translate(157.25102,198.81012)"><path
       id="path5"
       style="fill:#ffffff;fill-opacity:1;stroke-width:0.805188;stroke-linecap:round;stroke-linejoin:round"
       d="M -2.0863309 -198.17657 L -10.088943 -183.11289 L -10.930235 -165.68398 L -19.198981 -165.68398 L -11.423229 -155.47426 L -12.166336 -140.07934 C -28.353216 -157.12094 -50.823548 -166.77435 -74.327399 -166.78417 C -103.64471 -166.77397 -130.92652 -151.79225 -146.66717 -127.05894 L -157.25102 -127.05894 L -149.61996 -115.86014 L -157.25102 -26.140039 L -8.5138455 -26.140039 L 15.419061 -26.140039 L 8.0799737 -154.80195 L 15.419061 -165.68398 L 7.4593397 -165.68398 L 6.4490654 -183.39297 L -2.0863309 -198.17657 z M -83.43072 -192.21621 C -85.584619 -189.65499 -86.77489 -186.4211 -86.795372 -183.07465 C -86.842092 -175.15518 -80.459903 -168.69733 -72.540428 -168.65072 C -64.621155 -168.60402 -58.163395 -174.98588 -58.116503 -182.90515 C -58.102813 -186.26049 -59.266203 -189.5144 -61.404157 -192.10045 C -60.83125 -190.6836 -60.536835 -189.16959 -60.537027 -187.64129 C -60.575787 -181.07411 -65.930869 -175.78172 -72.498054 -175.82031 C -79.065241 -175.85911 -84.357627 -181.21415 -84.319038 -187.78134 C -84.309338 -189.30285 -84.007827 -190.80837 -83.43072 -192.21621 z M -126.63635 -119.73381 C -120.79772 -119.73381 -116.14981 -118.28861 -112.69198 -115.39764 C -109.23415 -112.56335 -107.50522 -108.56711 -107.50522 -103.40871 C -107.50522 -98.873849 -109.23415 -94.026912 -112.69198 -88.86851 C -116.14981 -83.766794 -121.84641 -77.616529 -129.78241 -70.41744 L -106.90991 -70.41744 L -106.90991 -62.084615 L -145.42797 -62.084615 L -145.42797 -67.016097 C -139.13585 -73.081471 -134.23227 -78.268272 -130.71776 -82.576388 C -127.20324 -86.884504 -124.68077 -90.852684 -123.15026 -94.480571 C -121.56306 -98.108458 -120.76953 -101.84955 -120.76953 -105.70418 C -120.76953 -111.82623 -122.81026 -114.88759 -126.89163 -114.88759 C -128.70558 -114.88759 -130.17935 -114.0369 -131.31307 -112.33633 C -132.44678 -110.69244 -133.01374 -108.65171 -133.01374 -106.21422 C -133.01374 -104.51365 -132.41872 -102.89852 -131.22832 -101.36801 C -132.19198 -100.46103 -133.29731 -99.752209 -134.5444 -99.242037 C -135.7348 -98.731866 -136.92484 -98.476709 -138.11524 -98.476709 C -140.15592 -98.476709 -141.85679 -99.10031 -143.21725 -100.3474 C -144.57771 -101.65117 -145.25795 -103.52197 -145.25795 -105.95946 C -145.25795 -108.567 -144.49248 -110.91953 -142.96197 -113.01691 C -141.43145 -115.11428 -139.27743 -116.75799 -136.49983 -117.94839 C -133.66555 -119.13879 -130.37761 -119.73381 -126.63635 -119.73381 z M -57.933568 -119.64906 C -51.301337 -119.64906 -46.227824 -117.15466 -42.713308 -112.16631 C -39.142107 -107.23465 -37.356529 -100.06428 -37.356529 -90.654448 C -37.356529 -81.244616 -39.142107 -74.017081 -42.713308 -68.97205 C -46.227824 -63.983706 -51.301337 -61.489303 -57.933568 -61.489303 C -64.565799 -61.489303 -69.667376 -63.983706 -73.238577 -68.97205 C -76.809778 -74.017081 -78.595356 -81.244616 -78.595356 -90.654448 C -78.595356 -100.00759 -76.809778 -107.17797 -73.238577 -112.16631 C -69.667376 -117.15466 -64.565799 -119.64906 -57.933568 -119.64906 z M -26.132408 -119.05375 L -21.880988 -118.969 C -15.8723 -118.85563 -12.69817 -118.79847 -12.358055 -118.79847 L -0.28385691 -118.969 L 2.1821424 -117.18306 L 1.4168145 -110.72092 L -19.67027 -110.72092 L -20.860895 -96.521273 C -17.913237 -97.258188 -15.248903 -97.626632 -12.868102 -97.626632 C -7.2562139 -97.626632 -2.6930136 -96.124274 0.82150197 -93.11993 C 4.3927033 -90.172272 6.1782809 -85.836165 6.1782809 -80.110905 C 6.1782809 -76.539704 5.3281043 -73.336993 3.6275322 -70.502706 C 1.9836459 -67.66842 -0.3974688 -65.429173 -3.5151842 -63.785287 C -6.6328997 -62.198086 -10.317343 -61.404554 -14.568773 -61.404554 C -18.026603 -61.404554 -21.17267 -61.886286 -24.006957 -62.849943 C -26.784558 -63.813601 -28.966643 -65.14551 -30.553844 -66.846082 C -32.141044 -68.60334 -32.935094 -70.559366 -32.935094 -72.713424 C -32.935094 -74.980853 -32.311493 -76.709787 -31.064407 -77.900188 C -29.817321 -79.147274 -28.2869 -79.770358 -26.472956 -79.770358 C -25.452613 -79.770358 -24.431987 -79.572362 -23.411644 -79.175562 C -22.334615 -78.778762 -21.371151 -78.211805 -20.520865 -77.474891 C -21.031036 -76.28449 -21.286193 -75.037289 -21.286193 -73.733517 C -21.286193 -71.862888 -20.747299 -70.332466 -19.67027 -69.142066 C -18.536556 -67.951665 -16.836202 -67.356645 -14.568773 -67.356645 C -9.4670569 -67.356645 -6.9160102 -71.608045 -6.9160102 -80.110905 C -6.9160102 -84.135593 -7.7095429 -87.054567 -9.2967435 -88.86851 C -10.883944 -90.73914 -13.009902 -91.674541 -15.674132 -91.674541 C -17.318018 -91.674541 -19.075016 -91.36274 -20.945645 -90.739197 C -22.816274 -90.115654 -24.659013 -89.236897 -26.472956 -88.103182 L -31.149156 -92.609884 L -28.938439 -116.75776 L -26.132408 -119.05375 z M -57.933568 -115.31237 C -60.824541 -115.31237 -62.921919 -113.41351 -64.22569 -109.61556 C -65.472777 -105.81762 -66.09586 -99.497422 -66.09586 -90.654448 C -66.09586 -81.868159 -65.472777 -75.576025 -64.22569 -71.778081 C -62.921919 -68.036822 -60.824541 -66.16602 -57.933568 -66.16602 C -55.042596 -66.16602 -52.973281 -68.036822 -51.726195 -71.778081 C -50.422423 -75.576025 -49.770759 -81.868159 -49.770759 -90.654448 C -49.770759 -99.440737 -50.422423 -105.73287 -51.726195 -109.53081 C -52.973281 -113.38544 -55.042596 -115.31237 -57.933568 -115.31237 z M -91.774913 -101.28274 C -89.790913 -101.28274 -88.317135 -100.68772 -87.353478 -99.497319 C -86.333134 -98.363604 -85.822822 -96.776539 -85.822822 -94.735852 C -85.822822 -92.695166 -86.333134 -91.107584 -87.353478 -89.973869 C -88.317135 -88.840154 -89.790913 -88.273198 -91.774913 -88.273198 C -93.758914 -88.273198 -95.260755 -88.840154 -96.281098 -89.973869 C -97.244756 -91.16427 -97.727005 -92.751852 -97.727005 -94.735852 C -97.727005 -96.833225 -97.244756 -98.448354 -96.281098 -99.582068 C -95.260755 -100.71578 -93.758914 -101.28274 -91.774913 -101.28274 z M -91.774913 -74.498845 C -89.790913 -74.498845 -88.317135 -73.903824 -87.353478 -72.713424 C -86.333134 -71.579709 -85.822822 -69.992127 -85.822822 -67.951441 C -85.822822 -65.910754 -86.333134 -64.323689 -87.353478 -63.189974 C -88.317135 -62.05626 -89.790913 -61.489303 -91.774913 -61.489303 C -93.758914 -61.489303 -95.260755 -62.05626 -96.281098 -63.189974 C -97.244756 -64.380375 -97.727005 -65.96744 -97.727005 -67.951441 C -97.727005 -70.048813 -97.244756 -71.664459 -96.281098 -72.798173 C -95.260755 -73.931888 -93.758914 -74.498845 -91.774913 -74.498845 z " /></g></svg>
