<?xml version="1.0" encoding="UTF-8" standalone="no"?>
<!-- Created with Inkscape (http://www.inkscape.org/) -->

<svg
   width="172.6701mm"
   height="172.6701mm"
   viewBox="0 0 172.6701 172.6701"
   version="1.1"
   id="svg1"
   xml:space="preserve"
   xmlns="http://www.w3.org/2000/svg"
   xmlns:svg="http://www.w3.org/2000/svg"><defs
     id="defs1" /><g
     id="layer1"
     transform="translate(157.25102,198.81012)"><path
       id="path5"
       style="fill:#ffffff;fill-opacity:1;stroke-width:0.805188;stroke-linecap:round;stroke-linejoin:round"
       d="M -2.0863309 -198.17657 L -10.088943 -183.11289 L -10.930235 -165.68398 L -19.198981 -165.68398 L -11.423229 -155.47426 L -12.166336 -140.07934 C -28.353216 -157.12094 -50.823548 -166.77435 -74.327399 -166.78417 C -103.64471 -166.77397 -130.92652 -151.79225 -146.66717 -127.05894 L -157.25102 -127.05894 L -149.61996 -115.86014 L -157.25102 -26.140039 L -8.5138455 -26.140039 L 15.419061 -26.140039 L 8.0799737 -154.80195 L 15.419061 -165.68398 L 7.4593397 -165.68398 L 6.4490654 -183.39297 L -2.0863309 -198.17657 z M -83.43072 -192.21621 C -85.584619 -189.65499 -86.77489 -186.4211 -86.795372 -183.07465 C -86.842092 -175.15518 -80.459903 -168.69733 -72.540428 -168.65072 C -64.621155 -168.60402 -58.163395 -174.98588 -58.116503 -182.90515 C -58.102813 -186.26049 -59.266203 -189.5144 -61.404157 -192.10045 C -60.83125 -190.6836 -60.536835 -189.16959 -60.537027 -187.64129 C -60.575787 -181.07411 -65.930869 -175.78172 -72.498054 -175.82031 C -79.065241 -175.85911 -84.357627 -181.21415 -84.319038 -187.78134 C -84.309338 -189.30285 -84.007827 -190.80837 -83.43072 -192.21621 z M -13.463414 -119.81908 C -7.511412 -119.81908 -2.7782797 -118.54381 0.73623586 -115.99295 C 4.2507514 -113.44209 6.0082655 -110.01229 6.0082655 -105.70418 C 6.0082655 -103.38006 5.1580888 -101.05611 3.4575168 -98.731991 C 1.7569447 -96.407876 -0.48230163 -94.50901 -3.2599026 -93.035181 C 0.25461292 -91.334609 3.0036552 -89.350519 4.9876559 -87.08309 C 7.0283424 -84.81566 8.0489678 -81.896169 8.0489678 -78.324968 C 8.0489678 -73.166566 6.1781658 -69.057034 2.4369072 -65.996005 C -1.3043513 -62.991661 -6.3492839 -61.489303 -12.698086 -61.489303 C -19.670432 -61.489303 -25.055745 -62.878373 -28.853689 -65.655974 C -32.594948 -68.433575 -34.465233 -72.401238 -34.465233 -77.55964 C -34.465233 -80.223869 -33.615056 -82.86014 -31.914484 -85.467684 C -30.213912 -88.131914 -27.833314 -90.483931 -24.772285 -92.524618 C -27.323143 -93.941761 -29.306716 -95.642631 -30.723859 -97.626632 C -32.141003 -99.610633 -32.849828 -102.07646 -32.849828 -105.02411 C -32.849828 -109.55897 -31.092314 -113.15871 -27.577798 -115.82294 C -24.063283 -118.48717 -19.358731 -119.81908 -13.463414 -119.81908 z M -128.16701 -119.73381 C -122.32838 -119.73381 -117.67995 -118.28861 -114.22212 -115.39764 C -110.76429 -112.56335 -109.03536 -108.56711 -109.03536 -103.40871 C -109.03536 -98.873849 -110.76429 -94.026912 -114.22212 -88.86851 C -117.67995 -83.766794 -123.37707 -77.616529 -131.31307 -70.41744 L -108.44056 -70.41744 L -108.44056 -62.084615 L -146.95811 -62.084615 L -146.95811 -67.016097 C -140.66599 -73.081471 -135.76293 -78.268272 -132.24841 -82.576388 C -128.7339 -86.884504 -126.21143 -90.852684 -124.68092 -94.480571 C -123.09371 -98.108458 -122.30018 -101.84955 -122.30018 -105.70418 C -122.30018 -111.82623 -124.34092 -114.88759 -128.42229 -114.88759 C -130.23623 -114.88759 -131.71001 -114.0369 -132.84372 -112.33633 C -133.97744 -110.69244 -134.5444 -108.65171 -134.5444 -106.21422 C -134.5444 -104.51365 -133.94886 -102.89852 -132.75846 -101.36801 C -133.72212 -100.46103 -134.82745 -99.752209 -136.07453 -99.242037 C -137.26494 -98.731866 -138.45549 -98.476709 -139.64589 -98.476709 C -141.68658 -98.476709 -143.38693 -99.10031 -144.74739 -100.3474 C -146.10785 -101.65117 -146.78809 -103.52197 -146.78809 -105.95946 C -146.78809 -108.567 -146.02314 -110.91953 -144.49263 -113.01691 C -142.96211 -115.11428 -140.80809 -116.75799 -138.03049 -117.94839 C -135.1962 -119.13879 -131.90827 -119.73381 -128.16701 -119.73381 z M -59.463707 -119.64906 C -52.831476 -119.64906 -47.75848 -117.15466 -44.243964 -112.16631 C -40.672763 -107.23465 -38.887185 -100.06428 -38.887185 -90.654448 C -38.887185 -81.244616 -40.672763 -74.017081 -44.243964 -68.97205 C -47.75848 -63.983706 -52.831476 -61.489303 -59.463707 -61.489303 C -66.095938 -61.489303 -71.198032 -63.983706 -74.769233 -68.97205 C -78.340434 -74.017081 -80.126012 -81.244616 -80.126012 -90.654448 C -80.126012 -100.00759 -78.340434 -107.17797 -74.769233 -112.16631 C -71.198032 -117.15466 -66.095938 -119.64906 -59.463707 -119.64906 z M -59.463707 -115.31237 C -62.35468 -115.31237 -64.452058 -113.41351 -65.75583 -109.61556 C -67.002916 -105.81762 -67.626516 -99.497422 -67.626516 -90.654448 C -67.626516 -81.868159 -67.002916 -75.576025 -65.75583 -71.778081 C -64.452058 -68.036822 -62.35468 -66.16602 -59.463707 -66.16602 C -56.572735 -66.16602 -54.503937 -68.036822 -53.256851 -71.778081 C -51.953079 -75.576025 -51.300898 -81.868159 -51.300898 -90.654448 C -51.300898 -99.440737 -51.953079 -105.73287 -53.256851 -109.53081 C -54.503937 -113.38544 -56.572735 -115.31237 -59.463707 -115.31237 z M -13.463414 -113.78224 C -15.730844 -113.78224 -17.516421 -113.04535 -18.820193 -111.57152 C -20.123965 -110.15437 -20.775629 -108.22693 -20.775629 -105.78944 C -20.775629 -103.63538 -19.954033 -101.84981 -18.310147 -100.43266 C -16.609575 -99.072205 -14.143752 -97.711715 -10.912666 -96.351258 C -9.4955221 -97.314915 -8.3616088 -98.646824 -7.5113227 -100.3474 C -6.6610367 -102.04797 -6.2359484 -103.86213 -6.2359484 -105.78944 C -6.2359484 -108.22693 -6.9161931 -110.15437 -8.2766507 -111.57152 C -9.5804226 -113.04535 -11.309356 -113.78224 -13.463414 -113.78224 z M -93.305052 -101.28274 C -91.321052 -101.28274 -89.847274 -100.68772 -88.883617 -99.497319 C -87.863274 -98.363604 -87.353478 -96.776539 -87.353478 -94.735852 C -87.353478 -92.695166 -87.863274 -91.107584 -88.883617 -89.973869 C -89.847274 -88.840154 -91.321052 -88.273198 -93.305052 -88.273198 C -95.289053 -88.273198 -96.791411 -88.840154 -97.811754 -89.973869 C -98.775412 -91.16427 -99.257144 -92.751852 -99.257144 -94.735852 C -99.257144 -96.833225 -98.775412 -98.448354 -97.811754 -99.582068 C -96.791411 -100.71578 -95.289053 -101.28274 -93.305052 -101.28274 z M -16.949506 -89.038526 C -18.650078 -87.678068 -19.89728 -86.119583 -20.69088 -84.362325 C -21.48448 -82.605068 -21.880988 -80.50769 -21.880988 -78.070203 C -21.880988 -74.725745 -21.059392 -72.089474 -19.415506 -70.162159 C -17.771619 -68.291529 -15.532373 -67.356645 -12.698086 -67.356645 C -9.9204852 -67.356645 -7.7664632 -68.291529 -6.2359484 -70.162159 C -4.6487478 -72.032788 -3.8552151 -74.640479 -3.8552151 -77.984937 C -3.8552151 -79.855566 -4.4502354 -81.442631 -5.6406359 -82.746403 C -6.7743506 -84.106861 -8.2200643 -85.212194 -9.9773221 -86.06248 C -11.73458 -86.969452 -14.058534 -87.961497 -16.949506 -89.038526 z M -93.305052 -74.498845 C -91.321052 -74.498845 -89.847274 -73.903824 -88.883617 -72.713424 C -87.863274 -71.579709 -87.353478 -69.992127 -87.353478 -67.951441 C -87.353478 -65.910754 -87.863274 -64.323689 -88.883617 -63.189974 C -89.847274 -62.05626 -91.321052 -61.489303 -93.305052 -61.489303 C -95.289053 -61.489303 -96.791411 -62.05626 -97.811754 -63.189974 C -98.775412 -64.380375 -99.257144 -65.96744 -99.257144 -67.951441 C -99.257144 -70.048813 -98.775412 -71.664459 -97.811754 -72.798173 C -96.791411 -73.931888 -95.289053 -74.498845 -93.305052 -74.498845 z " /></g></svg>
