<?xml version="1.0" encoding="UTF-8" standalone="no"?>
<!-- Created with Inkscape (http://www.inkscape.org/) -->

<svg
   width="172.6701mm"
   height="172.6701mm"
   viewBox="0 0 172.6701 172.6701"
   version="1.1"
   id="svg1"
   xml:space="preserve"
   xmlns="http://www.w3.org/2000/svg"
   xmlns:svg="http://www.w3.org/2000/svg"><defs
     id="defs1" /><g
     id="layer1"
     transform="translate(157.25102,198.81012)"><path
       id="path5"
       style="fill:#ffffff;fill-opacity:1;stroke-width:0.805188;stroke-linecap:round;stroke-linejoin:round"
       d="M -2.0863309 -198.17657 L -10.088943 -183.11289 L -10.930235 -165.68398 L -19.198981 -165.68398 L -11.423229 -155.47426 L -12.166336 -140.07934 C -28.353216 -157.12094 -50.823548 -166.77435 -74.327399 -166.78417 C -103.64471 -166.77397 -130.92652 -151.79225 -146.66717 -127.05894 L -157.25102 -127.05894 L -149.61996 -115.86014 L -157.25102 -26.140039 L -8.5138455 -26.140039 L 15.419061 -26.140039 L 8.0799737 -154.80195 L 15.419061 -165.68398 L 7.4593397 -165.68398 L 6.4490654 -183.39297 L -2.0863309 -198.17657 z M -83.43072 -192.21621 C -85.584619 -189.65499 -86.77489 -186.4211 -86.795372 -183.07465 C -86.842092 -175.15518 -80.459903 -168.69733 -72.540428 -168.65072 C -64.621155 -168.60402 -58.163395 -174.98588 -58.116503 -182.90515 C -58.102813 -186.26049 -59.266203 -189.5144 -61.404157 -192.10045 C -60.83125 -190.6836 -60.536835 -189.16959 -60.537027 -187.64129 C -60.575787 -181.07411 -65.930869 -175.78172 -72.498054 -175.82031 C -79.065241 -175.85911 -84.357627 -181.21415 -84.319038 -187.78134 C -84.309338 -189.30285 -84.007827 -190.80837 -83.43072 -192.21621 z M -120.8119 -119.73381 C -114.97327 -119.73381 -110.32536 -118.28861 -106.86753 -115.39764 C -103.4097 -112.56335 -101.68077 -108.56711 -101.68077 -103.40871 C -101.68077 -98.873849 -103.4097 -94.026912 -106.86753 -88.86851 C -110.32536 -83.766794 -116.02196 -77.616529 -123.95796 -70.41744 L -101.08546 -70.41744 L -101.08546 -62.084615 L -139.60352 -62.084615 L -139.60352 -67.016097 C -133.3114 -73.081471 -128.40782 -78.268272 -124.89331 -82.576388 C -121.37879 -86.884504 -118.85632 -90.852684 -117.32581 -94.480571 C -115.73861 -98.108458 -114.94508 -101.84955 -114.94508 -105.70418 C -114.94508 -111.82623 -116.98581 -114.88759 -121.06718 -114.88759 C -122.88113 -114.88759 -124.3549 -114.0369 -125.48862 -112.33633 C -126.62233 -110.69244 -127.18929 -108.65171 -127.18929 -106.21422 C -127.18929 -104.51365 -126.59375 -102.89852 -125.40335 -101.36801 C -126.36701 -100.46103 -127.47286 -99.752209 -128.71994 -99.242037 C -129.91035 -98.731866 -131.10039 -98.476709 -132.29079 -98.476709 C -134.33147 -98.476709 -136.03234 -99.10031 -137.3928 -100.3474 C -138.75326 -101.65117 -139.4335 -103.52197 -139.4335 -105.95946 C -139.4335 -108.567 -138.66803 -110.91953 -137.13752 -113.01691 C -135.607 -115.11428 -133.45298 -116.75799 -130.67538 -117.94839 C -127.84109 -119.13879 -124.55316 -119.73381 -120.8119 -119.73381 z M -51.343789 -119.13901 L -48.537759 -117.86364 L -48.537759 -68.716769 C -47.46073 -68.093226 -45.75986 -67.526269 -43.435745 -67.016097 C -41.11163 -66.562611 -39.269408 -66.279392 -37.908951 -66.16602 L -38.164232 -62.084615 L -72.855655 -62.084615 L -72.685639 -66.16602 C -67.640609 -66.732877 -63.786233 -67.583054 -61.122004 -68.716769 L -61.122004 -109.44555 L -72.515624 -109.44555 L -72.515624 -114.37703 C -68.887737 -114.66046 -65.146649 -115.19935 -61.292019 -115.99295 C -57.437389 -116.84324 -54.12139 -117.89193 -51.343789 -119.13901 z M -12.40043 -119.13901 L -9.5943997 -117.86364 L -9.5943997 -68.716769 C -8.5173708 -68.093226 -6.8170175 -67.526269 -4.4929023 -67.016097 C -2.1687872 -66.562611 -0.32656553 -66.279392 1.0338921 -66.16602 L 0.7791273 -62.084615 L -33.912812 -62.084615 L -33.742797 -66.16602 C -28.697766 -66.732877 -24.842874 -67.583054 -22.178645 -68.716769 L -22.178645 -109.44555 L -33.572781 -109.44555 L -33.572781 -114.37703 C -29.944894 -114.66046 -26.20329 -115.19935 -22.34866 -115.99295 C -18.49403 -116.84324 -15.178031 -117.89193 -12.40043 -119.13901 z M -85.950463 -101.28274 C -83.966462 -101.28274 -82.492684 -100.68772 -81.529027 -99.497319 C -80.508684 -98.363604 -79.998371 -96.776539 -79.998371 -94.735852 C -79.998371 -92.695166 -80.508684 -91.107584 -81.529027 -89.973869 C -82.492684 -88.840154 -83.966462 -88.273198 -85.950463 -88.273198 C -87.934463 -88.273198 -89.436304 -88.840154 -90.456647 -89.973869 C -91.420305 -91.16427 -91.902554 -92.751852 -91.902554 -94.735852 C -91.902554 -96.833225 -91.420305 -98.448354 -90.456647 -99.582068 C -89.436304 -100.71578 -87.934463 -101.28274 -85.950463 -101.28274 z M -85.950463 -74.498845 C -83.966462 -74.498845 -82.492684 -73.903824 -81.529027 -72.713424 C -80.508684 -71.579709 -79.998371 -69.992127 -79.998371 -67.951441 C -79.998371 -65.910754 -80.508684 -64.323689 -81.529027 -63.189974 C -82.492684 -62.05626 -83.966462 -61.489303 -85.950463 -61.489303 C -87.934463 -61.489303 -89.436304 -62.05626 -90.456647 -63.189974 C -91.420305 -64.380375 -91.902554 -65.96744 -91.902554 -67.951441 C -91.902554 -70.048813 -91.420305 -71.664459 -90.456647 -72.798173 C -89.436304 -73.931888 -87.934463 -74.498845 -85.950463 -74.498845 z " /></g></svg>
