<?xml version="1.0" encoding="UTF-8" standalone="no"?>
<!-- Created with Inkscape (http://www.inkscape.org/) -->

<svg
   width="172.6701mm"
   height="172.6701mm"
   viewBox="0 0 172.6701 172.6701"
   version="1.1"
   id="svg1"
   xml:space="preserve"
   xmlns="http://www.w3.org/2000/svg"
   xmlns:svg="http://www.w3.org/2000/svg"><defs
     id="defs1" /><g
     id="layer1"
     transform="translate(157.25102,198.81012)"><path
       id="path5"
       style="fill:#ffffff;fill-opacity:1;stroke-width:0.805188;stroke-linecap:round;stroke-linejoin:round"
       d="M -2.0863309 -198.17657 L -10.088943 -183.11289 L -10.930235 -165.68398 L -19.198981 -165.68398 L -11.423229 -155.47426 L -12.166336 -140.07934 C -28.353216 -157.12094 -50.823548 -166.77435 -74.327399 -166.78417 C -103.64471 -166.77397 -130.92652 -151.79225 -146.66717 -127.05894 L -157.25102 -127.05894 L -149.61996 -115.86014 L -157.25102 -26.140039 L -8.5138455 -26.140039 L 15.419061 -26.140039 L 8.0799737 -154.80195 L 15.419061 -165.68398 L 7.4593397 -165.68398 L 6.4490654 -183.39297 L -2.0863309 -198.17657 z M -83.43072 -192.21621 C -85.584619 -189.65499 -86.77489 -186.4211 -86.795372 -183.07465 C -86.842092 -175.15518 -80.459903 -168.69733 -72.540428 -168.65072 C -64.621155 -168.60402 -58.163395 -174.98588 -58.116503 -182.90515 C -58.102813 -186.26049 -59.266203 -189.5144 -61.404157 -192.10045 C -60.83125 -190.6836 -60.536835 -189.16959 -60.537027 -187.64129 C -60.575787 -181.07411 -65.930869 -175.78172 -72.498054 -175.82031 C -79.065241 -175.85911 -84.357627 -181.21415 -84.319038 -187.78134 C -84.309338 -189.30285 -84.007827 -190.80837 -83.43072 -192.21621 z M -122.89498 -119.73381 C -117.05635 -119.73381 -112.40844 -118.28861 -108.95061 -115.39764 C -105.49278 -112.56335 -103.76385 -108.56711 -103.76385 -103.40871 C -103.76385 -98.873849 -105.49278 -94.026912 -108.95061 -88.86851 C -112.40844 -83.766794 -118.10504 -77.616529 -126.04104 -70.41744 L -103.16853 -70.41744 L -103.16853 -62.084615 L -141.6866 -62.084615 L -141.6866 -67.016097 C -135.39448 -73.081471 -130.4909 -78.268272 -126.97638 -82.576388 C -123.46187 -86.884504 -120.9394 -90.852684 -119.40889 -94.480571 C -117.82168 -98.108458 -117.02815 -101.84955 -117.02815 -105.70418 C -117.02815 -111.82623 -119.06889 -114.88759 -123.15026 -114.88759 C -124.9642 -114.88759 -126.43798 -114.0369 -127.57169 -112.33633 C -128.70541 -110.69244 -129.27237 -108.65171 -129.27237 -106.21422 C -129.27237 -104.51365 -128.67735 -102.89852 -127.48695 -101.36801 C -128.4506 -100.46103 -129.55594 -99.752209 -130.80302 -99.242037 C -131.99342 -98.731866 -133.18346 -98.476709 -134.37386 -98.476709 C -136.41455 -98.476709 -138.11542 -99.10031 -139.47588 -100.3474 C -140.83634 -101.65117 -141.51658 -103.52197 -141.51658 -105.95946 C -141.51658 -108.567 -140.75111 -110.91953 -139.2206 -113.01691 C -137.69008 -115.11428 -135.53606 -116.75799 -132.75846 -117.94839 C -129.92417 -119.13879 -126.63624 -119.73381 -122.89498 -119.73381 z M -17.034772 -119.73381 C -11.196142 -119.73381 -6.547717 -118.28861 -3.0898872 -115.39764 C 0.36794265 -112.56335 2.0968763 -108.56711 2.0968763 -103.40871 C 2.0968763 -98.873849 0.36794265 -94.026912 -3.0898872 -88.86851 C -6.547717 -83.766794 -12.244831 -77.616529 -20.180834 -70.41744 L 2.6921888 -70.41744 L 2.6921888 -62.084615 L -35.825874 -62.084615 L -35.825874 -67.016097 C -29.533757 -73.081471 -24.630176 -78.268272 -21.11566 -82.576388 C -17.601145 -86.884504 -15.078678 -90.852684 -13.548164 -94.480571 C -11.960963 -98.108458 -11.16743 -101.84955 -11.16743 -105.70418 C -11.16743 -111.82623 -13.208164 -114.88759 -17.289537 -114.88759 C -19.103481 -114.88759 -20.577258 -114.0369 -21.710973 -112.33633 C -22.844688 -110.69244 -23.411644 -108.65171 -23.411644 -106.21422 C -23.411644 -104.51365 -22.816624 -102.89852 -21.626223 -101.36801 C -22.589881 -100.46103 -23.695214 -99.752209 -24.9423 -99.242037 C -26.132701 -98.731866 -27.323258 -98.476709 -28.513658 -98.476709 C -30.554345 -98.476709 -32.254698 -99.10031 -33.615156 -100.3474 C -34.975613 -101.65117 -35.655858 -103.52197 -35.655858 -105.95946 C -35.655858 -108.567 -34.890389 -110.91953 -33.359874 -113.01691 C -31.829359 -115.11428 -29.675337 -116.75799 -26.897736 -117.94839 C -24.06345 -119.13879 -20.776031 -119.73381 -17.034772 -119.73381 z M -53.426866 -119.13901 L -50.620836 -117.86364 L -50.620836 -68.716769 C -49.543807 -68.093226 -47.843454 -67.526269 -45.519339 -67.016097 C -43.195224 -66.562611 -41.352485 -66.279392 -39.992027 -66.16602 L -40.247309 -62.084615 L -74.939248 -62.084615 L -74.769233 -66.16602 C -69.724202 -66.732877 -65.86931 -67.583054 -63.205081 -68.716769 L -63.205081 -109.44555 L -74.598701 -109.44555 L -74.598701 -114.37703 C -70.970814 -114.66046 -67.229726 -115.19935 -63.375096 -115.99295 C -59.520466 -116.84324 -56.204467 -117.89193 -53.426866 -119.13901 z M -88.03354 -101.28274 C -86.049539 -101.28274 -84.575761 -100.68772 -83.612104 -99.497319 C -82.591761 -98.363604 -82.081448 -96.776539 -82.081448 -94.735852 C -82.081448 -92.695166 -82.591761 -91.107584 -83.612104 -89.973869 C -84.575761 -88.840154 -86.049539 -88.273198 -88.03354 -88.273198 C -90.01754 -88.273198 -91.519898 -88.840154 -92.540241 -89.973869 C -93.503899 -91.16427 -93.985631 -92.751852 -93.985631 -94.735852 C -93.985631 -96.833225 -93.503899 -98.448354 -92.540241 -99.582068 C -91.519898 -100.71578 -90.01754 -101.28274 -88.03354 -101.28274 z M -88.03354 -74.498845 C -86.049539 -74.498845 -84.575761 -73.903824 -83.612104 -72.713424 C -82.591761 -71.579709 -82.081448 -69.992127 -82.081448 -67.951441 C -82.081448 -65.910754 -82.591761 -64.323689 -83.612104 -63.189974 C -84.575761 -62.05626 -86.049539 -61.489303 -88.03354 -61.489303 C -90.01754 -61.489303 -91.519898 -62.05626 -92.540241 -63.189974 C -93.503899 -64.380375 -93.985631 -65.96744 -93.985631 -67.951441 C -93.985631 -70.048813 -93.503899 -71.664459 -92.540241 -72.798173 C -91.519898 -73.931888 -90.01754 -74.498845 -88.03354 -74.498845 z " /></g></svg>
