<?xml version="1.0" encoding="UTF-8" standalone="no"?>
<!-- Created with Inkscape (http://www.inkscape.org/) -->

<svg
   width="172.6701mm"
   height="172.6701mm"
   viewBox="0 0 172.6701 172.6701"
   version="1.1"
   id="svg1"
   xml:space="preserve"
   xmlns="http://www.w3.org/2000/svg"
   xmlns:svg="http://www.w3.org/2000/svg"><defs
     id="defs1" /><g
     id="layer1"
     transform="translate(157.25102,198.81012)"><path
       id="path5"
       style="fill:#ffffff;fill-opacity:1;stroke-width:0.805188;stroke-linecap:round;stroke-linejoin:round"
       d="M -2.0863309 -198.17657 L -10.088943 -183.11289 L -10.930235 -165.68398 L -19.198981 -165.68398 L -11.423229 -155.47426 L -12.166336 -140.07934 C -28.353216 -157.12094 -50.823548 -166.77435 -74.327399 -166.78417 C -103.64471 -166.77397 -130.92652 -151.79225 -146.66717 -127.05894 L -157.25102 -127.05894 L -149.61996 -115.86014 L -157.25102 -26.140039 L -8.5138455 -26.140039 L 15.419061 -26.140039 L 8.0799737 -154.80195 L 15.419061 -165.68398 L 7.4593397 -165.68398 L 6.4490654 -183.39297 L -2.0863309 -198.17657 z M -83.43072 -192.21621 C -85.584619 -189.65499 -86.77489 -186.4211 -86.795372 -183.07465 C -86.842092 -175.15518 -80.459903 -168.69733 -72.540428 -168.65072 C -64.621155 -168.60402 -58.163395 -174.98588 -58.116503 -182.90515 C -58.102813 -186.26049 -59.266203 -189.5144 -61.404157 -192.10045 C -60.83125 -190.6836 -60.536835 -189.16959 -60.537027 -187.64129 C -60.575787 -181.07411 -65.930869 -175.78172 -72.498054 -175.82031 C -79.065241 -175.85911 -84.357627 -181.21415 -84.319038 -187.78134 C -84.309338 -189.30285 -84.007827 -190.80837 -83.43072 -192.21621 z M -122.93787 -119.73381 C -117.09924 -119.73381 -112.45081 -118.28861 -108.99298 -115.39764 C -105.53515 -112.56335 -103.80622 -108.56711 -103.80622 -103.40871 C -103.80622 -98.873849 -105.53515 -94.026912 -108.99298 -88.86851 C -112.45081 -83.766794 -118.14793 -77.616529 -126.08393 -70.41744 L -103.21091 -70.41744 L -103.21091 -62.084615 L -141.72897 -62.084615 L -141.72897 -67.016097 C -135.43685 -73.081471 -130.53379 -78.268272 -127.01927 -82.576388 C -123.50476 -86.884504 -120.98229 -90.852684 -119.45178 -94.480571 C -117.86458 -98.108458 -117.07053 -101.84955 -117.07053 -105.70418 C -117.07053 -111.82623 -119.11126 -114.88759 -123.19263 -114.88759 C -125.00658 -114.88759 -126.48035 -114.0369 -127.61407 -112.33633 C -128.74778 -110.69244 -129.31474 -108.65171 -129.31474 -106.21422 C -129.31474 -104.51365 -128.71972 -102.89852 -127.52932 -101.36801 C -128.49298 -100.46103 -129.59831 -99.752209 -130.8454 -99.242037 C -132.0358 -98.731866 -133.22635 -98.476709 -134.41675 -98.476709 C -136.45744 -98.476709 -138.15779 -99.10031 -139.51825 -100.3474 C -140.87871 -101.65117 -141.55895 -103.52197 -141.55895 -105.95946 C -141.55895 -108.567 -140.79349 -110.91953 -139.26297 -113.01691 C -137.73246 -115.11428 -135.57843 -116.75799 -132.80083 -117.94839 C -129.96655 -119.13879 -126.67913 -119.73381 -122.93787 -119.73381 z M -17.417178 -119.73381 C -13.732605 -119.73381 -10.47325 -119.11073 -7.6389635 -117.86364 C -4.8046768 -116.67324 -2.5940108 -114.97237 -1.0068102 -112.76163 C 0.58039038 -110.60757 1.373923 -108.11368 1.373923 -105.27939 C 1.373923 -102.10499 0.43903878 -99.384015 -1.4315905 -97.116586 C -3.3022197 -94.849156 -6.0798424 -93.120223 -9.7644152 -91.929822 C -5.1161849 -90.909479 -1.8568299 -89.237189 0.013799336 -86.913074 C 1.8844286 -84.588959 2.8198296 -81.442892 2.8198296 -77.474891 C 2.8198296 -74.017061 1.7711406 -71.069506 -0.32623159 -68.632019 C -2.3669181 -66.194533 -5.0312527 -64.380375 -8.3190254 -63.189974 C -11.606798 -61.999574 -15.008021 -61.404554 -18.522537 -61.404554 C -23.624253 -61.404554 -27.960877 -62.453243 -31.532079 -64.550615 C -35.046594 -66.647987 -36.803592 -69.510317 -36.803592 -73.138204 C -36.803592 -75.235577 -36.179991 -76.851222 -34.932905 -77.984937 C -33.685819 -79.175337 -32.127334 -79.770358 -30.256704 -79.770358 C -28.329389 -79.770358 -26.373363 -79.005405 -24.389362 -77.474891 C -24.899534 -76.397862 -25.15469 -75.094016 -25.15469 -73.563501 C -25.15469 -71.749558 -24.616314 -70.275781 -23.539285 -69.142066 C -22.40557 -68.008351 -20.733281 -67.441394 -18.522537 -67.441394 C -13.647564 -67.441394 -11.209805 -70.814037 -11.209805 -77.55964 C -11.209805 -81.244213 -12.400362 -84.10706 -14.781163 -86.147746 C -17.105278 -88.188433 -20.421277 -89.208541 -24.729393 -89.208541 L -24.729393 -94.480571 C -16.39659 -95.1608 -12.230415 -98.760535 -12.230415 -105.27939 C -12.230415 -108.56717 -12.740727 -110.97583 -13.76107 -112.50634 C -14.781414 -114.09354 -16.169967 -114.88759 -17.927224 -114.88759 C -20.024597 -114.88759 -21.611662 -114.15071 -22.688691 -112.67688 C -23.709034 -111.20305 -24.219347 -109.41747 -24.219347 -107.3201 C -24.219347 -105.44947 -23.822839 -103.77718 -23.029239 -102.30335 C -24.616439 -100.60278 -26.657173 -99.752084 -29.151346 -99.752084 C -31.418775 -99.752084 -33.175772 -100.43233 -34.422858 -101.79279 C -35.669945 -103.15324 -36.293545 -104.91076 -36.293545 -107.06482 C -36.293545 -109.8991 -35.330081 -112.25164 -33.402766 -114.12227 C -31.418765 -116.04958 -28.981006 -117.46671 -26.090034 -118.37369 C -23.142375 -119.28066 -20.251465 -119.73381 -17.417178 -119.73381 z M -53.469241 -119.13901 L -50.663211 -117.86364 L -50.663211 -68.716769 C -49.586182 -68.093226 -47.885828 -67.526269 -45.561713 -67.016097 C -43.237598 -66.562611 -41.395377 -66.279392 -40.034919 -66.16602 L -40.289684 -62.084615 L -74.981623 -62.084615 L -74.811608 -66.16602 C -69.766577 -66.732877 -65.911685 -67.583054 -63.247456 -68.716769 L -63.247456 -109.44555 L -74.641592 -109.44555 L -74.641592 -114.37703 C -71.013705 -114.66046 -67.272101 -115.19935 -63.417471 -115.99295 C -59.562841 -116.84324 -56.246842 -117.89193 -53.469241 -119.13901 z M -88.075914 -101.28274 C -86.091913 -101.28274 -84.618136 -100.68772 -83.654479 -99.497319 C -82.634135 -98.363604 -82.123823 -96.776539 -82.123823 -94.735852 C -82.123823 -92.695166 -82.634135 -91.107584 -83.654479 -89.973869 C -84.618136 -88.840154 -86.091913 -88.273198 -88.075914 -88.273198 C -90.059915 -88.273198 -91.562273 -88.840154 -92.582616 -89.973869 C -93.546273 -91.16427 -94.028006 -92.751852 -94.028006 -94.735852 C -94.028006 -96.833225 -93.546273 -98.448354 -92.582616 -99.582068 C -91.562273 -100.71578 -90.059915 -101.28274 -88.075914 -101.28274 z M -88.075914 -74.498845 C -86.091913 -74.498845 -84.618136 -73.903824 -83.654479 -72.713424 C -82.634135 -71.579709 -82.123823 -69.992127 -82.123823 -67.951441 C -82.123823 -65.910754 -82.634135 -64.323689 -83.654479 -63.189974 C -84.618136 -62.05626 -86.091913 -61.489303 -88.075914 -61.489303 C -90.059915 -61.489303 -91.562273 -62.05626 -92.582616 -63.189974 C -93.546273 -64.380375 -94.028006 -65.96744 -94.028006 -67.951441 C -94.028006 -70.048813 -93.546273 -71.664459 -92.582616 -72.798173 C -91.562273 -73.931888 -90.059915 -74.498845 -88.075914 -74.498845 z " /></g></svg>
