<?xml version="1.0" encoding="UTF-8" standalone="no"?>
<!-- Created with Inkscape (http://www.inkscape.org/) -->

<svg
   width="172.6701mm"
   height="172.6701mm"
   viewBox="0 0 172.6701 172.6701"
   version="1.1"
   id="svg1"
   xml:space="preserve"
   xmlns="http://www.w3.org/2000/svg"
   xmlns:svg="http://www.w3.org/2000/svg"><defs
     id="defs1" /><g
     id="layer1"
     transform="translate(157.25102,198.81012)"><path
       id="path5"
       style="fill:#ffffff;fill-opacity:1;stroke-width:0.805188;stroke-linecap:round;stroke-linejoin:round"
       d="M -2.0863309 -198.17657 L -10.088943 -183.11289 L -10.930235 -165.68398 L -19.198981 -165.68398 L -11.423229 -155.47426 L -12.166336 -140.07934 C -28.353216 -157.12094 -50.823548 -166.77435 -74.327399 -166.78417 C -103.64471 -166.77397 -130.92652 -151.79225 -146.66717 -127.05894 L -157.25102 -127.05894 L -149.61996 -115.86014 L -157.25102 -26.140039 L -8.5138455 -26.140039 L 15.419061 -26.140039 L 8.0799737 -154.80195 L 15.419061 -165.68398 L 7.4593397 -165.68398 L 6.4490654 -183.39297 L -2.0863309 -198.17657 z M -83.43072 -192.21621 C -85.584619 -189.65499 -86.77489 -186.4211 -86.795372 -183.07465 C -86.842092 -175.15518 -80.459903 -168.69733 -72.540428 -168.65072 C -64.621155 -168.60402 -58.163395 -174.98588 -58.116503 -182.90515 C -58.102813 -186.26049 -59.266203 -189.5144 -61.404157 -192.10045 C -60.83125 -190.6836 -60.536835 -189.16959 -60.537027 -187.64129 C -60.575787 -181.07411 -65.930869 -175.78172 -72.498054 -175.82031 C -79.065241 -175.85911 -84.357627 -181.21415 -84.319038 -187.78134 C -84.309338 -189.30285 -84.007827 -190.80837 -83.43072 -192.21621 z M -4.8329332 -119.90383 L -2.7922309 -115.65241 C -14.242749 -110.72075 -21.129904 -103.12528 -23.454019 -92.865166 C -20.166246 -94.452366 -17.04876 -95.245899 -14.101101 -95.245899 C -8.4325279 -95.245899 -3.9826155 -93.715477 -0.75152863 -90.654448 C 2.536244 -87.593418 4.1799533 -83.455306 4.1799533 -78.240218 C 4.1799533 -75.009132 3.301713 -72.118221 1.5444553 -69.567363 C -0.15611679 -67.016505 -2.5652951 -65.032415 -5.6830106 -63.615271 C -8.7440403 -62.198128 -12.258552 -61.489303 -16.226553 -61.489303 C -22.972156 -61.489303 -28.158957 -63.360105 -31.786844 -67.101363 C -35.358045 -70.842622 -37.143623 -76.255999 -37.143623 -83.341716 C -37.143623 -92.241376 -34.39458 -99.808775 -28.896064 -106.04421 C -23.340862 -112.33632 -15.319794 -116.95617 -4.8329332 -119.90383 z M -124.21324 -119.73381 C -118.37461 -119.73381 -113.72619 -118.28861 -110.26836 -115.39764 C -106.81053 -112.56335 -105.08159 -108.56711 -105.08159 -103.40871 C -105.08159 -98.873849 -106.81053 -94.026912 -110.26836 -88.86851 C -113.72619 -83.766794 -119.4233 -77.616529 -127.3593 -70.41744 L -104.48628 -70.41744 L -104.48628 -62.084615 L -143.00434 -62.084615 L -143.00434 -67.016097 C -136.71223 -73.081471 -131.80916 -78.268272 -128.29465 -82.576388 C -124.78013 -86.884504 -122.25767 -90.852684 -120.72715 -94.480571 C -119.13995 -98.108458 -118.34642 -101.84955 -118.34642 -105.70418 C -118.34642 -111.82623 -120.38664 -114.88759 -124.46801 -114.88759 C -126.28195 -114.88759 -127.75625 -114.0369 -128.88996 -112.33633 C -130.02368 -110.69244 -130.59012 -108.65171 -130.59012 -106.21422 C -130.59012 -104.51365 -129.99509 -102.89852 -128.80469 -101.36801 C -129.76835 -100.46103 -130.87368 -99.752209 -132.12077 -99.242037 C -133.31117 -98.731866 -134.50173 -98.476709 -135.69213 -98.476709 C -137.73282 -98.476709 -139.43317 -99.10031 -140.79363 -100.3474 C -142.15408 -101.65117 -142.83433 -103.52197 -142.83433 -105.95946 C -142.83433 -108.567 -142.06938 -110.91953 -140.53886 -113.01691 C -139.00835 -115.11428 -136.85432 -116.75799 -134.07672 -117.94839 C -131.24244 -119.13879 -127.9545 -119.73381 -124.21324 -119.73381 z M -54.744615 -119.13901 L -51.938585 -117.86364 L -51.938585 -68.716769 C -50.861556 -68.093226 -49.161203 -67.526269 -46.837088 -67.016097 C -44.512973 -66.562611 -42.670751 -66.279392 -41.310293 -66.16602 L -41.565575 -62.084615 L -76.256997 -62.084615 L -76.086982 -66.16602 C -71.041951 -66.732877 -67.187059 -67.583054 -64.52283 -68.716769 L -64.52283 -109.44555 L -75.916966 -109.44555 L -75.916966 -114.37703 C -72.289079 -114.66046 -68.547475 -115.19935 -64.692845 -115.99295 C -60.838215 -116.84324 -57.522216 -117.89193 -54.744615 -119.13901 z M -89.351289 -101.28274 C -87.367288 -101.28274 -85.893511 -100.68772 -84.929853 -99.497319 C -83.90951 -98.363604 -83.399197 -96.776539 -83.399197 -94.735852 C -83.399197 -92.695166 -83.90951 -91.107584 -84.929853 -89.973869 C -85.893511 -88.840154 -87.367288 -88.273198 -89.351289 -88.273198 C -91.335289 -88.273198 -92.837647 -88.840154 -93.85799 -89.973869 C -94.821648 -91.16427 -95.30338 -92.751852 -95.30338 -94.735852 C -95.30338 -96.833225 -94.821648 -98.448354 -93.85799 -99.582068 C -92.837647 -100.71578 -91.335289 -101.28274 -89.351289 -101.28274 z M -16.481835 -89.293807 C -18.862635 -89.293807 -21.441746 -88.330343 -24.219347 -86.403028 L -24.219347 -85.297669 C -24.219347 -79.118924 -23.539102 -74.583787 -22.178645 -71.692814 C -20.818187 -68.801842 -18.664165 -67.356645 -15.716507 -67.356645 C -13.27902 -67.356645 -11.408735 -68.291529 -10.104963 -70.162159 C -8.801191 -72.032788 -8.1490099 -74.697123 -8.1490099 -78.154952 C -8.1490099 -81.669468 -8.8858986 -84.390447 -10.359728 -86.317762 C -11.776871 -88.301762 -13.817605 -89.293807 -16.481835 -89.293807 z M -89.351289 -74.498845 C -87.367288 -74.498845 -85.893511 -73.903824 -84.929853 -72.713424 C -83.90951 -71.579709 -83.399197 -69.992127 -83.399197 -67.951441 C -83.399197 -65.910754 -83.90951 -64.323689 -84.929853 -63.189974 C -85.893511 -62.05626 -87.367288 -61.489303 -89.351289 -61.489303 C -91.335289 -61.489303 -92.837647 -62.05626 -93.85799 -63.189974 C -94.821648 -64.380375 -95.30338 -65.96744 -95.30338 -67.951441 C -95.30338 -70.048813 -94.821648 -71.664459 -93.85799 -72.798173 C -92.837647 -73.931888 -91.335289 -74.498845 -89.351289 -74.498845 z " /></g></svg>
