<?xml version="1.0" encoding="UTF-8" standalone="no"?>
<!-- Created with Inkscape (http://www.inkscape.org/) -->

<svg
   width="172.6701mm"
   height="172.6701mm"
   viewBox="0 0 172.6701 172.6701"
   version="1.1"
   id="svg1"
   xml:space="preserve"
   xmlns="http://www.w3.org/2000/svg"
   xmlns:svg="http://www.w3.org/2000/svg"><defs
     id="defs1" /><g
     id="layer1"
     transform="translate(157.25102,198.81012)"><path
       id="path5"
       style="fill:#ffffff;fill-opacity:1;stroke-width:0.805188;stroke-linecap:round;stroke-linejoin:round"
       d="M -2.0863309 -198.17657 L -10.088943 -183.11289 L -10.930235 -165.68398 L -19.198981 -165.68398 L -11.423229 -155.47426 L -12.166336 -140.07934 C -28.353216 -157.12094 -50.823548 -166.77435 -74.327399 -166.78417 C -103.64471 -166.77397 -130.92652 -151.79225 -146.66717 -127.05894 L -157.25102 -127.05894 L -149.61996 -115.86014 L -157.25102 -26.140039 L -8.5138455 -26.140039 L 15.419061 -26.140039 L 8.0799737 -154.80195 L 15.419061 -165.68398 L 7.4593397 -165.68398 L 6.4490654 -183.39297 L -2.0863309 -198.17657 z M -83.43072 -192.21621 C -85.584619 -189.65499 -86.77489 -186.4211 -86.795372 -183.07465 C -86.842092 -175.15518 -80.459903 -168.69733 -72.540428 -168.65072 C -64.621155 -168.60402 -58.163395 -174.98588 -58.116503 -182.90515 C -58.102813 -186.26049 -59.266203 -189.5144 -61.404157 -192.10045 C -60.83125 -190.6836 -60.536835 -189.16959 -60.537027 -187.64129 C -60.575787 -181.07411 -65.930869 -175.78172 -72.498054 -175.82031 C -79.065241 -175.85911 -84.357627 -181.21415 -84.319038 -187.78134 C -84.309338 -189.30285 -84.007827 -190.80837 -83.43072 -192.21621 z M -122.34256 -119.73381 C -116.50393 -119.73381 -111.8555 -118.28861 -108.39767 -115.39764 C -104.93984 -112.56335 -103.21091 -108.56711 -103.21091 -103.40871 C -103.21091 -98.873849 -104.93984 -94.026912 -108.39767 -88.86851 C -111.8555 -83.766794 -117.55261 -77.616529 -125.48862 -70.41744 L -102.61611 -70.41744 L -102.61611 -62.084615 L -141.13366 -62.084615 L -141.13366 -67.016097 C -134.84154 -73.081471 -129.93848 -78.268272 -126.42396 -82.576388 C -122.90945 -86.884504 -120.38698 -90.852684 -118.85646 -94.480571 C -117.26926 -98.108458 -116.47573 -101.84955 -116.47573 -105.70418 C -116.47573 -111.82623 -118.51647 -114.88759 -122.59784 -114.88759 C -124.41178 -114.88759 -125.88556 -114.0369 -127.01927 -112.33633 C -128.15299 -110.69244 -128.71943 -108.65171 -128.71943 -106.21422 C -128.71943 -104.51365 -128.12441 -102.89852 -126.93401 -101.36801 C -127.89766 -100.46103 -129.003 -99.752209 -130.25008 -99.242037 C -131.44048 -98.731866 -132.63104 -98.476709 -133.82144 -98.476709 C -135.86213 -98.476709 -137.56248 -99.10031 -138.92294 -100.3474 C -140.2834 -101.65117 -140.96364 -103.52197 -140.96364 -105.95946 C -140.96364 -108.567 -140.19869 -110.91953 -138.66817 -113.01691 C -137.13766 -115.11428 -134.98364 -116.75799 -132.20604 -117.94839 C -129.37175 -119.13879 -126.08381 -119.73381 -122.34256 -119.73381 z M -52.873929 -119.13901 L -50.067898 -117.86364 L -50.067898 -68.716769 C -48.990869 -68.093226 -47.290516 -67.526269 -44.966401 -67.016097 C -42.642286 -66.562611 -40.800064 -66.279392 -39.439606 -66.16602 L -39.694888 -62.084615 L -74.386311 -62.084615 L -74.216295 -66.16602 C -69.171265 -66.732877 -65.316373 -67.583054 -62.652143 -68.716769 L -62.652143 -109.44555 L -74.04628 -109.44555 L -74.04628 -114.37703 C -70.418393 -114.66046 -66.677305 -115.19935 -62.822675 -115.99295 C -58.968045 -116.84324 -55.65153 -117.89193 -52.873929 -119.13901 z M -35.018171 -118.88373 L -30.8515 -118.88373 C -28.697442 -118.82705 -23.99289 -118.79847 -16.737116 -118.79847 C -9.1979134 -118.79847 -4.2943324 -118.82705 -2.026903 -118.88373 L 2.0545016 -118.88373 L 3.755173 -115.22762 C 2.6781441 -113.52705 0.63741006 -109.84261 -2.3669339 -104.17404 C -5.3712779 -98.505463 -8.2055445 -92.496548 -10.869774 -86.147746 C -13.534004 -79.798944 -14.866429 -74.838719 -14.866429 -71.267517 C -14.866429 -68.433231 -13.874384 -66.307789 -11.890384 -64.890646 C -13.817699 -62.566531 -16.283521 -61.404554 -19.287865 -61.404554 C -22.065466 -61.404554 -24.219488 -62.169506 -25.750003 -63.700021 C -27.280518 -65.230536 -28.045987 -67.356494 -28.045987 -70.077409 C -28.045987 -73.478553 -27.223874 -77.077772 -25.579987 -80.875717 C -23.936101 -84.730347 -20.988546 -89.945728 -16.737116 -96.521273 L -6.7036201 -111.9963 L -26.090034 -111.9963 C -26.883634 -109.44544 -27.365366 -106.44124 -27.535423 -102.98341 C -28.555767 -102.81335 -29.604456 -102.72813 -30.681485 -102.72813 C -31.815199 -102.72813 -32.920532 -102.81335 -33.997561 -102.98341 L -36.378295 -117.60836 L -35.018171 -118.88373 z M -87.480602 -101.28274 C -85.496601 -101.28274 -84.022824 -100.68772 -83.059166 -99.497319 C -82.038823 -98.363604 -81.529027 -96.776539 -81.529027 -94.735852 C -81.529027 -92.695166 -82.038823 -91.107584 -83.059166 -89.973869 C -84.022824 -88.840154 -85.496601 -88.273198 -87.480602 -88.273198 C -89.464602 -88.273198 -90.96696 -88.840154 -91.987303 -89.973869 C -92.950961 -91.16427 -93.432693 -92.751852 -93.432693 -94.735852 C -93.432693 -96.833225 -92.950961 -98.448354 -91.987303 -99.582068 C -90.96696 -100.71578 -89.464602 -101.28274 -87.480602 -101.28274 z M -87.480602 -74.498845 C -85.496601 -74.498845 -84.022824 -73.903824 -83.059166 -72.713424 C -82.038823 -71.579709 -81.529027 -69.992127 -81.529027 -67.951441 C -81.529027 -65.910754 -82.038823 -64.323689 -83.059166 -63.189974 C -84.022824 -62.05626 -85.496601 -61.489303 -87.480602 -61.489303 C -89.464602 -61.489303 -90.96696 -62.05626 -91.987303 -63.189974 C -92.950961 -64.380375 -93.432693 -65.96744 -93.432693 -67.951441 C -93.432693 -70.048813 -92.950961 -71.664459 -91.987303 -72.798173 C -90.96696 -73.931888 -89.464602 -74.498845 -87.480602 -74.498845 z " /></g></svg>
