<?xml version="1.0" encoding="UTF-8" standalone="no"?>
<!-- Created with Inkscape (http://www.inkscape.org/) -->

<svg
   width="172.6701mm"
   height="172.6701mm"
   viewBox="0 0 172.6701 172.6701"
   version="1.1"
   id="svg1"
   xml:space="preserve"
   xmlns="http://www.w3.org/2000/svg"
   xmlns:svg="http://www.w3.org/2000/svg"><defs
     id="defs1" /><g
     id="layer1"
     transform="translate(157.25102,198.81012)"><path
       id="path5"
       style="fill:#ffffff;fill-opacity:1;stroke-width:0.805188;stroke-linecap:round;stroke-linejoin:round"
       d="M -2.0863309 -198.17657 L -10.088943 -183.11289 L -10.930235 -165.68398 L -19.198981 -165.68398 L -11.423229 -155.47426 L -12.166336 -140.07934 C -28.353216 -157.12094 -50.823548 -166.77435 -74.327399 -166.78417 C -103.64471 -166.77397 -130.92652 -151.79225 -146.66717 -127.05894 L -157.25102 -127.05894 L -149.61996 -115.86014 L -157.25102 -26.140039 L -8.5138455 -26.140039 L 15.419061 -26.140039 L 8.0799737 -154.80195 L 15.419061 -165.68398 L 7.4593397 -165.68398 L 6.4490654 -183.39297 L -2.0863309 -198.17657 z M -83.43072 -192.21621 C -85.584619 -189.65499 -86.77489 -186.4211 -86.795372 -183.07465 C -86.842092 -175.15518 -80.459903 -168.69733 -72.540428 -168.65072 C -64.621155 -168.60402 -58.163395 -174.98588 -58.116503 -182.90515 C -58.102813 -186.26049 -59.266203 -189.5144 -61.404157 -192.10045 C -60.83125 -190.6836 -60.536835 -189.16959 -60.537027 -187.64129 C -60.575787 -181.07411 -65.930869 -175.78172 -72.498054 -175.82031 C -79.065241 -175.85911 -84.357627 -181.21415 -84.319038 -187.78134 C -84.309338 -189.30285 -84.007827 -190.80837 -83.43072 -192.21621 z M -16.65185 -119.81908 C -10.699848 -119.81908 -5.9667156 -118.54381 -2.4522 -115.99295 C 1.0623156 -113.44209 2.8198296 -110.01229 2.8198296 -105.70418 C 2.8198296 -103.38006 1.9691362 -101.05611 0.26856415 -98.731991 C -1.4320079 -96.407876 -3.6707375 -94.50901 -6.4483385 -93.035181 C -2.9338229 -91.334609 -0.18478066 -89.350519 1.7992201 -87.08309 C 3.8399065 -84.81566 4.8605319 -81.896169 4.8605319 -78.324968 C 4.8605319 -73.166566 2.9897299 -69.057034 -0.75152863 -65.996005 C -4.4927871 -62.991661 -9.5377198 -61.489303 -15.886522 -61.489303 C -22.858868 -61.489303 -28.244181 -62.878373 -32.042125 -65.655974 C -35.783384 -68.433575 -37.654186 -72.401238 -37.654186 -77.55964 C -37.654186 -80.223869 -36.803492 -82.86014 -35.10292 -85.467684 C -33.402348 -88.131914 -31.02175 -90.483931 -27.960721 -92.524618 C -30.511579 -93.941761 -32.495669 -95.642631 -33.912812 -97.626632 C -35.329955 -99.610633 -36.038264 -102.07646 -36.038264 -105.02411 C -36.038264 -109.55897 -34.281266 -113.15871 -30.766751 -115.82294 C -27.252235 -118.48717 -22.547167 -119.81908 -16.65185 -119.81908 z M -124.97857 -119.73381 C -119.13994 -119.73381 -114.49152 -118.28861 -111.03369 -115.39764 C -107.57586 -112.56335 -105.84692 -108.56711 -105.84692 -103.40871 C -105.84692 -98.873849 -107.57586 -94.026912 -111.03369 -88.86851 C -114.49152 -83.766794 -120.18863 -77.616529 -128.12463 -70.41744 L -105.25161 -70.41744 L -105.25161 -62.084615 L -143.76967 -62.084615 L -143.76967 -67.016097 C -137.47756 -73.081471 -132.57449 -78.268272 -129.05998 -82.576388 C -125.54546 -86.884504 -123.02299 -90.852684 -121.49248 -94.480571 C -119.90528 -98.108458 -119.11123 -101.84955 -119.11123 -105.70418 C -119.11123 -111.82623 -121.15196 -114.88759 -125.23334 -114.88759 C -127.04728 -114.88759 -128.52106 -114.0369 -129.65477 -112.33633 C -130.78849 -110.69244 -131.35544 -108.65171 -131.35544 -106.21422 C -131.35544 -104.51365 -130.76042 -102.89852 -129.57002 -101.36801 C -130.53368 -100.46103 -131.63901 -99.752209 -132.8861 -99.242037 C -134.0765 -98.731866 -135.26706 -98.476709 -136.45746 -98.476709 C -138.49814 -98.476709 -140.1985 -99.10031 -141.55895 -100.3474 C -142.91941 -101.65117 -143.59966 -103.52197 -143.59966 -105.95946 C -143.59966 -108.567 -142.83419 -110.91953 -141.30367 -113.01691 C -139.77316 -115.11428 -137.61914 -116.75799 -134.84154 -117.94839 C -132.00725 -119.13879 -128.71983 -119.73381 -124.97857 -119.73381 z M -55.509943 -119.13901 L -52.703913 -117.86364 L -52.703913 -68.716769 C -51.626884 -68.093226 -49.926531 -67.526269 -47.602416 -67.016097 C -45.278301 -66.562611 -43.436079 -66.279392 -42.075621 -66.16602 L -42.330386 -62.084615 L -77.022325 -62.084615 L -76.85231 -66.16602 C -71.807279 -66.732877 -67.952387 -67.583054 -65.288158 -68.716769 L -65.288158 -109.44555 L -76.682294 -109.44555 L -76.682294 -114.37703 C -73.054407 -114.66046 -69.312803 -115.19935 -65.458173 -115.99295 C -61.603543 -116.84324 -58.287544 -117.89193 -55.509943 -119.13901 z M -16.65185 -113.78224 C -18.919279 -113.78224 -20.704857 -113.04535 -22.008629 -111.57152 C -23.312401 -110.15437 -23.964582 -108.22693 -23.964582 -105.78944 C -23.964582 -103.63538 -23.142469 -101.84981 -21.498583 -100.43266 C -19.798011 -99.072205 -17.332188 -97.711715 -14.101101 -96.351258 C -12.683958 -97.314915 -11.550045 -98.646824 -10.699759 -100.3474 C -9.8494726 -102.04797 -9.4243843 -103.86213 -9.4243843 -105.78944 C -9.4243843 -108.22693 -10.104629 -110.15437 -11.465087 -111.57152 C -12.768858 -113.04535 -14.497792 -113.78224 -16.65185 -113.78224 z M -90.116617 -101.28274 C -88.132616 -101.28274 -86.658838 -100.68772 -85.695181 -99.497319 C -84.674838 -98.363604 -84.164525 -96.776539 -84.164525 -94.735852 C -84.164525 -92.695166 -84.674838 -91.107584 -85.695181 -89.973869 C -86.658838 -88.840154 -88.132616 -88.273198 -90.116617 -88.273198 C -92.100617 -88.273198 -93.602975 -88.840154 -94.623318 -89.973869 C -95.586976 -91.16427 -96.068708 -92.751852 -96.068708 -94.735852 C -96.068708 -96.833225 -95.586976 -98.448354 -94.623318 -99.582068 C -93.602975 -100.71578 -92.100617 -101.28274 -90.116617 -101.28274 z M -20.137942 -89.038526 C -21.838514 -87.678068 -23.085716 -86.119583 -23.879316 -84.362325 C -24.672916 -82.605068 -25.069941 -80.50769 -25.069941 -78.070203 C -25.069941 -74.725745 -24.247828 -72.089474 -22.603942 -70.162159 C -20.960055 -68.291529 -18.720809 -67.356645 -15.886522 -67.356645 C -13.108921 -67.356645 -10.954899 -68.291529 -9.4243843 -70.162159 C -7.8371837 -72.032788 -7.043651 -74.640479 -7.043651 -77.984937 C -7.043651 -79.855566 -7.6386713 -81.442631 -8.8290718 -82.746403 C -9.9627865 -84.106861 -11.4085 -85.212194 -13.165758 -86.06248 C -14.923016 -86.969452 -17.24697 -87.961497 -20.137942 -89.038526 z M -90.116617 -74.498845 C -88.132616 -74.498845 -86.658838 -73.903824 -85.695181 -72.713424 C -84.674838 -71.579709 -84.164525 -69.992127 -84.164525 -67.951441 C -84.164525 -65.910754 -84.674838 -64.323689 -85.695181 -63.189974 C -86.658838 -62.05626 -88.132616 -61.489303 -90.116617 -61.489303 C -92.100617 -61.489303 -93.602975 -62.05626 -94.623318 -63.189974 C -95.586976 -64.380375 -96.068708 -65.96744 -96.068708 -67.951441 C -96.068708 -70.048813 -95.586976 -71.664459 -94.623318 -72.798173 C -93.602975 -73.931888 -92.100617 -74.498845 -90.116617 -74.498845 z " /></g></svg>
