<?xml version="1.0" encoding="UTF-8" standalone="no"?>
<!-- Created with Inkscape (http://www.inkscape.org/) -->

<svg
   width="172.6701mm"
   height="172.6701mm"
   viewBox="0 0 172.6701 172.6701"
   version="1.1"
   id="svg1"
   xml:space="preserve"
   xmlns="http://www.w3.org/2000/svg"
   xmlns:svg="http://www.w3.org/2000/svg"><defs
     id="defs1" /><g
     id="layer1"
     transform="translate(157.25102,198.81012)"><path
       id="path5"
       style="fill:#ffffff;fill-opacity:1;stroke-width:0.805188;stroke-linecap:round;stroke-linejoin:round"
       d="M -2.0863309 -198.17657 L -10.088943 -183.11289 L -10.930235 -165.68398 L -19.198981 -165.68398 L -11.423229 -155.47426 L -12.166336 -140.07934 C -28.353216 -157.12094 -50.823548 -166.77435 -74.327399 -166.78417 C -103.64471 -166.77397 -130.92652 -151.79225 -146.66717 -127.05894 L -157.25102 -127.05894 L -149.61996 -115.86014 L -157.25102 -26.140039 L -8.5138455 -26.140039 L 15.419061 -26.140039 L 8.0799737 -154.80195 L 15.419061 -165.68398 L 7.4593397 -165.68398 L 6.4490654 -183.39297 L -2.0863309 -198.17657 z M -83.43072 -192.21621 C -85.584619 -189.65499 -86.77489 -186.4211 -86.795372 -183.07465 C -86.842092 -175.15518 -80.459903 -168.69733 -72.540428 -168.65072 C -64.621155 -168.60402 -58.163395 -174.98588 -58.116503 -182.90515 C -58.102813 -186.26049 -59.266203 -189.5144 -61.404157 -192.10045 C -60.83125 -190.6836 -60.536835 -189.16959 -60.537027 -187.64129 C -60.575787 -181.07411 -65.930869 -175.78172 -72.498054 -175.82031 C -79.065241 -175.85911 -84.357627 -181.21415 -84.319038 -187.78134 C -84.309338 -189.30285 -84.007827 -190.80837 -83.43072 -192.21621 z M -124.04323 -119.73381 C -118.2046 -119.73381 -113.55617 -118.28861 -110.09834 -115.39764 C -106.64051 -112.56335 -104.91158 -108.56711 -104.91158 -103.40871 C -104.91158 -98.873849 -106.64051 -94.026912 -110.09834 -88.86851 C -113.55617 -83.766794 -119.25329 -77.616529 -127.18929 -70.41744 L -104.31627 -70.41744 L -104.31627 -62.084615 L -142.83433 -62.084615 L -142.83433 -67.016097 C -136.54221 -73.081471 -131.63915 -78.268272 -128.12463 -82.576388 C -124.61012 -86.884504 -122.08765 -90.852684 -120.55714 -94.480571 C -118.96994 -98.108458 -118.1764 -101.84955 -118.1764 -105.70418 C -118.1764 -111.82623 -120.21662 -114.88759 -124.29799 -114.88759 C -126.11194 -114.88759 -127.58623 -114.0369 -128.71994 -112.33633 C -129.85366 -110.69244 -130.4201 -108.65171 -130.4201 -106.21422 C -130.4201 -104.51365 -129.82508 -102.89852 -128.63468 -101.36801 C -129.59834 -100.46103 -130.70367 -99.752209 -131.95076 -99.242037 C -133.14116 -98.731866 -134.33171 -98.476709 -135.52211 -98.476709 C -137.5628 -98.476709 -139.26315 -99.10031 -140.62361 -100.3474 C -141.98407 -101.65117 -142.66431 -103.52197 -142.66431 -105.95946 C -142.66431 -108.567 -141.89936 -110.91953 -140.36885 -113.01691 C -138.83833 -115.11428 -136.68379 -116.75799 -133.90619 -117.94839 C -131.0719 -119.13879 -127.78449 -119.73381 -124.04323 -119.73381 z M -16.821866 -119.56379 C -10.076263 -119.56379 -4.9180424 -117.69351 -1.3468411 -113.95225 C 2.2810459 -110.21099 4.095204 -104.7971 4.095204 -97.711381 C 4.095204 -88.811721 1.3175813 -81.216258 -4.2376207 -74.924142 C -9.7361371 -68.688711 -17.729141 -64.09693 -28.216002 -61.149272 L -30.256704 -65.400692 C -24.588131 -67.838179 -20.024931 -70.956182 -16.567101 -74.754126 C -13.109271 -78.608756 -10.813381 -83.086732 -9.6796658 -88.188448 C -12.854067 -86.601248 -15.94349 -85.807715 -18.947834 -85.807715 C -24.616407 -85.807715 -29.094383 -87.338137 -32.382156 -90.399166 C -35.613243 -93.460196 -37.228889 -97.598308 -37.228889 -102.8134 C -37.228889 -106.04448 -36.378712 -108.93539 -34.67814 -111.48625 C -32.920882 -114.03711 -30.511704 -116.0212 -27.450674 -117.43834 C -24.332959 -118.85549 -20.789867 -119.56379 -16.821866 -119.56379 z M -54.5746 -119.13901 L -51.76857 -117.86364 L -51.76857 -68.716769 C -50.691541 -68.093226 -48.991187 -67.526269 -46.667072 -67.016097 C -44.342957 -66.562611 -42.500735 -66.279392 -41.140278 -66.16602 L -41.395043 -62.084615 L -76.086982 -62.084615 L -75.916966 -66.16602 C -70.871936 -66.732877 -67.017044 -67.583054 -64.352814 -68.716769 L -64.352814 -109.44555 L -75.746951 -109.44555 L -75.746951 -114.37703 C -72.119064 -114.66046 -68.37746 -115.19935 -64.52283 -115.99295 C -60.6682 -116.84324 -57.352201 -117.89193 -54.5746 -119.13901 z M -17.331912 -113.69697 C -19.769399 -113.69697 -21.640201 -112.76157 -22.943972 -110.89094 C -24.247744 -109.02031 -24.899925 -106.35597 -24.899925 -102.89814 C -24.899925 -99.383629 -24.1911 -96.634587 -22.773957 -94.650586 C -21.300128 -92.723271 -19.23133 -91.759807 -16.567101 -91.759807 C -14.242986 -91.759807 -11.663359 -92.723271 -8.8290718 -94.650586 L -8.8290718 -95.755945 C -8.8290718 -101.93469 -9.5093164 -106.46931 -10.869774 -109.36028 C -12.230232 -112.25126 -14.384254 -113.69697 -17.331912 -113.69697 z M -89.181273 -101.28274 C -87.197272 -101.28274 -85.723495 -100.68772 -84.759838 -99.497319 C -83.739494 -98.363604 -83.229182 -96.776539 -83.229182 -94.735852 C -83.229182 -92.695166 -83.739494 -91.107584 -84.759838 -89.973869 C -85.723495 -88.840154 -87.197272 -88.273198 -89.181273 -88.273198 C -91.165274 -88.273198 -92.667632 -88.840154 -93.687975 -89.973869 C -94.651632 -91.16427 -95.133365 -92.751852 -95.133365 -94.735852 C -95.133365 -96.833225 -94.651632 -98.448354 -93.687975 -99.582068 C -92.667632 -100.71578 -91.165274 -101.28274 -89.181273 -101.28274 z M -89.181273 -74.498845 C -87.197272 -74.498845 -85.723495 -73.903824 -84.759838 -72.713424 C -83.739494 -71.579709 -83.229182 -69.992127 -83.229182 -67.951441 C -83.229182 -65.910754 -83.739494 -64.323689 -84.759838 -63.189974 C -85.723495 -62.05626 -87.197272 -61.489303 -89.181273 -61.489303 C -91.165274 -61.489303 -92.667632 -62.05626 -93.687975 -63.189974 C -94.651632 -64.380375 -95.133365 -65.96744 -95.133365 -67.951441 C -95.133365 -70.048813 -94.651632 -71.664459 -93.687975 -72.798173 C -92.667632 -73.931888 -91.165274 -74.498845 -89.181273 -74.498845 z " /></g></svg>
