<?xml version="1.0" encoding="UTF-8" standalone="no"?>
<!-- Created with Inkscape (http://www.inkscape.org/) -->

<svg
   width="172.6701mm"
   height="172.6701mm"
   viewBox="0 0 172.6701 172.6701"
   version="1.1"
   id="svg1"
   xml:space="preserve"
   xmlns="http://www.w3.org/2000/svg"
   xmlns:svg="http://www.w3.org/2000/svg"><defs
     id="defs1" /><g
     id="layer1"
     transform="translate(157.25102,198.81012)"><path
       id="path5"
       style="fill:#ffffff;fill-opacity:1;stroke-width:0.805188;stroke-linecap:round;stroke-linejoin:round"
       d="M -2.0863309 -198.17657 L -10.088943 -183.11289 L -10.930235 -165.68398 L -19.198981 -165.68398 L -11.423229 -155.47426 L -12.166336 -140.07934 C -28.353216 -157.12094 -50.823548 -166.77435 -74.327399 -166.78417 C -103.64471 -166.77397 -130.92652 -151.79225 -146.66717 -127.05894 L -157.25102 -127.05894 L -149.61996 -115.86014 L -157.25102 -26.140039 L -8.5138455 -26.140039 L 15.419061 -26.140039 L 8.0799737 -154.80195 L 15.419061 -165.68398 L 7.4593397 -165.68398 L 6.4490654 -183.39297 L -2.0863309 -198.17657 z M -83.43072 -192.21621 C -85.584619 -189.65499 -86.77489 -186.4211 -86.795372 -183.07465 C -86.842092 -175.15518 -80.459903 -168.69733 -72.540428 -168.65072 C -64.621155 -168.60402 -58.163395 -174.98588 -58.116503 -182.90515 C -58.102813 -186.26049 -59.266203 -189.5144 -61.404157 -192.10045 C -60.83125 -190.6836 -60.536835 -189.16959 -60.537027 -187.64129 C -60.575787 -181.07411 -65.930869 -175.78172 -72.498054 -175.82031 C -79.065241 -175.85911 -84.357627 -181.21415 -84.319038 -187.78134 C -84.309338 -189.30285 -84.007827 -190.80837 -83.43072 -192.21621 z M -126.08393 -119.73381 C -120.2453 -119.73381 -115.59687 -118.28861 -112.13904 -115.39764 C -108.68122 -112.56335 -106.95228 -108.56711 -106.95228 -103.40871 C -106.95228 -98.873849 -108.68122 -94.026912 -112.13904 -88.86851 C -115.59687 -83.766794 -121.29399 -77.616529 -129.22999 -70.41744 L -106.35697 -70.41744 L -106.35697 -62.084615 L -144.87503 -62.084615 L -144.87503 -67.016097 C -138.58291 -73.081471 -133.67985 -78.268272 -130.16533 -82.576388 C -126.65082 -86.884504 -124.12835 -90.852684 -122.59784 -94.480571 C -121.01064 -98.108458 -120.2171 -101.84955 -120.2171 -105.70418 C -120.2171 -111.82623 -122.25732 -114.88759 -126.33869 -114.88759 C -128.15264 -114.88759 -129.62693 -114.0369 -130.76065 -112.33633 C -131.89436 -110.69244 -132.4608 -108.65171 -132.4608 -106.21422 C -132.4608 -104.51365 -131.86578 -102.89852 -130.67538 -101.36801 C -131.63904 -100.46103 -132.74437 -99.752209 -133.99146 -99.242037 C -135.18186 -98.731866 -136.37242 -98.476709 -137.56282 -98.476709 C -139.6035 -98.476709 -141.30386 -99.10031 -142.66431 -100.3474 C -144.02477 -101.65117 -144.70502 -103.52197 -144.70502 -105.95946 C -144.70502 -108.567 -143.94006 -110.91953 -142.40955 -113.01691 C -140.87903 -115.11428 -138.7245 -116.75799 -135.94689 -117.94839 C -133.11261 -119.13879 -129.82519 -119.73381 -126.08393 -119.73381 z M -59.166051 -119.73381 C -53.32742 -119.73381 -48.679512 -118.28861 -45.221682 -115.39764 C -41.763853 -112.56335 -40.034919 -108.56711 -40.034919 -103.40871 C -40.034919 -98.873849 -41.763853 -94.026912 -45.221682 -88.86851 C -48.679512 -83.766794 -54.376109 -77.616529 -62.312112 -70.41744 L -39.439606 -70.41744 L -39.439606 -62.084615 L -77.957669 -62.084615 L -77.957669 -67.016097 C -71.665552 -73.081471 -66.761971 -78.268272 -63.247456 -82.576388 C -59.73294 -86.884504 -57.210474 -90.852684 -55.679959 -94.480571 C -54.092758 -98.108458 -53.299226 -101.84955 -53.299226 -105.70418 C -53.299226 -111.82623 -55.33996 -114.88759 -59.421333 -114.88759 C -61.235276 -114.88759 -62.709053 -114.0369 -63.842768 -112.33633 C -64.976483 -110.69244 -65.543439 -108.65171 -65.543439 -106.21422 C -65.543439 -104.51365 -64.948419 -102.89852 -63.758019 -101.36801 C -64.721676 -100.46103 -65.827009 -99.752209 -67.074095 -99.242037 C -68.264496 -98.731866 -69.454536 -98.476709 -70.644937 -98.476709 C -72.685623 -98.476709 -74.386493 -99.10031 -75.746951 -100.3474 C -77.107409 -101.65117 -77.787653 -103.52197 -77.787653 -105.95946 C -77.787653 -108.567 -77.022184 -110.91953 -75.491669 -113.01691 C -73.961155 -115.11428 -71.807133 -116.75799 -69.029532 -117.94839 C -66.195245 -119.13879 -62.907309 -119.73381 -59.166051 -119.73381 z M -14.271117 -119.64906 C -7.6388858 -119.64906 -2.5653728 -117.15466 0.94914276 -112.16631 C 4.5203441 -107.23465 6.3059217 -100.06428 6.3059217 -90.654448 C 6.3059217 -81.244616 4.5203441 -74.017081 0.94914276 -68.97205 C -2.5653728 -63.983706 -7.6388858 -61.489303 -14.271117 -61.489303 C -20.903348 -61.489303 -26.004924 -63.983706 -29.576126 -68.97205 C -33.147327 -74.017081 -34.932905 -81.244616 -34.932905 -90.654448 C -34.932905 -100.00759 -33.147327 -107.17797 -29.576126 -112.16631 C -26.004924 -117.15466 -20.903348 -119.64906 -14.271117 -119.64906 z M -14.271117 -115.31237 C -17.162089 -115.31237 -19.259467 -113.41351 -20.563239 -109.61556 C -21.810325 -105.81762 -22.433926 -99.497422 -22.433926 -90.654448 C -22.433926 -81.868159 -21.810325 -75.576025 -20.563239 -71.778081 C -19.259467 -68.036822 -17.162089 -66.16602 -14.271117 -66.16602 C -11.380144 -66.16602 -9.3113467 -68.036822 -8.0642606 -71.778081 C -6.7604887 -75.576025 -6.1083076 -81.868159 -6.1083076 -90.654448 C -6.1083076 -99.440737 -6.7604887 -105.73287 -8.0642606 -109.53081 C -9.3113467 -113.38544 -11.380144 -115.31237 -14.271117 -115.31237 z M -91.221975 -101.28274 C -89.237975 -101.28274 -87.764197 -100.68772 -86.80054 -99.497319 C -85.780197 -98.363604 -85.269884 -96.776539 -85.269884 -94.735852 C -85.269884 -92.695166 -85.780197 -91.107584 -86.80054 -89.973869 C -87.764197 -88.840154 -89.237975 -88.273198 -91.221975 -88.273198 C -93.205976 -88.273198 -94.708334 -88.840154 -95.728677 -89.973869 C -96.692335 -91.16427 -97.174067 -92.751852 -97.174067 -94.735852 C -97.174067 -96.833225 -96.692335 -98.448354 -95.728677 -99.582068 C -94.708334 -100.71578 -93.205976 -101.28274 -91.221975 -101.28274 z M -91.221975 -74.498845 C -89.237975 -74.498845 -87.764197 -73.903824 -86.80054 -72.713424 C -85.780197 -71.579709 -85.269884 -69.992127 -85.269884 -67.951441 C -85.269884 -65.910754 -85.780197 -64.323689 -86.80054 -63.189974 C -87.764197 -62.05626 -89.237975 -61.489303 -91.221975 -61.489303 C -93.205976 -61.489303 -94.708334 -62.05626 -95.728677 -63.189974 C -96.692335 -64.380375 -97.174067 -65.96744 -97.174067 -67.951441 C -97.174067 -70.048813 -96.692335 -71.664459 -95.728677 -72.798173 C -94.708334 -73.931888 -93.205976 -74.498845 -91.221975 -74.498845 z " /></g></svg>
