<?xml version="1.0" encoding="UTF-8" standalone="no"?>
<!-- Created with Inkscape (http://www.inkscape.org/) -->

<svg
   width="172.6701mm"
   height="172.6701mm"
   viewBox="0 0 172.6701 172.6701"
   version="1.1"
   id="svg1"
   xml:space="preserve"
   xmlns="http://www.w3.org/2000/svg"
   xmlns:svg="http://www.w3.org/2000/svg"><defs
     id="defs1" /><g
     id="layer1"
     transform="translate(157.25102,198.81012)"><path
       id="path5"
       style="fill:#ffffff;fill-opacity:1;stroke-width:0.805188;stroke-linecap:round;stroke-linejoin:round"
       d="M -2.0863309 -198.17657 L -10.088943 -183.11289 L -10.930235 -165.68398 L -19.198981 -165.68398 L -11.423229 -155.47426 L -12.166336 -140.07934 C -28.353216 -157.12094 -50.823548 -166.77435 -74.327399 -166.78417 C -103.64471 -166.77397 -130.92652 -151.79225 -146.66717 -127.05894 L -157.25102 -127.05894 L -149.61996 -115.86014 L -157.25102 -26.140039 L -8.5138455 -26.140039 L 15.419061 -26.140039 L 8.0799737 -154.80195 L 15.419061 -165.68398 L 7.4593397 -165.68398 L 6.4490654 -183.39297 L -2.0863309 -198.17657 z M -83.43072 -192.21621 C -85.584619 -189.65499 -86.77489 -186.4211 -86.795372 -183.07465 C -86.842092 -175.15518 -80.459903 -168.69733 -72.540428 -168.65072 C -64.621155 -168.60402 -58.163395 -174.98588 -58.116503 -182.90515 C -58.102813 -186.26049 -59.266203 -189.5144 -61.404157 -192.10045 C -60.83125 -190.6836 -60.536835 -189.16959 -60.537027 -187.64129 C -60.575787 -181.07411 -65.930869 -175.78172 -72.498054 -175.82031 C -79.065241 -175.85911 -84.357627 -181.21415 -84.319038 -187.78134 C -84.309338 -189.30285 -84.007827 -190.80837 -83.43072 -192.21621 z M -122.89498 -119.73381 C -117.05635 -119.73381 -112.40844 -118.28861 -108.95061 -115.39764 C -105.49278 -112.56335 -103.76385 -108.56711 -103.76385 -103.40871 C -103.76385 -98.873849 -105.49278 -94.026912 -108.95061 -88.86851 C -112.40844 -83.766794 -118.10504 -77.616529 -126.04104 -70.41744 L -103.16853 -70.41744 L -103.16853 -62.084615 L -141.6866 -62.084615 L -141.6866 -67.016097 C -135.39448 -73.081471 -130.4909 -78.268272 -126.97638 -82.576388 C -123.46187 -86.884504 -120.9394 -90.852684 -119.40889 -94.480571 C -117.82168 -98.108458 -117.02815 -101.84955 -117.02815 -105.70418 C -117.02815 -111.82623 -119.06889 -114.88759 -123.15026 -114.88759 C -124.9642 -114.88759 -126.43798 -114.0369 -127.57169 -112.33633 C -128.70541 -110.69244 -129.27237 -108.65171 -129.27237 -106.21422 C -129.27237 -104.51365 -128.67735 -102.89852 -127.48695 -101.36801 C -128.4506 -100.46103 -129.55594 -99.752209 -130.80302 -99.242037 C -131.99342 -98.731866 -133.18346 -98.476709 -134.37386 -98.476709 C -136.41455 -98.476709 -138.11542 -99.10031 -139.47588 -100.3474 C -140.83634 -101.65117 -141.51658 -103.52197 -141.51658 -105.95946 C -141.51658 -108.567 -140.75111 -110.91953 -139.2206 -113.01691 C -137.69008 -115.11428 -135.53606 -116.75799 -132.75846 -117.94839 C -129.92417 -119.13879 -126.63624 -119.73381 -122.89498 -119.73381 z M -55.977615 -119.73381 C -50.138984 -119.73381 -45.49056 -118.28861 -42.03273 -115.39764 C -38.5749 -112.56335 -36.846483 -108.56711 -36.846483 -103.40871 C -36.846483 -98.873849 -38.5749 -94.026912 -42.03273 -88.86851 C -45.49056 -83.766794 -51.187673 -77.616529 -59.123676 -70.41744 L -36.251171 -70.41744 L -36.251171 -62.084615 L -74.769233 -62.084615 L -74.769233 -67.016097 C -68.477116 -73.081471 -63.573535 -78.268272 -60.05902 -82.576388 C -56.544504 -86.884504 -54.022038 -90.852684 -52.491523 -94.480571 C -50.904322 -98.108458 -50.11079 -101.84955 -50.11079 -105.70418 C -50.11079 -111.82623 -52.151524 -114.88759 -56.232897 -114.88759 C -58.04684 -114.88759 -59.520617 -114.0369 -60.654332 -112.33633 C -61.788047 -110.69244 -62.355004 -108.65171 -62.355004 -106.21422 C -62.355004 -104.51365 -61.759466 -102.89852 -60.569066 -101.36801 C -61.532724 -100.46103 -62.638057 -99.752209 -63.885143 -99.242037 C -65.075543 -98.731866 -66.266101 -98.476709 -67.456501 -98.476709 C -69.497187 -98.476709 -71.197541 -99.10031 -72.557998 -100.3474 C -73.918456 -101.65117 -74.598701 -103.52197 -74.598701 -105.95946 C -74.598701 -108.567 -73.833748 -110.91953 -72.303234 -113.01691 C -70.772719 -115.11428 -68.618697 -116.75799 -65.841096 -117.94839 C -63.006809 -119.13879 -59.718874 -119.73381 -55.977615 -119.73381 z M -10.317353 -119.13901 L -7.5113227 -117.86364 L -7.5113227 -68.716769 C -6.4342938 -68.093226 -4.7339405 -67.526269 -2.4098253 -67.016097 C -0.085710201 -66.562611 1.7565115 -66.279392 3.1169691 -66.16602 L 2.8622043 -62.084615 L -31.829735 -62.084615 L -31.65972 -66.16602 C -26.614689 -66.732877 -22.759797 -67.583054 -20.095568 -68.716769 L -20.095568 -109.44555 L -31.489187 -109.44555 L -31.489187 -114.37703 C -27.8613 -114.66046 -24.120213 -115.19935 -20.265583 -115.99295 C -16.410953 -116.84324 -13.094954 -117.89193 -10.317353 -119.13901 z M -88.03354 -101.28274 C -86.049539 -101.28274 -84.575761 -100.68772 -83.612104 -99.497319 C -82.591761 -98.363604 -82.081448 -96.776539 -82.081448 -94.735852 C -82.081448 -92.695166 -82.591761 -91.107584 -83.612104 -89.973869 C -84.575761 -88.840154 -86.049539 -88.273198 -88.03354 -88.273198 C -90.01754 -88.273198 -91.519898 -88.840154 -92.540241 -89.973869 C -93.503899 -91.16427 -93.985631 -92.751852 -93.985631 -94.735852 C -93.985631 -96.833225 -93.503899 -98.448354 -92.540241 -99.582068 C -91.519898 -100.71578 -90.01754 -101.28274 -88.03354 -101.28274 z M -88.03354 -74.498845 C -86.049539 -74.498845 -84.575761 -73.903824 -83.612104 -72.713424 C -82.591761 -71.579709 -82.081448 -69.992127 -82.081448 -67.951441 C -82.081448 -65.910754 -82.591761 -64.323689 -83.612104 -63.189974 C -84.575761 -62.05626 -86.049539 -61.489303 -88.03354 -61.489303 C -90.01754 -61.489303 -91.519898 -62.05626 -92.540241 -63.189974 C -93.503899 -64.380375 -93.985631 -65.96744 -93.985631 -67.951441 C -93.985631 -70.048813 -93.503899 -71.664459 -92.540241 -72.798173 C -91.519898 -73.931888 -90.01754 -74.498845 -88.03354 -74.498845 z " /></g></svg>
