<?xml version="1.0" encoding="UTF-8" standalone="no"?>
<!-- Created with Inkscape (http://www.inkscape.org/) -->

<svg
   width="172.6701mm"
   height="172.6701mm"
   viewBox="0 0 172.6701 172.6701"
   version="1.1"
   id="svg1"
   xml:space="preserve"
   xmlns="http://www.w3.org/2000/svg"
   xmlns:svg="http://www.w3.org/2000/svg"><defs
     id="defs1" /><g
     id="layer1"
     transform="translate(157.25102,198.81012)"><path
       id="path5"
       style="fill:#ffffff;fill-opacity:1;stroke-width:0.805188;stroke-linecap:round;stroke-linejoin:round"
       d="M -2.0863309 -198.17657 L -10.088943 -183.11289 L -10.930235 -165.68398 L -19.198981 -165.68398 L -11.423229 -155.47426 L -12.166336 -140.07934 C -28.353216 -157.12094 -50.823548 -166.77435 -74.327399 -166.78417 C -103.64471 -166.77397 -130.92652 -151.79225 -146.66717 -127.05894 L -157.25102 -127.05894 L -149.61996 -115.86014 L -157.25102 -26.140039 L -8.5138455 -26.140039 L 15.419061 -26.140039 L 8.0799737 -154.80195 L 15.419061 -165.68398 L 7.4593397 -165.68398 L 6.4490654 -183.39297 L -2.0863309 -198.17657 z M -83.43072 -192.21621 C -85.584619 -189.65499 -86.77489 -186.4211 -86.795372 -183.07465 C -86.842092 -175.15518 -80.459903 -168.69733 -72.540428 -168.65072 C -64.621155 -168.60402 -58.163395 -174.98588 -58.116503 -182.90515 C -58.102813 -186.26049 -59.266203 -189.5144 -61.404157 -192.10045 C -60.83125 -190.6836 -60.536835 -189.16959 -60.537027 -187.64129 C -60.575787 -181.07411 -65.930869 -175.78172 -72.498054 -175.82031 C -79.065241 -175.85911 -84.357627 -181.21415 -84.319038 -187.78134 C -84.309338 -189.30285 -84.007827 -190.80837 -83.43072 -192.21621 z M -125.02095 -119.73381 C -119.18232 -119.73381 -114.53389 -118.28861 -111.07606 -115.39764 C -107.61823 -112.56335 -105.8893 -108.56711 -105.8893 -103.40871 C -105.8893 -98.873849 -107.61823 -94.026912 -111.07606 -88.86851 C -114.53389 -83.766794 -120.231 -77.616529 -128.16701 -70.41744 L -105.2945 -70.41744 L -105.2945 -62.084615 L -143.81205 -62.084615 L -143.81205 -67.016097 C -137.51993 -73.081471 -132.61687 -78.268272 -129.10235 -82.576388 C -125.58783 -86.884504 -123.06537 -90.852684 -121.53485 -94.480571 C -119.94765 -98.108458 -119.15412 -101.84955 -119.15412 -105.70418 C -119.15412 -111.82623 -121.19485 -114.88759 -125.27623 -114.88759 C -127.09017 -114.88759 -128.56395 -114.0369 -129.69766 -112.33633 C -130.83138 -110.69244 -131.39782 -108.65171 -131.39782 -106.21422 C -131.39782 -104.51365 -130.8028 -102.89852 -129.6124 -101.36801 C -130.57605 -100.46103 -131.68139 -99.752209 -132.92847 -99.242037 C -134.11887 -98.731866 -135.30943 -98.476709 -136.49983 -98.476709 C -138.54052 -98.476709 -140.24087 -99.10031 -141.60133 -100.3474 C -142.96179 -101.65117 -143.64203 -103.52197 -143.64203 -105.95946 C -143.64203 -108.567 -142.87708 -110.91953 -141.34656 -113.01691 C -139.81605 -115.11428 -137.66203 -116.75799 -134.88443 -117.94839 C -132.05014 -119.13879 -128.7622 -119.73381 -125.02095 -119.73381 z M -58.103583 -119.73381 C -52.264953 -119.73381 -47.616528 -118.28861 -44.158698 -115.39764 C -40.700868 -112.56335 -38.971935 -108.56711 -38.971935 -103.40871 C -38.971935 -98.873849 -40.700868 -94.026912 -44.158698 -88.86851 C -47.616528 -83.766794 -53.313642 -77.616529 -61.249645 -70.41744 L -38.376622 -70.41744 L -38.376622 -62.084615 L -76.894685 -62.084615 L -76.894685 -67.016097 C -70.602568 -73.081471 -65.698987 -78.268272 -62.184471 -82.576388 C -58.669956 -86.884504 -56.147489 -90.852684 -54.616975 -94.480571 C -53.029774 -98.108458 -52.236241 -101.84955 -52.236241 -105.70418 C -52.236241 -111.82623 -54.276975 -114.88759 -58.358348 -114.88759 C -60.172292 -114.88759 -61.646069 -114.0369 -62.779784 -112.33633 C -63.913499 -110.69244 -64.480455 -108.65171 -64.480455 -106.21422 C -64.480455 -104.51365 -63.885435 -102.89852 -62.695034 -101.36801 C -63.658692 -100.46103 -64.764025 -99.752209 -66.011111 -99.242037 C -67.201512 -98.731866 -68.391552 -98.476709 -69.581953 -98.476709 C -71.622639 -98.476709 -73.323509 -99.10031 -74.683967 -100.3474 C -76.044424 -101.65117 -76.724669 -103.52197 -76.724669 -105.95946 C -76.724669 -108.567 -75.9592 -110.91953 -74.428685 -113.01691 C -72.89817 -115.11428 -70.744148 -116.75799 -67.966547 -117.94839 C -65.132261 -119.13879 -61.844842 -119.73381 -58.103583 -119.73381 z M -15.334101 -119.73381 C -11.649528 -119.73381 -8.3901733 -119.11073 -5.5558865 -117.86364 C -2.7215998 -116.67324 -0.51041703 -114.97237 1.0767835 -112.76163 C 2.6639841 -110.60757 3.4575168 -108.11368 3.4575168 -105.27939 C 3.4575168 -102.10499 2.5221158 -99.384015 0.65148651 -97.116586 C -1.2191427 -94.849156 -3.9967654 -93.120223 -7.6813382 -91.929822 C -3.0331079 -90.909479 0.22624706 -89.237189 2.0968763 -86.913074 C 3.9675056 -84.588959 4.9029066 -81.442892 4.9029066 -77.474891 C 4.9029066 -74.017061 3.8542176 -71.069506 1.7568454 -68.632019 C -0.28384107 -66.194533 -2.9481758 -64.380375 -6.2359484 -63.189974 C -9.523721 -61.999574 -12.924944 -61.404554 -16.43946 -61.404554 C -21.541176 -61.404554 -25.877284 -62.453243 -29.448485 -64.550615 C -32.963001 -66.647987 -34.720515 -69.510317 -34.720515 -73.138204 C -34.720515 -75.235577 -34.096914 -76.851222 -32.849828 -77.984937 C -31.602742 -79.175337 -30.04374 -79.770358 -28.173111 -79.770358 C -26.245796 -79.770358 -24.290286 -79.005405 -22.306285 -77.474891 C -22.816457 -76.397862 -23.071613 -75.094016 -23.071613 -73.563501 C -23.071613 -71.749558 -22.533237 -70.275781 -21.456208 -69.142066 C -20.322493 -68.008351 -18.650204 -67.441394 -16.43946 -67.441394 C -11.564487 -67.441394 -9.126728 -70.814037 -9.126728 -77.55964 C -9.126728 -81.244213 -10.317285 -84.10706 -12.698086 -86.147746 C -15.022201 -88.188433 -18.3382 -89.208541 -22.646316 -89.208541 L -22.646316 -94.480571 C -14.313513 -95.1608 -10.147338 -98.760535 -10.147338 -105.27939 C -10.147338 -108.56717 -10.657133 -110.97583 -11.677477 -112.50634 C -12.69782 -114.09354 -14.08689 -114.88759 -15.844147 -114.88759 C -17.94152 -114.88759 -19.528585 -114.15071 -20.605614 -112.67688 C -21.625957 -111.20305 -22.13627 -109.41747 -22.13627 -107.3201 C -22.13627 -105.44947 -21.739245 -103.77718 -20.945645 -102.30335 C -22.532845 -100.60278 -24.573579 -99.752084 -27.067752 -99.752084 C -29.335181 -99.752084 -31.092695 -100.43233 -32.339781 -101.79279 C -33.586868 -103.15324 -34.210468 -104.91076 -34.210468 -107.06482 C -34.210468 -109.8991 -33.246487 -112.25164 -31.319172 -114.12227 C -29.335171 -116.04958 -26.897929 -117.46671 -24.006957 -118.37369 C -21.059298 -119.28066 -18.168388 -119.73381 -15.334101 -119.73381 z M -90.158991 -101.28274 C -88.17499 -101.28274 -86.701213 -100.68772 -85.737556 -99.497319 C -84.717212 -98.363604 -84.207416 -96.776539 -84.207416 -94.735852 C -84.207416 -92.695166 -84.717212 -91.107584 -85.737556 -89.973869 C -86.701213 -88.840154 -88.17499 -88.273198 -90.158991 -88.273198 C -92.142992 -88.273198 -93.64535 -88.840154 -94.665693 -89.973869 C -95.62935 -91.16427 -96.111083 -92.751852 -96.111083 -94.735852 C -96.111083 -96.833225 -95.62935 -98.448354 -94.665693 -99.582068 C -93.64535 -100.71578 -92.142992 -101.28274 -90.158991 -101.28274 z M -90.158991 -74.498845 C -88.17499 -74.498845 -86.701213 -73.903824 -85.737556 -72.713424 C -84.717212 -71.579709 -84.207416 -69.992127 -84.207416 -67.951441 C -84.207416 -65.910754 -84.717212 -64.323689 -85.737556 -63.189974 C -86.701213 -62.05626 -88.17499 -61.489303 -90.158991 -61.489303 C -92.142992 -61.489303 -93.64535 -62.05626 -94.665693 -63.189974 C -95.62935 -64.380375 -96.111083 -65.96744 -96.111083 -67.951441 C -96.111083 -70.048813 -95.62935 -71.664459 -94.665693 -72.798173 C -93.64535 -73.931888 -92.142992 -74.498845 -90.158991 -74.498845 z " /></g></svg>
