<?xml version="1.0" encoding="UTF-8" standalone="no"?>
<!-- Created with Inkscape (http://www.inkscape.org/) -->

<svg
   width="172.6701mm"
   height="172.6701mm"
   viewBox="0 0 172.6701 172.6701"
   version="1.1"
   id="svg1"
   xml:space="preserve"
   xmlns="http://www.w3.org/2000/svg"
   xmlns:svg="http://www.w3.org/2000/svg"><defs
     id="defs1" /><g
     id="layer1"
     transform="translate(157.25102,198.81012)"><path
       id="path5"
       style="fill:#ffffff;fill-opacity:1;stroke-width:0.805188;stroke-linecap:round;stroke-linejoin:round"
       d="M -2.0863309 -198.17657 L -10.088943 -183.11289 L -10.930235 -165.68398 L -19.198981 -165.68398 L -11.423229 -155.47426 L -12.166336 -140.07934 C -28.353216 -157.12094 -50.823548 -166.77435 -74.327399 -166.78417 C -103.64471 -166.77397 -130.92652 -151.79225 -146.66717 -127.05894 L -157.25102 -127.05894 L -149.61996 -115.86014 L -157.25102 -26.140039 L -8.5138455 -26.140039 L 15.419061 -26.140039 L 8.0799737 -154.80195 L 15.419061 -165.68398 L 7.4593397 -165.68398 L 6.4490654 -183.39297 L -2.0863309 -198.17657 z M -83.43072 -192.21621 C -85.584619 -189.65499 -86.77489 -186.4211 -86.795372 -183.07465 C -86.842092 -175.15518 -80.459903 -168.69733 -72.540428 -168.65072 C -64.621155 -168.60402 -58.163395 -174.98588 -58.116503 -182.90515 C -58.102813 -186.26049 -59.266203 -189.5144 -61.404157 -192.10045 C -60.83125 -190.6836 -60.536835 -189.16959 -60.537027 -187.64129 C -60.575787 -181.07411 -65.930869 -175.78172 -72.498054 -175.82031 C -79.065241 -175.85911 -84.357627 -181.21415 -84.319038 -187.78134 C -84.309338 -189.30285 -84.007827 -190.80837 -83.43072 -192.21621 z M -125.53099 -119.73381 C -119.69236 -119.73381 -115.04445 -118.28861 -111.58662 -115.39764 C -108.12879 -112.56335 -106.39986 -108.56711 -106.39986 -103.40871 C -106.39986 -98.873849 -108.12879 -94.026912 -111.58662 -88.86851 C -115.04445 -83.766794 -120.74105 -77.616529 -128.67705 -70.41744 L -105.80455 -70.41744 L -105.80455 -62.084615 L -144.32261 -62.084615 L -144.32261 -67.016097 C -138.03049 -73.081471 -133.12691 -78.268272 -129.6124 -82.576388 C -126.09788 -86.884504 -123.57542 -90.852684 -122.0449 -94.480571 C -120.4577 -98.108458 -119.66417 -101.84955 -119.66417 -105.70418 C -119.66417 -111.82623 -121.7049 -114.88759 -125.78627 -114.88759 C -127.60022 -114.88759 -129.07399 -114.0369 -130.20771 -112.33633 C -131.34142 -110.69244 -131.90838 -108.65171 -131.90838 -106.21422 C -131.90838 -104.51365 -131.31284 -102.89852 -130.12244 -101.36801 C -131.0861 -100.46103 -132.19195 -99.752209 -133.43904 -99.242037 C -134.62944 -98.731866 -135.81948 -98.476709 -137.00988 -98.476709 C -139.05056 -98.476709 -140.75143 -99.10031 -142.11189 -100.3474 C -143.47235 -101.65117 -144.15259 -103.52197 -144.15259 -105.95946 C -144.15259 -108.567 -143.38713 -110.91953 -141.85661 -113.01691 C -140.3261 -115.11428 -138.17207 -116.75799 -135.39447 -117.94839 C -132.56019 -119.13879 -129.27225 -119.73381 -125.53099 -119.73381 z M -58.61363 -119.73381 C -52.774999 -119.73381 -48.126574 -118.28861 -44.668745 -115.39764 C -41.210915 -112.56335 -39.481981 -108.56711 -39.481981 -103.40871 C -39.481981 -98.873849 -41.210915 -94.026912 -44.668745 -88.86851 C -48.126574 -83.766794 -53.823688 -77.616529 -61.759691 -70.41744 L -38.886669 -70.41744 L -38.886669 -62.084615 L -77.404731 -62.084615 L -77.404731 -67.016097 C -71.112614 -73.081471 -66.20955 -78.268272 -62.695034 -82.576388 C -59.180519 -86.884504 -56.658053 -90.852684 -55.127538 -94.480571 C -53.540337 -98.108458 -52.746805 -101.84955 -52.746805 -105.70418 C -52.746805 -111.82623 -54.787022 -114.88759 -58.868395 -114.88759 C -60.682338 -114.88759 -62.156632 -114.0369 -63.290347 -112.33633 C -64.424062 -110.69244 -64.990502 -108.65171 -64.990502 -106.21422 C -64.990502 -104.51365 -64.395481 -102.89852 -63.205081 -101.36801 C -64.168738 -100.46103 -65.274071 -99.752209 -66.521158 -99.242037 C -67.711558 -98.731866 -68.902115 -98.476709 -70.092516 -98.476709 C -72.133202 -98.476709 -73.833556 -99.10031 -75.194013 -100.3474 C -76.554471 -101.65117 -77.234715 -103.52197 -77.234715 -105.95946 C -77.234715 -108.567 -76.469763 -110.91953 -74.939248 -113.01691 C -73.408734 -115.11428 -71.254712 -116.75799 -68.47711 -117.94839 C -65.642824 -119.13879 -62.354888 -119.73381 -58.61363 -119.73381 z M -27.237767 -119.05375 L -22.986347 -118.969 C -16.977659 -118.85563 -13.803529 -118.79847 -13.463414 -118.79847 L -1.3892158 -118.969 L 1.0762668 -117.18306 L 0.31145559 -110.72092 L -20.775629 -110.72092 L -21.966254 -96.521273 C -19.018596 -97.258188 -16.354261 -97.626632 -13.973461 -97.626632 C -8.3615728 -97.626632 -3.7983725 -96.124274 -0.28385691 -93.11993 C 3.2873444 -90.172272 5.0729221 -85.836165 5.0729221 -80.110905 C 5.0729221 -76.539704 4.2227454 -73.336993 2.5221734 -70.502706 C 0.87828704 -67.66842 -1.5028277 -65.429173 -4.6205431 -63.785287 C -7.7382585 -62.198086 -11.422702 -61.404554 -15.674132 -61.404554 C -19.131962 -61.404554 -22.278029 -61.886286 -25.112316 -62.849943 C -27.889917 -63.813601 -30.072519 -65.14551 -31.65972 -66.846082 C -33.24692 -68.60334 -34.040453 -70.559366 -34.040453 -72.713424 C -34.040453 -74.980853 -33.416852 -76.709787 -32.169766 -77.900188 C -30.92268 -79.147274 -29.392258 -79.770358 -27.578315 -79.770358 C -26.557972 -79.770358 -25.537346 -79.572362 -24.517003 -79.175562 C -23.439974 -78.778762 -22.476509 -78.211805 -21.626223 -77.474891 C -22.136395 -76.28449 -22.391551 -75.037289 -22.391551 -73.733517 C -22.391551 -71.862888 -21.852658 -70.332466 -20.775629 -69.142066 C -19.641915 -67.951665 -17.941561 -67.356645 -15.674132 -67.356645 C -10.572416 -67.356645 -8.0213691 -71.608045 -8.0213691 -80.110905 C -8.0213691 -84.135593 -8.8149018 -87.054567 -10.402102 -88.86851 C -11.989303 -90.73914 -14.115261 -91.674541 -16.779491 -91.674541 C -18.423377 -91.674541 -20.180891 -91.36274 -22.05152 -90.739197 C -23.92215 -90.115654 -25.764371 -89.236897 -27.578315 -88.103182 L -32.254515 -92.609884 L -30.043798 -116.75776 L -27.237767 -119.05375 z M -90.669554 -101.28274 C -88.685554 -101.28274 -87.211776 -100.68772 -86.248119 -99.497319 C -85.227776 -98.363604 -84.717463 -96.776539 -84.717463 -94.735852 C -84.717463 -92.695166 -85.227776 -91.107584 -86.248119 -89.973869 C -87.211776 -88.840154 -88.685554 -88.273198 -90.669554 -88.273198 C -92.653555 -88.273198 -94.155396 -88.840154 -95.175739 -89.973869 C -96.139397 -91.16427 -96.621646 -92.751852 -96.621646 -94.735852 C -96.621646 -96.833225 -96.139397 -98.448354 -95.175739 -99.582068 C -94.155396 -100.71578 -92.653555 -101.28274 -90.669554 -101.28274 z M -90.669554 -74.498845 C -88.685554 -74.498845 -87.211776 -73.903824 -86.248119 -72.713424 C -85.227776 -71.579709 -84.717463 -69.992127 -84.717463 -67.951441 C -84.717463 -65.910754 -85.227776 -64.323689 -86.248119 -63.189974 C -87.211776 -62.05626 -88.685554 -61.489303 -90.669554 -61.489303 C -92.653555 -61.489303 -94.155396 -62.05626 -95.175739 -63.189974 C -96.139397 -64.380375 -96.621646 -65.96744 -96.621646 -67.951441 C -96.621646 -70.048813 -96.139397 -71.664459 -95.175739 -72.798173 C -94.155396 -73.931888 -92.653555 -74.498845 -90.669554 -74.498845 z " /></g></svg>
