<?xml version="1.0" encoding="UTF-8" standalone="no"?>
<!-- Created with Inkscape (http://www.inkscape.org/) -->

<svg
   width="172.6701mm"
   height="172.6701mm"
   viewBox="0 0 172.6701 172.6701"
   version="1.1"
   id="svg1"
   xml:space="preserve"
   xmlns="http://www.w3.org/2000/svg"
   xmlns:svg="http://www.w3.org/2000/svg"><defs
     id="defs1" /><g
     id="layer1"
     transform="translate(157.25102,198.81012)"><path
       id="path5"
       style="fill:#ffffff;fill-opacity:1;stroke-width:0.805188;stroke-linecap:round;stroke-linejoin:round"
       d="M -2.0863309 -198.17657 L -10.088943 -183.11289 L -10.930235 -165.68398 L -19.198981 -165.68398 L -11.423229 -155.47426 L -12.166336 -140.07934 C -28.353216 -157.12094 -50.823548 -166.77435 -74.327399 -166.78417 C -103.64471 -166.77397 -130.92652 -151.79225 -146.66717 -127.05894 L -157.25102 -127.05894 L -149.61996 -115.86014 L -157.25102 -26.140039 L -8.5138455 -26.140039 L 15.419061 -26.140039 L 8.0799737 -154.80195 L 15.419061 -165.68398 L 7.4593397 -165.68398 L 6.4490654 -183.39297 L -2.0863309 -198.17657 z M -83.43072 -192.21621 C -85.584619 -189.65499 -86.77489 -186.4211 -86.795372 -183.07465 C -86.842092 -175.15518 -80.459903 -168.69733 -72.540428 -168.65072 C -64.621155 -168.60402 -58.163395 -174.98588 -58.116503 -182.90515 C -58.102813 -186.26049 -59.266203 -189.5144 -61.404157 -192.10045 C -60.83125 -190.6836 -60.536835 -189.16959 -60.537027 -187.64129 C -60.575787 -181.07411 -65.930869 -175.78172 -72.498054 -175.82031 C -79.065241 -175.85911 -84.357627 -181.21415 -84.319038 -187.78134 C -84.309338 -189.30285 -84.007827 -190.80837 -83.43072 -192.21621 z M -2.7498563 -119.90383 L -0.70915395 -115.65241 C -12.159672 -110.72075 -19.046827 -103.12528 -21.370942 -92.865166 C -18.083169 -94.452366 -14.965683 -95.245899 -12.018024 -95.245899 C -6.3494509 -95.245899 -1.8995385 -93.715477 1.3315484 -90.654448 C 4.619321 -87.593418 6.2630303 -83.455306 6.2630303 -78.240218 C 6.2630303 -75.009132 5.38479 -72.118221 3.6275322 -69.567363 C 1.9269602 -67.016505 -0.48221815 -65.032415 -3.5999336 -63.615271 C -6.6609633 -62.198128 -10.175475 -61.489303 -14.143476 -61.489303 C -20.889079 -61.489303 -26.07588 -63.360105 -29.703767 -67.101363 C -33.274968 -70.842622 -35.060546 -76.255999 -35.060546 -83.341716 C -35.060546 -92.241376 -32.311503 -99.808775 -26.812987 -106.04421 C -21.257785 -112.33632 -13.236717 -116.95617 -2.7498563 -119.90383 z M -126.29632 -119.73381 C -120.45769 -119.73381 -115.80926 -118.28861 -112.35144 -115.39764 C -108.89361 -112.56335 -107.16519 -108.56711 -107.16519 -103.40871 C -107.16519 -98.873849 -108.89361 -94.026912 -112.35144 -88.86851 C -115.80926 -83.766794 -121.50638 -77.616529 -129.44238 -70.41744 L -106.56988 -70.41744 L -106.56988 -62.084615 L -145.08794 -62.084615 L -145.08794 -67.016097 C -138.79582 -73.081471 -133.89224 -78.268272 -130.37772 -82.576388 C -126.86321 -86.884504 -124.34074 -90.852684 -122.81023 -94.480571 C -121.22303 -98.108458 -120.42949 -101.84955 -120.42949 -105.70418 C -120.42949 -111.82623 -122.47023 -114.88759 -126.5516 -114.88759 C -128.36555 -114.88759 -129.83932 -114.0369 -130.97304 -112.33633 C -132.10675 -110.69244 -132.67371 -108.65171 -132.67371 -106.21422 C -132.67371 -104.51365 -132.07817 -102.89852 -130.88777 -101.36801 C -131.85143 -100.46103 -132.95676 -99.752209 -134.20385 -99.242037 C -135.39425 -98.731866 -136.58481 -98.476709 -137.77521 -98.476709 C -139.81589 -98.476709 -141.51625 -99.10031 -142.8767 -100.3474 C -144.23716 -101.65117 -144.91741 -103.52197 -144.91741 -105.95946 C -144.91741 -108.567 -144.15245 -110.91953 -142.62194 -113.01691 C -141.09142 -115.11428 -138.9374 -116.75799 -136.1598 -117.94839 C -133.32551 -119.13879 -130.03758 -119.73381 -126.29632 -119.73381 z M -59.378958 -119.73381 C -53.540327 -119.73381 -48.891902 -118.28861 -45.434073 -115.39764 C -41.976243 -112.56335 -40.247309 -108.56711 -40.247309 -103.40871 C -40.247309 -98.873849 -41.976243 -94.026912 -45.434073 -88.86851 C -48.891902 -83.766794 -54.589016 -77.616529 -62.525019 -70.41744 L -39.651997 -70.41744 L -39.651997 -62.084615 L -78.170059 -62.084615 L -78.170059 -67.016097 C -71.877942 -73.081471 -66.974878 -78.268272 -63.460362 -82.576388 C -59.945847 -86.884504 -57.423381 -90.852684 -55.892866 -94.480571 C -54.305665 -98.108458 -53.511616 -101.84955 -53.511616 -105.70418 C -53.511616 -111.82623 -55.55235 -114.88759 -59.633723 -114.88759 C -61.447666 -114.88759 -62.921443 -114.0369 -64.055158 -112.33633 C -65.188873 -110.69244 -65.75583 -108.65171 -65.75583 -106.21422 C -65.75583 -104.51365 -65.160809 -102.89852 -63.970409 -101.36801 C -64.934066 -100.46103 -66.039399 -99.752209 -67.286485 -99.242037 C -68.476886 -98.731866 -69.667443 -98.476709 -70.857844 -98.476709 C -72.89853 -98.476709 -74.598883 -99.10031 -75.959341 -100.3474 C -77.319799 -101.65117 -78.000043 -103.52197 -78.000043 -105.95946 C -78.000043 -108.567 -77.234574 -110.91953 -75.70406 -113.01691 C -74.173545 -115.11428 -72.019523 -116.75799 -69.241922 -117.94839 C -66.407635 -119.13879 -63.120216 -119.73381 -59.378958 -119.73381 z M -91.434882 -101.28274 C -89.450882 -101.28274 -87.976587 -100.68772 -87.01293 -99.497319 C -85.992587 -98.363604 -85.482791 -96.776539 -85.482791 -94.735852 C -85.482791 -92.695166 -85.992587 -91.107584 -87.01293 -89.973869 C -87.976587 -88.840154 -89.450882 -88.273198 -91.434882 -88.273198 C -93.418883 -88.273198 -94.920724 -88.840154 -95.941067 -89.973869 C -96.904725 -91.16427 -97.386457 -92.751852 -97.386457 -94.735852 C -97.386457 -96.833225 -96.904725 -98.448354 -95.941067 -99.582068 C -94.920724 -100.71578 -93.418883 -101.28274 -91.434882 -101.28274 z M -14.398758 -89.293807 C -16.779559 -89.293807 -19.358669 -88.330343 -22.13627 -86.403028 L -22.13627 -85.297669 C -22.13627 -79.118924 -21.456025 -74.583787 -20.095568 -71.692814 C -18.73511 -68.801842 -16.581088 -67.356645 -13.63343 -67.356645 C -11.195943 -67.356645 -9.325141 -68.291529 -8.0213691 -70.162159 C -6.7175972 -72.032788 -6.0659329 -74.697123 -6.0659329 -78.154952 C -6.0659329 -81.669468 -6.8028216 -84.390447 -8.2766507 -86.317762 C -9.6937941 -88.301762 -11.734528 -89.293807 -14.398758 -89.293807 z M -91.434882 -74.498845 C -89.450882 -74.498845 -87.976587 -73.903824 -87.01293 -72.713424 C -85.992587 -71.579709 -85.482791 -69.992127 -85.482791 -67.951441 C -85.482791 -65.910754 -85.992587 -64.323689 -87.01293 -63.189974 C -87.976587 -62.05626 -89.450882 -61.489303 -91.434882 -61.489303 C -93.418883 -61.489303 -94.920724 -62.05626 -95.941067 -63.189974 C -96.904725 -64.380375 -97.386457 -65.96744 -97.386457 -67.951441 C -97.386457 -70.048813 -96.904725 -71.664459 -95.941067 -72.798173 C -94.920724 -73.931888 -93.418883 -74.498845 -91.434882 -74.498845 z " /></g></svg>
