<?xml version="1.0" encoding="UTF-8" standalone="no"?>
<!-- Created with Inkscape (http://www.inkscape.org/) -->

<svg
   width="172.6701mm"
   height="172.6701mm"
   viewBox="0 0 172.6701 172.6701"
   version="1.1"
   id="svg1"
   xml:space="preserve"
   xmlns="http://www.w3.org/2000/svg"
   xmlns:svg="http://www.w3.org/2000/svg"><defs
     id="defs1" /><g
     id="layer1"
     transform="translate(157.25102,198.81012)"><path
       id="path5"
       style="fill:#ffffff;fill-opacity:1;stroke-width:0.805188;stroke-linecap:round;stroke-linejoin:round"
       d="M -2.0863309 -198.17657 L -10.088943 -183.11289 L -10.930235 -165.68398 L -19.198981 -165.68398 L -11.423229 -155.47426 L -12.166336 -140.07934 C -28.353216 -157.12094 -50.823548 -166.77435 -74.327399 -166.78417 C -103.64471 -166.77397 -130.92652 -151.79225 -146.66717 -127.05894 L -157.25102 -127.05894 L -149.61996 -115.86014 L -157.25102 -26.140039 L -8.5138455 -26.140039 L 15.419061 -26.140039 L 8.0799737 -154.80195 L 15.419061 -165.68398 L 7.4593397 -165.68398 L 6.4490654 -183.39297 L -2.0863309 -198.17657 z M -83.43072 -192.21621 C -85.584619 -189.65499 -86.77489 -186.4211 -86.795372 -183.07465 C -86.842092 -175.15518 -80.459903 -168.69733 -72.540428 -168.65072 C -64.621155 -168.60402 -58.163395 -174.98588 -58.116503 -182.90515 C -58.102813 -186.26049 -59.266203 -189.5144 -61.404157 -192.10045 C -60.83125 -190.6836 -60.536835 -189.16959 -60.537027 -187.64129 C -60.575787 -181.07411 -65.930869 -175.78172 -72.498054 -175.82031 C -79.065241 -175.85911 -84.357627 -181.21415 -84.319038 -187.78134 C -84.309338 -189.30285 -84.007827 -190.80837 -83.43072 -192.21621 z M -124.42563 -119.73381 C -118.587 -119.73381 -113.93909 -118.28861 -110.48126 -115.39764 C -107.02344 -112.56335 -105.2945 -108.56711 -105.2945 -103.40871 C -105.2945 -98.873849 -107.02344 -94.026912 -110.48126 -88.86851 C -113.93909 -83.766794 -119.63569 -77.616529 -127.57169 -70.41744 L -104.69919 -70.41744 L -104.69919 -62.084615 L -143.21725 -62.084615 L -143.21725 -67.016097 C -136.92513 -73.081471 -132.02155 -78.268272 -128.50704 -82.576388 C -124.99252 -86.884504 -122.47006 -90.852684 -120.93954 -94.480571 C -119.35234 -98.108458 -118.55881 -101.84955 -118.55881 -105.70418 C -118.55881 -111.82623 -120.59954 -114.88759 -124.68092 -114.88759 C -126.49486 -114.88759 -127.96864 -114.0369 -129.10235 -112.33633 C -130.23607 -110.69244 -130.80302 -108.65171 -130.80302 -106.21422 C -130.80302 -104.51365 -130.20748 -102.89852 -129.01708 -101.36801 C -129.98074 -100.46103 -131.08607 -99.752209 -132.33316 -99.242037 C -133.52356 -98.731866 -134.71412 -98.476709 -135.90452 -98.476709 C -137.94521 -98.476709 -139.64608 -99.10031 -141.00653 -100.3474 C -142.36699 -101.65117 -143.04672 -103.52197 -143.04672 -105.95946 C -143.04672 -108.567 -142.28177 -110.91953 -140.75125 -113.01691 C -139.22074 -115.11428 -137.06672 -116.75799 -134.28911 -117.94839 C -131.45483 -119.13879 -128.16689 -119.73381 -124.42563 -119.73381 z M -57.508271 -119.73381 C -51.66964 -119.73381 -47.021216 -118.28861 -43.563386 -115.39764 C -40.105556 -112.56335 -38.376622 -108.56711 -38.376622 -103.40871 C -38.376622 -98.873849 -40.105556 -94.026912 -43.563386 -88.86851 C -47.021216 -83.766794 -52.718329 -77.616529 -60.654332 -70.41744 L -37.78131 -70.41744 L -37.78131 -62.084615 L -76.299372 -62.084615 L -76.299372 -67.016097 C -70.007255 -73.081471 -65.104191 -78.268272 -61.589676 -82.576388 C -58.07516 -86.884504 -55.552694 -90.852684 -54.022179 -94.480571 C -52.434978 -98.108458 -51.640929 -101.84955 -51.640929 -105.70418 C -51.640929 -111.82623 -53.681663 -114.88759 -57.763036 -114.88759 C -59.576979 -114.88759 -61.050757 -114.0369 -62.184471 -112.33633 C -63.318186 -110.69244 -63.885143 -108.65171 -63.885143 -106.21422 C -63.885143 -104.51365 -63.290122 -102.89852 -62.099722 -101.36801 C -63.063379 -100.46103 -64.168712 -99.752209 -65.415799 -99.242037 C -66.606199 -98.731866 -67.796756 -98.476709 -68.987157 -98.476709 C -71.027843 -98.476709 -72.728197 -99.10031 -74.088654 -100.3474 C -75.449112 -101.65117 -76.129357 -103.52197 -76.129357 -105.95946 C -76.129357 -108.567 -75.364404 -110.91953 -73.833889 -113.01691 C -72.303375 -115.11428 -70.148836 -116.75799 -67.371235 -117.94839 C -64.536948 -119.13879 -61.249529 -119.73381 -57.508271 -119.73381 z M -32.935094 -118.88373 L -28.768423 -118.88373 C -26.614365 -118.82705 -21.909297 -118.79847 -14.653522 -118.79847 C -7.1143197 -118.79847 -2.2112554 -118.82705 0.05617401 -118.88373 L 4.1375786 -118.88373 L 5.83825 -115.22762 C 4.7612211 -113.52705 2.720487 -109.84261 -0.28385691 -104.17404 C -3.2882009 -98.505463 -6.1224675 -92.496548 -8.7866971 -86.147746 C -11.450927 -79.798944 -12.783352 -74.838719 -12.783352 -71.267517 C -12.783352 -68.433231 -11.791307 -66.307789 -9.8073066 -64.890646 C -11.734622 -62.566531 -14.200444 -61.404554 -17.204788 -61.404554 C -19.982389 -61.404554 -22.136411 -62.169506 -23.666926 -63.700021 C -25.197441 -65.230536 -25.962393 -67.356494 -25.962393 -70.077409 C -25.962393 -73.478553 -25.140797 -77.077772 -23.49691 -80.875717 C -21.853024 -84.730347 -18.904953 -89.945728 -14.653522 -96.521273 L -4.6205431 -111.9963 L -24.006957 -111.9963 C -24.800557 -109.44544 -25.282289 -106.44124 -25.452346 -102.98341 C -26.47269 -102.81335 -27.521379 -102.72813 -28.598408 -102.72813 C -29.732122 -102.72813 -30.837455 -102.81335 -31.914484 -102.98341 L -34.295218 -117.60836 L -32.935094 -118.88373 z M -89.564195 -101.28274 C -87.580195 -101.28274 -86.105901 -100.68772 -85.142243 -99.497319 C -84.1219 -98.363604 -83.612104 -96.776539 -83.612104 -94.735852 C -83.612104 -92.695166 -84.1219 -91.107584 -85.142243 -89.973869 C -86.105901 -88.840154 -87.580195 -88.273198 -89.564195 -88.273198 C -91.548196 -88.273198 -93.050037 -88.840154 -94.07038 -89.973869 C -95.034038 -91.16427 -95.51577 -92.751852 -95.51577 -94.735852 C -95.51577 -96.833225 -95.034038 -98.448354 -94.07038 -99.582068 C -93.050037 -100.71578 -91.548196 -101.28274 -89.564195 -101.28274 z M -89.564195 -74.498845 C -87.580195 -74.498845 -86.105901 -73.903824 -85.142243 -72.713424 C -84.1219 -71.579709 -83.612104 -69.992127 -83.612104 -67.951441 C -83.612104 -65.910754 -84.1219 -64.323689 -85.142243 -63.189974 C -86.105901 -62.05626 -87.580195 -61.489303 -89.564195 -61.489303 C -91.548196 -61.489303 -93.050037 -62.05626 -94.07038 -63.189974 C -95.034038 -64.380375 -95.51577 -65.96744 -95.51577 -67.951441 C -95.51577 -70.048813 -95.034038 -71.664459 -94.07038 -72.798173 C -93.050037 -73.931888 -91.548196 -74.498845 -89.564195 -74.498845 z " /></g></svg>
