<?xml version="1.0" encoding="UTF-8" standalone="no"?>
<!-- Created with Inkscape (http://www.inkscape.org/) -->

<svg
   width="172.6701mm"
   height="172.6701mm"
   viewBox="0 0 172.6701 172.6701"
   version="1.1"
   id="svg1"
   xml:space="preserve"
   xmlns="http://www.w3.org/2000/svg"
   xmlns:svg="http://www.w3.org/2000/svg"><defs
     id="defs1" /><g
     id="layer1"
     transform="translate(157.25102,198.81012)"><path
       id="path5"
       style="fill:#ffffff;fill-opacity:1;stroke-width:0.805188;stroke-linecap:round;stroke-linejoin:round"
       d="M -2.0863309 -198.17657 L -10.088943 -183.11289 L -10.930235 -165.68398 L -19.198981 -165.68398 L -11.423229 -155.47426 L -12.166336 -140.07934 C -28.353216 -157.12094 -50.823548 -166.77435 -74.327399 -166.78417 C -103.64471 -166.77397 -130.92652 -151.79225 -146.66717 -127.05894 L -157.25102 -127.05894 L -149.61996 -115.86014 L -157.25102 -26.140039 L -8.5138455 -26.140039 L 15.419061 -26.140039 L 8.0799737 -154.80195 L 15.419061 -165.68398 L 7.4593397 -165.68398 L 6.4490654 -183.39297 L -2.0863309 -198.17657 z M -83.43072 -192.21621 C -85.584619 -189.65499 -86.77489 -186.4211 -86.795372 -183.07465 C -86.842092 -175.15518 -80.459903 -168.69733 -72.540428 -168.65072 C -64.621155 -168.60402 -58.163395 -174.98588 -58.116503 -182.90515 C -58.102813 -186.26049 -59.266203 -189.5144 -61.404157 -192.10045 C -60.83125 -190.6836 -60.536835 -189.16959 -60.537027 -187.64129 C -60.575787 -181.07411 -65.930869 -175.78172 -72.498054 -175.82031 C -79.065241 -175.85911 -84.357627 -181.21415 -84.319038 -187.78134 C -84.309338 -189.30285 -84.007827 -190.80837 -83.43072 -192.21621 z M -126.1263 -119.73381 C -120.28767 -119.73381 -115.63925 -118.28861 -112.18142 -115.39764 C -108.72359 -112.56335 -106.99466 -108.56711 -106.99466 -103.40871 C -106.99466 -98.873849 -108.72359 -94.026912 -112.18142 -88.86851 C -115.63925 -83.766794 -121.33636 -77.616529 -129.27237 -70.41744 L -106.39986 -70.41744 L -106.39986 -62.084615 L -144.91741 -62.084615 L -144.91741 -67.016097 C -138.62529 -73.081471 -133.72223 -78.268272 -130.20771 -82.576388 C -126.69319 -86.884504 -124.17073 -90.852684 -122.64021 -94.480571 C -121.05301 -98.108458 -120.25948 -101.84955 -120.25948 -105.70418 C -120.25948 -111.82623 -122.30021 -114.88759 -126.38159 -114.88759 C -128.19553 -114.88759 -129.66931 -114.0369 -130.80302 -112.33633 C -131.93674 -110.69244 -132.50369 -108.65171 -132.50369 -106.21422 C -132.50369 -104.51365 -131.90816 -102.89852 -130.71776 -101.36801 C -131.68141 -100.46103 -132.78675 -99.752209 -134.03383 -99.242037 C -135.22423 -98.731866 -136.41479 -98.476709 -137.60519 -98.476709 C -139.64588 -98.476709 -141.34623 -99.10031 -142.70669 -100.3474 C -144.06715 -101.65117 -144.74739 -103.52197 -144.74739 -105.95946 C -144.74739 -108.567 -143.98244 -110.91953 -142.45192 -113.01691 C -140.92141 -115.11428 -138.76739 -116.75799 -135.98979 -117.94839 C -133.1555 -119.13879 -129.86756 -119.73381 -126.1263 -119.73381 z M -59.208942 -119.73381 C -53.370312 -119.73381 -48.721887 -118.28861 -45.264057 -115.39764 C -41.806227 -112.56335 -40.077294 -108.56711 -40.077294 -103.40871 C -40.077294 -98.873849 -41.806227 -94.026912 -45.264057 -88.86851 C -48.721887 -83.766794 -54.419001 -77.616529 -62.355004 -70.41744 L -39.481981 -70.41744 L -39.481981 -62.084615 L -78.000043 -62.084615 L -78.000043 -67.016097 C -71.707927 -73.081471 -66.804863 -78.268272 -63.290347 -82.576388 C -59.775831 -86.884504 -57.252848 -90.852684 -55.722333 -94.480571 C -54.135133 -98.108458 -53.3416 -101.84955 -53.3416 -105.70418 C -53.3416 -111.82623 -55.382334 -114.88759 -59.463707 -114.88759 C -61.277651 -114.88759 -62.751428 -114.0369 -63.885143 -112.33633 C -65.018857 -110.69244 -65.585814 -108.65171 -65.585814 -106.21422 C -65.585814 -104.51365 -64.990794 -102.89852 -63.800393 -101.36801 C -64.764051 -100.46103 -65.869384 -99.752209 -67.11647 -99.242037 C -68.30687 -98.731866 -69.497428 -98.476709 -70.687828 -98.476709 C -72.728515 -98.476709 -74.428868 -99.10031 -75.789326 -100.3474 C -77.149783 -101.65117 -77.830028 -103.52197 -77.830028 -105.95946 C -77.830028 -108.567 -77.064559 -110.91953 -75.534044 -113.01691 C -74.003529 -115.11428 -71.849507 -116.75799 -69.071906 -117.94839 C -66.237619 -119.13879 -62.950201 -119.73381 -59.208942 -119.73381 z M -14.738789 -119.56379 C -7.9931861 -119.56379 -2.8349654 -117.69351 0.73623586 -113.95225 C 4.3641229 -110.21099 6.1782809 -104.7971 6.1782809 -97.711381 C 6.1782809 -88.811721 3.4006583 -81.216258 -2.1545438 -74.924142 C -7.6530601 -68.688711 -15.645547 -64.09693 -26.132408 -61.149272 L -28.173111 -65.400692 C -22.504537 -67.838179 -17.941337 -70.956182 -14.483507 -74.754126 C -11.025677 -78.608756 -8.7303035 -83.086732 -7.5965888 -88.188448 C -10.77099 -86.601248 -13.860413 -85.807715 -16.864757 -85.807715 C -22.53333 -85.807715 -27.011306 -87.338137 -30.299079 -90.399166 C -33.530166 -93.460196 -35.145812 -97.598308 -35.145812 -102.8134 C -35.145812 -106.04448 -34.295635 -108.93539 -32.595063 -111.48625 C -30.837805 -114.03711 -28.428627 -116.0212 -25.367597 -117.43834 C -22.249882 -118.85549 -18.70679 -119.56379 -14.738789 -119.56379 z M -15.248835 -113.69697 C -17.686322 -113.69697 -19.557124 -112.76157 -20.860895 -110.89094 C -22.164667 -109.02031 -22.816332 -106.35597 -22.816332 -102.89814 C -22.816332 -99.383629 -22.108023 -96.634587 -20.69088 -94.650586 C -19.217051 -92.723271 -17.147737 -91.759807 -14.483507 -91.759807 C -12.159392 -91.759807 -9.5802815 -92.723271 -6.7459948 -94.650586 L -6.7459948 -95.755945 C -6.7459948 -101.93469 -7.4262394 -106.46931 -8.7866971 -109.36028 C -10.147155 -112.25126 -12.301177 -113.69697 -15.248835 -113.69697 z M -91.26435 -101.28274 C -89.280349 -101.28274 -87.806572 -100.68772 -86.842915 -99.497319 C -85.822571 -98.363604 -85.312775 -96.776539 -85.312775 -94.735852 C -85.312775 -92.695166 -85.822571 -91.107584 -86.842915 -89.973869 C -87.806572 -88.840154 -89.280349 -88.273198 -91.26435 -88.273198 C -93.248351 -88.273198 -94.750709 -88.840154 -95.771052 -89.973869 C -96.734709 -91.16427 -97.216442 -92.751852 -97.216442 -94.735852 C -97.216442 -96.833225 -96.734709 -98.448354 -95.771052 -99.582068 C -94.750709 -100.71578 -93.248351 -101.28274 -91.26435 -101.28274 z M -91.26435 -74.498845 C -89.280349 -74.498845 -87.806572 -73.903824 -86.842915 -72.713424 C -85.822571 -71.579709 -85.312775 -69.992127 -85.312775 -67.951441 C -85.312775 -65.910754 -85.822571 -64.323689 -86.842915 -63.189974 C -87.806572 -62.05626 -89.280349 -61.489303 -91.26435 -61.489303 C -93.248351 -61.489303 -94.750709 -62.05626 -95.771052 -63.189974 C -96.734709 -64.380375 -97.216442 -65.96744 -97.216442 -67.951441 C -97.216442 -70.048813 -96.734709 -71.664459 -95.771052 -72.798173 C -94.750709 -73.931888 -93.248351 -74.498845 -91.26435 -74.498845 z " /></g></svg>
