<?xml version="1.0" encoding="UTF-8" standalone="no"?>
<!-- Created with Inkscape (http://www.inkscape.org/) -->

<svg
   width="172.6701mm"
   height="172.6701mm"
   viewBox="0 0 172.6701 172.6701"
   version="1.1"
   id="svg1"
   xml:space="preserve"
   xmlns="http://www.w3.org/2000/svg"
   xmlns:svg="http://www.w3.org/2000/svg"><defs
     id="defs1" /><g
     id="layer1"
     transform="translate(157.25102,198.81012)"><path
       id="path5"
       style="fill:#ffffff;fill-opacity:1;stroke-width:0.805188;stroke-linecap:round;stroke-linejoin:round"
       d="M -2.0863309 -198.17657 L -10.088943 -183.11289 L -10.930235 -165.68398 L -19.198981 -165.68398 L -11.423229 -155.47426 L -12.166336 -140.07934 C -28.353216 -157.12094 -50.823548 -166.77435 -74.327399 -166.78417 C -103.64471 -166.77397 -130.92652 -151.79225 -146.66717 -127.05894 L -157.25102 -127.05894 L -149.61996 -115.86014 L -157.25102 -26.140039 L -8.5138455 -26.140039 L 15.419061 -26.140039 L 8.0799737 -154.80195 L 15.419061 -165.68398 L 7.4593397 -165.68398 L 6.4490654 -183.39297 L -2.0863309 -198.17657 z M -83.43072 -192.21621 C -85.584619 -189.65499 -86.77489 -186.4211 -86.795372 -183.07465 C -86.842092 -175.15518 -80.459903 -168.69733 -72.540428 -168.65072 C -64.621155 -168.60402 -58.163395 -174.98588 -58.116503 -182.90515 C -58.102813 -186.26049 -59.266203 -189.5144 -61.404157 -192.10045 C -60.83125 -190.6836 -60.536835 -189.16959 -60.537027 -187.64129 C -60.575787 -181.07411 -65.930869 -175.78172 -72.498054 -175.82031 C -79.065241 -175.85911 -84.357627 -181.21415 -84.319038 -187.78134 C -84.309338 -189.30285 -84.007827 -190.80837 -83.43072 -192.21621 z M -122.93787 -119.73381 C -117.09924 -119.73381 -112.45081 -118.28861 -108.99298 -115.39764 C -105.53515 -112.56335 -103.80622 -108.56711 -103.80622 -103.40871 C -103.80622 -98.873849 -105.53515 -94.026912 -108.99298 -88.86851 C -112.45081 -83.766794 -118.14793 -77.616529 -126.08393 -70.41744 L -103.21091 -70.41744 L -103.21091 -62.084615 L -141.72897 -62.084615 L -141.72897 -67.016097 C -135.43685 -73.081471 -130.53379 -78.268272 -127.01927 -82.576388 C -123.50476 -86.884504 -120.98229 -90.852684 -119.45178 -94.480571 C -117.86458 -98.108458 -117.07053 -101.84955 -117.07053 -105.70418 C -117.07053 -111.82623 -119.11126 -114.88759 -123.19263 -114.88759 C -125.00658 -114.88759 -126.48035 -114.0369 -127.61407 -112.33633 C -128.74778 -110.69244 -129.31474 -108.65171 -129.31474 -106.21422 C -129.31474 -104.51365 -128.71972 -102.89852 -127.52932 -101.36801 C -128.49298 -100.46103 -129.59831 -99.752209 -130.8454 -99.242037 C -132.0358 -98.731866 -133.22635 -98.476709 -134.41675 -98.476709 C -136.45744 -98.476709 -138.15779 -99.10031 -139.51825 -100.3474 C -140.87871 -101.65117 -141.55895 -103.52197 -141.55895 -105.95946 C -141.55895 -108.567 -140.79349 -110.91953 -139.26297 -113.01691 C -137.73246 -115.11428 -135.57843 -116.75799 -132.80083 -117.94839 C -129.96655 -119.13879 -126.67913 -119.73381 -122.93787 -119.73381 z M -56.360021 -119.73381 C -52.675448 -119.73381 -49.416093 -119.11073 -46.581806 -117.86364 C -43.747519 -116.67324 -41.536853 -114.97237 -39.949653 -112.76163 C -38.362452 -110.60757 -37.56892 -108.11368 -37.56892 -105.27939 C -37.56892 -102.10499 -38.504321 -99.384015 -40.37495 -97.116586 C -42.245579 -94.849156 -45.023202 -93.120223 -48.707775 -91.929822 C -44.059544 -90.909479 -40.800189 -89.237189 -38.92956 -86.913074 C -37.058931 -84.588959 -36.12353 -81.442892 -36.12353 -77.474891 C -36.12353 -74.017061 -37.172219 -71.069506 -39.269591 -68.632019 C -41.310277 -66.194533 -43.974612 -64.380375 -47.262385 -63.189974 C -50.550157 -61.999574 -53.951381 -61.404554 -57.465896 -61.404554 C -62.567612 -61.404554 -66.90372 -62.453243 -70.474921 -64.550615 C -73.989437 -66.647987 -75.746951 -69.510317 -75.746951 -73.138204 C -75.746951 -75.235577 -75.12335 -76.851222 -73.876264 -77.984937 C -72.629178 -79.175337 -71.070176 -79.770358 -69.199547 -79.770358 C -67.272232 -79.770358 -65.316722 -79.005405 -63.332722 -77.474891 C -63.842893 -76.397862 -64.09805 -75.094016 -64.09805 -73.563501 C -64.09805 -71.749558 -63.559157 -70.275781 -62.482128 -69.142066 C -61.348413 -68.008351 -59.67664 -67.441394 -57.465896 -67.441394 C -52.590923 -67.441394 -50.153164 -70.814037 -50.153164 -77.55964 C -50.153164 -81.244213 -51.343722 -84.10706 -53.724523 -86.147746 C -56.048638 -88.188433 -59.364637 -89.208541 -63.672753 -89.208541 L -63.672753 -94.480571 C -55.33995 -95.1608 -51.173774 -98.760535 -51.173774 -105.27939 C -51.173774 -108.56717 -51.68357 -110.97583 -52.703913 -112.50634 C -53.724256 -114.09354 -55.113326 -114.88759 -56.870584 -114.88759 C -58.967956 -114.88759 -60.555021 -114.15071 -61.63205 -112.67688 C -62.652394 -111.20305 -63.162706 -109.41747 -63.162706 -107.3201 C -63.162706 -105.44947 -62.765681 -103.77718 -61.972081 -102.30335 C -63.559282 -100.60278 -65.600016 -99.752084 -68.094188 -99.752084 C -70.361618 -99.752084 -72.119132 -100.43233 -73.366218 -101.79279 C -74.613304 -103.15324 -75.236388 -104.91076 -75.236388 -107.06482 C -75.236388 -109.8991 -74.272923 -112.25164 -72.345608 -114.12227 C -70.361607 -116.04958 -67.924366 -117.46671 -65.033393 -118.37369 C -62.085735 -119.28066 -59.194307 -119.73381 -56.360021 -119.73381 z M -10.274978 -119.13901 L -7.4689481 -117.86364 L -7.4689481 -68.716769 C -6.3919191 -68.093226 -4.691049 -67.526269 -2.3669339 -67.016097 C -0.042818762 -66.562611 1.7994029 -66.279392 3.1598605 -66.16602 L 2.904579 -62.084615 L -31.786844 -62.084615 L -31.616828 -66.16602 C -26.571798 -66.732877 -22.717422 -67.583054 -20.053193 -68.716769 L -20.053193 -109.44555 L -31.446813 -109.44555 L -31.446813 -114.37703 C -27.818926 -114.66046 -24.077838 -115.19935 -20.223208 -115.99295 C -16.368578 -116.84324 -13.052579 -117.89193 -10.274978 -119.13901 z M -88.075914 -101.28274 C -86.091913 -101.28274 -84.618136 -100.68772 -83.654479 -99.497319 C -82.634135 -98.363604 -82.123823 -96.776539 -82.123823 -94.735852 C -82.123823 -92.695166 -82.634135 -91.107584 -83.654479 -89.973869 C -84.618136 -88.840154 -86.091913 -88.273198 -88.075914 -88.273198 C -90.059915 -88.273198 -91.562273 -88.840154 -92.582616 -89.973869 C -93.546273 -91.16427 -94.028006 -92.751852 -94.028006 -94.735852 C -94.028006 -96.833225 -93.546273 -98.448354 -92.582616 -99.582068 C -91.562273 -100.71578 -90.059915 -101.28274 -88.075914 -101.28274 z M -88.075914 -74.498845 C -86.091913 -74.498845 -84.618136 -73.903824 -83.654479 -72.713424 C -82.634135 -71.579709 -82.123823 -69.992127 -82.123823 -67.951441 C -82.123823 -65.910754 -82.634135 -64.323689 -83.654479 -63.189974 C -84.618136 -62.05626 -86.091913 -61.489303 -88.075914 -61.489303 C -90.059915 -61.489303 -91.562273 -62.05626 -92.582616 -63.189974 C -93.546273 -64.380375 -94.028006 -65.96744 -94.028006 -67.951441 C -94.028006 -70.048813 -93.546273 -71.664459 -92.582616 -72.798173 C -91.562273 -73.931888 -90.059915 -74.498845 -88.075914 -74.498845 z " /></g></svg>
