<?xml version="1.0" encoding="UTF-8" standalone="no"?>
<!-- Created with Inkscape (http://www.inkscape.org/) -->

<svg
   width="172.6701mm"
   height="172.6701mm"
   viewBox="0 0 172.6701 172.6701"
   version="1.1"
   id="svg1"
   xml:space="preserve"
   xmlns="http://www.w3.org/2000/svg"
   xmlns:svg="http://www.w3.org/2000/svg"><defs
     id="defs1" /><g
     id="layer1"
     transform="translate(157.25102,198.81012)"><path
       id="path5"
       style="fill:#ffffff;fill-opacity:1;stroke-width:0.805188;stroke-linecap:round;stroke-linejoin:round"
       d="M -2.0863309 -198.17657 L -10.088943 -183.11289 L -10.930235 -165.68398 L -19.198981 -165.68398 L -11.423229 -155.47426 L -12.166336 -140.07934 C -28.353216 -157.12094 -50.823548 -166.77435 -74.327399 -166.78417 C -103.64471 -166.77397 -130.92652 -151.79225 -146.66717 -127.05894 L -157.25102 -127.05894 L -149.61996 -115.86014 L -157.25102 -26.140039 L -8.5138455 -26.140039 L 15.419061 -26.140039 L 8.0799737 -154.80195 L 15.419061 -165.68398 L 7.4593397 -165.68398 L 6.4490654 -183.39297 L -2.0863309 -198.17657 z M -83.43072 -192.21621 C -85.584619 -189.65499 -86.77489 -186.4211 -86.795372 -183.07465 C -86.842092 -175.15518 -80.459903 -168.69733 -72.540428 -168.65072 C -64.621155 -168.60402 -58.163395 -174.98588 -58.116503 -182.90515 C -58.102813 -186.26049 -59.266203 -189.5144 -61.404157 -192.10045 C -60.83125 -190.6836 -60.536835 -189.16959 -60.537027 -187.64129 C -60.575787 -181.07411 -65.930869 -175.78172 -72.498054 -175.82031 C -79.065241 -175.85911 -84.357627 -181.21415 -84.319038 -187.78134 C -84.309338 -189.30285 -84.007827 -190.80837 -83.43072 -192.21621 z M -16.269444 -120.07436 C -11.734586 -119.84761 -8.0496256 -118.85557 -5.2153388 -117.09831 L -25.452346 -83.767013 L -12.442805 -83.767013 L -11.592727 -97.626632 C -9.7787838 -97.626632 -8.4749385 -97.995076 -7.6813382 -98.731991 C -6.8310522 -99.468905 -6.1793879 -100.71611 -5.725902 -102.47336 L -0.87916941 -102.47336 L -0.96391876 -83.341716 C 1.1901392 -82.718173 3.9106011 -82.066508 7.1983737 -81.38628 L 6.7735934 -77.304875 L -1.3892158 -77.304875 L -1.3892158 -62.084615 L -12.442805 -62.084615 L -12.442805 -77.304875 L -37.016499 -77.304875 L -37.69656 -80.36567 L -16.269444 -120.07436 z M -126.97638 -119.73381 C -121.13775 -119.73381 -116.48984 -118.28861 -113.03201 -115.39764 C -109.57418 -112.56335 -107.84525 -108.56711 -107.84525 -103.40871 C -107.84525 -98.873849 -109.57418 -94.026912 -113.03201 -88.86851 C -116.48984 -83.766794 -122.18644 -77.616529 -130.12244 -70.41744 L -107.24994 -70.41744 L -107.24994 -62.084615 L -145.768 -62.084615 L -145.768 -67.016097 C -139.47588 -73.081471 -134.5723 -78.268272 -131.05779 -82.576388 C -127.54327 -86.884504 -125.0208 -90.852684 -123.49029 -94.480571 C -121.90309 -98.108458 -121.10956 -101.84955 -121.10956 -105.70418 C -121.10956 -111.82623 -123.15029 -114.88759 -127.23166 -114.88759 C -129.04561 -114.88759 -130.51938 -114.0369 -131.6531 -112.33633 C -132.78681 -110.69244 -133.35377 -108.65171 -133.35377 -106.21422 C -133.35377 -104.51365 -132.75823 -102.89852 -131.56783 -101.36801 C -132.53149 -100.46103 -133.63734 -99.752209 -134.88443 -99.242037 C -136.07483 -98.731866 -137.26487 -98.476709 -138.45527 -98.476709 C -140.49595 -98.476709 -142.19682 -99.10031 -143.55728 -100.3474 C -144.91774 -101.65117 -145.59798 -103.52197 -145.59798 -105.95946 C -145.59798 -108.567 -144.83252 -110.91953 -143.302 -113.01691 C -141.77149 -115.11428 -139.61746 -116.75799 -136.83986 -117.94839 C -134.00558 -119.13879 -130.71764 -119.73381 -126.97638 -119.73381 z M -60.399051 -119.73381 C -56.714478 -119.73381 -53.455123 -119.11073 -50.620836 -117.86364 C -47.786549 -116.67324 -45.575883 -114.97237 -43.988683 -112.76163 C -42.401482 -110.60757 -41.60795 -108.11368 -41.60795 -105.27939 C -41.60795 -102.10499 -42.542834 -99.384015 -44.413463 -97.116586 C -46.284092 -94.849156 -49.061715 -93.120223 -52.746288 -91.929822 C -48.098057 -90.909479 -44.838702 -89.237189 -42.968073 -86.913074 C -41.097444 -84.588959 -40.162043 -81.442892 -40.162043 -77.474891 C -40.162043 -74.017061 -41.210732 -71.069506 -43.308104 -68.632019 C -45.348791 -66.194533 -48.013125 -64.380375 -51.300898 -63.189974 C -54.588671 -61.999574 -57.989894 -61.404554 -61.504409 -61.404554 C -66.606126 -61.404554 -70.94275 -62.453243 -74.513951 -64.550615 C -78.028467 -66.647987 -79.785464 -69.510317 -79.785464 -73.138204 C -79.785464 -75.235577 -79.161863 -76.851222 -77.914777 -77.984937 C -76.667691 -79.175337 -75.109206 -79.770358 -73.238577 -79.770358 C -71.311262 -79.770358 -69.355236 -79.005405 -67.371235 -77.474891 C -67.881406 -76.397862 -68.136563 -75.094016 -68.136563 -73.563501 C -68.136563 -71.749558 -67.598186 -70.275781 -66.521158 -69.142066 C -65.387443 -68.008351 -63.715153 -67.441394 -61.504409 -67.441394 C -56.629436 -67.441394 -54.192194 -70.814037 -54.192194 -77.55964 C -54.192194 -81.244213 -55.382235 -84.10706 -57.763036 -86.147746 C -60.087151 -88.188433 -63.403667 -89.208541 -67.711783 -89.208541 L -67.711783 -94.480571 C -59.378979 -95.1608 -55.212287 -98.760535 -55.212287 -105.27939 C -55.212287 -108.56717 -55.7226 -110.97583 -56.742943 -112.50634 C -57.763286 -114.09354 -59.151839 -114.88759 -60.909097 -114.88759 C -63.006469 -114.88759 -64.594051 -114.15071 -65.67108 -112.67688 C -66.691423 -111.20305 -67.201219 -109.41747 -67.201219 -107.3201 C -67.201219 -105.44947 -66.804711 -103.77718 -66.011111 -102.30335 C -67.598312 -100.60278 -69.639046 -99.752084 -72.133218 -99.752084 C -74.400647 -99.752084 -76.157645 -100.43233 -77.404731 -101.79279 C -78.651817 -103.15324 -79.275418 -104.91076 -79.275418 -107.06482 C -79.275418 -109.8991 -78.311953 -112.25164 -76.384638 -114.12227 C -74.400637 -116.04958 -71.962879 -117.46671 -69.071906 -118.37369 C -66.124248 -119.28066 -63.233337 -119.73381 -60.399051 -119.73381 z M -92.114944 -101.28274 C -90.130943 -101.28274 -88.657166 -100.68772 -87.693509 -99.497319 C -86.673165 -98.363604 -86.162853 -96.776539 -86.162853 -94.735852 C -86.162853 -92.695166 -86.673165 -91.107584 -87.693509 -89.973869 C -88.657166 -88.840154 -90.130943 -88.273198 -92.114944 -88.273198 C -94.098945 -88.273198 -95.600786 -88.840154 -96.621129 -89.973869 C -97.584787 -91.16427 -98.067036 -92.751852 -98.067036 -94.735852 C -98.067036 -96.833225 -97.584787 -98.448354 -96.621129 -99.582068 C -95.600786 -100.71578 -94.098945 -101.28274 -92.114944 -101.28274 z M -92.114944 -74.498845 C -90.130943 -74.498845 -88.657166 -73.903824 -87.693509 -72.713424 C -86.673165 -71.579709 -86.162853 -69.992127 -86.162853 -67.951441 C -86.162853 -65.910754 -86.673165 -64.323689 -87.693509 -63.189974 C -88.657166 -62.05626 -90.130943 -61.489303 -92.114944 -61.489303 C -94.098945 -61.489303 -95.600786 -62.05626 -96.621129 -63.189974 C -97.584787 -64.380375 -98.067036 -65.96744 -98.067036 -67.951441 C -98.067036 -70.048813 -97.584787 -71.664459 -96.621129 -72.798173 C -95.600786 -73.931888 -94.098945 -74.498845 -92.114944 -74.498845 z " /></g></svg>
