<?xml version="1.0" encoding="UTF-8" standalone="no"?>
<!-- Created with Inkscape (http://www.inkscape.org/) -->

<svg
   width="172.6701mm"
   height="172.6701mm"
   viewBox="0 0 172.6701 172.6701"
   version="1.1"
   id="svg1"
   xml:space="preserve"
   xmlns="http://www.w3.org/2000/svg"
   xmlns:svg="http://www.w3.org/2000/svg"><defs
     id="defs1" /><g
     id="layer1"
     transform="translate(157.25102,198.81012)"><path
       id="path5"
       style="fill:#ffffff;fill-opacity:1;stroke-width:0.805188;stroke-linecap:round;stroke-linejoin:round"
       d="M -2.0863309 -198.17657 L -10.088943 -183.11289 L -10.930235 -165.68398 L -19.198981 -165.68398 L -11.423229 -155.47426 L -12.166336 -140.07934 C -28.353216 -157.12094 -50.823548 -166.77435 -74.327399 -166.78417 C -103.64471 -166.77397 -130.92652 -151.79225 -146.66717 -127.05894 L -157.25102 -127.05894 L -149.61996 -115.86014 L -157.25102 -26.140039 L -8.5138455 -26.140039 L 15.419061 -26.140039 L 8.0799737 -154.80195 L 15.419061 -165.68398 L 7.4593397 -165.68398 L 6.4490654 -183.39297 L -2.0863309 -198.17657 z M -83.43072 -192.21621 C -85.584619 -189.65499 -86.77489 -186.4211 -86.795372 -183.07465 C -86.842092 -175.15518 -80.459903 -168.69733 -72.540428 -168.65072 C -64.621155 -168.60402 -58.163395 -174.98588 -58.116503 -182.90515 C -58.102813 -186.26049 -59.266203 -189.5144 -61.404157 -192.10045 C -60.83125 -190.6836 -60.536835 -189.16959 -60.537027 -187.64129 C -60.575787 -181.07411 -65.930869 -175.78172 -72.498054 -175.82031 C -79.065241 -175.85911 -84.357627 -181.21415 -84.319038 -187.78134 C -84.309338 -189.30285 -84.007827 -190.80837 -83.43072 -192.21621 z M -2.7074816 -119.90383 L -0.66677928 -115.65241 C -12.117298 -110.72075 -19.004452 -103.12528 -21.328567 -92.865166 C -18.040795 -94.452366 -14.922791 -95.245899 -11.975133 -95.245899 C -6.3065594 -95.245899 -1.8571639 -93.715477 1.373923 -90.654448 C 4.6616957 -87.593418 6.3059217 -83.455306 6.3059217 -78.240218 C 6.3059217 -75.009132 5.4271647 -72.118221 3.6699069 -69.567363 C 1.9693349 -67.016505 -0.43984347 -65.032415 -3.5575589 -63.615271 C -6.6185886 -62.198128 -10.1331 -61.489303 -14.101101 -61.489303 C -20.846704 -61.489303 -26.033505 -63.360105 -29.661392 -67.101363 C -33.232593 -70.842622 -35.018171 -76.255999 -35.018171 -83.341716 C -35.018171 -92.241376 -32.269129 -99.808775 -26.770612 -106.04421 C -21.21541 -112.33632 -13.194343 -116.95617 -2.7074816 -119.90383 z M -126.33869 -119.73381 C -120.50006 -119.73381 -115.85216 -118.28861 -112.39433 -115.39764 C -108.9365 -112.56335 -107.20756 -108.56711 -107.20756 -103.40871 C -107.20756 -98.873849 -108.9365 -94.026912 -112.39433 -88.86851 C -115.85216 -83.766794 -121.54875 -77.616529 -129.48476 -70.41744 L -106.61225 -70.41744 L -106.61225 -62.084615 L -145.13031 -62.084615 L -145.13031 -67.016097 C -138.8382 -73.081471 -133.93462 -78.268272 -130.4201 -82.576388 C -126.90558 -86.884504 -124.38312 -90.852684 -122.8526 -94.480571 C -121.2654 -98.108458 -120.47187 -101.84955 -120.47187 -105.70418 C -120.47187 -111.82623 -122.5126 -114.88759 -126.59398 -114.88759 C -128.40792 -114.88759 -129.8817 -114.0369 -131.01541 -112.33633 C -132.14913 -110.69244 -132.71608 -108.65171 -132.71608 -106.21422 C -132.71608 -104.51365 -132.12055 -102.89852 -130.93015 -101.36801 C -131.8938 -100.46103 -132.99965 -99.752209 -134.24674 -99.242037 C -135.43714 -98.731866 -136.62718 -98.476709 -137.81758 -98.476709 C -139.85827 -98.476709 -141.55914 -99.10031 -142.9196 -100.3474 C -144.28005 -101.65117 -144.9603 -103.52197 -144.9603 -105.95946 C -144.9603 -108.567 -144.19483 -110.91953 -142.66431 -113.01691 C -141.1338 -115.11428 -138.97978 -116.75799 -136.20218 -117.94839 C -133.36789 -119.13879 -130.07995 -119.73381 -126.33869 -119.73381 z M -59.761363 -119.73381 C -56.076791 -119.73381 -52.817436 -119.11073 -49.983149 -117.86364 C -47.148862 -116.67324 -44.938196 -114.97237 -43.350996 -112.76163 C -41.763795 -110.60757 -40.970262 -108.11368 -40.970262 -105.27939 C -40.970262 -102.10499 -41.905147 -99.384015 -43.775776 -97.116586 C -45.646405 -94.849156 -48.424028 -93.120223 -52.108601 -91.929822 C -47.46037 -90.909479 -44.201015 -89.237189 -42.330386 -86.913074 C -40.459757 -84.588959 -39.524356 -81.442892 -39.524356 -77.474891 C -39.524356 -74.017061 -40.573045 -71.069506 -42.670417 -68.632019 C -44.711103 -66.194533 -47.375438 -64.380375 -50.663211 -63.189974 C -53.950983 -61.999574 -57.352207 -61.404554 -60.866722 -61.404554 C -65.968438 -61.404554 -70.305063 -62.453243 -73.876264 -64.550615 C -77.39078 -66.647987 -79.147777 -69.510317 -79.147777 -73.138204 C -79.147777 -75.235577 -78.524176 -76.851222 -77.27709 -77.984937 C -76.030004 -79.175337 -74.471519 -79.770358 -72.60089 -79.770358 C -70.673575 -79.770358 -68.717548 -79.005405 -66.733548 -77.474891 C -67.243719 -76.397862 -67.498876 -75.094016 -67.498876 -73.563501 C -67.498876 -71.749558 -66.960499 -70.275781 -65.88347 -69.142066 C -64.749756 -68.008351 -63.077466 -67.441394 -60.866722 -67.441394 C -55.991749 -67.441394 -53.554507 -70.814037 -53.554507 -77.55964 C -53.554507 -81.244213 -54.744548 -84.10706 -57.125349 -86.147746 C -59.449464 -88.188433 -62.765979 -89.208541 -67.074095 -89.208541 L -67.074095 -94.480571 C -58.741292 -95.1608 -54.5746 -98.760535 -54.5746 -105.27939 C -54.5746 -108.56717 -55.084913 -110.97583 -56.105256 -112.50634 C -57.125599 -114.09354 -58.514152 -114.88759 -60.27141 -114.88759 C -62.368782 -114.88759 -63.956364 -114.15071 -65.033393 -112.67688 C -66.053736 -111.20305 -66.563532 -109.41747 -66.563532 -107.3201 C -66.563532 -105.44947 -66.167024 -103.77718 -65.373424 -102.30335 C -66.960625 -100.60278 -69.001359 -99.752084 -71.495531 -99.752084 C -73.76296 -99.752084 -75.519958 -100.43233 -76.767044 -101.79279 C -78.01413 -103.15324 -78.637731 -104.91076 -78.637731 -107.06482 C -78.637731 -109.8991 -77.674266 -112.25164 -75.746951 -114.12227 C -73.76295 -116.04958 -71.325192 -117.46671 -68.434219 -118.37369 C -65.486561 -119.28066 -62.59565 -119.73381 -59.761363 -119.73381 z M -91.477257 -101.28274 C -89.493256 -101.28274 -88.019479 -100.68772 -87.055821 -99.497319 C -86.035478 -98.363604 -85.525166 -96.776539 -85.525166 -94.735852 C -85.525166 -92.695166 -86.035478 -91.107584 -87.055821 -89.973869 C -88.019479 -88.840154 -89.493256 -88.273198 -91.477257 -88.273198 C -93.461258 -88.273198 -94.963099 -88.840154 -95.983442 -89.973869 C -96.947099 -91.16427 -97.429348 -92.751852 -97.429348 -94.735852 C -97.429348 -96.833225 -96.947099 -98.448354 -95.983442 -99.582068 C -94.963099 -100.71578 -93.461258 -101.28274 -91.477257 -101.28274 z M -14.356383 -89.293807 C -16.737184 -89.293807 -19.316294 -88.330343 -22.093895 -86.403028 L -22.093895 -85.297669 C -22.093895 -79.118924 -21.41365 -74.583787 -20.053193 -71.692814 C -18.692735 -68.801842 -16.538713 -67.356645 -13.591055 -67.356645 C -11.153568 -67.356645 -9.2827664 -68.291529 -7.9789944 -70.162159 C -6.6752225 -72.032788 -6.0235582 -74.697123 -6.0235582 -78.154952 C -6.0235582 -81.669468 -6.7604469 -84.390447 -8.234276 -86.317762 C -9.6514194 -88.301762 -11.692153 -89.293807 -14.356383 -89.293807 z M -91.477257 -74.498845 C -89.493256 -74.498845 -88.019479 -73.903824 -87.055821 -72.713424 C -86.035478 -71.579709 -85.525166 -69.992127 -85.525166 -67.951441 C -85.525166 -65.910754 -86.035478 -64.323689 -87.055821 -63.189974 C -88.019479 -62.05626 -89.493256 -61.489303 -91.477257 -61.489303 C -93.461258 -61.489303 -94.963099 -62.05626 -95.983442 -63.189974 C -96.947099 -64.380375 -97.429348 -65.96744 -97.429348 -67.951441 C -97.429348 -70.048813 -96.947099 -71.664459 -95.983442 -72.798173 C -94.963099 -73.931888 -93.461258 -74.498845 -91.477257 -74.498845 z " /></g></svg>
