<?xml version="1.0" encoding="UTF-8" standalone="no"?>
<!-- Created with Inkscape (http://www.inkscape.org/) -->

<svg
   width="172.6701mm"
   height="172.6701mm"
   viewBox="0 0 172.6701 172.6701"
   version="1.1"
   id="svg1"
   xml:space="preserve"
   xmlns="http://www.w3.org/2000/svg"
   xmlns:svg="http://www.w3.org/2000/svg"><defs
     id="defs1" /><g
     id="layer1"
     transform="translate(157.25102,198.81012)"><path
       id="path5"
       style="fill:#ffffff;fill-opacity:1;stroke-width:0.805188;stroke-linecap:round;stroke-linejoin:round"
       d="M -2.0863309 -198.17657 L -10.088943 -183.11289 L -10.930235 -165.68398 L -19.198981 -165.68398 L -11.423229 -155.47426 L -12.166336 -140.07934 C -28.353216 -157.12094 -50.823548 -166.77435 -74.327399 -166.78417 C -103.64471 -166.77397 -130.92652 -151.79225 -146.66717 -127.05894 L -157.25102 -127.05894 L -149.61996 -115.86014 L -157.25102 -26.140039 L -8.5138455 -26.140039 L 15.419061 -26.140039 L 8.0799737 -154.80195 L 15.419061 -165.68398 L 7.4593397 -165.68398 L 6.4490654 -183.39297 L -2.0863309 -198.17657 z M -83.43072 -192.21621 C -85.584619 -189.65499 -86.77489 -186.4211 -86.795372 -183.07465 C -86.842092 -175.15518 -80.459903 -168.69733 -72.540428 -168.65072 C -64.621155 -168.60402 -58.163395 -174.98588 -58.116503 -182.90515 C -58.102813 -186.26049 -59.266203 -189.5144 -61.404157 -192.10045 C -60.83125 -190.6836 -60.536835 -189.16959 -60.537027 -187.64129 C -60.575787 -181.07411 -65.930869 -175.78172 -72.498054 -175.82031 C -79.065241 -175.85911 -84.357627 -181.21415 -84.319038 -187.78134 C -84.309338 -189.30285 -84.007827 -190.80837 -83.43072 -192.21621 z M -124.46801 -119.73381 C -118.62938 -119.73381 -113.98147 -118.28861 -110.52364 -115.39764 C -107.06581 -112.56335 -105.33688 -108.56711 -105.33688 -103.40871 C -105.33688 -98.873849 -107.06581 -94.026912 -110.52364 -88.86851 C -113.98147 -83.766794 -119.67807 -77.616529 -127.61407 -70.41744 L -104.74156 -70.41744 L -104.74156 -62.084615 L -143.25963 -62.084615 L -143.25963 -67.016097 C -136.96751 -73.081471 -132.06393 -78.268272 -128.54941 -82.576388 C -125.0349 -86.884504 -122.51243 -90.852684 -120.98192 -94.480571 C -119.39472 -98.108458 -118.60118 -101.84955 -118.60118 -105.70418 C -118.60118 -111.82623 -120.64192 -114.88759 -124.72329 -114.88759 C -126.53723 -114.88759 -128.01101 -114.0369 -129.14473 -112.33633 C -130.27844 -110.69244 -130.8454 -108.65171 -130.8454 -106.21422 C -130.8454 -104.51365 -130.25038 -102.89852 -129.05998 -101.36801 C -130.02363 -100.46103 -131.12897 -99.752209 -132.37605 -99.242037 C -133.56645 -98.731866 -134.75649 -98.476709 -135.94689 -98.476709 C -137.98758 -98.476709 -139.68845 -99.10031 -141.04891 -100.3474 C -142.40937 -101.65117 -143.08961 -103.52197 -143.08961 -105.95946 C -143.08961 -108.567 -142.32414 -110.91953 -140.79363 -113.01691 C -139.26311 -115.11428 -137.10909 -116.75799 -134.33149 -117.94839 C -131.4972 -119.13879 -128.20927 -119.73381 -124.46801 -119.73381 z M -57.890677 -119.73381 C -54.206104 -119.73381 -50.946749 -119.11073 -48.112462 -117.86364 C -45.278175 -116.67324 -43.067509 -114.97237 -41.480309 -112.76163 C -39.893108 -110.60757 -39.099576 -108.11368 -39.099576 -105.27939 C -39.099576 -102.10499 -40.034977 -99.384015 -41.905606 -97.116586 C -43.776235 -94.849156 -46.553858 -93.120223 -50.23843 -91.929822 C -45.5902 -90.909479 -42.330328 -89.237189 -40.459699 -86.913074 C -38.58907 -84.588959 -37.654186 -81.442892 -37.654186 -77.474891 C -37.654186 -74.017061 -38.702875 -71.069506 -40.800247 -68.632019 C -42.840933 -66.194533 -45.504751 -64.380375 -48.792524 -63.189974 C -52.080297 -61.999574 -55.48152 -61.404554 -58.996035 -61.404554 C -64.097752 -61.404554 -68.434376 -62.453243 -72.005577 -64.550615 C -75.520093 -66.647987 -77.27709 -69.510317 -77.27709 -73.138204 C -77.27709 -75.235577 -76.653489 -76.851222 -75.406403 -77.984937 C -74.159317 -79.175337 -72.600832 -79.770358 -70.730203 -79.770358 C -68.802888 -79.770358 -66.846862 -79.005405 -64.862861 -77.474891 C -65.373032 -76.397862 -65.628189 -75.094016 -65.628189 -73.563501 C -65.628189 -71.749558 -65.089812 -70.275781 -64.012784 -69.142066 C -62.879069 -68.008351 -61.206779 -67.441394 -58.996035 -67.441394 C -54.121062 -67.441394 -51.68382 -70.814037 -51.68382 -77.55964 C -51.68382 -81.244213 -52.873861 -84.10706 -55.254662 -86.147746 C -57.578777 -88.188433 -60.895293 -89.208541 -65.203409 -89.208541 L -65.203409 -94.480571 C -56.870605 -95.1608 -52.703913 -98.760535 -52.703913 -105.27939 C -52.703913 -108.56717 -53.214226 -110.97583 -54.234569 -112.50634 C -55.254912 -114.09354 -56.643465 -114.88759 -58.400723 -114.88759 C -60.498095 -114.88759 -62.085677 -114.15071 -63.162706 -112.67688 C -64.183049 -111.20305 -64.692845 -109.41747 -64.692845 -107.3201 C -64.692845 -105.44947 -64.296337 -103.77718 -63.502737 -102.30335 C -65.089938 -100.60278 -67.130672 -99.752084 -69.624844 -99.752084 C -71.892273 -99.752084 -73.649271 -100.43233 -74.896357 -101.79279 C -76.143443 -103.15324 -76.767044 -104.91076 -76.767044 -107.06482 C -76.767044 -109.8991 -75.803579 -112.25164 -73.876264 -114.12227 C -71.892263 -116.04958 -69.454505 -117.46671 -66.563532 -118.37369 C -63.615874 -119.28066 -60.724963 -119.73381 -57.890677 -119.73381 z M -32.892202 -118.88373 L -28.726048 -118.88373 C -26.571991 -118.82705 -21.866922 -118.79847 -14.611148 -118.79847 C -7.071945 -118.79847 -2.1688807 -118.82705 0.098548685 -118.88373 L 4.1799533 -118.88373 L 5.8806247 -115.22762 C 4.8035957 -113.52705 2.7628617 -109.84261 -0.24148224 -104.17404 C -3.2458262 -98.505463 -6.0800929 -92.496548 -8.7443224 -86.147746 C -11.408552 -79.798944 -12.740461 -74.838719 -12.740461 -71.267517 C -12.740461 -68.433231 -11.748416 -66.307789 -9.7644152 -64.890646 C -11.69173 -62.566531 -14.157553 -61.404554 -17.161896 -61.404554 C -19.939497 -61.404554 -22.093519 -62.169506 -23.624034 -63.700021 C -25.154549 -65.230536 -25.920018 -67.356494 -25.920018 -70.077409 C -25.920018 -73.478553 -25.097905 -77.077772 -23.454019 -80.875717 C -21.810133 -84.730347 -18.862578 -89.945728 -14.611148 -96.521273 L -4.5776517 -111.9963 L -23.964582 -111.9963 C -24.758182 -109.44544 -25.239915 -106.44124 -25.409972 -102.98341 C -26.430315 -102.81335 -27.479004 -102.72813 -28.556033 -102.72813 C -29.689748 -102.72813 -30.795081 -102.81335 -31.87211 -102.98341 L -34.252843 -117.60836 L -32.892202 -118.88373 z M -89.60657 -101.28274 C -87.622569 -101.28274 -86.148792 -100.68772 -85.185135 -99.497319 C -84.164791 -98.363604 -83.654479 -96.776539 -83.654479 -94.735852 C -83.654479 -92.695166 -84.164791 -91.107584 -85.185135 -89.973869 C -86.148792 -88.840154 -87.622569 -88.273198 -89.60657 -88.273198 C -91.590571 -88.273198 -93.092412 -88.840154 -94.112755 -89.973869 C -95.076413 -91.16427 -95.558662 -92.751852 -95.558662 -94.735852 C -95.558662 -96.833225 -95.076413 -98.448354 -94.112755 -99.582068 C -93.092412 -100.71578 -91.590571 -101.28274 -89.60657 -101.28274 z M -89.60657 -74.498845 C -87.622569 -74.498845 -86.148792 -73.903824 -85.185135 -72.713424 C -84.164791 -71.579709 -83.654479 -69.992127 -83.654479 -67.951441 C -83.654479 -65.910754 -84.164791 -64.323689 -85.185135 -63.189974 C -86.148792 -62.05626 -87.622569 -61.489303 -89.60657 -61.489303 C -91.590571 -61.489303 -93.092412 -62.05626 -94.112755 -63.189974 C -95.076413 -64.380375 -95.558662 -65.96744 -95.558662 -67.951441 C -95.558662 -70.048813 -95.076413 -71.664459 -94.112755 -72.798173 C -93.092412 -73.931888 -91.590571 -74.498845 -89.60657 -74.498845 z " /></g></svg>
