<?xml version="1.0" encoding="UTF-8" standalone="no"?>
<!-- Created with Inkscape (http://www.inkscape.org/) -->

<svg
   width="172.6701mm"
   height="172.6701mm"
   viewBox="0 0 172.6701 172.6701"
   version="1.1"
   id="svg1"
   xml:space="preserve"
   xmlns="http://www.w3.org/2000/svg"
   xmlns:svg="http://www.w3.org/2000/svg"><defs
     id="defs1" /><g
     id="layer1"
     transform="translate(157.25102,198.81012)"><path
       id="path5"
       style="fill:#ffffff;fill-opacity:1;stroke-width:0.805188;stroke-linecap:round;stroke-linejoin:round"
       d="M -2.0863309 -198.17657 L -10.088943 -183.11289 L -10.930235 -165.68398 L -19.198981 -165.68398 L -11.423229 -155.47426 L -12.166336 -140.07934 C -28.353216 -157.12094 -50.823548 -166.77435 -74.327399 -166.78417 C -103.64471 -166.77397 -130.92652 -151.79225 -146.66717 -127.05894 L -157.25102 -127.05894 L -149.61996 -115.86014 L -157.25102 -26.140039 L -8.5138455 -26.140039 L 15.419061 -26.140039 L 8.0799737 -154.80195 L 15.419061 -165.68398 L 7.4593397 -165.68398 L 6.4490654 -183.39297 L -2.0863309 -198.17657 z M -83.43072 -192.21621 C -85.584619 -189.65499 -86.77489 -186.4211 -86.795372 -183.07465 C -86.842092 -175.15518 -80.459903 -168.69733 -72.540428 -168.65072 C -64.621155 -168.60402 -58.163395 -174.98588 -58.116503 -182.90515 C -58.102813 -186.26049 -59.266203 -189.5144 -61.404157 -192.10045 C -60.83125 -190.6836 -60.536835 -189.16959 -60.537027 -187.64129 C -60.575787 -181.07411 -65.930869 -175.78172 -72.498054 -175.82031 C -79.065241 -175.85911 -84.357627 -181.21415 -84.319038 -187.78134 C -84.309338 -189.30285 -84.007827 -190.80837 -83.43072 -192.21621 z M -14.526398 -119.81908 C -8.5743962 -119.81908 -3.8407472 -118.54381 -0.32623159 -115.99295 C 3.188284 -113.44209 4.9452813 -110.01229 4.9452813 -105.70418 C 4.9452813 -103.38006 4.0951046 -101.05611 2.3945326 -98.731991 C 0.69396052 -96.407876 -1.5452858 -94.50901 -4.3228869 -93.035181 C -0.80837129 -91.334609 1.9411878 -89.350519 3.9251885 -87.08309 C 5.965875 -84.81566 6.9859836 -81.896169 6.9859836 -78.324968 C 6.9859836 -73.166566 5.1151815 -69.057034 1.373923 -65.996005 C -2.3673355 -62.991661 -7.4122681 -61.489303 -13.76107 -61.489303 C -20.733416 -61.489303 -26.118212 -62.878373 -29.916157 -65.655974 C -33.657415 -68.433575 -35.528217 -72.401238 -35.528217 -77.55964 C -35.528217 -80.223869 -34.678041 -82.86014 -32.977469 -85.467684 C -31.276897 -88.131914 -28.896299 -90.483931 -25.835269 -92.524618 C -28.386127 -93.941761 -30.3697 -95.642631 -31.786844 -97.626632 C -33.203987 -99.610633 -33.912812 -102.07646 -33.912812 -105.02411 C -33.912812 -109.55897 -32.155298 -113.15871 -28.640782 -115.82294 C -25.126267 -118.48717 -20.421715 -119.81908 -14.526398 -119.81908 z M -127.10402 -119.73381 C -121.26539 -119.73381 -116.61748 -118.28861 -113.15965 -115.39764 C -109.70182 -112.56335 -107.97289 -108.56711 -107.97289 -103.40871 C -107.97289 -98.873849 -109.70182 -94.026912 -113.15965 -88.86851 C -116.61748 -83.766794 -122.31408 -77.616529 -130.25008 -70.41744 L -107.37758 -70.41744 L -107.37758 -62.084615 L -145.89564 -62.084615 L -145.89564 -67.016097 C -139.60352 -73.081471 -134.69994 -78.268272 -131.18543 -82.576388 C -127.67091 -86.884504 -125.14845 -90.852684 -123.61793 -94.480571 C -122.03073 -98.108458 -121.2372 -101.84955 -121.2372 -105.70418 C -121.2372 -111.82623 -123.27793 -114.88759 -127.3593 -114.88759 C -129.17325 -114.88759 -130.64703 -114.0369 -131.78074 -112.33633 C -132.91445 -110.69244 -133.48141 -108.65171 -133.48141 -106.21422 C -133.48141 -104.51365 -132.88587 -102.89852 -131.69547 -101.36801 C -132.65913 -100.46103 -133.76446 -99.752209 -135.01155 -99.242037 C -136.20195 -98.731866 -137.39251 -98.476709 -138.58291 -98.476709 C -140.6236 -98.476709 -142.32447 -99.10031 -143.68492 -100.3474 C -145.04538 -101.65117 -145.72511 -103.52197 -145.72511 -105.95946 C -145.72511 -108.567 -144.96016 -110.91953 -143.42964 -113.01691 C -141.89913 -115.11428 -139.7451 -116.75799 -136.9675 -117.94839 C -134.13322 -119.13879 -130.84528 -119.73381 -127.10402 -119.73381 z M -60.526691 -119.73381 C -56.842119 -119.73381 -53.582764 -119.11073 -50.748477 -117.86364 C -47.91419 -116.67324 -45.703524 -114.97237 -44.116324 -112.76163 C -42.529123 -110.60757 -41.735074 -108.11368 -41.735074 -105.27939 C -41.735074 -102.10499 -42.670475 -99.384015 -44.541104 -97.116586 C -46.411733 -94.849156 -49.189356 -93.120223 -52.873929 -91.929822 C -48.225698 -90.909479 -44.966343 -89.237189 -43.095714 -86.913074 C -41.225085 -84.588959 -40.289684 -81.442892 -40.289684 -77.474891 C -40.289684 -74.017061 -41.338373 -71.069506 -43.435745 -68.632019 C -45.476431 -66.194533 -48.140766 -64.380375 -51.428539 -63.189974 C -54.716311 -61.999574 -58.117535 -61.404554 -61.63205 -61.404554 C -66.733766 -61.404554 -71.070391 -62.453243 -74.641592 -64.550615 C -78.156108 -66.647987 -79.913105 -69.510317 -79.913105 -73.138204 C -79.913105 -75.235577 -79.289504 -76.851222 -78.042418 -77.984937 C -76.795332 -79.175337 -75.236847 -79.770358 -73.366218 -79.770358 C -71.438903 -79.770358 -69.482876 -79.005405 -67.498876 -77.474891 C -68.009047 -76.397862 -68.264204 -75.094016 -68.264204 -73.563501 C -68.264204 -71.749558 -67.725827 -70.275781 -66.648798 -69.142066 C -65.515084 -68.008351 -63.842794 -67.441394 -61.63205 -67.441394 C -56.757077 -67.441394 -54.319318 -70.814037 -54.319318 -77.55964 C -54.319318 -81.244213 -55.509876 -84.10706 -57.890677 -86.147746 C -60.214792 -88.188433 -63.530791 -89.208541 -67.838907 -89.208541 L -67.838907 -94.480571 C -59.506104 -95.1608 -55.339928 -98.760535 -55.339928 -105.27939 C -55.339928 -108.56717 -55.850241 -110.97583 -56.870584 -112.50634 C -57.890927 -114.09354 -59.27948 -114.88759 -61.036738 -114.88759 C -63.13411 -114.88759 -64.721175 -114.15071 -65.798204 -112.67688 C -66.818547 -111.20305 -67.32886 -109.41747 -67.32886 -107.3201 C -67.32886 -105.44947 -66.932352 -103.77718 -66.138752 -102.30335 C -67.725953 -100.60278 -69.76617 -99.752084 -72.260342 -99.752084 C -74.527772 -99.752084 -76.285286 -100.43233 -77.532372 -101.79279 C -78.779458 -103.15324 -79.403059 -104.91076 -79.403059 -107.06482 C -79.403059 -109.8991 -78.439594 -112.25164 -76.512279 -114.12227 C -74.528278 -116.04958 -72.09052 -117.46671 -69.199547 -118.37369 C -66.251889 -119.28066 -63.360978 -119.73381 -60.526691 -119.73381 z M -14.526398 -113.78224 C -16.793828 -113.78224 -18.579405 -113.04535 -19.883177 -111.57152 C -21.186949 -110.15437 -21.838614 -108.22693 -21.838614 -105.78944 C -21.838614 -103.63538 -21.016501 -101.84981 -19.372614 -100.43266 C -17.672042 -99.072205 -15.20622 -97.711715 -11.975133 -96.351258 C -10.55799 -97.314915 -9.424593 -98.646824 -8.5743069 -100.3474 C -7.7240209 -102.04797 -7.2989326 -103.86213 -7.2989326 -105.78944 C -7.2989326 -108.22693 -7.9791773 -110.15437 -9.3396349 -111.57152 C -10.643407 -113.04535 -12.37234 -113.78224 -14.526398 -113.78224 z M -92.242585 -101.28274 C -90.258584 -101.28274 -88.78429 -100.68772 -87.820633 -99.497319 C -86.800289 -98.363604 -86.290493 -96.776539 -86.290493 -94.735852 C -86.290493 -92.695166 -86.800289 -91.107584 -87.820633 -89.973869 C -88.78429 -88.840154 -90.258584 -88.273198 -92.242585 -88.273198 C -94.226586 -88.273198 -95.728427 -88.840154 -96.74877 -89.973869 C -97.712427 -91.16427 -98.19416 -92.751852 -98.19416 -94.735852 C -98.19416 -96.833225 -97.712427 -98.448354 -96.74877 -99.582068 C -95.728427 -100.71578 -94.226586 -101.28274 -92.242585 -101.28274 z M -18.012491 -89.038526 C -19.713063 -87.678068 -20.960264 -86.119583 -21.753864 -84.362325 C -22.547465 -82.605068 -22.943972 -80.50769 -22.943972 -78.070203 C -22.943972 -74.725745 -22.121859 -72.089474 -20.477973 -70.162159 C -18.834087 -68.291529 -16.595357 -67.356645 -13.76107 -67.356645 C -10.983469 -67.356645 -8.8294474 -68.291529 -7.2989326 -70.162159 C -5.711732 -72.032788 -4.9181994 -74.640479 -4.9181994 -77.984937 C -4.9181994 -79.855566 -5.5132197 -81.442631 -6.7036201 -82.746403 C -7.8373348 -84.106861 -9.2830485 -85.212194 -11.040306 -86.06248 C -12.797564 -86.969452 -15.121518 -87.961497 -18.012491 -89.038526 z M -92.242585 -74.498845 C -90.258584 -74.498845 -88.78429 -73.903824 -87.820633 -72.713424 C -86.800289 -71.579709 -86.290493 -69.992127 -86.290493 -67.951441 C -86.290493 -65.910754 -86.800289 -64.323689 -87.820633 -63.189974 C -88.78429 -62.05626 -90.258584 -61.489303 -92.242585 -61.489303 C -94.226586 -61.489303 -95.728427 -62.05626 -96.74877 -63.189974 C -97.712427 -64.380375 -98.19416 -65.96744 -98.19416 -67.951441 C -98.19416 -70.048813 -97.712427 -71.664459 -96.74877 -72.798173 C -95.728427 -73.931888 -94.226586 -74.498845 -92.242585 -74.498845 z " /></g></svg>
