<?xml version="1.0" encoding="UTF-8" standalone="no"?>
<!-- Created with Inkscape (http://www.inkscape.org/) -->

<svg
   width="172.6701mm"
   height="172.6701mm"
   viewBox="0 0 172.6701 172.6701"
   version="1.1"
   id="svg1"
   xml:space="preserve"
   xmlns="http://www.w3.org/2000/svg"
   xmlns:svg="http://www.w3.org/2000/svg"><defs
     id="defs1" /><g
     id="layer1"
     transform="translate(157.25102,198.81012)"><path
       id="path5"
       style="fill:#ffffff;fill-opacity:1;stroke-width:0.805188;stroke-linecap:round;stroke-linejoin:round"
       d="M -2.0863309 -198.17657 L -10.088943 -183.11289 L -10.930235 -165.68398 L -19.198981 -165.68398 L -11.423229 -155.47426 L -12.166336 -140.07934 C -28.353216 -157.12094 -50.823548 -166.77435 -74.327399 -166.78417 C -103.64471 -166.77397 -130.92652 -151.79225 -146.66717 -127.05894 L -157.25102 -127.05894 L -149.61996 -115.86014 L -157.25102 -26.140039 L -8.5138455 -26.140039 L 15.419061 -26.140039 L 8.0799737 -154.80195 L 15.419061 -165.68398 L 7.4593397 -165.68398 L 6.4490654 -183.39297 L -2.0863309 -198.17657 z M -83.43072 -192.21621 C -85.584619 -189.65499 -86.77489 -186.4211 -86.795372 -183.07465 C -86.842092 -175.15518 -80.459903 -168.69733 -72.540428 -168.65072 C -64.621155 -168.60402 -58.163395 -174.98588 -58.116503 -182.90515 C -58.102813 -186.26049 -59.266203 -189.5144 -61.404157 -192.10045 C -60.83125 -190.6836 -60.536835 -189.16959 -60.537027 -187.64129 C -60.575787 -181.07411 -65.930869 -175.78172 -72.498054 -175.82031 C -79.065241 -175.85911 -84.357627 -181.21415 -84.319038 -187.78134 C -84.309338 -189.30285 -84.007827 -190.80837 -83.43072 -192.21621 z M -126.16868 -119.73381 C -120.33005 -119.73381 -115.68214 -118.28861 -112.22431 -115.39764 C -108.76648 -112.56335 -107.03755 -108.56711 -107.03755 -103.40871 C -107.03755 -98.873849 -108.76648 -94.026912 -112.22431 -88.86851 C -115.68214 -83.766794 -121.37874 -77.616529 -129.31474 -70.41744 L -106.44224 -70.41744 L -106.44224 -62.084615 L -144.9603 -62.084615 L -144.9603 -67.016097 C -138.66818 -73.081471 -133.7646 -78.268272 -130.25008 -82.576388 C -126.73557 -86.884504 -124.2131 -90.852684 -122.68259 -94.480571 C -121.09539 -98.108458 -120.30185 -101.84955 -120.30185 -105.70418 C -120.30185 -111.82623 -122.34259 -114.88759 -126.42396 -114.88759 C -128.2379 -114.88759 -129.71168 -114.0369 -130.8454 -112.33633 C -131.97911 -110.69244 -132.54607 -108.65171 -132.54607 -106.21422 C -132.54607 -104.51365 -131.95053 -102.89852 -130.76013 -101.36801 C -131.72379 -100.46103 -132.82964 -99.752209 -134.07672 -99.242037 C -135.26712 -98.731866 -136.45716 -98.476709 -137.64757 -98.476709 C -139.68825 -98.476709 -141.38912 -99.10031 -142.74958 -100.3474 C -144.11004 -101.65117 -144.79028 -103.52197 -144.79028 -105.95946 C -144.79028 -108.567 -144.02481 -110.91953 -142.4943 -113.01691 C -140.96378 -115.11428 -138.80976 -116.75799 -136.03216 -117.94839 C -133.19787 -119.13879 -129.90994 -119.73381 -126.16868 -119.73381 z M -59.591348 -119.73381 C -55.906775 -119.73381 -52.64742 -119.11073 -49.813133 -117.86364 C -46.978847 -116.67324 -44.768181 -114.97237 -43.18098 -112.76163 C -41.59378 -110.60757 -40.800247 -108.11368 -40.800247 -105.27939 C -40.800247 -102.10499 -41.735131 -99.384015 -43.60576 -97.116586 C -45.47639 -94.849156 -48.254012 -93.120223 -51.938585 -91.929822 C -47.290355 -90.909479 -44.031 -89.237189 -42.160371 -86.913074 C -40.289741 -84.588959 -39.35434 -81.442892 -39.35434 -77.474891 C -39.35434 -74.017061 -40.403029 -71.069506 -42.500402 -68.632019 C -44.541088 -66.194533 -47.205423 -64.380375 -50.493195 -63.189974 C -53.780968 -61.999574 -57.182191 -61.404554 -60.696707 -61.404554 C -65.798423 -61.404554 -70.135047 -62.453243 -73.706249 -64.550615 C -77.220764 -66.647987 -78.977762 -69.510317 -78.977762 -73.138204 C -78.977762 -75.235577 -78.354161 -76.851222 -77.107075 -77.984937 C -75.859989 -79.175337 -74.301504 -79.770358 -72.430874 -79.770358 C -70.503559 -79.770358 -68.547533 -79.005405 -66.563532 -77.474891 C -67.073704 -76.397862 -67.32886 -75.094016 -67.32886 -73.563501 C -67.32886 -71.749558 -66.790484 -70.275781 -65.713455 -69.142066 C -64.57974 -68.008351 -62.907451 -67.441394 -60.696707 -67.441394 C -55.821734 -67.441394 -53.384492 -70.814037 -53.384492 -77.55964 C -53.384492 -81.244213 -54.574532 -84.10706 -56.955333 -86.147746 C -59.279448 -88.188433 -62.595964 -89.208541 -66.90408 -89.208541 L -66.90408 -94.480571 C -58.571277 -95.1608 -54.404584 -98.760535 -54.404584 -105.27939 C -54.404584 -108.56717 -54.914897 -110.97583 -55.93524 -112.50634 C -56.955584 -114.09354 -58.344137 -114.88759 -60.101394 -114.88759 C -62.198767 -114.88759 -63.786349 -114.15071 -64.863378 -112.67688 C -65.883721 -111.20305 -66.393517 -109.41747 -66.393517 -107.3201 C -66.393517 -105.44947 -65.997009 -103.77718 -65.203409 -102.30335 C -66.790609 -100.60278 -68.831343 -99.752084 -71.325515 -99.752084 C -73.592945 -99.752084 -75.349942 -100.43233 -76.597028 -101.79279 C -77.844114 -103.15324 -78.467715 -104.91076 -78.467715 -107.06482 C -78.467715 -109.8991 -77.504251 -112.25164 -75.576936 -114.12227 C -73.592935 -116.04958 -71.155176 -117.46671 -68.264204 -118.37369 C -65.316545 -119.28066 -62.425635 -119.73381 -59.591348 -119.73381 z M -14.696414 -119.56379 C -7.9508114 -119.56379 -2.792074 -117.69351 0.7791273 -113.95225 C 4.4070143 -110.21099 6.2206556 -104.7971 6.2206556 -97.711381 C 6.2206556 -88.811721 3.4430329 -81.216258 -2.1121691 -74.924142 C -7.6106854 -68.688711 -15.603173 -64.09693 -26.090034 -61.149272 L -28.130736 -65.400692 C -22.462162 -67.838179 -17.898962 -70.956182 -14.441132 -74.754126 C -10.983302 -78.608756 -8.6874121 -83.086732 -7.5536974 -88.188448 C -10.728099 -86.601248 -13.817522 -85.807715 -16.821866 -85.807715 C -22.490439 -85.807715 -26.968932 -87.338137 -30.256704 -90.399166 C -33.487791 -93.460196 -35.10292 -97.598308 -35.10292 -102.8134 C -35.10292 -106.04448 -34.252744 -108.93539 -32.552172 -111.48625 C -30.794914 -114.03711 -28.385735 -116.0212 -25.324706 -117.43834 C -22.20699 -118.85549 -18.664415 -119.56379 -14.696414 -119.56379 z M -15.20646 -113.69697 C -17.643947 -113.69697 -19.514749 -112.76157 -20.818521 -110.89094 C -22.122293 -109.02031 -22.773957 -106.35597 -22.773957 -102.89814 C -22.773957 -99.383629 -22.065649 -96.634587 -20.648505 -94.650586 C -19.174676 -92.723271 -17.105362 -91.759807 -14.441132 -91.759807 C -12.117017 -91.759807 -9.5379069 -92.723271 -6.7036201 -94.650586 L -6.7036201 -95.755945 C -6.7036201 -101.93469 -7.3838648 -106.46931 -8.7443224 -109.36028 C -10.10478 -112.25126 -12.258802 -113.69697 -15.20646 -113.69697 z M -91.307242 -101.28274 C -89.323241 -101.28274 -87.849463 -100.68772 -86.885806 -99.497319 C -85.865463 -98.363604 -85.35515 -96.776539 -85.35515 -94.735852 C -85.35515 -92.695166 -85.865463 -91.107584 -86.885806 -89.973869 C -87.849463 -88.840154 -89.323241 -88.273198 -91.307242 -88.273198 C -93.291242 -88.273198 -94.793083 -88.840154 -95.813426 -89.973869 C -96.777084 -91.16427 -97.259333 -92.751852 -97.259333 -94.735852 C -97.259333 -96.833225 -96.777084 -98.448354 -95.813426 -99.582068 C -94.793083 -100.71578 -93.291242 -101.28274 -91.307242 -101.28274 z M -91.307242 -74.498845 C -89.323241 -74.498845 -87.849463 -73.903824 -86.885806 -72.713424 C -85.865463 -71.579709 -85.35515 -69.992127 -85.35515 -67.951441 C -85.35515 -65.910754 -85.865463 -64.323689 -86.885806 -63.189974 C -87.849463 -62.05626 -89.323241 -61.489303 -91.307242 -61.489303 C -93.291242 -61.489303 -94.793083 -62.05626 -95.813426 -63.189974 C -96.777084 -64.380375 -97.259333 -65.96744 -97.259333 -67.951441 C -97.259333 -70.048813 -96.777084 -71.664459 -95.813426 -72.798173 C -94.793083 -73.931888 -93.291242 -74.498845 -91.307242 -74.498845 z " /></g></svg>
