<?xml version="1.0" encoding="UTF-8" standalone="no"?>
<!-- Created with Inkscape (http://www.inkscape.org/) -->

<svg
   width="172.6701mm"
   height="172.6701mm"
   viewBox="0 0 172.6701 172.6701"
   version="1.1"
   id="svg1"
   xml:space="preserve"
   xmlns="http://www.w3.org/2000/svg"
   xmlns:svg="http://www.w3.org/2000/svg"><defs
     id="defs1" /><g
     id="layer1"
     transform="translate(157.25102,198.81012)"><path
       id="path5"
       style="fill:#ffffff;fill-opacity:1;stroke-width:0.805188;stroke-linecap:round;stroke-linejoin:round"
       d="M -2.0863309 -198.17657 L -10.088943 -183.11289 L -10.930235 -165.68398 L -19.198981 -165.68398 L -11.423229 -155.47426 L -12.166336 -140.07934 C -28.353216 -157.12094 -50.823548 -166.77435 -74.327399 -166.78417 C -103.64471 -166.77397 -130.92652 -151.79225 -146.66717 -127.05894 L -157.25102 -127.05894 L -149.61996 -115.86014 L -157.25102 -26.140039 L -8.5138455 -26.140039 L 15.419061 -26.140039 L 8.0799737 -154.80195 L 15.419061 -165.68398 L 7.4593397 -165.68398 L 6.4490654 -183.39297 L -2.0863309 -198.17657 z M -83.43072 -192.21621 C -85.584619 -189.65499 -86.77489 -186.4211 -86.795372 -183.07465 C -86.842092 -175.15518 -80.459903 -168.69733 -72.540428 -168.65072 C -64.621155 -168.60402 -58.163395 -174.98588 -58.116503 -182.90515 C -58.102813 -186.26049 -59.266203 -189.5144 -61.404157 -192.10045 C -60.83125 -190.6836 -60.536835 -189.16959 -60.537027 -187.64129 C -60.575787 -181.07411 -65.930869 -175.78172 -72.498054 -175.82031 C -79.065241 -175.85911 -84.357627 -181.21415 -84.319038 -187.78134 C -84.309338 -189.30285 -84.007827 -190.80837 -83.43072 -192.21621 z M -60.526691 -120.07436 C -55.991833 -119.84761 -52.307389 -118.85557 -49.473103 -117.09831 L -69.709593 -83.767013 L -56.700568 -83.767013 L -55.849974 -97.626632 C -54.036031 -97.626632 -52.732185 -97.995076 -51.938585 -98.731991 C -51.088299 -99.468905 -50.436635 -100.71611 -49.983149 -102.47336 L -45.136416 -102.47336 L -45.221682 -83.341716 C -43.067625 -82.718173 -40.346646 -82.066508 -37.058873 -81.38628 L -37.48417 -77.304875 L -45.646463 -77.304875 L -45.646463 -62.084615 L -56.700568 -62.084615 L -56.700568 -77.304875 L -81.273745 -77.304875 L -81.953807 -80.36567 L -60.526691 -120.07436 z M -128.03937 -119.73381 C -122.20074 -119.73381 -117.55283 -118.28861 -114.095 -115.39764 C -110.63717 -112.56335 -108.90823 -108.56711 -108.90823 -103.40871 C -108.90823 -98.873849 -110.63717 -94.026912 -114.095 -88.86851 C -117.55283 -83.766794 -123.24942 -77.616529 -131.18543 -70.41744 L -108.31292 -70.41744 L -108.31292 -62.084615 L -146.83098 -62.084615 L -146.83098 -67.016097 C -140.53887 -73.081471 -135.63529 -78.268272 -132.12077 -82.576388 C -128.60626 -86.884504 -126.08379 -90.852684 -124.55327 -94.480571 C -122.96607 -98.108458 -122.17254 -101.84955 -122.17254 -105.70418 C -122.17254 -111.82623 -124.21328 -114.88759 -128.29465 -114.88759 C -130.10859 -114.88759 -131.58237 -114.0369 -132.71608 -112.33633 C -133.8498 -110.69244 -134.41675 -108.65171 -134.41675 -106.21422 C -134.41675 -104.51365 -133.82122 -102.89852 -132.63082 -101.36801 C -133.59447 -100.46103 -134.69981 -99.752209 -135.94689 -99.242037 C -137.13729 -98.731866 -138.32785 -98.476709 -139.51825 -98.476709 C -141.55894 -98.476709 -143.25981 -99.10031 -144.62027 -100.3474 C -145.98072 -101.65117 -146.66097 -103.52197 -146.66097 -105.95946 C -146.66097 -108.567 -145.8955 -110.91953 -144.36498 -113.01691 C -142.83447 -115.11428 -140.68045 -116.75799 -137.90285 -117.94839 C -135.06856 -119.13879 -131.78062 -119.73381 -128.03937 -119.73381 z M -12.315681 -119.64906 C -5.6834496 -119.64906 -0.60993662 -117.15466 2.904579 -112.16631 C 6.4757803 -107.23465 8.2613579 -100.06428 8.2613579 -90.654448 C 8.2613579 -81.244616 6.4757803 -74.017081 2.904579 -68.97205 C -0.60993662 -63.983706 -5.6834496 -61.489303 -12.315681 -61.489303 C -18.947912 -61.489303 -24.049488 -63.983706 -27.62069 -68.97205 C -31.191891 -74.017081 -32.977469 -81.244616 -32.977469 -90.654448 C -32.977469 -100.00759 -31.191891 -107.17797 -27.62069 -112.16631 C -24.049488 -117.15466 -18.947912 -119.64906 -12.315681 -119.64906 z M -12.315681 -115.31237 C -15.206653 -115.31237 -17.304031 -113.41351 -18.607803 -109.61556 C -19.854889 -105.81762 -20.47849 -99.497422 -20.47849 -90.654448 C -20.47849 -81.868159 -19.854889 -75.576025 -18.607803 -71.778081 C -17.304031 -68.036822 -15.206653 -66.16602 -12.315681 -66.16602 C -9.4247082 -66.16602 -7.3553938 -68.036822 -6.1083076 -71.778081 C -4.8045357 -75.576025 -4.1528714 -81.868159 -4.1528714 -90.654448 C -4.1528714 -99.440737 -4.8045357 -105.73287 -6.1083076 -109.53081 C -7.3553938 -113.38544 -9.4247082 -115.31237 -12.315681 -115.31237 z M -93.177928 -101.28274 C -91.193928 -101.28274 -89.72015 -100.68772 -88.756493 -99.497319 C -87.73615 -98.363604 -87.225837 -96.776539 -87.225837 -94.735852 C -87.225837 -92.695166 -87.73615 -91.107584 -88.756493 -89.973869 C -89.72015 -88.840154 -91.193928 -88.273198 -93.177928 -88.273198 C -95.161929 -88.273198 -96.66377 -88.840154 -97.684113 -89.973869 C -98.647771 -91.16427 -99.129503 -92.751852 -99.129503 -94.735852 C -99.129503 -96.833225 -98.647771 -98.448354 -97.684113 -99.582068 C -96.66377 -100.71578 -95.161929 -101.28274 -93.177928 -101.28274 z M -93.177928 -74.498845 C -91.193928 -74.498845 -89.72015 -73.903824 -88.756493 -72.713424 C -87.73615 -71.579709 -87.225837 -69.992127 -87.225837 -67.951441 C -87.225837 -65.910754 -87.73615 -64.323689 -88.756493 -63.189974 C -89.72015 -62.05626 -91.193928 -61.489303 -93.177928 -61.489303 C -95.161929 -61.489303 -96.66377 -62.05626 -97.684113 -63.189974 C -98.647771 -64.380375 -99.129503 -65.96744 -99.129503 -67.951441 C -99.129503 -70.048813 -98.647771 -71.664459 -97.684113 -72.798173 C -96.66377 -73.931888 -95.161929 -74.498845 -93.177928 -74.498845 z " /></g></svg>
