<?xml version="1.0" encoding="UTF-8" standalone="no"?>
<!-- Created with Inkscape (http://www.inkscape.org/) -->

<svg
   width="172.6701mm"
   height="172.6701mm"
   viewBox="0 0 172.6701 172.6701"
   version="1.1"
   id="svg1"
   xml:space="preserve"
   xmlns="http://www.w3.org/2000/svg"
   xmlns:svg="http://www.w3.org/2000/svg"><defs
     id="defs1" /><g
     id="layer1"
     transform="translate(157.25102,198.81012)"><path
       id="path5"
       style="fill:#ffffff;fill-opacity:1;stroke-width:0.805188;stroke-linecap:round;stroke-linejoin:round"
       d="M -2.0863309 -198.17657 L -10.088943 -183.11289 L -10.930235 -165.68398 L -19.198981 -165.68398 L -11.423229 -155.47426 L -12.166336 -140.07934 C -28.353216 -157.12094 -50.823548 -166.77435 -74.327399 -166.78417 C -103.64471 -166.77397 -130.92652 -151.79225 -146.66717 -127.05894 L -157.25102 -127.05894 L -149.61996 -115.86014 L -157.25102 -26.140039 L -8.5138455 -26.140039 L 15.419061 -26.140039 L 8.0799737 -154.80195 L 15.419061 -165.68398 L 7.4593397 -165.68398 L 6.4490654 -183.39297 L -2.0863309 -198.17657 z M -83.43072 -192.21621 C -85.584619 -189.65499 -86.77489 -186.4211 -86.795372 -183.07465 C -86.842092 -175.15518 -80.459903 -168.69733 -72.540428 -168.65072 C -64.621155 -168.60402 -58.163395 -174.98588 -58.116503 -182.90515 C -58.102813 -186.26049 -59.266203 -189.5144 -61.404157 -192.10045 C -60.83125 -190.6836 -60.536835 -189.16959 -60.537027 -187.64129 C -60.575787 -181.07411 -65.930869 -175.78172 -72.498054 -175.82031 C -79.065241 -175.85911 -84.357627 -181.21415 -84.319038 -187.78134 C -84.309338 -189.30285 -84.007827 -190.80837 -83.43072 -192.21621 z M -57.338256 -120.07436 C -52.803397 -119.84761 -49.118437 -118.85557 -46.28415 -117.09831 L -66.521158 -83.767013 L -53.511616 -83.767013 L -52.661538 -97.626632 C -50.847595 -97.626632 -49.54375 -97.995076 -48.750149 -98.731991 C -47.899863 -99.468905 -47.248199 -100.71611 -46.794713 -102.47336 L -41.94798 -102.47336 L -42.03273 -83.341716 C -39.878672 -82.718173 -37.15821 -82.066508 -33.870437 -81.38628 L -34.295218 -77.304875 L -42.458027 -77.304875 L -42.458027 -62.084615 L -53.511616 -62.084615 L -53.511616 -77.304875 L -78.08531 -77.304875 L -78.765371 -80.36567 L -57.338256 -120.07436 z M -124.85093 -119.73381 C -119.0123 -119.73381 -114.36388 -118.28861 -110.90605 -115.39764 C -107.44822 -112.56335 -105.71928 -108.56711 -105.71928 -103.40871 C -105.71928 -98.873849 -107.44822 -94.026912 -110.90605 -88.86851 C -114.36388 -83.766794 -120.06099 -77.616529 -127.99699 -70.41744 L -105.12397 -70.41744 L -105.12397 -62.084615 L -143.64203 -62.084615 L -143.64203 -67.016097 C -137.34991 -73.081471 -132.44685 -78.268272 -128.93234 -82.576388 C -125.41782 -86.884504 -122.89535 -90.852684 -121.36484 -94.480571 C -119.77764 -98.108458 -118.98411 -101.84955 -118.98411 -105.70418 C -118.98411 -111.82623 -121.02432 -114.88759 -125.1057 -114.88759 C -126.91964 -114.88759 -128.39393 -114.0369 -129.52765 -112.33633 C -130.66136 -110.69244 -131.2278 -108.65171 -131.2278 -106.21422 C -131.2278 -104.51365 -130.63278 -102.89852 -129.44238 -101.36801 C -130.40604 -100.46103 -131.51137 -99.752209 -132.75846 -99.242037 C -133.94886 -98.731866 -135.13942 -98.476709 -136.32982 -98.476709 C -138.3705 -98.476709 -140.07086 -99.10031 -141.43131 -100.3474 C -142.79177 -101.65117 -143.47202 -103.52197 -143.47202 -105.95946 C -143.47202 -108.567 -142.70706 -110.91953 -141.17655 -113.01691 C -139.64603 -115.11428 -137.49201 -116.75799 -134.71441 -117.94839 C -131.88012 -119.13879 -128.59219 -119.73381 -124.85093 -119.73381 z M -8.3619168 -119.13901 L -5.5558865 -117.86364 L -5.5558865 -68.716769 C -4.4788576 -68.093226 -2.7779875 -67.526269 -0.45387238 -67.016097 C 1.8702428 -66.562611 3.7124644 -66.279392 5.0729221 -66.16602 L 4.8176405 -62.084615 L -29.873782 -62.084615 L -29.703767 -66.16602 C -24.658736 -66.732877 -20.804361 -67.583054 -18.140131 -68.716769 L -18.140131 -109.44555 L -29.533751 -109.44555 L -29.533751 -114.37703 C -25.905864 -114.66046 -22.164777 -115.19935 -18.310147 -115.99295 C -14.455517 -116.84324 -11.139518 -117.89193 -8.3619168 -119.13901 z M -89.988976 -101.28274 C -88.004975 -101.28274 -86.531198 -100.68772 -85.56754 -99.497319 C -84.547197 -98.363604 -84.036884 -96.776539 -84.036884 -94.735852 C -84.036884 -92.695166 -84.547197 -91.107584 -85.56754 -89.973869 C -86.531198 -88.840154 -88.004975 -88.273198 -89.988976 -88.273198 C -91.972976 -88.273198 -93.475334 -88.840154 -94.495677 -89.973869 C -95.459335 -91.16427 -95.941067 -92.751852 -95.941067 -94.735852 C -95.941067 -96.833225 -95.459335 -98.448354 -94.495677 -99.582068 C -93.475334 -100.71578 -91.972976 -101.28274 -89.988976 -101.28274 z M -89.988976 -74.498845 C -88.004975 -74.498845 -86.531198 -73.903824 -85.56754 -72.713424 C -84.547197 -71.579709 -84.036884 -69.992127 -84.036884 -67.951441 C -84.036884 -65.910754 -84.547197 -64.323689 -85.56754 -63.189974 C -86.531198 -62.05626 -88.004975 -61.489303 -89.988976 -61.489303 C -91.972976 -61.489303 -93.475334 -62.05626 -94.495677 -63.189974 C -95.459335 -64.380375 -95.941067 -65.96744 -95.941067 -67.951441 C -95.941067 -70.048813 -95.459335 -71.664459 -94.495677 -72.798173 C -93.475334 -73.931888 -91.972976 -74.498845 -89.988976 -74.498845 z " /></g></svg>
