<?xml version="1.0" encoding="UTF-8" standalone="no"?>
<!-- Created with Inkscape (http://www.inkscape.org/) -->

<svg
   width="172.6701mm"
   height="172.6701mm"
   viewBox="0 0 172.6701 172.6701"
   version="1.1"
   id="svg1"
   xml:space="preserve"
   xmlns="http://www.w3.org/2000/svg"
   xmlns:svg="http://www.w3.org/2000/svg"><defs
     id="defs1" /><g
     id="layer1"
     transform="translate(157.25102,198.81012)"><path
       id="path5"
       style="fill:#ffffff;fill-opacity:1;stroke-width:0.805188;stroke-linecap:round;stroke-linejoin:round"
       d="M -2.0863309 -198.17657 L -10.088943 -183.11289 L -10.930235 -165.68398 L -19.198981 -165.68398 L -11.423229 -155.47426 L -12.166336 -140.07934 C -28.353216 -157.12094 -50.823548 -166.77435 -74.327399 -166.78417 C -103.64471 -166.77397 -130.92652 -151.79225 -146.66717 -127.05894 L -157.25102 -127.05894 L -149.61996 -115.86014 L -157.25102 -26.140039 L -8.5138455 -26.140039 L 15.419061 -26.140039 L 8.0799737 -154.80195 L 15.419061 -165.68398 L 7.4593397 -165.68398 L 6.4490654 -183.39297 L -2.0863309 -198.17657 z M -83.43072 -192.21621 C -85.584619 -189.65499 -86.77489 -186.4211 -86.795372 -183.07465 C -86.842092 -175.15518 -80.459903 -168.69733 -72.540428 -168.65072 C -64.621155 -168.60402 -58.163395 -174.98588 -58.116503 -182.90515 C -58.102813 -186.26049 -59.266203 -189.5144 -61.404157 -192.10045 C -60.83125 -190.6836 -60.536835 -189.16959 -60.537027 -187.64129 C -60.575787 -181.07411 -65.930869 -175.78172 -72.498054 -175.82031 C -79.065241 -175.85911 -84.357627 -181.21415 -84.319038 -187.78134 C -84.309338 -189.30285 -84.007827 -190.80837 -83.43072 -192.21621 z M -61.376769 -120.07436 C -56.84191 -119.84761 -53.157467 -118.85557 -50.32318 -117.09831 L -70.560187 -83.767013 L -57.550646 -83.767013 L -56.700568 -97.626632 C -54.886625 -97.626632 -53.582779 -97.995076 -52.789179 -98.731991 C -51.938893 -99.468905 -51.286712 -100.71611 -50.833226 -102.47336 L -45.986494 -102.47336 L -46.07176 -83.341716 C -43.917702 -82.718173 -41.196723 -82.066508 -37.908951 -81.38628 L -38.334248 -77.304875 L -46.497057 -77.304875 L -46.497057 -62.084615 L -57.550646 -62.084615 L -57.550646 -77.304875 L -82.123823 -77.304875 L -82.803885 -80.36567 L -61.376769 -120.07436 z M -14.356383 -120.07436 C -9.8215242 -119.84761 -6.1365641 -118.85557 -3.3022773 -117.09831 L -23.539285 -83.767013 L -10.529743 -83.767013 L -9.6796658 -97.626632 C -7.8657223 -97.626632 -6.561877 -97.995076 -5.7682767 -98.731991 C -4.9179906 -99.468905 -4.2663264 -100.71611 -3.8128405 -102.47336 L 1.0338921 -102.47336 L 0.94914276 -83.341716 C 3.1032007 -82.718173 5.8241794 -82.066508 9.111952 -81.38628 L 8.686655 -77.304875 L 0.52384572 -77.304875 L 0.52384572 -62.084615 L -10.529743 -62.084615 L -10.529743 -77.304875 L -35.10292 -77.304875 L -35.783499 -80.36567 L -14.356383 -120.07436 z M -128.88944 -119.73381 C -123.05081 -119.73381 -118.40291 -118.28861 -114.94508 -115.39764 C -111.48725 -112.56335 -109.75831 -108.56711 -109.75831 -103.40871 C -109.75831 -98.873849 -111.48725 -94.026912 -114.94508 -88.86851 C -118.40291 -83.766794 -124.0995 -77.616529 -132.0355 -70.41744 L -109.163 -70.41744 L -109.163 -62.084615 L -147.68106 -62.084615 L -147.68106 -67.016097 C -141.38894 -73.081471 -136.48536 -78.268272 -132.97085 -82.576388 C -129.45633 -86.884504 -126.93387 -90.852684 -125.40335 -94.480571 C -123.81615 -98.108458 -123.02262 -101.84955 -123.02262 -105.70418 C -123.02262 -111.82623 -125.06335 -114.88759 -129.14473 -114.88759 C -130.95867 -114.88759 -132.43245 -114.0369 -133.56616 -112.33633 C -134.69988 -110.69244 -135.26683 -108.65171 -135.26683 -106.21422 C -135.26683 -104.51365 -134.67181 -102.89852 -133.48141 -101.36801 C -134.44507 -100.46103 -135.5504 -99.752209 -136.79749 -99.242037 C -137.98789 -98.731866 -139.17793 -98.476709 -140.36833 -98.476709 C -142.40902 -98.476709 -144.10989 -99.10031 -145.47034 -100.3474 C -146.8308 -101.65117 -147.51105 -103.52197 -147.51105 -105.95946 C -147.51105 -108.567 -146.74558 -110.91953 -145.21506 -113.01691 C -143.68455 -115.11428 -141.53053 -116.75799 -138.75292 -117.94839 C -135.91864 -119.13879 -132.6307 -119.73381 -128.88944 -119.73381 z M -94.028006 -101.28274 C -92.044005 -101.28274 -90.570228 -100.68772 -89.60657 -99.497319 C -88.586227 -98.363604 -88.075914 -96.776539 -88.075914 -94.735852 C -88.075914 -92.695166 -88.586227 -91.107584 -89.60657 -89.973869 C -90.570228 -88.840154 -92.044005 -88.273198 -94.028006 -88.273198 C -96.012006 -88.273198 -97.514364 -88.840154 -98.534707 -89.973869 C -99.498365 -91.16427 -99.980097 -92.751852 -99.980097 -94.735852 C -99.980097 -96.833225 -99.498365 -98.448354 -98.534707 -99.582068 C -97.514364 -100.71578 -96.012006 -101.28274 -94.028006 -101.28274 z M -94.028006 -74.498845 C -92.044005 -74.498845 -90.570228 -73.903824 -89.60657 -72.713424 C -88.586227 -71.579709 -88.075914 -69.992127 -88.075914 -67.951441 C -88.075914 -65.910754 -88.586227 -64.323689 -89.60657 -63.189974 C -90.570228 -62.05626 -92.044005 -61.489303 -94.028006 -61.489303 C -96.012006 -61.489303 -97.514364 -62.05626 -98.534707 -63.189974 C -99.498365 -64.380375 -99.980097 -65.96744 -99.980097 -67.951441 C -99.980097 -70.048813 -99.498365 -71.664459 -98.534707 -72.798173 C -97.514364 -73.931888 -96.012006 -74.498845 -94.028006 -74.498845 z " /></g></svg>
