<?xml version="1.0" encoding="UTF-8" standalone="no"?>
<!-- Created with Inkscape (http://www.inkscape.org/) -->

<svg
   width="172.6701mm"
   height="172.6701mm"
   viewBox="0 0 172.6701 172.6701"
   version="1.1"
   id="svg1"
   xml:space="preserve"
   xmlns="http://www.w3.org/2000/svg"
   xmlns:svg="http://www.w3.org/2000/svg"><defs
     id="defs1" /><g
     id="layer1"
     transform="translate(157.25102,198.81012)"><path
       id="path5"
       style="fill:#ffffff;fill-opacity:1;stroke-width:0.805188;stroke-linecap:round;stroke-linejoin:round"
       d="M -2.0863309 -198.17657 L -10.088943 -183.11289 L -10.930235 -165.68398 L -19.198981 -165.68398 L -11.423229 -155.47426 L -12.166336 -140.07934 C -28.353216 -157.12094 -50.823548 -166.77435 -74.327399 -166.78417 C -103.64471 -166.77397 -130.92652 -151.79225 -146.66717 -127.05894 L -157.25102 -127.05894 L -149.61996 -115.86014 L -157.25102 -26.140039 L -8.5138455 -26.140039 L 15.419061 -26.140039 L 8.0799737 -154.80195 L 15.419061 -165.68398 L 7.4593397 -165.68398 L 6.4490654 -183.39297 L -2.0863309 -198.17657 z M -83.43072 -192.21621 C -85.584619 -189.65499 -86.77489 -186.4211 -86.795372 -183.07465 C -86.842092 -175.15518 -80.459903 -168.69733 -72.540428 -168.65072 C -64.621155 -168.60402 -58.163395 -174.98588 -58.116503 -182.90515 C -58.102813 -186.26049 -59.266203 -189.5144 -61.404157 -192.10045 C -60.83125 -190.6836 -60.536835 -189.16959 -60.537027 -187.64129 C -60.575787 -181.07411 -65.930869 -175.78172 -72.498054 -175.82031 C -79.065241 -175.85911 -84.357627 -181.21415 -84.319038 -187.78134 C -84.309338 -189.30285 -84.007827 -190.80837 -83.43072 -192.21621 z M -60.569066 -120.07436 C -56.034207 -119.84761 -52.349764 -118.85557 -49.515477 -117.09831 L -69.752485 -83.767013 L -56.742943 -83.767013 L -55.892866 -97.626632 C -54.078922 -97.626632 -52.775077 -97.995076 -51.981477 -98.731991 C -51.131191 -99.468905 -50.479009 -100.71611 -50.025524 -102.47336 L -45.178791 -102.47336 L -45.264057 -83.341716 C -43.109999 -82.718173 -40.38902 -82.066508 -37.101248 -81.38628 L -37.526545 -77.304875 L -45.689354 -77.304875 L -45.689354 -62.084615 L -56.742943 -62.084615 L -56.742943 -77.304875 L -81.31612 -77.304875 L -81.996182 -80.36567 L -60.569066 -120.07436 z M -128.08174 -119.73381 C -122.24311 -119.73381 -117.5952 -118.28861 -114.13737 -115.39764 C -110.67954 -112.56335 -108.95061 -108.56711 -108.95061 -103.40871 C -108.95061 -98.873849 -110.67954 -94.026912 -114.13737 -88.86851 C -117.5952 -83.766794 -123.2918 -77.616529 -131.2278 -70.41744 L -108.3553 -70.41744 L -108.3553 -62.084615 L -146.87336 -62.084615 L -146.87336 -67.016097 C -140.58124 -73.081471 -135.67766 -78.268272 -132.16315 -82.576388 C -128.64863 -86.884504 -126.12616 -90.852684 -124.59565 -94.480571 C -123.00845 -98.108458 -122.21492 -101.84955 -122.21492 -105.70418 C -122.21492 -111.82623 -124.25565 -114.88759 -128.33702 -114.88759 C -130.15097 -114.88759 -131.62474 -114.0369 -132.75846 -112.33633 C -133.89217 -110.69244 -134.45913 -108.65171 -134.45913 -106.21422 C -134.45913 -104.51365 -133.86411 -102.89852 -132.67371 -101.36801 C -133.63737 -100.46103 -134.7427 -99.752209 -135.98979 -99.242037 C -137.18019 -98.731866 -138.37023 -98.476709 -139.56063 -98.476709 C -141.60131 -98.476709 -143.30218 -99.10031 -144.66264 -100.3474 C -146.0231 -101.65117 -146.70334 -103.52197 -146.70334 -105.95946 C -146.70334 -108.567 -145.93787 -110.91953 -144.40736 -113.01691 C -142.87684 -115.11428 -140.72282 -116.75799 -137.94522 -117.94839 C -135.11093 -119.13879 -131.823 -119.73381 -128.08174 -119.73381 z M -12.783352 -119.56379 C -6.0377499 -119.56379 -0.87901249 -117.69351 2.6921888 -113.95225 C 6.3200759 -110.21099 8.1337171 -104.7971 8.1337171 -97.711381 C 8.1337171 -88.811721 5.3560945 -81.216258 -0.19910757 -74.924142 C -5.6976239 -68.688711 -13.690111 -64.09693 -24.176972 -61.149272 L -26.217674 -65.400692 C -20.549101 -67.838179 -15.985901 -70.956182 -12.528071 -74.754126 C -9.0702409 -78.608756 -6.7743506 -83.086732 -5.6406359 -88.188448 C -8.815037 -86.601248 -11.90446 -85.807715 -14.908804 -85.807715 C -20.577378 -85.807715 -25.05587 -87.338137 -28.343643 -90.399166 C -31.57473 -93.460196 -33.189859 -97.598308 -33.189859 -102.8134 C -33.189859 -106.04448 -32.339682 -108.93539 -30.63911 -111.48625 C -28.881852 -114.03711 -26.472674 -116.0212 -23.411644 -117.43834 C -20.293929 -118.85549 -16.751354 -119.56379 -12.783352 -119.56379 z M -13.293399 -113.69697 C -15.730885 -113.69697 -17.601687 -112.76157 -18.905459 -110.89094 C -20.209231 -109.02031 -20.860895 -106.35597 -20.860895 -102.89814 C -20.860895 -99.383629 -20.15207 -96.634587 -18.734927 -94.650586 C -17.261098 -92.723271 -15.1923 -91.759807 -12.528071 -91.759807 C -10.203956 -91.759807 -7.6248453 -92.723271 -4.7905586 -94.650586 L -4.7905586 -95.755945 C -4.7905586 -101.93469 -5.4708032 -106.46931 -6.8312609 -109.36028 C -8.1917185 -112.25126 -10.345741 -113.69697 -13.293399 -113.69697 z M -93.220303 -101.28274 C -91.236302 -101.28274 -89.762525 -100.68772 -88.798867 -99.497319 C -87.778524 -98.363604 -87.268212 -96.776539 -87.268212 -94.735852 C -87.268212 -92.695166 -87.778524 -91.107584 -88.798867 -89.973869 C -89.762525 -88.840154 -91.236302 -88.273198 -93.220303 -88.273198 C -95.204304 -88.273198 -96.706661 -88.840154 -97.727005 -89.973869 C -98.690662 -91.16427 -99.172395 -92.751852 -99.172395 -94.735852 C -99.172395 -96.833225 -98.690662 -98.448354 -97.727005 -99.582068 C -96.706661 -100.71578 -95.204304 -101.28274 -93.220303 -101.28274 z M -93.220303 -74.498845 C -91.236302 -74.498845 -89.762525 -73.903824 -88.798867 -72.713424 C -87.778524 -71.579709 -87.268212 -69.992127 -87.268212 -67.951441 C -87.268212 -65.910754 -87.778524 -64.323689 -88.798867 -63.189974 C -89.762525 -62.05626 -91.236302 -61.489303 -93.220303 -61.489303 C -95.204304 -61.489303 -96.706661 -62.05626 -97.727005 -63.189974 C -98.690662 -64.380375 -99.172395 -65.96744 -99.172395 -67.951441 C -99.172395 -70.048813 -98.690662 -71.664459 -97.727005 -72.798173 C -96.706661 -73.931888 -95.204304 -74.498845 -93.220303 -74.498845 z " /></g></svg>
