<?xml version="1.0" encoding="UTF-8" standalone="no"?>
<!-- Created with Inkscape (http://www.inkscape.org/) -->

<svg
   width="172.6701mm"
   height="172.6701mm"
   viewBox="0 0 172.6701 172.6701"
   version="1.1"
   id="svg1"
   xml:space="preserve"
   xmlns="http://www.w3.org/2000/svg"
   xmlns:svg="http://www.w3.org/2000/svg"><defs
     id="defs1" /><g
     id="layer1"
     transform="translate(157.25102,198.81012)"><path
       id="path5"
       style="fill:#ffffff;fill-opacity:1;stroke-width:0.805188;stroke-linecap:round;stroke-linejoin:round"
       d="M -2.0863309 -198.17657 L -10.088943 -183.11289 L -10.930235 -165.68398 L -19.198981 -165.68398 L -11.423229 -155.47426 L -12.166336 -140.07934 C -28.353216 -157.12094 -50.823548 -166.77435 -74.327399 -166.78417 C -103.64471 -166.77397 -130.92652 -151.79225 -146.66717 -127.05894 L -157.25102 -127.05894 L -149.61996 -115.86014 L -157.25102 -26.140039 L -8.5138455 -26.140039 L 15.419061 -26.140039 L 8.0799737 -154.80195 L 15.419061 -165.68398 L 7.4593397 -165.68398 L 6.4490654 -183.39297 L -2.0863309 -198.17657 z M -83.43072 -192.21621 C -85.584619 -189.65499 -86.77489 -186.4211 -86.795372 -183.07465 C -86.842092 -175.15518 -80.459903 -168.69733 -72.540428 -168.65072 C -64.621155 -168.60402 -58.163395 -174.98588 -58.116503 -182.90515 C -58.102813 -186.26049 -59.266203 -189.5144 -61.404157 -192.10045 C -60.83125 -190.6836 -60.536835 -189.16959 -60.537027 -187.64129 C -60.575787 -181.07411 -65.930869 -175.78172 -72.498054 -175.82031 C -79.065241 -175.85911 -84.357627 -181.21415 -84.319038 -187.78134 C -84.309338 -189.30285 -84.007827 -190.80837 -83.43072 -192.21621 z M -123.44792 -119.73381 C -117.60928 -119.73381 -112.96086 -118.28861 -109.50303 -115.39764 C -106.0452 -112.56335 -104.31627 -108.56711 -104.31627 -103.40871 C -104.31627 -98.873849 -106.0452 -94.026912 -109.50303 -88.86851 C -112.96086 -83.766794 -118.65797 -77.616529 -126.59398 -70.41744 L -103.72147 -70.41744 L -103.72147 -62.084615 L -142.23902 -62.084615 L -142.23902 -67.016097 C -135.9469 -73.081471 -131.04384 -78.268272 -127.52932 -82.576388 C -124.0148 -86.884504 -121.49234 -90.852684 -119.96182 -94.480571 C -118.37462 -98.108458 -117.58109 -101.84955 -117.58109 -105.70418 C -117.58109 -111.82623 -119.62182 -114.88759 -123.7032 -114.88759 C -125.51714 -114.88759 -126.99092 -114.0369 -128.12463 -112.33633 C -129.25835 -110.69244 -129.8253 -108.65171 -129.8253 -106.21422 C -129.8253 -104.51365 -129.22977 -102.89852 -128.03937 -101.36801 C -129.00302 -100.46103 -130.10836 -99.752209 -131.35544 -99.242037 C -132.54584 -98.731866 -133.7364 -98.476709 -134.9268 -98.476709 C -136.96749 -98.476709 -138.66784 -99.10031 -140.0283 -100.3474 C -141.38876 -101.65117 -142.069 -103.52197 -142.069 -105.95946 C -142.069 -108.567 -141.30405 -110.91953 -139.77353 -113.01691 C -138.24302 -115.11428 -136.089 -116.75799 -133.3114 -117.94839 C -130.47711 -119.13879 -127.18917 -119.73381 -123.44792 -119.73381 z M -9.7644152 -119.13901 L -6.9589017 -117.86364 L -6.9589017 -68.716769 C -5.8818727 -68.093226 -4.1810027 -67.526269 -1.8568875 -67.016097 C 0.46722762 -66.562611 2.3094493 -66.279392 3.6699069 -66.16602 L 3.4146253 -62.084615 L -31.276797 -62.084615 L -31.106782 -66.16602 C -26.061751 -66.732877 -22.206859 -67.583054 -19.54263 -68.716769 L -19.54263 -109.44555 L -30.936766 -109.44555 L -30.936766 -114.37703 C -27.308879 -114.66046 -23.567792 -115.19935 -19.713162 -115.99295 C -15.858532 -116.84324 -12.542016 -117.89193 -9.7644152 -119.13901 z M -68.264204 -119.05375 L -64.012784 -118.969 C -58.004096 -118.85563 -54.829965 -118.79847 -54.489851 -118.79847 L -42.415652 -118.969 L -39.949653 -117.18306 L -40.714981 -110.72092 L -61.802066 -110.72092 L -62.992691 -96.521273 C -60.045033 -97.258188 -57.380698 -97.626632 -54.999897 -97.626632 C -49.388009 -97.626632 -44.824809 -96.124274 -41.310293 -93.11993 C -37.739092 -90.172272 -35.953514 -85.836165 -35.953514 -80.110905 C -35.953514 -76.539704 -36.803691 -73.336993 -38.504263 -70.502706 C -40.148149 -67.66842 -42.528747 -65.429173 -45.646463 -63.785287 C -48.764178 -62.198086 -52.449138 -61.404554 -56.700568 -61.404554 C -60.158398 -61.404554 -63.304465 -61.886286 -66.138752 -62.849943 C -68.916353 -63.813601 -71.098439 -65.14551 -72.685639 -66.846082 C -74.27284 -68.60334 -75.066372 -70.559366 -75.066372 -72.713424 C -75.066372 -74.980853 -74.443288 -76.709787 -73.196202 -77.900188 C -71.949116 -79.147274 -70.418178 -79.770358 -68.604235 -79.770358 C -67.583891 -79.770358 -66.563783 -79.572362 -65.543439 -79.175562 C -64.46641 -78.778762 -63.502946 -78.211805 -62.65266 -77.474891 C -63.162831 -76.28449 -63.417471 -75.037289 -63.417471 -73.733517 C -63.417471 -71.862888 -62.879095 -70.332466 -61.802066 -69.142066 C -60.668351 -67.951665 -58.967998 -67.356645 -56.700568 -67.356645 C -51.598852 -67.356645 -49.047805 -71.608045 -49.047805 -80.110905 C -49.047805 -84.135593 -49.841338 -87.054567 -51.428539 -88.86851 C -53.015739 -90.73914 -55.141698 -91.674541 -57.805927 -91.674541 C -59.449814 -91.674541 -61.206811 -91.36274 -63.07744 -90.739197 C -64.948069 -90.115654 -66.790291 -89.236897 -68.604235 -88.103182 L -73.280952 -92.609884 L -71.070234 -116.75776 L -68.264204 -119.05375 z M -88.585961 -101.28274 C -86.60196 -101.28274 -85.128183 -100.68772 -84.164525 -99.497319 C -83.144182 -98.363604 -82.634386 -96.776539 -82.634386 -94.735852 C -82.634386 -92.695166 -83.144182 -91.107584 -84.164525 -89.973869 C -85.128183 -88.840154 -86.60196 -88.273198 -88.585961 -88.273198 C -90.569961 -88.273198 -92.072319 -88.840154 -93.092662 -89.973869 C -94.05632 -91.16427 -94.538052 -92.751852 -94.538052 -94.735852 C -94.538052 -96.833225 -94.05632 -98.448354 -93.092662 -99.582068 C -92.072319 -100.71578 -90.569961 -101.28274 -88.585961 -101.28274 z M -88.585961 -74.498845 C -86.60196 -74.498845 -85.128183 -73.903824 -84.164525 -72.713424 C -83.144182 -71.579709 -82.634386 -69.992127 -82.634386 -67.951441 C -82.634386 -65.910754 -83.144182 -64.323689 -84.164525 -63.189974 C -85.128183 -62.05626 -86.60196 -61.489303 -88.585961 -61.489303 C -90.569961 -61.489303 -92.072319 -62.05626 -93.092662 -63.189974 C -94.05632 -64.380375 -94.538052 -65.96744 -94.538052 -67.951441 C -94.538052 -70.048813 -94.05632 -71.664459 -93.092662 -72.798173 C -92.072319 -73.931888 -90.569961 -74.498845 -88.585961 -74.498845 z " /></g></svg>
