<?xml version="1.0" encoding="UTF-8" standalone="no"?>
<!-- Created with Inkscape (http://www.inkscape.org/) -->

<svg
   width="172.6701mm"
   height="172.6701mm"
   viewBox="0 0 172.6701 172.6701"
   version="1.1"
   id="svg1"
   xml:space="preserve"
   xmlns="http://www.w3.org/2000/svg"
   xmlns:svg="http://www.w3.org/2000/svg"><defs
     id="defs1" /><g
     id="layer1"
     transform="translate(157.25102,198.81012)"><path
       id="path5"
       style="fill:#ffffff;fill-opacity:1;stroke-width:0.805188;stroke-linecap:round;stroke-linejoin:round"
       d="M -2.0863309 -198.17657 L -10.088943 -183.11289 L -10.930235 -165.68398 L -19.198981 -165.68398 L -11.423229 -155.47426 L -12.166336 -140.07934 C -28.353216 -157.12094 -50.823548 -166.77435 -74.327399 -166.78417 C -103.64471 -166.77397 -130.92652 -151.79225 -146.66717 -127.05894 L -157.25102 -127.05894 L -149.61996 -115.86014 L -157.25102 -26.140039 L -8.5138455 -26.140039 L 15.419061 -26.140039 L 8.0799737 -154.80195 L 15.419061 -165.68398 L 7.4593397 -165.68398 L 6.4490654 -183.39297 L -2.0863309 -198.17657 z M -83.43072 -192.21621 C -85.584619 -189.65499 -86.77489 -186.4211 -86.795372 -183.07465 C -86.842092 -175.15518 -80.459903 -168.69733 -72.540428 -168.65072 C -64.621155 -168.60402 -58.163395 -174.98588 -58.116503 -182.90515 C -58.102813 -186.26049 -59.266203 -189.5144 -61.404157 -192.10045 C -60.83125 -190.6836 -60.536835 -189.16959 -60.537027 -187.64129 C -60.575787 -181.07411 -65.930869 -175.78172 -72.498054 -175.82031 C -79.065241 -175.85911 -84.357627 -181.21415 -84.319038 -187.78134 C -84.309338 -189.30285 -84.007827 -190.80837 -83.43072 -192.21621 z M -126.08393 -119.73381 C -120.2453 -119.73381 -115.59687 -118.28861 -112.13904 -115.39764 C -108.68122 -112.56335 -106.95228 -108.56711 -106.95228 -103.40871 C -106.95228 -98.873849 -108.68122 -94.026912 -112.13904 -88.86851 C -115.59687 -83.766794 -121.29399 -77.616529 -129.22999 -70.41744 L -106.35697 -70.41744 L -106.35697 -62.084615 L -144.87503 -62.084615 L -144.87503 -67.016097 C -138.58291 -73.081471 -133.67985 -78.268272 -130.16533 -82.576388 C -126.65082 -86.884504 -124.12835 -90.852684 -122.59784 -94.480571 C -121.01064 -98.108458 -120.2171 -101.84955 -120.2171 -105.70418 C -120.2171 -111.82623 -122.25732 -114.88759 -126.33869 -114.88759 C -128.15264 -114.88759 -129.62693 -114.0369 -130.76065 -112.33633 C -131.89436 -110.69244 -132.4608 -108.65171 -132.4608 -106.21422 C -132.4608 -104.51365 -131.86578 -102.89852 -130.67538 -101.36801 C -131.63904 -100.46103 -132.74437 -99.752209 -133.99146 -99.242037 C -135.18186 -98.731866 -136.37242 -98.476709 -137.56282 -98.476709 C -139.6035 -98.476709 -141.30386 -99.10031 -142.66431 -100.3474 C -144.02477 -101.65117 -144.70502 -103.52197 -144.70502 -105.95946 C -144.70502 -108.567 -143.94006 -110.91953 -142.40955 -113.01691 C -140.87903 -115.11428 -138.7245 -116.75799 -135.94689 -117.94839 C -133.11261 -119.13879 -129.82519 -119.73381 -126.08393 -119.73381 z M -70.900218 -119.05375 L -66.648798 -118.969 C -60.64011 -118.85563 -57.465463 -118.79847 -57.125349 -118.79847 L -45.051667 -118.969 L -42.585668 -117.18306 L -43.350996 -110.72092 L -64.438081 -110.72092 L -65.628189 -96.521273 C -62.680531 -97.258188 -60.016713 -97.626632 -57.635912 -97.626632 C -52.024024 -97.626632 -47.460824 -96.124274 -43.946308 -93.11993 C -40.375107 -90.172272 -38.589529 -85.836165 -38.589529 -80.110905 C -38.589529 -76.539704 -39.439706 -73.336993 -41.140278 -70.502706 C -42.784164 -67.66842 -45.164762 -65.429173 -48.282478 -63.785287 C -51.400193 -62.198086 -55.084636 -61.404554 -59.336066 -61.404554 C -62.793896 -61.404554 -65.939963 -61.886286 -68.77425 -62.849943 C -71.551851 -63.813601 -73.734453 -65.14551 -75.321654 -66.846082 C -76.908855 -68.60334 -77.702387 -70.559366 -77.702387 -72.713424 C -77.702387 -74.980853 -77.078787 -76.709787 -75.8317 -77.900188 C -74.584614 -79.147274 -73.054193 -79.770358 -71.240249 -79.770358 C -70.219906 -79.770358 -69.199797 -79.572362 -68.179454 -79.175562 C -67.102425 -78.778762 -66.138444 -78.211805 -65.288158 -77.474891 C -65.798329 -76.28449 -66.053486 -75.037289 -66.053486 -73.733517 C -66.053486 -71.862888 -65.51511 -70.332466 -64.438081 -69.142066 C -63.304366 -67.951665 -61.603496 -67.356645 -59.336066 -67.356645 C -54.23435 -67.356645 -51.68382 -71.608045 -51.68382 -80.110905 C -51.68382 -84.135593 -52.477353 -87.054567 -54.064554 -88.86851 C -55.651754 -90.73914 -57.777712 -91.674541 -60.441942 -91.674541 C -62.085828 -91.674541 -63.842826 -91.36274 -65.713455 -90.739197 C -67.584084 -90.115654 -69.426306 -89.236897 -71.240249 -88.103182 L -75.916966 -92.609884 L -73.706249 -116.75776 L -70.900218 -119.05375 z M -26.685346 -119.05375 L -22.433926 -118.969 C -16.425238 -118.85563 -13.250591 -118.79847 -12.910476 -118.79847 L -0.83679474 -118.969 L 1.6292046 -117.18306 L 0.86387665 -110.72092 L -20.223208 -110.72092 L -21.413317 -96.521273 C -18.465658 -97.258188 -15.80184 -97.626632 -13.42104 -97.626632 C -7.8091518 -97.626632 -3.2459514 -96.124274 0.26856415 -93.11993 C 3.8397655 -90.172272 5.6253431 -85.836165 5.6253431 -80.110905 C 5.6253431 -76.539704 4.7751665 -73.336993 3.0745944 -70.502706 C 1.4307081 -67.66842 -0.94988986 -65.429173 -4.0676053 -63.785287 C -7.1853207 -62.198086 -10.869764 -61.404554 -15.121194 -61.404554 C -18.579024 -61.404554 -21.725091 -61.886286 -24.559378 -62.849943 C -27.336979 -63.813601 -29.519581 -65.14551 -31.106782 -66.846082 C -32.693982 -68.60334 -33.487515 -70.559366 -33.487515 -72.713424 C -33.487515 -74.980853 -32.863914 -76.709787 -31.616828 -77.900188 C -30.369742 -79.147274 -28.839321 -79.770358 -27.025377 -79.770358 C -26.005034 -79.770358 -24.984925 -79.572362 -23.964582 -79.175562 C -22.887553 -78.778762 -21.923572 -78.211805 -21.073286 -77.474891 C -21.583457 -76.28449 -21.838614 -75.037289 -21.838614 -73.733517 C -21.838614 -71.862888 -21.300237 -70.332466 -20.223208 -69.142066 C -19.089494 -67.951665 -17.388624 -67.356645 -15.121194 -67.356645 C -10.019478 -67.356645 -7.4689481 -71.608045 -7.4689481 -80.110905 C -7.4689481 -84.135593 -8.2624807 -87.054567 -9.8496813 -88.86851 C -11.436882 -90.73914 -13.562323 -91.674541 -16.226553 -91.674541 C -17.870439 -91.674541 -19.627953 -91.36274 -21.498583 -90.739197 C -23.369212 -90.115654 -25.211434 -89.236897 -27.025377 -88.103182 L -31.702094 -92.609884 L -29.491376 -116.75776 L -26.685346 -119.05375 z M -91.221975 -101.28274 C -89.237975 -101.28274 -87.764197 -100.68772 -86.80054 -99.497319 C -85.780197 -98.363604 -85.269884 -96.776539 -85.269884 -94.735852 C -85.269884 -92.695166 -85.780197 -91.107584 -86.80054 -89.973869 C -87.764197 -88.840154 -89.237975 -88.273198 -91.221975 -88.273198 C -93.205976 -88.273198 -94.708334 -88.840154 -95.728677 -89.973869 C -96.692335 -91.16427 -97.174067 -92.751852 -97.174067 -94.735852 C -97.174067 -96.833225 -96.692335 -98.448354 -95.728677 -99.582068 C -94.708334 -100.71578 -93.205976 -101.28274 -91.221975 -101.28274 z M -91.221975 -74.498845 C -89.237975 -74.498845 -87.764197 -73.903824 -86.80054 -72.713424 C -85.780197 -71.579709 -85.269884 -69.992127 -85.269884 -67.951441 C -85.269884 -65.910754 -85.780197 -64.323689 -86.80054 -63.189974 C -87.764197 -62.05626 -89.237975 -61.489303 -91.221975 -61.489303 C -93.205976 -61.489303 -94.708334 -62.05626 -95.728677 -63.189974 C -96.692335 -64.380375 -97.174067 -65.96744 -97.174067 -67.951441 C -97.174067 -70.048813 -96.692335 -71.664459 -95.728677 -72.798173 C -94.708334 -73.931888 -93.205976 -74.498845 -91.221975 -74.498845 z " /></g></svg>
