<?xml version="1.0" encoding="UTF-8" standalone="no"?>
<!-- Created with Inkscape (http://www.inkscape.org/) -->

<svg
   width="172.6701mm"
   height="172.6701mm"
   viewBox="0 0 172.6701 172.6701"
   version="1.1"
   id="svg1"
   xml:space="preserve"
   xmlns="http://www.w3.org/2000/svg"
   xmlns:svg="http://www.w3.org/2000/svg"><defs
     id="defs1" /><g
     id="layer1"
     transform="translate(157.25102,198.81012)"><path
       id="path5"
       style="fill:#ffffff;fill-opacity:1;stroke-width:0.805188;stroke-linecap:round;stroke-linejoin:round"
       d="M -2.0863309 -198.17657 L -10.088943 -183.11289 L -10.930235 -165.68398 L -19.198981 -165.68398 L -11.423229 -155.47426 L -12.166336 -140.07934 C -28.353216 -157.12094 -50.823548 -166.77435 -74.327399 -166.78417 C -103.64471 -166.77397 -130.92652 -151.79225 -146.66717 -127.05894 L -157.25102 -127.05894 L -149.61996 -115.86014 L -157.25102 -26.140039 L -8.5138455 -26.140039 L 15.419061 -26.140039 L 8.0799737 -154.80195 L 15.419061 -165.68398 L 7.4593397 -165.68398 L 6.4490654 -183.39297 L -2.0863309 -198.17657 z M -83.43072 -192.21621 C -85.584619 -189.65499 -86.77489 -186.4211 -86.795372 -183.07465 C -86.842092 -175.15518 -80.459903 -168.69733 -72.540428 -168.65072 C -64.621155 -168.60402 -58.163395 -174.98588 -58.116503 -182.90515 C -58.102813 -186.26049 -59.266203 -189.5144 -61.404157 -192.10045 C -60.83125 -190.6836 -60.536835 -189.16959 -60.537027 -187.64129 C -60.575787 -181.07411 -65.930869 -175.78172 -72.498054 -175.82031 C -79.065241 -175.85911 -84.357627 -181.21415 -84.319038 -187.78134 C -84.309338 -189.30285 -84.007827 -190.80837 -83.43072 -192.21621 z M -126.67924 -119.73381 C -120.84061 -119.73381 -116.19219 -118.28861 -112.73436 -115.39764 C -109.27653 -112.56335 -107.54759 -108.56711 -107.54759 -103.40871 C -107.54759 -98.873849 -109.27653 -94.026912 -112.73436 -88.86851 C -116.19219 -83.766794 -121.8893 -77.616529 -129.8253 -70.41744 L -106.95228 -70.41744 L -106.95228 -62.084615 L -145.47034 -62.084615 L -145.47034 -67.016097 C -139.17823 -73.081471 -134.27516 -78.268272 -130.76065 -82.576388 C -127.24613 -86.884504 -124.72315 -90.852684 -123.19263 -94.480571 C -121.60543 -98.108458 -120.8119 -101.84955 -120.8119 -105.70418 C -120.8119 -111.82623 -122.85263 -114.88759 -126.93401 -114.88759 C -128.74795 -114.88759 -130.22173 -114.0369 -131.35544 -112.33633 C -132.48916 -110.69244 -133.05611 -108.65171 -133.05611 -106.21422 C -133.05611 -104.51365 -132.46109 -102.89852 -131.27069 -101.36801 C -132.23435 -100.46103 -133.33968 -99.752209 -134.58677 -99.242037 C -135.77717 -98.731866 -136.96773 -98.476709 -138.15813 -98.476709 C -140.19882 -98.476709 -141.89917 -99.10031 -143.25963 -100.3474 C -144.62008 -101.65117 -145.30033 -103.52197 -145.30033 -105.95946 C -145.30033 -108.567 -144.53486 -110.91953 -143.00434 -113.01691 C -141.47383 -115.11428 -139.31981 -116.75799 -136.54221 -117.94839 C -133.70792 -119.13879 -130.4205 -119.73381 -126.67924 -119.73381 z M -14.185851 -119.56379 C -7.4402483 -119.56379 -2.2820276 -117.69351 1.2891737 -113.95225 C 4.9170607 -110.21099 6.730702 -104.7971 6.730702 -97.711381 C 6.730702 -88.811721 3.9535961 -81.216258 -1.6016059 -74.924142 C -7.1001222 -68.688711 -15.093126 -64.09693 -25.579987 -61.149272 L -27.62069 -65.400692 C -21.952116 -67.838179 -17.388916 -70.956182 -13.931086 -74.754126 C -10.473256 -78.608756 -8.1773657 -83.086732 -7.043651 -88.188448 C -10.218052 -86.601248 -13.307475 -85.807715 -16.311819 -85.807715 C -21.980393 -85.807715 -26.458369 -87.338137 -29.746141 -90.399166 C -32.977228 -93.460196 -34.592874 -97.598308 -34.592874 -102.8134 C -34.592874 -106.04448 -33.742697 -108.93539 -32.042125 -111.48625 C -30.284867 -114.03711 -27.875689 -116.0212 -24.814659 -117.43834 C -21.696944 -118.85549 -18.153852 -119.56379 -14.185851 -119.56379 z M -71.495531 -119.05375 L -67.244111 -118.969 C -61.235423 -118.85563 -58.060776 -118.79847 -57.720661 -118.79847 L -45.646463 -118.969 L -43.18098 -117.18306 L -43.946308 -110.72092 L -65.033393 -110.72092 L -66.223501 -96.521273 C -63.275843 -97.258188 -60.611508 -97.626632 -58.230708 -97.626632 C -52.61882 -97.626632 -48.055619 -96.124274 -44.541104 -93.11993 C -40.969903 -90.172272 -39.184325 -85.836165 -39.184325 -80.110905 C -39.184325 -76.539704 -40.035018 -73.336993 -41.73559 -70.502706 C -43.379477 -67.66842 -45.760075 -65.429173 -48.87779 -63.785287 C -51.995505 -62.198086 -55.679949 -61.404554 -59.931379 -61.404554 C -63.389209 -61.404554 -66.535276 -61.886286 -69.369562 -62.849943 C -72.147163 -63.813601 -74.329766 -65.14551 -75.916966 -66.846082 C -77.504167 -68.60334 -78.2977 -70.559366 -78.2977 -72.713424 C -78.2977 -74.980853 -77.674099 -76.709787 -76.427013 -77.900188 C -75.179927 -79.147274 -73.649505 -79.770358 -71.835562 -79.770358 C -70.815219 -79.770358 -69.794593 -79.572362 -68.77425 -79.175562 C -67.697221 -78.778762 -66.733756 -78.211805 -65.88347 -77.474891 C -66.393642 -76.28449 -66.648798 -75.037289 -66.648798 -73.733517 C -66.648798 -71.862888 -66.110422 -70.332466 -65.033393 -69.142066 C -63.899678 -67.951665 -62.198808 -67.356645 -59.931379 -67.356645 C -54.829663 -67.356645 -52.279133 -71.608045 -52.279133 -80.110905 C -52.279133 -84.135593 -53.072665 -87.054567 -54.659866 -88.86851 C -56.247067 -90.73914 -58.372508 -91.674541 -61.036738 -91.674541 C -62.680624 -91.674541 -64.438138 -91.36274 -66.308767 -90.739197 C -68.179397 -90.115654 -70.021618 -89.236897 -71.835562 -88.103182 L -76.512279 -92.609884 L -74.301561 -116.75776 L -71.495531 -119.05375 z M -14.696414 -113.69697 C -17.1339 -113.69697 -19.004186 -112.76157 -20.307958 -110.89094 C -21.61173 -109.02031 -22.263911 -106.35597 -22.263911 -102.89814 C -22.263911 -99.383629 -21.555086 -96.634587 -20.137942 -94.650586 C -18.664113 -92.723271 -16.595315 -91.759807 -13.931086 -91.759807 C -11.606971 -91.759807 -9.0278605 -92.723271 -6.1935737 -94.650586 L -6.1935737 -95.755945 C -6.1935737 -101.93469 -6.8738184 -106.46931 -8.234276 -109.36028 C -9.5947337 -112.25126 -11.748756 -113.69697 -14.696414 -113.69697 z M -91.817288 -101.28274 C -89.833287 -101.28274 -88.35951 -100.68772 -87.395852 -99.497319 C -86.375509 -98.363604 -85.865196 -96.776539 -85.865196 -94.735852 C -85.865196 -92.695166 -86.375509 -91.107584 -87.395852 -89.973869 C -88.35951 -88.840154 -89.833287 -88.273198 -91.817288 -88.273198 C -93.801289 -88.273198 -95.303646 -88.840154 -96.32399 -89.973869 C -97.287647 -91.16427 -97.769379 -92.751852 -97.769379 -94.735852 C -97.769379 -96.833225 -97.287647 -98.448354 -96.32399 -99.582068 C -95.303646 -100.71578 -93.801289 -101.28274 -91.817288 -101.28274 z M -91.817288 -74.498845 C -89.833287 -74.498845 -88.35951 -73.903824 -87.395852 -72.713424 C -86.375509 -71.579709 -85.865196 -69.992127 -85.865196 -67.951441 C -85.865196 -65.910754 -86.375509 -64.323689 -87.395852 -63.189974 C -88.35951 -62.05626 -89.833287 -61.489303 -91.817288 -61.489303 C -93.801289 -61.489303 -95.303646 -62.05626 -96.32399 -63.189974 C -97.287647 -64.380375 -97.769379 -65.96744 -97.769379 -67.951441 C -97.769379 -70.048813 -97.287647 -71.664459 -96.32399 -72.798173 C -95.303646 -73.931888 -93.801289 -74.498845 -91.817288 -74.498845 z " /></g></svg>
