<?xml version="1.0" encoding="UTF-8" standalone="no"?>
<!-- Created with Inkscape (http://www.inkscape.org/) -->

<svg
   width="172.6701mm"
   height="172.6701mm"
   viewBox="0 0 172.6701 172.6701"
   version="1.1"
   id="svg1"
   xml:space="preserve"
   xmlns="http://www.w3.org/2000/svg"
   xmlns:svg="http://www.w3.org/2000/svg"><defs
     id="defs1" /><g
     id="layer1"
     transform="translate(157.25102,198.81012)"><path
       id="path5"
       style="fill:#ffffff;fill-opacity:1;stroke-width:0.805188;stroke-linecap:round;stroke-linejoin:round"
       d="M -2.0863309 -198.17657 L -10.088943 -183.11289 L -10.930235 -165.68398 L -19.198981 -165.68398 L -11.423229 -155.47426 L -12.166336 -140.07934 C -28.353216 -157.12094 -50.823548 -166.77435 -74.327399 -166.78417 C -103.64471 -166.77397 -130.92652 -151.79225 -146.66717 -127.05894 L -157.25102 -127.05894 L -149.61996 -115.86014 L -157.25102 -26.140039 L -8.5138455 -26.140039 L 15.419061 -26.140039 L 8.0799737 -154.80195 L 15.419061 -165.68398 L 7.4593397 -165.68398 L 6.4490654 -183.39297 L -2.0863309 -198.17657 z M -83.43072 -192.21621 C -85.584619 -189.65499 -86.77489 -186.4211 -86.795372 -183.07465 C -86.842092 -175.15518 -80.459903 -168.69733 -72.540428 -168.65072 C -64.621155 -168.60402 -58.163395 -174.98588 -58.116503 -182.90515 C -58.102813 -186.26049 -59.266203 -189.5144 -61.404157 -192.10045 C -60.83125 -190.6836 -60.536835 -189.16959 -60.537027 -187.64129 C -60.575787 -181.07411 -65.930869 -175.78172 -72.498054 -175.82031 C -79.065241 -175.85911 -84.357627 -181.21415 -84.319038 -187.78134 C -84.309338 -189.30285 -84.007827 -190.80837 -83.43072 -192.21621 z M -108.48242 -133.25443 C -102.36458 -133.25443 -96.952752 -132.21882 -92.246719 -130.14816 C -87.540686 -128.17163 -83.86985 -125.34807 -81.234471 -121.67736 C -78.599093 -118.10078 -77.281224 -113.95935 -77.281224 -109.25331 C -77.281224 -103.98256 -78.834389 -99.464961 -81.940371 -95.700135 C -85.046353 -91.935308 -89.658376 -89.064791 -95.776219 -87.088257 C -88.058325 -85.394085 -82.6465 -82.61748 -79.540518 -78.758533 C -76.434536 -74.899586 -74.881371 -69.675585 -74.881371 -63.087138 C -74.881371 -57.345778 -76.62236 -52.451502 -80.104825 -48.404314 C -83.493169 -44.357125 -87.91685 -41.345223 -93.375849 -39.368689 C -98.834848 -37.392155 -104.48249 -36.404012 -110.31797 -36.404012 C -118.78883 -36.404012 -125.98911 -38.145518 -131.91872 -41.627983 C -137.7542 -45.110448 -140.67167 -49.863338 -140.67167 -55.887061 C -140.67167 -59.369526 -139.63657 -62.052218 -137.56592 -63.934632 C -135.49526 -65.911166 -132.90648 -66.899309 -129.8005 -66.899309 C -126.6004 -66.899309 -123.35372 -65.628396 -120.05949 -63.087138 C -120.90658 -61.298846 -121.3297 -59.134219 -121.3297 -56.592961 C -121.3297 -53.5811 -120.43598 -51.13422 -118.64769 -49.251807 C -116.76528 -47.369394 -113.98867 -46.428207 -110.31797 -46.428207 C -102.22359 -46.428207 -98.176073 -52.028372 -98.176073 -63.228732 C -98.176073 -69.346575 -100.15288 -74.099466 -104.10594 -77.48781 C -107.96489 -80.876154 -113.47063 -82.570187 -120.6238 -82.570187 L -120.6238 -91.323658 C -106.78806 -92.453106 -99.870543 -98.429436 -99.870543 -109.25331 C -99.870543 -114.71231 -100.7173 -118.71287 -102.41147 -121.25413 C -104.10565 -123.88951 -106.41166 -125.20686 -109.3294 -125.20686 C -112.81186 -125.20686 -115.4476 -123.98342 -117.23589 -121.53628 C -118.93006 -119.08915 -119.77682 -116.1242 -119.77682 -112.64174 C -119.77682 -109.53575 -119.11789 -106.75915 -117.8002 -104.31201 C -120.43558 -101.48839 -123.82416 -100.07661 -127.96547 -100.07661 C -131.7303 -100.07661 -134.64777 -101.20614 -136.71842 -103.46504 C -138.78908 -105.72393 -139.82469 -108.64192 -139.82469 -112.21851 C -139.82469 -116.92454 -138.22457 -120.83016 -135.02447 -123.93614 C -131.73025 -127.13624 -127.68325 -129.48921 -122.88309 -130.99514 C -117.98882 -132.50107 -113.18845 -133.25443 -108.48242 -133.25443 z M -33.233267 -133.11335 C -22.221149 -133.11335 -13.796906 -128.97193 -7.9614245 -120.68931 C -2.0318225 -112.50081 0.9326063 -100.59459 0.9326063 -84.970557 C 0.9326063 -69.346526 -2.0318225 -57.345876 -7.9614245 -48.969137 C -13.796906 -40.686518 -22.221149 -36.545089 -33.233267 -36.545089 C -44.245385 -36.545089 -52.716067 -40.686518 -58.645669 -48.969137 C -64.575271 -57.345876 -67.540217 -69.346526 -67.540217 -84.970557 C -67.540217 -100.50047 -64.575271 -112.40669 -58.645669 -120.68931 C -52.716067 -128.97193 -44.245385 -133.11335 -33.233267 -133.11335 z M -33.233267 -125.91276 C -38.033421 -125.91276 -41.515399 -122.75999 -43.680174 -116.45391 C -45.750829 -110.14782 -46.786445 -99.653381 -46.786445 -84.970557 C -46.786445 -70.381854 -45.750829 -59.934369 -43.680174 -53.628284 C -41.515399 -47.41632 -38.033421 -44.310507 -33.233267 -44.310507 C -28.433113 -44.310507 -24.997574 -47.41632 -22.926919 -53.628284 C -20.762144 -59.934369 -19.679572 -70.381854 -19.679572 -84.970557 C -19.679572 -99.55926 -20.762144 -110.00623 -22.926919 -116.31231 C -24.997574 -122.71252 -28.433113 -125.91276 -33.233267 -125.91276 z " /></g></svg>
