<?xml version="1.0" encoding="UTF-8" standalone="no"?>
<!-- Created with Inkscape (http://www.inkscape.org/) -->

<svg
   width="172.6701mm"
   height="172.6701mm"
   viewBox="0 0 172.6701 172.6701"
   version="1.1"
   id="svg1"
   xml:space="preserve"
   xmlns="http://www.w3.org/2000/svg"
   xmlns:svg="http://www.w3.org/2000/svg"><defs
     id="defs1" /><g
     id="layer1"
     transform="translate(157.25102,198.81012)"><path
       id="path5"
       style="fill:#ffffff;fill-opacity:1;stroke-width:0.805188;stroke-linecap:round;stroke-linejoin:round"
       d="M -2.0863309 -198.17657 L -10.088943 -183.11289 L -10.930235 -165.68398 L -19.198981 -165.68398 L -11.423229 -155.47426 L -12.166336 -140.07934 C -28.353216 -157.12094 -50.823548 -166.77435 -74.327399 -166.78417 C -103.64471 -166.77397 -130.92652 -151.79225 -146.66717 -127.05894 L -157.25102 -127.05894 L -149.61996 -115.86014 L -157.25102 -26.140039 L -8.5138455 -26.140039 L 15.419061 -26.140039 L 8.0799737 -154.80195 L 15.419061 -165.68398 L 7.4593397 -165.68398 L 6.4490654 -183.39297 L -2.0863309 -198.17657 z M -83.43072 -192.21621 C -85.584619 -189.65499 -86.77489 -186.4211 -86.795372 -183.07465 C -86.842092 -175.15518 -80.459903 -168.69733 -72.540428 -168.65072 C -64.621155 -168.60402 -58.163395 -174.98588 -58.116503 -182.90515 C -58.102813 -186.26049 -59.266203 -189.5144 -61.404157 -192.10045 C -60.83125 -190.6836 -60.536835 -189.16959 -60.537027 -187.64129 C -60.575787 -181.07411 -65.930869 -175.78172 -72.498054 -175.82031 C -79.065241 -175.85911 -84.357627 -181.21415 -84.319038 -187.78134 C -84.309338 -189.30285 -84.007827 -190.80837 -83.43072 -192.21621 z M -103.18817 -133.25443 C -97.070327 -133.25443 -91.658502 -132.21882 -86.952469 -130.14816 C -82.246435 -128.17163 -78.5756 -125.34807 -75.940221 -121.67736 C -73.304842 -118.10078 -71.986974 -113.95935 -71.986974 -109.25331 C -71.986974 -103.98256 -73.540139 -99.464961 -76.646121 -95.700135 C -79.752103 -91.935308 -84.364126 -89.064791 -90.481969 -87.088257 C -82.764074 -85.394085 -77.351733 -82.61748 -74.245751 -78.758533 C -71.139769 -74.899586 -69.58712 -69.675585 -69.58712 -63.087138 C -69.58712 -57.345778 -71.328109 -52.451502 -74.810574 -48.404314 C -78.198918 -44.357125 -82.6226 -41.345223 -88.081599 -39.368689 C -93.540597 -37.392155 -99.187719 -36.404012 -105.0232 -36.404012 C -113.49406 -36.404012 -120.69435 -38.145518 -126.62395 -41.627983 C -132.45943 -45.110448 -135.37742 -49.863338 -135.37742 -55.887061 C -135.37742 -59.369526 -134.3418 -62.052218 -132.27115 -63.934632 C -130.20049 -65.911166 -127.61223 -66.899309 -124.50625 -66.899309 C -121.30615 -66.899309 -118.05895 -65.628396 -114.76472 -63.087138 C -115.61181 -61.298846 -116.03545 -59.134219 -116.03545 -56.592961 C -116.03545 -53.5811 -115.14122 -51.13422 -113.35292 -49.251807 C -111.47051 -47.369394 -108.69391 -46.428207 -105.0232 -46.428207 C -96.928823 -46.428207 -92.881822 -52.028372 -92.881822 -63.228732 C -92.881822 -69.346575 -94.858625 -74.099466 -98.811693 -77.48781 C -102.67064 -80.876154 -108.17638 -82.570187 -115.32955 -82.570187 L -115.32955 -91.323658 C -101.49381 -92.453106 -94.576293 -98.429436 -94.576293 -109.25331 C -94.576293 -114.71231 -95.423051 -118.71287 -97.117223 -121.25413 C -98.811395 -123.88951 -101.11741 -125.20686 -104.03515 -125.20686 C -107.51761 -125.20686 -110.15283 -123.98342 -111.94112 -121.53628 C -113.6353 -119.08915 -114.48257 -116.1242 -114.48257 -112.64174 C -114.48257 -109.53575 -113.82364 -106.75915 -112.50595 -104.31201 C -115.14133 -101.48839 -118.52991 -100.07661 -122.67122 -100.07661 C -126.43605 -100.07661 -129.35352 -101.20614 -131.42417 -103.46504 C -133.49483 -105.72393 -134.53044 -108.64192 -134.53044 -112.21851 C -134.53044 -116.92454 -132.93032 -120.83016 -129.73022 -123.93614 C -126.436 -127.13624 -122.38848 -129.48921 -117.58832 -130.99514 C -112.69405 -132.50107 -107.8942 -133.25443 -103.18817 -133.25443 z M -26.668293 -132.26586 L -22.009146 -130.14816 L -22.009146 -48.545907 C -20.220853 -47.51058 -17.397292 -46.569393 -13.538345 -45.722307 C -9.6793977 -44.969341 -6.6205402 -44.498748 -4.3616442 -44.310507 L -4.7848742 -37.533659 L -62.387043 -37.533659 L -62.104373 -44.310507 C -53.727634 -45.251713 -47.327666 -46.663494 -42.903994 -48.545907 L -42.903994 -116.17124 L -61.82222 -116.17124 L -61.82222 -124.35988 C -55.798497 -124.83049 -49.586353 -125.72472 -43.186148 -127.04241 C -36.785942 -128.45422 -31.280206 -130.19521 -26.668293 -132.26586 z " /></g></svg>
