<?xml version="1.0" encoding="UTF-8" standalone="no"?>
<!-- Created with Inkscape (http://www.inkscape.org/) -->

<svg
   width="172.6701mm"
   height="172.6701mm"
   viewBox="0 0 172.6701 172.6701"
   version="1.1"
   id="svg1"
   xml:space="preserve"
   xmlns="http://www.w3.org/2000/svg"
   xmlns:svg="http://www.w3.org/2000/svg"><defs
     id="defs1" /><g
     id="layer1"
     transform="translate(157.25102,198.81012)"><path
       id="path5"
       style="fill:#ffffff;fill-opacity:1;stroke-width:0.805188;stroke-linecap:round;stroke-linejoin:round"
       d="M -2.0863309 -198.17657 L -10.088943 -183.11289 L -10.930235 -165.68398 L -19.198981 -165.68398 L -11.423229 -155.47426 L -12.166336 -140.07934 C -28.353216 -157.12094 -50.823548 -166.77435 -74.327399 -166.78417 C -103.64471 -166.77397 -130.92652 -151.79225 -146.66717 -127.05894 L -157.25102 -127.05894 L -149.61996 -115.86014 L -157.25102 -26.140039 L -8.5138455 -26.140039 L 15.419061 -26.140039 L 8.0799737 -154.80195 L 15.419061 -165.68398 L 7.4593397 -165.68398 L 6.4490654 -183.39297 L -2.0863309 -198.17657 z M -83.43072 -192.21621 C -85.584619 -189.65499 -86.77489 -186.4211 -86.795372 -183.07465 C -86.842092 -175.15518 -80.459903 -168.69733 -72.540428 -168.65072 C -64.621155 -168.60402 -58.163395 -174.98588 -58.116503 -182.90515 C -58.102813 -186.26049 -59.266203 -189.5144 -61.404157 -192.10045 C -60.83125 -190.6836 -60.536835 -189.16959 -60.537027 -187.64129 C -60.575787 -181.07411 -65.930869 -175.78172 -72.498054 -175.82031 C -79.065241 -175.85911 -84.357627 -181.21415 -84.319038 -187.78134 C -84.309338 -189.30285 -84.007827 -190.80837 -83.43072 -192.21621 z M -106.64687 -133.25443 C -100.52903 -133.25443 -95.117206 -132.21882 -90.411172 -130.14816 C -85.705139 -128.17163 -82.034303 -125.34807 -79.398924 -121.67736 C -76.763546 -118.10078 -75.446194 -113.95935 -75.446194 -109.25331 C -75.446194 -103.98256 -76.998843 -99.464961 -80.104825 -95.700135 C -83.210807 -91.935308 -87.822829 -89.064791 -93.940673 -87.088257 C -86.222778 -85.394085 -80.810953 -82.61748 -77.704971 -78.758533 C -74.598989 -74.899586 -73.045824 -69.675585 -73.045824 -63.087138 C -73.045824 -57.345778 -74.78733 -52.451502 -78.269794 -48.404314 C -81.658138 -44.357125 -86.08182 -41.345223 -91.540819 -39.368689 C -96.999818 -37.392155 -102.64694 -36.404012 -108.48242 -36.404012 C -116.95328 -36.404012 -124.15357 -38.145518 -130.08317 -41.627983 C -135.91865 -45.110448 -138.83612 -49.863338 -138.83612 -55.887061 C -138.83612 -59.369526 -137.80102 -62.052218 -135.73037 -63.934632 C -133.65972 -65.911166 -131.07145 -66.899309 -127.96547 -66.899309 C -124.76537 -66.899309 -121.51817 -65.628396 -118.22394 -63.087138 C -119.07103 -61.298846 -119.49467 -59.134219 -119.49467 -56.592961 C -119.49467 -53.5811 -118.60044 -51.13422 -116.81214 -49.251807 C -114.92973 -47.369394 -112.15313 -46.428207 -108.48242 -46.428207 C -100.38804 -46.428207 -96.340526 -52.028372 -96.340526 -63.228732 C -96.340526 -69.346575 -98.317329 -74.099466 -102.2704 -77.48781 C -106.12934 -80.876154 -111.6356 -82.570187 -118.78877 -82.570187 L -118.78877 -91.323658 C -104.95303 -92.453106 -98.034996 -98.429436 -98.034996 -109.25331 C -98.034996 -114.71231 -98.882271 -118.71287 -100.57644 -121.25413 C -102.27062 -123.88951 -104.57611 -125.20686 -107.49385 -125.20686 C -110.97632 -125.20686 -113.61205 -123.98342 -115.40034 -121.53628 C -117.09452 -119.08915 -117.94127 -116.1242 -117.94127 -112.64174 C -117.94127 -109.53575 -117.28286 -106.75915 -115.96517 -104.31201 C -118.60055 -101.48839 -121.98861 -100.07661 -126.12992 -100.07661 C -129.89475 -100.07661 -132.81274 -101.20614 -134.88339 -103.46504 C -136.95405 -105.72393 -137.98915 -108.64192 -137.98915 -112.21851 C -137.98915 -116.92454 -136.38903 -120.83016 -133.18892 -123.93614 C -129.8947 -127.13624 -125.8477 -129.48921 -121.04755 -130.99514 C -116.15327 -132.50107 -111.35291 -133.25443 -106.64687 -133.25443 z M -34.362397 -133.25443 C -24.667968 -133.25443 -16.950132 -130.85399 -11.208771 -126.05384 C -5.4674108 -121.3478 -2.596894 -114.71254 -2.596894 -106.14756 C -2.596894 -98.617906 -5.4674108 -90.570344 -11.208771 -82.005363 C -16.950132 -73.534503 -26.408957 -63.322832 -39.585851 -51.369507 L -1.6083239 -51.369507 L -1.6083239 -37.533659 L -65.563593 -37.533659 L -65.563593 -45.722307 C -55.116199 -55.793218 -46.974726 -64.404768 -41.139244 -71.557939 C -35.303763 -78.71111 -31.115378 -85.299935 -28.57412 -91.323658 C -25.938741 -97.34738 -24.620873 -103.55901 -24.620873 -109.95921 C -24.620873 -120.12424 -28.009456 -125.20686 -34.786144 -125.20686 C -37.798005 -125.20686 -40.244884 -123.79508 -42.127298 -120.97146 C -44.009711 -118.24196 -44.950898 -114.85389 -44.950898 -110.80671 C -44.950898 -107.98309 -43.962755 -105.30039 -41.986221 -102.75914 C -43.586272 -101.2532 -45.42169 -100.07672 -47.492345 -99.229635 C -49.468879 -98.382549 -51.445165 -97.958912 -53.421699 -97.958912 C -56.810043 -97.958912 -59.633603 -98.994527 -61.892499 -101.06518 C -64.151395 -103.22996 -65.280923 -106.33577 -65.280923 -110.38296 C -65.280923 -114.71251 -64.010528 -118.61864 -61.46927 -122.10111 C -58.928012 -125.58357 -55.351088 -128.3127 -50.739175 -130.28924 C -46.033142 -132.26577 -40.574361 -133.25443 -34.362397 -133.25443 z " /></g></svg>
