<?xml version="1.0" encoding="UTF-8" standalone="no"?>
<!-- Created with Inkscape (http://www.inkscape.org/) -->

<svg
   width="172.6701mm"
   height="172.6701mm"
   viewBox="0 0 172.6701 172.6701"
   version="1.1"
   id="svg1"
   xml:space="preserve"
   xmlns="http://www.w3.org/2000/svg"
   xmlns:svg="http://www.w3.org/2000/svg"><defs
     id="defs1" /><g
     id="layer1"
     transform="translate(157.25102,198.81012)"><path
       id="path5"
       style="fill:#ffffff;fill-opacity:1;stroke-width:0.805188;stroke-linecap:round;stroke-linejoin:round"
       d="M -2.0863309 -198.17657 L -10.088943 -183.11289 L -10.930235 -165.68398 L -19.198981 -165.68398 L -11.423229 -155.47426 L -12.166336 -140.07934 C -28.353216 -157.12094 -50.823548 -166.77435 -74.327399 -166.78417 C -103.64471 -166.77397 -130.92652 -151.79225 -146.66717 -127.05894 L -157.25102 -127.05894 L -149.61996 -115.86014 L -157.25102 -26.140039 L -8.5138455 -26.140039 L 15.419061 -26.140039 L 8.0799737 -154.80195 L 15.419061 -165.68398 L 7.4593397 -165.68398 L 6.4490654 -183.39297 L -2.0863309 -198.17657 z M -83.43072 -192.21621 C -85.584619 -189.65499 -86.77489 -186.4211 -86.795372 -183.07465 C -86.842092 -175.15518 -80.459903 -168.69733 -72.540428 -168.65072 C -64.621155 -168.60402 -58.163395 -174.98588 -58.116503 -182.90515 C -58.102813 -186.26049 -59.266203 -189.5144 -61.404157 -192.10045 C -60.83125 -190.6836 -60.536835 -189.16959 -60.537027 -187.64129 C -60.575787 -181.07411 -65.930869 -175.78172 -72.498054 -175.82031 C -79.065241 -175.85911 -84.357627 -181.21415 -84.319038 -187.78134 C -84.309338 -189.30285 -84.007827 -190.80837 -83.43072 -192.21621 z M -36.621174 -133.81925 C -29.09152 -133.44277 -22.973805 -131.79518 -18.267772 -128.87744 L -51.868822 -73.534563 L -30.268073 -73.534563 L -28.856273 -96.547111 C -25.844412 -96.547111 -23.679785 -97.15909 -22.362096 -98.382658 C -20.950286 -99.606227 -19.867714 -101.67694 -19.114749 -104.59468 L -11.067695 -104.59468 L -11.208771 -72.828662 C -7.6321861 -71.793335 -3.1140755 -70.71128 2.3449232 -69.581832 L 1.6390231 -62.804985 L -11.914672 -62.804985 L -11.914672 -37.533659 L -30.268073 -37.533659 L -30.268073 -62.804985 L -71.0692 -62.804985 L -72.198847 -67.887362 L -36.621174 -133.81925 z M -109.89422 -133.25443 C -103.77638 -133.25443 -98.364553 -132.21882 -93.658519 -130.14816 C -88.952486 -128.17163 -85.28165 -125.34807 -82.646271 -121.67736 C -80.010893 -118.10078 -78.693024 -113.95935 -78.693024 -109.25331 C -78.693024 -103.98256 -80.24619 -99.464961 -83.352172 -95.700135 C -86.458154 -91.935308 -91.070176 -89.064791 -97.18802 -87.088257 C -89.470125 -85.394085 -84.057783 -82.61748 -80.951801 -78.758533 C -77.845819 -74.899586 -76.293171 -69.675585 -76.293171 -63.087138 C -76.293171 -57.345778 -78.03416 -52.451502 -81.516625 -48.404314 C -84.904969 -44.357125 -89.328651 -41.345223 -94.787649 -39.368689 C -100.24665 -37.392155 -105.89377 -36.404012 -111.72925 -36.404012 C -120.20011 -36.404012 -127.4004 -38.145518 -133.33 -41.627983 C -139.16548 -45.110448 -142.08347 -49.863338 -142.08347 -55.887061 C -142.08347 -59.369526 -141.04785 -62.052218 -138.9772 -63.934632 C -136.90655 -65.911166 -134.31828 -66.899309 -131.2123 -66.899309 C -128.0122 -66.899309 -124.765 -65.628396 -121.47078 -63.087138 C -122.31786 -61.298846 -122.7415 -59.134219 -122.7415 -56.592961 C -122.7415 -53.5811 -121.84727 -51.13422 -120.05897 -49.251807 C -118.17656 -47.369394 -115.39996 -46.428207 -111.72925 -46.428207 C -103.63487 -46.428207 -99.587873 -52.028372 -99.587873 -63.228732 C -99.587873 -69.346575 -101.56468 -74.099466 -105.51774 -77.48781 C -109.37669 -80.876154 -114.88243 -82.570187 -122.0356 -82.570187 L -122.0356 -91.323658 C -108.19986 -92.453106 -101.28183 -98.429436 -101.28183 -109.25331 C -101.28183 -114.71231 -102.1291 -118.71287 -103.82327 -121.25413 C -105.51745 -123.88951 -107.82346 -125.20686 -110.7412 -125.20686 C -114.22366 -125.20686 -116.85888 -123.98342 -118.64717 -121.53628 C -120.34135 -119.08915 -121.18862 -116.1242 -121.18862 -112.64174 C -121.18862 -109.53575 -120.52969 -106.75915 -119.212 -104.31201 C -121.84738 -101.48839 -125.23596 -100.07661 -129.37727 -100.07661 C -133.1421 -100.07661 -136.05957 -101.20614 -138.13022 -103.46504 C -140.20088 -105.72393 -141.23649 -108.64192 -141.23649 -112.21851 C -141.23649 -116.92454 -139.63637 -120.83016 -136.43627 -123.93614 C -133.14205 -127.13624 -129.09453 -129.48921 -124.29438 -130.99514 C -119.4001 -132.50107 -114.60025 -133.25443 -109.89422 -133.25443 z " /></g></svg>
