<?xml version="1.0" encoding="UTF-8" standalone="no"?>
<!-- Created with Inkscape (http://www.inkscape.org/) -->

<svg
   width="172.6701mm"
   height="172.6701mm"
   viewBox="0 0 172.6701 172.6701"
   version="1.1"
   id="svg1"
   xml:space="preserve"
   xmlns="http://www.w3.org/2000/svg"
   xmlns:svg="http://www.w3.org/2000/svg"><defs
     id="defs1" /><g
     id="layer1"
     transform="translate(157.25102,198.81012)"><path
       id="path5"
       style="fill:#ffffff;fill-opacity:1;stroke-width:0.805188;stroke-linecap:round;stroke-linejoin:round"
       d="M -2.0863309 -198.17657 L -10.088943 -183.11289 L -10.930235 -165.68398 L -19.198981 -165.68398 L -11.423229 -155.47426 L -12.166336 -140.07934 C -28.353216 -157.12094 -50.823548 -166.77435 -74.327399 -166.78417 C -103.64471 -166.77397 -130.92652 -151.79225 -146.66717 -127.05894 L -157.25102 -127.05894 L -149.61996 -115.86014 L -157.25102 -26.140039 L -8.5138455 -26.140039 L 15.419061 -26.140039 L 8.0799737 -154.80195 L 15.419061 -165.68398 L 7.4593397 -165.68398 L 6.4490654 -183.39297 L -2.0863309 -198.17657 z M -83.43072 -192.21621 C -85.584619 -189.65499 -86.77489 -186.4211 -86.795372 -183.07465 C -86.842092 -175.15518 -80.459903 -168.69733 -72.540428 -168.65072 C -64.621155 -168.60402 -58.163395 -174.98588 -58.116503 -182.90515 C -58.102813 -186.26049 -59.266203 -189.5144 -61.404157 -192.10045 C -60.83125 -190.6836 -60.536835 -189.16959 -60.537027 -187.64129 C -60.575787 -181.07411 -65.930869 -175.78172 -72.498054 -175.82031 C -79.065241 -175.85911 -84.357627 -181.21415 -84.319038 -187.78134 C -84.309338 -189.30285 -84.007827 -190.80837 -83.43072 -192.21621 z M -14.103168 -133.53658 L -10.714745 -126.47758 C -29.727119 -118.28909 -41.162747 -105.67697 -45.021695 -88.641134 C -39.562696 -91.276513 -34.386168 -92.594381 -29.491893 -92.594381 C -20.079827 -92.594381 -12.691199 -90.053073 -7.3263211 -84.970557 C -1.8673224 -79.888041 0.86232635 -73.016963 0.86232635 -64.357862 C 0.86232635 -58.992984 -0.59641003 -54.193137 -3.5141507 -49.957707 C -6.3377707 -45.722277 -10.338332 -42.427606 -15.514969 -40.074589 C -20.597485 -37.721573 -26.432947 -36.545089 -33.021394 -36.545089 C -44.221753 -36.545089 -52.83382 -39.651419 -58.857543 -45.863383 C -64.787145 -52.075347 -67.751573 -61.063579 -67.751573 -72.828662 C -67.751573 -87.605607 -63.187023 -100.17076 -54.057319 -110.52404 C -44.833494 -120.97143 -31.515492 -128.64231 -14.103168 -133.53658 z M -108.83537 -133.25443 C -102.71753 -133.25443 -97.305702 -132.21882 -92.599669 -130.14816 C -87.893636 -128.17163 -84.2228 -125.34807 -81.587421 -121.67736 C -78.952043 -118.10078 -77.634174 -113.95935 -77.634174 -109.25331 C -77.634174 -103.98256 -79.187339 -99.464961 -82.293321 -95.700135 C -85.399303 -91.935308 -90.011326 -89.064791 -96.129169 -87.088257 C -88.411275 -85.394085 -82.998933 -82.61748 -79.892951 -78.758533 C -76.786969 -74.899586 -75.234321 -69.675585 -75.234321 -63.087138 C -75.234321 -57.345778 -76.97531 -52.451502 -80.457775 -48.404314 C -83.846119 -44.357125 -88.2698 -41.345223 -93.728799 -39.368689 C -99.187798 -37.392155 -104.83544 -36.404012 -110.67092 -36.404012 C -119.14178 -36.404012 -126.34155 -38.145518 -132.27115 -41.627983 C -138.10663 -45.110448 -141.02462 -49.863338 -141.02462 -55.887061 C -141.02462 -59.369526 -139.989 -62.052218 -137.91835 -63.934632 C -135.8477 -65.911166 -133.25943 -66.899309 -130.15345 -66.899309 C -126.95335 -66.899309 -123.70615 -65.628396 -120.41192 -63.087138 C -121.25901 -61.298846 -121.68265 -59.134219 -121.68265 -56.592961 C -121.68265 -53.5811 -120.78842 -51.13422 -119.00012 -49.251807 C -117.11771 -47.369394 -114.34162 -46.428207 -110.67092 -46.428207 C -102.57654 -46.428207 -98.529023 -52.028372 -98.529023 -63.228732 C -98.529023 -69.346575 -100.50583 -74.099466 -104.45889 -77.48781 C -108.31784 -80.876154 -113.82358 -82.570187 -120.97675 -82.570187 L -120.97675 -91.323658 C -107.14101 -92.453106 -100.22349 -98.429436 -100.22349 -109.25331 C -100.22349 -114.71231 -101.07025 -118.71287 -102.76442 -121.25413 C -104.4586 -123.88951 -106.76461 -125.20686 -109.68235 -125.20686 C -113.16481 -125.20686 -115.80003 -123.98342 -117.58832 -121.53628 C -119.2825 -119.08915 -120.12977 -116.1242 -120.12977 -112.64174 C -120.12977 -109.53575 -119.47084 -106.75915 -118.15315 -104.31201 C -120.78853 -101.48839 -124.17711 -100.07661 -128.31842 -100.07661 C -132.08325 -100.07661 -135.00072 -101.20614 -137.07137 -103.46504 C -139.14203 -105.72393 -140.17764 -108.64192 -140.17764 -112.21851 C -140.17764 -116.92454 -138.57752 -120.83016 -135.37742 -123.93614 C -132.0832 -127.13624 -128.03568 -129.48921 -123.23553 -130.99514 C -118.34125 -132.50107 -113.5414 -133.25443 -108.83537 -133.25443 z M -33.444624 -82.711263 C -37.397692 -82.711263 -41.680505 -81.111659 -46.292418 -77.911556 L -46.292418 -76.076009 C -46.292418 -65.816857 -45.16289 -58.287361 -42.903994 -53.487207 C -40.645098 -48.687053 -37.068175 -46.286613 -32.1739 -46.286613 C -28.126711 -46.286613 -25.020898 -47.839778 -22.856123 -50.94576 C -20.691347 -54.051742 -19.608776 -58.475424 -19.608776 -64.216785 C -19.608776 -70.052266 -20.832732 -74.56986 -23.279869 -77.769963 C -25.632886 -81.064186 -29.020952 -82.711263 -33.444624 -82.711263 z " /></g></svg>
