<?xml version="1.0" encoding="UTF-8" standalone="no"?>
<!-- Created with Inkscape (http://www.inkscape.org/) -->

<svg
   width="172.6701mm"
   height="172.6701mm"
   viewBox="0 0 172.6701 172.6701"
   version="1.1"
   id="svg1"
   xml:space="preserve"
   xmlns="http://www.w3.org/2000/svg"
   xmlns:svg="http://www.w3.org/2000/svg"><defs
     id="defs1" /><g
     id="layer1"
     transform="translate(157.25102,198.81012)"><path
       id="path5"
       style="fill:#ffffff;fill-opacity:1;stroke-width:0.805188;stroke-linecap:round;stroke-linejoin:round"
       d="M -2.0863309 -198.17657 L -10.088943 -183.11289 L -10.930235 -165.68398 L -19.198981 -165.68398 L -11.423229 -155.47426 L -12.166336 -140.07934 C -28.353216 -157.12094 -50.823548 -166.77435 -74.327399 -166.78417 C -103.64471 -166.77397 -130.92652 -151.79225 -146.66717 -127.05894 L -157.25102 -127.05894 L -149.61996 -115.86014 L -157.25102 -26.140039 L -8.5138455 -26.140039 L 15.419061 -26.140039 L 8.0799737 -154.80195 L 15.419061 -165.68398 L 7.4593397 -165.68398 L 6.4490654 -183.39297 L -2.0863309 -198.17657 z M -83.43072 -192.21621 C -85.584619 -189.65499 -86.77489 -186.4211 -86.795372 -183.07465 C -86.842092 -175.15518 -80.459903 -168.69733 -72.540428 -168.65072 C -64.621155 -168.60402 -58.163395 -174.98588 -58.116503 -182.90515 C -58.102813 -186.26049 -59.266203 -189.5144 -61.404157 -192.10045 C -60.83125 -190.6836 -60.536835 -189.16959 -60.537027 -187.64129 C -60.575787 -181.07411 -65.930869 -175.78172 -72.498054 -175.82031 C -79.065241 -175.85911 -84.357627 -181.21415 -84.319038 -187.78134 C -84.309338 -189.30285 -84.007827 -190.80837 -83.43072 -192.21621 z M -108.55322 -133.25443 C -102.43537 -133.25443 -97.023032 -132.21882 -92.316999 -130.14816 C -87.610966 -128.17163 -83.940647 -125.34807 -81.305268 -121.67736 C -78.669889 -118.10078 -77.352021 -113.95935 -77.352021 -109.25331 C -77.352021 -103.98256 -78.905186 -99.464961 -82.011168 -95.700135 C -85.11715 -91.935308 -89.728656 -89.064791 -95.846499 -87.088257 C -88.128605 -85.394085 -82.71678 -82.61748 -79.610798 -78.758533 C -76.504816 -74.899586 -74.951651 -69.675585 -74.951651 -63.087138 C -74.951651 -57.345778 -76.693157 -52.451502 -80.175621 -48.404314 C -83.563965 -44.357125 -87.987647 -41.345223 -93.446646 -39.368689 C -98.905644 -37.392155 -104.55277 -36.404012 -110.38825 -36.404012 C -118.85911 -36.404012 -126.05939 -38.145518 -131.989 -41.627983 C -137.82448 -45.110448 -140.74247 -49.863338 -140.74247 -55.887061 C -140.74247 -59.369526 -139.70685 -62.052218 -137.6362 -63.934632 C -135.56554 -65.911166 -132.97728 -66.899309 -129.8713 -66.899309 C -126.67119 -66.899309 -123.42399 -65.628396 -120.12977 -63.087138 C -120.97686 -61.298846 -121.4005 -59.134219 -121.4005 -56.592961 C -121.4005 -53.5811 -120.50626 -51.13422 -118.71797 -49.251807 C -116.83556 -47.369394 -114.05895 -46.428207 -110.38825 -46.428207 C -102.29387 -46.428207 -98.24687 -52.028372 -98.24687 -63.228732 C -98.24687 -69.346575 -100.22316 -74.099466 -104.17622 -77.48781 C -108.03517 -80.876154 -113.54142 -82.570187 -120.6946 -82.570187 L -120.6946 -91.323658 C -106.85886 -92.453106 -99.940823 -98.429436 -99.940823 -109.25331 C -99.940823 -114.71231 -100.7881 -118.71287 -102.48227 -121.25413 C -104.17644 -123.88951 -106.48245 -125.20686 -109.40019 -125.20686 C -112.88266 -125.20686 -115.51788 -123.98342 -117.30617 -121.53628 C -119.00034 -119.08915 -119.84762 -116.1242 -119.84762 -112.64174 C -119.84762 -109.53575 -119.18868 -106.75915 -117.87099 -104.31201 C -120.50637 -101.48839 -123.89444 -100.07661 -128.03575 -100.07661 C -131.80058 -100.07661 -134.71857 -101.20614 -136.78922 -103.46504 C -138.85987 -105.72393 -139.89497 -108.64192 -139.89497 -112.21851 C -139.89497 -116.92454 -138.29485 -120.83016 -135.09475 -123.93614 C -131.80053 -127.13624 -127.75353 -129.48921 -122.95337 -130.99514 C -118.0591 -132.50107 -113.25925 -133.25443 -108.55322 -133.25443 z M -34.009447 -132.97176 C -22.809088 -132.97176 -14.243976 -129.86595 -8.3143745 -123.65398 C -2.2906518 -117.44202 0.72124969 -108.45327 0.72124969 -96.688188 C 0.72124969 -81.911243 -3.890773 -69.299132 -13.114598 -58.851738 C -22.244303 -48.498465 -35.515349 -40.875057 -52.927672 -35.980782 L -56.316096 -43.039783 C -46.904029 -47.086972 -39.327061 -52.2635 -33.5857 -58.569585 C -27.84434 -64.96979 -24.032636 -72.405373 -22.150222 -80.876233 C -27.42098 -78.240855 -32.550552 -76.922986 -37.538947 -76.922986 C -46.951014 -76.922986 -54.386597 -79.464294 -59.845596 -84.54681 C -65.210474 -89.629326 -67.893167 -96.500404 -67.893167 -105.15951 C -67.893167 -110.52438 -66.48087 -115.32423 -63.65725 -119.55966 C -60.739509 -123.79509 -56.739465 -127.08924 -51.656949 -129.44226 C -46.480312 -131.79528 -40.597894 -132.97176 -34.009447 -132.97176 z M -34.856424 -123.23024 C -38.903612 -123.23024 -42.009943 -121.67759 -44.174718 -118.57161 C -46.339493 -115.46562 -47.421548 -111.04194 -47.421548 -105.30058 C -47.421548 -99.465101 -46.245064 -94.900034 -43.892048 -91.605811 C -41.444911 -88.405708 -38.009372 -86.805587 -33.5857 -86.805587 C -29.726753 -86.805587 -25.444456 -88.405708 -20.738422 -91.605811 L -20.738422 -93.441358 C -20.738422 -103.70051 -21.86795 -111.23001 -24.126846 -116.03016 C -26.385742 -120.83031 -29.962149 -123.23024 -34.856424 -123.23024 z " /></g></svg>
