<?xml version="1.0" encoding="UTF-8" standalone="no"?>
<!-- Created with Inkscape (http://www.inkscape.org/) -->

<svg
   width="172.6701mm"
   height="172.6701mm"
   viewBox="0 0 172.6701 172.6701"
   version="1.1"
   id="svg1"
   xml:space="preserve"
   xmlns="http://www.w3.org/2000/svg"
   xmlns:svg="http://www.w3.org/2000/svg"><defs
     id="defs1" /><g
     id="layer1"
     transform="translate(157.25102,198.81012)"><path
       id="path5"
       style="fill:#ffffff;fill-opacity:1;stroke-width:0.805188;stroke-linecap:round;stroke-linejoin:round"
       d="M -2.0863309 -198.17657 L -10.088943 -183.11289 L -10.930235 -165.68398 L -19.198981 -165.68398 L -11.423229 -155.47426 L -12.166336 -140.07934 C -28.353216 -157.12094 -50.823548 -166.77435 -74.327399 -166.78417 C -103.64471 -166.77397 -130.92652 -151.79225 -146.66717 -127.05894 L -157.25102 -127.05894 L -149.61996 -115.86014 L -157.25102 -26.140039 L -8.5138455 -26.140039 L 15.419061 -26.140039 L 8.0799737 -154.80195 L 15.419061 -165.68398 L 7.4593397 -165.68398 L 6.4490654 -183.39297 L -2.0863309 -198.17657 z M -83.43072 -192.21621 C -85.584619 -189.65499 -86.77489 -186.4211 -86.795372 -183.07465 C -86.842092 -175.15518 -80.459903 -168.69733 -72.540428 -168.65072 C -64.621155 -168.60402 -58.163395 -174.98588 -58.116503 -182.90515 C -58.102813 -186.26049 -59.266203 -189.5144 -61.404157 -192.10045 C -60.83125 -190.6836 -60.536835 -189.16959 -60.537027 -187.64129 C -60.575787 -181.07411 -65.930869 -175.78172 -72.498054 -175.82031 C -79.065241 -175.85911 -84.357627 -181.21415 -84.319038 -187.78134 C -84.309338 -189.30285 -84.007827 -190.80837 -83.43072 -192.21621 z M -92.087039 -146.44381 C -85.197862 -146.44381 -79.103801 -145.27807 -73.804434 -142.94635 C -68.505067 -140.72061 -64.371286 -137.5409 -61.40364 -133.40739 C -58.435995 -129.37988 -56.952233 -124.71692 -56.952233 -119.41755 C -56.952233 -113.48226 -58.701359 -108.39441 -62.198941 -104.15492 C -65.696523 -99.915422 -70.889692 -96.68305 -77.778868 -94.457316 C -69.087907 -92.549544 -62.993845 -89.423008 -59.496263 -85.077527 C -55.998681 -80.732046 -54.249555 -74.849656 -54.249555 -67.430542 C -54.249555 -60.965315 -56.210352 -55.454123 -60.131883 -50.896668 C -63.947428 -46.339212 -68.928925 -42.947312 -75.076191 -40.721578 C -81.223456 -38.495844 -87.582881 -37.383281 -94.154096 -37.383281 C -103.69296 -37.383281 -111.80099 -39.344078 -118.47819 -43.265609 C -125.04941 -47.18714 -128.33496 -52.539321 -128.33496 -59.32251 C -128.33496 -63.244042 -127.16922 -66.264743 -124.83749 -68.384489 C -122.50577 -70.610223 -119.59091 -71.722787 -116.09333 -71.722787 C -112.48976 -71.722787 -108.83301 -70.2922 -105.12345 -67.430542 C -106.07734 -65.416783 -106.55437 -62.978952 -106.55437 -60.117294 C -106.55437 -56.725699 -105.54764 -53.970361 -103.53389 -51.850615 C -101.41414 -49.730868 -98.287602 -48.670964 -94.154096 -48.670964 C -85.039185 -48.670964 -80.481546 -54.977213 -80.481546 -67.589706 C -80.481546 -74.478883 -82.707189 -79.831063 -87.158658 -83.646607 C -91.504138 -87.462151 -97.704552 -89.369772 -105.75959 -89.369772 L -105.75959 -99.226534 C -90.179451 -100.49838 -82.38944 -107.22901 -82.38944 -119.41755 C -82.38944 -125.56482 -83.342992 -130.06928 -85.250764 -132.93094 C -87.158536 -135.89858 -89.755378 -137.38234 -93.040986 -137.38234 C -96.962517 -137.38234 -99.930042 -136.00442 -101.9438 -133.24875 C -103.85157 -130.49308 -104.80564 -127.15435 -104.80564 -123.23282 C -104.80564 -119.73524 -104.06376 -116.6087 -102.57994 -113.85303 C -105.54758 -110.67341 -109.36334 -109.0833 -114.02678 -109.0833 C -118.26628 -109.0833 -121.55183 -110.35539 -123.88355 -112.89908 C -126.21527 -115.44278 -127.38101 -118.72833 -127.38101 -122.75585 C -127.38101 -128.05521 -125.57922 -132.45384 -121.97565 -135.95142 C -118.2661 -139.55499 -113.70846 -142.2045 -108.3031 -143.90029 C -102.79176 -145.59609 -97.386406 -146.44381 -92.087039 -146.44381 z M -26.110187 -111.94514 C -22.400631 -111.94514 -19.644777 -110.83257 -17.842992 -108.60684 C -15.93522 -106.48709 -14.981668 -103.51905 -14.981668 -99.703508 C -14.981668 -95.887964 -15.93522 -92.920439 -17.842992 -90.800692 C -19.644777 -88.680945 -22.400631 -87.621041 -26.110187 -87.621041 C -29.819744 -87.621041 -32.628258 -88.680945 -34.53603 -90.800692 C -36.337814 -93.026426 -37.238707 -95.993951 -37.238707 -99.703508 C -37.238707 -103.62504 -36.337814 -106.64574 -34.53603 -108.76549 C -32.628258 -110.88523 -29.819744 -111.94514 -26.110187 -111.94514 z M -26.110187 -61.866024 C -22.400631 -61.866024 -19.644777 -60.753461 -17.842992 -58.527727 C -15.93522 -56.40798 -14.981668 -53.439938 -14.981668 -49.624394 C -14.981668 -45.80885 -15.93522 -42.841325 -17.842992 -40.721578 C -19.644777 -38.601832 -22.400631 -37.541927 -26.110187 -37.541927 C -29.819744 -37.541927 -32.628258 -38.601832 -34.53603 -40.721578 C -36.337814 -42.947312 -37.238707 -45.914837 -37.238707 -49.624394 C -37.238707 -53.545925 -36.337814 -56.566627 -34.53603 -58.686373 C -32.628258 -60.80612 -29.819744 -61.866024 -26.110187 -61.866024 z " /></g></svg>
