<?xml version="1.0" encoding="UTF-8" standalone="no"?>
<!-- Created with Inkscape (http://www.inkscape.org/) -->

<svg
   width="172.6701mm"
   height="172.6701mm"
   viewBox="0 0 172.6701 172.6701"
   version="1.1"
   id="svg1"
   xml:space="preserve"
   xmlns="http://www.w3.org/2000/svg"
   xmlns:svg="http://www.w3.org/2000/svg"><defs
     id="defs1" /><g
     id="layer1"
     transform="translate(157.25102,198.81012)"><path
       id="path5"
       style="fill:#ffffff;fill-opacity:1;stroke-width:0.805188;stroke-linecap:round;stroke-linejoin:round"
       d="M -2.0863309 -198.17657 L -10.088943 -183.11289 L -10.930235 -165.68398 L -19.198981 -165.68398 L -11.423229 -155.47426 L -12.166336 -140.07934 C -28.353216 -157.12094 -50.823548 -166.77435 -74.327399 -166.78417 C -103.64471 -166.77397 -130.92652 -151.79225 -146.66717 -127.05894 L -157.25102 -127.05894 L -149.61996 -115.86014 L -157.25102 -26.140039 L -8.5138455 -26.140039 L 15.419061 -26.140039 L 8.0799737 -154.80195 L 15.419061 -165.68398 L 7.4593397 -165.68398 L 6.4490654 -183.39297 L -2.0863309 -198.17657 z M -83.43072 -192.21621 C -85.584619 -189.65499 -86.77489 -186.4211 -86.795372 -183.07465 C -86.842092 -175.15518 -80.459903 -168.69733 -72.540428 -168.65072 C -64.621155 -168.60402 -58.163395 -174.98588 -58.116503 -182.90515 C -58.102813 -186.26049 -59.266203 -189.5144 -61.404157 -192.10045 C -60.83125 -190.6836 -60.536835 -189.16959 -60.537027 -187.64129 C -60.575787 -181.07411 -65.930869 -175.78172 -72.498054 -175.82031 C -79.065241 -175.85911 -84.357627 -181.21415 -84.319038 -187.78134 C -84.309338 -189.30285 -84.007827 -190.80837 -83.43072 -192.21621 z M -127.57169 -119.73381 C -123.88712 -119.73381 -120.62777 -119.11073 -117.79348 -117.86364 C -114.95919 -116.67324 -112.74853 -114.97237 -111.16133 -112.76163 C -109.57413 -110.60757 -108.78059 -108.11368 -108.78059 -105.27939 C -108.78059 -102.10499 -109.71599 -99.384015 -111.58662 -97.116586 C -113.45725 -94.849156 -116.23488 -93.120223 -119.91945 -91.929822 C -115.27122 -90.909479 -112.01186 -89.237189 -110.14123 -86.913074 C -108.2706 -84.588959 -107.3352 -81.442892 -107.3352 -77.474891 C -107.3352 -74.017061 -108.38389 -71.069506 -110.48126 -68.632019 C -112.52195 -66.194533 -115.18577 -64.380375 -118.47354 -63.189974 C -121.76131 -61.999574 -125.16254 -61.404554 -128.67705 -61.404554 C -133.77877 -61.404554 -138.11539 -62.453243 -141.6866 -64.550615 C -145.20111 -66.647987 -146.95862 -69.510317 -146.95862 -73.138204 C -146.95862 -75.235577 -146.33502 -76.851222 -145.08794 -77.984937 C -143.84085 -79.175337 -142.28185 -79.770358 -140.41122 -79.770358 C -138.48391 -79.770358 -136.5284 -79.005405 -134.5444 -77.474891 C -135.05457 -76.397862 -135.30921 -75.094016 -135.30921 -73.563501 C -135.30921 -71.749558 -134.77083 -70.275781 -133.6938 -69.142066 C -132.56009 -68.008351 -130.8878 -67.441394 -128.67705 -67.441394 C -123.80208 -67.441394 -121.36484 -70.814037 -121.36484 -77.55964 C -121.36484 -81.244213 -122.5554 -84.10706 -124.9362 -86.147746 C -127.26031 -88.188433 -130.57631 -89.208541 -134.88443 -89.208541 L -134.88443 -94.480571 C -126.55162 -95.1608 -122.38493 -98.760535 -122.38493 -105.27939 C -122.38493 -108.56717 -122.89524 -110.97583 -123.91559 -112.50634 C -124.93593 -114.09354 -126.325 -114.88759 -128.08226 -114.88759 C -130.17963 -114.88759 -131.7667 -114.15071 -132.84372 -112.67688 C -133.86407 -111.20305 -134.37438 -109.41747 -134.37438 -107.3201 C -134.37438 -105.44947 -133.97736 -103.77718 -133.18376 -102.30335 C -134.77096 -100.60278 -136.81169 -99.752084 -139.30586 -99.752084 C -141.57329 -99.752084 -143.33029 -100.43233 -144.57737 -101.79279 C -145.82446 -103.15324 -146.44806 -104.91076 -146.44806 -107.06482 C -146.44806 -109.8991 -145.4846 -112.25164 -143.55728 -114.12227 C -141.57328 -116.04958 -139.13552 -117.46671 -136.24455 -118.37369 C -133.29689 -119.28066 -130.40598 -119.73381 -127.57169 -119.73381 z M -58.443614 -119.64906 C -51.811383 -119.64906 -46.73787 -117.15466 -43.223355 -112.16631 C -39.652153 -107.23465 -37.866576 -100.06428 -37.866576 -90.654448 C -37.866576 -81.244616 -39.652153 -74.017081 -43.223355 -68.97205 C -46.73787 -63.983706 -51.811383 -61.489303 -58.443614 -61.489303 C -65.075845 -61.489303 -70.177422 -63.983706 -73.748623 -68.97205 C -77.319825 -74.017081 -79.105402 -81.244616 -79.105402 -90.654448 C -79.105402 -100.00759 -77.319825 -107.17797 -73.748623 -112.16631 C -70.177422 -117.15466 -65.075845 -119.64906 -58.443614 -119.64906 z M -13.123383 -119.64906 C -6.4911523 -119.64906 -1.4176393 -117.15466 2.0968763 -112.16631 C 5.6680776 -107.23465 7.4536553 -100.06428 7.4536553 -90.654448 C 7.4536553 -81.244616 5.6680776 -74.017081 2.0968763 -68.97205 C -1.4176393 -63.983706 -6.4911523 -61.489303 -13.123383 -61.489303 C -19.755614 -61.489303 -24.857191 -63.983706 -28.428392 -68.97205 C -31.999594 -74.017081 -33.785171 -81.244616 -33.785171 -90.654448 C -33.785171 -100.00759 -31.999594 -107.17797 -28.428392 -112.16631 C -24.857191 -117.15466 -19.755614 -119.64906 -13.123383 -119.64906 z M -58.443614 -115.31237 C -61.334587 -115.31237 -63.431965 -113.41351 -64.735737 -109.61556 C -65.982823 -105.81762 -66.606424 -99.497422 -66.606424 -90.654448 C -66.606424 -81.868159 -65.982823 -75.576025 -64.735737 -71.778081 C -63.431965 -68.036822 -61.334587 -66.16602 -58.443614 -66.16602 C -55.552642 -66.16602 -53.483328 -68.036822 -52.236241 -71.778081 C -50.932469 -75.576025 -50.280805 -81.868159 -50.280805 -90.654448 C -50.280805 -99.440737 -50.932469 -105.73287 -52.236241 -109.53081 C -53.483328 -113.38544 -55.552642 -115.31237 -58.443614 -115.31237 z M -13.123383 -115.31237 C -16.014356 -115.31237 -18.111734 -113.41351 -19.415506 -109.61556 C -20.662592 -105.81762 -21.286193 -99.497422 -21.286193 -90.654448 C -21.286193 -81.868159 -20.662592 -75.576025 -19.415506 -71.778081 C -18.111734 -68.036822 -16.014356 -66.16602 -13.123383 -66.16602 C -10.232411 -66.16602 -8.1630964 -68.036822 -6.9160102 -71.778081 C -5.6122383 -75.576025 -4.960574 -81.868159 -4.960574 -90.654448 C -4.960574 -99.440737 -5.6122383 -105.73287 -6.9160102 -109.53081 C -8.1630964 -113.38544 -10.232411 -115.31237 -13.123383 -115.31237 z M -92.28496 -101.28274 C -90.300959 -101.28274 -88.827182 -100.68772 -87.863524 -99.497319 C -86.843181 -98.363604 -86.332868 -96.776539 -86.332868 -94.735852 C -86.332868 -92.695166 -86.843181 -91.107584 -87.863524 -89.973869 C -88.827182 -88.840154 -90.300959 -88.273198 -92.28496 -88.273198 C -94.26896 -88.273198 -95.771318 -88.840154 -96.791661 -89.973869 C -97.755319 -91.16427 -98.237051 -92.751852 -98.237051 -94.735852 C -98.237051 -96.833225 -97.755319 -98.448354 -96.791661 -99.582068 C -95.771318 -100.71578 -94.26896 -101.28274 -92.28496 -101.28274 z M -92.28496 -74.498845 C -90.300959 -74.498845 -88.827182 -73.903824 -87.863524 -72.713424 C -86.843181 -71.579709 -86.332868 -69.992127 -86.332868 -67.951441 C -86.332868 -65.910754 -86.843181 -64.323689 -87.863524 -63.189974 C -88.827182 -62.05626 -90.300959 -61.489303 -92.28496 -61.489303 C -94.26896 -61.489303 -95.771318 -62.05626 -96.791661 -63.189974 C -97.755319 -64.380375 -98.237051 -65.96744 -98.237051 -67.951441 C -98.237051 -70.048813 -97.755319 -71.664459 -96.791661 -72.798173 C -95.771318 -73.931888 -94.26896 -74.498845 -92.28496 -74.498845 z " /></g></svg>
