<?xml version="1.0" encoding="UTF-8" standalone="no"?>
<!-- Created with Inkscape (http://www.inkscape.org/) -->

<svg
   width="172.6701mm"
   height="172.6701mm"
   viewBox="0 0 172.6701 172.6701"
   version="1.1"
   id="svg1"
   xml:space="preserve"
   xmlns="http://www.w3.org/2000/svg"
   xmlns:svg="http://www.w3.org/2000/svg"><defs
     id="defs1" /><g
     id="layer1"
     transform="translate(157.25102,198.81012)"><path
       id="path5"
       style="fill:#ffffff;fill-opacity:1;stroke-width:0.805188;stroke-linecap:round;stroke-linejoin:round"
       d="M -2.0863309 -198.17657 L -10.088943 -183.11289 L -10.930235 -165.68398 L -19.198981 -165.68398 L -11.423229 -155.47426 L -12.166336 -140.07934 C -28.353216 -157.12094 -50.823548 -166.77435 -74.327399 -166.78417 C -103.64471 -166.77397 -130.92652 -151.79225 -146.66717 -127.05894 L -157.25102 -127.05894 L -149.61996 -115.86014 L -157.25102 -26.140039 L -8.5138455 -26.140039 L 15.419061 -26.140039 L 8.0799737 -154.80195 L 15.419061 -165.68398 L 7.4593397 -165.68398 L 6.4490654 -183.39297 L -2.0863309 -198.17657 z M -83.43072 -192.21621 C -85.584619 -189.65499 -86.77489 -186.4211 -86.795372 -183.07465 C -86.842092 -175.15518 -80.459903 -168.69733 -72.540428 -168.65072 C -64.621155 -168.60402 -58.163395 -174.98588 -58.116503 -182.90515 C -58.102813 -186.26049 -59.266203 -189.5144 -61.404157 -192.10045 C -60.83125 -190.6836 -60.536835 -189.16959 -60.537027 -187.64129 C -60.575787 -181.07411 -65.930869 -175.78172 -72.498054 -175.82031 C -79.065241 -175.85911 -84.357627 -181.21415 -84.319038 -187.78134 C -84.309338 -189.30285 -84.007827 -190.80837 -83.43072 -192.21621 z M -124.38326 -119.73381 C -120.69869 -119.73381 -117.43933 -119.11073 -114.60504 -117.86364 C -111.77076 -116.67324 -109.56009 -114.97237 -107.97289 -112.76163 C -106.38569 -110.60757 -105.59216 -108.11368 -105.59216 -105.27939 C -105.59216 -102.10499 -106.52704 -99.384015 -108.39767 -97.116586 C -110.2683 -94.849156 -113.04592 -93.120223 -116.7305 -91.929822 C -112.08227 -90.909479 -108.82291 -89.237189 -106.95228 -86.913074 C -105.08165 -84.588959 -104.14625 -81.442892 -104.14625 -77.474891 C -104.14625 -74.017061 -105.19494 -71.069506 -107.29231 -68.632019 C -109.333 -66.194533 -111.99733 -64.380375 -115.28511 -63.189974 C -118.57288 -61.999574 -121.9741 -61.404554 -125.48862 -61.404554 C -130.59033 -61.404554 -134.92696 -62.453243 -138.49816 -64.550615 C -142.01268 -66.647987 -143.76967 -69.510317 -143.76967 -73.138204 C -143.76967 -75.235577 -143.14607 -76.851222 -141.89899 -77.984937 C -140.6519 -79.175337 -139.09341 -79.770358 -137.22279 -79.770358 C -135.29547 -79.770358 -133.33944 -79.005405 -131.35544 -77.474891 C -131.86561 -76.397862 -132.12077 -75.094016 -132.12077 -73.563501 C -132.12077 -71.749558 -131.58239 -70.275781 -130.50537 -69.142066 C -129.37165 -68.008351 -127.69936 -67.441394 -125.48862 -67.441394 C -120.61364 -67.441394 -118.1764 -70.814037 -118.1764 -77.55964 C -118.1764 -81.244213 -119.36644 -84.10706 -121.74724 -86.147746 C -124.07136 -88.188433 -127.38736 -89.208541 -131.69547 -89.208541 L -131.69547 -94.480571 C -123.36267 -95.1608 -119.1965 -98.760535 -119.1965 -105.27939 C -119.1965 -108.56717 -119.70681 -110.97583 -120.72715 -112.50634 C -121.74749 -114.09354 -123.13605 -114.88759 -124.89331 -114.88759 C -126.99068 -114.88759 -128.57774 -114.15071 -129.65477 -112.67688 C -130.67511 -111.20305 -131.18543 -109.41747 -131.18543 -107.3201 C -131.18543 -105.44947 -130.78892 -103.77718 -129.99532 -102.30335 C -131.58252 -100.60278 -133.62325 -99.752084 -136.11743 -99.752084 C -138.38486 -99.752084 -140.14185 -100.43233 -141.38894 -101.79279 C -142.63603 -103.15324 -143.25963 -104.91076 -143.25963 -107.06482 C -143.25963 -109.8991 -142.29616 -112.25164 -140.36885 -114.12227 C -138.38485 -116.04958 -135.94709 -117.46671 -133.05611 -118.37369 C -130.10846 -119.28066 -127.21755 -119.73381 -124.38326 -119.73381 z M -55.255179 -119.64906 C -48.622948 -119.64906 -43.549434 -117.15466 -40.034919 -112.16631 C -36.463718 -107.23465 -34.67814 -100.06428 -34.67814 -90.654448 C -34.67814 -81.244616 -36.463718 -74.017081 -40.034919 -68.97205 C -43.549434 -63.983706 -48.622948 -61.489303 -55.255179 -61.489303 C -61.88741 -61.489303 -66.988986 -63.983706 -70.560187 -68.97205 C -74.131389 -74.017081 -75.916966 -81.244616 -75.916966 -90.654448 C -75.916966 -100.00759 -74.131389 -107.17797 -70.560187 -112.16631 C -66.988986 -117.15466 -61.88741 -119.64906 -55.255179 -119.64906 z M -9.1696194 -119.13901 L -6.3635892 -117.86364 L -6.3635892 -68.716769 C -5.2865602 -68.093226 -3.5856902 -67.526269 -1.261575 -67.016097 C 1.0625401 -66.562611 2.9047618 -66.279392 4.2652194 -66.16602 L 4.0099378 -62.084615 L -30.681485 -62.084615 L -30.511469 -66.16602 C -25.466439 -66.732877 -21.612064 -67.583054 -18.947834 -68.716769 L -18.947834 -109.44555 L -30.341454 -109.44555 L -30.341454 -114.37703 C -26.713567 -114.66046 -22.972479 -115.19935 -19.117849 -115.99295 C -15.263219 -116.84324 -11.94722 -117.89193 -9.1696194 -119.13901 z M -55.255179 -115.31237 C -58.146151 -115.31237 -60.243529 -113.41351 -61.547301 -109.61556 C -62.794387 -105.81762 -63.417471 -99.497422 -63.417471 -90.654448 C -63.417471 -81.868159 -62.794387 -75.576025 -61.547301 -71.778081 C -60.243529 -68.036822 -58.146151 -66.16602 -55.255179 -66.16602 C -52.364206 -66.16602 -50.294892 -68.036822 -49.047805 -71.778081 C -47.744034 -75.576025 -47.092369 -81.868159 -47.092369 -90.654448 C -47.092369 -99.440737 -47.744034 -105.73287 -49.047805 -109.53081 C -50.294892 -113.38544 -52.364206 -115.31237 -55.255179 -115.31237 z M -89.096524 -101.28274 C -87.112523 -101.28274 -85.638746 -100.68772 -84.675088 -99.497319 C -83.654745 -98.363604 -83.144432 -96.776539 -83.144432 -94.735852 C -83.144432 -92.695166 -83.654745 -91.107584 -84.675088 -89.973869 C -85.638746 -88.840154 -87.112523 -88.273198 -89.096524 -88.273198 C -91.080524 -88.273198 -92.582365 -88.840154 -93.602709 -89.973869 C -94.566366 -91.16427 -95.048615 -92.751852 -95.048615 -94.735852 C -95.048615 -96.833225 -94.566366 -98.448354 -93.602709 -99.582068 C -92.582365 -100.71578 -91.080524 -101.28274 -89.096524 -101.28274 z M -89.096524 -74.498845 C -87.112523 -74.498845 -85.638746 -73.903824 -84.675088 -72.713424 C -83.654745 -71.579709 -83.144432 -69.992127 -83.144432 -67.951441 C -83.144432 -65.910754 -83.654745 -64.323689 -84.675088 -63.189974 C -85.638746 -62.05626 -87.112523 -61.489303 -89.096524 -61.489303 C -91.080524 -61.489303 -92.582365 -62.05626 -93.602709 -63.189974 C -94.566366 -64.380375 -95.048615 -65.96744 -95.048615 -67.951441 C -95.048615 -70.048813 -94.566366 -71.664459 -93.602709 -72.798173 C -92.582365 -73.931888 -91.080524 -74.498845 -89.096524 -74.498845 z " /></g></svg>
