<?xml version="1.0" encoding="UTF-8" standalone="no"?>
<!-- Created with Inkscape (http://www.inkscape.org/) -->

<svg
   width="172.6701mm"
   height="172.6701mm"
   viewBox="0 0 172.6701 172.6701"
   version="1.1"
   id="svg1"
   xml:space="preserve"
   xmlns="http://www.w3.org/2000/svg"
   xmlns:svg="http://www.w3.org/2000/svg"><defs
     id="defs1" /><g
     id="layer1"
     transform="translate(157.25102,198.81012)"><path
       id="path5"
       style="fill:#ffffff;fill-opacity:1;stroke-width:0.805188;stroke-linecap:round;stroke-linejoin:round"
       d="M -2.0863309 -198.17657 L -10.088943 -183.11289 L -10.930235 -165.68398 L -19.198981 -165.68398 L -11.423229 -155.47426 L -12.166336 -140.07934 C -28.353216 -157.12094 -50.823548 -166.77435 -74.327399 -166.78417 C -103.64471 -166.77397 -130.92652 -151.79225 -146.66717 -127.05894 L -157.25102 -127.05894 L -149.61996 -115.86014 L -157.25102 -26.140039 L -8.5138455 -26.140039 L 15.419061 -26.140039 L 8.0799737 -154.80195 L 15.419061 -165.68398 L 7.4593397 -165.68398 L 6.4490654 -183.39297 L -2.0863309 -198.17657 z M -83.43072 -192.21621 C -85.584619 -189.65499 -86.77489 -186.4211 -86.795372 -183.07465 C -86.842092 -175.15518 -80.459903 -168.69733 -72.540428 -168.65072 C -64.621155 -168.60402 -58.163395 -174.98588 -58.116503 -182.90515 C -58.102813 -186.26049 -59.266203 -189.5144 -61.404157 -192.10045 C -60.83125 -190.6836 -60.536835 -189.16959 -60.537027 -187.64129 C -60.575787 -181.07411 -65.930869 -175.78172 -72.498054 -175.82031 C -79.065241 -175.85911 -84.357627 -181.21415 -84.319038 -187.78134 C -84.309338 -189.30285 -84.007827 -190.80837 -83.43072 -192.21621 z M -126.50871 -119.73381 C -122.82414 -119.73381 -119.56478 -119.11073 -116.7305 -117.86364 C -113.89621 -116.67324 -111.68554 -114.97237 -110.09834 -112.76163 C -108.51114 -110.60757 -107.71761 -108.11368 -107.71761 -105.27939 C -107.71761 -102.10499 -108.65301 -99.384015 -110.52364 -97.116586 C -112.39427 -94.849156 -115.17189 -93.120223 -118.85646 -91.929822 C -114.20823 -90.909479 -110.94888 -89.237189 -109.07825 -86.913074 C -107.20762 -84.588959 -106.27222 -81.442892 -106.27222 -77.474891 C -106.27222 -74.017061 -107.32091 -71.069506 -109.41828 -68.632019 C -111.45897 -66.194533 -114.1233 -64.380375 -117.41107 -63.189974 C -120.69885 -61.999574 -124.09955 -61.404554 -127.61407 -61.404554 C -132.71579 -61.404554 -137.05241 -62.453243 -140.62361 -64.550615 C -144.13813 -66.647987 -145.89564 -69.510317 -145.89564 -73.138204 C -145.89564 -75.235577 -145.27204 -76.851222 -144.02495 -77.984937 C -142.77787 -79.175337 -141.21887 -79.770358 -139.34824 -79.770358 C -137.42092 -79.770358 -135.46541 -79.005405 -133.48141 -77.474891 C -133.99158 -76.397862 -134.24674 -75.094016 -134.24674 -73.563501 C -134.24674 -71.749558 -133.70785 -70.275781 -132.63082 -69.142066 C -131.4971 -68.008351 -129.82481 -67.441394 -127.61407 -67.441394 C -122.7391 -67.441394 -120.30185 -70.814037 -120.30185 -77.55964 C -120.30185 -81.244213 -121.49241 -84.10706 -123.87321 -86.147746 C -126.19733 -88.188433 -129.51333 -89.208541 -133.82144 -89.208541 L -133.82144 -94.480571 C -125.48864 -95.1608 -121.32195 -98.760535 -121.32195 -105.27939 C -121.32195 -108.56717 -121.83226 -110.97583 -122.8526 -112.50634 C -123.87295 -114.09354 -125.26202 -114.88759 -127.01927 -114.88759 C -129.11665 -114.88759 -130.70371 -114.15071 -131.78074 -112.67688 C -132.80108 -111.20305 -133.3114 -109.41747 -133.3114 -107.3201 C -133.3114 -105.44947 -132.91437 -103.77718 -132.12077 -102.30335 C -133.70797 -100.60278 -135.74871 -99.752084 -138.24288 -99.752084 C -140.51031 -99.752084 -142.2673 -100.43233 -143.51439 -101.79279 C -144.76148 -103.15324 -145.38508 -104.91076 -145.38508 -107.06482 C -145.38508 -109.8991 -144.42161 -112.25164 -142.4943 -114.12227 C -140.5103 -116.04958 -138.07306 -117.46671 -135.18208 -118.37369 C -132.23442 -119.28066 -129.343 -119.73381 -126.50871 -119.73381 z M -14.185851 -119.73381 C -10.501278 -119.73381 -7.241923 -119.11073 -4.4076362 -117.86364 C -1.5733495 -116.67324 0.63731653 -114.97237 2.2245171 -112.76163 C 3.8117177 -110.60757 4.6052503 -108.11368 4.6052503 -105.27939 C 4.6052503 -102.10499 3.6698493 -99.384015 1.7992201 -97.116586 C -0.071409186 -94.849156 -2.8490319 -93.120223 -6.5336046 -91.929822 C -1.8853744 -90.909479 1.3739806 -89.237189 3.2446099 -86.913074 C 5.1152391 -84.588959 6.0506402 -81.442892 6.0506402 -77.474891 C 6.0506402 -74.017061 5.0019512 -71.069506 2.904579 -68.632019 C 0.8638925 -66.194533 -1.8004422 -64.380375 -5.0882148 -63.189974 C -8.3759875 -61.999574 -11.776694 -61.404554 -15.29121 -61.404554 C -20.392926 -61.404554 -24.72955 -62.453243 -28.300751 -64.550615 C -31.815267 -66.647987 -33.572781 -69.510317 -33.572781 -73.138204 C -33.572781 -75.235577 -32.94918 -76.851222 -31.702094 -77.984937 C -30.455008 -79.175337 -28.896006 -79.770358 -27.025377 -79.770358 C -25.098062 -79.770358 -23.142552 -79.005405 -21.158552 -77.474891 C -21.668723 -76.397862 -21.92388 -75.094016 -21.92388 -73.563501 C -21.92388 -71.749558 -21.384987 -70.275781 -20.307958 -69.142066 C -19.174243 -68.008351 -17.501953 -67.441394 -15.29121 -67.441394 C -10.416236 -67.441394 -7.9789944 -70.814037 -7.9789944 -77.55964 C -7.9789944 -81.244213 -9.1695518 -84.10706 -11.550353 -86.147746 C -13.874468 -88.188433 -17.190467 -89.208541 -21.498583 -89.208541 L -21.498583 -94.480571 C -13.16578 -95.1608 -8.9990872 -98.760535 -8.9990872 -105.27939 C -8.9990872 -108.56717 -9.5093999 -110.97583 -10.529743 -112.50634 C -11.550086 -114.09354 -12.939156 -114.88759 -14.696414 -114.88759 C -16.793786 -114.88759 -18.380851 -114.15071 -19.45788 -112.67688 C -20.478224 -111.20305 -20.988536 -109.41747 -20.988536 -107.3201 C -20.988536 -105.44947 -20.591512 -103.77718 -19.797911 -102.30335 C -21.385112 -100.60278 -23.425846 -99.752084 -25.920018 -99.752084 C -28.187448 -99.752084 -29.944445 -100.43233 -31.191531 -101.79279 C -32.438617 -103.15324 -33.062218 -104.91076 -33.062218 -107.06482 C -33.062218 -109.8991 -32.098753 -112.25164 -30.171438 -114.12227 C -28.187438 -116.04958 -25.750196 -117.46671 -22.859223 -118.37369 C -19.911565 -119.28066 -17.020137 -119.73381 -14.185851 -119.73381 z M -57.38063 -119.64906 C -50.748399 -119.64906 -45.674886 -117.15466 -42.160371 -112.16631 C -38.589169 -107.23465 -36.803592 -100.06428 -36.803592 -90.654448 C -36.803592 -81.244616 -38.589169 -74.017081 -42.160371 -68.97205 C -45.674886 -63.983706 -50.748399 -61.489303 -57.38063 -61.489303 C -64.012861 -61.489303 -69.114438 -63.983706 -72.685639 -68.97205 C -76.25684 -74.017081 -78.042418 -81.244616 -78.042418 -90.654448 C -78.042418 -100.00759 -76.25684 -107.17797 -72.685639 -112.16631 C -69.114438 -117.15466 -64.012861 -119.64906 -57.38063 -119.64906 z M -57.38063 -115.31237 C -60.271603 -115.31237 -62.368981 -113.41351 -63.672753 -109.61556 C -64.919839 -105.81762 -65.543439 -99.497422 -65.543439 -90.654448 C -65.543439 -81.868159 -64.919839 -75.576025 -63.672753 -71.778081 C -62.368981 -68.036822 -60.271603 -66.16602 -57.38063 -66.16602 C -54.489658 -66.16602 -52.42086 -68.036822 -51.173774 -71.778081 C -49.870002 -75.576025 -49.217821 -81.868159 -49.217821 -90.654448 C -49.217821 -99.440737 -49.870002 -105.73287 -51.173774 -109.53081 C -52.42086 -113.38544 -54.489658 -115.31237 -57.38063 -115.31237 z M -91.221975 -101.28274 C -89.237975 -101.28274 -87.764197 -100.68772 -86.80054 -99.497319 C -85.780197 -98.363604 -85.269884 -96.776539 -85.269884 -94.735852 C -85.269884 -92.695166 -85.780197 -91.107584 -86.80054 -89.973869 C -87.764197 -88.840154 -89.237975 -88.273198 -91.221975 -88.273198 C -93.205976 -88.273198 -94.708334 -88.840154 -95.728677 -89.973869 C -96.692335 -91.16427 -97.174067 -92.751852 -97.174067 -94.735852 C -97.174067 -96.833225 -96.692335 -98.448354 -95.728677 -99.582068 C -94.708334 -100.71578 -93.205976 -101.28274 -91.221975 -101.28274 z M -91.221975 -74.498845 C -89.237975 -74.498845 -87.764197 -73.903824 -86.80054 -72.713424 C -85.780197 -71.579709 -85.269884 -69.992127 -85.269884 -67.951441 C -85.269884 -65.910754 -85.780197 -64.323689 -86.80054 -63.189974 C -87.764197 -62.05626 -89.237975 -61.489303 -91.221975 -61.489303 C -93.205976 -61.489303 -94.708334 -62.05626 -95.728677 -63.189974 C -96.692335 -64.380375 -97.174067 -65.96744 -97.174067 -67.951441 C -97.174067 -70.048813 -96.692335 -71.664459 -95.728677 -72.798173 C -94.708334 -73.931888 -93.205976 -74.498845 -91.221975 -74.498845 z " /></g></svg>
