<?xml version="1.0" encoding="UTF-8" standalone="no"?>
<!-- Created with Inkscape (http://www.inkscape.org/) -->

<svg
   width="172.6701mm"
   height="172.6701mm"
   viewBox="0 0 172.6701 172.6701"
   version="1.1"
   id="svg1"
   xml:space="preserve"
   xmlns="http://www.w3.org/2000/svg"
   xmlns:svg="http://www.w3.org/2000/svg"><defs
     id="defs1" /><g
     id="layer1"
     transform="translate(157.25102,198.81012)"><path
       id="path5"
       style="fill:#ffffff;fill-opacity:1;stroke-width:0.805188;stroke-linecap:round;stroke-linejoin:round"
       d="M -2.0863309 -198.17657 L -10.088943 -183.11289 L -10.930235 -165.68398 L -19.198981 -165.68398 L -11.423229 -155.47426 L -12.166336 -140.07934 C -28.353216 -157.12094 -50.823548 -166.77435 -74.327399 -166.78417 C -103.64471 -166.77397 -130.92652 -151.79225 -146.66717 -127.05894 L -157.25102 -127.05894 L -149.61996 -115.86014 L -157.25102 -26.140039 L -8.5138455 -26.140039 L 15.419061 -26.140039 L 8.0799737 -154.80195 L 15.419061 -165.68398 L 7.4593397 -165.68398 L 6.4490654 -183.39297 L -2.0863309 -198.17657 z M -83.43072 -192.21621 C -85.584619 -189.65499 -86.77489 -186.4211 -86.795372 -183.07465 C -86.842092 -175.15518 -80.459903 -168.69733 -72.540428 -168.65072 C -64.621155 -168.60402 -58.163395 -174.98588 -58.116503 -182.90515 C -58.102813 -186.26049 -59.266203 -189.5144 -61.404157 -192.10045 C -60.83125 -190.6836 -60.536835 -189.16959 -60.537027 -187.64129 C -60.575787 -181.07411 -65.930869 -175.78172 -72.498054 -175.82031 C -79.065241 -175.85911 -84.357627 -181.21415 -84.319038 -187.78134 C -84.309338 -189.30285 -84.007827 -190.80837 -83.43072 -192.21621 z M -4.7905586 -119.90383 L -2.7498563 -115.65241 C -14.200375 -110.72075 -21.087529 -103.12528 -23.411644 -92.865166 C -20.123872 -94.452366 -17.006385 -95.245899 -14.058727 -95.245899 C -8.3901532 -95.245899 -3.9402409 -93.715477 -0.70915395 -90.654448 C 2.5786187 -87.593418 4.222328 -83.455306 4.222328 -78.240218 C 4.222328 -75.009132 3.3440877 -72.118221 1.5868299 -69.567363 C -0.11374212 -67.016505 -2.5229205 -65.032415 -5.6406359 -63.615271 C -8.7016656 -62.198128 -12.216177 -61.489303 -16.184178 -61.489303 C -22.929781 -61.489303 -28.116582 -63.360105 -31.744469 -67.101363 C -35.31567 -70.842622 -37.101248 -76.255999 -37.101248 -83.341716 C -37.101248 -92.241376 -34.352206 -99.808775 -28.853689 -106.04421 C -23.298487 -112.33632 -15.27742 -116.95617 -4.7905586 -119.90383 z M -124.59565 -119.73381 C -120.91108 -119.73381 -117.65172 -119.11073 -114.81743 -117.86364 C -111.98315 -116.67324 -109.77248 -114.97237 -108.18528 -112.76163 C -106.59808 -110.60757 -105.80455 -108.11368 -105.80455 -105.27939 C -105.80455 -102.10499 -106.73995 -99.384015 -108.61058 -97.116586 C -110.48121 -94.849156 -113.25883 -93.120223 -116.9434 -91.929822 C -112.29517 -90.909479 -109.0353 -89.237189 -107.16467 -86.913074 C -105.29404 -84.588959 -104.35916 -81.442892 -104.35916 -77.474891 C -104.35916 -74.017061 -105.40785 -71.069506 -107.50522 -68.632019 C -109.54591 -66.194533 -112.20972 -64.380375 -115.4975 -63.189974 C -118.78527 -61.999574 -122.18649 -61.404554 -125.70101 -61.404554 C -130.80272 -61.404554 -135.13935 -62.453243 -138.71055 -64.550615 C -142.22507 -66.647987 -143.98206 -69.510317 -143.98206 -73.138204 C -143.98206 -75.235577 -143.35898 -76.851222 -142.11189 -77.984937 C -140.86481 -79.175337 -139.3058 -79.770358 -137.43518 -79.770358 C -135.50786 -79.770358 -133.55235 -79.005405 -131.56835 -77.474891 C -132.07852 -76.397862 -132.33316 -75.094016 -132.33316 -73.563501 C -132.33316 -71.749558 -131.79478 -70.275781 -130.71776 -69.142066 C -129.58404 -68.008351 -127.91175 -67.441394 -125.70101 -67.441394 C -120.82603 -67.441394 -118.38879 -70.814037 -118.38879 -77.55964 C -118.38879 -81.244213 -119.57935 -84.10706 -121.96015 -86.147746 C -124.28427 -88.188433 -127.60026 -89.208541 -131.90838 -89.208541 L -131.90838 -94.480571 C -123.57558 -95.1608 -119.40889 -98.760535 -119.40889 -105.27939 C -119.40889 -108.56717 -119.9192 -110.97583 -120.93954 -112.50634 C -121.95988 -114.09354 -123.34844 -114.88759 -125.1057 -114.88759 C -127.20307 -114.88759 -128.79065 -114.15071 -129.86768 -112.67688 C -130.88802 -111.20305 -131.39782 -109.41747 -131.39782 -107.3201 C -131.39782 -105.44947 -131.00131 -103.77718 -130.20771 -102.30335 C -131.79491 -100.60278 -133.83564 -99.752084 -136.32982 -99.752084 C -138.59725 -99.752084 -140.35424 -100.43233 -141.60133 -101.79279 C -142.84842 -103.15324 -143.47202 -104.91076 -143.47202 -107.06482 C -143.47202 -109.8991 -142.50855 -112.25164 -140.58124 -114.12227 C -138.59724 -116.04958 -136.15948 -117.46671 -133.2685 -118.37369 C -130.32085 -119.28066 -127.42994 -119.73381 -124.59565 -119.73381 z M -54.702241 -119.13901 L -51.89621 -117.86364 L -51.89621 -68.716769 C -50.819181 -68.093226 -49.118828 -67.526269 -46.794713 -67.016097 C -44.470598 -66.562611 -42.628376 -66.279392 -41.267919 -66.16602 L -41.522683 -62.084615 L -76.214623 -62.084615 L -76.044607 -66.16602 C -70.999577 -66.732877 -67.144685 -67.583054 -64.480455 -68.716769 L -64.480455 -109.44555 L -75.874592 -109.44555 L -75.874592 -114.37703 C -72.246705 -114.66046 -68.505101 -115.19935 -64.650471 -115.99295 C -60.795841 -116.84324 -57.479842 -117.89193 -54.702241 -119.13901 z M -89.308914 -101.28274 C -87.324913 -101.28274 -85.851136 -100.68772 -84.887478 -99.497319 C -83.867135 -98.363604 -83.356822 -96.776539 -83.356822 -94.735852 C -83.356822 -92.695166 -83.867135 -91.107584 -84.887478 -89.973869 C -85.851136 -88.840154 -87.324913 -88.273198 -89.308914 -88.273198 C -91.292915 -88.273198 -92.795272 -88.840154 -93.815616 -89.973869 C -94.779273 -91.16427 -95.261005 -92.751852 -95.261005 -94.735852 C -95.261005 -96.833225 -94.779273 -98.448354 -93.815616 -99.582068 C -92.795272 -100.71578 -91.292915 -101.28274 -89.308914 -101.28274 z M -16.43946 -89.293807 C -18.820261 -89.293807 -21.399371 -88.330343 -24.176972 -86.403028 L -24.176972 -85.297669 C -24.176972 -79.118924 -23.496727 -74.583787 -22.13627 -71.692814 C -20.775812 -68.801842 -18.62179 -67.356645 -15.674132 -67.356645 C -13.236645 -67.356645 -11.365843 -68.291529 -10.062071 -70.162159 C -8.7582995 -72.032788 -8.1066352 -74.697123 -8.1066352 -78.154952 C -8.1066352 -81.669468 -8.8435239 -84.390447 -10.317353 -86.317762 C -11.734496 -88.301762 -13.77523 -89.293807 -16.43946 -89.293807 z M -89.308914 -74.498845 C -87.324913 -74.498845 -85.851136 -73.903824 -84.887478 -72.713424 C -83.867135 -71.579709 -83.356822 -69.992127 -83.356822 -67.951441 C -83.356822 -65.910754 -83.867135 -64.323689 -84.887478 -63.189974 C -85.851136 -62.05626 -87.324913 -61.489303 -89.308914 -61.489303 C -91.292915 -61.489303 -92.795272 -62.05626 -93.815616 -63.189974 C -94.779273 -64.380375 -95.261005 -65.96744 -95.261005 -67.951441 C -95.261005 -70.048813 -94.779273 -71.664459 -93.815616 -72.798173 C -92.795272 -73.931888 -91.292915 -74.498845 -89.308914 -74.498845 z " /></g></svg>
