<?xml version="1.0" encoding="UTF-8" standalone="no"?>
<!-- Created with Inkscape (http://www.inkscape.org/) -->

<svg
   width="172.6701mm"
   height="172.6701mm"
   viewBox="0 0 172.6701 172.6701"
   version="1.1"
   id="svg1"
   xml:space="preserve"
   xmlns="http://www.w3.org/2000/svg"
   xmlns:svg="http://www.w3.org/2000/svg"><defs
     id="defs1" /><g
     id="layer1"
     transform="translate(157.25102,198.81012)"><path
       id="path5"
       style="fill:#ffffff;fill-opacity:1;stroke-width:0.805188;stroke-linecap:round;stroke-linejoin:round"
       d="M -2.0863309 -198.17657 L -10.088943 -183.11289 L -10.930235 -165.68398 L -19.198981 -165.68398 L -11.423229 -155.47426 L -12.166336 -140.07934 C -28.353216 -157.12094 -50.823548 -166.77435 -74.327399 -166.78417 C -103.64471 -166.77397 -130.92652 -151.79225 -146.66717 -127.05894 L -157.25102 -127.05894 L -149.61996 -115.86014 L -157.25102 -26.140039 L -8.5138455 -26.140039 L 15.419061 -26.140039 L 8.0799737 -154.80195 L 15.419061 -165.68398 L 7.4593397 -165.68398 L 6.4490654 -183.39297 L -2.0863309 -198.17657 z M -83.43072 -192.21621 C -85.584619 -189.65499 -86.77489 -186.4211 -86.795372 -183.07465 C -86.842092 -175.15518 -80.459903 -168.69733 -72.540428 -168.65072 C -64.621155 -168.60402 -58.163395 -174.98588 -58.116503 -182.90515 C -58.102813 -186.26049 -59.266203 -189.5144 -61.404157 -192.10045 C -60.83125 -190.6836 -60.536835 -189.16959 -60.537027 -187.64129 C -60.575787 -181.07411 -65.930869 -175.78172 -72.498054 -175.82031 C -79.065241 -175.85911 -84.357627 -181.21415 -84.319038 -187.78134 C -84.309338 -189.30285 -84.007827 -190.80837 -83.43072 -192.21621 z M -122.72496 -119.73381 C -119.04039 -119.73381 -115.78103 -119.11073 -112.94675 -117.86364 C -110.11246 -116.67324 -107.90179 -114.97237 -106.31459 -112.76163 C -104.72739 -110.60757 -103.93386 -108.11368 -103.93386 -105.27939 C -103.93386 -102.10499 -104.86926 -99.384015 -106.73989 -97.116586 C -108.61052 -94.849156 -111.38814 -93.120223 -115.07272 -91.929822 C -110.42449 -90.909479 -107.16513 -89.237189 -105.2945 -86.913074 C -103.42387 -84.588959 -102.48847 -81.442892 -102.48847 -77.474891 C -102.48847 -74.017061 -103.53716 -71.069506 -105.63453 -68.632019 C -107.67522 -66.194533 -110.33904 -64.380375 -113.62681 -63.189974 C -116.91458 -61.999574 -120.31581 -61.404554 -123.83032 -61.404554 C -128.93204 -61.404554 -133.26866 -62.453243 -136.83986 -64.550615 C -140.35438 -66.647987 -142.11189 -69.510317 -142.11189 -73.138204 C -142.11189 -75.235577 -141.48829 -76.851222 -140.24121 -77.984937 C -138.99412 -79.175337 -137.43512 -79.770358 -135.56449 -79.770358 C -133.63717 -79.770358 -131.68166 -79.005405 -129.69766 -77.474891 C -130.20783 -76.397862 -130.46247 -75.094016 -130.46247 -73.563501 C -130.46247 -71.749558 -129.9241 -70.275781 -128.84707 -69.142066 C -127.71335 -68.008351 -126.04106 -67.441394 -123.83032 -67.441394 C -118.95535 -67.441394 -116.51811 -70.814037 -116.51811 -77.55964 C -116.51811 -81.244213 -117.70866 -84.10706 -120.08946 -86.147746 C -122.41358 -88.188433 -125.72958 -89.208541 -130.03769 -89.208541 L -130.03769 -94.480571 C -121.70489 -95.1608 -117.5382 -98.760535 -117.5382 -105.27939 C -117.5382 -108.56717 -118.04851 -110.97583 -119.06885 -112.50634 C -120.0892 -114.09354 -121.47827 -114.88759 -123.23553 -114.88759 C -125.3329 -114.88759 -126.91996 -114.15071 -127.99699 -112.67688 C -129.01733 -111.20305 -129.52765 -109.41747 -129.52765 -107.3201 C -129.52765 -105.44947 -129.13062 -103.77718 -128.33702 -102.30335 C -129.92422 -100.60278 -131.96496 -99.752084 -134.45913 -99.752084 C -136.72656 -99.752084 -138.48356 -100.43233 -139.73064 -101.79279 C -140.97773 -103.15324 -141.60133 -104.91076 -141.60133 -107.06482 C -141.60133 -109.8991 -140.63786 -112.25164 -138.71055 -114.12227 C -136.72655 -116.04958 -134.28879 -117.46671 -131.39782 -118.37369 C -128.45016 -119.28066 -125.55925 -119.73381 -122.72496 -119.73381 z M -52.831554 -119.13901 L -50.025524 -117.86364 L -50.025524 -68.716769 C -48.948495 -68.093226 -47.248141 -67.526269 -44.924026 -67.016097 C -42.599911 -66.562611 -40.757689 -66.279392 -39.397232 -66.16602 L -39.651997 -62.084615 L -74.343936 -62.084615 L -74.17392 -66.16602 C -69.12889 -66.732877 -65.273998 -67.583054 -62.609768 -68.716769 L -62.609768 -109.44555 L -74.003905 -109.44555 L -74.003905 -114.37703 C -70.376018 -114.66046 -66.634414 -115.19935 -62.779784 -115.99295 C -58.925154 -116.84324 -55.609155 -117.89193 -52.831554 -119.13901 z M -34.975796 -118.88373 L -30.809125 -118.88373 C -28.655068 -118.82705 -23.949999 -118.79847 -16.694225 -118.79847 C -9.155022 -118.79847 -4.2519577 -118.82705 -1.9845283 -118.88373 L 2.0968763 -118.88373 L 3.7975477 -115.22762 C 2.7205187 -113.52705 0.67978473 -109.84261 -2.3245592 -104.17404 C -5.3289032 -98.505463 -8.1631698 -92.496548 -10.827399 -86.147746 C -13.491629 -79.798944 -14.824055 -74.838719 -14.824055 -71.267517 C -14.824055 -68.433231 -13.83201 -66.307789 -11.848009 -64.890646 C -13.775324 -62.566531 -16.241146 -61.404554 -19.24549 -61.404554 C -22.023091 -61.404554 -24.177113 -62.169506 -25.707628 -63.700021 C -27.238143 -65.230536 -28.003095 -67.356494 -28.003095 -70.077409 C -28.003095 -73.478553 -27.181499 -77.077772 -25.537613 -80.875717 C -23.893726 -84.730347 -20.945655 -89.945728 -16.694225 -96.521273 L -6.6612454 -111.9963 L -26.047659 -111.9963 C -26.841259 -109.44544 -27.322992 -106.44124 -27.493049 -102.98341 C -28.513392 -102.81335 -29.562081 -102.72813 -30.63911 -102.72813 C -31.772825 -102.72813 -32.878158 -102.81335 -33.955187 -102.98341 L -36.33592 -117.60836 L -34.975796 -118.88373 z M -87.438227 -101.28274 C -85.454226 -101.28274 -83.980449 -100.68772 -83.016791 -99.497319 C -81.996448 -98.363604 -81.486136 -96.776539 -81.486136 -94.735852 C -81.486136 -92.695166 -81.996448 -91.107584 -83.016791 -89.973869 C -83.980449 -88.840154 -85.454226 -88.273198 -87.438227 -88.273198 C -89.422228 -88.273198 -90.924585 -88.840154 -91.944929 -89.973869 C -92.908586 -91.16427 -93.390319 -92.751852 -93.390319 -94.735852 C -93.390319 -96.833225 -92.908586 -98.448354 -91.944929 -99.582068 C -90.924585 -100.71578 -89.422228 -101.28274 -87.438227 -101.28274 z M -87.438227 -74.498845 C -85.454226 -74.498845 -83.980449 -73.903824 -83.016791 -72.713424 C -81.996448 -71.579709 -81.486136 -69.992127 -81.486136 -67.951441 C -81.486136 -65.910754 -81.996448 -64.323689 -83.016791 -63.189974 C -83.980449 -62.05626 -85.454226 -61.489303 -87.438227 -61.489303 C -89.422228 -61.489303 -90.924585 -62.05626 -91.944929 -63.189974 C -92.908586 -64.380375 -93.390319 -65.96744 -93.390319 -67.951441 C -93.390319 -70.048813 -92.908586 -71.664459 -91.944929 -72.798173 C -90.924585 -73.931888 -89.422228 -74.498845 -87.438227 -74.498845 z " /></g></svg>
