<?xml version="1.0" encoding="UTF-8" standalone="no"?>
<!-- Created with Inkscape (http://www.inkscape.org/) -->

<svg
   width="172.6701mm"
   height="172.6701mm"
   viewBox="0 0 172.6701 172.6701"
   version="1.1"
   id="svg1"
   xml:space="preserve"
   xmlns="http://www.w3.org/2000/svg"
   xmlns:svg="http://www.w3.org/2000/svg"><defs
     id="defs1" /><g
     id="layer1"
     transform="translate(157.25102,198.81012)"><path
       id="path5"
       style="fill:#ffffff;fill-opacity:1;stroke-width:0.805188;stroke-linecap:round;stroke-linejoin:round"
       d="M -2.0863309 -198.17657 L -10.088943 -183.11289 L -10.930235 -165.68398 L -19.198981 -165.68398 L -11.423229 -155.47426 L -12.166336 -140.07934 C -28.353216 -157.12094 -50.823548 -166.77435 -74.327399 -166.78417 C -103.64471 -166.77397 -130.92652 -151.79225 -146.66717 -127.05894 L -157.25102 -127.05894 L -149.61996 -115.86014 L -157.25102 -26.140039 L -8.5138455 -26.140039 L 15.419061 -26.140039 L 8.0799737 -154.80195 L 15.419061 -165.68398 L 7.4593397 -165.68398 L 6.4490654 -183.39297 L -2.0863309 -198.17657 z M -83.43072 -192.21621 C -85.584619 -189.65499 -86.77489 -186.4211 -86.795372 -183.07465 C -86.842092 -175.15518 -80.459903 -168.69733 -72.540428 -168.65072 C -64.621155 -168.60402 -58.163395 -174.98588 -58.116503 -182.90515 C -58.102813 -186.26049 -59.266203 -189.5144 -61.404157 -192.10045 C -60.83125 -190.6836 -60.536835 -189.16959 -60.537027 -187.64129 C -60.575787 -181.07411 -65.930869 -175.78172 -72.498054 -175.82031 C -79.065241 -175.85911 -84.357627 -181.21415 -84.319038 -187.78134 C -84.309338 -189.30285 -84.007827 -190.80837 -83.43072 -192.21621 z M -16.609475 -119.81908 C -10.657473 -119.81908 -5.9243409 -118.54381 -2.4098253 -115.99295 C 1.1046902 -113.44209 2.8622043 -110.01229 2.8622043 -105.70418 C 2.8622043 -103.38006 2.0120276 -101.05611 0.31145559 -98.731991 C -1.3891165 -96.407876 -3.6283628 -94.50901 -6.4059638 -93.035181 C -2.8914483 -91.334609 -0.14240598 -89.350519 1.8415947 -87.08309 C 3.8822812 -84.81566 4.9029066 -81.896169 4.9029066 -78.324968 C 4.9029066 -73.166566 3.0321046 -69.057034 -0.70915395 -65.996005 C -4.4504125 -62.991661 -9.4953451 -61.489303 -15.844147 -61.489303 C -22.816493 -61.489303 -28.201806 -62.878373 -31.99975 -65.655974 C -35.741009 -68.433575 -37.611294 -72.401238 -37.611294 -77.55964 C -37.611294 -80.223869 -36.761118 -82.86014 -35.060546 -85.467684 C -33.359974 -88.131914 -30.979376 -90.483931 -27.918346 -92.524618 C -30.469204 -93.941761 -32.453294 -95.642631 -33.870437 -97.626632 C -35.287581 -99.610633 -35.995889 -102.07646 -35.995889 -105.02411 C -35.995889 -109.55897 -34.238892 -113.15871 -30.724376 -115.82294 C -27.209861 -118.48717 -22.504792 -119.81908 -16.609475 -119.81908 z M -125.36098 -119.73381 C -121.6764 -119.73381 -118.41705 -119.11073 -115.58276 -117.86364 C -112.74848 -116.67324 -110.53781 -114.97237 -108.95061 -112.76163 C -107.36341 -110.60757 -106.56988 -108.11368 -106.56988 -105.27939 C -106.56988 -102.10499 -107.50476 -99.384015 -109.37539 -97.116586 C -111.24602 -94.849156 -114.02364 -93.120223 -117.70821 -91.929822 C -113.05998 -90.909479 -109.80063 -89.237189 -107.93 -86.913074 C -106.05937 -84.588959 -105.12397 -81.442892 -105.12397 -77.474891 C -105.12397 -74.017061 -106.17266 -71.069506 -108.27003 -68.632019 C -110.31072 -66.194533 -112.97505 -64.380375 -116.26282 -63.189974 C -119.5506 -61.999574 -122.95182 -61.404554 -126.46634 -61.404554 C -131.56805 -61.404554 -135.90468 -62.453243 -139.47588 -64.550615 C -142.99039 -66.647987 -144.74739 -69.510317 -144.74739 -73.138204 C -144.74739 -75.235577 -144.12379 -76.851222 -142.8767 -77.984937 C -141.62962 -79.175337 -140.07113 -79.770358 -138.2005 -79.770358 C -136.27319 -79.770358 -134.31716 -79.005405 -132.33316 -77.474891 C -132.84333 -76.397862 -133.09849 -75.094016 -133.09849 -73.563501 C -133.09849 -71.749558 -132.56011 -70.275781 -131.48308 -69.142066 C -130.34937 -68.008351 -128.67708 -67.441394 -126.46634 -67.441394 C -121.59136 -67.441394 -119.15412 -70.814037 -119.15412 -77.55964 C -119.15412 -81.244213 -120.34416 -84.10706 -122.72496 -86.147746 C -125.04908 -88.188433 -128.36559 -89.208541 -132.67371 -89.208541 L -132.67371 -94.480571 C -124.34091 -95.1608 -120.17421 -98.760535 -120.17421 -105.27939 C -120.17421 -108.56717 -120.68453 -110.97583 -121.70487 -112.50634 C -122.72521 -114.09354 -124.11377 -114.88759 -125.87102 -114.88759 C -127.9684 -114.88759 -129.55598 -114.15071 -130.63301 -112.67688 C -131.65335 -111.20305 -132.16315 -109.41747 -132.16315 -107.3201 C -132.16315 -105.44947 -131.76664 -103.77718 -130.97304 -102.30335 C -132.56024 -100.60278 -134.60097 -99.752084 -137.09514 -99.752084 C -139.36257 -99.752084 -141.11957 -100.43233 -142.36666 -101.79279 C -143.61374 -103.15324 -144.23734 -104.91076 -144.23734 -107.06482 C -144.23734 -109.8991 -143.27388 -112.25164 -141.34656 -114.12227 C -139.36256 -116.04958 -136.9248 -117.46671 -134.03383 -118.37369 C -131.08617 -119.28066 -128.19526 -119.73381 -125.36098 -119.73381 z M -55.467569 -119.13901 L -52.661538 -117.86364 L -52.661538 -68.716769 C -51.584509 -68.093226 -49.884156 -67.526269 -47.560041 -67.016097 C -45.235926 -66.562611 -43.393187 -66.279392 -42.03273 -66.16602 L -42.288011 -62.084615 L -76.979951 -62.084615 L -76.809935 -66.16602 C -71.764905 -66.732877 -67.910013 -67.583054 -65.245783 -68.716769 L -65.245783 -109.44555 L -76.639403 -109.44555 L -76.639403 -114.37703 C -73.011516 -114.66046 -69.270429 -115.19935 -65.415799 -115.99295 C -61.561169 -116.84324 -58.24517 -117.89193 -55.467569 -119.13901 z M -16.609475 -113.78224 C -18.876905 -113.78224 -20.662482 -113.04535 -21.966254 -111.57152 C -23.270026 -110.15437 -23.921691 -108.22693 -23.921691 -105.78944 C -23.921691 -103.63538 -23.100094 -101.84981 -21.456208 -100.43266 C -19.755636 -99.072205 -17.289814 -97.711715 -14.058727 -96.351258 C -12.641583 -97.314915 -11.50767 -98.646824 -10.657384 -100.3474 C -9.8070979 -102.04797 -9.3820096 -103.86213 -9.3820096 -105.78944 C -9.3820096 -108.22693 -10.062254 -110.15437 -11.422712 -111.57152 C -12.726484 -113.04535 -14.455417 -113.78224 -16.609475 -113.78224 z M -90.074242 -101.28274 C -88.090241 -101.28274 -86.616464 -100.68772 -85.652806 -99.497319 C -84.632463 -98.363604 -84.12215 -96.776539 -84.12215 -94.735852 C -84.12215 -92.695166 -84.632463 -91.107584 -85.652806 -89.973869 C -86.616464 -88.840154 -88.090241 -88.273198 -90.074242 -88.273198 C -92.058243 -88.273198 -93.5606 -88.840154 -94.580944 -89.973869 C -95.544601 -91.16427 -96.026333 -92.751852 -96.026333 -94.735852 C -96.026333 -96.833225 -95.544601 -98.448354 -94.580944 -99.582068 C -93.5606 -100.71578 -92.058243 -101.28274 -90.074242 -101.28274 z M -20.095568 -89.038526 C -21.79614 -87.678068 -23.043341 -86.119583 -23.836941 -84.362325 C -24.630542 -82.605068 -25.027049 -80.50769 -25.027049 -78.070203 C -25.027049 -74.725745 -24.205453 -72.089474 -22.561567 -70.162159 C -20.917681 -68.291529 -18.678434 -67.356645 -15.844147 -67.356645 C -13.066546 -67.356645 -10.912524 -68.291529 -9.3820096 -70.162159 C -7.794809 -72.032788 -7.0012763 -74.640479 -7.0012763 -77.984937 C -7.0012763 -79.855566 -7.5962966 -81.442631 -8.7866971 -82.746403 C -9.9204118 -84.106861 -11.366125 -85.212194 -13.123383 -86.06248 C -14.880641 -86.969452 -17.204595 -87.961497 -20.095568 -89.038526 z M -90.074242 -74.498845 C -88.090241 -74.498845 -86.616464 -73.903824 -85.652806 -72.713424 C -84.632463 -71.579709 -84.12215 -69.992127 -84.12215 -67.951441 C -84.12215 -65.910754 -84.632463 -64.323689 -85.652806 -63.189974 C -86.616464 -62.05626 -88.090241 -61.489303 -90.074242 -61.489303 C -92.058243 -61.489303 -93.5606 -62.05626 -94.580944 -63.189974 C -95.544601 -64.380375 -96.026333 -65.96744 -96.026333 -67.951441 C -96.026333 -70.048813 -95.544601 -71.664459 -94.580944 -72.798173 C -93.5606 -73.931888 -92.058243 -74.498845 -90.074242 -74.498845 z " /></g></svg>
