<?xml version="1.0" encoding="UTF-8" standalone="no"?>
<!-- Created with Inkscape (http://www.inkscape.org/) -->

<svg
   width="172.6701mm"
   height="172.6701mm"
   viewBox="0 0 172.6701 172.6701"
   version="1.1"
   id="svg1"
   xml:space="preserve"
   xmlns="http://www.w3.org/2000/svg"
   xmlns:svg="http://www.w3.org/2000/svg"><defs
     id="defs1" /><g
     id="layer1"
     transform="translate(157.25102,198.81012)"><path
       id="path5"
       style="fill:#ffffff;fill-opacity:1;stroke-width:0.805188;stroke-linecap:round;stroke-linejoin:round"
       d="M -2.0863309 -198.17657 L -10.088943 -183.11289 L -10.930235 -165.68398 L -19.198981 -165.68398 L -11.423229 -155.47426 L -12.166336 -140.07934 C -28.353216 -157.12094 -50.823548 -166.77435 -74.327399 -166.78417 C -103.64471 -166.77397 -130.92652 -151.79225 -146.66717 -127.05894 L -157.25102 -127.05894 L -149.61996 -115.86014 L -157.25102 -26.140039 L -8.5138455 -26.140039 L 15.419061 -26.140039 L 8.0799737 -154.80195 L 15.419061 -165.68398 L 7.4593397 -165.68398 L 6.4490654 -183.39297 L -2.0863309 -198.17657 z M -83.43072 -192.21621 C -85.584619 -189.65499 -86.77489 -186.4211 -86.795372 -183.07465 C -86.842092 -175.15518 -80.459903 -168.69733 -72.540428 -168.65072 C -64.621155 -168.60402 -58.163395 -174.98588 -58.116503 -182.90515 C -58.102813 -186.26049 -59.266203 -189.5144 -61.404157 -192.10045 C -60.83125 -190.6836 -60.536835 -189.16959 -60.537027 -187.64129 C -60.575787 -181.07411 -65.930869 -175.78172 -72.498054 -175.82031 C -79.065241 -175.85911 -84.357627 -181.21415 -84.319038 -187.78134 C -84.309338 -189.30285 -84.007827 -190.80837 -83.43072 -192.21621 z M -126.46634 -119.73381 C -122.78176 -119.73381 -119.52241 -119.11073 -116.68812 -117.86364 C -113.85383 -116.67324 -111.64317 -114.97237 -110.05597 -112.76163 C -108.46877 -110.60757 -107.67523 -108.11368 -107.67523 -105.27939 C -107.67523 -102.10499 -108.61064 -99.384015 -110.48126 -97.116586 C -112.35189 -94.849156 -115.12952 -93.120223 -118.81409 -91.929822 C -114.16586 -90.909479 -110.90599 -89.237189 -109.03536 -86.913074 C -107.16473 -84.588959 -106.22984 -81.442892 -106.22984 -77.474891 C -106.22984 -74.017061 -107.27853 -71.069506 -109.37591 -68.632019 C -111.41659 -66.194533 -114.08041 -64.380375 -117.36818 -63.189974 C -120.65596 -61.999574 -124.05718 -61.404554 -127.57169 -61.404554 C -132.67341 -61.404554 -137.01004 -62.453243 -140.58124 -64.550615 C -144.09575 -66.647987 -145.85275 -69.510317 -145.85275 -73.138204 C -145.85275 -75.235577 -145.22967 -76.851222 -143.98258 -77.984937 C -142.73549 -79.175337 -141.17649 -79.770358 -139.30586 -79.770358 C -137.37855 -79.770358 -135.42304 -79.005405 -133.43904 -77.474891 C -133.94921 -76.397862 -134.20385 -75.094016 -134.20385 -73.563501 C -134.20385 -71.749558 -133.66547 -70.275781 -132.58844 -69.142066 C -131.45473 -68.008351 -129.78244 -67.441394 -127.57169 -67.441394 C -122.69672 -67.441394 -120.25948 -70.814037 -120.25948 -77.55964 C -120.25948 -81.244213 -121.44952 -84.10706 -123.83032 -86.147746 C -126.15444 -88.188433 -129.47095 -89.208541 -133.77907 -89.208541 L -133.77907 -94.480571 C -125.44626 -95.1608 -121.27957 -98.760535 -121.27957 -105.27939 C -121.27957 -108.56717 -121.78988 -110.97583 -122.81023 -112.50634 C -123.83057 -114.09354 -125.21912 -114.88759 -126.97638 -114.88759 C -129.07375 -114.88759 -130.66134 -114.15071 -131.73837 -112.67688 C -132.75871 -111.20305 -133.2685 -109.41747 -133.2685 -107.3201 C -133.2685 -105.44947 -132.872 -103.77718 -132.0784 -102.30335 C -133.6656 -100.60278 -135.70633 -99.752084 -138.2005 -99.752084 C -140.46793 -99.752084 -142.22493 -100.43233 -143.47202 -101.79279 C -144.7191 -103.15324 -145.3427 -104.91076 -145.3427 -107.06482 C -145.3427 -109.8991 -144.37924 -112.25164 -142.45192 -114.12227 C -140.46792 -116.04958 -138.03016 -117.46671 -135.13919 -118.37369 C -132.19153 -119.28066 -129.30062 -119.73381 -126.46634 -119.73381 z M -59.123676 -119.73381 C -53.285046 -119.73381 -48.637138 -118.28861 -45.179308 -115.39764 C -41.721478 -112.56335 -39.992544 -108.56711 -39.992544 -103.40871 C -39.992544 -98.873849 -41.721478 -94.026912 -45.179308 -88.86851 C -48.637138 -83.766794 -54.333735 -77.616529 -62.269737 -70.41744 L -39.397232 -70.41744 L -39.397232 -62.084615 L -77.915294 -62.084615 L -77.915294 -67.016097 C -71.623177 -73.081471 -66.719596 -78.268272 -63.205081 -82.576388 C -59.690565 -86.884504 -57.168099 -90.852684 -55.637584 -94.480571 C -54.050384 -98.108458 -53.256851 -101.84955 -53.256851 -105.70418 C -53.256851 -111.82623 -55.297585 -114.88759 -59.378958 -114.88759 C -61.192901 -114.88759 -62.666679 -114.0369 -63.800393 -112.33633 C -64.934108 -110.69244 -65.501065 -108.65171 -65.501065 -106.21422 C -65.501065 -104.51365 -64.905528 -102.89852 -63.715127 -101.36801 C -64.678785 -100.46103 -65.784118 -99.752209 -67.031204 -99.242037 C -68.221604 -98.731866 -69.412162 -98.476709 -70.602562 -98.476709 C -72.643249 -98.476709 -74.344119 -99.10031 -75.704576 -100.3474 C -77.065034 -101.65117 -77.745279 -103.52197 -77.745279 -105.95946 C -77.745279 -108.567 -76.97981 -110.91953 -75.449295 -113.01691 C -73.91878 -115.11428 -71.764758 -116.75799 -68.987157 -117.94839 C -66.15287 -119.13879 -62.864935 -119.73381 -59.123676 -119.73381 z M -14.228742 -119.64906 C -7.5965112 -119.64906 -2.5229981 -117.15466 0.99151743 -112.16631 C 4.5627187 -107.23465 6.3482964 -100.06428 6.3482964 -90.654448 C 6.3482964 -81.244616 4.5627187 -74.017081 0.99151743 -68.97205 C -2.5229981 -63.983706 -7.5965112 -61.489303 -14.228742 -61.489303 C -20.860973 -61.489303 -25.96255 -63.983706 -29.533751 -68.97205 C -33.104952 -74.017081 -34.89053 -81.244616 -34.89053 -90.654448 C -34.89053 -100.00759 -33.104952 -107.17797 -29.533751 -112.16631 C -25.96255 -117.15466 -20.860973 -119.64906 -14.228742 -119.64906 z M -14.228742 -115.31237 C -17.119715 -115.31237 -19.217093 -113.41351 -20.520865 -109.61556 C -21.767951 -105.81762 -22.391551 -99.497422 -22.391551 -90.654448 C -22.391551 -81.868159 -21.767951 -75.576025 -20.520865 -71.778081 C -19.217093 -68.036822 -17.119715 -66.16602 -14.228742 -66.16602 C -11.33777 -66.16602 -9.2684553 -68.036822 -8.0213691 -71.778081 C -6.7175972 -75.576025 -6.0659329 -81.868159 -6.0659329 -90.654448 C -6.0659329 -99.440737 -6.7175972 -105.73287 -8.0213691 -109.53081 C -9.2684553 -113.38544 -11.33777 -115.31237 -14.228742 -115.31237 z M -91.179601 -101.28274 C -89.1956 -101.28274 -87.721823 -100.68772 -86.758165 -99.497319 C -85.737822 -98.363604 -85.227509 -96.776539 -85.227509 -94.735852 C -85.227509 -92.695166 -85.737822 -91.107584 -86.758165 -89.973869 C -87.721823 -88.840154 -89.1956 -88.273198 -91.179601 -88.273198 C -93.163601 -88.273198 -94.665959 -88.840154 -95.686302 -89.973869 C -96.64996 -91.16427 -97.131692 -92.751852 -97.131692 -94.735852 C -97.131692 -96.833225 -96.64996 -98.448354 -95.686302 -99.582068 C -94.665959 -100.71578 -93.163601 -101.28274 -91.179601 -101.28274 z M -91.179601 -74.498845 C -89.1956 -74.498845 -87.721823 -73.903824 -86.758165 -72.713424 C -85.737822 -71.579709 -85.227509 -69.992127 -85.227509 -67.951441 C -85.227509 -65.910754 -85.737822 -64.323689 -86.758165 -63.189974 C -87.721823 -62.05626 -89.1956 -61.489303 -91.179601 -61.489303 C -93.163601 -61.489303 -94.665959 -62.05626 -95.686302 -63.189974 C -96.64996 -64.380375 -97.131692 -65.96744 -97.131692 -67.951441 C -97.131692 -70.048813 -96.64996 -71.664459 -95.686302 -72.798173 C -94.665959 -73.931888 -93.163601 -74.498845 -91.179601 -74.498845 z " /></g></svg>
