<?xml version="1.0" encoding="UTF-8" standalone="no"?>
<!-- Created with Inkscape (http://www.inkscape.org/) -->

<svg
   width="172.6701mm"
   height="172.6701mm"
   viewBox="0 0 172.6701 172.6701"
   version="1.1"
   id="svg1"
   xml:space="preserve"
   xmlns="http://www.w3.org/2000/svg"
   xmlns:svg="http://www.w3.org/2000/svg"><defs
     id="defs1" /><g
     id="layer1"
     transform="translate(157.25102,198.81012)"><path
       id="path5"
       style="fill:#ffffff;fill-opacity:1;stroke-width:0.805188;stroke-linecap:round;stroke-linejoin:round"
       d="M -2.0863309 -198.17657 L -10.088943 -183.11289 L -10.930235 -165.68398 L -19.198981 -165.68398 L -11.423229 -155.47426 L -12.166336 -140.07934 C -28.353216 -157.12094 -50.823548 -166.77435 -74.327399 -166.78417 C -103.64471 -166.77397 -130.92652 -151.79225 -146.66717 -127.05894 L -157.25102 -127.05894 L -149.61996 -115.86014 L -157.25102 -26.140039 L -8.5138455 -26.140039 L 15.419061 -26.140039 L 8.0799737 -154.80195 L 15.419061 -165.68398 L 7.4593397 -165.68398 L 6.4490654 -183.39297 L -2.0863309 -198.17657 z M -83.43072 -192.21621 C -85.584619 -189.65499 -86.77489 -186.4211 -86.795372 -183.07465 C -86.842092 -175.15518 -80.459903 -168.69733 -72.540428 -168.65072 C -64.621155 -168.60402 -58.163395 -174.98588 -58.116503 -182.90515 C -58.102813 -186.26049 -59.266203 -189.5144 -61.404157 -192.10045 C -60.83125 -190.6836 -60.536835 -189.16959 -60.537027 -187.64129 C -60.575787 -181.07411 -65.930869 -175.78172 -72.498054 -175.82031 C -79.065241 -175.85911 -84.357627 -181.21415 -84.319038 -187.78134 C -84.309338 -189.30285 -84.007827 -190.80837 -83.43072 -192.21621 z M -125.36098 -119.73381 C -121.6764 -119.73381 -118.41705 -119.11073 -115.58276 -117.86364 C -112.74848 -116.67324 -110.53781 -114.97237 -108.95061 -112.76163 C -107.36341 -110.60757 -106.56988 -108.11368 -106.56988 -105.27939 C -106.56988 -102.10499 -107.50476 -99.384015 -109.37539 -97.116586 C -111.24602 -94.849156 -114.02364 -93.120223 -117.70821 -91.929822 C -113.05998 -90.909479 -109.80063 -89.237189 -107.93 -86.913074 C -106.05937 -84.588959 -105.12397 -81.442892 -105.12397 -77.474891 C -105.12397 -74.017061 -106.17266 -71.069506 -108.27003 -68.632019 C -110.31072 -66.194533 -112.97505 -64.380375 -116.26282 -63.189974 C -119.5506 -61.999574 -122.95182 -61.404554 -126.46634 -61.404554 C -131.56805 -61.404554 -135.90468 -62.453243 -139.47588 -64.550615 C -142.99039 -66.647987 -144.74739 -69.510317 -144.74739 -73.138204 C -144.74739 -75.235577 -144.12379 -76.851222 -142.8767 -77.984937 C -141.62962 -79.175337 -140.07113 -79.770358 -138.2005 -79.770358 C -136.27319 -79.770358 -134.31716 -79.005405 -132.33316 -77.474891 C -132.84333 -76.397862 -133.09849 -75.094016 -133.09849 -73.563501 C -133.09849 -71.749558 -132.56011 -70.275781 -131.48308 -69.142066 C -130.34937 -68.008351 -128.67708 -67.441394 -126.46634 -67.441394 C -121.59136 -67.441394 -119.15412 -70.814037 -119.15412 -77.55964 C -119.15412 -81.244213 -120.34416 -84.10706 -122.72496 -86.147746 C -125.04908 -88.188433 -128.36559 -89.208541 -132.67371 -89.208541 L -132.67371 -94.480571 C -124.34091 -95.1608 -120.17421 -98.760535 -120.17421 -105.27939 C -120.17421 -108.56717 -120.68453 -110.97583 -121.70487 -112.50634 C -122.72521 -114.09354 -124.11377 -114.88759 -125.87102 -114.88759 C -127.9684 -114.88759 -129.55598 -114.15071 -130.63301 -112.67688 C -131.65335 -111.20305 -132.16315 -109.41747 -132.16315 -107.3201 C -132.16315 -105.44947 -131.76664 -103.77718 -130.97304 -102.30335 C -132.56024 -100.60278 -134.60097 -99.752084 -137.09514 -99.752084 C -139.36257 -99.752084 -141.11957 -100.43233 -142.36666 -101.79279 C -143.61374 -103.15324 -144.23734 -104.91076 -144.23734 -107.06482 C -144.23734 -109.8991 -143.27388 -112.25164 -141.34656 -114.12227 C -139.36256 -116.04958 -136.9248 -117.46671 -134.03383 -118.37369 C -131.08617 -119.28066 -128.19526 -119.73381 -125.36098 -119.73381 z M -58.018317 -119.73381 C -52.179687 -119.73381 -47.531262 -118.28861 -44.073432 -115.39764 C -40.615602 -112.56335 -38.886669 -108.56711 -38.886669 -103.40871 C -38.886669 -98.873849 -40.615602 -94.026912 -44.073432 -88.86851 C -47.531262 -83.766794 -53.228376 -77.616529 -61.164379 -70.41744 L -38.291873 -70.41744 L -38.291873 -62.084615 L -76.809935 -62.084615 L -76.809935 -67.016097 C -70.517819 -73.081471 -65.614238 -78.268272 -62.099722 -82.576388 C -58.585206 -86.884504 -56.06274 -90.852684 -54.532225 -94.480571 C -52.945025 -98.108458 -52.151492 -101.84955 -52.151492 -105.70418 C -52.151492 -111.82623 -54.192226 -114.88759 -58.273599 -114.88759 C -60.087542 -114.88759 -61.56132 -114.0369 -62.695034 -112.33633 C -63.828749 -110.69244 -64.395706 -108.65171 -64.395706 -106.21422 C -64.395706 -104.51365 -63.800169 -102.89852 -62.609768 -101.36801 C -63.573426 -100.46103 -64.678759 -99.752209 -65.925845 -99.242037 C -67.116245 -98.731866 -68.306803 -98.476709 -69.497203 -98.476709 C -71.53789 -98.476709 -73.238243 -99.10031 -74.598701 -100.3474 C -75.959158 -101.65117 -76.639403 -103.52197 -76.639403 -105.95946 C -76.639403 -108.567 -75.874451 -110.91953 -74.343936 -113.01691 C -72.813421 -115.11428 -70.659399 -116.75799 -67.881798 -117.94839 C -65.047511 -119.13879 -61.759576 -119.73381 -58.018317 -119.73381 z M -14.908804 -119.73381 C -9.0701733 -119.73381 -4.4217486 -118.28861 -0.96391876 -115.39764 C 2.4939111 -112.56335 4.222328 -108.56711 4.222328 -103.40871 C 4.222328 -98.873849 2.4939111 -94.026912 -0.96391876 -88.86851 C -4.4217486 -83.766794 -10.118862 -77.616529 -18.054865 -70.41744 L 4.8176405 -70.41744 L 4.8176405 -62.084615 L -33.700422 -62.084615 L -33.700422 -67.016097 C -27.408305 -73.081471 -22.504724 -78.268272 -18.990209 -82.576388 C -15.475693 -86.884504 -12.953227 -90.852684 -11.422712 -94.480571 C -9.8355113 -98.108458 -9.0419787 -101.84955 -9.0419787 -105.70418 C -9.0419787 -111.82623 -11.082713 -114.88759 -15.164086 -114.88759 C -16.978029 -114.88759 -18.451806 -114.0369 -19.585521 -112.33633 C -20.719236 -110.69244 -21.286193 -108.65171 -21.286193 -106.21422 C -21.286193 -104.51365 -20.690655 -102.89852 -19.500255 -101.36801 C -20.463913 -100.46103 -21.569246 -99.752209 -22.816332 -99.242037 C -24.006732 -98.731866 -25.197289 -98.476709 -26.38769 -98.476709 C -28.428376 -98.476709 -30.12873 -99.10031 -31.489187 -100.3474 C -32.849645 -101.65117 -33.52989 -103.52197 -33.52989 -105.95946 C -33.52989 -108.567 -32.764937 -110.91953 -31.234423 -113.01691 C -29.703908 -115.11428 -27.549886 -116.75799 -24.772285 -117.94839 C -21.937998 -119.13879 -18.650063 -119.73381 -14.908804 -119.73381 z M -90.074242 -101.28274 C -88.090241 -101.28274 -86.616464 -100.68772 -85.652806 -99.497319 C -84.632463 -98.363604 -84.12215 -96.776539 -84.12215 -94.735852 C -84.12215 -92.695166 -84.632463 -91.107584 -85.652806 -89.973869 C -86.616464 -88.840154 -88.090241 -88.273198 -90.074242 -88.273198 C -92.058243 -88.273198 -93.5606 -88.840154 -94.580944 -89.973869 C -95.544601 -91.16427 -96.026333 -92.751852 -96.026333 -94.735852 C -96.026333 -96.833225 -95.544601 -98.448354 -94.580944 -99.582068 C -93.5606 -100.71578 -92.058243 -101.28274 -90.074242 -101.28274 z M -90.074242 -74.498845 C -88.090241 -74.498845 -86.616464 -73.903824 -85.652806 -72.713424 C -84.632463 -71.579709 -84.12215 -69.992127 -84.12215 -67.951441 C -84.12215 -65.910754 -84.632463 -64.323689 -85.652806 -63.189974 C -86.616464 -62.05626 -88.090241 -61.489303 -90.074242 -61.489303 C -92.058243 -61.489303 -93.5606 -62.05626 -94.580944 -63.189974 C -95.544601 -64.380375 -96.026333 -65.96744 -96.026333 -67.951441 C -96.026333 -70.048813 -95.544601 -71.664459 -94.580944 -72.798173 C -93.5606 -73.931888 -92.058243 -74.498845 -90.074242 -74.498845 z " /></g></svg>
