<?xml version="1.0" encoding="UTF-8" standalone="no"?>
<!-- Created with Inkscape (http://www.inkscape.org/) -->

<svg
   width="172.6701mm"
   height="172.6701mm"
   viewBox="0 0 172.6701 172.6701"
   version="1.1"
   id="svg1"
   xml:space="preserve"
   xmlns="http://www.w3.org/2000/svg"
   xmlns:svg="http://www.w3.org/2000/svg"><defs
     id="defs1" /><g
     id="layer1"
     transform="translate(157.25102,198.81012)"><path
       id="path5"
       style="fill:#ffffff;fill-opacity:1;stroke-width:0.805188;stroke-linecap:round;stroke-linejoin:round"
       d="M -2.0863309 -198.17657 L -10.088943 -183.11289 L -10.930235 -165.68398 L -19.198981 -165.68398 L -11.423229 -155.47426 L -12.166336 -140.07934 C -28.353216 -157.12094 -50.823548 -166.77435 -74.327399 -166.78417 C -103.64471 -166.77397 -130.92652 -151.79225 -146.66717 -127.05894 L -157.25102 -127.05894 L -149.61996 -115.86014 L -157.25102 -26.140039 L -8.5138455 -26.140039 L 15.419061 -26.140039 L 8.0799737 -154.80195 L 15.419061 -165.68398 L 7.4593397 -165.68398 L 6.4490654 -183.39297 L -2.0863309 -198.17657 z M -83.43072 -192.21621 C -85.584619 -189.65499 -86.77489 -186.4211 -86.795372 -183.07465 C -86.842092 -175.15518 -80.459903 -168.69733 -72.540428 -168.65072 C -64.621155 -168.60402 -58.163395 -174.98588 -58.116503 -182.90515 C -58.102813 -186.26049 -59.266203 -189.5144 -61.404157 -192.10045 C -60.83125 -190.6836 -60.536835 -189.16959 -60.537027 -187.64129 C -60.575787 -181.07411 -65.930869 -175.78172 -72.498054 -175.82031 C -79.065241 -175.85911 -84.357627 -181.21415 -84.319038 -187.78134 C -84.309338 -189.30285 -84.007827 -190.80837 -83.43072 -192.21621 z M -125.40335 -119.73381 C -121.71878 -119.73381 -118.45942 -119.11073 -115.62514 -117.86364 C -112.79085 -116.67324 -110.58018 -114.97237 -108.99298 -112.76163 C -107.40578 -110.60757 -106.61225 -108.11368 -106.61225 -105.27939 C -106.61225 -102.10499 -107.54765 -99.384015 -109.41828 -97.116586 C -111.28891 -94.849156 -114.06653 -93.120223 -117.75111 -91.929822 C -113.10288 -90.909479 -109.84352 -89.237189 -107.97289 -86.913074 C -106.10226 -84.588959 -105.16686 -81.442892 -105.16686 -77.474891 C -105.16686 -74.017061 -106.21555 -71.069506 -108.31292 -68.632019 C -110.35361 -66.194533 -113.01743 -64.380375 -116.3052 -63.189974 C -119.59297 -61.999574 -122.99419 -61.404554 -126.50871 -61.404554 C -131.61043 -61.404554 -135.94705 -62.453243 -139.51825 -64.550615 C -143.03277 -66.647987 -144.79028 -69.510317 -144.79028 -73.138204 C -144.79028 -75.235577 -144.16668 -76.851222 -142.9196 -77.984937 C -141.67251 -79.175337 -140.11351 -79.770358 -138.24288 -79.770358 C -136.31556 -79.770358 -134.36005 -79.005405 -132.37605 -77.474891 C -132.88622 -76.397862 -133.14086 -75.094016 -133.14086 -73.563501 C -133.14086 -71.749558 -132.60249 -70.275781 -131.52546 -69.142066 C -130.39174 -68.008351 -128.71945 -67.441394 -126.50871 -67.441394 C -121.63374 -67.441394 -119.1965 -70.814037 -119.1965 -77.55964 C -119.1965 -81.244213 -120.38705 -84.10706 -122.76785 -86.147746 C -125.09197 -88.188433 -128.40797 -89.208541 -132.71608 -89.208541 L -132.71608 -94.480571 C -124.38328 -95.1608 -120.21659 -98.760535 -120.21659 -105.27939 C -120.21659 -108.56717 -120.7269 -110.97583 -121.74724 -112.50634 C -122.76759 -114.09354 -124.15666 -114.88759 -125.91391 -114.88759 C -128.01129 -114.88759 -129.59835 -114.15071 -130.67538 -112.67688 C -131.69572 -111.20305 -132.20604 -109.41747 -132.20604 -107.3201 C -132.20604 -105.44947 -131.80901 -103.77718 -131.01541 -102.30335 C -132.60261 -100.60278 -134.64335 -99.752084 -137.13752 -99.752084 C -139.40495 -99.752084 -141.16195 -100.43233 -142.40903 -101.79279 C -143.65612 -103.15324 -144.27972 -104.91076 -144.27972 -107.06482 C -144.27972 -109.8991 -143.31625 -112.25164 -141.38894 -114.12227 C -139.40494 -116.04958 -136.96718 -117.46671 -134.07621 -118.37369 C -131.12855 -119.28066 -128.23764 -119.73381 -125.40335 -119.73381 z M -58.060692 -119.73381 C -52.222061 -119.73381 -47.574153 -118.28861 -44.116324 -115.39764 C -40.658494 -112.56335 -38.92956 -108.56711 -38.92956 -103.40871 C -38.92956 -98.873849 -40.658494 -94.026912 -44.116324 -88.86851 C -47.574153 -83.766794 -53.27075 -77.616529 -61.206753 -70.41744 L -38.334248 -70.41744 L -38.334248 -62.084615 L -76.85231 -62.084615 L -76.85231 -67.016097 C -70.560193 -73.081471 -65.656612 -78.268272 -62.142097 -82.576388 C -58.627581 -86.884504 -56.105115 -90.852684 -54.5746 -94.480571 C -52.987399 -98.108458 -52.193867 -101.84955 -52.193867 -105.70418 C -52.193867 -111.82623 -54.234601 -114.88759 -58.315974 -114.88759 C -60.129917 -114.88759 -61.603694 -114.0369 -62.737409 -112.33633 C -63.871124 -110.69244 -64.438081 -108.65171 -64.438081 -106.21422 C -64.438081 -104.51365 -63.842543 -102.89852 -62.652143 -101.36801 C -63.615801 -100.46103 -64.72165 -99.752209 -65.968736 -99.242037 C -67.159137 -98.731866 -68.349178 -98.476709 -69.539578 -98.476709 C -71.580264 -98.476709 -73.281134 -99.10031 -74.641592 -100.3474 C -76.00205 -101.65117 -76.682294 -103.52197 -76.682294 -105.95946 C -76.682294 -108.567 -75.916825 -110.91953 -74.386311 -113.01691 C -72.855796 -115.11428 -70.701774 -116.75799 -67.924173 -117.94839 C -65.089886 -119.13879 -61.801951 -119.73381 -58.060692 -119.73381 z M -15.291726 -119.73381 C -11.607154 -119.73381 -8.3472819 -119.11073 -5.5129951 -117.86364 C -2.6787083 -116.67324 -0.46804236 -114.97237 1.1191582 -112.76163 C 2.7063588 -110.60757 3.4998915 -108.11368 3.4998915 -105.27939 C 3.4998915 -102.10499 2.5644904 -99.384015 0.69386118 -97.116586 C -1.1767681 -94.849156 -3.9543907 -93.120223 -7.6389635 -91.929822 C -2.9907332 -90.909479 0.26862174 -89.237189 2.139251 -86.913074 C 4.0098803 -84.588959 4.9452813 -81.442892 4.9452813 -77.474891 C 4.9452813 -74.017061 3.8965923 -71.069506 1.7992201 -68.632019 C -0.24146639 -66.194533 -2.9058011 -64.380375 -6.1935737 -63.189974 C -9.4813463 -61.999574 -12.88257 -61.404554 -16.397085 -61.404554 C -21.498801 -61.404554 -25.834909 -62.453243 -29.40611 -64.550615 C -32.920626 -66.647987 -34.67814 -69.510317 -34.67814 -73.138204 C -34.67814 -75.235577 -34.054539 -76.851222 -32.807453 -77.984937 C -31.560367 -79.175337 -30.001365 -79.770358 -28.130736 -79.770358 C -26.203421 -79.770358 -24.247911 -79.005405 -22.263911 -77.474891 C -22.774082 -76.397862 -23.029239 -75.094016 -23.029239 -73.563501 C -23.029239 -71.749558 -22.490346 -70.275781 -21.413317 -69.142066 C -20.279602 -68.008351 -18.607829 -67.441394 -16.397085 -67.441394 C -11.522112 -67.441394 -9.0843533 -70.814037 -9.0843533 -77.55964 C -9.0843533 -81.244213 -10.274911 -84.10706 -12.655712 -86.147746 C -14.979827 -88.188433 -18.295826 -89.208541 -22.603942 -89.208541 L -22.603942 -94.480571 C -14.271138 -95.1608 -10.104963 -98.760535 -10.104963 -105.27939 C -10.104963 -108.56717 -10.614759 -110.97583 -11.635102 -112.50634 C -12.655445 -114.09354 -14.044515 -114.88759 -15.801773 -114.88759 C -17.899145 -114.88759 -19.48621 -114.15071 -20.563239 -112.67688 C -21.583582 -111.20305 -22.093895 -109.41747 -22.093895 -107.3201 C -22.093895 -105.44947 -21.69687 -103.77718 -20.90327 -102.30335 C -22.490471 -100.60278 -24.531205 -99.752084 -27.025377 -99.752084 C -29.292806 -99.752084 -31.050321 -100.43233 -32.297407 -101.79279 C -33.544493 -103.15324 -34.167577 -104.91076 -34.167577 -107.06482 C -34.167577 -109.8991 -33.204112 -112.25164 -31.276797 -114.12227 C -29.292796 -116.04958 -26.855555 -117.46671 -23.964582 -118.37369 C -21.016924 -119.28066 -18.126013 -119.73381 -15.291726 -119.73381 z M -90.116617 -101.28274 C -88.132616 -101.28274 -86.658838 -100.68772 -85.695181 -99.497319 C -84.674838 -98.363604 -84.164525 -96.776539 -84.164525 -94.735852 C -84.164525 -92.695166 -84.674838 -91.107584 -85.695181 -89.973869 C -86.658838 -88.840154 -88.132616 -88.273198 -90.116617 -88.273198 C -92.100617 -88.273198 -93.602975 -88.840154 -94.623318 -89.973869 C -95.586976 -91.16427 -96.068708 -92.751852 -96.068708 -94.735852 C -96.068708 -96.833225 -95.586976 -98.448354 -94.623318 -99.582068 C -93.602975 -100.71578 -92.100617 -101.28274 -90.116617 -101.28274 z M -90.116617 -74.498845 C -88.132616 -74.498845 -86.658838 -73.903824 -85.695181 -72.713424 C -84.674838 -71.579709 -84.164525 -69.992127 -84.164525 -67.951441 C -84.164525 -65.910754 -84.674838 -64.323689 -85.695181 -63.189974 C -86.658838 -62.05626 -88.132616 -61.489303 -90.116617 -61.489303 C -92.100617 -61.489303 -93.602975 -62.05626 -94.623318 -63.189974 C -95.586976 -64.380375 -96.068708 -65.96744 -96.068708 -67.951441 C -96.068708 -70.048813 -95.586976 -71.664459 -94.623318 -72.798173 C -93.602975 -73.931888 -92.100617 -74.498845 -90.116617 -74.498845 z " /></g></svg>
