<?xml version="1.0" encoding="UTF-8" standalone="no"?>
<!-- Created with Inkscape (http://www.inkscape.org/) -->

<svg
   width="172.6701mm"
   height="172.6701mm"
   viewBox="0 0 172.6701 172.6701"
   version="1.1"
   id="svg1"
   xml:space="preserve"
   xmlns="http://www.w3.org/2000/svg"
   xmlns:svg="http://www.w3.org/2000/svg"><defs
     id="defs1" /><g
     id="layer1"
     transform="translate(157.25102,198.81012)"><path
       id="path5"
       style="fill:#ffffff;fill-opacity:1;stroke-width:0.805188;stroke-linecap:round;stroke-linejoin:round"
       d="M -2.0863309 -198.17657 L -10.088943 -183.11289 L -10.930235 -165.68398 L -19.198981 -165.68398 L -11.423229 -155.47426 L -12.166336 -140.07934 C -28.353216 -157.12094 -50.823548 -166.77435 -74.327399 -166.78417 C -103.64471 -166.77397 -130.92652 -151.79225 -146.66717 -127.05894 L -157.25102 -127.05894 L -149.61996 -115.86014 L -157.25102 -26.140039 L -8.5138455 -26.140039 L 15.419061 -26.140039 L 8.0799737 -154.80195 L 15.419061 -165.68398 L 7.4593397 -165.68398 L 6.4490654 -183.39297 L -2.0863309 -198.17657 z M -83.43072 -192.21621 C -85.584619 -189.65499 -86.77489 -186.4211 -86.795372 -183.07465 C -86.842092 -175.15518 -80.459903 -168.69733 -72.540428 -168.65072 C -64.621155 -168.60402 -58.163395 -174.98588 -58.116503 -182.90515 C -58.102813 -186.26049 -59.266203 -189.5144 -61.404157 -192.10045 C -60.83125 -190.6836 -60.536835 -189.16959 -60.537027 -187.64129 C -60.575787 -181.07411 -65.930869 -175.78172 -72.498054 -175.82031 C -79.065241 -175.85911 -84.357627 -181.21415 -84.319038 -187.78134 C -84.309338 -189.30285 -84.007827 -190.80837 -83.43072 -192.21621 z M -16.269444 -120.07436 C -11.734586 -119.84761 -8.0496256 -118.85557 -5.2153388 -117.09831 L -25.452346 -83.767013 L -12.442805 -83.767013 L -11.592727 -97.626632 C -9.7787838 -97.626632 -8.4749385 -97.995076 -7.6813382 -98.731991 C -6.8310522 -99.468905 -6.1793879 -100.71611 -5.725902 -102.47336 L -0.87916941 -102.47336 L -0.96391876 -83.341716 C 1.1901392 -82.718173 3.9106011 -82.066508 7.1983737 -81.38628 L 6.7735934 -77.304875 L -1.3892158 -77.304875 L -1.3892158 -62.084615 L -12.442805 -62.084615 L -12.442805 -77.304875 L -37.016499 -77.304875 L -37.69656 -80.36567 L -16.269444 -120.07436 z M -127.31641 -119.73381 C -123.63184 -119.73381 -120.37249 -119.11073 -117.5382 -117.86364 C -114.70391 -116.67324 -112.49325 -114.97237 -110.90605 -112.76163 C -109.31884 -110.60757 -108.52531 -108.11368 -108.52531 -105.27939 C -108.52531 -102.10499 -109.46071 -99.384015 -111.33134 -97.116586 C -113.20197 -94.849156 -115.97959 -93.120223 -119.66417 -91.929822 C -115.01594 -90.909479 -111.75658 -89.237189 -109.88595 -86.913074 C -108.01532 -84.588959 -107.07992 -81.442892 -107.07992 -77.474891 C -107.07992 -74.017061 -108.12861 -71.069506 -110.22598 -68.632019 C -112.26667 -66.194533 -114.931 -64.380375 -118.21878 -63.189974 C -121.50655 -61.999574 -124.90777 -61.404554 -128.42229 -61.404554 C -133.524 -61.404554 -137.86011 -62.453243 -141.43131 -64.550615 C -144.94583 -66.647987 -146.70334 -69.510317 -146.70334 -73.138204 C -146.70334 -75.235577 -146.07974 -76.851222 -144.83266 -77.984937 C -143.58557 -79.175337 -142.02657 -79.770358 -140.15594 -79.770358 C -138.22862 -79.770358 -136.27311 -79.005405 -134.28911 -77.474891 C -134.79929 -76.397862 -135.05444 -75.094016 -135.05444 -73.563501 C -135.05444 -71.749558 -134.51555 -70.275781 -133.43852 -69.142066 C -132.30481 -68.008351 -130.63303 -67.441394 -128.42229 -67.441394 C -123.54732 -67.441394 -121.10956 -70.814037 -121.10956 -77.55964 C -121.10956 -81.244213 -122.30011 -84.10706 -124.68092 -86.147746 C -127.00503 -88.188433 -130.32103 -89.208541 -134.62915 -89.208541 L -134.62915 -94.480571 C -126.29634 -95.1608 -122.13017 -98.760535 -122.13017 -105.27939 C -122.13017 -108.56717 -122.63996 -110.97583 -123.66031 -112.50634 C -124.68065 -114.09354 -126.06972 -114.88759 -127.82698 -114.88759 C -129.92435 -114.88759 -131.51141 -114.15071 -132.58844 -112.67688 C -133.60879 -111.20305 -134.1191 -109.41747 -134.1191 -107.3201 C -134.1191 -105.44947 -133.72207 -103.77718 -132.92847 -102.30335 C -134.51567 -100.60278 -136.55641 -99.752084 -139.05058 -99.752084 C -141.31801 -99.752084 -143.07552 -100.43233 -144.32261 -101.79279 C -145.5697 -103.15324 -146.19278 -104.91076 -146.19278 -107.06482 C -146.19278 -109.8991 -145.22932 -112.25164 -143.302 -114.12227 C -141.318 -116.04958 -138.88076 -117.46671 -135.98979 -118.37369 C -133.04213 -119.28066 -130.1507 -119.73381 -127.31641 -119.73381 z M -59.973754 -119.73381 C -54.135123 -119.73381 -49.487215 -118.28861 -46.029385 -115.39764 C -42.571555 -112.56335 -40.842622 -108.56711 -40.842622 -103.40871 C -40.842622 -98.873849 -42.571555 -94.026912 -46.029385 -88.86851 C -49.487215 -83.766794 -55.183812 -77.616529 -63.119815 -70.41744 L -40.247309 -70.41744 L -40.247309 -62.084615 L -78.765371 -62.084615 L -78.765371 -67.016097 C -72.473255 -73.081471 -67.569674 -78.268272 -64.055158 -82.576388 C -60.540643 -86.884504 -58.018176 -90.852684 -56.487661 -94.480571 C -54.900461 -98.108458 -54.106928 -101.84955 -54.106928 -105.70418 C -54.106928 -111.82623 -56.147662 -114.88759 -60.229035 -114.88759 C -62.042979 -114.88759 -63.516756 -114.0369 -64.650471 -112.33633 C -65.784185 -110.69244 -66.351142 -108.65171 -66.351142 -106.21422 C -66.351142 -104.51365 -65.756122 -102.89852 -64.565721 -101.36801 C -65.529379 -100.46103 -66.634712 -99.752209 -67.881798 -99.242037 C -69.072198 -98.731866 -70.262239 -98.476709 -71.452639 -98.476709 C -73.493326 -98.476709 -75.194196 -99.10031 -76.554654 -100.3474 C -77.915111 -101.65117 -78.595356 -103.52197 -78.595356 -105.95946 C -78.595356 -108.567 -77.829887 -110.91953 -76.299372 -113.01691 C -74.768857 -115.11428 -72.614835 -116.75799 -69.837234 -117.94839 C -67.002947 -119.13879 -63.715012 -119.73381 -59.973754 -119.73381 z M -92.029678 -101.28274 C -90.045677 -101.28274 -88.5719 -100.68772 -87.608242 -99.497319 C -86.587899 -98.363604 -86.077587 -96.776539 -86.077587 -94.735852 C -86.077587 -92.695166 -86.587899 -91.107584 -87.608242 -89.973869 C -88.5719 -88.840154 -90.045677 -88.273198 -92.029678 -88.273198 C -94.013679 -88.273198 -95.516036 -88.840154 -96.53638 -89.973869 C -97.500037 -91.16427 -97.98177 -92.751852 -97.98177 -94.735852 C -97.98177 -96.833225 -97.500037 -98.448354 -96.53638 -99.582068 C -95.516036 -100.71578 -94.013679 -101.28274 -92.029678 -101.28274 z M -92.029678 -74.498845 C -90.045677 -74.498845 -88.5719 -73.903824 -87.608242 -72.713424 C -86.587899 -71.579709 -86.077587 -69.992127 -86.077587 -67.951441 C -86.077587 -65.910754 -86.587899 -64.323689 -87.608242 -63.189974 C -88.5719 -62.05626 -90.045677 -61.489303 -92.029678 -61.489303 C -94.013679 -61.489303 -95.516036 -62.05626 -96.53638 -63.189974 C -97.500037 -64.380375 -97.98177 -65.96744 -97.98177 -67.951441 C -97.98177 -70.048813 -97.500037 -71.664459 -96.53638 -72.798173 C -95.516036 -73.931888 -94.013679 -74.498845 -92.029678 -74.498845 z " /></g></svg>
