<?xml version="1.0" encoding="UTF-8" standalone="no"?>
<!-- Created with Inkscape (http://www.inkscape.org/) -->

<svg
   width="172.6701mm"
   height="172.6701mm"
   viewBox="0 0 172.6701 172.6701"
   version="1.1"
   id="svg1"
   xml:space="preserve"
   xmlns="http://www.w3.org/2000/svg"
   xmlns:svg="http://www.w3.org/2000/svg"><defs
     id="defs1" /><g
     id="layer1"
     transform="translate(157.25102,198.81012)"><path
       id="path5"
       style="fill:#ffffff;fill-opacity:1;stroke-width:0.805188;stroke-linecap:round;stroke-linejoin:round"
       d="M -2.0863309 -198.17657 L -10.088943 -183.11289 L -10.930235 -165.68398 L -19.198981 -165.68398 L -11.423229 -155.47426 L -12.166336 -140.07934 C -28.353216 -157.12094 -50.823548 -166.77435 -74.327399 -166.78417 C -103.64471 -166.77397 -130.92652 -151.79225 -146.66717 -127.05894 L -157.25102 -127.05894 L -149.61996 -115.86014 L -157.25102 -26.140039 L -8.5138455 -26.140039 L 15.419061 -26.140039 L 8.0799737 -154.80195 L 15.419061 -165.68398 L 7.4593397 -165.68398 L 6.4490654 -183.39297 L -2.0863309 -198.17657 z M -83.43072 -192.21621 C -85.584619 -189.65499 -86.77489 -186.4211 -86.795372 -183.07465 C -86.842092 -175.15518 -80.459903 -168.69733 -72.540428 -168.65072 C -64.621155 -168.60402 -58.163395 -174.98588 -58.116503 -182.90515 C -58.102813 -186.26049 -59.266203 -189.5144 -61.404157 -192.10045 C -60.83125 -190.6836 -60.536835 -189.16959 -60.537027 -187.64129 C -60.575787 -181.07411 -65.930869 -175.78172 -72.498054 -175.82031 C -79.065241 -175.85911 -84.357627 -181.21415 -84.319038 -187.78134 C -84.309338 -189.30285 -84.007827 -190.80837 -83.43072 -192.21621 z M -126.50871 -119.73381 C -122.82414 -119.73381 -119.56478 -119.11073 -116.7305 -117.86364 C -113.89621 -116.67324 -111.68554 -114.97237 -110.09834 -112.76163 C -108.51114 -110.60757 -107.71761 -108.11368 -107.71761 -105.27939 C -107.71761 -102.10499 -108.65301 -99.384015 -110.52364 -97.116586 C -112.39427 -94.849156 -115.17189 -93.120223 -118.85646 -91.929822 C -114.20823 -90.909479 -110.94888 -89.237189 -109.07825 -86.913074 C -107.20762 -84.588959 -106.27222 -81.442892 -106.27222 -77.474891 C -106.27222 -74.017061 -107.32091 -71.069506 -109.41828 -68.632019 C -111.45897 -66.194533 -114.1233 -64.380375 -117.41107 -63.189974 C -120.69885 -61.999574 -124.09955 -61.404554 -127.61407 -61.404554 C -132.71579 -61.404554 -137.05241 -62.453243 -140.62361 -64.550615 C -144.13813 -66.647987 -145.89564 -69.510317 -145.89564 -73.138204 C -145.89564 -75.235577 -145.27204 -76.851222 -144.02495 -77.984937 C -142.77787 -79.175337 -141.21887 -79.770358 -139.34824 -79.770358 C -137.42092 -79.770358 -135.46541 -79.005405 -133.48141 -77.474891 C -133.99158 -76.397862 -134.24674 -75.094016 -134.24674 -73.563501 C -134.24674 -71.749558 -133.70785 -70.275781 -132.63082 -69.142066 C -131.4971 -68.008351 -129.82481 -67.441394 -127.61407 -67.441394 C -122.7391 -67.441394 -120.30185 -70.814037 -120.30185 -77.55964 C -120.30185 -81.244213 -121.49241 -84.10706 -123.87321 -86.147746 C -126.19733 -88.188433 -129.51333 -89.208541 -133.82144 -89.208541 L -133.82144 -94.480571 C -125.48864 -95.1608 -121.32195 -98.760535 -121.32195 -105.27939 C -121.32195 -108.56717 -121.83226 -110.97583 -122.8526 -112.50634 C -123.87295 -114.09354 -125.26202 -114.88759 -127.01927 -114.88759 C -129.11665 -114.88759 -130.70371 -114.15071 -131.78074 -112.67688 C -132.80108 -111.20305 -133.3114 -109.41747 -133.3114 -107.3201 C -133.3114 -105.44947 -132.91437 -103.77718 -132.12077 -102.30335 C -133.70797 -100.60278 -135.74871 -99.752084 -138.24288 -99.752084 C -140.51031 -99.752084 -142.2673 -100.43233 -143.51439 -101.79279 C -144.76148 -103.15324 -145.38508 -104.91076 -145.38508 -107.06482 C -145.38508 -109.8991 -144.42161 -112.25164 -142.4943 -114.12227 C -140.5103 -116.04958 -138.07306 -117.46671 -135.18208 -118.37369 C -132.23442 -119.28066 -129.343 -119.73381 -126.50871 -119.73381 z M -59.166051 -119.73381 C -53.32742 -119.73381 -48.679512 -118.28861 -45.221682 -115.39764 C -41.763853 -112.56335 -40.034919 -108.56711 -40.034919 -103.40871 C -40.034919 -98.873849 -41.763853 -94.026912 -45.221682 -88.86851 C -48.679512 -83.766794 -54.376109 -77.616529 -62.312112 -70.41744 L -39.439606 -70.41744 L -39.439606 -62.084615 L -77.957669 -62.084615 L -77.957669 -67.016097 C -71.665552 -73.081471 -66.761971 -78.268272 -63.247456 -82.576388 C -59.73294 -86.884504 -57.210474 -90.852684 -55.679959 -94.480571 C -54.092758 -98.108458 -53.299226 -101.84955 -53.299226 -105.70418 C -53.299226 -111.82623 -55.33996 -114.88759 -59.421333 -114.88759 C -61.235276 -114.88759 -62.709053 -114.0369 -63.842768 -112.33633 C -64.976483 -110.69244 -65.543439 -108.65171 -65.543439 -106.21422 C -65.543439 -104.51365 -64.948419 -102.89852 -63.758019 -101.36801 C -64.721676 -100.46103 -65.827009 -99.752209 -67.074095 -99.242037 C -68.264496 -98.731866 -69.454536 -98.476709 -70.644937 -98.476709 C -72.685623 -98.476709 -74.386493 -99.10031 -75.746951 -100.3474 C -77.107409 -101.65117 -77.787653 -103.52197 -77.787653 -105.95946 C -77.787653 -108.567 -77.022184 -110.91953 -75.491669 -113.01691 C -73.961155 -115.11428 -71.807133 -116.75799 -69.029532 -117.94839 C -66.195245 -119.13879 -62.907309 -119.73381 -59.166051 -119.73381 z M -14.696414 -119.56379 C -7.9508114 -119.56379 -2.792074 -117.69351 0.7791273 -113.95225 C 4.4070143 -110.21099 6.2206556 -104.7971 6.2206556 -97.711381 C 6.2206556 -88.811721 3.4430329 -81.216258 -2.1121691 -74.924142 C -7.6106854 -68.688711 -15.603173 -64.09693 -26.090034 -61.149272 L -28.130736 -65.400692 C -22.462162 -67.838179 -17.898962 -70.956182 -14.441132 -74.754126 C -10.983302 -78.608756 -8.6874121 -83.086732 -7.5536974 -88.188448 C -10.728099 -86.601248 -13.817522 -85.807715 -16.821866 -85.807715 C -22.490439 -85.807715 -26.968932 -87.338137 -30.256704 -90.399166 C -33.487791 -93.460196 -35.10292 -97.598308 -35.10292 -102.8134 C -35.10292 -106.04448 -34.252744 -108.93539 -32.552172 -111.48625 C -30.794914 -114.03711 -28.385735 -116.0212 -25.324706 -117.43834 C -22.20699 -118.85549 -18.664415 -119.56379 -14.696414 -119.56379 z M -15.20646 -113.69697 C -17.643947 -113.69697 -19.514749 -112.76157 -20.818521 -110.89094 C -22.122293 -109.02031 -22.773957 -106.35597 -22.773957 -102.89814 C -22.773957 -99.383629 -22.065649 -96.634587 -20.648505 -94.650586 C -19.174676 -92.723271 -17.105362 -91.759807 -14.441132 -91.759807 C -12.117017 -91.759807 -9.5379069 -92.723271 -6.7036201 -94.650586 L -6.7036201 -95.755945 C -6.7036201 -101.93469 -7.3838648 -106.46931 -8.7443224 -109.36028 C -10.10478 -112.25126 -12.258802 -113.69697 -15.20646 -113.69697 z M -91.221975 -101.28274 C -89.237975 -101.28274 -87.764197 -100.68772 -86.80054 -99.497319 C -85.780197 -98.363604 -85.269884 -96.776539 -85.269884 -94.735852 C -85.269884 -92.695166 -85.780197 -91.107584 -86.80054 -89.973869 C -87.764197 -88.840154 -89.237975 -88.273198 -91.221975 -88.273198 C -93.205976 -88.273198 -94.708334 -88.840154 -95.728677 -89.973869 C -96.692335 -91.16427 -97.174067 -92.751852 -97.174067 -94.735852 C -97.174067 -96.833225 -96.692335 -98.448354 -95.728677 -99.582068 C -94.708334 -100.71578 -93.205976 -101.28274 -91.221975 -101.28274 z M -91.221975 -74.498845 C -89.237975 -74.498845 -87.764197 -73.903824 -86.80054 -72.713424 C -85.780197 -71.579709 -85.269884 -69.992127 -85.269884 -67.951441 C -85.269884 -65.910754 -85.780197 -64.323689 -86.80054 -63.189974 C -87.764197 -62.05626 -89.237975 -61.489303 -91.221975 -61.489303 C -93.205976 -61.489303 -94.708334 -62.05626 -95.728677 -63.189974 C -96.692335 -64.380375 -97.174067 -65.96744 -97.174067 -67.951441 C -97.174067 -70.048813 -96.692335 -71.664459 -95.728677 -72.798173 C -94.708334 -73.931888 -93.205976 -74.498845 -91.221975 -74.498845 z " /></g></svg>
