<?xml version="1.0" encoding="UTF-8" standalone="no"?>
<!-- Created with Inkscape (http://www.inkscape.org/) -->

<svg
   width="172.6701mm"
   height="172.6701mm"
   viewBox="0 0 172.6701 172.6701"
   version="1.1"
   id="svg1"
   xml:space="preserve"
   xmlns="http://www.w3.org/2000/svg"
   xmlns:svg="http://www.w3.org/2000/svg"><defs
     id="defs1" /><g
     id="layer1"
     transform="translate(157.25102,198.81012)"><path
       id="path5"
       style="fill:#ffffff;fill-opacity:1;stroke-width:0.805188;stroke-linecap:round;stroke-linejoin:round"
       d="M -2.0863309 -198.17657 L -10.088943 -183.11289 L -10.930235 -165.68398 L -19.198981 -165.68398 L -11.423229 -155.47426 L -12.166336 -140.07934 C -28.353216 -157.12094 -50.823548 -166.77435 -74.327399 -166.78417 C -103.64471 -166.77397 -130.92652 -151.79225 -146.66717 -127.05894 L -157.25102 -127.05894 L -149.61996 -115.86014 L -157.25102 -26.140039 L -8.5138455 -26.140039 L 15.419061 -26.140039 L 8.0799737 -154.80195 L 15.419061 -165.68398 L 7.4593397 -165.68398 L 6.4490654 -183.39297 L -2.0863309 -198.17657 z M -83.43072 -192.21621 C -85.584619 -189.65499 -86.77489 -186.4211 -86.795372 -183.07465 C -86.842092 -175.15518 -80.459903 -168.69733 -72.540428 -168.65072 C -64.621155 -168.60402 -58.163395 -174.98588 -58.116503 -182.90515 C -58.102813 -186.26049 -59.266203 -189.5144 -61.404157 -192.10045 C -60.83125 -190.6836 -60.536835 -189.16959 -60.537027 -187.64129 C -60.575787 -181.07411 -65.930869 -175.78172 -72.498054 -175.82031 C -79.065241 -175.85911 -84.357627 -181.21415 -84.319038 -187.78134 C -84.309338 -189.30285 -84.007827 -190.80837 -83.43072 -192.21621 z M -124.85093 -119.73381 C -121.16636 -119.73381 -117.907 -119.11073 -115.07272 -117.86364 C -112.23843 -116.67324 -110.02725 -114.97237 -108.44005 -112.76163 C -106.85285 -110.60757 -106.05931 -108.11368 -106.05931 -105.27939 C -106.05931 -102.10499 -106.99471 -99.384015 -108.86534 -97.116586 C -110.73597 -94.849156 -113.51359 -93.120223 -117.19817 -91.929822 C -112.54994 -90.909479 -109.29058 -89.237189 -107.41995 -86.913074 C -105.54932 -84.588959 -104.61392 -81.442892 -104.61392 -77.474891 C -104.61392 -74.017061 -105.66261 -71.069506 -107.75998 -68.632019 C -109.80067 -66.194533 -112.46501 -64.380375 -115.75278 -63.189974 C -119.04055 -61.999574 -122.44177 -61.404554 -125.95629 -61.404554 C -131.05801 -61.404554 -135.39411 -62.453243 -138.96531 -64.550615 C -142.47983 -66.647987 -144.23734 -69.510317 -144.23734 -73.138204 C -144.23734 -75.235577 -143.61374 -76.851222 -142.36666 -77.984937 C -141.11957 -79.175337 -139.56057 -79.770358 -137.68994 -79.770358 C -135.76263 -79.770358 -133.80712 -79.005405 -131.82311 -77.474891 C -132.33329 -76.397862 -132.58844 -75.094016 -132.58844 -73.563501 C -132.58844 -71.749558 -132.05007 -70.275781 -130.97304 -69.142066 C -129.83932 -68.008351 -128.16703 -67.441394 -125.95629 -67.441394 C -121.08132 -67.441394 -118.64356 -70.814037 -118.64356 -77.55964 C -118.64356 -81.244213 -119.83411 -84.10706 -122.21492 -86.147746 C -124.53903 -88.188433 -127.85503 -89.208541 -132.16315 -89.208541 L -132.16315 -94.480571 C -123.83034 -95.1608 -119.66417 -98.760535 -119.66417 -105.27939 C -119.66417 -108.56717 -120.17448 -110.97583 -121.19482 -112.50634 C -122.21517 -114.09354 -123.60372 -114.88759 -125.36098 -114.88759 C -127.45835 -114.88759 -129.04541 -114.15071 -130.12244 -112.67688 C -131.14279 -111.20305 -131.6531 -109.41747 -131.6531 -107.3201 C -131.6531 -105.44947 -131.25607 -103.77718 -130.46247 -102.30335 C -132.04967 -100.60278 -134.09041 -99.752084 -136.58458 -99.752084 C -138.85201 -99.752084 -140.60952 -100.43233 -141.85661 -101.79279 C -143.1037 -103.15324 -143.7273 -104.91076 -143.7273 -107.06482 C -143.7273 -109.8991 -142.76332 -112.25164 -140.836 -114.12227 C -138.852 -116.04958 -136.41476 -117.46671 -133.52379 -118.37369 C -130.57613 -119.28066 -127.68522 -119.73381 -124.85093 -119.73381 z M -57.848302 -119.73381 C -54.163729 -119.73381 -50.904374 -119.11073 -48.070087 -117.86364 C -45.235801 -116.67324 -43.025135 -114.97237 -41.437934 -112.76163 C -39.850733 -110.60757 -39.056684 -108.11368 -39.056684 -105.27939 C -39.056684 -102.10499 -39.992085 -99.384015 -41.862714 -97.116586 C -43.733344 -94.849156 -46.510966 -93.120223 -50.195539 -91.929822 C -45.547309 -90.909479 -42.287954 -89.237189 -40.417325 -86.913074 C -38.546695 -84.588959 -37.611294 -81.442892 -37.611294 -77.474891 C -37.611294 -74.017061 -38.659983 -71.069506 -40.757355 -68.632019 C -42.798042 -66.194533 -45.462377 -64.380375 -48.750149 -63.189974 C -52.037922 -61.999574 -55.439145 -61.404554 -58.953661 -61.404554 C -64.055377 -61.404554 -68.392001 -62.453243 -71.963203 -64.550615 C -75.477718 -66.647987 -77.234715 -69.510317 -77.234715 -73.138204 C -77.234715 -75.235577 -76.611115 -76.851222 -75.364029 -77.984937 C -74.116942 -79.175337 -72.558458 -79.770358 -70.687828 -79.770358 C -68.760513 -79.770358 -66.804487 -79.005405 -64.820486 -77.474891 C -65.330658 -76.397862 -65.585814 -75.094016 -65.585814 -73.563501 C -65.585814 -71.749558 -65.047438 -70.275781 -63.970409 -69.142066 C -62.836694 -68.008351 -61.164404 -67.441394 -58.953661 -67.441394 C -54.078688 -67.441394 -51.640929 -70.814037 -51.640929 -77.55964 C -51.640929 -81.244213 -52.831486 -84.10706 -55.212287 -86.147746 C -57.536402 -88.188433 -60.852401 -89.208541 -65.160517 -89.208541 L -65.160517 -94.480571 C -56.827714 -95.1608 -52.661538 -98.760535 -52.661538 -105.27939 C -52.661538 -108.56717 -53.171851 -110.97583 -54.192194 -112.50634 C -55.212538 -114.09354 -56.601091 -114.88759 -58.358348 -114.88759 C -60.45572 -114.88759 -62.042786 -114.15071 -63.119815 -112.67688 C -64.140158 -111.20305 -64.650471 -109.41747 -64.650471 -107.3201 C -64.650471 -105.44947 -64.253963 -103.77718 -63.460362 -102.30335 C -65.047563 -100.60278 -67.08778 -99.752084 -69.581953 -99.752084 C -71.849382 -99.752084 -73.606896 -100.43233 -74.853982 -101.79279 C -76.101068 -103.15324 -76.724669 -104.91076 -76.724669 -107.06482 C -76.724669 -109.8991 -75.761204 -112.25164 -73.833889 -114.12227 C -71.849889 -116.04958 -69.41213 -117.46671 -66.521158 -118.37369 C -63.573499 -119.28066 -60.682589 -119.73381 -57.848302 -119.73381 z M -32.849828 -118.88373 L -28.683674 -118.88373 C -26.529616 -118.82705 -21.824547 -118.79847 -14.568773 -118.79847 C -7.0295703 -118.79847 -2.1259893 -118.82705 0.14144012 -118.88373 L 4.222328 -118.88373 L 5.9229994 -115.22762 C 4.8459704 -113.52705 2.8052364 -109.84261 -0.19910757 -104.17404 C -3.2034515 -98.505463 -6.0377182 -92.496548 -8.7019477 -86.147746 C -11.366177 -79.798944 -12.698086 -74.838719 -12.698086 -71.267517 C -12.698086 -68.433231 -11.706041 -66.307789 -9.7220405 -64.890646 C -11.649356 -62.566531 -14.115178 -61.404554 -17.119522 -61.404554 C -19.897123 -61.404554 -22.051145 -62.169506 -23.58166 -63.700021 C -25.112174 -65.230536 -25.877644 -67.356494 -25.877644 -70.077409 C -25.877644 -73.478553 -25.055531 -77.077772 -23.411644 -80.875717 C -21.767758 -84.730347 -18.820203 -89.945728 -14.568773 -96.521273 L -4.535277 -111.9963 L -23.921691 -111.9963 C -24.715291 -109.44544 -25.19754 -106.44124 -25.367597 -102.98341 C -26.38794 -102.81335 -27.436629 -102.72813 -28.513658 -102.72813 C -29.647373 -102.72813 -30.752706 -102.81335 -31.829735 -102.98341 L -34.210468 -117.60836 L -32.849828 -118.88373 z M -89.564195 -101.28274 C -87.580195 -101.28274 -86.105901 -100.68772 -85.142243 -99.497319 C -84.1219 -98.363604 -83.612104 -96.776539 -83.612104 -94.735852 C -83.612104 -92.695166 -84.1219 -91.107584 -85.142243 -89.973869 C -86.105901 -88.840154 -87.580195 -88.273198 -89.564195 -88.273198 C -91.548196 -88.273198 -93.050037 -88.840154 -94.07038 -89.973869 C -95.034038 -91.16427 -95.51577 -92.751852 -95.51577 -94.735852 C -95.51577 -96.833225 -95.034038 -98.448354 -94.07038 -99.582068 C -93.050037 -100.71578 -91.548196 -101.28274 -89.564195 -101.28274 z M -89.564195 -74.498845 C -87.580195 -74.498845 -86.105901 -73.903824 -85.142243 -72.713424 C -84.1219 -71.579709 -83.612104 -69.992127 -83.612104 -67.951441 C -83.612104 -65.910754 -84.1219 -64.323689 -85.142243 -63.189974 C -86.105901 -62.05626 -87.580195 -61.489303 -89.564195 -61.489303 C -91.548196 -61.489303 -93.050037 -62.05626 -94.07038 -63.189974 C -95.034038 -64.380375 -95.51577 -65.96744 -95.51577 -67.951441 C -95.51577 -70.048813 -95.034038 -71.664459 -94.07038 -72.798173 C -93.050037 -73.931888 -91.548196 -74.498845 -89.564195 -74.498845 z " /></g></svg>
