<?xml version="1.0" encoding="UTF-8" standalone="no"?>
<!-- Created with Inkscape (http://www.inkscape.org/) -->

<svg
   width="172.6701mm"
   height="172.6701mm"
   viewBox="0 0 172.6701 172.6701"
   version="1.1"
   id="svg1"
   xml:space="preserve"
   xmlns="http://www.w3.org/2000/svg"
   xmlns:svg="http://www.w3.org/2000/svg"><defs
     id="defs1" /><g
     id="layer1"
     transform="translate(157.25102,198.81012)"><path
       id="path5"
       style="fill:#ffffff;fill-opacity:1;stroke-width:0.805188;stroke-linecap:round;stroke-linejoin:round"
       d="M -2.0863309 -198.17657 L -10.088943 -183.11289 L -10.930235 -165.68398 L -19.198981 -165.68398 L -11.423229 -155.47426 L -12.166336 -140.07934 C -28.353216 -157.12094 -50.823548 -166.77435 -74.327399 -166.78417 C -103.64471 -166.77397 -130.92652 -151.79225 -146.66717 -127.05894 L -157.25102 -127.05894 L -149.61996 -115.86014 L -157.25102 -26.140039 L -8.5138455 -26.140039 L 15.419061 -26.140039 L 8.0799737 -154.80195 L 15.419061 -165.68398 L 7.4593397 -165.68398 L 6.4490654 -183.39297 L -2.0863309 -198.17657 z M -83.43072 -192.21621 C -85.584619 -189.65499 -86.77489 -186.4211 -86.795372 -183.07465 C -86.842092 -175.15518 -80.459903 -168.69733 -72.540428 -168.65072 C -64.621155 -168.60402 -58.163395 -174.98588 -58.116503 -182.90515 C -58.102813 -186.26049 -59.266203 -189.5144 -61.404157 -192.10045 C -60.83125 -190.6836 -60.536835 -189.16959 -60.537027 -187.64129 C -60.575787 -181.07411 -65.930869 -175.78172 -72.498054 -175.82031 C -79.065241 -175.85911 -84.357627 -181.21415 -84.319038 -187.78134 C -84.309338 -189.30285 -84.007827 -190.80837 -83.43072 -192.21621 z M -126.5516 -119.73381 C -122.86703 -119.73381 -119.60716 -119.11073 -116.77287 -117.86364 C -113.93858 -116.67324 -111.72792 -114.97237 -110.14072 -112.76163 C -108.55352 -110.60757 -107.75998 -108.11368 -107.75998 -105.27939 C -107.75998 -102.10499 -108.69539 -99.384015 -110.56601 -97.116586 C -112.43664 -94.849156 -115.21427 -93.120223 -118.89884 -91.929822 C -114.25061 -90.909479 -110.99125 -89.237189 -109.12062 -86.913074 C -107.25 -84.588959 -106.31459 -81.442892 -106.31459 -77.474891 C -106.31459 -74.017061 -107.36328 -71.069506 -109.46066 -68.632019 C -111.50134 -66.194533 -114.16568 -64.380375 -117.45345 -63.189974 C -120.74122 -61.999574 -124.14245 -61.404554 -127.65696 -61.404554 C -132.75868 -61.404554 -137.09478 -62.453243 -140.66599 -64.550615 C -144.1805 -66.647987 -145.93802 -69.510317 -145.93802 -73.138204 C -145.93802 -75.235577 -145.31441 -76.851222 -144.06733 -77.984937 C -142.82024 -79.175337 -141.26124 -79.770358 -139.39061 -79.770358 C -137.4633 -79.770358 -135.50779 -79.005405 -133.52379 -77.474891 C -134.03396 -76.397862 -134.28911 -75.094016 -134.28911 -73.563501 C -134.28911 -71.749558 -133.75074 -70.275781 -132.67371 -69.142066 C -131.53999 -68.008351 -129.8677 -67.441394 -127.65696 -67.441394 C -122.78199 -67.441394 -120.34423 -70.814037 -120.34423 -77.55964 C -120.34423 -81.244213 -121.53479 -84.10706 -123.91559 -86.147746 C -126.2397 -88.188433 -129.5557 -89.208541 -133.86382 -89.208541 L -133.86382 -94.480571 C -125.53101 -95.1608 -121.36484 -98.760535 -121.36484 -105.27939 C -121.36484 -108.56717 -121.87463 -110.97583 -122.89498 -112.50634 C -123.91532 -114.09354 -125.30439 -114.88759 -127.06165 -114.88759 C -129.15902 -114.88759 -130.74609 -114.15071 -131.82311 -112.67688 C -132.84346 -111.20305 -133.35377 -109.41747 -133.35377 -107.3201 C -133.35377 -105.44947 -132.95675 -103.77718 -132.16315 -102.30335 C -133.75035 -100.60278 -135.79108 -99.752084 -138.28525 -99.752084 C -140.55268 -99.752084 -142.3102 -100.43233 -143.55728 -101.79279 C -144.80437 -103.15324 -145.42797 -104.91076 -145.42797 -107.06482 C -145.42797 -109.8991 -144.46399 -112.25164 -142.53667 -114.12227 C -140.55267 -116.04958 -138.11543 -117.46671 -135.22446 -118.37369 C -132.2768 -119.28066 -129.38589 -119.73381 -126.5516 -119.73381 z M -59.548973 -119.73381 C -55.864401 -119.73381 -52.605046 -119.11073 -49.770759 -117.86364 C -46.936472 -116.67324 -44.725806 -114.97237 -43.138605 -112.76163 C -41.551405 -110.60757 -40.757355 -108.11368 -40.757355 -105.27939 C -40.757355 -102.10499 -41.692756 -99.384015 -43.563386 -97.116586 C -45.434015 -94.849156 -48.211638 -93.120223 -51.89621 -91.929822 C -47.24798 -90.909479 -43.988625 -89.237189 -42.117996 -86.913074 C -40.247367 -84.588959 -39.311966 -81.442892 -39.311966 -77.474891 C -39.311966 -74.017061 -40.360655 -71.069506 -42.458027 -68.632019 C -44.498713 -66.194533 -47.163048 -64.380375 -50.450821 -63.189974 C -53.738593 -61.999574 -57.139817 -61.404554 -60.654332 -61.404554 C -65.756048 -61.404554 -70.092673 -62.453243 -73.663874 -64.550615 C -77.17839 -66.647987 -78.935387 -69.510317 -78.935387 -73.138204 C -78.935387 -75.235577 -78.311786 -76.851222 -77.0647 -77.984937 C -75.817614 -79.175337 -74.258612 -79.770358 -72.387983 -79.770358 C -70.460668 -79.770358 -68.505158 -79.005405 -66.521158 -77.474891 C -67.031329 -76.397862 -67.286485 -75.094016 -67.286485 -73.563501 C -67.286485 -71.749558 -66.748109 -70.275781 -65.67108 -69.142066 C -64.537366 -68.008351 -62.865076 -67.441394 -60.654332 -67.441394 C -55.779359 -67.441394 -53.3416 -70.814037 -53.3416 -77.55964 C -53.3416 -81.244213 -54.532158 -84.10706 -56.912958 -86.147746 C -59.237074 -88.188433 -62.553073 -89.208541 -66.861188 -89.208541 L -66.861188 -94.480571 C -58.528385 -95.1608 -54.36221 -98.760535 -54.36221 -105.27939 C -54.36221 -108.56717 -54.872522 -110.97583 -55.892866 -112.50634 C -56.913209 -114.09354 -58.301762 -114.88759 -60.05902 -114.88759 C -62.156392 -114.88759 -63.743457 -114.15071 -64.820486 -112.67688 C -65.840829 -111.20305 -66.351142 -109.41747 -66.351142 -107.3201 C -66.351142 -105.44947 -65.954117 -103.77718 -65.160517 -102.30335 C -66.747718 -100.60278 -68.788452 -99.752084 -71.282624 -99.752084 C -73.550053 -99.752084 -75.307567 -100.43233 -76.554654 -101.79279 C -77.80174 -103.15324 -78.42534 -104.91076 -78.42534 -107.06482 C -78.42534 -109.8991 -77.461359 -112.25164 -75.534044 -114.12227 C -73.550043 -116.04958 -71.112801 -117.46671 -68.221829 -118.37369 C -65.274171 -119.28066 -62.38326 -119.73381 -59.548973 -119.73381 z M -14.654039 -119.56379 C -7.9084367 -119.56379 -2.7496993 -117.69351 0.82150197 -113.95225 C 4.449389 -110.21099 6.2630303 -104.7971 6.2630303 -97.711381 C 6.2630303 -88.811721 3.4854076 -81.216258 -2.0697944 -74.924142 C -7.5683107 -68.688711 -15.560798 -64.09693 -26.047659 -61.149272 L -28.088361 -65.400692 C -22.419788 -67.838179 -17.856587 -70.956182 -14.398758 -74.754126 C -10.940928 -78.608756 -8.6450374 -83.086732 -7.5113227 -88.188448 C -10.685724 -86.601248 -13.775147 -85.807715 -16.779491 -85.807715 C -22.448064 -85.807715 -26.92604 -87.338137 -30.213813 -90.399166 C -33.4449 -93.460196 -35.060546 -97.598308 -35.060546 -102.8134 C -35.060546 -106.04448 -34.210369 -108.93539 -32.509797 -111.48625 C -30.752539 -114.03711 -28.343361 -116.0212 -25.282331 -117.43834 C -22.164616 -118.85549 -18.622041 -119.56379 -14.654039 -119.56379 z M -15.164086 -113.69697 C -17.601572 -113.69697 -19.471857 -112.76157 -20.775629 -110.89094 C -22.079401 -109.02031 -22.731582 -106.35597 -22.731582 -102.89814 C -22.731582 -99.383629 -22.022757 -96.634587 -20.605614 -94.650586 C -19.131785 -92.723271 -17.062987 -91.759807 -14.398758 -91.759807 C -12.074642 -91.759807 -9.4955322 -92.723271 -6.6612454 -94.650586 L -6.6612454 -95.755945 C -6.6612454 -101.93469 -7.3414901 -106.46931 -8.7019477 -109.36028 C -10.062405 -112.25126 -12.216427 -113.69697 -15.164086 -113.69697 z M -91.26435 -101.28274 C -89.280349 -101.28274 -87.806572 -100.68772 -86.842915 -99.497319 C -85.822571 -98.363604 -85.312775 -96.776539 -85.312775 -94.735852 C -85.312775 -92.695166 -85.822571 -91.107584 -86.842915 -89.973869 C -87.806572 -88.840154 -89.280349 -88.273198 -91.26435 -88.273198 C -93.248351 -88.273198 -94.750709 -88.840154 -95.771052 -89.973869 C -96.734709 -91.16427 -97.216442 -92.751852 -97.216442 -94.735852 C -97.216442 -96.833225 -96.734709 -98.448354 -95.771052 -99.582068 C -94.750709 -100.71578 -93.248351 -101.28274 -91.26435 -101.28274 z M -91.26435 -74.498845 C -89.280349 -74.498845 -87.806572 -73.903824 -86.842915 -72.713424 C -85.822571 -71.579709 -85.312775 -69.992127 -85.312775 -67.951441 C -85.312775 -65.910754 -85.822571 -64.323689 -86.842915 -63.189974 C -87.806572 -62.05626 -89.280349 -61.489303 -91.26435 -61.489303 C -93.248351 -61.489303 -94.750709 -62.05626 -95.771052 -63.189974 C -96.734709 -64.380375 -97.216442 -65.96744 -97.216442 -67.951441 C -97.216442 -70.048813 -96.734709 -71.664459 -95.771052 -72.798173 C -94.750709 -73.931888 -93.248351 -74.498845 -91.26435 -74.498845 z " /></g></svg>
