<?xml version="1.0" encoding="UTF-8" standalone="no"?>
<!-- Created with Inkscape (http://www.inkscape.org/) -->

<svg
   width="172.6701mm"
   height="172.6701mm"
   viewBox="0 0 172.6701 172.6701"
   version="1.1"
   id="svg1"
   xml:space="preserve"
   xmlns="http://www.w3.org/2000/svg"
   xmlns:svg="http://www.w3.org/2000/svg"><defs
     id="defs1" /><g
     id="layer1"
     transform="translate(157.25102,198.81012)"><path
       id="path5"
       style="fill:#ffffff;fill-opacity:1;stroke-width:0.805188;stroke-linecap:round;stroke-linejoin:round"
       d="M -2.0863309 -198.17657 L -10.088943 -183.11289 L -10.930235 -165.68398 L -19.198981 -165.68398 L -11.423229 -155.47426 L -12.166336 -140.07934 C -28.353216 -157.12094 -50.823548 -166.77435 -74.327399 -166.78417 C -103.64471 -166.77397 -130.92652 -151.79225 -146.66717 -127.05894 L -157.25102 -127.05894 L -149.61996 -115.86014 L -157.25102 -26.140039 L -8.5138455 -26.140039 L 15.419061 -26.140039 L 8.0799737 -154.80195 L 15.419061 -165.68398 L 7.4593397 -165.68398 L 6.4490654 -183.39297 L -2.0863309 -198.17657 z M -83.43072 -192.21621 C -85.584619 -189.65499 -86.77489 -186.4211 -86.795372 -183.07465 C -86.842092 -175.15518 -80.459903 -168.69733 -72.540428 -168.65072 C -64.621155 -168.60402 -58.163395 -174.98588 -58.116503 -182.90515 C -58.102813 -186.26049 -59.266203 -189.5144 -61.404157 -192.10045 C -60.83125 -190.6836 -60.536835 -189.16959 -60.537027 -187.64129 C -60.575787 -181.07411 -65.930869 -175.78172 -72.498054 -175.82031 C -79.065241 -175.85911 -84.357627 -181.21415 -84.319038 -187.78134 C -84.309338 -189.30285 -84.007827 -190.80837 -83.43072 -192.21621 z M -60.484317 -120.07436 C -55.949458 -119.84761 -52.265015 -118.85557 -49.430728 -117.09831 L -69.667219 -83.767013 L -56.657677 -83.767013 L -55.8076 -97.626632 C -53.993656 -97.626632 -52.689811 -97.995076 -51.89621 -98.731991 C -51.045924 -99.468905 -50.39426 -100.71611 -49.940774 -102.47336 L -45.094042 -102.47336 L -45.179308 -83.341716 C -43.02525 -82.718173 -40.304271 -82.066508 -37.016499 -81.38628 L -37.441279 -77.304875 L -45.604088 -77.304875 L -45.604088 -62.084615 L -56.657677 -62.084615 L -56.657677 -77.304875 L -81.231371 -77.304875 L -81.911433 -80.36567 L -60.484317 -120.07436 z M -128.42229 -119.73381 C -124.73772 -119.73381 -121.47784 -119.11073 -118.64356 -117.86364 C -115.80927 -116.67324 -113.5986 -114.97237 -112.0114 -112.76163 C -110.4242 -110.60757 -109.63067 -108.11368 -109.63067 -105.27939 C -109.63067 -102.10499 -110.56607 -99.384015 -112.4367 -97.116586 C -114.30733 -94.849156 -117.08495 -93.120223 -120.76953 -91.929822 C -116.1213 -90.909479 -112.86194 -89.237189 -110.99131 -86.913074 C -109.12068 -84.588959 -108.18528 -81.442892 -108.18528 -77.474891 C -108.18528 -74.017061 -109.23397 -71.069506 -111.33134 -68.632019 C -113.37203 -66.194533 -116.03636 -64.380375 -119.32414 -63.189974 C -122.61191 -61.999574 -126.01313 -61.404554 -129.52765 -61.404554 C -134.62936 -61.404554 -138.96547 -62.453243 -142.53667 -64.550615 C -146.05119 -66.647987 -147.8087 -69.510317 -147.8087 -73.138204 C -147.8087 -75.235577 -147.1851 -76.851222 -145.93802 -77.984937 C -144.69093 -79.175337 -143.13193 -79.770358 -141.2613 -79.770358 C -139.33398 -79.770358 -137.37847 -79.005405 -135.39447 -77.474891 C -135.90464 -76.397862 -136.1598 -75.094016 -136.1598 -73.563501 C -136.1598 -71.749558 -135.62091 -70.275781 -134.54388 -69.142066 C -133.41016 -68.008351 -131.73839 -67.441394 -129.52765 -67.441394 C -124.65267 -67.441394 -122.21492 -70.814037 -122.21492 -77.55964 C -122.21492 -81.244213 -123.40547 -84.10706 -125.78627 -86.147746 C -128.11039 -88.188433 -131.42639 -89.208541 -135.7345 -89.208541 L -135.7345 -94.480571 C -127.4017 -95.1608 -123.23553 -98.760535 -123.23553 -105.27939 C -123.23553 -108.56717 -123.74532 -110.97583 -124.76566 -112.50634 C -125.78601 -114.09354 -127.17508 -114.88759 -128.93234 -114.88759 C -131.02971 -114.88759 -132.61677 -114.15071 -133.6938 -112.67688 C -134.71414 -111.20305 -135.22446 -109.41747 -135.22446 -107.3201 C -135.22446 -105.44947 -134.82743 -103.77718 -134.03383 -102.30335 C -135.62103 -100.60278 -137.66177 -99.752084 -140.15594 -99.752084 C -142.42337 -99.752084 -144.18088 -100.43233 -145.42797 -101.79279 C -146.67506 -103.15324 -147.29866 -104.91076 -147.29866 -107.06482 C -147.29866 -109.8991 -146.33467 -112.25164 -144.40736 -114.12227 C -142.42336 -116.04958 -139.98612 -117.46671 -137.09514 -118.37369 C -134.14749 -119.28066 -131.25658 -119.73381 -128.42229 -119.73381 z M -12.272789 -119.64906 C -5.6405582 -119.64906 -0.56756194 -117.15466 2.9469536 -112.16631 C 6.5181549 -107.23465 8.3037326 -100.06428 8.3037326 -90.654448 C 8.3037326 -81.244616 6.5181549 -74.017081 2.9469536 -68.97205 C -0.56756194 -63.983706 -5.6405582 -61.489303 -12.272789 -61.489303 C -18.90502 -61.489303 -24.007114 -63.983706 -27.578315 -68.97205 C -31.149516 -74.017081 -32.935094 -81.244616 -32.935094 -90.654448 C -32.935094 -100.00759 -31.149516 -107.17797 -27.578315 -112.16631 C -24.007114 -117.15466 -18.90502 -119.64906 -12.272789 -119.64906 z M -12.272789 -115.31237 C -15.163762 -115.31237 -17.26114 -113.41351 -18.564912 -109.61556 C -19.811998 -105.81762 -20.435598 -99.497422 -20.435598 -90.654448 C -20.435598 -81.868159 -19.811998 -75.576025 -18.564912 -71.778081 C -17.26114 -68.036822 -15.163762 -66.16602 -12.272789 -66.16602 C -9.3818167 -66.16602 -7.3130191 -68.036822 -6.0659329 -71.778081 C -4.762161 -75.576025 -4.1104967 -81.868159 -4.1104967 -90.654448 C -4.1104967 -99.440737 -4.762161 -105.73287 -6.0659329 -109.53081 C -7.3130191 -113.38544 -9.3818167 -115.31237 -12.272789 -115.31237 z M -93.135037 -101.28274 C -91.151036 -101.28274 -89.677259 -100.68772 -88.713601 -99.497319 C -87.693258 -98.363604 -87.183462 -96.776539 -87.183462 -94.735852 C -87.183462 -92.695166 -87.693258 -91.107584 -88.713601 -89.973869 C -89.677259 -88.840154 -91.151036 -88.273198 -93.135037 -88.273198 C -95.119038 -88.273198 -96.621395 -88.840154 -97.641739 -89.973869 C -98.605396 -91.16427 -99.087128 -92.751852 -99.087128 -94.735852 C -99.087128 -96.833225 -98.605396 -98.448354 -97.641739 -99.582068 C -96.621395 -100.71578 -95.119038 -101.28274 -93.135037 -101.28274 z M -93.135037 -74.498845 C -91.151036 -74.498845 -89.677259 -73.903824 -88.713601 -72.713424 C -87.693258 -71.579709 -87.183462 -69.992127 -87.183462 -67.951441 C -87.183462 -65.910754 -87.693258 -64.323689 -88.713601 -63.189974 C -89.677259 -62.05626 -91.151036 -61.489303 -93.135037 -61.489303 C -95.119038 -61.489303 -96.621395 -62.05626 -97.641739 -63.189974 C -98.605396 -64.380375 -99.087128 -65.96744 -99.087128 -67.951441 C -99.087128 -70.048813 -98.605396 -71.664459 -97.641739 -72.798173 C -96.621395 -73.931888 -95.119038 -74.498845 -93.135037 -74.498845 z " /></g></svg>
