<?xml version="1.0" encoding="UTF-8" standalone="no"?>
<!-- Created with Inkscape (http://www.inkscape.org/) -->

<svg
   width="172.6701mm"
   height="172.6701mm"
   viewBox="0 0 172.6701 172.6701"
   version="1.1"
   id="svg1"
   xml:space="preserve"
   xmlns="http://www.w3.org/2000/svg"
   xmlns:svg="http://www.w3.org/2000/svg"><defs
     id="defs1" /><g
     id="layer1"
     transform="translate(157.25102,198.81012)"><path
       id="path5"
       style="fill:#ffffff;fill-opacity:1;stroke-width:0.805188;stroke-linecap:round;stroke-linejoin:round"
       d="M -2.0863309 -198.17657 L -10.088943 -183.11289 L -10.930235 -165.68398 L -19.198981 -165.68398 L -11.423229 -155.47426 L -12.166336 -140.07934 C -28.353216 -157.12094 -50.823548 -166.77435 -74.327399 -166.78417 C -103.64471 -166.77397 -130.92652 -151.79225 -146.66717 -127.05894 L -157.25102 -127.05894 L -149.61996 -115.86014 L -157.25102 -26.140039 L -8.5138455 -26.140039 L 15.419061 -26.140039 L 8.0799737 -154.80195 L 15.419061 -165.68398 L 7.4593397 -165.68398 L 6.4490654 -183.39297 L -2.0863309 -198.17657 z M -83.43072 -192.21621 C -85.584619 -189.65499 -86.77489 -186.4211 -86.795372 -183.07465 C -86.842092 -175.15518 -80.459903 -168.69733 -72.540428 -168.65072 C -64.621155 -168.60402 -58.163395 -174.98588 -58.116503 -182.90515 C -58.102813 -186.26049 -59.266203 -189.5144 -61.404157 -192.10045 C -60.83125 -190.6836 -60.536835 -189.16959 -60.537027 -187.64129 C -60.575787 -181.07411 -65.930869 -175.78172 -72.498054 -175.82031 C -79.065241 -175.85911 -84.357627 -181.21415 -84.319038 -187.78134 C -84.309338 -189.30285 -84.007827 -190.80837 -83.43072 -192.21621 z M -61.334394 -120.07436 C -56.799535 -119.84761 -53.115092 -118.85557 -50.280805 -117.09831 L -70.517296 -83.767013 L -57.508271 -83.767013 L -56.657677 -97.626632 C -54.843733 -97.626632 -53.540405 -97.995076 -52.746805 -98.731991 C -51.896518 -99.468905 -51.244337 -100.71611 -50.790852 -102.47336 L -45.944119 -102.47336 L -46.029385 -83.341716 C -43.875327 -82.718173 -41.154348 -82.066508 -37.866576 -81.38628 L -38.291873 -77.304875 L -46.454682 -77.304875 L -46.454682 -62.084615 L -57.508271 -62.084615 L -57.508271 -77.304875 L -82.081448 -77.304875 L -82.76151 -80.36567 L -61.334394 -120.07436 z M -14.313492 -120.07436 C -9.7786327 -119.84761 -6.0941894 -118.85557 -3.2599026 -117.09831 L -23.49691 -83.767013 L -10.487368 -83.767013 L -9.6372912 -97.626632 C -7.8233476 -97.626632 -6.5195023 -97.995076 -5.725902 -98.731991 C -4.875616 -99.468905 -4.2234349 -100.71611 -3.769949 -102.47336 L 1.0762668 -102.47336 L 0.99151743 -83.341716 C 3.1455754 -82.718173 5.866554 -82.066508 9.1543267 -81.38628 L 8.7290296 -77.304875 L 0.5662204 -77.304875 L 0.5662204 -62.084615 L -10.487368 -62.084615 L -10.487368 -77.304875 L -35.060546 -77.304875 L -35.741124 -80.36567 L -14.313492 -120.07436 z M -129.27237 -119.73381 C -125.58779 -119.73381 -122.32844 -119.11073 -119.49415 -117.86364 C -116.65986 -116.67324 -114.4492 -114.97237 -112.862 -112.76163 C -111.2748 -110.60757 -110.48075 -108.11368 -110.48075 -105.27939 C -110.48075 -102.10499 -111.41615 -99.384015 -113.28678 -97.116586 C -115.15741 -94.849156 -117.93503 -93.120223 -121.6196 -91.929822 C -116.97137 -90.909479 -113.71202 -89.237189 -111.84139 -86.913074 C -109.97076 -84.588959 -109.03536 -81.442892 -109.03536 -77.474891 C -109.03536 -74.017061 -110.08405 -71.069506 -112.18142 -68.632019 C -114.22211 -66.194533 -116.88644 -64.380375 -120.17421 -63.189974 C -123.46199 -61.999574 -126.86321 -61.404554 -130.37772 -61.404554 C -135.47944 -61.404554 -139.81607 -62.453243 -143.38727 -64.550615 C -146.90178 -66.647987 -148.65878 -69.510317 -148.65878 -73.138204 C -148.65878 -75.235577 -148.03518 -76.851222 -146.78809 -77.984937 C -145.54101 -79.175337 -143.982 -79.770358 -142.11138 -79.770358 C -140.18406 -79.770358 -138.22855 -79.005405 -136.24455 -77.474891 C -136.75472 -76.397862 -137.00988 -75.094016 -137.00988 -73.563501 C -137.00988 -71.749558 -136.4715 -70.275781 -135.39447 -69.142066 C -134.26076 -68.008351 -132.58847 -67.441394 -130.37772 -67.441394 C -125.50275 -67.441394 -123.06499 -70.814037 -123.06499 -77.55964 C -123.06499 -81.244213 -124.25555 -84.10706 -126.63635 -86.147746 C -128.96047 -88.188433 -132.27647 -89.208541 -136.58458 -89.208541 L -136.58458 -94.480571 C -128.25178 -95.1608 -124.0856 -98.760535 -124.0856 -105.27939 C -124.0856 -108.56717 -124.59592 -110.97583 -125.61626 -112.50634 C -126.6366 -114.09354 -128.02515 -114.88759 -129.78241 -114.88759 C -131.87978 -114.88759 -133.46685 -114.15071 -134.54388 -112.67688 C -135.56422 -111.20305 -136.07453 -109.41747 -136.07453 -107.3201 C -136.07453 -105.44947 -135.67803 -103.77718 -134.88443 -102.30335 C -136.47163 -100.60278 -138.51184 -99.752084 -141.00602 -99.752084 C -143.27345 -99.752084 -145.03096 -100.43233 -146.27805 -101.79279 C -147.52513 -103.15324 -148.14873 -104.91076 -148.14873 -107.06482 C -148.14873 -109.8991 -147.18475 -112.25164 -145.25744 -114.12227 C -143.27344 -116.04958 -140.83619 -117.46671 -137.94522 -118.37369 C -134.99756 -119.28066 -132.10665 -119.73381 -129.27237 -119.73381 z M -93.985631 -101.28274 C -92.00163 -101.28274 -90.527853 -100.68772 -89.564195 -99.497319 C -88.543852 -98.363604 -88.03354 -96.776539 -88.03354 -94.735852 C -88.03354 -92.695166 -88.543852 -91.107584 -89.564195 -89.973869 C -90.527853 -88.840154 -92.00163 -88.273198 -93.985631 -88.273198 C -95.969632 -88.273198 -97.471473 -88.840154 -98.491816 -89.973869 C -99.455473 -91.16427 -99.937722 -92.751852 -99.937722 -94.735852 C -99.937722 -96.833225 -99.455473 -98.448354 -98.491816 -99.582068 C -97.471473 -100.71578 -95.969632 -101.28274 -93.985631 -101.28274 z M -93.985631 -74.498845 C -92.00163 -74.498845 -90.527853 -73.903824 -89.564195 -72.713424 C -88.543852 -71.579709 -88.03354 -69.992127 -88.03354 -67.951441 C -88.03354 -65.910754 -88.543852 -64.323689 -89.564195 -63.189974 C -90.527853 -62.05626 -92.00163 -61.489303 -93.985631 -61.489303 C -95.969632 -61.489303 -97.471473 -62.05626 -98.491816 -63.189974 C -99.455473 -64.380375 -99.937722 -65.96744 -99.937722 -67.951441 C -99.937722 -70.048813 -99.455473 -71.664459 -98.491816 -72.798173 C -97.471473 -73.931888 -95.969632 -74.498845 -93.985631 -74.498845 z " /></g></svg>
