<?xml version="1.0" encoding="UTF-8" standalone="no"?>
<!-- Created with Inkscape (http://www.inkscape.org/) -->

<svg
   width="172.6701mm"
   height="172.6701mm"
   viewBox="0 0 172.6701 172.6701"
   version="1.1"
   id="svg1"
   xml:space="preserve"
   xmlns="http://www.w3.org/2000/svg"
   xmlns:svg="http://www.w3.org/2000/svg"><defs
     id="defs1" /><g
     id="layer1"
     transform="translate(157.25102,198.81012)"><path
       id="path5"
       style="fill:#ffffff;fill-opacity:1;stroke-width:0.805188;stroke-linecap:round;stroke-linejoin:round"
       d="M -2.0863309 -198.17657 L -10.088943 -183.11289 L -10.930235 -165.68398 L -19.198981 -165.68398 L -11.423229 -155.47426 L -12.166336 -140.07934 C -28.353216 -157.12094 -50.823548 -166.77435 -74.327399 -166.78417 C -103.64471 -166.77397 -130.92652 -151.79225 -146.66717 -127.05894 L -157.25102 -127.05894 L -149.61996 -115.86014 L -157.25102 -26.140039 L -8.5138455 -26.140039 L 15.419061 -26.140039 L 8.0799737 -154.80195 L 15.419061 -165.68398 L 7.4593397 -165.68398 L 6.4490654 -183.39297 L -2.0863309 -198.17657 z M -83.43072 -192.21621 C -85.584619 -189.65499 -86.77489 -186.4211 -86.795372 -183.07465 C -86.842092 -175.15518 -80.459903 -168.69733 -72.540428 -168.65072 C -64.621155 -168.60402 -58.163395 -174.98588 -58.116503 -182.90515 C -58.102813 -186.26049 -59.266203 -189.5144 -61.404157 -192.10045 C -60.83125 -190.6836 -60.536835 -189.16959 -60.537027 -187.64129 C -60.575787 -181.07411 -65.930869 -175.78172 -72.498054 -175.82031 C -79.065241 -175.85911 -84.357627 -181.21415 -84.319038 -187.78134 C -84.309338 -189.30285 -84.007827 -190.80837 -83.43072 -192.21621 z M -59.931379 -120.07436 C -55.39652 -119.84761 -51.712077 -118.85557 -48.87779 -117.09831 L -69.114798 -83.767013 L -56.105256 -83.767013 L -55.255179 -97.626632 C -53.441235 -97.626632 -52.13739 -97.995076 -51.343789 -98.731991 C -50.493503 -99.468905 -49.841322 -100.71611 -49.387836 -102.47336 L -44.541104 -102.47336 L -44.62637 -83.341716 C -42.472312 -82.718173 -39.751333 -82.066508 -36.463561 -81.38628 L -36.888858 -77.304875 L -45.051667 -77.304875 L -45.051667 -62.084615 L -56.105256 -62.084615 L -56.105256 -77.304875 L -80.678433 -77.304875 L -81.358495 -80.36567 L -59.931379 -120.07436 z M -127.86935 -119.73381 C -124.18478 -119.73381 -120.92542 -119.11073 -118.09114 -117.86364 C -115.25685 -116.67324 -113.04618 -114.97237 -111.45898 -112.76163 C -109.87178 -110.60757 -109.07825 -108.11368 -109.07825 -105.27939 C -109.07825 -102.10499 -110.01313 -99.384015 -111.88376 -97.116586 C -113.75439 -94.849156 -116.53202 -93.120223 -120.21659 -91.929822 C -115.56836 -90.909479 -112.309 -89.237189 -110.43837 -86.913074 C -108.56774 -84.588959 -107.63234 -81.442892 -107.63234 -77.474891 C -107.63234 -74.017061 -108.68103 -71.069506 -110.7784 -68.632019 C -112.81909 -66.194533 -115.48343 -64.380375 -118.7712 -63.189974 C -122.05897 -61.999574 -125.46019 -61.404554 -128.97471 -61.404554 C -134.07643 -61.404554 -138.41305 -62.453243 -141.98425 -64.550615 C -145.49877 -66.647987 -147.25576 -69.510317 -147.25576 -73.138204 C -147.25576 -75.235577 -146.63216 -76.851222 -145.38508 -77.984937 C -144.13799 -79.175337 -142.57951 -79.770358 -140.70888 -79.770358 C -138.78156 -79.770358 -136.82554 -79.005405 -134.84154 -77.474891 C -135.35171 -76.397862 -135.60686 -75.094016 -135.60686 -73.563501 C -135.60686 -71.749558 -135.06849 -70.275781 -133.99146 -69.142066 C -132.85774 -68.008351 -131.18545 -67.441394 -128.97471 -67.441394 C -124.09974 -67.441394 -121.66249 -70.814037 -121.66249 -77.55964 C -121.66249 -81.244213 -122.85254 -84.10706 -125.23334 -86.147746 C -127.55745 -88.188433 -130.87397 -89.208541 -135.18208 -89.208541 L -135.18208 -94.480571 C -126.84928 -95.1608 -122.68259 -98.760535 -122.68259 -105.27939 C -122.68259 -108.56717 -123.1929 -110.97583 -124.21324 -112.50634 C -125.23359 -114.09354 -126.62214 -114.88759 -128.3794 -114.88759 C -130.47677 -114.88759 -132.06435 -114.15071 -133.14138 -112.67688 C -134.16172 -111.20305 -134.67152 -109.41747 -134.67152 -107.3201 C -134.67152 -105.44947 -134.27501 -103.77718 -133.48141 -102.30335 C -135.06861 -100.60278 -137.10935 -99.752084 -139.60352 -99.752084 C -141.87095 -99.752084 -143.62795 -100.43233 -144.87503 -101.79279 C -146.12212 -103.15324 -146.74572 -104.91076 -146.74572 -107.06482 C -146.74572 -109.8991 -145.78225 -112.25164 -143.85494 -114.12227 C -141.87094 -116.04958 -139.43318 -117.46671 -136.54221 -118.37369 C -133.59455 -119.28066 -130.70364 -119.73381 -127.86935 -119.73381 z M -25.239956 -119.05375 L -20.988536 -118.969 C -14.979848 -118.85563 -11.805201 -118.79847 -11.465087 -118.79847 L 0.60859507 -118.969 L 3.0745944 -117.18306 L 2.3092665 -110.72092 L -18.777819 -110.72092 L -19.967927 -96.521273 C -17.020269 -97.258188 -14.356451 -97.626632 -11.97565 -97.626632 C -6.3637619 -97.626632 -1.8005616 -96.124274 1.713954 -93.11993 C 5.2851553 -90.172272 7.0712497 -85.836165 7.0712497 -80.110905 C 7.0712497 -76.539704 6.2205563 -73.336993 4.5199842 -70.502706 C 2.8760979 -67.66842 0.49549995 -65.429173 -2.6222155 -63.785287 C -5.7399309 -62.198086 -9.4243742 -61.404554 -13.675804 -61.404554 C -17.133634 -61.404554 -20.279701 -61.886286 -23.113988 -62.849943 C -25.891589 -63.813601 -28.074191 -65.14551 -29.661392 -66.846082 C -31.248592 -68.60334 -32.042125 -70.559366 -32.042125 -72.713424 C -32.042125 -74.980853 -31.418524 -76.709787 -30.171438 -77.900188 C -28.924352 -79.147274 -27.393931 -79.770358 -25.579987 -79.770358 C -24.559644 -79.770358 -23.539535 -79.572362 -22.519192 -79.175562 C -21.442163 -78.778762 -20.478182 -78.211805 -19.627896 -77.474891 C -20.138067 -76.28449 -20.393224 -75.037289 -20.393224 -73.733517 C -20.393224 -71.862888 -19.854847 -70.332466 -18.777819 -69.142066 C -17.644104 -67.951665 -15.943234 -67.356645 -13.675804 -67.356645 C -8.5740882 -67.356645 -6.0235582 -71.608045 -6.0235582 -80.110905 C -6.0235582 -84.135593 -6.8170909 -87.054567 -8.4042915 -88.86851 C -9.9914921 -90.73914 -12.116934 -91.674541 -14.781163 -91.674541 C -16.42505 -91.674541 -18.182564 -91.36274 -20.053193 -90.739197 C -21.923822 -90.115654 -23.766044 -89.236897 -25.579987 -88.103182 L -30.256704 -92.609884 L -28.045987 -116.75776 L -25.239956 -119.05375 z M -92.582616 -101.28274 C -90.598615 -101.28274 -89.124838 -100.68772 -88.16118 -99.497319 C -87.140837 -98.363604 -86.630524 -96.776539 -86.630524 -94.735852 C -86.630524 -92.695166 -87.140837 -91.107584 -88.16118 -89.973869 C -89.124838 -88.840154 -90.598615 -88.273198 -92.582616 -88.273198 C -94.566617 -88.273198 -96.068974 -88.840154 -97.089318 -89.973869 C -98.052975 -91.16427 -98.534707 -92.751852 -98.534707 -94.735852 C -98.534707 -96.833225 -98.052975 -98.448354 -97.089318 -99.582068 C -96.068974 -100.71578 -94.566617 -101.28274 -92.582616 -101.28274 z M -92.582616 -74.498845 C -90.598615 -74.498845 -89.124838 -73.903824 -88.16118 -72.713424 C -87.140837 -71.579709 -86.630524 -69.992127 -86.630524 -67.951441 C -86.630524 -65.910754 -87.140837 -64.323689 -88.16118 -63.189974 C -89.124838 -62.05626 -90.598615 -61.489303 -92.582616 -61.489303 C -94.566617 -61.489303 -96.068974 -62.05626 -97.089318 -63.189974 C -98.052975 -64.380375 -98.534707 -65.96744 -98.534707 -67.951441 C -98.534707 -70.048813 -98.052975 -71.664459 -97.089318 -72.798173 C -96.068974 -73.931888 -94.566617 -74.498845 -92.582616 -74.498845 z " /></g></svg>
