<?xml version="1.0" encoding="UTF-8" standalone="no"?>
<!-- Created with Inkscape (http://www.inkscape.org/) -->

<svg
   width="172.6701mm"
   height="172.6701mm"
   viewBox="0 0 172.6701 172.6701"
   version="1.1"
   id="svg1"
   xml:space="preserve"
   xmlns="http://www.w3.org/2000/svg"
   xmlns:svg="http://www.w3.org/2000/svg"><defs
     id="defs1" /><g
     id="layer1"
     transform="translate(157.25102,198.81012)"><path
       id="path5"
       style="fill:#ffffff;fill-opacity:1;stroke-width:0.805188;stroke-linecap:round;stroke-linejoin:round"
       d="M -2.0863309 -198.17657 L -10.088943 -183.11289 L -10.930235 -165.68398 L -19.198981 -165.68398 L -11.423229 -155.47426 L -12.166336 -140.07934 C -28.353216 -157.12094 -50.823548 -166.77435 -74.327399 -166.78417 C -103.64471 -166.77397 -130.92652 -151.79225 -146.66717 -127.05894 L -157.25102 -127.05894 L -149.61996 -115.86014 L -157.25102 -26.140039 L -8.5138455 -26.140039 L 15.419061 -26.140039 L 8.0799737 -154.80195 L 15.419061 -165.68398 L 7.4593397 -165.68398 L 6.4490654 -183.39297 L -2.0863309 -198.17657 z M -83.43072 -192.21621 C -85.584619 -189.65499 -86.77489 -186.4211 -86.795372 -183.07465 C -86.842092 -175.15518 -80.459903 -168.69733 -72.540428 -168.65072 C -64.621155 -168.60402 -58.163395 -174.98588 -58.116503 -182.90515 C -58.102813 -186.26049 -59.266203 -189.5144 -61.404157 -192.10045 C -60.83125 -190.6836 -60.536835 -189.16959 -60.537027 -187.64129 C -60.575787 -181.07411 -65.930869 -175.78172 -72.498054 -175.82031 C -79.065241 -175.85911 -84.357627 -181.21415 -84.319038 -187.78134 C -84.309338 -189.30285 -84.007827 -190.80837 -83.43072 -192.21621 z M -61.462035 -120.07436 C -56.927176 -119.84761 -53.242733 -118.85557 -50.408446 -117.09831 L -70.644937 -83.767013 L -57.635912 -83.767013 L -56.785318 -97.626632 C -54.971374 -97.626632 -53.667529 -97.995076 -52.873929 -98.731991 C -52.023643 -99.468905 -51.371978 -100.71611 -50.918492 -102.47336 L -46.07176 -102.47336 L -46.157026 -83.341716 C -44.002968 -82.718173 -41.281989 -82.066508 -37.994217 -81.38628 L -38.418997 -77.304875 L -46.581806 -77.304875 L -46.581806 -62.084615 L -57.635912 -62.084615 L -57.635912 -77.304875 L -82.209089 -77.304875 L -82.889151 -80.36567 L -61.462035 -120.07436 z M -12.570445 -119.81908 C -6.6184433 -119.81908 -1.885311 -118.54381 1.6292046 -115.99295 C 5.1437202 -113.44209 6.9007175 -110.01229 6.9007175 -105.70418 C 6.9007175 -103.38006 6.0505408 -101.05611 4.3499688 -98.731991 C 2.6493967 -96.407876 0.41066712 -94.50901 -2.3669339 -93.035181 C 1.1475817 -91.334609 3.896624 -89.350519 5.8806247 -87.08309 C 7.9213112 -84.81566 8.9414198 -81.896169 8.9414198 -78.324968 C 8.9414198 -73.166566 7.0711345 -69.057034 3.329876 -65.996005 C -0.41138252 -62.991661 -5.4563152 -61.489303 -11.805117 -61.489303 C -18.777463 -61.489303 -24.162776 -62.878373 -27.960721 -65.655974 C -31.701979 -68.433575 -33.572781 -72.401238 -33.572781 -77.55964 C -33.572781 -80.223869 -32.722604 -82.86014 -31.022032 -85.467684 C -29.32146 -88.131914 -26.940346 -90.483931 -23.879316 -92.524618 C -26.430174 -93.941761 -28.414264 -95.642631 -29.831407 -97.626632 C -31.248551 -99.610633 -31.956859 -102.07646 -31.956859 -105.02411 C -31.956859 -109.55897 -30.199862 -113.15871 -26.685346 -115.82294 C -23.170831 -118.48717 -18.465762 -119.81908 -12.570445 -119.81908 z M -129.40001 -119.73381 C -125.71543 -119.73381 -122.45608 -119.11073 -119.62179 -117.86364 C -116.78751 -116.67324 -114.57632 -114.97237 -112.98912 -112.76163 C -111.40192 -110.60757 -110.60839 -108.11368 -110.60839 -105.27939 C -110.60839 -102.10499 -111.54379 -99.384015 -113.41442 -97.116586 C -115.28505 -94.849156 -118.06267 -93.120223 -121.74724 -91.929822 C -117.09901 -90.909479 -113.83966 -89.237189 -111.96903 -86.913074 C -110.0984 -84.588959 -109.163 -81.442892 -109.163 -77.474891 C -109.163 -74.017061 -110.21169 -71.069506 -112.30906 -68.632019 C -114.34975 -66.194533 -117.01408 -64.380375 -120.30185 -63.189974 C -123.58963 -61.999574 -126.99085 -61.404554 -130.50537 -61.404554 C -135.60708 -61.404554 -139.94319 -62.453243 -143.51439 -64.550615 C -147.02891 -66.647987 -148.78642 -69.510317 -148.78642 -73.138204 C -148.78642 -75.235577 -148.16282 -76.851222 -146.91573 -77.984937 C -145.66865 -79.175337 -144.10965 -79.770358 -142.23902 -79.770358 C -140.3117 -79.770358 -138.35619 -79.005405 -136.37219 -77.474891 C -136.88236 -76.397862 -137.13752 -75.094016 -137.13752 -73.563501 C -137.13752 -71.749558 -136.59914 -70.275781 -135.52211 -69.142066 C -134.3884 -68.008351 -132.71611 -67.441394 -130.50537 -67.441394 C -125.63039 -67.441394 -123.19263 -70.814037 -123.19263 -77.55964 C -123.19263 -81.244213 -124.38319 -84.10706 -126.76399 -86.147746 C -129.08811 -88.188433 -132.40411 -89.208541 -136.71222 -89.208541 L -136.71222 -94.480571 C -128.37942 -95.1608 -124.21324 -98.760535 -124.21324 -105.27939 C -124.21324 -108.56717 -124.72304 -110.97583 -125.74338 -112.50634 C -126.76373 -114.09354 -128.1528 -114.88759 -129.91005 -114.88759 C -132.00743 -114.88759 -133.59449 -114.15071 -134.67152 -112.67688 C -135.69186 -111.20305 -136.20218 -109.41747 -136.20218 -107.3201 C -136.20218 -105.44947 -135.80515 -103.77718 -135.01155 -102.30335 C -136.59875 -100.60278 -138.63949 -99.752084 -141.13366 -99.752084 C -143.40109 -99.752084 -145.1586 -100.43233 -146.40569 -101.79279 C -147.65277 -103.15324 -148.27637 -104.91076 -148.27637 -107.06482 C -148.27637 -109.8991 -147.31239 -112.25164 -145.38508 -114.12227 C -143.40108 -116.04958 -140.96383 -117.46671 -138.07286 -118.37369 C -135.1252 -119.28066 -132.23429 -119.73381 -129.40001 -119.73381 z M -12.570445 -113.78224 C -14.837875 -113.78224 -16.623453 -113.04535 -17.927224 -111.57152 C -19.230996 -110.15437 -19.883177 -108.22693 -19.883177 -105.78944 C -19.883177 -103.63538 -19.061064 -101.84981 -17.417178 -100.43266 C -15.716606 -99.072205 -13.250784 -97.711715 -10.019697 -96.351258 C -8.6025534 -97.314915 -7.46864 -98.646824 -6.618354 -100.3474 C -5.768068 -102.04797 -5.3429796 -103.86213 -5.3429796 -105.78944 C -5.3429796 -108.22693 -6.0232243 -110.15437 -7.3836819 -111.57152 C -8.6874539 -113.04535 -10.416388 -113.78224 -12.570445 -113.78224 z M -94.113272 -101.28274 C -92.129271 -101.28274 -90.654977 -100.68772 -89.691319 -99.497319 C -88.670976 -98.363604 -88.16118 -96.776539 -88.16118 -94.735852 C -88.16118 -92.695166 -88.670976 -91.107584 -89.691319 -89.973869 C -90.654977 -88.840154 -92.129271 -88.273198 -94.113272 -88.273198 C -96.097273 -88.273198 -97.599113 -88.840154 -98.619457 -89.973869 C -99.583114 -91.16427 -100.06485 -92.751852 -100.06485 -94.735852 C -100.06485 -96.833225 -99.583114 -98.448354 -98.619457 -99.582068 C -97.599113 -100.71578 -96.097273 -101.28274 -94.113272 -101.28274 z M -16.056538 -89.038526 C -17.75711 -87.678068 -19.004311 -86.119583 -19.797911 -84.362325 C -20.591512 -82.605068 -20.988536 -80.50769 -20.988536 -78.070203 C -20.988536 -74.725745 -20.166423 -72.089474 -18.522537 -70.162159 C -16.878651 -68.291529 -14.639404 -67.356645 -11.805117 -67.356645 C -9.0275165 -67.356645 -6.8734945 -68.291529 -5.3429796 -70.162159 C -3.7557791 -72.032788 -2.9622464 -74.640479 -2.9622464 -77.984937 C -2.9622464 -79.855566 -3.5577835 -81.442631 -4.7481839 -82.746403 C -5.8818986 -84.106861 -7.3270955 -85.212194 -9.0843533 -86.06248 C -10.841611 -86.969452 -13.165565 -87.961497 -16.056538 -89.038526 z M -94.113272 -74.498845 C -92.129271 -74.498845 -90.654977 -73.903824 -89.691319 -72.713424 C -88.670976 -71.579709 -88.16118 -69.992127 -88.16118 -67.951441 C -88.16118 -65.910754 -88.670976 -64.323689 -89.691319 -63.189974 C -90.654977 -62.05626 -92.129271 -61.489303 -94.113272 -61.489303 C -96.097273 -61.489303 -97.599113 -62.05626 -98.619457 -63.189974 C -99.583114 -64.380375 -100.06485 -65.96744 -100.06485 -67.951441 C -100.06485 -70.048813 -99.583114 -71.664459 -98.619457 -72.798173 C -97.599113 -73.931888 -96.097273 -74.498845 -94.113272 -74.498845 z " /></g></svg>
