<?xml version="1.0" encoding="UTF-8" standalone="no"?>
<!-- Created with Inkscape (http://www.inkscape.org/) -->

<svg
   width="172.6701mm"
   height="172.6701mm"
   viewBox="0 0 172.6701 172.6701"
   version="1.1"
   id="svg1"
   xml:space="preserve"
   xmlns="http://www.w3.org/2000/svg"
   xmlns:svg="http://www.w3.org/2000/svg"><defs
     id="defs1" /><g
     id="layer1"
     transform="translate(157.25102,198.81012)"><path
       id="path5"
       style="fill:#ffffff;fill-opacity:1;stroke-width:0.805188;stroke-linecap:round;stroke-linejoin:round"
       d="M -2.0863309 -198.17657 L -10.088943 -183.11289 L -10.930235 -165.68398 L -19.198981 -165.68398 L -11.423229 -155.47426 L -12.166336 -140.07934 C -28.353216 -157.12094 -50.823548 -166.77435 -74.327399 -166.78417 C -103.64471 -166.77397 -130.92652 -151.79225 -146.66717 -127.05894 L -157.25102 -127.05894 L -149.61996 -115.86014 L -157.25102 -26.140039 L -8.5138455 -26.140039 L 15.419061 -26.140039 L 8.0799737 -154.80195 L 15.419061 -165.68398 L 7.4593397 -165.68398 L 6.4490654 -183.39297 L -2.0863309 -198.17657 z M -83.43072 -192.21621 C -85.584619 -189.65499 -86.77489 -186.4211 -86.795372 -183.07465 C -86.842092 -175.15518 -80.459903 -168.69733 -72.540428 -168.65072 C -64.621155 -168.60402 -58.163395 -174.98588 -58.116503 -182.90515 C -58.102813 -186.26049 -59.266203 -189.5144 -61.404157 -192.10045 C -60.83125 -190.6836 -60.536835 -189.16959 -60.537027 -187.64129 C -60.575787 -181.07411 -65.930869 -175.78172 -72.498054 -175.82031 C -79.065241 -175.85911 -84.357627 -181.21415 -84.319038 -187.78134 C -84.309338 -189.30285 -84.007827 -190.80837 -83.43072 -192.21621 z M -60.526691 -120.07436 C -55.991833 -119.84761 -52.307389 -118.85557 -49.473103 -117.09831 L -69.709593 -83.767013 L -56.700568 -83.767013 L -55.849974 -97.626632 C -54.036031 -97.626632 -52.732185 -97.995076 -51.938585 -98.731991 C -51.088299 -99.468905 -50.436635 -100.71611 -49.983149 -102.47336 L -45.136416 -102.47336 L -45.221682 -83.341716 C -43.067625 -82.718173 -40.346646 -82.066508 -37.058873 -81.38628 L -37.48417 -77.304875 L -45.646463 -77.304875 L -45.646463 -62.084615 L -56.700568 -62.084615 L -56.700568 -77.304875 L -81.273745 -77.304875 L -81.953807 -80.36567 L -60.526691 -120.07436 z M -128.46466 -119.73381 C -124.78009 -119.73381 -121.52074 -119.11073 -118.68645 -117.86364 C -115.85216 -116.67324 -113.6415 -114.97237 -112.0543 -112.76163 C -110.46709 -110.60757 -109.67305 -108.11368 -109.67305 -105.27939 C -109.67305 -102.10499 -110.60845 -99.384015 -112.47908 -97.116586 C -114.34971 -94.849156 -117.12733 -93.120223 -120.8119 -91.929822 C -116.16367 -90.909479 -112.90432 -89.237189 -111.03369 -86.913074 C -109.16306 -84.588959 -108.22766 -81.442892 -108.22766 -77.474891 C -108.22766 -74.017061 -109.27634 -71.069506 -111.37372 -68.632019 C -113.4144 -66.194533 -116.07874 -64.380375 -119.36651 -63.189974 C -122.65428 -61.999574 -126.05551 -61.404554 -129.57002 -61.404554 C -134.67174 -61.404554 -139.00836 -62.453243 -142.57956 -64.550615 C -146.09408 -66.647987 -147.85108 -69.510317 -147.85108 -73.138204 C -147.85108 -75.235577 -147.22748 -76.851222 -145.98039 -77.984937 C -144.7333 -79.175337 -143.1743 -79.770358 -141.30367 -79.770358 C -139.37636 -79.770358 -137.42085 -79.005405 -135.43685 -77.474891 C -135.94702 -76.397862 -136.20218 -75.094016 -136.20218 -73.563501 C -136.20218 -71.749558 -135.6638 -70.275781 -134.58677 -69.142066 C -133.45306 -68.008351 -131.78077 -67.441394 -129.57002 -67.441394 C -124.69505 -67.441394 -122.25729 -70.814037 -122.25729 -77.55964 C -122.25729 -81.244213 -123.44785 -84.10706 -125.82865 -86.147746 C -128.15276 -88.188433 -131.46876 -89.208541 -135.77688 -89.208541 L -135.77688 -94.480571 C -127.44408 -95.1608 -123.2779 -98.760535 -123.2779 -105.27939 C -123.2779 -108.56717 -123.78821 -110.97583 -124.80856 -112.50634 C -125.8289 -114.09354 -127.21745 -114.88759 -128.97471 -114.88759 C -131.07208 -114.88759 -132.65915 -114.15071 -133.73618 -112.67688 C -134.75652 -111.20305 -135.26683 -109.41747 -135.26683 -107.3201 C -135.26683 -105.44947 -134.86981 -103.77718 -134.07621 -102.30335 C -135.66341 -100.60278 -137.70414 -99.752084 -140.19831 -99.752084 C -142.46574 -99.752084 -144.22326 -100.43233 -145.47034 -101.79279 C -146.71743 -103.15324 -147.34103 -104.91076 -147.34103 -107.06482 C -147.34103 -109.8991 -146.37705 -112.25164 -144.44973 -114.12227 C -142.46573 -116.04958 -140.02849 -117.46671 -137.13752 -118.37369 C -134.18986 -119.28066 -131.29895 -119.73381 -128.46466 -119.73381 z M -12.740461 -119.56379 C -5.9948584 -119.56379 -0.83663781 -117.69351 2.7345635 -113.95225 C 6.3624505 -110.21099 8.1766086 -104.7971 8.1766086 -97.711381 C 8.1766086 -88.811721 5.3989859 -81.216258 -0.15621613 -74.924142 C -5.6547324 -68.688711 -13.647736 -64.09693 -24.134597 -61.149272 L -26.1753 -65.400692 C -20.506726 -67.838179 -15.943526 -70.956182 -12.485696 -74.754126 C -9.0278663 -78.608756 -6.7319759 -83.086732 -5.5982612 -88.188448 C -8.7726624 -86.601248 -11.862085 -85.807715 -14.866429 -85.807715 C -20.535003 -85.807715 -25.012979 -87.338137 -28.300751 -90.399166 C -31.531838 -93.460196 -33.147484 -97.598308 -33.147484 -102.8134 C -33.147484 -106.04448 -32.297307 -108.93539 -30.596735 -111.48625 C -28.839478 -114.03711 -26.430299 -116.0212 -23.36927 -117.43834 C -20.251554 -118.85549 -16.708462 -119.56379 -12.740461 -119.56379 z M -13.251024 -113.69697 C -15.688511 -113.69697 -17.558796 -112.76157 -18.862568 -110.89094 C -20.16634 -109.02031 -20.818521 -106.35597 -20.818521 -102.89814 C -20.818521 -99.383629 -20.109696 -96.634587 -18.692552 -94.650586 C -17.218723 -92.723271 -15.149926 -91.759807 -12.485696 -91.759807 C -10.161581 -91.759807 -7.5824707 -92.723271 -4.7481839 -94.650586 L -4.7481839 -95.755945 C -4.7481839 -101.93469 -5.4284286 -106.46931 -6.7888862 -109.36028 C -8.1493439 -112.25126 -10.303366 -113.69697 -13.251024 -113.69697 z M -93.177928 -101.28274 C -91.193928 -101.28274 -89.72015 -100.68772 -88.756493 -99.497319 C -87.73615 -98.363604 -87.225837 -96.776539 -87.225837 -94.735852 C -87.225837 -92.695166 -87.73615 -91.107584 -88.756493 -89.973869 C -89.72015 -88.840154 -91.193928 -88.273198 -93.177928 -88.273198 C -95.161929 -88.273198 -96.66377 -88.840154 -97.684113 -89.973869 C -98.647771 -91.16427 -99.129503 -92.751852 -99.129503 -94.735852 C -99.129503 -96.833225 -98.647771 -98.448354 -97.684113 -99.582068 C -96.66377 -100.71578 -95.161929 -101.28274 -93.177928 -101.28274 z M -93.177928 -74.498845 C -91.193928 -74.498845 -89.72015 -73.903824 -88.756493 -72.713424 C -87.73615 -71.579709 -87.225837 -69.992127 -87.225837 -67.951441 C -87.225837 -65.910754 -87.73615 -64.323689 -88.756493 -63.189974 C -89.72015 -62.05626 -91.193928 -61.489303 -93.177928 -61.489303 C -95.161929 -61.489303 -96.66377 -62.05626 -97.684113 -63.189974 C -98.647771 -64.380375 -99.129503 -65.96744 -99.129503 -67.951441 C -99.129503 -70.048813 -98.647771 -71.664459 -97.684113 -72.798173 C -96.66377 -73.931888 -95.161929 -74.498845 -93.177928 -74.498845 z " /></g></svg>
