<?xml version="1.0" encoding="UTF-8" standalone="no"?>
<!-- Created with Inkscape (http://www.inkscape.org/) -->

<svg
   width="172.6701mm"
   height="172.6701mm"
   viewBox="0 0 172.6701 172.6701"
   version="1.1"
   id="svg1"
   xml:space="preserve"
   xmlns="http://www.w3.org/2000/svg"
   xmlns:svg="http://www.w3.org/2000/svg"><defs
     id="defs1" /><g
     id="layer1"
     transform="translate(157.25102,198.81012)"><path
       id="path5"
       style="fill:#ffffff;fill-opacity:1;stroke-width:0.805188;stroke-linecap:round;stroke-linejoin:round"
       d="M -2.0863309 -198.17657 L -10.088943 -183.11289 L -10.930235 -165.68398 L -19.198981 -165.68398 L -11.423229 -155.47426 L -12.166336 -140.07934 C -28.353216 -157.12094 -50.823548 -166.77435 -74.327399 -166.78417 C -103.64471 -166.77397 -130.92652 -151.79225 -146.66717 -127.05894 L -157.25102 -127.05894 L -149.61996 -115.86014 L -157.25102 -26.140039 L -8.5138455 -26.140039 L 15.419061 -26.140039 L 8.0799737 -154.80195 L 15.419061 -165.68398 L 7.4593397 -165.68398 L 6.4490654 -183.39297 L -2.0863309 -198.17657 z M -83.43072 -192.21621 C -85.584619 -189.65499 -86.77489 -186.4211 -86.795372 -183.07465 C -86.842092 -175.15518 -80.459903 -168.69733 -72.540428 -168.65072 C -64.621155 -168.60402 -58.163395 -174.98588 -58.116503 -182.90515 C -58.102813 -186.26049 -59.266203 -189.5144 -61.404157 -192.10045 C -60.83125 -190.6836 -60.536835 -189.16959 -60.537027 -187.64129 C -60.575787 -181.07411 -65.930869 -175.78172 -72.498054 -175.82031 C -79.065241 -175.85911 -84.357627 -181.21415 -84.319038 -187.78134 C -84.309338 -189.30285 -84.007827 -190.80837 -83.43072 -192.21621 z M -125.91391 -119.73381 C -122.22934 -119.73381 -118.96947 -119.11073 -116.13518 -117.86364 C -113.3009 -116.67324 -111.09023 -114.97237 -109.50303 -112.76163 C -107.91583 -110.60757 -107.1223 -108.11368 -107.1223 -105.27939 C -107.1223 -102.10499 -108.0577 -99.384015 -109.92833 -97.116586 C -111.79896 -94.849156 -114.57658 -93.120223 -118.26115 -91.929822 C -113.61292 -90.909479 -110.35357 -89.237189 -108.48294 -86.913074 C -106.61231 -84.588959 -105.67691 -81.442892 -105.67691 -77.474891 C -105.67691 -74.017061 -106.7256 -71.069506 -108.82297 -68.632019 C -110.86365 -66.194533 -113.52799 -64.380375 -116.81576 -63.189974 C -120.10353 -61.999574 -123.50476 -61.404554 -127.01927 -61.404554 C -132.12099 -61.404554 -136.4571 -62.453243 -140.0283 -64.550615 C -143.54281 -66.647987 -145.30033 -69.510317 -145.30033 -73.138204 C -145.30033 -75.235577 -144.67673 -76.851222 -143.42964 -77.984937 C -142.18256 -79.175337 -140.62355 -79.770358 -138.75292 -79.770358 C -136.82561 -79.770358 -134.8701 -79.005405 -132.8861 -77.474891 C -133.39627 -76.397862 -133.65143 -75.094016 -133.65143 -73.563501 C -133.65143 -71.749558 -133.11305 -70.275781 -132.03602 -69.142066 C -130.90231 -68.008351 -129.23002 -67.441394 -127.01927 -67.441394 C -122.1443 -67.441394 -119.70654 -70.814037 -119.70654 -77.55964 C -119.70654 -81.244213 -120.8971 -84.10706 -123.2779 -86.147746 C -125.60202 -88.188433 -128.91801 -89.208541 -133.22613 -89.208541 L -133.22613 -94.480571 C -124.89333 -95.1608 -120.72715 -98.760535 -120.72715 -105.27939 C -120.72715 -108.56717 -121.23695 -110.97583 -122.25729 -112.50634 C -123.27763 -114.09354 -124.6667 -114.88759 -126.42396 -114.88759 C -128.52133 -114.88759 -130.1084 -114.15071 -131.18543 -112.67688 C -132.20577 -111.20305 -132.71608 -109.41747 -132.71608 -107.3201 C -132.71608 -105.44947 -132.31906 -103.77718 -131.52546 -102.30335 C -133.11266 -100.60278 -135.15339 -99.752084 -137.64757 -99.752084 C -139.91499 -99.752084 -141.67251 -100.43233 -142.9196 -101.79279 C -144.16668 -103.15324 -144.79028 -104.91076 -144.79028 -107.06482 C -144.79028 -109.8991 -143.8263 -112.25164 -141.89899 -114.12227 C -139.91498 -116.04958 -137.47774 -117.46671 -134.58677 -118.37369 C -131.63911 -119.28066 -128.7482 -119.73381 -125.91391 -119.73381 z M -14.356383 -119.73381 C -8.5177522 -119.73381 -3.8693275 -118.28861 -0.4114977 -115.39764 C 3.0463321 -112.56335 4.7752658 -108.56711 4.7752658 -103.40871 C 4.7752658 -98.873849 3.0463321 -94.026912 -0.4114977 -88.86851 C -3.8693275 -83.766794 -9.5664412 -77.616529 -17.502444 -70.41744 L 5.3705783 -70.41744 L 5.3705783 -62.084615 L -33.147484 -62.084615 L -33.147484 -67.016097 C -26.855367 -73.081471 -21.951786 -78.268272 -18.437271 -82.576388 C -14.922755 -86.884504 -12.400289 -90.852684 -10.869774 -94.480571 C -9.2825735 -98.108458 -8.4890408 -101.84955 -8.4890408 -105.70418 C -8.4890408 -111.82623 -10.529775 -114.88759 -14.611148 -114.88759 C -16.425091 -114.88759 -17.898869 -114.0369 -19.032583 -112.33633 C -20.166298 -110.69244 -20.733255 -108.65171 -20.733255 -106.21422 C -20.733255 -104.51365 -20.138234 -102.89852 -18.947834 -101.36801 C -19.911491 -100.46103 -21.016824 -99.752209 -22.263911 -99.242037 C -23.454311 -98.731866 -24.644868 -98.476709 -25.835269 -98.476709 C -27.875955 -98.476709 -29.576309 -99.10031 -30.936766 -100.3474 C -32.297224 -101.65117 -32.977469 -103.52197 -32.977469 -105.95946 C -32.977469 -108.567 -32.212 -110.91953 -30.681485 -113.01691 C -29.15097 -115.11428 -26.996948 -116.75799 -24.219347 -117.94839 C -21.38506 -119.13879 -18.097641 -119.73381 -14.356383 -119.73381 z M -70.304906 -119.05375 L -66.053486 -118.969 C -60.044798 -118.85563 -56.870667 -118.79847 -56.530553 -118.79847 L -44.456354 -118.969 L -41.990355 -117.18306 L -42.755683 -110.72092 L -63.842768 -110.72092 L -65.033393 -96.521273 C -62.085735 -97.258188 -59.4214 -97.626632 -57.040599 -97.626632 C -51.428711 -97.626632 -46.865511 -96.124274 -43.350996 -93.11993 C -39.779794 -90.172272 -37.994217 -85.836165 -37.994217 -80.110905 C -37.994217 -76.539704 -38.844393 -73.336993 -40.544965 -70.502706 C -42.188852 -67.66842 -44.56945 -65.429173 -47.687165 -63.785287 C -50.80488 -62.198086 -54.489841 -61.404554 -58.741271 -61.404554 C -62.1991 -61.404554 -65.345167 -61.886286 -68.179454 -62.849943 C -70.957055 -63.813601 -73.139141 -65.14551 -74.726341 -66.846082 C -76.313542 -68.60334 -77.107075 -70.559366 -77.107075 -72.713424 C -77.107075 -74.980853 -76.483991 -76.709787 -75.236905 -77.900188 C -73.989818 -79.147274 -72.45888 -79.770358 -70.644937 -79.770358 C -69.624594 -79.770358 -68.604485 -79.572362 -67.584142 -79.175562 C -66.507113 -78.778762 -65.543648 -78.211805 -64.693362 -77.474891 C -65.203534 -76.28449 -65.458173 -75.037289 -65.458173 -73.733517 C -65.458173 -71.862888 -64.919797 -70.332466 -63.842768 -69.142066 C -62.709053 -67.951665 -61.0087 -67.356645 -58.741271 -67.356645 C -53.639554 -67.356645 -51.088508 -71.608045 -51.088508 -80.110905 C -51.088508 -84.135593 -51.88204 -87.054567 -53.469241 -88.86851 C -55.056442 -90.73914 -57.1824 -91.674541 -59.84663 -91.674541 C -61.490516 -91.674541 -63.247513 -91.36274 -65.118142 -90.739197 C -66.988772 -90.115654 -68.830993 -89.236897 -70.644937 -88.103182 L -75.321654 -92.609884 L -73.110936 -116.75776 L -70.304906 -119.05375 z M -90.626663 -101.28274 C -88.642662 -101.28274 -87.168885 -100.68772 -86.205227 -99.497319 C -85.184884 -98.363604 -84.675088 -96.776539 -84.675088 -94.735852 C -84.675088 -92.695166 -85.184884 -91.107584 -86.205227 -89.973869 C -87.168885 -88.840154 -88.642662 -88.273198 -90.626663 -88.273198 C -92.610664 -88.273198 -94.113021 -88.840154 -95.133365 -89.973869 C -96.097022 -91.16427 -96.578754 -92.751852 -96.578754 -94.735852 C -96.578754 -96.833225 -96.097022 -98.448354 -95.133365 -99.582068 C -94.113021 -100.71578 -92.610664 -101.28274 -90.626663 -101.28274 z M -90.626663 -74.498845 C -88.642662 -74.498845 -87.168885 -73.903824 -86.205227 -72.713424 C -85.184884 -71.579709 -84.675088 -69.992127 -84.675088 -67.951441 C -84.675088 -65.910754 -85.184884 -64.323689 -86.205227 -63.189974 C -87.168885 -62.05626 -88.642662 -61.489303 -90.626663 -61.489303 C -92.610664 -61.489303 -94.113021 -62.05626 -95.133365 -63.189974 C -96.097022 -64.380375 -96.578754 -65.96744 -96.578754 -67.951441 C -96.578754 -70.048813 -96.097022 -71.664459 -95.133365 -72.798173 C -94.113021 -73.931888 -92.610664 -74.498845 -90.626663 -74.498845 z " /></g></svg>
