<?xml version="1.0" encoding="UTF-8" standalone="no"?>
<!-- Created with Inkscape (http://www.inkscape.org/) -->

<svg
   width="172.6701mm"
   height="172.6701mm"
   viewBox="0 0 172.6701 172.6701"
   version="1.1"
   id="svg1"
   xml:space="preserve"
   xmlns="http://www.w3.org/2000/svg"
   xmlns:svg="http://www.w3.org/2000/svg"><defs
     id="defs1" /><g
     id="layer1"
     transform="translate(157.25102,198.81012)"><path
       id="path5"
       style="fill:#ffffff;fill-opacity:1;stroke-width:0.805188;stroke-linecap:round;stroke-linejoin:round"
       d="M -2.0863309 -198.17657 L -10.088943 -183.11289 L -10.930235 -165.68398 L -19.198981 -165.68398 L -11.423229 -155.47426 L -12.166336 -140.07934 C -28.353216 -157.12094 -50.823548 -166.77435 -74.327399 -166.78417 C -103.64471 -166.77397 -130.92652 -151.79225 -146.66717 -127.05894 L -157.25102 -127.05894 L -149.61996 -115.86014 L -157.25102 -26.140039 L -8.5138455 -26.140039 L 15.419061 -26.140039 L 8.0799737 -154.80195 L 15.419061 -165.68398 L 7.4593397 -165.68398 L 6.4490654 -183.39297 L -2.0863309 -198.17657 z M -83.43072 -192.21621 C -85.584619 -189.65499 -86.77489 -186.4211 -86.795372 -183.07465 C -86.842092 -175.15518 -80.459903 -168.69733 -72.540428 -168.65072 C -64.621155 -168.60402 -58.163395 -174.98588 -58.116503 -182.90515 C -58.102813 -186.26049 -59.266203 -189.5144 -61.404157 -192.10045 C -60.83125 -190.6836 -60.536835 -189.16959 -60.537027 -187.64129 C -60.575787 -181.07411 -65.930869 -175.78172 -72.498054 -175.82031 C -79.065241 -175.85911 -84.357627 -181.21415 -84.319038 -187.78134 C -84.309338 -189.30285 -84.007827 -190.80837 -83.43072 -192.21621 z M -126.46634 -119.73381 C -122.78176 -119.73381 -119.52241 -119.11073 -116.68812 -117.86364 C -113.85383 -116.67324 -111.64317 -114.97237 -110.05597 -112.76163 C -108.46877 -110.60757 -107.67523 -108.11368 -107.67523 -105.27939 C -107.67523 -102.10499 -108.61064 -99.384015 -110.48126 -97.116586 C -112.35189 -94.849156 -115.12952 -93.120223 -118.81409 -91.929822 C -114.16586 -90.909479 -110.90599 -89.237189 -109.03536 -86.913074 C -107.16473 -84.588959 -106.22984 -81.442892 -106.22984 -77.474891 C -106.22984 -74.017061 -107.27853 -71.069506 -109.37591 -68.632019 C -111.41659 -66.194533 -114.08041 -64.380375 -117.36818 -63.189974 C -120.65596 -61.999574 -124.05718 -61.404554 -127.57169 -61.404554 C -132.67341 -61.404554 -137.01004 -62.453243 -140.58124 -64.550615 C -144.09575 -66.647987 -145.85275 -69.510317 -145.85275 -73.138204 C -145.85275 -75.235577 -145.22967 -76.851222 -143.98258 -77.984937 C -142.73549 -79.175337 -141.17649 -79.770358 -139.30586 -79.770358 C -137.37855 -79.770358 -135.42304 -79.005405 -133.43904 -77.474891 C -133.94921 -76.397862 -134.20385 -75.094016 -134.20385 -73.563501 C -134.20385 -71.749558 -133.66547 -70.275781 -132.58844 -69.142066 C -131.45473 -68.008351 -129.78244 -67.441394 -127.57169 -67.441394 C -122.69672 -67.441394 -120.25948 -70.814037 -120.25948 -77.55964 C -120.25948 -81.244213 -121.44952 -84.10706 -123.83032 -86.147746 C -126.15444 -88.188433 -129.47095 -89.208541 -133.77907 -89.208541 L -133.77907 -94.480571 C -125.44626 -95.1608 -121.27957 -98.760535 -121.27957 -105.27939 C -121.27957 -108.56717 -121.78988 -110.97583 -122.81023 -112.50634 C -123.83057 -114.09354 -125.21912 -114.88759 -126.97638 -114.88759 C -129.07375 -114.88759 -130.66134 -114.15071 -131.73837 -112.67688 C -132.75871 -111.20305 -133.2685 -109.41747 -133.2685 -107.3201 C -133.2685 -105.44947 -132.872 -103.77718 -132.0784 -102.30335 C -133.6656 -100.60278 -135.70633 -99.752084 -138.2005 -99.752084 C -140.46793 -99.752084 -142.22493 -100.43233 -143.47202 -101.79279 C -144.7191 -103.15324 -145.3427 -104.91076 -145.3427 -107.06482 C -145.3427 -109.8991 -144.37924 -112.25164 -142.45192 -114.12227 C -140.46792 -116.04958 -138.03016 -117.46671 -135.13919 -118.37369 C -132.19153 -119.28066 -129.30062 -119.73381 -126.46634 -119.73381 z M -70.857844 -119.05375 L -66.606424 -118.969 C -60.597736 -118.85563 -57.423088 -118.79847 -57.082974 -118.79847 L -45.008776 -118.969 L -42.543293 -117.18306 L -43.308621 -110.72092 L -64.395706 -110.72092 L -65.585814 -96.521273 C -62.638156 -97.258188 -59.973821 -97.626632 -57.59302 -97.626632 C -51.981133 -97.626632 -47.417932 -96.124274 -43.903417 -93.11993 C -40.332215 -90.172272 -38.546638 -85.836165 -38.546638 -80.110905 C -38.546638 -76.539704 -39.397331 -73.336993 -41.097903 -70.502706 C -42.741789 -67.66842 -45.122387 -65.429173 -48.240103 -63.785287 C -51.357818 -62.198086 -55.042262 -61.404554 -59.293692 -61.404554 C -62.751522 -61.404554 -65.897589 -61.886286 -68.731875 -62.849943 C -71.509476 -63.813601 -73.692079 -65.14551 -75.279279 -66.846082 C -76.86648 -68.60334 -77.660013 -70.559366 -77.660013 -72.713424 C -77.660013 -74.980853 -77.036412 -76.709787 -75.789326 -77.900188 C -74.542239 -79.147274 -73.011818 -79.770358 -71.197875 -79.770358 C -70.177531 -79.770358 -69.156906 -79.572362 -68.136563 -79.175562 C -67.059534 -78.778762 -66.096069 -78.211805 -65.245783 -77.474891 C -65.755955 -76.28449 -66.011111 -75.037289 -66.011111 -73.733517 C -66.011111 -71.862888 -65.472735 -70.332466 -64.395706 -69.142066 C -63.261991 -67.951665 -61.561121 -67.356645 -59.293692 -67.356645 C -54.191976 -67.356645 -51.641446 -71.608045 -51.641446 -80.110905 C -51.641446 -84.135593 -52.434978 -87.054567 -54.022179 -88.86851 C -55.609379 -90.73914 -57.734821 -91.674541 -60.399051 -91.674541 C -62.042937 -91.674541 -63.800451 -91.36274 -65.67108 -90.739197 C -67.541709 -90.115654 -69.383931 -89.236897 -71.197875 -88.103182 L -75.874592 -92.609884 L -73.663874 -116.75776 L -70.857844 -119.05375 z M -26.642971 -119.05375 L -22.391551 -118.969 C -16.382863 -118.85563 -13.208216 -118.79847 -12.868102 -118.79847 L -0.7939033 -118.969 L 1.6715793 -117.18306 L 0.90625132 -110.72092 L -20.180834 -110.72092 L -21.370942 -96.521273 C -18.423284 -97.258188 -15.758949 -97.626632 -13.378148 -97.626632 C -7.7662603 -97.626632 -3.20306 -96.124274 0.31145559 -93.11993 C 3.8826569 -90.172272 5.6682346 -85.836165 5.6682346 -80.110905 C 5.6682346 -76.539704 4.8175411 -73.336993 3.1169691 -70.502706 C 1.4730828 -67.66842 -0.90751518 -65.429173 -4.0252306 -63.785287 C -7.142946 -62.198086 -10.827389 -61.404554 -15.078819 -61.404554 C -18.536649 -61.404554 -21.682716 -61.886286 -24.517003 -62.849943 C -27.294604 -63.813601 -29.477206 -65.14551 -31.064407 -66.846082 C -32.651608 -68.60334 -33.44514 -70.559366 -33.44514 -72.713424 C -33.44514 -74.980853 -32.82154 -76.709787 -31.574453 -77.900188 C -30.327367 -79.147274 -28.796946 -79.770358 -26.983002 -79.770358 C -25.962659 -79.770358 -24.942034 -79.572362 -23.921691 -79.175562 C -22.844662 -78.778762 -21.881197 -78.211805 -21.030911 -77.474891 C -21.541083 -76.28449 -21.796239 -75.037289 -21.796239 -73.733517 C -21.796239 -71.862888 -21.257863 -70.332466 -20.180834 -69.142066 C -19.047119 -67.951665 -17.346249 -67.356645 -15.078819 -67.356645 C -9.9771033 -67.356645 -7.4265734 -71.608045 -7.4265734 -80.110905 C -7.4265734 -84.135593 -8.220106 -87.054567 -9.8073066 -88.86851 C -11.394507 -90.73914 -13.519949 -91.674541 -16.184178 -91.674541 C -17.828065 -91.674541 -19.585579 -91.36274 -21.456208 -90.739197 C -23.326837 -90.115654 -25.169059 -89.236897 -26.983002 -88.103182 L -31.65972 -92.609884 L -29.449002 -116.75776 L -26.642971 -119.05375 z M -91.179601 -101.28274 C -89.1956 -101.28274 -87.721823 -100.68772 -86.758165 -99.497319 C -85.737822 -98.363604 -85.227509 -96.776539 -85.227509 -94.735852 C -85.227509 -92.695166 -85.737822 -91.107584 -86.758165 -89.973869 C -87.721823 -88.840154 -89.1956 -88.273198 -91.179601 -88.273198 C -93.163601 -88.273198 -94.665959 -88.840154 -95.686302 -89.973869 C -96.64996 -91.16427 -97.131692 -92.751852 -97.131692 -94.735852 C -97.131692 -96.833225 -96.64996 -98.448354 -95.686302 -99.582068 C -94.665959 -100.71578 -93.163601 -101.28274 -91.179601 -101.28274 z M -91.179601 -74.498845 C -89.1956 -74.498845 -87.721823 -73.903824 -86.758165 -72.713424 C -85.737822 -71.579709 -85.227509 -69.992127 -85.227509 -67.951441 C -85.227509 -65.910754 -85.737822 -64.323689 -86.758165 -63.189974 C -87.721823 -62.05626 -89.1956 -61.489303 -91.179601 -61.489303 C -93.163601 -61.489303 -94.665959 -62.05626 -95.686302 -63.189974 C -96.64996 -64.380375 -97.131692 -65.96744 -97.131692 -67.951441 C -97.131692 -70.048813 -96.64996 -71.664459 -95.686302 -72.798173 C -94.665959 -73.931888 -93.163601 -74.498845 -91.179601 -74.498845 z " /></g></svg>
