<?xml version="1.0" encoding="UTF-8" standalone="no"?>
<!-- Created with Inkscape (http://www.inkscape.org/) -->

<svg
   width="172.6701mm"
   height="172.6701mm"
   viewBox="0 0 172.6701 172.6701"
   version="1.1"
   id="svg1"
   xml:space="preserve"
   xmlns="http://www.w3.org/2000/svg"
   xmlns:svg="http://www.w3.org/2000/svg"><defs
     id="defs1" /><g
     id="layer1"
     transform="translate(157.25102,198.81012)"><path
       id="path5"
       style="fill:#ffffff;fill-opacity:1;stroke-width:0.805188;stroke-linecap:round;stroke-linejoin:round"
       d="M -2.0863309 -198.17657 L -10.088943 -183.11289 L -10.930235 -165.68398 L -19.198981 -165.68398 L -11.423229 -155.47426 L -12.166336 -140.07934 C -28.353216 -157.12094 -50.823548 -166.77435 -74.327399 -166.78417 C -103.64471 -166.77397 -130.92652 -151.79225 -146.66717 -127.05894 L -157.25102 -127.05894 L -149.61996 -115.86014 L -157.25102 -26.140039 L -8.5138455 -26.140039 L 15.419061 -26.140039 L 8.0799737 -154.80195 L 15.419061 -165.68398 L 7.4593397 -165.68398 L 6.4490654 -183.39297 L -2.0863309 -198.17657 z M -83.43072 -192.21621 C -85.584619 -189.65499 -86.77489 -186.4211 -86.795372 -183.07465 C -86.842092 -175.15518 -80.459903 -168.69733 -72.540428 -168.65072 C -64.621155 -168.60402 -58.163395 -174.98588 -58.116503 -182.90515 C -58.102813 -186.26049 -59.266203 -189.5144 -61.404157 -192.10045 C -60.83125 -190.6836 -60.536835 -189.16959 -60.537027 -187.64129 C -60.575787 -181.07411 -65.930869 -175.78172 -72.498054 -175.82031 C -79.065241 -175.85911 -84.357627 -181.21415 -84.319038 -187.78134 C -84.309338 -189.30285 -84.007827 -190.80837 -83.43072 -192.21621 z M -2.1545438 -119.90383 L -0.11384145 -115.65241 C -11.56436 -110.72075 -18.451514 -103.12528 -20.775629 -92.865166 C -17.487857 -94.452366 -14.37037 -95.245899 -11.422712 -95.245899 C -5.7541384 -95.245899 -1.304226 -93.715477 1.9268609 -90.654448 C 5.2146335 -87.593418 6.8583428 -83.455306 6.8583428 -78.240218 C 6.8583428 -75.009132 5.9801025 -72.118221 4.2228447 -69.567363 C 2.5222727 -67.016505 0.11309435 -65.032415 -3.0046211 -63.615271 C -6.0656508 -62.198128 -9.5801621 -61.489303 -13.548164 -61.489303 C -20.293766 -61.489303 -25.480567 -63.360105 -29.108454 -67.101363 C -32.679655 -70.842622 -34.465233 -76.255999 -34.465233 -83.341716 C -34.465233 -92.241376 -31.716191 -99.808775 -26.217674 -106.04421 C -20.662472 -112.33632 -12.641405 -116.95617 -2.1545438 -119.90383 z M -127.23166 -119.73381 C -123.54709 -119.73381 -120.28774 -119.11073 -117.45345 -117.86364 C -114.61916 -116.67324 -112.4085 -114.97237 -110.8213 -112.76163 C -109.2341 -110.60757 -108.44056 -108.11368 -108.44056 -105.27939 C -108.44056 -102.10499 -109.37545 -99.384015 -111.24608 -97.116586 C -113.11671 -94.849156 -115.89433 -93.120223 -119.5789 -91.929822 C -114.93067 -90.909479 -111.67132 -89.237189 -109.80069 -86.913074 C -107.93006 -84.588959 -106.99466 -81.442892 -106.99466 -77.474891 C -106.99466 -74.017061 -108.04335 -71.069506 -110.14072 -68.632019 C -112.1814 -66.194533 -114.84574 -64.380375 -118.13351 -63.189974 C -121.42128 -61.999574 -124.82251 -61.404554 -128.33702 -61.404554 C -133.43874 -61.404554 -137.77536 -62.453243 -141.34656 -64.550615 C -144.86108 -66.647987 -146.61808 -69.510317 -146.61808 -73.138204 C -146.61808 -75.235577 -145.99448 -76.851222 -144.74739 -77.984937 C -143.5003 -79.175337 -141.94182 -79.770358 -140.07119 -79.770358 C -138.14388 -79.770358 -136.18785 -79.005405 -134.20385 -77.474891 C -134.71402 -76.397862 -134.96918 -75.094016 -134.96918 -73.563501 C -134.96918 -71.749558 -134.4308 -70.275781 -133.35377 -69.142066 C -132.22006 -68.008351 -130.54777 -67.441394 -128.33702 -67.441394 C -123.46205 -67.441394 -121.02481 -70.814037 -121.02481 -77.55964 C -121.02481 -81.244213 -122.21485 -84.10706 -124.59565 -86.147746 C -126.91976 -88.188433 -130.23628 -89.208541 -134.5444 -89.208541 L -134.5444 -94.480571 C -126.21159 -95.1608 -122.0449 -98.760535 -122.0449 -105.27939 C -122.0449 -108.56717 -122.55521 -110.97583 -123.57556 -112.50634 C -124.5959 -114.09354 -125.98445 -114.88759 -127.74171 -114.88759 C -129.83908 -114.88759 -131.42666 -114.15071 -132.50369 -112.67688 C -133.52404 -111.20305 -134.03383 -109.41747 -134.03383 -107.3201 C -134.03383 -105.44947 -133.63732 -103.77718 -132.84372 -102.30335 C -134.43092 -100.60278 -136.47166 -99.752084 -138.96583 -99.752084 C -141.23326 -99.752084 -142.99026 -100.43233 -144.23734 -101.79279 C -145.48443 -103.15324 -146.10803 -104.91076 -146.10803 -107.06482 C -146.10803 -109.8991 -145.14457 -112.25164 -143.21725 -114.12227 C -141.23325 -116.04958 -138.79549 -117.46671 -135.90452 -118.37369 C -132.95686 -119.28066 -130.06595 -119.73381 -127.23166 -119.73381 z M -71.623172 -119.05375 L -67.371752 -118.969 C -61.363064 -118.85563 -58.188416 -118.79847 -57.848302 -118.79847 L -45.774103 -118.969 L -43.308621 -117.18306 L -44.073949 -110.72092 L -65.161034 -110.72092 L -66.351142 -96.521273 C -63.403484 -97.258188 -60.739149 -97.626632 -58.358348 -97.626632 C -52.746461 -97.626632 -48.18326 -96.124274 -44.668745 -93.11993 C -41.097543 -90.172272 -39.311966 -85.836165 -39.311966 -80.110905 C -39.311966 -76.539704 -40.162142 -73.336993 -41.862714 -70.502706 C -43.506601 -67.66842 -45.887715 -65.429173 -49.005431 -63.785287 C -52.123146 -62.198086 -55.80759 -61.404554 -60.05902 -61.404554 C -63.51685 -61.404554 -66.662917 -61.886286 -69.497203 -62.849943 C -72.274804 -63.813601 -74.457407 -65.14551 -76.044607 -66.846082 C -77.631808 -68.60334 -78.42534 -70.559366 -78.42534 -72.713424 C -78.42534 -74.980853 -77.80174 -76.709787 -76.554654 -77.900188 C -75.307567 -79.147274 -73.777146 -79.770358 -71.963203 -79.770358 C -70.942859 -79.770358 -69.922234 -79.572362 -68.901891 -79.175562 C -67.824862 -78.778762 -66.861397 -78.211805 -66.011111 -77.474891 C -66.521283 -76.28449 -66.776439 -75.037289 -66.776439 -73.733517 C -66.776439 -71.862888 -66.238063 -70.332466 -65.161034 -69.142066 C -64.027319 -67.951665 -62.326449 -67.356645 -60.05902 -67.356645 C -54.957304 -67.356645 -52.406257 -71.608045 -52.406257 -80.110905 C -52.406257 -84.135593 -53.200306 -87.054567 -54.787507 -88.86851 C -56.374707 -90.73914 -58.500149 -91.674541 -61.164379 -91.674541 C -62.808265 -91.674541 -64.565779 -91.36274 -66.436408 -90.739197 C -68.307037 -90.115654 -70.149259 -89.236897 -71.963203 -88.103182 L -76.639403 -92.609884 L -74.428685 -116.75776 L -71.623172 -119.05375 z M -91.944929 -101.28274 C -89.960928 -101.28274 -88.487151 -100.68772 -87.523493 -99.497319 C -86.50315 -98.363604 -85.992837 -96.776539 -85.992837 -94.735852 C -85.992837 -92.695166 -86.50315 -91.107584 -87.523493 -89.973869 C -88.487151 -88.840154 -89.960928 -88.273198 -91.944929 -88.273198 C -93.928929 -88.273198 -95.431287 -88.840154 -96.45163 -89.973869 C -97.415288 -91.16427 -97.89702 -92.751852 -97.89702 -94.735852 C -97.89702 -96.833225 -97.415288 -98.448354 -96.45163 -99.582068 C -95.431287 -100.71578 -93.928929 -101.28274 -91.944929 -101.28274 z M -13.803445 -89.293807 C -16.184246 -89.293807 -18.763356 -88.330343 -21.540957 -86.403028 L -21.540957 -85.297669 C -21.540957 -79.118924 -20.860713 -74.583787 -19.500255 -71.692814 C -18.139797 -68.801842 -15.985775 -67.356645 -13.038117 -67.356645 C -10.600631 -67.356645 -8.7303453 -68.291529 -7.4265734 -70.162159 C -6.1228015 -72.032788 -5.4706204 -74.697123 -5.4706204 -78.154952 C -5.4706204 -81.669468 -6.2075091 -84.390447 -7.6813382 -86.317762 C -9.0984816 -88.301762 -11.139216 -89.293807 -13.803445 -89.293807 z M -91.944929 -74.498845 C -89.960928 -74.498845 -88.487151 -73.903824 -87.523493 -72.713424 C -86.50315 -71.579709 -85.992837 -69.992127 -85.992837 -67.951441 C -85.992837 -65.910754 -86.50315 -64.323689 -87.523493 -63.189974 C -88.487151 -62.05626 -89.960928 -61.489303 -91.944929 -61.489303 C -93.928929 -61.489303 -95.431287 -62.05626 -96.45163 -63.189974 C -97.415288 -64.380375 -97.89702 -65.96744 -97.89702 -67.951441 C -97.89702 -70.048813 -97.415288 -71.664459 -96.45163 -72.798173 C -95.431287 -73.931888 -93.928929 -74.498845 -91.944929 -74.498845 z " /></g></svg>
