<?xml version="1.0" encoding="UTF-8" standalone="no"?>
<!-- Created with Inkscape (http://www.inkscape.org/) -->

<svg
   width="172.6701mm"
   height="172.6701mm"
   viewBox="0 0 172.6701 172.6701"
   version="1.1"
   id="svg1"
   xml:space="preserve"
   xmlns="http://www.w3.org/2000/svg"
   xmlns:svg="http://www.w3.org/2000/svg"><defs
     id="defs1" /><g
     id="layer1"
     transform="translate(157.25102,198.81012)"><path
       id="path5"
       style="fill:#ffffff;fill-opacity:1;stroke-width:0.805188;stroke-linecap:round;stroke-linejoin:round"
       d="M -2.0863309 -198.17657 L -10.088943 -183.11289 L -10.930235 -165.68398 L -19.198981 -165.68398 L -11.423229 -155.47426 L -12.166336 -140.07934 C -28.353216 -157.12094 -50.823548 -166.77435 -74.327399 -166.78417 C -103.64471 -166.77397 -130.92652 -151.79225 -146.66717 -127.05894 L -157.25102 -127.05894 L -149.61996 -115.86014 L -157.25102 -26.140039 L -8.5138455 -26.140039 L 15.419061 -26.140039 L 8.0799737 -154.80195 L 15.419061 -165.68398 L 7.4593397 -165.68398 L 6.4490654 -183.39297 L -2.0863309 -198.17657 z M -83.43072 -192.21621 C -85.584619 -189.65499 -86.77489 -186.4211 -86.795372 -183.07465 C -86.842092 -175.15518 -80.459903 -168.69733 -72.540428 -168.65072 C -64.621155 -168.60402 -58.163395 -174.98588 -58.116503 -182.90515 C -58.102813 -186.26049 -59.266203 -189.5144 -61.404157 -192.10045 C -60.83125 -190.6836 -60.536835 -189.16959 -60.537027 -187.64129 C -60.575787 -181.07411 -65.930869 -175.78172 -72.498054 -175.82031 C -79.065241 -175.85911 -84.357627 -181.21415 -84.319038 -187.78134 C -84.309338 -189.30285 -84.007827 -190.80837 -83.43072 -192.21621 z M -125.36098 -119.73381 C -121.6764 -119.73381 -118.41705 -119.11073 -115.58276 -117.86364 C -112.74848 -116.67324 -110.53781 -114.97237 -108.95061 -112.76163 C -107.36341 -110.60757 -106.56988 -108.11368 -106.56988 -105.27939 C -106.56988 -102.10499 -107.50476 -99.384015 -109.37539 -97.116586 C -111.24602 -94.849156 -114.02364 -93.120223 -117.70821 -91.929822 C -113.05998 -90.909479 -109.80063 -89.237189 -107.93 -86.913074 C -106.05937 -84.588959 -105.12397 -81.442892 -105.12397 -77.474891 C -105.12397 -74.017061 -106.17266 -71.069506 -108.27003 -68.632019 C -110.31072 -66.194533 -112.97505 -64.380375 -116.26282 -63.189974 C -119.5506 -61.999574 -122.95182 -61.404554 -126.46634 -61.404554 C -131.56805 -61.404554 -135.90468 -62.453243 -139.47588 -64.550615 C -142.99039 -66.647987 -144.74739 -69.510317 -144.74739 -73.138204 C -144.74739 -75.235577 -144.12379 -76.851222 -142.8767 -77.984937 C -141.62962 -79.175337 -140.07113 -79.770358 -138.2005 -79.770358 C -136.27319 -79.770358 -134.31716 -79.005405 -132.33316 -77.474891 C -132.84333 -76.397862 -133.09849 -75.094016 -133.09849 -73.563501 C -133.09849 -71.749558 -132.56011 -70.275781 -131.48308 -69.142066 C -130.34937 -68.008351 -128.67708 -67.441394 -126.46634 -67.441394 C -121.59136 -67.441394 -119.15412 -70.814037 -119.15412 -77.55964 C -119.15412 -81.244213 -120.34416 -84.10706 -122.72496 -86.147746 C -125.04908 -88.188433 -128.36559 -89.208541 -132.67371 -89.208541 L -132.67371 -94.480571 C -124.34091 -95.1608 -120.17421 -98.760535 -120.17421 -105.27939 C -120.17421 -108.56717 -120.68453 -110.97583 -121.70487 -112.50634 C -122.72521 -114.09354 -124.11377 -114.88759 -125.87102 -114.88759 C -127.9684 -114.88759 -129.55598 -114.15071 -130.63301 -112.67688 C -131.65335 -111.20305 -132.16315 -109.41747 -132.16315 -107.3201 C -132.16315 -105.44947 -131.76664 -103.77718 -130.97304 -102.30335 C -132.56024 -100.60278 -134.60097 -99.752084 -137.09514 -99.752084 C -139.36257 -99.752084 -141.11957 -100.43233 -142.36666 -101.79279 C -143.61374 -103.15324 -144.23734 -104.91076 -144.23734 -107.06482 C -144.23734 -109.8991 -143.27388 -112.25164 -141.34656 -114.12227 C -139.36256 -116.04958 -136.9248 -117.46671 -134.03383 -118.37369 C -131.08617 -119.28066 -128.19526 -119.73381 -125.36098 -119.73381 z M -69.752485 -119.05375 L -65.501065 -118.969 C -59.492377 -118.85563 -56.317729 -118.79847 -55.977615 -118.79847 L -43.903417 -118.969 L -41.437934 -117.18306 L -42.203262 -110.72092 L -63.290347 -110.72092 L -64.480455 -96.521273 C -61.532797 -97.258188 -58.868462 -97.626632 -56.487661 -97.626632 C -50.875774 -97.626632 -46.312573 -96.124274 -42.798058 -93.11993 C -39.226856 -90.172272 -37.441279 -85.836165 -37.441279 -80.110905 C -37.441279 -76.539704 -38.291972 -73.336993 -39.992544 -70.502706 C -41.636431 -67.66842 -44.017029 -65.429173 -47.134744 -63.785287 C -50.252459 -62.198086 -53.936903 -61.404554 -58.188333 -61.404554 C -61.646163 -61.404554 -64.79223 -61.886286 -67.626516 -62.849943 C -70.404117 -63.813601 -72.58672 -65.14551 -74.17392 -66.846082 C -75.761121 -68.60334 -76.554654 -70.559366 -76.554654 -72.713424 C -76.554654 -74.980853 -75.931053 -76.709787 -74.683967 -77.900188 C -73.436881 -79.147274 -71.906459 -79.770358 -70.092516 -79.770358 C -69.072173 -79.770358 -68.051547 -79.572362 -67.031204 -79.175562 C -65.954175 -78.778762 -64.99071 -78.211805 -64.140424 -77.474891 C -64.650596 -76.28449 -64.905752 -75.037289 -64.905752 -73.733517 C -64.905752 -71.862888 -64.367376 -70.332466 -63.290347 -69.142066 C -62.156632 -67.951665 -60.455762 -67.356645 -58.188333 -67.356645 C -53.086617 -67.356645 -50.536087 -71.608045 -50.536087 -80.110905 C -50.536087 -84.135593 -51.329619 -87.054567 -52.91682 -88.86851 C -54.504021 -90.73914 -56.629462 -91.674541 -59.293692 -91.674541 C -60.937578 -91.674541 -62.695092 -91.36274 -64.565721 -90.739197 C -66.436351 -90.115654 -68.278572 -89.236897 -70.092516 -88.103182 L -74.769233 -92.609884 L -72.557998 -116.75776 L -69.752485 -119.05375 z M -32.339781 -118.88373 L -28.173111 -118.88373 C -26.019053 -118.82705 -21.314501 -118.79847 -14.058727 -118.79847 C -6.5195239 -118.79847 -1.6159429 -118.82705 0.65148651 -118.88373 L 4.7328911 -118.88373 L 6.4335625 -115.22762 C 5.3565336 -113.52705 3.3157995 -109.84261 0.31145559 -104.17404 C -2.6928884 -98.505463 -5.527155 -92.496548 -8.1913846 -86.147746 C -10.855614 -79.798944 -12.18804 -74.838719 -12.18804 -71.267517 C -12.18804 -68.433231 -11.195995 -66.307789 -9.2119941 -64.890646 C -11.139309 -62.566531 -13.605131 -61.404554 -16.609475 -61.404554 C -19.387076 -61.404554 -21.541098 -62.169506 -23.071613 -63.700021 C -24.602128 -65.230536 -25.36708 -67.356494 -25.36708 -70.077409 C -25.36708 -73.478553 -24.545484 -77.077772 -22.901598 -80.875717 C -21.257711 -84.730347 -18.310157 -89.945728 -14.058727 -96.521273 L -4.0252306 -111.9963 L -23.411644 -111.9963 C -24.205244 -109.44544 -24.686977 -106.44124 -24.857034 -102.98341 C -25.877377 -102.81335 -26.926066 -102.72813 -28.003095 -102.72813 C -29.13681 -102.72813 -30.242143 -102.81335 -31.319172 -102.98341 L -33.699905 -117.60836 L -32.339781 -118.88373 z M -90.074242 -101.28274 C -88.090241 -101.28274 -86.616464 -100.68772 -85.652806 -99.497319 C -84.632463 -98.363604 -84.12215 -96.776539 -84.12215 -94.735852 C -84.12215 -92.695166 -84.632463 -91.107584 -85.652806 -89.973869 C -86.616464 -88.840154 -88.090241 -88.273198 -90.074242 -88.273198 C -92.058243 -88.273198 -93.5606 -88.840154 -94.580944 -89.973869 C -95.544601 -91.16427 -96.026333 -92.751852 -96.026333 -94.735852 C -96.026333 -96.833225 -95.544601 -98.448354 -94.580944 -99.582068 C -93.5606 -100.71578 -92.058243 -101.28274 -90.074242 -101.28274 z M -90.074242 -74.498845 C -88.090241 -74.498845 -86.616464 -73.903824 -85.652806 -72.713424 C -84.632463 -71.579709 -84.12215 -69.992127 -84.12215 -67.951441 C -84.12215 -65.910754 -84.632463 -64.323689 -85.652806 -63.189974 C -86.616464 -62.05626 -88.090241 -61.489303 -90.074242 -61.489303 C -92.058243 -61.489303 -93.5606 -62.05626 -94.580944 -63.189974 C -95.544601 -64.380375 -96.026333 -65.96744 -96.026333 -67.951441 C -96.026333 -70.048813 -95.544601 -71.664459 -94.580944 -72.798173 C -93.5606 -73.931888 -92.058243 -74.498845 -90.074242 -74.498845 z " /></g></svg>
