<?xml version="1.0" encoding="UTF-8" standalone="no"?>
<!-- Created with Inkscape (http://www.inkscape.org/) -->

<svg
   width="172.6701mm"
   height="172.6701mm"
   viewBox="0 0 172.6701 172.6701"
   version="1.1"
   id="svg1"
   xml:space="preserve"
   xmlns="http://www.w3.org/2000/svg"
   xmlns:svg="http://www.w3.org/2000/svg"><defs
     id="defs1" /><g
     id="layer1"
     transform="translate(157.25102,198.81012)"><path
       id="path5"
       style="fill:#ffffff;fill-opacity:1;stroke-width:0.805188;stroke-linecap:round;stroke-linejoin:round"
       d="M -2.0863309 -198.17657 L -10.088943 -183.11289 L -10.930235 -165.68398 L -19.198981 -165.68398 L -11.423229 -155.47426 L -12.166336 -140.07934 C -28.353216 -157.12094 -50.823548 -166.77435 -74.327399 -166.78417 C -103.64471 -166.77397 -130.92652 -151.79225 -146.66717 -127.05894 L -157.25102 -127.05894 L -149.61996 -115.86014 L -157.25102 -26.140039 L -8.5138455 -26.140039 L 15.419061 -26.140039 L 8.0799737 -154.80195 L 15.419061 -165.68398 L 7.4593397 -165.68398 L 6.4490654 -183.39297 L -2.0863309 -198.17657 z M -83.43072 -192.21621 C -85.584619 -189.65499 -86.77489 -186.4211 -86.795372 -183.07465 C -86.842092 -175.15518 -80.459903 -168.69733 -72.540428 -168.65072 C -64.621155 -168.60402 -58.163395 -174.98588 -58.116503 -182.90515 C -58.102813 -186.26049 -59.266203 -189.5144 -61.404157 -192.10045 C -60.83125 -190.6836 -60.536835 -189.16959 -60.537027 -187.64129 C -60.575787 -181.07411 -65.930869 -175.78172 -72.498054 -175.82031 C -79.065241 -175.85911 -84.357627 -181.21415 -84.319038 -187.78134 C -84.309338 -189.30285 -84.007827 -190.80837 -83.43072 -192.21621 z M -13.973461 -119.81908 C -8.0214584 -119.81908 -3.2883261 -118.54381 0.22618947 -115.99295 C 3.740705 -113.44209 5.4982191 -110.01229 5.4982191 -105.70418 C 5.4982191 -103.38006 4.6475257 -101.05611 2.9469536 -98.731991 C 1.2463816 -96.407876 -0.99234802 -94.50901 -3.769949 -93.035181 C -0.25543346 -91.334609 2.4936088 -89.350519 4.4776096 -87.08309 C 6.518296 -84.81566 7.5389214 -81.896169 7.5389214 -78.324968 C 7.5389214 -73.166566 5.6681194 -69.057034 1.9268609 -65.996005 C -1.8143977 -62.991661 -6.8593303 -61.489303 -13.208133 -61.489303 C -20.180478 -61.489303 -25.565791 -62.878373 -29.363736 -65.655974 C -33.104994 -68.433575 -34.975796 -72.401238 -34.975796 -77.55964 C -34.975796 -80.223869 -34.125103 -82.86014 -32.424531 -85.467684 C -30.723959 -88.131914 -28.343361 -90.483931 -25.282331 -92.524618 C -27.833189 -93.941761 -29.817279 -95.642631 -31.234423 -97.626632 C -32.651566 -99.610633 -33.359874 -102.07646 -33.359874 -105.02411 C -33.359874 -109.55897 -31.602877 -113.15871 -28.088361 -115.82294 C -24.573846 -118.48717 -19.868777 -119.81908 -13.973461 -119.81908 z M -127.99699 -119.73381 C -124.31242 -119.73381 -121.05306 -119.11073 -118.21878 -117.86364 C -115.38449 -116.67324 -113.17382 -114.97237 -111.58662 -112.76163 C -109.99942 -110.60757 -109.20537 -108.11368 -109.20537 -105.27939 C -109.20537 -102.10499 -110.14077 -99.384015 -112.0114 -97.116586 C -113.88203 -94.849156 -116.65966 -93.120223 -120.34423 -91.929822 C -115.696 -90.909479 -112.43664 -89.237189 -110.56601 -86.913074 C -108.69539 -84.588959 -107.75998 -81.442892 -107.75998 -77.474891 C -107.75998 -74.017061 -108.80867 -71.069506 -110.90605 -68.632019 C -112.94673 -66.194533 -115.61107 -64.380375 -118.89884 -63.189974 C -122.18661 -61.999574 -125.58783 -61.404554 -129.10235 -61.404554 C -134.20407 -61.404554 -138.54069 -62.453243 -142.11189 -64.550615 C -145.62641 -66.647987 -147.38341 -69.510317 -147.38341 -73.138204 C -147.38341 -75.235577 -146.7598 -76.851222 -145.51272 -77.984937 C -144.26563 -79.175337 -142.70663 -79.770358 -140.836 -79.770358 C -138.90869 -79.770358 -136.95318 -79.005405 -134.96918 -77.474891 C -135.47935 -76.397862 -135.7345 -75.094016 -135.7345 -73.563501 C -135.7345 -71.749558 -135.19613 -70.275781 -134.1191 -69.142066 C -132.98538 -68.008351 -131.31309 -67.441394 -129.10235 -67.441394 C -124.22738 -67.441394 -121.78962 -70.814037 -121.78962 -77.55964 C -121.78962 -81.244213 -122.98018 -84.10706 -125.36098 -86.147746 C -127.68509 -88.188433 -131.00109 -89.208541 -135.30921 -89.208541 L -135.30921 -94.480571 C -126.9764 -95.1608 -122.81023 -98.760535 -122.81023 -105.27939 C -122.81023 -108.56717 -123.32054 -110.97583 -124.34088 -112.50634 C -125.36123 -114.09354 -126.74978 -114.88759 -128.50704 -114.88759 C -130.60441 -114.88759 -132.19148 -114.15071 -133.2685 -112.67688 C -134.28885 -111.20305 -134.79916 -109.41747 -134.79916 -107.3201 C -134.79916 -105.44947 -134.40265 -103.77718 -133.60905 -102.30335 C -135.19625 -100.60278 -137.23647 -99.752084 -139.73064 -99.752084 C -141.99807 -99.752084 -143.75559 -100.43233 -145.00267 -101.79279 C -146.24976 -103.15324 -146.87336 -104.91076 -146.87336 -107.06482 C -146.87336 -109.8991 -145.90938 -112.25164 -143.98206 -114.12227 C -141.99806 -116.04958 -139.56082 -117.46671 -136.66985 -118.37369 C -133.72219 -119.28066 -130.83128 -119.73381 -127.99699 -119.73381 z M -72.387983 -119.05375 L -68.136563 -118.969 C -62.127875 -118.85563 -58.953744 -118.79847 -58.61363 -118.79847 L -46.539431 -118.969 L -44.073432 -117.18306 L -44.83876 -110.72092 L -65.925845 -110.72092 L -67.11647 -96.521273 C -64.168812 -97.258188 -61.504477 -97.626632 -59.123676 -97.626632 C -53.511788 -97.626632 -48.948588 -96.124274 -45.434073 -93.11993 C -41.862871 -90.172272 -40.077294 -85.836165 -40.077294 -80.110905 C -40.077294 -76.539704 -40.92747 -73.336993 -42.628042 -70.502706 C -44.271929 -67.66842 -46.653043 -65.429173 -49.770759 -63.785287 C -52.888474 -62.198086 -56.572918 -61.404554 -60.824348 -61.404554 C -64.282177 -61.404554 -67.428244 -61.886286 -70.262531 -62.849943 C -73.040132 -63.813601 -75.222735 -65.14551 -76.809935 -66.846082 C -78.397136 -68.60334 -79.190668 -70.559366 -79.190668 -72.713424 C -79.190668 -74.980853 -78.567068 -76.709787 -77.319982 -77.900188 C -76.072895 -79.147274 -74.542474 -79.770358 -72.728531 -79.770358 C -71.708187 -79.770358 -70.687562 -79.572362 -69.667219 -79.175562 C -68.59019 -78.778762 -67.626725 -78.211805 -66.776439 -77.474891 C -67.286611 -76.28449 -67.541767 -75.037289 -67.541767 -73.733517 C -67.541767 -71.862888 -67.002874 -70.332466 -65.925845 -69.142066 C -64.79213 -67.951665 -63.091777 -67.356645 -60.824348 -67.356645 C -55.722631 -67.356645 -53.171585 -71.608045 -53.171585 -80.110905 C -53.171585 -84.135593 -53.965117 -87.054567 -55.552318 -88.86851 C -57.139519 -90.73914 -59.265477 -91.674541 -61.929707 -91.674541 C -63.573593 -91.674541 -65.33059 -91.36274 -67.201219 -90.739197 C -69.071849 -90.115654 -70.914587 -89.236897 -72.728531 -88.103182 L -77.404731 -92.609884 L -75.194013 -116.75776 L -72.387983 -119.05375 z M -13.973461 -113.78224 C -16.24089 -113.78224 -18.026468 -113.04535 -19.33024 -111.57152 C -20.634011 -110.15437 -21.286193 -108.22693 -21.286193 -105.78944 C -21.286193 -103.63538 -20.464079 -101.84981 -18.820193 -100.43266 C -17.119621 -99.072205 -14.653799 -97.711715 -11.422712 -96.351258 C -10.005569 -97.314915 -8.8716551 -98.646824 -8.0213691 -100.3474 C -7.1710831 -102.04797 -6.7459948 -103.86213 -6.7459948 -105.78944 C -6.7459948 -108.22693 -7.4262394 -110.15437 -8.7866971 -111.57152 C -10.090469 -113.04535 -11.819403 -113.78224 -13.973461 -113.78224 z M -92.710257 -101.28274 C -90.726256 -101.28274 -89.252479 -100.68772 -88.288821 -99.497319 C -87.268478 -98.363604 -86.758165 -96.776539 -86.758165 -94.735852 C -86.758165 -92.695166 -87.268478 -91.107584 -88.288821 -89.973869 C -89.252479 -88.840154 -90.726256 -88.273198 -92.710257 -88.273198 C -94.694257 -88.273198 -96.196098 -88.840154 -97.216442 -89.973869 C -98.180099 -91.16427 -98.662348 -92.751852 -98.662348 -94.735852 C -98.662348 -96.833225 -98.180099 -98.448354 -97.216442 -99.582068 C -96.196098 -100.71578 -94.694257 -101.28274 -92.710257 -101.28274 z M -17.459553 -89.038526 C -19.160125 -87.678068 -20.407326 -86.119583 -21.200926 -84.362325 C -21.994527 -82.605068 -22.391551 -80.50769 -22.391551 -78.070203 C -22.391551 -74.725745 -21.569438 -72.089474 -19.925552 -70.162159 C -18.281666 -68.291529 -16.042419 -67.356645 -13.208133 -67.356645 C -10.430532 -67.356645 -8.2765096 -68.291529 -6.7459948 -70.162159 C -5.1587942 -72.032788 -4.3652615 -74.640479 -4.3652615 -77.984937 C -4.3652615 -79.855566 -4.9602818 -81.442631 -6.1506823 -82.746403 C -7.284397 -84.106861 -8.7301107 -85.212194 -10.487368 -86.06248 C -12.244626 -86.969452 -14.56858 -87.961497 -17.459553 -89.038526 z M -92.710257 -74.498845 C -90.726256 -74.498845 -89.252479 -73.903824 -88.288821 -72.713424 C -87.268478 -71.579709 -86.758165 -69.992127 -86.758165 -67.951441 C -86.758165 -65.910754 -87.268478 -64.323689 -88.288821 -63.189974 C -89.252479 -62.05626 -90.726256 -61.489303 -92.710257 -61.489303 C -94.694257 -61.489303 -96.196098 -62.05626 -97.216442 -63.189974 C -98.180099 -64.380375 -98.662348 -65.96744 -98.662348 -67.951441 C -98.662348 -70.048813 -98.180099 -71.664459 -97.216442 -72.798173 C -96.196098 -73.931888 -94.694257 -74.498845 -92.710257 -74.498845 z " /></g></svg>
