<?xml version="1.0" encoding="UTF-8" standalone="no"?>
<!-- Created with Inkscape (http://www.inkscape.org/) -->

<svg
   width="172.6701mm"
   height="172.6701mm"
   viewBox="0 0 172.6701 172.6701"
   version="1.1"
   id="svg1"
   xml:space="preserve"
   xmlns="http://www.w3.org/2000/svg"
   xmlns:svg="http://www.w3.org/2000/svg"><defs
     id="defs1" /><g
     id="layer1"
     transform="translate(157.25102,198.81012)"><path
       id="path5"
       style="fill:#ffffff;fill-opacity:1;stroke-width:0.805188;stroke-linecap:round;stroke-linejoin:round"
       d="M -2.0863309 -198.17657 L -10.088943 -183.11289 L -10.930235 -165.68398 L -19.198981 -165.68398 L -11.423229 -155.47426 L -12.166336 -140.07934 C -28.353216 -157.12094 -50.823548 -166.77435 -74.327399 -166.78417 C -103.64471 -166.77397 -130.92652 -151.79225 -146.66717 -127.05894 L -157.25102 -127.05894 L -149.61996 -115.86014 L -157.25102 -26.140039 L -8.5138455 -26.140039 L 15.419061 -26.140039 L 8.0799737 -154.80195 L 15.419061 -165.68398 L 7.4593397 -165.68398 L 6.4490654 -183.39297 L -2.0863309 -198.17657 z M -83.43072 -192.21621 C -85.584619 -189.65499 -86.77489 -186.4211 -86.795372 -183.07465 C -86.842092 -175.15518 -80.459903 -168.69733 -72.540428 -168.65072 C -64.621155 -168.60402 -58.163395 -174.98588 -58.116503 -182.90515 C -58.102813 -186.26049 -59.266203 -189.5144 -61.404157 -192.10045 C -60.83125 -190.6836 -60.536835 -189.16959 -60.537027 -187.64129 C -60.575787 -181.07411 -65.930869 -175.78172 -72.498054 -175.82031 C -79.065241 -175.85911 -84.357627 -181.21415 -84.319038 -187.78134 C -84.309338 -189.30285 -84.007827 -190.80837 -83.43072 -192.21621 z M -104.81184 -133.81925 C -97.28219 -133.44277 -91.163958 -131.79518 -86.457925 -128.87744 L -120.05897 -73.534563 L -98.458743 -73.534563 L -97.046943 -96.547111 C -94.035082 -96.547111 -91.869938 -97.15909 -90.552249 -98.382658 C -89.140439 -99.606227 -88.058384 -101.67694 -87.305419 -104.59468 L -79.257848 -104.59468 L -79.398924 -72.828662 C -75.822339 -71.793335 -71.304745 -70.71128 -65.845747 -69.581832 L -66.551647 -62.804985 L -80.104825 -62.804985 L -80.104825 -37.533659 L -98.458743 -37.533659 L -98.458743 -62.804985 L -139.25987 -62.804985 L -140.38952 -67.887362 L -104.81184 -133.81925 z M -23.491226 -132.26586 L -18.832596 -130.14816 L -18.832596 -48.545907 C -17.044303 -47.51058 -14.220742 -46.569393 -10.361795 -45.722307 C -6.5028474 -44.969341 -3.4439899 -44.498748 -1.1850939 -44.310507 L -1.6083239 -37.533659 L -59.210493 -37.533659 L -58.927823 -44.310507 C -50.551083 -45.251713 -44.151115 -46.663494 -39.727444 -48.545907 L -39.727444 -116.17124 L -58.645669 -116.17124 L -58.645669 -124.35988 C -52.621947 -124.83049 -46.409803 -125.72472 -40.009597 -127.04241 C -33.609392 -128.45422 -28.103139 -130.19521 -23.491226 -132.26586 z " /></g></svg>
