<?xml version="1.0" encoding="UTF-8" standalone="no"?>
<!-- Created with Inkscape (http://www.inkscape.org/) -->

<svg
   width="172.6701mm"
   height="172.6701mm"
   viewBox="0 0 172.6701 172.6701"
   version="1.1"
   id="svg1"
   xml:space="preserve"
   xmlns="http://www.w3.org/2000/svg"
   xmlns:svg="http://www.w3.org/2000/svg"><defs
     id="defs1" /><g
     id="layer1"
     transform="translate(157.25102,198.81012)"><path
       id="path5"
       style="fill:#ffffff;fill-opacity:1;stroke-width:0.805188;stroke-linecap:round;stroke-linejoin:round"
       d="M -2.0863309 -198.17657 L -10.088943 -183.11289 L -10.930235 -165.68398 L -19.198981 -165.68398 L -11.423229 -155.47426 L -12.166336 -140.07934 C -28.353216 -157.12094 -50.823548 -166.77435 -74.327399 -166.78417 C -103.64471 -166.77397 -130.92652 -151.79225 -146.66717 -127.05894 L -157.25102 -127.05894 L -149.61996 -115.86014 L -157.25102 -26.140039 L -8.5138455 -26.140039 L 15.419061 -26.140039 L 8.0799737 -154.80195 L 15.419061 -165.68398 L 7.4593397 -165.68398 L 6.4490654 -183.39297 L -2.0863309 -198.17657 z M -83.43072 -192.21621 C -85.584619 -189.65499 -86.77489 -186.4211 -86.795372 -183.07465 C -86.842092 -175.15518 -80.459903 -168.69733 -72.540428 -168.65072 C -64.621155 -168.60402 -58.163395 -174.98588 -58.116503 -182.90515 C -58.102813 -186.26049 -59.266203 -189.5144 -61.404157 -192.10045 C -60.83125 -190.6836 -60.536835 -189.16959 -60.537027 -187.64129 C -60.575787 -181.07411 -65.930869 -175.78172 -72.498054 -175.82031 C -79.065241 -175.85911 -84.357627 -181.21415 -84.319038 -187.78134 C -84.309338 -189.30285 -84.007827 -190.80837 -83.43072 -192.21621 z M -108.27055 -133.81925 C -100.74089 -133.44277 -94.623179 -131.79518 -89.917145 -128.87744 L -123.5182 -73.534563 L -101.91745 -73.534563 L -100.50565 -96.547111 C -97.493785 -96.547111 -95.329159 -97.15909 -94.011469 -98.382658 C -92.599659 -99.606227 -91.517088 -101.67694 -90.764122 -104.59468 L -82.717068 -104.59468 L -82.858145 -72.828662 C -79.28156 -71.793335 -74.763449 -70.71128 -69.30445 -69.581832 L -70.01035 -62.804985 L -83.564045 -62.804985 L -83.564045 -37.533659 L -101.91745 -37.533659 L -101.91745 -62.804985 L -142.71857 -62.804985 L -143.84822 -67.887362 L -108.27055 -133.81925 z M -31.185847 -133.25443 C -21.491418 -133.25443 -13.773582 -130.85399 -8.0322212 -126.05384 C -2.2908605 -121.3478 0.57965627 -114.71254 0.57965627 -106.14756 C 0.57965627 -98.617906 -2.2908605 -90.570344 -8.0322212 -82.005363 C -13.773582 -73.534503 -23.232407 -63.322832 -36.4093 -51.369507 L 1.5682264 -51.369507 L 1.5682264 -37.533659 L -62.387043 -37.533659 L -62.387043 -45.722307 C -51.939649 -55.793218 -43.798175 -64.404768 -37.962694 -71.557939 C -32.127213 -78.71111 -27.938827 -85.299935 -25.397569 -91.323658 C -22.762191 -97.34738 -21.444322 -103.55901 -21.444322 -109.95921 C -21.444322 -120.12424 -24.832905 -125.20686 -31.609593 -125.20686 C -34.621455 -125.20686 -37.068334 -123.79508 -38.950747 -120.97146 C -40.833161 -118.24196 -41.774348 -114.85389 -41.774348 -110.80671 C -41.774348 -107.98309 -40.786205 -105.30039 -38.809671 -102.75914 C -40.409722 -101.2532 -42.24514 -100.07672 -44.315795 -99.229635 C -46.292329 -98.382549 -48.268614 -97.958912 -50.245148 -97.958912 C -53.633492 -97.958912 -56.457053 -98.994527 -58.715949 -101.06518 C -60.974845 -103.22996 -62.104373 -106.33577 -62.104373 -110.38296 C -62.104373 -114.71251 -60.833977 -118.61864 -58.292719 -122.10111 C -55.751461 -125.58357 -52.174537 -128.3127 -47.562625 -130.28924 C -42.856591 -132.26577 -37.397811 -133.25443 -31.185847 -133.25443 z " /></g></svg>
