<?xml version="1.0" encoding="UTF-8" standalone="no"?>
<!-- Created with Inkscape (http://www.inkscape.org/) -->

<svg
   width="172.6701mm"
   height="172.6701mm"
   viewBox="0 0 172.6701 172.6701"
   version="1.1"
   id="svg1"
   xml:space="preserve"
   xmlns="http://www.w3.org/2000/svg"
   xmlns:svg="http://www.w3.org/2000/svg"><defs
     id="defs1" /><g
     id="layer1"
     transform="translate(157.25102,198.81012)"><path
       id="path5"
       style="fill:#ffffff;fill-opacity:1;stroke-width:0.805188;stroke-linecap:round;stroke-linejoin:round"
       d="M -2.0863309 -198.17657 L -10.088943 -183.11289 L -10.930235 -165.68398 L -19.198981 -165.68398 L -11.423229 -155.47426 L -12.166336 -140.07934 C -28.353216 -157.12094 -50.823548 -166.77435 -74.327399 -166.78417 C -103.64471 -166.77397 -130.92652 -151.79225 -146.66717 -127.05894 L -157.25102 -127.05894 L -149.61996 -115.86014 L -157.25102 -26.140039 L -8.5138455 -26.140039 L 15.419061 -26.140039 L 8.0799737 -154.80195 L 15.419061 -165.68398 L 7.4593397 -165.68398 L 6.4490654 -183.39297 L -2.0863309 -198.17657 z M -83.43072 -192.21621 C -85.584619 -189.65499 -86.77489 -186.4211 -86.795372 -183.07465 C -86.842092 -175.15518 -80.459903 -168.69733 -72.540428 -168.65072 C -64.621155 -168.60402 -58.163395 -174.98588 -58.116503 -182.90515 C -58.102813 -186.26049 -59.266203 -189.5144 -61.404157 -192.10045 C -60.83125 -190.6836 -60.536835 -189.16959 -60.537027 -187.64129 C -60.575787 -181.07411 -65.930869 -175.78172 -72.498054 -175.82031 C -79.065241 -175.85911 -84.357627 -181.21415 -84.319038 -187.78134 C -84.309338 -189.30285 -84.007827 -190.80837 -83.43072 -192.21621 z M -108.34134 -133.81925 C -100.81169 -133.44277 -94.693459 -131.79518 -89.987425 -128.87744 L -123.58848 -73.534563 L -101.98824 -73.534563 L -100.57593 -96.547111 C -97.564065 -96.547111 -95.399438 -97.15909 -94.081749 -98.382658 C -92.669939 -99.606227 -91.587884 -101.67694 -90.834919 -104.59468 L -82.787348 -104.59468 L -82.928425 -72.828662 C -79.351839 -71.793335 -74.834246 -70.71128 -69.375247 -69.581832 L -70.081147 -62.804985 L -83.634325 -62.804985 L -83.634325 -37.533659 L -101.98824 -37.533659 L -101.98824 -62.804985 L -142.78937 -62.804985 L -143.9185 -67.887362 L -108.34134 -133.81925 z M -31.82095 -133.25443 C -25.703107 -133.25443 -20.291282 -132.21882 -15.585249 -130.14816 C -10.879215 -128.17163 -7.2083795 -125.34807 -4.5730008 -121.67736 C -1.9376221 -118.10078 -0.62027049 -113.95935 -0.62027049 -109.25331 C -0.62027049 -103.98256 -2.1729189 -99.464961 -5.2789009 -95.700135 C -8.3848829 -91.935308 -12.996906 -89.064791 -19.114749 -87.088257 C -11.396854 -85.394085 -5.9850293 -82.61748 -2.8790473 -78.758533 C 0.22693465 -74.899586 1.7800998 -69.675585 1.7800998 -63.087138 C 1.7800998 -57.345778 0.038593912 -52.451502 -3.4438707 -48.404314 C -6.8322147 -44.357125 -11.255897 -41.345223 -16.714895 -39.368689 C -22.173894 -37.392155 -27.821016 -36.404012 -33.656497 -36.404012 C -42.127357 -36.404012 -49.327644 -38.145518 -55.257246 -41.627983 C -61.092727 -45.110448 -64.0102 -49.863338 -64.0102 -55.887061 C -64.0102 -59.369526 -62.975101 -62.052218 -60.904446 -63.934632 C -58.833791 -65.911166 -56.245527 -66.899309 -53.139545 -66.899309 C -49.939443 -66.899309 -46.692244 -65.628396 -43.398021 -63.087138 C -44.245107 -61.298846 -44.668745 -59.134219 -44.668745 -56.592961 C -44.668745 -53.5811 -43.774514 -51.13422 -41.986221 -49.251807 C -40.103808 -47.369394 -37.327203 -46.428207 -33.656497 -46.428207 C -25.56212 -46.428207 -21.515119 -52.028372 -21.515119 -63.228732 C -21.515119 -69.346575 -23.491405 -74.099466 -27.444473 -77.48781 C -31.30342 -80.876154 -36.809674 -82.570187 -43.962845 -82.570187 L -43.962845 -91.323658 C -30.127107 -92.453106 -23.209073 -98.429436 -23.209073 -109.25331 C -23.209073 -114.71231 -24.056348 -118.71287 -25.75052 -121.25413 C -27.444692 -123.88951 -29.750703 -125.20686 -32.668444 -125.20686 C -36.150908 -125.20686 -38.786128 -123.98342 -40.574421 -121.53628 C -42.268593 -119.08915 -43.115351 -116.1242 -43.115351 -112.64174 C -43.115351 -109.53575 -42.456934 -106.75915 -41.139244 -104.31201 C -43.774623 -101.48839 -47.162689 -100.07661 -51.303999 -100.07661 C -55.068825 -100.07661 -57.986815 -101.20614 -60.057469 -103.46504 C -62.128124 -105.72393 -63.163223 -108.64192 -63.163223 -112.21851 C -63.163223 -116.92454 -61.563102 -120.83016 -58.362999 -123.93614 C -55.068776 -127.13624 -51.021775 -129.48921 -46.221621 -130.99514 C -41.327347 -132.50107 -36.526983 -133.25443 -31.82095 -133.25443 z " /></g></svg>
