<?xml version="1.0" encoding="UTF-8" standalone="no"?>
<!-- Created with Inkscape (http://www.inkscape.org/) -->

<svg
   width="172.6701mm"
   height="172.6701mm"
   viewBox="0 0 172.6701 172.6701"
   version="1.1"
   id="svg1"
   xml:space="preserve"
   xmlns="http://www.w3.org/2000/svg"
   xmlns:svg="http://www.w3.org/2000/svg"><defs
     id="defs1" /><g
     id="layer1"
     transform="translate(157.25102,198.81012)"><path
       id="path5"
       style="fill:#ffffff;fill-opacity:1;stroke-width:0.805188;stroke-linecap:round;stroke-linejoin:round"
       d="M -2.0863309 -198.17657 L -10.088943 -183.11289 L -10.930235 -165.68398 L -19.198981 -165.68398 L -11.423229 -155.47426 L -12.166336 -140.07934 C -28.353216 -157.12094 -50.823548 -166.77435 -74.327399 -166.78417 C -103.64471 -166.77397 -130.92652 -151.79225 -146.66717 -127.05894 L -157.25102 -127.05894 L -149.61996 -115.86014 L -157.25102 -26.140039 L -8.5138455 -26.140039 L 15.419061 -26.140039 L 8.0799737 -154.80195 L 15.419061 -165.68398 L 7.4593397 -165.68398 L 6.4490654 -183.39297 L -2.0863309 -198.17657 z M -83.43072 -192.21621 C -85.584619 -189.65499 -86.77489 -186.4211 -86.795372 -183.07465 C -86.842092 -175.15518 -80.459903 -168.69733 -72.540428 -168.65072 C -64.621155 -168.60402 -58.163395 -174.98588 -58.116503 -182.90515 C -58.102813 -186.26049 -59.266203 -189.5144 -61.404157 -192.10045 C -60.83125 -190.6836 -60.536835 -189.16959 -60.537027 -187.64129 C -60.575787 -181.07411 -65.930869 -175.78172 -72.498054 -175.82031 C -79.065241 -175.85911 -84.357627 -181.21415 -84.319038 -187.78134 C -84.309338 -189.30285 -84.007827 -190.80837 -83.43072 -192.21621 z M -111.51789 -133.81925 C -103.98824 -133.44277 -97.870009 -131.79518 -93.163976 -128.87744 L -126.76503 -73.534563 L -105.16479 -73.534563 L -103.75299 -96.547111 C -100.74113 -96.547111 -98.575989 -97.15909 -97.258299 -98.382658 C -95.846489 -99.606227 -94.764435 -101.67694 -94.011469 -104.59468 L -85.963898 -104.59468 L -86.104975 -72.828662 C -82.52839 -71.793335 -78.010796 -70.71128 -72.551797 -69.581832 L -73.257697 -62.804985 L -86.810875 -62.804985 L -86.810875 -37.533659 L -105.16479 -37.533659 L -105.16479 -62.804985 L -145.96592 -62.804985 L -147.09557 -67.887362 L -111.51789 -133.81925 z M -33.444624 -133.81925 C -25.91497 -133.44277 -19.797255 -131.79518 -15.091222 -128.87744 L -48.692272 -73.534563 L -27.091523 -73.534563 L -25.679723 -96.547111 C -22.667861 -96.547111 -20.503235 -97.15909 -19.185546 -98.382658 C -17.773736 -99.606227 -16.691164 -101.67694 -15.938199 -104.59468 L -7.8911445 -104.59468 L -8.0322212 -72.828662 C -4.4556358 -71.793335 0.062474832 -70.71128 5.5214735 -69.581832 L 4.8155734 -62.804985 L -8.7381212 -62.804985 L -8.7381212 -37.533659 L -27.091523 -37.533659 L -27.091523 -62.804985 L -67.89265 -62.804985 L -69.022297 -67.887362 L -33.444624 -133.81925 z " /></g></svg>
