<?xml version="1.0" encoding="UTF-8" standalone="no"?>
<!-- Created with Inkscape (http://www.inkscape.org/) -->

<svg
   width="172.6701mm"
   height="172.6701mm"
   viewBox="0 0 172.6701 172.6701"
   version="1.1"
   id="svg1"
   xml:space="preserve"
   xmlns="http://www.w3.org/2000/svg"
   xmlns:svg="http://www.w3.org/2000/svg"><defs
     id="defs1" /><g
     id="layer1"
     transform="translate(157.25102,198.81012)"><path
       id="path5"
       style="fill:#ffffff;fill-opacity:1;stroke-width:0.805188;stroke-linecap:round;stroke-linejoin:round"
       d="M -2.0863309 -198.17657 L -10.088943 -183.11289 L -10.930235 -165.68398 L -19.198981 -165.68398 L -11.423229 -155.47426 L -12.166336 -140.07934 C -28.353216 -157.12094 -50.823548 -166.77435 -74.327399 -166.78417 C -103.64471 -166.77397 -130.92652 -151.79225 -146.66717 -127.05894 L -157.25102 -127.05894 L -149.61996 -115.86014 L -157.25102 -26.140039 L -8.5138455 -26.140039 L 15.419061 -26.140039 L 8.0799737 -154.80195 L 15.419061 -165.68398 L 7.4593397 -165.68398 L 6.4490654 -183.39297 L -2.0863309 -198.17657 z M -83.43072 -192.21621 C -85.584619 -189.65499 -86.77489 -186.4211 -86.795372 -183.07465 C -86.842092 -175.15518 -80.459903 -168.69733 -72.540428 -168.65072 C -64.621155 -168.60402 -58.163395 -174.98588 -58.116503 -182.90515 C -58.102813 -186.26049 -59.266203 -189.5144 -61.404157 -192.10045 C -60.83125 -190.6836 -60.536835 -189.16959 -60.537027 -187.64129 C -60.575787 -181.07411 -65.930869 -175.78172 -72.498054 -175.82031 C -79.065241 -175.85911 -84.357627 -181.21415 -84.319038 -187.78134 C -84.309338 -189.30285 -84.007827 -190.80837 -83.43072 -192.21621 z M -109.18832 -133.81925 C -101.65867 -133.44277 -95.540952 -131.79518 -90.834919 -128.87744 L -124.43597 -73.534563 L -102.83522 -73.534563 L -101.42342 -96.547111 C -98.411559 -96.547111 -96.246932 -97.15909 -94.929243 -98.382658 C -93.517433 -99.606227 -92.434861 -101.67694 -91.681896 -104.59468 L -83.634325 -104.59468 L -83.775918 -72.828662 C -80.199333 -71.793335 -75.681222 -70.71128 -70.222224 -69.581832 L -70.928124 -62.804985 L -84.481818 -62.804985 L -84.481818 -37.533659 L -102.83522 -37.533659 L -102.83522 -62.804985 L -143.63635 -62.804985 L -144.76599 -67.887362 L -109.18832 -133.81925 z M -51.586669 -132.12478 L -44.527668 -131.98371 C -34.550877 -131.79547 -29.27992 -131.70104 -28.715196 -131.70104 L -8.6673245 -131.98371 L -4.5730008 -129.01903 L -5.8437243 -118.28894 L -40.856574 -118.28894 L -42.833198 -94.712081 C -37.938923 -95.93565 -33.515241 -96.547111 -29.562173 -96.547111 C -20.244227 -96.547111 -12.667776 -94.053276 -6.8322944 -89.064881 C -0.90269242 -84.170606 2.0622531 -76.970319 2.0622531 -67.464132 C 2.0622531 -61.53453 0.65047272 -56.216617 -2.1731473 -51.510584 C -4.9026466 -46.804551 -8.8557351 -43.086759 -14.032372 -40.357259 C -19.209008 -37.721881 -25.326723 -36.404012 -32.385773 -36.404012 C -38.127134 -36.404012 -43.351135 -37.204331 -48.057168 -38.804383 C -52.669081 -40.404434 -56.292444 -42.616017 -58.927823 -45.439637 C -61.563201 -48.357377 -62.88107 -51.604576 -62.88107 -55.181161 C -62.88107 -58.945988 -61.845454 -61.816504 -59.774799 -63.793038 C -57.704145 -65.863693 -55.163353 -66.899309 -52.151492 -66.899309 C -50.45732 -66.899309 -48.76277 -66.569583 -47.068598 -65.910738 C -45.280305 -65.251894 -43.680184 -64.310707 -42.268374 -63.087138 C -43.11546 -61.110604 -43.539098 -59.03989 -43.539098 -56.875114 C -43.539098 -53.769132 -42.644867 -51.228341 -40.856574 -49.251807 C -38.974161 -47.275273 -36.1506 -46.286613 -32.385773 -46.286613 C -23.914913 -46.286613 -19.679572 -53.346032 -19.679572 -67.464132 C -19.679572 -74.146699 -20.997441 -78.993502 -23.632819 -82.005363 C -26.268198 -85.111345 -29.797649 -86.66451 -34.22132 -86.66451 C -36.95082 -86.66451 -39.868292 -86.146961 -42.974274 -85.111634 C -46.080256 -84.076306 -49.139631 -82.61757 -52.151492 -80.735157 L -59.916393 -88.217387 L -56.245299 -128.31313 L -51.586669 -132.12478 z " /></g></svg>
