<?xml version="1.0" encoding="UTF-8" standalone="no"?>
<!-- Created with Inkscape (http://www.inkscape.org/) -->

<svg
   width="172.6701mm"
   height="172.6701mm"
   viewBox="0 0 172.6701 172.6701"
   version="1.1"
   id="svg1"
   xml:space="preserve"
   xmlns="http://www.w3.org/2000/svg"
   xmlns:svg="http://www.w3.org/2000/svg"><defs
     id="defs1" /><g
     id="layer1"
     transform="translate(157.25102,198.81012)"><path
       id="path5"
       style="fill:#ffffff;fill-opacity:1;stroke-width:0.805188;stroke-linecap:round;stroke-linejoin:round"
       d="M -2.0863309 -198.17657 L -10.088943 -183.11289 L -10.930235 -165.68398 L -19.198981 -165.68398 L -11.423229 -155.47426 L -12.166336 -140.07934 C -28.353216 -157.12094 -50.823548 -166.77435 -74.327399 -166.78417 C -103.64471 -166.77397 -130.92652 -151.79225 -146.66717 -127.05894 L -157.25102 -127.05894 L -149.61996 -115.86014 L -157.25102 -26.140039 L -8.5138455 -26.140039 L 15.419061 -26.140039 L 8.0799737 -154.80195 L 15.419061 -165.68398 L 7.4593397 -165.68398 L 6.4490654 -183.39297 L -2.0863309 -198.17657 z M -83.43072 -192.21621 C -85.584619 -189.65499 -86.77489 -186.4211 -86.795372 -183.07465 C -86.842092 -175.15518 -80.459903 -168.69733 -72.540428 -168.65072 C -64.621155 -168.60402 -58.163395 -174.98588 -58.116503 -182.90515 C -58.102813 -186.26049 -59.266203 -189.5144 -61.404157 -192.10045 C -60.83125 -190.6836 -60.536835 -189.16959 -60.537027 -187.64129 C -60.575787 -181.07411 -65.930869 -175.78172 -72.498054 -175.82031 C -79.065241 -175.85911 -84.357627 -181.21415 -84.319038 -187.78134 C -84.309338 -189.30285 -84.007827 -190.80837 -83.43072 -192.21621 z M -110.45904 -133.81925 C -102.92939 -133.44277 -96.811159 -131.79518 -92.105126 -128.87744 L -125.70669 -73.534563 L -104.10594 -73.534563 L -102.69414 -96.547111 C -99.682282 -96.547111 -97.517139 -97.15909 -96.199449 -98.382658 C -94.787639 -99.606227 -93.705584 -101.67694 -92.952619 -104.59468 L -84.905048 -104.59468 L -85.046125 -72.828662 C -81.46954 -71.793335 -76.951946 -70.71128 -71.492947 -69.581832 L -72.198847 -62.804985 L -85.752025 -62.804985 L -85.752025 -37.533659 L -104.10594 -37.533659 L -104.10594 -62.804985 L -144.90707 -62.804985 L -146.03672 -67.887362 L -110.45904 -133.81925 z M -10.926618 -133.53658 L -7.5381945 -126.47758 C -26.550569 -118.28909 -37.986197 -105.67697 -41.845144 -88.641134 C -36.386146 -91.276513 -31.209618 -92.594381 -26.315343 -92.594381 C -16.903276 -92.594381 -9.5146488 -90.053073 -4.1497708 -84.970557 C 1.3092278 -79.888041 4.0388766 -73.016963 4.0388766 -64.357862 C 4.0388766 -58.992984 2.5801403 -54.193137 -0.3376004 -49.957707 C -3.1612204 -45.722277 -7.1617816 -42.427606 -12.338418 -40.074589 C -17.420934 -37.721573 -23.256397 -36.545089 -29.844843 -36.545089 C -41.045203 -36.545089 -49.65727 -39.651419 -55.680992 -45.863383 C -61.610594 -52.075347 -64.575023 -61.063579 -64.575023 -72.828662 C -64.575023 -87.605607 -60.010473 -100.17076 -50.880769 -110.52404 C -41.656943 -120.97143 -28.338941 -128.64231 -10.926618 -133.53658 z M -30.268073 -82.711263 C -34.221141 -82.711263 -38.503955 -81.111659 -43.115868 -77.911556 L -43.115868 -76.076009 C -43.115868 -65.816857 -41.98634 -58.287361 -39.727444 -53.487207 C -37.468548 -48.687053 -33.891624 -46.286613 -28.99735 -46.286613 C -24.950161 -46.286613 -21.844348 -47.839778 -19.679572 -50.94576 C -17.514797 -54.051742 -16.432225 -58.475424 -16.432225 -64.216785 C -16.432225 -70.052266 -17.656182 -74.56986 -20.103319 -77.769963 C -22.456336 -81.064186 -25.844402 -82.711263 -30.268073 -82.711263 z " /></g></svg>
