<?xml version="1.0" encoding="UTF-8" standalone="no"?>
<!-- Created with Inkscape (http://www.inkscape.org/) -->

<svg
   width="172.6701mm"
   height="172.6701mm"
   viewBox="0 0 172.6701 172.6701"
   version="1.1"
   id="svg1"
   xml:space="preserve"
   xmlns="http://www.w3.org/2000/svg"
   xmlns:svg="http://www.w3.org/2000/svg"><defs
     id="defs1" /><g
     id="layer1"
     transform="translate(157.25102,198.81012)"><path
       id="path5"
       style="fill:#ffffff;fill-opacity:1;stroke-width:0.805188;stroke-linecap:round;stroke-linejoin:round"
       d="M -2.0863309 -198.17657 L -10.088943 -183.11289 L -10.930235 -165.68398 L -19.198981 -165.68398 L -11.423229 -155.47426 L -12.166336 -140.07934 C -28.353216 -157.12094 -50.823548 -166.77435 -74.327399 -166.78417 C -103.64471 -166.77397 -130.92652 -151.79225 -146.66717 -127.05894 L -157.25102 -127.05894 L -149.61996 -115.86014 L -157.25102 -26.140039 L -8.5138455 -26.140039 L 15.419061 -26.140039 L 8.0799737 -154.80195 L 15.419061 -165.68398 L 7.4593397 -165.68398 L 6.4490654 -183.39297 L -2.0863309 -198.17657 z M -83.43072 -192.21621 C -85.584619 -189.65499 -86.77489 -186.4211 -86.795372 -183.07465 C -86.842092 -175.15518 -80.459903 -168.69733 -72.540428 -168.65072 C -64.621155 -168.60402 -58.163395 -174.98588 -58.116503 -182.90515 C -58.102813 -186.26049 -59.266203 -189.5144 -61.404157 -192.10045 C -60.83125 -190.6836 -60.536835 -189.16959 -60.537027 -187.64129 C -60.575787 -181.07411 -65.930869 -175.78172 -72.498054 -175.82031 C -79.065241 -175.85911 -84.357627 -181.21415 -84.319038 -187.78134 C -84.309338 -189.30285 -84.007827 -190.80837 -83.43072 -192.21621 z M -111.72925 -133.81925 C -104.1996 -133.44277 -98.081882 -131.79518 -93.375849 -128.87744 L -126.9769 -73.534563 L -105.37615 -73.534563 L -103.96435 -96.547111 C -100.95249 -96.547111 -98.787862 -97.15909 -97.470173 -98.382658 C -96.058363 -99.606227 -94.975791 -101.67694 -94.222826 -104.59468 L -86.175772 -104.59468 L -86.316848 -72.828662 C -82.740263 -71.793335 -78.222669 -70.71128 -72.763671 -69.581832 L -73.469571 -62.804985 L -87.022749 -62.804985 L -87.022749 -37.533659 L -105.37615 -37.533659 L -105.37615 -62.804985 L -146.17779 -62.804985 L -147.30692 -67.887362 L -111.72925 -133.81925 z M -30.550743 -133.39551 C -20.668073 -133.39551 -12.808852 -131.27784 -6.9733711 -127.04241 C -1.1378898 -122.80698 1.7800998 -117.11238 1.7800998 -109.95921 C 1.7800998 -106.10027 0.3683194 -102.24161 -2.4553006 -98.382658 C -5.2789206 -94.523711 -8.9967123 -91.370425 -13.608625 -88.923287 C -7.7731437 -86.099667 -3.2085938 -82.805513 0.085629577 -79.040686 C 3.4739736 -75.27586 5.1685235 -70.42854 5.1685235 -64.498938 C 5.1685235 -55.933958 2.0621932 -49.110352 -4.1497708 -44.027836 C -10.361735 -39.039441 -18.738505 -36.545089 -29.28002 -36.545089 C -40.856862 -36.545089 -49.798138 -38.8511 -56.104222 -43.463013 C -62.316186 -48.074926 -65.422 -54.663751 -65.422 -63.228732 C -65.422 -67.652403 -64.010219 -72.028612 -61.186599 -76.358163 C -58.362979 -80.781834 -54.409891 -84.687967 -49.327375 -88.076311 C -53.562805 -90.429327 -56.857476 -93.252888 -59.210493 -96.547111 C -61.563509 -99.841335 -62.739993 -103.93581 -62.739993 -108.83008 C -62.739993 -116.35974 -59.822003 -122.33607 -53.986522 -126.75974 C -48.151041 -131.18341 -40.339293 -133.39551 -30.550743 -133.39551 z M -30.550743 -123.37183 C -34.31557 -123.37183 -37.279999 -122.14787 -39.444774 -119.70074 C -41.609549 -117.34772 -42.692121 -114.14799 -42.692121 -110.10081 C -42.692121 -106.52422 -41.327297 -103.55928 -38.597797 -101.20626 C -35.774177 -98.947363 -31.679704 -96.688307 -26.314826 -94.429411 C -23.961809 -96.029463 -22.079436 -98.241562 -20.667626 -101.06518 C -19.255816 -103.8888 -18.549925 -106.9007 -18.549925 -110.10081 C -18.549925 -114.14799 -19.679453 -117.34772 -21.938349 -119.70074 C -24.103124 -122.14787 -26.974158 -123.37183 -30.550743 -123.37183 z M -36.33902 -82.288033 C -39.16264 -80.029137 -41.233355 -77.440873 -42.551044 -74.523133 C -43.868734 -71.605392 -44.527668 -68.122897 -44.527668 -64.075708 C -44.527668 -58.522589 -43.162844 -54.145863 -40.433344 -50.94576 C -37.703845 -47.839778 -33.986053 -46.286613 -29.28002 -46.286613 C -24.668107 -46.286613 -21.091183 -47.839778 -18.549925 -50.94576 C -15.914547 -54.051742 -14.597195 -58.381512 -14.597195 -63.934632 C -14.597195 -67.040614 -15.585338 -69.675834 -17.561872 -71.840609 C -19.444285 -74.099505 -21.844209 -75.934923 -24.761949 -77.346733 C -27.67969 -78.852664 -31.538866 -80.499741 -36.33902 -82.288033 z " /></g></svg>
