<?xml version="1.0" encoding="UTF-8" standalone="no"?>
<!-- Created with Inkscape (http://www.inkscape.org/) -->

<svg
   width="172.6701mm"
   height="172.6701mm"
   viewBox="0 0 172.6701 172.6701"
   version="1.1"
   id="svg1"
   xml:space="preserve"
   xmlns="http://www.w3.org/2000/svg"
   xmlns:svg="http://www.w3.org/2000/svg"><defs
     id="defs1" /><g
     id="layer1"
     transform="translate(157.25102,198.81012)"><path
       id="path5"
       style="fill:#ffffff;fill-opacity:1;stroke-width:0.805188;stroke-linecap:round;stroke-linejoin:round"
       d="M -2.0863309 -198.17657 L -10.088943 -183.11289 L -10.930235 -165.68398 L -19.198981 -165.68398 L -11.423229 -155.47426 L -12.166336 -140.07934 C -28.353216 -157.12094 -50.823548 -166.77435 -74.327399 -166.78417 C -103.64471 -166.77397 -130.92652 -151.79225 -146.66717 -127.05894 L -157.25102 -127.05894 L -149.61996 -115.86014 L -157.25102 -26.140039 L -8.5138455 -26.140039 L 15.419061 -26.140039 L 8.0799737 -154.80195 L 15.419061 -165.68398 L 7.4593397 -165.68398 L 6.4490654 -183.39297 L -2.0863309 -198.17657 z M -83.43072 -192.21621 C -85.584619 -189.65499 -86.77489 -186.4211 -86.795372 -183.07465 C -86.842092 -175.15518 -80.459903 -168.69733 -72.540428 -168.65072 C -64.621155 -168.60402 -58.163395 -174.98588 -58.116503 -182.90515 C -58.102813 -186.26049 -59.266203 -189.5144 -61.404157 -192.10045 C -60.83125 -190.6836 -60.536835 -189.16959 -60.537027 -187.64129 C -60.575787 -181.07411 -65.930869 -175.78172 -72.498054 -175.82031 C -79.065241 -175.85911 -84.357627 -181.21415 -84.319038 -187.78134 C -84.309338 -189.30285 -84.007827 -190.80837 -83.43072 -192.21621 z M -110.17637 -133.81925 C -102.64672 -133.44277 -96.529006 -131.79518 -91.822972 -128.87744 L -125.42402 -73.534563 L -103.82327 -73.534563 L -102.41147 -96.547111 C -99.399612 -96.547111 -97.234985 -97.15909 -95.917296 -98.382658 C -94.505486 -99.606227 -93.422914 -101.67694 -92.669949 -104.59468 L -84.622895 -104.59468 L -84.763972 -72.828662 C -81.187386 -71.793335 -76.669792 -70.71128 -71.210794 -69.581832 L -71.916694 -62.804985 L -85.469872 -62.804985 L -85.469872 -37.533659 L -103.82327 -37.533659 L -103.82327 -62.804985 L -144.62492 -62.804985 L -145.75405 -67.887362 L -110.17637 -133.81925 z M -30.832897 -132.97176 C -19.632537 -132.97176 -11.067426 -129.86595 -5.1378242 -123.65398 C 0.88589846 -117.44202 3.8978 -108.45327 3.8978 -96.688188 C 3.8978 -81.911243 -0.71422268 -69.299132 -9.938048 -58.851738 C -19.067753 -48.498465 -32.338798 -40.875057 -49.751122 -35.980782 L -53.139545 -43.039783 C -43.727479 -47.086972 -36.150511 -52.2635 -30.40915 -58.569585 C -24.667789 -64.96979 -20.856086 -72.405373 -18.973672 -80.876233 C -24.24443 -78.240855 -29.374002 -76.922986 -34.362397 -76.922986 C -43.774464 -76.922986 -51.210047 -79.464294 -56.669046 -84.54681 C -62.033924 -89.629326 -64.7161 -96.500404 -64.7161 -105.15951 C -64.7161 -110.52438 -63.304319 -115.32423 -60.480699 -119.55966 C -57.562959 -123.79509 -53.562914 -127.08924 -48.480398 -129.44226 C -43.303762 -131.79528 -37.421343 -132.97176 -30.832897 -132.97176 z M -31.679873 -123.23024 C -35.727062 -123.23024 -38.833392 -121.67759 -40.998168 -118.57161 C -43.162943 -115.46562 -44.244998 -111.04194 -44.244998 -105.30058 C -44.244998 -99.465101 -43.068514 -94.900034 -40.715498 -91.605811 C -38.26836 -88.405708 -34.832821 -86.805587 -30.40915 -86.805587 C -26.550203 -86.805587 -22.267905 -88.405708 -17.561872 -91.605811 L -17.561872 -93.441358 C -17.561872 -103.70051 -18.6914 -111.23001 -20.950296 -116.03016 C -23.209192 -120.83031 -26.785599 -123.23024 -31.679873 -123.23024 z " /></g></svg>
