<?xml version="1.0" encoding="UTF-8" standalone="no"?>
<!-- Created with Inkscape (http://www.inkscape.org/) -->

<svg
   width="172.6701mm"
   height="172.6701mm"
   viewBox="0 0 172.6701 172.6701"
   version="1.1"
   id="svg1"
   xml:space="preserve"
   xmlns="http://www.w3.org/2000/svg"
   xmlns:svg="http://www.w3.org/2000/svg"><defs
     id="defs1" /><g
     id="layer1"
     transform="translate(157.25102,198.81012)"><path
       id="path5"
       style="fill:#ffffff;fill-opacity:1;stroke-width:0.805188;stroke-linecap:round;stroke-linejoin:round"
       d="M -2.0863309 -198.17657 L -10.088943 -183.11289 L -10.930235 -165.68398 L -19.198981 -165.68398 L -11.423229 -155.47426 L -12.166336 -140.07934 C -28.353216 -157.12094 -50.823548 -166.77435 -74.327399 -166.78417 C -103.64471 -166.77397 -130.92652 -151.79225 -146.66717 -127.05894 L -157.25102 -127.05894 L -149.61996 -115.86014 L -157.25102 -26.140039 L -8.5138455 -26.140039 L 15.419061 -26.140039 L 8.0799737 -154.80195 L 15.419061 -165.68398 L 7.4593397 -165.68398 L 6.4490654 -183.39297 L -2.0863309 -198.17657 z M -83.43072 -192.21621 C -85.584619 -189.65499 -86.77489 -186.4211 -86.795372 -183.07465 C -86.842092 -175.15518 -80.459903 -168.69733 -72.540428 -168.65072 C -64.621155 -168.60402 -58.163395 -174.98588 -58.116503 -182.90515 C -58.102813 -186.26049 -59.266203 -189.5144 -61.404157 -192.10045 C -60.83125 -190.6836 -60.536835 -189.16959 -60.537027 -187.64129 C -60.575787 -181.07411 -65.930869 -175.78172 -72.498054 -175.82031 C -79.065241 -175.85911 -84.357627 -181.21415 -84.319038 -187.78134 C -84.309338 -189.30285 -84.007827 -190.80837 -83.43072 -192.21621 z M -93.915351 -147.07994 C -85.436364 -146.65599 -78.547245 -144.80103 -73.247879 -141.51543 L -111.08536 -79.195199 L -86.761266 -79.195199 L -85.171699 -105.10886 C -81.780104 -105.10886 -79.342273 -105.79808 -77.85845 -107.17592 C -76.26864 -108.55376 -75.049724 -110.88523 -74.201826 -114.17084 L -65.139846 -114.17084 L -65.29901 -78.400415 C -61.271491 -77.234555 -56.184158 -76.015639 -50.036892 -74.743791 L -50.831676 -67.112732 L -66.093793 -67.112732 L -66.093793 -38.655038 L -86.761266 -38.655038 L -86.761266 -67.112732 L -132.70678 -67.112732 L -133.97854 -72.835897 L -93.915351 -147.07994 z M -22.533145 -111.94514 C -18.823588 -111.94514 -16.067734 -110.83257 -14.265949 -108.60684 C -12.358177 -106.48709 -11.404625 -103.51905 -11.404625 -99.703508 C -11.404625 -95.887964 -12.358177 -92.920439 -14.265949 -90.800692 C -16.067734 -88.680945 -18.823588 -87.621041 -22.533145 -87.621041 C -26.242702 -87.621041 -29.051215 -88.680945 -30.958987 -90.800692 C -32.760772 -93.026426 -33.661665 -95.993951 -33.661665 -99.703508 C -33.661665 -103.62504 -32.760772 -106.64574 -30.958987 -108.76549 C -29.051215 -110.88523 -26.242702 -111.94514 -22.533145 -111.94514 z M -22.533145 -61.866024 C -18.823588 -61.866024 -16.067734 -60.753461 -14.265949 -58.527727 C -12.358177 -56.40798 -11.404625 -53.439938 -11.404625 -49.624394 C -11.404625 -45.80885 -12.358177 -42.841325 -14.265949 -40.721578 C -16.067734 -38.601832 -18.823588 -37.541927 -22.533145 -37.541927 C -26.242702 -37.541927 -29.051215 -38.601832 -30.958987 -40.721578 C -32.760772 -42.947312 -33.661665 -45.914837 -33.661665 -49.624394 C -33.661665 -53.545925 -32.760772 -56.566627 -30.958987 -58.686373 C -29.051215 -60.80612 -26.242702 -61.866024 -22.533145 -61.866024 z " /></g></svg>
