<?xml version="1.0" encoding="UTF-8" standalone="no"?>
<!-- Created with Inkscape (http://www.inkscape.org/) -->

<svg
   width="172.6701mm"
   height="172.6701mm"
   viewBox="0 0 172.6701 172.6701"
   version="1.1"
   id="svg1"
   xml:space="preserve"
   xmlns="http://www.w3.org/2000/svg"
   xmlns:svg="http://www.w3.org/2000/svg"><defs
     id="defs1" /><g
     id="layer1"
     transform="translate(157.25102,198.81012)"><path
       id="path5"
       style="fill:#ffffff;fill-opacity:1;stroke-width:0.805188;stroke-linecap:round;stroke-linejoin:round"
       d="M -2.0863309 -198.17657 L -10.088943 -183.11289 L -10.930235 -165.68398 L -19.198981 -165.68398 L -11.423229 -155.47426 L -12.166336 -140.07934 C -28.353216 -157.12094 -50.823548 -166.77435 -74.327399 -166.78417 C -103.64471 -166.77397 -130.92652 -151.79225 -146.66717 -127.05894 L -157.25102 -127.05894 L -149.61996 -115.86014 L -157.25102 -26.140039 L -8.5138455 -26.140039 L 15.419061 -26.140039 L 8.0799737 -154.80195 L 15.419061 -165.68398 L 7.4593397 -165.68398 L 6.4490654 -183.39297 L -2.0863309 -198.17657 z M -83.43072 -192.21621 C -85.584619 -189.65499 -86.77489 -186.4211 -86.795372 -183.07465 C -86.842092 -175.15518 -80.459903 -168.69733 -72.540428 -168.65072 C -64.621155 -168.60402 -58.163395 -174.98588 -58.116503 -182.90515 C -58.102813 -186.26049 -59.266203 -189.5144 -61.404157 -192.10045 C -60.83125 -190.6836 -60.536835 -189.16959 -60.537027 -187.64129 C -60.575787 -181.07411 -65.930869 -175.78172 -72.498054 -175.82031 C -79.065241 -175.85911 -84.357627 -181.21415 -84.319038 -187.78134 C -84.309338 -189.30285 -84.007827 -190.80837 -83.43072 -192.21621 z M -128.54993 -120.07436 C -124.01507 -119.84761 -120.33011 -118.85557 -117.49582 -117.09831 L -137.73283 -83.767013 L -124.72329 -83.767013 L -123.87321 -97.626632 C -122.05927 -97.626632 -120.75542 -97.995076 -119.96182 -98.731991 C -119.11154 -99.468905 -118.45987 -100.71611 -118.00639 -102.47336 L -113.15965 -102.47336 L -113.2444 -83.341716 C -111.09035 -82.718173 -108.36937 -82.066508 -105.08159 -81.38628 L -105.50689 -77.304875 L -113.6697 -77.304875 L -113.6697 -62.084615 L -124.72329 -62.084615 L -124.72329 -77.304875 L -149.29647 -77.304875 L -149.97705 -80.36567 L -128.54993 -120.07436 z M -56.530553 -119.64906 C -49.898322 -119.64906 -44.824809 -117.15466 -41.310293 -112.16631 C -37.739092 -107.23465 -35.953514 -100.06428 -35.953514 -90.654448 C -35.953514 -81.244616 -37.739092 -74.017081 -41.310293 -68.97205 C -44.824809 -63.983706 -49.898322 -61.489303 -56.530553 -61.489303 C -63.162784 -61.489303 -68.264361 -63.983706 -71.835562 -68.97205 C -75.406763 -74.017081 -77.192341 -81.244616 -77.192341 -90.654448 C -77.192341 -100.00759 -75.406763 -107.17797 -71.835562 -112.16631 C -68.264361 -117.15466 -63.162784 -119.64906 -56.530553 -119.64906 z M -11.210322 -119.64906 C -4.5780908 -119.64906 0.49542227 -117.15466 4.0099378 -112.16631 C 7.5811392 -107.23465 9.3667168 -100.06428 9.3667168 -90.654448 C 9.3667168 -81.244616 7.5811392 -74.017081 4.0099378 -68.97205 C 0.49542227 -63.983706 -4.5780908 -61.489303 -11.210322 -61.489303 C -17.842553 -61.489303 -22.944129 -63.983706 -26.515331 -68.97205 C -30.086532 -74.017081 -31.87211 -81.244616 -31.87211 -90.654448 C -31.87211 -100.00759 -30.086532 -107.17797 -26.515331 -112.16631 C -22.944129 -117.15466 -17.842553 -119.64906 -11.210322 -119.64906 z M -56.530553 -115.31237 C -59.421525 -115.31237 -61.518903 -113.41351 -62.822675 -109.61556 C -64.069761 -105.81762 -64.693362 -99.497422 -64.693362 -90.654448 C -64.693362 -81.868159 -64.069761 -75.576025 -62.822675 -71.778081 C -61.518903 -68.036822 -59.421525 -66.16602 -56.530553 -66.16602 C -53.63958 -66.16602 -51.570266 -68.036822 -50.32318 -71.778081 C -49.019408 -75.576025 -48.367744 -81.868159 -48.367744 -90.654448 C -48.367744 -99.440737 -49.019408 -105.73287 -50.32318 -109.53081 C -51.570266 -113.38544 -53.63958 -115.31237 -56.530553 -115.31237 z M -11.210322 -115.31237 C -14.101294 -115.31237 -16.198672 -113.41351 -17.502444 -109.61556 C -18.74953 -105.81762 -19.372614 -99.497422 -19.372614 -90.654448 C -19.372614 -81.868159 -18.74953 -75.576025 -17.502444 -71.778081 C -16.198672 -68.036822 -14.101294 -66.16602 -11.210322 -66.16602 C -8.3193493 -66.16602 -6.2500349 -68.036822 -5.0029487 -71.778081 C -3.6991768 -75.576025 -3.0475125 -81.868159 -3.0475125 -90.654448 C -3.0475125 -99.440737 -3.6991768 -105.73287 -5.0029487 -109.53081 C -6.2500349 -113.38544 -8.3193493 -115.31237 -11.210322 -115.31237 z M -90.371898 -101.28274 C -88.387897 -101.28274 -86.91412 -100.68772 -85.950463 -99.497319 C -84.930119 -98.363604 -84.419807 -96.776539 -84.419807 -94.735852 C -84.419807 -92.695166 -84.930119 -91.107584 -85.950463 -89.973869 C -86.91412 -88.840154 -88.387897 -88.273198 -90.371898 -88.273198 C -92.355899 -88.273198 -93.858257 -88.840154 -94.8786 -89.973869 C -95.842257 -91.16427 -96.32399 -92.751852 -96.32399 -94.735852 C -96.32399 -96.833225 -95.842257 -98.448354 -94.8786 -99.582068 C -93.858257 -100.71578 -92.355899 -101.28274 -90.371898 -101.28274 z M -90.371898 -74.498845 C -88.387897 -74.498845 -86.91412 -73.903824 -85.950463 -72.713424 C -84.930119 -71.579709 -84.419807 -69.992127 -84.419807 -67.951441 C -84.419807 -65.910754 -84.930119 -64.323689 -85.950463 -63.189974 C -86.91412 -62.05626 -88.387897 -61.489303 -90.371898 -61.489303 C -92.355899 -61.489303 -93.858257 -62.05626 -94.8786 -63.189974 C -95.842257 -64.380375 -96.32399 -65.96744 -96.32399 -67.951441 C -96.32399 -70.048813 -95.842257 -71.664459 -94.8786 -72.798173 C -93.858257 -73.931888 -92.355899 -74.498845 -90.371898 -74.498845 z " /></g></svg>
