<?xml version="1.0" encoding="UTF-8" standalone="no"?>
<!-- Created with Inkscape (http://www.inkscape.org/) -->

<svg
   width="172.6701mm"
   height="172.6701mm"
   viewBox="0 0 172.6701 172.6701"
   version="1.1"
   id="svg1"
   xml:space="preserve"
   xmlns="http://www.w3.org/2000/svg"
   xmlns:svg="http://www.w3.org/2000/svg"><defs
     id="defs1" /><g
     id="layer1"
     transform="translate(157.25102,198.81012)"><path
       id="path5"
       style="fill:#ffffff;fill-opacity:1;stroke-width:0.805188;stroke-linecap:round;stroke-linejoin:round"
       d="M -2.0863309 -198.17657 L -10.088943 -183.11289 L -10.930235 -165.68398 L -19.198981 -165.68398 L -11.423229 -155.47426 L -12.166336 -140.07934 C -28.353216 -157.12094 -50.823548 -166.77435 -74.327399 -166.78417 C -103.64471 -166.77397 -130.92652 -151.79225 -146.66717 -127.05894 L -157.25102 -127.05894 L -149.61996 -115.86014 L -157.25102 -26.140039 L -8.5138455 -26.140039 L 15.419061 -26.140039 L 8.0799737 -154.80195 L 15.419061 -165.68398 L 7.4593397 -165.68398 L 6.4490654 -183.39297 L -2.0863309 -198.17657 z M -83.43072 -192.21621 C -85.584619 -189.65499 -86.77489 -186.4211 -86.795372 -183.07465 C -86.842092 -175.15518 -80.459903 -168.69733 -72.540428 -168.65072 C -64.621155 -168.60402 -58.163395 -174.98588 -58.116503 -182.90515 C -58.102813 -186.26049 -59.266203 -189.5144 -61.404157 -192.10045 C -60.83125 -190.6836 -60.536835 -189.16959 -60.537027 -187.64129 C -60.575787 -181.07411 -65.930869 -175.78172 -72.498054 -175.82031 C -79.065241 -175.85911 -84.357627 -181.21415 -84.319038 -187.78134 C -84.309338 -189.30285 -84.007827 -190.80837 -83.43072 -192.21621 z M -127.44405 -120.07436 C -122.9092 -119.84761 -119.22475 -118.85557 -116.39046 -117.09831 L -136.62747 -83.767013 L -123.61793 -83.767013 L -122.76785 -97.626632 C -120.95391 -97.626632 -119.65006 -97.995076 -118.85646 -98.731991 C -118.00618 -99.468905 -117.354 -100.71611 -116.90051 -102.47336 L -112.0543 -102.47336 L -112.13904 -83.341716 C -109.98499 -82.718173 -107.26401 -82.066508 -103.97624 -81.38628 L -104.40153 -77.304875 L -112.56434 -77.304875 L -112.56434 -62.084615 L -123.61793 -62.084615 L -123.61793 -77.304875 L -148.19111 -77.304875 L -148.87169 -80.36567 L -127.44405 -120.07436 z M -11.890384 -119.73381 C -6.0517529 -119.73381 -1.4033282 -118.28861 2.0545016 -115.39764 C 5.5123315 -112.56335 7.2412652 -108.56711 7.2412652 -103.40871 C 7.2412652 -98.873849 5.5123315 -94.026912 2.0545016 -88.86851 C -1.4033282 -83.766794 -7.1004419 -77.616529 -15.036445 -70.41744 L 7.8365777 -70.41744 L 7.8365777 -62.084615 L -30.681485 -62.084615 L -30.681485 -67.016097 C -24.389368 -73.081471 -19.486304 -78.268272 -15.971788 -82.576388 C -12.457273 -86.884504 -9.9348063 -90.852684 -8.4042915 -94.480571 C -6.8170909 -98.108458 -6.0235582 -101.84955 -6.0235582 -105.70418 C -6.0235582 -111.82623 -8.0637755 -114.88759 -12.145148 -114.88759 C -13.959092 -114.88759 -15.433386 -114.0369 -16.567101 -112.33633 C -17.700815 -110.69244 -18.267255 -108.65171 -18.267255 -106.21422 C -18.267255 -104.51365 -17.672235 -102.89852 -16.481835 -101.36801 C -17.445492 -100.46103 -18.550825 -99.752209 -19.797911 -99.242037 C -20.988312 -98.731866 -22.178869 -98.476709 -23.36927 -98.476709 C -25.409956 -98.476709 -27.110309 -99.10031 -28.470767 -100.3474 C -29.831225 -101.65117 -30.511469 -103.52197 -30.511469 -105.95946 C -30.511469 -108.567 -29.746517 -110.91953 -28.216002 -113.01691 C -26.685487 -115.11428 -24.531465 -116.75799 -21.753864 -117.94839 C -18.919577 -119.13879 -15.631642 -119.73381 -11.890384 -119.73381 z M -55.425194 -119.64906 C -48.792963 -119.64906 -43.71945 -117.15466 -40.204934 -112.16631 C -36.633733 -107.23465 -34.848155 -100.06428 -34.848155 -90.654448 C -34.848155 -81.244616 -36.633733 -74.017081 -40.204934 -68.97205 C -43.71945 -63.983706 -48.792963 -61.489303 -55.425194 -61.489303 C -62.057425 -61.489303 -67.159002 -63.983706 -70.730203 -68.97205 C -74.301404 -74.017081 -76.086982 -81.244616 -76.086982 -90.654448 C -76.086982 -100.00759 -74.301404 -107.17797 -70.730203 -112.16631 C -67.159002 -117.15466 -62.057425 -119.64906 -55.425194 -119.64906 z M -55.425194 -115.31237 C -58.316166 -115.31237 -60.413544 -113.41351 -61.717316 -109.61556 C -62.964403 -105.81762 -63.588003 -99.497422 -63.588003 -90.654448 C -63.588003 -81.868159 -62.964403 -75.576025 -61.717316 -71.778081 C -60.413544 -68.036822 -58.316166 -66.16602 -55.425194 -66.16602 C -52.534222 -66.16602 -50.464907 -68.036822 -49.217821 -71.778081 C -47.914049 -75.576025 -47.262385 -81.868159 -47.262385 -90.654448 C -47.262385 -99.440737 -47.914049 -105.73287 -49.217821 -109.53081 C -50.464907 -113.38544 -52.534222 -115.31237 -55.425194 -115.31237 z M -89.266539 -101.28274 C -87.282538 -101.28274 -85.808761 -100.68772 -84.845104 -99.497319 C -83.82476 -98.363604 -83.314448 -96.776539 -83.314448 -94.735852 C -83.314448 -92.695166 -83.82476 -91.107584 -84.845104 -89.973869 C -85.808761 -88.840154 -87.282538 -88.273198 -89.266539 -88.273198 C -91.25054 -88.273198 -92.752898 -88.840154 -93.773241 -89.973869 C -94.736898 -91.16427 -95.218631 -92.751852 -95.218631 -94.735852 C -95.218631 -96.833225 -94.736898 -98.448354 -93.773241 -99.582068 C -92.752898 -100.71578 -91.25054 -101.28274 -89.266539 -101.28274 z M -89.266539 -74.498845 C -87.282538 -74.498845 -85.808761 -73.903824 -84.845104 -72.713424 C -83.82476 -71.579709 -83.314448 -69.992127 -83.314448 -67.951441 C -83.314448 -65.910754 -83.82476 -64.323689 -84.845104 -63.189974 C -85.808761 -62.05626 -87.282538 -61.489303 -89.266539 -61.489303 C -91.25054 -61.489303 -92.752898 -62.05626 -93.773241 -63.189974 C -94.736898 -64.380375 -95.218631 -65.96744 -95.218631 -67.951441 C -95.218631 -70.048813 -94.736898 -71.664459 -93.773241 -72.798173 C -92.752898 -73.931888 -91.25054 -74.498845 -89.266539 -74.498845 z " /></g></svg>
