<?xml version="1.0" encoding="UTF-8" standalone="no"?>
<!-- Created with Inkscape (http://www.inkscape.org/) -->

<svg
   width="172.6701mm"
   height="172.6701mm"
   viewBox="0 0 172.6701 172.6701"
   version="1.1"
   id="svg1"
   xml:space="preserve"
   xmlns="http://www.w3.org/2000/svg"
   xmlns:svg="http://www.w3.org/2000/svg"><defs
     id="defs1" /><g
     id="layer1"
     transform="translate(157.25102,198.81012)"><path
       id="path5"
       style="fill:#ffffff;fill-opacity:1;stroke-width:0.805188;stroke-linecap:round;stroke-linejoin:round"
       d="M -2.0863309 -198.17657 L -10.088943 -183.11289 L -10.930235 -165.68398 L -19.198981 -165.68398 L -11.423229 -155.47426 L -12.166336 -140.07934 C -28.353216 -157.12094 -50.823548 -166.77435 -74.327399 -166.78417 C -103.64471 -166.77397 -130.92652 -151.79225 -146.66717 -127.05894 L -157.25102 -127.05894 L -149.61996 -115.86014 L -157.25102 -26.140039 L -8.5138455 -26.140039 L 15.419061 -26.140039 L 8.0799737 -154.80195 L 15.419061 -165.68398 L 7.4593397 -165.68398 L 6.4490654 -183.39297 L -2.0863309 -198.17657 z M -83.43072 -192.21621 C -85.584619 -189.65499 -86.77489 -186.4211 -86.795372 -183.07465 C -86.842092 -175.15518 -80.459903 -168.69733 -72.540428 -168.65072 C -64.621155 -168.60402 -58.163395 -174.98588 -58.116503 -182.90515 C -58.102813 -186.26049 -59.266203 -189.5144 -61.404157 -192.10045 C -60.83125 -190.6836 -60.536835 -189.16959 -60.537027 -187.64129 C -60.575787 -181.07411 -65.930869 -175.78172 -72.498054 -175.82031 C -79.065241 -175.85911 -84.357627 -181.21415 -84.319038 -187.78134 C -84.309338 -189.30285 -84.007827 -190.80837 -83.43072 -192.21621 z M -127.48695 -120.07436 C -122.95209 -119.84761 -119.26713 -118.85557 -116.43284 -117.09831 L -136.66985 -83.767013 L -123.66031 -83.767013 L -122.81023 -97.626632 C -120.99628 -97.626632 -119.69244 -97.995076 -118.89884 -98.731991 C -118.04855 -99.468905 -117.39689 -100.71611 -116.9434 -102.47336 L -112.09667 -102.47336 L -112.18142 -83.341716 C -110.02736 -82.718173 -107.30638 -82.066508 -104.01861 -81.38628 L -104.44391 -77.304875 L -112.60672 -77.304875 L -112.60672 -62.084615 L -123.66031 -62.084615 L -123.66031 -77.304875 L -148.23348 -77.304875 L -148.91406 -80.36567 L -127.48695 -120.07436 z M -12.272789 -119.73381 C -8.5882164 -119.73381 -5.3288614 -119.11073 -2.4945747 -117.86364 C 0.33971207 -116.67324 2.5503781 -114.97237 4.1375786 -112.76163 C 5.7247792 -110.60757 6.5183119 -108.11368 6.5183119 -105.27939 C 6.5183119 -102.10499 5.5829109 -99.384015 3.7122816 -97.116586 C 1.8416523 -94.849156 -0.93597033 -93.120223 -4.6205431 -91.929822 C 0.027687163 -90.909479 3.2875589 -89.237189 5.1581882 -86.913074 C 7.0288174 -84.588959 7.9637017 -81.442892 7.9637017 -77.474891 C 7.9637017 -74.017061 6.9150127 -71.069506 4.8176405 -68.632019 C 2.776954 -66.194533 0.1131361 -64.380375 -3.1746365 -63.189974 C -6.4624092 -61.999574 -9.8636325 -61.404554 -13.378148 -61.404554 C -18.479864 -61.404554 -22.816489 -62.453243 -26.38769 -64.550615 C -29.902205 -66.647987 -31.659203 -69.510317 -31.659203 -73.138204 C -31.659203 -75.235577 -31.036119 -76.851222 -29.789033 -77.984937 C -28.541947 -79.175337 -26.982945 -79.770358 -25.112316 -79.770358 C -23.185001 -79.770358 -21.229491 -79.005405 -19.24549 -77.474891 C -19.755662 -76.397862 -20.010301 -75.094016 -20.010301 -73.563501 C -20.010301 -71.749558 -19.471925 -70.275781 -18.394896 -69.142066 C -17.261181 -68.008351 -15.588892 -67.441394 -13.378148 -67.441394 C -8.5031749 -67.441394 -6.0659329 -70.814037 -6.0659329 -77.55964 C -6.0659329 -81.244213 -7.2559735 -84.10706 -9.6367744 -86.147746 C -11.96089 -88.188433 -15.277405 -89.208541 -19.585521 -89.208541 L -19.585521 -94.480571 C -11.252718 -95.1608 -7.0860257 -98.760535 -7.0860257 -105.27939 C -7.0860257 -108.56717 -7.5963384 -110.97583 -8.6166816 -112.50634 C -9.6370249 -114.09354 -11.025578 -114.88759 -12.782836 -114.88759 C -14.880208 -114.88759 -16.46779 -114.15071 -17.544819 -112.67688 C -18.565162 -111.20305 -19.074958 -109.41747 -19.074958 -107.3201 C -19.074958 -105.44947 -18.67845 -103.77718 -17.88485 -102.30335 C -19.47205 -100.60278 -21.512784 -99.752084 -24.006957 -99.752084 C -26.274386 -99.752084 -28.031383 -100.43233 -29.27847 -101.79279 C -30.525556 -103.15324 -31.149156 -104.91076 -31.149156 -107.06482 C -31.149156 -109.8991 -30.185692 -112.25164 -28.258377 -114.12227 C -26.274376 -116.04958 -23.836617 -117.46671 -20.945645 -118.37369 C -17.997987 -119.28066 -15.107076 -119.73381 -12.272789 -119.73381 z M -55.467569 -119.64906 C -48.835338 -119.64906 -43.761825 -117.15466 -40.247309 -112.16631 C -36.676108 -107.23465 -34.89053 -100.06428 -34.89053 -90.654448 C -34.89053 -81.244616 -36.676108 -74.017081 -40.247309 -68.97205 C -43.761825 -63.983706 -48.835338 -61.489303 -55.467569 -61.489303 C -62.0998 -61.489303 -67.201376 -63.983706 -70.772578 -68.97205 C -74.343779 -74.017081 -76.129357 -81.244616 -76.129357 -90.654448 C -76.129357 -100.00759 -74.343779 -107.17797 -70.772578 -112.16631 C -67.201376 -117.15466 -62.0998 -119.64906 -55.467569 -119.64906 z M -55.467569 -115.31237 C -58.358541 -115.31237 -60.455919 -113.41351 -61.759691 -109.61556 C -63.006777 -105.81762 -63.630378 -99.497422 -63.630378 -90.654448 C -63.630378 -81.868159 -63.006777 -75.576025 -61.759691 -71.778081 C -60.455919 -68.036822 -58.358541 -66.16602 -55.467569 -66.16602 C -52.576596 -66.16602 -50.507282 -68.036822 -49.260196 -71.778081 C -47.956424 -75.576025 -47.304759 -81.868159 -47.304759 -90.654448 C -47.304759 -99.440737 -47.956424 -105.73287 -49.260196 -109.53081 C -50.507282 -113.38544 -52.576596 -115.31237 -55.467569 -115.31237 z M -89.308914 -101.28274 C -87.324913 -101.28274 -85.851136 -100.68772 -84.887478 -99.497319 C -83.867135 -98.363604 -83.356822 -96.776539 -83.356822 -94.735852 C -83.356822 -92.695166 -83.867135 -91.107584 -84.887478 -89.973869 C -85.851136 -88.840154 -87.324913 -88.273198 -89.308914 -88.273198 C -91.292915 -88.273198 -92.795272 -88.840154 -93.815616 -89.973869 C -94.779273 -91.16427 -95.261005 -92.751852 -95.261005 -94.735852 C -95.261005 -96.833225 -94.779273 -98.448354 -93.815616 -99.582068 C -92.795272 -100.71578 -91.292915 -101.28274 -89.308914 -101.28274 z M -89.308914 -74.498845 C -87.324913 -74.498845 -85.851136 -73.903824 -84.887478 -72.713424 C -83.867135 -71.579709 -83.356822 -69.992127 -83.356822 -67.951441 C -83.356822 -65.910754 -83.867135 -64.323689 -84.887478 -63.189974 C -85.851136 -62.05626 -87.324913 -61.489303 -89.308914 -61.489303 C -91.292915 -61.489303 -92.795272 -62.05626 -93.815616 -63.189974 C -94.779273 -64.380375 -95.261005 -65.96744 -95.261005 -67.951441 C -95.261005 -70.048813 -94.779273 -71.664459 -93.815616 -72.798173 C -92.795272 -73.931888 -91.292915 -74.498845 -89.308914 -74.498845 z " /></g></svg>
