<?xml version="1.0" encoding="UTF-8" standalone="no"?>
<!-- Created with Inkscape (http://www.inkscape.org/) -->

<svg
   width="172.6701mm"
   height="172.6701mm"
   viewBox="0 0 172.6701 172.6701"
   version="1.1"
   id="svg1"
   xml:space="preserve"
   xmlns="http://www.w3.org/2000/svg"
   xmlns:svg="http://www.w3.org/2000/svg"><defs
     id="defs1" /><g
     id="layer1"
     transform="translate(157.25102,198.81012)"><path
       id="path5"
       style="fill:#ffffff;fill-opacity:1;stroke-width:0.805188;stroke-linecap:round;stroke-linejoin:round"
       d="M -2.0863309 -198.17657 L -10.088943 -183.11289 L -10.930235 -165.68398 L -19.198981 -165.68398 L -11.423229 -155.47426 L -12.166336 -140.07934 C -28.353216 -157.12094 -50.823548 -166.77435 -74.327399 -166.78417 C -103.64471 -166.77397 -130.92652 -151.79225 -146.66717 -127.05894 L -157.25102 -127.05894 L -149.61996 -115.86014 L -157.25102 -26.140039 L -8.5138455 -26.140039 L 15.419061 -26.140039 L 8.0799737 -154.80195 L 15.419061 -165.68398 L 7.4593397 -165.68398 L 6.4490654 -183.39297 L -2.0863309 -198.17657 z M -83.43072 -192.21621 C -85.584619 -189.65499 -86.77489 -186.4211 -86.795372 -183.07465 C -86.842092 -175.15518 -80.459903 -168.69733 -72.540428 -168.65072 C -64.621155 -168.60402 -58.163395 -174.98588 -58.116503 -182.90515 C -58.102813 -186.26049 -59.266203 -189.5144 -61.404157 -192.10045 C -60.83125 -190.6836 -60.536835 -189.16959 -60.537027 -187.64129 C -60.575787 -181.07411 -65.930869 -175.78172 -72.498054 -175.82031 C -79.065241 -175.85911 -84.357627 -181.21415 -84.319038 -187.78134 C -84.309338 -189.30285 -84.007827 -190.80837 -83.43072 -192.21621 z M -127.99699 -120.07436 C -123.46213 -119.84761 -119.77769 -118.85557 -116.9434 -117.09831 L -137.17989 -83.767013 L -124.17087 -83.767013 L -123.32027 -97.626632 C -121.50633 -97.626632 -120.20249 -97.995076 -119.40889 -98.731991 C -118.5586 -99.468905 -117.90694 -100.71611 -117.45345 -102.47336 L -112.60672 -102.47336 L -112.69198 -83.341716 C -110.53792 -82.718173 -107.81695 -82.066508 -104.52917 -81.38628 L -104.95447 -77.304875 L -113.11676 -77.304875 L -113.11676 -62.084615 L -124.17087 -62.084615 L -124.17087 -77.304875 L -148.74405 -77.304875 L -149.42411 -80.36567 L -127.99699 -120.07436 z M -55.977615 -119.64906 C -49.345384 -119.64906 -44.271871 -117.15466 -40.757355 -112.16631 C -37.186154 -107.23465 -35.400576 -100.06428 -35.400576 -90.654448 C -35.400576 -81.244616 -37.186154 -74.017081 -40.757355 -68.97205 C -44.271871 -63.983706 -49.345384 -61.489303 -55.977615 -61.489303 C -62.609846 -61.489303 -67.711423 -63.983706 -71.282624 -68.97205 C -74.853825 -74.017081 -76.63992 -81.244616 -76.63992 -90.654448 C -76.63992 -100.00759 -74.853825 -107.17797 -71.282624 -112.16631 C -67.711423 -117.15466 -62.609846 -119.64906 -55.977615 -119.64906 z M -24.176972 -119.05375 L -19.925552 -118.969 C -13.916864 -118.85563 -10.742217 -118.79847 -10.402102 -118.79847 L 1.6715793 -118.969 L 4.1375786 -117.18306 L 3.3722507 -110.72092 L -17.714834 -110.72092 L -18.904943 -96.521273 C -15.957284 -97.258188 -13.293466 -97.626632 -10.912666 -97.626632 C -5.3007777 -97.626632 -0.7375774 -96.124274 2.7769382 -93.11993 C 6.3481395 -90.172272 8.1337171 -85.836165 8.1337171 -80.110905 C 8.1337171 -76.539704 7.2835405 -73.336993 5.5829684 -70.502706 C 3.9390821 -67.66842 1.5584842 -65.429173 -1.5592313 -63.785287 C -4.6769467 -62.198086 -8.36139 -61.404554 -12.61282 -61.404554 C -16.07065 -61.404554 -19.216717 -61.886286 -22.051004 -62.849943 C -24.828605 -63.813601 -27.011207 -65.14551 -28.598408 -66.846082 C -30.185608 -68.60334 -30.979141 -70.559366 -30.979141 -72.713424 C -30.979141 -74.980853 -30.35554 -76.709787 -29.108454 -77.900188 C -27.861368 -79.147274 -26.330947 -79.770358 -24.517003 -79.770358 C -23.49666 -79.770358 -22.476551 -79.572362 -21.456208 -79.175562 C -20.379179 -78.778762 -19.415198 -78.211805 -18.564912 -77.474891 C -19.075083 -76.28449 -19.33024 -75.037289 -19.33024 -73.733517 C -19.33024 -71.862888 -18.791863 -70.332466 -17.714834 -69.142066 C -16.58112 -67.951665 -14.88025 -67.356645 -12.61282 -67.356645 C -7.511104 -67.356645 -4.960574 -71.608045 -4.960574 -80.110905 C -4.960574 -84.135593 -5.7541067 -87.054567 -7.3413073 -88.86851 C -8.9285079 -90.73914 -11.053949 -91.674541 -13.718179 -91.674541 C -15.362065 -91.674541 -17.119579 -91.36274 -18.990209 -90.739197 C -20.860838 -90.115654 -22.70306 -89.236897 -24.517003 -88.103182 L -29.19372 -92.609884 L -26.983002 -116.75776 L -24.176972 -119.05375 z M -55.977615 -115.31237 C -58.868588 -115.31237 -60.965966 -113.41351 -62.269737 -109.61556 C -63.516824 -105.81762 -64.140424 -99.497422 -64.140424 -90.654448 C -64.140424 -81.868159 -63.516824 -75.576025 -62.269737 -71.778081 C -60.965966 -68.036822 -58.868588 -66.16602 -55.977615 -66.16602 C -53.086643 -66.16602 -51.017845 -68.036822 -49.770759 -71.778081 C -48.466987 -75.576025 -47.814806 -81.868159 -47.814806 -90.654448 C -47.814806 -99.440737 -48.466987 -105.73287 -49.770759 -109.53081 C -51.017845 -113.38544 -53.086643 -115.31237 -55.977615 -115.31237 z M -89.81896 -101.28274 C -87.83496 -101.28274 -86.361182 -100.68772 -85.397525 -99.497319 C -84.377181 -98.363604 -83.867386 -96.776539 -83.867386 -94.735852 C -83.867386 -92.695166 -84.377181 -91.107584 -85.397525 -89.973869 C -86.361182 -88.840154 -87.83496 -88.273198 -89.81896 -88.273198 C -91.802961 -88.273198 -93.305319 -88.840154 -94.325662 -89.973869 C -95.289319 -91.16427 -95.771052 -92.751852 -95.771052 -94.735852 C -95.771052 -96.833225 -95.289319 -98.448354 -94.325662 -99.582068 C -93.305319 -100.71578 -91.802961 -101.28274 -89.81896 -101.28274 z M -89.81896 -74.498845 C -87.83496 -74.498845 -86.361182 -73.903824 -85.397525 -72.713424 C -84.377181 -71.579709 -83.867386 -69.992127 -83.867386 -67.951441 C -83.867386 -65.910754 -84.377181 -64.323689 -85.397525 -63.189974 C -86.361182 -62.05626 -87.83496 -61.489303 -89.81896 -61.489303 C -91.802961 -61.489303 -93.305319 -62.05626 -94.325662 -63.189974 C -95.289319 -64.380375 -95.771052 -65.96744 -95.771052 -67.951441 C -95.771052 -70.048813 -95.289319 -71.664459 -94.325662 -72.798173 C -93.305319 -73.931888 -91.802961 -74.498845 -89.81896 -74.498845 z " /></g></svg>
