<?xml version="1.0" encoding="UTF-8" standalone="no"?>
<!-- Created with Inkscape (http://www.inkscape.org/) -->

<svg
   width="172.6701mm"
   height="172.6701mm"
   viewBox="0 0 172.6701 172.6701"
   version="1.1"
   id="svg1"
   xml:space="preserve"
   xmlns="http://www.w3.org/2000/svg"
   xmlns:svg="http://www.w3.org/2000/svg"><defs
     id="defs1" /><g
     id="layer1"
     transform="translate(157.25102,198.81012)"><path
       id="path5"
       style="fill:#ffffff;fill-opacity:1;stroke-width:0.805188;stroke-linecap:round;stroke-linejoin:round"
       d="M -2.0863309 -198.17657 L -10.088943 -183.11289 L -10.930235 -165.68398 L -19.198981 -165.68398 L -11.423229 -155.47426 L -12.166336 -140.07934 C -28.353216 -157.12094 -50.823548 -166.77435 -74.327399 -166.78417 C -103.64471 -166.77397 -130.92652 -151.79225 -146.66717 -127.05894 L -157.25102 -127.05894 L -149.61996 -115.86014 L -157.25102 -26.140039 L -8.5138455 -26.140039 L 15.419061 -26.140039 L 8.0799737 -154.80195 L 15.419061 -165.68398 L 7.4593397 -165.68398 L 6.4490654 -183.39297 L -2.0863309 -198.17657 z M -83.43072 -192.21621 C -85.584619 -189.65499 -86.77489 -186.4211 -86.795372 -183.07465 C -86.842092 -175.15518 -80.459903 -168.69733 -72.540428 -168.65072 C -64.621155 -168.60402 -58.163395 -174.98588 -58.116503 -182.90515 C -58.102813 -186.26049 -59.266203 -189.5144 -61.404157 -192.10045 C -60.83125 -190.6836 -60.536835 -189.16959 -60.537027 -187.64129 C -60.575787 -181.07411 -65.930869 -175.78172 -72.498054 -175.82031 C -79.065241 -175.85911 -84.357627 -181.21415 -84.319038 -187.78134 C -84.309338 -189.30285 -84.007827 -190.80837 -83.43072 -192.21621 z M -129.52765 -120.07436 C -124.99279 -119.84761 -121.30783 -118.85557 -118.47354 -117.09831 L -138.71055 -83.767013 L -125.70101 -83.767013 L -124.85093 -97.626632 C -123.03699 -97.626632 -121.73314 -97.995076 -120.93954 -98.731991 C -120.08926 -99.468905 -119.43759 -100.71611 -118.98411 -102.47336 L -114.13737 -102.47336 L -114.22212 -83.341716 C -112.06806 -82.718173 -109.34709 -82.066508 -106.05931 -81.38628 L -106.48461 -77.304875 L -114.64742 -77.304875 L -114.64742 -62.084615 L -125.70101 -62.084615 L -125.70101 -77.304875 L -150.27418 -77.304875 L -150.95476 -80.36567 L -129.52765 -120.07436 z M -11.507461 -119.81908 C -5.5554591 -119.81908 -0.82232675 -118.54381 2.6921888 -115.99295 C 6.2067044 -113.44209 7.9637017 -110.01229 7.9637017 -105.70418 C 7.9637017 -103.38006 7.113525 -101.05611 5.412953 -98.731991 C 3.7123809 -96.407876 1.4731346 -94.50901 -1.3044665 -93.035181 C 2.2100491 -91.334609 4.9596082 -89.350519 6.9436089 -87.08309 C 8.9842954 -84.81566 10.004404 -81.896169 10.004404 -78.324968 C 10.004404 -73.166566 8.1341187 -69.057034 4.3928602 -65.996005 C 0.65160169 -62.991661 -4.3938477 -61.489303 -10.74265 -61.489303 C -17.714995 -61.489303 -23.099792 -62.878373 -26.897736 -65.655974 C -30.638995 -68.433575 -32.509797 -72.401238 -32.509797 -77.55964 C -32.509797 -80.223869 -31.65962 -82.86014 -29.959048 -85.467684 C -28.258476 -88.131914 -25.877361 -90.483931 -22.816332 -92.524618 C -25.36719 -93.941761 -27.35128 -95.642631 -28.768423 -97.626632 C -30.185567 -99.610633 -30.894392 -102.07646 -30.894392 -105.02411 C -30.894392 -109.55897 -29.136878 -113.15871 -25.622362 -115.82294 C -22.107846 -118.48717 -17.402778 -119.81908 -11.507461 -119.81908 z M -57.508271 -119.64906 C -50.87604 -119.64906 -45.802527 -117.15466 -42.288011 -112.16631 C -38.71681 -107.23465 -36.931232 -100.06428 -36.931232 -90.654448 C -36.931232 -81.244616 -38.71681 -74.017081 -42.288011 -68.97205 C -45.802527 -63.983706 -50.87604 -61.489303 -57.508271 -61.489303 C -64.140502 -61.489303 -69.242079 -63.983706 -72.81328 -68.97205 C -76.384481 -74.017081 -78.170059 -81.244616 -78.170059 -90.654448 C -78.170059 -100.00759 -76.384481 -107.17797 -72.81328 -112.16631 C -69.242079 -117.15466 -64.140502 -119.64906 -57.508271 -119.64906 z M -57.508271 -115.31237 C -60.399243 -115.31237 -62.496621 -113.41351 -63.800393 -109.61556 C -65.04748 -105.81762 -65.67108 -99.497422 -65.67108 -90.654448 C -65.67108 -81.868159 -65.04748 -75.576025 -63.800393 -71.778081 C -62.496621 -68.036822 -60.399243 -66.16602 -57.508271 -66.16602 C -54.617298 -66.16602 -52.547984 -68.036822 -51.300898 -71.778081 C -49.997126 -75.576025 -49.345462 -81.868159 -49.345462 -90.654448 C -49.345462 -99.440737 -49.997126 -105.73287 -51.300898 -109.53081 C -52.547984 -113.38544 -54.617298 -115.31237 -57.508271 -115.31237 z M -11.507461 -113.78224 C -13.774891 -113.78224 -15.560468 -113.04535 -16.86424 -111.57152 C -18.168012 -110.15437 -18.820193 -108.22693 -18.820193 -105.78944 C -18.820193 -103.63538 -17.99808 -101.84981 -16.354194 -100.43266 C -14.653622 -99.072205 -12.187799 -97.711715 -8.9567125 -96.351258 C -7.5395692 -97.314915 -6.4061726 -98.646824 -5.5558865 -100.3474 C -4.7056005 -102.04797 -4.2799954 -103.86213 -4.2799954 -105.78944 C -4.2799954 -108.22693 -4.9602401 -110.15437 -6.3206977 -111.57152 C -7.6244696 -113.04535 -9.3534033 -113.78224 -11.507461 -113.78224 z M -91.349616 -101.28274 C -89.365615 -101.28274 -87.891838 -100.68772 -86.928181 -99.497319 C -85.907837 -98.363604 -85.397525 -96.776539 -85.397525 -94.735852 C -85.397525 -92.695166 -85.907837 -91.107584 -86.928181 -89.973869 C -87.891838 -88.840154 -89.365615 -88.273198 -91.349616 -88.273198 C -93.333617 -88.273198 -94.835975 -88.840154 -95.856318 -89.973869 C -96.819975 -91.16427 -97.301708 -92.751852 -97.301708 -94.735852 C -97.301708 -96.833225 -96.819975 -98.448354 -95.856318 -99.582068 C -94.835975 -100.71578 -93.333617 -101.28274 -91.349616 -101.28274 z M -14.99407 -89.038526 C -16.694642 -87.678068 -17.941327 -86.119583 -18.734927 -84.362325 C -19.528527 -82.605068 -19.925552 -80.50769 -19.925552 -78.070203 C -19.925552 -74.725745 -19.103439 -72.089474 -17.459553 -70.162159 C -15.815666 -68.291529 -13.576937 -67.356645 -10.74265 -67.356645 C -7.965049 -67.356645 -5.8105103 -68.291529 -4.2799954 -70.162159 C -2.6927948 -72.032788 -1.8992622 -74.640479 -1.8992622 -77.984937 C -1.8992622 -79.855566 -2.4947993 -81.442631 -3.6851997 -82.746403 C -4.8189144 -84.106861 -6.2641113 -85.212194 -8.0213691 -86.06248 C -9.7786269 -86.969452 -12.103098 -87.961497 -14.99407 -89.038526 z M -91.349616 -74.498845 C -89.365615 -74.498845 -87.891838 -73.903824 -86.928181 -72.713424 C -85.907837 -71.579709 -85.397525 -69.992127 -85.397525 -67.951441 C -85.397525 -65.910754 -85.907837 -64.323689 -86.928181 -63.189974 C -87.891838 -62.05626 -89.365615 -61.489303 -91.349616 -61.489303 C -93.333617 -61.489303 -94.835975 -62.05626 -95.856318 -63.189974 C -96.819975 -64.380375 -97.301708 -65.96744 -97.301708 -67.951441 C -97.301708 -70.048813 -96.819975 -71.664459 -95.856318 -72.798173 C -94.835975 -73.931888 -93.333617 -74.498845 -91.349616 -74.498845 z " /></g></svg>
