<?xml version="1.0" encoding="UTF-8" standalone="no"?>
<!-- Created with Inkscape (http://www.inkscape.org/) -->

<svg
   width="172.6701mm"
   height="172.6701mm"
   viewBox="0 0 172.6701 172.6701"
   version="1.1"
   id="svg1"
   xml:space="preserve"
   xmlns="http://www.w3.org/2000/svg"
   xmlns:svg="http://www.w3.org/2000/svg"><defs
     id="defs1" /><g
     id="layer1"
     transform="translate(157.25102,198.81012)"><path
       id="path5"
       style="fill:#ffffff;fill-opacity:1;stroke-width:0.805188;stroke-linecap:round;stroke-linejoin:round"
       d="M -2.0863309 -198.17657 L -10.088943 -183.11289 L -10.930235 -165.68398 L -19.198981 -165.68398 L -11.423229 -155.47426 L -12.166336 -140.07934 C -28.353216 -157.12094 -50.823548 -166.77435 -74.327399 -166.78417 C -103.64471 -166.77397 -130.92652 -151.79225 -146.66717 -127.05894 L -157.25102 -127.05894 L -149.61996 -115.86014 L -157.25102 -26.140039 L -8.5138455 -26.140039 L 15.419061 -26.140039 L 8.0799737 -154.80195 L 15.419061 -165.68398 L 7.4593397 -165.68398 L 6.4490654 -183.39297 L -2.0863309 -198.17657 z M -83.43072 -192.21621 C -85.584619 -189.65499 -86.77489 -186.4211 -86.795372 -183.07465 C -86.842092 -175.15518 -80.459903 -168.69733 -72.540428 -168.65072 C -64.621155 -168.60402 -58.163395 -174.98588 -58.116503 -182.90515 C -58.102813 -186.26049 -59.266203 -189.5144 -61.404157 -192.10045 C -60.83125 -190.6836 -60.536835 -189.16959 -60.537027 -187.64129 C -60.575787 -181.07411 -65.930869 -175.78172 -72.498054 -175.82031 C -79.065241 -175.85911 -84.357627 -181.21415 -84.319038 -187.78134 C -84.309338 -189.30285 -84.007827 -190.80837 -83.43072 -192.21621 z M -128.5923 -120.07436 C -124.05745 -119.84761 -120.37249 -118.85557 -117.5382 -117.09831 L -137.77521 -83.767013 L -124.76566 -83.767013 L -123.91559 -97.626632 C -122.10164 -97.626632 -120.7978 -97.995076 -120.0042 -98.731991 C -119.15391 -99.468905 -118.50225 -100.71611 -118.04876 -102.47336 L -113.20203 -102.47336 L -113.28678 -83.341716 C -111.13272 -82.718173 -108.41226 -82.066508 -105.12449 -81.38628 L -105.54927 -77.304875 L -113.71208 -77.304875 L -113.71208 -62.084615 L -124.76566 -62.084615 L -124.76566 -77.304875 L -149.33936 -77.304875 L -150.01942 -80.36567 L -128.5923 -120.07436 z M -56.572928 -119.64906 C -49.940697 -119.64906 -44.867184 -117.15466 -41.352668 -112.16631 C -37.781467 -107.23465 -35.995889 -100.06428 -35.995889 -90.654448 C -35.995889 -81.244616 -37.781467 -74.017081 -41.352668 -68.97205 C -44.867184 -63.983706 -49.940697 -61.489303 -56.572928 -61.489303 C -63.205159 -61.489303 -68.306735 -63.983706 -71.877937 -68.97205 C -75.449138 -74.017081 -77.234715 -81.244616 -77.234715 -90.654448 C -77.234715 -100.00759 -75.449138 -107.17797 -71.877937 -112.16631 C -68.306735 -117.15466 -63.205159 -119.64906 -56.572928 -119.64906 z M -11.677993 -119.56379 C -4.932391 -119.56379 0.2263464 -117.69351 3.7975477 -113.95225 C 7.4254348 -110.21099 9.239076 -104.7971 9.239076 -97.711381 C 9.239076 -88.811721 6.4614534 -81.216258 0.90625132 -74.924142 C -4.592265 -68.688711 -12.584752 -64.09693 -23.071613 -61.149272 L -25.112316 -65.400692 C -19.443742 -67.838179 -14.880542 -70.956182 -11.422712 -74.754126 C -7.9648821 -78.608756 -5.6689917 -83.086732 -4.535277 -88.188448 C -7.7096782 -86.601248 -10.799101 -85.807715 -13.803445 -85.807715 C -19.472019 -85.807715 -23.949995 -87.338137 -27.237767 -90.399166 C -30.468854 -93.460196 -32.0845 -97.598308 -32.0845 -102.8134 C -32.0845 -106.04448 -31.234323 -108.93539 -29.533751 -111.48625 C -27.776493 -114.03711 -25.367315 -116.0212 -22.306285 -117.43834 C -19.18857 -118.85549 -15.645995 -119.56379 -11.677993 -119.56379 z M -56.572928 -115.31237 C -59.4639 -115.31237 -61.561278 -113.41351 -62.86505 -109.61556 C -64.112136 -105.81762 -64.735737 -99.497422 -64.735737 -90.654448 C -64.735737 -81.868159 -64.112136 -75.576025 -62.86505 -71.778081 C -61.561278 -68.036822 -59.4639 -66.16602 -56.572928 -66.16602 C -53.681955 -66.16602 -51.613157 -68.036822 -50.366071 -71.778081 C -49.062299 -75.576025 -48.410118 -81.868159 -48.410118 -90.654448 C -48.410118 -99.440737 -49.062299 -105.73287 -50.366071 -109.53081 C -51.613157 -113.38544 -53.681955 -115.31237 -56.572928 -115.31237 z M -12.18804 -113.69697 C -14.625526 -113.69697 -16.495812 -112.76157 -17.799584 -110.89094 C -19.103356 -109.02031 -19.755537 -106.35597 -19.755537 -102.89814 C -19.755537 -99.383629 -19.046712 -96.634587 -17.629568 -94.650586 C -16.155739 -92.723271 -14.086941 -91.759807 -11.422712 -91.759807 C -9.0985968 -91.759807 -6.5194864 -92.723271 -3.6851997 -94.650586 L -3.6851997 -95.755945 C -3.6851997 -101.93469 -4.3654444 -106.46931 -5.725902 -109.36028 C -7.0863596 -112.25126 -9.2403816 -113.69697 -12.18804 -113.69697 z M -90.414273 -101.28274 C -88.430272 -101.28274 -86.956495 -100.68772 -85.992837 -99.497319 C -84.972494 -98.363604 -84.462181 -96.776539 -84.462181 -94.735852 C -84.462181 -92.695166 -84.972494 -91.107584 -85.992837 -89.973869 C -86.956495 -88.840154 -88.430272 -88.273198 -90.414273 -88.273198 C -92.398273 -88.273198 -93.900631 -88.840154 -94.920974 -89.973869 C -95.884632 -91.16427 -96.366364 -92.751852 -96.366364 -94.735852 C -96.366364 -96.833225 -95.884632 -98.448354 -94.920974 -99.582068 C -93.900631 -100.71578 -92.398273 -101.28274 -90.414273 -101.28274 z M -90.414273 -74.498845 C -88.430272 -74.498845 -86.956495 -73.903824 -85.992837 -72.713424 C -84.972494 -71.579709 -84.462181 -69.992127 -84.462181 -67.951441 C -84.462181 -65.910754 -84.972494 -64.323689 -85.992837 -63.189974 C -86.956495 -62.05626 -88.430272 -61.489303 -90.414273 -61.489303 C -92.398273 -61.489303 -93.900631 -62.05626 -94.920974 -63.189974 C -95.884632 -64.380375 -96.366364 -65.96744 -96.366364 -67.951441 C -96.366364 -70.048813 -95.884632 -71.664459 -94.920974 -72.798173 C -93.900631 -73.931888 -92.398273 -74.498845 -90.414273 -74.498845 z " /></g></svg>
