<?xml version="1.0" encoding="UTF-8" standalone="no"?>
<!-- Created with Inkscape (http://www.inkscape.org/) -->

<svg
   width="172.6701mm"
   height="172.6701mm"
   viewBox="0 0 172.6701 172.6701"
   version="1.1"
   id="svg1"
   xml:space="preserve"
   xmlns="http://www.w3.org/2000/svg"
   xmlns:svg="http://www.w3.org/2000/svg"><defs
     id="defs1" /><g
     id="layer1"
     transform="translate(157.25102,198.81012)"><path
       id="path5"
       style="fill:#ffffff;fill-opacity:1;stroke-width:0.805188;stroke-linecap:round;stroke-linejoin:round"
       d="M -2.0863309 -198.17657 L -10.088943 -183.11289 L -10.930235 -165.68398 L -19.198981 -165.68398 L -11.423229 -155.47426 L -12.166336 -140.07934 C -28.353216 -157.12094 -50.823548 -166.77435 -74.327399 -166.78417 C -103.64471 -166.77397 -130.92652 -151.79225 -146.66717 -127.05894 L -157.25102 -127.05894 L -149.61996 -115.86014 L -157.25102 -26.140039 L -8.5138455 -26.140039 L 15.419061 -26.140039 L 8.0799737 -154.80195 L 15.419061 -165.68398 L 7.4593397 -165.68398 L 6.4490654 -183.39297 L -2.0863309 -198.17657 z M -83.43072 -192.21621 C -85.584619 -189.65499 -86.77489 -186.4211 -86.795372 -183.07465 C -86.842092 -175.15518 -80.459903 -168.69733 -72.540428 -168.65072 C -64.621155 -168.60402 -58.163395 -174.98588 -58.116503 -182.90515 C -58.102813 -186.26049 -59.266203 -189.5144 -61.404157 -192.10045 C -60.83125 -190.6836 -60.536835 -189.16959 -60.537027 -187.64129 C -60.575787 -181.07411 -65.930869 -175.78172 -72.498054 -175.82031 C -79.065241 -175.85911 -84.357627 -181.21415 -84.319038 -187.78134 C -84.309338 -189.30285 -84.007827 -190.80837 -83.43072 -192.21621 z M -125.36098 -120.07436 C -120.82612 -119.84761 -117.14167 -118.85557 -114.30739 -117.09831 L -134.5444 -83.767013 L -121.53485 -83.767013 L -120.68426 -97.626632 C -118.87032 -97.626632 -117.56699 -97.995076 -116.77339 -98.731991 C -115.9231 -99.468905 -115.27092 -100.71611 -114.81743 -102.47336 L -109.9707 -102.47336 L -110.05597 -83.341716 C -107.90191 -82.718173 -105.18093 -82.066508 -101.89316 -81.38628 L -102.31846 -77.304875 L -110.48126 -77.304875 L -110.48126 -62.084615 L -121.53485 -62.084615 L -121.53485 -77.304875 L -146.10803 -77.304875 L -146.78809 -80.36567 L -125.36098 -120.07436 z M -14.398758 -119.64906 C -7.7665266 -119.64906 -2.6930136 -117.15466 0.82150197 -112.16631 C 4.3927033 -107.23465 6.1782809 -100.06428 6.1782809 -90.654448 C 6.1782809 -81.244616 4.3927033 -74.017081 0.82150197 -68.97205 C -2.6930136 -63.983706 -7.7665266 -61.489303 -14.398758 -61.489303 C -21.030989 -61.489303 -26.132565 -63.983706 -29.703767 -68.97205 C -33.274968 -74.017081 -35.060546 -81.244616 -35.060546 -90.654448 C -35.060546 -100.00759 -33.274968 -107.17797 -29.703767 -112.16631 C -26.132565 -117.15466 -21.030989 -119.64906 -14.398758 -119.64906 z M -52.576789 -119.13901 L -49.770759 -117.86364 L -49.770759 -68.716769 C -48.69373 -68.093226 -46.99286 -67.526269 -44.668745 -67.016097 C -42.344629 -66.562611 -40.502408 -66.279392 -39.14195 -66.16602 L -39.397232 -62.084615 L -74.088654 -62.084615 L -73.918639 -66.16602 C -68.873608 -66.732877 -65.019233 -67.583054 -62.355004 -68.716769 L -62.355004 -109.44555 L -73.748623 -109.44555 L -73.748623 -114.37703 C -70.120736 -114.66046 -66.379649 -115.19935 -62.525019 -115.99295 C -58.670389 -116.84324 -55.35439 -117.89193 -52.576789 -119.13901 z M -14.398758 -115.31237 C -17.28973 -115.31237 -19.387108 -113.41351 -20.69088 -109.61556 C -21.937966 -105.81762 -22.561567 -99.497422 -22.561567 -90.654448 C -22.561567 -81.868159 -21.937966 -75.576025 -20.69088 -71.778081 C -19.387108 -68.036822 -17.28973 -66.16602 -14.398758 -66.16602 C -11.507785 -66.16602 -9.4384708 -68.036822 -8.1913846 -71.778081 C -6.8876127 -75.576025 -6.2359484 -81.868159 -6.2359484 -90.654448 C -6.2359484 -99.440737 -6.8876127 -105.73287 -8.1913846 -109.53081 C -9.4384708 -113.38544 -11.507785 -115.31237 -14.398758 -115.31237 z M -87.183462 -101.28274 C -85.199461 -101.28274 -83.725684 -100.68772 -82.762027 -99.497319 C -81.741683 -98.363604 -81.231371 -96.776539 -81.231371 -94.735852 C -81.231371 -92.695166 -81.741683 -91.107584 -82.762027 -89.973869 C -83.725684 -88.840154 -85.199461 -88.273198 -87.183462 -88.273198 C -89.167463 -88.273198 -90.669304 -88.840154 -91.689647 -89.973869 C -92.653305 -91.16427 -93.135037 -92.751852 -93.135037 -94.735852 C -93.135037 -96.833225 -92.653305 -98.448354 -91.689647 -99.582068 C -90.669304 -100.71578 -89.167463 -101.28274 -87.183462 -101.28274 z M -87.183462 -74.498845 C -85.199461 -74.498845 -83.725684 -73.903824 -82.762027 -72.713424 C -81.741683 -71.579709 -81.231371 -69.992127 -81.231371 -67.951441 C -81.231371 -65.910754 -81.741683 -64.323689 -82.762027 -63.189974 C -83.725684 -62.05626 -85.199461 -61.489303 -87.183462 -61.489303 C -89.167463 -61.489303 -90.669304 -62.05626 -91.689647 -63.189974 C -92.653305 -64.380375 -93.135037 -65.96744 -93.135037 -67.951441 C -93.135037 -70.048813 -92.653305 -71.664459 -91.689647 -72.798173 C -90.669304 -73.931888 -89.167463 -74.498845 -87.183462 -74.498845 z " /></g></svg>
