<?xml version="1.0" encoding="UTF-8" standalone="no"?>
<!-- Created with Inkscape (http://www.inkscape.org/) -->

<svg
   width="172.6701mm"
   height="172.6701mm"
   viewBox="0 0 172.6701 172.6701"
   version="1.1"
   id="svg1"
   xml:space="preserve"
   xmlns="http://www.w3.org/2000/svg"
   xmlns:svg="http://www.w3.org/2000/svg"><defs
     id="defs1" /><g
     id="layer1"
     transform="translate(157.25102,198.81012)"><path
       id="path5"
       style="fill:#ffffff;fill-opacity:1;stroke-width:0.805188;stroke-linecap:round;stroke-linejoin:round"
       d="M -2.0863309 -198.17657 L -10.088943 -183.11289 L -10.930235 -165.68398 L -19.198981 -165.68398 L -11.423229 -155.47426 L -12.166336 -140.07934 C -28.353216 -157.12094 -50.823548 -166.77435 -74.327399 -166.78417 C -103.64471 -166.77397 -130.92652 -151.79225 -146.66717 -127.05894 L -157.25102 -127.05894 L -149.61996 -115.86014 L -157.25102 -26.140039 L -8.5138455 -26.140039 L 15.419061 -26.140039 L 8.0799737 -154.80195 L 15.419061 -165.68398 L 7.4593397 -165.68398 L 6.4490654 -183.39297 L -2.0863309 -198.17657 z M -83.43072 -192.21621 C -85.584619 -189.65499 -86.77489 -186.4211 -86.795372 -183.07465 C -86.842092 -175.15518 -80.459903 -168.69733 -72.540428 -168.65072 C -64.621155 -168.60402 -58.163395 -174.98588 -58.116503 -182.90515 C -58.102813 -186.26049 -59.266203 -189.5144 -61.404157 -192.10045 C -60.83125 -190.6836 -60.536835 -189.16959 -60.537027 -187.64129 C -60.575787 -181.07411 -65.930869 -175.78172 -72.498054 -175.82031 C -79.065241 -175.85911 -84.357627 -181.21415 -84.319038 -187.78134 C -84.309338 -189.30285 -84.007827 -190.80837 -83.43072 -192.21621 z M -124.25562 -120.07436 C -119.72076 -119.84761 -116.03632 -118.85557 -113.20203 -117.09831 L -133.43852 -83.767013 L -120.42949 -83.767013 L -119.5789 -97.626632 C -117.76496 -97.626632 -116.46163 -97.995076 -115.66803 -98.731991 C -114.81774 -99.468905 -114.16556 -100.71611 -113.71208 -102.47336 L -108.86534 -102.47336 L -108.95061 -83.341716 C -106.79655 -82.718173 -104.07557 -82.066508 -100.7878 -81.38628 L -101.2131 -77.304875 L -109.37591 -77.304875 L -109.37591 -62.084615 L -120.42949 -62.084615 L -120.42949 -77.304875 L -145.00267 -77.304875 L -145.68273 -80.36567 L -124.25562 -120.07436 z M -15.078819 -119.73381 C -9.2401888 -119.73381 -4.5922808 -118.28861 -1.134451 -115.39764 C 2.3233788 -112.56335 4.0523125 -108.56711 4.0523125 -103.40871 C 4.0523125 -98.873849 2.3233788 -94.026912 -1.134451 -88.86851 C -4.5922808 -83.766794 -10.288878 -77.616529 -18.224881 -70.41744 L 4.647625 -70.41744 L 4.647625 -62.084615 L -33.870437 -62.084615 L -33.870437 -67.016097 C -27.578321 -73.081471 -22.67474 -78.268272 -19.160224 -82.576388 C -15.645709 -86.884504 -13.123242 -90.852684 -11.592727 -94.480571 C -10.005527 -98.108458 -9.2119941 -101.84955 -9.2119941 -105.70418 C -9.2119941 -111.82623 -11.252728 -114.88759 -15.334101 -114.88759 C -17.148045 -114.88759 -18.621822 -114.0369 -19.755537 -112.33633 C -20.889251 -110.69244 -21.456208 -108.65171 -21.456208 -106.21422 C -21.456208 -104.51365 -20.860671 -102.89852 -19.67027 -101.36801 C -20.633928 -100.46103 -21.739261 -99.752209 -22.986347 -99.242037 C -24.176748 -98.731866 -25.367305 -98.476709 -26.557705 -98.476709 C -28.598392 -98.476709 -30.299262 -99.10031 -31.65972 -100.3474 C -33.020177 -101.65117 -33.700422 -103.52197 -33.700422 -105.95946 C -33.700422 -108.567 -32.934953 -110.91953 -31.404438 -113.01691 C -29.873923 -115.11428 -27.719901 -116.75799 -24.9423 -117.94839 C -22.108013 -119.13879 -18.820078 -119.73381 -15.078819 -119.73381 z M -51.470913 -119.13901 L -48.6654 -117.86364 L -48.6654 -68.716769 C -47.588371 -68.093226 -45.887501 -67.526269 -43.563386 -67.016097 C -41.239271 -66.562611 -39.397049 -66.279392 -38.036591 -66.16602 L -38.291873 -62.084615 L -72.983295 -62.084615 L -72.81328 -66.16602 C -67.76825 -66.732877 -63.913874 -67.583054 -61.249645 -68.716769 L -61.249645 -109.44555 L -72.643264 -109.44555 L -72.643264 -114.37703 C -69.015377 -114.66046 -65.27429 -115.19935 -61.41966 -115.99295 C -57.56503 -116.84324 -54.248514 -117.89193 -51.470913 -119.13901 z M -86.078103 -101.28274 C -84.094103 -101.28274 -82.619809 -100.68772 -81.656151 -99.497319 C -80.635808 -98.363604 -80.126012 -96.776539 -80.126012 -94.735852 C -80.126012 -92.695166 -80.635808 -91.107584 -81.656151 -89.973869 C -82.619809 -88.840154 -84.094103 -88.273198 -86.078103 -88.273198 C -88.062104 -88.273198 -89.563945 -88.840154 -90.584288 -89.973869 C -91.547946 -91.16427 -92.029678 -92.751852 -92.029678 -94.735852 C -92.029678 -96.833225 -91.547946 -98.448354 -90.584288 -99.582068 C -89.563945 -100.71578 -88.062104 -101.28274 -86.078103 -101.28274 z M -86.078103 -74.498845 C -84.094103 -74.498845 -82.619809 -73.903824 -81.656151 -72.713424 C -80.635808 -71.579709 -80.126012 -69.992127 -80.126012 -67.951441 C -80.126012 -65.910754 -80.635808 -64.323689 -81.656151 -63.189974 C -82.619809 -62.05626 -84.094103 -61.489303 -86.078103 -61.489303 C -88.062104 -61.489303 -89.563945 -62.05626 -90.584288 -63.189974 C -91.547946 -64.380375 -92.029678 -65.96744 -92.029678 -67.951441 C -92.029678 -70.048813 -91.547946 -71.664459 -90.584288 -72.798173 C -89.563945 -73.931888 -88.062104 -74.498845 -86.078103 -74.498845 z " /></g></svg>
