<?xml version="1.0" encoding="UTF-8" standalone="no"?>
<!-- Created with Inkscape (http://www.inkscape.org/) -->

<svg
   width="172.6701mm"
   height="172.6701mm"
   viewBox="0 0 172.6701 172.6701"
   version="1.1"
   id="svg1"
   xml:space="preserve"
   xmlns="http://www.w3.org/2000/svg"
   xmlns:svg="http://www.w3.org/2000/svg"><defs
     id="defs1" /><g
     id="layer1"
     transform="translate(157.25102,198.81012)"><path
       id="path5"
       style="fill:#ffffff;fill-opacity:1;stroke-width:0.805188;stroke-linecap:round;stroke-linejoin:round"
       d="M -2.0863309 -198.17657 L -10.088943 -183.11289 L -10.930235 -165.68398 L -19.198981 -165.68398 L -11.423229 -155.47426 L -12.166336 -140.07934 C -28.353216 -157.12094 -50.823548 -166.77435 -74.327399 -166.78417 C -103.64471 -166.77397 -130.92652 -151.79225 -146.66717 -127.05894 L -157.25102 -127.05894 L -149.61996 -115.86014 L -157.25102 -26.140039 L -8.5138455 -26.140039 L 15.419061 -26.140039 L 8.0799737 -154.80195 L 15.419061 -165.68398 L 7.4593397 -165.68398 L 6.4490654 -183.39297 L -2.0863309 -198.17657 z M -83.43072 -192.21621 C -85.584619 -189.65499 -86.77489 -186.4211 -86.795372 -183.07465 C -86.842092 -175.15518 -80.459903 -168.69733 -72.540428 -168.65072 C -64.621155 -168.60402 -58.163395 -174.98588 -58.116503 -182.90515 C -58.102813 -186.26049 -59.266203 -189.5144 -61.404157 -192.10045 C -60.83125 -190.6836 -60.536835 -189.16959 -60.537027 -187.64129 C -60.575787 -181.07411 -65.930869 -175.78172 -72.498054 -175.82031 C -79.065241 -175.85911 -84.357627 -181.21415 -84.319038 -187.78134 C -84.309338 -189.30285 -84.007827 -190.80837 -83.43072 -192.21621 z M -124.29799 -120.07436 C -119.76313 -119.84761 -116.07869 -118.85557 -113.2444 -117.09831 L -133.48141 -83.767013 L -120.47187 -83.767013 L -119.62179 -97.626632 C -117.80785 -97.626632 -116.504 -97.995076 -115.7104 -98.731991 C -114.86012 -99.468905 -114.20794 -100.71611 -113.75445 -102.47336 L -108.90823 -102.47336 L -108.99298 -83.341716 C -106.83893 -82.718173 -104.11795 -82.066508 -100.83017 -81.38628 L -101.25547 -77.304875 L -109.41828 -77.304875 L -109.41828 -62.084615 L -120.47187 -62.084615 L -120.47187 -77.304875 L -145.04505 -77.304875 L -145.72511 -80.36567 L -124.29799 -120.07436 z M -15.461742 -119.73381 C -11.777169 -119.73381 -8.5172973 -119.11073 -5.6830106 -117.86364 C -2.8487238 -116.67324 -0.63805782 -114.97237 0.94914276 -112.76163 C 2.5363433 -110.60757 3.329876 -108.11368 3.329876 -105.27939 C 3.329876 -102.10499 2.394475 -99.384015 0.52384572 -97.116586 C -1.3467835 -94.849156 -4.1244062 -93.120223 -7.808979 -91.929822 C -3.1607487 -90.909479 0.098606277 -89.237189 1.9692355 -86.913074 C 3.8398648 -84.588959 4.7752658 -81.442892 4.7752658 -77.474891 C 4.7752658 -74.017061 3.7265768 -71.069506 1.6292046 -68.632019 C -0.41148185 -66.194533 -3.0758165 -64.380375 -6.3635892 -63.189974 C -9.6513618 -61.999574 -13.052585 -61.404554 -16.567101 -61.404554 C -21.668817 -61.404554 -26.004924 -62.453243 -29.576126 -64.550615 C -33.090641 -66.647987 -34.848155 -69.510317 -34.848155 -73.138204 C -34.848155 -75.235577 -34.224555 -76.851222 -32.977469 -77.984937 C -31.730382 -79.175337 -30.171381 -79.770358 -28.300751 -79.770358 C -26.373436 -79.770358 -24.417927 -79.005405 -22.433926 -77.474891 C -22.944098 -76.397862 -23.199254 -75.094016 -23.199254 -73.563501 C -23.199254 -71.749558 -22.660361 -70.275781 -21.583332 -69.142066 C -20.449617 -68.008351 -18.777844 -67.441394 -16.567101 -67.441394 C -11.692128 -67.441394 -9.2543688 -70.814037 -9.2543688 -77.55964 C -9.2543688 -81.244213 -10.444926 -84.10706 -12.825727 -86.147746 C -15.149842 -88.188433 -18.465841 -89.208541 -22.773957 -89.208541 L -22.773957 -94.480571 C -14.441154 -95.1608 -10.274978 -98.760535 -10.274978 -105.27939 C -10.274978 -108.56717 -10.784774 -110.97583 -11.805117 -112.50634 C -12.825461 -114.09354 -14.21453 -114.88759 -15.971788 -114.88759 C -18.06916 -114.88759 -19.656226 -114.15071 -20.733255 -112.67688 C -21.753598 -111.20305 -22.263911 -109.41747 -22.263911 -107.3201 C -22.263911 -105.44947 -21.866886 -103.77718 -21.073286 -102.30335 C -22.660486 -100.60278 -24.70122 -99.752084 -27.195393 -99.752084 C -29.462822 -99.752084 -31.220336 -100.43233 -32.467422 -101.79279 C -33.714508 -103.15324 -34.338109 -104.91076 -34.338109 -107.06482 C -34.338109 -109.8991 -33.374128 -112.25164 -31.446813 -114.12227 C -29.462812 -116.04958 -27.02557 -117.46671 -24.134597 -118.37369 C -21.186939 -119.28066 -18.296029 -119.73381 -15.461742 -119.73381 z M -51.513805 -119.13901 L -48.707775 -117.86364 L -48.707775 -68.716769 C -47.630746 -68.093226 -45.929876 -67.526269 -43.60576 -67.016097 C -41.281645 -66.562611 -39.439424 -66.279392 -38.078966 -66.16602 L -38.334248 -62.084615 L -73.02567 -62.084615 L -72.855655 -66.16602 C -67.810624 -66.732877 -63.956249 -67.583054 -61.292019 -68.716769 L -61.292019 -109.44555 L -72.685639 -109.44555 L -72.685639 -114.37703 C -69.057752 -114.66046 -65.316665 -115.19935 -61.462035 -115.99295 C -57.607405 -116.84324 -54.291406 -117.89193 -51.513805 -119.13901 z M -86.120478 -101.28274 C -84.136477 -101.28274 -82.6627 -100.68772 -81.699042 -99.497319 C -80.678699 -98.363604 -80.168387 -96.776539 -80.168387 -94.735852 C -80.168387 -92.695166 -80.678699 -91.107584 -81.699042 -89.973869 C -82.6627 -88.840154 -84.136477 -88.273198 -86.120478 -88.273198 C -88.104479 -88.273198 -89.60632 -88.840154 -90.626663 -89.973869 C -91.59032 -91.16427 -92.072569 -92.751852 -92.072569 -94.735852 C -92.072569 -96.833225 -91.59032 -98.448354 -90.626663 -99.582068 C -89.60632 -100.71578 -88.104479 -101.28274 -86.120478 -101.28274 z M -86.120478 -74.498845 C -84.136477 -74.498845 -82.6627 -73.903824 -81.699042 -72.713424 C -80.678699 -71.579709 -80.168387 -69.992127 -80.168387 -67.951441 C -80.168387 -65.910754 -80.678699 -64.323689 -81.699042 -63.189974 C -82.6627 -62.05626 -84.136477 -61.489303 -86.120478 -61.489303 C -88.104479 -61.489303 -89.60632 -62.05626 -90.626663 -63.189974 C -91.59032 -64.380375 -92.072569 -65.96744 -92.072569 -67.951441 C -92.072569 -70.048813 -91.59032 -71.664459 -90.626663 -72.798173 C -89.60632 -73.931888 -88.104479 -74.498845 -86.120478 -74.498845 z " /></g></svg>
