<?xml version="1.0" encoding="UTF-8" standalone="no"?>
<!-- Created with Inkscape (http://www.inkscape.org/) -->

<svg
   width="172.6701mm"
   height="172.6701mm"
   viewBox="0 0 172.6701 172.6701"
   version="1.1"
   id="svg1"
   xml:space="preserve"
   xmlns="http://www.w3.org/2000/svg"
   xmlns:svg="http://www.w3.org/2000/svg"><defs
     id="defs1" /><g
     id="layer1"
     transform="translate(157.25102,198.81012)"><path
       id="path5"
       style="fill:#ffffff;fill-opacity:1;stroke-width:0.805188;stroke-linecap:round;stroke-linejoin:round"
       d="M -2.0863309 -198.17657 L -10.088943 -183.11289 L -10.930235 -165.68398 L -19.198981 -165.68398 L -11.423229 -155.47426 L -12.166336 -140.07934 C -28.353216 -157.12094 -50.823548 -166.77435 -74.327399 -166.78417 C -103.64471 -166.77397 -130.92652 -151.79225 -146.66717 -127.05894 L -157.25102 -127.05894 L -149.61996 -115.86014 L -157.25102 -26.140039 L -8.5138455 -26.140039 L 15.419061 -26.140039 L 8.0799737 -154.80195 L 15.419061 -165.68398 L 7.4593397 -165.68398 L 6.4490654 -183.39297 L -2.0863309 -198.17657 z M -83.43072 -192.21621 C -85.584619 -189.65499 -86.77489 -186.4211 -86.795372 -183.07465 C -86.842092 -175.15518 -80.459903 -168.69733 -72.540428 -168.65072 C -64.621155 -168.60402 -58.163395 -174.98588 -58.116503 -182.90515 C -58.102813 -186.26049 -59.266203 -189.5144 -61.404157 -192.10045 C -60.83125 -190.6836 -60.536835 -189.16959 -60.537027 -187.64129 C -60.575787 -181.07411 -65.930869 -175.78172 -72.498054 -175.82031 C -79.065241 -175.85911 -84.357627 -181.21415 -84.319038 -187.78134 C -84.309338 -189.30285 -84.007827 -190.80837 -83.43072 -192.21621 z M -126.33869 -120.07436 C -121.80384 -119.84761 -118.11939 -118.85557 -115.28511 -117.09831 L -135.52211 -83.767013 L -122.51257 -83.767013 L -121.66249 -97.626632 C -119.84855 -97.626632 -118.54471 -97.995076 -117.75111 -98.731991 C -116.90082 -99.468905 -116.24864 -100.71611 -115.79515 -102.47336 L -110.94842 -102.47336 L -111.03369 -83.341716 C -108.87963 -82.718173 -106.15865 -82.066508 -102.87088 -81.38628 L -103.29617 -77.304875 L -111.45898 -77.304875 L -111.45898 -62.084615 L -122.51257 -62.084615 L -122.51257 -77.304875 L -147.08575 -77.304875 L -147.76581 -80.36567 L -126.33869 -120.07436 z M -14.696414 -119.81908 C -8.7444117 -119.81908 -4.0107626 -118.54381 -0.49624705 -115.99295 C 3.0182685 -113.44209 4.7752658 -110.01229 4.7752658 -105.70418 C 4.7752658 -103.38006 3.9250892 -101.05611 2.2245171 -98.731991 C 0.52394506 -96.407876 -1.7153013 -94.50901 -4.4929023 -93.035181 C -0.97838675 -91.334609 1.7711723 -89.350519 3.755173 -87.08309 C 5.7958595 -84.81566 6.8159681 -81.896169 6.8159681 -78.324968 C 6.8159681 -73.166566 4.9451661 -69.057034 1.2039076 -65.996005 C -2.5373509 -62.991661 -7.5822836 -61.489303 -13.931086 -61.489303 C -20.903431 -61.489303 -26.288745 -62.878373 -30.086689 -65.655974 C -33.827947 -68.433575 -35.698233 -72.401238 -35.698233 -77.55964 C -35.698233 -80.223869 -34.848056 -82.86014 -33.147484 -85.467684 C -31.446912 -88.131914 -29.066314 -90.483931 -26.005284 -92.524618 C -28.556142 -93.941761 -30.539716 -95.642631 -31.956859 -97.626632 C -33.374002 -99.610633 -34.082827 -102.07646 -34.082827 -105.02411 C -34.082827 -109.55897 -32.325313 -113.15871 -28.810798 -115.82294 C -25.296282 -118.48717 -20.59173 -119.81908 -14.696414 -119.81908 z M -53.554507 -119.13901 L -50.748477 -117.86364 L -50.748477 -68.716769 C -49.671448 -68.093226 -47.970578 -67.526269 -45.646463 -67.016097 C -43.322348 -66.562611 -41.480126 -66.279392 -40.119668 -66.16602 L -40.37495 -62.084615 L -75.066372 -62.084615 L -74.896357 -66.16602 C -69.851326 -66.732877 -65.996951 -67.583054 -63.332722 -68.716769 L -63.332722 -109.44555 L -74.726341 -109.44555 L -74.726341 -114.37703 C -71.098454 -114.66046 -67.357367 -115.19935 -63.502737 -115.99295 C -59.648107 -116.84324 -56.332108 -117.89193 -53.554507 -119.13901 z M -14.696414 -113.78224 C -16.963843 -113.78224 -18.749421 -113.04535 -20.053193 -111.57152 C -21.356965 -110.15437 -22.008629 -108.22693 -22.008629 -105.78944 C -22.008629 -103.63538 -21.187033 -101.84981 -19.543146 -100.43266 C -17.842574 -99.072205 -15.376752 -97.711715 -12.145665 -96.351258 C -10.728522 -97.314915 -9.5946084 -98.646824 -8.7443224 -100.3474 C -7.8940364 -102.04797 -7.4689481 -103.86213 -7.4689481 -105.78944 C -7.4689481 -108.22693 -8.1491927 -110.15437 -9.5096504 -111.57152 C -10.813422 -113.04535 -12.542356 -113.78224 -14.696414 -113.78224 z M -88.16118 -101.28274 C -86.17718 -101.28274 -84.703402 -100.68772 -83.739745 -99.497319 C -82.719402 -98.363604 -82.209089 -96.776539 -82.209089 -94.735852 C -82.209089 -92.695166 -82.719402 -91.107584 -83.739745 -89.973869 C -84.703402 -88.840154 -86.17718 -88.273198 -88.16118 -88.273198 C -90.145181 -88.273198 -91.647022 -88.840154 -92.667365 -89.973869 C -93.631023 -91.16427 -94.113272 -92.751852 -94.113272 -94.735852 C -94.113272 -96.833225 -93.631023 -98.448354 -92.667365 -99.582068 C -91.647022 -100.71578 -90.145181 -101.28274 -88.16118 -101.28274 z M -18.182506 -89.038526 C -19.883078 -87.678068 -21.130279 -86.119583 -21.92388 -84.362325 C -22.71748 -82.605068 -23.113988 -80.50769 -23.113988 -78.070203 C -23.113988 -74.725745 -22.292392 -72.089474 -20.648505 -70.162159 C -19.004619 -68.291529 -16.765373 -67.356645 -13.931086 -67.356645 C -11.153485 -67.356645 -8.9994629 -68.291529 -7.4689481 -70.162159 C -5.8817475 -72.032788 -5.0882148 -74.640479 -5.0882148 -77.984937 C -5.0882148 -79.855566 -5.6832351 -81.442631 -6.8736356 -82.746403 C -8.0073503 -84.106861 -9.453064 -85.212194 -11.210322 -86.06248 C -12.96758 -86.969452 -15.291534 -87.961497 -18.182506 -89.038526 z M -88.16118 -74.498845 C -86.17718 -74.498845 -84.703402 -73.903824 -83.739745 -72.713424 C -82.719402 -71.579709 -82.209089 -69.992127 -82.209089 -67.951441 C -82.209089 -65.910754 -82.719402 -64.323689 -83.739745 -63.189974 C -84.703402 -62.05626 -86.17718 -61.489303 -88.16118 -61.489303 C -90.145181 -61.489303 -91.647022 -62.05626 -92.667365 -63.189974 C -93.631023 -64.380375 -94.113272 -65.96744 -94.113272 -67.951441 C -94.113272 -70.048813 -93.631023 -71.664459 -92.667365 -72.798173 C -91.647022 -73.931888 -90.145181 -74.498845 -88.16118 -74.498845 z " /></g></svg>
