<?xml version="1.0" encoding="UTF-8" standalone="no"?>
<!-- Created with Inkscape (http://www.inkscape.org/) -->

<svg
   width="172.6701mm"
   height="172.6701mm"
   viewBox="0 0 172.6701 172.6701"
   version="1.1"
   id="svg1"
   xml:space="preserve"
   xmlns="http://www.w3.org/2000/svg"
   xmlns:svg="http://www.w3.org/2000/svg"><defs
     id="defs1" /><g
     id="layer1"
     transform="translate(157.25102,198.81012)"><path
       id="path5"
       style="fill:#ffffff;fill-opacity:1;stroke-width:0.805188;stroke-linecap:round;stroke-linejoin:round"
       d="M -2.0863309 -198.17657 L -10.088943 -183.11289 L -10.930235 -165.68398 L -19.198981 -165.68398 L -11.423229 -155.47426 L -12.166336 -140.07934 C -28.353216 -157.12094 -50.823548 -166.77435 -74.327399 -166.78417 C -103.64471 -166.77397 -130.92652 -151.79225 -146.66717 -127.05894 L -157.25102 -127.05894 L -149.61996 -115.86014 L -157.25102 -26.140039 L -8.5138455 -26.140039 L 15.419061 -26.140039 L 8.0799737 -154.80195 L 15.419061 -165.68398 L 7.4593397 -165.68398 L 6.4490654 -183.39297 L -2.0863309 -198.17657 z M -83.43072 -192.21621 C -85.584619 -189.65499 -86.77489 -186.4211 -86.795372 -183.07465 C -86.842092 -175.15518 -80.459903 -168.69733 -72.540428 -168.65072 C -64.621155 -168.60402 -58.163395 -174.98588 -58.116503 -182.90515 C -58.102813 -186.26049 -59.266203 -189.5144 -61.404157 -192.10045 C -60.83125 -190.6836 -60.536835 -189.16959 -60.537027 -187.64129 C -60.575787 -181.07411 -65.930869 -175.78172 -72.498054 -175.82031 C -79.065241 -175.85911 -84.357627 -181.21415 -84.319038 -187.78134 C -84.309338 -189.30285 -84.007827 -190.80837 -83.43072 -192.21621 z M -124.25562 -120.07436 C -119.72076 -119.84761 -116.03632 -118.85557 -113.20203 -117.09831 L -133.43852 -83.767013 L -120.42949 -83.767013 L -119.5789 -97.626632 C -117.76496 -97.626632 -116.46163 -97.995076 -115.66803 -98.731991 C -114.81774 -99.468905 -114.16556 -100.71611 -113.71208 -102.47336 L -108.86534 -102.47336 L -108.95061 -83.341716 C -106.79655 -82.718173 -104.07557 -82.066508 -100.7878 -81.38628 L -101.2131 -77.304875 L -109.37591 -77.304875 L -109.37591 -62.084615 L -120.42949 -62.084615 L -120.42949 -77.304875 L -145.00267 -77.304875 L -145.68273 -80.36567 L -124.25562 -120.07436 z M -54.022179 -119.73381 C -48.183548 -119.73381 -43.535123 -118.28861 -40.077294 -115.39764 C -36.619464 -112.56335 -34.89053 -108.56711 -34.89053 -103.40871 C -34.89053 -98.873849 -36.619464 -94.026912 -40.077294 -88.86851 C -43.535123 -83.766794 -49.232237 -77.616529 -57.16824 -70.41744 L -34.295218 -70.41744 L -34.295218 -62.084615 L -72.81328 -62.084615 L -72.81328 -67.016097 C -66.521163 -73.081471 -61.618099 -78.268272 -58.103583 -82.576388 C -54.589068 -86.884504 -52.066602 -90.852684 -50.536087 -94.480571 C -48.948886 -98.108458 -48.154837 -101.84955 -48.154837 -105.70418 C -48.154837 -111.82623 -50.195571 -114.88759 -54.276944 -114.88759 C -56.090887 -114.88759 -57.564665 -114.0369 -58.698379 -112.33633 C -59.832094 -110.69244 -60.399051 -108.65171 -60.399051 -106.21422 C -60.399051 -104.51365 -59.80403 -102.89852 -58.61363 -101.36801 C -59.577287 -100.46103 -60.68262 -99.752209 -61.929707 -99.242037 C -63.120107 -98.731866 -64.310664 -98.476709 -65.501065 -98.476709 C -67.541751 -98.476709 -69.242105 -99.10031 -70.602562 -100.3474 C -71.96302 -101.65117 -72.643264 -103.52197 -72.643264 -105.95946 C -72.643264 -108.567 -71.877795 -110.91953 -70.347281 -113.01691 C -68.816766 -115.11428 -66.662744 -116.75799 -63.885143 -117.94839 C -61.050856 -119.13879 -57.763437 -119.73381 -54.022179 -119.73381 z M -8.3619168 -119.13901 L -5.5558865 -117.86364 L -5.5558865 -68.716769 C -4.4788576 -68.093226 -2.7779875 -67.526269 -0.45387238 -67.016097 C 1.8702428 -66.562611 3.7124644 -66.279392 5.0729221 -66.16602 L 4.8176405 -62.084615 L -29.873782 -62.084615 L -29.703767 -66.16602 C -24.658736 -66.732877 -20.804361 -67.583054 -18.140131 -68.716769 L -18.140131 -109.44555 L -29.533751 -109.44555 L -29.533751 -114.37703 C -25.905864 -114.66046 -22.164777 -115.19935 -18.310147 -115.99295 C -14.455517 -116.84324 -11.139518 -117.89193 -8.3619168 -119.13901 z M -86.078103 -101.28274 C -84.094103 -101.28274 -82.619809 -100.68772 -81.656151 -99.497319 C -80.635808 -98.363604 -80.126012 -96.776539 -80.126012 -94.735852 C -80.126012 -92.695166 -80.635808 -91.107584 -81.656151 -89.973869 C -82.619809 -88.840154 -84.094103 -88.273198 -86.078103 -88.273198 C -88.062104 -88.273198 -89.563945 -88.840154 -90.584288 -89.973869 C -91.547946 -91.16427 -92.029678 -92.751852 -92.029678 -94.735852 C -92.029678 -96.833225 -91.547946 -98.448354 -90.584288 -99.582068 C -89.563945 -100.71578 -88.062104 -101.28274 -86.078103 -101.28274 z M -86.078103 -74.498845 C -84.094103 -74.498845 -82.619809 -73.903824 -81.656151 -72.713424 C -80.635808 -71.579709 -80.126012 -69.992127 -80.126012 -67.951441 C -80.126012 -65.910754 -80.635808 -64.323689 -81.656151 -63.189974 C -82.619809 -62.05626 -84.094103 -61.489303 -86.078103 -61.489303 C -88.062104 -61.489303 -89.563945 -62.05626 -90.584288 -63.189974 C -91.547946 -64.380375 -92.029678 -65.96744 -92.029678 -67.951441 C -92.029678 -70.048813 -91.547946 -71.664459 -90.584288 -72.798173 C -89.563945 -73.931888 -88.062104 -74.498845 -86.078103 -74.498845 z " /></g></svg>
