<?xml version="1.0" encoding="UTF-8" standalone="no"?>
<!-- Created with Inkscape (http://www.inkscape.org/) -->

<svg
   width="172.6701mm"
   height="172.6701mm"
   viewBox="0 0 172.6701 172.6701"
   version="1.1"
   id="svg1"
   xml:space="preserve"
   xmlns="http://www.w3.org/2000/svg"
   xmlns:svg="http://www.w3.org/2000/svg"><defs
     id="defs1" /><g
     id="layer1"
     transform="translate(157.25102,198.81012)"><path
       id="path5"
       style="fill:#ffffff;fill-opacity:1;stroke-width:0.805188;stroke-linecap:round;stroke-linejoin:round"
       d="M -2.0863309 -198.17657 L -10.088943 -183.11289 L -10.930235 -165.68398 L -19.198981 -165.68398 L -11.423229 -155.47426 L -12.166336 -140.07934 C -28.353216 -157.12094 -50.823548 -166.77435 -74.327399 -166.78417 C -103.64471 -166.77397 -130.92652 -151.79225 -146.66717 -127.05894 L -157.25102 -127.05894 L -149.61996 -115.86014 L -157.25102 -26.140039 L -8.5138455 -26.140039 L 15.419061 -26.140039 L 8.0799737 -154.80195 L 15.419061 -165.68398 L 7.4593397 -165.68398 L 6.4490654 -183.39297 L -2.0863309 -198.17657 z M -83.43072 -192.21621 C -85.584619 -189.65499 -86.77489 -186.4211 -86.795372 -183.07465 C -86.842092 -175.15518 -80.459903 -168.69733 -72.540428 -168.65072 C -64.621155 -168.60402 -58.163395 -174.98588 -58.116503 -182.90515 C -58.102813 -186.26049 -59.266203 -189.5144 -61.404157 -192.10045 C -60.83125 -190.6836 -60.536835 -189.16959 -60.537027 -187.64129 C -60.575787 -181.07411 -65.930869 -175.78172 -72.498054 -175.82031 C -79.065241 -175.85911 -84.357627 -181.21415 -84.319038 -187.78134 C -84.309338 -189.30285 -84.007827 -190.80837 -83.43072 -192.21621 z M -126.33869 -120.07436 C -121.80384 -119.84761 -118.11939 -118.85557 -115.28511 -117.09831 L -135.52211 -83.767013 L -122.51257 -83.767013 L -121.66249 -97.626632 C -119.84855 -97.626632 -118.54471 -97.995076 -117.75111 -98.731991 C -116.90082 -99.468905 -116.24864 -100.71611 -115.79515 -102.47336 L -110.94842 -102.47336 L -111.03369 -83.341716 C -108.87963 -82.718173 -106.15865 -82.066508 -102.87088 -81.38628 L -103.29617 -77.304875 L -111.45898 -77.304875 L -111.45898 -62.084615 L -122.51257 -62.084615 L -122.51257 -77.304875 L -147.08575 -77.304875 L -147.76581 -80.36567 L -126.33869 -120.07436 z M -56.105256 -119.73381 C -50.266625 -119.73381 -45.6182 -118.28861 -42.160371 -115.39764 C -38.702541 -112.56335 -36.973607 -108.56711 -36.973607 -103.40871 C -36.973607 -98.873849 -38.702541 -94.026912 -42.160371 -88.86851 C -45.6182 -83.766794 -51.315314 -77.616529 -59.251317 -70.41744 L -36.378811 -70.41744 L -36.378811 -62.084615 L -74.896357 -62.084615 L -74.896357 -67.016097 C -68.60424 -73.081471 -63.701176 -78.268272 -60.18666 -82.576388 C -56.672145 -86.884504 -54.149679 -90.852684 -52.619164 -94.480571 C -51.031963 -98.108458 -50.23843 -101.84955 -50.23843 -105.70418 C -50.23843 -111.82623 -52.279164 -114.88759 -56.360537 -114.88759 C -58.174481 -114.88759 -59.648258 -114.0369 -60.781973 -112.33633 C -61.915688 -110.69244 -62.482128 -108.65171 -62.482128 -106.21422 C -62.482128 -104.51365 -61.887107 -102.89852 -60.696707 -101.36801 C -61.660364 -100.46103 -62.765697 -99.752209 -64.012784 -99.242037 C -65.203184 -98.731866 -66.393741 -98.476709 -67.584142 -98.476709 C -69.624828 -98.476709 -71.325181 -99.10031 -72.685639 -100.3474 C -74.046097 -101.65117 -74.726341 -103.52197 -74.726341 -105.95946 C -74.726341 -108.567 -73.961389 -110.91953 -72.430874 -113.01691 C -70.900359 -115.11428 -68.746337 -116.75799 -65.968736 -117.94839 C -63.13445 -119.13879 -59.846514 -119.73381 -56.105256 -119.73381 z M -12.995742 -119.73381 C -7.1571118 -119.73381 -2.5086871 -118.28861 0.94914276 -115.39764 C 4.4069726 -112.56335 6.1359063 -108.56711 6.1359063 -103.40871 C 6.1359063 -98.873849 4.4069726 -94.026912 0.94914276 -88.86851 C -2.5086871 -83.766794 -8.2058008 -77.616529 -16.141804 -70.41744 L 6.730702 -70.41744 L 6.730702 -62.084615 L -31.786844 -62.084615 L -31.786844 -67.016097 C -25.494727 -73.081471 -20.591663 -78.268272 -17.077147 -82.576388 C -13.562632 -86.884504 -11.040165 -90.852684 -9.5096504 -94.480571 C -7.9224498 -98.108458 -7.1289171 -101.84955 -7.1289171 -105.70418 C -7.1289171 -111.82623 -9.1696511 -114.88759 -13.251024 -114.88759 C -15.064968 -114.88759 -16.538745 -114.0369 -17.67246 -112.33633 C -18.806174 -110.69244 -19.372614 -108.65171 -19.372614 -106.21422 C -19.372614 -104.51365 -18.777594 -102.89852 -17.587194 -101.36801 C -18.550851 -100.46103 -19.656184 -99.752209 -20.90327 -99.242037 C -22.093671 -98.731866 -23.284228 -98.476709 -24.474628 -98.476709 C -26.515315 -98.476709 -28.215668 -99.10031 -29.576126 -100.3474 C -30.936583 -101.65117 -31.616828 -103.52197 -31.616828 -105.95946 C -31.616828 -108.567 -30.851876 -110.91953 -29.321361 -113.01691 C -27.790846 -115.11428 -25.636824 -116.75799 -22.859223 -117.94839 C -20.024936 -119.13879 -16.737001 -119.73381 -12.995742 -119.73381 z M -88.16118 -101.28274 C -86.17718 -101.28274 -84.703402 -100.68772 -83.739745 -99.497319 C -82.719402 -98.363604 -82.209089 -96.776539 -82.209089 -94.735852 C -82.209089 -92.695166 -82.719402 -91.107584 -83.739745 -89.973869 C -84.703402 -88.840154 -86.17718 -88.273198 -88.16118 -88.273198 C -90.145181 -88.273198 -91.647022 -88.840154 -92.667365 -89.973869 C -93.631023 -91.16427 -94.113272 -92.751852 -94.113272 -94.735852 C -94.113272 -96.833225 -93.631023 -98.448354 -92.667365 -99.582068 C -91.647022 -100.71578 -90.145181 -101.28274 -88.16118 -101.28274 z M -88.16118 -74.498845 C -86.17718 -74.498845 -84.703402 -73.903824 -83.739745 -72.713424 C -82.719402 -71.579709 -82.209089 -69.992127 -82.209089 -67.951441 C -82.209089 -65.910754 -82.719402 -64.323689 -83.739745 -63.189974 C -84.703402 -62.05626 -86.17718 -61.489303 -88.16118 -61.489303 C -90.145181 -61.489303 -91.647022 -62.05626 -92.667365 -63.189974 C -93.631023 -64.380375 -94.113272 -65.96744 -94.113272 -67.951441 C -94.113272 -70.048813 -93.631023 -71.664459 -92.667365 -72.798173 C -91.647022 -73.931888 -90.145181 -74.498845 -88.16118 -74.498845 z " /></g></svg>
