<?xml version="1.0" encoding="UTF-8" standalone="no"?>
<!-- Created with Inkscape (http://www.inkscape.org/) -->

<svg
   width="172.6701mm"
   height="172.6701mm"
   viewBox="0 0 172.6701 172.6701"
   version="1.1"
   id="svg1"
   xml:space="preserve"
   xmlns="http://www.w3.org/2000/svg"
   xmlns:svg="http://www.w3.org/2000/svg"><defs
     id="defs1" /><g
     id="layer1"
     transform="translate(157.25102,198.81012)"><path
       id="path5"
       style="fill:#ffffff;fill-opacity:1;stroke-width:0.805188;stroke-linecap:round;stroke-linejoin:round"
       d="M -2.0863309 -198.17657 L -10.088943 -183.11289 L -10.930235 -165.68398 L -19.198981 -165.68398 L -11.423229 -155.47426 L -12.166336 -140.07934 C -28.353216 -157.12094 -50.823548 -166.77435 -74.327399 -166.78417 C -103.64471 -166.77397 -130.92652 -151.79225 -146.66717 -127.05894 L -157.25102 -127.05894 L -149.61996 -115.86014 L -157.25102 -26.140039 L -8.5138455 -26.140039 L 15.419061 -26.140039 L 8.0799737 -154.80195 L 15.419061 -165.68398 L 7.4593397 -165.68398 L 6.4490654 -183.39297 L -2.0863309 -198.17657 z M -83.43072 -192.21621 C -85.584619 -189.65499 -86.77489 -186.4211 -86.795372 -183.07465 C -86.842092 -175.15518 -80.459903 -168.69733 -72.540428 -168.65072 C -64.621155 -168.60402 -58.163395 -174.98588 -58.116503 -182.90515 C -58.102813 -186.26049 -59.266203 -189.5144 -61.404157 -192.10045 C -60.83125 -190.6836 -60.536835 -189.16959 -60.537027 -187.64129 C -60.575787 -181.07411 -65.930869 -175.78172 -72.498054 -175.82031 C -79.065241 -175.85911 -84.357627 -181.21415 -84.319038 -187.78134 C -84.309338 -189.30285 -84.007827 -190.80837 -83.43072 -192.21621 z M -126.38159 -120.07436 C -121.84673 -119.84761 -118.16177 -118.85557 -115.32748 -117.09831 L -135.56449 -83.767013 L -122.55495 -83.767013 L -121.70487 -97.626632 C -119.89093 -97.626632 -118.58708 -97.995076 -117.79348 -98.731991 C -116.94319 -99.468905 -116.29153 -100.71611 -115.83804 -102.47336 L -110.99131 -102.47336 L -111.07606 -83.341716 C -108.922 -82.718173 -106.20102 -82.066508 -102.91325 -81.38628 L -103.33855 -77.304875 L -111.50136 -77.304875 L -111.50136 -62.084615 L -122.55495 -62.084615 L -122.55495 -77.304875 L -147.12812 -77.304875 L -147.8087 -80.36567 L -126.38159 -120.07436 z M -56.147631 -119.73381 C -50.309 -119.73381 -45.661092 -118.28861 -42.203262 -115.39764 C -38.745432 -112.56335 -37.016499 -108.56711 -37.016499 -103.40871 C -37.016499 -98.873849 -38.745432 -94.026912 -42.203262 -88.86851 C -45.661092 -83.766794 -51.357689 -77.616529 -59.293692 -70.41744 L -36.421186 -70.41744 L -36.421186 -62.084615 L -74.939248 -62.084615 L -74.939248 -67.016097 C -68.647132 -73.081471 -63.743551 -78.268272 -60.229035 -82.576388 C -56.71452 -86.884504 -54.192053 -90.852684 -52.661538 -94.480571 C -51.074338 -98.108458 -50.280805 -101.84955 -50.280805 -105.70418 C -50.280805 -111.82623 -52.321539 -114.88759 -56.402912 -114.88759 C -58.216856 -114.88759 -59.690633 -114.0369 -60.824348 -112.33633 C -61.958062 -110.69244 -62.525019 -108.65171 -62.525019 -106.21422 C -62.525019 -104.51365 -61.929482 -102.89852 -60.739082 -101.36801 C -61.702739 -100.46103 -62.808072 -99.752209 -64.055158 -99.242037 C -65.245559 -98.731866 -66.436116 -98.476709 -67.626516 -98.476709 C -69.667203 -98.476709 -71.368073 -99.10031 -72.728531 -100.3474 C -74.088988 -101.65117 -74.768716 -103.52197 -74.768716 -105.95946 C -74.768716 -108.567 -74.003764 -110.91953 -72.473249 -113.01691 C -70.942734 -115.11428 -68.788712 -116.75799 -66.011111 -117.94839 C -63.176824 -119.13879 -59.888889 -119.73381 -56.147631 -119.73381 z M -13.378148 -119.73381 C -9.6935753 -119.73381 -6.4342203 -119.11073 -3.5999336 -117.86364 C -0.76564682 -116.67324 1.4450192 -114.97237 3.0322197 -112.76163 C 4.6194203 -110.60757 5.412953 -108.11368 5.412953 -105.27939 C 5.412953 -102.10499 4.477552 -99.384015 2.6069227 -97.116586 C 0.73629345 -94.849156 -2.0413292 -93.120223 -5.725902 -91.929822 C -1.0776717 -90.909479 2.1816833 -89.237189 4.0523125 -86.913074 C 5.9229418 -84.588959 6.8583428 -81.442892 6.8583428 -77.474891 C 6.8583428 -74.017061 5.8096538 -71.069506 3.7122816 -68.632019 C 1.6715951 -66.194533 -0.99273955 -64.380375 -4.2805122 -63.189974 C -7.5682848 -61.999574 -10.968991 -61.404554 -14.483507 -61.404554 C -19.585223 -61.404554 -23.921847 -62.453243 -27.493049 -64.550615 C -31.007564 -66.647987 -32.765078 -69.510317 -32.765078 -73.138204 C -32.765078 -75.235577 -32.141478 -76.851222 -30.894392 -77.984937 C -29.647305 -79.175337 -28.088304 -79.770358 -26.217674 -79.770358 C -24.290359 -79.770358 -22.33485 -79.005405 -20.350849 -77.474891 C -20.861021 -76.397862 -21.116177 -75.094016 -21.116177 -73.563501 C -21.116177 -71.749558 -20.577284 -70.275781 -19.500255 -69.142066 C -18.36654 -68.008351 -16.694251 -67.441394 -14.483507 -67.441394 C -9.6085338 -67.441394 -7.1712918 -70.814037 -7.1712918 -77.55964 C -7.1712918 -81.244213 -8.3618492 -84.10706 -10.74265 -86.147746 C -13.066765 -88.188433 -16.382764 -89.208541 -20.69088 -89.208541 L -20.69088 -94.480571 C -12.358077 -95.1608 -8.1913846 -98.760535 -8.1913846 -105.27939 C -8.1913846 -108.56717 -8.7016973 -110.97583 -9.7220405 -112.50634 C -10.742384 -114.09354 -12.131453 -114.88759 -13.888711 -114.88759 C -15.986083 -114.88759 -17.573149 -114.15071 -18.650178 -112.67688 C -19.670521 -111.20305 -20.180834 -109.41747 -20.180834 -107.3201 C -20.180834 -105.44947 -19.783809 -103.77718 -18.990209 -102.30335 C -20.577409 -100.60278 -22.618143 -99.752084 -25.112316 -99.752084 C -27.379745 -99.752084 -29.136742 -100.43233 -30.383828 -101.79279 C -31.630915 -103.15324 -32.254515 -104.91076 -32.254515 -107.06482 C -32.254515 -109.8991 -31.291051 -112.25164 -29.363736 -114.12227 C -27.379735 -116.04958 -24.941976 -117.46671 -22.051004 -118.37369 C -19.103346 -119.28066 -16.212435 -119.73381 -13.378148 -119.73381 z M -88.203555 -101.28274 C -86.219554 -101.28274 -84.745777 -100.68772 -83.782119 -99.497319 C -82.761776 -98.363604 -82.251464 -96.776539 -82.251464 -94.735852 C -82.251464 -92.695166 -82.761776 -91.107584 -83.782119 -89.973869 C -84.745777 -88.840154 -86.219554 -88.273198 -88.203555 -88.273198 C -90.187556 -88.273198 -91.689913 -88.840154 -92.710257 -89.973869 C -93.673914 -91.16427 -94.155646 -92.751852 -94.155646 -94.735852 C -94.155646 -96.833225 -93.673914 -98.448354 -92.710257 -99.582068 C -91.689913 -100.71578 -90.187556 -101.28274 -88.203555 -101.28274 z M -88.203555 -74.498845 C -86.219554 -74.498845 -84.745777 -73.903824 -83.782119 -72.713424 C -82.761776 -71.579709 -82.251464 -69.992127 -82.251464 -67.951441 C -82.251464 -65.910754 -82.761776 -64.323689 -83.782119 -63.189974 C -84.745777 -62.05626 -86.219554 -61.489303 -88.203555 -61.489303 C -90.187556 -61.489303 -91.689913 -62.05626 -92.710257 -63.189974 C -93.673914 -64.380375 -94.155646 -65.96744 -94.155646 -67.951441 C -94.155646 -70.048813 -93.673914 -71.664459 -92.710257 -72.798173 C -91.689913 -73.931888 -90.187556 -74.498845 -88.203555 -74.498845 z " /></g></svg>
