<?xml version="1.0" encoding="UTF-8" standalone="no"?>
<!-- Created with Inkscape (http://www.inkscape.org/) -->

<svg
   width="172.6701mm"
   height="172.6701mm"
   viewBox="0 0 172.6701 172.6701"
   version="1.1"
   id="svg1"
   xml:space="preserve"
   xmlns="http://www.w3.org/2000/svg"
   xmlns:svg="http://www.w3.org/2000/svg"><defs
     id="defs1" /><g
     id="layer1"
     transform="translate(157.25102,198.81012)"><path
       id="path5"
       style="fill:#ffffff;fill-opacity:1;stroke-width:0.805188;stroke-linecap:round;stroke-linejoin:round"
       d="M -2.0863309 -198.17657 L -10.088943 -183.11289 L -10.930235 -165.68398 L -19.198981 -165.68398 L -11.423229 -155.47426 L -12.166336 -140.07934 C -28.353216 -157.12094 -50.823548 -166.77435 -74.327399 -166.78417 C -103.64471 -166.77397 -130.92652 -151.79225 -146.66717 -127.05894 L -157.25102 -127.05894 L -149.61996 -115.86014 L -157.25102 -26.140039 L -8.5138455 -26.140039 L 15.419061 -26.140039 L 8.0799737 -154.80195 L 15.419061 -165.68398 L 7.4593397 -165.68398 L 6.4490654 -183.39297 L -2.0863309 -198.17657 z M -83.43072 -192.21621 C -85.584619 -189.65499 -86.77489 -186.4211 -86.795372 -183.07465 C -86.842092 -175.15518 -80.459903 -168.69733 -72.540428 -168.65072 C -64.621155 -168.60402 -58.163395 -174.98588 -58.116503 -182.90515 C -58.102813 -186.26049 -59.266203 -189.5144 -61.404157 -192.10045 C -60.83125 -190.6836 -60.536835 -189.16959 -60.537027 -187.64129 C -60.575787 -181.07411 -65.930869 -175.78172 -72.498054 -175.82031 C -79.065241 -175.85911 -84.357627 -181.21415 -84.319038 -187.78134 C -84.309338 -189.30285 -84.007827 -190.80837 -83.43072 -192.21621 z M -125.78627 -120.07436 C -121.25142 -119.84761 -117.56697 -118.85557 -114.73269 -117.09831 L -134.96918 -83.767013 L -121.95963 -83.767013 L -121.10956 -97.626632 C -119.29561 -97.626632 -117.99177 -97.995076 -117.19817 -98.731991 C -116.34788 -99.468905 -115.69622 -100.71611 -115.24273 -102.47336 L -110.396 -102.47336 L -110.48075 -83.341716 C -108.32669 -82.718173 -105.60623 -82.066508 -102.31846 -81.38628 L -102.74324 -77.304875 L -110.90605 -77.304875 L -110.90605 -62.084615 L -121.95963 -62.084615 L -121.95963 -77.304875 L -146.53333 -77.304875 L -147.21339 -80.36567 L -125.78627 -120.07436 z M -55.552318 -119.73381 C -49.713687 -119.73381 -45.065779 -118.28861 -41.60795 -115.39764 C -38.15012 -112.56335 -36.421186 -108.56711 -36.421186 -103.40871 C -36.421186 -98.873849 -38.15012 -94.026912 -41.60795 -88.86851 C -45.065779 -83.766794 -50.762376 -77.616529 -58.698379 -70.41744 L -35.825874 -70.41744 L -35.825874 -62.084615 L -74.343936 -62.084615 L -74.343936 -67.016097 C -68.051819 -73.081471 -63.148238 -78.268272 -59.633723 -82.576388 C -56.119207 -86.884504 -53.596741 -90.852684 -52.066226 -94.480571 C -50.479025 -98.108458 -49.685493 -101.84955 -49.685493 -105.70418 C -49.685493 -111.82623 -51.726227 -114.88759 -55.8076 -114.88759 C -57.621543 -114.88759 -59.09532 -114.0369 -60.229035 -112.33633 C -61.36275 -110.69244 -61.929707 -108.65171 -61.929707 -106.21422 C -61.929707 -104.51365 -61.334686 -102.89852 -60.144286 -101.36801 C -61.107943 -100.46103 -62.213276 -99.752209 -63.460362 -99.242037 C -64.650763 -98.731866 -65.840803 -98.476709 -67.031204 -98.476709 C -69.07189 -98.476709 -70.77276 -99.10031 -72.133218 -100.3474 C -73.493676 -101.65117 -74.17392 -103.52197 -74.17392 -105.95946 C -74.17392 -108.567 -73.408451 -110.91953 -71.877937 -113.01691 C -70.347422 -115.11428 -68.1934 -116.75799 -65.415799 -117.94839 C -62.581512 -119.13879 -59.293577 -119.73381 -55.552318 -119.73381 z M -30.979141 -118.88373 L -26.812987 -118.88373 C -24.658929 -118.82705 -19.95386 -118.79847 -12.698086 -118.79847 C -5.1588835 -118.79847 -0.25581919 -118.82705 2.0116102 -118.88373 L 6.0930148 -118.88373 L 7.7936862 -115.22762 C 6.7166573 -113.52705 4.6759232 -109.84261 1.6715793 -104.17404 C -1.3327647 -98.505463 -4.1670313 -92.496548 -6.8312609 -86.147746 C -9.4954904 -79.798944 -10.827399 -74.838719 -10.827399 -71.267517 C -10.827399 -68.433231 -9.8353544 -66.307789 -7.8513537 -64.890646 C -9.7786687 -62.566531 -12.244491 -61.404554 -15.248835 -61.404554 C -18.026436 -61.404554 -20.180458 -62.169506 -21.710973 -63.700021 C -23.241488 -65.230536 -24.006957 -67.356494 -24.006957 -70.077409 C -24.006957 -73.478553 -23.184844 -77.077772 -21.540957 -80.875717 C -19.897071 -84.730347 -16.949516 -89.945728 -12.698086 -96.521273 L -2.6645901 -111.9963 L -22.051004 -111.9963 C -22.844604 -109.44544 -23.326853 -106.44124 -23.49691 -102.98341 C -24.517254 -102.81335 -25.565943 -102.72813 -26.642971 -102.72813 C -27.776686 -102.72813 -28.882019 -102.81335 -29.959048 -102.98341 L -32.339781 -117.60836 L -30.979141 -118.88373 z M -87.608242 -101.28274 C -85.624242 -101.28274 -84.150464 -100.68772 -83.186807 -99.497319 C -82.166464 -98.363604 -81.656151 -96.776539 -81.656151 -94.735852 C -81.656151 -92.695166 -82.166464 -91.107584 -83.186807 -89.973869 C -84.150464 -88.840154 -85.624242 -88.273198 -87.608242 -88.273198 C -89.592243 -88.273198 -91.094601 -88.840154 -92.114944 -89.973869 C -93.078602 -91.16427 -93.560334 -92.751852 -93.560334 -94.735852 C -93.560334 -96.833225 -93.078602 -98.448354 -92.114944 -99.582068 C -91.094601 -100.71578 -89.592243 -101.28274 -87.608242 -101.28274 z M -87.608242 -74.498845 C -85.624242 -74.498845 -84.150464 -73.903824 -83.186807 -72.713424 C -82.166464 -71.579709 -81.656151 -69.992127 -81.656151 -67.951441 C -81.656151 -65.910754 -82.166464 -64.323689 -83.186807 -63.189974 C -84.150464 -62.05626 -85.624242 -61.489303 -87.608242 -61.489303 C -89.592243 -61.489303 -91.094601 -62.05626 -92.114944 -63.189974 C -93.078602 -64.380375 -93.560334 -65.96744 -93.560334 -67.951441 C -93.560334 -70.048813 -93.078602 -71.664459 -92.114944 -72.798173 C -91.094601 -73.931888 -89.592243 -74.498845 -87.608242 -74.498845 z " /></g></svg>
