<?xml version="1.0" encoding="UTF-8" standalone="no"?>
<!-- Created with Inkscape (http://www.inkscape.org/) -->

<svg
   width="172.6701mm"
   height="172.6701mm"
   viewBox="0 0 172.6701 172.6701"
   version="1.1"
   id="svg1"
   xml:space="preserve"
   xmlns="http://www.w3.org/2000/svg"
   xmlns:svg="http://www.w3.org/2000/svg"><defs
     id="defs1" /><g
     id="layer1"
     transform="translate(157.25102,198.81012)"><path
       id="path5"
       style="fill:#ffffff;fill-opacity:1;stroke-width:0.805188;stroke-linecap:round;stroke-linejoin:round"
       d="M -2.0863309 -198.17657 L -10.088943 -183.11289 L -10.930235 -165.68398 L -19.198981 -165.68398 L -11.423229 -155.47426 L -12.166336 -140.07934 C -28.353216 -157.12094 -50.823548 -166.77435 -74.327399 -166.78417 C -103.64471 -166.77397 -130.92652 -151.79225 -146.66717 -127.05894 L -157.25102 -127.05894 L -149.61996 -115.86014 L -157.25102 -26.140039 L -8.5138455 -26.140039 L 15.419061 -26.140039 L 8.0799737 -154.80195 L 15.419061 -165.68398 L 7.4593397 -165.68398 L 6.4490654 -183.39297 L -2.0863309 -198.17657 z M -83.43072 -192.21621 C -85.584619 -189.65499 -86.77489 -186.4211 -86.795372 -183.07465 C -86.842092 -175.15518 -80.459903 -168.69733 -72.540428 -168.65072 C -64.621155 -168.60402 -58.163395 -174.98588 -58.116503 -182.90515 C -58.102813 -186.26049 -59.266203 -189.5144 -61.404157 -192.10045 C -60.83125 -190.6836 -60.536835 -189.16959 -60.537027 -187.64129 C -60.575787 -181.07411 -65.930869 -175.78172 -72.498054 -175.82031 C -79.065241 -175.85911 -84.357627 -181.21415 -84.319038 -187.78134 C -84.309338 -189.30285 -84.007827 -190.80837 -83.43072 -192.21621 z M -127.48695 -120.07436 C -122.95209 -119.84761 -119.26713 -118.85557 -116.43284 -117.09831 L -136.66985 -83.767013 L -123.66031 -83.767013 L -122.81023 -97.626632 C -120.99628 -97.626632 -119.69244 -97.995076 -118.89884 -98.731991 C -118.04855 -99.468905 -117.39689 -100.71611 -116.9434 -102.47336 L -112.09667 -102.47336 L -112.18142 -83.341716 C -110.02736 -82.718173 -107.30638 -82.066508 -104.01861 -81.38628 L -104.44391 -77.304875 L -112.60672 -77.304875 L -112.60672 -62.084615 L -123.66031 -62.084615 L -123.66031 -77.304875 L -148.23348 -77.304875 L -148.91406 -80.36567 L -127.48695 -120.07436 z M -57.252989 -119.73381 C -51.414359 -119.73381 -46.766451 -118.28861 -43.308621 -115.39764 C -39.850791 -112.56335 -38.121857 -108.56711 -38.121857 -103.40871 C -38.121857 -98.873849 -39.850791 -94.026912 -43.308621 -88.86851 C -46.766451 -83.766794 -52.463048 -77.616529 -60.399051 -70.41744 L -37.526545 -70.41744 L -37.526545 -62.084615 L -76.044607 -62.084615 L -76.044607 -67.016097 C -69.752491 -73.081471 -64.84891 -78.268272 -61.334394 -82.576388 C -57.819878 -86.884504 -55.297412 -90.852684 -53.766897 -94.480571 C -52.179697 -98.108458 -51.386164 -101.84955 -51.386164 -105.70418 C -51.386164 -111.82623 -53.426898 -114.88759 -57.508271 -114.88759 C -59.322214 -114.88759 -60.795992 -114.0369 -61.929707 -112.33633 C -63.063421 -110.69244 -63.630378 -108.65171 -63.630378 -106.21422 C -63.630378 -104.51365 -63.034841 -102.89852 -61.84444 -101.36801 C -62.808098 -100.46103 -63.913948 -99.752209 -65.161034 -99.242037 C -66.351434 -98.731866 -67.541475 -98.476709 -68.731875 -98.476709 C -70.772562 -98.476709 -72.473432 -99.10031 -73.833889 -100.3474 C -75.194347 -101.65117 -75.874592 -103.52197 -75.874592 -105.95946 C -75.874592 -108.567 -75.109123 -110.91953 -73.578608 -113.01691 C -72.048093 -115.11428 -69.894071 -116.75799 -67.11647 -117.94839 C -64.282183 -119.13879 -60.994248 -119.73381 -57.252989 -119.73381 z M -12.783352 -119.56379 C -6.0377499 -119.56379 -0.87901249 -117.69351 2.6921888 -113.95225 C 6.3200759 -110.21099 8.1337171 -104.7971 8.1337171 -97.711381 C 8.1337171 -88.811721 5.3560945 -81.216258 -0.19910757 -74.924142 C -5.6976239 -68.688711 -13.690111 -64.09693 -24.176972 -61.149272 L -26.217674 -65.400692 C -20.549101 -67.838179 -15.985901 -70.956182 -12.528071 -74.754126 C -9.0702409 -78.608756 -6.7743506 -83.086732 -5.6406359 -88.188448 C -8.815037 -86.601248 -11.90446 -85.807715 -14.908804 -85.807715 C -20.577378 -85.807715 -25.05587 -87.338137 -28.343643 -90.399166 C -31.57473 -93.460196 -33.189859 -97.598308 -33.189859 -102.8134 C -33.189859 -106.04448 -32.339682 -108.93539 -30.63911 -111.48625 C -28.881852 -114.03711 -26.472674 -116.0212 -23.411644 -117.43834 C -20.293929 -118.85549 -16.751354 -119.56379 -12.783352 -119.56379 z M -13.293399 -113.69697 C -15.730885 -113.69697 -17.601687 -112.76157 -18.905459 -110.89094 C -20.209231 -109.02031 -20.860895 -106.35597 -20.860895 -102.89814 C -20.860895 -99.383629 -20.15207 -96.634587 -18.734927 -94.650586 C -17.261098 -92.723271 -15.1923 -91.759807 -12.528071 -91.759807 C -10.203956 -91.759807 -7.6248453 -92.723271 -4.7905586 -94.650586 L -4.7905586 -95.755945 C -4.7905586 -101.93469 -5.4708032 -106.46931 -6.8312609 -109.36028 C -8.1917185 -112.25126 -10.345741 -113.69697 -13.293399 -113.69697 z M -89.308914 -101.28274 C -87.324913 -101.28274 -85.851136 -100.68772 -84.887478 -99.497319 C -83.867135 -98.363604 -83.356822 -96.776539 -83.356822 -94.735852 C -83.356822 -92.695166 -83.867135 -91.107584 -84.887478 -89.973869 C -85.851136 -88.840154 -87.324913 -88.273198 -89.308914 -88.273198 C -91.292915 -88.273198 -92.795272 -88.840154 -93.815616 -89.973869 C -94.779273 -91.16427 -95.261005 -92.751852 -95.261005 -94.735852 C -95.261005 -96.833225 -94.779273 -98.448354 -93.815616 -99.582068 C -92.795272 -100.71578 -91.292915 -101.28274 -89.308914 -101.28274 z M -89.308914 -74.498845 C -87.324913 -74.498845 -85.851136 -73.903824 -84.887478 -72.713424 C -83.867135 -71.579709 -83.356822 -69.992127 -83.356822 -67.951441 C -83.356822 -65.910754 -83.867135 -64.323689 -84.887478 -63.189974 C -85.851136 -62.05626 -87.324913 -61.489303 -89.308914 -61.489303 C -91.292915 -61.489303 -92.795272 -62.05626 -93.815616 -63.189974 C -94.779273 -64.380375 -95.261005 -65.96744 -95.261005 -67.951441 C -95.261005 -70.048813 -94.779273 -71.664459 -93.815616 -72.798173 C -92.795272 -73.931888 -91.292915 -74.498845 -89.308914 -74.498845 z " /></g></svg>
