<?xml version="1.0" encoding="UTF-8" standalone="no"?>
<!-- Created with Inkscape (http://www.inkscape.org/) -->

<svg
   width="172.6701mm"
   height="172.6701mm"
   viewBox="0 0 172.6701 172.6701"
   version="1.1"
   id="svg1"
   xml:space="preserve"
   xmlns="http://www.w3.org/2000/svg"
   xmlns:svg="http://www.w3.org/2000/svg"><defs
     id="defs1" /><g
     id="layer1"
     transform="translate(157.25102,198.81012)"><path
       id="path5"
       style="fill:#ffffff;fill-opacity:1;stroke-width:0.805188;stroke-linecap:round;stroke-linejoin:round"
       d="M -2.0863309 -198.17657 L -10.088943 -183.11289 L -10.930235 -165.68398 L -19.198981 -165.68398 L -11.423229 -155.47426 L -12.166336 -140.07934 C -28.353216 -157.12094 -50.823548 -166.77435 -74.327399 -166.78417 C -103.64471 -166.77397 -130.92652 -151.79225 -146.66717 -127.05894 L -157.25102 -127.05894 L -149.61996 -115.86014 L -157.25102 -26.140039 L -8.5138455 -26.140039 L 15.419061 -26.140039 L 8.0799737 -154.80195 L 15.419061 -165.68398 L 7.4593397 -165.68398 L 6.4490654 -183.39297 L -2.0863309 -198.17657 z M -83.43072 -192.21621 C -85.584619 -189.65499 -86.77489 -186.4211 -86.795372 -183.07465 C -86.842092 -175.15518 -80.459903 -168.69733 -72.540428 -168.65072 C -64.621155 -168.60402 -58.163395 -174.98588 -58.116503 -182.90515 C -58.102813 -186.26049 -59.266203 -189.5144 -61.404157 -192.10045 C -60.83125 -190.6836 -60.536835 -189.16959 -60.537027 -187.64129 C -60.575787 -181.07411 -65.930869 -175.78172 -72.498054 -175.82031 C -79.065241 -175.85911 -84.357627 -181.21415 -84.319038 -187.78134 C -84.309338 -189.30285 -84.007827 -190.80837 -83.43072 -192.21621 z M -127.48695 -120.07436 C -122.95209 -119.84761 -119.26713 -118.85557 -116.43284 -117.09831 L -136.66985 -83.767013 L -123.66031 -83.767013 L -122.81023 -97.626632 C -120.99628 -97.626632 -119.69244 -97.995076 -118.89884 -98.731991 C -118.04855 -99.468905 -117.39689 -100.71611 -116.9434 -102.47336 L -112.09667 -102.47336 L -112.18142 -83.341716 C -110.02736 -82.718173 -107.30638 -82.066508 -104.01861 -81.38628 L -104.44391 -77.304875 L -112.60672 -77.304875 L -112.60672 -62.084615 L -123.66031 -62.084615 L -123.66031 -77.304875 L -148.23348 -77.304875 L -148.91406 -80.36567 L -127.48695 -120.07436 z M -57.59302 -119.73381 C -53.908448 -119.73381 -50.649093 -119.11073 -47.814806 -117.86364 C -44.980519 -116.67324 -42.769853 -114.97237 -41.182652 -112.76163 C -39.595452 -110.60757 -38.801919 -108.11368 -38.801919 -105.27939 C -38.801919 -102.10499 -39.73732 -99.384015 -41.60795 -97.116586 C -43.478579 -94.849156 -46.256201 -93.120223 -49.940774 -91.929822 C -45.292544 -90.909479 -42.033189 -89.237189 -40.16256 -86.913074 C -38.29193 -84.588959 -37.356529 -81.442892 -37.356529 -77.474891 C -37.356529 -74.017061 -38.405218 -71.069506 -40.502591 -68.632019 C -42.543277 -66.194533 -45.207612 -64.380375 -48.495384 -63.189974 C -51.783157 -61.999574 -55.183864 -61.404554 -58.698379 -61.404554 C -63.800095 -61.404554 -68.13672 -62.453243 -71.707921 -64.550615 C -75.222437 -66.647987 -76.979951 -69.510317 -76.979951 -73.138204 C -76.979951 -75.235577 -76.35635 -76.851222 -75.109264 -77.984937 C -73.862178 -79.175337 -72.303176 -79.770358 -70.432547 -79.770358 C -68.505232 -79.770358 -66.549722 -79.005405 -64.565721 -77.474891 C -65.075893 -76.397862 -65.331049 -75.094016 -65.331049 -73.563501 C -65.331049 -71.749558 -64.792156 -70.275781 -63.715127 -69.142066 C -62.581413 -68.008351 -60.909123 -67.441394 -58.698379 -67.441394 C -53.823406 -67.441394 -51.386164 -70.814037 -51.386164 -77.55964 C -51.386164 -81.244213 -52.576721 -84.10706 -54.957522 -86.147746 C -57.281637 -88.188433 -60.597636 -89.208541 -64.905752 -89.208541 L -64.905752 -94.480571 C -56.572949 -95.1608 -52.406257 -98.760535 -52.406257 -105.27939 C -52.406257 -108.56717 -52.91657 -110.97583 -53.936913 -112.50634 C -54.957256 -114.09354 -56.346326 -114.88759 -58.103583 -114.88759 C -60.200956 -114.88759 -61.788021 -114.15071 -62.86505 -112.67688 C -63.885393 -111.20305 -64.395706 -109.41747 -64.395706 -107.3201 C -64.395706 -105.44947 -63.998681 -103.77718 -63.205081 -102.30335 C -64.792281 -100.60278 -66.833015 -99.752084 -69.327188 -99.752084 C -71.594617 -99.752084 -73.351614 -100.43233 -74.598701 -101.79279 C -75.845787 -103.15324 -76.469388 -104.91076 -76.469388 -107.06482 C -76.469388 -109.8991 -75.505923 -112.25164 -73.578608 -114.12227 C -71.594607 -116.04958 -69.157365 -117.46671 -66.266393 -118.37369 C -63.318734 -119.28066 -60.427307 -119.73381 -57.59302 -119.73381 z M -12.272789 -119.64906 C -5.6405582 -119.64906 -0.56756194 -117.15466 2.9469536 -112.16631 C 6.5181549 -107.23465 8.3037326 -100.06428 8.3037326 -90.654448 C 8.3037326 -81.244616 6.5181549 -74.017081 2.9469536 -68.97205 C -0.56756194 -63.983706 -5.6405582 -61.489303 -12.272789 -61.489303 C -18.90502 -61.489303 -24.007114 -63.983706 -27.578315 -68.97205 C -31.149516 -74.017081 -32.935094 -81.244616 -32.935094 -90.654448 C -32.935094 -100.00759 -31.149516 -107.17797 -27.578315 -112.16631 C -24.007114 -117.15466 -18.90502 -119.64906 -12.272789 -119.64906 z M -12.272789 -115.31237 C -15.163762 -115.31237 -17.26114 -113.41351 -18.564912 -109.61556 C -19.811998 -105.81762 -20.435598 -99.497422 -20.435598 -90.654448 C -20.435598 -81.868159 -19.811998 -75.576025 -18.564912 -71.778081 C -17.26114 -68.036822 -15.163762 -66.16602 -12.272789 -66.16602 C -9.3818167 -66.16602 -7.3130191 -68.036822 -6.0659329 -71.778081 C -4.762161 -75.576025 -4.1104967 -81.868159 -4.1104967 -90.654448 C -4.1104967 -99.440737 -4.762161 -105.73287 -6.0659329 -109.53081 C -7.3130191 -113.38544 -9.3818167 -115.31237 -12.272789 -115.31237 z M -89.308914 -101.28274 C -87.324913 -101.28274 -85.851136 -100.68772 -84.887478 -99.497319 C -83.867135 -98.363604 -83.356822 -96.776539 -83.356822 -94.735852 C -83.356822 -92.695166 -83.867135 -91.107584 -84.887478 -89.973869 C -85.851136 -88.840154 -87.324913 -88.273198 -89.308914 -88.273198 C -91.292915 -88.273198 -92.795272 -88.840154 -93.815616 -89.973869 C -94.779273 -91.16427 -95.261005 -92.751852 -95.261005 -94.735852 C -95.261005 -96.833225 -94.779273 -98.448354 -93.815616 -99.582068 C -92.795272 -100.71578 -91.292915 -101.28274 -89.308914 -101.28274 z M -89.308914 -74.498845 C -87.324913 -74.498845 -85.851136 -73.903824 -84.887478 -72.713424 C -83.867135 -71.579709 -83.356822 -69.992127 -83.356822 -67.951441 C -83.356822 -65.910754 -83.867135 -64.323689 -84.887478 -63.189974 C -85.851136 -62.05626 -87.324913 -61.489303 -89.308914 -61.489303 C -91.292915 -61.489303 -92.795272 -62.05626 -93.815616 -63.189974 C -94.779273 -64.380375 -95.261005 -65.96744 -95.261005 -67.951441 C -95.261005 -70.048813 -94.779273 -71.664459 -93.815616 -72.798173 C -92.795272 -73.931888 -91.292915 -74.498845 -89.308914 -74.498845 z " /></g></svg>
