<?xml version="1.0" encoding="UTF-8" standalone="no"?>
<!-- Created with Inkscape (http://www.inkscape.org/) -->

<svg
   width="172.6701mm"
   height="172.6701mm"
   viewBox="0 0 172.6701 172.6701"
   version="1.1"
   id="svg1"
   xml:space="preserve"
   xmlns="http://www.w3.org/2000/svg"
   xmlns:svg="http://www.w3.org/2000/svg"><defs
     id="defs1" /><g
     id="layer1"
     transform="translate(157.25102,198.81012)"><path
       id="path5"
       style="fill:#ffffff;fill-opacity:1;stroke-width:0.805188;stroke-linecap:round;stroke-linejoin:round"
       d="M -2.0863309 -198.17657 L -10.088943 -183.11289 L -10.930235 -165.68398 L -19.198981 -165.68398 L -11.423229 -155.47426 L -12.166336 -140.07934 C -28.353216 -157.12094 -50.823548 -166.77435 -74.327399 -166.78417 C -103.64471 -166.77397 -130.92652 -151.79225 -146.66717 -127.05894 L -157.25102 -127.05894 L -149.61996 -115.86014 L -157.25102 -26.140039 L -8.5138455 -26.140039 L 15.419061 -26.140039 L 8.0799737 -154.80195 L 15.419061 -165.68398 L 7.4593397 -165.68398 L 6.4490654 -183.39297 L -2.0863309 -198.17657 z M -83.43072 -192.21621 C -85.584619 -189.65499 -86.77489 -186.4211 -86.795372 -183.07465 C -86.842092 -175.15518 -80.459903 -168.69733 -72.540428 -168.65072 C -64.621155 -168.60402 -58.163395 -174.98588 -58.116503 -182.90515 C -58.102813 -186.26049 -59.266203 -189.5144 -61.404157 -192.10045 C -60.83125 -190.6836 -60.536835 -189.16959 -60.537027 -187.64129 C -60.575787 -181.07411 -65.930869 -175.78172 -72.498054 -175.82031 C -79.065241 -175.85911 -84.357627 -181.21415 -84.319038 -187.78134 C -84.309338 -189.30285 -84.007827 -190.80837 -83.43072 -192.21621 z M -124.29799 -120.07436 C -119.76313 -119.84761 -116.07869 -118.85557 -113.2444 -117.09831 L -133.48141 -83.767013 L -120.47187 -83.767013 L -119.62179 -97.626632 C -117.80785 -97.626632 -116.504 -97.995076 -115.7104 -98.731991 C -114.86012 -99.468905 -114.20794 -100.71611 -113.75445 -102.47336 L -108.90823 -102.47336 L -108.99298 -83.341716 C -106.83893 -82.718173 -104.11795 -82.066508 -100.83017 -81.38628 L -101.25547 -77.304875 L -109.41828 -77.304875 L -109.41828 -62.084615 L -120.47187 -62.084615 L -120.47187 -77.304875 L -145.04505 -77.304875 L -145.72511 -80.36567 L -124.29799 -120.07436 z M -54.404584 -119.73381 C -50.720012 -119.73381 -47.460657 -119.11073 -44.62637 -117.86364 C -41.792083 -116.67324 -39.581417 -114.97237 -37.994217 -112.76163 C -36.407016 -110.60757 -35.613483 -108.11368 -35.613483 -105.27939 C -35.613483 -102.10499 -36.548368 -99.384015 -38.418997 -97.116586 C -40.289626 -94.849156 -43.067249 -93.120223 -46.751822 -91.929822 C -42.103591 -90.909479 -38.844236 -89.237189 -36.973607 -86.913074 C -35.102978 -84.588959 -34.167577 -81.442892 -34.167577 -77.474891 C -34.167577 -74.017061 -35.216266 -71.069506 -37.313638 -68.632019 C -39.354324 -66.194533 -42.018659 -64.380375 -45.306432 -63.189974 C -48.594204 -61.999574 -51.995428 -61.404554 -55.509943 -61.404554 C -60.611659 -61.404554 -64.948284 -62.453243 -68.519485 -64.550615 C -72.034001 -66.647987 -73.790998 -69.510317 -73.790998 -73.138204 C -73.790998 -75.235577 -73.167397 -76.851222 -71.920311 -77.984937 C -70.673225 -79.175337 -69.11474 -79.770358 -67.244111 -79.770358 C -65.316796 -79.770358 -63.360769 -79.005405 -61.376769 -77.474891 C -61.88694 -76.397862 -62.142097 -75.094016 -62.142097 -73.563501 C -62.142097 -71.749558 -61.60372 -70.275781 -60.526691 -69.142066 C -59.392977 -68.008351 -57.720687 -67.441394 -55.509943 -67.441394 C -50.63497 -67.441394 -48.197728 -70.814037 -48.197728 -77.55964 C -48.197728 -81.244213 -49.387769 -84.10706 -51.76857 -86.147746 C -54.092685 -88.188433 -57.409201 -89.208541 -61.717316 -89.208541 L -61.717316 -94.480571 C -53.384513 -95.1608 -49.217821 -98.760535 -49.217821 -105.27939 C -49.217821 -108.56717 -49.728134 -110.97583 -50.748477 -112.50634 C -51.76882 -114.09354 -53.157373 -114.88759 -54.914631 -114.88759 C -57.012003 -114.88759 -58.599585 -114.15071 -59.676614 -112.67688 C -60.696957 -111.20305 -61.206753 -109.41747 -61.206753 -107.3201 C -61.206753 -105.44947 -60.810245 -103.77718 -60.016645 -102.30335 C -61.603846 -100.60278 -63.64458 -99.752084 -66.138752 -99.752084 C -68.406181 -99.752084 -70.163179 -100.43233 -71.410265 -101.79279 C -72.657351 -103.15324 -73.280952 -104.91076 -73.280952 -107.06482 C -73.280952 -109.8991 -72.317487 -112.25164 -70.390172 -114.12227 C -68.406171 -116.04958 -65.968413 -117.46671 -63.07744 -118.37369 C -60.129782 -119.28066 -57.238871 -119.73381 -54.404584 -119.73381 z M -8.3190254 -119.13901 L -5.5129951 -117.86364 L -5.5129951 -68.716769 C -4.4359661 -68.093226 -2.7356128 -67.526269 -0.4114977 -67.016097 C 1.9126174 -66.562611 3.7548391 -66.279392 5.1152967 -66.16602 L 4.8600152 -62.084615 L -29.831407 -62.084615 L -29.661392 -66.16602 C -24.616361 -66.732877 -20.761469 -67.583054 -18.09724 -68.716769 L -18.09724 -109.44555 L -29.491376 -109.44555 L -29.491376 -114.37703 C -25.863489 -114.66046 -22.122402 -115.19935 -18.267772 -115.99295 C -14.413142 -116.84324 -11.096626 -117.89193 -8.3190254 -119.13901 z M -86.120478 -101.28274 C -84.136477 -101.28274 -82.6627 -100.68772 -81.699042 -99.497319 C -80.678699 -98.363604 -80.168387 -96.776539 -80.168387 -94.735852 C -80.168387 -92.695166 -80.678699 -91.107584 -81.699042 -89.973869 C -82.6627 -88.840154 -84.136477 -88.273198 -86.120478 -88.273198 C -88.104479 -88.273198 -89.60632 -88.840154 -90.626663 -89.973869 C -91.59032 -91.16427 -92.072569 -92.751852 -92.072569 -94.735852 C -92.072569 -96.833225 -91.59032 -98.448354 -90.626663 -99.582068 C -89.60632 -100.71578 -88.104479 -101.28274 -86.120478 -101.28274 z M -86.120478 -74.498845 C -84.136477 -74.498845 -82.6627 -73.903824 -81.699042 -72.713424 C -80.678699 -71.579709 -80.168387 -69.992127 -80.168387 -67.951441 C -80.168387 -65.910754 -80.678699 -64.323689 -81.699042 -63.189974 C -82.6627 -62.05626 -84.136477 -61.489303 -86.120478 -61.489303 C -88.104479 -61.489303 -89.60632 -62.05626 -90.626663 -63.189974 C -91.59032 -64.380375 -92.072569 -65.96744 -92.072569 -67.951441 C -92.072569 -70.048813 -91.59032 -71.664459 -90.626663 -72.798173 C -89.60632 -73.931888 -88.104479 -74.498845 -86.120478 -74.498845 z " /></g></svg>
