<?xml version="1.0" encoding="UTF-8" standalone="no"?>
<!-- Created with Inkscape (http://www.inkscape.org/) -->

<svg
   width="172.6701mm"
   height="172.6701mm"
   viewBox="0 0 172.6701 172.6701"
   version="1.1"
   id="svg1"
   xml:space="preserve"
   xmlns="http://www.w3.org/2000/svg"
   xmlns:svg="http://www.w3.org/2000/svg"><defs
     id="defs1" /><g
     id="layer1"
     transform="translate(157.25102,198.81012)"><path
       id="path5"
       style="fill:#ffffff;fill-opacity:1;stroke-width:0.805188;stroke-linecap:round;stroke-linejoin:round"
       d="M -2.0863309 -198.17657 L -10.088943 -183.11289 L -10.930235 -165.68398 L -19.198981 -165.68398 L -11.423229 -155.47426 L -12.166336 -140.07934 C -28.353216 -157.12094 -50.823548 -166.77435 -74.327399 -166.78417 C -103.64471 -166.77397 -130.92652 -151.79225 -146.66717 -127.05894 L -157.25102 -127.05894 L -149.61996 -115.86014 L -157.25102 -26.140039 L -8.5138455 -26.140039 L 15.419061 -26.140039 L 8.0799737 -154.80195 L 15.419061 -165.68398 L 7.4593397 -165.68398 L 6.4490654 -183.39297 L -2.0863309 -198.17657 z M -83.43072 -192.21621 C -85.584619 -189.65499 -86.77489 -186.4211 -86.795372 -183.07465 C -86.842092 -175.15518 -80.459903 -168.69733 -72.540428 -168.65072 C -64.621155 -168.60402 -58.163395 -174.98588 -58.116503 -182.90515 C -58.102813 -186.26049 -59.266203 -189.5144 -61.404157 -192.10045 C -60.83125 -190.6836 -60.536835 -189.16959 -60.537027 -187.64129 C -60.575787 -181.07411 -65.930869 -175.78172 -72.498054 -175.82031 C -79.065241 -175.85911 -84.357627 -181.21415 -84.319038 -187.78134 C -84.309338 -189.30285 -84.007827 -190.80837 -83.43072 -192.21621 z M -126.38159 -120.07436 C -121.84673 -119.84761 -118.16177 -118.85557 -115.32748 -117.09831 L -135.56449 -83.767013 L -122.55495 -83.767013 L -121.70487 -97.626632 C -119.89093 -97.626632 -118.58708 -97.995076 -117.79348 -98.731991 C -116.94319 -99.468905 -116.29153 -100.71611 -115.83804 -102.47336 L -110.99131 -102.47336 L -111.07606 -83.341716 C -108.922 -82.718173 -106.20102 -82.066508 -102.91325 -81.38628 L -103.33855 -77.304875 L -111.50136 -77.304875 L -111.50136 -62.084615 L -122.55495 -62.084615 L -122.55495 -77.304875 L -147.12812 -77.304875 L -147.8087 -80.36567 L -126.38159 -120.07436 z M -56.487661 -119.73381 C -52.803089 -119.73381 -49.543734 -119.11073 -46.709447 -117.86364 C -43.87516 -116.67324 -41.664494 -114.97237 -40.077294 -112.76163 C -38.490093 -110.60757 -37.69656 -108.11368 -37.69656 -105.27939 C -37.69656 -102.10499 -38.631961 -99.384015 -40.502591 -97.116586 C -42.37322 -94.849156 -45.150843 -93.120223 -48.835415 -91.929822 C -44.187185 -90.909479 -40.92783 -89.237189 -39.057201 -86.913074 C -37.186572 -84.588959 -36.251171 -81.442892 -36.251171 -77.474891 C -36.251171 -74.017061 -37.29986 -71.069506 -39.397232 -68.632019 C -41.437918 -66.194533 -44.101736 -64.380375 -47.389509 -63.189974 C -50.677281 -61.999574 -54.078505 -61.404554 -57.59302 -61.404554 C -62.694736 -61.404554 -67.031361 -62.453243 -70.602562 -64.550615 C -74.117078 -66.647987 -75.874592 -69.510317 -75.874592 -73.138204 C -75.874592 -75.235577 -75.250991 -76.851222 -74.003905 -77.984937 C -72.756819 -79.175337 -71.197817 -79.770358 -69.327188 -79.770358 C -67.399873 -79.770358 -65.444363 -79.005405 -63.460362 -77.474891 C -63.970534 -76.397862 -64.225174 -75.094016 -64.225174 -73.563501 C -64.225174 -71.749558 -63.686797 -70.275781 -62.609768 -69.142066 C -61.476054 -68.008351 -59.803764 -67.441394 -57.59302 -67.441394 C -52.718047 -67.441394 -50.280805 -70.814037 -50.280805 -77.55964 C -50.280805 -81.244213 -51.471363 -84.10706 -53.852163 -86.147746 C -56.176279 -88.188433 -59.492278 -89.208541 -63.800393 -89.208541 L -63.800393 -94.480571 C -55.46759 -95.1608 -51.300898 -98.760535 -51.300898 -105.27939 C -51.300898 -108.56717 -51.811211 -110.97583 -52.831554 -112.50634 C -53.851897 -114.09354 -55.240967 -114.88759 -56.998225 -114.88759 C -59.095597 -114.88759 -60.682662 -114.15071 -61.759691 -112.67688 C -62.780034 -111.20305 -63.290347 -109.41747 -63.290347 -107.3201 C -63.290347 -105.44947 -62.893322 -103.77718 -62.099722 -102.30335 C -63.686923 -100.60278 -65.727657 -99.752084 -68.221829 -99.752084 C -70.489258 -99.752084 -72.246256 -100.43233 -73.493342 -101.79279 C -74.740428 -103.15324 -75.364029 -104.91076 -75.364029 -107.06482 C -75.364029 -109.8991 -74.400564 -112.25164 -72.473249 -114.12227 C -70.489248 -116.04958 -68.05149 -117.46671 -65.160517 -118.37369 C -62.212859 -119.28066 -59.321948 -119.73381 -56.487661 -119.73381 z M -12.953368 -119.73381 C -7.1147371 -119.73381 -2.4663124 -118.28861 0.99151743 -115.39764 C 4.4493473 -112.56335 6.1782809 -108.56711 6.1782809 -103.40871 C 6.1782809 -98.873849 4.4493473 -94.026912 0.99151743 -88.86851 C -2.4663124 -83.766794 -8.1634261 -77.616529 -16.099429 -70.41744 L 6.7735934 -70.41744 L 6.7735934 -62.084615 L -31.744469 -62.084615 L -31.744469 -67.016097 C -25.452352 -73.081471 -20.549288 -78.268272 -17.034772 -82.576388 C -13.520257 -86.884504 -10.997791 -90.852684 -9.4672757 -94.480571 C -7.8800751 -98.108458 -7.0860257 -101.84955 -7.0860257 -105.70418 C -7.0860257 -111.82623 -9.1267597 -114.88759 -13.208133 -114.88759 C -15.022076 -114.88759 -16.495853 -114.0369 -17.629568 -112.33633 C -18.763283 -110.69244 -19.33024 -108.65171 -19.33024 -106.21422 C -19.33024 -104.51365 -18.735219 -102.89852 -17.544819 -101.36801 C -18.508476 -100.46103 -19.613809 -99.752209 -20.860895 -99.242037 C -22.051296 -98.731866 -23.241853 -98.476709 -24.432254 -98.476709 C -26.47294 -98.476709 -28.173293 -99.10031 -29.533751 -100.3474 C -30.894209 -101.65117 -31.574453 -103.52197 -31.574453 -105.95946 C -31.574453 -108.567 -30.808984 -110.91953 -29.27847 -113.01691 C -27.747955 -115.11428 -25.593933 -116.75799 -22.816332 -117.94839 C -19.982045 -119.13879 -16.694626 -119.73381 -12.953368 -119.73381 z M -88.203555 -101.28274 C -86.219554 -101.28274 -84.745777 -100.68772 -83.782119 -99.497319 C -82.761776 -98.363604 -82.251464 -96.776539 -82.251464 -94.735852 C -82.251464 -92.695166 -82.761776 -91.107584 -83.782119 -89.973869 C -84.745777 -88.840154 -86.219554 -88.273198 -88.203555 -88.273198 C -90.187556 -88.273198 -91.689913 -88.840154 -92.710257 -89.973869 C -93.673914 -91.16427 -94.155646 -92.751852 -94.155646 -94.735852 C -94.155646 -96.833225 -93.673914 -98.448354 -92.710257 -99.582068 C -91.689913 -100.71578 -90.187556 -101.28274 -88.203555 -101.28274 z M -88.203555 -74.498845 C -86.219554 -74.498845 -84.745777 -73.903824 -83.782119 -72.713424 C -82.761776 -71.579709 -82.251464 -69.992127 -82.251464 -67.951441 C -82.251464 -65.910754 -82.761776 -64.323689 -83.782119 -63.189974 C -84.745777 -62.05626 -86.219554 -61.489303 -88.203555 -61.489303 C -90.187556 -61.489303 -91.689913 -62.05626 -92.710257 -63.189974 C -93.673914 -64.380375 -94.155646 -65.96744 -94.155646 -67.951441 C -94.155646 -70.048813 -93.673914 -71.664459 -92.710257 -72.798173 C -91.689913 -73.931888 -90.187556 -74.498845 -88.203555 -74.498845 z " /></g></svg>
