<?xml version="1.0" encoding="UTF-8" standalone="no"?>
<!-- Created with Inkscape (http://www.inkscape.org/) -->

<svg
   width="172.6701mm"
   height="172.6701mm"
   viewBox="0 0 172.6701 172.6701"
   version="1.1"
   id="svg1"
   xml:space="preserve"
   xmlns="http://www.w3.org/2000/svg"
   xmlns:svg="http://www.w3.org/2000/svg"><defs
     id="defs1" /><g
     id="layer1"
     transform="translate(157.25102,198.81012)"><path
       id="path5"
       style="fill:#ffffff;fill-opacity:1;stroke-width:0.805188;stroke-linecap:round;stroke-linejoin:round"
       d="M -2.0863309 -198.17657 L -10.088943 -183.11289 L -10.930235 -165.68398 L -19.198981 -165.68398 L -11.423229 -155.47426 L -12.166336 -140.07934 C -28.353216 -157.12094 -50.823548 -166.77435 -74.327399 -166.78417 C -103.64471 -166.77397 -130.92652 -151.79225 -146.66717 -127.05894 L -157.25102 -127.05894 L -149.61996 -115.86014 L -157.25102 -26.140039 L -8.5138455 -26.140039 L 15.419061 -26.140039 L 8.0799737 -154.80195 L 15.419061 -165.68398 L 7.4593397 -165.68398 L 6.4490654 -183.39297 L -2.0863309 -198.17657 z M -83.43072 -192.21621 C -85.584619 -189.65499 -86.77489 -186.4211 -86.795372 -183.07465 C -86.842092 -175.15518 -80.459903 -168.69733 -72.540428 -168.65072 C -64.621155 -168.60402 -58.163395 -174.98588 -58.116503 -182.90515 C -58.102813 -186.26049 -59.266203 -189.5144 -61.404157 -192.10045 C -60.83125 -190.6836 -60.536835 -189.16959 -60.537027 -187.64129 C -60.575787 -181.07411 -65.930869 -175.78172 -72.498054 -175.82031 C -79.065241 -175.85911 -84.357627 -181.21415 -84.319038 -187.78134 C -84.309338 -189.30285 -84.007827 -190.80837 -83.43072 -192.21621 z M -126.42396 -120.07436 C -121.8891 -119.84761 -118.20466 -118.85557 -115.37037 -117.09831 L -135.60686 -83.767013 L -122.59732 -83.767013 L -121.74724 -97.626632 C -119.9333 -97.626632 -118.62946 -97.995076 -117.83585 -98.731991 C -116.98557 -99.468905 -116.3339 -100.71611 -115.88042 -102.47336 L -111.03369 -102.47336 L -111.11844 -83.341716 C -108.96438 -82.718173 -106.24392 -82.066508 -102.95614 -81.38628 L -103.38092 -77.304875 L -111.54373 -77.304875 L -111.54373 -62.084615 L -122.59732 -62.084615 L -122.59732 -77.304875 L -147.17102 -77.304875 L -147.85108 -80.36567 L -126.42396 -120.07436 z M -56.530553 -119.73381 C -52.84598 -119.73381 -49.586108 -119.11073 -46.751822 -117.86364 C -43.917535 -116.67324 -41.706869 -114.97237 -40.119668 -112.76163 C -38.532468 -110.60757 -37.738935 -108.11368 -37.738935 -105.27939 C -37.738935 -102.10499 -38.674336 -99.384015 -40.544965 -97.116586 C -42.415595 -94.849156 -45.193217 -93.120223 -48.87779 -91.929822 C -44.22956 -90.909479 -40.970205 -89.237189 -39.099576 -86.913074 C -37.228946 -84.588959 -36.293545 -81.442892 -36.293545 -77.474891 C -36.293545 -74.017061 -37.342234 -71.069506 -39.439606 -68.632019 C -41.480293 -66.194533 -44.144628 -64.380375 -47.4324 -63.189974 C -50.720173 -61.999574 -54.121396 -61.404554 -57.635912 -61.404554 C -62.737628 -61.404554 -67.073736 -62.453243 -70.644937 -64.550615 C -74.159452 -66.647987 -75.916966 -69.510317 -75.916966 -73.138204 C -75.916966 -75.235577 -75.293366 -76.851222 -74.04628 -77.984937 C -72.799193 -79.175337 -71.240192 -79.770358 -69.369562 -79.770358 C -67.442247 -79.770358 -65.486738 -79.005405 -63.502737 -77.474891 C -64.012909 -76.397862 -64.268065 -75.094016 -64.268065 -73.563501 C -64.268065 -71.749558 -63.729172 -70.275781 -62.652143 -69.142066 C -61.518428 -68.008351 -59.846655 -67.441394 -57.635912 -67.441394 C -52.760939 -67.441394 -50.32318 -70.814037 -50.32318 -77.55964 C -50.32318 -81.244213 -51.513737 -84.10706 -53.894538 -86.147746 C -56.218653 -88.188433 -59.534652 -89.208541 -63.842768 -89.208541 L -63.842768 -94.480571 C -55.509965 -95.1608 -51.343789 -98.760535 -51.343789 -105.27939 C -51.343789 -108.56717 -51.853585 -110.97583 -52.873929 -112.50634 C -53.894272 -114.09354 -55.283341 -114.88759 -57.040599 -114.88759 C -59.137971 -114.88759 -60.725037 -114.15071 -61.802066 -112.67688 C -62.822409 -111.20305 -63.332722 -109.41747 -63.332722 -107.3201 C -63.332722 -105.44947 -62.935697 -103.77718 -62.142097 -102.30335 C -63.729297 -100.60278 -65.770031 -99.752084 -68.264204 -99.752084 C -70.531633 -99.752084 -72.289147 -100.43233 -73.536233 -101.79279 C -74.783319 -103.15324 -75.406403 -104.91076 -75.406403 -107.06482 C -75.406403 -109.8991 -74.442939 -112.25164 -72.515624 -114.12227 C -70.531623 -116.04958 -68.094381 -117.46671 -65.203409 -118.37369 C -62.25575 -119.28066 -59.36484 -119.73381 -56.530553 -119.73381 z M -13.335773 -119.73381 C -9.6512006 -119.73381 -6.3918457 -119.11073 -3.5575589 -117.86364 C -0.72327215 -116.67324 1.4873938 -114.97237 3.0745944 -112.76163 C 4.661795 -110.60757 5.4553277 -108.11368 5.4553277 -105.27939 C 5.4553277 -102.10499 4.5199266 -99.384015 2.6492974 -97.116586 C 0.77866813 -94.849156 -1.9984378 -93.120223 -5.6830106 -91.929822 C -1.0347803 -90.909479 2.2245747 -89.237189 4.095204 -86.913074 C 5.9658332 -84.588959 6.9012342 -81.442892 6.9012342 -77.474891 C 6.9012342 -74.017061 5.8525452 -71.069506 3.755173 -68.632019 C 1.7144866 -66.194533 -0.94984811 -64.380375 -4.2376207 -63.189974 C -7.5253934 -61.999574 -10.926617 -61.404554 -14.441132 -61.404554 C -19.542848 -61.404554 -23.879473 -62.453243 -27.450674 -64.550615 C -30.96519 -66.647987 -32.722187 -69.510317 -32.722187 -73.138204 C -32.722187 -75.235577 -32.098586 -76.851222 -30.8515 -77.984937 C -29.604414 -79.175337 -28.045929 -79.770358 -26.1753 -79.770358 C -24.247985 -79.770358 -22.291958 -79.005405 -20.307958 -77.474891 C -20.818129 -76.397862 -21.073286 -75.094016 -21.073286 -73.563501 C -21.073286 -71.749558 -20.534909 -70.275781 -19.45788 -69.142066 C -18.324166 -68.008351 -16.651876 -67.441394 -14.441132 -67.441394 C -9.5661591 -67.441394 -7.1289171 -70.814037 -7.1289171 -77.55964 C -7.1289171 -81.244213 -8.3189577 -84.10706 -10.699759 -86.147746 C -13.023874 -88.188433 -16.340389 -89.208541 -20.648505 -89.208541 L -20.648505 -94.480571 C -12.315702 -95.1608 -8.1490099 -98.760535 -8.1490099 -105.27939 C -8.1490099 -108.56717 -8.6593226 -110.97583 -9.6796658 -112.50634 C -10.700009 -114.09354 -12.088562 -114.88759 -13.84582 -114.88759 C -15.943192 -114.88759 -17.530774 -114.15071 -18.607803 -112.67688 C -19.628146 -111.20305 -20.137942 -109.41747 -20.137942 -107.3201 C -20.137942 -105.44947 -19.741434 -103.77718 -18.947834 -102.30335 C -20.535035 -100.60278 -22.575769 -99.752084 -25.069941 -99.752084 C -27.33737 -99.752084 -29.094368 -100.43233 -30.341454 -101.79279 C -31.58854 -103.15324 -32.212141 -104.91076 -32.212141 -107.06482 C -32.212141 -109.8991 -31.248676 -112.25164 -29.321361 -114.12227 C -27.33736 -116.04958 -24.899602 -117.46671 -22.008629 -118.37369 C -19.060971 -119.28066 -16.17006 -119.73381 -13.335773 -119.73381 z M -88.24593 -101.28274 C -86.261929 -101.28274 -84.788152 -100.68772 -83.824494 -99.497319 C -82.804151 -98.363604 -82.293838 -96.776539 -82.293838 -94.735852 C -82.293838 -92.695166 -82.804151 -91.107584 -83.824494 -89.973869 C -84.788152 -88.840154 -86.261929 -88.273198 -88.24593 -88.273198 C -90.22993 -88.273198 -91.732288 -88.840154 -92.752631 -89.973869 C -93.716289 -91.16427 -94.198021 -92.751852 -94.198021 -94.735852 C -94.198021 -96.833225 -93.716289 -98.448354 -92.752631 -99.582068 C -91.732288 -100.71578 -90.22993 -101.28274 -88.24593 -101.28274 z M -88.24593 -74.498845 C -86.261929 -74.498845 -84.788152 -73.903824 -83.824494 -72.713424 C -82.804151 -71.579709 -82.293838 -69.992127 -82.293838 -67.951441 C -82.293838 -65.910754 -82.804151 -64.323689 -83.824494 -63.189974 C -84.788152 -62.05626 -86.261929 -61.489303 -88.24593 -61.489303 C -90.22993 -61.489303 -91.732288 -62.05626 -92.752631 -63.189974 C -93.716289 -64.380375 -94.198021 -65.96744 -94.198021 -67.951441 C -94.198021 -70.048813 -93.716289 -71.664459 -92.752631 -72.798173 C -91.732288 -73.931888 -90.22993 -74.498845 -88.24593 -74.498845 z " /></g></svg>
