<?xml version="1.0" encoding="UTF-8" standalone="no"?>
<!-- Created with Inkscape (http://www.inkscape.org/) -->

<svg
   width="172.6701mm"
   height="172.6701mm"
   viewBox="0 0 172.6701 172.6701"
   version="1.1"
   id="svg1"
   xml:space="preserve"
   xmlns="http://www.w3.org/2000/svg"
   xmlns:svg="http://www.w3.org/2000/svg"><defs
     id="defs1" /><g
     id="layer1"
     transform="translate(157.25102,198.81012)"><path
       id="path5"
       style="fill:#ffffff;fill-opacity:1;stroke-width:0.805188;stroke-linecap:round;stroke-linejoin:round"
       d="M -2.0863309 -198.17657 L -10.088943 -183.11289 L -10.930235 -165.68398 L -19.198981 -165.68398 L -11.423229 -155.47426 L -12.166336 -140.07934 C -28.353216 -157.12094 -50.823548 -166.77435 -74.327399 -166.78417 C -103.64471 -166.77397 -130.92652 -151.79225 -146.66717 -127.05894 L -157.25102 -127.05894 L -149.61996 -115.86014 L -157.25102 -26.140039 L -8.5138455 -26.140039 L 15.419061 -26.140039 L 8.0799737 -154.80195 L 15.419061 -165.68398 L 7.4593397 -165.68398 L 6.4490654 -183.39297 L -2.0863309 -198.17657 z M -83.43072 -192.21621 C -85.584619 -189.65499 -86.77489 -186.4211 -86.795372 -183.07465 C -86.842092 -175.15518 -80.459903 -168.69733 -72.540428 -168.65072 C -64.621155 -168.60402 -58.163395 -174.98588 -58.116503 -182.90515 C -58.102813 -186.26049 -59.266203 -189.5144 -61.404157 -192.10045 C -60.83125 -190.6836 -60.536835 -189.16959 -60.537027 -187.64129 C -60.575787 -181.07411 -65.930869 -175.78172 -72.498054 -175.82031 C -79.065241 -175.85911 -84.357627 -181.21415 -84.319038 -187.78134 C -84.309338 -189.30285 -84.007827 -190.80837 -83.43072 -192.21621 z M -126.93401 -120.07436 C -122.39915 -119.84761 -118.71471 -118.85557 -115.88042 -117.09831 L -136.11691 -83.767013 L -123.10788 -83.767013 L -122.25729 -97.626632 C -120.44335 -97.626632 -119.14002 -97.995076 -118.34642 -98.731991 C -117.49613 -99.468905 -116.84395 -100.71611 -116.39046 -102.47336 L -111.54373 -102.47336 L -111.629 -83.341716 C -109.47494 -82.718173 -106.75396 -82.066508 -103.46619 -81.38628 L -103.89149 -77.304875 L -112.0543 -77.304875 L -112.0543 -62.084615 L -123.10788 -62.084615 L -123.10788 -77.304875 L -147.68106 -77.304875 L -148.36112 -80.36567 L -126.93401 -120.07436 z M -57.040599 -119.73381 C -53.356026 -119.73381 -50.096671 -119.11073 -47.262385 -117.86364 C -44.428098 -116.67324 -42.217432 -114.97237 -40.630231 -112.76163 C -39.043031 -110.60757 -38.248981 -108.11368 -38.248981 -105.27939 C -38.248981 -102.10499 -39.184382 -99.384015 -41.055012 -97.116586 C -42.925641 -94.849156 -45.703264 -93.120223 -49.387836 -91.929822 C -44.739606 -90.909479 -41.480251 -89.237189 -39.609622 -86.913074 C -37.738993 -84.588959 -36.803592 -81.442892 -36.803592 -77.474891 C -36.803592 -74.017061 -37.852281 -71.069506 -39.949653 -68.632019 C -41.990339 -66.194533 -44.654674 -64.380375 -47.942447 -63.189974 C -51.230219 -61.999574 -54.631443 -61.404554 -58.145958 -61.404554 C -63.247674 -61.404554 -67.584299 -62.453243 -71.1555 -64.550615 C -74.670016 -66.647987 -76.427013 -69.510317 -76.427013 -73.138204 C -76.427013 -75.235577 -75.803412 -76.851222 -74.556326 -77.984937 C -73.30924 -79.175337 -71.750238 -79.770358 -69.879609 -79.770358 C -67.952294 -79.770358 -65.996784 -79.005405 -64.012784 -77.474891 C -64.522955 -76.397862 -64.778111 -75.094016 -64.778111 -73.563501 C -64.778111 -71.749558 -64.239735 -70.275781 -63.162706 -69.142066 C -62.028991 -68.008351 -60.356702 -67.441394 -58.145958 -67.441394 C -53.270985 -67.441394 -50.833226 -70.814037 -50.833226 -77.55964 C -50.833226 -81.244213 -52.023784 -84.10706 -54.404584 -86.147746 C -56.7287 -88.188433 -60.044699 -89.208541 -64.352814 -89.208541 L -64.352814 -94.480571 C -56.020011 -95.1608 -51.853836 -98.760535 -51.853836 -105.27939 C -51.853836 -108.56717 -52.364148 -110.97583 -53.384492 -112.50634 C -54.404835 -114.09354 -55.793388 -114.88759 -57.550646 -114.88759 C -59.648018 -114.88759 -61.235083 -114.15071 -62.312112 -112.67688 C -63.332455 -111.20305 -63.842768 -109.41747 -63.842768 -107.3201 C -63.842768 -105.44947 -63.44626 -103.77718 -62.65266 -102.30335 C -64.23986 -100.60278 -66.280078 -99.752084 -68.77425 -99.752084 C -71.041679 -99.752084 -72.799193 -100.43233 -74.04628 -101.79279 C -75.293366 -103.15324 -75.916966 -104.91076 -75.916966 -107.06482 C -75.916966 -109.8991 -74.952985 -112.25164 -73.02567 -114.12227 C -71.041669 -116.04958 -68.604427 -117.46671 -65.713455 -118.37369 C -62.765797 -119.28066 -59.874886 -119.73381 -57.040599 -119.73381 z M -25.239956 -119.05375 L -20.988536 -118.969 C -14.979848 -118.85563 -11.805201 -118.79847 -11.465087 -118.79847 L 0.60859507 -118.969 L 3.0745944 -117.18306 L 2.3092665 -110.72092 L -18.777819 -110.72092 L -19.967927 -96.521273 C -17.020269 -97.258188 -14.356451 -97.626632 -11.97565 -97.626632 C -6.3637619 -97.626632 -1.8005616 -96.124274 1.713954 -93.11993 C 5.2851553 -90.172272 7.0712497 -85.836165 7.0712497 -80.110905 C 7.0712497 -76.539704 6.2205563 -73.336993 4.5199842 -70.502706 C 2.8760979 -67.66842 0.49549995 -65.429173 -2.6222155 -63.785287 C -5.7399309 -62.198086 -9.4243742 -61.404554 -13.675804 -61.404554 C -17.133634 -61.404554 -20.279701 -61.886286 -23.113988 -62.849943 C -25.891589 -63.813601 -28.074191 -65.14551 -29.661392 -66.846082 C -31.248592 -68.60334 -32.042125 -70.559366 -32.042125 -72.713424 C -32.042125 -74.980853 -31.418524 -76.709787 -30.171438 -77.900188 C -28.924352 -79.147274 -27.393931 -79.770358 -25.579987 -79.770358 C -24.559644 -79.770358 -23.539535 -79.572362 -22.519192 -79.175562 C -21.442163 -78.778762 -20.478182 -78.211805 -19.627896 -77.474891 C -20.138067 -76.28449 -20.393224 -75.037289 -20.393224 -73.733517 C -20.393224 -71.862888 -19.854847 -70.332466 -18.777819 -69.142066 C -17.644104 -67.951665 -15.943234 -67.356645 -13.675804 -67.356645 C -8.5740882 -67.356645 -6.0235582 -71.608045 -6.0235582 -80.110905 C -6.0235582 -84.135593 -6.8170909 -87.054567 -8.4042915 -88.86851 C -9.9914921 -90.73914 -12.116934 -91.674541 -14.781163 -91.674541 C -16.42505 -91.674541 -18.182564 -91.36274 -20.053193 -90.739197 C -21.923822 -90.115654 -23.766044 -89.236897 -25.579987 -88.103182 L -30.256704 -92.609884 L -28.045987 -116.75776 L -25.239956 -119.05375 z M -88.756493 -101.28274 C -86.772492 -101.28274 -85.298198 -100.68772 -84.334541 -99.497319 C -83.314197 -98.363604 -82.804401 -96.776539 -82.804401 -94.735852 C -82.804401 -92.695166 -83.314197 -91.107584 -84.334541 -89.973869 C -85.298198 -88.840154 -86.772492 -88.273198 -88.756493 -88.273198 C -90.740494 -88.273198 -92.242334 -88.840154 -93.262678 -89.973869 C -94.226335 -91.16427 -94.708068 -92.751852 -94.708068 -94.735852 C -94.708068 -96.833225 -94.226335 -98.448354 -93.262678 -99.582068 C -92.242334 -100.71578 -90.740494 -101.28274 -88.756493 -101.28274 z M -88.756493 -74.498845 C -86.772492 -74.498845 -85.298198 -73.903824 -84.334541 -72.713424 C -83.314197 -71.579709 -82.804401 -69.992127 -82.804401 -67.951441 C -82.804401 -65.910754 -83.314197 -64.323689 -84.334541 -63.189974 C -85.298198 -62.05626 -86.772492 -61.489303 -88.756493 -61.489303 C -90.740494 -61.489303 -92.242334 -62.05626 -93.262678 -63.189974 C -94.226335 -64.380375 -94.708068 -65.96744 -94.708068 -67.951441 C -94.708068 -70.048813 -94.226335 -71.664459 -93.262678 -72.798173 C -92.242334 -73.931888 -90.740494 -74.498845 -88.756493 -74.498845 z " /></g></svg>
