<?xml version="1.0" encoding="UTF-8" standalone="no"?>
<!-- Created with Inkscape (http://www.inkscape.org/) -->

<svg
   width="172.6701mm"
   height="172.6701mm"
   viewBox="0 0 172.6701 172.6701"
   version="1.1"
   id="svg1"
   xml:space="preserve"
   xmlns="http://www.w3.org/2000/svg"
   xmlns:svg="http://www.w3.org/2000/svg"><defs
     id="defs1" /><g
     id="layer1"
     transform="translate(157.25102,198.81012)"><path
       id="path5"
       style="fill:#ffffff;fill-opacity:1;stroke-width:0.805188;stroke-linecap:round;stroke-linejoin:round"
       d="M -2.0863309 -198.17657 L -10.088943 -183.11289 L -10.930235 -165.68398 L -19.198981 -165.68398 L -11.423229 -155.47426 L -12.166336 -140.07934 C -28.353216 -157.12094 -50.823548 -166.77435 -74.327399 -166.78417 C -103.64471 -166.77397 -130.92652 -151.79225 -146.66717 -127.05894 L -157.25102 -127.05894 L -149.61996 -115.86014 L -157.25102 -26.140039 L -8.5138455 -26.140039 L 15.419061 -26.140039 L 8.0799737 -154.80195 L 15.419061 -165.68398 L 7.4593397 -165.68398 L 6.4490654 -183.39297 L -2.0863309 -198.17657 z M -83.43072 -192.21621 C -85.584619 -189.65499 -86.77489 -186.4211 -86.795372 -183.07465 C -86.842092 -175.15518 -80.459903 -168.69733 -72.540428 -168.65072 C -64.621155 -168.60402 -58.163395 -174.98588 -58.116503 -182.90515 C -58.102813 -186.26049 -59.266203 -189.5144 -61.404157 -192.10045 C -60.83125 -190.6836 -60.536835 -189.16959 -60.537027 -187.64129 C -60.575787 -181.07411 -65.930869 -175.78172 -72.498054 -175.82031 C -79.065241 -175.85911 -84.357627 -181.21415 -84.319038 -187.78134 C -84.309338 -189.30285 -84.007827 -190.80837 -83.43072 -192.21621 z M -127.69934 -120.07436 C -123.16448 -119.84761 -119.48003 -118.85557 -116.64575 -117.09831 L -136.88224 -83.767013 L -123.87321 -83.767013 L -123.02262 -97.626632 C -121.20867 -97.626632 -119.90483 -97.995076 -119.11123 -98.731991 C -118.26094 -99.468905 -117.60928 -100.71611 -117.15579 -102.47336 L -112.30906 -102.47336 L -112.39433 -83.341716 C -110.24027 -82.718173 -107.51929 -82.066508 -104.23152 -81.38628 L -104.6563 -77.304875 L -112.81911 -77.304875 L -112.81911 -62.084615 L -123.87321 -62.084615 L -123.87321 -77.304875 L -148.44639 -77.304875 L -149.12645 -80.36567 L -127.69934 -120.07436 z M -0.75152863 -119.90383 L 1.2891737 -115.65241 C -10.161345 -110.72075 -17.049016 -103.12528 -19.373131 -92.865166 C -16.085358 -94.452366 -12.967355 -95.245899 -10.019697 -95.245899 C -4.3511233 -95.245899 0.098789097 -93.715477 3.329876 -90.654448 C 6.6176486 -87.593418 8.2613579 -83.455306 8.2613579 -78.240218 C 8.2613579 -75.009132 7.3826009 -72.118221 5.6253431 -69.567363 C 3.9247711 -67.016505 1.5155927 -65.032415 -1.6021227 -63.615271 C -4.6631524 -62.198128 -8.1776637 -61.489303 -12.145665 -61.489303 C -18.891268 -61.489303 -24.077552 -63.360105 -27.705439 -67.101363 C -31.27664 -70.842622 -33.062735 -76.255999 -33.062735 -83.341716 C -33.062735 -92.241376 -30.313176 -99.808775 -24.814659 -106.04421 C -19.259457 -112.33632 -11.23839 -116.95617 -0.75152863 -119.90383 z M -57.805927 -119.73381 C -54.121354 -119.73381 -50.861999 -119.11073 -48.027713 -117.86364 C -45.193426 -116.67324 -42.982243 -114.97237 -41.395043 -112.76163 C -39.807842 -110.60757 -39.014309 -108.11368 -39.014309 -105.27939 C -39.014309 -102.10499 -39.94971 -99.384015 -41.82034 -97.116586 C -43.690969 -94.849156 -46.468592 -93.120223 -50.153164 -91.929822 C -45.504934 -90.909479 -42.245579 -89.237189 -40.37495 -86.913074 C -38.504321 -84.588959 -37.56892 -81.442892 -37.56892 -77.474891 C -37.56892 -74.017061 -38.617609 -71.069506 -40.714981 -68.632019 C -42.755667 -66.194533 -45.420002 -64.380375 -48.707775 -63.189974 C -51.995547 -61.999574 -55.396771 -61.404554 -58.911286 -61.404554 C -64.013002 -61.404554 -68.34911 -62.453243 -71.920311 -64.550615 C -75.434827 -66.647987 -77.192341 -69.510317 -77.192341 -73.138204 C -77.192341 -75.235577 -76.56874 -76.851222 -75.321654 -77.984937 C -74.074568 -79.175337 -72.515566 -79.770358 -70.644937 -79.770358 C -68.717622 -79.770358 -66.762112 -79.005405 -64.778111 -77.474891 C -65.288283 -76.397862 -65.543439 -75.094016 -65.543439 -73.563501 C -65.543439 -71.749558 -65.005063 -70.275781 -63.928034 -69.142066 C -62.794319 -68.008351 -61.12203 -67.441394 -58.911286 -67.441394 C -54.036313 -67.441394 -51.598554 -70.814037 -51.598554 -77.55964 C -51.598554 -81.244213 -52.789112 -84.10706 -55.169912 -86.147746 C -57.494028 -88.188433 -60.810027 -89.208541 -65.118142 -89.208541 L -65.118142 -94.480571 C -56.785339 -95.1608 -52.619164 -98.760535 -52.619164 -105.27939 C -52.619164 -108.56717 -53.12896 -110.97583 -54.149303 -112.50634 C -55.169646 -114.09354 -56.558716 -114.88759 -58.315974 -114.88759 C -60.413346 -114.88759 -62.000411 -114.15071 -63.07744 -112.67688 C -64.097783 -111.20305 -64.608096 -109.41747 -64.608096 -107.3201 C -64.608096 -105.44947 -64.211071 -103.77718 -63.417471 -102.30335 C -65.004672 -100.60278 -67.045406 -99.752084 -69.539578 -99.752084 C -71.807007 -99.752084 -73.564521 -100.43233 -74.811608 -101.79279 C -76.058694 -103.15324 -76.682294 -104.91076 -76.682294 -107.06482 C -76.682294 -109.8991 -75.718313 -112.25164 -73.790998 -114.12227 C -71.806997 -116.04958 -69.369755 -117.46671 -66.478783 -118.37369 C -63.531125 -119.28066 -60.640214 -119.73381 -57.805927 -119.73381 z M -89.521304 -101.28274 C -87.537303 -101.28274 -86.063526 -100.68772 -85.099868 -99.497319 C -84.079525 -98.363604 -83.569729 -96.776539 -83.569729 -94.735852 C -83.569729 -92.695166 -84.079525 -91.107584 -85.099868 -89.973869 C -86.063526 -88.840154 -87.537303 -88.273198 -89.521304 -88.273198 C -91.505305 -88.273198 -93.007662 -88.840154 -94.028006 -89.973869 C -94.991663 -91.16427 -95.473395 -92.751852 -95.473395 -94.735852 C -95.473395 -96.833225 -94.991663 -98.448354 -94.028006 -99.582068 C -93.007662 -100.71578 -91.505305 -101.28274 -89.521304 -101.28274 z M -12.40043 -89.293807 C -14.781231 -89.293807 -17.360341 -88.330343 -20.137942 -86.403028 L -20.137942 -85.297669 C -20.137942 -79.118924 -19.457698 -74.583787 -18.09724 -71.692814 C -16.736782 -68.801842 -14.58276 -67.356645 -11.635102 -67.356645 C -9.1976154 -67.356645 -7.3273302 -68.291529 -6.0235582 -70.162159 C -4.7197863 -72.032788 -4.0676053 -74.697123 -4.0676053 -78.154952 C -4.0676053 -81.669468 -4.8044939 -84.390447 -6.2783231 -86.317762 C -7.6954664 -88.301762 -9.7362004 -89.293807 -12.40043 -89.293807 z M -89.521304 -74.498845 C -87.537303 -74.498845 -86.063526 -73.903824 -85.099868 -72.713424 C -84.079525 -71.579709 -83.569729 -69.992127 -83.569729 -67.951441 C -83.569729 -65.910754 -84.079525 -64.323689 -85.099868 -63.189974 C -86.063526 -62.05626 -87.537303 -61.489303 -89.521304 -61.489303 C -91.505305 -61.489303 -93.007662 -62.05626 -94.028006 -63.189974 C -94.991663 -64.380375 -95.473395 -65.96744 -95.473395 -67.951441 C -95.473395 -70.048813 -94.991663 -71.664459 -94.028006 -72.798173 C -93.007662 -73.931888 -91.505305 -74.498845 -89.521304 -74.498845 z " /></g></svg>
