<?xml version="1.0" encoding="UTF-8" standalone="no"?>
<!-- Created with Inkscape (http://www.inkscape.org/) -->

<svg
   width="172.6701mm"
   height="172.6701mm"
   viewBox="0 0 172.6701 172.6701"
   version="1.1"
   id="svg1"
   xml:space="preserve"
   xmlns="http://www.w3.org/2000/svg"
   xmlns:svg="http://www.w3.org/2000/svg"><defs
     id="defs1" /><g
     id="layer1"
     transform="translate(157.25102,198.81012)"><path
       id="path5"
       style="fill:#ffffff;fill-opacity:1;stroke-width:0.805188;stroke-linecap:round;stroke-linejoin:round"
       d="M -2.0863309 -198.17657 L -10.088943 -183.11289 L -10.930235 -165.68398 L -19.198981 -165.68398 L -11.423229 -155.47426 L -12.166336 -140.07934 C -28.353216 -157.12094 -50.823548 -166.77435 -74.327399 -166.78417 C -103.64471 -166.77397 -130.92652 -151.79225 -146.66717 -127.05894 L -157.25102 -127.05894 L -149.61996 -115.86014 L -157.25102 -26.140039 L -8.5138455 -26.140039 L 15.419061 -26.140039 L 8.0799737 -154.80195 L 15.419061 -165.68398 L 7.4593397 -165.68398 L 6.4490654 -183.39297 L -2.0863309 -198.17657 z M -83.43072 -192.21621 C -85.584619 -189.65499 -86.77489 -186.4211 -86.795372 -183.07465 C -86.842092 -175.15518 -80.459903 -168.69733 -72.540428 -168.65072 C -64.621155 -168.60402 -58.163395 -174.98588 -58.116503 -182.90515 C -58.102813 -186.26049 -59.266203 -189.5144 -61.404157 -192.10045 C -60.83125 -190.6836 -60.536835 -189.16959 -60.537027 -187.64129 C -60.575787 -181.07411 -65.930869 -175.78172 -72.498054 -175.82031 C -79.065241 -175.85911 -84.357627 -181.21415 -84.319038 -187.78134 C -84.309338 -189.30285 -84.007827 -190.80837 -83.43072 -192.21621 z M -127.52932 -120.07436 C -122.99446 -119.84761 -119.31002 -118.85557 -116.47573 -117.09831 L -136.71222 -83.767013 L -123.7032 -83.767013 L -122.8526 -97.626632 C -121.03866 -97.626632 -119.73481 -97.995076 -118.94121 -98.731991 C -118.09093 -99.468905 -117.43926 -100.71611 -116.98578 -102.47336 L -112.13904 -102.47336 L -112.22431 -83.341716 C -110.07025 -82.718173 -107.34927 -82.066508 -104.0615 -81.38628 L -104.48628 -77.304875 L -112.64909 -77.304875 L -112.64909 -62.084615 L -123.7032 -62.084615 L -123.7032 -77.304875 L -148.27637 -77.304875 L -148.95644 -80.36567 L -127.52932 -120.07436 z M -57.635912 -119.73381 C -53.951339 -119.73381 -50.691467 -119.11073 -47.85718 -117.86364 C -45.022894 -116.67324 -42.812228 -114.97237 -41.225027 -112.76163 C -39.637827 -110.60757 -38.844294 -108.11368 -38.844294 -105.27939 C -38.844294 -102.10499 -39.779695 -99.384015 -41.650324 -97.116586 C -43.520953 -94.849156 -46.298576 -93.120223 -49.983149 -91.929822 C -45.334919 -90.909479 -42.075564 -89.237189 -40.204934 -86.913074 C -38.334305 -84.588959 -37.398904 -81.442892 -37.398904 -77.474891 C -37.398904 -74.017061 -38.447593 -71.069506 -40.544965 -68.632019 C -42.585652 -66.194533 -45.249986 -64.380375 -48.537759 -63.189974 C -51.825532 -61.999574 -55.226755 -61.404554 -58.741271 -61.404554 C -63.842987 -61.404554 -68.179094 -62.453243 -71.750296 -64.550615 C -75.264811 -66.647987 -77.022325 -69.510317 -77.022325 -73.138204 C -77.022325 -75.235577 -76.398725 -76.851222 -75.151638 -77.984937 C -73.904552 -79.175337 -72.345551 -79.770358 -70.474921 -79.770358 C -68.547606 -79.770358 -66.592097 -79.005405 -64.608096 -77.474891 C -65.118268 -76.397862 -65.373424 -75.094016 -65.373424 -73.563501 C -65.373424 -71.749558 -64.835048 -70.275781 -63.758019 -69.142066 C -62.624304 -68.008351 -60.952014 -67.441394 -58.741271 -67.441394 C -53.866297 -67.441394 -51.428539 -70.814037 -51.428539 -77.55964 C -51.428539 -81.244213 -52.619096 -84.10706 -54.999897 -86.147746 C -57.324012 -88.188433 -60.640011 -89.208541 -64.948127 -89.208541 L -64.948127 -94.480571 C -56.615324 -95.1608 -52.449148 -98.760535 -52.449148 -105.27939 C -52.449148 -108.56717 -52.958944 -110.97583 -53.979287 -112.50634 C -54.999631 -114.09354 -56.3887 -114.88759 -58.145958 -114.88759 C -60.24333 -114.88759 -61.830396 -114.15071 -62.907425 -112.67688 C -63.927768 -111.20305 -64.438081 -109.41747 -64.438081 -107.3201 C -64.438081 -105.44947 -64.041056 -103.77718 -63.247456 -102.30335 C -64.834656 -100.60278 -66.87539 -99.752084 -69.369562 -99.752084 C -71.636992 -99.752084 -73.394506 -100.43233 -74.641592 -101.79279 C -75.888678 -103.15324 -76.512279 -104.91076 -76.512279 -107.06482 C -76.512279 -109.8991 -75.548298 -112.25164 -73.620983 -114.12227 C -71.636982 -116.04958 -69.19974 -117.46671 -66.308767 -118.37369 C -63.361109 -119.28066 -60.470199 -119.73381 -57.635912 -119.73381 z M -12.740461 -119.56379 C -5.9948584 -119.56379 -0.83663781 -117.69351 2.7345635 -113.95225 C 6.3624505 -110.21099 8.1766086 -104.7971 8.1766086 -97.711381 C 8.1766086 -88.811721 5.3989859 -81.216258 -0.15621613 -74.924142 C -5.6547324 -68.688711 -13.647736 -64.09693 -24.134597 -61.149272 L -26.1753 -65.400692 C -20.506726 -67.838179 -15.943526 -70.956182 -12.485696 -74.754126 C -9.0278663 -78.608756 -6.7319759 -83.086732 -5.5982612 -88.188448 C -8.7726624 -86.601248 -11.862085 -85.807715 -14.866429 -85.807715 C -20.535003 -85.807715 -25.012979 -87.338137 -28.300751 -90.399166 C -31.531838 -93.460196 -33.147484 -97.598308 -33.147484 -102.8134 C -33.147484 -106.04448 -32.297307 -108.93539 -30.596735 -111.48625 C -28.839478 -114.03711 -26.430299 -116.0212 -23.36927 -117.43834 C -20.251554 -118.85549 -16.708462 -119.56379 -12.740461 -119.56379 z M -13.251024 -113.69697 C -15.688511 -113.69697 -17.558796 -112.76157 -18.862568 -110.89094 C -20.16634 -109.02031 -20.818521 -106.35597 -20.818521 -102.89814 C -20.818521 -99.383629 -20.109696 -96.634587 -18.692552 -94.650586 C -17.218723 -92.723271 -15.149926 -91.759807 -12.485696 -91.759807 C -10.161581 -91.759807 -7.5824707 -92.723271 -4.7481839 -94.650586 L -4.7481839 -95.755945 C -4.7481839 -101.93469 -5.4284286 -106.46931 -6.7888862 -109.36028 C -8.1493439 -112.25126 -10.303366 -113.69697 -13.251024 -113.69697 z M -89.351289 -101.28274 C -87.367288 -101.28274 -85.893511 -100.68772 -84.929853 -99.497319 C -83.90951 -98.363604 -83.399197 -96.776539 -83.399197 -94.735852 C -83.399197 -92.695166 -83.90951 -91.107584 -84.929853 -89.973869 C -85.893511 -88.840154 -87.367288 -88.273198 -89.351289 -88.273198 C -91.335289 -88.273198 -92.837647 -88.840154 -93.85799 -89.973869 C -94.821648 -91.16427 -95.30338 -92.751852 -95.30338 -94.735852 C -95.30338 -96.833225 -94.821648 -98.448354 -93.85799 -99.582068 C -92.837647 -100.71578 -91.335289 -101.28274 -89.351289 -101.28274 z M -89.351289 -74.498845 C -87.367288 -74.498845 -85.893511 -73.903824 -84.929853 -72.713424 C -83.90951 -71.579709 -83.399197 -69.992127 -83.399197 -67.951441 C -83.399197 -65.910754 -83.90951 -64.323689 -84.929853 -63.189974 C -85.893511 -62.05626 -87.367288 -61.489303 -89.351289 -61.489303 C -91.335289 -61.489303 -92.837647 -62.05626 -93.85799 -63.189974 C -94.821648 -64.380375 -95.30338 -65.96744 -95.30338 -67.951441 C -95.30338 -70.048813 -94.821648 -71.664459 -93.85799 -72.798173 C -92.837647 -73.931888 -91.335289 -74.498845 -89.351289 -74.498845 z " /></g></svg>
