<?xml version="1.0" encoding="UTF-8" standalone="no"?>
<!-- Created with Inkscape (http://www.inkscape.org/) -->

<svg
   width="172.6701mm"
   height="172.6701mm"
   viewBox="0 0 172.6701 172.6701"
   version="1.1"
   id="svg1"
   xml:space="preserve"
   xmlns="http://www.w3.org/2000/svg"
   xmlns:svg="http://www.w3.org/2000/svg"><defs
     id="defs1" /><g
     id="layer1"
     transform="translate(157.25102,198.81012)"><path
       id="path5"
       style="fill:#ffffff;fill-opacity:1;stroke-width:0.805188;stroke-linecap:round;stroke-linejoin:round"
       d="M -2.0863309 -198.17657 L -10.088943 -183.11289 L -10.930235 -165.68398 L -19.198981 -165.68398 L -11.423229 -155.47426 L -12.166336 -140.07934 C -28.353216 -157.12094 -50.823548 -166.77435 -74.327399 -166.78417 C -103.64471 -166.77397 -130.92652 -151.79225 -146.66717 -127.05894 L -157.25102 -127.05894 L -149.61996 -115.86014 L -157.25102 -26.140039 L -8.5138455 -26.140039 L 15.419061 -26.140039 L 8.0799737 -154.80195 L 15.419061 -165.68398 L 7.4593397 -165.68398 L 6.4490654 -183.39297 L -2.0863309 -198.17657 z M -83.43072 -192.21621 C -85.584619 -189.65499 -86.77489 -186.4211 -86.795372 -183.07465 C -86.842092 -175.15518 -80.459903 -168.69733 -72.540428 -168.65072 C -64.621155 -168.60402 -58.163395 -174.98588 -58.116503 -182.90515 C -58.102813 -186.26049 -59.266203 -189.5144 -61.404157 -192.10045 C -60.83125 -190.6836 -60.536835 -189.16959 -60.537027 -187.64129 C -60.575787 -181.07411 -65.930869 -175.78172 -72.498054 -175.82031 C -79.065241 -175.85911 -84.357627 -181.21415 -84.319038 -187.78134 C -84.309338 -189.30285 -84.007827 -190.80837 -83.43072 -192.21621 z M -128.33702 -120.07436 C -123.80216 -119.84761 -120.11772 -118.85557 -117.28343 -117.09831 L -137.51992 -83.767013 L -124.5109 -83.767013 L -123.66031 -97.626632 C -121.84636 -97.626632 -120.54252 -97.995076 -119.74892 -98.731991 C -118.89863 -99.468905 -118.24697 -100.71611 -117.79348 -102.47336 L -112.94675 -102.47336 L -113.03201 -83.341716 C -110.87796 -82.718173 -108.15698 -82.066508 -104.8692 -81.38628 L -105.29398 -77.304875 L -113.45679 -77.304875 L -113.45679 -62.084615 L -124.5109 -62.084615 L -124.5109 -77.304875 L -149.08408 -77.304875 L -149.76414 -80.36567 L -128.33702 -120.07436 z M -57.508271 -120.07436 C -52.973412 -119.84761 -49.288452 -118.85557 -46.454165 -117.09831 L -66.691173 -83.767013 L -53.681631 -83.767013 L -52.831554 -97.626632 C -51.01761 -97.626632 -49.713765 -97.995076 -48.920165 -98.731991 C -48.069879 -99.468905 -47.418214 -100.71611 -46.964728 -102.47336 L -42.117996 -102.47336 L -42.202745 -83.341716 C -40.048687 -82.718173 -37.328225 -82.066508 -34.040453 -81.38628 L -34.465233 -77.304875 L -42.628042 -77.304875 L -42.628042 -62.084615 L -53.681631 -62.084615 L -53.681631 -77.304875 L -78.255325 -77.304875 L -78.935387 -80.36567 L -57.508271 -120.07436 z M -11.422712 -119.73381 C -7.7381391 -119.73381 -4.4787841 -119.11073 -1.6444974 -117.86364 C 1.1897894 -116.67324 3.4004554 -114.97237 4.9876559 -112.76163 C 6.5748565 -110.60757 7.3683892 -108.11368 7.3683892 -105.27939 C 7.3683892 -102.10499 6.4335049 -99.384015 4.5628757 -97.116586 C 2.6922464 -94.849156 -0.085376257 -93.120223 -3.769949 -91.929822 C 0.87828124 -90.909479 4.1376362 -89.237189 6.0082655 -86.913074 C 7.8788947 -84.588959 8.8142958 -81.442892 8.8142958 -77.474891 C 8.8142958 -74.017061 7.7656068 -71.069506 5.6682346 -68.632019 C 3.6275481 -66.194533 0.96321341 -64.380375 -2.3245592 -63.189974 C -5.6123319 -61.999574 -9.0135552 -61.404554 -12.528071 -61.404554 C -17.629787 -61.404554 -21.966411 -62.453243 -25.537613 -64.550615 C -29.052128 -66.647987 -30.809125 -69.510317 -30.809125 -73.138204 C -30.809125 -75.235577 -30.185525 -76.851222 -28.938439 -77.984937 C -27.691352 -79.175337 -26.132868 -79.770358 -24.262238 -79.770358 C -22.334923 -79.770358 -20.378897 -79.005405 -18.394896 -77.474891 C -18.905068 -76.397862 -19.160224 -75.094016 -19.160224 -73.563501 C -19.160224 -71.749558 -18.621848 -70.275781 -17.544819 -69.142066 C -16.411104 -68.008351 -14.738814 -67.441394 -12.528071 -67.441394 C -7.6530976 -67.441394 -5.2153388 -70.814037 -5.2153388 -77.55964 C -5.2153388 -81.244213 -6.4058962 -84.10706 -8.7866971 -86.147746 C -11.110812 -88.188433 -14.426811 -89.208541 -18.734927 -89.208541 L -18.734927 -94.480571 C -10.402124 -95.1608 -6.2359484 -98.760535 -6.2359484 -105.27939 C -6.2359484 -108.56717 -6.7462611 -110.97583 -7.7666043 -112.50634 C -8.7869475 -114.09354 -10.1755 -114.88759 -11.932758 -114.88759 C -14.03013 -114.88759 -15.617196 -114.15071 -16.694225 -112.67688 C -17.714568 -111.20305 -18.224881 -109.41747 -18.224881 -107.3201 C -18.224881 -105.44947 -17.828373 -103.77718 -17.034772 -102.30335 C -18.621973 -100.60278 -20.662707 -99.752084 -23.156879 -99.752084 C -25.424309 -99.752084 -27.181306 -100.43233 -28.428392 -101.79279 C -29.675478 -103.15324 -30.299079 -104.91076 -30.299079 -107.06482 C -30.299079 -109.8991 -29.335614 -112.25164 -27.408299 -114.12227 C -25.424299 -116.04958 -22.98654 -117.46671 -20.095568 -118.37369 C -17.147909 -119.28066 -14.256999 -119.73381 -11.422712 -119.73381 z M -90.158991 -101.28274 C -88.17499 -101.28274 -86.701213 -100.68772 -85.737556 -99.497319 C -84.717212 -98.363604 -84.207416 -96.776539 -84.207416 -94.735852 C -84.207416 -92.695166 -84.717212 -91.107584 -85.737556 -89.973869 C -86.701213 -88.840154 -88.17499 -88.273198 -90.158991 -88.273198 C -92.142992 -88.273198 -93.64535 -88.840154 -94.665693 -89.973869 C -95.62935 -91.16427 -96.111083 -92.751852 -96.111083 -94.735852 C -96.111083 -96.833225 -95.62935 -98.448354 -94.665693 -99.582068 C -93.64535 -100.71578 -92.142992 -101.28274 -90.158991 -101.28274 z M -90.158991 -74.498845 C -88.17499 -74.498845 -86.701213 -73.903824 -85.737556 -72.713424 C -84.717212 -71.579709 -84.207416 -69.992127 -84.207416 -67.951441 C -84.207416 -65.910754 -84.717212 -64.323689 -85.737556 -63.189974 C -86.701213 -62.05626 -88.17499 -61.489303 -90.158991 -61.489303 C -92.142992 -61.489303 -93.64535 -62.05626 -94.665693 -63.189974 C -95.62935 -64.380375 -96.111083 -65.96744 -96.111083 -67.951441 C -96.111083 -70.048813 -95.62935 -71.664459 -94.665693 -72.798173 C -93.64535 -73.931888 -92.142992 -74.498845 -90.158991 -74.498845 z " /></g></svg>
