<?xml version="1.0" encoding="UTF-8" standalone="no"?>
<!-- Created with Inkscape (http://www.inkscape.org/) -->

<svg
   width="172.6701mm"
   height="172.6701mm"
   viewBox="0 0 172.6701 172.6701"
   version="1.1"
   id="svg1"
   xml:space="preserve"
   xmlns="http://www.w3.org/2000/svg"
   xmlns:svg="http://www.w3.org/2000/svg"><defs
     id="defs1" /><g
     id="layer1"
     transform="translate(157.25102,198.81012)"><path
       id="path5"
       style="fill:#ffffff;fill-opacity:1;stroke-width:0.805188;stroke-linecap:round;stroke-linejoin:round"
       d="M -2.0863309 -198.17657 L -10.088943 -183.11289 L -10.930235 -165.68398 L -19.198981 -165.68398 L -11.423229 -155.47426 L -12.166336 -140.07934 C -28.353216 -157.12094 -50.823548 -166.77435 -74.327399 -166.78417 C -103.64471 -166.77397 -130.92652 -151.79225 -146.66717 -127.05894 L -157.25102 -127.05894 L -149.61996 -115.86014 L -157.25102 -26.140039 L -8.5138455 -26.140039 L 15.419061 -26.140039 L 8.0799737 -154.80195 L 15.419061 -165.68398 L 7.4593397 -165.68398 L 6.4490654 -183.39297 L -2.0863309 -198.17657 z M -83.43072 -192.21621 C -85.584619 -189.65499 -86.77489 -186.4211 -86.795372 -183.07465 C -86.842092 -175.15518 -80.459903 -168.69733 -72.540428 -168.65072 C -64.621155 -168.60402 -58.163395 -174.98588 -58.116503 -182.90515 C -58.102813 -186.26049 -59.266203 -189.5144 -61.404157 -192.10045 C -60.83125 -190.6836 -60.536835 -189.16959 -60.537027 -187.64129 C -60.575787 -181.07411 -65.930869 -175.78172 -72.498054 -175.82031 C -79.065241 -175.85911 -84.357627 -181.21415 -84.319038 -187.78134 C -84.309338 -189.30285 -84.007827 -190.80837 -83.43072 -192.21621 z M -128.84707 -120.07436 C -124.31221 -119.84761 -120.62777 -118.85557 -117.79348 -117.09831 L -138.03049 -83.767013 L -125.02095 -83.767013 L -124.17087 -97.626632 C -122.35693 -97.626632 -121.05308 -97.995076 -120.25948 -98.731991 C -119.40919 -99.468905 -118.75701 -100.71611 -118.30353 -102.47336 L -113.45679 -102.47336 L -113.54206 -83.341716 C -111.388 -82.718173 -108.66702 -82.066508 -105.37925 -81.38628 L -105.80455 -77.304875 L -113.96736 -77.304875 L -113.96736 -62.084615 L -125.02095 -62.084615 L -125.02095 -77.304875 L -149.59412 -77.304875 L -150.27418 -80.36567 L -128.84707 -120.07436 z M -58.018317 -120.07436 C -53.483459 -119.84761 -49.799015 -118.85557 -46.964728 -117.09831 L -67.201219 -83.767013 L -54.192194 -83.767013 L -53.3416 -97.626632 C -51.527657 -97.626632 -50.223811 -97.995076 -49.430211 -98.731991 C -48.579925 -99.468905 -47.928261 -100.71611 -47.474775 -102.47336 L -42.628042 -102.47336 L -42.713308 -83.341716 C -40.55925 -82.718173 -37.838272 -82.066508 -34.550499 -81.38628 L -34.975796 -77.304875 L -43.138605 -77.304875 L -43.138605 -62.084615 L -54.192194 -62.084615 L -54.192194 -77.304875 L -78.765371 -77.304875 L -79.445433 -80.36567 L -58.018317 -120.07436 z M -23.326895 -119.05375 L -19.075475 -118.969 C -13.066787 -118.85563 -9.8921395 -118.79847 -9.552025 -118.79847 L 2.5221734 -118.969 L 4.9876559 -117.18306 L 4.222328 -110.72092 L -16.864757 -110.72092 L -18.054865 -96.521273 C -15.107207 -97.258188 -12.442872 -97.626632 -10.062071 -97.626632 C -4.4501837 -97.626632 0.11301667 -96.124274 3.6275322 -93.11993 C 7.1987336 -90.172272 8.9843112 -85.836165 8.9843112 -80.110905 C 8.9843112 -76.539704 8.1336178 -73.336993 6.4330458 -70.502706 C 4.7891594 -67.66842 2.4085615 -65.429173 -0.70915395 -63.785287 C -3.8268694 -62.198086 -7.5113127 -61.404554 -11.762743 -61.404554 C -15.220573 -61.404554 -18.36664 -61.886286 -21.200926 -62.849943 C -23.978527 -63.813601 -26.16113 -65.14551 -27.74833 -66.846082 C -29.335531 -68.60334 -30.129064 -70.559366 -30.129064 -72.713424 C -30.129064 -74.980853 -29.505463 -76.709787 -28.258377 -77.900188 C -27.011291 -79.147274 -25.480869 -79.770358 -23.666926 -79.770358 C -22.646583 -79.770358 -21.625957 -79.572362 -20.605614 -79.175562 C -19.528585 -78.778762 -18.56512 -78.211805 -17.714834 -77.474891 C -18.225006 -76.28449 -18.480162 -75.037289 -18.480162 -73.733517 C -18.480162 -71.862888 -17.941786 -70.332466 -16.864757 -69.142066 C -15.731042 -67.951665 -14.030172 -67.356645 -11.762743 -67.356645 C -6.6610267 -67.356645 -4.1104967 -71.608045 -4.1104967 -80.110905 C -4.1104967 -84.135593 -4.9040294 -87.054567 -6.49123 -88.86851 C -8.0784305 -90.73914 -10.203872 -91.674541 -12.868102 -91.674541 C -14.511988 -91.674541 -16.269502 -91.36274 -18.140131 -90.739197 C -20.010761 -90.115654 -21.852982 -89.236897 -23.666926 -88.103182 L -28.343643 -92.609884 L -26.132925 -116.75776 L -23.326895 -119.05375 z M -90.669554 -101.28274 C -88.685554 -101.28274 -87.211776 -100.68772 -86.248119 -99.497319 C -85.227776 -98.363604 -84.717463 -96.776539 -84.717463 -94.735852 C -84.717463 -92.695166 -85.227776 -91.107584 -86.248119 -89.973869 C -87.211776 -88.840154 -88.685554 -88.273198 -90.669554 -88.273198 C -92.653555 -88.273198 -94.155396 -88.840154 -95.175739 -89.973869 C -96.139397 -91.16427 -96.621646 -92.751852 -96.621646 -94.735852 C -96.621646 -96.833225 -96.139397 -98.448354 -95.175739 -99.582068 C -94.155396 -100.71578 -92.653555 -101.28274 -90.669554 -101.28274 z M -90.669554 -74.498845 C -88.685554 -74.498845 -87.211776 -73.903824 -86.248119 -72.713424 C -85.227776 -71.579709 -84.717463 -69.992127 -84.717463 -67.951441 C -84.717463 -65.910754 -85.227776 -64.323689 -86.248119 -63.189974 C -87.211776 -62.05626 -88.685554 -61.489303 -90.669554 -61.489303 C -92.653555 -61.489303 -94.155396 -62.05626 -95.175739 -63.189974 C -96.139397 -64.380375 -96.621646 -65.96744 -96.621646 -67.951441 C -96.621646 -70.048813 -96.139397 -71.664459 -95.175739 -72.798173 C -94.155396 -73.931888 -92.653555 -74.498845 -90.669554 -74.498845 z " /></g></svg>
