<?xml version="1.0" encoding="UTF-8" standalone="no"?>
<!-- Created with Inkscape (http://www.inkscape.org/) -->

<svg
   width="172.6701mm"
   height="172.6701mm"
   viewBox="0 0 172.6701 172.6701"
   version="1.1"
   id="svg1"
   xml:space="preserve"
   xmlns="http://www.w3.org/2000/svg"
   xmlns:svg="http://www.w3.org/2000/svg"><defs
     id="defs1" /><g
     id="layer1"
     transform="translate(157.25102,198.81012)"><path
       id="path5"
       style="fill:#ffffff;fill-opacity:1;stroke-width:0.805188;stroke-linecap:round;stroke-linejoin:round"
       d="M -2.0863309 -198.17657 L -10.088943 -183.11289 L -10.930235 -165.68398 L -19.198981 -165.68398 L -11.423229 -155.47426 L -12.166336 -140.07934 C -28.353216 -157.12094 -50.823548 -166.77435 -74.327399 -166.78417 C -103.64471 -166.77397 -130.92652 -151.79225 -146.66717 -127.05894 L -157.25102 -127.05894 L -149.61996 -115.86014 L -157.25102 -26.140039 L -8.5138455 -26.140039 L 15.419061 -26.140039 L 8.0799737 -154.80195 L 15.419061 -165.68398 L 7.4593397 -165.68398 L 6.4490654 -183.39297 L -2.0863309 -198.17657 z M -83.43072 -192.21621 C -85.584619 -189.65499 -86.77489 -186.4211 -86.795372 -183.07465 C -86.842092 -175.15518 -80.459903 -168.69733 -72.540428 -168.65072 C -64.621155 -168.60402 -58.163395 -174.98588 -58.116503 -182.90515 C -58.102813 -186.26049 -59.266203 -189.5144 -61.404157 -192.10045 C -60.83125 -190.6836 -60.536835 -189.16959 -60.537027 -187.64129 C -60.575787 -181.07411 -65.930869 -175.78172 -72.498054 -175.82031 C -79.065241 -175.85911 -84.357627 -181.21415 -84.319038 -187.78134 C -84.309338 -189.30285 -84.007827 -190.80837 -83.43072 -192.21621 z M -129.6124 -120.07436 C -125.07754 -119.84761 -121.39309 -118.85557 -118.55881 -117.09831 L -138.7953 -83.767013 L -125.78627 -83.767013 L -124.93568 -97.626632 C -123.12174 -97.626632 -121.81841 -97.995076 -121.02481 -98.731991 C -120.17452 -99.468905 -119.52234 -100.71611 -119.06885 -102.47336 L -114.22212 -102.47336 L -114.30739 -83.341716 C -112.15333 -82.718173 -109.43235 -82.066508 -106.14458 -81.38628 L -106.56988 -77.304875 L -114.73269 -77.304875 L -114.73269 -62.084615 L -125.78627 -62.084615 L -125.78627 -77.304875 L -150.35945 -77.304875 L -151.03951 -80.36567 L -129.6124 -120.07436 z M -58.783645 -120.07436 C -54.248787 -119.84761 -50.564343 -118.85557 -47.730056 -117.09831 L -67.966547 -83.767013 L -54.957522 -83.767013 L -54.106928 -97.626632 C -52.292985 -97.626632 -50.989139 -97.995076 -50.195539 -98.731991 C -49.345253 -99.468905 -48.693589 -100.71611 -48.240103 -102.47336 L -43.39337 -102.47336 L -43.478636 -83.341716 C -41.324578 -82.718173 -38.6036 -82.066508 -35.315827 -81.38628 L -35.740607 -77.304875 L -43.903417 -77.304875 L -43.903417 -62.084615 L -54.957522 -62.084615 L -54.957522 -77.304875 L -79.530699 -77.304875 L -80.210761 -80.36567 L -58.783645 -120.07436 z M 1.1615329 -119.90383 L 3.2022352 -115.65241 C -8.2482833 -110.72075 -15.135438 -103.12528 -17.459553 -92.865166 C -14.17178 -94.452366 -11.054293 -95.245899 -8.1066352 -95.245899 C -2.4380617 -95.245899 2.0118506 -93.715477 5.2429375 -90.654448 C 8.5307102 -87.593418 10.174419 -83.455306 10.174419 -78.240218 C 10.174419 -75.009132 9.2961792 -72.118221 7.5389214 -69.567363 C 5.8383494 -67.016505 3.429171 -65.032415 0.31145559 -63.615271 C -2.7495741 -62.198128 -6.2640854 -61.489303 -10.232087 -61.489303 C -16.977689 -61.489303 -22.16449 -63.360105 -25.792377 -67.101363 C -29.363579 -70.842622 -31.149156 -76.255999 -31.149156 -83.341716 C -31.149156 -92.241376 -28.400114 -99.808775 -22.901598 -106.04421 C -17.346396 -112.33632 -9.3253281 -116.95617 1.1615329 -119.90383 z M -91.434882 -101.28274 C -89.450882 -101.28274 -87.976587 -100.68772 -87.01293 -99.497319 C -85.992587 -98.363604 -85.482791 -96.776539 -85.482791 -94.735852 C -85.482791 -92.695166 -85.992587 -91.107584 -87.01293 -89.973869 C -87.976587 -88.840154 -89.450882 -88.273198 -91.434882 -88.273198 C -93.418883 -88.273198 -94.920724 -88.840154 -95.941067 -89.973869 C -96.904725 -91.16427 -97.386457 -92.751852 -97.386457 -94.735852 C -97.386457 -96.833225 -96.904725 -98.448354 -95.941067 -99.582068 C -94.920724 -100.71578 -93.418883 -101.28274 -91.434882 -101.28274 z M -10.487368 -89.293807 C -12.868169 -89.293807 -15.44728 -88.330343 -18.224881 -86.403028 L -18.224881 -85.297669 C -18.224881 -79.118924 -17.544636 -74.583787 -16.184178 -71.692814 C -14.823721 -68.801842 -12.669699 -67.356645 -9.7220405 -67.356645 C -7.2845539 -67.356645 -5.4142686 -68.291529 -4.1104967 -70.162159 C -2.8067248 -72.032788 -2.1545438 -74.697123 -2.1545438 -78.154952 C -2.1545438 -81.669468 -2.8914324 -84.390447 -4.3652615 -86.317762 C -5.7824049 -88.301762 -7.8231389 -89.293807 -10.487368 -89.293807 z M -91.434882 -74.498845 C -89.450882 -74.498845 -87.976587 -73.903824 -87.01293 -72.713424 C -85.992587 -71.579709 -85.482791 -69.992127 -85.482791 -67.951441 C -85.482791 -65.910754 -85.992587 -64.323689 -87.01293 -63.189974 C -87.976587 -62.05626 -89.450882 -61.489303 -91.434882 -61.489303 C -93.418883 -61.489303 -94.920724 -62.05626 -95.941067 -63.189974 C -96.904725 -64.380375 -97.386457 -65.96744 -97.386457 -67.951441 C -97.386457 -70.048813 -96.904725 -71.664459 -95.941067 -72.798173 C -94.920724 -73.931888 -93.418883 -74.498845 -91.434882 -74.498845 z " /></g></svg>
