<?xml version="1.0" encoding="UTF-8" standalone="no"?>
<!-- Created with Inkscape (http://www.inkscape.org/) -->

<svg
   width="172.6701mm"
   height="172.6701mm"
   viewBox="0 0 172.6701 172.6701"
   version="1.1"
   id="svg1"
   xml:space="preserve"
   xmlns="http://www.w3.org/2000/svg"
   xmlns:svg="http://www.w3.org/2000/svg"><defs
     id="defs1" /><g
     id="layer1"
     transform="translate(157.25102,198.81012)"><path
       id="path5"
       style="fill:#ffffff;fill-opacity:1;stroke-width:0.805188;stroke-linecap:round;stroke-linejoin:round"
       d="M -2.0863309 -198.17657 L -10.088943 -183.11289 L -10.930235 -165.68398 L -19.198981 -165.68398 L -11.423229 -155.47426 L -12.166336 -140.07934 C -28.353216 -157.12094 -50.823548 -166.77435 -74.327399 -166.78417 C -103.64471 -166.77397 -130.92652 -151.79225 -146.66717 -127.05894 L -157.25102 -127.05894 L -149.61996 -115.86014 L -157.25102 -26.140039 L -8.5138455 -26.140039 L 15.419061 -26.140039 L 8.0799737 -154.80195 L 15.419061 -165.68398 L 7.4593397 -165.68398 L 6.4490654 -183.39297 L -2.0863309 -198.17657 z M -83.43072 -192.21621 C -85.584619 -189.65499 -86.77489 -186.4211 -86.795372 -183.07465 C -86.842092 -175.15518 -80.459903 -168.69733 -72.540428 -168.65072 C -64.621155 -168.60402 -58.163395 -174.98588 -58.116503 -182.90515 C -58.102813 -186.26049 -59.266203 -189.5144 -61.404157 -192.10045 C -60.83125 -190.6836 -60.536835 -189.16959 -60.537027 -187.64129 C -60.575787 -181.07411 -65.930869 -175.78172 -72.498054 -175.82031 C -79.065241 -175.85911 -84.357627 -181.21415 -84.319038 -187.78134 C -84.309338 -189.30285 -84.007827 -190.80837 -83.43072 -192.21621 z M -129.44238 -120.07436 C -124.90752 -119.84761 -121.22308 -118.85557 -118.38879 -117.09831 L -138.62528 -83.767013 L -125.61626 -83.767013 L -124.76566 -97.626632 C -122.95172 -97.626632 -121.64788 -97.995076 -120.85428 -98.731991 C -120.00399 -99.468905 -119.35232 -100.71611 -118.89884 -102.47336 L -114.05211 -102.47336 L -114.13737 -83.341716 C -111.98331 -82.718173 -109.26234 -82.066508 -105.97456 -81.38628 L -106.39986 -77.304875 L -114.56215 -77.304875 L -114.56215 -62.084615 L -125.61626 -62.084615 L -125.61626 -77.304875 L -150.18944 -77.304875 L -150.8695 -80.36567 L -129.44238 -120.07436 z M -58.61363 -120.07436 C -54.078771 -119.84761 -50.394328 -118.85557 -47.560041 -117.09831 L -67.796532 -83.767013 L -54.787507 -83.767013 L -53.936913 -97.626632 C -52.122969 -97.626632 -50.819124 -97.995076 -50.025524 -98.731991 C -49.175238 -99.468905 -48.523573 -100.71611 -48.070087 -102.47336 L -43.223355 -102.47336 L -43.308621 -83.341716 C -41.154563 -82.718173 -38.433584 -82.066508 -35.145812 -81.38628 L -35.570592 -77.304875 L -43.733401 -77.304875 L -43.733401 -62.084615 L -54.787507 -62.084615 L -54.787507 -77.304875 L -79.360684 -77.304875 L -80.040746 -80.36567 L -58.61363 -120.07436 z M -10.827399 -119.56379 C -4.0817969 -119.56379 1.0764237 -117.69351 4.647625 -113.95225 C 8.2755121 -110.21099 10.08967 -104.7971 10.08967 -97.711381 C 10.08967 -88.811721 7.3120474 -81.216258 1.7568454 -74.924142 C -3.7416709 -68.688711 -11.734675 -64.09693 -22.221536 -61.149272 L -24.262238 -65.400692 C -18.593665 -67.838179 -14.030464 -70.956182 -10.572635 -74.754126 C -7.1148047 -78.608756 -4.8189144 -83.086732 -3.6851997 -88.188448 C -6.8596009 -86.601248 -9.9490239 -85.807715 -12.953368 -85.807715 C -18.621941 -85.807715 -23.099917 -87.338137 -26.38769 -90.399166 C -29.618777 -93.460196 -31.234423 -97.598308 -31.234423 -102.8134 C -31.234423 -106.04448 -30.384246 -108.93539 -28.683674 -111.48625 C -26.926416 -114.03711 -24.517238 -116.0212 -21.456208 -117.43834 C -18.338493 -118.85549 -14.795401 -119.56379 -10.827399 -119.56379 z M -11.337446 -113.69697 C -13.774932 -113.69697 -15.645734 -112.76157 -16.949506 -110.89094 C -18.253278 -109.02031 -18.905459 -106.35597 -18.905459 -102.89814 C -18.905459 -99.383629 -18.196634 -96.634587 -16.779491 -94.650586 C -15.305662 -92.723271 -13.236864 -91.759807 -10.572635 -91.759807 C -8.2485194 -91.759807 -5.6688924 -92.723271 -2.8346056 -94.650586 L -2.8346056 -95.755945 C -2.8346056 -101.93469 -3.5148503 -106.46931 -4.8753079 -109.36028 C -6.2357656 -112.25126 -8.3897876 -113.69697 -11.337446 -113.69697 z M -91.26435 -101.28274 C -89.280349 -101.28274 -87.806572 -100.68772 -86.842915 -99.497319 C -85.822571 -98.363604 -85.312775 -96.776539 -85.312775 -94.735852 C -85.312775 -92.695166 -85.822571 -91.107584 -86.842915 -89.973869 C -87.806572 -88.840154 -89.280349 -88.273198 -91.26435 -88.273198 C -93.248351 -88.273198 -94.750709 -88.840154 -95.771052 -89.973869 C -96.734709 -91.16427 -97.216442 -92.751852 -97.216442 -94.735852 C -97.216442 -96.833225 -96.734709 -98.448354 -95.771052 -99.582068 C -94.750709 -100.71578 -93.248351 -101.28274 -91.26435 -101.28274 z M -91.26435 -74.498845 C -89.280349 -74.498845 -87.806572 -73.903824 -86.842915 -72.713424 C -85.822571 -71.579709 -85.312775 -69.992127 -85.312775 -67.951441 C -85.312775 -65.910754 -85.822571 -64.323689 -86.842915 -63.189974 C -87.806572 -62.05626 -89.280349 -61.489303 -91.26435 -61.489303 C -93.248351 -61.489303 -94.750709 -62.05626 -95.771052 -63.189974 C -96.734709 -64.380375 -97.216442 -65.96744 -97.216442 -67.951441 C -97.216442 -70.048813 -96.734709 -71.664459 -95.771052 -72.798173 C -94.750709 -73.931888 -93.248351 -74.498845 -91.26435 -74.498845 z " /></g></svg>
