<?xml version="1.0" encoding="UTF-8" standalone="no"?>
<!-- Created with Inkscape (http://www.inkscape.org/) -->

<svg
   width="172.6701mm"
   height="172.6701mm"
   viewBox="0 0 172.6701 172.6701"
   version="1.1"
   id="svg1"
   xml:space="preserve"
   xmlns="http://www.w3.org/2000/svg"
   xmlns:svg="http://www.w3.org/2000/svg"><defs
     id="defs1" /><g
     id="layer1"
     transform="translate(157.25102,198.81012)"><path
       id="path5"
       style="fill:#ffffff;fill-opacity:1;stroke-width:0.805188;stroke-linecap:round;stroke-linejoin:round"
       d="M -2.0863309 -198.17657 L -10.088943 -183.11289 L -10.930235 -165.68398 L -19.198981 -165.68398 L -11.423229 -155.47426 L -12.166336 -140.07934 C -28.353216 -157.12094 -50.823548 -166.77435 -74.327399 -166.78417 C -103.64471 -166.77397 -130.92652 -151.79225 -146.66717 -127.05894 L -157.25102 -127.05894 L -149.61996 -115.86014 L -157.25102 -26.140039 L -8.5138455 -26.140039 L 15.419061 -26.140039 L 8.0799737 -154.80195 L 15.419061 -165.68398 L 7.4593397 -165.68398 L 6.4490654 -183.39297 L -2.0863309 -198.17657 z M -83.43072 -192.21621 C -85.584619 -189.65499 -86.77489 -186.4211 -86.795372 -183.07465 C -86.842092 -175.15518 -80.459903 -168.69733 -72.540428 -168.65072 C -64.621155 -168.60402 -58.163395 -174.98588 -58.116503 -182.90515 C -58.102813 -186.26049 -59.266203 -189.5144 -61.404157 -192.10045 C -60.83125 -190.6836 -60.536835 -189.16959 -60.537027 -187.64129 C -60.575787 -181.07411 -65.930869 -175.78172 -72.498054 -175.82031 C -79.065241 -175.85911 -84.357627 -181.21415 -84.319038 -187.78134 C -84.309338 -189.30285 -84.007827 -190.80837 -83.43072 -192.21621 z M -127.99699 -120.07436 C -123.46213 -119.84761 -119.77769 -118.85557 -116.9434 -117.09831 L -137.17989 -83.767013 L -124.17087 -83.767013 L -123.32027 -97.626632 C -121.50633 -97.626632 -120.20249 -97.995076 -119.40889 -98.731991 C -118.5586 -99.468905 -117.90694 -100.71611 -117.45345 -102.47336 L -112.60672 -102.47336 L -112.69198 -83.341716 C -110.53792 -82.718173 -107.81695 -82.066508 -104.52917 -81.38628 L -104.95447 -77.304875 L -113.11676 -77.304875 L -113.11676 -62.084615 L -124.17087 -62.084615 L -124.17087 -77.304875 L -148.74405 -77.304875 L -149.42411 -80.36567 L -127.99699 -120.07436 z M -11.762743 -119.64906 C -5.1305118 -119.64906 -0.05699879 -117.15466 3.4575168 -112.16631 C 7.0287181 -107.23465 8.8142958 -100.06428 8.8142958 -90.654448 C 8.8142958 -81.244616 7.0287181 -74.017081 3.4575168 -68.97205 C -0.05699879 -63.983706 -5.1305118 -61.489303 -11.762743 -61.489303 C -18.394974 -61.489303 -23.49655 -63.983706 -27.067752 -68.97205 C -30.638953 -74.017081 -32.424531 -81.244616 -32.424531 -90.654448 C -32.424531 -100.00759 -30.638953 -107.17797 -27.067752 -112.16631 C -23.49655 -117.15466 -18.394974 -119.64906 -11.762743 -119.64906 z M -69.497203 -119.05375 L -65.245783 -118.969 C -59.237095 -118.85563 -56.062965 -118.79847 -55.72285 -118.79847 L -43.648652 -118.969 L -41.182652 -117.18306 L -41.94798 -110.72092 L -63.035065 -110.72092 L -64.22569 -96.521273 C -61.278032 -97.258188 -58.613698 -97.626632 -56.232897 -97.626632 C -50.621009 -97.626632 -46.057809 -96.124274 -42.543293 -93.11993 C -38.972092 -90.172272 -37.186514 -85.836165 -37.186514 -80.110905 C -37.186514 -76.539704 -38.036691 -73.336993 -39.737263 -70.502706 C -41.381149 -67.66842 -43.761747 -65.429173 -46.879462 -63.785287 C -49.997178 -62.198086 -53.682138 -61.404554 -57.933568 -61.404554 C -61.391398 -61.404554 -64.537465 -61.886286 -67.371752 -62.849943 C -70.149353 -63.813601 -72.331438 -65.14551 -73.918639 -66.846082 C -75.505839 -68.60334 -76.299372 -70.559366 -76.299372 -72.713424 C -76.299372 -74.980853 -75.675771 -76.709787 -74.428685 -77.900188 C -73.181599 -79.147274 -71.651178 -79.770358 -69.837234 -79.770358 C -68.816891 -79.770358 -67.796782 -79.572362 -66.776439 -79.175562 C -65.69941 -78.778762 -64.735429 -78.211805 -63.885143 -77.474891 C -64.395314 -76.28449 -64.650471 -75.037289 -64.650471 -73.733517 C -64.650471 -71.862888 -64.112094 -70.332466 -63.035065 -69.142066 C -61.901351 -67.951665 -60.200997 -67.356645 -57.933568 -67.356645 C -52.831852 -67.356645 -50.280805 -71.608045 -50.280805 -80.110905 C -50.280805 -84.135593 -51.074338 -87.054567 -52.661538 -88.86851 C -54.248739 -90.73914 -56.374697 -91.674541 -59.038927 -91.674541 C -60.682813 -91.674541 -62.439811 -91.36274 -64.31044 -90.739197 C -66.181069 -90.115654 -68.023291 -89.236897 -69.837234 -88.103182 L -74.513951 -92.609884 L -72.303234 -116.75776 L -69.497203 -119.05375 z M -11.762743 -115.31237 C -14.653715 -115.31237 -16.751093 -113.41351 -18.054865 -109.61556 C -19.301951 -105.81762 -19.925552 -99.497422 -19.925552 -90.654448 C -19.925552 -81.868159 -19.301951 -75.576025 -18.054865 -71.778081 C -16.751093 -68.036822 -14.653715 -66.16602 -11.762743 -66.16602 C -8.8717703 -66.16602 -6.8029727 -68.036822 -5.5558865 -71.778081 C -4.2521146 -75.576025 -3.5999336 -81.868159 -3.5999336 -90.654448 C -3.5999336 -99.440737 -4.2521146 -105.73287 -5.5558865 -109.53081 C -6.8029727 -113.38544 -8.8717703 -115.31237 -11.762743 -115.31237 z M -89.81896 -101.28274 C -87.83496 -101.28274 -86.361182 -100.68772 -85.397525 -99.497319 C -84.377181 -98.363604 -83.867386 -96.776539 -83.867386 -94.735852 C -83.867386 -92.695166 -84.377181 -91.107584 -85.397525 -89.973869 C -86.361182 -88.840154 -87.83496 -88.273198 -89.81896 -88.273198 C -91.802961 -88.273198 -93.305319 -88.840154 -94.325662 -89.973869 C -95.289319 -91.16427 -95.771052 -92.751852 -95.771052 -94.735852 C -95.771052 -96.833225 -95.289319 -98.448354 -94.325662 -99.582068 C -93.305319 -100.71578 -91.802961 -101.28274 -89.81896 -101.28274 z M -89.81896 -74.498845 C -87.83496 -74.498845 -86.361182 -73.903824 -85.397525 -72.713424 C -84.377181 -71.579709 -83.867386 -69.992127 -83.867386 -67.951441 C -83.867386 -65.910754 -84.377181 -64.323689 -85.397525 -63.189974 C -86.361182 -62.05626 -87.83496 -61.489303 -89.81896 -61.489303 C -91.802961 -61.489303 -93.305319 -62.05626 -94.325662 -63.189974 C -95.289319 -64.380375 -95.771052 -65.96744 -95.771052 -67.951441 C -95.771052 -70.048813 -95.289319 -71.664459 -94.325662 -72.798173 C -93.305319 -73.931888 -91.802961 -74.498845 -89.81896 -74.498845 z " /></g></svg>
