<?xml version="1.0" encoding="UTF-8" standalone="no"?>
<!-- Created with Inkscape (http://www.inkscape.org/) -->

<svg
   width="172.6701mm"
   height="172.6701mm"
   viewBox="0 0 172.6701 172.6701"
   version="1.1"
   id="svg1"
   xml:space="preserve"
   xmlns="http://www.w3.org/2000/svg"
   xmlns:svg="http://www.w3.org/2000/svg"><defs
     id="defs1" /><g
     id="layer1"
     transform="translate(157.25102,198.81012)"><path
       id="path5"
       style="fill:#ffffff;fill-opacity:1;stroke-width:0.805188;stroke-linecap:round;stroke-linejoin:round"
       d="M -2.0863309 -198.17657 L -10.088943 -183.11289 L -10.930235 -165.68398 L -19.198981 -165.68398 L -11.423229 -155.47426 L -12.166336 -140.07934 C -28.353216 -157.12094 -50.823548 -166.77435 -74.327399 -166.78417 C -103.64471 -166.77397 -130.92652 -151.79225 -146.66717 -127.05894 L -157.25102 -127.05894 L -149.61996 -115.86014 L -157.25102 -26.140039 L -8.5138455 -26.140039 L 15.419061 -26.140039 L 8.0799737 -154.80195 L 15.419061 -165.68398 L 7.4593397 -165.68398 L 6.4490654 -183.39297 L -2.0863309 -198.17657 z M -83.43072 -192.21621 C -85.584619 -189.65499 -86.77489 -186.4211 -86.795372 -183.07465 C -86.842092 -175.15518 -80.459903 -168.69733 -72.540428 -168.65072 C -64.621155 -168.60402 -58.163395 -174.98588 -58.116503 -182.90515 C -58.102813 -186.26049 -59.266203 -189.5144 -61.404157 -192.10045 C -60.83125 -190.6836 -60.536835 -189.16959 -60.537027 -187.64129 C -60.575787 -181.07411 -65.930869 -175.78172 -72.498054 -175.82031 C -79.065241 -175.85911 -84.357627 -181.21415 -84.319038 -187.78134 C -84.309338 -189.30285 -84.007827 -190.80837 -83.43072 -192.21621 z M -126.89163 -120.07436 C -122.35677 -119.84761 -118.67233 -118.85557 -115.83804 -117.09831 L -136.07453 -83.767013 L -123.06551 -83.767013 L -122.21492 -97.626632 C -120.40097 -97.626632 -119.09713 -97.995076 -118.30353 -98.731991 C -117.45324 -99.468905 -116.80158 -100.71611 -116.34809 -102.47336 L -111.50136 -102.47336 L -111.58662 -83.341716 C -109.43257 -82.718173 -106.71159 -82.066508 -103.42381 -81.38628 L -103.84859 -77.304875 L -112.0114 -77.304875 L -112.0114 -62.084615 L -123.06551 -62.084615 L -123.06551 -77.304875 L -147.63869 -77.304875 L -148.31875 -80.36567 L -126.89163 -120.07436 z M -12.442805 -119.73381 C -6.604174 -119.73381 -1.956266 -118.28861 1.5015638 -115.39764 C 4.9593937 -112.56335 6.6883273 -108.56711 6.6883273 -103.40871 C 6.6883273 -98.873849 4.9593937 -94.026912 1.5015638 -88.86851 C -1.956266 -83.766794 -7.652863 -77.616529 -15.588866 -70.41744 L 7.2836398 -70.41744 L 7.2836398 -62.084615 L -31.234423 -62.084615 L -31.234423 -67.016097 C -24.942306 -73.081471 -20.038725 -78.268272 -16.524209 -82.576388 C -13.009694 -86.884504 -10.487227 -90.852684 -8.9567125 -94.480571 C -7.369512 -98.108458 -6.5759793 -101.84955 -6.5759793 -105.70418 C -6.5759793 -111.82623 -8.6167133 -114.88759 -12.698086 -114.88759 C -14.51203 -114.88759 -15.985807 -114.0369 -17.119522 -112.33633 C -18.253236 -110.69244 -18.820193 -108.65171 -18.820193 -106.21422 C -18.820193 -104.51365 -18.225173 -102.89852 -17.034772 -101.36801 C -17.99843 -100.46103 -19.103763 -99.752209 -20.350849 -99.242037 C -21.54125 -98.731866 -22.73129 -98.476709 -23.921691 -98.476709 C -25.962377 -98.476709 -27.663247 -99.10031 -29.023705 -100.3474 C -30.384162 -101.65117 -31.064407 -103.52197 -31.064407 -105.95946 C -31.064407 -108.567 -30.298938 -110.91953 -28.768423 -113.01691 C -27.237908 -115.11428 -25.083886 -116.75799 -22.306285 -117.94839 C -19.471999 -119.13879 -16.184063 -119.73381 -12.442805 -119.73381 z M -68.391844 -119.05375 L -64.140424 -118.969 C -58.131736 -118.85563 -54.957089 -118.79847 -54.616975 -118.79847 L -42.543293 -118.969 L -40.077294 -117.18306 L -40.842622 -110.72092 L -61.929707 -110.72092 L -63.120332 -96.521273 C -60.172673 -97.258188 -57.508339 -97.626632 -55.127538 -97.626632 C -49.51565 -97.626632 -44.95245 -96.124274 -41.437934 -93.11993 C -37.866733 -90.172272 -36.081155 -85.836165 -36.081155 -80.110905 C -36.081155 -76.539704 -36.931332 -73.336993 -38.631904 -70.502706 C -40.27579 -67.66842 -42.656388 -65.429173 -45.774103 -63.785287 C -48.891819 -62.198086 -52.576779 -61.404554 -56.828209 -61.404554 C -60.286039 -61.404554 -63.432106 -61.886286 -66.266393 -62.849943 C -69.043994 -63.813601 -71.226079 -65.14551 -72.81328 -66.846082 C -74.400481 -68.60334 -75.194013 -70.559366 -75.194013 -72.713424 C -75.194013 -74.980853 -74.570412 -76.709787 -73.323326 -77.900188 C -72.07624 -79.147274 -70.545819 -79.770358 -68.731875 -79.770358 C -67.711532 -79.770358 -66.691423 -79.572362 -65.67108 -79.175562 C -64.594051 -78.778762 -63.63007 -78.211805 -62.779784 -77.474891 C -63.289955 -76.28449 -63.545112 -75.037289 -63.545112 -73.733517 C -63.545112 -71.862888 -63.006735 -70.332466 -61.929707 -69.142066 C -60.795992 -67.951665 -59.095639 -67.356645 -56.828209 -67.356645 C -51.726493 -67.356645 -49.175446 -71.608045 -49.175446 -80.110905 C -49.175446 -84.135593 -49.968979 -87.054567 -51.55618 -88.86851 C -53.14338 -90.73914 -55.269338 -91.674541 -57.933568 -91.674541 C -59.577454 -91.674541 -61.334452 -91.36274 -63.205081 -90.739197 C -65.07571 -90.115654 -66.917932 -89.236897 -68.731875 -88.103182 L -73.408592 -92.609884 L -71.197875 -116.75776 L -68.391844 -119.05375 z M -88.713601 -101.28274 C -86.729601 -101.28274 -85.255823 -100.68772 -84.292166 -99.497319 C -83.271823 -98.363604 -82.76151 -96.776539 -82.76151 -94.735852 C -82.76151 -92.695166 -83.271823 -91.107584 -84.292166 -89.973869 C -85.255823 -88.840154 -86.729601 -88.273198 -88.713601 -88.273198 C -90.697602 -88.273198 -92.19996 -88.840154 -93.220303 -89.973869 C -94.183961 -91.16427 -94.665693 -92.751852 -94.665693 -94.735852 C -94.665693 -96.833225 -94.183961 -98.448354 -93.220303 -99.582068 C -92.19996 -100.71578 -90.697602 -101.28274 -88.713601 -101.28274 z M -88.713601 -74.498845 C -86.729601 -74.498845 -85.255823 -73.903824 -84.292166 -72.713424 C -83.271823 -71.579709 -82.76151 -69.992127 -82.76151 -67.951441 C -82.76151 -65.910754 -83.271823 -64.323689 -84.292166 -63.189974 C -85.255823 -62.05626 -86.729601 -61.489303 -88.713601 -61.489303 C -90.697602 -61.489303 -92.19996 -62.05626 -93.220303 -63.189974 C -94.183961 -64.380375 -94.665693 -65.96744 -94.665693 -67.951441 C -94.665693 -70.048813 -94.183961 -71.664459 -93.220303 -72.798173 C -92.19996 -73.931888 -90.697602 -74.498845 -88.713601 -74.498845 z " /></g></svg>
