<?xml version="1.0" encoding="UTF-8" standalone="no"?>
<!-- Created with Inkscape (http://www.inkscape.org/) -->

<svg
   width="172.6701mm"
   height="172.6701mm"
   viewBox="0 0 172.6701 172.6701"
   version="1.1"
   id="svg1"
   xml:space="preserve"
   xmlns="http://www.w3.org/2000/svg"
   xmlns:svg="http://www.w3.org/2000/svg"><defs
     id="defs1" /><g
     id="layer1"
     transform="translate(157.25102,198.81012)"><path
       id="path5"
       style="fill:#ffffff;fill-opacity:1;stroke-width:0.805188;stroke-linecap:round;stroke-linejoin:round"
       d="M -2.0863309 -198.17657 L -10.088943 -183.11289 L -10.930235 -165.68398 L -19.198981 -165.68398 L -11.423229 -155.47426 L -12.166336 -140.07934 C -28.353216 -157.12094 -50.823548 -166.77435 -74.327399 -166.78417 C -103.64471 -166.77397 -130.92652 -151.79225 -146.66717 -127.05894 L -157.25102 -127.05894 L -149.61996 -115.86014 L -157.25102 -26.140039 L -8.5138455 -26.140039 L 15.419061 -26.140039 L 8.0799737 -154.80195 L 15.419061 -165.68398 L 7.4593397 -165.68398 L 6.4490654 -183.39297 L -2.0863309 -198.17657 z M -83.43072 -192.21621 C -85.584619 -189.65499 -86.77489 -186.4211 -86.795372 -183.07465 C -86.842092 -175.15518 -80.459903 -168.69733 -72.540428 -168.65072 C -64.621155 -168.60402 -58.163395 -174.98588 -58.116503 -182.90515 C -58.102813 -186.26049 -59.266203 -189.5144 -61.404157 -192.10045 C -60.83125 -190.6836 -60.536835 -189.16959 -60.537027 -187.64129 C -60.575787 -181.07411 -65.930869 -175.78172 -72.498054 -175.82031 C -79.065241 -175.85911 -84.357627 -181.21415 -84.319038 -187.78134 C -84.309338 -189.30285 -84.007827 -190.80837 -83.43072 -192.21621 z M -128.20938 -120.07436 C -123.67452 -119.84761 -119.99008 -118.85557 -117.15579 -117.09831 L -137.3928 -83.767013 L -124.38326 -83.767013 L -123.53318 -97.626632 C -121.71924 -97.626632 -120.41539 -97.995076 -119.62179 -98.731991 C -118.77151 -99.468905 -118.11933 -100.71611 -117.66584 -102.47336 L -112.81911 -102.47336 L -112.90437 -83.341716 C -110.75031 -82.718173 -108.02934 -82.066508 -104.74156 -81.38628 L -105.16686 -77.304875 L -113.32967 -77.304875 L -113.32967 -62.084615 L -124.38326 -62.084615 L -124.38326 -77.304875 L -148.95644 -77.304875 L -149.6365 -80.36567 L -128.20938 -120.07436 z M -0.24148224 -119.90383 L 1.7992201 -115.65241 C -9.6512984 -110.72075 -16.538453 -103.12528 -18.862568 -92.865166 C -15.574795 -94.452366 -12.457309 -95.245899 -9.5096504 -95.245899 C -3.8410769 -95.245899 0.60883548 -93.715477 3.8399224 -90.654448 C 7.127695 -87.593418 8.7714043 -83.455306 8.7714043 -78.240218 C 8.7714043 -75.009132 7.8931641 -72.118221 6.1359063 -69.567363 C 4.4353342 -67.016505 2.0261559 -65.032415 -1.0915596 -63.615271 C -4.1525892 -62.198128 -7.6671006 -61.489303 -11.635102 -61.489303 C -18.380705 -61.489303 -23.567506 -63.360105 -27.195393 -67.101363 C -30.766594 -70.842622 -32.552172 -76.255999 -32.552172 -83.341716 C -32.552172 -92.241376 -29.803129 -99.808775 -24.304613 -106.04421 C -18.749411 -112.33632 -10.728343 -116.95617 -0.24148224 -119.90383 z M -69.709593 -119.05375 L -65.458173 -118.969 C -59.449485 -118.85563 -56.275355 -118.79847 -55.93524 -118.79847 L -43.861042 -118.969 L -41.395043 -117.18306 L -42.160371 -110.72092 L -63.247456 -110.72092 L -64.438081 -96.521273 C -61.490422 -97.258188 -58.826088 -97.626632 -56.445287 -97.626632 C -50.833399 -97.626632 -46.270199 -96.124274 -42.755683 -93.11993 C -39.184482 -90.172272 -37.398904 -85.836165 -37.398904 -80.110905 C -37.398904 -76.539704 -38.249081 -73.336993 -39.949653 -70.502706 C -41.593539 -67.66842 -43.974654 -65.429173 -47.092369 -63.785287 C -50.210085 -62.198086 -53.894528 -61.404554 -58.145958 -61.404554 C -61.603788 -61.404554 -64.749855 -61.886286 -67.584142 -62.849943 C -70.361743 -63.813601 -72.544345 -65.14551 -74.131546 -66.846082 C -75.718746 -68.60334 -76.512279 -70.559366 -76.512279 -72.713424 C -76.512279 -74.980853 -75.888678 -76.709787 -74.641592 -77.900188 C -73.394506 -79.147274 -71.864085 -79.770358 -70.050141 -79.770358 C -69.029798 -79.770358 -68.009172 -79.572362 -66.988829 -79.175562 C -65.9118 -78.778762 -64.948336 -78.211805 -64.09805 -77.474891 C -64.608221 -76.28449 -64.863378 -75.037289 -64.863378 -73.733517 C -64.863378 -71.862888 -64.324485 -70.332466 -63.247456 -69.142066 C -62.113741 -67.951665 -60.413388 -67.356645 -58.145958 -67.356645 C -53.044242 -67.356645 -50.493195 -71.608045 -50.493195 -80.110905 C -50.493195 -84.135593 -51.286728 -87.054567 -52.873929 -88.86851 C -54.461129 -90.73914 -56.587087 -91.674541 -59.251317 -91.674541 C -60.895203 -91.674541 -62.652201 -91.36274 -64.52283 -90.739197 C -66.393459 -90.115654 -68.236198 -89.236897 -70.050141 -88.103182 L -74.726341 -92.609884 L -72.515624 -116.75776 L -69.709593 -119.05375 z M -90.031867 -101.28274 C -88.047866 -101.28274 -86.574089 -100.68772 -85.610432 -99.497319 C -84.590088 -98.363604 -84.079776 -96.776539 -84.079776 -94.735852 C -84.079776 -92.695166 -84.590088 -91.107584 -85.610432 -89.973869 C -86.574089 -88.840154 -88.047866 -88.273198 -90.031867 -88.273198 C -92.015868 -88.273198 -93.517709 -88.840154 -94.538052 -89.973869 C -95.50171 -91.16427 -95.983959 -92.751852 -95.983959 -94.735852 C -95.983959 -96.833225 -95.50171 -98.448354 -94.538052 -99.582068 C -93.517709 -100.71578 -92.015868 -101.28274 -90.031867 -101.28274 z M -11.890384 -89.293807 C -14.271184 -89.293807 -16.850295 -88.330343 -19.627896 -86.403028 L -19.627896 -85.297669 C -19.627896 -79.118924 -18.947651 -74.583787 -17.587194 -71.692814 C -16.226736 -68.801842 -14.072714 -67.356645 -11.125056 -67.356645 C -8.687569 -67.356645 -6.816767 -68.291529 -5.5129951 -70.162159 C -4.2092232 -72.032788 -3.5575589 -74.697123 -3.5575589 -78.154952 C -3.5575589 -81.669468 -4.2944476 -84.390447 -5.7682767 -86.317762 C -7.18542 -88.301762 -9.2261541 -89.293807 -11.890384 -89.293807 z M -90.031867 -74.498845 C -88.047866 -74.498845 -86.574089 -73.903824 -85.610432 -72.713424 C -84.590088 -71.579709 -84.079776 -69.992127 -84.079776 -67.951441 C -84.079776 -65.910754 -84.590088 -64.323689 -85.610432 -63.189974 C -86.574089 -62.05626 -88.047866 -61.489303 -90.031867 -61.489303 C -92.015868 -61.489303 -93.517709 -62.05626 -94.538052 -63.189974 C -95.50171 -64.380375 -95.983959 -65.96744 -95.983959 -67.951441 C -95.983959 -70.048813 -95.50171 -71.664459 -94.538052 -72.798173 C -93.517709 -73.931888 -92.015868 -74.498845 -90.031867 -74.498845 z " /></g></svg>
