<?xml version="1.0" encoding="UTF-8" standalone="no"?>
<!-- Created with Inkscape (http://www.inkscape.org/) -->

<svg
   width="172.6701mm"
   height="172.6701mm"
   viewBox="0 0 172.6701 172.6701"
   version="1.1"
   id="svg1"
   xml:space="preserve"
   xmlns="http://www.w3.org/2000/svg"
   xmlns:svg="http://www.w3.org/2000/svg"><defs
     id="defs1" /><g
     id="layer1"
     transform="translate(157.25102,198.81012)"><path
       id="path5"
       style="fill:#ffffff;fill-opacity:1;stroke-width:0.805188;stroke-linecap:round;stroke-linejoin:round"
       d="M -2.0863309 -198.17657 L -10.088943 -183.11289 L -10.930235 -165.68398 L -19.198981 -165.68398 L -11.423229 -155.47426 L -12.166336 -140.07934 C -28.353216 -157.12094 -50.823548 -166.77435 -74.327399 -166.78417 C -103.64471 -166.77397 -130.92652 -151.79225 -146.66717 -127.05894 L -157.25102 -127.05894 L -149.61996 -115.86014 L -157.25102 -26.140039 L -8.5138455 -26.140039 L 15.419061 -26.140039 L 8.0799737 -154.80195 L 15.419061 -165.68398 L 7.4593397 -165.68398 L 6.4490654 -183.39297 L -2.0863309 -198.17657 z M -83.43072 -192.21621 C -85.584619 -189.65499 -86.77489 -186.4211 -86.795372 -183.07465 C -86.842092 -175.15518 -80.459903 -168.69733 -72.540428 -168.65072 C -64.621155 -168.60402 -58.163395 -174.98588 -58.116503 -182.90515 C -58.102813 -186.26049 -59.266203 -189.5144 -61.404157 -192.10045 C -60.83125 -190.6836 -60.536835 -189.16959 -60.537027 -187.64129 C -60.575787 -181.07411 -65.930869 -175.78172 -72.498054 -175.82031 C -79.065241 -175.85911 -84.357627 -181.21415 -84.319038 -187.78134 C -84.309338 -189.30285 -84.007827 -190.80837 -83.43072 -192.21621 z M -126.33869 -120.07436 C -121.80384 -119.84761 -118.11939 -118.85557 -115.28511 -117.09831 L -135.52211 -83.767013 L -122.51257 -83.767013 L -121.66249 -97.626632 C -119.84855 -97.626632 -118.54471 -97.995076 -117.75111 -98.731991 C -116.90082 -99.468905 -116.24864 -100.71611 -115.79515 -102.47336 L -110.94842 -102.47336 L -111.03369 -83.341716 C -108.87963 -82.718173 -106.15865 -82.066508 -102.87088 -81.38628 L -103.29617 -77.304875 L -111.45898 -77.304875 L -111.45898 -62.084615 L -122.51257 -62.084615 L -122.51257 -77.304875 L -147.08575 -77.304875 L -147.76581 -80.36567 L -126.33869 -120.07436 z M -67.838907 -119.05375 L -63.587486 -118.969 C -57.578799 -118.85563 -54.404668 -118.79847 -54.064554 -118.79847 L -41.990355 -118.969 L -39.524873 -117.18306 L -40.289684 -110.72092 L -61.376769 -110.72092 L -62.567394 -96.521273 C -59.619735 -97.258188 -56.955401 -97.626632 -54.5746 -97.626632 C -48.962712 -97.626632 -44.399512 -96.124274 -40.884996 -93.11993 C -37.313795 -90.172272 -35.528217 -85.836165 -35.528217 -80.110905 C -35.528217 -76.539704 -36.378394 -73.336993 -38.078966 -70.502706 C -39.722852 -67.66842 -42.103967 -65.429173 -45.221682 -63.785287 C -48.339398 -62.198086 -52.023841 -61.404554 -56.275271 -61.404554 C -59.733101 -61.404554 -62.879168 -61.886286 -65.713455 -62.849943 C -68.491056 -63.813601 -70.673658 -65.14551 -72.260859 -66.846082 C -73.848059 -68.60334 -74.641592 -70.559366 -74.641592 -72.713424 C -74.641592 -74.980853 -74.017991 -76.709787 -72.770905 -77.900188 C -71.523819 -79.147274 -69.993398 -79.770358 -68.179454 -79.770358 C -67.159111 -79.770358 -66.138486 -79.572362 -65.118142 -79.175562 C -64.041113 -78.778762 -63.077649 -78.211805 -62.227363 -77.474891 C -62.737534 -76.28449 -62.992691 -75.037289 -62.992691 -73.733517 C -62.992691 -71.862888 -62.453798 -70.332466 -61.376769 -69.142066 C -60.243054 -67.951665 -58.542701 -67.356645 -56.275271 -67.356645 C -51.173555 -67.356645 -48.622508 -71.608045 -48.622508 -80.110905 C -48.622508 -84.135593 -49.416041 -87.054567 -51.003242 -88.86851 C -52.590442 -90.73914 -54.716401 -91.674541 -57.38063 -91.674541 C -59.024517 -91.674541 -60.782031 -91.36274 -62.65266 -90.739197 C -64.523289 -90.115654 -66.365511 -89.236897 -68.179454 -88.103182 L -72.855655 -92.609884 L -70.644937 -116.75776 L -67.838907 -119.05375 z M -30.42672 -118.88373 L -26.260049 -118.88373 C -24.105991 -118.82705 -19.400923 -118.79847 -12.145148 -118.79847 C -4.6059457 -118.79847 0.29711863 -118.82705 2.564548 -118.88373 L 6.6459527 -118.88373 L 8.346624 -115.22762 C 7.2695951 -113.52705 5.2288611 -109.84261 2.2245171 -104.17404 C -0.77982685 -98.505463 -3.6140935 -92.496548 -6.2783231 -86.147746 C -8.9425526 -79.798944 -10.274978 -74.838719 -10.274978 -71.267517 C -10.274978 -68.433231 -9.2829333 -66.307789 -7.2989326 -64.890646 C -9.2262476 -62.566531 -11.69207 -61.404554 -14.696414 -61.404554 C -17.474015 -61.404554 -19.628037 -62.169506 -21.158552 -63.700021 C -22.689067 -65.230536 -23.454019 -67.356494 -23.454019 -70.077409 C -23.454019 -73.478553 -22.632423 -77.077772 -20.988536 -80.875717 C -19.34465 -84.730347 -16.396579 -89.945728 -12.145148 -96.521273 L -2.1121691 -111.9963 L -21.498583 -111.9963 C -22.292183 -109.44544 -22.773915 -106.44124 -22.943972 -102.98341 C -23.964316 -102.81335 -25.013005 -102.72813 -26.090034 -102.72813 C -27.223748 -102.72813 -28.329081 -102.81335 -29.40611 -102.98341 L -31.786844 -117.60836 L -30.42672 -118.88373 z M -88.16118 -101.28274 C -86.17718 -101.28274 -84.703402 -100.68772 -83.739745 -99.497319 C -82.719402 -98.363604 -82.209089 -96.776539 -82.209089 -94.735852 C -82.209089 -92.695166 -82.719402 -91.107584 -83.739745 -89.973869 C -84.703402 -88.840154 -86.17718 -88.273198 -88.16118 -88.273198 C -90.145181 -88.273198 -91.647022 -88.840154 -92.667365 -89.973869 C -93.631023 -91.16427 -94.113272 -92.751852 -94.113272 -94.735852 C -94.113272 -96.833225 -93.631023 -98.448354 -92.667365 -99.582068 C -91.647022 -100.71578 -90.145181 -101.28274 -88.16118 -101.28274 z M -88.16118 -74.498845 C -86.17718 -74.498845 -84.703402 -73.903824 -83.739745 -72.713424 C -82.719402 -71.579709 -82.209089 -69.992127 -82.209089 -67.951441 C -82.209089 -65.910754 -82.719402 -64.323689 -83.739745 -63.189974 C -84.703402 -62.05626 -86.17718 -61.489303 -88.16118 -61.489303 C -90.145181 -61.489303 -91.647022 -62.05626 -92.667365 -63.189974 C -93.631023 -64.380375 -94.113272 -65.96744 -94.113272 -67.951441 C -94.113272 -70.048813 -93.631023 -71.664459 -92.667365 -72.798173 C -91.647022 -73.931888 -90.145181 -74.498845 -88.16118 -74.498845 z " /></g></svg>
