<?xml version="1.0" encoding="UTF-8" standalone="no"?>
<!-- Created with Inkscape (http://www.inkscape.org/) -->

<svg
   width="172.6701mm"
   height="172.6701mm"
   viewBox="0 0 172.6701 172.6701"
   version="1.1"
   id="svg1"
   xml:space="preserve"
   xmlns="http://www.w3.org/2000/svg"
   xmlns:svg="http://www.w3.org/2000/svg"><defs
     id="defs1" /><g
     id="layer1"
     transform="translate(157.25102,198.81012)"><path
       id="path5"
       style="fill:#ffffff;fill-opacity:1;stroke-width:0.805188;stroke-linecap:round;stroke-linejoin:round"
       d="M -2.0863309 -198.17657 L -10.088943 -183.11289 L -10.930235 -165.68398 L -19.198981 -165.68398 L -11.423229 -155.47426 L -12.166336 -140.07934 C -28.353216 -157.12094 -50.823548 -166.77435 -74.327399 -166.78417 C -103.64471 -166.77397 -130.92652 -151.79225 -146.66717 -127.05894 L -157.25102 -127.05894 L -149.61996 -115.86014 L -157.25102 -26.140039 L -8.5138455 -26.140039 L 15.419061 -26.140039 L 8.0799737 -154.80195 L 15.419061 -165.68398 L 7.4593397 -165.68398 L 6.4490654 -183.39297 L -2.0863309 -198.17657 z M -83.43072 -192.21621 C -85.584619 -189.65499 -86.77489 -186.4211 -86.795372 -183.07465 C -86.842092 -175.15518 -80.459903 -168.69733 -72.540428 -168.65072 C -64.621155 -168.60402 -58.163395 -174.98588 -58.116503 -182.90515 C -58.102813 -186.26049 -59.266203 -189.5144 -61.404157 -192.10045 C -60.83125 -190.6836 -60.536835 -189.16959 -60.537027 -187.64129 C -60.575787 -181.07411 -65.930869 -175.78172 -72.498054 -175.82031 C -79.065241 -175.85911 -84.357627 -181.21415 -84.319038 -187.78134 C -84.309338 -189.30285 -84.007827 -190.80837 -83.43072 -192.21621 z M -33.51542 -133.25443 C -23.820992 -133.25443 -16.103155 -130.85399 -10.361795 -126.05384 C -4.6204341 -121.3478 -1.7494005 -114.71254 -1.7494005 -106.14756 C -1.7494005 -98.617906 -4.6204341 -90.570344 -10.361795 -82.005363 C -16.103155 -73.534503 -25.561981 -63.322832 -38.738874 -51.369507 L -0.76134715 -51.369507 L -0.76134715 -37.533659 L -64.7161 -37.533659 L -64.7161 -45.722307 C -54.268706 -55.793218 -46.127232 -64.404768 -40.291751 -71.557939 C -34.456269 -78.71111 -30.267884 -85.299935 -27.726626 -91.323658 C -25.091248 -97.34738 -23.773896 -103.55901 -23.773896 -109.95921 C -23.773896 -120.12424 -27.161962 -125.20686 -33.93865 -125.20686 C -36.950512 -125.20686 -39.397908 -123.79508 -41.280321 -120.97146 C -43.162734 -118.24196 -44.103921 -114.85389 -44.103921 -110.80671 C -44.103921 -107.98309 -43.115778 -105.30039 -41.139244 -102.75914 C -42.739296 -101.2532 -44.574197 -100.07672 -46.644851 -99.229635 C -48.621385 -98.382549 -50.598188 -97.958912 -52.574722 -97.958912 C -55.963066 -97.958912 -58.786627 -98.994527 -61.045523 -101.06518 C -63.304419 -103.22996 -64.433946 -106.33577 -64.433946 -110.38296 C -64.433946 -114.71251 -63.163034 -118.61864 -60.621776 -122.10111 C -58.080518 -125.58357 -54.504111 -128.3127 -49.892198 -130.28924 C -45.186165 -132.26577 -39.727384 -133.25443 -33.51542 -133.25443 z M -126.41259 -132.12478 L -119.35359 -131.98371 C -109.3768 -131.79547 -104.10584 -131.70104 -103.54112 -131.70104 L -83.493248 -131.98371 L -79.398924 -129.01903 L -80.669648 -118.28894 L -115.6825 -118.28894 L -117.65912 -94.712081 C -112.76485 -95.93565 -108.34116 -96.547111 -104.3881 -96.547111 C -95.070151 -96.547111 -87.493699 -94.053276 -81.658218 -89.064881 C -75.728616 -84.170606 -72.763671 -76.970319 -72.763671 -67.464132 C -72.763671 -61.53453 -74.175451 -56.216617 -76.999071 -51.510584 C -79.72857 -46.804551 -83.681659 -43.086759 -88.858295 -40.357259 C -94.034932 -37.721881 -100.15265 -36.404012 -107.2117 -36.404012 C -112.95306 -36.404012 -118.17706 -37.204331 -122.88309 -38.804383 C -127.495 -40.404434 -131.11837 -42.616017 -133.75375 -45.439637 C -136.38912 -48.357377 -137.70699 -51.604576 -137.70699 -55.181161 C -137.70699 -58.945988 -136.67138 -61.816504 -134.60072 -63.793038 C -132.53007 -65.863693 -129.98876 -66.899309 -126.9769 -66.899309 C -125.28273 -66.899309 -123.58869 -66.569583 -121.89452 -65.910738 C -120.10623 -65.251894 -118.50611 -64.310707 -117.0943 -63.087138 C -117.94138 -61.110604 -118.36502 -59.03989 -118.36502 -56.875114 C -118.36502 -53.769132 -117.47079 -51.228341 -115.6825 -49.251807 C -113.80008 -47.275273 -110.97652 -46.286613 -107.2117 -46.286613 C -98.740837 -46.286613 -94.505496 -53.346032 -94.505496 -67.464132 C -94.505496 -74.146699 -95.823364 -78.993502 -98.458743 -82.005363 C -101.09412 -85.111345 -104.62357 -86.66451 -109.04724 -86.66451 C -111.77674 -86.66451 -114.69422 -86.146961 -117.8002 -85.111634 C -120.90618 -84.076306 -123.96504 -82.61757 -126.9769 -80.735157 L -134.74232 -88.217387 L -131.07122 -128.31313 L -126.41259 -132.12478 z " /></g></svg>
