<?xml version="1.0" encoding="UTF-8" standalone="no"?>
<!-- Created with Inkscape (http://www.inkscape.org/) -->

<svg
   width="172.6701mm"
   height="172.6701mm"
   viewBox="0 0 172.6701 172.6701"
   version="1.1"
   id="svg1"
   xml:space="preserve"
   xmlns="http://www.w3.org/2000/svg"
   xmlns:svg="http://www.w3.org/2000/svg"><defs
     id="defs1" /><g
     id="layer1"
     transform="translate(157.25102,198.81012)"><path
       id="path5"
       style="fill:#ffffff;fill-opacity:1;stroke-width:0.805188;stroke-linecap:round;stroke-linejoin:round"
       d="M -2.0863309 -198.17657 L -10.088943 -183.11289 L -10.930235 -165.68398 L -19.198981 -165.68398 L -11.423229 -155.47426 L -12.166336 -140.07934 C -28.353216 -157.12094 -50.823548 -166.77435 -74.327399 -166.78417 C -103.64471 -166.77397 -130.92652 -151.79225 -146.66717 -127.05894 L -157.25102 -127.05894 L -149.61996 -115.86014 L -157.25102 -26.140039 L -8.5138455 -26.140039 L 15.419061 -26.140039 L 8.0799737 -154.80195 L 15.419061 -165.68398 L 7.4593397 -165.68398 L 6.4490654 -183.39297 L -2.0863309 -198.17657 z M -83.43072 -192.21621 C -85.584619 -189.65499 -86.77489 -186.4211 -86.795372 -183.07465 C -86.842092 -175.15518 -80.459903 -168.69733 -72.540428 -168.65072 C -64.621155 -168.60402 -58.163395 -174.98588 -58.116503 -182.90515 C -58.102813 -186.26049 -59.266203 -189.5144 -61.404157 -192.10045 C -60.83125 -190.6836 -60.536835 -189.16959 -60.537027 -187.64129 C -60.575787 -181.07411 -65.930869 -175.78172 -72.498054 -175.82031 C -79.065241 -175.85911 -84.357627 -181.21415 -84.319038 -187.78134 C -84.309338 -189.30285 -84.007827 -190.80837 -83.43072 -192.21621 z M -34.150524 -133.25443 C -28.03268 -133.25443 -22.620855 -132.21882 -17.914822 -130.14816 C -13.208789 -128.17163 -9.537953 -125.34807 -6.9025744 -121.67736 C -4.2671957 -118.10078 -2.9493273 -113.95935 -2.9493273 -109.25331 C -2.9493273 -103.98256 -4.5024924 -99.464961 -7.6084744 -95.700135 C -10.714456 -91.935308 -15.326479 -89.064791 -21.444322 -87.088257 C -13.726428 -85.394085 -8.3146029 -82.61748 -5.2086209 -78.758533 C -2.1026389 -74.899586 -0.54947378 -69.675585 -0.54947378 -63.087138 C -0.54947378 -57.345778 -2.2904629 -52.451502 -5.7729276 -48.404314 C -9.1612715 -44.357125 -13.584953 -41.345223 -19.043952 -39.368689 C -24.502951 -37.392155 -30.150589 -36.404012 -35.98607 -36.404012 C -44.45693 -36.404012 -51.657217 -38.145518 -57.586819 -41.627983 C -63.4223 -45.110448 -66.339773 -49.863338 -66.339773 -55.887061 C -66.339773 -59.369526 -65.304674 -62.052218 -63.23402 -63.934632 C -61.163365 -65.911166 -58.574584 -66.899309 -55.468602 -66.899309 C -52.2685 -66.899309 -49.021818 -65.628396 -45.727595 -63.087138 C -46.574681 -61.298846 -46.997801 -59.134219 -46.997801 -56.592961 C -46.997801 -53.5811 -46.104087 -51.13422 -44.315795 -49.251807 C -42.433381 -47.369394 -39.656776 -46.428207 -35.98607 -46.428207 C -27.891693 -46.428207 -23.844176 -52.028372 -23.844176 -63.228732 C -23.844176 -69.346575 -25.820979 -74.099466 -29.774047 -77.48781 C -33.632994 -80.876154 -39.138731 -82.570187 -46.291901 -82.570187 L -46.291901 -91.323658 C -32.456163 -92.453106 -25.538646 -98.429436 -25.538646 -109.25331 C -25.538646 -114.71231 -26.385404 -118.71287 -28.079576 -121.25413 C -29.773748 -123.88951 -32.07976 -125.20686 -34.9975 -125.20686 C -38.479965 -125.20686 -41.115702 -123.98342 -42.903994 -121.53628 C -44.598166 -119.08915 -45.444925 -116.1242 -45.444925 -112.64174 C -45.444925 -109.53575 -44.78599 -106.75915 -43.468301 -104.31201 C -46.10368 -101.48839 -49.492263 -100.07661 -53.633572 -100.07661 C -57.398399 -100.07661 -60.315872 -101.20614 -62.386526 -103.46504 C -64.457181 -105.72393 -65.492797 -108.64192 -65.492797 -112.21851 C -65.492797 -116.92454 -63.892675 -120.83016 -60.692573 -123.93614 C -57.398349 -127.13624 -53.351349 -129.48921 -48.551195 -130.99514 C -43.65692 -132.50107 -38.856557 -133.25443 -34.150524 -133.25443 z M -126.48287 -132.12478 L -119.42387 -131.98371 C -109.44708 -131.79547 -104.17612 -131.70104 -103.6114 -131.70104 L -83.564045 -131.98371 L -79.469721 -129.01903 L -80.740445 -118.28894 L -115.75329 -118.28894 L -117.72992 -94.712081 C -112.83564 -95.93565 -108.41196 -96.547111 -104.45889 -96.547111 C -95.140948 -96.547111 -87.563979 -94.053276 -81.728498 -89.064881 C -75.798896 -84.170606 -72.833951 -76.970319 -72.833951 -67.464132 C -72.833951 -61.53453 -74.246248 -56.216617 -77.069868 -51.510584 C -79.799367 -46.804551 -83.751939 -43.086759 -88.928575 -40.357259 C -94.105212 -37.721881 -100.22344 -36.404012 -107.28249 -36.404012 C -113.02385 -36.404012 -118.24734 -37.204331 -122.95337 -38.804383 C -127.56528 -40.404434 -131.18916 -42.616017 -133.82454 -45.439637 C -136.45992 -48.357377 -137.77727 -51.604576 -137.77727 -55.181161 C -137.77727 -58.945988 -136.74217 -61.816504 -134.67152 -63.793038 C -132.60087 -65.863693 -130.05956 -66.899309 -127.0477 -66.899309 C -125.35352 -66.899309 -123.65949 -66.569583 -121.96532 -65.910738 C -120.17703 -65.251894 -118.5769 -64.310707 -117.16509 -63.087138 C -118.01218 -61.110604 -118.43582 -59.03989 -118.43582 -56.875114 C -118.43582 -53.769132 -117.54159 -51.228341 -115.75329 -49.251807 C -113.87088 -47.275273 -111.04732 -46.286613 -107.28249 -46.286613 C -98.811634 -46.286613 -94.576293 -53.346032 -94.576293 -67.464132 C -94.576293 -74.146699 -95.893644 -78.993502 -98.529023 -82.005363 C -101.1644 -85.111345 -104.69385 -86.66451 -109.11752 -86.66451 C -111.84702 -86.66451 -114.76501 -86.146961 -117.87099 -85.111634 C -120.97698 -84.076306 -124.03583 -82.61757 -127.0477 -80.735157 L -134.8126 -88.217387 L -131.14202 -128.31313 L -126.48287 -132.12478 z " /></g></svg>
