<?xml version="1.0" encoding="UTF-8" standalone="no"?>
<!-- Created with Inkscape (http://www.inkscape.org/) -->

<svg
   width="172.6701mm"
   height="172.6701mm"
   viewBox="0 0 172.6701 172.6701"
   version="1.1"
   id="svg1"
   xml:space="preserve"
   xmlns="http://www.w3.org/2000/svg"
   xmlns:svg="http://www.w3.org/2000/svg"><defs
     id="defs1" /><g
     id="layer1"
     transform="translate(157.25102,198.81012)"><path
       id="path5"
       style="fill:#ffffff;fill-opacity:1;stroke-width:0.805188;stroke-linecap:round;stroke-linejoin:round"
       d="M -2.0863309 -198.17657 L -10.088943 -183.11289 L -10.930235 -165.68398 L -19.198981 -165.68398 L -11.423229 -155.47426 L -12.166336 -140.07934 C -28.353216 -157.12094 -50.823548 -166.77435 -74.327399 -166.78417 C -103.64471 -166.77397 -130.92652 -151.79225 -146.66717 -127.05894 L -157.25102 -127.05894 L -149.61996 -115.86014 L -157.25102 -26.140039 L -8.5138455 -26.140039 L 15.419061 -26.140039 L 8.0799737 -154.80195 L 15.419061 -165.68398 L 7.4593397 -165.68398 L 6.4490654 -183.39297 L -2.0863309 -198.17657 z M -83.43072 -192.21621 C -85.584619 -189.65499 -86.77489 -186.4211 -86.795372 -183.07465 C -86.842092 -175.15518 -80.459903 -168.69733 -72.540428 -168.65072 C -64.621155 -168.60402 -58.163395 -174.98588 -58.116503 -182.90515 C -58.102813 -186.26049 -59.266203 -189.5144 -61.404157 -192.10045 C -60.83125 -190.6836 -60.536835 -189.16959 -60.537027 -187.64129 C -60.575787 -181.07411 -65.930869 -175.78172 -72.498054 -175.82031 C -79.065241 -175.85911 -84.357627 -181.21415 -84.319038 -187.78134 C -84.309338 -189.30285 -84.007827 -190.80837 -83.43072 -192.21621 z M -35.774197 -133.81925 C -28.244544 -133.44277 -22.126829 -131.79518 -17.420795 -128.87744 L -51.021845 -73.534563 L -29.421096 -73.534563 L -28.009296 -96.547111 C -24.997435 -96.547111 -22.832292 -97.15909 -21.514602 -98.382658 C -20.102792 -99.606227 -19.020737 -101.67694 -18.267772 -104.59468 L -10.220201 -104.59468 L -10.361278 -72.828662 C -6.7846926 -71.793335 -2.2670987 -70.71128 3.1918999 -69.581832 L 2.4859999 -62.804985 L -11.067178 -62.804985 L -11.067178 -37.533659 L -29.421096 -37.533659 L -29.421096 -62.804985 L -70.222224 -62.804985 L -71.35187 -67.887362 L -35.774197 -133.81925 z M -129.65942 -132.12478 L -122.60042 -131.98371 C -112.62363 -131.79547 -107.35319 -131.70104 -106.78847 -131.70104 L -86.740595 -131.98371 L -82.646271 -129.01903 L -83.916995 -118.28894 L -118.92984 -118.28894 L -120.90647 -94.712081 C -116.01219 -95.93565 -111.58851 -96.547111 -107.63544 -96.547111 C -98.317498 -96.547111 -90.74053 -94.053276 -84.905048 -89.064881 C -78.975446 -84.170606 -76.010501 -76.970319 -76.010501 -67.464132 C -76.010501 -61.53453 -77.422798 -56.216617 -80.246418 -51.510584 C -82.975917 -46.804551 -86.929006 -43.086759 -92.105642 -40.357259 C -97.282279 -37.721881 -103.39999 -36.404012 -110.45904 -36.404012 C -116.2004 -36.404012 -121.42389 -37.204331 -126.12992 -38.804383 C -130.74183 -40.404434 -134.36571 -42.616017 -137.00109 -45.439637 C -139.63647 -48.357377 -140.95382 -51.604576 -140.95382 -55.181161 C -140.95382 -58.945988 -139.91872 -61.816504 -137.84807 -63.793038 C -135.77742 -65.863693 -133.23611 -66.899309 -130.22425 -66.899309 C -128.53007 -66.899309 -126.83604 -66.569583 -125.14187 -65.910738 C -123.35358 -65.251894 -121.75345 -64.310707 -120.34165 -63.087138 C -121.18873 -61.110604 -121.61237 -59.03989 -121.61237 -56.875114 C -121.61237 -53.769132 -120.71814 -51.228341 -118.92984 -49.251807 C -117.04743 -47.275273 -114.22387 -46.286613 -110.45904 -46.286613 C -101.98818 -46.286613 -97.752843 -53.346032 -97.752843 -67.464132 C -97.752843 -74.146699 -99.070195 -78.993502 -101.70557 -82.005363 C -104.34095 -85.111345 -107.8704 -86.66451 -112.29407 -86.66451 C -115.02357 -86.66451 -117.94156 -86.146961 -121.04755 -85.111634 C -124.15353 -84.076306 -127.21238 -82.61757 -130.22425 -80.735157 L -137.98915 -88.217387 L -134.31857 -128.31313 L -129.65942 -132.12478 z " /></g></svg>
