<?xml version="1.0" encoding="UTF-8" standalone="no"?>
<!-- Created with Inkscape (http://www.inkscape.org/) -->

<svg
   width="172.6701mm"
   height="172.6701mm"
   viewBox="0 0 172.6701 172.6701"
   version="1.1"
   id="svg1"
   xml:space="preserve"
   xmlns="http://www.w3.org/2000/svg"
   xmlns:svg="http://www.w3.org/2000/svg"><defs
     id="defs1" /><g
     id="layer1"
     transform="translate(157.25102,198.81012)"><path
       id="path5"
       style="fill:#ffffff;fill-opacity:1;stroke-width:0.805188;stroke-linecap:round;stroke-linejoin:round"
       d="M -2.0863309 -198.17657 L -10.088943 -183.11289 L -10.930235 -165.68398 L -19.198981 -165.68398 L -11.423229 -155.47426 L -12.166336 -140.07934 C -28.353216 -157.12094 -50.823548 -166.77435 -74.327399 -166.78417 C -103.64471 -166.77397 -130.92652 -151.79225 -146.66717 -127.05894 L -157.25102 -127.05894 L -149.61996 -115.86014 L -157.25102 -26.140039 L -8.5138455 -26.140039 L 15.419061 -26.140039 L 8.0799737 -154.80195 L 15.419061 -165.68398 L 7.4593397 -165.68398 L 6.4490654 -183.39297 L -2.0863309 -198.17657 z M -83.43072 -192.21621 C -85.584619 -189.65499 -86.77489 -186.4211 -86.795372 -183.07465 C -86.842092 -175.15518 -80.459903 -168.69733 -72.540428 -168.65072 C -64.621155 -168.60402 -58.163395 -174.98588 -58.116503 -182.90515 C -58.102813 -186.26049 -59.266203 -189.5144 -61.404157 -192.10045 C -60.83125 -190.6836 -60.536835 -189.16959 -60.537027 -187.64129 C -60.575787 -181.07411 -65.930869 -175.78172 -72.498054 -175.82031 C -79.065241 -175.85911 -84.357627 -181.21415 -84.319038 -187.78134 C -84.309338 -189.30285 -84.007827 -190.80837 -83.43072 -192.21621 z M -127.33037 -132.12478 L -120.27085 -131.98371 C -110.29406 -131.79547 -105.02362 -131.70104 -104.45889 -131.70104 L -84.411022 -131.98371 L -80.316698 -129.01903 L -81.587421 -118.28894 L -116.60027 -118.28894 L -118.57689 -94.712081 C -113.68262 -95.93565 -109.25894 -96.547111 -105.30587 -96.547111 C -95.987924 -96.547111 -88.411473 -94.053276 -82.575992 -89.064881 C -76.64639 -84.170606 -73.681444 -76.970319 -73.681444 -67.464132 C -73.681444 -61.53453 -75.093224 -56.216617 -77.916844 -51.510584 C -80.646344 -46.804551 -84.599432 -43.086759 -89.776069 -40.357259 C -94.952705 -37.721881 -101.07042 -36.404012 -108.12947 -36.404012 C -113.87083 -36.404012 -119.09432 -37.204331 -123.80035 -38.804383 C -128.41226 -40.404434 -132.03614 -42.616017 -134.67152 -45.439637 C -137.3069 -48.357377 -138.62477 -51.604576 -138.62477 -55.181161 C -138.62477 -58.945988 -137.58915 -61.816504 -135.5185 -63.793038 C -133.44784 -65.863693 -130.90653 -66.899309 -127.89467 -66.899309 C -126.2005 -66.899309 -124.50647 -66.569583 -122.8123 -65.910738 C -121.024 -65.251894 -119.42388 -64.310707 -118.01207 -63.087138 C -118.85916 -61.110604 -119.28279 -59.03989 -119.28279 -56.875114 C -119.28279 -53.769132 -118.38856 -51.228341 -116.60027 -49.251807 C -114.71786 -47.275273 -111.8943 -46.286613 -108.12947 -46.286613 C -99.658611 -46.286613 -95.423269 -53.346032 -95.423269 -67.464132 C -95.423269 -74.146699 -96.741138 -78.993502 -99.376516 -82.005363 C -102.0119 -85.111345 -105.54135 -86.66451 -109.96502 -86.66451 C -112.69452 -86.66451 -115.61199 -86.146961 -118.71797 -85.111634 C -121.82395 -84.076306 -124.88281 -82.61757 -127.89467 -80.735157 L -135.65957 -88.217387 L -131.989 -128.31313 L -127.33037 -132.12478 z M -53.915725 -132.12478 L -46.856725 -131.98371 C -36.879934 -131.79547 -31.609494 -131.70104 -31.04477 -131.70104 L -10.996898 -131.98371 L -6.9025744 -129.01903 L -8.1732978 -118.28894 L -43.186148 -118.28894 L -45.162771 -94.712081 C -40.268497 -95.93565 -35.844815 -96.547111 -31.891747 -96.547111 C -22.573801 -96.547111 -14.996833 -94.053276 -9.1613512 -89.064881 C -3.2317492 -84.170606 -0.26732046 -76.970319 -0.26732046 -67.464132 C -0.26732046 -61.53453 -1.6791009 -56.216617 -4.5027208 -51.510584 C -7.2322202 -46.804551 -11.185309 -43.086759 -16.361945 -40.357259 C -21.538582 -37.721881 -27.656297 -36.404012 -34.715347 -36.404012 C -40.456708 -36.404012 -45.680192 -37.204331 -50.386225 -38.804383 C -54.998138 -40.404434 -58.622017 -42.616017 -61.257396 -45.439637 C -63.892775 -48.357377 -65.210643 -51.604576 -65.210643 -55.181161 C -65.210643 -58.945988 -64.175028 -61.816504 -62.104373 -63.793038 C -60.033718 -65.863693 -57.49241 -66.899309 -54.480549 -66.899309 C -52.786377 -66.899309 -51.092344 -66.569583 -49.398172 -65.910738 C -47.609879 -65.251894 -46.009758 -64.310707 -44.597948 -63.087138 C -45.445034 -61.110604 -45.868671 -59.03989 -45.868671 -56.875114 C -45.868671 -53.769132 -44.97444 -51.228341 -43.186148 -49.251807 C -41.303734 -47.275273 -38.480174 -46.286613 -34.715347 -46.286613 C -26.244487 -46.286613 -22.009146 -53.346032 -22.009146 -67.464132 C -22.009146 -74.146699 -23.326497 -78.993502 -25.961876 -82.005363 C -28.597255 -85.111345 -32.127223 -86.66451 -36.550894 -86.66451 C -39.280393 -86.66451 -42.197866 -86.146961 -45.303848 -85.111634 C -48.40983 -84.076306 -51.468687 -82.61757 -54.480549 -80.735157 L -62.24545 -88.217387 L -58.574873 -128.31313 L -53.915725 -132.12478 z " /></g></svg>
