<?xml version="1.0" encoding="UTF-8" standalone="no"?>
<!-- Created with Inkscape (http://www.inkscape.org/) -->

<svg
   width="172.6701mm"
   height="172.6701mm"
   viewBox="0 0 172.6701 172.6701"
   version="1.1"
   id="svg1"
   xml:space="preserve"
   xmlns="http://www.w3.org/2000/svg"
   xmlns:svg="http://www.w3.org/2000/svg"><defs
     id="defs1" /><g
     id="layer1"
     transform="translate(157.25102,198.81012)"><path
       id="path5"
       style="fill:#ffffff;fill-opacity:1;stroke-width:0.805188;stroke-linecap:round;stroke-linejoin:round"
       d="M -2.0863309 -198.17657 L -10.088943 -183.11289 L -10.930235 -165.68398 L -19.198981 -165.68398 L -11.423229 -155.47426 L -12.166336 -140.07934 C -28.353216 -157.12094 -50.823548 -166.77435 -74.327399 -166.78417 C -103.64471 -166.77397 -130.92652 -151.79225 -146.66717 -127.05894 L -157.25102 -127.05894 L -149.61996 -115.86014 L -157.25102 -26.140039 L -8.5138455 -26.140039 L 15.419061 -26.140039 L 8.0799737 -154.80195 L 15.419061 -165.68398 L 7.4593397 -165.68398 L 6.4490654 -183.39297 L -2.0863309 -198.17657 z M -83.43072 -192.21621 C -85.584619 -189.65499 -86.77489 -186.4211 -86.795372 -183.07465 C -86.842092 -175.15518 -80.459903 -168.69733 -72.540428 -168.65072 C -64.621155 -168.60402 -58.163395 -174.98588 -58.116503 -182.90515 C -58.102813 -186.26049 -59.266203 -189.5144 -61.404157 -192.10045 C -60.83125 -190.6836 -60.536835 -189.16959 -60.537027 -187.64129 C -60.575787 -181.07411 -65.930869 -175.78172 -72.498054 -175.82031 C -79.065241 -175.85911 -84.357627 -181.21415 -84.319038 -187.78134 C -84.309338 -189.30285 -84.007827 -190.80837 -83.43072 -192.21621 z M -13.255675 -133.53658 L -9.8672513 -126.47758 C -28.879626 -118.28909 -40.315254 -105.67697 -44.174201 -88.641134 C -38.715202 -91.276513 -33.538674 -92.594381 -28.6444 -92.594381 C -19.232333 -92.594381 -11.844222 -90.053073 -6.4793444 -84.970557 C -1.0203457 -79.888041 1.7093031 -73.016963 1.7093031 -64.357862 C 1.7093031 -58.992984 0.25056669 -54.193137 -2.667174 -49.957707 C -5.490794 -45.722277 -9.4908384 -42.427606 -14.667475 -40.074589 C -19.749991 -37.721573 -25.585453 -36.545089 -32.1739 -36.545089 C -43.374259 -36.545089 -51.986326 -39.651419 -58.010049 -45.863383 C -63.939651 -52.075347 -66.904597 -61.063579 -66.904597 -72.828662 C -66.904597 -87.605607 -62.33953 -100.17076 -53.209825 -110.52404 C -43.986 -120.97143 -30.667998 -128.64231 -13.255675 -133.53658 z M -128.60057 -132.12478 L -121.54157 -131.98371 C -111.56478 -131.79547 -106.29434 -131.70104 -105.72962 -131.70104 L -85.681745 -131.98371 L -81.587421 -129.01903 L -82.858145 -118.28894 L -117.87099 -118.28894 L -119.84762 -94.712081 C -114.95334 -95.93565 -110.52966 -96.547111 -106.57659 -96.547111 C -97.258648 -96.547111 -89.68168 -94.053276 -83.846198 -89.064881 C -77.916596 -84.170606 -74.952167 -76.970319 -74.952167 -67.464132 C -74.952167 -61.53453 -76.363948 -56.216617 -79.187568 -51.510584 C -81.917067 -46.804551 -85.870156 -43.086759 -91.046792 -40.357259 C -96.223429 -37.721881 -102.34114 -36.404012 -109.40019 -36.404012 C -115.14155 -36.404012 -120.36504 -37.204331 -125.07107 -38.804383 C -129.68298 -40.404434 -133.30686 -42.616017 -135.94224 -45.439637 C -138.57762 -48.357377 -139.89497 -51.604576 -139.89497 -55.181161 C -139.89497 -58.945988 -138.85987 -61.816504 -136.78922 -63.793038 C -134.71857 -65.863693 -132.17726 -66.899309 -129.1654 -66.899309 C -127.47122 -66.899309 -125.77719 -66.569583 -124.08302 -65.910738 C -122.29473 -65.251894 -120.6946 -64.310707 -119.28279 -63.087138 C -120.12988 -61.110604 -120.55352 -59.03989 -120.55352 -56.875114 C -120.55352 -53.769132 -119.65929 -51.228341 -117.87099 -49.251807 C -115.98858 -47.275273 -113.16502 -46.286613 -109.40019 -46.286613 C -100.92933 -46.286613 -96.693993 -53.346032 -96.693993 -67.464132 C -96.693993 -74.146699 -98.011344 -78.993502 -100.64672 -82.005363 C -103.2821 -85.111345 -106.81155 -86.66451 -111.23522 -86.66451 C -113.96472 -86.66451 -116.88271 -86.146961 -119.98869 -85.111634 C -123.09468 -84.076306 -126.15353 -82.61757 -129.1654 -80.735157 L -136.9303 -88.217387 L -133.25972 -128.31313 L -128.60057 -132.12478 z M -32.597647 -82.711263 C -36.550715 -82.711263 -40.833012 -81.111659 -45.444925 -77.911556 L -45.444925 -76.076009 C -45.444925 -65.816857 -44.315397 -58.287361 -42.056501 -53.487207 C -39.797605 -48.687053 -36.221198 -46.286613 -31.326923 -46.286613 C -27.279735 -46.286613 -24.173921 -47.839778 -22.009146 -50.94576 C -19.84437 -54.051742 -18.761799 -58.475424 -18.761799 -64.216785 C -18.761799 -70.052266 -19.985238 -74.56986 -22.432376 -77.769963 C -24.785392 -81.064186 -28.173975 -82.711263 -32.597647 -82.711263 z " /></g></svg>
