<?xml version="1.0" encoding="UTF-8" standalone="no"?>
<!-- Created with Inkscape (http://www.inkscape.org/) -->

<svg
   width="172.6701mm"
   height="172.6701mm"
   viewBox="0 0 172.6701 172.6701"
   version="1.1"
   id="svg1"
   xml:space="preserve"
   xmlns="http://www.w3.org/2000/svg"
   xmlns:svg="http://www.w3.org/2000/svg"><defs
     id="defs1" /><g
     id="layer1"
     transform="translate(157.25102,198.81012)"><path
       id="path5"
       style="fill:#ffffff;fill-opacity:1;stroke-width:0.805188;stroke-linecap:round;stroke-linejoin:round"
       d="M -2.0863309 -198.17657 L -10.088943 -183.11289 L -10.930235 -165.68398 L -19.198981 -165.68398 L -11.423229 -155.47426 L -12.166336 -140.07934 C -28.353216 -157.12094 -50.823548 -166.77435 -74.327399 -166.78417 C -103.64471 -166.77397 -130.92652 -151.79225 -146.66717 -127.05894 L -157.25102 -127.05894 L -149.61996 -115.86014 L -157.25102 -26.140039 L -8.5138455 -26.140039 L 15.419061 -26.140039 L 8.0799737 -154.80195 L 15.419061 -165.68398 L 7.4593397 -165.68398 L 6.4490654 -183.39297 L -2.0863309 -198.17657 z M -83.43072 -192.21621 C -85.584619 -189.65499 -86.77489 -186.4211 -86.795372 -183.07465 C -86.842092 -175.15518 -80.459903 -168.69733 -72.540428 -168.65072 C -64.621155 -168.60402 -58.163395 -174.98588 -58.116503 -182.90515 C -58.102813 -186.26049 -59.266203 -189.5144 -61.404157 -192.10045 C -60.83125 -190.6836 -60.536835 -189.16959 -60.537027 -187.64129 C -60.575787 -181.07411 -65.930869 -175.78172 -72.498054 -175.82031 C -79.065241 -175.85911 -84.357627 -181.21415 -84.319038 -187.78134 C -84.309338 -189.30285 -84.007827 -190.80837 -83.43072 -192.21621 z M -125.49482 -132.12478 L -118.43582 -131.98371 C -108.45903 -131.79547 -103.18807 -131.70104 -102.62335 -131.70104 L -82.575475 -131.98371 L -78.481668 -129.01903 L -79.751874 -118.28894 L -114.76472 -118.28894 L -116.74135 -94.712081 C -111.84707 -95.93565 -107.42339 -96.547111 -103.47032 -96.547111 C -94.152377 -96.547111 -86.575926 -94.053276 -80.740445 -89.064881 C -74.810843 -84.170606 -71.845897 -76.970319 -71.845897 -67.464132 C -71.845897 -61.53453 -73.257678 -56.216617 -76.081298 -51.510584 C -78.810797 -46.804551 -82.763885 -43.086759 -87.940522 -40.357259 C -93.117159 -37.721881 -99.234874 -36.404012 -106.29392 -36.404012 C -112.03528 -36.404012 -117.25929 -37.204331 -121.96532 -38.804383 C -126.57723 -40.404434 -130.20059 -42.616017 -132.83597 -45.439637 C -135.47135 -48.357377 -136.78922 -51.604576 -136.78922 -55.181161 C -136.78922 -58.945988 -135.7536 -61.816504 -133.68295 -63.793038 C -131.61229 -65.863693 -129.0715 -66.899309 -126.05964 -66.899309 C -124.36547 -66.899309 -122.67092 -66.569583 -120.97675 -65.910738 C -119.18846 -65.251894 -117.58833 -64.310707 -116.17652 -63.087138 C -117.02361 -61.110604 -117.44725 -59.03989 -117.44725 -56.875114 C -117.44725 -53.769132 -116.55302 -51.228341 -114.76472 -49.251807 C -112.88231 -47.275273 -110.05875 -46.286613 -106.29392 -46.286613 C -97.823064 -46.286613 -93.587722 -53.346032 -93.587722 -67.464132 C -93.587722 -74.146699 -94.905591 -78.993502 -97.54097 -82.005363 C -100.17635 -85.111345 -103.7058 -86.66451 -108.12947 -86.66451 C -110.85897 -86.66451 -113.77644 -86.146961 -116.88242 -85.111634 C -119.98841 -84.076306 -123.04778 -82.61757 -126.05964 -80.735157 L -133.82454 -88.217387 L -130.15345 -128.31313 L -125.49482 -132.12478 z M -63.375096 -131.84263 L -56.457172 -131.84263 C -52.880587 -131.74851 -45.068322 -131.70104 -33.020877 -131.70104 C -20.502828 -131.70104 -12.361354 -131.74851 -8.5965278 -131.84263 L -1.8201972 -131.84263 L 1.003403 -125.77168 C -0.78488965 -122.94806 -4.1729559 -116.83035 -9.1613512 -107.41828 C -14.149747 -98.006216 -18.855681 -88.029324 -23.279353 -77.48781 C -27.703024 -66.946295 -29.915123 -58.710909 -29.915123 -52.781307 C -29.915123 -48.075274 -28.268046 -44.545306 -24.973823 -42.19229 C -28.173925 -38.333342 -32.267882 -36.404012 -37.256277 -36.404012 C -41.86819 -36.404012 -45.445114 -37.674925 -47.986372 -40.216183 C -50.52763 -42.757441 -51.798025 -46.286892 -51.798025 -50.804684 C -51.798025 -56.451924 -50.433201 -62.428254 -47.703701 -68.734339 C -44.974202 -75.134544 -40.079927 -83.794084 -33.020877 -94.712081 L -16.361945 -120.40664 L -48.551195 -120.40664 C -49.868884 -116.17121 -50.668686 -111.18302 -50.951048 -105.44166 C -52.64522 -105.1593 -54.386726 -105.01791 -56.175019 -105.01791 C -58.057432 -105.01791 -59.892333 -105.1593 -61.680626 -105.44166 L -65.633873 -129.72493 L -63.375096 -131.84263 z " /></g></svg>
