<?xml version="1.0" encoding="UTF-8" standalone="no"?>
<!-- Created with Inkscape (http://www.inkscape.org/) -->

<svg
   width="172.6701mm"
   height="172.6701mm"
   viewBox="0 0 172.6701 172.6701"
   version="1.1"
   id="svg1"
   xml:space="preserve"
   xmlns="http://www.w3.org/2000/svg"
   xmlns:svg="http://www.w3.org/2000/svg"><defs
     id="defs1" /><g
     id="layer1"
     transform="translate(157.25102,198.81012)"><path
       id="path5"
       style="fill:#ffffff;fill-opacity:1;stroke-width:0.805188;stroke-linecap:round;stroke-linejoin:round"
       d="M -2.0863309 -198.17657 L -10.088943 -183.11289 L -10.930235 -165.68398 L -19.198981 -165.68398 L -11.423229 -155.47426 L -12.166336 -140.07934 C -28.353216 -157.12094 -50.823548 -166.77435 -74.327399 -166.78417 C -103.64471 -166.77397 -130.92652 -151.79225 -146.66717 -127.05894 L -157.25102 -127.05894 L -149.61996 -115.86014 L -157.25102 -26.140039 L -8.5138455 -26.140039 L 15.419061 -26.140039 L 8.0799737 -154.80195 L 15.419061 -165.68398 L 7.4593397 -165.68398 L 6.4490654 -183.39297 L -2.0863309 -198.17657 z M -83.43072 -192.21621 C -85.584619 -189.65499 -86.77489 -186.4211 -86.795372 -183.07465 C -86.842092 -175.15518 -80.459903 -168.69733 -72.540428 -168.65072 C -64.621155 -168.60402 -58.163395 -174.98588 -58.116503 -182.90515 C -58.102813 -186.26049 -59.266203 -189.5144 -61.404157 -192.10045 C -60.83125 -190.6836 -60.536835 -189.16959 -60.537027 -187.64129 C -60.575787 -181.07411 -65.930869 -175.78172 -72.498054 -175.82031 C -79.065241 -175.85911 -84.357627 -181.21415 -84.319038 -187.78134 C -84.309338 -189.30285 -84.007827 -190.80837 -83.43072 -192.21621 z M -33.16247 -132.97176 C -21.962111 -132.97176 -13.397 -129.86595 -7.4673978 -123.65398 C -1.4436751 -117.44202 1.5682264 -108.45327 1.5682264 -96.688188 C 1.5682264 -81.911243 -3.0437962 -69.299132 -12.267622 -58.851738 C -21.397326 -48.498465 -34.668372 -40.875057 -52.080695 -35.980782 L -55.469119 -43.039783 C -46.057052 -47.086972 -38.480084 -52.2635 -32.738723 -58.569585 C -26.997363 -64.96979 -23.185659 -72.405373 -21.303246 -80.876233 C -26.574003 -78.240855 -31.703575 -76.922986 -36.691971 -76.922986 C -46.104037 -76.922986 -53.539621 -79.464294 -58.998619 -84.54681 C -64.363497 -89.629326 -67.045673 -96.500404 -67.045673 -105.15951 C -67.045673 -110.52438 -65.633893 -115.32423 -62.810273 -119.55966 C -59.892532 -123.79509 -55.892488 -127.08924 -50.809972 -129.44226 C -45.633335 -131.79528 -39.750917 -132.97176 -33.16247 -132.97176 z M -128.31842 -132.12478 L -121.25942 -131.98371 C -111.28263 -131.79547 -106.01167 -131.70104 -105.44695 -131.70104 L -85.399592 -131.98371 L -81.305268 -129.01903 L -82.575992 -118.28894 L -117.58884 -118.28894 L -119.56495 -94.712081 C -114.67067 -95.93565 -110.24699 -96.547111 -106.29392 -96.547111 C -96.975978 -96.547111 -89.399526 -94.053276 -83.564045 -89.064881 C -77.634443 -84.170606 -74.669497 -76.970319 -74.669497 -67.464132 C -74.669497 -61.53453 -76.081278 -56.216617 -78.904898 -51.510584 C -81.634397 -46.804551 -85.587486 -43.086759 -90.764122 -40.357259 C -95.940759 -37.721881 -102.05847 -36.404012 -109.11752 -36.404012 C -114.85888 -36.404012 -120.08289 -37.204331 -124.78892 -38.804383 C -129.40083 -40.404434 -133.02419 -42.616017 -135.65957 -45.439637 C -138.29495 -48.357377 -139.61282 -51.604576 -139.61282 -55.181161 C -139.61282 -58.945988 -138.57772 -61.816504 -136.50707 -63.793038 C -134.43641 -65.863693 -131.8951 -66.899309 -128.88324 -66.899309 C -127.18907 -66.899309 -125.49452 -66.569583 -123.80035 -65.910738 C -122.01206 -65.251894 -120.41245 -64.310707 -119.00064 -63.087138 C -119.84773 -61.110604 -120.27085 -59.03989 -120.27085 -56.875114 C -120.27085 -53.769132 -119.37713 -51.228341 -117.58884 -49.251807 C -115.70643 -47.275273 -112.88235 -46.286613 -109.11752 -46.286613 C -100.64666 -46.286613 -96.411323 -53.346032 -96.411323 -67.464132 C -96.411323 -74.146699 -97.729191 -78.993502 -100.36457 -82.005363 C -102.99995 -85.111345 -106.5294 -86.66451 -110.95307 -86.66451 C -113.68257 -86.66451 -116.60056 -86.146961 -119.70654 -85.111634 C -122.81252 -84.076306 -125.87138 -82.61757 -128.88324 -80.735157 L -136.64814 -88.217387 L -132.97757 -128.31313 L -128.31842 -132.12478 z M -34.009447 -123.23024 C -38.056636 -123.23024 -41.162449 -121.67759 -43.327224 -118.57161 C -45.492 -115.46562 -46.574571 -111.04194 -46.574571 -105.30058 C -46.574571 -99.465101 -45.398088 -94.900034 -43.045071 -91.605811 C -40.597934 -88.405708 -37.162395 -86.805587 -32.738723 -86.805587 C -28.879776 -86.805587 -24.597479 -88.405708 -19.891446 -91.605811 L -19.891446 -93.441358 C -19.891446 -103.70051 -21.020973 -111.23001 -23.279869 -116.03016 C -25.538765 -120.83031 -29.115172 -123.23024 -34.009447 -123.23024 z " /></g></svg>
