<?xml version="1.0" encoding="UTF-8" standalone="no"?>
<!-- Created with Inkscape (http://www.inkscape.org/) -->

<svg
   width="172.6701mm"
   height="172.6701mm"
   viewBox="0 0 172.6701 172.6701"
   version="1.1"
   id="svg1"
   xml:space="preserve"
   xmlns="http://www.w3.org/2000/svg"
   xmlns:svg="http://www.w3.org/2000/svg"><defs
     id="defs1" /><g
     id="layer1"
     transform="translate(157.25102,198.81012)"><path
       id="path5"
       style="fill:#ffffff;fill-opacity:1;stroke-width:0.805188;stroke-linecap:round;stroke-linejoin:round"
       d="M -2.0863309 -198.17657 L -10.088943 -183.11289 L -10.930235 -165.68398 L -19.198981 -165.68398 L -11.423229 -155.47426 L -12.166336 -140.07934 C -28.353216 -157.12094 -50.823548 -166.77435 -74.327399 -166.78417 C -103.64471 -166.77397 -130.92652 -151.79225 -146.66717 -127.05894 L -157.25102 -127.05894 L -149.61996 -115.86014 L -157.25102 -26.140039 L -8.5138455 -26.140039 L 15.419061 -26.140039 L 8.0799737 -154.80195 L 15.419061 -165.68398 L 7.4593397 -165.68398 L 6.4490654 -183.39297 L -2.0863309 -198.17657 z M -83.43072 -192.21621 C -85.584619 -189.65499 -86.77489 -186.4211 -86.795372 -183.07465 C -86.842092 -175.15518 -80.459903 -168.69733 -72.540428 -168.65072 C -64.621155 -168.60402 -58.163395 -174.98588 -58.116503 -182.90515 C -58.102813 -186.26049 -59.266203 -189.5144 -61.404157 -192.10045 C -60.83125 -190.6836 -60.536835 -189.16959 -60.537027 -187.64129 C -60.575787 -181.07411 -65.930869 -175.78172 -72.498054 -175.82031 C -79.065241 -175.85911 -84.357627 -181.21415 -84.319038 -187.78134 C -84.309338 -189.30285 -84.007827 -190.80837 -83.43072 -192.21621 z M -114.3446 -145.17205 L -106.39573 -145.0134 C -95.161069 -144.80143 -89.225502 -144.69508 -88.589578 -144.69508 L -66.014212 -145.0134 L -61.404157 -141.67459 L -62.834561 -129.59212 L -102.26213 -129.59212 L -104.48783 -103.04232 C -98.976491 -104.42016 -93.994993 -105.10886 -89.543525 -105.10886 C -79.050779 -105.10886 -70.518886 -102.30035 -63.947671 -96.68302 C -57.270469 -91.171679 -53.931745 -83.063645 -53.931745 -72.358924 C -53.931745 -65.681722 -55.52186 -59.693496 -58.70148 -54.394129 C -61.775113 -49.094762 -66.2264 -44.908321 -72.055703 -41.834689 C -77.885007 -38.867043 -84.774126 -37.383281 -92.723176 -37.383281 C -99.188403 -37.383281 -105.07079 -38.284174 -110.37016 -40.085958 C -115.56354 -41.887743 -119.64415 -44.378234 -122.61179 -47.557854 C -125.57944 -50.843461 -127.0632 -54.500208 -127.0632 -58.527727 C -127.0632 -62.76722 -125.89746 -65.999592 -123.56574 -68.225326 C -121.23402 -70.557047 -118.37233 -71.722787 -114.98073 -71.722787 C -113.07296 -71.722787 -111.16482 -71.352105 -109.25705 -70.610193 C -107.24329 -69.868282 -105.44151 -68.808378 -103.8517 -67.430542 C -104.80558 -65.204808 -105.28262 -62.872812 -105.28262 -60.435104 C -105.28262 -56.937522 -104.27589 -54.076349 -102.26213 -51.850615 C -100.14238 -49.624881 -96.962669 -48.511801 -92.723176 -48.511801 C -83.184316 -48.511801 -78.415005 -56.460823 -78.415005 -72.358924 C -78.415005 -79.884025 -79.898768 -85.342557 -82.866413 -88.734152 C -85.834058 -92.231734 -89.808312 -93.980343 -94.789716 -93.980343 C -97.863349 -93.980343 -101.14941 -93.397473 -104.647 -92.231613 C -108.14458 -91.065752 -111.58914 -89.422978 -114.98073 -87.303231 L -123.72438 -95.729073 L -119.59079 -140.87981 L -114.3446 -145.17205 z M -25.156241 -111.94514 C -21.446684 -111.94514 -18.69083 -110.83257 -16.889045 -108.60684 C -14.981273 -106.48709 -14.027721 -103.51905 -14.027721 -99.703508 C -14.027721 -95.887964 -14.981273 -92.920439 -16.889045 -90.800692 C -18.69083 -88.680945 -21.446684 -87.621041 -25.156241 -87.621041 C -28.865797 -87.621041 -31.674311 -88.680945 -33.582083 -90.800692 C -35.383868 -93.026426 -36.28476 -95.993951 -36.28476 -99.703508 C -36.28476 -103.62504 -35.383868 -106.64574 -33.582083 -108.76549 C -31.674311 -110.88523 -28.865797 -111.94514 -25.156241 -111.94514 z M -25.156241 -61.866024 C -21.446684 -61.866024 -18.69083 -60.753461 -16.889045 -58.527727 C -14.981273 -56.40798 -14.027721 -53.439938 -14.027721 -49.624394 C -14.027721 -45.80885 -14.981273 -42.841325 -16.889045 -40.721578 C -18.69083 -38.601832 -21.446684 -37.541927 -25.156241 -37.541927 C -28.865797 -37.541927 -31.674311 -38.601832 -33.582083 -40.721578 C -35.383868 -42.947312 -36.28476 -45.914837 -36.28476 -49.624394 C -36.28476 -53.545925 -35.383868 -56.566627 -33.582083 -58.686373 C -31.674311 -60.80612 -28.865797 -61.866024 -25.156241 -61.866024 z " /></g></svg>
