<?xml version="1.0" encoding="UTF-8" standalone="no"?>
<!-- Created with Inkscape (http://www.inkscape.org/) -->

<svg
   width="172.6701mm"
   height="172.6701mm"
   viewBox="0 0 172.6701 172.6701"
   version="1.1"
   id="svg1"
   xml:space="preserve"
   xmlns="http://www.w3.org/2000/svg"
   xmlns:svg="http://www.w3.org/2000/svg"><defs
     id="defs1" /><g
     id="layer1"
     transform="translate(157.25102,198.81012)"><path
       id="path5"
       style="fill:#ffffff;fill-opacity:1;stroke-width:0.805188;stroke-linecap:round;stroke-linejoin:round"
       d="M -2.0863309 -198.17657 L -10.088943 -183.11289 L -10.930235 -165.68398 L -19.198981 -165.68398 L -11.423229 -155.47426 L -12.166336 -140.07934 C -28.353216 -157.12094 -50.823548 -166.77435 -74.327399 -166.78417 C -103.64471 -166.77397 -130.92652 -151.79225 -146.66717 -127.05894 L -157.25102 -127.05894 L -149.61996 -115.86014 L -157.25102 -26.140039 L -8.5138455 -26.140039 L 15.419061 -26.140039 L 8.0799737 -154.80195 L 15.419061 -165.68398 L 7.4593397 -165.68398 L 6.4490654 -183.39297 L -2.0863309 -198.17657 z M -83.43072 -192.21621 C -85.584619 -189.65499 -86.77489 -186.4211 -86.795372 -183.07465 C -86.842092 -175.15518 -80.459903 -168.69733 -72.540428 -168.65072 C -64.621155 -168.60402 -58.163395 -174.98588 -58.116503 -182.90515 C -58.102813 -186.26049 -59.266203 -189.5144 -61.404157 -192.10045 C -60.83125 -190.6836 -60.536835 -189.16959 -60.537027 -187.64129 C -60.575787 -181.07411 -65.930869 -175.78172 -72.498054 -175.82031 C -79.065241 -175.85911 -84.357627 -181.21415 -84.319038 -187.78134 C -84.309338 -189.30285 -84.007827 -190.80837 -83.43072 -192.21621 z M -1.0915596 -119.90383 L 0.94914276 -115.65241 C -10.501376 -110.72075 -17.38853 -103.12528 -19.712645 -92.865166 C -16.424873 -94.452366 -13.307386 -95.245899 -10.359728 -95.245899 C -4.6911542 -95.245899 -0.24124183 -93.715477 2.9898451 -90.654448 C 6.2776177 -87.593418 7.921327 -83.455306 7.921327 -78.240218 C 7.921327 -75.009132 7.04257 -72.118221 5.2853122 -69.567363 C 3.5847401 -67.016505 1.1755618 -65.032415 -1.9421536 -63.615271 C -5.0031833 -62.198128 -8.5176947 -61.489303 -12.485696 -61.489303 C -19.231299 -61.489303 -24.417583 -63.360105 -28.04547 -67.101363 C -31.616671 -70.842622 -33.402249 -76.255999 -33.402249 -83.341716 C -33.402249 -92.241376 -30.653207 -99.808775 -25.15469 -106.04421 C -19.599488 -112.33632 -11.578421 -116.95617 -1.0915596 -119.90383 z M -58.145958 -119.64906 C -51.513727 -119.64906 -46.440214 -117.15466 -42.925699 -112.16631 C -39.354497 -107.23465 -37.56892 -100.06428 -37.56892 -90.654448 C -37.56892 -81.244616 -39.354497 -74.017081 -42.925699 -68.97205 C -46.440214 -63.983706 -51.513727 -61.489303 -58.145958 -61.489303 C -64.778189 -61.489303 -69.879766 -63.983706 -73.450967 -68.97205 C -77.022168 -74.017081 -78.807746 -81.244616 -78.807746 -90.654448 C -78.807746 -100.00759 -77.022168 -107.17797 -73.450967 -112.16631 C -69.879766 -117.15466 -64.778189 -119.64906 -58.145958 -119.64906 z M -139.68827 -119.05375 L -135.43685 -118.969 C -129.42816 -118.85563 -126.25403 -118.79847 -125.91391 -118.79847 L -113.83972 -118.969 L -111.37372 -117.18306 L -112.13904 -110.72092 L -133.22613 -110.72092 L -134.41675 -96.521273 C -131.4691 -97.258188 -128.80476 -97.626632 -126.42396 -97.626632 C -120.81207 -97.626632 -116.24887 -96.124274 -112.73436 -93.11993 C -109.16316 -90.172272 -107.37758 -85.836165 -107.37758 -80.110905 C -107.37758 -76.539704 -108.22776 -73.336993 -109.92833 -70.502706 C -111.57221 -67.66842 -113.95333 -65.429173 -117.07104 -63.785287 C -120.18876 -62.198086 -123.8732 -61.404554 -128.12463 -61.404554 C -131.58246 -61.404554 -134.72853 -61.886286 -137.56282 -62.849943 C -140.34042 -63.813601 -142.5225 -65.14551 -144.1097 -66.846082 C -145.6969 -68.60334 -146.49095 -70.559366 -146.49095 -72.713424 C -146.49095 -74.980853 -145.86735 -76.709787 -144.62027 -77.900188 C -143.37318 -79.147274 -141.84224 -79.770358 -140.0283 -79.770358 C -139.00796 -79.770358 -137.98785 -79.572362 -136.9675 -79.175562 C -135.89047 -78.778762 -134.92701 -78.211805 -134.07672 -77.474891 C -134.5869 -76.28449 -134.84205 -75.037289 -134.84205 -73.733517 C -134.84205 -71.862888 -134.30316 -70.332466 -133.22613 -69.142066 C -132.09242 -67.951665 -130.39206 -67.356645 -128.12463 -67.356645 C -123.02292 -67.356645 -120.47187 -71.608045 -120.47187 -80.110905 C -120.47187 -84.135593 -121.2654 -87.054567 -122.8526 -88.86851 C -124.4398 -90.73914 -126.56576 -91.674541 -129.22999 -91.674541 C -130.87388 -91.674541 -132.63087 -91.36274 -134.5015 -90.739197 C -136.37213 -90.115654 -138.21436 -89.236897 -140.0283 -88.103182 L -144.70502 -92.609884 L -142.4943 -116.75776 L -139.68827 -119.05375 z M -58.145958 -115.31237 C -61.036931 -115.31237 -63.134309 -113.41351 -64.438081 -109.61556 C -65.685167 -105.81762 -66.308767 -99.497422 -66.308767 -90.654448 C -66.308767 -81.868159 -65.685167 -75.576025 -64.438081 -71.778081 C -63.134309 -68.036822 -61.036931 -66.16602 -58.145958 -66.16602 C -55.254986 -66.16602 -53.185671 -68.036822 -51.938585 -71.778081 C -50.634813 -75.576025 -49.983149 -81.868159 -49.983149 -90.654448 C -49.983149 -99.440737 -50.634813 -105.73287 -51.938585 -109.53081 C -53.185671 -113.38544 -55.254986 -115.31237 -58.145958 -115.31237 z M -91.987303 -101.28274 C -90.003303 -101.28274 -88.529525 -100.68772 -87.565868 -99.497319 C -86.545525 -98.363604 -86.035212 -96.776539 -86.035212 -94.735852 C -86.035212 -92.695166 -86.545525 -91.107584 -87.565868 -89.973869 C -88.529525 -88.840154 -90.003303 -88.273198 -91.987303 -88.273198 C -93.971304 -88.273198 -95.473662 -88.840154 -96.494005 -89.973869 C -97.457663 -91.16427 -97.939395 -92.751852 -97.939395 -94.735852 C -97.939395 -96.833225 -97.457663 -98.448354 -96.494005 -99.582068 C -95.473662 -100.71578 -93.971304 -101.28274 -91.987303 -101.28274 z M -12.740461 -89.293807 C -15.121262 -89.293807 -17.700372 -88.330343 -20.477973 -86.403028 L -20.477973 -85.297669 C -20.477973 -79.118924 -19.797728 -74.583787 -18.437271 -71.692814 C -17.076813 -68.801842 -14.922791 -67.356645 -11.975133 -67.356645 C -9.5376463 -67.356645 -7.6673611 -68.291529 -6.3635892 -70.162159 C -5.0598173 -72.032788 -4.4076362 -74.697123 -4.4076362 -78.154952 C -4.4076362 -81.669468 -5.1445249 -84.390447 -6.618354 -86.317762 C -8.0354974 -88.301762 -10.076231 -89.293807 -12.740461 -89.293807 z M -91.987303 -74.498845 C -90.003303 -74.498845 -88.529525 -73.903824 -87.565868 -72.713424 C -86.545525 -71.579709 -86.035212 -69.992127 -86.035212 -67.951441 C -86.035212 -65.910754 -86.545525 -64.323689 -87.565868 -63.189974 C -88.529525 -62.05626 -90.003303 -61.489303 -91.987303 -61.489303 C -93.971304 -61.489303 -95.473662 -62.05626 -96.494005 -63.189974 C -97.457663 -64.380375 -97.939395 -65.96744 -97.939395 -67.951441 C -97.939395 -70.048813 -97.457663 -71.664459 -96.494005 -72.798173 C -95.473662 -73.931888 -93.971304 -74.498845 -91.987303 -74.498845 z " /></g></svg>
