<?xml version="1.0" encoding="UTF-8" standalone="no"?>
<!-- Created with Inkscape (http://www.inkscape.org/) -->

<svg
   width="172.6701mm"
   height="172.6701mm"
   viewBox="0 0 172.6701 172.6701"
   version="1.1"
   id="svg1"
   xml:space="preserve"
   xmlns="http://www.w3.org/2000/svg"
   xmlns:svg="http://www.w3.org/2000/svg"><defs
     id="defs1" /><g
     id="layer1"
     transform="translate(157.25102,198.81012)"><path
       id="path5"
       style="fill:#ffffff;fill-opacity:1;stroke-width:0.805188;stroke-linecap:round;stroke-linejoin:round"
       d="M -2.0863309 -198.17657 L -10.088943 -183.11289 L -10.930235 -165.68398 L -19.198981 -165.68398 L -11.423229 -155.47426 L -12.166336 -140.07934 C -28.353216 -157.12094 -50.823548 -166.77435 -74.327399 -166.78417 C -103.64471 -166.77397 -130.92652 -151.79225 -146.66717 -127.05894 L -157.25102 -127.05894 L -149.61996 -115.86014 L -157.25102 -26.140039 L -8.5138455 -26.140039 L 15.419061 -26.140039 L 8.0799737 -154.80195 L 15.419061 -165.68398 L 7.4593397 -165.68398 L 6.4490654 -183.39297 L -2.0863309 -198.17657 z M -83.43072 -192.21621 C -85.584619 -189.65499 -86.77489 -186.4211 -86.795372 -183.07465 C -86.842092 -175.15518 -80.459903 -168.69733 -72.540428 -168.65072 C -64.621155 -168.60402 -58.163395 -174.98588 -58.116503 -182.90515 C -58.102813 -186.26049 -59.266203 -189.5144 -61.404157 -192.10045 C -60.83125 -190.6836 -60.536835 -189.16959 -60.537027 -187.64129 C -60.575787 -181.07411 -65.930869 -175.78172 -72.498054 -175.82031 C -79.065241 -175.85911 -84.357627 -181.21415 -84.319038 -187.78134 C -84.309338 -189.30285 -84.007827 -190.80837 -83.43072 -192.21621 z M -57.975943 -119.64906 C -51.343712 -119.64906 -46.270199 -117.15466 -42.755683 -112.16631 C -39.184482 -107.23465 -37.398904 -100.06428 -37.398904 -90.654448 C -37.398904 -81.244616 -39.184482 -74.017081 -42.755683 -68.97205 C -46.270199 -63.983706 -51.343712 -61.489303 -57.975943 -61.489303 C -64.608174 -61.489303 -69.70975 -63.983706 -73.280952 -68.97205 C -76.852153 -74.017081 -78.637731 -81.244616 -78.637731 -90.654448 C -78.637731 -100.00759 -76.852153 -107.17797 -73.280952 -112.16631 C -69.70975 -117.15466 -64.608174 -119.64906 -57.975943 -119.64906 z M -13.080492 -119.56379 C -6.3348894 -119.56379 -1.1766687 -117.69351 2.3945326 -113.95225 C 6.0224196 -110.21099 7.8365777 -104.7971 7.8365777 -97.711381 C 7.8365777 -88.811721 5.058955 -81.216258 -0.49624705 -74.924142 C -5.9947634 -68.688711 -13.987767 -64.09693 -24.474628 -61.149272 L -26.515331 -65.400692 C -20.846757 -67.838179 -16.283557 -70.956182 -12.825727 -74.754126 C -9.3678972 -78.608756 -7.0720068 -83.086732 -5.9382921 -88.188448 C -9.1126933 -86.601248 -12.202116 -85.807715 -15.20646 -85.807715 C -20.875034 -85.807715 -25.35301 -87.338137 -28.640782 -90.399166 C -31.871869 -93.460196 -33.487515 -97.598308 -33.487515 -102.8134 C -33.487515 -106.04448 -32.637338 -108.93539 -30.936766 -111.48625 C -29.179508 -114.03711 -26.77033 -116.0212 -23.7093 -117.43834 C -20.591585 -118.85549 -17.048493 -119.56379 -13.080492 -119.56379 z M -139.51825 -119.05375 L -135.26683 -118.969 C -129.25814 -118.85563 -126.08401 -118.79847 -125.7439 -118.79847 L -113.6697 -118.969 L -111.2037 -117.18306 L -111.96903 -110.72092 L -133.05611 -110.72092 L -134.24674 -96.521273 C -131.29908 -97.258188 -128.63475 -97.626632 -126.25395 -97.626632 C -120.64206 -97.626632 -116.07886 -96.124274 -112.56434 -93.11993 C -108.99314 -90.172272 -107.20756 -85.836165 -107.20756 -80.110905 C -107.20756 -76.539704 -108.05774 -73.336993 -109.75831 -70.502706 C -111.4022 -67.66842 -113.78331 -65.429173 -116.90103 -63.785287 C -120.01874 -62.198086 -123.70319 -61.404554 -127.95462 -61.404554 C -131.41245 -61.404554 -134.55851 -61.886286 -137.3928 -62.849943 C -140.1704 -63.813601 -142.35249 -65.14551 -143.93969 -66.846082 C -145.52689 -68.60334 -146.32042 -70.559366 -146.32042 -72.713424 C -146.32042 -74.980853 -145.69734 -76.709787 -144.45025 -77.900188 C -143.20316 -79.147274 -141.67223 -79.770358 -139.85828 -79.770358 C -138.83794 -79.770358 -137.81783 -79.572362 -136.79749 -79.175562 C -135.72046 -78.778762 -134.75699 -78.211805 -133.90671 -77.474891 C -134.41688 -76.28449 -134.67152 -75.037289 -134.67152 -73.733517 C -134.67152 -71.862888 -134.13314 -70.332466 -133.05611 -69.142066 C -131.9224 -67.951665 -130.22205 -67.356645 -127.95462 -67.356645 C -122.8529 -67.356645 -120.30185 -71.608045 -120.30185 -80.110905 C -120.30185 -84.135593 -121.09539 -87.054567 -122.68259 -88.86851 C -124.26979 -90.73914 -126.39575 -91.674541 -129.05998 -91.674541 C -130.70386 -91.674541 -132.46086 -91.36274 -134.33149 -90.739197 C -136.20212 -90.115654 -138.04434 -89.236897 -139.85828 -88.103182 L -144.535 -92.609884 L -142.32428 -116.75776 L -139.51825 -119.05375 z M -57.975943 -115.31237 C -60.866915 -115.31237 -62.964293 -113.41351 -64.268065 -109.61556 C -65.515151 -105.81762 -66.138752 -99.497422 -66.138752 -90.654448 C -66.138752 -81.868159 -65.515151 -75.576025 -64.268065 -71.778081 C -62.964293 -68.036822 -60.866915 -66.16602 -57.975943 -66.16602 C -55.08497 -66.16602 -53.015656 -68.036822 -51.76857 -71.778081 C -50.464798 -75.576025 -49.813133 -81.868159 -49.813133 -90.654448 C -49.813133 -99.440737 -50.464798 -105.73287 -51.76857 -109.53081 C -53.015656 -113.38544 -55.08497 -115.31237 -57.975943 -115.31237 z M -13.591055 -113.69697 C -16.028542 -113.69697 -17.898827 -112.76157 -19.202599 -110.89094 C -20.506371 -109.02031 -21.158552 -106.35597 -21.158552 -102.89814 C -21.158552 -99.383629 -20.449727 -96.634587 -19.032583 -94.650586 C -17.558754 -92.723271 -15.489957 -91.759807 -12.825727 -91.759807 C -10.501612 -91.759807 -7.9225016 -92.723271 -5.0882148 -94.650586 L -5.0882148 -95.755945 C -5.0882148 -101.93469 -5.7684595 -106.46931 -7.1289171 -109.36028 C -8.4893748 -112.25126 -10.643397 -113.69697 -13.591055 -113.69697 z M -91.817288 -101.28274 C -89.833287 -101.28274 -88.35951 -100.68772 -87.395852 -99.497319 C -86.375509 -98.363604 -85.865196 -96.776539 -85.865196 -94.735852 C -85.865196 -92.695166 -86.375509 -91.107584 -87.395852 -89.973869 C -88.35951 -88.840154 -89.833287 -88.273198 -91.817288 -88.273198 C -93.801289 -88.273198 -95.303646 -88.840154 -96.32399 -89.973869 C -97.287647 -91.16427 -97.769379 -92.751852 -97.769379 -94.735852 C -97.769379 -96.833225 -97.287647 -98.448354 -96.32399 -99.582068 C -95.303646 -100.71578 -93.801289 -101.28274 -91.817288 -101.28274 z M -91.817288 -74.498845 C -89.833287 -74.498845 -88.35951 -73.903824 -87.395852 -72.713424 C -86.375509 -71.579709 -85.865196 -69.992127 -85.865196 -67.951441 C -85.865196 -65.910754 -86.375509 -64.323689 -87.395852 -63.189974 C -88.35951 -62.05626 -89.833287 -61.489303 -91.817288 -61.489303 C -93.801289 -61.489303 -95.303646 -62.05626 -96.32399 -63.189974 C -97.287647 -64.380375 -97.769379 -65.96744 -97.769379 -67.951441 C -97.769379 -70.048813 -97.287647 -71.664459 -96.32399 -72.798173 C -95.303646 -73.931888 -93.801289 -74.498845 -91.817288 -74.498845 z " /></g></svg>
