<?xml version="1.0" encoding="UTF-8" standalone="no"?>
<!-- Created with Inkscape (http://www.inkscape.org/) -->

<svg
   width="172.6701mm"
   height="172.6701mm"
   viewBox="0 0 172.6701 172.6701"
   version="1.1"
   id="svg1"
   xml:space="preserve"
   xmlns="http://www.w3.org/2000/svg"
   xmlns:svg="http://www.w3.org/2000/svg"><defs
     id="defs1" /><g
     id="layer1"
     transform="translate(157.25102,198.81012)"><path
       id="path5"
       style="fill:#ffffff;fill-opacity:1;stroke-width:0.805188;stroke-linecap:round;stroke-linejoin:round"
       d="M -2.0863309 -198.17657 L -10.088943 -183.11289 L -10.930235 -165.68398 L -19.198981 -165.68398 L -11.423229 -155.47426 L -12.166336 -140.07934 C -28.353216 -157.12094 -50.823548 -166.77435 -74.327399 -166.78417 C -103.64471 -166.77397 -130.92652 -151.79225 -146.66717 -127.05894 L -157.25102 -127.05894 L -149.61996 -115.86014 L -157.25102 -26.140039 L -8.5138455 -26.140039 L 15.419061 -26.140039 L 8.0799737 -154.80195 L 15.419061 -165.68398 L 7.4593397 -165.68398 L 6.4490654 -183.39297 L -2.0863309 -198.17657 z M -83.43072 -192.21621 C -85.584619 -189.65499 -86.77489 -186.4211 -86.795372 -183.07465 C -86.842092 -175.15518 -80.459903 -168.69733 -72.540428 -168.65072 C -64.621155 -168.60402 -58.163395 -174.98588 -58.116503 -182.90515 C -58.102813 -186.26049 -59.266203 -189.5144 -61.404157 -192.10045 C -60.83125 -190.6836 -60.536835 -189.16959 -60.537027 -187.64129 C -60.575787 -181.07411 -65.930869 -175.78172 -72.498054 -175.82031 C -79.065241 -175.85911 -84.357627 -181.21415 -84.319038 -187.78134 C -84.309338 -189.30285 -84.007827 -190.80837 -83.43072 -192.21621 z M -15.801773 -119.64906 C -9.1695418 -119.64906 -4.0960287 -117.15466 -0.58151316 -112.16631 C 2.9896881 -107.23465 4.7752658 -100.06428 4.7752658 -90.654448 C 4.7752658 -81.244616 2.9896881 -74.017081 -0.58151316 -68.97205 C -4.0960287 -63.983706 -9.1695418 -61.489303 -15.801773 -61.489303 C -22.434004 -61.489303 -27.53558 -63.983706 -31.106782 -68.97205 C -34.677983 -74.017081 -36.463561 -81.244616 -36.463561 -90.654448 C -36.463561 -100.00759 -34.677983 -107.17797 -31.106782 -112.16631 C -27.53558 -117.15466 -22.434004 -119.64906 -15.801773 -119.64906 z M -53.979287 -119.13901 L -51.173774 -117.86364 L -51.173774 -68.716769 C -50.096745 -68.093226 -48.395875 -67.526269 -46.07176 -67.016097 C -43.747645 -66.562611 -41.905423 -66.279392 -40.544965 -66.16602 L -40.800247 -62.084615 L -75.491669 -62.084615 L -75.321654 -66.16602 C -70.276624 -66.732877 -66.422248 -67.583054 -63.758019 -68.716769 L -63.758019 -109.44555 L -75.151638 -109.44555 L -75.151638 -114.37703 C -71.523751 -114.66046 -67.782664 -115.19935 -63.928034 -115.99295 C -60.073404 -116.84324 -56.756888 -117.89193 -53.979287 -119.13901 z M -136.28744 -119.05375 L -132.03602 -118.969 C -126.02733 -118.85563 -122.85269 -118.79847 -122.51257 -118.79847 L -110.43837 -118.969 L -107.97289 -117.18306 L -108.73822 -110.72092 L -129.8253 -110.72092 L -131.01541 -96.521273 C -128.06775 -97.258188 -125.40342 -97.626632 -123.02262 -97.626632 C -117.41073 -97.626632 -112.84753 -96.124274 -109.33301 -93.11993 C -105.76181 -90.172272 -103.97624 -85.836165 -103.97624 -80.110905 C -103.97624 -76.539704 -104.82693 -73.336993 -106.5275 -70.502706 C -108.17139 -67.66842 -110.55199 -65.429173 -113.6697 -63.785287 C -116.78742 -62.198086 -120.47186 -61.404554 -124.72329 -61.404554 C -128.18112 -61.404554 -131.32719 -61.886286 -134.16147 -62.849943 C -136.93907 -63.813601 -139.12168 -65.14551 -140.70888 -66.846082 C -142.29608 -68.60334 -143.08961 -70.559366 -143.08961 -72.713424 C -143.08961 -74.980853 -142.46601 -76.709787 -141.21892 -77.900188 C -139.97184 -79.147274 -138.44142 -79.770358 -136.62747 -79.770358 C -135.60713 -79.770358 -134.5865 -79.572362 -133.56616 -79.175562 C -132.48913 -78.778762 -131.52567 -78.211805 -130.67538 -77.474891 C -131.18555 -76.28449 -131.44071 -75.037289 -131.44071 -73.733517 C -131.44071 -71.862888 -130.90233 -70.332466 -129.8253 -69.142066 C -128.69159 -67.951665 -126.99072 -67.356645 -124.72329 -67.356645 C -119.62157 -67.356645 -117.07104 -71.608045 -117.07104 -80.110905 C -117.07104 -84.135593 -117.86458 -87.054567 -119.45178 -88.86851 C -121.03898 -90.73914 -123.16442 -91.674541 -125.82865 -91.674541 C -127.47253 -91.674541 -129.23005 -91.36274 -131.10068 -90.739197 C -132.97131 -90.115654 -134.81353 -89.236897 -136.62747 -88.103182 L -141.30419 -92.609884 L -139.09347 -116.75776 L -136.28744 -119.05375 z M -15.801773 -115.31237 C -18.692745 -115.31237 -20.790123 -113.41351 -22.093895 -109.61556 C -23.340981 -105.81762 -23.964582 -99.497422 -23.964582 -90.654448 C -23.964582 -81.868159 -23.340981 -75.576025 -22.093895 -71.778081 C -20.790123 -68.036822 -18.692745 -66.16602 -15.801773 -66.16602 C -12.9108 -66.16602 -10.841486 -68.036822 -9.5943997 -71.778081 C -8.2906278 -75.576025 -7.6389635 -81.868159 -7.6389635 -90.654448 C -7.6389635 -99.440737 -8.2906278 -105.73287 -9.5943997 -109.53081 C -10.841486 -113.38544 -12.9108 -115.31237 -15.801773 -115.31237 z M -88.585961 -101.28274 C -86.60196 -101.28274 -85.128183 -100.68772 -84.164525 -99.497319 C -83.144182 -98.363604 -82.634386 -96.776539 -82.634386 -94.735852 C -82.634386 -92.695166 -83.144182 -91.107584 -84.164525 -89.973869 C -85.128183 -88.840154 -86.60196 -88.273198 -88.585961 -88.273198 C -90.569961 -88.273198 -92.072319 -88.840154 -93.092662 -89.973869 C -94.05632 -91.16427 -94.538052 -92.751852 -94.538052 -94.735852 C -94.538052 -96.833225 -94.05632 -98.448354 -93.092662 -99.582068 C -92.072319 -100.71578 -90.569961 -101.28274 -88.585961 -101.28274 z M -88.585961 -74.498845 C -86.60196 -74.498845 -85.128183 -73.903824 -84.164525 -72.713424 C -83.144182 -71.579709 -82.634386 -69.992127 -82.634386 -67.951441 C -82.634386 -65.910754 -83.144182 -64.323689 -84.164525 -63.189974 C -85.128183 -62.05626 -86.60196 -61.489303 -88.585961 -61.489303 C -90.569961 -61.489303 -92.072319 -62.05626 -93.092662 -63.189974 C -94.05632 -64.380375 -94.538052 -65.96744 -94.538052 -67.951441 C -94.538052 -70.048813 -94.05632 -71.664459 -93.092662 -72.798173 C -92.072319 -73.931888 -90.569961 -74.498845 -88.585961 -74.498845 z " /></g></svg>
