<?xml version="1.0" encoding="UTF-8" standalone="no"?>
<!-- Created with Inkscape (http://www.inkscape.org/) -->

<svg
   width="172.6701mm"
   height="172.6701mm"
   viewBox="0 0 172.6701 172.6701"
   version="1.1"
   id="svg1"
   xml:space="preserve"
   xmlns="http://www.w3.org/2000/svg"
   xmlns:svg="http://www.w3.org/2000/svg"><defs
     id="defs1" /><g
     id="layer1"
     transform="translate(157.25102,198.81012)"><path
       id="path5"
       style="fill:#ffffff;fill-opacity:1;stroke-width:0.805188;stroke-linecap:round;stroke-linejoin:round"
       d="M -2.0863309 -198.17657 L -10.088943 -183.11289 L -10.930235 -165.68398 L -19.198981 -165.68398 L -11.423229 -155.47426 L -12.166336 -140.07934 C -28.353216 -157.12094 -50.823548 -166.77435 -74.327399 -166.78417 C -103.64471 -166.77397 -130.92652 -151.79225 -146.66717 -127.05894 L -157.25102 -127.05894 L -149.61996 -115.86014 L -157.25102 -26.140039 L -8.5138455 -26.140039 L 15.419061 -26.140039 L 8.0799737 -154.80195 L 15.419061 -165.68398 L 7.4593397 -165.68398 L 6.4490654 -183.39297 L -2.0863309 -198.17657 z M -83.43072 -192.21621 C -85.584619 -189.65499 -86.77489 -186.4211 -86.795372 -183.07465 C -86.842092 -175.15518 -80.459903 -168.69733 -72.540428 -168.65072 C -64.621155 -168.60402 -58.163395 -174.98588 -58.116503 -182.90515 C -58.102813 -186.26049 -59.266203 -189.5144 -61.404157 -192.10045 C -60.83125 -190.6836 -60.536835 -189.16959 -60.537027 -187.64129 C -60.575787 -181.07411 -65.930869 -175.78172 -72.498054 -175.82031 C -79.065241 -175.85911 -84.357627 -181.21415 -84.319038 -187.78134 C -84.309338 -189.30285 -84.007827 -190.80837 -83.43072 -192.21621 z M -50.790852 -119.13901 L -47.984821 -117.86364 L -47.984821 -68.716769 C -46.907792 -68.093226 -45.207439 -67.526269 -42.883324 -67.016097 C -40.559209 -66.562611 -38.716987 -66.279392 -37.356529 -66.16602 L -37.611294 -62.084615 L -72.303234 -62.084615 L -72.133218 -66.16602 C -67.088188 -66.732877 -63.233296 -67.583054 -60.569066 -68.716769 L -60.569066 -109.44555 L -71.963203 -109.44555 L -71.963203 -114.37703 C -68.335316 -114.66046 -64.593712 -115.19935 -60.739082 -115.99295 C -56.884452 -116.84324 -53.568453 -117.89193 -50.790852 -119.13901 z M -11.848009 -119.13901 L -9.0419787 -117.86364 L -9.0419787 -68.716769 C -7.9649497 -68.093226 -6.2640796 -67.526269 -3.9399645 -67.016097 C -1.6158494 -66.562611 0.22637229 -66.279392 1.5868299 -66.16602 L 1.3315484 -62.084615 L -33.359874 -62.084615 L -33.189859 -66.16602 C -28.144828 -66.732877 -24.290453 -67.583054 -21.626223 -68.716769 L -21.626223 -109.44555 L -33.019843 -109.44555 L -33.019843 -114.37703 C -29.391956 -114.66046 -25.650869 -115.19935 -21.796239 -115.99295 C -17.941609 -116.84324 -14.62561 -117.89193 -11.848009 -119.13901 z M -133.09849 -119.05375 L -128.84707 -118.969 C -122.83838 -118.85563 -119.66425 -118.79847 -119.32414 -118.79847 L -107.24994 -118.969 L -104.78394 -117.18306 L -105.54927 -110.72092 L -126.63635 -110.72092 L -127.82698 -96.521273 C -124.87932 -97.258188 -122.21498 -97.626632 -119.83418 -97.626632 C -114.22229 -97.626632 -109.65909 -96.124274 -106.14458 -93.11993 C -102.57338 -90.172272 -100.7878 -85.836165 -100.7878 -80.110905 C -100.7878 -76.539704 -101.63798 -73.336993 -103.33855 -70.502706 C -104.98243 -67.66842 -107.36355 -65.429173 -110.48126 -63.785287 C -113.59898 -62.198086 -117.28342 -61.404554 -121.53485 -61.404554 C -124.99268 -61.404554 -128.13875 -61.886286 -130.97304 -62.849943 C -133.75064 -63.813601 -135.93272 -65.14551 -137.51992 -66.846082 C -139.10713 -68.60334 -139.90117 -70.559366 -139.90117 -72.713424 C -139.90117 -74.980853 -139.27757 -76.709787 -138.03049 -77.900188 C -136.7834 -79.147274 -135.25298 -79.770358 -133.43904 -79.770358 C -132.41869 -79.770358 -131.39807 -79.572362 -130.37772 -79.175562 C -129.3007 -78.778762 -128.33723 -78.211805 -127.48695 -77.474891 C -127.99712 -76.28449 -128.25227 -75.037289 -128.25227 -73.733517 C -128.25227 -71.862888 -127.71338 -70.332466 -126.63635 -69.142066 C -125.50264 -67.951665 -123.80228 -67.356645 -121.53485 -67.356645 C -116.43314 -67.356645 -113.88209 -71.608045 -113.88209 -80.110905 C -113.88209 -84.135593 -114.67562 -87.054567 -116.26282 -88.86851 C -117.85002 -90.73914 -119.97598 -91.674541 -122.64021 -91.674541 C -124.2841 -91.674541 -126.0411 -91.36274 -127.91173 -90.739197 C -129.78235 -90.115654 -131.62509 -89.236897 -133.43904 -88.103182 L -138.11524 -92.609884 L -135.90452 -116.75776 L -133.09849 -119.05375 z M -85.397525 -101.28274 C -83.413524 -101.28274 -81.939747 -100.68772 -80.976089 -99.497319 C -79.955746 -98.363604 -79.445433 -96.776539 -79.445433 -94.735852 C -79.445433 -92.695166 -79.955746 -91.107584 -80.976089 -89.973869 C -81.939747 -88.840154 -83.413524 -88.273198 -85.397525 -88.273198 C -87.381525 -88.273198 -88.883883 -88.840154 -89.904226 -89.973869 C -90.867884 -91.16427 -91.349616 -92.751852 -91.349616 -94.735852 C -91.349616 -96.833225 -90.867884 -98.448354 -89.904226 -99.582068 C -88.883883 -100.71578 -87.381525 -101.28274 -85.397525 -101.28274 z M -85.397525 -74.498845 C -83.413524 -74.498845 -81.939747 -73.903824 -80.976089 -72.713424 C -79.955746 -71.579709 -79.445433 -69.992127 -79.445433 -67.951441 C -79.445433 -65.910754 -79.955746 -64.323689 -80.976089 -63.189974 C -81.939747 -62.05626 -83.413524 -61.489303 -85.397525 -61.489303 C -87.381525 -61.489303 -88.883883 -62.05626 -89.904226 -63.189974 C -90.867884 -64.380375 -91.349616 -65.96744 -91.349616 -67.951441 C -91.349616 -70.048813 -90.867884 -71.664459 -89.904226 -72.798173 C -88.883883 -73.931888 -87.381525 -74.498845 -85.397525 -74.498845 z " /></g></svg>
