<?xml version="1.0" encoding="UTF-8" standalone="no"?>
<!-- Created with Inkscape (http://www.inkscape.org/) -->

<svg
   width="172.6701mm"
   height="172.6701mm"
   viewBox="0 0 172.6701 172.6701"
   version="1.1"
   id="svg1"
   xml:space="preserve"
   xmlns="http://www.w3.org/2000/svg"
   xmlns:svg="http://www.w3.org/2000/svg"><defs
     id="defs1" /><g
     id="layer1"
     transform="translate(157.25102,198.81012)"><path
       id="path5"
       style="fill:#ffffff;fill-opacity:1;stroke-width:0.805188;stroke-linecap:round;stroke-linejoin:round"
       d="M -2.0863309 -198.17657 L -10.088943 -183.11289 L -10.930235 -165.68398 L -19.198981 -165.68398 L -11.423229 -155.47426 L -12.166336 -140.07934 C -28.353216 -157.12094 -50.823548 -166.77435 -74.327399 -166.78417 C -103.64471 -166.77397 -130.92652 -151.79225 -146.66717 -127.05894 L -157.25102 -127.05894 L -149.61996 -115.86014 L -157.25102 -26.140039 L -8.5138455 -26.140039 L 15.419061 -26.140039 L 8.0799737 -154.80195 L 15.419061 -165.68398 L 7.4593397 -165.68398 L 6.4490654 -183.39297 L -2.0863309 -198.17657 z M -83.43072 -192.21621 C -85.584619 -189.65499 -86.77489 -186.4211 -86.795372 -183.07465 C -86.842092 -175.15518 -80.459903 -168.69733 -72.540428 -168.65072 C -64.621155 -168.60402 -58.163395 -174.98588 -58.116503 -182.90515 C -58.102813 -186.26049 -59.266203 -189.5144 -61.404157 -192.10045 C -60.83125 -190.6836 -60.536835 -189.16959 -60.537027 -187.64129 C -60.575787 -181.07411 -65.930869 -175.78172 -72.498054 -175.82031 C -79.065241 -175.85911 -84.357627 -181.21415 -84.319038 -187.78134 C -84.309338 -189.30285 -84.007827 -190.80837 -83.43072 -192.21621 z M -53.426866 -119.13901 L -50.620836 -117.86364 L -50.620836 -68.716769 C -49.543807 -68.093226 -47.843454 -67.526269 -45.519339 -67.016097 C -43.195224 -66.562611 -41.352485 -66.279392 -39.992027 -66.16602 L -40.247309 -62.084615 L -74.939248 -62.084615 L -74.769233 -66.16602 C -69.724202 -66.732877 -65.86931 -67.583054 -63.205081 -68.716769 L -63.205081 -109.44555 L -74.598701 -109.44555 L -74.598701 -114.37703 C -70.970814 -114.66046 -67.229726 -115.19935 -63.375096 -115.99295 C -59.520466 -116.84324 -56.204467 -117.89193 -53.426866 -119.13901 z M -135.7345 -119.05375 L -131.48308 -118.969 C -125.4744 -118.85563 -122.30027 -118.79847 -121.96015 -118.79847 L -109.88595 -118.969 L -107.41995 -117.18306 L -108.18528 -110.72092 L -129.27237 -110.72092 L -130.46299 -96.521273 C -127.51533 -97.258188 -124.851 -97.626632 -122.4702 -97.626632 C -116.85831 -97.626632 -112.29511 -96.124274 -108.78059 -93.11993 C -105.20939 -90.172272 -103.42381 -85.836165 -103.42381 -80.110905 C -103.42381 -76.539704 -104.27399 -73.336993 -105.97456 -70.502706 C -107.61845 -67.66842 -109.99905 -65.429173 -113.11676 -63.785287 C -116.23448 -62.198086 -119.91944 -61.404554 -124.17087 -61.404554 C -127.6287 -61.404554 -130.77477 -61.886286 -133.60905 -62.849943 C -136.38665 -63.813601 -138.56874 -65.14551 -140.15594 -66.846082 C -141.74314 -68.60334 -142.53667 -70.559366 -142.53667 -72.713424 C -142.53667 -74.980853 -141.91359 -76.709787 -140.6665 -77.900188 C -139.41942 -79.147274 -137.88848 -79.770358 -136.07453 -79.770358 C -135.05419 -79.770358 -134.03408 -79.572362 -133.01374 -79.175562 C -131.93671 -78.778762 -130.97273 -78.211805 -130.12244 -77.474891 C -130.63261 -76.28449 -130.88777 -75.037289 -130.88777 -73.733517 C -130.88777 -71.862888 -130.34939 -70.332466 -129.27237 -69.142066 C -128.13865 -67.951665 -126.4383 -67.356645 -124.17087 -67.356645 C -119.06915 -67.356645 -116.51811 -71.608045 -116.51811 -80.110905 C -116.51811 -84.135593 -117.31164 -87.054567 -118.89884 -88.86851 C -120.48604 -90.73914 -122.612 -91.674541 -125.27623 -91.674541 C -126.92011 -91.674541 -128.67711 -91.36274 -130.54774 -90.739197 C -132.41837 -90.115654 -134.26059 -89.236897 -136.07453 -88.103182 L -140.75125 -92.609884 L -138.54053 -116.75776 L -135.7345 -119.05375 z M -28.768423 -119.05375 L -24.517003 -118.969 C -18.508315 -118.85563 -15.334185 -118.79847 -14.99407 -118.79847 L -2.9198717 -118.969 L -0.45387238 -117.18306 L -1.2192003 -110.72092 L -22.306285 -110.72092 L -23.49691 -96.521273 C -20.549252 -97.258188 -17.884917 -97.626632 -15.504117 -97.626632 C -9.8922287 -97.626632 -5.3290284 -96.124274 -1.8145128 -93.11993 C 1.7566885 -90.172272 3.5422661 -85.836165 3.5422661 -80.110905 C 3.5422661 -76.539704 2.6920895 -73.336993 0.99151743 -70.502706 C -0.65236888 -67.66842 -3.0329668 -65.429173 -6.1506823 -63.785287 C -9.2683977 -62.198086 -12.953358 -61.404554 -17.204788 -61.404554 C -20.662618 -61.404554 -23.808685 -61.886286 -26.642971 -62.849943 C -29.420573 -63.813601 -31.602658 -65.14551 -33.189859 -66.846082 C -34.777059 -68.60334 -35.570592 -70.559366 -35.570592 -72.713424 C -35.570592 -74.980853 -34.946991 -76.709787 -33.699905 -77.900188 C -32.452819 -79.147274 -30.922398 -79.770358 -29.108454 -79.770358 C -28.088111 -79.770358 -27.068002 -79.572362 -26.047659 -79.175562 C -24.97063 -78.778762 -24.006649 -78.211805 -23.156363 -77.474891 C -23.666534 -76.28449 -23.921691 -75.037289 -23.921691 -73.733517 C -23.921691 -71.862888 -23.383314 -70.332466 -22.306285 -69.142066 C -21.172571 -67.951665 -19.472217 -67.356645 -17.204788 -67.356645 C -12.103072 -67.356645 -9.552025 -71.608045 -9.552025 -80.110905 C -9.552025 -84.135593 -10.345558 -87.054567 -11.932758 -88.86851 C -13.519959 -90.73914 -15.645917 -91.674541 -18.310147 -91.674541 C -19.954033 -91.674541 -21.71103 -91.36274 -23.58166 -90.739197 C -25.452289 -90.115654 -27.294511 -89.236897 -29.108454 -88.103182 L -33.785171 -92.609884 L -31.574453 -116.75776 L -28.768423 -119.05375 z M -88.03354 -101.28274 C -86.049539 -101.28274 -84.575761 -100.68772 -83.612104 -99.497319 C -82.591761 -98.363604 -82.081448 -96.776539 -82.081448 -94.735852 C -82.081448 -92.695166 -82.591761 -91.107584 -83.612104 -89.973869 C -84.575761 -88.840154 -86.049539 -88.273198 -88.03354 -88.273198 C -90.01754 -88.273198 -91.519898 -88.840154 -92.540241 -89.973869 C -93.503899 -91.16427 -93.985631 -92.751852 -93.985631 -94.735852 C -93.985631 -96.833225 -93.503899 -98.448354 -92.540241 -99.582068 C -91.519898 -100.71578 -90.01754 -101.28274 -88.03354 -101.28274 z M -88.03354 -74.498845 C -86.049539 -74.498845 -84.575761 -73.903824 -83.612104 -72.713424 C -82.591761 -71.579709 -82.081448 -69.992127 -82.081448 -67.951441 C -82.081448 -65.910754 -82.591761 -64.323689 -83.612104 -63.189974 C -84.575761 -62.05626 -86.049539 -61.489303 -88.03354 -61.489303 C -90.01754 -61.489303 -91.519898 -62.05626 -92.540241 -63.189974 C -93.503899 -64.380375 -93.985631 -65.96744 -93.985631 -67.951441 C -93.985631 -70.048813 -93.503899 -71.664459 -92.540241 -72.798173 C -91.519898 -73.931888 -90.01754 -74.498845 -88.03354 -74.498845 z " /></g></svg>
