<?xml version="1.0" encoding="UTF-8" standalone="no"?>
<!-- Created with Inkscape (http://www.inkscape.org/) -->

<svg
   width="172.6701mm"
   height="172.6701mm"
   viewBox="0 0 172.6701 172.6701"
   version="1.1"
   id="svg1"
   xml:space="preserve"
   xmlns="http://www.w3.org/2000/svg"
   xmlns:svg="http://www.w3.org/2000/svg"><defs
     id="defs1" /><g
     id="layer1"
     transform="translate(157.25102,198.81012)"><path
       id="path5"
       style="fill:#ffffff;fill-opacity:1;stroke-width:0.805188;stroke-linecap:round;stroke-linejoin:round"
       d="M -2.0863309 -198.17657 L -10.088943 -183.11289 L -10.930235 -165.68398 L -19.198981 -165.68398 L -11.423229 -155.47426 L -12.166336 -140.07934 C -28.353216 -157.12094 -50.823548 -166.77435 -74.327399 -166.78417 C -103.64471 -166.77397 -130.92652 -151.79225 -146.66717 -127.05894 L -157.25102 -127.05894 L -149.61996 -115.86014 L -157.25102 -26.140039 L -8.5138455 -26.140039 L 15.419061 -26.140039 L 8.0799737 -154.80195 L 15.419061 -165.68398 L 7.4593397 -165.68398 L 6.4490654 -183.39297 L -2.0863309 -198.17657 z M -83.43072 -192.21621 C -85.584619 -189.65499 -86.77489 -186.4211 -86.795372 -183.07465 C -86.842092 -175.15518 -80.459903 -168.69733 -72.540428 -168.65072 C -64.621155 -168.60402 -58.163395 -174.98588 -58.116503 -182.90515 C -58.102813 -186.26049 -59.266203 -189.5144 -61.404157 -192.10045 C -60.83125 -190.6836 -60.536835 -189.16959 -60.537027 -187.64129 C -60.575787 -181.07411 -65.930869 -175.78172 -72.498054 -175.82031 C -79.065241 -175.85911 -84.357627 -181.21415 -84.319038 -187.78134 C -84.309338 -189.30285 -84.007827 -190.80837 -83.43072 -192.21621 z M -4.2799954 -119.90383 L -2.2398099 -115.65241 C -13.690328 -110.72075 -20.577483 -103.12528 -22.901598 -92.865166 C -19.613825 -94.452366 -16.495822 -95.245899 -13.548164 -95.245899 C -7.87959 -95.245899 -3.4301945 -93.715477 -0.19910757 -90.654448 C 3.0886651 -87.593418 4.7328911 -83.455306 4.7328911 -78.240218 C 4.7328911 -75.009132 3.8541341 -72.118221 2.0968763 -69.567363 C 0.39630427 -67.016505 -2.0128741 -65.032415 -5.1305895 -63.615271 C -8.1916192 -62.198128 -11.706131 -61.489303 -15.674132 -61.489303 C -22.419734 -61.489303 -27.606535 -63.360105 -31.234423 -67.101363 C -34.805624 -70.842622 -36.591201 -76.255999 -36.591201 -83.341716 C -36.591201 -92.241376 -33.841642 -99.808775 -28.343126 -106.04421 C -22.787924 -112.33632 -14.766856 -116.95617 -4.2799954 -119.90383 z M -54.192194 -119.13901 L -51.386164 -117.86364 L -51.386164 -68.716769 C -50.309135 -68.093226 -48.608265 -67.526269 -46.28415 -67.016097 C -43.960035 -66.562611 -42.117813 -66.279392 -40.757355 -66.16602 L -41.012637 -62.084615 L -75.70406 -62.084615 L -75.534044 -66.16602 C -70.489014 -66.732877 -66.634638 -67.583054 -63.970409 -68.716769 L -63.970409 -109.44555 L -75.364029 -109.44555 L -75.364029 -114.37703 C -71.736142 -114.66046 -67.995054 -115.19935 -64.140424 -115.99295 C -60.285794 -116.84324 -56.969795 -117.89193 -54.192194 -119.13901 z M -136.49983 -119.05375 L -132.24841 -118.969 C -126.23972 -118.85563 -123.06508 -118.79847 -122.72496 -118.79847 L -110.65128 -118.969 L -108.18528 -117.18306 L -108.95061 -110.72092 L -130.03769 -110.72092 L -131.2278 -96.521273 C -128.28014 -97.258188 -125.61633 -97.626632 -123.23553 -97.626632 C -117.62364 -97.626632 -113.06044 -96.124274 -109.54592 -93.11993 C -105.97472 -90.172272 -104.18914 -85.836165 -104.18914 -80.110905 C -104.18914 -76.539704 -105.03932 -73.336993 -106.73989 -70.502706 C -108.38378 -67.66842 -110.76438 -65.429173 -113.88209 -63.785287 C -116.99981 -62.198086 -120.68477 -61.404554 -124.9362 -61.404554 C -128.39403 -61.404554 -131.53958 -61.886286 -134.37386 -62.849943 C -137.15146 -63.813601 -139.33407 -65.14551 -140.92127 -66.846082 C -142.50847 -68.60334 -143.302 -70.559366 -143.302 -72.713424 C -143.302 -74.980853 -142.6784 -76.709787 -141.43131 -77.900188 C -140.18423 -79.147274 -138.65381 -79.770358 -136.83986 -79.770358 C -135.81952 -79.770358 -134.79941 -79.572362 -133.77907 -79.175562 C -132.70204 -78.778762 -131.73806 -78.211805 -130.88777 -77.474891 C -131.39794 -76.28449 -131.6531 -75.037289 -131.6531 -73.733517 C -131.6531 -71.862888 -131.11472 -70.332466 -130.03769 -69.142066 C -128.90398 -67.951665 -127.20363 -67.356645 -124.9362 -67.356645 C -119.83448 -67.356645 -117.28343 -71.608045 -117.28343 -80.110905 C -117.28343 -84.135593 -118.07697 -87.054567 -119.66417 -88.86851 C -121.25137 -90.73914 -123.37733 -91.674541 -126.04156 -91.674541 C -127.68544 -91.674541 -129.44244 -91.36274 -131.31307 -90.739197 C -133.1837 -90.115654 -135.02592 -89.236897 -136.83986 -88.103182 L -141.51658 -92.609884 L -139.30586 -116.75776 L -136.49983 -119.05375 z M -88.798867 -101.28274 C -86.814867 -101.28274 -85.341089 -100.68772 -84.377432 -99.497319 C -83.357089 -98.363604 -82.846776 -96.776539 -82.846776 -94.735852 C -82.846776 -92.695166 -83.357089 -91.107584 -84.377432 -89.973869 C -85.341089 -88.840154 -86.814867 -88.273198 -88.798867 -88.273198 C -90.782868 -88.273198 -92.284709 -88.840154 -93.305052 -89.973869 C -94.26871 -91.16427 -94.750959 -92.751852 -94.750959 -94.735852 C -94.750959 -96.833225 -94.26871 -98.448354 -93.305052 -99.582068 C -92.284709 -100.71578 -90.782868 -101.28274 -88.798867 -101.28274 z M -15.929414 -89.293807 C -18.310214 -89.293807 -20.889325 -88.330343 -23.666926 -86.403028 L -23.666926 -85.297669 C -23.666926 -79.118924 -22.986681 -74.583787 -21.626223 -71.692814 C -20.265766 -68.801842 -18.111744 -67.356645 -15.164086 -67.356645 C -12.726599 -67.356645 -10.855797 -68.291529 -9.552025 -70.162159 C -8.2482531 -72.032788 -7.5965888 -74.697123 -7.5965888 -78.154952 C -7.5965888 -81.669468 -8.3334775 -84.390447 -9.8073066 -86.317762 C -11.22445 -88.301762 -13.265184 -89.293807 -15.929414 -89.293807 z M -88.798867 -74.498845 C -86.814867 -74.498845 -85.341089 -73.903824 -84.377432 -72.713424 C -83.357089 -71.579709 -82.846776 -69.992127 -82.846776 -67.951441 C -82.846776 -65.910754 -83.357089 -64.323689 -84.377432 -63.189974 C -85.341089 -62.05626 -86.814867 -61.489303 -88.798867 -61.489303 C -90.782868 -61.489303 -92.284709 -62.05626 -93.305052 -63.189974 C -94.26871 -64.380375 -94.750959 -65.96744 -94.750959 -67.951441 C -94.750959 -70.048813 -94.26871 -71.664459 -93.305052 -72.798173 C -92.284709 -73.931888 -90.782868 -74.498845 -88.798867 -74.498845 z " /></g></svg>
