<?xml version="1.0" encoding="UTF-8" standalone="no"?>
<!-- Created with Inkscape (http://www.inkscape.org/) -->

<svg
   width="172.6701mm"
   height="172.6701mm"
   viewBox="0 0 172.6701 172.6701"
   version="1.1"
   id="svg1"
   xml:space="preserve"
   xmlns="http://www.w3.org/2000/svg"
   xmlns:svg="http://www.w3.org/2000/svg"><defs
     id="defs1" /><g
     id="layer1"
     transform="translate(157.25102,198.81012)"><path
       id="path5"
       style="fill:#ffffff;fill-opacity:1;stroke-width:0.805188;stroke-linecap:round;stroke-linejoin:round"
       d="M -2.0863309 -198.17657 L -10.088943 -183.11289 L -10.930235 -165.68398 L -19.198981 -165.68398 L -11.423229 -155.47426 L -12.166336 -140.07934 C -28.353216 -157.12094 -50.823548 -166.77435 -74.327399 -166.78417 C -103.64471 -166.77397 -130.92652 -151.79225 -146.66717 -127.05894 L -157.25102 -127.05894 L -149.61996 -115.86014 L -157.25102 -26.140039 L -8.5138455 -26.140039 L 15.419061 -26.140039 L 8.0799737 -154.80195 L 15.419061 -165.68398 L 7.4593397 -165.68398 L 6.4490654 -183.39297 L -2.0863309 -198.17657 z M -83.43072 -192.21621 C -85.584619 -189.65499 -86.77489 -186.4211 -86.795372 -183.07465 C -86.842092 -175.15518 -80.459903 -168.69733 -72.540428 -168.65072 C -64.621155 -168.60402 -58.163395 -174.98588 -58.116503 -182.90515 C -58.102813 -186.26049 -59.266203 -189.5144 -61.404157 -192.10045 C -60.83125 -190.6836 -60.536835 -189.16959 -60.537027 -187.64129 C -60.575787 -181.07411 -65.930869 -175.78172 -72.498054 -175.82031 C -79.065241 -175.85911 -84.357627 -181.21415 -84.319038 -187.78134 C -84.309338 -189.30285 -84.007827 -190.80837 -83.43072 -192.21621 z M -52.321507 -119.13901 L -49.515477 -117.86364 L -49.515477 -68.716769 C -48.438448 -68.093226 -46.738095 -67.526269 -44.41398 -67.016097 C -42.089865 -66.562611 -40.247126 -66.279392 -38.886669 -66.16602 L -39.14195 -62.084615 L -73.833373 -62.084615 L -73.663357 -66.16602 C -68.618327 -66.732877 -64.763952 -67.583054 -62.099722 -68.716769 L -62.099722 -109.44555 L -73.493342 -109.44555 L -73.493342 -114.37703 C -69.865455 -114.66046 -66.124367 -115.19935 -62.269737 -115.99295 C -58.415107 -116.84324 -55.099108 -117.89193 -52.321507 -119.13901 z M -134.62915 -119.05375 L -130.37772 -118.969 C -124.36904 -118.85563 -121.19491 -118.79847 -120.85479 -118.79847 L -108.78059 -118.969 L -106.31459 -117.18306 L -107.07992 -110.72092 L -128.16701 -110.72092 L -129.35763 -96.521273 C -126.40997 -97.258188 -123.74564 -97.626632 -121.36484 -97.626632 C -115.75295 -97.626632 -111.18975 -96.124274 -107.67523 -93.11993 C -104.10403 -90.172272 -102.31846 -85.836165 -102.31846 -80.110905 C -102.31846 -76.539704 -103.16863 -73.336993 -104.8692 -70.502706 C -106.51309 -67.66842 -108.89369 -65.429173 -112.0114 -63.785287 C -115.12912 -62.198086 -118.81408 -61.404554 -123.06551 -61.404554 C -126.52334 -61.404554 -129.66941 -61.886286 -132.50369 -62.849943 C -135.28129 -63.813601 -137.46338 -65.14551 -139.05058 -66.846082 C -140.63778 -68.60334 -141.43131 -70.559366 -141.43131 -72.713424 C -141.43131 -74.980853 -140.80771 -76.709787 -139.56063 -77.900188 C -138.31354 -79.147274 -136.78312 -79.770358 -134.96918 -79.770358 C -133.94883 -79.770358 -132.92872 -79.572362 -131.90838 -79.175562 C -130.83135 -78.778762 -129.86737 -78.211805 -129.01708 -77.474891 C -129.52726 -76.28449 -129.78241 -75.037289 -129.78241 -73.733517 C -129.78241 -71.862888 -129.24404 -70.332466 -128.16701 -69.142066 C -127.03329 -67.951665 -125.33294 -67.356645 -123.06551 -67.356645 C -117.96379 -67.356645 -115.41275 -71.608045 -115.41275 -80.110905 C -115.41275 -84.135593 -116.20628 -87.054567 -117.79348 -88.86851 C -119.38068 -90.73914 -121.50664 -91.674541 -124.17087 -91.674541 C -125.81475 -91.674541 -127.57175 -91.36274 -129.44238 -90.739197 C -131.31301 -90.115654 -133.15523 -89.236897 -134.96918 -88.103182 L -139.64589 -92.609884 L -137.43518 -116.75776 L -134.62915 -119.05375 z M -34.465233 -118.88373 L -30.299079 -118.88373 C -28.145021 -118.82705 -23.439952 -118.79847 -16.184178 -118.79847 C -8.6449756 -118.79847 -3.7419113 -118.82705 -1.4744819 -118.88373 L 2.6069227 -118.88373 L 4.3075941 -115.22762 C 3.2305651 -113.52705 1.1898311 -109.84261 -1.8145128 -104.17404 C -4.8188568 -98.505463 -7.6531235 -92.496548 -10.317353 -86.147746 C -12.981583 -79.798944 -14.313492 -74.838719 -14.313492 -71.267517 C -14.313492 -68.433231 -13.321447 -66.307789 -11.337446 -64.890646 C -13.264761 -62.566531 -15.730583 -61.404554 -18.734927 -61.404554 C -21.512528 -61.404554 -23.66655 -62.169506 -25.197065 -63.700021 C -26.72758 -65.230536 -27.493049 -67.356494 -27.493049 -70.077409 C -27.493049 -73.478553 -26.670936 -77.077772 -25.027049 -80.875717 C -23.383163 -84.730347 -20.435608 -89.945728 -16.184178 -96.521273 L -6.1506823 -111.9963 L -25.537613 -111.9963 C -26.331213 -109.44544 -26.812945 -106.44124 -26.983002 -102.98341 C -28.003346 -102.81335 -29.052035 -102.72813 -30.129064 -102.72813 C -31.262778 -102.72813 -32.368111 -102.81335 -33.44514 -102.98341 L -35.825874 -117.60836 L -34.465233 -118.88373 z M -86.928181 -101.28274 C -84.94418 -101.28274 -83.470403 -100.68772 -82.506745 -99.497319 C -81.486402 -98.363604 -80.976089 -96.776539 -80.976089 -94.735852 C -80.976089 -92.695166 -81.486402 -91.107584 -82.506745 -89.973869 C -83.470403 -88.840154 -84.94418 -88.273198 -86.928181 -88.273198 C -88.912181 -88.273198 -90.414022 -88.840154 -91.434366 -89.973869 C -92.398023 -91.16427 -92.880272 -92.751852 -92.880272 -94.735852 C -92.880272 -96.833225 -92.398023 -98.448354 -91.434366 -99.582068 C -90.414022 -100.71578 -88.912181 -101.28274 -86.928181 -101.28274 z M -86.928181 -74.498845 C -84.94418 -74.498845 -83.470403 -73.903824 -82.506745 -72.713424 C -81.486402 -71.579709 -80.976089 -69.992127 -80.976089 -67.951441 C -80.976089 -65.910754 -81.486402 -64.323689 -82.506745 -63.189974 C -83.470403 -62.05626 -84.94418 -61.489303 -86.928181 -61.489303 C -88.912181 -61.489303 -90.414022 -62.05626 -91.434366 -63.189974 C -92.398023 -64.380375 -92.880272 -65.96744 -92.880272 -67.951441 C -92.880272 -70.048813 -92.398023 -71.664459 -91.434366 -72.798173 C -90.414022 -73.931888 -88.912181 -74.498845 -86.928181 -74.498845 z " /></g></svg>
