<?xml version="1.0" encoding="UTF-8" standalone="no"?>
<!-- Created with Inkscape (http://www.inkscape.org/) -->

<svg
   width="172.6701mm"
   height="172.6701mm"
   viewBox="0 0 172.6701 172.6701"
   version="1.1"
   id="svg1"
   xml:space="preserve"
   xmlns="http://www.w3.org/2000/svg"
   xmlns:svg="http://www.w3.org/2000/svg"><defs
     id="defs1" /><g
     id="layer1"
     transform="translate(157.25102,198.81012)"><path
       id="path5"
       style="fill:#ffffff;fill-opacity:1;stroke-width:0.805188;stroke-linecap:round;stroke-linejoin:round"
       d="M -2.0863309 -198.17657 L -10.088943 -183.11289 L -10.930235 -165.68398 L -19.198981 -165.68398 L -11.423229 -155.47426 L -12.166336 -140.07934 C -28.353216 -157.12094 -50.823548 -166.77435 -74.327399 -166.78417 C -103.64471 -166.77397 -130.92652 -151.79225 -146.66717 -127.05894 L -157.25102 -127.05894 L -149.61996 -115.86014 L -157.25102 -26.140039 L -8.5138455 -26.140039 L 15.419061 -26.140039 L 8.0799737 -154.80195 L 15.419061 -165.68398 L 7.4593397 -165.68398 L 6.4490654 -183.39297 L -2.0863309 -198.17657 z M -83.43072 -192.21621 C -85.584619 -189.65499 -86.77489 -186.4211 -86.795372 -183.07465 C -86.842092 -175.15518 -80.459903 -168.69733 -72.540428 -168.65072 C -64.621155 -168.60402 -58.163395 -174.98588 -58.116503 -182.90515 C -58.102813 -186.26049 -59.266203 -189.5144 -61.404157 -192.10045 C -60.83125 -190.6836 -60.536835 -189.16959 -60.537027 -187.64129 C -60.575787 -181.07411 -65.930869 -175.78172 -72.498054 -175.82031 C -79.065241 -175.85911 -84.357627 -181.21415 -84.319038 -187.78134 C -84.309338 -189.30285 -84.007827 -190.80837 -83.43072 -192.21621 z M -16.269444 -119.56379 C -9.523842 -119.56379 -4.3651046 -117.69351 -0.7939033 -113.95225 C 2.8339837 -110.21099 4.647625 -104.7971 4.647625 -97.711381 C 4.647625 -88.811721 1.8700023 -81.216258 -3.6851997 -74.924142 C -9.183716 -68.688711 -17.176203 -64.09693 -27.663064 -61.149272 L -29.703767 -65.400692 C -24.035193 -67.838179 -19.471993 -70.956182 -16.014163 -74.754126 C -12.556333 -78.608756 -10.260443 -83.086732 -9.126728 -88.188448 C -12.301129 -86.601248 -15.390552 -85.807715 -18.394896 -85.807715 C -24.06347 -85.807715 -28.541962 -87.338137 -31.829735 -90.399166 C -35.060822 -93.460196 -36.675951 -97.598308 -36.675951 -102.8134 C -36.675951 -106.04448 -35.825774 -108.93539 -34.125202 -111.48625 C -32.367944 -114.03711 -29.958766 -116.0212 -26.897736 -117.43834 C -23.780021 -118.85549 -20.237446 -119.56379 -16.269444 -119.56379 z M -54.022179 -119.13901 L -51.216149 -117.86364 L -51.216149 -68.716769 C -50.13912 -68.093226 -48.43825 -67.526269 -46.114134 -67.016097 C -43.790019 -66.562611 -41.947798 -66.279392 -40.58734 -66.16602 L -40.842622 -62.084615 L -75.534044 -62.084615 L -75.364029 -66.16602 C -70.318998 -66.732877 -66.464623 -67.583054 -63.800393 -68.716769 L -63.800393 -109.44555 L -75.194013 -109.44555 L -75.194013 -114.37703 C -71.566126 -114.66046 -67.825039 -115.19935 -63.970409 -115.99295 C -60.115779 -116.84324 -56.79978 -117.89193 -54.022179 -119.13901 z M -136.32982 -119.05375 L -132.0784 -118.969 C -126.06971 -118.85563 -122.89506 -118.79847 -122.55495 -118.79847 L -110.48126 -118.969 L -108.01527 -117.18306 L -108.78059 -110.72092 L -129.86768 -110.72092 L -131.05779 -96.521273 C -128.11013 -97.258188 -125.44631 -97.626632 -123.06551 -97.626632 C -117.45362 -97.626632 -112.89042 -96.124274 -109.37591 -93.11993 C -105.8047 -90.172272 -104.01913 -85.836165 -104.01913 -80.110905 C -104.01913 -76.539704 -104.8693 -73.336993 -106.56988 -70.502706 C -108.21376 -67.66842 -110.59436 -65.429173 -113.71208 -63.785287 C -116.82979 -62.198086 -120.51423 -61.404554 -124.76566 -61.404554 C -128.22349 -61.404554 -131.36956 -61.886286 -134.20385 -62.849943 C -136.98145 -63.813601 -139.16405 -65.14551 -140.75125 -66.846082 C -142.33845 -68.60334 -143.13199 -70.559366 -143.13199 -72.713424 C -143.13199 -74.980853 -142.50838 -76.709787 -141.2613 -77.900188 C -140.01421 -79.147274 -138.48379 -79.770358 -136.66985 -79.770358 C -135.6495 -79.770358 -134.6294 -79.572362 -133.60905 -79.175562 C -132.53202 -78.778762 -131.56804 -78.211805 -130.71776 -77.474891 C -131.22793 -76.28449 -131.48308 -75.037289 -131.48308 -73.733517 C -131.48308 -71.862888 -130.94471 -70.332466 -129.86768 -69.142066 C -128.73396 -67.951665 -127.03309 -67.356645 -124.76566 -67.356645 C -119.66395 -67.356645 -117.11342 -71.608045 -117.11342 -80.110905 C -117.11342 -84.135593 -117.90695 -87.054567 -119.49415 -88.86851 C -121.08135 -90.73914 -123.20679 -91.674541 -125.87102 -91.674541 C -127.51491 -91.674541 -129.27242 -91.36274 -131.14305 -90.739197 C -133.01368 -90.115654 -134.8559 -89.236897 -136.66985 -88.103182 L -141.34656 -92.609884 L -139.13585 -116.75776 L -136.32982 -119.05375 z M -16.779491 -113.69697 C -19.216977 -113.69697 -21.08778 -112.76157 -22.391551 -110.89094 C -23.695323 -109.02031 -24.346988 -106.35597 -24.346988 -102.89814 C -24.346988 -99.383629 -23.638679 -96.634587 -22.221536 -94.650586 C -20.747707 -92.723271 -18.678392 -91.759807 -16.014163 -91.759807 C -13.690048 -91.759807 -11.110937 -92.723271 -8.2766507 -94.650586 L -8.2766507 -95.755945 C -8.2766507 -101.93469 -8.9568954 -106.46931 -10.317353 -109.36028 C -11.677811 -112.25126 -13.831833 -113.69697 -16.779491 -113.69697 z M -88.628852 -101.28274 C -86.644851 -101.28274 -85.171074 -100.68772 -84.207416 -99.497319 C -83.187073 -98.363604 -82.676761 -96.776539 -82.676761 -94.735852 C -82.676761 -92.695166 -83.187073 -91.107584 -84.207416 -89.973869 C -85.171074 -88.840154 -86.644851 -88.273198 -88.628852 -88.273198 C -90.612853 -88.273198 -92.114694 -88.840154 -93.135037 -89.973869 C -94.098694 -91.16427 -94.580944 -92.751852 -94.580944 -94.735852 C -94.580944 -96.833225 -94.098694 -98.448354 -93.135037 -99.582068 C -92.114694 -100.71578 -90.612853 -101.28274 -88.628852 -101.28274 z M -88.628852 -74.498845 C -86.644851 -74.498845 -85.171074 -73.903824 -84.207416 -72.713424 C -83.187073 -71.579709 -82.676761 -69.992127 -82.676761 -67.951441 C -82.676761 -65.910754 -83.187073 -64.323689 -84.207416 -63.189974 C -85.171074 -62.05626 -86.644851 -61.489303 -88.628852 -61.489303 C -90.612853 -61.489303 -92.114694 -62.05626 -93.135037 -63.189974 C -94.098694 -64.380375 -94.580944 -65.96744 -94.580944 -67.951441 C -94.580944 -70.048813 -94.098694 -71.664459 -93.135037 -72.798173 C -92.114694 -73.931888 -90.612853 -74.498845 -88.628852 -74.498845 z " /></g></svg>
