<?xml version="1.0" encoding="UTF-8" standalone="no"?>
<!-- Created with Inkscape (http://www.inkscape.org/) -->

<svg
   width="172.6701mm"
   height="172.6701mm"
   viewBox="0 0 172.6701 172.6701"
   version="1.1"
   id="svg1"
   xml:space="preserve"
   xmlns="http://www.w3.org/2000/svg"
   xmlns:svg="http://www.w3.org/2000/svg"><defs
     id="defs1" /><g
     id="layer1"
     transform="translate(157.25102,198.81012)"><path
       id="path5"
       style="fill:#ffffff;fill-opacity:1;stroke-width:0.805188;stroke-linecap:round;stroke-linejoin:round"
       d="M -2.0863309 -198.17657 L -10.088943 -183.11289 L -10.930235 -165.68398 L -19.198981 -165.68398 L -11.423229 -155.47426 L -12.166336 -140.07934 C -28.353216 -157.12094 -50.823548 -166.77435 -74.327399 -166.78417 C -103.64471 -166.77397 -130.92652 -151.79225 -146.66717 -127.05894 L -157.25102 -127.05894 L -149.61996 -115.86014 L -157.25102 -26.140039 L -8.5138455 -26.140039 L 15.419061 -26.140039 L 8.0799737 -154.80195 L 15.419061 -165.68398 L 7.4593397 -165.68398 L 6.4490654 -183.39297 L -2.0863309 -198.17657 z M -83.43072 -192.21621 C -85.584619 -189.65499 -86.77489 -186.4211 -86.795372 -183.07465 C -86.842092 -175.15518 -80.459903 -168.69733 -72.540428 -168.65072 C -64.621155 -168.60402 -58.163395 -174.98588 -58.116503 -182.90515 C -58.102813 -186.26049 -59.266203 -189.5144 -61.404157 -192.10045 C -60.83125 -190.6836 -60.536835 -189.16959 -60.537027 -187.64129 C -60.575787 -181.07411 -65.930869 -175.78172 -72.498054 -175.82031 C -79.065241 -175.85911 -84.357627 -181.21415 -84.319038 -187.78134 C -84.309338 -189.30285 -84.007827 -190.80837 -83.43072 -192.21621 z M -58.61363 -119.73381 C -52.774999 -119.73381 -48.126574 -118.28861 -44.668745 -115.39764 C -41.210915 -112.56335 -39.481981 -108.56711 -39.481981 -103.40871 C -39.481981 -98.873849 -41.210915 -94.026912 -44.668745 -88.86851 C -48.126574 -83.766794 -53.823688 -77.616529 -61.759691 -70.41744 L -38.886669 -70.41744 L -38.886669 -62.084615 L -77.404731 -62.084615 L -77.404731 -67.016097 C -71.112614 -73.081471 -66.20955 -78.268272 -62.695034 -82.576388 C -59.180519 -86.884504 -56.658053 -90.852684 -55.127538 -94.480571 C -53.540337 -98.108458 -52.746805 -101.84955 -52.746805 -105.70418 C -52.746805 -111.82623 -54.787022 -114.88759 -58.868395 -114.88759 C -60.682338 -114.88759 -62.156632 -114.0369 -63.290347 -112.33633 C -64.424062 -110.69244 -64.990502 -108.65171 -64.990502 -106.21422 C -64.990502 -104.51365 -64.395481 -102.89852 -63.205081 -101.36801 C -64.168738 -100.46103 -65.274071 -99.752209 -66.521158 -99.242037 C -67.711558 -98.731866 -68.902115 -98.476709 -70.092516 -98.476709 C -72.133202 -98.476709 -73.833556 -99.10031 -75.194013 -100.3474 C -76.554471 -101.65117 -77.234715 -103.52197 -77.234715 -105.95946 C -77.234715 -108.567 -76.469763 -110.91953 -74.939248 -113.01691 C -73.408734 -115.11428 -71.254712 -116.75799 -68.47711 -117.94839 C -65.642824 -119.13879 -62.354888 -119.73381 -58.61363 -119.73381 z M -13.718696 -119.64906 C -7.0864648 -119.64906 -2.0129518 -117.15466 1.5015638 -112.16631 C 5.0727651 -107.23465 6.8583428 -100.06428 6.8583428 -90.654448 C 6.8583428 -81.244616 5.0727651 -74.017081 1.5015638 -68.97205 C -2.0129518 -63.983706 -7.0864648 -61.489303 -13.718696 -61.489303 C -20.350927 -61.489303 -25.452503 -63.983706 -29.023705 -68.97205 C -32.594906 -74.017081 -34.380484 -81.244616 -34.380484 -90.654448 C -34.380484 -100.00759 -32.594906 -107.17797 -29.023705 -112.16631 C -25.452503 -117.15466 -20.350927 -119.64906 -13.718696 -119.64906 z M -138.37052 -119.05375 L -134.1191 -118.969 C -128.11041 -118.85563 -124.93576 -118.79847 -124.59565 -118.79847 L -112.52197 -118.969 L -110.05597 -117.18306 L -110.8213 -110.72092 L -131.90838 -110.72092 L -133.09849 -96.521273 C -130.15083 -97.258188 -127.48701 -97.626632 -125.10621 -97.626632 C -119.49432 -97.626632 -114.93112 -96.124274 -111.41661 -93.11993 C -107.84541 -90.172272 -106.05983 -85.836165 -106.05983 -80.110905 C -106.05983 -76.539704 -106.91001 -73.336993 -108.61058 -70.502706 C -110.25446 -67.66842 -112.63506 -65.429173 -115.75278 -63.785287 C -118.87049 -62.198086 -122.55494 -61.404554 -126.80637 -61.404554 C -130.2642 -61.404554 -133.41026 -61.886286 -136.24455 -62.849943 C -139.02215 -63.813601 -141.20475 -65.14551 -142.79195 -66.846082 C -144.37915 -68.60334 -145.17269 -70.559366 -145.17269 -72.713424 C -145.17269 -74.980853 -144.54909 -76.709787 -143.302 -77.900188 C -142.05491 -79.147274 -140.52449 -79.770358 -138.71055 -79.770358 C -137.69021 -79.770358 -136.6701 -79.572362 -135.64975 -79.175562 C -134.57273 -78.778762 -133.60874 -78.211805 -132.75846 -77.474891 C -133.26863 -76.28449 -133.52379 -75.037289 -133.52379 -73.733517 C -133.52379 -71.862888 -132.98541 -70.332466 -131.90838 -69.142066 C -130.77467 -67.951665 -129.0738 -67.356645 -126.80637 -67.356645 C -121.70465 -67.356645 -119.15412 -71.608045 -119.15412 -80.110905 C -119.15412 -84.135593 -119.94765 -87.054567 -121.53485 -88.86851 C -123.12205 -90.73914 -125.2475 -91.674541 -127.91173 -91.674541 C -129.55561 -91.674541 -131.31313 -91.36274 -133.18376 -90.739197 C -135.05438 -90.115654 -136.89661 -89.236897 -138.71055 -88.103182 L -143.38727 -92.609884 L -141.17655 -116.75776 L -138.37052 -119.05375 z M -13.718696 -115.31237 C -16.609668 -115.31237 -18.707046 -113.41351 -20.010818 -109.61556 C -21.257904 -105.81762 -21.880988 -99.497422 -21.880988 -90.654448 C -21.880988 -81.868159 -21.257904 -75.576025 -20.010818 -71.778081 C -18.707046 -68.036822 -16.609668 -66.16602 -13.718696 -66.16602 C -10.827723 -66.16602 -8.7584089 -68.036822 -7.5113227 -71.778081 C -6.2075508 -75.576025 -5.5558865 -81.868159 -5.5558865 -90.654448 C -5.5558865 -99.440737 -6.2075508 -105.73287 -7.5113227 -109.53081 C -8.7584089 -113.38544 -10.827723 -115.31237 -13.718696 -115.31237 z M -90.669554 -101.28274 C -88.685554 -101.28274 -87.211776 -100.68772 -86.248119 -99.497319 C -85.227776 -98.363604 -84.717463 -96.776539 -84.717463 -94.735852 C -84.717463 -92.695166 -85.227776 -91.107584 -86.248119 -89.973869 C -87.211776 -88.840154 -88.685554 -88.273198 -90.669554 -88.273198 C -92.653555 -88.273198 -94.155396 -88.840154 -95.175739 -89.973869 C -96.139397 -91.16427 -96.621646 -92.751852 -96.621646 -94.735852 C -96.621646 -96.833225 -96.139397 -98.448354 -95.175739 -99.582068 C -94.155396 -100.71578 -92.653555 -101.28274 -90.669554 -101.28274 z M -90.669554 -74.498845 C -88.685554 -74.498845 -87.211776 -73.903824 -86.248119 -72.713424 C -85.227776 -71.579709 -84.717463 -69.992127 -84.717463 -67.951441 C -84.717463 -65.910754 -85.227776 -64.323689 -86.248119 -63.189974 C -87.211776 -62.05626 -88.685554 -61.489303 -90.669554 -61.489303 C -92.653555 -61.489303 -94.155396 -62.05626 -95.175739 -63.189974 C -96.139397 -64.380375 -96.621646 -65.96744 -96.621646 -67.951441 C -96.621646 -70.048813 -96.139397 -71.664459 -95.175739 -72.798173 C -94.155396 -73.931888 -92.653555 -74.498845 -90.669554 -74.498845 z " /></g></svg>
