<?xml version="1.0" encoding="UTF-8" standalone="no"?>
<!-- Created with Inkscape (http://www.inkscape.org/) -->

<svg
   width="172.6701mm"
   height="172.6701mm"
   viewBox="0 0 172.6701 172.6701"
   version="1.1"
   id="svg1"
   xml:space="preserve"
   xmlns="http://www.w3.org/2000/svg"
   xmlns:svg="http://www.w3.org/2000/svg"><defs
     id="defs1" /><g
     id="layer1"
     transform="translate(157.25102,198.81012)"><path
       id="path5"
       style="fill:#ffffff;fill-opacity:1;stroke-width:0.805188;stroke-linecap:round;stroke-linejoin:round"
       d="M -2.0863309 -198.17657 L -10.088943 -183.11289 L -10.930235 -165.68398 L -19.198981 -165.68398 L -11.423229 -155.47426 L -12.166336 -140.07934 C -28.353216 -157.12094 -50.823548 -166.77435 -74.327399 -166.78417 C -103.64471 -166.77397 -130.92652 -151.79225 -146.66717 -127.05894 L -157.25102 -127.05894 L -149.61996 -115.86014 L -157.25102 -26.140039 L -8.5138455 -26.140039 L 15.419061 -26.140039 L 8.0799737 -154.80195 L 15.419061 -165.68398 L 7.4593397 -165.68398 L 6.4490654 -183.39297 L -2.0863309 -198.17657 z M -83.43072 -192.21621 C -85.584619 -189.65499 -86.77489 -186.4211 -86.795372 -183.07465 C -86.842092 -175.15518 -80.459903 -168.69733 -72.540428 -168.65072 C -64.621155 -168.60402 -58.163395 -174.98588 -58.116503 -182.90515 C -58.102813 -186.26049 -59.266203 -189.5144 -61.404157 -192.10045 C -60.83125 -190.6836 -60.536835 -189.16959 -60.537027 -187.64129 C -60.575787 -181.07411 -65.930869 -175.78172 -72.498054 -175.82031 C -79.065241 -175.85911 -84.357627 -181.21415 -84.319038 -187.78134 C -84.309338 -189.30285 -84.007827 -190.80837 -83.43072 -192.21621 z M -55.425194 -119.73381 C -49.586563 -119.73381 -44.938139 -118.28861 -41.480309 -115.39764 C -38.022479 -112.56335 -36.293545 -108.56711 -36.293545 -103.40871 C -36.293545 -98.873849 -38.022479 -94.026912 -41.480309 -88.86851 C -44.938139 -83.766794 -50.635252 -77.616529 -58.571255 -70.41744 L -35.698233 -70.41744 L -35.698233 -62.084615 L -74.216295 -62.084615 L -74.216295 -67.016097 C -67.924178 -73.081471 -63.020597 -78.268272 -59.506082 -82.576388 C -55.991566 -86.884504 -53.4691 -90.852684 -51.938585 -94.480571 C -50.351385 -98.108458 -49.557852 -101.84955 -49.557852 -105.70418 C -49.557852 -111.82623 -51.598586 -114.88759 -55.679959 -114.88759 C -57.493902 -114.88759 -58.96768 -114.0369 -60.101394 -112.33633 C -61.235109 -110.69244 -61.802066 -108.65171 -61.802066 -106.21422 C -61.802066 -104.51365 -61.207045 -102.89852 -60.016645 -101.36801 C -60.980302 -100.46103 -62.085635 -99.752209 -63.332722 -99.242037 C -64.523122 -98.731866 -65.713163 -98.476709 -66.903563 -98.476709 C -68.94425 -98.476709 -70.64512 -99.10031 -72.005577 -100.3474 C -73.366035 -101.65117 -74.04628 -103.52197 -74.04628 -105.95946 C -74.04628 -108.567 -73.280811 -110.91953 -71.750296 -113.01691 C -70.219781 -115.11428 -68.065759 -116.75799 -65.288158 -117.94839 C -62.453871 -119.13879 -59.166453 -119.73381 -55.425194 -119.73381 z M -9.7644152 -119.13901 L -6.9589017 -117.86364 L -6.9589017 -68.716769 C -5.8818727 -68.093226 -4.1810027 -67.526269 -1.8568875 -67.016097 C 0.46722762 -66.562611 2.3094493 -66.279392 3.6699069 -66.16602 L 3.4146253 -62.084615 L -31.276797 -62.084615 L -31.106782 -66.16602 C -26.061751 -66.732877 -22.206859 -67.583054 -19.54263 -68.716769 L -19.54263 -109.44555 L -30.936766 -109.44555 L -30.936766 -114.37703 C -27.308879 -114.66046 -23.567792 -115.19935 -19.713162 -115.99295 C -15.858532 -116.84324 -12.542016 -117.89193 -9.7644152 -119.13901 z M -135.18208 -119.05375 L -130.93066 -118.969 C -124.92197 -118.85563 -121.74733 -118.79847 -121.40721 -118.79847 L -109.33301 -118.969 L -106.86753 -117.18306 L -107.63286 -110.72092 L -128.71994 -110.72092 L -129.91005 -96.521273 C -126.96239 -97.258188 -124.29806 -97.626632 -121.91726 -97.626632 C -116.30537 -97.626632 -111.74217 -96.124274 -108.22766 -93.11993 C -104.65645 -90.172272 -102.87088 -85.836165 -102.87088 -80.110905 C -102.87088 -76.539704 -103.72105 -73.336993 -105.42163 -70.502706 C -107.06551 -67.66842 -109.44663 -65.429173 -112.56434 -63.785287 C -115.68206 -62.198086 -119.3665 -61.404554 -123.61793 -61.404554 C -127.07576 -61.404554 -130.22183 -61.886286 -133.05611 -62.849943 C -135.83372 -63.813601 -138.01632 -65.14551 -139.60352 -66.846082 C -141.19072 -68.60334 -141.98425 -70.559366 -141.98425 -72.713424 C -141.98425 -74.980853 -141.36065 -76.709787 -140.11356 -77.900188 C -138.86648 -79.147274 -137.33606 -79.770358 -135.52211 -79.770358 C -134.50177 -79.770358 -133.48115 -79.572362 -132.4608 -79.175562 C -131.38377 -78.778762 -130.42031 -78.211805 -129.57002 -77.474891 C -130.08019 -76.28449 -130.33535 -75.037289 -130.33535 -73.733517 C -130.33535 -71.862888 -129.79697 -70.332466 -128.71994 -69.142066 C -127.58623 -67.951665 -125.88536 -67.356645 -123.61793 -67.356645 C -118.51621 -67.356645 -115.96517 -71.608045 -115.96517 -80.110905 C -115.96517 -84.135593 -116.75922 -87.054567 -118.34642 -88.86851 C -119.93362 -90.73914 -122.05906 -91.674541 -124.72329 -91.674541 C -126.36718 -91.674541 -128.12469 -91.36274 -129.99532 -90.739197 C -131.86595 -90.115654 -133.70817 -89.236897 -135.52211 -88.103182 L -140.19831 -92.609884 L -137.9876 -116.75776 L -135.18208 -119.05375 z M -87.480602 -101.28274 C -85.496601 -101.28274 -84.022824 -100.68772 -83.059166 -99.497319 C -82.038823 -98.363604 -81.529027 -96.776539 -81.529027 -94.735852 C -81.529027 -92.695166 -82.038823 -91.107584 -83.059166 -89.973869 C -84.022824 -88.840154 -85.496601 -88.273198 -87.480602 -88.273198 C -89.464602 -88.273198 -90.96696 -88.840154 -91.987303 -89.973869 C -92.950961 -91.16427 -93.432693 -92.751852 -93.432693 -94.735852 C -93.432693 -96.833225 -92.950961 -98.448354 -91.987303 -99.582068 C -90.96696 -100.71578 -89.464602 -101.28274 -87.480602 -101.28274 z M -87.480602 -74.498845 C -85.496601 -74.498845 -84.022824 -73.903824 -83.059166 -72.713424 C -82.038823 -71.579709 -81.529027 -69.992127 -81.529027 -67.951441 C -81.529027 -65.910754 -82.038823 -64.323689 -83.059166 -63.189974 C -84.022824 -62.05626 -85.496601 -61.489303 -87.480602 -61.489303 C -89.464602 -61.489303 -90.96696 -62.05626 -91.987303 -63.189974 C -92.950961 -64.380375 -93.432693 -65.96744 -93.432693 -67.951441 C -93.432693 -70.048813 -92.950961 -71.664459 -91.987303 -72.798173 C -90.96696 -73.931888 -89.464602 -74.498845 -87.480602 -74.498845 z " /></g></svg>
