<?xml version="1.0" encoding="UTF-8" standalone="no"?>
<!-- Created with Inkscape (http://www.inkscape.org/) -->

<svg
   width="172.6701mm"
   height="172.6701mm"
   viewBox="0 0 172.6701 172.6701"
   version="1.1"
   id="svg1"
   xml:space="preserve"
   xmlns="http://www.w3.org/2000/svg"
   xmlns:svg="http://www.w3.org/2000/svg"><defs
     id="defs1" /><g
     id="layer1"
     transform="translate(157.25102,198.81012)"><path
       id="path5"
       style="fill:#ffffff;fill-opacity:1;stroke-width:0.805188;stroke-linecap:round;stroke-linejoin:round"
       d="M -2.0863309 -198.17657 L -10.088943 -183.11289 L -10.930235 -165.68398 L -19.198981 -165.68398 L -11.423229 -155.47426 L -12.166336 -140.07934 C -28.353216 -157.12094 -50.823548 -166.77435 -74.327399 -166.78417 C -103.64471 -166.77397 -130.92652 -151.79225 -146.66717 -127.05894 L -157.25102 -127.05894 L -149.61996 -115.86014 L -157.25102 -26.140039 L -8.5138455 -26.140039 L 15.419061 -26.140039 L 8.0799737 -154.80195 L 15.419061 -165.68398 L 7.4593397 -165.68398 L 6.4490654 -183.39297 L -2.0863309 -198.17657 z M -83.43072 -192.21621 C -85.584619 -189.65499 -86.77489 -186.4211 -86.795372 -183.07465 C -86.842092 -175.15518 -80.459903 -168.69733 -72.540428 -168.65072 C -64.621155 -168.60402 -58.163395 -174.98588 -58.116503 -182.90515 C -58.102813 -186.26049 -59.266203 -189.5144 -61.404157 -192.10045 C -60.83125 -190.6836 -60.536835 -189.16959 -60.537027 -187.64129 C -60.575787 -181.07411 -65.930869 -175.78172 -72.498054 -175.82031 C -79.065241 -175.85911 -84.357627 -181.21415 -84.319038 -187.78134 C -84.309338 -189.30285 -84.007827 -190.80837 -83.43072 -192.21621 z M -58.060692 -119.73381 C -52.222061 -119.73381 -47.574153 -118.28861 -44.116324 -115.39764 C -40.658494 -112.56335 -38.92956 -108.56711 -38.92956 -103.40871 C -38.92956 -98.873849 -40.658494 -94.026912 -44.116324 -88.86851 C -47.574153 -83.766794 -53.27075 -77.616529 -61.206753 -70.41744 L -38.334248 -70.41744 L -38.334248 -62.084615 L -76.85231 -62.084615 L -76.85231 -67.016097 C -70.560193 -73.081471 -65.656612 -78.268272 -62.142097 -82.576388 C -58.627581 -86.884504 -56.105115 -90.852684 -54.5746 -94.480571 C -52.987399 -98.108458 -52.193867 -101.84955 -52.193867 -105.70418 C -52.193867 -111.82623 -54.234601 -114.88759 -58.315974 -114.88759 C -60.129917 -114.88759 -61.603694 -114.0369 -62.737409 -112.33633 C -63.871124 -110.69244 -64.438081 -108.65171 -64.438081 -106.21422 C -64.438081 -104.51365 -63.842543 -102.89852 -62.652143 -101.36801 C -63.615801 -100.46103 -64.72165 -99.752209 -65.968736 -99.242037 C -67.159137 -98.731866 -68.349178 -98.476709 -69.539578 -98.476709 C -71.580264 -98.476709 -73.281134 -99.10031 -74.641592 -100.3474 C -76.00205 -101.65117 -76.682294 -103.52197 -76.682294 -105.95946 C -76.682294 -108.567 -75.916825 -110.91953 -74.386311 -113.01691 C -72.855796 -115.11428 -70.701774 -116.75799 -67.924173 -117.94839 C -65.089886 -119.13879 -61.801951 -119.73381 -58.060692 -119.73381 z M -137.81758 -119.05375 L -133.56616 -118.969 C -127.55747 -118.85563 -124.38334 -118.79847 -124.04323 -118.79847 L -111.96903 -118.969 L -109.50303 -117.18306 L -110.26836 -110.72092 L -131.35544 -110.72092 L -132.54607 -96.521273 C -129.59841 -97.258188 -126.93408 -97.626632 -124.55327 -97.626632 C -118.94139 -97.626632 -114.37819 -96.124274 -110.86367 -93.11993 C -107.29247 -90.172272 -105.50689 -85.836165 -105.50689 -80.110905 C -105.50689 -76.539704 -106.35707 -73.336993 -108.05764 -70.502706 C -109.70153 -67.66842 -112.08264 -65.429173 -115.20036 -63.785287 C -118.31807 -62.198086 -122.00252 -61.404554 -126.25395 -61.404554 C -129.71178 -61.404554 -132.85784 -61.886286 -135.69213 -62.849943 C -138.46973 -63.813601 -140.65182 -65.14551 -142.23902 -66.846082 C -143.82622 -68.60334 -144.62027 -70.559366 -144.62027 -72.713424 C -144.62027 -74.980853 -143.99667 -76.709787 -142.74958 -77.900188 C -141.50249 -79.147274 -139.97207 -79.770358 -138.15813 -79.770358 C -137.13779 -79.770358 -136.11716 -79.572362 -135.09682 -79.175562 C -134.01979 -78.778762 -133.05632 -78.211805 -132.20604 -77.474891 C -132.71621 -76.28449 -132.97137 -75.037289 -132.97137 -73.733517 C -132.97137 -71.862888 -132.43247 -70.332466 -131.35544 -69.142066 C -130.22173 -67.951665 -128.52138 -67.356645 -126.25395 -67.356645 C -121.15223 -67.356645 -118.60118 -71.608045 -118.60118 -80.110905 C -118.60118 -84.135593 -119.39472 -87.054567 -120.98192 -88.86851 C -122.56912 -90.73914 -124.69507 -91.674541 -127.3593 -91.674541 C -129.00319 -91.674541 -130.76019 -91.36274 -132.63082 -90.739197 C -134.50145 -90.115654 -136.34419 -89.236897 -138.15813 -88.103182 L -142.83433 -92.609884 L -140.62361 -116.75776 L -137.81758 -119.05375 z M -26.685346 -119.05375 L -22.433926 -118.969 C -16.425238 -118.85563 -13.250591 -118.79847 -12.910476 -118.79847 L -0.83679474 -118.969 L 1.6292046 -117.18306 L 0.86387665 -110.72092 L -20.223208 -110.72092 L -21.413317 -96.521273 C -18.465658 -97.258188 -15.80184 -97.626632 -13.42104 -97.626632 C -7.8091518 -97.626632 -3.2459514 -96.124274 0.26856415 -93.11993 C 3.8397655 -90.172272 5.6253431 -85.836165 5.6253431 -80.110905 C 5.6253431 -76.539704 4.7751665 -73.336993 3.0745944 -70.502706 C 1.4307081 -67.66842 -0.94988986 -65.429173 -4.0676053 -63.785287 C -7.1853207 -62.198086 -10.869764 -61.404554 -15.121194 -61.404554 C -18.579024 -61.404554 -21.725091 -61.886286 -24.559378 -62.849943 C -27.336979 -63.813601 -29.519581 -65.14551 -31.106782 -66.846082 C -32.693982 -68.60334 -33.487515 -70.559366 -33.487515 -72.713424 C -33.487515 -74.980853 -32.863914 -76.709787 -31.616828 -77.900188 C -30.369742 -79.147274 -28.839321 -79.770358 -27.025377 -79.770358 C -26.005034 -79.770358 -24.984925 -79.572362 -23.964582 -79.175562 C -22.887553 -78.778762 -21.923572 -78.211805 -21.073286 -77.474891 C -21.583457 -76.28449 -21.838614 -75.037289 -21.838614 -73.733517 C -21.838614 -71.862888 -21.300237 -70.332466 -20.223208 -69.142066 C -19.089494 -67.951665 -17.388624 -67.356645 -15.121194 -67.356645 C -10.019478 -67.356645 -7.4689481 -71.608045 -7.4689481 -80.110905 C -7.4689481 -84.135593 -8.2624807 -87.054567 -9.8496813 -88.86851 C -11.436882 -90.73914 -13.562323 -91.674541 -16.226553 -91.674541 C -17.870439 -91.674541 -19.627953 -91.36274 -21.498583 -90.739197 C -23.369212 -90.115654 -25.211434 -89.236897 -27.025377 -88.103182 L -31.702094 -92.609884 L -29.491376 -116.75776 L -26.685346 -119.05375 z M -90.116617 -101.28274 C -88.132616 -101.28274 -86.658838 -100.68772 -85.695181 -99.497319 C -84.674838 -98.363604 -84.164525 -96.776539 -84.164525 -94.735852 C -84.164525 -92.695166 -84.674838 -91.107584 -85.695181 -89.973869 C -86.658838 -88.840154 -88.132616 -88.273198 -90.116617 -88.273198 C -92.100617 -88.273198 -93.602975 -88.840154 -94.623318 -89.973869 C -95.586976 -91.16427 -96.068708 -92.751852 -96.068708 -94.735852 C -96.068708 -96.833225 -95.586976 -98.448354 -94.623318 -99.582068 C -93.602975 -100.71578 -92.100617 -101.28274 -90.116617 -101.28274 z M -90.116617 -74.498845 C -88.132616 -74.498845 -86.658838 -73.903824 -85.695181 -72.713424 C -84.674838 -71.579709 -84.164525 -69.992127 -84.164525 -67.951441 C -84.164525 -65.910754 -84.674838 -64.323689 -85.695181 -63.189974 C -86.658838 -62.05626 -88.132616 -61.489303 -90.116617 -61.489303 C -92.100617 -61.489303 -93.602975 -62.05626 -94.623318 -63.189974 C -95.586976 -64.380375 -96.068708 -65.96744 -96.068708 -67.951441 C -96.068708 -70.048813 -95.586976 -71.664459 -94.623318 -72.798173 C -93.602975 -73.931888 -92.100617 -74.498845 -90.116617 -74.498845 z " /></g></svg>
