<?xml version="1.0" encoding="UTF-8" standalone="no"?>
<!-- Created with Inkscape (http://www.inkscape.org/) -->

<svg
   width="172.6701mm"
   height="172.6701mm"
   viewBox="0 0 172.6701 172.6701"
   version="1.1"
   id="svg1"
   xml:space="preserve"
   xmlns="http://www.w3.org/2000/svg"
   xmlns:svg="http://www.w3.org/2000/svg"><defs
     id="defs1" /><g
     id="layer1"
     transform="translate(157.25102,198.81012)"><path
       id="path5"
       style="fill:#ffffff;fill-opacity:1;stroke-width:0.805188;stroke-linecap:round;stroke-linejoin:round"
       d="M -2.0863309 -198.17657 L -10.088943 -183.11289 L -10.930235 -165.68398 L -19.198981 -165.68398 L -11.423229 -155.47426 L -12.166336 -140.07934 C -28.353216 -157.12094 -50.823548 -166.77435 -74.327399 -166.78417 C -103.64471 -166.77397 -130.92652 -151.79225 -146.66717 -127.05894 L -157.25102 -127.05894 L -149.61996 -115.86014 L -157.25102 -26.140039 L -8.5138455 -26.140039 L 15.419061 -26.140039 L 8.0799737 -154.80195 L 15.419061 -165.68398 L 7.4593397 -165.68398 L 6.4490654 -183.39297 L -2.0863309 -198.17657 z M -83.43072 -192.21621 C -85.584619 -189.65499 -86.77489 -186.4211 -86.795372 -183.07465 C -86.842092 -175.15518 -80.459903 -168.69733 -72.540428 -168.65072 C -64.621155 -168.60402 -58.163395 -174.98588 -58.116503 -182.90515 C -58.102813 -186.26049 -59.266203 -189.5144 -61.404157 -192.10045 C -60.83125 -190.6836 -60.536835 -189.16959 -60.537027 -187.64129 C -60.575787 -181.07411 -65.930869 -175.78172 -72.498054 -175.82031 C -79.065241 -175.85911 -84.357627 -181.21415 -84.319038 -187.78134 C -84.309338 -189.30285 -84.007827 -190.80837 -83.43072 -192.21621 z M -2.1969184 -119.90383 L -0.15621613 -115.65241 C -11.606735 -110.72075 -18.494406 -103.12528 -20.818521 -92.865166 C -17.530748 -94.452366 -14.412745 -95.245899 -11.465087 -95.245899 C -5.7965131 -95.245899 -1.3466007 -93.715477 1.8844862 -90.654448 C 5.1722588 -87.593418 6.8159681 -83.455306 6.8159681 -78.240218 C 6.8159681 -75.009132 5.9372111 -72.118221 4.1799533 -69.567363 C 2.4793813 -67.016505 0.070202916 -65.032415 -3.0475125 -63.615271 C -6.1085422 -62.198128 -9.6230535 -61.489303 -13.591055 -61.489303 C -20.336657 -61.489303 -25.523458 -63.360105 -29.151346 -67.101363 C -32.722547 -70.842622 -34.508124 -76.255999 -34.508124 -83.341716 C -34.508124 -92.241376 -31.758565 -99.808775 -26.260049 -106.04421 C -20.704847 -112.33632 -12.683779 -116.95617 -2.1969184 -119.90383 z M -58.82602 -119.73381 C -52.987389 -119.73381 -48.339481 -118.28861 -44.881652 -115.39764 C -41.423822 -112.56335 -39.694888 -108.56711 -39.694888 -103.40871 C -39.694888 -98.873849 -41.423822 -94.026912 -44.881652 -88.86851 C -48.339481 -83.766794 -54.036078 -77.616529 -61.972081 -70.41744 L -39.099576 -70.41744 L -39.099576 -62.084615 L -77.617638 -62.084615 L -77.617638 -67.016097 C -71.325521 -73.081471 -66.42194 -78.268272 -62.907425 -82.576388 C -59.392909 -86.884504 -56.870443 -90.852684 -55.339928 -94.480571 C -53.752727 -98.108458 -52.959195 -101.84955 -52.959195 -105.70418 C -52.959195 -111.82623 -54.999929 -114.88759 -59.081302 -114.88759 C -60.895245 -114.88759 -62.369022 -114.0369 -63.502737 -112.33633 C -64.636452 -110.69244 -65.203409 -108.65171 -65.203409 -106.21422 C -65.203409 -104.51365 -64.607871 -102.89852 -63.417471 -101.36801 C -64.381129 -100.46103 -65.486461 -99.752209 -66.733548 -99.242037 C -67.923948 -98.731866 -69.114505 -98.476709 -70.304906 -98.476709 C -72.345592 -98.476709 -74.046462 -99.10031 -75.40692 -100.3474 C -76.767378 -101.65117 -77.447106 -103.52197 -77.447106 -105.95946 C -77.447106 -108.567 -76.682153 -110.91953 -75.151638 -113.01691 C -73.621124 -115.11428 -71.467102 -116.75799 -68.689501 -117.94839 C -65.855214 -119.13879 -62.567279 -119.73381 -58.82602 -119.73381 z M -138.58291 -119.05375 L -134.33149 -118.969 C -128.3228 -118.85563 -125.14867 -118.79847 -124.80856 -118.79847 L -112.73436 -118.969 L -110.26836 -117.18306 L -111.03369 -110.72092 L -132.12077 -110.72092 L -133.3114 -96.521273 C -130.36374 -97.258188 -127.6994 -97.626632 -125.3186 -97.626632 C -119.70671 -97.626632 -115.14351 -96.124274 -111.629 -93.11993 C -108.0578 -90.172272 -106.27222 -85.836165 -106.27222 -80.110905 C -106.27222 -76.539704 -107.1224 -73.336993 -108.82297 -70.502706 C -110.46685 -67.66842 -112.84745 -65.429173 -115.96517 -63.785287 C -119.08288 -62.198086 -122.76784 -61.404554 -127.01927 -61.404554 C -130.4771 -61.404554 -133.62317 -61.886286 -136.45746 -62.849943 C -139.23506 -63.813601 -141.41714 -65.14551 -143.00434 -66.846082 C -144.59154 -68.60334 -145.38508 -70.559366 -145.38508 -72.713424 C -145.38508 -74.980853 -144.76199 -76.709787 -143.51491 -77.900188 C -142.26782 -79.147274 -140.73688 -79.770358 -138.92294 -79.770358 C -137.9026 -79.770358 -136.88249 -79.572362 -135.86214 -79.175562 C -134.78512 -78.778762 -133.82165 -78.211805 -132.97137 -77.474891 C -133.48154 -76.28449 -133.73618 -75.037289 -133.73618 -73.733517 C -133.73618 -71.862888 -133.1978 -70.332466 -132.12077 -69.142066 C -130.98706 -67.951665 -129.2867 -67.356645 -127.01927 -67.356645 C -121.91756 -67.356645 -119.36651 -71.608045 -119.36651 -80.110905 C -119.36651 -84.135593 -120.16004 -87.054567 -121.74724 -88.86851 C -123.33444 -90.73914 -125.4604 -91.674541 -128.12463 -91.674541 C -129.76852 -91.674541 -131.52552 -91.36274 -133.39615 -90.739197 C -135.26677 -90.115654 -137.109 -89.236897 -138.92294 -88.103182 L -143.59966 -92.609884 L -141.38894 -116.75776 L -138.58291 -119.05375 z M -90.881944 -101.28274 C -88.897944 -101.28274 -87.424166 -100.68772 -86.460509 -99.497319 C -85.440166 -98.363604 -84.929853 -96.776539 -84.929853 -94.735852 C -84.929853 -92.695166 -85.440166 -91.107584 -86.460509 -89.973869 C -87.424166 -88.840154 -88.897944 -88.273198 -90.881944 -88.273198 C -92.865945 -88.273198 -94.368303 -88.840154 -95.388646 -89.973869 C -96.352304 -91.16427 -96.834036 -92.751852 -96.834036 -94.735852 C -96.834036 -96.833225 -96.352304 -98.448354 -95.388646 -99.582068 C -94.368303 -100.71578 -92.865945 -101.28274 -90.881944 -101.28274 z M -13.84582 -89.293807 C -16.226621 -89.293807 -18.805731 -88.330343 -21.583332 -86.403028 L -21.583332 -85.297669 C -21.583332 -79.118924 -20.903087 -74.583787 -19.54263 -71.692814 C -18.182172 -68.801842 -16.02815 -67.356645 -13.080492 -67.356645 C -10.643005 -67.356645 -8.77272 -68.291529 -7.4689481 -70.162159 C -6.1651762 -72.032788 -5.5129951 -74.697123 -5.5129951 -78.154952 C -5.5129951 -81.669468 -6.2498838 -84.390447 -7.7237129 -86.317762 C -9.1408562 -88.301762 -11.18159 -89.293807 -13.84582 -89.293807 z M -90.881944 -74.498845 C -88.897944 -74.498845 -87.424166 -73.903824 -86.460509 -72.713424 C -85.440166 -71.579709 -84.929853 -69.992127 -84.929853 -67.951441 C -84.929853 -65.910754 -85.440166 -64.323689 -86.460509 -63.189974 C -87.424166 -62.05626 -88.897944 -61.489303 -90.881944 -61.489303 C -92.865945 -61.489303 -94.368303 -62.05626 -95.388646 -63.189974 C -96.352304 -64.380375 -96.834036 -65.96744 -96.834036 -67.951441 C -96.834036 -70.048813 -96.352304 -71.664459 -95.388646 -72.798173 C -94.368303 -73.931888 -92.865945 -74.498845 -90.881944 -74.498845 z " /></g></svg>
