<?xml version="1.0" encoding="UTF-8" standalone="no"?>
<!-- Created with Inkscape (http://www.inkscape.org/) -->

<svg
   width="172.6701mm"
   height="172.6701mm"
   viewBox="0 0 172.6701 172.6701"
   version="1.1"
   id="svg1"
   xml:space="preserve"
   xmlns="http://www.w3.org/2000/svg"
   xmlns:svg="http://www.w3.org/2000/svg"><defs
     id="defs1" /><g
     id="layer1"
     transform="translate(157.25102,198.81012)"><path
       id="path5"
       style="fill:#ffffff;fill-opacity:1;stroke-width:0.805188;stroke-linecap:round;stroke-linejoin:round"
       d="M -2.0863309 -198.17657 L -10.088943 -183.11289 L -10.930235 -165.68398 L -19.198981 -165.68398 L -11.423229 -155.47426 L -12.166336 -140.07934 C -28.353216 -157.12094 -50.823548 -166.77435 -74.327399 -166.78417 C -103.64471 -166.77397 -130.92652 -151.79225 -146.66717 -127.05894 L -157.25102 -127.05894 L -149.61996 -115.86014 L -157.25102 -26.140039 L -8.5138455 -26.140039 L 15.419061 -26.140039 L 8.0799737 -154.80195 L 15.419061 -165.68398 L 7.4593397 -165.68398 L 6.4490654 -183.39297 L -2.0863309 -198.17657 z M -83.43072 -192.21621 C -85.584619 -189.65499 -86.77489 -186.4211 -86.795372 -183.07465 C -86.842092 -175.15518 -80.459903 -168.69733 -72.540428 -168.65072 C -64.621155 -168.60402 -58.163395 -174.98588 -58.116503 -182.90515 C -58.102813 -186.26049 -59.266203 -189.5144 -61.404157 -192.10045 C -60.83125 -190.6836 -60.536835 -189.16959 -60.537027 -187.64129 C -60.575787 -181.07411 -65.930869 -175.78172 -72.498054 -175.82031 C -79.065241 -175.85911 -84.357627 -181.21415 -84.319038 -187.78134 C -84.309338 -189.30285 -84.007827 -190.80837 -83.43072 -192.21621 z M -56.955333 -119.73381 C -51.116702 -119.73381 -46.468795 -118.28861 -43.010965 -115.39764 C -39.553135 -112.56335 -37.824201 -108.56711 -37.824201 -103.40871 C -37.824201 -98.873849 -39.553135 -94.026912 -43.010965 -88.86851 C -46.468795 -83.766794 -52.165391 -77.616529 -60.101394 -70.41744 L -37.228889 -70.41744 L -37.228889 -62.084615 L -75.746951 -62.084615 L -75.746951 -67.016097 C -69.454834 -73.081471 -64.551253 -78.268272 -61.036738 -82.576388 C -57.522222 -86.884504 -54.999756 -90.852684 -53.469241 -94.480571 C -51.88204 -98.108458 -51.088508 -101.84955 -51.088508 -105.70418 C -51.088508 -111.82623 -53.129242 -114.88759 -57.210615 -114.88759 C -59.024558 -114.88759 -60.498336 -114.0369 -61.63205 -112.33633 C -62.765765 -110.69244 -63.332722 -108.65171 -63.332722 -106.21422 C -63.332722 -104.51365 -62.737185 -102.89852 -61.546784 -101.36801 C -62.510442 -100.46103 -63.615775 -99.752209 -64.862861 -99.242037 C -66.053261 -98.731866 -67.243819 -98.476709 -68.434219 -98.476709 C -70.474906 -98.476709 -72.175776 -99.10031 -73.536233 -100.3474 C -74.896691 -101.65117 -75.576936 -103.52197 -75.576936 -105.95946 C -75.576936 -108.567 -74.811466 -110.91953 -73.280952 -113.01691 C -71.750437 -115.11428 -69.596415 -116.75799 -66.818814 -117.94839 C -63.984527 -119.13879 -60.696592 -119.73381 -56.955333 -119.73381 z M -136.71222 -119.05375 L -132.4608 -118.969 C -126.45211 -118.85563 -123.27798 -118.79847 -122.93787 -118.79847 L -110.86367 -118.969 L -108.39767 -117.18306 L -109.163 -110.72092 L -130.25008 -110.72092 L -131.44071 -96.521273 C -128.49305 -97.258188 -125.82872 -97.626632 -123.44792 -97.626632 C -117.83603 -97.626632 -113.27283 -96.124274 -109.75831 -93.11993 C -106.18711 -90.172272 -104.40153 -85.836165 -104.40153 -80.110905 C -104.40153 -76.539704 -105.25171 -73.336993 -106.95228 -70.502706 C -108.59617 -67.66842 -110.97728 -65.429173 -114.095 -63.785287 C -117.21271 -62.198086 -120.89716 -61.404554 -125.14859 -61.404554 C -128.60642 -61.404554 -131.75248 -61.886286 -134.58677 -62.849943 C -137.36437 -63.813601 -139.54646 -65.14551 -141.13366 -66.846082 C -142.72086 -68.60334 -143.51491 -70.559366 -143.51491 -72.713424 C -143.51491 -74.980853 -142.89131 -76.709787 -141.64422 -77.900188 C -140.39713 -79.147274 -138.8662 -79.770358 -137.05225 -79.770358 C -136.03191 -79.770358 -135.0118 -79.572362 -133.99146 -79.175562 C -132.91443 -78.778762 -131.95096 -78.211805 -131.10068 -77.474891 C -131.61085 -76.28449 -131.86549 -75.037289 -131.86549 -73.733517 C -131.86549 -71.862888 -131.32711 -70.332466 -130.25008 -69.142066 C -129.11637 -67.951665 -127.41602 -67.356645 -125.14859 -67.356645 C -120.04687 -67.356645 -117.49582 -71.608045 -117.49582 -80.110905 C -117.49582 -84.135593 -118.28936 -87.054567 -119.87656 -88.86851 C -121.46376 -90.73914 -123.58972 -91.674541 -126.25395 -91.674541 C -127.89783 -91.674541 -129.65483 -91.36274 -131.52546 -90.739197 C -133.39609 -90.115654 -135.23831 -89.236897 -137.05225 -88.103182 L -141.72897 -92.609884 L -139.51825 -116.75776 L -136.71222 -119.05375 z M -32.382156 -118.88373 L -28.216002 -118.88373 C -26.061944 -118.82705 -21.356875 -118.79847 -14.101101 -118.79847 C -6.5618986 -118.79847 -1.6583176 -118.82705 0.60911184 -118.88373 L 4.6905165 -118.88373 L 6.3906711 -115.22762 C 5.3136421 -113.52705 3.2729081 -109.84261 0.26856415 -104.17404 C -2.7357798 -98.505463 -5.5700465 -92.496548 -8.234276 -86.147746 C -10.898506 -79.798944 -12.230415 -74.838719 -12.230415 -71.267517 C -12.230415 -68.433231 -11.23837 -66.307789 -9.2543688 -64.890646 C -11.181684 -62.566531 -13.647506 -61.404554 -16.65185 -61.404554 C -19.429451 -61.404554 -21.583473 -62.169506 -23.113988 -63.700021 C -24.644503 -65.230536 -25.409972 -67.356494 -25.409972 -70.077409 C -25.409972 -73.478553 -24.587859 -77.077772 -22.943972 -80.875717 C -21.300086 -84.730347 -18.352532 -89.945728 -14.101101 -96.521273 L -4.0676053 -111.9963 L -23.454019 -111.9963 C -24.247619 -109.44544 -24.729351 -106.44124 -24.899409 -102.98341 C -25.919752 -102.81335 -26.968441 -102.72813 -28.04547 -102.72813 C -29.179185 -102.72813 -30.285034 -102.81335 -31.362063 -102.98341 L -33.742797 -117.60836 L -32.382156 -118.88373 z M -89.011258 -101.28274 C -87.027257 -101.28274 -85.55348 -100.68772 -84.589822 -99.497319 C -83.569479 -98.363604 -83.059166 -96.776539 -83.059166 -94.735852 C -83.059166 -92.695166 -83.569479 -91.107584 -84.589822 -89.973869 C -85.55348 -88.840154 -87.027257 -88.273198 -89.011258 -88.273198 C -90.995258 -88.273198 -92.497616 -88.840154 -93.517959 -89.973869 C -94.481617 -91.16427 -94.963349 -92.751852 -94.963349 -94.735852 C -94.963349 -96.833225 -94.481617 -98.448354 -93.517959 -99.582068 C -92.497616 -100.71578 -90.995258 -101.28274 -89.011258 -101.28274 z M -89.011258 -74.498845 C -87.027257 -74.498845 -85.55348 -73.903824 -84.589822 -72.713424 C -83.569479 -71.579709 -83.059166 -69.992127 -83.059166 -67.951441 C -83.059166 -65.910754 -83.569479 -64.323689 -84.589822 -63.189974 C -85.55348 -62.05626 -87.027257 -61.489303 -89.011258 -61.489303 C -90.995258 -61.489303 -92.497616 -62.05626 -93.517959 -63.189974 C -94.481617 -64.380375 -94.963349 -65.96744 -94.963349 -67.951441 C -94.963349 -70.048813 -94.481617 -71.664459 -93.517959 -72.798173 C -92.497616 -73.931888 -90.995258 -74.498845 -89.011258 -74.498845 z " /></g></svg>
