<?xml version="1.0" encoding="UTF-8" standalone="no"?>
<!-- Created with Inkscape (http://www.inkscape.org/) -->

<svg
   width="172.6701mm"
   height="172.6701mm"
   viewBox="0 0 172.6701 172.6701"
   version="1.1"
   id="svg1"
   xml:space="preserve"
   xmlns="http://www.w3.org/2000/svg"
   xmlns:svg="http://www.w3.org/2000/svg"><defs
     id="defs1" /><g
     id="layer1"
     transform="translate(157.25102,198.81012)"><path
       id="path5"
       style="fill:#ffffff;fill-opacity:1;stroke-width:0.805188;stroke-linecap:round;stroke-linejoin:round"
       d="M -2.0863309 -198.17657 L -10.088943 -183.11289 L -10.930235 -165.68398 L -19.198981 -165.68398 L -11.423229 -155.47426 L -12.166336 -140.07934 C -28.353216 -157.12094 -50.823548 -166.77435 -74.327399 -166.78417 C -103.64471 -166.77397 -130.92652 -151.79225 -146.66717 -127.05894 L -157.25102 -127.05894 L -149.61996 -115.86014 L -157.25102 -26.140039 L -8.5138455 -26.140039 L 15.419061 -26.140039 L 8.0799737 -154.80195 L 15.419061 -165.68398 L 7.4593397 -165.68398 L 6.4490654 -183.39297 L -2.0863309 -198.17657 z M -83.43072 -192.21621 C -85.584619 -189.65499 -86.77489 -186.4211 -86.795372 -183.07465 C -86.842092 -175.15518 -80.459903 -168.69733 -72.540428 -168.65072 C -64.621155 -168.60402 -58.163395 -174.98588 -58.116503 -182.90515 C -58.102813 -186.26049 -59.266203 -189.5144 -61.404157 -192.10045 C -60.83125 -190.6836 -60.536835 -189.16959 -60.537027 -187.64129 C -60.575787 -181.07411 -65.930869 -175.78172 -72.498054 -175.82031 C -79.065241 -175.85911 -84.357627 -181.21415 -84.319038 -187.78134 C -84.309338 -189.30285 -84.007827 -190.80837 -83.43072 -192.21621 z M -14.015835 -119.81908 C -8.0638331 -119.81908 -3.3307008 -118.54381 0.1838148 -115.99295 C 3.6983304 -113.44209 5.4553277 -110.01229 5.4553277 -105.70418 C 5.4553277 -103.38006 4.605151 -101.05611 2.904579 -98.731991 C 1.2040069 -96.407876 -1.0347227 -94.50901 -3.8123237 -93.035181 C -0.29780814 -91.334609 2.4512342 -89.350519 4.4352349 -87.08309 C 6.4759213 -84.81566 7.49603 -81.896169 7.49603 -78.324968 C 7.49603 -73.166566 5.6257447 -69.057034 1.8844862 -65.996005 C -1.8567723 -62.991661 -6.901705 -61.489303 -13.250507 -61.489303 C -20.222853 -61.489303 -25.608166 -62.878373 -29.40611 -65.655974 C -33.147369 -68.433575 -35.018171 -72.401238 -35.018171 -77.55964 C -35.018171 -80.223869 -34.167994 -82.86014 -32.467422 -85.467684 C -30.76685 -88.131914 -28.385735 -90.483931 -25.324706 -92.524618 C -27.875564 -93.941761 -29.859654 -95.642631 -31.276797 -97.626632 C -32.693941 -99.610633 -33.402766 -102.07646 -33.402766 -105.02411 C -33.402766 -109.55897 -31.645252 -113.15871 -28.130736 -115.82294 C -24.61622 -118.48717 -19.911152 -119.81908 -14.015835 -119.81908 z M -59.591348 -119.73381 C -53.752717 -119.73381 -49.104293 -118.28861 -45.646463 -115.39764 C -42.188633 -112.56335 -40.459699 -108.56711 -40.459699 -103.40871 C -40.459699 -98.873849 -42.188633 -94.026912 -45.646463 -88.86851 C -49.104293 -83.766794 -54.801406 -77.616529 -62.737409 -70.41744 L -39.864903 -70.41744 L -39.864903 -62.084615 L -78.382449 -62.084615 L -78.382449 -67.016097 C -72.090332 -73.081471 -67.187268 -78.268272 -63.672753 -82.576388 C -60.158237 -86.884504 -57.635771 -90.852684 -56.105256 -94.480571 C -54.518055 -98.108458 -53.724523 -101.84955 -53.724523 -105.70418 C -53.724523 -111.82623 -55.765257 -114.88759 -59.84663 -114.88759 C -61.660573 -114.88759 -63.13435 -114.0369 -64.268065 -112.33633 C -65.40178 -110.69244 -65.968736 -108.65171 -65.968736 -106.21422 C -65.968736 -104.51365 -65.373199 -102.89852 -64.182799 -101.36801 C -65.146456 -100.46103 -66.251789 -99.752209 -67.498876 -99.242037 C -68.689276 -98.731866 -69.879833 -98.476709 -71.070234 -98.476709 C -73.11092 -98.476709 -74.811274 -99.10031 -76.171731 -100.3474 C -77.532189 -101.65117 -78.212434 -103.52197 -78.212434 -105.95946 C -78.212434 -108.567 -77.447481 -110.91953 -75.916966 -113.01691 C -74.386452 -115.11428 -72.23243 -116.75799 -69.454829 -117.94839 C -66.620542 -119.13879 -63.332606 -119.73381 -59.591348 -119.73381 z M -139.34824 -119.05375 L -135.09682 -118.969 C -129.08813 -118.85563 -125.914 -118.79847 -125.57388 -118.79847 L -113.49969 -118.969 L -111.03369 -117.18306 L -111.79901 -110.72092 L -132.8861 -110.72092 L -134.07672 -96.521273 C -131.12907 -97.258188 -128.46473 -97.626632 -126.08393 -97.626632 C -120.47204 -97.626632 -115.90884 -96.124274 -112.39433 -93.11993 C -108.82313 -90.172272 -107.03755 -85.836165 -107.03755 -80.110905 C -107.03755 -76.539704 -107.88772 -73.336993 -109.5883 -70.502706 C -111.23218 -67.66842 -113.61278 -65.429173 -116.7305 -63.785287 C -119.84821 -62.198086 -123.53317 -61.404554 -127.7846 -61.404554 C -131.24243 -61.404554 -134.3885 -61.886286 -137.22279 -62.849943 C -140.00039 -63.813601 -142.18247 -65.14551 -143.76967 -66.846082 C -145.35687 -68.60334 -146.15041 -70.559366 -146.15041 -72.713424 C -146.15041 -74.980853 -145.5268 -76.709787 -144.27972 -77.900188 C -143.03263 -79.147274 -141.50221 -79.770358 -139.68827 -79.770358 C -138.66792 -79.770358 -137.64782 -79.572362 -136.62747 -79.175562 C -135.55044 -78.778762 -134.58646 -78.211805 -133.73618 -77.474891 C -134.24635 -76.28449 -134.5015 -75.037289 -134.5015 -73.733517 C -134.5015 -71.862888 -133.96313 -70.332466 -132.8861 -69.142066 C -131.75238 -67.951665 -130.05203 -67.356645 -127.7846 -67.356645 C -122.68289 -67.356645 -120.13184 -71.608045 -120.13184 -80.110905 C -120.13184 -84.135593 -120.92537 -87.054567 -122.51257 -88.86851 C -124.09977 -90.73914 -126.22573 -91.674541 -128.88996 -91.674541 C -130.53385 -91.674541 -132.29084 -91.36274 -134.16147 -90.739197 C -136.0321 -90.115654 -137.87432 -89.236897 -139.68827 -88.103182 L -144.36498 -92.609884 L -142.15427 -116.75776 L -139.34824 -119.05375 z M -14.015835 -113.78224 C -16.283265 -113.78224 -18.068842 -113.04535 -19.372614 -111.57152 C -20.676386 -110.15437 -21.328567 -108.22693 -21.328567 -105.78944 C -21.328567 -103.63538 -20.506454 -101.84981 -18.862568 -100.43266 C -17.161996 -99.072205 -14.696173 -97.711715 -11.465087 -96.351258 C -10.047943 -97.314915 -8.9145466 -98.646824 -8.0642606 -100.3474 C -7.2139745 -102.04797 -6.7883694 -103.86213 -6.7883694 -105.78944 C -6.7883694 -108.22693 -7.4686141 -110.15437 -8.8290718 -111.57152 C -10.132844 -113.04535 -11.861777 -113.78224 -14.015835 -113.78224 z M -91.647272 -101.28274 C -89.663272 -101.28274 -88.189494 -100.68772 -87.225837 -99.497319 C -86.205494 -98.363604 -85.695181 -96.776539 -85.695181 -94.735852 C -85.695181 -92.695166 -86.205494 -91.107584 -87.225837 -89.973869 C -88.189494 -88.840154 -89.663272 -88.273198 -91.647272 -88.273198 C -93.631273 -88.273198 -95.133114 -88.840154 -96.153457 -89.973869 C -97.117115 -91.16427 -97.599364 -92.751852 -97.599364 -94.735852 C -97.599364 -96.833225 -97.117115 -98.448354 -96.153457 -99.582068 C -95.133114 -100.71578 -93.631273 -101.28274 -91.647272 -101.28274 z M -17.501927 -89.038526 C -19.202499 -87.678068 -20.449701 -86.119583 -21.243301 -84.362325 C -22.036901 -82.605068 -22.433926 -80.50769 -22.433926 -78.070203 C -22.433926 -74.725745 -21.611813 -72.089474 -19.967927 -70.162159 C -18.32404 -68.291529 -16.084794 -67.356645 -13.250507 -67.356645 C -10.472906 -67.356645 -8.3188843 -68.291529 -6.7883694 -70.162159 C -5.2011689 -72.032788 -4.4076362 -74.640479 -4.4076362 -77.984937 C -4.4076362 -79.855566 -5.0031733 -81.442631 -6.1935737 -82.746403 C -7.3272884 -84.106861 -8.7724854 -85.212194 -10.529743 -86.06248 C -12.287001 -86.969452 -14.610955 -87.961497 -17.501927 -89.038526 z M -91.647272 -74.498845 C -89.663272 -74.498845 -88.189494 -73.903824 -87.225837 -72.713424 C -86.205494 -71.579709 -85.695181 -69.992127 -85.695181 -67.951441 C -85.695181 -65.910754 -86.205494 -64.323689 -87.225837 -63.189974 C -88.189494 -62.05626 -89.663272 -61.489303 -91.647272 -61.489303 C -93.631273 -61.489303 -95.133114 -62.05626 -96.153457 -63.189974 C -97.117115 -64.380375 -97.599364 -65.96744 -97.599364 -67.951441 C -97.599364 -70.048813 -97.117115 -71.664459 -96.153457 -72.798173 C -95.133114 -73.931888 -93.631273 -74.498845 -91.647272 -74.498845 z " /></g></svg>
