<?xml version="1.0" encoding="UTF-8" standalone="no"?>
<!-- Created with Inkscape (http://www.inkscape.org/) -->

<svg
   width="172.6701mm"
   height="172.6701mm"
   viewBox="0 0 172.6701 172.6701"
   version="1.1"
   id="svg1"
   xml:space="preserve"
   xmlns="http://www.w3.org/2000/svg"
   xmlns:svg="http://www.w3.org/2000/svg"><defs
     id="defs1" /><g
     id="layer1"
     transform="translate(157.25102,198.81012)"><path
       id="path5"
       style="fill:#ffffff;fill-opacity:1;stroke-width:0.805188;stroke-linecap:round;stroke-linejoin:round"
       d="M -2.0863309 -198.17657 L -10.088943 -183.11289 L -10.930235 -165.68398 L -19.198981 -165.68398 L -11.423229 -155.47426 L -12.166336 -140.07934 C -28.353216 -157.12094 -50.823548 -166.77435 -74.327399 -166.78417 C -103.64471 -166.77397 -130.92652 -151.79225 -146.66717 -127.05894 L -157.25102 -127.05894 L -149.61996 -115.86014 L -157.25102 -26.140039 L -8.5138455 -26.140039 L 15.419061 -26.140039 L 8.0799737 -154.80195 L 15.419061 -165.68398 L 7.4593397 -165.68398 L 6.4490654 -183.39297 L -2.0863309 -198.17657 z M -83.43072 -192.21621 C -85.584619 -189.65499 -86.77489 -186.4211 -86.795372 -183.07465 C -86.842092 -175.15518 -80.459903 -168.69733 -72.540428 -168.65072 C -64.621155 -168.60402 -58.163395 -174.98588 -58.116503 -182.90515 C -58.102813 -186.26049 -59.266203 -189.5144 -61.404157 -192.10045 C -60.83125 -190.6836 -60.536835 -189.16959 -60.537027 -187.64129 C -60.575787 -181.07411 -65.930869 -175.78172 -72.498054 -175.82031 C -79.065241 -175.85911 -84.357627 -181.21415 -84.319038 -187.78134 C -84.309338 -189.30285 -84.007827 -190.80837 -83.43072 -192.21621 z M -55.8076 -119.73381 C -52.123027 -119.73381 -48.863672 -119.11073 -46.029385 -117.86364 C -43.195098 -116.67324 -40.984432 -114.97237 -39.397232 -112.76163 C -37.810031 -110.60757 -37.015982 -108.11368 -37.015982 -105.27939 C -37.015982 -102.10499 -37.951383 -99.384015 -39.822012 -97.116586 C -41.692641 -94.849156 -44.470264 -93.120223 -48.154837 -91.929822 C -43.506606 -90.909479 -40.247251 -89.237189 -38.376622 -86.913074 C -36.505993 -84.588959 -35.570592 -81.442892 -35.570592 -77.474891 C -35.570592 -74.017061 -36.619281 -71.069506 -38.716653 -68.632019 C -40.75734 -66.194533 -43.421674 -64.380375 -46.709447 -63.189974 C -49.99722 -61.999574 -53.398443 -61.404554 -56.912958 -61.404554 C -62.014675 -61.404554 -66.351299 -62.453243 -69.9225 -64.550615 C -73.437016 -66.647987 -75.194013 -69.510317 -75.194013 -73.138204 C -75.194013 -75.235577 -74.570412 -76.851222 -73.323326 -77.984937 C -72.07624 -79.175337 -70.517755 -79.770358 -68.647126 -79.770358 C -66.719811 -79.770358 -64.763785 -79.005405 -62.779784 -77.474891 C -63.289955 -76.397862 -63.545112 -75.094016 -63.545112 -73.563501 C -63.545112 -71.749558 -63.006735 -70.275781 -61.929707 -69.142066 C -60.795992 -68.008351 -59.123702 -67.441394 -56.912958 -67.441394 C -52.037985 -67.441394 -49.600227 -70.814037 -49.600227 -77.55964 C -49.600227 -81.244213 -50.790784 -84.10706 -53.171585 -86.147746 C -55.4957 -88.188433 -58.811699 -89.208541 -63.119815 -89.208541 L -63.119815 -94.480571 C -54.787012 -95.1608 -50.620836 -98.760535 -50.620836 -105.27939 C -50.620836 -108.56717 -51.131149 -110.97583 -52.151492 -112.50634 C -53.171835 -114.09354 -54.560388 -114.88759 -56.317646 -114.88759 C -58.415018 -114.88759 -60.002083 -114.15071 -61.079112 -112.67688 C -62.099456 -111.20305 -62.609768 -109.41747 -62.609768 -107.3201 C -62.609768 -105.44947 -62.21326 -103.77718 -61.41966 -102.30335 C -63.006861 -100.60278 -65.047078 -99.752084 -67.54125 -99.752084 C -69.80868 -99.752084 -71.566194 -100.43233 -72.81328 -101.79279 C -74.060366 -103.15324 -74.683967 -104.91076 -74.683967 -107.06482 C -74.683967 -109.8991 -73.720502 -112.25164 -71.793187 -114.12227 C -69.809186 -116.04958 -67.371428 -117.46671 -64.480455 -118.37369 C -61.532797 -119.28066 -58.641886 -119.73381 -55.8076 -119.73381 z M -9.7220405 -119.13901 L -6.9160102 -117.86364 L -6.9160102 -68.716769 C -5.8389813 -68.093226 -4.138628 -67.526269 -1.8145128 -67.016097 C 0.5096023 -66.562611 2.351824 -66.279392 3.7122816 -66.16602 L 3.4575168 -62.084615 L -31.234423 -62.084615 L -31.064407 -66.16602 C -26.019377 -66.732877 -22.164485 -67.583054 -19.500255 -68.716769 L -19.500255 -109.44555 L -30.894392 -109.44555 L -30.894392 -114.37703 C -27.266505 -114.66046 -23.5249 -115.19935 -19.67027 -115.99295 C -15.815641 -116.84324 -12.499642 -117.89193 -9.7220405 -119.13901 z M -135.22446 -119.05375 L -130.97304 -118.969 C -124.96435 -118.85563 -121.7897 -118.79847 -121.44959 -118.79847 L -109.37591 -118.969 L -106.90991 -117.18306 L -107.67523 -110.72092 L -128.76232 -110.72092 L -129.95243 -96.521273 C -127.00477 -97.258188 -124.34095 -97.626632 -121.96015 -97.626632 C -116.34826 -97.626632 -111.78506 -96.124274 -108.27055 -93.11993 C -104.69935 -90.172272 -102.91325 -85.836165 -102.91325 -80.110905 C -102.91325 -76.539704 -103.76394 -73.336993 -105.46452 -70.502706 C -107.1084 -67.66842 -109.489 -65.429173 -112.60672 -63.785287 C -115.72443 -62.198086 -119.40888 -61.404554 -123.66031 -61.404554 C -127.11814 -61.404554 -130.2642 -61.886286 -133.09849 -62.849943 C -135.87609 -63.813601 -138.05869 -65.14551 -139.64589 -66.846082 C -141.23309 -68.60334 -142.02663 -70.559366 -142.02663 -72.713424 C -142.02663 -74.980853 -141.40303 -76.709787 -140.15594 -77.900188 C -138.90885 -79.147274 -137.37843 -79.770358 -135.56449 -79.770358 C -134.54415 -79.770358 -133.52404 -79.572362 -132.50369 -79.175562 C -131.42666 -78.778762 -130.46268 -78.211805 -129.6124 -77.474891 C -130.12257 -76.28449 -130.37772 -75.037289 -130.37772 -73.733517 C -130.37772 -71.862888 -129.83935 -70.332466 -128.76232 -69.142066 C -127.6286 -67.951665 -125.92773 -67.356645 -123.66031 -67.356645 C -118.55859 -67.356645 -116.00806 -71.608045 -116.00806 -80.110905 C -116.00806 -84.135593 -116.80159 -87.054567 -118.38879 -88.86851 C -119.97599 -90.73914 -122.10143 -91.674541 -124.76566 -91.674541 C -126.40955 -91.674541 -128.16706 -91.36274 -130.03769 -90.739197 C -131.90832 -90.115654 -133.75054 -89.236897 -135.56449 -88.103182 L -140.24121 -92.609884 L -138.03049 -116.75776 L -135.22446 -119.05375 z M -87.523493 -101.28274 C -85.539492 -101.28274 -84.065198 -100.68772 -83.101541 -99.497319 C -82.081198 -98.363604 -81.571402 -96.776539 -81.571402 -94.735852 C -81.571402 -92.695166 -82.081198 -91.107584 -83.101541 -89.973869 C -84.065198 -88.840154 -85.539492 -88.273198 -87.523493 -88.273198 C -89.507494 -88.273198 -91.009335 -88.840154 -92.029678 -89.973869 C -92.993336 -91.16427 -93.475068 -92.751852 -93.475068 -94.735852 C -93.475068 -96.833225 -92.993336 -98.448354 -92.029678 -99.582068 C -91.009335 -100.71578 -89.507494 -101.28274 -87.523493 -101.28274 z M -87.523493 -74.498845 C -85.539492 -74.498845 -84.065198 -73.903824 -83.101541 -72.713424 C -82.081198 -71.579709 -81.571402 -69.992127 -81.571402 -67.951441 C -81.571402 -65.910754 -82.081198 -64.323689 -83.101541 -63.189974 C -84.065198 -62.05626 -85.539492 -61.489303 -87.523493 -61.489303 C -89.507494 -61.489303 -91.009335 -62.05626 -92.029678 -63.189974 C -92.993336 -64.380375 -93.475068 -65.96744 -93.475068 -67.951441 C -93.475068 -70.048813 -92.993336 -71.664459 -92.029678 -72.798173 C -91.009335 -73.931888 -89.507494 -74.498845 -87.523493 -74.498845 z " /></g></svg>
