<?xml version="1.0" encoding="UTF-8" standalone="no"?>
<!-- Created with Inkscape (http://www.inkscape.org/) -->

<svg
   width="172.6701mm"
   height="172.6701mm"
   viewBox="0 0 172.6701 172.6701"
   version="1.1"
   id="svg1"
   xml:space="preserve"
   xmlns="http://www.w3.org/2000/svg"
   xmlns:svg="http://www.w3.org/2000/svg"><defs
     id="defs1" /><g
     id="layer1"
     transform="translate(157.25102,198.81012)"><path
       id="path5"
       style="fill:#ffffff;fill-opacity:1;stroke-width:0.805188;stroke-linecap:round;stroke-linejoin:round"
       d="M -2.0863309 -198.17657 L -10.088943 -183.11289 L -10.930235 -165.68398 L -19.198981 -165.68398 L -11.423229 -155.47426 L -12.166336 -140.07934 C -28.353216 -157.12094 -50.823548 -166.77435 -74.327399 -166.78417 C -103.64471 -166.77397 -130.92652 -151.79225 -146.66717 -127.05894 L -157.25102 -127.05894 L -149.61996 -115.86014 L -157.25102 -26.140039 L -8.5138455 -26.140039 L 15.419061 -26.140039 L 8.0799737 -154.80195 L 15.419061 -165.68398 L 7.4593397 -165.68398 L 6.4490654 -183.39297 L -2.0863309 -198.17657 z M -83.43072 -192.21621 C -85.584619 -189.65499 -86.77489 -186.4211 -86.795372 -183.07465 C -86.842092 -175.15518 -80.459903 -168.69733 -72.540428 -168.65072 C -64.621155 -168.60402 -58.163395 -174.98588 -58.116503 -182.90515 C -58.102813 -186.26049 -59.266203 -189.5144 -61.404157 -192.10045 C -60.83125 -190.6836 -60.536835 -189.16959 -60.537027 -187.64129 C -60.575787 -181.07411 -65.930869 -175.78172 -72.498054 -175.82031 C -79.065241 -175.85911 -84.357627 -181.21415 -84.319038 -187.78134 C -84.309338 -189.30285 -84.007827 -190.80837 -83.43072 -192.21621 z M -57.890677 -119.73381 C -54.206104 -119.73381 -50.946749 -119.11073 -48.112462 -117.86364 C -45.278175 -116.67324 -43.067509 -114.97237 -41.480309 -112.76163 C -39.893108 -110.60757 -39.099576 -108.11368 -39.099576 -105.27939 C -39.099576 -102.10499 -40.034977 -99.384015 -41.905606 -97.116586 C -43.776235 -94.849156 -46.553858 -93.120223 -50.23843 -91.929822 C -45.5902 -90.909479 -42.330328 -89.237189 -40.459699 -86.913074 C -38.58907 -84.588959 -37.654186 -81.442892 -37.654186 -77.474891 C -37.654186 -74.017061 -38.702875 -71.069506 -40.800247 -68.632019 C -42.840933 -66.194533 -45.504751 -64.380375 -48.792524 -63.189974 C -52.080297 -61.999574 -55.48152 -61.404554 -58.996035 -61.404554 C -64.097752 -61.404554 -68.434376 -62.453243 -72.005577 -64.550615 C -75.520093 -66.647987 -77.27709 -69.510317 -77.27709 -73.138204 C -77.27709 -75.235577 -76.653489 -76.851222 -75.406403 -77.984937 C -74.159317 -79.175337 -72.600832 -79.770358 -70.730203 -79.770358 C -68.802888 -79.770358 -66.846862 -79.005405 -64.862861 -77.474891 C -65.373032 -76.397862 -65.628189 -75.094016 -65.628189 -73.563501 C -65.628189 -71.749558 -65.089812 -70.275781 -64.012784 -69.142066 C -62.879069 -68.008351 -61.206779 -67.441394 -58.996035 -67.441394 C -54.121062 -67.441394 -51.68382 -70.814037 -51.68382 -77.55964 C -51.68382 -81.244213 -52.873861 -84.10706 -55.254662 -86.147746 C -57.578777 -88.188433 -60.895293 -89.208541 -65.203409 -89.208541 L -65.203409 -94.480571 C -56.870605 -95.1608 -52.703913 -98.760535 -52.703913 -105.27939 C -52.703913 -108.56717 -53.214226 -110.97583 -54.234569 -112.50634 C -55.254912 -114.09354 -56.643465 -114.88759 -58.400723 -114.88759 C -60.498095 -114.88759 -62.085677 -114.15071 -63.162706 -112.67688 C -64.183049 -111.20305 -64.692845 -109.41747 -64.692845 -107.3201 C -64.692845 -105.44947 -64.296337 -103.77718 -63.502737 -102.30335 C -65.089938 -100.60278 -67.130672 -99.752084 -69.624844 -99.752084 C -71.892273 -99.752084 -73.649271 -100.43233 -74.896357 -101.79279 C -76.143443 -103.15324 -76.767044 -104.91076 -76.767044 -107.06482 C -76.767044 -109.8991 -75.803579 -112.25164 -73.876264 -114.12227 C -71.892263 -116.04958 -69.454505 -117.46671 -66.563532 -118.37369 C -63.615874 -119.28066 -60.724963 -119.73381 -57.890677 -119.73381 z M -14.356383 -119.73381 C -8.5177522 -119.73381 -3.8693275 -118.28861 -0.4114977 -115.39764 C 3.0463321 -112.56335 4.7752658 -108.56711 4.7752658 -103.40871 C 4.7752658 -98.873849 3.0463321 -94.026912 -0.4114977 -88.86851 C -3.8693275 -83.766794 -9.5664412 -77.616529 -17.502444 -70.41744 L 5.3705783 -70.41744 L 5.3705783 -62.084615 L -33.147484 -62.084615 L -33.147484 -67.016097 C -26.855367 -73.081471 -21.951786 -78.268272 -18.437271 -82.576388 C -14.922755 -86.884504 -12.400289 -90.852684 -10.869774 -94.480571 C -9.2825735 -98.108458 -8.4890408 -101.84955 -8.4890408 -105.70418 C -8.4890408 -111.82623 -10.529775 -114.88759 -14.611148 -114.88759 C -16.425091 -114.88759 -17.898869 -114.0369 -19.032583 -112.33633 C -20.166298 -110.69244 -20.733255 -108.65171 -20.733255 -106.21422 C -20.733255 -104.51365 -20.138234 -102.89852 -18.947834 -101.36801 C -19.911491 -100.46103 -21.016824 -99.752209 -22.263911 -99.242037 C -23.454311 -98.731866 -24.644868 -98.476709 -25.835269 -98.476709 C -27.875955 -98.476709 -29.576309 -99.10031 -30.936766 -100.3474 C -32.297224 -101.65117 -32.977469 -103.52197 -32.977469 -105.95946 C -32.977469 -108.567 -32.212 -110.91953 -30.681485 -113.01691 C -29.15097 -115.11428 -26.996948 -116.75799 -24.219347 -117.94839 C -21.38506 -119.13879 -18.097641 -119.73381 -14.356383 -119.73381 z M -137.30753 -119.05375 L -133.05611 -118.969 C -127.04743 -118.85563 -123.8733 -118.79847 -123.53318 -118.79847 L -111.45898 -118.969 L -108.99298 -117.18306 L -109.75831 -110.72092 L -130.8454 -110.72092 L -132.03602 -96.521273 C -129.08836 -97.258188 -126.42403 -97.626632 -124.04323 -97.626632 C -118.43134 -97.626632 -113.86814 -96.124274 -110.35362 -93.11993 C -106.78242 -90.172272 -104.99685 -85.836165 -104.99685 -80.110905 C -104.99685 -76.539704 -105.84702 -73.336993 -107.54759 -70.502706 C -109.19148 -67.66842 -111.57208 -65.429173 -114.68979 -63.785287 C -117.80751 -62.198086 -121.49247 -61.404554 -125.7439 -61.404554 C -129.20173 -61.404554 -132.3478 -61.886286 -135.18208 -62.849943 C -137.95968 -63.813601 -140.14177 -65.14551 -141.72897 -66.846082 C -143.31617 -68.60334 -144.1097 -70.559366 -144.1097 -72.713424 C -144.1097 -74.980853 -143.4861 -76.709787 -142.23902 -77.900188 C -140.99193 -79.147274 -139.46151 -79.770358 -137.64757 -79.770358 C -136.62722 -79.770358 -135.60711 -79.572362 -134.58677 -79.175562 C -133.50974 -78.778762 -132.54576 -78.211805 -131.69547 -77.474891 C -132.20565 -76.28449 -132.4608 -75.037289 -132.4608 -73.733517 C -132.4608 -71.862888 -131.92243 -70.332466 -130.8454 -69.142066 C -129.71168 -67.951665 -128.01133 -67.356645 -125.7439 -67.356645 C -120.64218 -67.356645 -118.09114 -71.608045 -118.09114 -80.110905 C -118.09114 -84.135593 -118.88467 -87.054567 -120.47187 -88.86851 C -122.05907 -90.73914 -124.18503 -91.674541 -126.84926 -91.674541 C -128.49314 -91.674541 -130.25014 -91.36274 -132.12077 -90.739197 C -133.9914 -90.115654 -135.83362 -89.236897 -137.64757 -88.103182 L -142.32428 -92.609884 L -140.11356 -116.75776 L -137.30753 -119.05375 z M -89.60657 -101.28274 C -87.622569 -101.28274 -86.148792 -100.68772 -85.185135 -99.497319 C -84.164791 -98.363604 -83.654479 -96.776539 -83.654479 -94.735852 C -83.654479 -92.695166 -84.164791 -91.107584 -85.185135 -89.973869 C -86.148792 -88.840154 -87.622569 -88.273198 -89.60657 -88.273198 C -91.590571 -88.273198 -93.092412 -88.840154 -94.112755 -89.973869 C -95.076413 -91.16427 -95.558662 -92.751852 -95.558662 -94.735852 C -95.558662 -96.833225 -95.076413 -98.448354 -94.112755 -99.582068 C -93.092412 -100.71578 -91.590571 -101.28274 -89.60657 -101.28274 z M -89.60657 -74.498845 C -87.622569 -74.498845 -86.148792 -73.903824 -85.185135 -72.713424 C -84.164791 -71.579709 -83.654479 -69.992127 -83.654479 -67.951441 C -83.654479 -65.910754 -84.164791 -64.323689 -85.185135 -63.189974 C -86.148792 -62.05626 -87.622569 -61.489303 -89.60657 -61.489303 C -91.590571 -61.489303 -93.092412 -62.05626 -94.112755 -63.189974 C -95.076413 -64.380375 -95.558662 -65.96744 -95.558662 -67.951441 C -95.558662 -70.048813 -95.076413 -71.664459 -94.112755 -72.798173 C -93.092412 -73.931888 -91.590571 -74.498845 -89.60657 -74.498845 z " /></g></svg>
