<?xml version="1.0" encoding="UTF-8" standalone="no"?>
<!-- Created with Inkscape (http://www.inkscape.org/) -->

<svg
   width="172.6701mm"
   height="172.6701mm"
   viewBox="0 0 172.6701 172.6701"
   version="1.1"
   id="svg1"
   xml:space="preserve"
   xmlns="http://www.w3.org/2000/svg"
   xmlns:svg="http://www.w3.org/2000/svg"><defs
     id="defs1" /><g
     id="layer1"
     transform="translate(157.25102,198.81012)"><path
       id="path5"
       style="fill:#ffffff;fill-opacity:1;stroke-width:0.805188;stroke-linecap:round;stroke-linejoin:round"
       d="M -2.0863309 -198.17657 L -10.088943 -183.11289 L -10.930235 -165.68398 L -19.198981 -165.68398 L -11.423229 -155.47426 L -12.166336 -140.07934 C -28.353216 -157.12094 -50.823548 -166.77435 -74.327399 -166.78417 C -103.64471 -166.77397 -130.92652 -151.79225 -146.66717 -127.05894 L -157.25102 -127.05894 L -149.61996 -115.86014 L -157.25102 -26.140039 L -8.5138455 -26.140039 L 15.419061 -26.140039 L 8.0799737 -154.80195 L 15.419061 -165.68398 L 7.4593397 -165.68398 L 6.4490654 -183.39297 L -2.0863309 -198.17657 z M -83.43072 -192.21621 C -85.584619 -189.65499 -86.77489 -186.4211 -86.795372 -183.07465 C -86.842092 -175.15518 -80.459903 -168.69733 -72.540428 -168.65072 C -64.621155 -168.60402 -58.163395 -174.98588 -58.116503 -182.90515 C -58.102813 -186.26049 -59.266203 -189.5144 -61.404157 -192.10045 C -60.83125 -190.6836 -60.536835 -189.16959 -60.537027 -187.64129 C -60.575787 -181.07411 -65.930869 -175.78172 -72.498054 -175.82031 C -79.065241 -175.85911 -84.357627 -181.21415 -84.319038 -187.78134 C -84.309338 -189.30285 -84.007827 -190.80837 -83.43072 -192.21621 z M -57.933051 -119.73381 C -54.248478 -119.73381 -50.989123 -119.11073 -48.154837 -117.86364 C -45.32055 -116.67324 -43.109884 -114.97237 -41.522683 -112.76163 C -39.935483 -110.60757 -39.14195 -108.11368 -39.14195 -105.27939 C -39.14195 -102.10499 -40.077351 -99.384015 -41.94798 -97.116586 C -43.81861 -94.849156 -46.596232 -93.120223 -50.280805 -91.929822 C -45.632575 -90.909479 -42.37322 -89.237189 -40.502591 -86.913074 C -38.631961 -84.588959 -37.69656 -81.442892 -37.69656 -77.474891 C -37.69656 -74.017061 -38.745249 -71.069506 -40.842622 -68.632019 C -42.883308 -66.194533 -45.547643 -64.380375 -48.835415 -63.189974 C -52.123188 -61.999574 -55.523895 -61.404554 -59.03841 -61.404554 C -64.140126 -61.404554 -68.476751 -62.453243 -72.047952 -64.550615 C -75.562468 -66.647987 -77.319982 -69.510317 -77.319982 -73.138204 C -77.319982 -75.235577 -76.696381 -76.851222 -75.449295 -77.984937 C -74.202209 -79.175337 -72.643207 -79.770358 -70.772578 -79.770358 C -68.845263 -79.770358 -66.889753 -79.005405 -64.905752 -77.474891 C -65.415924 -76.397862 -65.67108 -75.094016 -65.67108 -73.563501 C -65.67108 -71.749558 -65.132187 -70.275781 -64.055158 -69.142066 C -62.921443 -68.008351 -61.249154 -67.441394 -59.03841 -67.441394 C -54.163437 -67.441394 -51.726195 -70.814037 -51.726195 -77.55964 C -51.726195 -81.244213 -52.916752 -84.10706 -55.297553 -86.147746 C -57.621668 -88.188433 -60.937667 -89.208541 -65.245783 -89.208541 L -65.245783 -94.480571 C -56.91298 -95.1608 -52.746288 -98.760535 -52.746288 -105.27939 C -52.746288 -108.56717 -53.2566 -110.97583 -54.276944 -112.50634 C -55.297287 -114.09354 -56.686357 -114.88759 -58.443614 -114.88759 C -60.540987 -114.88759 -62.128052 -114.15071 -63.205081 -112.67688 C -64.225424 -111.20305 -64.735737 -109.41747 -64.735737 -107.3201 C -64.735737 -105.44947 -64.338712 -103.77718 -63.545112 -102.30335 C -65.132312 -100.60278 -67.173046 -99.752084 -69.667219 -99.752084 C -71.934648 -99.752084 -73.691645 -100.43233 -74.938732 -101.79279 C -76.185818 -103.15324 -76.809418 -104.91076 -76.809418 -107.06482 C -76.809418 -109.8991 -75.845954 -112.25164 -73.918639 -114.12227 C -71.934638 -116.04958 -69.496879 -117.46671 -66.605907 -118.37369 C -63.658249 -119.28066 -60.767338 -119.73381 -57.933051 -119.73381 z M -14.738789 -119.73381 C -11.054216 -119.73381 -7.7948608 -119.11073 -4.960574 -117.86364 C -2.1262873 -116.67324 0.084378702 -114.97237 1.6715793 -112.76163 C 3.2587799 -110.60757 4.0523125 -108.11368 4.0523125 -105.27939 C 4.0523125 -102.10499 3.1174283 -99.384015 1.246799 -97.116586 C -0.62383025 -94.849156 -3.4014529 -93.120223 -7.0860257 -91.929822 C -2.4377954 -90.909479 0.82155956 -89.237189 2.6921888 -86.913074 C 4.5628181 -84.588959 5.4982191 -81.442892 5.4982191 -77.474891 C 5.4982191 -74.017061 4.4495301 -71.069506 2.3521579 -68.632019 C 0.31147143 -66.194533 -2.3528633 -64.380375 -5.6406359 -63.189974 C -8.9284085 -61.999574 -12.329632 -61.404554 -15.844147 -61.404554 C -20.945864 -61.404554 -25.282488 -62.453243 -28.853689 -64.550615 C -32.368205 -66.647987 -34.125202 -69.510317 -34.125202 -73.138204 C -34.125202 -75.235577 -33.501601 -76.851222 -32.254515 -77.984937 C -31.007429 -79.175337 -29.448944 -79.770358 -27.578315 -79.770358 C -25.651 -79.770358 -23.694974 -79.005405 -21.710973 -77.474891 C -22.221144 -76.397862 -22.476301 -75.094016 -22.476301 -73.563501 C -22.476301 -71.749558 -21.937924 -70.275781 -20.860895 -69.142066 C -19.727181 -68.008351 -18.054891 -67.441394 -15.844147 -67.441394 C -10.969174 -67.441394 -8.5314155 -70.814037 -8.5314155 -77.55964 C -8.5314155 -81.244213 -9.7219729 -84.10706 -12.102774 -86.147746 C -14.426889 -88.188433 -17.742888 -89.208541 -22.051004 -89.208541 L -22.051004 -94.480571 C -13.718201 -95.1608 -9.552025 -98.760535 -9.552025 -105.27939 C -9.552025 -108.56717 -10.062338 -110.97583 -11.082681 -112.50634 C -12.103024 -114.09354 -13.491577 -114.88759 -15.248835 -114.88759 C -17.346207 -114.88759 -18.933272 -114.15071 -20.010301 -112.67688 C -21.030645 -111.20305 -21.540957 -109.41747 -21.540957 -107.3201 C -21.540957 -105.44947 -21.144449 -103.77718 -20.350849 -102.30335 C -21.93805 -100.60278 -23.978784 -99.752084 -26.472956 -99.752084 C -28.740385 -99.752084 -30.497383 -100.43233 -31.744469 -101.79279 C -32.991555 -103.15324 -33.615156 -104.91076 -33.615156 -107.06482 C -33.615156 -109.8991 -32.651691 -112.25164 -30.724376 -114.12227 C -28.740375 -116.04958 -26.302617 -117.46671 -23.411644 -118.37369 C -20.463986 -119.28066 -17.573075 -119.73381 -14.738789 -119.73381 z M -137.34991 -119.05375 L -133.09849 -118.969 C -127.0898 -118.85563 -123.91567 -118.79847 -123.57556 -118.79847 L -111.50136 -118.969 L -109.03536 -117.18306 L -109.80069 -110.72092 L -130.88777 -110.72092 L -132.0784 -96.521273 C -129.13074 -97.258188 -126.4664 -97.626632 -124.0856 -97.626632 C -118.47371 -97.626632 -113.91051 -96.124274 -110.396 -93.11993 C -106.8248 -90.172272 -105.03922 -85.836165 -105.03922 -80.110905 C -105.03922 -76.539704 -105.8894 -73.336993 -107.58997 -70.502706 C -109.23385 -67.66842 -111.61497 -65.429173 -114.73269 -63.785287 C -117.8504 -62.198086 -121.53484 -61.404554 -125.78627 -61.404554 C -129.2441 -61.404554 -132.39017 -61.886286 -135.22446 -62.849943 C -138.00206 -63.813601 -140.18414 -65.14551 -141.77134 -66.846082 C -143.35855 -68.60334 -144.15259 -70.559366 -144.15259 -72.713424 C -144.15259 -74.980853 -143.52899 -76.709787 -142.28191 -77.900188 C -141.03482 -79.147274 -139.50388 -79.770358 -137.68994 -79.770358 C -136.6696 -79.770358 -135.64949 -79.572362 -134.62915 -79.175562 C -133.55212 -78.778762 -132.58865 -78.211805 -131.73837 -77.474891 C -132.24854 -76.28449 -132.50318 -75.037289 -132.50318 -73.733517 C -132.50318 -71.862888 -131.9648 -70.332466 -130.88777 -69.142066 C -129.75406 -67.951665 -128.0537 -67.356645 -125.78627 -67.356645 C -120.68456 -67.356645 -118.13351 -71.608045 -118.13351 -80.110905 C -118.13351 -84.135593 -118.92704 -87.054567 -120.51424 -88.86851 C -122.10144 -90.73914 -124.2274 -91.674541 -126.89163 -91.674541 C -128.53552 -91.674541 -130.29252 -91.36274 -132.16315 -90.739197 C -134.03377 -90.115654 -135.876 -89.236897 -137.68994 -88.103182 L -142.36666 -92.609884 L -140.15594 -116.75776 L -137.34991 -119.05375 z M -89.648945 -101.28274 C -87.664944 -101.28274 -86.191167 -100.68772 -85.227509 -99.497319 C -84.207166 -98.363604 -83.696853 -96.776539 -83.696853 -94.735852 C -83.696853 -92.695166 -84.207166 -91.107584 -85.227509 -89.973869 C -86.191167 -88.840154 -87.664944 -88.273198 -89.648945 -88.273198 C -91.632946 -88.273198 -93.135303 -88.840154 -94.155646 -89.973869 C -95.119304 -91.16427 -95.601036 -92.751852 -95.601036 -94.735852 C -95.601036 -96.833225 -95.119304 -98.448354 -94.155646 -99.582068 C -93.135303 -100.71578 -91.632946 -101.28274 -89.648945 -101.28274 z M -89.648945 -74.498845 C -87.664944 -74.498845 -86.191167 -73.903824 -85.227509 -72.713424 C -84.207166 -71.579709 -83.696853 -69.992127 -83.696853 -67.951441 C -83.696853 -65.910754 -84.207166 -64.323689 -85.227509 -63.189974 C -86.191167 -62.05626 -87.664944 -61.489303 -89.648945 -61.489303 C -91.632946 -61.489303 -93.135303 -62.05626 -94.155646 -63.189974 C -95.119304 -64.380375 -95.601036 -65.96744 -95.601036 -67.951441 C -95.601036 -70.048813 -95.119304 -71.664459 -94.155646 -72.798173 C -93.135303 -73.931888 -91.632946 -74.498845 -89.648945 -74.498845 z " /></g></svg>
