<?xml version="1.0" encoding="UTF-8" standalone="no"?>
<!-- Created with Inkscape (http://www.inkscape.org/) -->

<svg
   width="172.6701mm"
   height="172.6701mm"
   viewBox="0 0 172.6701 172.6701"
   version="1.1"
   id="svg1"
   xml:space="preserve"
   xmlns="http://www.w3.org/2000/svg"
   xmlns:svg="http://www.w3.org/2000/svg"><defs
     id="defs1" /><g
     id="layer1"
     transform="translate(157.25102,198.81012)"><path
       id="path5"
       style="fill:#ffffff;fill-opacity:1;stroke-width:0.805188;stroke-linecap:round;stroke-linejoin:round"
       d="M -2.0863309 -198.17657 L -10.088943 -183.11289 L -10.930235 -165.68398 L -19.198981 -165.68398 L -11.423229 -155.47426 L -12.166336 -140.07934 C -28.353216 -157.12094 -50.823548 -166.77435 -74.327399 -166.78417 C -103.64471 -166.77397 -130.92652 -151.79225 -146.66717 -127.05894 L -157.25102 -127.05894 L -149.61996 -115.86014 L -157.25102 -26.140039 L -8.5138455 -26.140039 L 15.419061 -26.140039 L 8.0799737 -154.80195 L 15.419061 -165.68398 L 7.4593397 -165.68398 L 6.4490654 -183.39297 L -2.0863309 -198.17657 z M -83.43072 -192.21621 C -85.584619 -189.65499 -86.77489 -186.4211 -86.795372 -183.07465 C -86.842092 -175.15518 -80.459903 -168.69733 -72.540428 -168.65072 C -64.621155 -168.60402 -58.163395 -174.98588 -58.116503 -182.90515 C -58.102813 -186.26049 -59.266203 -189.5144 -61.404157 -192.10045 C -60.83125 -190.6836 -60.536835 -189.16959 -60.537027 -187.64129 C -60.575787 -181.07411 -65.930869 -175.78172 -72.498054 -175.82031 C -79.065241 -175.85911 -84.357627 -181.21415 -84.319038 -187.78134 C -84.309338 -189.30285 -84.007827 -190.80837 -83.43072 -192.21621 z M -2.1545438 -119.90383 L -0.11384145 -115.65241 C -11.56436 -110.72075 -18.451514 -103.12528 -20.775629 -92.865166 C -17.487857 -94.452366 -14.37037 -95.245899 -11.422712 -95.245899 C -5.7541384 -95.245899 -1.304226 -93.715477 1.9268609 -90.654448 C 5.2146335 -87.593418 6.8583428 -83.455306 6.8583428 -78.240218 C 6.8583428 -75.009132 5.9801025 -72.118221 4.2228447 -69.567363 C 2.5222727 -67.016505 0.11309435 -65.032415 -3.0046211 -63.615271 C -6.0656508 -62.198128 -9.5801621 -61.489303 -13.548164 -61.489303 C -20.293766 -61.489303 -25.480567 -63.360105 -29.108454 -67.101363 C -32.679655 -70.842622 -34.465233 -76.255999 -34.465233 -83.341716 C -34.465233 -92.241376 -31.716191 -99.808775 -26.217674 -106.04421 C -20.662472 -112.33632 -12.641405 -116.95617 -2.1545438 -119.90383 z M -59.208942 -119.73381 C -55.52437 -119.73381 -52.264498 -119.11073 -49.430211 -117.86364 C -46.595924 -116.67324 -44.385258 -114.97237 -42.798058 -112.76163 C -41.210857 -110.60757 -40.417325 -108.11368 -40.417325 -105.27939 C -40.417325 -102.10499 -41.352726 -99.384015 -43.223355 -97.116586 C -45.093984 -94.849156 -47.871607 -93.120223 -51.55618 -91.929822 C -46.907949 -90.909479 -43.648594 -89.237189 -41.777965 -86.913074 C -39.907336 -84.588959 -38.971935 -81.442892 -38.971935 -77.474891 C -38.971935 -74.017061 -40.020624 -71.069506 -42.117996 -68.632019 C -44.158682 -66.194533 -46.823017 -64.380375 -50.11079 -63.189974 C -53.398562 -61.999574 -56.799786 -61.404554 -60.314301 -61.404554 C -65.416017 -61.404554 -69.752125 -62.453243 -73.323326 -64.550615 C -76.837842 -66.647987 -78.595356 -69.510317 -78.595356 -73.138204 C -78.595356 -75.235577 -77.971755 -76.851222 -76.724669 -77.984937 C -75.477583 -79.175337 -73.918581 -79.770358 -72.047952 -79.770358 C -70.120637 -79.770358 -68.165127 -79.005405 -66.181127 -77.474891 C -66.691298 -76.397862 -66.946455 -75.094016 -66.946455 -73.563501 C -66.946455 -71.749558 -66.407561 -70.275781 -65.330533 -69.142066 C -64.196818 -68.008351 -62.525045 -67.441394 -60.314301 -67.441394 C -55.439328 -67.441394 -53.001569 -70.814037 -53.001569 -77.55964 C -53.001569 -81.244213 -54.192127 -84.10706 -56.572928 -86.147746 C -58.897043 -88.188433 -62.213042 -89.208541 -66.521158 -89.208541 L -66.521158 -94.480571 C -58.188354 -95.1608 -54.022179 -98.760535 -54.022179 -105.27939 C -54.022179 -108.56717 -54.531975 -110.97583 -55.552318 -112.50634 C -56.572661 -114.09354 -57.961731 -114.88759 -59.718989 -114.88759 C -61.816361 -114.88759 -63.403426 -114.15071 -64.480455 -112.67688 C -65.500798 -111.20305 -66.011111 -109.41747 -66.011111 -107.3201 C -66.011111 -105.44947 -65.614086 -103.77718 -64.820486 -102.30335 C -66.407687 -100.60278 -68.448421 -99.752084 -70.942593 -99.752084 C -73.210022 -99.752084 -74.967537 -100.43233 -76.214623 -101.79279 C -77.461709 -103.15324 -78.084793 -104.91076 -78.084793 -107.06482 C -78.084793 -109.8991 -77.121328 -112.25164 -75.194013 -114.12227 C -73.210012 -116.04958 -70.77277 -117.46671 -67.881798 -118.37369 C -64.93414 -119.28066 -62.043229 -119.73381 -59.208942 -119.73381 z M -138.62528 -119.05375 L -134.37386 -118.969 C -128.36518 -118.85563 -125.19104 -118.79847 -124.85093 -118.79847 L -112.77673 -118.969 L -110.31073 -117.18306 L -111.07606 -110.72092 L -132.16315 -110.72092 L -133.35377 -96.521273 C -130.40611 -97.258188 -127.74178 -97.626632 -125.36098 -97.626632 C -119.74909 -97.626632 -115.18589 -96.124274 -111.67137 -93.11993 C -108.10017 -90.172272 -106.31459 -85.836165 -106.31459 -80.110905 C -106.31459 -76.539704 -107.16477 -73.336993 -108.86534 -70.502706 C -110.50923 -67.66842 -112.89034 -65.429173 -116.00806 -63.785287 C -119.12577 -62.198086 -122.81022 -61.404554 -127.06165 -61.404554 C -130.51948 -61.404554 -133.66555 -61.886286 -136.49983 -62.849943 C -139.27743 -63.813601 -141.46004 -65.14551 -143.04724 -66.846082 C -144.63444 -68.60334 -145.42797 -70.559366 -145.42797 -72.713424 C -145.42797 -74.980853 -144.80437 -76.709787 -143.55728 -77.900188 C -142.3102 -79.147274 -140.77977 -79.770358 -138.96583 -79.770358 C -137.94549 -79.770358 -136.92486 -79.572362 -135.90452 -79.175562 C -134.82749 -78.778762 -133.86403 -78.211805 -133.01374 -77.474891 C -133.52391 -76.28449 -133.77907 -75.037289 -133.77907 -73.733517 C -133.77907 -71.862888 -133.24017 -70.332466 -132.16315 -69.142066 C -131.02943 -67.951665 -129.32908 -67.356645 -127.06165 -67.356645 C -121.95993 -67.356645 -119.40889 -71.608045 -119.40889 -80.110905 C -119.40889 -84.135593 -120.20242 -87.054567 -121.78962 -88.86851 C -123.37682 -90.73914 -125.50278 -91.674541 -128.16701 -91.674541 C -129.81089 -91.674541 -131.56789 -91.36274 -133.43852 -90.739197 C -135.30915 -90.115654 -137.15189 -89.236897 -138.96583 -88.103182 L -143.64203 -92.609884 L -141.43131 -116.75776 L -138.62528 -119.05375 z M -90.924319 -101.28274 C -88.940318 -101.28274 -87.466541 -100.68772 -86.502884 -99.497319 C -85.48254 -98.363604 -84.972228 -96.776539 -84.972228 -94.735852 C -84.972228 -92.695166 -85.48254 -91.107584 -86.502884 -89.973869 C -87.466541 -88.840154 -88.940318 -88.273198 -90.924319 -88.273198 C -92.90832 -88.273198 -94.410678 -88.840154 -95.431021 -89.973869 C -96.394678 -91.16427 -96.876411 -92.751852 -96.876411 -94.735852 C -96.876411 -96.833225 -96.394678 -98.448354 -95.431021 -99.582068 C -94.410678 -100.71578 -92.90832 -101.28274 -90.924319 -101.28274 z M -13.803445 -89.293807 C -16.184246 -89.293807 -18.763356 -88.330343 -21.540957 -86.403028 L -21.540957 -85.297669 C -21.540957 -79.118924 -20.860713 -74.583787 -19.500255 -71.692814 C -18.139797 -68.801842 -15.985775 -67.356645 -13.038117 -67.356645 C -10.600631 -67.356645 -8.7303453 -68.291529 -7.4265734 -70.162159 C -6.1228015 -72.032788 -5.4706204 -74.697123 -5.4706204 -78.154952 C -5.4706204 -81.669468 -6.2075091 -84.390447 -7.6813382 -86.317762 C -9.0984816 -88.301762 -11.139216 -89.293807 -13.803445 -89.293807 z M -90.924319 -74.498845 C -88.940318 -74.498845 -87.466541 -73.903824 -86.502884 -72.713424 C -85.48254 -71.579709 -84.972228 -69.992127 -84.972228 -67.951441 C -84.972228 -65.910754 -85.48254 -64.323689 -86.502884 -63.189974 C -87.466541 -62.05626 -88.940318 -61.489303 -90.924319 -61.489303 C -92.90832 -61.489303 -94.410678 -62.05626 -95.431021 -63.189974 C -96.394678 -64.380375 -96.876411 -65.96744 -96.876411 -67.951441 C -96.876411 -70.048813 -96.394678 -71.664459 -95.431021 -72.798173 C -94.410678 -73.931888 -92.90832 -74.498845 -90.924319 -74.498845 z " /></g></svg>
