<?xml version="1.0" encoding="UTF-8" standalone="no"?>
<!-- Created with Inkscape (http://www.inkscape.org/) -->

<svg
   width="172.6701mm"
   height="172.6701mm"
   viewBox="0 0 172.6701 172.6701"
   version="1.1"
   id="svg1"
   xml:space="preserve"
   xmlns="http://www.w3.org/2000/svg"
   xmlns:svg="http://www.w3.org/2000/svg"><defs
     id="defs1" /><g
     id="layer1"
     transform="translate(157.25102,198.81012)"><path
       id="path5"
       style="fill:#ffffff;fill-opacity:1;stroke-width:0.805188;stroke-linecap:round;stroke-linejoin:round"
       d="M -2.0863309 -198.17657 L -10.088943 -183.11289 L -10.930235 -165.68398 L -19.198981 -165.68398 L -11.423229 -155.47426 L -12.166336 -140.07934 C -28.353216 -157.12094 -50.823548 -166.77435 -74.327399 -166.78417 C -103.64471 -166.77397 -130.92652 -151.79225 -146.66717 -127.05894 L -157.25102 -127.05894 L -149.61996 -115.86014 L -157.25102 -26.140039 L -8.5138455 -26.140039 L 15.419061 -26.140039 L 8.0799737 -154.80195 L 15.419061 -165.68398 L 7.4593397 -165.68398 L 6.4490654 -183.39297 L -2.0863309 -198.17657 z M -83.43072 -192.21621 C -85.584619 -189.65499 -86.77489 -186.4211 -86.795372 -183.07465 C -86.842092 -175.15518 -80.459903 -168.69733 -72.540428 -168.65072 C -64.621155 -168.60402 -58.163395 -174.98588 -58.116503 -182.90515 C -58.102813 -186.26049 -59.266203 -189.5144 -61.404157 -192.10045 C -60.83125 -190.6836 -60.536835 -189.16959 -60.537027 -187.64129 C -60.575787 -181.07411 -65.930869 -175.78172 -72.498054 -175.82031 C -79.065241 -175.85911 -84.357627 -181.21415 -84.319038 -187.78134 C -84.309338 -189.30285 -84.007827 -190.80837 -83.43072 -192.21621 z M -56.785318 -120.07436 C -52.250459 -119.84761 -48.566016 -118.85557 -45.731729 -117.09831 L -65.968736 -83.767013 L -52.959195 -83.767013 L -52.108601 -97.626632 C -50.294657 -97.626632 -48.991328 -97.995076 -48.197728 -98.731991 C -47.347442 -99.468905 -46.695261 -100.71611 -46.241775 -102.47336 L -41.395043 -102.47336 L -41.480309 -83.341716 C -39.326251 -82.718173 -36.605272 -82.066508 -33.317499 -81.38628 L -33.742797 -77.304875 L -41.905606 -77.304875 L -41.905606 -62.084615 L -52.959195 -62.084615 L -52.959195 -77.304875 L -77.532372 -77.304875 L -78.212434 -80.36567 L -56.785318 -120.07436 z M -7.808979 -119.13901 L -5.0029487 -117.86364 L -5.0029487 -68.716769 C -3.9259197 -68.093226 -2.2255665 -67.526269 0.098548685 -67.016097 C 2.4226638 -66.562611 4.2648855 -66.279392 5.6253431 -66.16602 L 5.3705783 -62.084615 L -29.321361 -62.084615 L -29.151346 -66.16602 C -24.106315 -66.732877 -20.251423 -67.583054 -17.587194 -68.716769 L -17.587194 -109.44555 L -28.98133 -109.44555 L -28.98133 -114.37703 C -25.353443 -114.66046 -21.611839 -115.19935 -17.757209 -115.99295 C -13.902579 -116.84324 -10.58658 -117.89193 -7.808979 -119.13901 z M -137.13752 -119.05375 L -132.8861 -118.969 C -126.87741 -118.85563 -123.70276 -118.79847 -123.36265 -118.79847 L -111.28897 -118.969 L -108.82297 -117.18306 L -109.5883 -110.72092 L -130.67538 -110.72092 L -131.86549 -96.521273 C -128.91783 -97.258188 -126.25401 -97.626632 -123.87321 -97.626632 C -118.26132 -97.626632 -113.69812 -96.124274 -110.18361 -93.11993 C -106.61241 -90.172272 -104.82683 -85.836165 -104.82683 -80.110905 C -104.82683 -76.539704 -105.67701 -73.336993 -107.37758 -70.502706 C -109.02146 -67.66842 -111.40206 -65.429173 -114.51978 -63.785287 C -117.63749 -62.198086 -121.32245 -61.404554 -125.57388 -61.404554 C -129.03171 -61.404554 -132.17726 -61.886286 -135.01155 -62.849943 C -137.78915 -63.813601 -139.97175 -65.14551 -141.55895 -66.846082 C -143.14616 -68.60334 -143.93969 -70.559366 -143.93969 -72.713424 C -143.93969 -74.980853 -143.31609 -76.709787 -142.069 -77.900188 C -140.82191 -79.147274 -139.29149 -79.770358 -137.47755 -79.770358 C -136.45721 -79.770358 -135.4371 -79.572362 -134.41675 -79.175562 C -133.33973 -78.778762 -132.37574 -78.211805 -131.52546 -77.474891 C -132.03563 -76.28449 -132.29079 -75.037289 -132.29079 -73.733517 C -132.29079 -71.862888 -131.75241 -70.332466 -130.67538 -69.142066 C -129.54167 -67.951665 -127.84131 -67.356645 -125.57388 -67.356645 C -120.47217 -67.356645 -117.92112 -71.608045 -117.92112 -80.110905 C -117.92112 -84.135593 -118.71465 -87.054567 -120.30185 -88.86851 C -121.88905 -90.73914 -124.01501 -91.674541 -126.67924 -91.674541 C -128.32313 -91.674541 -130.08013 -91.36274 -131.95076 -90.739197 C -133.82138 -90.115654 -135.66361 -89.236897 -137.47755 -88.103182 L -142.15427 -92.609884 L -139.94355 -116.75776 L -137.13752 -119.05375 z M -89.436555 -101.28274 C -87.452554 -101.28274 -85.978777 -100.68772 -85.015119 -99.497319 C -83.994776 -98.363604 -83.484463 -96.776539 -83.484463 -94.735852 C -83.484463 -92.695166 -83.994776 -91.107584 -85.015119 -89.973869 C -85.978777 -88.840154 -87.452554 -88.273198 -89.436555 -88.273198 C -91.420555 -88.273198 -92.922396 -88.840154 -93.94274 -89.973869 C -94.906397 -91.16427 -95.388646 -92.751852 -95.388646 -94.735852 C -95.388646 -96.833225 -94.906397 -98.448354 -93.94274 -99.582068 C -92.922396 -100.71578 -91.420555 -101.28274 -89.436555 -101.28274 z M -89.436555 -74.498845 C -87.452554 -74.498845 -85.978777 -73.903824 -85.015119 -72.713424 C -83.994776 -71.579709 -83.484463 -69.992127 -83.484463 -67.951441 C -83.484463 -65.910754 -83.994776 -64.323689 -85.015119 -63.189974 C -85.978777 -62.05626 -87.452554 -61.489303 -89.436555 -61.489303 C -91.420555 -61.489303 -92.922396 -62.05626 -93.94274 -63.189974 C -94.906397 -64.380375 -95.388646 -65.96744 -95.388646 -67.951441 C -95.388646 -70.048813 -94.906397 -71.664459 -93.94274 -72.798173 C -92.922396 -73.931888 -91.420555 -74.498845 -89.436555 -74.498845 z " /></g></svg>
