<?xml version="1.0" encoding="UTF-8" standalone="no"?>
<!-- Created with Inkscape (http://www.inkscape.org/) -->

<svg
   width="172.6701mm"
   height="172.6701mm"
   viewBox="0 0 172.6701 172.6701"
   version="1.1"
   id="svg1"
   xml:space="preserve"
   xmlns="http://www.w3.org/2000/svg"
   xmlns:svg="http://www.w3.org/2000/svg"><defs
     id="defs1" /><g
     id="layer1"
     transform="translate(157.25102,198.81012)"><path
       id="path5"
       style="fill:#ffffff;fill-opacity:1;stroke-width:0.805188;stroke-linecap:round;stroke-linejoin:round"
       d="M -2.0863309 -198.17657 L -10.088943 -183.11289 L -10.930235 -165.68398 L -19.198981 -165.68398 L -11.423229 -155.47426 L -12.166336 -140.07934 C -28.353216 -157.12094 -50.823548 -166.77435 -74.327399 -166.78417 C -103.64471 -166.77397 -130.92652 -151.79225 -146.66717 -127.05894 L -157.25102 -127.05894 L -149.61996 -115.86014 L -157.25102 -26.140039 L -8.5138455 -26.140039 L 15.419061 -26.140039 L 8.0799737 -154.80195 L 15.419061 -165.68398 L 7.4593397 -165.68398 L 6.4490654 -183.39297 L -2.0863309 -198.17657 z M -83.43072 -192.21621 C -85.584619 -189.65499 -86.77489 -186.4211 -86.795372 -183.07465 C -86.842092 -175.15518 -80.459903 -168.69733 -72.540428 -168.65072 C -64.621155 -168.60402 -58.163395 -174.98588 -58.116503 -182.90515 C -58.102813 -186.26049 -59.266203 -189.5144 -61.404157 -192.10045 C -60.83125 -190.6836 -60.536835 -189.16959 -60.537027 -187.64129 C -60.575787 -181.07411 -65.930869 -175.78172 -72.498054 -175.82031 C -79.065241 -175.85911 -84.357627 -181.21415 -84.319038 -187.78134 C -84.309338 -189.30285 -84.007827 -190.80837 -83.43072 -192.21621 z M -58.911286 -120.07436 C -54.376427 -119.84761 -50.691467 -118.85557 -47.85718 -117.09831 L -68.094188 -83.767013 L -55.084646 -83.767013 L -54.234569 -97.626632 C -52.420625 -97.626632 -51.11678 -97.995076 -50.32318 -98.731991 C -49.472894 -99.468905 -48.82123 -100.71611 -48.367744 -102.47336 L -43.521011 -102.47336 L -43.60576 -83.341716 C -41.451702 -82.718173 -38.730724 -82.066508 -35.442951 -81.38628 L -35.868248 -77.304875 L -44.031057 -77.304875 L -44.031057 -62.084615 L -55.084646 -62.084615 L -55.084646 -77.304875 L -79.657823 -77.304875 L -80.338402 -80.36567 L -58.911286 -120.07436 z M -12.825727 -119.73381 C -9.1411543 -119.73381 -5.8817993 -119.11073 -3.0475125 -117.86364 C -0.21322576 -116.67324 1.997957 -114.97237 3.5851576 -112.76163 C 5.1723582 -110.60757 5.9658908 -108.11368 5.9658908 -105.27939 C 5.9658908 -102.10499 5.0304898 -99.384015 3.1598605 -97.116586 C 1.2892313 -94.849156 -1.4883914 -93.120223 -5.1729642 -91.929822 C -0.5247339 -90.909479 2.7346211 -89.237189 4.6052503 -86.913074 C 6.4758796 -84.588959 7.4112806 -81.442892 7.4112806 -77.474891 C 7.4112806 -74.017061 6.3625916 -71.069506 4.2652194 -68.632019 C 2.224533 -66.194533 -0.43980173 -64.380375 -3.7275744 -63.189974 C -7.015347 -61.999574 -10.41657 -61.404554 -13.931086 -61.404554 C -19.032802 -61.404554 -23.36891 -62.453243 -26.940111 -64.550615 C -30.454627 -66.647987 -32.212141 -69.510317 -32.212141 -73.138204 C -32.212141 -75.235577 -31.58854 -76.851222 -30.341454 -77.984937 C -29.094368 -79.175337 -27.535366 -79.770358 -25.664737 -79.770358 C -23.737422 -79.770358 -21.781912 -79.005405 -19.797911 -77.474891 C -20.308083 -76.397862 -20.563239 -75.094016 -20.563239 -73.563501 C -20.563239 -71.749558 -20.024863 -70.275781 -18.947834 -69.142066 C -17.814119 -68.008351 -16.14183 -67.441394 -13.931086 -67.441394 C -9.0561127 -67.441394 -6.618354 -70.814037 -6.618354 -77.55964 C -6.618354 -81.244213 -7.8089113 -84.10706 -10.189712 -86.147746 C -12.513827 -88.188433 -15.829826 -89.208541 -20.137942 -89.208541 L -20.137942 -94.480571 C -11.805139 -95.1608 -7.6389635 -98.760535 -7.6389635 -105.27939 C -7.6389635 -108.56717 -8.1492762 -110.97583 -9.1696194 -112.50634 C -10.189963 -114.09354 -11.578516 -114.88759 -13.335773 -114.88759 C -15.433146 -114.88759 -17.020211 -114.15071 -18.09724 -112.67688 C -19.117583 -111.20305 -19.627896 -109.41747 -19.627896 -107.3201 C -19.627896 -105.44947 -19.230871 -103.77718 -18.437271 -102.30335 C -20.024471 -100.60278 -22.065205 -99.752084 -24.559378 -99.752084 C -26.826807 -99.752084 -28.584321 -100.43233 -29.831407 -101.79279 C -31.078494 -103.15324 -31.702094 -104.91076 -31.702094 -107.06482 C -31.702094 -109.8991 -30.738113 -112.25164 -28.810798 -114.12227 C -26.826797 -116.04958 -24.389555 -117.46671 -21.498583 -118.37369 C -18.550924 -119.28066 -15.660014 -119.73381 -12.825727 -119.73381 z M -139.26297 -119.05375 L -135.01155 -118.969 C -129.00286 -118.85563 -125.82873 -118.79847 -125.48862 -118.79847 L -113.41442 -118.969 L -110.94842 -117.18306 L -111.71375 -110.72092 L -132.80083 -110.72092 L -133.99146 -96.521273 C -131.0438 -97.258188 -128.37946 -97.626632 -125.99866 -97.626632 C -120.38678 -97.626632 -115.82358 -96.124274 -112.30906 -93.11993 C -108.73786 -90.172272 -106.95228 -85.836165 -106.95228 -80.110905 C -106.95228 -76.539704 -107.80246 -73.336993 -109.50303 -70.502706 C -111.14692 -67.66842 -113.52803 -65.429173 -116.64575 -63.785287 C -119.76346 -62.198086 -123.44791 -61.404554 -127.69934 -61.404554 C -131.15717 -61.404554 -134.30323 -61.886286 -137.13752 -62.849943 C -139.91512 -63.813601 -142.09772 -65.14551 -143.68492 -66.846082 C -145.27212 -68.60334 -146.06566 -70.559366 -146.06566 -72.713424 C -146.06566 -74.980853 -145.44206 -76.709787 -144.19497 -77.900188 C -142.94788 -79.147274 -141.41746 -79.770358 -139.60352 -79.770358 C -138.58318 -79.770358 -137.56255 -79.572362 -136.54221 -79.175562 C -135.46518 -78.778762 -134.50171 -78.211805 -133.65143 -77.474891 C -134.1616 -76.28449 -134.41675 -75.037289 -134.41675 -73.733517 C -134.41675 -71.862888 -133.87786 -70.332466 -132.80083 -69.142066 C -131.66712 -67.951665 -129.96676 -67.356645 -127.69934 -67.356645 C -122.59762 -67.356645 -120.04657 -71.608045 -120.04657 -80.110905 C -120.04657 -84.135593 -120.84011 -87.054567 -122.42731 -88.86851 C -124.01451 -90.73914 -126.14046 -91.674541 -128.80469 -91.674541 C -130.44858 -91.674541 -132.20558 -91.36274 -134.07621 -90.739197 C -135.94684 -90.115654 -137.78957 -89.236897 -139.60352 -88.103182 L -144.27972 -92.609884 L -142.069 -116.75776 L -139.26297 -119.05375 z M -91.562006 -101.28274 C -89.578006 -101.28274 -88.104228 -100.68772 -87.140571 -99.497319 C -86.120228 -98.363604 -85.609915 -96.776539 -85.609915 -94.735852 C -85.609915 -92.695166 -86.120228 -91.107584 -87.140571 -89.973869 C -88.104228 -88.840154 -89.578006 -88.273198 -91.562006 -88.273198 C -93.546007 -88.273198 -95.048365 -88.840154 -96.068708 -89.973869 C -97.032365 -91.16427 -97.514098 -92.751852 -97.514098 -94.735852 C -97.514098 -96.833225 -97.032365 -98.448354 -96.068708 -99.582068 C -95.048365 -100.71578 -93.546007 -101.28274 -91.562006 -101.28274 z M -91.562006 -74.498845 C -89.578006 -74.498845 -88.104228 -73.903824 -87.140571 -72.713424 C -86.120228 -71.579709 -85.609915 -69.992127 -85.609915 -67.951441 C -85.609915 -65.910754 -86.120228 -64.323689 -87.140571 -63.189974 C -88.104228 -62.05626 -89.578006 -61.489303 -91.562006 -61.489303 C -93.546007 -61.489303 -95.048365 -62.05626 -96.068708 -63.189974 C -97.032365 -64.380375 -97.514098 -65.96744 -97.514098 -67.951441 C -97.514098 -70.048813 -97.032365 -71.664459 -96.068708 -72.798173 C -95.048365 -73.931888 -93.546007 -74.498845 -91.562006 -74.498845 z " /></g></svg>
