<?xml version="1.0" encoding="UTF-8" standalone="no"?>
<!-- Created with Inkscape (http://www.inkscape.org/) -->

<svg
   width="172.6701mm"
   height="172.6701mm"
   viewBox="0 0 172.6701 172.6701"
   version="1.1"
   id="svg1"
   xml:space="preserve"
   xmlns="http://www.w3.org/2000/svg"
   xmlns:svg="http://www.w3.org/2000/svg"><defs
     id="defs1" /><g
     id="layer1"
     transform="translate(157.25102,198.81012)"><path
       id="path5"
       style="fill:#ffffff;fill-opacity:1;stroke-width:0.805188;stroke-linecap:round;stroke-linejoin:round"
       d="M -2.0863309 -198.17657 L -10.088943 -183.11289 L -10.930235 -165.68398 L -19.198981 -165.68398 L -11.423229 -155.47426 L -12.166336 -140.07934 C -28.353216 -157.12094 -50.823548 -166.77435 -74.327399 -166.78417 C -103.64471 -166.77397 -130.92652 -151.79225 -146.66717 -127.05894 L -157.25102 -127.05894 L -149.61996 -115.86014 L -157.25102 -26.140039 L -8.5138455 -26.140039 L 15.419061 -26.140039 L 8.0799737 -154.80195 L 15.419061 -165.68398 L 7.4593397 -165.68398 L 6.4490654 -183.39297 L -2.0863309 -198.17657 z M -83.43072 -192.21621 C -85.584619 -189.65499 -86.77489 -186.4211 -86.795372 -183.07465 C -86.842092 -175.15518 -80.459903 -168.69733 -72.540428 -168.65072 C -64.621155 -168.60402 -58.163395 -174.98588 -58.116503 -182.90515 C -58.102813 -186.26049 -59.266203 -189.5144 -61.404157 -192.10045 C -60.83125 -190.6836 -60.536835 -189.16959 -60.537027 -187.64129 C -60.575787 -181.07411 -65.930869 -175.78172 -72.498054 -175.82031 C -79.065241 -175.85911 -84.357627 -181.21415 -84.319038 -187.78134 C -84.309338 -189.30285 -84.007827 -190.80837 -83.43072 -192.21621 z M -60.951988 -120.07436 C -56.41713 -119.84761 -52.73217 -118.85557 -49.897883 -117.09831 L -70.13489 -83.767013 L -57.125349 -83.767013 L -56.275271 -97.626632 C -54.461328 -97.626632 -53.157482 -97.995076 -52.363882 -98.731991 C -51.513596 -99.468905 -50.861932 -100.71611 -50.408446 -102.47336 L -45.561713 -102.47336 L -45.646463 -83.341716 C -43.492405 -82.718173 -40.771426 -82.066508 -37.483653 -81.38628 L -37.908951 -77.304875 L -46.07176 -77.304875 L -46.07176 -62.084615 L -57.125349 -62.084615 L -57.125349 -77.304875 L -81.698526 -77.304875 L -82.379104 -80.36567 L -60.951988 -120.07436 z M -12.060399 -119.81908 C -6.1083969 -119.81908 -1.3752646 -118.54381 2.139251 -115.99295 C 5.6537666 -113.44209 7.4112806 -110.01229 7.4112806 -105.70418 C 7.4112806 -103.38006 6.561104 -101.05611 4.8605319 -98.731991 C 3.1599599 -96.407876 0.92071351 -94.50901 -1.8568875 -93.035181 C 1.6576281 -91.334609 4.4066704 -89.350519 6.3906711 -87.08309 C 8.4313575 -84.81566 9.4519829 -81.896169 9.4519829 -78.324968 C 9.4519829 -73.166566 7.5811809 -69.057034 3.8399224 -65.996005 C 0.098663868 -62.991661 -4.9462688 -61.489303 -11.295071 -61.489303 C -18.267417 -61.489303 -23.65273 -62.878373 -27.450674 -65.655974 C -31.191933 -68.433575 -33.062218 -72.401238 -33.062218 -77.55964 C -33.062218 -80.223869 -32.212041 -82.86014 -30.511469 -85.467684 C -28.810897 -88.131914 -26.430299 -90.483931 -23.36927 -92.524618 C -25.920128 -93.941761 -27.904218 -95.642631 -29.321361 -97.626632 C -30.738504 -99.610633 -31.446813 -102.07646 -31.446813 -105.02411 C -31.446813 -109.55897 -29.689815 -113.15871 -26.1753 -115.82294 C -22.660784 -118.48717 -17.955716 -119.81908 -12.060399 -119.81908 z M -141.30367 -119.05375 L -137.05225 -118.969 C -131.04356 -118.85563 -127.86943 -118.79847 -127.52932 -118.79847 L -115.45512 -118.969 L -112.98912 -117.18306 L -113.75445 -110.72092 L -134.84154 -110.72092 L -136.03216 -96.521273 C -133.0845 -97.258188 -130.42017 -97.626632 -128.03937 -97.626632 C -122.42748 -97.626632 -117.86428 -96.124274 -114.34976 -93.11993 C -110.77856 -90.172272 -108.99298 -85.836165 -108.99298 -80.110905 C -108.99298 -76.539704 -109.84316 -73.336993 -111.54373 -70.502706 C -113.18762 -67.66842 -115.56873 -65.429173 -118.68645 -63.785287 C -121.80416 -62.198086 -125.48861 -61.404554 -129.74004 -61.404554 C -133.19787 -61.404554 -136.34393 -61.886286 -139.17822 -62.849943 C -141.95582 -63.813601 -144.13842 -65.14551 -145.72563 -66.846082 C -147.31283 -68.60334 -148.10636 -70.559366 -148.10636 -72.713424 C -148.10636 -74.980853 -147.48276 -76.709787 -146.23567 -77.900188 C -144.98859 -79.147274 -143.45816 -79.770358 -141.64422 -79.770358 C -140.62388 -79.770358 -139.60325 -79.572362 -138.58291 -79.175562 C -137.50588 -78.778762 -136.54242 -78.211805 -135.69213 -77.474891 C -136.2023 -76.28449 -136.45746 -75.037289 -136.45746 -73.733517 C -136.45746 -71.862888 -135.91856 -70.332466 -134.84154 -69.142066 C -133.70782 -67.951665 -132.00747 -67.356645 -129.74004 -67.356645 C -124.63832 -67.356645 -122.08727 -71.608045 -122.08727 -80.110905 C -122.08727 -84.135593 -122.88081 -87.054567 -124.46801 -88.86851 C -126.05521 -90.73914 -128.18117 -91.674541 -130.8454 -91.674541 C -132.48928 -91.674541 -134.24628 -91.36274 -136.11691 -90.739197 C -137.98754 -90.115654 -139.83028 -89.236897 -141.64422 -88.103182 L -146.32042 -92.609884 L -144.1097 -116.75776 L -141.30367 -119.05375 z M -12.060399 -113.78224 C -14.327828 -113.78224 -16.113406 -113.04535 -17.417178 -111.57152 C -18.72095 -110.15437 -19.372614 -108.22693 -19.372614 -105.78944 C -19.372614 -103.63538 -18.551018 -101.84981 -16.907132 -100.43266 C -15.20656 -99.072205 -12.740737 -97.711715 -9.5096504 -96.351258 C -8.092507 -97.314915 -6.9585936 -98.646824 -6.1083076 -100.3474 C -5.2580216 -102.04797 -4.8329332 -103.86213 -4.8329332 -105.78944 C -4.8329332 -108.22693 -5.5131779 -110.15437 -6.8736356 -111.57152 C -8.1774075 -113.04535 -9.9063411 -113.78224 -12.060399 -113.78224 z M -93.602709 -101.28274 C -91.618708 -101.28274 -90.144931 -100.68772 -89.181273 -99.497319 C -88.16093 -98.363604 -87.650617 -96.776539 -87.650617 -94.735852 C -87.650617 -92.695166 -88.16093 -91.107584 -89.181273 -89.973869 C -90.144931 -88.840154 -91.618708 -88.273198 -93.602709 -88.273198 C -95.586709 -88.273198 -97.089067 -88.840154 -98.10941 -89.973869 C -99.073068 -91.16427 -99.5548 -92.751852 -99.5548 -94.735852 C -99.5548 -96.833225 -99.073068 -98.448354 -98.10941 -99.582068 C -97.089067 -100.71578 -95.586709 -101.28274 -93.602709 -101.28274 z M -15.546491 -89.038526 C -17.247063 -87.678068 -18.494265 -86.119583 -19.287865 -84.362325 C -20.081465 -82.605068 -20.477973 -80.50769 -20.477973 -78.070203 C -20.477973 -74.725745 -19.656377 -72.089474 -18.012491 -70.162159 C -16.368604 -68.291529 -14.129358 -67.356645 -11.295071 -67.356645 C -8.5174701 -67.356645 -6.3634481 -68.291529 -4.8329332 -70.162159 C -3.2457327 -72.032788 -2.4522 -74.640479 -2.4522 -77.984937 C -2.4522 -79.855566 -3.0472203 -81.442631 -4.2376207 -82.746403 C -5.3713355 -84.106861 -6.8170492 -85.212194 -8.5743069 -86.06248 C -10.331565 -86.969452 -12.655519 -87.961497 -15.546491 -89.038526 z M -93.602709 -74.498845 C -91.618708 -74.498845 -90.144931 -73.903824 -89.181273 -72.713424 C -88.16093 -71.579709 -87.650617 -69.992127 -87.650617 -67.951441 C -87.650617 -65.910754 -88.16093 -64.323689 -89.181273 -63.189974 C -90.144931 -62.05626 -91.618708 -61.489303 -93.602709 -61.489303 C -95.586709 -61.489303 -97.089067 -62.05626 -98.10941 -63.189974 C -99.073068 -64.380375 -99.5548 -65.96744 -99.5548 -67.951441 C -99.5548 -70.048813 -99.073068 -71.664459 -98.10941 -72.798173 C -97.089067 -73.931888 -95.586709 -74.498845 -93.602709 -74.498845 z " /></g></svg>
