<?xml version="1.0" encoding="UTF-8" standalone="no"?>
<!-- Created with Inkscape (http://www.inkscape.org/) -->

<svg
   width="172.6701mm"
   height="172.6701mm"
   viewBox="0 0 172.6701 172.6701"
   version="1.1"
   id="svg1"
   xml:space="preserve"
   xmlns="http://www.w3.org/2000/svg"
   xmlns:svg="http://www.w3.org/2000/svg"><defs
     id="defs1" /><g
     id="layer1"
     transform="translate(157.25102,198.81012)"><path
       id="path5"
       style="fill:#ffffff;fill-opacity:1;stroke-width:0.805188;stroke-linecap:round;stroke-linejoin:round"
       d="M -2.0863309 -198.17657 L -10.088943 -183.11289 L -10.930235 -165.68398 L -19.198981 -165.68398 L -11.423229 -155.47426 L -12.166336 -140.07934 C -28.353216 -157.12094 -50.823548 -166.77435 -74.327399 -166.78417 C -103.64471 -166.77397 -130.92652 -151.79225 -146.66717 -127.05894 L -157.25102 -127.05894 L -149.61996 -115.86014 L -157.25102 -26.140039 L -8.5138455 -26.140039 L 15.419061 -26.140039 L 8.0799737 -154.80195 L 15.419061 -165.68398 L 7.4593397 -165.68398 L 6.4490654 -183.39297 L -2.0863309 -198.17657 z M -83.43072 -192.21621 C -85.584619 -189.65499 -86.77489 -186.4211 -86.795372 -183.07465 C -86.842092 -175.15518 -80.459903 -168.69733 -72.540428 -168.65072 C -64.621155 -168.60402 -58.163395 -174.98588 -58.116503 -182.90515 C -58.102813 -186.26049 -59.266203 -189.5144 -61.404157 -192.10045 C -60.83125 -190.6836 -60.536835 -189.16959 -60.537027 -187.64129 C -60.575787 -181.07411 -65.930869 -175.78172 -72.498054 -175.82031 C -79.065241 -175.85911 -84.357627 -181.21415 -84.319038 -187.78134 C -84.309338 -189.30285 -84.007827 -190.80837 -83.43072 -192.21621 z M -14.228742 -119.73381 C -10.544169 -119.73381 -7.2842976 -119.11073 -4.4500109 -117.86364 C -1.6157241 -116.67324 0.59494185 -114.97237 2.1821424 -112.76163 C 3.769343 -110.60757 4.5628757 -108.11368 4.5628757 -105.27939 C 4.5628757 -102.10499 3.6274747 -99.384015 1.7568454 -97.116586 C -0.11378386 -94.849156 -2.8914065 -93.120223 -6.5759793 -91.929822 C -1.927749 -90.909479 1.331606 -89.237189 3.2022352 -86.913074 C 5.0728645 -84.588959 6.0082655 -81.442892 6.0082655 -77.474891 C 6.0082655 -74.017061 4.9595765 -71.069506 2.8622043 -68.632019 C 0.82151782 -66.194533 -1.8428169 -64.380375 -5.1305895 -63.189974 C -8.4183621 -61.999574 -11.819585 -61.404554 -15.334101 -61.404554 C -20.435817 -61.404554 -24.771925 -62.453243 -28.343126 -64.550615 C -31.857642 -66.647987 -33.615156 -69.510317 -33.615156 -73.138204 C -33.615156 -75.235577 -32.991555 -76.851222 -31.744469 -77.984937 C -30.497383 -79.175337 -28.938381 -79.770358 -27.067752 -79.770358 C -25.140437 -79.770358 -23.184927 -79.005405 -21.200926 -77.474891 C -21.711098 -76.397862 -21.966254 -75.094016 -21.966254 -73.563501 C -21.966254 -71.749558 -21.427878 -70.275781 -20.350849 -69.142066 C -19.217134 -68.008351 -17.544845 -67.441394 -15.334101 -67.441394 C -10.459128 -67.441394 -8.0213691 -70.814037 -8.0213691 -77.55964 C -8.0213691 -81.244213 -9.2119265 -84.10706 -11.592727 -86.147746 C -13.916842 -88.188433 -17.232841 -89.208541 -21.540957 -89.208541 L -21.540957 -94.480571 C -13.208154 -95.1608 -9.0419787 -98.760535 -9.0419787 -105.27939 C -9.0419787 -108.56717 -9.5517746 -110.97583 -10.572118 -112.50634 C -11.592461 -114.09354 -12.981531 -114.88759 -14.738789 -114.88759 C -16.836161 -114.88759 -18.423226 -114.15071 -19.500255 -112.67688 C -20.520598 -111.20305 -21.030911 -109.41747 -21.030911 -107.3201 C -21.030911 -105.44947 -20.633886 -103.77718 -19.840286 -102.30335 C -21.427487 -100.60278 -23.468221 -99.752084 -25.962393 -99.752084 C -28.229822 -99.752084 -29.987336 -100.43233 -31.234423 -101.79279 C -32.481509 -103.15324 -33.105109 -104.91076 -33.105109 -107.06482 C -33.105109 -109.8991 -32.141128 -112.25164 -30.213813 -114.12227 C -28.229812 -116.04958 -25.79257 -117.46671 -22.901598 -118.37369 C -19.95394 -119.28066 -17.063029 -119.73381 -14.228742 -119.73381 z M -137.86047 -119.05375 L -133.60905 -118.969 C -127.60036 -118.85563 -124.42572 -118.79847 -124.0856 -118.79847 L -112.0114 -118.969 L -109.54592 -117.18306 L -110.31125 -110.72092 L -131.39833 -110.72092 L -132.58844 -96.521273 C -129.64078 -97.258188 -126.97645 -97.626632 -124.59565 -97.626632 C -118.98376 -97.626632 -114.42056 -96.124274 -110.90605 -93.11993 C -107.33484 -90.172272 -105.54927 -85.836165 -105.54927 -80.110905 C -105.54927 -76.539704 -106.39944 -73.336993 -108.10001 -70.502706 C -109.7439 -67.66842 -112.12502 -65.429173 -115.24273 -63.785287 C -118.36045 -62.198086 -122.04489 -61.404554 -126.29632 -61.404554 C -129.75415 -61.404554 -132.90022 -61.886286 -135.7345 -62.849943 C -138.5121 -63.813601 -140.69471 -65.14551 -142.28191 -66.846082 C -143.86911 -68.60334 -144.66264 -70.559366 -144.66264 -72.713424 C -144.66264 -74.980853 -144.03904 -76.709787 -142.79195 -77.900188 C -141.54487 -79.147274 -140.01445 -79.770358 -138.2005 -79.770358 C -137.18016 -79.770358 -136.15953 -79.572362 -135.13919 -79.175562 C -134.06216 -78.778762 -133.0987 -78.211805 -132.24841 -77.474891 C -132.75858 -76.28449 -133.01374 -75.037289 -133.01374 -73.733517 C -133.01374 -71.862888 -132.47536 -70.332466 -131.39833 -69.142066 C -130.26462 -67.951665 -128.56375 -67.356645 -126.29632 -67.356645 C -121.1946 -67.356645 -118.64356 -71.608045 -118.64356 -80.110905 C -118.64356 -84.135593 -119.43761 -87.054567 -121.02481 -88.86851 C -122.61201 -90.73914 -124.73745 -91.674541 -127.40168 -91.674541 C -129.04557 -91.674541 -130.80308 -91.36274 -132.67371 -90.739197 C -134.54434 -90.115654 -136.38656 -89.236897 -138.2005 -88.103182 L -142.8767 -92.609884 L -140.66599 -116.75776 L -137.86047 -119.05375 z M -69.837234 -119.05375 L -65.585814 -118.969 C -59.577126 -118.85563 -56.402996 -118.79847 -56.062881 -118.79847 L -43.988683 -118.969 L -41.522683 -117.18306 L -42.288011 -110.72092 L -63.375096 -110.72092 L -64.565721 -96.521273 C -61.618063 -97.258188 -58.953728 -97.626632 -56.572928 -97.626632 C -50.96104 -97.626632 -46.397839 -96.124274 -42.883324 -93.11993 C -39.312123 -90.172272 -37.526545 -85.836165 -37.526545 -80.110905 C -37.526545 -76.539704 -38.376722 -73.336993 -40.077294 -70.502706 C -41.72118 -67.66842 -44.101778 -65.429173 -47.219493 -63.785287 C -50.337209 -62.198086 -54.022169 -61.404554 -58.273599 -61.404554 C -61.731429 -61.404554 -64.877496 -61.886286 -67.711783 -62.849943 C -70.489384 -63.813601 -72.671469 -65.14551 -74.25867 -66.846082 C -75.84587 -68.60334 -76.639403 -70.559366 -76.639403 -72.713424 C -76.639403 -74.980853 -76.015802 -76.709787 -74.768716 -77.900188 C -73.52163 -79.147274 -71.991209 -79.770358 -70.177265 -79.770358 C -69.156922 -79.770358 -68.136813 -79.572362 -67.11647 -79.175562 C -66.039441 -78.778762 -65.07546 -78.211805 -64.225174 -77.474891 C -64.735345 -76.28449 -64.990502 -75.037289 -64.990502 -73.733517 C -64.990502 -71.862888 -64.452125 -70.332466 -63.375096 -69.142066 C -62.241382 -67.951665 -60.541028 -67.356645 -58.273599 -67.356645 C -53.171883 -67.356645 -50.620836 -71.608045 -50.620836 -80.110905 C -50.620836 -84.135593 -51.414369 -87.054567 -53.001569 -88.86851 C -54.58877 -90.73914 -56.714728 -91.674541 -59.378958 -91.674541 C -61.022844 -91.674541 -62.779841 -91.36274 -64.650471 -90.739197 C -66.5211 -90.115654 -68.363322 -89.236897 -70.177265 -88.103182 L -74.853982 -92.609884 L -72.643264 -116.75776 L -69.837234 -119.05375 z M -90.158991 -101.28274 C -88.17499 -101.28274 -86.701213 -100.68772 -85.737556 -99.497319 C -84.717212 -98.363604 -84.207416 -96.776539 -84.207416 -94.735852 C -84.207416 -92.695166 -84.717212 -91.107584 -85.737556 -89.973869 C -86.701213 -88.840154 -88.17499 -88.273198 -90.158991 -88.273198 C -92.142992 -88.273198 -93.64535 -88.840154 -94.665693 -89.973869 C -95.62935 -91.16427 -96.111083 -92.751852 -96.111083 -94.735852 C -96.111083 -96.833225 -95.62935 -98.448354 -94.665693 -99.582068 C -93.64535 -100.71578 -92.142992 -101.28274 -90.158991 -101.28274 z M -90.158991 -74.498845 C -88.17499 -74.498845 -86.701213 -73.903824 -85.737556 -72.713424 C -84.717212 -71.579709 -84.207416 -69.992127 -84.207416 -67.951441 C -84.207416 -65.910754 -84.717212 -64.323689 -85.737556 -63.189974 C -86.701213 -62.05626 -88.17499 -61.489303 -90.158991 -61.489303 C -92.142992 -61.489303 -93.64535 -62.05626 -94.665693 -63.189974 C -95.62935 -64.380375 -96.111083 -65.96744 -96.111083 -67.951441 C -96.111083 -70.048813 -95.62935 -71.664459 -94.665693 -72.798173 C -93.64535 -73.931888 -92.142992 -74.498845 -90.158991 -74.498845 z " /></g></svg>
