<?xml version="1.0" encoding="UTF-8" standalone="no"?>
<!-- Created with Inkscape (http://www.inkscape.org/) -->

<svg
   width="172.6701mm"
   height="172.6701mm"
   viewBox="0 0 172.6701 172.6701"
   version="1.1"
   id="svg1"
   xml:space="preserve"
   xmlns="http://www.w3.org/2000/svg"
   xmlns:svg="http://www.w3.org/2000/svg"><defs
     id="defs1" /><g
     id="layer1"
     transform="translate(157.25102,198.81012)"><path
       id="path5"
       style="fill:#ffffff;fill-opacity:1;stroke-width:0.805188;stroke-linecap:round;stroke-linejoin:round"
       d="M -2.0863309 -198.17657 L -10.088943 -183.11289 L -10.930235 -165.68398 L -19.198981 -165.68398 L -11.423229 -155.47426 L -12.166336 -140.07934 C -28.353216 -157.12094 -50.823548 -166.77435 -74.327399 -166.78417 C -103.64471 -166.77397 -130.92652 -151.79225 -146.66717 -127.05894 L -157.25102 -127.05894 L -149.61996 -115.86014 L -157.25102 -26.140039 L -8.5138455 -26.140039 L 15.419061 -26.140039 L 8.0799737 -154.80195 L 15.419061 -165.68398 L 7.4593397 -165.68398 L 6.4490654 -183.39297 L -2.0863309 -198.17657 z M -83.43072 -192.21621 C -85.584619 -189.65499 -86.77489 -186.4211 -86.795372 -183.07465 C -86.842092 -175.15518 -80.459903 -168.69733 -72.540428 -168.65072 C -64.621155 -168.60402 -58.163395 -174.98588 -58.116503 -182.90515 C -58.102813 -186.26049 -59.266203 -189.5144 -61.404157 -192.10045 C -60.83125 -190.6836 -60.536835 -189.16959 -60.537027 -187.64129 C -60.575787 -181.07411 -65.930869 -175.78172 -72.498054 -175.82031 C -79.065241 -175.85911 -84.357627 -181.21415 -84.319038 -187.78134 C -84.309338 -189.30285 -84.007827 -190.80837 -83.43072 -192.21621 z M -15.20646 -120.07436 C -10.671601 -119.84761 -6.9871582 -118.85557 -4.1528714 -117.09831 L -24.389362 -83.767013 L -11.380337 -83.767013 L -10.529743 -97.626632 C -8.7157996 -97.626632 -7.4119543 -97.995076 -6.618354 -98.731991 C -5.768068 -99.468905 -5.1164037 -100.71611 -4.6629178 -102.47336 L 0.1838148 -102.47336 L 0.098548685 -83.341716 C 2.2526066 -82.718173 4.9735853 -82.066508 8.2613579 -81.38628 L 7.8365777 -77.304875 L -0.32623159 -77.304875 L -0.32623159 -62.084615 L -11.380337 -62.084615 L -11.380337 -77.304875 L -35.953514 -77.304875 L -36.633576 -80.36567 L -15.20646 -120.07436 z M -139.77353 -119.05375 L -135.52211 -118.969 C -129.51343 -118.85563 -126.33878 -118.79847 -125.99866 -118.79847 L -113.92447 -118.969 L -111.45898 -117.18306 L -112.22431 -110.72092 L -133.3114 -110.72092 L -134.5015 -96.521273 C -131.55385 -97.258188 -128.88951 -97.626632 -126.50871 -97.626632 C -120.89682 -97.626632 -116.33362 -96.124274 -112.81911 -93.11993 C -109.24791 -90.172272 -107.46233 -85.836165 -107.46233 -80.110905 C -107.46233 -76.539704 -108.31302 -73.336993 -110.01359 -70.502706 C -111.65748 -67.66842 -114.03808 -65.429173 -117.15579 -63.785287 C -120.27351 -62.198086 -123.95795 -61.404554 -128.20938 -61.404554 C -131.66721 -61.404554 -134.81328 -61.886286 -137.64757 -62.849943 C -140.42517 -63.813601 -142.60777 -65.14551 -144.19497 -66.846082 C -145.78217 -68.60334 -146.5757 -70.559366 -146.5757 -72.713424 C -146.5757 -74.980853 -145.9521 -76.709787 -144.70502 -77.900188 C -143.45793 -79.147274 -141.92751 -79.770358 -140.11356 -79.770358 C -139.09322 -79.770358 -138.0726 -79.572362 -137.05225 -79.175562 C -135.97522 -78.778762 -135.01176 -78.211805 -134.16147 -77.474891 C -134.67164 -76.28449 -134.9268 -75.037289 -134.9268 -73.733517 C -134.9268 -71.862888 -134.38842 -70.332466 -133.3114 -69.142066 C -132.17768 -67.951665 -130.47681 -67.356645 -128.20938 -67.356645 C -123.10767 -67.356645 -120.55714 -71.608045 -120.55714 -80.110905 C -120.55714 -84.135593 -121.35067 -87.054567 -122.93787 -88.86851 C -124.52507 -90.73914 -126.65051 -91.674541 -129.31474 -91.674541 C -130.95863 -91.674541 -132.71614 -91.36274 -134.58677 -90.739197 C -136.4574 -90.115654 -138.29962 -89.236897 -140.11356 -88.103182 L -144.79028 -92.609884 L -142.57956 -116.75776 L -139.77353 -119.05375 z M -71.750296 -119.05375 L -67.498876 -118.969 C -61.490188 -118.85563 -58.316057 -118.79847 -57.975943 -118.79847 L -45.901744 -118.969 L -43.435745 -117.18306 L -44.201073 -110.72092 L -65.288158 -110.72092 L -66.478783 -96.521273 C -63.531125 -97.258188 -60.86679 -97.626632 -58.485989 -97.626632 C -52.874101 -97.626632 -48.310901 -96.124274 -44.796385 -93.11993 C -41.225184 -90.172272 -39.439606 -85.836165 -39.439606 -80.110905 C -39.439606 -76.539704 -40.289783 -73.336993 -41.990355 -70.502706 C -43.634241 -67.66842 -46.015356 -65.429173 -49.133072 -63.785287 C -52.250787 -62.198086 -55.93523 -61.404554 -60.18666 -61.404554 C -63.64449 -61.404554 -66.790557 -61.886286 -69.624844 -62.849943 C -72.402445 -63.813601 -74.584531 -65.14551 -76.171731 -66.846082 C -77.758932 -68.60334 -78.552981 -70.559366 -78.552981 -72.713424 C -78.552981 -74.980853 -77.929381 -76.709787 -76.682294 -77.900188 C -75.435208 -79.147274 -73.90427 -79.770358 -72.090327 -79.770358 C -71.069983 -79.770358 -70.049875 -79.572362 -69.029532 -79.175562 C -67.952503 -78.778762 -66.989038 -78.211805 -66.138752 -77.474891 C -66.648924 -76.28449 -66.903563 -75.037289 -66.903563 -73.733517 C -66.903563 -71.862888 -66.365187 -70.332466 -65.288158 -69.142066 C -64.154443 -67.951665 -62.45409 -67.356645 -60.18666 -67.356645 C -55.084944 -67.356645 -52.533898 -71.608045 -52.533898 -80.110905 C -52.533898 -84.135593 -53.32743 -87.054567 -54.914631 -88.86851 C -56.501831 -90.73914 -58.62779 -91.674541 -61.292019 -91.674541 C -62.935906 -91.674541 -64.692903 -91.36274 -66.563532 -90.739197 C -68.434161 -90.115654 -70.276383 -89.236897 -72.090327 -88.103182 L -76.767044 -92.609884 L -74.556326 -116.75776 L -71.750296 -119.05375 z M -92.072569 -101.28274 C -90.088569 -101.28274 -88.614275 -100.68772 -87.650617 -99.497319 C -86.630274 -98.363604 -86.120478 -96.776539 -86.120478 -94.735852 C -86.120478 -92.695166 -86.630274 -91.107584 -87.650617 -89.973869 C -88.614275 -88.840154 -90.088569 -88.273198 -92.072569 -88.273198 C -94.05657 -88.273198 -95.558411 -88.840154 -96.578754 -89.973869 C -97.542412 -91.16427 -98.024144 -92.751852 -98.024144 -94.735852 C -98.024144 -96.833225 -97.542412 -98.448354 -96.578754 -99.582068 C -95.558411 -100.71578 -94.05657 -101.28274 -92.072569 -101.28274 z M -92.072569 -74.498845 C -90.088569 -74.498845 -88.614275 -73.903824 -87.650617 -72.713424 C -86.630274 -71.579709 -86.120478 -69.992127 -86.120478 -67.951441 C -86.120478 -65.910754 -86.630274 -64.323689 -87.650617 -63.189974 C -88.614275 -62.05626 -90.088569 -61.489303 -92.072569 -61.489303 C -94.05657 -61.489303 -95.558411 -62.05626 -96.578754 -63.189974 C -97.542412 -64.380375 -98.024144 -65.96744 -98.024144 -67.951441 C -98.024144 -70.048813 -97.542412 -71.664459 -96.578754 -72.798173 C -95.558411 -73.931888 -94.05657 -74.498845 -92.072569 -74.498845 z " /></g></svg>
