<?xml version="1.0" encoding="UTF-8" standalone="no"?>
<!-- Created with Inkscape (http://www.inkscape.org/) -->

<svg
   width="172.6701mm"
   height="172.6701mm"
   viewBox="0 0 172.6701 172.6701"
   version="1.1"
   id="svg1"
   xml:space="preserve"
   xmlns="http://www.w3.org/2000/svg"
   xmlns:svg="http://www.w3.org/2000/svg"><defs
     id="defs1" /><g
     id="layer1"
     transform="translate(157.25102,198.81012)"><path
       id="path5"
       style="fill:#ffffff;fill-opacity:1;stroke-width:0.805188;stroke-linecap:round;stroke-linejoin:round"
       d="M -2.0863309 -198.17657 L -10.088943 -183.11289 L -10.930235 -165.68398 L -19.198981 -165.68398 L -11.423229 -155.47426 L -12.166336 -140.07934 C -28.353216 -157.12094 -50.823548 -166.77435 -74.327399 -166.78417 C -103.64471 -166.77397 -130.92652 -151.79225 -146.66717 -127.05894 L -157.25102 -127.05894 L -149.61996 -115.86014 L -157.25102 -26.140039 L -8.5138455 -26.140039 L 15.419061 -26.140039 L 8.0799737 -154.80195 L 15.419061 -165.68398 L 7.4593397 -165.68398 L 6.4490654 -183.39297 L -2.0863309 -198.17657 z M -83.43072 -192.21621 C -85.584619 -189.65499 -86.77489 -186.4211 -86.795372 -183.07465 C -86.842092 -175.15518 -80.459903 -168.69733 -72.540428 -168.65072 C -64.621155 -168.60402 -58.163395 -174.98588 -58.116503 -182.90515 C -58.102813 -186.26049 -59.266203 -189.5144 -61.404157 -192.10045 C -60.83125 -190.6836 -60.536835 -189.16959 -60.537027 -187.64129 C -60.575787 -181.07411 -65.930869 -175.78172 -72.498054 -175.82031 C -79.065241 -175.85911 -84.357627 -181.21415 -84.319038 -187.78134 C -84.309338 -189.30285 -84.007827 -190.80837 -83.43072 -192.21621 z M -1.6444974 -119.90383 L 0.39620493 -115.65241 C -11.054314 -110.72075 -17.941468 -103.12528 -20.265583 -92.865166 C -16.97781 -94.452366 -13.860324 -95.245899 -10.912666 -95.245899 C -5.244092 -95.245899 -0.79417965 -93.715477 2.4369072 -90.654448 C 5.7246799 -87.593418 7.3689059 -83.455306 7.3689059 -78.240218 C 7.3689059 -75.009132 6.4901489 -72.118221 4.7328911 -69.567363 C 3.0323191 -67.016505 0.62314074 -65.032415 -2.4945747 -63.615271 C -5.5556044 -62.198128 -9.0701157 -61.489303 -13.038117 -61.489303 C -19.78372 -61.489303 -24.970521 -63.360105 -28.598408 -67.101363 C -32.169609 -70.842622 -33.955187 -76.255999 -33.955187 -83.341716 C -33.955187 -92.241376 -31.206144 -99.808775 -25.707628 -106.04421 C -20.152426 -112.33632 -12.131358 -116.95617 -1.6444974 -119.90383 z M -139.13585 -119.05375 L -134.88443 -118.969 C -128.87574 -118.85563 -125.70109 -118.79847 -125.36098 -118.79847 L -113.28678 -118.969 L -110.8213 -117.18306 L -111.58662 -110.72092 L -132.67371 -110.72092 L -133.86382 -96.521273 C -130.91616 -97.258188 -128.25182 -97.626632 -125.87102 -97.626632 C -120.25914 -97.626632 -115.69594 -96.124274 -112.18142 -93.11993 C -108.61022 -90.172272 -106.82464 -85.836165 -106.82464 -80.110905 C -106.82464 -76.539704 -107.67533 -73.336993 -109.37591 -70.502706 C -111.01979 -67.66842 -113.40039 -65.429173 -116.51811 -63.785287 C -119.63582 -62.198086 -123.32026 -61.404554 -127.57169 -61.404554 C -131.02952 -61.404554 -134.17559 -61.886286 -137.00988 -62.849943 C -139.78748 -63.813601 -141.97008 -65.14551 -143.55728 -66.846082 C -145.14448 -68.60334 -145.93802 -70.559366 -145.93802 -72.713424 C -145.93802 -74.980853 -145.31441 -76.709787 -144.06733 -77.900188 C -142.82024 -79.147274 -141.28982 -79.770358 -139.47588 -79.770358 C -138.45553 -79.770358 -137.43491 -79.572362 -136.41457 -79.175562 C -135.33754 -78.778762 -134.37407 -78.211805 -133.52379 -77.474891 C -134.03396 -76.28449 -134.28911 -75.037289 -134.28911 -73.733517 C -134.28911 -71.862888 -133.75074 -70.332466 -132.67371 -69.142066 C -131.53999 -67.951665 -129.83912 -67.356645 -127.57169 -67.356645 C -122.46998 -67.356645 -119.91945 -71.608045 -119.91945 -80.110905 C -119.91945 -84.135593 -120.71298 -87.054567 -122.30018 -88.86851 C -123.88738 -90.73914 -126.01282 -91.674541 -128.67705 -91.674541 C -130.32094 -91.674541 -132.07845 -91.36274 -133.94908 -90.739197 C -135.81971 -90.115654 -137.66193 -89.236897 -139.47588 -88.103182 L -144.15259 -92.609884 L -141.94188 -116.75776 L -139.13585 -119.05375 z M -71.112609 -119.05375 L -66.861188 -118.969 C -60.852501 -118.85563 -57.67837 -118.79847 -57.338256 -118.79847 L -45.264057 -118.969 L -42.798058 -117.18306 L -43.563386 -110.72092 L -64.650471 -110.72092 L -65.841096 -96.521273 C -62.893437 -97.258188 -60.229103 -97.626632 -57.848302 -97.626632 C -52.236414 -97.626632 -47.673214 -96.124274 -44.158698 -93.11993 C -40.587497 -90.172272 -38.801919 -85.836165 -38.801919 -80.110905 C -38.801919 -76.539704 -39.652096 -73.336993 -41.352668 -70.502706 C -42.996554 -67.66842 -45.377669 -65.429173 -48.495384 -63.785287 C -51.6131 -62.198086 -55.297543 -61.404554 -59.548973 -61.404554 C -63.006803 -61.404554 -66.15287 -61.886286 -68.987157 -62.849943 C -71.764758 -63.813601 -73.946844 -65.14551 -75.534044 -66.846082 C -77.121245 -68.60334 -77.914777 -70.559366 -77.914777 -72.713424 C -77.914777 -74.980853 -77.291693 -76.709787 -76.044607 -77.900188 C -74.797521 -79.147274 -73.266583 -79.770358 -71.452639 -79.770358 C -70.432296 -79.770358 -69.412188 -79.572362 -68.391844 -79.175562 C -67.314815 -78.778762 -66.351351 -78.211805 -65.501065 -77.474891 C -66.011236 -76.28449 -66.265876 -75.037289 -66.265876 -73.733517 C -66.265876 -71.862888 -65.7275 -70.332466 -64.650471 -69.142066 C -63.516756 -67.951665 -61.816403 -67.356645 -59.548973 -67.356645 C -54.447257 -67.356645 -51.89621 -71.608045 -51.89621 -80.110905 C -51.89621 -84.135593 -52.689743 -87.054567 -54.276944 -88.86851 C -55.864144 -90.73914 -57.990103 -91.674541 -60.654332 -91.674541 C -62.298218 -91.674541 -64.055216 -91.36274 -65.925845 -90.739197 C -67.796474 -90.115654 -69.638696 -89.236897 -71.452639 -88.103182 L -76.129357 -92.609884 L -73.918639 -116.75776 L -71.112609 -119.05375 z M -91.434882 -101.28274 C -89.450882 -101.28274 -87.976587 -100.68772 -87.01293 -99.497319 C -85.992587 -98.363604 -85.482791 -96.776539 -85.482791 -94.735852 C -85.482791 -92.695166 -85.992587 -91.107584 -87.01293 -89.973869 C -87.976587 -88.840154 -89.450882 -88.273198 -91.434882 -88.273198 C -93.418883 -88.273198 -94.920724 -88.840154 -95.941067 -89.973869 C -96.904725 -91.16427 -97.386457 -92.751852 -97.386457 -94.735852 C -97.386457 -96.833225 -96.904725 -98.448354 -95.941067 -99.582068 C -94.920724 -100.71578 -93.418883 -101.28274 -91.434882 -101.28274 z M -13.293399 -89.293807 C -15.6742 -89.293807 -18.25331 -88.330343 -21.030911 -86.403028 L -21.030911 -85.297669 C -21.030911 -79.118924 -20.350666 -74.583787 -18.990209 -71.692814 C -17.629751 -68.801842 -15.475729 -67.356645 -12.528071 -67.356645 C -10.090584 -67.356645 -8.2197821 -68.291529 -6.9160102 -70.162159 C -5.6122383 -72.032788 -4.960574 -74.697123 -4.960574 -78.154952 C -4.960574 -81.669468 -5.6974627 -84.390447 -7.1712918 -86.317762 C -8.5884352 -88.301762 -10.629169 -89.293807 -13.293399 -89.293807 z M -91.434882 -74.498845 C -89.450882 -74.498845 -87.976587 -73.903824 -87.01293 -72.713424 C -85.992587 -71.579709 -85.482791 -69.992127 -85.482791 -67.951441 C -85.482791 -65.910754 -85.992587 -64.323689 -87.01293 -63.189974 C -87.976587 -62.05626 -89.450882 -61.489303 -91.434882 -61.489303 C -93.418883 -61.489303 -94.920724 -62.05626 -95.941067 -63.189974 C -96.904725 -64.380375 -97.386457 -65.96744 -97.386457 -67.951441 C -97.386457 -70.048813 -96.904725 -71.664459 -95.941067 -72.798173 C -94.920724 -73.931888 -93.418883 -74.498845 -91.434882 -74.498845 z " /></g></svg>
