<?xml version="1.0" encoding="UTF-8" standalone="no"?>
<!-- Created with Inkscape (http://www.inkscape.org/) -->

<svg
   width="172.6701mm"
   height="172.6701mm"
   viewBox="0 0 172.6701 172.6701"
   version="1.1"
   id="svg1"
   xml:space="preserve"
   xmlns="http://www.w3.org/2000/svg"
   xmlns:svg="http://www.w3.org/2000/svg"><defs
     id="defs1" /><g
     id="layer1"
     transform="translate(157.25102,198.81012)"><path
       id="path5"
       style="fill:#ffffff;fill-opacity:1;stroke-width:0.805188;stroke-linecap:round;stroke-linejoin:round"
       d="M -2.0863309 -198.17657 L -10.088943 -183.11289 L -10.930235 -165.68398 L -19.198981 -165.68398 L -11.423229 -155.47426 L -12.166336 -140.07934 C -28.353216 -157.12094 -50.823548 -166.77435 -74.327399 -166.78417 C -103.64471 -166.77397 -130.92652 -151.79225 -146.66717 -127.05894 L -157.25102 -127.05894 L -149.61996 -115.86014 L -157.25102 -26.140039 L -8.5138455 -26.140039 L 15.419061 -26.140039 L 8.0799737 -154.80195 L 15.419061 -165.68398 L 7.4593397 -165.68398 L 6.4490654 -183.39297 L -2.0863309 -198.17657 z M -83.43072 -192.21621 C -85.584619 -189.65499 -86.77489 -186.4211 -86.795372 -183.07465 C -86.842092 -175.15518 -80.459903 -168.69733 -72.540428 -168.65072 C -64.621155 -168.60402 -58.163395 -174.98588 -58.116503 -182.90515 C -58.102813 -186.26049 -59.266203 -189.5144 -61.404157 -192.10045 C -60.83125 -190.6836 -60.536835 -189.16959 -60.537027 -187.64129 C -60.575787 -181.07411 -65.930869 -175.78172 -72.498054 -175.82031 C -79.065241 -175.85911 -84.357627 -181.21415 -84.319038 -187.78134 C -84.309338 -189.30285 -84.007827 -190.80837 -83.43072 -192.21621 z M -137.26516 -119.05375 L -133.01374 -118.969 C -127.00505 -118.85563 -123.8304 -118.79847 -123.49029 -118.79847 L -111.41661 -118.969 L -108.95061 -117.18306 L -109.71594 -110.72092 L -130.80302 -110.72092 L -131.99313 -96.521273 C -129.04547 -97.258188 -126.38165 -97.626632 -124.00085 -97.626632 C -118.38897 -97.626632 -113.82577 -96.124274 -110.31125 -93.11993 C -106.74005 -90.172272 -104.95395 -85.836165 -104.95395 -80.110905 C -104.95395 -76.539704 -105.80465 -73.336993 -107.50522 -70.502706 C -109.14911 -67.66842 -111.5297 -65.429173 -114.64742 -63.785287 C -117.76513 -62.198086 -121.44958 -61.404554 -125.70101 -61.404554 C -129.15884 -61.404554 -132.3049 -61.886286 -135.13919 -62.849943 C -137.91679 -63.813601 -140.09939 -65.14551 -141.6866 -66.846082 C -143.2738 -68.60334 -144.06733 -70.559366 -144.06733 -72.713424 C -144.06733 -74.980853 -143.44373 -76.709787 -142.19664 -77.900188 C -140.94956 -79.147274 -139.41913 -79.770358 -137.60519 -79.770358 C -136.58485 -79.770358 -135.56474 -79.572362 -134.5444 -79.175562 C -133.46737 -78.778762 -132.50339 -78.211805 -131.6531 -77.474891 C -132.16327 -76.28449 -132.41843 -75.037289 -132.41843 -73.733517 C -132.41843 -71.862888 -131.88005 -70.332466 -130.80302 -69.142066 C -129.66931 -67.951665 -127.96844 -67.356645 -125.70101 -67.356645 C -120.59929 -67.356645 -118.04876 -71.608045 -118.04876 -80.110905 C -118.04876 -84.135593 -118.84229 -87.054567 -120.42949 -88.86851 C -122.0167 -90.73914 -124.14214 -91.674541 -126.80637 -91.674541 C -128.45025 -91.674541 -130.20777 -91.36274 -132.0784 -90.739197 C -133.94903 -90.115654 -135.79125 -89.236897 -137.60519 -88.103182 L -142.28191 -92.609884 L -140.07119 -116.75776 L -137.26516 -119.05375 z M -69.241922 -119.05375 L -64.990502 -118.969 C -58.981814 -118.85563 -55.807683 -118.79847 -55.467569 -118.79847 L -43.39337 -118.969 L -40.927371 -117.18306 L -41.692699 -110.72092 L -62.779784 -110.72092 L -63.970409 -96.521273 C -61.022751 -97.258188 -58.358416 -97.626632 -55.977615 -97.626632 C -50.365727 -97.626632 -45.802527 -96.124274 -42.288011 -93.11993 C -38.71681 -90.172272 -36.931232 -85.836165 -36.931232 -80.110905 C -36.931232 -76.539704 -37.781409 -73.336993 -39.481981 -70.502706 C -41.125867 -67.66842 -43.506982 -65.429173 -46.624698 -63.785287 C -49.742413 -62.198086 -53.426856 -61.404554 -57.678286 -61.404554 C -61.136116 -61.404554 -64.282183 -61.886286 -67.11647 -62.849943 C -69.894071 -63.813601 -72.076157 -65.14551 -73.663357 -66.846082 C -75.250558 -68.60334 -76.044607 -70.559366 -76.044607 -72.713424 C -76.044607 -74.980853 -75.421007 -76.709787 -74.17392 -77.900188 C -72.926834 -79.147274 -71.395896 -79.770358 -69.581953 -79.770358 C -68.561609 -79.770358 -67.541501 -79.572362 -66.521158 -79.175562 C -65.444129 -78.778762 -64.480664 -78.211805 -63.630378 -77.474891 C -64.14055 -76.28449 -64.395706 -75.037289 -64.395706 -73.733517 C -64.395706 -71.862888 -63.856813 -70.332466 -62.779784 -69.142066 C -61.646069 -67.951665 -59.945716 -67.356645 -57.678286 -67.356645 C -52.57657 -67.356645 -50.025524 -71.608045 -50.025524 -80.110905 C -50.025524 -84.135593 -50.819056 -87.054567 -52.406257 -88.86851 C -53.993457 -90.73914 -56.119416 -91.674541 -58.783645 -91.674541 C -60.427532 -91.674541 -62.184529 -91.36274 -64.055158 -90.739197 C -65.925787 -90.115654 -67.768009 -89.236897 -69.581953 -88.103182 L -74.25867 -92.609884 L -72.047952 -116.75776 L -69.241922 -119.05375 z M -31.829218 -118.88373 L -27.663064 -118.88373 C -25.509006 -118.82705 -20.803938 -118.79847 -13.548164 -118.79847 C -6.0089608 -118.79847 -1.1058965 -118.82705 1.1615329 -118.88373 L 5.2429375 -118.88373 L 6.9436089 -115.22762 C 5.8665799 -113.52705 3.8258459 -109.84261 0.82150197 -104.17404 C -2.182842 -98.505463 -5.0171086 -92.496548 -7.6813382 -86.147746 C -10.345568 -79.798944 -11.677477 -74.838719 -11.677477 -71.267517 C -11.677477 -68.433231 -10.685432 -66.307789 -8.701431 -64.890646 C -10.628746 -62.566531 -13.095085 -61.404554 -16.099429 -61.404554 C -18.87703 -61.404554 -21.031052 -62.169506 -22.561567 -63.700021 C -24.092082 -65.230536 -24.857034 -67.356494 -24.857034 -70.077409 C -24.857034 -73.478553 -24.034921 -77.077772 -22.391035 -80.875717 C -20.747148 -84.730347 -17.799594 -89.945728 -13.548164 -96.521273 L -3.5151842 -111.9963 L -22.901598 -111.9963 C -23.695198 -109.44544 -24.17693 -106.44124 -24.346988 -102.98341 C -25.367331 -102.81335 -26.41602 -102.72813 -27.493049 -102.72813 C -28.626764 -102.72813 -29.732097 -102.81335 -30.809125 -102.98341 L -33.189859 -117.60836 L -31.829218 -118.88373 z M -89.564195 -101.28274 C -87.580195 -101.28274 -86.105901 -100.68772 -85.142243 -99.497319 C -84.1219 -98.363604 -83.612104 -96.776539 -83.612104 -94.735852 C -83.612104 -92.695166 -84.1219 -91.107584 -85.142243 -89.973869 C -86.105901 -88.840154 -87.580195 -88.273198 -89.564195 -88.273198 C -91.548196 -88.273198 -93.050037 -88.840154 -94.07038 -89.973869 C -95.034038 -91.16427 -95.51577 -92.751852 -95.51577 -94.735852 C -95.51577 -96.833225 -95.034038 -98.448354 -94.07038 -99.582068 C -93.050037 -100.71578 -91.548196 -101.28274 -89.564195 -101.28274 z M -89.564195 -74.498845 C -87.580195 -74.498845 -86.105901 -73.903824 -85.142243 -72.713424 C -84.1219 -71.579709 -83.612104 -69.992127 -83.612104 -67.951441 C -83.612104 -65.910754 -84.1219 -64.323689 -85.142243 -63.189974 C -86.105901 -62.05626 -87.580195 -61.489303 -89.564195 -61.489303 C -91.548196 -61.489303 -93.050037 -62.05626 -94.07038 -63.189974 C -95.034038 -64.380375 -95.51577 -65.96744 -95.51577 -67.951441 C -95.51577 -70.048813 -95.034038 -71.664459 -94.07038 -72.798173 C -93.050037 -73.931888 -91.548196 -74.498845 -89.564195 -74.498845 z " /></g></svg>
