<?xml version="1.0" encoding="UTF-8" standalone="no"?>
<!-- Created with Inkscape (http://www.inkscape.org/) -->

<svg
   width="172.6701mm"
   height="172.6701mm"
   viewBox="0 0 172.6701 172.6701"
   version="1.1"
   id="svg1"
   xml:space="preserve"
   xmlns="http://www.w3.org/2000/svg"
   xmlns:svg="http://www.w3.org/2000/svg"><defs
     id="defs1" /><g
     id="layer1"
     transform="translate(157.25102,198.81012)"><path
       id="path5"
       style="fill:#ffffff;fill-opacity:1;stroke-width:0.805188;stroke-linecap:round;stroke-linejoin:round"
       d="M -2.0863309 -198.17657 L -10.088943 -183.11289 L -10.930235 -165.68398 L -19.198981 -165.68398 L -11.423229 -155.47426 L -12.166336 -140.07934 C -28.353216 -157.12094 -50.823548 -166.77435 -74.327399 -166.78417 C -103.64471 -166.77397 -130.92652 -151.79225 -146.66717 -127.05894 L -157.25102 -127.05894 L -149.61996 -115.86014 L -157.25102 -26.140039 L -8.5138455 -26.140039 L 15.419061 -26.140039 L 8.0799737 -154.80195 L 15.419061 -165.68398 L 7.4593397 -165.68398 L 6.4490654 -183.39297 L -2.0863309 -198.17657 z M -83.43072 -192.21621 C -85.584619 -189.65499 -86.77489 -186.4211 -86.795372 -183.07465 C -86.842092 -175.15518 -80.459903 -168.69733 -72.540428 -168.65072 C -64.621155 -168.60402 -58.163395 -174.98588 -58.116503 -182.90515 C -58.102813 -186.26049 -59.266203 -189.5144 -61.404157 -192.10045 C -60.83125 -190.6836 -60.536835 -189.16959 -60.537027 -187.64129 C -60.575787 -181.07411 -65.930869 -175.78172 -72.498054 -175.82031 C -79.065241 -175.85911 -84.357627 -181.21415 -84.319038 -187.78134 C -84.309338 -189.30285 -84.007827 -190.80837 -83.43072 -192.21621 z M -13.463414 -119.81908 C -7.511412 -119.81908 -2.7782797 -118.54381 0.73623586 -115.99295 C 4.2507514 -113.44209 6.0082655 -110.01229 6.0082655 -105.70418 C 6.0082655 -103.38006 5.1580888 -101.05611 3.4575168 -98.731991 C 1.7569447 -96.407876 -0.48230163 -94.50901 -3.2599026 -93.035181 C 0.25461292 -91.334609 3.0036552 -89.350519 4.9876559 -87.08309 C 7.0283424 -84.81566 8.0489678 -81.896169 8.0489678 -78.324968 C 8.0489678 -73.166566 6.1781658 -69.057034 2.4369072 -65.996005 C -1.3043513 -62.991661 -6.3492839 -61.489303 -12.698086 -61.489303 C -19.670432 -61.489303 -25.055745 -62.878373 -28.853689 -65.655974 C -32.594948 -68.433575 -34.465233 -72.401238 -34.465233 -77.55964 C -34.465233 -80.223869 -33.615056 -82.86014 -31.914484 -85.467684 C -30.213912 -88.131914 -27.833314 -90.483931 -24.772285 -92.524618 C -27.323143 -93.941761 -29.306716 -95.642631 -30.723859 -97.626632 C -32.141003 -99.610633 -32.849828 -102.07646 -32.849828 -105.02411 C -32.849828 -109.55897 -31.092314 -113.15871 -27.577798 -115.82294 C -24.063283 -118.48717 -19.358731 -119.81908 -13.463414 -119.81908 z M -139.90117 -119.05375 L -135.64975 -118.969 C -129.64107 -118.85563 -126.46642 -118.79847 -126.1263 -118.79847 L -114.05211 -118.969 L -111.58662 -117.18306 L -112.35195 -110.72092 L -133.43904 -110.72092 L -134.62915 -96.521273 C -131.68149 -97.258188 -129.01715 -97.626632 -126.63635 -97.626632 C -121.02446 -97.626632 -116.46126 -96.124274 -112.94675 -93.11993 C -109.37555 -90.172272 -107.58997 -85.836165 -107.58997 -80.110905 C -107.58997 -76.539704 -108.44015 -73.336993 -110.14072 -70.502706 C -111.7846 -67.66842 -114.16572 -65.429173 -117.28343 -63.785287 C -120.40115 -62.198086 -124.08559 -61.404554 -128.33702 -61.404554 C -131.79485 -61.404554 -134.94092 -61.886286 -137.77521 -62.849943 C -140.55281 -63.813601 -142.73541 -65.14551 -144.32261 -66.846082 C -145.90981 -68.60334 -146.70334 -70.559366 -146.70334 -72.713424 C -146.70334 -74.980853 -146.07974 -76.709787 -144.83266 -77.900188 C -143.58557 -79.147274 -142.05515 -79.770358 -140.24121 -79.770358 C -139.22086 -79.770358 -138.20024 -79.572362 -137.17989 -79.175562 C -136.10286 -78.778762 -135.1394 -78.211805 -134.28911 -77.474891 C -134.79929 -76.28449 -135.05444 -75.037289 -135.05444 -73.733517 C -135.05444 -71.862888 -134.51607 -70.332466 -133.43904 -69.142066 C -132.30532 -67.951665 -130.60445 -67.356645 -128.33702 -67.356645 C -123.23531 -67.356645 -120.68426 -71.608045 -120.68426 -80.110905 C -120.68426 -84.135593 -121.47831 -87.054567 -123.06551 -88.86851 C -124.65271 -90.73914 -126.77815 -91.674541 -129.44238 -91.674541 C -131.08627 -91.674541 -132.84378 -91.36274 -134.71441 -90.739197 C -136.58504 -90.115654 -138.42726 -89.236897 -140.24121 -88.103182 L -144.91741 -92.609884 L -142.70669 -116.75776 L -139.90117 -119.05375 z M -71.877937 -119.05375 L -67.626516 -118.969 C -61.617829 -118.85563 -58.443698 -118.79847 -58.103583 -118.79847 L -46.029385 -118.969 L -43.563386 -117.18306 L -44.328714 -110.72092 L -65.415799 -110.72092 L -66.606424 -96.521273 C -63.658765 -97.258188 -60.994431 -97.626632 -58.61363 -97.626632 C -53.001742 -97.626632 -48.438542 -96.124274 -44.924026 -93.11993 C -41.352825 -90.172272 -39.567247 -85.836165 -39.567247 -80.110905 C -39.567247 -76.539704 -40.417424 -73.336993 -42.117996 -70.502706 C -43.761882 -67.66842 -46.14248 -65.429173 -49.260196 -63.785287 C -52.377911 -62.198086 -56.062871 -61.404554 -60.314301 -61.404554 C -63.772131 -61.404554 -66.918198 -61.886286 -69.752485 -62.849943 C -72.530086 -63.813601 -74.712171 -65.14551 -76.299372 -66.846082 C -77.886573 -68.60334 -78.680105 -70.559366 -78.680105 -72.713424 C -78.680105 -74.980853 -78.056505 -76.709787 -76.809418 -77.900188 C -75.562332 -79.147274 -74.031911 -79.770358 -72.217967 -79.770358 C -71.197624 -79.770358 -70.177516 -79.572362 -69.157172 -79.175562 C -68.080143 -78.778762 -67.116162 -78.211805 -66.265876 -77.474891 C -66.776048 -76.28449 -67.031204 -75.037289 -67.031204 -73.733517 C -67.031204 -71.862888 -66.492828 -70.332466 -65.415799 -69.142066 C -64.282084 -67.951665 -62.581731 -67.356645 -60.314301 -67.356645 C -55.212585 -67.356645 -52.661538 -71.608045 -52.661538 -80.110905 C -52.661538 -84.135593 -53.455071 -87.054567 -55.042272 -88.86851 C -56.629472 -90.73914 -58.755431 -91.674541 -61.41966 -91.674541 C -63.063546 -91.674541 -64.820544 -91.36274 -66.691173 -90.739197 C -68.561802 -90.115654 -70.404024 -89.236897 -72.217967 -88.103182 L -76.894685 -92.609884 L -74.683967 -116.75776 L -71.877937 -119.05375 z M -13.463414 -113.78224 C -15.730844 -113.78224 -17.516421 -113.04535 -18.820193 -111.57152 C -20.123965 -110.15437 -20.775629 -108.22693 -20.775629 -105.78944 C -20.775629 -103.63538 -19.954033 -101.84981 -18.310147 -100.43266 C -16.609575 -99.072205 -14.143752 -97.711715 -10.912666 -96.351258 C -9.4955221 -97.314915 -8.3616088 -98.646824 -7.5113227 -100.3474 C -6.6610367 -102.04797 -6.2359484 -103.86213 -6.2359484 -105.78944 C -6.2359484 -108.22693 -6.9161931 -110.15437 -8.2766507 -111.57152 C -9.5804226 -113.04535 -11.309356 -113.78224 -13.463414 -113.78224 z M -92.199694 -101.28274 C -90.215693 -101.28274 -88.741915 -100.68772 -87.778258 -99.497319 C -86.757915 -98.363604 -86.248119 -96.776539 -86.248119 -94.735852 C -86.248119 -92.695166 -86.757915 -91.107584 -87.778258 -89.973869 C -88.741915 -88.840154 -90.215693 -88.273198 -92.199694 -88.273198 C -94.183694 -88.273198 -95.686052 -88.840154 -96.706395 -89.973869 C -97.670053 -91.16427 -98.151785 -92.751852 -98.151785 -94.735852 C -98.151785 -96.833225 -97.670053 -98.448354 -96.706395 -99.582068 C -95.686052 -100.71578 -94.183694 -101.28274 -92.199694 -101.28274 z M -16.949506 -89.038526 C -18.650078 -87.678068 -19.89728 -86.119583 -20.69088 -84.362325 C -21.48448 -82.605068 -21.880988 -80.50769 -21.880988 -78.070203 C -21.880988 -74.725745 -21.059392 -72.089474 -19.415506 -70.162159 C -17.771619 -68.291529 -15.532373 -67.356645 -12.698086 -67.356645 C -9.9204852 -67.356645 -7.7664632 -68.291529 -6.2359484 -70.162159 C -4.6487478 -72.032788 -3.8552151 -74.640479 -3.8552151 -77.984937 C -3.8552151 -79.855566 -4.4502354 -81.442631 -5.6406359 -82.746403 C -6.7743506 -84.106861 -8.2200643 -85.212194 -9.9773221 -86.06248 C -11.73458 -86.969452 -14.058534 -87.961497 -16.949506 -89.038526 z M -92.199694 -74.498845 C -90.215693 -74.498845 -88.741915 -73.903824 -87.778258 -72.713424 C -86.757915 -71.579709 -86.248119 -69.992127 -86.248119 -67.951441 C -86.248119 -65.910754 -86.757915 -64.323689 -87.778258 -63.189974 C -88.741915 -62.05626 -90.215693 -61.489303 -92.199694 -61.489303 C -94.183694 -61.489303 -95.686052 -62.05626 -96.706395 -63.189974 C -97.670053 -64.380375 -98.151785 -65.96744 -98.151785 -67.951441 C -98.151785 -70.048813 -97.670053 -71.664459 -96.706395 -72.798173 C -95.686052 -73.931888 -94.183694 -74.498845 -92.199694 -74.498845 z " /></g></svg>
