<?xml version="1.0" encoding="UTF-8" standalone="no"?>
<!-- Created with Inkscape (http://www.inkscape.org/) -->

<svg
   width="172.6701mm"
   height="172.6701mm"
   viewBox="0 0 172.6701 172.6701"
   version="1.1"
   id="svg1"
   xml:space="preserve"
   xmlns="http://www.w3.org/2000/svg"
   xmlns:svg="http://www.w3.org/2000/svg"><defs
     id="defs1" /><g
     id="layer1"
     transform="translate(157.25102,198.81012)"><path
       id="path5"
       style="fill:#ffffff;fill-opacity:1;stroke-width:0.805188;stroke-linecap:round;stroke-linejoin:round"
       d="M -2.0863309 -198.17657 L -10.088943 -183.11289 L -10.930235 -165.68398 L -19.198981 -165.68398 L -11.423229 -155.47426 L -12.166336 -140.07934 C -28.353216 -157.12094 -50.823548 -166.77435 -74.327399 -166.78417 C -103.64471 -166.77397 -130.92652 -151.79225 -146.66717 -127.05894 L -157.25102 -127.05894 L -149.61996 -115.86014 L -157.25102 -26.140039 L -8.5138455 -26.140039 L 15.419061 -26.140039 L 8.0799737 -154.80195 L 15.419061 -165.68398 L 7.4593397 -165.68398 L 6.4490654 -183.39297 L -2.0863309 -198.17657 z M -83.43072 -192.21621 C -85.584619 -189.65499 -86.77489 -186.4211 -86.795372 -183.07465 C -86.842092 -175.15518 -80.459903 -168.69733 -72.540428 -168.65072 C -64.621155 -168.60402 -58.163395 -174.98588 -58.116503 -182.90515 C -58.102813 -186.26049 -59.266203 -189.5144 -61.404157 -192.10045 C -60.83125 -190.6836 -60.536835 -189.16959 -60.537027 -187.64129 C -60.575787 -181.07411 -65.930869 -175.78172 -72.498054 -175.82031 C -79.065241 -175.85911 -84.357627 -181.21415 -84.319038 -187.78134 C -84.309338 -189.30285 -84.007827 -190.80837 -83.43072 -192.21621 z M -13.63343 -119.56379 C -6.8878272 -119.56379 -1.7296066 -117.69351 1.8415947 -113.95225 C 5.4694818 -110.21099 7.2836398 -104.7971 7.2836398 -97.711381 C 7.2836398 -88.811721 4.5060172 -81.216258 -1.0491849 -74.924142 C -6.5477012 -68.688711 -14.540188 -64.09693 -25.027049 -61.149272 L -27.067752 -65.400692 C -21.399178 -67.838179 -16.835978 -70.956182 -13.378148 -74.754126 C -9.9203183 -78.608756 -7.6249447 -83.086732 -6.49123 -88.188448 C -9.6656311 -86.601248 -12.754537 -85.807715 -15.758881 -85.807715 C -21.427455 -85.807715 -25.905948 -87.338137 -29.19372 -90.399166 C -32.424807 -93.460196 -34.040453 -97.598308 -34.040453 -102.8134 C -34.040453 -106.04448 -33.189759 -108.93539 -31.489187 -111.48625 C -29.73193 -114.03711 -27.322751 -116.0212 -24.261721 -117.43834 C -21.144006 -118.85549 -17.601431 -119.56379 -13.63343 -119.56379 z M -138.96583 -119.05375 L -134.71441 -118.969 C -128.70572 -118.85563 -125.53108 -118.79847 -125.19096 -118.79847 L -113.11676 -118.969 L -110.65128 -117.18306 L -111.41661 -110.72092 L -132.50369 -110.72092 L -133.6938 -96.521273 C -130.74614 -97.258188 -128.08181 -97.626632 -125.70101 -97.626632 C -120.08912 -97.626632 -115.52592 -96.124274 -112.0114 -93.11993 C -108.4402 -90.172272 -106.65463 -85.836165 -106.65463 -80.110905 C -106.65463 -76.539704 -107.50532 -73.336993 -109.20589 -70.502706 C -110.84978 -67.66842 -113.23037 -65.429173 -116.34809 -63.785287 C -119.46581 -62.198086 -123.15025 -61.404554 -127.40168 -61.404554 C -130.85951 -61.404554 -134.00558 -61.886286 -136.83986 -62.849943 C -139.61746 -63.813601 -141.80007 -65.14551 -143.38727 -66.846082 C -144.97447 -68.60334 -145.768 -70.559366 -145.768 -72.713424 C -145.768 -74.980853 -145.1444 -76.709787 -143.89731 -77.900188 C -142.65023 -79.147274 -141.11981 -79.770358 -139.30586 -79.770358 C -138.28552 -79.770358 -137.26489 -79.572362 -136.24455 -79.175562 C -135.16752 -78.778762 -134.20406 -78.211805 -133.35377 -77.474891 C -133.86394 -76.28449 -134.1191 -75.037289 -134.1191 -73.733517 C -134.1191 -71.862888 -133.58072 -70.332466 -132.50369 -69.142066 C -131.36998 -67.951665 -129.66911 -67.356645 -127.40168 -67.356645 C -122.29996 -67.356645 -119.74943 -71.608045 -119.74943 -80.110905 C -119.74943 -84.135593 -120.54297 -87.054567 -122.13017 -88.86851 C -123.71737 -90.73914 -125.84281 -91.674541 -128.50704 -91.674541 C -130.15092 -91.674541 -131.90844 -91.36274 -133.77907 -90.739197 C -135.6497 -90.115654 -137.49192 -89.236897 -139.30586 -88.103182 L -143.98258 -92.609884 L -141.77186 -116.75776 L -138.96583 -119.05375 z M -70.942593 -119.05375 L -66.691173 -118.969 C -60.682485 -118.85563 -57.508354 -118.79847 -57.16824 -118.79847 L -45.094042 -118.969 L -42.628042 -117.18306 L -43.39337 -110.72092 L -64.480455 -110.72092 L -65.67108 -96.521273 C -62.723422 -97.258188 -60.059087 -97.626632 -57.678286 -97.626632 C -52.066399 -97.626632 -47.503198 -96.124274 -43.988683 -93.11993 C -40.417481 -90.172272 -38.631904 -85.836165 -38.631904 -80.110905 C -38.631904 -76.539704 -39.48208 -73.336993 -41.182652 -70.502706 C -42.826539 -67.66842 -45.207137 -65.429173 -48.324852 -63.785287 C -51.442568 -62.198086 -55.127528 -61.404554 -59.378958 -61.404554 C -62.836788 -61.404554 -65.982855 -61.886286 -68.817141 -62.849943 C -71.594742 -63.813601 -73.776828 -65.14551 -75.364029 -66.846082 C -76.951229 -68.60334 -77.744762 -70.559366 -77.744762 -72.713424 C -77.744762 -74.980853 -77.121678 -76.709787 -75.874592 -77.900188 C -74.627506 -79.147274 -73.096568 -79.770358 -71.282624 -79.770358 C -70.262281 -79.770358 -69.242172 -79.572362 -68.221829 -79.175562 C -67.1448 -78.778762 -66.181335 -78.211805 -65.331049 -77.474891 C -65.841221 -76.28449 -66.09586 -75.037289 -66.09586 -73.733517 C -66.09586 -71.862888 -65.557484 -70.332466 -64.480455 -69.142066 C -63.346741 -67.951665 -61.646387 -67.356645 -59.378958 -67.356645 C -54.277242 -67.356645 -51.726195 -71.608045 -51.726195 -80.110905 C -51.726195 -84.135593 -52.519728 -87.054567 -54.106928 -88.86851 C -55.694129 -90.73914 -57.820087 -91.674541 -60.484317 -91.674541 C -62.128203 -91.674541 -63.8852 -91.36274 -65.75583 -90.739197 C -67.626459 -90.115654 -69.46868 -89.236897 -71.282624 -88.103182 L -75.959341 -92.609884 L -73.748623 -116.75776 L -70.942593 -119.05375 z M -14.143476 -113.69697 C -16.580963 -113.69697 -18.451765 -112.76157 -19.755537 -110.89094 C -21.059309 -109.02031 -21.710973 -106.35597 -21.710973 -102.89814 C -21.710973 -99.383629 -21.002665 -96.634587 -19.585521 -94.650586 C -18.111692 -92.723271 -16.042378 -91.759807 -13.378148 -91.759807 C -11.054033 -91.759807 -8.4749226 -92.723271 -5.6406359 -94.650586 L -5.6406359 -95.755945 C -5.6406359 -101.93469 -6.3208806 -106.46931 -7.6813382 -109.36028 C -9.0417958 -112.25126 -11.195818 -113.69697 -14.143476 -113.69697 z M -91.26435 -101.28274 C -89.280349 -101.28274 -87.806572 -100.68772 -86.842915 -99.497319 C -85.822571 -98.363604 -85.312775 -96.776539 -85.312775 -94.735852 C -85.312775 -92.695166 -85.822571 -91.107584 -86.842915 -89.973869 C -87.806572 -88.840154 -89.280349 -88.273198 -91.26435 -88.273198 C -93.248351 -88.273198 -94.750709 -88.840154 -95.771052 -89.973869 C -96.734709 -91.16427 -97.216442 -92.751852 -97.216442 -94.735852 C -97.216442 -96.833225 -96.734709 -98.448354 -95.771052 -99.582068 C -94.750709 -100.71578 -93.248351 -101.28274 -91.26435 -101.28274 z M -91.26435 -74.498845 C -89.280349 -74.498845 -87.806572 -73.903824 -86.842915 -72.713424 C -85.822571 -71.579709 -85.312775 -69.992127 -85.312775 -67.951441 C -85.312775 -65.910754 -85.822571 -64.323689 -86.842915 -63.189974 C -87.806572 -62.05626 -89.280349 -61.489303 -91.26435 -61.489303 C -93.248351 -61.489303 -94.750709 -62.05626 -95.771052 -63.189974 C -96.734709 -64.380375 -97.216442 -65.96744 -97.216442 -67.951441 C -97.216442 -70.048813 -96.734709 -71.664459 -95.771052 -72.798173 C -94.750709 -73.931888 -93.248351 -74.498845 -91.26435 -74.498845 z " /></g></svg>
