<?xml version="1.0" encoding="UTF-8" standalone="no"?>
<!-- Created with Inkscape (http://www.inkscape.org/) -->

<svg
   width="172.6701mm"
   height="172.6701mm"
   viewBox="0 0 172.6701 172.6701"
   version="1.1"
   id="svg1"
   xml:space="preserve"
   xmlns="http://www.w3.org/2000/svg"
   xmlns:svg="http://www.w3.org/2000/svg"><defs
     id="defs1" /><g
     id="layer1"
     transform="translate(157.25102,198.81012)"><path
       id="path5"
       style="fill:#ffffff;fill-opacity:1;stroke-width:0.805188;stroke-linecap:round;stroke-linejoin:round"
       d="M -2.0863309 -198.17657 L -10.088943 -183.11289 L -10.930235 -165.68398 L -19.198981 -165.68398 L -11.423229 -155.47426 L -12.166336 -140.07934 C -28.353216 -157.12094 -50.823548 -166.77435 -74.327399 -166.78417 C -103.64471 -166.77397 -130.92652 -151.79225 -146.66717 -127.05894 L -157.25102 -127.05894 L -149.61996 -115.86014 L -157.25102 -26.140039 L -8.5138455 -26.140039 L 15.419061 -26.140039 L 8.0799737 -154.80195 L 15.419061 -165.68398 L 7.4593397 -165.68398 L 6.4490654 -183.39297 L -2.0863309 -198.17657 z M -83.43072 -192.21621 C -85.584619 -189.65499 -86.77489 -186.4211 -86.795372 -183.07465 C -86.842092 -175.15518 -80.459903 -168.69733 -72.540428 -168.65072 C -64.621155 -168.60402 -58.163395 -174.98588 -58.116503 -182.90515 C -58.102813 -186.26049 -59.266203 -189.5144 -61.404157 -192.10045 C -60.83125 -190.6836 -60.536835 -189.16959 -60.537027 -187.64129 C -60.575787 -181.07411 -65.930869 -175.78172 -72.498054 -175.82031 C -79.065241 -175.85911 -84.357627 -181.21415 -84.319038 -187.78134 C -84.309338 -189.30285 -84.007827 -190.80837 -83.43072 -192.21621 z M -83.041079 -136.45527 L -79.491425 -129.06037 C -99.408624 -120.48217 -111.38875 -107.2696 -115.43135 -89.422998 C -109.71255 -92.183798 -104.28926 -93.564348 -99.162059 -93.564348 C -89.30206 -93.564348 -81.561971 -90.902155 -75.941771 -85.577755 C -70.222971 -80.253355 -67.364 -73.055441 -67.364 -63.984241 C -67.364 -58.364041 -68.892133 -53.33534 -71.948733 -48.89834 C -74.906733 -44.46134 -79.097059 -41.010484 -84.520059 -38.545484 C -89.844459 -36.080484 -95.958025 -34.848035 -102.86002 -34.848035 C -114.59342 -34.848035 -123.61516 -38.101597 -129.92556 -44.609196 C -136.13736 -51.116796 -139.24333 -60.533119 -139.24333 -72.858118 C -139.24333 -88.338317 -134.46112 -101.5017 -124.89692 -112.3477 C -115.23412 -123.2923 -101.28208 -131.32807 -83.041079 -136.45527 z M -22.550198 -135.12408 L -17.669359 -132.90562 L -17.669359 -47.419361 C -15.795959 -46.334761 -12.838082 -45.348802 -8.7954821 -44.461402 C -4.7528822 -43.672602 -1.5485153 -43.179622 0.81788462 -42.982422 L 0.37450083 -35.883114 L -59.968586 -35.883114 L -59.672997 -42.982422 C -50.897597 -43.968422 -44.192662 -45.447361 -39.558462 -47.419361 L -39.558462 -118.26362 L -59.377408 -118.26362 L -59.377408 -126.8419 C -53.067008 -127.3349 -46.559368 -128.27167 -39.854568 -129.65207 C -33.149768 -131.13107 -27.381598 -132.95488 -22.550198 -135.12408 z M -103.30341 -83.211491 C -107.44461 -83.211491 -111.93114 -81.535257 -116.76254 -78.182858 L -116.76254 -76.259978 C -116.76254 -65.512578 -115.57928 -57.624389 -113.21288 -52.595789 C -110.84648 -47.567189 -107.09942 -45.053097 -101.97222 -45.053097 C -97.732424 -45.053097 -94.478862 -46.680136 -92.211062 -49.933936 C -89.943262 -53.187736 -88.809203 -57.821847 -88.809203 -63.836446 C -88.809203 -69.949646 -90.090846 -74.682146 -92.654446 -78.034546 C -95.119446 -81.485546 -98.669209 -83.211491 -103.30341 -83.211491 z " /></g></svg>
