<?xml version="1.0" encoding="UTF-8" standalone="no"?>
<!-- Created with Inkscape (http://www.inkscape.org/) -->

<svg
   width="172.6701mm"
   height="172.6701mm"
   viewBox="0 0 172.6701 172.6701"
   version="1.1"
   id="svg1"
   xml:space="preserve"
   xmlns="http://www.w3.org/2000/svg"
   xmlns:svg="http://www.w3.org/2000/svg"><defs
     id="defs1" /><g
     id="layer1"
     transform="translate(157.25102,198.81012)"><path
       id="path5"
       style="fill:#ffffff;fill-opacity:1;stroke-width:0.805188;stroke-linecap:round;stroke-linejoin:round"
       d="M -2.0863309 -198.17657 L -10.088943 -183.11289 L -10.930235 -165.68398 L -19.198981 -165.68398 L -11.423229 -155.47426 L -12.166336 -140.07934 C -28.353216 -157.12094 -50.823548 -166.77435 -74.327399 -166.78417 C -103.64471 -166.77397 -130.92652 -151.79225 -146.66717 -127.05894 L -157.25102 -127.05894 L -149.61996 -115.86014 L -157.25102 -26.140039 L -8.5138455 -26.140039 L 15.419061 -26.140039 L 8.0799737 -154.80195 L 15.419061 -165.68398 L 7.4593397 -165.68398 L 6.4490654 -183.39297 L -2.0863309 -198.17657 z M -83.43072 -192.21621 C -85.584619 -189.65499 -86.77489 -186.4211 -86.795372 -183.07465 C -86.842092 -175.15518 -80.459903 -168.69733 -72.540428 -168.65072 C -64.621155 -168.60402 -58.163395 -174.98588 -58.116503 -182.90515 C -58.102813 -186.26049 -59.266203 -189.5144 -61.404157 -192.10045 C -60.83125 -190.6836 -60.536835 -189.16959 -60.537027 -187.64129 C -60.575787 -181.07411 -65.930869 -175.78172 -72.498054 -175.82031 C -79.065241 -175.85911 -84.357627 -181.21415 -84.319038 -187.78134 C -84.309338 -189.30285 -84.007827 -190.80837 -83.43072 -192.21621 z M -86.664631 -136.45527 L -83.114977 -129.06037 C -103.03218 -120.48217 -115.0123 -107.2696 -119.0549 -89.422998 C -113.3361 -92.183798 -107.91281 -93.564348 -102.78561 -93.564348 C -92.925611 -93.564348 -85.185522 -90.902155 -79.565323 -85.577755 C -73.846523 -80.253355 -70.987552 -73.055441 -70.987552 -63.984241 C -70.987552 -58.364041 -72.515685 -53.33534 -75.572285 -48.89834 C -78.530285 -44.46134 -82.720611 -41.010484 -88.14361 -38.545484 C -93.46801 -36.080484 -99.581576 -34.848035 -106.48358 -34.848035 C -118.21698 -34.848035 -127.23871 -38.101597 -133.54911 -44.609196 C -139.76091 -51.116796 -142.86689 -60.533119 -142.86689 -72.858118 C -142.86689 -88.338317 -138.08467 -101.5017 -128.52047 -112.3477 C -118.85767 -123.2923 -104.90563 -131.32807 -86.664631 -136.45527 z M -30.610688 -136.15968 C -20.454888 -136.15968 -12.369404 -133.64507 -6.3548042 -128.61647 C -0.34020443 -123.68647 2.6668674 -116.73505 2.6668674 -107.76245 C 2.6668674 -99.874448 -0.34020443 -91.444601 -6.3548042 -82.472002 C -12.369404 -73.598002 -22.278706 -62.899519 -36.082705 -50.37732 L 3.7019463 -50.37732 L 3.7019463 -35.883114 L -63.296548 -35.883114 L -63.296548 -44.461402 C -52.351949 -55.011601 -43.823196 -64.033333 -37.709996 -71.526933 C -31.596796 -79.020533 -27.209175 -85.922763 -24.546975 -92.233163 C -21.786176 -98.543563 -20.405626 -105.0512 -20.405626 -111.756 C -20.405626 -122.4048 -23.954872 -127.72919 -31.054072 -127.72919 C -34.209272 -127.72919 -36.773075 -126.25025 -38.745075 -123.29225 C -40.717075 -120.43285 -41.703034 -116.88309 -41.703034 -112.64329 C -41.703034 -109.68529 -40.66788 -106.87551 -38.597281 -104.21331 C -40.273481 -102.63571 -42.196204 -101.40274 -44.365404 -100.51534 C -46.436004 -99.627945 -48.506311 -99.184676 -50.576911 -99.184676 C -54.126511 -99.184676 -57.084905 -100.26902 -59.451305 -102.43822 C -61.817705 -104.70602 -63.000959 -107.9601 -63.000959 -112.1999 C -63.000959 -116.7355 -61.669604 -120.82692 -59.007404 -124.47512 C -56.345204 -128.12332 -52.598663 -130.98281 -47.767263 -133.05341 C -42.837264 -135.12401 -37.118288 -136.15968 -30.610688 -136.15968 z M -106.92696 -83.211491 C -111.06816 -83.211491 -115.55469 -81.535257 -120.38609 -78.182858 L -120.38609 -76.259978 C -120.38609 -65.512578 -119.20283 -57.624389 -116.83643 -52.595789 C -114.47003 -47.567189 -110.72297 -45.053097 -105.59578 -45.053097 C -101.35598 -45.053097 -98.102414 -46.680136 -95.834614 -49.933936 C -93.566814 -53.187736 -92.432754 -57.821847 -92.432754 -63.836446 C -92.432754 -69.949646 -93.714398 -74.682146 -96.277998 -78.034546 C -98.742997 -81.485546 -102.29276 -83.211491 -106.92696 -83.211491 z " /></g></svg>
