<?xml version="1.0" encoding="UTF-8" standalone="no"?>
<!-- Created with Inkscape (http://www.inkscape.org/) -->

<svg
   width="172.6701mm"
   height="172.6701mm"
   viewBox="0 0 172.6701 172.6701"
   version="1.1"
   id="svg1"
   xml:space="preserve"
   xmlns="http://www.w3.org/2000/svg"
   xmlns:svg="http://www.w3.org/2000/svg"><defs
     id="defs1" /><g
     id="layer1"
     transform="translate(157.25102,198.81012)"><path
       id="path5"
       style="fill:#ffffff;fill-opacity:1;stroke-width:0.805188;stroke-linecap:round;stroke-linejoin:round"
       d="M -2.0863309 -198.17657 L -10.088943 -183.11289 L -10.930235 -165.68398 L -19.198981 -165.68398 L -11.423229 -155.47426 L -12.166336 -140.07934 C -28.353216 -157.12094 -50.823548 -166.77435 -74.327399 -166.78417 C -103.64471 -166.77397 -130.92652 -151.79225 -146.66717 -127.05894 L -157.25102 -127.05894 L -149.61996 -115.86014 L -157.25102 -26.140039 L -8.5138455 -26.140039 L 15.419061 -26.140039 L 8.0799737 -154.80195 L 15.419061 -165.68398 L 7.4593397 -165.68398 L 6.4490654 -183.39297 L -2.0863309 -198.17657 z M -83.43072 -192.21621 C -85.584619 -189.65499 -86.77489 -186.4211 -86.795372 -183.07465 C -86.842092 -175.15518 -80.459903 -168.69733 -72.540428 -168.65072 C -64.621155 -168.60402 -58.163395 -174.98588 -58.116503 -182.90515 C -58.102813 -186.26049 -59.266203 -189.5144 -61.404157 -192.10045 C -60.83125 -190.6836 -60.536835 -189.16959 -60.537027 -187.64129 C -60.575787 -181.07411 -65.930869 -175.78172 -72.498054 -175.82031 C -79.065241 -175.85911 -84.357627 -181.21415 -84.319038 -187.78134 C -84.309338 -189.30285 -84.007827 -190.80837 -83.43072 -192.21621 z M -86.738528 -136.45527 L -83.188874 -129.06037 C -103.10607 -120.48217 -115.0862 -107.2696 -119.1288 -89.422998 C -113.41 -92.183798 -107.98671 -93.564348 -102.85951 -93.564348 C -92.999508 -93.564348 -85.25942 -90.902155 -79.63922 -85.577755 C -73.92042 -80.253355 -71.061449 -73.055441 -71.061449 -63.984241 C -71.061449 -58.364041 -72.589582 -53.33534 -75.646182 -48.89834 C -78.604182 -44.46134 -82.794508 -41.010484 -88.217508 -38.545484 C -93.541907 -36.080484 -99.655474 -34.848035 -106.55747 -34.848035 C -118.29087 -34.848035 -127.31261 -38.101597 -133.623 -44.609196 C -139.8348 -51.116796 -142.94078 -60.533119 -142.94078 -72.858118 C -142.94078 -88.338317 -138.15857 -101.5017 -128.59437 -112.3477 C -118.93157 -123.2923 -104.97953 -131.32807 -86.738528 -136.45527 z M -31.27628 -136.15968 C -24.867281 -136.15968 -19.197499 -135.07482 -14.267499 -132.90562 C -9.3374997 -130.83502 -5.4920526 -127.87714 -2.7312527 -124.03174 C 0.029547139 -120.28494 1.4095798 -115.94651 1.4095798 -111.01651 C 1.4095798 -105.49491 -0.21694263 -100.7619 -3.4707425 -96.817896 C -6.7245424 -92.873896 -11.555948 -89.866824 -17.964948 -87.796224 C -9.8797486 -86.021424 -4.2104839 -83.112742 -0.95668406 -79.070142 C 2.2971158 -75.027542 3.924155 -69.555056 3.924155 -62.653056 C 3.924155 -56.638456 2.0998206 -51.511366 -1.5483792 -47.271566 C -5.0979791 -43.031766 -9.73209 -39.876594 -15.45089 -37.805994 C -21.16969 -35.735394 -27.085444 -34.70024 -33.198644 -34.70024 C -42.072643 -34.70024 -49.615954 -36.524058 -55.827753 -40.172258 C -61.940953 -43.820458 -64.99722 -48.799964 -64.99722 -55.110364 C -64.99722 -58.758564 -63.912871 -61.568341 -61.743671 -63.540341 C -59.574471 -65.61094 -56.862567 -66.646611 -53.608767 -66.646611 C -50.256368 -66.646611 -46.854705 -65.315256 -43.403706 -62.653056 C -44.291106 -60.779656 -44.73489 -58.512054 -44.73489 -55.849854 C -44.73489 -52.694654 -43.798126 -50.13085 -41.924726 -48.15885 C -39.952726 -46.186851 -37.044044 -45.200891 -33.198644 -45.200891 C -24.719044 -45.200891 -20.479523 -51.067451 -20.479523 -62.800851 C -20.479523 -69.209851 -22.549831 -74.189357 -26.691031 -77.738957 C -30.73363 -81.288557 -36.501801 -83.06318 -43.995401 -83.06318 L -43.995401 -92.233163 C -29.501201 -93.416363 -22.254092 -99.677513 -22.254092 -111.01651 C -22.254092 -116.73531 -23.141662 -120.92564 -24.916462 -123.58784 C -26.691262 -126.34864 -29.106965 -127.72919 -32.163565 -127.72919 C -35.811765 -127.72919 -38.572347 -126.44754 -40.445747 -123.88394 C -42.220546 -121.32034 -43.108116 -118.21437 -43.108116 -114.56617 C -43.108116 -111.31237 -42.417842 -108.40368 -41.037442 -105.84008 C -43.798242 -102.88208 -47.348004 -101.40315 -51.686404 -101.40315 C -55.630404 -101.40315 -58.68667 -102.5864 -60.85587 -104.9528 C -63.02507 -107.3192 -64.109935 -110.37547 -64.109935 -114.12227 C -64.109935 -119.05227 -62.433701 -123.1442 -59.081302 -126.398 C -55.630302 -129.7504 -51.390781 -132.2153 -46.362181 -133.7929 C -41.234982 -135.3705 -36.20628 -136.15968 -31.27628 -136.15968 z M -107.00086 -83.211491 C -111.14206 -83.211491 -115.62858 -81.535257 -120.45998 -78.182858 L -120.45998 -76.259978 C -120.45998 -65.512578 -119.27673 -57.624389 -116.91033 -52.595789 C -114.54393 -47.567189 -110.79687 -45.053097 -105.66967 -45.053097 C -101.42987 -45.053097 -98.176311 -46.680136 -95.908511 -49.933936 C -93.640711 -53.187736 -92.506652 -57.821847 -92.506652 -63.836446 C -92.506652 -69.949646 -93.788295 -74.682146 -96.351895 -78.034546 C -98.816895 -81.485546 -102.36666 -83.211491 -107.00086 -83.211491 z " /></g></svg>
