<?xml version="1.0" encoding="UTF-8" standalone="no"?>
<!-- Created with Inkscape (http://www.inkscape.org/) -->

<svg
   width="172.6701mm"
   height="172.6701mm"
   viewBox="0 0 172.6701 172.6701"
   version="1.1"
   id="svg1"
   xml:space="preserve"
   xmlns="http://www.w3.org/2000/svg"
   xmlns:svg="http://www.w3.org/2000/svg"><defs
     id="defs1" /><g
     id="layer1"
     transform="translate(157.25102,198.81012)"><path
       id="path5"
       style="fill:#ffffff;fill-opacity:1;stroke-width:0.805188;stroke-linecap:round;stroke-linejoin:round"
       d="M -2.0863309 -198.17657 L -10.088943 -183.11289 L -10.930235 -165.68398 L -19.198981 -165.68398 L -11.423229 -155.47426 L -12.166336 -140.07934 C -28.353216 -157.12094 -50.823548 -166.77435 -74.327399 -166.78417 C -103.64471 -166.77397 -130.92652 -151.79225 -146.66717 -127.05894 L -157.25102 -127.05894 L -149.61996 -115.86014 L -157.25102 -26.140039 L -8.5138455 -26.140039 L 15.419061 -26.140039 L 8.0799737 -154.80195 L 15.419061 -165.68398 L 7.4593397 -165.68398 L 6.4490654 -183.39297 L -2.0863309 -198.17657 z M -83.43072 -192.21621 C -85.584619 -189.65499 -86.77489 -186.4211 -86.795372 -183.07465 C -86.842092 -175.15518 -80.459903 -168.69733 -72.540428 -168.65072 C -64.621155 -168.60402 -58.163395 -174.98588 -58.116503 -182.90515 C -58.102813 -186.26049 -59.266203 -189.5144 -61.404157 -192.10045 C -60.83125 -190.6836 -60.536835 -189.16959 -60.537027 -187.64129 C -60.575787 -181.07411 -65.930869 -175.78172 -72.498054 -175.82031 C -79.065241 -175.85911 -84.357627 -181.21415 -84.319038 -187.78134 C -84.309338 -189.30285 -84.007827 -190.80837 -83.43072 -192.21621 z M -88.956997 -136.45527 L -85.407343 -129.06037 C -105.32454 -120.48217 -117.30467 -107.2696 -121.34727 -89.422998 C -115.62847 -92.183798 -110.20569 -93.564348 -105.07849 -93.564348 C -95.218494 -93.564348 -87.478406 -90.902155 -81.858206 -85.577755 C -76.139406 -80.253355 -73.279918 -73.055441 -73.279918 -63.984241 C -73.279918 -58.364041 -74.808051 -53.33534 -77.864651 -48.89834 C -80.822651 -44.46134 -85.012977 -41.010484 -90.435977 -38.545484 C -95.760377 -36.080484 -101.87394 -34.848035 -108.77594 -34.848035 C -120.50934 -34.848035 -129.53107 -38.101597 -135.84147 -44.609196 C -142.05327 -51.116796 -145.15925 -60.533119 -145.15925 -72.858118 C -145.15925 -88.338317 -140.37704 -101.5017 -130.81284 -112.3477 C -121.15004 -123.2923 -107.198 -131.32807 -88.956997 -136.45527 z M -9.3871772 -136.45527 L -5.8375231 -129.06037 C -25.754722 -120.48217 -37.734332 -107.2696 -41.776931 -89.422998 C -36.058132 -92.183798 -30.635357 -93.564348 -25.508157 -93.564348 C -15.648157 -93.564348 -7.9080687 -90.902155 -2.287869 -85.577755 C 3.4309308 -80.253355 6.2904188 -73.055441 6.2904188 -63.984241 C 6.2904188 -58.364041 4.7622856 -53.33534 1.7056857 -48.89834 C -1.2523141 -44.46134 -5.4431569 -41.010484 -10.866157 -38.545484 C -16.190556 -36.080484 -22.303606 -34.848035 -29.205606 -34.848035 C -40.939005 -34.848035 -49.960737 -38.101597 -56.271137 -44.609196 C -62.482937 -51.116796 -65.588915 -60.533119 -65.588915 -72.858118 C -65.588915 -88.338317 -60.806703 -101.5017 -51.242504 -112.3477 C -41.579704 -123.2923 -27.628176 -131.32807 -9.3871772 -136.45527 z M -109.21933 -83.211491 C -113.36053 -83.211491 -117.84705 -81.535257 -122.67845 -78.182858 L -122.67845 -76.259978 C -122.67845 -65.512578 -121.4952 -57.624389 -119.1288 -52.595789 C -116.7624 -47.567189 -113.01534 -45.053097 -107.88814 -45.053097 C -103.64834 -45.053097 -100.39478 -46.680136 -98.12698 -49.933936 C -95.85918 -53.187736 -94.725121 -57.821847 -94.725121 -63.836446 C -94.725121 -69.949646 -96.007281 -74.682146 -98.570881 -78.034546 C -101.03588 -81.485546 -104.58513 -83.211491 -109.21933 -83.211491 z M -29.649506 -83.211491 C -33.790706 -83.211491 -38.276717 -81.535257 -43.108116 -78.182858 L -43.108116 -76.259978 C -43.108116 -65.512578 -41.924862 -57.624389 -39.558462 -52.595789 C -37.192062 -47.567189 -33.445521 -45.053097 -28.318321 -45.053097 C -24.078522 -45.053097 -20.824443 -46.680136 -18.556643 -49.933936 C -16.288843 -53.187736 -15.155301 -57.821847 -15.155301 -63.836446 C -15.155301 -69.949646 -16.436944 -74.682146 -19.000544 -78.034546 C -21.465544 -81.485546 -25.015307 -83.211491 -29.649506 -83.211491 z " /></g></svg>
