<?xml version="1.0" encoding="UTF-8" standalone="no"?>
<!-- Created with Inkscape (http://www.inkscape.org/) -->

<svg
   width="172.6701mm"
   height="172.6701mm"
   viewBox="0 0 172.6701 172.6701"
   version="1.1"
   id="svg1"
   xml:space="preserve"
   xmlns="http://www.w3.org/2000/svg"
   xmlns:svg="http://www.w3.org/2000/svg"><defs
     id="defs1" /><g
     id="layer1"
     transform="translate(157.25102,198.81012)"><path
       id="path5"
       style="fill:#ffffff;fill-opacity:1;stroke-width:0.805188;stroke-linecap:round;stroke-linejoin:round"
       d="M -2.0863309 -198.17657 L -10.088943 -183.11289 L -10.930235 -165.68398 L -19.198981 -165.68398 L -11.423229 -155.47426 L -12.166336 -140.07934 C -28.353216 -157.12094 -50.823548 -166.77435 -74.327399 -166.78417 C -103.64471 -166.77397 -130.92652 -151.79225 -146.66717 -127.05894 L -157.25102 -127.05894 L -149.61996 -115.86014 L -157.25102 -26.140039 L -8.5138455 -26.140039 L 15.419061 -26.140039 L 8.0799737 -154.80195 L 15.419061 -165.68398 L 7.4593397 -165.68398 L 6.4490654 -183.39297 L -2.0863309 -198.17657 z M -83.43072 -192.21621 C -85.584619 -189.65499 -86.77489 -186.4211 -86.795372 -183.07465 C -86.842092 -175.15518 -80.459903 -168.69733 -72.540428 -168.65072 C -64.621155 -168.60402 -58.163395 -174.98588 -58.116503 -182.90515 C -58.102813 -186.26049 -59.266203 -189.5144 -61.404157 -192.10045 C -60.83125 -190.6836 -60.536835 -189.16959 -60.537027 -187.64129 C -60.575787 -181.07411 -65.930869 -175.78172 -72.498054 -175.82031 C -79.065241 -175.85911 -84.357627 -181.21415 -84.319038 -187.78134 C -84.309338 -189.30285 -84.007827 -190.80837 -83.43072 -192.21621 z M -90.288182 -136.45527 L -86.738528 -129.06037 C -106.65573 -120.48217 -118.63585 -107.2696 -122.67845 -89.422998 C -116.95965 -92.183798 -111.53636 -93.564348 -106.40916 -93.564348 C -96.549162 -93.564348 -88.809074 -90.902155 -83.188874 -85.577755 C -77.470074 -80.253355 -74.611103 -73.055441 -74.611103 -63.984241 C -74.611103 -58.364041 -76.139236 -53.33534 -79.195836 -48.89834 C -82.153836 -44.46134 -86.344162 -41.010484 -91.767162 -38.545484 C -97.091562 -36.080484 -103.20461 -34.848035 -110.10661 -34.848035 C -121.84001 -34.848035 -130.86226 -38.101597 -137.17266 -44.609196 C -143.38446 -51.116796 -146.49044 -60.533119 -146.49044 -72.858118 C -146.49044 -88.338317 -141.70822 -101.5017 -132.14403 -112.3477 C -122.48123 -123.2923 -108.52918 -131.32807 -90.288182 -136.45527 z M -29.945096 -136.30748 C -19.592096 -136.30748 -11.359028 -134.08907 -5.2458279 -129.65207 C 0.86737181 -125.21507 3.924155 -119.2496 3.924155 -111.756 C 3.924155 -107.7134 2.4452164 -103.67066 -0.51278351 -99.62806 C -3.4707834 -95.58546 -7.365425 -92.282704 -12.196825 -89.719104 C -6.0836251 -86.761104 -1.3019303 -83.309731 2.1490695 -79.365731 C 5.6986694 -75.421731 7.4738091 -70.343835 7.4738091 -64.132036 C 7.4738091 -55.159436 4.2197308 -48.011233 -2.287869 -42.686833 C -8.7954687 -37.461033 -17.570711 -34.848035 -28.613911 -34.848035 C -40.74171 -34.848035 -50.108838 -37.263738 -56.715038 -42.095138 C -63.222637 -46.926538 -66.476199 -53.828251 -66.476199 -62.800851 C -66.476199 -67.435051 -64.99726 -72.019967 -62.039261 -76.555567 C -59.081261 -81.189767 -54.940129 -85.281703 -49.615729 -88.831303 C -54.052729 -91.296303 -57.503586 -94.254697 -59.968586 -97.705697 C -62.433586 -101.1567 -63.666035 -105.44541 -63.666035 -110.57261 C -63.666035 -118.46061 -60.609768 -124.72176 -54.496569 -129.35596 C -48.383369 -133.99016 -40.199495 -136.30748 -29.945096 -136.30748 z M -29.945096 -125.80631 C -33.889095 -125.80631 -36.995073 -124.52466 -39.262873 -121.96106 C -41.530673 -119.49606 -42.664216 -116.1436 -42.664216 -111.9038 C -42.664216 -108.157 -41.234989 -105.05102 -38.375589 -102.58602 C -35.417589 -100.21962 -31.128357 -97.853628 -25.508157 -95.487228 C -23.043157 -97.163428 -21.071239 -99.480225 -19.592239 -102.43822 C -18.113239 -105.39622 -17.37377 -108.5514 -17.37377 -111.9038 C -17.37377 -116.1436 -18.556507 -119.49606 -20.922907 -121.96106 C -23.190707 -124.52466 -26.198296 -125.80631 -29.945096 -125.80631 z M -110.55051 -83.211491 C -114.69171 -83.211491 -119.17824 -81.535257 -124.00964 -78.182858 L -124.00964 -76.259978 C -124.00964 -65.512578 -122.82638 -57.624389 -120.45998 -52.595789 C -118.09358 -47.567189 -114.34653 -45.053097 -109.21933 -45.053097 C -104.97953 -45.053097 -101.72597 -46.680136 -99.458165 -49.933936 C -97.190365 -53.187736 -96.056306 -57.821847 -96.056306 -63.836446 C -96.056306 -69.949646 -97.337949 -74.682146 -99.901549 -78.034546 C -102.36655 -81.485546 -105.91631 -83.211491 -110.55051 -83.211491 z M -36.008808 -82.767591 C -38.966808 -80.401191 -41.136021 -77.689803 -42.516421 -74.633203 C -43.896821 -71.576604 -44.587096 -67.928452 -44.587096 -63.688652 C -44.587096 -57.871252 -43.157352 -53.286336 -40.297952 -49.933936 C -37.438552 -46.680136 -33.54391 -45.053097 -28.613911 -45.053097 C -23.782511 -45.053097 -20.03597 -46.680136 -17.37377 -49.933936 C -14.61297 -53.187736 -13.232421 -57.722941 -13.232421 -63.540341 C -13.232421 -66.79414 -14.267574 -69.555239 -16.338174 -71.823039 C -18.310174 -74.189439 -20.824783 -76.112163 -23.881383 -77.591162 C -26.937983 -79.168762 -30.980208 -80.894191 -36.008808 -82.767591 z " /></g></svg>
