<?xml version="1.0" encoding="UTF-8" standalone="no"?>
<!-- Created with Inkscape (http://www.inkscape.org/) -->

<svg
   width="172.6701mm"
   height="172.6701mm"
   viewBox="0 0 172.6701 172.6701"
   version="1.1"
   id="svg1"
   xml:space="preserve"
   xmlns="http://www.w3.org/2000/svg"
   xmlns:svg="http://www.w3.org/2000/svg"><defs
     id="defs1" /><g
     id="layer1"
     transform="translate(157.25102,198.81012)"><path
       id="path5"
       style="fill:#ffffff;fill-opacity:1;stroke-width:0.805188;stroke-linecap:round;stroke-linejoin:round"
       d="M -2.0863309 -198.17657 L -10.088943 -183.11289 L -10.930235 -165.68398 L -19.198981 -165.68398 L -11.423229 -155.47426 L -12.166336 -140.07934 C -28.353216 -157.12094 -50.823548 -166.77435 -74.327399 -166.78417 C -103.64471 -166.77397 -130.92652 -151.79225 -146.66717 -127.05894 L -157.25102 -127.05894 L -149.61996 -115.86014 L -157.25102 -26.140039 L -8.5138455 -26.140039 L 15.419061 -26.140039 L 8.0799737 -154.80195 L 15.419061 -165.68398 L 7.4593397 -165.68398 L 6.4490654 -183.39297 L -2.0863309 -198.17657 z M -83.43072 -192.21621 C -85.584619 -189.65499 -86.77489 -186.4211 -86.795372 -183.07465 C -86.842092 -175.15518 -80.459903 -168.69733 -72.540428 -168.65072 C -64.621155 -168.60402 -58.163395 -174.98588 -58.116503 -182.90515 C -58.102813 -186.26049 -59.266203 -189.5144 -61.404157 -192.10045 C -60.83125 -190.6836 -60.536835 -189.16959 -60.537027 -187.64129 C -60.575787 -181.07411 -65.930869 -175.78172 -72.498054 -175.82031 C -79.065241 -175.85911 -84.357627 -181.21415 -84.319038 -187.78134 C -84.309338 -189.30285 -84.007827 -190.80837 -83.43072 -192.21621 z M -88.661408 -136.45527 L -85.111754 -129.06037 C -105.02895 -120.48217 -117.00908 -107.2696 -121.05168 -89.422998 C -115.33288 -92.183798 -109.90959 -93.564348 -104.78239 -93.564348 C -94.922388 -93.564348 -87.1823 -90.902155 -81.5621 -85.577755 C -75.8433 -80.253355 -72.983812 -73.055441 -72.983812 -63.984241 C -72.983812 -58.364041 -74.512462 -53.33534 -77.569062 -48.89834 C -80.527062 -44.46134 -84.717388 -41.010484 -90.140388 -38.545484 C -95.464787 -36.080484 -101.57784 -34.848035 -108.47984 -34.848035 C -120.21324 -34.848035 -129.23549 -38.101597 -135.54588 -44.609196 C -141.75768 -51.116796 -144.86366 -60.533119 -144.86366 -72.858118 C -144.86366 -88.338317 -140.08145 -101.5017 -130.51725 -112.3477 C -120.85445 -123.2923 -106.90241 -131.32807 -88.661408 -136.45527 z M -30.240685 -135.86357 C -18.507285 -135.86357 -9.5347476 -132.61001 -3.3229479 -126.10241 C 2.9874518 -119.59481 6.1426242 -110.17849 6.1426242 -97.853492 C 6.1426242 -82.373292 1.3112181 -69.160717 -8.3515815 -58.216118 C -17.915781 -47.370118 -31.818631 -39.38354 -50.05963 -34.25634 L -53.609284 -41.651237 C -43.749285 -45.891037 -35.811901 -51.314329 -29.797301 -57.920529 C -23.782701 -64.625328 -19.789154 -72.414612 -17.817154 -81.288611 C -23.338753 -78.527811 -28.71285 -77.147262 -33.93865 -77.147262 C -43.79865 -77.147262 -51.587933 -79.809455 -57.306733 -85.133855 C -62.926933 -90.458254 -65.736709 -97.656169 -65.736709 -106.72737 C -65.736709 -112.34757 -64.257771 -117.37627 -61.299771 -121.81327 C -58.243171 -126.25027 -54.052845 -129.70113 -48.728445 -132.16613 C -43.305445 -134.63113 -37.142684 -135.86357 -30.240685 -135.86357 z M -31.128486 -125.65851 C -35.368286 -125.65851 -38.621847 -124.03147 -40.889647 -120.77767 C -43.157447 -117.52387 -44.291507 -112.88976 -44.291507 -106.87516 C -44.291507 -100.76196 -43.059058 -95.979752 -40.594058 -92.528752 C -38.030458 -89.176352 -34.431501 -87.500118 -29.797301 -87.500118 C -25.754701 -87.500118 -21.268174 -89.176352 -16.338174 -92.528752 L -16.338174 -94.451632 C -16.338174 -105.19903 -17.521428 -113.08722 -19.887828 -118.11582 C -22.254228 -123.14442 -26.001286 -125.65851 -31.128486 -125.65851 z M -108.92374 -83.211491 C -113.06494 -83.211491 -117.55146 -81.535257 -122.38286 -78.182858 L -122.38286 -76.259978 C -122.38286 -65.512578 -121.19961 -57.624389 -118.83321 -52.595789 C -116.46681 -47.567189 -112.71975 -45.053097 -107.59255 -45.053097 C -103.35275 -45.053097 -100.09919 -46.680136 -97.831391 -49.933936 C -95.563591 -53.187736 -94.429532 -57.821847 -94.429532 -63.836446 C -94.429532 -69.949646 -95.711175 -74.682146 -98.274775 -78.034546 C -100.73977 -81.485546 -104.28954 -83.211491 -108.92374 -83.211491 z " /></g></svg>
