<?xml version="1.0" encoding="UTF-8" standalone="no"?>
<!-- Created with Inkscape (http://www.inkscape.org/) -->

<svg
   width="172.6701mm"
   height="172.6701mm"
   viewBox="0 0 172.6701 172.6701"
   version="1.1"
   id="svg1"
   xml:space="preserve"
   xmlns="http://www.w3.org/2000/svg"
   xmlns:svg="http://www.w3.org/2000/svg"><defs
     id="defs1" /><g
     id="layer1"
     transform="translate(157.25102,198.81012)"><path
       id="path5"
       style="fill:#ffffff;fill-opacity:1;stroke-width:0.805188;stroke-linecap:round;stroke-linejoin:round"
       d="M -2.0863309 -198.17657 L -10.088943 -183.11289 L -10.930235 -165.68398 L -19.198981 -165.68398 L -11.423229 -155.47426 L -12.166336 -140.07934 C -28.353216 -157.12094 -50.823548 -166.77435 -74.327399 -166.78417 C -103.64471 -166.77397 -130.92652 -151.79225 -146.66717 -127.05894 L -157.25102 -127.05894 L -149.61996 -115.86014 L -157.25102 -26.140039 L -8.5138455 -26.140039 L 15.419061 -26.140039 L 8.0799737 -154.80195 L 15.419061 -165.68398 L 7.4593397 -165.68398 L 6.4490654 -183.39297 L -2.0863309 -198.17657 z M -83.43072 -192.21621 C -85.584619 -189.65499 -86.77489 -186.4211 -86.795372 -183.07465 C -86.842092 -175.15518 -80.459903 -168.69733 -72.540428 -168.65072 C -64.621155 -168.60402 -58.163395 -174.98588 -58.116503 -182.90515 C -58.102813 -186.26049 -59.266203 -189.5144 -61.404157 -192.10045 C -60.83125 -190.6836 -60.536835 -189.16959 -60.537027 -187.64129 C -60.575787 -181.07411 -65.930869 -175.78172 -72.498054 -175.82031 C -79.065241 -175.85911 -84.357627 -181.21415 -84.319038 -187.78134 C -84.309338 -189.30285 -84.007827 -190.80837 -83.43072 -192.21621 z M -68.558242 -146.76213 L -64.742455 -138.81275 C -86.151896 -129.59185 -99.029241 -115.38975 -103.37472 -96.206047 C -97.227457 -99.173692 -91.398242 -100.65745 -85.886901 -100.65745 C -75.288167 -100.65745 -66.968462 -97.795765 -60.927184 -92.072449 C -54.779918 -86.349133 -51.706041 -78.612298 -51.706041 -68.861463 C -51.706041 -62.820185 -53.348815 -57.414828 -56.634423 -52.645398 C -59.814043 -47.875968 -64.318506 -44.166045 -70.14781 -41.516362 C -75.871126 -38.866678 -82.442221 -37.541927 -89.861335 -37.541927 C -102.47383 -37.541927 -112.17198 -41.039663 -118.95517 -48.034827 C -125.63237 -55.029991 -128.97058 -65.151999 -128.97058 -78.400415 C -128.97058 -95.040427 -123.83058 -109.18935 -113.54981 -120.84795 C -103.16305 -132.61255 -88.1659 -141.25079 -68.558242 -146.76213 z M -23.72532 -111.94514 C -20.015763 -111.94514 -17.259909 -110.83257 -15.458124 -108.60684 C -13.550352 -106.48709 -12.5968 -103.51905 -12.5968 -99.703508 C -12.5968 -95.887964 -13.550352 -92.920439 -15.458124 -90.800692 C -17.259909 -88.680945 -20.015763 -87.621041 -23.72532 -87.621041 C -27.434877 -87.621041 -30.24339 -88.680945 -32.151162 -90.800692 C -33.952947 -93.026426 -34.85384 -95.993951 -34.85384 -99.703508 C -34.85384 -103.62504 -33.952947 -106.64574 -32.151162 -108.76549 C -30.24339 -110.88523 -27.434877 -111.94514 -23.72532 -111.94514 z M -90.338308 -89.528935 C -94.789776 -89.528935 -99.612263 -87.72715 -104.80564 -84.12358 L -104.80564 -82.056523 C -104.80564 -70.503903 -103.53407 -62.025187 -100.99037 -56.619833 C -98.446675 -51.214479 -94.418729 -48.511801 -88.907388 -48.511801 C -84.349933 -48.511801 -80.852714 -50.26041 -78.415005 -53.757992 C -75.977296 -57.255574 -74.758381 -62.237072 -74.758381 -68.702299 C -74.758381 -75.273514 -76.136308 -80.360847 -78.891979 -83.964417 C -81.541662 -87.673974 -85.356904 -89.528935 -90.338308 -89.528935 z M -23.72532 -61.866024 C -20.015763 -61.866024 -17.259909 -60.753461 -15.458124 -58.527727 C -13.550352 -56.40798 -12.5968 -53.439938 -12.5968 -49.624394 C -12.5968 -45.80885 -13.550352 -42.841325 -15.458124 -40.721578 C -17.259909 -38.601832 -20.015763 -37.541927 -23.72532 -37.541927 C -27.434877 -37.541927 -30.24339 -38.601832 -32.151162 -40.721578 C -33.952947 -42.947312 -34.85384 -45.914837 -34.85384 -49.624394 C -34.85384 -53.545925 -33.952947 -56.566627 -32.151162 -58.686373 C -30.24339 -60.80612 -27.434877 -61.866024 -23.72532 -61.866024 z " /></g></svg>
