<?xml version="1.0" encoding="UTF-8" standalone="no"?>
<!-- Created with Inkscape (http://www.inkscape.org/) -->

<svg
   width="172.6701mm"
   height="172.6701mm"
   viewBox="0 0 172.6701 172.6701"
   version="1.1"
   id="svg1"
   xml:space="preserve"
   xmlns="http://www.w3.org/2000/svg"
   xmlns:svg="http://www.w3.org/2000/svg"><defs
     id="defs1" /><g
     id="layer1"
     transform="translate(157.25102,198.81012)"><path
       id="path5"
       style="fill:#ffffff;fill-opacity:1;stroke-width:0.805188;stroke-linecap:round;stroke-linejoin:round"
       d="M -2.0863309 -198.17657 L -10.088943 -183.11289 L -10.930235 -165.68398 L -19.198981 -165.68398 L -11.423229 -155.47426 L -12.166336 -140.07934 C -28.353216 -157.12094 -50.823548 -166.77435 -74.327399 -166.78417 C -103.64471 -166.77397 -130.92652 -151.79225 -146.66717 -127.05894 L -157.25102 -127.05894 L -149.61996 -115.86014 L -157.25102 -26.140039 L -8.5138455 -26.140039 L 15.419061 -26.140039 L 8.0799737 -154.80195 L 15.419061 -165.68398 L 7.4593397 -165.68398 L 6.4490654 -183.39297 L -2.0863309 -198.17657 z M -83.43072 -192.21621 C -85.584619 -189.65499 -86.77489 -186.4211 -86.795372 -183.07465 C -86.842092 -175.15518 -80.459903 -168.69733 -72.540428 -168.65072 C -64.621155 -168.60402 -58.163395 -174.98588 -58.116503 -182.90515 C -58.102813 -186.26049 -59.266203 -189.5144 -61.404157 -192.10045 C -60.83125 -190.6836 -60.536835 -189.16959 -60.537027 -187.64129 C -60.575787 -181.07411 -65.930869 -175.78172 -72.498054 -175.82031 C -79.065241 -175.85911 -84.357627 -181.21415 -84.319038 -187.78134 C -84.309338 -189.30285 -84.007827 -190.80837 -83.43072 -192.21621 z M -111.79901 -119.90383 L -109.75831 -115.65241 C -121.20883 -110.72075 -128.09598 -103.12528 -130.4201 -92.865166 C -127.13233 -94.452366 -124.01484 -95.245899 -121.06718 -95.245899 C -115.39861 -95.245899 -110.9487 -93.715477 -107.71761 -90.654448 C -104.42984 -87.593418 -102.78613 -83.455306 -102.78613 -78.240218 C -102.78613 -75.009132 -103.66488 -72.118221 -105.42214 -69.567363 C -107.12271 -67.016505 -109.53138 -65.032415 -112.64909 -63.615271 C -115.71012 -62.198128 -119.22463 -61.489303 -123.19263 -61.489303 C -129.93824 -61.489303 -135.12504 -63.360105 -138.75292 -67.101363 C -142.32413 -70.842622 -144.1097 -76.255999 -144.1097 -83.341716 C -144.1097 -92.241376 -141.36066 -99.808775 -135.86214 -106.04421 C -130.30694 -112.33632 -122.28587 -116.95617 -111.79901 -119.90383 z M -53.979287 -119.64906 C -47.347056 -119.64906 -42.27406 -117.15466 -38.759545 -112.16631 C -35.188343 -107.23465 -33.402766 -100.06428 -33.402766 -90.654448 C -33.402766 -81.244616 -35.188343 -74.017081 -38.759545 -68.97205 C -42.27406 -63.983706 -47.347056 -61.489303 -53.979287 -61.489303 C -60.611518 -61.489303 -65.713612 -63.983706 -69.284813 -68.97205 C -72.856014 -74.017081 -74.641592 -81.244616 -74.641592 -90.654448 C -74.641592 -100.00759 -72.856014 -107.17797 -69.284813 -112.16631 C -65.713612 -117.15466 -60.611518 -119.64906 -53.979287 -119.64906 z M -7.8937283 -119.13901 L -5.0882148 -117.86364 L -5.0882148 -68.716769 C -4.0111859 -68.093226 -2.3103158 -67.526269 0.013799336 -67.016097 C 2.3379145 -66.562611 4.1801361 -66.279392 5.5405938 -66.16602 L 5.2853122 -62.084615 L -29.40611 -62.084615 L -29.236095 -66.16602 C -24.191064 -66.732877 -20.336689 -67.583054 -17.67246 -68.716769 L -17.67246 -109.44555 L -29.066079 -109.44555 L -29.066079 -114.37703 C -25.438192 -114.66046 -21.697105 -115.19935 -17.842475 -115.99295 C -13.987845 -116.84324 -10.671329 -117.89193 -7.8937283 -119.13901 z M -53.979287 -115.31237 C -56.87026 -115.31237 -58.967638 -113.41351 -60.27141 -109.61556 C -61.518496 -105.81762 -62.142097 -99.497422 -62.142097 -90.654448 C -62.142097 -81.868159 -61.518496 -75.576025 -60.27141 -71.778081 C -58.967638 -68.036822 -56.87026 -66.16602 -53.979287 -66.16602 C -51.088315 -66.16602 -49.019517 -68.036822 -47.772431 -71.778081 C -46.468659 -75.576025 -45.816995 -81.868159 -45.816995 -90.654448 C -45.816995 -99.440737 -46.468659 -105.73287 -47.772431 -109.53081 C -49.019517 -113.38544 -51.088315 -115.31237 -53.979287 -115.31237 z M -87.821149 -101.28274 C -85.837149 -101.28274 -84.363371 -100.68772 -83.399714 -99.497319 C -82.379371 -98.363604 -81.869058 -96.776539 -81.869058 -94.735852 C -81.869058 -92.695166 -82.379371 -91.107584 -83.399714 -89.973869 C -84.363371 -88.840154 -85.837149 -88.273198 -87.821149 -88.273198 C -89.80515 -88.273198 -91.306991 -88.840154 -92.327334 -89.973869 C -93.290992 -91.16427 -93.772724 -92.751852 -93.772724 -94.735852 C -93.772724 -96.833225 -93.290992 -98.448354 -92.327334 -99.582068 C -91.306991 -100.71578 -89.80515 -101.28274 -87.821149 -101.28274 z M -123.44792 -89.293807 C -125.82872 -89.293807 -128.40783 -88.330343 -131.18543 -86.403028 L -131.18543 -85.297669 C -131.18543 -79.118924 -130.50518 -74.583787 -129.14473 -71.692814 C -127.78427 -68.801842 -125.63025 -67.356645 -122.68259 -67.356645 C -120.2451 -67.356645 -118.37482 -68.291529 -117.07104 -70.162159 C -115.76727 -72.032788 -115.11509 -74.697123 -115.11509 -78.154952 C -115.11509 -81.669468 -115.85198 -84.390447 -117.32581 -86.317762 C -118.74295 -88.301762 -120.78369 -89.293807 -123.44792 -89.293807 z M -87.821149 -74.498845 C -85.837149 -74.498845 -84.363371 -73.903824 -83.399714 -72.713424 C -82.379371 -71.579709 -81.869058 -69.992127 -81.869058 -67.951441 C -81.869058 -65.910754 -82.379371 -64.323689 -83.399714 -63.189974 C -84.363371 -62.05626 -85.837149 -61.489303 -87.821149 -61.489303 C -89.80515 -61.489303 -91.306991 -62.05626 -92.327334 -63.189974 C -93.290992 -64.380375 -93.772724 -65.96744 -93.772724 -67.951441 C -93.772724 -70.048813 -93.290992 -71.664459 -92.327334 -72.798173 C -91.306991 -73.931888 -89.80515 -74.498845 -87.821149 -74.498845 z " /></g></svg>
