<?xml version="1.0" encoding="UTF-8" standalone="no"?>
<!-- Created with Inkscape (http://www.inkscape.org/) -->

<svg
   width="172.6701mm"
   height="172.6701mm"
   viewBox="0 0 172.6701 172.6701"
   version="1.1"
   id="svg1"
   xml:space="preserve"
   xmlns="http://www.w3.org/2000/svg"
   xmlns:svg="http://www.w3.org/2000/svg"><defs
     id="defs1" /><g
     id="layer1"
     transform="translate(157.25102,198.81012)"><path
       id="path5"
       style="fill:#ffffff;fill-opacity:1;stroke-width:0.805188;stroke-linecap:round;stroke-linejoin:round"
       d="M -2.0863309 -198.17657 L -10.088943 -183.11289 L -10.930235 -165.68398 L -19.198981 -165.68398 L -11.423229 -155.47426 L -12.166336 -140.07934 C -28.353216 -157.12094 -50.823548 -166.77435 -74.327399 -166.78417 C -103.64471 -166.77397 -130.92652 -151.79225 -146.66717 -127.05894 L -157.25102 -127.05894 L -149.61996 -115.86014 L -157.25102 -26.140039 L -8.5138455 -26.140039 L 15.419061 -26.140039 L 8.0799737 -154.80195 L 15.419061 -165.68398 L 7.4593397 -165.68398 L 6.4490654 -183.39297 L -2.0863309 -198.17657 z M -83.43072 -192.21621 C -85.584619 -189.65499 -86.77489 -186.4211 -86.795372 -183.07465 C -86.842092 -175.15518 -80.459903 -168.69733 -72.540428 -168.65072 C -64.621155 -168.60402 -58.163395 -174.98588 -58.116503 -182.90515 C -58.102813 -186.26049 -59.266203 -189.5144 -61.404157 -192.10045 C -60.83125 -190.6836 -60.536835 -189.16959 -60.537027 -187.64129 C -60.575787 -181.07411 -65.930869 -175.78172 -72.498054 -175.82031 C -79.065241 -175.85911 -84.357627 -181.21415 -84.319038 -187.78134 C -84.309338 -189.30285 -84.007827 -190.80837 -83.43072 -192.21621 z M -113.92447 -119.90383 L -111.88428 -115.65241 C -123.3348 -110.72075 -130.22195 -103.12528 -132.54607 -92.865166 C -129.2583 -94.452366 -126.14029 -95.245899 -123.19263 -95.245899 C -117.52406 -95.245899 -113.07466 -93.715477 -109.84358 -90.654448 C -106.55581 -87.593418 -104.91158 -83.455306 -104.91158 -78.240218 C -104.91158 -75.009132 -105.79034 -72.118221 -107.54759 -69.567363 C -109.24817 -67.016505 -111.65734 -65.032415 -114.77506 -63.615271 C -117.83609 -62.198128 -121.3506 -61.489303 -125.3186 -61.489303 C -132.0642 -61.489303 -137.25101 -63.360105 -140.87889 -67.101363 C -144.45009 -70.842622 -146.23567 -76.255999 -146.23567 -83.341716 C -146.23567 -92.241376 -143.48611 -99.808775 -137.9876 -106.04421 C -132.43239 -112.33632 -124.41133 -116.95617 -113.92447 -119.90383 z M -12.910476 -119.73381 C -9.2259036 -119.73381 -5.9665486 -119.11073 -3.1322619 -117.86364 C -0.29797511 -116.67324 1.9126909 -114.97237 3.4998915 -112.76163 C 5.087092 -110.60757 5.8806247 -108.11368 5.8806247 -105.27939 C 5.8806247 -102.10499 4.9452237 -99.384015 3.0745944 -97.116586 C 1.2039652 -94.849156 -1.5736575 -93.120223 -5.2582303 -91.929822 C -0.61000001 -90.909479 2.6498717 -89.237189 4.520501 -86.913074 C 6.3911303 -84.588959 7.3260145 -81.442892 7.3260145 -77.474891 C 7.3260145 -74.017061 6.2773255 -71.069506 4.1799533 -68.632019 C 2.1392668 -66.194533 -0.52455108 -64.380375 -3.8123237 -63.189974 C -7.1000963 -61.999574 -10.50132 -61.404554 -14.015835 -61.404554 C -19.117551 -61.404554 -23.454176 -62.453243 -27.025377 -64.550615 C -30.539893 -66.647987 -32.29689 -69.510317 -32.29689 -73.138204 C -32.29689 -75.235577 -31.673806 -76.851222 -30.42672 -77.984937 C -29.179634 -79.175337 -27.620632 -79.770358 -25.750003 -79.770358 C -23.822688 -79.770358 -21.867178 -79.005405 -19.883177 -77.474891 C -20.393349 -76.397862 -20.647989 -75.094016 -20.647989 -73.563501 C -20.647989 -71.749558 -20.109612 -70.275781 -19.032583 -69.142066 C -17.898869 -68.008351 -16.226579 -67.441394 -14.015835 -67.441394 C -9.1408621 -67.441394 -6.7036201 -70.814037 -6.7036201 -77.55964 C -6.7036201 -81.244213 -7.8936607 -84.10706 -10.274462 -86.147746 C -12.598577 -88.188433 -15.915092 -89.208541 -20.223208 -89.208541 L -20.223208 -94.480571 C -11.890405 -95.1608 -7.7237129 -98.760535 -7.7237129 -105.27939 C -7.7237129 -108.56717 -8.2340256 -110.97583 -9.2543688 -112.50634 C -10.274712 -114.09354 -11.663265 -114.88759 -13.420523 -114.88759 C -15.517895 -114.88759 -17.105477 -114.15071 -18.182506 -112.67688 C -19.202849 -111.20305 -19.712645 -109.41747 -19.712645 -107.3201 C -19.712645 -105.44947 -19.316137 -103.77718 -18.522537 -102.30335 C -20.109738 -100.60278 -22.150472 -99.752084 -24.644644 -99.752084 C -26.912073 -99.752084 -28.669071 -100.43233 -29.916157 -101.79279 C -31.163243 -103.15324 -31.786844 -104.91076 -31.786844 -107.06482 C -31.786844 -109.8991 -30.823379 -112.25164 -28.896064 -114.12227 C -26.912063 -116.04958 -24.474305 -117.46671 -21.583332 -118.37369 C -18.635674 -119.28066 -15.744763 -119.73381 -12.910476 -119.73381 z M -56.105256 -119.64906 C -49.473025 -119.64906 -44.399512 -117.15466 -40.884996 -112.16631 C -37.313795 -107.23465 -35.528217 -100.06428 -35.528217 -90.654448 C -35.528217 -81.244616 -37.313795 -74.017081 -40.884996 -68.97205 C -44.399512 -63.983706 -49.473025 -61.489303 -56.105256 -61.489303 C -62.737487 -61.489303 -67.839063 -63.983706 -71.410265 -68.97205 C -74.981466 -74.017081 -76.767044 -81.244616 -76.767044 -90.654448 C -76.767044 -100.00759 -74.981466 -107.17797 -71.410265 -112.16631 C -67.839063 -117.15466 -62.737487 -119.64906 -56.105256 -119.64906 z M -56.105256 -115.31237 C -58.996228 -115.31237 -61.093606 -113.41351 -62.397378 -109.61556 C -63.644464 -105.81762 -64.268065 -99.497422 -64.268065 -90.654448 C -64.268065 -81.868159 -63.644464 -75.576025 -62.397378 -71.778081 C -61.093606 -68.036822 -58.996228 -66.16602 -56.105256 -66.16602 C -53.214283 -66.16602 -51.144969 -68.036822 -49.897883 -71.778081 C -48.594111 -75.576025 -47.942447 -81.868159 -47.942447 -90.654448 C -47.942447 -99.440737 -48.594111 -105.73287 -49.897883 -109.53081 C -51.144969 -113.38544 -53.214283 -115.31237 -56.105256 -115.31237 z M -89.946601 -101.28274 C -87.9626 -101.28274 -86.488823 -100.68772 -85.525166 -99.497319 C -84.504822 -98.363604 -83.99451 -96.776539 -83.99451 -94.735852 C -83.99451 -92.695166 -84.504822 -91.107584 -85.525166 -89.973869 C -86.488823 -88.840154 -87.9626 -88.273198 -89.946601 -88.273198 C -91.930602 -88.273198 -93.432959 -88.840154 -94.453303 -89.973869 C -95.41696 -91.16427 -95.898693 -92.751852 -95.898693 -94.735852 C -95.898693 -96.833225 -95.41696 -98.448354 -94.453303 -99.582068 C -93.432959 -100.71578 -91.930602 -101.28274 -89.946601 -101.28274 z M -125.57388 -89.293807 C -127.95468 -89.293807 -130.53379 -88.330343 -133.3114 -86.403028 L -133.3114 -85.297669 C -133.3114 -79.118924 -132.63115 -74.583787 -131.27069 -71.692814 C -129.91024 -68.801842 -127.75621 -67.356645 -124.80856 -67.356645 C -122.37107 -67.356645 -120.50027 -68.291529 -119.1965 -70.162159 C -117.89272 -72.032788 -117.24106 -74.697123 -117.24106 -78.154952 C -117.24106 -81.669468 -117.97795 -84.390447 -119.45178 -86.317762 C -120.86892 -88.301762 -122.90965 -89.293807 -125.57388 -89.293807 z M -89.946601 -74.498845 C -87.9626 -74.498845 -86.488823 -73.903824 -85.525166 -72.713424 C -84.504822 -71.579709 -83.99451 -69.992127 -83.99451 -67.951441 C -83.99451 -65.910754 -84.504822 -64.323689 -85.525166 -63.189974 C -86.488823 -62.05626 -87.9626 -61.489303 -89.946601 -61.489303 C -91.930602 -61.489303 -93.432959 -62.05626 -94.453303 -63.189974 C -95.41696 -64.380375 -95.898693 -65.96744 -95.898693 -67.951441 C -95.898693 -70.048813 -95.41696 -71.664459 -94.453303 -72.798173 C -93.432959 -73.931888 -91.930602 -74.498845 -89.946601 -74.498845 z " /></g></svg>
