<?xml version="1.0" encoding="UTF-8" standalone="no"?>
<!-- Created with Inkscape (http://www.inkscape.org/) -->

<svg
   width="172.6701mm"
   height="172.6701mm"
   viewBox="0 0 172.6701 172.6701"
   version="1.1"
   id="svg1"
   xml:space="preserve"
   xmlns="http://www.w3.org/2000/svg"
   xmlns:svg="http://www.w3.org/2000/svg"><defs
     id="defs1" /><g
     id="layer1"
     transform="translate(157.25102,198.81012)"><path
       id="path5"
       style="fill:#ffffff;fill-opacity:1;stroke-width:0.805188;stroke-linecap:round;stroke-linejoin:round"
       d="M -2.0863309 -198.17657 L -10.088943 -183.11289 L -10.930235 -165.68398 L -19.198981 -165.68398 L -11.423229 -155.47426 L -12.166336 -140.07934 C -28.353216 -157.12094 -50.823548 -166.77435 -74.327399 -166.78417 C -103.64471 -166.77397 -130.92652 -151.79225 -146.66717 -127.05894 L -157.25102 -127.05894 L -149.61996 -115.86014 L -157.25102 -26.140039 L -8.5138455 -26.140039 L 15.419061 -26.140039 L 8.0799737 -154.80195 L 15.419061 -165.68398 L 7.4593397 -165.68398 L 6.4490654 -183.39297 L -2.0863309 -198.17657 z M -83.43072 -192.21621 C -85.584619 -189.65499 -86.77489 -186.4211 -86.795372 -183.07465 C -86.842092 -175.15518 -80.459903 -168.69733 -72.540428 -168.65072 C -64.621155 -168.60402 -58.163395 -174.98588 -58.116503 -182.90515 C -58.102813 -186.26049 -59.266203 -189.5144 -61.404157 -192.10045 C -60.83125 -190.6836 -60.536835 -189.16959 -60.537027 -187.64129 C -60.575787 -181.07411 -65.930869 -175.78172 -72.498054 -175.82031 C -79.065241 -175.85911 -84.357627 -181.21415 -84.319038 -187.78134 C -84.309338 -189.30285 -84.007827 -190.80837 -83.43072 -192.21621 z M -115.96517 -119.90383 L -113.92498 -115.65241 C -125.3755 -110.72075 -132.26266 -103.12528 -134.58677 -92.865166 C -131.299 -94.452366 -128.18099 -95.245899 -125.23334 -95.245899 C -119.56476 -95.245899 -115.11537 -93.715477 -111.88428 -90.654448 C -108.59651 -87.593418 -106.95228 -83.455306 -106.95228 -78.240218 C -106.95228 -75.009132 -107.83104 -72.118221 -109.5883 -69.567363 C -111.28887 -67.016505 -113.69805 -65.032415 -116.81576 -63.615271 C -119.87679 -62.198128 -123.3913 -61.489303 -127.3593 -61.489303 C -134.10491 -61.489303 -139.29171 -63.360105 -142.9196 -67.101363 C -146.4908 -70.842622 -148.27637 -76.255999 -148.27637 -83.341716 C -148.27637 -92.241376 -145.52681 -99.808775 -140.0283 -106.04421 C -134.4731 -112.33632 -126.45203 -116.95617 -115.96517 -119.90383 z M -12.145148 -119.81908 C -6.1931462 -119.81908 -1.4600139 -118.54381 2.0545016 -115.99295 C 5.5690172 -113.44209 7.3260145 -110.01229 7.3260145 -105.70418 C 7.3260145 -103.38006 6.4758379 -101.05611 4.7752658 -98.731991 C 3.0746938 -96.407876 0.83544739 -94.50901 -1.9421536 -93.035181 C 1.5723619 -91.334609 4.321921 -89.350519 6.3059217 -87.08309 C 8.3466082 -84.81566 9.3667168 -81.896169 9.3667168 -78.324968 C 9.3667168 -73.166566 7.4964315 -69.057034 3.755173 -65.996005 C 0.013914519 -62.991661 -5.0315349 -61.489303 -11.380337 -61.489303 C -18.352683 -61.489303 -23.737479 -62.878373 -27.535423 -65.655974 C -31.276682 -68.433575 -33.147484 -72.401238 -33.147484 -77.55964 C -33.147484 -80.223869 -32.297307 -82.86014 -30.596735 -85.467684 C -28.896163 -88.131914 -26.515049 -90.483931 -23.454019 -92.524618 C -26.004877 -93.941761 -27.988967 -95.642631 -29.40611 -97.626632 C -30.823254 -99.610633 -31.532079 -102.07646 -31.532079 -105.02411 C -31.532079 -109.55897 -29.774565 -113.15871 -26.260049 -115.82294 C -22.745534 -118.48717 -18.040465 -119.81908 -12.145148 -119.81908 z M -58.145958 -119.64906 C -51.513727 -119.64906 -46.440214 -117.15466 -42.925699 -112.16631 C -39.354497 -107.23465 -37.56892 -100.06428 -37.56892 -90.654448 C -37.56892 -81.244616 -39.354497 -74.017081 -42.925699 -68.97205 C -46.440214 -63.983706 -51.513727 -61.489303 -58.145958 -61.489303 C -64.778189 -61.489303 -69.879766 -63.983706 -73.450967 -68.97205 C -77.022168 -74.017081 -78.807746 -81.244616 -78.807746 -90.654448 C -78.807746 -100.00759 -77.022168 -107.17797 -73.450967 -112.16631 C -69.879766 -117.15466 -64.778189 -119.64906 -58.145958 -119.64906 z M -58.145958 -115.31237 C -61.036931 -115.31237 -63.134309 -113.41351 -64.438081 -109.61556 C -65.685167 -105.81762 -66.308767 -99.497422 -66.308767 -90.654448 C -66.308767 -81.868159 -65.685167 -75.576025 -64.438081 -71.778081 C -63.134309 -68.036822 -61.036931 -66.16602 -58.145958 -66.16602 C -55.254986 -66.16602 -53.185671 -68.036822 -51.938585 -71.778081 C -50.634813 -75.576025 -49.983149 -81.868159 -49.983149 -90.654448 C -49.983149 -99.440737 -50.634813 -105.73287 -51.938585 -109.53081 C -53.185671 -113.38544 -55.254986 -115.31237 -58.145958 -115.31237 z M -12.145148 -113.78224 C -14.412578 -113.78224 -16.198155 -113.04535 -17.501927 -111.57152 C -18.805699 -110.15437 -19.45788 -108.22693 -19.45788 -105.78944 C -19.45788 -103.63538 -18.635767 -101.84981 -16.991881 -100.43266 C -15.291309 -99.072205 -12.825487 -97.711715 -9.5943997 -96.351258 C -8.1772563 -97.314915 -7.0438597 -98.646824 -6.1935737 -100.3474 C -5.3432877 -102.04797 -4.9176826 -103.86213 -4.9176826 -105.78944 C -4.9176826 -108.22693 -5.5979273 -110.15437 -6.9583849 -111.57152 C -8.2621568 -113.04535 -9.9910905 -113.78224 -12.145148 -113.78224 z M -91.987303 -101.28274 C -90.003303 -101.28274 -88.529525 -100.68772 -87.565868 -99.497319 C -86.545525 -98.363604 -86.035212 -96.776539 -86.035212 -94.735852 C -86.035212 -92.695166 -86.545525 -91.107584 -87.565868 -89.973869 C -88.529525 -88.840154 -90.003303 -88.273198 -91.987303 -88.273198 C -93.971304 -88.273198 -95.473662 -88.840154 -96.494005 -89.973869 C -97.457663 -91.16427 -97.939395 -92.751852 -97.939395 -94.735852 C -97.939395 -96.833225 -97.457663 -98.448354 -96.494005 -99.582068 C -95.473662 -100.71578 -93.971304 -101.28274 -91.987303 -101.28274 z M -127.61459 -89.293807 C -129.99539 -89.293807 -132.5745 -88.330343 -135.3521 -86.403028 L -135.3521 -85.297669 C -135.3521 -79.118924 -134.67185 -74.583787 -133.3114 -71.692814 C -131.95094 -68.801842 -129.79692 -67.356645 -126.84926 -67.356645 C -124.41177 -67.356645 -122.54097 -68.291529 -121.2372 -70.162159 C -119.93343 -72.032788 -119.28176 -74.697123 -119.28176 -78.154952 C -119.28176 -81.669468 -120.01865 -84.390447 -121.49248 -86.317762 C -122.90962 -88.301762 -124.95036 -89.293807 -127.61459 -89.293807 z M -15.631757 -89.038526 C -17.332329 -87.678068 -18.579014 -86.119583 -19.372614 -84.362325 C -20.166215 -82.605068 -20.563239 -80.50769 -20.563239 -78.070203 C -20.563239 -74.725745 -19.741126 -72.089474 -18.09724 -70.162159 C -16.453354 -68.291529 -14.214624 -67.356645 -11.380337 -67.356645 C -8.6027362 -67.356645 -6.4481974 -68.291529 -4.9176826 -70.162159 C -3.330482 -72.032788 -2.5369494 -74.640479 -2.5369494 -77.984937 C -2.5369494 -79.855566 -3.1324864 -81.442631 -4.3228869 -82.746403 C -5.4566016 -84.106861 -6.9017985 -85.212194 -8.6590563 -86.06248 C -10.416314 -86.969452 -12.740785 -87.961497 -15.631757 -89.038526 z M -91.987303 -74.498845 C -90.003303 -74.498845 -88.529525 -73.903824 -87.565868 -72.713424 C -86.545525 -71.579709 -86.035212 -69.992127 -86.035212 -67.951441 C -86.035212 -65.910754 -86.545525 -64.323689 -87.565868 -63.189974 C -88.529525 -62.05626 -90.003303 -61.489303 -91.987303 -61.489303 C -93.971304 -61.489303 -95.473662 -62.05626 -96.494005 -63.189974 C -97.457663 -64.380375 -97.939395 -65.96744 -97.939395 -67.951441 C -97.939395 -70.048813 -97.457663 -71.664459 -96.494005 -72.798173 C -95.473662 -73.931888 -93.971304 -74.498845 -91.987303 -74.498845 z " /></g></svg>
