<?xml version="1.0" encoding="UTF-8" standalone="no"?>
<!-- Created with Inkscape (http://www.inkscape.org/) -->

<svg
   width="172.6701mm"
   height="172.6701mm"
   viewBox="0 0 172.6701 172.6701"
   version="1.1"
   id="svg1"
   xml:space="preserve"
   xmlns="http://www.w3.org/2000/svg"
   xmlns:svg="http://www.w3.org/2000/svg"><defs
     id="defs1" /><g
     id="layer1"
     transform="translate(157.25102,198.81012)"><path
       id="path5"
       style="fill:#ffffff;fill-opacity:1;stroke-width:0.805188;stroke-linecap:round;stroke-linejoin:round"
       d="M -2.0863309 -198.17657 L -10.088943 -183.11289 L -10.930235 -165.68398 L -19.198981 -165.68398 L -11.423229 -155.47426 L -12.166336 -140.07934 C -28.353216 -157.12094 -50.823548 -166.77435 -74.327399 -166.78417 C -103.64471 -166.77397 -130.92652 -151.79225 -146.66717 -127.05894 L -157.25102 -127.05894 L -149.61996 -115.86014 L -157.25102 -26.140039 L -8.5138455 -26.140039 L 15.419061 -26.140039 L 8.0799737 -154.80195 L 15.419061 -165.68398 L 7.4593397 -165.68398 L 6.4490654 -183.39297 L -2.0863309 -198.17657 z M -83.43072 -192.21621 C -85.584619 -189.65499 -86.77489 -186.4211 -86.795372 -183.07465 C -86.842092 -175.15518 -80.459903 -168.69733 -72.540428 -168.65072 C -64.621155 -168.60402 -58.163395 -174.98588 -58.116503 -182.90515 C -58.102813 -186.26049 -59.266203 -189.5144 -61.404157 -192.10045 C -60.83125 -190.6836 -60.536835 -189.16959 -60.537027 -187.64129 C -60.575787 -181.07411 -65.930869 -175.78172 -72.498054 -175.82031 C -79.065241 -175.85911 -84.357627 -181.21415 -84.319038 -187.78134 C -84.309338 -189.30285 -84.007827 -190.80837 -83.43072 -192.21621 z M -110.73603 -119.90383 L -108.69533 -115.65241 C -120.14585 -110.72075 -127.03352 -103.12528 -129.35763 -92.865166 C -126.06986 -94.452366 -122.95186 -95.245899 -120.0042 -95.245899 C -114.33562 -95.245899 -109.88571 -93.715477 -106.65463 -90.654448 C -103.36685 -87.593418 -101.72314 -83.455306 -101.72314 -78.240218 C -101.72314 -75.009132 -102.6019 -72.118221 -104.35916 -69.567363 C -106.05973 -67.016505 -108.46891 -65.032415 -111.58662 -63.615271 C -114.64765 -62.198128 -118.16216 -61.489303 -122.13017 -61.489303 C -128.87577 -61.489303 -134.06205 -63.360105 -137.68994 -67.101363 C -141.26114 -70.842622 -143.04724 -76.255999 -143.04724 -83.341716 C -143.04724 -92.241376 -140.29768 -99.808775 -134.79916 -106.04421 C -129.24396 -112.33632 -121.22289 -116.95617 -110.73603 -119.90383 z M -16.099429 -119.73381 C -12.414856 -119.73381 -9.1549845 -119.11073 -6.3206977 -117.86364 C -3.486411 -116.67324 -1.275745 -114.97237 0.31145559 -112.76163 C 1.8986562 -110.60757 2.6921888 -108.11368 2.6921888 -105.27939 C 2.6921888 -102.10499 1.7567878 -99.384015 -0.11384145 -97.116586 C -1.9844707 -94.849156 -4.7620934 -93.120223 -8.4466662 -91.929822 C -3.7984359 -90.909479 -0.5390809 -89.237189 1.3315484 -86.913074 C 3.2021776 -84.588959 4.1375786 -81.442892 4.1375786 -77.474891 C 4.1375786 -74.017061 3.0888896 -71.069506 0.99151743 -68.632019 C -1.049169 -66.194533 -3.7135037 -64.380375 -7.0012763 -63.189974 C -10.289049 -61.999574 -13.690272 -61.404554 -17.204788 -61.404554 C -22.306504 -61.404554 -26.642612 -62.453243 -30.213813 -64.550615 C -33.728329 -66.647987 -35.485843 -69.510317 -35.485843 -73.138204 C -35.485843 -75.235577 -34.862242 -76.851222 -33.615156 -77.984937 C -32.36807 -79.175337 -30.809068 -79.770358 -28.938439 -79.770358 C -27.011124 -79.770358 -25.055614 -79.005405 -23.071613 -77.474891 C -23.581785 -76.397862 -23.836941 -75.094016 -23.836941 -73.563501 C -23.836941 -71.749558 -23.298048 -70.275781 -22.221019 -69.142066 C -21.087304 -68.008351 -19.415532 -67.441394 -17.204788 -67.441394 C -12.329815 -67.441394 -9.892056 -70.814037 -9.892056 -77.55964 C -9.892056 -81.244213 -11.082613 -84.10706 -13.463414 -86.147746 C -15.787529 -88.188433 -19.103528 -89.208541 -23.411644 -89.208541 L -23.411644 -94.480571 C -15.078841 -95.1608 -10.912666 -98.760535 -10.912666 -105.27939 C -10.912666 -108.56717 -11.422461 -110.97583 -12.442805 -112.50634 C -13.463148 -114.09354 -14.852218 -114.88759 -16.609475 -114.88759 C -18.706848 -114.88759 -20.293913 -114.15071 -21.370942 -112.67688 C -22.391285 -111.20305 -22.901598 -109.41747 -22.901598 -107.3201 C -22.901598 -105.44947 -22.504573 -103.77718 -21.710973 -102.30335 C -23.298173 -100.60278 -25.338907 -99.752084 -27.83308 -99.752084 C -30.100509 -99.752084 -31.858023 -100.43233 -33.105109 -101.79279 C -34.352196 -103.15324 -34.975796 -104.91076 -34.975796 -107.06482 C -34.975796 -109.8991 -34.011815 -112.25164 -32.0845 -114.12227 C -30.100499 -116.04958 -27.663257 -117.46671 -24.772285 -118.37369 C -21.824626 -119.28066 -18.933716 -119.73381 -16.099429 -119.73381 z M -52.151492 -119.13901 L -49.345462 -117.86364 L -49.345462 -68.716769 C -48.268433 -68.093226 -46.567563 -67.526269 -44.243448 -67.016097 C -41.919332 -66.562611 -40.077111 -66.279392 -38.716653 -66.16602 L -38.971935 -62.084615 L -73.663357 -62.084615 L -73.493342 -66.16602 C -68.448311 -66.732877 -64.593936 -67.583054 -61.929707 -68.716769 L -61.929707 -109.44555 L -73.323326 -109.44555 L -73.323326 -114.37703 C -69.695439 -114.66046 -65.954352 -115.19935 -62.099722 -115.99295 C -58.245092 -116.84324 -54.929093 -117.89193 -52.151492 -119.13901 z M -86.758165 -101.28274 C -84.774164 -101.28274 -83.300387 -100.68772 -82.33673 -99.497319 C -81.316386 -98.363604 -80.806074 -96.776539 -80.806074 -94.735852 C -80.806074 -92.695166 -81.316386 -91.107584 -82.33673 -89.973869 C -83.300387 -88.840154 -84.774164 -88.273198 -86.758165 -88.273198 C -88.742166 -88.273198 -90.244007 -88.840154 -91.26435 -89.973869 C -92.228008 -91.16427 -92.710257 -92.751852 -92.710257 -94.735852 C -92.710257 -96.833225 -92.228008 -98.448354 -91.26435 -99.582068 C -90.244007 -100.71578 -88.742166 -101.28274 -86.758165 -101.28274 z M -122.38493 -89.293807 C -124.76573 -89.293807 -127.34484 -88.330343 -130.12244 -86.403028 L -130.12244 -85.297669 C -130.12244 -79.118924 -129.4422 -74.583787 -128.08174 -71.692814 C -126.72128 -68.801842 -124.56726 -67.356645 -121.6196 -67.356645 C -119.18212 -67.356645 -117.31183 -68.291529 -116.00806 -70.162159 C -114.70429 -72.032788 -114.05211 -74.697123 -114.05211 -78.154952 C -114.05211 -81.669468 -114.789 -84.390447 -116.26282 -86.317762 C -117.67997 -88.301762 -119.7207 -89.293807 -122.38493 -89.293807 z M -86.758165 -74.498845 C -84.774164 -74.498845 -83.300387 -73.903824 -82.33673 -72.713424 C -81.316386 -71.579709 -80.806074 -69.992127 -80.806074 -67.951441 C -80.806074 -65.910754 -81.316386 -64.323689 -82.33673 -63.189974 C -83.300387 -62.05626 -84.774164 -61.489303 -86.758165 -61.489303 C -88.742166 -61.489303 -90.244007 -62.05626 -91.26435 -63.189974 C -92.228008 -64.380375 -92.710257 -65.96744 -92.710257 -67.951441 C -92.710257 -70.048813 -92.228008 -71.664459 -91.26435 -72.798173 C -90.244007 -73.931888 -88.742166 -74.498845 -86.758165 -74.498845 z " /></g></svg>
