<?xml version="1.0" encoding="UTF-8" standalone="no"?>
<!-- Created with Inkscape (http://www.inkscape.org/) -->

<svg
   width="172.6701mm"
   height="172.6701mm"
   viewBox="0 0 172.6701 172.6701"
   version="1.1"
   id="svg1"
   xml:space="preserve"
   xmlns="http://www.w3.org/2000/svg"
   xmlns:svg="http://www.w3.org/2000/svg"><defs
     id="defs1" /><g
     id="layer1"
     transform="translate(157.25102,198.81012)"><path
       id="path5"
       style="fill:#ffffff;fill-opacity:1;stroke-width:0.805188;stroke-linecap:round;stroke-linejoin:round"
       d="M -2.0863309 -198.17657 L -10.088943 -183.11289 L -10.930235 -165.68398 L -19.198981 -165.68398 L -11.423229 -155.47426 L -12.166336 -140.07934 C -28.353216 -157.12094 -50.823548 -166.77435 -74.327399 -166.78417 C -103.64471 -166.77397 -130.92652 -151.79225 -146.66717 -127.05894 L -157.25102 -127.05894 L -149.61996 -115.86014 L -157.25102 -26.140039 L -8.5138455 -26.140039 L 15.419061 -26.140039 L 8.0799737 -154.80195 L 15.419061 -165.68398 L 7.4593397 -165.68398 L 6.4490654 -183.39297 L -2.0863309 -198.17657 z M -83.43072 -192.21621 C -85.584619 -189.65499 -86.77489 -186.4211 -86.795372 -183.07465 C -86.842092 -175.15518 -80.459903 -168.69733 -72.540428 -168.65072 C -64.621155 -168.60402 -58.163395 -174.98588 -58.116503 -182.90515 C -58.102813 -186.26049 -59.266203 -189.5144 -61.404157 -192.10045 C -60.83125 -190.6836 -60.536835 -189.16959 -60.537027 -187.64129 C -60.575787 -181.07411 -65.930869 -175.78172 -72.498054 -175.82031 C -79.065241 -175.85911 -84.357627 -181.21415 -84.319038 -187.78134 C -84.309338 -189.30285 -84.007827 -190.80837 -83.43072 -192.21621 z M -110.14072 -119.90383 L -108.10001 -115.65241 C -119.55053 -110.72075 -126.4382 -103.12528 -128.76232 -92.865166 C -125.47455 -94.452366 -122.35654 -95.245899 -119.40889 -95.245899 C -113.74031 -95.245899 -109.2904 -93.715477 -106.05931 -90.654448 C -102.77154 -87.593418 -101.12783 -83.455306 -101.12783 -78.240218 C -101.12783 -75.009132 -102.00659 -72.118221 -103.76385 -69.567363 C -105.46442 -67.016505 -107.8736 -65.032415 -110.99131 -63.615271 C -114.05234 -62.198128 -117.56685 -61.489303 -121.53485 -61.489303 C -128.28046 -61.489303 -133.46726 -63.360105 -137.09514 -67.101363 C -140.66635 -70.842622 -142.45192 -76.255999 -142.45192 -83.341716 C -142.45192 -92.241376 -139.70236 -99.808775 -134.20385 -106.04421 C -128.64865 -112.33632 -120.62758 -116.95617 -110.14072 -119.90383 z M -51.55618 -119.13901 L -48.750149 -117.86364 L -48.750149 -68.716769 C -47.67312 -68.093226 -45.972767 -67.526269 -43.648652 -67.016097 C -41.324537 -66.562611 -39.482315 -66.279392 -38.121857 -66.16602 L -38.376622 -62.084615 L -73.068562 -62.084615 L -72.898546 -66.16602 C -67.853516 -66.732877 -63.998624 -67.583054 -61.334394 -68.716769 L -61.334394 -109.44555 L -72.728014 -109.44555 L -72.728014 -114.37703 C -69.100127 -114.66046 -65.359039 -115.19935 -61.504409 -115.99295 C -57.64978 -116.84324 -54.333781 -117.89193 -51.55618 -119.13901 z M -33.699905 -118.88373 L -29.533751 -118.88373 C -27.379693 -118.82705 -22.674624 -118.79847 -15.41885 -118.79847 C -7.8796476 -118.79847 -2.9765834 -118.82705 -0.70915395 -118.88373 L 3.3722507 -118.88373 L 5.0729221 -115.22762 C 3.9958931 -113.52705 1.9551591 -109.84261 -1.0491849 -104.17404 C -4.0535288 -98.505463 -6.8877955 -92.496548 -9.552025 -86.147746 C -12.216255 -79.798944 -13.548164 -74.838719 -13.548164 -71.267517 C -13.548164 -68.433231 -12.556119 -66.307789 -10.572118 -64.890646 C -12.499433 -62.566531 -14.965255 -61.404554 -17.969599 -61.404554 C -20.7472 -61.404554 -22.901739 -62.169506 -24.432254 -63.700021 C -25.962769 -65.230536 -26.727721 -67.356494 -26.727721 -70.077409 C -26.727721 -73.478553 -25.905608 -77.077772 -24.261721 -80.875717 C -22.617835 -84.730347 -19.670281 -89.945728 -15.41885 -96.521273 L -5.3853543 -111.9963 L -24.772285 -111.9963 C -25.565885 -109.44544 -26.047617 -106.44124 -26.217674 -102.98341 C -27.238018 -102.81335 -28.286707 -102.72813 -29.363736 -102.72813 C -30.49745 -102.72813 -31.602783 -102.81335 -32.679812 -102.98341 L -35.060546 -117.60836 L -33.699905 -118.88373 z M -86.162853 -101.28274 C -84.178852 -101.28274 -82.705075 -100.68772 -81.741417 -99.497319 C -80.721074 -98.363604 -80.210761 -96.776539 -80.210761 -94.735852 C -80.210761 -92.695166 -80.721074 -91.107584 -81.741417 -89.973869 C -82.705075 -88.840154 -84.178852 -88.273198 -86.162853 -88.273198 C -88.146853 -88.273198 -89.649211 -88.840154 -90.669554 -89.973869 C -91.633212 -91.16427 -92.114944 -92.751852 -92.114944 -94.735852 C -92.114944 -96.833225 -91.633212 -98.448354 -90.669554 -99.582068 C -89.649211 -100.71578 -88.146853 -101.28274 -86.162853 -101.28274 z M -121.78962 -89.293807 C -124.17042 -89.293807 -126.75005 -88.330343 -129.52765 -86.403028 L -129.52765 -85.297669 C -129.52765 -79.118924 -128.8474 -74.583787 -127.48695 -71.692814 C -126.12649 -68.801842 -123.97247 -67.356645 -121.02481 -67.356645 C -118.58732 -67.356645 -116.71652 -68.291529 -115.41275 -70.162159 C -114.10897 -72.032788 -113.45679 -74.697123 -113.45679 -78.154952 C -113.45679 -81.669468 -114.1942 -84.390447 -115.66803 -86.317762 C -117.08517 -88.301762 -119.12539 -89.293807 -121.78962 -89.293807 z M -86.162853 -74.498845 C -84.178852 -74.498845 -82.705075 -73.903824 -81.741417 -72.713424 C -80.721074 -71.579709 -80.210761 -69.992127 -80.210761 -67.951441 C -80.210761 -65.910754 -80.721074 -64.323689 -81.741417 -63.189974 C -82.705075 -62.05626 -84.178852 -61.489303 -86.162853 -61.489303 C -88.146853 -61.489303 -89.649211 -62.05626 -90.669554 -63.189974 C -91.633212 -64.380375 -92.114944 -65.96744 -92.114944 -67.951441 C -92.114944 -70.048813 -91.633212 -71.664459 -90.669554 -72.798173 C -89.649211 -73.931888 -88.146853 -74.498845 -86.162853 -74.498845 z " /></g></svg>
