<?xml version="1.0" encoding="UTF-8" standalone="no"?>
<!-- Created with Inkscape (http://www.inkscape.org/) -->

<svg
   width="172.6701mm"
   height="172.6701mm"
   viewBox="0 0 172.6701 172.6701"
   version="1.1"
   id="svg1"
   xml:space="preserve"
   xmlns="http://www.w3.org/2000/svg"
   xmlns:svg="http://www.w3.org/2000/svg"><defs
     id="defs1" /><g
     id="layer1"
     transform="translate(157.25102,198.81012)"><path
       id="path5"
       style="fill:#ffffff;fill-opacity:1;stroke-width:0.805188;stroke-linecap:round;stroke-linejoin:round"
       d="M -2.0863309 -198.17657 L -10.088943 -183.11289 L -10.930235 -165.68398 L -19.198981 -165.68398 L -11.423229 -155.47426 L -12.166336 -140.07934 C -28.353216 -157.12094 -50.823548 -166.77435 -74.327399 -166.78417 C -103.64471 -166.77397 -130.92652 -151.79225 -146.66717 -127.05894 L -157.25102 -127.05894 L -149.61996 -115.86014 L -157.25102 -26.140039 L -8.5138455 -26.140039 L 15.419061 -26.140039 L 8.0799737 -154.80195 L 15.419061 -165.68398 L 7.4593397 -165.68398 L 6.4490654 -183.39297 L -2.0863309 -198.17657 z M -83.43072 -192.21621 C -85.584619 -189.65499 -86.77489 -186.4211 -86.795372 -183.07465 C -86.842092 -175.15518 -80.459903 -168.69733 -72.540428 -168.65072 C -64.621155 -168.60402 -58.163395 -174.98588 -58.116503 -182.90515 C -58.102813 -186.26049 -59.266203 -189.5144 -61.404157 -192.10045 C -60.83125 -190.6836 -60.536835 -189.16959 -60.537027 -187.64129 C -60.575787 -181.07411 -65.930869 -175.78172 -72.498054 -175.82031 C -79.065241 -175.85911 -84.357627 -181.21415 -84.319038 -187.78134 C -84.309338 -189.30285 -84.007827 -190.80837 -83.43072 -192.21621 z M -112.77673 -119.90383 L -110.73603 -115.65241 C -122.18655 -110.72075 -129.07422 -103.12528 -131.39833 -92.865166 C -128.11056 -94.452366 -124.99256 -95.245899 -122.0449 -95.245899 C -116.37633 -95.245899 -111.92641 -93.715477 -108.69533 -90.654448 C -105.40755 -87.593418 -103.76385 -83.455306 -103.76385 -78.240218 C -103.76385 -75.009132 -104.6426 -72.118221 -106.39986 -69.567363 C -108.10043 -67.016505 -110.50961 -65.032415 -113.62733 -63.615271 C -116.68836 -62.198128 -120.20287 -61.489303 -124.17087 -61.489303 C -130.91647 -61.489303 -136.10276 -63.360105 -139.73064 -67.101363 C -143.30184 -70.842622 -145.08794 -76.255999 -145.08794 -83.341716 C -145.08794 -92.241376 -142.33838 -99.808775 -136.83986 -106.04421 C -131.28466 -112.33632 -123.26359 -116.95617 -112.77673 -119.90383 z M -15.334101 -119.81908 C -9.3820989 -119.81908 -4.6484498 -118.54381 -1.1339342 -115.99295 C 2.3805813 -113.44209 4.1375786 -110.01229 4.1375786 -105.70418 C 4.1375786 -103.38006 3.287402 -101.05611 1.5868299 -98.731991 C -0.11374212 -96.407876 -2.3529885 -94.50901 -5.1305895 -93.035181 C -1.6160739 -91.334609 1.1334851 -89.350519 3.1174859 -87.08309 C 5.1581723 -84.81566 6.1782809 -81.896169 6.1782809 -78.324968 C 6.1782809 -73.166566 4.3074789 -69.057034 0.5662204 -65.996005 C -3.1750381 -62.991661 -8.2199708 -61.489303 -14.568773 -61.489303 C -21.541119 -61.489303 -26.926432 -62.878373 -30.724376 -65.655974 C -34.465635 -68.433575 -36.33592 -72.401238 -36.33592 -77.55964 C -36.33592 -80.223869 -35.485743 -82.86014 -33.785171 -85.467684 C -32.084599 -88.131914 -29.704001 -90.483931 -26.642971 -92.524618 C -29.19383 -93.941761 -31.177403 -95.642631 -32.594546 -97.626632 C -34.01169 -99.610633 -34.720515 -102.07646 -34.720515 -105.02411 C -34.720515 -109.55897 -32.963001 -113.15871 -29.448485 -115.82294 C -25.933969 -118.48717 -21.229418 -119.81908 -15.334101 -119.81908 z M -54.192194 -119.13901 L -51.386164 -117.86364 L -51.386164 -68.716769 C -50.309135 -68.093226 -48.608265 -67.526269 -46.28415 -67.016097 C -43.960035 -66.562611 -42.117813 -66.279392 -40.757355 -66.16602 L -41.012637 -62.084615 L -75.70406 -62.084615 L -75.534044 -66.16602 C -70.489014 -66.732877 -66.634638 -67.583054 -63.970409 -68.716769 L -63.970409 -109.44555 L -75.364029 -109.44555 L -75.364029 -114.37703 C -71.736142 -114.66046 -67.995054 -115.19935 -64.140424 -115.99295 C -60.285794 -116.84324 -56.969795 -117.89193 -54.192194 -119.13901 z M -15.334101 -113.78224 C -17.60153 -113.78224 -19.387108 -113.04535 -20.69088 -111.57152 C -21.994652 -110.15437 -22.646316 -108.22693 -22.646316 -105.78944 C -22.646316 -103.63538 -21.82472 -101.84981 -20.180834 -100.43266 C -18.480262 -99.072205 -16.014439 -97.711715 -12.783352 -96.351258 C -11.366209 -97.314915 -10.232296 -98.646824 -9.3820096 -100.3474 C -8.5317236 -102.04797 -8.1066352 -103.86213 -8.1066352 -105.78944 C -8.1066352 -108.22693 -8.7868799 -110.15437 -10.147338 -111.57152 C -11.451109 -113.04535 -13.180043 -113.78224 -15.334101 -113.78224 z M -88.798867 -101.28274 C -86.814867 -101.28274 -85.341089 -100.68772 -84.377432 -99.497319 C -83.357089 -98.363604 -82.846776 -96.776539 -82.846776 -94.735852 C -82.846776 -92.695166 -83.357089 -91.107584 -84.377432 -89.973869 C -85.341089 -88.840154 -86.814867 -88.273198 -88.798867 -88.273198 C -90.782868 -88.273198 -92.284709 -88.840154 -93.305052 -89.973869 C -94.26871 -91.16427 -94.750959 -92.751852 -94.750959 -94.735852 C -94.750959 -96.833225 -94.26871 -98.448354 -93.305052 -99.582068 C -92.284709 -100.71578 -90.782868 -101.28274 -88.798867 -101.28274 z M -124.42563 -89.293807 C -126.80643 -89.293807 -129.38554 -88.330343 -132.16315 -86.403028 L -132.16315 -85.297669 C -132.16315 -79.118924 -131.4829 -74.583787 -130.12244 -71.692814 C -128.76199 -68.801842 -126.60796 -67.356645 -123.66031 -67.356645 C -121.22282 -67.356645 -119.35253 -68.291529 -118.04876 -70.162159 C -116.74499 -72.032788 -116.09281 -74.697123 -116.09281 -78.154952 C -116.09281 -81.669468 -116.8297 -84.390447 -118.30353 -86.317762 C -119.72067 -88.301762 -121.7614 -89.293807 -124.42563 -89.293807 z M -18.820193 -89.038526 C -20.520765 -87.678068 -21.767967 -86.119583 -22.561567 -84.362325 C -23.355167 -82.605068 -23.751675 -80.50769 -23.751675 -78.070203 C -23.751675 -74.725745 -22.930079 -72.089474 -21.286193 -70.162159 C -19.642306 -68.291529 -17.40306 -67.356645 -14.568773 -67.356645 C -11.791172 -67.356645 -9.6371501 -68.291529 -8.1066352 -70.162159 C -6.5194347 -72.032788 -5.725902 -74.640479 -5.725902 -77.984937 C -5.725902 -79.855566 -6.3209223 -81.442631 -7.5113227 -82.746403 C -8.6450374 -84.106861 -10.090751 -85.212194 -11.848009 -86.06248 C -13.605267 -86.969452 -15.929221 -87.961497 -18.820193 -89.038526 z M -88.798867 -74.498845 C -86.814867 -74.498845 -85.341089 -73.903824 -84.377432 -72.713424 C -83.357089 -71.579709 -82.846776 -69.992127 -82.846776 -67.951441 C -82.846776 -65.910754 -83.357089 -64.323689 -84.377432 -63.189974 C -85.341089 -62.05626 -86.814867 -61.489303 -88.798867 -61.489303 C -90.782868 -61.489303 -92.284709 -62.05626 -93.305052 -63.189974 C -94.26871 -64.380375 -94.750959 -65.96744 -94.750959 -67.951441 C -94.750959 -70.048813 -94.26871 -71.664459 -93.305052 -72.798173 C -92.284709 -73.931888 -90.782868 -74.498845 -88.798867 -74.498845 z " /></g></svg>
