<?xml version="1.0" encoding="UTF-8" standalone="no"?>
<!-- Created with Inkscape (http://www.inkscape.org/) -->

<svg
   width="172.6701mm"
   height="172.6701mm"
   viewBox="0 0 172.6701 172.6701"
   version="1.1"
   id="svg1"
   xml:space="preserve"
   xmlns="http://www.w3.org/2000/svg"
   xmlns:svg="http://www.w3.org/2000/svg"><defs
     id="defs1" /><g
     id="layer1"
     transform="translate(157.25102,198.81012)"><path
       id="path5"
       style="fill:#ffffff;fill-opacity:1;stroke-width:0.805188;stroke-linecap:round;stroke-linejoin:round"
       d="M -2.0863309 -198.17657 L -10.088943 -183.11289 L -10.930235 -165.68398 L -19.198981 -165.68398 L -11.423229 -155.47426 L -12.166336 -140.07934 C -28.353216 -157.12094 -50.823548 -166.77435 -74.327399 -166.78417 C -103.64471 -166.77397 -130.92652 -151.79225 -146.66717 -127.05894 L -157.25102 -127.05894 L -149.61996 -115.86014 L -157.25102 -26.140039 L -8.5138455 -26.140039 L 15.419061 -26.140039 L 8.0799737 -154.80195 L 15.419061 -165.68398 L 7.4593397 -165.68398 L 6.4490654 -183.39297 L -2.0863309 -198.17657 z M -83.43072 -192.21621 C -85.584619 -189.65499 -86.77489 -186.4211 -86.795372 -183.07465 C -86.842092 -175.15518 -80.459903 -168.69733 -72.540428 -168.65072 C -64.621155 -168.60402 -58.163395 -174.98588 -58.116503 -182.90515 C -58.102813 -186.26049 -59.266203 -189.5144 -61.404157 -192.10045 C -60.83125 -190.6836 -60.536835 -189.16959 -60.537027 -187.64129 C -60.575787 -181.07411 -65.930869 -175.78172 -72.498054 -175.82031 C -79.065241 -175.85911 -84.357627 -181.21415 -84.319038 -187.78134 C -84.309338 -189.30285 -84.007827 -190.80837 -83.43072 -192.21621 z M -113.88209 -119.90383 L -111.84139 -115.65241 C -123.29191 -110.72075 -130.17958 -103.12528 -132.50369 -92.865166 C -129.21592 -94.452366 -126.09792 -95.245899 -123.15026 -95.245899 C -117.48169 -95.245899 -113.03177 -93.715477 -109.80069 -90.654448 C -106.51291 -87.593418 -104.8692 -83.455306 -104.8692 -78.240218 C -104.8692 -75.009132 -105.74796 -72.118221 -107.50522 -69.567363 C -109.20579 -67.016505 -111.61497 -65.032415 -114.73269 -63.615271 C -117.79371 -62.198128 -121.30823 -61.489303 -125.27623 -61.489303 C -132.02183 -61.489303 -137.20863 -63.360105 -140.83652 -67.101363 C -144.40772 -70.842622 -146.1933 -76.255999 -146.1933 -83.341716 C -146.1933 -92.241376 -143.44374 -99.808775 -137.94522 -106.04421 C -132.39002 -112.33632 -124.36895 -116.95617 -113.88209 -119.90383 z M -57.848302 -119.73381 C -52.009671 -119.73381 -47.361246 -118.28861 -43.903417 -115.39764 C -40.445587 -112.56335 -38.716653 -108.56711 -38.716653 -103.40871 C -38.716653 -98.873849 -40.445587 -94.026912 -43.903417 -88.86851 C -47.361246 -83.766794 -53.05836 -77.616529 -60.994363 -70.41744 L -38.121857 -70.41744 L -38.121857 -62.084615 L -76.639403 -62.084615 L -76.639403 -67.016097 C -70.347286 -73.081471 -65.444222 -78.268272 -61.929707 -82.576388 C -58.415191 -86.884504 -55.892725 -90.852684 -54.36221 -94.480571 C -52.775009 -98.108458 -51.981477 -101.84955 -51.981477 -105.70418 C -51.981477 -111.82623 -54.022211 -114.88759 -58.103583 -114.88759 C -59.917527 -114.88759 -61.391304 -114.0369 -62.525019 -112.33633 C -63.658734 -110.69244 -64.22569 -108.65171 -64.22569 -106.21422 C -64.22569 -104.51365 -63.630153 -102.89852 -62.439753 -101.36801 C -63.40341 -100.46103 -64.508743 -99.752209 -65.75583 -99.242037 C -66.94623 -98.731866 -68.136787 -98.476709 -69.327188 -98.476709 C -71.367874 -98.476709 -73.068228 -99.10031 -74.428685 -100.3474 C -75.789143 -101.65117 -76.469388 -103.52197 -76.469388 -105.95946 C -76.469388 -108.567 -75.704435 -110.91953 -74.17392 -113.01691 C -72.643406 -115.11428 -70.489384 -116.75799 -67.711783 -117.94839 C -64.877496 -119.13879 -61.58956 -119.73381 -57.848302 -119.73381 z M -12.953368 -119.64906 C -6.3211368 -119.64906 -1.2476238 -117.15466 2.2668918 -112.16631 C 5.8380931 -107.23465 7.6236708 -100.06428 7.6236708 -90.654448 C 7.6236708 -81.244616 5.8380931 -74.017081 2.2668918 -68.97205 C -1.2476238 -63.983706 -6.3211368 -61.489303 -12.953368 -61.489303 C -19.585599 -61.489303 -24.687175 -63.983706 -28.258377 -68.97205 C -31.829578 -74.017081 -33.615156 -81.244616 -33.615156 -90.654448 C -33.615156 -100.00759 -31.829578 -107.17797 -28.258377 -112.16631 C -24.687175 -117.15466 -19.585599 -119.64906 -12.953368 -119.64906 z M -12.953368 -115.31237 C -15.84434 -115.31237 -17.941718 -113.41351 -19.24549 -109.61556 C -20.492576 -105.81762 -21.116177 -99.497422 -21.116177 -90.654448 C -21.116177 -81.868159 -20.492576 -75.576025 -19.24549 -71.778081 C -17.941718 -68.036822 -15.84434 -66.16602 -12.953368 -66.16602 C -10.062395 -66.16602 -7.9930809 -68.036822 -6.7459948 -71.778081 C -5.4422229 -75.576025 -4.7905586 -81.868159 -4.7905586 -90.654448 C -4.7905586 -99.440737 -5.4422229 -105.73287 -6.7459948 -109.53081 C -7.9930809 -113.38544 -10.062395 -115.31237 -12.953368 -115.31237 z M -89.904226 -101.28274 C -87.920226 -101.28274 -86.446448 -100.68772 -85.482791 -99.497319 C -84.462448 -98.363604 -83.952135 -96.776539 -83.952135 -94.735852 C -83.952135 -92.695166 -84.462448 -91.107584 -85.482791 -89.973869 C -86.446448 -88.840154 -87.920226 -88.273198 -89.904226 -88.273198 C -91.888227 -88.273198 -93.390585 -88.840154 -94.410928 -89.973869 C -95.374586 -91.16427 -95.856318 -92.751852 -95.856318 -94.735852 C -95.856318 -96.833225 -95.374586 -98.448354 -94.410928 -99.582068 C -93.390585 -100.71578 -91.888227 -101.28274 -89.904226 -101.28274 z M -125.53099 -89.293807 C -127.91179 -89.293807 -130.4909 -88.330343 -133.2685 -86.403028 L -133.2685 -85.297669 C -133.2685 -79.118924 -132.58878 -74.583787 -131.22832 -71.692814 C -129.86786 -68.801842 -127.71332 -67.356645 -124.76566 -67.356645 C -122.32818 -67.356645 -120.45789 -68.291529 -119.15412 -70.162159 C -117.85035 -72.032788 -117.19817 -74.697123 -117.19817 -78.154952 C -117.19817 -81.669468 -117.93506 -84.390447 -119.40889 -86.317762 C -120.82603 -88.301762 -122.86676 -89.293807 -125.53099 -89.293807 z M -89.904226 -74.498845 C -87.920226 -74.498845 -86.446448 -73.903824 -85.482791 -72.713424 C -84.462448 -71.579709 -83.952135 -69.992127 -83.952135 -67.951441 C -83.952135 -65.910754 -84.462448 -64.323689 -85.482791 -63.189974 C -86.446448 -62.05626 -87.920226 -61.489303 -89.904226 -61.489303 C -91.888227 -61.489303 -93.390585 -62.05626 -94.410928 -63.189974 C -95.374586 -64.380375 -95.856318 -65.96744 -95.856318 -67.951441 C -95.856318 -70.048813 -95.374586 -71.664459 -94.410928 -72.798173 C -93.390585 -73.931888 -91.888227 -74.498845 -89.904226 -74.498845 z " /></g></svg>
