<?xml version="1.0" encoding="UTF-8" standalone="no"?>
<!-- Created with Inkscape (http://www.inkscape.org/) -->

<svg
   width="172.6701mm"
   height="172.6701mm"
   viewBox="0 0 172.6701 172.6701"
   version="1.1"
   id="svg1"
   xml:space="preserve"
   xmlns="http://www.w3.org/2000/svg"
   xmlns:svg="http://www.w3.org/2000/svg"><defs
     id="defs1" /><g
     id="layer1"
     transform="translate(157.25102,198.81012)"><path
       id="path5"
       style="fill:#ffffff;fill-opacity:1;stroke-width:0.805188;stroke-linecap:round;stroke-linejoin:round"
       d="M -2.0863309 -198.17657 L -10.088943 -183.11289 L -10.930235 -165.68398 L -19.198981 -165.68398 L -11.423229 -155.47426 L -12.166336 -140.07934 C -28.353216 -157.12094 -50.823548 -166.77435 -74.327399 -166.78417 C -103.64471 -166.77397 -130.92652 -151.79225 -146.66717 -127.05894 L -157.25102 -127.05894 L -149.61996 -115.86014 L -157.25102 -26.140039 L -8.5138455 -26.140039 L 15.419061 -26.140039 L 8.0799737 -154.80195 L 15.419061 -165.68398 L 7.4593397 -165.68398 L 6.4490654 -183.39297 L -2.0863309 -198.17657 z M -83.43072 -192.21621 C -85.584619 -189.65499 -86.77489 -186.4211 -86.795372 -183.07465 C -86.842092 -175.15518 -80.459903 -168.69733 -72.540428 -168.65072 C -64.621155 -168.60402 -58.163395 -174.98588 -58.116503 -182.90515 C -58.102813 -186.26049 -59.266203 -189.5144 -61.404157 -192.10045 C -60.83125 -190.6836 -60.536835 -189.16959 -60.537027 -187.64129 C -60.575787 -181.07411 -65.930869 -175.78172 -72.498054 -175.82031 C -79.065241 -175.85911 -84.357627 -181.21415 -84.319038 -187.78134 C -84.309338 -189.30285 -84.007827 -190.80837 -83.43072 -192.21621 z M -110.69366 -119.90383 L -108.65295 -115.65241 C -120.10347 -110.72075 -126.99063 -103.12528 -129.31474 -92.865166 C -126.02697 -94.452366 -122.90948 -95.245899 -119.96182 -95.245899 C -114.29325 -95.245899 -109.84334 -93.715477 -106.61225 -90.654448 C -103.32448 -87.593418 -101.68077 -83.455306 -101.68077 -78.240218 C -101.68077 -75.009132 -102.55901 -72.118221 -104.31627 -69.567363 C -106.01684 -67.016505 -108.42602 -65.032415 -111.54373 -63.615271 C -114.60476 -62.198128 -118.11927 -61.489303 -122.08727 -61.489303 C -128.83288 -61.489303 -134.01968 -63.360105 -137.64757 -67.101363 C -141.21877 -70.842622 -143.00434 -76.255999 -143.00434 -83.341716 C -143.00434 -92.241376 -140.2553 -99.808775 -134.75679 -106.04421 C -129.20158 -112.33632 -121.18052 -116.95617 -110.69366 -119.90383 z M -54.659866 -119.73381 C -48.821235 -119.73381 -44.172811 -118.28861 -40.714981 -115.39764 C -37.257151 -112.56335 -35.528217 -108.56711 -35.528217 -103.40871 C -35.528217 -98.873849 -37.257151 -94.026912 -40.714981 -88.86851 C -44.172811 -83.766794 -49.869924 -77.616529 -57.805927 -70.41744 L -34.932905 -70.41744 L -34.932905 -62.084615 L -73.450967 -62.084615 L -73.450967 -67.016097 C -67.158851 -73.081471 -62.255786 -78.268272 -58.741271 -82.576388 C -55.226755 -86.884504 -52.704289 -90.852684 -51.173774 -94.480571 C -49.586573 -98.108458 -48.792524 -101.84955 -48.792524 -105.70418 C -48.792524 -111.82623 -50.833258 -114.88759 -54.914631 -114.88759 C -56.728574 -114.88759 -58.202352 -114.0369 -59.336066 -112.33633 C -60.469781 -110.69244 -61.036738 -108.65171 -61.036738 -106.21422 C -61.036738 -104.51365 -60.441717 -102.89852 -59.251317 -101.36801 C -60.214975 -100.46103 -61.320308 -99.752209 -62.567394 -99.242037 C -63.757794 -98.731866 -64.948351 -98.476709 -66.138752 -98.476709 C -68.179438 -98.476709 -69.879792 -99.10031 -71.240249 -100.3474 C -72.600707 -101.65117 -73.280952 -103.52197 -73.280952 -105.95946 C -73.280952 -108.567 -72.515483 -110.91953 -70.984968 -113.01691 C -69.454453 -115.11428 -67.300431 -116.75799 -64.52283 -117.94839 C -61.688543 -119.13879 -58.401125 -119.73381 -54.659866 -119.73381 z M -8.999604 -119.13901 L -6.1935737 -117.86364 L -6.1935737 -68.716769 C -5.1165447 -68.093226 -3.4156747 -67.526269 -1.0915596 -67.016097 C 1.2325556 -66.562611 3.0747772 -66.279392 4.4352349 -66.16602 L 4.1799533 -62.084615 L -30.511469 -62.084615 L -30.341454 -66.16602 C -25.296423 -66.732877 -21.442048 -67.583054 -18.777819 -68.716769 L -18.777819 -109.44555 L -30.171438 -109.44555 L -30.171438 -114.37703 C -26.543551 -114.66046 -22.802464 -115.19935 -18.947834 -115.99295 C -15.093204 -116.84324 -11.777205 -117.89193 -8.999604 -119.13901 z M -86.715791 -101.28274 C -84.73179 -101.28274 -83.257496 -100.68772 -82.293838 -99.497319 C -81.273495 -98.363604 -80.763699 -96.776539 -80.763699 -94.735852 C -80.763699 -92.695166 -81.273495 -91.107584 -82.293838 -89.973869 C -83.257496 -88.840154 -84.73179 -88.273198 -86.715791 -88.273198 C -88.699791 -88.273198 -90.201632 -88.840154 -91.221975 -89.973869 C -92.185633 -91.16427 -92.667365 -92.751852 -92.667365 -94.735852 C -92.667365 -96.833225 -92.185633 -98.448354 -91.221975 -99.582068 C -90.201632 -100.71578 -88.699791 -101.28274 -86.715791 -101.28274 z M -122.34256 -89.293807 C -124.72336 -89.293807 -127.30247 -88.330343 -130.08007 -86.403028 L -130.08007 -85.297669 C -130.08007 -79.118924 -129.39982 -74.583787 -128.03937 -71.692814 C -126.67891 -68.801842 -124.52489 -67.356645 -121.57723 -67.356645 C -119.13974 -67.356645 -117.26894 -68.291529 -115.96517 -70.162159 C -114.6614 -72.032788 -114.00973 -74.697123 -114.00973 -78.154952 C -114.00973 -81.669468 -114.74662 -84.390447 -116.22045 -86.317762 C -117.63759 -88.301762 -119.67833 -89.293807 -122.34256 -89.293807 z M -86.715791 -74.498845 C -84.73179 -74.498845 -83.257496 -73.903824 -82.293838 -72.713424 C -81.273495 -71.579709 -80.763699 -69.992127 -80.763699 -67.951441 C -80.763699 -65.910754 -81.273495 -64.323689 -82.293838 -63.189974 C -83.257496 -62.05626 -84.73179 -61.489303 -86.715791 -61.489303 C -88.699791 -61.489303 -90.201632 -62.05626 -91.221975 -63.189974 C -92.185633 -64.380375 -92.667365 -65.96744 -92.667365 -67.951441 C -92.667365 -70.048813 -92.185633 -71.664459 -91.221975 -72.798173 C -90.201632 -73.931888 -88.699791 -74.498845 -86.715791 -74.498845 z " /></g></svg>
