<?xml version="1.0" encoding="UTF-8" standalone="no"?>
<!-- Created with Inkscape (http://www.inkscape.org/) -->

<svg
   width="172.6701mm"
   height="172.6701mm"
   viewBox="0 0 172.6701 172.6701"
   version="1.1"
   id="svg1"
   xml:space="preserve"
   xmlns="http://www.w3.org/2000/svg"
   xmlns:svg="http://www.w3.org/2000/svg"><defs
     id="defs1" /><g
     id="layer1"
     transform="translate(157.25102,198.81012)"><path
       id="path5"
       style="fill:#ffffff;fill-opacity:1;stroke-width:0.805188;stroke-linecap:round;stroke-linejoin:round"
       d="M -2.0863309 -198.17657 L -10.088943 -183.11289 L -10.930235 -165.68398 L -19.198981 -165.68398 L -11.423229 -155.47426 L -12.166336 -140.07934 C -28.353216 -157.12094 -50.823548 -166.77435 -74.327399 -166.78417 C -103.64471 -166.77397 -130.92652 -151.79225 -146.66717 -127.05894 L -157.25102 -127.05894 L -149.61996 -115.86014 L -157.25102 -26.140039 L -8.5138455 -26.140039 L 15.419061 -26.140039 L 8.0799737 -154.80195 L 15.419061 -165.68398 L 7.4593397 -165.68398 L 6.4490654 -183.39297 L -2.0863309 -198.17657 z M -83.43072 -192.21621 C -85.584619 -189.65499 -86.77489 -186.4211 -86.795372 -183.07465 C -86.842092 -175.15518 -80.459903 -168.69733 -72.540428 -168.65072 C -64.621155 -168.60402 -58.163395 -174.98588 -58.116503 -182.90515 C -58.102813 -186.26049 -59.266203 -189.5144 -61.404157 -192.10045 C -60.83125 -190.6836 -60.536835 -189.16959 -60.537027 -187.64129 C -60.575787 -181.07411 -65.930869 -175.78172 -72.498054 -175.82031 C -79.065241 -175.85911 -84.357627 -181.21415 -84.319038 -187.78134 C -84.309338 -189.30285 -84.007827 -190.80837 -83.43072 -192.21621 z M -112.77673 -119.90383 L -110.73603 -115.65241 C -122.18655 -110.72075 -129.07422 -103.12528 -131.39833 -92.865166 C -128.11056 -94.452366 -124.99256 -95.245899 -122.0449 -95.245899 C -116.37633 -95.245899 -111.92641 -93.715477 -108.69533 -90.654448 C -105.40755 -87.593418 -103.76385 -83.455306 -103.76385 -78.240218 C -103.76385 -75.009132 -104.6426 -72.118221 -106.39986 -69.567363 C -108.10043 -67.016505 -110.50961 -65.032415 -113.62733 -63.615271 C -116.68836 -62.198128 -120.20287 -61.489303 -124.17087 -61.489303 C -130.91647 -61.489303 -136.10276 -63.360105 -139.73064 -67.101363 C -143.30184 -70.842622 -145.08794 -76.255999 -145.08794 -83.341716 C -145.08794 -92.241376 -142.33838 -99.808775 -136.83986 -106.04421 C -131.28466 -112.33632 -123.26359 -116.95617 -112.77673 -119.90383 z M -56.742943 -119.73381 C -50.904312 -119.73381 -46.255888 -118.28861 -42.798058 -115.39764 C -39.340228 -112.56335 -37.611294 -108.56711 -37.611294 -103.40871 C -37.611294 -98.873849 -39.340228 -94.026912 -42.798058 -88.86851 C -46.255888 -83.766794 -51.953001 -77.616529 -59.889004 -70.41744 L -37.016499 -70.41744 L -37.016499 -62.084615 L -75.534044 -62.084615 L -75.534044 -67.016097 C -69.241927 -73.081471 -64.338863 -78.268272 -60.824348 -82.576388 C -57.309832 -86.884504 -54.787366 -90.852684 -53.256851 -94.480571 C -51.66965 -98.108458 -50.876118 -101.84955 -50.876118 -105.70418 C -50.876118 -111.82623 -52.916852 -114.88759 -56.998225 -114.88759 C -58.812168 -114.88759 -60.285945 -114.0369 -61.41966 -112.33633 C -62.553375 -110.69244 -63.119815 -108.65171 -63.119815 -106.21422 C -63.119815 -104.51365 -62.524794 -102.89852 -61.334394 -101.36801 C -62.298052 -100.46103 -63.403385 -99.752209 -64.650471 -99.242037 C -65.840871 -98.731866 -67.031428 -98.476709 -68.221829 -98.476709 C -70.262515 -98.476709 -71.962869 -99.10031 -73.323326 -100.3474 C -74.683784 -101.65117 -75.364029 -103.52197 -75.364029 -105.95946 C -75.364029 -108.567 -74.599076 -110.91953 -73.068562 -113.01691 C -71.538047 -115.11428 -69.384025 -116.75799 -66.606424 -117.94839 C -63.772137 -119.13879 -60.484202 -119.73381 -56.742943 -119.73381 z M -13.63343 -119.73381 C -7.794799 -119.73381 -3.1463743 -118.28861 0.31145559 -115.39764 C 3.7692854 -112.56335 5.4982191 -108.56711 5.4982191 -103.40871 C 5.4982191 -98.873849 3.7692854 -94.026912 0.31145559 -88.86851 C -3.1463743 -83.766794 -8.843488 -77.616529 -16.779491 -70.41744 L 6.0930148 -70.41744 L 6.0930148 -62.084615 L -32.424531 -62.084615 L -32.424531 -67.016097 C -26.132414 -73.081471 -21.22935 -78.268272 -17.714834 -82.576388 C -14.200319 -86.884504 -11.677852 -90.852684 -10.147338 -94.480571 C -8.560137 -98.108458 -7.7666043 -101.84955 -7.7666043 -105.70418 C -7.7666043 -111.82623 -9.8073383 -114.88759 -13.888711 -114.88759 C -15.702655 -114.88759 -17.176432 -114.0369 -18.310147 -112.33633 C -19.443861 -110.69244 -20.010301 -108.65171 -20.010301 -106.21422 C -20.010301 -104.51365 -19.415281 -102.89852 -18.224881 -101.36801 C -19.188538 -100.46103 -20.293871 -99.752209 -21.540957 -99.242037 C -22.731358 -98.731866 -23.921915 -98.476709 -25.112316 -98.476709 C -27.153002 -98.476709 -28.853355 -99.10031 -30.213813 -100.3474 C -31.574271 -101.65117 -32.254515 -103.52197 -32.254515 -105.95946 C -32.254515 -108.567 -31.489563 -110.91953 -29.959048 -113.01691 C -28.428533 -115.11428 -26.274511 -116.75799 -23.49691 -117.94839 C -20.662624 -119.13879 -17.374688 -119.73381 -13.63343 -119.73381 z M -88.798867 -101.28274 C -86.814867 -101.28274 -85.341089 -100.68772 -84.377432 -99.497319 C -83.357089 -98.363604 -82.846776 -96.776539 -82.846776 -94.735852 C -82.846776 -92.695166 -83.357089 -91.107584 -84.377432 -89.973869 C -85.341089 -88.840154 -86.814867 -88.273198 -88.798867 -88.273198 C -90.782868 -88.273198 -92.284709 -88.840154 -93.305052 -89.973869 C -94.26871 -91.16427 -94.750959 -92.751852 -94.750959 -94.735852 C -94.750959 -96.833225 -94.26871 -98.448354 -93.305052 -99.582068 C -92.284709 -100.71578 -90.782868 -101.28274 -88.798867 -101.28274 z M -124.42563 -89.293807 C -126.80643 -89.293807 -129.38554 -88.330343 -132.16315 -86.403028 L -132.16315 -85.297669 C -132.16315 -79.118924 -131.4829 -74.583787 -130.12244 -71.692814 C -128.76199 -68.801842 -126.60796 -67.356645 -123.66031 -67.356645 C -121.22282 -67.356645 -119.35253 -68.291529 -118.04876 -70.162159 C -116.74499 -72.032788 -116.09281 -74.697123 -116.09281 -78.154952 C -116.09281 -81.669468 -116.8297 -84.390447 -118.30353 -86.317762 C -119.72067 -88.301762 -121.7614 -89.293807 -124.42563 -89.293807 z M -88.798867 -74.498845 C -86.814867 -74.498845 -85.341089 -73.903824 -84.377432 -72.713424 C -83.357089 -71.579709 -82.846776 -69.992127 -82.846776 -67.951441 C -82.846776 -65.910754 -83.357089 -64.323689 -84.377432 -63.189974 C -85.341089 -62.05626 -86.814867 -61.489303 -88.798867 -61.489303 C -90.782868 -61.489303 -92.284709 -62.05626 -93.305052 -63.189974 C -94.26871 -64.380375 -94.750959 -65.96744 -94.750959 -67.951441 C -94.750959 -70.048813 -94.26871 -71.664459 -93.305052 -72.798173 C -92.284709 -73.931888 -90.782868 -74.498845 -88.798867 -74.498845 z " /></g></svg>
