<?xml version="1.0" encoding="UTF-8" standalone="no"?>
<!-- Created with Inkscape (http://www.inkscape.org/) -->

<svg
   width="172.6701mm"
   height="172.6701mm"
   viewBox="0 0 172.6701 172.6701"
   version="1.1"
   id="svg1"
   xml:space="preserve"
   xmlns="http://www.w3.org/2000/svg"
   xmlns:svg="http://www.w3.org/2000/svg"><defs
     id="defs1" /><g
     id="layer1"
     transform="translate(157.25102,198.81012)"><path
       id="path5"
       style="fill:#ffffff;fill-opacity:1;stroke-width:0.805188;stroke-linecap:round;stroke-linejoin:round"
       d="M -2.0863309 -198.17657 L -10.088943 -183.11289 L -10.930235 -165.68398 L -19.198981 -165.68398 L -11.423229 -155.47426 L -12.166336 -140.07934 C -28.353216 -157.12094 -50.823548 -166.77435 -74.327399 -166.78417 C -103.64471 -166.77397 -130.92652 -151.79225 -146.66717 -127.05894 L -157.25102 -127.05894 L -149.61996 -115.86014 L -157.25102 -26.140039 L -8.5138455 -26.140039 L 15.419061 -26.140039 L 8.0799737 -154.80195 L 15.419061 -165.68398 L 7.4593397 -165.68398 L 6.4490654 -183.39297 L -2.0863309 -198.17657 z M -83.43072 -192.21621 C -85.584619 -189.65499 -86.77489 -186.4211 -86.795372 -183.07465 C -86.842092 -175.15518 -80.459903 -168.69733 -72.540428 -168.65072 C -64.621155 -168.60402 -58.163395 -174.98588 -58.116503 -182.90515 C -58.102813 -186.26049 -59.266203 -189.5144 -61.404157 -192.10045 C -60.83125 -190.6836 -60.536835 -189.16959 -60.537027 -187.64129 C -60.575787 -181.07411 -65.930869 -175.78172 -72.498054 -175.82031 C -79.065241 -175.85911 -84.357627 -181.21415 -84.319038 -187.78134 C -84.309338 -189.30285 -84.007827 -190.80837 -83.43072 -192.21621 z M -112.81911 -119.90383 L -110.7784 -115.65241 C -122.22892 -110.72075 -129.11659 -103.12528 -131.44071 -92.865166 C -128.15294 -94.452366 -125.03493 -95.245899 -122.08727 -95.245899 C -116.4187 -95.245899 -111.96879 -93.715477 -108.7377 -90.654448 C -105.44993 -87.593418 -103.80622 -83.455306 -103.80622 -78.240218 C -103.80622 -75.009132 -104.68498 -72.118221 -106.44224 -69.567363 C -108.14281 -67.016505 -110.55199 -65.032415 -113.6697 -63.615271 C -116.73073 -62.198128 -120.24524 -61.489303 -124.21324 -61.489303 C -130.95885 -61.489303 -136.14565 -63.360105 -139.77353 -67.101363 C -143.34474 -70.842622 -145.13031 -76.255999 -145.13031 -83.341716 C -145.13031 -92.241376 -142.38075 -99.808775 -136.88224 -106.04421 C -131.32704 -112.33632 -123.30597 -116.95617 -112.81911 -119.90383 z M -56.785318 -119.73381 C -50.946687 -119.73381 -46.298779 -118.28861 -42.840949 -115.39764 C -39.383119 -112.56335 -37.654186 -108.56711 -37.654186 -103.40871 C -37.654186 -98.873849 -39.383119 -94.026912 -42.840949 -88.86851 C -46.298779 -83.766794 -51.995376 -77.616529 -59.931379 -70.41744 L -37.058873 -70.41744 L -37.058873 -62.084615 L -75.576936 -62.084615 L -75.576936 -67.016097 C -69.284819 -73.081471 -64.381238 -78.268272 -60.866722 -82.576388 C -57.352207 -86.884504 -54.82974 -90.852684 -53.299226 -94.480571 C -51.712025 -98.108458 -50.918492 -101.84955 -50.918492 -105.70418 C -50.918492 -111.82623 -52.959226 -114.88759 -57.040599 -114.88759 C -58.854543 -114.88759 -60.32832 -114.0369 -61.462035 -112.33633 C -62.59575 -110.69244 -63.162706 -108.65171 -63.162706 -106.21422 C -63.162706 -104.51365 -62.567169 -102.89852 -61.376769 -101.36801 C -62.340426 -100.46103 -63.445759 -99.752209 -64.692845 -99.242037 C -65.883246 -98.731866 -67.073803 -98.476709 -68.264204 -98.476709 C -70.30489 -98.476709 -72.00576 -99.10031 -73.366218 -100.3474 C -74.726675 -101.65117 -75.406403 -103.52197 -75.406403 -105.95946 C -75.406403 -108.567 -74.641451 -110.91953 -73.110936 -113.01691 C -71.580421 -115.11428 -69.426399 -116.75799 -66.648798 -117.94839 C -63.814512 -119.13879 -60.526576 -119.73381 -56.785318 -119.73381 z M -14.015835 -119.73381 C -10.331262 -119.73381 -7.0719075 -119.11073 -4.2376207 -117.86364 C -1.403334 -116.67324 0.80733199 -114.97237 2.3945326 -112.76163 C 3.9817332 -110.60757 4.7752658 -108.11368 4.7752658 -105.27939 C 4.7752658 -102.10499 3.8398648 -99.384015 1.9692355 -97.116586 C 0.098606277 -94.849156 -2.6790164 -93.120223 -6.3635892 -91.929822 C -1.7153589 -90.909479 1.5439961 -89.237189 3.4146253 -86.913074 C 5.2852546 -84.588959 6.2206556 -81.442892 6.2206556 -77.474891 C 6.2206556 -74.017061 5.1719666 -71.069506 3.0745944 -68.632019 C 1.033908 -66.194533 -1.6304267 -64.380375 -4.9181994 -63.189974 C -8.205972 -61.999574 -11.606679 -61.404554 -15.121194 -61.404554 C -20.22291 -61.404554 -24.559535 -62.453243 -28.130736 -64.550615 C -31.645252 -66.647987 -33.402766 -69.510317 -33.402766 -73.138204 C -33.402766 -75.235577 -32.779165 -76.851222 -31.532079 -77.984937 C -30.284993 -79.175337 -28.725991 -79.770358 -26.855362 -79.770358 C -24.928047 -79.770358 -22.972537 -79.005405 -20.988536 -77.474891 C -21.498708 -76.397862 -21.753864 -75.094016 -21.753864 -73.563501 C -21.753864 -71.749558 -21.214971 -70.275781 -20.137942 -69.142066 C -19.004227 -68.008351 -17.331938 -67.441394 -15.121194 -67.441394 C -10.246221 -67.441394 -7.808979 -70.814037 -7.808979 -77.55964 C -7.808979 -81.244213 -8.9995363 -84.10706 -11.380337 -86.147746 C -13.704452 -88.188433 -17.020451 -89.208541 -21.328567 -89.208541 L -21.328567 -94.480571 C -12.995764 -95.1608 -8.8290718 -98.760535 -8.8290718 -105.27939 C -8.8290718 -108.56717 -9.3393845 -110.97583 -10.359728 -112.50634 C -11.380071 -114.09354 -12.769141 -114.88759 -14.526398 -114.88759 C -16.623771 -114.88759 -18.210836 -114.15071 -19.287865 -112.67688 C -20.308208 -111.20305 -20.818521 -109.41747 -20.818521 -107.3201 C -20.818521 -105.44947 -20.421496 -103.77718 -19.627896 -102.30335 C -21.215096 -100.60278 -23.25583 -99.752084 -25.750003 -99.752084 C -28.017432 -99.752084 -29.774429 -100.43233 -31.021516 -101.79279 C -32.268602 -103.15324 -32.892202 -104.91076 -32.892202 -107.06482 C -32.892202 -109.8991 -31.928738 -112.25164 -30.001423 -114.12227 C -28.017422 -116.04958 -25.579663 -117.46671 -22.688691 -118.37369 C -19.741033 -119.28066 -16.850122 -119.73381 -14.015835 -119.73381 z M -88.841242 -101.28274 C -86.857241 -101.28274 -85.383464 -100.68772 -84.419807 -99.497319 C -83.399463 -98.363604 -82.889151 -96.776539 -82.889151 -94.735852 C -82.889151 -92.695166 -83.399463 -91.107584 -84.419807 -89.973869 C -85.383464 -88.840154 -86.857241 -88.273198 -88.841242 -88.273198 C -90.825243 -88.273198 -92.327601 -88.840154 -93.347944 -89.973869 C -94.311601 -91.16427 -94.793334 -92.751852 -94.793334 -94.735852 C -94.793334 -96.833225 -94.311601 -98.448354 -93.347944 -99.582068 C -92.327601 -100.71578 -90.825243 -101.28274 -88.841242 -101.28274 z M -124.46801 -89.293807 C -126.84881 -89.293807 -129.42844 -88.330343 -132.20604 -86.403028 L -132.20604 -85.297669 C -132.20604 -79.118924 -131.52579 -74.583787 -130.16533 -71.692814 C -128.80488 -68.801842 -126.65086 -67.356645 -123.7032 -67.356645 C -121.26571 -67.356645 -119.39491 -68.291529 -118.09114 -70.162159 C -116.78736 -72.032788 -116.13518 -74.697123 -116.13518 -78.154952 C -116.13518 -81.669468 -116.87259 -84.390447 -118.34642 -86.317762 C -119.76356 -88.301762 -121.80378 -89.293807 -124.46801 -89.293807 z M -88.841242 -74.498845 C -86.857241 -74.498845 -85.383464 -73.903824 -84.419807 -72.713424 C -83.399463 -71.579709 -82.889151 -69.992127 -82.889151 -67.951441 C -82.889151 -65.910754 -83.399463 -64.323689 -84.419807 -63.189974 C -85.383464 -62.05626 -86.857241 -61.489303 -88.841242 -61.489303 C -90.825243 -61.489303 -92.327601 -62.05626 -93.347944 -63.189974 C -94.311601 -64.380375 -94.793334 -65.96744 -94.793334 -67.951441 C -94.793334 -70.048813 -94.311601 -71.664459 -93.347944 -72.798173 C -92.327601 -73.931888 -90.825243 -74.498845 -88.841242 -74.498845 z " /></g></svg>
