<?xml version="1.0" encoding="UTF-8" standalone="no"?>
<!-- Created with Inkscape (http://www.inkscape.org/) -->

<svg
   width="172.6701mm"
   height="172.6701mm"
   viewBox="0 0 172.6701 172.6701"
   version="1.1"
   id="svg1"
   xml:space="preserve"
   xmlns="http://www.w3.org/2000/svg"
   xmlns:svg="http://www.w3.org/2000/svg"><defs
     id="defs1" /><g
     id="layer1"
     transform="translate(157.25102,198.81012)"><path
       id="path5"
       style="fill:#ffffff;fill-opacity:1;stroke-width:0.805188;stroke-linecap:round;stroke-linejoin:round"
       d="M -2.0863309 -198.17657 L -10.088943 -183.11289 L -10.930235 -165.68398 L -19.198981 -165.68398 L -11.423229 -155.47426 L -12.166336 -140.07934 C -28.353216 -157.12094 -50.823548 -166.77435 -74.327399 -166.78417 C -103.64471 -166.77397 -130.92652 -151.79225 -146.66717 -127.05894 L -157.25102 -127.05894 L -149.61996 -115.86014 L -157.25102 -26.140039 L -8.5138455 -26.140039 L 15.419061 -26.140039 L 8.0799737 -154.80195 L 15.419061 -165.68398 L 7.4593397 -165.68398 L 6.4490654 -183.39297 L -2.0863309 -198.17657 z M -83.43072 -192.21621 C -85.584619 -189.65499 -86.77489 -186.4211 -86.795372 -183.07465 C -86.842092 -175.15518 -80.459903 -168.69733 -72.540428 -168.65072 C -64.621155 -168.60402 -58.163395 -174.98588 -58.116503 -182.90515 C -58.102813 -186.26049 -59.266203 -189.5144 -61.404157 -192.10045 C -60.83125 -190.6836 -60.536835 -189.16959 -60.537027 -187.64129 C -60.575787 -181.07411 -65.930869 -175.78172 -72.498054 -175.82031 C -79.065241 -175.85911 -84.357627 -181.21415 -84.319038 -187.78134 C -84.309338 -189.30285 -84.007827 -190.80837 -83.43072 -192.21621 z M -14.99407 -120.07436 C -10.459211 -119.84761 -6.7742513 -118.85557 -3.9399645 -117.09831 L -24.176972 -83.767013 L -11.16743 -83.767013 L -10.317353 -97.626632 C -8.5034095 -97.626632 -7.1995641 -97.995076 -6.4059638 -98.731991 C -5.5556778 -99.468905 -4.9040135 -100.71611 -4.4505276 -102.47336 L 0.39620493 -102.47336 L 0.31145559 -83.341716 C 2.4655135 -82.718173 5.1864922 -82.066508 8.4742648 -81.38628 L 8.0489678 -77.304875 L -0.11384145 -77.304875 L -0.11384145 -62.084615 L -11.16743 -62.084615 L -11.16743 -77.304875 L -35.740607 -77.304875 L -36.421186 -80.36567 L -14.99407 -120.07436 z M -114.73269 -119.90383 L -112.69198 -115.65241 C -124.1425 -110.72075 -131.02966 -103.12528 -133.35377 -92.865166 C -130.066 -94.452366 -126.94799 -95.245899 -124.00034 -95.245899 C -118.33176 -95.245899 -113.88237 -93.715477 -110.65128 -90.654448 C -107.36351 -87.593418 -105.71928 -83.455306 -105.71928 -78.240218 C -105.71928 -75.009132 -106.59804 -72.118221 -108.3553 -69.567363 C -110.05587 -67.016505 -112.46505 -65.032415 -115.58276 -63.615271 C -118.64379 -62.198128 -122.1583 -61.489303 -126.1263 -61.489303 C -132.87191 -61.489303 -138.05871 -63.360105 -141.6866 -67.101363 C -145.2578 -70.842622 -147.04337 -76.255999 -147.04337 -83.341716 C -147.04337 -92.241376 -144.29382 -99.808775 -138.7953 -106.04421 C -133.2401 -112.33632 -125.21955 -116.95617 -114.73269 -119.90383 z M -58.698379 -119.73381 C -52.859749 -119.73381 -48.211841 -118.28861 -44.754011 -115.39764 C -41.296181 -112.56335 -39.567247 -108.56711 -39.567247 -103.40871 C -39.567247 -98.873849 -41.296181 -94.026912 -44.754011 -88.86851 C -48.211841 -83.766794 -53.908438 -77.616529 -61.84444 -70.41744 L -38.971935 -70.41744 L -38.971935 -62.084615 L -77.489997 -62.084615 L -77.489997 -67.016097 C -71.19788 -73.081471 -66.294299 -78.268272 -62.779784 -82.576388 C -59.265268 -86.884504 -56.742802 -90.852684 -55.212287 -94.480571 C -53.625087 -98.108458 -52.831554 -101.84955 -52.831554 -105.70418 C -52.831554 -111.82623 -54.872288 -114.88759 -58.953661 -114.88759 C -60.767604 -114.88759 -62.241382 -114.0369 -63.375096 -112.33633 C -64.508811 -110.69244 -65.075768 -108.65171 -65.075768 -106.21422 C -65.075768 -104.51365 -64.480231 -102.89852 -63.28983 -101.36801 C -64.253488 -100.46103 -65.359337 -99.752209 -66.606424 -99.242037 C -67.796824 -98.731866 -68.986865 -98.476709 -70.177265 -98.476709 C -72.217952 -98.476709 -73.918822 -99.10031 -75.279279 -100.3474 C -76.639737 -101.65117 -77.319982 -103.52197 -77.319982 -105.95946 C -77.319982 -108.567 -76.554513 -110.91953 -75.023998 -113.01691 C -73.493483 -115.11428 -71.339461 -116.75799 -68.56186 -117.94839 C -65.727573 -119.13879 -62.439638 -119.73381 -58.698379 -119.73381 z M -90.754304 -101.28274 C -88.770303 -101.28274 -87.296526 -100.68772 -86.332868 -99.497319 C -85.312525 -98.363604 -84.802212 -96.776539 -84.802212 -94.735852 C -84.802212 -92.695166 -85.312525 -91.107584 -86.332868 -89.973869 C -87.296526 -88.840154 -88.770303 -88.273198 -90.754304 -88.273198 C -92.738304 -88.273198 -94.240662 -88.840154 -95.261005 -89.973869 C -96.224663 -91.16427 -96.706395 -92.751852 -96.706395 -94.735852 C -96.706395 -96.833225 -96.224663 -98.448354 -95.261005 -99.582068 C -94.240662 -100.71578 -92.738304 -101.28274 -90.754304 -101.28274 z M -126.38159 -89.293807 C -128.76239 -89.293807 -131.3415 -88.330343 -134.1191 -86.403028 L -134.1191 -85.297669 C -134.1191 -79.118924 -133.43885 -74.583787 -132.0784 -71.692814 C -130.71794 -68.801842 -128.56392 -67.356645 -125.61626 -67.356645 C -123.17877 -67.356645 -121.30797 -68.291529 -120.0042 -70.162159 C -118.70043 -72.032788 -118.04876 -74.697123 -118.04876 -78.154952 C -118.04876 -81.669468 -118.78565 -84.390447 -120.25948 -86.317762 C -121.67662 -88.301762 -123.71736 -89.293807 -126.38159 -89.293807 z M -90.754304 -74.498845 C -88.770303 -74.498845 -87.296526 -73.903824 -86.332868 -72.713424 C -85.312525 -71.579709 -84.802212 -69.992127 -84.802212 -67.951441 C -84.802212 -65.910754 -85.312525 -64.323689 -86.332868 -63.189974 C -87.296526 -62.05626 -88.770303 -61.489303 -90.754304 -61.489303 C -92.738304 -61.489303 -94.240662 -62.05626 -95.261005 -63.189974 C -96.224663 -64.380375 -96.706395 -65.96744 -96.706395 -67.951441 C -96.706395 -70.048813 -96.224663 -71.664459 -95.261005 -72.798173 C -94.240662 -73.931888 -92.738304 -74.498845 -90.754304 -74.498845 z " /></g></svg>
