<?xml version="1.0" encoding="UTF-8" standalone="no"?>
<!-- Created with Inkscape (http://www.inkscape.org/) -->

<svg
   width="172.6701mm"
   height="172.6701mm"
   viewBox="0 0 172.6701 172.6701"
   version="1.1"
   id="svg1"
   xml:space="preserve"
   xmlns="http://www.w3.org/2000/svg"
   xmlns:svg="http://www.w3.org/2000/svg"><defs
     id="defs1" /><g
     id="layer1"
     transform="translate(157.25102,198.81012)"><path
       id="path5"
       style="fill:#ffffff;fill-opacity:1;stroke-width:0.805188;stroke-linecap:round;stroke-linejoin:round"
       d="M -2.0863309 -198.17657 L -10.088943 -183.11289 L -10.930235 -165.68398 L -19.198981 -165.68398 L -11.423229 -155.47426 L -12.166336 -140.07934 C -28.353216 -157.12094 -50.823548 -166.77435 -74.327399 -166.78417 C -103.64471 -166.77397 -130.92652 -151.79225 -146.66717 -127.05894 L -157.25102 -127.05894 L -149.61996 -115.86014 L -157.25102 -26.140039 L -8.5138455 -26.140039 L 15.419061 -26.140039 L 8.0799737 -154.80195 L 15.419061 -165.68398 L 7.4593397 -165.68398 L 6.4490654 -183.39297 L -2.0863309 -198.17657 z M -83.43072 -192.21621 C -85.584619 -189.65499 -86.77489 -186.4211 -86.795372 -183.07465 C -86.842092 -175.15518 -80.459903 -168.69733 -72.540428 -168.65072 C -64.621155 -168.60402 -58.163395 -174.98588 -58.116503 -182.90515 C -58.102813 -186.26049 -59.266203 -189.5144 -61.404157 -192.10045 C -60.83125 -190.6836 -60.536835 -189.16959 -60.537027 -187.64129 C -60.575787 -181.07411 -65.930869 -175.78172 -72.498054 -175.82031 C -79.065241 -175.85911 -84.357627 -181.21415 -84.319038 -187.78134 C -84.309338 -189.30285 -84.007827 -190.80837 -83.43072 -192.21621 z M -114.095 -119.90383 L -112.0543 -115.65241 C -123.50481 -110.72075 -130.39197 -103.12528 -132.71608 -92.865166 C -129.42831 -94.452366 -126.31031 -95.245899 -123.36265 -95.245899 C -117.69408 -95.245899 -113.24468 -93.715477 -110.01359 -90.654448 C -106.72582 -87.593418 -105.08159 -83.455306 -105.08159 -78.240218 C -105.08159 -75.009132 -105.96035 -72.118221 -107.71761 -69.567363 C -109.41818 -67.016505 -111.82736 -65.032415 -114.94508 -63.615271 C -118.0061 -62.198128 -121.52062 -61.489303 -125.48862 -61.489303 C -132.23422 -61.489303 -137.42102 -63.360105 -141.04891 -67.101363 C -144.62011 -70.842622 -146.40569 -76.255999 -146.40569 -83.341716 C -146.40569 -92.241376 -143.65613 -99.808775 -138.15761 -106.04421 C -132.60241 -112.33632 -124.58186 -116.95617 -114.095 -119.90383 z M -1.4315905 -119.90383 L 0.60911184 -115.65241 C -10.841407 -110.72075 -17.729078 -103.12528 -20.053193 -92.865166 C -16.76542 -94.452366 -13.647417 -95.245899 -10.699759 -95.245899 C -5.0311851 -95.245899 -0.58127275 -93.715477 2.6498141 -90.654448 C 5.9375868 -87.593418 7.5812961 -83.455306 7.5812961 -78.240218 C 7.5812961 -75.009132 6.7025391 -72.118221 4.9452813 -69.567363 C 3.2447092 -67.016505 0.83553088 -65.032415 -2.2821846 -63.615271 C -5.3432142 -62.198128 -8.8577256 -61.489303 -12.825727 -61.489303 C -19.57133 -61.489303 -24.758131 -63.360105 -28.386018 -67.101363 C -31.957219 -70.842622 -33.742797 -76.255999 -33.742797 -83.341716 C -33.742797 -92.241376 -30.993237 -99.808775 -25.494721 -106.04421 C -19.939519 -112.33632 -11.918451 -116.95617 -1.4315905 -119.90383 z M -58.060692 -119.73381 C -52.222061 -119.73381 -47.574153 -118.28861 -44.116324 -115.39764 C -40.658494 -112.56335 -38.92956 -108.56711 -38.92956 -103.40871 C -38.92956 -98.873849 -40.658494 -94.026912 -44.116324 -88.86851 C -47.574153 -83.766794 -53.27075 -77.616529 -61.206753 -70.41744 L -38.334248 -70.41744 L -38.334248 -62.084615 L -76.85231 -62.084615 L -76.85231 -67.016097 C -70.560193 -73.081471 -65.656612 -78.268272 -62.142097 -82.576388 C -58.627581 -86.884504 -56.105115 -90.852684 -54.5746 -94.480571 C -52.987399 -98.108458 -52.193867 -101.84955 -52.193867 -105.70418 C -52.193867 -111.82623 -54.234601 -114.88759 -58.315974 -114.88759 C -60.129917 -114.88759 -61.603694 -114.0369 -62.737409 -112.33633 C -63.871124 -110.69244 -64.438081 -108.65171 -64.438081 -106.21422 C -64.438081 -104.51365 -63.842543 -102.89852 -62.652143 -101.36801 C -63.615801 -100.46103 -64.72165 -99.752209 -65.968736 -99.242037 C -67.159137 -98.731866 -68.349178 -98.476709 -69.539578 -98.476709 C -71.580264 -98.476709 -73.281134 -99.10031 -74.641592 -100.3474 C -76.00205 -101.65117 -76.682294 -103.52197 -76.682294 -105.95946 C -76.682294 -108.567 -75.916825 -110.91953 -74.386311 -113.01691 C -72.855796 -115.11428 -70.701774 -116.75799 -67.924173 -117.94839 C -65.089886 -119.13879 -61.801951 -119.73381 -58.060692 -119.73381 z M -90.116617 -101.28274 C -88.132616 -101.28274 -86.658838 -100.68772 -85.695181 -99.497319 C -84.674838 -98.363604 -84.164525 -96.776539 -84.164525 -94.735852 C -84.164525 -92.695166 -84.674838 -91.107584 -85.695181 -89.973869 C -86.658838 -88.840154 -88.132616 -88.273198 -90.116617 -88.273198 C -92.100617 -88.273198 -93.602975 -88.840154 -94.623318 -89.973869 C -95.586976 -91.16427 -96.068708 -92.751852 -96.068708 -94.735852 C -96.068708 -96.833225 -95.586976 -98.448354 -94.623318 -99.582068 C -93.602975 -100.71578 -92.100617 -101.28274 -90.116617 -101.28274 z M -125.7439 -89.293807 C -128.1247 -89.293807 -130.70381 -88.330343 -133.48141 -86.403028 L -133.48141 -85.297669 C -133.48141 -79.118924 -132.80117 -74.583787 -131.44071 -71.692814 C -130.08025 -68.801842 -127.92623 -67.356645 -124.97857 -67.356645 C -122.54108 -67.356645 -120.67028 -68.291529 -119.36651 -70.162159 C -118.06274 -72.032788 -117.41107 -74.697123 -117.41107 -78.154952 C -117.41107 -81.669468 -118.14796 -84.390447 -119.62179 -86.317762 C -121.03894 -88.301762 -123.07967 -89.293807 -125.7439 -89.293807 z M -13.080492 -89.293807 C -15.461293 -89.293807 -18.04092 -88.330343 -20.818521 -86.403028 L -20.818521 -85.297669 C -20.818521 -79.118924 -20.138276 -74.583787 -18.777819 -71.692814 C -17.417361 -68.801842 -15.263339 -67.356645 -12.315681 -67.356645 C -9.878194 -67.356645 -8.007392 -68.291529 -6.7036201 -70.162159 C -5.3998482 -72.032788 -4.7476671 -74.697123 -4.7476671 -78.154952 C -4.7476671 -81.669468 -5.4850726 -84.390447 -6.9589017 -86.317762 C -8.376045 -88.301762 -10.416262 -89.293807 -13.080492 -89.293807 z M -90.116617 -74.498845 C -88.132616 -74.498845 -86.658838 -73.903824 -85.695181 -72.713424 C -84.674838 -71.579709 -84.164525 -69.992127 -84.164525 -67.951441 C -84.164525 -65.910754 -84.674838 -64.323689 -85.695181 -63.189974 C -86.658838 -62.05626 -88.132616 -61.489303 -90.116617 -61.489303 C -92.100617 -61.489303 -93.602975 -62.05626 -94.623318 -63.189974 C -95.586976 -64.380375 -96.068708 -65.96744 -96.068708 -67.951441 C -96.068708 -70.048813 -95.586976 -71.664459 -94.623318 -72.798173 C -93.602975 -73.931888 -92.100617 -74.498845 -90.116617 -74.498845 z " /></g></svg>
