<?xml version="1.0" encoding="UTF-8" standalone="no"?>
<!-- Created with Inkscape (http://www.inkscape.org/) -->

<svg
   width="172.6701mm"
   height="172.6701mm"
   viewBox="0 0 172.6701 172.6701"
   version="1.1"
   id="svg1"
   xml:space="preserve"
   xmlns="http://www.w3.org/2000/svg"
   xmlns:svg="http://www.w3.org/2000/svg"><defs
     id="defs1" /><g
     id="layer1"
     transform="translate(157.25102,198.81012)"><path
       id="path5"
       style="fill:#ffffff;fill-opacity:1;stroke-width:0.805188;stroke-linecap:round;stroke-linejoin:round"
       d="M -2.0863309 -198.17657 L -10.088943 -183.11289 L -10.930235 -165.68398 L -19.198981 -165.68398 L -11.423229 -155.47426 L -12.166336 -140.07934 C -28.353216 -157.12094 -50.823548 -166.77435 -74.327399 -166.78417 C -103.64471 -166.77397 -130.92652 -151.79225 -146.66717 -127.05894 L -157.25102 -127.05894 L -149.61996 -115.86014 L -157.25102 -26.140039 L -8.5138455 -26.140039 L 15.419061 -26.140039 L 8.0799737 -154.80195 L 15.419061 -165.68398 L 7.4593397 -165.68398 L 6.4490654 -183.39297 L -2.0863309 -198.17657 z M -83.43072 -192.21621 C -85.584619 -189.65499 -86.77489 -186.4211 -86.795372 -183.07465 C -86.842092 -175.15518 -80.459903 -168.69733 -72.540428 -168.65072 C -64.621155 -168.60402 -58.163395 -174.98588 -58.116503 -182.90515 C -58.102813 -186.26049 -59.266203 -189.5144 -61.404157 -192.10045 C -60.83125 -190.6836 -60.536835 -189.16959 -60.537027 -187.64129 C -60.575787 -181.07411 -65.930869 -175.78172 -72.498054 -175.82031 C -79.065241 -175.85911 -84.357627 -181.21415 -84.319038 -187.78134 C -84.309338 -189.30285 -84.007827 -190.80837 -83.43072 -192.21621 z M -114.85981 -119.90383 L -112.81911 -115.65241 C -124.26963 -110.72075 -131.1573 -103.12528 -133.48141 -92.865166 C -130.19364 -94.452366 -127.07564 -95.245899 -124.12798 -95.245899 C -118.4594 -95.245899 -114.00949 -93.715477 -110.7784 -90.654448 C -107.49063 -87.593418 -105.84692 -83.455306 -105.84692 -78.240218 C -105.84692 -75.009132 -106.72568 -72.118221 -108.48294 -69.567363 C -110.18351 -67.016505 -112.59269 -65.032415 -115.7104 -63.615271 C -118.77143 -62.198128 -122.28594 -61.489303 -126.25395 -61.489303 C -132.99955 -61.489303 -138.18635 -63.360105 -141.81424 -67.101363 C -145.38544 -70.842622 -147.17102 -76.255999 -147.17102 -83.341716 C -147.17102 -92.241376 -144.42146 -99.808775 -138.92294 -106.04421 C -133.36774 -112.33632 -125.34667 -116.95617 -114.85981 -119.90383 z M -13.250507 -119.81908 C -7.2985051 -119.81908 -2.5653728 -118.54381 0.94914276 -115.99295 C 4.4636583 -113.44209 6.2206556 -110.01229 6.2206556 -105.70418 C 6.2206556 -103.38006 5.370479 -101.05611 3.6699069 -98.731991 C 1.9693349 -96.407876 -0.26991149 -94.50901 -3.0475125 -93.035181 C 0.46700306 -91.334609 3.2165621 -89.350519 5.2005628 -87.08309 C 7.2412493 -84.81566 8.2613579 -81.896169 8.2613579 -78.324968 C 8.2613579 -73.166566 6.3910727 -69.057034 2.6498141 -65.996005 C -1.0914444 -62.991661 -6.1368938 -61.489303 -12.485696 -61.489303 C -19.458042 -61.489303 -24.842838 -62.878373 -28.640782 -65.655974 C -32.382041 -68.433575 -34.252843 -72.401238 -34.252843 -77.55964 C -34.252843 -80.223869 -33.402666 -82.86014 -31.702094 -85.467684 C -30.001522 -88.131914 -27.620407 -90.483931 -24.559378 -92.524618 C -27.110236 -93.941761 -29.094326 -95.642631 -30.511469 -97.626632 C -31.928613 -99.610633 -32.637438 -102.07646 -32.637438 -105.02411 C -32.637438 -109.55897 -30.879924 -113.15871 -27.365408 -115.82294 C -23.850892 -118.48717 -19.145824 -119.81908 -13.250507 -119.81908 z M -58.82602 -119.73381 C -52.987389 -119.73381 -48.339481 -118.28861 -44.881652 -115.39764 C -41.423822 -112.56335 -39.694888 -108.56711 -39.694888 -103.40871 C -39.694888 -98.873849 -41.423822 -94.026912 -44.881652 -88.86851 C -48.339481 -83.766794 -54.036078 -77.616529 -61.972081 -70.41744 L -39.099576 -70.41744 L -39.099576 -62.084615 L -77.617638 -62.084615 L -77.617638 -67.016097 C -71.325521 -73.081471 -66.42194 -78.268272 -62.907425 -82.576388 C -59.392909 -86.884504 -56.870443 -90.852684 -55.339928 -94.480571 C -53.752727 -98.108458 -52.959195 -101.84955 -52.959195 -105.70418 C -52.959195 -111.82623 -54.999929 -114.88759 -59.081302 -114.88759 C -60.895245 -114.88759 -62.369022 -114.0369 -63.502737 -112.33633 C -64.636452 -110.69244 -65.203409 -108.65171 -65.203409 -106.21422 C -65.203409 -104.51365 -64.607871 -102.89852 -63.417471 -101.36801 C -64.381129 -100.46103 -65.486461 -99.752209 -66.733548 -99.242037 C -67.923948 -98.731866 -69.114505 -98.476709 -70.304906 -98.476709 C -72.345592 -98.476709 -74.046462 -99.10031 -75.40692 -100.3474 C -76.767378 -101.65117 -77.447106 -103.52197 -77.447106 -105.95946 C -77.447106 -108.567 -76.682153 -110.91953 -75.151638 -113.01691 C -73.621124 -115.11428 -71.467102 -116.75799 -68.689501 -117.94839 C -65.855214 -119.13879 -62.567279 -119.73381 -58.82602 -119.73381 z M -13.250507 -113.78224 C -15.517937 -113.78224 -17.304031 -113.04535 -18.607803 -111.57152 C -19.911575 -110.15437 -20.563239 -108.22693 -20.563239 -105.78944 C -20.563239 -103.63538 -19.741126 -101.84981 -18.09724 -100.43266 C -16.396668 -99.072205 -13.930846 -97.711715 -10.699759 -96.351258 C -9.2826152 -97.314915 -8.1492186 -98.646824 -7.2989326 -100.3474 C -6.4486466 -102.04797 -6.0235582 -103.86213 -6.0235582 -105.78944 C -6.0235582 -108.22693 -6.7038029 -110.15437 -8.0642606 -111.57152 C -9.3680325 -113.04535 -11.096449 -113.78224 -13.250507 -113.78224 z M -90.881944 -101.28274 C -88.897944 -101.28274 -87.424166 -100.68772 -86.460509 -99.497319 C -85.440166 -98.363604 -84.929853 -96.776539 -84.929853 -94.735852 C -84.929853 -92.695166 -85.440166 -91.107584 -86.460509 -89.973869 C -87.424166 -88.840154 -88.897944 -88.273198 -90.881944 -88.273198 C -92.865945 -88.273198 -94.368303 -88.840154 -95.388646 -89.973869 C -96.352304 -91.16427 -96.834036 -92.751852 -96.834036 -94.735852 C -96.834036 -96.833225 -96.352304 -98.448354 -95.388646 -99.582068 C -94.368303 -100.71578 -92.865945 -101.28274 -90.881944 -101.28274 z M -126.50871 -89.293807 C -128.88951 -89.293807 -131.46914 -88.330343 -134.24674 -86.403028 L -134.24674 -85.297669 C -134.24674 -79.118924 -133.56649 -74.583787 -132.20604 -71.692814 C -130.84558 -68.801842 -128.69156 -67.356645 -125.7439 -67.356645 C -123.30641 -67.356645 -121.43561 -68.291529 -120.13184 -70.162159 C -118.82807 -72.032788 -118.17589 -74.697123 -118.17589 -78.154952 C -118.17589 -81.669468 -118.91329 -84.390447 -120.38712 -86.317762 C -121.80426 -88.301762 -123.84448 -89.293807 -126.50871 -89.293807 z M -16.737116 -89.038526 C -18.437688 -87.678068 -19.684373 -86.119583 -20.477973 -84.362325 C -21.271573 -82.605068 -21.668598 -80.50769 -21.668598 -78.070203 C -21.668598 -74.725745 -20.846485 -72.089474 -19.202599 -70.162159 C -17.558712 -68.291529 -15.319983 -67.356645 -12.485696 -67.356645 C -9.7080951 -67.356645 -7.5540731 -68.291529 -6.0235582 -70.162159 C -4.4363577 -72.032788 -3.6423082 -74.640479 -3.6423082 -77.984937 C -3.6423082 -79.855566 -4.2378453 -81.442631 -5.4282457 -82.746403 C -6.5619605 -84.106861 -8.0071574 -85.212194 -9.7644152 -86.06248 C -11.521673 -86.969452 -13.846144 -87.961497 -16.737116 -89.038526 z M -90.881944 -74.498845 C -88.897944 -74.498845 -87.424166 -73.903824 -86.460509 -72.713424 C -85.440166 -71.579709 -84.929853 -69.992127 -84.929853 -67.951441 C -84.929853 -65.910754 -85.440166 -64.323689 -86.460509 -63.189974 C -87.424166 -62.05626 -88.897944 -61.489303 -90.881944 -61.489303 C -92.865945 -61.489303 -94.368303 -62.05626 -95.388646 -63.189974 C -96.352304 -64.380375 -96.834036 -65.96744 -96.834036 -67.951441 C -96.834036 -70.048813 -96.352304 -71.664459 -95.388646 -72.798173 C -94.368303 -73.931888 -92.865945 -74.498845 -90.881944 -74.498845 z " /></g></svg>
