<?xml version="1.0" encoding="UTF-8" standalone="no"?>
<!-- Created with Inkscape (http://www.inkscape.org/) -->

<svg
   width="172.6701mm"
   height="172.6701mm"
   viewBox="0 0 172.6701 172.6701"
   version="1.1"
   id="svg1"
   xml:space="preserve"
   xmlns="http://www.w3.org/2000/svg"
   xmlns:svg="http://www.w3.org/2000/svg"><defs
     id="defs1" /><g
     id="layer1"
     transform="translate(157.25102,198.81012)"><path
       id="path5"
       style="fill:#ffffff;fill-opacity:1;stroke-width:0.805188;stroke-linecap:round;stroke-linejoin:round"
       d="M -2.0863309 -198.17657 L -10.088943 -183.11289 L -10.930235 -165.68398 L -19.198981 -165.68398 L -11.423229 -155.47426 L -12.166336 -140.07934 C -28.353216 -157.12094 -50.823548 -166.77435 -74.327399 -166.78417 C -103.64471 -166.77397 -130.92652 -151.79225 -146.66717 -127.05894 L -157.25102 -127.05894 L -149.61996 -115.86014 L -157.25102 -26.140039 L -8.5138455 -26.140039 L 15.419061 -26.140039 L 8.0799737 -154.80195 L 15.419061 -165.68398 L 7.4593397 -165.68398 L 6.4490654 -183.39297 L -2.0863309 -198.17657 z M -83.43072 -192.21621 C -85.584619 -189.65499 -86.77489 -186.4211 -86.795372 -183.07465 C -86.842092 -175.15518 -80.459903 -168.69733 -72.540428 -168.65072 C -64.621155 -168.60402 -58.163395 -174.98588 -58.116503 -182.90515 C -58.102813 -186.26049 -59.266203 -189.5144 -61.404157 -192.10045 C -60.83125 -190.6836 -60.536835 -189.16959 -60.537027 -187.64129 C -60.575787 -181.07411 -65.930869 -175.78172 -72.498054 -175.82031 C -79.065241 -175.85911 -84.357627 -181.21415 -84.319038 -187.78134 C -84.309338 -189.30285 -84.007827 -190.80837 -83.43072 -192.21621 z M -112.81911 -119.90383 L -110.7784 -115.65241 C -122.22892 -110.72075 -129.11659 -103.12528 -131.44071 -92.865166 C -128.15294 -94.452366 -125.03493 -95.245899 -122.08727 -95.245899 C -116.4187 -95.245899 -111.96879 -93.715477 -108.7377 -90.654448 C -105.44993 -87.593418 -103.80622 -83.455306 -103.80622 -78.240218 C -103.80622 -75.009132 -104.68498 -72.118221 -106.44224 -69.567363 C -108.14281 -67.016505 -110.55199 -65.032415 -113.6697 -63.615271 C -116.73073 -62.198128 -120.24524 -61.489303 -124.21324 -61.489303 C -130.95885 -61.489303 -136.14565 -63.360105 -139.77353 -67.101363 C -143.34474 -70.842622 -145.13031 -76.255999 -145.13031 -83.341716 C -145.13031 -92.241376 -142.38075 -99.808775 -136.88224 -106.04421 C -131.32704 -112.33632 -123.30597 -116.95617 -112.81911 -119.90383 z M -57.125349 -119.73381 C -53.440776 -119.73381 -50.181421 -119.11073 -47.347134 -117.86364 C -44.512847 -116.67324 -42.302181 -114.97237 -40.714981 -112.76163 C -39.12778 -110.60757 -38.334248 -108.11368 -38.334248 -105.27939 C -38.334248 -102.10499 -39.269649 -99.384015 -41.140278 -97.116586 C -43.010907 -94.849156 -45.78853 -93.120223 -49.473103 -91.929822 C -44.824872 -90.909479 -41.565517 -89.237189 -39.694888 -86.913074 C -37.824259 -84.588959 -36.888858 -81.442892 -36.888858 -77.474891 C -36.888858 -74.017061 -37.937547 -71.069506 -40.034919 -68.632019 C -42.075605 -66.194533 -44.739423 -64.380375 -48.027196 -63.189974 C -51.314969 -61.999574 -54.716192 -61.404554 -58.230708 -61.404554 C -63.332424 -61.404554 -67.669048 -62.453243 -71.240249 -64.550615 C -74.754765 -66.647987 -76.512279 -69.510317 -76.512279 -73.138204 C -76.512279 -75.235577 -75.888678 -76.851222 -74.641592 -77.984937 C -73.394506 -79.175337 -71.835504 -79.770358 -69.964875 -79.770358 C -68.03756 -79.770358 -66.08205 -79.005405 -64.09805 -77.474891 C -64.608221 -76.397862 -64.862861 -75.094016 -64.862861 -73.563501 C -64.862861 -71.749558 -64.324485 -70.275781 -63.247456 -69.142066 C -62.113741 -68.008351 -60.441451 -67.441394 -58.230708 -67.441394 C -53.355734 -67.441394 -50.918492 -70.814037 -50.918492 -77.55964 C -50.918492 -81.244213 -52.10905 -84.10706 -54.489851 -86.147746 C -56.813966 -88.188433 -60.129965 -89.208541 -64.438081 -89.208541 L -64.438081 -94.480571 C -56.105277 -95.1608 -51.938585 -98.760535 -51.938585 -105.27939 C -51.938585 -108.56717 -52.448898 -110.97583 -53.469241 -112.50634 C -54.489584 -114.09354 -55.878654 -114.88759 -57.635912 -114.88759 C -59.733284 -114.88759 -61.320349 -114.15071 -62.397378 -112.67688 C -63.417721 -111.20305 -63.928034 -109.41747 -63.928034 -107.3201 C -63.928034 -105.44947 -63.531009 -103.77718 -62.737409 -102.30335 C -64.32461 -100.60278 -66.365344 -99.752084 -68.859516 -99.752084 C -71.126945 -99.752084 -72.883943 -100.43233 -74.131029 -101.79279 C -75.378115 -103.15324 -76.001716 -104.91076 -76.001716 -107.06482 C -76.001716 -109.8991 -75.038251 -112.25164 -73.110936 -114.12227 C -71.126935 -116.04958 -68.689177 -117.46671 -65.798204 -118.37369 C -62.850546 -119.28066 -59.959635 -119.73381 -57.125349 -119.73381 z M -13.591055 -119.73381 C -7.7524243 -119.73381 -3.1039996 -118.28861 0.35383026 -115.39764 C 3.8116601 -112.56335 5.5405938 -108.56711 5.5405938 -103.40871 C 5.5405938 -98.873849 3.8116601 -94.026912 0.35383026 -88.86851 C -3.1039996 -83.766794 -8.8011133 -77.616529 -16.737116 -70.41744 L 6.1359063 -70.41744 L 6.1359063 -62.084615 L -32.382156 -62.084615 L -32.382156 -67.016097 C -26.090039 -73.081471 -21.186975 -78.268272 -17.67246 -82.576388 C -14.157944 -86.884504 -11.635478 -90.852684 -10.104963 -94.480571 C -8.5177623 -98.108458 -7.7237129 -101.84955 -7.7237129 -105.70418 C -7.7237129 -111.82623 -9.7644469 -114.88759 -13.84582 -114.88759 C -15.659763 -114.88759 -17.133541 -114.0369 -18.267255 -112.33633 C -19.40097 -110.69244 -19.967927 -108.65171 -19.967927 -106.21422 C -19.967927 -104.51365 -19.372906 -102.89852 -18.182506 -101.36801 C -19.146163 -100.46103 -20.251496 -99.752209 -21.498583 -99.242037 C -22.688983 -98.731866 -23.87954 -98.476709 -25.069941 -98.476709 C -27.110627 -98.476709 -28.810981 -99.10031 -30.171438 -100.3474 C -31.531896 -101.65117 -32.212141 -103.52197 -32.212141 -105.95946 C -32.212141 -108.567 -31.446672 -110.91953 -29.916157 -113.01691 C -28.385642 -115.11428 -26.23162 -116.75799 -23.454019 -117.94839 C -20.619732 -119.13879 -17.332314 -119.73381 -13.591055 -119.73381 z M -88.841242 -101.28274 C -86.857241 -101.28274 -85.383464 -100.68772 -84.419807 -99.497319 C -83.399463 -98.363604 -82.889151 -96.776539 -82.889151 -94.735852 C -82.889151 -92.695166 -83.399463 -91.107584 -84.419807 -89.973869 C -85.383464 -88.840154 -86.857241 -88.273198 -88.841242 -88.273198 C -90.825243 -88.273198 -92.327601 -88.840154 -93.347944 -89.973869 C -94.311601 -91.16427 -94.793334 -92.751852 -94.793334 -94.735852 C -94.793334 -96.833225 -94.311601 -98.448354 -93.347944 -99.582068 C -92.327601 -100.71578 -90.825243 -101.28274 -88.841242 -101.28274 z M -124.46801 -89.293807 C -126.84881 -89.293807 -129.42844 -88.330343 -132.20604 -86.403028 L -132.20604 -85.297669 C -132.20604 -79.118924 -131.52579 -74.583787 -130.16533 -71.692814 C -128.80488 -68.801842 -126.65086 -67.356645 -123.7032 -67.356645 C -121.26571 -67.356645 -119.39491 -68.291529 -118.09114 -70.162159 C -116.78736 -72.032788 -116.13518 -74.697123 -116.13518 -78.154952 C -116.13518 -81.669468 -116.87259 -84.390447 -118.34642 -86.317762 C -119.76356 -88.301762 -121.80378 -89.293807 -124.46801 -89.293807 z M -88.841242 -74.498845 C -86.857241 -74.498845 -85.383464 -73.903824 -84.419807 -72.713424 C -83.399463 -71.579709 -82.889151 -69.992127 -82.889151 -67.951441 C -82.889151 -65.910754 -83.399463 -64.323689 -84.419807 -63.189974 C -85.383464 -62.05626 -86.857241 -61.489303 -88.841242 -61.489303 C -90.825243 -61.489303 -92.327601 -62.05626 -93.347944 -63.189974 C -94.311601 -64.380375 -94.793334 -65.96744 -94.793334 -67.951441 C -94.793334 -70.048813 -94.311601 -71.664459 -93.347944 -72.798173 C -92.327601 -73.931888 -90.825243 -74.498845 -88.841242 -74.498845 z " /></g></svg>
