<?xml version="1.0" encoding="UTF-8" standalone="no"?>
<!-- Created with Inkscape (http://www.inkscape.org/) -->

<svg
   width="172.6701mm"
   height="172.6701mm"
   viewBox="0 0 172.6701 172.6701"
   version="1.1"
   id="svg1"
   xml:space="preserve"
   xmlns="http://www.w3.org/2000/svg"
   xmlns:svg="http://www.w3.org/2000/svg"><defs
     id="defs1" /><g
     id="layer1"
     transform="translate(157.25102,198.81012)"><path
       id="path5"
       style="fill:#ffffff;fill-opacity:1;stroke-width:0.805188;stroke-linecap:round;stroke-linejoin:round"
       d="M -2.0863309 -198.17657 L -10.088943 -183.11289 L -10.930235 -165.68398 L -19.198981 -165.68398 L -11.423229 -155.47426 L -12.166336 -140.07934 C -28.353216 -157.12094 -50.823548 -166.77435 -74.327399 -166.78417 C -103.64471 -166.77397 -130.92652 -151.79225 -146.66717 -127.05894 L -157.25102 -127.05894 L -149.61996 -115.86014 L -157.25102 -26.140039 L -8.5138455 -26.140039 L 15.419061 -26.140039 L 8.0799737 -154.80195 L 15.419061 -165.68398 L 7.4593397 -165.68398 L 6.4490654 -183.39297 L -2.0863309 -198.17657 z M -83.43072 -192.21621 C -85.584619 -189.65499 -86.77489 -186.4211 -86.795372 -183.07465 C -86.842092 -175.15518 -80.459903 -168.69733 -72.540428 -168.65072 C -64.621155 -168.60402 -58.163395 -174.98588 -58.116503 -182.90515 C -58.102813 -186.26049 -59.266203 -189.5144 -61.404157 -192.10045 C -60.83125 -190.6836 -60.536835 -189.16959 -60.537027 -187.64129 C -60.575787 -181.07411 -65.930869 -175.78172 -72.498054 -175.82031 C -79.065241 -175.85911 -84.357627 -181.21415 -84.319038 -187.78134 C -84.309338 -189.30285 -84.007827 -190.80837 -83.43072 -192.21621 z M -114.13737 -119.90383 L -112.09667 -115.65241 C -123.54719 -110.72075 -130.43434 -103.12528 -132.75846 -92.865166 C -129.47069 -94.452366 -126.3532 -95.245899 -123.40554 -95.245899 C -117.73697 -95.245899 -113.28705 -93.715477 -110.05597 -90.654448 C -106.7682 -87.593418 -105.12397 -83.455306 -105.12397 -78.240218 C -105.12397 -75.009132 -106.00273 -72.118221 -107.75998 -69.567363 C -109.46056 -67.016505 -111.86973 -65.032415 -114.98745 -63.615271 C -118.04848 -62.198128 -121.56299 -61.489303 -125.53099 -61.489303 C -132.27659 -61.489303 -137.4634 -63.360105 -141.09128 -67.101363 C -144.66248 -70.842622 -146.44806 -76.255999 -146.44806 -83.341716 C -146.44806 -92.241376 -143.69902 -99.808775 -138.2005 -106.04421 C -132.6453 -112.33632 -124.62423 -116.95617 -114.13737 -119.90383 z M -1.3892158 -119.90383 L 0.65148651 -115.65241 C -10.799032 -110.72075 -17.686703 -103.12528 -20.010818 -92.865166 C -16.723046 -94.452366 -13.605042 -95.245899 -10.657384 -95.245899 C -4.9888104 -95.245899 -0.53889808 -93.715477 2.6921888 -90.654448 C 5.9799615 -87.593418 7.6236708 -83.455306 7.6236708 -78.240218 C 7.6236708 -75.009132 6.7449137 -72.118221 4.9876559 -69.567363 C 3.2870839 -67.016505 0.87790555 -65.032415 -2.2398099 -63.615271 C -5.3008396 -62.198128 -8.8153509 -61.489303 -12.783352 -61.489303 C -19.528955 -61.489303 -24.715756 -63.360105 -28.343643 -67.101363 C -31.914844 -70.842622 -33.700422 -76.255999 -33.700422 -83.341716 C -33.700422 -92.241376 -30.950863 -99.808775 -25.452346 -106.04421 C -19.897144 -112.33632 -11.876077 -116.95617 -1.3892158 -119.90383 z M -58.443614 -119.73381 C -54.759042 -119.73381 -51.499687 -119.11073 -48.6654 -117.86364 C -45.831113 -116.67324 -43.61993 -114.97237 -42.03273 -112.76163 C -40.445529 -110.60757 -39.651997 -108.11368 -39.651997 -105.27939 C -39.651997 -102.10499 -40.587398 -99.384015 -42.458027 -97.116586 C -44.328656 -94.849156 -47.106279 -93.120223 -50.790852 -91.929822 C -46.142621 -90.909479 -42.883266 -89.237189 -41.012637 -86.913074 C -39.142008 -84.588959 -38.206607 -81.442892 -38.206607 -77.474891 C -38.206607 -74.017061 -39.255296 -71.069506 -41.352668 -68.632019 C -43.393354 -66.194533 -46.057689 -64.380375 -49.345462 -63.189974 C -52.633234 -61.999574 -56.034458 -61.404554 -59.548973 -61.404554 C -64.650689 -61.404554 -68.986797 -62.453243 -72.557998 -64.550615 C -76.072514 -66.647987 -77.830028 -69.510317 -77.830028 -73.138204 C -77.830028 -75.235577 -77.206427 -76.851222 -75.959341 -77.984937 C -74.712255 -79.175337 -73.153253 -79.770358 -71.282624 -79.770358 C -69.355309 -79.770358 -67.399799 -79.005405 -65.415799 -77.474891 C -65.92597 -76.397862 -66.181127 -75.094016 -66.181127 -73.563501 C -66.181127 -71.749558 -65.64275 -70.275781 -64.565721 -69.142066 C -63.432007 -68.008351 -61.759717 -67.441394 -59.548973 -67.441394 C -54.674 -67.441394 -52.236241 -70.814037 -52.236241 -77.55964 C -52.236241 -81.244213 -53.426799 -84.10706 -55.8076 -86.147746 C -58.131715 -88.188433 -61.447714 -89.208541 -65.75583 -89.208541 L -65.75583 -94.480571 C -57.423027 -95.1608 -53.256851 -98.760535 -53.256851 -105.27939 C -53.256851 -108.56717 -53.766647 -110.97583 -54.78699 -112.50634 C -55.807333 -114.09354 -57.196403 -114.88759 -58.953661 -114.88759 C -61.051033 -114.88759 -62.638098 -114.15071 -63.715127 -112.67688 C -64.73547 -111.20305 -65.245783 -109.41747 -65.245783 -107.3201 C -65.245783 -105.44947 -64.848758 -103.77718 -64.055158 -102.30335 C -65.642359 -100.60278 -67.683093 -99.752084 -70.177265 -99.752084 C -72.444695 -99.752084 -74.202209 -100.43233 -75.449295 -101.79279 C -76.696381 -103.15324 -77.319982 -104.91076 -77.319982 -107.06482 C -77.319982 -109.8991 -76.356 -112.25164 -74.428685 -114.12227 C -72.444684 -116.04958 -70.007443 -117.46671 -67.11647 -118.37369 C -64.168812 -119.28066 -61.277901 -119.73381 -58.443614 -119.73381 z M -90.158991 -101.28274 C -88.17499 -101.28274 -86.701213 -100.68772 -85.737556 -99.497319 C -84.717212 -98.363604 -84.207416 -96.776539 -84.207416 -94.735852 C -84.207416 -92.695166 -84.717212 -91.107584 -85.737556 -89.973869 C -86.701213 -88.840154 -88.17499 -88.273198 -90.158991 -88.273198 C -92.142992 -88.273198 -93.64535 -88.840154 -94.665693 -89.973869 C -95.62935 -91.16427 -96.111083 -92.751852 -96.111083 -94.735852 C -96.111083 -96.833225 -95.62935 -98.448354 -94.665693 -99.582068 C -93.64535 -100.71578 -92.142992 -101.28274 -90.158991 -101.28274 z M -125.78627 -89.293807 C -128.16707 -89.293807 -130.74619 -88.330343 -133.52379 -86.403028 L -133.52379 -85.297669 C -133.52379 -79.118924 -132.84354 -74.583787 -131.48308 -71.692814 C -130.12263 -68.801842 -127.9686 -67.356645 -125.02095 -67.356645 C -122.58346 -67.356645 -120.71266 -68.291529 -119.40889 -70.162159 C -118.10511 -72.032788 -117.45345 -74.697123 -117.45345 -78.154952 C -117.45345 -81.669468 -118.19034 -84.390447 -119.66417 -86.317762 C -121.08131 -88.301762 -123.12204 -89.293807 -125.78627 -89.293807 z M -13.038117 -89.293807 C -15.418918 -89.293807 -17.998028 -88.330343 -20.775629 -86.403028 L -20.775629 -85.297669 C -20.775629 -79.118924 -20.095385 -74.583787 -18.734927 -71.692814 C -17.374469 -68.801842 -15.220447 -67.356645 -12.272789 -67.356645 C -9.8353026 -67.356645 -7.9650173 -68.291529 -6.6612454 -70.162159 C -5.3574735 -72.032788 -4.7052925 -74.697123 -4.7052925 -78.154952 C -4.7052925 -81.669468 -5.4421811 -84.390447 -6.9160102 -86.317762 C -8.3331536 -88.301762 -10.373888 -89.293807 -13.038117 -89.293807 z M -90.158991 -74.498845 C -88.17499 -74.498845 -86.701213 -73.903824 -85.737556 -72.713424 C -84.717212 -71.579709 -84.207416 -69.992127 -84.207416 -67.951441 C -84.207416 -65.910754 -84.717212 -64.323689 -85.737556 -63.189974 C -86.701213 -62.05626 -88.17499 -61.489303 -90.158991 -61.489303 C -92.142992 -61.489303 -93.64535 -62.05626 -94.665693 -63.189974 C -95.62935 -64.380375 -96.111083 -65.96744 -96.111083 -67.951441 C -96.111083 -70.048813 -95.62935 -71.664459 -94.665693 -72.798173 C -93.64535 -73.931888 -92.142992 -74.498845 -90.158991 -74.498845 z " /></g></svg>
