<?xml version="1.0" encoding="UTF-8" standalone="no"?>
<!-- Created with Inkscape (http://www.inkscape.org/) -->

<svg
   width="172.6701mm"
   height="172.6701mm"
   viewBox="0 0 172.6701 172.6701"
   version="1.1"
   id="svg1"
   xml:space="preserve"
   xmlns="http://www.w3.org/2000/svg"
   xmlns:svg="http://www.w3.org/2000/svg"><defs
     id="defs1" /><g
     id="layer1"
     transform="translate(157.25102,198.81012)"><path
       id="path5"
       style="fill:#ffffff;fill-opacity:1;stroke-width:0.805188;stroke-linecap:round;stroke-linejoin:round"
       d="M -2.0863309 -198.17657 L -10.088943 -183.11289 L -10.930235 -165.68398 L -19.198981 -165.68398 L -11.423229 -155.47426 L -12.166336 -140.07934 C -28.353216 -157.12094 -50.823548 -166.77435 -74.327399 -166.78417 C -103.64471 -166.77397 -130.92652 -151.79225 -146.66717 -127.05894 L -157.25102 -127.05894 L -149.61996 -115.86014 L -157.25102 -26.140039 L -8.5138455 -26.140039 L 15.419061 -26.140039 L 8.0799737 -154.80195 L 15.419061 -165.68398 L 7.4593397 -165.68398 L 6.4490654 -183.39297 L -2.0863309 -198.17657 z M -83.43072 -192.21621 C -85.584619 -189.65499 -86.77489 -186.4211 -86.795372 -183.07465 C -86.842092 -175.15518 -80.459903 -168.69733 -72.540428 -168.65072 C -64.621155 -168.60402 -58.163395 -174.98588 -58.116503 -182.90515 C -58.102813 -186.26049 -59.266203 -189.5144 -61.404157 -192.10045 C -60.83125 -190.6836 -60.536835 -189.16959 -60.537027 -187.64129 C -60.575787 -181.07411 -65.930869 -175.78172 -72.498054 -175.82031 C -79.065241 -175.85911 -84.357627 -181.21415 -84.319038 -187.78134 C -84.309338 -189.30285 -84.007827 -190.80837 -83.43072 -192.21621 z M -114.9027 -119.90383 L -112.862 -115.65241 C -124.31252 -110.72075 -131.19967 -103.12528 -133.52379 -92.865166 C -130.23601 -94.452366 -127.11853 -95.245899 -124.17087 -95.245899 C -118.5023 -95.245899 -114.05238 -93.715477 -110.8213 -90.654448 C -107.53352 -87.593418 -105.8893 -83.455306 -105.8893 -78.240218 C -105.8893 -75.009132 -106.76805 -72.118221 -108.52531 -69.567363 C -110.22588 -67.016505 -112.63506 -65.032415 -115.75278 -63.615271 C -118.81381 -62.198128 -122.32832 -61.489303 -126.29632 -61.489303 C -133.04192 -61.489303 -138.22872 -63.360105 -141.85661 -67.101363 C -145.42781 -70.842622 -147.21339 -76.255999 -147.21339 -83.341716 C -147.21339 -92.241376 -144.46435 -99.808775 -138.96583 -106.04421 C -133.41063 -112.33632 -125.38956 -116.95617 -114.9027 -119.90383 z M -13.208133 -119.81908 C -7.2561304 -119.81908 -2.5229981 -118.54381 0.99151743 -115.99295 C 4.506033 -113.44209 6.2630303 -110.01229 6.2630303 -105.70418 C 6.2630303 -103.38006 5.4128536 -101.05611 3.7122816 -98.731991 C 2.0117095 -96.407876 -0.22702006 -94.50901 -3.0046211 -93.035181 C 0.5098945 -91.334609 3.2589368 -89.350519 5.2429375 -87.08309 C 7.283624 -84.81566 8.3037326 -81.896169 8.3037326 -78.324968 C 8.3037326 -73.166566 6.4334473 -69.057034 2.6921888 -65.996005 C -1.0490697 -62.991661 -6.0940023 -61.489303 -12.442805 -61.489303 C -19.41515 -61.489303 -24.800463 -62.878373 -28.598408 -65.655974 C -32.339666 -68.433575 -34.210468 -72.401238 -34.210468 -77.55964 C -34.210468 -80.223869 -33.360292 -82.86014 -31.65972 -85.467684 C -29.959147 -88.131914 -27.578033 -90.483931 -24.517003 -92.524618 C -27.067861 -93.941761 -29.051951 -95.642631 -30.469095 -97.626632 C -31.886238 -99.610633 -32.594546 -102.07646 -32.594546 -105.02411 C -32.594546 -109.55897 -30.837549 -113.15871 -27.323033 -115.82294 C -23.808518 -118.48717 -19.103449 -119.81908 -13.208133 -119.81908 z M -59.208942 -119.73381 C -55.52437 -119.73381 -52.264498 -119.11073 -49.430211 -117.86364 C -46.595924 -116.67324 -44.385258 -114.97237 -42.798058 -112.76163 C -41.210857 -110.60757 -40.417325 -108.11368 -40.417325 -105.27939 C -40.417325 -102.10499 -41.352726 -99.384015 -43.223355 -97.116586 C -45.093984 -94.849156 -47.871607 -93.120223 -51.55618 -91.929822 C -46.907949 -90.909479 -43.648594 -89.237189 -41.777965 -86.913074 C -39.907336 -84.588959 -38.971935 -81.442892 -38.971935 -77.474891 C -38.971935 -74.017061 -40.020624 -71.069506 -42.117996 -68.632019 C -44.158682 -66.194533 -46.823017 -64.380375 -50.11079 -63.189974 C -53.398562 -61.999574 -56.799786 -61.404554 -60.314301 -61.404554 C -65.416017 -61.404554 -69.752125 -62.453243 -73.323326 -64.550615 C -76.837842 -66.647987 -78.595356 -69.510317 -78.595356 -73.138204 C -78.595356 -75.235577 -77.971755 -76.851222 -76.724669 -77.984937 C -75.477583 -79.175337 -73.918581 -79.770358 -72.047952 -79.770358 C -70.120637 -79.770358 -68.165127 -79.005405 -66.181127 -77.474891 C -66.691298 -76.397862 -66.946455 -75.094016 -66.946455 -73.563501 C -66.946455 -71.749558 -66.407561 -70.275781 -65.330533 -69.142066 C -64.196818 -68.008351 -62.525045 -67.441394 -60.314301 -67.441394 C -55.439328 -67.441394 -53.001569 -70.814037 -53.001569 -77.55964 C -53.001569 -81.244213 -54.192127 -84.10706 -56.572928 -86.147746 C -58.897043 -88.188433 -62.213042 -89.208541 -66.521158 -89.208541 L -66.521158 -94.480571 C -58.188354 -95.1608 -54.022179 -98.760535 -54.022179 -105.27939 C -54.022179 -108.56717 -54.531975 -110.97583 -55.552318 -112.50634 C -56.572661 -114.09354 -57.961731 -114.88759 -59.718989 -114.88759 C -61.816361 -114.88759 -63.403426 -114.15071 -64.480455 -112.67688 C -65.500798 -111.20305 -66.011111 -109.41747 -66.011111 -107.3201 C -66.011111 -105.44947 -65.614086 -103.77718 -64.820486 -102.30335 C -66.407687 -100.60278 -68.448421 -99.752084 -70.942593 -99.752084 C -73.210022 -99.752084 -74.967537 -100.43233 -76.214623 -101.79279 C -77.461709 -103.15324 -78.084793 -104.91076 -78.084793 -107.06482 C -78.084793 -109.8991 -77.121328 -112.25164 -75.194013 -114.12227 C -73.210012 -116.04958 -70.77277 -117.46671 -67.881798 -118.37369 C -64.93414 -119.28066 -62.043229 -119.73381 -59.208942 -119.73381 z M -13.208133 -113.78224 C -15.475562 -113.78224 -17.26114 -113.04535 -18.564912 -111.57152 C -19.868684 -110.15437 -20.520865 -108.22693 -20.520865 -105.78944 C -20.520865 -103.63538 -19.698752 -101.84981 -18.054865 -100.43266 C -16.354293 -99.072205 -13.888471 -97.711715 -10.657384 -96.351258 C -9.2402406 -97.314915 -8.1063272 -98.646824 -7.2560412 -100.3474 C -6.4057551 -102.04797 -5.9806668 -103.86213 -5.9806668 -105.78944 C -5.9806668 -108.22693 -6.6609115 -110.15437 -8.0213691 -111.57152 C -9.325141 -113.04535 -11.054075 -113.78224 -13.208133 -113.78224 z M -90.924319 -101.28274 C -88.940318 -101.28274 -87.466541 -100.68772 -86.502884 -99.497319 C -85.48254 -98.363604 -84.972228 -96.776539 -84.972228 -94.735852 C -84.972228 -92.695166 -85.48254 -91.107584 -86.502884 -89.973869 C -87.466541 -88.840154 -88.940318 -88.273198 -90.924319 -88.273198 C -92.90832 -88.273198 -94.410678 -88.840154 -95.431021 -89.973869 C -96.394678 -91.16427 -96.876411 -92.751852 -96.876411 -94.735852 C -96.876411 -96.833225 -96.394678 -98.448354 -95.431021 -99.582068 C -94.410678 -100.71578 -92.90832 -101.28274 -90.924319 -101.28274 z M -126.5516 -89.293807 C -128.9324 -89.293807 -131.51151 -88.330343 -134.28911 -86.403028 L -134.28911 -85.297669 C -134.28911 -79.118924 -133.60887 -74.583787 -132.24841 -71.692814 C -130.88795 -68.801842 -128.73393 -67.356645 -125.78627 -67.356645 C -123.34879 -67.356645 -121.47799 -68.291529 -120.17421 -70.162159 C -118.87044 -72.032788 -118.21878 -74.697123 -118.21878 -78.154952 C -118.21878 -81.669468 -118.95567 -84.390447 -120.42949 -86.317762 C -121.84664 -88.301762 -123.88737 -89.293807 -126.5516 -89.293807 z M -16.694225 -89.038526 C -18.394797 -87.678068 -19.641998 -86.119583 -20.435598 -84.362325 C -21.229199 -82.605068 -21.626223 -80.50769 -21.626223 -78.070203 C -21.626223 -74.725745 -20.80411 -72.089474 -19.160224 -70.162159 C -17.516338 -68.291529 -15.277091 -67.356645 -12.442805 -67.356645 C -9.6652036 -67.356645 -7.5111817 -68.291529 -5.9806668 -70.162159 C -4.3934662 -72.032788 -3.5999336 -74.640479 -3.5999336 -77.984937 C -3.5999336 -79.855566 -4.1954706 -81.442631 -5.3858711 -82.746403 C -6.5195858 -84.106861 -7.9647827 -85.212194 -9.7220405 -86.06248 C -11.479298 -86.969452 -13.803252 -87.961497 -16.694225 -89.038526 z M -90.924319 -74.498845 C -88.940318 -74.498845 -87.466541 -73.903824 -86.502884 -72.713424 C -85.48254 -71.579709 -84.972228 -69.992127 -84.972228 -67.951441 C -84.972228 -65.910754 -85.48254 -64.323689 -86.502884 -63.189974 C -87.466541 -62.05626 -88.940318 -61.489303 -90.924319 -61.489303 C -92.90832 -61.489303 -94.410678 -62.05626 -95.431021 -63.189974 C -96.394678 -64.380375 -96.876411 -65.96744 -96.876411 -67.951441 C -96.876411 -70.048813 -96.394678 -71.664459 -95.431021 -72.798173 C -94.410678 -73.931888 -92.90832 -74.498845 -90.924319 -74.498845 z " /></g></svg>
