<?xml version="1.0" encoding="UTF-8" standalone="no"?>
<!-- Created with Inkscape (http://www.inkscape.org/) -->

<svg
   width="172.6701mm"
   height="172.6701mm"
   viewBox="0 0 172.6701 172.6701"
   version="1.1"
   id="svg1"
   xml:space="preserve"
   xmlns="http://www.w3.org/2000/svg"
   xmlns:svg="http://www.w3.org/2000/svg"><defs
     id="defs1" /><g
     id="layer1"
     transform="translate(157.25102,198.81012)"><path
       id="path5"
       style="fill:#ffffff;fill-opacity:1;stroke-width:0.805188;stroke-linecap:round;stroke-linejoin:round"
       d="M -2.0863309 -198.17657 L -10.088943 -183.11289 L -10.930235 -165.68398 L -19.198981 -165.68398 L -11.423229 -155.47426 L -12.166336 -140.07934 C -28.353216 -157.12094 -50.823548 -166.77435 -74.327399 -166.78417 C -103.64471 -166.77397 -130.92652 -151.79225 -146.66717 -127.05894 L -157.25102 -127.05894 L -149.61996 -115.86014 L -157.25102 -26.140039 L -8.5138455 -26.140039 L 15.419061 -26.140039 L 8.0799737 -154.80195 L 15.419061 -165.68398 L 7.4593397 -165.68398 L 6.4490654 -183.39297 L -2.0863309 -198.17657 z M -83.43072 -192.21621 C -85.584619 -189.65499 -86.77489 -186.4211 -86.795372 -183.07465 C -86.842092 -175.15518 -80.459903 -168.69733 -72.540428 -168.65072 C -64.621155 -168.60402 -58.163395 -174.98588 -58.116503 -182.90515 C -58.102813 -186.26049 -59.266203 -189.5144 -61.404157 -192.10045 C -60.83125 -190.6836 -60.536835 -189.16959 -60.537027 -187.64129 C -60.575787 -181.07411 -65.930869 -175.78172 -72.498054 -175.82031 C -79.065241 -175.85911 -84.357627 -181.21415 -84.319038 -187.78134 C -84.309338 -189.30285 -84.007827 -190.80837 -83.43072 -192.21621 z M -59.421333 -120.07436 C -54.886474 -119.84761 -51.20203 -118.85557 -48.367744 -117.09831 L -68.604235 -83.767013 L -55.595209 -83.767013 L -54.744615 -97.626632 C -52.930672 -97.626632 -51.626827 -97.995076 -50.833226 -98.731991 C -49.98294 -99.468905 -49.331276 -100.71611 -48.87779 -102.47336 L -44.031057 -102.47336 L -44.116324 -83.341716 C -41.962266 -82.718173 -39.241287 -82.066508 -35.953514 -81.38628 L -36.378295 -77.304875 L -44.541104 -77.304875 L -44.541104 -62.084615 L -55.595209 -62.084615 L -55.595209 -77.304875 L -80.168387 -77.304875 L -80.848448 -80.36567 L -59.421333 -120.07436 z M -116.05043 -119.90383 L -114.00973 -115.65241 C -125.46025 -110.72075 -132.3474 -103.12528 -134.67152 -92.865166 C -131.38375 -94.452366 -128.26626 -95.245899 -125.3186 -95.245899 C -119.65003 -95.245899 -115.20012 -93.715477 -111.96903 -90.654448 C -108.68126 -87.593418 -107.03755 -83.455306 -107.03755 -78.240218 C -107.03755 -75.009132 -107.91579 -72.118221 -109.67305 -69.567363 C -111.37362 -67.016505 -113.7828 -65.032415 -116.90051 -63.615271 C -119.96154 -62.198128 -123.47605 -61.489303 -127.44405 -61.489303 C -134.18966 -61.489303 -139.37646 -63.360105 -143.00434 -67.101363 C -146.57555 -70.842622 -148.36112 -76.255999 -148.36112 -83.341716 C -148.36112 -92.241376 -145.61208 -99.808775 -140.11356 -106.04421 C -134.55836 -112.33632 -126.5373 -116.95617 -116.05043 -119.90383 z M 0.52384572 -119.90383 L 2.564548 -115.65241 C -8.8859704 -110.72075 -15.773125 -103.12528 -18.09724 -92.865166 C -14.809467 -94.452366 -11.691981 -95.245899 -8.7443224 -95.245899 C -3.0757489 -95.245899 1.3741634 -93.715477 4.6052503 -90.654448 C 7.893023 -87.593418 9.5367323 -83.455306 9.5367323 -78.240218 C 9.5367323 -75.009132 8.6579753 -72.118221 6.9007175 -69.567363 C 5.2001454 -67.016505 2.7914838 -65.032415 -0.32623159 -63.615271 C -3.3872613 -62.198128 -6.9017726 -61.489303 -10.869774 -61.489303 C -17.615377 -61.489303 -22.802178 -63.360105 -26.430065 -67.101363 C -30.001266 -70.842622 -31.786844 -76.255999 -31.786844 -83.341716 C -31.786844 -92.241376 -29.037801 -99.808775 -23.539285 -106.04421 C -17.984083 -112.33632 -9.9630153 -116.95617 0.52384572 -119.90383 z M -92.072569 -101.28274 C -90.088569 -101.28274 -88.614275 -100.68772 -87.650617 -99.497319 C -86.630274 -98.363604 -86.120478 -96.776539 -86.120478 -94.735852 C -86.120478 -92.695166 -86.630274 -91.107584 -87.650617 -89.973869 C -88.614275 -88.840154 -90.088569 -88.273198 -92.072569 -88.273198 C -94.05657 -88.273198 -95.558411 -88.840154 -96.578754 -89.973869 C -97.542412 -91.16427 -98.024144 -92.751852 -98.024144 -94.735852 C -98.024144 -96.833225 -97.542412 -98.448354 -96.578754 -99.582068 C -95.558411 -100.71578 -94.05657 -101.28274 -92.072569 -101.28274 z M -127.69934 -89.293807 C -130.08014 -89.293807 -132.65925 -88.330343 -135.43685 -86.403028 L -135.43685 -85.297669 C -135.43685 -79.118924 -134.7566 -74.583787 -133.39615 -71.692814 C -132.03569 -68.801842 -129.88167 -67.356645 -126.93401 -67.356645 C -124.49652 -67.356645 -122.62572 -68.291529 -121.32195 -70.162159 C -120.01818 -72.032788 -119.36651 -74.697123 -119.36651 -78.154952 C -119.36651 -81.669468 -120.1034 -84.390447 -121.57723 -86.317762 C -122.99437 -88.301762 -125.03511 -89.293807 -127.69934 -89.293807 z M -11.125056 -89.293807 C -13.505857 -89.293807 -16.084967 -88.330343 -18.862568 -86.403028 L -18.862568 -85.297669 C -18.862568 -79.118924 -18.182323 -74.583787 -16.821866 -71.692814 C -15.461408 -68.801842 -13.307386 -67.356645 -10.359728 -67.356645 C -7.9222411 -67.356645 -6.0519558 -68.291529 -4.7481839 -70.162159 C -3.444412 -72.032788 -2.7922309 -74.697123 -2.7922309 -78.154952 C -2.7922309 -81.669468 -3.5291196 -84.390447 -5.0029487 -86.317762 C -6.4200921 -88.301762 -8.4608261 -89.293807 -11.125056 -89.293807 z M -92.072569 -74.498845 C -90.088569 -74.498845 -88.614275 -73.903824 -87.650617 -72.713424 C -86.630274 -71.579709 -86.120478 -69.992127 -86.120478 -67.951441 C -86.120478 -65.910754 -86.630274 -64.323689 -87.650617 -63.189974 C -88.614275 -62.05626 -90.088569 -61.489303 -92.072569 -61.489303 C -94.05657 -61.489303 -95.558411 -62.05626 -96.578754 -63.189974 C -97.542412 -64.380375 -98.024144 -65.96744 -98.024144 -67.951441 C -98.024144 -70.048813 -97.542412 -71.664459 -96.578754 -72.798173 C -95.558411 -73.931888 -94.05657 -74.498845 -92.072569 -74.498845 z " /></g></svg>
