<?xml version="1.0" encoding="UTF-8" standalone="no"?>
<!-- Created with Inkscape (http://www.inkscape.org/) -->

<svg
   width="172.6701mm"
   height="172.6701mm"
   viewBox="0 0 172.6701 172.6701"
   version="1.1"
   id="svg1"
   xml:space="preserve"
   xmlns="http://www.w3.org/2000/svg"
   xmlns:svg="http://www.w3.org/2000/svg"><defs
     id="defs1" /><g
     id="layer1"
     transform="translate(157.25102,198.81012)"><path
       id="path5"
       style="fill:#ffffff;fill-opacity:1;stroke-width:0.805188;stroke-linecap:round;stroke-linejoin:round"
       d="M -2.0863309 -198.17657 L -10.088943 -183.11289 L -10.930235 -165.68398 L -19.198981 -165.68398 L -11.423229 -155.47426 L -12.166336 -140.07934 C -28.353216 -157.12094 -50.823548 -166.77435 -74.327399 -166.78417 C -103.64471 -166.77397 -130.92652 -151.79225 -146.66717 -127.05894 L -157.25102 -127.05894 L -149.61996 -115.86014 L -157.25102 -26.140039 L -8.5138455 -26.140039 L 15.419061 -26.140039 L 8.0799737 -154.80195 L 15.419061 -165.68398 L 7.4593397 -165.68398 L 6.4490654 -183.39297 L -2.0863309 -198.17657 z M -83.43072 -192.21621 C -85.584619 -189.65499 -86.77489 -186.4211 -86.795372 -183.07465 C -86.842092 -175.15518 -80.459903 -168.69733 -72.540428 -168.65072 C -64.621155 -168.60402 -58.163395 -174.98588 -58.116503 -182.90515 C -58.102813 -186.26049 -59.266203 -189.5144 -61.404157 -192.10045 C -60.83125 -190.6836 -60.536835 -189.16959 -60.537027 -187.64129 C -60.575787 -181.07411 -65.930869 -175.78172 -72.498054 -175.82031 C -79.065241 -175.85911 -84.357627 -181.21415 -84.319038 -187.78134 C -84.309338 -189.30285 -84.007827 -190.80837 -83.43072 -192.21621 z M -60.18666 -120.07436 C -55.651802 -119.84761 -51.966842 -118.85557 -49.132555 -117.09831 L -69.369562 -83.767013 L -56.360021 -83.767013 L -55.509943 -97.626632 C -53.696 -97.626632 -52.392154 -97.995076 -51.598554 -98.731991 C -50.748268 -99.468905 -50.096604 -100.71611 -49.643118 -102.47336 L -44.796385 -102.47336 L -44.881135 -83.341716 C -42.727077 -82.718173 -40.006615 -82.066508 -36.718842 -81.38628 L -37.143623 -77.304875 L -45.306432 -77.304875 L -45.306432 -62.084615 L -56.360021 -62.084615 L -56.360021 -77.304875 L -80.933714 -77.304875 L -81.613776 -80.36567 L -60.18666 -120.07436 z M -116.81576 -119.90383 L -114.77506 -115.65241 C -126.22558 -110.72075 -133.11273 -103.12528 -135.43685 -92.865166 C -132.14908 -94.452366 -129.03159 -95.245899 -126.08393 -95.245899 C -120.41536 -95.245899 -115.96544 -93.715477 -112.73436 -90.654448 C -109.44658 -87.593418 -107.80236 -83.455306 -107.80236 -78.240218 C -107.80236 -75.009132 -108.68112 -72.118221 -110.43837 -69.567363 C -112.13895 -67.016505 -114.54812 -65.032415 -117.66584 -63.615271 C -120.72687 -62.198128 -124.24138 -61.489303 -128.20938 -61.489303 C -134.95498 -61.489303 -140.14179 -63.360105 -143.76967 -67.101363 C -147.34087 -70.842622 -149.12645 -76.255999 -149.12645 -83.341716 C -149.12645 -92.241376 -146.37741 -99.808775 -140.87889 -106.04421 C -135.32369 -112.33632 -127.30262 -116.95617 -116.81576 -119.90383 z M -11.295071 -119.81908 C -5.3430689 -119.81908 -0.60993662 -118.54381 2.904579 -115.99295 C 6.4190945 -113.44209 8.1766086 -110.01229 8.1766086 -105.70418 C 8.1766086 -103.38006 7.3259152 -101.05611 5.6253431 -98.731991 C 3.9247711 -96.407876 1.6860415 -94.50901 -1.0915596 -93.035181 C 2.422956 -91.334609 5.1719983 -89.350519 7.155999 -87.08309 C 9.1966855 -84.81566 10.217311 -81.896169 10.217311 -78.324968 C 10.217311 -73.166566 8.3465089 -69.057034 4.6052503 -65.996005 C 0.86399183 -62.991661 -4.1809408 -61.489303 -10.529743 -61.489303 C -17.502089 -61.489303 -22.887402 -62.878373 -26.685346 -65.655974 C -30.426605 -68.433575 -32.297407 -72.401238 -32.297407 -77.55964 C -32.297407 -80.223869 -31.446713 -82.86014 -29.746141 -85.467684 C -28.045569 -88.131914 -25.664971 -90.483931 -22.603942 -92.524618 C -25.1548 -93.941761 -27.13889 -95.642631 -28.556033 -97.626632 C -29.973176 -99.610633 -30.681485 -102.07646 -30.681485 -105.02411 C -30.681485 -109.55897 -28.924487 -113.15871 -25.409972 -115.82294 C -21.895456 -118.48717 -17.190388 -119.81908 -11.295071 -119.81908 z M -11.295071 -113.78224 C -13.562501 -113.78224 -15.348078 -113.04535 -16.65185 -111.57152 C -17.955622 -110.15437 -18.607803 -108.22693 -18.607803 -105.78944 C -18.607803 -103.63538 -17.78569 -101.84981 -16.141804 -100.43266 C -14.441232 -99.072205 -11.975409 -97.711715 -8.7443224 -96.351258 C -7.327179 -97.314915 -6.1932657 -98.646824 -5.3429796 -100.3474 C -4.4926936 -102.04797 -4.0676053 -103.86213 -4.0676053 -105.78944 C -4.0676053 -108.22693 -4.74785 -110.15437 -6.1083076 -111.57152 C -7.4120795 -113.04535 -9.1410132 -113.78224 -11.295071 -113.78224 z M -92.837381 -101.28274 C -90.85338 -101.28274 -89.379603 -100.68772 -88.415945 -99.497319 C -87.395602 -98.363604 -86.885806 -96.776539 -86.885806 -94.735852 C -86.885806 -92.695166 -87.395602 -91.107584 -88.415945 -89.973869 C -89.379603 -88.840154 -90.85338 -88.273198 -92.837381 -88.273198 C -94.821381 -88.273198 -96.323739 -88.840154 -97.344082 -89.973869 C -98.30774 -91.16427 -98.789472 -92.751852 -98.789472 -94.735852 C -98.789472 -96.833225 -98.30774 -98.448354 -97.344082 -99.582068 C -96.323739 -100.71578 -94.821381 -101.28274 -92.837381 -101.28274 z M -128.46466 -89.293807 C -130.84546 -89.293807 -133.42457 -88.330343 -136.20218 -86.403028 L -136.20218 -85.297669 C -136.20218 -79.118924 -135.52193 -74.583787 -134.16147 -71.692814 C -132.80102 -68.801842 -130.64699 -67.356645 -127.69934 -67.356645 C -125.26185 -67.356645 -123.39105 -68.291529 -122.08727 -70.162159 C -120.7835 -72.032788 -120.13184 -74.697123 -120.13184 -78.154952 C -120.13184 -81.669468 -120.86873 -84.390447 -122.34256 -86.317762 C -123.7597 -88.301762 -125.80043 -89.293807 -128.46466 -89.293807 z M -14.781163 -89.038526 C -16.481735 -87.678068 -17.728937 -86.119583 -18.522537 -84.362325 C -19.316137 -82.605068 -19.713162 -80.50769 -19.713162 -78.070203 C -19.713162 -74.725745 -18.891049 -72.089474 -17.247163 -70.162159 C -15.603276 -68.291529 -13.36403 -67.356645 -10.529743 -67.356645 C -7.7521421 -67.356645 -5.5981201 -68.291529 -4.0676053 -70.162159 C -2.4804047 -72.032788 -1.6868721 -74.640479 -1.6868721 -77.984937 C -1.6868721 -79.855566 -2.2818924 -81.442631 -3.4722928 -82.746403 C -4.6060075 -84.106861 -6.0517212 -85.212194 -7.808979 -86.06248 C -9.5662368 -86.969452 -11.890191 -87.961497 -14.781163 -89.038526 z M -92.837381 -74.498845 C -90.85338 -74.498845 -89.379603 -73.903824 -88.415945 -72.713424 C -87.395602 -71.579709 -86.885806 -69.992127 -86.885806 -67.951441 C -86.885806 -65.910754 -87.395602 -64.323689 -88.415945 -63.189974 C -89.379603 -62.05626 -90.85338 -61.489303 -92.837381 -61.489303 C -94.821381 -61.489303 -96.323739 -62.05626 -97.344082 -63.189974 C -98.30774 -64.380375 -98.789472 -65.96744 -98.789472 -67.951441 C -98.789472 -70.048813 -98.30774 -71.664459 -97.344082 -72.798173 C -96.323739 -73.931888 -94.821381 -74.498845 -92.837381 -74.498845 z " /></g></svg>
