<?xml version="1.0" encoding="UTF-8" standalone="no"?>
<!-- Created with Inkscape (http://www.inkscape.org/) -->

<svg
   width="172.6701mm"
   height="172.6701mm"
   viewBox="0 0 172.6701 172.6701"
   version="1.1"
   id="svg1"
   xml:space="preserve"
   xmlns="http://www.w3.org/2000/svg"
   xmlns:svg="http://www.w3.org/2000/svg"><defs
     id="defs1" /><g
     id="layer1"
     transform="translate(157.25102,198.81012)"><path
       id="path5"
       style="fill:#ffffff;fill-opacity:1;stroke-width:0.805188;stroke-linecap:round;stroke-linejoin:round"
       d="M -2.0863309 -198.17657 L -10.088943 -183.11289 L -10.930235 -165.68398 L -19.198981 -165.68398 L -11.423229 -155.47426 L -12.166336 -140.07934 C -28.353216 -157.12094 -50.823548 -166.77435 -74.327399 -166.78417 C -103.64471 -166.77397 -130.92652 -151.79225 -146.66717 -127.05894 L -157.25102 -127.05894 L -149.61996 -115.86014 L -157.25102 -26.140039 L -8.5138455 -26.140039 L 15.419061 -26.140039 L 8.0799737 -154.80195 L 15.419061 -165.68398 L 7.4593397 -165.68398 L 6.4490654 -183.39297 L -2.0863309 -198.17657 z M -83.43072 -192.21621 C -85.584619 -189.65499 -86.77489 -186.4211 -86.795372 -183.07465 C -86.842092 -175.15518 -80.459903 -168.69733 -72.540428 -168.65072 C -64.621155 -168.60402 -58.163395 -174.98588 -58.116503 -182.90515 C -58.102813 -186.26049 -59.266203 -189.5144 -61.404157 -192.10045 C -60.83125 -190.6836 -60.536835 -189.16959 -60.537027 -187.64129 C -60.575787 -181.07411 -65.930869 -175.78172 -72.498054 -175.82031 C -79.065241 -175.85911 -84.357627 -181.21415 -84.319038 -187.78134 C -84.309338 -189.30285 -84.007827 -190.80837 -83.43072 -192.21621 z M -59.251317 -120.07436 C -54.716458 -119.84761 -51.032015 -118.85557 -48.197728 -117.09831 L -68.434219 -83.767013 L -55.425194 -83.767013 L -54.5746 -97.626632 C -52.760656 -97.626632 -51.456811 -97.995076 -50.663211 -98.731991 C -49.812925 -99.468905 -49.16126 -100.71611 -48.707775 -102.47336 L -43.861042 -102.47336 L -43.946308 -83.341716 C -41.79225 -82.718173 -39.071271 -82.066508 -35.783499 -81.38628 L -36.208279 -77.304875 L -44.371088 -77.304875 L -44.371088 -62.084615 L -55.425194 -62.084615 L -55.425194 -77.304875 L -79.998371 -77.304875 L -80.678433 -80.36567 L -59.251317 -120.07436 z M -115.88042 -119.90383 L -113.83972 -115.65241 C -125.29023 -110.72075 -132.17739 -103.12528 -134.5015 -92.865166 C -131.21373 -94.452366 -128.09624 -95.245899 -125.14859 -95.245899 C -119.48001 -95.245899 -115.0301 -93.715477 -111.79901 -90.654448 C -108.51124 -87.593418 -106.86753 -83.455306 -106.86753 -78.240218 C -106.86753 -75.009132 -107.74577 -72.118221 -109.50303 -69.567363 C -111.2036 -67.016505 -113.61278 -65.032415 -116.7305 -63.615271 C -119.79153 -62.198128 -123.30604 -61.489303 -127.27404 -61.489303 C -134.01964 -61.489303 -139.20644 -63.360105 -142.83433 -67.101363 C -146.40553 -70.842622 -148.19111 -76.255999 -148.19111 -83.341716 C -148.19111 -92.241376 -145.44207 -99.808775 -139.94355 -106.04421 C -134.38835 -112.33632 -126.36728 -116.95617 -115.88042 -119.90383 z M -11.465087 -119.56379 C -4.7194841 -119.56379 0.43873654 -117.69351 4.0099378 -113.95225 C 7.6378249 -110.21099 9.4519829 -104.7971 9.4519829 -97.711381 C 9.4519829 -88.811721 6.6743603 -81.216258 1.1191582 -74.924142 C -4.3793581 -68.688711 -12.372362 -64.09693 -22.859223 -61.149272 L -24.899925 -65.400692 C -19.231352 -67.838179 -14.668152 -70.956182 -11.210322 -74.754126 C -7.7524919 -78.608756 -5.4566016 -83.086732 -4.3228869 -88.188448 C -7.497288 -86.601248 -10.586711 -85.807715 -13.591055 -85.807715 C -19.259629 -85.807715 -23.737604 -87.338137 -27.025377 -90.399166 C -30.256464 -93.460196 -31.87211 -97.598308 -31.87211 -102.8134 C -31.87211 -106.04448 -31.021933 -108.93539 -29.321361 -111.48625 C -27.564103 -114.03711 -25.154925 -116.0212 -22.093895 -117.43834 C -18.97618 -118.85549 -15.433088 -119.56379 -11.465087 -119.56379 z M -11.975133 -113.69697 C -14.41262 -113.69697 -16.283422 -112.76157 -17.587194 -110.89094 C -18.890965 -109.02031 -19.543146 -106.35597 -19.543146 -102.89814 C -19.543146 -99.383629 -18.834321 -96.634587 -17.417178 -94.650586 C -15.943349 -92.723271 -13.874551 -91.759807 -11.210322 -91.759807 C -8.8862066 -91.759807 -6.3065795 -92.723271 -3.4722928 -94.650586 L -3.4722928 -95.755945 C -3.4722928 -101.93469 -4.1525375 -106.46931 -5.5129951 -109.36028 C -6.8734527 -112.25126 -9.0274747 -113.69697 -11.975133 -113.69697 z M -91.902037 -101.28274 C -89.918037 -101.28274 -88.444259 -100.68772 -87.480602 -99.497319 C -86.460258 -98.363604 -85.950463 -96.776539 -85.950463 -94.735852 C -85.950463 -92.695166 -86.460258 -91.107584 -87.480602 -89.973869 C -88.444259 -88.840154 -89.918037 -88.273198 -91.902037 -88.273198 C -93.886038 -88.273198 -95.388396 -88.840154 -96.408739 -89.973869 C -97.372396 -91.16427 -97.854129 -92.751852 -97.854129 -94.735852 C -97.854129 -96.833225 -97.372396 -98.448354 -96.408739 -99.582068 C -95.388396 -100.71578 -93.886038 -101.28274 -91.902037 -101.28274 z M -127.52932 -89.293807 C -129.91012 -89.293807 -132.48923 -88.330343 -135.26683 -86.403028 L -135.26683 -85.297669 C -135.26683 -79.118924 -134.58659 -74.583787 -133.22613 -71.692814 C -131.86567 -68.801842 -129.71165 -67.356645 -126.76399 -67.356645 C -124.32651 -67.356645 -122.4557 -68.291529 -121.15193 -70.162159 C -119.84816 -72.032788 -119.1965 -74.697123 -119.1965 -78.154952 C -119.1965 -81.669468 -119.93338 -84.390447 -121.40721 -86.317762 C -122.82436 -88.301762 -124.86509 -89.293807 -127.52932 -89.293807 z M -91.902037 -74.498845 C -89.918037 -74.498845 -88.444259 -73.903824 -87.480602 -72.713424 C -86.460258 -71.579709 -85.950463 -69.992127 -85.950463 -67.951441 C -85.950463 -65.910754 -86.460258 -64.323689 -87.480602 -63.189974 C -88.444259 -62.05626 -89.918037 -61.489303 -91.902037 -61.489303 C -93.886038 -61.489303 -95.388396 -62.05626 -96.408739 -63.189974 C -97.372396 -64.380375 -97.854129 -65.96744 -97.854129 -67.951441 C -97.854129 -70.048813 -97.372396 -71.664459 -96.408739 -72.798173 C -95.388396 -73.931888 -93.886038 -74.498845 -91.902037 -74.498845 z " /></g></svg>
