<?xml version="1.0" encoding="UTF-8" standalone="no"?>
<!-- Created with Inkscape (http://www.inkscape.org/) -->

<svg
   width="172.6701mm"
   height="172.6701mm"
   viewBox="0 0 172.6701 172.6701"
   version="1.1"
   id="svg1"
   xml:space="preserve"
   xmlns="http://www.w3.org/2000/svg"
   xmlns:svg="http://www.w3.org/2000/svg"><defs
     id="defs1" /><g
     id="layer1"
     transform="translate(157.25102,198.81012)"><path
       id="path5"
       style="fill:#ffffff;fill-opacity:1;stroke-width:0.805188;stroke-linecap:round;stroke-linejoin:round"
       d="M -2.0863309 -198.17657 L -10.088943 -183.11289 L -10.930235 -165.68398 L -19.198981 -165.68398 L -11.423229 -155.47426 L -12.166336 -140.07934 C -28.353216 -157.12094 -50.823548 -166.77435 -74.327399 -166.78417 C -103.64471 -166.77397 -130.92652 -151.79225 -146.66717 -127.05894 L -157.25102 -127.05894 L -149.61996 -115.86014 L -157.25102 -26.140039 L -8.5138455 -26.140039 L 15.419061 -26.140039 L 8.0799737 -154.80195 L 15.419061 -165.68398 L 7.4593397 -165.68398 L 6.4490654 -183.39297 L -2.0863309 -198.17657 z M -83.43072 -192.21621 C -85.584619 -189.65499 -86.77489 -186.4211 -86.795372 -183.07465 C -86.842092 -175.15518 -80.459903 -168.69733 -72.540428 -168.65072 C -64.621155 -168.60402 -58.163395 -174.98588 -58.116503 -182.90515 C -58.102813 -186.26049 -59.266203 -189.5144 -61.404157 -192.10045 C -60.83125 -190.6836 -60.536835 -189.16959 -60.537027 -187.64129 C -60.575787 -181.07411 -65.930869 -175.78172 -72.498054 -175.82031 C -79.065241 -175.85911 -84.357627 -181.21415 -84.319038 -187.78134 C -84.309338 -189.30285 -84.007827 -190.80837 -83.43072 -192.21621 z M -114.43503 -119.90383 L -112.39433 -115.65241 C -123.84484 -110.72075 -130.732 -103.12528 -133.05611 -92.865166 C -129.76834 -94.452366 -126.65086 -95.245899 -123.7032 -95.245899 C -118.03462 -95.245899 -113.58471 -93.715477 -110.35362 -90.654448 C -107.06585 -87.593418 -105.42214 -83.455306 -105.42214 -78.240218 C -105.42214 -75.009132 -106.30038 -72.118221 -108.05764 -69.567363 C -109.75821 -67.016505 -112.16739 -65.032415 -115.28511 -63.615271 C -118.34614 -62.198128 -121.86065 -61.489303 -125.82865 -61.489303 C -132.57425 -61.489303 -137.76105 -63.360105 -141.38894 -67.101363 C -144.96014 -70.842622 -146.74572 -76.255999 -146.74572 -83.341716 C -146.74572 -92.241376 -143.99668 -99.808775 -138.49816 -106.04421 C -132.94296 -112.33632 -124.92189 -116.95617 -114.43503 -119.90383 z M -12.40043 -119.64906 C -5.768199 -119.64906 -0.69468596 -117.15466 2.8198296 -112.16631 C 6.3910309 -107.23465 8.1766086 -100.06428 8.1766086 -90.654448 C 8.1766086 -81.244616 6.3910309 -74.017081 2.8198296 -68.97205 C -0.69468596 -63.983706 -5.768199 -61.489303 -12.40043 -61.489303 C -19.032661 -61.489303 -24.134238 -63.983706 -27.705439 -68.97205 C -31.27664 -74.017081 -33.062218 -81.244616 -33.062218 -90.654448 C -33.062218 -100.00759 -31.27664 -107.17797 -27.705439 -112.16631 C -24.134238 -117.15466 -19.032661 -119.64906 -12.40043 -119.64906 z M -70.13489 -119.05375 L -65.88347 -118.969 C -59.874782 -118.85563 -56.700652 -118.79847 -56.360537 -118.79847 L -44.286339 -118.969 L -41.82034 -117.18306 L -42.585668 -110.72092 L -63.672753 -110.72092 L -64.863378 -96.521273 C -61.915719 -97.258188 -59.251385 -97.626632 -56.870584 -97.626632 C -51.258696 -97.626632 -46.695496 -96.124274 -43.18098 -93.11993 C -39.609779 -90.172272 -37.824201 -85.836165 -37.824201 -80.110905 C -37.824201 -76.539704 -38.674378 -73.336993 -40.37495 -70.502706 C -42.018836 -67.66842 -44.399434 -65.429173 -47.51715 -63.785287 C -50.634865 -62.198086 -54.319825 -61.404554 -58.571255 -61.404554 C -62.029085 -61.404554 -65.175152 -61.886286 -68.009439 -62.849943 C -70.78704 -63.813601 -72.969125 -65.14551 -74.556326 -66.846082 C -76.143527 -68.60334 -76.937059 -70.559366 -76.937059 -72.713424 C -76.937059 -74.980853 -76.313459 -76.709787 -75.066372 -77.900188 C -73.819286 -79.147274 -72.288865 -79.770358 -70.474921 -79.770358 C -69.454578 -79.770358 -68.43447 -79.572362 -67.414126 -79.175562 C -66.337097 -78.778762 -65.373116 -78.211805 -64.52283 -77.474891 C -65.033002 -76.28449 -65.288158 -75.037289 -65.288158 -73.733517 C -65.288158 -71.862888 -64.749782 -70.332466 -63.672753 -69.142066 C -62.539038 -67.951665 -60.838685 -67.356645 -58.571255 -67.356645 C -53.469539 -67.356645 -50.918492 -71.608045 -50.918492 -80.110905 C -50.918492 -84.135593 -51.712025 -87.054567 -53.299226 -88.86851 C -54.886426 -90.73914 -57.012385 -91.674541 -59.676614 -91.674541 C -61.3205 -91.674541 -63.077498 -91.36274 -64.948127 -90.739197 C -66.818756 -90.115654 -68.660978 -89.236897 -70.474921 -88.103182 L -75.151638 -92.609884 L -72.940921 -116.75776 L -70.13489 -119.05375 z M -12.40043 -115.31237 C -15.291402 -115.31237 -17.38878 -113.41351 -18.692552 -109.61556 C -19.939639 -105.81762 -20.563239 -99.497422 -20.563239 -90.654448 C -20.563239 -81.868159 -19.939639 -75.576025 -18.692552 -71.778081 C -17.38878 -68.036822 -15.291402 -66.16602 -12.40043 -66.16602 C -9.5094575 -66.16602 -7.4406599 -68.036822 -6.1935737 -71.778081 C -4.8898018 -75.576025 -4.2376207 -81.868159 -4.2376207 -90.654448 C -4.2376207 -99.440737 -4.8898018 -105.73287 -6.1935737 -109.53081 C -7.4406599 -113.38544 -9.5094575 -115.31237 -12.40043 -115.31237 z M -90.456647 -101.28274 C -88.472647 -101.28274 -86.998869 -100.68772 -86.035212 -99.497319 C -85.014869 -98.363604 -84.505073 -96.776539 -84.505073 -94.735852 C -84.505073 -92.695166 -85.014869 -91.107584 -86.035212 -89.973869 C -86.998869 -88.840154 -88.472647 -88.273198 -90.456647 -88.273198 C -92.440648 -88.273198 -93.943006 -88.840154 -94.963349 -89.973869 C -95.927007 -91.16427 -96.408739 -92.751852 -96.408739 -94.735852 C -96.408739 -96.833225 -95.927007 -98.448354 -94.963349 -99.582068 C -93.943006 -100.71578 -92.440648 -101.28274 -90.456647 -101.28274 z M -126.08393 -89.293807 C -128.46473 -89.293807 -131.04384 -88.330343 -133.82144 -86.403028 L -133.82144 -85.297669 C -133.82144 -79.118924 -133.1412 -74.583787 -131.78074 -71.692814 C -130.42028 -68.801842 -128.26626 -67.356645 -125.3186 -67.356645 C -122.88112 -67.356645 -121.01031 -68.291529 -119.70654 -70.162159 C -118.40277 -72.032788 -117.75111 -74.697123 -117.75111 -78.154952 C -117.75111 -81.669468 -118.48799 -84.390447 -119.96182 -86.317762 C -121.37897 -88.301762 -123.4197 -89.293807 -126.08393 -89.293807 z M -90.456647 -74.498845 C -88.472647 -74.498845 -86.998869 -73.903824 -86.035212 -72.713424 C -85.014869 -71.579709 -84.505073 -69.992127 -84.505073 -67.951441 C -84.505073 -65.910754 -85.014869 -64.323689 -86.035212 -63.189974 C -86.998869 -62.05626 -88.472647 -61.489303 -90.456647 -61.489303 C -92.440648 -61.489303 -93.943006 -62.05626 -94.963349 -63.189974 C -95.927007 -64.380375 -96.408739 -65.96744 -96.408739 -67.951441 C -96.408739 -70.048813 -95.927007 -71.664459 -94.963349 -72.798173 C -93.943006 -73.931888 -92.440648 -74.498845 -90.456647 -74.498845 z " /></g></svg>
