<?xml version="1.0" encoding="UTF-8" standalone="no"?>
<!-- Created with Inkscape (http://www.inkscape.org/) -->

<svg
   width="172.6701mm"
   height="172.6701mm"
   viewBox="0 0 172.6701 172.6701"
   version="1.1"
   id="svg1"
   xml:space="preserve"
   xmlns="http://www.w3.org/2000/svg"
   xmlns:svg="http://www.w3.org/2000/svg"><defs
     id="defs1" /><g
     id="layer1"
     transform="translate(157.25102,198.81012)"><path
       id="path5"
       style="fill:#ffffff;fill-opacity:1;stroke-width:0.805188;stroke-linecap:round;stroke-linejoin:round"
       d="M -2.0863309 -198.17657 L -10.088943 -183.11289 L -10.930235 -165.68398 L -19.198981 -165.68398 L -11.423229 -155.47426 L -12.166336 -140.07934 C -28.353216 -157.12094 -50.823548 -166.77435 -74.327399 -166.78417 C -103.64471 -166.77397 -130.92652 -151.79225 -146.66717 -127.05894 L -157.25102 -127.05894 L -149.61996 -115.86014 L -157.25102 -26.140039 L -8.5138455 -26.140039 L 15.419061 -26.140039 L 8.0799737 -154.80195 L 15.419061 -165.68398 L 7.4593397 -165.68398 L 6.4490654 -183.39297 L -2.0863309 -198.17657 z M -83.43072 -192.21621 C -85.584619 -189.65499 -86.77489 -186.4211 -86.795372 -183.07465 C -86.842092 -175.15518 -80.459903 -168.69733 -72.540428 -168.65072 C -64.621155 -168.60402 -58.163395 -174.98588 -58.116503 -182.90515 C -58.102813 -186.26049 -59.266203 -189.5144 -61.404157 -192.10045 C -60.83125 -190.6836 -60.536835 -189.16959 -60.537027 -187.64129 C -60.575787 -181.07411 -65.930869 -175.78172 -72.498054 -175.82031 C -79.065241 -175.85911 -84.357627 -181.21415 -84.319038 -187.78134 C -84.309338 -189.30285 -84.007827 -190.80837 -83.43072 -192.21621 z M -111.24608 -119.90383 L -109.20589 -115.65241 C -120.65641 -110.72075 -127.54356 -103.12528 -129.86768 -92.865166 C -126.57991 -94.452366 -123.4619 -95.245899 -120.51424 -95.245899 C -114.84567 -95.245899 -110.39628 -93.715477 -107.16519 -90.654448 C -103.87742 -87.593418 -102.23319 -83.455306 -102.23319 -78.240218 C -102.23319 -75.009132 -103.11195 -72.118221 -104.8692 -69.567363 C -106.56978 -67.016505 -108.97895 -65.032415 -112.09667 -63.615271 C -115.1577 -62.198128 -118.67221 -61.489303 -122.64021 -61.489303 C -129.38582 -61.489303 -134.57262 -63.360105 -138.2005 -67.101363 C -141.7717 -70.842622 -143.55728 -76.255999 -143.55728 -83.341716 C -143.55728 -92.241376 -140.80772 -99.808775 -135.30921 -106.04421 C -129.754 -112.33632 -121.73294 -116.95617 -111.24608 -119.90383 z M -8.4466662 -119.13901 L -5.6406359 -117.86364 L -5.6406359 -68.716769 C -4.5636069 -68.093226 -2.8632536 -67.526269 -0.53913849 -67.016097 C 1.7849766 -66.562611 3.6271983 -66.279392 4.9876559 -66.16602 L 4.7328911 -62.084615 L -29.959048 -62.084615 L -29.789033 -66.16602 C -24.744002 -66.732877 -20.88911 -67.583054 -18.224881 -68.716769 L -18.224881 -109.44555 L -29.619017 -109.44555 L -29.619017 -114.37703 C -25.99113 -114.66046 -22.249526 -115.19935 -18.394896 -115.99295 C -14.540266 -116.84324 -11.224267 -117.89193 -8.4466662 -119.13901 z M -66.946455 -119.05375 L -62.695034 -118.969 C -56.686347 -118.85563 -53.511699 -118.79847 -53.171585 -118.79847 L -41.097903 -118.969 L -38.631904 -117.18306 L -39.397232 -110.72092 L -60.484317 -110.72092 L -61.674425 -96.521273 C -58.726767 -97.258188 -56.062949 -97.626632 -53.682148 -97.626632 C -48.07026 -97.626632 -43.50706 -96.124274 -39.992544 -93.11993 C -36.421343 -90.172272 -34.635249 -85.836165 -34.635249 -80.110905 C -34.635249 -76.539704 -35.485942 -73.336993 -37.186514 -70.502706 C -38.8304 -67.66842 -41.210998 -65.429173 -44.328714 -63.785287 C -47.446429 -62.198086 -51.130872 -61.404554 -55.382303 -61.404554 C -58.840132 -61.404554 -61.986199 -61.886286 -64.820486 -62.849943 C -67.598087 -63.813601 -69.78069 -65.14551 -71.36789 -66.846082 C -72.955091 -68.60334 -73.748623 -70.559366 -73.748623 -72.713424 C -73.748623 -74.980853 -73.125023 -76.709787 -71.877937 -77.900188 C -70.63085 -79.147274 -69.100429 -79.770358 -67.286485 -79.770358 C -66.266142 -79.770358 -65.246034 -79.572362 -64.22569 -79.175562 C -63.148661 -78.778762 -62.18468 -78.211805 -61.334394 -77.474891 C -61.844566 -76.28449 -62.099722 -75.037289 -62.099722 -73.733517 C -62.099722 -71.862888 -61.561346 -70.332466 -60.484317 -69.142066 C -59.350602 -67.951665 -57.649732 -67.356645 -55.382303 -67.356645 C -50.280586 -67.356645 -47.730056 -71.608045 -47.730056 -80.110905 C -47.730056 -84.135593 -48.523589 -87.054567 -50.11079 -88.86851 C -51.69799 -90.73914 -53.823432 -91.674541 -56.487661 -91.674541 C -58.131548 -91.674541 -59.889062 -91.36274 -61.759691 -90.739197 C -63.63032 -90.115654 -65.472542 -89.236897 -67.286485 -88.103182 L -71.963203 -92.609884 L -69.752485 -116.75776 L -66.946455 -119.05375 z M -87.268212 -101.28274 C -85.284211 -101.28274 -83.810434 -100.68772 -82.846776 -99.497319 C -81.826433 -98.363604 -81.31612 -96.776539 -81.31612 -94.735852 C -81.31612 -92.695166 -81.826433 -91.107584 -82.846776 -89.973869 C -83.810434 -88.840154 -85.284211 -88.273198 -87.268212 -88.273198 C -89.252212 -88.273198 -90.75457 -88.840154 -91.774913 -89.973869 C -92.738571 -91.16427 -93.220303 -92.751852 -93.220303 -94.735852 C -93.220303 -96.833225 -92.738571 -98.448354 -91.774913 -99.582068 C -90.75457 -100.71578 -89.252212 -101.28274 -87.268212 -101.28274 z M -122.89549 -89.293807 C -125.2763 -89.293807 -127.85541 -88.330343 -130.63301 -86.403028 L -130.63301 -85.297669 C -130.63301 -79.118924 -129.95276 -74.583787 -128.5923 -71.692814 C -127.23185 -68.801842 -125.07782 -67.356645 -122.13017 -67.356645 C -119.69268 -67.356645 -117.82188 -68.291529 -116.51811 -70.162159 C -115.21433 -72.032788 -114.56267 -74.697123 -114.56267 -78.154952 C -114.56267 -81.669468 -115.29956 -84.390447 -116.77339 -86.317762 C -118.19053 -88.301762 -120.23126 -89.293807 -122.89549 -89.293807 z M -87.268212 -74.498845 C -85.284211 -74.498845 -83.810434 -73.903824 -82.846776 -72.713424 C -81.826433 -71.579709 -81.31612 -69.992127 -81.31612 -67.951441 C -81.31612 -65.910754 -81.826433 -64.323689 -82.846776 -63.189974 C -83.810434 -62.05626 -85.284211 -61.489303 -87.268212 -61.489303 C -89.252212 -61.489303 -90.75457 -62.05626 -91.774913 -63.189974 C -92.738571 -64.380375 -93.220303 -65.96744 -93.220303 -67.951441 C -93.220303 -70.048813 -92.738571 -71.664459 -91.774913 -72.798173 C -90.75457 -73.931888 -89.252212 -74.498845 -87.268212 -74.498845 z " /></g></svg>
