<?xml version="1.0" encoding="UTF-8" standalone="no"?>
<!-- Created with Inkscape (http://www.inkscape.org/) -->

<svg
   width="172.6701mm"
   height="172.6701mm"
   viewBox="0 0 172.6701 172.6701"
   version="1.1"
   id="svg1"
   xml:space="preserve"
   xmlns="http://www.w3.org/2000/svg"
   xmlns:svg="http://www.w3.org/2000/svg"><defs
     id="defs1" /><g
     id="layer1"
     transform="translate(157.25102,198.81012)"><path
       id="path5"
       style="fill:#ffffff;fill-opacity:1;stroke-width:0.805188;stroke-linecap:round;stroke-linejoin:round"
       d="M -2.0863309 -198.17657 L -10.088943 -183.11289 L -10.930235 -165.68398 L -19.198981 -165.68398 L -11.423229 -155.47426 L -12.166336 -140.07934 C -28.353216 -157.12094 -50.823548 -166.77435 -74.327399 -166.78417 C -103.64471 -166.77397 -130.92652 -151.79225 -146.66717 -127.05894 L -157.25102 -127.05894 L -149.61996 -115.86014 L -157.25102 -26.140039 L -8.5138455 -26.140039 L 15.419061 -26.140039 L 8.0799737 -154.80195 L 15.419061 -165.68398 L 7.4593397 -165.68398 L 6.4490654 -183.39297 L -2.0863309 -198.17657 z M -83.43072 -192.21621 C -85.584619 -189.65499 -86.77489 -186.4211 -86.795372 -183.07465 C -86.842092 -175.15518 -80.459903 -168.69733 -72.540428 -168.65072 C -64.621155 -168.60402 -58.163395 -174.98588 -58.116503 -182.90515 C -58.102813 -186.26049 -59.266203 -189.5144 -61.404157 -192.10045 C -60.83125 -190.6836 -60.536835 -189.16959 -60.537027 -187.64129 C -60.575787 -181.07411 -65.930869 -175.78172 -72.498054 -175.82031 C -79.065241 -175.85911 -84.357627 -181.21415 -84.319038 -187.78134 C -84.309338 -189.30285 -84.007827 -190.80837 -83.43072 -192.21621 z M -112.77673 -119.90383 L -110.73603 -115.65241 C -122.18655 -110.72075 -129.07422 -103.12528 -131.39833 -92.865166 C -128.11056 -94.452366 -124.99256 -95.245899 -122.0449 -95.245899 C -116.37633 -95.245899 -111.92641 -93.715477 -108.69533 -90.654448 C -105.40755 -87.593418 -103.76385 -83.455306 -103.76385 -78.240218 C -103.76385 -75.009132 -104.6426 -72.118221 -106.39986 -69.567363 C -108.10043 -67.016505 -110.50961 -65.032415 -113.62733 -63.615271 C -116.68836 -62.198128 -120.20287 -61.489303 -124.17087 -61.489303 C -130.91647 -61.489303 -136.10276 -63.360105 -139.73064 -67.101363 C -143.30184 -70.842622 -145.08794 -76.255999 -145.08794 -83.341716 C -145.08794 -92.241376 -142.33838 -99.808775 -136.83986 -106.04421 C -131.28466 -112.33632 -123.26359 -116.95617 -112.77673 -119.90383 z M -68.476594 -119.05375 L -64.225174 -118.969 C -58.216486 -118.85563 -55.042355 -118.79847 -54.702241 -118.79847 L -42.628042 -118.969 L -40.16256 -117.18306 L -40.927371 -110.72092 L -62.014456 -110.72092 L -63.205081 -96.521273 C -60.257423 -97.258188 -57.593088 -97.626632 -55.212287 -97.626632 C -49.600399 -97.626632 -45.037199 -96.124274 -41.522683 -93.11993 C -37.951482 -90.172272 -36.165904 -85.836165 -36.165904 -80.110905 C -36.165904 -76.539704 -37.016081 -73.336993 -38.716653 -70.502706 C -40.360539 -67.66842 -42.741654 -65.429173 -45.85937 -63.785287 C -48.977085 -62.198086 -52.661528 -61.404554 -56.912958 -61.404554 C -60.370788 -61.404554 -63.516855 -61.886286 -66.351142 -62.849943 C -69.128743 -63.813601 -71.311345 -65.14551 -72.898546 -66.846082 C -74.485747 -68.60334 -75.279279 -70.559366 -75.279279 -72.713424 C -75.279279 -74.980853 -74.655679 -76.709787 -73.408592 -77.900188 C -72.161506 -79.147274 -70.631085 -79.770358 -68.817141 -79.770358 C -67.796798 -79.770358 -66.776173 -79.572362 -65.75583 -79.175562 C -64.678801 -78.778762 -63.715336 -78.211805 -62.86505 -77.474891 C -63.375222 -76.28449 -63.630378 -75.037289 -63.630378 -73.733517 C -63.630378 -71.862888 -63.091485 -70.332466 -62.014456 -69.142066 C -60.880741 -67.951665 -59.180388 -67.356645 -56.912958 -67.356645 C -51.811242 -67.356645 -49.260196 -71.608045 -49.260196 -80.110905 C -49.260196 -84.135593 -50.053728 -87.054567 -51.640929 -88.86851 C -53.228129 -90.73914 -55.354088 -91.674541 -58.018317 -91.674541 C -59.662204 -91.674541 -61.419718 -91.36274 -63.290347 -90.739197 C -65.160976 -90.115654 -67.003198 -89.236897 -68.817141 -88.103182 L -73.493342 -92.609884 L -71.282624 -116.75776 L -68.476594 -119.05375 z M -31.064407 -118.88373 L -26.897736 -118.88373 C -24.743678 -118.82705 -20.03861 -118.79847 -12.782836 -118.79847 C -5.2436328 -118.79847 -0.34056854 -118.82705 1.9268609 -118.88373 L 6.0082655 -118.88373 L 7.7089369 -115.22762 C 6.6319079 -113.52705 4.5911739 -109.84261 1.5868299 -104.17404 C -1.417514 -98.505463 -4.2517807 -92.496548 -6.9160102 -86.147746 C -9.5802398 -79.798944 -10.912666 -74.838719 -10.912666 -71.267517 C -10.912666 -68.433231 -9.9206205 -66.307789 -7.9366198 -64.890646 C -9.8639348 -62.566531 -12.329757 -61.404554 -15.334101 -61.404554 C -18.111702 -61.404554 -20.265724 -62.169506 -21.796239 -63.700021 C -23.326754 -65.230536 -24.091706 -67.356494 -24.091706 -70.077409 C -24.091706 -73.478553 -23.27011 -77.077772 -21.626223 -80.875717 C -19.982337 -84.730347 -17.034266 -89.945728 -12.782836 -96.521273 L -2.7498563 -111.9963 L -22.13627 -111.9963 C -22.92987 -109.44544 -23.411602 -106.44124 -23.58166 -102.98341 C -24.602003 -102.81335 -25.650692 -102.72813 -26.727721 -102.72813 C -27.861436 -102.72813 -28.966769 -102.81335 -30.043798 -102.98341 L -32.424531 -117.60836 L -31.064407 -118.88373 z M -88.798867 -101.28274 C -86.814867 -101.28274 -85.341089 -100.68772 -84.377432 -99.497319 C -83.357089 -98.363604 -82.846776 -96.776539 -82.846776 -94.735852 C -82.846776 -92.695166 -83.357089 -91.107584 -84.377432 -89.973869 C -85.341089 -88.840154 -86.814867 -88.273198 -88.798867 -88.273198 C -90.782868 -88.273198 -92.284709 -88.840154 -93.305052 -89.973869 C -94.26871 -91.16427 -94.750959 -92.751852 -94.750959 -94.735852 C -94.750959 -96.833225 -94.26871 -98.448354 -93.305052 -99.582068 C -92.284709 -100.71578 -90.782868 -101.28274 -88.798867 -101.28274 z M -124.42563 -89.293807 C -126.80643 -89.293807 -129.38554 -88.330343 -132.16315 -86.403028 L -132.16315 -85.297669 C -132.16315 -79.118924 -131.4829 -74.583787 -130.12244 -71.692814 C -128.76199 -68.801842 -126.60796 -67.356645 -123.66031 -67.356645 C -121.22282 -67.356645 -119.35253 -68.291529 -118.04876 -70.162159 C -116.74499 -72.032788 -116.09281 -74.697123 -116.09281 -78.154952 C -116.09281 -81.669468 -116.8297 -84.390447 -118.30353 -86.317762 C -119.72067 -88.301762 -121.7614 -89.293807 -124.42563 -89.293807 z M -88.798867 -74.498845 C -86.814867 -74.498845 -85.341089 -73.903824 -84.377432 -72.713424 C -83.357089 -71.579709 -82.846776 -69.992127 -82.846776 -67.951441 C -82.846776 -65.910754 -83.357089 -64.323689 -84.377432 -63.189974 C -85.341089 -62.05626 -86.814867 -61.489303 -88.798867 -61.489303 C -90.782868 -61.489303 -92.284709 -62.05626 -93.305052 -63.189974 C -94.26871 -64.380375 -94.750959 -65.96744 -94.750959 -67.951441 C -94.750959 -70.048813 -94.26871 -71.664459 -93.305052 -72.798173 C -92.284709 -73.931888 -90.782868 -74.498845 -88.798867 -74.498845 z " /></g></svg>
