<?xml version="1.0" encoding="UTF-8" standalone="no"?>
<!-- Created with Inkscape (http://www.inkscape.org/) -->

<svg
   width="172.6701mm"
   height="172.6701mm"
   viewBox="0 0 172.6701 172.6701"
   version="1.1"
   id="svg1"
   xml:space="preserve"
   xmlns="http://www.w3.org/2000/svg"
   xmlns:svg="http://www.w3.org/2000/svg"><defs
     id="defs1" /><g
     id="layer1"
     transform="translate(157.25102,198.81012)"><path
       id="path5"
       style="fill:#ffffff;fill-opacity:1;stroke-width:0.805188;stroke-linecap:round;stroke-linejoin:round"
       d="M -2.0863309 -198.17657 L -10.088943 -183.11289 L -10.930235 -165.68398 L -19.198981 -165.68398 L -11.423229 -155.47426 L -12.166336 -140.07934 C -28.353216 -157.12094 -50.823548 -166.77435 -74.327399 -166.78417 C -103.64471 -166.77397 -130.92652 -151.79225 -146.66717 -127.05894 L -157.25102 -127.05894 L -149.61996 -115.86014 L -157.25102 -26.140039 L -8.5138455 -26.140039 L 15.419061 -26.140039 L 8.0799737 -154.80195 L 15.419061 -165.68398 L 7.4593397 -165.68398 L 6.4490654 -183.39297 L -2.0863309 -198.17657 z M -83.43072 -192.21621 C -85.584619 -189.65499 -86.77489 -186.4211 -86.795372 -183.07465 C -86.842092 -175.15518 -80.459903 -168.69733 -72.540428 -168.65072 C -64.621155 -168.60402 -58.163395 -174.98588 -58.116503 -182.90515 C -58.102813 -186.26049 -59.266203 -189.5144 -61.404157 -192.10045 C -60.83125 -190.6836 -60.536835 -189.16959 -60.537027 -187.64129 C -60.575787 -181.07411 -65.930869 -175.78172 -72.498054 -175.82031 C -79.065241 -175.85911 -84.357627 -181.21415 -84.319038 -187.78134 C -84.309338 -189.30285 -84.007827 -190.80837 -83.43072 -192.21621 z M -114.4774 -119.90383 L -112.4367 -115.65241 C -123.88722 -110.72075 -130.77437 -103.12528 -133.09849 -92.865166 C -129.81072 -94.452366 -126.69323 -95.245899 -123.74557 -95.245899 C -118.077 -95.245899 -113.62709 -93.715477 -110.396 -90.654448 C -107.10823 -87.593418 -105.46452 -83.455306 -105.46452 -78.240218 C -105.46452 -75.009132 -106.34327 -72.118221 -108.10053 -69.567363 C -109.8011 -67.016505 -112.20977 -65.032415 -115.32748 -63.615271 C -118.38851 -62.198128 -121.90302 -61.489303 -125.87102 -61.489303 C -132.61663 -61.489303 -137.80343 -63.360105 -141.43131 -67.101363 C -145.00252 -70.842622 -146.78809 -76.255999 -146.78809 -83.341716 C -146.78809 -92.241376 -144.03905 -99.808775 -138.54053 -106.04421 C -132.98533 -112.33632 -124.96426 -116.95617 -114.4774 -119.90383 z M -12.868102 -119.56379 C -6.1224992 -119.56379 -0.9642786 -117.69351 2.6069227 -113.95225 C 6.2348098 -110.21099 8.0489678 -104.7971 8.0489678 -97.711381 C 8.0489678 -88.811721 5.2713451 -81.216258 -0.28385691 -74.924142 C -5.7823732 -68.688711 -13.775377 -64.09693 -24.262238 -61.149272 L -26.302424 -65.400692 C -20.63385 -67.838179 -16.07065 -70.956182 -12.61282 -74.754126 C -9.1549903 -78.608756 -6.8596167 -83.086732 -5.725902 -88.188448 C -8.9003032 -86.601248 -11.989726 -85.807715 -14.99407 -85.807715 C -20.662644 -85.807715 -25.14062 -87.338137 -28.428392 -90.399166 C -31.659479 -93.460196 -33.275125 -97.598308 -33.275125 -102.8134 C -33.275125 -106.04448 -32.424948 -108.93539 -30.724376 -111.48625 C -28.967118 -114.03711 -26.55794 -116.0212 -23.49691 -117.43834 C -20.379195 -118.85549 -16.836103 -119.56379 -12.868102 -119.56379 z M -70.177265 -119.05375 L -65.925845 -118.969 C -59.917157 -118.85563 -56.743027 -118.79847 -56.402912 -118.79847 L -44.328714 -118.969 L -41.862714 -117.18306 L -42.628042 -110.72092 L -63.715127 -110.72092 L -64.905752 -96.521273 C -61.958094 -97.258188 -59.293759 -97.626632 -56.912958 -97.626632 C -51.301071 -97.626632 -46.73787 -96.124274 -43.223355 -93.11993 C -39.652153 -90.172272 -37.866576 -85.836165 -37.866576 -80.110905 C -37.866576 -76.539704 -38.716752 -73.336993 -40.417325 -70.502706 C -42.061211 -67.66842 -44.442326 -65.429173 -47.560041 -63.785287 C -50.677756 -62.198086 -54.3622 -61.404554 -58.61363 -61.404554 C -62.07146 -61.404554 -65.217527 -61.886286 -68.051813 -62.849943 C -70.829414 -63.813601 -73.0115 -65.14551 -74.598701 -66.846082 C -76.185901 -68.60334 -76.979951 -70.559366 -76.979951 -72.713424 C -76.979951 -74.980853 -76.35635 -76.709787 -75.109264 -77.900188 C -73.862178 -79.147274 -72.331756 -79.770358 -70.517813 -79.770358 C -69.49747 -79.770358 -68.476844 -79.572362 -67.456501 -79.175562 C -66.379472 -78.778762 -65.416007 -78.211805 -64.565721 -77.474891 C -65.075893 -76.28449 -65.331049 -75.037289 -65.331049 -73.733517 C -65.331049 -71.862888 -64.792156 -70.332466 -63.715127 -69.142066 C -62.581413 -67.951665 -60.881059 -67.356645 -58.61363 -67.356645 C -53.511914 -67.356645 -50.960867 -71.608045 -50.960867 -80.110905 C -50.960867 -84.135593 -51.7544 -87.054567 -53.3416 -88.86851 C -54.928801 -90.73914 -57.054759 -91.674541 -59.718989 -91.674541 C -61.362875 -91.674541 -63.119872 -91.36274 -64.990502 -90.739197 C -66.861131 -90.115654 -68.703869 -89.236897 -70.517813 -88.103182 L -75.194013 -92.609884 L -72.983295 -116.75776 L -70.177265 -119.05375 z M -13.378148 -113.69697 C -15.815635 -113.69697 -17.686437 -112.76157 -18.990209 -110.89094 C -20.293981 -109.02031 -20.945645 -106.35597 -20.945645 -102.89814 C -20.945645 -99.383629 -20.237337 -96.634587 -18.820193 -94.650586 C -17.346364 -92.723271 -15.27705 -91.759807 -12.61282 -91.759807 C -10.288705 -91.759807 -7.7095947 -92.723271 -4.8753079 -94.650586 L -4.8753079 -95.755945 C -4.8753079 -101.93469 -5.5555526 -106.46931 -6.9160102 -109.36028 C -8.2764679 -112.25126 -10.43049 -113.69697 -13.378148 -113.69697 z M -90.499539 -101.28274 C -88.515538 -101.28274 -87.041761 -100.68772 -86.078103 -99.497319 C -85.05776 -98.363604 -84.547447 -96.776539 -84.547447 -94.735852 C -84.547447 -92.695166 -85.05776 -91.107584 -86.078103 -89.973869 C -87.041761 -88.840154 -88.515538 -88.273198 -90.499539 -88.273198 C -92.48354 -88.273198 -93.985381 -88.840154 -95.005724 -89.973869 C -95.969381 -91.16427 -96.451114 -92.751852 -96.451114 -94.735852 C -96.451114 -96.833225 -95.969381 -98.448354 -95.005724 -99.582068 C -93.985381 -100.71578 -92.48354 -101.28274 -90.499539 -101.28274 z M -126.1263 -89.293807 C -128.50711 -89.293807 -131.08622 -88.330343 -133.86382 -86.403028 L -133.86382 -85.297669 C -133.86382 -79.118924 -133.18357 -74.583787 -131.82311 -71.692814 C -130.46266 -68.801842 -128.30864 -67.356645 -125.36098 -67.356645 C -122.92349 -67.356645 -121.0532 -68.291529 -119.74943 -70.162159 C -118.44566 -72.032788 -117.79348 -74.697123 -117.79348 -78.154952 C -117.79348 -81.669468 -118.53037 -84.390447 -120.0042 -86.317762 C -121.42134 -88.301762 -123.46208 -89.293807 -126.1263 -89.293807 z M -90.499539 -74.498845 C -88.515538 -74.498845 -87.041761 -73.903824 -86.078103 -72.713424 C -85.05776 -71.579709 -84.547447 -69.992127 -84.547447 -67.951441 C -84.547447 -65.910754 -85.05776 -64.323689 -86.078103 -63.189974 C -87.041761 -62.05626 -88.515538 -61.489303 -90.499539 -61.489303 C -92.48354 -61.489303 -93.985381 -62.05626 -95.005724 -63.189974 C -95.969381 -64.380375 -96.451114 -65.96744 -96.451114 -67.951441 C -96.451114 -70.048813 -95.969381 -71.664459 -95.005724 -72.798173 C -93.985381 -73.931888 -92.48354 -74.498845 -90.499539 -74.498845 z " /></g></svg>
