<?xml version="1.0" encoding="UTF-8" standalone="no"?>
<!-- Created with Inkscape (http://www.inkscape.org/) -->

<svg
   width="172.6701mm"
   height="172.6701mm"
   viewBox="0 0 172.6701 172.6701"
   version="1.1"
   id="svg1"
   xml:space="preserve"
   xmlns="http://www.w3.org/2000/svg"
   xmlns:svg="http://www.w3.org/2000/svg"><defs
     id="defs1" /><g
     id="layer1"
     transform="translate(157.25102,198.81012)"><path
       id="path5"
       style="fill:#ffffff;fill-opacity:1;stroke-width:0.805188;stroke-linecap:round;stroke-linejoin:round"
       d="M -2.0863309 -198.17657 L -10.088943 -183.11289 L -10.930235 -165.68398 L -19.198981 -165.68398 L -11.423229 -155.47426 L -12.166336 -140.07934 C -28.353216 -157.12094 -50.823548 -166.77435 -74.327399 -166.78417 C -103.64471 -166.77397 -130.92652 -151.79225 -146.66717 -127.05894 L -157.25102 -127.05894 L -149.61996 -115.86014 L -157.25102 -26.140039 L -8.5138455 -26.140039 L 15.419061 -26.140039 L 8.0799737 -154.80195 L 15.419061 -165.68398 L 7.4593397 -165.68398 L 6.4490654 -183.39297 L -2.0863309 -198.17657 z M -83.43072 -192.21621 C -85.584619 -189.65499 -86.77489 -186.4211 -86.795372 -183.07465 C -86.842092 -175.15518 -80.459903 -168.69733 -72.540428 -168.65072 C -64.621155 -168.60402 -58.163395 -174.98588 -58.116503 -182.90515 C -58.102813 -186.26049 -59.266203 -189.5144 -61.404157 -192.10045 C -60.83125 -190.6836 -60.536835 -189.16959 -60.537027 -187.64129 C -60.575787 -181.07411 -65.930869 -175.78172 -72.498054 -175.82031 C -79.065241 -175.85911 -84.357627 -181.21415 -84.319038 -187.78134 C -84.309338 -189.30285 -84.007827 -190.80837 -83.43072 -192.21621 z M -33.864236 -132.9883 C -23.708437 -132.9883 -15.623469 -130.47369 -9.6088691 -125.44509 C -3.5942694 -120.51509 -0.58719757 -113.56418 -0.58719757 -104.59158 C -0.58719757 -96.703582 -3.5942694 -88.273218 -9.6088691 -79.300619 C -15.623469 -70.426619 -25.532771 -59.728137 -39.33677 -47.205937 L 0.44839813 -47.205937 L 0.44839813 -32.711731 L -66.550613 -32.711731 L -66.550613 -41.290019 C -55.606014 -51.840219 -47.076744 -60.862468 -40.963544 -68.356067 C -34.850345 -75.849667 -30.462723 -82.75138 -27.800524 -89.06178 C -25.039724 -95.37218 -23.659174 -101.87982 -23.659174 -108.58462 C -23.659174 -119.23342 -27.208937 -124.5578 -34.308137 -124.5578 C -37.463337 -124.5578 -40.02714 -123.07887 -41.99914 -120.12087 C -43.97114 -117.26147 -44.957099 -113.7117 -44.957099 -109.4719 C -44.957099 -106.5139 -43.921429 -103.70413 -41.850829 -101.04193 C -43.527029 -99.464328 -45.449752 -98.231879 -47.618952 -97.344479 C -49.689552 -96.457079 -51.760376 -96.013294 -53.830976 -96.013294 C -57.380576 -96.013294 -60.338453 -97.097642 -62.704853 -99.266842 C -65.071253 -101.53464 -66.254507 -104.78872 -66.254507 -109.02852 C -66.254507 -113.56412 -64.923669 -117.65606 -62.261469 -121.30426 C -59.599269 -124.95246 -55.852211 -127.81143 -51.020812 -129.88203 C -46.090812 -131.95263 -40.371836 -132.9883 -33.864236 -132.9883 z M -139.16944 -131.50932 L -131.92233 -131.50932 C -128.17553 -131.41072 -119.99166 -131.36101 -107.37086 -131.36101 C -94.257061 -131.36101 -85.727792 -131.41072 -81.783792 -131.50932 L -74.685 -131.50932 L -71.727041 -125.1495 C -73.600441 -122.1915 -77.149687 -115.78225 -82.375487 -105.92225 C -87.601287 -96.06225 -92.531599 -85.610774 -97.165799 -74.567574 C -101.8 -63.524375 -104.1168 -54.896716 -104.1168 -48.684917 C -104.1168 -43.754917 -102.39137 -40.05757 -98.940367 -37.59257 C -102.29277 -33.549971 -106.582 -31.528858 -111.8078 -31.528858 C -116.6392 -31.528858 -120.38574 -32.859696 -123.04794 -35.521896 C -125.71014 -38.184096 -127.04149 -41.881959 -127.04149 -46.614759 C -127.04149 -52.530758 -125.61175 -58.791392 -122.75235 -65.397592 C -119.89295 -72.102391 -114.76586 -81.173835 -107.37086 -92.611434 L -89.918696 -119.52917 L -123.63963 -119.52917 C -125.02003 -115.09217 -125.85841 -109.86669 -126.15421 -103.85209 C -127.92901 -103.55629 -129.75283 -103.40819 -131.62623 -103.40819 C -133.59823 -103.40819 -135.52095 -103.55629 -137.39435 -103.85209 L -141.5357 -129.29085 L -139.16944 -131.50932 z " /></g></svg>
