<?xml version="1.0" encoding="UTF-8" standalone="no"?>
<!-- Created with Inkscape (http://www.inkscape.org/) -->

<svg
   width="172.6701mm"
   height="172.6701mm"
   viewBox="0 0 172.6701 172.6701"
   version="1.1"
   id="svg1"
   xml:space="preserve"
   xmlns="http://www.w3.org/2000/svg"
   xmlns:svg="http://www.w3.org/2000/svg"><defs
     id="defs1" /><g
     id="layer1"
     transform="translate(157.25102,198.81012)"><path
       id="path5"
       style="fill:#ffffff;fill-opacity:1;stroke-width:0.805188;stroke-linecap:round;stroke-linejoin:round"
       d="M -2.0863309 -198.17657 L -10.088943 -183.11289 L -10.930235 -165.68398 L -19.198981 -165.68398 L -11.423229 -155.47426 L -12.166336 -140.07934 C -28.353216 -157.12094 -50.823548 -166.77435 -74.327399 -166.78417 C -103.64471 -166.77397 -130.92652 -151.79225 -146.66717 -127.05894 L -157.25102 -127.05894 L -149.61996 -115.86014 L -157.25102 -26.140039 L -8.5138455 -26.140039 L 15.419061 -26.140039 L 8.0799737 -154.80195 L 15.419061 -165.68398 L 7.4593397 -165.68398 L 6.4490654 -183.39297 L -2.0863309 -198.17657 z M -83.43072 -192.21621 C -85.584619 -189.65499 -86.77489 -186.4211 -86.795372 -183.07465 C -86.842092 -175.15518 -80.459903 -168.69733 -72.540428 -168.65072 C -64.621155 -168.60402 -58.163395 -174.98588 -58.116503 -182.90515 C -58.102813 -186.26049 -59.266203 -189.5144 -61.404157 -192.10045 C -60.83125 -190.6836 -60.536835 -189.16959 -60.537027 -187.64129 C -60.575787 -181.07411 -65.930869 -175.78172 -72.498054 -175.82031 C -79.065241 -175.85911 -84.357627 -181.21415 -84.319038 -187.78134 C -84.309338 -189.30285 -84.007827 -190.80837 -83.43072 -192.21621 z M -34.529829 -132.9883 C -28.120829 -132.9883 -22.451564 -131.90343 -17.521564 -129.73423 C -12.591565 -127.66363 -8.7461176 -124.70576 -5.9853177 -120.86036 C -3.2245178 -117.11356 -1.8439684 -112.77513 -1.8439684 -107.84513 C -1.8439684 -102.32353 -3.4710076 -97.590513 -6.7248074 -93.646513 C -9.9786073 -89.702513 -14.810013 -86.695442 -21.219013 -84.624842 C -13.133813 -82.850042 -7.4640321 -79.941359 -4.2102322 -75.898759 C -0.95643237 -71.856159 0.67009003 -66.383673 0.67009003 -59.481674 C 0.67009003 -53.467074 -1.1537275 -48.339983 -4.8019274 -44.100183 C -8.3515272 -39.860384 -12.985638 -36.705211 -18.704438 -34.634611 C -24.423238 -32.564011 -30.339509 -31.528858 -36.452709 -31.528858 C -45.326708 -31.528858 -52.869502 -33.352675 -59.081302 -37.000875 C -65.194501 -40.649075 -68.251284 -45.628582 -68.251284 -51.938981 C -68.251284 -55.587181 -67.166419 -58.397475 -64.99722 -60.369475 C -62.82802 -62.440075 -60.116632 -63.475228 -56.862832 -63.475228 C -53.510432 -63.475228 -50.10877 -62.143873 -46.65777 -59.481674 C -47.54517 -57.608274 -47.988955 -55.340671 -47.988955 -52.678471 C -47.988955 -49.523271 -47.052191 -46.959468 -45.178791 -44.987468 C -43.206791 -43.015468 -40.298108 -42.029509 -36.452709 -42.029509 C -27.973109 -42.029509 -23.733072 -47.896585 -23.733072 -59.629985 C -23.733072 -66.038985 -25.803896 -71.017975 -29.945096 -74.567574 C -33.987695 -78.117174 -39.755866 -79.891797 -47.249466 -79.891797 L -47.249466 -89.06178 C -32.755266 -90.24498 -25.508157 -96.50613 -25.508157 -107.84513 C -25.508157 -113.56393 -26.395727 -117.75426 -28.170527 -120.41646 C -29.945327 -123.17726 -32.360513 -124.5578 -35.417113 -124.5578 C -39.065313 -124.5578 -41.826412 -123.27616 -43.699812 -120.71256 C -45.474611 -118.14896 -46.362181 -115.04298 -46.362181 -111.39478 C -46.362181 -108.14098 -45.671907 -105.2323 -44.291507 -102.6687 C -47.052307 -99.710702 -50.601552 -98.231763 -54.939952 -98.231763 C -58.883952 -98.231763 -61.940735 -99.415017 -64.109935 -101.78142 C -66.279135 -104.14782 -67.364 -107.20408 -67.364 -110.95088 C -67.364 -115.88088 -65.687766 -119.97282 -62.335367 -123.22662 C -58.884367 -126.57902 -54.644329 -129.04392 -49.615729 -130.62152 C -44.48853 -132.19912 -39.459828 -132.9883 -34.529829 -132.9883 z M -139.24333 -131.50932 L -131.99623 -131.50932 C -128.24943 -131.41072 -120.06556 -131.36101 -107.44476 -131.36101 C -94.330958 -131.36101 -85.801689 -131.41072 -81.857689 -131.50932 L -74.758898 -131.50932 L -71.800939 -125.1495 C -73.674339 -122.1915 -77.223584 -115.78225 -82.449384 -105.92225 C -87.675184 -96.06225 -92.605496 -85.610774 -97.239696 -74.567574 C -101.8739 -63.524375 -104.19069 -54.896716 -104.19069 -48.684917 C -104.19069 -43.754917 -102.46526 -40.05757 -99.014265 -37.59257 C -102.36666 -33.549971 -106.6559 -31.528858 -111.8817 -31.528858 C -116.7131 -31.528858 -120.45964 -32.859696 -123.12184 -35.521896 C -125.78404 -38.184096 -127.11539 -41.881959 -127.11539 -46.614759 C -127.11539 -52.530758 -125.68565 -58.791392 -122.82625 -65.397592 C -119.96685 -72.102391 -114.83976 -81.173835 -107.44476 -92.611434 L -89.992593 -119.52917 L -123.71353 -119.52917 C -125.09393 -115.09217 -125.93231 -109.86669 -126.22811 -103.85209 C -128.00291 -103.55629 -129.82672 -103.40819 -131.70012 -103.40819 C -133.67212 -103.40819 -135.59485 -103.55629 -137.46825 -103.85209 L -141.6096 -129.29085 L -139.24333 -131.50932 z " /></g></svg>
