<?xml version="1.0" encoding="UTF-8" standalone="no"?>
<!-- Created with Inkscape (http://www.inkscape.org/) -->

<svg
   width="172.6701mm"
   height="172.6701mm"
   viewBox="0 0 172.6701 172.6701"
   version="1.1"
   id="svg1"
   xml:space="preserve"
   xmlns="http://www.w3.org/2000/svg"
   xmlns:svg="http://www.w3.org/2000/svg"><defs
     id="defs1" /><g
     id="layer1"
     transform="translate(157.25102,198.81012)"><path
       id="path5"
       style="fill:#ffffff;fill-opacity:1;stroke-width:0.805188;stroke-linecap:round;stroke-linejoin:round"
       d="M -2.0863309 -198.17657 L -10.088943 -183.11289 L -10.930235 -165.68398 L -19.198981 -165.68398 L -11.423229 -155.47426 L -12.166336 -140.07934 C -28.353216 -157.12094 -50.823548 -166.77435 -74.327399 -166.78417 C -103.64471 -166.77397 -130.92652 -151.79225 -146.66717 -127.05894 L -157.25102 -127.05894 L -149.61996 -115.86014 L -157.25102 -26.140039 L -8.5138455 -26.140039 L 15.419061 -26.140039 L 8.0799737 -154.80195 L 15.419061 -165.68398 L 7.4593397 -165.68398 L 6.4490654 -183.39297 L -2.0863309 -198.17657 z M -83.43072 -192.21621 C -85.584619 -189.65499 -86.77489 -186.4211 -86.795372 -183.07465 C -86.842092 -175.15518 -80.459903 -168.69733 -72.540428 -168.65072 C -64.621155 -168.60402 -58.163395 -174.98588 -58.116503 -182.90515 C -58.102813 -186.26049 -59.266203 -189.5144 -61.404157 -192.10045 C -60.83125 -190.6836 -60.536835 -189.16959 -60.537027 -187.64129 C -60.575787 -181.07411 -65.930869 -175.78172 -72.498054 -175.82031 C -79.065241 -175.85911 -84.357627 -181.21415 -84.319038 -187.78134 C -84.309338 -189.30285 -84.007827 -190.80837 -83.43072 -192.21621 z M -36.231017 -133.57999 C -28.343017 -133.18559 -21.933766 -131.45965 -17.003767 -128.40305 L -52.204202 -70.426225 L -29.575092 -70.426225 L -28.096113 -94.534314 C -24.940913 -94.534314 -22.67331 -95.174878 -21.29291 -96.456678 C -19.813911 -97.738478 -18.679851 -99.907691 -17.891051 -102.96429 L -9.4610745 -102.96429 L -9.6088691 -69.686735 C -5.8620693 -68.602135 -1.1290523 -67.468593 4.5897474 -66.285393 L 3.8502577 -59.186084 L -10.348359 -59.186084 L -10.348359 -32.711731 L -29.575092 -32.711731 L -29.575092 -59.186084 L -72.31822 -59.186084 L -73.50161 -64.510307 L -36.231017 -133.57999 z M -142.57078 -131.50932 L -135.32368 -131.50932 C -131.57688 -131.41072 -123.393 -131.36101 -110.7722 -131.36101 C -97.658404 -131.36101 -89.129651 -131.41072 -85.185651 -131.50932 L -78.086343 -131.50932 L -75.128384 -125.1495 C -77.001784 -122.1915 -80.551547 -115.78225 -85.777346 -105.92225 C -91.003146 -96.06225 -95.932942 -85.610774 -100.56714 -74.567574 C -105.20134 -63.524375 -107.51866 -54.896716 -107.51866 -48.684917 C -107.51866 -43.754917 -105.79323 -40.05757 -102.34223 -37.59257 C -105.69463 -33.549971 -109.98334 -31.528858 -115.20914 -31.528858 C -120.04054 -31.528858 -123.7876 -32.859696 -126.4498 -35.521896 C -129.112 -38.184096 -130.44284 -41.881959 -130.44284 -46.614759 C -130.44284 -52.530758 -129.01309 -58.791392 -126.15369 -65.397592 C -123.29429 -72.102391 -118.1672 -81.173835 -110.7722 -92.611434 L -93.320039 -119.52917 L -127.04149 -119.52917 C -128.42189 -115.09217 -129.25975 -109.86669 -129.55555 -103.85209 C -131.33035 -103.55629 -133.15469 -103.40819 -135.02809 -103.40819 C -137.00009 -103.40819 -138.92281 -103.55629 -140.79621 -103.85209 L -144.93704 -129.29085 L -142.57078 -131.50932 z " /></g></svg>
