<?xml version="1.0" encoding="UTF-8" standalone="no"?>
<!-- Created with Inkscape (http://www.inkscape.org/) -->

<svg
   width="172.6701mm"
   height="172.6701mm"
   viewBox="0 0 172.6701 172.6701"
   version="1.1"
   id="svg1"
   xml:space="preserve"
   xmlns="http://www.w3.org/2000/svg"
   xmlns:svg="http://www.w3.org/2000/svg"><defs
     id="defs1" /><g
     id="layer1"
     transform="translate(157.25102,198.81012)"><path
       id="path5"
       style="fill:#ffffff;fill-opacity:1;stroke-width:0.805188;stroke-linecap:round;stroke-linejoin:round"
       d="M -2.0863309 -198.17657 L -10.088943 -183.11289 L -10.930235 -165.68398 L -19.198981 -165.68398 L -11.423229 -155.47426 L -12.166336 -140.07934 C -28.353216 -157.12094 -50.823548 -166.77435 -74.327399 -166.78417 C -103.64471 -166.77397 -130.92652 -151.79225 -146.66717 -127.05894 L -157.25102 -127.05894 L -149.61996 -115.86014 L -157.25102 -26.140039 L -8.5138455 -26.140039 L 15.419061 -26.140039 L 8.0799737 -154.80195 L 15.419061 -165.68398 L 7.4593397 -165.68398 L 6.4490654 -183.39297 L -2.0863309 -198.17657 z M -83.43072 -192.21621 C -85.584619 -189.65499 -86.77489 -186.4211 -86.795372 -183.07465 C -86.842092 -175.15518 -80.459903 -168.69733 -72.540428 -168.65072 C -64.621155 -168.60402 -58.163395 -174.98588 -58.116503 -182.90515 C -58.102813 -186.26049 -59.266203 -189.5144 -61.404157 -192.10045 C -60.83125 -190.6836 -60.536835 -189.16959 -60.537027 -187.64129 C -60.575787 -181.07411 -65.930869 -175.78172 -72.498054 -175.82031 C -79.065241 -175.85911 -84.357627 -181.21415 -84.319038 -187.78134 C -84.309338 -189.30285 -84.007827 -190.80837 -83.43072 -192.21621 z M -33.49475 -132.69219 C -21.76135 -132.69219 -12.788813 -129.43863 -6.5770128 -122.93103 C -0.2666131 -116.42343 2.8885593 -107.00711 2.8885593 -94.682109 C 2.8885593 -79.20191 -1.9428469 -65.989335 -11.605646 -55.044735 C -21.169846 -44.198736 -35.072179 -36.212157 -53.313178 -31.084957 L -56.862832 -38.479855 C -47.002833 -42.719655 -39.065449 -48.142946 -33.050849 -54.749146 C -27.036249 -61.453946 -23.043218 -69.243229 -21.071219 -78.117229 C -26.592818 -75.356429 -31.966399 -73.975879 -37.192198 -73.975879 C -47.052198 -73.975879 -54.841481 -76.638072 -60.560281 -81.962472 C -66.180481 -87.286872 -68.990774 -94.484786 -68.990774 -103.55599 C -68.990774 -109.17619 -67.511836 -114.20489 -64.553836 -118.64189 C -61.497236 -123.07889 -57.306393 -126.52974 -51.981993 -128.99474 C -46.558994 -131.45974 -40.396749 -132.69219 -33.49475 -132.69219 z M -141.1657 -131.50932 L -133.91859 -131.50932 C -130.17179 -131.41072 -121.98792 -131.36101 -109.36712 -131.36101 C -96.253322 -131.36101 -87.724569 -131.41072 -83.780569 -131.50932 L -76.681261 -131.50932 L -73.723302 -125.1495 C -75.596702 -122.1915 -79.146465 -115.78225 -84.372264 -105.92225 C -89.598064 -96.06225 -94.527859 -85.610774 -99.162059 -74.567574 C -103.79626 -63.524375 -106.11357 -54.896716 -106.11357 -48.684917 C -106.11357 -43.754917 -104.38814 -40.05757 -100.93714 -37.59257 C -104.28954 -33.549971 -108.57878 -31.528858 -113.80458 -31.528858 C -118.63598 -31.528858 -122.38252 -32.859696 -125.04472 -35.521896 C -127.70692 -38.184096 -129.03827 -41.881959 -129.03827 -46.614759 C -129.03827 -52.530758 -127.60853 -58.791392 -124.74913 -65.397592 C -121.88973 -72.102391 -116.76212 -81.173835 -109.36712 -92.611434 L -91.914956 -119.52917 L -125.63641 -119.52917 C -127.01681 -115.09217 -127.85467 -109.86669 -128.15047 -103.85209 C -129.92527 -103.55629 -131.7496 -103.40819 -133.623 -103.40819 C -135.595 -103.40819 -137.51773 -103.55629 -139.39113 -103.85209 L -143.53248 -129.29085 L -141.1657 -131.50932 z M -34.382034 -122.48713 C -38.621834 -122.48713 -41.875912 -120.86009 -44.143712 -117.60629 C -46.411512 -114.35249 -47.545055 -109.71838 -47.545055 -103.70378 C -47.545055 -97.590581 -46.312606 -92.808886 -43.847606 -89.357886 C -41.284006 -86.005486 -37.685049 -84.329252 -33.050849 -84.329252 C -29.008249 -84.329252 -24.522239 -86.005486 -19.592239 -89.357886 L -19.592239 -91.280249 C -19.592239 -102.02765 -20.775493 -109.91584 -23.141893 -114.94444 C -25.508293 -119.97304 -29.254834 -122.48713 -34.382034 -122.48713 z " /></g></svg>
