<?xml version="1.0" encoding="UTF-8" standalone="no"?>
<!-- Created with Inkscape (http://www.inkscape.org/) -->

<svg
   width="172.6701mm"
   height="172.6701mm"
   viewBox="0 0 172.6701 172.6701"
   version="1.1"
   id="svg1"
   xml:space="preserve"
   xmlns="http://www.w3.org/2000/svg"
   xmlns:svg="http://www.w3.org/2000/svg"><defs
     id="defs1" /><g
     id="layer1"
     transform="translate(157.25102,198.81012)"><path
       id="path5"
       style="fill:#ffffff;fill-opacity:1;stroke-width:0.805188;stroke-linecap:round;stroke-linejoin:round"
       d="M -2.0863309 -198.17657 L -10.088943 -183.11289 L -10.930235 -165.68398 L -19.198981 -165.68398 L -11.423229 -155.47426 L -12.166336 -140.07934 C -28.353216 -157.12094 -50.823548 -166.77435 -74.327399 -166.78417 C -103.64471 -166.77397 -130.92652 -151.79225 -146.66717 -127.05894 L -157.25102 -127.05894 L -149.61996 -115.86014 L -157.25102 -26.140039 L -8.5138455 -26.140039 L 15.419061 -26.140039 L 8.0799737 -154.80195 L 15.419061 -165.68398 L 7.4593397 -165.68398 L 6.4490654 -183.39297 L -2.0863309 -198.17657 z M -83.43072 -192.21621 C -85.584619 -189.65499 -86.77489 -186.4211 -86.795372 -183.07465 C -86.842092 -175.15518 -80.459903 -168.69733 -72.540428 -168.65072 C -64.621155 -168.60402 -58.163395 -174.98588 -58.116503 -182.90515 C -58.102813 -186.26049 -59.266203 -189.5144 -61.404157 -192.10045 C -60.83125 -190.6836 -60.536835 -189.16959 -60.537027 -187.64129 C -60.575787 -181.07411 -65.930869 -175.78172 -72.498054 -175.82031 C -79.065241 -175.85911 -84.357627 -181.21415 -84.319038 -187.78134 C -84.309338 -189.30285 -84.007827 -190.80837 -83.43072 -192.21621 z M -124.99614 -144.85424 L -117.20592 -144.85424 C -113.1784 -144.74825 -104.38166 -144.69508 -90.815282 -144.69508 C -76.718966 -144.69508 -67.551028 -144.74825 -63.311534 -144.85424 L -55.680476 -144.85424 L -52.500825 -138.01797 C -54.514584 -134.83834 -58.330342 -127.94923 -63.947671 -117.35049 C -69.565 -106.75176 -74.864004 -95.517188 -79.845409 -83.646607 C -84.826814 -71.776025 -87.317821 -62.502251 -87.317821 -55.825049 C -87.317821 -50.525682 -85.462859 -46.550913 -81.753303 -43.901229 C -85.356872 -39.555748 -89.967688 -37.383281 -95.585017 -37.383281 C -100.7784 -37.383281 -104.80583 -38.813867 -107.66748 -41.675525 C -110.52914 -44.537183 -111.95973 -48.511953 -111.95973 -53.599345 C -111.95973 -59.958585 -110.42279 -66.688693 -107.34916 -73.789844 C -104.27552 -80.996983 -98.764332 -90.747791 -90.815282 -103.04232 L -72.055703 -131.97699 L -108.3031 -131.97699 C -109.78693 -127.20756 -110.68782 -121.59002 -111.00578 -115.12479 C -112.91355 -114.80683 -114.87435 -114.64782 -116.88811 -114.64782 C -119.00786 -114.64782 -121.07449 -114.80683 -123.08825 -115.12479 L -127.54017 -142.46937 L -124.99614 -144.85424 z M -27.222781 -111.94514 C -23.513224 -111.94514 -20.757887 -110.83257 -18.956102 -108.60684 C -17.04833 -106.48709 -16.094261 -103.51905 -16.094261 -99.703508 C -16.094261 -95.887964 -17.04833 -92.920439 -18.956102 -90.800692 C -20.757887 -88.680945 -23.513224 -87.621041 -27.222781 -87.621041 C -30.932338 -87.621041 -33.741368 -88.680945 -35.64914 -90.800692 C -37.450925 -93.026426 -38.351818 -95.993951 -38.351818 -99.703508 C -38.351818 -103.62504 -37.450925 -106.64574 -35.64914 -108.76549 C -33.741368 -110.88523 -30.932338 -111.94514 -27.222781 -111.94514 z M -27.222781 -61.866024 C -23.513224 -61.866024 -20.757887 -60.753461 -18.956102 -58.527727 C -17.04833 -56.40798 -16.094261 -53.439938 -16.094261 -49.624394 C -16.094261 -45.80885 -17.04833 -42.841325 -18.956102 -40.721578 C -20.757887 -38.601832 -23.513224 -37.541927 -27.222781 -37.541927 C -30.932338 -37.541927 -33.741368 -38.601832 -35.64914 -40.721578 C -37.450925 -42.947312 -38.351818 -45.914837 -38.351818 -49.624394 C -38.351818 -53.545925 -37.450925 -56.566627 -35.64914 -58.686373 C -33.741368 -60.80612 -30.932338 -61.866024 -27.222781 -61.866024 z " /></g></svg>
