<?xml version="1.0" encoding="UTF-8" standalone="no"?>
<!-- Created with Inkscape (http://www.inkscape.org/) -->

<svg
   width="172.6701mm"
   height="172.6701mm"
   viewBox="0 0 172.6701 172.6701"
   version="1.1"
   id="svg1"
   xml:space="preserve"
   xmlns="http://www.w3.org/2000/svg"
   xmlns:svg="http://www.w3.org/2000/svg"><defs
     id="defs1" /><g
     id="layer1"
     transform="translate(157.25102,198.81012)"><path
       id="path5"
       style="fill:#ffffff;fill-opacity:1;stroke-width:0.805188;stroke-linecap:round;stroke-linejoin:round"
       d="M -2.0863309 -198.17657 L -10.088943 -183.11289 L -10.930235 -165.68398 L -19.198981 -165.68398 L -11.423229 -155.47426 L -12.166336 -140.07934 C -28.353216 -157.12094 -50.823548 -166.77435 -74.327399 -166.78417 C -103.64471 -166.77397 -130.92652 -151.79225 -146.66717 -127.05894 L -157.25102 -127.05894 L -149.61996 -115.86014 L -157.25102 -26.140039 L -8.5138455 -26.140039 L 15.419061 -26.140039 L 8.0799737 -154.80195 L 15.419061 -165.68398 L 7.4593397 -165.68398 L 6.4490654 -183.39297 L -2.0863309 -198.17657 z M -83.43072 -192.21621 C -85.584619 -189.65499 -86.77489 -186.4211 -86.795372 -183.07465 C -86.842092 -175.15518 -80.459903 -168.69733 -72.540428 -168.65072 C -64.621155 -168.60402 -58.163395 -174.98588 -58.116503 -182.90515 C -58.102813 -186.26049 -59.266203 -189.5144 -61.404157 -192.10045 C -60.83125 -190.6836 -60.536835 -189.16959 -60.537027 -187.64129 C -60.575787 -181.07411 -65.930869 -175.78172 -72.498054 -175.82031 C -79.065241 -175.85911 -84.357627 -181.21415 -84.319038 -187.78134 C -84.309338 -189.30285 -84.007827 -190.80837 -83.43072 -192.21621 z M -58.485989 -119.64906 C -51.853758 -119.64906 -46.780245 -117.15466 -43.265729 -112.16631 C -39.694528 -107.23465 -37.908951 -100.06428 -37.908951 -90.654448 C -37.908951 -81.244616 -39.694528 -74.017081 -43.265729 -68.97205 C -46.780245 -63.983706 -51.853758 -61.489303 -58.485989 -61.489303 C -65.11822 -61.489303 -70.219797 -63.983706 -73.790998 -68.97205 C -77.362199 -74.017081 -79.147777 -81.244616 -79.147777 -90.654448 C -79.147777 -100.00759 -77.362199 -107.17797 -73.790998 -112.16631 C -70.219797 -117.15466 -65.11822 -119.64906 -58.485989 -119.64906 z M -26.685346 -119.05375 L -22.433926 -118.969 C -16.425238 -118.85563 -13.250591 -118.79847 -12.910476 -118.79847 L -0.83679474 -118.969 L 1.6292046 -117.18306 L 0.86387665 -110.72092 L -20.223208 -110.72092 L -21.413317 -96.521273 C -18.465658 -97.258188 -15.80184 -97.626632 -13.42104 -97.626632 C -7.8091518 -97.626632 -3.2459514 -96.124274 0.26856415 -93.11993 C 3.8397655 -90.172272 5.6253431 -85.836165 5.6253431 -80.110905 C 5.6253431 -76.539704 4.7751665 -73.336993 3.0745944 -70.502706 C 1.4307081 -67.66842 -0.94988986 -65.429173 -4.0676053 -63.785287 C -7.1853207 -62.198086 -10.869764 -61.404554 -15.121194 -61.404554 C -18.579024 -61.404554 -21.725091 -61.886286 -24.559378 -62.849943 C -27.336979 -63.813601 -29.519581 -65.14551 -31.106782 -66.846082 C -32.693982 -68.60334 -33.487515 -70.559366 -33.487515 -72.713424 C -33.487515 -74.980853 -32.863914 -76.709787 -31.616828 -77.900188 C -30.369742 -79.147274 -28.839321 -79.770358 -27.025377 -79.770358 C -26.005034 -79.770358 -24.984925 -79.572362 -23.964582 -79.175562 C -22.887553 -78.778762 -21.923572 -78.211805 -21.073286 -77.474891 C -21.583457 -76.28449 -21.838614 -75.037289 -21.838614 -73.733517 C -21.838614 -71.862888 -21.300237 -70.332466 -20.223208 -69.142066 C -19.089494 -67.951665 -17.388624 -67.356645 -15.121194 -67.356645 C -10.019478 -67.356645 -7.4689481 -71.608045 -7.4689481 -80.110905 C -7.4689481 -84.135593 -8.2624807 -87.054567 -9.8496813 -88.86851 C -11.436882 -90.73914 -13.562323 -91.674541 -16.226553 -91.674541 C -17.870439 -91.674541 -19.627953 -91.36274 -21.498583 -90.739197 C -23.369212 -90.115654 -25.211434 -89.236897 -27.025377 -88.103182 L -31.702094 -92.609884 L -29.491376 -116.75776 L -26.685346 -119.05375 z M -144.62027 -118.88373 L -140.4536 -118.88373 C -138.29954 -118.82705 -133.59447 -118.79847 -126.33869 -118.79847 C -118.79949 -118.79847 -113.89643 -118.82705 -111.629 -118.88373 L -107.54759 -118.88373 L -105.84692 -115.22762 C -106.92395 -113.52705 -108.96469 -109.84261 -111.96903 -104.17404 C -114.97337 -98.505463 -117.80764 -92.496548 -120.47187 -86.147746 C -123.1361 -79.798944 -124.46852 -74.838719 -124.46852 -71.267517 C -124.46852 -68.433231 -123.47648 -66.307789 -121.49248 -64.890646 C -123.41979 -62.566531 -125.88562 -61.404554 -128.88996 -61.404554 C -131.66756 -61.404554 -133.82158 -62.169506 -135.3521 -63.700021 C -136.88261 -65.230536 -137.64757 -67.356494 -137.64757 -70.077409 C -137.64757 -73.478553 -136.82597 -77.077772 -135.18208 -80.875717 C -133.5382 -84.730347 -130.59013 -89.945728 -126.33869 -96.521273 L -116.30572 -111.9963 L -135.69213 -111.9963 C -136.48573 -109.44544 -136.96746 -106.44124 -137.13752 -102.98341 C -138.15786 -102.81335 -139.20655 -102.72813 -140.28358 -102.72813 C -141.41729 -102.72813 -142.52263 -102.81335 -143.59966 -102.98341 L -145.98039 -117.60836 L -144.62027 -118.88373 z M -58.485989 -115.31237 C -61.376962 -115.31237 -63.47434 -113.41351 -64.778111 -109.61556 C -66.025198 -105.81762 -66.648798 -99.497422 -66.648798 -90.654448 C -66.648798 -81.868159 -66.025198 -75.576025 -64.778111 -71.778081 C -63.47434 -68.036822 -61.376962 -66.16602 -58.485989 -66.16602 C -55.595017 -66.16602 -53.526219 -68.036822 -52.279133 -71.778081 C -50.975361 -75.576025 -50.32318 -81.868159 -50.32318 -90.654448 C -50.32318 -99.440737 -50.975361 -105.73287 -52.279133 -109.53081 C -53.526219 -113.38544 -55.595017 -115.31237 -58.485989 -115.31237 z M -92.327334 -101.28274 C -90.343334 -101.28274 -88.869556 -100.68772 -87.905899 -99.497319 C -86.885556 -98.363604 -86.37576 -96.776539 -86.37576 -94.735852 C -86.37576 -92.695166 -86.885556 -91.107584 -87.905899 -89.973869 C -88.869556 -88.840154 -90.343334 -88.273198 -92.327334 -88.273198 C -94.311335 -88.273198 -95.813693 -88.840154 -96.834036 -89.973869 C -97.797693 -91.16427 -98.279426 -92.751852 -98.279426 -94.735852 C -98.279426 -96.833225 -97.797693 -98.448354 -96.834036 -99.582068 C -95.813693 -100.71578 -94.311335 -101.28274 -92.327334 -101.28274 z M -92.327334 -74.498845 C -90.343334 -74.498845 -88.869556 -73.903824 -87.905899 -72.713424 C -86.885556 -71.579709 -86.37576 -69.992127 -86.37576 -67.951441 C -86.37576 -65.910754 -86.885556 -64.323689 -87.905899 -63.189974 C -88.869556 -62.05626 -90.343334 -61.489303 -92.327334 -61.489303 C -94.311335 -61.489303 -95.813693 -62.05626 -96.834036 -63.189974 C -97.797693 -64.380375 -98.279426 -65.96744 -98.279426 -67.951441 C -98.279426 -70.048813 -97.797693 -71.664459 -96.834036 -72.798173 C -95.813693 -73.931888 -94.311335 -74.498845 -92.327334 -74.498845 z " /></g></svg>
