<?xml version="1.0" encoding="UTF-8" standalone="no"?>
<!-- Created with Inkscape (http://www.inkscape.org/) -->

<svg
   width="172.6701mm"
   height="172.6701mm"
   viewBox="0 0 172.6701 172.6701"
   version="1.1"
   id="svg1"
   xml:space="preserve"
   xmlns="http://www.w3.org/2000/svg"
   xmlns:svg="http://www.w3.org/2000/svg"><defs
     id="defs1" /><g
     id="layer1"
     transform="translate(157.25102,198.81012)"><path
       id="path5"
       style="fill:#ffffff;fill-opacity:1;stroke-width:0.805188;stroke-linecap:round;stroke-linejoin:round"
       d="M -2.0863309 -198.17657 L -10.088943 -183.11289 L -10.930235 -165.68398 L -19.198981 -165.68398 L -11.423229 -155.47426 L -12.166336 -140.07934 C -28.353216 -157.12094 -50.823548 -166.77435 -74.327399 -166.78417 C -103.64471 -166.77397 -130.92652 -151.79225 -146.66717 -127.05894 L -157.25102 -127.05894 L -149.61996 -115.86014 L -157.25102 -26.140039 L -8.5138455 -26.140039 L 15.419061 -26.140039 L 8.0799737 -154.80195 L 15.419061 -165.68398 L 7.4593397 -165.68398 L 6.4490654 -183.39297 L -2.0863309 -198.17657 z M -83.43072 -192.21621 C -85.584619 -189.65499 -86.77489 -186.4211 -86.795372 -183.07465 C -86.842092 -175.15518 -80.459903 -168.69733 -72.540428 -168.65072 C -64.621155 -168.60402 -58.163395 -174.98588 -58.116503 -182.90515 C -58.102813 -186.26049 -59.266203 -189.5144 -61.404157 -192.10045 C -60.83125 -190.6836 -60.536835 -189.16959 -60.537027 -187.64129 C -60.575787 -181.07411 -65.930869 -175.78172 -72.498054 -175.82031 C -79.065241 -175.85911 -84.357627 -181.21415 -84.319038 -187.78134 C -84.309338 -189.30285 -84.007827 -190.80837 -83.43072 -192.21621 z M -2.1969184 -119.90383 L -0.15621613 -115.65241 C -11.606735 -110.72075 -18.494406 -103.12528 -20.818521 -92.865166 C -17.530748 -94.452366 -14.412745 -95.245899 -11.465087 -95.245899 C -5.7965131 -95.245899 -1.3466007 -93.715477 1.8844862 -90.654448 C 5.1722588 -87.593418 6.8159681 -83.455306 6.8159681 -78.240218 C 6.8159681 -75.009132 5.9372111 -72.118221 4.1799533 -69.567363 C 2.4793813 -67.016505 0.070202916 -65.032415 -3.0475125 -63.615271 C -6.1085422 -62.198128 -9.6230535 -61.489303 -13.591055 -61.489303 C -20.336657 -61.489303 -25.523458 -63.360105 -29.151346 -67.101363 C -32.722547 -70.842622 -34.508124 -76.255999 -34.508124 -83.341716 C -34.508124 -92.241376 -31.758565 -99.808775 -26.260049 -106.04421 C -20.704847 -112.33632 -12.683779 -116.95617 -2.1969184 -119.90383 z M -59.251317 -119.64906 C -52.619086 -119.64906 -47.545573 -117.15466 -44.031057 -112.16631 C -40.459856 -107.23465 -38.674278 -100.06428 -38.674278 -90.654448 C -38.674278 -81.244616 -40.459856 -74.017081 -44.031057 -68.97205 C -47.545573 -63.983706 -52.619086 -61.489303 -59.251317 -61.489303 C -65.883548 -61.489303 -70.985125 -63.983706 -74.556326 -68.97205 C -78.127527 -74.017081 -79.913105 -81.244616 -79.913105 -90.654448 C -79.913105 -100.00759 -78.127527 -107.17797 -74.556326 -112.16631 C -70.985125 -117.15466 -65.883548 -119.64906 -59.251317 -119.64906 z M -145.38508 -118.88373 L -141.21892 -118.88373 C -139.06487 -118.82705 -134.3598 -118.79847 -127.10402 -118.79847 C -119.56482 -118.79847 -114.66176 -118.82705 -112.39433 -118.88373 L -108.31292 -118.88373 L -106.61225 -115.22762 C -107.68928 -113.52705 -109.73001 -109.84261 -112.73436 -104.17404 C -115.7387 -98.505463 -118.57297 -92.496548 -121.2372 -86.147746 C -123.90143 -79.798944 -125.23334 -74.838719 -125.23334 -71.267517 C -125.23334 -68.433231 -124.24129 -66.307789 -122.25729 -64.890646 C -124.18461 -62.566531 -126.65043 -61.404554 -129.65477 -61.404554 C -132.43237 -61.404554 -134.58691 -62.169506 -136.11743 -63.700021 C -137.64794 -65.230536 -138.41289 -67.356494 -138.41289 -70.077409 C -138.41289 -73.478553 -137.59078 -77.077772 -135.94689 -80.875717 C -134.30301 -84.730347 -131.35545 -89.945728 -127.10402 -96.521273 L -117.07053 -111.9963 L -136.45746 -111.9963 C -137.25106 -109.44544 -137.73279 -106.44124 -137.90285 -102.98341 C -138.92319 -102.81335 -139.97188 -102.72813 -141.04891 -102.72813 C -142.18262 -102.72813 -143.28796 -102.81335 -144.36498 -102.98341 L -146.74572 -117.60836 L -145.38508 -118.88373 z M -59.251317 -115.31237 C -62.14229 -115.31237 -64.239668 -113.41351 -65.543439 -109.61556 C -66.790526 -105.81762 -67.414126 -99.497422 -67.414126 -90.654448 C -67.414126 -81.868159 -66.790526 -75.576025 -65.543439 -71.778081 C -64.239668 -68.036822 -62.14229 -66.16602 -59.251317 -66.16602 C -56.360345 -66.16602 -54.291547 -68.036822 -53.044461 -71.778081 C -51.740689 -75.576025 -51.088508 -81.868159 -51.088508 -90.654448 C -51.088508 -99.440737 -51.740689 -105.73287 -53.044461 -109.53081 C -54.291547 -113.38544 -56.360345 -115.31237 -59.251317 -115.31237 z M -93.092662 -101.28274 C -91.108662 -101.28274 -89.634884 -100.68772 -88.671227 -99.497319 C -87.650883 -98.363604 -87.140571 -96.776539 -87.140571 -94.735852 C -87.140571 -92.695166 -87.650883 -91.107584 -88.671227 -89.973869 C -89.634884 -88.840154 -91.108662 -88.273198 -93.092662 -88.273198 C -95.076663 -88.273198 -96.579021 -88.840154 -97.599364 -89.973869 C -98.563021 -91.16427 -99.044754 -92.751852 -99.044754 -94.735852 C -99.044754 -96.833225 -98.563021 -98.448354 -97.599364 -99.582068 C -96.579021 -100.71578 -95.076663 -101.28274 -93.092662 -101.28274 z M -13.84582 -89.293807 C -16.226621 -89.293807 -18.805731 -88.330343 -21.583332 -86.403028 L -21.583332 -85.297669 C -21.583332 -79.118924 -20.903087 -74.583787 -19.54263 -71.692814 C -18.182172 -68.801842 -16.02815 -67.356645 -13.080492 -67.356645 C -10.643005 -67.356645 -8.77272 -68.291529 -7.4689481 -70.162159 C -6.1651762 -72.032788 -5.5129951 -74.697123 -5.5129951 -78.154952 C -5.5129951 -81.669468 -6.2498838 -84.390447 -7.7237129 -86.317762 C -9.1408562 -88.301762 -11.18159 -89.293807 -13.84582 -89.293807 z M -93.092662 -74.498845 C -91.108662 -74.498845 -89.634884 -73.903824 -88.671227 -72.713424 C -87.650883 -71.579709 -87.140571 -69.992127 -87.140571 -67.951441 C -87.140571 -65.910754 -87.650883 -64.323689 -88.671227 -63.189974 C -89.634884 -62.05626 -91.108662 -61.489303 -93.092662 -61.489303 C -95.076663 -61.489303 -96.579021 -62.05626 -97.599364 -63.189974 C -98.563021 -64.380375 -99.044754 -65.96744 -99.044754 -67.951441 C -99.044754 -70.048813 -98.563021 -71.664459 -97.599364 -72.798173 C -96.579021 -73.931888 -95.076663 -74.498845 -93.092662 -74.498845 z " /></g></svg>
