<?xml version="1.0" encoding="UTF-8" standalone="no"?>
<!-- Created with Inkscape (http://www.inkscape.org/) -->

<svg
   width="172.6701mm"
   height="172.6701mm"
   viewBox="0 0 172.6701 172.6701"
   version="1.1"
   id="svg1"
   xml:space="preserve"
   xmlns="http://www.w3.org/2000/svg"
   xmlns:svg="http://www.w3.org/2000/svg"><defs
     id="defs1" /><g
     id="layer1"
     transform="translate(157.25102,198.81012)"><path
       id="path5"
       style="fill:#ffffff;fill-opacity:1;stroke-width:0.805188;stroke-linecap:round;stroke-linejoin:round"
       d="M -2.0863309 -198.17657 L -10.088943 -183.11289 L -10.930235 -165.68398 L -19.198981 -165.68398 L -11.423229 -155.47426 L -12.166336 -140.07934 C -28.353216 -157.12094 -50.823548 -166.77435 -74.327399 -166.78417 C -103.64471 -166.77397 -130.92652 -151.79225 -146.66717 -127.05894 L -157.25102 -127.05894 L -149.61996 -115.86014 L -157.25102 -26.140039 L -8.5138455 -26.140039 L 15.419061 -26.140039 L 8.0799737 -154.80195 L 15.419061 -165.68398 L 7.4593397 -165.68398 L 6.4490654 -183.39297 L -2.0863309 -198.17657 z M -83.43072 -192.21621 C -85.584619 -189.65499 -86.77489 -186.4211 -86.795372 -183.07465 C -86.842092 -175.15518 -80.459903 -168.69733 -72.540428 -168.65072 C -64.621155 -168.60402 -58.163395 -174.98588 -58.116503 -182.90515 C -58.102813 -186.26049 -59.266203 -189.5144 -61.404157 -192.10045 C -60.83125 -190.6836 -60.536835 -189.16959 -60.537027 -187.64129 C -60.575787 -181.07411 -65.930869 -175.78172 -72.498054 -175.82031 C -79.065241 -175.85911 -84.357627 -181.21415 -84.319038 -187.78134 C -84.309338 -189.30285 -84.007827 -190.80837 -83.43072 -192.21621 z M -14.015835 -119.81908 C -8.0638331 -119.81908 -3.3307008 -118.54381 0.1838148 -115.99295 C 3.6983304 -113.44209 5.4553277 -110.01229 5.4553277 -105.70418 C 5.4553277 -103.38006 4.605151 -101.05611 2.904579 -98.731991 C 1.2040069 -96.407876 -1.0347227 -94.50901 -3.8123237 -93.035181 C -0.29780814 -91.334609 2.4512342 -89.350519 4.4352349 -87.08309 C 6.4759213 -84.81566 7.49603 -81.896169 7.49603 -78.324968 C 7.49603 -73.166566 5.6257447 -69.057034 1.8844862 -65.996005 C -1.8567723 -62.991661 -6.901705 -61.489303 -13.250507 -61.489303 C -20.222853 -61.489303 -25.608166 -62.878373 -29.40611 -65.655974 C -33.147369 -68.433575 -35.018171 -72.401238 -35.018171 -77.55964 C -35.018171 -80.223869 -34.167994 -82.86014 -32.467422 -85.467684 C -30.76685 -88.131914 -28.385735 -90.483931 -25.324706 -92.524618 C -27.875564 -93.941761 -29.859654 -95.642631 -31.276797 -97.626632 C -32.693941 -99.610633 -33.402766 -102.07646 -33.402766 -105.02411 C -33.402766 -109.55897 -31.645252 -113.15871 -28.130736 -115.82294 C -24.61622 -118.48717 -19.911152 -119.81908 -14.015835 -119.81908 z M -60.016645 -119.64906 C -53.384414 -119.64906 -48.310901 -117.15466 -44.796385 -112.16631 C -41.225184 -107.23465 -39.439606 -100.06428 -39.439606 -90.654448 C -39.439606 -81.244616 -41.225184 -74.017081 -44.796385 -68.97205 C -48.310901 -63.983706 -53.384414 -61.489303 -60.016645 -61.489303 C -66.648876 -61.489303 -71.750453 -63.983706 -75.321654 -68.97205 C -78.892855 -74.017081 -80.678433 -81.244616 -80.678433 -90.654448 C -80.678433 -100.00759 -78.892855 -107.17797 -75.321654 -112.16631 C -71.750453 -117.15466 -66.648876 -119.64906 -60.016645 -119.64906 z M -146.15041 -118.88373 L -141.98425 -118.88373 C -139.83019 -118.82705 -135.12512 -118.79847 -127.86935 -118.79847 C -120.33015 -118.79847 -115.42708 -118.82705 -113.15965 -118.88373 L -109.07825 -118.88373 L -107.37758 -115.22762 C -108.45461 -113.52705 -110.49534 -109.84261 -113.49969 -104.17404 C -116.50403 -98.505463 -119.3383 -92.496548 -122.00253 -86.147746 C -124.66676 -79.798944 -125.99866 -74.838719 -125.99866 -71.267517 C -125.99866 -68.433231 -125.00662 -66.307789 -123.02262 -64.890646 C -124.94993 -62.566531 -127.41576 -61.404554 -130.4201 -61.404554 C -133.1977 -61.404554 -135.35172 -62.169506 -136.88224 -63.700021 C -138.41275 -65.230536 -139.17822 -67.356494 -139.17822 -70.077409 C -139.17822 -73.478553 -138.35611 -77.077772 -136.71222 -80.875717 C -135.06834 -84.730347 -132.12078 -89.945728 -127.86935 -96.521273 L -117.83585 -111.9963 L -137.22279 -111.9963 C -138.01639 -109.44544 -138.49812 -106.44124 -138.66817 -102.98341 C -139.68852 -102.81335 -140.73721 -102.72813 -141.81424 -102.72813 C -142.94795 -102.72813 -144.05328 -102.81335 -145.13031 -102.98341 L -147.51105 -117.60836 L -146.15041 -118.88373 z M -60.016645 -115.31237 C -62.907617 -115.31237 -65.004995 -113.41351 -66.308767 -109.61556 C -67.555854 -105.81762 -68.179454 -99.497422 -68.179454 -90.654448 C -68.179454 -81.868159 -67.555854 -75.576025 -66.308767 -71.778081 C -65.004995 -68.036822 -62.907617 -66.16602 -60.016645 -66.16602 C -57.125673 -66.16602 -55.056358 -68.036822 -53.809272 -71.778081 C -52.5055 -75.576025 -51.853836 -81.868159 -51.853836 -90.654448 C -51.853836 -99.440737 -52.5055 -105.73287 -53.809272 -109.53081 C -55.056358 -113.38544 -57.125673 -115.31237 -60.016645 -115.31237 z M -14.015835 -113.78224 C -16.283265 -113.78224 -18.068842 -113.04535 -19.372614 -111.57152 C -20.676386 -110.15437 -21.328567 -108.22693 -21.328567 -105.78944 C -21.328567 -103.63538 -20.506454 -101.84981 -18.862568 -100.43266 C -17.161996 -99.072205 -14.696173 -97.711715 -11.465087 -96.351258 C -10.047943 -97.314915 -8.9145466 -98.646824 -8.0642606 -100.3474 C -7.2139745 -102.04797 -6.7883694 -103.86213 -6.7883694 -105.78944 C -6.7883694 -108.22693 -7.4686141 -110.15437 -8.8290718 -111.57152 C -10.132844 -113.04535 -11.861777 -113.78224 -14.015835 -113.78224 z M -93.85799 -101.28274 C -91.873989 -101.28274 -90.400212 -100.68772 -89.436555 -99.497319 C -88.416211 -98.363604 -87.905899 -96.776539 -87.905899 -94.735852 C -87.905899 -92.695166 -88.416211 -91.107584 -89.436555 -89.973869 C -90.400212 -88.840154 -91.873989 -88.273198 -93.85799 -88.273198 C -95.841991 -88.273198 -97.344349 -88.840154 -98.364692 -89.973869 C -99.328349 -91.16427 -99.810082 -92.751852 -99.810082 -94.735852 C -99.810082 -96.833225 -99.328349 -98.448354 -98.364692 -99.582068 C -97.344349 -100.71578 -95.841991 -101.28274 -93.85799 -101.28274 z M -17.501927 -89.038526 C -19.202499 -87.678068 -20.449701 -86.119583 -21.243301 -84.362325 C -22.036901 -82.605068 -22.433926 -80.50769 -22.433926 -78.070203 C -22.433926 -74.725745 -21.611813 -72.089474 -19.967927 -70.162159 C -18.32404 -68.291529 -16.084794 -67.356645 -13.250507 -67.356645 C -10.472906 -67.356645 -8.3188843 -68.291529 -6.7883694 -70.162159 C -5.2011689 -72.032788 -4.4076362 -74.640479 -4.4076362 -77.984937 C -4.4076362 -79.855566 -5.0031733 -81.442631 -6.1935737 -82.746403 C -7.3272884 -84.106861 -8.7724854 -85.212194 -10.529743 -86.06248 C -12.287001 -86.969452 -14.610955 -87.961497 -17.501927 -89.038526 z M -93.85799 -74.498845 C -91.873989 -74.498845 -90.400212 -73.903824 -89.436555 -72.713424 C -88.416211 -71.579709 -87.905899 -69.992127 -87.905899 -67.951441 C -87.905899 -65.910754 -88.416211 -64.323689 -89.436555 -63.189974 C -90.400212 -62.05626 -91.873989 -61.489303 -93.85799 -61.489303 C -95.841991 -61.489303 -97.344349 -62.05626 -98.364692 -63.189974 C -99.328349 -64.380375 -99.810082 -65.96744 -99.810082 -67.951441 C -99.810082 -70.048813 -99.328349 -71.664459 -98.364692 -72.798173 C -97.344349 -73.931888 -95.841991 -74.498845 -93.85799 -74.498845 z " /></g></svg>
