<?xml version="1.0" encoding="UTF-8" standalone="no"?>
<!-- Created with Inkscape (http://www.inkscape.org/) -->

<svg
   width="172.6701mm"
   height="172.6701mm"
   viewBox="0 0 172.6701 172.6701"
   version="1.1"
   id="svg1"
   xml:space="preserve"
   xmlns="http://www.w3.org/2000/svg"
   xmlns:svg="http://www.w3.org/2000/svg"><defs
     id="defs1" /><g
     id="layer1"
     transform="translate(157.25102,198.81012)"><path
       id="path5"
       style="fill:#ffffff;fill-opacity:1;stroke-width:0.805188;stroke-linecap:round;stroke-linejoin:round"
       d="M -2.0863309 -198.17657 L -10.088943 -183.11289 L -10.930235 -165.68398 L -19.198981 -165.68398 L -11.423229 -155.47426 L -12.166336 -140.07934 C -28.353216 -157.12094 -50.823548 -166.77435 -74.327399 -166.78417 C -103.64471 -166.77397 -130.92652 -151.79225 -146.66717 -127.05894 L -157.25102 -127.05894 L -149.61996 -115.86014 L -157.25102 -26.140039 L -8.5138455 -26.140039 L 15.419061 -26.140039 L 8.0799737 -154.80195 L 15.419061 -165.68398 L 7.4593397 -165.68398 L 6.4490654 -183.39297 L -2.0863309 -198.17657 z M -83.43072 -192.21621 C -85.584619 -189.65499 -86.77489 -186.4211 -86.795372 -183.07465 C -86.842092 -175.15518 -80.459903 -168.69733 -72.540428 -168.65072 C -64.621155 -168.60402 -58.163395 -174.98588 -58.116503 -182.90515 C -58.102813 -186.26049 -59.266203 -189.5144 -61.404157 -192.10045 C -60.83125 -190.6836 -60.536835 -189.16959 -60.537027 -187.64129 C -60.575787 -181.07411 -65.930869 -175.78172 -72.498054 -175.82031 C -79.065241 -175.85911 -84.357627 -181.21415 -84.319038 -187.78134 C -84.309338 -189.30285 -84.007827 -190.80837 -83.43072 -192.21621 z M -59.081302 -119.64906 C -52.449071 -119.64906 -47.375558 -117.15466 -43.861042 -112.16631 C -40.289841 -107.23465 -38.504263 -100.06428 -38.504263 -90.654448 C -38.504263 -81.244616 -40.289841 -74.017081 -43.861042 -68.97205 C -47.375558 -63.983706 -52.449071 -61.489303 -59.081302 -61.489303 C -65.713533 -61.489303 -70.815109 -63.983706 -74.386311 -68.97205 C -77.957512 -74.017081 -79.743089 -81.244616 -79.743089 -90.654448 C -79.743089 -100.00759 -77.957512 -107.17797 -74.386311 -112.16631 C -70.815109 -117.15466 -65.713533 -119.64906 -59.081302 -119.64906 z M -14.185851 -119.56379 C -7.4402483 -119.56379 -2.2820276 -117.69351 1.2891737 -113.95225 C 4.9170607 -110.21099 6.730702 -104.7971 6.730702 -97.711381 C 6.730702 -88.811721 3.9535961 -81.216258 -1.6016059 -74.924142 C -7.1001222 -68.688711 -15.093126 -64.09693 -25.579987 -61.149272 L -27.62069 -65.400692 C -21.952116 -67.838179 -17.388916 -70.956182 -13.931086 -74.754126 C -10.473256 -78.608756 -8.1773657 -83.086732 -7.043651 -88.188448 C -10.218052 -86.601248 -13.307475 -85.807715 -16.311819 -85.807715 C -21.980393 -85.807715 -26.458369 -87.338137 -29.746141 -90.399166 C -32.977228 -93.460196 -34.592874 -97.598308 -34.592874 -102.8134 C -34.592874 -106.04448 -33.742697 -108.93539 -32.042125 -111.48625 C -30.284867 -114.03711 -27.875689 -116.0212 -24.814659 -117.43834 C -21.696944 -118.85549 -18.153852 -119.56379 -14.185851 -119.56379 z M -145.21506 -118.88373 L -141.04891 -118.88373 C -138.89485 -118.82705 -134.18978 -118.79847 -126.93401 -118.79847 C -119.3948 -118.79847 -114.49174 -118.82705 -112.22431 -118.88373 L -108.14291 -118.88373 L -106.44224 -115.22762 C -107.51926 -113.52705 -109.56 -109.84261 -112.56434 -104.17404 C -115.56869 -98.505463 -118.40295 -92.496548 -121.06718 -86.147746 C -123.73141 -79.798944 -125.06332 -74.838719 -125.06332 -71.267517 C -125.06332 -68.433231 -124.07128 -66.307789 -122.08727 -64.890646 C -124.01459 -62.566531 -126.48041 -61.404554 -129.48476 -61.404554 C -132.26236 -61.404554 -134.41638 -62.169506 -135.94689 -63.700021 C -137.47741 -65.230536 -138.24288 -67.356494 -138.24288 -70.077409 C -138.24288 -73.478553 -137.42076 -77.077772 -135.77688 -80.875717 C -134.13299 -84.730347 -131.18544 -89.945728 -126.93401 -96.521273 L -116.90051 -111.9963 L -136.28744 -111.9963 C -137.08104 -109.44544 -137.56277 -106.44124 -137.73283 -102.98341 C -138.75317 -102.81335 -139.80186 -102.72813 -140.87889 -102.72813 C -142.01261 -102.72813 -143.11794 -102.81335 -144.19497 -102.98341 L -146.5757 -117.60836 L -145.21506 -118.88373 z M -59.081302 -115.31237 C -61.972274 -115.31237 -64.069652 -113.41351 -65.373424 -109.61556 C -66.62051 -105.81762 -67.244111 -99.497422 -67.244111 -90.654448 C -67.244111 -81.868159 -66.62051 -75.576025 -65.373424 -71.778081 C -64.069652 -68.036822 -61.972274 -66.16602 -59.081302 -66.16602 C -56.190329 -66.16602 -54.121531 -68.036822 -52.874445 -71.778081 C -51.570673 -75.576025 -50.918492 -81.868159 -50.918492 -90.654448 C -50.918492 -99.440737 -51.570673 -105.73287 -52.874445 -109.53081 C -54.121531 -113.38544 -56.190329 -115.31237 -59.081302 -115.31237 z M -14.696414 -113.69697 C -17.1339 -113.69697 -19.004186 -112.76157 -20.307958 -110.89094 C -21.61173 -109.02031 -22.263911 -106.35597 -22.263911 -102.89814 C -22.263911 -99.383629 -21.555086 -96.634587 -20.137942 -94.650586 C -18.664113 -92.723271 -16.595315 -91.759807 -13.931086 -91.759807 C -11.606971 -91.759807 -9.0278605 -92.723271 -6.1935737 -94.650586 L -6.1935737 -95.755945 C -6.1935737 -101.93469 -6.8738184 -106.46931 -8.234276 -109.36028 C -9.5947337 -112.25126 -11.748756 -113.69697 -14.696414 -113.69697 z M -92.922647 -101.28274 C -90.938646 -101.28274 -89.464869 -100.68772 -88.501211 -99.497319 C -87.480868 -98.363604 -86.970555 -96.776539 -86.970555 -94.735852 C -86.970555 -92.695166 -87.480868 -91.107584 -88.501211 -89.973869 C -89.464869 -88.840154 -90.938646 -88.273198 -92.922647 -88.273198 C -94.906648 -88.273198 -96.409005 -88.840154 -97.429348 -89.973869 C -98.393006 -91.16427 -98.874738 -92.751852 -98.874738 -94.735852 C -98.874738 -96.833225 -98.393006 -98.448354 -97.429348 -99.582068 C -96.409005 -100.71578 -94.906648 -101.28274 -92.922647 -101.28274 z M -92.922647 -74.498845 C -90.938646 -74.498845 -89.464869 -73.903824 -88.501211 -72.713424 C -87.480868 -71.579709 -86.970555 -69.992127 -86.970555 -67.951441 C -86.970555 -65.910754 -87.480868 -64.323689 -88.501211 -63.189974 C -89.464869 -62.05626 -90.938646 -61.489303 -92.922647 -61.489303 C -94.906648 -61.489303 -96.409005 -62.05626 -97.429348 -63.189974 C -98.393006 -64.380375 -98.874738 -65.96744 -98.874738 -67.951441 C -98.874738 -70.048813 -98.393006 -71.664459 -97.429348 -72.798173 C -96.409005 -73.931888 -94.906648 -74.498845 -92.922647 -74.498845 z " /></g></svg>
