<?xml version="1.0" encoding="UTF-8" standalone="no"?>
<!-- Created with Inkscape (http://www.inkscape.org/) -->

<svg
   width="172.6701mm"
   height="172.6701mm"
   viewBox="0 0 172.6701 172.6701"
   version="1.1"
   id="svg1"
   xml:space="preserve"
   xmlns="http://www.w3.org/2000/svg"
   xmlns:svg="http://www.w3.org/2000/svg"><defs
     id="defs1" /><g
     id="layer1"
     transform="translate(157.25102,198.81012)"><path
       id="path5"
       style="fill:#ffffff;fill-opacity:1;stroke-width:0.805188;stroke-linecap:round;stroke-linejoin:round"
       d="M -2.0863309 -198.17657 L -10.088943 -183.11289 L -10.930235 -165.68398 L -19.198981 -165.68398 L -11.423229 -155.47426 L -12.166336 -140.07934 C -28.353216 -157.12094 -50.823548 -166.77435 -74.327399 -166.78417 C -103.64471 -166.77397 -130.92652 -151.79225 -146.66717 -127.05894 L -157.25102 -127.05894 L -149.61996 -115.86014 L -157.25102 -26.140039 L -8.5138455 -26.140039 L 15.419061 -26.140039 L 8.0799737 -154.80195 L 15.419061 -165.68398 L 7.4593397 -165.68398 L 6.4490654 -183.39297 L -2.0863309 -198.17657 z M -83.43072 -192.21621 C -85.584619 -189.65499 -86.77489 -186.4211 -86.795372 -183.07465 C -86.842092 -175.15518 -80.459903 -168.69733 -72.540428 -168.65072 C -64.621155 -168.60402 -58.163395 -174.98588 -58.116503 -182.90515 C -58.102813 -186.26049 -59.266203 -189.5144 -61.404157 -192.10045 C -60.83125 -190.6836 -60.536835 -189.16959 -60.537027 -187.64129 C -60.575787 -181.07411 -65.930869 -175.78172 -72.498054 -175.82031 C -79.065241 -175.85911 -84.357627 -181.21415 -84.319038 -187.78134 C -84.309338 -189.30285 -84.007827 -190.80837 -83.43072 -192.21621 z M -51.89621 -119.13901 L -49.09018 -117.86364 L -49.09018 -68.716769 C -48.013151 -68.093226 -46.312798 -67.526269 -43.988683 -67.016097 C -41.664568 -66.562611 -39.822346 -66.279392 -38.461888 -66.16602 L -38.716653 -62.084615 L -73.408592 -62.084615 L -73.238577 -66.16602 C -68.193547 -66.732877 -64.338654 -67.583054 -61.674425 -68.716769 L -61.674425 -109.44555 L -73.068562 -109.44555 L -73.068562 -114.37703 C -69.440674 -114.66046 -65.69907 -115.19935 -61.84444 -115.99295 C -57.98981 -116.84324 -54.673811 -117.89193 -51.89621 -119.13901 z M -12.953368 -119.13901 L -10.147338 -117.86364 L -10.147338 -68.716769 C -9.0703086 -68.093226 -7.3694385 -67.526269 -5.0453234 -67.016097 C -2.7212082 -66.562611 -0.87898659 -66.279392 0.48147105 -66.16602 L 0.22618947 -62.084615 L -34.465233 -62.084615 L -34.295218 -66.16602 C -29.250187 -66.732877 -25.395812 -67.583054 -22.731582 -68.716769 L -22.731582 -109.44555 L -34.125202 -109.44555 L -34.125202 -114.37703 C -30.497315 -114.66046 -26.756228 -115.19935 -22.901598 -115.99295 C -19.046968 -116.84324 -15.730969 -117.89193 -12.953368 -119.13901 z M -138.79582 -118.88373 L -134.62915 -118.88373 C -132.47509 -118.82705 -127.77002 -118.79847 -120.51424 -118.79847 C -112.97504 -118.79847 -108.07198 -118.82705 -105.80455 -118.88373 L -101.72314 -118.88373 L -100.02247 -115.22762 C -101.0995 -113.52705 -103.14023 -109.84261 -106.14458 -104.17404 C -109.14892 -98.505463 -111.98319 -92.496548 -114.64742 -86.147746 C -117.31165 -79.798944 -118.64356 -74.838719 -118.64356 -71.267517 C -118.64356 -68.433231 -117.65203 -66.307789 -115.66803 -64.890646 C -117.59534 -62.566531 -120.06117 -61.404554 -123.06551 -61.404554 C -125.84311 -61.404554 -127.99713 -62.169506 -129.52765 -63.700021 C -131.05816 -65.230536 -131.82311 -67.356494 -131.82311 -70.077409 C -131.82311 -73.478553 -131.00152 -77.077772 -129.35763 -80.875717 C -127.71375 -84.730347 -124.76567 -89.945728 -120.51424 -96.521273 L -110.48126 -111.9963 L -129.86768 -111.9963 C -130.66128 -109.44544 -131.14301 -106.44124 -131.31307 -102.98341 C -132.33341 -102.81335 -133.3821 -102.72813 -134.45913 -102.72813 C -135.59284 -102.72813 -136.69818 -102.81335 -137.77521 -102.98341 L -140.15594 -117.60836 L -138.79582 -118.88373 z M -86.502884 -101.28274 C -84.518883 -101.28274 -83.045106 -100.68772 -82.081448 -99.497319 C -81.061105 -98.363604 -80.550792 -96.776539 -80.550792 -94.735852 C -80.550792 -92.695166 -81.061105 -91.107584 -82.081448 -89.973869 C -83.045106 -88.840154 -84.518883 -88.273198 -86.502884 -88.273198 C -88.486884 -88.273198 -89.989242 -88.840154 -91.009585 -89.973869 C -91.973243 -91.16427 -92.454975 -92.751852 -92.454975 -94.735852 C -92.454975 -96.833225 -91.973243 -98.448354 -91.009585 -99.582068 C -89.989242 -100.71578 -88.486884 -101.28274 -86.502884 -101.28274 z M -86.502884 -74.498845 C -84.518883 -74.498845 -83.045106 -73.903824 -82.081448 -72.713424 C -81.061105 -71.579709 -80.550792 -69.992127 -80.550792 -67.951441 C -80.550792 -65.910754 -81.061105 -64.323689 -82.081448 -63.189974 C -83.045106 -62.05626 -84.518883 -61.489303 -86.502884 -61.489303 C -88.486884 -61.489303 -89.989242 -62.05626 -91.009585 -63.189974 C -91.973243 -64.380375 -92.454975 -65.96744 -92.454975 -67.951441 C -92.454975 -70.048813 -91.973243 -71.664459 -91.009585 -72.798173 C -89.989242 -73.931888 -88.486884 -74.498845 -86.502884 -74.498845 z " /></g></svg>
