<?xml version="1.0" encoding="UTF-8" standalone="no"?>
<!-- Created with Inkscape (http://www.inkscape.org/) -->

<svg
   width="172.6701mm"
   height="172.6701mm"
   viewBox="0 0 172.6701 172.6701"
   version="1.1"
   id="svg1"
   xml:space="preserve"
   xmlns="http://www.w3.org/2000/svg"
   xmlns:svg="http://www.w3.org/2000/svg"><defs
     id="defs1" /><g
     id="layer1"
     transform="translate(157.25102,198.81012)"><path
       id="path5"
       style="fill:#ffffff;fill-opacity:1;stroke-width:0.805188;stroke-linecap:round;stroke-linejoin:round"
       d="M -2.0863309 -198.17657 L -10.088943 -183.11289 L -10.930235 -165.68398 L -19.198981 -165.68398 L -11.423229 -155.47426 L -12.166336 -140.07934 C -28.353216 -157.12094 -50.823548 -166.77435 -74.327399 -166.78417 C -103.64471 -166.77397 -130.92652 -151.79225 -146.66717 -127.05894 L -157.25102 -127.05894 L -149.61996 -115.86014 L -157.25102 -26.140039 L -8.5138455 -26.140039 L 15.419061 -26.140039 L 8.0799737 -154.80195 L 15.419061 -165.68398 L 7.4593397 -165.68398 L 6.4490654 -183.39297 L -2.0863309 -198.17657 z M -83.43072 -192.21621 C -85.584619 -189.65499 -86.77489 -186.4211 -86.795372 -183.07465 C -86.842092 -175.15518 -80.459903 -168.69733 -72.540428 -168.65072 C -64.621155 -168.60402 -58.163395 -174.98588 -58.116503 -182.90515 C -58.102813 -186.26049 -59.266203 -189.5144 -61.404157 -192.10045 C -60.83125 -190.6836 -60.536835 -189.16959 -60.537027 -187.64129 C -60.575787 -181.07411 -65.930869 -175.78172 -72.498054 -175.82031 C -79.065241 -175.85911 -84.357627 -181.21415 -84.319038 -187.78134 C -84.309338 -189.30285 -84.007827 -190.80837 -83.43072 -192.21621 z M -5.3858711 -119.90383 L -3.3451688 -115.65241 C -14.795687 -110.72075 -21.682842 -103.12528 -24.006957 -92.865166 C -20.719184 -94.452366 -17.601181 -95.245899 -14.653522 -95.245899 C -8.9849489 -95.245899 -4.5355534 -93.715477 -1.3044665 -90.654448 C 1.9833062 -87.593418 3.6275322 -83.455306 3.6275322 -78.240218 C 3.6275322 -75.009132 2.7487752 -72.118221 0.99151743 -69.567363 C -0.70905462 -67.016505 -3.118233 -65.032415 -6.2359484 -63.615271 C -9.2969781 -62.198128 -12.811489 -61.489303 -16.779491 -61.489303 C -23.525093 -61.489303 -28.711894 -63.360105 -32.339781 -67.101363 C -35.910983 -70.842622 -37.69656 -76.255999 -37.69656 -83.341716 C -37.69656 -92.241376 -34.947518 -99.808775 -29.449002 -106.04421 C -23.8938 -112.33632 -15.872732 -116.95617 -5.3858711 -119.90383 z M -55.297553 -119.13901 L -52.491523 -117.86364 L -52.491523 -68.716769 C -51.414494 -68.093226 -49.714141 -67.526269 -47.390026 -67.016097 C -45.06591 -66.562611 -43.223172 -66.279392 -41.862714 -66.16602 L -42.117996 -62.084615 L -76.809935 -62.084615 L -76.639403 -66.16602 C -71.594373 -66.732877 -67.739997 -67.583054 -65.075768 -68.716769 L -65.075768 -109.44555 L -76.469388 -109.44555 L -76.469388 -114.37703 C -72.8415 -114.66046 -69.100413 -115.19935 -65.245783 -115.99295 C -61.391153 -116.84324 -58.075154 -117.89193 -55.297553 -119.13901 z M -142.19664 -118.88373 L -138.03049 -118.88373 C -135.87643 -118.82705 -131.17136 -118.79847 -123.91559 -118.79847 C -116.37638 -118.79847 -111.4728 -118.82705 -109.20537 -118.88373 L -105.12449 -118.88373 L -103.42381 -115.22762 C -104.50084 -113.52705 -106.54158 -109.84261 -109.54592 -104.17404 C -112.55027 -98.505463 -115.38453 -92.496548 -118.04876 -86.147746 C -120.71299 -79.798944 -122.0449 -74.838719 -122.0449 -71.267517 C -122.0449 -68.433231 -121.05286 -66.307789 -119.06885 -64.890646 C -120.99617 -62.566531 -123.46199 -61.404554 -126.46634 -61.404554 C -129.24394 -61.404554 -131.39796 -62.169506 -132.92847 -63.700021 C -134.45899 -65.230536 -135.22446 -67.356494 -135.22446 -70.077409 C -135.22446 -73.478553 -134.40234 -77.077772 -132.75846 -80.875717 C -131.11457 -84.730347 -128.16702 -89.945728 -123.91559 -96.521273 L -113.88209 -111.9963 L -133.2685 -111.9963 C -134.0621 -109.44544 -134.54435 -106.44124 -134.71441 -102.98341 C -135.73475 -102.81335 -136.78344 -102.72813 -137.86047 -102.72813 C -138.99419 -102.72813 -140.09952 -102.81335 -141.17655 -102.98341 L -143.55728 -117.60836 L -142.19664 -118.88373 z M -89.904226 -101.28274 C -87.920226 -101.28274 -86.446448 -100.68772 -85.482791 -99.497319 C -84.462448 -98.363604 -83.952135 -96.776539 -83.952135 -94.735852 C -83.952135 -92.695166 -84.462448 -91.107584 -85.482791 -89.973869 C -86.446448 -88.840154 -87.920226 -88.273198 -89.904226 -88.273198 C -91.888227 -88.273198 -93.390585 -88.840154 -94.410928 -89.973869 C -95.374586 -91.16427 -95.856318 -92.751852 -95.856318 -94.735852 C -95.856318 -96.833225 -95.374586 -98.448354 -94.410928 -99.582068 C -93.390585 -100.71578 -91.888227 -101.28274 -89.904226 -101.28274 z M -17.034772 -89.293807 C -19.415573 -89.293807 -21.994684 -88.330343 -24.772285 -86.403028 L -24.772285 -85.297669 C -24.772285 -79.118924 -24.09204 -74.583787 -22.731582 -71.692814 C -21.371125 -68.801842 -19.217103 -67.356645 -16.269444 -67.356645 C -13.831958 -67.356645 -11.961156 -68.291529 -10.657384 -70.162159 C -9.353612 -72.032788 -8.7019477 -74.697123 -8.7019477 -78.154952 C -8.7019477 -81.669468 -9.4388364 -84.390447 -10.912666 -86.317762 C -12.329809 -88.301762 -14.370543 -89.293807 -17.034772 -89.293807 z M -89.904226 -74.498845 C -87.920226 -74.498845 -86.446448 -73.903824 -85.482791 -72.713424 C -84.462448 -71.579709 -83.952135 -69.992127 -83.952135 -67.951441 C -83.952135 -65.910754 -84.462448 -64.323689 -85.482791 -63.189974 C -86.446448 -62.05626 -87.920226 -61.489303 -89.904226 -61.489303 C -91.888227 -61.489303 -93.390585 -62.05626 -94.410928 -63.189974 C -95.374586 -64.380375 -95.856318 -65.96744 -95.856318 -67.951441 C -95.856318 -70.048813 -95.374586 -71.664459 -94.410928 -72.798173 C -93.390585 -73.931888 -91.888227 -74.498845 -89.904226 -74.498845 z " /></g></svg>
