<?xml version="1.0" encoding="UTF-8" standalone="no"?>
<!-- Created with Inkscape (http://www.inkscape.org/) -->

<svg
   width="172.6701mm"
   height="172.6701mm"
   viewBox="0 0 172.6701 172.6701"
   version="1.1"
   id="svg1"
   xml:space="preserve"
   xmlns="http://www.w3.org/2000/svg"
   xmlns:svg="http://www.w3.org/2000/svg"><defs
     id="defs1" /><g
     id="layer1"
     transform="translate(157.25102,198.81012)"><path
       id="path5"
       style="fill:#ffffff;fill-opacity:1;stroke-width:0.805188;stroke-linecap:round;stroke-linejoin:round"
       d="M -2.0863309 -198.17657 L -10.088943 -183.11289 L -10.930235 -165.68398 L -19.198981 -165.68398 L -11.423229 -155.47426 L -12.166336 -140.07934 C -28.353216 -157.12094 -50.823548 -166.77435 -74.327399 -166.78417 C -103.64471 -166.77397 -130.92652 -151.79225 -146.66717 -127.05894 L -157.25102 -127.05894 L -149.61996 -115.86014 L -157.25102 -26.140039 L -8.5138455 -26.140039 L 15.419061 -26.140039 L 8.0799737 -154.80195 L 15.419061 -165.68398 L 7.4593397 -165.68398 L 6.4490654 -183.39297 L -2.0863309 -198.17657 z M -83.43072 -192.21621 C -85.584619 -189.65499 -86.77489 -186.4211 -86.795372 -183.07465 C -86.842092 -175.15518 -80.459903 -168.69733 -72.540428 -168.65072 C -64.621155 -168.60402 -58.163395 -174.98588 -58.116503 -182.90515 C -58.102813 -186.26049 -59.266203 -189.5144 -61.404157 -192.10045 C -60.83125 -190.6836 -60.536835 -189.16959 -60.537027 -187.64129 C -60.575787 -181.07411 -65.930869 -175.78172 -72.498054 -175.82031 C -79.065241 -175.85911 -84.357627 -181.21415 -84.319038 -187.78134 C -84.309338 -189.30285 -84.007827 -190.80837 -83.43072 -192.21621 z M -17.204788 -119.81908 C -11.252786 -119.81908 -6.5191366 -118.54381 -3.0046211 -115.99295 C 0.5098945 -113.44209 2.2668918 -110.01229 2.2668918 -105.70418 C 2.2668918 -103.38006 1.4167151 -101.05611 -0.28385691 -98.731991 C -1.984429 -96.407876 -4.2236753 -94.50901 -7.0012763 -93.035181 C -3.4867608 -91.334609 -0.73720172 -89.350519 1.246799 -87.08309 C 3.2874855 -84.81566 4.3075941 -81.896169 4.3075941 -78.324968 C 4.3075941 -73.166566 2.4367921 -69.057034 -1.3044665 -65.996005 C -5.045725 -62.991661 -10.090658 -61.489303 -16.43946 -61.489303 C -23.411805 -61.489303 -28.796602 -62.878373 -32.594546 -65.655974 C -36.335805 -68.433575 -38.206607 -72.401238 -38.206607 -77.55964 C -38.206607 -80.223869 -37.35643 -82.86014 -35.655858 -85.467684 C -33.955286 -88.131914 -31.574688 -90.483931 -28.513658 -92.524618 C -31.064516 -93.941761 -33.04809 -95.642631 -34.465233 -97.626632 C -35.882376 -99.610633 -36.591201 -102.07646 -36.591201 -105.02411 C -36.591201 -109.55897 -34.833687 -113.15871 -31.319172 -115.82294 C -27.804656 -118.48717 -23.100104 -119.81908 -17.204788 -119.81908 z M -56.062881 -119.13901 L -53.256851 -117.86364 L -53.256851 -68.716769 C -52.179822 -68.093226 -50.478952 -67.526269 -48.154837 -67.016097 C -45.830722 -66.562611 -43.9885 -66.279392 -42.628042 -66.16602 L -42.883324 -62.084615 L -77.574746 -62.084615 L -77.404731 -66.16602 C -72.359701 -66.732877 -68.505325 -67.583054 -65.841096 -68.716769 L -65.841096 -109.44555 L -77.234715 -109.44555 L -77.234715 -114.37703 C -73.606828 -114.66046 -69.865741 -115.19935 -66.011111 -115.99295 C -62.156481 -116.84324 -58.840482 -117.89193 -56.062881 -119.13901 z M -142.96197 -118.88373 L -138.7953 -118.88373 C -136.64124 -118.82705 -131.93669 -118.79847 -124.68092 -118.79847 C -117.14171 -118.79847 -112.23813 -118.82705 -109.9707 -118.88373 L -105.8893 -118.88373 L -104.18914 -115.22762 C -105.26617 -113.52705 -107.30639 -109.84261 -110.31073 -104.17404 C -113.31508 -98.505463 -116.14934 -92.496548 -118.81357 -86.147746 C -121.4778 -79.798944 -122.81023 -74.838719 -122.81023 -71.267517 C -122.81023 -68.433231 -121.81818 -66.307789 -119.83418 -64.890646 C -121.7615 -62.566531 -124.22732 -61.404554 -127.23166 -61.404554 C -130.00926 -61.404554 -132.16329 -62.169506 -133.6938 -63.700021 C -135.22432 -65.230536 -135.98979 -67.356494 -135.98979 -70.077409 C -135.98979 -73.478553 -135.16767 -77.077772 -133.52379 -80.875717 C -131.8799 -84.730347 -128.93235 -89.945728 -124.68092 -96.521273 L -114.64742 -111.9963 L -134.03383 -111.9963 C -134.82743 -109.44544 -135.30917 -106.44124 -135.47922 -102.98341 C -136.49957 -102.81335 -137.54825 -102.72813 -138.62528 -102.72813 C -139.759 -102.72813 -140.86433 -102.81335 -141.94136 -102.98341 L -144.32261 -117.60836 L -142.96197 -118.88373 z M -17.204788 -113.78224 C -19.472217 -113.78224 -21.257795 -113.04535 -22.561567 -111.57152 C -23.865339 -110.15437 -24.517003 -108.22693 -24.517003 -105.78944 C -24.517003 -103.63538 -23.69489 -101.84981 -22.051004 -100.43266 C -20.350432 -99.072205 -17.884609 -97.711715 -14.653522 -96.351258 C -13.236379 -97.314915 -12.102982 -98.646824 -11.252696 -100.3474 C -10.40241 -102.04797 -9.9773221 -103.86213 -9.9773221 -105.78944 C -9.9773221 -108.22693 -10.657567 -110.15437 -12.018024 -111.57152 C -13.321796 -113.04535 -15.05073 -113.78224 -17.204788 -113.78224 z M -90.669554 -101.28274 C -88.685554 -101.28274 -87.211776 -100.68772 -86.248119 -99.497319 C -85.227776 -98.363604 -84.717463 -96.776539 -84.717463 -94.735852 C -84.717463 -92.695166 -85.227776 -91.107584 -86.248119 -89.973869 C -87.211776 -88.840154 -88.685554 -88.273198 -90.669554 -88.273198 C -92.653555 -88.273198 -94.155396 -88.840154 -95.175739 -89.973869 C -96.139397 -91.16427 -96.621646 -92.751852 -96.621646 -94.735852 C -96.621646 -96.833225 -96.139397 -98.448354 -95.175739 -99.582068 C -94.155396 -100.71578 -92.653555 -101.28274 -90.669554 -101.28274 z M -20.69088 -89.038526 C -22.391452 -87.678068 -23.638653 -86.119583 -24.432254 -84.362325 C -25.225854 -82.605068 -25.622362 -80.50769 -25.622362 -78.070203 C -25.622362 -74.725745 -24.800249 -72.089474 -23.156363 -70.162159 C -21.512476 -68.291529 -19.273747 -67.356645 -16.43946 -67.356645 C -13.661859 -67.356645 -11.507837 -68.291529 -9.9773221 -70.162159 C -8.3901215 -72.032788 -7.5965888 -74.640479 -7.5965888 -77.984937 C -7.5965888 -79.855566 -8.1916091 -81.442631 -9.3820096 -82.746403 C -10.515724 -84.106861 -11.961438 -85.212194 -13.718696 -86.06248 C -15.475954 -86.969452 -17.799908 -87.961497 -20.69088 -89.038526 z M -90.669554 -74.498845 C -88.685554 -74.498845 -87.211776 -73.903824 -86.248119 -72.713424 C -85.227776 -71.579709 -84.717463 -69.992127 -84.717463 -67.951441 C -84.717463 -65.910754 -85.227776 -64.323689 -86.248119 -63.189974 C -87.211776 -62.05626 -88.685554 -61.489303 -90.669554 -61.489303 C -92.653555 -61.489303 -94.155396 -62.05626 -95.175739 -63.189974 C -96.139397 -64.380375 -96.621646 -65.96744 -96.621646 -67.951441 C -96.621646 -70.048813 -96.139397 -71.664459 -95.175739 -72.798173 C -94.155396 -73.931888 -92.653555 -74.498845 -90.669554 -74.498845 z " /></g></svg>
