<?xml version="1.0" encoding="UTF-8" standalone="no"?>
<!-- Created with Inkscape (http://www.inkscape.org/) -->

<svg
   width="172.6701mm"
   height="172.6701mm"
   viewBox="0 0 172.6701 172.6701"
   version="1.1"
   id="svg1"
   xml:space="preserve"
   xmlns="http://www.w3.org/2000/svg"
   xmlns:svg="http://www.w3.org/2000/svg"><defs
     id="defs1" /><g
     id="layer1"
     transform="translate(157.25102,198.81012)"><path
       id="path5"
       style="fill:#ffffff;fill-opacity:1;stroke-width:0.805188;stroke-linecap:round;stroke-linejoin:round"
       d="M -2.0863309 -198.17657 L -10.088943 -183.11289 L -10.930235 -165.68398 L -19.198981 -165.68398 L -11.423229 -155.47426 L -12.166336 -140.07934 C -28.353216 -157.12094 -50.823548 -166.77435 -74.327399 -166.78417 C -103.64471 -166.77397 -130.92652 -151.79225 -146.66717 -127.05894 L -157.25102 -127.05894 L -149.61996 -115.86014 L -157.25102 -26.140039 L -8.5138455 -26.140039 L 15.419061 -26.140039 L 8.0799737 -154.80195 L 15.419061 -165.68398 L 7.4593397 -165.68398 L 6.4490654 -183.39297 L -2.0863309 -198.17657 z M -83.43072 -192.21621 C -85.584619 -189.65499 -86.77489 -186.4211 -86.795372 -183.07465 C -86.842092 -175.15518 -80.459903 -168.69733 -72.540428 -168.65072 C -64.621155 -168.60402 -58.163395 -174.98588 -58.116503 -182.90515 C -58.102813 -186.26049 -59.266203 -189.5144 -61.404157 -192.10045 C -60.83125 -190.6836 -60.536835 -189.16959 -60.537027 -187.64129 C -60.575787 -181.07411 -65.930869 -175.78172 -72.498054 -175.82031 C -79.065241 -175.85911 -84.357627 -181.21415 -84.319038 -187.78134 C -84.309338 -189.30285 -84.007827 -190.80837 -83.43072 -192.21621 z M -16.864757 -120.07436 C -12.329898 -119.84761 -8.6449381 -118.85557 -5.8106513 -117.09831 L -26.047659 -83.767013 L -13.038117 -83.767013 L -12.18804 -97.626632 C -10.374096 -97.626632 -9.070251 -97.995076 -8.2766507 -98.731991 C -7.4263647 -99.468905 -6.7741836 -100.71611 -6.3206977 -102.47336 L -1.4744819 -102.47336 L -1.5592313 -83.341716 C 0.59482667 -82.718173 3.3158053 -82.066508 6.603578 -81.38628 L 6.1782809 -77.304875 L -1.9845283 -77.304875 L -1.9845283 -62.084615 L -13.038117 -62.084615 L -13.038117 -77.304875 L -37.611294 -77.304875 L -38.291873 -80.36567 L -16.864757 -120.07436 z M -60.569066 -119.73381 C -54.730435 -119.73381 -50.082527 -118.28861 -46.624698 -115.39764 C -43.166868 -112.56335 -41.437934 -108.56711 -41.437934 -103.40871 C -41.437934 -98.873849 -43.166868 -94.026912 -46.624698 -88.86851 C -50.082527 -83.766794 -55.779124 -77.616529 -63.715127 -70.41744 L -40.842622 -70.41744 L -40.842622 -62.084615 L -79.360684 -62.084615 L -79.360684 -67.016097 C -73.068567 -73.081471 -68.164986 -78.268272 -64.650471 -82.576388 C -61.135955 -86.884504 -58.613489 -90.852684 -57.082974 -94.480571 C -55.495773 -98.108458 -54.702241 -101.84955 -54.702241 -105.70418 C -54.702241 -111.82623 -56.742975 -114.88759 -60.824348 -114.88759 C -62.638291 -114.88759 -64.112068 -114.0369 -65.245783 -112.33633 C -66.379498 -110.69244 -66.946455 -108.65171 -66.946455 -106.21422 C -66.946455 -104.51365 -66.350918 -102.89852 -65.160517 -101.36801 C -66.124175 -100.46103 -67.230024 -99.752209 -68.47711 -99.242037 C -69.667511 -98.731866 -70.857552 -98.476709 -72.047952 -98.476709 C -74.088638 -98.476709 -75.789508 -99.10031 -77.149966 -100.3474 C -78.510424 -101.65117 -79.190668 -103.52197 -79.190668 -105.95946 C -79.190668 -108.567 -78.425199 -110.91953 -76.894685 -113.01691 C -75.36417 -115.11428 -73.210148 -116.75799 -70.432547 -117.94839 C -67.59826 -119.13879 -64.310325 -119.73381 -60.569066 -119.73381 z M -144.91741 -118.88373 L -140.75125 -118.88373 C -138.59719 -118.82705 -133.89213 -118.79847 -126.63635 -118.79847 C -119.09715 -118.79847 -114.19408 -118.82705 -111.92665 -118.88373 L -107.84525 -118.88373 L -106.14458 -115.22762 C -107.22161 -113.52705 -109.26234 -109.84261 -112.26669 -104.17404 C -115.27103 -98.505463 -118.1053 -92.496548 -120.76953 -86.147746 C -123.43376 -79.798944 -124.76566 -74.838719 -124.76566 -71.267517 C -124.76566 -68.433231 -123.77362 -66.307789 -121.78962 -64.890646 C -123.71693 -62.566531 -126.18276 -61.404554 -129.1871 -61.404554 C -131.9647 -61.404554 -134.11872 -62.169506 -135.64924 -63.700021 C -137.17975 -65.230536 -137.94522 -67.356494 -137.94522 -70.077409 C -137.94522 -73.478553 -137.12311 -77.077772 -135.47922 -80.875717 C -133.83534 -84.730347 -130.88778 -89.945728 -126.63635 -96.521273 L -116.60286 -111.9963 L -135.98979 -111.9963 C -136.78339 -109.44544 -137.26512 -106.44124 -137.43518 -102.98341 C -138.45552 -102.81335 -139.50421 -102.72813 -140.58124 -102.72813 C -141.71495 -102.72813 -142.82028 -102.81335 -143.89731 -102.98341 L -146.27805 -117.60836 L -144.91741 -118.88373 z M -92.624991 -101.28274 C -90.64099 -101.28274 -89.167212 -100.68772 -88.203555 -99.497319 C -87.183212 -98.363604 -86.672899 -96.776539 -86.672899 -94.735852 C -86.672899 -92.695166 -87.183212 -91.107584 -88.203555 -89.973869 C -89.167212 -88.840154 -90.64099 -88.273198 -92.624991 -88.273198 C -94.608991 -88.273198 -96.111349 -88.840154 -97.131692 -89.973869 C -98.09535 -91.16427 -98.577082 -92.751852 -98.577082 -94.735852 C -98.577082 -96.833225 -98.09535 -98.448354 -97.131692 -99.582068 C -96.111349 -100.71578 -94.608991 -101.28274 -92.624991 -101.28274 z M -92.624991 -74.498845 C -90.64099 -74.498845 -89.167212 -73.903824 -88.203555 -72.713424 C -87.183212 -71.579709 -86.672899 -69.992127 -86.672899 -67.951441 C -86.672899 -65.910754 -87.183212 -64.323689 -88.203555 -63.189974 C -89.167212 -62.05626 -90.64099 -61.489303 -92.624991 -61.489303 C -94.608991 -61.489303 -96.111349 -62.05626 -97.131692 -63.189974 C -98.09535 -64.380375 -98.577082 -65.96744 -98.577082 -67.951441 C -98.577082 -70.048813 -98.09535 -71.664459 -97.131692 -72.798173 C -96.111349 -73.931888 -94.608991 -74.498845 -92.624991 -74.498845 z " /></g></svg>
