<?xml version="1.0" encoding="UTF-8" standalone="no"?>
<!-- Created with Inkscape (http://www.inkscape.org/) -->

<svg
   width="172.6701mm"
   height="172.6701mm"
   viewBox="0 0 172.6701 172.6701"
   version="1.1"
   id="svg1"
   xml:space="preserve"
   xmlns="http://www.w3.org/2000/svg"
   xmlns:svg="http://www.w3.org/2000/svg"><defs
     id="defs1" /><g
     id="layer1"
     transform="translate(157.25102,198.81012)"><path
       id="path5"
       style="fill:#ffffff;fill-opacity:1;stroke-width:0.805188;stroke-linecap:round;stroke-linejoin:round"
       d="M -2.0863309 -198.17657 L -10.088943 -183.11289 L -10.930235 -165.68398 L -19.198981 -165.68398 L -11.423229 -155.47426 L -12.166336 -140.07934 C -28.353216 -157.12094 -50.823548 -166.77435 -74.327399 -166.78417 C -103.64471 -166.77397 -130.92652 -151.79225 -146.66717 -127.05894 L -157.25102 -127.05894 L -149.61996 -115.86014 L -157.25102 -26.140039 L -8.5138455 -26.140039 L 15.419061 -26.140039 L 8.0799737 -154.80195 L 15.419061 -165.68398 L 7.4593397 -165.68398 L 6.4490654 -183.39297 L -2.0863309 -198.17657 z M -83.43072 -192.21621 C -85.584619 -189.65499 -86.77489 -186.4211 -86.795372 -183.07465 C -86.842092 -175.15518 -80.459903 -168.69733 -72.540428 -168.65072 C -64.621155 -168.60402 -58.163395 -174.98588 -58.116503 -182.90515 C -58.102813 -186.26049 -59.266203 -189.5144 -61.404157 -192.10045 C -60.83125 -190.6836 -60.536835 -189.16959 -60.537027 -187.64129 C -60.575787 -181.07411 -65.930869 -175.78172 -72.498054 -175.82031 C -79.065241 -175.85911 -84.357627 -181.21415 -84.319038 -187.78134 C -84.309338 -189.30285 -84.007827 -190.80837 -83.43072 -192.21621 z M -3.3022773 -119.90383 L -1.261575 -115.65241 C -12.712093 -110.72075 -19.599765 -103.12528 -21.92388 -92.865166 C -18.636107 -94.452366 -15.518104 -95.245899 -12.570445 -95.245899 C -6.9018719 -95.245899 -2.4519596 -93.715477 0.7791273 -90.654448 C 4.0668999 -87.593418 5.7106092 -83.455306 5.7106092 -78.240218 C 5.7106092 -75.009132 4.8318522 -72.118221 3.0745944 -69.567363 C 1.3740224 -67.016505 -1.035156 -65.032415 -4.1528714 -63.615271 C -7.2139011 -62.198128 -10.728412 -61.489303 -14.696414 -61.489303 C -21.442016 -61.489303 -26.628817 -63.360105 -30.256704 -67.101363 C -33.827906 -70.842622 -35.613483 -76.255999 -35.613483 -83.341716 C -35.613483 -92.241376 -32.863924 -99.808775 -27.365408 -106.04421 C -21.810206 -112.33632 -13.789138 -116.95617 -3.3022773 -119.90383 z M -59.931379 -119.73381 C -54.092748 -119.73381 -49.44484 -118.28861 -45.98701 -115.39764 C -42.529181 -112.56335 -40.800247 -108.56711 -40.800247 -103.40871 C -40.800247 -98.873849 -42.529181 -94.026912 -45.98701 -88.86851 C -49.44484 -83.766794 -55.141437 -77.616529 -63.07744 -70.41744 L -40.204934 -70.41744 L -40.204934 -62.084615 L -78.722997 -62.084615 L -78.722997 -67.016097 C -72.43088 -73.081471 -67.527299 -78.268272 -64.012784 -82.576388 C -60.498268 -86.884504 -57.975802 -90.852684 -56.445287 -94.480571 C -54.858086 -98.108458 -54.064554 -101.84955 -54.064554 -105.70418 C -54.064554 -111.82623 -56.105288 -114.88759 -60.18666 -114.88759 C -62.000604 -114.88759 -63.474381 -114.0369 -64.608096 -112.33633 C -65.741811 -110.69244 -66.308767 -108.65171 -66.308767 -106.21422 C -66.308767 -104.51365 -65.71323 -102.89852 -64.52283 -101.36801 C -65.486487 -100.46103 -66.592337 -99.752209 -67.839423 -99.242037 C -69.029824 -98.731866 -70.219864 -98.476709 -71.410265 -98.476709 C -73.450951 -98.476709 -75.151821 -99.10031 -76.512279 -100.3474 C -77.872737 -101.65117 -78.552981 -103.52197 -78.552981 -105.95946 C -78.552981 -108.567 -77.787512 -110.91953 -76.256997 -113.01691 C -74.726483 -115.11428 -72.572461 -116.75799 -69.79486 -117.94839 C -66.960573 -119.13879 -63.672637 -119.73381 -59.931379 -119.73381 z M -144.27972 -118.88373 L -140.11356 -118.88373 C -137.95951 -118.82705 -133.25444 -118.79847 -125.99866 -118.79847 C -118.45946 -118.79847 -113.5564 -118.82705 -111.28897 -118.88373 L -107.20756 -118.88373 L -105.50689 -115.22762 C -106.58392 -113.52705 -108.62465 -109.84261 -111.629 -104.17404 C -114.63334 -98.505463 -117.46761 -92.496548 -120.13184 -86.147746 C -122.79607 -79.798944 -124.12798 -74.838719 -124.12798 -71.267517 C -124.12798 -68.433231 -123.13593 -66.307789 -121.15193 -64.890646 C -123.07925 -62.566531 -125.54507 -61.404554 -128.54941 -61.404554 C -131.32701 -61.404554 -133.48104 -62.169506 -135.01155 -63.700021 C -136.54207 -65.230536 -137.30753 -67.356494 -137.30753 -70.077409 C -137.30753 -73.478553 -136.48542 -77.077772 -134.84154 -80.875717 C -133.19765 -84.730347 -130.25009 -89.945728 -125.99866 -96.521273 L -115.96517 -111.9963 L -135.3521 -111.9963 C -136.1457 -109.44544 -136.62743 -106.44124 -136.79749 -102.98341 C -137.81783 -102.81335 -138.86652 -102.72813 -139.94355 -102.72813 C -141.07726 -102.72813 -142.1826 -102.81335 -143.25963 -102.98341 L -145.64036 -117.60836 L -144.27972 -118.88373 z M -91.987303 -101.28274 C -90.003303 -101.28274 -88.529525 -100.68772 -87.565868 -99.497319 C -86.545525 -98.363604 -86.035212 -96.776539 -86.035212 -94.735852 C -86.035212 -92.695166 -86.545525 -91.107584 -87.565868 -89.973869 C -88.529525 -88.840154 -90.003303 -88.273198 -91.987303 -88.273198 C -93.971304 -88.273198 -95.473662 -88.840154 -96.494005 -89.973869 C -97.457663 -91.16427 -97.939395 -92.751852 -97.939395 -94.735852 C -97.939395 -96.833225 -97.457663 -98.448354 -96.494005 -99.582068 C -95.473662 -100.71578 -93.971304 -101.28274 -91.987303 -101.28274 z M -14.951179 -89.293807 C -17.33198 -89.293807 -19.911607 -88.330343 -22.689208 -86.403028 L -22.689208 -85.297669 C -22.689208 -79.118924 -22.008963 -74.583787 -20.648505 -71.692814 C -19.288048 -68.801842 -17.134026 -67.356645 -14.186367 -67.356645 C -11.748881 -67.356645 -9.8780789 -68.291529 -8.5743069 -70.162159 C -7.270535 -72.032788 -6.618354 -74.697123 -6.618354 -78.154952 C -6.618354 -81.669468 -7.3552426 -84.390447 -8.8290718 -86.317762 C -10.246215 -88.301762 -12.286949 -89.293807 -14.951179 -89.293807 z M -91.987303 -74.498845 C -90.003303 -74.498845 -88.529525 -73.903824 -87.565868 -72.713424 C -86.545525 -71.579709 -86.035212 -69.992127 -86.035212 -67.951441 C -86.035212 -65.910754 -86.545525 -64.323689 -87.565868 -63.189974 C -88.529525 -62.05626 -90.003303 -61.489303 -91.987303 -61.489303 C -93.971304 -61.489303 -95.473662 -62.05626 -96.494005 -63.189974 C -97.457663 -64.380375 -97.939395 -65.96744 -97.939395 -67.951441 C -97.939395 -70.048813 -97.457663 -71.664459 -96.494005 -72.798173 C -95.473662 -73.931888 -93.971304 -74.498845 -91.987303 -74.498845 z " /></g></svg>
