<?xml version="1.0" encoding="UTF-8" standalone="no"?>
<!-- Created with Inkscape (http://www.inkscape.org/) -->

<svg
   width="172.6701mm"
   height="172.6701mm"
   viewBox="0 0 172.6701 172.6701"
   version="1.1"
   id="svg1"
   xml:space="preserve"
   xmlns="http://www.w3.org/2000/svg"
   xmlns:svg="http://www.w3.org/2000/svg"><defs
     id="defs1" /><g
     id="layer1"
     transform="translate(157.25102,198.81012)"><path
       id="path5"
       style="fill:#ffffff;fill-opacity:1;stroke-width:0.805188;stroke-linecap:round;stroke-linejoin:round"
       d="M -2.0863309 -198.17657 L -10.088943 -183.11289 L -10.930235 -165.68398 L -19.198981 -165.68398 L -11.423229 -155.47426 L -12.166336 -140.07934 C -28.353216 -157.12094 -50.823548 -166.77435 -74.327399 -166.78417 C -103.64471 -166.77397 -130.92652 -151.79225 -146.66717 -127.05894 L -157.25102 -127.05894 L -149.61996 -115.86014 L -157.25102 -26.140039 L -8.5138455 -26.140039 L 15.419061 -26.140039 L 8.0799737 -154.80195 L 15.419061 -165.68398 L 7.4593397 -165.68398 L 6.4490654 -183.39297 L -2.0863309 -198.17657 z M -83.43072 -192.21621 C -85.584619 -189.65499 -86.77489 -186.4211 -86.795372 -183.07465 C -86.842092 -175.15518 -80.459903 -168.69733 -72.540428 -168.65072 C -64.621155 -168.60402 -58.163395 -174.98588 -58.116503 -182.90515 C -58.102813 -186.26049 -59.266203 -189.5144 -61.404157 -192.10045 C -60.83125 -190.6836 -60.536835 -189.16959 -60.537027 -187.64129 C -60.575787 -181.07411 -65.930869 -175.78172 -72.498054 -175.82031 C -79.065241 -175.85911 -84.357627 -181.21415 -84.319038 -187.78134 C -84.309338 -189.30285 -84.007827 -190.80837 -83.43072 -192.21621 z M -58.060692 -119.73381 C -52.222061 -119.73381 -47.574153 -118.28861 -44.116324 -115.39764 C -40.658494 -112.56335 -38.92956 -108.56711 -38.92956 -103.40871 C -38.92956 -98.873849 -40.658494 -94.026912 -44.116324 -88.86851 C -47.574153 -83.766794 -53.27075 -77.616529 -61.206753 -70.41744 L -38.334248 -70.41744 L -38.334248 -62.084615 L -76.85231 -62.084615 L -76.85231 -67.016097 C -70.560193 -73.081471 -65.656612 -78.268272 -62.142097 -82.576388 C -58.627581 -86.884504 -56.105115 -90.852684 -54.5746 -94.480571 C -52.987399 -98.108458 -52.193867 -101.84955 -52.193867 -105.70418 C -52.193867 -111.82623 -54.234601 -114.88759 -58.315974 -114.88759 C -60.129917 -114.88759 -61.603694 -114.0369 -62.737409 -112.33633 C -63.871124 -110.69244 -64.438081 -108.65171 -64.438081 -106.21422 C -64.438081 -104.51365 -63.842543 -102.89852 -62.652143 -101.36801 C -63.615801 -100.46103 -64.72165 -99.752209 -65.968736 -99.242037 C -67.159137 -98.731866 -68.349178 -98.476709 -69.539578 -98.476709 C -71.580264 -98.476709 -73.281134 -99.10031 -74.641592 -100.3474 C -76.00205 -101.65117 -76.682294 -103.52197 -76.682294 -105.95946 C -76.682294 -108.567 -75.916825 -110.91953 -74.386311 -113.01691 C -72.855796 -115.11428 -70.701774 -116.75799 -67.924173 -117.94839 C -65.089886 -119.13879 -61.801951 -119.73381 -58.060692 -119.73381 z M -142.40903 -118.88373 L -138.24288 -118.88373 C -136.08882 -118.82705 -131.38375 -118.79847 -124.12798 -118.79847 C -116.58877 -118.79847 -111.68571 -118.82705 -109.41828 -118.88373 L -105.33688 -118.88373 L -103.6362 -115.22762 C -104.71323 -113.52705 -106.75397 -109.84261 -109.75831 -104.17404 C -112.76266 -98.505463 -115.59692 -92.496548 -118.26115 -86.147746 C -120.92538 -79.798944 -122.25729 -74.838719 -122.25729 -71.267517 C -122.25729 -68.433231 -121.26525 -66.307789 -119.28124 -64.890646 C -121.20856 -62.566531 -123.67438 -61.404554 -126.67873 -61.404554 C -129.45633 -61.404554 -131.61035 -62.169506 -133.14086 -63.700021 C -134.67138 -65.230536 -135.43685 -67.356494 -135.43685 -70.077409 C -135.43685 -73.478553 -134.61473 -77.077772 -132.97085 -80.875717 C -131.32696 -84.730347 -128.37941 -89.945728 -124.12798 -96.521273 L -114.09448 -111.9963 L -133.48141 -111.9963 C -134.27501 -109.44544 -134.75674 -106.44124 -134.9268 -102.98341 C -135.94714 -102.81335 -136.99583 -102.72813 -138.07286 -102.72813 C -139.20658 -102.72813 -140.31191 -102.81335 -141.38894 -102.98341 L -143.76967 -117.60836 L -142.40903 -118.88373 z M -33.487515 -118.88373 L -29.321361 -118.88373 C -27.167303 -118.82705 -22.462234 -118.79847 -15.20646 -118.79847 C -7.6672575 -118.79847 -2.7636765 -118.82705 -0.49624705 -118.88373 L 3.5846408 -118.88373 L 5.2853122 -115.22762 C 4.2082832 -113.52705 2.1675492 -109.84261 -0.83679474 -104.17404 C -3.8411387 -98.505463 -6.6754054 -92.496548 -9.3396349 -86.147746 C -12.003864 -79.798944 -13.335773 -74.838719 -13.335773 -71.267517 C -13.335773 -68.433231 -12.343728 -66.307789 -10.359728 -64.890646 C -12.287043 -62.566531 -14.752865 -61.404554 -17.757209 -61.404554 C -20.53481 -61.404554 -22.688832 -62.169506 -24.219347 -63.700021 C -25.749862 -65.230536 -26.515331 -67.356494 -26.515331 -70.077409 C -26.515331 -73.478553 -25.693218 -77.077772 -24.049331 -80.875717 C -22.405445 -84.730347 -19.45789 -89.945728 -15.20646 -96.521273 L -5.1729642 -111.9963 L -24.559378 -111.9963 C -25.352978 -109.44544 -25.835227 -106.44124 -26.005284 -102.98341 C -27.025628 -102.81335 -28.074317 -102.72813 -29.151346 -102.72813 C -30.28506 -102.72813 -31.390393 -102.81335 -32.467422 -102.98341 L -34.848155 -117.60836 L -33.487515 -118.88373 z M -90.116617 -101.28274 C -88.132616 -101.28274 -86.658838 -100.68772 -85.695181 -99.497319 C -84.674838 -98.363604 -84.164525 -96.776539 -84.164525 -94.735852 C -84.164525 -92.695166 -84.674838 -91.107584 -85.695181 -89.973869 C -86.658838 -88.840154 -88.132616 -88.273198 -90.116617 -88.273198 C -92.100617 -88.273198 -93.602975 -88.840154 -94.623318 -89.973869 C -95.586976 -91.16427 -96.068708 -92.751852 -96.068708 -94.735852 C -96.068708 -96.833225 -95.586976 -98.448354 -94.623318 -99.582068 C -93.602975 -100.71578 -92.100617 -101.28274 -90.116617 -101.28274 z M -90.116617 -74.498845 C -88.132616 -74.498845 -86.658838 -73.903824 -85.695181 -72.713424 C -84.674838 -71.579709 -84.164525 -69.992127 -84.164525 -67.951441 C -84.164525 -65.910754 -84.674838 -64.323689 -85.695181 -63.189974 C -86.658838 -62.05626 -88.132616 -61.489303 -90.116617 -61.489303 C -92.100617 -61.489303 -93.602975 -62.05626 -94.623318 -63.189974 C -95.586976 -64.380375 -96.068708 -65.96744 -96.068708 -67.951441 C -96.068708 -70.048813 -95.586976 -71.664459 -94.623318 -72.798173 C -93.602975 -73.931888 -92.100617 -74.498845 -90.116617 -74.498845 z " /></g></svg>
