<?xml version="1.0" encoding="UTF-8" standalone="no"?>
<!-- Created with Inkscape (http://www.inkscape.org/) -->

<svg
   width="172.6701mm"
   height="172.6701mm"
   viewBox="0 0 172.6701 172.6701"
   version="1.1"
   id="svg1"
   xml:space="preserve"
   xmlns="http://www.w3.org/2000/svg"
   xmlns:svg="http://www.w3.org/2000/svg"><defs
     id="defs1" /><g
     id="layer1"
     transform="translate(157.25102,198.81012)"><path
       id="path5"
       style="fill:#ffffff;fill-opacity:1;stroke-width:0.805188;stroke-linecap:round;stroke-linejoin:round"
       d="M -2.0863309 -198.17657 L -10.088943 -183.11289 L -10.930235 -165.68398 L -19.198981 -165.68398 L -11.423229 -155.47426 L -12.166336 -140.07934 C -28.353216 -157.12094 -50.823548 -166.77435 -74.327399 -166.78417 C -103.64471 -166.77397 -130.92652 -151.79225 -146.66717 -127.05894 L -157.25102 -127.05894 L -149.61996 -115.86014 L -157.25102 -26.140039 L -8.5138455 -26.140039 L 15.419061 -26.140039 L 8.0799737 -154.80195 L 15.419061 -165.68398 L 7.4593397 -165.68398 L 6.4490654 -183.39297 L -2.0863309 -198.17657 z M -83.43072 -192.21621 C -85.584619 -189.65499 -86.77489 -186.4211 -86.795372 -183.07465 C -86.842092 -175.15518 -80.459903 -168.69733 -72.540428 -168.65072 C -64.621155 -168.60402 -58.163395 -174.98588 -58.116503 -182.90515 C -58.102813 -186.26049 -59.266203 -189.5144 -61.404157 -192.10045 C -60.83125 -190.6836 -60.536835 -189.16959 -60.537027 -187.64129 C -60.575787 -181.07411 -65.930869 -175.78172 -72.498054 -175.82031 C -79.065241 -175.85911 -84.357627 -181.21415 -84.319038 -187.78134 C -84.309338 -189.30285 -84.007827 -190.80837 -83.43072 -192.21621 z M -15.121194 -119.81908 C -9.169192 -119.81908 -4.4360597 -118.54381 -0.92154409 -115.99295 C 2.5929715 -113.44209 4.3499688 -110.01229 4.3499688 -105.70418 C 4.3499688 -103.38006 3.4997921 -101.05611 1.7992201 -98.731991 C 0.09864802 -96.407876 -2.1405983 -94.50901 -4.9181994 -93.035181 C -1.4036838 -91.334609 1.3458753 -89.350519 3.329876 -87.08309 C 5.3705625 -84.81566 6.3906711 -81.896169 6.3906711 -78.324968 C 6.3906711 -73.166566 4.5203858 -69.057034 0.7791273 -65.996005 C -2.9621312 -62.991661 -8.0075806 -61.489303 -14.356383 -61.489303 C -21.328728 -61.489303 -26.713525 -62.878373 -30.511469 -65.655974 C -34.252728 -68.433575 -36.12353 -72.401238 -36.12353 -77.55964 C -36.12353 -80.223869 -35.273353 -82.86014 -33.572781 -85.467684 C -31.872209 -88.131914 -29.491094 -90.483931 -26.430065 -92.524618 C -28.980923 -93.941761 -30.965013 -95.642631 -32.382156 -97.626632 C -33.799299 -99.610633 -34.508124 -102.07646 -34.508124 -105.02411 C -34.508124 -109.55897 -32.75061 -113.15871 -29.236095 -115.82294 C -25.721579 -118.48717 -21.016511 -119.81908 -15.121194 -119.81908 z M -60.696707 -119.73381 C -54.858076 -119.73381 -50.209651 -118.28861 -46.751822 -115.39764 C -43.293992 -112.56335 -41.565575 -108.56711 -41.565575 -103.40871 C -41.565575 -98.873849 -43.293992 -94.026912 -46.751822 -88.86851 C -50.209651 -83.766794 -55.906765 -77.616529 -63.842768 -70.41744 L -40.970262 -70.41744 L -40.970262 -62.084615 L -79.488325 -62.084615 L -79.488325 -67.016097 C -73.196208 -73.081471 -68.292627 -78.268272 -64.778111 -82.576388 C -61.263596 -86.884504 -58.74113 -90.852684 -57.210615 -94.480571 C -55.623414 -98.108458 -54.829881 -101.84955 -54.829881 -105.70418 C -54.829881 -111.82623 -56.870615 -114.88759 -60.951988 -114.88759 C -62.765932 -114.88759 -64.239709 -114.0369 -65.373424 -112.33633 C -66.507139 -110.69244 -67.074095 -108.65171 -67.074095 -106.21422 C -67.074095 -104.51365 -66.478558 -102.89852 -65.288158 -101.36801 C -66.251815 -100.46103 -67.357148 -99.752209 -68.604235 -99.242037 C -69.794635 -98.731866 -70.985192 -98.476709 -72.175593 -98.476709 C -74.216279 -98.476709 -75.916633 -99.10031 -77.27709 -100.3474 C -78.637548 -101.65117 -79.317792 -103.52197 -79.317792 -105.95946 C -79.317792 -108.567 -78.55284 -110.91953 -77.022325 -113.01691 C -75.49181 -115.11428 -73.337788 -116.75799 -70.560187 -117.94839 C -67.725901 -119.13879 -64.437965 -119.73381 -60.696707 -119.73381 z M -145.04505 -118.88373 L -140.87889 -118.88373 C -138.72483 -118.82705 -134.01977 -118.79847 -126.76399 -118.79847 C -119.22479 -118.79847 -114.32172 -118.82705 -112.0543 -118.88373 L -107.97289 -118.88373 L -106.27222 -115.22762 C -107.34925 -113.52705 -109.38998 -109.84261 -112.39433 -104.17404 C -115.39867 -98.505463 -118.23294 -92.496548 -120.89717 -86.147746 C -123.5614 -79.798944 -124.89331 -74.838719 -124.89331 -71.267517 C -124.89331 -68.433231 -123.90126 -66.307789 -121.91726 -64.890646 C -123.84457 -62.566531 -126.3104 -61.404554 -129.31474 -61.404554 C -132.09234 -61.404554 -134.24636 -62.169506 -135.77688 -63.700021 C -137.30739 -65.230536 -138.07286 -67.356494 -138.07286 -70.077409 C -138.07286 -73.478553 -137.25075 -77.077772 -135.60686 -80.875717 C -133.96298 -84.730347 -131.01542 -89.945728 -126.76399 -96.521273 L -116.7305 -111.9963 L -136.11691 -111.9963 C -136.91051 -109.44544 -137.39276 -106.44124 -137.56282 -102.98341 C -138.58316 -102.81335 -139.63185 -102.72813 -140.70888 -102.72813 C -141.84259 -102.72813 -142.94792 -102.81335 -144.02495 -102.98341 L -146.40569 -117.60836 L -145.04505 -118.88373 z M -15.121194 -113.78224 C -17.388624 -113.78224 -19.174201 -113.04535 -20.477973 -111.57152 C -21.781745 -110.15437 -22.433926 -108.22693 -22.433926 -105.78944 C -22.433926 -103.63538 -21.611813 -101.84981 -19.967927 -100.43266 C -18.267355 -99.072205 -15.801532 -97.711715 -12.570445 -96.351258 C -11.153302 -97.314915 -10.019905 -98.646824 -9.1696194 -100.3474 C -8.3193334 -102.04797 -7.8942451 -103.86213 -7.8942451 -105.78944 C -7.8942451 -108.22693 -8.573973 -110.15437 -9.9344306 -111.57152 C -11.238203 -113.04535 -12.967136 -113.78224 -15.121194 -113.78224 z M -92.752631 -101.28274 C -90.768631 -101.28274 -89.294853 -100.68772 -88.331196 -99.497319 C -87.310853 -98.363604 -86.80054 -96.776539 -86.80054 -94.735852 C -86.80054 -92.695166 -87.310853 -91.107584 -88.331196 -89.973869 C -89.294853 -88.840154 -90.768631 -88.273198 -92.752631 -88.273198 C -94.736632 -88.273198 -96.23899 -88.840154 -97.259333 -89.973869 C -98.22299 -91.16427 -98.704723 -92.751852 -98.704723 -94.735852 C -98.704723 -96.833225 -98.22299 -98.448354 -97.259333 -99.582068 C -96.23899 -100.71578 -94.736632 -101.28274 -92.752631 -101.28274 z M -18.607803 -89.038526 C -20.308375 -87.678068 -21.55506 -86.119583 -22.34866 -84.362325 C -23.14226 -82.605068 -23.539285 -80.50769 -23.539285 -78.070203 C -23.539285 -74.725745 -22.717172 -72.089474 -21.073286 -70.162159 C -19.429399 -68.291529 -17.19067 -67.356645 -14.356383 -67.356645 C -11.578782 -67.356645 -9.4247599 -68.291529 -7.8942451 -70.162159 C -6.3070445 -72.032788 -5.5129951 -74.640479 -5.5129951 -77.984937 C -5.5129951 -79.855566 -6.1085322 -81.442631 -7.2989326 -82.746403 C -8.4326473 -84.106861 -9.8778442 -85.212194 -11.635102 -86.06248 C -13.39236 -86.969452 -15.716831 -87.961497 -18.607803 -89.038526 z M -92.752631 -74.498845 C -90.768631 -74.498845 -89.294853 -73.903824 -88.331196 -72.713424 C -87.310853 -71.579709 -86.80054 -69.992127 -86.80054 -67.951441 C -86.80054 -65.910754 -87.310853 -64.323689 -88.331196 -63.189974 C -89.294853 -62.05626 -90.768631 -61.489303 -92.752631 -61.489303 C -94.736632 -61.489303 -96.23899 -62.05626 -97.259333 -63.189974 C -98.22299 -64.380375 -98.704723 -65.96744 -98.704723 -67.951441 C -98.704723 -70.048813 -98.22299 -71.664459 -97.259333 -72.798173 C -96.23899 -73.931888 -94.736632 -74.498845 -92.752631 -74.498845 z " /></g></svg>
