<?xml version="1.0" encoding="UTF-8" standalone="no"?>
<!-- Created with Inkscape (http://www.inkscape.org/) -->

<svg
   width="172.6701mm"
   height="172.6701mm"
   viewBox="0 0 172.6701 172.6701"
   version="1.1"
   id="svg1"
   xml:space="preserve"
   xmlns="http://www.w3.org/2000/svg"
   xmlns:svg="http://www.w3.org/2000/svg"><defs
     id="defs1" /><g
     id="layer1"
     transform="translate(157.25102,198.81012)"><path
       id="path5"
       style="fill:#ffffff;fill-opacity:1;stroke-width:0.805188;stroke-linecap:round;stroke-linejoin:round"
       d="M -2.0863309 -198.17657 L -10.088943 -183.11289 L -10.930235 -165.68398 L -19.198981 -165.68398 L -11.423229 -155.47426 L -12.166336 -140.07934 C -28.353216 -157.12094 -50.823548 -166.77435 -74.327399 -166.78417 C -103.64471 -166.77397 -130.92652 -151.79225 -146.66717 -127.05894 L -157.25102 -127.05894 L -149.61996 -115.86014 L -157.25102 -26.140039 L -8.5138455 -26.140039 L 15.419061 -26.140039 L 8.0799737 -154.80195 L 15.419061 -165.68398 L 7.4593397 -165.68398 L 6.4490654 -183.39297 L -2.0863309 -198.17657 z M -83.43072 -192.21621 C -85.584619 -189.65499 -86.77489 -186.4211 -86.795372 -183.07465 C -86.842092 -175.15518 -80.459903 -168.69733 -72.540428 -168.65072 C -64.621155 -168.60402 -58.163395 -174.98588 -58.116503 -182.90515 C -58.102813 -186.26049 -59.266203 -189.5144 -61.404157 -192.10045 C -60.83125 -190.6836 -60.536835 -189.16959 -60.537027 -187.64129 C -60.575787 -181.07411 -65.930869 -175.78172 -72.498054 -175.82031 C -79.065241 -175.85911 -84.357627 -181.21415 -84.319038 -187.78134 C -84.309338 -189.30285 -84.007827 -190.80837 -83.43072 -192.21621 z M -56.912958 -119.73381 C -53.228386 -119.73381 -49.969031 -119.11073 -47.134744 -117.86364 C -44.300457 -116.67324 -42.089791 -114.97237 -40.502591 -112.76163 C -38.91539 -110.60757 -38.121857 -108.11368 -38.121857 -105.27939 C -38.121857 -102.10499 -39.056742 -99.384015 -40.927371 -97.116586 C -42.798 -94.849156 -45.575623 -93.120223 -49.260196 -91.929822 C -44.611965 -90.909479 -41.35261 -89.237189 -39.481981 -86.913074 C -37.611352 -84.588959 -36.675951 -81.442892 -36.675951 -77.474891 C -36.675951 -74.017061 -37.72464 -71.069506 -39.822012 -68.632019 C -41.862698 -66.194533 -44.527033 -64.380375 -47.814806 -63.189974 C -51.102578 -61.999574 -54.503802 -61.404554 -58.018317 -61.404554 C -63.120034 -61.404554 -67.456658 -62.453243 -71.027859 -64.550615 C -74.542375 -66.647987 -76.299372 -69.510317 -76.299372 -73.138204 C -76.299372 -75.235577 -75.675771 -76.851222 -74.428685 -77.984937 C -73.181599 -79.175337 -71.623114 -79.770358 -69.752485 -79.770358 C -67.82517 -79.770358 -65.869143 -79.005405 -63.885143 -77.474891 C -64.395314 -76.397862 -64.650471 -75.094016 -64.650471 -73.563501 C -64.650471 -71.749558 -64.112094 -70.275781 -63.035065 -69.142066 C -61.901351 -68.008351 -60.229061 -67.441394 -58.018317 -67.441394 C -53.143344 -67.441394 -50.706102 -70.814037 -50.706102 -77.55964 C -50.706102 -81.244213 -51.896143 -84.10706 -54.276944 -86.147746 C -56.601059 -88.188433 -59.917575 -89.208541 -64.22569 -89.208541 L -64.22569 -94.480571 C -55.892887 -95.1608 -51.726195 -98.760535 -51.726195 -105.27939 C -51.726195 -108.56717 -52.236508 -110.97583 -53.256851 -112.50634 C -54.277194 -114.09354 -55.665747 -114.88759 -57.423005 -114.88759 C -59.520377 -114.88759 -61.107959 -114.15071 -62.184988 -112.67688 C -63.205331 -111.20305 -63.715127 -109.41747 -63.715127 -107.3201 C -63.715127 -105.44947 -63.318619 -103.77718 -62.525019 -102.30335 C -64.11222 -100.60278 -66.152954 -99.752084 -68.647126 -99.752084 C -70.914555 -99.752084 -72.671553 -100.43233 -73.918639 -101.79279 C -75.165725 -103.15324 -75.789326 -104.91076 -75.789326 -107.06482 C -75.789326 -109.8991 -74.825861 -112.25164 -72.898546 -114.12227 C -70.914545 -116.04958 -68.476787 -117.46671 -65.585814 -118.37369 C -62.638156 -119.28066 -59.747245 -119.73381 -56.912958 -119.73381 z M -10.827399 -119.13901 L -8.0213691 -117.86364 L -8.0213691 -68.716769 C -6.9443402 -68.093226 -5.2439869 -67.526269 -2.9198717 -67.016097 C -0.59575659 -66.562611 1.2464651 -66.279392 2.6069227 -66.16602 L 2.3521579 -62.084615 L -32.339781 -62.084615 L -32.169766 -66.16602 C -27.124736 -66.732877 -23.269843 -67.583054 -20.605614 -68.716769 L -20.605614 -109.44555 L -31.99975 -109.44555 L -31.99975 -114.37703 C -28.371863 -114.66046 -24.630259 -115.19935 -20.775629 -115.99295 C -16.920999 -116.84324 -13.605 -117.89193 -10.827399 -119.13901 z M -140.92127 -118.88373 L -136.7546 -118.88373 C -134.60054 -118.82705 -129.89599 -118.79847 -122.64021 -118.79847 C -115.10101 -118.79847 -110.19743 -118.82705 -107.93 -118.88373 L -103.84859 -118.88373 L -102.14844 -115.22762 C -103.22547 -113.52705 -105.26569 -109.84261 -108.27003 -104.17404 C -111.27437 -98.505463 -114.10864 -92.496548 -116.77287 -86.147746 C -119.4371 -79.798944 -120.76953 -74.838719 -120.76953 -71.267517 C -120.76953 -68.433231 -119.77748 -66.307789 -117.79348 -64.890646 C -119.7208 -62.566531 -122.18662 -61.404554 -125.19096 -61.404554 C -127.96856 -61.404554 -130.12258 -62.169506 -131.6531 -63.700021 C -133.18361 -65.230536 -133.94908 -67.356494 -133.94908 -70.077409 C -133.94908 -73.478553 -133.12697 -77.077772 -131.48308 -80.875717 C -129.8392 -84.730347 -126.89164 -89.945728 -122.64021 -96.521273 L -112.60672 -111.9963 L -131.99313 -111.9963 C -132.78673 -109.44544 -133.26846 -106.44124 -133.43852 -102.98341 C -134.45886 -102.81335 -135.50755 -102.72813 -136.58458 -102.72813 C -137.7183 -102.72813 -138.82363 -102.81335 -139.90066 -102.98341 L -142.28191 -117.60836 L -140.92127 -118.88373 z M -88.628852 -101.28274 C -86.644851 -101.28274 -85.171074 -100.68772 -84.207416 -99.497319 C -83.187073 -98.363604 -82.676761 -96.776539 -82.676761 -94.735852 C -82.676761 -92.695166 -83.187073 -91.107584 -84.207416 -89.973869 C -85.171074 -88.840154 -86.644851 -88.273198 -88.628852 -88.273198 C -90.612853 -88.273198 -92.114694 -88.840154 -93.135037 -89.973869 C -94.098694 -91.16427 -94.580944 -92.751852 -94.580944 -94.735852 C -94.580944 -96.833225 -94.098694 -98.448354 -93.135037 -99.582068 C -92.114694 -100.71578 -90.612853 -101.28274 -88.628852 -101.28274 z M -88.628852 -74.498845 C -86.644851 -74.498845 -85.171074 -73.903824 -84.207416 -72.713424 C -83.187073 -71.579709 -82.676761 -69.992127 -82.676761 -67.951441 C -82.676761 -65.910754 -83.187073 -64.323689 -84.207416 -63.189974 C -85.171074 -62.05626 -86.644851 -61.489303 -88.628852 -61.489303 C -90.612853 -61.489303 -92.114694 -62.05626 -93.135037 -63.189974 C -94.098694 -64.380375 -94.580944 -65.96744 -94.580944 -67.951441 C -94.580944 -70.048813 -94.098694 -71.664459 -93.135037 -72.798173 C -92.114694 -73.931888 -90.612853 -74.498845 -88.628852 -74.498845 z " /></g></svg>
