<?xml version="1.0" encoding="UTF-8" standalone="no"?>
<!-- Created with Inkscape (http://www.inkscape.org/) -->

<svg
   width="172.6701mm"
   height="172.6701mm"
   viewBox="0 0 172.6701 172.6701"
   version="1.1"
   id="svg1"
   xml:space="preserve"
   xmlns="http://www.w3.org/2000/svg"
   xmlns:svg="http://www.w3.org/2000/svg"><defs
     id="defs1" /><g
     id="layer1"
     transform="translate(157.25102,198.81012)"><path
       id="path5"
       style="fill:#ffffff;fill-opacity:1;stroke-width:0.805188;stroke-linecap:round;stroke-linejoin:round"
       d="M -2.0863309 -198.17657 L -10.088943 -183.11289 L -10.930235 -165.68398 L -19.198981 -165.68398 L -11.423229 -155.47426 L -12.166336 -140.07934 C -28.353216 -157.12094 -50.823548 -166.77435 -74.327399 -166.78417 C -103.64471 -166.77397 -130.92652 -151.79225 -146.66717 -127.05894 L -157.25102 -127.05894 L -149.61996 -115.86014 L -157.25102 -26.140039 L -8.5138455 -26.140039 L 15.419061 -26.140039 L 8.0799737 -154.80195 L 15.419061 -165.68398 L 7.4593397 -165.68398 L 6.4490654 -183.39297 L -2.0863309 -198.17657 z M -83.43072 -192.21621 C -85.584619 -189.65499 -86.77489 -186.4211 -86.795372 -183.07465 C -86.842092 -175.15518 -80.459903 -168.69733 -72.540428 -168.65072 C -64.621155 -168.60402 -58.163395 -174.98588 -58.116503 -182.90515 C -58.102813 -186.26049 -59.266203 -189.5144 -61.404157 -192.10045 C -60.83125 -190.6836 -60.536835 -189.16959 -60.537027 -187.64129 C -60.575787 -181.07411 -65.930869 -175.78172 -72.498054 -175.82031 C -79.065241 -175.85911 -84.357627 -181.21415 -84.319038 -187.78134 C -84.309338 -189.30285 -84.007827 -190.80837 -83.43072 -192.21621 z M -58.996035 -119.73381 C -55.311463 -119.73381 -52.052108 -119.11073 -49.217821 -117.86364 C -46.383534 -116.67324 -44.172868 -114.97237 -42.585668 -112.76163 C -40.998467 -110.60757 -40.204934 -108.11368 -40.204934 -105.27939 C -40.204934 -102.10499 -41.140335 -99.384015 -43.010965 -97.116586 C -44.881594 -94.849156 -47.659217 -93.120223 -51.343789 -91.929822 C -46.695559 -90.909479 -43.435687 -89.237189 -41.565058 -86.913074 C -39.694429 -84.588959 -38.759545 -81.442892 -38.759545 -77.474891 C -38.759545 -74.017061 -39.808234 -71.069506 -41.905606 -68.632019 C -43.946292 -66.194533 -46.61011 -64.380375 -49.897883 -63.189974 C -53.185655 -61.999574 -56.586879 -61.404554 -60.101394 -61.404554 C -65.203111 -61.404554 -69.539735 -62.453243 -73.110936 -64.550615 C -76.625452 -66.647987 -78.382449 -69.510317 -78.382449 -73.138204 C -78.382449 -75.235577 -77.759365 -76.851222 -76.512279 -77.984937 C -75.265193 -79.175337 -73.706191 -79.770358 -71.835562 -79.770358 C -69.908247 -79.770358 -67.952737 -79.005405 -65.968736 -77.474891 C -66.478908 -76.397862 -66.733548 -75.094016 -66.733548 -73.563501 C -66.733548 -71.749558 -66.195171 -70.275781 -65.118142 -69.142066 C -63.984428 -68.008351 -62.312138 -67.441394 -60.101394 -67.441394 C -55.226421 -67.441394 -52.789179 -70.814037 -52.789179 -77.55964 C -52.789179 -81.244213 -53.979737 -84.10706 -56.360537 -86.147746 C -58.684653 -88.188433 -62.000652 -89.208541 -66.308767 -89.208541 L -66.308767 -94.480571 C -57.975964 -95.1608 -53.809272 -98.760535 -53.809272 -105.27939 C -53.809272 -108.56717 -54.319585 -110.97583 -55.339928 -112.50634 C -56.360271 -114.09354 -57.748824 -114.88759 -59.506082 -114.88759 C -61.603454 -114.88759 -63.191036 -114.15071 -64.268065 -112.67688 C -65.288408 -111.20305 -65.798204 -109.41747 -65.798204 -107.3201 C -65.798204 -105.44947 -65.401696 -103.77718 -64.608096 -102.30335 C -66.195297 -100.60278 -68.236031 -99.752084 -70.730203 -99.752084 C -72.997632 -99.752084 -74.75463 -100.43233 -76.001716 -101.79279 C -77.248802 -103.15324 -77.872403 -104.91076 -77.872403 -107.06482 C -77.872403 -109.8991 -76.908938 -112.25164 -74.981623 -114.12227 C -72.997622 -116.04958 -70.559864 -117.46671 -67.668891 -118.37369 C -64.721233 -119.28066 -61.830322 -119.73381 -58.996035 -119.73381 z M -15.461742 -119.73381 C -9.6231111 -119.73381 -4.9746864 -118.28861 -1.5168566 -115.39764 C 1.9409733 -112.56335 3.6699069 -108.56711 3.6699069 -103.40871 C 3.6699069 -98.873849 1.9409733 -94.026912 -1.5168566 -88.86851 C -4.9746864 -83.766794 -10.6718 -77.616529 -18.607803 -70.41744 L 4.2652194 -70.41744 L 4.2652194 -62.084615 L -34.252843 -62.084615 L -34.252843 -67.016097 C -27.960726 -73.081471 -23.057662 -78.268272 -19.543146 -82.576388 C -16.028631 -86.884504 -13.505648 -90.852684 -11.975133 -94.480571 C -10.387932 -98.108458 -9.5943997 -101.84955 -9.5943997 -105.70418 C -9.5943997 -111.82623 -11.635134 -114.88759 -15.716507 -114.88759 C -17.53045 -114.88759 -19.004227 -114.0369 -20.137942 -112.33633 C -21.271657 -110.69244 -21.838614 -108.65171 -21.838614 -106.21422 C -21.838614 -104.51365 -21.243593 -102.89852 -20.053193 -101.36801 C -21.01685 -100.46103 -22.122183 -99.752209 -23.36927 -99.242037 C -24.55967 -98.731866 -25.750227 -98.476709 -26.940628 -98.476709 C -28.981314 -98.476709 -30.681668 -99.10031 -32.042125 -100.3474 C -33.402583 -101.65117 -34.082827 -103.52197 -34.082827 -105.95946 C -34.082827 -108.567 -33.317358 -110.91953 -31.786844 -113.01691 C -30.256329 -115.11428 -28.102307 -116.75799 -25.324706 -117.94839 C -22.490419 -119.13879 -19.203 -119.73381 -15.461742 -119.73381 z M -143.00434 -118.88373 L -138.83819 -118.88373 C -136.68413 -118.82705 -131.97906 -118.79847 -124.72329 -118.79847 C -117.18409 -118.79847 -112.28102 -118.82705 -110.01359 -118.88373 L -105.93219 -118.88373 L -104.23152 -115.22762 C -105.30855 -113.52705 -107.34928 -109.84261 -110.35362 -104.17404 C -113.35797 -98.505463 -116.19223 -92.496548 -118.85646 -86.147746 C -121.52069 -79.798944 -122.8526 -74.838719 -122.8526 -71.267517 C -122.8526 -68.433231 -121.86056 -66.307789 -119.87656 -64.890646 C -121.80387 -62.566531 -124.26969 -61.404554 -127.27404 -61.404554 C -130.05164 -61.404554 -132.20566 -62.169506 -133.73618 -63.700021 C -135.26669 -65.230536 -136.03216 -67.356494 -136.03216 -70.077409 C -136.03216 -73.478553 -135.21005 -77.077772 -133.56616 -80.875717 C -131.92227 -84.730347 -128.97472 -89.945728 -124.72329 -96.521273 L -114.68979 -111.9963 L -134.07621 -111.9963 C -134.86981 -109.44544 -135.35206 -106.44124 -135.52211 -102.98341 C -136.54246 -102.81335 -137.59115 -102.72813 -138.66817 -102.72813 C -139.80189 -102.72813 -140.90722 -102.81335 -141.98425 -102.98341 L -144.36498 -117.60836 L -143.00434 -118.88373 z M -90.711929 -101.28274 C -88.727928 -101.28274 -87.254151 -100.68772 -86.290493 -99.497319 C -85.27015 -98.363604 -84.759838 -96.776539 -84.759838 -94.735852 C -84.759838 -92.695166 -85.27015 -91.107584 -86.290493 -89.973869 C -87.254151 -88.840154 -88.727928 -88.273198 -90.711929 -88.273198 C -92.69593 -88.273198 -94.198287 -88.840154 -95.218631 -89.973869 C -96.182288 -91.16427 -96.66402 -92.751852 -96.66402 -94.735852 C -96.66402 -96.833225 -96.182288 -98.448354 -95.218631 -99.582068 C -94.198287 -100.71578 -92.69593 -101.28274 -90.711929 -101.28274 z M -90.711929 -74.498845 C -88.727928 -74.498845 -87.254151 -73.903824 -86.290493 -72.713424 C -85.27015 -71.579709 -84.759838 -69.992127 -84.759838 -67.951441 C -84.759838 -65.910754 -85.27015 -64.323689 -86.290493 -63.189974 C -87.254151 -62.05626 -88.727928 -61.489303 -90.711929 -61.489303 C -92.69593 -61.489303 -94.198287 -62.05626 -95.218631 -63.189974 C -96.182288 -64.380375 -96.66402 -65.96744 -96.66402 -67.951441 C -96.66402 -70.048813 -96.182288 -71.664459 -95.218631 -72.798173 C -94.198287 -73.931888 -92.69593 -74.498845 -90.711929 -74.498845 z " /></g></svg>
