<?xml version="1.0" encoding="UTF-8" standalone="no"?>
<!-- Created with Inkscape (http://www.inkscape.org/) -->

<svg
   width="172.6701mm"
   height="172.6701mm"
   viewBox="0 0 172.6701 172.6701"
   version="1.1"
   id="svg1"
   xml:space="preserve"
   xmlns="http://www.w3.org/2000/svg"
   xmlns:svg="http://www.w3.org/2000/svg"><defs
     id="defs1" /><g
     id="layer1"
     transform="translate(157.25102,198.81012)"><path
       id="path5"
       style="fill:#ffffff;fill-opacity:1;stroke-width:0.805188;stroke-linecap:round;stroke-linejoin:round"
       d="M -2.0863309 -198.17657 L -10.088943 -183.11289 L -10.930235 -165.68398 L -19.198981 -165.68398 L -11.423229 -155.47426 L -12.166336 -140.07934 C -28.353216 -157.12094 -50.823548 -166.77435 -74.327399 -166.78417 C -103.64471 -166.77397 -130.92652 -151.79225 -146.66717 -127.05894 L -157.25102 -127.05894 L -149.61996 -115.86014 L -157.25102 -26.140039 L -8.5138455 -26.140039 L 15.419061 -26.140039 L 8.0799737 -154.80195 L 15.419061 -165.68398 L 7.4593397 -165.68398 L 6.4490654 -183.39297 L -2.0863309 -198.17657 z M -83.43072 -192.21621 C -85.584619 -189.65499 -86.77489 -186.4211 -86.795372 -183.07465 C -86.842092 -175.15518 -80.459903 -168.69733 -72.540428 -168.65072 C -64.621155 -168.60402 -58.163395 -174.98588 -58.116503 -182.90515 C -58.102813 -186.26049 -59.266203 -189.5144 -61.404157 -192.10045 C -60.83125 -190.6836 -60.536835 -189.16959 -60.537027 -187.64129 C -60.575787 -181.07411 -65.930869 -175.78172 -72.498054 -175.82031 C -79.065241 -175.85911 -84.357627 -181.21415 -84.319038 -187.78134 C -84.309338 -189.30285 -84.007827 -190.80837 -83.43072 -192.21621 z M -59.03841 -119.73381 C -55.353837 -119.73381 -52.094482 -119.11073 -49.260196 -117.86364 C -46.425909 -116.67324 -44.215243 -114.97237 -42.628042 -112.76163 C -41.040842 -110.60757 -40.247309 -108.11368 -40.247309 -105.27939 C -40.247309 -102.10499 -41.18271 -99.384015 -43.053339 -97.116586 C -44.923969 -94.849156 -47.701591 -93.120223 -51.386164 -91.929822 C -46.737934 -90.909479 -43.478579 -89.237189 -41.60795 -86.913074 C -39.73732 -84.588959 -38.801919 -81.442892 -38.801919 -77.474891 C -38.801919 -74.017061 -39.850608 -71.069506 -41.94798 -68.632019 C -43.988667 -66.194533 -46.653002 -64.380375 -49.940774 -63.189974 C -53.228547 -61.999574 -56.62977 -61.404554 -60.144286 -61.404554 C -65.246002 -61.404554 -69.58211 -62.453243 -73.153311 -64.550615 C -76.667826 -66.647987 -78.42534 -69.510317 -78.42534 -73.138204 C -78.42534 -75.235577 -77.80174 -76.851222 -76.554654 -77.984937 C -75.307567 -79.175337 -73.748566 -79.770358 -71.877937 -79.770358 C -69.950622 -79.770358 -67.995112 -79.005405 -66.011111 -77.474891 C -66.521283 -76.397862 -66.776439 -75.094016 -66.776439 -73.563501 C -66.776439 -71.749558 -66.237546 -70.275781 -65.160517 -69.142066 C -64.026802 -68.008351 -62.355029 -67.441394 -60.144286 -67.441394 C -55.269313 -67.441394 -52.831554 -70.814037 -52.831554 -77.55964 C -52.831554 -81.244213 -54.022111 -84.10706 -56.402912 -86.147746 C -58.727027 -88.188433 -62.043026 -89.208541 -66.351142 -89.208541 L -66.351142 -94.480571 C -58.018339 -95.1608 -53.852163 -98.760535 -53.852163 -105.27939 C -53.852163 -108.56717 -54.361959 -110.97583 -55.382303 -112.50634 C -56.402646 -114.09354 -57.791716 -114.88759 -59.548973 -114.88759 C -61.646345 -114.88759 -63.233411 -114.15071 -64.31044 -112.67688 C -65.330783 -111.20305 -65.841096 -109.41747 -65.841096 -107.3201 C -65.841096 -105.44947 -65.444071 -103.77718 -64.650471 -102.30335 C -66.237671 -100.60278 -68.278405 -99.752084 -70.772578 -99.752084 C -73.040007 -99.752084 -74.797521 -100.43233 -76.044607 -101.79279 C -77.291693 -103.15324 -77.914777 -104.91076 -77.914777 -107.06482 C -77.914777 -109.8991 -76.951313 -112.25164 -75.023998 -114.12227 C -73.039997 -116.04958 -70.602755 -117.46671 -67.711783 -118.37369 C -64.764124 -119.28066 -61.872697 -119.73381 -59.03841 -119.73381 z M -15.844147 -119.73381 C -12.159575 -119.73381 -8.9002197 -119.11073 -6.0659329 -117.86364 C -3.2316462 -116.67324 -1.0209802 -114.97237 0.5662204 -112.76163 C 2.153421 -110.60757 2.9469536 -108.11368 2.9469536 -105.27939 C 2.9469536 -102.10499 2.0120694 -99.384015 0.14144012 -97.116586 C -1.7291891 -94.849156 -4.5068118 -93.120223 -8.1913846 -91.929822 C -3.5431543 -90.909479 -0.28379932 -89.237189 1.5868299 -86.913074 C 3.4574592 -84.588959 4.3928602 -81.442892 4.3928602 -77.474891 C 4.3928602 -74.017061 3.3441712 -71.069506 1.246799 -68.632019 C -0.79388745 -66.194533 -3.4582221 -64.380375 -6.7459948 -63.189974 C -10.033767 -61.999574 -13.434991 -61.404554 -16.949506 -61.404554 C -22.051222 -61.404554 -26.387847 -62.453243 -29.959048 -64.550615 C -33.473564 -66.647987 -35.230561 -69.510317 -35.230561 -73.138204 C -35.230561 -75.235577 -34.60696 -76.851222 -33.359874 -77.984937 C -32.112788 -79.175337 -30.554303 -79.770358 -28.683674 -79.770358 C -26.756359 -79.770358 -24.800332 -79.005405 -22.816332 -77.474891 C -23.326503 -76.397862 -23.58166 -75.094016 -23.58166 -73.563501 C -23.58166 -71.749558 -23.043283 -70.275781 -21.966254 -69.142066 C -20.83254 -68.008351 -19.16025 -67.441394 -16.949506 -67.441394 C -12.074533 -67.441394 -9.6372912 -70.814037 -9.6372912 -77.55964 C -9.6372912 -81.244213 -10.827332 -84.10706 -13.208133 -86.147746 C -15.532248 -88.188433 -18.848764 -89.208541 -23.156879 -89.208541 L -23.156879 -94.480571 C -14.824076 -95.1608 -10.657384 -98.760535 -10.657384 -105.27939 C -10.657384 -108.56717 -11.167697 -110.97583 -12.18804 -112.50634 C -13.208383 -114.09354 -14.596936 -114.88759 -16.354194 -114.88759 C -18.451566 -114.88759 -20.039148 -114.15071 -21.116177 -112.67688 C -22.13652 -111.20305 -22.646316 -109.41747 -22.646316 -107.3201 C -22.646316 -105.44947 -22.249808 -103.77718 -21.456208 -102.30335 C -23.043409 -100.60278 -25.084143 -99.752084 -27.578315 -99.752084 C -29.845744 -99.752084 -31.602742 -100.43233 -32.849828 -101.79279 C -34.096914 -103.15324 -34.720515 -104.91076 -34.720515 -107.06482 C -34.720515 -109.8991 -33.75705 -112.25164 -31.829735 -114.12227 C -29.845734 -116.04958 -27.407976 -117.46671 -24.517003 -118.37369 C -21.569345 -119.28066 -18.678434 -119.73381 -15.844147 -119.73381 z M -143.04672 -118.88373 L -138.88057 -118.88373 C -136.72651 -118.82705 -132.02144 -118.79847 -124.76566 -118.79847 C -117.22646 -118.79847 -112.3234 -118.82705 -110.05597 -118.88373 L -105.97456 -118.88373 L -104.27389 -115.22762 C -105.35092 -113.52705 -107.39165 -109.84261 -110.396 -104.17404 C -113.40034 -98.505463 -116.23461 -92.496548 -118.89884 -86.147746 C -121.56307 -79.798944 -122.89498 -74.838719 -122.89498 -71.267517 C -122.89498 -68.433231 -121.90293 -66.307789 -119.91893 -64.890646 C -121.84625 -62.566531 -124.31207 -61.404554 -127.31641 -61.404554 C -130.09401 -61.404554 -132.24855 -62.169506 -133.77907 -63.700021 C -135.30958 -65.230536 -136.07453 -67.356494 -136.07453 -70.077409 C -136.07453 -73.478553 -135.25242 -77.077772 -133.60854 -80.875717 C -131.96465 -84.730347 -129.01709 -89.945728 -124.76566 -96.521273 L -114.73217 -111.9963 L -134.1191 -111.9963 C -134.9127 -109.44544 -135.39443 -106.44124 -135.56449 -102.98341 C -136.58483 -102.81335 -137.63352 -102.72813 -138.71055 -102.72813 C -139.84426 -102.72813 -140.9496 -102.81335 -142.02663 -102.98341 L -144.40736 -117.60836 L -143.04672 -118.88373 z M -90.754304 -101.28274 C -88.770303 -101.28274 -87.296526 -100.68772 -86.332868 -99.497319 C -85.312525 -98.363604 -84.802212 -96.776539 -84.802212 -94.735852 C -84.802212 -92.695166 -85.312525 -91.107584 -86.332868 -89.973869 C -87.296526 -88.840154 -88.770303 -88.273198 -90.754304 -88.273198 C -92.738304 -88.273198 -94.240662 -88.840154 -95.261005 -89.973869 C -96.224663 -91.16427 -96.706395 -92.751852 -96.706395 -94.735852 C -96.706395 -96.833225 -96.224663 -98.448354 -95.261005 -99.582068 C -94.240662 -100.71578 -92.738304 -101.28274 -90.754304 -101.28274 z M -90.754304 -74.498845 C -88.770303 -74.498845 -87.296526 -73.903824 -86.332868 -72.713424 C -85.312525 -71.579709 -84.802212 -69.992127 -84.802212 -67.951441 C -84.802212 -65.910754 -85.312525 -64.323689 -86.332868 -63.189974 C -87.296526 -62.05626 -88.770303 -61.489303 -90.754304 -61.489303 C -92.738304 -61.489303 -94.240662 -62.05626 -95.261005 -63.189974 C -96.224663 -64.380375 -96.706395 -65.96744 -96.706395 -67.951441 C -96.706395 -70.048813 -96.224663 -71.664459 -95.261005 -72.798173 C -94.240662 -73.931888 -92.738304 -74.498845 -90.754304 -74.498845 z " /></g></svg>
