<?xml version="1.0" encoding="UTF-8" standalone="no"?>
<!-- Created with Inkscape (http://www.inkscape.org/) -->

<svg
   width="172.6701mm"
   height="172.6701mm"
   viewBox="0 0 172.6701 172.6701"
   version="1.1"
   id="svg1"
   xml:space="preserve"
   xmlns="http://www.w3.org/2000/svg"
   xmlns:svg="http://www.w3.org/2000/svg"><defs
     id="defs1" /><g
     id="layer1"
     transform="translate(157.25102,198.81012)"><path
       id="path5"
       style="fill:#ffffff;fill-opacity:1;stroke-width:0.805188;stroke-linecap:round;stroke-linejoin:round"
       d="M -2.0863309 -198.17657 L -10.088943 -183.11289 L -10.930235 -165.68398 L -19.198981 -165.68398 L -11.423229 -155.47426 L -12.166336 -140.07934 C -28.353216 -157.12094 -50.823548 -166.77435 -74.327399 -166.78417 C -103.64471 -166.77397 -130.92652 -151.79225 -146.66717 -127.05894 L -157.25102 -127.05894 L -149.61996 -115.86014 L -157.25102 -26.140039 L -8.5138455 -26.140039 L 15.419061 -26.140039 L 8.0799737 -154.80195 L 15.419061 -165.68398 L 7.4593397 -165.68398 L 6.4490654 -183.39297 L -2.0863309 -198.17657 z M -83.43072 -192.21621 C -85.584619 -189.65499 -86.77489 -186.4211 -86.795372 -183.07465 C -86.842092 -175.15518 -80.459903 -168.69733 -72.540428 -168.65072 C -64.621155 -168.60402 -58.163395 -174.98588 -58.116503 -182.90515 C -58.102813 -186.26049 -59.266203 -189.5144 -61.404157 -192.10045 C -60.83125 -190.6836 -60.536835 -189.16959 -60.537027 -187.64129 C -60.575787 -181.07411 -65.930869 -175.78172 -72.498054 -175.82031 C -79.065241 -175.85911 -84.357627 -181.21415 -84.319038 -187.78134 C -84.309338 -189.30285 -84.007827 -190.80837 -83.43072 -192.21621 z M -59.548973 -119.73381 C -55.864401 -119.73381 -52.605046 -119.11073 -49.770759 -117.86364 C -46.936472 -116.67324 -44.725806 -114.97237 -43.138605 -112.76163 C -41.551405 -110.60757 -40.757355 -108.11368 -40.757355 -105.27939 C -40.757355 -102.10499 -41.692756 -99.384015 -43.563386 -97.116586 C -45.434015 -94.849156 -48.211638 -93.120223 -51.89621 -91.929822 C -47.24798 -90.909479 -43.988625 -89.237189 -42.117996 -86.913074 C -40.247367 -84.588959 -39.311966 -81.442892 -39.311966 -77.474891 C -39.311966 -74.017061 -40.360655 -71.069506 -42.458027 -68.632019 C -44.498713 -66.194533 -47.163048 -64.380375 -50.450821 -63.189974 C -53.738593 -61.999574 -57.139817 -61.404554 -60.654332 -61.404554 C -65.756048 -61.404554 -70.092673 -62.453243 -73.663874 -64.550615 C -77.17839 -66.647987 -78.935387 -69.510317 -78.935387 -73.138204 C -78.935387 -75.235577 -78.311786 -76.851222 -77.0647 -77.984937 C -75.817614 -79.175337 -74.258612 -79.770358 -72.387983 -79.770358 C -70.460668 -79.770358 -68.505158 -79.005405 -66.521158 -77.474891 C -67.031329 -76.397862 -67.286485 -75.094016 -67.286485 -73.563501 C -67.286485 -71.749558 -66.748109 -70.275781 -65.67108 -69.142066 C -64.537366 -68.008351 -62.865076 -67.441394 -60.654332 -67.441394 C -55.779359 -67.441394 -53.3416 -70.814037 -53.3416 -77.55964 C -53.3416 -81.244213 -54.532158 -84.10706 -56.912958 -86.147746 C -59.237074 -88.188433 -62.553073 -89.208541 -66.861188 -89.208541 L -66.861188 -94.480571 C -58.528385 -95.1608 -54.36221 -98.760535 -54.36221 -105.27939 C -54.36221 -108.56717 -54.872522 -110.97583 -55.892866 -112.50634 C -56.913209 -114.09354 -58.301762 -114.88759 -60.05902 -114.88759 C -62.156392 -114.88759 -63.743457 -114.15071 -64.820486 -112.67688 C -65.840829 -111.20305 -66.351142 -109.41747 -66.351142 -107.3201 C -66.351142 -105.44947 -65.954117 -103.77718 -65.160517 -102.30335 C -66.747718 -100.60278 -68.788452 -99.752084 -71.282624 -99.752084 C -73.550053 -99.752084 -75.307567 -100.43233 -76.554654 -101.79279 C -77.80174 -103.15324 -78.42534 -104.91076 -78.42534 -107.06482 C -78.42534 -109.8991 -77.461359 -112.25164 -75.534044 -114.12227 C -73.550043 -116.04958 -71.112801 -117.46671 -68.221829 -118.37369 C -65.274171 -119.28066 -62.38326 -119.73381 -59.548973 -119.73381 z M -27.74833 -119.05375 L -23.49691 -118.969 C -17.488222 -118.85563 -14.313575 -118.79847 -13.973461 -118.79847 L -1.899779 -118.969 L 0.5662204 -117.18306 L -0.19910757 -110.72092 L -21.286193 -110.72092 L -22.476301 -96.521273 C -19.528643 -97.258188 -16.864308 -97.626632 -14.483507 -97.626632 C -8.8716192 -97.626632 -4.3084189 -96.124274 -0.7939033 -93.11993 C 2.777298 -90.172272 4.5628757 -85.836165 4.5628757 -80.110905 C 4.5628757 -76.539704 3.7121823 -73.336993 2.0116102 -70.502706 C 0.36772389 -67.66842 -2.0128741 -65.429173 -5.1305895 -63.785287 C -8.2483049 -62.198086 -11.932748 -61.404554 -16.184178 -61.404554 C -19.642008 -61.404554 -22.788075 -61.886286 -25.622362 -62.849943 C -28.399963 -63.813601 -30.582565 -65.14551 -32.169766 -66.846082 C -33.756967 -68.60334 -34.550499 -70.559366 -34.550499 -72.713424 C -34.550499 -74.980853 -33.926898 -76.709787 -32.679812 -77.900188 C -31.432726 -79.147274 -29.902305 -79.770358 -28.088361 -79.770358 C -27.068018 -79.770358 -26.047393 -79.572362 -25.027049 -79.175562 C -23.95002 -78.778762 -22.986556 -78.211805 -22.13627 -77.474891 C -22.646441 -76.28449 -22.901598 -75.037289 -22.901598 -73.733517 C -22.901598 -71.862888 -22.363221 -70.332466 -21.286193 -69.142066 C -20.152478 -67.951665 -18.451608 -67.356645 -16.184178 -67.356645 C -11.082462 -67.356645 -8.5319323 -71.608045 -8.5319323 -80.110905 C -8.5319323 -84.135593 -9.3254649 -87.054567 -10.912666 -88.86851 C -12.499866 -90.73914 -14.625308 -91.674541 -17.289537 -91.674541 C -18.933424 -91.674541 -20.690938 -91.36274 -22.561567 -90.739197 C -24.432196 -90.115654 -26.274418 -89.236897 -28.088361 -88.103182 L -32.765078 -92.609884 L -30.554361 -116.75776 L -27.74833 -119.05375 z M -143.55728 -118.88373 L -139.39061 -118.88373 C -137.23655 -118.82705 -132.532 -118.79847 -125.27623 -118.79847 C -117.73702 -118.79847 -112.83344 -118.82705 -110.56601 -118.88373 L -106.48461 -118.88373 L -104.78394 -115.22762 C -105.86097 -113.52705 -107.9017 -109.84261 -110.90605 -104.17404 C -113.91039 -98.505463 -116.74466 -92.496548 -119.40889 -86.147746 C -122.07311 -79.798944 -123.40554 -74.838719 -123.40554 -71.267517 C -123.40554 -68.433231 -122.4135 -66.307789 -120.42949 -64.890646 C -122.35681 -62.566531 -124.82263 -61.404554 -127.82698 -61.404554 C -130.60458 -61.404554 -132.7586 -62.169506 -134.28911 -63.700021 C -135.81963 -65.230536 -136.58458 -67.356494 -136.58458 -70.077409 C -136.58458 -73.478553 -135.76298 -77.077772 -134.1191 -80.875717 C -132.47521 -84.730347 -129.52766 -89.945728 -125.27623 -96.521273 L -115.24273 -111.9963 L -134.62915 -111.9963 C -135.42275 -109.44544 -135.90448 -106.44124 -136.07453 -102.98341 C -137.09488 -102.81335 -138.14357 -102.72813 -139.2206 -102.72813 C -140.35431 -102.72813 -141.45964 -102.81335 -142.53667 -102.98341 L -144.91741 -117.60836 L -143.55728 -118.88373 z M -91.26435 -101.28274 C -89.280349 -101.28274 -87.806572 -100.68772 -86.842915 -99.497319 C -85.822571 -98.363604 -85.312775 -96.776539 -85.312775 -94.735852 C -85.312775 -92.695166 -85.822571 -91.107584 -86.842915 -89.973869 C -87.806572 -88.840154 -89.280349 -88.273198 -91.26435 -88.273198 C -93.248351 -88.273198 -94.750709 -88.840154 -95.771052 -89.973869 C -96.734709 -91.16427 -97.216442 -92.751852 -97.216442 -94.735852 C -97.216442 -96.833225 -96.734709 -98.448354 -95.771052 -99.582068 C -94.750709 -100.71578 -93.248351 -101.28274 -91.26435 -101.28274 z M -91.26435 -74.498845 C -89.280349 -74.498845 -87.806572 -73.903824 -86.842915 -72.713424 C -85.822571 -71.579709 -85.312775 -69.992127 -85.312775 -67.951441 C -85.312775 -65.910754 -85.822571 -64.323689 -86.842915 -63.189974 C -87.806572 -62.05626 -89.280349 -61.489303 -91.26435 -61.489303 C -93.248351 -61.489303 -94.750709 -62.05626 -95.771052 -63.189974 C -96.734709 -64.380375 -97.216442 -65.96744 -97.216442 -67.951441 C -97.216442 -70.048813 -96.734709 -71.664459 -95.771052 -72.798173 C -94.750709 -73.931888 -93.248351 -74.498845 -91.26435 -74.498845 z " /></g></svg>
