<?xml version="1.0" encoding="UTF-8" standalone="no"?>
<!-- Created with Inkscape (http://www.inkscape.org/) -->

<svg
   width="172.6701mm"
   height="172.6701mm"
   viewBox="0 0 172.6701 172.6701"
   version="1.1"
   id="svg1"
   xml:space="preserve"
   xmlns="http://www.w3.org/2000/svg"
   xmlns:svg="http://www.w3.org/2000/svg"><defs
     id="defs1" /><g
     id="layer1"
     transform="translate(157.25102,198.81012)"><path
       id="path5"
       style="fill:#ffffff;fill-opacity:1;stroke-width:0.805188;stroke-linecap:round;stroke-linejoin:round"
       d="M -2.0863309 -198.17657 L -10.088943 -183.11289 L -10.930235 -165.68398 L -19.198981 -165.68398 L -11.423229 -155.47426 L -12.166336 -140.07934 C -28.353216 -157.12094 -50.823548 -166.77435 -74.327399 -166.78417 C -103.64471 -166.77397 -130.92652 -151.79225 -146.66717 -127.05894 L -157.25102 -127.05894 L -149.61996 -115.86014 L -157.25102 -26.140039 L -8.5138455 -26.140039 L 15.419061 -26.140039 L 8.0799737 -154.80195 L 15.419061 -165.68398 L 7.4593397 -165.68398 L 6.4490654 -183.39297 L -2.0863309 -198.17657 z M -83.43072 -192.21621 C -85.584619 -189.65499 -86.77489 -186.4211 -86.795372 -183.07465 C -86.842092 -175.15518 -80.459903 -168.69733 -72.540428 -168.65072 C -64.621155 -168.60402 -58.163395 -174.98588 -58.116503 -182.90515 C -58.102813 -186.26049 -59.266203 -189.5144 -61.404157 -192.10045 C -60.83125 -190.6836 -60.536835 -189.16959 -60.537027 -187.64129 C -60.575787 -181.07411 -65.930869 -175.78172 -72.498054 -175.82031 C -79.065241 -175.85911 -84.357627 -181.21415 -84.319038 -187.78134 C -84.309338 -189.30285 -84.007827 -190.80837 -83.43072 -192.21621 z M -3.2599026 -119.90383 L -1.2192003 -115.65241 C -12.669719 -110.72075 -19.556873 -103.12528 -21.880988 -92.865166 C -18.593216 -94.452366 -15.475729 -95.245899 -12.528071 -95.245899 C -6.8594973 -95.245899 -2.4095849 -93.715477 0.82150197 -90.654448 C 4.1092746 -87.593418 5.7529839 -83.455306 5.7529839 -78.240218 C 5.7529839 -75.009132 4.8742269 -72.118221 3.1169691 -69.567363 C 1.416397 -67.016505 -0.9927813 -65.032415 -4.1104967 -63.615271 C -7.1715264 -62.198128 -10.686038 -61.489303 -14.654039 -61.489303 C -21.399642 -61.489303 -26.585926 -63.360105 -30.213813 -67.101363 C -33.785014 -70.842622 -35.570592 -76.255999 -35.570592 -83.341716 C -35.570592 -92.241376 -32.82155 -99.808775 -27.323033 -106.04421 C -21.767831 -112.33632 -13.746764 -116.95617 -3.2599026 -119.90383 z M -60.314301 -119.73381 C -56.629728 -119.73381 -53.369857 -119.11073 -50.53557 -117.86364 C -47.701283 -116.67324 -45.490617 -114.97237 -43.903417 -112.76163 C -42.316216 -110.60757 -41.522683 -108.11368 -41.522683 -105.27939 C -41.522683 -102.10499 -42.458084 -99.384015 -44.328714 -97.116586 C -46.199343 -94.849156 -48.976966 -93.120223 -52.661538 -91.929822 C -48.013308 -90.909479 -44.753953 -89.237189 -42.883324 -86.913074 C -41.012695 -84.588959 -40.077294 -81.442892 -40.077294 -77.474891 C -40.077294 -74.017061 -41.125983 -71.069506 -43.223355 -68.632019 C -45.264041 -66.194533 -47.928376 -64.380375 -51.216149 -63.189974 C -54.503921 -61.999574 -57.905145 -61.404554 -61.41966 -61.404554 C -66.521376 -61.404554 -70.857484 -62.453243 -74.428685 -64.550615 C -77.943201 -66.647987 -79.700715 -69.510317 -79.700715 -73.138204 C -79.700715 -75.235577 -79.077114 -76.851222 -77.830028 -77.984937 C -76.582942 -79.175337 -75.02394 -79.770358 -73.153311 -79.770358 C -71.225996 -79.770358 -69.270486 -79.005405 -67.286485 -77.474891 C -67.796657 -76.397862 -68.051813 -75.094016 -68.051813 -73.563501 C -68.051813 -71.749558 -67.513437 -70.275781 -66.436408 -69.142066 C -65.302693 -68.008351 -63.630404 -67.441394 -61.41966 -67.441394 C -56.544687 -67.441394 -54.106928 -70.814037 -54.106928 -77.55964 C -54.106928 -81.244213 -55.297486 -84.10706 -57.678286 -86.147746 C -60.002402 -88.188433 -63.318401 -89.208541 -67.626516 -89.208541 L -67.626516 -94.480571 C -59.293713 -95.1608 -55.127538 -98.760535 -55.127538 -105.27939 C -55.127538 -108.56717 -55.637334 -110.97583 -56.657677 -112.50634 C -57.67802 -114.09354 -59.06709 -114.88759 -60.824348 -114.88759 C -62.92172 -114.88759 -64.508785 -114.15071 -65.585814 -112.67688 C -66.606157 -111.20305 -67.11647 -109.41747 -67.11647 -107.3201 C -67.11647 -105.44947 -66.719445 -103.77718 -65.925845 -102.30335 C -67.513046 -100.60278 -69.55378 -99.752084 -72.047952 -99.752084 C -74.315381 -99.752084 -76.072895 -100.43233 -77.319982 -101.79279 C -78.567068 -103.15324 -79.190668 -104.91076 -79.190668 -107.06482 C -79.190668 -109.8991 -78.226687 -112.25164 -76.299372 -114.12227 C -74.315371 -116.04958 -71.878129 -117.46671 -68.987157 -118.37369 C -66.039499 -119.28066 -63.148588 -119.73381 -60.314301 -119.73381 z M -144.32261 -118.88373 L -140.15594 -118.88373 C -138.00188 -118.82705 -133.29681 -118.79847 -126.04104 -118.79847 C -118.50184 -118.79847 -113.59877 -118.82705 -111.33134 -118.88373 L -107.24994 -118.88373 L -105.54927 -115.22762 C -106.6263 -113.52705 -108.66703 -109.84261 -111.67137 -104.17404 C -114.67572 -98.505463 -117.50998 -92.496548 -120.17421 -86.147746 C -122.83844 -79.798944 -124.17035 -74.838719 -124.17035 -71.267517 C -124.17035 -68.433231 -123.17882 -66.307789 -121.19482 -64.890646 C -123.12214 -62.566531 -125.58796 -61.404554 -128.5923 -61.404554 C -131.36991 -61.404554 -133.52393 -62.169506 -135.05444 -63.700021 C -136.58496 -65.230536 -137.34991 -67.356494 -137.34991 -70.077409 C -137.34991 -73.478553 -136.52831 -77.077772 -134.88443 -80.875717 C -133.24054 -84.730347 -130.29247 -89.945728 -126.04104 -96.521273 L -116.00806 -111.9963 L -135.39447 -111.9963 C -136.18807 -109.44544 -136.66981 -106.44124 -136.83986 -102.98341 C -137.86021 -102.81335 -138.9089 -102.72813 -139.98592 -102.72813 C -141.11964 -102.72813 -142.22497 -102.81335 -143.302 -102.98341 L -145.68273 -117.60836 L -144.32261 -118.88373 z M -92.029678 -101.28274 C -90.045677 -101.28274 -88.5719 -100.68772 -87.608242 -99.497319 C -86.587899 -98.363604 -86.077587 -96.776539 -86.077587 -94.735852 C -86.077587 -92.695166 -86.587899 -91.107584 -87.608242 -89.973869 C -88.5719 -88.840154 -90.045677 -88.273198 -92.029678 -88.273198 C -94.013679 -88.273198 -95.516036 -88.840154 -96.53638 -89.973869 C -97.500037 -91.16427 -97.98177 -92.751852 -97.98177 -94.735852 C -97.98177 -96.833225 -97.500037 -98.448354 -96.53638 -99.582068 C -95.516036 -100.71578 -94.013679 -101.28274 -92.029678 -101.28274 z M -14.908804 -89.293807 C -17.289605 -89.293807 -19.868715 -88.330343 -22.646316 -86.403028 L -22.646316 -85.297669 C -22.646316 -79.118924 -21.966072 -74.583787 -20.605614 -71.692814 C -19.245156 -68.801842 -17.091134 -67.356645 -14.143476 -67.356645 C -11.705989 -67.356645 -9.8357042 -68.291529 -8.5319323 -70.162159 C -7.2281604 -72.032788 -6.5759793 -74.697123 -6.5759793 -78.154952 C -6.5759793 -81.669468 -7.312868 -84.390447 -8.7866971 -86.317762 C -10.20384 -88.301762 -12.244574 -89.293807 -14.908804 -89.293807 z M -92.029678 -74.498845 C -90.045677 -74.498845 -88.5719 -73.903824 -87.608242 -72.713424 C -86.587899 -71.579709 -86.077587 -69.992127 -86.077587 -67.951441 C -86.077587 -65.910754 -86.587899 -64.323689 -87.608242 -63.189974 C -88.5719 -62.05626 -90.045677 -61.489303 -92.029678 -61.489303 C -94.013679 -61.489303 -95.516036 -62.05626 -96.53638 -63.189974 C -97.500037 -64.380375 -97.98177 -65.96744 -97.98177 -67.951441 C -97.98177 -70.048813 -97.500037 -71.664459 -96.53638 -72.798173 C -95.516036 -73.931888 -94.013679 -74.498845 -92.029678 -74.498845 z " /></g></svg>
