<?xml version="1.0" encoding="UTF-8" standalone="no"?>
<!-- Created with Inkscape (http://www.inkscape.org/) -->

<svg
   width="172.6701mm"
   height="172.6701mm"
   viewBox="0 0 172.6701 172.6701"
   version="1.1"
   id="svg1"
   xml:space="preserve"
   xmlns="http://www.w3.org/2000/svg"
   xmlns:svg="http://www.w3.org/2000/svg"><defs
     id="defs1" /><g
     id="layer1"
     transform="translate(157.25102,198.81012)"><path
       id="path5"
       style="fill:#ffffff;fill-opacity:1;stroke-width:0.805188;stroke-linecap:round;stroke-linejoin:round"
       d="M -2.0863309 -198.17657 L -10.088943 -183.11289 L -10.930235 -165.68398 L -19.198981 -165.68398 L -11.423229 -155.47426 L -12.166336 -140.07934 C -28.353216 -157.12094 -50.823548 -166.77435 -74.327399 -166.78417 C -103.64471 -166.77397 -130.92652 -151.79225 -146.66717 -127.05894 L -157.25102 -127.05894 L -149.61996 -115.86014 L -157.25102 -26.140039 L -8.5138455 -26.140039 L 15.419061 -26.140039 L 8.0799737 -154.80195 L 15.419061 -165.68398 L 7.4593397 -165.68398 L 6.4490654 -183.39297 L -2.0863309 -198.17657 z M -83.43072 -192.21621 C -85.584619 -189.65499 -86.77489 -186.4211 -86.795372 -183.07465 C -86.842092 -175.15518 -80.459903 -168.69733 -72.540428 -168.65072 C -64.621155 -168.60402 -58.163395 -174.98588 -58.116503 -182.90515 C -58.102813 -186.26049 -59.266203 -189.5144 -61.404157 -192.10045 C -60.83125 -190.6836 -60.536835 -189.16959 -60.537027 -187.64129 C -60.575787 -181.07411 -65.930869 -175.78172 -72.498054 -175.82031 C -79.065241 -175.85911 -84.357627 -181.21415 -84.319038 -187.78134 C -84.309338 -189.30285 -84.007827 -190.80837 -83.43072 -192.21621 z M -58.443614 -119.73381 C -54.759042 -119.73381 -51.499687 -119.11073 -48.6654 -117.86364 C -45.831113 -116.67324 -43.61993 -114.97237 -42.03273 -112.76163 C -40.445529 -110.60757 -39.651997 -108.11368 -39.651997 -105.27939 C -39.651997 -102.10499 -40.587398 -99.384015 -42.458027 -97.116586 C -44.328656 -94.849156 -47.106279 -93.120223 -50.790852 -91.929822 C -46.142621 -90.909479 -42.883266 -89.237189 -41.012637 -86.913074 C -39.142008 -84.588959 -38.206607 -81.442892 -38.206607 -77.474891 C -38.206607 -74.017061 -39.255296 -71.069506 -41.352668 -68.632019 C -43.393354 -66.194533 -46.057689 -64.380375 -49.345462 -63.189974 C -52.633234 -61.999574 -56.034458 -61.404554 -59.548973 -61.404554 C -64.650689 -61.404554 -68.986797 -62.453243 -72.557998 -64.550615 C -76.072514 -66.647987 -77.830028 -69.510317 -77.830028 -73.138204 C -77.830028 -75.235577 -77.206427 -76.851222 -75.959341 -77.984937 C -74.712255 -79.175337 -73.153253 -79.770358 -71.282624 -79.770358 C -69.355309 -79.770358 -67.399799 -79.005405 -65.415799 -77.474891 C -65.92597 -76.397862 -66.181127 -75.094016 -66.181127 -73.563501 C -66.181127 -71.749558 -65.64275 -70.275781 -64.565721 -69.142066 C -63.432007 -68.008351 -61.759717 -67.441394 -59.548973 -67.441394 C -54.674 -67.441394 -52.236241 -70.814037 -52.236241 -77.55964 C -52.236241 -81.244213 -53.426799 -84.10706 -55.8076 -86.147746 C -58.131715 -88.188433 -61.447714 -89.208541 -65.75583 -89.208541 L -65.75583 -94.480571 C -57.423027 -95.1608 -53.256851 -98.760535 -53.256851 -105.27939 C -53.256851 -108.56717 -53.766647 -110.97583 -54.78699 -112.50634 C -55.807333 -114.09354 -57.196403 -114.88759 -58.953661 -114.88759 C -61.051033 -114.88759 -62.638098 -114.15071 -63.715127 -112.67688 C -64.73547 -111.20305 -65.245783 -109.41747 -65.245783 -107.3201 C -65.245783 -105.44947 -64.848758 -103.77718 -64.055158 -102.30335 C -65.642359 -100.60278 -67.683093 -99.752084 -70.177265 -99.752084 C -72.444695 -99.752084 -74.202209 -100.43233 -75.449295 -101.79279 C -76.696381 -103.15324 -77.319982 -104.91076 -77.319982 -107.06482 C -77.319982 -109.8991 -76.356 -112.25164 -74.428685 -114.12227 C -72.444684 -116.04958 -70.007443 -117.46671 -67.11647 -118.37369 C -64.168812 -119.28066 -61.277901 -119.73381 -58.443614 -119.73381 z M -142.45192 -118.88373 L -138.28525 -118.88373 C -136.13119 -118.82705 -131.42613 -118.79847 -124.17035 -118.79847 C -116.63115 -118.79847 -111.72808 -118.82705 -109.46066 -118.88373 L -105.37925 -118.88373 L -103.67858 -115.22762 C -104.75561 -113.52705 -106.79634 -109.84261 -109.80069 -104.17404 C -112.80503 -98.505463 -115.6393 -92.496548 -118.30353 -86.147746 C -120.96776 -79.798944 -122.30018 -74.838719 -122.30018 -71.267517 C -122.30018 -68.433231 -121.30814 -66.307789 -119.32414 -64.890646 C -121.25145 -62.566531 -123.71727 -61.404554 -126.72162 -61.404554 C -129.49922 -61.404554 -131.65324 -62.169506 -133.18376 -63.700021 C -134.71427 -65.230536 -135.47922 -67.356494 -135.47922 -70.077409 C -135.47922 -73.478553 -134.65763 -77.077772 -133.01374 -80.875717 C -131.36985 -84.730347 -128.42178 -89.945728 -124.17035 -96.521273 L -114.13737 -111.9963 L -133.52379 -111.9963 C -134.31739 -109.44544 -134.79912 -106.44124 -134.96918 -102.98341 C -135.98952 -102.81335 -137.03821 -102.72813 -138.11524 -102.72813 C -139.24895 -102.72813 -140.35428 -102.81335 -141.43131 -102.98341 L -143.81205 -117.60836 L -142.45192 -118.88373 z M -33.44514 -118.88373 L -29.27847 -118.88373 C -27.124412 -118.82705 -22.41986 -118.79847 -15.164086 -118.79847 C -7.6248828 -118.79847 -2.7213018 -118.82705 -0.45387238 -118.88373 L 3.6275322 -118.88373 L 5.3282036 -115.22762 C 4.2511747 -113.52705 2.2104407 -109.84261 -0.7939033 -104.17404 C -3.7982473 -98.505463 -6.6325139 -92.496548 -9.2967435 -86.147746 C -11.960973 -79.798944 -13.293399 -74.838719 -13.293399 -71.267517 C -13.293399 -68.433231 -12.301354 -66.307789 -10.317353 -64.890646 C -12.244668 -62.566531 -14.71049 -61.404554 -17.714834 -61.404554 C -20.492435 -61.404554 -22.646457 -62.169506 -24.176972 -63.700021 C -25.707487 -65.230536 -26.472956 -67.356494 -26.472956 -70.077409 C -26.472956 -73.478553 -25.650843 -77.077772 -24.006957 -80.875717 C -22.36307 -84.730347 -19.415516 -89.945728 -15.164086 -96.521273 L -5.1305895 -111.9963 L -24.517003 -111.9963 C -25.310603 -109.44544 -25.792336 -106.44124 -25.962393 -102.98341 C -26.982736 -102.81335 -28.031425 -102.72813 -29.108454 -102.72813 C -30.242169 -102.72813 -31.347502 -102.81335 -32.424531 -102.98341 L -34.805781 -117.60836 L -33.44514 -118.88373 z M -90.158991 -101.28274 C -88.17499 -101.28274 -86.701213 -100.68772 -85.737556 -99.497319 C -84.717212 -98.363604 -84.207416 -96.776539 -84.207416 -94.735852 C -84.207416 -92.695166 -84.717212 -91.107584 -85.737556 -89.973869 C -86.701213 -88.840154 -88.17499 -88.273198 -90.158991 -88.273198 C -92.142992 -88.273198 -93.64535 -88.840154 -94.665693 -89.973869 C -95.62935 -91.16427 -96.111083 -92.751852 -96.111083 -94.735852 C -96.111083 -96.833225 -95.62935 -98.448354 -94.665693 -99.582068 C -93.64535 -100.71578 -92.142992 -101.28274 -90.158991 -101.28274 z M -90.158991 -74.498845 C -88.17499 -74.498845 -86.701213 -73.903824 -85.737556 -72.713424 C -84.717212 -71.579709 -84.207416 -69.992127 -84.207416 -67.951441 C -84.207416 -65.910754 -84.717212 -64.323689 -85.737556 -63.189974 C -86.701213 -62.05626 -88.17499 -61.489303 -90.158991 -61.489303 C -92.142992 -61.489303 -93.64535 -62.05626 -94.665693 -63.189974 C -95.62935 -64.380375 -96.111083 -65.96744 -96.111083 -67.951441 C -96.111083 -70.048813 -95.62935 -71.664459 -94.665693 -72.798173 C -93.64535 -73.931888 -92.142992 -74.498845 -90.158991 -74.498845 z " /></g></svg>
