<?xml version="1.0" encoding="UTF-8" standalone="no"?>
<!-- Created with Inkscape (http://www.inkscape.org/) -->

<svg
   width="172.6701mm"
   height="172.6701mm"
   viewBox="0 0 172.6701 172.6701"
   version="1.1"
   id="svg1"
   xml:space="preserve"
   xmlns="http://www.w3.org/2000/svg"
   xmlns:svg="http://www.w3.org/2000/svg"><defs
     id="defs1" /><g
     id="layer1"
     transform="translate(157.25102,198.81012)"><path
       id="path5"
       style="fill:#ffffff;fill-opacity:1;stroke-width:0.805188;stroke-linecap:round;stroke-linejoin:round"
       d="M -2.0863309 -198.17657 L -10.088943 -183.11289 L -10.930235 -165.68398 L -19.198981 -165.68398 L -11.423229 -155.47426 L -12.166336 -140.07934 C -28.353216 -157.12094 -50.823548 -166.77435 -74.327399 -166.78417 C -103.64471 -166.77397 -130.92652 -151.79225 -146.66717 -127.05894 L -157.25102 -127.05894 L -149.61996 -115.86014 L -157.25102 -26.140039 L -8.5138455 -26.140039 L 15.419061 -26.140039 L 8.0799737 -154.80195 L 15.419061 -165.68398 L 7.4593397 -165.68398 L 6.4490654 -183.39297 L -2.0863309 -198.17657 z M -83.43072 -192.21621 C -85.584619 -189.65499 -86.77489 -186.4211 -86.795372 -183.07465 C -86.842092 -175.15518 -80.459903 -168.69733 -72.540428 -168.65072 C -64.621155 -168.60402 -58.163395 -174.98588 -58.116503 -182.90515 C -58.102813 -186.26049 -59.266203 -189.5144 -61.404157 -192.10045 C -60.83125 -190.6836 -60.536835 -189.16959 -60.537027 -187.64129 C -60.575787 -181.07411 -65.930869 -175.78172 -72.498054 -175.82031 C -79.065241 -175.85911 -84.357627 -181.21415 -84.319038 -187.78134 C -84.309338 -189.30285 -84.007827 -190.80837 -83.43072 -192.21621 z M -15.078819 -119.81908 C -9.1268173 -119.81908 -4.393685 -118.54381 -0.87916941 -115.99295 C 2.6353462 -113.44209 4.3928602 -110.01229 4.3928602 -105.70418 C 4.3928602 -103.38006 3.5421668 -101.05611 1.8415947 -98.731991 C 0.14102269 -96.407876 -2.0977069 -94.50901 -4.8753079 -93.035181 C -1.3607923 -91.334609 1.3882499 -89.350519 3.3722507 -87.08309 C 5.4129371 -84.81566 6.4335625 -81.896169 6.4335625 -78.324968 C 6.4335625 -73.166566 4.5627605 -69.057034 0.82150197 -65.996005 C -2.9197565 -62.991661 -7.9646892 -61.489303 -14.313492 -61.489303 C -21.285837 -61.489303 -26.67115 -62.878373 -30.469095 -65.655974 C -34.210353 -68.433575 -36.081155 -72.401238 -36.081155 -77.55964 C -36.081155 -80.223869 -35.230462 -82.86014 -33.52989 -85.467684 C -31.829318 -88.131914 -29.44872 -90.483931 -26.38769 -92.524618 C -28.938548 -93.941761 -30.922638 -95.642631 -32.339781 -97.626632 C -33.756925 -99.610633 -34.465233 -102.07646 -34.465233 -105.02411 C -34.465233 -109.55897 -32.708236 -113.15871 -29.19372 -115.82294 C -25.679205 -118.48717 -20.974136 -119.81908 -15.078819 -119.81908 z M -61.079112 -119.73381 C -57.39454 -119.73381 -54.135185 -119.11073 -51.300898 -117.86364 C -48.466611 -116.67324 -46.255945 -114.97237 -44.668745 -112.76163 C -43.081544 -110.60757 -42.288011 -108.11368 -42.288011 -105.27939 C -42.288011 -102.10499 -43.223412 -99.384015 -45.094042 -97.116586 C -46.964671 -94.849156 -49.742294 -93.120223 -53.426866 -91.929822 C -48.778636 -90.909479 -45.519281 -89.237189 -43.648652 -86.913074 C -41.778023 -84.588959 -40.842622 -81.442892 -40.842622 -77.474891 C -40.842622 -74.017061 -41.891311 -71.069506 -43.988683 -68.632019 C -46.029369 -66.194533 -48.693704 -64.380375 -51.981477 -63.189974 C -55.269249 -61.999574 -58.670473 -61.404554 -62.184988 -61.404554 C -67.286704 -61.404554 -71.622812 -62.453243 -75.194013 -64.550615 C -78.708529 -66.647987 -80.466043 -69.510317 -80.466043 -73.138204 C -80.466043 -75.235577 -79.842442 -76.851222 -78.595356 -77.984937 C -77.34827 -79.175337 -75.789268 -79.770358 -73.918639 -79.770358 C -71.991324 -79.770358 -70.035814 -79.005405 -68.051813 -77.474891 C -68.561985 -76.397862 -68.817141 -75.094016 -68.817141 -73.563501 C -68.817141 -71.749558 -68.278248 -70.275781 -67.201219 -69.142066 C -66.067505 -68.008351 -64.395732 -67.441394 -62.184988 -67.441394 C -57.310015 -67.441394 -54.872256 -70.814037 -54.872256 -77.55964 C -54.872256 -81.244213 -56.062814 -84.10706 -58.443614 -86.147746 C -60.76773 -88.188433 -64.083729 -89.208541 -68.391844 -89.208541 L -68.391844 -94.480571 C -60.059041 -95.1608 -55.892866 -98.760535 -55.892866 -105.27939 C -55.892866 -108.56717 -56.402662 -110.97583 -57.423005 -112.50634 C -58.443348 -114.09354 -59.832418 -114.88759 -61.589676 -114.88759 C -63.687048 -114.88759 -65.274113 -114.15071 -66.351142 -112.67688 C -67.371485 -111.20305 -67.881798 -109.41747 -67.881798 -107.3201 C -67.881798 -105.44947 -67.484773 -103.77718 -66.691173 -102.30335 C -68.278374 -100.60278 -70.319108 -99.752084 -72.81328 -99.752084 C -75.080709 -99.752084 -76.838223 -100.43233 -78.08531 -101.79279 C -79.332396 -103.15324 -79.95548 -104.91076 -79.95548 -107.06482 C -79.95548 -109.8991 -78.992015 -112.25164 -77.0647 -114.12227 C -75.080699 -116.04958 -72.643457 -117.46671 -69.752485 -118.37369 C -66.804827 -119.28066 -63.913399 -119.73381 -61.079112 -119.73381 z M -145.08742 -118.88373 L -140.92127 -118.88373 C -138.76721 -118.82705 -134.06214 -118.79847 -126.80637 -118.79847 C -119.26716 -118.79847 -114.3641 -118.82705 -112.09667 -118.88373 L -108.01527 -118.88373 L -106.31459 -115.22762 C -107.39162 -113.52705 -109.43236 -109.84261 -112.4367 -104.17404 C -115.44105 -98.505463 -118.27531 -92.496548 -120.93954 -86.147746 C -123.60377 -79.798944 -124.93568 -74.838719 -124.93568 -71.267517 C -124.93568 -68.433231 -123.94363 -66.307789 -121.95963 -64.890646 C -123.88695 -62.566531 -126.35277 -61.404554 -129.35712 -61.404554 C -132.13472 -61.404554 -134.28874 -62.169506 -135.81925 -63.700021 C -137.34977 -65.230536 -138.11524 -67.356494 -138.11524 -70.077409 C -138.11524 -73.478553 -137.29312 -77.077772 -135.64924 -80.875717 C -134.00535 -84.730347 -131.0578 -89.945728 -126.80637 -96.521273 L -116.77287 -111.9963 L -136.1598 -111.9963 C -136.9534 -109.44544 -137.43513 -106.44124 -137.60519 -102.98341 C -138.62553 -102.81335 -139.67422 -102.72813 -140.75125 -102.72813 C -141.88497 -102.72813 -142.9903 -102.81335 -144.06733 -102.98341 L -146.44806 -117.60836 L -145.08742 -118.88373 z M -15.078819 -113.78224 C -17.346249 -113.78224 -19.131827 -113.04535 -20.435598 -111.57152 C -21.73937 -110.15437 -22.391551 -108.22693 -22.391551 -105.78944 C -22.391551 -103.63538 -21.569438 -101.84981 -19.925552 -100.43266 C -18.22498 -99.072205 -15.759158 -97.711715 -12.528071 -96.351258 C -11.110927 -97.314915 -9.977014 -98.646824 -9.126728 -100.3474 C -8.276442 -102.04797 -7.8513537 -103.86213 -7.8513537 -105.78944 C -7.8513537 -108.22693 -8.5315983 -110.15437 -9.892056 -111.57152 C -11.195828 -113.04535 -12.924762 -113.78224 -15.078819 -113.78224 z M -92.795006 -101.28274 C -90.811005 -101.28274 -89.337228 -100.68772 -88.37357 -99.497319 C -87.353227 -98.363604 -86.842915 -96.776539 -86.842915 -94.735852 C -86.842915 -92.695166 -87.353227 -91.107584 -88.37357 -89.973869 C -89.337228 -88.840154 -90.811005 -88.273198 -92.795006 -88.273198 C -94.779007 -88.273198 -96.281364 -88.840154 -97.301708 -89.973869 C -98.265365 -91.16427 -98.747097 -92.751852 -98.747097 -94.735852 C -98.747097 -96.833225 -98.265365 -98.448354 -97.301708 -99.582068 C -96.281364 -100.71578 -94.779007 -101.28274 -92.795006 -101.28274 z M -18.564912 -89.038526 C -20.265484 -87.678068 -21.512685 -86.119583 -22.306285 -84.362325 C -23.099886 -82.605068 -23.49691 -80.50769 -23.49691 -78.070203 C -23.49691 -74.725745 -22.674797 -72.089474 -21.030911 -70.162159 C -19.387025 -68.291529 -17.147778 -67.356645 -14.313492 -67.356645 C -11.53589 -67.356645 -9.3818685 -68.291529 -7.8513537 -70.162159 C -6.2641531 -72.032788 -5.4706204 -74.640479 -5.4706204 -77.984937 C -5.4706204 -79.855566 -6.0656407 -81.442631 -7.2560412 -82.746403 C -8.3897559 -84.106861 -9.8354696 -85.212194 -11.592727 -86.06248 C -13.349985 -86.969452 -15.673939 -87.961497 -18.564912 -89.038526 z M -92.795006 -74.498845 C -90.811005 -74.498845 -89.337228 -73.903824 -88.37357 -72.713424 C -87.353227 -71.579709 -86.842915 -69.992127 -86.842915 -67.951441 C -86.842915 -65.910754 -87.353227 -64.323689 -88.37357 -63.189974 C -89.337228 -62.05626 -90.811005 -61.489303 -92.795006 -61.489303 C -94.779007 -61.489303 -96.281364 -62.05626 -97.301708 -63.189974 C -98.265365 -64.380375 -98.747097 -65.96744 -98.747097 -67.951441 C -98.747097 -70.048813 -98.265365 -71.664459 -97.301708 -72.798173 C -96.281364 -73.931888 -94.779007 -74.498845 -92.795006 -74.498845 z " /></g></svg>
