<?xml version="1.0" encoding="UTF-8" standalone="no"?>
<!-- Created with Inkscape (http://www.inkscape.org/) -->

<svg
   width="172.6701mm"
   height="172.6701mm"
   viewBox="0 0 172.6701 172.6701"
   version="1.1"
   id="svg1"
   xml:space="preserve"
   xmlns="http://www.w3.org/2000/svg"
   xmlns:svg="http://www.w3.org/2000/svg"><defs
     id="defs1" /><g
     id="layer1"
     transform="translate(157.25102,198.81012)"><path
       id="path5"
       style="fill:#ffffff;fill-opacity:1;stroke-width:0.805188;stroke-linecap:round;stroke-linejoin:round"
       d="M -2.0863309 -198.17657 L -10.088943 -183.11289 L -10.930235 -165.68398 L -19.198981 -165.68398 L -11.423229 -155.47426 L -12.166336 -140.07934 C -28.353216 -157.12094 -50.823548 -166.77435 -74.327399 -166.78417 C -103.64471 -166.77397 -130.92652 -151.79225 -146.66717 -127.05894 L -157.25102 -127.05894 L -149.61996 -115.86014 L -157.25102 -26.140039 L -8.5138455 -26.140039 L 15.419061 -26.140039 L 8.0799737 -154.80195 L 15.419061 -165.68398 L 7.4593397 -165.68398 L 6.4490654 -183.39297 L -2.0863309 -198.17657 z M -83.43072 -192.21621 C -85.584619 -189.65499 -86.77489 -186.4211 -86.795372 -183.07465 C -86.842092 -175.15518 -80.459903 -168.69733 -72.540428 -168.65072 C -64.621155 -168.60402 -58.163395 -174.98588 -58.116503 -182.90515 C -58.102813 -186.26049 -59.266203 -189.5144 -61.404157 -192.10045 C -60.83125 -190.6836 -60.536835 -189.16959 -60.537027 -187.64129 C -60.575787 -181.07411 -65.930869 -175.78172 -72.498054 -175.82031 C -79.065241 -175.85911 -84.357627 -181.21415 -84.319038 -187.78134 C -84.309338 -189.30285 -84.007827 -190.80837 -83.43072 -192.21621 z M -60.016645 -120.07436 C -55.481786 -119.84761 -51.796826 -118.85557 -48.962539 -117.09831 L -69.199547 -83.767013 L -56.190005 -83.767013 L -55.339928 -97.626632 C -53.525984 -97.626632 -52.222139 -97.995076 -51.428539 -98.731991 C -50.578253 -99.468905 -49.926588 -100.71611 -49.473103 -102.47336 L -44.62637 -102.47336 L -44.711119 -83.341716 C -42.557061 -82.718173 -39.836599 -82.066508 -36.548827 -81.38628 L -36.973607 -77.304875 L -45.136416 -77.304875 L -45.136416 -62.084615 L -56.190005 -62.084615 L -56.190005 -77.304875 L -80.763699 -77.304875 L -81.443761 -80.36567 L -60.016645 -120.07436 z M -13.931086 -119.73381 C -10.246513 -119.73381 -6.9871582 -119.11073 -4.1528714 -117.86364 C -1.3185846 -116.67324 0.89208134 -114.97237 2.4792819 -112.76163 C 4.0664825 -110.60757 4.8605319 -108.11368 4.8605319 -105.27939 C 4.8605319 -102.10499 3.9251309 -99.384015 2.0545016 -97.116586 C 0.18387239 -94.849156 -2.5937503 -93.120223 -6.2783231 -91.929822 C -1.6300928 -90.909479 1.6292622 -89.237189 3.4998915 -86.913074 C 5.3705207 -84.588959 6.3059217 -81.442892 6.3059217 -77.474891 C 6.3059217 -74.017061 5.2572327 -71.069506 3.1598605 -68.632019 C 1.1191741 -66.194533 -1.5451606 -64.380375 -4.8329332 -63.189974 C -8.1207059 -61.999574 -11.521929 -61.404554 -15.036445 -61.404554 C -20.138161 -61.404554 -24.474785 -62.453243 -28.045987 -64.550615 C -31.560502 -66.647987 -33.317499 -69.510317 -33.317499 -73.138204 C -33.317499 -75.235577 -32.693899 -76.851222 -31.446813 -77.984937 C -30.199726 -79.175337 -28.640725 -79.770358 -26.770096 -79.770358 C -24.842781 -79.770358 -22.887271 -79.005405 -20.90327 -77.474891 C -21.413442 -76.397862 -21.668598 -75.094016 -21.668598 -73.563501 C -21.668598 -71.749558 -21.130222 -70.275781 -20.053193 -69.142066 C -18.919478 -68.008351 -17.247188 -67.441394 -15.036445 -67.441394 C -10.161472 -67.441394 -7.7237129 -70.814037 -7.7237129 -77.55964 C -7.7237129 -81.244213 -8.9142702 -84.10706 -11.295071 -86.147746 C -13.619186 -88.188433 -16.935185 -89.208541 -21.243301 -89.208541 L -21.243301 -94.480571 C -12.910498 -95.1608 -8.7443224 -98.760535 -8.7443224 -105.27939 C -8.7443224 -108.56717 -9.2546351 -110.97583 -10.274978 -112.50634 C -11.295322 -114.09354 -12.683875 -114.88759 -14.441132 -114.88759 C -16.538505 -114.88759 -18.12557 -114.15071 -19.202599 -112.67688 C -20.222942 -111.20305 -20.733255 -109.41747 -20.733255 -107.3201 C -20.733255 -105.44947 -20.336747 -103.77718 -19.543146 -102.30335 C -21.130347 -100.60278 -23.170564 -99.752084 -25.664737 -99.752084 C -27.932166 -99.752084 -29.68968 -100.43233 -30.936766 -101.79279 C -32.183852 -103.15324 -32.807453 -104.91076 -32.807453 -107.06482 C -32.807453 -109.8991 -31.843472 -112.25164 -29.916157 -114.12227 C -27.932156 -116.04958 -25.494914 -117.46671 -22.603942 -118.37369 C -19.656283 -119.28066 -16.765373 -119.73381 -13.931086 -119.73381 z M -144.9603 -118.88373 L -140.79363 -118.88373 C -138.63957 -118.82705 -133.9345 -118.79847 -126.67873 -118.79847 C -119.13952 -118.79847 -114.23646 -118.82705 -111.96903 -118.88373 L -107.88762 -118.88373 L -106.18695 -115.22762 C -107.26398 -113.52705 -109.30472 -109.84261 -112.30906 -104.17404 C -115.3134 -98.505463 -118.14767 -92.496548 -120.8119 -86.147746 C -123.47613 -79.798944 -124.80804 -74.838719 -124.80804 -71.267517 C -124.80804 -68.433231 -123.81651 -66.307789 -121.83251 -64.890646 C -123.75983 -62.566531 -126.22565 -61.404554 -129.22999 -61.404554 C -132.00759 -61.404554 -134.16161 -62.169506 -135.69213 -63.700021 C -137.22264 -65.230536 -137.9876 -67.356494 -137.9876 -70.077409 C -137.9876 -73.478553 -137.166 -77.077772 -135.52211 -80.875717 C -133.87823 -84.730347 -130.93016 -89.945728 -126.67873 -96.521273 L -116.64575 -111.9963 L -136.03216 -111.9963 C -136.82576 -109.44544 -137.30749 -106.44124 -137.47755 -102.98341 C -138.49789 -102.81335 -139.54658 -102.72813 -140.62361 -102.72813 C -141.75733 -102.72813 -142.86266 -102.81335 -143.93969 -102.98341 L -146.32042 -117.60836 L -144.9603 -118.88373 z M -92.667365 -101.28274 C -90.683364 -101.28274 -89.209587 -100.68772 -88.24593 -99.497319 C -87.225586 -98.363604 -86.715274 -96.776539 -86.715274 -94.735852 C -86.715274 -92.695166 -87.225586 -91.107584 -88.24593 -89.973869 C -89.209587 -88.840154 -90.683364 -88.273198 -92.667365 -88.273198 C -94.651366 -88.273198 -96.153724 -88.840154 -97.174067 -89.973869 C -98.137724 -91.16427 -98.619457 -92.751852 -98.619457 -94.735852 C -98.619457 -96.833225 -98.137724 -98.448354 -97.174067 -99.582068 C -96.153724 -100.71578 -94.651366 -101.28274 -92.667365 -101.28274 z M -92.667365 -74.498845 C -90.683364 -74.498845 -89.209587 -73.903824 -88.24593 -72.713424 C -87.225586 -71.579709 -86.715274 -69.992127 -86.715274 -67.951441 C -86.715274 -65.910754 -87.225586 -64.323689 -88.24593 -63.189974 C -89.209587 -62.05626 -90.683364 -61.489303 -92.667365 -61.489303 C -94.651366 -61.489303 -96.153724 -62.05626 -97.174067 -63.189974 C -98.137724 -64.380375 -98.619457 -65.96744 -98.619457 -67.951441 C -98.619457 -70.048813 -98.137724 -71.664459 -97.174067 -72.798173 C -96.153724 -73.931888 -94.651366 -74.498845 -92.667365 -74.498845 z " /></g></svg>
