<?xml version="1.0" encoding="UTF-8" standalone="no"?>
<!-- Created with Inkscape (http://www.inkscape.org/) -->

<svg
   width="172.6701mm"
   height="172.6701mm"
   viewBox="0 0 172.6701 172.6701"
   version="1.1"
   id="svg1"
   xml:space="preserve"
   xmlns="http://www.w3.org/2000/svg"
   xmlns:svg="http://www.w3.org/2000/svg"><defs
     id="defs1" /><g
     id="layer1"
     transform="translate(157.25102,198.81012)"><path
       id="path5"
       style="fill:#ffffff;fill-opacity:1;stroke-width:0.805188;stroke-linecap:round;stroke-linejoin:round"
       d="M -2.0863309 -198.17657 L -10.088943 -183.11289 L -10.930235 -165.68398 L -19.198981 -165.68398 L -11.423229 -155.47426 L -12.166336 -140.07934 C -28.353216 -157.12094 -50.823548 -166.77435 -74.327399 -166.78417 C -103.64471 -166.77397 -130.92652 -151.79225 -146.66717 -127.05894 L -157.25102 -127.05894 L -149.61996 -115.86014 L -157.25102 -26.140039 L -8.5138455 -26.140039 L 15.419061 -26.140039 L 8.0799737 -154.80195 L 15.419061 -165.68398 L 7.4593397 -165.68398 L 6.4490654 -183.39297 L -2.0863309 -198.17657 z M -83.43072 -192.21621 C -85.584619 -189.65499 -86.77489 -186.4211 -86.795372 -183.07465 C -86.842092 -175.15518 -80.459903 -168.69733 -72.540428 -168.65072 C -64.621155 -168.60402 -58.163395 -174.98588 -58.116503 -182.90515 C -58.102813 -186.26049 -59.266203 -189.5144 -61.404157 -192.10045 C -60.83125 -190.6836 -60.536835 -189.16959 -60.537027 -187.64129 C -60.575787 -181.07411 -65.930869 -175.78172 -72.498054 -175.82031 C -79.065241 -175.85911 -84.357627 -181.21415 -84.319038 -187.78134 C -84.309338 -189.30285 -84.007827 -190.80837 -83.43072 -192.21621 z M -61.929707 -120.07436 C -57.394848 -119.84761 -53.710404 -118.85557 -50.876118 -117.09831 L -71.112609 -83.767013 L -58.103583 -83.767013 L -57.252989 -97.626632 C -55.439046 -97.626632 -54.135201 -97.995076 -53.3416 -98.731991 C -52.491314 -99.468905 -51.83965 -100.71611 -51.386164 -102.47336 L -46.539431 -102.47336 L -46.624698 -83.341716 C -44.47064 -82.718173 -41.749661 -82.066508 -38.461888 -81.38628 L -38.886669 -77.304875 L -47.049478 -77.304875 L -47.049478 -62.084615 L -58.103583 -62.084615 L -58.103583 -77.304875 L -82.676761 -77.304875 L -83.356822 -80.36567 L -61.929707 -120.07436 z M -14.908804 -120.07436 C -10.373945 -119.84761 -6.6895019 -118.85557 -3.8552151 -117.09831 L -24.091706 -83.767013 L -11.082681 -83.767013 L -10.232087 -97.626632 C -8.4181434 -97.626632 -7.1148148 -97.995076 -6.3212145 -98.731991 C -5.4709285 -99.468905 -4.8187474 -100.71611 -4.3652615 -102.47336 L 0.48147105 -102.47336 L 0.39620493 -83.341716 C 2.5502629 -82.718173 5.2712415 -82.066508 8.5590142 -81.38628 L 8.1337171 -77.304875 L -0.029092103 -77.304875 L -0.029092103 -62.084615 L -11.082681 -62.084615 L -11.082681 -77.304875 L -35.655858 -77.304875 L -36.33592 -80.36567 L -14.908804 -120.07436 z M -146.87336 -118.88373 L -142.70669 -118.88373 C -140.55263 -118.82705 -135.84808 -118.79847 -128.5923 -118.79847 C -121.0531 -118.79847 -116.14952 -118.82705 -113.88209 -118.88373 L -109.80069 -118.88373 L -108.10001 -115.22762 C -109.17704 -113.52705 -111.21778 -109.84261 -114.22212 -104.17404 C -117.22647 -98.505463 -120.06073 -92.496548 -122.72496 -86.147746 C -125.38919 -79.798944 -126.72162 -74.838719 -126.72162 -71.267517 C -126.72162 -68.433231 -125.72957 -66.307789 -123.74557 -64.890646 C -125.67289 -62.566531 -128.13871 -61.404554 -131.14305 -61.404554 C -133.92065 -61.404554 -136.07468 -62.169506 -137.60519 -63.700021 C -139.13571 -65.230536 -139.90066 -67.356494 -139.90066 -70.077409 C -139.90066 -73.478553 -139.07906 -77.077772 -137.43518 -80.875717 C -135.79129 -84.730347 -132.84373 -89.945728 -128.5923 -96.521273 L -118.55881 -111.9963 L -137.94522 -111.9963 C -138.73882 -109.44544 -139.22055 -106.44124 -139.39061 -102.98341 C -140.41095 -102.81335 -141.45964 -102.72813 -142.53667 -102.72813 C -143.67039 -102.72813 -144.77572 -102.81335 -145.85275 -102.98341 L -148.23348 -117.60836 L -146.87336 -118.88373 z M -94.580427 -101.28274 C -92.596426 -101.28274 -91.122649 -100.68772 -90.158991 -99.497319 C -89.138648 -98.363604 -88.628852 -96.776539 -88.628852 -94.735852 C -88.628852 -92.695166 -89.138648 -91.107584 -90.158991 -89.973869 C -91.122649 -88.840154 -92.596426 -88.273198 -94.580427 -88.273198 C -96.564427 -88.273198 -98.066785 -88.840154 -99.087128 -89.973869 C -100.05079 -91.16427 -100.53252 -92.751852 -100.53252 -94.735852 C -100.53252 -96.833225 -100.05079 -98.448354 -99.087128 -99.582068 C -98.066785 -100.71578 -96.564427 -101.28274 -94.580427 -101.28274 z M -94.580427 -74.498845 C -92.596426 -74.498845 -91.122649 -73.903824 -90.158991 -72.713424 C -89.138648 -71.579709 -88.628852 -69.992127 -88.628852 -67.951441 C -88.628852 -65.910754 -89.138648 -64.323689 -90.158991 -63.189974 C -91.122649 -62.05626 -92.596426 -61.489303 -94.580427 -61.489303 C -96.564427 -61.489303 -98.066785 -62.05626 -99.087128 -63.189974 C -100.05079 -64.380375 -100.53252 -65.96744 -100.53252 -67.951441 C -100.53252 -70.048813 -100.05079 -71.664459 -99.087128 -72.798173 C -98.066785 -73.931888 -96.564427 -74.498845 -94.580427 -74.498845 z " /></g></svg>
