<?xml version="1.0" encoding="UTF-8" standalone="no"?>
<!-- Created with Inkscape (http://www.inkscape.org/) -->

<svg
   width="172.6701mm"
   height="172.6701mm"
   viewBox="0 0 172.6701 172.6701"
   version="1.1"
   id="svg1"
   xml:space="preserve"
   xmlns="http://www.w3.org/2000/svg"
   xmlns:svg="http://www.w3.org/2000/svg"><defs
     id="defs1" /><g
     id="layer1"
     transform="translate(157.25102,198.81012)"><path
       id="path5"
       style="fill:#ffffff;fill-opacity:1;stroke-width:0.805188;stroke-linecap:round;stroke-linejoin:round"
       d="M -2.0863309 -198.17657 L -10.088943 -183.11289 L -10.930235 -165.68398 L -19.198981 -165.68398 L -11.423229 -155.47426 L -12.166336 -140.07934 C -28.353216 -157.12094 -50.823548 -166.77435 -74.327399 -166.78417 C -103.64471 -166.77397 -130.92652 -151.79225 -146.66717 -127.05894 L -157.25102 -127.05894 L -149.61996 -115.86014 L -157.25102 -26.140039 L -8.5138455 -26.140039 L 15.419061 -26.140039 L 8.0799737 -154.80195 L 15.419061 -165.68398 L 7.4593397 -165.68398 L 6.4490654 -183.39297 L -2.0863309 -198.17657 z M -83.43072 -192.21621 C -85.584619 -189.65499 -86.77489 -186.4211 -86.795372 -183.07465 C -86.842092 -175.15518 -80.459903 -168.69733 -72.540428 -168.65072 C -64.621155 -168.60402 -58.163395 -174.98588 -58.116503 -182.90515 C -58.102813 -186.26049 -59.266203 -189.5144 -61.404157 -192.10045 C -60.83125 -190.6836 -60.536835 -189.16959 -60.537027 -187.64129 C -60.575787 -181.07411 -65.930869 -175.78172 -72.498054 -175.82031 C -79.065241 -175.85911 -84.357627 -181.21415 -84.319038 -187.78134 C -84.309338 -189.30285 -84.007827 -190.80837 -83.43072 -192.21621 z M -60.526691 -120.07436 C -55.991833 -119.84761 -52.307389 -118.85557 -49.473103 -117.09831 L -69.709593 -83.767013 L -56.700568 -83.767013 L -55.849974 -97.626632 C -54.036031 -97.626632 -52.732185 -97.995076 -51.938585 -98.731991 C -51.088299 -99.468905 -50.436635 -100.71611 -49.983149 -102.47336 L -45.136416 -102.47336 L -45.221682 -83.341716 C -43.067625 -82.718173 -40.346646 -82.066508 -37.058873 -81.38628 L -37.48417 -77.304875 L -45.646463 -77.304875 L -45.646463 -62.084615 L -56.700568 -62.084615 L -56.700568 -77.304875 L -81.273745 -77.304875 L -81.953807 -80.36567 L -60.526691 -120.07436 z M -25.835269 -119.05375 L -21.583849 -118.969 C -15.575161 -118.85563 -12.400513 -118.79847 -12.060399 -118.79847 L 0.013799336 -118.969 L 2.4792819 -117.18306 L 1.713954 -110.72092 L -19.373131 -110.72092 L -20.563239 -96.521273 C -17.615581 -97.258188 -14.951246 -97.626632 -12.570445 -97.626632 C -6.9585577 -97.626632 -2.3953574 -96.124274 1.1191582 -93.11993 C 4.6903595 -90.172272 6.4759372 -85.836165 6.4759372 -80.110905 C 6.4759372 -76.539704 5.6257605 -73.336993 3.9251885 -70.502706 C 2.2813022 -67.66842 -0.099812547 -65.429173 -3.217528 -63.785287 C -6.3352434 -62.198086 -10.019687 -61.404554 -14.271117 -61.404554 C -17.728947 -61.404554 -20.875014 -61.886286 -23.7093 -62.849943 C -26.486901 -63.813601 -28.669504 -65.14551 -30.256704 -66.846082 C -31.843905 -68.60334 -32.637438 -70.559366 -32.637438 -72.713424 C -32.637438 -74.980853 -32.013837 -76.709787 -30.766751 -77.900188 C -29.519665 -79.147274 -27.989243 -79.770358 -26.1753 -79.770358 C -25.154957 -79.770358 -24.134331 -79.572362 -23.113988 -79.175562 C -22.036959 -78.778762 -21.073494 -78.211805 -20.223208 -77.474891 C -20.73338 -76.28449 -20.988536 -75.037289 -20.988536 -73.733517 C -20.988536 -71.862888 -20.45016 -70.332466 -19.373131 -69.142066 C -18.239416 -67.951665 -16.538546 -67.356645 -14.271117 -67.356645 C -9.1694007 -67.356645 -6.618354 -71.608045 -6.618354 -80.110905 C -6.618354 -84.135593 -7.4124034 -87.054567 -8.999604 -88.86851 C -10.586805 -90.73914 -12.712246 -91.674541 -15.376476 -91.674541 C -17.020362 -91.674541 -18.777876 -91.36274 -20.648505 -90.739197 C -22.519135 -90.115654 -24.361356 -89.236897 -26.1753 -88.103182 L -30.8515 -92.609884 L -28.640782 -116.75776 L -25.835269 -119.05375 z M -145.47034 -118.88373 L -141.30367 -118.88373 C -139.14962 -118.82705 -134.44506 -118.79847 -127.18929 -118.79847 C -119.65009 -118.79847 -114.74651 -118.82705 -112.47908 -118.88373 L -108.39767 -118.88373 L -106.697 -115.22762 C -107.77403 -113.52705 -109.81476 -109.84261 -112.81911 -104.17404 C -115.82345 -98.505463 -118.65772 -92.496548 -121.32195 -86.147746 C -123.98618 -79.798944 -125.3186 -74.838719 -125.3186 -71.267517 C -125.3186 -68.433231 -124.32656 -66.307789 -122.34256 -64.890646 C -124.26987 -62.566531 -126.73569 -61.404554 -129.74004 -61.404554 C -132.51764 -61.404554 -134.67166 -62.169506 -136.20218 -63.700021 C -137.73269 -65.230536 -138.49816 -67.356494 -138.49816 -70.077409 C -138.49816 -73.478553 -137.67605 -77.077772 -136.03216 -80.875717 C -134.38827 -84.730347 -131.44072 -89.945728 -127.18929 -96.521273 L -117.15579 -111.9963 L -136.54221 -111.9963 C -137.33581 -109.44544 -137.81754 -106.44124 -137.9876 -102.98341 C -139.00794 -102.81335 -140.05663 -102.72813 -141.13366 -102.72813 C -142.26737 -102.72813 -143.37271 -102.81335 -144.44973 -102.98341 L -146.83098 -117.60836 L -145.47034 -118.88373 z M -93.177928 -101.28274 C -91.193928 -101.28274 -89.72015 -100.68772 -88.756493 -99.497319 C -87.73615 -98.363604 -87.225837 -96.776539 -87.225837 -94.735852 C -87.225837 -92.695166 -87.73615 -91.107584 -88.756493 -89.973869 C -89.72015 -88.840154 -91.193928 -88.273198 -93.177928 -88.273198 C -95.161929 -88.273198 -96.66377 -88.840154 -97.684113 -89.973869 C -98.647771 -91.16427 -99.129503 -92.751852 -99.129503 -94.735852 C -99.129503 -96.833225 -98.647771 -98.448354 -97.684113 -99.582068 C -96.66377 -100.71578 -95.161929 -101.28274 -93.177928 -101.28274 z M -93.177928 -74.498845 C -91.193928 -74.498845 -89.72015 -73.903824 -88.756493 -72.713424 C -87.73615 -71.579709 -87.225837 -69.992127 -87.225837 -67.951441 C -87.225837 -65.910754 -87.73615 -64.323689 -88.756493 -63.189974 C -89.72015 -62.05626 -91.193928 -61.489303 -93.177928 -61.489303 C -95.161929 -61.489303 -96.66377 -62.05626 -97.684113 -63.189974 C -98.647771 -64.380375 -99.129503 -65.96744 -99.129503 -67.951441 C -99.129503 -70.048813 -98.647771 -71.664459 -97.684113 -72.798173 C -96.66377 -73.931888 -95.161929 -74.498845 -93.177928 -74.498845 z " /></g></svg>
