<?xml version="1.0" encoding="UTF-8" standalone="no"?>
<!-- Created with Inkscape (http://www.inkscape.org/) -->

<svg
   width="172.6701mm"
   height="172.6701mm"
   viewBox="0 0 172.6701 172.6701"
   version="1.1"
   id="svg1"
   xml:space="preserve"
   xmlns="http://www.w3.org/2000/svg"
   xmlns:svg="http://www.w3.org/2000/svg"><defs
     id="defs1" /><g
     id="layer1"
     transform="translate(157.25102,198.81012)"><path
       id="path5"
       style="fill:#ffffff;fill-opacity:1;stroke-width:0.805188;stroke-linecap:round;stroke-linejoin:round"
       d="M -2.0863309 -198.17657 L -10.088943 -183.11289 L -10.930235 -165.68398 L -19.198981 -165.68398 L -11.423229 -155.47426 L -12.166336 -140.07934 C -28.353216 -157.12094 -50.823548 -166.77435 -74.327399 -166.78417 C -103.64471 -166.77397 -130.92652 -151.79225 -146.66717 -127.05894 L -157.25102 -127.05894 L -149.61996 -115.86014 L -157.25102 -26.140039 L -8.5138455 -26.140039 L 15.419061 -26.140039 L 8.0799737 -154.80195 L 15.419061 -165.68398 L 7.4593397 -165.68398 L 6.4490654 -183.39297 L -2.0863309 -198.17657 z M -83.43072 -192.21621 C -85.584619 -189.65499 -86.77489 -186.4211 -86.795372 -183.07465 C -86.842092 -175.15518 -80.459903 -168.69733 -72.540428 -168.65072 C -64.621155 -168.60402 -58.163395 -174.98588 -58.116503 -182.90515 C -58.102813 -186.26049 -59.266203 -189.5144 -61.404157 -192.10045 C -60.83125 -190.6836 -60.536835 -189.16959 -60.537027 -187.64129 C -60.575787 -181.07411 -65.930869 -175.78172 -72.498054 -175.82031 C -79.065241 -175.85911 -84.357627 -181.21415 -84.319038 -187.78134 C -84.309338 -189.30285 -84.007827 -190.80837 -83.43072 -192.21621 z M -61.292019 -120.07436 C -56.757161 -119.84761 -53.072717 -118.85557 -50.23843 -117.09831 L -70.474921 -83.767013 L -57.465896 -83.767013 L -56.615302 -97.626632 C -54.801359 -97.626632 -53.497513 -97.995076 -52.703913 -98.731991 C -51.853627 -99.468905 -51.201963 -100.71611 -50.748477 -102.47336 L -45.901744 -102.47336 L -45.98701 -83.341716 C -43.832952 -82.718173 -41.111974 -82.066508 -37.824201 -81.38628 L -38.248981 -77.304875 L -46.411791 -77.304875 L -46.411791 -62.084615 L -57.465896 -62.084615 L -57.465896 -77.304875 L -82.039073 -77.304875 L -82.719135 -80.36567 L -61.292019 -120.07436 z M -1.3468411 -119.90383 L 0.69386118 -115.65241 C -10.756657 -110.72075 -17.643812 -103.12528 -19.967927 -92.865166 C -16.680154 -94.452366 -13.562667 -95.245899 -10.615009 -95.245899 C -4.9464358 -95.245899 -0.4965234 -93.715477 2.7345635 -90.654448 C 6.0223361 -87.593418 7.6660454 -83.455306 7.6660454 -78.240218 C 7.6660454 -75.009132 6.7878052 -72.118221 5.0305474 -69.567363 C 3.3299753 -67.016505 0.92079699 -65.032415 -2.1969184 -63.615271 C -5.2579481 -62.198128 -8.7724595 -61.489303 -12.740461 -61.489303 C -19.486063 -61.489303 -24.672864 -63.360105 -28.300751 -67.101363 C -31.871953 -70.842622 -33.65753 -76.255999 -33.65753 -83.341716 C -33.65753 -92.241376 -30.908488 -99.808775 -25.409972 -106.04421 C -19.85477 -112.33632 -11.833702 -116.95617 -1.3468411 -119.90383 z M -146.23567 -118.88373 L -142.069 -118.88373 C -139.91494 -118.82705 -135.21039 -118.79847 -127.95462 -118.79847 C -120.41541 -118.79847 -115.51183 -118.82705 -113.2444 -118.88373 L -109.163 -118.88373 L -107.46233 -115.22762 C -108.53936 -113.52705 -110.58009 -109.84261 -113.58443 -104.17404 C -116.58878 -98.505463 -119.42305 -92.496548 -122.08727 -86.147746 C -124.7515 -79.798944 -126.08393 -74.838719 -126.08393 -71.267517 C -126.08393 -68.433231 -125.09189 -66.307789 -123.10788 -64.890646 C -125.0352 -62.566531 -127.50102 -61.404554 -130.50537 -61.404554 C -133.28297 -61.404554 -135.43699 -62.169506 -136.9675 -63.700021 C -138.49802 -65.230536 -139.26297 -67.356494 -139.26297 -70.077409 C -139.26297 -73.478553 -138.44137 -77.077772 -136.79749 -80.875717 C -135.1536 -84.730347 -132.20605 -89.945728 -127.95462 -96.521273 L -117.92112 -111.9963 L -137.30753 -111.9963 C -138.10113 -109.44544 -138.58287 -106.44124 -138.75292 -102.98341 C -139.77327 -102.81335 -140.82196 -102.72813 -141.89899 -102.72813 C -143.0327 -102.72813 -144.13803 -102.81335 -145.21506 -102.98341 L -147.5958 -117.60836 L -146.23567 -118.88373 z M -93.94274 -101.28274 C -91.958739 -101.28274 -90.484962 -100.68772 -89.521304 -99.497319 C -88.500961 -98.363604 -87.991165 -96.776539 -87.991165 -94.735852 C -87.991165 -92.695166 -88.500961 -91.107584 -89.521304 -89.973869 C -90.484962 -88.840154 -91.958739 -88.273198 -93.94274 -88.273198 C -95.92674 -88.273198 -97.429098 -88.840154 -98.449441 -89.973869 C -99.413099 -91.16427 -99.894831 -92.751852 -99.894831 -94.735852 C -99.894831 -96.833225 -99.413099 -98.448354 -98.449441 -99.582068 C -97.429098 -100.71578 -95.92674 -101.28274 -93.94274 -101.28274 z M -12.995742 -89.293807 C -15.376543 -89.293807 -17.955654 -88.330343 -20.733255 -86.403028 L -20.733255 -85.297669 C -20.733255 -79.118924 -20.05301 -74.583787 -18.692552 -71.692814 C -17.332095 -68.801842 -15.178073 -67.356645 -12.230415 -67.356645 C -9.7929279 -67.356645 -7.9221259 -68.291529 -6.618354 -70.162159 C -5.3145821 -72.032788 -4.6629178 -74.697123 -4.6629178 -78.154952 C -4.6629178 -81.669468 -5.3998064 -84.390447 -6.8736356 -86.317762 C -8.2907789 -88.301762 -10.331513 -89.293807 -12.995742 -89.293807 z M -93.94274 -74.498845 C -91.958739 -74.498845 -90.484962 -73.903824 -89.521304 -72.713424 C -88.500961 -71.579709 -87.991165 -69.992127 -87.991165 -67.951441 C -87.991165 -65.910754 -88.500961 -64.323689 -89.521304 -63.189974 C -90.484962 -62.05626 -91.958739 -61.489303 -93.94274 -61.489303 C -95.92674 -61.489303 -97.429098 -62.05626 -98.449441 -63.189974 C -99.413099 -64.380375 -99.894831 -65.96744 -99.894831 -67.951441 C -99.894831 -70.048813 -99.413099 -71.664459 -98.449441 -72.798173 C -97.429098 -73.931888 -95.92674 -74.498845 -93.94274 -74.498845 z " /></g></svg>
