<?xml version="1.0" encoding="UTF-8" standalone="no"?>
<!-- Created with Inkscape (http://www.inkscape.org/) -->

<svg
   width="172.6701mm"
   height="172.6701mm"
   viewBox="0 0 172.6701 172.6701"
   version="1.1"
   id="svg1"
   xml:space="preserve"
   xmlns="http://www.w3.org/2000/svg"
   xmlns:svg="http://www.w3.org/2000/svg"><defs
     id="defs1" /><g
     id="layer1"
     transform="translate(157.25102,198.81012)"><path
       id="path5"
       style="fill:#ffffff;fill-opacity:1;stroke-width:0.805188;stroke-linecap:round;stroke-linejoin:round"
       d="M -2.0863309 -198.17657 L -10.088943 -183.11289 L -10.930235 -165.68398 L -19.198981 -165.68398 L -11.423229 -155.47426 L -12.166336 -140.07934 C -28.353216 -157.12094 -50.823548 -166.77435 -74.327399 -166.78417 C -103.64471 -166.77397 -130.92652 -151.79225 -146.66717 -127.05894 L -157.25102 -127.05894 L -149.61996 -115.86014 L -157.25102 -26.140039 L -8.5138455 -26.140039 L 15.419061 -26.140039 L 8.0799737 -154.80195 L 15.419061 -165.68398 L 7.4593397 -165.68398 L 6.4490654 -183.39297 L -2.0863309 -198.17657 z M -83.43072 -192.21621 C -85.584619 -189.65499 -86.77489 -186.4211 -86.795372 -183.07465 C -86.842092 -175.15518 -80.459903 -168.69733 -72.540428 -168.65072 C -64.621155 -168.60402 -58.163395 -174.98588 -58.116503 -182.90515 C -58.102813 -186.26049 -59.266203 -189.5144 -61.404157 -192.10045 C -60.83125 -190.6836 -60.536835 -189.16959 -60.537027 -187.64129 C -60.575787 -181.07411 -65.930869 -175.78172 -72.498054 -175.82031 C -79.065241 -175.85911 -84.357627 -181.21415 -84.319038 -187.78134 C -84.309338 -189.30285 -84.007827 -190.80837 -83.43072 -192.21621 z M -59.421333 -120.07436 C -54.886474 -119.84761 -51.20203 -118.85557 -48.367744 -117.09831 L -68.604235 -83.767013 L -55.595209 -83.767013 L -54.744615 -97.626632 C -52.930672 -97.626632 -51.626827 -97.995076 -50.833226 -98.731991 C -49.98294 -99.468905 -49.331276 -100.71611 -48.87779 -102.47336 L -44.031057 -102.47336 L -44.116324 -83.341716 C -41.962266 -82.718173 -39.241287 -82.066508 -35.953514 -81.38628 L -36.378295 -77.304875 L -44.541104 -77.304875 L -44.541104 -62.084615 L -55.595209 -62.084615 L -55.595209 -77.304875 L -80.168387 -77.304875 L -80.848448 -80.36567 L -59.421333 -120.07436 z M -144.36498 -118.88373 L -140.19831 -118.88373 C -138.04426 -118.82705 -133.3397 -118.79847 -126.08393 -118.79847 C -118.54473 -118.79847 -113.64115 -118.82705 -111.37372 -118.88373 L -107.29231 -118.88373 L -105.59164 -115.22762 C -106.66867 -113.52705 -108.7094 -109.84261 -111.71375 -104.17404 C -114.71809 -98.505463 -117.55236 -92.496548 -120.21659 -86.147746 C -122.88082 -79.798944 -124.21324 -74.838719 -124.21324 -71.267517 C -124.21324 -68.433231 -123.2212 -66.307789 -121.2372 -64.890646 C -123.16451 -62.566531 -125.63033 -61.404554 -128.63468 -61.404554 C -131.41228 -61.404554 -133.5663 -62.169506 -135.09682 -63.700021 C -136.62733 -65.230536 -137.39228 -67.356494 -137.39228 -70.077409 C -137.39228 -73.478553 -136.57069 -77.077772 -134.9268 -80.875717 C -133.28291 -84.730347 -130.33536 -89.945728 -126.08393 -96.521273 L -116.05043 -111.9963 L -135.43685 -111.9963 C -136.23045 -109.44544 -136.71218 -106.44124 -136.88224 -102.98341 C -137.90258 -102.81335 -138.95127 -102.72813 -140.0283 -102.72813 C -141.16201 -102.72813 -142.26735 -102.81335 -143.34438 -102.98341 L -145.72511 -117.60836 L -144.36498 -118.88373 z M -31.532079 -118.88373 L -27.365408 -118.88373 C -25.21135 -118.82705 -20.506798 -118.79847 -13.251024 -118.79847 C -5.7118213 -118.79847 -0.80824026 -118.82705 1.4591891 -118.88373 L 5.5405938 -118.88373 L 7.2412652 -115.22762 C 6.1642362 -113.52705 4.1235022 -109.84261 1.1191582 -104.17404 C -1.8851857 -98.505463 -4.7194524 -92.496548 -7.3836819 -86.147746 C -10.047911 -79.798944 -11.380337 -74.838719 -11.380337 -71.267517 C -11.380337 -68.433231 -10.388292 -66.307789 -8.4042915 -64.890646 C -10.331606 -62.566531 -12.797429 -61.404554 -15.801773 -61.404554 C -18.579374 -61.404554 -20.733396 -62.169506 -22.263911 -63.700021 C -23.794425 -65.230536 -24.559378 -67.356494 -24.559378 -70.077409 C -24.559378 -73.478553 -23.737781 -77.077772 -22.093895 -80.875717 C -20.450009 -84.730347 -17.502454 -89.945728 -13.251024 -96.521273 L -3.217528 -111.9963 L -22.603942 -111.9963 C -23.397542 -109.44544 -23.879274 -106.44124 -24.049331 -102.98341 C -25.069675 -102.81335 -26.118364 -102.72813 -27.195393 -102.72813 C -28.329107 -102.72813 -29.43444 -102.81335 -30.511469 -102.98341 L -32.892202 -117.60836 L -31.532079 -118.88373 z M -92.072569 -101.28274 C -90.088569 -101.28274 -88.614275 -100.68772 -87.650617 -99.497319 C -86.630274 -98.363604 -86.120478 -96.776539 -86.120478 -94.735852 C -86.120478 -92.695166 -86.630274 -91.107584 -87.650617 -89.973869 C -88.614275 -88.840154 -90.088569 -88.273198 -92.072569 -88.273198 C -94.05657 -88.273198 -95.558411 -88.840154 -96.578754 -89.973869 C -97.542412 -91.16427 -98.024144 -92.751852 -98.024144 -94.735852 C -98.024144 -96.833225 -97.542412 -98.448354 -96.578754 -99.582068 C -95.558411 -100.71578 -94.05657 -101.28274 -92.072569 -101.28274 z M -92.072569 -74.498845 C -90.088569 -74.498845 -88.614275 -73.903824 -87.650617 -72.713424 C -86.630274 -71.579709 -86.120478 -69.992127 -86.120478 -67.951441 C -86.120478 -65.910754 -86.630274 -64.323689 -87.650617 -63.189974 C -88.614275 -62.05626 -90.088569 -61.489303 -92.072569 -61.489303 C -94.05657 -61.489303 -95.558411 -62.05626 -96.578754 -63.189974 C -97.542412 -64.380375 -98.024144 -65.96744 -98.024144 -67.951441 C -98.024144 -70.048813 -97.542412 -71.664459 -96.578754 -72.798173 C -95.558411 -73.931888 -94.05657 -74.498845 -92.072569 -74.498845 z " /></g></svg>
