<?xml version="1.0" encoding="UTF-8" standalone="no"?>
<!-- Created with Inkscape (http://www.inkscape.org/) -->

<svg
   width="172.6701mm"
   height="172.6701mm"
   viewBox="0 0 172.6701 172.6701"
   version="1.1"
   id="svg1"
   xml:space="preserve"
   xmlns="http://www.w3.org/2000/svg"
   xmlns:svg="http://www.w3.org/2000/svg"><defs
     id="defs1" /><g
     id="layer1"
     transform="translate(157.25102,198.81012)"><path
       id="path5"
       style="fill:#ffffff;fill-opacity:1;stroke-width:0.805188;stroke-linecap:round;stroke-linejoin:round"
       d="M -2.0863309 -198.17657 L -10.088943 -183.11289 L -10.930235 -165.68398 L -19.198981 -165.68398 L -11.423229 -155.47426 L -12.166336 -140.07934 C -28.353216 -157.12094 -50.823548 -166.77435 -74.327399 -166.78417 C -103.64471 -166.77397 -130.92652 -151.79225 -146.66717 -127.05894 L -157.25102 -127.05894 L -149.61996 -115.86014 L -157.25102 -26.140039 L -8.5138455 -26.140039 L 15.419061 -26.140039 L 8.0799737 -154.80195 L 15.419061 -165.68398 L 7.4593397 -165.68398 L 6.4490654 -183.39297 L -2.0863309 -198.17657 z M -83.43072 -192.21621 C -85.584619 -189.65499 -86.77489 -186.4211 -86.795372 -183.07465 C -86.842092 -175.15518 -80.459903 -168.69733 -72.540428 -168.65072 C -64.621155 -168.60402 -58.163395 -174.98588 -58.116503 -182.90515 C -58.102813 -186.26049 -59.266203 -189.5144 -61.404157 -192.10045 C -60.83125 -190.6836 -60.536835 -189.16959 -60.537027 -187.64129 C -60.575787 -181.07411 -65.930869 -175.78172 -72.498054 -175.82031 C -79.065241 -175.85911 -84.357627 -181.21415 -84.319038 -187.78134 C -84.309338 -189.30285 -84.007827 -190.80837 -83.43072 -192.21621 z M -14.271117 -119.64906 C -7.6388858 -119.64906 -2.5653728 -117.15466 0.94914276 -112.16631 C 4.5203441 -107.23465 6.3059217 -100.06428 6.3059217 -90.654448 C 6.3059217 -81.244616 4.5203441 -74.017081 0.94914276 -68.97205 C -2.5653728 -63.983706 -7.6388858 -61.489303 -14.271117 -61.489303 C -20.903348 -61.489303 -26.004924 -63.983706 -29.576126 -68.97205 C -33.147327 -74.017081 -34.932905 -81.244616 -34.932905 -90.654448 C -34.932905 -100.00759 -33.147327 -107.17797 -29.576126 -112.16631 C -26.004924 -117.15466 -20.903348 -119.64906 -14.271117 -119.64906 z M -72.005577 -119.05375 L -67.754157 -118.969 C -61.745469 -118.85563 -58.571339 -118.79847 -58.231224 -118.79847 L -46.157026 -118.969 L -43.691027 -117.18306 L -44.456354 -110.72092 L -65.543439 -110.72092 L -66.734064 -96.521273 C -63.786406 -97.258188 -61.122072 -97.626632 -58.741271 -97.626632 C -53.129383 -97.626632 -48.566183 -96.124274 -45.051667 -93.11993 C -41.480466 -90.172272 -39.694888 -85.836165 -39.694888 -80.110905 C -39.694888 -76.539704 -40.545065 -73.336993 -42.245637 -70.502706 C -43.889523 -67.66842 -46.270121 -65.429173 -49.387836 -63.785287 C -52.505552 -62.198086 -56.190512 -61.404554 -60.441942 -61.404554 C -63.899772 -61.404554 -67.045839 -61.886286 -69.880126 -62.849943 C -72.657727 -63.813601 -74.839812 -65.14551 -76.427013 -66.846082 C -78.014213 -68.60334 -78.807746 -70.559366 -78.807746 -72.713424 C -78.807746 -74.980853 -78.184145 -76.709787 -76.937059 -77.900188 C -75.689973 -79.147274 -74.159552 -79.770358 -72.345608 -79.770358 C -71.325265 -79.770358 -70.305156 -79.572362 -69.284813 -79.175562 C -68.207784 -78.778762 -67.243803 -78.211805 -66.393517 -77.474891 C -66.903688 -76.28449 -67.158845 -75.037289 -67.158845 -73.733517 C -67.158845 -71.862888 -66.620468 -70.332466 -65.543439 -69.142066 C -64.409725 -67.951665 -62.709371 -67.356645 -60.441942 -67.356645 C -55.340226 -67.356645 -52.789179 -71.608045 -52.789179 -80.110905 C -52.789179 -84.135593 -53.582712 -87.054567 -55.169912 -88.86851 C -56.757113 -90.73914 -58.883071 -91.674541 -61.547301 -91.674541 C -63.191187 -91.674541 -64.948185 -91.36274 -66.818814 -90.739197 C -68.689443 -90.115654 -70.531665 -89.236897 -72.345608 -88.103182 L -77.022325 -92.609884 L -74.811608 -116.75776 L -72.005577 -119.05375 z M -144.62027 -118.88373 L -140.4536 -118.88373 C -138.29954 -118.82705 -133.59447 -118.79847 -126.33869 -118.79847 C -118.79949 -118.79847 -113.89643 -118.82705 -111.629 -118.88373 L -107.54759 -118.88373 L -105.84692 -115.22762 C -106.92395 -113.52705 -108.96469 -109.84261 -111.96903 -104.17404 C -114.97337 -98.505463 -117.80764 -92.496548 -120.47187 -86.147746 C -123.1361 -79.798944 -124.46852 -74.838719 -124.46852 -71.267517 C -124.46852 -68.433231 -123.47648 -66.307789 -121.49248 -64.890646 C -123.41979 -62.566531 -125.88562 -61.404554 -128.88996 -61.404554 C -131.66756 -61.404554 -133.82158 -62.169506 -135.3521 -63.700021 C -136.88261 -65.230536 -137.64757 -67.356494 -137.64757 -70.077409 C -137.64757 -73.478553 -136.82597 -77.077772 -135.18208 -80.875717 C -133.5382 -84.730347 -130.59013 -89.945728 -126.33869 -96.521273 L -116.30572 -111.9963 L -135.69213 -111.9963 C -136.48573 -109.44544 -136.96746 -106.44124 -137.13752 -102.98341 C -138.15786 -102.81335 -139.20655 -102.72813 -140.28358 -102.72813 C -141.41729 -102.72813 -142.52263 -102.81335 -143.59966 -102.98341 L -145.98039 -117.60836 L -144.62027 -118.88373 z M -14.271117 -115.31237 C -17.162089 -115.31237 -19.259467 -113.41351 -20.563239 -109.61556 C -21.810325 -105.81762 -22.433926 -99.497422 -22.433926 -90.654448 C -22.433926 -81.868159 -21.810325 -75.576025 -20.563239 -71.778081 C -19.259467 -68.036822 -17.162089 -66.16602 -14.271117 -66.16602 C -11.380144 -66.16602 -9.3113467 -68.036822 -8.0642606 -71.778081 C -6.7604887 -75.576025 -6.1083076 -81.868159 -6.1083076 -90.654448 C -6.1083076 -99.440737 -6.7604887 -105.73287 -8.0642606 -109.53081 C -9.3113467 -113.38544 -11.380144 -115.31237 -14.271117 -115.31237 z M -92.327334 -101.28274 C -90.343334 -101.28274 -88.869556 -100.68772 -87.905899 -99.497319 C -86.885556 -98.363604 -86.37576 -96.776539 -86.37576 -94.735852 C -86.37576 -92.695166 -86.885556 -91.107584 -87.905899 -89.973869 C -88.869556 -88.840154 -90.343334 -88.273198 -92.327334 -88.273198 C -94.311335 -88.273198 -95.813693 -88.840154 -96.834036 -89.973869 C -97.797693 -91.16427 -98.279426 -92.751852 -98.279426 -94.735852 C -98.279426 -96.833225 -97.797693 -98.448354 -96.834036 -99.582068 C -95.813693 -100.71578 -94.311335 -101.28274 -92.327334 -101.28274 z M -92.327334 -74.498845 C -90.343334 -74.498845 -88.869556 -73.903824 -87.905899 -72.713424 C -86.885556 -71.579709 -86.37576 -69.992127 -86.37576 -67.951441 C -86.37576 -65.910754 -86.885556 -64.323689 -87.905899 -63.189974 C -88.869556 -62.05626 -90.343334 -61.489303 -92.327334 -61.489303 C -94.311335 -61.489303 -95.813693 -62.05626 -96.834036 -63.189974 C -97.797693 -64.380375 -98.279426 -65.96744 -98.279426 -67.951441 C -98.279426 -70.048813 -97.797693 -71.664459 -96.834036 -72.798173 C -95.813693 -73.931888 -94.311335 -74.498845 -92.327334 -74.498845 z " /></g></svg>
