<?xml version="1.0" encoding="UTF-8" standalone="no"?>
<!-- Created with Inkscape (http://www.inkscape.org/) -->

<svg
   width="172.6701mm"
   height="172.6701mm"
   viewBox="0 0 172.6701 172.6701"
   version="1.1"
   id="svg1"
   xml:space="preserve"
   xmlns="http://www.w3.org/2000/svg"
   xmlns:svg="http://www.w3.org/2000/svg"><defs
     id="defs1" /><g
     id="layer1"
     transform="translate(157.25102,198.81012)"><path
       id="path5"
       style="fill:#ffffff;fill-opacity:1;stroke-width:0.805188;stroke-linecap:round;stroke-linejoin:round"
       d="M -2.0863309 -198.17657 L -10.088943 -183.11289 L -10.930235 -165.68398 L -19.198981 -165.68398 L -11.423229 -155.47426 L -12.166336 -140.07934 C -28.353216 -157.12094 -50.823548 -166.77435 -74.327399 -166.78417 C -103.64471 -166.77397 -130.92652 -151.79225 -146.66717 -127.05894 L -157.25102 -127.05894 L -149.61996 -115.86014 L -157.25102 -26.140039 L -8.5138455 -26.140039 L 15.419061 -26.140039 L 8.0799737 -154.80195 L 15.419061 -165.68398 L 7.4593397 -165.68398 L 6.4490654 -183.39297 L -2.0863309 -198.17657 z M -83.43072 -192.21621 C -85.584619 -189.65499 -86.77489 -186.4211 -86.795372 -183.07465 C -86.842092 -175.15518 -80.459903 -168.69733 -72.540428 -168.65072 C -64.621155 -168.60402 -58.163395 -174.98588 -58.116503 -182.90515 C -58.102813 -186.26049 -59.266203 -189.5144 -61.404157 -192.10045 C -60.83125 -190.6836 -60.536835 -189.16959 -60.537027 -187.64129 C -60.575787 -181.07411 -65.930869 -175.78172 -72.498054 -175.82031 C -79.065241 -175.85911 -84.357627 -181.21415 -84.319038 -187.78134 C -84.309338 -189.30285 -84.007827 -190.80837 -83.43072 -192.21621 z M -10.317353 -119.13901 L -7.5113227 -117.86364 L -7.5113227 -68.716769 C -6.4342938 -68.093226 -4.7339405 -67.526269 -2.4098253 -67.016097 C -0.085710201 -66.562611 1.7565115 -66.279392 3.1169691 -66.16602 L 2.8622043 -62.084615 L -31.829735 -62.084615 L -31.65972 -66.16602 C -26.614689 -66.732877 -22.759797 -67.583054 -20.095568 -68.716769 L -20.095568 -109.44555 L -31.489187 -109.44555 L -31.489187 -114.37703 C -27.8613 -114.66046 -24.120213 -115.19935 -20.265583 -115.99295 C -16.410953 -116.84324 -13.094954 -117.89193 -10.317353 -119.13901 z M -68.817141 -119.05375 L -64.565721 -118.969 C -58.557033 -118.85563 -55.382386 -118.79847 -55.042272 -118.79847 L -42.968073 -118.969 L -40.502591 -117.18306 L -41.267919 -110.72092 L -62.355004 -110.72092 L -63.545112 -96.521273 C -60.597454 -97.258188 -57.933119 -97.626632 -55.552318 -97.626632 C -49.94043 -97.626632 -45.37723 -96.124274 -41.862714 -93.11993 C -38.291513 -90.172272 -36.505935 -85.836165 -36.505935 -80.110905 C -36.505935 -76.539704 -37.356629 -73.336993 -39.057201 -70.502706 C -40.701087 -67.66842 -43.081685 -65.429173 -46.199401 -63.785287 C -49.317116 -62.198086 -53.001559 -61.404554 -57.252989 -61.404554 C -60.710819 -61.404554 -63.856886 -61.886286 -66.691173 -62.849943 C -69.468774 -63.813601 -71.651376 -65.14551 -73.238577 -66.846082 C -74.825778 -68.60334 -75.61931 -70.559366 -75.61931 -72.713424 C -75.61931 -74.980853 -74.99571 -76.709787 -73.748623 -77.900188 C -72.501537 -79.147274 -70.971116 -79.770358 -69.157172 -79.770358 C -68.136829 -79.770358 -67.116204 -79.572362 -66.09586 -79.175562 C -65.018832 -78.778762 -64.055367 -78.211805 -63.205081 -77.474891 C -63.715252 -76.28449 -63.970409 -75.037289 -63.970409 -73.733517 C -63.970409 -71.862888 -63.432033 -70.332466 -62.355004 -69.142066 C -61.221289 -67.951665 -59.520419 -67.356645 -57.252989 -67.356645 C -52.151273 -67.356645 -49.600743 -71.608045 -49.600743 -80.110905 C -49.600743 -84.135593 -50.394276 -87.054567 -51.981477 -88.86851 C -53.568677 -90.73914 -55.694119 -91.674541 -58.358348 -91.674541 C -60.002235 -91.674541 -61.759749 -91.36274 -63.630378 -90.739197 C -65.501007 -90.115654 -67.343229 -89.236897 -69.157172 -88.103182 L -73.833889 -92.609884 L -71.623172 -116.75776 L -68.817141 -119.05375 z M -141.43131 -118.88373 L -137.26516 -118.88373 C -135.1111 -118.82705 -130.40603 -118.79847 -123.15026 -118.79847 C -115.61106 -118.79847 -110.70799 -118.82705 -108.44056 -118.88373 L -104.35916 -118.88373 L -102.65849 -115.22762 C -103.73552 -113.52705 -105.77625 -109.84261 -108.78059 -104.17404 C -111.78494 -98.505463 -114.6192 -92.496548 -117.28343 -86.147746 C -119.94766 -79.798944 -121.27957 -74.838719 -121.27957 -71.267517 C -121.27957 -68.433231 -120.28753 -66.307789 -118.30353 -64.890646 C -120.23084 -62.566531 -122.69666 -61.404554 -125.70101 -61.404554 C -128.47861 -61.404554 -130.63263 -62.169506 -132.16315 -63.700021 C -133.69366 -65.230536 -134.45913 -67.356494 -134.45913 -70.077409 C -134.45913 -73.478553 -133.63702 -77.077772 -131.99313 -80.875717 C -130.34924 -84.730347 -127.40169 -89.945728 -123.15026 -96.521273 L -113.11676 -111.9963 L -132.50369 -111.9963 C -133.29729 -109.44544 -133.77903 -106.44124 -133.94908 -102.98341 C -134.96943 -102.81335 -136.01812 -102.72813 -137.09514 -102.72813 C -138.22886 -102.72813 -139.33419 -102.81335 -140.41122 -102.98341 L -142.79195 -117.60836 L -141.43131 -118.88373 z M -89.138898 -101.28274 C -87.154898 -101.28274 -85.68112 -100.68772 -84.717463 -99.497319 C -83.69712 -98.363604 -83.186807 -96.776539 -83.186807 -94.735852 C -83.186807 -92.695166 -83.69712 -91.107584 -84.717463 -89.973869 C -85.68112 -88.840154 -87.154898 -88.273198 -89.138898 -88.273198 C -91.122899 -88.273198 -92.625257 -88.840154 -93.6456 -89.973869 C -94.609258 -91.16427 -95.09099 -92.751852 -95.09099 -94.735852 C -95.09099 -96.833225 -94.609258 -98.448354 -93.6456 -99.582068 C -92.625257 -100.71578 -91.122899 -101.28274 -89.138898 -101.28274 z M -89.138898 -74.498845 C -87.154898 -74.498845 -85.68112 -73.903824 -84.717463 -72.713424 C -83.69712 -71.579709 -83.186807 -69.992127 -83.186807 -67.951441 C -83.186807 -65.910754 -83.69712 -64.323689 -84.717463 -63.189974 C -85.68112 -62.05626 -87.154898 -61.489303 -89.138898 -61.489303 C -91.122899 -61.489303 -92.625257 -62.05626 -93.6456 -63.189974 C -94.609258 -64.380375 -95.09099 -65.96744 -95.09099 -67.951441 C -95.09099 -70.048813 -94.609258 -71.664459 -93.6456 -72.798173 C -92.625257 -73.931888 -91.122899 -74.498845 -89.138898 -74.498845 z " /></g></svg>
