<?xml version="1.0" encoding="UTF-8" standalone="no"?>
<!-- Created with Inkscape (http://www.inkscape.org/) -->

<svg
   width="172.6701mm"
   height="172.6701mm"
   viewBox="0 0 172.6701 172.6701"
   version="1.1"
   id="svg1"
   xml:space="preserve"
   xmlns="http://www.w3.org/2000/svg"
   xmlns:svg="http://www.w3.org/2000/svg"><defs
     id="defs1" /><g
     id="layer1"
     transform="translate(157.25102,198.81012)"><path
       id="path5"
       style="fill:#ffffff;fill-opacity:1;stroke-width:0.805188;stroke-linecap:round;stroke-linejoin:round"
       d="M -2.0863309 -198.17657 L -10.088943 -183.11289 L -10.930235 -165.68398 L -19.198981 -165.68398 L -11.423229 -155.47426 L -12.166336 -140.07934 C -28.353216 -157.12094 -50.823548 -166.77435 -74.327399 -166.78417 C -103.64471 -166.77397 -130.92652 -151.79225 -146.66717 -127.05894 L -157.25102 -127.05894 L -149.61996 -115.86014 L -157.25102 -26.140039 L -8.5138455 -26.140039 L 15.419061 -26.140039 L 8.0799737 -154.80195 L 15.419061 -165.68398 L 7.4593397 -165.68398 L 6.4490654 -183.39297 L -2.0863309 -198.17657 z M -83.43072 -192.21621 C -85.584619 -189.65499 -86.77489 -186.4211 -86.795372 -183.07465 C -86.842092 -175.15518 -80.459903 -168.69733 -72.540428 -168.65072 C -64.621155 -168.60402 -58.163395 -174.98588 -58.116503 -182.90515 C -58.102813 -186.26049 -59.266203 -189.5144 -61.404157 -192.10045 C -60.83125 -190.6836 -60.536835 -189.16959 -60.537027 -187.64129 C -60.575787 -181.07411 -65.930869 -175.78172 -72.498054 -175.82031 C -79.065241 -175.85911 -84.357627 -181.21415 -84.319038 -187.78134 C -84.309338 -189.30285 -84.007827 -190.80837 -83.43072 -192.21621 z M -14.951179 -119.73381 C -9.112548 -119.73381 -4.46464 -118.28861 -1.0068102 -115.39764 C 2.4510196 -112.56335 4.1799533 -108.56711 4.1799533 -103.40871 C 4.1799533 -98.873849 2.4510196 -94.026912 -1.0068102 -88.86851 C -4.46464 -83.766794 -10.161237 -77.616529 -18.09724 -70.41744 L 4.7752658 -70.41744 L 4.7752658 -62.084615 L -33.742797 -62.084615 L -33.742797 -67.016097 C -27.45068 -73.081471 -22.547099 -78.268272 -19.032583 -82.576388 C -15.518068 -86.884504 -12.995601 -90.852684 -11.465087 -94.480571 C -9.877886 -98.108458 -9.0843533 -101.84955 -9.0843533 -105.70418 C -9.0843533 -111.82623 -11.125087 -114.88759 -15.20646 -114.88759 C -17.020404 -114.88759 -18.494181 -114.0369 -19.627896 -112.33633 C -20.761611 -110.69244 -21.328567 -108.65171 -21.328567 -106.21422 C -21.328567 -104.51365 -20.733547 -102.89852 -19.543146 -101.36801 C -20.506804 -100.46103 -21.612137 -99.752209 -22.859223 -99.242037 C -24.049624 -98.731866 -25.239664 -98.476709 -26.430065 -98.476709 C -28.470751 -98.476709 -30.171621 -99.10031 -31.532079 -100.3474 C -32.892536 -101.65117 -33.572781 -103.52197 -33.572781 -105.95946 C -33.572781 -108.567 -32.807312 -110.91953 -31.276797 -113.01691 C -29.746282 -115.11428 -27.59226 -116.75799 -24.814659 -117.94839 C -21.980373 -119.13879 -18.692437 -119.73381 -14.951179 -119.73381 z M -70.900218 -119.05375 L -66.648798 -118.969 C -60.64011 -118.85563 -57.465463 -118.79847 -57.125349 -118.79847 L -45.051667 -118.969 L -42.585668 -117.18306 L -43.350996 -110.72092 L -64.438081 -110.72092 L -65.628189 -96.521273 C -62.680531 -97.258188 -60.016713 -97.626632 -57.635912 -97.626632 C -52.024024 -97.626632 -47.460824 -96.124274 -43.946308 -93.11993 C -40.375107 -90.172272 -38.589529 -85.836165 -38.589529 -80.110905 C -38.589529 -76.539704 -39.439706 -73.336993 -41.140278 -70.502706 C -42.784164 -67.66842 -45.164762 -65.429173 -48.282478 -63.785287 C -51.400193 -62.198086 -55.085153 -61.404554 -59.336583 -61.404554 C -62.794413 -61.404554 -65.939963 -61.886286 -68.77425 -62.849943 C -71.551851 -63.813601 -73.734453 -65.14551 -75.321654 -66.846082 C -76.908855 -68.60334 -77.702387 -70.559366 -77.702387 -72.713424 C -77.702387 -74.980853 -77.078787 -76.709787 -75.8317 -77.900188 C -74.584614 -79.147274 -73.054193 -79.770358 -71.240249 -79.770358 C -70.219906 -79.770358 -69.199797 -79.572362 -68.179454 -79.175562 C -67.102425 -78.778762 -66.138444 -78.211805 -65.288158 -77.474891 C -65.798329 -76.28449 -66.053486 -75.037289 -66.053486 -73.733517 C -66.053486 -71.862888 -65.51511 -70.332466 -64.438081 -69.142066 C -63.304366 -67.951665 -61.604013 -67.356645 -59.336583 -67.356645 C -54.234867 -67.356645 -51.68382 -71.608045 -51.68382 -80.110905 C -51.68382 -84.135593 -52.477353 -87.054567 -54.064554 -88.86851 C -55.651754 -90.73914 -57.777712 -91.674541 -60.441942 -91.674541 C -62.085828 -91.674541 -63.842826 -91.36274 -65.713455 -90.739197 C -67.584084 -90.115654 -69.426306 -89.236897 -71.240249 -88.103182 L -75.916966 -92.609884 L -73.706249 -116.75776 L -70.900218 -119.05375 z M -143.51491 -118.88373 L -139.34824 -118.88373 C -137.19418 -118.82705 -132.48911 -118.79847 -125.23334 -118.79847 C -117.69413 -118.79847 -112.79107 -118.82705 -110.52364 -118.88373 L -106.44224 -118.88373 L -104.74156 -115.22762 C -105.81859 -113.52705 -107.85933 -109.84261 -110.86367 -104.17404 C -113.86801 -98.505463 -116.70228 -92.496548 -119.36651 -86.147746 C -122.03074 -79.798944 -123.36265 -74.838719 -123.36265 -71.267517 C -123.36265 -68.433231 -122.37112 -66.307789 -120.38712 -64.890646 C -122.31444 -62.566531 -124.78026 -61.404554 -127.7846 -61.404554 C -130.5622 -61.404554 -132.71622 -62.169506 -134.24674 -63.700021 C -135.77725 -65.230536 -136.54221 -67.356494 -136.54221 -70.077409 C -136.54221 -73.478553 -135.72061 -77.077772 -134.07672 -80.875717 C -132.43284 -84.730347 -129.48477 -89.945728 -125.23334 -96.521273 L -115.20036 -111.9963 L -134.58677 -111.9963 C -135.38037 -109.44544 -135.8621 -106.44124 -136.03216 -102.98341 C -137.0525 -102.81335 -138.10119 -102.72813 -139.17822 -102.72813 C -140.31194 -102.72813 -141.41727 -102.81335 -142.4943 -102.98341 L -144.87503 -117.60836 L -143.51491 -118.88373 z M -91.221975 -101.28274 C -89.237975 -101.28274 -87.764197 -100.68772 -86.80054 -99.497319 C -85.780197 -98.363604 -85.269884 -96.776539 -85.269884 -94.735852 C -85.269884 -92.695166 -85.780197 -91.107584 -86.80054 -89.973869 C -87.764197 -88.840154 -89.237975 -88.273198 -91.221975 -88.273198 C -93.205976 -88.273198 -94.708334 -88.840154 -95.728677 -89.973869 C -96.692335 -91.16427 -97.174067 -92.751852 -97.174067 -94.735852 C -97.174067 -96.833225 -96.692335 -98.448354 -95.728677 -99.582068 C -94.708334 -100.71578 -93.205976 -101.28274 -91.221975 -101.28274 z M -91.221975 -74.498845 C -89.237975 -74.498845 -87.764197 -73.903824 -86.80054 -72.713424 C -85.780197 -71.579709 -85.269884 -69.992127 -85.269884 -67.951441 C -85.269884 -65.910754 -85.780197 -64.323689 -86.80054 -63.189974 C -87.764197 -62.05626 -89.237975 -61.489303 -91.221975 -61.489303 C -93.205976 -61.489303 -94.708334 -62.05626 -95.728677 -63.189974 C -96.692335 -64.380375 -97.174067 -65.96744 -97.174067 -67.951441 C -97.174067 -70.048813 -96.692335 -71.664459 -95.728677 -72.798173 C -94.708334 -73.931888 -93.205976 -74.498845 -91.221975 -74.498845 z " /></g></svg>
