<?xml version="1.0" encoding="UTF-8" standalone="no"?>
<!-- Created with Inkscape (http://www.inkscape.org/) -->

<svg
   width="172.6701mm"
   height="172.6701mm"
   viewBox="0 0 172.6701 172.6701"
   version="1.1"
   id="svg1"
   xml:space="preserve"
   xmlns="http://www.w3.org/2000/svg"
   xmlns:svg="http://www.w3.org/2000/svg"><defs
     id="defs1" /><g
     id="layer1"
     transform="translate(157.25102,198.81012)"><path
       id="path5"
       style="fill:#ffffff;fill-opacity:1;stroke-width:0.805188;stroke-linecap:round;stroke-linejoin:round"
       d="M -2.0863309 -198.17657 L -10.088943 -183.11289 L -10.930235 -165.68398 L -19.198981 -165.68398 L -11.423229 -155.47426 L -12.166336 -140.07934 C -28.353216 -157.12094 -50.823548 -166.77435 -74.327399 -166.78417 C -103.64471 -166.77397 -130.92652 -151.79225 -146.66717 -127.05894 L -157.25102 -127.05894 L -149.61996 -115.86014 L -157.25102 -26.140039 L -8.5138455 -26.140039 L 15.419061 -26.140039 L 8.0799737 -154.80195 L 15.419061 -165.68398 L 7.4593397 -165.68398 L 6.4490654 -183.39297 L -2.0863309 -198.17657 z M -83.43072 -192.21621 C -85.584619 -189.65499 -86.77489 -186.4211 -86.795372 -183.07465 C -86.842092 -175.15518 -80.459903 -168.69733 -72.540428 -168.65072 C -64.621155 -168.60402 -58.163395 -174.98588 -58.116503 -182.90515 C -58.102813 -186.26049 -59.266203 -189.5144 -61.404157 -192.10045 C -60.83125 -190.6836 -60.536835 -189.16959 -60.537027 -187.64129 C -60.575787 -181.07411 -65.930869 -175.78172 -72.498054 -175.82031 C -79.065241 -175.85911 -84.357627 -181.21415 -84.319038 -187.78134 C -84.309338 -189.30285 -84.007827 -190.80837 -83.43072 -192.21621 z M -15.334101 -119.73381 C -11.649528 -119.73381 -8.3901733 -119.11073 -5.5558865 -117.86364 C -2.7215998 -116.67324 -0.51041703 -114.97237 1.0767835 -112.76163 C 2.6639841 -110.60757 3.4575168 -108.11368 3.4575168 -105.27939 C 3.4575168 -102.10499 2.5221158 -99.384015 0.65148651 -97.116586 C -1.2191427 -94.849156 -3.9967654 -93.120223 -7.6813382 -91.929822 C -3.0331079 -90.909479 0.22624706 -89.237189 2.0968763 -86.913074 C 3.9675056 -84.588959 4.9029066 -81.442892 4.9029066 -77.474891 C 4.9029066 -74.017061 3.8542176 -71.069506 1.7568454 -68.632019 C -0.28384107 -66.194533 -2.9481758 -64.380375 -6.2359484 -63.189974 C -9.523721 -61.999574 -12.924944 -61.404554 -16.43946 -61.404554 C -21.541176 -61.404554 -25.877284 -62.453243 -29.448485 -64.550615 C -32.963001 -66.647987 -34.720515 -69.510317 -34.720515 -73.138204 C -34.720515 -75.235577 -34.096914 -76.851222 -32.849828 -77.984937 C -31.602742 -79.175337 -30.04374 -79.770358 -28.173111 -79.770358 C -26.245796 -79.770358 -24.290286 -79.005405 -22.306285 -77.474891 C -22.816457 -76.397862 -23.071613 -75.094016 -23.071613 -73.563501 C -23.071613 -71.749558 -22.533237 -70.275781 -21.456208 -69.142066 C -20.322493 -68.008351 -18.650204 -67.441394 -16.43946 -67.441394 C -11.564487 -67.441394 -9.126728 -70.814037 -9.126728 -77.55964 C -9.126728 -81.244213 -10.317285 -84.10706 -12.698086 -86.147746 C -15.022201 -88.188433 -18.3382 -89.208541 -22.646316 -89.208541 L -22.646316 -94.480571 C -14.313513 -95.1608 -10.147338 -98.760535 -10.147338 -105.27939 C -10.147338 -108.56717 -10.657133 -110.97583 -11.677477 -112.50634 C -12.69782 -114.09354 -14.08689 -114.88759 -15.844147 -114.88759 C -17.94152 -114.88759 -19.528585 -114.15071 -20.605614 -112.67688 C -21.625957 -111.20305 -22.13627 -109.41747 -22.13627 -107.3201 C -22.13627 -105.44947 -21.739245 -103.77718 -20.945645 -102.30335 C -22.532845 -100.60278 -24.573579 -99.752084 -27.067752 -99.752084 C -29.335181 -99.752084 -31.092695 -100.43233 -32.339781 -101.79279 C -33.586868 -103.15324 -34.210468 -104.91076 -34.210468 -107.06482 C -34.210468 -109.8991 -33.246487 -112.25164 -31.319172 -114.12227 C -29.335171 -116.04958 -26.897929 -117.46671 -24.006957 -118.37369 C -21.059298 -119.28066 -18.168388 -119.73381 -15.334101 -119.73381 z M -70.942593 -119.05375 L -66.691173 -118.969 C -60.682485 -118.85563 -57.508354 -118.79847 -57.16824 -118.79847 L -45.094042 -118.969 L -42.628042 -117.18306 L -43.39337 -110.72092 L -64.480455 -110.72092 L -65.67108 -96.521273 C -62.723422 -97.258188 -60.059087 -97.626632 -57.678286 -97.626632 C -52.066399 -97.626632 -47.503198 -96.124274 -43.988683 -93.11993 C -40.417481 -90.172272 -38.631904 -85.836165 -38.631904 -80.110905 C -38.631904 -76.539704 -39.48208 -73.336993 -41.182652 -70.502706 C -42.826539 -67.66842 -45.207137 -65.429173 -48.324852 -63.785287 C -51.442568 -62.198086 -55.127528 -61.404554 -59.378958 -61.404554 C -62.836788 -61.404554 -65.982855 -61.886286 -68.817141 -62.849943 C -71.594742 -63.813601 -73.776828 -65.14551 -75.364029 -66.846082 C -76.951229 -68.60334 -77.744762 -70.559366 -77.744762 -72.713424 C -77.744762 -74.980853 -77.121678 -76.709787 -75.874592 -77.900188 C -74.627506 -79.147274 -73.096568 -79.770358 -71.282624 -79.770358 C -70.262281 -79.770358 -69.242172 -79.572362 -68.221829 -79.175562 C -67.1448 -78.778762 -66.181335 -78.211805 -65.331049 -77.474891 C -65.841221 -76.28449 -66.09586 -75.037289 -66.09586 -73.733517 C -66.09586 -71.862888 -65.557484 -70.332466 -64.480455 -69.142066 C -63.346741 -67.951665 -61.646387 -67.356645 -59.378958 -67.356645 C -54.277242 -67.356645 -51.726195 -71.608045 -51.726195 -80.110905 C -51.726195 -84.135593 -52.519728 -87.054567 -54.106928 -88.86851 C -55.694129 -90.73914 -57.820087 -91.674541 -60.484317 -91.674541 C -62.128203 -91.674541 -63.8852 -91.36274 -65.75583 -90.739197 C -67.626459 -90.115654 -69.46868 -89.236897 -71.282624 -88.103182 L -75.959341 -92.609884 L -73.748623 -116.75776 L -70.942593 -119.05375 z M -143.55728 -118.88373 L -139.39061 -118.88373 C -137.23655 -118.82705 -132.532 -118.79847 -125.27623 -118.79847 C -117.73702 -118.79847 -112.83344 -118.82705 -110.56601 -118.88373 L -106.48461 -118.88373 L -104.78394 -115.22762 C -105.86097 -113.52705 -107.9017 -109.84261 -110.90605 -104.17404 C -113.91039 -98.505463 -116.74466 -92.496548 -119.40889 -86.147746 C -122.07311 -79.798944 -123.40554 -74.838719 -123.40554 -71.267517 C -123.40554 -68.433231 -122.4135 -66.307789 -120.42949 -64.890646 C -122.35681 -62.566531 -124.82263 -61.404554 -127.82698 -61.404554 C -130.60458 -61.404554 -132.7586 -62.169506 -134.28911 -63.700021 C -135.81963 -65.230536 -136.58458 -67.356494 -136.58458 -70.077409 C -136.58458 -73.478553 -135.76298 -77.077772 -134.1191 -80.875717 C -132.47521 -84.730347 -129.52766 -89.945728 -125.27623 -96.521273 L -115.24273 -111.9963 L -134.62915 -111.9963 C -135.42275 -109.44544 -135.90448 -106.44124 -136.07453 -102.98341 C -137.09488 -102.81335 -138.14357 -102.72813 -139.2206 -102.72813 C -140.35431 -102.72813 -141.45964 -102.81335 -142.53667 -102.98341 L -144.91741 -117.60836 L -143.55728 -118.88373 z M -91.26435 -101.28274 C -89.280349 -101.28274 -87.806572 -100.68772 -86.842915 -99.497319 C -85.822571 -98.363604 -85.312775 -96.776539 -85.312775 -94.735852 C -85.312775 -92.695166 -85.822571 -91.107584 -86.842915 -89.973869 C -87.806572 -88.840154 -89.280349 -88.273198 -91.26435 -88.273198 C -93.248351 -88.273198 -94.750709 -88.840154 -95.771052 -89.973869 C -96.734709 -91.16427 -97.216442 -92.751852 -97.216442 -94.735852 C -97.216442 -96.833225 -96.734709 -98.448354 -95.771052 -99.582068 C -94.750709 -100.71578 -93.248351 -101.28274 -91.26435 -101.28274 z M -91.26435 -74.498845 C -89.280349 -74.498845 -87.806572 -73.903824 -86.842915 -72.713424 C -85.822571 -71.579709 -85.312775 -69.992127 -85.312775 -67.951441 C -85.312775 -65.910754 -85.822571 -64.323689 -86.842915 -63.189974 C -87.806572 -62.05626 -89.280349 -61.489303 -91.26435 -61.489303 C -93.248351 -61.489303 -94.750709 -62.05626 -95.771052 -63.189974 C -96.734709 -64.380375 -97.216442 -65.96744 -97.216442 -67.951441 C -97.216442 -70.048813 -96.734709 -71.664459 -95.771052 -72.798173 C -94.750709 -73.931888 -93.248351 -74.498845 -91.26435 -74.498845 z " /></g></svg>
