<?xml version="1.0" encoding="UTF-8" standalone="no"?>
<!-- Created with Inkscape (http://www.inkscape.org/) -->

<svg
   width="172.6701mm"
   height="172.6701mm"
   viewBox="0 0 172.6701 172.6701"
   version="1.1"
   id="svg1"
   xml:space="preserve"
   xmlns="http://www.w3.org/2000/svg"
   xmlns:svg="http://www.w3.org/2000/svg"><defs
     id="defs1" /><g
     id="layer1"
     transform="translate(157.25102,198.81012)"><path
       id="path5"
       style="fill:#ffffff;fill-opacity:1;stroke-width:0.805188;stroke-linecap:round;stroke-linejoin:round"
       d="M -2.0863309 -198.17657 L -10.088943 -183.11289 L -10.930235 -165.68398 L -19.198981 -165.68398 L -11.423229 -155.47426 L -12.166336 -140.07934 C -28.353216 -157.12094 -50.823548 -166.77435 -74.327399 -166.78417 C -103.64471 -166.77397 -130.92652 -151.79225 -146.66717 -127.05894 L -157.25102 -127.05894 L -149.61996 -115.86014 L -157.25102 -26.140039 L -8.5138455 -26.140039 L 15.419061 -26.140039 L 8.0799737 -154.80195 L 15.419061 -165.68398 L 7.4593397 -165.68398 L 6.4490654 -183.39297 L -2.0863309 -198.17657 z M -83.43072 -192.21621 C -85.584619 -189.65499 -86.77489 -186.4211 -86.795372 -183.07465 C -86.842092 -175.15518 -80.459903 -168.69733 -72.540428 -168.65072 C -64.621155 -168.60402 -58.163395 -174.98588 -58.116503 -182.90515 C -58.102813 -186.26049 -59.266203 -189.5144 -61.404157 -192.10045 C -60.83125 -190.6836 -60.536835 -189.16959 -60.537027 -187.64129 C -60.575787 -181.07411 -65.930869 -175.78172 -72.498054 -175.82031 C -79.065241 -175.85911 -84.357627 -181.21415 -84.319038 -187.78134 C -84.309338 -189.30285 -84.007827 -190.80837 -83.43072 -192.21621 z M -71.453156 -119.05375 L -67.201736 -118.969 C -61.193048 -118.85563 -58.018401 -118.79847 -57.678286 -118.79847 L -45.604088 -118.969 L -43.138605 -117.18306 L -43.903417 -110.72092 L -64.990502 -110.72092 L -66.181127 -96.521273 C -63.233468 -97.258188 -60.569134 -97.626632 -58.188333 -97.626632 C -52.576445 -97.626632 -48.013245 -96.124274 -44.498729 -93.11993 C -40.927528 -90.172272 -39.14195 -85.836165 -39.14195 -80.110905 C -39.14195 -76.539704 -39.992127 -73.336993 -41.692699 -70.502706 C -43.336585 -67.66842 -45.7177 -65.429173 -48.835415 -63.785287 C -51.953131 -62.198086 -55.637574 -61.404554 -59.889004 -61.404554 C -63.346834 -61.404554 -66.492901 -61.886286 -69.327188 -62.849943 C -72.104789 -63.813601 -74.287391 -65.14551 -75.874592 -66.846082 C -77.461792 -68.60334 -78.255325 -70.559366 -78.255325 -72.713424 C -78.255325 -74.980853 -77.631724 -76.709787 -76.384638 -77.900188 C -75.137552 -79.147274 -73.607131 -79.770358 -71.793187 -79.770358 C -70.772844 -79.770358 -69.752219 -79.572362 -68.731875 -79.175562 C -67.654846 -78.778762 -66.691382 -78.211805 -65.841096 -77.474891 C -66.351267 -76.28449 -66.606424 -75.037289 -66.606424 -73.733517 C -66.606424 -71.862888 -66.067531 -70.332466 -64.990502 -69.142066 C -63.856787 -67.951665 -62.156434 -67.356645 -59.889004 -67.356645 C -54.787288 -67.356645 -52.236241 -71.608045 -52.236241 -80.110905 C -52.236241 -84.135593 -53.030291 -87.054567 -54.617491 -88.86851 C -56.204692 -90.73914 -58.330134 -91.674541 -60.994363 -91.674541 C -62.638249 -91.674541 -64.395763 -91.36274 -66.266393 -90.739197 C -68.137022 -90.115654 -69.979244 -89.236897 -71.793187 -88.103182 L -76.469388 -92.609884 L -74.25867 -116.75776 L -71.453156 -119.05375 z M -27.237767 -119.05375 L -22.986347 -118.969 C -16.977659 -118.85563 -13.803529 -118.79847 -13.463414 -118.79847 L -1.3892158 -118.969 L 1.0762668 -117.18306 L 0.31145559 -110.72092 L -20.775629 -110.72092 L -21.966254 -96.521273 C -19.018596 -97.258188 -16.354261 -97.626632 -13.973461 -97.626632 C -8.3615728 -97.626632 -3.7983725 -96.124274 -0.28385691 -93.11993 C 3.2873444 -90.172272 5.0729221 -85.836165 5.0729221 -80.110905 C 5.0729221 -76.539704 4.2227454 -73.336993 2.5221734 -70.502706 C 0.87828704 -67.66842 -1.5028277 -65.429173 -4.6205431 -63.785287 C -7.7382585 -62.198086 -11.422702 -61.404554 -15.674132 -61.404554 C -19.131962 -61.404554 -22.278029 -61.886286 -25.112316 -62.849943 C -27.889917 -63.813601 -30.072519 -65.14551 -31.65972 -66.846082 C -33.24692 -68.60334 -34.040453 -70.559366 -34.040453 -72.713424 C -34.040453 -74.980853 -33.416852 -76.709787 -32.169766 -77.900188 C -30.92268 -79.147274 -29.392258 -79.770358 -27.578315 -79.770358 C -26.557972 -79.770358 -25.537346 -79.572362 -24.517003 -79.175562 C -23.439974 -78.778762 -22.476509 -78.211805 -21.626223 -77.474891 C -22.136395 -76.28449 -22.391551 -75.037289 -22.391551 -73.733517 C -22.391551 -71.862888 -21.852658 -70.332466 -20.775629 -69.142066 C -19.641915 -67.951665 -17.941561 -67.356645 -15.674132 -67.356645 C -10.572416 -67.356645 -8.0213691 -71.608045 -8.0213691 -80.110905 C -8.0213691 -84.135593 -8.8149018 -87.054567 -10.402102 -88.86851 C -11.989303 -90.73914 -14.115261 -91.674541 -16.779491 -91.674541 C -18.423377 -91.674541 -20.180374 -91.36274 -22.051004 -90.739197 C -23.921633 -90.115654 -25.764371 -89.236897 -27.578315 -88.103182 L -32.254515 -92.609884 L -30.043798 -116.75776 L -27.237767 -119.05375 z M -144.06733 -118.88373 L -139.90117 -118.88373 C -137.74712 -118.82705 -133.04205 -118.79847 -125.78627 -118.79847 C -118.24707 -118.79847 -113.34349 -118.82705 -111.07606 -118.88373 L -106.99466 -118.88373 L -105.2945 -115.22762 C -106.37153 -113.52705 -108.41226 -109.84261 -111.41661 -104.17404 C -114.42095 -98.505463 -117.25522 -92.496548 -119.91945 -86.147746 C -122.58368 -79.798944 -123.91559 -74.838719 -123.91559 -71.267517 C -123.91559 -68.433231 -122.92354 -66.307789 -120.93954 -64.890646 C -122.86686 -62.566531 -125.33268 -61.404554 -128.33702 -61.404554 C -131.11462 -61.404554 -133.26865 -62.169506 -134.79916 -63.700021 C -136.32968 -65.230536 -137.09514 -67.356494 -137.09514 -70.077409 C -137.09514 -73.478553 -136.27303 -77.077772 -134.62915 -80.875717 C -132.98526 -84.730347 -130.0377 -89.945728 -125.78627 -96.521273 L -115.75278 -111.9963 L -135.13919 -111.9963 C -135.93279 -109.44544 -136.41504 -106.44124 -136.5851 -102.98341 C -137.60544 -102.81335 -138.65361 -102.72813 -139.73064 -102.72813 C -140.86436 -102.72813 -141.97021 -102.81335 -143.04724 -102.98341 L -145.42797 -117.60836 L -144.06733 -118.88373 z M -91.774913 -101.28274 C -89.790913 -101.28274 -88.317135 -100.68772 -87.353478 -99.497319 C -86.333134 -98.363604 -85.822822 -96.776539 -85.822822 -94.735852 C -85.822822 -92.695166 -86.333134 -91.107584 -87.353478 -89.973869 C -88.317135 -88.840154 -89.790913 -88.273198 -91.774913 -88.273198 C -93.758914 -88.273198 -95.260755 -88.840154 -96.281098 -89.973869 C -97.244756 -91.16427 -97.727005 -92.751852 -97.727005 -94.735852 C -97.727005 -96.833225 -97.244756 -98.448354 -96.281098 -99.582068 C -95.260755 -100.71578 -93.758914 -101.28274 -91.774913 -101.28274 z M -91.774913 -74.498845 C -89.790913 -74.498845 -88.317135 -73.903824 -87.353478 -72.713424 C -86.333134 -71.579709 -85.822822 -69.992127 -85.822822 -67.951441 C -85.822822 -65.910754 -86.333134 -64.323689 -87.353478 -63.189974 C -88.317135 -62.05626 -89.790913 -61.489303 -91.774913 -61.489303 C -93.758914 -61.489303 -95.260755 -62.05626 -96.281098 -63.189974 C -97.244756 -64.380375 -97.727005 -65.96744 -97.727005 -67.951441 C -97.727005 -70.048813 -97.244756 -71.664459 -96.281098 -72.798173 C -95.260755 -73.931888 -93.758914 -74.498845 -91.774913 -74.498845 z " /></g></svg>
