<?xml version="1.0" encoding="UTF-8" standalone="no"?>
<!-- Created with Inkscape (http://www.inkscape.org/) -->

<svg
   width="172.6701mm"
   height="172.6701mm"
   viewBox="0 0 172.6701 172.6701"
   version="1.1"
   id="svg1"
   xml:space="preserve"
   xmlns="http://www.w3.org/2000/svg"
   xmlns:svg="http://www.w3.org/2000/svg"><defs
     id="defs1" /><g
     id="layer1"
     transform="translate(157.25102,198.81012)"><path
       id="path5"
       style="fill:#ffffff;fill-opacity:1;stroke-width:0.805188;stroke-linecap:round;stroke-linejoin:round"
       d="M -2.0863309 -198.17657 L -10.088943 -183.11289 L -10.930235 -165.68398 L -19.198981 -165.68398 L -11.423229 -155.47426 L -12.166336 -140.07934 C -28.353216 -157.12094 -50.823548 -166.77435 -74.327399 -166.78417 C -103.64471 -166.77397 -130.92652 -151.79225 -146.66717 -127.05894 L -157.25102 -127.05894 L -149.61996 -115.86014 L -157.25102 -26.140039 L -8.5138455 -26.140039 L 15.419061 -26.140039 L 8.0799737 -154.80195 L 15.419061 -165.68398 L 7.4593397 -165.68398 L 6.4490654 -183.39297 L -2.0863309 -198.17657 z M -83.43072 -192.21621 C -85.584619 -189.65499 -86.77489 -186.4211 -86.795372 -183.07465 C -86.842092 -175.15518 -80.459903 -168.69733 -72.540428 -168.65072 C -64.621155 -168.60402 -58.163395 -174.98588 -58.116503 -182.90515 C -58.102813 -186.26049 -59.266203 -189.5144 -61.404157 -192.10045 C -60.83125 -190.6836 -60.536835 -189.16959 -60.537027 -187.64129 C -60.575787 -181.07411 -65.930869 -175.78172 -72.498054 -175.82031 C -79.065241 -175.85911 -84.357627 -181.21415 -84.319038 -187.78134 C -84.309338 -189.30285 -84.007827 -190.80837 -83.43072 -192.21621 z M -70.347281 -119.05375 L -66.09586 -118.969 C -60.087173 -118.85563 -56.913042 -118.79847 -56.572928 -118.79847 L -44.498729 -118.969 L -42.03273 -117.18306 L -42.798058 -110.72092 L -63.885143 -110.72092 L -65.075768 -96.521273 C -62.128109 -97.258188 -59.463775 -97.626632 -57.082974 -97.626632 C -51.471086 -97.626632 -46.907886 -96.124274 -43.39337 -93.11993 C -39.822169 -90.172272 -38.036591 -85.836165 -38.036591 -80.110905 C -38.036591 -76.539704 -38.886768 -73.336993 -40.58734 -70.502706 C -42.231226 -67.66842 -44.612341 -65.429173 -47.730056 -63.785287 C -50.847772 -62.198086 -54.532215 -61.404554 -58.783645 -61.404554 C -62.241475 -61.404554 -65.387542 -61.886286 -68.221829 -62.849943 C -70.99943 -63.813601 -73.182032 -65.14551 -74.769233 -66.846082 C -76.356433 -68.60334 -77.149966 -70.559366 -77.149966 -72.713424 C -77.149966 -74.980853 -76.526365 -76.709787 -75.279279 -77.900188 C -74.032193 -79.147274 -72.501772 -79.770358 -70.687828 -79.770358 C -69.667485 -79.770358 -68.64686 -79.572362 -67.626516 -79.175562 C -66.549487 -78.778762 -65.586023 -78.211805 -64.735737 -77.474891 C -65.245908 -76.28449 -65.501065 -75.037289 -65.501065 -73.733517 C -65.501065 -71.862888 -64.962172 -70.332466 -63.885143 -69.142066 C -62.751428 -67.951665 -61.051075 -67.356645 -58.783645 -67.356645 C -53.681929 -67.356645 -51.130882 -71.608045 -51.130882 -80.110905 C -51.130882 -84.135593 -51.924415 -87.054567 -53.511616 -88.86851 C -55.098816 -90.73914 -57.224775 -91.674541 -59.889004 -91.674541 C -61.532891 -91.674541 -63.289888 -91.36274 -65.160517 -90.739197 C -67.031146 -90.115654 -68.873885 -89.236897 -70.687828 -88.103182 L -75.364029 -92.609884 L -73.153311 -116.75776 L -70.347281 -119.05375 z M -142.96197 -118.88373 L -138.7953 -118.88373 C -136.64124 -118.82705 -131.93669 -118.79847 -124.68092 -118.79847 C -117.14171 -118.79847 -112.23813 -118.82705 -109.9707 -118.88373 L -105.8893 -118.88373 L -104.18914 -115.22762 C -105.26617 -113.52705 -107.30639 -109.84261 -110.31073 -104.17404 C -113.31508 -98.505463 -116.14934 -92.496548 -118.81357 -86.147746 C -121.4778 -79.798944 -122.81023 -74.838719 -122.81023 -71.267517 C -122.81023 -68.433231 -121.81818 -66.307789 -119.83418 -64.890646 C -121.7615 -62.566531 -124.22732 -61.404554 -127.23166 -61.404554 C -130.00926 -61.404554 -132.16329 -62.169506 -133.6938 -63.700021 C -135.22432 -65.230536 -135.98979 -67.356494 -135.98979 -70.077409 C -135.98979 -73.478553 -135.16767 -77.077772 -133.52379 -80.875717 C -131.8799 -84.730347 -128.93235 -89.945728 -124.68092 -96.521273 L -114.64742 -111.9963 L -134.03383 -111.9963 C -134.82743 -109.44544 -135.30917 -106.44124 -135.47922 -102.98341 C -136.49957 -102.81335 -137.54825 -102.72813 -138.62528 -102.72813 C -139.759 -102.72813 -140.86433 -102.81335 -141.94136 -102.98341 L -144.32261 -117.60836 L -142.96197 -118.88373 z M -32.935094 -118.88373 L -28.768423 -118.88373 C -26.614365 -118.82705 -21.909297 -118.79847 -14.653522 -118.79847 C -7.1143197 -118.79847 -2.2112554 -118.82705 0.05617401 -118.88373 L 4.1375786 -118.88373 L 5.83825 -115.22762 C 4.7612211 -113.52705 2.720487 -109.84261 -0.28385691 -104.17404 C -3.2882009 -98.505463 -6.1224675 -92.496548 -8.7866971 -86.147746 C -11.450927 -79.798944 -12.783352 -74.838719 -12.783352 -71.267517 C -12.783352 -68.433231 -11.791307 -66.307789 -9.8073066 -64.890646 C -11.734622 -62.566531 -14.200444 -61.404554 -17.204788 -61.404554 C -19.982389 -61.404554 -22.136411 -62.169506 -23.666926 -63.700021 C -25.197441 -65.230536 -25.962393 -67.356494 -25.962393 -70.077409 C -25.962393 -73.478553 -25.140797 -77.077772 -23.49691 -80.875717 C -21.853024 -84.730347 -18.904953 -89.945728 -14.653522 -96.521273 L -4.6205431 -111.9963 L -24.006957 -111.9963 C -24.800557 -109.44544 -25.282289 -106.44124 -25.452346 -102.98341 C -26.47269 -102.81335 -27.521379 -102.72813 -28.598408 -102.72813 C -29.732122 -102.72813 -30.837455 -102.81335 -31.914484 -102.98341 L -34.295218 -117.60836 L -32.935094 -118.88373 z M -90.669554 -101.28274 C -88.685554 -101.28274 -87.211776 -100.68772 -86.248119 -99.497319 C -85.227776 -98.363604 -84.717463 -96.776539 -84.717463 -94.735852 C -84.717463 -92.695166 -85.227776 -91.107584 -86.248119 -89.973869 C -87.211776 -88.840154 -88.685554 -88.273198 -90.669554 -88.273198 C -92.653555 -88.273198 -94.155396 -88.840154 -95.175739 -89.973869 C -96.139397 -91.16427 -96.621646 -92.751852 -96.621646 -94.735852 C -96.621646 -96.833225 -96.139397 -98.448354 -95.175739 -99.582068 C -94.155396 -100.71578 -92.653555 -101.28274 -90.669554 -101.28274 z M -90.669554 -74.498845 C -88.685554 -74.498845 -87.211776 -73.903824 -86.248119 -72.713424 C -85.227776 -71.579709 -84.717463 -69.992127 -84.717463 -67.951441 C -84.717463 -65.910754 -85.227776 -64.323689 -86.248119 -63.189974 C -87.211776 -62.05626 -88.685554 -61.489303 -90.669554 -61.489303 C -92.653555 -61.489303 -94.155396 -62.05626 -95.175739 -63.189974 C -96.139397 -64.380375 -96.621646 -65.96744 -96.621646 -67.951441 C -96.621646 -70.048813 -96.139397 -71.664459 -95.175739 -72.798173 C -94.155396 -73.931888 -92.653555 -74.498845 -90.669554 -74.498845 z " /></g></svg>
