<?xml version="1.0" encoding="UTF-8" standalone="no"?>
<!-- Created with Inkscape (http://www.inkscape.org/) -->

<svg
   width="172.6701mm"
   height="172.6701mm"
   viewBox="0 0 172.6701 172.6701"
   version="1.1"
   id="svg1"
   xml:space="preserve"
   xmlns="http://www.w3.org/2000/svg"
   xmlns:svg="http://www.w3.org/2000/svg"><defs
     id="defs1" /><g
     id="layer1"
     transform="translate(157.25102,198.81012)"><path
       id="path5"
       style="fill:#ffffff;fill-opacity:1;stroke-width:0.805188;stroke-linecap:round;stroke-linejoin:round"
       d="M -2.0863309 -198.17657 L -10.088943 -183.11289 L -10.930235 -165.68398 L -19.198981 -165.68398 L -11.423229 -155.47426 L -12.166336 -140.07934 C -28.353216 -157.12094 -50.823548 -166.77435 -74.327399 -166.78417 C -103.64471 -166.77397 -130.92652 -151.79225 -146.66717 -127.05894 L -157.25102 -127.05894 L -149.61996 -115.86014 L -157.25102 -26.140039 L -8.5138455 -26.140039 L 15.419061 -26.140039 L 8.0799737 -154.80195 L 15.419061 -165.68398 L 7.4593397 -165.68398 L 6.4490654 -183.39297 L -2.0863309 -198.17657 z M -83.43072 -192.21621 C -85.584619 -189.65499 -86.77489 -186.4211 -86.795372 -183.07465 C -86.842092 -175.15518 -80.459903 -168.69733 -72.540428 -168.65072 C -64.621155 -168.60402 -58.163395 -174.98588 -58.116503 -182.90515 C -58.102813 -186.26049 -59.266203 -189.5144 -61.404157 -192.10045 C -60.83125 -190.6836 -60.536835 -189.16959 -60.537027 -187.64129 C -60.575787 -181.07411 -65.930869 -175.78172 -72.498054 -175.82031 C -79.065241 -175.85911 -84.357627 -181.21415 -84.319038 -187.78134 C -84.309338 -189.30285 -84.007827 -190.80837 -83.43072 -192.21621 z M -14.568773 -119.81908 C -8.6167709 -119.81908 -3.8836386 -118.54381 -0.36912303 -115.99295 C 3.1453925 -113.44209 4.9029066 -110.01229 4.9029066 -105.70418 C 4.9029066 -103.38006 4.0527299 -101.05611 2.3521579 -98.731991 C 0.65158585 -96.407876 -1.5876605 -94.50901 -4.3652615 -93.035181 C -0.85074596 -91.334609 1.8982963 -89.350519 3.8822971 -87.08309 C 5.9229835 -84.81566 6.9436089 -81.896169 6.9436089 -78.324968 C 6.9436089 -73.166566 5.0728069 -69.057034 1.3315484 -65.996005 C -2.4097102 -62.991661 -7.4546428 -61.489303 -13.803445 -61.489303 C -20.775791 -61.489303 -26.161104 -62.878373 -29.959048 -65.655974 C -33.700307 -68.433575 -35.570592 -72.401238 -35.570592 -77.55964 C -35.570592 -80.223869 -34.720415 -82.86014 -33.019843 -85.467684 C -31.319271 -88.131914 -28.938673 -90.483931 -25.877644 -92.524618 C -28.428502 -93.941761 -30.412592 -95.642631 -31.829735 -97.626632 C -33.246878 -99.610633 -33.955187 -102.07646 -33.955187 -105.02411 C -33.955187 -109.55897 -32.198189 -113.15871 -28.683674 -115.82294 C -25.169158 -118.48717 -20.46409 -119.81908 -14.568773 -119.81908 z M -72.983295 -119.05375 L -68.731875 -118.969 C -62.723187 -118.85563 -59.549057 -118.79847 -59.208942 -118.79847 L -47.134744 -118.969 L -44.668745 -117.18306 L -45.434073 -110.72092 L -66.521158 -110.72092 L -67.711783 -96.521273 C -64.764124 -97.258188 -62.09979 -97.626632 -59.718989 -97.626632 C -54.107101 -97.626632 -49.543901 -96.124274 -46.029385 -93.11993 C -42.458184 -90.172272 -40.672606 -85.836165 -40.672606 -80.110905 C -40.672606 -76.539704 -41.522783 -73.336993 -43.223355 -70.502706 C -44.867241 -67.66842 -47.247839 -65.429173 -50.365555 -63.785287 C -53.48327 -62.198086 -57.16823 -61.404554 -61.41966 -61.404554 C -64.87749 -61.404554 -68.023557 -61.886286 -70.857844 -62.849943 C -73.635445 -63.813601 -75.81753 -65.14551 -77.404731 -66.846082 C -78.991932 -68.60334 -79.785464 -70.559366 -79.785464 -72.713424 C -79.785464 -74.980853 -79.16238 -76.709787 -77.915294 -77.900188 C -76.668208 -79.147274 -75.13727 -79.770358 -73.323326 -79.770358 C -72.302983 -79.770358 -71.282874 -79.572362 -70.262531 -79.175562 C -69.185502 -78.778762 -68.222038 -78.211805 -67.371752 -77.474891 C -67.881923 -76.28449 -68.136563 -75.037289 -68.136563 -73.733517 C -68.136563 -71.862888 -67.598186 -70.332466 -66.521158 -69.142066 C -65.387443 -67.951665 -63.68709 -67.356645 -61.41966 -67.356645 C -56.317944 -67.356645 -53.766897 -71.608045 -53.766897 -80.110905 C -53.766897 -84.135593 -54.56043 -87.054567 -56.147631 -88.86851 C -57.734831 -90.73914 -59.860789 -91.674541 -62.525019 -91.674541 C -64.168905 -91.674541 -65.925903 -91.36274 -67.796532 -90.739197 C -69.667161 -90.115654 -71.509383 -89.236897 -73.323326 -88.103182 L -78.000043 -92.609884 L -75.789326 -116.75776 L -72.983295 -119.05375 z M -145.59798 -118.88373 L -141.43131 -118.88373 C -139.27726 -118.82705 -134.5727 -118.79847 -127.31693 -118.79847 C -119.77773 -118.79847 -114.87415 -118.82705 -112.60672 -118.88373 L -108.52531 -118.88373 L -106.82464 -115.22762 C -107.90167 -113.52705 -109.9424 -109.84261 -112.94675 -104.17404 C -115.95109 -98.505463 -118.78536 -92.496548 -121.44959 -86.147746 C -124.11382 -79.798944 -125.44624 -74.838719 -125.44624 -71.267517 C -125.44624 -68.433231 -124.4542 -66.307789 -122.4702 -64.890646 C -124.39751 -62.566531 -126.86333 -61.404554 -129.86768 -61.404554 C -132.64528 -61.404554 -134.7993 -62.169506 -136.32982 -63.700021 C -137.86033 -65.230536 -138.62528 -67.356494 -138.62528 -70.077409 C -138.62528 -73.478553 -137.80369 -77.077772 -136.1598 -80.875717 C -134.51591 -84.730347 -131.56836 -89.945728 -127.31693 -96.521273 L -117.28343 -111.9963 L -136.66985 -111.9963 C -137.46345 -109.44544 -137.94518 -106.44124 -138.11524 -102.98341 C -139.13558 -102.81335 -140.18427 -102.72813 -141.2613 -102.72813 C -142.39501 -102.72813 -143.50035 -102.81335 -144.57737 -102.98341 L -146.95811 -117.60836 L -145.59798 -118.88373 z M -14.568773 -113.78224 C -16.836202 -113.78224 -18.62178 -113.04535 -19.925552 -111.57152 C -21.229324 -110.15437 -21.880988 -108.22693 -21.880988 -105.78944 C -21.880988 -103.63538 -21.059392 -101.84981 -19.415506 -100.43266 C -17.714934 -99.072205 -15.249111 -97.711715 -12.018024 -96.351258 C -10.600881 -97.314915 -9.4669676 -98.646824 -8.6166816 -100.3474 C -7.7663956 -102.04797 -7.3413073 -103.86213 -7.3413073 -105.78944 C -7.3413073 -108.22693 -8.0215519 -110.15437 -9.3820096 -111.57152 C -10.685781 -113.04535 -12.414715 -113.78224 -14.568773 -113.78224 z M -93.305052 -101.28274 C -91.321052 -101.28274 -89.847274 -100.68772 -88.883617 -99.497319 C -87.863274 -98.363604 -87.353478 -96.776539 -87.353478 -94.735852 C -87.353478 -92.695166 -87.863274 -91.107584 -88.883617 -89.973869 C -89.847274 -88.840154 -91.321052 -88.273198 -93.305052 -88.273198 C -95.289053 -88.273198 -96.791411 -88.840154 -97.811754 -89.973869 C -98.775412 -91.16427 -99.257144 -92.751852 -99.257144 -94.735852 C -99.257144 -96.833225 -98.775412 -98.448354 -97.811754 -99.582068 C -96.791411 -100.71578 -95.289053 -101.28274 -93.305052 -101.28274 z M -18.054865 -89.038526 C -19.755437 -87.678068 -21.002639 -86.119583 -21.796239 -84.362325 C -22.589839 -82.605068 -22.986347 -80.50769 -22.986347 -78.070203 C -22.986347 -74.725745 -22.164751 -72.089474 -20.520865 -70.162159 C -18.876978 -68.291529 -16.637732 -67.356645 -13.803445 -67.356645 C -11.025844 -67.356645 -8.8718221 -68.291529 -7.3413073 -70.162159 C -5.7541067 -72.032788 -4.960574 -74.640479 -4.960574 -77.984937 C -4.960574 -79.855566 -5.5555943 -81.442631 -6.7459948 -82.746403 C -7.8797095 -84.106861 -9.3254232 -85.212194 -11.082681 -86.06248 C -12.839939 -86.969452 -15.163893 -87.961497 -18.054865 -89.038526 z M -93.305052 -74.498845 C -91.321052 -74.498845 -89.847274 -73.903824 -88.883617 -72.713424 C -87.863274 -71.579709 -87.353478 -69.992127 -87.353478 -67.951441 C -87.353478 -65.910754 -87.863274 -64.323689 -88.883617 -63.189974 C -89.847274 -62.05626 -91.321052 -61.489303 -93.305052 -61.489303 C -95.289053 -61.489303 -96.791411 -62.05626 -97.811754 -63.189974 C -98.775412 -64.380375 -99.257144 -65.96744 -99.257144 -67.951441 C -99.257144 -70.048813 -98.775412 -71.664459 -97.811754 -72.798173 C -96.791411 -73.931888 -95.289053 -74.498845 -93.305052 -74.498845 z " /></g></svg>
