<?xml version="1.0" encoding="UTF-8" standalone="no"?>
<!-- Created with Inkscape (http://www.inkscape.org/) -->

<svg
   width="172.6701mm"
   height="172.6701mm"
   viewBox="0 0 172.6701 172.6701"
   version="1.1"
   id="svg1"
   xml:space="preserve"
   xmlns="http://www.w3.org/2000/svg"
   xmlns:svg="http://www.w3.org/2000/svg"><defs
     id="defs1" /><g
     id="layer1"
     transform="translate(157.25102,198.81012)"><path
       id="path5"
       style="fill:#ffffff;fill-opacity:1;stroke-width:0.805188;stroke-linecap:round;stroke-linejoin:round"
       d="M -2.0863309 -198.17657 L -10.088943 -183.11289 L -10.930235 -165.68398 L -19.198981 -165.68398 L -11.423229 -155.47426 L -12.166336 -140.07934 C -28.353216 -157.12094 -50.823548 -166.77435 -74.327399 -166.78417 C -103.64471 -166.77397 -130.92652 -151.79225 -146.66717 -127.05894 L -157.25102 -127.05894 L -149.61996 -115.86014 L -157.25102 -26.140039 L -8.5138455 -26.140039 L 15.419061 -26.140039 L 8.0799737 -154.80195 L 15.419061 -165.68398 L 7.4593397 -165.68398 L 6.4490654 -183.39297 L -2.0863309 -198.17657 z M -83.43072 -192.21621 C -85.584619 -189.65499 -86.77489 -186.4211 -86.795372 -183.07465 C -86.842092 -175.15518 -80.459903 -168.69733 -72.540428 -168.65072 C -64.621155 -168.60402 -58.163395 -174.98588 -58.116503 -182.90515 C -58.102813 -186.26049 -59.266203 -189.5144 -61.404157 -192.10045 C -60.83125 -190.6836 -60.536835 -189.16959 -60.537027 -187.64129 C -60.575787 -181.07411 -65.930869 -175.78172 -72.498054 -175.82031 C -79.065241 -175.85911 -84.357627 -181.21415 -84.319038 -187.78134 C -84.309338 -189.30285 -84.007827 -190.80837 -83.43072 -192.21621 z M -69.648098 -150.0932 C -58.061558 -150.0932 -48.847434 -147.61073 -42.005858 -142.64507 C -35.164282 -137.67941 -31.743435 -131.00329 -31.743435 -122.61684 C -31.743435 -118.09257 -33.398584 -113.56829 -36.709024 -109.04402 C -40.019464 -104.51975 -44.378176 -100.82279 -49.785228 -97.953744 C -42.943652 -94.643304 -37.591541 -90.781291 -33.729361 -86.367371 C -29.756833 -81.953451 -27.770551 -76.270723 -27.770551 -69.318799 C -27.770551 -59.277131 -31.412498 -51.276989 -38.695466 -45.318197 C -45.978434 -39.469753 -55.799291 -36.545089 -68.158267 -36.545089 C -81.731071 -36.545089 -92.214194 -39.248653 -99.60751 -44.655705 C -106.89048 -50.062757 -110.53191 -57.787299 -110.53191 -67.828968 C -110.53191 -73.015324 -108.87676 -78.146335 -105.56632 -83.222343 C -102.25588 -88.408699 -97.621051 -92.988512 -91.662259 -96.96104 C -96.627919 -99.71974 -100.48993 -103.03004 -103.24863 -106.89222 C -106.00733 -110.7544 -107.38688 -115.55427 -107.38688 -121.29237 C -107.38688 -130.12021 -103.96603 -137.12747 -97.124458 -142.31383 C -90.282881 -147.50018 -81.124291 -150.0932 -69.648098 -150.0932 z M -69.648098 -138.34146 C -74.062019 -138.34146 -77.537882 -136.90689 -80.075886 -134.03785 C -82.61389 -131.27915 -83.882888 -127.52717 -83.882888 -122.7822 C -83.882888 -118.58898 -82.282757 -115.11312 -79.082665 -112.35442 C -75.772225 -109.70606 -70.971829 -107.05752 -64.681993 -104.40916 C -61.923293 -106.28508 -59.716429 -108.87861 -58.061209 -112.18905 C -56.405989 -115.49949 -55.578673 -119.03037 -55.578673 -122.7822 C -55.578673 -127.52717 -56.902688 -131.27915 -59.55104 -134.03785 C -62.089044 -136.90689 -65.454874 -138.34146 -69.648098 -138.34146 z M -76.434248 -90.174374 C -79.744688 -87.526022 -82.172135 -84.491325 -83.717007 -81.070537 C -85.261879 -77.649749 -86.034695 -73.567153 -86.034695 -68.822189 C -86.034695 -62.311657 -84.434563 -57.180128 -81.234471 -53.428296 C -78.034379 -49.786812 -73.675667 -47.966097 -68.158267 -47.966097 C -62.751215 -47.966097 -58.558069 -49.786812 -55.578673 -53.428296 C -52.488929 -57.06978 -50.943814 -62.146292 -50.943814 -68.656824 C -50.943814 -72.298308 -52.102263 -75.388022 -54.419571 -77.926026 C -56.626531 -80.574378 -59.440645 -82.725709 -62.861433 -84.380929 C -66.282221 -86.146497 -70.806499 -88.077762 -76.434248 -90.174374 z " /></g></svg>
