<?xml version="1.0" encoding="UTF-8" standalone="no"?>
<!-- Created with Inkscape (http://www.inkscape.org/) -->

<svg
   width="172.6701mm"
   height="172.6701mm"
   viewBox="0 0 172.6701 172.6701"
   version="1.1"
   id="svg1"
   xml:space="preserve"
   xmlns="http://www.w3.org/2000/svg"
   xmlns:svg="http://www.w3.org/2000/svg"><defs
     id="defs1" /><g
     id="layer1"
     transform="translate(157.25102,198.81012)"><path
       id="path5"
       style="fill:#ffffff;fill-opacity:1;stroke-width:0.805188;stroke-linecap:round;stroke-linejoin:round"
       d="M -2.0863309 -198.17657 L -10.088943 -183.11289 L -10.930235 -165.68398 L -19.198981 -165.68398 L -11.423229 -155.47426 L -12.166336 -140.07934 C -28.353216 -157.12094 -50.823548 -166.77435 -74.327399 -166.78417 C -103.64471 -166.77397 -130.92652 -151.79225 -146.66717 -127.05894 L -157.25102 -127.05894 L -149.61996 -115.86014 L -157.25102 -26.140039 L -8.5138455 -26.140039 L 15.419061 -26.140039 L 8.0799737 -154.80195 L 15.419061 -165.68398 L 7.4593397 -165.68398 L 6.4490654 -183.39297 L -2.0863309 -198.17657 z M -83.43072 -192.21621 C -85.584619 -189.65499 -86.77489 -186.4211 -86.795372 -183.07465 C -86.842092 -175.15518 -80.459903 -168.69733 -72.540428 -168.65072 C -64.621155 -168.60402 -58.163395 -174.98588 -58.116503 -182.90515 C -58.102813 -186.26049 -59.266203 -189.5144 -61.404157 -192.10045 C -60.83125 -190.6836 -60.536835 -189.16959 -60.537027 -187.64129 C -60.575787 -181.07411 -65.930869 -175.78172 -72.498054 -175.82031 C -79.065241 -175.85911 -84.357627 -181.21415 -84.319038 -187.78134 C -84.309338 -189.30285 -84.007827 -190.80837 -83.43072 -192.21621 z M -103.59951 -134.72153 C -93.246515 -134.72153 -85.01293 -132.50312 -78.89973 -128.06612 C -72.78653 -123.62912 -69.730264 -117.66365 -69.730264 -110.17005 C -69.730264 -106.12745 -71.209203 -102.08523 -74.167202 -98.042627 C -77.125202 -94.000027 -81.019844 -90.696755 -85.851244 -88.133155 C -79.738044 -85.175155 -74.955833 -81.724298 -71.504833 -77.780298 C -67.955233 -73.836298 -66.18061 -68.758402 -66.18061 -62.546603 C -66.18061 -53.574003 -69.434171 -46.425283 -75.941771 -41.100883 C -82.449371 -35.875084 -91.22513 -33.262085 -102.26833 -33.262085 C -114.39613 -33.262085 -123.76274 -35.677788 -130.36894 -40.509188 C -136.87654 -45.340588 -140.13062 -52.242818 -140.13062 -61.215418 C -140.13062 -65.849618 -138.65168 -70.434534 -135.69368 -74.970134 C -132.73568 -79.604334 -128.59455 -83.69627 -123.27015 -87.24587 C -127.70715 -89.71087 -131.158 -92.668747 -133.623 -96.119747 C -136.088 -99.570747 -137.32045 -103.85998 -137.32045 -108.98718 C -137.32045 -116.87518 -134.26367 -123.13633 -128.15047 -127.77053 C -122.03727 -132.40473 -113.85391 -134.72153 -103.59951 -134.72153 z M -21.219013 -133.53865 L -16.338174 -131.32018 L -16.338174 -45.833928 C -14.464774 -44.749328 -11.506897 -43.763369 -7.4642972 -42.875969 C -3.4216973 -42.087169 -0.21733038 -41.594189 2.1490695 -41.396989 L 1.7056857 -34.297681 L -58.637918 -34.297681 L -58.341812 -41.396989 C -49.566412 -42.382989 -42.861477 -43.861928 -38.227277 -45.833928 L -38.227277 -116.67767 L -58.046223 -116.67767 L -58.046223 -125.25595 C -51.735823 -125.74895 -45.228183 -126.68572 -38.523383 -128.06612 C -31.818584 -129.54512 -26.050413 -131.36945 -21.219013 -133.53865 z M -103.59951 -124.22087 C -107.54351 -124.22087 -110.64898 -122.93923 -112.91678 -120.37563 C -115.18458 -117.91063 -116.31863 -114.55816 -116.31863 -110.31836 C -116.31863 -106.57156 -114.88889 -103.46559 -112.02949 -101.00059 C -109.07149 -98.634186 -104.78226 -96.267678 -99.162059 -93.901278 C -96.697059 -95.577478 -94.725141 -97.894792 -93.246141 -100.85279 C -91.767141 -103.81079 -91.027672 -106.96596 -91.027672 -110.31836 C -91.027672 -114.55816 -92.210926 -117.91063 -94.577326 -120.37563 C -96.845126 -122.93923 -99.852715 -124.22087 -103.59951 -124.22087 z M -109.66323 -81.182158 C -112.62123 -78.815758 -114.79044 -76.103854 -116.17084 -73.047254 C -117.55124 -69.990654 -118.24151 -66.342502 -118.24151 -62.102702 C -118.24151 -56.285302 -116.81177 -51.700386 -113.95237 -48.347986 C -111.09297 -45.094186 -107.19833 -43.467664 -102.26833 -43.467664 C -97.43693 -43.467664 -93.689872 -45.094186 -91.027672 -48.347986 C -88.266872 -51.601786 -86.886323 -56.137508 -86.886323 -61.954908 C -86.886323 -65.208707 -87.921993 -67.969289 -89.992593 -70.237089 C -91.964593 -72.603489 -94.478685 -74.526213 -97.535285 -76.005213 C -100.59189 -77.582813 -104.63463 -79.308758 -109.66323 -81.182158 z " /></g></svg>
