<?xml version="1.0" encoding="UTF-8" standalone="no"?>
<!-- Created with Inkscape (http://www.inkscape.org/) -->

<svg
   width="172.6701mm"
   height="172.6701mm"
   viewBox="0 0 172.6701 172.6701"
   version="1.1"
   id="svg1"
   xml:space="preserve"
   xmlns="http://www.w3.org/2000/svg"
   xmlns:svg="http://www.w3.org/2000/svg"><defs
     id="defs1" /><g
     id="layer1"
     transform="translate(157.25102,198.81012)"><path
       id="path5"
       style="fill:#ffffff;fill-opacity:1;stroke-width:0.805188;stroke-linecap:round;stroke-linejoin:round"
       d="M -2.0863309 -198.17657 L -10.088943 -183.11289 L -10.930235 -165.68398 L -19.198981 -165.68398 L -11.423229 -155.47426 L -12.166336 -140.07934 C -28.353216 -157.12094 -50.823548 -166.77435 -74.327399 -166.78417 C -103.64471 -166.77397 -130.92652 -151.79225 -146.66717 -127.05894 L -157.25102 -127.05894 L -149.61996 -115.86014 L -157.25102 -26.140039 L -8.5138455 -26.140039 L 15.419061 -26.140039 L 8.0799737 -154.80195 L 15.419061 -165.68398 L 7.4593397 -165.68398 L 6.4490654 -183.39297 L -2.0863309 -198.17657 z M -83.43072 -192.21621 C -85.584619 -189.65499 -86.77489 -186.4211 -86.795372 -183.07465 C -86.842092 -175.15518 -80.459903 -168.69733 -72.540428 -168.65072 C -64.621155 -168.60402 -58.163395 -174.98588 -58.116503 -182.90515 C -58.102813 -186.26049 -59.266203 -189.5144 -61.404157 -192.10045 C -60.83125 -190.6836 -60.536835 -189.16959 -60.537027 -187.64129 C -60.575787 -181.07411 -65.930869 -175.78172 -72.498054 -175.82031 C -79.065241 -175.85911 -84.357627 -181.21415 -84.319038 -187.78134 C -84.309338 -189.30285 -84.007827 -190.80837 -83.43072 -192.21621 z M -107.22255 -134.72153 C -96.86955 -134.72153 -88.636481 -132.50312 -82.523282 -128.06612 C -76.410082 -123.62912 -73.353815 -117.66365 -73.353815 -110.17005 C -73.353815 -106.12745 -74.832754 -102.08523 -77.790754 -98.042627 C -80.748754 -94.000027 -84.643395 -90.696755 -89.474795 -88.133155 C -83.361595 -85.175155 -78.579384 -81.724298 -75.128384 -77.780298 C -71.578784 -73.836298 -69.804161 -68.758402 -69.804161 -62.546603 C -69.804161 -53.574003 -73.057723 -46.425283 -79.565323 -41.100883 C -86.072922 -35.875084 -94.848681 -33.262085 -105.89188 -33.262085 C -118.01968 -33.262085 -127.38629 -35.677788 -133.99249 -40.509188 C -140.50009 -45.340588 -143.75417 -52.242818 -143.75417 -61.215418 C -143.75417 -65.849618 -142.27523 -70.434534 -139.31723 -74.970134 C -136.35923 -79.604334 -132.2181 -83.69627 -126.8937 -87.24587 C -131.3307 -89.71087 -134.78156 -92.668747 -137.24656 -96.119747 C -139.71156 -99.570747 -140.94401 -103.85998 -140.94401 -108.98718 C -140.94401 -116.87518 -137.88722 -123.13633 -131.77402 -127.77053 C -125.66082 -132.40473 -117.47695 -134.72153 -107.22255 -134.72153 z M -29.279503 -134.57373 C -19.123703 -134.57373 -11.038736 -132.05964 -5.024136 -127.03104 C 0.9904637 -122.10104 3.9980523 -115.14961 3.9980523 -106.17701 C 3.9980523 -98.289015 0.9904637 -89.858651 -5.024136 -80.886052 C -11.038736 -72.012052 -20.948038 -61.314086 -34.752037 -48.791887 L 5.0331312 -48.791887 L 5.0331312 -34.297681 L -61.965363 -34.297681 L -61.965363 -42.875969 C -51.020764 -53.426168 -42.492011 -62.447901 -36.378811 -69.9415 C -30.265612 -77.4351 -25.87799 -84.33733 -23.215791 -90.64773 C -20.454991 -96.95813 -19.074441 -103.46525 -19.074441 -110.17005 C -19.074441 -120.81885 -22.624204 -126.14375 -29.723404 -126.14375 C -32.878603 -126.14375 -35.44189 -124.6643 -37.41389 -121.7063 C -39.38589 -118.8469 -40.371849 -115.29765 -40.371849 -111.05785 C -40.371849 -108.09985 -39.336696 -105.28956 -37.266096 -102.62736 C -38.942296 -101.04976 -40.865019 -99.817312 -43.034219 -98.929912 C -45.104819 -98.042512 -47.175643 -97.598727 -49.246243 -97.598727 C -52.795843 -97.598727 -55.75372 -98.683592 -58.12012 -100.85279 C -60.48652 -103.12059 -61.669774 -106.37415 -61.669774 -110.61395 C -61.669774 -115.14955 -60.338419 -119.24149 -57.676219 -122.88969 C -55.014019 -126.53789 -51.267478 -129.39738 -46.436079 -131.46798 C -41.506079 -133.53858 -35.787103 -134.57373 -29.279503 -134.57373 z M -107.22255 -124.22087 C -111.16655 -124.22087 -114.27253 -122.93923 -116.54033 -120.37563 C -118.80813 -117.91063 -119.94219 -114.55816 -119.94219 -110.31836 C -119.94219 -106.57156 -118.51244 -103.46559 -115.65304 -101.00059 C -112.69504 -98.634186 -108.40581 -96.267678 -102.78561 -93.901278 C -100.32061 -95.577478 -98.348693 -97.894792 -96.869693 -100.85279 C -95.390693 -103.81079 -94.651223 -106.96596 -94.651223 -110.31836 C -94.651223 -114.55816 -95.834478 -117.91063 -98.200878 -120.37563 C -100.46868 -122.93923 -103.47575 -124.22087 -107.22255 -124.22087 z M -113.28678 -81.182158 C -116.24478 -78.815758 -118.41399 -76.103854 -119.79439 -73.047254 C -121.17479 -69.990654 -121.86507 -66.342502 -121.86507 -62.102702 C -121.86507 -56.285302 -120.43532 -51.700386 -117.57592 -48.347986 C -114.71652 -45.094186 -110.82188 -43.467664 -105.89188 -43.467664 C -101.06048 -43.467664 -97.313423 -45.094186 -94.651223 -48.347986 C -91.890424 -51.601786 -90.509874 -56.137508 -90.509874 -61.954908 C -90.509874 -65.208707 -91.545545 -67.969289 -93.616145 -70.237089 C -95.588144 -72.603489 -98.102237 -74.526213 -101.15884 -76.005213 C -104.21544 -77.582813 -108.25818 -79.308758 -113.28678 -81.182158 z " /></g></svg>
