<?xml version="1.0" encoding="UTF-8" standalone="no"?>
<!-- Created with Inkscape (http://www.inkscape.org/) -->

<svg
   width="172.6701mm"
   height="172.6701mm"
   viewBox="0 0 172.6701 172.6701"
   version="1.1"
   id="svg1"
   xml:space="preserve"
   xmlns="http://www.w3.org/2000/svg"
   xmlns:svg="http://www.w3.org/2000/svg"><defs
     id="defs1" /><g
     id="layer1"
     transform="translate(157.25102,198.81012)"><path
       id="path5"
       style="fill:#ffffff;fill-opacity:1;stroke-width:0.805188;stroke-linecap:round;stroke-linejoin:round"
       d="M -2.0863309 -198.17657 L -10.088943 -183.11289 L -10.930235 -165.68398 L -19.198981 -165.68398 L -11.423229 -155.47426 L -12.166336 -140.07934 C -28.353216 -157.12094 -50.823548 -166.77435 -74.327399 -166.78417 C -103.64471 -166.77397 -130.92652 -151.79225 -146.66717 -127.05894 L -157.25102 -127.05894 L -149.61996 -115.86014 L -157.25102 -26.140039 L -8.5138455 -26.140039 L 15.419061 -26.140039 L 8.0799737 -154.80195 L 15.419061 -165.68398 L 7.4593397 -165.68398 L 6.4490654 -183.39297 L -2.0863309 -198.17657 z M -83.43072 -192.21621 C -85.584619 -189.65499 -86.77489 -186.4211 -86.795372 -183.07465 C -86.842092 -175.15518 -80.459903 -168.69733 -72.540428 -168.65072 C -64.621155 -168.60402 -58.163395 -174.98588 -58.116503 -182.90515 C -58.102813 -186.26049 -59.266203 -189.5144 -61.404157 -192.10045 C -60.83125 -190.6836 -60.536835 -189.16959 -60.537027 -187.64129 C -60.575787 -181.07411 -65.930869 -175.78172 -72.498054 -175.82031 C -79.065241 -175.85911 -84.357627 -181.21415 -84.319038 -187.78134 C -84.309338 -189.30285 -84.007827 -190.80837 -83.43072 -192.21621 z M -108.18425 -134.72153 C -97.831248 -134.72153 -89.59818 -132.50312 -83.48498 -128.06612 C -77.37178 -123.62912 -74.314997 -117.66365 -74.314997 -110.17005 C -74.314997 -106.12745 -75.793936 -102.08523 -78.751936 -98.042627 C -81.709935 -94.000027 -85.604577 -90.696755 -90.435977 -88.133155 C -84.322777 -85.175155 -79.541082 -81.724298 -76.090083 -77.780298 C -72.540483 -73.836298 -70.765343 -68.758402 -70.765343 -62.546603 C -70.765343 -53.574003 -74.019421 -46.425283 -80.527021 -41.100883 C -87.034621 -35.875084 -95.809863 -33.262085 -106.85306 -33.262085 C -118.98086 -33.262085 -128.34799 -35.677788 -134.95419 -40.509188 C -141.46179 -45.340588 -144.71535 -52.242818 -144.71535 -61.215418 C -144.71535 -65.849618 -143.23641 -70.434534 -140.27841 -74.970134 C -137.32041 -79.604334 -133.17928 -83.69627 -127.85488 -87.24587 C -132.29188 -89.71087 -135.74274 -92.668747 -138.20774 -96.119747 C -140.67274 -99.570747 -141.90519 -103.85998 -141.90519 -108.98718 C -141.90519 -116.87518 -138.84892 -123.13633 -132.73572 -127.77053 C -126.62252 -132.40473 -118.43865 -134.72153 -108.18425 -134.72153 z M -50.651325 -133.39086 L -43.255911 -133.24255 C -32.804311 -133.04535 -27.283147 -132.94696 -26.691547 -132.94696 L -5.6897285 -133.24255 L -1.4005846 -130.13679 L -2.7317695 -118.89665 L -39.410668 -118.89665 L -41.481342 -94.196867 C -36.354142 -95.478667 -31.720032 -96.119747 -27.578832 -96.119747 C -17.817432 -96.119747 -9.8800482 -93.506749 -3.7668485 -88.280949 C 2.4449513 -83.153749 5.5509291 -75.610956 5.5509291 -65.652356 C 5.5509291 -59.440557 4.0719905 -53.869681 1.1139906 -48.939681 C -1.7454093 -44.009682 -5.8865407 -40.11504 -11.309541 -37.25564 C -16.73254 -34.49484 -23.141791 -33.114291 -30.536791 -33.114291 C -36.55139 -33.114291 -42.023877 -33.952666 -46.953876 -35.628866 C -51.785276 -37.305066 -55.581012 -39.621863 -58.341812 -42.579863 C -61.102612 -45.636463 -62.483161 -49.038125 -62.483161 -52.784925 C -62.483161 -56.728925 -61.398296 -59.736513 -59.229096 -61.807113 C -57.059896 -63.976313 -54.397703 -65.060661 -51.242504 -65.060661 C -49.467704 -65.060661 -47.693081 -64.715782 -45.918281 -64.025582 C -44.044881 -63.335382 -42.368647 -62.349423 -40.889647 -61.067623 C -41.777047 -58.997023 -42.220832 -56.82781 -42.220832 -54.56001 C -42.220832 -51.30621 -41.284068 -48.644017 -39.410668 -46.573418 C -37.438668 -44.502818 -34.480791 -43.467664 -30.536791 -43.467664 C -21.662791 -43.467664 -17.225975 -50.862357 -17.225975 -65.652356 C -17.225975 -72.652956 -18.606008 -77.730852 -21.366808 -80.886052 C -24.127608 -84.139852 -27.825471 -85.766891 -32.459671 -85.766891 C -35.319071 -85.766891 -38.375337 -85.224717 -41.629137 -84.140117 C -44.882937 -83.055517 -48.087304 -81.526867 -51.242504 -79.554867 L -59.377408 -87.393665 L -55.531647 -129.3973 L -50.651325 -133.39086 z M -108.18425 -124.22087 C -112.12825 -124.22087 -115.23423 -122.93923 -117.50203 -120.37563 C -119.76982 -117.91063 -120.90337 -114.55816 -120.90337 -110.31836 C -120.90337 -106.57156 -119.47414 -103.46559 -116.61474 -101.00059 C -113.65674 -98.634186 -109.36751 -96.267678 -103.74731 -93.901278 C -101.28231 -95.577478 -99.310391 -97.894792 -97.831391 -100.85279 C -96.352391 -103.81079 -95.612922 -106.96596 -95.612922 -110.31836 C -95.612922 -114.55816 -96.795659 -117.91063 -99.162059 -120.37563 C -101.42986 -122.93923 -104.43745 -124.22087 -108.18425 -124.22087 z M -114.24796 -81.182158 C -117.20596 -78.815758 -119.37517 -76.103854 -120.75557 -73.047254 C -122.13597 -69.990654 -122.82625 -66.342502 -122.82625 -62.102702 C -122.82625 -56.285302 -121.3965 -51.700386 -118.5371 -48.347986 C -115.6777 -45.094186 -111.78306 -43.467664 -106.85306 -43.467664 C -102.02166 -43.467664 -98.275122 -45.094186 -95.612922 -48.347986 C -92.852122 -51.601786 -91.471573 -56.137508 -91.471573 -61.954908 C -91.471573 -65.208707 -92.506726 -67.969289 -94.577326 -70.237089 C -96.549326 -72.603489 -99.063935 -74.526213 -102.12053 -76.005213 C -105.17713 -77.582813 -109.21936 -79.308758 -114.24796 -81.182158 z " /></g></svg>
