<?xml version="1.0" encoding="UTF-8" standalone="no"?>
<!-- Created with Inkscape (http://www.inkscape.org/) -->

<svg
   width="172.6701mm"
   height="172.6701mm"
   viewBox="0 0 172.6701 172.6701"
   version="1.1"
   id="svg1"
   xml:space="preserve"
   xmlns="http://www.w3.org/2000/svg"
   xmlns:svg="http://www.w3.org/2000/svg"><defs
     id="defs1" /><g
     id="layer1"
     transform="translate(157.25102,198.81012)"><path
       id="path5"
       style="fill:#ffffff;fill-opacity:1;stroke-width:0.805188;stroke-linecap:round;stroke-linejoin:round"
       d="M -2.0863309 -198.17657 L -10.088943 -183.11289 L -10.930235 -165.68398 L -19.198981 -165.68398 L -11.423229 -155.47426 L -12.166336 -140.07934 C -28.353216 -157.12094 -50.823548 -166.77435 -74.327399 -166.78417 C -103.64471 -166.77397 -130.92652 -151.79225 -146.66717 -127.05894 L -157.25102 -127.05894 L -149.61996 -115.86014 L -157.25102 -26.140039 L -8.5138455 -26.140039 L 15.419061 -26.140039 L 8.0799737 -154.80195 L 15.419061 -165.68398 L 7.4593397 -165.68398 L 6.4490654 -183.39297 L -2.0863309 -198.17657 z M -83.43072 -192.21621 C -85.584619 -189.65499 -86.77489 -186.4211 -86.795372 -183.07465 C -86.842092 -175.15518 -80.459903 -168.69733 -72.540428 -168.65072 C -64.621155 -168.60402 -58.163395 -174.98588 -58.116503 -182.90515 C -58.102813 -186.26049 -59.266203 -189.5144 -61.404157 -192.10045 C -60.83125 -190.6836 -60.536835 -189.16959 -60.537027 -187.64129 C -60.575787 -181.07411 -65.930869 -175.78172 -72.498054 -175.82031 C -79.065241 -175.85911 -84.357627 -181.21415 -84.319038 -187.78134 C -84.309338 -189.30285 -84.007827 -190.80837 -83.43072 -192.21621 z M -8.0559923 -134.86984 L -4.5063382 -127.47442 C -24.423537 -118.89622 -36.403147 -105.68416 -40.445747 -87.837565 C -34.726947 -90.598365 -29.304172 -91.978398 -24.176972 -91.978398 C -14.316973 -91.978398 -6.5768838 -89.316205 -0.95668406 -83.991805 C 4.7621157 -78.667406 7.6216037 -71.470008 7.6216037 -62.398808 C 7.6216037 -56.778608 6.0929537 -51.749907 3.0363539 -47.312907 C 0.078353983 -42.875907 -4.111972 -39.425051 -9.5349718 -36.960051 C -14.859372 -34.495051 -20.972421 -33.262085 -27.874421 -33.262085 C -39.60782 -33.262085 -48.629553 -36.516164 -54.939952 -43.023763 C -61.151752 -49.531363 -64.25773 -58.947686 -64.25773 -71.272685 C -64.25773 -86.752884 -59.476035 -99.915748 -49.911835 -110.76175 C -40.249036 -121.70635 -26.296992 -129.74264 -8.0559923 -134.86984 z M -109.51543 -134.72153 C -99.162433 -134.72153 -90.929365 -132.50312 -84.816165 -128.06612 C -78.702965 -123.62912 -75.646182 -117.66365 -75.646182 -110.17005 C -75.646182 -106.12745 -77.125121 -102.08523 -80.08312 -98.042627 C -83.04112 -94.000027 -86.935762 -90.696755 -91.767162 -88.133155 C -85.653962 -85.175155 -80.87175 -81.724298 -77.420751 -77.780298 C -73.871151 -73.836298 -72.096528 -68.758402 -72.096528 -62.546603 C -72.096528 -53.574003 -75.350606 -46.425283 -81.858206 -41.100883 C -88.365806 -35.875084 -97.141048 -33.262085 -108.18425 -33.262085 C -120.31205 -33.262085 -129.67917 -35.677788 -136.28537 -40.509188 C -142.79297 -45.340588 -146.04654 -52.242818 -146.04654 -61.215418 C -146.04654 -65.849618 -144.5676 -70.434534 -141.6096 -74.970134 C -138.6516 -79.604334 -134.51047 -83.69627 -129.18607 -87.24587 C -133.62307 -89.71087 -137.07392 -92.668747 -139.53892 -96.119747 C -142.00392 -99.570747 -143.23637 -103.85998 -143.23637 -108.98718 C -143.23637 -116.87518 -140.18011 -123.13633 -134.06691 -127.77053 C -127.95371 -132.40473 -119.76983 -134.72153 -109.51543 -134.72153 z M -109.51543 -124.22087 C -113.45943 -124.22087 -116.56541 -122.93923 -118.83321 -120.37563 C -121.10101 -117.91063 -122.23455 -114.55816 -122.23455 -110.31836 C -122.23455 -106.57156 -120.80481 -103.46559 -117.94541 -101.00059 C -114.98741 -98.634186 -110.69869 -96.267678 -105.07849 -93.901278 C -102.61349 -95.577478 -100.64106 -97.894792 -99.162059 -100.85279 C -97.683059 -103.81079 -96.94359 -106.96596 -96.94359 -110.31836 C -96.94359 -114.55816 -98.126844 -117.91063 -100.49324 -120.37563 C -102.76104 -122.93923 -105.76863 -124.22087 -109.51543 -124.22087 z M -28.318321 -81.625542 C -32.459521 -81.625542 -36.945532 -79.949308 -41.776931 -76.596908 L -41.776931 -74.674545 C -41.776931 -63.927145 -40.593677 -56.038956 -38.227277 -51.010356 C -35.860877 -45.981756 -32.114336 -43.467664 -26.987137 -43.467664 C -22.747337 -43.467664 -19.493258 -45.094186 -17.225458 -48.347986 C -14.957659 -51.601786 -13.824116 -56.235897 -13.824116 -62.250497 C -13.824116 -68.363697 -15.105759 -73.096713 -17.669359 -76.449113 C -20.134359 -79.900113 -23.684122 -81.625542 -28.318321 -81.625542 z M -115.57915 -81.182158 C -118.53714 -78.815758 -120.70636 -76.103854 -122.08676 -73.047254 C -123.46716 -69.990654 -124.15743 -66.342502 -124.15743 -62.102702 C -124.15743 -56.285302 -122.72769 -51.700386 -119.86829 -48.347986 C -117.00889 -45.094186 -113.11425 -43.467664 -108.18425 -43.467664 C -103.35285 -43.467664 -99.60579 -45.094186 -96.94359 -48.347986 C -94.18279 -51.601786 -92.802757 -56.137508 -92.802757 -61.954908 C -92.802757 -65.208707 -93.837911 -67.969289 -95.908511 -70.237089 C -97.880511 -72.603489 -100.3946 -74.526213 -103.4512 -76.005213 C -106.5078 -77.582813 -110.55055 -79.308758 -115.57915 -81.182158 z " /></g></svg>
