<?xml version="1.0" encoding="UTF-8" standalone="no"?>
<!-- Created with Inkscape (http://www.inkscape.org/) -->

<svg
   width="172.6701mm"
   height="172.6701mm"
   viewBox="0 0 172.6701 172.6701"
   version="1.1"
   id="svg1"
   xml:space="preserve"
   xmlns="http://www.w3.org/2000/svg"
   xmlns:svg="http://www.w3.org/2000/svg"><defs
     id="defs1" /><g
     id="layer1"
     transform="translate(157.25102,198.81012)"><path
       id="path5"
       style="fill:#ffffff;fill-opacity:1;stroke-width:0.805188;stroke-linecap:round;stroke-linejoin:round"
       d="M -2.0863309 -198.17657 L -10.088943 -183.11289 L -10.930235 -165.68398 L -19.198981 -165.68398 L -11.423229 -155.47426 L -12.166336 -140.07934 C -28.353216 -157.12094 -50.823548 -166.77435 -74.327399 -166.78417 C -103.64471 -166.77397 -130.92652 -151.79225 -146.66717 -127.05894 L -157.25102 -127.05894 L -149.61996 -115.86014 L -157.25102 -26.140039 L -8.5138455 -26.140039 L 15.419061 -26.140039 L 8.0799737 -154.80195 L 15.419061 -165.68398 L 7.4593397 -165.68398 L 6.4490654 -183.39297 L -2.0863309 -198.17657 z M -83.43072 -192.21621 C -85.584619 -189.65499 -86.77489 -186.4211 -86.795372 -183.07465 C -86.842092 -175.15518 -80.459903 -168.69733 -72.540428 -168.65072 C -64.621155 -168.60402 -58.163395 -174.98588 -58.116503 -182.90515 C -58.102813 -186.26049 -59.266203 -189.5144 -61.404157 -192.10045 C -60.83125 -190.6836 -60.536835 -189.16959 -60.537027 -187.64129 C -60.575787 -181.07411 -65.930869 -175.78172 -72.498054 -175.82031 C -79.065241 -175.85911 -84.357627 -181.21415 -84.319038 -187.78134 C -84.309338 -189.30285 -84.007827 -190.80837 -83.43072 -192.21621 z M -110.8461 -134.72153 C -100.4931 -134.72153 -92.260033 -132.50312 -86.146833 -128.06612 C -80.033633 -123.62912 -76.977367 -117.66365 -76.977367 -110.17005 C -76.977367 -106.12745 -78.456305 -102.08523 -81.414305 -98.042627 C -84.372305 -94.000027 -88.266947 -90.696755 -93.098347 -88.133155 C -86.985147 -85.175155 -82.202935 -81.724298 -78.751936 -77.780298 C -75.202336 -73.836298 -73.427713 -68.758402 -73.427713 -62.546603 C -73.427713 -53.574003 -76.681274 -46.425283 -83.188874 -41.100883 C -89.696474 -35.875084 -98.472233 -33.262085 -109.51543 -33.262085 C -121.64323 -33.262085 -131.00984 -35.677788 -137.61604 -40.509188 C -144.12364 -45.340588 -147.37772 -52.242818 -147.37772 -61.215418 C -147.37772 -65.849618 -145.89878 -70.434534 -142.94078 -74.970134 C -139.98278 -79.604334 -135.84165 -83.69627 -130.51725 -87.24587 C -134.95425 -89.71087 -138.40511 -92.668747 -140.87011 -96.119747 C -143.33511 -99.570747 -144.56756 -103.85998 -144.56756 -108.98718 C -144.56756 -116.87518 -141.51077 -123.13633 -135.39757 -127.77053 C -129.28437 -132.40473 -121.1005 -134.72153 -110.8461 -134.72153 z M -28.613911 -134.72153 C -18.260911 -134.72153 -10.027843 -132.50312 -3.914643 -128.06612 C 2.1985567 -123.62912 5.2553399 -117.66365 5.2553399 -110.17005 C 5.2553399 -106.12745 3.7758845 -102.08523 0.81788462 -98.042627 C -2.1401153 -94.000027 -6.0347569 -90.696755 -10.866157 -88.133155 C -4.752957 -85.175155 0.029254556 -81.724298 3.4802544 -77.780298 C 7.0298543 -73.836298 8.8044772 -68.758402 8.8044772 -62.546603 C 8.8044772 -53.574003 5.5509157 -46.425283 -0.95668406 -41.100883 C -7.4642838 -35.875084 -16.239526 -33.262085 -27.282726 -33.262085 C -39.410525 -33.262085 -48.777653 -35.677788 -55.383853 -40.509188 C -61.891453 -45.340588 -65.145531 -52.242818 -65.145531 -61.215418 C -65.145531 -65.849618 -63.666076 -70.434534 -60.708076 -74.970134 C -57.750076 -79.604334 -53.608944 -83.69627 -48.284545 -87.24587 C -52.721544 -89.71087 -56.172918 -92.668747 -58.637918 -96.119747 C -61.102918 -99.570747 -62.335367 -103.85998 -62.335367 -108.98718 C -62.335367 -116.87518 -59.278583 -123.13633 -53.165384 -127.77053 C -47.052184 -132.40473 -38.86831 -134.72153 -28.613911 -134.72153 z M -110.8461 -124.22087 C -114.7901 -124.22087 -117.89608 -122.93923 -120.16388 -120.37563 C -122.43168 -117.91063 -123.56574 -114.55816 -123.56574 -110.31836 C -123.56574 -106.57156 -122.13599 -103.46559 -119.27659 -101.00059 C -116.31859 -98.634186 -112.02936 -96.267678 -106.40916 -93.901278 C -103.94416 -95.577478 -101.97224 -97.894792 -100.49324 -100.85279 C -99.014244 -103.81079 -98.274775 -106.96596 -98.274775 -110.31836 C -98.274775 -114.55816 -99.458029 -117.91063 -101.82443 -120.37563 C -104.09223 -122.93923 -107.0993 -124.22087 -110.8461 -124.22087 z M -28.613911 -124.22087 C -32.55791 -124.22087 -35.663888 -122.93923 -37.931688 -120.37563 C -40.199488 -117.91063 -41.333548 -114.55816 -41.333548 -110.31836 C -41.333548 -106.57156 -39.903804 -103.46559 -37.044404 -101.00059 C -34.086404 -98.634186 -29.797172 -96.267678 -24.176972 -93.901278 C -21.711972 -95.577478 -19.740054 -97.894792 -18.261054 -100.85279 C -16.782054 -103.81079 -16.042585 -106.96596 -16.042585 -110.31836 C -16.042585 -114.55816 -17.225839 -117.91063 -19.592239 -120.37563 C -21.860039 -122.93923 -24.867111 -124.22087 -28.613911 -124.22087 z M -116.91033 -81.182158 C -119.86833 -78.815758 -122.03754 -76.103854 -123.41794 -73.047254 C -124.79834 -69.990654 -125.48862 -66.342502 -125.48862 -62.102702 C -125.48862 -56.285302 -124.05887 -51.700386 -121.19947 -48.347986 C -118.34007 -45.094186 -114.44543 -43.467664 -109.51543 -43.467664 C -104.68403 -43.467664 -100.93697 -45.094186 -98.274775 -48.347986 C -95.513975 -51.601786 -94.133426 -56.137508 -94.133426 -61.954908 C -94.133426 -65.208707 -95.169096 -67.969289 -97.239696 -70.237089 C -99.211696 -72.603489 -101.72579 -74.526213 -104.78239 -76.005213 C -107.83899 -77.582813 -111.88173 -79.308758 -116.91033 -81.182158 z M -34.677623 -81.182158 C -37.635623 -78.815758 -39.804836 -76.103854 -41.185236 -73.047254 C -42.565636 -69.990654 -43.255911 -66.342502 -43.255911 -62.102702 C -43.255911 -56.285302 -41.826167 -51.700386 -38.966767 -48.347986 C -36.107367 -45.094186 -32.212726 -43.467664 -27.282726 -43.467664 C -22.451326 -43.467664 -18.704785 -45.094186 -16.042585 -48.347986 C -13.281785 -51.601786 -11.901236 -56.137508 -11.901236 -61.954908 C -11.901236 -65.208707 -12.936389 -67.969289 -15.006989 -70.237089 C -16.978989 -72.603489 -19.493598 -74.526213 -22.550198 -76.005213 C -25.606798 -77.582813 -29.649023 -79.308758 -34.677623 -81.182158 z " /></g></svg>
