<?xml version="1.0" encoding="UTF-8" standalone="no"?>
<!-- Created with Inkscape (http://www.inkscape.org/) -->

<svg
   width="172.6701mm"
   height="172.6701mm"
   viewBox="0 0 172.6701 172.6701"
   version="1.1"
   id="svg1"
   xml:space="preserve"
   xmlns="http://www.w3.org/2000/svg"
   xmlns:svg="http://www.w3.org/2000/svg"><defs
     id="defs1" /><g
     id="layer1"
     transform="translate(157.25102,198.81012)"><path
       id="path5"
       style="fill:#ffffff;fill-opacity:1;stroke-width:0.805188;stroke-linecap:round;stroke-linejoin:round"
       d="M -2.0863309 -198.17657 L -10.088943 -183.11289 L -10.930235 -165.68398 L -19.198981 -165.68398 L -11.423229 -155.47426 L -12.166336 -140.07934 C -28.353216 -157.12094 -50.823548 -166.77435 -74.327399 -166.78417 C -103.64471 -166.77397 -130.92652 -151.79225 -146.66717 -127.05894 L -157.25102 -127.05894 L -149.61996 -115.86014 L -157.25102 -26.140039 L -8.5138455 -26.140039 L 15.419061 -26.140039 L 8.0799737 -154.80195 L 15.419061 -165.68398 L 7.4593397 -165.68398 L 6.4490654 -183.39297 L -2.0863309 -198.17657 z M -83.43072 -192.21621 C -85.584619 -189.65499 -86.77489 -186.4211 -86.795372 -183.07465 C -86.842092 -175.15518 -80.459903 -168.69733 -72.540428 -168.65072 C -64.621155 -168.60402 -58.163395 -174.98588 -58.116503 -182.90515 C -58.102813 -186.26049 -59.266203 -189.5144 -61.404157 -192.10045 C -60.83125 -190.6836 -60.536835 -189.16959 -60.537027 -187.64129 C -60.575787 -181.07411 -65.930869 -175.78172 -72.498054 -175.82031 C -79.065241 -175.85911 -84.357627 -181.21415 -84.319038 -187.78134 C -84.309338 -189.30285 -84.007827 -190.80837 -83.43072 -192.21621 z M -90.656118 -146.60297 C -79.527448 -146.60297 -70.677533 -144.21832 -64.106318 -139.44889 C -57.535103 -134.67946 -54.249555 -128.26737 -54.249555 -120.21233 C -54.249555 -115.86685 -55.83967 -111.5214 -59.01929 -107.17592 C -62.19891 -102.83044 -66.385351 -99.279528 -71.57873 -96.523857 C -65.007515 -93.344237 -59.867006 -89.634831 -56.157449 -85.395337 C -52.341905 -81.155844 -50.434284 -75.697312 -50.434284 -69.020109 C -50.434284 -59.375262 -53.931503 -51.691603 -60.926667 -45.968287 C -67.921831 -40.350958 -77.355133 -37.541927 -89.225715 -37.541927 C -102.26216 -37.541927 -112.33099 -40.13877 -119.43214 -45.33215 C -126.4273 -50.525529 -129.92452 -57.944858 -129.92452 -67.589706 C -129.92452 -72.571111 -128.33492 -77.499432 -125.1553 -82.37485 C -121.97568 -87.356255 -117.5244 -91.754366 -111.80108 -95.56991 C -116.57051 -98.219593 -120.27992 -101.39931 -122.9296 -105.10886 C -125.57928 -108.81842 -126.90404 -113.42924 -126.90404 -118.94058 C -126.90404 -127.41956 -123.61849 -134.14967 -117.04727 -139.13108 C -110.47606 -144.11248 -101.6788 -146.60297 -90.656118 -146.60297 z M -90.656118 -135.31529 C -94.895612 -135.31529 -98.234336 -133.93736 -100.67204 -131.18169 C -103.10975 -128.53201 -104.32867 -124.92844 -104.32867 -120.37098 C -104.32867 -116.34346 -102.79173 -113.00525 -99.718098 -110.35557 C -96.538478 -107.81187 -91.928179 -105.26821 -85.886901 -102.72451 C -83.237217 -104.5263 -81.117409 -107.01679 -79.527599 -110.19641 C -77.937789 -113.37603 -77.142731 -116.76741 -77.142731 -120.37098 C -77.142731 -124.92844 -78.414823 -128.53201 -80.958519 -131.18169 C -83.396228 -133.93736 -86.6286 -135.31529 -90.656118 -135.31529 z M -22.2944 -111.94514 C -18.584843 -111.94514 -15.829506 -110.83257 -14.027721 -108.60684 C -12.119949 -106.48709 -11.16588 -103.51905 -11.16588 -99.703508 C -11.16588 -95.887964 -12.119949 -92.920439 -14.027721 -90.800692 C -15.829506 -88.680945 -18.584843 -87.621041 -22.2944 -87.621041 C -26.003956 -87.621041 -28.812987 -88.680945 -30.720759 -90.800692 C -32.522543 -93.026426 -33.423436 -95.993951 -33.423436 -99.703508 C -33.423436 -103.62504 -32.522543 -106.64574 -30.720759 -108.76549 C -28.812987 -110.88523 -26.003956 -111.94514 -22.2944 -111.94514 z M -97.174584 -89.051962 C -100.3542 -86.508266 -102.68568 -83.5934 -104.16951 -80.307793 C -105.65333 -77.022185 -106.39573 -73.100591 -106.39573 -68.543136 C -106.39573 -62.289883 -104.85879 -57.361561 -101.78515 -53.757992 C -98.711522 -50.26041 -94.525082 -48.511801 -89.225715 -48.511801 C -84.032335 -48.511801 -80.004389 -50.26041 -77.142731 -53.757992 C -74.175086 -57.255574 -72.691324 -62.131237 -72.691324 -68.384489 C -72.691324 -71.882071 -73.804404 -74.849596 -76.030138 -77.287305 C -78.149885 -79.831001 -80.852563 -81.897633 -84.13817 -83.487443 C -87.423777 -85.183241 -91.76923 -87.038202 -97.174584 -89.051962 z M -22.2944 -61.866024 C -18.584843 -61.866024 -15.829506 -60.753461 -14.027721 -58.527727 C -12.119949 -56.40798 -11.16588 -53.439938 -11.16588 -49.624394 C -11.16588 -45.80885 -12.119949 -42.841325 -14.027721 -40.721578 C -15.829506 -38.601832 -18.584843 -37.541927 -22.2944 -37.541927 C -26.003956 -37.541927 -28.812987 -38.601832 -30.720759 -40.721578 C -32.522543 -42.947312 -33.423436 -45.914837 -33.423436 -49.624394 C -33.423436 -53.545925 -32.522543 -56.566627 -30.720759 -58.686373 C -28.812987 -60.80612 -26.003956 -61.866024 -22.2944 -61.866024 z " /></g></svg>
