<?xml version="1.0" encoding="UTF-8" standalone="no"?>
<!-- Created with Inkscape (http://www.inkscape.org/) -->

<svg
   width="172.6701mm"
   height="172.6701mm"
   viewBox="0 0 172.6701 172.6701"
   version="1.1"
   id="svg1"
   xml:space="preserve"
   xmlns="http://www.w3.org/2000/svg"
   xmlns:svg="http://www.w3.org/2000/svg"><defs
     id="defs1" /><g
     id="layer1"
     transform="translate(157.25102,198.81012)"><path
       id="path5"
       style="fill:#ffffff;fill-opacity:1;stroke-width:0.805188;stroke-linecap:round;stroke-linejoin:round"
       d="M -2.0863309 -198.17657 L -10.088943 -183.11289 L -10.930235 -165.68398 L -19.198981 -165.68398 L -11.423229 -155.47426 L -12.166336 -140.07934 C -28.353216 -157.12094 -50.823548 -166.77435 -74.327399 -166.78417 C -103.64471 -166.77397 -130.92652 -151.79225 -146.66717 -127.05894 L -157.25102 -127.05894 L -149.61996 -115.86014 L -157.25102 -26.140039 L -8.5138455 -26.140039 L 15.419061 -26.140039 L 8.0799737 -154.80195 L 15.419061 -165.68398 L 7.4593397 -165.68398 L 6.4490654 -183.39297 L -2.0863309 -198.17657 z M -83.43072 -192.21621 C -85.584619 -189.65499 -86.77489 -186.4211 -86.795372 -183.07465 C -86.842092 -175.15518 -80.459903 -168.69733 -72.540428 -168.65072 C -64.621155 -168.60402 -58.163395 -174.98588 -58.116503 -182.90515 C -58.102813 -186.26049 -59.266203 -189.5144 -61.404157 -192.10045 C -60.83125 -190.6836 -60.536835 -189.16959 -60.537027 -187.64129 C -60.575787 -181.07411 -65.930869 -175.78172 -72.498054 -175.82031 C -79.065241 -175.85911 -84.357627 -181.21415 -84.319038 -187.78134 C -84.309338 -189.30285 -84.007827 -190.80837 -83.43072 -192.21621 z M -125.7439 -119.81908 C -119.7919 -119.81908 -115.05825 -118.54381 -111.54373 -115.99295 C -108.02922 -113.44209 -106.27222 -110.01229 -106.27222 -105.70418 C -106.27222 -103.38006 -107.1224 -101.05611 -108.82297 -98.731991 C -110.52354 -96.407876 -112.76279 -94.50901 -115.54039 -93.035181 C -112.02587 -91.334609 -109.27631 -89.350519 -107.29231 -87.08309 C -105.25163 -84.81566 -104.23152 -81.896169 -104.23152 -78.324968 C -104.23152 -73.166566 -106.10232 -69.057034 -109.84358 -65.996005 C -113.58484 -62.991661 -118.62977 -61.489303 -124.97857 -61.489303 C -131.95092 -61.489303 -137.33571 -62.878373 -141.13366 -65.655974 C -144.87492 -68.433575 -146.74572 -72.401238 -146.74572 -77.55964 C -146.74572 -80.223869 -145.89554 -82.86014 -144.19497 -85.467684 C -142.4944 -88.131914 -140.11328 -90.483931 -137.05225 -92.524618 C -139.60311 -93.941761 -141.5872 -95.642631 -143.00434 -97.626632 C -144.42149 -99.610633 -145.13031 -102.07646 -145.13031 -105.02411 C -145.13031 -109.55897 -143.3728 -113.15871 -139.85828 -115.82294 C -136.34377 -118.48717 -131.63922 -119.81908 -125.7439 -119.81908 z M -12.145148 -119.73381 C -8.4605756 -119.73381 -5.2012207 -119.11073 -2.3669339 -117.86364 C 0.46735285 -116.67324 2.6780188 -114.97237 4.2652194 -112.76163 C 5.85242 -110.60757 6.6459527 -108.11368 6.6459527 -105.27939 C 6.6459527 -102.10499 5.7105516 -99.384015 3.8399224 -97.116586 C 1.9692931 -94.849156 -0.80832954 -93.120223 -4.4929023 -91.929822 C 0.15532795 -90.909479 3.4146829 -89.237189 5.2853122 -86.913074 C 7.1559415 -84.588959 8.0913425 -81.442892 8.0913425 -77.474891 C 8.0913425 -74.017061 7.0426535 -71.069506 4.9452813 -68.632019 C 2.9045948 -66.194533 0.24026012 -64.380375 -3.0475125 -63.189974 C -6.3352851 -61.999574 -9.7359917 -61.404554 -13.250507 -61.404554 C -18.352223 -61.404554 -22.688848 -62.453243 -26.260049 -64.550615 C -29.774565 -66.647987 -31.532079 -69.510317 -31.532079 -73.138204 C -31.532079 -75.235577 -30.908478 -76.851222 -29.661392 -77.984937 C -28.414306 -79.175337 -26.855304 -79.770358 -24.984675 -79.770358 C -23.05736 -79.770358 -21.10185 -79.005405 -19.117849 -77.474891 C -19.628021 -76.397862 -19.883177 -75.094016 -19.883177 -73.563501 C -19.883177 -71.749558 -19.344284 -70.275781 -18.267255 -69.142066 C -17.133541 -68.008351 -15.461251 -67.441394 -13.250507 -67.441394 C -8.3755341 -67.441394 -5.9382921 -70.814037 -5.9382921 -77.55964 C -5.9382921 -81.244213 -7.1288495 -84.10706 -9.5096504 -86.147746 C -11.833766 -88.188433 -15.149764 -89.208541 -19.45788 -89.208541 L -19.45788 -94.480571 C -11.125077 -95.1608 -6.9583849 -98.760535 -6.9583849 -105.27939 C -6.9583849 -108.56717 -7.4686976 -110.97583 -8.4890408 -112.50634 C -9.5093841 -114.09354 -10.898454 -114.88759 -12.655712 -114.88759 C -14.753084 -114.88759 -16.340149 -114.15071 -17.417178 -112.67688 C -18.437521 -111.20305 -18.947834 -109.41747 -18.947834 -107.3201 C -18.947834 -105.44947 -18.550809 -103.77718 -17.757209 -102.30335 C -19.34441 -100.60278 -21.385144 -99.752084 -23.879316 -99.752084 C -26.146745 -99.752084 -27.903743 -100.43233 -29.150829 -101.79279 C -30.397915 -103.15324 -31.021516 -104.91076 -31.021516 -107.06482 C -31.021516 -109.8991 -30.058051 -112.25164 -28.130736 -114.12227 C -26.146735 -116.04958 -23.709493 -117.46671 -20.818521 -118.37369 C -17.870863 -119.28066 -14.979435 -119.73381 -12.145148 -119.73381 z M -55.339928 -119.64906 C -48.707697 -119.64906 -43.634184 -117.15466 -40.119668 -112.16631 C -36.548467 -107.23465 -34.762889 -100.06428 -34.762889 -90.654448 C -34.762889 -81.244616 -36.548467 -74.017081 -40.119668 -68.97205 C -43.634184 -63.983706 -48.707697 -61.489303 -55.339928 -61.489303 C -61.972159 -61.489303 -67.073736 -63.983706 -70.644937 -68.97205 C -74.216138 -74.017081 -76.001716 -81.244616 -76.001716 -90.654448 C -76.001716 -100.00759 -74.216138 -107.17797 -70.644937 -112.16631 C -67.073736 -117.15466 -61.972159 -119.64906 -55.339928 -119.64906 z M -55.339928 -115.31237 C -58.2309 -115.31237 -60.328278 -113.41351 -61.63205 -109.61556 C -62.879136 -105.81762 -63.502737 -99.497422 -63.502737 -90.654448 C -63.502737 -81.868159 -62.879136 -75.576025 -61.63205 -71.778081 C -60.328278 -68.036822 -58.2309 -66.16602 -55.339928 -66.16602 C -52.448955 -66.16602 -50.380158 -68.036822 -49.133072 -71.778081 C -47.8293 -75.576025 -47.177119 -81.868159 -47.177119 -90.654448 C -47.177119 -99.440737 -47.8293 -105.73287 -49.133072 -109.53081 C -50.380158 -113.38544 -52.448955 -115.31237 -55.339928 -115.31237 z M -125.7439 -113.78224 C -128.01133 -113.78224 -129.79691 -113.04535 -131.10068 -111.57152 C -132.40445 -110.15437 -133.05611 -108.22693 -133.05611 -105.78944 C -133.05611 -103.63538 -132.234 -101.84981 -130.59012 -100.43266 C -128.88954 -99.072205 -126.42372 -97.711715 -123.19263 -96.351258 C -121.77549 -97.314915 -120.64209 -98.646824 -119.79181 -100.3474 C -118.94152 -102.04797 -118.51643 -103.86213 -118.51643 -105.78944 C -118.51643 -108.22693 -119.19668 -110.15437 -120.55714 -111.57152 C -121.86091 -113.04535 -123.58984 -113.78224 -125.7439 -113.78224 z M -89.181273 -101.28274 C -87.197272 -101.28274 -85.723495 -100.68772 -84.759838 -99.497319 C -83.739494 -98.363604 -83.229182 -96.776539 -83.229182 -94.735852 C -83.229182 -92.695166 -83.739494 -91.107584 -84.759838 -89.973869 C -85.723495 -88.840154 -87.197272 -88.273198 -89.181273 -88.273198 C -91.165274 -88.273198 -92.667632 -88.840154 -93.687975 -89.973869 C -94.651632 -91.16427 -95.133365 -92.751852 -95.133365 -94.735852 C -95.133365 -96.833225 -94.651632 -98.448354 -93.687975 -99.582068 C -92.667632 -100.71578 -91.165274 -101.28274 -89.181273 -101.28274 z M -129.22999 -89.038526 C -130.93056 -87.678068 -132.17776 -86.119583 -132.97137 -84.362325 C -133.76497 -82.605068 -134.16147 -80.50769 -134.16147 -78.070203 C -134.16147 -74.725745 -133.33936 -72.089474 -131.69547 -70.162159 C -130.05159 -68.291529 -127.81286 -67.356645 -124.97857 -67.356645 C -122.20097 -67.356645 -120.04695 -68.291529 -118.51643 -70.162159 C -116.92923 -72.032788 -116.1357 -74.640479 -116.1357 -77.984937 C -116.1357 -79.855566 -116.73072 -81.442631 -117.92112 -82.746403 C -119.05484 -84.106861 -120.50003 -85.212194 -122.25729 -86.06248 C -124.01455 -86.969452 -126.33902 -87.961497 -129.22999 -89.038526 z M -89.181273 -74.498845 C -87.197272 -74.498845 -85.723495 -73.903824 -84.759838 -72.713424 C -83.739494 -71.579709 -83.229182 -69.992127 -83.229182 -67.951441 C -83.229182 -65.910754 -83.739494 -64.323689 -84.759838 -63.189974 C -85.723495 -62.05626 -87.197272 -61.489303 -89.181273 -61.489303 C -91.165274 -61.489303 -92.667632 -62.05626 -93.687975 -63.189974 C -94.651632 -64.380375 -95.133365 -65.96744 -95.133365 -67.951441 C -95.133365 -70.048813 -94.651632 -71.664459 -93.687975 -72.798173 C -92.667632 -73.931888 -91.165274 -74.498845 -89.181273 -74.498845 z " /></g></svg>
