<?xml version="1.0" encoding="UTF-8" standalone="no"?>
<!-- Created with Inkscape (http://www.inkscape.org/) -->

<svg
   width="172.6701mm"
   height="172.6701mm"
   viewBox="0 0 172.6701 172.6701"
   version="1.1"
   id="svg1"
   xml:space="preserve"
   xmlns="http://www.w3.org/2000/svg"
   xmlns:svg="http://www.w3.org/2000/svg"><defs
     id="defs1" /><g
     id="layer1"
     transform="translate(157.25102,198.81012)"><path
       id="path5"
       style="fill:#ffffff;fill-opacity:1;stroke-width:0.805188;stroke-linecap:round;stroke-linejoin:round"
       d="M -2.0863309 -198.17657 L -10.088943 -183.11289 L -10.930235 -165.68398 L -19.198981 -165.68398 L -11.423229 -155.47426 L -12.166336 -140.07934 C -28.353216 -157.12094 -50.823548 -166.77435 -74.327399 -166.78417 C -103.64471 -166.77397 -130.92652 -151.79225 -146.66717 -127.05894 L -157.25102 -127.05894 L -149.61996 -115.86014 L -157.25102 -26.140039 L -8.5138455 -26.140039 L 15.419061 -26.140039 L 8.0799737 -154.80195 L 15.419061 -165.68398 L 7.4593397 -165.68398 L 6.4490654 -183.39297 L -2.0863309 -198.17657 z M -83.43072 -192.21621 C -85.584619 -189.65499 -86.77489 -186.4211 -86.795372 -183.07465 C -86.842092 -175.15518 -80.459903 -168.69733 -72.540428 -168.65072 C -64.621155 -168.60402 -58.163395 -174.98588 -58.116503 -182.90515 C -58.102813 -186.26049 -59.266203 -189.5144 -61.404157 -192.10045 C -60.83125 -190.6836 -60.536835 -189.16959 -60.537027 -187.64129 C -60.575787 -181.07411 -65.930869 -175.78172 -72.498054 -175.82031 C -79.065241 -175.85911 -84.357627 -181.21415 -84.319038 -187.78134 C -84.309338 -189.30285 -84.007827 -190.80837 -83.43072 -192.21621 z M -13.123383 -120.07436 C -8.5885245 -119.84761 -4.9035644 -118.85557 -2.0692776 -117.09831 L -22.306285 -83.767013 L -9.2967435 -83.767013 L -8.4466662 -97.626632 C -6.6327226 -97.626632 -5.3288773 -97.995076 -4.535277 -98.731991 C -3.684991 -99.468905 -3.0333267 -100.71611 -2.5798408 -102.47336 L 2.2668918 -102.47336 L 2.1821424 -83.341716 C 4.3362004 -82.718173 7.057179 -82.066508 10.344952 -81.38628 L 9.9196546 -77.304875 L 1.7568454 -77.304875 L 1.7568454 -62.084615 L -9.2967435 -62.084615 L -9.2967435 -77.304875 L -33.869921 -77.304875 L -34.550499 -80.36567 L -13.123383 -120.07436 z M -127.65696 -119.81908 C -121.70496 -119.81908 -116.97183 -118.54381 -113.45731 -115.99295 C -109.9428 -113.44209 -108.18528 -110.01229 -108.18528 -105.70418 C -108.18528 -103.38006 -109.03546 -101.05611 -110.73603 -98.731991 C -112.4366 -96.407876 -114.67585 -94.50901 -117.45345 -93.035181 C -113.93893 -91.334609 -111.18937 -89.350519 -109.20537 -87.08309 C -107.16469 -84.81566 -106.14458 -81.896169 -106.14458 -78.324968 C -106.14458 -73.166566 -108.01538 -69.057034 -111.75664 -65.996005 C -115.4979 -62.991661 -120.54283 -61.489303 -126.89163 -61.489303 C -133.86398 -61.489303 -139.24929 -62.878373 -143.04724 -65.655974 C -146.78849 -68.433575 -148.65878 -72.401238 -148.65878 -77.55964 C -148.65878 -80.223869 -147.8086 -82.86014 -146.10803 -85.467684 C -144.40746 -88.131914 -142.02686 -90.483931 -138.96583 -92.524618 C -141.51669 -93.941761 -143.50026 -95.642631 -144.91741 -97.626632 C -146.33455 -99.610633 -147.04337 -102.07646 -147.04337 -105.02411 C -147.04337 -109.55897 -145.28586 -113.15871 -141.77134 -115.82294 C -138.25683 -118.48717 -133.55228 -119.81908 -127.65696 -119.81908 z M -57.252989 -119.64906 C -50.620758 -119.64906 -45.547245 -117.15466 -42.03273 -112.16631 C -38.461528 -107.23465 -36.675951 -100.06428 -36.675951 -90.654448 C -36.675951 -81.244616 -38.461528 -74.017081 -42.03273 -68.97205 C -45.547245 -63.983706 -50.620758 -61.489303 -57.252989 -61.489303 C -63.88522 -61.489303 -68.986797 -63.983706 -72.557998 -68.97205 C -76.1292 -74.017081 -77.915294 -81.244616 -77.915294 -90.654448 C -77.915294 -100.00759 -76.1292 -107.17797 -72.557998 -112.16631 C -68.986797 -117.15466 -63.88522 -119.64906 -57.252989 -119.64906 z M -57.252989 -115.31237 C -60.143962 -115.31237 -62.24134 -113.41351 -63.545112 -109.61556 C -64.792198 -105.81762 -65.415799 -99.497422 -65.415799 -90.654448 C -65.415799 -81.868159 -64.792198 -75.576025 -63.545112 -71.778081 C -62.24134 -68.036822 -60.143962 -66.16602 -57.252989 -66.16602 C -54.362017 -66.16602 -52.293219 -68.036822 -51.046133 -71.778081 C -49.742361 -75.576025 -49.09018 -81.868159 -49.09018 -90.654448 C -49.09018 -99.440737 -49.742361 -105.73287 -51.046133 -109.53081 C -52.293219 -113.38544 -54.362017 -115.31237 -57.252989 -115.31237 z M -127.65696 -113.78224 C -129.92439 -113.78224 -131.70997 -113.04535 -133.01374 -111.57152 C -134.31751 -110.15437 -134.96918 -108.22693 -134.96918 -105.78944 C -134.96918 -103.63538 -134.14758 -101.84981 -132.50369 -100.43266 C -130.80312 -99.072205 -128.3373 -97.711715 -125.10621 -96.351258 C -123.68907 -97.314915 -122.55516 -98.646824 -121.70487 -100.3474 C -120.85458 -102.04797 -120.42949 -103.86213 -120.42949 -105.78944 C -120.42949 -108.22693 -121.10974 -110.15437 -122.4702 -111.57152 C -123.77397 -113.04535 -125.5029 -113.78224 -127.65696 -113.78224 z M -91.094335 -101.28274 C -89.110334 -101.28274 -87.636557 -100.68772 -86.672899 -99.497319 C -85.652556 -98.363604 -85.14276 -96.776539 -85.14276 -94.735852 C -85.14276 -92.695166 -85.652556 -91.107584 -86.672899 -89.973869 C -87.636557 -88.840154 -89.110334 -88.273198 -91.094335 -88.273198 C -93.078335 -88.273198 -94.580693 -88.840154 -95.601036 -89.973869 C -96.564694 -91.16427 -97.046426 -92.751852 -97.046426 -94.735852 C -97.046426 -96.833225 -96.564694 -98.448354 -95.601036 -99.582068 C -94.580693 -100.71578 -93.078335 -101.28274 -91.094335 -101.28274 z M -131.14305 -89.038526 C -132.84362 -87.678068 -134.09083 -86.119583 -134.88443 -84.362325 C -135.67803 -82.605068 -136.07453 -80.50769 -136.07453 -78.070203 C -136.07453 -74.725745 -135.25294 -72.089474 -133.60905 -70.162159 C -131.96517 -68.291529 -129.72592 -67.356645 -126.89163 -67.356645 C -124.11403 -67.356645 -121.96001 -68.291529 -120.42949 -70.162159 C -118.84229 -72.032788 -118.04876 -74.640479 -118.04876 -77.984937 C -118.04876 -79.855566 -118.64378 -81.442631 -119.83418 -82.746403 C -120.9679 -84.106861 -122.41361 -85.212194 -124.17087 -86.06248 C -125.92813 -86.969452 -128.25208 -87.961497 -131.14305 -89.038526 z M -91.094335 -74.498845 C -89.110334 -74.498845 -87.636557 -73.903824 -86.672899 -72.713424 C -85.652556 -71.579709 -85.14276 -69.992127 -85.14276 -67.951441 C -85.14276 -65.910754 -85.652556 -64.323689 -86.672899 -63.189974 C -87.636557 -62.05626 -89.110334 -61.489303 -91.094335 -61.489303 C -93.078335 -61.489303 -94.580693 -62.05626 -95.601036 -63.189974 C -96.564694 -64.380375 -97.046426 -65.96744 -97.046426 -67.951441 C -97.046426 -70.048813 -96.564694 -71.664459 -95.601036 -72.798173 C -94.580693 -73.931888 -93.078335 -74.498845 -91.094335 -74.498845 z " /></g></svg>
