<?xml version="1.0" encoding="UTF-8" standalone="no"?>
<!-- Created with Inkscape (http://www.inkscape.org/) -->

<svg
   width="172.6701mm"
   height="172.6701mm"
   viewBox="0 0 172.6701 172.6701"
   version="1.1"
   id="svg1"
   xml:space="preserve"
   xmlns="http://www.w3.org/2000/svg"
   xmlns:svg="http://www.w3.org/2000/svg"><defs
     id="defs1" /><g
     id="layer1"
     transform="translate(157.25102,198.81012)"><path
       id="path5"
       style="fill:#ffffff;fill-opacity:1;stroke-width:0.805188;stroke-linecap:round;stroke-linejoin:round"
       d="M -2.0863309 -198.17657 L -10.088943 -183.11289 L -10.930235 -165.68398 L -19.198981 -165.68398 L -11.423229 -155.47426 L -12.166336 -140.07934 C -28.353216 -157.12094 -50.823548 -166.77435 -74.327399 -166.78417 C -103.64471 -166.77397 -130.92652 -151.79225 -146.66717 -127.05894 L -157.25102 -127.05894 L -149.61996 -115.86014 L -157.25102 -26.140039 L -8.5138455 -26.140039 L 15.419061 -26.140039 L 8.0799737 -154.80195 L 15.419061 -165.68398 L 7.4593397 -165.68398 L 6.4490654 -183.39297 L -2.0863309 -198.17657 z M -83.43072 -192.21621 C -85.584619 -189.65499 -86.77489 -186.4211 -86.795372 -183.07465 C -86.842092 -175.15518 -80.459903 -168.69733 -72.540428 -168.65072 C -64.621155 -168.60402 -58.163395 -174.98588 -58.116503 -182.90515 C -58.102813 -186.26049 -59.266203 -189.5144 -61.404157 -192.10045 C -60.83125 -190.6836 -60.536835 -189.16959 -60.537027 -187.64129 C -60.575787 -181.07411 -65.930869 -175.78172 -72.498054 -175.82031 C -79.065241 -175.85911 -84.357627 -181.21415 -84.319038 -187.78134 C -84.309338 -189.30285 -84.007827 -190.80837 -83.43072 -192.21621 z M -125.14859 -119.81908 C -119.19658 -119.81908 -114.46345 -118.54381 -110.94894 -115.99295 C -107.43442 -113.44209 -105.67691 -110.01229 -105.67691 -105.70418 C -105.67691 -103.38006 -106.52708 -101.05611 -108.22766 -98.731991 C -109.92823 -96.407876 -112.16747 -94.50901 -114.94508 -93.035181 C -111.43056 -91.334609 -108.68152 -89.350519 -106.69752 -87.08309 C -104.65683 -84.81566 -103.6362 -81.896169 -103.6362 -78.324968 C -103.6362 -73.166566 -105.50701 -69.057034 -109.24827 -65.996005 C -112.98952 -62.991661 -118.03446 -61.489303 -124.38326 -61.489303 C -131.3556 -61.489303 -136.74092 -62.878373 -140.53886 -65.655974 C -144.28012 -68.433575 -146.15041 -72.401238 -146.15041 -77.55964 C -146.15041 -80.223869 -145.30023 -82.86014 -143.59966 -85.467684 C -141.89908 -88.131914 -139.51849 -90.483931 -136.45746 -92.524618 C -139.00832 -93.941761 -140.99241 -95.642631 -142.40955 -97.626632 C -143.82669 -99.610633 -144.535 -102.07646 -144.535 -105.02411 C -144.535 -109.55897 -142.778 -113.15871 -139.26349 -115.82294 C -135.74897 -118.48717 -131.0439 -119.81908 -125.14859 -119.81908 z M -54.744615 -119.64906 C -48.112384 -119.64906 -43.039388 -117.15466 -39.524873 -112.16631 C -35.953671 -107.23465 -34.168094 -100.06428 -34.168094 -90.654448 C -34.168094 -81.244616 -35.953671 -74.017081 -39.524873 -68.97205 C -43.039388 -63.983706 -48.112384 -61.489303 -54.744615 -61.489303 C -61.376846 -61.489303 -66.47894 -63.983706 -70.050141 -68.97205 C -73.621342 -74.017081 -75.40692 -81.244616 -75.40692 -90.654448 C -75.40692 -100.00759 -73.621342 -107.17797 -70.050141 -112.16631 C -66.47894 -117.15466 -61.376846 -119.64906 -54.744615 -119.64906 z M -29.746141 -118.88373 L -25.579987 -118.88373 C -23.425929 -118.82705 -18.720861 -118.79847 -11.465087 -118.79847 C -3.9258838 -118.79847 0.97718048 -118.82705 3.2446099 -118.88373 L 7.3260145 -118.88373 L 9.0266859 -115.22762 C 7.9496569 -113.52705 5.9089229 -109.84261 2.904579 -104.17404 C -0.099765 -98.505463 -2.9340317 -92.496548 -5.5982612 -86.147746 C -8.2624908 -79.798944 -9.5943997 -74.838719 -9.5943997 -71.267517 C -9.5943997 -68.433231 -8.6023547 -66.307789 -6.618354 -64.890646 C -8.545669 -62.566531 -11.011491 -61.404554 -14.015835 -61.404554 C -16.793436 -61.404554 -18.947458 -62.169506 -20.477973 -63.700021 C -22.008488 -65.230536 -22.773957 -67.356494 -22.773957 -70.077409 C -22.773957 -73.478553 -21.951844 -77.077772 -20.307958 -80.875717 C -18.664071 -84.730347 -15.716517 -89.945728 -11.465087 -96.521273 L -1.4315905 -111.9963 L -20.818521 -111.9963 C -21.612121 -109.44544 -22.093853 -106.44124 -22.263911 -102.98341 C -23.284254 -102.81335 -24.332943 -102.72813 -25.409972 -102.72813 C -26.543687 -102.72813 -27.64902 -102.81335 -28.726048 -102.98341 L -31.106782 -117.60836 L -29.746141 -118.88373 z M -54.744615 -115.31237 C -57.635588 -115.31237 -59.732966 -113.41351 -61.036738 -109.61556 C -62.283824 -105.81762 -62.907425 -99.497422 -62.907425 -90.654448 C -62.907425 -81.868159 -62.283824 -75.576025 -61.036738 -71.778081 C -59.732966 -68.036822 -57.635588 -66.16602 -54.744615 -66.16602 C -51.853643 -66.16602 -49.784845 -68.036822 -48.537759 -71.778081 C -47.233987 -75.576025 -46.581806 -81.868159 -46.581806 -90.654448 C -46.581806 -99.440737 -47.233987 -105.73287 -48.537759 -109.53081 C -49.784845 -113.38544 -51.853643 -115.31237 -54.744615 -115.31237 z M -125.14859 -113.78224 C -127.41602 -113.78224 -129.20159 -113.04535 -130.50537 -111.57152 C -131.80914 -110.15437 -132.4608 -108.22693 -132.4608 -105.78944 C -132.4608 -103.63538 -131.63921 -101.84981 -129.99532 -100.43266 C -128.29475 -99.072205 -125.82892 -97.711715 -122.59784 -96.351258 C -121.18069 -97.314915 -120.04678 -98.646824 -119.1965 -100.3474 C -118.34621 -102.04797 -117.92112 -103.86213 -117.92112 -105.78944 C -117.92112 -108.22693 -118.60137 -110.15437 -119.96182 -111.57152 C -121.2656 -113.04535 -122.99453 -113.78224 -125.14859 -113.78224 z M -88.585961 -101.28274 C -86.60196 -101.28274 -85.128183 -100.68772 -84.164525 -99.497319 C -83.144182 -98.363604 -82.634386 -96.776539 -82.634386 -94.735852 C -82.634386 -92.695166 -83.144182 -91.107584 -84.164525 -89.973869 C -85.128183 -88.840154 -86.60196 -88.273198 -88.585961 -88.273198 C -90.569961 -88.273198 -92.072319 -88.840154 -93.092662 -89.973869 C -94.05632 -91.16427 -94.538052 -92.751852 -94.538052 -94.735852 C -94.538052 -96.833225 -94.05632 -98.448354 -93.092662 -99.582068 C -92.072319 -100.71578 -90.569961 -101.28274 -88.585961 -101.28274 z M -128.63468 -89.038526 C -130.33525 -87.678068 -131.58245 -86.119583 -132.37605 -84.362325 C -133.16965 -82.605068 -133.56616 -80.50769 -133.56616 -78.070203 C -133.56616 -74.725745 -132.74456 -72.089474 -131.10068 -70.162159 C -129.45679 -68.291529 -127.21755 -67.356645 -124.38326 -67.356645 C -121.60566 -67.356645 -119.45164 -68.291529 -117.92112 -70.162159 C -116.33392 -72.032788 -115.54039 -74.640479 -115.54039 -77.984937 C -115.54039 -79.855566 -116.13541 -81.442631 -117.32581 -82.746403 C -118.45952 -84.106861 -119.90524 -85.212194 -121.66249 -86.06248 C -123.41975 -86.969452 -125.74371 -87.961497 -128.63468 -89.038526 z M -88.585961 -74.498845 C -86.60196 -74.498845 -85.128183 -73.903824 -84.164525 -72.713424 C -83.144182 -71.579709 -82.634386 -69.992127 -82.634386 -67.951441 C -82.634386 -65.910754 -83.144182 -64.323689 -84.164525 -63.189974 C -85.128183 -62.05626 -86.60196 -61.489303 -88.585961 -61.489303 C -90.569961 -61.489303 -92.072319 -62.05626 -93.092662 -63.189974 C -94.05632 -64.380375 -94.538052 -65.96744 -94.538052 -67.951441 C -94.538052 -70.048813 -94.05632 -71.664459 -93.092662 -72.798173 C -92.072319 -73.931888 -90.569961 -74.498845 -88.585961 -74.498845 z " /></g></svg>
