<?xml version="1.0" encoding="UTF-8" standalone="no"?>
<!-- Created with Inkscape (http://www.inkscape.org/) -->

<svg
   width="172.6701mm"
   height="172.6701mm"
   viewBox="0 0 172.6701 172.6701"
   version="1.1"
   id="svg1"
   xml:space="preserve"
   xmlns="http://www.w3.org/2000/svg"
   xmlns:svg="http://www.w3.org/2000/svg"><defs
     id="defs1" /><g
     id="layer1"
     transform="translate(157.25102,198.81012)"><path
       id="path5"
       style="fill:#ffffff;fill-opacity:1;stroke-width:0.805188;stroke-linecap:round;stroke-linejoin:round"
       d="M -2.0863309 -198.17657 L -10.088943 -183.11289 L -10.930235 -165.68398 L -19.198981 -165.68398 L -11.423229 -155.47426 L -12.166336 -140.07934 C -28.353216 -157.12094 -50.823548 -166.77435 -74.327399 -166.78417 C -103.64471 -166.77397 -130.92652 -151.79225 -146.66717 -127.05894 L -157.25102 -127.05894 L -149.61996 -115.86014 L -157.25102 -26.140039 L -8.5138455 -26.140039 L 15.419061 -26.140039 L 8.0799737 -154.80195 L 15.419061 -165.68398 L 7.4593397 -165.68398 L 6.4490654 -183.39297 L -2.0863309 -198.17657 z M -83.43072 -192.21621 C -85.584619 -189.65499 -86.77489 -186.4211 -86.795372 -183.07465 C -86.842092 -175.15518 -80.459903 -168.69733 -72.540428 -168.65072 C -64.621155 -168.60402 -58.163395 -174.98588 -58.116503 -182.90515 C -58.102813 -186.26049 -59.266203 -189.5144 -61.404157 -192.10045 C -60.83125 -190.6836 -60.536835 -189.16959 -60.537027 -187.64129 C -60.575787 -181.07411 -65.930869 -175.78172 -72.498054 -175.82031 C -79.065241 -175.85911 -84.357627 -181.21415 -84.319038 -187.78134 C -84.309338 -189.30285 -84.007827 -190.80837 -83.43072 -192.21621 z M -127.7846 -119.81908 C -121.8326 -119.81908 -117.09895 -118.54381 -113.58443 -115.99295 C -110.06992 -113.44209 -108.31292 -110.01229 -108.31292 -105.70418 C -108.31292 -103.38006 -109.1631 -101.05611 -110.86367 -98.731991 C -112.56424 -96.407876 -114.80349 -94.50901 -117.58109 -93.035181 C -114.06657 -91.334609 -111.31702 -89.350519 -109.33301 -87.08309 C -107.29233 -84.81566 -106.27222 -81.896169 -106.27222 -78.324968 C -106.27222 -73.166566 -108.14302 -69.057034 -111.88428 -65.996005 C -115.62554 -62.991661 -120.67047 -61.489303 -127.01927 -61.489303 C -133.99162 -61.489303 -139.37642 -62.878373 -143.17436 -65.655974 C -146.91562 -68.433575 -148.78642 -72.401238 -148.78642 -77.55964 C -148.78642 -80.223869 -147.93624 -82.86014 -146.23567 -85.467684 C -144.5351 -88.131914 -142.15398 -90.483931 -139.09296 -92.524618 C -141.64381 -93.941761 -143.6279 -95.642631 -145.04505 -97.626632 C -146.46219 -99.610633 -147.17102 -102.07646 -147.17102 -105.02411 C -147.17102 -109.55897 -145.4135 -113.15871 -141.89899 -115.82294 C -138.38447 -118.48717 -133.67992 -119.81908 -127.7846 -119.81908 z M -11.380337 -119.81908 C -5.428335 -119.81908 -0.69468596 -118.54381 2.8198296 -115.99295 C 6.3343452 -113.44209 8.0913425 -110.01229 8.0913425 -105.70418 C 8.0913425 -103.38006 7.2411658 -101.05611 5.5405938 -98.731991 C 3.8400217 -96.407876 1.6007754 -94.50901 -1.1768257 -93.035181 C 2.3376899 -91.334609 5.087249 -89.350519 7.0712497 -87.08309 C 9.1119362 -84.81566 10.132045 -81.896169 10.132045 -78.324968 C 10.132045 -73.166566 8.2612427 -69.057034 4.5199842 -65.996005 C 0.77872572 -62.991661 -4.2662069 -61.489303 -10.615009 -61.489303 C -17.587355 -61.489303 -22.972151 -62.878373 -26.770096 -65.655974 C -30.511354 -68.433575 -32.382156 -72.401238 -32.382156 -77.55964 C -32.382156 -80.223869 -31.531979 -82.86014 -29.831407 -85.467684 C -28.130835 -88.131914 -25.749721 -90.483931 -22.688691 -92.524618 C -25.239549 -93.941761 -27.223639 -95.642631 -28.640782 -97.626632 C -30.057926 -99.610633 -30.766751 -102.07646 -30.766751 -105.02411 C -30.766751 -109.55897 -29.009237 -113.15871 -25.494721 -115.82294 C -21.980206 -118.48717 -17.275654 -119.81908 -11.380337 -119.81908 z M -57.38063 -119.64906 C -50.748399 -119.64906 -45.674886 -117.15466 -42.160371 -112.16631 C -38.589169 -107.23465 -36.803592 -100.06428 -36.803592 -90.654448 C -36.803592 -81.244616 -38.589169 -74.017081 -42.160371 -68.97205 C -45.674886 -63.983706 -50.748399 -61.489303 -57.38063 -61.489303 C -64.012861 -61.489303 -69.114438 -63.983706 -72.685639 -68.97205 C -76.25684 -74.017081 -78.042418 -81.244616 -78.042418 -90.654448 C -78.042418 -100.00759 -76.25684 -107.17797 -72.685639 -112.16631 C -69.114438 -117.15466 -64.012861 -119.64906 -57.38063 -119.64906 z M -57.38063 -115.31237 C -60.271603 -115.31237 -62.368981 -113.41351 -63.672753 -109.61556 C -64.919839 -105.81762 -65.543439 -99.497422 -65.543439 -90.654448 C -65.543439 -81.868159 -64.919839 -75.576025 -63.672753 -71.778081 C -62.368981 -68.036822 -60.271603 -66.16602 -57.38063 -66.16602 C -54.489658 -66.16602 -52.42086 -68.036822 -51.173774 -71.778081 C -49.870002 -75.576025 -49.217821 -81.868159 -49.217821 -90.654448 C -49.217821 -99.440737 -49.870002 -105.73287 -51.173774 -109.53081 C -52.42086 -113.38544 -54.489658 -115.31237 -57.38063 -115.31237 z M -127.7846 -113.78224 C -130.05203 -113.78224 -131.83761 -113.04535 -133.14138 -111.57152 C -134.44515 -110.15437 -135.09682 -108.22693 -135.09682 -105.78944 C -135.09682 -103.63538 -134.2747 -101.84981 -132.63082 -100.43266 C -130.93025 -99.072205 -128.46442 -97.711715 -125.23334 -96.351258 C -123.81619 -97.314915 -122.6828 -98.646824 -121.83251 -100.3474 C -120.98222 -102.04797 -120.55714 -103.86213 -120.55714 -105.78944 C -120.55714 -108.22693 -121.23738 -110.15437 -122.59784 -111.57152 C -123.90161 -113.04535 -125.63054 -113.78224 -127.7846 -113.78224 z M -11.380337 -113.78224 C -13.647767 -113.78224 -15.433344 -113.04535 -16.737116 -111.57152 C -18.040888 -110.15437 -18.692552 -108.22693 -18.692552 -105.78944 C -18.692552 -103.63538 -17.870439 -101.84981 -16.226553 -100.43266 C -14.525981 -99.072205 -12.060159 -97.711715 -8.8290718 -96.351258 C -7.4119284 -97.314915 -6.2785318 -98.646824 -5.4282457 -100.3474 C -4.5779597 -102.04797 -4.1528714 -103.86213 -4.1528714 -105.78944 C -4.1528714 -108.22693 -4.8331161 -110.15437 -6.1935737 -111.57152 C -7.4973456 -113.04535 -9.2262793 -113.78224 -11.380337 -113.78224 z M -91.221975 -101.28274 C -89.237975 -101.28274 -87.764197 -100.68772 -86.80054 -99.497319 C -85.780197 -98.363604 -85.269884 -96.776539 -85.269884 -94.735852 C -85.269884 -92.695166 -85.780197 -91.107584 -86.80054 -89.973869 C -87.764197 -88.840154 -89.237975 -88.273198 -91.221975 -88.273198 C -93.205976 -88.273198 -94.708334 -88.840154 -95.728677 -89.973869 C -96.692335 -91.16427 -97.174067 -92.751852 -97.174067 -94.735852 C -97.174067 -96.833225 -96.692335 -98.448354 -95.728677 -99.582068 C -94.708334 -100.71578 -93.205976 -101.28274 -91.221975 -101.28274 z M -131.27069 -89.038526 C -132.97127 -87.678068 -134.21847 -86.119583 -135.01207 -84.362325 C -135.80567 -82.605068 -136.20218 -80.50769 -136.20218 -78.070203 C -136.20218 -74.725745 -135.38006 -72.089474 -133.73618 -70.162159 C -132.09229 -68.291529 -129.85356 -67.356645 -127.01927 -67.356645 C -124.24167 -67.356645 -122.08765 -68.291529 -120.55714 -70.162159 C -118.96994 -72.032788 -118.1764 -74.640479 -118.1764 -77.984937 C -118.1764 -79.855566 -118.77142 -81.442631 -119.96182 -82.746403 C -121.09554 -84.106861 -122.54073 -85.212194 -124.29799 -86.06248 C -126.05525 -86.969452 -128.37972 -87.961497 -131.27069 -89.038526 z M -14.866429 -89.038526 C -16.567001 -87.678068 -17.813686 -86.119583 -18.607286 -84.362325 C -19.400887 -82.605068 -19.797911 -80.50769 -19.797911 -78.070203 C -19.797911 -74.725745 -18.975798 -72.089474 -17.331912 -70.162159 C -15.688026 -68.291529 -13.449296 -67.356645 -10.615009 -67.356645 C -7.8374082 -67.356645 -5.6833862 -68.291529 -4.1528714 -70.162159 C -2.5656708 -72.032788 -1.7716214 -74.640479 -1.7716214 -77.984937 C -1.7716214 -79.855566 -2.3671585 -81.442631 -3.5575589 -82.746403 C -4.6912736 -84.106861 -6.1364705 -85.212194 -7.8937283 -86.06248 C -9.6509861 -86.969452 -11.975457 -87.961497 -14.866429 -89.038526 z M -91.221975 -74.498845 C -89.237975 -74.498845 -87.764197 -73.903824 -86.80054 -72.713424 C -85.780197 -71.579709 -85.269884 -69.992127 -85.269884 -67.951441 C -85.269884 -65.910754 -85.780197 -64.323689 -86.80054 -63.189974 C -87.764197 -62.05626 -89.237975 -61.489303 -91.221975 -61.489303 C -93.205976 -61.489303 -94.708334 -62.05626 -95.728677 -63.189974 C -96.692335 -64.380375 -97.174067 -65.96744 -97.174067 -67.951441 C -97.174067 -70.048813 -96.692335 -71.664459 -95.728677 -72.798173 C -94.708334 -73.931888 -93.205976 -74.498845 -91.221975 -74.498845 z " /></g></svg>
