<?xml version="1.0" encoding="UTF-8" standalone="no"?>
<!-- Created with Inkscape (http://www.inkscape.org/) -->

<svg
   width="172.6701mm"
   height="172.6701mm"
   viewBox="0 0 172.6701 172.6701"
   version="1.1"
   id="svg1"
   xml:space="preserve"
   xmlns="http://www.w3.org/2000/svg"
   xmlns:svg="http://www.w3.org/2000/svg"><defs
     id="defs1" /><g
     id="layer1"
     transform="translate(157.25102,198.81012)"><path
       id="path5"
       style="fill:#ffffff;fill-opacity:1;stroke-width:0.805188;stroke-linecap:round;stroke-linejoin:round"
       d="M -2.0863309 -198.17657 L -10.088943 -183.11289 L -10.930235 -165.68398 L -19.198981 -165.68398 L -11.423229 -155.47426 L -12.166336 -140.07934 C -28.353216 -157.12094 -50.823548 -166.77435 -74.327399 -166.78417 C -103.64471 -166.77397 -130.92652 -151.79225 -146.66717 -127.05894 L -157.25102 -127.05894 L -149.61996 -115.86014 L -157.25102 -26.140039 L -8.5138455 -26.140039 L 15.419061 -26.140039 L 8.0799737 -154.80195 L 15.419061 -165.68398 L 7.4593397 -165.68398 L 6.4490654 -183.39297 L -2.0863309 -198.17657 z M -83.43072 -192.21621 C -85.584619 -189.65499 -86.77489 -186.4211 -86.795372 -183.07465 C -86.842092 -175.15518 -80.459903 -168.69733 -72.540428 -168.65072 C -64.621155 -168.60402 -58.163395 -174.98588 -58.116503 -182.90515 C -58.102813 -186.26049 -59.266203 -189.5144 -61.404157 -192.10045 C -60.83125 -190.6836 -60.536835 -189.16959 -60.537027 -187.64129 C -60.575787 -181.07411 -65.930869 -175.78172 -72.498054 -175.82031 C -79.065241 -175.85911 -84.357627 -181.21415 -84.319038 -187.78134 C -84.309338 -189.30285 -84.007827 -190.80837 -83.43072 -192.21621 z M -126.84926 -119.81908 C -120.89726 -119.81908 -116.16361 -118.54381 -112.64909 -115.99295 C -109.13458 -113.44209 -107.37758 -110.01229 -107.37758 -105.70418 C -107.37758 -103.38006 -108.22776 -101.05611 -109.92833 -98.731991 C -111.6289 -96.407876 -113.86815 -94.50901 -116.64575 -93.035181 C -113.13123 -91.334609 -110.38167 -89.350519 -108.39767 -87.08309 C -106.35698 -84.81566 -105.33688 -81.896169 -105.33688 -78.324968 C -105.33688 -73.166566 -107.20768 -69.057034 -110.94894 -65.996005 C -114.6902 -62.991661 -119.73513 -61.489303 -126.08393 -61.489303 C -133.05628 -61.489303 -138.44107 -62.878373 -142.23902 -65.655974 C -145.98027 -68.433575 -147.85108 -72.401238 -147.85108 -77.55964 C -147.85108 -80.223869 -147.0009 -82.86014 -145.30033 -85.467684 C -143.59976 -88.131914 -141.21916 -90.483931 -138.15813 -92.524618 C -140.70899 -93.941761 -142.69256 -95.642631 -144.1097 -97.626632 C -145.52685 -99.610633 -146.23567 -102.07646 -146.23567 -105.02411 C -146.23567 -109.55897 -144.47816 -113.15871 -140.96364 -115.82294 C -137.44913 -118.48717 -132.74457 -119.81908 -126.84926 -119.81908 z M -56.445287 -119.64906 C -49.813056 -119.64906 -44.739543 -117.15466 -41.225027 -112.16631 C -37.653826 -107.23465 -35.868248 -100.06428 -35.868248 -90.654448 C -35.868248 -81.244616 -37.653826 -74.017081 -41.225027 -68.97205 C -44.739543 -63.983706 -49.813056 -61.489303 -56.445287 -61.489303 C -63.077518 -61.489303 -68.179094 -63.983706 -71.750296 -68.97205 C -75.321497 -74.017081 -77.107075 -81.244616 -77.107075 -90.654448 C -77.107075 -100.00759 -75.321497 -107.17797 -71.750296 -112.16631 C -68.179094 -117.15466 -63.077518 -119.64906 -56.445287 -119.64906 z M -11.550353 -119.56379 C -4.8047502 -119.56379 0.35398719 -117.69351 3.9251885 -113.95225 C 7.5530755 -110.21099 9.3667168 -104.7971 9.3667168 -97.711381 C 9.3667168 -88.811721 6.5890941 -81.216258 1.0338921 -74.924142 C -4.4646242 -68.688711 -12.457111 -64.09693 -22.943972 -61.149272 L -24.984675 -65.400692 C -19.316101 -67.838179 -14.752901 -70.956182 -11.295071 -74.754126 C -7.8372413 -78.608756 -5.5413509 -83.086732 -4.4076362 -88.188448 C -7.5820374 -86.601248 -10.67146 -85.807715 -13.675804 -85.807715 C -19.344378 -85.807715 -23.822871 -87.338137 -27.110643 -90.399166 C -30.34173 -93.460196 -31.956859 -97.598308 -31.956859 -102.8134 C -31.956859 -106.04448 -31.106682 -108.93539 -29.40611 -111.48625 C -27.648853 -114.03711 -25.239674 -116.0212 -22.178645 -117.43834 C -19.060929 -118.85549 -15.518354 -119.56379 -11.550353 -119.56379 z M -56.445287 -115.31237 C -59.336259 -115.31237 -61.433637 -113.41351 -62.737409 -109.61556 C -63.984495 -105.81762 -64.608096 -99.497422 -64.608096 -90.654448 C -64.608096 -81.868159 -63.984495 -75.576025 -62.737409 -71.778081 C -61.433637 -68.036822 -59.336259 -66.16602 -56.445287 -66.16602 C -53.554314 -66.16602 -51.485517 -68.036822 -50.23843 -71.778081 C -48.934659 -75.576025 -48.282478 -81.868159 -48.282478 -90.654448 C -48.282478 -99.440737 -48.934659 -105.73287 -50.23843 -109.53081 C -51.485517 -113.38544 -53.554314 -115.31237 -56.445287 -115.31237 z M -126.84926 -113.78224 C -129.11669 -113.78224 -130.90227 -113.04535 -132.20604 -111.57152 C -133.50981 -110.15437 -134.16147 -108.22693 -134.16147 -105.78944 C -134.16147 -103.63538 -133.33936 -101.84981 -131.69547 -100.43266 C -129.9949 -99.072205 -127.52908 -97.711715 -124.29799 -96.351258 C -122.88085 -97.314915 -121.74745 -98.646824 -120.89717 -100.3474 C -120.04688 -102.04797 -119.62179 -103.86213 -119.62179 -105.78944 C -119.62179 -108.22693 -120.30204 -110.15437 -121.66249 -111.57152 C -122.96627 -113.04535 -124.6952 -113.78224 -126.84926 -113.78224 z M -12.060399 -113.69697 C -14.497886 -113.69697 -16.368688 -112.76157 -17.67246 -110.89094 C -18.976232 -109.02031 -19.627896 -106.35597 -19.627896 -102.89814 C -19.627896 -99.383629 -18.919588 -96.634587 -17.502444 -94.650586 C -16.028615 -92.723271 -13.959301 -91.759807 -11.295071 -91.759807 C -8.970956 -91.759807 -6.3918457 -92.723271 -3.5575589 -94.650586 L -3.5575589 -95.755945 C -3.5575589 -101.93469 -4.2378036 -106.46931 -5.5982612 -109.36028 C -6.9587189 -112.25126 -9.1127408 -113.69697 -12.060399 -113.69697 z M -90.286632 -101.28274 C -88.302631 -101.28274 -86.828854 -100.68772 -85.865196 -99.497319 C -84.844853 -98.363604 -84.335057 -96.776539 -84.335057 -94.735852 C -84.335057 -92.695166 -84.844853 -91.107584 -85.865196 -89.973869 C -86.828854 -88.840154 -88.302631 -88.273198 -90.286632 -88.273198 C -92.270633 -88.273198 -93.77299 -88.840154 -94.793334 -89.973869 C -95.756991 -91.16427 -96.238723 -92.751852 -96.238723 -94.735852 C -96.238723 -96.833225 -95.756991 -98.448354 -94.793334 -99.582068 C -93.77299 -100.71578 -92.270633 -101.28274 -90.286632 -101.28274 z M -130.33535 -89.038526 C -132.03592 -87.678068 -133.28312 -86.119583 -134.07672 -84.362325 C -134.87032 -82.605068 -135.26683 -80.50769 -135.26683 -78.070203 C -135.26683 -74.725745 -134.44524 -72.089474 -132.80135 -70.162159 C -131.15746 -68.291529 -128.91822 -67.356645 -126.08393 -67.356645 C -123.30633 -67.356645 -121.15231 -68.291529 -119.62179 -70.162159 C -118.03459 -72.032788 -117.24106 -74.640479 -117.24106 -77.984937 C -117.24106 -79.855566 -117.83608 -81.442631 -119.02648 -82.746403 C -120.16019 -84.106861 -121.60591 -85.212194 -123.36317 -86.06248 C -125.12042 -86.969452 -127.44438 -87.961497 -130.33535 -89.038526 z M -90.286632 -74.498845 C -88.302631 -74.498845 -86.828854 -73.903824 -85.865196 -72.713424 C -84.844853 -71.579709 -84.335057 -69.992127 -84.335057 -67.951441 C -84.335057 -65.910754 -84.844853 -64.323689 -85.865196 -63.189974 C -86.828854 -62.05626 -88.302631 -61.489303 -90.286632 -61.489303 C -92.270633 -61.489303 -93.77299 -62.05626 -94.793334 -63.189974 C -95.756991 -64.380375 -96.238723 -65.96744 -96.238723 -67.951441 C -96.238723 -70.048813 -95.756991 -71.664459 -94.793334 -72.798173 C -93.77299 -73.931888 -92.270633 -74.498845 -90.286632 -74.498845 z " /></g></svg>
