<?xml version="1.0" encoding="UTF-8" standalone="no"?>
<!-- Created with Inkscape (http://www.inkscape.org/) -->

<svg
   width="172.6701mm"
   height="172.6701mm"
   viewBox="0 0 172.6701 172.6701"
   version="1.1"
   id="svg1"
   xml:space="preserve"
   xmlns="http://www.w3.org/2000/svg"
   xmlns:svg="http://www.w3.org/2000/svg"><defs
     id="defs1" /><g
     id="layer1"
     transform="translate(157.25102,198.81012)"><path
       id="path5"
       style="fill:#ffffff;fill-opacity:1;stroke-width:0.805188;stroke-linecap:round;stroke-linejoin:round"
       d="M -2.0863309 -198.17657 L -10.088943 -183.11289 L -10.930235 -165.68398 L -19.198981 -165.68398 L -11.423229 -155.47426 L -12.166336 -140.07934 C -28.353216 -157.12094 -50.823548 -166.77435 -74.327399 -166.78417 C -103.64471 -166.77397 -130.92652 -151.79225 -146.66717 -127.05894 L -157.25102 -127.05894 L -149.61996 -115.86014 L -157.25102 -26.140039 L -8.5138455 -26.140039 L 15.419061 -26.140039 L 8.0799737 -154.80195 L 15.419061 -165.68398 L 7.4593397 -165.68398 L 6.4490654 -183.39297 L -2.0863309 -198.17657 z M -83.43072 -192.21621 C -85.584619 -189.65499 -86.77489 -186.4211 -86.795372 -183.07465 C -86.842092 -175.15518 -80.459903 -168.69733 -72.540428 -168.65072 C -64.621155 -168.60402 -58.163395 -174.98588 -58.116503 -182.90515 C -58.102813 -186.26049 -59.266203 -189.5144 -61.404157 -192.10045 C -60.83125 -190.6836 -60.536835 -189.16959 -60.537027 -187.64129 C -60.575787 -181.07411 -65.930869 -175.78172 -72.498054 -175.82031 C -79.065241 -175.85911 -84.357627 -181.21415 -84.319038 -187.78134 C -84.309338 -189.30285 -84.007827 -190.80837 -83.43072 -192.21621 z M -120.42949 -119.81908 C -114.47749 -119.81908 -109.74436 -118.54381 -106.22984 -115.99295 C -102.71533 -113.44209 -100.95782 -110.01229 -100.95782 -105.70418 C -100.95782 -103.38006 -101.80799 -101.05611 -103.50856 -98.731991 C -105.20914 -96.407876 -107.44838 -94.50901 -110.22598 -93.035181 C -106.71147 -91.334609 -103.96243 -89.350519 -101.97842 -87.08309 C -99.937738 -84.81566 -98.917113 -81.896169 -98.917113 -78.324968 C -98.917113 -73.166566 -100.78791 -69.057034 -104.52917 -65.996005 C -108.27043 -62.991661 -113.31536 -61.489303 -119.66417 -61.489303 C -126.63651 -61.489303 -132.02183 -62.878373 -135.81977 -65.655974 C -139.56103 -68.433575 -141.43131 -72.401238 -141.43131 -77.55964 C -141.43131 -80.223869 -140.58114 -82.86014 -138.88057 -85.467684 C -137.17999 -88.131914 -134.7994 -90.483931 -131.73837 -92.524618 C -134.28922 -93.941761 -136.27331 -95.642631 -137.69046 -97.626632 C -139.1076 -99.610633 -139.81591 -102.07646 -139.81591 -105.02411 C -139.81591 -109.55897 -138.05891 -113.15871 -134.5444 -115.82294 C -131.02988 -118.48717 -126.32481 -119.81908 -120.42949 -119.81908 z M -49.260196 -119.13901 L -46.454682 -117.86364 L -46.454682 -68.716769 C -45.377653 -68.093226 -43.676783 -67.526269 -41.352668 -67.016097 C -39.028553 -66.562611 -37.186331 -66.279392 -35.825874 -66.16602 L -36.081155 -62.084615 L -70.772578 -62.084615 L -70.602562 -66.16602 C -65.557532 -66.732877 -61.703156 -67.583054 -59.038927 -68.716769 L -59.038927 -109.44555 L -70.432547 -109.44555 L -70.432547 -114.37703 C -66.80466 -114.66046 -63.063572 -115.19935 -59.208942 -115.99295 C -55.354312 -116.84324 -52.037797 -117.89193 -49.260196 -119.13901 z M -10.317353 -119.13901 L -7.5113227 -117.86364 L -7.5113227 -68.716769 C -6.4342938 -68.093226 -4.7339405 -67.526269 -2.4098253 -67.016097 C -0.085710201 -66.562611 1.7565115 -66.279392 3.1169691 -66.16602 L 2.8622043 -62.084615 L -31.829735 -62.084615 L -31.65972 -66.16602 C -26.614689 -66.732877 -22.759797 -67.583054 -20.095568 -68.716769 L -20.095568 -109.44555 L -31.489187 -109.44555 L -31.489187 -114.37703 C -27.8613 -114.66046 -24.120213 -115.19935 -20.265583 -115.99295 C -16.410953 -116.84324 -13.094954 -117.89193 -10.317353 -119.13901 z M -120.42949 -113.78224 C -122.69692 -113.78224 -124.4825 -113.04535 -125.78627 -111.57152 C -127.09005 -110.15437 -127.74171 -108.22693 -127.74171 -105.78944 C -127.74171 -103.63538 -126.92011 -101.84981 -125.27623 -100.43266 C -123.57566 -99.072205 -121.10983 -97.711715 -117.87875 -96.351258 C -116.4616 -97.314915 -115.32769 -98.646824 -114.4774 -100.3474 C -113.62712 -102.04797 -113.20203 -103.86213 -113.20203 -105.78944 C -113.20203 -108.22693 -113.88227 -110.15437 -115.24273 -111.57152 C -116.5465 -113.04535 -118.27544 -113.78224 -120.42949 -113.78224 z M -83.866869 -101.28274 C -81.882868 -101.28274 -80.409091 -100.68772 -79.445433 -99.497319 C -78.42509 -98.363604 -77.915294 -96.776539 -77.915294 -94.735852 C -77.915294 -92.695166 -78.42509 -91.107584 -79.445433 -89.973869 C -80.409091 -88.840154 -81.882868 -88.273198 -83.866869 -88.273198 C -85.85087 -88.273198 -87.353227 -88.840154 -88.37357 -89.973869 C -89.337228 -91.16427 -89.81896 -92.751852 -89.81896 -94.735852 C -89.81896 -96.833225 -89.337228 -98.448354 -88.37357 -99.582068 C -87.353227 -100.71578 -85.85087 -101.28274 -83.866869 -101.28274 z M -123.91559 -89.038526 C -125.61616 -87.678068 -126.86336 -86.119583 -127.65696 -84.362325 C -128.45056 -82.605068 -128.84707 -80.50769 -128.84707 -78.070203 C -128.84707 -74.725745 -128.02547 -72.089474 -126.38159 -70.162159 C -124.7377 -68.291529 -122.49845 -67.356645 -119.66417 -67.356645 C -116.88657 -67.356645 -114.73254 -68.291529 -113.20203 -70.162159 C -111.61483 -72.032788 -110.8213 -74.640479 -110.8213 -77.984937 C -110.8213 -79.855566 -111.41632 -81.442631 -112.60672 -82.746403 C -113.74043 -84.106861 -115.18615 -85.212194 -116.9434 -86.06248 C -118.70066 -86.969452 -121.02461 -87.961497 -123.91559 -89.038526 z M -83.866869 -74.498845 C -81.882868 -74.498845 -80.409091 -73.903824 -79.445433 -72.713424 C -78.42509 -71.579709 -77.915294 -69.992127 -77.915294 -67.951441 C -77.915294 -65.910754 -78.42509 -64.323689 -79.445433 -63.189974 C -80.409091 -62.05626 -81.882868 -61.489303 -83.866869 -61.489303 C -85.85087 -61.489303 -87.353227 -62.05626 -88.37357 -63.189974 C -89.337228 -64.380375 -89.81896 -65.96744 -89.81896 -67.951441 C -89.81896 -70.048813 -89.337228 -71.664459 -88.37357 -72.798173 C -87.353227 -73.931888 -85.85087 -74.498845 -83.866869 -74.498845 z " /></g></svg>
