<?xml version="1.0" encoding="UTF-8" standalone="no"?>
<!-- Created with Inkscape (http://www.inkscape.org/) -->

<svg
   width="172.6701mm"
   height="172.6701mm"
   viewBox="0 0 172.6701 172.6701"
   version="1.1"
   id="svg1"
   xml:space="preserve"
   xmlns="http://www.w3.org/2000/svg"
   xmlns:svg="http://www.w3.org/2000/svg"><defs
     id="defs1" /><g
     id="layer1"
     transform="translate(157.25102,198.81012)"><path
       id="path5"
       style="fill:#ffffff;fill-opacity:1;stroke-width:0.805188;stroke-linecap:round;stroke-linejoin:round"
       d="M -2.0863309 -198.17657 L -10.088943 -183.11289 L -10.930235 -165.68398 L -19.198981 -165.68398 L -11.423229 -155.47426 L -12.166336 -140.07934 C -28.353216 -157.12094 -50.823548 -166.77435 -74.327399 -166.78417 C -103.64471 -166.77397 -130.92652 -151.79225 -146.66717 -127.05894 L -157.25102 -127.05894 L -149.61996 -115.86014 L -157.25102 -26.140039 L -8.5138455 -26.140039 L 15.419061 -26.140039 L 8.0799737 -154.80195 L 15.419061 -165.68398 L 7.4593397 -165.68398 L 6.4490654 -183.39297 L -2.0863309 -198.17657 z M -83.43072 -192.21621 C -85.584619 -189.65499 -86.77489 -186.4211 -86.795372 -183.07465 C -86.842092 -175.15518 -80.459903 -168.69733 -72.540428 -168.65072 C -64.621155 -168.60402 -58.163395 -174.98588 -58.116503 -182.90515 C -58.102813 -186.26049 -59.266203 -189.5144 -61.404157 -192.10045 C -60.83125 -190.6836 -60.536835 -189.16959 -60.537027 -187.64129 C -60.575787 -181.07411 -65.930869 -175.78172 -72.498054 -175.82031 C -79.065241 -175.85911 -84.357627 -181.21415 -84.319038 -187.78134 C -84.309338 -189.30285 -84.007827 -190.80837 -83.43072 -192.21621 z M -122.55495 -119.81908 C -116.60294 -119.81908 -111.86981 -118.54381 -108.3553 -115.99295 C -104.84078 -113.44209 -103.08378 -110.01229 -103.08378 -105.70418 C -103.08378 -103.38006 -103.93396 -101.05611 -105.63453 -98.731991 C -107.3351 -96.407876 -109.57383 -94.50901 -112.35144 -93.035181 C -108.83692 -91.334609 -106.08788 -89.350519 -104.10388 -87.08309 C -102.06319 -84.81566 -101.04308 -81.896169 -101.04308 -78.324968 C -101.04308 -73.166566 -102.91337 -69.057034 -106.65463 -65.996005 C -110.39588 -62.991661 -115.44082 -61.489303 -121.78962 -61.489303 C -128.76196 -61.489303 -134.14728 -62.878373 -137.94522 -65.655974 C -141.68648 -68.433575 -143.55728 -72.401238 -143.55728 -77.55964 C -143.55728 -80.223869 -142.70711 -82.86014 -141.00653 -85.467684 C -139.30596 -88.131914 -136.92485 -90.483931 -133.86382 -92.524618 C -136.41468 -93.941761 -138.39877 -95.642631 -139.81591 -97.626632 C -141.23305 -99.610633 -141.94136 -102.07646 -141.94136 -105.02411 C -141.94136 -109.55897 -140.18436 -113.15871 -136.66985 -115.82294 C -133.15533 -118.48717 -128.45026 -119.81908 -122.55495 -119.81908 z M -15.334101 -119.73381 C -11.649528 -119.73381 -8.3901733 -119.11073 -5.5558865 -117.86364 C -2.7215998 -116.67324 -0.51041703 -114.97237 1.0767835 -112.76163 C 2.6639841 -110.60757 3.4575168 -108.11368 3.4575168 -105.27939 C 3.4575168 -102.10499 2.5221158 -99.384015 0.65148651 -97.116586 C -1.2191427 -94.849156 -3.9967654 -93.120223 -7.6813382 -91.929822 C -3.0331079 -90.909479 0.22624706 -89.237189 2.0968763 -86.913074 C 3.9675056 -84.588959 4.9029066 -81.442892 4.9029066 -77.474891 C 4.9029066 -74.017061 3.8542176 -71.069506 1.7568454 -68.632019 C -0.28384107 -66.194533 -2.9481758 -64.380375 -6.2359484 -63.189974 C -9.523721 -61.999574 -12.924944 -61.404554 -16.43946 -61.404554 C -21.541176 -61.404554 -25.877284 -62.453243 -29.448485 -64.550615 C -32.963001 -66.647987 -34.720515 -69.510317 -34.720515 -73.138204 C -34.720515 -75.235577 -34.096914 -76.851222 -32.849828 -77.984937 C -31.602742 -79.175337 -30.04374 -79.770358 -28.173111 -79.770358 C -26.245796 -79.770358 -24.290286 -79.005405 -22.306285 -77.474891 C -22.816457 -76.397862 -23.071613 -75.094016 -23.071613 -73.563501 C -23.071613 -71.749558 -22.533237 -70.275781 -21.456208 -69.142066 C -20.322493 -68.008351 -18.650204 -67.441394 -16.43946 -67.441394 C -11.564487 -67.441394 -9.126728 -70.814037 -9.126728 -77.55964 C -9.126728 -81.244213 -10.317285 -84.10706 -12.698086 -86.147746 C -15.022201 -88.188433 -18.3382 -89.208541 -22.646316 -89.208541 L -22.646316 -94.480571 C -14.313513 -95.1608 -10.147338 -98.760535 -10.147338 -105.27939 C -10.147338 -108.56717 -10.657133 -110.97583 -11.677477 -112.50634 C -12.69782 -114.09354 -14.08689 -114.88759 -15.844147 -114.88759 C -17.94152 -114.88759 -19.528585 -114.15071 -20.605614 -112.67688 C -21.625957 -111.20305 -22.13627 -109.41747 -22.13627 -107.3201 C -22.13627 -105.44947 -21.739245 -103.77718 -20.945645 -102.30335 C -22.532845 -100.60278 -24.573579 -99.752084 -27.067752 -99.752084 C -29.335181 -99.752084 -31.092695 -100.43233 -32.339781 -101.79279 C -33.586868 -103.15324 -34.210468 -104.91076 -34.210468 -107.06482 C -34.210468 -109.8991 -33.246487 -112.25164 -31.319172 -114.12227 C -29.335171 -116.04958 -26.897929 -117.46671 -24.006957 -118.37369 C -21.059298 -119.28066 -18.168388 -119.73381 -15.334101 -119.73381 z M -51.386164 -119.13901 L -48.580134 -117.86364 L -48.580134 -68.716769 C -47.503105 -68.093226 -45.802752 -67.526269 -43.478636 -67.016097 C -41.154521 -66.562611 -39.311783 -66.279392 -37.951325 -66.16602 L -38.206607 -62.084615 L -72.898546 -62.084615 L -72.728531 -66.16602 C -67.6835 -66.732877 -63.828608 -67.583054 -61.164379 -68.716769 L -61.164379 -109.44555 L -72.557998 -109.44555 L -72.557998 -114.37703 C -68.930111 -114.66046 -65.189024 -115.19935 -61.334394 -115.99295 C -57.479764 -116.84324 -54.163765 -117.89193 -51.386164 -119.13901 z M -122.55495 -113.78224 C -124.82238 -113.78224 -126.60795 -113.04535 -127.91173 -111.57152 C -129.2155 -110.15437 -129.86768 -108.22693 -129.86768 -105.78944 C -129.86768 -103.63538 -129.04557 -101.84981 -127.40168 -100.43266 C -125.70111 -99.072205 -123.23528 -97.711715 -120.0042 -96.351258 C -118.58705 -97.314915 -117.45314 -98.646824 -116.60286 -100.3474 C -115.75257 -102.04797 -115.32748 -103.86213 -115.32748 -105.78944 C -115.32748 -108.22693 -116.00773 -110.15437 -117.36818 -111.57152 C -118.67195 -113.04535 -120.40089 -113.78224 -122.55495 -113.78224 z M -85.992837 -101.28274 C -84.008836 -101.28274 -82.535059 -100.68772 -81.571402 -99.497319 C -80.551058 -98.363604 -80.040746 -96.776539 -80.040746 -94.735852 C -80.040746 -92.695166 -80.551058 -91.107584 -81.571402 -89.973869 C -82.535059 -88.840154 -84.008836 -88.273198 -85.992837 -88.273198 C -87.976838 -88.273198 -89.479196 -88.840154 -90.499539 -89.973869 C -91.463196 -91.16427 -91.944929 -92.751852 -91.944929 -94.735852 C -91.944929 -96.833225 -91.463196 -98.448354 -90.499539 -99.582068 C -89.479196 -100.71578 -87.976838 -101.28274 -85.992837 -101.28274 z M -126.04104 -89.038526 C -127.74161 -87.678068 -128.98881 -86.119583 -129.78241 -84.362325 C -130.57601 -82.605068 -130.97304 -80.50769 -130.97304 -78.070203 C -130.97304 -74.725745 -130.15092 -72.089474 -128.50704 -70.162159 C -126.86315 -68.291529 -124.62391 -67.356645 -121.78962 -67.356645 C -119.01202 -67.356645 -116.858 -68.291529 -115.32748 -70.162159 C -113.74028 -72.032788 -112.94675 -74.640479 -112.94675 -77.984937 C -112.94675 -79.855566 -113.54228 -81.442631 -114.73269 -82.746403 C -115.8664 -84.106861 -117.3116 -85.212194 -119.06885 -86.06248 C -120.82611 -86.969452 -123.15007 -87.961497 -126.04104 -89.038526 z M -85.992837 -74.498845 C -84.008836 -74.498845 -82.535059 -73.903824 -81.571402 -72.713424 C -80.551058 -71.579709 -80.040746 -69.992127 -80.040746 -67.951441 C -80.040746 -65.910754 -80.551058 -64.323689 -81.571402 -63.189974 C -82.535059 -62.05626 -84.008836 -61.489303 -85.992837 -61.489303 C -87.976838 -61.489303 -89.479196 -62.05626 -90.499539 -63.189974 C -91.463196 -64.380375 -91.944929 -65.96744 -91.944929 -67.951441 C -91.944929 -70.048813 -91.463196 -71.664459 -90.499539 -72.798173 C -89.479196 -73.931888 -87.976838 -74.498845 -85.992837 -74.498845 z " /></g></svg>
