<?xml version="1.0" encoding="UTF-8" standalone="no"?>
<!-- Created with Inkscape (http://www.inkscape.org/) -->

<svg
   width="172.6701mm"
   height="172.6701mm"
   viewBox="0 0 172.6701 172.6701"
   version="1.1"
   id="svg1"
   xml:space="preserve"
   xmlns="http://www.w3.org/2000/svg"
   xmlns:svg="http://www.w3.org/2000/svg"><defs
     id="defs1" /><g
     id="layer1"
     transform="translate(157.25102,198.81012)"><path
       id="path5"
       style="fill:#ffffff;fill-opacity:1;stroke-width:0.805188;stroke-linecap:round;stroke-linejoin:round"
       d="M -2.0863309 -198.17657 L -10.088943 -183.11289 L -10.930235 -165.68398 L -19.198981 -165.68398 L -11.423229 -155.47426 L -12.166336 -140.07934 C -28.353216 -157.12094 -50.823548 -166.77435 -74.327399 -166.78417 C -103.64471 -166.77397 -130.92652 -151.79225 -146.66717 -127.05894 L -157.25102 -127.05894 L -149.61996 -115.86014 L -157.25102 -26.140039 L -8.5138455 -26.140039 L 15.419061 -26.140039 L 8.0799737 -154.80195 L 15.419061 -165.68398 L 7.4593397 -165.68398 L 6.4490654 -183.39297 L -2.0863309 -198.17657 z M -83.43072 -192.21621 C -85.584619 -189.65499 -86.77489 -186.4211 -86.795372 -183.07465 C -86.842092 -175.15518 -80.459903 -168.69733 -72.540428 -168.65072 C -64.621155 -168.60402 -58.163395 -174.98588 -58.116503 -182.90515 C -58.102813 -186.26049 -59.266203 -189.5144 -61.404157 -192.10045 C -60.83125 -190.6836 -60.536835 -189.16959 -60.537027 -187.64129 C -60.575787 -181.07411 -65.930869 -175.78172 -72.498054 -175.82031 C -79.065241 -175.85911 -84.357627 -181.21415 -84.319038 -187.78134 C -84.309338 -189.30285 -84.007827 -190.80837 -83.43072 -192.21621 z M -121.95963 -119.81908 C -116.00763 -119.81908 -111.2745 -118.54381 -107.75998 -115.99295 C -104.24547 -113.44209 -102.48847 -110.01229 -102.48847 -105.70418 C -102.48847 -103.38006 -103.33865 -101.05611 -105.03922 -98.731991 C -106.73979 -96.407876 -108.97904 -94.50901 -111.75664 -93.035181 C -108.24212 -91.334609 -105.49256 -89.350519 -103.50856 -87.08309 C -101.46788 -84.81566 -100.44777 -81.896169 -100.44777 -78.324968 C -100.44777 -73.166566 -102.31805 -69.057034 -106.05931 -65.996005 C -109.80057 -62.991661 -114.84602 -61.489303 -121.19482 -61.489303 C -128.16717 -61.489303 -133.55196 -62.878373 -137.34991 -65.655974 C -141.09117 -68.433575 -142.96197 -72.401238 -142.96197 -77.55964 C -142.96197 -80.223869 -142.11179 -82.86014 -140.41122 -85.467684 C -138.71065 -88.131914 -136.32953 -90.483931 -133.2685 -92.524618 C -135.81936 -93.941761 -137.80345 -95.642631 -139.2206 -97.626632 C -140.63774 -99.610633 -141.34656 -102.07646 -141.34656 -105.02411 C -141.34656 -109.55897 -139.58905 -113.15871 -136.07453 -115.82294 C -132.56002 -118.48717 -127.85495 -119.81908 -121.95963 -119.81908 z M -50.790852 -119.13901 L -47.984821 -117.86364 L -47.984821 -68.716769 C -46.907792 -68.093226 -45.207439 -67.526269 -42.883324 -67.016097 C -40.559209 -66.562611 -38.716987 -66.279392 -37.356529 -66.16602 L -37.611294 -62.084615 L -72.303234 -62.084615 L -72.133218 -66.16602 C -67.088188 -66.732877 -63.233296 -67.583054 -60.569066 -68.716769 L -60.569066 -109.44555 L -71.963203 -109.44555 L -71.963203 -114.37703 C -68.335316 -114.66046 -64.593712 -115.19935 -60.739082 -115.99295 C -56.884452 -116.84324 -53.568453 -117.89193 -50.790852 -119.13901 z M -32.935094 -118.88373 L -28.768423 -118.88373 C -26.614365 -118.82705 -21.909297 -118.79847 -14.653522 -118.79847 C -7.1143197 -118.79847 -2.2112554 -118.82705 0.05617401 -118.88373 L 4.1375786 -118.88373 L 5.83825 -115.22762 C 4.7612211 -113.52705 2.720487 -109.84261 -0.28385691 -104.17404 C -3.2882009 -98.505463 -6.1224675 -92.496548 -8.7866971 -86.147746 C -11.450927 -79.798944 -12.783352 -74.838719 -12.783352 -71.267517 C -12.783352 -68.433231 -11.791307 -66.307789 -9.8073066 -64.890646 C -11.734622 -62.566531 -14.200444 -61.404554 -17.204788 -61.404554 C -19.982389 -61.404554 -22.136411 -62.169506 -23.666926 -63.700021 C -25.197441 -65.230536 -25.962393 -67.356494 -25.962393 -70.077409 C -25.962393 -73.478553 -25.140797 -77.077772 -23.49691 -80.875717 C -21.853024 -84.730347 -18.904953 -89.945728 -14.653522 -96.521273 L -4.6205431 -111.9963 L -24.006957 -111.9963 C -24.800557 -109.44544 -25.282289 -106.44124 -25.452346 -102.98341 C -26.47269 -102.81335 -27.521379 -102.72813 -28.598408 -102.72813 C -29.732122 -102.72813 -30.837455 -102.81335 -31.914484 -102.98341 L -34.295218 -117.60836 L -32.935094 -118.88373 z M -121.95963 -113.78224 C -124.22706 -113.78224 -126.01316 -113.04535 -127.31693 -111.57152 C -128.6207 -110.15437 -129.27237 -108.22693 -129.27237 -105.78944 C -129.27237 -103.63538 -128.45025 -101.84981 -126.80637 -100.43266 C -125.10579 -99.072205 -122.63997 -97.711715 -119.40889 -96.351258 C -117.99174 -97.314915 -116.85835 -98.646824 -116.00806 -100.3474 C -115.15777 -102.04797 -114.73269 -103.86213 -114.73269 -105.78944 C -114.73269 -108.22693 -115.41293 -110.15437 -116.77339 -111.57152 C -118.07716 -113.04535 -119.80558 -113.78224 -121.95963 -113.78224 z M -85.397525 -101.28274 C -83.413524 -101.28274 -81.939747 -100.68772 -80.976089 -99.497319 C -79.955746 -98.363604 -79.445433 -96.776539 -79.445433 -94.735852 C -79.445433 -92.695166 -79.955746 -91.107584 -80.976089 -89.973869 C -81.939747 -88.840154 -83.413524 -88.273198 -85.397525 -88.273198 C -87.381525 -88.273198 -88.883883 -88.840154 -89.904226 -89.973869 C -90.867884 -91.16427 -91.349616 -92.751852 -91.349616 -94.735852 C -91.349616 -96.833225 -90.867884 -98.448354 -89.904226 -99.582068 C -88.883883 -100.71578 -87.381525 -101.28274 -85.397525 -101.28274 z M -125.44624 -89.038526 C -127.14682 -87.678068 -128.3935 -86.119583 -129.1871 -84.362325 C -129.9807 -82.605068 -130.37772 -80.50769 -130.37772 -78.070203 C -130.37772 -74.725745 -129.55561 -72.089474 -127.91173 -70.162159 C -126.26784 -68.291529 -124.02911 -67.356645 -121.19482 -67.356645 C -118.41722 -67.356645 -116.2632 -68.291529 -114.73269 -70.162159 C -113.14548 -72.032788 -112.35144 -74.640479 -112.35144 -77.984937 C -112.35144 -79.855566 -112.94697 -81.442631 -114.13737 -82.746403 C -115.27109 -84.106861 -116.71628 -85.212194 -118.47354 -86.06248 C -120.2308 -86.969452 -122.55527 -87.961497 -125.44624 -89.038526 z M -85.397525 -74.498845 C -83.413524 -74.498845 -81.939747 -73.903824 -80.976089 -72.713424 C -79.955746 -71.579709 -79.445433 -69.992127 -79.445433 -67.951441 C -79.445433 -65.910754 -79.955746 -64.323689 -80.976089 -63.189974 C -81.939747 -62.05626 -83.413524 -61.489303 -85.397525 -61.489303 C -87.381525 -61.489303 -88.883883 -62.05626 -89.904226 -63.189974 C -90.867884 -64.380375 -91.349616 -65.96744 -91.349616 -67.951441 C -91.349616 -70.048813 -90.867884 -71.664459 -89.904226 -72.798173 C -88.883883 -73.931888 -87.381525 -74.498845 -85.397525 -74.498845 z " /></g></svg>
