<?xml version="1.0" encoding="UTF-8" standalone="no"?>
<!-- Created with Inkscape (http://www.inkscape.org/) -->

<svg
   width="172.6701mm"
   height="172.6701mm"
   viewBox="0 0 172.6701 172.6701"
   version="1.1"
   id="svg1"
   xml:space="preserve"
   xmlns="http://www.w3.org/2000/svg"
   xmlns:svg="http://www.w3.org/2000/svg"><defs
     id="defs1" /><g
     id="layer1"
     transform="translate(157.25102,198.81012)"><path
       id="path5"
       style="fill:#ffffff;fill-opacity:1;stroke-width:0.805188;stroke-linecap:round;stroke-linejoin:round"
       d="M -2.0863309 -198.17657 L -10.088943 -183.11289 L -10.930235 -165.68398 L -19.198981 -165.68398 L -11.423229 -155.47426 L -12.166336 -140.07934 C -28.353216 -157.12094 -50.823548 -166.77435 -74.327399 -166.78417 C -103.64471 -166.77397 -130.92652 -151.79225 -146.66717 -127.05894 L -157.25102 -127.05894 L -149.61996 -115.86014 L -157.25102 -26.140039 L -8.5138455 -26.140039 L 15.419061 -26.140039 L 8.0799737 -154.80195 L 15.419061 -165.68398 L 7.4593397 -165.68398 L 6.4490654 -183.39297 L -2.0863309 -198.17657 z M -83.43072 -192.21621 C -85.584619 -189.65499 -86.77489 -186.4211 -86.795372 -183.07465 C -86.842092 -175.15518 -80.459903 -168.69733 -72.540428 -168.65072 C -64.621155 -168.60402 -58.163395 -174.98588 -58.116503 -182.90515 C -58.102813 -186.26049 -59.266203 -189.5144 -61.404157 -192.10045 C -60.83125 -190.6836 -60.536835 -189.16959 -60.537027 -187.64129 C -60.575787 -181.07411 -65.930869 -175.78172 -72.498054 -175.82031 C -79.065241 -175.85911 -84.357627 -181.21415 -84.319038 -187.78134 C -84.309338 -189.30285 -84.007827 -190.80837 -83.43072 -192.21621 z M -124.59565 -119.81908 C -118.64365 -119.81908 -113.91051 -118.54381 -110.396 -115.99295 C -106.88148 -113.44209 -105.12449 -110.01229 -105.12449 -105.70418 C -105.12449 -103.38006 -105.97466 -101.05611 -107.67523 -98.731991 C -109.37581 -96.407876 -111.61454 -94.50901 -114.39214 -93.035181 C -110.87762 -91.334609 -108.12858 -89.350519 -106.14458 -87.08309 C -104.10389 -84.81566 -103.08378 -81.896169 -103.08378 -78.324968 C -103.08378 -73.166566 -104.95407 -69.057034 -108.69533 -65.996005 C -112.43659 -62.991661 -117.48152 -61.489303 -123.83032 -61.489303 C -130.80267 -61.489303 -136.18798 -62.878373 -139.98592 -65.655974 C -143.72718 -68.433575 -145.59798 -72.401238 -145.59798 -77.55964 C -145.59798 -80.223869 -144.74781 -82.86014 -143.04724 -85.467684 C -141.34666 -88.131914 -138.96555 -90.483931 -135.90452 -92.524618 C -138.45538 -93.941761 -140.43947 -95.642631 -141.85661 -97.626632 C -143.27375 -99.610633 -143.98206 -102.07646 -143.98206 -105.02411 C -143.98206 -109.55897 -142.22507 -113.15871 -138.71055 -115.82294 C -135.19603 -118.48717 -130.49097 -119.81908 -124.59565 -119.81908 z M -14.568773 -119.81908 C -8.6167709 -119.81908 -3.8836386 -118.54381 -0.36912303 -115.99295 C 3.1453925 -113.44209 4.9029066 -110.01229 4.9029066 -105.70418 C 4.9029066 -103.38006 4.0527299 -101.05611 2.3521579 -98.731991 C 0.65158585 -96.407876 -1.5876605 -94.50901 -4.3652615 -93.035181 C -0.85074596 -91.334609 1.8982963 -89.350519 3.8822971 -87.08309 C 5.9229835 -84.81566 6.9436089 -81.896169 6.9436089 -78.324968 C 6.9436089 -73.166566 5.0728069 -69.057034 1.3315484 -65.996005 C -2.4097102 -62.991661 -7.4546428 -61.489303 -13.803445 -61.489303 C -20.775791 -61.489303 -26.161104 -62.878373 -29.959048 -65.655974 C -33.700307 -68.433575 -35.570592 -72.401238 -35.570592 -77.55964 C -35.570592 -80.223869 -34.720415 -82.86014 -33.019843 -85.467684 C -31.319271 -88.131914 -28.938673 -90.483931 -25.877644 -92.524618 C -28.428502 -93.941761 -30.412592 -95.642631 -31.829735 -97.626632 C -33.246878 -99.610633 -33.955187 -102.07646 -33.955187 -105.02411 C -33.955187 -109.55897 -32.198189 -113.15871 -28.683674 -115.82294 C -25.169158 -118.48717 -20.46409 -119.81908 -14.568773 -119.81908 z M -53.426866 -119.13901 L -50.620836 -117.86364 L -50.620836 -68.716769 C -49.543807 -68.093226 -47.843454 -67.526269 -45.519339 -67.016097 C -43.195224 -66.562611 -41.352485 -66.279392 -39.992027 -66.16602 L -40.247309 -62.084615 L -74.939248 -62.084615 L -74.769233 -66.16602 C -69.724202 -66.732877 -65.86931 -67.583054 -63.205081 -68.716769 L -63.205081 -109.44555 L -74.598701 -109.44555 L -74.598701 -114.37703 C -70.970814 -114.66046 -67.229726 -115.19935 -63.375096 -115.99295 C -59.520466 -116.84324 -56.204467 -117.89193 -53.426866 -119.13901 z M -124.59565 -113.78224 C -126.86308 -113.78224 -128.64866 -113.04535 -129.95243 -111.57152 C -131.2562 -110.15437 -131.90838 -108.22693 -131.90838 -105.78944 C -131.90838 -103.63538 -131.08627 -101.84981 -129.44238 -100.43266 C -127.74181 -99.072205 -125.27599 -97.711715 -122.0449 -96.351258 C -120.62776 -97.314915 -119.49384 -98.646824 -118.64356 -100.3474 C -117.79327 -102.04797 -117.36818 -103.86213 -117.36818 -105.78944 C -117.36818 -108.22693 -118.04843 -110.15437 -119.40889 -111.57152 C -120.71266 -113.04535 -122.44159 -113.78224 -124.59565 -113.78224 z M -14.568773 -113.78224 C -16.836202 -113.78224 -18.62178 -113.04535 -19.925552 -111.57152 C -21.229324 -110.15437 -21.880988 -108.22693 -21.880988 -105.78944 C -21.880988 -103.63538 -21.059392 -101.84981 -19.415506 -100.43266 C -17.714934 -99.072205 -15.249111 -97.711715 -12.018024 -96.351258 C -10.600881 -97.314915 -9.4669676 -98.646824 -8.6166816 -100.3474 C -7.7663956 -102.04797 -7.3413073 -103.86213 -7.3413073 -105.78944 C -7.3413073 -108.22693 -8.0215519 -110.15437 -9.3820096 -111.57152 C -10.685781 -113.04535 -12.414715 -113.78224 -14.568773 -113.78224 z M -88.03354 -101.28274 C -86.049539 -101.28274 -84.575761 -100.68772 -83.612104 -99.497319 C -82.591761 -98.363604 -82.081448 -96.776539 -82.081448 -94.735852 C -82.081448 -92.695166 -82.591761 -91.107584 -83.612104 -89.973869 C -84.575761 -88.840154 -86.049539 -88.273198 -88.03354 -88.273198 C -90.01754 -88.273198 -91.519898 -88.840154 -92.540241 -89.973869 C -93.503899 -91.16427 -93.985631 -92.751852 -93.985631 -94.735852 C -93.985631 -96.833225 -93.503899 -98.448354 -92.540241 -99.582068 C -91.519898 -100.71578 -90.01754 -101.28274 -88.03354 -101.28274 z M -128.08174 -89.038526 C -129.78231 -87.678068 -131.02951 -86.119583 -131.82311 -84.362325 C -132.61672 -82.605068 -133.01374 -80.50769 -133.01374 -78.070203 C -133.01374 -74.725745 -132.19163 -72.089474 -130.54774 -70.162159 C -128.90385 -68.291529 -126.66461 -67.356645 -123.83032 -67.356645 C -121.05272 -67.356645 -118.8987 -68.291529 -117.36818 -70.162159 C -115.78098 -72.032788 -114.98745 -74.640479 -114.98745 -77.984937 C -114.98745 -79.855566 -115.58299 -81.442631 -116.77339 -82.746403 C -117.9071 -84.106861 -119.3523 -85.212194 -121.10956 -86.06248 C -122.86681 -86.969452 -125.19077 -87.961497 -128.08174 -89.038526 z M -18.054865 -89.038526 C -19.755437 -87.678068 -21.002639 -86.119583 -21.796239 -84.362325 C -22.589839 -82.605068 -22.986347 -80.50769 -22.986347 -78.070203 C -22.986347 -74.725745 -22.164751 -72.089474 -20.520865 -70.162159 C -18.876978 -68.291529 -16.637732 -67.356645 -13.803445 -67.356645 C -11.025844 -67.356645 -8.8718221 -68.291529 -7.3413073 -70.162159 C -5.7541067 -72.032788 -4.960574 -74.640479 -4.960574 -77.984937 C -4.960574 -79.855566 -5.5555943 -81.442631 -6.7459948 -82.746403 C -7.8797095 -84.106861 -9.3254232 -85.212194 -11.082681 -86.06248 C -12.839939 -86.969452 -15.163893 -87.961497 -18.054865 -89.038526 z M -88.03354 -74.498845 C -86.049539 -74.498845 -84.575761 -73.903824 -83.612104 -72.713424 C -82.591761 -71.579709 -82.081448 -69.992127 -82.081448 -67.951441 C -82.081448 -65.910754 -82.591761 -64.323689 -83.612104 -63.189974 C -84.575761 -62.05626 -86.049539 -61.489303 -88.03354 -61.489303 C -90.01754 -61.489303 -91.519898 -62.05626 -92.540241 -63.189974 C -93.503899 -64.380375 -93.985631 -65.96744 -93.985631 -67.951441 C -93.985631 -70.048813 -93.503899 -71.664459 -92.540241 -72.798173 C -91.519898 -73.931888 -90.01754 -74.498845 -88.03354 -74.498845 z " /></g></svg>
