<?xml version="1.0" encoding="UTF-8" standalone="no"?>
<!-- Created with Inkscape (http://www.inkscape.org/) -->

<svg
   width="172.6701mm"
   height="172.6701mm"
   viewBox="0 0 172.6701 172.6701"
   version="1.1"
   id="svg1"
   xml:space="preserve"
   xmlns="http://www.w3.org/2000/svg"
   xmlns:svg="http://www.w3.org/2000/svg"><defs
     id="defs1" /><g
     id="layer1"
     transform="translate(157.25102,198.81012)"><path
       id="path5"
       style="fill:#ffffff;fill-opacity:1;stroke-width:0.805188;stroke-linecap:round;stroke-linejoin:round"
       d="M -2.0863309 -198.17657 L -10.088943 -183.11289 L -10.930235 -165.68398 L -19.198981 -165.68398 L -11.423229 -155.47426 L -12.166336 -140.07934 C -28.353216 -157.12094 -50.823548 -166.77435 -74.327399 -166.78417 C -103.64471 -166.77397 -130.92652 -151.79225 -146.66717 -127.05894 L -157.25102 -127.05894 L -149.61996 -115.86014 L -157.25102 -26.140039 L -8.5138455 -26.140039 L 15.419061 -26.140039 L 8.0799737 -154.80195 L 15.419061 -165.68398 L 7.4593397 -165.68398 L 6.4490654 -183.39297 L -2.0863309 -198.17657 z M -83.43072 -192.21621 C -85.584619 -189.65499 -86.77489 -186.4211 -86.795372 -183.07465 C -86.842092 -175.15518 -80.459903 -168.69733 -72.540428 -168.65072 C -64.621155 -168.60402 -58.163395 -174.98588 -58.116503 -182.90515 C -58.102813 -186.26049 -59.266203 -189.5144 -61.404157 -192.10045 C -60.83125 -190.6836 -60.536835 -189.16959 -60.537027 -187.64129 C -60.575787 -181.07411 -65.930869 -175.78172 -72.498054 -175.82031 C -79.065241 -175.85911 -84.357627 -181.21415 -84.319038 -187.78134 C -84.309338 -189.30285 -84.007827 -190.80837 -83.43072 -192.21621 z M -123.66031 -119.81908 C -117.7083 -119.81908 -112.97517 -118.54381 -109.46066 -115.99295 C -105.94614 -113.44209 -104.18914 -110.01229 -104.18914 -105.70418 C -104.18914 -103.38006 -105.03932 -101.05611 -106.73989 -98.731991 C -108.44046 -96.407876 -110.67971 -94.50901 -113.45731 -93.035181 C -109.9428 -91.334609 -107.19324 -89.350519 -105.20924 -87.08309 C -103.16855 -84.81566 -102.14844 -81.896169 -102.14844 -78.324968 C -102.14844 -73.166566 -104.01873 -69.057034 -107.75998 -65.996005 C -111.50124 -62.991661 -116.54618 -61.489303 -122.89498 -61.489303 C -129.86732 -61.489303 -135.25264 -62.878373 -139.05058 -65.655974 C -142.79184 -68.433575 -144.66264 -72.401238 -144.66264 -77.55964 C -144.66264 -80.223869 -143.81246 -82.86014 -142.11189 -85.467684 C -140.41132 -88.131914 -138.03021 -90.483931 -134.96918 -92.524618 C -137.52003 -93.941761 -139.50412 -95.642631 -140.92127 -97.626632 C -142.33841 -99.610633 -143.04724 -102.07646 -143.04724 -105.02411 C -143.04724 -109.55897 -141.28972 -113.15871 -137.77521 -115.82294 C -134.26069 -118.48717 -129.55562 -119.81908 -123.66031 -119.81908 z M -14.738789 -119.56379 C -7.9931861 -119.56379 -2.8349654 -117.69351 0.73623586 -113.95225 C 4.3641229 -110.21099 6.1782809 -104.7971 6.1782809 -97.711381 C 6.1782809 -88.811721 3.4006583 -81.216258 -2.1545438 -74.924142 C -7.6530601 -68.688711 -15.645547 -64.09693 -26.132408 -61.149272 L -28.173111 -65.400692 C -22.504537 -67.838179 -17.941337 -70.956182 -14.483507 -74.754126 C -11.025677 -78.608756 -8.7303035 -83.086732 -7.5965888 -88.188448 C -10.77099 -86.601248 -13.860413 -85.807715 -16.864757 -85.807715 C -22.53333 -85.807715 -27.011306 -87.338137 -30.299079 -90.399166 C -33.530166 -93.460196 -35.145812 -97.598308 -35.145812 -102.8134 C -35.145812 -106.04448 -34.295118 -108.93539 -32.594546 -111.48625 C -30.837288 -114.03711 -28.428627 -116.0212 -25.367597 -117.43834 C -22.249882 -118.85549 -18.70679 -119.56379 -14.738789 -119.56379 z M -52.491523 -119.13901 L -49.685493 -117.86364 L -49.685493 -68.716769 C -48.608464 -68.093226 -46.90811 -67.526269 -44.583995 -67.016097 C -42.25988 -66.562611 -40.417658 -66.279392 -39.057201 -66.16602 L -39.311966 -62.084615 L -74.003905 -62.084615 L -73.833889 -66.16602 C -68.788859 -66.732877 -64.933967 -67.583054 -62.269737 -68.716769 L -62.269737 -109.44555 L -73.663874 -109.44555 L -73.663874 -114.37703 C -70.035987 -114.66046 -66.294383 -115.19935 -62.439753 -115.99295 C -58.585123 -116.84324 -55.269124 -117.89193 -52.491523 -119.13901 z M -123.66031 -113.78224 C -125.92773 -113.78224 -127.71331 -113.04535 -129.01708 -111.57152 C -130.32086 -110.15437 -130.97304 -108.22693 -130.97304 -105.78944 C -130.97304 -103.63538 -130.15092 -101.84981 -128.50704 -100.43266 C -126.80647 -99.072205 -124.34064 -97.711715 -121.10956 -96.351258 C -119.69241 -97.314915 -118.55902 -98.646824 -117.70873 -100.3474 C -116.85844 -102.04797 -116.43284 -103.86213 -116.43284 -105.78944 C -116.43284 -108.22693 -117.11308 -110.15437 -118.47354 -111.57152 C -119.77731 -113.04535 -121.50625 -113.78224 -123.66031 -113.78224 z M -15.248835 -113.69697 C -17.686322 -113.69697 -19.557124 -112.76157 -20.860895 -110.89094 C -22.164667 -109.02031 -22.816332 -106.35597 -22.816332 -102.89814 C -22.816332 -99.383629 -22.108023 -96.634587 -20.69088 -94.650586 C -19.217051 -92.723271 -17.147737 -91.759807 -14.483507 -91.759807 C -12.159392 -91.759807 -9.5802815 -92.723271 -6.7459948 -94.650586 L -6.7459948 -95.755945 C -6.7459948 -101.93469 -7.4262394 -106.46931 -8.7866971 -109.36028 C -10.147155 -112.25126 -12.301177 -113.69697 -15.248835 -113.69697 z M -87.098196 -101.28274 C -85.114195 -101.28274 -83.640418 -100.68772 -82.676761 -99.497319 C -81.656417 -98.363604 -81.146105 -96.776539 -81.146105 -94.735852 C -81.146105 -92.695166 -81.656417 -91.107584 -82.676761 -89.973869 C -83.640418 -88.840154 -85.114195 -88.273198 -87.098196 -88.273198 C -89.082197 -88.273198 -90.584555 -88.840154 -91.604898 -89.973869 C -92.568555 -91.16427 -93.050288 -92.751852 -93.050288 -94.735852 C -93.050288 -96.833225 -92.568555 -98.448354 -91.604898 -99.582068 C -90.584555 -100.71578 -89.082197 -101.28274 -87.098196 -101.28274 z M -127.14691 -89.038526 C -128.84749 -87.678068 -130.09417 -86.119583 -130.88777 -84.362325 C -131.68137 -82.605068 -132.0784 -80.50769 -132.0784 -78.070203 C -132.0784 -74.725745 -131.25628 -72.089474 -129.6124 -70.162159 C -127.96851 -68.291529 -125.72926 -67.356645 -122.89498 -67.356645 C -120.11738 -67.356645 -117.96335 -68.291529 -116.43284 -70.162159 C -114.84564 -72.032788 -114.05211 -74.640479 -114.05211 -77.984937 C -114.05211 -79.855566 -114.64764 -81.442631 -115.83804 -82.746403 C -116.97176 -84.106861 -118.41696 -85.212194 -120.17421 -86.06248 C -121.93147 -86.969452 -124.25594 -87.961497 -127.14691 -89.038526 z M -87.098196 -74.498845 C -85.114195 -74.498845 -83.640418 -73.903824 -82.676761 -72.713424 C -81.656417 -71.579709 -81.146105 -69.992127 -81.146105 -67.951441 C -81.146105 -65.910754 -81.656417 -64.323689 -82.676761 -63.189974 C -83.640418 -62.05626 -85.114195 -61.489303 -87.098196 -61.489303 C -89.082197 -61.489303 -90.584555 -62.05626 -91.604898 -63.189974 C -92.568555 -64.380375 -93.050288 -65.96744 -93.050288 -67.951441 C -93.050288 -70.048813 -92.568555 -71.664459 -91.604898 -72.798173 C -90.584555 -73.931888 -89.082197 -74.498845 -87.098196 -74.498845 z " /></g></svg>
