<?xml version="1.0" encoding="UTF-8" standalone="no"?>
<!-- Created with Inkscape (http://www.inkscape.org/) -->

<svg
   width="172.6701mm"
   height="172.6701mm"
   viewBox="0 0 172.6701 172.6701"
   version="1.1"
   id="svg1"
   xml:space="preserve"
   xmlns="http://www.w3.org/2000/svg"
   xmlns:svg="http://www.w3.org/2000/svg"><defs
     id="defs1" /><g
     id="layer1"
     transform="translate(157.25102,198.81012)"><path
       id="path5"
       style="fill:#ffffff;fill-opacity:1;stroke-width:0.805188;stroke-linecap:round;stroke-linejoin:round"
       d="M -2.0863309 -198.17657 L -10.088943 -183.11289 L -10.930235 -165.68398 L -19.198981 -165.68398 L -11.423229 -155.47426 L -12.166336 -140.07934 C -28.353216 -157.12094 -50.823548 -166.77435 -74.327399 -166.78417 C -103.64471 -166.77397 -130.92652 -151.79225 -146.66717 -127.05894 L -157.25102 -127.05894 L -149.61996 -115.86014 L -157.25102 -26.140039 L -8.5138455 -26.140039 L 15.419061 -26.140039 L 8.0799737 -154.80195 L 15.419061 -165.68398 L 7.4593397 -165.68398 L 6.4490654 -183.39297 L -2.0863309 -198.17657 z M -83.43072 -192.21621 C -85.584619 -189.65499 -86.77489 -186.4211 -86.795372 -183.07465 C -86.842092 -175.15518 -80.459903 -168.69733 -72.540428 -168.65072 C -64.621155 -168.60402 -58.163395 -174.98588 -58.116503 -182.90515 C -58.102813 -186.26049 -59.266203 -189.5144 -61.404157 -192.10045 C -60.83125 -190.6836 -60.536835 -189.16959 -60.537027 -187.64129 C -60.575787 -181.07411 -65.930869 -175.78172 -72.498054 -175.82031 C -79.065241 -175.85911 -84.357627 -181.21415 -84.319038 -187.78134 C -84.309338 -189.30285 -84.007827 -190.80837 -83.43072 -192.21621 z M -14.228742 -120.07436 C -9.6938834 -119.84761 -6.0089233 -118.85557 -3.1746365 -117.09831 L -23.411644 -83.767013 L -10.402102 -83.767013 L -9.552025 -97.626632 C -7.7380815 -97.626632 -6.4342362 -97.995076 -5.6406359 -98.731991 C -4.7903499 -99.468905 -4.1386856 -100.71611 -3.6851997 -102.47336 L 1.1615329 -102.47336 L 1.0767835 -83.341716 C 3.2308415 -82.718173 5.9513034 -82.066508 9.239076 -81.38628 L 8.8142958 -77.304875 L 0.65148651 -77.304875 L 0.65148651 -62.084615 L -10.402102 -62.084615 L -10.402102 -77.304875 L -34.975796 -77.304875 L -35.655858 -80.36567 L -14.228742 -120.07436 z M -126.5516 -119.81908 C -120.5996 -119.81908 -115.86595 -118.54381 -112.35144 -115.99295 C -108.83692 -113.44209 -107.07992 -110.01229 -107.07992 -105.70418 C -107.07992 -103.38006 -107.9301 -101.05611 -109.63067 -98.731991 C -111.33124 -96.407876 -113.57049 -94.50901 -116.34809 -93.035181 C -112.83357 -91.334609 -110.08402 -89.350519 -108.10001 -87.08309 C -106.05933 -84.81566 -105.03922 -81.896169 -105.03922 -78.324968 C -105.03922 -73.166566 -106.91002 -69.057034 -110.65128 -65.996005 C -114.39254 -62.991661 -119.43747 -61.489303 -125.78627 -61.489303 C -132.75862 -61.489303 -138.14342 -62.878373 -141.94136 -65.655974 C -145.68262 -68.433575 -147.55342 -72.401238 -147.55342 -77.55964 C -147.55342 -80.223869 -146.70324 -82.86014 -145.00267 -85.467684 C -143.3021 -88.131914 -140.9215 -90.483931 -137.86047 -92.524618 C -140.41133 -93.941761 -142.3949 -95.642631 -143.81205 -97.626632 C -145.22919 -99.610633 -145.93802 -102.07646 -145.93802 -105.02411 C -145.93802 -109.55897 -144.1805 -113.15871 -140.66599 -115.82294 C -137.15147 -118.48717 -132.44692 -119.81908 -126.5516 -119.81908 z M -57.933051 -119.73381 C -52.094421 -119.73381 -47.446513 -118.28861 -43.988683 -115.39764 C -40.530853 -112.56335 -38.801919 -108.56711 -38.801919 -103.40871 C -38.801919 -98.873849 -40.530853 -94.026912 -43.988683 -88.86851 C -47.446513 -83.766794 -53.14311 -77.616529 -61.079112 -70.41744 L -38.206607 -70.41744 L -38.206607 -62.084615 L -76.724669 -62.084615 L -76.724669 -67.016097 C -70.432552 -73.081471 -65.528971 -78.268272 -62.014456 -82.576388 C -58.49994 -86.884504 -55.977474 -90.852684 -54.446959 -94.480571 C -52.859759 -98.108458 -52.066226 -101.84955 -52.066226 -105.70418 C -52.066226 -111.82623 -54.10696 -114.88759 -58.188333 -114.88759 C -60.002276 -114.88759 -61.476054 -114.0369 -62.609768 -112.33633 C -63.743483 -110.69244 -64.31044 -108.65171 -64.31044 -106.21422 C -64.31044 -104.51365 -63.715419 -102.89852 -62.525019 -101.36801 C -63.488677 -100.46103 -64.59401 -99.752209 -65.841096 -99.242037 C -67.031496 -98.731866 -68.221537 -98.476709 -69.411937 -98.476709 C -71.452624 -98.476709 -73.153494 -99.10031 -74.513951 -100.3474 C -75.874409 -101.65117 -76.554654 -103.52197 -76.554654 -105.95946 C -76.554654 -108.567 -75.789185 -110.91953 -74.25867 -113.01691 C -72.728155 -115.11428 -70.574133 -116.75799 -67.796532 -117.94839 C -64.962245 -119.13879 -61.67431 -119.73381 -57.933051 -119.73381 z M -126.5516 -113.78224 C -128.81903 -113.78224 -130.60461 -113.04535 -131.90838 -111.57152 C -133.21215 -110.15437 -133.86382 -108.22693 -133.86382 -105.78944 C -133.86382 -103.63538 -133.0417 -101.84981 -131.39782 -100.43266 C -129.69725 -99.072205 -127.23142 -97.711715 -124.00034 -96.351258 C -122.58319 -97.314915 -121.4498 -98.646824 -120.59951 -100.3474 C -119.74922 -102.04797 -119.32414 -103.86213 -119.32414 -105.78944 C -119.32414 -108.22693 -120.00438 -110.15437 -121.36484 -111.57152 C -122.66861 -113.04535 -124.39754 -113.78224 -126.5516 -113.78224 z M -89.988976 -101.28274 C -88.004975 -101.28274 -86.531198 -100.68772 -85.56754 -99.497319 C -84.547197 -98.363604 -84.036884 -96.776539 -84.036884 -94.735852 C -84.036884 -92.695166 -84.547197 -91.107584 -85.56754 -89.973869 C -86.531198 -88.840154 -88.004975 -88.273198 -89.988976 -88.273198 C -91.972976 -88.273198 -93.475334 -88.840154 -94.495677 -89.973869 C -95.459335 -91.16427 -95.941067 -92.751852 -95.941067 -94.735852 C -95.941067 -96.833225 -95.459335 -98.448354 -94.495677 -99.582068 C -93.475334 -100.71578 -91.972976 -101.28274 -89.988976 -101.28274 z M -130.03769 -89.038526 C -131.73827 -87.678068 -132.98547 -86.119583 -133.77907 -84.362325 C -134.57267 -82.605068 -134.96918 -80.50769 -134.96918 -78.070203 C -134.96918 -74.725745 -134.14706 -72.089474 -132.50318 -70.162159 C -130.85929 -68.291529 -128.62056 -67.356645 -125.78627 -67.356645 C -123.00867 -67.356645 -120.85465 -68.291529 -119.32414 -70.162159 C -117.73694 -72.032788 -116.9434 -74.640479 -116.9434 -77.984937 C -116.9434 -79.855566 -117.53842 -81.442631 -118.72882 -82.746403 C -119.86254 -84.106861 -121.30774 -85.212194 -123.06499 -86.06248 C -124.82225 -86.969452 -127.14672 -87.961497 -130.03769 -89.038526 z M -89.988976 -74.498845 C -88.004975 -74.498845 -86.531198 -73.903824 -85.56754 -72.713424 C -84.547197 -71.579709 -84.036884 -69.992127 -84.036884 -67.951441 C -84.036884 -65.910754 -84.547197 -64.323689 -85.56754 -63.189974 C -86.531198 -62.05626 -88.004975 -61.489303 -89.988976 -61.489303 C -91.972976 -61.489303 -93.475334 -62.05626 -94.495677 -63.189974 C -95.459335 -64.380375 -95.941067 -65.96744 -95.941067 -67.951441 C -95.941067 -70.048813 -95.459335 -71.664459 -94.495677 -72.798173 C -93.475334 -73.931888 -91.972976 -74.498845 -89.988976 -74.498845 z " /></g></svg>
