<?xml version="1.0" encoding="UTF-8" standalone="no"?>
<!-- Created with Inkscape (http://www.inkscape.org/) -->

<svg
   width="172.6701mm"
   height="172.6701mm"
   viewBox="0 0 172.6701 172.6701"
   version="1.1"
   id="svg1"
   xml:space="preserve"
   xmlns="http://www.w3.org/2000/svg"
   xmlns:svg="http://www.w3.org/2000/svg"><defs
     id="defs1" /><g
     id="layer1"
     transform="translate(157.25102,198.81012)"><path
       id="path5"
       style="fill:#ffffff;fill-opacity:1;stroke-width:0.805188;stroke-linecap:round;stroke-linejoin:round"
       d="M -2.0863309 -198.17657 L -10.088943 -183.11289 L -10.930235 -165.68398 L -19.198981 -165.68398 L -11.423229 -155.47426 L -12.166336 -140.07934 C -28.353216 -157.12094 -50.823548 -166.77435 -74.327399 -166.78417 C -103.64471 -166.77397 -130.92652 -151.79225 -146.66717 -127.05894 L -157.25102 -127.05894 L -149.61996 -115.86014 L -157.25102 -26.140039 L -8.5138455 -26.140039 L 15.419061 -26.140039 L 8.0799737 -154.80195 L 15.419061 -165.68398 L 7.4593397 -165.68398 L 6.4490654 -183.39297 L -2.0863309 -198.17657 z M -83.43072 -192.21621 C -85.584619 -189.65499 -86.77489 -186.4211 -86.795372 -183.07465 C -86.842092 -175.15518 -80.459903 -168.69733 -72.540428 -168.65072 C -64.621155 -168.60402 -58.163395 -174.98588 -58.116503 -182.90515 C -58.102813 -186.26049 -59.266203 -189.5144 -61.404157 -192.10045 C -60.83125 -190.6836 -60.536835 -189.16959 -60.537027 -187.64129 C -60.575787 -181.07411 -65.930869 -175.78172 -72.498054 -175.82031 C -79.065241 -175.85911 -84.357627 -181.21415 -84.319038 -187.78134 C -84.309338 -189.30285 -84.007827 -190.80837 -83.43072 -192.21621 z M -125.14859 -119.81908 C -119.19658 -119.81908 -114.46345 -118.54381 -110.94894 -115.99295 C -107.43442 -113.44209 -105.67691 -110.01229 -105.67691 -105.70418 C -105.67691 -103.38006 -106.52708 -101.05611 -108.22766 -98.731991 C -109.92823 -96.407876 -112.16747 -94.50901 -114.94508 -93.035181 C -111.43056 -91.334609 -108.68152 -89.350519 -106.69752 -87.08309 C -104.65683 -84.81566 -103.6362 -81.896169 -103.6362 -78.324968 C -103.6362 -73.166566 -105.50701 -69.057034 -109.24827 -65.996005 C -112.98952 -62.991661 -118.03446 -61.489303 -124.38326 -61.489303 C -131.3556 -61.489303 -136.74092 -62.878373 -140.53886 -65.655974 C -144.28012 -68.433575 -146.15041 -72.401238 -146.15041 -77.55964 C -146.15041 -80.223869 -145.30023 -82.86014 -143.59966 -85.467684 C -141.89908 -88.131914 -139.51849 -90.483931 -136.45746 -92.524618 C -139.00832 -93.941761 -140.99241 -95.642631 -142.40955 -97.626632 C -143.82669 -99.610633 -144.535 -102.07646 -144.535 -105.02411 C -144.535 -109.55897 -142.778 -113.15871 -139.26349 -115.82294 C -135.74897 -118.48717 -131.0439 -119.81908 -125.14859 -119.81908 z M -56.530553 -119.73381 C -50.691922 -119.73381 -46.043497 -118.28861 -42.585668 -115.39764 C -39.127838 -112.56335 -37.398904 -108.56711 -37.398904 -103.40871 C -37.398904 -98.873849 -39.127838 -94.026912 -42.585668 -88.86851 C -46.043497 -83.766794 -51.740611 -77.616529 -59.676614 -70.41744 L -36.803592 -70.41744 L -36.803592 -62.084615 L -75.321654 -62.084615 L -75.321654 -67.016097 C -69.029537 -73.081471 -64.126473 -78.268272 -60.611958 -82.576388 C -57.097442 -86.884504 -54.574459 -90.852684 -53.043944 -94.480571 C -51.456743 -98.108458 -50.663211 -101.84955 -50.663211 -105.70418 C -50.663211 -111.82623 -52.703945 -114.88759 -56.785318 -114.88759 C -58.599261 -114.88759 -60.073039 -114.0369 -61.206753 -112.33633 C -62.340468 -110.69244 -62.907425 -108.65171 -62.907425 -106.21422 C -62.907425 -104.51365 -62.312404 -102.89852 -61.122004 -101.36801 C -62.085661 -100.46103 -63.190994 -99.752209 -64.438081 -99.242037 C -65.628481 -98.731866 -66.819038 -98.476709 -68.009439 -98.476709 C -70.050125 -98.476709 -71.750479 -99.10031 -73.110936 -100.3474 C -74.471394 -101.65117 -75.151638 -103.52197 -75.151638 -105.95946 C -75.151638 -108.567 -74.386169 -110.91953 -72.855655 -113.01691 C -71.32514 -115.11428 -69.171118 -116.75799 -66.393517 -117.94839 C -63.55923 -119.13879 -60.271811 -119.73381 -56.530553 -119.73381 z M -25.15469 -119.05375 L -20.90327 -118.969 C -14.894582 -118.85563 -11.720452 -118.79847 -11.380337 -118.79847 L 0.69386118 -118.969 L 3.1598605 -117.18306 L 2.3945326 -110.72092 L -18.692552 -110.72092 L -19.883177 -96.521273 C -16.935519 -97.258188 -14.271184 -97.626632 -11.890384 -97.626632 C -6.2784958 -97.626632 -1.7152955 -96.124274 1.7992201 -93.11993 C 5.3704214 -90.172272 7.155999 -85.836165 7.155999 -80.110905 C 7.155999 -76.539704 6.3058224 -73.336993 4.6052503 -70.502706 C 2.961364 -67.66842 0.58076607 -65.429173 -2.5369494 -63.785287 C -5.6546648 -62.198086 -9.3396249 -61.404554 -13.591055 -61.404554 C -17.048885 -61.404554 -20.194952 -61.886286 -23.029239 -62.849943 C -25.80684 -63.813601 -27.988925 -65.14551 -29.576126 -66.846082 C -31.163326 -68.60334 -31.956859 -70.559366 -31.956859 -72.713424 C -31.956859 -74.980853 -31.333775 -76.709787 -30.086689 -77.900188 C -28.839603 -79.147274 -27.308665 -79.770358 -25.494721 -79.770358 C -24.474378 -79.770358 -23.454269 -79.572362 -22.433926 -79.175562 C -21.356897 -78.778762 -20.393432 -78.211805 -19.543146 -77.474891 C -20.053318 -76.28449 -20.307958 -75.037289 -20.307958 -73.733517 C -20.307958 -71.862888 -19.769581 -70.332466 -18.692552 -69.142066 C -17.558838 -67.951665 -15.858484 -67.356645 -13.591055 -67.356645 C -8.4893388 -67.356645 -5.9382921 -71.608045 -5.9382921 -80.110905 C -5.9382921 -84.135593 -6.7318248 -87.054567 -8.3190254 -88.86851 C -9.906226 -90.73914 -12.032184 -91.674541 -14.696414 -91.674541 C -16.3403 -91.674541 -18.097297 -91.36274 -19.967927 -90.739197 C -21.838556 -90.115654 -23.680778 -89.236897 -25.494721 -88.103182 L -30.171438 -92.609884 L -27.960721 -116.75776 L -25.15469 -119.05375 z M -125.14859 -113.78224 C -127.41602 -113.78224 -129.20159 -113.04535 -130.50537 -111.57152 C -131.80914 -110.15437 -132.4608 -108.22693 -132.4608 -105.78944 C -132.4608 -103.63538 -131.63921 -101.84981 -129.99532 -100.43266 C -128.29475 -99.072205 -125.82892 -97.711715 -122.59784 -96.351258 C -121.18069 -97.314915 -120.04678 -98.646824 -119.1965 -100.3474 C -118.34621 -102.04797 -117.92112 -103.86213 -117.92112 -105.78944 C -117.92112 -108.22693 -118.60137 -110.15437 -119.96182 -111.57152 C -121.2656 -113.04535 -122.99453 -113.78224 -125.14859 -113.78224 z M -88.585961 -101.28274 C -86.60196 -101.28274 -85.128183 -100.68772 -84.164525 -99.497319 C -83.144182 -98.363604 -82.634386 -96.776539 -82.634386 -94.735852 C -82.634386 -92.695166 -83.144182 -91.107584 -84.164525 -89.973869 C -85.128183 -88.840154 -86.60196 -88.273198 -88.585961 -88.273198 C -90.569961 -88.273198 -92.072319 -88.840154 -93.092662 -89.973869 C -94.05632 -91.16427 -94.538052 -92.751852 -94.538052 -94.735852 C -94.538052 -96.833225 -94.05632 -98.448354 -93.092662 -99.582068 C -92.072319 -100.71578 -90.569961 -101.28274 -88.585961 -101.28274 z M -128.63468 -89.038526 C -130.33525 -87.678068 -131.58245 -86.119583 -132.37605 -84.362325 C -133.16965 -82.605068 -133.56616 -80.50769 -133.56616 -78.070203 C -133.56616 -74.725745 -132.74456 -72.089474 -131.10068 -70.162159 C -129.45679 -68.291529 -127.21755 -67.356645 -124.38326 -67.356645 C -121.60566 -67.356645 -119.45164 -68.291529 -117.92112 -70.162159 C -116.33392 -72.032788 -115.54039 -74.640479 -115.54039 -77.984937 C -115.54039 -79.855566 -116.13541 -81.442631 -117.32581 -82.746403 C -118.45952 -84.106861 -119.90524 -85.212194 -121.66249 -86.06248 C -123.41975 -86.969452 -125.74371 -87.961497 -128.63468 -89.038526 z M -88.585961 -74.498845 C -86.60196 -74.498845 -85.128183 -73.903824 -84.164525 -72.713424 C -83.144182 -71.579709 -82.634386 -69.992127 -82.634386 -67.951441 C -82.634386 -65.910754 -83.144182 -64.323689 -84.164525 -63.189974 C -85.128183 -62.05626 -86.60196 -61.489303 -88.585961 -61.489303 C -90.569961 -61.489303 -92.072319 -62.05626 -93.092662 -63.189974 C -94.05632 -64.380375 -94.538052 -65.96744 -94.538052 -67.951441 C -94.538052 -70.048813 -94.05632 -71.664459 -93.092662 -72.798173 C -92.072319 -73.931888 -90.569961 -74.498845 -88.585961 -74.498845 z " /></g></svg>
