<?xml version="1.0" encoding="UTF-8" standalone="no"?>
<!-- Created with Inkscape (http://www.inkscape.org/) -->

<svg
   width="172.6701mm"
   height="172.6701mm"
   viewBox="0 0 172.6701 172.6701"
   version="1.1"
   id="svg1"
   xml:space="preserve"
   xmlns="http://www.w3.org/2000/svg"
   xmlns:svg="http://www.w3.org/2000/svg"><defs
     id="defs1" /><g
     id="layer1"
     transform="translate(157.25102,198.81012)"><path
       id="path5"
       style="fill:#ffffff;fill-opacity:1;stroke-width:0.805188;stroke-linecap:round;stroke-linejoin:round"
       d="M -2.0863309 -198.17657 L -10.088943 -183.11289 L -10.930235 -165.68398 L -19.198981 -165.68398 L -11.423229 -155.47426 L -12.166336 -140.07934 C -28.353216 -157.12094 -50.823548 -166.77435 -74.327399 -166.78417 C -103.64471 -166.77397 -130.92652 -151.79225 -146.66717 -127.05894 L -157.25102 -127.05894 L -149.61996 -115.86014 L -157.25102 -26.140039 L -8.5138455 -26.140039 L 15.419061 -26.140039 L 8.0799737 -154.80195 L 15.419061 -165.68398 L 7.4593397 -165.68398 L 6.4490654 -183.39297 L -2.0863309 -198.17657 z M -83.43072 -192.21621 C -85.584619 -189.65499 -86.77489 -186.4211 -86.795372 -183.07465 C -86.842092 -175.15518 -80.459903 -168.69733 -72.540428 -168.65072 C -64.621155 -168.60402 -58.163395 -174.98588 -58.116503 -182.90515 C -58.102813 -186.26049 -59.266203 -189.5144 -61.404157 -192.10045 C -60.83125 -190.6836 -60.536835 -189.16959 -60.537027 -187.64129 C -60.575787 -181.07411 -65.930869 -175.78172 -72.498054 -175.82031 C -79.065241 -175.85911 -84.357627 -181.21415 -84.319038 -187.78134 C -84.309338 -189.30285 -84.007827 -190.80837 -83.43072 -192.21621 z M -0.66677928 -119.90383 L 1.373923 -115.65241 C -10.076595 -110.72075 -16.96375 -103.12528 -19.287865 -92.865166 C -16.000092 -94.452366 -12.882089 -95.245899 -9.9344306 -95.245899 C -4.2658571 -95.245899 0.18353845 -93.715477 3.4146253 -90.654448 C 6.702398 -87.593418 8.346624 -83.455306 8.346624 -78.240218 C 8.346624 -75.009132 7.467867 -72.118221 5.7106092 -69.567363 C 4.0100372 -67.016505 1.6008588 -65.032415 -1.5168566 -63.615271 C -4.5778863 -62.198128 -8.0923976 -61.489303 -12.060399 -61.489303 C -18.806002 -61.489303 -23.992803 -63.360105 -27.62069 -67.101363 C -31.191891 -70.842622 -32.977469 -76.255999 -32.977469 -83.341716 C -32.977469 -92.241376 -30.228426 -99.808775 -24.72991 -106.04421 C -19.174708 -112.33632 -11.15364 -116.95617 -0.66677928 -119.90383 z M -125.91391 -119.81908 C -119.96191 -119.81908 -115.22826 -118.54381 -111.71375 -115.99295 C -108.19923 -113.44209 -106.44224 -110.01229 -106.44224 -105.70418 C -106.44224 -103.38006 -107.29241 -101.05611 -108.99298 -98.731991 C -110.69356 -96.407876 -112.9328 -94.50901 -115.7104 -93.035181 C -112.19589 -91.334609 -109.44633 -89.350519 -107.46233 -87.08309 C -105.42164 -84.81566 -104.40153 -81.896169 -104.40153 -78.324968 C -104.40153 -73.166566 -106.27233 -69.057034 -110.01359 -65.996005 C -113.75485 -62.991661 -118.79978 -61.489303 -125.14859 -61.489303 C -132.12093 -61.489303 -137.50573 -62.878373 -141.30367 -65.655974 C -145.04493 -68.433575 -146.91573 -72.401238 -146.91573 -77.55964 C -146.91573 -80.223869 -146.06556 -82.86014 -144.36498 -85.467684 C -142.66441 -88.131914 -140.28381 -90.483931 -137.22279 -92.524618 C -139.77364 -93.941761 -141.75722 -95.642631 -143.17436 -97.626632 C -144.5915 -99.610633 -145.30033 -102.07646 -145.30033 -105.02411 C -145.30033 -109.55897 -143.54281 -113.15871 -140.0283 -115.82294 C -136.51378 -118.48717 -131.80923 -119.81908 -125.91391 -119.81908 z M -57.295364 -119.73381 C -51.456733 -119.73381 -46.808825 -118.28861 -43.350996 -115.39764 C -39.893166 -112.56335 -38.164232 -108.56711 -38.164232 -103.40871 C -38.164232 -98.873849 -39.893166 -94.026912 -43.350996 -88.86851 C -46.808825 -83.766794 -52.505422 -77.616529 -60.441425 -70.41744 L -37.56892 -70.41744 L -37.56892 -62.084615 L -76.086982 -62.084615 L -76.086982 -67.016097 C -69.794865 -73.081471 -64.891284 -78.268272 -61.376769 -82.576388 C -57.862253 -86.884504 -55.339787 -90.852684 -53.809272 -94.480571 C -52.222071 -98.108458 -51.428539 -101.84955 -51.428539 -105.70418 C -51.428539 -111.82623 -53.469273 -114.88759 -57.550646 -114.88759 C -59.364589 -114.88759 -60.838366 -114.0369 -61.972081 -112.33633 C -63.105796 -110.69244 -63.672753 -108.65171 -63.672753 -106.21422 C -63.672753 -104.51365 -63.077732 -102.89852 -61.887332 -101.36801 C -62.850989 -100.46103 -63.956322 -99.752209 -65.203409 -99.242037 C -66.393809 -98.731866 -67.58385 -98.476709 -68.77425 -98.476709 C -70.814936 -98.476709 -72.515806 -99.10031 -73.876264 -100.3474 C -75.236722 -101.65117 -75.916966 -103.52197 -75.916966 -105.95946 C -75.916966 -108.567 -75.151497 -110.91953 -73.620983 -113.01691 C -72.090468 -115.11428 -69.936446 -116.75799 -67.158845 -117.94839 C -64.324558 -119.13879 -61.036623 -119.73381 -57.295364 -119.73381 z M -125.91391 -113.78224 C -128.18134 -113.78224 -129.96692 -113.04535 -131.27069 -111.57152 C -132.57447 -110.15437 -133.22613 -108.22693 -133.22613 -105.78944 C -133.22613 -103.63538 -132.40402 -101.84981 -130.76013 -100.43266 C -129.05956 -99.072205 -126.59374 -97.711715 -123.36265 -96.351258 C -121.94551 -97.314915 -120.81211 -98.646824 -119.96182 -100.3474 C -119.11154 -102.04797 -118.68645 -103.86213 -118.68645 -105.78944 C -118.68645 -108.22693 -119.36669 -110.15437 -120.72715 -111.57152 C -122.03092 -113.04535 -123.75986 -113.78224 -125.91391 -113.78224 z M -89.351289 -101.28274 C -87.367288 -101.28274 -85.893511 -100.68772 -84.929853 -99.497319 C -83.90951 -98.363604 -83.399197 -96.776539 -83.399197 -94.735852 C -83.399197 -92.695166 -83.90951 -91.107584 -84.929853 -89.973869 C -85.893511 -88.840154 -87.367288 -88.273198 -89.351289 -88.273198 C -91.335289 -88.273198 -92.837647 -88.840154 -93.85799 -89.973869 C -94.821648 -91.16427 -95.30338 -92.751852 -95.30338 -94.735852 C -95.30338 -96.833225 -94.821648 -98.448354 -93.85799 -99.582068 C -92.837647 -100.71578 -91.335289 -101.28274 -89.351289 -101.28274 z M -12.315681 -89.293807 C -14.696482 -89.293807 -17.275592 -88.330343 -20.053193 -86.403028 L -20.053193 -85.297669 C -20.053193 -79.118924 -19.372948 -74.583787 -18.012491 -71.692814 C -16.652033 -68.801842 -14.498011 -67.356645 -11.550353 -67.356645 C -9.1128661 -67.356645 -7.242064 -68.291529 -5.9382921 -70.162159 C -4.6345202 -72.032788 -3.9828559 -74.697123 -3.9828559 -78.154952 C -3.9828559 -81.669468 -4.7197446 -84.390447 -6.1935737 -86.317762 C -7.6107171 -88.301762 -9.6514511 -89.293807 -12.315681 -89.293807 z M -129.40001 -89.038526 C -131.10058 -87.678068 -132.34778 -86.119583 -133.14138 -84.362325 C -133.93498 -82.605068 -134.33149 -80.50769 -134.33149 -78.070203 C -134.33149 -74.725745 -133.50938 -72.089474 -131.86549 -70.162159 C -130.2216 -68.291529 -127.98287 -67.356645 -125.14859 -67.356645 C -122.37099 -67.356645 -120.21696 -68.291529 -118.68645 -70.162159 C -117.09925 -72.032788 -116.30572 -74.640479 -116.30572 -77.984937 C -116.30572 -79.855566 -116.90074 -81.442631 -118.09114 -82.746403 C -119.22485 -84.106861 -120.67005 -85.212194 -122.42731 -86.06248 C -124.18456 -86.969452 -126.50903 -87.961497 -129.40001 -89.038526 z M -89.351289 -74.498845 C -87.367288 -74.498845 -85.893511 -73.903824 -84.929853 -72.713424 C -83.90951 -71.579709 -83.399197 -69.992127 -83.399197 -67.951441 C -83.399197 -65.910754 -83.90951 -64.323689 -84.929853 -63.189974 C -85.893511 -62.05626 -87.367288 -61.489303 -89.351289 -61.489303 C -91.335289 -61.489303 -92.837647 -62.05626 -93.85799 -63.189974 C -94.821648 -64.380375 -95.30338 -65.96744 -95.30338 -67.951441 C -95.30338 -70.048813 -94.821648 -71.664459 -93.85799 -72.798173 C -92.837647 -73.931888 -91.335289 -74.498845 -89.351289 -74.498845 z " /></g></svg>
