<?xml version="1.0" encoding="UTF-8" standalone="no"?>
<!-- Created with Inkscape (http://www.inkscape.org/) -->

<svg
   width="172.6701mm"
   height="172.6701mm"
   viewBox="0 0 172.6701 172.6701"
   version="1.1"
   id="svg1"
   xml:space="preserve"
   xmlns="http://www.w3.org/2000/svg"
   xmlns:svg="http://www.w3.org/2000/svg"><defs
     id="defs1" /><g
     id="layer1"
     transform="translate(157.25102,198.81012)"><path
       id="path5"
       style="fill:#ffffff;fill-opacity:1;stroke-width:0.805188;stroke-linecap:round;stroke-linejoin:round"
       d="M -2.0863309 -198.17657 L -10.088943 -183.11289 L -10.930235 -165.68398 L -19.198981 -165.68398 L -11.423229 -155.47426 L -12.166336 -140.07934 C -28.353216 -157.12094 -50.823548 -166.77435 -74.327399 -166.78417 C -103.64471 -166.77397 -130.92652 -151.79225 -146.66717 -127.05894 L -157.25102 -127.05894 L -149.61996 -115.86014 L -157.25102 -26.140039 L -8.5138455 -26.140039 L 15.419061 -26.140039 L 8.0799737 -154.80195 L 15.419061 -165.68398 L 7.4593397 -165.68398 L 6.4490654 -183.39297 L -2.0863309 -198.17657 z M -83.43072 -192.21621 C -85.584619 -189.65499 -86.77489 -186.4211 -86.795372 -183.07465 C -86.842092 -175.15518 -80.459903 -168.69733 -72.540428 -168.65072 C -64.621155 -168.60402 -58.163395 -174.98588 -58.116503 -182.90515 C -58.102813 -186.26049 -59.266203 -189.5144 -61.404157 -192.10045 C -60.83125 -190.6836 -60.536835 -189.16959 -60.537027 -187.64129 C -60.575787 -181.07411 -65.930869 -175.78172 -72.498054 -175.82031 C -79.065241 -175.85911 -84.357627 -181.21415 -84.319038 -187.78134 C -84.309338 -189.30285 -84.007827 -190.80837 -83.43072 -192.21621 z M -124.04323 -119.81908 C -118.09123 -119.81908 -113.35758 -118.54381 -109.84306 -115.99295 C -106.32855 -113.44209 -104.57155 -110.01229 -104.57155 -105.70418 C -104.57155 -103.38006 -105.42172 -101.05611 -107.1223 -98.731991 C -108.82287 -96.407876 -111.06212 -94.50901 -113.83972 -93.035181 C -110.3252 -91.334609 -107.57564 -89.350519 -105.59164 -87.08309 C -103.55095 -84.81566 -102.53085 -81.896169 -102.53085 -78.324968 C -102.53085 -73.166566 -104.40165 -69.057034 -108.14291 -65.996005 C -111.88416 -62.991661 -116.9291 -61.489303 -123.2779 -61.489303 C -130.25025 -61.489303 -135.63556 -62.878373 -139.4335 -65.655974 C -143.17476 -68.433575 -145.04505 -72.401238 -145.04505 -77.55964 C -145.04505 -80.223869 -144.19487 -82.86014 -142.4943 -85.467684 C -140.79373 -88.131914 -138.41313 -90.483931 -135.3521 -92.524618 C -137.90296 -93.941761 -139.88653 -95.642631 -141.30367 -97.626632 C -142.72082 -99.610633 -143.42964 -102.07646 -143.42964 -105.02411 C -143.42964 -109.55897 -141.67213 -113.15871 -138.15761 -115.82294 C -134.6431 -118.48717 -129.93854 -119.81908 -124.04323 -119.81908 z M -55.425194 -119.73381 C -49.586563 -119.73381 -44.938139 -118.28861 -41.480309 -115.39764 C -38.022479 -112.56335 -36.293545 -108.56711 -36.293545 -103.40871 C -36.293545 -98.873849 -38.022479 -94.026912 -41.480309 -88.86851 C -44.938139 -83.766794 -50.635252 -77.616529 -58.571255 -70.41744 L -35.698233 -70.41744 L -35.698233 -62.084615 L -74.216295 -62.084615 L -74.216295 -67.016097 C -67.924178 -73.081471 -63.020597 -78.268272 -59.506082 -82.576388 C -55.991566 -86.884504 -53.4691 -90.852684 -51.938585 -94.480571 C -50.351385 -98.108458 -49.557852 -101.84955 -49.557852 -105.70418 C -49.557852 -111.82623 -51.598586 -114.88759 -55.679959 -114.88759 C -57.493902 -114.88759 -58.96768 -114.0369 -60.101394 -112.33633 C -61.235109 -110.69244 -61.802066 -108.65171 -61.802066 -106.21422 C -61.802066 -104.51365 -61.207045 -102.89852 -60.016645 -101.36801 C -60.980302 -100.46103 -62.085635 -99.752209 -63.332722 -99.242037 C -64.523122 -98.731866 -65.713163 -98.476709 -66.903563 -98.476709 C -68.94425 -98.476709 -70.64512 -99.10031 -72.005577 -100.3474 C -73.366035 -101.65117 -74.04628 -103.52197 -74.04628 -105.95946 C -74.04628 -108.567 -73.280811 -110.91953 -71.750296 -113.01691 C -70.219781 -115.11428 -68.065759 -116.75799 -65.288158 -117.94839 C -62.453871 -119.13879 -59.166453 -119.73381 -55.425194 -119.73381 z M -30.8515 -118.88373 L -26.685346 -118.88373 C -24.531288 -118.82705 -19.82622 -118.79847 -12.570445 -118.79847 C -5.0312427 -118.79847 -0.12817841 -118.82705 2.139251 -118.88373 L 6.2206556 -118.88373 L 7.921327 -115.22762 C 6.844298 -113.52705 4.803564 -109.84261 1.7992201 -104.17404 C -1.2051239 -98.505463 -4.0393905 -92.496548 -6.7036201 -86.147746 C -9.3678496 -79.798944 -10.699759 -74.838719 -10.699759 -71.267517 C -10.699759 -68.433231 -9.7077136 -66.307789 -7.7237129 -64.890646 C -9.6510279 -62.566531 -12.11685 -61.404554 -15.121194 -61.404554 C -17.898795 -61.404554 -20.052817 -62.169506 -21.583332 -63.700021 C -23.113847 -65.230536 -23.879316 -67.356494 -23.879316 -70.077409 C -23.879316 -73.478553 -23.057203 -77.077772 -21.413317 -80.875717 C -19.76943 -84.730347 -16.821876 -89.945728 -12.570445 -96.521273 L -2.5369494 -111.9963 L -21.92388 -111.9963 C -22.71748 -109.44544 -23.199212 -106.44124 -23.36927 -102.98341 C -24.389613 -102.81335 -25.438302 -102.72813 -26.515331 -102.72813 C -27.649045 -102.72813 -28.754378 -102.81335 -29.831407 -102.98341 L -32.212141 -117.60836 L -30.8515 -118.88373 z M -124.04323 -113.78224 C -126.31066 -113.78224 -128.09623 -113.04535 -129.40001 -111.57152 C -130.70378 -110.15437 -131.35544 -108.22693 -131.35544 -105.78944 C -131.35544 -103.63538 -130.53385 -101.84981 -128.88996 -100.43266 C -127.18939 -99.072205 -124.72305 -97.711715 -121.49196 -96.351258 C -120.07482 -97.314915 -118.94142 -98.646824 -118.09114 -100.3474 C -117.24085 -102.04797 -116.81576 -103.86213 -116.81576 -105.78944 C -116.81576 -108.22693 -117.49601 -110.15437 -118.85646 -111.57152 C -120.16024 -113.04535 -121.88917 -113.78224 -124.04323 -113.78224 z M -87.480602 -101.28274 C -85.496601 -101.28274 -84.022824 -100.68772 -83.059166 -99.497319 C -82.038823 -98.363604 -81.529027 -96.776539 -81.529027 -94.735852 C -81.529027 -92.695166 -82.038823 -91.107584 -83.059166 -89.973869 C -84.022824 -88.840154 -85.496601 -88.273198 -87.480602 -88.273198 C -89.464602 -88.273198 -90.96696 -88.840154 -91.987303 -89.973869 C -92.950961 -91.16427 -93.432693 -92.751852 -93.432693 -94.735852 C -93.432693 -96.833225 -92.950961 -98.448354 -91.987303 -99.582068 C -90.96696 -100.71578 -89.464602 -101.28274 -87.480602 -101.28274 z M -127.52932 -89.038526 C -129.22989 -87.678068 -130.47709 -86.119583 -131.27069 -84.362325 C -132.06429 -82.605068 -132.4608 -80.50769 -132.4608 -78.070203 C -132.4608 -74.725745 -131.63921 -72.089474 -129.99532 -70.162159 C -128.35143 -68.291529 -126.11219 -67.356645 -123.2779 -67.356645 C -120.5003 -67.356645 -118.34628 -68.291529 -116.81576 -70.162159 C -115.22856 -72.032788 -114.43503 -74.640479 -114.43503 -77.984937 C -114.43503 -79.855566 -115.03005 -81.442631 -116.22045 -82.746403 C -117.35416 -84.106861 -118.79988 -85.212194 -120.55714 -86.06248 C -122.31439 -86.969452 -124.63835 -87.961497 -127.52932 -89.038526 z M -87.480602 -74.498845 C -85.496601 -74.498845 -84.022824 -73.903824 -83.059166 -72.713424 C -82.038823 -71.579709 -81.529027 -69.992127 -81.529027 -67.951441 C -81.529027 -65.910754 -82.038823 -64.323689 -83.059166 -63.189974 C -84.022824 -62.05626 -85.496601 -61.489303 -87.480602 -61.489303 C -89.464602 -61.489303 -90.96696 -62.05626 -91.987303 -63.189974 C -92.950961 -64.380375 -93.432693 -65.96744 -93.432693 -67.951441 C -93.432693 -70.048813 -92.950961 -71.664459 -91.987303 -72.798173 C -90.96696 -73.931888 -89.464602 -74.498845 -87.480602 -74.498845 z " /></g></svg>
