<?xml version="1.0" encoding="UTF-8" standalone="no"?>
<!-- Created with Inkscape (http://www.inkscape.org/) -->

<svg
   width="172.6701mm"
   height="172.6701mm"
   viewBox="0 0 172.6701 172.6701"
   version="1.1"
   id="svg1"
   xml:space="preserve"
   xmlns="http://www.w3.org/2000/svg"
   xmlns:svg="http://www.w3.org/2000/svg"><defs
     id="defs1" /><g
     id="layer1"
     transform="translate(157.25102,198.81012)"><path
       id="path5"
       style="fill:#ffffff;fill-opacity:1;stroke-width:0.805188;stroke-linecap:round;stroke-linejoin:round"
       d="M -2.0863309 -198.17657 L -10.088943 -183.11289 L -10.930235 -165.68398 L -19.198981 -165.68398 L -11.423229 -155.47426 L -12.166336 -140.07934 C -28.353216 -157.12094 -50.823548 -166.77435 -74.327399 -166.78417 C -103.64471 -166.77397 -130.92652 -151.79225 -146.66717 -127.05894 L -157.25102 -127.05894 L -149.61996 -115.86014 L -157.25102 -26.140039 L -8.5138455 -26.140039 L 15.419061 -26.140039 L 8.0799737 -154.80195 L 15.419061 -165.68398 L 7.4593397 -165.68398 L 6.4490654 -183.39297 L -2.0863309 -198.17657 z M -83.43072 -192.21621 C -85.584619 -189.65499 -86.77489 -186.4211 -86.795372 -183.07465 C -86.842092 -175.15518 -80.459903 -168.69733 -72.540428 -168.65072 C -64.621155 -168.60402 -58.163395 -174.98588 -58.116503 -182.90515 C -58.102813 -186.26049 -59.266203 -189.5144 -61.404157 -192.10045 C -60.83125 -190.6836 -60.536835 -189.16959 -60.537027 -187.64129 C -60.575787 -181.07411 -65.930869 -175.78172 -72.498054 -175.82031 C -79.065241 -175.85911 -84.357627 -181.21415 -84.319038 -187.78134 C -84.309338 -189.30285 -84.007827 -190.80837 -83.43072 -192.21621 z M -126.67873 -119.81908 C -120.72672 -119.81908 -115.99359 -118.54381 -112.47908 -115.99295 C -108.96456 -113.44209 -107.20756 -110.01229 -107.20756 -105.70418 C -107.20756 -103.38006 -108.05774 -101.05611 -109.75831 -98.731991 C -111.45888 -96.407876 -113.69813 -94.50901 -116.47573 -93.035181 C -112.96122 -91.334609 -110.21166 -89.350519 -108.22766 -87.08309 C -106.18697 -84.81566 -105.16686 -81.896169 -105.16686 -78.324968 C -105.16686 -73.166566 -107.03715 -69.057034 -110.7784 -65.996005 C -114.51966 -62.991661 -119.56511 -61.489303 -125.91391 -61.489303 C -132.88626 -61.489303 -138.27106 -62.878373 -142.069 -65.655974 C -145.81026 -68.433575 -147.68106 -72.401238 -147.68106 -77.55964 C -147.68106 -80.223869 -146.83088 -82.86014 -145.13031 -85.467684 C -143.42974 -88.131914 -141.04863 -90.483931 -137.9876 -92.524618 C -140.53845 -93.941761 -142.52254 -95.642631 -143.93969 -97.626632 C -145.35683 -99.610633 -146.06566 -102.07646 -146.06566 -105.02411 C -146.06566 -109.55897 -144.30814 -113.15871 -140.79363 -115.82294 C -137.27911 -118.48717 -132.57404 -119.81908 -126.67873 -119.81908 z M -12.485696 -119.81908 C -6.5336939 -119.81908 -1.8000449 -118.54381 1.7144707 -115.99295 C 5.2289863 -113.44209 6.9859836 -110.01229 6.9859836 -105.70418 C 6.9859836 -103.38006 6.1358069 -101.05611 4.4352349 -98.731991 C 2.7346628 -96.407876 0.49541647 -94.50901 -2.2821846 -93.035181 C 1.232331 -91.334609 3.9818901 -89.350519 5.9658908 -87.08309 C 8.0065773 -84.81566 9.0266859 -81.896169 9.0266859 -78.324968 C 9.0266859 -73.166566 7.1558839 -69.057034 3.4146253 -65.996005 C -0.32663317 -62.991661 -5.3715658 -61.489303 -11.720368 -61.489303 C -18.692714 -61.489303 -24.07751 -62.878373 -27.875454 -65.655974 C -31.616713 -68.433575 -33.487515 -72.401238 -33.487515 -77.55964 C -33.487515 -80.223869 -32.637338 -82.86014 -30.936766 -85.467684 C -29.236194 -88.131914 -26.855596 -90.483931 -23.794567 -92.524618 C -26.345425 -93.941761 -28.328998 -95.642631 -29.746141 -97.626632 C -31.163285 -99.610633 -31.87211 -102.07646 -31.87211 -105.02411 C -31.87211 -109.55897 -30.114596 -113.15871 -26.60008 -115.82294 C -23.085564 -118.48717 -18.381013 -119.81908 -12.485696 -119.81908 z M -58.060692 -119.73381 C -52.222061 -119.73381 -47.574153 -118.28861 -44.116324 -115.39764 C -40.658494 -112.56335 -38.92956 -108.56711 -38.92956 -103.40871 C -38.92956 -98.873849 -40.658494 -94.026912 -44.116324 -88.86851 C -47.574153 -83.766794 -53.27075 -77.616529 -61.206753 -70.41744 L -38.334248 -70.41744 L -38.334248 -62.084615 L -76.85231 -62.084615 L -76.85231 -67.016097 C -70.560193 -73.081471 -65.656612 -78.268272 -62.142097 -82.576388 C -58.627581 -86.884504 -56.105115 -90.852684 -54.5746 -94.480571 C -52.987399 -98.108458 -52.193867 -101.84955 -52.193867 -105.70418 C -52.193867 -111.82623 -54.234601 -114.88759 -58.315974 -114.88759 C -60.129917 -114.88759 -61.603694 -114.0369 -62.737409 -112.33633 C -63.871124 -110.69244 -64.438081 -108.65171 -64.438081 -106.21422 C -64.438081 -104.51365 -63.842543 -102.89852 -62.652143 -101.36801 C -63.615801 -100.46103 -64.72165 -99.752209 -65.968736 -99.242037 C -67.159137 -98.731866 -68.349178 -98.476709 -69.539578 -98.476709 C -71.580264 -98.476709 -73.281134 -99.10031 -74.641592 -100.3474 C -76.00205 -101.65117 -76.682294 -103.52197 -76.682294 -105.95946 C -76.682294 -108.567 -75.916825 -110.91953 -74.386311 -113.01691 C -72.855796 -115.11428 -70.701774 -116.75799 -67.924173 -117.94839 C -65.089886 -119.13879 -61.801951 -119.73381 -58.060692 -119.73381 z M -126.67873 -113.78224 C -128.94616 -113.78224 -130.73225 -113.04535 -132.03602 -111.57152 C -133.33979 -110.15437 -133.99146 -108.22693 -133.99146 -105.78944 C -133.99146 -103.63538 -133.16934 -101.84981 -131.52546 -100.43266 C -129.82489 -99.072205 -127.35906 -97.711715 -124.12798 -96.351258 C -122.71083 -97.314915 -121.57744 -98.646824 -120.72715 -100.3474 C -119.87687 -102.04797 -119.45178 -103.86213 -119.45178 -105.78944 C -119.45178 -108.22693 -120.13202 -110.15437 -121.49248 -111.57152 C -122.79625 -113.04535 -124.52467 -113.78224 -126.67873 -113.78224 z M -12.485696 -113.78224 C -14.753126 -113.78224 -16.538703 -113.04535 -17.842475 -111.57152 C -19.146247 -110.15437 -19.797911 -108.22693 -19.797911 -105.78944 C -19.797911 -103.63538 -18.975798 -101.84981 -17.331912 -100.43266 C -15.63134 -99.072205 -13.165518 -97.711715 -9.9344306 -96.351258 C -8.5172873 -97.314915 -7.3838907 -98.646824 -6.5336046 -100.3474 C -5.6833186 -102.04797 -5.2582303 -103.86213 -5.2582303 -105.78944 C -5.2582303 -108.22693 -5.938475 -110.15437 -7.2989326 -111.57152 C -8.6027045 -113.04535 -10.331638 -113.78224 -12.485696 -113.78224 z M -90.116617 -101.28274 C -88.132616 -101.28274 -86.658838 -100.68772 -85.695181 -99.497319 C -84.674838 -98.363604 -84.164525 -96.776539 -84.164525 -94.735852 C -84.164525 -92.695166 -84.674838 -91.107584 -85.695181 -89.973869 C -86.658838 -88.840154 -88.132616 -88.273198 -90.116617 -88.273198 C -92.100617 -88.273198 -93.602975 -88.840154 -94.623318 -89.973869 C -95.586976 -91.16427 -96.068708 -92.751852 -96.068708 -94.735852 C -96.068708 -96.833225 -95.586976 -98.448354 -94.623318 -99.582068 C -93.602975 -100.71578 -92.100617 -101.28274 -90.116617 -101.28274 z M -130.16533 -89.038526 C -131.86591 -87.678068 -133.11259 -86.119583 -133.90619 -84.362325 C -134.69979 -82.605068 -135.09682 -80.50769 -135.09682 -78.070203 C -135.09682 -74.725745 -134.2747 -72.089474 -132.63082 -70.162159 C -130.98693 -68.291529 -128.7482 -67.356645 -125.91391 -67.356645 C -123.13631 -67.356645 -120.98229 -68.291529 -119.45178 -70.162159 C -117.86458 -72.032788 -117.07053 -74.640479 -117.07053 -77.984937 C -117.07053 -79.855566 -117.66606 -81.442631 -118.85646 -82.746403 C -119.99018 -84.106861 -121.43538 -85.212194 -123.19263 -86.06248 C -124.94989 -86.969452 -127.27436 -87.961497 -130.16533 -89.038526 z M -15.971788 -89.038526 C -17.67236 -87.678068 -18.919562 -86.119583 -19.713162 -84.362325 C -20.506762 -82.605068 -20.90327 -80.50769 -20.90327 -78.070203 C -20.90327 -74.725745 -20.081157 -72.089474 -18.437271 -70.162159 C -16.793384 -68.291529 -14.554655 -67.356645 -11.720368 -67.356645 C -8.9427671 -67.356645 -6.7887451 -68.291529 -5.2582303 -70.162159 C -3.6710297 -72.032788 -2.8774971 -74.640479 -2.8774971 -77.984937 C -2.8774971 -79.855566 -3.4725174 -81.442631 -4.6629178 -82.746403 C -5.7966325 -84.106861 -7.2423462 -85.212194 -8.999604 -86.06248 C -10.756862 -86.969452 -13.080816 -87.961497 -15.971788 -89.038526 z M -90.116617 -74.498845 C -88.132616 -74.498845 -86.658838 -73.903824 -85.695181 -72.713424 C -84.674838 -71.579709 -84.164525 -69.992127 -84.164525 -67.951441 C -84.164525 -65.910754 -84.674838 -64.323689 -85.695181 -63.189974 C -86.658838 -62.05626 -88.132616 -61.489303 -90.116617 -61.489303 C -92.100617 -61.489303 -93.602975 -62.05626 -94.623318 -63.189974 C -95.586976 -64.380375 -96.068708 -65.96744 -96.068708 -67.951441 C -96.068708 -70.048813 -95.586976 -71.664459 -94.623318 -72.798173 C -93.602975 -73.931888 -92.100617 -74.498845 -90.116617 -74.498845 z " /></g></svg>
