<?xml version="1.0" encoding="UTF-8" standalone="no"?>
<!-- Created with Inkscape (http://www.inkscape.org/) -->

<svg
   width="172.6701mm"
   height="172.6701mm"
   viewBox="0 0 172.6701 172.6701"
   version="1.1"
   id="svg1"
   xml:space="preserve"
   xmlns="http://www.w3.org/2000/svg"
   xmlns:svg="http://www.w3.org/2000/svg"><defs
     id="defs1" /><g
     id="layer1"
     transform="translate(157.25102,198.81012)"><path
       id="path5"
       style="fill:#ffffff;fill-opacity:1;stroke-width:0.805188;stroke-linecap:round;stroke-linejoin:round"
       d="M -2.0863309 -198.17657 L -10.088943 -183.11289 L -10.930235 -165.68398 L -19.198981 -165.68398 L -11.423229 -155.47426 L -12.166336 -140.07934 C -28.353216 -157.12094 -50.823548 -166.77435 -74.327399 -166.78417 C -103.64471 -166.77397 -130.92652 -151.79225 -146.66717 -127.05894 L -157.25102 -127.05894 L -149.61996 -115.86014 L -157.25102 -26.140039 L -8.5138455 -26.140039 L 15.419061 -26.140039 L 8.0799737 -154.80195 L 15.419061 -165.68398 L 7.4593397 -165.68398 L 6.4490654 -183.39297 L -2.0863309 -198.17657 z M -83.43072 -192.21621 C -85.584619 -189.65499 -86.77489 -186.4211 -86.795372 -183.07465 C -86.842092 -175.15518 -80.459903 -168.69733 -72.540428 -168.65072 C -64.621155 -168.60402 -58.163395 -174.98588 -58.116503 -182.90515 C -58.102813 -186.26049 -59.266203 -189.5144 -61.404157 -192.10045 C -60.83125 -190.6836 -60.536835 -189.16959 -60.537027 -187.64129 C -60.575787 -181.07411 -65.930869 -175.78172 -72.498054 -175.82031 C -79.065241 -175.85911 -84.357627 -181.21415 -84.319038 -187.78134 C -84.309338 -189.30285 -84.007827 -190.80837 -83.43072 -192.21621 z M -0.62388784 -119.90383 L 1.4168145 -115.65241 C -10.033704 -110.72075 -16.921375 -103.12528 -19.24549 -92.865166 C -15.957718 -94.452366 -12.839714 -95.245899 -9.892056 -95.245899 C -4.2234825 -95.245899 0.22642989 -93.715477 3.4575168 -90.654448 C 6.7452894 -87.593418 8.3889987 -83.455306 8.3889987 -78.240218 C 8.3889987 -75.009132 7.5102417 -72.118221 5.7529839 -69.567363 C 4.0524119 -67.016505 1.6432335 -65.032415 -1.4744819 -63.615271 C -4.5355116 -62.198128 -8.0500229 -61.489303 -12.018024 -61.489303 C -18.763627 -61.489303 -23.950428 -63.360105 -27.578315 -67.101363 C -31.149516 -70.842622 -32.935094 -76.255999 -32.935094 -83.341716 C -32.935094 -92.241376 -30.185535 -99.808775 -24.687019 -106.04421 C -19.131816 -112.33632 -11.110749 -116.95617 -0.62388784 -119.90383 z M -125.95629 -119.81908 C -120.00429 -119.81908 -115.27115 -118.54381 -111.75664 -115.99295 C -108.24212 -113.44209 -106.48461 -110.01229 -106.48461 -105.70418 C -106.48461 -103.38006 -107.33479 -101.05611 -109.03536 -98.731991 C -110.73593 -96.407876 -112.97518 -94.50901 -115.75278 -93.035181 C -112.23826 -91.334609 -109.48922 -89.350519 -107.50522 -87.08309 C -105.46453 -84.81566 -104.44391 -81.896169 -104.44391 -78.324968 C -104.44391 -73.166566 -106.31471 -69.057034 -110.05597 -65.996005 C -113.79723 -62.991661 -118.84216 -61.489303 -125.19096 -61.489303 C -132.16331 -61.489303 -137.54862 -62.878373 -141.34656 -65.655974 C -145.08782 -68.433575 -146.95811 -72.401238 -146.95811 -77.55964 C -146.95811 -80.223869 -146.10793 -82.86014 -144.40736 -85.467684 C -142.70679 -88.131914 -140.32619 -90.483931 -137.26516 -92.524618 C -139.81602 -93.941761 -141.80011 -95.642631 -143.21725 -97.626632 C -144.63439 -99.610633 -145.3427 -102.07646 -145.3427 -105.02411 C -145.3427 -109.55897 -143.58571 -113.15871 -140.07119 -115.82294 C -136.55667 -118.48717 -131.85161 -119.81908 -125.95629 -119.81908 z M -57.678286 -119.73381 C -53.993714 -119.73381 -50.734359 -119.11073 -47.900072 -117.86364 C -45.065785 -116.67324 -42.855119 -114.97237 -41.267919 -112.76163 C -39.680718 -110.60757 -38.886669 -108.11368 -38.886669 -105.27939 C -38.886669 -102.10499 -39.82207 -99.384015 -41.692699 -97.116586 C -43.563328 -94.849156 -46.340951 -93.120223 -50.025524 -91.929822 C -45.377293 -90.909479 -42.117938 -89.237189 -40.247309 -86.913074 C -38.37668 -84.588959 -37.441279 -81.442892 -37.441279 -77.474891 C -37.441279 -74.017061 -38.489968 -71.069506 -40.58734 -68.632019 C -42.628026 -66.194533 -45.292361 -64.380375 -48.580134 -63.189974 C -51.867906 -61.999574 -55.26913 -61.404554 -58.783645 -61.404554 C -63.885361 -61.404554 -68.221986 -62.453243 -71.793187 -64.550615 C -75.307703 -66.647987 -77.0647 -69.510317 -77.0647 -73.138204 C -77.0647 -75.235577 -76.441099 -76.851222 -75.194013 -77.984937 C -73.946927 -79.175337 -72.387925 -79.770358 -70.517296 -79.770358 C -68.589981 -79.770358 -66.634471 -79.005405 -64.650471 -77.474891 C -65.160642 -76.397862 -65.415799 -75.094016 -65.415799 -73.563501 C -65.415799 -71.749558 -64.877422 -70.275781 -63.800393 -69.142066 C -62.666679 -68.008351 -60.994389 -67.441394 -58.783645 -67.441394 C -53.908672 -67.441394 -51.470913 -70.814037 -51.470913 -77.55964 C -51.470913 -81.244213 -52.661471 -84.10706 -55.042272 -86.147746 C -57.366387 -88.188433 -60.682386 -89.208541 -64.990502 -89.208541 L -64.990502 -94.480571 C -56.657699 -95.1608 -52.491523 -98.760535 -52.491523 -105.27939 C -52.491523 -108.56717 -53.001836 -110.97583 -54.022179 -112.50634 C -55.042522 -114.09354 -56.431075 -114.88759 -58.188333 -114.88759 C -60.285705 -114.88759 -61.87277 -114.15071 -62.949799 -112.67688 C -63.970143 -111.20305 -64.480455 -109.41747 -64.480455 -107.3201 C -64.480455 -105.44947 -64.083947 -103.77718 -63.290347 -102.30335 C -64.877548 -100.60278 -66.917765 -99.752084 -69.411937 -99.752084 C -71.679367 -99.752084 -73.436881 -100.43233 -74.683967 -101.79279 C -75.931053 -103.15324 -76.554654 -104.91076 -76.554654 -107.06482 C -76.554654 -109.8991 -75.590672 -112.25164 -73.663357 -114.12227 C -71.679357 -116.04958 -69.242115 -117.46671 -66.351142 -118.37369 C -63.403484 -119.28066 -60.512573 -119.73381 -57.678286 -119.73381 z M -125.95629 -113.78224 C -128.22372 -113.78224 -130.0093 -113.04535 -131.31307 -111.57152 C -132.61684 -110.15437 -133.2685 -108.22693 -133.2685 -105.78944 C -133.2685 -103.63538 -132.44691 -101.84981 -130.80302 -100.43266 C -129.10245 -99.072205 -126.63663 -97.711715 -123.40554 -96.351258 C -121.9884 -97.314915 -120.85448 -98.646824 -120.0042 -100.3474 C -119.15391 -102.04797 -118.72882 -103.86213 -118.72882 -105.78944 C -118.72882 -108.22693 -119.40907 -110.15437 -120.76953 -111.57152 C -122.0733 -113.04535 -123.80223 -113.78224 -125.95629 -113.78224 z M -89.39418 -101.28274 C -87.410179 -101.28274 -85.935885 -100.68772 -84.972228 -99.497319 C -83.951884 -98.363604 -83.442089 -96.776539 -83.442089 -94.735852 C -83.442089 -92.695166 -83.951884 -91.107584 -84.972228 -89.973869 C -85.935885 -88.840154 -87.410179 -88.273198 -89.39418 -88.273198 C -91.378181 -88.273198 -92.880022 -88.840154 -93.900365 -89.973869 C -94.864022 -91.16427 -95.345755 -92.751852 -95.345755 -94.735852 C -95.345755 -96.833225 -94.864022 -98.448354 -93.900365 -99.582068 C -92.880022 -100.71578 -91.378181 -101.28274 -89.39418 -101.28274 z M -12.272789 -89.293807 C -14.65359 -89.293807 -17.233217 -88.330343 -20.010818 -86.403028 L -20.010818 -85.297669 C -20.010818 -79.118924 -19.330574 -74.583787 -17.970116 -71.692814 C -16.609658 -68.801842 -14.455636 -67.356645 -11.507978 -67.356645 C -9.0704914 -67.356645 -7.1996894 -68.291529 -5.8959175 -70.162159 C -4.5921456 -72.032788 -3.9399645 -74.697123 -3.9399645 -78.154952 C -3.9399645 -81.669468 -4.6768532 -84.390447 -6.1506823 -86.317762 C -7.5678256 -88.301762 -9.6085597 -89.293807 -12.272789 -89.293807 z M -129.44238 -89.038526 C -131.14295 -87.678068 -132.39015 -86.119583 -133.18376 -84.362325 C -133.97736 -82.605068 -134.37386 -80.50769 -134.37386 -78.070203 C -134.37386 -74.725745 -133.55227 -72.089474 -131.90838 -70.162159 C -130.26449 -68.291529 -128.02525 -67.356645 -125.19096 -67.356645 C -122.41336 -67.356645 -120.25934 -68.291529 -118.72882 -70.162159 C -117.14162 -72.032788 -116.34809 -74.640479 -116.34809 -77.984937 C -116.34809 -79.855566 -116.94311 -81.442631 -118.13351 -82.746403 C -119.26723 -84.106861 -120.71294 -85.212194 -122.4702 -86.06248 C -124.22746 -86.969452 -126.55141 -87.961497 -129.44238 -89.038526 z M -89.39418 -74.498845 C -87.410179 -74.498845 -85.935885 -73.903824 -84.972228 -72.713424 C -83.951884 -71.579709 -83.442089 -69.992127 -83.442089 -67.951441 C -83.442089 -65.910754 -83.951884 -64.323689 -84.972228 -63.189974 C -85.935885 -62.05626 -87.410179 -61.489303 -89.39418 -61.489303 C -91.378181 -61.489303 -92.880022 -62.05626 -93.900365 -63.189974 C -94.864022 -64.380375 -95.345755 -65.96744 -95.345755 -67.951441 C -95.345755 -70.048813 -94.864022 -71.664459 -93.900365 -72.798173 C -92.880022 -73.931888 -91.378181 -74.498845 -89.39418 -74.498845 z " /></g></svg>
