<?xml version="1.0" encoding="UTF-8" standalone="no"?>
<!-- Created with Inkscape (http://www.inkscape.org/) -->

<svg
   width="172.6701mm"
   height="172.6701mm"
   viewBox="0 0 172.6701 172.6701"
   version="1.1"
   id="svg1"
   xml:space="preserve"
   xmlns="http://www.w3.org/2000/svg"
   xmlns:svg="http://www.w3.org/2000/svg"><defs
     id="defs1" /><g
     id="layer1"
     transform="translate(157.25102,198.81012)"><path
       id="path5"
       style="fill:#ffffff;fill-opacity:1;stroke-width:0.805188;stroke-linecap:round;stroke-linejoin:round"
       d="M -2.0863309 -198.17657 L -10.088943 -183.11289 L -10.930235 -165.68398 L -19.198981 -165.68398 L -11.423229 -155.47426 L -12.166336 -140.07934 C -28.353216 -157.12094 -50.823548 -166.77435 -74.327399 -166.78417 C -103.64471 -166.77397 -130.92652 -151.79225 -146.66717 -127.05894 L -157.25102 -127.05894 L -149.61996 -115.86014 L -157.25102 -26.140039 L -8.5138455 -26.140039 L 15.419061 -26.140039 L 8.0799737 -154.80195 L 15.419061 -165.68398 L 7.4593397 -165.68398 L 6.4490654 -183.39297 L -2.0863309 -198.17657 z M -83.43072 -192.21621 C -85.584619 -189.65499 -86.77489 -186.4211 -86.795372 -183.07465 C -86.842092 -175.15518 -80.459903 -168.69733 -72.540428 -168.65072 C -64.621155 -168.60402 -58.163395 -174.98588 -58.116503 -182.90515 C -58.102813 -186.26049 -59.266203 -189.5144 -61.404157 -192.10045 C -60.83125 -190.6836 -60.536835 -189.16959 -60.537027 -187.64129 C -60.575787 -181.07411 -65.930869 -175.78172 -72.498054 -175.82031 C -79.065241 -175.85911 -84.357627 -181.21415 -84.319038 -187.78134 C -84.309338 -189.30285 -84.007827 -190.80837 -83.43072 -192.21621 z M -126.72162 -119.81908 C -120.76962 -119.81908 -116.03597 -118.54381 -112.52145 -115.99295 C -109.00693 -113.44209 -107.24994 -110.01229 -107.24994 -105.70418 C -107.24994 -103.38006 -108.10011 -101.05611 -109.80069 -98.731991 C -111.50126 -96.407876 -113.7405 -94.50901 -116.51811 -93.035181 C -113.00359 -91.334609 -110.25403 -89.350519 -108.27003 -87.08309 C -106.22934 -84.81566 -105.20924 -81.896169 -105.20924 -78.324968 C -105.20924 -73.166566 -107.08004 -69.057034 -110.8213 -65.996005 C -114.56255 -62.991661 -119.60749 -61.489303 -125.95629 -61.489303 C -132.92863 -61.489303 -138.31395 -62.878373 -142.11189 -65.655974 C -145.85315 -68.433575 -147.72344 -72.401238 -147.72344 -77.55964 C -147.72344 -80.223869 -146.87326 -82.86014 -145.17269 -85.467684 C -143.47212 -88.131914 -141.09152 -90.483931 -138.03049 -92.524618 C -140.58135 -93.941761 -142.56492 -95.642631 -143.98206 -97.626632 C -145.39921 -99.610633 -146.10803 -102.07646 -146.10803 -105.02411 C -146.10803 -109.55897 -144.35052 -113.15871 -140.836 -115.82294 C -137.32149 -118.48717 -132.61693 -119.81908 -126.72162 -119.81908 z M -12.442805 -119.81908 C -6.4908025 -119.81908 -1.7576702 -118.54381 1.7568454 -115.99295 C 5.271361 -113.44209 7.0283583 -110.01229 7.0283583 -105.70418 C 7.0283583 -103.38006 6.1781816 -101.05611 4.4776096 -98.731991 C 2.7770375 -96.407876 0.53779114 -94.50901 -2.2398099 -93.035181 C 1.2747057 -91.334609 4.0242648 -89.350519 6.0082655 -87.08309 C 8.0489519 -84.81566 9.0690606 -81.896169 9.0690606 -78.324968 C 9.0690606 -73.166566 7.1987753 -69.057034 3.4575168 -65.996005 C -0.28374173 -62.991661 -5.3291911 -61.489303 -11.677993 -61.489303 C -18.650339 -61.489303 -24.035135 -62.878373 -27.83308 -65.655974 C -31.574338 -68.433575 -33.44514 -72.401238 -33.44514 -77.55964 C -33.44514 -80.223869 -32.594964 -82.86014 -30.894392 -85.467684 C -29.19382 -88.131914 -26.812705 -90.483931 -23.751675 -92.524618 C -26.302533 -93.941761 -28.286623 -95.642631 -29.703767 -97.626632 C -31.12091 -99.610633 -31.829735 -102.07646 -31.829735 -105.02411 C -31.829735 -109.55897 -30.072221 -113.15871 -26.557705 -115.82294 C -23.04319 -118.48717 -18.338121 -119.81908 -12.442805 -119.81908 z M -58.443614 -119.73381 C -54.759042 -119.73381 -51.499687 -119.11073 -48.6654 -117.86364 C -45.831113 -116.67324 -43.61993 -114.97237 -42.03273 -112.76163 C -40.445529 -110.60757 -39.651997 -108.11368 -39.651997 -105.27939 C -39.651997 -102.10499 -40.587398 -99.384015 -42.458027 -97.116586 C -44.328656 -94.849156 -47.106279 -93.120223 -50.790852 -91.929822 C -46.142621 -90.909479 -42.883266 -89.237189 -41.012637 -86.913074 C -39.142008 -84.588959 -38.206607 -81.442892 -38.206607 -77.474891 C -38.206607 -74.017061 -39.255296 -71.069506 -41.352668 -68.632019 C -43.393354 -66.194533 -46.057689 -64.380375 -49.345462 -63.189974 C -52.633234 -61.999574 -56.034458 -61.404554 -59.548973 -61.404554 C -64.650689 -61.404554 -68.986797 -62.453243 -72.557998 -64.550615 C -76.072514 -66.647987 -77.830028 -69.510317 -77.830028 -73.138204 C -77.830028 -75.235577 -77.206427 -76.851222 -75.959341 -77.984937 C -74.712255 -79.175337 -73.153253 -79.770358 -71.282624 -79.770358 C -69.355309 -79.770358 -67.399799 -79.005405 -65.415799 -77.474891 C -65.92597 -76.397862 -66.181127 -75.094016 -66.181127 -73.563501 C -66.181127 -71.749558 -65.64275 -70.275781 -64.565721 -69.142066 C -63.432007 -68.008351 -61.759717 -67.441394 -59.548973 -67.441394 C -54.674 -67.441394 -52.236241 -70.814037 -52.236241 -77.55964 C -52.236241 -81.244213 -53.426799 -84.10706 -55.8076 -86.147746 C -58.131715 -88.188433 -61.447714 -89.208541 -65.75583 -89.208541 L -65.75583 -94.480571 C -57.423027 -95.1608 -53.256851 -98.760535 -53.256851 -105.27939 C -53.256851 -108.56717 -53.766647 -110.97583 -54.78699 -112.50634 C -55.807333 -114.09354 -57.196403 -114.88759 -58.953661 -114.88759 C -61.051033 -114.88759 -62.638098 -114.15071 -63.715127 -112.67688 C -64.73547 -111.20305 -65.245783 -109.41747 -65.245783 -107.3201 C -65.245783 -105.44947 -64.848758 -103.77718 -64.055158 -102.30335 C -65.642359 -100.60278 -67.683093 -99.752084 -70.177265 -99.752084 C -72.444695 -99.752084 -74.202209 -100.43233 -75.449295 -101.79279 C -76.696381 -103.15324 -77.319982 -104.91076 -77.319982 -107.06482 C -77.319982 -109.8991 -76.356 -112.25164 -74.428685 -114.12227 C -72.444684 -116.04958 -70.007443 -117.46671 -67.11647 -118.37369 C -64.168812 -119.28066 -61.277901 -119.73381 -58.443614 -119.73381 z M -126.72162 -113.78224 C -128.98905 -113.78224 -130.77462 -113.04535 -132.0784 -111.57152 C -133.38217 -110.15437 -134.03383 -108.22693 -134.03383 -105.78944 C -134.03383 -103.63538 -133.21224 -101.84981 -131.56835 -100.43266 C -129.86778 -99.072205 -127.40144 -97.711715 -124.17035 -96.351258 C -122.75321 -97.314915 -121.61981 -98.646824 -120.76953 -100.3474 C -119.91924 -102.04797 -119.49415 -103.86213 -119.49415 -105.78944 C -119.49415 -108.22693 -120.1744 -110.15437 -121.53485 -111.57152 C -122.83863 -113.04535 -124.56756 -113.78224 -126.72162 -113.78224 z M -12.442805 -113.78224 C -14.710234 -113.78224 -16.495812 -113.04535 -17.799584 -111.57152 C -19.103356 -110.15437 -19.755537 -108.22693 -19.755537 -105.78944 C -19.755537 -103.63538 -18.933424 -101.84981 -17.289537 -100.43266 C -15.588965 -99.072205 -13.123143 -97.711715 -9.892056 -96.351258 C -8.4749126 -97.314915 -7.341516 -98.646824 -6.49123 -100.3474 C -5.6409439 -102.04797 -5.2158556 -103.86213 -5.2158556 -105.78944 C -5.2158556 -108.22693 -5.8955835 -110.15437 -7.2560412 -111.57152 C -8.5598131 -113.04535 -10.288747 -113.78224 -12.442805 -113.78224 z M -90.158991 -101.28274 C -88.17499 -101.28274 -86.701213 -100.68772 -85.737556 -99.497319 C -84.717212 -98.363604 -84.207416 -96.776539 -84.207416 -94.735852 C -84.207416 -92.695166 -84.717212 -91.107584 -85.737556 -89.973869 C -86.701213 -88.840154 -88.17499 -88.273198 -90.158991 -88.273198 C -92.142992 -88.273198 -93.64535 -88.840154 -94.665693 -89.973869 C -95.62935 -91.16427 -96.111083 -92.751852 -96.111083 -94.735852 C -96.111083 -96.833225 -95.62935 -98.448354 -94.665693 -99.582068 C -93.64535 -100.71578 -92.142992 -101.28274 -90.158991 -101.28274 z M -130.20771 -89.038526 C -131.90828 -87.678068 -133.15548 -86.119583 -133.94908 -84.362325 C -134.74268 -82.605068 -135.13919 -80.50769 -135.13919 -78.070203 C -135.13919 -74.725745 -134.3176 -72.089474 -132.67371 -70.162159 C -131.02982 -68.291529 -128.79058 -67.356645 -125.95629 -67.356645 C -123.17869 -67.356645 -121.02467 -68.291529 -119.49415 -70.162159 C -117.90695 -72.032788 -117.11342 -74.640479 -117.11342 -77.984937 C -117.11342 -79.855566 -117.70844 -81.442631 -118.89884 -82.746403 C -120.03255 -84.106861 -121.47827 -85.212194 -123.23553 -86.06248 C -124.99278 -86.969452 -127.31674 -87.961497 -130.20771 -89.038526 z M -15.929414 -89.038526 C -17.629986 -87.678068 -18.87667 -86.119583 -19.67027 -84.362325 C -20.463871 -82.605068 -20.860895 -80.50769 -20.860895 -78.070203 C -20.860895 -74.725745 -20.038782 -72.089474 -18.394896 -70.162159 C -16.75101 -68.291529 -14.51228 -67.356645 -11.677993 -67.356645 C -8.9003925 -67.356645 -6.7463705 -68.291529 -5.2158556 -70.162159 C -3.628655 -72.032788 -2.8346056 -74.640479 -2.8346056 -77.984937 C -2.8346056 -79.855566 -3.4301427 -81.442631 -4.6205431 -82.746403 C -5.7542578 -84.106861 -7.1994548 -85.212194 -8.9567125 -86.06248 C -10.71397 -86.969452 -13.038441 -87.961497 -15.929414 -89.038526 z M -90.158991 -74.498845 C -88.17499 -74.498845 -86.701213 -73.903824 -85.737556 -72.713424 C -84.717212 -71.579709 -84.207416 -69.992127 -84.207416 -67.951441 C -84.207416 -65.910754 -84.717212 -64.323689 -85.737556 -63.189974 C -86.701213 -62.05626 -88.17499 -61.489303 -90.158991 -61.489303 C -92.142992 -61.489303 -93.64535 -62.05626 -94.665693 -63.189974 C -95.62935 -64.380375 -96.111083 -65.96744 -96.111083 -67.951441 C -96.111083 -70.048813 -95.62935 -71.664459 -94.665693 -72.798173 C -93.64535 -73.931888 -92.142992 -74.498845 -90.158991 -74.498845 z " /></g></svg>
