<?xml version="1.0" encoding="UTF-8" standalone="no"?>
<!-- Created with Inkscape (http://www.inkscape.org/) -->

<svg
   width="172.6701mm"
   height="172.6701mm"
   viewBox="0 0 172.6701 172.6701"
   version="1.1"
   id="svg1"
   xml:space="preserve"
   xmlns="http://www.w3.org/2000/svg"
   xmlns:svg="http://www.w3.org/2000/svg"><defs
     id="defs1" /><g
     id="layer1"
     transform="translate(157.25102,198.81012)"><path
       id="path5"
       style="fill:#ffffff;fill-opacity:1;stroke-width:0.805188;stroke-linecap:round;stroke-linejoin:round"
       d="M -2.0863309 -198.17657 L -10.088943 -183.11289 L -10.930235 -165.68398 L -19.198981 -165.68398 L -11.423229 -155.47426 L -12.166336 -140.07934 C -28.353216 -157.12094 -50.823548 -166.77435 -74.327399 -166.78417 C -103.64471 -166.77397 -130.92652 -151.79225 -146.66717 -127.05894 L -157.25102 -127.05894 L -149.61996 -115.86014 L -157.25102 -26.140039 L -8.5138455 -26.140039 L 15.419061 -26.140039 L 8.0799737 -154.80195 L 15.419061 -165.68398 L 7.4593397 -165.68398 L 6.4490654 -183.39297 L -2.0863309 -198.17657 z M -83.43072 -192.21621 C -85.584619 -189.65499 -86.77489 -186.4211 -86.795372 -183.07465 C -86.842092 -175.15518 -80.459903 -168.69733 -72.540428 -168.65072 C -64.621155 -168.60402 -58.163395 -174.98588 -58.116503 -182.90515 C -58.102813 -186.26049 -59.266203 -189.5144 -61.404157 -192.10045 C -60.83125 -190.6836 -60.536835 -189.16959 -60.537027 -187.64129 C -60.575787 -181.07411 -65.930869 -175.78172 -72.498054 -175.82031 C -79.065241 -175.85911 -84.357627 -181.21415 -84.319038 -187.78134 C -84.309338 -189.30285 -84.007827 -190.80837 -83.43072 -192.21621 z M -125.78627 -119.81908 C -119.83427 -119.81908 -115.10114 -118.54381 -111.58662 -115.99295 C -108.07211 -113.44209 -106.31459 -110.01229 -106.31459 -105.70418 C -106.31459 -103.38006 -107.16477 -101.05611 -108.86534 -98.731991 C -110.56591 -96.407876 -112.80516 -94.50901 -115.58276 -93.035181 C -112.06825 -91.334609 -109.3192 -89.350519 -107.3352 -87.08309 C -105.29452 -84.81566 -104.27389 -81.896169 -104.27389 -78.324968 C -104.27389 -73.166566 -106.14469 -69.057034 -109.88595 -65.996005 C -113.62721 -62.991661 -118.67214 -61.489303 -125.02095 -61.489303 C -131.99329 -61.489303 -137.3786 -62.878373 -141.17655 -65.655974 C -144.91781 -68.433575 -146.78809 -72.401238 -146.78809 -77.55964 C -146.78809 -80.223869 -145.93792 -82.86014 -144.23734 -85.467684 C -142.53677 -88.131914 -140.15617 -90.483931 -137.09514 -92.524618 C -139.646 -93.941761 -141.63009 -95.642631 -143.04724 -97.626632 C -144.46438 -99.610633 -145.17269 -102.07646 -145.17269 -105.02411 C -145.17269 -109.55897 -143.41569 -113.15871 -139.90117 -115.82294 C -136.38666 -118.48717 -131.68159 -119.81908 -125.78627 -119.81908 z M -57.508271 -119.73381 C -53.823698 -119.73381 -50.564343 -119.11073 -47.730056 -117.86364 C -44.89577 -116.67324 -42.684587 -114.97237 -41.097386 -112.76163 C -39.510186 -110.60757 -38.716653 -108.11368 -38.716653 -105.27939 C -38.716653 -102.10499 -39.652054 -99.384015 -41.522683 -97.116586 C -43.393313 -94.849156 -46.170935 -93.120223 -49.855508 -91.929822 C -45.207278 -90.909479 -41.947923 -89.237189 -40.077294 -86.913074 C -38.206664 -84.588959 -37.271263 -81.442892 -37.271263 -77.474891 C -37.271263 -74.017061 -38.319952 -71.069506 -40.417325 -68.632019 C -42.458011 -66.194533 -45.122346 -64.380375 -48.410118 -63.189974 C -51.697891 -61.999574 -55.099114 -61.404554 -58.61363 -61.404554 C -63.715346 -61.404554 -68.051454 -62.453243 -71.622655 -64.550615 C -75.137171 -66.647987 -76.894685 -69.510317 -76.894685 -73.138204 C -76.894685 -75.235577 -76.271084 -76.851222 -75.023998 -77.984937 C -73.776912 -79.175337 -72.21791 -79.770358 -70.347281 -79.770358 C -68.419966 -79.770358 -66.464456 -79.005405 -64.480455 -77.474891 C -64.990627 -76.397862 -65.245783 -75.094016 -65.245783 -73.563501 C -65.245783 -71.749558 -64.707407 -70.275781 -63.630378 -69.142066 C -62.496663 -68.008351 -60.824374 -67.441394 -58.61363 -67.441394 C -53.738657 -67.441394 -51.300898 -70.814037 -51.300898 -77.55964 C -51.300898 -81.244213 -52.491455 -84.10706 -54.872256 -86.147746 C -57.196371 -88.188433 -60.51237 -89.208541 -64.820486 -89.208541 L -64.820486 -94.480571 C -56.487683 -95.1608 -52.321507 -98.760535 -52.321507 -105.27939 C -52.321507 -108.56717 -52.83182 -110.97583 -53.852163 -112.50634 C -54.872507 -114.09354 -56.26106 -114.88759 -58.018317 -114.88759 C -60.11569 -114.88759 -61.702755 -114.15071 -62.779784 -112.67688 C -63.800127 -111.20305 -64.31044 -109.41747 -64.31044 -107.3201 C -64.31044 -105.44947 -63.913415 -103.77718 -63.119815 -102.30335 C -64.707015 -100.60278 -66.747749 -99.752084 -69.241922 -99.752084 C -71.509351 -99.752084 -73.266865 -100.43233 -74.513951 -101.79279 C -75.761037 -103.15324 -76.384638 -104.91076 -76.384638 -107.06482 C -76.384638 -109.8991 -75.420657 -112.25164 -73.493342 -114.12227 C -71.509341 -116.04958 -69.072099 -117.46671 -66.181127 -118.37369 C -63.233468 -119.28066 -60.342558 -119.73381 -57.508271 -119.73381 z M -12.613337 -119.56379 C -5.8677344 -119.56379 -0.70899703 -117.69351 2.8622043 -113.95225 C 6.4900913 -110.21099 8.3037326 -104.7971 8.3037326 -97.711381 C 8.3037326 -88.811721 5.5261099 -81.216258 -0.029092103 -74.924142 C -5.5276084 -68.688711 -13.520096 -64.09693 -24.006957 -61.149272 L -26.047659 -65.400692 C -20.379085 -67.838179 -15.815885 -70.956182 -12.358055 -74.754126 C -8.9002255 -78.608756 -6.6043351 -83.086732 -5.4706204 -88.188448 C -8.6450216 -86.601248 -11.734445 -85.807715 -14.738789 -85.807715 C -20.407362 -85.807715 -24.885338 -87.338137 -28.173111 -90.399166 C -31.404198 -93.460196 -33.019843 -97.598308 -33.019843 -102.8134 C -33.019843 -106.04448 -32.169667 -108.93539 -30.469095 -111.48625 C -28.711837 -114.03711 -26.302658 -116.0212 -23.241629 -117.43834 C -20.123913 -118.85549 -16.581338 -119.56379 -12.613337 -119.56379 z M -125.78627 -113.78224 C -128.0537 -113.78224 -129.83928 -113.04535 -131.14305 -111.57152 C -132.44682 -110.15437 -133.09849 -108.22693 -133.09849 -105.78944 C -133.09849 -103.63538 -132.27689 -101.84981 -130.63301 -100.43266 C -128.93243 -99.072205 -126.46661 -97.711715 -123.23553 -96.351258 C -121.81838 -97.314915 -120.68447 -98.646824 -119.83418 -100.3474 C -118.9839 -102.04797 -118.55881 -103.86213 -118.55881 -105.78944 C -118.55881 -108.22693 -119.23905 -110.15437 -120.59951 -111.57152 C -121.90328 -113.04535 -123.63222 -113.78224 -125.78627 -113.78224 z M -13.123383 -113.69697 C -15.56087 -113.69697 -17.431155 -112.76157 -18.734927 -110.89094 C -20.038699 -109.02031 -20.69088 -106.35597 -20.69088 -102.89814 C -20.69088 -99.383629 -19.982055 -96.634587 -18.564912 -94.650586 C -17.091082 -92.723271 -15.022285 -91.759807 -12.358055 -91.759807 C -10.03394 -91.759807 -7.4548299 -92.723271 -4.6205431 -94.650586 L -4.6205431 -95.755945 C -4.6205431 -101.93469 -5.3007878 -106.46931 -6.6612454 -109.36028 C -8.0217031 -112.25126 -10.175725 -113.69697 -13.123383 -113.69697 z M -89.223648 -101.28274 C -87.239647 -101.28274 -85.76587 -100.68772 -84.802212 -99.497319 C -83.781869 -98.363604 -83.272073 -96.776539 -83.272073 -94.735852 C -83.272073 -92.695166 -83.781869 -91.107584 -84.802212 -89.973869 C -85.76587 -88.840154 -87.239647 -88.273198 -89.223648 -88.273198 C -91.207648 -88.273198 -92.710006 -88.840154 -93.730349 -89.973869 C -94.694007 -91.16427 -95.175739 -92.751852 -95.175739 -94.735852 C -95.175739 -96.833225 -94.694007 -98.448354 -93.730349 -99.582068 C -92.710006 -100.71578 -91.207648 -101.28274 -89.223648 -101.28274 z M -129.27237 -89.038526 C -130.97294 -87.678068 -132.22014 -86.119583 -133.01374 -84.362325 C -133.80734 -82.605068 -134.20385 -80.50769 -134.20385 -78.070203 C -134.20385 -74.725745 -133.38225 -72.089474 -131.73837 -70.162159 C -130.09448 -68.291529 -127.85523 -67.356645 -125.02095 -67.356645 C -122.24334 -67.356645 -120.08932 -68.291529 -118.55881 -70.162159 C -116.97161 -72.032788 -116.17807 -74.640479 -116.17807 -77.984937 C -116.17807 -79.855566 -116.7731 -81.442631 -117.9635 -82.746403 C -119.09721 -84.106861 -120.54292 -85.212194 -122.30018 -86.06248 C -124.05744 -86.969452 -126.38139 -87.961497 -129.27237 -89.038526 z M -89.223648 -74.498845 C -87.239647 -74.498845 -85.76587 -73.903824 -84.802212 -72.713424 C -83.781869 -71.579709 -83.272073 -69.992127 -83.272073 -67.951441 C -83.272073 -65.910754 -83.781869 -64.323689 -84.802212 -63.189974 C -85.76587 -62.05626 -87.239647 -61.489303 -89.223648 -61.489303 C -91.207648 -61.489303 -92.710006 -62.05626 -93.730349 -63.189974 C -94.694007 -64.380375 -95.175739 -65.96744 -95.175739 -67.951441 C -95.175739 -70.048813 -94.694007 -71.664459 -93.730349 -72.798173 C -92.710006 -73.931888 -91.207648 -74.498845 -89.223648 -74.498845 z " /></g></svg>
