<?xml version="1.0" encoding="UTF-8" standalone="no"?>
<!-- Created with Inkscape (http://www.inkscape.org/) -->

<svg
   width="172.6701mm"
   height="172.6701mm"
   viewBox="0 0 172.6701 172.6701"
   version="1.1"
   id="svg1"
   xml:space="preserve"
   xmlns="http://www.w3.org/2000/svg"
   xmlns:svg="http://www.w3.org/2000/svg"><defs
     id="defs1" /><g
     id="layer1"
     transform="translate(157.25102,198.81012)"><path
       id="path5"
       style="fill:#ffffff;fill-opacity:1;stroke-width:0.805188;stroke-linecap:round;stroke-linejoin:round"
       d="M -2.0863309 -198.17657 L -10.088943 -183.11289 L -10.930235 -165.68398 L -19.198981 -165.68398 L -11.423229 -155.47426 L -12.166336 -140.07934 C -28.353216 -157.12094 -50.823548 -166.77435 -74.327399 -166.78417 C -103.64471 -166.77397 -130.92652 -151.79225 -146.66717 -127.05894 L -157.25102 -127.05894 L -149.61996 -115.86014 L -157.25102 -26.140039 L -8.5138455 -26.140039 L 15.419061 -26.140039 L 8.0799737 -154.80195 L 15.419061 -165.68398 L 7.4593397 -165.68398 L 6.4490654 -183.39297 L -2.0863309 -198.17657 z M -83.43072 -192.21621 C -85.584619 -189.65499 -86.77489 -186.4211 -86.795372 -183.07465 C -86.842092 -175.15518 -80.459903 -168.69733 -72.540428 -168.65072 C -64.621155 -168.60402 -58.163395 -174.98588 -58.116503 -182.90515 C -58.102813 -186.26049 -59.266203 -189.5144 -61.404157 -192.10045 C -60.83125 -190.6836 -60.536835 -189.16959 -60.537027 -187.64129 C -60.575787 -181.07411 -65.930869 -175.78172 -72.498054 -175.82031 C -79.065241 -175.85911 -84.357627 -181.21415 -84.319038 -187.78134 C -84.309338 -189.30285 -84.007827 -190.80837 -83.43072 -192.21621 z M -59.293692 -120.07436 C -54.758833 -119.84761 -51.07439 -118.85557 -48.240103 -117.09831 L -68.476594 -83.767013 L -55.467569 -83.767013 L -54.616975 -97.626632 C -52.803031 -97.626632 -51.499186 -97.995076 -50.705585 -98.731991 C -49.855299 -99.468905 -49.203635 -100.71611 -48.750149 -102.47336 L -43.903417 -102.47336 L -43.988683 -83.341716 C -41.834625 -82.718173 -39.113646 -82.066508 -35.825874 -81.38628 L -36.251171 -77.304875 L -44.41398 -77.304875 L -44.41398 -62.084615 L -55.467569 -62.084615 L -55.467569 -77.304875 L -80.040746 -77.304875 L -80.720808 -80.36567 L -59.293692 -120.07436 z M -12.272789 -120.07436 C -7.7379304 -119.84761 -4.0534871 -118.85557 -1.2192003 -117.09831 L -21.456208 -83.767013 L -8.4466662 -83.767013 L -7.5965888 -97.626632 C -5.7826453 -97.626632 -4.4788 -97.995076 -3.6851997 -98.731991 C -2.8349137 -99.468905 -2.1827326 -100.71611 -1.7292467 -102.47336 L 3.1169691 -102.47336 L 3.0322197 -83.341716 C 5.1862777 -82.718173 7.9072564 -82.066508 11.195029 -81.38628 L 10.769732 -77.304875 L 2.6069227 -77.304875 L 2.6069227 -62.084615 L -8.4466662 -62.084615 L -8.4466662 -77.304875 L -33.019843 -77.304875 L -33.700422 -80.36567 L -12.272789 -120.07436 z M -128.50704 -119.81908 C -122.55504 -119.81908 -117.8219 -118.54381 -114.30739 -115.99295 C -110.79287 -113.44209 -109.03536 -110.01229 -109.03536 -105.70418 C -109.03536 -103.38006 -109.88554 -101.05611 -111.58611 -98.731991 C -113.28668 -96.407876 -115.52593 -94.50901 -118.30353 -93.035181 C -114.78901 -91.334609 -112.03997 -89.350519 -110.05597 -87.08309 C -108.01528 -84.81566 -106.99466 -81.896169 -106.99466 -78.324968 C -106.99466 -73.166566 -108.86546 -69.057034 -112.60672 -65.996005 C -116.34798 -62.991661 -121.39291 -61.489303 -127.74171 -61.489303 C -134.71406 -61.489303 -140.09937 -62.878373 -143.89731 -65.655974 C -147.63857 -68.433575 -149.50937 -72.401238 -149.50937 -77.55964 C -149.50937 -80.223869 -148.65868 -82.86014 -146.95811 -85.467684 C -145.25754 -88.131914 -142.87694 -90.483931 -139.81591 -92.524618 C -142.36677 -93.941761 -144.35086 -95.642631 -145.768 -97.626632 C -147.18514 -99.610633 -147.89345 -102.07646 -147.89345 -105.02411 C -147.89345 -109.55897 -146.13645 -113.15871 -142.62194 -115.82294 C -139.10742 -118.48717 -134.40235 -119.81908 -128.50704 -119.81908 z M -128.50704 -113.78224 C -130.77447 -113.78224 -132.56005 -113.04535 -133.86382 -111.57152 C -135.16759 -110.15437 -135.81977 -108.22693 -135.81977 -105.78944 C -135.81977 -103.63538 -134.99766 -101.84981 -133.35377 -100.43266 C -131.6532 -99.072205 -129.18738 -97.711715 -125.95629 -96.351258 C -124.53915 -97.314915 -123.40523 -98.646824 -122.55495 -100.3474 C -121.70466 -102.04797 -121.27957 -103.86213 -121.27957 -105.78944 C -121.27957 -108.22693 -121.95982 -110.15437 -123.32027 -111.57152 C -124.62405 -113.04535 -126.35298 -113.78224 -128.50704 -113.78224 z M -91.944929 -101.28274 C -89.960928 -101.28274 -88.487151 -100.68772 -87.523493 -99.497319 C -86.50315 -98.363604 -85.992837 -96.776539 -85.992837 -94.735852 C -85.992837 -92.695166 -86.50315 -91.107584 -87.523493 -89.973869 C -88.487151 -88.840154 -89.960928 -88.273198 -91.944929 -88.273198 C -93.928929 -88.273198 -95.43077 -88.840154 -96.451114 -89.973869 C -97.414771 -91.16427 -97.89702 -92.751852 -97.89702 -94.735852 C -97.89702 -96.833225 -97.414771 -98.448354 -96.451114 -99.582068 C -95.43077 -100.71578 -93.928929 -101.28274 -91.944929 -101.28274 z M -131.99313 -89.038526 C -133.6937 -87.678068 -134.9409 -86.119583 -135.7345 -84.362325 C -136.5281 -82.605068 -136.92513 -80.50769 -136.92513 -78.070203 C -136.92513 -74.725745 -136.10302 -72.089474 -134.45913 -70.162159 C -132.81524 -68.291529 -130.576 -67.356645 -127.74171 -67.356645 C -124.96411 -67.356645 -122.81009 -68.291529 -121.27957 -70.162159 C -119.69237 -72.032788 -118.89884 -74.640479 -118.89884 -77.984937 C -118.89884 -79.855566 -119.49386 -81.442631 -120.68426 -82.746403 C -121.81797 -84.106861 -123.26369 -85.212194 -125.02095 -86.06248 C -126.7782 -86.969452 -129.10216 -87.961497 -131.99313 -89.038526 z M -91.944929 -74.498845 C -89.960928 -74.498845 -88.487151 -73.903824 -87.523493 -72.713424 C -86.50315 -71.579709 -85.992837 -69.992127 -85.992837 -67.951441 C -85.992837 -65.910754 -86.50315 -64.323689 -87.523493 -63.189974 C -88.487151 -62.05626 -89.960928 -61.489303 -91.944929 -61.489303 C -93.928929 -61.489303 -95.43077 -62.05626 -96.451114 -63.189974 C -97.414771 -64.380375 -97.89702 -65.96744 -97.89702 -67.951441 C -97.89702 -70.048813 -97.414771 -71.664459 -96.451114 -72.798173 C -95.43077 -73.931888 -93.928929 -74.498845 -91.944929 -74.498845 z " /></g></svg>
