<?xml version="1.0" encoding="UTF-8" standalone="no"?>
<!-- Created with Inkscape (http://www.inkscape.org/) -->

<svg
   width="172.6701mm"
   height="172.6701mm"
   viewBox="0 0 172.6701 172.6701"
   version="1.1"
   id="svg1"
   xml:space="preserve"
   xmlns="http://www.w3.org/2000/svg"
   xmlns:svg="http://www.w3.org/2000/svg"><defs
     id="defs1" /><g
     id="layer1"
     transform="translate(157.25102,198.81012)"><path
       id="path5"
       style="fill:#ffffff;fill-opacity:1;stroke-width:0.805188;stroke-linecap:round;stroke-linejoin:round"
       d="M -2.0863309 -198.17657 L -10.088943 -183.11289 L -10.930235 -165.68398 L -19.198981 -165.68398 L -11.423229 -155.47426 L -12.166336 -140.07934 C -28.353216 -157.12094 -50.823548 -166.77435 -74.327399 -166.78417 C -103.64471 -166.77397 -130.92652 -151.79225 -146.66717 -127.05894 L -157.25102 -127.05894 L -149.61996 -115.86014 L -157.25102 -26.140039 L -8.5138455 -26.140039 L 15.419061 -26.140039 L 8.0799737 -154.80195 L 15.419061 -165.68398 L 7.4593397 -165.68398 L 6.4490654 -183.39297 L -2.0863309 -198.17657 z M -83.43072 -192.21621 C -85.584619 -189.65499 -86.77489 -186.4211 -86.795372 -183.07465 C -86.842092 -175.15518 -80.459903 -168.69733 -72.540428 -168.65072 C -64.621155 -168.60402 -58.163395 -174.98588 -58.116503 -182.90515 C -58.102813 -186.26049 -59.266203 -189.5144 -61.404157 -192.10045 C -60.83125 -190.6836 -60.536835 -189.16959 -60.537027 -187.64129 C -60.575787 -181.07411 -65.930869 -175.78172 -72.498054 -175.82031 C -79.065241 -175.85911 -84.357627 -181.21415 -84.319038 -187.78134 C -84.309338 -189.30285 -84.007827 -190.80837 -83.43072 -192.21621 z M -58.656005 -120.07436 C -54.121146 -119.84761 -50.436702 -118.85557 -47.602416 -117.09831 L -67.838907 -83.767013 L -54.829881 -83.767013 L -53.979287 -97.626632 C -52.165344 -97.626632 -50.861499 -97.995076 -50.067898 -98.731991 C -49.217612 -99.468905 -48.565948 -100.71611 -48.112462 -102.47336 L -43.265729 -102.47336 L -43.350996 -83.341716 C -41.196938 -82.718173 -38.475959 -82.066508 -35.188186 -81.38628 L -35.613483 -77.304875 L -43.776293 -77.304875 L -43.776293 -62.084615 L -54.829881 -62.084615 L -54.829881 -77.304875 L -79.403059 -77.304875 L -80.08312 -80.36567 L -58.656005 -120.07436 z M 1.2891737 -119.90383 L 3.329876 -115.65241 C -8.1206425 -110.72075 -15.008314 -103.12528 -17.332429 -92.865166 C -14.044656 -94.452366 -10.926653 -95.245899 -7.9789944 -95.245899 C -2.3104209 -95.245899 2.1394914 -93.715477 5.3705783 -90.654448 C 8.6583509 -87.593418 10.30206 -83.455306 10.30206 -78.240218 C 10.30206 -75.009132 9.4233032 -72.118221 7.6660454 -69.567363 C 5.9654734 -67.016505 3.556295 -65.032415 0.43857961 -63.615271 C -2.6224501 -62.198128 -6.1369614 -61.489303 -10.104963 -61.489303 C -16.850565 -61.489303 -22.03685 -63.360105 -25.664737 -67.101363 C -29.235938 -70.842622 -31.022032 -76.255999 -31.022032 -83.341716 C -31.022032 -92.241376 -28.272473 -99.808775 -22.773957 -106.04421 C -17.218755 -112.33632 -9.1976873 -116.95617 1.2891737 -119.90383 z M -127.86935 -119.81908 C -121.91735 -119.81908 -117.18422 -118.54381 -113.6697 -115.99295 C -110.15519 -113.44209 -108.39767 -110.01229 -108.39767 -105.70418 C -108.39767 -103.38006 -109.24785 -101.05611 -110.94842 -98.731991 C -112.64899 -96.407876 -114.88824 -94.50901 -117.66584 -93.035181 C -114.15132 -91.334609 -111.40228 -89.350519 -109.41828 -87.08309 C -107.37759 -84.81566 -106.35697 -81.896169 -106.35697 -78.324968 C -106.35697 -73.166566 -108.22777 -69.057034 -111.96903 -65.996005 C -115.71029 -62.991661 -120.75522 -61.489303 -127.10402 -61.489303 C -134.07637 -61.489303 -139.46168 -62.878373 -143.25963 -65.655974 C -147.00088 -68.433575 -148.87169 -72.401238 -148.87169 -77.55964 C -148.87169 -80.223869 -148.02099 -82.86014 -146.32042 -85.467684 C -144.61985 -88.131914 -142.23925 -90.483931 -139.17822 -92.524618 C -141.72908 -93.941761 -143.71317 -95.642631 -145.13031 -97.626632 C -146.54746 -99.610633 -147.25576 -102.07646 -147.25576 -105.02411 C -147.25576 -109.55897 -145.49877 -113.15871 -141.98425 -115.82294 C -138.46974 -118.48717 -133.76467 -119.81908 -127.86935 -119.81908 z M -127.86935 -113.78224 C -130.13678 -113.78224 -131.92236 -113.04535 -133.22613 -111.57152 C -134.5299 -110.15437 -135.18208 -108.22693 -135.18208 -105.78944 C -135.18208 -103.63538 -134.35997 -101.84981 -132.71608 -100.43266 C -131.01551 -99.072205 -128.54969 -97.711715 -125.3186 -96.351258 C -123.90146 -97.314915 -122.76755 -98.646824 -121.91726 -100.3474 C -121.06697 -102.04797 -120.64189 -103.86213 -120.64189 -105.78944 C -120.64189 -108.22693 -121.32213 -110.15437 -122.68259 -111.57152 C -123.98636 -113.04535 -125.71529 -113.78224 -127.86935 -113.78224 z M -91.307242 -101.28274 C -89.323241 -101.28274 -87.849463 -100.68772 -86.885806 -99.497319 C -85.865463 -98.363604 -85.35515 -96.776539 -85.35515 -94.735852 C -85.35515 -92.695166 -85.865463 -91.107584 -86.885806 -89.973869 C -87.849463 -88.840154 -89.323241 -88.273198 -91.307242 -88.273198 C -93.291242 -88.273198 -94.793083 -88.840154 -95.813426 -89.973869 C -96.777084 -91.16427 -97.259333 -92.751852 -97.259333 -94.735852 C -97.259333 -96.833225 -96.777084 -98.448354 -95.813426 -99.582068 C -94.793083 -100.71578 -93.291242 -101.28274 -91.307242 -101.28274 z M -10.359728 -89.293807 C -12.740529 -89.293807 -15.319639 -88.330343 -18.09724 -86.403028 L -18.09724 -85.297669 C -18.09724 -79.118924 -17.416995 -74.583787 -16.056538 -71.692814 C -14.69608 -68.801842 -12.542058 -67.356645 -9.5943997 -67.356645 C -7.1569131 -67.356645 -5.2866278 -68.291529 -3.9828559 -70.162159 C -2.679084 -72.032788 -2.026903 -74.697123 -2.026903 -78.154952 C -2.026903 -81.669468 -2.7637916 -84.390447 -4.2376207 -86.317762 C -5.6547641 -88.301762 -7.6954981 -89.293807 -10.359728 -89.293807 z M -131.35544 -89.038526 C -133.05602 -87.678068 -134.30322 -86.119583 -135.09682 -84.362325 C -135.89042 -82.605068 -136.28744 -80.50769 -136.28744 -78.070203 C -136.28744 -74.725745 -135.46533 -72.089474 -133.82144 -70.162159 C -132.17756 -68.291529 -129.93831 -67.356645 -127.10402 -67.356645 C -124.32642 -67.356645 -122.1724 -68.291529 -120.64189 -70.162159 C -119.05468 -72.032788 -118.26115 -74.640479 -118.26115 -77.984937 C -118.26115 -79.855566 -118.85617 -81.442631 -120.04657 -82.746403 C -121.18029 -84.106861 -122.626 -85.212194 -124.38326 -86.06248 C -126.14052 -86.969452 -128.46447 -87.961497 -131.35544 -89.038526 z M -91.307242 -74.498845 C -89.323241 -74.498845 -87.849463 -73.903824 -86.885806 -72.713424 C -85.865463 -71.579709 -85.35515 -69.992127 -85.35515 -67.951441 C -85.35515 -65.910754 -85.865463 -64.323689 -86.885806 -63.189974 C -87.849463 -62.05626 -89.323241 -61.489303 -91.307242 -61.489303 C -93.291242 -61.489303 -94.793083 -62.05626 -95.813426 -63.189974 C -96.777084 -64.380375 -97.259333 -65.96744 -97.259333 -67.951441 C -97.259333 -70.048813 -96.777084 -71.664459 -95.813426 -72.798173 C -94.793083 -73.931888 -93.291242 -74.498845 -91.307242 -74.498845 z " /></g></svg>
