<?xml version="1.0" encoding="UTF-8" standalone="no"?>
<!-- Created with Inkscape (http://www.inkscape.org/) -->

<svg
   width="172.6701mm"
   height="172.6701mm"
   viewBox="0 0 172.6701 172.6701"
   version="1.1"
   id="svg1"
   xml:space="preserve"
   xmlns="http://www.w3.org/2000/svg"
   xmlns:svg="http://www.w3.org/2000/svg"><defs
     id="defs1" /><g
     id="layer1"
     transform="translate(157.25102,198.81012)"><path
       id="path5"
       style="fill:#ffffff;fill-opacity:1;stroke-width:0.805188;stroke-linecap:round;stroke-linejoin:round"
       d="M -2.0863309 -198.17657 L -10.088943 -183.11289 L -10.930235 -165.68398 L -19.198981 -165.68398 L -11.423229 -155.47426 L -12.166336 -140.07934 C -28.353216 -157.12094 -50.823548 -166.77435 -74.327399 -166.78417 C -103.64471 -166.77397 -130.92652 -151.79225 -146.66717 -127.05894 L -157.25102 -127.05894 L -149.61996 -115.86014 L -157.25102 -26.140039 L -8.5138455 -26.140039 L 15.419061 -26.140039 L 8.0799737 -154.80195 L 15.419061 -165.68398 L 7.4593397 -165.68398 L 6.4490654 -183.39297 L -2.0863309 -198.17657 z M -83.43072 -192.21621 C -85.584619 -189.65499 -86.77489 -186.4211 -86.795372 -183.07465 C -86.842092 -175.15518 -80.459903 -168.69733 -72.540428 -168.65072 C -64.621155 -168.60402 -58.163395 -174.98588 -58.116503 -182.90515 C -58.102813 -186.26049 -59.266203 -189.5144 -61.404157 -192.10045 C -60.83125 -190.6836 -60.536835 -189.16959 -60.537027 -187.64129 C -60.575787 -181.07411 -65.930869 -175.78172 -72.498054 -175.82031 C -79.065241 -175.85911 -84.357627 -181.21415 -84.319038 -187.78134 C -84.309338 -189.30285 -84.007827 -190.80837 -83.43072 -192.21621 z M -56.785318 -120.07436 C -52.250459 -119.84761 -48.566016 -118.85557 -45.731729 -117.09831 L -65.96822 -83.767013 L -52.959195 -83.767013 L -52.108601 -97.626632 C -50.294657 -97.626632 -48.991328 -97.995076 -48.197728 -98.731991 C -47.347442 -99.468905 -46.695261 -100.71611 -46.241775 -102.47336 L -41.395043 -102.47336 L -41.480309 -83.341716 C -39.326251 -82.718173 -36.605272 -82.066508 -33.317499 -81.38628 L -33.742797 -77.304875 L -41.905606 -77.304875 L -41.905606 -62.084615 L -52.959195 -62.084615 L -52.959195 -77.304875 L -77.532372 -77.304875 L -78.212434 -80.36567 L -56.785318 -120.07436 z M -125.99866 -119.81908 C -120.04666 -119.81908 -115.31353 -118.54381 -111.79901 -115.99295 C -108.2845 -113.44209 -106.52698 -110.01229 -106.52698 -105.70418 C -106.52698 -103.38006 -107.37768 -101.05611 -109.07825 -98.731991 C -110.77882 -96.407876 -113.01755 -94.50901 -115.79515 -93.035181 C -112.28064 -91.334609 -109.53159 -89.350519 -107.54759 -87.08309 C -105.50691 -84.81566 -104.48628 -81.896169 -104.48628 -78.324968 C -104.48628 -73.166566 -106.35708 -69.057034 -110.09834 -65.996005 C -113.8396 -62.991661 -118.88453 -61.489303 -125.23334 -61.489303 C -132.20568 -61.489303 -137.59099 -62.878373 -141.38894 -65.655974 C -145.1302 -68.433575 -147.001 -72.401238 -147.001 -77.55964 C -147.001 -80.223869 -146.15031 -82.86014 -144.44973 -85.467684 C -142.74916 -88.131914 -140.36856 -90.483931 -137.30753 -92.524618 C -139.85839 -93.941761 -141.84248 -95.642631 -143.25963 -97.626632 C -144.67677 -99.610633 -145.38508 -102.07646 -145.38508 -105.02411 C -145.38508 -109.55897 -143.62808 -113.15871 -140.11356 -115.82294 C -136.59905 -118.48717 -131.89398 -119.81908 -125.99866 -119.81908 z M -28.896064 -118.88373 L -24.72991 -118.88373 C -22.575852 -118.82705 -17.870783 -118.79847 -10.615009 -118.79847 C -3.0758065 -118.79847 1.8277746 -118.82705 4.095204 -118.88373 L 8.1766086 -118.88373 L 9.8767632 -115.22762 C 8.7997342 -113.52705 6.759517 -109.84261 3.755173 -104.17404 C 0.75082908 -98.505463 -2.0839544 -92.496548 -4.7481839 -86.147746 C -7.4124134 -79.798944 -8.7443224 -74.838719 -8.7443224 -71.267517 C -8.7443224 -68.433231 -7.7522774 -66.307789 -5.7682767 -64.890646 C -7.6955917 -62.566531 -10.161414 -61.404554 -13.165758 -61.404554 C -15.943359 -61.404554 -18.097381 -62.169506 -19.627896 -63.700021 C -21.158411 -65.230536 -21.92388 -67.356494 -21.92388 -70.077409 C -21.92388 -73.478553 -21.101767 -77.077772 -19.45788 -80.875717 C -17.813994 -84.730347 -14.866439 -89.945728 -10.615009 -96.521273 L -0.58151316 -111.9963 L -19.967927 -111.9963 C -20.761527 -109.44544 -21.243259 -106.44124 -21.413317 -102.98341 C -22.43366 -102.81335 -23.482349 -102.72813 -24.559378 -102.72813 C -25.693092 -102.72813 -26.798425 -102.81335 -27.875454 -102.98341 L -30.256704 -117.60836 L -28.896064 -118.88373 z M -125.99866 -113.78224 C -128.26609 -113.78224 -130.05167 -113.04535 -131.35544 -111.57152 C -132.65921 -110.15437 -133.3114 -108.22693 -133.3114 -105.78944 C -133.3114 -103.63538 -132.48928 -101.84981 -130.8454 -100.43266 C -129.14482 -99.072205 -126.679 -97.711715 -123.44792 -96.351258 C -122.03077 -97.314915 -120.89686 -98.646824 -120.04657 -100.3474 C -119.19629 -102.04797 -118.7712 -103.86213 -118.7712 -105.78944 C -118.7712 -108.22693 -119.45144 -110.15437 -120.8119 -111.57152 C -122.11567 -113.04535 -123.84461 -113.78224 -125.99866 -113.78224 z M -89.436555 -101.28274 C -87.452554 -101.28274 -85.978777 -100.68772 -85.015119 -99.497319 C -83.994776 -98.363604 -83.484463 -96.776539 -83.484463 -94.735852 C -83.484463 -92.695166 -83.994776 -91.107584 -85.015119 -89.973869 C -85.978777 -88.840154 -87.452554 -88.273198 -89.436555 -88.273198 C -91.420555 -88.273198 -92.922396 -88.840154 -93.94274 -89.973869 C -94.906397 -91.16427 -95.388646 -92.751852 -95.388646 -94.735852 C -95.388646 -96.833225 -94.906397 -98.448354 -93.94274 -99.582068 C -92.922396 -100.71578 -91.420555 -101.28274 -89.436555 -101.28274 z M -129.48476 -89.038526 C -131.18533 -87.678068 -132.43253 -86.119583 -133.22613 -84.362325 C -134.01973 -82.605068 -134.41675 -80.50769 -134.41675 -78.070203 C -134.41675 -74.725745 -133.59464 -72.089474 -131.95076 -70.162159 C -130.30687 -68.291529 -128.06762 -67.356645 -125.23334 -67.356645 C -122.45574 -67.356645 -120.30171 -68.291529 -118.7712 -70.162159 C -117.184 -72.032788 -116.39046 -74.640479 -116.39046 -77.984937 C -116.39046 -79.855566 -116.98549 -81.442631 -118.17589 -82.746403 C -119.3096 -84.106861 -120.75531 -85.212194 -122.51257 -86.06248 C -124.26983 -86.969452 -126.59378 -87.961497 -129.48476 -89.038526 z M -89.436555 -74.498845 C -87.452554 -74.498845 -85.978777 -73.903824 -85.015119 -72.713424 C -83.994776 -71.579709 -83.484463 -69.992127 -83.484463 -67.951441 C -83.484463 -65.910754 -83.994776 -64.323689 -85.015119 -63.189974 C -85.978777 -62.05626 -87.452554 -61.489303 -89.436555 -61.489303 C -91.420555 -61.489303 -92.922396 -62.05626 -93.94274 -63.189974 C -94.906397 -64.380375 -95.388646 -65.96744 -95.388646 -67.951441 C -95.388646 -70.048813 -94.906397 -71.664459 -93.94274 -72.798173 C -92.922396 -73.931888 -91.420555 -74.498845 -89.436555 -74.498845 z " /></g></svg>
