<?xml version="1.0" encoding="UTF-8" standalone="no"?>
<!-- Created with Inkscape (http://www.inkscape.org/) -->

<svg
   width="172.6701mm"
   height="172.6701mm"
   viewBox="0 0 172.6701 172.6701"
   version="1.1"
   id="svg1"
   xml:space="preserve"
   xmlns="http://www.w3.org/2000/svg"
   xmlns:svg="http://www.w3.org/2000/svg"><defs
     id="defs1" /><g
     id="layer1"
     transform="translate(157.25102,198.81012)"><path
       id="path5"
       style="fill:#ffffff;fill-opacity:1;stroke-width:0.805188;stroke-linecap:round;stroke-linejoin:round"
       d="M -2.0863309 -198.17657 L -10.088943 -183.11289 L -10.930235 -165.68398 L -19.198981 -165.68398 L -11.423229 -155.47426 L -12.166336 -140.07934 C -28.353216 -157.12094 -50.823548 -166.77435 -74.327399 -166.78417 C -103.64471 -166.77397 -130.92652 -151.79225 -146.66717 -127.05894 L -157.25102 -127.05894 L -149.61996 -115.86014 L -157.25102 -26.140039 L -8.5138455 -26.140039 L 15.419061 -26.140039 L 8.0799737 -154.80195 L 15.419061 -165.68398 L 7.4593397 -165.68398 L 6.4490654 -183.39297 L -2.0863309 -198.17657 z M -83.43072 -192.21621 C -85.584619 -189.65499 -86.77489 -186.4211 -86.795372 -183.07465 C -86.842092 -175.15518 -80.459903 -168.69733 -72.540428 -168.65072 C -64.621155 -168.60402 -58.163395 -174.98588 -58.116503 -182.90515 C -58.102813 -186.26049 -59.266203 -189.5144 -61.404157 -192.10045 C -60.83125 -190.6836 -60.536835 -189.16959 -60.537027 -187.64129 C -60.575787 -181.07411 -65.930869 -175.78172 -72.498054 -175.82031 C -79.065241 -175.85911 -84.357627 -181.21415 -84.319038 -187.78134 C -84.309338 -189.30285 -84.007827 -190.80837 -83.43072 -192.21621 z M -59.421333 -120.07436 C -54.886474 -119.84761 -51.20203 -118.85557 -48.367744 -117.09831 L -68.604235 -83.767013 L -55.595209 -83.767013 L -54.744615 -97.626632 C -52.930672 -97.626632 -51.626827 -97.995076 -50.833226 -98.731991 C -49.98294 -99.468905 -49.331276 -100.71611 -48.87779 -102.47336 L -44.031057 -102.47336 L -44.116324 -83.341716 C -41.962266 -82.718173 -39.241287 -82.066508 -35.953514 -81.38628 L -36.378295 -77.304875 L -44.541104 -77.304875 L -44.541104 -62.084615 L -55.595209 -62.084615 L -55.595209 -77.304875 L -80.168387 -77.304875 L -80.848448 -80.36567 L -59.421333 -120.07436 z M -128.63468 -119.81908 C -122.68268 -119.81908 -117.94954 -118.54381 -114.43503 -115.99295 C -110.92051 -113.44209 -109.163 -110.01229 -109.163 -105.70418 C -109.163 -103.38006 -110.01318 -101.05611 -111.71375 -98.731991 C -113.41432 -96.407876 -115.65357 -94.50901 -118.43117 -93.035181 C -114.91665 -91.334609 -112.16761 -89.350519 -110.18361 -87.08309 C -108.14292 -84.81566 -107.1223 -81.896169 -107.1223 -78.324968 C -107.1223 -73.166566 -108.9931 -69.057034 -112.73436 -65.996005 C -116.47562 -62.991661 -121.52055 -61.489303 -127.86935 -61.489303 C -134.8417 -61.489303 -140.22701 -62.878373 -144.02495 -65.655974 C -147.76621 -68.433575 -149.6365 -72.401238 -149.6365 -77.55964 C -149.6365 -80.223869 -148.78632 -82.86014 -147.08575 -85.467684 C -145.38518 -88.131914 -143.00458 -90.483931 -139.94355 -92.524618 C -142.49441 -93.941761 -144.4785 -95.642631 -145.89564 -97.626632 C -147.31278 -99.610633 -148.02109 -102.07646 -148.02109 -105.02411 C -148.02109 -109.55897 -146.2641 -113.15871 -142.74958 -115.82294 C -139.23506 -118.48717 -134.53 -119.81908 -128.63468 -119.81908 z M -10.529743 -119.81908 C -4.577741 -119.81908 0.15539135 -118.54381 3.6699069 -115.99295 C 7.1844225 -113.44209 8.9414198 -110.01229 8.9414198 -105.70418 C 8.9414198 -103.38006 8.0912431 -101.05611 6.3906711 -98.731991 C 4.690099 -96.407876 2.4513694 -94.50901 -0.32623159 -93.035181 C 3.188284 -91.334609 5.9373263 -89.350519 7.921327 -87.08309 C 9.9620135 -84.81566 10.982122 -81.896169 10.982122 -78.324968 C 10.982122 -73.166566 9.1118368 -69.057034 5.3705783 -65.996005 C 1.6293198 -62.991661 -3.4156129 -61.489303 -9.7644152 -61.489303 C -16.736761 -61.489303 -22.122074 -62.878373 -25.920018 -65.655974 C -29.661277 -68.433575 -31.532079 -72.401238 -31.532079 -77.55964 C -31.532079 -80.223869 -30.681902 -82.86014 -28.98133 -85.467684 C -27.280758 -88.131914 -24.899643 -90.483931 -21.838614 -92.524618 C -24.389472 -93.941761 -26.373562 -95.642631 -27.790705 -97.626632 C -29.207848 -99.610633 -29.916157 -102.07646 -29.916157 -105.02411 C -29.916157 -109.55897 -28.159159 -113.15871 -24.644644 -115.82294 C -21.130128 -118.48717 -16.42506 -119.81908 -10.529743 -119.81908 z M -128.63468 -113.78224 C -130.90211 -113.78224 -132.68769 -113.04535 -133.99146 -111.57152 C -135.29523 -110.15437 -135.94689 -108.22693 -135.94689 -105.78944 C -135.94689 -103.63538 -135.1253 -101.84981 -133.48141 -100.43266 C -131.78084 -99.072205 -129.31502 -97.711715 -126.08393 -96.351258 C -124.66679 -97.314915 -123.53287 -98.646824 -122.68259 -100.3474 C -121.8323 -102.04797 -121.40721 -103.86213 -121.40721 -105.78944 C -121.40721 -108.22693 -122.08746 -110.15437 -123.44792 -111.57152 C -124.75169 -113.04535 -126.48062 -113.78224 -128.63468 -113.78224 z M -10.529743 -113.78224 C -12.797173 -113.78224 -14.58275 -113.04535 -15.886522 -111.57152 C -17.190294 -110.15437 -17.842475 -108.22693 -17.842475 -105.78944 C -17.842475 -103.63538 -17.020362 -101.84981 -15.376476 -100.43266 C -13.675904 -99.072205 -11.210081 -97.711715 -7.9789944 -96.351258 C -6.5618511 -97.314915 -5.4279377 -98.646824 -4.5776517 -100.3474 C -3.7273656 -102.04797 -3.3022773 -103.86213 -3.3022773 -105.78944 C -3.3022773 -108.22693 -3.982522 -110.15437 -5.3429796 -111.57152 C -6.6467515 -113.04535 -8.3756852 -113.78224 -10.529743 -113.78224 z M -92.072569 -101.28274 C -90.088569 -101.28274 -88.614275 -100.68772 -87.650617 -99.497319 C -86.630274 -98.363604 -86.120478 -96.776539 -86.120478 -94.735852 C -86.120478 -92.695166 -86.630274 -91.107584 -87.650617 -89.973869 C -88.614275 -88.840154 -90.088569 -88.273198 -92.072569 -88.273198 C -94.05657 -88.273198 -95.558411 -88.840154 -96.578754 -89.973869 C -97.542412 -91.16427 -98.024144 -92.751852 -98.024144 -94.735852 C -98.024144 -96.833225 -97.542412 -98.448354 -96.578754 -99.582068 C -95.558411 -100.71578 -94.05657 -101.28274 -92.072569 -101.28274 z M -132.12077 -89.038526 C -133.82134 -87.678068 -135.06854 -86.119583 -135.86214 -84.362325 C -136.65574 -82.605068 -137.05225 -80.50769 -137.05225 -78.070203 C -137.05225 -74.725745 -136.23066 -72.089474 -134.58677 -70.162159 C -132.94288 -68.291529 -130.70364 -67.356645 -127.86935 -67.356645 C -125.09175 -67.356645 -122.93773 -68.291529 -121.40721 -70.162159 C -119.82001 -72.032788 -119.02648 -74.640479 -119.02648 -77.984937 C -119.02648 -79.855566 -119.6215 -81.442631 -120.8119 -82.746403 C -121.94562 -84.106861 -123.39133 -85.212194 -125.14859 -86.06248 C -126.90584 -86.969452 -129.2298 -87.961497 -132.12077 -89.038526 z M -14.015835 -89.038526 C -15.716407 -87.678068 -16.963609 -86.119583 -17.757209 -84.362325 C -18.550809 -82.605068 -18.947834 -80.50769 -18.947834 -78.070203 C -18.947834 -74.725745 -18.125721 -72.089474 -16.481835 -70.162159 C -14.837948 -68.291529 -12.598702 -67.356645 -9.7644152 -67.356645 C -6.9868142 -67.356645 -4.8327922 -68.291529 -3.3022773 -70.162159 C -1.7150767 -72.032788 -0.92154409 -74.640479 -0.92154409 -77.984937 C -0.92154409 -79.855566 -1.5170812 -81.442631 -2.7074816 -82.746403 C -3.8411963 -84.106861 -5.2863932 -85.212194 -7.043651 -86.06248 C -8.8009088 -86.969452 -11.124863 -87.961497 -14.015835 -89.038526 z M -92.072569 -74.498845 C -90.088569 -74.498845 -88.614275 -73.903824 -87.650617 -72.713424 C -86.630274 -71.579709 -86.120478 -69.992127 -86.120478 -67.951441 C -86.120478 -65.910754 -86.630274 -64.323689 -87.650617 -63.189974 C -88.614275 -62.05626 -90.088569 -61.489303 -92.072569 -61.489303 C -94.05657 -61.489303 -95.558411 -62.05626 -96.578754 -63.189974 C -97.542412 -64.380375 -98.024144 -65.96744 -98.024144 -67.951441 C -98.024144 -70.048813 -97.542412 -71.664459 -96.578754 -72.798173 C -95.558411 -73.931888 -94.05657 -74.498845 -92.072569 -74.498845 z " /></g></svg>
