<?xml version="1.0" encoding="UTF-8" standalone="no"?>
<!-- Created with Inkscape (http://www.inkscape.org/) -->

<svg
   width="172.6701mm"
   height="172.6701mm"
   viewBox="0 0 172.6701 172.6701"
   version="1.1"
   id="svg1"
   xml:space="preserve"
   xmlns="http://www.w3.org/2000/svg"
   xmlns:svg="http://www.w3.org/2000/svg"><defs
     id="defs1" /><g
     id="layer1"
     transform="translate(157.25102,198.81012)"><path
       id="path5"
       style="fill:#ffffff;fill-opacity:1;stroke-width:0.805188;stroke-linecap:round;stroke-linejoin:round"
       d="M -2.0863309 -198.17657 L -10.088943 -183.11289 L -10.930235 -165.68398 L -19.198981 -165.68398 L -11.423229 -155.47426 L -12.166336 -140.07934 C -28.353216 -157.12094 -50.823548 -166.77435 -74.327399 -166.78417 C -103.64471 -166.77397 -130.92652 -151.79225 -146.66717 -127.05894 L -157.25102 -127.05894 L -149.61996 -115.86014 L -157.25102 -26.140039 L -8.5138455 -26.140039 L 15.419061 -26.140039 L 8.0799737 -154.80195 L 15.419061 -165.68398 L 7.4593397 -165.68398 L 6.4490654 -183.39297 L -2.0863309 -198.17657 z M -83.43072 -192.21621 C -85.584619 -189.65499 -86.77489 -186.4211 -86.795372 -183.07465 C -86.842092 -175.15518 -80.459903 -168.69733 -72.540428 -168.65072 C -64.621155 -168.60402 -58.163395 -174.98588 -58.116503 -182.90515 C -58.102813 -186.26049 -59.266203 -189.5144 -61.404157 -192.10045 C -60.83125 -190.6836 -60.536835 -189.16959 -60.537027 -187.64129 C -60.575787 -181.07411 -65.930869 -175.78172 -72.498054 -175.82031 C -79.065241 -175.85911 -84.357627 -181.21415 -84.319038 -187.78134 C -84.309338 -189.30285 -84.007827 -190.80837 -83.43072 -192.21621 z M -125.14859 -119.81908 C -119.19658 -119.81908 -114.46345 -118.54381 -110.94894 -115.99295 C -107.43442 -113.44209 -105.67691 -110.01229 -105.67691 -105.70418 C -105.67691 -103.38006 -106.52708 -101.05611 -108.22766 -98.731991 C -109.92823 -96.407876 -112.16747 -94.50901 -114.94508 -93.035181 C -111.43056 -91.334609 -108.68152 -89.350519 -106.69752 -87.08309 C -104.65683 -84.81566 -103.6362 -81.896169 -103.6362 -78.324968 C -103.6362 -73.166566 -105.50701 -69.057034 -109.24827 -65.996005 C -112.98952 -62.991661 -118.03446 -61.489303 -124.38326 -61.489303 C -131.3556 -61.489303 -136.74092 -62.878373 -140.53886 -65.655974 C -144.28012 -68.433575 -146.15041 -72.401238 -146.15041 -77.55964 C -146.15041 -80.223869 -145.30023 -82.86014 -143.59966 -85.467684 C -141.89908 -88.131914 -139.51849 -90.483931 -136.45746 -92.524618 C -139.00832 -93.941761 -140.99241 -95.642631 -142.40955 -97.626632 C -143.82669 -99.610633 -144.535 -102.07646 -144.535 -105.02411 C -144.535 -109.55897 -142.778 -113.15871 -139.26349 -115.82294 C -135.74897 -118.48717 -131.0439 -119.81908 -125.14859 -119.81908 z M -12.315681 -119.73381 C -6.4770499 -119.73381 -1.8286252 -118.28861 1.6292046 -115.39764 C 5.0870344 -112.56335 6.8159681 -108.56711 6.8159681 -103.40871 C 6.8159681 -98.873849 5.0870344 -94.026912 1.6292046 -88.86851 C -1.8286252 -83.766794 -7.5257389 -77.616529 -15.461742 -70.41744 L 7.4112806 -70.41744 L 7.4112806 -62.084615 L -31.106782 -62.084615 L -31.106782 -67.016097 C -24.814665 -73.081471 -19.911601 -78.268272 -16.397085 -82.576388 C -12.88257 -86.884504 -10.359587 -90.852684 -8.8290718 -94.480571 C -7.2418712 -98.108458 -6.4483385 -101.84955 -6.4483385 -105.70418 C -6.4483385 -111.82623 -8.4890725 -114.88759 -12.570445 -114.88759 C -14.384389 -114.88759 -15.858166 -114.0369 -16.991881 -112.33633 C -18.125596 -110.69244 -18.692552 -108.65171 -18.692552 -106.21422 C -18.692552 -104.51365 -18.097532 -102.89852 -16.907132 -101.36801 C -17.870789 -100.46103 -18.976122 -99.752209 -20.223208 -99.242037 C -21.413609 -98.731866 -22.604166 -98.476709 -23.794567 -98.476709 C -25.835253 -98.476709 -27.535606 -99.10031 -28.896064 -100.3474 C -30.256522 -101.65117 -30.936766 -103.52197 -30.936766 -105.95946 C -30.936766 -108.567 -30.171297 -110.91953 -28.640782 -113.01691 C -27.110268 -115.11428 -24.956246 -116.75799 -22.178645 -117.94839 C -19.344358 -119.13879 -16.056939 -119.73381 -12.315681 -119.73381 z M -68.264204 -119.05375 L -64.012784 -118.969 C -58.004096 -118.85563 -54.829965 -118.79847 -54.489851 -118.79847 L -42.415652 -118.969 L -39.949653 -117.18306 L -40.714981 -110.72092 L -61.802066 -110.72092 L -62.992691 -96.521273 C -60.045033 -97.258188 -57.380698 -97.626632 -54.999897 -97.626632 C -49.388009 -97.626632 -44.824809 -96.124274 -41.310293 -93.11993 C -37.739092 -90.172272 -35.953514 -85.836165 -35.953514 -80.110905 C -35.953514 -76.539704 -36.803691 -73.336993 -38.504263 -70.502706 C -40.148149 -67.66842 -42.528747 -65.429173 -45.646463 -63.785287 C -48.764178 -62.198086 -52.449138 -61.404554 -56.700568 -61.404554 C -60.158398 -61.404554 -63.304465 -61.886286 -66.138752 -62.849943 C -68.916353 -63.813601 -71.098439 -65.14551 -72.685639 -66.846082 C -74.27284 -68.60334 -75.066372 -70.559366 -75.066372 -72.713424 C -75.066372 -74.980853 -74.443288 -76.709787 -73.196202 -77.900188 C -71.949116 -79.147274 -70.418178 -79.770358 -68.604235 -79.770358 C -67.583891 -79.770358 -66.563783 -79.572362 -65.543439 -79.175562 C -64.46641 -78.778762 -63.502946 -78.211805 -62.65266 -77.474891 C -63.162831 -76.28449 -63.417471 -75.037289 -63.417471 -73.733517 C -63.417471 -71.862888 -62.879095 -70.332466 -61.802066 -69.142066 C -60.668351 -67.951665 -58.967998 -67.356645 -56.700568 -67.356645 C -51.598852 -67.356645 -49.047805 -71.608045 -49.047805 -80.110905 C -49.047805 -84.135593 -49.841338 -87.054567 -51.428539 -88.86851 C -53.015739 -90.73914 -55.141698 -91.674541 -57.805927 -91.674541 C -59.449814 -91.674541 -61.206811 -91.36274 -63.07744 -90.739197 C -64.948069 -90.115654 -66.790291 -89.236897 -68.604235 -88.103182 L -73.280952 -92.609884 L -71.070234 -116.75776 L -68.264204 -119.05375 z M -125.14859 -113.78224 C -127.41602 -113.78224 -129.20159 -113.04535 -130.50537 -111.57152 C -131.80914 -110.15437 -132.4608 -108.22693 -132.4608 -105.78944 C -132.4608 -103.63538 -131.63921 -101.84981 -129.99532 -100.43266 C -128.29475 -99.072205 -125.82892 -97.711715 -122.59784 -96.351258 C -121.18069 -97.314915 -120.04678 -98.646824 -119.1965 -100.3474 C -118.34621 -102.04797 -117.92112 -103.86213 -117.92112 -105.78944 C -117.92112 -108.22693 -118.60137 -110.15437 -119.96182 -111.57152 C -121.2656 -113.04535 -122.99453 -113.78224 -125.14859 -113.78224 z M -88.585961 -101.28274 C -86.60196 -101.28274 -85.128183 -100.68772 -84.164525 -99.497319 C -83.144182 -98.363604 -82.634386 -96.776539 -82.634386 -94.735852 C -82.634386 -92.695166 -83.144182 -91.107584 -84.164525 -89.973869 C -85.128183 -88.840154 -86.60196 -88.273198 -88.585961 -88.273198 C -90.569961 -88.273198 -92.072319 -88.840154 -93.092662 -89.973869 C -94.05632 -91.16427 -94.538052 -92.751852 -94.538052 -94.735852 C -94.538052 -96.833225 -94.05632 -98.448354 -93.092662 -99.582068 C -92.072319 -100.71578 -90.569961 -101.28274 -88.585961 -101.28274 z M -128.63468 -89.038526 C -130.33525 -87.678068 -131.58245 -86.119583 -132.37605 -84.362325 C -133.16965 -82.605068 -133.56616 -80.50769 -133.56616 -78.070203 C -133.56616 -74.725745 -132.74456 -72.089474 -131.10068 -70.162159 C -129.45679 -68.291529 -127.21755 -67.356645 -124.38326 -67.356645 C -121.60566 -67.356645 -119.45164 -68.291529 -117.92112 -70.162159 C -116.33392 -72.032788 -115.54039 -74.640479 -115.54039 -77.984937 C -115.54039 -79.855566 -116.13541 -81.442631 -117.32581 -82.746403 C -118.45952 -84.106861 -119.90524 -85.212194 -121.66249 -86.06248 C -123.41975 -86.969452 -125.74371 -87.961497 -128.63468 -89.038526 z M -88.585961 -74.498845 C -86.60196 -74.498845 -85.128183 -73.903824 -84.164525 -72.713424 C -83.144182 -71.579709 -82.634386 -69.992127 -82.634386 -67.951441 C -82.634386 -65.910754 -83.144182 -64.323689 -84.164525 -63.189974 C -85.128183 -62.05626 -86.60196 -61.489303 -88.585961 -61.489303 C -90.569961 -61.489303 -92.072319 -62.05626 -93.092662 -63.189974 C -94.05632 -64.380375 -94.538052 -65.96744 -94.538052 -67.951441 C -94.538052 -70.048813 -94.05632 -71.664459 -93.092662 -72.798173 C -92.072319 -73.931888 -90.569961 -74.498845 -88.585961 -74.498845 z " /></g></svg>
