<?xml version="1.0" encoding="UTF-8" standalone="no"?>
<!-- Created with Inkscape (http://www.inkscape.org/) -->

<svg
   width="172.6701mm"
   height="172.6701mm"
   viewBox="0 0 172.6701 172.6701"
   version="1.1"
   id="svg1"
   xml:space="preserve"
   xmlns="http://www.w3.org/2000/svg"
   xmlns:svg="http://www.w3.org/2000/svg"><defs
     id="defs1" /><g
     id="layer1"
     transform="translate(157.25102,198.81012)"><path
       id="path5"
       style="fill:#ffffff;fill-opacity:1;stroke-width:0.805188;stroke-linecap:round;stroke-linejoin:round"
       d="M -2.0863309 -198.17657 L -10.088943 -183.11289 L -10.930235 -165.68398 L -19.198981 -165.68398 L -11.423229 -155.47426 L -12.166336 -140.07934 C -28.353216 -157.12094 -50.823548 -166.77435 -74.327399 -166.78417 C -103.64471 -166.77397 -130.92652 -151.79225 -146.66717 -127.05894 L -157.25102 -127.05894 L -149.61996 -115.86014 L -157.25102 -26.140039 L -8.5138455 -26.140039 L 15.419061 -26.140039 L 8.0799737 -154.80195 L 15.419061 -165.68398 L 7.4593397 -165.68398 L 6.4490654 -183.39297 L -2.0863309 -198.17657 z M -83.43072 -192.21621 C -85.584619 -189.65499 -86.77489 -186.4211 -86.795372 -183.07465 C -86.842092 -175.15518 -80.459903 -168.69733 -72.540428 -168.65072 C -64.621155 -168.60402 -58.163395 -174.98588 -58.116503 -182.90515 C -58.102813 -186.26049 -59.266203 -189.5144 -61.404157 -192.10045 C -60.83125 -190.6836 -60.536835 -189.16959 -60.537027 -187.64129 C -60.575787 -181.07411 -65.930869 -175.78172 -72.498054 -175.82031 C -79.065241 -175.85911 -84.357627 -181.21415 -84.319038 -187.78134 C -84.309338 -189.30285 -84.007827 -190.80837 -83.43072 -192.21621 z M -125.19096 -119.81908 C -119.23896 -119.81908 -114.50583 -118.54381 -110.99131 -115.99295 C -107.4768 -113.44209 -105.71928 -110.01229 -105.71928 -105.70418 C -105.71928 -103.38006 -106.56946 -101.05611 -108.27003 -98.731991 C -109.9706 -96.407876 -112.20985 -94.50901 -114.98745 -93.035181 C -111.47293 -91.334609 -108.72389 -89.350519 -106.73989 -87.08309 C -104.6992 -84.81566 -103.67858 -81.896169 -103.67858 -78.324968 C -103.67858 -73.166566 -105.54938 -69.057034 -109.29064 -65.996005 C -113.0319 -62.991661 -118.07683 -61.489303 -124.42563 -61.489303 C -131.39798 -61.489303 -136.78329 -62.878373 -140.58124 -65.655974 C -144.32249 -68.433575 -146.1933 -72.401238 -146.1933 -77.55964 C -146.1933 -80.223869 -145.3426 -82.86014 -143.64203 -85.467684 C -141.94146 -88.131914 -139.56086 -90.483931 -136.49983 -92.524618 C -139.05069 -93.941761 -141.03478 -95.642631 -142.45192 -97.626632 C -143.86907 -99.610633 -144.57737 -102.07646 -144.57737 -105.02411 C -144.57737 -109.55897 -142.82038 -113.15871 -139.30586 -115.82294 C -135.79135 -118.48717 -131.08628 -119.81908 -125.19096 -119.81908 z M -12.698086 -119.73381 C -9.0135135 -119.73381 -5.7541585 -119.11073 -2.9198717 -117.86364 C -0.085584972 -116.67324 2.125081 -114.97237 3.7122816 -112.76163 C 5.2994822 -110.60757 6.0930148 -108.11368 6.0930148 -105.27939 C 6.0930148 -102.10499 5.1581306 -99.384015 3.2875013 -97.116586 C 1.4168721 -94.849156 -1.3607506 -93.120223 -5.0453234 -91.929822 C -0.39709311 -90.909479 2.8622619 -89.237189 4.7328911 -86.913074 C 6.6035204 -84.588959 7.5389214 -81.442892 7.5389214 -77.474891 C 7.5389214 -74.017061 6.4902324 -71.069506 4.3928602 -68.632019 C 2.3521737 -66.194533 -0.31216094 -64.380375 -3.5999336 -63.189974 C -6.8877062 -61.999574 -10.28893 -61.404554 -13.803445 -61.404554 C -18.905161 -61.404554 -23.241786 -62.453243 -26.812987 -64.550615 C -30.327503 -66.647987 -32.0845 -69.510317 -32.0845 -73.138204 C -32.0845 -75.235577 -31.460899 -76.851222 -30.213813 -77.984937 C -28.966727 -79.175337 -27.408242 -79.770358 -25.537613 -79.770358 C -23.610298 -79.770358 -21.654271 -79.005405 -19.67027 -77.474891 C -20.180442 -76.397862 -20.435598 -75.094016 -20.435598 -73.563501 C -20.435598 -71.749558 -19.897222 -70.275781 -18.820193 -69.142066 C -17.686478 -68.008351 -16.014189 -67.441394 -13.803445 -67.441394 C -8.9284719 -67.441394 -6.49123 -70.814037 -6.49123 -77.55964 C -6.49123 -81.244213 -7.6812706 -84.10706 -10.062071 -86.147746 C -12.386187 -88.188433 -15.702186 -89.208541 -20.010301 -89.208541 L -20.010301 -94.480571 C -11.677498 -95.1608 -7.5113227 -98.760535 -7.5113227 -105.27939 C -7.5113227 -108.56717 -8.0216354 -110.97583 -9.0419787 -112.50634 C -10.062322 -114.09354 -11.450875 -114.88759 -13.208133 -114.88759 C -15.305505 -114.88759 -16.89257 -114.15071 -17.969599 -112.67688 C -18.989942 -111.20305 -19.500255 -109.41747 -19.500255 -107.3201 C -19.500255 -105.44947 -19.103747 -103.77718 -18.310147 -102.30335 C -19.897347 -100.60278 -21.938081 -99.752084 -24.432254 -99.752084 C -26.699683 -99.752084 -28.45668 -100.43233 -29.703767 -101.79279 C -30.950853 -103.15324 -31.574453 -104.91076 -31.574453 -107.06482 C -31.574453 -109.8991 -30.610989 -112.25164 -28.683674 -114.12227 C -26.699673 -116.04958 -24.261914 -117.46671 -21.370942 -118.37369 C -18.423284 -119.28066 -15.532373 -119.73381 -12.698086 -119.73381 z M -68.306578 -119.05375 L -64.055158 -118.969 C -58.04647 -118.85563 -54.87234 -118.79847 -54.532225 -118.79847 L -42.458027 -118.969 L -39.992027 -117.18306 L -40.757355 -110.72092 L -61.84444 -110.72092 L -63.035065 -96.521273 C -60.087407 -97.258188 -57.423073 -97.626632 -55.042272 -97.626632 C -49.430384 -97.626632 -44.867184 -96.124274 -41.352668 -93.11993 C -37.781467 -90.172272 -35.995889 -85.836165 -35.995889 -80.110905 C -35.995889 -76.539704 -36.846066 -73.336993 -38.546638 -70.502706 C -40.190524 -67.66842 -42.571639 -65.429173 -45.689354 -63.785287 C -48.80707 -62.198086 -52.491513 -61.404554 -56.742943 -61.404554 C -60.200773 -61.404554 -63.34684 -61.886286 -66.181127 -62.849943 C -68.958728 -63.813601 -71.14133 -65.14551 -72.728531 -66.846082 C -74.315731 -68.60334 -75.109264 -70.559366 -75.109264 -72.713424 C -75.109264 -74.980853 -74.485663 -76.709787 -73.238577 -77.900188 C -71.991491 -79.147274 -70.461069 -79.770358 -68.647126 -79.770358 C -67.626783 -79.770358 -66.606157 -79.572362 -65.585814 -79.175562 C -64.508785 -78.778762 -63.545321 -78.211805 -62.695034 -77.474891 C -63.205206 -76.28449 -63.460362 -75.037289 -63.460362 -73.733517 C -63.460362 -71.862888 -62.921469 -70.332466 -61.84444 -69.142066 C -60.710726 -67.951665 -59.010372 -67.356645 -56.742943 -67.356645 C -51.641227 -67.356645 -49.09018 -71.608045 -49.09018 -80.110905 C -49.09018 -84.135593 -49.883713 -87.054567 -51.470913 -88.86851 C -53.058114 -90.73914 -55.184072 -91.674541 -57.848302 -91.674541 C -59.492188 -91.674541 -61.249186 -91.36274 -63.119815 -90.739197 C -64.990444 -90.115654 -66.833182 -89.236897 -68.647126 -88.103182 L -73.323326 -92.609884 L -71.112609 -116.75776 L -68.306578 -119.05375 z M -125.19096 -113.78224 C -127.45839 -113.78224 -129.24397 -113.04535 -130.54774 -111.57152 C -131.85151 -110.15437 -132.50369 -108.22693 -132.50369 -105.78944 C -132.50369 -103.63538 -131.68158 -101.84981 -130.03769 -100.43266 C -128.33712 -99.072205 -125.8713 -97.711715 -122.64021 -96.351258 C -121.22307 -97.314915 -120.08916 -98.646824 -119.23887 -100.3474 C -118.38858 -102.04797 -117.9635 -103.86213 -117.9635 -105.78944 C -117.9635 -108.22693 -118.64374 -110.15437 -120.0042 -111.57152 C -121.30797 -113.04535 -123.0369 -113.78224 -125.19096 -113.78224 z M -88.628852 -101.28274 C -86.644851 -101.28274 -85.171074 -100.68772 -84.207416 -99.497319 C -83.187073 -98.363604 -82.676761 -96.776539 -82.676761 -94.735852 C -82.676761 -92.695166 -83.187073 -91.107584 -84.207416 -89.973869 C -85.171074 -88.840154 -86.644851 -88.273198 -88.628852 -88.273198 C -90.612853 -88.273198 -92.114694 -88.840154 -93.135037 -89.973869 C -94.098694 -91.16427 -94.580944 -92.751852 -94.580944 -94.735852 C -94.580944 -96.833225 -94.098694 -98.448354 -93.135037 -99.582068 C -92.114694 -100.71578 -90.612853 -101.28274 -88.628852 -101.28274 z M -128.67705 -89.038526 C -130.37763 -87.678068 -131.62483 -86.119583 -132.41843 -84.362325 C -133.21203 -82.605068 -133.60905 -80.50769 -133.60905 -78.070203 C -133.60905 -74.725745 -132.78694 -72.089474 -131.14305 -70.162159 C -129.49917 -68.291529 -127.25992 -67.356645 -124.42563 -67.356645 C -121.64803 -67.356645 -119.49401 -68.291529 -117.9635 -70.162159 C -116.3763 -72.032788 -115.58276 -74.640479 -115.58276 -77.984937 C -115.58276 -79.855566 -116.17778 -81.442631 -117.36818 -82.746403 C -118.5019 -84.106861 -119.94761 -85.212194 -121.70487 -86.06248 C -123.46213 -86.969452 -125.78608 -87.961497 -128.67705 -89.038526 z M -88.628852 -74.498845 C -86.644851 -74.498845 -85.171074 -73.903824 -84.207416 -72.713424 C -83.187073 -71.579709 -82.676761 -69.992127 -82.676761 -67.951441 C -82.676761 -65.910754 -83.187073 -64.323689 -84.207416 -63.189974 C -85.171074 -62.05626 -86.644851 -61.489303 -88.628852 -61.489303 C -90.612853 -61.489303 -92.114694 -62.05626 -93.135037 -63.189974 C -94.098694 -64.380375 -94.580944 -65.96744 -94.580944 -67.951441 C -94.580944 -70.048813 -94.098694 -71.664459 -93.135037 -72.798173 C -92.114694 -73.931888 -90.612853 -74.498845 -88.628852 -74.498845 z " /></g></svg>
