<?xml version="1.0" encoding="UTF-8" standalone="no"?>
<!-- Created with Inkscape (http://www.inkscape.org/) -->

<svg
   width="172.6701mm"
   height="172.6701mm"
   viewBox="0 0 172.6701 172.6701"
   version="1.1"
   id="svg1"
   xml:space="preserve"
   xmlns="http://www.w3.org/2000/svg"
   xmlns:svg="http://www.w3.org/2000/svg"><defs
     id="defs1" /><g
     id="layer1"
     transform="translate(157.25102,198.81012)"><path
       id="path5"
       style="fill:#ffffff;fill-opacity:1;stroke-width:0.805188;stroke-linecap:round;stroke-linejoin:round"
       d="M -2.0863309 -198.17657 L -10.088943 -183.11289 L -10.930235 -165.68398 L -19.198981 -165.68398 L -11.423229 -155.47426 L -12.166336 -140.07934 C -28.353216 -157.12094 -50.823548 -166.77435 -74.327399 -166.78417 C -103.64471 -166.77397 -130.92652 -151.79225 -146.66717 -127.05894 L -157.25102 -127.05894 L -149.61996 -115.86014 L -157.25102 -26.140039 L -8.5138455 -26.140039 L 15.419061 -26.140039 L 8.0799737 -154.80195 L 15.419061 -165.68398 L 7.4593397 -165.68398 L 6.4490654 -183.39297 L -2.0863309 -198.17657 z M -83.43072 -192.21621 C -85.584619 -189.65499 -86.77489 -186.4211 -86.795372 -183.07465 C -86.842092 -175.15518 -80.459903 -168.69733 -72.540428 -168.65072 C -64.621155 -168.60402 -58.163395 -174.98588 -58.116503 -182.90515 C -58.102813 -186.26049 -59.266203 -189.5144 -61.404157 -192.10045 C -60.83125 -190.6836 -60.536835 -189.16959 -60.537027 -187.64129 C -60.575787 -181.07411 -65.930869 -175.78172 -72.498054 -175.82031 C -79.065241 -175.85911 -84.357627 -181.21415 -84.319038 -187.78134 C -84.309338 -189.30285 -84.007827 -190.80837 -83.43072 -192.21621 z M -125.70101 -119.81908 C -119.74901 -119.81908 -115.01587 -118.54381 -111.50136 -115.99295 C -107.98684 -113.44209 -106.22984 -110.01229 -106.22984 -105.70418 C -106.22984 -103.38006 -107.08002 -101.05611 -108.78059 -98.731991 C -110.48117 -96.407876 -112.72041 -94.50901 -115.49801 -93.035181 C -111.9835 -91.334609 -109.23394 -89.350519 -107.24994 -87.08309 C -105.20925 -84.81566 -104.18914 -81.896169 -104.18914 -78.324968 C -104.18914 -73.166566 -106.05943 -69.057034 -109.80069 -65.996005 C -113.54194 -62.991661 -118.58688 -61.489303 -124.93568 -61.489303 C -131.90803 -61.489303 -137.29334 -62.878373 -141.09128 -65.655974 C -144.83254 -68.433575 -146.70334 -72.401238 -146.70334 -77.55964 C -146.70334 -80.223869 -145.85317 -82.86014 -144.15259 -85.467684 C -142.45202 -88.131914 -140.07091 -90.483931 -137.00988 -92.524618 C -139.56074 -93.941761 -141.54483 -95.642631 -142.96197 -97.626632 C -144.37911 -99.610633 -145.08794 -102.07646 -145.08794 -105.02411 C -145.08794 -109.55897 -143.33042 -113.15871 -139.81591 -115.82294 C -136.30139 -118.48717 -131.59632 -119.81908 -125.70101 -119.81908 z M -68.817141 -119.05375 L -64.565721 -118.969 C -58.557033 -118.85563 -55.382386 -118.79847 -55.042272 -118.79847 L -42.968073 -118.969 L -40.502591 -117.18306 L -41.267919 -110.72092 L -62.355004 -110.72092 L -63.545112 -96.521273 C -60.597454 -97.258188 -57.933119 -97.626632 -55.552318 -97.626632 C -49.94043 -97.626632 -45.37723 -96.124274 -41.862714 -93.11993 C -38.291513 -90.172272 -36.505935 -85.836165 -36.505935 -80.110905 C -36.505935 -76.539704 -37.356629 -73.336993 -39.057201 -70.502706 C -40.701087 -67.66842 -43.081685 -65.429173 -46.199401 -63.785287 C -49.317116 -62.198086 -53.001559 -61.404554 -57.252989 -61.404554 C -60.710819 -61.404554 -63.856886 -61.886286 -66.691173 -62.849943 C -69.468774 -63.813601 -71.651376 -65.14551 -73.238577 -66.846082 C -74.825778 -68.60334 -75.61931 -70.559366 -75.61931 -72.713424 C -75.61931 -74.980853 -74.99571 -76.709787 -73.748623 -77.900188 C -72.501537 -79.147274 -70.971116 -79.770358 -69.157172 -79.770358 C -68.136829 -79.770358 -67.116204 -79.572362 -66.09586 -79.175562 C -65.018832 -78.778762 -64.055367 -78.211805 -63.205081 -77.474891 C -63.715252 -76.28449 -63.970409 -75.037289 -63.970409 -73.733517 C -63.970409 -71.862888 -63.432033 -70.332466 -62.355004 -69.142066 C -61.221289 -67.951665 -59.520419 -67.356645 -57.252989 -67.356645 C -52.151273 -67.356645 -49.600743 -71.608045 -49.600743 -80.110905 C -49.600743 -84.135593 -50.394276 -87.054567 -51.981477 -88.86851 C -53.568677 -90.73914 -55.694119 -91.674541 -58.358348 -91.674541 C -60.002235 -91.674541 -61.759749 -91.36274 -63.630378 -90.739197 C -65.501007 -90.115654 -67.343229 -89.236897 -69.157172 -88.103182 L -73.833889 -92.609884 L -71.623172 -116.75776 L -68.817141 -119.05375 z M -24.602269 -119.05375 L -20.350849 -118.969 C -14.342161 -118.85563 -11.167514 -118.79847 -10.827399 -118.79847 L 1.246799 -118.969 L 3.7122816 -117.18306 L 2.9469536 -110.72092 L -18.140131 -110.72092 L -19.33024 -96.521273 C -16.382581 -97.258188 -13.718247 -97.626632 -11.337446 -97.626632 C -5.725558 -97.626632 -1.1623577 -96.124274 2.3521579 -93.11993 C 5.9233592 -90.172272 7.7089369 -85.836165 7.7089369 -80.110905 C 7.7089369 -76.539704 6.8582435 -73.336993 5.1576714 -70.502706 C 3.5137851 -67.66842 1.1331871 -65.429173 -1.9845283 -63.785287 C -5.1022437 -62.198086 -8.786687 -61.404554 -13.038117 -61.404554 C -16.495947 -61.404554 -19.642014 -61.886286 -22.476301 -62.849943 C -25.253902 -63.813601 -27.436504 -65.14551 -29.023705 -66.846082 C -30.610905 -68.60334 -31.404438 -70.559366 -31.404438 -72.713424 C -31.404438 -74.980853 -30.780837 -76.709787 -29.533751 -77.900188 C -28.286665 -79.147274 -26.756244 -79.770358 -24.9423 -79.770358 C -23.921957 -79.770358 -22.901331 -79.572362 -21.880988 -79.175562 C -20.803959 -78.778762 -19.840495 -78.211805 -18.990209 -77.474891 C -19.50038 -76.28449 -19.755537 -75.037289 -19.755537 -73.733517 C -19.755537 -71.862888 -19.21716 -70.332466 -18.140131 -69.142066 C -17.006417 -67.951665 -15.305547 -67.356645 -13.038117 -67.356645 C -7.936401 -67.356645 -5.3858711 -71.608045 -5.3858711 -80.110905 C -5.3858711 -84.135593 -6.1794037 -87.054567 -7.7666043 -88.86851 C -9.3538049 -90.73914 -11.479247 -91.674541 -14.143476 -91.674541 C -15.787362 -91.674541 -17.544876 -91.36274 -19.415506 -90.739197 C -21.286135 -90.115654 -23.128357 -89.236897 -24.9423 -88.103182 L -29.619017 -92.609884 L -27.408299 -116.75776 L -24.602269 -119.05375 z M -125.70101 -113.78224 C -127.96844 -113.78224 -129.75401 -113.04535 -131.05779 -111.57152 C -132.36156 -110.15437 -133.01374 -108.22693 -133.01374 -105.78944 C -133.01374 -103.63538 -132.19163 -101.84981 -130.54774 -100.43266 C -128.84717 -99.072205 -126.38135 -97.711715 -123.15026 -96.351258 C -121.73312 -97.314915 -120.59972 -98.646824 -119.74943 -100.3474 C -118.89915 -102.04797 -118.47354 -103.86213 -118.47354 -105.78944 C -118.47354 -108.22693 -119.15379 -110.15437 -120.51424 -111.57152 C -121.81802 -113.04535 -123.54695 -113.78224 -125.70101 -113.78224 z M -89.138898 -101.28274 C -87.154898 -101.28274 -85.68112 -100.68772 -84.717463 -99.497319 C -83.69712 -98.363604 -83.186807 -96.776539 -83.186807 -94.735852 C -83.186807 -92.695166 -83.69712 -91.107584 -84.717463 -89.973869 C -85.68112 -88.840154 -87.154898 -88.273198 -89.138898 -88.273198 C -91.122899 -88.273198 -92.625257 -88.840154 -93.6456 -89.973869 C -94.609258 -91.16427 -95.09099 -92.751852 -95.09099 -94.735852 C -95.09099 -96.833225 -94.609258 -98.448354 -93.6456 -99.582068 C -92.625257 -100.71578 -91.122899 -101.28274 -89.138898 -101.28274 z M -129.18762 -89.038526 C -130.88819 -87.678068 -132.13487 -86.119583 -132.92847 -84.362325 C -133.72207 -82.605068 -134.1191 -80.50769 -134.1191 -78.070203 C -134.1191 -74.725745 -133.29699 -72.089474 -131.6531 -70.162159 C -130.00921 -68.291529 -127.76997 -67.356645 -124.93568 -67.356645 C -122.15808 -67.356645 -120.00406 -68.291529 -118.47354 -70.162159 C -116.88634 -72.032788 -116.09281 -74.640479 -116.09281 -77.984937 C -116.09281 -79.855566 -116.68835 -81.442631 -117.87875 -82.746403 C -119.01246 -84.106861 -120.45766 -85.212194 -122.21492 -86.06248 C -123.97217 -86.969452 -126.29664 -87.961497 -129.18762 -89.038526 z M -89.138898 -74.498845 C -87.154898 -74.498845 -85.68112 -73.903824 -84.717463 -72.713424 C -83.69712 -71.579709 -83.186807 -69.992127 -83.186807 -67.951441 C -83.186807 -65.910754 -83.69712 -64.323689 -84.717463 -63.189974 C -85.68112 -62.05626 -87.154898 -61.489303 -89.138898 -61.489303 C -91.122899 -61.489303 -92.625257 -62.05626 -93.6456 -63.189974 C -94.609258 -64.380375 -95.09099 -65.96744 -95.09099 -67.951441 C -95.09099 -70.048813 -94.609258 -71.664459 -93.6456 -72.798173 C -92.625257 -73.931888 -91.122899 -74.498845 -89.138898 -74.498845 z " /></g></svg>
