<?xml version="1.0" encoding="UTF-8" standalone="no"?>
<!-- Created with Inkscape (http://www.inkscape.org/) -->

<svg
   width="172.6701mm"
   height="172.6701mm"
   viewBox="0 0 172.6701 172.6701"
   version="1.1"
   id="svg1"
   xml:space="preserve"
   xmlns="http://www.w3.org/2000/svg"
   xmlns:svg="http://www.w3.org/2000/svg"><defs
     id="defs1" /><g
     id="layer1"
     transform="translate(157.25102,198.81012)"><path
       id="path5"
       style="fill:#ffffff;fill-opacity:1;stroke-width:0.805188;stroke-linecap:round;stroke-linejoin:round"
       d="M -2.0863309 -198.17657 L -10.088943 -183.11289 L -10.930235 -165.68398 L -19.198981 -165.68398 L -11.423229 -155.47426 L -12.166336 -140.07934 C -28.353216 -157.12094 -50.823548 -166.77435 -74.327399 -166.78417 C -103.64471 -166.77397 -130.92652 -151.79225 -146.66717 -127.05894 L -157.25102 -127.05894 L -149.61996 -115.86014 L -157.25102 -26.140039 L -8.5138455 -26.140039 L 15.419061 -26.140039 L 8.0799737 -154.80195 L 15.419061 -165.68398 L 7.4593397 -165.68398 L 6.4490654 -183.39297 L -2.0863309 -198.17657 z M -83.43072 -192.21621 C -85.584619 -189.65499 -86.77489 -186.4211 -86.795372 -183.07465 C -86.842092 -175.15518 -80.459903 -168.69733 -72.540428 -168.65072 C -64.621155 -168.60402 -58.163395 -174.98588 -58.116503 -182.90515 C -58.102813 -186.26049 -59.266203 -189.5144 -61.404157 -192.10045 C -60.83125 -190.6836 -60.536835 -189.16959 -60.537027 -187.64129 C -60.575787 -181.07411 -65.930869 -175.78172 -72.498054 -175.82031 C -79.065241 -175.85911 -84.357627 -181.21415 -84.319038 -187.78134 C -84.309338 -189.30285 -84.007827 -190.80837 -83.43072 -192.21621 z M -124.59565 -119.81908 C -118.64365 -119.81908 -113.91051 -118.54381 -110.396 -115.99295 C -106.88148 -113.44209 -105.12449 -110.01229 -105.12449 -105.70418 C -105.12449 -103.38006 -105.97466 -101.05611 -107.67523 -98.731991 C -109.37581 -96.407876 -111.61454 -94.50901 -114.39214 -93.035181 C -110.87762 -91.334609 -108.12858 -89.350519 -106.14458 -87.08309 C -104.10389 -84.81566 -103.08378 -81.896169 -103.08378 -78.324968 C -103.08378 -73.166566 -104.95407 -69.057034 -108.69533 -65.996005 C -112.43659 -62.991661 -117.48152 -61.489303 -123.83032 -61.489303 C -130.80267 -61.489303 -136.18798 -62.878373 -139.98592 -65.655974 C -143.72718 -68.433575 -145.59798 -72.401238 -145.59798 -77.55964 C -145.59798 -80.223869 -144.74781 -82.86014 -143.04724 -85.467684 C -141.34666 -88.131914 -138.96555 -90.483931 -135.90452 -92.524618 C -138.45538 -93.941761 -140.43947 -95.642631 -141.85661 -97.626632 C -143.27375 -99.610633 -143.98206 -102.07646 -143.98206 -105.02411 C -143.98206 -109.55897 -142.22507 -113.15871 -138.71055 -115.82294 C -135.19603 -118.48717 -130.49097 -119.81908 -124.59565 -119.81908 z M -67.711783 -119.05375 L -63.460362 -118.969 C -57.451675 -118.85563 -54.277027 -118.79847 -53.936913 -118.79847 L -41.862714 -118.969 L -39.397232 -117.18306 L -40.16256 -110.72092 L -61.249645 -110.72092 L -62.439753 -96.521273 C -59.492095 -97.258188 -56.82776 -97.626632 -54.446959 -97.626632 C -48.835071 -97.626632 -44.271871 -96.124274 -40.757355 -93.11993 C -37.186154 -90.172272 -35.400576 -85.836165 -35.400576 -80.110905 C -35.400576 -76.539704 -36.25127 -73.336993 -37.951842 -70.502706 C -39.595728 -67.66842 -41.976326 -65.429173 -45.094042 -63.785287 C -48.211757 -62.198086 -51.8962 -61.404554 -56.147631 -61.404554 C -59.60546 -61.404554 -62.751527 -61.886286 -65.585814 -62.849943 C -68.363415 -63.813601 -70.546017 -65.14551 -72.133218 -66.846082 C -73.720419 -68.60334 -74.513951 -70.559366 -74.513951 -72.713424 C -74.513951 -74.980853 -73.890351 -76.709787 -72.643264 -77.900188 C -71.396178 -79.147274 -69.865757 -79.770358 -68.051813 -79.770358 C -67.03147 -79.770358 -66.010845 -79.572362 -64.990502 -79.175562 C -63.913473 -78.778762 -62.950008 -78.211805 -62.099722 -77.474891 C -62.609894 -76.28449 -62.86505 -75.037289 -62.86505 -73.733517 C -62.86505 -71.862888 -62.326674 -70.332466 -61.249645 -69.142066 C -60.11593 -67.951665 -58.41506 -67.356645 -56.147631 -67.356645 C -51.045914 -67.356645 -48.495384 -71.608045 -48.495384 -80.110905 C -48.495384 -84.135593 -49.288917 -87.054567 -50.876118 -88.86851 C -52.463318 -90.73914 -54.58876 -91.674541 -57.252989 -91.674541 C -58.896876 -91.674541 -60.65439 -91.36274 -62.525019 -90.739197 C -64.395648 -90.115654 -66.23787 -89.236897 -68.051813 -88.103182 L -72.728531 -92.609884 L -70.517296 -116.75776 L -67.711783 -119.05375 z M -30.299079 -118.88373 L -26.132408 -118.88373 C -23.97835 -118.82705 -19.273798 -118.79847 -12.018024 -118.79847 C -4.4788216 -118.79847 0.42475942 -118.82705 2.6921888 -118.88373 L 6.7735934 -118.88373 L 8.4742648 -115.22762 C 7.3972359 -113.52705 5.3565019 -109.84261 2.3521579 -104.17404 C -0.65218606 -98.505463 -3.4864527 -92.496548 -6.1506823 -86.147746 C -8.8149118 -79.798944 -10.147338 -74.838719 -10.147338 -71.267517 C -10.147338 -68.433231 -9.1552925 -66.307789 -7.1712918 -64.890646 C -9.0986068 -62.566531 -11.564429 -61.404554 -14.568773 -61.404554 C -17.346374 -61.404554 -19.500396 -62.169506 -21.030911 -63.700021 C -22.561426 -65.230536 -23.326895 -67.356494 -23.326895 -70.077409 C -23.326895 -73.478553 -22.504782 -77.077772 -20.860895 -80.875717 C -19.217009 -84.730347 -16.269455 -89.945728 -12.018024 -96.521273 L -1.9845283 -111.9963 L -21.370942 -111.9963 C -22.164542 -109.44544 -22.646274 -106.44124 -22.816332 -102.98341 C -23.836675 -102.81335 -24.885364 -102.72813 -25.962393 -102.72813 C -27.096108 -102.72813 -28.201441 -102.81335 -29.27847 -102.98341 L -31.659203 -117.60836 L -30.299079 -118.88373 z M -124.59565 -113.78224 C -126.86308 -113.78224 -128.64866 -113.04535 -129.95243 -111.57152 C -131.2562 -110.15437 -131.90838 -108.22693 -131.90838 -105.78944 C -131.90838 -103.63538 -131.08627 -101.84981 -129.44238 -100.43266 C -127.74181 -99.072205 -125.27599 -97.711715 -122.0449 -96.351258 C -120.62776 -97.314915 -119.49384 -98.646824 -118.64356 -100.3474 C -117.79327 -102.04797 -117.36818 -103.86213 -117.36818 -105.78944 C -117.36818 -108.22693 -118.04843 -110.15437 -119.40889 -111.57152 C -120.71266 -113.04535 -122.44159 -113.78224 -124.59565 -113.78224 z M -88.03354 -101.28274 C -86.049539 -101.28274 -84.575761 -100.68772 -83.612104 -99.497319 C -82.591761 -98.363604 -82.081448 -96.776539 -82.081448 -94.735852 C -82.081448 -92.695166 -82.591761 -91.107584 -83.612104 -89.973869 C -84.575761 -88.840154 -86.049539 -88.273198 -88.03354 -88.273198 C -90.01754 -88.273198 -91.519898 -88.840154 -92.540241 -89.973869 C -93.503899 -91.16427 -93.985631 -92.751852 -93.985631 -94.735852 C -93.985631 -96.833225 -93.503899 -98.448354 -92.540241 -99.582068 C -91.519898 -100.71578 -90.01754 -101.28274 -88.03354 -101.28274 z M -128.08174 -89.038526 C -129.78231 -87.678068 -131.02951 -86.119583 -131.82311 -84.362325 C -132.61672 -82.605068 -133.01374 -80.50769 -133.01374 -78.070203 C -133.01374 -74.725745 -132.19163 -72.089474 -130.54774 -70.162159 C -128.90385 -68.291529 -126.66461 -67.356645 -123.83032 -67.356645 C -121.05272 -67.356645 -118.8987 -68.291529 -117.36818 -70.162159 C -115.78098 -72.032788 -114.98745 -74.640479 -114.98745 -77.984937 C -114.98745 -79.855566 -115.58299 -81.442631 -116.77339 -82.746403 C -117.9071 -84.106861 -119.3523 -85.212194 -121.10956 -86.06248 C -122.86681 -86.969452 -125.19077 -87.961497 -128.08174 -89.038526 z M -88.03354 -74.498845 C -86.049539 -74.498845 -84.575761 -73.903824 -83.612104 -72.713424 C -82.591761 -71.579709 -82.081448 -69.992127 -82.081448 -67.951441 C -82.081448 -65.910754 -82.591761 -64.323689 -83.612104 -63.189974 C -84.575761 -62.05626 -86.049539 -61.489303 -88.03354 -61.489303 C -90.01754 -61.489303 -91.519898 -62.05626 -92.540241 -63.189974 C -93.503899 -64.380375 -93.985631 -65.96744 -93.985631 -67.951441 C -93.985631 -70.048813 -93.503899 -71.664459 -92.540241 -72.798173 C -91.519898 -73.931888 -90.01754 -74.498845 -88.03354 -74.498845 z " /></g></svg>
