<?xml version="1.0" encoding="UTF-8" standalone="no"?>
<!-- Created with Inkscape (http://www.inkscape.org/) -->

<svg
   width="172.6701mm"
   height="172.6701mm"
   viewBox="0 0 172.6701 172.6701"
   version="1.1"
   id="svg1"
   xml:space="preserve"
   xmlns="http://www.w3.org/2000/svg"
   xmlns:svg="http://www.w3.org/2000/svg"><defs
     id="defs1" /><g
     id="layer1"
     transform="translate(157.25102,198.81012)"><path
       id="path5"
       style="fill:#ffffff;fill-opacity:1;stroke-width:0.805188;stroke-linecap:round;stroke-linejoin:round"
       d="M -2.0863309 -198.17657 L -10.088943 -183.11289 L -10.930235 -165.68398 L -19.198981 -165.68398 L -11.423229 -155.47426 L -12.166336 -140.07934 C -28.353216 -157.12094 -50.823548 -166.77435 -74.327399 -166.78417 C -103.64471 -166.77397 -130.92652 -151.79225 -146.66717 -127.05894 L -157.25102 -127.05894 L -149.61996 -115.86014 L -157.25102 -26.140039 L -8.5138455 -26.140039 L 15.419061 -26.140039 L 8.0799737 -154.80195 L 15.419061 -165.68398 L 7.4593397 -165.68398 L 6.4490654 -183.39297 L -2.0863309 -198.17657 z M -83.43072 -192.21621 C -85.584619 -189.65499 -86.77489 -186.4211 -86.795372 -183.07465 C -86.842092 -175.15518 -80.459903 -168.69733 -72.540428 -168.65072 C -64.621155 -168.60402 -58.163395 -174.98588 -58.116503 -182.90515 C -58.102813 -186.26049 -59.266203 -189.5144 -61.404157 -192.10045 C -60.83125 -190.6836 -60.536835 -189.16959 -60.537027 -187.64129 C -60.575787 -181.07411 -65.930869 -175.78172 -72.498054 -175.82031 C -79.065241 -175.85911 -84.357627 -181.21415 -84.319038 -187.78134 C -84.309338 -189.30285 -84.007827 -190.80837 -83.43072 -192.21621 z M -127.23166 -119.81908 C -121.27966 -119.81908 -116.54653 -118.54381 -113.03201 -115.99295 C -109.5175 -113.44209 -107.75998 -110.01229 -107.75998 -105.70418 C -107.75998 -103.38006 -108.61016 -101.05611 -110.31073 -98.731991 C -112.0113 -96.407876 -114.25055 -94.50901 -117.02815 -93.035181 C -113.51364 -91.334609 -110.76459 -89.350519 -108.78059 -87.08309 C -106.73991 -84.81566 -105.71928 -81.896169 -105.71928 -78.324968 C -105.71928 -73.166566 -107.59008 -69.057034 -111.33134 -65.996005 C -115.0726 -62.991661 -120.11753 -61.489303 -126.46634 -61.489303 C -133.43868 -61.489303 -138.82399 -62.878373 -142.62194 -65.655974 C -146.3632 -68.433575 -148.234 -72.401238 -148.234 -77.55964 C -148.234 -80.223869 -147.38331 -82.86014 -145.68273 -85.467684 C -143.98216 -88.131914 -141.60156 -90.483931 -138.54053 -92.524618 C -141.09139 -93.941761 -143.07548 -95.642631 -144.49263 -97.626632 C -145.90977 -99.610633 -146.61808 -102.07646 -146.61808 -105.02411 C -146.61808 -109.55897 -144.86108 -113.15871 -141.34656 -115.82294 C -137.83205 -118.48717 -133.12698 -119.81908 -127.23166 -119.81908 z M -11.932758 -119.81908 C -5.9807561 -119.81908 -1.2476238 -118.54381 2.2668918 -115.99295 C 5.7814074 -113.44209 7.5389214 -110.01229 7.5389214 -105.70418 C 7.5389214 -103.38006 6.688228 -101.05611 4.9876559 -98.731991 C 3.2870839 -96.407876 1.0483543 -94.50901 -1.7292467 -93.035181 C 1.7852688 -91.334609 4.5343111 -89.350519 6.5183119 -87.08309 C 8.5589983 -84.81566 9.5796237 -81.896169 9.5796237 -78.324968 C 9.5796237 -73.166566 7.7088217 -69.057034 3.9675632 -65.996005 C 0.22630466 -62.991661 -4.818628 -61.489303 -11.16743 -61.489303 C -18.139776 -61.489303 -23.525089 -62.878373 -27.323033 -65.655974 C -31.064292 -68.433575 -32.935094 -72.401238 -32.935094 -77.55964 C -32.935094 -80.223869 -32.0844 -82.86014 -30.383828 -85.467684 C -28.683256 -88.131914 -26.302658 -90.483931 -23.241629 -92.524618 C -25.792487 -93.941761 -27.776577 -95.642631 -29.19372 -97.626632 C -30.610864 -99.610633 -31.319172 -102.07646 -31.319172 -105.02411 C -31.319172 -109.55897 -29.562175 -113.15871 -26.047659 -115.82294 C -22.533143 -118.48717 -17.828075 -119.81908 -11.932758 -119.81908 z M -70.347281 -119.05375 L -66.09586 -118.969 C -60.087173 -118.85563 -56.913042 -118.79847 -56.572928 -118.79847 L -44.498729 -118.969 L -42.03273 -117.18306 L -42.798058 -110.72092 L -63.885143 -110.72092 L -65.075768 -96.521273 C -62.128109 -97.258188 -59.463775 -97.626632 -57.082974 -97.626632 C -51.471086 -97.626632 -46.907886 -96.124274 -43.39337 -93.11993 C -39.822169 -90.172272 -38.036591 -85.836165 -38.036591 -80.110905 C -38.036591 -76.539704 -38.886768 -73.336993 -40.58734 -70.502706 C -42.231226 -67.66842 -44.612341 -65.429173 -47.730056 -63.785287 C -50.847772 -62.198086 -54.532215 -61.404554 -58.783645 -61.404554 C -62.241475 -61.404554 -65.387542 -61.886286 -68.221829 -62.849943 C -70.99943 -63.813601 -73.182032 -65.14551 -74.769233 -66.846082 C -76.356433 -68.60334 -77.149966 -70.559366 -77.149966 -72.713424 C -77.149966 -74.980853 -76.526365 -76.709787 -75.279279 -77.900188 C -74.032193 -79.147274 -72.501772 -79.770358 -70.687828 -79.770358 C -69.667485 -79.770358 -68.64686 -79.572362 -67.626516 -79.175562 C -66.549487 -78.778762 -65.586023 -78.211805 -64.735737 -77.474891 C -65.245908 -76.28449 -65.501065 -75.037289 -65.501065 -73.733517 C -65.501065 -71.862888 -64.962172 -70.332466 -63.885143 -69.142066 C -62.751428 -67.951665 -61.051075 -67.356645 -58.783645 -67.356645 C -53.681929 -67.356645 -51.130882 -71.608045 -51.130882 -80.110905 C -51.130882 -84.135593 -51.924415 -87.054567 -53.511616 -88.86851 C -55.098816 -90.73914 -57.224775 -91.674541 -59.889004 -91.674541 C -61.532891 -91.674541 -63.289888 -91.36274 -65.160517 -90.739197 C -67.031146 -90.115654 -68.873885 -89.236897 -70.687828 -88.103182 L -75.364029 -92.609884 L -73.153311 -116.75776 L -70.347281 -119.05375 z M -127.23166 -113.78224 C -129.49909 -113.78224 -131.28467 -113.04535 -132.58844 -111.57152 C -133.89221 -110.15437 -134.5444 -108.22693 -134.5444 -105.78944 C -134.5444 -103.63538 -133.72228 -101.84981 -132.0784 -100.43266 C -130.37782 -99.072205 -127.912 -97.711715 -124.68092 -96.351258 C -123.26377 -97.314915 -122.12986 -98.646824 -121.27957 -100.3474 C -120.42929 -102.04797 -120.0042 -103.86213 -120.0042 -105.78944 C -120.0042 -108.22693 -120.68444 -110.15437 -122.0449 -111.57152 C -123.34867 -113.04535 -125.07761 -113.78224 -127.23166 -113.78224 z M -11.932758 -113.78224 C -14.200188 -113.78224 -15.985765 -113.04535 -17.289537 -111.57152 C -18.593309 -110.15437 -19.24549 -108.22693 -19.24549 -105.78944 C -19.24549 -103.63538 -18.423377 -101.84981 -16.779491 -100.43266 C -15.078919 -99.072205 -12.613096 -97.711715 -9.3820096 -96.351258 C -7.9648662 -97.314915 -6.8309528 -98.646824 -5.9806668 -100.3474 C -5.1303808 -102.04797 -4.7052925 -103.86213 -4.7052925 -105.78944 C -4.7052925 -108.22693 -5.3855371 -110.15437 -6.7459948 -111.57152 C -8.0497667 -113.04535 -9.7787003 -113.78224 -11.932758 -113.78224 z M -90.669554 -101.28274 C -88.685554 -101.28274 -87.211776 -100.68772 -86.248119 -99.497319 C -85.227776 -98.363604 -84.717463 -96.776539 -84.717463 -94.735852 C -84.717463 -92.695166 -85.227776 -91.107584 -86.248119 -89.973869 C -87.211776 -88.840154 -88.685554 -88.273198 -90.669554 -88.273198 C -92.653555 -88.273198 -94.155396 -88.840154 -95.175739 -89.973869 C -96.139397 -91.16427 -96.621646 -92.751852 -96.621646 -94.735852 C -96.621646 -96.833225 -96.139397 -98.448354 -95.175739 -99.582068 C -94.155396 -100.71578 -92.653555 -101.28274 -90.669554 -101.28274 z M -130.71776 -89.038526 C -132.41833 -87.678068 -133.66553 -86.119583 -134.45913 -84.362325 C -135.25273 -82.605068 -135.64975 -80.50769 -135.64975 -78.070203 C -135.64975 -74.725745 -134.82764 -72.089474 -133.18376 -70.162159 C -131.53987 -68.291529 -129.30062 -67.356645 -126.46634 -67.356645 C -123.68873 -67.356645 -121.53471 -68.291529 -120.0042 -70.162159 C -118.417 -72.032788 -117.62346 -74.640479 -117.62346 -77.984937 C -117.62346 -79.855566 -118.21848 -81.442631 -119.40889 -82.746403 C -120.5426 -84.106861 -121.98831 -85.212194 -123.74557 -86.06248 C -125.50283 -86.969452 -127.82678 -87.961497 -130.71776 -89.038526 z M -15.41885 -89.038526 C -17.119422 -87.678068 -18.366624 -86.119583 -19.160224 -84.362325 C -19.953824 -82.605068 -20.350849 -80.50769 -20.350849 -78.070203 C -20.350849 -74.725745 -19.528736 -72.089474 -17.88485 -70.162159 C -16.240963 -68.291529 -14.001717 -67.356645 -11.16743 -67.356645 C -8.3898293 -67.356645 -6.2358073 -68.291529 -4.7052925 -70.162159 C -3.1180919 -72.032788 -2.3245592 -74.640479 -2.3245592 -77.984937 C -2.3245592 -79.855566 -2.9195795 -81.442631 -4.10998 -82.746403 C -5.2436947 -84.106861 -6.6894084 -85.212194 -8.4466662 -86.06248 C -10.203924 -86.969452 -12.527878 -87.961497 -15.41885 -89.038526 z M -90.669554 -74.498845 C -88.685554 -74.498845 -87.211776 -73.903824 -86.248119 -72.713424 C -85.227776 -71.579709 -84.717463 -69.992127 -84.717463 -67.951441 C -84.717463 -65.910754 -85.227776 -64.323689 -86.248119 -63.189974 C -87.211776 -62.05626 -88.685554 -61.489303 -90.669554 -61.489303 C -92.653555 -61.489303 -94.155396 -62.05626 -95.175739 -63.189974 C -96.139397 -64.380375 -96.621646 -65.96744 -96.621646 -67.951441 C -96.621646 -70.048813 -96.139397 -71.664459 -95.175739 -72.798173 C -94.155396 -73.931888 -92.653555 -74.498845 -90.669554 -74.498845 z " /></g></svg>
