<?xml version="1.0" encoding="UTF-8" standalone="no"?>
<!-- Created with Inkscape (http://www.inkscape.org/) -->

<svg
   width="172.6701mm"
   height="172.6701mm"
   viewBox="0 0 172.6701 172.6701"
   version="1.1"
   id="svg1"
   xml:space="preserve"
   xmlns="http://www.w3.org/2000/svg"
   xmlns:svg="http://www.w3.org/2000/svg"><defs
     id="defs1" /><g
     id="layer1"
     transform="translate(157.25102,198.81012)"><path
       id="path5"
       style="fill:#ffffff;fill-opacity:1;stroke-width:0.805188;stroke-linecap:round;stroke-linejoin:round"
       d="M -2.0863309 -198.17657 L -10.088943 -183.11289 L -10.930235 -165.68398 L -19.198981 -165.68398 L -11.423229 -155.47426 L -12.166336 -140.07934 C -28.353216 -157.12094 -50.823548 -166.77435 -74.327399 -166.78417 C -103.64471 -166.77397 -130.92652 -151.79225 -146.66717 -127.05894 L -157.25102 -127.05894 L -149.61996 -115.86014 L -157.25102 -26.140039 L -8.5138455 -26.140039 L 15.419061 -26.140039 L 8.0799737 -154.80195 L 15.419061 -165.68398 L 7.4593397 -165.68398 L 6.4490654 -183.39297 L -2.0863309 -198.17657 z M -83.43072 -192.21621 C -85.584619 -189.65499 -86.77489 -186.4211 -86.795372 -183.07465 C -86.842092 -175.15518 -80.459903 -168.69733 -72.540428 -168.65072 C -64.621155 -168.60402 -58.163395 -174.98588 -58.116503 -182.90515 C -58.102813 -186.26049 -59.266203 -189.5144 -61.404157 -192.10045 C -60.83125 -190.6836 -60.536835 -189.16959 -60.537027 -187.64129 C -60.575787 -181.07411 -65.930869 -175.78172 -72.498054 -175.82031 C -79.065241 -175.85911 -84.357627 -181.21415 -84.319038 -187.78134 C -84.309338 -189.30285 -84.007827 -190.80837 -83.43072 -192.21621 z M -29.723404 -134.42594 C -18.187204 -134.42594 -9.3622503 -130.08751 -3.2490506 -121.41071 C 2.9627491 -112.83251 6.0687269 -100.3594 6.0687269 -83.991805 C 6.0687269 -67.624206 2.9627491 -55.052711 -3.2490506 -46.277312 C -9.3622503 -37.600512 -18.187204 -33.262085 -29.723404 -33.262085 C -41.259603 -33.262085 -50.133235 -37.600512 -56.345034 -46.277312 C -62.556834 -55.052711 -65.662812 -67.624206 -65.662812 -83.991805 C -65.662812 -100.2608 -62.556834 -112.73391 -56.345034 -121.41071 C -50.133235 -130.08751 -41.259603 -134.42594 -29.723404 -134.42594 z M -109.44154 -134.27814 C -97.708136 -134.27814 -88.735598 -131.02406 -82.523798 -124.51646 C -76.213399 -118.00886 -73.058226 -108.59254 -73.058226 -96.267542 C -73.058226 -80.787343 -77.889632 -67.575284 -87.552432 -56.630685 C -97.116632 -45.784685 -111.01896 -37.798107 -129.25996 -32.670907 L -132.80962 -40.065804 C -122.94962 -44.305604 -115.01223 -49.728379 -108.99763 -56.334579 C -102.98303 -63.039379 -98.990004 -70.828662 -97.018004 -79.702662 C -102.5396 -76.941862 -107.91318 -75.561829 -113.13898 -75.561829 C -122.99898 -75.561829 -130.78827 -78.224022 -136.50707 -83.548422 C -142.12727 -88.872821 -144.93756 -96.070736 -144.93756 -105.14194 C -144.93756 -110.76214 -143.45862 -115.79032 -140.50062 -120.22732 C -137.44402 -124.66432 -133.25318 -128.11569 -127.92878 -130.58069 C -122.50578 -133.04569 -116.34353 -134.27814 -109.44154 -134.27814 z M -29.723404 -126.88324 C -34.752003 -126.88324 -38.400155 -123.57997 -40.667955 -116.97377 C -42.837155 -110.36757 -43.921503 -99.373405 -43.921503 -83.991805 C -43.921503 -68.708806 -42.837155 -57.76435 -40.667955 -51.158151 C -38.400155 -44.650551 -34.752003 -41.396989 -29.723404 -41.396989 C -24.694804 -41.396989 -21.095847 -44.650551 -18.926647 -51.158151 C -16.658847 -57.76435 -15.524787 -68.708806 -15.524787 -83.991805 C -15.524787 -99.274805 -16.658847 -110.21978 -18.926647 -116.82598 C -21.095847 -123.53078 -24.694804 -126.88324 -29.723404 -126.88324 z M -110.32882 -124.07308 C -114.56862 -124.07308 -117.82218 -122.44604 -120.08998 -119.19224 C -122.35778 -115.93844 -123.49184 -111.30433 -123.49184 -105.28973 C -123.49184 -99.17653 -122.25939 -94.394319 -119.79439 -90.943319 C -117.23079 -87.590919 -113.63183 -85.914685 -108.99763 -85.914685 C -104.95503 -85.914685 -100.46902 -87.590919 -95.539025 -90.943319 L -95.539025 -92.866199 C -95.539025 -103.6136 -96.722279 -111.50127 -99.088679 -116.52987 C -101.45508 -121.55847 -105.20162 -124.07308 -110.32882 -124.07308 z " /></g></svg>
