<?xml version="1.0" encoding="UTF-8" standalone="no"?>
<!-- Created with Inkscape (http://www.inkscape.org/) -->

<svg
   width="172.6701mm"
   height="172.6701mm"
   viewBox="0 0 172.6701 172.6701"
   version="1.1"
   id="svg1"
   xml:space="preserve"
   xmlns="http://www.w3.org/2000/svg"
   xmlns:svg="http://www.w3.org/2000/svg"><defs
     id="defs1" /><g
     id="layer1"
     transform="translate(157.25102,198.81012)"><path
       id="path5"
       style="fill:#ffffff;fill-opacity:1;stroke-width:0.805188;stroke-linecap:round;stroke-linejoin:round"
       d="M -2.0863309 -198.17657 L -10.088943 -183.11289 L -10.930235 -165.68398 L -19.198981 -165.68398 L -11.423229 -155.47426 L -12.166336 -140.07934 C -28.353216 -157.12094 -50.823548 -166.77435 -74.327399 -166.78417 C -103.64471 -166.77397 -130.92652 -151.79225 -146.66717 -127.05894 L -157.25102 -127.05894 L -149.61996 -115.86014 L -157.25102 -26.140039 L -8.5138455 -26.140039 L 15.419061 -26.140039 L 8.0799737 -154.80195 L 15.419061 -165.68398 L 7.4593397 -165.68398 L 6.4490654 -183.39297 L -2.0863309 -198.17657 z M -83.43072 -192.21621 C -85.584619 -189.65499 -86.77489 -186.4211 -86.795372 -183.07465 C -86.842092 -175.15518 -80.459903 -168.69733 -72.540428 -168.65072 C -64.621155 -168.60402 -58.163395 -174.98588 -58.116503 -182.90515 C -58.102813 -186.26049 -59.266203 -189.5144 -61.404157 -192.10045 C -60.83125 -190.6836 -60.536835 -189.16959 -60.537027 -187.64129 C -60.575787 -181.07411 -65.930869 -175.78172 -72.498054 -175.82031 C -79.065241 -175.85911 -84.357627 -181.21415 -84.319038 -187.78134 C -84.309338 -189.30285 -84.007827 -190.80837 -83.43072 -192.21621 z M -103.8951 -134.27814 C -92.161704 -134.27814 -83.189167 -131.02406 -76.977367 -124.51646 C -70.666967 -118.00886 -67.511795 -108.59254 -67.511795 -96.267542 C -67.511795 -80.787343 -72.343201 -67.575284 -82.006 -56.630685 C -91.5702 -45.784685 -105.47253 -37.798107 -123.71353 -32.670907 L -127.26319 -40.065804 C -117.40319 -44.305604 -109.4658 -49.728379 -103.4512 -56.334579 C -97.436603 -63.039379 -93.443572 -70.828662 -91.471573 -79.702662 C -96.993172 -76.941862 -102.36675 -75.561829 -107.59255 -75.561829 C -117.45255 -75.561829 -125.24184 -78.224022 -130.96064 -83.548422 C -136.58083 -88.872821 -139.39113 -96.070736 -139.39113 -105.14194 C -139.39113 -110.76214 -137.91219 -115.79032 -134.95419 -120.22732 C -131.89759 -124.66432 -127.70726 -128.11569 -122.38286 -130.58069 C -116.95986 -133.04569 -110.7971 -134.27814 -103.8951 -134.27814 z M -22.845787 -133.53865 L -17.964948 -131.32018 L -17.964948 -45.833928 C -16.091548 -44.749328 -13.133671 -43.763369 -9.0910713 -42.875969 C -5.0484714 -42.087169 -1.8441045 -41.594189 0.52229543 -41.396989 L 0.078394876 -34.297681 L -60.264692 -34.297681 L -59.968586 -41.396989 C -51.193186 -42.382989 -44.488768 -43.861928 -39.854568 -45.833928 L -39.854568 -116.67767 L -59.672997 -116.67767 L -59.672997 -125.25595 C -53.362597 -125.74895 -46.854957 -126.68572 -40.150157 -128.06612 C -33.445358 -129.54512 -27.677187 -131.36945 -22.845787 -133.53865 z M -104.78239 -124.07308 C -109.02219 -124.07308 -112.27627 -122.44604 -114.54407 -119.19224 C -116.81187 -115.93844 -117.94541 -111.30433 -117.94541 -105.28973 C -117.94541 -99.17653 -116.71296 -94.394319 -114.24796 -90.943319 C -111.68436 -87.590919 -108.0854 -85.914685 -103.4512 -85.914685 C -99.408603 -85.914685 -94.922593 -87.590919 -89.992593 -90.943319 L -89.992593 -92.866199 C -89.992593 -103.6136 -91.175847 -111.50127 -93.542247 -116.52987 C -95.908647 -121.55847 -99.655188 -124.07308 -104.78239 -124.07308 z " /></g></svg>
