<?xml version="1.0" encoding="UTF-8" standalone="no"?>
<!-- Created with Inkscape (http://www.inkscape.org/) -->

<svg
   width="172.6701mm"
   height="172.6701mm"
   viewBox="0 0 172.6701 172.6701"
   version="1.1"
   id="svg1"
   xml:space="preserve"
   xmlns="http://www.w3.org/2000/svg"
   xmlns:svg="http://www.w3.org/2000/svg"><defs
     id="defs1" /><g
     id="layer1"
     transform="translate(157.25102,198.81012)"><path
       id="path5"
       style="fill:#ffffff;fill-opacity:1;stroke-width:0.805188;stroke-linecap:round;stroke-linejoin:round"
       d="M -2.0863309 -198.17657 L -10.088943 -183.11289 L -10.930235 -165.68398 L -19.198981 -165.68398 L -11.423229 -155.47426 L -12.166336 -140.07934 C -28.353216 -157.12094 -50.823548 -166.77435 -74.327399 -166.78417 C -103.64471 -166.77397 -130.92652 -151.79225 -146.66717 -127.05894 L -157.25102 -127.05894 L -149.61996 -115.86014 L -157.25102 -26.140039 L -8.5138455 -26.140039 L 15.419061 -26.140039 L 8.0799737 -154.80195 L 15.419061 -165.68398 L 7.4593397 -165.68398 L 6.4490654 -183.39297 L -2.0863309 -198.17657 z M -83.43072 -192.21621 C -85.584619 -189.65499 -86.77489 -186.4211 -86.795372 -183.07465 C -86.842092 -175.15518 -80.459903 -168.69733 -72.540428 -168.65072 C -64.621155 -168.60402 -58.163395 -174.98588 -58.116503 -182.90515 C -58.102813 -186.26049 -59.266203 -189.5144 -61.404157 -192.10045 C -60.83125 -190.6836 -60.536835 -189.16959 -60.537027 -187.64129 C -60.575787 -181.07411 -65.930869 -175.78172 -72.498054 -175.82031 C -79.065241 -175.85911 -84.357627 -181.21415 -84.319038 -187.78134 C -84.309338 -189.30285 -84.007827 -190.80837 -83.43072 -192.21621 z M -31.57187 -134.57373 C -25.16287 -134.57373 -19.493605 -133.48938 -14.563605 -131.32018 C -9.6336057 -129.24958 -5.7881586 -126.29119 -3.0273587 -122.44579 C -0.26655882 -118.69899 1.1139906 -114.36056 1.1139906 -109.43056 C 1.1139906 -103.90896 -0.51304858 -99.176463 -3.7668485 -95.232463 C -7.0206483 -91.288463 -11.852054 -88.280875 -18.261054 -86.210275 C -10.175855 -84.435475 -4.5060731 -81.526792 -1.2522733 -77.484192 C 2.0015266 -73.441592 3.628049 -67.969623 3.628049 -61.067623 C 3.628049 -55.053024 1.8042314 -49.925933 -1.8439684 -45.686133 C -5.3935683 -41.446333 -10.027679 -38.291161 -15.746479 -36.220561 C -21.465279 -34.149961 -27.38155 -33.114291 -33.49475 -33.114291 C -42.368749 -33.114291 -49.911543 -34.938625 -56.123343 -38.586825 C -62.236542 -42.235025 -65.293326 -47.214015 -65.293326 -53.524414 C -65.293326 -57.172614 -64.20846 -59.982908 -62.039261 -61.954908 C -59.870061 -64.025508 -57.158673 -65.060661 -53.904873 -65.060661 C -50.552473 -65.060661 -47.150811 -63.729823 -43.699812 -61.067623 C -44.587211 -59.194223 -45.030996 -56.926104 -45.030996 -54.263904 C -45.030996 -51.108704 -44.094232 -48.545417 -42.220832 -46.573418 C -40.248832 -44.601418 -37.340149 -43.615459 -33.49475 -43.615459 C -25.01515 -43.615459 -20.775113 -49.482018 -20.775113 -61.215418 C -20.775113 -67.624418 -22.845937 -72.603924 -26.987137 -76.153524 C -31.029736 -79.703124 -36.797907 -81.477747 -44.291507 -81.477747 L -44.291507 -90.64773 C -29.797307 -91.83093 -22.550198 -98.091563 -22.550198 -109.43056 C -22.550198 -115.14936 -23.437251 -119.34021 -25.212051 -122.00241 C -26.986851 -124.76321 -29.402554 -126.14375 -32.459154 -126.14375 C -36.107354 -126.14375 -38.868453 -124.86159 -40.741853 -122.29799 C -42.516652 -119.73439 -43.403706 -116.62842 -43.403706 -112.98022 C -43.403706 -109.72642 -42.713948 -106.81773 -41.333548 -104.25413 C -44.094348 -101.29613 -47.643593 -99.817196 -51.981993 -99.817196 C -55.925993 -99.817196 -58.982776 -101.00045 -61.151976 -103.36685 C -63.321176 -105.73325 -64.405524 -108.79003 -64.405524 -112.53683 C -64.405524 -117.46683 -62.729291 -121.55877 -59.376891 -124.81257 C -55.925891 -128.16497 -51.68637 -130.62987 -46.65777 -132.20747 C -41.530571 -133.78507 -36.501869 -134.57373 -31.57187 -134.57373 z M -107.59255 -134.27814 C -95.859153 -134.27814 -86.886615 -131.02406 -80.674816 -124.51646 C -74.364416 -118.00886 -71.209243 -108.59254 -71.209243 -96.267542 C -71.209243 -80.787343 -76.04065 -67.575284 -85.703449 -56.630685 C -95.267649 -45.784685 -109.16998 -37.798107 -127.41098 -32.670907 L -130.96064 -40.065804 C -121.10064 -44.305604 -113.16325 -49.728379 -107.14865 -56.334579 C -101.13405 -63.039379 -97.141021 -70.828662 -95.169021 -79.702662 C -100.69062 -76.941862 -106.0642 -75.561829 -111.29 -75.561829 C -121.15 -75.561829 -128.93928 -78.224022 -134.65808 -83.548422 C -140.27828 -88.872821 -143.08858 -96.070736 -143.08858 -105.14194 C -143.08858 -110.76214 -141.60964 -115.79032 -138.65164 -120.22732 C -135.59504 -124.66432 -131.40471 -128.11569 -126.08031 -130.58069 C -120.65731 -133.04569 -114.49455 -134.27814 -107.59255 -134.27814 z M -108.47984 -124.07308 C -112.71964 -124.07308 -115.97371 -122.44604 -118.24151 -119.19224 C -120.50931 -115.93844 -121.64286 -111.30433 -121.64286 -105.28973 C -121.64286 -99.17653 -120.41041 -94.394319 -117.94541 -90.943319 C -115.38181 -87.590919 -111.78285 -85.914685 -107.14865 -85.914685 C -103.10605 -85.914685 -98.620042 -87.590919 -93.690042 -90.943319 L -93.690042 -92.866199 C -93.690042 -103.6136 -94.873296 -111.50127 -97.239696 -116.52987 C -99.606096 -121.55847 -103.35264 -124.07308 -108.47984 -124.07308 z " /></g></svg>
