<?xml version="1.0" encoding="UTF-8" standalone="no"?>
<!-- Created with Inkscape (http://www.inkscape.org/) -->

<svg
   width="172.6701mm"
   height="172.6701mm"
   viewBox="0 0 172.6701 172.6701"
   version="1.1"
   id="svg1"
   xml:space="preserve"
   xmlns="http://www.w3.org/2000/svg"
   xmlns:svg="http://www.w3.org/2000/svg"><defs
     id="defs1" /><g
     id="layer1"
     transform="translate(157.25102,198.81012)"><path
       id="path5"
       style="fill:#ffffff;fill-opacity:1;stroke-width:0.805188;stroke-linecap:round;stroke-linejoin:round"
       d="M -2.0863309 -198.17657 L -10.088943 -183.11289 L -10.930235 -165.68398 L -19.198981 -165.68398 L -11.423229 -155.47426 L -12.166336 -140.07934 C -28.353216 -157.12094 -50.823548 -166.77435 -74.327399 -166.78417 C -103.64471 -166.77397 -130.92652 -151.79225 -146.66717 -127.05894 L -157.25102 -127.05894 L -149.61996 -115.86014 L -157.25102 -26.140039 L -8.5138455 -26.140039 L 15.419061 -26.140039 L 8.0799737 -154.80195 L 15.419061 -165.68398 L 7.4593397 -165.68398 L 6.4490654 -183.39297 L -2.0863309 -198.17657 z M -83.43072 -192.21621 C -85.584619 -189.65499 -86.77489 -186.4211 -86.795372 -183.07465 C -86.842092 -175.15518 -80.459903 -168.69733 -72.540428 -168.65072 C -64.621155 -168.60402 -58.163395 -174.98588 -58.116503 -182.90515 C -58.102813 -186.26049 -59.266203 -189.5144 -61.404157 -192.10045 C -60.83125 -190.6836 -60.536835 -189.16959 -60.537027 -187.64129 C -60.575787 -181.07411 -65.930869 -175.78172 -72.498054 -175.82031 C -79.065241 -175.85911 -84.357627 -181.21415 -84.319038 -187.78134 C -84.309338 -189.30285 -84.007827 -190.80837 -83.43072 -192.21621 z M -33.272541 -135.16543 C -25.384541 -134.77103 -18.975807 -133.0456 -14.045808 -129.989 L -49.245726 -72.012175 L -26.617133 -72.012175 L -25.138154 -96.119747 C -21.982954 -96.119747 -19.715351 -96.760827 -18.334951 -98.042627 C -16.855952 -99.324427 -15.721892 -101.49364 -14.933092 -104.55024 L -6.5031155 -104.55024 L -6.6509101 -71.272685 C -2.9041103 -70.188085 1.8289066 -69.054026 7.5477064 -67.870826 L 6.8082167 -60.771517 L -7.3903999 -60.771517 L -7.3903999 -34.297681 L -26.617133 -34.297681 L -26.617133 -60.771517 L -69.360261 -60.771517 L -70.543651 -66.096257 L -33.272541 -135.16543 z M -110.92051 -134.27814 C -99.187115 -134.27814 -90.214061 -131.02406 -84.002261 -124.51646 C -77.691861 -118.00886 -74.536689 -108.59254 -74.536689 -96.267542 C -74.536689 -80.787343 -79.368095 -67.575284 -89.030895 -56.630685 C -98.595094 -45.784685 -112.49794 -37.798107 -130.73894 -32.670907 L -134.2886 -40.065804 C -124.4286 -44.305604 -116.49121 -49.728379 -110.47661 -56.334579 C -104.46201 -63.039379 -100.46847 -70.828662 -98.496467 -79.702662 C -104.01807 -76.941862 -109.39216 -75.561829 -114.61796 -75.561829 C -124.47796 -75.561829 -132.26725 -78.224022 -137.98605 -83.548422 C -143.60625 -88.872821 -146.41654 -96.070736 -146.41654 -105.14194 C -146.41654 -110.76214 -144.93708 -115.79032 -141.97908 -120.22732 C -138.92248 -124.66432 -134.73216 -128.11569 -129.40776 -130.58069 C -123.98476 -133.04569 -117.82251 -134.27814 -110.92051 -134.27814 z M -111.8078 -124.07308 C -116.0476 -124.07308 -119.30116 -122.44604 -121.56896 -119.19224 C -123.83676 -115.93844 -124.97082 -111.30433 -124.97082 -105.28973 C -124.97082 -99.17653 -123.73837 -94.394319 -121.27337 -90.943319 C -118.70977 -87.590919 -115.11081 -85.914685 -110.47661 -85.914685 C -106.43401 -85.914685 -101.94749 -87.590919 -97.017487 -90.943319 L -97.017487 -92.866199 C -97.017487 -103.6136 -98.200742 -111.50127 -100.56714 -116.52987 C -102.93354 -121.55847 -106.6806 -124.07308 -111.8078 -124.07308 z " /></g></svg>
