<?xml version="1.0" encoding="UTF-8" standalone="no"?>
<!-- Created with Inkscape (http://www.inkscape.org/) -->

<svg
   width="172.6701mm"
   height="172.6701mm"
   viewBox="0 0 172.6701 172.6701"
   version="1.1"
   id="svg1"
   xml:space="preserve"
   xmlns="http://www.w3.org/2000/svg"
   xmlns:svg="http://www.w3.org/2000/svg"><defs
     id="defs1" /><g
     id="layer1"
     transform="translate(157.25102,198.81012)"><path
       id="path5"
       style="fill:#ffffff;fill-opacity:1;stroke-width:0.805188;stroke-linecap:round;stroke-linejoin:round"
       d="M -2.0863309 -198.17657 L -10.088943 -183.11289 L -10.930235 -165.68398 L -19.198981 -165.68398 L -11.423229 -155.47426 L -12.166336 -140.07934 C -28.353216 -157.12094 -50.823548 -166.77435 -74.327399 -166.78417 C -103.64471 -166.77397 -130.92652 -151.79225 -146.66717 -127.05894 L -157.25102 -127.05894 L -149.61996 -115.86014 L -157.25102 -26.140039 L -8.5138455 -26.140039 L 15.419061 -26.140039 L 8.0799737 -154.80195 L 15.419061 -165.68398 L 7.4593397 -165.68398 L 6.4490654 -183.39297 L -2.0863309 -198.17657 z M -83.43072 -192.21621 C -85.584619 -189.65499 -86.77489 -186.4211 -86.795372 -183.07465 C -86.842092 -175.15518 -80.459903 -168.69733 -72.540428 -168.65072 C -64.621155 -168.60402 -58.163395 -174.98588 -58.116503 -182.90515 C -58.102813 -186.26049 -59.266203 -189.5144 -61.404157 -192.10045 C -60.83125 -190.6836 -60.536835 -189.16959 -60.537027 -187.64129 C -60.575787 -181.07411 -65.930869 -175.78172 -72.498054 -175.82031 C -79.065241 -175.85911 -84.357627 -181.21415 -84.319038 -187.78134 C -84.309338 -189.30285 -84.007827 -190.80837 -83.43072 -192.21621 z M -108.47984 -134.27814 C -96.746437 -134.27814 -87.7739 -131.02406 -81.5621 -124.51646 C -75.2517 -118.00886 -72.096528 -108.59254 -72.096528 -96.267542 C -72.096528 -80.787343 -76.927934 -67.575284 -86.590734 -56.630685 C -96.154933 -45.784685 -110.05778 -37.798107 -128.29878 -32.670907 L -131.84844 -40.065804 C -121.98844 -44.305604 -114.05105 -49.728379 -108.03645 -56.334579 C -102.02185 -63.039379 -98.028306 -70.828662 -96.056306 -79.702662 C -101.57791 -76.941862 -106.95149 -75.561829 -112.17729 -75.561829 C -122.03729 -75.561829 -129.82709 -78.224022 -135.54588 -83.548422 C -141.16608 -88.872821 -143.97586 -96.070736 -143.97586 -105.14194 C -143.97586 -110.76214 -142.49692 -115.79032 -139.53892 -120.22732 C -136.48232 -124.66432 -132.292 -128.11569 -126.9676 -130.58069 C -121.5446 -133.04569 -115.38184 -134.27814 -108.47984 -134.27814 z M -52.278099 -133.39086 L -44.883202 -133.24255 C -34.431602 -133.04535 -28.909921 -132.94696 -28.318321 -132.94696 L -7.3165026 -133.24255 L -3.0273587 -130.13679 L -4.3585436 -118.89665 L -41.037442 -118.89665 L -43.108116 -94.196867 C -37.980917 -95.478667 -33.346806 -96.119747 -29.205606 -96.119747 C -19.444206 -96.119747 -11.506822 -93.506749 -5.3936225 -88.280949 C 0.8181772 -83.153749 3.924155 -75.610956 3.924155 -65.652356 C 3.924155 -59.440557 2.4452164 -53.869681 -0.51278351 -48.939681 C -3.3721834 -44.009682 -7.5138316 -40.11504 -12.936831 -37.25564 C -18.359831 -34.49484 -24.768565 -33.114291 -32.163565 -33.114291 C -38.178165 -33.114291 -43.650651 -33.952666 -48.580651 -35.628866 C -53.41205 -37.305066 -57.207786 -39.621863 -59.968586 -42.579863 C -62.729386 -45.636463 -64.109935 -49.038125 -64.109935 -52.784925 C -64.109935 -56.728925 -63.025587 -59.736513 -60.856387 -61.807113 C -58.687187 -63.976313 -56.024994 -65.060661 -52.869794 -65.060661 C -51.094994 -65.060661 -49.319855 -64.715782 -47.545055 -64.025582 C -45.671655 -63.335382 -43.995421 -62.349423 -42.516421 -61.067623 C -43.403821 -58.997023 -43.847606 -56.82781 -43.847606 -54.56001 C -43.847606 -51.30621 -42.910842 -48.644017 -41.037442 -46.573418 C -39.065442 -44.502818 -36.107565 -43.467664 -32.163565 -43.467664 C -23.289565 -43.467664 -18.852749 -50.862357 -18.852749 -65.652356 C -18.852749 -72.652956 -20.232782 -77.730852 -22.993582 -80.886052 C -25.754382 -84.139852 -29.452245 -85.766891 -34.086445 -85.766891 C -36.945845 -85.766891 -40.002111 -85.224717 -43.255911 -84.140117 C -46.509711 -83.055517 -49.714595 -81.526867 -52.869794 -79.554867 L -61.004182 -87.393665 L -57.158938 -129.3973 L -52.278099 -133.39086 z M -109.36764 -124.07308 C -113.60744 -124.07308 -116.861 -122.44604 -119.1288 -119.19224 C -121.3966 -115.93844 -122.53066 -111.30433 -122.53066 -105.28973 C -122.53066 -99.17653 -121.29821 -94.394319 -118.83321 -90.943319 C -116.26961 -87.590919 -112.67065 -85.914685 -108.03645 -85.914685 C -103.99385 -85.914685 -99.507326 -87.590919 -94.577326 -90.943319 L -94.577326 -92.866199 C -94.577326 -103.6136 -95.76058 -111.50127 -98.12698 -116.52987 C -100.49338 -121.55847 -104.24044 -124.07308 -109.36764 -124.07308 z " /></g></svg>
