<?xml version="1.0" encoding="UTF-8" standalone="no"?>
<!-- Created with Inkscape (http://www.inkscape.org/) -->

<svg
   width="172.6701mm"
   height="172.6701mm"
   viewBox="0 0 172.6701 172.6701"
   version="1.1"
   id="svg1"
   xml:space="preserve"
   xmlns="http://www.w3.org/2000/svg"
   xmlns:svg="http://www.w3.org/2000/svg"><defs
     id="defs1" /><g
     id="layer1"
     transform="translate(157.25102,198.81012)"><path
       id="path5"
       style="fill:#ffffff;fill-opacity:1;stroke-width:0.805188;stroke-linecap:round;stroke-linejoin:round"
       d="M -2.0863309 -198.17657 L -10.088943 -183.11289 L -10.930235 -165.68398 L -19.198981 -165.68398 L -11.423229 -155.47426 L -12.166336 -140.07934 C -28.353216 -157.12094 -50.823548 -166.77435 -74.327399 -166.78417 C -103.64471 -166.77397 -130.92652 -151.79225 -146.66717 -127.05894 L -157.25102 -127.05894 L -149.61996 -115.86014 L -157.25102 -26.140039 L -8.5138455 -26.140039 L 15.419061 -26.140039 L 8.0799737 -154.80195 L 15.419061 -165.68398 L 7.4593397 -165.68398 L 6.4490654 -183.39297 L -2.0863309 -198.17657 z M -83.43072 -192.21621 C -85.584619 -189.65499 -86.77489 -186.4211 -86.795372 -183.07465 C -86.842092 -175.15518 -80.459903 -168.69733 -72.540428 -168.65072 C -64.621155 -168.60402 -58.163395 -174.98588 -58.116503 -182.90515 C -58.102813 -186.26049 -59.266203 -189.5144 -61.404157 -192.10045 C -60.83125 -190.6836 -60.536835 -189.16959 -60.537027 -187.64129 C -60.575787 -181.07411 -65.930869 -175.78172 -72.498054 -175.82031 C -79.065241 -175.85911 -84.357627 -181.21415 -84.319038 -187.78134 C -84.309338 -189.30285 -84.007827 -190.80837 -83.43072 -192.21621 z M -9.6827664 -134.86984 L -6.1331123 -127.47442 C -26.050311 -118.89622 -38.030438 -105.68416 -42.073037 -87.837565 C -36.354238 -90.598365 -30.930946 -91.978398 -25.803746 -91.978398 C -15.943747 -91.978398 -8.2036579 -89.316205 -2.5834582 -83.991805 C 3.1353416 -78.667406 5.9948296 -71.470008 5.9948296 -62.398808 C 5.9948296 -56.778608 4.4661796 -51.749907 1.4095798 -47.312907 C -1.5484201 -42.875907 -5.7387461 -39.425051 -11.161746 -36.960051 C -16.486146 -34.495051 -22.599195 -33.262085 -29.501195 -33.262085 C -41.234594 -33.262085 -50.256843 -36.516164 -56.567243 -43.023763 C -62.779043 -49.531363 -65.884504 -58.947686 -65.884504 -71.272685 C -65.884504 -86.752884 -61.102809 -99.915748 -51.53861 -110.76175 C -41.87581 -121.70635 -27.923766 -129.74264 -9.6827664 -134.86984 z M -109.81102 -134.27814 C -98.077622 -134.27814 -89.105085 -131.02406 -82.893285 -124.51646 C -76.582885 -118.00886 -73.427713 -108.59254 -73.427713 -96.267542 C -73.427713 -80.787343 -78.259119 -67.575284 -87.921918 -56.630685 C -97.486118 -45.784685 -111.38897 -37.798107 -129.62997 -32.670907 L -133.1791 -40.065804 C -123.3191 -44.305604 -115.38224 -49.728379 -109.36764 -56.334579 C -103.35304 -63.039379 -99.35949 -70.828662 -97.387491 -79.702662 C -102.90909 -76.941862 -108.28267 -75.561829 -113.50847 -75.561829 C -123.36847 -75.561829 -131.15775 -78.224022 -136.87655 -83.548422 C -142.49675 -88.872821 -145.30705 -96.070736 -145.30705 -105.14194 C -145.30705 -110.76214 -143.82811 -115.79032 -140.87011 -120.22732 C -137.81351 -124.66432 -133.62318 -128.11569 -128.29878 -130.58069 C -122.87578 -133.04569 -116.71302 -134.27814 -109.81102 -134.27814 z M -110.69831 -124.07308 C -114.93811 -124.07308 -118.19218 -122.44604 -120.45998 -119.19224 C -122.72778 -115.93844 -123.86184 -111.30433 -123.86184 -105.28973 C -123.86184 -99.17653 -122.62888 -94.394319 -120.16388 -90.943319 C -117.60028 -87.590919 -114.00184 -85.914685 -109.36764 -85.914685 C -105.32504 -85.914685 -100.83851 -87.590919 -95.908511 -90.943319 L -95.908511 -92.866199 C -95.908511 -103.6136 -97.091765 -111.50127 -99.458165 -116.52987 C -101.82457 -121.55847 -105.57111 -124.07308 -110.69831 -124.07308 z M -29.945096 -81.625542 C -34.086295 -81.625542 -38.572306 -79.949308 -43.403706 -76.596908 L -43.403706 -74.674545 C -43.403706 -63.927145 -42.220968 -56.038956 -39.854568 -51.010356 C -37.488168 -45.981756 -33.74111 -43.467664 -28.613911 -43.467664 C -24.374111 -43.467664 -21.120549 -45.094186 -18.852749 -48.347986 C -16.584949 -51.601786 -15.45089 -56.235897 -15.45089 -62.250497 C -15.45089 -68.363697 -16.732533 -73.096713 -19.296133 -76.449113 C -21.761133 -79.900113 -25.310896 -81.625542 -29.945096 -81.625542 z " /></g></svg>
