<?xml version="1.0" encoding="UTF-8" standalone="no"?>
<!-- Created with Inkscape (http://www.inkscape.org/) -->

<svg
   width="172.6701mm"
   height="172.6701mm"
   viewBox="0 0 172.6701 172.6701"
   version="1.1"
   id="svg1"
   xml:space="preserve"
   xmlns="http://www.w3.org/2000/svg"
   xmlns:svg="http://www.w3.org/2000/svg"><defs
     id="defs1" /><g
     id="layer1"
     transform="translate(157.25102,198.81012)"><path
       id="path5"
       style="fill:#ffffff;fill-opacity:1;stroke-width:0.805188;stroke-linecap:round;stroke-linejoin:round"
       d="M -2.0863309 -198.17657 L -10.088943 -183.11289 L -10.930235 -165.68398 L -19.198981 -165.68398 L -11.423229 -155.47426 L -12.166336 -140.07934 C -28.353216 -157.12094 -50.823548 -166.77435 -74.327399 -166.78417 C -103.64471 -166.77397 -130.92652 -151.79225 -146.66717 -127.05894 L -157.25102 -127.05894 L -149.61996 -115.86014 L -157.25102 -26.140039 L -8.5138455 -26.140039 L 15.419061 -26.140039 L 8.0799737 -154.80195 L 15.419061 -165.68398 L 7.4593397 -165.68398 L 6.4490654 -183.39297 L -2.0863309 -198.17657 z M -83.43072 -192.21621 C -85.584619 -189.65499 -86.77489 -186.4211 -86.795372 -183.07465 C -86.842092 -175.15518 -80.459903 -168.69733 -72.540428 -168.65072 C -64.621155 -168.60402 -58.163395 -174.98588 -58.116503 -182.90515 C -58.102813 -186.26049 -59.266203 -189.5144 -61.404157 -192.10045 C -60.83125 -190.6836 -60.536835 -189.16959 -60.537027 -187.64129 C -60.575787 -181.07411 -65.930869 -175.78172 -72.498054 -175.82031 C -79.065241 -175.85911 -84.357627 -181.21415 -84.319038 -187.78134 C -84.309338 -189.30285 -84.007827 -190.80837 -83.43072 -192.21621 z M -106.55747 -134.27814 C -94.824074 -134.27814 -85.85102 -131.02406 -79.63922 -124.51646 C -73.32882 -118.00886 -70.173648 -108.59254 -70.173648 -96.267542 C -70.173648 -80.787343 -75.005054 -67.575284 -84.667853 -56.630685 C -94.232053 -45.784685 -108.1349 -37.798107 -126.3759 -32.670907 L -129.92556 -40.065804 C -120.06556 -44.305604 -112.12817 -49.728379 -106.11357 -56.334579 C -100.09897 -63.039379 -96.105426 -70.828662 -94.133426 -79.702662 C -99.655025 -76.941862 -105.02912 -75.561829 -110.25492 -75.561829 C -120.11492 -75.561829 -127.90421 -78.224022 -133.623 -83.548422 C -139.2432 -88.872821 -142.0535 -96.070736 -142.0535 -105.14194 C -142.0535 -110.76214 -140.57404 -115.79032 -137.61604 -120.22732 C -134.55944 -124.66432 -130.36912 -128.11569 -125.04472 -130.58069 C -119.62172 -133.04569 -113.45947 -134.27814 -106.55747 -134.27814 z M -62.187055 -133.09475 L -54.939952 -133.09475 C -51.193152 -132.99615 -43.009279 -132.94696 -30.388479 -132.94696 C -17.27468 -132.94696 -8.7459272 -132.99615 -4.8019274 -133.09475 L 2.2973809 -133.09475 L 5.2553399 -126.73493 C 3.3819399 -123.77693 -0.16782275 -117.3682 -5.3936225 -107.5082 C -10.619422 -97.6482 -15.549218 -87.196724 -20.183417 -76.153524 C -24.817617 -65.110325 -27.134931 -56.482666 -27.134931 -50.270866 C -27.134931 -45.340866 -25.409503 -41.64352 -21.958503 -39.17852 C -25.310903 -35.13592 -29.600135 -33.114291 -34.825935 -33.114291 C -39.657334 -33.114291 -43.403875 -34.445646 -46.066075 -37.107845 C -48.728275 -39.770045 -50.05963 -43.467392 -50.05963 -48.200192 C -50.05963 -54.116191 -48.629886 -60.377341 -45.770486 -66.983541 C -42.911086 -73.688341 -37.783479 -82.759268 -30.388479 -94.196867 L -12.936315 -121.11512 L -46.65777 -121.11512 C -48.03817 -116.67812 -48.876029 -111.45212 -49.171829 -105.43752 C -50.946629 -105.14172 -52.770963 -104.99362 -54.644363 -104.99362 C -56.616363 -104.99362 -58.539087 -105.14172 -60.412486 -105.43752 L -64.553836 -130.87628 L -62.187055 -133.09475 z M -107.44476 -124.07308 C -111.68456 -124.07308 -114.93812 -122.44604 -117.20592 -119.19224 C -119.47372 -115.93844 -120.60778 -111.30433 -120.60778 -105.28973 C -120.60778 -99.17653 -119.37533 -94.394319 -116.91033 -90.943319 C -114.34673 -87.590919 -110.74777 -85.914685 -106.11357 -85.914685 C -102.07097 -85.914685 -97.584446 -87.590919 -92.654446 -90.943319 L -92.654446 -92.866199 C -92.654446 -103.6136 -93.8377 -111.50127 -96.2041 -116.52987 C -98.5705 -121.55847 -102.31756 -124.07308 -107.44476 -124.07308 z " /></g></svg>
