<?xml version="1.0" encoding="UTF-8" standalone="no"?>
<!-- Created with Inkscape (http://www.inkscape.org/) -->

<svg
   width="172.6701mm"
   height="172.6701mm"
   viewBox="0 0 172.6701 172.6701"
   version="1.1"
   id="svg1"
   xml:space="preserve"
   xmlns="http://www.w3.org/2000/svg"
   xmlns:svg="http://www.w3.org/2000/svg"><defs
     id="defs1" /><g
     id="layer1"
     transform="translate(157.25102,198.81012)"><path
       id="path5"
       style="fill:#ffffff;fill-opacity:1;stroke-width:0.805188;stroke-linecap:round;stroke-linejoin:round"
       d="M -2.0863309 -198.17657 L -10.088943 -183.11289 L -10.930235 -165.68398 L -19.198981 -165.68398 L -11.423229 -155.47426 L -12.166336 -140.07934 C -28.353216 -157.12094 -50.823548 -166.77435 -74.327399 -166.78417 C -103.64471 -166.77397 -130.92652 -151.79225 -146.66717 -127.05894 L -157.25102 -127.05894 L -149.61996 -115.86014 L -157.25102 -26.140039 L -8.5138455 -26.140039 L 15.419061 -26.140039 L 8.0799737 -154.80195 L 15.419061 -165.68398 L 7.4593397 -165.68398 L 6.4490654 -183.39297 L -2.0863309 -198.17657 z M -83.43072 -192.21621 C -85.584619 -189.65499 -86.77489 -186.4211 -86.795372 -183.07465 C -86.842092 -175.15518 -80.459903 -168.69733 -72.540428 -168.65072 C -64.621155 -168.60402 -58.163395 -174.98588 -58.116503 -182.90515 C -58.102813 -186.26049 -59.266203 -189.5144 -61.404157 -192.10045 C -60.83125 -190.6836 -60.536835 -189.16959 -60.537027 -187.64129 C -60.575787 -181.07411 -65.930869 -175.78172 -72.498054 -175.82031 C -79.065241 -175.85911 -84.357627 -181.21415 -84.319038 -187.78134 C -84.309338 -189.30285 -84.007827 -190.80837 -83.43072 -192.21621 z M -90.974445 -146.126 C -78.361952 -146.126 -68.716979 -142.62878 -62.039777 -135.63361 C -55.256588 -128.63845 -51.865205 -118.51644 -51.865205 -105.26803 C -51.865205 -88.628014 -57.058373 -74.425919 -67.445132 -62.661324 C -77.725904 -51.002718 -92.670397 -42.417649 -112.27805 -36.906307 L -116.09333 -44.855176 C -105.49459 -49.412632 -96.962699 -55.241846 -90.497472 -62.342998 C -84.032244 -69.550136 -79.739968 -77.923018 -77.620222 -87.461878 C -83.555512 -84.494232 -89.331551 -83.01047 -94.94888 -83.01047 C -105.54761 -83.01047 -113.92049 -85.87216 -120.06776 -91.595476 C -126.10904 -97.318792 -129.12974 -105.05614 -129.12974 -114.80698 C -129.12974 -120.84826 -127.54014 -126.25361 -124.36052 -131.02304 C -121.07491 -135.79247 -116.57045 -139.50188 -110.84713 -142.15156 C -105.01783 -144.80125 -98.393559 -146.126 -90.974445 -146.126 z M -91.928392 -135.15664 C -96.485848 -135.15664 -99.983066 -133.40751 -102.42078 -129.90993 C -104.85848 -126.41235 -106.0774 -121.43085 -106.0774 -114.96563 C -106.0774 -108.39441 -104.75265 -103.25442 -102.10296 -99.544861 C -99.347294 -95.941292 -95.478877 -94.139506 -90.497472 -94.139506 C -86.151991 -94.139506 -81.329505 -95.941292 -76.030138 -99.544861 L -76.030138 -101.6114 C -76.030138 -113.16402 -77.30223 -121.64325 -79.845926 -127.04861 C -82.389622 -132.45396 -86.417051 -135.15664 -91.928392 -135.15664 z M -24.04313 -111.94514 C -20.333573 -111.94514 -17.578236 -110.83257 -15.776451 -108.60684 C -13.868679 -106.48709 -12.91461 -103.51905 -12.91461 -99.703508 C -12.91461 -95.887964 -13.868679 -92.920439 -15.776451 -90.800692 C -17.578236 -88.680945 -20.333573 -87.621041 -24.04313 -87.621041 C -27.752687 -87.621041 -30.561717 -88.680945 -32.469489 -90.800692 C -34.271274 -93.026426 -35.172167 -95.993951 -35.172167 -99.703508 C -35.172167 -103.62504 -34.271274 -106.64574 -32.469489 -108.76549 C -30.561717 -110.88523 -27.752687 -111.94514 -24.04313 -111.94514 z M -24.04313 -61.866024 C -20.333573 -61.866024 -17.578236 -60.753461 -15.776451 -58.527727 C -13.868679 -56.40798 -12.91461 -53.439938 -12.91461 -49.624394 C -12.91461 -45.80885 -13.868679 -42.841325 -15.776451 -40.721578 C -17.578236 -38.601832 -20.333573 -37.541927 -24.04313 -37.541927 C -27.752687 -37.541927 -30.561717 -38.601832 -32.469489 -40.721578 C -34.271274 -42.947312 -35.172167 -45.914837 -35.172167 -49.624394 C -35.172167 -53.545925 -34.271274 -56.566627 -32.469489 -58.686373 C -30.561717 -60.80612 -27.752687 -61.866024 -24.04313 -61.866024 z " /></g></svg>
