<?xml version="1.0" encoding="UTF-8" standalone="no"?>
<!-- Created with Inkscape (http://www.inkscape.org/) -->

<svg
   width="172.6701mm"
   height="172.6701mm"
   viewBox="0 0 172.6701 172.6701"
   version="1.1"
   id="svg1"
   xml:space="preserve"
   xmlns="http://www.w3.org/2000/svg"
   xmlns:svg="http://www.w3.org/2000/svg"><defs
     id="defs1" /><g
     id="layer1"
     transform="translate(157.25102,198.81012)"><path
       id="path5"
       style="fill:#ffffff;fill-opacity:1;stroke-width:0.805188;stroke-linecap:round;stroke-linejoin:round"
       d="M -2.0863309 -198.17657 L -10.088943 -183.11289 L -10.930235 -165.68398 L -19.198981 -165.68398 L -11.423229 -155.47426 L -12.166336 -140.07934 C -28.353216 -157.12094 -50.823548 -166.77435 -74.327399 -166.78417 C -103.64471 -166.77397 -130.92652 -151.79225 -146.66717 -127.05894 L -157.25102 -127.05894 L -149.61996 -115.86014 L -157.25102 -26.140039 L -8.5138455 -26.140039 L 15.419061 -26.140039 L 8.0799737 -154.80195 L 15.419061 -165.68398 L 7.4593397 -165.68398 L 6.4490654 -183.39297 L -2.0863309 -198.17657 z M -83.43072 -192.21621 C -85.584619 -189.65499 -86.77489 -186.4211 -86.795372 -183.07465 C -86.842092 -175.15518 -80.459903 -168.69733 -72.540428 -168.65072 C -64.621155 -168.60402 -58.163395 -174.98588 -58.116503 -182.90515 C -58.102813 -186.26049 -59.266203 -189.5144 -61.404157 -192.10045 C -60.83125 -190.6836 -60.536835 -189.16959 -60.537027 -187.64129 C -60.575787 -181.07411 -65.930869 -175.78172 -72.498054 -175.82031 C -79.065241 -175.85911 -84.357627 -181.21415 -84.319038 -187.78134 C -84.309338 -189.30285 -84.007827 -190.80837 -83.43072 -192.21621 z M -54.14982 -119.64906 C -47.517589 -119.64906 -42.444076 -117.15466 -38.92956 -112.16631 C -35.358359 -107.23465 -33.572781 -100.06428 -33.572781 -90.654448 C -33.572781 -81.244616 -35.358359 -74.017081 -38.92956 -68.97205 C -42.444076 -63.983706 -47.517589 -61.489303 -54.14982 -61.489303 C -60.782051 -61.489303 -65.883627 -63.983706 -69.454829 -68.97205 C -73.02603 -74.017081 -74.811608 -81.244616 -74.811608 -90.654448 C -74.811608 -100.00759 -73.02603 -107.17797 -69.454829 -112.16631 C -65.883627 -117.15466 -60.782051 -119.64906 -54.14982 -119.64906 z M -123.78795 -119.56379 C -117.04234 -119.56379 -111.88412 -117.69351 -108.31292 -113.95225 C -104.68503 -110.21099 -102.87088 -104.7971 -102.87088 -97.711381 C -102.87088 -88.811721 -105.6485 -81.216258 -111.2037 -74.924142 C -116.70222 -68.688711 -124.69522 -64.09693 -135.18208 -61.149272 L -137.22279 -65.400692 C -131.55421 -67.838179 -126.99101 -70.956182 -123.53318 -74.754126 C -120.07535 -78.608756 -117.77946 -83.086732 -116.64575 -88.188448 C -119.82015 -86.601248 -122.90957 -85.807715 -125.91391 -85.807715 C -131.58249 -85.807715 -136.06046 -87.338137 -139.34824 -90.399166 C -142.57932 -93.460196 -144.19497 -97.598308 -144.19497 -102.8134 C -144.19497 -106.04448 -143.34479 -108.93539 -141.64422 -111.48625 C -139.88696 -114.03711 -137.47778 -116.0212 -134.41675 -117.43834 C -131.29904 -118.85549 -127.75595 -119.56379 -123.78795 -119.56379 z M -8.0637438 -119.13901 L -5.2582303 -117.86364 L -5.2582303 -68.716769 C -4.1812013 -68.093226 -2.4803313 -67.526269 -0.15621613 -67.016097 C 2.167899 -66.562611 4.0101207 -66.279392 5.3705783 -66.16602 L 5.1152967 -62.084615 L -29.576126 -62.084615 L -29.40611 -66.16602 C -24.36108 -66.732877 -20.506705 -67.583054 -17.842475 -68.716769 L -17.842475 -109.44555 L -29.236095 -109.44555 L -29.236095 -114.37703 C -25.608208 -114.66046 -21.867121 -115.19935 -18.012491 -115.99295 C -14.157861 -116.84324 -10.841345 -117.89193 -8.0637438 -119.13901 z M -54.14982 -115.31237 C -57.040792 -115.31237 -59.137653 -113.41351 -60.441425 -109.61556 C -61.688511 -105.81762 -62.312112 -99.497422 -62.312112 -90.654448 C -62.312112 -81.868159 -61.688511 -75.576025 -60.441425 -71.778081 C -59.137653 -68.036822 -57.040792 -66.16602 -54.14982 -66.16602 C -51.258847 -66.16602 -49.189533 -68.036822 -47.942447 -71.778081 C -46.638675 -75.576025 -45.98701 -81.868159 -45.98701 -90.654448 C -45.98701 -99.440737 -46.638675 -105.73287 -47.942447 -109.53081 C -49.189533 -113.38544 -51.258847 -115.31237 -54.14982 -115.31237 z M -124.29851 -113.69697 C -126.736 -113.69697 -128.60628 -112.76157 -129.91005 -110.89094 C -131.21383 -109.02031 -131.86601 -106.35597 -131.86601 -102.89814 C -131.86601 -99.383629 -131.15718 -96.634587 -129.74004 -94.650586 C -128.26621 -92.723271 -126.19741 -91.759807 -123.53318 -91.759807 C -121.20907 -91.759807 -118.62944 -92.723271 -115.79515 -94.650586 L -115.79515 -95.755945 C -115.79515 -101.93469 -116.4754 -106.46931 -117.83585 -109.36028 C -119.19631 -112.25126 -121.35085 -113.69697 -124.29851 -113.69697 z M -87.991165 -101.28274 C -86.007164 -101.28274 -84.533387 -100.68772 -83.569729 -99.497319 C -82.549386 -98.363604 -82.039073 -96.776539 -82.039073 -94.735852 C -82.039073 -92.695166 -82.549386 -91.107584 -83.569729 -89.973869 C -84.533387 -88.840154 -86.007164 -88.273198 -87.991165 -88.273198 C -89.975166 -88.273198 -91.477007 -88.840154 -92.49735 -89.973869 C -93.461007 -91.16427 -93.943256 -92.751852 -93.943256 -94.735852 C -93.943256 -96.833225 -93.461007 -98.448354 -92.49735 -99.582068 C -91.477007 -100.71578 -89.975166 -101.28274 -87.991165 -101.28274 z M -87.991165 -74.498845 C -86.007164 -74.498845 -84.533387 -73.903824 -83.569729 -72.713424 C -82.549386 -71.579709 -82.039073 -69.992127 -82.039073 -67.951441 C -82.039073 -65.910754 -82.549386 -64.323689 -83.569729 -63.189974 C -84.533387 -62.05626 -86.007164 -61.489303 -87.991165 -61.489303 C -89.975166 -61.489303 -91.477007 -62.05626 -92.49735 -63.189974 C -93.461007 -64.380375 -93.943256 -65.96744 -93.943256 -67.951441 C -93.943256 -70.048813 -93.461007 -71.664459 -92.49735 -72.798173 C -91.477007 -73.931888 -89.975166 -74.498845 -87.991165 -74.498845 z " /></g></svg>
