<?xml version="1.0" encoding="UTF-8" standalone="no"?>
<!-- Created with Inkscape (http://www.inkscape.org/) -->

<svg
   width="172.6701mm"
   height="172.6701mm"
   viewBox="0 0 172.6701 172.6701"
   version="1.1"
   id="svg1"
   xml:space="preserve"
   xmlns="http://www.w3.org/2000/svg"
   xmlns:svg="http://www.w3.org/2000/svg"><defs
     id="defs1" /><g
     id="layer1"
     transform="translate(157.25102,198.81012)"><path
       id="path5"
       style="fill:#ffffff;fill-opacity:1;stroke-width:0.805188;stroke-linecap:round;stroke-linejoin:round"
       d="M -2.0863309 -198.17657 L -10.088943 -183.11289 L -10.930235 -165.68398 L -19.198981 -165.68398 L -11.423229 -155.47426 L -12.166336 -140.07934 C -28.353216 -157.12094 -50.823548 -166.77435 -74.327399 -166.78417 C -103.64471 -166.77397 -130.92652 -151.79225 -146.66717 -127.05894 L -157.25102 -127.05894 L -149.61996 -115.86014 L -157.25102 -26.140039 L -8.5138455 -26.140039 L 15.419061 -26.140039 L 8.0799737 -154.80195 L 15.419061 -165.68398 L 7.4593397 -165.68398 L 6.4490654 -183.39297 L -2.0863309 -198.17657 z M -83.43072 -192.21621 C -85.584619 -189.65499 -86.77489 -186.4211 -86.795372 -183.07465 C -86.842092 -175.15518 -80.459903 -168.69733 -72.540428 -168.65072 C -64.621155 -168.60402 -58.163395 -174.98588 -58.116503 -182.90515 C -58.102813 -186.26049 -59.266203 -189.5144 -61.404157 -192.10045 C -60.83125 -190.6836 -60.536835 -189.16959 -60.537027 -187.64129 C -60.575787 -181.07411 -65.930869 -175.78172 -72.498054 -175.82031 C -79.065241 -175.85911 -84.357627 -181.21415 -84.319038 -187.78134 C -84.309338 -189.30285 -84.007827 -190.80837 -83.43072 -192.21621 z M -14.058727 -120.07436 C -9.5238679 -119.84761 -5.8389078 -118.85557 -3.0046211 -117.09831 L -23.241629 -83.767013 L -10.232087 -83.767013 L -9.3820096 -97.626632 C -7.5680661 -97.626632 -6.2642207 -97.995076 -5.4706204 -98.731991 C -4.6203344 -99.468905 -3.9686701 -100.71611 -3.5151842 -102.47336 L 1.3315484 -102.47336 L 1.246799 -83.341716 C 3.4008569 -82.718173 6.1218356 -82.066508 9.4096083 -81.38628 L 8.9843112 -77.304875 L 0.82150197 -77.304875 L 0.82150197 -62.084615 L -10.232087 -62.084615 L -10.232087 -77.304875 L -34.805264 -77.304875 L -35.485843 -80.36567 L -14.058727 -120.07436 z M -58.188333 -119.64906 C -51.556102 -119.64906 -46.482589 -117.15466 -42.968073 -112.16631 C -39.396872 -107.23465 -37.611294 -100.06428 -37.611294 -90.654448 C -37.611294 -81.244616 -39.396872 -74.017081 -42.968073 -68.97205 C -46.482589 -63.983706 -51.556102 -61.489303 -58.188333 -61.489303 C -64.820564 -61.489303 -69.92214 -63.983706 -73.493342 -68.97205 C -77.064543 -74.017081 -78.850121 -81.244616 -78.850121 -90.654448 C -78.850121 -100.00759 -77.064543 -107.17797 -73.493342 -112.16631 C -69.92214 -117.15466 -64.820564 -119.64906 -58.188333 -119.64906 z M -127.82698 -119.56379 C -121.08137 -119.56379 -115.92315 -117.69351 -112.35195 -113.95225 C -108.72406 -110.21099 -106.90991 -104.7971 -106.90991 -97.711381 C -106.90991 -88.811721 -109.68753 -81.216258 -115.24273 -74.924142 C -120.74125 -68.688711 -128.73374 -64.09693 -139.2206 -61.149272 L -141.2613 -65.400692 C -135.59272 -67.838179 -131.02952 -70.956182 -127.57169 -74.754126 C -124.11386 -78.608756 -121.81797 -83.086732 -120.68426 -88.188448 C -123.85866 -86.601248 -126.94808 -85.807715 -129.95243 -85.807715 C -135.621 -85.807715 -140.09949 -87.338137 -143.38727 -90.399166 C -146.61835 -93.460196 -148.234 -97.598308 -148.234 -102.8134 C -148.234 -106.04448 -147.38331 -108.93539 -145.68273 -111.48625 C -143.92548 -114.03711 -141.5163 -116.0212 -138.45527 -117.43834 C -135.33755 -118.85549 -131.79498 -119.56379 -127.82698 -119.56379 z M -58.188333 -115.31237 C -61.079305 -115.31237 -63.176683 -113.41351 -64.480455 -109.61556 C -65.727541 -105.81762 -66.351142 -99.497422 -66.351142 -90.654448 C -66.351142 -81.868159 -65.727541 -75.576025 -64.480455 -71.778081 C -63.176683 -68.036822 -61.079305 -66.16602 -58.188333 -66.16602 C -55.29736 -66.16602 -53.228563 -68.036822 -51.981477 -71.778081 C -50.677705 -75.576025 -50.025524 -81.868159 -50.025524 -90.654448 C -50.025524 -99.440737 -50.677705 -105.73287 -51.981477 -109.53081 C -53.228563 -113.38544 -55.29736 -115.31237 -58.188333 -115.31237 z M -128.33702 -113.69697 C -130.77451 -113.69697 -132.64531 -112.76157 -133.94908 -110.89094 C -135.25286 -109.02031 -135.90452 -106.35597 -135.90452 -102.89814 C -135.90452 -99.383629 -135.19621 -96.634587 -133.77907 -94.650586 C -132.30524 -92.723271 -130.23592 -91.759807 -127.57169 -91.759807 C -125.24758 -91.759807 -122.66847 -92.723271 -119.83418 -94.650586 L -119.83418 -95.755945 C -119.83418 -101.93469 -120.51443 -106.46931 -121.87488 -109.36028 C -123.23534 -112.25126 -125.38936 -113.69697 -128.33702 -113.69697 z M -92.029678 -101.28274 C -90.045677 -101.28274 -88.5719 -100.68772 -87.608242 -99.497319 C -86.587899 -98.363604 -86.077587 -96.776539 -86.077587 -94.735852 C -86.077587 -92.695166 -86.587899 -91.107584 -87.608242 -89.973869 C -88.5719 -88.840154 -90.045677 -88.273198 -92.029678 -88.273198 C -94.013679 -88.273198 -95.516036 -88.840154 -96.53638 -89.973869 C -97.500037 -91.16427 -97.98177 -92.751852 -97.98177 -94.735852 C -97.98177 -96.833225 -97.500037 -98.448354 -96.53638 -99.582068 C -95.516036 -100.71578 -94.013679 -101.28274 -92.029678 -101.28274 z M -92.029678 -74.498845 C -90.045677 -74.498845 -88.5719 -73.903824 -87.608242 -72.713424 C -86.587899 -71.579709 -86.077587 -69.992127 -86.077587 -67.951441 C -86.077587 -65.910754 -86.587899 -64.323689 -87.608242 -63.189974 C -88.5719 -62.05626 -90.045677 -61.489303 -92.029678 -61.489303 C -94.013679 -61.489303 -95.516036 -62.05626 -96.53638 -63.189974 C -97.500037 -64.380375 -97.98177 -65.96744 -97.98177 -67.951441 C -97.98177 -70.048813 -97.500037 -71.664459 -96.53638 -72.798173 C -95.516036 -73.931888 -94.013679 -74.498845 -92.029678 -74.498845 z " /></g></svg>
