<?xml version="1.0" encoding="UTF-8" standalone="no"?>
<!-- Created with Inkscape (http://www.inkscape.org/) -->

<svg
   width="172.6701mm"
   height="172.6701mm"
   viewBox="0 0 172.6701 172.6701"
   version="1.1"
   id="svg1"
   xml:space="preserve"
   xmlns="http://www.w3.org/2000/svg"
   xmlns:svg="http://www.w3.org/2000/svg"><defs
     id="defs1" /><g
     id="layer1"
     transform="translate(157.25102,198.81012)"><path
       id="path5"
       style="fill:#ffffff;fill-opacity:1;stroke-width:0.805188;stroke-linecap:round;stroke-linejoin:round"
       d="M -2.0863309 -198.17657 L -10.088943 -183.11289 L -10.930235 -165.68398 L -19.198981 -165.68398 L -11.423229 -155.47426 L -12.166336 -140.07934 C -28.353216 -157.12094 -50.823548 -166.77435 -74.327399 -166.78417 C -103.64471 -166.77397 -130.92652 -151.79225 -146.66717 -127.05894 L -157.25102 -127.05894 L -149.61996 -115.86014 L -157.25102 -26.140039 L -8.5138455 -26.140039 L 15.419061 -26.140039 L 8.0799737 -154.80195 L 15.419061 -165.68398 L 7.4593397 -165.68398 L 6.4490654 -183.39297 L -2.0863309 -198.17657 z M -83.43072 -192.21621 C -85.584619 -189.65499 -86.77489 -186.4211 -86.795372 -183.07465 C -86.842092 -175.15518 -80.459903 -168.69733 -72.540428 -168.65072 C -64.621155 -168.60402 -58.163395 -174.98588 -58.116503 -182.90515 C -58.102813 -186.26049 -59.266203 -189.5144 -61.404157 -192.10045 C -60.83125 -190.6836 -60.536835 -189.16959 -60.537027 -187.64129 C -60.575787 -181.07411 -65.930869 -175.78172 -72.498054 -175.82031 C -79.065241 -175.85911 -84.357627 -181.21415 -84.319038 -187.78134 C -84.309338 -189.30285 -84.007827 -190.80837 -83.43072 -192.21621 z M -56.785318 -119.64906 C -50.153087 -119.64906 -45.08009 -117.15466 -41.565575 -112.16631 C -37.994374 -107.23465 -36.208796 -100.06428 -36.208796 -90.654448 C -36.208796 -81.244616 -37.994374 -74.017081 -41.565575 -68.97205 C -45.08009 -63.983706 -50.153087 -61.489303 -56.785318 -61.489303 C -63.417549 -61.489303 -68.519642 -63.983706 -72.090843 -68.97205 C -75.662045 -74.017081 -77.447622 -81.244616 -77.447622 -90.654448 C -77.447622 -100.00759 -75.662045 -107.17797 -72.090843 -112.16631 C -68.519642 -117.15466 -63.417549 -119.64906 -56.785318 -119.64906 z M -126.42396 -119.56379 C -119.67836 -119.56379 -114.52014 -117.69351 -110.94894 -113.95225 C -107.32105 -110.21099 -105.50689 -104.7971 -105.50689 -97.711381 C -105.50689 -88.811721 -108.28451 -81.216258 -113.83972 -74.924142 C -119.33823 -68.688711 -127.33072 -64.09693 -137.81758 -61.149272 L -139.85828 -65.400692 C -134.18971 -67.838179 -129.62651 -70.956182 -126.16868 -74.754126 C -122.71085 -78.608756 -120.41548 -83.086732 -119.28176 -88.188448 C -122.45616 -86.601248 -125.54559 -85.807715 -128.54993 -85.807715 C -134.2185 -85.807715 -138.69648 -87.338137 -141.98425 -90.399166 C -145.21534 -93.460196 -146.83098 -97.598308 -146.83098 -102.8134 C -146.83098 -106.04448 -145.98081 -108.93539 -144.28024 -111.48625 C -142.52298 -114.03711 -140.1138 -116.0212 -137.05277 -117.43834 C -133.93505 -118.85549 -130.39196 -119.56379 -126.42396 -119.56379 z M -24.984675 -119.05375 L -20.733255 -118.969 C -14.724567 -118.85563 -11.549919 -118.79847 -11.209805 -118.79847 L 0.86387665 -118.969 L 3.329876 -117.18306 L 2.564548 -110.72092 L -18.522537 -110.72092 L -19.713162 -96.521273 C -16.765504 -97.258188 -14.101169 -97.626632 -11.720368 -97.626632 C -6.1084804 -97.626632 -1.54528 -96.124274 1.9692355 -93.11993 C 5.5404368 -90.172272 7.3260145 -85.836165 7.3260145 -80.110905 C 7.3260145 -76.539704 6.4758379 -73.336993 4.7752658 -70.502706 C 3.1313795 -67.66842 0.75078153 -65.429173 -2.3669339 -63.785287 C -5.4846493 -62.198086 -9.1696094 -61.404554 -13.42104 -61.404554 C -16.878869 -61.404554 -20.024936 -61.886286 -22.859223 -62.849943 C -25.636824 -63.813601 -27.81891 -65.14551 -29.40611 -66.846082 C -30.993311 -68.60334 -31.786844 -70.559366 -31.786844 -72.713424 C -31.786844 -74.980853 -31.163243 -76.709787 -29.916157 -77.900188 C -28.669071 -79.147274 -27.138649 -79.770358 -25.324706 -79.770358 C -24.304362 -79.770358 -23.284254 -79.572362 -22.263911 -79.175562 C -21.186882 -78.778762 -20.2229 -78.211805 -19.372614 -77.474891 C -19.882786 -76.28449 -20.137942 -75.037289 -20.137942 -73.733517 C -20.137942 -71.862888 -19.599566 -70.332466 -18.522537 -69.142066 C -17.388822 -67.951665 -15.688469 -67.356645 -13.42104 -67.356645 C -8.3193234 -67.356645 -5.7682767 -71.608045 -5.7682767 -80.110905 C -5.7682767 -84.135593 -6.5618093 -87.054567 -8.1490099 -88.86851 C -9.7362105 -90.73914 -11.862169 -91.674541 -14.526398 -91.674541 C -16.170285 -91.674541 -17.927282 -91.36274 -19.797911 -90.739197 C -21.668541 -90.115654 -23.510762 -89.236897 -25.324706 -88.103182 L -30.001423 -92.609884 L -27.790705 -116.75776 L -24.984675 -119.05375 z M -56.785318 -115.31237 C -59.67629 -115.31237 -61.773668 -113.41351 -63.07744 -109.61556 C -64.324526 -105.81762 -64.948127 -99.497422 -64.948127 -90.654448 C -64.948127 -81.868159 -64.324526 -75.576025 -63.07744 -71.778081 C -61.773668 -68.036822 -59.67629 -66.16602 -56.785318 -66.16602 C -53.894345 -66.16602 -51.825548 -68.036822 -50.578461 -71.778081 C -49.274689 -75.576025 -48.622508 -81.868159 -48.622508 -90.654448 C -48.622508 -99.440737 -49.274689 -105.73287 -50.578461 -109.53081 C -51.825548 -113.38544 -53.894345 -115.31237 -56.785318 -115.31237 z M -126.93401 -113.69697 C -129.37149 -113.69697 -131.2423 -112.76157 -132.54607 -110.89094 C -133.84984 -109.02031 -134.5015 -106.35597 -134.5015 -102.89814 C -134.5015 -99.383629 -133.7932 -96.634587 -132.37605 -94.650586 C -130.90222 -92.723271 -128.83291 -91.759807 -126.16868 -91.759807 C -123.84456 -91.759807 -121.26545 -92.723271 -118.43117 -94.650586 L -118.43117 -95.755945 C -118.43117 -101.93469 -119.11141 -106.46931 -120.47187 -109.36028 C -121.83233 -112.25126 -123.98635 -113.69697 -126.93401 -113.69697 z M -90.626663 -101.28274 C -88.642662 -101.28274 -87.168885 -100.68772 -86.205227 -99.497319 C -85.184884 -98.363604 -84.675088 -96.776539 -84.675088 -94.735852 C -84.675088 -92.695166 -85.184884 -91.107584 -86.205227 -89.973869 C -87.168885 -88.840154 -88.642662 -88.273198 -90.626663 -88.273198 C -92.610664 -88.273198 -94.113021 -88.840154 -95.133365 -89.973869 C -96.097022 -91.16427 -96.578754 -92.751852 -96.578754 -94.735852 C -96.578754 -96.833225 -96.097022 -98.448354 -95.133365 -99.582068 C -94.113021 -100.71578 -92.610664 -101.28274 -90.626663 -101.28274 z M -90.626663 -74.498845 C -88.642662 -74.498845 -87.168885 -73.903824 -86.205227 -72.713424 C -85.184884 -71.579709 -84.675088 -69.992127 -84.675088 -67.951441 C -84.675088 -65.910754 -85.184884 -64.323689 -86.205227 -63.189974 C -87.168885 -62.05626 -88.642662 -61.489303 -90.626663 -61.489303 C -92.610664 -61.489303 -94.113021 -62.05626 -95.133365 -63.189974 C -96.097022 -64.380375 -96.578754 -65.96744 -96.578754 -67.951441 C -96.578754 -70.048813 -96.097022 -71.664459 -95.133365 -72.798173 C -94.113021 -73.931888 -92.610664 -74.498845 -90.626663 -74.498845 z " /></g></svg>
