<?xml version="1.0" encoding="UTF-8" standalone="no"?>
<!-- Created with Inkscape (http://www.inkscape.org/) -->

<svg
   width="172.6701mm"
   height="172.6701mm"
   viewBox="0 0 172.6701 172.6701"
   version="1.1"
   id="svg1"
   xml:space="preserve"
   xmlns="http://www.w3.org/2000/svg"
   xmlns:svg="http://www.w3.org/2000/svg"><defs
     id="defs1" /><g
     id="layer1"
     transform="translate(157.25102,198.81012)"><path
       id="path5"
       style="fill:#ffffff;fill-opacity:1;stroke-width:0.805188;stroke-linecap:round;stroke-linejoin:round"
       d="M -2.0863309 -198.17657 L -10.088943 -183.11289 L -10.930235 -165.68398 L -19.198981 -165.68398 L -11.423229 -155.47426 L -12.166336 -140.07934 C -28.353216 -157.12094 -50.823548 -166.77435 -74.327399 -166.78417 C -103.64471 -166.77397 -130.92652 -151.79225 -146.66717 -127.05894 L -157.25102 -127.05894 L -149.61996 -115.86014 L -157.25102 -26.140039 L -8.5138455 -26.140039 L 15.419061 -26.140039 L 8.0799737 -154.80195 L 15.419061 -165.68398 L 7.4593397 -165.68398 L 6.4490654 -183.39297 L -2.0863309 -198.17657 z M -83.43072 -192.21621 C -85.584619 -189.65499 -86.77489 -186.4211 -86.795372 -183.07465 C -86.842092 -175.15518 -80.459903 -168.69733 -72.540428 -168.65072 C -64.621155 -168.60402 -58.163395 -174.98588 -58.116503 -182.90515 C -58.102813 -186.26049 -59.266203 -189.5144 -61.404157 -192.10045 C -60.83125 -190.6836 -60.536835 -189.16959 -60.537027 -187.64129 C -60.575787 -181.07411 -65.930869 -175.78172 -72.498054 -175.82031 C -79.065241 -175.85911 -84.357627 -181.21415 -84.319038 -187.78134 C -84.309338 -189.30285 -84.007827 -190.80837 -83.43072 -192.21621 z M -0.49624705 -119.90383 L 1.5444553 -115.65241 C -9.9060632 -110.72075 -16.793734 -103.12528 -19.117849 -92.865166 C -15.830077 -94.452366 -12.712073 -95.245899 -9.7644152 -95.245899 C -4.0958417 -95.245899 0.35407067 -93.715477 3.5851576 -90.654448 C 6.8729302 -87.593418 8.5166395 -83.455306 8.5166395 -78.240218 C 8.5166395 -75.009132 7.6378825 -72.118221 5.8806247 -69.567363 C 4.1800526 -67.016505 1.7708743 -65.032415 -1.3468411 -63.615271 C -4.4078708 -62.198128 -7.9223822 -61.489303 -11.890384 -61.489303 C -18.635986 -61.489303 -23.822787 -63.360105 -27.450674 -67.101363 C -31.021875 -70.842622 -32.807453 -76.255999 -32.807453 -83.341716 C -32.807453 -92.241376 -30.057894 -99.808775 -24.559378 -106.04421 C -19.004176 -112.33632 -10.983108 -116.95617 -0.49624705 -119.90383 z M -57.550646 -119.64906 C -50.918415 -119.64906 -45.844902 -117.15466 -42.330386 -112.16631 C -38.759185 -107.23465 -36.973607 -100.06428 -36.973607 -90.654448 C -36.973607 -81.244616 -38.759185 -74.017081 -42.330386 -68.97205 C -45.844902 -63.983706 -50.918415 -61.489303 -57.550646 -61.489303 C -64.182877 -61.489303 -69.284453 -63.983706 -72.855655 -68.97205 C -76.426856 -74.017081 -78.212434 -81.244616 -78.212434 -90.654448 C -78.212434 -100.00759 -76.426856 -107.17797 -72.855655 -112.16631 C -69.284453 -117.15466 -64.182877 -119.64906 -57.550646 -119.64906 z M -127.18929 -119.56379 C -120.44369 -119.56379 -115.28547 -117.69351 -111.71426 -113.95225 C -108.08638 -110.21099 -106.27222 -104.7971 -106.27222 -97.711381 C -106.27222 -88.811721 -109.04984 -81.216258 -114.60504 -74.924142 C -120.10356 -68.688711 -128.09605 -64.09693 -138.58291 -61.149272 L -140.62361 -65.400692 C -134.95504 -67.838179 -130.39184 -70.956182 -126.93401 -74.754126 C -123.47618 -78.608756 -121.18029 -83.086732 -120.04657 -88.188448 C -123.22097 -86.601248 -126.3104 -85.807715 -129.31474 -85.807715 C -134.98331 -85.807715 -139.46181 -87.338137 -142.74958 -90.399166 C -145.98067 -93.460196 -147.59631 -97.598308 -147.59631 -102.8134 C -147.59631 -106.04448 -146.74562 -108.93539 -145.04505 -111.48625 C -143.28779 -114.03711 -140.87861 -116.0212 -137.81758 -117.43834 C -134.69987 -118.85549 -131.15729 -119.56379 -127.18929 -119.56379 z M -57.550646 -115.31237 C -60.441618 -115.31237 -62.538996 -113.41351 -63.842768 -109.61556 C -65.089854 -105.81762 -65.713455 -99.497422 -65.713455 -90.654448 C -65.713455 -81.868159 -65.089854 -75.576025 -63.842768 -71.778081 C -62.538996 -68.036822 -60.441618 -66.16602 -57.550646 -66.16602 C -54.659673 -66.16602 -52.590876 -68.036822 -51.343789 -71.778081 C -50.040017 -75.576025 -49.387836 -81.868159 -49.387836 -90.654448 C -49.387836 -99.440737 -50.040017 -105.73287 -51.343789 -109.53081 C -52.590876 -113.38544 -54.659673 -115.31237 -57.550646 -115.31237 z M -127.69934 -113.69697 C -130.13682 -113.69697 -132.00762 -112.76157 -133.3114 -110.89094 C -134.61517 -109.02031 -135.26683 -106.35597 -135.26683 -102.89814 C -135.26683 -99.383629 -134.55852 -96.634587 -133.14138 -94.650586 C -131.66755 -92.723271 -129.59824 -91.759807 -126.93401 -91.759807 C -124.60989 -91.759807 -122.03078 -92.723271 -119.1965 -94.650586 L -119.1965 -95.755945 C -119.1965 -101.93469 -119.87674 -106.46931 -121.2372 -109.36028 C -122.59766 -112.25126 -124.75168 -113.69697 -127.69934 -113.69697 z M -91.391991 -101.28274 C -89.40799 -101.28274 -87.934213 -100.68772 -86.970555 -99.497319 C -85.950212 -98.363604 -85.439899 -96.776539 -85.439899 -94.735852 C -85.439899 -92.695166 -85.950212 -91.107584 -86.970555 -89.973869 C -87.934213 -88.840154 -89.40799 -88.273198 -91.391991 -88.273198 C -93.375992 -88.273198 -94.878349 -88.840154 -95.898693 -89.973869 C -96.86235 -91.16427 -97.344082 -92.751852 -97.344082 -94.735852 C -97.344082 -96.833225 -96.86235 -98.448354 -95.898693 -99.582068 C -94.878349 -100.71578 -93.375992 -101.28274 -91.391991 -101.28274 z M -12.145148 -89.293807 C -14.525949 -89.293807 -17.105576 -88.330343 -19.883177 -86.403028 L -19.883177 -85.297669 C -19.883177 -79.118924 -19.202933 -74.583787 -17.842475 -71.692814 C -16.482017 -68.801842 -14.327995 -67.356645 -11.380337 -67.356645 C -8.9428506 -67.356645 -7.0720486 -68.291529 -5.7682767 -70.162159 C -4.4645048 -72.032788 -3.8123237 -74.697123 -3.8123237 -78.154952 C -3.8123237 -81.669468 -4.5492124 -84.390447 -6.0230415 -86.317762 C -7.4401849 -88.301762 -9.4809189 -89.293807 -12.145148 -89.293807 z M -91.391991 -74.498845 C -89.40799 -74.498845 -87.934213 -73.903824 -86.970555 -72.713424 C -85.950212 -71.579709 -85.439899 -69.992127 -85.439899 -67.951441 C -85.439899 -65.910754 -85.950212 -64.323689 -86.970555 -63.189974 C -87.934213 -62.05626 -89.40799 -61.489303 -91.391991 -61.489303 C -93.375992 -61.489303 -94.878349 -62.05626 -95.898693 -63.189974 C -96.86235 -64.380375 -97.344082 -65.96744 -97.344082 -67.951441 C -97.344082 -70.048813 -96.86235 -71.664459 -95.898693 -72.798173 C -94.878349 -73.931888 -93.375992 -74.498845 -91.391991 -74.498845 z " /></g></svg>
