<?xml version="1.0" encoding="UTF-8" standalone="no"?>
<!-- Created with Inkscape (http://www.inkscape.org/) -->

<svg
   width="172.6701mm"
   height="172.6701mm"
   viewBox="0 0 172.6701 172.6701"
   version="1.1"
   id="svg1"
   xml:space="preserve"
   xmlns="http://www.w3.org/2000/svg"
   xmlns:svg="http://www.w3.org/2000/svg"><defs
     id="defs1" /><g
     id="layer1"
     transform="translate(157.25102,198.81012)"><path
       id="path5"
       style="fill:#ffffff;fill-opacity:1;stroke-width:0.805188;stroke-linecap:round;stroke-linejoin:round"
       d="M -2.0863309 -198.17657 L -10.088943 -183.11289 L -10.930235 -165.68398 L -19.198981 -165.68398 L -11.423229 -155.47426 L -12.166336 -140.07934 C -28.353216 -157.12094 -50.823548 -166.77435 -74.327399 -166.78417 C -103.64471 -166.77397 -130.92652 -151.79225 -146.66717 -127.05894 L -157.25102 -127.05894 L -149.61996 -115.86014 L -157.25102 -26.140039 L -8.5138455 -26.140039 L 15.419061 -26.140039 L 8.0799737 -154.80195 L 15.419061 -165.68398 L 7.4593397 -165.68398 L 6.4490654 -183.39297 L -2.0863309 -198.17657 z M -83.43072 -192.21621 C -85.584619 -189.65499 -86.77489 -186.4211 -86.795372 -183.07465 C -86.842092 -175.15518 -80.459903 -168.69733 -72.540428 -168.65072 C -64.621155 -168.60402 -58.163395 -174.98588 -58.116503 -182.90515 C -58.102813 -186.26049 -59.266203 -189.5144 -61.404157 -192.10045 C -60.83125 -190.6836 -60.536835 -189.16959 -60.537027 -187.64129 C -60.575787 -181.07411 -65.930869 -175.78172 -72.498054 -175.82031 C -79.065241 -175.85911 -84.357627 -181.21415 -84.319038 -187.78134 C -84.309338 -189.30285 -84.007827 -190.80837 -83.43072 -192.21621 z M -120.59951 -119.56379 C -113.85391 -119.56379 -108.69569 -117.69351 -105.12449 -113.95225 C -101.4966 -110.21099 -99.682441 -104.7971 -99.682441 -97.711381 C -99.682441 -88.811721 -102.46006 -81.216258 -108.01527 -74.924142 C -113.51378 -68.688711 -121.50627 -64.09693 -131.99313 -61.149272 L -134.03383 -65.400692 C -128.36526 -67.838179 -123.80206 -70.956182 -120.34423 -74.754126 C -116.8864 -78.608756 -114.59103 -83.086732 -113.45731 -88.188448 C -116.63171 -86.601248 -119.72062 -85.807715 -122.72496 -85.807715 C -128.39354 -85.807715 -132.87203 -87.338137 -136.1598 -90.399166 C -139.39089 -93.460196 -141.00653 -97.598308 -141.00653 -102.8134 C -141.00653 -106.04448 -140.15584 -108.93539 -138.45527 -111.48625 C -136.69801 -114.03711 -134.28883 -116.0212 -131.2278 -117.43834 C -128.11009 -118.85549 -124.56751 -119.56379 -120.59951 -119.56379 z M -50.195539 -119.13901 L -47.389509 -117.86364 L -47.389509 -68.716769 C -46.31248 -68.093226 -44.612127 -67.526269 -42.288011 -67.016097 C -39.963896 -66.562611 -38.121675 -66.279392 -36.761217 -66.16602 L -37.016499 -62.084615 L -71.707921 -62.084615 L -71.537906 -66.16602 C -66.492875 -66.732877 -62.637983 -67.583054 -59.973754 -68.716769 L -59.973754 -109.44555 L -71.36789 -109.44555 L -71.36789 -114.37703 C -67.740003 -114.66046 -63.998916 -115.19935 -60.144286 -115.99295 C -56.289656 -116.84324 -52.97314 -117.89193 -50.195539 -119.13901 z M -11.252696 -119.13901 L -8.4466662 -117.86364 L -8.4466662 -68.716769 C -7.3696372 -68.093226 -5.6692839 -67.526269 -3.3451688 -67.016097 C -1.0210536 -66.562611 0.82168479 -66.279392 2.1821424 -66.16602 L 1.9268609 -62.084615 L -32.765078 -62.084615 L -32.594546 -66.16602 C -27.549516 -66.732877 -23.69514 -67.583054 -21.030911 -68.716769 L -21.030911 -109.44555 L -32.424531 -109.44555 L -32.424531 -114.37703 C -28.796644 -114.66046 -25.055556 -115.19935 -21.200926 -115.99295 C -17.346296 -116.84324 -14.030297 -117.89193 -11.252696 -119.13901 z M -121.10956 -113.69697 C -123.54704 -113.69697 -125.41785 -112.76157 -126.72162 -110.89094 C -128.02539 -109.02031 -128.67705 -106.35597 -128.67705 -102.89814 C -128.67705 -99.383629 -127.96875 -96.634587 -126.5516 -94.650586 C -125.07777 -92.723271 -123.00846 -91.759807 -120.34423 -91.759807 C -118.02011 -91.759807 -115.441 -92.723271 -112.60672 -94.650586 L -112.60672 -95.755945 C -112.60672 -101.93469 -113.28696 -106.46931 -114.64742 -109.36028 C -116.00788 -112.25126 -118.1619 -113.69697 -121.10956 -113.69697 z M -84.802212 -101.28274 C -82.818211 -101.28274 -81.344434 -100.68772 -80.380777 -99.497319 C -79.360433 -98.363604 -78.850638 -96.776539 -78.850638 -94.735852 C -78.850638 -92.695166 -79.360433 -91.107584 -80.380777 -89.973869 C -81.344434 -88.840154 -82.818211 -88.273198 -84.802212 -88.273198 C -86.786213 -88.273198 -88.288571 -88.840154 -89.308914 -89.973869 C -90.272571 -91.16427 -90.754304 -92.751852 -90.754304 -94.735852 C -90.754304 -96.833225 -90.272571 -98.448354 -89.308914 -99.582068 C -88.288571 -100.71578 -86.786213 -101.28274 -84.802212 -101.28274 z M -84.802212 -74.498845 C -82.818211 -74.498845 -81.344434 -73.903824 -80.380777 -72.713424 C -79.360433 -71.579709 -78.850638 -69.992127 -78.850638 -67.951441 C -78.850638 -65.910754 -79.360433 -64.323689 -80.380777 -63.189974 C -81.344434 -62.05626 -82.818211 -61.489303 -84.802212 -61.489303 C -86.786213 -61.489303 -88.288571 -62.05626 -89.308914 -63.189974 C -90.272571 -64.380375 -90.754304 -65.96744 -90.754304 -67.951441 C -90.754304 -70.048813 -90.272571 -71.664459 -89.308914 -72.798173 C -88.288571 -73.931888 -86.786213 -74.498845 -84.802212 -74.498845 z " /></g></svg>
