<?xml version="1.0" encoding="UTF-8" standalone="no"?>
<!-- Created with Inkscape (http://www.inkscape.org/) -->

<svg
   width="172.6701mm"
   height="172.6701mm"
   viewBox="0 0 172.6701 172.6701"
   version="1.1"
   id="svg1"
   xml:space="preserve"
   xmlns="http://www.w3.org/2000/svg"
   xmlns:svg="http://www.w3.org/2000/svg"><defs
     id="defs1" /><g
     id="layer1"
     transform="translate(157.25102,198.81012)"><path
       id="path5"
       style="fill:#ffffff;fill-opacity:1;stroke-width:0.805188;stroke-linecap:round;stroke-linejoin:round"
       d="M -2.0863309 -198.17657 L -10.088943 -183.11289 L -10.930235 -165.68398 L -19.198981 -165.68398 L -11.423229 -155.47426 L -12.166336 -140.07934 C -28.353216 -157.12094 -50.823548 -166.77435 -74.327399 -166.78417 C -103.64471 -166.77397 -130.92652 -151.79225 -146.66717 -127.05894 L -157.25102 -127.05894 L -149.61996 -115.86014 L -157.25102 -26.140039 L -8.5138455 -26.140039 L 15.419061 -26.140039 L 8.0799737 -154.80195 L 15.419061 -165.68398 L 7.4593397 -165.68398 L 6.4490654 -183.39297 L -2.0863309 -198.17657 z M -83.43072 -192.21621 C -85.584619 -189.65499 -86.77489 -186.4211 -86.795372 -183.07465 C -86.842092 -175.15518 -80.459903 -168.69733 -72.540428 -168.65072 C -64.621155 -168.60402 -58.163395 -174.98588 -58.116503 -182.90515 C -58.102813 -186.26049 -59.266203 -189.5144 -61.404157 -192.10045 C -60.83125 -190.6836 -60.536835 -189.16959 -60.537027 -187.64129 C -60.575787 -181.07411 -65.930869 -175.78172 -72.498054 -175.82031 C -79.065241 -175.85911 -84.357627 -181.21415 -84.319038 -187.78134 C -84.309338 -189.30285 -84.007827 -190.80837 -83.43072 -192.21621 z M -3.6851997 -119.90383 L -1.6444974 -115.65241 C -13.095016 -110.72075 -19.98217 -103.12528 -22.306285 -92.865166 C -19.018513 -94.452366 -15.901026 -95.245899 -12.953368 -95.245899 C -7.2847943 -95.245899 -2.834882 -93.715477 0.39620493 -90.654448 C 3.6839776 -87.593418 5.3282036 -83.455306 5.3282036 -78.240218 C 5.3282036 -75.009132 4.4494466 -72.118221 2.6921888 -69.567363 C 0.99161677 -67.016505 -1.4175616 -65.032415 -4.535277 -63.615271 C -7.5963067 -62.198128 -11.110818 -61.489303 -15.078819 -61.489303 C -21.824422 -61.489303 -27.011223 -63.360105 -30.63911 -67.101363 C -34.210311 -70.842622 -35.995889 -76.255999 -35.995889 -83.341716 C -35.995889 -92.241376 -33.246847 -99.808775 -27.74833 -106.04421 C -22.193128 -112.33632 -14.172061 -116.95617 -3.6851997 -119.90383 z M -124.00085 -119.56379 C -117.25525 -119.56379 -112.09651 -117.69351 -108.52531 -113.95225 C -104.89742 -110.21099 -103.08378 -104.7971 -103.08378 -97.711381 C -103.08378 -88.811721 -105.86141 -81.216258 -111.41661 -74.924142 C -116.91512 -68.688711 -124.90761 -64.09693 -135.39447 -61.149272 L -137.43518 -65.400692 C -131.7666 -67.838179 -127.2034 -70.956182 -123.74557 -74.754126 C -120.28774 -78.608756 -117.99185 -83.086732 -116.85814 -88.188448 C -120.03254 -86.601248 -123.12196 -85.807715 -126.1263 -85.807715 C -131.79488 -85.807715 -136.27285 -87.338137 -139.56063 -90.399166 C -142.79171 -93.460196 -144.40736 -97.598308 -144.40736 -102.8134 C -144.40736 -106.04448 -143.55718 -108.93539 -141.85661 -111.48625 C -140.09935 -114.03711 -137.69017 -116.0212 -134.62915 -117.43834 C -131.51143 -118.85549 -127.96885 -119.56379 -124.00085 -119.56379 z M -53.596882 -119.13901 L -50.790852 -117.86364 L -50.790852 -68.716769 C -49.713823 -68.093226 -48.013469 -67.526269 -45.689354 -67.016097 C -43.365239 -66.562611 -41.523017 -66.279392 -40.16256 -66.16602 L -40.417325 -62.084615 L -75.109264 -62.084615 L -74.939248 -66.16602 C -69.894218 -66.732877 -66.039326 -67.583054 -63.375096 -68.716769 L -63.375096 -109.44555 L -74.768716 -109.44555 L -74.768716 -114.37703 C -71.140829 -114.66046 -67.399742 -115.19935 -63.545112 -115.99295 C -59.690482 -116.84324 -56.374483 -117.89193 -53.596882 -119.13901 z M -124.5109 -113.69697 C -126.94839 -113.69697 -128.81867 -112.76157 -130.12244 -110.89094 C -131.42622 -109.02031 -132.0784 -106.35597 -132.0784 -102.89814 C -132.0784 -99.383629 -131.36957 -96.634587 -129.95243 -94.650586 C -128.4786 -92.723271 -126.4098 -91.759807 -123.74557 -91.759807 C -121.42146 -91.759807 -118.84235 -92.723271 -116.00806 -94.650586 L -116.00806 -95.755945 C -116.00806 -101.93469 -116.6883 -106.46931 -118.04876 -109.36028 C -119.40922 -112.25126 -121.56324 -113.69697 -124.5109 -113.69697 z M -88.203555 -101.28274 C -86.219554 -101.28274 -84.745777 -100.68772 -83.782119 -99.497319 C -82.761776 -98.363604 -82.251464 -96.776539 -82.251464 -94.735852 C -82.251464 -92.695166 -82.761776 -91.107584 -83.782119 -89.973869 C -84.745777 -88.840154 -86.219554 -88.273198 -88.203555 -88.273198 C -90.187556 -88.273198 -91.689913 -88.840154 -92.710257 -89.973869 C -93.673914 -91.16427 -94.155646 -92.751852 -94.155646 -94.735852 C -94.155646 -96.833225 -93.673914 -98.448354 -92.710257 -99.582068 C -91.689913 -100.71578 -90.187556 -101.28274 -88.203555 -101.28274 z M -15.334101 -89.293807 C -17.714902 -89.293807 -20.294012 -88.330343 -23.071613 -86.403028 L -23.071613 -85.297669 C -23.071613 -79.118924 -22.391369 -74.583787 -21.030911 -71.692814 C -19.670453 -68.801842 -17.516431 -67.356645 -14.568773 -67.356645 C -12.131286 -67.356645 -10.260484 -68.291529 -8.9567125 -70.162159 C -7.6529406 -72.032788 -7.0012763 -74.697123 -7.0012763 -78.154952 C -7.0012763 -81.669468 -7.738165 -84.390447 -9.2119941 -86.317762 C -10.629137 -88.301762 -12.669872 -89.293807 -15.334101 -89.293807 z M -88.203555 -74.498845 C -86.219554 -74.498845 -84.745777 -73.903824 -83.782119 -72.713424 C -82.761776 -71.579709 -82.251464 -69.992127 -82.251464 -67.951441 C -82.251464 -65.910754 -82.761776 -64.323689 -83.782119 -63.189974 C -84.745777 -62.05626 -86.219554 -61.489303 -88.203555 -61.489303 C -90.187556 -61.489303 -91.689913 -62.05626 -92.710257 -63.189974 C -93.673914 -64.380375 -94.155646 -65.96744 -94.155646 -67.951441 C -94.155646 -70.048813 -93.673914 -71.664459 -92.710257 -72.798173 C -91.689913 -73.931888 -90.187556 -74.498845 -88.203555 -74.498845 z " /></g></svg>
