<?xml version="1.0" encoding="UTF-8" standalone="no"?>
<!-- Created with Inkscape (http://www.inkscape.org/) -->

<svg
   width="172.6701mm"
   height="172.6701mm"
   viewBox="0 0 172.6701 172.6701"
   version="1.1"
   id="svg1"
   xml:space="preserve"
   xmlns="http://www.w3.org/2000/svg"
   xmlns:svg="http://www.w3.org/2000/svg"><defs
     id="defs1" /><g
     id="layer1"
     transform="translate(157.25102,198.81012)"><path
       id="path5"
       style="fill:#ffffff;fill-opacity:1;stroke-width:0.805188;stroke-linecap:round;stroke-linejoin:round"
       d="M -2.0863309 -198.17657 L -10.088943 -183.11289 L -10.930235 -165.68398 L -19.198981 -165.68398 L -11.423229 -155.47426 L -12.166336 -140.07934 C -28.353216 -157.12094 -50.823548 -166.77435 -74.327399 -166.78417 C -103.64471 -166.77397 -130.92652 -151.79225 -146.66717 -127.05894 L -157.25102 -127.05894 L -149.61996 -115.86014 L -157.25102 -26.140039 L -8.5138455 -26.140039 L 15.419061 -26.140039 L 8.0799737 -154.80195 L 15.419061 -165.68398 L 7.4593397 -165.68398 L 6.4490654 -183.39297 L -2.0863309 -198.17657 z M -83.43072 -192.21621 C -85.584619 -189.65499 -86.77489 -186.4211 -86.795372 -183.07465 C -86.842092 -175.15518 -80.459903 -168.69733 -72.540428 -168.65072 C -64.621155 -168.60402 -58.163395 -174.98588 -58.116503 -182.90515 C -58.102813 -186.26049 -59.266203 -189.5144 -61.404157 -192.10045 C -60.83125 -190.6836 -60.536835 -189.16959 -60.537027 -187.64129 C -60.575787 -181.07411 -65.930869 -175.78172 -72.498054 -175.82031 C -79.065241 -175.85911 -84.357627 -181.21415 -84.319038 -187.78134 C -84.309338 -189.30285 -84.007827 -190.80837 -83.43072 -192.21621 z M -15.504117 -119.81908 C -9.5521143 -119.81908 -4.818982 -118.54381 -1.3044665 -115.99295 C 2.2100491 -113.44209 3.9675632 -110.01229 3.9675632 -105.70418 C 3.9675632 -103.38006 3.1173865 -101.05611 1.4168145 -98.731991 C -0.28375758 -96.407876 -2.5230039 -94.50901 -5.300605 -93.035181 C -1.7860894 -91.334609 0.96295291 -89.350519 2.9469536 -87.08309 C 4.9876401 -84.81566 6.0082655 -81.896169 6.0082655 -78.324968 C 6.0082655 -73.166566 4.1374634 -69.057034 0.39620493 -65.996005 C -3.3450536 -62.991661 -8.3899862 -61.489303 -14.738789 -61.489303 C -21.711134 -61.489303 -27.096447 -62.878373 -30.894392 -65.655974 C -34.63565 -68.433575 -36.505935 -72.401238 -36.505935 -77.55964 C -36.505935 -80.223869 -35.655759 -82.86014 -33.955187 -85.467684 C -32.254615 -88.131914 -29.874017 -90.483931 -26.812987 -92.524618 C -29.363845 -93.941761 -31.347418 -95.642631 -32.764562 -97.626632 C -34.181705 -99.610633 -34.89053 -102.07646 -34.89053 -105.02411 C -34.89053 -109.55897 -33.133016 -113.15871 -29.6185 -115.82294 C -26.103985 -118.48717 -21.399433 -119.81908 -15.504117 -119.81908 z M -124.76566 -119.56379 C -118.02006 -119.56379 -112.86184 -117.69351 -109.29064 -113.95225 C -105.66275 -110.21099 -103.84859 -104.7971 -103.84859 -97.711381 C -103.84859 -88.811721 -106.62622 -81.216258 -112.18142 -74.924142 C -117.67994 -68.688711 -125.67294 -64.09693 -136.1598 -61.149272 L -138.2005 -65.400692 C -132.53193 -67.838179 -127.96873 -70.956182 -124.5109 -74.754126 C -121.05307 -78.608756 -118.75718 -83.086732 -117.62346 -88.188448 C -120.79787 -86.601248 -123.88729 -85.807715 -126.89163 -85.807715 C -132.56021 -85.807715 -137.03818 -87.338137 -140.32595 -90.399166 C -143.55704 -93.460196 -145.17269 -97.598308 -145.17269 -102.8134 C -145.17269 -106.04448 -144.32251 -108.93539 -142.62194 -111.48625 C -140.86468 -114.03711 -138.4555 -116.0212 -135.39447 -117.43834 C -132.27676 -118.85549 -128.73367 -119.56379 -124.76566 -119.56379 z M -54.36221 -119.13901 L -51.55618 -117.86364 L -51.55618 -68.716769 C -50.479151 -68.093226 -48.778797 -67.526269 -46.454682 -67.016097 C -44.130567 -66.562611 -42.287829 -66.279392 -40.927371 -66.16602 L -41.182652 -62.084615 L -75.874075 -62.084615 L -75.70406 -66.16602 C -70.659029 -66.732877 -66.804654 -67.583054 -64.140424 -68.716769 L -64.140424 -109.44555 L -75.534044 -109.44555 L -75.534044 -114.37703 C -71.906157 -114.66046 -68.16507 -115.19935 -64.31044 -115.99295 C -60.45581 -116.84324 -57.139811 -117.89193 -54.36221 -119.13901 z M -15.504117 -113.78224 C -17.771546 -113.78224 -19.557124 -113.04535 -20.860895 -111.57152 C -22.164667 -110.15437 -22.816332 -108.22693 -22.816332 -105.78944 C -22.816332 -103.63538 -21.994735 -101.84981 -20.350849 -100.43266 C -18.650277 -99.072205 -16.184455 -97.711715 -12.953368 -96.351258 C -11.536224 -97.314915 -10.402311 -98.646824 -9.552025 -100.3474 C -8.701739 -102.04797 -8.2766507 -103.86213 -8.2766507 -105.78944 C -8.2766507 -108.22693 -8.9568954 -110.15437 -10.317353 -111.57152 C -11.621125 -113.04535 -13.350059 -113.78224 -15.504117 -113.78224 z M -125.27623 -113.69697 C -127.71371 -113.69697 -129.584 -112.76157 -130.88777 -110.89094 C -132.19154 -109.02031 -132.84372 -106.35597 -132.84372 -102.89814 C -132.84372 -99.383629 -132.1349 -96.634587 -130.71776 -94.650586 C -129.24393 -92.723271 -127.17513 -91.759807 -124.5109 -91.759807 C -122.18678 -91.759807 -119.60767 -92.723271 -116.77339 -94.650586 L -116.77339 -95.755945 C -116.77339 -101.93469 -117.45363 -106.46931 -118.81409 -109.36028 C -120.17455 -112.25126 -122.32857 -113.69697 -125.27623 -113.69697 z M -88.968883 -101.28274 C -86.984882 -101.28274 -85.511105 -100.68772 -84.547447 -99.497319 C -83.527104 -98.363604 -83.016791 -96.776539 -83.016791 -94.735852 C -83.016791 -92.695166 -83.527104 -91.107584 -84.547447 -89.973869 C -85.511105 -88.840154 -86.984882 -88.273198 -88.968883 -88.273198 C -90.952884 -88.273198 -92.454725 -88.840154 -93.475068 -89.973869 C -94.438725 -91.16427 -94.920974 -92.751852 -94.920974 -94.735852 C -94.920974 -96.833225 -94.438725 -98.448354 -93.475068 -99.582068 C -92.454725 -100.71578 -90.952884 -101.28274 -88.968883 -101.28274 z M -18.990209 -89.038526 C -20.690781 -87.678068 -21.937982 -86.119583 -22.731582 -84.362325 C -23.525183 -82.605068 -23.921691 -80.50769 -23.921691 -78.070203 C -23.921691 -74.725745 -23.100094 -72.089474 -21.456208 -70.162159 C -19.812322 -68.291529 -17.573075 -67.356645 -14.738789 -67.356645 C -11.961188 -67.356645 -9.8071655 -68.291529 -8.2766507 -70.162159 C -6.6894501 -72.032788 -5.8959175 -74.640479 -5.8959175 -77.984937 C -5.8959175 -79.855566 -6.4909378 -81.442631 -7.6813382 -82.746403 C -8.8150529 -84.106861 -10.260767 -85.212194 -12.018024 -86.06248 C -13.775282 -86.969452 -16.099236 -87.961497 -18.990209 -89.038526 z M -88.968883 -74.498845 C -86.984882 -74.498845 -85.511105 -73.903824 -84.547447 -72.713424 C -83.527104 -71.579709 -83.016791 -69.992127 -83.016791 -67.951441 C -83.016791 -65.910754 -83.527104 -64.323689 -84.547447 -63.189974 C -85.511105 -62.05626 -86.984882 -61.489303 -88.968883 -61.489303 C -90.952884 -61.489303 -92.454725 -62.05626 -93.475068 -63.189974 C -94.438725 -64.380375 -94.920974 -65.96744 -94.920974 -67.951441 C -94.920974 -70.048813 -94.438725 -71.664459 -93.475068 -72.798173 C -92.454725 -73.931888 -90.952884 -74.498845 -88.968883 -74.498845 z " /></g></svg>
