<?xml version="1.0" encoding="UTF-8" standalone="no"?>
<!-- Created with Inkscape (http://www.inkscape.org/) -->

<svg
   width="172.6701mm"
   height="172.6701mm"
   viewBox="0 0 172.6701 172.6701"
   version="1.1"
   id="svg1"
   xml:space="preserve"
   xmlns="http://www.w3.org/2000/svg"
   xmlns:svg="http://www.w3.org/2000/svg"><defs
     id="defs1" /><g
     id="layer1"
     transform="translate(157.25102,198.81012)"><path
       id="path5"
       style="fill:#ffffff;fill-opacity:1;stroke-width:0.805188;stroke-linecap:round;stroke-linejoin:round"
       d="M -2.0863309 -198.17657 L -10.088943 -183.11289 L -10.930235 -165.68398 L -19.198981 -165.68398 L -11.423229 -155.47426 L -12.166336 -140.07934 C -28.353216 -157.12094 -50.823548 -166.77435 -74.327399 -166.78417 C -103.64471 -166.77397 -130.92652 -151.79225 -146.66717 -127.05894 L -157.25102 -127.05894 L -149.61996 -115.86014 L -157.25102 -26.140039 L -8.5138455 -26.140039 L 15.419061 -26.140039 L 8.0799737 -154.80195 L 15.419061 -165.68398 L 7.4593397 -165.68398 L 6.4490654 -183.39297 L -2.0863309 -198.17657 z M -83.43072 -192.21621 C -85.584619 -189.65499 -86.77489 -186.4211 -86.795372 -183.07465 C -86.842092 -175.15518 -80.459903 -168.69733 -72.540428 -168.65072 C -64.621155 -168.60402 -58.163395 -174.98588 -58.116503 -182.90515 C -58.102813 -186.26049 -59.266203 -189.5144 -61.404157 -192.10045 C -60.83125 -190.6836 -60.536835 -189.16959 -60.537027 -187.64129 C -60.575787 -181.07411 -65.930869 -175.78172 -72.498054 -175.82031 C -79.065241 -175.85911 -84.357627 -181.21415 -84.319038 -187.78134 C -84.309338 -189.30285 -84.007827 -190.80837 -83.43072 -192.21621 z M -123.83032 -119.56379 C -117.08472 -119.56379 -111.9265 -117.69351 -108.3553 -113.95225 C -104.72741 -110.21099 -102.91377 -104.7971 -102.91377 -97.711381 C -102.91377 -88.811721 -105.69139 -81.216258 -111.24659 -74.924142 C -116.74511 -68.688711 -124.7376 -64.09693 -135.22446 -61.149272 L -137.26516 -65.400692 C -131.59659 -67.838179 -127.03339 -70.956182 -123.57556 -74.754126 C -120.11773 -78.608756 -117.82184 -83.086732 -116.68812 -88.188448 C -119.86252 -86.601248 -122.95195 -85.807715 -125.95629 -85.807715 C -131.62486 -85.807715 -136.10284 -87.338137 -139.39061 -90.399166 C -142.6217 -93.460196 -144.23734 -97.598308 -144.23734 -102.8134 C -144.23734 -106.04448 -143.38717 -108.93539 -141.6866 -111.48625 C -139.92934 -114.03711 -137.52016 -116.0212 -134.45913 -117.43834 C -131.34141 -118.85549 -127.79832 -119.56379 -123.83032 -119.56379 z M -15.674132 -119.56379 C -8.9285295 -119.56379 -3.7703089 -117.69351 -0.19910757 -113.95225 C 3.4287795 -110.21099 5.2429375 -104.7971 5.2429375 -97.711381 C 5.2429375 -88.811721 2.4653148 -81.216258 -3.0898872 -74.924142 C -8.5884035 -68.688711 -16.580891 -64.09693 -27.067752 -61.149272 L -29.108454 -65.400692 C -23.439881 -67.838179 -18.87668 -70.956182 -15.41885 -74.754126 C -11.961021 -78.608756 -9.665647 -83.086732 -8.5319323 -88.188448 C -11.706333 -86.601248 -14.79524 -85.807715 -17.799584 -85.807715 C -23.468157 -85.807715 -27.94665 -87.338137 -31.234423 -90.399166 C -34.465509 -93.460196 -36.081155 -97.598308 -36.081155 -102.8134 C -36.081155 -106.04448 -35.230462 -108.93539 -33.52989 -111.48625 C -31.772632 -114.03711 -29.363454 -116.0212 -26.302424 -117.43834 C -23.184708 -118.85549 -19.642133 -119.56379 -15.674132 -119.56379 z M -53.426866 -119.13901 L -50.620836 -117.86364 L -50.620836 -68.716769 C -49.543807 -68.093226 -47.843454 -67.526269 -45.519339 -67.016097 C -43.195224 -66.562611 -41.352485 -66.279392 -39.992027 -66.16602 L -40.247309 -62.084615 L -74.939248 -62.084615 L -74.769233 -66.16602 C -69.724202 -66.732877 -65.86931 -67.583054 -63.205081 -68.716769 L -63.205081 -109.44555 L -74.598701 -109.44555 L -74.598701 -114.37703 C -70.970814 -114.66046 -67.229726 -115.19935 -63.375096 -115.99295 C -59.520466 -116.84324 -56.204467 -117.89193 -53.426866 -119.13901 z M -124.34088 -113.69697 C -126.77837 -113.69697 -128.64866 -112.76157 -129.95243 -110.89094 C -131.2562 -109.02031 -131.90838 -106.35597 -131.90838 -102.89814 C -131.90838 -99.383629 -131.19956 -96.634587 -129.78241 -94.650586 C -128.30858 -92.723271 -126.23979 -91.759807 -123.57556 -91.759807 C -121.25144 -91.759807 -118.67233 -92.723271 -115.83804 -94.650586 L -115.83804 -95.755945 C -115.83804 -101.93469 -116.51829 -106.46931 -117.87875 -109.36028 C -119.2392 -112.25126 -121.39323 -113.69697 -124.34088 -113.69697 z M -16.184178 -113.69697 C -18.621665 -113.69697 -20.492467 -112.76157 -21.796239 -110.89094 C -23.100011 -109.02031 -23.751675 -106.35597 -23.751675 -102.89814 C -23.751675 -99.383629 -23.043367 -96.634587 -21.626223 -94.650586 C -20.152394 -92.723271 -18.08308 -91.759807 -15.41885 -91.759807 C -13.094735 -91.759807 -10.515625 -92.723271 -7.6813382 -94.650586 L -7.6813382 -95.755945 C -7.6813382 -101.93469 -8.3615829 -106.46931 -9.7220405 -109.36028 C -11.082498 -112.25126 -13.23652 -113.69697 -16.184178 -113.69697 z M -88.03354 -101.28274 C -86.049539 -101.28274 -84.575761 -100.68772 -83.612104 -99.497319 C -82.591761 -98.363604 -82.081448 -96.776539 -82.081448 -94.735852 C -82.081448 -92.695166 -82.591761 -91.107584 -83.612104 -89.973869 C -84.575761 -88.840154 -86.049539 -88.273198 -88.03354 -88.273198 C -90.01754 -88.273198 -91.519898 -88.840154 -92.540241 -89.973869 C -93.503899 -91.16427 -93.985631 -92.751852 -93.985631 -94.735852 C -93.985631 -96.833225 -93.503899 -98.448354 -92.540241 -99.582068 C -91.519898 -100.71578 -90.01754 -101.28274 -88.03354 -101.28274 z M -88.03354 -74.498845 C -86.049539 -74.498845 -84.575761 -73.903824 -83.612104 -72.713424 C -82.591761 -71.579709 -82.081448 -69.992127 -82.081448 -67.951441 C -82.081448 -65.910754 -82.591761 -64.323689 -83.612104 -63.189974 C -84.575761 -62.05626 -86.049539 -61.489303 -88.03354 -61.489303 C -90.01754 -61.489303 -91.519898 -62.05626 -92.540241 -63.189974 C -93.503899 -64.380375 -93.985631 -65.96744 -93.985631 -67.951441 C -93.985631 -70.048813 -93.503899 -71.664459 -92.540241 -72.798173 C -91.519898 -73.931888 -90.01754 -74.498845 -88.03354 -74.498845 z " /></g></svg>
