<?xml version="1.0" encoding="UTF-8" standalone="no"?>
<!-- Created with Inkscape (http://www.inkscape.org/) -->

<svg
   width="172.6701mm"
   height="172.6701mm"
   viewBox="0 0 172.6701 172.6701"
   version="1.1"
   id="svg1"
   xml:space="preserve"
   xmlns="http://www.w3.org/2000/svg"
   xmlns:svg="http://www.w3.org/2000/svg"><defs
     id="defs1" /><g
     id="layer1"
     transform="translate(157.25102,198.81012)"><path
       id="path5"
       style="fill:#ffffff;fill-opacity:1;stroke-width:0.805188;stroke-linecap:round;stroke-linejoin:round"
       d="M -2.0863309 -198.17657 L -10.088943 -183.11289 L -10.930235 -165.68398 L -19.198981 -165.68398 L -11.423229 -155.47426 L -12.166336 -140.07934 C -28.353216 -157.12094 -50.823548 -166.77435 -74.327399 -166.78417 C -103.64471 -166.77397 -130.92652 -151.79225 -146.66717 -127.05894 L -157.25102 -127.05894 L -149.61996 -115.86014 L -157.25102 -26.140039 L -8.5138455 -26.140039 L 15.419061 -26.140039 L 8.0799737 -154.80195 L 15.419061 -165.68398 L 7.4593397 -165.68398 L 6.4490654 -183.39297 L -2.0863309 -198.17657 z M -83.43072 -192.21621 C -85.584619 -189.65499 -86.77489 -186.4211 -86.795372 -183.07465 C -86.842092 -175.15518 -80.459903 -168.69733 -72.540428 -168.65072 C -64.621155 -168.60402 -58.163395 -174.98588 -58.116503 -182.90515 C -58.102813 -186.26049 -59.266203 -189.5144 -61.404157 -192.10045 C -60.83125 -190.6836 -60.536835 -189.16959 -60.537027 -187.64129 C -60.575787 -181.07411 -65.930869 -175.78172 -72.498054 -175.82031 C -79.065241 -175.85911 -84.357627 -181.21415 -84.319038 -187.78134 C -84.309338 -189.30285 -84.007827 -190.80837 -83.43072 -192.21621 z M -54.829881 -119.73381 C -48.991251 -119.73381 -44.342826 -118.28861 -40.884996 -115.39764 C -37.427166 -112.56335 -35.698233 -108.56711 -35.698233 -103.40871 C -35.698233 -98.873849 -37.427166 -94.026912 -40.884996 -88.86851 C -44.342826 -83.766794 -50.03994 -77.616529 -57.975943 -70.41744 L -35.10292 -70.41744 L -35.10292 -62.084615 L -73.620983 -62.084615 L -73.620983 -67.016097 C -67.328866 -73.081471 -62.425802 -78.268272 -58.911286 -82.576388 C -55.396771 -86.884504 -52.874304 -90.852684 -51.343789 -94.480571 C -49.756589 -98.108458 -48.962539 -101.84955 -48.962539 -105.70418 C -48.962539 -111.82623 -51.003273 -114.88759 -55.084646 -114.88759 C -56.89859 -114.88759 -58.372367 -114.0369 -59.506082 -112.33633 C -60.639797 -110.69244 -61.206753 -108.65171 -61.206753 -106.21422 C -61.206753 -104.51365 -60.611733 -102.89852 -59.421333 -101.36801 C -60.38499 -100.46103 -61.490323 -99.752209 -62.737409 -99.242037 C -63.92781 -98.731866 -65.118367 -98.476709 -66.308767 -98.476709 C -68.349454 -98.476709 -70.049807 -99.10031 -71.410265 -100.3474 C -72.770722 -101.65117 -73.450967 -103.52197 -73.450967 -105.95946 C -73.450967 -108.567 -72.686015 -110.91953 -71.1555 -113.01691 C -69.624985 -115.11428 -67.470446 -116.75799 -64.692845 -117.94839 C -61.858559 -119.13879 -58.57114 -119.73381 -54.829881 -119.73381 z M -122.68259 -119.56379 C -115.93698 -119.56379 -110.77876 -117.69351 -107.20756 -113.95225 C -103.57968 -110.21099 -101.76552 -104.7971 -101.76552 -97.711381 C -101.76552 -88.811721 -104.54314 -81.216258 -110.09834 -74.924142 C -115.59686 -68.688711 -123.58986 -64.09693 -134.07672 -61.149272 L -136.11743 -65.400692 C -130.44885 -67.838179 -125.88565 -70.956182 -122.42782 -74.754126 C -118.96999 -78.608756 -116.6741 -83.086732 -115.54039 -88.188448 C -118.71479 -86.601248 -121.80421 -85.807715 -124.80856 -85.807715 C -130.47713 -85.807715 -134.95511 -87.338137 -138.24288 -90.399166 C -141.47396 -93.460196 -143.08961 -97.598308 -143.08961 -102.8134 C -143.08961 -106.04448 -142.23943 -108.93539 -140.53886 -111.48625 C -138.7816 -114.03711 -136.37243 -116.0212 -133.3114 -117.43834 C -130.19368 -118.85549 -126.65059 -119.56379 -122.68259 -119.56379 z M -9.1696194 -119.13901 L -6.3635892 -117.86364 L -6.3635892 -68.716769 C -5.2865602 -68.093226 -3.5856902 -67.526269 -1.261575 -67.016097 C 1.0625401 -66.562611 2.9047618 -66.279392 4.2652194 -66.16602 L 4.0099378 -62.084615 L -30.681485 -62.084615 L -30.511469 -66.16602 C -25.466439 -66.732877 -21.612064 -67.583054 -18.947834 -68.716769 L -18.947834 -109.44555 L -30.341454 -109.44555 L -30.341454 -114.37703 C -26.713567 -114.66046 -22.972479 -115.19935 -19.117849 -115.99295 C -15.263219 -116.84324 -11.94722 -117.89193 -9.1696194 -119.13901 z M -123.19263 -113.69697 C -125.63012 -113.69697 -127.50092 -112.76157 -128.80469 -110.89094 C -130.10847 -109.02031 -130.76065 -106.35597 -130.76065 -102.89814 C -130.76065 -99.383629 -130.05182 -96.634587 -128.63468 -94.650586 C -127.16085 -92.723271 -125.09205 -91.759807 -122.42782 -91.759807 C -120.10371 -91.759807 -117.52408 -92.723271 -114.68979 -94.650586 L -114.68979 -95.755945 C -114.68979 -101.93469 -115.37004 -106.46931 -116.7305 -109.36028 C -118.09095 -112.25126 -120.24498 -113.69697 -123.19263 -113.69697 z M -86.885806 -101.28274 C -84.901805 -101.28274 -83.427511 -100.68772 -82.463854 -99.497319 C -81.44351 -98.363604 -80.933714 -96.776539 -80.933714 -94.735852 C -80.933714 -92.695166 -81.44351 -91.107584 -82.463854 -89.973869 C -83.427511 -88.840154 -84.901805 -88.273198 -86.885806 -88.273198 C -88.869807 -88.273198 -90.371648 -88.840154 -91.391991 -89.973869 C -92.355648 -91.16427 -92.837381 -92.751852 -92.837381 -94.735852 C -92.837381 -96.833225 -92.355648 -98.448354 -91.391991 -99.582068 C -90.371648 -100.71578 -88.869807 -101.28274 -86.885806 -101.28274 z M -86.885806 -74.498845 C -84.901805 -74.498845 -83.427511 -73.903824 -82.463854 -72.713424 C -81.44351 -71.579709 -80.933714 -69.992127 -80.933714 -67.951441 C -80.933714 -65.910754 -81.44351 -64.323689 -82.463854 -63.189974 C -83.427511 -62.05626 -84.901805 -61.489303 -86.885806 -61.489303 C -88.869807 -61.489303 -90.371648 -62.05626 -91.391991 -63.189974 C -92.355648 -64.380375 -92.837381 -65.96744 -92.837381 -67.951441 C -92.837381 -70.048813 -92.355648 -71.664459 -91.391991 -72.798173 C -90.371648 -73.931888 -88.869807 -74.498845 -86.885806 -74.498845 z " /></g></svg>
