<?xml version="1.0" encoding="UTF-8" standalone="no"?>
<!-- Created with Inkscape (http://www.inkscape.org/) -->

<svg
   width="172.6701mm"
   height="172.6701mm"
   viewBox="0 0 172.6701 172.6701"
   version="1.1"
   id="svg1"
   xml:space="preserve"
   xmlns="http://www.w3.org/2000/svg"
   xmlns:svg="http://www.w3.org/2000/svg"><defs
     id="defs1" /><g
     id="layer1"
     transform="translate(157.25102,198.81012)"><path
       id="path5"
       style="fill:#ffffff;fill-opacity:1;stroke-width:0.805188;stroke-linecap:round;stroke-linejoin:round"
       d="M -2.0863309 -198.17657 L -10.088943 -183.11289 L -10.930235 -165.68398 L -19.198981 -165.68398 L -11.423229 -155.47426 L -12.166336 -140.07934 C -28.353216 -157.12094 -50.823548 -166.77435 -74.327399 -166.78417 C -103.64471 -166.77397 -130.92652 -151.79225 -146.66717 -127.05894 L -157.25102 -127.05894 L -149.61996 -115.86014 L -157.25102 -26.140039 L -8.5138455 -26.140039 L 15.419061 -26.140039 L 8.0799737 -154.80195 L 15.419061 -165.68398 L 7.4593397 -165.68398 L 6.4490654 -183.39297 L -2.0863309 -198.17657 z M -83.43072 -192.21621 C -85.584619 -189.65499 -86.77489 -186.4211 -86.795372 -183.07465 C -86.842092 -175.15518 -80.459903 -168.69733 -72.540428 -168.65072 C -64.621155 -168.60402 -58.163395 -174.98588 -58.116503 -182.90515 C -58.102813 -186.26049 -59.266203 -189.5144 -61.404157 -192.10045 C -60.83125 -190.6836 -60.536835 -189.16959 -60.537027 -187.64129 C -60.575787 -181.07411 -65.930869 -175.78172 -72.498054 -175.82031 C -79.065241 -175.85911 -84.357627 -181.21415 -84.319038 -187.78134 C -84.309338 -189.30285 -84.007827 -190.80837 -83.43072 -192.21621 z M -56.912958 -119.73381 C -51.074328 -119.73381 -46.425903 -118.28861 -42.968073 -115.39764 C -39.510243 -112.56335 -37.78131 -108.56711 -37.78131 -103.40871 C -37.78131 -98.873849 -39.510243 -94.026912 -42.968073 -88.86851 C -46.425903 -83.766794 -52.123017 -77.616529 -60.05902 -70.41744 L -37.186514 -70.41744 L -37.186514 -62.084615 L -75.70406 -62.084615 L -75.70406 -67.016097 C -69.411943 -73.081471 -64.508879 -78.268272 -60.994363 -82.576388 C -57.479848 -86.884504 -54.957381 -90.852684 -53.426866 -94.480571 C -51.839666 -98.108458 -51.046133 -101.84955 -51.046133 -105.70418 C -51.046133 -111.82623 -53.086867 -114.88759 -57.16824 -114.88759 C -58.982184 -114.88759 -60.455961 -114.0369 -61.589676 -112.33633 C -62.72339 -110.69244 -63.28983 -108.65171 -63.28983 -106.21422 C -63.28983 -104.51365 -62.69481 -102.89852 -61.504409 -101.36801 C -62.468067 -100.46103 -63.5734 -99.752209 -64.820486 -99.242037 C -66.010887 -98.731866 -67.201444 -98.476709 -68.391844 -98.476709 C -70.432531 -98.476709 -72.132884 -99.10031 -73.493342 -100.3474 C -74.853799 -101.65117 -75.534044 -103.52197 -75.534044 -105.95946 C -75.534044 -108.567 -74.769092 -110.91953 -73.238577 -113.01691 C -71.708062 -115.11428 -69.55404 -116.75799 -66.776439 -117.94839 C -63.942152 -119.13879 -60.654217 -119.73381 -56.912958 -119.73381 z M -13.803445 -119.73381 C -7.9648144 -119.73381 -3.3163897 -118.28861 0.14144012 -115.39764 C 3.59927 -112.56335 5.3282036 -108.56711 5.3282036 -103.40871 C 5.3282036 -98.873849 3.59927 -94.026912 0.14144012 -88.86851 C -3.3163897 -83.766794 -9.0135034 -77.616529 -16.949506 -70.41744 L 5.9229994 -70.41744 L 5.9229994 -62.084615 L -32.594546 -62.084615 L -32.594546 -67.016097 C -26.30243 -73.081471 -21.399365 -78.268272 -17.88485 -82.576388 C -14.370334 -86.884504 -11.847868 -90.852684 -10.317353 -94.480571 C -8.7301524 -98.108458 -7.9366198 -101.84955 -7.9366198 -105.70418 C -7.9366198 -111.82623 -9.9773538 -114.88759 -14.058727 -114.88759 C -15.87267 -114.88759 -17.346448 -114.0369 -18.480162 -112.33633 C -19.613877 -110.69244 -20.180834 -108.65171 -20.180834 -106.21422 C -20.180834 -104.51365 -19.585297 -102.89852 -18.394896 -101.36801 C -19.358554 -100.46103 -20.463887 -99.752209 -21.710973 -99.242037 C -22.901373 -98.731866 -24.091931 -98.476709 -25.282331 -98.476709 C -27.323017 -98.476709 -29.023371 -99.10031 -30.383828 -100.3474 C -31.744286 -101.65117 -32.424531 -103.52197 -32.424531 -105.95946 C -32.424531 -108.567 -31.659578 -110.91953 -30.129064 -113.01691 C -28.598549 -115.11428 -26.444527 -116.75799 -23.666926 -117.94839 C -20.832639 -119.13879 -17.544704 -119.73381 -13.803445 -119.73381 z M -124.76566 -119.56379 C -118.02006 -119.56379 -112.86184 -117.69351 -109.29064 -113.95225 C -105.66275 -110.21099 -103.84859 -104.7971 -103.84859 -97.711381 C -103.84859 -88.811721 -106.62622 -81.216258 -112.18142 -74.924142 C -117.67994 -68.688711 -125.67294 -64.09693 -136.1598 -61.149272 L -138.2005 -65.400692 C -132.53193 -67.838179 -127.96873 -70.956182 -124.5109 -74.754126 C -121.05307 -78.608756 -118.75718 -83.086732 -117.62346 -88.188448 C -120.79787 -86.601248 -123.88729 -85.807715 -126.89163 -85.807715 C -132.56021 -85.807715 -137.03818 -87.338137 -140.32595 -90.399166 C -143.55704 -93.460196 -145.17269 -97.598308 -145.17269 -102.8134 C -145.17269 -106.04448 -144.32251 -108.93539 -142.62194 -111.48625 C -140.86468 -114.03711 -138.4555 -116.0212 -135.39447 -117.43834 C -132.27676 -118.85549 -128.73367 -119.56379 -124.76566 -119.56379 z M -125.27623 -113.69697 C -127.71371 -113.69697 -129.584 -112.76157 -130.88777 -110.89094 C -132.19154 -109.02031 -132.84372 -106.35597 -132.84372 -102.89814 C -132.84372 -99.383629 -132.1349 -96.634587 -130.71776 -94.650586 C -129.24393 -92.723271 -127.17513 -91.759807 -124.5109 -91.759807 C -122.18678 -91.759807 -119.60767 -92.723271 -116.77339 -94.650586 L -116.77339 -95.755945 C -116.77339 -101.93469 -117.45363 -106.46931 -118.81409 -109.36028 C -120.17455 -112.25126 -122.32857 -113.69697 -125.27623 -113.69697 z M -88.968883 -101.28274 C -86.984882 -101.28274 -85.511105 -100.68772 -84.547447 -99.497319 C -83.527104 -98.363604 -83.016791 -96.776539 -83.016791 -94.735852 C -83.016791 -92.695166 -83.527104 -91.107584 -84.547447 -89.973869 C -85.511105 -88.840154 -86.984882 -88.273198 -88.968883 -88.273198 C -90.952884 -88.273198 -92.454725 -88.840154 -93.475068 -89.973869 C -94.438725 -91.16427 -94.920974 -92.751852 -94.920974 -94.735852 C -94.920974 -96.833225 -94.438725 -98.448354 -93.475068 -99.582068 C -92.454725 -100.71578 -90.952884 -101.28274 -88.968883 -101.28274 z M -88.968883 -74.498845 C -86.984882 -74.498845 -85.511105 -73.903824 -84.547447 -72.713424 C -83.527104 -71.579709 -83.016791 -69.992127 -83.016791 -67.951441 C -83.016791 -65.910754 -83.527104 -64.323689 -84.547447 -63.189974 C -85.511105 -62.05626 -86.984882 -61.489303 -88.968883 -61.489303 C -90.952884 -61.489303 -92.454725 -62.05626 -93.475068 -63.189974 C -94.438725 -64.380375 -94.920974 -65.96744 -94.920974 -67.951441 C -94.920974 -70.048813 -94.438725 -71.664459 -93.475068 -72.798173 C -92.454725 -73.931888 -90.952884 -74.498845 -88.968883 -74.498845 z " /></g></svg>
