<?xml version="1.0" encoding="UTF-8" standalone="no"?>
<!-- Created with Inkscape (http://www.inkscape.org/) -->

<svg
   width="172.6701mm"
   height="172.6701mm"
   viewBox="0 0 172.6701 172.6701"
   version="1.1"
   id="svg1"
   xml:space="preserve"
   xmlns="http://www.w3.org/2000/svg"
   xmlns:svg="http://www.w3.org/2000/svg"><defs
     id="defs1" /><g
     id="layer1"
     transform="translate(157.25102,198.81012)"><path
       id="path5"
       style="fill:#ffffff;fill-opacity:1;stroke-width:0.805188;stroke-linecap:round;stroke-linejoin:round"
       d="M -2.0863309 -198.17657 L -10.088943 -183.11289 L -10.930235 -165.68398 L -19.198981 -165.68398 L -11.423229 -155.47426 L -12.166336 -140.07934 C -28.353216 -157.12094 -50.823548 -166.77435 -74.327399 -166.78417 C -103.64471 -166.77397 -130.92652 -151.79225 -146.66717 -127.05894 L -157.25102 -127.05894 L -149.61996 -115.86014 L -157.25102 -26.140039 L -8.5138455 -26.140039 L 15.419061 -26.140039 L 8.0799737 -154.80195 L 15.419061 -165.68398 L 7.4593397 -165.68398 L 6.4490654 -183.39297 L -2.0863309 -198.17657 z M -83.43072 -192.21621 C -85.584619 -189.65499 -86.77489 -186.4211 -86.795372 -183.07465 C -86.842092 -175.15518 -80.459903 -168.69733 -72.540428 -168.65072 C -64.621155 -168.60402 -58.163395 -174.98588 -58.116503 -182.90515 C -58.102813 -186.26049 -59.266203 -189.5144 -61.404157 -192.10045 C -60.83125 -190.6836 -60.536835 -189.16959 -60.537027 -187.64129 C -60.575787 -181.07411 -65.930869 -175.78172 -72.498054 -175.82031 C -79.065241 -175.85911 -84.357627 -181.21415 -84.319038 -187.78134 C -84.309338 -189.30285 -84.007827 -190.80837 -83.43072 -192.21621 z M -56.955333 -119.73381 C -51.116702 -119.73381 -46.468795 -118.28861 -43.010965 -115.39764 C -39.553135 -112.56335 -37.824201 -108.56711 -37.824201 -103.40871 C -37.824201 -98.873849 -39.553135 -94.026912 -43.010965 -88.86851 C -46.468795 -83.766794 -52.165391 -77.616529 -60.101394 -70.41744 L -37.228889 -70.41744 L -37.228889 -62.084615 L -75.746951 -62.084615 L -75.746951 -67.016097 C -69.454834 -73.081471 -64.551253 -78.268272 -61.036738 -82.576388 C -57.522222 -86.884504 -54.999756 -90.852684 -53.469241 -94.480571 C -51.88204 -98.108458 -51.088508 -101.84955 -51.088508 -105.70418 C -51.088508 -111.82623 -53.129242 -114.88759 -57.210615 -114.88759 C -59.024558 -114.88759 -60.498336 -114.0369 -61.63205 -112.33633 C -62.765765 -110.69244 -63.332722 -108.65171 -63.332722 -106.21422 C -63.332722 -104.51365 -62.737185 -102.89852 -61.546784 -101.36801 C -62.510442 -100.46103 -63.615775 -99.752209 -64.862861 -99.242037 C -66.053261 -98.731866 -67.243819 -98.476709 -68.434219 -98.476709 C -70.474906 -98.476709 -72.175776 -99.10031 -73.536233 -100.3474 C -74.896691 -101.65117 -75.576936 -103.52197 -75.576936 -105.95946 C -75.576936 -108.567 -74.811466 -110.91953 -73.280952 -113.01691 C -71.750437 -115.11428 -69.596415 -116.75799 -66.818814 -117.94839 C -63.984527 -119.13879 -60.696592 -119.73381 -56.955333 -119.73381 z M -14.185851 -119.73381 C -10.501278 -119.73381 -7.241923 -119.11073 -4.4076362 -117.86364 C -1.5733495 -116.67324 0.63731653 -114.97237 2.2245171 -112.76163 C 3.8117177 -110.60757 4.6052503 -108.11368 4.6052503 -105.27939 C 4.6052503 -102.10499 3.6698493 -99.384015 1.7992201 -97.116586 C -0.071409186 -94.849156 -2.8490319 -93.120223 -6.5336046 -91.929822 C -1.8853744 -90.909479 1.3739806 -89.237189 3.2446099 -86.913074 C 5.1152391 -84.588959 6.0506402 -81.442892 6.0506402 -77.474891 C 6.0506402 -74.017061 5.0019512 -71.069506 2.904579 -68.632019 C 0.8638925 -66.194533 -1.8004422 -64.380375 -5.0882148 -63.189974 C -8.3759875 -61.999574 -11.776694 -61.404554 -15.29121 -61.404554 C -20.392926 -61.404554 -24.72955 -62.453243 -28.300751 -64.550615 C -31.815267 -66.647987 -33.572781 -69.510317 -33.572781 -73.138204 C -33.572781 -75.235577 -32.94918 -76.851222 -31.702094 -77.984937 C -30.455008 -79.175337 -28.896006 -79.770358 -27.025377 -79.770358 C -25.098062 -79.770358 -23.142552 -79.005405 -21.158552 -77.474891 C -21.668723 -76.397862 -21.92388 -75.094016 -21.92388 -73.563501 C -21.92388 -71.749558 -21.384987 -70.275781 -20.307958 -69.142066 C -19.174243 -68.008351 -17.501953 -67.441394 -15.29121 -67.441394 C -10.416236 -67.441394 -7.9789944 -70.814037 -7.9789944 -77.55964 C -7.9789944 -81.244213 -9.1695518 -84.10706 -11.550353 -86.147746 C -13.874468 -88.188433 -17.190467 -89.208541 -21.498583 -89.208541 L -21.498583 -94.480571 C -13.16578 -95.1608 -8.9990872 -98.760535 -8.9990872 -105.27939 C -8.9990872 -108.56717 -9.5093999 -110.97583 -10.529743 -112.50634 C -11.550086 -114.09354 -12.939156 -114.88759 -14.696414 -114.88759 C -16.793786 -114.88759 -18.380851 -114.15071 -19.45788 -112.67688 C -20.478224 -111.20305 -20.988536 -109.41747 -20.988536 -107.3201 C -20.988536 -105.44947 -20.591512 -103.77718 -19.797911 -102.30335 C -21.385112 -100.60278 -23.425846 -99.752084 -25.920018 -99.752084 C -28.187448 -99.752084 -29.944445 -100.43233 -31.191531 -101.79279 C -32.438617 -103.15324 -33.062218 -104.91076 -33.062218 -107.06482 C -33.062218 -109.8991 -32.098753 -112.25164 -30.171438 -114.12227 C -28.187438 -116.04958 -25.750196 -117.46671 -22.859223 -118.37369 C -19.911565 -119.28066 -17.020137 -119.73381 -14.185851 -119.73381 z M -124.80856 -119.56379 C -118.06295 -119.56379 -112.90422 -117.69351 -109.33301 -113.95225 C -105.70513 -110.21099 -103.89149 -104.7971 -103.89149 -97.711381 C -103.89149 -88.811721 -106.66911 -81.216258 -112.22431 -74.924142 C -117.72283 -68.688711 -125.71531 -64.09693 -136.20218 -61.149272 L -138.24288 -65.400692 C -132.5743 -67.838179 -128.0111 -70.956182 -124.55327 -74.754126 C -121.09544 -78.608756 -118.79955 -83.086732 -117.66584 -88.188448 C -120.84024 -86.601248 -123.92966 -85.807715 -126.93401 -85.807715 C -132.60258 -85.807715 -137.08107 -87.338137 -140.36885 -90.399166 C -143.59993 -93.460196 -145.21506 -97.598308 -145.21506 -102.8134 C -145.21506 -106.04448 -144.36489 -108.93539 -142.66431 -111.48625 C -140.90706 -114.03711 -138.49788 -116.0212 -135.43685 -117.43834 C -132.31913 -118.85549 -128.77656 -119.56379 -124.80856 -119.56379 z M -125.3186 -113.69697 C -127.75609 -113.69697 -129.62689 -112.76157 -130.93066 -110.89094 C -132.23443 -109.02031 -132.8861 -106.35597 -132.8861 -102.89814 C -132.8861 -99.383629 -132.17727 -96.634587 -130.76013 -94.650586 C -129.2863 -92.723271 -127.2175 -91.759807 -124.55327 -91.759807 C -122.22916 -91.759807 -119.65005 -92.723271 -116.81576 -94.650586 L -116.81576 -95.755945 C -116.81576 -101.93469 -117.49601 -106.46931 -118.85646 -109.36028 C -120.21692 -112.25126 -122.37094 -113.69697 -125.3186 -113.69697 z M -89.011258 -101.28274 C -87.027257 -101.28274 -85.55348 -100.68772 -84.589822 -99.497319 C -83.569479 -98.363604 -83.059166 -96.776539 -83.059166 -94.735852 C -83.059166 -92.695166 -83.569479 -91.107584 -84.589822 -89.973869 C -85.55348 -88.840154 -87.027257 -88.273198 -89.011258 -88.273198 C -90.995258 -88.273198 -92.497616 -88.840154 -93.517959 -89.973869 C -94.481617 -91.16427 -94.963349 -92.751852 -94.963349 -94.735852 C -94.963349 -96.833225 -94.481617 -98.448354 -93.517959 -99.582068 C -92.497616 -100.71578 -90.995258 -101.28274 -89.011258 -101.28274 z M -89.011258 -74.498845 C -87.027257 -74.498845 -85.55348 -73.903824 -84.589822 -72.713424 C -83.569479 -71.579709 -83.059166 -69.992127 -83.059166 -67.951441 C -83.059166 -65.910754 -83.569479 -64.323689 -84.589822 -63.189974 C -85.55348 -62.05626 -87.027257 -61.489303 -89.011258 -61.489303 C -90.995258 -61.489303 -92.497616 -62.05626 -93.517959 -63.189974 C -94.481617 -64.380375 -94.963349 -65.96744 -94.963349 -67.951441 C -94.963349 -70.048813 -94.481617 -71.664459 -93.517959 -72.798173 C -92.497616 -73.931888 -90.995258 -74.498845 -89.011258 -74.498845 z " /></g></svg>
