<?xml version="1.0" encoding="UTF-8" standalone="no"?>
<!-- Created with Inkscape (http://www.inkscape.org/) -->

<svg
   width="172.6701mm"
   height="172.6701mm"
   viewBox="0 0 172.6701 172.6701"
   version="1.1"
   id="svg1"
   xml:space="preserve"
   xmlns="http://www.w3.org/2000/svg"
   xmlns:svg="http://www.w3.org/2000/svg"><defs
     id="defs1" /><g
     id="layer1"
     transform="translate(157.25102,198.81012)"><path
       id="path5"
       style="fill:#ffffff;fill-opacity:1;stroke-width:0.805188;stroke-linecap:round;stroke-linejoin:round"
       d="M -2.0863309 -198.17657 L -10.088943 -183.11289 L -10.930235 -165.68398 L -19.198981 -165.68398 L -11.423229 -155.47426 L -12.166336 -140.07934 C -28.353216 -157.12094 -50.823548 -166.77435 -74.327399 -166.78417 C -103.64471 -166.77397 -130.92652 -151.79225 -146.66717 -127.05894 L -157.25102 -127.05894 L -149.61996 -115.86014 L -157.25102 -26.140039 L -8.5138455 -26.140039 L 15.419061 -26.140039 L 8.0799737 -154.80195 L 15.419061 -165.68398 L 7.4593397 -165.68398 L 6.4490654 -183.39297 L -2.0863309 -198.17657 z M -83.43072 -192.21621 C -85.584619 -189.65499 -86.77489 -186.4211 -86.795372 -183.07465 C -86.842092 -175.15518 -80.459903 -168.69733 -72.540428 -168.65072 C -64.621155 -168.60402 -58.163395 -174.98588 -58.116503 -182.90515 C -58.102813 -186.26049 -59.266203 -189.5144 -61.404157 -192.10045 C -60.83125 -190.6836 -60.536835 -189.16959 -60.537027 -187.64129 C -60.575787 -181.07411 -65.930869 -175.78172 -72.498054 -175.82031 C -79.065241 -175.85911 -84.357627 -181.21415 -84.319038 -187.78134 C -84.309338 -189.30285 -84.007827 -190.80837 -83.43072 -192.21621 z M -55.212287 -119.73381 C -51.527714 -119.73381 -48.268359 -119.11073 -45.434073 -117.86364 C -42.599786 -116.67324 -40.38912 -114.97237 -38.801919 -112.76163 C -37.214719 -110.60757 -36.421186 -108.11368 -36.421186 -105.27939 C -36.421186 -102.10499 -37.356587 -99.384015 -39.227216 -97.116586 C -41.097846 -94.849156 -43.874951 -93.120223 -47.559524 -91.929822 C -42.911294 -90.909479 -39.651939 -89.237189 -37.78131 -86.913074 C -35.91068 -84.588959 -34.975796 -81.442892 -34.975796 -77.474891 C -34.975796 -74.017061 -36.024485 -71.069506 -38.121857 -68.632019 C -40.162544 -66.194533 -42.826362 -64.380375 -46.114134 -63.189974 C -49.401907 -61.999574 -52.80313 -61.404554 -56.317646 -61.404554 C -61.419362 -61.404554 -65.755986 -62.453243 -69.327188 -64.550615 C -72.841703 -66.647987 -74.598701 -69.510317 -74.598701 -73.138204 C -74.598701 -75.235577 -73.9751 -76.851222 -72.728014 -77.984937 C -71.480928 -79.175337 -69.922443 -79.770358 -68.051813 -79.770358 C -66.124498 -79.770358 -64.168472 -79.005405 -62.184471 -77.474891 C -62.694643 -76.397862 -62.949799 -75.094016 -62.949799 -73.563501 C -62.949799 -71.749558 -62.411423 -70.275781 -61.334394 -69.142066 C -60.200679 -68.008351 -58.52839 -67.441394 -56.317646 -67.441394 C -51.442673 -67.441394 -49.005431 -70.814037 -49.005431 -77.55964 C -49.005431 -81.244213 -50.195471 -84.10706 -52.576272 -86.147746 C -54.900387 -88.188433 -58.216903 -89.208541 -62.525019 -89.208541 L -62.525019 -94.480571 C -54.192216 -95.1608 -50.025524 -98.760535 -50.025524 -105.27939 C -50.025524 -108.56717 -50.535836 -110.97583 -51.55618 -112.50634 C -52.576523 -114.09354 -53.965076 -114.88759 -55.722333 -114.88759 C -57.819706 -114.88759 -59.407288 -114.15071 -60.484317 -112.67688 C -61.50466 -111.20305 -62.014456 -109.41747 -62.014456 -107.3201 C -62.014456 -105.44947 -61.617948 -103.77718 -60.824348 -102.30335 C -62.411548 -100.60278 -64.452282 -99.752084 -66.946455 -99.752084 C -69.213884 -99.752084 -70.970881 -100.43233 -72.217967 -101.79279 C -73.465054 -103.15324 -74.088654 -104.91076 -74.088654 -107.06482 C -74.088654 -109.8991 -73.12519 -112.25164 -71.197875 -114.12227 C -69.213874 -116.04958 -66.776115 -117.46671 -63.885143 -118.37369 C -60.937484 -119.28066 -58.046574 -119.73381 -55.212287 -119.73381 z M -122.72496 -119.56379 C -115.97936 -119.56379 -110.82114 -117.69351 -107.24994 -113.95225 C -103.62205 -110.21099 -101.80789 -104.7971 -101.80789 -97.711381 C -101.80789 -88.811721 -104.58552 -81.216258 -110.14072 -74.924142 C -115.63923 -68.688711 -123.63224 -64.09693 -134.1191 -61.149272 L -136.1598 -65.400692 C -130.49123 -67.838179 -125.92803 -70.956182 -122.4702 -74.754126 C -119.01237 -78.608756 -116.71648 -83.086732 -115.58276 -88.188448 C -118.75716 -86.601248 -121.84659 -85.807715 -124.85093 -85.807715 C -130.5195 -85.807715 -134.99748 -87.338137 -138.28525 -90.399166 C -141.51634 -93.460196 -143.13199 -97.598308 -143.13199 -102.8134 C -143.13199 -106.04448 -142.28181 -108.93539 -140.58124 -111.48625 C -138.82398 -114.03711 -136.4148 -116.0212 -133.35377 -117.43834 C -130.23606 -118.85549 -126.69296 -119.56379 -122.72496 -119.56379 z M -9.126728 -119.13901 L -6.3212145 -117.86364 L -6.3212145 -68.716769 C -5.2441855 -68.093226 -3.5433155 -67.526269 -1.2192003 -67.016097 C 1.1049148 -66.562611 2.9471365 -66.279392 4.3075941 -66.16602 L 4.0523125 -62.084615 L -30.63911 -62.084615 L -30.469095 -66.16602 C -25.424064 -66.732877 -21.569172 -67.583054 -18.904943 -68.716769 L -18.904943 -109.44555 L -30.299079 -109.44555 L -30.299079 -114.37703 C -26.671192 -114.66046 -22.930105 -115.19935 -19.075475 -115.99295 C -15.220845 -116.84324 -11.904329 -117.89193 -9.126728 -119.13901 z M -123.23553 -113.69697 C -125.67301 -113.69697 -127.5433 -112.76157 -128.84707 -110.89094 C -130.15084 -109.02031 -130.80302 -106.35597 -130.80302 -102.89814 C -130.80302 -99.383629 -130.0942 -96.634587 -128.67705 -94.650586 C -127.20322 -92.723271 -125.13443 -91.759807 -122.4702 -91.759807 C -120.14608 -91.759807 -117.56697 -92.723271 -114.73269 -94.650586 L -114.73269 -95.755945 C -114.73269 -101.93469 -115.41293 -106.46931 -116.77339 -109.36028 C -118.13384 -112.25126 -120.28787 -113.69697 -123.23553 -113.69697 z M -86.928181 -101.28274 C -84.94418 -101.28274 -83.470403 -100.68772 -82.506745 -99.497319 C -81.486402 -98.363604 -80.976089 -96.776539 -80.976089 -94.735852 C -80.976089 -92.695166 -81.486402 -91.107584 -82.506745 -89.973869 C -83.470403 -88.840154 -84.94418 -88.273198 -86.928181 -88.273198 C -88.912181 -88.273198 -90.414022 -88.840154 -91.434366 -89.973869 C -92.398023 -91.16427 -92.880272 -92.751852 -92.880272 -94.735852 C -92.880272 -96.833225 -92.398023 -98.448354 -91.434366 -99.582068 C -90.414022 -100.71578 -88.912181 -101.28274 -86.928181 -101.28274 z M -86.928181 -74.498845 C -84.94418 -74.498845 -83.470403 -73.903824 -82.506745 -72.713424 C -81.486402 -71.579709 -80.976089 -69.992127 -80.976089 -67.951441 C -80.976089 -65.910754 -81.486402 -64.323689 -82.506745 -63.189974 C -83.470403 -62.05626 -84.94418 -61.489303 -86.928181 -61.489303 C -88.912181 -61.489303 -90.414022 -62.05626 -91.434366 -63.189974 C -92.398023 -64.380375 -92.880272 -65.96744 -92.880272 -67.951441 C -92.880272 -70.048813 -92.398023 -71.664459 -91.434366 -72.798173 C -90.414022 -73.931888 -88.912181 -74.498845 -86.928181 -74.498845 z " /></g></svg>
