<?xml version="1.0" encoding="UTF-8" standalone="no"?>
<!-- Created with Inkscape (http://www.inkscape.org/) -->

<svg
   width="172.6701mm"
   height="172.6701mm"
   viewBox="0 0 172.6701 172.6701"
   version="1.1"
   id="svg1"
   xml:space="preserve"
   xmlns="http://www.w3.org/2000/svg"
   xmlns:svg="http://www.w3.org/2000/svg"><defs
     id="defs1" /><g
     id="layer1"
     transform="translate(157.25102,198.81012)"><path
       id="path5"
       style="fill:#ffffff;fill-opacity:1;stroke-width:0.805188;stroke-linecap:round;stroke-linejoin:round"
       d="M -2.0863309 -198.17657 L -10.088943 -183.11289 L -10.930235 -165.68398 L -19.198981 -165.68398 L -11.423229 -155.47426 L -12.166336 -140.07934 C -28.353216 -157.12094 -50.823548 -166.77435 -74.327399 -166.78417 C -103.64471 -166.77397 -130.92652 -151.79225 -146.66717 -127.05894 L -157.25102 -127.05894 L -149.61996 -115.86014 L -157.25102 -26.140039 L -8.5138455 -26.140039 L 15.419061 -26.140039 L 8.0799737 -154.80195 L 15.419061 -165.68398 L 7.4593397 -165.68398 L 6.4490654 -183.39297 L -2.0863309 -198.17657 z M -83.43072 -192.21621 C -85.584619 -189.65499 -86.77489 -186.4211 -86.795372 -183.07465 C -86.842092 -175.15518 -80.459903 -168.69733 -72.540428 -168.65072 C -64.621155 -168.60402 -58.163395 -174.98588 -58.116503 -182.90515 C -58.102813 -186.26049 -59.266203 -189.5144 -61.404157 -192.10045 C -60.83125 -190.6836 -60.536835 -189.16959 -60.537027 -187.64129 C -60.575787 -181.07411 -65.930869 -175.78172 -72.498054 -175.82031 C -79.065241 -175.85911 -84.357627 -181.21415 -84.319038 -187.78134 C -84.309338 -189.30285 -84.007827 -190.80837 -83.43072 -192.21621 z M -57.295364 -119.73381 C -53.610791 -119.73381 -50.351436 -119.11073 -47.51715 -117.86364 C -44.682863 -116.67324 -42.472197 -114.97237 -40.884996 -112.76163 C -39.297796 -110.60757 -38.504263 -108.11368 -38.504263 -105.27939 C -38.504263 -102.10499 -39.439664 -99.384015 -41.310293 -97.116586 C -43.180923 -94.849156 -45.958545 -93.120223 -49.643118 -91.929822 C -44.994888 -90.909479 -41.735533 -89.237189 -39.864903 -86.913074 C -37.994274 -84.588959 -37.058873 -81.442892 -37.058873 -77.474891 C -37.058873 -74.017061 -38.107562 -71.069506 -40.204934 -68.632019 C -42.245621 -66.194533 -44.909956 -64.380375 -48.197728 -63.189974 C -51.485501 -61.999574 -54.886207 -61.404554 -58.400723 -61.404554 C -63.502439 -61.404554 -67.839063 -62.453243 -71.410265 -64.550615 C -74.92478 -66.647987 -76.682294 -69.510317 -76.682294 -73.138204 C -76.682294 -75.235577 -76.058694 -76.851222 -74.811608 -77.984937 C -73.564521 -79.175337 -72.00552 -79.770358 -70.13489 -79.770358 C -68.207575 -79.770358 -66.252066 -79.005405 -64.268065 -77.474891 C -64.778237 -76.397862 -65.033393 -75.094016 -65.033393 -73.563501 C -65.033393 -71.749558 -64.4945 -70.275781 -63.417471 -69.142066 C -62.283756 -68.008351 -60.611467 -67.441394 -58.400723 -67.441394 C -53.52575 -67.441394 -51.088508 -70.814037 -51.088508 -77.55964 C -51.088508 -81.244213 -52.279065 -84.10706 -54.659866 -86.147746 C -56.983981 -88.188433 -60.29998 -89.208541 -64.608096 -89.208541 L -64.608096 -94.480571 C -56.275293 -95.1608 -52.108601 -98.760535 -52.108601 -105.27939 C -52.108601 -108.56717 -52.618913 -110.97583 -53.639256 -112.50634 C -54.6596 -114.09354 -56.048669 -114.88759 -57.805927 -114.88759 C -59.903299 -114.88759 -61.490365 -114.15071 -62.567394 -112.67688 C -63.587737 -111.20305 -64.09805 -109.41747 -64.09805 -107.3201 C -64.09805 -105.44947 -63.701025 -103.77718 -62.907425 -102.30335 C -64.494625 -100.60278 -66.535359 -99.752084 -69.029532 -99.752084 C -71.296961 -99.752084 -73.053958 -100.43233 -74.301044 -101.79279 C -75.548131 -103.15324 -76.171731 -104.91076 -76.171731 -107.06482 C -76.171731 -109.8991 -75.208267 -112.25164 -73.280952 -114.12227 C -71.296951 -116.04958 -68.859192 -117.46671 -65.96822 -118.37369 C -63.020561 -119.28066 -60.129651 -119.73381 -57.295364 -119.73381 z M -13.76107 -119.73381 C -7.9224397 -119.73381 -3.274015 -118.28861 0.1838148 -115.39764 C 3.6416446 -112.56335 5.3705783 -108.56711 5.3705783 -103.40871 C 5.3705783 -98.873849 3.6416446 -94.026912 0.1838148 -88.86851 C -3.274015 -83.766794 -8.9711287 -77.616529 -16.907132 -70.41744 L 5.9658908 -70.41744 L 5.9658908 -62.084615 L -32.552172 -62.084615 L -32.552172 -67.016097 C -26.260055 -73.081471 -21.356991 -78.268272 -17.842475 -82.576388 C -14.32796 -86.884504 -11.805493 -90.852684 -10.274978 -94.480571 C -8.6877778 -98.108458 -7.8937283 -101.84955 -7.8937283 -105.70418 C -7.8937283 -111.82623 -9.9344623 -114.88759 -14.015835 -114.88759 C -15.829779 -114.88759 -17.304073 -114.0369 -18.437788 -112.33633 C -19.571502 -110.69244 -20.137942 -108.65171 -20.137942 -106.21422 C -20.137942 -104.51365 -19.542922 -102.89852 -18.352521 -101.36801 C -19.316179 -100.46103 -20.421512 -99.752209 -21.668598 -99.242037 C -22.858999 -98.731866 -24.049556 -98.476709 -25.239956 -98.476709 C -27.280643 -98.476709 -28.980996 -99.10031 -30.341454 -100.3474 C -31.701911 -101.65117 -32.382156 -103.52197 -32.382156 -105.95946 C -32.382156 -108.567 -31.617204 -110.91953 -30.086689 -113.01691 C -28.556174 -115.11428 -26.401635 -116.75799 -23.624034 -117.94839 C -20.789748 -119.13879 -17.502329 -119.73381 -13.76107 -119.73381 z M -124.80856 -119.56379 C -118.06295 -119.56379 -112.90422 -117.69351 -109.33301 -113.95225 C -105.70513 -110.21099 -103.89149 -104.7971 -103.89149 -97.711381 C -103.89149 -88.811721 -106.66911 -81.216258 -112.22431 -74.924142 C -117.72283 -68.688711 -125.71531 -64.09693 -136.20218 -61.149272 L -138.24288 -65.400692 C -132.5743 -67.838179 -128.0111 -70.956182 -124.55327 -74.754126 C -121.09544 -78.608756 -118.79955 -83.086732 -117.66584 -88.188448 C -120.84024 -86.601248 -123.92966 -85.807715 -126.93401 -85.807715 C -132.60258 -85.807715 -137.08107 -87.338137 -140.36885 -90.399166 C -143.59993 -93.460196 -145.21506 -97.598308 -145.21506 -102.8134 C -145.21506 -106.04448 -144.36489 -108.93539 -142.66431 -111.48625 C -140.90706 -114.03711 -138.49788 -116.0212 -135.43685 -117.43834 C -132.31913 -118.85549 -128.77656 -119.56379 -124.80856 -119.56379 z M -125.3186 -113.69697 C -127.75609 -113.69697 -129.62689 -112.76157 -130.93066 -110.89094 C -132.23443 -109.02031 -132.8861 -106.35597 -132.8861 -102.89814 C -132.8861 -99.383629 -132.17727 -96.634587 -130.76013 -94.650586 C -129.2863 -92.723271 -127.2175 -91.759807 -124.55327 -91.759807 C -122.22916 -91.759807 -119.65005 -92.723271 -116.81576 -94.650586 L -116.81576 -95.755945 C -116.81576 -101.93469 -117.49601 -106.46931 -118.85646 -109.36028 C -120.21692 -112.25126 -122.37094 -113.69697 -125.3186 -113.69697 z M -89.011258 -101.28274 C -87.027257 -101.28274 -85.55348 -100.68772 -84.589822 -99.497319 C -83.569479 -98.363604 -83.059166 -96.776539 -83.059166 -94.735852 C -83.059166 -92.695166 -83.569479 -91.107584 -84.589822 -89.973869 C -85.55348 -88.840154 -87.027257 -88.273198 -89.011258 -88.273198 C -90.995258 -88.273198 -92.497616 -88.840154 -93.517959 -89.973869 C -94.481617 -91.16427 -94.963349 -92.751852 -94.963349 -94.735852 C -94.963349 -96.833225 -94.481617 -98.448354 -93.517959 -99.582068 C -92.497616 -100.71578 -90.995258 -101.28274 -89.011258 -101.28274 z M -89.011258 -74.498845 C -87.027257 -74.498845 -85.55348 -73.903824 -84.589822 -72.713424 C -83.569479 -71.579709 -83.059166 -69.992127 -83.059166 -67.951441 C -83.059166 -65.910754 -83.569479 -64.323689 -84.589822 -63.189974 C -85.55348 -62.05626 -87.027257 -61.489303 -89.011258 -61.489303 C -90.995258 -61.489303 -92.497616 -62.05626 -93.517959 -63.189974 C -94.481617 -64.380375 -94.963349 -65.96744 -94.963349 -67.951441 C -94.963349 -70.048813 -94.481617 -71.664459 -93.517959 -72.798173 C -92.497616 -73.931888 -90.995258 -74.498845 -89.011258 -74.498845 z " /></g></svg>
