<?xml version="1.0" encoding="UTF-8" standalone="no"?>
<!-- Created with Inkscape (http://www.inkscape.org/) -->

<svg
   width="172.6701mm"
   height="172.6701mm"
   viewBox="0 0 172.6701 172.6701"
   version="1.1"
   id="svg1"
   xml:space="preserve"
   xmlns="http://www.w3.org/2000/svg"
   xmlns:svg="http://www.w3.org/2000/svg"><defs
     id="defs1" /><g
     id="layer1"
     transform="translate(157.25102,198.81012)"><path
       id="path5"
       style="fill:#ffffff;fill-opacity:1;stroke-width:0.805188;stroke-linecap:round;stroke-linejoin:round"
       d="M -2.0863309 -198.17657 L -10.088943 -183.11289 L -10.930235 -165.68398 L -19.198981 -165.68398 L -11.423229 -155.47426 L -12.166336 -140.07934 C -28.353216 -157.12094 -50.823548 -166.77435 -74.327399 -166.78417 C -103.64471 -166.77397 -130.92652 -151.79225 -146.66717 -127.05894 L -157.25102 -127.05894 L -149.61996 -115.86014 L -157.25102 -26.140039 L -8.5138455 -26.140039 L 15.419061 -26.140039 L 8.0799737 -154.80195 L 15.419061 -165.68398 L 7.4593397 -165.68398 L 6.4490654 -183.39297 L -2.0863309 -198.17657 z M -83.43072 -192.21621 C -85.584619 -189.65499 -86.77489 -186.4211 -86.795372 -183.07465 C -86.842092 -175.15518 -80.459903 -168.69733 -72.540428 -168.65072 C -64.621155 -168.60402 -58.163395 -174.98588 -58.116503 -182.90515 C -58.102813 -186.26049 -59.266203 -189.5144 -61.404157 -192.10045 C -60.83125 -190.6836 -60.536835 -189.16959 -60.537027 -187.64129 C -60.575787 -181.07411 -65.930869 -175.78172 -72.498054 -175.82031 C -79.065241 -175.85911 -84.357627 -181.21415 -84.319038 -187.78134 C -84.309338 -189.30285 -84.007827 -190.80837 -83.43072 -192.21621 z M -57.848302 -119.73381 C -54.163729 -119.73381 -50.904374 -119.11073 -48.070087 -117.86364 C -45.235801 -116.67324 -43.025135 -114.97237 -41.437934 -112.76163 C -39.850733 -110.60757 -39.056684 -108.11368 -39.056684 -105.27939 C -39.056684 -102.10499 -39.992085 -99.384015 -41.862714 -97.116586 C -43.733344 -94.849156 -46.510966 -93.120223 -50.195539 -91.929822 C -45.547309 -90.909479 -42.287954 -89.237189 -40.417325 -86.913074 C -38.546695 -84.588959 -37.611294 -81.442892 -37.611294 -77.474891 C -37.611294 -74.017061 -38.659983 -71.069506 -40.757355 -68.632019 C -42.798042 -66.194533 -45.462377 -64.380375 -48.750149 -63.189974 C -52.037922 -61.999574 -55.439145 -61.404554 -58.953661 -61.404554 C -64.055377 -61.404554 -68.392001 -62.453243 -71.963203 -64.550615 C -75.477718 -66.647987 -77.234715 -69.510317 -77.234715 -73.138204 C -77.234715 -75.235577 -76.611115 -76.851222 -75.364029 -77.984937 C -74.116942 -79.175337 -72.558458 -79.770358 -70.687828 -79.770358 C -68.760513 -79.770358 -66.804487 -79.005405 -64.820486 -77.474891 C -65.330658 -76.397862 -65.585814 -75.094016 -65.585814 -73.563501 C -65.585814 -71.749558 -65.047438 -70.275781 -63.970409 -69.142066 C -62.836694 -68.008351 -61.164404 -67.441394 -58.953661 -67.441394 C -54.078688 -67.441394 -51.640929 -70.814037 -51.640929 -77.55964 C -51.640929 -81.244213 -52.831486 -84.10706 -55.212287 -86.147746 C -57.536402 -88.188433 -60.852401 -89.208541 -65.160517 -89.208541 L -65.160517 -94.480571 C -56.827714 -95.1608 -52.661538 -98.760535 -52.661538 -105.27939 C -52.661538 -108.56717 -53.171851 -110.97583 -54.192194 -112.50634 C -55.212538 -114.09354 -56.601091 -114.88759 -58.358348 -114.88759 C -60.45572 -114.88759 -62.042786 -114.15071 -63.119815 -112.67688 C -64.140158 -111.20305 -64.650471 -109.41747 -64.650471 -107.3201 C -64.650471 -105.44947 -64.253963 -103.77718 -63.460362 -102.30335 C -65.047563 -100.60278 -67.08778 -99.752084 -69.581953 -99.752084 C -71.849382 -99.752084 -73.606896 -100.43233 -74.853982 -101.79279 C -76.101068 -103.15324 -76.724669 -104.91076 -76.724669 -107.06482 C -76.724669 -109.8991 -75.761204 -112.25164 -73.833889 -114.12227 C -71.849889 -116.04958 -69.41213 -117.46671 -66.521158 -118.37369 C -63.573499 -119.28066 -60.682589 -119.73381 -57.848302 -119.73381 z M -125.36098 -119.56379 C -118.61537 -119.56379 -113.45715 -117.69351 -109.88595 -113.95225 C -106.25807 -110.21099 -104.44391 -104.7971 -104.44391 -97.711381 C -104.44391 -88.811721 -107.22153 -81.216258 -112.77673 -74.924142 C -118.27525 -68.688711 -126.26825 -64.09693 -136.75511 -61.149272 L -138.79582 -65.400692 C -133.12724 -67.838179 -128.56404 -70.956182 -125.10621 -74.754126 C -121.64838 -78.608756 -119.35249 -83.086732 -118.21878 -88.188448 C -121.39318 -86.601248 -124.4826 -85.807715 -127.48695 -85.807715 C -133.15552 -85.807715 -137.63349 -87.338137 -140.92127 -90.399166 C -144.15235 -93.460196 -145.768 -97.598308 -145.768 -102.8134 C -145.768 -106.04448 -144.91782 -108.93539 -143.21725 -111.48625 C -141.45999 -114.03711 -139.05082 -116.0212 -135.98979 -117.43834 C -132.87207 -118.85549 -129.32898 -119.56379 -125.36098 -119.56379 z M -26.047659 -119.05375 L -21.796239 -118.969 C -15.787551 -118.85563 -12.612904 -118.79847 -12.272789 -118.79847 L -0.19910757 -118.969 L 2.2668918 -117.18306 L 1.5015638 -110.72092 L -19.585521 -110.72092 L -20.775629 -96.521273 C -17.827971 -97.258188 -15.164153 -97.626632 -12.783352 -97.626632 C -7.1714646 -97.626632 -2.6082643 -96.124274 0.90625132 -93.11993 C 4.4774526 -90.172272 6.2630303 -85.836165 6.2630303 -80.110905 C 6.2630303 -76.539704 5.4128536 -73.336993 3.7122816 -70.502706 C 2.0683953 -67.66842 -0.31220268 -65.429173 -3.4299181 -63.785287 C -6.5476335 -62.198086 -10.232077 -61.404554 -14.483507 -61.404554 C -17.941337 -61.404554 -21.087404 -61.886286 -23.921691 -62.849943 C -26.699292 -63.813601 -28.881894 -65.14551 -30.469095 -66.846082 C -32.056295 -68.60334 -32.849828 -70.559366 -32.849828 -72.713424 C -32.849828 -74.980853 -32.226227 -76.709787 -30.979141 -77.900188 C -29.732055 -79.147274 -28.201633 -79.770358 -26.38769 -79.770358 C -25.367347 -79.770358 -24.347238 -79.572362 -23.326895 -79.175562 C -22.249866 -78.778762 -21.285884 -78.211805 -20.435598 -77.474891 C -20.94577 -76.28449 -21.200926 -75.037289 -21.200926 -73.733517 C -21.200926 -71.862888 -20.66255 -70.332466 -19.585521 -69.142066 C -18.451806 -67.951665 -16.750936 -67.356645 -14.483507 -67.356645 C -9.3817908 -67.356645 -6.8312609 -71.608045 -6.8312609 -80.110905 C -6.8312609 -84.135593 -7.6247935 -87.054567 -9.2119941 -88.86851 C -10.799195 -90.73914 -12.924636 -91.674541 -15.588866 -91.674541 C -17.232752 -91.674541 -18.990266 -91.36274 -20.860895 -90.739197 C -22.731525 -90.115654 -24.573746 -89.236897 -26.38769 -88.103182 L -31.064407 -92.609884 L -28.853689 -116.75776 L -26.047659 -119.05375 z M -125.87102 -113.69697 C -128.30851 -113.69697 -130.17931 -112.76157 -131.48308 -110.89094 C -132.78686 -109.02031 -133.43904 -106.35597 -133.43904 -102.89814 C -133.43904 -99.383629 -132.73021 -96.634587 -131.31307 -94.650586 C -129.83924 -92.723271 -127.77044 -91.759807 -125.10621 -91.759807 C -122.7821 -91.759807 -120.20247 -92.723271 -117.36818 -94.650586 L -117.36818 -95.755945 C -117.36818 -101.93469 -118.04843 -106.46931 -119.40889 -109.36028 C -120.76934 -112.25126 -122.92337 -113.69697 -125.87102 -113.69697 z M -89.564195 -101.28274 C -87.580195 -101.28274 -86.105901 -100.68772 -85.142243 -99.497319 C -84.1219 -98.363604 -83.612104 -96.776539 -83.612104 -94.735852 C -83.612104 -92.695166 -84.1219 -91.107584 -85.142243 -89.973869 C -86.105901 -88.840154 -87.580195 -88.273198 -89.564195 -88.273198 C -91.548196 -88.273198 -93.050037 -88.840154 -94.07038 -89.973869 C -95.034038 -91.16427 -95.51577 -92.751852 -95.51577 -94.735852 C -95.51577 -96.833225 -95.034038 -98.448354 -94.07038 -99.582068 C -93.050037 -100.71578 -91.548196 -101.28274 -89.564195 -101.28274 z M -89.564195 -74.498845 C -87.580195 -74.498845 -86.105901 -73.903824 -85.142243 -72.713424 C -84.1219 -71.579709 -83.612104 -69.992127 -83.612104 -67.951441 C -83.612104 -65.910754 -84.1219 -64.323689 -85.142243 -63.189974 C -86.105901 -62.05626 -87.580195 -61.489303 -89.564195 -61.489303 C -91.548196 -61.489303 -93.050037 -62.05626 -94.07038 -63.189974 C -95.034038 -64.380375 -95.51577 -65.96744 -95.51577 -67.951441 C -95.51577 -70.048813 -95.034038 -71.664459 -94.07038 -72.798173 C -93.050037 -73.931888 -91.548196 -74.498845 -89.564195 -74.498845 z " /></g></svg>
