<?xml version="1.0" encoding="UTF-8" standalone="no"?>
<!-- Created with Inkscape (http://www.inkscape.org/) -->

<svg
   width="172.6701mm"
   height="172.6701mm"
   viewBox="0 0 172.6701 172.6701"
   version="1.1"
   id="svg1"
   xml:space="preserve"
   xmlns="http://www.w3.org/2000/svg"
   xmlns:svg="http://www.w3.org/2000/svg"><defs
     id="defs1" /><g
     id="layer1"
     transform="translate(157.25102,198.81012)"><path
       id="path5"
       style="fill:#ffffff;fill-opacity:1;stroke-width:0.805188;stroke-linecap:round;stroke-linejoin:round"
       d="M -2.0863309 -198.17657 L -10.088943 -183.11289 L -10.930235 -165.68398 L -19.198981 -165.68398 L -11.423229 -155.47426 L -12.166336 -140.07934 C -28.353216 -157.12094 -50.823548 -166.77435 -74.327399 -166.78417 C -103.64471 -166.77397 -130.92652 -151.79225 -146.66717 -127.05894 L -157.25102 -127.05894 L -149.61996 -115.86014 L -157.25102 -26.140039 L -8.5138455 -26.140039 L 15.419061 -26.140039 L 8.0799737 -154.80195 L 15.419061 -165.68398 L 7.4593397 -165.68398 L 6.4490654 -183.39297 L -2.0863309 -198.17657 z M -83.43072 -192.21621 C -85.584619 -189.65499 -86.77489 -186.4211 -86.795372 -183.07465 C -86.842092 -175.15518 -80.459903 -168.69733 -72.540428 -168.65072 C -64.621155 -168.60402 -58.163395 -174.98588 -58.116503 -182.90515 C -58.102813 -186.26049 -59.266203 -189.5144 -61.404157 -192.10045 C -60.83125 -190.6836 -60.536835 -189.16959 -60.537027 -187.64129 C -60.575787 -181.07411 -65.930869 -175.78172 -72.498054 -175.82031 C -79.065241 -175.85911 -84.357627 -181.21415 -84.319038 -187.78134 C -84.309338 -189.30285 -84.007827 -190.80837 -83.43072 -192.21621 z M -1.5592313 -119.90383 L 0.48147105 -115.65241 C -10.969047 -110.72075 -17.856719 -103.12528 -20.180834 -92.865166 C -16.893061 -94.452366 -13.775058 -95.245899 -10.827399 -95.245899 C -5.1588259 -95.245899 -0.70891354 -93.715477 2.5221734 -90.654448 C 5.809946 -87.593418 7.4536553 -83.455306 7.4536553 -78.240218 C 7.4536553 -75.009132 6.5748983 -72.118221 4.8176405 -69.567363 C 3.1170684 -67.016505 0.70789009 -65.032415 -2.4098253 -63.615271 C -5.470855 -62.198128 -8.9853664 -61.489303 -12.953368 -61.489303 C -19.69897 -61.489303 -24.885771 -63.360105 -28.513658 -67.101363 C -32.08486 -70.842622 -33.870437 -76.255999 -33.870437 -83.341716 C -33.870437 -92.241376 -31.120878 -99.808775 -25.622362 -106.04421 C -20.06716 -112.33632 -12.046092 -116.95617 -1.5592313 -119.90383 z M -58.61363 -119.73381 C -54.929057 -119.73381 -51.669702 -119.11073 -48.835415 -117.86364 C -46.001129 -116.67324 -43.789946 -114.97237 -42.202745 -112.76163 C -40.615545 -110.60757 -39.822012 -108.11368 -39.822012 -105.27939 C -39.822012 -102.10499 -40.757413 -99.384015 -42.628042 -97.116586 C -44.498672 -94.849156 -47.276294 -93.120223 -50.960867 -91.929822 C -46.312637 -90.909479 -43.053282 -89.237189 -41.182652 -86.913074 C -39.312023 -84.588959 -38.376622 -81.442892 -38.376622 -77.474891 C -38.376622 -74.017061 -39.425311 -71.069506 -41.522683 -68.632019 C -43.56337 -66.194533 -46.227705 -64.380375 -49.515477 -63.189974 C -52.80325 -61.999574 -56.204473 -61.404554 -59.718989 -61.404554 C -64.820705 -61.404554 -69.156813 -62.453243 -72.728014 -64.550615 C -76.242529 -66.647987 -78.000043 -69.510317 -78.000043 -73.138204 C -78.000043 -75.235577 -77.376443 -76.851222 -76.129357 -77.984937 C -74.88227 -79.175337 -73.323269 -79.770358 -71.452639 -79.770358 C -69.525324 -79.770358 -67.569815 -79.005405 -65.585814 -77.474891 C -66.095986 -76.397862 -66.351142 -75.094016 -66.351142 -73.563501 C -66.351142 -71.749558 -65.812766 -70.275781 -64.735737 -69.142066 C -63.602022 -68.008351 -61.929732 -67.441394 -59.718989 -67.441394 C -54.844016 -67.441394 -52.406257 -70.814037 -52.406257 -77.55964 C -52.406257 -81.244213 -53.596814 -84.10706 -55.977615 -86.147746 C -58.30173 -88.188433 -61.617729 -89.208541 -65.925845 -89.208541 L -65.925845 -94.480571 C -57.593042 -95.1608 -53.426866 -98.760535 -53.426866 -105.27939 C -53.426866 -108.56717 -53.937179 -110.97583 -54.957522 -112.50634 C -55.977866 -114.09354 -57.366418 -114.88759 -59.123676 -114.88759 C -61.221048 -114.88759 -62.808114 -114.15071 -63.885143 -112.67688 C -64.905486 -111.20305 -65.415799 -109.41747 -65.415799 -107.3201 C -65.415799 -105.44947 -65.018774 -103.77718 -64.225174 -102.30335 C -65.812374 -100.60278 -67.853108 -99.752084 -70.347281 -99.752084 C -72.61471 -99.752084 -74.372224 -100.43233 -75.61931 -101.79279 C -76.866396 -103.15324 -77.489997 -104.91076 -77.489997 -107.06482 C -77.489997 -109.8991 -76.526016 -112.25164 -74.598701 -114.12227 C -72.6147 -116.04958 -70.177458 -117.46671 -67.286485 -118.37369 C -64.338827 -119.28066 -61.447917 -119.73381 -58.61363 -119.73381 z M -126.1263 -119.56379 C -119.3807 -119.56379 -114.22248 -117.69351 -110.65128 -113.95225 C -107.02339 -110.21099 -105.20924 -104.7971 -105.20924 -97.711381 C -105.20924 -88.811721 -107.98686 -81.216258 -113.54206 -74.924142 C -119.04058 -68.688711 -127.03306 -64.09693 -137.51992 -61.149272 L -139.56063 -65.400692 C -133.89205 -67.838179 -129.32885 -70.956182 -125.87102 -74.754126 C -122.41319 -78.608756 -120.11782 -83.086732 -118.98411 -88.188448 C -122.15851 -86.601248 -125.24793 -85.807715 -128.25227 -85.807715 C -133.92085 -85.807715 -138.39882 -87.338137 -141.6866 -90.399166 C -144.91768 -93.460196 -146.53333 -97.598308 -146.53333 -102.8134 C -146.53333 -106.04448 -145.68263 -108.93539 -143.98206 -111.48625 C -142.2248 -114.03711 -139.81614 -116.0212 -136.75511 -117.43834 C -133.6374 -118.85549 -130.09431 -119.56379 -126.1263 -119.56379 z M -126.63635 -113.69697 C -129.07384 -113.69697 -130.94464 -112.76157 -132.24841 -110.89094 C -133.55218 -109.02031 -134.20385 -106.35597 -134.20385 -102.89814 C -134.20385 -99.383629 -133.49554 -96.634587 -132.0784 -94.650586 C -130.60457 -92.723271 -128.53525 -91.759807 -125.87102 -91.759807 C -123.54691 -91.759807 -120.9678 -92.723271 -118.13351 -94.650586 L -118.13351 -95.755945 C -118.13351 -101.93469 -118.81376 -106.46931 -120.17421 -109.36028 C -121.53467 -112.25126 -123.68869 -113.69697 -126.63635 -113.69697 z M -90.329007 -101.28274 C -88.345006 -101.28274 -86.871229 -100.68772 -85.907571 -99.497319 C -84.887228 -98.363604 -84.377432 -96.776539 -84.377432 -94.735852 C -84.377432 -92.695166 -84.887228 -91.107584 -85.907571 -89.973869 C -86.871229 -88.840154 -88.345006 -88.273198 -90.329007 -88.273198 C -92.313007 -88.273198 -93.815365 -88.840154 -94.835708 -89.973869 C -95.799366 -91.16427 -96.281098 -92.751852 -96.281098 -94.735852 C -96.281098 -96.833225 -95.799366 -98.448354 -94.835708 -99.582068 C -93.815365 -100.71578 -92.313007 -101.28274 -90.329007 -101.28274 z M -13.208133 -89.293807 C -15.588934 -89.293807 -18.168044 -88.330343 -20.945645 -86.403028 L -20.945645 -85.297669 C -20.945645 -79.118924 -20.2654 -74.583787 -18.904943 -71.692814 C -17.544485 -68.801842 -15.390463 -67.356645 -12.442805 -67.356645 C -10.005318 -67.356645 -8.1350328 -68.291529 -6.8312609 -70.162159 C -5.527489 -72.032788 -4.8753079 -74.697123 -4.8753079 -78.154952 C -4.8753079 -81.669468 -5.6121966 -84.390447 -7.0860257 -86.317762 C -8.5031691 -88.301762 -10.543903 -89.293807 -13.208133 -89.293807 z M -90.329007 -74.498845 C -88.345006 -74.498845 -86.871229 -73.903824 -85.907571 -72.713424 C -84.887228 -71.579709 -84.377432 -69.992127 -84.377432 -67.951441 C -84.377432 -65.910754 -84.887228 -64.323689 -85.907571 -63.189974 C -86.871229 -62.05626 -88.345006 -61.489303 -90.329007 -61.489303 C -92.313007 -61.489303 -93.815365 -62.05626 -94.835708 -63.189974 C -95.799366 -64.380375 -96.281098 -65.96744 -96.281098 -67.951441 C -96.281098 -70.048813 -95.799366 -71.664459 -94.835708 -72.798173 C -93.815365 -73.931888 -92.313007 -74.498845 -90.329007 -74.498845 z " /></g></svg>
