<?xml version="1.0" encoding="UTF-8" standalone="no"?>
<!-- Created with Inkscape (http://www.inkscape.org/) -->

<svg
   width="172.6701mm"
   height="172.6701mm"
   viewBox="0 0 172.6701 172.6701"
   version="1.1"
   id="svg1"
   xml:space="preserve"
   xmlns="http://www.w3.org/2000/svg"
   xmlns:svg="http://www.w3.org/2000/svg"><defs
     id="defs1" /><g
     id="layer1"
     transform="translate(157.25102,198.81012)"><path
       id="path5"
       style="fill:#ffffff;fill-opacity:1;stroke-width:0.805188;stroke-linecap:round;stroke-linejoin:round"
       d="M -2.0863309 -198.17657 L -10.088943 -183.11289 L -10.930235 -165.68398 L -19.198981 -165.68398 L -11.423229 -155.47426 L -12.166336 -140.07934 C -28.353216 -157.12094 -50.823548 -166.77435 -74.327399 -166.78417 C -103.64471 -166.77397 -130.92652 -151.79225 -146.66717 -127.05894 L -157.25102 -127.05894 L -149.61996 -115.86014 L -157.25102 -26.140039 L -8.5138455 -26.140039 L 15.419061 -26.140039 L 8.0799737 -154.80195 L 15.419061 -165.68398 L 7.4593397 -165.68398 L 6.4490654 -183.39297 L -2.0863309 -198.17657 z M -83.43072 -192.21621 C -85.584619 -189.65499 -86.77489 -186.4211 -86.795372 -183.07465 C -86.842092 -175.15518 -80.459903 -168.69733 -72.540428 -168.65072 C -64.621155 -168.60402 -58.163395 -174.98588 -58.116503 -182.90515 C -58.102813 -186.26049 -59.266203 -189.5144 -61.404157 -192.10045 C -60.83125 -190.6836 -60.536835 -189.16959 -60.537027 -187.64129 C -60.575787 -181.07411 -65.930869 -175.78172 -72.498054 -175.82031 C -79.065241 -175.85911 -84.357627 -181.21415 -84.319038 -187.78134 C -84.309338 -189.30285 -84.007827 -190.80837 -83.43072 -192.21621 z M -13.378148 -119.81908 C -7.4261459 -119.81908 -2.6930136 -118.54381 0.82150197 -115.99295 C 4.3360175 -113.44209 6.0930148 -110.01229 6.0930148 -105.70418 C 6.0930148 -103.38006 5.2428382 -101.05611 3.5422661 -98.731991 C 1.8416941 -96.407876 -0.39703552 -94.50901 -3.1746365 -93.035181 C 0.33987904 -91.334609 3.0889213 -89.350519 5.0729221 -87.08309 C 7.1136085 -84.81566 8.1337171 -81.896169 8.1337171 -78.324968 C 8.1337171 -73.166566 6.2634319 -69.057034 2.5221734 -65.996005 C -1.2190852 -62.991661 -6.2640178 -61.489303 -12.61282 -61.489303 C -19.585166 -61.489303 -24.970479 -62.878373 -28.768423 -65.655974 C -32.509682 -68.433575 -34.380484 -72.401238 -34.380484 -77.55964 C -34.380484 -80.223869 -33.530307 -82.86014 -31.829735 -85.467684 C -30.129163 -88.131914 -27.748048 -90.483931 -24.687019 -92.524618 C -27.237877 -93.941761 -29.221967 -95.642631 -30.63911 -97.626632 C -32.056253 -99.610633 -32.765078 -102.07646 -32.765078 -105.02411 C -32.765078 -109.55897 -31.007564 -113.15871 -27.493049 -115.82294 C -23.978533 -118.48717 -19.273465 -119.81908 -13.378148 -119.81908 z M -59.378958 -119.73381 C -55.694385 -119.73381 -52.434513 -119.11073 -49.600227 -117.86364 C -46.76594 -116.67324 -44.555274 -114.97237 -42.968073 -112.76163 C -41.380873 -110.60757 -40.58734 -108.11368 -40.58734 -105.27939 C -40.58734 -102.10499 -41.522741 -99.384015 -43.39337 -97.116586 C -45.264 -94.849156 -48.041622 -93.120223 -51.726195 -91.929822 C -47.077965 -90.909479 -43.81861 -89.237189 -41.94798 -86.913074 C -40.077351 -84.588959 -39.14195 -81.442892 -39.14195 -77.474891 C -39.14195 -74.017061 -40.190639 -71.069506 -42.288011 -68.632019 C -44.328698 -66.194533 -46.993033 -64.380375 -50.280805 -63.189974 C -53.568578 -61.999574 -56.969801 -61.404554 -60.484317 -61.404554 C -65.586033 -61.404554 -69.92214 -62.453243 -73.493342 -64.550615 C -77.007857 -66.647987 -78.765371 -69.510317 -78.765371 -73.138204 C -78.765371 -75.235577 -78.141771 -76.851222 -76.894685 -77.984937 C -75.647598 -79.175337 -74.088597 -79.770358 -72.217967 -79.770358 C -70.290652 -79.770358 -68.335143 -79.005405 -66.351142 -77.474891 C -66.861314 -76.397862 -67.11647 -75.094016 -67.11647 -73.563501 C -67.11647 -71.749558 -66.577577 -70.275781 -65.500548 -69.142066 C -64.366833 -68.008351 -62.69506 -67.441394 -60.484317 -67.441394 C -55.609343 -67.441394 -53.171585 -70.814037 -53.171585 -77.55964 C -53.171585 -81.244213 -54.362142 -84.10706 -56.742943 -86.147746 C -59.067058 -88.188433 -62.383057 -89.208541 -66.691173 -89.208541 L -66.691173 -94.480571 C -58.35837 -95.1608 -54.192194 -98.760535 -54.192194 -105.27939 C -54.192194 -108.56717 -54.70199 -110.97583 -55.722333 -112.50634 C -56.742677 -114.09354 -58.131746 -114.88759 -59.889004 -114.88759 C -61.986376 -114.88759 -63.573442 -114.15071 -64.650471 -112.67688 C -65.670814 -111.20305 -66.181127 -109.41747 -66.181127 -107.3201 C -66.181127 -105.44947 -65.784102 -103.77718 -64.990502 -102.30335 C -66.577702 -100.60278 -68.618436 -99.752084 -71.112609 -99.752084 C -73.380038 -99.752084 -75.137552 -100.43233 -76.384638 -101.79279 C -77.631724 -103.15324 -78.255325 -104.91076 -78.255325 -107.06482 C -78.255325 -109.8991 -77.291344 -112.25164 -75.364029 -114.12227 C -73.380028 -116.04958 -70.942786 -117.46671 -68.051813 -118.37369 C -65.104155 -119.28066 -62.213245 -119.73381 -59.378958 -119.73381 z M -126.89163 -119.56379 C -120.14603 -119.56379 -114.98729 -117.69351 -111.41609 -113.95225 C -107.7882 -110.21099 -105.97456 -104.7971 -105.97456 -97.711381 C -105.97456 -88.811721 -108.75219 -81.216258 -114.30739 -74.924142 C -119.8059 -68.688711 -127.79839 -64.09693 -138.28525 -61.149272 L -140.32595 -65.400692 C -134.65738 -67.838179 -130.09418 -70.956182 -126.63635 -74.754126 C -123.17852 -78.608756 -120.88263 -83.086732 -119.74892 -88.188448 C -122.92332 -86.601248 -126.01274 -85.807715 -129.01708 -85.807715 C -134.68566 -85.807715 -139.16415 -87.338137 -142.45192 -90.399166 C -145.68301 -93.460196 -147.29866 -97.598308 -147.29866 -102.8134 C -147.29866 -106.04448 -146.44796 -108.93539 -144.74739 -111.48625 C -142.99013 -114.03711 -140.58095 -116.0212 -137.51992 -117.43834 C -134.40221 -118.85549 -130.85963 -119.56379 -126.89163 -119.56379 z M -13.378148 -113.78224 C -15.645577 -113.78224 -17.431155 -113.04535 -18.734927 -111.57152 C -20.038699 -110.15437 -20.69088 -108.22693 -20.69088 -105.78944 C -20.69088 -103.63538 -19.868767 -101.84981 -18.224881 -100.43266 C -16.524309 -99.072205 -14.058486 -97.711715 -10.827399 -96.351258 C -9.410256 -97.314915 -8.2768594 -98.646824 -7.4265734 -100.3474 C -6.5762874 -102.04797 -6.1506823 -103.86213 -6.1506823 -105.78944 C -6.1506823 -108.22693 -6.8309269 -110.15437 -8.1913846 -111.57152 C -9.4951565 -113.04535 -11.22409 -113.78224 -13.378148 -113.78224 z M -127.40168 -113.69697 C -129.83917 -113.69697 -131.70997 -112.76157 -133.01374 -110.89094 C -134.31751 -109.02031 -134.96918 -106.35597 -134.96918 -102.89814 C -134.96918 -99.383629 -134.26087 -96.634587 -132.84372 -94.650586 C -131.3699 -92.723271 -129.30058 -91.759807 -126.63635 -91.759807 C -124.31224 -91.759807 -121.73313 -92.723271 -118.89884 -94.650586 L -118.89884 -95.755945 C -118.89884 -101.93469 -119.57908 -106.46931 -120.93954 -109.36028 C -122.3 -112.25126 -124.45402 -113.69697 -127.40168 -113.69697 z M -91.094335 -101.28274 C -89.110334 -101.28274 -87.636557 -100.68772 -86.672899 -99.497319 C -85.652556 -98.363604 -85.142243 -96.776539 -85.142243 -94.735852 C -85.142243 -92.695166 -85.652556 -91.107584 -86.672899 -89.973869 C -87.636557 -88.840154 -89.110334 -88.273198 -91.094335 -88.273198 C -93.078335 -88.273198 -94.580693 -88.840154 -95.601036 -89.973869 C -96.564694 -91.16427 -97.046426 -92.751852 -97.046426 -94.735852 C -97.046426 -96.833225 -96.564694 -98.448354 -95.601036 -99.582068 C -94.580693 -100.71578 -93.078335 -101.28274 -91.094335 -101.28274 z M -16.86424 -89.038526 C -18.564812 -87.678068 -19.812014 -86.119583 -20.605614 -84.362325 C -21.399214 -82.605068 -21.796239 -80.50769 -21.796239 -78.070203 C -21.796239 -74.725745 -20.974126 -72.089474 -19.33024 -70.162159 C -17.686353 -68.291529 -15.447107 -67.356645 -12.61282 -67.356645 C -9.8352191 -67.356645 -7.6811971 -68.291529 -6.1506823 -70.162159 C -4.5634817 -72.032788 -3.769949 -74.640479 -3.769949 -77.984937 C -3.769949 -79.855566 -4.3654861 -81.442631 -5.5558865 -82.746403 C -6.6896012 -84.106861 -8.1347982 -85.212194 -9.892056 -86.06248 C -11.649314 -86.969452 -13.973268 -87.961497 -16.86424 -89.038526 z M -91.094335 -74.498845 C -89.110334 -74.498845 -87.636557 -73.903824 -86.672899 -72.713424 C -85.652556 -71.579709 -85.142243 -69.992127 -85.142243 -67.951441 C -85.142243 -65.910754 -85.652556 -64.323689 -86.672899 -63.189974 C -87.636557 -62.05626 -89.110334 -61.489303 -91.094335 -61.489303 C -93.078335 -61.489303 -94.580693 -62.05626 -95.601036 -63.189974 C -96.564694 -64.380375 -97.046426 -65.96744 -97.046426 -67.951441 C -97.046426 -70.048813 -96.564694 -71.664459 -95.601036 -72.798173 C -94.580693 -73.931888 -93.078335 -74.498845 -91.094335 -74.498845 z " /></g></svg>
