<?xml version="1.0" encoding="UTF-8" standalone="no"?>
<!-- Created with Inkscape (http://www.inkscape.org/) -->

<svg
   width="172.6701mm"
   height="172.6701mm"
   viewBox="0 0 172.6701 172.6701"
   version="1.1"
   id="svg1"
   xml:space="preserve"
   xmlns="http://www.w3.org/2000/svg"
   xmlns:svg="http://www.w3.org/2000/svg"><defs
     id="defs1" /><g
     id="layer1"
     transform="translate(157.25102,198.81012)"><path
       id="path5"
       style="fill:#ffffff;fill-opacity:1;stroke-width:0.805188;stroke-linecap:round;stroke-linejoin:round"
       d="M -2.0863309 -198.17657 L -10.088943 -183.11289 L -10.930235 -165.68398 L -19.198981 -165.68398 L -11.423229 -155.47426 L -12.166336 -140.07934 C -28.353216 -157.12094 -50.823548 -166.77435 -74.327399 -166.78417 C -103.64471 -166.77397 -130.92652 -151.79225 -146.66717 -127.05894 L -157.25102 -127.05894 L -149.61996 -115.86014 L -157.25102 -26.140039 L -8.5138455 -26.140039 L 15.419061 -26.140039 L 8.0799737 -154.80195 L 15.419061 -165.68398 L 7.4593397 -165.68398 L 6.4490654 -183.39297 L -2.0863309 -198.17657 z M -83.43072 -192.21621 C -85.584619 -189.65499 -86.77489 -186.4211 -86.795372 -183.07465 C -86.842092 -175.15518 -80.459903 -168.69733 -72.540428 -168.65072 C -64.621155 -168.60402 -58.163395 -174.98588 -58.116503 -182.90515 C -58.102813 -186.26049 -59.266203 -189.5144 -61.404157 -192.10045 C -60.83125 -190.6836 -60.536835 -189.16959 -60.537027 -187.64129 C -60.575787 -181.07411 -65.930869 -175.78172 -72.498054 -175.82031 C -79.065241 -175.85911 -84.357627 -181.21415 -84.319038 -187.78134 C -84.309338 -189.30285 -84.007827 -190.80837 -83.43072 -192.21621 z M -59.378958 -120.07436 C -54.844099 -119.84761 -51.159139 -118.85557 -48.324852 -117.09831 L -68.56186 -83.767013 L -55.552318 -83.767013 L -54.702241 -97.626632 C -52.888297 -97.626632 -51.584452 -97.995076 -50.790852 -98.731991 C -49.940566 -99.468905 -49.288901 -100.71611 -48.835415 -102.47336 L -43.988683 -102.47336 L -44.073432 -83.341716 C -41.919374 -82.718173 -39.198912 -82.066508 -35.91114 -81.38628 L -36.33592 -77.304875 L -44.498729 -77.304875 L -44.498729 -62.084615 L -55.552318 -62.084615 L -55.552318 -77.304875 L -80.126012 -77.304875 L -80.806074 -80.36567 L -59.378958 -120.07436 z M -11.16743 -119.64906 C -4.5351993 -119.64906 0.53779695 -117.15466 4.0523125 -112.16631 C 7.6235138 -107.23465 9.4090915 -100.06428 9.4090915 -90.654448 C 9.4090915 -81.244616 7.6235138 -74.017081 4.0523125 -68.97205 C 0.53779695 -63.983706 -4.5351993 -61.489303 -11.16743 -61.489303 C -17.799661 -61.489303 -22.901755 -63.983706 -26.472956 -68.97205 C -30.044157 -74.017081 -31.829735 -81.244616 -31.829735 -90.654448 C -31.829735 -100.00759 -30.044157 -107.17797 -26.472956 -112.16631 C -22.901755 -117.15466 -17.799661 -119.64906 -11.16743 -119.64906 z M -127.82698 -119.56379 C -121.08137 -119.56379 -115.92315 -117.69351 -112.35195 -113.95225 C -108.72406 -110.21099 -106.90991 -104.7971 -106.90991 -97.711381 C -106.90991 -88.811721 -109.68753 -81.216258 -115.24273 -74.924142 C -120.74125 -68.688711 -128.73374 -64.09693 -139.2206 -61.149272 L -141.2613 -65.400692 C -135.59272 -67.838179 -131.02952 -70.956182 -127.57169 -74.754126 C -124.11386 -78.608756 -121.81797 -83.086732 -120.68426 -88.188448 C -123.85866 -86.601248 -126.94808 -85.807715 -129.95243 -85.807715 C -135.621 -85.807715 -140.09949 -87.338137 -143.38727 -90.399166 C -146.61835 -93.460196 -148.234 -97.598308 -148.234 -102.8134 C -148.234 -106.04448 -147.38331 -108.93539 -145.68273 -111.48625 C -143.92548 -114.03711 -141.5163 -116.0212 -138.45527 -117.43834 C -135.33755 -118.85549 -131.79498 -119.56379 -127.82698 -119.56379 z M -11.16743 -115.31237 C -14.058403 -115.31237 -16.155781 -113.41351 -17.459553 -109.61556 C -18.706639 -105.81762 -19.33024 -99.497422 -19.33024 -90.654448 C -19.33024 -81.868159 -18.706639 -75.576025 -17.459553 -71.778081 C -16.155781 -68.036822 -14.058403 -66.16602 -11.16743 -66.16602 C -8.2764578 -66.16602 -6.2076602 -68.036822 -4.960574 -71.778081 C -3.6568021 -75.576025 -3.0051378 -81.868159 -3.0051378 -90.654448 C -3.0051378 -99.440737 -3.6568021 -105.73287 -4.960574 -109.53081 C -6.2076602 -113.38544 -8.2764578 -115.31237 -11.16743 -115.31237 z M -128.33702 -113.69697 C -130.77451 -113.69697 -132.64531 -112.76157 -133.94908 -110.89094 C -135.25286 -109.02031 -135.90452 -106.35597 -135.90452 -102.89814 C -135.90452 -99.383629 -135.19621 -96.634587 -133.77907 -94.650586 C -132.30524 -92.723271 -130.23592 -91.759807 -127.57169 -91.759807 C -125.24758 -91.759807 -122.66847 -92.723271 -119.83418 -94.650586 L -119.83418 -95.755945 C -119.83418 -101.93469 -120.51443 -106.46931 -121.87488 -109.36028 C -123.23534 -112.25126 -125.38936 -113.69697 -128.33702 -113.69697 z M -92.029678 -101.28274 C -90.045677 -101.28274 -88.5719 -100.68772 -87.608242 -99.497319 C -86.587899 -98.363604 -86.077587 -96.776539 -86.077587 -94.735852 C -86.077587 -92.695166 -86.587899 -91.107584 -87.608242 -89.973869 C -88.5719 -88.840154 -90.045677 -88.273198 -92.029678 -88.273198 C -94.013679 -88.273198 -95.516036 -88.840154 -96.53638 -89.973869 C -97.500037 -91.16427 -97.98177 -92.751852 -97.98177 -94.735852 C -97.98177 -96.833225 -97.500037 -98.448354 -96.53638 -99.582068 C -95.516036 -100.71578 -94.013679 -101.28274 -92.029678 -101.28274 z M -92.029678 -74.498845 C -90.045677 -74.498845 -88.5719 -73.903824 -87.608242 -72.713424 C -86.587899 -71.579709 -86.077587 -69.992127 -86.077587 -67.951441 C -86.077587 -65.910754 -86.587899 -64.323689 -87.608242 -63.189974 C -88.5719 -62.05626 -90.045677 -61.489303 -92.029678 -61.489303 C -94.013679 -61.489303 -95.516036 -62.05626 -96.53638 -63.189974 C -97.500037 -64.380375 -97.98177 -65.96744 -97.98177 -67.951441 C -97.98177 -70.048813 -97.500037 -71.664459 -96.53638 -72.798173 C -95.516036 -73.931888 -94.013679 -74.498845 -92.029678 -74.498845 z " /></g></svg>
