<?xml version="1.0" encoding="UTF-8" standalone="no"?>
<!-- Created with Inkscape (http://www.inkscape.org/) -->

<svg
   width="172.6701mm"
   height="172.6701mm"
   viewBox="0 0 172.6701 172.6701"
   version="1.1"
   id="svg1"
   xml:space="preserve"
   xmlns="http://www.w3.org/2000/svg"
   xmlns:svg="http://www.w3.org/2000/svg"><defs
     id="defs1" /><g
     id="layer1"
     transform="translate(157.25102,198.81012)"><path
       id="path5"
       style="fill:#ffffff;fill-opacity:1;stroke-width:0.805188;stroke-linecap:round;stroke-linejoin:round"
       d="M -2.0863309 -198.17657 L -10.088943 -183.11289 L -10.930235 -165.68398 L -19.198981 -165.68398 L -11.423229 -155.47426 L -12.166336 -140.07934 C -28.353216 -157.12094 -50.823548 -166.77435 -74.327399 -166.78417 C -103.64471 -166.77397 -130.92652 -151.79225 -146.66717 -127.05894 L -157.25102 -127.05894 L -149.61996 -115.86014 L -157.25102 -26.140039 L -8.5138455 -26.140039 L 15.419061 -26.140039 L 8.0799737 -154.80195 L 15.419061 -165.68398 L 7.4593397 -165.68398 L 6.4490654 -183.39297 L -2.0863309 -198.17657 z M -83.43072 -192.21621 C -85.584619 -189.65499 -86.77489 -186.4211 -86.795372 -183.07465 C -86.842092 -175.15518 -80.459903 -168.69733 -72.540428 -168.65072 C -64.621155 -168.60402 -58.163395 -174.98588 -58.116503 -182.90515 C -58.102813 -186.26049 -59.266203 -189.5144 -61.404157 -192.10045 C -60.83125 -190.6836 -60.536835 -189.16959 -60.537027 -187.64129 C -60.575787 -181.07411 -65.930869 -175.78172 -72.498054 -175.82031 C -79.065241 -175.85911 -84.357627 -181.21415 -84.319038 -187.78134 C -84.309338 -189.30285 -84.007827 -190.80837 -83.43072 -192.21621 z M -58.273599 -120.07436 C -53.73874 -119.84761 -50.05378 -118.85557 -47.219493 -117.09831 L -67.456501 -83.767013 L -54.446959 -83.767013 L -53.596882 -97.626632 C -51.782938 -97.626632 -50.479093 -97.995076 -49.685493 -98.731991 C -48.835207 -99.468905 -48.183542 -100.71611 -47.730056 -102.47336 L -42.883324 -102.47336 L -42.968073 -83.341716 C -40.814015 -82.718173 -38.093037 -82.066508 -34.805264 -81.38628 L -35.230561 -77.304875 L -43.39337 -77.304875 L -43.39337 -62.084615 L -54.446959 -62.084615 L -54.446959 -77.304875 L -79.020136 -77.304875 L -79.700715 -80.36567 L -58.273599 -120.07436 z M -11.848009 -119.73381 C -6.0093782 -119.73381 -1.3609535 -118.28861 2.0968763 -115.39764 C 5.5547062 -112.56335 7.2836398 -108.56711 7.2836398 -103.40871 C 7.2836398 -98.873849 5.5547062 -94.026912 2.0968763 -88.86851 C -1.3609535 -83.766794 -7.0580672 -77.616529 -14.99407 -70.41744 L 7.8789523 -70.41744 L 7.8789523 -62.084615 L -30.63911 -62.084615 L -30.63911 -67.016097 C -24.346993 -73.081471 -19.443929 -78.268272 -15.929414 -82.576388 C -12.414898 -86.884504 -9.8919149 -90.852684 -8.3614 -94.480571 C -6.7741995 -98.108458 -5.9806668 -101.84955 -5.9806668 -105.70418 C -5.9806668 -111.82623 -8.0214008 -114.88759 -12.102774 -114.88759 C -13.916717 -114.88759 -15.390495 -114.0369 -16.524209 -112.33633 C -17.657924 -110.69244 -18.224881 -108.65171 -18.224881 -106.21422 C -18.224881 -104.51365 -17.62986 -102.89852 -16.43946 -101.36801 C -17.403117 -100.46103 -18.50845 -99.752209 -19.755537 -99.242037 C -20.945937 -98.731866 -22.136494 -98.476709 -23.326895 -98.476709 C -25.367581 -98.476709 -27.067935 -99.10031 -28.428392 -100.3474 C -29.78885 -101.65117 -30.469095 -103.52197 -30.469095 -105.95946 C -30.469095 -108.567 -29.703626 -110.91953 -28.173111 -113.01691 C -26.642596 -115.11428 -24.488574 -116.75799 -21.710973 -117.94839 C -18.876686 -119.13879 -15.589267 -119.73381 -11.848009 -119.73381 z M -126.72162 -119.56379 C -119.97601 -119.56379 -114.81728 -117.69351 -111.24608 -113.95225 C -107.61819 -110.21099 -105.80455 -104.7971 -105.80455 -97.711381 C -105.80455 -88.811721 -108.58217 -81.216258 -114.13737 -74.924142 C -119.63589 -68.688711 -127.62838 -64.09693 -138.11524 -61.149272 L -140.15594 -65.400692 C -134.48737 -67.838179 -129.92417 -70.956182 -126.46634 -74.754126 C -123.00851 -78.608756 -120.71262 -83.086732 -119.5789 -88.188448 C -122.7533 -86.601248 -125.84273 -85.807715 -128.84707 -85.807715 C -134.51564 -85.807715 -138.99414 -87.338137 -142.28191 -90.399166 C -145.51299 -93.460196 -147.12812 -97.598308 -147.12812 -102.8134 C -147.12812 -106.04448 -146.27795 -108.93539 -144.57737 -111.48625 C -142.82012 -114.03711 -140.41094 -116.0212 -137.34991 -117.43834 C -134.23219 -118.85549 -130.68962 -119.56379 -126.72162 -119.56379 z M -127.23166 -113.69697 C -129.66915 -113.69697 -131.53995 -112.76157 -132.84372 -110.89094 C -134.1475 -109.02031 -134.79916 -106.35597 -134.79916 -102.89814 C -134.79916 -99.383629 -134.09085 -96.634587 -132.67371 -94.650586 C -131.19988 -92.723271 -129.13057 -91.759807 -126.46634 -91.759807 C -124.14222 -91.759807 -121.56311 -92.723271 -118.72882 -94.650586 L -118.72882 -95.755945 C -118.72882 -101.93469 -119.40907 -106.46931 -120.76953 -109.36028 C -122.12998 -112.25126 -124.28401 -113.69697 -127.23166 -113.69697 z M -90.924319 -101.28274 C -88.940318 -101.28274 -87.466541 -100.68772 -86.502884 -99.497319 C -85.48254 -98.363604 -84.972228 -96.776539 -84.972228 -94.735852 C -84.972228 -92.695166 -85.48254 -91.107584 -86.502884 -89.973869 C -87.466541 -88.840154 -88.940318 -88.273198 -90.924319 -88.273198 C -92.90832 -88.273198 -94.410678 -88.840154 -95.431021 -89.973869 C -96.394678 -91.16427 -96.876411 -92.751852 -96.876411 -94.735852 C -96.876411 -96.833225 -96.394678 -98.448354 -95.431021 -99.582068 C -94.410678 -100.71578 -92.90832 -101.28274 -90.924319 -101.28274 z M -90.924319 -74.498845 C -88.940318 -74.498845 -87.466541 -73.903824 -86.502884 -72.713424 C -85.48254 -71.579709 -84.972228 -69.992127 -84.972228 -67.951441 C -84.972228 -65.910754 -85.48254 -64.323689 -86.502884 -63.189974 C -87.466541 -62.05626 -88.940318 -61.489303 -90.924319 -61.489303 C -92.90832 -61.489303 -94.410678 -62.05626 -95.431021 -63.189974 C -96.394678 -64.380375 -96.876411 -65.96744 -96.876411 -67.951441 C -96.876411 -70.048813 -96.394678 -71.664459 -95.431021 -72.798173 C -94.410678 -73.931888 -92.90832 -74.498845 -90.924319 -74.498845 z " /></g></svg>
