<?xml version="1.0" encoding="UTF-8" standalone="no"?>
<!-- Created with Inkscape (http://www.inkscape.org/) -->

<svg
   width="172.6701mm"
   height="172.6701mm"
   viewBox="0 0 172.6701 172.6701"
   version="1.1"
   id="svg1"
   xml:space="preserve"
   xmlns="http://www.w3.org/2000/svg"
   xmlns:svg="http://www.w3.org/2000/svg"><defs
     id="defs1" /><g
     id="layer1"
     transform="translate(157.25102,198.81012)"><path
       id="path5"
       style="fill:#ffffff;fill-opacity:1;stroke-width:0.805188;stroke-linecap:round;stroke-linejoin:round"
       d="M -2.0863309 -198.17657 L -10.088943 -183.11289 L -10.930235 -165.68398 L -19.198981 -165.68398 L -11.423229 -155.47426 L -12.166336 -140.07934 C -28.353216 -157.12094 -50.823548 -166.77435 -74.327399 -166.78417 C -103.64471 -166.77397 -130.92652 -151.79225 -146.66717 -127.05894 L -157.25102 -127.05894 L -149.61996 -115.86014 L -157.25102 -26.140039 L -8.5138455 -26.140039 L 15.419061 -26.140039 L 8.0799737 -154.80195 L 15.419061 -165.68398 L 7.4593397 -165.68398 L 6.4490654 -183.39297 L -2.0863309 -198.17657 z M -83.43072 -192.21621 C -85.584619 -189.65499 -86.77489 -186.4211 -86.795372 -183.07465 C -86.842092 -175.15518 -80.459903 -168.69733 -72.540428 -168.65072 C -64.621155 -168.60402 -58.163395 -174.98588 -58.116503 -182.90515 C -58.102813 -186.26049 -59.266203 -189.5144 -61.404157 -192.10045 C -60.83125 -190.6836 -60.536835 -189.16959 -60.537027 -187.64129 C -60.575787 -181.07411 -65.930869 -175.78172 -72.498054 -175.82031 C -79.065241 -175.85911 -84.357627 -181.21415 -84.319038 -187.78134 C -84.309338 -189.30285 -84.007827 -190.80837 -83.43072 -192.21621 z M -58.315974 -120.07436 C -53.781115 -119.84761 -50.096671 -118.85557 -47.262385 -117.09831 L -67.498876 -83.767013 L -54.489334 -83.767013 L -53.639256 -97.626632 C -51.825313 -97.626632 -50.521468 -97.995076 -49.727867 -98.731991 C -48.877581 -99.468905 -48.225917 -100.71611 -47.772431 -102.47336 L -42.925699 -102.47336 L -43.010965 -83.341716 C -40.856907 -82.718173 -38.135928 -82.066508 -34.848155 -81.38628 L -35.272936 -77.304875 L -43.435745 -77.304875 L -43.435745 -62.084615 L -54.489334 -62.084615 L -54.489334 -77.304875 L -79.063028 -77.304875 L -79.743089 -80.36567 L -58.315974 -120.07436 z M -12.230415 -119.73381 C -8.5458418 -119.73381 -5.2864868 -119.11073 -2.4522 -117.86364 C 0.38208674 -116.67324 2.5927527 -114.97237 4.1799533 -112.76163 C 5.7671539 -110.60757 6.5606865 -108.11368 6.5606865 -105.27939 C 6.5606865 -102.10499 5.6258023 -99.384015 3.755173 -97.116586 C 1.8845438 -94.849156 -0.89307889 -93.120223 -4.5776517 -91.929822 C 0.070578602 -90.909479 3.3299336 -89.237189 5.2005628 -86.913074 C 7.0711921 -84.588959 8.0065931 -81.442892 8.0065931 -77.474891 C 8.0065931 -74.017061 6.9579041 -71.069506 4.8605319 -68.632019 C 2.8198455 -66.194533 0.15551077 -64.380375 -3.1322619 -63.189974 C -6.4200345 -61.999574 -9.8212578 -61.404554 -13.335773 -61.404554 C -18.43749 -61.404554 -22.774114 -62.453243 -26.345315 -64.550615 C -29.859831 -66.647987 -31.616828 -69.510317 -31.616828 -73.138204 C -31.616828 -75.235577 -30.993227 -76.851222 -29.746141 -77.984937 C -28.499055 -79.175337 -26.94057 -79.770358 -25.069941 -79.770358 C -23.142626 -79.770358 -21.1866 -79.005405 -19.202599 -77.474891 C -19.71277 -76.397862 -19.967927 -75.094016 -19.967927 -73.563501 C -19.967927 -71.749558 -19.42955 -70.275781 -18.352521 -69.142066 C -17.218807 -68.008351 -15.546517 -67.441394 -13.335773 -67.441394 C -8.4608002 -67.441394 -6.0235582 -70.814037 -6.0235582 -77.55964 C -6.0235582 -81.244213 -7.2135988 -84.10706 -9.5943997 -86.147746 C -11.918515 -88.188433 -15.234514 -89.208541 -19.54263 -89.208541 L -19.54263 -94.480571 C -11.209827 -95.1608 -7.043651 -98.760535 -7.043651 -105.27939 C -7.043651 -108.56717 -7.5539637 -110.97583 -8.5743069 -112.50634 C -9.5946502 -114.09354 -10.983203 -114.88759 -12.740461 -114.88759 C -14.837833 -114.88759 -16.425415 -114.15071 -17.502444 -112.67688 C -18.522787 -111.20305 -19.032583 -109.41747 -19.032583 -107.3201 C -19.032583 -105.44947 -18.636075 -103.77718 -17.842475 -102.30335 C -19.429676 -100.60278 -21.47041 -99.752084 -23.964582 -99.752084 C -26.232011 -99.752084 -27.989009 -100.43233 -29.236095 -101.79279 C -30.483181 -103.15324 -31.106782 -104.91076 -31.106782 -107.06482 C -31.106782 -109.8991 -30.143317 -112.25164 -28.216002 -114.12227 C -26.232001 -116.04958 -23.794243 -117.46671 -20.90327 -118.37369 C -17.955612 -119.28066 -15.064701 -119.73381 -12.230415 -119.73381 z M -126.76399 -119.56379 C -120.01839 -119.56379 -114.86017 -117.69351 -111.28897 -113.95225 C -107.66108 -110.21099 -105.84692 -104.7971 -105.84692 -97.711381 C -105.84692 -88.811721 -108.62455 -81.216258 -114.17975 -74.924142 C -119.67826 -68.688711 -127.67075 -64.09693 -138.15761 -61.149272 L -140.19831 -65.400692 C -134.52974 -67.838179 -129.96654 -70.956182 -126.50871 -74.754126 C -123.05088 -78.608756 -120.75551 -83.086732 -119.62179 -88.188448 C -122.79619 -86.601248 -125.88562 -85.807715 -128.88996 -85.807715 C -134.55853 -85.807715 -139.03651 -87.338137 -142.32428 -90.399166 C -145.55537 -93.460196 -147.17102 -97.598308 -147.17102 -102.8134 C -147.17102 -106.04448 -146.32032 -108.93539 -144.61975 -111.48625 C -142.86249 -114.03711 -140.45383 -116.0212 -137.3928 -117.43834 C -134.27509 -118.85549 -130.73199 -119.56379 -126.76399 -119.56379 z M -127.27404 -113.69697 C -129.71152 -113.69697 -131.58233 -112.76157 -132.8861 -110.89094 C -134.18987 -109.02031 -134.84154 -106.35597 -134.84154 -102.89814 C -134.84154 -99.383629 -134.13323 -96.634587 -132.71608 -94.650586 C -131.24225 -92.723271 -129.17294 -91.759807 -126.50871 -91.759807 C -124.1846 -91.759807 -121.60548 -92.723271 -118.7712 -94.650586 L -118.7712 -95.755945 C -118.7712 -101.93469 -119.45144 -106.46931 -120.8119 -109.36028 C -122.17236 -112.25126 -124.32638 -113.69697 -127.27404 -113.69697 z M -90.966694 -101.28274 C -88.982693 -101.28274 -87.508916 -100.68772 -86.545258 -99.497319 C -85.524915 -98.363604 -85.015119 -96.776539 -85.015119 -94.735852 C -85.015119 -92.695166 -85.524915 -91.107584 -86.545258 -89.973869 C -87.508916 -88.840154 -88.982693 -88.273198 -90.966694 -88.273198 C -92.950695 -88.273198 -94.453052 -88.840154 -95.473395 -89.973869 C -96.437053 -91.16427 -96.918785 -92.751852 -96.918785 -94.735852 C -96.918785 -96.833225 -96.437053 -98.448354 -95.473395 -99.582068 C -94.453052 -100.71578 -92.950695 -101.28274 -90.966694 -101.28274 z M -90.966694 -74.498845 C -88.982693 -74.498845 -87.508916 -73.903824 -86.545258 -72.713424 C -85.524915 -71.579709 -85.015119 -69.992127 -85.015119 -67.951441 C -85.015119 -65.910754 -85.524915 -64.323689 -86.545258 -63.189974 C -87.508916 -62.05626 -88.982693 -61.489303 -90.966694 -61.489303 C -92.950695 -61.489303 -94.453052 -62.05626 -95.473395 -63.189974 C -96.437053 -64.380375 -96.918785 -65.96744 -96.918785 -67.951441 C -96.918785 -70.048813 -96.437053 -71.664459 -95.473395 -72.798173 C -94.453052 -73.931888 -92.950695 -74.498845 -90.966694 -74.498845 z " /></g></svg>
