<?xml version="1.0" encoding="UTF-8" standalone="no"?>
<!-- Created with Inkscape (http://www.inkscape.org/) -->

<svg
   width="172.6701mm"
   height="172.6701mm"
   viewBox="0 0 172.6701 172.6701"
   version="1.1"
   id="svg1"
   xml:space="preserve"
   xmlns="http://www.w3.org/2000/svg"
   xmlns:svg="http://www.w3.org/2000/svg"><defs
     id="defs1" /><g
     id="layer1"
     transform="translate(157.25102,198.81012)"><path
       id="path5"
       style="fill:#ffffff;fill-opacity:1;stroke-width:0.805188;stroke-linecap:round;stroke-linejoin:round"
       d="M -2.0863309 -198.17657 L -10.088943 -183.11289 L -10.930235 -165.68398 L -19.198981 -165.68398 L -11.423229 -155.47426 L -12.166336 -140.07934 C -28.353216 -157.12094 -50.823548 -166.77435 -74.327399 -166.78417 C -103.64471 -166.77397 -130.92652 -151.79225 -146.66717 -127.05894 L -157.25102 -127.05894 L -149.61996 -115.86014 L -157.25102 -26.140039 L -8.5138455 -26.140039 L 15.419061 -26.140039 L 8.0799737 -154.80195 L 15.419061 -165.68398 L 7.4593397 -165.68398 L 6.4490654 -183.39297 L -2.0863309 -198.17657 z M -83.43072 -192.21621 C -85.584619 -189.65499 -86.77489 -186.4211 -86.795372 -183.07465 C -86.842092 -175.15518 -80.459903 -168.69733 -72.540428 -168.65072 C -64.621155 -168.60402 -58.163395 -174.98588 -58.116503 -182.90515 C -58.102813 -186.26049 -59.266203 -189.5144 -61.404157 -192.10045 C -60.83125 -190.6836 -60.536835 -189.16959 -60.537027 -187.64129 C -60.575787 -181.07411 -65.930869 -175.78172 -72.498054 -175.82031 C -79.065241 -175.85911 -84.357627 -181.21415 -84.319038 -187.78134 C -84.309338 -189.30285 -84.007827 -190.80837 -83.43072 -192.21621 z M -59.591348 -120.07436 C -55.056489 -119.84761 -51.372046 -118.85557 -48.537759 -117.09831 L -68.77425 -83.767013 L -55.765225 -83.767013 L -54.914631 -97.626632 C -53.100687 -97.626632 -51.796842 -97.995076 -51.003242 -98.731991 C -50.152956 -99.468905 -49.501291 -100.71611 -49.047805 -102.47336 L -44.201073 -102.47336 L -44.286339 -83.341716 C -42.132281 -82.718173 -39.411302 -82.066508 -36.12353 -81.38628 L -36.548827 -77.304875 L -44.711119 -77.304875 L -44.711119 -62.084615 L -55.765225 -62.084615 L -55.765225 -77.304875 L -80.338402 -77.304875 L -81.018464 -80.36567 L -59.591348 -120.07436 z M 0.35383026 -119.90383 L 2.3945326 -115.65241 C -9.0559859 -110.72075 -15.94314 -103.12528 -18.267255 -92.865166 C -14.979483 -94.452366 -11.861996 -95.245899 -8.9143379 -95.245899 C -3.2457644 -95.245899 1.204148 -93.715477 4.4352349 -90.654448 C 7.7230075 -87.593418 9.3667168 -83.455306 9.3667168 -78.240218 C 9.3667168 -75.009132 8.4879598 -72.118221 6.730702 -69.567363 C 5.03013 -67.016505 2.6214684 -65.032415 -0.49624705 -63.615271 C -3.5572767 -62.198128 -7.0717881 -61.489303 -11.03979 -61.489303 C -17.785392 -61.489303 -22.972193 -63.360105 -26.60008 -67.101363 C -30.171281 -70.842622 -31.956859 -76.255999 -31.956859 -83.341716 C -31.956859 -92.241376 -29.207817 -99.808775 -23.7093 -106.04421 C -18.154098 -112.33632 -10.133031 -116.95617 0.35383026 -119.90383 z M -128.03937 -119.56379 C -121.29376 -119.56379 -116.13554 -117.69351 -112.56434 -113.95225 C -108.93645 -110.21099 -107.1223 -104.7971 -107.1223 -97.711381 C -107.1223 -88.811721 -109.89992 -81.216258 -115.45512 -74.924142 C -120.95364 -68.688711 -128.94664 -64.09693 -139.4335 -61.149272 L -141.47421 -65.400692 C -135.80563 -67.838179 -131.24243 -70.956182 -127.7846 -74.754126 C -124.32677 -78.608756 -122.03088 -83.086732 -120.89717 -88.188448 C -124.07157 -86.601248 -127.16099 -85.807715 -130.16533 -85.807715 C -135.83391 -85.807715 -140.31188 -87.338137 -143.59966 -90.399166 C -146.83074 -93.460196 -148.44639 -97.598308 -148.44639 -102.8134 C -148.44639 -106.04448 -147.59621 -108.93539 -145.89564 -111.48625 C -144.13838 -114.03711 -141.7292 -116.0212 -138.66817 -117.43834 C -135.55046 -118.85549 -132.00737 -119.56379 -128.03937 -119.56379 z M -128.54941 -113.69697 C -130.9869 -113.69697 -132.8577 -112.76157 -134.16147 -110.89094 C -135.46525 -109.02031 -136.11691 -106.35597 -136.11691 -102.89814 C -136.11691 -99.383629 -135.4086 -96.634587 -133.99146 -94.650586 C -132.51763 -92.723271 -130.44883 -91.759807 -127.7846 -91.759807 C -125.46049 -91.759807 -122.88086 -92.723271 -120.04657 -94.650586 L -120.04657 -95.755945 C -120.04657 -101.93469 -120.72682 -106.46931 -122.08727 -109.36028 C -123.44773 -112.25126 -125.60175 -113.69697 -128.54941 -113.69697 z M -92.242585 -101.28274 C -90.258584 -101.28274 -88.78429 -100.68772 -87.820633 -99.497319 C -86.800289 -98.363604 -86.290493 -96.776539 -86.290493 -94.735852 C -86.290493 -92.695166 -86.800289 -91.107584 -87.820633 -89.973869 C -88.78429 -88.840154 -90.258584 -88.273198 -92.242585 -88.273198 C -94.226586 -88.273198 -95.728427 -88.840154 -96.74877 -89.973869 C -97.712427 -91.16427 -98.19416 -92.751852 -98.19416 -94.735852 C -98.19416 -96.833225 -97.712427 -98.448354 -96.74877 -99.582068 C -95.728427 -100.71578 -94.226586 -101.28274 -92.242585 -101.28274 z M -11.295071 -89.293807 C -13.675872 -89.293807 -16.254982 -88.330343 -19.032583 -86.403028 L -19.032583 -85.297669 C -19.032583 -79.118924 -18.352339 -74.583787 -16.991881 -71.692814 C -15.631423 -68.801842 -13.477401 -67.356645 -10.529743 -67.356645 C -8.0922565 -67.356645 -6.2219713 -68.291529 -4.9181994 -70.162159 C -3.6144275 -72.032788 -2.9622464 -74.697123 -2.9622464 -78.154952 C -2.9622464 -81.669468 -3.6991351 -84.390447 -5.1729642 -86.317762 C -6.5901075 -88.301762 -8.6308416 -89.293807 -11.295071 -89.293807 z M -92.242585 -74.498845 C -90.258584 -74.498845 -88.78429 -73.903824 -87.820633 -72.713424 C -86.800289 -71.579709 -86.290493 -69.992127 -86.290493 -67.951441 C -86.290493 -65.910754 -86.800289 -64.323689 -87.820633 -63.189974 C -88.78429 -62.05626 -90.258584 -61.489303 -92.242585 -61.489303 C -94.226586 -61.489303 -95.728427 -62.05626 -96.74877 -63.189974 C -97.712427 -64.380375 -98.19416 -65.96744 -98.19416 -67.951441 C -98.19416 -70.048813 -97.712427 -71.664459 -96.74877 -72.798173 C -95.728427 -73.931888 -94.226586 -74.498845 -92.242585 -74.498845 z " /></g></svg>
