<?xml version="1.0" encoding="UTF-8" standalone="no"?>
<!-- Created with Inkscape (http://www.inkscape.org/) -->

<svg
   width="172.6701mm"
   height="172.6701mm"
   viewBox="0 0 172.6701 172.6701"
   version="1.1"
   id="svg1"
   xml:space="preserve"
   xmlns="http://www.w3.org/2000/svg"
   xmlns:svg="http://www.w3.org/2000/svg"><defs
     id="defs1" /><g
     id="layer1"
     transform="translate(157.25102,198.81012)"><path
       id="path5"
       style="fill:#ffffff;fill-opacity:1;stroke-width:0.805188;stroke-linecap:round;stroke-linejoin:round"
       d="M -2.0863309 -198.17657 L -10.088943 -183.11289 L -10.930235 -165.68398 L -19.198981 -165.68398 L -11.423229 -155.47426 L -12.166336 -140.07934 C -28.353216 -157.12094 -50.823548 -166.77435 -74.327399 -166.78417 C -103.64471 -166.77397 -130.92652 -151.79225 -146.66717 -127.05894 L -157.25102 -127.05894 L -149.61996 -115.86014 L -157.25102 -26.140039 L -8.5138455 -26.140039 L 15.419061 -26.140039 L 8.0799737 -154.80195 L 15.419061 -165.68398 L 7.4593397 -165.68398 L 6.4490654 -183.39297 L -2.0863309 -198.17657 z M -83.43072 -192.21621 C -85.584619 -189.65499 -86.77489 -186.4211 -86.795372 -183.07465 C -86.842092 -175.15518 -80.459903 -168.69733 -72.540428 -168.65072 C -64.621155 -168.60402 -58.163395 -174.98588 -58.116503 -182.90515 C -58.102813 -186.26049 -59.266203 -189.5144 -61.404157 -192.10045 C -60.83125 -190.6836 -60.536835 -189.16959 -60.537027 -187.64129 C -60.575787 -181.07411 -65.930869 -175.78172 -72.498054 -175.82031 C -79.065241 -175.85911 -84.357627 -181.21415 -84.319038 -187.78134 C -84.309338 -189.30285 -84.007827 -190.80837 -83.43072 -192.21621 z M -12.570445 -119.64906 C -5.9382145 -119.64906 -0.86470143 -117.15466 2.6498141 -112.16631 C 6.2210155 -107.23465 8.0065931 -100.06428 8.0065931 -90.654448 C 8.0065931 -81.244616 6.2210155 -74.017081 2.6498141 -68.97205 C -0.86470143 -63.983706 -5.9382145 -61.489303 -12.570445 -61.489303 C -19.202676 -61.489303 -24.304253 -63.983706 -27.875454 -68.97205 C -31.446656 -74.017081 -33.23275 -81.244616 -33.23275 -90.654448 C -33.23275 -100.00759 -31.446656 -107.17797 -27.875454 -112.16631 C -24.304253 -117.15466 -19.202676 -119.64906 -12.570445 -119.64906 z M -126.42396 -119.56379 C -119.67836 -119.56379 -114.52014 -117.69351 -110.94894 -113.95225 C -107.32105 -110.21099 -105.50689 -104.7971 -105.50689 -97.711381 C -105.50689 -88.811721 -108.28451 -81.216258 -113.83972 -74.924142 C -119.33823 -68.688711 -127.33072 -64.09693 -137.81758 -61.149272 L -139.85828 -65.400692 C -134.18971 -67.838179 -129.62651 -70.956182 -126.16868 -74.754126 C -122.71085 -78.608756 -120.41548 -83.086732 -119.28176 -88.188448 C -122.45616 -86.601248 -125.54559 -85.807715 -128.54993 -85.807715 C -134.2185 -85.807715 -138.69648 -87.338137 -141.98425 -90.399166 C -145.21534 -93.460196 -146.83098 -97.598308 -146.83098 -102.8134 C -146.83098 -106.04448 -145.98081 -108.93539 -144.28024 -111.48625 C -142.52298 -114.03711 -140.1138 -116.0212 -137.05277 -117.43834 C -133.93505 -118.85549 -130.39196 -119.56379 -126.42396 -119.56379 z M -70.304906 -119.05375 L -66.053486 -118.969 C -60.044798 -118.85563 -56.870667 -118.79847 -56.530553 -118.79847 L -44.456354 -118.969 L -41.990355 -117.18306 L -42.755683 -110.72092 L -63.842768 -110.72092 L -65.033393 -96.521273 C -62.085735 -97.258188 -59.4214 -97.626632 -57.040599 -97.626632 C -51.428711 -97.626632 -46.865511 -96.124274 -43.350996 -93.11993 C -39.779794 -90.172272 -37.994217 -85.836165 -37.994217 -80.110905 C -37.994217 -76.539704 -38.844393 -73.336993 -40.544965 -70.502706 C -42.188852 -67.66842 -44.56945 -65.429173 -47.687165 -63.785287 C -50.80488 -62.198086 -54.489841 -61.404554 -58.741271 -61.404554 C -62.1991 -61.404554 -65.345167 -61.886286 -68.179454 -62.849943 C -70.957055 -63.813601 -73.139141 -65.14551 -74.726341 -66.846082 C -76.313542 -68.60334 -77.107075 -70.559366 -77.107075 -72.713424 C -77.107075 -74.980853 -76.483991 -76.709787 -75.236905 -77.900188 C -73.989818 -79.147274 -72.45888 -79.770358 -70.644937 -79.770358 C -69.624594 -79.770358 -68.604485 -79.572362 -67.584142 -79.175562 C -66.507113 -78.778762 -65.543648 -78.211805 -64.693362 -77.474891 C -65.203534 -76.28449 -65.458173 -75.037289 -65.458173 -73.733517 C -65.458173 -71.862888 -64.919797 -70.332466 -63.842768 -69.142066 C -62.709053 -67.951665 -61.0087 -67.356645 -58.741271 -67.356645 C -53.639554 -67.356645 -51.088508 -71.608045 -51.088508 -80.110905 C -51.088508 -84.135593 -51.88204 -87.054567 -53.469241 -88.86851 C -55.056442 -90.73914 -57.1824 -91.674541 -59.84663 -91.674541 C -61.490516 -91.674541 -63.247513 -91.36274 -65.118142 -90.739197 C -66.988772 -90.115654 -68.830993 -89.236897 -70.644937 -88.103182 L -75.321654 -92.609884 L -73.110936 -116.75776 L -70.304906 -119.05375 z M -12.570445 -115.31237 C -15.461418 -115.31237 -17.558796 -113.41351 -18.862568 -109.61556 C -20.109654 -105.81762 -20.733255 -99.497422 -20.733255 -90.654448 C -20.733255 -81.868159 -20.109654 -75.576025 -18.862568 -71.778081 C -17.558796 -68.036822 -15.461418 -66.16602 -12.570445 -66.16602 C -9.679473 -66.16602 -7.6106753 -68.036822 -6.3635892 -71.778081 C -5.0598173 -75.576025 -4.4076362 -81.868159 -4.4076362 -90.654448 C -4.4076362 -99.440737 -5.0598173 -105.73287 -6.3635892 -109.53081 C -7.6106753 -113.38544 -9.679473 -115.31237 -12.570445 -115.31237 z M -126.93401 -113.69697 C -129.37149 -113.69697 -131.2423 -112.76157 -132.54607 -110.89094 C -133.84984 -109.02031 -134.5015 -106.35597 -134.5015 -102.89814 C -134.5015 -99.383629 -133.7932 -96.634587 -132.37605 -94.650586 C -130.90222 -92.723271 -128.83291 -91.759807 -126.16868 -91.759807 C -123.84456 -91.759807 -121.26545 -92.723271 -118.43117 -94.650586 L -118.43117 -95.755945 C -118.43117 -101.93469 -119.11141 -106.46931 -120.47187 -109.36028 C -121.83233 -112.25126 -123.98635 -113.69697 -126.93401 -113.69697 z M -90.626663 -101.28274 C -88.642662 -101.28274 -87.168885 -100.68772 -86.205227 -99.497319 C -85.184884 -98.363604 -84.675088 -96.776539 -84.675088 -94.735852 C -84.675088 -92.695166 -85.184884 -91.107584 -86.205227 -89.973869 C -87.168885 -88.840154 -88.642662 -88.273198 -90.626663 -88.273198 C -92.610664 -88.273198 -94.113021 -88.840154 -95.133365 -89.973869 C -96.097022 -91.16427 -96.578754 -92.751852 -96.578754 -94.735852 C -96.578754 -96.833225 -96.097022 -98.448354 -95.133365 -99.582068 C -94.113021 -100.71578 -92.610664 -101.28274 -90.626663 -101.28274 z M -90.626663 -74.498845 C -88.642662 -74.498845 -87.168885 -73.903824 -86.205227 -72.713424 C -85.184884 -71.579709 -84.675088 -69.992127 -84.675088 -67.951441 C -84.675088 -65.910754 -85.184884 -64.323689 -86.205227 -63.189974 C -87.168885 -62.05626 -88.642662 -61.489303 -90.626663 -61.489303 C -92.610664 -61.489303 -94.113021 -62.05626 -95.133365 -63.189974 C -96.097022 -64.380375 -96.578754 -65.96744 -96.578754 -67.951441 C -96.578754 -70.048813 -96.097022 -71.664459 -95.133365 -72.798173 C -94.113021 -73.931888 -92.610664 -74.498845 -90.626663 -74.498845 z " /></g></svg>
