<?xml version="1.0" encoding="UTF-8" standalone="no"?>
<!-- Created with Inkscape (http://www.inkscape.org/) -->

<svg
   width="172.6701mm"
   height="172.6701mm"
   viewBox="0 0 172.6701 172.6701"
   version="1.1"
   id="svg1"
   xml:space="preserve"
   xmlns="http://www.w3.org/2000/svg"
   xmlns:svg="http://www.w3.org/2000/svg"><defs
     id="defs1" /><g
     id="layer1"
     transform="translate(157.25102,198.81012)"><path
       id="path5"
       style="fill:#ffffff;fill-opacity:1;stroke-width:0.805188;stroke-linecap:round;stroke-linejoin:round"
       d="M -2.0863309 -198.17657 L -10.088943 -183.11289 L -10.930235 -165.68398 L -19.198981 -165.68398 L -11.423229 -155.47426 L -12.166336 -140.07934 C -28.353216 -157.12094 -50.823548 -166.77435 -74.327399 -166.78417 C -103.64471 -166.77397 -130.92652 -151.79225 -146.66717 -127.05894 L -157.25102 -127.05894 L -149.61996 -115.86014 L -157.25102 -26.140039 L -8.5138455 -26.140039 L 15.419061 -26.140039 L 8.0799737 -154.80195 L 15.419061 -165.68398 L 7.4593397 -165.68398 L 6.4490654 -183.39297 L -2.0863309 -198.17657 z M -83.43072 -192.21621 C -85.584619 -189.65499 -86.77489 -186.4211 -86.795372 -183.07465 C -86.842092 -175.15518 -80.459903 -168.69733 -72.540428 -168.65072 C -64.621155 -168.60402 -58.163395 -174.98588 -58.116503 -182.90515 C -58.102813 -186.26049 -59.266203 -189.5144 -61.404157 -192.10045 C -60.83125 -190.6836 -60.536835 -189.16959 -60.537027 -187.64129 C -60.575787 -181.07411 -65.930869 -175.78172 -72.498054 -175.82031 C -79.065241 -175.85911 -84.357627 -181.21415 -84.319038 -187.78134 C -84.309338 -189.30285 -84.007827 -190.80837 -83.43072 -192.21621 z M -14.611148 -120.07436 C -10.076289 -119.84761 -6.3918457 -118.85557 -3.5575589 -117.09831 L -23.79405 -83.767013 L -10.785025 -83.767013 L -9.9344306 -97.626632 C -8.1204871 -97.626632 -6.8166418 -97.995076 -6.0230415 -98.731991 C -5.1727555 -99.468905 -4.5210912 -100.71611 -4.0676053 -102.47336 L 0.7791273 -102.47336 L 0.69386118 -83.341716 C 2.8479191 -82.718173 5.5688978 -82.066508 8.8566704 -81.38628 L 8.4313734 -77.304875 L 0.26908091 -77.304875 L 0.26908091 -62.084615 L -10.785025 -62.084615 L -10.785025 -77.304875 L -35.358202 -77.304875 L -36.038264 -80.36567 L -14.611148 -120.07436 z M -127.27404 -119.56379 C -120.52844 -119.56379 -115.37022 -117.69351 -111.79901 -113.95225 C -108.17113 -110.21099 -106.35697 -104.7971 -106.35697 -97.711381 C -106.35697 -88.811721 -109.13459 -81.216258 -114.68979 -74.924142 C -120.18831 -68.688711 -128.18131 -64.09693 -138.66817 -61.149272 L -140.70888 -65.400692 C -135.0403 -67.838179 -130.4771 -70.956182 -127.01927 -74.754126 C -123.56144 -78.608756 -121.26555 -83.086732 -120.13184 -88.188448 C -123.30624 -86.601248 -126.39566 -85.807715 -129.40001 -85.807715 C -135.06858 -85.807715 -139.54656 -87.338137 -142.83433 -90.399166 C -146.06542 -93.460196 -147.68106 -97.598308 -147.68106 -102.8134 C -147.68106 -106.04448 -146.83088 -108.93539 -145.13031 -111.48625 C -143.37306 -114.03711 -140.96388 -116.0212 -137.90285 -117.43834 C -134.78513 -118.85549 -131.24204 -119.56379 -127.27404 -119.56379 z M -71.154983 -119.05375 L -66.903563 -118.969 C -60.894875 -118.85563 -57.720745 -118.79847 -57.38063 -118.79847 L -45.306432 -118.969 L -42.840949 -117.18306 L -43.60576 -110.72092 L -64.692845 -110.72092 L -65.88347 -96.521273 C -62.935812 -97.258188 -60.271477 -97.626632 -57.890677 -97.626632 C -52.278789 -97.626632 -47.715588 -96.124274 -44.201073 -93.11993 C -40.629872 -90.172272 -38.844294 -85.836165 -38.844294 -80.110905 C -38.844294 -76.539704 -39.694471 -73.336993 -41.395043 -70.502706 C -43.038929 -67.66842 -45.420044 -65.429173 -48.537759 -63.785287 C -51.655475 -62.198086 -55.339918 -61.404554 -59.591348 -61.404554 C -63.049178 -61.404554 -66.195245 -61.886286 -69.029532 -62.849943 C -71.807133 -63.813601 -73.989735 -65.14551 -75.576936 -66.846082 C -77.164136 -68.60334 -77.957669 -70.559366 -77.957669 -72.713424 C -77.957669 -74.980853 -77.334068 -76.709787 -76.086982 -77.900188 C -74.839896 -79.147274 -73.309474 -79.770358 -71.495531 -79.770358 C -70.475188 -79.770358 -69.454562 -79.572362 -68.434219 -79.175562 C -67.35719 -78.778762 -66.393725 -78.211805 -65.543439 -77.474891 C -66.053611 -76.28449 -66.308767 -75.037289 -66.308767 -73.733517 C -66.308767 -71.862888 -65.769874 -70.332466 -64.692845 -69.142066 C -63.559131 -67.951665 -61.858777 -67.356645 -59.591348 -67.356645 C -54.489632 -67.356645 -51.938585 -71.608045 -51.938585 -80.110905 C -51.938585 -84.135593 -52.732118 -87.054567 -54.319318 -88.86851 C -55.906519 -90.73914 -58.032477 -91.674541 -60.696707 -91.674541 C -62.340593 -91.674541 -64.098107 -91.36274 -65.968736 -90.739197 C -67.839366 -90.115654 -69.681587 -89.236897 -71.495531 -88.103182 L -76.171731 -92.609884 L -73.961013 -116.75776 L -71.154983 -119.05375 z M -127.7846 -113.69697 C -130.22209 -113.69697 -132.09237 -112.76157 -133.39615 -110.89094 C -134.69992 -109.02031 -135.3521 -106.35597 -135.3521 -102.89814 C -135.3521 -99.383629 -134.64327 -96.634587 -133.22613 -94.650586 C -131.7523 -92.723271 -129.6835 -91.759807 -127.01927 -91.759807 C -124.69516 -91.759807 -122.11605 -92.723271 -119.28176 -94.650586 L -119.28176 -95.755945 C -119.28176 -101.93469 -119.96201 -106.46931 -121.32246 -109.36028 C -122.68292 -112.25126 -124.83694 -113.69697 -127.7846 -113.69697 z M -91.477257 -101.28274 C -89.493256 -101.28274 -88.019479 -100.68772 -87.055821 -99.497319 C -86.035478 -98.363604 -85.525166 -96.776539 -85.525166 -94.735852 C -85.525166 -92.695166 -86.035478 -91.107584 -87.055821 -89.973869 C -88.019479 -88.840154 -89.493256 -88.273198 -91.477257 -88.273198 C -93.461258 -88.273198 -94.963099 -88.840154 -95.983442 -89.973869 C -96.947099 -91.16427 -97.429348 -92.751852 -97.429348 -94.735852 C -97.429348 -96.833225 -96.947099 -98.448354 -95.983442 -99.582068 C -94.963099 -100.71578 -93.461258 -101.28274 -91.477257 -101.28274 z M -91.477257 -74.498845 C -89.493256 -74.498845 -88.019479 -73.903824 -87.055821 -72.713424 C -86.035478 -71.579709 -85.525166 -69.992127 -85.525166 -67.951441 C -85.525166 -65.910754 -86.035478 -64.323689 -87.055821 -63.189974 C -88.019479 -62.05626 -89.493256 -61.489303 -91.477257 -61.489303 C -93.461258 -61.489303 -94.963099 -62.05626 -95.983442 -63.189974 C -96.947099 -64.380375 -97.429348 -65.96744 -97.429348 -67.951441 C -97.429348 -70.048813 -96.947099 -71.664459 -95.983442 -72.798173 C -94.963099 -73.931888 -93.461258 -74.498845 -91.477257 -74.498845 z " /></g></svg>
