<?xml version="1.0" encoding="UTF-8" standalone="no"?>
<!-- Created with Inkscape (http://www.inkscape.org/) -->

<svg
   width="172.6701mm"
   height="172.6701mm"
   viewBox="0 0 172.6701 172.6701"
   version="1.1"
   id="svg1"
   xml:space="preserve"
   xmlns="http://www.w3.org/2000/svg"
   xmlns:svg="http://www.w3.org/2000/svg"><defs
     id="defs1" /><g
     id="layer1"
     transform="translate(157.25102,198.81012)"><path
       id="path5"
       style="fill:#ffffff;fill-opacity:1;stroke-width:0.805188;stroke-linecap:round;stroke-linejoin:round"
       d="M -2.0863309 -198.17657 L -10.088943 -183.11289 L -10.930235 -165.68398 L -19.198981 -165.68398 L -11.423229 -155.47426 L -12.166336 -140.07934 C -28.353216 -157.12094 -50.823548 -166.77435 -74.327399 -166.78417 C -103.64471 -166.77397 -130.92652 -151.79225 -146.66717 -127.05894 L -157.25102 -127.05894 L -149.61996 -115.86014 L -157.25102 -26.140039 L -8.5138455 -26.140039 L 15.419061 -26.140039 L 8.0799737 -154.80195 L 15.419061 -165.68398 L 7.4593397 -165.68398 L 6.4490654 -183.39297 L -2.0863309 -198.17657 z M -83.43072 -192.21621 C -85.584619 -189.65499 -86.77489 -186.4211 -86.795372 -183.07465 C -86.842092 -175.15518 -80.459903 -168.69733 -72.540428 -168.65072 C -64.621155 -168.60402 -58.163395 -174.98588 -58.116503 -182.90515 C -58.102813 -186.26049 -59.266203 -189.5144 -61.404157 -192.10045 C -60.83125 -190.6836 -60.536835 -189.16959 -60.537027 -187.64129 C -60.575787 -181.07411 -65.930869 -175.78172 -72.498054 -175.82031 C -79.065241 -175.85911 -84.357627 -181.21415 -84.319038 -187.78134 C -84.309338 -189.30285 -84.007827 -190.80837 -83.43072 -192.21621 z M -125.87102 -119.56379 C -119.12542 -119.56379 -113.9672 -117.69351 -110.396 -113.95225 C -106.76811 -110.21099 -104.95447 -104.7971 -104.95447 -97.711381 C -104.95447 -88.811721 -107.73209 -81.216258 -113.2873 -74.924142 C -118.78581 -68.688711 -126.7783 -64.09693 -137.26516 -61.149272 L -139.30586 -65.400692 C -133.63729 -67.838179 -129.07409 -70.956182 -125.61626 -74.754126 C -122.15843 -78.608756 -119.86254 -83.086732 -118.72882 -88.188448 C -121.90322 -86.601248 -124.99265 -85.807715 -127.99699 -85.807715 C -133.66557 -85.807715 -138.14354 -87.338137 -141.43131 -90.399166 C -144.6624 -93.460196 -146.27805 -97.598308 -146.27805 -102.8134 C -146.27805 -106.04448 -145.42787 -108.93539 -143.7273 -111.48625 C -141.97004 -114.03711 -139.56086 -116.0212 -136.49983 -117.43834 C -133.38212 -118.85549 -129.83902 -119.56379 -125.87102 -119.56379 z M -69.752485 -119.05375 L -65.501065 -118.969 C -59.492377 -118.85563 -56.317729 -118.79847 -55.977615 -118.79847 L -43.903417 -118.969 L -41.437934 -117.18306 L -42.203262 -110.72092 L -63.290347 -110.72092 L -64.480455 -96.521273 C -61.532797 -97.258188 -58.868462 -97.626632 -56.487661 -97.626632 C -50.875774 -97.626632 -46.312573 -96.124274 -42.798058 -93.11993 C -39.226856 -90.172272 -37.441279 -85.836165 -37.441279 -80.110905 C -37.441279 -76.539704 -38.291972 -73.336993 -39.992544 -70.502706 C -41.636431 -67.66842 -44.017029 -65.429173 -47.134744 -63.785287 C -50.252459 -62.198086 -53.936903 -61.404554 -58.188333 -61.404554 C -61.646163 -61.404554 -64.79223 -61.886286 -67.626516 -62.849943 C -70.404117 -63.813601 -72.58672 -65.14551 -74.17392 -66.846082 C -75.761121 -68.60334 -76.554654 -70.559366 -76.554654 -72.713424 C -76.554654 -74.980853 -75.931053 -76.709787 -74.683967 -77.900188 C -73.436881 -79.147274 -71.906459 -79.770358 -70.092516 -79.770358 C -69.072173 -79.770358 -68.051547 -79.572362 -67.031204 -79.175562 C -65.954175 -78.778762 -64.99071 -78.211805 -64.140424 -77.474891 C -64.650596 -76.28449 -64.905752 -75.037289 -64.905752 -73.733517 C -64.905752 -71.862888 -64.367376 -70.332466 -63.290347 -69.142066 C -62.156632 -67.951665 -60.455762 -67.356645 -58.188333 -67.356645 C -53.086617 -67.356645 -50.536087 -71.608045 -50.536087 -80.110905 C -50.536087 -84.135593 -51.329619 -87.054567 -52.91682 -88.86851 C -54.504021 -90.73914 -56.629462 -91.674541 -59.293692 -91.674541 C -60.937578 -91.674541 -62.695092 -91.36274 -64.565721 -90.739197 C -66.436351 -90.115654 -68.278572 -89.236897 -70.092516 -88.103182 L -74.769233 -92.609884 L -72.557998 -116.75776 L -69.752485 -119.05375 z M -25.537613 -119.05375 L -21.286193 -118.969 C -15.277505 -118.85563 -12.102857 -118.79847 -11.762743 -118.79847 L 0.31145559 -118.969 L 2.7769382 -117.18306 L 2.012127 -110.72092 L -19.075475 -110.72092 L -20.265583 -96.521273 C -17.317925 -97.258188 -14.65359 -97.626632 -12.272789 -97.626632 C -6.6609014 -97.626632 -2.0977011 -96.124274 1.4168145 -93.11993 C 4.9880158 -90.172272 6.7735934 -85.836165 6.7735934 -80.110905 C 6.7735934 -76.539704 5.9234168 -73.336993 4.2228447 -70.502706 C 2.5789584 -67.66842 0.1978437 -65.429173 -2.9198717 -63.785287 C -6.0375872 -62.198086 -9.7220305 -61.404554 -13.973461 -61.404554 C -17.43129 -61.404554 -20.577357 -61.886286 -23.411644 -62.849943 C -26.189245 -63.813601 -28.371848 -65.14551 -29.959048 -66.846082 C -31.546249 -68.60334 -32.339781 -70.559366 -32.339781 -72.713424 C -32.339781 -74.980853 -31.716181 -76.709787 -30.469095 -77.900188 C -29.222008 -79.147274 -27.691587 -79.770358 -25.877644 -79.770358 C -24.8573 -79.770358 -23.836675 -79.572362 -22.816332 -79.175562 C -21.739303 -78.778762 -20.775838 -78.211805 -19.925552 -77.474891 C -20.435724 -76.28449 -20.69088 -75.037289 -20.69088 -73.733517 C -20.69088 -71.862888 -20.152504 -70.332466 -19.075475 -69.142066 C -17.94176 -67.951665 -16.24089 -67.356645 -13.973461 -67.356645 C -8.8717444 -67.356645 -6.3206977 -71.608045 -6.3206977 -80.110905 C -6.3206977 -84.135593 -7.1147472 -87.054567 -8.7019477 -88.86851 C -10.289148 -90.73914 -12.41459 -91.674541 -15.078819 -91.674541 C -16.722706 -91.674541 -18.48022 -91.36274 -20.350849 -90.739197 C -22.221478 -90.115654 -24.0637 -89.236897 -25.877644 -88.103182 L -30.553844 -92.609884 L -28.343126 -116.75776 L -25.537613 -119.05375 z M -126.38159 -113.69697 C -128.81907 -113.69697 -130.68936 -112.76157 -131.99313 -110.89094 C -133.2969 -109.02031 -133.94908 -106.35597 -133.94908 -102.89814 C -133.94908 -99.383629 -133.24026 -96.634587 -131.82311 -94.650586 C -130.34929 -92.723271 -128.28049 -91.759807 -125.61626 -91.759807 C -123.29214 -91.759807 -120.71303 -92.723271 -117.87875 -94.650586 L -117.87875 -95.755945 C -117.87875 -101.93469 -118.55899 -106.46931 -119.91945 -109.36028 C -121.27991 -112.25126 -123.43393 -113.69697 -126.38159 -113.69697 z M -90.074242 -101.28274 C -88.090241 -101.28274 -86.616464 -100.68772 -85.652806 -99.497319 C -84.632463 -98.363604 -84.12215 -96.776539 -84.12215 -94.735852 C -84.12215 -92.695166 -84.632463 -91.107584 -85.652806 -89.973869 C -86.616464 -88.840154 -88.090241 -88.273198 -90.074242 -88.273198 C -92.058243 -88.273198 -93.5606 -88.840154 -94.580944 -89.973869 C -95.544601 -91.16427 -96.026333 -92.751852 -96.026333 -94.735852 C -96.026333 -96.833225 -95.544601 -98.448354 -94.580944 -99.582068 C -93.5606 -100.71578 -92.058243 -101.28274 -90.074242 -101.28274 z M -90.074242 -74.498845 C -88.090241 -74.498845 -86.616464 -73.903824 -85.652806 -72.713424 C -84.632463 -71.579709 -84.12215 -69.992127 -84.12215 -67.951441 C -84.12215 -65.910754 -84.632463 -64.323689 -85.652806 -63.189974 C -86.616464 -62.05626 -88.090241 -61.489303 -90.074242 -61.489303 C -92.058243 -61.489303 -93.5606 -62.05626 -94.580944 -63.189974 C -95.544601 -64.380375 -96.026333 -65.96744 -96.026333 -67.951441 C -96.026333 -70.048813 -95.544601 -71.664459 -94.580944 -72.798173 C -93.5606 -73.931888 -92.058243 -74.498845 -90.074242 -74.498845 z " /></g></svg>
