<?xml version="1.0" encoding="UTF-8" standalone="no"?>
<!-- Created with Inkscape (http://www.inkscape.org/) -->

<svg
   width="172.6701mm"
   height="172.6701mm"
   viewBox="0 0 172.6701 172.6701"
   version="1.1"
   id="svg1"
   xml:space="preserve"
   xmlns="http://www.w3.org/2000/svg"
   xmlns:svg="http://www.w3.org/2000/svg"><defs
     id="defs1" /><g
     id="layer1"
     transform="translate(157.25102,198.81012)"><path
       id="path5"
       style="fill:#ffffff;fill-opacity:1;stroke-width:0.805188;stroke-linecap:round;stroke-linejoin:round"
       d="M -2.0863309 -198.17657 L -10.088943 -183.11289 L -10.930235 -165.68398 L -19.198981 -165.68398 L -11.423229 -155.47426 L -12.166336 -140.07934 C -28.353216 -157.12094 -50.823548 -166.77435 -74.327399 -166.78417 C -103.64471 -166.77397 -130.92652 -151.79225 -146.66717 -127.05894 L -157.25102 -127.05894 L -149.61996 -115.86014 L -157.25102 -26.140039 L -8.5138455 -26.140039 L 15.419061 -26.140039 L 8.0799737 -154.80195 L 15.419061 -165.68398 L 7.4593397 -165.68398 L 6.4490654 -183.39297 L -2.0863309 -198.17657 z M -83.43072 -192.21621 C -85.584619 -189.65499 -86.77489 -186.4211 -86.795372 -183.07465 C -86.842092 -175.15518 -80.459903 -168.69733 -72.540428 -168.65072 C -64.621155 -168.60402 -58.163395 -174.98588 -58.116503 -182.90515 C -58.102813 -186.26049 -59.266203 -189.5144 -61.404157 -192.10045 C -60.83125 -190.6836 -60.536835 -189.16959 -60.537027 -187.64129 C -60.575787 -181.07411 -65.930869 -175.78172 -72.498054 -175.82031 C -79.065241 -175.85911 -84.357627 -181.21415 -84.319038 -187.78134 C -84.309338 -189.30285 -84.007827 -190.80837 -83.43072 -192.21621 z M -1.0491849 -119.90383 L 0.99151743 -115.65241 C -10.459001 -110.72075 -17.346155 -103.12528 -19.67027 -92.865166 C -16.382498 -94.452366 -13.265011 -95.245899 -10.317353 -95.245899 C -4.6487795 -95.245899 -0.19886715 -93.715477 3.0322197 -90.654448 C 6.3199924 -87.593418 7.9637017 -83.455306 7.9637017 -78.240218 C 7.9637017 -75.009132 7.0854614 -72.118221 5.3282036 -69.567363 C 3.6276316 -67.016505 1.2184532 -65.032415 -1.8992622 -63.615271 C -4.9602919 -62.198128 -8.4748032 -61.489303 -12.442805 -61.489303 C -19.188407 -61.489303 -24.375208 -63.360105 -28.003095 -67.101363 C -31.574297 -70.842622 -33.359874 -76.255999 -33.359874 -83.341716 C -33.359874 -92.241376 -30.610832 -99.808775 -25.112316 -106.04421 C -19.557114 -112.33632 -11.536046 -116.95617 -1.0491849 -119.90383 z M -126.63635 -119.56379 C -119.89075 -119.56379 -114.73253 -117.69351 -111.16133 -113.95225 C -107.53344 -110.21099 -105.71928 -104.7971 -105.71928 -97.711381 C -105.71928 -88.811721 -108.4969 -81.216258 -114.05211 -74.924142 C -119.55062 -68.688711 -127.54363 -64.09693 -138.03049 -61.149272 L -140.07119 -65.400692 C -134.40262 -67.838179 -129.83942 -70.956182 -126.38159 -74.754126 C -122.92376 -78.608756 -120.62787 -83.086732 -119.49415 -88.188448 C -122.66855 -86.601248 -125.75798 -85.807715 -128.76232 -85.807715 C -134.43089 -85.807715 -138.90887 -87.338137 -142.19664 -90.399166 C -145.42773 -93.460196 -147.04337 -97.598308 -147.04337 -102.8134 C -147.04337 -106.04448 -146.1932 -108.93539 -144.49263 -111.48625 C -142.73537 -114.03711 -140.32619 -116.0212 -137.26516 -117.43834 C -134.14744 -118.85549 -130.60435 -119.56379 -126.63635 -119.56379 z M -70.517296 -119.05375 L -66.265876 -118.969 C -60.257188 -118.85563 -57.083057 -118.79847 -56.742943 -118.79847 L -44.668745 -118.969 L -42.203262 -117.18306 L -42.968073 -110.72092 L -64.055158 -110.72092 L -65.245783 -96.521273 C -62.298125 -97.258188 -59.63379 -97.626632 -57.252989 -97.626632 C -51.641102 -97.626632 -47.077901 -96.124274 -43.563386 -93.11993 C -39.992184 -90.172272 -38.206607 -85.836165 -38.206607 -80.110905 C -38.206607 -76.539704 -39.056783 -73.336993 -40.757355 -70.502706 C -42.401242 -67.66842 -44.782356 -65.429173 -47.900072 -63.785287 C -51.017787 -62.198086 -54.702231 -61.404554 -58.953661 -61.404554 C -62.411491 -61.404554 -65.557558 -61.886286 -68.391844 -62.849943 C -71.169445 -63.813601 -73.352048 -65.14551 -74.939248 -66.846082 C -76.526449 -68.60334 -77.319982 -70.559366 -77.319982 -72.713424 C -77.319982 -74.980853 -76.696381 -76.709787 -75.449295 -77.900188 C -74.202209 -79.147274 -72.671787 -79.770358 -70.857844 -79.770358 C -69.8375 -79.770358 -68.816875 -79.572362 -67.796532 -79.175562 C -66.719503 -78.778762 -65.756038 -78.211805 -64.905752 -77.474891 C -65.415924 -76.28449 -65.67108 -75.037289 -65.67108 -73.733517 C -65.67108 -71.862888 -65.132187 -70.332466 -64.055158 -69.142066 C -62.921443 -67.951665 -61.22109 -67.356645 -58.953661 -67.356645 C -53.851945 -67.356645 -51.300898 -71.608045 -51.300898 -80.110905 C -51.300898 -84.135593 -52.094431 -87.054567 -53.681631 -88.86851 C -55.268832 -90.73914 -57.39479 -91.674541 -60.05902 -91.674541 C -61.702906 -91.674541 -63.46042 -91.36274 -65.331049 -90.739197 C -67.201679 -90.115654 -69.0439 -89.236897 -70.857844 -88.103182 L -75.534044 -92.609884 L -73.323326 -116.75776 L -70.517296 -119.05375 z M -127.14691 -113.69697 C -129.5844 -113.69697 -131.45469 -112.76157 -132.75846 -110.89094 C -134.06223 -109.02031 -134.71441 -106.35597 -134.71441 -102.89814 C -134.71441 -99.383629 -134.00559 -96.634587 -132.58844 -94.650586 C -131.11461 -92.723271 -129.04582 -91.759807 -126.38159 -91.759807 C -124.05747 -91.759807 -121.47836 -92.723271 -118.64407 -94.650586 L -118.64407 -95.755945 C -118.64407 -101.93469 -119.3238 -106.46931 -120.68426 -109.36028 C -122.04472 -112.25126 -124.19926 -113.69697 -127.14691 -113.69697 z M -90.83957 -101.28274 C -88.855569 -101.28274 -87.381792 -100.68772 -86.418134 -99.497319 C -85.397791 -98.363604 -84.887478 -96.776539 -84.887478 -94.735852 C -84.887478 -92.695166 -85.397791 -91.107584 -86.418134 -89.973869 C -87.381792 -88.840154 -88.855569 -88.273198 -90.83957 -88.273198 C -92.823571 -88.273198 -94.325411 -88.840154 -95.345755 -89.973869 C -96.309412 -91.16427 -96.791661 -92.751852 -96.791661 -94.735852 C -96.791661 -96.833225 -96.309412 -98.448354 -95.345755 -99.582068 C -94.325411 -100.71578 -92.823571 -101.28274 -90.83957 -101.28274 z M -12.698086 -89.293807 C -15.078887 -89.293807 -17.657997 -88.330343 -20.435598 -86.403028 L -20.435598 -85.297669 C -20.435598 -79.118924 -19.755354 -74.583787 -18.394896 -71.692814 C -17.034438 -68.801842 -14.880417 -67.356645 -11.932758 -67.356645 C -9.4952717 -67.356645 -7.6244696 -68.291529 -6.3206977 -70.162159 C -5.0169258 -72.032788 -4.3652615 -74.697123 -4.3652615 -78.154952 C -4.3652615 -81.669468 -5.1021502 -84.390447 -6.5759793 -86.317762 C -7.9931227 -88.301762 -10.033857 -89.293807 -12.698086 -89.293807 z M -90.83957 -74.498845 C -88.855569 -74.498845 -87.381792 -73.903824 -86.418134 -72.713424 C -85.397791 -71.579709 -84.887478 -69.992127 -84.887478 -67.951441 C -84.887478 -65.910754 -85.397791 -64.323689 -86.418134 -63.189974 C -87.381792 -62.05626 -88.855569 -61.489303 -90.83957 -61.489303 C -92.823571 -61.489303 -94.325411 -62.05626 -95.345755 -63.189974 C -96.309412 -64.380375 -96.791661 -65.96744 -96.791661 -67.951441 C -96.791661 -70.048813 -96.309412 -71.664459 -95.345755 -72.798173 C -94.325411 -73.931888 -92.823571 -74.498845 -90.83957 -74.498845 z " /></g></svg>
