<?xml version="1.0" encoding="UTF-8" standalone="no"?>
<!-- Created with Inkscape (http://www.inkscape.org/) -->

<svg
   width="172.6701mm"
   height="172.6701mm"
   viewBox="0 0 172.6701 172.6701"
   version="1.1"
   id="svg1"
   xml:space="preserve"
   xmlns="http://www.w3.org/2000/svg"
   xmlns:svg="http://www.w3.org/2000/svg"><defs
     id="defs1" /><g
     id="layer1"
     transform="translate(157.25102,198.81012)"><path
       id="path5"
       style="fill:#ffffff;fill-opacity:1;stroke-width:0.805188;stroke-linecap:round;stroke-linejoin:round"
       d="M -2.0863309 -198.17657 L -10.088943 -183.11289 L -10.930235 -165.68398 L -19.198981 -165.68398 L -11.423229 -155.47426 L -12.166336 -140.07934 C -28.353216 -157.12094 -50.823548 -166.77435 -74.327399 -166.78417 C -103.64471 -166.77397 -130.92652 -151.79225 -146.66717 -127.05894 L -157.25102 -127.05894 L -149.61996 -115.86014 L -157.25102 -26.140039 L -8.5138455 -26.140039 L 15.419061 -26.140039 L 8.0799737 -154.80195 L 15.419061 -165.68398 L 7.4593397 -165.68398 L 6.4490654 -183.39297 L -2.0863309 -198.17657 z M -83.43072 -192.21621 C -85.584619 -189.65499 -86.77489 -186.4211 -86.795372 -183.07465 C -86.842092 -175.15518 -80.459903 -168.69733 -72.540428 -168.65072 C -64.621155 -168.60402 -58.163395 -174.98588 -58.116503 -182.90515 C -58.102813 -186.26049 -59.266203 -189.5144 -61.404157 -192.10045 C -60.83125 -190.6836 -60.536835 -189.16959 -60.537027 -187.64129 C -60.575787 -181.07411 -65.930869 -175.78172 -72.498054 -175.82031 C -79.065241 -175.85911 -84.357627 -181.21415 -84.319038 -187.78134 C -84.309338 -189.30285 -84.007827 -190.80837 -83.43072 -192.21621 z M -12.868102 -119.81908 C -6.9160995 -119.81908 -2.1829672 -118.54381 1.3315484 -115.99295 C 4.8460639 -113.44209 6.603578 -110.01229 6.603578 -105.70418 C 6.603578 -103.38006 5.7534013 -101.05611 4.0528293 -98.731991 C 2.3522572 -96.407876 0.11301087 -94.50901 -2.6645901 -93.035181 C 0.84992542 -91.334609 3.5989677 -89.350519 5.5829684 -87.08309 C 7.6236549 -84.81566 8.6442803 -81.896169 8.6442803 -78.324968 C 8.6442803 -73.166566 6.7734783 -69.057034 3.0322197 -65.996005 C -0.70903877 -62.991661 -5.7539714 -61.489303 -12.102774 -61.489303 C -19.075119 -61.489303 -24.460433 -62.878373 -28.258377 -65.655974 C -31.999635 -68.433575 -33.869921 -72.401238 -33.869921 -77.55964 C -33.869921 -80.223869 -33.019744 -82.86014 -31.319172 -85.467684 C -29.6186 -88.131914 -27.238002 -90.483931 -24.176972 -92.524618 C -26.72783 -93.941761 -28.71192 -95.642631 -30.129064 -97.626632 C -31.546207 -99.610633 -32.254515 -102.07646 -32.254515 -105.02411 C -32.254515 -109.55897 -30.497518 -113.15871 -26.983002 -115.82294 C -23.468487 -118.48717 -18.763418 -119.81908 -12.868102 -119.81908 z M -127.40168 -119.56379 C -120.65608 -119.56379 -115.49786 -117.69351 -111.92665 -113.95225 C -108.29877 -110.21099 -106.48461 -104.7971 -106.48461 -97.711381 C -106.48461 -88.811721 -109.26223 -81.216258 -114.81743 -74.924142 C -120.31595 -68.688711 -128.30895 -64.09693 -138.79582 -61.149272 L -140.83652 -65.400692 C -135.16794 -67.838179 -130.60474 -70.956182 -127.14691 -74.754126 C -123.68908 -78.608756 -121.39319 -83.086732 -120.25948 -88.188448 C -123.43388 -86.601248 -126.5233 -85.807715 -129.52765 -85.807715 C -135.19622 -85.807715 -139.6742 -87.338137 -142.96197 -90.399166 C -146.19306 -93.460196 -147.8087 -97.598308 -147.8087 -102.8134 C -147.8087 -106.04448 -146.95853 -108.93539 -145.25795 -111.48625 C -143.5007 -114.03711 -141.09152 -116.0212 -138.03049 -117.43834 C -134.91277 -118.85549 -131.36968 -119.56379 -127.40168 -119.56379 z M -71.282624 -119.05375 L -67.031204 -118.969 C -61.022516 -118.85563 -57.848385 -118.79847 -57.508271 -118.79847 L -45.434073 -118.969 L -42.968073 -117.18306 L -43.733401 -110.72092 L -64.820486 -110.72092 L -66.011111 -96.521273 C -63.063453 -97.258188 -60.399118 -97.626632 -58.018317 -97.626632 C -52.40643 -97.626632 -47.843229 -96.124274 -44.328714 -93.11993 C -40.757512 -90.172272 -38.971935 -85.836165 -38.971935 -80.110905 C -38.971935 -76.539704 -39.822111 -73.336993 -41.522683 -70.502706 C -43.16657 -67.66842 -45.547684 -65.429173 -48.6654 -63.785287 C -51.783115 -62.198086 -55.467559 -61.404554 -59.718989 -61.404554 C -63.176819 -61.404554 -66.322886 -61.886286 -69.157172 -62.849943 C -71.934773 -63.813601 -74.116859 -65.14551 -75.70406 -66.846082 C -77.29126 -68.60334 -78.08531 -70.559366 -78.08531 -72.713424 C -78.08531 -74.980853 -77.461709 -76.709787 -76.214623 -77.900188 C -74.967537 -79.147274 -73.436598 -79.770358 -71.622655 -79.770358 C -70.602312 -79.770358 -69.582203 -79.572362 -68.56186 -79.175562 C -67.484831 -78.778762 -66.521366 -78.211805 -65.67108 -77.474891 C -66.181252 -76.28449 -66.436408 -75.037289 -66.436408 -73.733517 C -66.436408 -71.862888 -65.897515 -70.332466 -64.820486 -69.142066 C -63.686771 -67.951665 -61.986418 -67.356645 -59.718989 -67.356645 C -54.617273 -67.356645 -52.066226 -71.608045 -52.066226 -80.110905 C -52.066226 -84.135593 -52.859759 -87.054567 -54.446959 -88.86851 C -56.03416 -90.73914 -58.160118 -91.674541 -60.824348 -91.674541 C -62.468234 -91.674541 -64.225231 -91.36274 -66.09586 -90.739197 C -67.96649 -90.115654 -69.808711 -89.236897 -71.622655 -88.103182 L -76.299372 -92.609884 L -74.088654 -116.75776 L -71.282624 -119.05375 z M -12.868102 -113.78224 C -15.135531 -113.78224 -16.921109 -113.04535 -18.224881 -111.57152 C -19.528653 -110.15437 -20.180317 -108.22693 -20.180317 -105.78944 C -20.180317 -103.63538 -19.358721 -101.84981 -17.714834 -100.43266 C -16.014262 -99.072205 -13.54844 -97.711715 -10.317353 -96.351258 C -8.9002096 -97.314915 -7.7662963 -98.646824 -6.9160102 -100.3474 C -6.0657242 -102.04797 -5.6406359 -103.86213 -5.6406359 -105.78944 C -5.6406359 -108.22693 -6.3208806 -110.15437 -7.6813382 -111.57152 C -8.9851101 -113.04535 -10.714044 -113.78224 -12.868102 -113.78224 z M -127.91173 -113.69697 C -130.34921 -113.69697 -132.22001 -112.76157 -133.52379 -110.89094 C -134.82756 -109.02031 -135.47922 -106.35597 -135.47922 -102.89814 C -135.47922 -99.383629 -134.77091 -96.634587 -133.35377 -94.650586 C -131.87994 -92.723271 -129.81114 -91.759807 -127.14691 -91.759807 C -124.8228 -91.759807 -122.24317 -92.723271 -119.40889 -94.650586 L -119.40889 -95.755945 C -119.40889 -101.93469 -120.08913 -106.46931 -121.44959 -109.36028 C -122.81005 -112.25126 -124.96407 -113.69697 -127.91173 -113.69697 z M -91.604898 -101.28274 C -89.620897 -101.28274 -88.146603 -100.68772 -87.182945 -99.497319 C -86.162602 -98.363604 -85.652806 -96.776539 -85.652806 -94.735852 C -85.652806 -92.695166 -86.162602 -91.107584 -87.182945 -89.973869 C -88.146603 -88.840154 -89.620897 -88.273198 -91.604898 -88.273198 C -93.588898 -88.273198 -95.090739 -88.840154 -96.111083 -89.973869 C -97.07474 -91.16427 -97.556472 -92.751852 -97.556472 -94.735852 C -97.556472 -96.833225 -97.07474 -98.448354 -96.111083 -99.582068 C -95.090739 -100.71578 -93.588898 -101.28274 -91.604898 -101.28274 z M -16.354194 -89.038526 C -18.054766 -87.678068 -19.301967 -86.119583 -20.095568 -84.362325 C -20.889168 -82.605068 -21.286193 -80.50769 -21.286193 -78.070203 C -21.286193 -74.725745 -20.464079 -72.089474 -18.820193 -70.162159 C -17.176307 -68.291529 -14.93706 -67.356645 -12.102774 -67.356645 C -9.3251727 -67.356645 -7.1711507 -68.291529 -5.6406359 -70.162159 C -4.0534353 -72.032788 -3.2599026 -74.640479 -3.2599026 -77.984937 C -3.2599026 -79.855566 -3.8549229 -81.442631 -5.0453234 -82.746403 C -6.1790381 -84.106861 -7.6247518 -85.212194 -9.3820096 -86.06248 C -11.139267 -86.969452 -13.463221 -87.961497 -16.354194 -89.038526 z M -91.604898 -74.498845 C -89.620897 -74.498845 -88.146603 -73.903824 -87.182945 -72.713424 C -86.162602 -71.579709 -85.652806 -69.992127 -85.652806 -67.951441 C -85.652806 -65.910754 -86.162602 -64.323689 -87.182945 -63.189974 C -88.146603 -62.05626 -89.620897 -61.489303 -91.604898 -61.489303 C -93.588898 -61.489303 -95.090739 -62.05626 -96.111083 -63.189974 C -97.07474 -64.380375 -97.556472 -65.96744 -97.556472 -67.951441 C -97.556472 -70.048813 -97.07474 -71.664459 -96.111083 -72.798173 C -95.090739 -73.931888 -93.588898 -74.498845 -91.604898 -74.498845 z " /></g></svg>
