<?xml version="1.0" encoding="UTF-8" standalone="no"?>
<!-- Created with Inkscape (http://www.inkscape.org/) -->

<svg
   width="172.6701mm"
   height="172.6701mm"
   viewBox="0 0 172.6701 172.6701"
   version="1.1"
   id="svg1"
   xml:space="preserve"
   xmlns="http://www.w3.org/2000/svg"
   xmlns:svg="http://www.w3.org/2000/svg"><defs
     id="defs1" /><g
     id="layer1"
     transform="translate(157.25102,198.81012)"><path
       id="path5"
       style="fill:#ffffff;fill-opacity:1;stroke-width:0.805188;stroke-linecap:round;stroke-linejoin:round"
       d="M -2.0863309 -198.17657 L -10.088943 -183.11289 L -10.930235 -165.68398 L -19.198981 -165.68398 L -11.423229 -155.47426 L -12.166336 -140.07934 C -28.353216 -157.12094 -50.823548 -166.77435 -74.327399 -166.78417 C -103.64471 -166.77397 -130.92652 -151.79225 -146.66717 -127.05894 L -157.25102 -127.05894 L -149.61996 -115.86014 L -157.25102 -26.140039 L -8.5138455 -26.140039 L 15.419061 -26.140039 L 8.0799737 -154.80195 L 15.419061 -165.68398 L 7.4593397 -165.68398 L 6.4490654 -183.39297 L -2.0863309 -198.17657 z M -83.43072 -192.21621 C -85.584619 -189.65499 -86.77489 -186.4211 -86.795372 -183.07465 C -86.842092 -175.15518 -80.459903 -168.69733 -72.540428 -168.65072 C -64.621155 -168.60402 -58.163395 -174.98588 -58.116503 -182.90515 C -58.102813 -186.26049 -59.266203 -189.5144 -61.404157 -192.10045 C -60.83125 -190.6836 -60.536835 -189.16959 -60.537027 -187.64129 C -60.575787 -181.07411 -65.930869 -175.78172 -72.498054 -175.82031 C -79.065241 -175.85911 -84.357627 -181.21415 -84.319038 -187.78134 C -84.309338 -189.30285 -84.007827 -190.80837 -83.43072 -192.21621 z M -126.46634 -119.56379 C -119.72073 -119.56379 -114.56251 -117.69351 -110.99131 -113.95225 C -107.36342 -110.21099 -105.54927 -104.7971 -105.54927 -97.711381 C -105.54927 -88.811721 -108.32689 -81.216258 -113.88209 -74.924142 C -119.38061 -68.688711 -127.37361 -64.09693 -137.86047 -61.149272 L -139.90117 -65.400692 C -134.2326 -67.838179 -129.6694 -70.956182 -126.21157 -74.754126 C -122.75374 -78.608756 -120.45785 -83.086732 -119.32414 -88.188448 C -122.49854 -86.601248 -125.58796 -85.807715 -128.5923 -85.807715 C -134.26088 -85.807715 -138.73885 -87.338137 -142.02663 -90.399166 C -145.25771 -93.460196 -146.87336 -97.598308 -146.87336 -102.8134 C -146.87336 -106.04448 -146.02318 -108.93539 -144.32261 -111.48625 C -142.56535 -114.03711 -140.15617 -116.0212 -137.09514 -117.43834 C -133.97743 -118.85549 -130.43434 -119.56379 -126.46634 -119.56379 z M -13.038117 -119.56379 C -6.2925147 -119.56379 -1.1342941 -117.69351 2.4369072 -113.95225 C 6.0647943 -110.21099 7.8789523 -104.7971 7.8789523 -97.711381 C 7.8789523 -88.811721 5.1013297 -81.216258 -0.45387238 -74.924142 C -5.9523887 -68.688711 -13.945393 -64.09693 -24.432254 -61.149272 L -26.472956 -65.400692 C -20.804383 -67.838179 -16.241182 -70.956182 -12.783352 -74.754126 C -9.3255225 -78.608756 -7.0296322 -83.086732 -5.8959175 -88.188448 C -9.0703186 -86.601248 -12.159742 -85.807715 -15.164086 -85.807715 C -20.832659 -85.807715 -25.310635 -87.338137 -28.598408 -90.399166 C -31.829495 -93.460196 -33.44514 -97.598308 -33.44514 -102.8134 C -33.44514 -106.04448 -32.594964 -108.93539 -30.894392 -111.48625 C -29.137134 -114.03711 -26.727955 -116.0212 -23.666926 -117.43834 C -20.54921 -118.85549 -17.006119 -119.56379 -13.038117 -119.56379 z M -70.347281 -119.05375 L -66.09586 -118.969 C -60.087173 -118.85563 -56.913042 -118.79847 -56.572928 -118.79847 L -44.498729 -118.969 L -42.03273 -117.18306 L -42.798058 -110.72092 L -63.885143 -110.72092 L -65.075768 -96.521273 C -62.128109 -97.258188 -59.463775 -97.626632 -57.082974 -97.626632 C -51.471086 -97.626632 -46.907886 -96.124274 -43.39337 -93.11993 C -39.822169 -90.172272 -38.036591 -85.836165 -38.036591 -80.110905 C -38.036591 -76.539704 -38.886768 -73.336993 -40.58734 -70.502706 C -42.231226 -67.66842 -44.612341 -65.429173 -47.730056 -63.785287 C -50.847772 -62.198086 -54.532215 -61.404554 -58.783645 -61.404554 C -62.241475 -61.404554 -65.387542 -61.886286 -68.221829 -62.849943 C -70.99943 -63.813601 -73.182032 -65.14551 -74.769233 -66.846082 C -76.356433 -68.60334 -77.149966 -70.559366 -77.149966 -72.713424 C -77.149966 -74.980853 -76.526365 -76.709787 -75.279279 -77.900188 C -74.032193 -79.147274 -72.501772 -79.770358 -70.687828 -79.770358 C -69.667485 -79.770358 -68.64686 -79.572362 -67.626516 -79.175562 C -66.549487 -78.778762 -65.586023 -78.211805 -64.735737 -77.474891 C -65.245908 -76.28449 -65.501065 -75.037289 -65.501065 -73.733517 C -65.501065 -71.862888 -64.962172 -70.332466 -63.885143 -69.142066 C -62.751428 -67.951665 -61.051075 -67.356645 -58.783645 -67.356645 C -53.681929 -67.356645 -51.130882 -71.608045 -51.130882 -80.110905 C -51.130882 -84.135593 -51.924415 -87.054567 -53.511616 -88.86851 C -55.098816 -90.73914 -57.224775 -91.674541 -59.889004 -91.674541 C -61.532891 -91.674541 -63.289888 -91.36274 -65.160517 -90.739197 C -67.031146 -90.115654 -68.873885 -89.236897 -70.687828 -88.103182 L -75.364029 -92.609884 L -73.153311 -116.75776 L -70.347281 -119.05375 z M -126.9769 -113.69697 C -129.41439 -113.69697 -131.28467 -112.76157 -132.58844 -110.89094 C -133.89221 -109.02031 -134.5444 -106.35597 -134.5444 -102.89814 C -134.5444 -99.383629 -133.83557 -96.634587 -132.41843 -94.650586 C -130.9446 -92.723271 -128.8758 -91.759807 -126.21157 -91.759807 C -123.88746 -91.759807 -121.30783 -92.723271 -118.47354 -94.650586 L -118.47354 -95.755945 C -118.47354 -101.93469 -119.15379 -106.46931 -120.51424 -109.36028 C -121.8747 -112.25126 -124.02924 -113.69697 -126.9769 -113.69697 z M -13.548164 -113.69697 C -15.98565 -113.69697 -17.856452 -112.76157 -19.160224 -110.89094 C -20.463996 -109.02031 -21.11566 -106.35597 -21.11566 -102.89814 C -21.11566 -99.383629 -20.407352 -96.634587 -18.990209 -94.650586 C -17.51638 -92.723271 -15.447582 -91.759807 -12.783352 -91.759807 C -10.459237 -91.759807 -7.8796101 -92.723271 -5.0453234 -94.650586 L -5.0453234 -95.755945 C -5.0453234 -101.93469 -5.7255681 -106.46931 -7.0860257 -109.36028 C -8.4464833 -112.25126 -10.600505 -113.69697 -13.548164 -113.69697 z M -90.669554 -101.28274 C -88.685554 -101.28274 -87.211776 -100.68772 -86.248119 -99.497319 C -85.227776 -98.363604 -84.717463 -96.776539 -84.717463 -94.735852 C -84.717463 -92.695166 -85.227776 -91.107584 -86.248119 -89.973869 C -87.211776 -88.840154 -88.685554 -88.273198 -90.669554 -88.273198 C -92.653555 -88.273198 -94.155396 -88.840154 -95.175739 -89.973869 C -96.139397 -91.16427 -96.621646 -92.751852 -96.621646 -94.735852 C -96.621646 -96.833225 -96.139397 -98.448354 -95.175739 -99.582068 C -94.155396 -100.71578 -92.653555 -101.28274 -90.669554 -101.28274 z M -90.669554 -74.498845 C -88.685554 -74.498845 -87.211776 -73.903824 -86.248119 -72.713424 C -85.227776 -71.579709 -84.717463 -69.992127 -84.717463 -67.951441 C -84.717463 -65.910754 -85.227776 -64.323689 -86.248119 -63.189974 C -87.211776 -62.05626 -88.685554 -61.489303 -90.669554 -61.489303 C -92.653555 -61.489303 -94.155396 -62.05626 -95.175739 -63.189974 C -96.139397 -64.380375 -96.621646 -65.96744 -96.621646 -67.951441 C -96.621646 -70.048813 -96.139397 -71.664459 -95.175739 -72.798173 C -94.155396 -73.931888 -92.653555 -74.498845 -90.669554 -74.498845 z " /></g></svg>
