<?xml version="1.0" encoding="UTF-8" standalone="no"?>
<!-- Created with Inkscape (http://www.inkscape.org/) -->

<svg
   width="172.6701mm"
   height="172.6701mm"
   viewBox="0 0 172.6701 172.6701"
   version="1.1"
   id="svg1"
   xml:space="preserve"
   xmlns="http://www.w3.org/2000/svg"
   xmlns:svg="http://www.w3.org/2000/svg"><defs
     id="defs1" /><g
     id="layer1"
     transform="translate(157.25102,198.81012)"><path
       id="path5"
       style="fill:#ffffff;fill-opacity:1;stroke-width:0.805188;stroke-linecap:round;stroke-linejoin:round"
       d="M -2.0863309 -198.17657 L -10.088943 -183.11289 L -10.930235 -165.68398 L -19.198981 -165.68398 L -11.423229 -155.47426 L -12.166336 -140.07934 C -28.353216 -157.12094 -50.823548 -166.77435 -74.327399 -166.78417 C -103.64471 -166.77397 -130.92652 -151.79225 -146.66717 -127.05894 L -157.25102 -127.05894 L -149.61996 -115.86014 L -157.25102 -26.140039 L -8.5138455 -26.140039 L 15.419061 -26.140039 L 8.0799737 -154.80195 L 15.419061 -165.68398 L 7.4593397 -165.68398 L 6.4490654 -183.39297 L -2.0863309 -198.17657 z M -83.43072 -192.21621 C -85.584619 -189.65499 -86.77489 -186.4211 -86.795372 -183.07465 C -86.842092 -175.15518 -80.459903 -168.69733 -72.540428 -168.65072 C -64.621155 -168.60402 -58.163395 -174.98588 -58.116503 -182.90515 C -58.102813 -186.26049 -59.266203 -189.5144 -61.404157 -192.10045 C -60.83125 -190.6836 -60.536835 -189.16959 -60.537027 -187.64129 C -60.575787 -181.07411 -65.930869 -175.78172 -72.498054 -175.82031 C -79.065241 -175.85911 -84.357627 -181.21415 -84.319038 -187.78134 C -84.309338 -189.30285 -84.007827 -190.80837 -83.43072 -192.21621 z M -57.890677 -120.07436 C -53.355818 -119.84761 -49.671374 -118.85557 -46.837088 -117.09831 L -67.074095 -83.767013 L -54.064554 -83.767013 L -53.214476 -97.626632 C -51.400533 -97.626632 -50.096687 -97.995076 -49.303087 -98.731991 C -48.452801 -99.468905 -47.80062 -100.71611 -47.347134 -102.47336 L -42.500402 -102.47336 L -42.585668 -83.341716 C -40.43161 -82.718173 -37.710631 -82.066508 -34.422858 -81.38628 L -34.848155 -77.304875 L -43.010965 -77.304875 L -43.010965 -62.084615 L -54.064554 -62.084615 L -54.064554 -77.304875 L -78.637731 -77.304875 L -79.317792 -80.36567 L -57.890677 -120.07436 z M -127.10402 -119.81908 C -121.15202 -119.81908 -116.41889 -118.54381 -112.90437 -115.99295 C -109.38986 -113.44209 -107.63234 -110.01229 -107.63234 -105.70418 C -107.63234 -103.38006 -108.48304 -101.05611 -110.18361 -98.731991 C -111.88418 -96.407876 -114.12291 -94.50901 -116.90051 -93.035181 C -113.386 -91.334609 -110.63695 -89.350519 -108.65295 -87.08309 C -106.61227 -84.81566 -105.59164 -81.896169 -105.59164 -78.324968 C -105.59164 -73.166566 -107.46244 -69.057034 -111.2037 -65.996005 C -114.94496 -62.991661 -119.98989 -61.489303 -126.33869 -61.489303 C -133.31104 -61.489303 -138.69635 -62.878373 -142.4943 -65.655974 C -146.23556 -68.433575 -148.10636 -72.401238 -148.10636 -77.55964 C -148.10636 -80.223869 -147.25567 -82.86014 -145.55509 -85.467684 C -143.85452 -88.131914 -141.47392 -90.483931 -138.41289 -92.524618 C -140.96375 -93.941761 -142.94784 -95.642631 -144.36498 -97.626632 C -145.78213 -99.610633 -146.49044 -102.07646 -146.49044 -105.02411 C -146.49044 -109.55897 -144.73344 -113.15871 -141.21892 -115.82294 C -137.70441 -118.48717 -132.99934 -119.81908 -127.10402 -119.81908 z M -23.199254 -119.05375 L -18.947834 -118.969 C -12.939146 -118.85563 -9.7644987 -118.79847 -9.4243843 -118.79847 L 2.6492974 -118.969 L 5.1152967 -117.18306 L 4.3499688 -110.72092 L -16.737116 -110.72092 L -17.927224 -96.521273 C -14.979566 -97.258188 -12.315748 -97.626632 -9.9349474 -97.626632 C -4.3230596 -97.626632 0.2401407 -96.124274 3.7546563 -93.11993 C 7.3258576 -90.172272 9.1114352 -85.836165 9.1114352 -80.110905 C 9.1114352 -76.539704 8.2612586 -73.336993 6.5606865 -70.502706 C 4.9168002 -67.66842 2.5362023 -65.429173 -0.58151316 -63.785287 C -3.6992286 -62.198086 -7.3836719 -61.404554 -11.635102 -61.404554 C -15.092932 -61.404554 -18.238999 -61.886286 -21.073286 -62.849943 C -23.850887 -63.813601 -26.033489 -65.14551 -27.62069 -66.846082 C -29.20789 -68.60334 -30.001423 -70.559366 -30.001423 -72.713424 C -30.001423 -74.980853 -29.377822 -76.709787 -28.130736 -77.900188 C -26.88365 -79.147274 -25.353228 -79.770358 -23.539285 -79.770358 C -22.518942 -79.770358 -21.498833 -79.572362 -20.47849 -79.175562 C -19.401461 -78.778762 -18.43748 -78.211805 -17.587194 -77.474891 C -18.097365 -76.28449 -18.352521 -75.037289 -18.352521 -73.733517 C -18.352521 -71.862888 -17.814145 -70.332466 -16.737116 -69.142066 C -15.603401 -67.951665 -13.902531 -67.356645 -11.635102 -67.356645 C -6.5333859 -67.356645 -3.9828559 -71.608045 -3.9828559 -80.110905 C -3.9828559 -84.135593 -4.7763886 -87.054567 -6.3635892 -88.86851 C -7.9507898 -90.73914 -10.076231 -91.674541 -12.740461 -91.674541 C -14.384347 -91.674541 -16.141861 -91.36274 -18.012491 -90.739197 C -19.88312 -90.115654 -21.725341 -89.236897 -23.539285 -88.103182 L -28.216002 -92.609884 L -26.005284 -116.75776 L -23.199254 -119.05375 z M -127.10402 -113.78224 C -129.37145 -113.78224 -131.15703 -113.04535 -132.4608 -111.57152 C -133.76457 -110.15437 -134.41675 -108.22693 -134.41675 -105.78944 C -134.41675 -103.63538 -133.59464 -101.84981 -131.95076 -100.43266 C -130.25018 -99.072205 -127.78436 -97.711715 -124.55327 -96.351258 C -123.13613 -97.314915 -122.00222 -98.646824 -121.15193 -100.3474 C -120.30165 -102.04797 -119.87656 -103.86213 -119.87656 -105.78944 C -119.87656 -108.22693 -120.5568 -110.15437 -121.91726 -111.57152 C -123.22103 -113.04535 -124.94996 -113.78224 -127.10402 -113.78224 z M -90.541914 -101.28274 C -88.557913 -101.28274 -87.084136 -100.68772 -86.120478 -99.497319 C -85.100135 -98.363604 -84.589822 -96.776539 -84.589822 -94.735852 C -84.589822 -92.695166 -85.100135 -91.107584 -86.120478 -89.973869 C -87.084136 -88.840154 -88.557913 -88.273198 -90.541914 -88.273198 C -92.525914 -88.273198 -94.028272 -88.840154 -95.048615 -89.973869 C -96.012273 -91.16427 -96.494005 -92.751852 -96.494005 -94.735852 C -96.494005 -96.833225 -96.012273 -98.448354 -95.048615 -99.582068 C -94.028272 -100.71578 -92.525914 -101.28274 -90.541914 -101.28274 z M -130.59012 -89.038526 C -132.29069 -87.678068 -133.53789 -86.119583 -134.33149 -84.362325 C -135.12509 -82.605068 -135.52211 -80.50769 -135.52211 -78.070203 C -135.52211 -74.725745 -134.7 -72.089474 -133.05611 -70.162159 C -131.41223 -68.291529 -129.17298 -67.356645 -126.33869 -67.356645 C -123.56109 -67.356645 -121.40707 -68.291529 -119.87656 -70.162159 C -118.28936 -72.032788 -117.49582 -74.640479 -117.49582 -77.984937 C -117.49582 -79.855566 -118.09084 -81.442631 -119.28124 -82.746403 C -120.41496 -84.106861 -121.86067 -85.212194 -123.61793 -86.06248 C -125.37519 -86.969452 -127.69914 -87.961497 -130.59012 -89.038526 z M -90.541914 -74.498845 C -88.557913 -74.498845 -87.084136 -73.903824 -86.120478 -72.713424 C -85.100135 -71.579709 -84.589822 -69.992127 -84.589822 -67.951441 C -84.589822 -65.910754 -85.100135 -64.323689 -86.120478 -63.189974 C -87.084136 -62.05626 -88.557913 -61.489303 -90.541914 -61.489303 C -92.525914 -61.489303 -94.028272 -62.05626 -95.048615 -63.189974 C -96.012273 -64.380375 -96.494005 -65.96744 -96.494005 -67.951441 C -96.494005 -70.048813 -96.012273 -71.664459 -95.048615 -72.798173 C -94.028272 -73.931888 -92.525914 -74.498845 -90.541914 -74.498845 z " /></g></svg>
