<?xml version="1.0" encoding="UTF-8" standalone="no"?>
<!-- Created with Inkscape (http://www.inkscape.org/) -->

<svg
   width="172.6701mm"
   height="172.6701mm"
   viewBox="0 0 172.6701 172.6701"
   version="1.1"
   id="svg1"
   xml:space="preserve"
   xmlns="http://www.w3.org/2000/svg"
   xmlns:svg="http://www.w3.org/2000/svg"><defs
     id="defs1" /><g
     id="layer1"
     transform="translate(157.25102,198.81012)"><path
       id="path5"
       style="fill:#ffffff;fill-opacity:1;stroke-width:0.805188;stroke-linecap:round;stroke-linejoin:round"
       d="M -2.0863309 -198.17657 L -10.088943 -183.11289 L -10.930235 -165.68398 L -19.198981 -165.68398 L -11.423229 -155.47426 L -12.166336 -140.07934 C -28.353216 -157.12094 -50.823548 -166.77435 -74.327399 -166.78417 C -103.64471 -166.77397 -130.92652 -151.79225 -146.66717 -127.05894 L -157.25102 -127.05894 L -149.61996 -115.86014 L -157.25102 -26.140039 L -8.5138455 -26.140039 L 15.419061 -26.140039 L 8.0799737 -154.80195 L 15.419061 -165.68398 L 7.4593397 -165.68398 L 6.4490654 -183.39297 L -2.0863309 -198.17657 z M -83.43072 -192.21621 C -85.584619 -189.65499 -86.77489 -186.4211 -86.795372 -183.07465 C -86.842092 -175.15518 -80.459903 -168.69733 -72.540428 -168.65072 C -64.621155 -168.60402 -58.163395 -174.98588 -58.116503 -182.90515 C -58.102813 -186.26049 -59.266203 -189.5144 -61.404157 -192.10045 C -60.83125 -190.6836 -60.536835 -189.16959 -60.537027 -187.64129 C -60.575787 -181.07411 -65.930869 -175.78172 -72.498054 -175.82031 C -79.065241 -175.85911 -84.357627 -181.21415 -84.319038 -187.78134 C -84.309338 -189.30285 -84.007827 -190.80837 -83.43072 -192.21621 z M -57.338256 -119.73381 C -53.653683 -119.73381 -50.393811 -119.11073 -47.559524 -117.86364 C -44.725237 -116.67324 -42.514571 -114.97237 -40.927371 -112.76163 C -39.34017 -110.60757 -38.546638 -108.11368 -38.546638 -105.27939 C -38.546638 -102.10499 -39.482039 -99.384015 -41.352668 -97.116586 C -43.223297 -94.849156 -46.00092 -93.120223 -49.685493 -91.929822 C -45.037262 -90.909479 -41.777907 -89.237189 -39.907278 -86.913074 C -38.036649 -84.588959 -37.101248 -81.442892 -37.101248 -77.474891 C -37.101248 -74.017061 -38.149937 -71.069506 -40.247309 -68.632019 C -42.287996 -66.194533 -44.95233 -64.380375 -48.240103 -63.189974 C -51.527875 -61.999574 -54.929099 -61.404554 -58.443614 -61.404554 C -63.545331 -61.404554 -67.881438 -62.453243 -71.452639 -64.550615 C -74.967155 -66.647987 -76.724669 -69.510317 -76.724669 -73.138204 C -76.724669 -75.235577 -76.101068 -76.851222 -74.853982 -77.984937 C -73.606896 -79.175337 -72.047894 -79.770358 -70.177265 -79.770358 C -68.24995 -79.770358 -66.29444 -79.005405 -64.31044 -77.474891 C -64.820611 -76.397862 -65.075768 -75.094016 -65.075768 -73.563501 C -65.075768 -71.749558 -64.536875 -70.275781 -63.459846 -69.142066 C -62.326131 -68.008351 -60.654358 -67.441394 -58.443614 -67.441394 C -53.568641 -67.441394 -51.130882 -70.814037 -51.130882 -77.55964 C -51.130882 -81.244213 -52.32144 -84.10706 -54.702241 -86.147746 C -57.026356 -88.188433 -60.342355 -89.208541 -64.650471 -89.208541 L -64.650471 -94.480571 C -56.317668 -95.1608 -52.151492 -98.760535 -52.151492 -105.27939 C -52.151492 -108.56717 -52.661288 -110.97583 -53.681631 -112.50634 C -54.701974 -114.09354 -56.091044 -114.88759 -57.848302 -114.88759 C -59.945674 -114.88759 -61.532739 -114.15071 -62.609768 -112.67688 C -63.630112 -111.20305 -64.140424 -109.41747 -64.140424 -107.3201 C -64.140424 -105.44947 -63.7434 -103.77718 -62.949799 -102.30335 C -64.537 -100.60278 -66.577734 -99.752084 -69.071906 -99.752084 C -71.339336 -99.752084 -73.09685 -100.43233 -74.343936 -101.79279 C -75.591022 -103.15324 -76.214623 -104.91076 -76.214623 -107.06482 C -76.214623 -109.8991 -75.250641 -112.25164 -73.323326 -114.12227 C -71.339326 -116.04958 -68.902084 -117.46671 -66.011111 -118.37369 C -63.063453 -119.28066 -60.172542 -119.73381 -57.338256 -119.73381 z M -136.75511 -119.05375 L -132.50318 -118.969 C -126.49449 -118.85563 -123.32036 -118.79847 -122.98024 -118.79847 L -110.90605 -118.969 L -108.44056 -117.18306 L -109.20537 -110.72092 L -130.29246 -110.72092 L -131.48308 -96.521273 C -128.53543 -97.258188 -125.87109 -97.626632 -123.49029 -97.626632 C -117.8784 -97.626632 -113.3152 -96.124274 -109.80069 -93.11993 C -106.22949 -90.172272 -104.44391 -85.836165 -104.44391 -80.110905 C -104.44391 -76.539704 -105.29408 -73.336993 -106.99466 -70.502706 C -108.63854 -67.66842 -111.01966 -65.429173 -114.13737 -63.785287 C -117.25509 -62.198086 -120.93953 -61.404554 -125.19096 -61.404554 C -128.64879 -61.404554 -131.79486 -61.886286 -134.62915 -62.849943 C -137.40675 -63.813601 -139.58935 -65.14551 -141.17655 -66.846082 C -142.76375 -68.60334 -143.55728 -70.559366 -143.55728 -72.713424 C -143.55728 -74.980853 -142.93368 -76.709787 -141.6866 -77.900188 C -140.43951 -79.147274 -138.90909 -79.770358 -137.09514 -79.770358 C -136.0748 -79.770358 -135.05418 -79.572362 -134.03383 -79.175562 C -132.9568 -78.778762 -131.99334 -78.211805 -131.14305 -77.474891 C -131.65322 -76.28449 -131.90838 -75.037289 -131.90838 -73.733517 C -131.90838 -71.862888 -131.36949 -70.332466 -130.29246 -69.142066 C -129.15874 -67.951665 -127.45839 -67.356645 -125.19096 -67.356645 C -120.08925 -67.356645 -117.5382 -71.608045 -117.5382 -80.110905 C -117.5382 -84.135593 -118.33225 -87.054567 -119.91945 -88.86851 C -121.50665 -90.73914 -123.63209 -91.674541 -126.29632 -91.674541 C -127.94021 -91.674541 -129.69772 -91.36274 -131.56835 -90.739197 C -133.43898 -90.115654 -135.2812 -89.236897 -137.09514 -88.103182 L -141.77134 -92.609884 L -139.56063 -116.75776 L -136.75511 -119.05375 z M -32.339781 -118.88373 L -28.173111 -118.88373 C -26.019053 -118.82705 -21.314501 -118.79847 -14.058727 -118.79847 C -6.5195239 -118.79847 -1.6159429 -118.82705 0.65148651 -118.88373 L 4.7328911 -118.88373 L 6.4335625 -115.22762 C 5.3565336 -113.52705 3.3157995 -109.84261 0.31145559 -104.17404 C -2.6928884 -98.505463 -5.527155 -92.496548 -8.1913846 -86.147746 C -10.855614 -79.798944 -12.18804 -74.838719 -12.18804 -71.267517 C -12.18804 -68.433231 -11.195995 -66.307789 -9.2119941 -64.890646 C -11.139309 -62.566531 -13.605131 -61.404554 -16.609475 -61.404554 C -19.387076 -61.404554 -21.541098 -62.169506 -23.071613 -63.700021 C -24.602128 -65.230536 -25.36708 -67.356494 -25.36708 -70.077409 C -25.36708 -73.478553 -24.545484 -77.077772 -22.901598 -80.875717 C -21.257711 -84.730347 -18.310157 -89.945728 -14.058727 -96.521273 L -4.0252306 -111.9963 L -23.411644 -111.9963 C -24.205244 -109.44544 -24.686977 -106.44124 -24.857034 -102.98341 C -25.877377 -102.81335 -26.926066 -102.72813 -28.003095 -102.72813 C -29.13681 -102.72813 -30.242143 -102.81335 -31.319172 -102.98341 L -33.699905 -117.60836 L -32.339781 -118.88373 z M -89.053632 -101.28274 C -87.069632 -101.28274 -85.595854 -100.68772 -84.632197 -99.497319 C -83.611854 -98.363604 -83.101541 -96.776539 -83.101541 -94.735852 C -83.101541 -92.695166 -83.611854 -91.107584 -84.632197 -89.973869 C -85.595854 -88.840154 -87.069632 -88.273198 -89.053632 -88.273198 C -91.037633 -88.273198 -92.539991 -88.840154 -93.560334 -89.973869 C -94.523991 -91.16427 -95.005724 -92.751852 -95.005724 -94.735852 C -95.005724 -96.833225 -94.523991 -98.448354 -93.560334 -99.582068 C -92.539991 -100.71578 -91.037633 -101.28274 -89.053632 -101.28274 z M -89.053632 -74.498845 C -87.069632 -74.498845 -85.595854 -73.903824 -84.632197 -72.713424 C -83.611854 -71.579709 -83.101541 -69.992127 -83.101541 -67.951441 C -83.101541 -65.910754 -83.611854 -64.323689 -84.632197 -63.189974 C -85.595854 -62.05626 -87.069632 -61.489303 -89.053632 -61.489303 C -91.037633 -61.489303 -92.539991 -62.05626 -93.560334 -63.189974 C -94.523991 -64.380375 -95.005724 -65.96744 -95.005724 -67.951441 C -95.005724 -70.048813 -94.523991 -71.664459 -93.560334 -72.798173 C -92.539991 -73.931888 -91.037633 -74.498845 -89.053632 -74.498845 z " /></g></svg>
