<?xml version="1.0" encoding="UTF-8" standalone="no"?>
<!-- Created with Inkscape (http://www.inkscape.org/) -->

<svg
   width="172.6701mm"
   height="172.6701mm"
   viewBox="0 0 172.6701 172.6701"
   version="1.1"
   id="svg1"
   xml:space="preserve"
   xmlns="http://www.w3.org/2000/svg"
   xmlns:svg="http://www.w3.org/2000/svg"><defs
     id="defs1" /><g
     id="layer1"
     transform="translate(157.25102,198.81012)"><path
       id="path5"
       style="fill:#ffffff;fill-opacity:1;stroke-width:0.805188;stroke-linecap:round;stroke-linejoin:round"
       d="M -2.0863309 -198.17657 L -10.088943 -183.11289 L -10.930235 -165.68398 L -19.198981 -165.68398 L -11.423229 -155.47426 L -12.166336 -140.07934 C -28.353216 -157.12094 -50.823548 -166.77435 -74.327399 -166.78417 C -103.64471 -166.77397 -130.92652 -151.79225 -146.66717 -127.05894 L -157.25102 -127.05894 L -149.61996 -115.86014 L -157.25102 -26.140039 L -8.5138455 -26.140039 L 15.419061 -26.140039 L 8.0799737 -154.80195 L 15.419061 -165.68398 L 7.4593397 -165.68398 L 6.4490654 -183.39297 L -2.0863309 -198.17657 z M -83.43072 -192.21621 C -85.584619 -189.65499 -86.77489 -186.4211 -86.795372 -183.07465 C -86.842092 -175.15518 -80.459903 -168.69733 -72.540428 -168.65072 C -64.621155 -168.60402 -58.163395 -174.98588 -58.116503 -182.90515 C -58.102813 -186.26049 -59.266203 -189.5144 -61.404157 -192.10045 C -60.83125 -190.6836 -60.536835 -189.16959 -60.537027 -187.64129 C -60.575787 -181.07411 -65.930869 -175.78172 -72.498054 -175.82031 C -79.065241 -175.85911 -84.357627 -181.21415 -84.319038 -187.78134 C -84.309338 -189.30285 -84.007827 -190.80837 -83.43072 -192.21621 z M -33.727294 -133.39551 C -23.844624 -133.39551 -15.985403 -131.27784 -10.149921 -127.04241 C -4.31444 -122.80698 -1.3964505 -117.11238 -1.3964505 -109.95921 C -1.3964505 -106.10027 -2.8082309 -102.24161 -5.6318509 -98.382658 C -8.4554709 -94.523711 -12.173263 -91.370425 -16.785175 -88.923287 C -10.949694 -86.099667 -6.385144 -82.805513 -3.0909207 -79.040686 C 0.29742328 -75.27586 1.9919732 -70.42854 1.9919732 -64.498938 C 1.9919732 -55.933958 -1.1143571 -49.110352 -7.3263211 -44.027836 C -13.538285 -39.039441 -21.915055 -36.545089 -32.45657 -36.545089 C -44.033412 -36.545089 -52.974688 -38.8511 -59.280773 -43.463013 C -65.492737 -48.074926 -68.59855 -54.663751 -68.59855 -63.228732 C -68.59855 -67.652403 -67.18677 -72.028612 -64.36315 -76.358163 C -61.53953 -80.781834 -57.586441 -84.687967 -52.503925 -88.076311 C -56.739355 -90.429327 -60.034026 -93.252888 -62.387043 -96.547111 C -64.74006 -99.841335 -65.916543 -103.93581 -65.916543 -108.83008 C -65.916543 -116.35974 -62.998554 -122.33607 -57.163072 -126.75974 C -51.327591 -131.18341 -43.515843 -133.39551 -33.727294 -133.39551 z M -110.10609 -133.25443 C -103.98825 -133.25443 -98.575909 -132.21882 -93.869876 -130.14816 C -89.163842 -128.17163 -85.493523 -125.34807 -82.858145 -121.67736 C -80.222766 -118.10078 -78.904898 -113.95935 -78.904898 -109.25331 C -78.904898 -103.98256 -80.458063 -99.464961 -83.564045 -95.700135 C -86.670027 -91.935308 -91.281533 -89.064791 -97.399376 -87.088257 C -89.681481 -85.394085 -84.269657 -82.61748 -81.163675 -78.758533 C -78.057693 -74.899586 -76.505044 -69.675585 -76.505044 -63.087138 C -76.505044 -57.345778 -78.246033 -52.451502 -81.728498 -48.404314 C -85.116842 -44.357125 -89.540524 -41.345223 -94.999523 -39.368689 C -100.45852 -37.392155 -106.10564 -36.404012 -111.94112 -36.404012 C -120.41198 -36.404012 -127.61227 -38.145518 -133.54187 -41.627983 C -139.37735 -45.110448 -142.29534 -49.863338 -142.29534 -55.887061 C -142.29534 -59.369526 -141.25973 -62.052218 -139.18907 -63.934632 C -137.11842 -65.911166 -134.53015 -66.899309 -131.42417 -66.899309 C -128.22407 -66.899309 -124.97687 -65.628396 -121.68265 -63.087138 C -122.52973 -61.298846 -122.95337 -59.134219 -122.95337 -56.592961 C -122.95337 -53.5811 -122.05914 -51.13422 -120.27085 -49.251807 C -118.38843 -47.369394 -115.61183 -46.428207 -111.94112 -46.428207 C -103.84675 -46.428207 -99.799746 -52.028372 -99.799746 -63.228732 C -99.799746 -69.346575 -101.77603 -74.099466 -105.7291 -77.48781 C -109.58805 -80.876154 -115.0943 -82.570187 -122.24747 -82.570187 L -122.24747 -91.323658 C -108.41173 -92.453106 -101.4937 -98.429436 -101.4937 -109.25331 C -101.4937 -114.71231 -102.34097 -118.71287 -104.03515 -121.25413 C -105.72932 -123.88951 -108.03533 -125.20686 -110.95307 -125.20686 C -114.43554 -125.20686 -117.07076 -123.98342 -118.85905 -121.53628 C -120.55322 -119.08915 -121.4005 -116.1242 -121.4005 -112.64174 C -121.4005 -109.53575 -120.74156 -106.75915 -119.42387 -104.31201 C -122.05925 -101.48839 -125.44783 -100.07661 -129.58914 -100.07661 C -133.35397 -100.07661 -136.27144 -101.20614 -138.3421 -103.46504 C -140.41275 -105.72393 -141.44785 -108.64192 -141.44785 -112.21851 C -141.44785 -116.92454 -139.84825 -120.83016 -136.64814 -123.93614 C -133.35392 -127.13624 -129.3064 -129.48921 -124.50625 -130.99514 C -119.61197 -132.50107 -114.81213 -133.25443 -110.10609 -133.25443 z M -33.727294 -123.37183 C -37.49212 -123.37183 -40.456549 -122.14787 -42.621324 -119.70074 C -44.7861 -117.34772 -45.868671 -114.14799 -45.868671 -110.10081 C -45.868671 -106.52422 -44.503847 -103.55928 -41.774348 -101.20626 C -38.950728 -98.947363 -34.856771 -96.688307 -29.491893 -94.429411 C -27.138877 -96.029463 -25.255986 -98.241562 -23.844176 -101.06518 C -22.432366 -103.8888 -21.726476 -106.9007 -21.726476 -110.10081 C -21.726476 -114.14799 -22.856003 -117.34772 -25.114899 -119.70074 C -27.279675 -122.14787 -30.150708 -123.37183 -33.727294 -123.37183 z M -39.515571 -82.288033 C -42.339191 -80.029137 -44.409905 -77.440873 -45.727595 -74.523133 C -47.045284 -71.605392 -47.704218 -68.122897 -47.704218 -64.075708 C -47.704218 -58.522589 -46.339394 -54.145863 -43.609895 -50.94576 C -40.880395 -47.839778 -37.162603 -46.286613 -32.45657 -46.286613 C -27.844657 -46.286613 -24.267734 -47.839778 -21.726476 -50.94576 C -19.091097 -54.051742 -17.773745 -58.381512 -17.773745 -63.934632 C -17.773745 -67.040614 -18.761888 -69.675834 -20.738422 -71.840609 C -22.620836 -74.099505 -25.020759 -75.934923 -27.9385 -77.346733 C -30.85624 -78.852664 -34.715417 -80.499741 -39.515571 -82.288033 z " /></g></svg>
