<?xml version="1.0" encoding="UTF-8" standalone="no"?>
<!-- Created with Inkscape (http://www.inkscape.org/) -->

<svg
   width="172.6701mm"
   height="172.6701mm"
   viewBox="0 0 172.6701 172.6701"
   version="1.1"
   id="svg1"
   xml:space="preserve"
   xmlns="http://www.w3.org/2000/svg"
   xmlns:svg="http://www.w3.org/2000/svg"><defs
     id="defs1" /><g
     id="layer1"
     transform="translate(157.25102,198.81012)"><path
       id="path5"
       style="fill:#ffffff;fill-opacity:1;stroke-width:0.805188;stroke-linecap:round;stroke-linejoin:round"
       d="M -2.0863309 -198.17657 L -10.088943 -183.11289 L -10.930235 -165.68398 L -19.198981 -165.68398 L -11.423229 -155.47426 L -12.166336 -140.07934 C -28.353216 -157.12094 -50.823548 -166.77435 -74.327399 -166.78417 C -103.64471 -166.77397 -130.92652 -151.79225 -146.66717 -127.05894 L -157.25102 -127.05894 L -149.61996 -115.86014 L -157.25102 -26.140039 L -8.5138455 -26.140039 L 15.419061 -26.140039 L 8.0799737 -154.80195 L 15.419061 -165.68398 L 7.4593397 -165.68398 L 6.4490654 -183.39297 L -2.0863309 -198.17657 z M -83.43072 -192.21621 C -85.584619 -189.65499 -86.77489 -186.4211 -86.795372 -183.07465 C -86.842092 -175.15518 -80.459903 -168.69733 -72.540428 -168.65072 C -64.621155 -168.60402 -58.163395 -174.98588 -58.116503 -182.90515 C -58.102813 -186.26049 -59.266203 -189.5144 -61.404157 -192.10045 C -60.83125 -190.6836 -60.536835 -189.16959 -60.537027 -187.64129 C -60.575787 -181.07411 -65.930869 -175.78172 -72.498054 -175.82031 C -79.065241 -175.85911 -84.357627 -181.21415 -84.319038 -187.78134 C -84.309338 -189.30285 -84.007827 -190.80837 -83.43072 -192.21621 z M -13.973461 -119.81908 C -8.0214584 -119.81908 -3.2883261 -118.54381 0.22618947 -115.99295 C 3.740705 -113.44209 5.4982191 -110.01229 5.4982191 -105.70418 C 5.4982191 -103.38006 4.6475257 -101.05611 2.9469536 -98.731991 C 1.2463816 -96.407876 -0.99234802 -94.50901 -3.769949 -93.035181 C -0.25543346 -91.334609 2.4936088 -89.350519 4.4776096 -87.08309 C 6.518296 -84.81566 7.5389214 -81.896169 7.5389214 -78.324968 C 7.5389214 -73.166566 5.6681194 -69.057034 1.9268609 -65.996005 C -1.8143977 -62.991661 -6.8593303 -61.489303 -13.208133 -61.489303 C -20.180478 -61.489303 -25.565791 -62.878373 -29.363736 -65.655974 C -33.104994 -68.433575 -34.975796 -72.401238 -34.975796 -77.55964 C -34.975796 -80.223869 -34.125103 -82.86014 -32.424531 -85.467684 C -30.723959 -88.131914 -28.343361 -90.483931 -25.282331 -92.524618 C -27.833189 -93.941761 -29.817279 -95.642631 -31.234423 -97.626632 C -32.651566 -99.610633 -33.359874 -102.07646 -33.359874 -105.02411 C -33.359874 -109.55897 -31.602877 -113.15871 -28.088361 -115.82294 C -24.573846 -118.48717 -19.868777 -119.81908 -13.973461 -119.81908 z M -59.973754 -119.73381 C -56.289181 -119.73381 -53.029826 -119.11073 -50.195539 -117.86364 C -47.361252 -116.67324 -45.150586 -114.97237 -43.563386 -112.76163 C -41.976185 -110.60757 -41.182652 -108.11368 -41.182652 -105.27939 C -41.182652 -102.10499 -42.118054 -99.384015 -43.988683 -97.116586 C -45.859312 -94.849156 -48.636935 -93.120223 -52.321507 -91.929822 C -47.673277 -90.909479 -44.413922 -89.237189 -42.543293 -86.913074 C -40.672664 -84.588959 -39.737263 -81.442892 -39.737263 -77.474891 C -39.737263 -74.017061 -40.785952 -71.069506 -42.883324 -68.632019 C -44.92401 -66.194533 -47.588345 -64.380375 -50.876118 -63.189974 C -54.16389 -61.999574 -57.564597 -61.404554 -61.079112 -61.404554 C -66.180829 -61.404554 -70.517453 -62.453243 -74.088654 -64.550615 C -77.60317 -66.647987 -79.360684 -69.510317 -79.360684 -73.138204 C -79.360684 -75.235577 -78.737083 -76.851222 -77.489997 -77.984937 C -76.242911 -79.175337 -74.683909 -79.770358 -72.81328 -79.770358 C -70.885965 -79.770358 -68.930455 -79.005405 -66.946455 -77.474891 C -67.456626 -76.397862 -67.711783 -75.094016 -67.711783 -73.563501 C -67.711783 -71.749558 -67.172889 -70.275781 -66.09586 -69.142066 C -64.962146 -68.008351 -63.289856 -67.441394 -61.079112 -67.441394 C -56.204139 -67.441394 -53.766897 -70.814037 -53.766897 -77.55964 C -53.766897 -81.244213 -54.957455 -84.10706 -57.338256 -86.147746 C -59.662371 -88.188433 -62.97837 -89.208541 -67.286485 -89.208541 L -67.286485 -94.480571 C -58.953682 -95.1608 -54.78699 -98.760535 -54.78699 -105.27939 C -54.78699 -108.56717 -55.297303 -110.97583 -56.317646 -112.50634 C -57.337989 -114.09354 -58.727059 -114.88759 -60.484317 -114.88759 C -62.581689 -114.88759 -64.168754 -114.15071 -65.245783 -112.67688 C -66.266126 -111.20305 -66.776439 -109.41747 -66.776439 -107.3201 C -66.776439 -105.44947 -66.379414 -103.77718 -65.585814 -102.30335 C -67.173015 -100.60278 -69.213749 -99.752084 -71.707921 -99.752084 C -73.97535 -99.752084 -75.732348 -100.43233 -76.979434 -101.79279 C -78.22652 -103.15324 -78.850121 -104.91076 -78.850121 -107.06482 C -78.850121 -109.8991 -77.886656 -112.25164 -75.959341 -114.12227 C -73.97534 -116.04958 -71.537582 -117.46671 -68.646609 -118.37369 C -65.698951 -119.28066 -62.80804 -119.73381 -59.973754 -119.73381 z M -139.39061 -119.05375 L -135.13919 -118.969 C -129.1305 -118.85563 -125.95637 -118.79847 -125.61626 -118.79847 L -113.54206 -118.969 L -111.07606 -117.18306 L -111.84139 -110.72092 L -132.92847 -110.72092 L -134.1191 -96.521273 C -131.17144 -97.258188 -128.50711 -97.626632 -126.1263 -97.626632 C -120.51442 -97.626632 -115.95122 -96.124274 -112.4367 -93.11993 C -108.8655 -90.172272 -107.07992 -85.836165 -107.07992 -80.110905 C -107.07992 -76.539704 -107.9301 -73.336993 -109.63067 -70.502706 C -111.27456 -67.66842 -113.65567 -65.429173 -116.77339 -63.785287 C -119.8911 -62.198086 -123.57555 -61.404554 -127.82698 -61.404554 C -131.28481 -61.404554 -134.43087 -61.886286 -137.26516 -62.849943 C -140.04276 -63.813601 -142.22485 -65.14551 -143.81205 -66.846082 C -145.39925 -68.60334 -146.1933 -70.559366 -146.1933 -72.713424 C -146.1933 -74.980853 -145.5697 -76.709787 -144.32261 -77.900188 C -143.07552 -79.147274 -141.54459 -79.770358 -139.73064 -79.770358 C -138.7103 -79.770358 -137.69019 -79.572362 -136.66985 -79.175562 C -135.59282 -78.778762 -134.62935 -78.211805 -133.77907 -77.474891 C -134.28924 -76.28449 -134.54388 -75.037289 -134.54388 -73.733517 C -134.54388 -71.862888 -134.0055 -70.332466 -132.92847 -69.142066 C -131.79476 -67.951665 -130.09441 -67.356645 -127.82698 -67.356645 C -122.72526 -67.356645 -120.17421 -71.608045 -120.17421 -80.110905 C -120.17421 -84.135593 -120.96775 -87.054567 -122.55495 -88.86851 C -124.14215 -90.73914 -126.26811 -91.674541 -128.93234 -91.674541 C -130.57622 -91.674541 -132.33322 -91.36274 -134.20385 -90.739197 C -136.07448 -90.115654 -137.9167 -89.236897 -139.73064 -88.103182 L -144.40736 -92.609884 L -142.19664 -116.75776 L -139.39061 -119.05375 z M -13.973461 -113.78224 C -16.24089 -113.78224 -18.026468 -113.04535 -19.33024 -111.57152 C -20.634011 -110.15437 -21.286193 -108.22693 -21.286193 -105.78944 C -21.286193 -103.63538 -20.464079 -101.84981 -18.820193 -100.43266 C -17.119621 -99.072205 -14.653799 -97.711715 -11.422712 -96.351258 C -10.005569 -97.314915 -8.8716551 -98.646824 -8.0213691 -100.3474 C -7.1710831 -102.04797 -6.7459948 -103.86213 -6.7459948 -105.78944 C -6.7459948 -108.22693 -7.4262394 -110.15437 -8.7866971 -111.57152 C -10.090469 -113.04535 -11.819403 -113.78224 -13.973461 -113.78224 z M -91.689647 -101.28274 C -89.705646 -101.28274 -88.231869 -100.68772 -87.268212 -99.497319 C -86.247868 -98.363604 -85.737556 -96.776539 -85.737556 -94.735852 C -85.737556 -92.695166 -86.247868 -91.107584 -87.268212 -89.973869 C -88.231869 -88.840154 -89.705646 -88.273198 -91.689647 -88.273198 C -93.673648 -88.273198 -95.176006 -88.840154 -96.196349 -89.973869 C -97.160006 -91.16427 -97.641739 -92.751852 -97.641739 -94.735852 C -97.641739 -96.833225 -97.160006 -98.448354 -96.196349 -99.582068 C -95.176006 -100.71578 -93.673648 -101.28274 -91.689647 -101.28274 z M -17.459553 -89.038526 C -19.160125 -87.678068 -20.407326 -86.119583 -21.200926 -84.362325 C -21.994527 -82.605068 -22.391551 -80.50769 -22.391551 -78.070203 C -22.391551 -74.725745 -21.569438 -72.089474 -19.925552 -70.162159 C -18.281666 -68.291529 -16.042419 -67.356645 -13.208133 -67.356645 C -10.430532 -67.356645 -8.2765096 -68.291529 -6.7459948 -70.162159 C -5.1587942 -72.032788 -4.3652615 -74.640479 -4.3652615 -77.984937 C -4.3652615 -79.855566 -4.9602818 -81.442631 -6.1506823 -82.746403 C -7.284397 -84.106861 -8.7301107 -85.212194 -10.487368 -86.06248 C -12.244626 -86.969452 -14.56858 -87.961497 -17.459553 -89.038526 z M -91.689647 -74.498845 C -89.705646 -74.498845 -88.231869 -73.903824 -87.268212 -72.713424 C -86.247868 -71.579709 -85.737556 -69.992127 -85.737556 -67.951441 C -85.737556 -65.910754 -86.247868 -64.323689 -87.268212 -63.189974 C -88.231869 -62.05626 -89.705646 -61.489303 -91.689647 -61.489303 C -93.673648 -61.489303 -95.176006 -62.05626 -96.196349 -63.189974 C -97.160006 -64.380375 -97.641739 -65.96744 -97.641739 -67.951441 C -97.641739 -70.048813 -97.160006 -71.664459 -96.196349 -72.798173 C -95.176006 -73.931888 -93.673648 -74.498845 -91.689647 -74.498845 z " /></g></svg>
