<?xml version="1.0" encoding="UTF-8" standalone="no"?>
<!-- Created with Inkscape (http://www.inkscape.org/) -->

<svg
   width="172.6701mm"
   height="172.6701mm"
   viewBox="0 0 172.6701 172.6701"
   version="1.1"
   id="svg1"
   xml:space="preserve"
   xmlns="http://www.w3.org/2000/svg"
   xmlns:svg="http://www.w3.org/2000/svg"><defs
     id="defs1" /><g
     id="layer1"
     transform="translate(157.25102,198.81012)"><path
       id="path5"
       style="fill:#ffffff;fill-opacity:1;stroke-width:0.805188;stroke-linecap:round;stroke-linejoin:round"
       d="M -2.0863309 -198.17657 L -10.088943 -183.11289 L -10.930235 -165.68398 L -19.198981 -165.68398 L -11.423229 -155.47426 L -12.166336 -140.07934 C -28.353216 -157.12094 -50.823548 -166.77435 -74.327399 -166.78417 C -103.64471 -166.77397 -130.92652 -151.79225 -146.66717 -127.05894 L -157.25102 -127.05894 L -149.61996 -115.86014 L -157.25102 -26.140039 L -8.5138455 -26.140039 L 15.419061 -26.140039 L 8.0799737 -154.80195 L 15.419061 -165.68398 L 7.4593397 -165.68398 L 6.4490654 -183.39297 L -2.0863309 -198.17657 z M -83.43072 -192.21621 C -85.584619 -189.65499 -86.77489 -186.4211 -86.795372 -183.07465 C -86.842092 -175.15518 -80.459903 -168.69733 -72.540428 -168.65072 C -64.621155 -168.60402 -58.163395 -174.98588 -58.116503 -182.90515 C -58.102813 -186.26049 -59.266203 -189.5144 -61.404157 -192.10045 C -60.83125 -190.6836 -60.536835 -189.16959 -60.537027 -187.64129 C -60.575787 -181.07411 -65.930869 -175.78172 -72.498054 -175.82031 C -79.065241 -175.85911 -84.357627 -181.21415 -84.319038 -187.78134 C -84.309338 -189.30285 -84.007827 -190.80837 -83.43072 -192.21621 z M -113.88209 -119.90383 L -111.84139 -115.65241 C -123.29191 -110.72075 -130.17958 -103.12528 -132.50369 -92.865166 C -129.21592 -94.452366 -126.09792 -95.245899 -123.15026 -95.245899 C -117.48169 -95.245899 -113.03177 -93.715477 -109.80069 -90.654448 C -106.51291 -87.593418 -104.8692 -83.455306 -104.8692 -78.240218 C -104.8692 -75.009132 -105.74796 -72.118221 -107.50522 -69.567363 C -109.20579 -67.016505 -111.61497 -65.032415 -114.73269 -63.615271 C -117.79371 -62.198128 -121.30823 -61.489303 -125.27623 -61.489303 C -132.02183 -61.489303 -137.20863 -63.360105 -140.83652 -67.101363 C -144.40772 -70.842622 -146.1933 -76.255999 -146.1933 -83.341716 C -146.1933 -92.241376 -143.44374 -99.808775 -137.94522 -106.04421 C -132.39002 -112.33632 -124.36895 -116.95617 -113.88209 -119.90383 z M -69.582469 -119.05375 L -65.331049 -118.969 C -59.322361 -118.85563 -56.147714 -118.79847 -55.8076 -118.79847 L -43.733401 -118.969 L -41.267919 -117.18306 L -42.033247 -110.72092 L -63.120332 -110.72092 L -64.31044 -96.521273 C -61.362782 -97.258188 -58.698447 -97.626632 -56.317646 -97.626632 C -50.705758 -97.626632 -46.142558 -96.124274 -42.628042 -93.11993 C -39.056841 -90.172272 -37.271263 -85.836165 -37.271263 -80.110905 C -37.271263 -76.539704 -38.12144 -73.336993 -39.822012 -70.502706 C -41.465898 -67.66842 -43.847013 -65.429173 -46.964728 -63.785287 C -50.082444 -62.198086 -53.766887 -61.404554 -58.018317 -61.404554 C -61.476147 -61.404554 -64.622214 -61.886286 -67.456501 -62.849943 C -70.234102 -63.813601 -72.416704 -65.14551 -74.003905 -66.846082 C -75.591106 -68.60334 -76.384638 -70.559366 -76.384638 -72.713424 C -76.384638 -74.980853 -75.761037 -76.709787 -74.513951 -77.900188 C -73.266865 -79.147274 -71.736444 -79.770358 -69.9225 -79.770358 C -68.902157 -79.770358 -67.881532 -79.572362 -66.861188 -79.175562 C -65.784159 -78.778762 -64.820695 -78.211805 -63.970409 -77.474891 C -64.48058 -76.28449 -64.735737 -75.037289 -64.735737 -73.733517 C -64.735737 -71.862888 -64.19736 -70.332466 -63.120332 -69.142066 C -61.986617 -67.951665 -60.285747 -67.356645 -58.018317 -67.356645 C -52.916601 -67.356645 -50.365555 -71.608045 -50.365555 -80.110905 C -50.365555 -84.135593 -51.159604 -87.054567 -52.746805 -88.86851 C -54.334005 -90.73914 -56.459447 -91.674541 -59.123676 -91.674541 C -60.767563 -91.674541 -62.525077 -91.36274 -64.395706 -90.739197 C -66.266335 -90.115654 -68.108557 -89.236897 -69.9225 -88.103182 L -74.598701 -92.609884 L -72.387983 -116.75776 L -69.582469 -119.05375 z M -25.367597 -119.05375 L -21.116177 -118.969 C -15.107489 -118.85563 -11.932842 -118.79847 -11.592727 -118.79847 L 0.48147105 -118.969 L 2.9469536 -117.18306 L 2.1821424 -110.72092 L -18.904943 -110.72092 L -20.095568 -96.521273 C -17.147909 -97.258188 -14.483575 -97.626632 -12.102774 -97.626632 C -6.490886 -97.626632 -1.9276856 -96.124274 1.5868299 -93.11993 C 5.1580312 -90.172272 6.9436089 -85.836165 6.9436089 -80.110905 C 6.9436089 -76.539704 6.0934323 -73.336993 4.3928602 -70.502706 C 2.7489739 -67.66842 0.36785917 -65.429173 -2.7498563 -63.785287 C -5.8675717 -62.198086 -9.552015 -61.404554 -13.803445 -61.404554 C -17.261275 -61.404554 -20.407342 -61.886286 -23.241629 -62.849943 C -26.01923 -63.813601 -28.201832 -65.14551 -29.789033 -66.846082 C -31.376233 -68.60334 -32.169766 -70.559366 -32.169766 -72.713424 C -32.169766 -74.980853 -31.546165 -76.709787 -30.299079 -77.900188 C -29.051993 -79.147274 -27.521572 -79.770358 -25.707628 -79.770358 C -24.687285 -79.770358 -23.666659 -79.572362 -22.646316 -79.175562 C -21.569287 -78.778762 -20.605823 -78.211805 -19.755537 -77.474891 C -20.265708 -76.28449 -20.520865 -75.037289 -20.520865 -73.733517 C -20.520865 -71.862888 -19.981971 -70.332466 -18.904943 -69.142066 C -17.771228 -67.951665 -16.070875 -67.356645 -13.803445 -67.356645 C -8.701729 -67.356645 -6.1506823 -71.608045 -6.1506823 -80.110905 C -6.1506823 -84.135593 -6.9447317 -87.054567 -8.5319323 -88.86851 C -10.119133 -90.73914 -12.244574 -91.674541 -14.908804 -91.674541 C -16.55269 -91.674541 -18.310204 -91.36274 -20.180834 -90.739197 C -22.051463 -90.115654 -23.893685 -89.236897 -25.707628 -88.103182 L -30.383828 -92.609884 L -28.173111 -116.75776 L -25.367597 -119.05375 z M -89.904226 -101.28274 C -87.920226 -101.28274 -86.446448 -100.68772 -85.482791 -99.497319 C -84.462448 -98.363604 -83.952135 -96.776539 -83.952135 -94.735852 C -83.952135 -92.695166 -84.462448 -91.107584 -85.482791 -89.973869 C -86.446448 -88.840154 -87.920226 -88.273198 -89.904226 -88.273198 C -91.888227 -88.273198 -93.390585 -88.840154 -94.410928 -89.973869 C -95.374586 -91.16427 -95.856318 -92.751852 -95.856318 -94.735852 C -95.856318 -96.833225 -95.374586 -98.448354 -94.410928 -99.582068 C -93.390585 -100.71578 -91.888227 -101.28274 -89.904226 -101.28274 z M -125.53099 -89.293807 C -127.91179 -89.293807 -130.4909 -88.330343 -133.2685 -86.403028 L -133.2685 -85.297669 C -133.2685 -79.118924 -132.58878 -74.583787 -131.22832 -71.692814 C -129.86786 -68.801842 -127.71332 -67.356645 -124.76566 -67.356645 C -122.32818 -67.356645 -120.45789 -68.291529 -119.15412 -70.162159 C -117.85035 -72.032788 -117.19817 -74.697123 -117.19817 -78.154952 C -117.19817 -81.669468 -117.93506 -84.390447 -119.40889 -86.317762 C -120.82603 -88.301762 -122.86676 -89.293807 -125.53099 -89.293807 z M -89.904226 -74.498845 C -87.920226 -74.498845 -86.446448 -73.903824 -85.482791 -72.713424 C -84.462448 -71.579709 -83.952135 -69.992127 -83.952135 -67.951441 C -83.952135 -65.910754 -84.462448 -64.323689 -85.482791 -63.189974 C -86.446448 -62.05626 -87.920226 -61.489303 -89.904226 -61.489303 C -91.888227 -61.489303 -93.390585 -62.05626 -94.410928 -63.189974 C -95.374586 -64.380375 -95.856318 -65.96744 -95.856318 -67.951441 C -95.856318 -70.048813 -95.374586 -71.664459 -94.410928 -72.798173 C -93.390585 -73.931888 -91.888227 -74.498845 -89.904226 -74.498845 z " /></g></svg>
