<?xml version="1.0" encoding="UTF-8" standalone="no"?>
<!-- Created with Inkscape (http://www.inkscape.org/) -->

<svg
   width="172.6701mm"
   height="172.6701mm"
   viewBox="0 0 172.6701 172.6701"
   version="1.1"
   id="svg1"
   xml:space="preserve"
   xmlns="http://www.w3.org/2000/svg"
   xmlns:svg="http://www.w3.org/2000/svg"><defs
     id="defs1" /><g
     id="layer1"
     transform="translate(157.25102,198.81012)"><path
       id="path5"
       style="fill:#ffffff;fill-opacity:1;stroke-width:0.805188;stroke-linecap:round;stroke-linejoin:round"
       d="M -2.0863309 -198.17657 L -10.088943 -183.11289 L -10.930235 -165.68398 L -19.198981 -165.68398 L -11.423229 -155.47426 L -12.166336 -140.07934 C -28.353216 -157.12094 -50.823548 -166.77435 -74.327399 -166.78417 C -103.64471 -166.77397 -130.92652 -151.79225 -146.66717 -127.05894 L -157.25102 -127.05894 L -149.61996 -115.86014 L -157.25102 -26.140039 L -8.5138455 -26.140039 L 15.419061 -26.140039 L 8.0799737 -154.80195 L 15.419061 -165.68398 L 7.4593397 -165.68398 L 6.4490654 -183.39297 L -2.0863309 -198.17657 z M -83.43072 -192.21621 C -85.584619 -189.65499 -86.77489 -186.4211 -86.795372 -183.07465 C -86.842092 -175.15518 -80.459903 -168.69733 -72.540428 -168.65072 C -64.621155 -168.60402 -58.163395 -174.98588 -58.116503 -182.90515 C -58.102813 -186.26049 -59.266203 -189.5144 -61.404157 -192.10045 C -60.83125 -190.6836 -60.536835 -189.16959 -60.537027 -187.64129 C -60.575787 -181.07411 -65.930869 -175.78172 -72.498054 -175.82031 C -79.065241 -175.85911 -84.357627 -181.21415 -84.319038 -187.78134 C -84.309338 -189.30285 -84.007827 -190.80837 -83.43072 -192.21621 z M -13.42104 -119.81908 C -7.4690373 -119.81908 -2.7353883 -118.54381 0.7791273 -115.99295 C 4.2936429 -113.44209 6.0506402 -110.01229 6.0506402 -105.70418 C 6.0506402 -103.38006 5.2004635 -101.05611 3.4998915 -98.731991 C 1.7993194 -96.407876 -0.43992696 -94.50901 -3.217528 -93.035181 C 0.2969876 -91.334609 3.0465467 -89.350519 5.0305474 -87.08309 C 7.0712338 -84.81566 8.0913425 -81.896169 8.0913425 -78.324968 C 8.0913425 -73.166566 6.2210572 -69.057034 2.4797987 -65.996005 C -1.2614598 -62.991661 -6.3069092 -61.489303 -12.655712 -61.489303 C -19.628057 -61.489303 -25.012854 -62.878373 -28.810798 -65.655974 C -32.552056 -68.433575 -34.422858 -72.401238 -34.422858 -77.55964 C -34.422858 -80.223869 -33.572682 -82.86014 -31.87211 -85.467684 C -30.171538 -88.131914 -27.790423 -90.483931 -24.729393 -92.524618 C -27.280251 -93.941761 -29.264341 -95.642631 -30.681485 -97.626632 C -32.098628 -99.610633 -32.807453 -102.07646 -32.807453 -105.02411 C -32.807453 -109.55897 -31.049939 -113.15871 -27.535423 -115.82294 C -24.020908 -118.48717 -19.316356 -119.81908 -13.42104 -119.81908 z M -128.54941 -119.73381 C -124.86484 -119.73381 -121.60548 -119.11073 -118.7712 -117.86364 C -115.93691 -116.67324 -113.72625 -114.97237 -112.13904 -112.76163 C -110.55184 -110.60757 -109.75831 -108.11368 -109.75831 -105.27939 C -109.75831 -102.10499 -110.69371 -99.384015 -112.56434 -97.116586 C -114.43497 -94.849156 -117.21259 -93.120223 -120.89717 -91.929822 C -116.24894 -90.909479 -112.98958 -89.237189 -111.11895 -86.913074 C -109.24832 -84.588959 -108.31292 -81.442892 -108.31292 -77.474891 C -108.31292 -74.017061 -109.36161 -71.069506 -111.45898 -68.632019 C -113.49967 -66.194533 -116.164 -64.380375 -119.45178 -63.189974 C -122.73955 -61.999574 -126.14026 -61.404554 -129.65477 -61.404554 C -134.75649 -61.404554 -139.09311 -62.453243 -142.66431 -64.550615 C -146.17883 -66.647987 -147.93634 -69.510317 -147.93634 -73.138204 C -147.93634 -75.235577 -147.31274 -76.851222 -146.06566 -77.984937 C -144.81857 -79.175337 -143.25957 -79.770358 -141.38894 -79.770358 C -139.46162 -79.770358 -137.50611 -79.005405 -135.52211 -77.474891 C -136.03229 -76.397862 -136.28744 -75.094016 -136.28744 -73.563501 C -136.28744 -71.749558 -135.74855 -70.275781 -134.67152 -69.142066 C -133.5378 -68.008351 -131.86552 -67.441394 -129.65477 -67.441394 C -124.7798 -67.441394 -122.34256 -70.814037 -122.34256 -77.55964 C -122.34256 -81.244213 -123.53311 -84.10706 -125.91391 -86.147746 C -128.23803 -88.188433 -131.55403 -89.208541 -135.86214 -89.208541 L -135.86214 -94.480571 C -127.52934 -95.1608 -123.36265 -98.760535 -123.36265 -105.27939 C -123.36265 -108.56717 -123.87296 -110.97583 -124.89331 -112.50634 C -125.91365 -114.09354 -127.30272 -114.88759 -129.05998 -114.88759 C -131.15735 -114.88759 -132.74441 -114.15071 -133.82144 -112.67688 C -134.84179 -111.20305 -135.3521 -109.41747 -135.3521 -107.3201 C -135.3521 -105.44947 -134.95507 -103.77718 -134.16147 -102.30335 C -135.74867 -100.60278 -137.78941 -99.752084 -140.28358 -99.752084 C -142.55101 -99.752084 -144.30801 -100.43233 -145.55509 -101.79279 C -146.80218 -103.15324 -147.42578 -104.91076 -147.42578 -107.06482 C -147.42578 -109.8991 -146.46232 -112.25164 -144.535 -114.12227 C -142.551 -116.04958 -140.11376 -117.46671 -137.22279 -118.37369 C -134.27513 -119.28066 -131.3837 -119.73381 -128.54941 -119.73381 z M -59.421333 -119.64906 C -52.789101 -119.64906 -47.715588 -117.15466 -44.201073 -112.16631 C -40.629872 -107.23465 -38.844294 -100.06428 -38.844294 -90.654448 C -38.844294 -81.244616 -40.629872 -74.017081 -44.201073 -68.97205 C -47.715588 -63.983706 -52.789101 -61.489303 -59.421333 -61.489303 C -66.053564 -61.489303 -71.15514 -63.983706 -74.726341 -68.97205 C -78.297543 -74.017081 -80.08312 -81.244616 -80.08312 -90.654448 C -80.08312 -100.00759 -78.297543 -107.17797 -74.726341 -112.16631 C -71.15514 -117.15466 -66.053564 -119.64906 -59.421333 -119.64906 z M -59.421333 -115.31237 C -62.312305 -115.31237 -64.409683 -113.41351 -65.713455 -109.61556 C -66.960541 -105.81762 -67.584142 -99.497422 -67.584142 -90.654448 C -67.584142 -81.868159 -66.960541 -75.576025 -65.713455 -71.778081 C -64.409683 -68.036822 -62.312305 -66.16602 -59.421333 -66.16602 C -56.53036 -66.16602 -54.461562 -68.036822 -53.214476 -71.778081 C -51.910704 -75.576025 -51.258523 -81.868159 -51.258523 -90.654448 C -51.258523 -99.440737 -51.910704 -105.73287 -53.214476 -109.53081 C -54.461562 -113.38544 -56.53036 -115.31237 -59.421333 -115.31237 z M -13.42104 -113.78224 C -15.688469 -113.78224 -17.474047 -113.04535 -18.777819 -111.57152 C -20.08159 -110.15437 -20.733255 -108.22693 -20.733255 -105.78944 C -20.733255 -103.63538 -19.911142 -101.84981 -18.267255 -100.43266 C -16.566683 -99.072205 -14.100861 -97.711715 -10.869774 -96.351258 C -9.4526307 -97.314915 -8.3192341 -98.646824 -7.4689481 -100.3474 C -6.618662 -102.04797 -6.1935737 -103.86213 -6.1935737 -105.78944 C -6.1935737 -108.22693 -6.8738184 -110.15437 -8.234276 -111.57152 C -9.5380479 -113.04535 -11.266982 -113.78224 -13.42104 -113.78224 z M -93.262678 -101.28274 C -91.278677 -101.28274 -89.8049 -100.68772 -88.841242 -99.497319 C -87.820899 -98.363604 -87.310586 -96.776539 -87.310586 -94.735852 C -87.310586 -92.695166 -87.820899 -91.107584 -88.841242 -89.973869 C -89.8049 -88.840154 -91.278677 -88.273198 -93.262678 -88.273198 C -95.246678 -88.273198 -96.749036 -88.840154 -97.769379 -89.973869 C -98.733037 -91.16427 -99.214769 -92.751852 -99.214769 -94.735852 C -99.214769 -96.833225 -98.733037 -98.448354 -97.769379 -99.582068 C -96.749036 -100.71578 -95.246678 -101.28274 -93.262678 -101.28274 z M -16.907132 -89.038526 C -18.607704 -87.678068 -19.854388 -86.119583 -20.647989 -84.362325 C -21.441589 -82.605068 -21.838614 -80.50769 -21.838614 -78.070203 C -21.838614 -74.725745 -21.016501 -72.089474 -19.372614 -70.162159 C -17.728728 -68.291529 -15.489998 -67.356645 -12.655712 -67.356645 C -9.8781106 -67.356645 -7.7240886 -68.291529 -6.1935737 -70.162159 C -4.6063731 -72.032788 -3.8123237 -74.640479 -3.8123237 -77.984937 C -3.8123237 -79.855566 -4.4078608 -81.442631 -5.5982612 -82.746403 C -6.7319759 -84.106861 -8.1771729 -85.212194 -9.9344306 -86.06248 C -11.691688 -86.969452 -14.016159 -87.961497 -16.907132 -89.038526 z M -93.262678 -74.498845 C -91.278677 -74.498845 -89.8049 -73.903824 -88.841242 -72.713424 C -87.820899 -71.579709 -87.310586 -69.992127 -87.310586 -67.951441 C -87.310586 -65.910754 -87.820899 -64.323689 -88.841242 -63.189974 C -89.8049 -62.05626 -91.278677 -61.489303 -93.262678 -61.489303 C -95.246678 -61.489303 -96.749036 -62.05626 -97.769379 -63.189974 C -98.733037 -64.380375 -99.214769 -65.96744 -99.214769 -67.951441 C -99.214769 -70.048813 -98.733037 -71.664459 -97.769379 -72.798173 C -96.749036 -73.931888 -95.246678 -74.498845 -93.262678 -74.498845 z " /></g></svg>
