<?xml version="1.0" encoding="UTF-8" standalone="no"?>
<!-- Created with Inkscape (http://www.inkscape.org/) -->

<svg
   width="172.6701mm"
   height="172.6701mm"
   viewBox="0 0 172.6701 172.6701"
   version="1.1"
   id="svg1"
   xml:space="preserve"
   xmlns="http://www.w3.org/2000/svg"
   xmlns:svg="http://www.w3.org/2000/svg"><defs
     id="defs1" /><g
     id="layer1"
     transform="translate(157.25102,198.81012)"><path
       id="path5"
       style="fill:#ffffff;fill-opacity:1;stroke-width:0.805188;stroke-linecap:round;stroke-linejoin:round"
       d="M -2.0863309 -198.17657 L -10.088943 -183.11289 L -10.930235 -165.68398 L -19.198981 -165.68398 L -11.423229 -155.47426 L -12.166336 -140.07934 C -28.353216 -157.12094 -50.823548 -166.77435 -74.327399 -166.78417 C -103.64471 -166.77397 -130.92652 -151.79225 -146.66717 -127.05894 L -157.25102 -127.05894 L -149.61996 -115.86014 L -157.25102 -26.140039 L -8.5138455 -26.140039 L 15.419061 -26.140039 L 8.0799737 -154.80195 L 15.419061 -165.68398 L 7.4593397 -165.68398 L 6.4490654 -183.39297 L -2.0863309 -198.17657 z M -83.43072 -192.21621 C -85.584619 -189.65499 -86.77489 -186.4211 -86.795372 -183.07465 C -86.842092 -175.15518 -80.459903 -168.69733 -72.540428 -168.65072 C -64.621155 -168.60402 -58.163395 -174.98588 -58.116503 -182.90515 C -58.102813 -186.26049 -59.266203 -189.5144 -61.404157 -192.10045 C -60.83125 -190.6836 -60.536835 -189.16959 -60.537027 -187.64129 C -60.575787 -181.07411 -65.930869 -175.78172 -72.498054 -175.82031 C -79.065241 -175.85911 -84.357627 -181.21415 -84.319038 -187.78134 C -84.309338 -189.30285 -84.007827 -190.80837 -83.43072 -192.21621 z M -13.250507 -119.73381 C -7.4118766 -119.73381 -2.7639687 -118.28861 0.69386118 -115.39764 C 4.151691 -112.56335 5.8806247 -108.56711 5.8806247 -103.40871 C 5.8806247 -98.873849 4.151691 -94.026912 0.69386118 -88.86851 C -2.7639687 -83.766794 -8.4605656 -77.616529 -16.396569 -70.41744 L 6.4759372 -70.41744 L 6.4759372 -62.084615 L -32.042125 -62.084615 L -32.042125 -67.016097 C -25.750009 -73.081471 -20.846428 -78.268272 -17.331912 -82.576388 C -13.817396 -86.884504 -11.29493 -90.852684 -9.7644152 -94.480571 C -8.1772146 -98.108458 -7.3836819 -101.84955 -7.3836819 -105.70418 C -7.3836819 -111.82623 -9.424416 -114.88759 -13.505789 -114.88759 C -15.319732 -114.88759 -16.79351 -114.0369 -17.927224 -112.33633 C -19.060939 -110.69244 -19.627896 -108.65171 -19.627896 -106.21422 C -19.627896 -104.51365 -19.032876 -102.89852 -17.842475 -101.36801 C -18.806133 -100.46103 -19.911466 -99.752209 -21.158552 -99.242037 C -22.348952 -98.731866 -23.538993 -98.476709 -24.729393 -98.476709 C -26.77008 -98.476709 -28.47095 -99.10031 -29.831407 -100.3474 C -31.191865 -101.65117 -31.87211 -103.52197 -31.87211 -105.95946 C -31.87211 -108.567 -31.106641 -110.91953 -29.576126 -113.01691 C -28.045611 -115.11428 -25.891589 -116.75799 -23.113988 -117.94839 C -20.279701 -119.13879 -16.991766 -119.73381 -13.250507 -119.73381 z M -125.3186 -119.56379 C -118.573 -119.56379 -113.41478 -117.69351 -109.84358 -113.95225 C -106.21569 -110.21099 -104.40153 -104.7971 -104.40153 -97.711381 C -104.40153 -88.811721 -107.17916 -81.216258 -112.73436 -74.924142 C -118.23287 -68.688711 -126.22536 -64.09693 -136.71222 -61.149272 L -138.75292 -65.400692 C -133.08435 -67.838179 -128.52115 -70.956182 -125.06332 -74.754126 C -121.60549 -78.608756 -119.31012 -83.086732 -118.1764 -88.188448 C -121.3508 -86.601248 -124.43971 -85.807715 -127.44405 -85.807715 C -133.11263 -85.807715 -137.59112 -87.338137 -140.87889 -90.399166 C -144.10998 -93.460196 -145.72563 -97.598308 -145.72563 -102.8134 C -145.72563 -106.04448 -144.87493 -108.93539 -143.17436 -111.48625 C -141.4171 -114.03711 -139.00792 -116.0212 -135.94689 -117.43834 C -132.82918 -118.85549 -129.2866 -119.56379 -125.3186 -119.56379 z M -69.199547 -119.05375 L -64.948127 -118.969 C -58.939439 -118.85563 -55.765308 -118.79847 -55.425194 -118.79847 L -43.350996 -118.969 L -40.884996 -117.18306 L -41.650324 -110.72092 L -62.737409 -110.72092 L -63.928034 -96.521273 C -60.980376 -97.258188 -58.316041 -97.626632 -55.93524 -97.626632 C -50.323353 -97.626632 -45.760152 -96.124274 -42.245637 -93.11993 C -38.674435 -90.172272 -36.888858 -85.836165 -36.888858 -80.110905 C -36.888858 -76.539704 -37.739034 -73.336993 -39.439606 -70.502706 C -41.083493 -67.66842 -43.464091 -65.429173 -46.581806 -63.785287 C -49.699522 -62.198086 -53.384482 -61.404554 -57.635912 -61.404554 C -61.093742 -61.404554 -64.239809 -61.886286 -67.074095 -62.849943 C -69.851696 -63.813601 -72.033782 -65.14551 -73.620983 -66.846082 C -75.208183 -68.60334 -76.001716 -70.559366 -76.001716 -72.713424 C -76.001716 -74.980853 -75.378115 -76.709787 -74.131029 -77.900188 C -72.883943 -79.147274 -71.353521 -79.770358 -69.539578 -79.770358 C -68.519235 -79.770358 -67.499126 -79.572362 -66.478783 -79.175562 C -65.401754 -78.778762 -64.437772 -78.211805 -63.587486 -77.474891 C -64.097658 -76.28449 -64.352814 -75.037289 -64.352814 -73.733517 C -64.352814 -71.862888 -63.814438 -70.332466 -62.737409 -69.142066 C -61.603694 -67.951665 -59.903341 -67.356645 -57.635912 -67.356645 C -52.534196 -67.356645 -49.983149 -71.608045 -49.983149 -80.110905 C -49.983149 -84.135593 -50.776682 -87.054567 -52.363882 -88.86851 C -53.951083 -90.73914 -56.077041 -91.674541 -58.741271 -91.674541 C -60.385157 -91.674541 -62.142154 -91.36274 -64.012784 -90.739197 C -65.883413 -90.115654 -67.725634 -89.236897 -69.539578 -88.103182 L -74.216295 -92.609884 L -72.005577 -116.75776 L -69.199547 -119.05375 z M -125.82865 -113.69697 C -128.26614 -113.69697 -130.13694 -112.76157 -131.44071 -110.89094 C -132.74448 -109.02031 -133.39615 -106.35597 -133.39615 -102.89814 C -133.39615 -99.383629 -132.68784 -96.634587 -131.27069 -94.650586 C -129.79686 -92.723271 -127.72755 -91.759807 -125.06332 -91.759807 C -122.73921 -91.759807 -120.1601 -92.723271 -117.32581 -94.650586 L -117.32581 -95.755945 C -117.32581 -101.93469 -118.00605 -106.46931 -119.36651 -109.36028 C -120.72697 -112.25126 -122.88099 -113.69697 -125.82865 -113.69697 z M -89.521304 -101.28274 C -87.537303 -101.28274 -86.063526 -100.68772 -85.099868 -99.497319 C -84.079525 -98.363604 -83.569729 -96.776539 -83.569729 -94.735852 C -83.569729 -92.695166 -84.079525 -91.107584 -85.099868 -89.973869 C -86.063526 -88.840154 -87.537303 -88.273198 -89.521304 -88.273198 C -91.505305 -88.273198 -93.007662 -88.840154 -94.028006 -89.973869 C -94.991663 -91.16427 -95.473395 -92.751852 -95.473395 -94.735852 C -95.473395 -96.833225 -94.991663 -98.448354 -94.028006 -99.582068 C -93.007662 -100.71578 -91.505305 -101.28274 -89.521304 -101.28274 z M -89.521304 -74.498845 C -87.537303 -74.498845 -86.063526 -73.903824 -85.099868 -72.713424 C -84.079525 -71.579709 -83.569729 -69.992127 -83.569729 -67.951441 C -83.569729 -65.910754 -84.079525 -64.323689 -85.099868 -63.189974 C -86.063526 -62.05626 -87.537303 -61.489303 -89.521304 -61.489303 C -91.505305 -61.489303 -93.007662 -62.05626 -94.028006 -63.189974 C -94.991663 -64.380375 -95.473395 -65.96744 -95.473395 -67.951441 C -95.473395 -70.048813 -94.991663 -71.664459 -94.028006 -72.798173 C -93.007662 -73.931888 -91.505305 -74.498845 -89.521304 -74.498845 z " /></g></svg>
