<?xml version="1.0" encoding="UTF-8" standalone="no"?>
<!-- Created with Inkscape (http://www.inkscape.org/) -->

<svg
   width="172.6701mm"
   height="172.6701mm"
   viewBox="0 0 172.6701 172.6701"
   version="1.1"
   id="svg1"
   xml:space="preserve"
   xmlns="http://www.w3.org/2000/svg"
   xmlns:svg="http://www.w3.org/2000/svg"><defs
     id="defs1" /><g
     id="layer1"
     transform="translate(157.25102,198.81012)"><path
       id="path5"
       style="fill:#ffffff;fill-opacity:1;stroke-width:0.805188;stroke-linecap:round;stroke-linejoin:round"
       d="M -2.0863309 -198.17657 L -10.088943 -183.11289 L -10.930235 -165.68398 L -19.198981 -165.68398 L -11.423229 -155.47426 L -12.166336 -140.07934 C -28.353216 -157.12094 -50.823548 -166.77435 -74.327399 -166.78417 C -103.64471 -166.77397 -130.92652 -151.79225 -146.66717 -127.05894 L -157.25102 -127.05894 L -149.61996 -115.86014 L -157.25102 -26.140039 L -8.5138455 -26.140039 L 15.419061 -26.140039 L 8.0799737 -154.80195 L 15.419061 -165.68398 L 7.4593397 -165.68398 L 6.4490654 -183.39297 L -2.0863309 -198.17657 z M -83.43072 -192.21621 C -85.584619 -189.65499 -86.77489 -186.4211 -86.795372 -183.07465 C -86.842092 -175.15518 -80.459903 -168.69733 -72.540428 -168.65072 C -64.621155 -168.60402 -58.163395 -174.98588 -58.116503 -182.90515 C -58.102813 -186.26049 -59.266203 -189.5144 -61.404157 -192.10045 C -60.83125 -190.6836 -60.536835 -189.16959 -60.537027 -187.64129 C -60.575787 -181.07411 -65.930869 -175.78172 -72.498054 -175.82031 C -79.065241 -175.85911 -84.357627 -181.21415 -84.319038 -187.78134 C -84.309338 -189.30285 -84.007827 -190.80837 -83.43072 -192.21621 z M -17.587194 -119.73381 C -11.748563 -119.73381 -7.1001381 -118.28861 -3.6423082 -115.39764 C -0.18447841 -112.56335 1.5439385 -108.56711 1.5439385 -103.40871 C 1.5439385 -98.873849 -0.18447841 -94.026912 -3.6423082 -88.86851 C -7.1001381 -83.766794 -12.797252 -77.616529 -20.733255 -70.41744 L 2.139251 -70.41744 L 2.139251 -62.084615 L -36.378811 -62.084615 L -36.378811 -67.016097 C -30.086695 -73.081471 -25.183114 -78.268272 -21.668598 -82.576388 C -18.154083 -86.884504 -15.631616 -90.852684 -14.101101 -94.480571 C -12.513901 -98.108458 -11.720368 -101.84955 -11.720368 -105.70418 C -11.720368 -111.82623 -13.761102 -114.88759 -17.842475 -114.88759 C -19.656419 -114.88759 -21.130196 -114.0369 -22.263911 -112.33633 C -23.397625 -110.69244 -23.964582 -108.65171 -23.964582 -106.21422 C -23.964582 -104.51365 -23.369045 -102.89852 -22.178645 -101.36801 C -23.142302 -100.46103 -24.247635 -99.752209 -25.494721 -99.242037 C -26.685122 -98.731866 -27.875679 -98.476709 -29.066079 -98.476709 C -31.106766 -98.476709 -32.807119 -99.10031 -34.167577 -100.3474 C -35.528034 -101.65117 -36.208279 -103.52197 -36.208279 -105.95946 C -36.208279 -108.567 -35.443327 -110.91953 -33.912812 -113.01691 C -32.382297 -115.11428 -30.228275 -116.75799 -27.450674 -117.94839 C -24.616387 -119.13879 -21.328452 -119.73381 -17.587194 -119.73381 z M -53.979287 -119.13901 L -51.173774 -117.86364 L -51.173774 -68.716769 C -50.096745 -68.093226 -48.395875 -67.526269 -46.07176 -67.016097 C -43.747645 -66.562611 -41.905423 -66.279392 -40.544965 -66.16602 L -40.800247 -62.084615 L -75.491669 -62.084615 L -75.321654 -66.16602 C -70.276624 -66.732877 -66.422248 -67.583054 -63.758019 -68.716769 L -63.758019 -109.44555 L -75.151638 -109.44555 L -75.151638 -114.37703 C -71.523751 -114.66046 -67.782664 -115.19935 -63.928034 -115.99295 C -60.073404 -116.84324 -56.756888 -117.89193 -53.979287 -119.13901 z M -140.87889 -118.88373 L -136.71222 -118.88373 C -134.55816 -118.82705 -129.85361 -118.79847 -122.59784 -118.79847 C -115.05864 -118.79847 -110.15505 -118.82705 -107.88762 -118.88373 L -103.80622 -118.88373 L -102.10555 -115.22762 C -103.18258 -113.52705 -105.22331 -109.84261 -108.22766 -104.17404 C -111.232 -98.505463 -114.06627 -92.496548 -116.7305 -86.147746 C -119.39473 -79.798944 -120.72715 -74.838719 -120.72715 -71.267517 C -120.72715 -68.433231 -119.73511 -66.307789 -117.75111 -64.890646 C -119.67842 -62.566531 -122.14424 -61.404554 -125.14859 -61.404554 C -127.92619 -61.404554 -130.08021 -62.169506 -131.61072 -63.700021 C -133.14124 -65.230536 -133.90619 -67.356494 -133.90619 -70.077409 C -133.90619 -73.478553 -133.0846 -77.077772 -131.44071 -80.875717 C -129.79682 -84.730347 -126.84927 -89.945728 -122.59784 -96.521273 L -112.56434 -111.9963 L -131.95076 -111.9963 C -132.74436 -109.44544 -133.22609 -106.44124 -133.39615 -102.98341 C -134.41649 -102.81335 -135.46518 -102.72813 -136.54221 -102.72813 C -137.67592 -102.72813 -138.78125 -102.81335 -139.85828 -102.98341 L -142.23902 -117.60836 L -140.87889 -118.88373 z M -88.585961 -101.28274 C -86.60196 -101.28274 -85.128183 -100.68772 -84.164525 -99.497319 C -83.144182 -98.363604 -82.634386 -96.776539 -82.634386 -94.735852 C -82.634386 -92.695166 -83.144182 -91.107584 -84.164525 -89.973869 C -85.128183 -88.840154 -86.60196 -88.273198 -88.585961 -88.273198 C -90.569961 -88.273198 -92.072319 -88.840154 -93.092662 -89.973869 C -94.05632 -91.16427 -94.538052 -92.751852 -94.538052 -94.735852 C -94.538052 -96.833225 -94.05632 -98.448354 -93.092662 -99.582068 C -92.072319 -100.71578 -90.569961 -101.28274 -88.585961 -101.28274 z M -88.585961 -74.498845 C -86.60196 -74.498845 -85.128183 -73.903824 -84.164525 -72.713424 C -83.144182 -71.579709 -82.634386 -69.992127 -82.634386 -67.951441 C -82.634386 -65.910754 -83.144182 -64.323689 -84.164525 -63.189974 C -85.128183 -62.05626 -86.60196 -61.489303 -88.585961 -61.489303 C -90.569961 -61.489303 -92.072319 -62.05626 -93.092662 -63.189974 C -94.05632 -64.380375 -94.538052 -65.96744 -94.538052 -67.951441 C -94.538052 -70.048813 -94.05632 -71.664459 -93.092662 -72.798173 C -92.072319 -73.931888 -90.569961 -74.498845 -88.585961 -74.498845 z " /></g></svg>
