<?xml version="1.0" encoding="UTF-8" standalone="no"?>
<!-- Created with Inkscape (http://www.inkscape.org/) -->

<svg
   width="172.6701mm"
   height="172.6701mm"
   viewBox="0 0 172.6701 172.6701"
   version="1.1"
   id="svg1"
   xml:space="preserve"
   xmlns="http://www.w3.org/2000/svg"
   xmlns:svg="http://www.w3.org/2000/svg"><defs
     id="defs1" /><g
     id="layer1"
     transform="translate(157.25102,198.81012)"><path
       id="path5"
       style="fill:#ffffff;fill-opacity:1;stroke-width:0.805188;stroke-linecap:round;stroke-linejoin:round"
       d="M -2.0863309 -198.17657 L -10.088943 -183.11289 L -10.930235 -165.68398 L -19.198981 -165.68398 L -11.423229 -155.47426 L -12.166336 -140.07934 C -28.353216 -157.12094 -50.823548 -166.77435 -74.327399 -166.78417 C -103.64471 -166.77397 -130.92652 -151.79225 -146.66717 -127.05894 L -157.25102 -127.05894 L -149.61996 -115.86014 L -157.25102 -26.140039 L -8.5138455 -26.140039 L 15.419061 -26.140039 L 8.0799737 -154.80195 L 15.419061 -165.68398 L 7.4593397 -165.68398 L 6.4490654 -183.39297 L -2.0863309 -198.17657 z M -83.43072 -192.21621 C -85.584619 -189.65499 -86.77489 -186.4211 -86.795372 -183.07465 C -86.842092 -175.15518 -80.459903 -168.69733 -72.540428 -168.65072 C -64.621155 -168.60402 -58.163395 -174.98588 -58.116503 -182.90515 C -58.102813 -186.26049 -59.266203 -189.5144 -61.404157 -192.10045 C -60.83125 -190.6836 -60.536835 -189.16959 -60.537027 -187.64129 C -60.575787 -181.07411 -65.930869 -175.78172 -72.498054 -175.82031 C -79.065241 -175.85911 -84.357627 -181.21415 -84.319038 -187.78134 C -84.309338 -189.30285 -84.007827 -190.80837 -83.43072 -192.21621 z M -1.6016059 -119.90383 L 0.43909637 -115.65241 C -11.011422 -110.72075 -17.899093 -103.12528 -20.223208 -92.865166 C -16.935436 -94.452366 -13.817432 -95.245899 -10.869774 -95.245899 C -5.2012006 -95.245899 -0.75180498 -93.715477 2.4792819 -90.654448 C 5.7670546 -87.593418 7.4112806 -83.455306 7.4112806 -78.240218 C 7.4112806 -75.009132 6.5325236 -72.118221 4.7752658 -69.567363 C 3.0746938 -67.016505 0.66551542 -65.032415 -2.4522 -63.615271 C -5.5132297 -62.198128 -9.027741 -61.489303 -12.995742 -61.489303 C -19.741345 -61.489303 -24.928146 -63.360105 -28.556033 -67.101363 C -32.127234 -70.842622 -33.912812 -76.255999 -33.912812 -83.341716 C -33.912812 -92.241376 -31.163253 -99.808775 -25.664737 -106.04421 C -20.109535 -112.33632 -12.088467 -116.95617 -1.6016059 -119.90383 z M -58.230708 -119.73381 C -52.392077 -119.73381 -47.744169 -118.28861 -44.286339 -115.39764 C -40.828509 -112.56335 -39.099576 -108.56711 -39.099576 -103.40871 C -39.099576 -98.873849 -40.828509 -94.026912 -44.286339 -88.86851 C -47.744169 -83.766794 -53.440766 -77.616529 -61.376769 -70.41744 L -38.504263 -70.41744 L -38.504263 -62.084615 L -77.022325 -62.084615 L -77.022325 -67.016097 C -70.730209 -73.081471 -65.826628 -78.268272 -62.312112 -82.576388 C -58.797597 -86.884504 -56.27513 -90.852684 -54.744615 -94.480571 C -53.157415 -98.108458 -52.363882 -101.84955 -52.363882 -105.70418 C -52.363882 -111.82623 -54.404616 -114.88759 -58.485989 -114.88759 C -60.299933 -114.88759 -61.77371 -114.0369 -62.907425 -112.33633 C -64.041139 -110.69244 -64.608096 -108.65171 -64.608096 -106.21422 C -64.608096 -104.51365 -64.013076 -102.89852 -62.822675 -101.36801 C -63.786333 -100.46103 -64.891666 -99.752209 -66.138752 -99.242037 C -67.329152 -98.731866 -68.519193 -98.476709 -69.709593 -98.476709 C -71.75028 -98.476709 -73.45115 -99.10031 -74.811608 -100.3474 C -76.172065 -101.65117 -76.85231 -103.52197 -76.85231 -105.95946 C -76.85231 -108.567 -76.086841 -110.91953 -74.556326 -113.01691 C -73.025811 -115.11428 -70.871789 -116.75799 -68.094188 -117.94839 C -65.259901 -119.13879 -61.971966 -119.73381 -58.230708 -119.73381 z M -126.08393 -119.56379 C -119.33833 -119.56379 -114.17959 -117.69351 -110.60839 -113.95225 C -106.9805 -110.21099 -105.16686 -104.7971 -105.16686 -97.711381 C -105.16686 -88.811721 -107.94448 -81.216258 -113.49969 -74.924142 C -118.9982 -68.688711 -126.99069 -64.09693 -137.47755 -61.149272 L -139.51825 -65.400692 C -133.84968 -67.838179 -129.28648 -70.956182 -125.82865 -74.754126 C -122.37082 -78.608756 -120.07493 -83.086732 -118.94121 -88.188448 C -122.11561 -86.601248 -125.20504 -85.807715 -128.20938 -85.807715 C -133.87796 -85.807715 -138.35645 -87.338137 -141.64422 -90.399166 C -144.87531 -93.460196 -146.49044 -97.598308 -146.49044 -102.8134 C -146.49044 -106.04448 -145.64026 -108.93539 -143.93969 -111.48625 C -142.18243 -114.03711 -139.77325 -116.0212 -136.71222 -117.43834 C -133.59451 -118.85549 -130.05193 -119.56379 -126.08393 -119.56379 z M -126.59398 -113.69697 C -129.03146 -113.69697 -130.90227 -112.76157 -132.20604 -110.89094 C -133.50981 -109.02031 -134.16147 -106.35597 -134.16147 -102.89814 C -134.16147 -99.383629 -133.45317 -96.634587 -132.03602 -94.650586 C -130.56219 -92.723271 -128.49288 -91.759807 -125.82865 -91.759807 C -123.50453 -91.759807 -120.92542 -92.723271 -118.09114 -94.650586 L -118.09114 -95.755945 C -118.09114 -101.93469 -118.77138 -106.46931 -120.13184 -109.36028 C -121.4923 -112.25126 -123.64632 -113.69697 -126.59398 -113.69697 z M -90.286632 -101.28274 C -88.302631 -101.28274 -86.828854 -100.68772 -85.865196 -99.497319 C -84.844853 -98.363604 -84.334541 -96.776539 -84.334541 -94.735852 C -84.334541 -92.695166 -84.844853 -91.107584 -85.865196 -89.973869 C -86.828854 -88.840154 -88.302631 -88.273198 -90.286632 -88.273198 C -92.270633 -88.273198 -93.77299 -88.840154 -94.793334 -89.973869 C -95.756991 -91.16427 -96.238723 -92.751852 -96.238723 -94.735852 C -96.238723 -96.833225 -95.756991 -98.448354 -94.793334 -99.582068 C -93.77299 -100.71578 -92.270633 -101.28274 -90.286632 -101.28274 z M -13.250507 -89.293807 C -15.631308 -89.293807 -18.210935 -88.330343 -20.988536 -86.403028 L -20.988536 -85.297669 C -20.988536 -79.118924 -20.308292 -74.583787 -18.947834 -71.692814 C -17.587376 -68.801842 -15.433354 -67.356645 -12.485696 -67.356645 C -10.048209 -67.356645 -8.1774075 -68.291529 -6.8736356 -70.162159 C -5.5698637 -72.032788 -4.9181994 -74.697123 -4.9181994 -78.154952 C -4.9181994 -81.669468 -5.655088 -84.390447 -7.1289171 -86.317762 C -8.5460605 -88.301762 -10.586278 -89.293807 -13.250507 -89.293807 z M -90.286632 -74.498845 C -88.302631 -74.498845 -86.828854 -73.903824 -85.865196 -72.713424 C -84.844853 -71.579709 -84.334541 -69.992127 -84.334541 -67.951441 C -84.334541 -65.910754 -84.844853 -64.323689 -85.865196 -63.189974 C -86.828854 -62.05626 -88.302631 -61.489303 -90.286632 -61.489303 C -92.270633 -61.489303 -93.77299 -62.05626 -94.793334 -63.189974 C -95.756991 -64.380375 -96.238723 -65.96744 -96.238723 -67.951441 C -96.238723 -70.048813 -95.756991 -71.664459 -94.793334 -72.798173 C -93.77299 -73.931888 -92.270633 -74.498845 -90.286632 -74.498845 z " /></g></svg>
