<?xml version="1.0" encoding="UTF-8" standalone="no"?>
<!-- Created with Inkscape (http://www.inkscape.org/) -->

<svg
   width="172.6701mm"
   height="172.6701mm"
   viewBox="0 0 172.6701 172.6701"
   version="1.1"
   id="svg1"
   xml:space="preserve"
   xmlns="http://www.w3.org/2000/svg"
   xmlns:svg="http://www.w3.org/2000/svg"><defs
     id="defs1" /><g
     id="layer1"
     transform="translate(157.25102,198.81012)"><path
       id="path5"
       style="fill:#ffffff;fill-opacity:1;stroke-width:0.805188;stroke-linecap:round;stroke-linejoin:round"
       d="M -2.0863309 -198.17657 L -10.088943 -183.11289 L -10.930235 -165.68398 L -19.198981 -165.68398 L -11.423229 -155.47426 L -12.166336 -140.07934 C -28.353216 -157.12094 -50.823548 -166.77435 -74.327399 -166.78417 C -103.64471 -166.77397 -130.92652 -151.79225 -146.66717 -127.05894 L -157.25102 -127.05894 L -149.61996 -115.86014 L -157.25102 -26.140039 L -8.5138455 -26.140039 L 15.419061 -26.140039 L 8.0799737 -154.80195 L 15.419061 -165.68398 L 7.4593397 -165.68398 L 6.4490654 -183.39297 L -2.0863309 -198.17657 z M -83.43072 -192.21621 C -85.584619 -189.65499 -86.77489 -186.4211 -86.795372 -183.07465 C -86.842092 -175.15518 -80.459903 -168.69733 -72.540428 -168.65072 C -64.621155 -168.60402 -58.163395 -174.98588 -58.116503 -182.90515 C -58.102813 -186.26049 -59.266203 -189.5144 -61.404157 -192.10045 C -60.83125 -190.6836 -60.536835 -189.16959 -60.537027 -187.64129 C -60.575787 -181.07411 -65.930869 -175.78172 -72.498054 -175.82031 C -79.065241 -175.85911 -84.357627 -181.21415 -84.319038 -187.78134 C -84.309338 -189.30285 -84.007827 -190.80837 -83.43072 -192.21621 z M -18.947834 -120.07436 C -14.412975 -119.84761 -10.728015 -118.85557 -7.8937283 -117.09831 L -28.130736 -83.767013 L -15.121194 -83.767013 L -14.271117 -97.626632 C -12.457173 -97.626632 -11.153328 -97.995076 -10.359728 -98.731991 C -9.5094417 -99.468905 -8.8577774 -100.71611 -8.4042915 -102.47336 L -3.5575589 -102.47336 L -3.6423082 -83.341716 C -1.4882503 -82.718173 1.2322116 -82.066508 4.5199842 -81.38628 L 4.095204 -77.304875 L -4.0676053 -77.304875 L -4.0676053 -62.084615 L -15.121194 -62.084615 L -15.121194 -77.304875 L -39.694888 -77.304875 L -40.37495 -80.36567 L -18.947834 -120.07436 z M -55.93524 -119.13901 L -53.12921 -117.86364 L -53.12921 -68.716769 C -52.052181 -68.093226 -50.351828 -67.526269 -48.027713 -67.016097 C -45.703598 -66.562611 -43.860859 -66.279392 -42.500402 -66.16602 L -42.755683 -62.084615 L -77.447622 -62.084615 L -77.27709 -66.16602 C -72.23206 -66.732877 -68.377684 -67.583054 -65.713455 -68.716769 L -65.713455 -109.44555 L -77.107075 -109.44555 L -77.107075 -114.37703 C -73.479188 -114.66046 -69.7381 -115.19935 -65.88347 -115.99295 C -62.02884 -116.84324 -58.712841 -117.89193 -55.93524 -119.13901 z M -142.83433 -118.88373 L -138.66817 -118.88373 C -136.51412 -118.82705 -131.80905 -118.79847 -124.55327 -118.79847 C -117.01407 -118.79847 -112.11049 -118.82705 -109.84306 -118.88373 L -105.76217 -118.88373 L -104.0615 -115.22762 C -105.13853 -113.52705 -107.17926 -109.84261 -110.18361 -104.17404 C -113.18795 -98.505463 -116.02222 -92.496548 -118.68645 -86.147746 C -121.35068 -79.798944 -122.68259 -74.838719 -122.68259 -71.267517 C -122.68259 -68.433231 -121.69054 -66.307789 -119.70654 -64.890646 C -121.63386 -62.566531 -124.09968 -61.404554 -127.10402 -61.404554 C -129.88162 -61.404554 -132.03565 -62.169506 -133.56616 -63.700021 C -135.09668 -65.230536 -135.86214 -67.356494 -135.86214 -70.077409 C -135.86214 -73.478553 -135.04003 -77.077772 -133.39615 -80.875717 C -131.75226 -84.730347 -128.8047 -89.945728 -124.55327 -96.521273 L -114.51978 -111.9963 L -133.90619 -111.9963 C -134.69979 -109.44544 -135.18204 -106.44124 -135.3521 -102.98341 C -136.37244 -102.81335 -137.42113 -102.72813 -138.49816 -102.72813 C -139.63187 -102.72813 -140.73721 -102.81335 -141.81424 -102.98341 L -144.19497 -117.60836 L -142.83433 -118.88373 z M -90.541914 -101.28274 C -88.557913 -101.28274 -87.084136 -100.68772 -86.120478 -99.497319 C -85.100135 -98.363604 -84.589822 -96.776539 -84.589822 -94.735852 C -84.589822 -92.695166 -85.100135 -91.107584 -86.120478 -89.973869 C -87.084136 -88.840154 -88.557913 -88.273198 -90.541914 -88.273198 C -92.525914 -88.273198 -94.028272 -88.840154 -95.048615 -89.973869 C -96.012273 -91.16427 -96.494005 -92.751852 -96.494005 -94.735852 C -96.494005 -96.833225 -96.012273 -98.448354 -95.048615 -99.582068 C -94.028272 -100.71578 -92.525914 -101.28274 -90.541914 -101.28274 z M -90.541914 -74.498845 C -88.557913 -74.498845 -87.084136 -73.903824 -86.120478 -72.713424 C -85.100135 -71.579709 -84.589822 -69.992127 -84.589822 -67.951441 C -84.589822 -65.910754 -85.100135 -64.323689 -86.120478 -63.189974 C -87.084136 -62.05626 -88.557913 -61.489303 -90.541914 -61.489303 C -92.525914 -61.489303 -94.028272 -62.05626 -95.048615 -63.189974 C -96.012273 -64.380375 -96.494005 -65.96744 -96.494005 -67.951441 C -96.494005 -70.048813 -96.012273 -71.664459 -95.048615 -72.798173 C -94.028272 -73.931888 -92.525914 -74.498845 -90.541914 -74.498845 z " /></g></svg>
