<?xml version="1.0" encoding="UTF-8" standalone="no"?>
<!-- Created with Inkscape (http://www.inkscape.org/) -->

<svg
   width="172.6701mm"
   height="172.6701mm"
   viewBox="0 0 172.6701 172.6701"
   version="1.1"
   id="svg1"
   xml:space="preserve"
   xmlns="http://www.w3.org/2000/svg"
   xmlns:svg="http://www.w3.org/2000/svg"><defs
     id="defs1" /><g
     id="layer1"
     transform="translate(157.25102,198.81012)"><path
       id="path5"
       style="fill:#ffffff;fill-opacity:1;stroke-width:0.805188;stroke-linecap:round;stroke-linejoin:round"
       d="M -2.0863309 -198.17657 L -10.088943 -183.11289 L -10.930235 -165.68398 L -19.198981 -165.68398 L -11.423229 -155.47426 L -12.166336 -140.07934 C -28.353216 -157.12094 -50.823548 -166.77435 -74.327399 -166.78417 C -103.64471 -166.77397 -130.92652 -151.79225 -146.66717 -127.05894 L -157.25102 -127.05894 L -149.61996 -115.86014 L -157.25102 -26.140039 L -8.5138455 -26.140039 L 15.419061 -26.140039 L 8.0799737 -154.80195 L 15.419061 -165.68398 L 7.4593397 -165.68398 L 6.4490654 -183.39297 L -2.0863309 -198.17657 z M -83.43072 -192.21621 C -85.584619 -189.65499 -86.77489 -186.4211 -86.795372 -183.07465 C -86.842092 -175.15518 -80.459903 -168.69733 -72.540428 -168.65072 C -64.621155 -168.60402 -58.163395 -174.98588 -58.116503 -182.90515 C -58.102813 -186.26049 -59.266203 -189.5144 -61.404157 -192.10045 C -60.83125 -190.6836 -60.536835 -189.16959 -60.537027 -187.64129 C -60.575787 -181.07411 -65.930869 -175.78172 -72.498054 -175.82031 C -79.065241 -175.85911 -84.357627 -181.21415 -84.319038 -187.78134 C -84.309338 -189.30285 -84.007827 -190.80837 -83.43072 -192.21621 z M -112.0114 -119.90383 L -109.9707 -115.65241 C -121.42122 -110.72075 -128.30889 -103.12528 -130.63301 -92.865166 C -127.34523 -94.452366 -124.22723 -95.245899 -121.27957 -95.245899 C -115.611 -95.245899 -111.16109 -93.715477 -107.93 -90.654448 C -104.64223 -87.593418 -102.99852 -83.455306 -102.99852 -78.240218 C -102.99852 -75.009132 -103.87727 -72.118221 -105.63453 -69.567363 C -107.3351 -67.016505 -109.74428 -65.032415 -112.862 -63.615271 C -115.92303 -62.198128 -119.43754 -61.489303 -123.40554 -61.489303 C -130.15114 -61.489303 -135.33794 -63.360105 -138.96583 -67.101363 C -142.53703 -70.842622 -144.32261 -76.255999 -144.32261 -83.341716 C -144.32261 -92.241376 -141.57305 -99.808775 -136.07453 -106.04421 C -130.51933 -112.33632 -122.49827 -116.95617 -112.0114 -119.90383 z M -3.5151842 -119.90383 L -1.4744819 -115.65241 C -12.925 -110.72075 -19.812155 -103.12528 -22.13627 -92.865166 C -18.848497 -94.452366 -15.731011 -95.245899 -12.783352 -95.245899 C -7.1147789 -95.245899 -2.6648665 -93.715477 0.5662204 -90.654448 C 3.853993 -87.593418 5.4982191 -83.455306 5.4982191 -78.240218 C 5.4982191 -75.009132 4.6194621 -72.118221 2.8622043 -69.567363 C 1.1616322 -67.016505 -1.2475461 -65.032415 -4.3652615 -63.615271 C -7.4262912 -62.198128 -10.940803 -61.489303 -14.908804 -61.489303 C -21.654406 -61.489303 -26.841208 -63.360105 -30.469095 -67.101363 C -34.040296 -70.842622 -35.825874 -76.255999 -35.825874 -83.341716 C -35.825874 -92.241376 -33.076831 -99.808775 -27.578315 -106.04421 C -22.023113 -112.33632 -14.002045 -116.95617 -3.5151842 -119.90383 z M -53.426866 -119.13901 L -50.620836 -117.86364 L -50.620836 -68.716769 C -49.543807 -68.093226 -47.843454 -67.526269 -45.519339 -67.016097 C -43.195224 -66.562611 -41.352485 -66.279392 -39.992027 -66.16602 L -40.247309 -62.084615 L -74.939248 -62.084615 L -74.769233 -66.16602 C -69.724202 -66.732877 -65.86931 -67.583054 -63.205081 -68.716769 L -63.205081 -109.44555 L -74.598701 -109.44555 L -74.598701 -114.37703 C -70.970814 -114.66046 -67.229726 -115.19935 -63.375096 -115.99295 C -59.520466 -116.84324 -56.204467 -117.89193 -53.426866 -119.13901 z M -88.03354 -101.28274 C -86.049539 -101.28274 -84.575761 -100.68772 -83.612104 -99.497319 C -82.591761 -98.363604 -82.081448 -96.776539 -82.081448 -94.735852 C -82.081448 -92.695166 -82.591761 -91.107584 -83.612104 -89.973869 C -84.575761 -88.840154 -86.049539 -88.273198 -88.03354 -88.273198 C -90.01754 -88.273198 -91.519898 -88.840154 -92.540241 -89.973869 C -93.503899 -91.16427 -93.985631 -92.751852 -93.985631 -94.735852 C -93.985631 -96.833225 -93.503899 -98.448354 -92.540241 -99.582068 C -91.519898 -100.71578 -90.01754 -101.28274 -88.03354 -101.28274 z M -123.66031 -89.293807 C -126.04111 -89.293807 -128.62073 -88.330343 -131.39833 -86.403028 L -131.39833 -85.297669 C -131.39833 -79.118924 -130.71809 -74.583787 -129.35763 -71.692814 C -127.99717 -68.801842 -125.84315 -67.356645 -122.89549 -67.356645 C -120.45801 -67.356645 -118.58721 -68.291529 -117.28343 -70.162159 C -115.97966 -72.032788 -115.32748 -74.697123 -115.32748 -78.154952 C -115.32748 -81.669468 -116.06437 -84.390447 -117.5382 -86.317762 C -118.95534 -88.301762 -120.99608 -89.293807 -123.66031 -89.293807 z M -15.164086 -89.293807 C -17.544886 -89.293807 -20.123997 -88.330343 -22.901598 -86.403028 L -22.901598 -85.297669 C -22.901598 -79.118924 -22.221353 -74.583787 -20.860895 -71.692814 C -19.500438 -68.801842 -17.346416 -67.356645 -14.398758 -67.356645 C -11.961271 -67.356645 -10.090469 -68.291529 -8.7866971 -70.162159 C -7.4829252 -72.032788 -6.8312609 -74.697123 -6.8312609 -78.154952 C -6.8312609 -81.669468 -7.5681495 -84.390447 -9.0419787 -86.317762 C -10.459122 -88.301762 -12.499856 -89.293807 -15.164086 -89.293807 z M -88.03354 -74.498845 C -86.049539 -74.498845 -84.575761 -73.903824 -83.612104 -72.713424 C -82.591761 -71.579709 -82.081448 -69.992127 -82.081448 -67.951441 C -82.081448 -65.910754 -82.591761 -64.323689 -83.612104 -63.189974 C -84.575761 -62.05626 -86.049539 -61.489303 -88.03354 -61.489303 C -90.01754 -61.489303 -91.519898 -62.05626 -92.540241 -63.189974 C -93.503899 -64.380375 -93.985631 -65.96744 -93.985631 -67.951441 C -93.985631 -70.048813 -93.503899 -71.664459 -92.540241 -72.798173 C -91.519898 -73.931888 -90.01754 -74.498845 -88.03354 -74.498845 z " /></g></svg>
