<?xml version="1.0" encoding="UTF-8" standalone="no"?>
<!-- Created with Inkscape (http://www.inkscape.org/) -->

<svg
   width="172.6701mm"
   height="172.6701mm"
   viewBox="0 0 172.6701 172.6701"
   version="1.1"
   id="svg1"
   xml:space="preserve"
   xmlns="http://www.w3.org/2000/svg"
   xmlns:svg="http://www.w3.org/2000/svg"><defs
     id="defs1" /><g
     id="layer1"
     transform="translate(157.25102,198.81012)"><path
       id="path5"
       style="fill:#ffffff;fill-opacity:1;stroke-width:0.805188;stroke-linecap:round;stroke-linejoin:round"
       d="M -2.0863309 -198.17657 L -10.088943 -183.11289 L -10.930235 -165.68398 L -19.198981 -165.68398 L -11.423229 -155.47426 L -12.166336 -140.07934 C -28.353216 -157.12094 -50.823548 -166.77435 -74.327399 -166.78417 C -103.64471 -166.77397 -130.92652 -151.79225 -146.66717 -127.05894 L -157.25102 -127.05894 L -149.61996 -115.86014 L -157.25102 -26.140039 L -8.5138455 -26.140039 L 15.419061 -26.140039 L 8.0799737 -154.80195 L 15.419061 -165.68398 L 7.4593397 -165.68398 L 6.4490654 -183.39297 L -2.0863309 -198.17657 z M -83.43072 -192.21621 C -85.584619 -189.65499 -86.77489 -186.4211 -86.795372 -183.07465 C -86.842092 -175.15518 -80.459903 -168.69733 -72.540428 -168.65072 C -64.621155 -168.60402 -58.163395 -174.98588 -58.116503 -182.90515 C -58.102813 -186.26049 -59.266203 -189.5144 -61.404157 -192.10045 C -60.83125 -190.6836 -60.536835 -189.16959 -60.537027 -187.64129 C -60.575787 -181.07411 -65.930869 -175.78172 -72.498054 -175.82031 C -79.065241 -175.85911 -84.357627 -181.21415 -84.319038 -187.78134 C -84.309338 -189.30285 -84.007827 -190.80837 -83.43072 -192.21621 z M -58.656005 -119.73381 C -52.817374 -119.73381 -48.168949 -118.28861 -44.711119 -115.39764 C -41.253289 -112.56335 -39.524873 -108.56711 -39.524873 -103.40871 C -39.524873 -98.873849 -41.253289 -94.026912 -44.711119 -88.86851 C -48.168949 -83.766794 -53.866063 -77.616529 -61.802066 -70.41744 L -38.92956 -70.41744 L -38.92956 -62.084615 L -77.447622 -62.084615 L -77.447622 -67.016097 C -71.155506 -73.081471 -66.251925 -78.268272 -62.737409 -82.576388 C -59.222894 -86.884504 -56.700427 -90.852684 -55.169912 -94.480571 C -53.582712 -98.108458 -52.789179 -101.84955 -52.789179 -105.70418 C -52.789179 -111.82623 -54.829913 -114.88759 -58.911286 -114.88759 C -60.72523 -114.88759 -62.199007 -114.0369 -63.332722 -112.33633 C -64.466436 -110.69244 -65.033393 -108.65171 -65.033393 -106.21422 C -65.033393 -104.51365 -64.437856 -102.89852 -63.247456 -101.36801 C -64.211113 -100.46103 -65.316446 -99.752209 -66.563532 -99.242037 C -67.753933 -98.731866 -68.94449 -98.476709 -70.13489 -98.476709 C -72.175577 -98.476709 -73.87593 -99.10031 -75.236388 -100.3474 C -76.596845 -101.65117 -77.27709 -103.52197 -77.27709 -105.95946 C -77.27709 -108.567 -76.512138 -110.91953 -74.981623 -113.01691 C -73.451108 -115.11428 -71.297086 -116.75799 -68.519485 -117.94839 C -65.685198 -119.13879 -62.397263 -119.73381 -58.656005 -119.73381 z M -15.886522 -119.73381 C -12.201949 -119.73381 -8.9425944 -119.11073 -6.1083076 -117.86364 C -3.2740208 -116.67324 -1.0633549 -114.97237 0.52384572 -112.76163 C 2.1110463 -110.60757 2.904579 -108.11368 2.904579 -105.27939 C 2.904579 -102.10499 1.9691779 -99.384015 0.098548685 -97.116586 C -1.7720806 -94.849156 -4.5497032 -93.120223 -8.234276 -91.929822 C -3.5860457 -90.909479 -0.32669076 -89.237189 1.5439385 -86.913074 C 3.4145678 -84.588959 4.3499688 -81.442892 4.3499688 -77.474891 C 4.3499688 -74.017061 3.3012798 -71.069506 1.2039076 -68.632019 C -0.83677889 -66.194533 -3.5005968 -64.380375 -6.7883694 -63.189974 C -10.076142 -61.999574 -13.477365 -61.404554 -16.991881 -61.404554 C -22.093597 -61.404554 -26.430222 -62.453243 -30.001423 -64.550615 C -33.515938 -66.647987 -35.272936 -69.510317 -35.272936 -73.138204 C -35.272936 -75.235577 -34.649852 -76.851222 -33.402766 -77.984937 C -32.155679 -79.175337 -30.596678 -79.770358 -28.726048 -79.770358 C -26.798733 -79.770358 -24.843224 -79.005405 -22.859223 -77.474891 C -23.369395 -76.397862 -23.624034 -75.094016 -23.624034 -73.563501 C -23.624034 -71.749558 -23.085658 -70.275781 -22.008629 -69.142066 C -20.874914 -68.008351 -19.202625 -67.441394 -16.991881 -67.441394 C -12.116908 -67.441394 -9.6796658 -70.814037 -9.6796658 -77.55964 C -9.6796658 -81.244213 -10.870223 -84.10706 -13.251024 -86.147746 C -15.575139 -88.188433 -18.891138 -89.208541 -23.199254 -89.208541 L -23.199254 -94.480571 C -14.866451 -95.1608 -10.699759 -98.760535 -10.699759 -105.27939 C -10.699759 -108.56717 -11.210071 -110.97583 -12.230415 -112.50634 C -13.250758 -114.09354 -14.639827 -114.88759 -16.397085 -114.88759 C -18.494457 -114.88759 -20.081523 -114.15071 -21.158552 -112.67688 C -22.178895 -111.20305 -22.689208 -109.41747 -22.689208 -107.3201 C -22.689208 -105.44947 -22.292183 -103.77718 -21.498583 -102.30335 C -23.085783 -100.60278 -25.126517 -99.752084 -27.62069 -99.752084 C -29.888119 -99.752084 -31.645116 -100.43233 -32.892202 -101.79279 C -34.139289 -103.15324 -34.762889 -104.91076 -34.762889 -107.06482 C -34.762889 -109.8991 -33.799425 -112.25164 -31.87211 -114.12227 C -29.888109 -116.04958 -27.45035 -117.46671 -24.559378 -118.37369 C -21.61172 -119.28066 -18.720809 -119.73381 -15.886522 -119.73381 z M -143.00434 -118.88373 L -138.83819 -118.88373 C -136.68413 -118.82705 -131.97906 -118.79847 -124.72329 -118.79847 C -117.18409 -118.79847 -112.28102 -118.82705 -110.01359 -118.88373 L -105.93219 -118.88373 L -104.23152 -115.22762 C -105.30855 -113.52705 -107.34928 -109.84261 -110.35362 -104.17404 C -113.35797 -98.505463 -116.19223 -92.496548 -118.85646 -86.147746 C -121.52069 -79.798944 -122.8526 -74.838719 -122.8526 -71.267517 C -122.8526 -68.433231 -121.86056 -66.307789 -119.87656 -64.890646 C -121.80387 -62.566531 -124.26969 -61.404554 -127.27404 -61.404554 C -130.05164 -61.404554 -132.20566 -62.169506 -133.73618 -63.700021 C -135.26669 -65.230536 -136.03216 -67.356494 -136.03216 -70.077409 C -136.03216 -73.478553 -135.21005 -77.077772 -133.56616 -80.875717 C -131.92227 -84.730347 -128.97472 -89.945728 -124.72329 -96.521273 L -114.68979 -111.9963 L -134.07621 -111.9963 C -134.86981 -109.44544 -135.35206 -106.44124 -135.52211 -102.98341 C -136.54246 -102.81335 -137.59115 -102.72813 -138.66817 -102.72813 C -139.80189 -102.72813 -140.90722 -102.81335 -141.98425 -102.98341 L -144.36498 -117.60836 L -143.00434 -118.88373 z M -90.711929 -101.28274 C -88.727928 -101.28274 -87.254151 -100.68772 -86.290493 -99.497319 C -85.27015 -98.363604 -84.759838 -96.776539 -84.759838 -94.735852 C -84.759838 -92.695166 -85.27015 -91.107584 -86.290493 -89.973869 C -87.254151 -88.840154 -88.727928 -88.273198 -90.711929 -88.273198 C -92.69593 -88.273198 -94.198287 -88.840154 -95.218631 -89.973869 C -96.182288 -91.16427 -96.66402 -92.751852 -96.66402 -94.735852 C -96.66402 -96.833225 -96.182288 -98.448354 -95.218631 -99.582068 C -94.198287 -100.71578 -92.69593 -101.28274 -90.711929 -101.28274 z M -90.711929 -74.498845 C -88.727928 -74.498845 -87.254151 -73.903824 -86.290493 -72.713424 C -85.27015 -71.579709 -84.759838 -69.992127 -84.759838 -67.951441 C -84.759838 -65.910754 -85.27015 -64.323689 -86.290493 -63.189974 C -87.254151 -62.05626 -88.727928 -61.489303 -90.711929 -61.489303 C -92.69593 -61.489303 -94.198287 -62.05626 -95.218631 -63.189974 C -96.182288 -64.380375 -96.66402 -65.96744 -96.66402 -67.951441 C -96.66402 -70.048813 -96.182288 -71.664459 -95.218631 -72.798173 C -94.198287 -73.931888 -92.69593 -74.498845 -90.711929 -74.498845 z " /></g></svg>
