<?xml version="1.0" encoding="UTF-8" standalone="no"?>
<!-- Created with Inkscape (http://www.inkscape.org/) -->

<svg
   width="172.6701mm"
   height="172.6701mm"
   viewBox="0 0 172.6701 172.6701"
   version="1.1"
   id="svg1"
   xml:space="preserve"
   xmlns="http://www.w3.org/2000/svg"
   xmlns:svg="http://www.w3.org/2000/svg"><defs
     id="defs1" /><g
     id="layer1"
     transform="translate(157.25102,198.81012)"><path
       id="path5"
       style="fill:#ffffff;fill-opacity:1;stroke-width:0.805188;stroke-linecap:round;stroke-linejoin:round"
       d="M -2.0863309 -198.17657 L -10.088943 -183.11289 L -10.930235 -165.68398 L -19.198981 -165.68398 L -11.423229 -155.47426 L -12.166336 -140.07934 C -28.353216 -157.12094 -50.823548 -166.77435 -74.327399 -166.78417 C -103.64471 -166.77397 -130.92652 -151.79225 -146.66717 -127.05894 L -157.25102 -127.05894 L -149.61996 -115.86014 L -157.25102 -26.140039 L -8.5138455 -26.140039 L 15.419061 -26.140039 L 8.0799737 -154.80195 L 15.419061 -165.68398 L 7.4593397 -165.68398 L 6.4490654 -183.39297 L -2.0863309 -198.17657 z M -83.43072 -192.21621 C -85.584619 -189.65499 -86.77489 -186.4211 -86.795372 -183.07465 C -86.842092 -175.15518 -80.459903 -168.69733 -72.540428 -168.65072 C -64.621155 -168.60402 -58.163395 -174.98588 -58.116503 -182.90515 C -58.102813 -186.26049 -59.266203 -189.5144 -61.404157 -192.10045 C -60.83125 -190.6836 -60.536835 -189.16959 -60.537027 -187.64129 C -60.575787 -181.07411 -65.930869 -175.78172 -72.498054 -175.82031 C -79.065241 -175.85911 -84.357627 -181.21415 -84.319038 -187.78134 C -84.309338 -189.30285 -84.007827 -190.80837 -83.43072 -192.21621 z M -124.59565 -119.81908 C -118.64365 -119.81908 -113.91051 -118.54381 -110.396 -115.99295 C -106.88148 -113.44209 -105.12449 -110.01229 -105.12449 -105.70418 C -105.12449 -103.38006 -105.97466 -101.05611 -107.67523 -98.731991 C -109.37581 -96.407876 -111.61454 -94.50901 -114.39214 -93.035181 C -110.87762 -91.334609 -108.12858 -89.350519 -106.14458 -87.08309 C -104.10389 -84.81566 -103.08378 -81.896169 -103.08378 -78.324968 C -103.08378 -73.166566 -104.95407 -69.057034 -108.69533 -65.996005 C -112.43659 -62.991661 -117.48152 -61.489303 -123.83032 -61.489303 C -130.80267 -61.489303 -136.18798 -62.878373 -139.98592 -65.655974 C -143.72718 -68.433575 -145.59798 -72.401238 -145.59798 -77.55964 C -145.59798 -80.223869 -144.74781 -82.86014 -143.04724 -85.467684 C -141.34666 -88.131914 -138.96555 -90.483931 -135.90452 -92.524618 C -138.45538 -93.941761 -140.43947 -95.642631 -141.85661 -97.626632 C -143.27375 -99.610633 -143.98206 -102.07646 -143.98206 -105.02411 C -143.98206 -109.55897 -142.22507 -113.15871 -138.71055 -115.82294 C -135.19603 -118.48717 -130.49097 -119.81908 -124.59565 -119.81908 z M -55.977615 -119.73381 C -50.138984 -119.73381 -45.49056 -118.28861 -42.03273 -115.39764 C -38.5749 -112.56335 -36.845966 -108.56711 -36.845966 -103.40871 C -36.845966 -98.873849 -38.5749 -94.026912 -42.03273 -88.86851 C -45.49056 -83.766794 -51.187673 -77.616529 -59.123676 -70.41744 L -36.251171 -70.41744 L -36.251171 -62.084615 L -74.769233 -62.084615 L -74.769233 -67.016097 C -68.477116 -73.081471 -63.573535 -78.268272 -60.05902 -82.576388 C -56.544504 -86.884504 -54.022038 -90.852684 -52.491523 -94.480571 C -50.904322 -98.108458 -50.11079 -101.84955 -50.11079 -105.70418 C -50.11079 -111.82623 -52.151524 -114.88759 -56.232897 -114.88759 C -58.04684 -114.88759 -59.520617 -114.0369 -60.654332 -112.33633 C -61.788047 -110.69244 -62.355004 -108.65171 -62.355004 -106.21422 C -62.355004 -104.51365 -61.759466 -102.89852 -60.569066 -101.36801 C -61.532724 -100.46103 -62.638057 -99.752209 -63.885143 -99.242037 C -65.075543 -98.731866 -66.266101 -98.476709 -67.456501 -98.476709 C -69.497187 -98.476709 -71.197541 -99.10031 -72.557998 -100.3474 C -73.918456 -101.65117 -74.598701 -103.52197 -74.598701 -105.95946 C -74.598701 -108.567 -73.833748 -110.91953 -72.303234 -113.01691 C -70.772719 -115.11428 -68.618697 -116.75799 -65.841096 -117.94839 C -63.006809 -119.13879 -59.718874 -119.73381 -55.977615 -119.73381 z M -12.868102 -119.73381 C -7.029471 -119.73381 -2.3810463 -118.28861 1.0767835 -115.39764 C 4.5346134 -112.56335 6.2630303 -108.56711 6.2630303 -103.40871 C 6.2630303 -98.873849 4.5346134 -94.026912 1.0767835 -88.86851 C -2.3810463 -83.766794 -8.07816 -77.616529 -16.014163 -70.41744 L 6.8583428 -70.41744 L 6.8583428 -62.084615 L -31.65972 -62.084615 L -31.65972 -67.016097 C -25.367603 -73.081471 -20.464022 -78.268272 -16.949506 -82.576388 C -13.434991 -86.884504 -10.912524 -90.852684 -9.3820096 -94.480571 C -7.794809 -98.108458 -7.0012763 -101.84955 -7.0012763 -105.70418 C -7.0012763 -111.82623 -9.0420104 -114.88759 -13.123383 -114.88759 C -14.937327 -114.88759 -16.411104 -114.0369 -17.544819 -112.33633 C -18.678534 -110.69244 -19.24549 -108.65171 -19.24549 -106.21422 C -19.24549 -104.51365 -18.649953 -102.89852 -17.459553 -101.36801 C -18.42321 -100.46103 -19.528543 -99.752209 -20.775629 -99.242037 C -21.96603 -98.731866 -23.156587 -98.476709 -24.346988 -98.476709 C -26.387674 -98.476709 -28.088027 -99.10031 -29.448485 -100.3474 C -30.808943 -101.65117 -31.489187 -103.52197 -31.489187 -105.95946 C -31.489187 -108.567 -30.724235 -110.91953 -29.19372 -113.01691 C -27.663205 -115.11428 -25.509183 -116.75799 -22.731582 -117.94839 C -19.897296 -119.13879 -16.60936 -119.73381 -12.868102 -119.73381 z M -124.59565 -113.78224 C -126.86308 -113.78224 -128.64866 -113.04535 -129.95243 -111.57152 C -131.2562 -110.15437 -131.90838 -108.22693 -131.90838 -105.78944 C -131.90838 -103.63538 -131.08627 -101.84981 -129.44238 -100.43266 C -127.74181 -99.072205 -125.27599 -97.711715 -122.0449 -96.351258 C -120.62776 -97.314915 -119.49384 -98.646824 -118.64356 -100.3474 C -117.79327 -102.04797 -117.36818 -103.86213 -117.36818 -105.78944 C -117.36818 -108.22693 -118.04843 -110.15437 -119.40889 -111.57152 C -120.71266 -113.04535 -122.44159 -113.78224 -124.59565 -113.78224 z M -88.03354 -101.28274 C -86.049539 -101.28274 -84.575761 -100.68772 -83.612104 -99.497319 C -82.591761 -98.363604 -82.081448 -96.776539 -82.081448 -94.735852 C -82.081448 -92.695166 -82.591761 -91.107584 -83.612104 -89.973869 C -84.575761 -88.840154 -86.049539 -88.273198 -88.03354 -88.273198 C -90.01754 -88.273198 -91.519898 -88.840154 -92.540241 -89.973869 C -93.503899 -91.16427 -93.985631 -92.751852 -93.985631 -94.735852 C -93.985631 -96.833225 -93.503899 -98.448354 -92.540241 -99.582068 C -91.519898 -100.71578 -90.01754 -101.28274 -88.03354 -101.28274 z M -128.08174 -89.038526 C -129.78231 -87.678068 -131.02951 -86.119583 -131.82311 -84.362325 C -132.61672 -82.605068 -133.01374 -80.50769 -133.01374 -78.070203 C -133.01374 -74.725745 -132.19163 -72.089474 -130.54774 -70.162159 C -128.90385 -68.291529 -126.66461 -67.356645 -123.83032 -67.356645 C -121.05272 -67.356645 -118.8987 -68.291529 -117.36818 -70.162159 C -115.78098 -72.032788 -114.98745 -74.640479 -114.98745 -77.984937 C -114.98745 -79.855566 -115.58299 -81.442631 -116.77339 -82.746403 C -117.9071 -84.106861 -119.3523 -85.212194 -121.10956 -86.06248 C -122.86681 -86.969452 -125.19077 -87.961497 -128.08174 -89.038526 z M -88.03354 -74.498845 C -86.049539 -74.498845 -84.575761 -73.903824 -83.612104 -72.713424 C -82.591761 -71.579709 -82.081448 -69.992127 -82.081448 -67.951441 C -82.081448 -65.910754 -82.591761 -64.323689 -83.612104 -63.189974 C -84.575761 -62.05626 -86.049539 -61.489303 -88.03354 -61.489303 C -90.01754 -61.489303 -91.519898 -62.05626 -92.540241 -63.189974 C -93.503899 -64.380375 -93.985631 -65.96744 -93.985631 -67.951441 C -93.985631 -70.048813 -93.503899 -71.664459 -92.540241 -72.798173 C -91.519898 -73.931888 -90.01754 -74.498845 -88.03354 -74.498845 z " /></g></svg>
