<?xml version="1.0" encoding="UTF-8" standalone="no"?>
<!-- Created with Inkscape (http://www.inkscape.org/) -->

<svg
   width="172.6701mm"
   height="172.6701mm"
   viewBox="0 0 172.6701 172.6701"
   version="1.1"
   id="svg1"
   xml:space="preserve"
   xmlns="http://www.w3.org/2000/svg"
   xmlns:svg="http://www.w3.org/2000/svg"><defs
     id="defs1" /><g
     id="layer1"
     transform="translate(157.25102,198.81012)"><path
       id="path5"
       style="fill:#ffffff;fill-opacity:1;stroke-width:0.805188;stroke-linecap:round;stroke-linejoin:round"
       d="M -2.0863309 -198.17657 L -10.088943 -183.11289 L -10.930235 -165.68398 L -19.198981 -165.68398 L -11.423229 -155.47426 L -12.166336 -140.07934 C -28.353216 -157.12094 -50.823548 -166.77435 -74.327399 -166.78417 C -103.64471 -166.77397 -130.92652 -151.79225 -146.66717 -127.05894 L -157.25102 -127.05894 L -149.61996 -115.86014 L -157.25102 -26.140039 L -8.5138455 -26.140039 L 15.419061 -26.140039 L 8.0799737 -154.80195 L 15.419061 -165.68398 L 7.4593397 -165.68398 L 6.4490654 -183.39297 L -2.0863309 -198.17657 z M -83.43072 -192.21621 C -85.584619 -189.65499 -86.77489 -186.4211 -86.795372 -183.07465 C -86.842092 -175.15518 -80.459903 -168.69733 -72.540428 -168.65072 C -64.621155 -168.60402 -58.163395 -174.98588 -58.116503 -182.90515 C -58.102813 -186.26049 -59.266203 -189.5144 -61.404157 -192.10045 C -60.83125 -190.6836 -60.536835 -189.16959 -60.537027 -187.64129 C -60.575787 -181.07411 -65.930869 -175.78172 -72.498054 -175.82031 C -79.065241 -175.85911 -84.357627 -181.21415 -84.319038 -187.78134 C -84.309338 -189.30285 -84.007827 -190.80837 -83.43072 -192.21621 z M -123.7032 -120.07436 C -119.16834 -119.84761 -115.48338 -118.85557 -112.64909 -117.09831 L -132.8861 -83.767013 L -119.87656 -83.767013 L -119.02648 -97.626632 C -117.21254 -97.626632 -115.90869 -97.995076 -115.11509 -98.731991 C -114.2648 -99.468905 -113.61314 -100.71611 -113.15965 -102.47336 L -108.31292 -102.47336 L -108.39767 -83.341716 C -106.24361 -82.718173 -103.52263 -82.066508 -100.23486 -81.38628 L -100.66016 -77.304875 L -108.82297 -77.304875 L -108.82297 -62.084615 L -119.87656 -62.084615 L -119.87656 -77.304875 L -144.44973 -77.304875 L -145.13031 -80.36567 L -123.7032 -120.07436 z M -50.918492 -119.13901 L -48.112462 -117.86364 L -48.112462 -68.716769 C -47.035433 -68.093226 -45.33508 -67.526269 -43.010965 -67.016097 C -40.68685 -66.562611 -38.844628 -66.279392 -37.48417 -66.16602 L -37.738935 -62.084615 L -72.430874 -62.084615 L -72.260859 -66.16602 C -67.215828 -66.732877 -63.360936 -67.583054 -60.696707 -68.716769 L -60.696707 -109.44555 L -72.090327 -109.44555 L -72.090327 -114.37703 C -68.46244 -114.66046 -64.721352 -115.19935 -60.866722 -115.99295 C -57.012092 -116.84324 -53.696093 -117.89193 -50.918492 -119.13901 z M -33.062218 -118.88373 L -28.896064 -118.88373 C -26.742006 -118.82705 -22.036937 -118.79847 -14.781163 -118.79847 C -7.2419605 -118.79847 -2.3388962 -118.82705 -0.071466777 -118.88373 L 4.0099378 -118.88373 L 5.7106092 -115.22762 C 4.6335803 -113.52705 2.5928463 -109.84261 -0.4114977 -104.17404 C -3.4158417 -98.505463 -6.2501083 -92.496548 -8.9143379 -86.147746 C -11.578567 -79.798944 -12.910476 -74.838719 -12.910476 -71.267517 C -12.910476 -68.433231 -11.918431 -66.307789 -9.9344306 -64.890646 C -11.861746 -62.566531 -14.327568 -61.404554 -17.331912 -61.404554 C -20.109513 -61.404554 -22.264052 -62.169506 -23.794567 -63.700021 C -25.325081 -65.230536 -26.090034 -67.356494 -26.090034 -70.077409 C -26.090034 -73.478553 -25.267921 -77.077772 -23.624034 -80.875717 C -21.980148 -84.730347 -19.032593 -89.945728 -14.781163 -96.521273 L -4.7476671 -111.9963 L -24.134597 -111.9963 C -24.928198 -109.44544 -25.40993 -106.44124 -25.579987 -102.98341 C -26.600331 -102.81335 -27.64902 -102.72813 -28.726048 -102.72813 C -29.859763 -102.72813 -30.965096 -102.81335 -32.042125 -102.98341 L -34.422858 -117.60836 L -33.062218 -118.88373 z M -85.525166 -101.28274 C -83.541165 -101.28274 -82.067387 -100.68772 -81.10373 -99.497319 C -80.083387 -98.363604 -79.573074 -96.776539 -79.573074 -94.735852 C -79.573074 -92.695166 -80.083387 -91.107584 -81.10373 -89.973869 C -82.067387 -88.840154 -83.541165 -88.273198 -85.525166 -88.273198 C -87.509166 -88.273198 -89.011524 -88.840154 -90.031867 -89.973869 C -90.995525 -91.16427 -91.477257 -92.751852 -91.477257 -94.735852 C -91.477257 -96.833225 -90.995525 -98.448354 -90.031867 -99.582068 C -89.011524 -100.71578 -87.509166 -101.28274 -85.525166 -101.28274 z M -85.525166 -74.498845 C -83.541165 -74.498845 -82.067387 -73.903824 -81.10373 -72.713424 C -80.083387 -71.579709 -79.573074 -69.992127 -79.573074 -67.951441 C -79.573074 -65.910754 -80.083387 -64.323689 -81.10373 -63.189974 C -82.067387 -62.05626 -83.541165 -61.489303 -85.525166 -61.489303 C -87.509166 -61.489303 -89.011524 -62.05626 -90.031867 -63.189974 C -90.995525 -64.380375 -91.477257 -65.96744 -91.477257 -67.951441 C -91.477257 -70.048813 -90.995525 -71.664459 -90.031867 -72.798173 C -89.011524 -73.931888 -87.509166 -74.498845 -85.525166 -74.498845 z " /></g></svg>
