<?xml version="1.0" encoding="UTF-8" standalone="no"?>
<!-- Created with Inkscape (http://www.inkscape.org/) -->

<svg
   width="172.6701mm"
   height="172.6701mm"
   viewBox="0 0 172.6701 172.6701"
   version="1.1"
   id="svg1"
   xml:space="preserve"
   xmlns="http://www.w3.org/2000/svg"
   xmlns:svg="http://www.w3.org/2000/svg"><defs
     id="defs1" /><g
     id="layer1"
     transform="translate(157.25102,198.81012)"><path
       id="path5"
       style="fill:#ffffff;fill-opacity:1;stroke-width:0.805188;stroke-linecap:round;stroke-linejoin:round"
       d="M -2.0863309 -198.17657 L -10.088943 -183.11289 L -10.930235 -165.68398 L -19.198981 -165.68398 L -11.423229 -155.47426 L -12.166336 -140.07934 C -28.353216 -157.12094 -50.823548 -166.77435 -74.327399 -166.78417 C -103.64471 -166.77397 -130.92652 -151.79225 -146.66717 -127.05894 L -157.25102 -127.05894 L -149.61996 -115.86014 L -157.25102 -26.140039 L -8.5138455 -26.140039 L 15.419061 -26.140039 L 8.0799737 -154.80195 L 15.419061 -165.68398 L 7.4593397 -165.68398 L 6.4490654 -183.39297 L -2.0863309 -198.17657 z M -83.43072 -192.21621 C -85.584619 -189.65499 -86.77489 -186.4211 -86.795372 -183.07465 C -86.842092 -175.15518 -80.459903 -168.69733 -72.540428 -168.65072 C -64.621155 -168.60402 -58.163395 -174.98588 -58.116503 -182.90515 C -58.102813 -186.26049 -59.266203 -189.5144 -61.404157 -192.10045 C -60.83125 -190.6836 -60.536835 -189.16959 -60.537027 -187.64129 C -60.575787 -181.07411 -65.930869 -175.78172 -72.498054 -175.82031 C -79.065241 -175.85911 -84.357627 -181.21415 -84.319038 -187.78134 C -84.309338 -189.30285 -84.007827 -190.80837 -83.43072 -192.21621 z M -128.42229 -120.07436 C -123.88743 -119.84761 -120.20247 -118.85557 -117.36818 -117.09831 L -137.60519 -83.767013 L -124.59565 -83.767013 L -123.74557 -97.626632 C -121.93163 -97.626632 -120.62778 -97.995076 -119.83418 -98.731991 C -118.9839 -99.468905 -118.33223 -100.71611 -117.87875 -102.47336 L -113.03201 -102.47336 L -113.11676 -83.341716 C -110.96271 -82.718173 -108.24173 -82.066508 -104.95395 -81.38628 L -105.37925 -77.304875 L -113.54206 -77.304875 L -113.54206 -62.084615 L -124.59565 -62.084615 L -124.59565 -77.304875 L -149.16883 -77.304875 L -149.8494 -80.36567 L -128.42229 -120.07436 z M -12.61282 -119.81908 C -6.6608179 -119.81908 -1.9276856 -118.54381 1.5868299 -115.99295 C 5.1013455 -113.44209 6.8583428 -110.01229 6.8583428 -105.70418 C 6.8583428 -103.38006 6.0081661 -101.05611 4.3075941 -98.731991 C 2.607022 -96.407876 0.36777568 -94.50901 -2.4098253 -93.035181 C 1.1046902 -91.334609 3.8542493 -89.350519 5.83825 -87.08309 C 7.8789365 -84.81566 8.8990451 -81.896169 8.8990451 -78.324968 C 8.8990451 -73.166566 7.0287598 -69.057034 3.2875013 -65.996005 C -0.45375719 -62.991661 -5.4992066 -61.489303 -11.848009 -61.489303 C -18.820354 -61.489303 -24.205151 -62.878373 -28.003095 -65.655974 C -31.744354 -68.433575 -33.615156 -72.401238 -33.615156 -77.55964 C -33.615156 -80.223869 -32.764979 -82.86014 -31.064407 -85.467684 C -29.363835 -88.131914 -26.98272 -90.483931 -23.921691 -92.524618 C -26.472549 -93.941761 -28.456639 -95.642631 -29.873782 -97.626632 C -31.290925 -99.610633 -31.99975 -102.07646 -31.99975 -105.02411 C -31.99975 -109.55897 -30.242236 -113.15871 -26.727721 -115.82294 C -23.213205 -118.48717 -18.508137 -119.81908 -12.61282 -119.81908 z M -58.188333 -119.73381 C -52.349702 -119.73381 -47.701794 -118.28861 -44.243964 -115.39764 C -40.786134 -112.56335 -39.057201 -108.56711 -39.057201 -103.40871 C -39.057201 -98.873849 -40.786134 -94.026912 -44.243964 -88.86851 C -47.701794 -83.766794 -53.398391 -77.616529 -61.334394 -70.41744 L -38.461888 -70.41744 L -38.461888 -62.084615 L -76.979951 -62.084615 L -76.979951 -67.016097 C -70.687834 -73.081471 -65.784253 -78.268272 -62.269737 -82.576388 C -58.755222 -86.884504 -56.232756 -90.852684 -54.702241 -94.480571 C -53.11504 -98.108458 -52.321507 -101.84955 -52.321507 -105.70418 C -52.321507 -111.82623 -54.362241 -114.88759 -58.443614 -114.88759 C -60.257558 -114.88759 -61.731335 -114.0369 -62.86505 -112.33633 C -63.998765 -110.69244 -64.565721 -108.65171 -64.565721 -106.21422 C -64.565721 -104.51365 -63.970184 -102.89852 -62.779784 -101.36801 C -63.743441 -100.46103 -64.848774 -99.752209 -66.09586 -99.242037 C -67.286261 -98.731866 -68.476818 -98.476709 -69.667219 -98.476709 C -71.707905 -98.476709 -73.408775 -99.10031 -74.769233 -100.3474 C -76.129691 -101.65117 -76.809418 -103.52197 -76.809418 -105.95946 C -76.809418 -108.567 -76.044466 -110.91953 -74.513951 -113.01691 C -72.983436 -115.11428 -70.829414 -116.75799 -68.051813 -117.94839 C -65.217527 -119.13879 -61.929591 -119.73381 -58.188333 -119.73381 z M -12.61282 -113.78224 C -14.88025 -113.78224 -16.666344 -113.04535 -17.970116 -111.57152 C -19.273888 -110.15437 -19.925552 -108.22693 -19.925552 -105.78944 C -19.925552 -103.63538 -19.103439 -101.84981 -17.459553 -100.43266 C -15.758981 -99.072205 -13.293158 -97.711715 -10.062071 -96.351258 C -8.6449281 -97.314915 -7.5115314 -98.646824 -6.6612454 -100.3474 C -5.8109594 -102.04797 -5.3858711 -103.86213 -5.3858711 -105.78944 C -5.3858711 -108.22693 -6.0661157 -110.15437 -7.4265734 -111.57152 C -8.7303453 -113.04535 -10.458762 -113.78224 -12.61282 -113.78224 z M -90.244257 -101.28274 C -88.260257 -101.28274 -86.786479 -100.68772 -85.822822 -99.497319 C -84.802479 -98.363604 -84.292166 -96.776539 -84.292166 -94.735852 C -84.292166 -92.695166 -84.802479 -91.107584 -85.822822 -89.973869 C -86.786479 -88.840154 -88.260257 -88.273198 -90.244257 -88.273198 C -92.228258 -88.273198 -93.730616 -88.840154 -94.750959 -89.973869 C -95.714616 -91.16427 -96.196349 -92.751852 -96.196349 -94.735852 C -96.196349 -96.833225 -95.714616 -98.448354 -94.750959 -99.582068 C -93.730616 -100.71578 -92.228258 -101.28274 -90.244257 -101.28274 z M -16.099429 -89.038526 C -17.800001 -87.678068 -19.046686 -86.119583 -19.840286 -84.362325 C -20.633886 -82.605068 -21.030911 -80.50769 -21.030911 -78.070203 C -21.030911 -74.725745 -20.208798 -72.089474 -18.564912 -70.162159 C -16.921025 -68.291529 -14.682296 -67.356645 -11.848009 -67.356645 C -9.0704079 -67.356645 -6.9163859 -68.291529 -5.3858711 -70.162159 C -3.7986705 -72.032788 -3.0046211 -74.640479 -3.0046211 -77.984937 C -3.0046211 -79.855566 -3.6001581 -81.442631 -4.7905586 -82.746403 C -5.9242733 -84.106861 -7.3694702 -85.212194 -9.126728 -86.06248 C -10.883986 -86.969452 -13.208457 -87.961497 -16.099429 -89.038526 z M -90.244257 -74.498845 C -88.260257 -74.498845 -86.786479 -73.903824 -85.822822 -72.713424 C -84.802479 -71.579709 -84.292166 -69.992127 -84.292166 -67.951441 C -84.292166 -65.910754 -84.802479 -64.323689 -85.822822 -63.189974 C -86.786479 -62.05626 -88.260257 -61.489303 -90.244257 -61.489303 C -92.228258 -61.489303 -93.730616 -62.05626 -94.750959 -63.189974 C -95.714616 -64.380375 -96.196349 -65.96744 -96.196349 -67.951441 C -96.196349 -70.048813 -95.714616 -71.664459 -94.750959 -72.798173 C -93.730616 -73.931888 -92.228258 -74.498845 -90.244257 -74.498845 z " /></g></svg>
