<?xml version="1.0" encoding="UTF-8" standalone="no"?>
<!-- Created with Inkscape (http://www.inkscape.org/) -->

<svg
   width="172.6701mm"
   height="172.6701mm"
   viewBox="0 0 172.6701 172.6701"
   version="1.1"
   id="svg1"
   xml:space="preserve"
   xmlns="http://www.w3.org/2000/svg"
   xmlns:svg="http://www.w3.org/2000/svg"><defs
     id="defs1" /><g
     id="layer1"
     transform="translate(157.25102,198.81012)"><path
       id="path5"
       style="fill:#ffffff;fill-opacity:1;stroke-width:0.805188;stroke-linecap:round;stroke-linejoin:round"
       d="M -2.0863309 -198.17657 L -10.088943 -183.11289 L -10.930235 -165.68398 L -19.198981 -165.68398 L -11.423229 -155.47426 L -12.166336 -140.07934 C -28.353216 -157.12094 -50.823548 -166.77435 -74.327399 -166.78417 C -103.64471 -166.77397 -130.92652 -151.79225 -146.66717 -127.05894 L -157.25102 -127.05894 L -149.61996 -115.86014 L -157.25102 -26.140039 L -8.5138455 -26.140039 L 15.419061 -26.140039 L 8.0799737 -154.80195 L 15.419061 -165.68398 L 7.4593397 -165.68398 L 6.4490654 -183.39297 L -2.0863309 -198.17657 z M -83.43072 -192.21621 C -85.584619 -189.65499 -86.77489 -186.4211 -86.795372 -183.07465 C -86.842092 -175.15518 -80.459903 -168.69733 -72.540428 -168.65072 C -64.621155 -168.60402 -58.163395 -174.98588 -58.116503 -182.90515 C -58.102813 -186.26049 -59.266203 -189.5144 -61.404157 -192.10045 C -60.83125 -190.6836 -60.536835 -189.16959 -60.537027 -187.64129 C -60.575787 -181.07411 -65.930869 -175.78172 -72.498054 -175.82031 C -79.065241 -175.85911 -84.357627 -181.21415 -84.319038 -187.78134 C -84.309338 -189.30285 -84.007827 -190.80837 -83.43072 -192.21621 z M -123.83032 -119.73381 C -120.14575 -119.73381 -116.88639 -119.11073 -114.05211 -117.86364 C -111.21782 -116.67324 -109.00715 -114.97237 -107.41995 -112.76163 C -105.83275 -110.60757 -105.03922 -108.11368 -105.03922 -105.27939 C -105.03922 -102.10499 -105.97462 -99.384015 -107.84525 -97.116586 C -109.71588 -94.849156 -112.4935 -93.120223 -116.17807 -91.929822 C -111.52984 -90.909479 -108.27049 -89.237189 -106.39986 -86.913074 C -104.52923 -84.588959 -103.59383 -81.442892 -103.59383 -77.474891 C -103.59383 -74.017061 -104.64252 -71.069506 -106.73989 -68.632019 C -108.78058 -66.194533 -111.44491 -64.380375 -114.73269 -63.189974 C -118.02046 -61.999574 -121.42116 -61.404554 -124.93568 -61.404554 C -130.0374 -61.404554 -134.37402 -62.453243 -137.94522 -64.550615 C -141.45974 -66.647987 -143.21725 -69.510317 -143.21725 -73.138204 C -143.21725 -75.235577 -142.59365 -76.851222 -141.34656 -77.984937 C -140.09948 -79.175337 -138.54048 -79.770358 -136.66985 -79.770358 C -134.74253 -79.770358 -132.78702 -79.005405 -130.80302 -77.474891 C -131.31319 -76.397862 -131.56835 -75.094016 -131.56835 -73.563501 C -131.56835 -71.749558 -131.02946 -70.275781 -129.95243 -69.142066 C -128.81871 -68.008351 -127.14642 -67.441394 -124.93568 -67.441394 C -120.06071 -67.441394 -117.62346 -70.814037 -117.62346 -77.55964 C -117.62346 -81.244213 -118.81402 -84.10706 -121.19482 -86.147746 C -123.51894 -88.188433 -126.83494 -89.208541 -131.14305 -89.208541 L -131.14305 -94.480571 C -122.81025 -95.1608 -118.64356 -98.760535 -118.64356 -105.27939 C -118.64356 -108.56717 -119.15387 -110.97583 -120.17421 -112.50634 C -121.19456 -114.09354 -122.58363 -114.88759 -124.34088 -114.88759 C -126.43826 -114.88759 -128.02532 -114.15071 -129.10235 -112.67688 C -130.12269 -111.20305 -130.63301 -109.41747 -130.63301 -107.3201 C -130.63301 -105.44947 -130.23598 -103.77718 -129.44238 -102.30335 C -131.02958 -100.60278 -133.07032 -99.752084 -135.56449 -99.752084 C -137.83192 -99.752084 -139.58892 -100.43233 -140.836 -101.79279 C -142.08309 -103.15324 -142.70669 -104.91076 -142.70669 -107.06482 C -142.70669 -109.8991 -141.74322 -112.25164 -139.81591 -114.12227 C -137.83191 -116.04958 -135.39467 -117.46671 -132.50369 -118.37369 C -129.55604 -119.28066 -126.66461 -119.73381 -123.83032 -119.73381 z M -9.7220405 -119.13901 L -6.9160102 -117.86364 L -6.9160102 -68.716769 C -5.8389813 -68.093226 -4.138628 -67.526269 -1.8145128 -67.016097 C 0.5096023 -66.562611 2.351824 -66.279392 3.7122816 -66.16602 L 3.4575168 -62.084615 L -31.234423 -62.084615 L -31.064407 -66.16602 C -26.019377 -66.732877 -22.164485 -67.583054 -19.500255 -68.716769 L -19.500255 -109.44555 L -30.894392 -109.44555 L -30.894392 -114.37703 C -27.266505 -114.66046 -23.5249 -115.19935 -19.67027 -115.99295 C -15.815641 -116.84324 -12.499642 -117.89193 -9.7220405 -119.13901 z M -68.221829 -119.05375 L -63.970409 -118.969 C -57.961721 -118.85563 -54.787074 -118.79847 -54.446959 -118.79847 L -42.373277 -118.969 L -39.907278 -117.18306 L -40.672606 -110.72092 L -61.759691 -110.72092 L -62.949799 -96.521273 C -60.002141 -97.258188 -57.338323 -97.626632 -54.957522 -97.626632 C -49.345635 -97.626632 -44.782434 -96.124274 -41.267919 -93.11993 C -37.696717 -90.172272 -35.91114 -85.836165 -35.91114 -80.110905 C -35.91114 -76.539704 -36.761316 -73.336993 -38.461888 -70.502706 C -40.105775 -67.66842 -42.486373 -65.429173 -45.604088 -63.785287 C -48.721803 -62.198086 -52.406247 -61.404554 -56.657677 -61.404554 C -60.115507 -61.404554 -63.261574 -61.886286 -66.09586 -62.849943 C -68.873462 -63.813601 -71.056064 -65.14551 -72.643264 -66.846082 C -74.230465 -68.60334 -75.023998 -70.559366 -75.023998 -72.713424 C -75.023998 -74.980853 -74.400397 -76.709787 -73.153311 -77.900188 C -71.906225 -79.147274 -70.375803 -79.770358 -68.56186 -79.770358 C -67.541517 -79.770358 -66.521408 -79.572362 -65.501065 -79.175562 C -64.424036 -78.778762 -63.460054 -78.211805 -62.609768 -77.474891 C -63.11994 -76.28449 -63.375096 -75.037289 -63.375096 -73.733517 C -63.375096 -71.862888 -62.83672 -70.332466 -61.759691 -69.142066 C -60.625976 -67.951665 -58.925106 -67.356645 -56.657677 -67.356645 C -51.555961 -67.356645 -49.005431 -71.608045 -49.005431 -80.110905 C -49.005431 -84.135593 -49.798963 -87.054567 -51.386164 -88.86851 C -52.973365 -90.73914 -55.099323 -91.674541 -57.763553 -91.674541 C -59.407439 -91.674541 -61.164436 -91.36274 -63.035065 -90.739197 C -64.905695 -90.115654 -66.747916 -89.236897 -68.56186 -88.103182 L -73.238577 -92.609884 L -71.027859 -116.75776 L -68.221829 -119.05375 z M -88.543586 -101.28274 C -86.559585 -101.28274 -85.085808 -100.68772 -84.12215 -99.497319 C -83.101807 -98.363604 -82.591494 -96.776539 -82.591494 -94.735852 C -82.591494 -92.695166 -83.101807 -91.107584 -84.12215 -89.973869 C -85.085808 -88.840154 -86.559585 -88.273198 -88.543586 -88.273198 C -90.527587 -88.273198 -92.029944 -88.840154 -93.050288 -89.973869 C -94.013945 -91.16427 -94.495677 -92.751852 -94.495677 -94.735852 C -94.495677 -96.833225 -94.013945 -98.448354 -93.050288 -99.582068 C -92.029944 -100.71578 -90.527587 -101.28274 -88.543586 -101.28274 z M -88.543586 -74.498845 C -86.559585 -74.498845 -85.085808 -73.903824 -84.12215 -72.713424 C -83.101807 -71.579709 -82.591494 -69.992127 -82.591494 -67.951441 C -82.591494 -65.910754 -83.101807 -64.323689 -84.12215 -63.189974 C -85.085808 -62.05626 -86.559585 -61.489303 -88.543586 -61.489303 C -90.527587 -61.489303 -92.029944 -62.05626 -93.050288 -63.189974 C -94.013945 -64.380375 -94.495677 -65.96744 -94.495677 -67.951441 C -94.495677 -70.048813 -94.013945 -71.664459 -93.050288 -72.798173 C -92.029944 -73.931888 -90.527587 -74.498845 -88.543586 -74.498845 z " /></g></svg>
