<?xml version="1.0" encoding="UTF-8" standalone="no"?>
<!-- Created with Inkscape (http://www.inkscape.org/) -->

<svg
   width="172.6701mm"
   height="172.6701mm"
   viewBox="0 0 172.6701 172.6701"
   version="1.1"
   id="svg1"
   xml:space="preserve"
   xmlns="http://www.w3.org/2000/svg"
   xmlns:svg="http://www.w3.org/2000/svg"><defs
     id="defs1" /><g
     id="layer1"
     transform="translate(157.25102,198.81012)"><path
       id="path5"
       style="fill:#ffffff;fill-opacity:1;stroke-width:0.805188;stroke-linecap:round;stroke-linejoin:round"
       d="M -2.0863309 -198.17657 L -10.088943 -183.11289 L -10.930235 -165.68398 L -19.198981 -165.68398 L -11.423229 -155.47426 L -12.166336 -140.07934 C -28.353216 -157.12094 -50.823548 -166.77435 -74.327399 -166.78417 C -103.64471 -166.77397 -130.92652 -151.79225 -146.66717 -127.05894 L -157.25102 -127.05894 L -149.61996 -115.86014 L -157.25102 -26.140039 L -8.5138455 -26.140039 L 15.419061 -26.140039 L 8.0799737 -154.80195 L 15.419061 -165.68398 L 7.4593397 -165.68398 L 6.4490654 -183.39297 L -2.0863309 -198.17657 z M -83.43072 -192.21621 C -85.584619 -189.65499 -86.77489 -186.4211 -86.795372 -183.07465 C -86.842092 -175.15518 -80.459903 -168.69733 -72.540428 -168.65072 C -64.621155 -168.60402 -58.163395 -174.98588 -58.116503 -182.90515 C -58.102813 -186.26049 -59.266203 -189.5144 -61.404157 -192.10045 C -60.83125 -190.6836 -60.536835 -189.16959 -60.537027 -187.64129 C -60.575787 -181.07411 -65.930869 -175.78172 -72.498054 -175.82031 C -79.065241 -175.85911 -84.357627 -181.21415 -84.319038 -187.78134 C -84.309338 -189.30285 -84.007827 -190.80837 -83.43072 -192.21621 z M -111.79901 -119.90383 L -109.75831 -115.65241 C -121.20883 -110.72075 -128.09598 -103.12528 -130.4201 -92.865166 C -127.13233 -94.452366 -124.01484 -95.245899 -121.06718 -95.245899 C -115.39861 -95.245899 -110.9487 -93.715477 -107.71761 -90.654448 C -104.42984 -87.593418 -102.78613 -83.455306 -102.78613 -78.240218 C -102.78613 -75.009132 -103.66488 -72.118221 -105.42214 -69.567363 C -107.12271 -67.016505 -109.53138 -65.032415 -112.64909 -63.615271 C -115.71012 -62.198128 -119.22463 -61.489303 -123.19263 -61.489303 C -129.93824 -61.489303 -135.12504 -63.360105 -138.75292 -67.101363 C -142.32413 -70.842622 -144.1097 -76.255999 -144.1097 -83.341716 C -144.1097 -92.241376 -141.36066 -99.808775 -135.86214 -106.04421 C -130.30694 -112.33632 -122.28587 -116.95617 -111.79901 -119.90383 z M -15.036445 -119.64906 C -8.4042138 -119.64906 -3.3307008 -117.15466 0.1838148 -112.16631 C 3.7550161 -107.23465 5.5405938 -100.06428 5.5405938 -90.654448 C 5.5405938 -81.244616 3.7550161 -74.017081 0.1838148 -68.97205 C -3.3307008 -63.983706 -8.4042138 -61.489303 -15.036445 -61.489303 C -21.668676 -61.489303 -26.770252 -63.983706 -30.341454 -68.97205 C -33.912655 -74.017081 -35.698233 -81.244616 -35.698233 -90.654448 C -35.698233 -100.00759 -33.912655 -107.17797 -30.341454 -112.16631 C -26.770252 -117.15466 -21.668676 -119.64906 -15.036445 -119.64906 z M -53.214476 -119.13901 L -50.408446 -117.86364 L -50.408446 -68.716769 C -49.331417 -68.093226 -47.630547 -67.526269 -45.306432 -67.016097 C -42.982317 -66.562611 -41.140095 -66.279392 -39.779637 -66.16602 L -40.034919 -62.084615 L -74.726341 -62.084615 L -74.556326 -66.16602 C -69.511296 -66.732877 -65.65692 -67.583054 -62.992691 -68.716769 L -62.992691 -109.44555 L -74.386311 -109.44555 L -74.386311 -114.37703 C -70.758423 -114.66046 -67.017336 -115.19935 -63.162706 -115.99295 C -59.308076 -116.84324 -55.992077 -117.89193 -53.214476 -119.13901 z M -15.036445 -115.31237 C -17.927417 -115.31237 -20.024795 -113.41351 -21.328567 -109.61556 C -22.575653 -105.81762 -23.199254 -99.497422 -23.199254 -90.654448 C -23.199254 -81.868159 -22.575653 -75.576025 -21.328567 -71.778081 C -20.024795 -68.036822 -17.927417 -66.16602 -15.036445 -66.16602 C -12.145472 -66.16602 -10.076158 -68.036822 -8.8290718 -71.778081 C -7.5252999 -75.576025 -6.8736356 -81.868159 -6.8736356 -90.654448 C -6.8736356 -99.440737 -7.5252999 -105.73287 -8.8290718 -109.53081 C -10.076158 -113.38544 -12.145472 -115.31237 -15.036445 -115.31237 z M -87.821149 -101.28274 C -85.837149 -101.28274 -84.363371 -100.68772 -83.399714 -99.497319 C -82.379371 -98.363604 -81.869058 -96.776539 -81.869058 -94.735852 C -81.869058 -92.695166 -82.379371 -91.107584 -83.399714 -89.973869 C -84.363371 -88.840154 -85.837149 -88.273198 -87.821149 -88.273198 C -89.80515 -88.273198 -91.306991 -88.840154 -92.327334 -89.973869 C -93.290992 -91.16427 -93.772724 -92.751852 -93.772724 -94.735852 C -93.772724 -96.833225 -93.290992 -98.448354 -92.327334 -99.582068 C -91.306991 -100.71578 -89.80515 -101.28274 -87.821149 -101.28274 z M -123.44792 -89.293807 C -125.82872 -89.293807 -128.40783 -88.330343 -131.18543 -86.403028 L -131.18543 -85.297669 C -131.18543 -79.118924 -130.50518 -74.583787 -129.14473 -71.692814 C -127.78427 -68.801842 -125.63025 -67.356645 -122.68259 -67.356645 C -120.2451 -67.356645 -118.37482 -68.291529 -117.07104 -70.162159 C -115.76727 -72.032788 -115.11509 -74.697123 -115.11509 -78.154952 C -115.11509 -81.669468 -115.85198 -84.390447 -117.32581 -86.317762 C -118.74295 -88.301762 -120.78369 -89.293807 -123.44792 -89.293807 z M -87.821149 -74.498845 C -85.837149 -74.498845 -84.363371 -73.903824 -83.399714 -72.713424 C -82.379371 -71.579709 -81.869058 -69.992127 -81.869058 -67.951441 C -81.869058 -65.910754 -82.379371 -64.323689 -83.399714 -63.189974 C -84.363371 -62.05626 -85.837149 -61.489303 -87.821149 -61.489303 C -89.80515 -61.489303 -91.306991 -62.05626 -92.327334 -63.189974 C -93.290992 -64.380375 -93.772724 -65.96744 -93.772724 -67.951441 C -93.772724 -70.048813 -93.290992 -71.664459 -92.327334 -72.798173 C -91.306991 -73.931888 -89.80515 -74.498845 -87.821149 -74.498845 z " /></g></svg>
