<?xml version="1.0" encoding="UTF-8" standalone="no"?>
<!-- Created with Inkscape (http://www.inkscape.org/) -->

<svg
   width="172.6701mm"
   height="172.6701mm"
   viewBox="0 0 172.6701 172.6701"
   version="1.1"
   id="svg1"
   xml:space="preserve"
   xmlns="http://www.w3.org/2000/svg"
   xmlns:svg="http://www.w3.org/2000/svg"><defs
     id="defs1" /><g
     id="layer1"
     transform="translate(157.25102,198.81012)"><path
       id="path5"
       style="fill:#ffffff;fill-opacity:1;stroke-width:0.805188;stroke-linecap:round;stroke-linejoin:round"
       d="M -2.0863309 -198.17657 L -10.088943 -183.11289 L -10.930235 -165.68398 L -19.198981 -165.68398 L -11.423229 -155.47426 L -12.166336 -140.07934 C -28.353216 -157.12094 -50.823548 -166.77435 -74.327399 -166.78417 C -103.64471 -166.77397 -130.92652 -151.79225 -146.66717 -127.05894 L -157.25102 -127.05894 L -149.61996 -115.86014 L -157.25102 -26.140039 L -8.5138455 -26.140039 L 15.419061 -26.140039 L 8.0799737 -154.80195 L 15.419061 -165.68398 L 7.4593397 -165.68398 L 6.4490654 -183.39297 L -2.0863309 -198.17657 z M -83.43072 -192.21621 C -85.584619 -189.65499 -86.77489 -186.4211 -86.795372 -183.07465 C -86.842092 -175.15518 -80.459903 -168.69733 -72.540428 -168.65072 C -64.621155 -168.60402 -58.163395 -174.98588 -58.116503 -182.90515 C -58.102813 -186.26049 -59.266203 -189.5144 -61.404157 -192.10045 C -60.83125 -190.6836 -60.536835 -189.16959 -60.537027 -187.64129 C -60.575787 -181.07411 -65.930869 -175.78172 -72.498054 -175.82031 C -79.065241 -175.85911 -84.357627 -181.21415 -84.319038 -187.78134 C -84.309338 -189.30285 -84.007827 -190.80837 -83.43072 -192.21621 z M -70.392756 -149.92783 C -59.026912 -149.92783 -49.978354 -147.11424 -43.247126 -141.48649 C -36.515898 -135.96909 -33.150068 -128.18953 -33.150068 -118.14786 C -33.150068 -109.32002 -36.515898 -99.885313 -43.247126 -89.843645 C -49.978354 -79.912324 -61.06821 -67.939103 -76.51693 -53.924907 L -31.991482 -53.924907 L -31.991482 -37.704191 L -106.97295 -37.704191 L -106.97295 -47.304122 C -94.724324 -59.111359 -85.179583 -69.208332 -78.338007 -77.59478 C -71.496431 -85.981228 -66.585486 -93.70577 -63.60609 -100.76804 C -60.516346 -107.83031 -58.971748 -115.11317 -58.971748 -122.61684 C -58.971748 -134.53442 -62.94431 -140.49327 -70.889366 -140.49327 C -74.420502 -140.49327 -77.289633 -138.83812 -79.496593 -135.52768 C -81.703553 -132.32759 -82.806985 -128.35502 -82.806985 -123.61006 C -82.806985 -120.29962 -81.64802 -117.15437 -79.330712 -114.17498 C -81.206628 -112.40941 -83.358475 -111.03038 -85.786131 -110.03724 C -88.10344 -109.04411 -90.420854 -108.54741 -92.738162 -108.54741 C -96.71069 -108.54741 -100.02099 -109.76139 -102.66934 -112.18905 C -105.31769 -114.72705 -106.64222 -118.36848 -106.64222 -123.11345 C -106.64222 -128.18946 -105.15212 -132.76875 -102.17273 -136.85163 C -99.193332 -140.9345 -95.000186 -144.13477 -89.593134 -146.45208 C -84.075734 -148.76938 -77.675724 -149.92783 -70.392756 -149.92783 z " /></g></svg>
