<?xml version="1.0" encoding="UTF-8" standalone="no"?>
<!-- Created with Inkscape (http://www.inkscape.org/) -->

<svg
   width="172.6701mm"
   height="172.6701mm"
   viewBox="0 0 172.6701 172.6701"
   version="1.1"
   id="svg1"
   xml:space="preserve"
   xmlns="http://www.w3.org/2000/svg"
   xmlns:svg="http://www.w3.org/2000/svg"><defs
     id="defs1" /><g
     id="layer1"
     transform="translate(157.25102,198.81012)"><path
       id="path5"
       style="fill:#ffffff;fill-opacity:1;stroke-width:0.805188;stroke-linecap:round;stroke-linejoin:round"
       d="M -2.0863309 -198.17657 L -10.088943 -183.11289 L -10.930235 -165.68398 L -19.198981 -165.68398 L -11.423229 -155.47426 L -12.166336 -140.07934 C -28.353216 -157.12094 -50.823548 -166.77435 -74.327399 -166.78417 C -103.64471 -166.77397 -130.92652 -151.79225 -146.66717 -127.05894 L -157.25102 -127.05894 L -149.61996 -115.86014 L -157.25102 -26.140039 L -8.5138455 -26.140039 L 15.419061 -26.140039 L 8.0799737 -154.80195 L 15.419061 -165.68398 L 7.4593397 -165.68398 L 6.4490654 -183.39297 L -2.0863309 -198.17657 z M -83.43072 -192.21621 C -85.584619 -189.65499 -86.77489 -186.4211 -86.795372 -183.07465 C -86.842092 -175.15518 -80.459903 -168.69733 -72.540428 -168.65072 C -64.621155 -168.60402 -58.163395 -174.98588 -58.116503 -182.90515 C -58.102813 -186.26049 -59.266203 -189.5144 -61.404157 -192.10045 C -60.83125 -190.6836 -60.536835 -189.16959 -60.537027 -187.64129 C -60.575787 -181.07411 -65.930869 -175.78172 -72.498054 -175.82031 C -79.065241 -175.85911 -84.357627 -181.21415 -84.319038 -187.78134 C -84.309338 -189.30285 -84.007827 -190.80837 -83.43072 -192.21621 z M -127.06165 -119.73381 C -123.37708 -119.73381 -120.11772 -119.11073 -117.28343 -117.86364 C -114.44915 -116.67324 -112.23848 -114.97237 -110.65128 -112.76163 C -109.06408 -110.60757 -108.27055 -108.11368 -108.27055 -105.27939 C -108.27055 -102.10499 -109.20543 -99.384015 -111.07606 -97.116586 C -112.94669 -94.849156 -115.72431 -93.120223 -119.40889 -91.929822 C -114.76066 -90.909479 -111.5013 -89.237189 -109.63067 -86.913074 C -107.76004 -84.588959 -106.82464 -81.442892 -106.82464 -77.474891 C -106.82464 -74.017061 -107.87333 -71.069506 -109.9707 -68.632019 C -112.01139 -66.194533 -114.67572 -64.380375 -117.9635 -63.189974 C -121.25127 -61.999574 -124.65249 -61.404554 -128.16701 -61.404554 C -133.26872 -61.404554 -137.60535 -62.453243 -141.17655 -64.550615 C -144.69106 -66.647987 -146.44806 -69.510317 -146.44806 -73.138204 C -146.44806 -75.235577 -145.82446 -76.851222 -144.57737 -77.984937 C -143.33029 -79.175337 -141.7718 -79.770358 -139.90117 -79.770358 C -137.97386 -79.770358 -136.01783 -79.005405 -134.03383 -77.474891 C -134.544 -76.397862 -134.79916 -75.094016 -134.79916 -73.563501 C -134.79916 -71.749558 -134.26078 -70.275781 -133.18376 -69.142066 C -132.05004 -68.008351 -130.37775 -67.441394 -128.16701 -67.441394 C -123.29203 -67.441394 -120.85479 -70.814037 -120.85479 -77.55964 C -120.85479 -81.244213 -122.04483 -84.10706 -124.42563 -86.147746 C -126.74975 -88.188433 -130.06575 -89.208541 -134.37386 -89.208541 L -134.37386 -94.480571 C -126.04106 -95.1608 -121.87488 -98.760535 -121.87488 -105.27939 C -121.87488 -108.56717 -122.3852 -110.97583 -123.40554 -112.50634 C -124.42588 -114.09354 -125.81444 -114.88759 -127.57169 -114.88759 C -129.66907 -114.88759 -131.25613 -114.15071 -132.33316 -112.67688 C -133.3535 -111.20305 -133.86382 -109.41747 -133.86382 -107.3201 C -133.86382 -105.44947 -133.46731 -103.77718 -132.67371 -102.30335 C -134.26091 -100.60278 -136.30164 -99.752084 -138.79582 -99.752084 C -141.06325 -99.752084 -142.82024 -100.43233 -144.06733 -101.79279 C -145.31441 -103.15324 -145.93802 -104.91076 -145.93802 -107.06482 C -145.93802 -109.8991 -144.97455 -112.25164 -143.04724 -114.12227 C -141.06324 -116.04958 -138.62548 -117.46671 -135.7345 -118.37369 C -132.78685 -119.28066 -129.89594 -119.73381 -127.06165 -119.73381 z M -14.143476 -119.56379 C -7.3978736 -119.56379 -2.2396529 -117.69351 1.3315484 -113.95225 C 4.9594354 -110.21099 6.7735934 -104.7971 6.7735934 -97.711381 C 6.7735934 -88.811721 3.9959708 -81.216258 -1.5592313 -74.924142 C -7.0577476 -68.688711 -15.050752 -64.09693 -25.537613 -61.149272 L -27.578315 -65.400692 C -21.909741 -67.838179 -17.346541 -70.956182 -13.888711 -74.754126 C -10.430881 -78.608756 -8.134991 -83.086732 -7.0012763 -88.188448 C -10.175678 -86.601248 -13.265101 -85.807715 -16.269444 -85.807715 C -21.938018 -85.807715 -26.415994 -87.338137 -29.703767 -90.399166 C -32.934853 -93.460196 -34.550499 -97.598308 -34.550499 -102.8134 C -34.550499 -106.04448 -33.700323 -108.93539 -31.99975 -111.48625 C -30.242493 -114.03711 -27.833314 -116.0212 -24.772285 -117.43834 C -21.654569 -118.85549 -18.111478 -119.56379 -14.143476 -119.56379 z M -71.453156 -119.05375 L -67.201736 -118.969 C -61.193048 -118.85563 -58.018401 -118.79847 -57.678286 -118.79847 L -45.604088 -118.969 L -43.138605 -117.18306 L -43.903417 -110.72092 L -64.990502 -110.72092 L -66.181127 -96.521273 C -63.233468 -97.258188 -60.569134 -97.626632 -58.188333 -97.626632 C -52.576445 -97.626632 -48.013245 -96.124274 -44.498729 -93.11993 C -40.927528 -90.172272 -39.14195 -85.836165 -39.14195 -80.110905 C -39.14195 -76.539704 -39.992127 -73.336993 -41.692699 -70.502706 C -43.336585 -67.66842 -45.7177 -65.429173 -48.835415 -63.785287 C -51.953131 -62.198086 -55.637574 -61.404554 -59.889004 -61.404554 C -63.346834 -61.404554 -66.492901 -61.886286 -69.327188 -62.849943 C -72.104789 -63.813601 -74.287391 -65.14551 -75.874592 -66.846082 C -77.461792 -68.60334 -78.255325 -70.559366 -78.255325 -72.713424 C -78.255325 -74.980853 -77.631724 -76.709787 -76.384638 -77.900188 C -75.137552 -79.147274 -73.607131 -79.770358 -71.793187 -79.770358 C -70.772844 -79.770358 -69.752219 -79.572362 -68.731875 -79.175562 C -67.654846 -78.778762 -66.691382 -78.211805 -65.841096 -77.474891 C -66.351267 -76.28449 -66.606424 -75.037289 -66.606424 -73.733517 C -66.606424 -71.862888 -66.067531 -70.332466 -64.990502 -69.142066 C -63.856787 -67.951665 -62.156434 -67.356645 -59.889004 -67.356645 C -54.787288 -67.356645 -52.236241 -71.608045 -52.236241 -80.110905 C -52.236241 -84.135593 -53.030291 -87.054567 -54.617491 -88.86851 C -56.204692 -90.73914 -58.330134 -91.674541 -60.994363 -91.674541 C -62.638249 -91.674541 -64.395763 -91.36274 -66.266393 -90.739197 C -68.137022 -90.115654 -69.979244 -89.236897 -71.793187 -88.103182 L -76.469388 -92.609884 L -74.25867 -116.75776 L -71.453156 -119.05375 z M -14.653522 -113.69697 C -17.091009 -113.69697 -18.961811 -112.76157 -20.265583 -110.89094 C -21.569355 -109.02031 -22.221536 -106.35597 -22.221536 -102.89814 C -22.221536 -99.383629 -21.512711 -96.634587 -20.095568 -94.650586 C -18.621738 -92.723271 -16.552941 -91.759807 -13.888711 -91.759807 C -11.564596 -91.759807 -8.984969 -92.723271 -6.1506823 -94.650586 L -6.1506823 -95.755945 C -6.1506823 -101.93469 -6.8309269 -106.46931 -8.1913846 -109.36028 C -9.5518422 -112.25126 -11.705864 -113.69697 -14.653522 -113.69697 z M -91.774913 -101.28274 C -89.790913 -101.28274 -88.317135 -100.68772 -87.353478 -99.497319 C -86.333134 -98.363604 -85.822822 -96.776539 -85.822822 -94.735852 C -85.822822 -92.695166 -86.333134 -91.107584 -87.353478 -89.973869 C -88.317135 -88.840154 -89.790913 -88.273198 -91.774913 -88.273198 C -93.758914 -88.273198 -95.260755 -88.840154 -96.281098 -89.973869 C -97.244756 -91.16427 -97.727005 -92.751852 -97.727005 -94.735852 C -97.727005 -96.833225 -97.244756 -98.448354 -96.281098 -99.582068 C -95.260755 -100.71578 -93.758914 -101.28274 -91.774913 -101.28274 z M -91.774913 -74.498845 C -89.790913 -74.498845 -88.317135 -73.903824 -87.353478 -72.713424 C -86.333134 -71.579709 -85.822822 -69.992127 -85.822822 -67.951441 C -85.822822 -65.910754 -86.333134 -64.323689 -87.353478 -63.189974 C -88.317135 -62.05626 -89.790913 -61.489303 -91.774913 -61.489303 C -93.758914 -61.489303 -95.260755 -62.05626 -96.281098 -63.189974 C -97.244756 -64.380375 -97.727005 -65.96744 -97.727005 -67.951441 C -97.727005 -70.048813 -97.244756 -71.664459 -96.281098 -72.798173 C -95.260755 -73.931888 -93.758914 -74.498845 -91.774913 -74.498845 z " /></g></svg>
