<?xml version="1.0" encoding="UTF-8" standalone="no"?>
<!-- Created with Inkscape (http://www.inkscape.org/) -->

<svg
   width="172.6701mm"
   height="172.6701mm"
   viewBox="0 0 172.6701 172.6701"
   version="1.1"
   id="svg1"
   xml:space="preserve"
   xmlns="http://www.w3.org/2000/svg"
   xmlns:svg="http://www.w3.org/2000/svg"><defs
     id="defs1" /><g
     id="layer1"
     transform="translate(157.25102,198.81012)"><path
       id="path5"
       style="fill:#ffffff;fill-opacity:1;stroke-width:0.805188;stroke-linecap:round;stroke-linejoin:round"
       d="M -2.0863309 -198.17657 L -10.088943 -183.11289 L -10.930235 -165.68398 L -19.198981 -165.68398 L -11.423229 -155.47426 L -12.166336 -140.07934 C -28.353216 -157.12094 -50.823548 -166.77435 -74.327399 -166.78417 C -103.64471 -166.77397 -130.92652 -151.79225 -146.66717 -127.05894 L -157.25102 -127.05894 L -149.61996 -115.86014 L -157.25102 -26.140039 L -8.5138455 -26.140039 L 15.419061 -26.140039 L 8.0799737 -154.80195 L 15.419061 -165.68398 L 7.4593397 -165.68398 L 6.4490654 -183.39297 L -2.0863309 -198.17657 z M -83.43072 -192.21621 C -85.584619 -189.65499 -86.77489 -186.4211 -86.795372 -183.07465 C -86.842092 -175.15518 -80.459903 -168.69733 -72.540428 -168.65072 C -64.621155 -168.60402 -58.163395 -174.98588 -58.116503 -182.90515 C -58.102813 -186.26049 -59.266203 -189.5144 -61.404157 -192.10045 C -60.83125 -190.6836 -60.536835 -189.16959 -60.537027 -187.64129 C -60.575787 -181.07411 -65.930869 -175.78172 -72.498054 -175.82031 C -79.065241 -175.85911 -84.357627 -181.21415 -84.319038 -187.78134 C -84.309338 -189.30285 -84.007827 -190.80837 -83.43072 -192.21621 z M -125.82865 -120.07436 C -121.29379 -119.84761 -117.60935 -118.85557 -114.77506 -117.09831 L -135.01155 -83.767013 L -122.00253 -83.767013 L -121.15193 -97.626632 C -119.33799 -97.626632 -118.03414 -97.995076 -117.24054 -98.731991 C -116.39026 -99.468905 -115.73859 -100.71611 -115.28511 -102.47336 L -110.43837 -102.47336 L -110.52364 -83.341716 C -108.36958 -82.718173 -105.6486 -82.066508 -102.36083 -81.38628 L -102.78613 -77.304875 L -110.94842 -77.304875 L -110.94842 -62.084615 L -122.00253 -62.084615 L -122.00253 -77.304875 L -146.5757 -77.304875 L -147.25576 -80.36567 L -125.82865 -120.07436 z M -55.93524 -119.73381 C -52.250668 -119.73381 -48.991313 -119.11073 -46.157026 -117.86364 C -43.322739 -116.67324 -41.111556 -114.97237 -39.524356 -112.76163 C -37.937155 -110.60757 -37.143623 -108.11368 -37.143623 -105.27939 C -37.143623 -102.10499 -38.079024 -99.384015 -39.949653 -97.116586 C -41.820282 -94.849156 -44.597905 -93.120223 -48.282478 -91.929822 C -43.634247 -90.909479 -40.374892 -89.237189 -38.504263 -86.913074 C -36.633634 -84.588959 -35.698233 -81.442892 -35.698233 -77.474891 C -35.698233 -74.017061 -36.746922 -71.069506 -38.844294 -68.632019 C -40.88498 -66.194533 -43.549315 -64.380375 -46.837088 -63.189974 C -50.12486 -61.999574 -53.526084 -61.404554 -57.040599 -61.404554 C -62.142315 -61.404554 -66.478423 -62.453243 -70.049624 -64.550615 C -73.56414 -66.647987 -75.321654 -69.510317 -75.321654 -73.138204 C -75.321654 -75.235577 -74.698053 -76.851222 -73.450967 -77.984937 C -72.203881 -79.175337 -70.644879 -79.770358 -68.77425 -79.770358 C -66.846935 -79.770358 -64.891425 -79.005405 -62.907425 -77.474891 C -63.417596 -76.397862 -63.672753 -75.094016 -63.672753 -73.563501 C -63.672753 -71.749558 -63.134376 -70.275781 -62.057347 -69.142066 C -60.923633 -68.008351 -59.251343 -67.441394 -57.040599 -67.441394 C -52.165626 -67.441394 -49.727867 -70.814037 -49.727867 -77.55964 C -49.727867 -81.244213 -50.918425 -84.10706 -53.299226 -86.147746 C -55.623341 -88.188433 -58.93934 -89.208541 -63.247456 -89.208541 L -63.247456 -94.480571 C -54.914652 -95.1608 -50.748477 -98.760535 -50.748477 -105.27939 C -50.748477 -108.56717 -51.25879 -110.97583 -52.279133 -112.50634 C -53.299476 -114.09354 -54.688029 -114.88759 -56.445287 -114.88759 C -58.542659 -114.88759 -60.129724 -114.15071 -61.206753 -112.67688 C -62.227096 -111.20305 -62.737409 -109.41747 -62.737409 -107.3201 C -62.737409 -105.44947 -62.340384 -103.77718 -61.546784 -102.30335 C -63.133985 -100.60278 -65.174719 -99.752084 -67.668891 -99.752084 C -69.93632 -99.752084 -71.693835 -100.43233 -72.940921 -101.79279 C -74.188007 -103.15324 -74.811608 -104.91076 -74.811608 -107.06482 C -74.811608 -109.8991 -73.847626 -112.25164 -71.920311 -114.12227 C -69.93631 -116.04958 -67.499068 -117.46671 -64.608096 -118.37369 C -61.660438 -119.28066 -58.769527 -119.73381 -55.93524 -119.73381 z M -30.936766 -118.88373 L -26.770096 -118.88373 C -24.616038 -118.82705 -19.911486 -118.79847 -12.655712 -118.79847 C -5.1165088 -118.79847 -0.21292776 -118.82705 2.0545016 -118.88373 L 6.1359063 -118.88373 L 7.8360609 -115.22762 C 6.7590319 -113.52705 4.7188147 -109.84261 1.7144707 -104.17404 C -1.2898732 -98.505463 -4.1246567 -92.496548 -6.7888862 -86.147746 C -9.4531158 -79.798944 -10.785025 -74.838719 -10.785025 -71.267517 C -10.785025 -68.433231 -9.7929797 -66.307789 -7.808979 -64.890646 C -9.736294 -62.566531 -12.202116 -61.404554 -15.20646 -61.404554 C -17.984061 -61.404554 -20.138083 -62.169506 -21.668598 -63.700021 C -23.199113 -65.230536 -23.964582 -67.356494 -23.964582 -70.077409 C -23.964582 -73.478553 -23.142469 -77.077772 -21.498583 -80.875717 C -19.854696 -84.730347 -16.907142 -89.945728 -12.655712 -96.521273 L -2.6222155 -111.9963 L -22.008629 -111.9963 C -22.802229 -109.44544 -23.283962 -106.44124 -23.454019 -102.98341 C -24.474362 -102.81335 -25.523051 -102.72813 -26.60008 -102.72813 C -27.733795 -102.72813 -28.839128 -102.81335 -29.916157 -102.98341 L -32.297407 -117.60836 L -30.936766 -118.88373 z M -87.650617 -101.28274 C -85.666616 -101.28274 -84.192839 -100.68772 -83.229182 -99.497319 C -82.208838 -98.363604 -81.699042 -96.776539 -81.699042 -94.735852 C -81.699042 -92.695166 -82.208838 -91.107584 -83.229182 -89.973869 C -84.192839 -88.840154 -85.666616 -88.273198 -87.650617 -88.273198 C -89.634618 -88.273198 -91.136976 -88.840154 -92.157319 -89.973869 C -93.120976 -91.16427 -93.602709 -92.751852 -93.602709 -94.735852 C -93.602709 -96.833225 -93.120976 -98.448354 -92.157319 -99.582068 C -91.136976 -100.71578 -89.634618 -101.28274 -87.650617 -101.28274 z M -87.650617 -74.498845 C -85.666616 -74.498845 -84.192839 -73.903824 -83.229182 -72.713424 C -82.208838 -71.579709 -81.699042 -69.992127 -81.699042 -67.951441 C -81.699042 -65.910754 -82.208838 -64.323689 -83.229182 -63.189974 C -84.192839 -62.05626 -85.666616 -61.489303 -87.650617 -61.489303 C -89.634618 -61.489303 -91.136976 -62.05626 -92.157319 -63.189974 C -93.120976 -64.380375 -93.602709 -65.96744 -93.602709 -67.951441 C -93.602709 -70.048813 -93.120976 -71.664459 -92.157319 -72.798173 C -91.136976 -73.931888 -89.634618 -74.498845 -87.650617 -74.498845 z " /></g></svg>
