<?xml version="1.0" encoding="UTF-8" standalone="no"?>
<!-- Created with Inkscape (http://www.inkscape.org/) -->

<svg
   width="172.6701mm"
   height="172.6701mm"
   viewBox="0 0 172.6701 172.6701"
   version="1.1"
   id="svg1"
   xml:space="preserve"
   xmlns="http://www.w3.org/2000/svg"
   xmlns:svg="http://www.w3.org/2000/svg"><defs
     id="defs1" /><g
     id="layer1"
     transform="translate(157.25102,198.81012)"><path
       id="path5"
       style="fill:#ffffff;fill-opacity:1;stroke-width:0.805188;stroke-linecap:round;stroke-linejoin:round"
       d="M -2.0863309 -198.17657 L -10.088943 -183.11289 L -10.930235 -165.68398 L -19.198981 -165.68398 L -11.423229 -155.47426 L -12.166336 -140.07934 C -28.353216 -157.12094 -50.823548 -166.77435 -74.327399 -166.78417 C -103.64471 -166.77397 -130.92652 -151.79225 -146.66717 -127.05894 L -157.25102 -127.05894 L -149.61996 -115.86014 L -157.25102 -26.140039 L -8.5138455 -26.140039 L 15.419061 -26.140039 L 8.0799737 -154.80195 L 15.419061 -165.68398 L 7.4593397 -165.68398 L 6.4490654 -183.39297 L -2.0863309 -198.17657 z M -83.43072 -192.21621 C -85.584619 -189.65499 -86.77489 -186.4211 -86.795372 -183.07465 C -86.842092 -175.15518 -80.459903 -168.69733 -72.540428 -168.65072 C -64.621155 -168.60402 -58.163395 -174.98588 -58.116503 -182.90515 C -58.102813 -186.26049 -59.266203 -189.5144 -61.404157 -192.10045 C -60.83125 -190.6836 -60.536835 -189.16959 -60.537027 -187.64129 C -60.575787 -181.07411 -65.930869 -175.78172 -72.498054 -175.82031 C -79.065241 -175.85911 -84.357627 -181.21415 -84.319038 -187.78134 C -84.309338 -189.30285 -84.007827 -190.80837 -83.43072 -192.21621 z M -62.057347 -120.07436 C -57.522489 -119.84761 -53.837528 -118.85557 -51.003242 -117.09831 L -71.240249 -83.767013 L -58.230708 -83.767013 L -57.38063 -97.626632 C -55.566687 -97.626632 -54.262841 -97.995076 -53.469241 -98.731991 C -52.618955 -99.468905 -51.967291 -100.71611 -51.513805 -102.47336 L -46.667072 -102.47336 L -46.751822 -83.341716 C -44.597764 -82.718173 -41.877302 -82.066508 -38.589529 -81.38628 L -39.014309 -77.304875 L -47.177119 -77.304875 L -47.177119 -62.084615 L -58.230708 -62.084615 L -58.230708 -77.304875 L -82.804401 -77.304875 L -83.484463 -80.36567 L -62.057347 -120.07436 z M -13.165758 -119.81908 C -7.2137558 -119.81908 -2.4806235 -118.54381 1.0338921 -115.99295 C 4.5484077 -113.44209 6.3059217 -110.01229 6.3059217 -105.70418 C 6.3059217 -103.38006 5.4552283 -101.05611 3.7546563 -98.731991 C 2.0540842 -96.407876 -0.18464538 -94.50901 -2.9622464 -93.035181 C 0.55226917 -91.334609 3.3013115 -89.350519 5.2853122 -87.08309 C 7.3259987 -84.81566 8.346624 -81.896169 8.346624 -78.324968 C 8.346624 -73.166566 6.475822 -69.057034 2.7345635 -65.996005 C -1.006695 -62.991661 -6.0516277 -61.489303 -12.40043 -61.489303 C -19.372775 -61.489303 -24.758089 -62.878373 -28.556033 -65.655974 C -32.297292 -68.433575 -34.168094 -72.401238 -34.168094 -77.55964 C -34.168094 -80.223869 -33.3174 -82.86014 -31.616828 -85.467684 C -29.916256 -88.131914 -27.535658 -90.483931 -24.474628 -92.524618 C -27.025486 -93.941761 -29.009576 -95.642631 -30.42672 -97.626632 C -31.843863 -99.610633 -32.552172 -102.07646 -32.552172 -105.02411 C -32.552172 -109.55897 -30.795174 -113.15871 -27.280659 -115.82294 C -23.766143 -118.48717 -19.061074 -119.81908 -13.165758 -119.81908 z M -147.001 -118.88373 L -142.83433 -118.88373 C -140.68027 -118.82705 -135.9752 -118.79847 -128.71943 -118.79847 C -121.18023 -118.79847 -116.27716 -118.82705 -114.00973 -118.88373 L -109.92833 -118.88373 L -108.22766 -115.22762 C -109.30468 -113.52705 -111.34542 -109.84261 -114.34976 -104.17404 C -117.35411 -98.505463 -120.18837 -92.496548 -122.8526 -86.147746 C -125.51683 -79.798944 -126.84874 -74.838719 -126.84874 -71.267517 C -126.84874 -68.433231 -125.85721 -66.307789 -123.87321 -64.890646 C -125.80053 -62.566531 -128.26635 -61.404554 -131.27069 -61.404554 C -134.04829 -61.404554 -136.20232 -62.169506 -137.73283 -63.700021 C -139.26335 -65.230536 -140.0283 -67.356494 -140.0283 -70.077409 C -140.0283 -73.478553 -139.2067 -77.077772 -137.56282 -80.875717 C -135.91893 -84.730347 -132.97086 -89.945728 -128.71943 -96.521273 L -118.68645 -111.9963 L -138.07286 -111.9963 C -138.86646 -109.44544 -139.3482 -106.44124 -139.51825 -102.98341 C -140.5386 -102.81335 -141.58728 -102.72813 -142.66431 -102.72813 C -143.79803 -102.72813 -144.90336 -102.81335 -145.98039 -102.98341 L -148.36112 -117.60836 L -147.001 -118.88373 z M -13.165758 -113.78224 C -15.433187 -113.78224 -17.218765 -113.04535 -18.522537 -111.57152 C -19.826309 -110.15437 -20.47849 -108.22693 -20.47849 -105.78944 C -20.47849 -103.63538 -19.656377 -101.84981 -18.012491 -100.43266 C -16.311918 -99.072205 -13.846096 -97.711715 -10.615009 -96.351258 C -9.1978659 -97.314915 -8.0639525 -98.646824 -7.2136665 -100.3474 C -6.3633805 -102.04797 -5.9382921 -103.86213 -5.9382921 -105.78944 C -5.9382921 -108.22693 -6.6185368 -110.15437 -7.9789944 -111.57152 C -9.2827664 -113.04535 -11.0117 -113.78224 -13.165758 -113.78224 z M -94.708068 -101.28274 C -92.724067 -101.28274 -91.250289 -100.68772 -90.286632 -99.497319 C -89.266289 -98.363604 -88.755976 -96.776539 -88.755976 -94.735852 C -88.755976 -92.695166 -89.266289 -91.107584 -90.286632 -89.973869 C -91.250289 -88.840154 -92.724067 -88.273198 -94.708068 -88.273198 C -96.692068 -88.273198 -98.194426 -88.840154 -99.214769 -89.973869 C -100.17843 -91.16427 -100.66016 -92.751852 -100.66016 -94.735852 C -100.66016 -96.833225 -100.17843 -98.448354 -99.214769 -99.582068 C -98.194426 -100.71578 -96.692068 -101.28274 -94.708068 -101.28274 z M -16.65185 -89.038526 C -18.352422 -87.678068 -19.599623 -86.119583 -20.393224 -84.362325 C -21.186824 -82.605068 -21.583849 -80.50769 -21.583849 -78.070203 C -21.583849 -74.725745 -20.761736 -72.089474 -19.117849 -70.162159 C -17.473963 -68.291529 -15.234717 -67.356645 -12.40043 -67.356645 C -9.622829 -67.356645 -7.468807 -68.291529 -5.9382921 -70.162159 C -4.3510916 -72.032788 -3.5575589 -74.640479 -3.5575589 -77.984937 C -3.5575589 -79.855566 -4.1525792 -81.442631 -5.3429796 -82.746403 C -6.4766943 -84.106861 -7.922408 -85.212194 -9.6796658 -86.06248 C -11.436924 -86.969452 -13.760878 -87.961497 -16.65185 -89.038526 z M -94.708068 -74.498845 C -92.724067 -74.498845 -91.250289 -73.903824 -90.286632 -72.713424 C -89.266289 -71.579709 -88.755976 -69.992127 -88.755976 -67.951441 C -88.755976 -65.910754 -89.266289 -64.323689 -90.286632 -63.189974 C -91.250289 -62.05626 -92.724067 -61.489303 -94.708068 -61.489303 C -96.692068 -61.489303 -98.194426 -62.05626 -99.214769 -63.189974 C -100.17843 -64.380375 -100.66016 -65.96744 -100.66016 -67.951441 C -100.66016 -70.048813 -100.17843 -71.664459 -99.214769 -72.798173 C -98.194426 -73.931888 -96.692068 -74.498845 -94.708068 -74.498845 z " /></g></svg>
