<?xml version="1.0" encoding="UTF-8" standalone="no"?>
<!-- Created with Inkscape (http://www.inkscape.org/) -->

<svg
   width="172.6701mm"
   height="172.6701mm"
   viewBox="0 0 172.6701 172.6701"
   version="1.1"
   id="svg1"
   xml:space="preserve"
   xmlns="http://www.w3.org/2000/svg"
   xmlns:svg="http://www.w3.org/2000/svg"><defs
     id="defs1" /><g
     id="layer1"
     transform="translate(157.25102,198.81012)"><path
       id="path5"
       style="fill:#ffffff;fill-opacity:1;stroke-width:0.805188;stroke-linecap:round;stroke-linejoin:round"
       d="M -2.0863309 -198.17657 L -10.088943 -183.11289 L -10.930235 -165.68398 L -19.198981 -165.68398 L -11.423229 -155.47426 L -12.166336 -140.07934 C -28.353216 -157.12094 -50.823548 -166.77435 -74.327399 -166.78417 C -103.64471 -166.77397 -130.92652 -151.79225 -146.66717 -127.05894 L -157.25102 -127.05894 L -149.61996 -115.86014 L -157.25102 -26.140039 L -8.5138455 -26.140039 L 15.419061 -26.140039 L 8.0799737 -154.80195 L 15.419061 -165.68398 L 7.4593397 -165.68398 L 6.4490654 -183.39297 L -2.0863309 -198.17657 z M -83.43072 -192.21621 C -85.584619 -189.65499 -86.77489 -186.4211 -86.795372 -183.07465 C -86.842092 -175.15518 -80.459903 -168.69733 -72.540428 -168.65072 C -64.621155 -168.60402 -58.163395 -174.98588 -58.116503 -182.90515 C -58.102813 -186.26049 -59.266203 -189.5144 -61.404157 -192.10045 C -60.83125 -190.6836 -60.536835 -189.16959 -60.537027 -187.64129 C -60.575787 -181.07411 -65.930869 -175.78172 -72.498054 -175.82031 C -79.065241 -175.85911 -84.357627 -181.21415 -84.319038 -187.78134 C -84.309338 -189.30285 -84.007827 -190.80837 -83.43072 -192.21621 z M -32.681363 -132.83999 C -21.145163 -132.83999 -12.320209 -128.50208 -6.2070096 -119.82528 C 0.0047901603 -111.24708 3.1102512 -98.773972 3.1102512 -82.406372 C 3.1102512 -66.038773 0.0047901603 -53.467278 -6.2070096 -44.691879 C -12.320209 -36.015079 -21.145163 -31.676652 -32.681363 -31.676652 C -44.217562 -31.676652 -53.09171 -36.015079 -59.30351 -44.691879 C -65.51531 -53.467278 -68.621288 -66.038773 -68.621288 -82.406372 C -68.621288 -98.675372 -65.51531 -111.14848 -59.30351 -119.82528 C -53.09171 -128.50208 -44.217562 -132.83999 -32.681363 -132.83999 z M -141.0918 -131.50932 L -133.8447 -131.50932 C -130.0979 -131.41072 -121.91402 -131.36101 -109.29322 -131.36101 C -96.179424 -131.36101 -87.650672 -131.41072 -83.706672 -131.50932 L -76.607364 -131.50932 L -73.649405 -125.1495 C -75.522805 -122.1915 -79.072567 -115.78225 -84.298367 -105.92225 C -89.524167 -96.06225 -94.453962 -85.610774 -99.088162 -74.567574 C -103.72236 -63.524375 -106.03968 -54.896716 -106.03968 -48.684917 C -106.03968 -43.754917 -104.31425 -40.05757 -100.86325 -37.59257 C -104.21565 -33.549971 -108.50488 -31.528858 -113.73068 -31.528858 C -118.56208 -31.528858 -122.30862 -32.859696 -124.97082 -35.521896 C -127.63302 -38.184096 -128.96437 -41.881959 -128.96437 -46.614759 C -128.96437 -52.530758 -127.53463 -58.791392 -124.67523 -65.397592 C -121.81583 -72.102391 -116.68822 -81.173835 -109.29322 -92.611434 L -91.841059 -119.52917 L -125.56251 -119.52917 C -126.94291 -115.09217 -127.78077 -109.86669 -128.07657 -103.85209 C -129.85137 -103.55629 -131.67571 -103.40819 -133.54911 -103.40819 C -135.52111 -103.40819 -137.44383 -103.55629 -139.31723 -103.85209 L -143.45858 -129.29085 L -141.0918 -131.50932 z M -32.681363 -125.29729 C -37.709962 -125.29729 -41.358114 -121.99402 -43.625914 -115.38782 C -45.795114 -108.78162 -46.879979 -97.787972 -46.879979 -82.406372 C -46.879979 -67.123373 -45.795114 -56.178917 -43.625914 -49.572718 C -41.358114 -43.065118 -37.709962 -39.81104 -32.681363 -39.81104 C -27.652763 -39.81104 -24.053806 -43.065118 -21.884606 -49.572718 C -19.616806 -56.178917 -18.482746 -67.123373 -18.482746 -82.406372 C -18.482746 -97.689372 -19.616806 -108.63383 -21.884606 -115.24003 C -24.053806 -121.94483 -27.652763 -125.29729 -32.681363 -125.29729 z " /></g></svg>
