<?xml version="1.0" encoding="UTF-8" standalone="no"?>
<!-- Created with Inkscape (http://www.inkscape.org/) -->

<svg
   width="172.6701mm"
   height="172.6701mm"
   viewBox="0 0 172.6701 172.6701"
   version="1.1"
   id="svg1"
   xml:space="preserve"
   xmlns="http://www.w3.org/2000/svg"
   xmlns:svg="http://www.w3.org/2000/svg"><defs
     id="defs1" /><g
     id="layer1"
     transform="translate(157.25102,198.81012)"><path
       id="path5"
       style="fill:#ffffff;fill-opacity:1;stroke-width:0.805188;stroke-linecap:round;stroke-linejoin:round"
       d="M -2.0863309 -198.17657 L -10.088943 -183.11289 L -10.930235 -165.68398 L -19.198981 -165.68398 L -11.423229 -155.47426 L -12.166336 -140.07934 C -28.353216 -157.12094 -50.823548 -166.77435 -74.327399 -166.78417 C -103.64471 -166.77397 -130.92652 -151.79225 -146.66717 -127.05894 L -157.25102 -127.05894 L -149.61996 -115.86014 L -157.25102 -26.140039 L -8.5138455 -26.140039 L 15.419061 -26.140039 L 8.0799737 -154.80195 L 15.419061 -165.68398 L 7.4593397 -165.68398 L 6.4490654 -183.39297 L -2.0863309 -198.17657 z M -83.43072 -192.21621 C -85.584619 -189.65499 -86.77489 -186.4211 -86.795372 -183.07465 C -86.842092 -175.15518 -80.459903 -168.69733 -72.540428 -168.65072 C -64.621155 -168.60402 -58.163395 -174.98588 -58.116503 -182.90515 C -58.102813 -186.26049 -59.266203 -189.5144 -61.404157 -192.10045 C -60.83125 -190.6836 -60.536835 -189.16959 -60.537027 -187.64129 C -60.575787 -181.07411 -65.930869 -175.78172 -72.498054 -175.82031 C -79.065241 -175.85911 -84.357627 -181.21415 -84.319038 -187.78134 C -84.309338 -189.30285 -84.007827 -190.80837 -83.43072 -192.21621 z M -106.26137 -134.72153 C -95.908368 -134.72153 -87.6753 -132.50312 -81.5621 -128.06612 C -75.4489 -123.62912 -72.392117 -117.66365 -72.392117 -110.17005 C -72.392117 -106.12745 -73.871572 -102.08523 -76.829572 -98.042627 C -79.787572 -94.000027 -83.682214 -90.696755 -88.513614 -88.133155 C -82.400414 -85.175155 -77.618202 -81.724298 -74.167202 -77.780298 C -70.617603 -73.836298 -68.842463 -68.758402 -68.842463 -62.546603 C -68.842463 -53.574003 -72.096541 -46.425283 -78.604141 -41.100883 C -85.111741 -35.875084 -93.886983 -33.262085 -104.93018 -33.262085 C -117.05798 -33.262085 -126.42511 -35.677788 -133.03131 -40.509188 C -139.53891 -45.340588 -142.79247 -52.242818 -142.79247 -61.215418 C -142.79247 -65.849618 -141.31353 -70.434534 -138.35553 -74.970134 C -135.39753 -79.604334 -131.2564 -83.69627 -125.932 -87.24587 C -130.369 -89.71087 -133.82037 -92.668747 -136.28537 -96.119747 C -138.75037 -99.570747 -139.98282 -103.85998 -139.98282 -108.98718 C -139.98282 -116.87518 -136.92604 -123.13633 -130.81284 -127.77053 C -124.69964 -132.40473 -116.51577 -134.72153 -106.26137 -134.72153 z M -60.560281 -133.09475 L -53.313178 -133.09475 C -49.566378 -132.99615 -41.382505 -132.94696 -28.761705 -132.94696 C -15.647906 -132.94696 -7.1191531 -132.99615 -3.1751533 -133.09475 L 3.924155 -133.09475 L 6.882114 -126.73493 C 5.008714 -123.77693 1.4589513 -117.3682 -3.7668485 -107.5082 C -8.9926482 -97.6482 -13.922444 -87.196724 -18.556643 -76.153524 C -23.190843 -65.110325 -25.508157 -56.482666 -25.508157 -50.270866 C -25.508157 -45.340866 -23.782729 -41.64352 -20.331729 -39.17852 C -23.684129 -35.13592 -27.972844 -33.114291 -33.198644 -33.114291 C -38.030043 -33.114291 -41.777101 -34.445646 -44.439301 -37.107845 C -47.101501 -39.770045 -48.432339 -43.467392 -48.432339 -48.200192 C -48.432339 -54.116191 -47.003112 -60.377341 -44.143712 -66.983541 C -41.284312 -73.688341 -36.156705 -82.759268 -28.761705 -94.196867 L -11.309541 -121.11512 L -45.030996 -121.11512 C -46.411396 -116.67812 -47.249255 -111.45212 -47.545055 -105.43752 C -49.319855 -105.14172 -51.144189 -104.99362 -53.017589 -104.99362 C -54.989589 -104.99362 -56.912312 -105.14172 -58.785712 -105.43752 L -62.926545 -130.87628 L -60.560281 -133.09475 z M -106.26137 -124.22087 C -110.20537 -124.22087 -113.31135 -122.93923 -115.57915 -120.37563 C -117.84694 -117.91063 -118.981 -114.55816 -118.981 -110.31836 C -118.981 -106.57156 -117.55126 -103.46559 -114.69186 -101.00059 C -111.73386 -98.634186 -107.44463 -96.267678 -101.82443 -93.901278 C -99.359429 -95.577478 -97.387511 -97.894792 -95.908511 -100.85279 C -94.429511 -103.81079 -93.690042 -106.96596 -93.690042 -110.31836 C -93.690042 -114.55816 -94.873296 -117.91063 -97.239696 -120.37563 C -99.507496 -122.93923 -102.51457 -124.22087 -106.26137 -124.22087 z M -112.32508 -81.182158 C -115.28308 -78.815758 -117.45229 -76.103854 -118.83269 -73.047254 C -120.21309 -69.990654 -120.90337 -66.342502 -120.90337 -62.102702 C -120.90337 -56.285302 -119.47362 -51.700386 -116.61422 -48.347986 C -113.75482 -45.094186 -109.86018 -43.467664 -104.93018 -43.467664 C -100.09878 -43.467664 -96.352242 -45.094186 -93.690042 -48.347986 C -90.929242 -51.601786 -89.548693 -56.137508 -89.548693 -61.954908 C -89.548693 -65.208707 -90.583846 -67.969289 -92.654446 -70.237089 C -94.626446 -72.603489 -97.141055 -74.526213 -100.19765 -76.005213 C -103.25425 -77.582813 -107.29648 -79.308758 -112.32508 -81.182158 z " /></g></svg>
