<?xml version="1.0" encoding="UTF-8" standalone="no"?>
<!-- Created with Inkscape (http://www.inkscape.org/) -->

<svg
   width="172.6701mm"
   height="172.6701mm"
   viewBox="0 0 172.6701 172.6701"
   version="1.1"
   id="svg1"
   xml:space="preserve"
   xmlns="http://www.w3.org/2000/svg"
   xmlns:svg="http://www.w3.org/2000/svg"><defs
     id="defs1" /><g
     id="layer1"
     transform="translate(157.25102,198.81012)"><path
       id="path5"
       style="fill:#ffffff;fill-opacity:1;stroke-width:0.805188;stroke-linecap:round;stroke-linejoin:round"
       d="M -2.0863309 -198.17657 L -10.088943 -183.11289 L -10.930235 -165.68398 L -19.198981 -165.68398 L -11.423229 -155.47426 L -12.166336 -140.07934 C -28.353216 -157.12094 -50.823548 -166.77435 -74.327399 -166.78417 C -103.64471 -166.77397 -130.92652 -151.79225 -146.66717 -127.05894 L -157.25102 -127.05894 L -149.61996 -115.86014 L -157.25102 -26.140039 L -8.5138455 -26.140039 L 15.419061 -26.140039 L 8.0799737 -154.80195 L 15.419061 -165.68398 L 7.4593397 -165.68398 L 6.4490654 -183.39297 L -2.0863309 -198.17657 z M -83.43072 -192.21621 C -85.584619 -189.65499 -86.77489 -186.4211 -86.795372 -183.07465 C -86.842092 -175.15518 -80.459903 -168.69733 -72.540428 -168.65072 C -64.621155 -168.60402 -58.163395 -174.98588 -58.116503 -182.90515 C -58.102813 -186.26049 -59.266203 -189.5144 -61.404157 -192.10045 C -60.83125 -190.6836 -60.536835 -189.16959 -60.537027 -187.64129 C -60.575787 -181.07411 -65.930869 -175.78172 -72.498054 -175.82031 C -79.065241 -175.85911 -84.357627 -181.21415 -84.319038 -187.78134 C -84.309338 -189.30285 -84.007827 -190.80837 -83.43072 -192.21621 z M -15.546491 -119.81908 C -9.594489 -119.81908 -4.8613567 -118.54381 -1.3468411 -115.99295 C 2.1676744 -113.44209 3.9251885 -110.01229 3.9251885 -105.70418 C 3.9251885 -103.38006 3.0750119 -101.05611 1.3744398 -98.731991 C -0.32613225 -96.407876 -2.5653786 -94.50901 -5.3429796 -93.035181 C -1.8284641 -91.334609 0.92057823 -89.350519 2.904579 -87.08309 C 4.9452654 -84.81566 5.9658908 -81.896169 5.9658908 -78.324968 C 5.9658908 -73.166566 4.0950888 -69.057034 0.35383026 -65.996005 C -3.3874283 -62.991661 -8.4323609 -61.489303 -14.781163 -61.489303 C -21.753509 -61.489303 -27.138822 -62.878373 -30.936766 -65.655974 C -34.678025 -68.433575 -36.54831 -72.401238 -36.54831 -77.55964 C -36.54831 -80.223869 -35.698133 -82.86014 -33.997561 -85.467684 C -32.296989 -88.131914 -29.916391 -90.483931 -26.855362 -92.524618 C -29.40622 -93.941761 -31.39031 -95.642631 -32.807453 -97.626632 C -34.224596 -99.610633 -34.932905 -102.07646 -34.932905 -105.02411 C -34.932905 -109.55897 -33.175907 -113.15871 -29.661392 -115.82294 C -26.146876 -118.48717 -21.441808 -119.81908 -15.546491 -119.81908 z M -61.547301 -119.64906 C -54.91507 -119.64906 -49.841557 -117.15466 -46.327041 -112.16631 C -42.75584 -107.23465 -40.970262 -100.06428 -40.970262 -90.654448 C -40.970262 -81.244616 -42.75584 -74.017081 -46.327041 -68.97205 C -49.841557 -63.983706 -54.91507 -61.489303 -61.547301 -61.489303 C -68.179532 -61.489303 -73.281109 -63.983706 -76.85231 -68.97205 C -80.423511 -74.017081 -82.209089 -81.244616 -82.209089 -90.654448 C -82.209089 -100.00759 -80.423511 -107.17797 -76.85231 -112.16631 C -73.281109 -117.15466 -68.179532 -119.64906 -61.547301 -119.64906 z M -123.53318 -119.13901 L -120.72715 -117.86364 L -120.72715 -68.716769 C -119.65012 -68.093226 -117.94925 -67.526269 -115.62514 -67.016097 C -113.30102 -66.562611 -111.4588 -66.279392 -110.09834 -66.16602 L -110.35362 -62.084615 L -145.04505 -62.084615 L -144.87503 -66.16602 C -139.83 -66.732877 -135.97563 -67.583054 -133.3114 -68.716769 L -133.3114 -109.44555 L -144.70502 -109.44555 L -144.70502 -114.37703 C -141.07713 -114.66046 -137.33604 -115.19935 -133.48141 -115.99295 C -129.62678 -116.84324 -126.31078 -117.89193 -123.53318 -119.13901 z M -61.547301 -115.31237 C -64.438273 -115.31237 -66.535135 -113.41351 -67.838907 -109.61556 C -69.085993 -105.81762 -69.709593 -99.497422 -69.709593 -90.654448 C -69.709593 -81.868159 -69.085993 -75.576025 -67.838907 -71.778081 C -66.535135 -68.036822 -64.438273 -66.16602 -61.547301 -66.16602 C -58.656328 -66.16602 -56.587014 -68.036822 -55.339928 -71.778081 C -54.036156 -75.576025 -53.384492 -81.868159 -53.384492 -90.654448 C -53.384492 -99.440737 -54.036156 -105.73287 -55.339928 -109.53081 C -56.587014 -113.38544 -58.656328 -115.31237 -61.547301 -115.31237 z M -15.546491 -113.78224 C -17.813921 -113.78224 -19.599498 -113.04535 -20.90327 -111.57152 C -22.207042 -110.15437 -22.858706 -108.22693 -22.858706 -105.78944 C -22.858706 -103.63538 -22.03711 -101.84981 -20.393224 -100.43266 C -18.692652 -99.072205 -16.226829 -97.711715 -12.995742 -96.351258 C -11.578599 -97.314915 -10.444686 -98.646824 -9.5943997 -100.3474 C -8.7441137 -102.04797 -8.3190254 -103.86213 -8.3190254 -105.78944 C -8.3190254 -108.22693 -8.99927 -110.15437 -10.359728 -111.57152 C -11.6635 -113.04535 -13.392433 -113.78224 -15.546491 -113.78224 z M -95.388646 -101.28274 C -93.404645 -101.28274 -91.930868 -100.68772 -90.967211 -99.497319 C -89.946867 -98.363604 -89.436555 -96.776539 -89.436555 -94.735852 C -89.436555 -92.695166 -89.946867 -91.107584 -90.967211 -89.973869 C -91.930868 -88.840154 -93.404645 -88.273198 -95.388646 -88.273198 C -97.372647 -88.273198 -98.874488 -88.840154 -99.894831 -89.973869 C -100.85849 -91.16427 -101.34074 -92.751852 -101.34074 -94.735852 C -101.34074 -96.833225 -100.85849 -98.448354 -99.894831 -99.582068 C -98.874488 -100.71578 -97.372647 -101.28274 -95.388646 -101.28274 z M -19.032583 -89.038526 C -20.733155 -87.678068 -21.980357 -86.119583 -22.773957 -84.362325 C -23.567557 -82.605068 -23.964582 -80.50769 -23.964582 -78.070203 C -23.964582 -74.725745 -23.142469 -72.089474 -21.498583 -70.162159 C -19.854696 -68.291529 -17.61545 -67.356645 -14.781163 -67.356645 C -12.003562 -67.356645 -9.8495402 -68.291529 -8.3190254 -70.162159 C -6.7318248 -72.032788 -5.9382921 -74.640479 -5.9382921 -77.984937 C -5.9382921 -79.855566 -6.5333124 -81.442631 -7.7237129 -82.746403 C -8.8574276 -84.106861 -10.303141 -85.212194 -12.060399 -86.06248 C -13.817657 -86.969452 -16.141611 -87.961497 -19.032583 -89.038526 z M -95.388646 -74.498845 C -93.404645 -74.498845 -91.930868 -73.903824 -90.967211 -72.713424 C -89.946867 -71.579709 -89.436555 -69.992127 -89.436555 -67.951441 C -89.436555 -65.910754 -89.946867 -64.323689 -90.967211 -63.189974 C -91.930868 -62.05626 -93.404645 -61.489303 -95.388646 -61.489303 C -97.372647 -61.489303 -98.874488 -62.05626 -99.894831 -63.189974 C -100.85849 -64.380375 -101.34074 -65.96744 -101.34074 -67.951441 C -101.34074 -70.048813 -100.85849 -71.664459 -99.894831 -72.798173 C -98.874488 -73.931888 -97.372647 -74.498845 -95.388646 -74.498845 z " /></g></svg>
