<?xml version="1.0" encoding="UTF-8" standalone="no"?>
<!-- Created with Inkscape (http://www.inkscape.org/) -->

<svg
   width="200.56908mm"
   height="206.32141mm"
   viewBox="0 0 200.56907 206.32141"
   version="1.1"
   id="svg1"
   xml:space="preserve"
   xmlns="http://www.w3.org/2000/svg"
   xmlns:svg="http://www.w3.org/2000/svg"><defs
     id="defs1" /><g
     id="layer1"
     transform="translate(339.71074,168.08573)"><text
       xml:space="preserve"
       style="font-style:normal;font-variant:normal;font-weight:bold;font-stretch:normal;font-size:8.46667px;font-family:Caladea;-inkscape-font-specification:'Caladea, Bold';font-variant-ligatures:normal;font-variant-caps:normal;font-variant-numeric:normal;font-variant-east-asian:normal;text-align:center;writing-mode:lr-tb;direction:ltr;text-anchor:middle;fill:#000000;fill-opacity:1;stroke-width:0.799999;stroke-linecap:round;stroke-linejoin:round"
       x="-227.4167"
       y="-90.588478"
       id="text11"><tspan
         id="tspan11"
         style="stroke-width:0.8"
         x="-227.4167"
         y="-90.588478"></tspan></text><path
       style="fill:#ffffff;fill-opacity:1"
       d="m -261.91537,37.962184 c -1.17811,-0.47018 -2.27726,-1.487125 -2.7277,-2.523705 -0.26326,-0.605817 -1.19833,-6.377756 -2.30813,-14.247548 -1.02608,-7.276042 -1.92574,-13.5268235 -1.99925,-13.8906256 -0.11087,-0.548703 -0.70657,-0.9320713 -3.49454,-2.2489584 -4.01753,-1.8976603 -8.59909,-4.58071127 -11.72483,-6.8662929 l -2.28092,-1.6678311 -13.07012,5.2479697 c -11.10759,4.4599649 -13.28028,5.2496635 -14.46973,5.2592496 -1.47119,0.011857 -3.01706,-0.5926561 -3.7896,-1.4819202 -0.54942,-0.632432 -21.30681,-36.5881021 -21.66233,-37.5231911 -0.3495,-0.919255 -0.34285,-2.820475 0.0132,-3.76274 0.15478,-0.409656 0.57478,-1.052433 0.93335,-1.428394 0.35856,-0.375961 5.52837,-4.483617 11.48846,-9.128125 l 10.83653,-8.44456 -0.19436,-2.248958 c -0.251,-2.904393 -0.251,-12.970608 0,-15.875001 l 0.19436,-2.248958 -10.83653,-8.44456 c -5.96009,-4.644508 -11.1299,-8.752164 -11.48846,-9.128125 -0.87963,-0.922305 -1.21477,-1.904222 -1.21477,-3.559119 0,-1.253675 0.20979,-1.750573 2.19888,-5.208301 15.87009,-27.58767 19.62286,-33.9217 20.48946,-34.58269 0.70992,-0.54149 1.29863,-0.728 2.54918,-0.80763 1.59214,-0.10138 1.90188,0.007 14.84399,5.19044 l 13.21791,5.29399 0.9331,-0.73708 c 2.31875,-1.8316 7.90311,-5.24191 11.67808,-7.13166 2.27171,-1.13722 4.27422,-2.11562 4.45001,-2.17422 0.20911,-0.0697 1.00012,-4.90752 2.28764,-13.99109 1.41423,-9.97752 2.11421,-14.19846 2.48755,-15.00013 0.3209,-0.68907 0.94498,-1.39718 1.63232,-1.85209 l 1.1128,-0.73649 22.06389,-0.0706 c 21.17812,-0.0678 22.10947,-0.0505 23.19918,0.43158 1.12102,0.49588 2.31866,1.77859 2.63363,2.82069 0.0891,0.2947 1.05528,6.77651 2.14712,14.40402 1.8829,13.15374 2.10844,14.27853 2.86586,14.29256 0.1203,0.002 1.85145,0.82123 3.847,1.82 3.98652,1.99523 7.2,3.92025 10.57539,6.33514 l 2.2057,1.57804 13.05374,-5.26144 c 11.04646,-4.45238 13.2619,-5.26143 14.40745,-5.26143 1.4162,0 2.97349,0.61887 3.75735,1.4932 0.42684,0.47609 20.2726,34.68547 21.37103,36.838569 0.72636,1.423779 0.74107,3.810545 0.0307,4.975635 -0.64328,1.055007 -1.72752,1.944476 -13.48734,11.064468 l -9.55271,7.408333 0.14189,1.190625 c 0.66367,5.568943 0.66367,12.422725 0,17.991667 l -0.14189,1.190625 9.55271,7.408334 c 11.75982,9.119991 12.84406,10.00946 13.48734,11.064467 0.75306,1.235024 0.69701,3.547712 -0.12481,5.150058 -0.35203,0.686386 -5.22052,9.165632 -10.81886,18.842767 -7.6955,13.30223 -10.41421,17.7855354 -11.14374,18.3766295 -0.78654,0.6372938 -1.27168,0.8013697 -2.62416,0.887489 -1.63737,0.1042596 -1.83218,0.035936 -14.78326,-5.1847373 l -13.12403,-5.2903892 -2.07409,1.4705731 c -3.40401,2.41351255 -7.34878,4.7605382 -11.19805,6.6625195 -1.99476,0.9856397 -3.76342,1.8378714 -3.93035,1.8938483 -0.18747,0.062864 -1.06329,5.4100221 -2.29076,13.9857471 -1.09298,7.636184 -2.06012,14.12509 -2.14919,14.419792 -0.30868,1.021292 -1.49952,2.315576 -2.58336,2.807768 -1.03612,0.470521 -2.14992,0.494024 -22.91717,0.483596 -13.69755,-0.0069 -22.07156,-0.108114 -22.48168,-0.27179 z m 30.85176,-67.795206 c 7.11985,-1.803333 12.71694,-5.060393 17.75865,-10.334109 9.29065,-9.718189 12.33751,-23.508579 8.0328,-36.357273 -3.32364,-9.920389 -11.2329,-18.175286 -21.06466,-21.985174 -13.77293,-5.337122 -29.10256,-1.874892 -39.27352,8.870029 -11.50653,12.15586 -13.09891,30.684229 -3.83324,44.602353 4.75399,7.141043 12.0618,12.508663 20.11881,14.77735 4.00541,1.127842 5.53886,1.300155 10.68483,1.200655 4.17857,-0.0808 5.28716,-0.194024 7.57633,-0.773831 z"
       id="path11" /></g></svg>
