<?xml version="1.0" encoding="UTF-8" standalone="no"?>
<!-- Created with Inkscape (http://www.inkscape.org/) -->

<svg
   width="172.6701mm"
   height="172.6701mm"
   viewBox="0 0 172.6701 172.6701"
   version="1.1"
   id="svg1"
   xml:space="preserve"
   xmlns="http://www.w3.org/2000/svg"
   xmlns:svg="http://www.w3.org/2000/svg"><defs
     id="defs1" /><g
     id="layer1"
     transform="translate(157.25102,198.81012)"><path
       id="path5"
       style="fill:#ffffff;fill-opacity:1;stroke-width:0.805188;stroke-linecap:round;stroke-linejoin:round"
       d="M -2.0863309 -198.17657 L -10.088943 -183.11289 L -10.930235 -165.68398 L -19.198981 -165.68398 L -11.423229 -155.47426 L -12.166336 -140.07934 C -28.353216 -157.12094 -50.823548 -166.77435 -74.327399 -166.78417 C -103.64471 -166.77397 -130.92652 -151.79225 -146.66717 -127.05894 L -157.25102 -127.05894 L -149.61996 -115.86014 L -157.25102 -26.140039 L -8.5138455 -26.140039 L 15.419061 -26.140039 L 8.0799737 -154.80195 L 15.419061 -165.68398 L 7.4593397 -165.68398 L 6.4490654 -183.39297 L -2.0863309 -198.17657 z M -83.43072 -192.21621 C -85.584619 -189.65499 -86.77489 -186.4211 -86.795372 -183.07465 C -86.842092 -175.15518 -80.459903 -168.69733 -72.540428 -168.65072 C -64.621155 -168.60402 -58.163395 -174.98588 -58.116503 -182.90515 C -58.102813 -186.26049 -59.266203 -189.5144 -61.404157 -192.10045 C -60.83125 -190.6836 -60.536835 -189.16959 -60.537027 -187.64129 C -60.575787 -181.07411 -65.930869 -175.78172 -72.498054 -175.82031 C -79.065241 -175.85911 -84.357627 -181.21415 -84.319038 -187.78134 C -84.309338 -189.30285 -84.007827 -190.80837 -83.43072 -192.21621 z M -32.385773 -133.11335 C -21.373655 -133.11335 -12.949929 -128.97193 -7.1144477 -120.68931 C -1.1848457 -112.50081 1.7800998 -100.59459 1.7800998 -84.970557 C 1.7800998 -69.346526 -1.1848457 -57.345876 -7.1144477 -48.969137 C -12.949929 -40.686518 -21.373655 -36.545089 -32.385773 -36.545089 C -43.397891 -36.545089 -51.869091 -40.686518 -57.798693 -48.969137 C -63.728295 -57.345876 -66.692723 -69.346526 -66.692723 -84.970557 C -66.692723 -100.50047 -63.728295 -112.40669 -57.798693 -120.68931 C -51.869091 -128.97193 -43.397891 -133.11335 -32.385773 -133.11335 z M -128.24762 -132.12478 L -121.18862 -131.98371 C -111.21183 -131.79547 -105.94139 -131.70104 -105.37667 -131.70104 L -85.328795 -131.98371 L -81.234471 -129.01903 L -82.505195 -118.28894 L -117.51804 -118.28894 L -119.49467 -94.712081 C -114.60039 -95.93565 -110.17671 -96.547111 -106.22364 -96.547111 C -96.905698 -96.547111 -89.32873 -94.053276 -83.493248 -89.064881 C -77.563646 -84.170606 -74.599217 -76.970319 -74.599217 -67.464132 C -74.599217 -61.53453 -76.010998 -56.216617 -78.834618 -51.510584 C -81.564117 -46.804551 -85.517206 -43.086759 -90.693842 -40.357259 C -95.870479 -37.721881 -101.98819 -36.404012 -109.04724 -36.404012 C -114.7886 -36.404012 -120.01209 -37.204331 -124.71812 -38.804383 C -129.33003 -40.404434 -132.95391 -42.616017 -135.58929 -45.439637 C -138.22467 -48.357377 -139.54254 -51.604576 -139.54254 -55.181161 C -139.54254 -58.945988 -138.50692 -61.816504 -136.43627 -63.793038 C -134.36562 -65.863693 -131.82431 -66.899309 -128.81245 -66.899309 C -127.11827 -66.899309 -125.42424 -66.569583 -123.73007 -65.910738 C -121.94178 -65.251894 -120.34165 -64.310707 -118.92984 -63.087138 C -119.77693 -61.110604 -120.20057 -59.03989 -120.20057 -56.875114 C -120.20057 -53.769132 -119.30634 -51.228341 -117.51804 -49.251807 C -115.63563 -47.275273 -112.81207 -46.286613 -109.04724 -46.286613 C -100.57638 -46.286613 -96.341043 -53.346032 -96.341043 -67.464132 C -96.341043 -74.146699 -97.658394 -78.993502 -100.29377 -82.005363 C -102.92915 -85.111345 -106.45912 -86.66451 -110.88279 -86.66451 C -113.61229 -86.66451 -116.52976 -86.146961 -119.63574 -85.111634 C -122.74173 -84.076306 -125.80058 -82.61757 -128.81245 -80.735157 L -136.57735 -88.217387 L -132.90677 -128.31313 L -128.24762 -132.12478 z M -32.385773 -125.91276 C -37.185927 -125.91276 -40.668422 -122.75999 -42.833198 -116.45391 C -44.903852 -110.14782 -45.939468 -99.653381 -45.939468 -84.970557 C -45.939468 -70.381854 -44.903852 -59.934369 -42.833198 -53.628284 C -40.668422 -47.41632 -37.185927 -44.310507 -32.385773 -44.310507 C -27.585619 -44.310507 -24.15008 -47.41632 -22.079426 -53.628284 C -19.91465 -59.934369 -18.832596 -70.381854 -18.832596 -84.970557 C -18.832596 -99.55926 -19.91465 -110.00623 -22.079426 -116.31231 C -24.15008 -122.71252 -27.585619 -125.91276 -32.385773 -125.91276 z " /></g></svg>
