<?xml version="1.0" encoding="UTF-8" standalone="no"?>
<!-- Created with Inkscape (http://www.inkscape.org/) -->

<svg
   width="172.6701mm"
   height="172.6701mm"
   viewBox="0 0 172.6701 172.6701"
   version="1.1"
   id="svg1"
   xml:space="preserve"
   xmlns="http://www.w3.org/2000/svg"
   xmlns:svg="http://www.w3.org/2000/svg"><defs
     id="defs1" /><g
     id="layer1"
     transform="translate(157.25102,198.81012)"><path
       id="path5"
       style="fill:#ffffff;fill-opacity:1;stroke-width:0.805188;stroke-linecap:round;stroke-linejoin:round"
       d="M -2.0863309 -198.17657 L -10.088943 -183.11289 L -10.930235 -165.68398 L -19.198981 -165.68398 L -11.423229 -155.47426 L -12.166336 -140.07934 C -28.353216 -157.12094 -50.823548 -166.77435 -74.327399 -166.78417 C -103.64471 -166.77397 -130.92652 -151.79225 -146.66717 -127.05894 L -157.25102 -127.05894 L -149.61996 -115.86014 L -157.25102 -26.140039 L -8.5138455 -26.140039 L 15.419061 -26.140039 L 8.0799737 -154.80195 L 15.419061 -165.68398 L 7.4593397 -165.68398 L 6.4490654 -183.39297 L -2.0863309 -198.17657 z M -83.43072 -192.21621 C -85.584619 -189.65499 -86.77489 -186.4211 -86.795372 -183.07465 C -86.842092 -175.15518 -80.459903 -168.69733 -72.540428 -168.65072 C -64.621155 -168.60402 -58.163395 -174.98588 -58.116503 -182.90515 C -58.102813 -186.26049 -59.266203 -189.5144 -61.404157 -192.10045 C -60.83125 -190.6836 -60.536835 -189.16959 -60.537027 -187.64129 C -60.575787 -181.07411 -65.930869 -175.78172 -72.498054 -175.82031 C -79.065241 -175.85911 -84.357627 -181.21415 -84.319038 -187.78134 C -84.309338 -189.30285 -84.007827 -190.80837 -83.43072 -192.21621 z M -126.89163 -120.07436 C -122.35677 -119.84761 -118.67233 -118.85557 -115.83804 -117.09831 L -136.07453 -83.767013 L -123.06551 -83.767013 L -122.21492 -97.626632 C -120.40097 -97.626632 -119.09713 -97.995076 -118.30353 -98.731991 C -117.45324 -99.468905 -116.80158 -100.71611 -116.34809 -102.47336 L -111.50136 -102.47336 L -111.58662 -83.341716 C -109.43257 -82.718173 -106.71159 -82.066508 -103.42381 -81.38628 L -103.84859 -77.304875 L -112.0114 -77.304875 L -112.0114 -62.084615 L -123.06551 -62.084615 L -123.06551 -77.304875 L -147.63869 -77.304875 L -148.31875 -80.36567 L -126.89163 -120.07436 z M -56.657677 -119.73381 C -50.819046 -119.73381 -46.171138 -118.28861 -42.713308 -115.39764 C -39.255479 -112.56335 -37.526545 -108.56711 -37.526545 -103.40871 C -37.526545 -98.873849 -39.255479 -94.026912 -42.713308 -88.86851 C -46.171138 -83.766794 -51.867735 -77.616529 -59.803738 -70.41744 L -36.931232 -70.41744 L -36.931232 -62.084615 L -75.449295 -62.084615 L -75.449295 -67.016097 C -69.157178 -73.081471 -64.253597 -78.268272 -60.739082 -82.576388 C -57.224566 -86.884504 -54.7021 -90.852684 -53.171585 -94.480571 C -51.584384 -98.108458 -50.790852 -101.84955 -50.790852 -105.70418 C -50.790852 -111.82623 -52.831586 -114.88759 -56.912958 -114.88759 C -58.726902 -114.88759 -60.200679 -114.0369 -61.334394 -112.33633 C -62.468109 -110.69244 -63.035065 -108.65171 -63.035065 -106.21422 C -63.035065 -104.51365 -62.440045 -102.89852 -61.249645 -101.36801 C -62.213302 -100.46103 -63.318635 -99.752209 -64.565721 -99.242037 C -65.756122 -98.731866 -66.946162 -98.476709 -68.136563 -98.476709 C -70.177249 -98.476709 -71.878119 -99.10031 -73.238577 -100.3474 C -74.599035 -101.65117 -75.279279 -103.52197 -75.279279 -105.95946 C -75.279279 -108.567 -74.51381 -110.91953 -72.983295 -113.01691 C -71.452781 -115.11428 -69.298759 -116.75799 -66.521158 -117.94839 C -63.686871 -119.13879 -60.398935 -119.73381 -56.657677 -119.73381 z M -25.282331 -119.05375 L -21.030911 -118.969 C -15.022223 -118.85563 -11.848092 -118.79847 -11.507978 -118.79847 L 0.5662204 -118.969 L 3.0322197 -117.18306 L 2.2668918 -110.72092 L -18.820193 -110.72092 L -20.010818 -96.521273 C -17.06316 -97.258188 -14.398825 -97.626632 -12.018024 -97.626632 C -6.4061366 -97.626632 -1.8429363 -96.124274 1.6715793 -93.11993 C 5.2427806 -90.172272 7.0283583 -85.836165 7.0283583 -80.110905 C 7.0283583 -76.539704 6.1781816 -73.336993 4.4776096 -70.502706 C 2.8337232 -67.66842 0.45312528 -65.429173 -2.6645901 -63.785287 C -5.7823056 -62.198086 -9.4672657 -61.404554 -13.718696 -61.404554 C -17.176526 -61.404554 -20.322593 -61.886286 -23.156879 -62.849943 C -25.93448 -63.813601 -28.116566 -65.14551 -29.703767 -66.846082 C -31.290967 -68.60334 -32.0845 -70.559366 -32.0845 -72.713424 C -32.0845 -74.980853 -31.460899 -76.709787 -30.213813 -77.900188 C -28.966727 -79.147274 -27.436305 -79.770358 -25.622362 -79.770358 C -24.602019 -79.770358 -23.58191 -79.572362 -22.561567 -79.175562 C -21.484538 -78.778762 -20.520557 -78.211805 -19.67027 -77.474891 C -20.180442 -76.28449 -20.435598 -75.037289 -20.435598 -73.733517 C -20.435598 -71.862888 -19.897222 -70.332466 -18.820193 -69.142066 C -17.686478 -67.951665 -15.986125 -67.356645 -13.718696 -67.356645 C -8.6169796 -67.356645 -6.0659329 -71.608045 -6.0659329 -80.110905 C -6.0659329 -84.135593 -6.8594656 -87.054567 -8.4466662 -88.86851 C -10.033867 -90.73914 -12.159825 -91.674541 -14.824055 -91.674541 C -16.467941 -91.674541 -18.224938 -91.36274 -20.095568 -90.739197 C -21.966197 -90.115654 -23.808418 -89.236897 -25.622362 -88.103182 L -30.299079 -92.609884 L -28.088361 -116.75776 L -25.282331 -119.05375 z M -88.713601 -101.28274 C -86.729601 -101.28274 -85.255823 -100.68772 -84.292166 -99.497319 C -83.271823 -98.363604 -82.76151 -96.776539 -82.76151 -94.735852 C -82.76151 -92.695166 -83.271823 -91.107584 -84.292166 -89.973869 C -85.255823 -88.840154 -86.729601 -88.273198 -88.713601 -88.273198 C -90.697602 -88.273198 -92.19996 -88.840154 -93.220303 -89.973869 C -94.183961 -91.16427 -94.665693 -92.751852 -94.665693 -94.735852 C -94.665693 -96.833225 -94.183961 -98.448354 -93.220303 -99.582068 C -92.19996 -100.71578 -90.697602 -101.28274 -88.713601 -101.28274 z M -88.713601 -74.498845 C -86.729601 -74.498845 -85.255823 -73.903824 -84.292166 -72.713424 C -83.271823 -71.579709 -82.76151 -69.992127 -82.76151 -67.951441 C -82.76151 -65.910754 -83.271823 -64.323689 -84.292166 -63.189974 C -85.255823 -62.05626 -86.729601 -61.489303 -88.713601 -61.489303 C -90.697602 -61.489303 -92.19996 -62.05626 -93.220303 -63.189974 C -94.183961 -64.380375 -94.665693 -65.96744 -94.665693 -67.951441 C -94.665693 -70.048813 -94.183961 -71.664459 -93.220303 -72.798173 C -92.19996 -73.931888 -90.697602 -74.498845 -88.713601 -74.498845 z " /></g></svg>
