<?xml version="1.0" encoding="UTF-8" standalone="no"?>
<!-- Created with Inkscape (http://www.inkscape.org/) -->

<svg
   width="172.6701mm"
   height="172.6701mm"
   viewBox="0 0 172.6701 172.6701"
   version="1.1"
   id="svg1"
   xml:space="preserve"
   xmlns="http://www.w3.org/2000/svg"
   xmlns:svg="http://www.w3.org/2000/svg"><defs
     id="defs1" /><g
     id="layer1"
     transform="translate(157.25102,198.81012)"><path
       id="path5"
       style="fill:#ffffff;fill-opacity:1;stroke-width:0.805188;stroke-linecap:round;stroke-linejoin:round"
       d="M -2.0863309 -198.17657 L -10.088943 -183.11289 L -10.930235 -165.68398 L -19.198981 -165.68398 L -11.423229 -155.47426 L -12.166336 -140.07934 C -28.353216 -157.12094 -50.823548 -166.77435 -74.327399 -166.78417 C -103.64471 -166.77397 -130.92652 -151.79225 -146.66717 -127.05894 L -157.25102 -127.05894 L -149.61996 -115.86014 L -157.25102 -26.140039 L -8.5138455 -26.140039 L 15.419061 -26.140039 L 8.0799737 -154.80195 L 15.419061 -165.68398 L 7.4593397 -165.68398 L 6.4490654 -183.39297 L -2.0863309 -198.17657 z M -83.43072 -192.21621 C -85.584619 -189.65499 -86.77489 -186.4211 -86.795372 -183.07465 C -86.842092 -175.15518 -80.459903 -168.69733 -72.540428 -168.65072 C -64.621155 -168.60402 -58.163395 -174.98588 -58.116503 -182.90515 C -58.102813 -186.26049 -59.266203 -189.5144 -61.404157 -192.10045 C -60.83125 -190.6836 -60.536835 -189.16959 -60.537027 -187.64129 C -60.575787 -181.07411 -65.930869 -175.78172 -72.498054 -175.82031 C -79.065241 -175.85911 -84.357627 -181.21415 -84.319038 -187.78134 C -84.309338 -189.30285 -84.007827 -190.80837 -83.43072 -192.21621 z M -57.338256 -119.73381 C -53.653683 -119.73381 -50.393811 -119.11073 -47.559524 -117.86364 C -44.725237 -116.67324 -42.514571 -114.97237 -40.927371 -112.76163 C -39.34017 -110.60757 -38.546638 -108.11368 -38.546638 -105.27939 C -38.546638 -102.10499 -39.482039 -99.384015 -41.352668 -97.116586 C -43.223297 -94.849156 -46.00092 -93.120223 -49.685493 -91.929822 C -45.037262 -90.909479 -41.777907 -89.237189 -39.907278 -86.913074 C -38.036649 -84.588959 -37.101248 -81.442892 -37.101248 -77.474891 C -37.101248 -74.017061 -38.149937 -71.069506 -40.247309 -68.632019 C -42.287996 -66.194533 -44.95233 -64.380375 -48.240103 -63.189974 C -51.527875 -61.999574 -54.929099 -61.404554 -58.443614 -61.404554 C -63.545331 -61.404554 -67.881438 -62.453243 -71.452639 -64.550615 C -74.967155 -66.647987 -76.724669 -69.510317 -76.724669 -73.138204 C -76.724669 -75.235577 -76.101068 -76.851222 -74.853982 -77.984937 C -73.606896 -79.175337 -72.047894 -79.770358 -70.177265 -79.770358 C -68.24995 -79.770358 -66.29444 -79.005405 -64.31044 -77.474891 C -64.820611 -76.397862 -65.075768 -75.094016 -65.075768 -73.563501 C -65.075768 -71.749558 -64.536875 -70.275781 -63.459846 -69.142066 C -62.326131 -68.008351 -60.654358 -67.441394 -58.443614 -67.441394 C -53.568641 -67.441394 -51.130882 -70.814037 -51.130882 -77.55964 C -51.130882 -81.244213 -52.32144 -84.10706 -54.702241 -86.147746 C -57.026356 -88.188433 -60.342355 -89.208541 -64.650471 -89.208541 L -64.650471 -94.480571 C -56.317668 -95.1608 -52.151492 -98.760535 -52.151492 -105.27939 C -52.151492 -108.56717 -52.661288 -110.97583 -53.681631 -112.50634 C -54.701974 -114.09354 -56.091044 -114.88759 -57.848302 -114.88759 C -59.945674 -114.88759 -61.532739 -114.15071 -62.609768 -112.67688 C -63.630112 -111.20305 -64.140424 -109.41747 -64.140424 -107.3201 C -64.140424 -105.44947 -63.7434 -103.77718 -62.949799 -102.30335 C -64.537 -100.60278 -66.577734 -99.752084 -69.071906 -99.752084 C -71.339336 -99.752084 -73.09685 -100.43233 -74.343936 -101.79279 C -75.591022 -103.15324 -76.214623 -104.91076 -76.214623 -107.06482 C -76.214623 -109.8991 -75.250641 -112.25164 -73.323326 -114.12227 C -71.339326 -116.04958 -68.902084 -117.46671 -66.011111 -118.37369 C -63.063453 -119.28066 -60.172542 -119.73381 -57.338256 -119.73381 z M -14.143476 -119.73381 C -10.458903 -119.73381 -7.1995483 -119.11073 -4.3652615 -117.86364 C -1.5309748 -116.67324 0.6796912 -114.97237 2.2668918 -112.76163 C 3.8540924 -110.60757 4.647625 -108.11368 4.647625 -105.27939 C 4.647625 -102.10499 3.712224 -99.384015 1.8415947 -97.116586 C -0.029034511 -94.849156 -2.8066572 -93.120223 -6.49123 -91.929822 C -1.8429997 -90.909479 1.4168721 -89.237189 3.2875013 -86.913074 C 5.1581306 -84.588959 6.0930148 -81.442892 6.0930148 -77.474891 C 6.0930148 -74.017061 5.0443258 -71.069506 2.9469536 -68.632019 C 0.90626717 -66.194533 -1.7575508 -64.380375 -5.0453234 -63.189974 C -8.333096 -61.999574 -11.734319 -61.404554 -15.248835 -61.404554 C -20.350551 -61.404554 -24.687175 -62.453243 -28.258377 -64.550615 C -31.772892 -66.647987 -33.52989 -69.510317 -33.52989 -73.138204 C -33.52989 -75.235577 -32.906289 -76.851222 -31.659203 -77.984937 C -30.412117 -79.175337 -28.853632 -79.770358 -26.983002 -79.770358 C -25.055687 -79.770358 -23.099661 -79.005405 -21.11566 -77.474891 C -21.625832 -76.397862 -21.880988 -75.094016 -21.880988 -73.563501 C -21.880988 -71.749558 -21.342612 -70.275781 -20.265583 -69.142066 C -19.131868 -68.008351 -17.459579 -67.441394 -15.248835 -67.441394 C -10.373862 -67.441394 -7.9366198 -70.814037 -7.9366198 -77.55964 C -7.9366198 -81.244213 -9.1266604 -84.10706 -11.507461 -86.147746 C -13.831576 -88.188433 -17.148092 -89.208541 -21.456208 -89.208541 L -21.456208 -94.480571 C -13.123405 -95.1608 -8.9567125 -98.760535 -8.9567125 -105.27939 C -8.9567125 -108.56717 -9.4670252 -110.97583 -10.487368 -112.50634 C -11.507712 -114.09354 -12.896265 -114.88759 -14.653522 -114.88759 C -16.750895 -114.88759 -18.338477 -114.15071 -19.415506 -112.67688 C -20.435849 -111.20305 -20.945645 -109.41747 -20.945645 -107.3201 C -20.945645 -105.44947 -20.549137 -103.77718 -19.755537 -102.30335 C -21.342737 -100.60278 -23.383471 -99.752084 -25.877644 -99.752084 C -28.145073 -99.752084 -29.90207 -100.43233 -31.149156 -101.79279 C -32.396243 -103.15324 -33.019843 -104.91076 -33.019843 -107.06482 C -33.019843 -109.8991 -32.056379 -112.25164 -30.129064 -114.12227 C -28.145063 -116.04958 -25.707304 -117.46671 -22.816332 -118.37369 C -19.868673 -119.28066 -16.977763 -119.73381 -14.143476 -119.73381 z M -124.85093 -119.56379 C -118.10533 -119.56379 -112.94659 -117.69351 -109.37539 -113.95225 C -105.7475 -110.21099 -103.93386 -104.7971 -103.93386 -97.711381 C -103.93386 -88.811721 -106.71148 -81.216258 -112.26669 -74.924142 C -117.7652 -68.688711 -125.75769 -64.09693 -136.24455 -61.149272 L -138.28525 -65.400692 C -132.61668 -67.838179 -128.05348 -70.956182 -124.59565 -74.754126 C -121.13782 -78.608756 -118.84193 -83.086732 -117.70821 -88.188448 C -120.88262 -86.601248 -123.97204 -85.807715 -126.97638 -85.807715 C -132.64496 -85.807715 -137.12345 -87.338137 -140.41122 -90.399166 C -143.64231 -93.460196 -145.25795 -97.598308 -145.25795 -102.8134 C -145.25795 -106.04448 -144.40726 -108.93539 -142.70669 -111.48625 C -140.94943 -114.03711 -138.54025 -116.0212 -135.47922 -117.43834 C -132.36151 -118.85549 -128.81893 -119.56379 -124.85093 -119.56379 z M -125.36098 -113.69697 C -127.79846 -113.69697 -129.66927 -112.76157 -130.97304 -110.89094 C -132.27681 -109.02031 -132.92847 -106.35597 -132.92847 -102.89814 C -132.92847 -99.383629 -132.22017 -96.634587 -130.80302 -94.650586 C -129.32919 -92.723271 -127.25988 -91.759807 -124.59565 -91.759807 C -122.27153 -91.759807 -119.69242 -92.723271 -116.85814 -94.650586 L -116.85814 -95.755945 C -116.85814 -101.93469 -117.53838 -106.46931 -118.89884 -109.36028 C -120.2593 -112.25126 -122.41332 -113.69697 -125.36098 -113.69697 z M -89.053632 -101.28274 C -87.069632 -101.28274 -85.595854 -100.68772 -84.632197 -99.497319 C -83.611854 -98.363604 -83.101541 -96.776539 -83.101541 -94.735852 C -83.101541 -92.695166 -83.611854 -91.107584 -84.632197 -89.973869 C -85.595854 -88.840154 -87.069632 -88.273198 -89.053632 -88.273198 C -91.037633 -88.273198 -92.539991 -88.840154 -93.560334 -89.973869 C -94.523991 -91.16427 -95.005724 -92.751852 -95.005724 -94.735852 C -95.005724 -96.833225 -94.523991 -98.448354 -93.560334 -99.582068 C -92.539991 -100.71578 -91.037633 -101.28274 -89.053632 -101.28274 z M -89.053632 -74.498845 C -87.069632 -74.498845 -85.595854 -73.903824 -84.632197 -72.713424 C -83.611854 -71.579709 -83.101541 -69.992127 -83.101541 -67.951441 C -83.101541 -65.910754 -83.611854 -64.323689 -84.632197 -63.189974 C -85.595854 -62.05626 -87.069632 -61.489303 -89.053632 -61.489303 C -91.037633 -61.489303 -92.539991 -62.05626 -93.560334 -63.189974 C -94.523991 -64.380375 -95.005724 -65.96744 -95.005724 -67.951441 C -95.005724 -70.048813 -94.523991 -71.664459 -93.560334 -72.798173 C -92.539991 -73.931888 -91.037633 -74.498845 -89.053632 -74.498845 z " /></g></svg>
