<?xml version="1.0" encoding="UTF-8" standalone="no"?>
<!-- Created with Inkscape (http://www.inkscape.org/) -->

<svg
   width="172.6701mm"
   height="172.6701mm"
   viewBox="0 0 172.6701 172.6701"
   version="1.1"
   id="svg1"
   xml:space="preserve"
   xmlns="http://www.w3.org/2000/svg"
   xmlns:svg="http://www.w3.org/2000/svg"><defs
     id="defs1" /><g
     id="layer1"
     transform="translate(157.25102,198.81012)"><path
       id="path5"
       style="fill:#ffffff;fill-opacity:1;stroke-width:0.805188;stroke-linecap:round;stroke-linejoin:round"
       d="M -2.0863309 -198.17657 L -10.088943 -183.11289 L -10.930235 -165.68398 L -19.198981 -165.68398 L -11.423229 -155.47426 L -12.166336 -140.07934 C -28.353216 -157.12094 -50.823548 -166.77435 -74.327399 -166.78417 C -103.64471 -166.77397 -130.92652 -151.79225 -146.66717 -127.05894 L -157.25102 -127.05894 L -149.61996 -115.86014 L -157.25102 -26.140039 L -8.5138455 -26.140039 L 15.419061 -26.140039 L 8.0799737 -154.80195 L 15.419061 -165.68398 L 7.4593397 -165.68398 L 6.4490654 -183.39297 L -2.0863309 -198.17657 z M -83.43072 -192.21621 C -85.584619 -189.65499 -86.77489 -186.4211 -86.795372 -183.07465 C -86.842092 -175.15518 -80.459903 -168.69733 -72.540428 -168.65072 C -64.621155 -168.60402 -58.163395 -174.98588 -58.116503 -182.90515 C -58.102813 -186.26049 -59.266203 -189.5144 -61.404157 -192.10045 C -60.83125 -190.6836 -60.536835 -189.16959 -60.537027 -187.64129 C -60.575787 -181.07411 -65.930869 -175.78172 -72.498054 -175.82031 C -79.065241 -175.85911 -84.357627 -181.21415 -84.319038 -187.78134 C -84.309338 -189.30285 -84.007827 -190.80837 -83.43072 -192.21621 z M -61.079629 -120.07436 C -56.54477 -119.84761 -52.85981 -118.85557 -50.025524 -117.09831 L -70.262531 -83.767013 L -57.252989 -83.767013 L -56.402912 -97.626632 C -54.588969 -97.626632 -53.285123 -97.995076 -52.491523 -98.731991 C -51.641237 -99.468905 -50.989573 -100.71611 -50.536087 -102.47336 L -45.689354 -102.47336 L -45.774103 -83.341716 C -43.620046 -82.718173 -40.899067 -82.066508 -37.611294 -81.38628 L -38.036591 -77.304875 L -46.199401 -77.304875 L -46.199401 -62.084615 L -57.252989 -62.084615 L -57.252989 -77.304875 L -81.826166 -77.304875 L -82.506745 -80.36567 L -61.079629 -120.07436 z M -12.868102 -119.64906 C -6.2358707 -119.64906 -1.1628744 -117.15466 2.3516411 -112.16631 C 5.9228424 -107.23465 7.7089369 -100.06428 7.7089369 -90.654448 C 7.7089369 -81.244616 5.9228424 -74.017081 2.3516411 -68.97205 C -1.1628744 -63.983706 -6.2358707 -61.489303 -12.868102 -61.489303 C -19.500333 -61.489303 -24.602426 -63.983706 -28.173627 -68.97205 C -31.744829 -74.017081 -33.530406 -81.244616 -33.530406 -90.654448 C -33.530406 -100.00759 -31.744829 -107.17797 -28.173627 -112.16631 C -24.602426 -117.15466 -19.500333 -119.64906 -12.868102 -119.64906 z M -146.02276 -118.88373 L -141.85661 -118.88373 C -139.70255 -118.82705 -134.99748 -118.79847 -127.74171 -118.79847 C -120.20251 -118.79847 -115.29944 -118.82705 -113.03201 -118.88373 L -108.95061 -118.88373 L -107.24994 -115.22762 C -108.32697 -113.52705 -110.3677 -109.84261 -113.37204 -104.17404 C -116.37639 -98.505463 -119.21066 -92.496548 -121.87488 -86.147746 C -124.53911 -79.798944 -125.87102 -74.838719 -125.87102 -71.267517 C -125.87102 -68.433231 -124.87898 -66.307789 -122.89498 -64.890646 C -124.82229 -62.566531 -127.28811 -61.404554 -130.29246 -61.404554 C -133.07006 -61.404554 -135.2246 -62.169506 -136.75511 -63.700021 C -138.28563 -65.230536 -139.05058 -67.356494 -139.05058 -70.077409 C -139.05058 -73.478553 -138.22847 -77.077772 -136.58458 -80.875717 C -134.94069 -84.730347 -131.99314 -89.945728 -127.74171 -96.521273 L -117.70821 -111.9963 L -137.09514 -111.9963 C -137.88874 -109.44544 -138.37048 -106.44124 -138.54053 -102.98341 C -139.56088 -102.81335 -140.60957 -102.72813 -141.6866 -102.72813 C -142.82031 -102.72813 -143.92564 -102.81335 -145.00267 -102.98341 L -147.38341 -117.60836 L -146.02276 -118.88373 z M -12.868102 -115.31237 C -15.759074 -115.31237 -17.856452 -113.41351 -19.160224 -109.61556 C -20.40731 -105.81762 -21.030911 -99.497422 -21.030911 -90.654448 C -21.030911 -81.868159 -20.40731 -75.576025 -19.160224 -71.778081 C -17.856452 -68.036822 -15.759074 -66.16602 -12.868102 -66.16602 C -9.9771292 -66.16602 -7.9083316 -68.036822 -6.6612454 -71.778081 C -5.3574735 -75.576025 -4.7052925 -81.868159 -4.7052925 -90.654448 C -4.7052925 -99.440737 -5.3574735 -105.73287 -6.6612454 -109.53081 C -7.9083316 -113.38544 -9.9771292 -115.31237 -12.868102 -115.31237 z M -93.730349 -101.28274 C -91.746349 -101.28274 -90.272571 -100.68772 -89.308914 -99.497319 C -88.288571 -98.363604 -87.778258 -96.776539 -87.778258 -94.735852 C -87.778258 -92.695166 -88.288571 -91.107584 -89.308914 -89.973869 C -90.272571 -88.840154 -91.746349 -88.273198 -93.730349 -88.273198 C -95.71435 -88.273198 -97.216708 -88.840154 -98.237051 -89.973869 C -99.200709 -91.16427 -99.682441 -92.751852 -99.682441 -94.735852 C -99.682441 -96.833225 -99.200709 -98.448354 -98.237051 -99.582068 C -97.216708 -100.71578 -95.71435 -101.28274 -93.730349 -101.28274 z M -93.730349 -74.498845 C -91.746349 -74.498845 -90.272571 -73.903824 -89.308914 -72.713424 C -88.288571 -71.579709 -87.778258 -69.992127 -87.778258 -67.951441 C -87.778258 -65.910754 -88.288571 -64.323689 -89.308914 -63.189974 C -90.272571 -62.05626 -91.746349 -61.489303 -93.730349 -61.489303 C -95.71435 -61.489303 -97.216708 -62.05626 -98.237051 -63.189974 C -99.200709 -64.380375 -99.682441 -65.96744 -99.682441 -67.951441 C -99.682441 -70.048813 -99.200709 -71.664459 -98.237051 -72.798173 C -97.216708 -73.931888 -95.71435 -74.498845 -93.730349 -74.498845 z " /></g></svg>
