<?xml version="1.0" encoding="UTF-8" standalone="no"?>
<!-- Created with Inkscape (http://www.inkscape.org/) -->

<svg
   width="172.6701mm"
   height="172.6701mm"
   viewBox="0 0 172.6701 172.6701"
   version="1.1"
   id="svg1"
   xml:space="preserve"
   xmlns="http://www.w3.org/2000/svg"
   xmlns:svg="http://www.w3.org/2000/svg"><defs
     id="defs1" /><g
     id="layer1"
     transform="translate(157.25102,198.81012)"><path
       id="path5"
       style="fill:#ffffff;fill-opacity:1;stroke-width:0.805188;stroke-linecap:round;stroke-linejoin:round"
       d="M -2.0863309 -198.17657 L -10.088943 -183.11289 L -10.930235 -165.68398 L -19.198981 -165.68398 L -11.423229 -155.47426 L -12.166336 -140.07934 C -28.353216 -157.12094 -50.823548 -166.77435 -74.327399 -166.78417 C -103.64471 -166.77397 -130.92652 -151.79225 -146.66717 -127.05894 L -157.25102 -127.05894 L -149.61996 -115.86014 L -157.25102 -26.140039 L -8.5138455 -26.140039 L 15.419061 -26.140039 L 8.0799737 -154.80195 L 15.419061 -165.68398 L 7.4593397 -165.68398 L 6.4490654 -183.39297 L -2.0863309 -198.17657 z M -83.43072 -192.21621 C -85.584619 -189.65499 -86.77489 -186.4211 -86.795372 -183.07465 C -86.842092 -175.15518 -80.459903 -168.69733 -72.540428 -168.65072 C -64.621155 -168.60402 -58.163395 -174.98588 -58.116503 -182.90515 C -58.102813 -186.26049 -59.266203 -189.5144 -61.404157 -192.10045 C -60.83125 -190.6836 -60.536835 -189.16959 -60.537027 -187.64129 C -60.575787 -181.07411 -65.930869 -175.78172 -72.498054 -175.82031 C -79.065241 -175.85911 -84.357627 -181.21415 -84.319038 -187.78134 C -84.309338 -189.30285 -84.007827 -190.80837 -83.43072 -192.21621 z M -59.03841 -119.73381 C -55.353837 -119.73381 -52.094482 -119.11073 -49.260196 -117.86364 C -46.425909 -116.67324 -44.215243 -114.97237 -42.628042 -112.76163 C -41.040842 -110.60757 -40.247309 -108.11368 -40.247309 -105.27939 C -40.247309 -102.10499 -41.18271 -99.384015 -43.053339 -97.116586 C -44.923969 -94.849156 -47.701591 -93.120223 -51.386164 -91.929822 C -46.737934 -90.909479 -43.478579 -89.237189 -41.60795 -86.913074 C -39.73732 -84.588959 -38.801919 -81.442892 -38.801919 -77.474891 C -38.801919 -74.017061 -39.850608 -71.069506 -41.94798 -68.632019 C -43.988667 -66.194533 -46.653002 -64.380375 -49.940774 -63.189974 C -53.228547 -61.999574 -56.629253 -61.404554 -60.143769 -61.404554 C -65.245485 -61.404554 -69.58211 -62.453243 -73.153311 -64.550615 C -76.667826 -66.647987 -78.42534 -69.510317 -78.42534 -73.138204 C -78.42534 -75.235577 -77.80174 -76.851222 -76.554654 -77.984937 C -75.307567 -79.175337 -73.748566 -79.770358 -71.877937 -79.770358 C -69.950622 -79.770358 -67.995112 -79.005405 -66.011111 -77.474891 C -66.521283 -76.397862 -66.776439 -75.094016 -66.776439 -73.563501 C -66.776439 -71.749558 -66.237546 -70.275781 -65.160517 -69.142066 C -64.026802 -68.008351 -62.354513 -67.441394 -60.143769 -67.441394 C -55.268796 -67.441394 -52.831554 -70.814037 -52.831554 -77.55964 C -52.831554 -81.244213 -54.022111 -84.10706 -56.402912 -86.147746 C -58.727027 -88.188433 -62.043026 -89.208541 -66.351142 -89.208541 L -66.351142 -94.480571 C -58.018339 -95.1608 -53.852163 -98.760535 -53.852163 -105.27939 C -53.852163 -108.56717 -54.361959 -110.97583 -55.382303 -112.50634 C -56.402646 -114.09354 -57.791716 -114.88759 -59.548973 -114.88759 C -61.646345 -114.88759 -63.233411 -114.15071 -64.31044 -112.67688 C -65.330783 -111.20305 -65.841096 -109.41747 -65.841096 -107.3201 C -65.841096 -105.44947 -65.444071 -103.77718 -64.650471 -102.30335 C -66.237671 -100.60278 -68.278405 -99.752084 -70.772578 -99.752084 C -73.040007 -99.752084 -74.797521 -100.43233 -76.044607 -101.79279 C -77.291693 -103.15324 -77.914777 -104.91076 -77.914777 -107.06482 C -77.914777 -109.8991 -76.951313 -112.25164 -75.023998 -114.12227 C -73.039997 -116.04958 -70.602755 -117.46671 -67.711783 -118.37369 C -64.764124 -119.28066 -61.872697 -119.73381 -59.03841 -119.73381 z M -14.143476 -119.56379 C -7.3978736 -119.56379 -2.2396529 -117.69351 1.3315484 -113.95225 C 4.9594354 -110.21099 6.7735934 -104.7971 6.7735934 -97.711381 C 6.7735934 -88.811721 3.9959708 -81.216258 -1.5592313 -74.924142 C -7.0577476 -68.688711 -15.050752 -64.09693 -25.537613 -61.149272 L -27.578315 -65.400692 C -21.909741 -67.838179 -17.346541 -70.956182 -13.888711 -74.754126 C -10.430881 -78.608756 -8.134991 -83.086732 -7.0012763 -88.188448 C -10.175678 -86.601248 -13.265101 -85.807715 -16.269444 -85.807715 C -21.938018 -85.807715 -26.415994 -87.338137 -29.703767 -90.399166 C -32.934853 -93.460196 -34.550499 -97.598308 -34.550499 -102.8134 C -34.550499 -106.04448 -33.700323 -108.93539 -31.99975 -111.48625 C -30.242493 -114.03711 -27.833314 -116.0212 -24.772285 -117.43834 C -21.654569 -118.85549 -18.111478 -119.56379 -14.143476 -119.56379 z M -138.45527 -119.05375 L -134.20385 -118.969 C -128.19516 -118.85563 -125.02103 -118.79847 -124.68092 -118.79847 L -112.60672 -118.969 L -110.14072 -117.18306 L -110.90605 -110.72092 L -131.99313 -110.72092 L -133.18376 -96.521273 C -130.2361 -97.258188 -127.57176 -97.626632 -125.19096 -97.626632 C -119.57907 -97.626632 -115.01587 -96.124274 -111.50136 -93.11993 C -107.93016 -90.172272 -106.14458 -85.836165 -106.14458 -80.110905 C -106.14458 -76.539704 -106.99476 -73.336993 -108.69533 -70.502706 C -110.33921 -67.66842 -112.72033 -65.429173 -115.83804 -63.785287 C -118.95576 -62.198086 -122.6402 -61.404554 -126.89163 -61.404554 C -130.34946 -61.404554 -133.49553 -61.886286 -136.32982 -62.849943 C -139.10742 -63.813601 -141.2895 -65.14551 -142.8767 -66.846082 C -144.4639 -68.60334 -145.25795 -70.559366 -145.25795 -72.713424 C -145.25795 -74.980853 -144.63435 -76.709787 -143.38727 -77.900188 C -142.14018 -79.147274 -140.60976 -79.770358 -138.79582 -79.770358 C -137.77547 -79.770358 -136.75485 -79.572362 -135.7345 -79.175562 C -134.65747 -78.778762 -133.69401 -78.211805 -132.84372 -77.474891 C -133.3539 -76.28449 -133.60905 -75.037289 -133.60905 -73.733517 C -133.60905 -71.862888 -133.07016 -70.332466 -131.99313 -69.142066 C -130.85942 -67.951665 -129.15906 -67.356645 -126.89163 -67.356645 C -121.78992 -67.356645 -119.23887 -71.608045 -119.23887 -80.110905 C -119.23887 -84.135593 -120.0324 -87.054567 -121.6196 -88.86851 C -123.2068 -90.73914 -125.33276 -91.674541 -127.99699 -91.674541 C -129.64088 -91.674541 -131.39788 -91.36274 -133.2685 -90.739197 C -135.13913 -90.115654 -136.98187 -89.236897 -138.79582 -88.103182 L -143.47202 -92.609884 L -141.2613 -116.75776 L -138.45527 -119.05375 z M -14.653522 -113.69697 C -17.091009 -113.69697 -18.961811 -112.76157 -20.265583 -110.89094 C -21.569355 -109.02031 -22.221536 -106.35597 -22.221536 -102.89814 C -22.221536 -99.383629 -21.512711 -96.634587 -20.095568 -94.650586 C -18.621738 -92.723271 -16.552941 -91.759807 -13.888711 -91.759807 C -11.564596 -91.759807 -8.984969 -92.723271 -6.1506823 -94.650586 L -6.1506823 -95.755945 C -6.1506823 -101.93469 -6.8309269 -106.46931 -8.1913846 -109.36028 C -9.5518422 -112.25126 -11.705864 -113.69697 -14.653522 -113.69697 z M -90.754304 -101.28274 C -88.770303 -101.28274 -87.296526 -100.68772 -86.332868 -99.497319 C -85.312525 -98.363604 -84.802212 -96.776539 -84.802212 -94.735852 C -84.802212 -92.695166 -85.312525 -91.107584 -86.332868 -89.973869 C -87.296526 -88.840154 -88.770303 -88.273198 -90.754304 -88.273198 C -92.738304 -88.273198 -94.240662 -88.840154 -95.261005 -89.973869 C -96.224663 -91.16427 -96.706395 -92.751852 -96.706395 -94.735852 C -96.706395 -96.833225 -96.224663 -98.448354 -95.261005 -99.582068 C -94.240662 -100.71578 -92.738304 -101.28274 -90.754304 -101.28274 z M -90.754304 -74.498845 C -88.770303 -74.498845 -87.296526 -73.903824 -86.332868 -72.713424 C -85.312525 -71.579709 -84.802212 -69.992127 -84.802212 -67.951441 C -84.802212 -65.910754 -85.312525 -64.323689 -86.332868 -63.189974 C -87.296526 -62.05626 -88.770303 -61.489303 -90.754304 -61.489303 C -92.738304 -61.489303 -94.240662 -62.05626 -95.261005 -63.189974 C -96.224663 -64.380375 -96.706395 -65.96744 -96.706395 -67.951441 C -96.706395 -70.048813 -96.224663 -71.664459 -95.261005 -72.798173 C -94.240662 -73.931888 -92.738304 -74.498845 -90.754304 -74.498845 z " /></g></svg>
