<?xml version="1.0" encoding="UTF-8" standalone="no"?>
<!-- Created with Inkscape (http://www.inkscape.org/) -->

<svg
   width="172.6701mm"
   height="172.6701mm"
   viewBox="0 0 172.6701 172.6701"
   version="1.1"
   id="svg1"
   xml:space="preserve"
   xmlns="http://www.w3.org/2000/svg"
   xmlns:svg="http://www.w3.org/2000/svg"><defs
     id="defs1" /><g
     id="layer1"
     transform="translate(157.25102,198.81012)"><path
       id="path5"
       style="fill:#ffffff;fill-opacity:1;stroke-width:0.805188;stroke-linecap:round;stroke-linejoin:round"
       d="M -2.0863309 -198.17657 L -10.088943 -183.11289 L -10.930235 -165.68398 L -19.198981 -165.68398 L -11.423229 -155.47426 L -12.166336 -140.07934 C -28.353216 -157.12094 -50.823548 -166.77435 -74.327399 -166.78417 C -103.64471 -166.77397 -130.92652 -151.79225 -146.66717 -127.05894 L -157.25102 -127.05894 L -149.61996 -115.86014 L -157.25102 -26.140039 L -8.5138455 -26.140039 L 15.419061 -26.140039 L 8.0799737 -154.80195 L 15.419061 -165.68398 L 7.4593397 -165.68398 L 6.4490654 -183.39297 L -2.0863309 -198.17657 z M -83.43072 -192.21621 C -85.584619 -189.65499 -86.77489 -186.4211 -86.795372 -183.07465 C -86.842092 -175.15518 -80.459903 -168.69733 -72.540428 -168.65072 C -64.621155 -168.60402 -58.163395 -174.98588 -58.116503 -182.90515 C -58.102813 -186.26049 -59.266203 -189.5144 -61.404157 -192.10045 C -60.83125 -190.6836 -60.536835 -189.16959 -60.537027 -187.64129 C -60.575787 -181.07411 -65.930869 -175.78172 -72.498054 -175.82031 C -79.065241 -175.85911 -84.357627 -181.21415 -84.319038 -187.78134 C -84.309338 -189.30285 -84.007827 -190.80837 -83.43072 -192.21621 z M -107.35277 -133.81925 C -99.82312 -133.44277 -93.705405 -131.79518 -88.999372 -128.87744 L -122.60042 -73.534563 L -100.99967 -73.534563 L -99.587873 -96.547111 C -96.576012 -96.547111 -94.411385 -97.15909 -93.093696 -98.382658 C -91.681886 -99.606227 -90.599314 -101.67694 -89.846349 -104.59468 L -81.799295 -104.59468 L -81.940371 -72.828662 C -78.363786 -71.793335 -73.845675 -70.71128 -68.386677 -69.581832 L -69.092577 -62.804985 L -82.646271 -62.804985 L -82.646271 -37.533659 L -100.99967 -37.533659 L -100.99967 -62.804985 L -141.8008 -62.804985 L -142.93045 -67.887362 L -107.35277 -133.81925 z M -61.045523 -131.84263 L -54.127599 -131.84263 C -50.551013 -131.74851 -42.739265 -131.70104 -30.69182 -131.70104 C -18.173771 -131.70104 -10.032298 -131.74851 -6.267471 -131.84263 L 0.50937632 -131.84263 L 3.3329766 -125.77168 C 1.5446839 -122.94806 -1.8438991 -116.83035 -6.8322944 -107.41828 C -11.82069 -98.006216 -16.526624 -88.029324 -20.950296 -77.48781 C -25.373967 -66.946295 -27.58555 -58.710909 -27.58555 -52.781307 C -27.58555 -48.075274 -25.938472 -44.545306 -22.644249 -42.19229 C -25.844352 -38.333342 -29.938825 -36.404012 -34.92722 -36.404012 C -39.539133 -36.404012 -43.11554 -37.674925 -45.656798 -40.216183 C -48.198056 -42.757441 -49.468968 -46.286892 -49.468968 -50.804684 C -49.468968 -56.451924 -48.104144 -62.428254 -45.374645 -68.734339 C -42.645145 -75.134544 -37.75087 -83.794084 -30.69182 -94.712081 L -14.032372 -120.40664 L -46.221621 -120.40664 C -47.539311 -116.17121 -48.339113 -111.18302 -48.621475 -105.44166 C -50.315647 -105.1593 -52.057153 -105.01791 -53.845445 -105.01791 C -55.727859 -105.01791 -57.563277 -105.1593 -59.351569 -105.44166 L -63.3043 -129.72493 L -61.045523 -131.84263 z " /></g></svg>
