<?xml version="1.0" encoding="UTF-8" standalone="no"?>
<!-- Created with Inkscape (http://www.inkscape.org/) -->

<svg
   width="172.6701mm"
   height="172.6701mm"
   viewBox="0 0 172.6701 172.6701"
   version="1.1"
   id="svg1"
   xml:space="preserve"
   xmlns="http://www.w3.org/2000/svg"
   xmlns:svg="http://www.w3.org/2000/svg"><defs
     id="defs1" /><g
     id="layer1"
     transform="translate(157.25102,198.81012)"><path
       id="path5"
       style="fill:#ffffff;fill-opacity:1;stroke-width:0.805188;stroke-linecap:round;stroke-linejoin:round"
       d="M -2.0863309 -198.17657 L -10.088943 -183.11289 L -10.930235 -165.68398 L -19.198981 -165.68398 L -11.423229 -155.47426 L -12.166336 -140.07934 C -28.353216 -157.12094 -50.823548 -166.77435 -74.327399 -166.78417 C -103.64471 -166.77397 -130.92652 -151.79225 -146.66717 -127.05894 L -157.25102 -127.05894 L -149.61996 -115.86014 L -157.25102 -26.140039 L -8.5138455 -26.140039 L 15.419061 -26.140039 L 8.0799737 -154.80195 L 15.419061 -165.68398 L 7.4593397 -165.68398 L 6.4490654 -183.39297 L -2.0863309 -198.17657 z M -83.43072 -192.21621 C -85.584619 -189.65499 -86.77489 -186.4211 -86.795372 -183.07465 C -86.842092 -175.15518 -80.459903 -168.69733 -72.540428 -168.65072 C -64.621155 -168.60402 -58.163395 -174.98588 -58.116503 -182.90515 C -58.102813 -186.26049 -59.266203 -189.5144 -61.404157 -192.10045 C -60.83125 -190.6836 -60.536835 -189.16959 -60.537027 -187.64129 C -60.575787 -181.07411 -65.930869 -175.78172 -72.498054 -175.82031 C -79.065241 -175.85911 -84.357627 -181.21415 -84.319038 -187.78134 C -84.309338 -189.30285 -84.007827 -190.80837 -83.43072 -192.21621 z M -58.145958 -120.07436 C -53.611099 -119.84761 -49.926139 -118.85557 -47.091853 -117.09831 L -67.32886 -83.767013 L -54.319318 -83.767013 L -53.469241 -97.626632 C -51.655298 -97.626632 -50.351452 -97.995076 -49.557852 -98.731991 C -48.707566 -99.468905 -48.055902 -100.71611 -47.602416 -102.47336 L -42.755683 -102.47336 L -42.840432 -83.341716 C -40.686375 -82.718173 -37.965913 -82.066508 -34.67814 -81.38628 L -35.10292 -77.304875 L -43.265729 -77.304875 L -43.265729 -62.084615 L -54.319318 -62.084615 L -54.319318 -77.304875 L -78.893012 -77.304875 L -79.573074 -80.36567 L -58.145958 -120.07436 z M -114.77506 -119.90383 L -112.73436 -115.65241 C -124.18488 -110.72075 -131.07203 -103.12528 -133.39615 -92.865166 C -130.10837 -94.452366 -126.99089 -95.245899 -124.04323 -95.245899 C -118.37465 -95.245899 -113.92474 -93.715477 -110.69366 -90.654448 C -107.40588 -87.593418 -105.76217 -83.455306 -105.76217 -78.240218 C -105.76217 -75.009132 -106.64041 -72.118221 -108.39767 -69.567363 C -110.09824 -67.016505 -112.50742 -65.032415 -115.62514 -63.615271 C -118.68617 -62.198128 -122.20068 -61.489303 -126.16868 -61.489303 C -132.91428 -61.489303 -138.10108 -63.360105 -141.72897 -67.101363 C -145.30017 -70.842622 -147.08575 -76.255999 -147.08575 -83.341716 C -147.08575 -92.241376 -144.33671 -99.808775 -138.83819 -106.04421 C -133.28299 -112.33632 -125.26192 -116.95617 -114.77506 -119.90383 z M -12.060399 -119.73381 C -8.3758263 -119.73381 -5.1164713 -119.11073 -2.2821846 -117.86364 C 0.5521022 -116.67324 2.7627682 -114.97237 4.3499688 -112.76163 C 5.9371694 -110.60757 6.730702 -108.11368 6.730702 -105.27939 C 6.730702 -102.10499 5.7958178 -99.384015 3.9251885 -97.116586 C 2.0545592 -94.849156 -0.72306343 -93.120223 -4.4076362 -91.929822 C 0.24059406 -90.909479 3.4999491 -89.237189 5.3705783 -86.913074 C 7.2412076 -84.588959 8.1766086 -81.442892 8.1766086 -77.474891 C 8.1766086 -74.017061 7.1279196 -71.069506 5.0305474 -68.632019 C 2.9898609 -66.194533 0.32552623 -64.380375 -2.9622464 -63.189974 C -6.250019 -61.999574 -9.6512424 -61.404554 -13.165758 -61.404554 C -18.267474 -61.404554 -22.604098 -62.453243 -26.1753 -64.550615 C -29.689815 -66.647987 -31.446813 -69.510317 -31.446813 -73.138204 C -31.446813 -75.235577 -30.823212 -76.851222 -29.576126 -77.984937 C -28.32904 -79.175337 -26.770555 -79.770358 -24.899925 -79.770358 C -22.97261 -79.770358 -21.016584 -79.005405 -19.032583 -77.474891 C -19.542755 -76.397862 -19.797911 -75.094016 -19.797911 -73.563501 C -19.797911 -71.749558 -19.259535 -70.275781 -18.182506 -69.142066 C -17.048791 -68.008351 -15.376502 -67.441394 -13.165758 -67.441394 C -8.2907847 -67.441394 -5.8535428 -70.814037 -5.8535428 -77.55964 C -5.8535428 -81.244213 -7.0435834 -84.10706 -9.4243843 -86.147746 C -11.748499 -88.188433 -15.064498 -89.208541 -19.372614 -89.208541 L -19.372614 -94.480571 C -11.039811 -95.1608 -6.8736356 -98.760535 -6.8736356 -105.27939 C -6.8736356 -108.56717 -7.3839483 -110.97583 -8.4042915 -112.50634 C -9.4246347 -114.09354 -10.813188 -114.88759 -12.570445 -114.88759 C -14.667818 -114.88759 -16.254883 -114.15071 -17.331912 -112.67688 C -18.352255 -111.20305 -18.862568 -109.41747 -18.862568 -107.3201 C -18.862568 -105.44947 -18.46606 -103.77718 -17.67246 -102.30335 C -19.25966 -100.60278 -21.300394 -99.752084 -23.794567 -99.752084 C -26.061996 -99.752084 -27.818993 -100.43233 -29.066079 -101.79279 C -30.313166 -103.15324 -30.936766 -104.91076 -30.936766 -107.06482 C -30.936766 -109.8991 -29.973302 -112.25164 -28.045987 -114.12227 C -26.061986 -116.04958 -23.624227 -117.46671 -20.733255 -118.37369 C -17.785596 -119.28066 -14.894686 -119.73381 -12.060399 -119.73381 z M -90.796678 -101.28274 C -88.812678 -101.28274 -87.3389 -100.68772 -86.375243 -99.497319 C -85.3549 -98.363604 -84.845104 -96.776539 -84.845104 -94.735852 C -84.845104 -92.695166 -85.3549 -91.107584 -86.375243 -89.973869 C -87.3389 -88.840154 -88.812678 -88.273198 -90.796678 -88.273198 C -92.780679 -88.273198 -94.283037 -88.840154 -95.30338 -89.973869 C -96.267038 -91.16427 -96.74877 -92.751852 -96.74877 -94.735852 C -96.74877 -96.833225 -96.267038 -98.448354 -95.30338 -99.582068 C -94.283037 -100.71578 -92.780679 -101.28274 -90.796678 -101.28274 z M -126.42396 -89.293807 C -128.80476 -89.293807 -131.38387 -88.330343 -134.16147 -86.403028 L -134.16147 -85.297669 C -134.16147 -79.118924 -133.48123 -74.583787 -132.12077 -71.692814 C -130.76031 -68.801842 -128.60629 -67.356645 -125.65863 -67.356645 C -123.22115 -67.356645 -121.35034 -68.291529 -120.04657 -70.162159 C -118.7428 -72.032788 -118.09114 -74.697123 -118.09114 -78.154952 C -118.09114 -81.669468 -118.82803 -84.390447 -120.30185 -86.317762 C -121.719 -88.301762 -123.75973 -89.293807 -126.42396 -89.293807 z M -90.796678 -74.498845 C -88.812678 -74.498845 -87.3389 -73.903824 -86.375243 -72.713424 C -85.3549 -71.579709 -84.845104 -69.992127 -84.845104 -67.951441 C -84.845104 -65.910754 -85.3549 -64.323689 -86.375243 -63.189974 C -87.3389 -62.05626 -88.812678 -61.489303 -90.796678 -61.489303 C -92.780679 -61.489303 -94.283037 -62.05626 -95.30338 -63.189974 C -96.267038 -64.380375 -96.74877 -65.96744 -96.74877 -67.951441 C -96.74877 -70.048813 -96.267038 -71.664459 -95.30338 -72.798173 C -94.283037 -73.931888 -92.780679 -74.498845 -90.796678 -74.498845 z " /></g></svg>
