<?xml version="1.0" encoding="UTF-8" standalone="no"?>
<!-- Created with Inkscape (http://www.inkscape.org/) -->

<svg
   width="172.6701mm"
   height="172.6701mm"
   viewBox="0 0 172.6701 172.6701"
   version="1.1"
   id="svg1"
   xml:space="preserve"
   xmlns="http://www.w3.org/2000/svg"
   xmlns:svg="http://www.w3.org/2000/svg"><defs
     id="defs1" /><g
     id="layer1"
     transform="translate(157.25102,198.81012)"><path
       id="path5"
       style="fill:#ffffff;fill-opacity:1;stroke-width:0.805188;stroke-linecap:round;stroke-linejoin:round"
       d="M -2.0863309 -198.17657 L -10.088943 -183.11289 L -10.930235 -165.68398 L -19.198981 -165.68398 L -11.423229 -155.47426 L -12.166336 -140.07934 C -28.353216 -157.12094 -50.823548 -166.77435 -74.327399 -166.78417 C -103.64471 -166.77397 -130.92652 -151.79225 -146.66717 -127.05894 L -157.25102 -127.05894 L -149.61996 -115.86014 L -157.25102 -26.140039 L -8.5138455 -26.140039 L 15.419061 -26.140039 L 8.0799737 -154.80195 L 15.419061 -165.68398 L 7.4593397 -165.68398 L 6.4490654 -183.39297 L -2.0863309 -198.17657 z M -83.43072 -192.21621 C -85.584619 -189.65499 -86.77489 -186.4211 -86.795372 -183.07465 C -86.842092 -175.15518 -80.459903 -168.69733 -72.540428 -168.65072 C -64.621155 -168.60402 -58.163395 -174.98588 -58.116503 -182.90515 C -58.102813 -186.26049 -59.266203 -189.5144 -61.404157 -192.10045 C -60.83125 -190.6836 -60.536835 -189.16959 -60.537027 -187.64129 C -60.575787 -181.07411 -65.930869 -175.78172 -72.498054 -175.82031 C -79.065241 -175.85911 -84.357627 -181.21415 -84.319038 -187.78134 C -84.309338 -189.30285 -84.007827 -190.80837 -83.43072 -192.21621 z M -30.906277 -134.57373 C -20.750478 -134.57373 -12.66551 -132.05964 -6.6509101 -127.03104 C -0.63631038 -122.10104 2.3712782 -115.14961 2.3712782 -106.17701 C 2.3712782 -98.289015 -0.63631038 -89.858651 -6.6509101 -80.886052 C -12.66551 -72.012052 -22.574812 -61.314086 -36.378811 -48.791887 L 3.4063571 -48.791887 L 3.4063571 -34.297681 L -63.592137 -34.297681 L -63.592137 -42.875969 C -52.647538 -53.426168 -44.118785 -62.447901 -38.005585 -69.9415 C -31.892386 -77.4351 -27.504764 -84.33733 -24.842565 -90.64773 C -22.081765 -96.95813 -20.701215 -103.46525 -20.701215 -110.17005 C -20.701215 -120.81885 -24.250978 -126.14375 -31.350178 -126.14375 C -34.505378 -126.14375 -37.068664 -124.6643 -39.040664 -121.7063 C -41.012664 -118.8469 -41.99914 -115.29765 -41.99914 -111.05785 C -41.99914 -108.09985 -40.96347 -105.28956 -38.89287 -102.62736 C -40.56907 -101.04976 -42.491793 -99.817312 -44.660993 -98.929912 C -46.731593 -98.042512 -48.802417 -97.598727 -50.873017 -97.598727 C -54.422617 -97.598727 -57.380494 -98.683592 -59.746894 -100.85279 C -62.113294 -103.12059 -63.296548 -106.37415 -63.296548 -110.61395 C -63.296548 -115.14955 -61.965193 -119.24149 -59.302993 -122.88969 C -56.640794 -126.53789 -52.894252 -129.39738 -48.062853 -131.46798 C -43.132853 -133.53858 -37.413877 -134.57373 -30.906277 -134.57373 z M -107.51866 -134.27814 C -95.785256 -134.27814 -86.812718 -131.02406 -80.600918 -124.51646 C -74.290519 -118.00886 -71.135346 -108.59254 -71.135346 -96.267542 C -71.135346 -80.787343 -75.966752 -67.575284 -85.629552 -56.630685 C -95.193752 -45.784685 -109.09608 -37.798107 -127.33708 -32.670907 L -130.88674 -40.065804 C -121.02674 -44.305604 -113.08935 -49.728379 -107.07475 -56.334579 C -101.06015 -63.039379 -97.067124 -70.828662 -95.095124 -79.702662 C -100.61672 -76.941862 -105.9903 -75.561829 -111.2161 -75.561829 C -121.0761 -75.561829 -128.86539 -78.224022 -134.58419 -83.548422 C -140.20439 -88.872821 -143.01468 -96.070736 -143.01468 -105.14194 C -143.01468 -110.76214 -141.53574 -115.79032 -138.57774 -120.22732 C -135.52114 -124.66432 -131.3303 -128.11569 -126.0059 -130.58069 C -120.5829 -133.04569 -114.42065 -134.27814 -107.51866 -134.27814 z M -108.40594 -124.07308 C -112.64574 -124.07308 -115.89982 -122.44604 -118.16762 -119.19224 C -120.43542 -115.93844 -121.56896 -111.30433 -121.56896 -105.28973 C -121.56896 -99.17653 -120.33651 -94.394319 -117.87151 -90.943319 C -115.30791 -87.590919 -111.70895 -85.914685 -107.07475 -85.914685 C -103.03215 -85.914685 -98.546144 -87.590919 -93.616145 -90.943319 L -93.616145 -92.866199 C -93.616145 -103.6136 -94.799399 -111.50127 -97.165799 -116.52987 C -99.532199 -121.55847 -103.27874 -124.07308 -108.40594 -124.07308 z " /></g></svg>
