<?xml version="1.0" encoding="UTF-8" standalone="no"?>
<!-- Created with Inkscape (http://www.inkscape.org/) -->

<svg
   width="172.6701mm"
   height="172.6701mm"
   viewBox="0 0 172.6701 172.6701"
   version="1.1"
   id="svg1"
   xml:space="preserve"
   xmlns="http://www.w3.org/2000/svg"
   xmlns:svg="http://www.w3.org/2000/svg"><defs
     id="defs1" /><g
     id="layer1"
     transform="translate(157.25102,198.81012)"><path
       id="path5"
       style="fill:#ffffff;fill-opacity:1;stroke-width:0.805188;stroke-linecap:round;stroke-linejoin:round"
       d="M -2.0863309 -198.17657 L -10.088943 -183.11289 L -10.930235 -165.68398 L -19.198981 -165.68398 L -11.423229 -155.47426 L -12.166336 -140.07934 C -28.353216 -157.12094 -50.823548 -166.77435 -74.327399 -166.78417 C -103.64471 -166.77397 -130.92652 -151.79225 -146.66717 -127.05894 L -157.25102 -127.05894 L -149.61996 -115.86014 L -157.25102 -26.140039 L -8.5138455 -26.140039 L 15.419061 -26.140039 L 8.0799737 -154.80195 L 15.419061 -165.68398 L 7.4593397 -165.68398 L 6.4490654 -183.39297 L -2.0863309 -198.17657 z M -83.43072 -192.21621 C -85.584619 -189.65499 -86.77489 -186.4211 -86.795372 -183.07465 C -86.842092 -175.15518 -80.459903 -168.69733 -72.540428 -168.65072 C -64.621155 -168.60402 -58.163395 -174.98588 -58.116503 -182.90515 C -58.102813 -186.26049 -59.266203 -189.5144 -61.404157 -192.10045 C -60.83125 -190.6836 -60.536835 -189.16959 -60.537027 -187.64129 C -60.575787 -181.07411 -65.930869 -175.78172 -72.498054 -175.82031 C -79.065241 -175.85911 -84.357627 -181.21415 -84.319038 -187.78134 C -84.309338 -189.30285 -84.007827 -190.80837 -83.43072 -192.21621 z M -129.40001 -120.07436 C -124.86515 -119.84761 -121.1807 -118.85557 -118.34642 -117.09831 L -138.58291 -83.767013 L -125.57337 -83.767013 L -124.72329 -97.626632 C -122.90935 -97.626632 -121.6055 -97.995076 -120.8119 -98.731991 C -119.96161 -99.468905 -119.30995 -100.71611 -118.85646 -102.47336 L -114.00973 -102.47336 L -114.095 -83.341716 C -111.94094 -82.718173 -109.21996 -82.066508 -105.93219 -81.38628 L -106.35697 -77.304875 L -114.51978 -77.304875 L -114.51978 -62.084615 L -125.57337 -62.084615 L -125.57337 -77.304875 L -150.14706 -77.304875 L -150.82712 -80.36567 L -129.40001 -120.07436 z M -13.250507 -120.07436 C -8.7156485 -119.84761 -5.0312052 -118.85557 -2.1969184 -117.09831 L -22.433926 -83.767013 L -9.4243843 -83.767013 L -8.5743069 -97.626632 C -6.7603634 -97.626632 -5.4565181 -97.995076 -4.6629178 -98.731991 C -3.8126318 -99.468905 -3.1604507 -100.71611 -2.7069648 -102.47336 L 2.139251 -102.47336 L 2.0545016 -83.341716 C 4.2085596 -82.718173 6.9295383 -82.066508 10.217311 -81.38628 L 9.7920139 -77.304875 L 1.6292046 -77.304875 L 1.6292046 -62.084615 L -9.4243843 -62.084615 L -9.4243843 -77.304875 L -33.997561 -77.304875 L -34.67814 -80.36567 L -13.250507 -120.07436 z M -57.38063 -119.64906 C -50.748399 -119.64906 -45.674886 -117.15466 -42.160371 -112.16631 C -38.589169 -107.23465 -36.803592 -100.06428 -36.803592 -90.654448 C -36.803592 -81.244616 -38.589169 -74.017081 -42.160371 -68.97205 C -45.674886 -63.983706 -50.748399 -61.489303 -57.38063 -61.489303 C -64.012861 -61.489303 -69.114438 -63.983706 -72.685639 -68.97205 C -76.25684 -74.017081 -78.042418 -81.244616 -78.042418 -90.654448 C -78.042418 -100.00759 -76.25684 -107.17797 -72.685639 -112.16631 C -69.114438 -117.15466 -64.012861 -119.64906 -57.38063 -119.64906 z M -57.38063 -115.31237 C -60.271603 -115.31237 -62.368981 -113.41351 -63.672753 -109.61556 C -64.919839 -105.81762 -65.543439 -99.497422 -65.543439 -90.654448 C -65.543439 -81.868159 -64.919839 -75.576025 -63.672753 -71.778081 C -62.368981 -68.036822 -60.271603 -66.16602 -57.38063 -66.16602 C -54.489658 -66.16602 -52.42086 -68.036822 -51.173774 -71.778081 C -49.870002 -75.576025 -49.217821 -81.868159 -49.217821 -90.654448 C -49.217821 -99.440737 -49.870002 -105.73287 -51.173774 -109.53081 C -52.42086 -113.38544 -54.489658 -115.31237 -57.38063 -115.31237 z M -91.221975 -101.28274 C -89.237975 -101.28274 -87.764197 -100.68772 -86.80054 -99.497319 C -85.780197 -98.363604 -85.269884 -96.776539 -85.269884 -94.735852 C -85.269884 -92.695166 -85.780197 -91.107584 -86.80054 -89.973869 C -87.764197 -88.840154 -89.237975 -88.273198 -91.221975 -88.273198 C -93.205976 -88.273198 -94.708334 -88.840154 -95.728677 -89.973869 C -96.692335 -91.16427 -97.174067 -92.751852 -97.174067 -94.735852 C -97.174067 -96.833225 -96.692335 -98.448354 -95.728677 -99.582068 C -94.708334 -100.71578 -93.205976 -101.28274 -91.221975 -101.28274 z M -91.221975 -74.498845 C -89.237975 -74.498845 -87.764197 -73.903824 -86.80054 -72.713424 C -85.780197 -71.579709 -85.269884 -69.992127 -85.269884 -67.951441 C -85.269884 -65.910754 -85.780197 -64.323689 -86.80054 -63.189974 C -87.764197 -62.05626 -89.237975 -61.489303 -91.221975 -61.489303 C -93.205976 -61.489303 -94.708334 -62.05626 -95.728677 -63.189974 C -96.692335 -64.380375 -97.174067 -65.96744 -97.174067 -67.951441 C -97.174067 -70.048813 -96.692335 -71.664459 -95.728677 -72.798173 C -94.708334 -73.931888 -93.205976 -74.498845 -91.221975 -74.498845 z " /></g></svg>
