<?xml version="1.0" encoding="UTF-8" standalone="no"?>
<!-- Created with Inkscape (http://www.inkscape.org/) -->

<svg
   width="172.6701mm"
   height="172.6701mm"
   viewBox="0 0 172.6701 172.6701"
   version="1.1"
   id="svg1"
   xml:space="preserve"
   xmlns="http://www.w3.org/2000/svg"
   xmlns:svg="http://www.w3.org/2000/svg"><defs
     id="defs1" /><g
     id="layer1"
     transform="translate(157.25102,198.81012)"><path
       id="path5"
       style="fill:#ffffff;fill-opacity:1;stroke-width:0.805188;stroke-linecap:round;stroke-linejoin:round"
       d="M -2.0863309 -198.17657 L -10.088943 -183.11289 L -10.930235 -165.68398 L -19.198981 -165.68398 L -11.423229 -155.47426 L -12.166336 -140.07934 C -28.353216 -157.12094 -50.823548 -166.77435 -74.327399 -166.78417 C -103.64471 -166.77397 -130.92652 -151.79225 -146.66717 -127.05894 L -157.25102 -127.05894 L -149.61996 -115.86014 L -157.25102 -26.140039 L -8.5138455 -26.140039 L 15.419061 -26.140039 L 8.0799737 -154.80195 L 15.419061 -165.68398 L 7.4593397 -165.68398 L 6.4490654 -183.39297 L -2.0863309 -198.17657 z M -83.43072 -192.21621 C -85.584619 -189.65499 -86.77489 -186.4211 -86.795372 -183.07465 C -86.842092 -175.15518 -80.459903 -168.69733 -72.540428 -168.65072 C -64.621155 -168.60402 -58.163395 -174.98588 -58.116503 -182.90515 C -58.102813 -186.26049 -59.266203 -189.5144 -61.404157 -192.10045 C -60.83125 -190.6836 -60.536835 -189.16959 -60.537027 -187.64129 C -60.575787 -181.07411 -65.930869 -175.78172 -72.498054 -175.82031 C -79.065241 -175.85911 -84.357627 -181.21415 -84.319038 -187.78134 C -84.309338 -189.30285 -84.007827 -190.80837 -83.43072 -192.21621 z M -126.29632 -119.81908 C -120.34432 -119.81908 -115.61119 -118.54381 -112.09667 -115.99295 C -108.58215 -113.44209 -106.82464 -110.01229 -106.82464 -105.70418 C -106.82464 -103.38006 -107.67533 -101.05611 -109.37591 -98.731991 C -111.07648 -96.407876 -113.31521 -94.50901 -116.09281 -93.035181 C -112.57829 -91.334609 -109.82925 -89.350519 -107.84525 -87.08309 C -105.80456 -84.81566 -104.78394 -81.896169 -104.78394 -78.324968 C -104.78394 -73.166566 -106.65474 -69.057034 -110.396 -65.996005 C -114.13726 -62.991661 -119.18219 -61.489303 -125.53099 -61.489303 C -132.50334 -61.489303 -137.88865 -62.878373 -141.6866 -65.655974 C -145.42785 -68.433575 -147.29866 -72.401238 -147.29866 -77.55964 C -147.29866 -80.223869 -146.44796 -82.86014 -144.74739 -85.467684 C -143.04682 -88.131914 -140.66622 -90.483931 -137.60519 -92.524618 C -140.15605 -93.941761 -142.14014 -95.642631 -143.55728 -97.626632 C -144.97443 -99.610633 -145.68273 -102.07646 -145.68273 -105.02411 C -145.68273 -109.55897 -143.92574 -113.15871 -140.41122 -115.82294 C -136.89671 -118.48717 -132.19164 -119.81908 -126.29632 -119.81908 z M -12.102774 -119.56379 C -5.3571713 -119.56379 -0.19895064 -117.69351 3.3722507 -113.95225 C 7.0001377 -110.21099 8.8142958 -104.7971 8.8142958 -97.711381 C 8.8142958 -88.811721 6.0366731 -81.216258 0.48147105 -74.924142 C -5.0170453 -68.688711 -13.010049 -64.09693 -23.49691 -61.149272 L -25.537613 -65.400692 C -19.869039 -67.838179 -15.305839 -70.956182 -11.848009 -74.754126 C -8.3901791 -78.608756 -6.0942887 -83.086732 -4.960574 -88.188448 C -8.1349752 -86.601248 -11.224398 -85.807715 -14.228742 -85.807715 C -19.897316 -85.807715 -24.375292 -87.338137 -27.663064 -90.399166 C -30.894151 -93.460196 -32.509797 -97.598308 -32.509797 -102.8134 C -32.509797 -106.04448 -31.65962 -108.93539 -29.959048 -111.48625 C -28.20179 -114.03711 -25.792612 -116.0212 -22.731582 -117.43834 C -19.613867 -118.85549 -16.070775 -119.56379 -12.102774 -119.56379 z M -69.412454 -119.05375 L -65.161034 -118.969 C -59.152346 -118.85563 -55.977699 -118.79847 -55.637584 -118.79847 L -43.563386 -118.969 L -41.097903 -117.18306 L -41.862714 -110.72092 L -62.949799 -110.72092 L -64.140424 -96.521273 C -61.192766 -97.258188 -58.528431 -97.626632 -56.147631 -97.626632 C -50.535743 -97.626632 -45.972542 -96.124274 -42.458027 -93.11993 C -38.886826 -90.172272 -37.101248 -85.836165 -37.101248 -80.110905 C -37.101248 -76.539704 -37.951425 -73.336993 -39.651997 -70.502706 C -41.295883 -67.66842 -43.676998 -65.429173 -46.794713 -63.785287 C -49.912428 -62.198086 -53.596872 -61.404554 -57.848302 -61.404554 C -61.306132 -61.404554 -64.452199 -61.886286 -67.286485 -62.849943 C -70.064087 -63.813601 -72.246689 -65.14551 -73.833889 -66.846082 C -75.42109 -68.60334 -76.214623 -70.559366 -76.214623 -72.713424 C -76.214623 -74.980853 -75.591022 -76.709787 -74.343936 -77.900188 C -73.09685 -79.147274 -71.566428 -79.770358 -69.752485 -79.770358 C -68.732142 -79.770358 -67.711516 -79.572362 -66.691173 -79.175562 C -65.614144 -78.778762 -64.650679 -78.211805 -63.800393 -77.474891 C -64.310565 -76.28449 -64.565721 -75.037289 -64.565721 -73.733517 C -64.565721 -71.862888 -64.026828 -70.332466 -62.949799 -69.142066 C -61.816085 -67.951665 -60.115731 -67.356645 -57.848302 -67.356645 C -52.746586 -67.356645 -50.195539 -71.608045 -50.195539 -80.110905 C -50.195539 -84.135593 -50.989588 -87.054567 -52.576789 -88.86851 C -54.16399 -90.73914 -56.289431 -91.674541 -58.953661 -91.674541 C -60.597547 -91.674541 -62.355061 -91.36274 -64.22569 -90.739197 C -66.09632 -90.115654 -67.938541 -89.236897 -69.752485 -88.103182 L -74.428685 -92.609884 L -72.217967 -116.75776 L -69.412454 -119.05375 z M -126.29632 -113.78224 C -128.56375 -113.78224 -130.34933 -113.04535 -131.6531 -111.57152 C -132.95687 -110.15437 -133.60905 -108.22693 -133.60905 -105.78944 C -133.60905 -103.63538 -132.78694 -101.84981 -131.14305 -100.43266 C -129.44248 -99.072205 -126.97666 -97.711715 -123.74557 -96.351258 C -122.32843 -97.314915 -121.19451 -98.646824 -120.34423 -100.3474 C -119.49394 -102.04797 -119.06885 -103.86213 -119.06885 -105.78944 C -119.06885 -108.22693 -119.7491 -110.15437 -121.10956 -111.57152 C -122.41333 -113.04535 -124.14226 -113.78224 -126.29632 -113.78224 z M -12.61282 -113.69697 C -15.050307 -113.69697 -16.921109 -112.76157 -18.224881 -110.89094 C -19.528653 -109.02031 -20.180834 -106.35597 -20.180834 -102.89814 C -20.180834 -99.383629 -19.472009 -96.634587 -18.054865 -94.650586 C -16.581036 -92.723271 -14.512238 -91.759807 -11.848009 -91.759807 C -9.5238938 -91.759807 -6.9442667 -92.723271 -4.10998 -94.650586 L -4.10998 -95.755945 C -4.10998 -101.93469 -4.7902246 -106.46931 -6.1506823 -109.36028 C -7.5111399 -112.25126 -9.6651619 -113.69697 -12.61282 -113.69697 z M -89.734211 -101.28274 C -87.75021 -101.28274 -86.276433 -100.68772 -85.312775 -99.497319 C -84.292432 -98.363604 -83.782119 -96.776539 -83.782119 -94.735852 C -83.782119 -92.695166 -84.292432 -91.107584 -85.312775 -89.973869 C -86.276433 -88.840154 -87.75021 -88.273198 -89.734211 -88.273198 C -91.718212 -88.273198 -93.220053 -88.840154 -94.240396 -89.973869 C -95.204053 -91.16427 -95.686302 -92.751852 -95.686302 -94.735852 C -95.686302 -96.833225 -95.204053 -98.448354 -94.240396 -99.582068 C -93.220053 -100.71578 -91.718212 -101.28274 -89.734211 -101.28274 z M -129.78241 -89.038526 C -131.48298 -87.678068 -132.73019 -86.119583 -133.52379 -84.362325 C -134.31739 -82.605068 -134.71441 -80.50769 -134.71441 -78.070203 C -134.71441 -74.725745 -133.8923 -72.089474 -132.24841 -70.162159 C -130.60453 -68.291529 -128.36528 -67.356645 -125.53099 -67.356645 C -122.75339 -67.356645 -120.59937 -68.291529 -119.06885 -70.162159 C -117.48165 -72.032788 -116.68812 -74.640479 -116.68812 -77.984937 C -116.68812 -79.855566 -117.28314 -81.442631 -118.47354 -82.746403 C -119.60726 -84.106861 -121.05297 -85.212194 -122.81023 -86.06248 C -124.56749 -86.969452 -126.89144 -87.961497 -129.78241 -89.038526 z M -89.734211 -74.498845 C -87.75021 -74.498845 -86.276433 -73.903824 -85.312775 -72.713424 C -84.292432 -71.579709 -83.782119 -69.992127 -83.782119 -67.951441 C -83.782119 -65.910754 -84.292432 -64.323689 -85.312775 -63.189974 C -86.276433 -62.05626 -87.75021 -61.489303 -89.734211 -61.489303 C -91.718212 -61.489303 -93.220053 -62.05626 -94.240396 -63.189974 C -95.204053 -64.380375 -95.686302 -65.96744 -95.686302 -67.951441 C -95.686302 -70.048813 -95.204053 -71.664459 -94.240396 -72.798173 C -93.220053 -73.931888 -91.718212 -74.498845 -89.734211 -74.498845 z " /></g></svg>
