<?xml version="1.0" encoding="UTF-8" standalone="no"?>
<!-- Created with Inkscape (http://www.inkscape.org/) -->

<svg
   width="172.6701mm"
   height="172.6701mm"
   viewBox="0 0 172.6701 172.6701"
   version="1.1"
   id="svg1"
   xml:space="preserve"
   xmlns="http://www.w3.org/2000/svg"
   xmlns:svg="http://www.w3.org/2000/svg"><defs
     id="defs1" /><g
     id="layer1"
     transform="translate(157.25102,198.81012)"><path
       id="path5"
       style="fill:#ffffff;fill-opacity:1;stroke-width:0.805188;stroke-linecap:round;stroke-linejoin:round"
       d="M -2.0863309 -198.17657 L -10.088943 -183.11289 L -10.930235 -165.68398 L -19.198981 -165.68398 L -11.423229 -155.47426 L -12.166336 -140.07934 C -28.353216 -157.12094 -50.823548 -166.77435 -74.327399 -166.78417 C -103.64471 -166.77397 -130.92652 -151.79225 -146.66717 -127.05894 L -157.25102 -127.05894 L -149.61996 -115.86014 L -157.25102 -26.140039 L -8.5138455 -26.140039 L 15.419061 -26.140039 L 8.0799737 -154.80195 L 15.419061 -165.68398 L 7.4593397 -165.68398 L 6.4490654 -183.39297 L -2.0863309 -198.17657 z M -83.43072 -192.21621 C -85.584619 -189.65499 -86.77489 -186.4211 -86.795372 -183.07465 C -86.842092 -175.15518 -80.459903 -168.69733 -72.540428 -168.65072 C -64.621155 -168.60402 -58.163395 -174.98588 -58.116503 -182.90515 C -58.102813 -186.26049 -59.266203 -189.5144 -61.404157 -192.10045 C -60.83125 -190.6836 -60.536835 -189.16959 -60.537027 -187.64129 C -60.575787 -181.07411 -65.930869 -175.78172 -72.498054 -175.82031 C -79.065241 -175.85911 -84.357627 -181.21415 -84.319038 -187.78134 C -84.309338 -189.30285 -84.007827 -190.80837 -83.43072 -192.21621 z M -60.569066 -119.64906 C -53.936835 -119.64906 -48.863839 -117.15466 -45.349323 -112.16631 C -41.778122 -107.23465 -39.992544 -100.06428 -39.992544 -90.654448 C -39.992544 -81.244616 -41.778122 -74.017081 -45.349323 -68.97205 C -48.863839 -63.983706 -53.936835 -61.489303 -60.569066 -61.489303 C -67.201297 -61.489303 -72.30339 -63.983706 -75.874592 -68.97205 C -79.445793 -74.017081 -81.231371 -81.244616 -81.231371 -90.654448 C -81.231371 -100.00759 -79.445793 -107.17797 -75.874592 -112.16631 C -72.30339 -117.15466 -67.201297 -119.64906 -60.569066 -119.64906 z M -15.248835 -119.64906 C -8.6166039 -119.64906 -3.5430909 -117.15466 -0.028575339 -112.16631 C 3.542626 -107.23465 5.3282036 -100.06428 5.3282036 -90.654448 C 5.3282036 -81.244616 3.542626 -74.017081 -0.028575339 -68.97205 C -3.5430909 -63.983706 -8.6166039 -61.489303 -15.248835 -61.489303 C -21.881066 -61.489303 -26.982643 -63.983706 -30.553844 -68.97205 C -34.125045 -74.017081 -35.91114 -81.244616 -35.91114 -90.654448 C -35.91114 -100.00759 -34.125045 -107.17797 -30.553844 -112.16631 C -26.982643 -117.15466 -21.881066 -119.64906 -15.248835 -119.64906 z M -122.55495 -119.13901 L -119.74943 -117.86364 L -119.74943 -68.716769 C -118.6724 -68.093226 -116.97153 -67.526269 -114.64742 -67.016097 C -112.3233 -66.562611 -110.48108 -66.279392 -109.12062 -66.16602 L -109.37591 -62.084615 L -144.06733 -62.084615 L -143.89731 -66.16602 C -138.85228 -66.732877 -134.99791 -67.583054 -132.33368 -68.716769 L -132.33368 -109.44555 L -143.7273 -109.44555 L -143.7273 -114.37703 C -140.09941 -114.66046 -136.35832 -115.19935 -132.50369 -115.99295 C -128.64906 -116.84324 -125.33255 -117.89193 -122.55495 -119.13901 z M -60.569066 -115.31237 C -63.460039 -115.31237 -65.557417 -113.41351 -66.861188 -109.61556 C -68.108275 -105.81762 -68.731875 -99.497422 -68.731875 -90.654448 C -68.731875 -81.868159 -68.108275 -75.576025 -66.861188 -71.778081 C -65.557417 -68.036822 -63.460039 -66.16602 -60.569066 -66.16602 C -57.678094 -66.16602 -55.609296 -68.036822 -54.36221 -71.778081 C -53.058438 -75.576025 -52.406774 -81.868159 -52.406774 -90.654448 C -52.406774 -99.440737 -53.058438 -105.73287 -54.36221 -109.53081 C -55.609296 -113.38544 -57.678094 -115.31237 -60.569066 -115.31237 z M -15.248835 -115.31237 C -18.139807 -115.31237 -20.237185 -113.41351 -21.540957 -109.61556 C -22.788044 -105.81762 -23.411644 -99.497422 -23.411644 -90.654448 C -23.411644 -81.868159 -22.788044 -75.576025 -21.540957 -71.778081 C -20.237185 -68.036822 -18.139807 -66.16602 -15.248835 -66.16602 C -12.357862 -66.16602 -10.289065 -68.036822 -9.0419787 -71.778081 C -7.7382068 -75.576025 -7.0860257 -81.868159 -7.0860257 -90.654448 C -7.0860257 -99.440737 -7.7382068 -105.73287 -9.0419787 -109.53081 C -10.289065 -113.38544 -12.357862 -115.31237 -15.248835 -115.31237 z M -94.410928 -101.28274 C -92.426927 -101.28274 -90.952633 -100.68772 -89.988976 -99.497319 C -88.968632 -98.363604 -88.458837 -96.776539 -88.458837 -94.735852 C -88.458837 -92.695166 -88.968632 -91.107584 -89.988976 -89.973869 C -90.952633 -88.840154 -92.426927 -88.273198 -94.410928 -88.273198 C -96.394929 -88.273198 -97.89677 -88.840154 -98.917113 -89.973869 C -99.88077 -91.16427 -100.3625 -92.751852 -100.3625 -94.735852 C -100.3625 -96.833225 -99.88077 -98.448354 -98.917113 -99.582068 C -97.89677 -100.71578 -96.394929 -101.28274 -94.410928 -101.28274 z M -94.410928 -74.498845 C -92.426927 -74.498845 -90.952633 -73.903824 -89.988976 -72.713424 C -88.968632 -71.579709 -88.458837 -69.992127 -88.458837 -67.951441 C -88.458837 -65.910754 -88.968632 -64.323689 -89.988976 -63.189974 C -90.952633 -62.05626 -92.426927 -61.489303 -94.410928 -61.489303 C -96.394929 -61.489303 -97.89677 -62.05626 -98.917113 -63.189974 C -99.88077 -64.380375 -100.3625 -65.96744 -100.3625 -67.951441 C -100.3625 -70.048813 -99.88077 -71.664459 -98.917113 -72.798173 C -97.89677 -73.931888 -96.394929 -74.498845 -94.410928 -74.498845 z " /></g></svg>
