<?xml version="1.0" encoding="UTF-8" standalone="no"?>
<!-- Created with Inkscape (http://www.inkscape.org/) -->

<svg
   width="172.6701mm"
   height="172.6701mm"
   viewBox="0 0 172.6701 172.6701"
   version="1.1"
   id="svg1"
   xml:space="preserve"
   xmlns="http://www.w3.org/2000/svg"
   xmlns:svg="http://www.w3.org/2000/svg"><defs
     id="defs1" /><g
     id="layer1"
     transform="translate(157.25102,198.81012)"><path
       id="path5"
       style="fill:#ffffff;fill-opacity:1;stroke-width:0.805188;stroke-linecap:round;stroke-linejoin:round"
       d="M -2.0863309 -198.17657 L -10.088943 -183.11289 L -10.930235 -165.68398 L -19.198981 -165.68398 L -11.423229 -155.47426 L -12.166336 -140.07934 C -28.353216 -157.12094 -50.823548 -166.77435 -74.327399 -166.78417 C -103.64471 -166.77397 -130.92652 -151.79225 -146.66717 -127.05894 L -157.25102 -127.05894 L -149.61996 -115.86014 L -157.25102 -26.140039 L -8.5138455 -26.140039 L 15.419061 -26.140039 L 8.0799737 -154.80195 L 15.419061 -165.68398 L 7.4593397 -165.68398 L 6.4490654 -183.39297 L -2.0863309 -198.17657 z M -83.43072 -192.21621 C -85.584619 -189.65499 -86.77489 -186.4211 -86.795372 -183.07465 C -86.842092 -175.15518 -80.459903 -168.69733 -72.540428 -168.65072 C -64.621155 -168.60402 -58.163395 -174.98588 -58.116503 -182.90515 C -58.102813 -186.26049 -59.266203 -189.5144 -61.404157 -192.10045 C -60.83125 -190.6836 -60.536835 -189.16959 -60.537027 -187.64129 C -60.575787 -181.07411 -65.930869 -175.78172 -72.498054 -175.82031 C -79.065241 -175.85911 -84.357627 -181.21415 -84.319038 -187.78134 C -84.309338 -189.30285 -84.007827 -190.80837 -83.43072 -192.21621 z M -59.761363 -119.73381 C -53.922733 -119.73381 -49.274825 -118.28861 -45.816995 -115.39764 C -42.359165 -112.56335 -40.630231 -108.56711 -40.630231 -103.40871 C -40.630231 -98.873849 -42.359165 -94.026912 -45.816995 -88.86851 C -49.274825 -83.766794 -54.971422 -77.616529 -62.907425 -70.41744 L -40.034919 -70.41744 L -40.034919 -62.084615 L -78.552981 -62.084615 L -78.552981 -67.016097 C -72.260865 -73.081471 -67.357284 -78.268272 -63.842768 -82.576388 C -60.328252 -86.884504 -57.805786 -90.852684 -56.275271 -94.480571 C -54.688071 -98.108458 -53.894538 -101.84955 -53.894538 -105.70418 C -53.894538 -111.82623 -55.935272 -114.88759 -60.016645 -114.88759 C -61.830589 -114.88759 -63.304366 -114.0369 -64.438081 -112.33633 C -65.571795 -110.69244 -66.138752 -108.65171 -66.138752 -106.21422 C -66.138752 -104.51365 -65.543215 -102.89852 -64.352814 -101.36801 C -65.316472 -100.46103 -66.421805 -99.752209 -67.668891 -99.242037 C -68.859292 -98.731866 -70.049849 -98.476709 -71.240249 -98.476709 C -73.280936 -98.476709 -74.981806 -99.10031 -76.342263 -100.3474 C -77.702721 -101.65117 -78.382966 -103.52197 -78.382966 -105.95946 C -78.382966 -108.567 -77.617497 -110.91953 -76.086982 -113.01691 C -74.556467 -115.11428 -72.402445 -116.75799 -69.624844 -117.94839 C -66.790557 -119.13879 -63.502622 -119.73381 -59.761363 -119.73381 z M -15.291726 -119.56379 C -8.5461239 -119.56379 -3.3873865 -117.69351 0.1838148 -113.95225 C 3.8117018 -110.21099 5.6253431 -104.7971 5.6253431 -97.711381 C 5.6253431 -88.811721 2.8477204 -81.216258 -2.7074816 -74.924142 C -8.2059979 -68.688711 -16.198485 -64.09693 -26.685346 -61.149272 L -28.726048 -65.400692 C -23.057475 -67.838179 -18.494275 -70.956182 -15.036445 -74.754126 C -11.578615 -78.608756 -9.2827246 -83.086732 -8.1490099 -88.188448 C -11.323411 -86.601248 -14.412834 -85.807715 -17.417178 -85.807715 C -23.085752 -85.807715 -27.563728 -87.338137 -30.8515 -90.399166 C -34.082587 -93.460196 -35.698233 -97.598308 -35.698233 -102.8134 C -35.698233 -106.04448 -34.848056 -108.93539 -33.147484 -111.48625 C -31.390226 -114.03711 -28.981048 -116.0212 -25.920018 -117.43834 C -22.802303 -118.85549 -19.259728 -119.56379 -15.291726 -119.56379 z M -144.1097 -118.88373 L -139.94355 -118.88373 C -137.78949 -118.82705 -133.08442 -118.79847 -125.82865 -118.79847 C -118.28945 -118.79847 -113.38638 -118.82705 -111.11895 -118.88373 L -107.03755 -118.88373 L -105.33688 -115.22762 C -106.41391 -113.52705 -108.45464 -109.84261 -111.45898 -104.17404 C -114.46333 -98.505463 -117.29759 -92.496548 -119.96182 -86.147746 C -122.62605 -79.798944 -123.95796 -74.838719 -123.95796 -71.267517 C -123.95796 -68.433231 -122.96592 -66.307789 -120.98192 -64.890646 C -122.90923 -62.566531 -125.37505 -61.404554 -128.3794 -61.404554 C -131.157 -61.404554 -133.31102 -62.169506 -134.84154 -63.700021 C -136.37205 -65.230536 -137.13752 -67.356494 -137.13752 -70.077409 C -137.13752 -73.478553 -136.31541 -77.077772 -134.67152 -80.875717 C -133.02763 -84.730347 -130.08008 -89.945728 -125.82865 -96.521273 L -115.79515 -111.9963 L -135.18208 -111.9963 C -135.97568 -109.44544 -136.45742 -106.44124 -136.62747 -102.98341 C -137.64782 -102.81335 -138.6965 -102.72813 -139.77353 -102.72813 C -140.90725 -102.72813 -142.01258 -102.81335 -143.08961 -102.98341 L -145.47034 -117.60836 L -144.1097 -118.88373 z M -15.801773 -113.69697 C -18.239259 -113.69697 -20.109545 -112.76157 -21.413317 -110.89094 C -22.717088 -109.02031 -23.36927 -106.35597 -23.36927 -102.89814 C -23.36927 -99.383629 -22.660444 -96.634587 -21.243301 -94.650586 C -19.769472 -92.723271 -17.700674 -91.759807 -15.036445 -91.759807 C -12.71233 -91.759807 -10.133219 -92.723271 -7.2989326 -94.650586 L -7.2989326 -95.755945 C -7.2989326 -101.93469 -7.9791773 -106.46931 -9.3396349 -109.36028 C -10.700093 -112.25126 -12.854115 -113.69697 -15.801773 -113.69697 z M -91.817288 -101.28274 C -89.833287 -101.28274 -88.35951 -100.68772 -87.395852 -99.497319 C -86.375509 -98.363604 -85.865196 -96.776539 -85.865196 -94.735852 C -85.865196 -92.695166 -86.375509 -91.107584 -87.395852 -89.973869 C -88.35951 -88.840154 -89.833287 -88.273198 -91.817288 -88.273198 C -93.801289 -88.273198 -95.303646 -88.840154 -96.32399 -89.973869 C -97.287647 -91.16427 -97.769379 -92.751852 -97.769379 -94.735852 C -97.769379 -96.833225 -97.287647 -98.448354 -96.32399 -99.582068 C -95.303646 -100.71578 -93.801289 -101.28274 -91.817288 -101.28274 z M -91.817288 -74.498845 C -89.833287 -74.498845 -88.35951 -73.903824 -87.395852 -72.713424 C -86.375509 -71.579709 -85.865196 -69.992127 -85.865196 -67.951441 C -85.865196 -65.910754 -86.375509 -64.323689 -87.395852 -63.189974 C -88.35951 -62.05626 -89.833287 -61.489303 -91.817288 -61.489303 C -93.801289 -61.489303 -95.303646 -62.05626 -96.32399 -63.189974 C -97.287647 -64.380375 -97.769379 -65.96744 -97.769379 -67.951441 C -97.769379 -70.048813 -97.287647 -71.664459 -96.32399 -72.798173 C -95.303646 -73.931888 -93.801289 -74.498845 -91.817288 -74.498845 z " /></g></svg>
