<?xml version="1.0" encoding="UTF-8" standalone="no"?>
<!-- Created with Inkscape (http://www.inkscape.org/) -->

<svg
   width="172.6701mm"
   height="172.6701mm"
   viewBox="0 0 172.6701 172.6701"
   version="1.1"
   id="svg1"
   xml:space="preserve"
   xmlns="http://www.w3.org/2000/svg"
   xmlns:svg="http://www.w3.org/2000/svg"><defs
     id="defs1" /><g
     id="layer1"
     transform="translate(157.25102,198.81012)"><path
       id="path5"
       style="fill:#ffffff;fill-opacity:1;stroke-width:0.805188;stroke-linecap:round;stroke-linejoin:round"
       d="M -2.0863309 -198.17657 L -10.088943 -183.11289 L -10.930235 -165.68398 L -19.198981 -165.68398 L -11.423229 -155.47426 L -12.166336 -140.07934 C -28.353216 -157.12094 -50.823548 -166.77435 -74.327399 -166.78417 C -103.64471 -166.77397 -130.92652 -151.79225 -146.66717 -127.05894 L -157.25102 -127.05894 L -149.61996 -115.86014 L -157.25102 -26.140039 L -8.5138455 -26.140039 L 15.419061 -26.140039 L 8.0799737 -154.80195 L 15.419061 -165.68398 L 7.4593397 -165.68398 L 6.4490654 -183.39297 L -2.0863309 -198.17657 z M -83.43072 -192.21621 C -85.584619 -189.65499 -86.77489 -186.4211 -86.795372 -183.07465 C -86.842092 -175.15518 -80.459903 -168.69733 -72.540428 -168.65072 C -64.621155 -168.60402 -58.163395 -174.98588 -58.116503 -182.90515 C -58.102813 -186.26049 -59.266203 -189.5144 -61.404157 -192.10045 C -60.83125 -190.6836 -60.536835 -189.16959 -60.537027 -187.64129 C -60.575787 -181.07411 -65.930869 -175.78172 -72.498054 -175.82031 C -79.065241 -175.85911 -84.357627 -181.21415 -84.319038 -187.78134 C -84.309338 -189.30285 -84.007827 -190.80837 -83.43072 -192.21621 z M -126.1263 -119.73381 C -120.28767 -119.73381 -115.63925 -118.28861 -112.18142 -115.39764 C -108.72359 -112.56335 -106.99466 -108.56711 -106.99466 -103.40871 C -106.99466 -98.873849 -108.72359 -94.026912 -112.18142 -88.86851 C -115.63925 -83.766794 -121.33636 -77.616529 -129.27237 -70.41744 L -106.39986 -70.41744 L -106.39986 -62.084615 L -144.91741 -62.084615 L -144.91741 -67.016097 C -138.62529 -73.081471 -133.72223 -78.268272 -130.20771 -82.576388 C -126.69319 -86.884504 -124.17073 -90.852684 -122.64021 -94.480571 C -121.05301 -98.108458 -120.25948 -101.84955 -120.25948 -105.70418 C -120.25948 -111.82623 -122.30021 -114.88759 -126.38159 -114.88759 C -128.19553 -114.88759 -129.66931 -114.0369 -130.80302 -112.33633 C -131.93674 -110.69244 -132.50369 -108.65171 -132.50369 -106.21422 C -132.50369 -104.51365 -131.90816 -102.89852 -130.71776 -101.36801 C -131.68141 -100.46103 -132.78675 -99.752209 -134.03383 -99.242037 C -135.22423 -98.731866 -136.41479 -98.476709 -137.60519 -98.476709 C -139.64588 -98.476709 -141.34623 -99.10031 -142.70669 -100.3474 C -144.06715 -101.65117 -144.74739 -103.52197 -144.74739 -105.95946 C -144.74739 -108.567 -143.98244 -110.91953 -142.45192 -113.01691 C -140.92141 -115.11428 -138.76739 -116.75799 -135.98979 -117.94839 C -133.1555 -119.13879 -129.86756 -119.73381 -126.1263 -119.73381 z M -14.228742 -119.73381 C -10.544169 -119.73381 -7.2842976 -119.11073 -4.4500109 -117.86364 C -1.6157241 -116.67324 0.59494185 -114.97237 2.1821424 -112.76163 C 3.769343 -110.60757 4.5628757 -108.11368 4.5628757 -105.27939 C 4.5628757 -102.10499 3.6274747 -99.384015 1.7568454 -97.116586 C -0.11378386 -94.849156 -2.8914065 -93.120223 -6.5759793 -91.929822 C -1.927749 -90.909479 1.331606 -89.237189 3.2022352 -86.913074 C 5.0728645 -84.588959 6.0082655 -81.442892 6.0082655 -77.474891 C 6.0082655 -74.017061 4.9595765 -71.069506 2.8622043 -68.632019 C 0.82151782 -66.194533 -1.8428169 -64.380375 -5.1305895 -63.189974 C -8.4183621 -61.999574 -11.819585 -61.404554 -15.334101 -61.404554 C -20.435817 -61.404554 -24.771925 -62.453243 -28.343126 -64.550615 C -31.857642 -66.647987 -33.615156 -69.510317 -33.615156 -73.138204 C -33.615156 -75.235577 -32.991555 -76.851222 -31.744469 -77.984937 C -30.497383 -79.175337 -28.938381 -79.770358 -27.067752 -79.770358 C -25.140437 -79.770358 -23.184927 -79.005405 -21.200926 -77.474891 C -21.711098 -76.397862 -21.966254 -75.094016 -21.966254 -73.563501 C -21.966254 -71.749558 -21.427878 -70.275781 -20.350849 -69.142066 C -19.217134 -68.008351 -17.544845 -67.441394 -15.334101 -67.441394 C -10.459128 -67.441394 -8.0213691 -70.814037 -8.0213691 -77.55964 C -8.0213691 -81.244213 -9.2119265 -84.10706 -11.592727 -86.147746 C -13.916842 -88.188433 -17.232841 -89.208541 -21.540957 -89.208541 L -21.540957 -94.480571 C -13.208154 -95.1608 -9.0419787 -98.760535 -9.0419787 -105.27939 C -9.0419787 -108.56717 -9.5517746 -110.97583 -10.572118 -112.50634 C -11.592461 -114.09354 -12.981531 -114.88759 -14.738789 -114.88759 C -16.836161 -114.88759 -18.423226 -114.15071 -19.500255 -112.67688 C -20.520598 -111.20305 -21.030911 -109.41747 -21.030911 -107.3201 C -21.030911 -105.44947 -20.633886 -103.77718 -19.840286 -102.30335 C -21.427487 -100.60278 -23.468221 -99.752084 -25.962393 -99.752084 C -28.229822 -99.752084 -29.987336 -100.43233 -31.234423 -101.79279 C -32.481509 -103.15324 -33.105109 -104.91076 -33.105109 -107.06482 C -33.105109 -109.8991 -32.141128 -112.25164 -30.213813 -114.12227 C -28.229812 -116.04958 -25.79257 -117.46671 -22.901598 -118.37369 C -19.95394 -119.28066 -17.063029 -119.73381 -14.228742 -119.73381 z M -57.423005 -119.64906 C -50.790774 -119.64906 -45.717778 -117.15466 -42.203262 -112.16631 C -38.632061 -107.23465 -36.846483 -100.06428 -36.846483 -90.654448 C -36.846483 -81.244616 -38.632061 -74.017081 -42.203262 -68.97205 C -45.717778 -63.983706 -50.790774 -61.489303 -57.423005 -61.489303 C -64.055236 -61.489303 -69.157329 -63.983706 -72.728531 -68.97205 C -76.299732 -74.017081 -78.08531 -81.244616 -78.08531 -90.654448 C -78.08531 -100.00759 -76.299732 -107.17797 -72.728531 -112.16631 C -69.157329 -117.15466 -64.055236 -119.64906 -57.423005 -119.64906 z M -57.423005 -115.31237 C -60.313977 -115.31237 -62.411355 -113.41351 -63.715127 -109.61556 C -64.962213 -105.81762 -65.585814 -99.497422 -65.585814 -90.654448 C -65.585814 -81.868159 -64.962213 -75.576025 -63.715127 -71.778081 C -62.411355 -68.036822 -60.313977 -66.16602 -57.423005 -66.16602 C -54.532032 -66.16602 -52.463235 -68.036822 -51.216149 -71.778081 C -49.912377 -75.576025 -49.260196 -81.868159 -49.260196 -90.654448 C -49.260196 -99.440737 -49.912377 -105.73287 -51.216149 -109.53081 C -52.463235 -113.38544 -54.532032 -115.31237 -57.423005 -115.31237 z M -91.26435 -101.28274 C -89.280349 -101.28274 -87.806572 -100.68772 -86.842915 -99.497319 C -85.822571 -98.363604 -85.312775 -96.776539 -85.312775 -94.735852 C -85.312775 -92.695166 -85.822571 -91.107584 -86.842915 -89.973869 C -87.806572 -88.840154 -89.280349 -88.273198 -91.26435 -88.273198 C -93.248351 -88.273198 -94.750709 -88.840154 -95.771052 -89.973869 C -96.734709 -91.16427 -97.216442 -92.751852 -97.216442 -94.735852 C -97.216442 -96.833225 -96.734709 -98.448354 -95.771052 -99.582068 C -94.750709 -100.71578 -93.248351 -101.28274 -91.26435 -101.28274 z M -91.26435 -74.498845 C -89.280349 -74.498845 -87.806572 -73.903824 -86.842915 -72.713424 C -85.822571 -71.579709 -85.312775 -69.992127 -85.312775 -67.951441 C -85.312775 -65.910754 -85.822571 -64.323689 -86.842915 -63.189974 C -87.806572 -62.05626 -89.280349 -61.489303 -91.26435 -61.489303 C -93.248351 -61.489303 -94.750709 -62.05626 -95.771052 -63.189974 C -96.734709 -64.380375 -97.216442 -65.96744 -97.216442 -67.951441 C -97.216442 -70.048813 -96.734709 -71.664459 -95.771052 -72.798173 C -94.750709 -73.931888 -93.248351 -74.498845 -91.26435 -74.498845 z " /></g></svg>
