<?xml version="1.0" encoding="UTF-8" standalone="no"?>
<!-- Created with Inkscape (http://www.inkscape.org/) -->

<svg
   width="172.6701mm"
   height="172.6701mm"
   viewBox="0 0 172.6701 172.6701"
   version="1.1"
   id="svg1"
   xml:space="preserve"
   xmlns="http://www.w3.org/2000/svg"
   xmlns:svg="http://www.w3.org/2000/svg"><defs
     id="defs1" /><g
     id="layer1"
     transform="translate(157.25102,198.81012)"><path
       id="path5"
       style="fill:#ffffff;fill-opacity:1;stroke-width:0.805188;stroke-linecap:round;stroke-linejoin:round"
       d="M -2.0863309 -198.17657 L -10.088943 -183.11289 L -10.930235 -165.68398 L -19.198981 -165.68398 L -11.423229 -155.47426 L -12.166336 -140.07934 C -28.353216 -157.12094 -50.823548 -166.77435 -74.327399 -166.78417 C -103.64471 -166.77397 -130.92652 -151.79225 -146.66717 -127.05894 L -157.25102 -127.05894 L -149.61996 -115.86014 L -157.25102 -26.140039 L -8.5138455 -26.140039 L 15.419061 -26.140039 L 8.0799737 -154.80195 L 15.419061 -165.68398 L 7.4593397 -165.68398 L 6.4490654 -183.39297 L -2.0863309 -198.17657 z M -83.43072 -192.21621 C -85.584619 -189.65499 -86.77489 -186.4211 -86.795372 -183.07465 C -86.842092 -175.15518 -80.459903 -168.69733 -72.540428 -168.65072 C -64.621155 -168.60402 -58.163395 -174.98588 -58.116503 -182.90515 C -58.102813 -186.26049 -59.266203 -189.5144 -61.404157 -192.10045 C -60.83125 -190.6836 -60.536835 -189.16959 -60.537027 -187.64129 C -60.575787 -181.07411 -65.930869 -175.78172 -72.498054 -175.82031 C -79.065241 -175.85911 -84.357627 -181.21415 -84.319038 -187.78134 C -84.309338 -189.30285 -84.007827 -190.80837 -83.43072 -192.21621 z M -12.910476 -119.81908 C -6.9584742 -119.81908 -2.2253419 -118.54381 1.2891737 -115.99295 C 4.8036893 -113.44209 6.5612033 -110.01229 6.5612033 -105.70418 C 6.5612033 -103.38006 5.7105099 -101.05611 4.0099378 -98.731991 C 2.3093658 -96.407876 0.070636194 -94.50901 -2.7069648 -93.035181 C 0.80755075 -91.334609 3.556593 -89.350519 5.5405938 -87.08309 C 7.5812802 -84.81566 8.6013889 -81.896169 8.6013889 -78.324968 C 8.6013889 -73.166566 6.7311036 -69.057034 2.9898451 -65.996005 C -0.75141344 -62.991661 -5.7963461 -61.489303 -12.145148 -61.489303 C -19.117494 -61.489303 -24.502807 -62.878373 -28.300751 -65.655974 C -32.04201 -68.433575 -33.912812 -72.401238 -33.912812 -77.55964 C -33.912812 -80.223869 -33.062119 -82.86014 -31.361547 -85.467684 C -29.660974 -88.131914 -27.280377 -90.483931 -24.219347 -92.524618 C -26.770205 -93.941761 -28.754295 -95.642631 -30.171438 -97.626632 C -31.588582 -99.610633 -32.29689 -102.07646 -32.29689 -105.02411 C -32.29689 -109.55897 -30.539893 -113.15871 -27.025377 -115.82294 C -23.510862 -118.48717 -18.805793 -119.81908 -12.910476 -119.81908 z M -58.911286 -119.64906 C -52.279055 -119.64906 -47.205542 -117.15466 -43.691027 -112.16631 C -40.119825 -107.23465 -38.334248 -100.06428 -38.334248 -90.654448 C -38.334248 -81.244616 -40.119825 -74.017081 -43.691027 -68.97205 C -47.205542 -63.983706 -52.279055 -61.489303 -58.911286 -61.489303 C -65.543517 -61.489303 -70.645094 -63.983706 -74.216295 -68.97205 C -77.787496 -74.017081 -79.573074 -81.244616 -79.573074 -90.654448 C -79.573074 -100.00759 -77.787496 -107.17797 -74.216295 -112.16631 C -70.645094 -117.15466 -65.543517 -119.64906 -58.911286 -119.64906 z M -140.4536 -119.05375 L -136.20218 -118.969 C -130.19349 -118.85563 -127.01936 -118.79847 -126.67924 -118.79847 L -114.60504 -118.969 L -112.13904 -117.18306 L -112.90437 -110.72092 L -133.99146 -110.72092 L -135.18208 -96.521273 C -132.23442 -97.258188 -129.57009 -97.626632 -127.18929 -97.626632 C -121.5774 -97.626632 -117.0142 -96.124274 -113.49969 -93.11993 C -109.92848 -90.172272 -108.14291 -85.836165 -108.14291 -80.110905 C -108.14291 -76.539704 -108.99308 -73.336993 -110.69366 -70.502706 C -112.33754 -67.66842 -114.71814 -65.429173 -117.83585 -63.785287 C -120.95357 -62.198086 -124.63853 -61.404554 -128.88996 -61.404554 C -132.34779 -61.404554 -135.49386 -61.886286 -138.32814 -62.849943 C -141.10575 -63.813601 -143.28783 -65.14551 -144.87503 -66.846082 C -146.46223 -68.60334 -147.25576 -70.559366 -147.25576 -72.713424 C -147.25576 -74.980853 -146.63216 -76.709787 -145.38508 -77.900188 C -144.13799 -79.147274 -142.60757 -79.770358 -140.79363 -79.770358 C -139.77328 -79.770358 -138.75317 -79.572362 -137.73283 -79.175562 C -136.6558 -78.778762 -135.69182 -78.211805 -134.84154 -77.474891 C -135.35171 -76.28449 -135.60686 -75.037289 -135.60686 -73.733517 C -135.60686 -71.862888 -135.06849 -70.332466 -133.99146 -69.142066 C -132.85774 -67.951665 -131.15739 -67.356645 -128.88996 -67.356645 C -123.78824 -67.356645 -121.2372 -71.608045 -121.2372 -80.110905 C -121.2372 -84.135593 -122.03073 -87.054567 -123.61793 -88.86851 C -125.20513 -90.73914 -127.33109 -91.674541 -129.99532 -91.674541 C -131.63921 -91.674541 -133.3962 -91.36274 -135.26683 -90.739197 C -137.13746 -90.115654 -138.97968 -89.236897 -140.79363 -88.103182 L -145.47034 -92.609884 L -143.25963 -116.75776 L -140.4536 -119.05375 z M -58.911286 -115.31237 C -61.802259 -115.31237 -63.899637 -113.41351 -65.203409 -109.61556 C -66.450495 -105.81762 -67.074095 -99.497422 -67.074095 -90.654448 C -67.074095 -81.868159 -66.450495 -75.576025 -65.203409 -71.778081 C -63.899637 -68.036822 -61.802259 -66.16602 -58.911286 -66.16602 C -56.020314 -66.16602 -53.950999 -68.036822 -52.703913 -71.778081 C -51.400141 -75.576025 -50.748477 -81.868159 -50.748477 -90.654448 C -50.748477 -99.440737 -51.400141 -105.73287 -52.703913 -109.53081 C -53.950999 -113.38544 -56.020314 -115.31237 -58.911286 -115.31237 z M -12.910476 -113.78224 C -15.177906 -113.78224 -16.963483 -113.04535 -18.267255 -111.57152 C -19.571027 -110.15437 -20.223208 -108.22693 -20.223208 -105.78944 C -20.223208 -103.63538 -19.401095 -101.84981 -17.757209 -100.43266 C -16.056637 -99.072205 -13.590815 -97.711715 -10.359728 -96.351258 C -8.9425843 -97.314915 -7.8086709 -98.646824 -6.9583849 -100.3474 C -6.1080989 -102.04797 -5.6830106 -103.86213 -5.6830106 -105.78944 C -5.6830106 -108.22693 -6.3632552 -110.15437 -7.7237129 -111.57152 C -9.0274848 -113.04535 -10.756418 -113.78224 -12.910476 -113.78224 z M -92.752631 -101.28274 C -90.768631 -101.28274 -89.294853 -100.68772 -88.331196 -99.497319 C -87.310853 -98.363604 -86.80054 -96.776539 -86.80054 -94.735852 C -86.80054 -92.695166 -87.310853 -91.107584 -88.331196 -89.973869 C -89.294853 -88.840154 -90.768631 -88.273198 -92.752631 -88.273198 C -94.736632 -88.273198 -96.23899 -88.840154 -97.259333 -89.973869 C -98.22299 -91.16427 -98.704723 -92.751852 -98.704723 -94.735852 C -98.704723 -96.833225 -98.22299 -98.448354 -97.259333 -99.582068 C -96.23899 -100.71578 -94.736632 -101.28274 -92.752631 -101.28274 z M -16.396569 -89.038526 C -18.097141 -87.678068 -19.344342 -86.119583 -20.137942 -84.362325 C -20.931542 -82.605068 -21.328567 -80.50769 -21.328567 -78.070203 C -21.328567 -74.725745 -20.506454 -72.089474 -18.862568 -70.162159 C -17.218682 -68.291529 -14.979435 -67.356645 -12.145148 -67.356645 C -9.3675474 -67.356645 -7.2135254 -68.291529 -5.6830106 -70.162159 C -4.09581 -72.032788 -3.3022773 -74.640479 -3.3022773 -77.984937 C -3.3022773 -79.855566 -3.8978144 -81.442631 -5.0882148 -82.746403 C -6.2219295 -84.106861 -7.6671265 -85.212194 -9.4243843 -86.06248 C -11.181642 -86.969452 -13.505596 -87.961497 -16.396569 -89.038526 z M -92.752631 -74.498845 C -90.768631 -74.498845 -89.294853 -73.903824 -88.331196 -72.713424 C -87.310853 -71.579709 -86.80054 -69.992127 -86.80054 -67.951441 C -86.80054 -65.910754 -87.310853 -64.323689 -88.331196 -63.189974 C -89.294853 -62.05626 -90.768631 -61.489303 -92.752631 -61.489303 C -94.736632 -61.489303 -96.23899 -62.05626 -97.259333 -63.189974 C -98.22299 -64.380375 -98.704723 -65.96744 -98.704723 -67.951441 C -98.704723 -70.048813 -98.22299 -71.664459 -97.259333 -72.798173 C -96.23899 -73.931888 -94.736632 -74.498845 -92.752631 -74.498845 z " /></g></svg>
