<?xml version="1.0" encoding="UTF-8" standalone="no"?>
<!-- Created with Inkscape (http://www.inkscape.org/) -->

<svg
   width="172.6701mm"
   height="172.6701mm"
   viewBox="0 0 172.6701 172.6701"
   version="1.1"
   id="svg1"
   xml:space="preserve"
   xmlns="http://www.w3.org/2000/svg"
   xmlns:svg="http://www.w3.org/2000/svg"><defs
     id="defs1" /><g
     id="layer1"
     transform="translate(157.25102,198.81012)"><path
       id="path5"
       style="fill:#ffffff;fill-opacity:1;stroke-width:0.805188;stroke-linecap:round;stroke-linejoin:round"
       d="M -2.0863309 -198.17657 L -10.088943 -183.11289 L -10.930235 -165.68398 L -19.198981 -165.68398 L -11.423229 -155.47426 L -12.166336 -140.07934 C -28.353216 -157.12094 -50.823548 -166.77435 -74.327399 -166.78417 C -103.64471 -166.77397 -130.92652 -151.79225 -146.66717 -127.05894 L -157.25102 -127.05894 L -149.61996 -115.86014 L -157.25102 -26.140039 L -8.5138455 -26.140039 L 15.419061 -26.140039 L 8.0799737 -154.80195 L 15.419061 -165.68398 L 7.4593397 -165.68398 L 6.4490654 -183.39297 L -2.0863309 -198.17657 z M -83.43072 -192.21621 C -85.584619 -189.65499 -86.77489 -186.4211 -86.795372 -183.07465 C -86.842092 -175.15518 -80.459903 -168.69733 -72.540428 -168.65072 C -64.621155 -168.60402 -58.163395 -174.98588 -58.116503 -182.90515 C -58.102813 -186.26049 -59.266203 -189.5144 -61.404157 -192.10045 C -60.83125 -190.6836 -60.536835 -189.16959 -60.537027 -187.64129 C -60.575787 -181.07411 -65.930869 -175.78172 -72.498054 -175.82031 C -79.065241 -175.85911 -84.357627 -181.21415 -84.319038 -187.78134 C -84.309338 -189.30285 -84.007827 -190.80837 -83.43072 -192.21621 z M -127.65696 -120.07436 C -123.1221 -119.84761 -119.43714 -118.85557 -116.60286 -117.09831 L -136.83986 -83.767013 L -123.83032 -83.767013 L -122.98024 -97.626632 C -121.1663 -97.626632 -119.86245 -97.995076 -119.06885 -98.731991 C -118.21857 -99.468905 -117.5669 -100.71611 -117.11342 -102.47336 L -112.26669 -102.47336 L -112.35144 -83.341716 C -110.19738 -82.718173 -107.47692 -82.066508 -104.18914 -81.38628 L -104.61392 -77.304875 L -112.77673 -77.304875 L -112.77673 -62.084615 L -123.83032 -62.084615 L -123.83032 -77.304875 L -148.40401 -77.304875 L -149.08408 -80.36567 L -127.65696 -120.07436 z M -0.7939033 -119.90383 L 1.246799 -115.65241 C -10.203719 -110.72075 -17.091391 -103.12528 -19.415506 -92.865166 C -16.127733 -94.452366 -13.00973 -95.245899 -10.062071 -95.245899 C -4.3934979 -95.245899 0.056414423 -93.715477 3.2875013 -90.654448 C 6.575274 -87.593418 8.2189833 -83.455306 8.2189833 -78.240218 C 8.2189833 -75.009132 7.3402262 -72.118221 5.5829684 -69.567363 C 3.8823964 -67.016505 1.4732181 -65.032415 -1.6444974 -63.615271 C -4.7055271 -62.198128 -8.2200384 -61.489303 -12.18804 -61.489303 C -18.933642 -61.489303 -24.120443 -63.360105 -27.74833 -67.101363 C -31.319532 -70.842622 -33.105109 -76.255999 -33.105109 -83.341716 C -33.105109 -92.241376 -30.35555 -99.808775 -24.857034 -106.04421 C -19.301832 -112.33632 -11.280764 -116.95617 -0.7939033 -119.90383 z M -57.423005 -119.73381 C -51.584374 -119.73381 -46.936466 -118.28861 -43.478636 -115.39764 C -40.020807 -112.56335 -38.291873 -108.56711 -38.291873 -103.40871 C -38.291873 -98.873849 -40.020807 -94.026912 -43.478636 -88.86851 C -46.936466 -83.766794 -52.633063 -77.616529 -60.569066 -70.41744 L -37.69656 -70.41744 L -37.69656 -62.084615 L -76.214623 -62.084615 L -76.214623 -67.016097 C -69.922506 -73.081471 -65.018925 -78.268272 -61.504409 -82.576388 C -57.989894 -86.884504 -55.467428 -90.852684 -53.936913 -94.480571 C -52.349712 -98.108458 -51.55618 -101.84955 -51.55618 -105.70418 C -51.55618 -111.82623 -53.596914 -114.88759 -57.678286 -114.88759 C -59.49223 -114.88759 -60.966007 -114.0369 -62.099722 -112.33633 C -63.233437 -110.69244 -63.800393 -108.65171 -63.800393 -106.21422 C -63.800393 -104.51365 -63.204856 -102.89852 -62.014456 -101.36801 C -62.978113 -100.46103 -64.083963 -99.752209 -65.331049 -99.242037 C -66.52145 -98.731866 -67.71149 -98.476709 -68.901891 -98.476709 C -70.942577 -98.476709 -72.643447 -99.10031 -74.003905 -100.3474 C -75.364363 -101.65117 -76.044607 -103.52197 -76.044607 -105.95946 C -76.044607 -108.567 -75.279138 -110.91953 -73.748623 -113.01691 C -72.218109 -115.11428 -70.064087 -116.75799 -67.286485 -117.94839 C -64.452199 -119.13879 -61.164263 -119.73381 -57.423005 -119.73381 z M -89.478929 -101.28274 C -87.494929 -101.28274 -86.021151 -100.68772 -85.057494 -99.497319 C -84.037151 -98.363604 -83.526838 -96.776539 -83.526838 -94.735852 C -83.526838 -92.695166 -84.037151 -91.107584 -85.057494 -89.973869 C -86.021151 -88.840154 -87.494929 -88.273198 -89.478929 -88.273198 C -91.46293 -88.273198 -92.965288 -88.840154 -93.985631 -89.973869 C -94.949288 -91.16427 -95.431021 -92.751852 -95.431021 -94.735852 C -95.431021 -96.833225 -94.949288 -98.448354 -93.985631 -99.582068 C -92.965288 -100.71578 -91.46293 -101.28274 -89.478929 -101.28274 z M -12.442805 -89.293807 C -14.823606 -89.293807 -17.403233 -88.330343 -20.180834 -86.403028 L -20.180834 -85.297669 C -20.180834 -79.118924 -19.500589 -74.583787 -18.140131 -71.692814 C -16.779674 -68.801842 -14.625652 -67.356645 -11.677993 -67.356645 C -9.2405069 -67.356645 -7.3697048 -68.291529 -6.0659329 -70.162159 C -4.762161 -72.032788 -4.10998 -74.697123 -4.10998 -78.154952 C -4.10998 -81.669468 -4.8473854 -84.390447 -6.3212145 -86.317762 C -7.7383579 -88.301762 -9.7785751 -89.293807 -12.442805 -89.293807 z M -89.478929 -74.498845 C -87.494929 -74.498845 -86.021151 -73.903824 -85.057494 -72.713424 C -84.037151 -71.579709 -83.526838 -69.992127 -83.526838 -67.951441 C -83.526838 -65.910754 -84.037151 -64.323689 -85.057494 -63.189974 C -86.021151 -62.05626 -87.494929 -61.489303 -89.478929 -61.489303 C -91.46293 -61.489303 -92.965288 -62.05626 -93.985631 -63.189974 C -94.949288 -64.380375 -95.431021 -65.96744 -95.431021 -67.951441 C -95.431021 -70.048813 -94.949288 -71.664459 -93.985631 -72.798173 C -92.965288 -73.931888 -91.46293 -74.498845 -89.478929 -74.498845 z " /></g></svg>
