<?xml version="1.0" encoding="UTF-8" standalone="no"?>
<!-- Created with Inkscape (http://www.inkscape.org/) -->

<svg
   width="172.6701mm"
   height="172.6701mm"
   viewBox="0 0 172.6701 172.6701"
   version="1.1"
   id="svg1"
   xml:space="preserve"
   xmlns="http://www.w3.org/2000/svg"
   xmlns:svg="http://www.w3.org/2000/svg"><defs
     id="defs1" /><g
     id="layer1"
     transform="translate(157.25102,198.81012)"><path
       id="path5"
       style="fill:#ffffff;fill-opacity:1;stroke-width:0.805188;stroke-linecap:round;stroke-linejoin:round"
       d="M -2.0863309 -198.17657 L -10.088943 -183.11289 L -10.930235 -165.68398 L -19.198981 -165.68398 L -11.423229 -155.47426 L -12.166336 -140.07934 C -28.353216 -157.12094 -50.823548 -166.77435 -74.327399 -166.78417 C -103.64471 -166.77397 -130.92652 -151.79225 -146.66717 -127.05894 L -157.25102 -127.05894 L -149.61996 -115.86014 L -157.25102 -26.140039 L -8.5138455 -26.140039 L 15.419061 -26.140039 L 8.0799737 -154.80195 L 15.419061 -165.68398 L 7.4593397 -165.68398 L 6.4490654 -183.39297 L -2.0863309 -198.17657 z M -83.43072 -192.21621 C -85.584619 -189.65499 -86.77489 -186.4211 -86.795372 -183.07465 C -86.842092 -175.15518 -80.459903 -168.69733 -72.540428 -168.65072 C -64.621155 -168.60402 -58.163395 -174.98588 -58.116503 -182.90515 C -58.102813 -186.26049 -59.266203 -189.5144 -61.404157 -192.10045 C -60.83125 -190.6836 -60.536835 -189.16959 -60.537027 -187.64129 C -60.575787 -181.07411 -65.930869 -175.78172 -72.498054 -175.82031 C -79.065241 -175.85911 -84.357627 -181.21415 -84.319038 -187.78134 C -84.309338 -189.30285 -84.007827 -190.80837 -83.43072 -192.21621 z M -58.82602 -120.07436 C -54.291161 -119.84761 -50.606718 -118.85557 -47.772431 -117.09831 L -68.008922 -83.767013 L -54.999897 -83.767013 L -54.149303 -97.626632 C -52.335359 -97.626632 -51.032031 -97.995076 -50.23843 -98.731991 C -49.388144 -99.468905 -48.735963 -100.71611 -48.282478 -102.47336 L -43.435745 -102.47336 L -43.521011 -83.341716 C -41.366953 -82.718173 -38.645974 -82.066508 -35.358202 -81.38628 L -35.783499 -77.304875 L -43.946308 -77.304875 L -43.946308 -62.084615 L -54.999897 -62.084615 L -54.999897 -77.304875 L -79.573074 -77.304875 L -80.253136 -80.36567 L -58.82602 -120.07436 z M -126.76399 -119.73381 C -123.07942 -119.73381 -119.82006 -119.11073 -116.98578 -117.86364 C -114.15149 -116.67324 -111.94082 -114.97237 -110.35362 -112.76163 C -108.76642 -110.60757 -107.97237 -108.11368 -107.97237 -105.27939 C -107.97237 -102.10499 -108.90778 -99.384015 -110.7784 -97.116586 C -112.64903 -94.849156 -115.42666 -93.120223 -119.11123 -91.929822 C -114.463 -90.909479 -111.20364 -89.237189 -109.33301 -86.913074 C -107.46239 -84.588959 -106.52698 -81.442892 -106.52698 -77.474891 C -106.52698 -74.017061 -107.57567 -71.069506 -109.67305 -68.632019 C -111.71373 -66.194533 -114.37807 -64.380375 -117.66584 -63.189974 C -120.95361 -61.999574 -124.35484 -61.404554 -127.86935 -61.404554 C -132.97107 -61.404554 -137.30769 -62.453243 -140.87889 -64.550615 C -144.39341 -66.647987 -146.15041 -69.510317 -146.15041 -73.138204 C -146.15041 -75.235577 -145.5268 -76.851222 -144.27972 -77.984937 C -143.03263 -79.175337 -141.47415 -79.770358 -139.60352 -79.770358 C -137.6762 -79.770358 -135.72018 -79.005405 -133.73618 -77.474891 C -134.24635 -76.397862 -134.5015 -75.094016 -134.5015 -73.563501 C -134.5015 -71.749558 -133.96313 -70.275781 -132.8861 -69.142066 C -131.75238 -68.008351 -130.08009 -67.441394 -127.86935 -67.441394 C -122.99438 -67.441394 -120.55662 -70.814037 -120.55662 -77.55964 C -120.55662 -81.244213 -121.74718 -84.10706 -124.12798 -86.147746 C -126.45209 -88.188433 -129.76809 -89.208541 -134.07621 -89.208541 L -134.07621 -94.480571 C -125.7434 -95.1608 -121.57723 -98.760535 -121.57723 -105.27939 C -121.57723 -108.56717 -122.08754 -110.97583 -123.10788 -112.50634 C -124.12823 -114.09354 -125.51678 -114.88759 -127.27404 -114.88759 C -129.37141 -114.88759 -130.95848 -114.15071 -132.0355 -112.67688 C -133.05585 -111.20305 -133.56616 -109.41747 -133.56616 -107.3201 C -133.56616 -105.44947 -133.16965 -103.77718 -132.37605 -102.30335 C -133.96325 -100.60278 -136.00347 -99.752084 -138.49764 -99.752084 C -140.76507 -99.752084 -142.52259 -100.43233 -143.76967 -101.79279 C -145.01676 -103.15324 -145.64036 -104.91076 -145.64036 -107.06482 C -145.64036 -109.8991 -144.67689 -112.25164 -142.74958 -114.12227 C -140.76558 -116.04958 -138.32782 -117.46671 -135.43685 -118.37369 C -132.48919 -119.28066 -129.59828 -119.73381 -126.76399 -119.73381 z M -30.936766 -118.88373 L -26.770096 -118.88373 C -24.616038 -118.82705 -19.911486 -118.79847 -12.655712 -118.79847 C -5.1165088 -118.79847 -0.21292776 -118.82705 2.0545016 -118.88373 L 6.1359063 -118.88373 L 7.8360609 -115.22762 C 6.7590319 -113.52705 4.7188147 -109.84261 1.7144707 -104.17404 C -1.2898732 -98.505463 -4.1246567 -92.496548 -6.7888862 -86.147746 C -9.4531158 -79.798944 -10.785025 -74.838719 -10.785025 -71.267517 C -10.785025 -68.433231 -9.7929797 -66.307789 -7.808979 -64.890646 C -9.736294 -62.566531 -12.202116 -61.404554 -15.20646 -61.404554 C -17.984061 -61.404554 -20.138083 -62.169506 -21.668598 -63.700021 C -23.199113 -65.230536 -23.964582 -67.356494 -23.964582 -70.077409 C -23.964582 -73.478553 -23.142469 -77.077772 -21.498583 -80.875717 C -19.854696 -84.730347 -16.907142 -89.945728 -12.655712 -96.521273 L -2.6222155 -111.9963 L -22.008629 -111.9963 C -22.802229 -109.44544 -23.283962 -106.44124 -23.454019 -102.98341 C -24.474362 -102.81335 -25.523051 -102.72813 -26.60008 -102.72813 C -27.733795 -102.72813 -28.839128 -102.81335 -29.916157 -102.98341 L -32.297407 -117.60836 L -30.936766 -118.88373 z M -91.477257 -101.28274 C -89.493256 -101.28274 -88.019479 -100.68772 -87.055821 -99.497319 C -86.035478 -98.363604 -85.525166 -96.776539 -85.525166 -94.735852 C -85.525166 -92.695166 -86.035478 -91.107584 -87.055821 -89.973869 C -88.019479 -88.840154 -89.493256 -88.273198 -91.477257 -88.273198 C -93.461258 -88.273198 -94.963099 -88.840154 -95.983442 -89.973869 C -96.947099 -91.16427 -97.429348 -92.751852 -97.429348 -94.735852 C -97.429348 -96.833225 -96.947099 -98.448354 -95.983442 -99.582068 C -94.963099 -100.71578 -93.461258 -101.28274 -91.477257 -101.28274 z M -91.477257 -74.498845 C -89.493256 -74.498845 -88.019479 -73.903824 -87.055821 -72.713424 C -86.035478 -71.579709 -85.525166 -69.992127 -85.525166 -67.951441 C -85.525166 -65.910754 -86.035478 -64.323689 -87.055821 -63.189974 C -88.019479 -62.05626 -89.493256 -61.489303 -91.477257 -61.489303 C -93.461258 -61.489303 -94.963099 -62.05626 -95.983442 -63.189974 C -96.947099 -64.380375 -97.429348 -65.96744 -97.429348 -67.951441 C -97.429348 -70.048813 -96.947099 -71.664459 -95.983442 -72.798173 C -94.963099 -73.931888 -93.461258 -74.498845 -91.477257 -74.498845 z " /></g></svg>
