<?xml version="1.0" encoding="UTF-8" standalone="no"?>
<!-- Created with Inkscape (http://www.inkscape.org/) -->

<svg
   width="172.6701mm"
   height="172.6701mm"
   viewBox="0 0 172.6701 172.6701"
   version="1.1"
   id="svg1"
   xml:space="preserve"
   xmlns="http://www.w3.org/2000/svg"
   xmlns:svg="http://www.w3.org/2000/svg"><defs
     id="defs1" /><g
     id="layer1"
     transform="translate(157.25102,198.81012)"><path
       id="path5"
       style="fill:#ffffff;fill-opacity:1;stroke-width:0.805188;stroke-linecap:round;stroke-linejoin:round"
       d="M -2.0863309 -198.17657 L -10.088943 -183.11289 L -10.930235 -165.68398 L -19.198981 -165.68398 L -11.423229 -155.47426 L -12.166336 -140.07934 C -28.353216 -157.12094 -50.823548 -166.77435 -74.327399 -166.78417 C -103.64471 -166.77397 -130.92652 -151.79225 -146.66717 -127.05894 L -157.25102 -127.05894 L -149.61996 -115.86014 L -157.25102 -26.140039 L -8.5138455 -26.140039 L 15.419061 -26.140039 L 8.0799737 -154.80195 L 15.419061 -165.68398 L 7.4593397 -165.68398 L 6.4490654 -183.39297 L -2.0863309 -198.17657 z M -83.43072 -192.21621 C -85.584619 -189.65499 -86.77489 -186.4211 -86.795372 -183.07465 C -86.842092 -175.15518 -80.459903 -168.69733 -72.540428 -168.65072 C -64.621155 -168.60402 -58.163395 -174.98588 -58.116503 -182.90515 C -58.102813 -186.26049 -59.266203 -189.5144 -61.404157 -192.10045 C -60.83125 -190.6836 -60.536835 -189.16959 -60.537027 -187.64129 C -60.575787 -181.07411 -65.930869 -175.78172 -72.498054 -175.82031 C -79.065241 -175.85911 -84.357627 -181.21415 -84.319038 -187.78134 C -84.309338 -189.30285 -84.007827 -190.80837 -83.43072 -192.21621 z M -123.2779 -119.73381 C -119.59333 -119.73381 -116.33397 -119.11073 -113.49969 -117.86364 C -110.6654 -116.67324 -108.45473 -114.97237 -106.86753 -112.76163 C -105.28033 -110.60757 -104.48628 -108.11368 -104.48628 -105.27939 C -104.48628 -102.10499 -105.42168 -99.384015 -107.29231 -97.116586 C -109.16294 -94.849156 -111.94056 -93.120223 -115.62514 -91.929822 C -110.97691 -90.909479 -107.71755 -89.237189 -105.84692 -86.913074 C -103.97629 -84.588959 -103.04089 -81.442892 -103.04089 -77.474891 C -103.04089 -74.017061 -104.08958 -71.069506 -106.18695 -68.632019 C -108.22764 -66.194533 -110.89197 -64.380375 -114.17975 -63.189974 C -117.46752 -61.999574 -120.86874 -61.404554 -124.38326 -61.404554 C -129.48497 -61.404554 -133.8216 -62.453243 -137.3928 -64.550615 C -140.90732 -66.647987 -142.66431 -69.510317 -142.66431 -73.138204 C -142.66431 -75.235577 -142.04071 -76.851222 -140.79363 -77.984937 C -139.54654 -79.175337 -137.98754 -79.770358 -136.11691 -79.770358 C -134.18959 -79.770358 -132.23408 -79.005405 -130.25008 -77.474891 C -130.76026 -76.397862 -131.01541 -75.094016 -131.01541 -73.563501 C -131.01541 -71.749558 -130.47704 -70.275781 -129.40001 -69.142066 C -128.26629 -68.008351 -126.594 -67.441394 -124.38326 -67.441394 C -119.50829 -67.441394 -117.07053 -70.814037 -117.07053 -77.55964 C -117.07053 -81.244213 -118.26108 -84.10706 -120.64189 -86.147746 C -122.966 -88.188433 -126.282 -89.208541 -130.59012 -89.208541 L -130.59012 -94.480571 C -122.25731 -95.1608 -118.09114 -98.760535 -118.09114 -105.27939 C -118.09114 -108.56717 -118.60145 -110.97583 -119.62179 -112.50634 C -120.64214 -114.09354 -122.03069 -114.88759 -123.78795 -114.88759 C -125.88532 -114.88759 -127.47238 -114.15071 -128.54941 -112.67688 C -129.56976 -111.20305 -130.08007 -109.41747 -130.08007 -107.3201 C -130.08007 -105.44947 -129.68356 -103.77718 -128.88996 -102.30335 C -130.47716 -100.60278 -132.51738 -99.752084 -135.01155 -99.752084 C -137.27898 -99.752084 -139.03649 -100.43233 -140.28358 -101.79279 C -141.53067 -103.15324 -142.15427 -104.91076 -142.15427 -107.06482 C -142.15427 -109.8991 -141.19029 -112.25164 -139.26297 -114.12227 C -137.27897 -116.04958 -134.84173 -117.46671 -131.95076 -118.37369 C -129.0031 -119.28066 -126.11219 -119.73381 -123.2779 -119.73381 z M -55.93524 -119.73381 C -50.09661 -119.73381 -45.448185 -118.28861 -41.990355 -115.39764 C -38.532525 -112.56335 -36.803592 -108.56711 -36.803592 -103.40871 C -36.803592 -98.873849 -38.532525 -94.026912 -41.990355 -88.86851 C -45.448185 -83.766794 -51.145299 -77.616529 -59.081302 -70.41744 L -36.208279 -70.41744 L -36.208279 -62.084615 L -74.726341 -62.084615 L -74.726341 -67.016097 C -68.434225 -73.081471 -63.531161 -78.268272 -60.016645 -82.576388 C -56.502129 -86.884504 -53.979663 -90.852684 -52.449148 -94.480571 C -50.861948 -98.108458 -50.068415 -101.84955 -50.068415 -105.70418 C -50.068415 -111.82623 -52.108632 -114.88759 -56.190005 -114.88759 C -58.003949 -114.88759 -59.478243 -114.0369 -60.611958 -112.33633 C -61.745672 -110.69244 -62.312112 -108.65171 -62.312112 -106.21422 C -62.312112 -104.51365 -61.717092 -102.89852 -60.526691 -101.36801 C -61.490349 -100.46103 -62.595682 -99.752209 -63.842768 -99.242037 C -65.033168 -98.731866 -66.223726 -98.476709 -67.414126 -98.476709 C -69.454813 -98.476709 -71.155166 -99.10031 -72.515624 -100.3474 C -73.876081 -101.65117 -74.556326 -103.52197 -74.556326 -105.95946 C -74.556326 -108.567 -73.791374 -110.91953 -72.260859 -113.01691 C -70.730344 -115.11428 -68.576322 -116.75799 -65.798721 -117.94839 C -62.964434 -119.13879 -59.676499 -119.73381 -55.93524 -119.73381 z M -10.274978 -119.13901 L -7.4689481 -117.86364 L -7.4689481 -68.716769 C -6.3919191 -68.093226 -4.691049 -67.526269 -2.3669339 -67.016097 C -0.042818762 -66.562611 1.7994029 -66.279392 3.1598605 -66.16602 L 2.904579 -62.084615 L -31.786844 -62.084615 L -31.616828 -66.16602 C -26.571798 -66.732877 -22.717422 -67.583054 -20.053193 -68.716769 L -20.053193 -109.44555 L -31.446813 -109.44555 L -31.446813 -114.37703 C -27.818926 -114.66046 -24.077838 -115.19935 -20.223208 -115.99295 C -16.368578 -116.84324 -13.052579 -117.89193 -10.274978 -119.13901 z M -87.991165 -101.28274 C -86.007164 -101.28274 -84.533387 -100.68772 -83.569729 -99.497319 C -82.549386 -98.363604 -82.039073 -96.776539 -82.039073 -94.735852 C -82.039073 -92.695166 -82.549386 -91.107584 -83.569729 -89.973869 C -84.533387 -88.840154 -86.007164 -88.273198 -87.991165 -88.273198 C -89.975166 -88.273198 -91.477007 -88.840154 -92.49735 -89.973869 C -93.461007 -91.16427 -93.943256 -92.751852 -93.943256 -94.735852 C -93.943256 -96.833225 -93.461007 -98.448354 -92.49735 -99.582068 C -91.477007 -100.71578 -89.975166 -101.28274 -87.991165 -101.28274 z M -87.991165 -74.498845 C -86.007164 -74.498845 -84.533387 -73.903824 -83.569729 -72.713424 C -82.549386 -71.579709 -82.039073 -69.992127 -82.039073 -67.951441 C -82.039073 -65.910754 -82.549386 -64.323689 -83.569729 -63.189974 C -84.533387 -62.05626 -86.007164 -61.489303 -87.991165 -61.489303 C -89.975166 -61.489303 -91.477007 -62.05626 -92.49735 -63.189974 C -93.461007 -64.380375 -93.943256 -65.96744 -93.943256 -67.951441 C -93.943256 -70.048813 -93.461007 -71.664459 -92.49735 -72.798173 C -91.477007 -73.931888 -89.975166 -74.498845 -87.991165 -74.498845 z " /></g></svg>
