<?xml version="1.0" encoding="UTF-8" standalone="no"?>
<!-- Created with Inkscape (http://www.inkscape.org/) -->

<svg
   width="172.6701mm"
   height="172.6701mm"
   viewBox="0 0 172.6701 172.6701"
   version="1.1"
   id="svg1"
   xml:space="preserve"
   xmlns="http://www.w3.org/2000/svg"
   xmlns:svg="http://www.w3.org/2000/svg"><defs
     id="defs1" /><g
     id="layer1"
     transform="translate(157.25102,198.81012)"><path
       id="path5"
       style="fill:#ffffff;fill-opacity:1;stroke-width:0.805188;stroke-linecap:round;stroke-linejoin:round"
       d="M -2.0863309 -198.17657 L -10.088943 -183.11289 L -10.930235 -165.68398 L -19.198981 -165.68398 L -11.423229 -155.47426 L -12.166336 -140.07934 C -28.353216 -157.12094 -50.823548 -166.77435 -74.327399 -166.78417 C -103.64471 -166.77397 -130.92652 -151.79225 -146.66717 -127.05894 L -157.25102 -127.05894 L -149.61996 -115.86014 L -157.25102 -26.140039 L -8.5138455 -26.140039 L 15.419061 -26.140039 L 8.0799737 -154.80195 L 15.419061 -165.68398 L 7.4593397 -165.68398 L 6.4490654 -183.39297 L -2.0863309 -198.17657 z M -83.43072 -192.21621 C -85.584619 -189.65499 -86.77489 -186.4211 -86.795372 -183.07465 C -86.842092 -175.15518 -80.459903 -168.69733 -72.540428 -168.65072 C -64.621155 -168.60402 -58.163395 -174.98588 -58.116503 -182.90515 C -58.102813 -186.26049 -59.266203 -189.5144 -61.404157 -192.10045 C -60.83125 -190.6836 -60.536835 -189.16959 -60.537027 -187.64129 C -60.575787 -181.07411 -65.930869 -175.78172 -72.498054 -175.82031 C -79.065241 -175.85911 -84.357627 -181.21415 -84.319038 -187.78134 C -84.309338 -189.30285 -84.007827 -190.80837 -83.43072 -192.21621 z M -63.587486 -120.07436 C -59.052628 -119.84761 -55.368184 -118.85557 -52.533898 -117.09831 L -72.770905 -83.767013 L -59.761363 -83.767013 L -58.911286 -97.626632 C -57.097343 -97.626632 -55.793497 -97.995076 -54.999897 -98.731991 C -54.149611 -99.468905 -53.49743 -100.71611 -53.043944 -102.47336 L -48.197728 -102.47336 L -48.282478 -83.341716 C -46.12842 -82.718173 -43.407441 -82.066508 -40.119668 -81.38628 L -40.544965 -77.304875 L -48.707775 -77.304875 L -48.707775 -62.084615 L -59.761363 -62.084615 L -59.761363 -77.304875 L -84.334541 -77.304875 L -85.015119 -80.36567 L -63.587486 -120.07436 z M -14.696414 -119.81908 C -8.7444117 -119.81908 -4.0107626 -118.54381 -0.49624705 -115.99295 C 3.0182685 -113.44209 4.7752658 -110.01229 4.7752658 -105.70418 C 4.7752658 -103.38006 3.9250892 -101.05611 2.2245171 -98.731991 C 0.52394506 -96.407876 -1.7153013 -94.50901 -4.4929023 -93.035181 C -0.97838675 -91.334609 1.7711723 -89.350519 3.755173 -87.08309 C 5.7958595 -84.81566 6.8159681 -81.896169 6.8159681 -78.324968 C 6.8159681 -73.166566 4.9451661 -69.057034 1.2039076 -65.996005 C -2.5373509 -62.991661 -7.5822836 -61.489303 -13.931086 -61.489303 C -20.903431 -61.489303 -26.288745 -62.878373 -30.086689 -65.655974 C -33.827947 -68.433575 -35.698233 -72.401238 -35.698233 -77.55964 C -35.698233 -80.223869 -34.848056 -82.86014 -33.147484 -85.467684 C -31.446912 -88.131914 -29.066314 -90.483931 -26.005284 -92.524618 C -28.556142 -93.941761 -30.539716 -95.642631 -31.956859 -97.626632 C -33.374002 -99.610633 -34.082827 -102.07646 -34.082827 -105.02411 C -34.082827 -109.55897 -32.325313 -113.15871 -28.810798 -115.82294 C -25.296282 -118.48717 -20.59173 -119.81908 -14.696414 -119.81908 z M -124.38326 -119.13901 L -121.57723 -117.86364 L -121.57723 -68.716769 C -120.5002 -68.093226 -118.79985 -67.526269 -116.47573 -67.016097 C -114.15162 -66.562611 -112.30888 -66.279392 -110.94842 -66.16602 L -111.2037 -62.084615 L -145.89564 -62.084615 L -145.72563 -66.16602 C -140.68059 -66.732877 -136.8257 -67.583054 -134.16147 -68.716769 L -134.16147 -109.44555 L -145.55509 -109.44555 L -145.55509 -114.37703 C -141.92721 -114.66046 -138.18612 -115.19935 -134.33149 -115.99295 C -130.47686 -116.84324 -127.16086 -117.89193 -124.38326 -119.13901 z M -14.696414 -113.78224 C -16.963843 -113.78224 -18.749421 -113.04535 -20.053193 -111.57152 C -21.356965 -110.15437 -22.008629 -108.22693 -22.008629 -105.78944 C -22.008629 -103.63538 -21.187033 -101.84981 -19.543146 -100.43266 C -17.842574 -99.072205 -15.376752 -97.711715 -12.145665 -96.351258 C -10.728522 -97.314915 -9.5946084 -98.646824 -8.7443224 -100.3474 C -7.8940364 -102.04797 -7.4689481 -103.86213 -7.4689481 -105.78944 C -7.4689481 -108.22693 -8.1491927 -110.15437 -9.5096504 -111.57152 C -10.813422 -113.04535 -12.542356 -113.78224 -14.696414 -113.78224 z M -96.238723 -101.28274 C -94.254723 -101.28274 -92.780945 -100.68772 -91.817288 -99.497319 C -90.796945 -98.363604 -90.286632 -96.776539 -90.286632 -94.735852 C -90.286632 -92.695166 -90.796945 -91.107584 -91.817288 -89.973869 C -92.780945 -88.840154 -94.254723 -88.273198 -96.238723 -88.273198 C -98.222724 -88.273198 -99.725082 -88.840154 -100.74543 -89.973869 C -101.70908 -91.16427 -102.19081 -92.751852 -102.19081 -94.735852 C -102.19081 -96.833225 -101.70908 -98.448354 -100.74543 -99.582068 C -99.725082 -100.71578 -98.222724 -101.28274 -96.238723 -101.28274 z M -18.182506 -89.038526 C -19.883078 -87.678068 -21.130279 -86.119583 -21.92388 -84.362325 C -22.71748 -82.605068 -23.113988 -80.50769 -23.113988 -78.070203 C -23.113988 -74.725745 -22.292392 -72.089474 -20.648505 -70.162159 C -19.004619 -68.291529 -16.765373 -67.356645 -13.931086 -67.356645 C -11.153485 -67.356645 -8.9994629 -68.291529 -7.4689481 -70.162159 C -5.8817475 -72.032788 -5.0882148 -74.640479 -5.0882148 -77.984937 C -5.0882148 -79.855566 -5.6832351 -81.442631 -6.8736356 -82.746403 C -8.0073503 -84.106861 -9.453064 -85.212194 -11.210322 -86.06248 C -12.96758 -86.969452 -15.291534 -87.961497 -18.182506 -89.038526 z M -96.238723 -74.498845 C -94.254723 -74.498845 -92.780945 -73.903824 -91.817288 -72.713424 C -90.796945 -71.579709 -90.286632 -69.992127 -90.286632 -67.951441 C -90.286632 -65.910754 -90.796945 -64.323689 -91.817288 -63.189974 C -92.780945 -62.05626 -94.254723 -61.489303 -96.238723 -61.489303 C -98.222724 -61.489303 -99.725082 -62.05626 -100.74543 -63.189974 C -101.70908 -64.380375 -102.19081 -65.96744 -102.19081 -67.951441 C -102.19081 -70.048813 -101.70908 -71.664459 -100.74543 -72.798173 C -99.725082 -73.931888 -98.222724 -74.498845 -96.238723 -74.498845 z " /></g></svg>
