<?xml version="1.0" encoding="UTF-8" standalone="no"?>
<!-- Created with Inkscape (http://www.inkscape.org/) -->

<svg
   width="172.6701mm"
   height="172.6701mm"
   viewBox="0 0 172.6701 172.6701"
   version="1.1"
   id="svg1"
   xml:space="preserve"
   xmlns="http://www.w3.org/2000/svg"
   xmlns:svg="http://www.w3.org/2000/svg"><defs
     id="defs1" /><g
     id="layer1"
     transform="translate(157.25102,198.81012)"><path
       id="path5"
       style="fill:#ffffff;fill-opacity:1;stroke-width:0.805188;stroke-linecap:round;stroke-linejoin:round"
       d="M -2.0863309 -198.17657 L -10.088943 -183.11289 L -10.930235 -165.68398 L -19.198981 -165.68398 L -11.423229 -155.47426 L -12.166336 -140.07934 C -28.353216 -157.12094 -50.823548 -166.77435 -74.327399 -166.78417 C -103.64471 -166.77397 -130.92652 -151.79225 -146.66717 -127.05894 L -157.25102 -127.05894 L -149.61996 -115.86014 L -157.25102 -26.140039 L -8.5138455 -26.140039 L 15.419061 -26.140039 L 8.0799737 -154.80195 L 15.419061 -165.68398 L 7.4593397 -165.68398 L 6.4490654 -183.39297 L -2.0863309 -198.17657 z M -83.43072 -192.21621 C -85.584619 -189.65499 -86.77489 -186.4211 -86.795372 -183.07465 C -86.842092 -175.15518 -80.459903 -168.69733 -72.540428 -168.65072 C -64.621155 -168.60402 -58.163395 -174.98588 -58.116503 -182.90515 C -58.102813 -186.26049 -59.266203 -189.5144 -61.404157 -192.10045 C -60.83125 -190.6836 -60.536835 -189.16959 -60.537027 -187.64129 C -60.575787 -181.07411 -65.930869 -175.78172 -72.498054 -175.82031 C -79.065241 -175.85911 -84.357627 -181.21415 -84.319038 -187.78134 C -84.309338 -189.30285 -84.007827 -190.80837 -83.43072 -192.21621 z M -46.74252 -144.06928 C -39.933466 -144.06928 -33.910038 -142.91672 -28.672305 -140.61212 C -23.434572 -138.41227 -19.349336 -135.26971 -16.416206 -131.18427 C -13.483075 -127.2036 -12.016474 -122.59443 -12.016474 -117.35669 C -12.016474 -111.49043 -13.744783 -106.46201 -17.201687 -102.27183 C -20.658591 -98.08164 -25.791694 -94.88673 -32.600747 -92.686882 C -24.010865 -90.801298 -17.987437 -87.711071 -14.530533 -83.41613 C -11.073628 -79.121188 -9.3453193 -73.307127 -9.3453193 -65.974301 C -9.3453193 -59.584266 -11.282995 -54.137113 -15.158918 -49.632662 C -18.930086 -45.128212 -23.853822 -41.776277 -29.929593 -39.576429 C -36.005363 -37.376581 -42.2905 -36.276372 -48.785289 -36.276372 C -58.213209 -36.276372 -66.226655 -38.214564 -72.826199 -42.090487 C -79.320989 -45.96641 -82.568757 -51.256537 -82.568757 -57.960836 C -82.568757 -61.836759 -81.416206 -64.822302 -79.111603 -66.917395 C -76.807001 -69.117243 -73.926141 -70.216936 -70.469237 -70.216936 C -66.907578 -70.216936 -63.293935 -68.802677 -59.627521 -65.974301 C -60.570313 -63.983962 -61.041389 -61.574694 -61.041389 -58.746318 C -61.041389 -55.394169 -60.04638 -52.670851 -58.056041 -50.575757 C -55.960948 -48.480664 -52.870721 -47.432797 -48.785289 -47.432797 C -39.776388 -47.432797 -35.271902 -53.665591 -35.271902 -66.131397 C -35.271902 -72.94045 -37.471803 -78.230578 -41.871499 -82.001746 C -46.166441 -85.772914 -52.294552 -87.658765 -60.255907 -87.658765 L -60.255907 -97.400806 C -44.856971 -98.657862 -37.157575 -105.30991 -37.157575 -117.35669 C -37.157575 -123.43246 -38.100242 -127.88461 -39.985826 -130.71298 C -41.87141 -133.64612 -44.437703 -135.11272 -47.685098 -135.11272 C -51.561021 -135.11272 -54.494222 -133.7508 -56.484561 -131.02718 C -58.370145 -128.30356 -59.313329 -125.00396 -59.313329 -121.12804 C -59.313329 -117.67114 -58.580028 -114.58039 -57.113463 -111.85677 C -60.046594 -108.71413 -63.817779 -107.14285 -68.426984 -107.14285 C -72.617171 -107.14285 -75.864423 -108.40008 -78.169025 -110.91419 C -80.473628 -113.42831 -81.625662 -116.67556 -81.625662 -120.65623 C -81.625662 -125.89397 -79.845011 -130.24143 -76.283352 -133.69833 C -72.616939 -137.25999 -68.112453 -139.87863 -62.769965 -141.5547 C -57.322723 -143.23077 -51.980253 -144.06928 -46.74252 -144.06928 z M -127.35155 -86.872766 L -91.054027 -86.872766 L -91.054027 -71.945512 L -127.35155 -71.945512 L -127.35155 -86.872766 z " /></g></svg>
