<?xml version="1.0" encoding="UTF-8" standalone="no"?>
<!-- Created with Inkscape (http://www.inkscape.org/) -->

<svg
   width="172.6701mm"
   height="172.6701mm"
   viewBox="0 0 172.6701 172.6701"
   version="1.1"
   id="svg1"
   xml:space="preserve"
   xmlns="http://www.w3.org/2000/svg"
   xmlns:svg="http://www.w3.org/2000/svg"><defs
     id="defs1" /><g
     id="layer1"
     transform="translate(157.25102,198.81012)"><path
       id="path5"
       style="fill:#ffffff;fill-opacity:1;stroke-width:0.805188;stroke-linecap:round;stroke-linejoin:round"
       d="M -2.0863309 -198.17657 L -10.088943 -183.11289 L -10.930235 -165.68398 L -19.198981 -165.68398 L -11.423229 -155.47426 L -12.166336 -140.07934 C -28.353216 -157.12094 -50.823548 -166.77435 -74.327399 -166.78417 C -103.64471 -166.77397 -130.92652 -151.79225 -146.66717 -127.05894 L -157.25102 -127.05894 L -149.61996 -115.86014 L -157.25102 -26.140039 L -8.5138455 -26.140039 L 15.419061 -26.140039 L 8.0799737 -154.80195 L 15.419061 -165.68398 L 7.4593397 -165.68398 L 6.4490654 -183.39297 L -2.0863309 -198.17657 z M -83.43072 -192.21621 C -85.584619 -189.65499 -86.77489 -186.4211 -86.795372 -183.07465 C -86.842092 -175.15518 -80.459903 -168.69733 -72.540428 -168.65072 C -64.621155 -168.60402 -58.163395 -174.98588 -58.116503 -182.90515 C -58.102813 -186.26049 -59.266203 -189.5144 -61.404157 -192.10045 C -60.83125 -190.6836 -60.536835 -189.16959 -60.537027 -187.64129 C -60.575787 -181.07411 -65.930869 -175.78172 -72.498054 -175.82031 C -79.065241 -175.85911 -84.357627 -181.21415 -84.319038 -187.78134 C -84.309338 -189.30285 -84.007827 -190.80837 -83.43072 -192.21621 z M -124.68092 -119.81908 C -118.72891 -119.81908 -113.99526 -118.54381 -110.48075 -115.99295 C -106.96623 -113.44209 -105.20924 -110.01229 -105.20924 -105.70418 C -105.20924 -103.38006 -106.05941 -101.05611 -107.75998 -98.731991 C -109.46056 -96.407876 -111.6998 -94.50901 -114.4774 -93.035181 C -110.96289 -91.334609 -108.21333 -89.350519 -106.22933 -87.08309 C -104.18864 -84.81566 -103.16853 -81.896169 -103.16853 -78.324968 C -103.16853 -73.166566 -105.03934 -69.057034 -108.78059 -65.996005 C -112.52185 -62.991661 -117.56678 -61.489303 -123.91559 -61.489303 C -130.88793 -61.489303 -136.27325 -62.878373 -140.07119 -65.655974 C -143.81245 -68.433575 -145.68273 -72.401238 -145.68273 -77.55964 C -145.68273 -80.223869 -144.83256 -82.86014 -143.13199 -85.467684 C -141.43141 -88.131914 -139.05082 -90.483931 -135.98979 -92.524618 C -138.54064 -93.941761 -140.52422 -95.642631 -141.94136 -97.626632 C -143.3585 -99.610633 -144.06733 -102.07646 -144.06733 -105.02411 C -144.06733 -109.55897 -142.30981 -113.15871 -138.7953 -115.82294 C -135.28078 -118.48717 -130.57623 -119.81908 -124.68092 -119.81908 z M -56.402912 -119.73381 C -52.718339 -119.73381 -49.458984 -119.11073 -46.624698 -117.86364 C -43.790411 -116.67324 -41.579228 -114.97237 -39.992027 -112.76163 C -38.404827 -110.60757 -37.611294 -108.11368 -37.611294 -105.27939 C -37.611294 -102.10499 -38.546695 -99.384015 -40.417325 -97.116586 C -42.287954 -94.849156 -45.065576 -93.120223 -48.750149 -91.929822 C -44.101919 -90.909479 -40.842564 -89.237189 -38.971935 -86.913074 C -37.101305 -84.588959 -36.165904 -81.442892 -36.165904 -77.474891 C -36.165904 -74.017061 -37.214593 -71.069506 -39.311966 -68.632019 C -41.352652 -66.194533 -44.016987 -64.380375 -47.304759 -63.189974 C -50.592532 -61.999574 -53.993755 -61.404554 -57.508271 -61.404554 C -62.609987 -61.404554 -66.946095 -62.453243 -70.517296 -64.550615 C -74.031812 -66.647987 -75.789326 -69.510317 -75.789326 -73.138204 C -75.789326 -75.235577 -75.165725 -76.851222 -73.918639 -77.984937 C -72.671553 -79.175337 -71.112551 -79.770358 -69.241922 -79.770358 C -67.314607 -79.770358 -65.359097 -79.005405 -63.375096 -77.474891 C -63.885268 -76.397862 -64.140424 -75.094016 -64.140424 -73.563501 C -64.140424 -71.749558 -63.602048 -70.275781 -62.525019 -69.142066 C -61.391304 -68.008351 -59.719015 -67.441394 -57.508271 -67.441394 C -52.633298 -67.441394 -50.195539 -70.814037 -50.195539 -77.55964 C -50.195539 -81.244213 -51.386096 -84.10706 -53.766897 -86.147746 C -56.091012 -88.188433 -59.407011 -89.208541 -63.715127 -89.208541 L -63.715127 -94.480571 C -55.382324 -95.1608 -51.216149 -98.760535 -51.216149 -105.27939 C -51.216149 -108.56717 -51.725945 -110.97583 -52.746288 -112.50634 C -53.766631 -114.09354 -55.155701 -114.88759 -56.912958 -114.88759 C -59.010331 -114.88759 -60.597396 -114.15071 -61.674425 -112.67688 C -62.694768 -111.20305 -63.205081 -109.41747 -63.205081 -107.3201 C -63.205081 -105.44947 -62.808056 -103.77718 -62.014456 -102.30335 C -63.601656 -100.60278 -65.64239 -99.752084 -68.136563 -99.752084 C -70.403992 -99.752084 -72.161506 -100.43233 -73.408592 -101.79279 C -74.655679 -103.15324 -75.279279 -104.91076 -75.279279 -107.06482 C -75.279279 -109.8991 -74.315298 -112.25164 -72.387983 -114.12227 C -70.403982 -116.04958 -67.96674 -117.46671 -65.075768 -118.37369 C -62.128109 -119.28066 -59.237199 -119.73381 -56.402912 -119.73381 z M -13.208133 -119.73381 C -9.5235599 -119.73381 -6.2642049 -119.11073 -3.4299181 -117.86364 C -0.59563136 -116.67324 1.6150346 -114.97237 3.2022352 -112.76163 C 4.7894358 -110.60757 5.5829684 -108.11368 5.5829684 -105.27939 C 5.5829684 -102.10499 4.6475674 -99.384015 2.7769382 -97.116586 C 0.90630891 -94.849156 -1.8713138 -93.120223 -5.5558865 -91.929822 C -0.90765626 -90.909479 2.3516987 -89.237189 4.222328 -86.913074 C 6.0929572 -84.588959 7.0283583 -81.442892 7.0283583 -77.474891 C 7.0283583 -74.017061 5.9796693 -71.069506 3.8822971 -68.632019 C 1.8416106 -66.194533 -0.82220733 -64.380375 -4.10998 -63.189974 C -7.3977526 -61.999574 -10.798976 -61.404554 -14.313492 -61.404554 C -19.415208 -61.404554 -23.751832 -62.453243 -27.323033 -64.550615 C -30.837549 -66.647987 -32.594546 -69.510317 -32.594546 -73.138204 C -32.594546 -75.235577 -31.971462 -76.851222 -30.724376 -77.984937 C -29.47729 -79.175337 -27.918288 -79.770358 -26.047659 -79.770358 C -24.120344 -79.770358 -22.164834 -79.005405 -20.180834 -77.474891 C -20.691005 -76.397862 -20.945645 -75.094016 -20.945645 -73.563501 C -20.945645 -71.749558 -20.407269 -70.275781 -19.33024 -69.142066 C -18.196525 -68.008351 -16.524235 -67.441394 -14.313492 -67.441394 C -9.4385183 -67.441394 -7.0012763 -70.814037 -7.0012763 -77.55964 C -7.0012763 -81.244213 -8.1918337 -84.10706 -10.572635 -86.147746 C -12.89675 -88.188433 -16.212749 -89.208541 -20.520865 -89.208541 L -20.520865 -94.480571 C -12.188062 -95.1608 -8.0213691 -98.760535 -8.0213691 -105.27939 C -8.0213691 -108.56717 -8.5316818 -110.97583 -9.552025 -112.50634 C -10.572368 -114.09354 -11.961438 -114.88759 -13.718696 -114.88759 C -15.816068 -114.88759 -17.403133 -114.15071 -18.480162 -112.67688 C -19.500505 -111.20305 -20.010818 -109.41747 -20.010818 -107.3201 C -20.010818 -105.44947 -19.613793 -103.77718 -18.820193 -102.30335 C -20.407394 -100.60278 -22.448128 -99.752084 -24.9423 -99.752084 C -27.20973 -99.752084 -28.966727 -100.43233 -30.213813 -101.79279 C -31.460899 -103.15324 -32.0845 -104.91076 -32.0845 -107.06482 C -32.0845 -109.8991 -31.121035 -112.25164 -29.19372 -114.12227 C -27.209719 -116.04958 -24.771961 -117.46671 -21.880988 -118.37369 C -18.93333 -119.28066 -16.042419 -119.73381 -13.208133 -119.73381 z M -124.68092 -113.78224 C -126.94834 -113.78224 -128.73392 -113.04535 -130.03769 -111.57152 C -131.34147 -110.15437 -131.99313 -108.22693 -131.99313 -105.78944 C -131.99313 -103.63538 -131.17153 -101.84981 -129.52765 -100.43266 C -127.82708 -99.072205 -125.36074 -97.711715 -122.12965 -96.351258 C -120.71251 -97.314915 -119.57911 -98.646824 -118.72882 -100.3474 C -117.87854 -102.04797 -117.45345 -103.86213 -117.45345 -105.78944 C -117.45345 -108.22693 -118.13369 -110.15437 -119.49415 -111.57152 C -120.79792 -113.04535 -122.52686 -113.78224 -124.68092 -113.78224 z M -88.118289 -101.28274 C -86.134288 -101.28274 -84.660511 -100.68772 -83.696853 -99.497319 C -82.67651 -98.363604 -82.166714 -96.776539 -82.166714 -94.735852 C -82.166714 -92.695166 -82.67651 -91.107584 -83.696853 -89.973869 C -84.660511 -88.840154 -86.134288 -88.273198 -88.118289 -88.273198 C -90.10229 -88.273198 -91.604647 -88.840154 -92.624991 -89.973869 C -93.588648 -91.16427 -94.07038 -92.751852 -94.07038 -94.735852 C -94.07038 -96.833225 -93.588648 -98.448354 -92.624991 -99.582068 C -91.604647 -100.71578 -90.10229 -101.28274 -88.118289 -101.28274 z M -128.16701 -89.038526 C -129.86758 -87.678068 -131.11478 -86.119583 -131.90838 -84.362325 C -132.70198 -82.605068 -133.09849 -80.50769 -133.09849 -78.070203 C -133.09849 -74.725745 -132.27689 -72.089474 -130.63301 -70.162159 C -128.98912 -68.291529 -126.74987 -67.356645 -123.91559 -67.356645 C -121.13799 -67.356645 -118.98396 -68.291529 -117.45345 -70.162159 C -115.86625 -72.032788 -115.07272 -74.640479 -115.07272 -77.984937 C -115.07272 -79.855566 -115.66774 -81.442631 -116.85814 -82.746403 C -117.99185 -84.106861 -119.43757 -85.212194 -121.19482 -86.06248 C -122.95208 -86.969452 -125.27603 -87.961497 -128.16701 -89.038526 z M -88.118289 -74.498845 C -86.134288 -74.498845 -84.660511 -73.903824 -83.696853 -72.713424 C -82.67651 -71.579709 -82.166714 -69.992127 -82.166714 -67.951441 C -82.166714 -65.910754 -82.67651 -64.323689 -83.696853 -63.189974 C -84.660511 -62.05626 -86.134288 -61.489303 -88.118289 -61.489303 C -90.10229 -61.489303 -91.604647 -62.05626 -92.624991 -63.189974 C -93.588648 -64.380375 -94.07038 -65.96744 -94.07038 -67.951441 C -94.07038 -70.048813 -93.588648 -71.664459 -92.624991 -72.798173 C -91.604647 -73.931888 -90.10229 -74.498845 -88.118289 -74.498845 z " /></g></svg>
