<?xml version="1.0" encoding="UTF-8" standalone="no"?>
<!-- Created with Inkscape (http://www.inkscape.org/) -->

<svg
   width="172.6701mm"
   height="172.6701mm"
   viewBox="0 0 172.6701 172.6701"
   version="1.1"
   id="svg1"
   xml:space="preserve"
   xmlns="http://www.w3.org/2000/svg"
   xmlns:svg="http://www.w3.org/2000/svg"><defs
     id="defs1" /><g
     id="layer1"
     transform="translate(157.25102,198.81012)"><path
       id="path5"
       style="fill:#ffffff;fill-opacity:1;stroke-width:0.805188;stroke-linecap:round;stroke-linejoin:round"
       d="M -2.0863309 -198.17657 L -10.088943 -183.11289 L -10.930235 -165.68398 L -19.198981 -165.68398 L -11.423229 -155.47426 L -12.166336 -140.07934 C -28.353216 -157.12094 -50.823548 -166.77435 -74.327399 -166.78417 C -103.64471 -166.77397 -130.92652 -151.79225 -146.66717 -127.05894 L -157.25102 -127.05894 L -149.61996 -115.86014 L -157.25102 -26.140039 L -8.5138455 -26.140039 L 15.419061 -26.140039 L 8.0799737 -154.80195 L 15.419061 -165.68398 L 7.4593397 -165.68398 L 6.4490654 -183.39297 L -2.0863309 -198.17657 z M -83.43072 -192.21621 C -85.584619 -189.65499 -86.77489 -186.4211 -86.795372 -183.07465 C -86.842092 -175.15518 -80.459903 -168.69733 -72.540428 -168.65072 C -64.621155 -168.60402 -58.163395 -174.98588 -58.116503 -182.90515 C -58.102813 -186.26049 -59.266203 -189.5144 -61.404157 -192.10045 C -60.83125 -190.6836 -60.536835 -189.16959 -60.537027 -187.64129 C -60.575787 -181.07411 -65.930869 -175.78172 -72.498054 -175.82031 C -79.065241 -175.85911 -84.357627 -181.21415 -84.319038 -187.78134 C -84.309338 -189.30285 -84.007827 -190.80837 -83.43072 -192.21621 z M -69.068806 -149.76247 C -56.158089 -149.76247 -46.281699 -144.90706 -39.440123 -135.19643 C -32.488199 -125.59616 -29.012336 -111.63717 -29.012336 -93.319401 C -29.012336 -75.001633 -32.488199 -60.932097 -39.440123 -51.111125 C -46.281699 -41.400501 -56.158089 -36.545089 -69.068806 -36.545089 C -81.979522 -36.545089 -91.910412 -41.400501 -98.862336 -51.111125 C -105.81426 -60.932097 -109.29064 -75.001633 -109.29064 -93.319401 C -109.29064 -111.52682 -105.81426 -125.48581 -98.862336 -135.19643 C -91.910412 -144.90706 -81.979522 -149.76247 -69.068806 -149.76247 z M -69.068806 -141.32061 C -74.696554 -141.32061 -78.77915 -137.62416 -81.317154 -130.23084 C -83.74481 -122.83753 -84.958792 -110.53369 -84.958792 -93.319401 C -84.958792 -76.215461 -83.74481 -63.96664 -81.317154 -56.573324 C -78.77915 -49.290356 -74.696554 -45.648926 -69.068806 -45.648926 C -63.441058 -45.648926 -59.412962 -49.290356 -56.985305 -56.573324 C -54.447301 -63.96664 -53.178303 -76.215461 -53.178303 -93.319401 C -53.178303 -110.42334 -54.447301 -122.67216 -56.985305 -130.06548 C -59.412962 -137.56914 -63.441058 -141.32061 -69.068806 -141.32061 z " /></g></svg>
