<?xml version="1.0" encoding="UTF-8" standalone="no"?>
<!-- Created with Inkscape (http://www.inkscape.org/) -->

<svg
   width="172.6701mm"
   height="172.6701mm"
   viewBox="0 0 172.6701 172.6701"
   version="1.1"
   id="svg1"
   xml:space="preserve"
   xmlns="http://www.w3.org/2000/svg"
   xmlns:svg="http://www.w3.org/2000/svg"><defs
     id="defs1" /><g
     id="layer1"
     transform="translate(157.25102,198.81012)"><path
       id="path5"
       style="fill:#ffffff;fill-opacity:1;stroke-width:0.805188;stroke-linecap:round;stroke-linejoin:round"
       d="M -2.0863309 -198.17657 L -10.088943 -183.11289 L -10.930235 -165.68398 L -19.198981 -165.68398 L -11.423229 -155.47426 L -12.166336 -140.07934 C -28.353216 -157.12094 -50.823548 -166.77435 -74.327399 -166.78417 C -103.64471 -166.77397 -130.92652 -151.79225 -146.66717 -127.05894 L -157.25102 -127.05894 L -149.61996 -115.86014 L -157.25102 -26.140039 L -8.5138455 -26.140039 L 15.419061 -26.140039 L 8.0799737 -154.80195 L 15.419061 -165.68398 L 7.4593397 -165.68398 L 6.4490654 -183.39297 L -2.0863309 -198.17657 z M -83.43072 -192.21621 C -85.584619 -189.65499 -86.77489 -186.4211 -86.795372 -183.07465 C -86.842092 -175.15518 -80.459903 -168.69733 -72.540428 -168.65072 C -64.621155 -168.60402 -58.163395 -174.98588 -58.116503 -182.90515 C -58.102813 -186.26049 -59.266203 -189.5144 -61.404157 -192.10045 C -60.83125 -190.6836 -60.536835 -189.16959 -60.537027 -187.64129 C -60.575787 -181.07411 -65.930869 -175.78172 -72.498054 -175.82031 C -79.065241 -175.85911 -84.357627 -181.21415 -84.319038 -187.78134 C -84.309338 -189.30285 -84.007827 -190.80837 -83.43072 -192.21621 z M -138.20774 -131.50932 L -130.96064 -131.50932 C -127.21384 -131.41072 -119.02996 -131.36101 -106.40916 -131.36101 C -93.295363 -131.36101 -84.76661 -131.41072 -80.82261 -131.50932 L -73.723302 -131.50932 L -70.765343 -125.1495 C -72.638743 -122.1915 -76.188506 -115.78225 -81.414305 -105.92225 C -86.640105 -96.06225 -91.5699 -85.610774 -96.2041 -74.567574 C -100.8383 -63.524375 -103.15561 -54.896716 -103.15561 -48.684917 C -103.15561 -43.754917 -101.43019 -40.05757 -97.979186 -37.59257 C -101.33159 -33.549971 -105.6203 -31.528858 -110.8461 -31.528858 C -115.6775 -31.528858 -119.42456 -32.859696 -122.08676 -35.521896 C -124.74896 -38.184096 -126.0798 -41.881959 -126.0798 -46.614759 C -126.0798 -52.530758 -124.65005 -58.791392 -121.79065 -65.397592 C -118.93125 -72.102391 -113.80416 -81.173835 -106.40916 -92.611434 L -88.956997 -119.52917 L -122.67845 -119.52917 C -124.05885 -115.09217 -124.89671 -109.86669 -125.19251 -103.85209 C -126.96731 -103.55629 -128.79165 -103.40819 -130.66505 -103.40819 C -132.63705 -103.40819 -134.55977 -103.55629 -136.43317 -103.85209 L -140.574 -129.29085 L -138.20774 -131.50932 z M -65.145531 -131.50932 L -57.898428 -131.50932 C -54.151628 -131.41072 -45.967755 -131.36101 -33.346955 -131.36101 C -20.233156 -131.36101 -11.703886 -131.41072 -7.7598864 -131.50932 L -0.66109487 -131.50932 L 2.2973809 -125.1495 C 0.42398096 -122.1915 -3.1257817 -115.78225 -8.3515815 -105.92225 C -13.577381 -96.06225 -18.507693 -85.610774 -23.141893 -74.567574 C -27.776093 -63.524375 -30.09289 -54.896716 -30.09289 -48.684917 C -30.09289 -43.754917 -28.367462 -40.05757 -24.916462 -37.59257 C -28.268862 -33.549971 -32.558094 -31.528858 -37.783894 -31.528858 C -42.615293 -31.528858 -46.361834 -32.859696 -49.024034 -35.521896 C -51.686234 -38.184096 -53.017589 -41.881959 -53.017589 -46.614759 C -53.017589 -52.530758 -51.587845 -58.791392 -48.728445 -65.397592 C -45.869045 -72.102391 -40.741955 -81.173835 -33.346955 -92.611434 L -15.89479 -119.52917 L -49.615729 -119.52917 C -50.996129 -115.09217 -51.834505 -109.86669 -52.130305 -103.85209 C -53.905105 -103.55629 -55.728922 -103.40819 -57.602322 -103.40819 C -59.574322 -103.40819 -61.497046 -103.55629 -63.370445 -103.85209 L -67.511795 -129.29085 L -65.145531 -131.50932 z " /></g></svg>
