<?xml version="1.0" encoding="UTF-8" standalone="no"?>
<!-- Created with Inkscape (http://www.inkscape.org/) -->

<svg
   width="172.6701mm"
   height="172.6701mm"
   viewBox="0 0 172.6701 172.6701"
   version="1.1"
   id="svg1"
   xml:space="preserve"
   xmlns="http://www.w3.org/2000/svg"
   xmlns:svg="http://www.w3.org/2000/svg"><defs
     id="defs1" /><g
     id="layer1"
     transform="translate(157.25102,198.81012)"><path
       id="path5"
       style="fill:#ffffff;fill-opacity:1;stroke-width:0.805188;stroke-linecap:round;stroke-linejoin:round"
       d="M -2.0863309 -198.17657 L -10.088943 -183.11289 L -10.930235 -165.68398 L -19.198981 -165.68398 L -11.423229 -155.47426 L -12.166336 -140.07934 C -28.353216 -157.12094 -50.823548 -166.77435 -74.327399 -166.78417 C -103.64471 -166.77397 -130.92652 -151.79225 -146.66717 -127.05894 L -157.25102 -127.05894 L -149.61996 -115.86014 L -157.25102 -26.140039 L -8.5138455 -26.140039 L 15.419061 -26.140039 L 8.0799737 -154.80195 L 15.419061 -165.68398 L 7.4593397 -165.68398 L 6.4490654 -183.39297 L -2.0863309 -198.17657 z M -83.43072 -192.21621 C -85.584619 -189.65499 -86.77489 -186.4211 -86.795372 -183.07465 C -86.842092 -175.15518 -80.459903 -168.69733 -72.540428 -168.65072 C -64.621155 -168.60402 -58.163395 -174.98588 -58.116503 -182.90515 C -58.102813 -186.26049 -59.266203 -189.5144 -61.404157 -192.10045 C -60.83125 -190.6836 -60.536835 -189.16959 -60.537027 -187.64129 C -60.575787 -181.07411 -65.930869 -175.78172 -72.498054 -175.82031 C -79.065241 -175.85911 -84.357627 -181.21415 -84.319038 -187.78134 C -84.309338 -189.30285 -84.007827 -190.80837 -83.43072 -192.21621 z M 0.43909637 -119.90383 L 2.4792819 -115.65241 C -8.9712366 -110.72075 -15.858391 -103.12528 -18.182506 -92.865166 C -14.894733 -94.452366 -11.77673 -95.245899 -8.8290718 -95.245899 C -3.1604983 -95.245899 1.2888973 -93.715477 4.5199842 -90.654448 C 7.8077569 -87.593418 9.4519829 -83.455306 9.4519829 -78.240218 C 9.4519829 -75.009132 8.5732259 -72.118221 6.8159681 -69.567363 C 5.1153961 -67.016505 2.7062177 -65.032415 -0.4114977 -63.615271 C -3.4725274 -62.198128 -6.9870387 -61.489303 -10.95504 -61.489303 C -17.700643 -61.489303 -22.887444 -63.360105 -26.515331 -67.101363 C -30.086532 -70.842622 -31.87211 -76.255999 -31.87211 -83.341716 C -31.87211 -92.241376 -29.122551 -99.808775 -23.624034 -106.04421 C -18.068832 -112.33632 -10.047765 -116.95617 0.43909637 -119.90383 z M -127.01927 -119.81908 C -121.06727 -119.81908 -116.33362 -118.54381 -112.81911 -115.99295 C -109.30459 -113.44209 -107.54759 -110.01229 -107.54759 -105.70418 C -107.54759 -103.38006 -108.39777 -101.05611 -110.09834 -98.731991 C -111.79891 -96.407876 -114.03816 -94.50901 -116.81576 -93.035181 C -113.30125 -91.334609 -110.55169 -89.350519 -108.56769 -87.08309 C -106.527 -84.81566 -105.50689 -81.896169 -105.50689 -78.324968 C -105.50689 -73.166566 -107.37769 -69.057034 -111.11895 -65.996005 C -114.86021 -62.991661 -119.90514 -61.489303 -126.25395 -61.489303 C -133.22629 -61.489303 -138.6116 -62.878373 -142.40955 -65.655974 C -146.15081 -68.433575 -148.02109 -72.401238 -148.02109 -77.55964 C -148.02109 -80.223869 -147.17092 -82.86014 -145.47034 -85.467684 C -143.76977 -88.131914 -141.38917 -90.483931 -138.32814 -92.524618 C -140.879 -93.941761 -142.86258 -95.642631 -144.27972 -97.626632 C -145.69686 -99.610633 -146.40569 -102.07646 -146.40569 -105.02411 C -146.40569 -109.55897 -144.64817 -113.15871 -141.13366 -115.82294 C -137.61914 -118.48717 -132.91459 -119.81908 -127.01927 -119.81908 z M -56.615302 -119.64906 C -49.983071 -119.64906 -44.909558 -117.15466 -41.395043 -112.16631 C -37.823841 -107.23465 -36.038264 -100.06428 -36.038264 -90.654448 C -36.038264 -81.244616 -37.823841 -74.017081 -41.395043 -68.97205 C -44.909558 -63.983706 -49.983071 -61.489303 -56.615302 -61.489303 C -63.247533 -61.489303 -68.34911 -63.983706 -71.920311 -68.97205 C -75.491512 -74.017081 -77.277607 -81.244616 -77.277607 -90.654448 C -77.277607 -100.00759 -75.491512 -107.17797 -71.920311 -112.16631 C -68.34911 -117.15466 -63.247533 -119.64906 -56.615302 -119.64906 z M -56.615302 -115.31237 C -59.506275 -115.31237 -61.603653 -113.41351 -62.907425 -109.61556 C -64.154511 -105.81762 -64.778111 -99.497422 -64.778111 -90.654448 C -64.778111 -81.868159 -64.154511 -75.576025 -62.907425 -71.778081 C -61.603653 -68.036822 -59.506275 -66.16602 -56.615302 -66.16602 C -53.72433 -66.16602 -51.655532 -68.036822 -50.408446 -71.778081 C -49.104674 -75.576025 -48.452493 -81.868159 -48.452493 -90.654448 C -48.452493 -99.440737 -49.104674 -105.73287 -50.408446 -109.53081 C -51.655532 -113.38544 -53.72433 -115.31237 -56.615302 -115.31237 z M -127.01927 -113.78224 C -129.2867 -113.78224 -131.07228 -113.04535 -132.37605 -111.57152 C -133.67982 -110.15437 -134.33149 -108.22693 -134.33149 -105.78944 C -134.33149 -103.63538 -133.50989 -101.84981 -131.86601 -100.43266 C -130.16543 -99.072205 -127.69961 -97.711715 -124.46852 -96.351258 C -123.05138 -97.314915 -121.91747 -98.646824 -121.06718 -100.3474 C -120.2169 -102.04797 -119.79181 -103.86213 -119.79181 -105.78944 C -119.79181 -108.22693 -120.47205 -110.15437 -121.83251 -111.57152 C -123.13628 -113.04535 -124.86522 -113.78224 -127.01927 -113.78224 z M -90.456647 -101.28274 C -88.472647 -101.28274 -86.998869 -100.68772 -86.035212 -99.497319 C -85.014869 -98.363604 -84.505073 -96.776539 -84.505073 -94.735852 C -84.505073 -92.695166 -85.014869 -91.107584 -86.035212 -89.973869 C -86.998869 -88.840154 -88.472647 -88.273198 -90.456647 -88.273198 C -92.440648 -88.273198 -93.943006 -88.840154 -94.963349 -89.973869 C -95.927007 -91.16427 -96.408739 -92.751852 -96.408739 -94.735852 C -96.408739 -96.833225 -95.927007 -98.448354 -94.963349 -99.582068 C -93.943006 -100.71578 -92.440648 -101.28274 -90.456647 -101.28274 z M -11.210322 -89.293807 C -13.591123 -89.293807 -16.170233 -88.330343 -18.947834 -86.403028 L -18.947834 -85.297669 C -18.947834 -79.118924 -18.267589 -74.583787 -16.907132 -71.692814 C -15.546674 -68.801842 -13.392652 -67.356645 -10.444994 -67.356645 C -8.0075072 -67.356645 -6.1367052 -68.291529 -4.8329332 -70.162159 C -3.5291613 -72.032788 -2.8774971 -74.697123 -2.8774971 -78.154952 C -2.8774971 -81.669468 -3.6143857 -84.390447 -5.0882148 -86.317762 C -6.5053582 -88.301762 -8.5460922 -89.293807 -11.210322 -89.293807 z M -130.50537 -89.038526 C -132.20594 -87.678068 -133.45314 -86.119583 -134.24674 -84.362325 C -135.04034 -82.605068 -135.43685 -80.50769 -135.43685 -78.070203 C -135.43685 -74.725745 -134.61525 -72.089474 -132.97137 -70.162159 C -131.32748 -68.291529 -129.08823 -67.356645 -126.25395 -67.356645 C -123.47634 -67.356645 -121.32232 -68.291529 -119.79181 -70.162159 C -118.20461 -72.032788 -117.41107 -74.640479 -117.41107 -77.984937 C -117.41107 -79.855566 -118.00609 -81.442631 -119.1965 -82.746403 C -120.33021 -84.106861 -121.77592 -85.212194 -123.53318 -86.06248 C -125.29044 -86.969452 -127.61439 -87.961497 -130.50537 -89.038526 z M -90.456647 -74.498845 C -88.472647 -74.498845 -86.998869 -73.903824 -86.035212 -72.713424 C -85.014869 -71.579709 -84.505073 -69.992127 -84.505073 -67.951441 C -84.505073 -65.910754 -85.014869 -64.323689 -86.035212 -63.189974 C -86.998869 -62.05626 -88.472647 -61.489303 -90.456647 -61.489303 C -92.440648 -61.489303 -93.943006 -62.05626 -94.963349 -63.189974 C -95.927007 -64.380375 -96.408739 -65.96744 -96.408739 -67.951441 C -96.408739 -70.048813 -95.927007 -71.664459 -94.963349 -72.798173 C -93.943006 -73.931888 -92.440648 -74.498845 -90.456647 -74.498845 z " /></g></svg>
