<?xml version="1.0" encoding="UTF-8" standalone="no"?>
<!-- Created with Inkscape (http://www.inkscape.org/) -->

<svg
   width="172.6701mm"
   height="172.6701mm"
   viewBox="0 0 172.6701 172.6701"
   version="1.1"
   id="svg1"
   xml:space="preserve"
   xmlns="http://www.w3.org/2000/svg"
   xmlns:svg="http://www.w3.org/2000/svg"><defs
     id="defs1" /><g
     id="layer1"
     transform="translate(157.25102,198.81012)"><path
       id="path5"
       style="fill:#ffffff;fill-opacity:1;stroke-width:0.805188;stroke-linecap:round;stroke-linejoin:round"
       d="M -2.0863309 -198.17657 L -10.088943 -183.11289 L -10.930235 -165.68398 L -19.198981 -165.68398 L -11.423229 -155.47426 L -12.166336 -140.07934 C -28.353216 -157.12094 -50.823548 -166.77435 -74.327399 -166.78417 C -103.64471 -166.77397 -130.92652 -151.79225 -146.66717 -127.05894 L -157.25102 -127.05894 L -149.61996 -115.86014 L -157.25102 -26.140039 L -8.5138455 -26.140039 L 15.419061 -26.140039 L 8.0799737 -154.80195 L 15.419061 -165.68398 L 7.4593397 -165.68398 L 6.4490654 -183.39297 L -2.0863309 -198.17657 z M -83.43072 -192.21621 C -85.584619 -189.65499 -86.77489 -186.4211 -86.795372 -183.07465 C -86.842092 -175.15518 -80.459903 -168.69733 -72.540428 -168.65072 C -64.621155 -168.60402 -58.163395 -174.98588 -58.116503 -182.90515 C -58.102813 -186.26049 -59.266203 -189.5144 -61.404157 -192.10045 C -60.83125 -190.6836 -60.536835 -189.16959 -60.537027 -187.64129 C -60.575787 -181.07411 -65.930869 -175.78172 -72.498054 -175.82031 C -79.065241 -175.85911 -84.357627 -181.21415 -84.319038 -187.78134 C -84.309338 -189.30285 -84.007827 -190.80837 -83.43072 -192.21621 z M -128.76232 -120.07436 C -124.22746 -119.84761 -120.54302 -118.85557 -117.70873 -117.09831 L -137.94522 -83.767013 L -124.93568 -83.767013 L -124.0856 -97.626632 C -122.27166 -97.626632 -120.96781 -97.995076 -120.17421 -98.731991 C -119.32393 -99.468905 -118.67226 -100.71611 -118.21878 -102.47336 L -113.37204 -102.47336 L -113.45731 -83.341716 C -111.30325 -82.718173 -108.58227 -82.066508 -105.2945 -81.38628 L -105.71928 -77.304875 L -113.88209 -77.304875 L -113.88209 -62.084615 L -124.93568 -62.084615 L -124.93568 -77.304875 L -149.50937 -77.304875 L -150.18944 -80.36567 L -128.76232 -120.07436 z M 0.31145559 -119.90383 L 2.3521579 -115.65241 C -9.0983606 -110.72075 -15.986032 -103.12528 -18.310147 -92.865166 C -15.022374 -94.452366 -11.904371 -95.245899 -8.9567125 -95.245899 C -3.288139 -95.245899 1.1617733 -93.715477 4.3928602 -90.654448 C 7.6806328 -87.593418 9.3243421 -83.455306 9.3243421 -78.240218 C 9.3243421 -75.009132 8.4455851 -72.118221 6.6883273 -69.567363 C 4.9877553 -67.016505 2.5785769 -65.032415 -0.53913849 -63.615271 C -3.6001682 -62.198128 -7.1146795 -61.489303 -11.082681 -61.489303 C -17.828283 -61.489303 -23.015084 -63.360105 -26.642971 -67.101363 C -30.214173 -70.842622 -31.99975 -76.255999 -31.99975 -83.341716 C -31.99975 -92.241376 -29.250191 -99.808775 -23.751675 -106.04421 C -18.196473 -112.33632 -10.175405 -116.95617 0.31145559 -119.90383 z M -56.742943 -119.64906 C -50.110712 -119.64906 -45.037199 -117.15466 -41.522683 -112.16631 C -37.951482 -107.23465 -36.165904 -100.06428 -36.165904 -90.654448 C -36.165904 -81.244616 -37.951482 -74.017081 -41.522683 -68.97205 C -45.037199 -63.983706 -50.110712 -61.489303 -56.742943 -61.489303 C -63.375174 -61.489303 -68.476751 -63.983706 -72.047952 -68.97205 C -75.619153 -74.017081 -77.404731 -81.244616 -77.404731 -90.654448 C -77.404731 -100.00759 -75.619153 -107.17797 -72.047952 -112.16631 C -68.476751 -117.15466 -63.375174 -119.64906 -56.742943 -119.64906 z M -56.742943 -115.31237 C -59.633916 -115.31237 -61.731294 -113.41351 -63.035065 -109.61556 C -64.282152 -105.81762 -64.905752 -99.497422 -64.905752 -90.654448 C -64.905752 -81.868159 -64.282152 -75.576025 -63.035065 -71.778081 C -61.731294 -68.036822 -59.633916 -66.16602 -56.742943 -66.16602 C -53.851971 -66.16602 -51.783173 -68.036822 -50.536087 -71.778081 C -49.232315 -75.576025 -48.580134 -81.868159 -48.580134 -90.654448 C -48.580134 -99.440737 -49.232315 -105.73287 -50.536087 -109.53081 C -51.783173 -113.38544 -53.851971 -115.31237 -56.742943 -115.31237 z M -90.584288 -101.28274 C -88.600288 -101.28274 -87.12651 -100.68772 -86.162853 -99.497319 C -85.142509 -98.363604 -84.632197 -96.776539 -84.632197 -94.735852 C -84.632197 -92.695166 -85.142509 -91.107584 -86.162853 -89.973869 C -87.12651 -88.840154 -88.600288 -88.273198 -90.584288 -88.273198 C -92.568289 -88.273198 -94.070647 -88.840154 -95.09099 -89.973869 C -96.054647 -91.16427 -96.53638 -92.751852 -96.53638 -94.735852 C -96.53638 -96.833225 -96.054647 -98.448354 -95.09099 -99.582068 C -94.070647 -100.71578 -92.568289 -101.28274 -90.584288 -101.28274 z M -11.337446 -89.293807 C -13.718247 -89.293807 -16.297874 -88.330343 -19.075475 -86.403028 L -19.075475 -85.297669 C -19.075475 -79.118924 -18.39523 -74.583787 -17.034772 -71.692814 C -15.674315 -68.801842 -13.519776 -67.356645 -10.572118 -67.356645 C -8.1346312 -67.356645 -6.2643459 -68.291529 -4.960574 -70.162159 C -3.6568021 -72.032788 -3.0046211 -74.697123 -3.0046211 -78.154952 C -3.0046211 -81.669468 -3.7415097 -84.390447 -5.2153388 -86.317762 C -6.6324822 -88.301762 -8.6732162 -89.293807 -11.337446 -89.293807 z M -90.584288 -74.498845 C -88.600288 -74.498845 -87.12651 -73.903824 -86.162853 -72.713424 C -85.142509 -71.579709 -84.632197 -69.992127 -84.632197 -67.951441 C -84.632197 -65.910754 -85.142509 -64.323689 -86.162853 -63.189974 C -87.12651 -62.05626 -88.600288 -61.489303 -90.584288 -61.489303 C -92.568289 -61.489303 -94.070647 -62.05626 -95.09099 -63.189974 C -96.054647 -64.380375 -96.53638 -65.96744 -96.53638 -67.951441 C -96.53638 -70.048813 -96.054647 -71.664459 -95.09099 -72.798173 C -94.070647 -73.931888 -92.568289 -74.498845 -90.584288 -74.498845 z " /></g></svg>
