<?xml version="1.0" encoding="UTF-8" standalone="no"?>
<!-- Created with Inkscape (http://www.inkscape.org/) -->

<svg
   width="172.6701mm"
   height="172.6701mm"
   viewBox="0 0 172.6701 172.6701"
   version="1.1"
   id="svg1"
   xml:space="preserve"
   xmlns="http://www.w3.org/2000/svg"
   xmlns:svg="http://www.w3.org/2000/svg"><defs
     id="defs1" /><g
     id="layer1"
     transform="translate(157.25102,198.81012)"><path
       id="path5"
       style="fill:#ffffff;fill-opacity:1;stroke-width:0.805188;stroke-linecap:round;stroke-linejoin:round"
       d="M -2.0863309 -198.17657 L -10.088943 -183.11289 L -10.930235 -165.68398 L -19.198981 -165.68398 L -11.423229 -155.47426 L -12.166336 -140.07934 C -28.353216 -157.12094 -50.823548 -166.77435 -74.327399 -166.78417 C -103.64471 -166.77397 -130.92652 -151.79225 -146.66717 -127.05894 L -157.25102 -127.05894 L -149.61996 -115.86014 L -157.25102 -26.140039 L -8.5138455 -26.140039 L 15.419061 -26.140039 L 8.0799737 -154.80195 L 15.419061 -165.68398 L 7.4593397 -165.68398 L 6.4490654 -183.39297 L -2.0863309 -198.17657 z M -83.43072 -192.21621 C -85.584619 -189.65499 -86.77489 -186.4211 -86.795372 -183.07465 C -86.842092 -175.15518 -80.459903 -168.69733 -72.540428 -168.65072 C -64.621155 -168.60402 -58.163395 -174.98588 -58.116503 -182.90515 C -58.102813 -186.26049 -59.266203 -189.5144 -61.404157 -192.10045 C -60.83125 -190.6836 -60.536835 -189.16959 -60.537027 -187.64129 C -60.575787 -181.07411 -65.930869 -175.78172 -72.498054 -175.82031 C -79.065241 -175.85911 -84.357627 -181.21415 -84.319038 -187.78134 C -84.309338 -189.30285 -84.007827 -190.80837 -83.43072 -192.21621 z M -125.70101 -119.81908 C -119.74901 -119.81908 -115.01587 -118.54381 -111.50136 -115.99295 C -107.98684 -113.44209 -106.22984 -110.01229 -106.22984 -105.70418 C -106.22984 -103.38006 -107.08002 -101.05611 -108.78059 -98.731991 C -110.48117 -96.407876 -112.72041 -94.50901 -115.49801 -93.035181 C -111.9835 -91.334609 -109.23394 -89.350519 -107.24994 -87.08309 C -105.20925 -84.81566 -104.18914 -81.896169 -104.18914 -78.324968 C -104.18914 -73.166566 -106.05943 -69.057034 -109.80069 -65.996005 C -113.54194 -62.991661 -118.58688 -61.489303 -124.93568 -61.489303 C -131.90803 -61.489303 -137.29334 -62.878373 -141.09128 -65.655974 C -144.83254 -68.433575 -146.70334 -72.401238 -146.70334 -77.55964 C -146.70334 -80.223869 -145.85317 -82.86014 -144.15259 -85.467684 C -142.45202 -88.131914 -140.07091 -90.483931 -137.00988 -92.524618 C -139.56074 -93.941761 -141.54483 -95.642631 -142.96197 -97.626632 C -144.37911 -99.610633 -145.08794 -102.07646 -145.08794 -105.02411 C -145.08794 -109.55897 -143.33042 -113.15871 -139.81591 -115.82294 C -136.30139 -118.48717 -131.59632 -119.81908 -125.70101 -119.81908 z M -57.082974 -119.73381 C -51.244343 -119.73381 -46.596435 -118.28861 -43.138605 -115.39764 C -39.680776 -112.56335 -37.951842 -108.56711 -37.951842 -103.40871 C -37.951842 -98.873849 -39.680776 -94.026912 -43.138605 -88.86851 C -46.596435 -83.766794 -52.293032 -77.616529 -60.229035 -70.41744 L -37.356529 -70.41744 L -37.356529 -62.084615 L -75.874592 -62.084615 L -75.874592 -67.016097 C -69.582475 -73.081471 -64.678894 -78.268272 -61.164379 -82.576388 C -57.649863 -86.884504 -55.127397 -90.852684 -53.596882 -94.480571 C -52.009681 -98.108458 -51.216149 -101.84955 -51.216149 -105.70418 C -51.216149 -111.82623 -53.256883 -114.88759 -57.338256 -114.88759 C -59.152199 -114.88759 -60.625976 -114.0369 -61.759691 -112.33633 C -62.893406 -110.69244 -63.460362 -108.65171 -63.460362 -106.21422 C -63.460362 -104.51365 -62.864825 -102.89852 -61.674425 -101.36801 C -62.638082 -100.46103 -63.743415 -99.752209 -64.990502 -99.242037 C -66.180902 -98.731866 -67.371459 -98.476709 -68.56186 -98.476709 C -70.602546 -98.476709 -72.303416 -99.10031 -73.663874 -100.3474 C -75.024332 -101.65117 -75.704576 -103.52197 -75.704576 -105.95946 C -75.704576 -108.567 -74.939107 -110.91953 -73.408592 -113.01691 C -71.878078 -115.11428 -69.724056 -116.75799 -66.946455 -117.94839 C -64.112168 -119.13879 -60.824232 -119.73381 -57.082974 -119.73381 z M -12.18804 -119.64906 C -5.5558089 -119.64906 -0.48229583 -117.15466 3.0322197 -112.16631 C 6.6034211 -107.23465 8.3889987 -100.06428 8.3889987 -90.654448 C 8.3889987 -81.244616 6.6034211 -74.017081 3.0322197 -68.97205 C -0.48229583 -63.983706 -5.5558089 -61.489303 -12.18804 -61.489303 C -18.820271 -61.489303 -23.921847 -63.983706 -27.493049 -68.97205 C -31.06425 -74.017081 -32.849828 -81.244616 -32.849828 -90.654448 C -32.849828 -100.00759 -31.06425 -107.17797 -27.493049 -112.16631 C -23.921847 -117.15466 -18.820271 -119.64906 -12.18804 -119.64906 z M -12.18804 -115.31237 C -15.079012 -115.31237 -17.17639 -113.41351 -18.480162 -109.61556 C -19.727248 -105.81762 -20.350849 -99.497422 -20.350849 -90.654448 C -20.350849 -81.868159 -19.727248 -75.576025 -18.480162 -71.778081 C -17.17639 -68.036822 -15.079012 -66.16602 -12.18804 -66.16602 C -9.2970674 -66.16602 -7.227753 -68.036822 -5.9806668 -71.778081 C -4.6768949 -75.576025 -4.0252306 -81.868159 -4.0252306 -90.654448 C -4.0252306 -99.440737 -4.6768949 -105.73287 -5.9806668 -109.53081 C -7.227753 -113.38544 -9.2970674 -115.31237 -12.18804 -115.31237 z M -125.70101 -113.78224 C -127.96844 -113.78224 -129.75401 -113.04535 -131.05779 -111.57152 C -132.36156 -110.15437 -133.01374 -108.22693 -133.01374 -105.78944 C -133.01374 -103.63538 -132.19163 -101.84981 -130.54774 -100.43266 C -128.84717 -99.072205 -126.38135 -97.711715 -123.15026 -96.351258 C -121.73312 -97.314915 -120.59972 -98.646824 -119.74943 -100.3474 C -118.89915 -102.04797 -118.47354 -103.86213 -118.47354 -105.78944 C -118.47354 -108.22693 -119.15379 -110.15437 -120.51424 -111.57152 C -121.81802 -113.04535 -123.54695 -113.78224 -125.70101 -113.78224 z M -89.138898 -101.28274 C -87.154898 -101.28274 -85.68112 -100.68772 -84.717463 -99.497319 C -83.69712 -98.363604 -83.186807 -96.776539 -83.186807 -94.735852 C -83.186807 -92.695166 -83.69712 -91.107584 -84.717463 -89.973869 C -85.68112 -88.840154 -87.154898 -88.273198 -89.138898 -88.273198 C -91.122899 -88.273198 -92.625257 -88.840154 -93.6456 -89.973869 C -94.609258 -91.16427 -95.09099 -92.751852 -95.09099 -94.735852 C -95.09099 -96.833225 -94.609258 -98.448354 -93.6456 -99.582068 C -92.625257 -100.71578 -91.122899 -101.28274 -89.138898 -101.28274 z M -129.18762 -89.038526 C -130.88819 -87.678068 -132.13487 -86.119583 -132.92847 -84.362325 C -133.72207 -82.605068 -134.1191 -80.50769 -134.1191 -78.070203 C -134.1191 -74.725745 -133.29699 -72.089474 -131.6531 -70.162159 C -130.00921 -68.291529 -127.76997 -67.356645 -124.93568 -67.356645 C -122.15808 -67.356645 -120.00406 -68.291529 -118.47354 -70.162159 C -116.88634 -72.032788 -116.09281 -74.640479 -116.09281 -77.984937 C -116.09281 -79.855566 -116.68835 -81.442631 -117.87875 -82.746403 C -119.01246 -84.106861 -120.45766 -85.212194 -122.21492 -86.06248 C -123.97217 -86.969452 -126.29664 -87.961497 -129.18762 -89.038526 z M -89.138898 -74.498845 C -87.154898 -74.498845 -85.68112 -73.903824 -84.717463 -72.713424 C -83.69712 -71.579709 -83.186807 -69.992127 -83.186807 -67.951441 C -83.186807 -65.910754 -83.69712 -64.323689 -84.717463 -63.189974 C -85.68112 -62.05626 -87.154898 -61.489303 -89.138898 -61.489303 C -91.122899 -61.489303 -92.625257 -62.05626 -93.6456 -63.189974 C -94.609258 -64.380375 -95.09099 -65.96744 -95.09099 -67.951441 C -95.09099 -70.048813 -94.609258 -71.664459 -93.6456 -72.798173 C -92.625257 -73.931888 -91.122899 -74.498845 -89.138898 -74.498845 z " /></g></svg>
