<?xml version="1.0" encoding="UTF-8" standalone="no"?>
<!-- Created with Inkscape (http://www.inkscape.org/) -->

<svg
   width="172.6701mm"
   height="172.6701mm"
   viewBox="0 0 172.6701 172.6701"
   version="1.1"
   id="svg1"
   xml:space="preserve"
   xmlns="http://www.w3.org/2000/svg"
   xmlns:svg="http://www.w3.org/2000/svg"><defs
     id="defs1" /><g
     id="layer1"
     transform="translate(157.25102,198.81012)"><path
       id="path5"
       style="fill:#ffffff;fill-opacity:1;stroke-width:0.805188;stroke-linecap:round;stroke-linejoin:round"
       d="M -2.0863309 -198.17657 L -10.088943 -183.11289 L -10.930235 -165.68398 L -19.198981 -165.68398 L -11.423229 -155.47426 L -12.166336 -140.07934 C -28.353216 -157.12094 -50.823548 -166.77435 -74.327399 -166.78417 C -103.64471 -166.77397 -130.92652 -151.79225 -146.66717 -127.05894 L -157.25102 -127.05894 L -149.61996 -115.86014 L -157.25102 -26.140039 L -8.5138455 -26.140039 L 15.419061 -26.140039 L 8.0799737 -154.80195 L 15.419061 -165.68398 L 7.4593397 -165.68398 L 6.4490654 -183.39297 L -2.0863309 -198.17657 z M -83.43072 -192.21621 C -85.584619 -189.65499 -86.77489 -186.4211 -86.795372 -183.07465 C -86.842092 -175.15518 -80.459903 -168.69733 -72.540428 -168.65072 C -64.621155 -168.60402 -58.163395 -174.98588 -58.116503 -182.90515 C -58.102813 -186.26049 -59.266203 -189.5144 -61.404157 -192.10045 C -60.83125 -190.6836 -60.536835 -189.16959 -60.537027 -187.64129 C -60.575787 -181.07411 -65.930869 -175.78172 -72.498054 -175.82031 C -79.065241 -175.85911 -84.357627 -181.21415 -84.319038 -187.78134 C -84.309338 -189.30285 -84.007827 -190.80837 -83.43072 -192.21621 z M -4.2799954 -119.90383 L -2.2398099 -115.65241 C -13.690328 -110.72075 -20.577483 -103.12528 -22.901598 -92.865166 C -19.613825 -94.452366 -16.495822 -95.245899 -13.548164 -95.245899 C -7.87959 -95.245899 -3.4301945 -93.715477 -0.19910757 -90.654448 C 3.0886651 -87.593418 4.7328911 -83.455306 4.7328911 -78.240218 C 4.7328911 -75.009132 3.8541341 -72.118221 2.0968763 -69.567363 C 0.39630427 -67.016505 -2.0128741 -65.032415 -5.1305895 -63.615271 C -8.1916192 -62.198128 -11.706131 -61.489303 -15.674132 -61.489303 C -22.419734 -61.489303 -27.606535 -63.360105 -31.234423 -67.101363 C -34.805624 -70.842622 -36.591201 -76.255999 -36.591201 -83.341716 C -36.591201 -92.241376 -33.841642 -99.808775 -28.343126 -106.04421 C -22.787924 -112.33632 -14.766856 -116.95617 -4.2799954 -119.90383 z M -122.21492 -119.13901 L -119.40889 -117.86364 L -119.40889 -68.716769 C -118.33186 -68.093226 -116.6315 -67.526269 -114.30739 -67.016097 C -111.98327 -66.562611 -110.14105 -66.279392 -108.78059 -66.16602 L -109.03536 -62.084615 L -143.7273 -62.084615 L -143.55728 -66.16602 C -138.51225 -66.732877 -134.65736 -67.583054 -131.99313 -68.716769 L -131.99313 -109.44555 L -143.38727 -109.44555 L -143.38727 -114.37703 C -139.75938 -114.66046 -136.01778 -115.19935 -132.16315 -115.99295 C -128.30852 -116.84324 -124.99252 -117.89193 -122.21492 -119.13901 z M -73.748623 -119.05375 L -69.497203 -118.969 C -63.488515 -118.85563 -60.314385 -118.79847 -59.97427 -118.79847 L -47.900072 -118.969 L -45.434073 -117.18306 L -46.199401 -110.72092 L -67.286485 -110.72092 L -68.47711 -96.521273 C -65.529452 -97.258188 -62.865118 -97.626632 -60.484317 -97.626632 C -54.872429 -97.626632 -50.309229 -96.124274 -46.794713 -93.11993 C -43.223512 -90.172272 -41.437934 -85.836165 -41.437934 -80.110905 C -41.437934 -76.539704 -42.288111 -73.336993 -43.988683 -70.502706 C -45.632569 -67.66842 -48.013167 -65.429173 -51.130882 -63.785287 C -54.248598 -62.198086 -57.933558 -61.404554 -62.184988 -61.404554 C -65.642818 -61.404554 -68.788885 -61.886286 -71.623172 -62.849943 C -74.400773 -63.813601 -76.582858 -65.14551 -78.170059 -66.846082 C -79.757259 -68.60334 -80.550792 -70.559366 -80.550792 -72.713424 C -80.550792 -74.980853 -79.927191 -76.709787 -78.680105 -77.900188 C -77.433019 -79.147274 -75.902598 -79.770358 -74.088654 -79.770358 C -73.068311 -79.770358 -72.048202 -79.572362 -71.027859 -79.175562 C -69.95083 -78.778762 -68.986849 -78.211805 -68.136563 -77.474891 C -68.646734 -76.28449 -68.901891 -75.037289 -68.901891 -73.733517 C -68.901891 -71.862888 -68.363514 -70.332466 -67.286485 -69.142066 C -66.152771 -67.951665 -64.452418 -67.356645 -62.184988 -67.356645 C -57.083272 -67.356645 -54.532225 -71.608045 -54.532225 -80.110905 C -54.532225 -84.135593 -55.325758 -87.054567 -56.912958 -88.86851 C -58.500159 -90.73914 -60.626117 -91.674541 -63.290347 -91.674541 C -64.934233 -91.674541 -66.691231 -91.36274 -68.56186 -90.739197 C -70.432489 -90.115654 -72.274711 -89.236897 -74.088654 -88.103182 L -78.765371 -92.609884 L -76.554654 -116.75776 L -73.748623 -119.05375 z M -94.07038 -101.28274 C -92.08638 -101.28274 -90.612602 -100.68772 -89.648945 -99.497319 C -88.628602 -98.363604 -88.118289 -96.776539 -88.118289 -94.735852 C -88.118289 -92.695166 -88.628602 -91.107584 -89.648945 -89.973869 C -90.612602 -88.840154 -92.08638 -88.273198 -94.07038 -88.273198 C -96.054381 -88.273198 -97.556739 -88.840154 -98.577082 -89.973869 C -99.54074 -91.16427 -100.02247 -92.751852 -100.02247 -94.735852 C -100.02247 -96.833225 -99.54074 -98.448354 -98.577082 -99.582068 C -97.556739 -100.71578 -96.054381 -101.28274 -94.07038 -101.28274 z M -15.929414 -89.293807 C -18.310214 -89.293807 -20.889325 -88.330343 -23.666926 -86.403028 L -23.666926 -85.297669 C -23.666926 -79.118924 -22.986681 -74.583787 -21.626223 -71.692814 C -20.265766 -68.801842 -18.111744 -67.356645 -15.164086 -67.356645 C -12.726599 -67.356645 -10.855797 -68.291529 -9.552025 -70.162159 C -8.2482531 -72.032788 -7.5965888 -74.697123 -7.5965888 -78.154952 C -7.5965888 -81.669468 -8.3334775 -84.390447 -9.8073066 -86.317762 C -11.22445 -88.301762 -13.265184 -89.293807 -15.929414 -89.293807 z M -94.07038 -74.498845 C -92.08638 -74.498845 -90.612602 -73.903824 -89.648945 -72.713424 C -88.628602 -71.579709 -88.118289 -69.992127 -88.118289 -67.951441 C -88.118289 -65.910754 -88.628602 -64.323689 -89.648945 -63.189974 C -90.612602 -62.05626 -92.08638 -61.489303 -94.07038 -61.489303 C -96.054381 -61.489303 -97.556739 -62.05626 -98.577082 -63.189974 C -99.54074 -64.380375 -100.02247 -65.96744 -100.02247 -67.951441 C -100.02247 -70.048813 -99.54074 -71.664459 -98.577082 -72.798173 C -97.556739 -73.931888 -96.054381 -74.498845 -94.07038 -74.498845 z " /></g></svg>
