<?xml version="1.0" encoding="UTF-8" standalone="no"?>
<!-- Created with Inkscape (http://www.inkscape.org/) -->

<svg
   width="172.6701mm"
   height="172.6701mm"
   viewBox="0 0 172.6701 172.6701"
   version="1.1"
   id="svg1"
   xml:space="preserve"
   xmlns="http://www.w3.org/2000/svg"
   xmlns:svg="http://www.w3.org/2000/svg"><defs
     id="defs1" /><g
     id="layer1"
     transform="translate(157.25102,198.81012)"><path
       id="path5"
       style="fill:#ffffff;fill-opacity:1;stroke-width:0.805188;stroke-linecap:round;stroke-linejoin:round"
       d="M -2.0863309 -198.17657 L -10.088943 -183.11289 L -10.930235 -165.68398 L -19.198981 -165.68398 L -11.423229 -155.47426 L -12.166336 -140.07934 C -28.353216 -157.12094 -50.823548 -166.77435 -74.327399 -166.78417 C -103.64471 -166.77397 -130.92652 -151.79225 -146.66717 -127.05894 L -157.25102 -127.05894 L -149.61996 -115.86014 L -157.25102 -26.140039 L -8.5138455 -26.140039 L 15.419061 -26.140039 L 8.0799737 -154.80195 L 15.419061 -165.68398 L 7.4593397 -165.68398 L 6.4490654 -183.39297 L -2.0863309 -198.17657 z M -83.43072 -192.21621 C -85.584619 -189.65499 -86.77489 -186.4211 -86.795372 -183.07465 C -86.842092 -175.15518 -80.459903 -168.69733 -72.540428 -168.65072 C -64.621155 -168.60402 -58.163395 -174.98588 -58.116503 -182.90515 C -58.102813 -186.26049 -59.266203 -189.5144 -61.404157 -192.10045 C -60.83125 -190.6836 -60.536835 -189.16959 -60.537027 -187.64129 C -60.575787 -181.07411 -65.930869 -175.78172 -72.498054 -175.82031 C -79.065241 -175.85911 -84.357627 -181.21415 -84.319038 -187.78134 C -84.309338 -189.30285 -84.007827 -190.80837 -83.43072 -192.21621 z M -2.1969184 -119.90383 L -0.15621613 -115.65241 C -11.606735 -110.72075 -18.494406 -103.12528 -20.818521 -92.865166 C -17.530748 -94.452366 -14.412745 -95.245899 -11.465087 -95.245899 C -5.7965131 -95.245899 -1.3466007 -93.715477 1.8844862 -90.654448 C 5.1722588 -87.593418 6.8159681 -83.455306 6.8159681 -78.240218 C 6.8159681 -75.009132 5.9372111 -72.118221 4.1799533 -69.567363 C 2.4793813 -67.016505 0.070202916 -65.032415 -3.0475125 -63.615271 C -6.1085422 -62.198128 -9.6230535 -61.489303 -13.591055 -61.489303 C -20.336657 -61.489303 -25.523458 -63.360105 -29.151346 -67.101363 C -32.722547 -70.842622 -34.508124 -76.255999 -34.508124 -83.341716 C -34.508124 -92.241376 -31.758565 -99.808775 -26.260049 -106.04421 C -20.704847 -112.33632 -12.683779 -116.95617 -2.1969184 -119.90383 z M -126.84926 -119.73381 C -121.01063 -119.73381 -116.3622 -118.28861 -112.90437 -115.39764 C -109.44654 -112.56335 -107.71761 -108.56711 -107.71761 -103.40871 C -107.71761 -98.873849 -109.44654 -94.026912 -112.90437 -88.86851 C -116.3622 -83.766794 -122.05932 -77.616529 -129.99532 -70.41744 L -107.1223 -70.41744 L -107.1223 -62.084615 L -145.64036 -62.084615 L -145.64036 -67.016097 C -139.34824 -73.081471 -134.44518 -78.268272 -130.93066 -82.576388 C -127.41615 -86.884504 -124.89316 -90.852684 -123.36265 -94.480571 C -121.77545 -98.108458 -120.98192 -101.84955 -120.98192 -105.70418 C -120.98192 -111.82623 -123.02265 -114.88759 -127.10402 -114.88759 C -128.91797 -114.88759 -130.39174 -114.0369 -131.52546 -112.33633 C -132.65917 -110.69244 -133.22613 -108.65171 -133.22613 -106.21422 C -133.22613 -104.51365 -132.63111 -102.89852 -131.44071 -101.36801 C -132.40437 -100.46103 -133.5097 -99.752209 -134.75679 -99.242037 C -135.94719 -98.731866 -137.13774 -98.476709 -138.32814 -98.476709 C -140.36883 -98.476709 -142.06918 -99.10031 -143.42964 -100.3474 C -144.7901 -101.65117 -145.47034 -103.52197 -145.47034 -105.95946 C -145.47034 -108.567 -144.70487 -110.91953 -143.17436 -113.01691 C -141.64384 -115.11428 -139.48982 -116.75799 -136.71222 -117.94839 C -133.87794 -119.13879 -130.59052 -119.73381 -126.84926 -119.73381 z M -71.665546 -119.05375 L -67.414126 -118.969 C -61.405438 -118.85563 -58.230791 -118.79847 -57.890677 -118.79847 L -45.816995 -118.969 L -43.350996 -117.18306 L -44.116324 -110.72092 L -65.203409 -110.72092 L -66.393517 -96.521273 C -63.445859 -97.258188 -60.782041 -97.626632 -58.40124 -97.626632 C -52.789352 -97.626632 -48.226152 -96.124274 -44.711636 -93.11993 C -41.140435 -90.172272 -39.35434 -85.836165 -39.35434 -80.110905 C -39.35434 -76.539704 -40.205034 -73.336993 -41.905606 -70.502706 C -43.549492 -67.66842 -45.93009 -65.429173 -49.047805 -63.785287 C -52.165521 -62.198086 -55.849964 -61.404554 -60.101394 -61.404554 C -63.559224 -61.404554 -66.705291 -61.886286 -69.539578 -62.849943 C -72.317179 -63.813601 -74.499781 -65.14551 -76.086982 -66.846082 C -77.674182 -68.60334 -78.467715 -70.559366 -78.467715 -72.713424 C -78.467715 -74.980853 -77.844114 -76.709787 -76.597028 -77.900188 C -75.349942 -79.147274 -73.819521 -79.770358 -72.005577 -79.770358 C -70.985234 -79.770358 -69.965125 -79.572362 -68.944782 -79.175562 C -67.867753 -78.778762 -66.903772 -78.211805 -66.053486 -77.474891 C -66.563657 -76.28449 -66.818814 -75.037289 -66.818814 -73.733517 C -66.818814 -71.862888 -66.280437 -70.332466 -65.203409 -69.142066 C -64.069694 -67.951665 -62.368824 -67.356645 -60.101394 -67.356645 C -54.999678 -67.356645 -52.449148 -71.608045 -52.449148 -80.110905 C -52.449148 -84.135593 -53.242681 -87.054567 -54.829881 -88.86851 C -56.417082 -90.73914 -58.542524 -91.674541 -61.206753 -91.674541 C -62.85064 -91.674541 -64.608154 -91.36274 -66.478783 -90.739197 C -68.349412 -90.115654 -70.191634 -89.236897 -72.005577 -88.103182 L -76.682294 -92.609884 L -74.471577 -116.75776 L -71.665546 -119.05375 z M -91.987303 -101.28274 C -90.003303 -101.28274 -88.529525 -100.68772 -87.565868 -99.497319 C -86.545525 -98.363604 -86.035212 -96.776539 -86.035212 -94.735852 C -86.035212 -92.695166 -86.545525 -91.107584 -87.565868 -89.973869 C -88.529525 -88.840154 -90.003303 -88.273198 -91.987303 -88.273198 C -93.971304 -88.273198 -95.473662 -88.840154 -96.494005 -89.973869 C -97.457663 -91.16427 -97.939395 -92.751852 -97.939395 -94.735852 C -97.939395 -96.833225 -97.457663 -98.448354 -96.494005 -99.582068 C -95.473662 -100.71578 -93.971304 -101.28274 -91.987303 -101.28274 z M -13.84582 -89.293807 C -16.226621 -89.293807 -18.805731 -88.330343 -21.583332 -86.403028 L -21.583332 -85.297669 C -21.583332 -79.118924 -20.903087 -74.583787 -19.54263 -71.692814 C -18.182172 -68.801842 -16.02815 -67.356645 -13.080492 -67.356645 C -10.643005 -67.356645 -8.77272 -68.291529 -7.4689481 -70.162159 C -6.1651762 -72.032788 -5.5129951 -74.697123 -5.5129951 -78.154952 C -5.5129951 -81.669468 -6.2498838 -84.390447 -7.7237129 -86.317762 C -9.1408562 -88.301762 -11.18159 -89.293807 -13.84582 -89.293807 z M -91.987303 -74.498845 C -90.003303 -74.498845 -88.529525 -73.903824 -87.565868 -72.713424 C -86.545525 -71.579709 -86.035212 -69.992127 -86.035212 -67.951441 C -86.035212 -65.910754 -86.545525 -64.323689 -87.565868 -63.189974 C -88.529525 -62.05626 -90.003303 -61.489303 -91.987303 -61.489303 C -93.971304 -61.489303 -95.473662 -62.05626 -96.494005 -63.189974 C -97.457663 -64.380375 -97.939395 -65.96744 -97.939395 -67.951441 C -97.939395 -70.048813 -97.457663 -71.664459 -96.494005 -72.798173 C -95.473662 -73.931888 -93.971304 -74.498845 -91.987303 -74.498845 z " /></g></svg>
