<?xml version="1.0" encoding="UTF-8" standalone="no"?>
<!-- Created with Inkscape (http://www.inkscape.org/) -->

<svg
   width="172.6701mm"
   height="172.6701mm"
   viewBox="0 0 172.6701 172.6701"
   version="1.1"
   id="svg1"
   xml:space="preserve"
   xmlns="http://www.w3.org/2000/svg"
   xmlns:svg="http://www.w3.org/2000/svg"><defs
     id="defs1" /><g
     id="layer1"
     transform="translate(157.25102,198.81012)"><path
       id="path5"
       style="fill:#ffffff;fill-opacity:1;stroke-width:0.805188;stroke-linecap:round;stroke-linejoin:round"
       d="M -2.0863309 -198.17657 L -10.088943 -183.11289 L -10.930235 -165.68398 L -19.198981 -165.68398 L -11.423229 -155.47426 L -12.166336 -140.07934 C -28.353216 -157.12094 -50.823548 -166.77435 -74.327399 -166.78417 C -103.64471 -166.77397 -130.92652 -151.79225 -146.66717 -127.05894 L -157.25102 -127.05894 L -149.61996 -115.86014 L -157.25102 -26.140039 L -8.5138455 -26.140039 L 15.419061 -26.140039 L 8.0799737 -154.80195 L 15.419061 -165.68398 L 7.4593397 -165.68398 L 6.4490654 -183.39297 L -2.0863309 -198.17657 z M -83.43072 -192.21621 C -85.584619 -189.65499 -86.77489 -186.4211 -86.795372 -183.07465 C -86.842092 -175.15518 -80.459903 -168.69733 -72.540428 -168.65072 C -64.621155 -168.60402 -58.163395 -174.98588 -58.116503 -182.90515 C -58.102813 -186.26049 -59.266203 -189.5144 -61.404157 -192.10045 C -60.83125 -190.6836 -60.536835 -189.16959 -60.537027 -187.64129 C -60.575787 -181.07411 -65.930869 -175.78172 -72.498054 -175.82031 C -79.065241 -175.85911 -84.357627 -181.21415 -84.319038 -187.78134 C -84.309338 -189.30285 -84.007827 -190.80837 -83.43072 -192.21621 z M -61.079112 -119.73381 C -57.39454 -119.73381 -54.135185 -119.11073 -51.300898 -117.86364 C -48.466611 -116.67324 -46.255945 -114.97237 -44.668745 -112.76163 C -43.081544 -110.60757 -42.288011 -108.11368 -42.288011 -105.27939 C -42.288011 -102.10499 -43.223412 -99.384015 -45.094042 -97.116586 C -46.964671 -94.849156 -49.742294 -93.120223 -53.426866 -91.929822 C -48.778636 -90.909479 -45.519281 -89.237189 -43.648652 -86.913074 C -41.778023 -84.588959 -40.842622 -81.442892 -40.842622 -77.474891 C -40.842622 -74.017061 -41.891311 -71.069506 -43.988683 -68.632019 C -46.029369 -66.194533 -48.693704 -64.380375 -51.981477 -63.189974 C -55.269249 -61.999574 -58.669956 -61.404554 -62.184471 -61.404554 C -67.286187 -61.404554 -71.622812 -62.453243 -75.194013 -64.550615 C -78.708529 -66.647987 -80.466043 -69.510317 -80.466043 -73.138204 C -80.466043 -75.235577 -79.842442 -76.851222 -78.595356 -77.984937 C -77.34827 -79.175337 -75.789268 -79.770358 -73.918639 -79.770358 C -71.991324 -79.770358 -70.035814 -79.005405 -68.051813 -77.474891 C -68.561985 -76.397862 -68.817141 -75.094016 -68.817141 -73.563501 C -68.817141 -71.749558 -68.278248 -70.275781 -67.201219 -69.142066 C -66.067505 -68.008351 -64.395215 -67.441394 -62.184471 -67.441394 C -57.309498 -67.441394 -54.872256 -70.814037 -54.872256 -77.55964 C -54.872256 -81.244213 -56.062814 -84.10706 -58.443614 -86.147746 C -60.76773 -88.188433 -64.083729 -89.208541 -68.391844 -89.208541 L -68.391844 -94.480571 C -60.059041 -95.1608 -55.892866 -98.760535 -55.892866 -105.27939 C -55.892866 -108.56717 -56.402662 -110.97583 -57.423005 -112.50634 C -58.443348 -114.09354 -59.832418 -114.88759 -61.589676 -114.88759 C -63.687048 -114.88759 -65.274113 -114.15071 -66.351142 -112.67688 C -67.371485 -111.20305 -67.881798 -109.41747 -67.881798 -107.3201 C -67.881798 -105.44947 -67.484773 -103.77718 -66.691173 -102.30335 C -68.278374 -100.60278 -70.319108 -99.752084 -72.81328 -99.752084 C -75.080709 -99.752084 -76.838223 -100.43233 -78.08531 -101.79279 C -79.332396 -103.15324 -79.95548 -104.91076 -79.95548 -107.06482 C -79.95548 -109.8991 -78.992015 -112.25164 -77.0647 -114.12227 C -75.080699 -116.04958 -72.643457 -117.46671 -69.752485 -118.37369 C -66.804827 -119.28066 -63.913399 -119.73381 -61.079112 -119.73381 z M -120.93954 -119.13901 L -118.13351 -117.86364 L -118.13351 -68.716769 C -117.05648 -68.093226 -115.35613 -67.526269 -113.03201 -67.016097 C -110.7079 -66.562611 -108.86568 -66.279392 -107.50522 -66.16602 L -107.75998 -62.084615 L -142.45192 -62.084615 L -142.28191 -66.16602 C -137.23688 -66.732877 -133.38199 -67.583054 -130.71776 -68.716769 L -130.71776 -109.44555 L -142.11189 -109.44555 L -142.11189 -114.37703 C -138.48401 -114.66046 -134.7424 -115.19935 -130.88777 -115.99295 C -127.03314 -116.84324 -123.71714 -117.89193 -120.93954 -119.13901 z M -29.27847 -119.05375 L -25.027049 -118.969 C -19.018362 -118.85563 -15.844231 -118.79847 -15.504117 -118.79847 L -3.4299181 -118.969 L -0.96443553 -117.18306 L -1.7292467 -110.72092 L -22.816332 -110.72092 L -24.006957 -96.521273 C -21.059298 -97.258188 -18.394964 -97.626632 -16.014163 -97.626632 C -10.402275 -97.626632 -5.8390748 -96.124274 -2.3245592 -93.11993 C 1.2466421 -90.172272 3.0322197 -85.836165 3.0322197 -80.110905 C 3.0322197 -76.539704 2.1820431 -73.336993 0.48147105 -70.502706 C -1.1624153 -67.66842 -3.54353 -65.429173 -6.6612454 -63.785287 C -9.7789609 -62.198086 -13.463404 -61.404554 -17.714834 -61.404554 C -21.172664 -61.404554 -24.318731 -61.886286 -27.153018 -62.849943 C -29.930619 -63.813601 -32.113221 -65.14551 -33.700422 -66.846082 C -35.287622 -68.60334 -36.081155 -70.559366 -36.081155 -72.713424 C -36.081155 -74.980853 -35.457554 -76.709787 -34.210468 -77.900188 C -32.963382 -79.147274 -31.432961 -79.770358 -29.619017 -79.770358 C -28.598674 -79.770358 -27.578049 -79.572362 -26.557705 -79.175562 C -25.480676 -78.778762 -24.517212 -78.211805 -23.666926 -77.474891 C -24.177097 -76.28449 -24.432254 -75.037289 -24.432254 -73.733517 C -24.432254 -71.862888 -23.893361 -70.332466 -22.816332 -69.142066 C -21.682617 -67.951665 -19.982264 -67.356645 -17.714834 -67.356645 C -12.613118 -67.356645 -10.062071 -71.608045 -10.062071 -80.110905 C -10.062071 -84.135593 -10.855604 -87.054567 -12.442805 -88.86851 C -14.030005 -90.73914 -16.155964 -91.674541 -18.820193 -91.674541 C -20.464079 -91.674541 -22.221077 -91.36274 -24.091706 -90.739197 C -25.962335 -90.115654 -27.805074 -89.236897 -29.619017 -88.103182 L -34.295218 -92.609884 L -32.0845 -116.75776 L -29.27847 -119.05375 z M -92.795006 -101.28274 C -90.811005 -101.28274 -89.337228 -100.68772 -88.37357 -99.497319 C -87.353227 -98.363604 -86.842915 -96.776539 -86.842915 -94.735852 C -86.842915 -92.695166 -87.353227 -91.107584 -88.37357 -89.973869 C -89.337228 -88.840154 -90.811005 -88.273198 -92.795006 -88.273198 C -94.779007 -88.273198 -96.281364 -88.840154 -97.301708 -89.973869 C -98.265365 -91.16427 -98.747097 -92.751852 -98.747097 -94.735852 C -98.747097 -96.833225 -98.265365 -98.448354 -97.301708 -99.582068 C -96.281364 -100.71578 -94.779007 -101.28274 -92.795006 -101.28274 z M -92.795006 -74.498845 C -90.811005 -74.498845 -89.337228 -73.903824 -88.37357 -72.713424 C -87.353227 -71.579709 -86.842915 -69.992127 -86.842915 -67.951441 C -86.842915 -65.910754 -87.353227 -64.323689 -88.37357 -63.189974 C -89.337228 -62.05626 -90.811005 -61.489303 -92.795006 -61.489303 C -94.779007 -61.489303 -96.281364 -62.05626 -97.301708 -63.189974 C -98.265365 -64.380375 -98.747097 -65.96744 -98.747097 -67.951441 C -98.747097 -70.048813 -98.265365 -71.664459 -97.301708 -72.798173 C -96.281364 -73.931888 -94.779007 -74.498845 -92.795006 -74.498845 z " /></g></svg>
