<?xml version="1.0" encoding="UTF-8" standalone="no"?>
<!-- Created with Inkscape (http://www.inkscape.org/) -->

<svg
   width="172.6701mm"
   height="172.6701mm"
   viewBox="0 0 172.6701 172.6701"
   version="1.1"
   id="svg1"
   xml:space="preserve"
   xmlns="http://www.w3.org/2000/svg"
   xmlns:svg="http://www.w3.org/2000/svg"><defs
     id="defs1" /><g
     id="layer1"
     transform="translate(157.25102,198.81012)"><path
       id="path5"
       style="fill:#ffffff;fill-opacity:1;stroke-width:0.805188;stroke-linecap:round;stroke-linejoin:round"
       d="M -2.0863309 -198.17657 L -10.088943 -183.11289 L -10.930235 -165.68398 L -19.198981 -165.68398 L -11.423229 -155.47426 L -12.166336 -140.07934 C -28.353216 -157.12094 -50.823548 -166.77435 -74.327399 -166.78417 C -103.64471 -166.77397 -130.92652 -151.79225 -146.66717 -127.05894 L -157.25102 -127.05894 L -149.61996 -115.86014 L -157.25102 -26.140039 L -8.5138455 -26.140039 L 15.419061 -26.140039 L 8.0799737 -154.80195 L 15.419061 -165.68398 L 7.4593397 -165.68398 L 6.4490654 -183.39297 L -2.0863309 -198.17657 z M -83.43072 -192.21621 C -85.584619 -189.65499 -86.77489 -186.4211 -86.795372 -183.07465 C -86.842092 -175.15518 -80.459903 -168.69733 -72.540428 -168.65072 C -64.621155 -168.60402 -58.163395 -174.98588 -58.116503 -182.90515 C -58.102813 -186.26049 -59.266203 -189.5144 -61.404157 -192.10045 C -60.83125 -190.6836 -60.536835 -189.16959 -60.537027 -187.64129 C -60.575787 -181.07411 -65.930869 -175.78172 -72.498054 -175.82031 C -79.065241 -175.85911 -84.357627 -181.21415 -84.319038 -187.78134 C -84.309338 -189.30285 -84.007827 -190.80837 -83.43072 -192.21621 z M -87.587572 -133.53658 L -84.199148 -126.47758 C -103.21152 -118.28909 -114.64715 -105.67697 -118.5061 -88.641134 C -113.0471 -91.276513 -107.87057 -92.594381 -102.9763 -92.594381 C -93.56423 -92.594381 -86.176119 -90.053073 -80.811241 -84.970557 C -75.352243 -79.888041 -72.622594 -73.016963 -72.622594 -64.357862 C -72.622594 -58.992984 -74.08133 -54.193137 -76.999071 -49.957707 C -79.822691 -45.722277 -83.822735 -42.427606 -88.999372 -40.074589 C -94.081888 -37.721573 -99.91735 -36.545089 -106.5058 -36.545089 C -117.70616 -36.545089 -126.31822 -39.651419 -132.34195 -45.863383 C -138.27155 -52.075347 -141.23649 -61.063579 -141.23649 -72.828662 C -141.23649 -87.605607 -136.67143 -100.17076 -127.54172 -110.52404 C -118.3179 -120.97143 -104.9999 -128.64231 -87.587572 -133.53658 z M -31.11505 -133.11335 C -20.102932 -133.11335 -11.679206 -128.97193 -5.8437243 -120.68931 C 0.085877725 -112.50081 3.0503065 -100.59459 3.0503065 -84.970557 C 3.0503065 -69.346526 0.085877725 -57.345876 -5.8437243 -48.969137 C -11.679206 -40.686518 -20.102932 -36.545089 -31.11505 -36.545089 C -42.127168 -36.545089 -50.598367 -40.686518 -56.527969 -48.969137 C -62.457571 -57.345876 -65.422 -69.346526 -65.422 -84.970557 C -65.422 -100.50047 -62.457571 -112.40669 -56.527969 -120.68931 C -50.598367 -128.97193 -42.127168 -133.11335 -31.11505 -133.11335 z M -31.11505 -125.91276 C -35.915204 -125.91276 -39.397699 -122.75999 -41.562474 -116.45391 C -43.633129 -110.14782 -44.668745 -99.653381 -44.668745 -84.970557 C -44.668745 -70.381854 -43.633129 -59.934369 -41.562474 -53.628284 C -39.397699 -47.41632 -35.915204 -44.310507 -31.11505 -44.310507 C -26.314896 -44.310507 -22.879874 -47.41632 -20.809219 -53.628284 C -18.644444 -59.934369 -17.561872 -70.381854 -17.561872 -84.970557 C -17.561872 -99.55926 -18.644444 -110.00623 -20.809219 -116.31231 C -22.879874 -122.71252 -26.314896 -125.91276 -31.11505 -125.91276 z M -106.92954 -82.711263 C -110.88261 -82.711263 -115.16491 -81.111659 -119.77682 -77.911556 L -119.77682 -76.076009 C -119.77682 -65.816857 -118.64729 -58.287361 -116.3884 -53.487207 C -114.1295 -48.687053 -110.55309 -46.286613 -105.65882 -46.286613 C -101.61163 -46.286613 -98.505818 -47.839778 -96.341043 -50.94576 C -94.176267 -54.051742 -93.093696 -58.475424 -93.093696 -64.216785 C -93.093696 -70.052266 -94.317135 -74.56986 -96.764273 -77.769963 C -99.117289 -81.064186 -102.50587 -82.711263 -106.92954 -82.711263 z " /></g></svg>
