<?xml version="1.0" encoding="UTF-8" standalone="no"?>
<!-- Created with Inkscape (http://www.inkscape.org/) -->

<svg
   width="172.6701mm"
   height="172.6701mm"
   viewBox="0 0 172.6701 172.6701"
   version="1.1"
   id="svg1"
   xml:space="preserve"
   xmlns="http://www.w3.org/2000/svg"
   xmlns:svg="http://www.w3.org/2000/svg"><defs
     id="defs1" /><g
     id="layer1"
     transform="translate(157.25102,198.81012)"><path
       id="path5"
       style="fill:#ffffff;fill-opacity:1;stroke-width:0.805188;stroke-linecap:round;stroke-linejoin:round"
       d="M -2.0863309 -198.17657 L -10.088943 -183.11289 L -10.930235 -165.68398 L -19.198981 -165.68398 L -11.423229 -155.47426 L -12.166336 -140.07934 C -28.353216 -157.12094 -50.823548 -166.77435 -74.327399 -166.78417 C -103.64471 -166.77397 -130.92652 -151.79225 -146.66717 -127.05894 L -157.25102 -127.05894 L -149.61996 -115.86014 L -157.25102 -26.140039 L -8.5138455 -26.140039 L 15.419061 -26.140039 L 8.0799737 -154.80195 L 15.419061 -165.68398 L 7.4593397 -165.68398 L 6.4490654 -183.39297 L -2.0863309 -198.17657 z M -83.43072 -192.21621 C -85.584619 -189.65499 -86.77489 -186.4211 -86.795372 -183.07465 C -86.842092 -175.15518 -80.459903 -168.69733 -72.540428 -168.65072 C -64.621155 -168.60402 -58.163395 -174.98588 -58.116503 -182.90515 C -58.102813 -186.26049 -59.266203 -189.5144 -61.404157 -192.10045 C -60.83125 -190.6836 -60.536835 -189.16959 -60.537027 -187.64129 C -60.575787 -181.07411 -65.930869 -175.78172 -72.498054 -175.82031 C -79.065241 -175.85911 -84.357627 -181.21415 -84.319038 -187.78134 C -84.309338 -189.30285 -84.007827 -190.80837 -83.43072 -192.21621 z M -123.23553 -119.56379 C -116.48992 -119.56379 -111.33119 -117.69351 -107.75998 -113.95225 C -104.1321 -110.21099 -102.31846 -104.7971 -102.31846 -97.711381 C -102.31846 -88.811721 -105.09608 -81.216258 -110.65128 -74.924142 C -116.1498 -68.688711 -124.14228 -64.09693 -134.62915 -61.149272 L -136.66985 -65.400692 C -131.00127 -67.838179 -126.43807 -70.956182 -122.98024 -74.754126 C -119.52241 -78.608756 -117.22652 -83.086732 -116.09281 -88.188448 C -119.26721 -86.601248 -122.35663 -85.807715 -125.36098 -85.807715 C -131.02955 -85.807715 -135.50804 -87.338137 -138.79582 -90.399166 C -142.0269 -93.460196 -143.64203 -97.598308 -143.64203 -102.8134 C -143.64203 -106.04448 -142.79185 -108.93539 -141.09128 -111.48625 C -139.33403 -114.03711 -136.92485 -116.0212 -133.86382 -117.43834 C -130.7461 -118.85549 -127.20353 -119.56379 -123.23553 -119.56379 z M -8.6166816 -119.13901 L -5.8106513 -117.86364 L -5.8106513 -68.716769 C -4.7336224 -68.093226 -3.0332691 -67.526269 -0.70915395 -67.016097 C 1.6149612 -66.562611 3.4571828 -66.279392 4.8176405 -66.16602 L 4.5628757 -62.084615 L -30.129064 -62.084615 L -29.959048 -66.16602 C -24.914018 -66.732877 -21.059126 -67.583054 -18.394896 -68.716769 L -18.394896 -109.44555 L -29.789033 -109.44555 L -29.789033 -114.37703 C -26.161146 -114.66046 -22.419542 -115.19935 -18.564912 -115.99295 C -14.710282 -116.84324 -11.394283 -117.89193 -8.6166816 -119.13901 z M -67.11647 -119.05375 L -62.86505 -118.969 C -56.856362 -118.85563 -53.681715 -118.79847 -53.3416 -118.79847 L -41.267919 -118.969 L -38.801919 -117.18306 L -39.567247 -110.72092 L -60.654332 -110.72092 L -61.84444 -96.521273 C -58.896782 -97.258188 -56.232964 -97.626632 -53.852163 -97.626632 C -48.240276 -97.626632 -43.677075 -96.124274 -40.16256 -93.11993 C -36.591358 -90.172272 -34.805781 -85.836165 -34.805781 -80.110905 C -34.805781 -76.539704 -35.655957 -73.336993 -37.356529 -70.502706 C -39.000416 -67.66842 -41.381014 -65.429173 -44.498729 -63.785287 C -47.616445 -62.198086 -51.300888 -61.404554 -55.552318 -61.404554 C -59.010148 -61.404554 -62.156215 -61.886286 -64.990502 -62.849943 C -67.768103 -63.813601 -69.950705 -65.14551 -71.537906 -66.846082 C -73.125106 -68.60334 -73.918639 -70.559366 -73.918639 -72.713424 C -73.918639 -74.980853 -73.295038 -76.709787 -72.047952 -77.900188 C -70.800866 -79.147274 -69.270444 -79.770358 -67.456501 -79.770358 C -66.436158 -79.770358 -65.416049 -79.572362 -64.395706 -79.175562 C -63.318677 -78.778762 -62.354696 -78.211805 -61.504409 -77.474891 C -62.014581 -76.28449 -62.269737 -75.037289 -62.269737 -73.733517 C -62.269737 -71.862888 -61.731361 -70.332466 -60.654332 -69.142066 C -59.520617 -67.951665 -57.819747 -67.356645 -55.552318 -67.356645 C -50.450602 -67.356645 -47.900072 -71.608045 -47.900072 -80.110905 C -47.900072 -84.135593 -48.693605 -87.054567 -50.280805 -88.86851 C -51.868006 -90.73914 -53.993447 -91.674541 -56.657677 -91.674541 C -58.301563 -91.674541 -60.059077 -91.36274 -61.929707 -90.739197 C -63.800336 -90.115654 -65.642557 -89.236897 -67.456501 -88.103182 L -72.133218 -92.609884 L -69.9225 -116.75776 L -67.11647 -119.05375 z M -123.74557 -113.69697 C -126.18306 -113.69697 -128.05386 -112.76157 -129.35763 -110.89094 C -130.6614 -109.02031 -131.31307 -106.35597 -131.31307 -102.89814 C -131.31307 -99.383629 -130.60476 -96.634587 -129.18762 -94.650586 C -127.71379 -92.723271 -125.64447 -91.759807 -122.98024 -91.759807 C -120.65613 -91.759807 -118.07702 -92.723271 -115.24273 -94.650586 L -115.24273 -95.755945 C -115.24273 -101.93469 -115.92298 -106.46931 -117.28343 -109.36028 C -118.64389 -112.25126 -120.79791 -113.69697 -123.74557 -113.69697 z M -87.438227 -101.28274 C -85.454226 -101.28274 -83.980449 -100.68772 -83.016791 -99.497319 C -81.996448 -98.363604 -81.486136 -96.776539 -81.486136 -94.735852 C -81.486136 -92.695166 -81.996448 -91.107584 -83.016791 -89.973869 C -83.980449 -88.840154 -85.454226 -88.273198 -87.438227 -88.273198 C -89.422228 -88.273198 -90.924585 -88.840154 -91.944929 -89.973869 C -92.908586 -91.16427 -93.390319 -92.751852 -93.390319 -94.735852 C -93.390319 -96.833225 -92.908586 -98.448354 -91.944929 -99.582068 C -90.924585 -100.71578 -89.422228 -101.28274 -87.438227 -101.28274 z M -87.438227 -74.498845 C -85.454226 -74.498845 -83.980449 -73.903824 -83.016791 -72.713424 C -81.996448 -71.579709 -81.486136 -69.992127 -81.486136 -67.951441 C -81.486136 -65.910754 -81.996448 -64.323689 -83.016791 -63.189974 C -83.980449 -62.05626 -85.454226 -61.489303 -87.438227 -61.489303 C -89.422228 -61.489303 -90.924585 -62.05626 -91.944929 -63.189974 C -92.908586 -64.380375 -93.390319 -65.96744 -93.390319 -67.951441 C -93.390319 -70.048813 -92.908586 -71.664459 -91.944929 -72.798173 C -90.924585 -73.931888 -89.422228 -74.498845 -87.438227 -74.498845 z " /></g></svg>
