<?xml version="1.0" encoding="UTF-8" standalone="no"?>
<!-- Created with Inkscape (http://www.inkscape.org/) -->

<svg
   width="172.6701mm"
   height="172.6701mm"
   viewBox="0 0 172.6701 172.6701"
   version="1.1"
   id="svg1"
   xml:space="preserve"
   xmlns="http://www.w3.org/2000/svg"
   xmlns:svg="http://www.w3.org/2000/svg"><defs
     id="defs1" /><g
     id="layer1"
     transform="translate(157.25102,198.81012)"><path
       id="path5"
       style="fill:#ffffff;fill-opacity:1;stroke-width:0.805188;stroke-linecap:round;stroke-linejoin:round"
       d="M -2.0863309 -198.17657 L -10.088943 -183.11289 L -10.930235 -165.68398 L -19.198981 -165.68398 L -11.423229 -155.47426 L -12.166336 -140.07934 C -28.353216 -157.12094 -50.823548 -166.77435 -74.327399 -166.78417 C -103.64471 -166.77397 -130.92652 -151.79225 -146.66717 -127.05894 L -157.25102 -127.05894 L -149.61996 -115.86014 L -157.25102 -26.140039 L -8.5138455 -26.140039 L 15.419061 -26.140039 L 8.0799737 -154.80195 L 15.419061 -165.68398 L 7.4593397 -165.68398 L 6.4490654 -183.39297 L -2.0863309 -198.17657 z M -83.43072 -192.21621 C -85.584619 -189.65499 -86.77489 -186.4211 -86.795372 -183.07465 C -86.842092 -175.15518 -80.459903 -168.69733 -72.540428 -168.65072 C -64.621155 -168.60402 -58.163395 -174.98588 -58.116503 -182.90515 C -58.102813 -186.26049 -59.266203 -189.5144 -61.404157 -192.10045 C -60.83125 -190.6836 -60.536835 -189.16959 -60.537027 -187.64129 C -60.575787 -181.07411 -65.930869 -175.78172 -72.498054 -175.82031 C -79.065241 -175.85911 -84.357627 -181.21415 -84.319038 -187.78134 C -84.309338 -189.30285 -84.007827 -190.80837 -83.43072 -192.21621 z M -60.696707 -119.73381 C -54.858076 -119.73381 -50.209651 -118.28861 -46.751822 -115.39764 C -43.293992 -112.56335 -41.565058 -108.56711 -41.565058 -103.40871 C -41.565058 -98.873849 -43.293992 -94.026912 -46.751822 -88.86851 C -50.209651 -83.766794 -55.906765 -77.616529 -63.842768 -70.41744 L -40.970262 -70.41744 L -40.970262 -62.084615 L -79.488325 -62.084615 L -79.488325 -67.016097 C -73.196208 -73.081471 -68.292627 -78.268272 -64.778111 -82.576388 C -61.263596 -86.884504 -58.74113 -90.852684 -57.210615 -94.480571 C -55.623414 -98.108458 -54.829881 -101.84955 -54.829881 -105.70418 C -54.829881 -111.82623 -56.870615 -114.88759 -60.951988 -114.88759 C -62.765932 -114.88759 -64.239709 -114.0369 -65.373424 -112.33633 C -66.507139 -110.69244 -67.074095 -108.65171 -67.074095 -106.21422 C -67.074095 -104.51365 -66.478558 -102.89852 -65.288158 -101.36801 C -66.251815 -100.46103 -67.357148 -99.752209 -68.604235 -99.242037 C -69.794635 -98.731866 -70.985192 -98.476709 -72.175593 -98.476709 C -74.216279 -98.476709 -75.916633 -99.10031 -77.27709 -100.3474 C -78.637548 -101.65117 -79.317792 -103.52197 -79.317792 -105.95946 C -79.317792 -108.567 -78.55284 -110.91953 -77.022325 -113.01691 C -75.49181 -115.11428 -73.337788 -116.75799 -70.560187 -117.94839 C -67.725901 -119.13879 -64.437965 -119.73381 -60.696707 -119.73381 z M -120.89717 -119.13901 L -118.09114 -117.86364 L -118.09114 -68.716769 C -117.01411 -68.093226 -115.31375 -67.526269 -112.98964 -67.016097 C -110.66552 -66.562611 -108.82279 -66.279392 -107.46233 -66.16602 L -107.71761 -62.084615 L -142.40955 -62.084615 L -142.23902 -66.16602 C -137.19399 -66.732877 -133.33961 -67.583054 -130.67538 -68.716769 L -130.67538 -109.44555 L -142.069 -109.44555 L -142.069 -114.37703 C -138.44111 -114.66046 -134.70003 -115.19935 -130.8454 -115.99295 C -126.99077 -116.84324 -123.67477 -117.89193 -120.89717 -119.13901 z M -29.321361 -119.05375 L -25.069941 -118.969 C -19.061253 -118.85563 -15.886606 -118.79847 -15.546491 -118.79847 L -3.4722928 -118.969 L -1.0068102 -117.18306 L -1.7721382 -110.72092 L -22.859223 -110.72092 L -24.049331 -96.521273 C -21.101673 -97.258188 -18.437338 -97.626632 -16.056538 -97.626632 C -10.44465 -97.626632 -5.8814495 -96.124274 -2.3669339 -93.11993 C 1.2042674 -90.172272 2.9898451 -85.836165 2.9898451 -80.110905 C 2.9898451 -76.539704 2.1391517 -73.336993 0.43857961 -70.502706 C -1.2053067 -67.66842 -3.5859047 -65.429173 -6.7036201 -63.785287 C -9.8213355 -62.198086 -13.505779 -61.404554 -17.757209 -61.404554 C -21.215039 -61.404554 -24.361106 -61.886286 -27.195393 -62.849943 C -29.972994 -63.813601 -32.155596 -65.14551 -33.742797 -66.846082 C -35.329997 -68.60334 -36.12353 -70.559366 -36.12353 -72.713424 C -36.12353 -74.980853 -35.499929 -76.709787 -34.252843 -77.900188 C -33.005757 -79.147274 -31.475335 -79.770358 -29.661392 -79.770358 C -28.641049 -79.770358 -27.620423 -79.572362 -26.60008 -79.175562 C -25.523051 -78.778762 -24.559586 -78.211805 -23.7093 -77.474891 C -24.219472 -76.28449 -24.474628 -75.037289 -24.474628 -73.733517 C -24.474628 -71.862888 -23.936252 -70.332466 -22.859223 -69.142066 C -21.725508 -67.951665 -20.024638 -67.356645 -17.757209 -67.356645 C -12.655493 -67.356645 -10.104963 -71.608045 -10.104963 -80.110905 C -10.104963 -84.135593 -10.898496 -87.054567 -12.485696 -88.86851 C -14.072897 -90.73914 -16.198338 -91.674541 -18.862568 -91.674541 C -20.506454 -91.674541 -22.263968 -91.36274 -24.134597 -90.739197 C -26.005227 -90.115654 -27.847448 -89.236897 -29.661392 -88.103182 L -34.338109 -92.609884 L -32.127391 -116.75776 L -29.321361 -119.05375 z M -92.752631 -101.28274 C -90.768631 -101.28274 -89.294853 -100.68772 -88.331196 -99.497319 C -87.310853 -98.363604 -86.80054 -96.776539 -86.80054 -94.735852 C -86.80054 -92.695166 -87.310853 -91.107584 -88.331196 -89.973869 C -89.294853 -88.840154 -90.768631 -88.273198 -92.752631 -88.273198 C -94.736632 -88.273198 -96.23899 -88.840154 -97.259333 -89.973869 C -98.22299 -91.16427 -98.704723 -92.751852 -98.704723 -94.735852 C -98.704723 -96.833225 -98.22299 -98.448354 -97.259333 -99.582068 C -96.23899 -100.71578 -94.736632 -101.28274 -92.752631 -101.28274 z M -92.752631 -74.498845 C -90.768631 -74.498845 -89.294853 -73.903824 -88.331196 -72.713424 C -87.310853 -71.579709 -86.80054 -69.992127 -86.80054 -67.951441 C -86.80054 -65.910754 -87.310853 -64.323689 -88.331196 -63.189974 C -89.294853 -62.05626 -90.768631 -61.489303 -92.752631 -61.489303 C -94.736632 -61.489303 -96.23899 -62.05626 -97.259333 -63.189974 C -98.22299 -64.380375 -98.704723 -65.96744 -98.704723 -67.951441 C -98.704723 -70.048813 -98.22299 -71.664459 -97.259333 -72.798173 C -96.23899 -73.931888 -94.736632 -74.498845 -92.752631 -74.498845 z " /></g></svg>
