<?xml version="1.0" encoding="UTF-8" standalone="no"?>
<!-- Created with Inkscape (http://www.inkscape.org/) -->

<svg
   width="172.6701mm"
   height="172.6701mm"
   viewBox="0 0 172.6701 172.6701"
   version="1.1"
   id="svg1"
   xml:space="preserve"
   xmlns="http://www.w3.org/2000/svg"
   xmlns:svg="http://www.w3.org/2000/svg"><defs
     id="defs1" /><g
     id="layer1"
     transform="translate(157.25102,198.81012)"><path
       id="path5"
       style="fill:#ffffff;fill-opacity:1;stroke-width:0.805188;stroke-linecap:round;stroke-linejoin:round"
       d="M -2.0863309 -198.17657 L -10.088943 -183.11289 L -10.930235 -165.68398 L -19.198981 -165.68398 L -11.423229 -155.47426 L -12.166336 -140.07934 C -28.353216 -157.12094 -50.823548 -166.77435 -74.327399 -166.78417 C -103.64471 -166.77397 -130.92652 -151.79225 -146.66717 -127.05894 L -157.25102 -127.05894 L -149.61996 -115.86014 L -157.25102 -26.140039 L -8.5138455 -26.140039 L 15.419061 -26.140039 L 8.0799737 -154.80195 L 15.419061 -165.68398 L 7.4593397 -165.68398 L 6.4490654 -183.39297 L -2.0863309 -198.17657 z M -83.43072 -192.21621 C -85.584619 -189.65499 -86.77489 -186.4211 -86.795372 -183.07465 C -86.842092 -175.15518 -80.459903 -168.69733 -72.540428 -168.65072 C -64.621155 -168.60402 -58.163395 -174.98588 -58.116503 -182.90515 C -58.102813 -186.26049 -59.266203 -189.5144 -61.404157 -192.10045 C -60.83125 -190.6836 -60.536835 -189.16959 -60.537027 -187.64129 C -60.575787 -181.07411 -65.930869 -175.78172 -72.498054 -175.82031 C -79.065241 -175.85911 -84.357627 -181.21415 -84.319038 -187.78134 C -84.309338 -189.30285 -84.007827 -190.80837 -83.43072 -192.21621 z M -2.6645901 -119.90383 L -0.62388784 -115.65241 C -12.074406 -110.72075 -18.962077 -103.12528 -21.286193 -92.865166 C -17.99842 -94.452366 -14.880417 -95.245899 -11.932758 -95.245899 C -6.2641848 -95.245899 -1.8142724 -93.715477 1.4168145 -90.654448 C 4.7045871 -87.593418 6.3482964 -83.455306 6.3482964 -78.240218 C 6.3482964 -75.009132 5.4695394 -72.118221 3.7122816 -69.567363 C 2.0117095 -67.016505 -0.3974688 -65.032415 -3.5151842 -63.615271 C -6.5762139 -62.198128 -10.090725 -61.489303 -14.058727 -61.489303 C -20.804329 -61.489303 -25.99113 -63.360105 -29.619017 -67.101363 C -33.190219 -70.842622 -34.975796 -76.255999 -34.975796 -83.341716 C -34.975796 -92.241376 -32.226237 -99.808775 -26.727721 -106.04421 C -21.172519 -112.33632 -13.151451 -116.95617 -2.6645901 -119.90383 z M -126.72162 -119.73381 C -123.03704 -119.73381 -119.77769 -119.11073 -116.9434 -117.86364 C -114.10912 -116.67324 -111.89793 -114.97237 -110.31073 -112.76163 C -108.72353 -110.60757 -107.93 -108.11368 -107.93 -105.27939 C -107.93 -102.10499 -108.8654 -99.384015 -110.73603 -97.116586 C -112.60666 -94.849156 -115.38428 -93.120223 -119.06885 -91.929822 C -114.42062 -90.909479 -111.16127 -89.237189 -109.29064 -86.913074 C -107.42001 -84.588959 -106.48461 -81.442892 -106.48461 -77.474891 C -106.48461 -74.017061 -107.5333 -71.069506 -109.63067 -68.632019 C -111.67136 -66.194533 -114.33569 -64.380375 -117.62346 -63.189974 C -120.91124 -61.999574 -124.31246 -61.404554 -127.82698 -61.404554 C -132.92869 -61.404554 -137.2648 -62.453243 -140.836 -64.550615 C -144.35052 -66.647987 -146.10803 -69.510317 -146.10803 -73.138204 C -146.10803 -75.235577 -145.48443 -76.851222 -144.23734 -77.984937 C -142.99026 -79.175337 -141.43126 -79.770358 -139.56063 -79.770358 C -137.63331 -79.770358 -135.6778 -79.005405 -133.6938 -77.474891 C -134.20397 -76.397862 -134.45913 -75.094016 -134.45913 -73.563501 C -134.45913 -71.749558 -133.92075 -70.275781 -132.84372 -69.142066 C -131.71001 -68.008351 -130.03772 -67.441394 -127.82698 -67.441394 C -122.952 -67.441394 -120.51424 -70.814037 -120.51424 -77.55964 C -120.51424 -81.244213 -121.7048 -84.10706 -124.0856 -86.147746 C -126.40972 -88.188433 -129.72572 -89.208541 -134.03383 -89.208541 L -134.03383 -94.480571 C -125.70103 -95.1608 -121.53485 -98.760535 -121.53485 -105.27939 C -121.53485 -108.56717 -122.04465 -110.97583 -123.06499 -112.50634 C -124.08534 -114.09354 -125.47441 -114.88759 -127.23166 -114.88759 C -129.32904 -114.88759 -130.9161 -114.15071 -131.99313 -112.67688 C -133.01347 -111.20305 -133.52379 -109.41747 -133.52379 -107.3201 C -133.52379 -105.44947 -133.12676 -103.77718 -132.33316 -102.30335 C -133.92036 -100.60278 -135.9611 -99.752084 -138.45527 -99.752084 C -140.7227 -99.752084 -142.48021 -100.43233 -143.7273 -101.79279 C -144.97438 -103.15324 -145.59798 -104.91076 -145.59798 -107.06482 C -145.59798 -109.8991 -144.634 -112.25164 -142.70669 -114.12227 C -140.72269 -116.04958 -138.28545 -117.46671 -135.39447 -118.37369 C -132.44681 -119.28066 -129.5559 -119.73381 -126.72162 -119.73381 z M -59.718989 -119.73381 C -56.034416 -119.73381 -52.775061 -119.11073 -49.940774 -117.86364 C -47.106487 -116.67324 -44.895821 -114.97237 -43.308621 -112.76163 C -41.72142 -110.60757 -40.927371 -108.11368 -40.927371 -105.27939 C -40.927371 -102.10499 -41.862772 -99.384015 -43.733401 -97.116586 C -45.60403 -94.849156 -48.381653 -93.120223 -52.066226 -91.929822 C -47.417996 -90.909479 -44.158641 -89.237189 -42.288011 -86.913074 C -40.417382 -84.588959 -39.481981 -81.442892 -39.481981 -77.474891 C -39.481981 -74.017061 -40.53067 -71.069506 -42.628042 -68.632019 C -44.668729 -66.194533 -47.333063 -64.380375 -50.620836 -63.189974 C -53.908609 -61.999574 -57.309832 -61.404554 -60.824348 -61.404554 C -65.926064 -61.404554 -70.262688 -62.453243 -73.833889 -64.550615 C -77.348405 -66.647987 -79.105402 -69.510317 -79.105402 -73.138204 C -79.105402 -75.235577 -78.481802 -76.851222 -77.234715 -77.984937 C -75.987629 -79.175337 -74.428628 -79.770358 -72.557998 -79.770358 C -70.630683 -79.770358 -68.675174 -79.005405 -66.691173 -77.474891 C -67.201345 -76.397862 -67.456501 -75.094016 -67.456501 -73.563501 C -67.456501 -71.749558 -66.918125 -70.275781 -65.841096 -69.142066 C -64.707381 -68.008351 -63.035091 -67.441394 -60.824348 -67.441394 C -55.949374 -67.441394 -53.511616 -70.814037 -53.511616 -77.55964 C -53.511616 -81.244213 -54.702173 -84.10706 -57.082974 -86.147746 C -59.407089 -88.188433 -62.723088 -89.208541 -67.031204 -89.208541 L -67.031204 -94.480571 C -58.698401 -95.1608 -54.532225 -98.760535 -54.532225 -105.27939 C -54.532225 -108.56717 -55.042538 -110.97583 -56.062881 -112.50634 C -57.083224 -114.09354 -58.471777 -114.88759 -60.229035 -114.88759 C -62.326407 -114.88759 -63.913473 -114.15071 -64.990502 -112.67688 C -66.010845 -111.20305 -66.521158 -109.41747 -66.521158 -107.3201 C -66.521158 -105.44947 -66.12465 -103.77718 -65.331049 -102.30335 C -66.91825 -100.60278 -68.958467 -99.752084 -71.452639 -99.752084 C -73.720069 -99.752084 -75.477583 -100.43233 -76.724669 -101.79279 C -77.971755 -103.15324 -78.595356 -104.91076 -78.595356 -107.06482 C -78.595356 -109.8991 -77.631375 -112.25164 -75.70406 -114.12227 C -73.720059 -116.04958 -71.282817 -117.46671 -68.391844 -118.37369 C -65.444186 -119.28066 -62.553276 -119.73381 -59.718989 -119.73381 z M -91.434882 -101.28274 C -89.450882 -101.28274 -87.976587 -100.68772 -87.01293 -99.497319 C -85.992587 -98.363604 -85.482791 -96.776539 -85.482791 -94.735852 C -85.482791 -92.695166 -85.992587 -91.107584 -87.01293 -89.973869 C -87.976587 -88.840154 -89.450882 -88.273198 -91.434882 -88.273198 C -93.418883 -88.273198 -94.920724 -88.840154 -95.941067 -89.973869 C -96.904725 -91.16427 -97.386457 -92.751852 -97.386457 -94.735852 C -97.386457 -96.833225 -96.904725 -98.448354 -95.941067 -99.582068 C -94.920724 -100.71578 -93.418883 -101.28274 -91.434882 -101.28274 z M -14.313492 -89.293807 C -16.694292 -89.293807 -19.273919 -88.330343 -22.05152 -86.403028 L -22.05152 -85.297669 C -22.05152 -79.118924 -21.371276 -74.583787 -20.010818 -71.692814 C -18.650361 -68.801842 -16.496339 -67.356645 -13.54868 -67.356645 C -11.111194 -67.356645 -9.2403917 -68.291529 -7.9366198 -70.162159 C -6.6328479 -72.032788 -5.9806668 -74.697123 -5.9806668 -78.154952 C -5.9806668 -81.669468 -6.7175555 -84.390447 -8.1913846 -86.317762 C -9.608528 -88.301762 -11.649262 -89.293807 -14.313492 -89.293807 z M -91.434882 -74.498845 C -89.450882 -74.498845 -87.976587 -73.903824 -87.01293 -72.713424 C -85.992587 -71.579709 -85.482791 -69.992127 -85.482791 -67.951441 C -85.482791 -65.910754 -85.992587 -64.323689 -87.01293 -63.189974 C -87.976587 -62.05626 -89.450882 -61.489303 -91.434882 -61.489303 C -93.418883 -61.489303 -94.920724 -62.05626 -95.941067 -63.189974 C -96.904725 -64.380375 -97.386457 -65.96744 -97.386457 -67.951441 C -97.386457 -70.048813 -96.904725 -71.664459 -95.941067 -72.798173 C -94.920724 -73.931888 -93.418883 -74.498845 -91.434882 -74.498845 z " /></g></svg>
