<?xml version="1.0" encoding="UTF-8" standalone="no"?>
<!-- Created with Inkscape (http://www.inkscape.org/) -->

<svg
   width="172.6701mm"
   height="172.6701mm"
   viewBox="0 0 172.6701 172.6701"
   version="1.1"
   id="svg1"
   xml:space="preserve"
   xmlns="http://www.w3.org/2000/svg"
   xmlns:svg="http://www.w3.org/2000/svg"><defs
     id="defs1" /><g
     id="layer1"
     transform="translate(157.25102,198.81012)"><path
       id="path5"
       style="fill:#ffffff;fill-opacity:1;stroke-width:0.805188;stroke-linecap:round;stroke-linejoin:round"
       d="M -2.0863309 -198.17657 L -10.088943 -183.11289 L -10.930235 -165.68398 L -19.198981 -165.68398 L -11.423229 -155.47426 L -12.166336 -140.07934 C -28.353216 -157.12094 -50.823548 -166.77435 -74.327399 -166.78417 C -103.64471 -166.77397 -130.92652 -151.79225 -146.66717 -127.05894 L -157.25102 -127.05894 L -149.61996 -115.86014 L -157.25102 -26.140039 L -8.5138455 -26.140039 L 15.419061 -26.140039 L 8.0799737 -154.80195 L 15.419061 -165.68398 L 7.4593397 -165.68398 L 6.4490654 -183.39297 L -2.0863309 -198.17657 z M -83.43072 -192.21621 C -85.584619 -189.65499 -86.77489 -186.4211 -86.795372 -183.07465 C -86.842092 -175.15518 -80.459903 -168.69733 -72.540428 -168.65072 C -64.621155 -168.60402 -58.163395 -174.98588 -58.116503 -182.90515 C -58.102813 -186.26049 -59.266203 -189.5144 -61.404157 -192.10045 C -60.83125 -190.6836 -60.536835 -189.16959 -60.537027 -187.64129 C -60.575787 -181.07411 -65.930869 -175.78172 -72.498054 -175.82031 C -79.065241 -175.85911 -84.357627 -181.21415 -84.319038 -187.78134 C -84.309338 -189.30285 -84.007827 -190.80837 -83.43072 -192.21621 z M -94.310676 -148.60388 L -86.034695 -148.438 C -74.337807 -148.2173 -68.15838 -148.10727 -67.496292 -148.10727 L -43.991783 -148.438 L -39.192076 -144.96224 L -40.681391 -132.38265 L -81.731082 -132.38265 L -84.048253 -104.74041 C -78.310157 -106.17493 -73.123612 -106.89222 -68.488996 -106.89222 C -57.564544 -106.89222 -48.681553 -103.96807 -41.839977 -98.119625 C -34.888053 -92.381529 -31.412189 -83.939704 -31.412189 -72.794556 C -31.412189 -65.842632 -33.067338 -59.608188 -36.377778 -54.090788 C -39.57787 -48.573388 -44.212699 -44.214676 -50.281839 -41.014584 C -56.350979 -37.92484 -63.523805 -36.379724 -71.799905 -36.379724 C -78.531133 -36.379724 -84.655027 -37.31759 -90.172427 -39.193506 C -95.579479 -41.069422 -99.828158 -43.662953 -102.9179 -46.973393 C -106.00765 -50.394181 -107.55224 -54.201177 -107.55224 -58.394401 C -107.55224 -62.808321 -106.33878 -66.173635 -103.91112 -68.490943 C -101.48347 -70.918599 -98.503787 -72.132581 -94.972651 -72.132581 C -92.986387 -72.132581 -91.000105 -71.746431 -89.013841 -70.973995 C -86.917229 -70.201559 -85.041498 -69.098127 -83.386278 -67.663603 C -84.37941 -65.346295 -84.87611 -62.918331 -84.87611 -60.380327 C -84.87611 -56.738843 -83.827694 -53.759679 -81.731082 -51.442371 C -79.524122 -49.125063 -76.213825 -47.966097 -71.799905 -47.966097 C -61.868585 -47.966097 -56.902623 -56.242356 -56.902623 -72.794556 C -56.902623 -80.629264 -58.447738 -86.312509 -61.537482 -89.843645 C -64.627226 -93.485129 -68.765356 -95.305843 -73.951712 -95.305843 C -77.151804 -95.305843 -80.572134 -94.698594 -84.213618 -93.484766 C -87.855102 -92.270938 -91.441515 -90.560773 -94.972651 -88.353813 L -104.07649 -97.126404 L -99.772875 -144.13439 L -94.310676 -148.60388 z " /></g></svg>
