<?xml version="1.0" encoding="UTF-8" standalone="no"?>
<!-- Created with Inkscape (http://www.inkscape.org/) -->

<svg
   width="172.6701mm"
   height="172.6701mm"
   viewBox="0 0 172.6701 172.6701"
   version="1.1"
   id="svg1"
   xml:space="preserve"
   xmlns="http://www.w3.org/2000/svg"
   xmlns:svg="http://www.w3.org/2000/svg"><defs
     id="defs1" /><g
     id="layer1"
     transform="translate(157.25102,198.81012)"><path
       id="path5"
       style="fill:#ffffff;fill-opacity:1;stroke-width:0.805188;stroke-linecap:round;stroke-linejoin:round"
       d="M -2.0863309 -198.17657 L -10.088943 -183.11289 L -10.930235 -165.68398 L -19.198981 -165.68398 L -11.423229 -155.47426 L -12.166336 -140.07934 C -28.353216 -157.12094 -50.823548 -166.77435 -74.327399 -166.78417 C -103.64471 -166.77397 -130.92652 -151.79225 -146.66717 -127.05894 L -157.25102 -127.05894 L -149.61996 -115.86014 L -157.25102 -26.140039 L -8.5138455 -26.140039 L 15.419061 -26.140039 L 8.0799737 -154.80195 L 15.419061 -165.68398 L 7.4593397 -165.68398 L 6.4490654 -183.39297 L -2.0863309 -198.17657 z M -83.43072 -192.21621 C -85.584619 -189.65499 -86.77489 -186.4211 -86.795372 -183.07465 C -86.842092 -175.15518 -80.459903 -168.69733 -72.540428 -168.65072 C -64.621155 -168.60402 -58.163395 -174.98588 -58.116503 -182.90515 C -58.102813 -186.26049 -59.266203 -189.5144 -61.404157 -192.10045 C -60.83125 -190.6836 -60.536835 -189.16959 -60.537027 -187.64129 C -60.575787 -181.07411 -65.930869 -175.78172 -72.498054 -175.82031 C -79.065241 -175.85911 -84.357627 -181.21415 -84.319038 -187.78134 C -84.309338 -189.30285 -84.007827 -190.80837 -83.43072 -192.21621 z M -16.86424 -119.73381 C -13.179667 -119.73381 -9.9203124 -119.11073 -7.0860257 -117.86364 C -4.2517389 -116.67324 -2.041073 -114.97237 -0.45387238 -112.76163 C 1.1333282 -110.60757 1.9268609 -108.11368 1.9268609 -105.27939 C 1.9268609 -102.10499 0.99145984 -99.384015 -0.87916941 -97.116586 C -2.7497987 -94.849156 -5.5274213 -93.120223 -9.2119941 -91.929822 C -4.5637638 -90.909479 -1.3044089 -89.237189 0.5662204 -86.913074 C 2.4368497 -84.588959 3.3722507 -81.442892 3.3722507 -77.474891 C 3.3722507 -74.017061 2.3235617 -71.069506 0.22618947 -68.632019 C -1.814497 -66.194533 -4.4788317 -64.380375 -7.7666043 -63.189974 C -11.054377 -61.999574 -14.455084 -61.404554 -17.969599 -61.404554 C -23.071315 -61.404554 -27.40794 -62.453243 -30.979141 -64.550615 C -34.493657 -66.647987 -36.251171 -69.510317 -36.251171 -73.138204 C -36.251171 -75.235577 -35.62757 -76.851222 -34.380484 -77.984937 C -33.133398 -79.175337 -31.574396 -79.770358 -29.703767 -79.770358 C -27.776452 -79.770358 -25.820942 -79.005405 -23.836941 -77.474891 C -24.347113 -76.397862 -24.602269 -75.094016 -24.602269 -73.563501 C -24.602269 -71.749558 -24.063376 -70.275781 -22.986347 -69.142066 C -21.852632 -68.008351 -20.180343 -67.441394 -17.969599 -67.441394 C -13.094626 -67.441394 -10.657384 -70.814037 -10.657384 -77.55964 C -10.657384 -81.244213 -11.847941 -84.10706 -14.228742 -86.147746 C -16.552857 -88.188433 -19.868856 -89.208541 -24.176972 -89.208541 L -24.176972 -94.480571 C -15.844169 -95.1608 -11.677477 -98.760535 -11.677477 -105.27939 C -11.677477 -108.56717 -12.187789 -110.97583 -13.208133 -112.50634 C -14.228476 -114.09354 -15.617546 -114.88759 -17.374803 -114.88759 C -19.472176 -114.88759 -21.059241 -114.15071 -22.13627 -112.67688 C -23.156613 -111.20305 -23.666926 -109.41747 -23.666926 -107.3201 C -23.666926 -105.44947 -23.269901 -103.77718 -22.476301 -102.30335 C -24.063501 -100.60278 -26.104235 -99.752084 -28.598408 -99.752084 C -30.865837 -99.752084 -32.622834 -100.43233 -33.869921 -101.79279 C -35.117007 -103.15324 -35.740607 -104.91076 -35.740607 -107.06482 C -35.740607 -109.8991 -34.777143 -112.25164 -32.849828 -114.12227 C -30.865827 -116.04958 -28.428585 -117.46671 -25.537613 -118.37369 C -22.589954 -119.28066 -19.698527 -119.73381 -16.86424 -119.73381 z M -52.91682 -119.13901 L -50.11079 -117.86364 L -50.11079 -68.716769 C -49.033761 -68.093226 -47.332891 -67.526269 -45.008776 -67.016097 C -42.68466 -66.562611 -40.842439 -66.279392 -39.481981 -66.16602 L -39.737263 -62.084615 L -74.428685 -62.084615 L -74.25867 -66.16602 C -69.213639 -66.732877 -65.359264 -67.583054 -62.695034 -68.716769 L -62.695034 -109.44555 L -74.088654 -109.44555 L -74.088654 -114.37703 C -70.460767 -114.66046 -66.71968 -115.19935 -62.86505 -115.99295 C -59.01042 -116.84324 -55.694421 -117.89193 -52.91682 -119.13901 z M -135.22446 -119.05375 L -130.97304 -118.969 C -124.96435 -118.85563 -121.7897 -118.79847 -121.44959 -118.79847 L -109.37591 -118.969 L -106.90991 -117.18306 L -107.67523 -110.72092 L -128.76232 -110.72092 L -129.95243 -96.521273 C -127.00477 -97.258188 -124.34095 -97.626632 -121.96015 -97.626632 C -116.34826 -97.626632 -111.78506 -96.124274 -108.27055 -93.11993 C -104.69935 -90.172272 -102.91325 -85.836165 -102.91325 -80.110905 C -102.91325 -76.539704 -103.76394 -73.336993 -105.46452 -70.502706 C -107.1084 -67.66842 -109.489 -65.429173 -112.60672 -63.785287 C -115.72443 -62.198086 -119.40888 -61.404554 -123.66031 -61.404554 C -127.11814 -61.404554 -130.2642 -61.886286 -133.09849 -62.849943 C -135.87609 -63.813601 -138.05869 -65.14551 -139.64589 -66.846082 C -141.23309 -68.60334 -142.02663 -70.559366 -142.02663 -72.713424 C -142.02663 -74.980853 -141.40303 -76.709787 -140.15594 -77.900188 C -138.90885 -79.147274 -137.37843 -79.770358 -135.56449 -79.770358 C -134.54415 -79.770358 -133.52404 -79.572362 -132.50369 -79.175562 C -131.42666 -78.778762 -130.46268 -78.211805 -129.6124 -77.474891 C -130.12257 -76.28449 -130.37772 -75.037289 -130.37772 -73.733517 C -130.37772 -71.862888 -129.83935 -70.332466 -128.76232 -69.142066 C -127.6286 -67.951665 -125.92773 -67.356645 -123.66031 -67.356645 C -118.55859 -67.356645 -116.00806 -71.608045 -116.00806 -80.110905 C -116.00806 -84.135593 -116.80159 -87.054567 -118.38879 -88.86851 C -119.97599 -90.73914 -122.10143 -91.674541 -124.76566 -91.674541 C -126.40955 -91.674541 -128.16706 -91.36274 -130.03769 -90.739197 C -131.90832 -90.115654 -133.75054 -89.236897 -135.56449 -88.103182 L -140.24121 -92.609884 L -138.03049 -116.75776 L -135.22446 -119.05375 z M -87.523493 -101.28274 C -85.539492 -101.28274 -84.065198 -100.68772 -83.101541 -99.497319 C -82.081198 -98.363604 -81.571402 -96.776539 -81.571402 -94.735852 C -81.571402 -92.695166 -82.081198 -91.107584 -83.101541 -89.973869 C -84.065198 -88.840154 -85.539492 -88.273198 -87.523493 -88.273198 C -89.507494 -88.273198 -91.009335 -88.840154 -92.029678 -89.973869 C -92.993336 -91.16427 -93.475068 -92.751852 -93.475068 -94.735852 C -93.475068 -96.833225 -92.993336 -98.448354 -92.029678 -99.582068 C -91.009335 -100.71578 -89.507494 -101.28274 -87.523493 -101.28274 z M -87.523493 -74.498845 C -85.539492 -74.498845 -84.065198 -73.903824 -83.101541 -72.713424 C -82.081198 -71.579709 -81.571402 -69.992127 -81.571402 -67.951441 C -81.571402 -65.910754 -82.081198 -64.323689 -83.101541 -63.189974 C -84.065198 -62.05626 -85.539492 -61.489303 -87.523493 -61.489303 C -89.507494 -61.489303 -91.009335 -62.05626 -92.029678 -63.189974 C -92.993336 -64.380375 -93.475068 -65.96744 -93.475068 -67.951441 C -93.475068 -70.048813 -92.993336 -71.664459 -92.029678 -72.798173 C -91.009335 -73.931888 -89.507494 -74.498845 -87.523493 -74.498845 z " /></g></svg>
