<?xml version="1.0" encoding="UTF-8" standalone="no"?>
<!-- Created with Inkscape (http://www.inkscape.org/) -->

<svg
   width="172.6701mm"
   height="172.6701mm"
   viewBox="0 0 172.6701 172.6701"
   version="1.1"
   id="svg1"
   xml:space="preserve"
   xmlns="http://www.w3.org/2000/svg"
   xmlns:svg="http://www.w3.org/2000/svg"><defs
     id="defs1" /><g
     id="layer1"
     transform="translate(157.25102,198.81012)"><path
       id="path5"
       style="fill:#ffffff;fill-opacity:1;stroke-width:0.805188;stroke-linecap:round;stroke-linejoin:round"
       d="M -2.0863309 -198.17657 L -10.088943 -183.11289 L -10.930235 -165.68398 L -19.198981 -165.68398 L -11.423229 -155.47426 L -12.166336 -140.07934 C -28.353216 -157.12094 -50.823548 -166.77435 -74.327399 -166.78417 C -103.64471 -166.77397 -130.92652 -151.79225 -146.66717 -127.05894 L -157.25102 -127.05894 L -149.61996 -115.86014 L -157.25102 -26.140039 L -8.5138455 -26.140039 L 15.419061 -26.140039 L 8.0799737 -154.80195 L 15.419061 -165.68398 L 7.4593397 -165.68398 L 6.4490654 -183.39297 L -2.0863309 -198.17657 z M -83.43072 -192.21621 C -85.584619 -189.65499 -86.77489 -186.4211 -86.795372 -183.07465 C -86.842092 -175.15518 -80.459903 -168.69733 -72.540428 -168.65072 C -64.621155 -168.60402 -58.163395 -174.98588 -58.116503 -182.90515 C -58.102813 -186.26049 -59.266203 -189.5144 -61.404157 -192.10045 C -60.83125 -190.6836 -60.536835 -189.16959 -60.537027 -187.64129 C -60.575787 -181.07411 -65.930869 -175.78172 -72.498054 -175.82031 C -79.065241 -175.85911 -84.357627 -181.21415 -84.319038 -187.78134 C -84.309338 -189.30285 -84.007827 -190.80837 -83.43072 -192.21621 z M -16.269444 -119.56379 C -9.523842 -119.56379 -4.3651046 -117.69351 -0.7939033 -113.95225 C 2.8339837 -110.21099 4.647625 -104.7971 4.647625 -97.711381 C 4.647625 -88.811721 1.8700023 -81.216258 -3.6851997 -74.924142 C -9.183716 -68.688711 -17.176203 -64.09693 -27.663064 -61.149272 L -29.703767 -65.400692 C -24.035193 -67.838179 -19.471993 -70.956182 -16.014163 -74.754126 C -12.556333 -78.608756 -10.260443 -83.086732 -9.126728 -88.188448 C -12.301129 -86.601248 -15.390552 -85.807715 -18.394896 -85.807715 C -24.06347 -85.807715 -28.541962 -87.338137 -31.829735 -90.399166 C -35.060822 -93.460196 -36.675951 -97.598308 -36.675951 -102.8134 C -36.675951 -106.04448 -35.825774 -108.93539 -34.125202 -111.48625 C -32.367944 -114.03711 -29.958766 -116.0212 -26.897736 -117.43834 C -23.780021 -118.85549 -20.237446 -119.56379 -16.269444 -119.56379 z M -122.0449 -119.13901 L -119.23887 -117.86364 L -119.23887 -68.716769 C -118.16184 -68.093226 -116.46149 -67.526269 -114.13737 -67.016097 C -111.81326 -66.562611 -109.97104 -66.279392 -108.61058 -66.16602 L -108.86534 -62.084615 L -143.55728 -62.084615 L -143.38727 -66.16602 C -138.34224 -66.732877 -134.48734 -67.583054 -131.82311 -68.716769 L -131.82311 -109.44555 L -143.21725 -109.44555 L -143.21725 -114.37703 C -139.58936 -114.66046 -135.84776 -115.19935 -131.99313 -115.99295 C -128.1385 -116.84324 -124.8225 -117.89193 -122.0449 -119.13901 z M -73.578608 -119.05375 L -69.327188 -118.969 C -63.3185 -118.85563 -60.143853 -118.79847 -59.803738 -118.79847 L -47.730056 -118.969 L -45.264057 -117.18306 L -46.029385 -110.72092 L -67.11647 -110.72092 L -68.306578 -96.521273 C -65.35892 -97.258188 -62.695102 -97.626632 -60.314301 -97.626632 C -54.702413 -97.626632 -50.139213 -96.124274 -46.624698 -93.11993 C -43.053496 -90.172272 -41.267919 -85.836165 -41.267919 -80.110905 C -41.267919 -76.539704 -42.118095 -73.336993 -43.818667 -70.502706 C -45.462554 -67.66842 -47.843152 -65.429173 -50.960867 -63.785287 C -54.078582 -62.198086 -57.763026 -61.404554 -62.014456 -61.404554 C -65.472286 -61.404554 -68.618353 -61.886286 -71.452639 -62.849943 C -74.23024 -63.813601 -76.412843 -65.14551 -78.000043 -66.846082 C -79.587244 -68.60334 -80.380777 -70.559366 -80.380777 -72.713424 C -80.380777 -74.980853 -79.757176 -76.709787 -78.51009 -77.900188 C -77.263004 -79.147274 -75.732582 -79.770358 -73.918639 -79.770358 C -72.898296 -79.770358 -71.878187 -79.572362 -70.857844 -79.175562 C -69.780815 -78.778762 -68.816833 -78.211805 -67.966547 -77.474891 C -68.476719 -76.28449 -68.731875 -75.037289 -68.731875 -73.733517 C -68.731875 -71.862888 -68.193499 -70.332466 -67.11647 -69.142066 C -65.982755 -67.951665 -64.281885 -67.356645 -62.014456 -67.356645 C -56.91274 -67.356645 -54.36221 -71.608045 -54.36221 -80.110905 C -54.36221 -84.135593 -55.155742 -87.054567 -56.742943 -88.86851 C -58.330144 -90.73914 -60.456102 -91.674541 -63.120332 -91.674541 C -64.764218 -91.674541 -66.521215 -91.36274 -68.391844 -90.739197 C -70.262474 -90.115654 -72.104695 -89.236897 -73.918639 -88.103182 L -78.595356 -92.609884 L -76.384638 -116.75776 L -73.578608 -119.05375 z M -16.779491 -113.69697 C -19.216977 -113.69697 -21.08778 -112.76157 -22.391551 -110.89094 C -23.695323 -109.02031 -24.346988 -106.35597 -24.346988 -102.89814 C -24.346988 -99.383629 -23.638679 -96.634587 -22.221536 -94.650586 C -20.747707 -92.723271 -18.678392 -91.759807 -16.014163 -91.759807 C -13.690048 -91.759807 -11.110937 -92.723271 -8.2766507 -94.650586 L -8.2766507 -95.755945 C -8.2766507 -101.93469 -8.9568954 -106.46931 -10.317353 -109.36028 C -11.677811 -112.25126 -13.831833 -113.69697 -16.779491 -113.69697 z M -93.900365 -101.28274 C -91.916364 -101.28274 -90.442587 -100.68772 -89.478929 -99.497319 C -88.458586 -98.363604 -87.948273 -96.776539 -87.948273 -94.735852 C -87.948273 -92.695166 -88.458586 -91.107584 -89.478929 -89.973869 C -90.442587 -88.840154 -91.916364 -88.273198 -93.900365 -88.273198 C -95.884366 -88.273198 -97.386723 -88.840154 -98.407067 -89.973869 C -99.370724 -91.16427 -99.852456 -92.751852 -99.852456 -94.735852 C -99.852456 -96.833225 -99.370724 -98.448354 -98.407067 -99.582068 C -97.386723 -100.71578 -95.884366 -101.28274 -93.900365 -101.28274 z M -93.900365 -74.498845 C -91.916364 -74.498845 -90.442587 -73.903824 -89.478929 -72.713424 C -88.458586 -71.579709 -87.948273 -69.992127 -87.948273 -67.951441 C -87.948273 -65.910754 -88.458586 -64.323689 -89.478929 -63.189974 C -90.442587 -62.05626 -91.916364 -61.489303 -93.900365 -61.489303 C -95.884366 -61.489303 -97.386723 -62.05626 -98.407067 -63.189974 C -99.370724 -64.380375 -99.852456 -65.96744 -99.852456 -67.951441 C -99.852456 -70.048813 -99.370724 -71.664459 -98.407067 -72.798173 C -97.386723 -73.931888 -95.884366 -74.498845 -93.900365 -74.498845 z " /></g></svg>
