<?xml version="1.0" encoding="UTF-8" standalone="no"?>
<!-- Created with Inkscape (http://www.inkscape.org/) -->

<svg
   width="172.6701mm"
   height="172.6701mm"
   viewBox="0 0 172.6701 172.6701"
   version="1.1"
   id="svg1"
   xml:space="preserve"
   xmlns="http://www.w3.org/2000/svg"
   xmlns:svg="http://www.w3.org/2000/svg"><defs
     id="defs1" /><g
     id="layer1"
     transform="translate(157.25102,198.81012)"><path
       id="path5"
       style="fill:#ffffff;fill-opacity:1;stroke-width:0.805188;stroke-linecap:round;stroke-linejoin:round"
       d="M -2.0863309 -198.17657 L -10.088943 -183.11289 L -10.930235 -165.68398 L -19.198981 -165.68398 L -11.423229 -155.47426 L -12.166336 -140.07934 C -28.353216 -157.12094 -50.823548 -166.77435 -74.327399 -166.78417 C -103.64471 -166.77397 -130.92652 -151.79225 -146.66717 -127.05894 L -157.25102 -127.05894 L -149.61996 -115.86014 L -157.25102 -26.140039 L -8.5138455 -26.140039 L 15.419061 -26.140039 L 8.0799737 -154.80195 L 15.419061 -165.68398 L 7.4593397 -165.68398 L 6.4490654 -183.39297 L -2.0863309 -198.17657 z M -83.43072 -192.21621 C -85.584619 -189.65499 -86.77489 -186.4211 -86.795372 -183.07465 C -86.842092 -175.15518 -80.459903 -168.69733 -72.540428 -168.65072 C -64.621155 -168.60402 -58.163395 -174.98588 -58.116503 -182.90515 C -58.102813 -186.26049 -59.266203 -189.5144 -61.404157 -192.10045 C -60.83125 -190.6836 -60.536835 -189.16959 -60.537027 -187.64129 C -60.575787 -181.07411 -65.930869 -175.78172 -72.498054 -175.82031 C -79.065241 -175.85911 -84.357627 -181.21415 -84.319038 -187.78134 C -84.309338 -189.30285 -84.007827 -190.80837 -83.43072 -192.21621 z M -128.03937 -120.07436 C -123.50451 -119.84761 -119.82006 -118.85557 -116.98578 -117.09831 L -137.22279 -83.767013 L -124.21324 -83.767013 L -123.36265 -97.626632 C -121.54871 -97.626632 -120.24538 -97.995076 -119.45178 -98.731991 C -118.60149 -99.468905 -117.94931 -100.71611 -117.49582 -102.47336 L -112.64909 -102.47336 L -112.73436 -83.341716 C -110.5803 -82.718173 -107.85932 -82.066508 -104.57155 -81.38628 L -104.99685 -77.304875 L -113.15965 -77.304875 L -113.15965 -62.084615 L -124.21324 -62.084615 L -124.21324 -77.304875 L -148.78642 -77.304875 L -149.46648 -80.36567 L -128.03937 -120.07436 z M -12.230415 -119.56379 C -5.4848121 -119.56379 -0.32659143 -117.69351 3.2446099 -113.95225 C 6.8724969 -110.21099 8.686655 -104.7971 8.686655 -97.711381 C 8.686655 -88.811721 5.9090323 -81.216258 0.35383026 -74.924142 C -5.144686 -68.688711 -13.137173 -64.09693 -23.624034 -61.149272 L -25.664737 -65.400692 C -19.996163 -67.838179 -15.432963 -70.956182 -11.975133 -74.754126 C -8.5173031 -78.608756 -6.2219295 -83.086732 -5.0882148 -88.188448 C -8.262616 -86.601248 -11.352039 -85.807715 -14.356383 -85.807715 C -20.024956 -85.807715 -24.502932 -87.338137 -27.790705 -90.399166 C -31.021792 -93.460196 -32.637438 -97.598308 -32.637438 -102.8134 C -32.637438 -106.04448 -31.787261 -108.93539 -30.086689 -111.48625 C -28.329431 -114.03711 -25.920253 -116.0212 -22.859223 -117.43834 C -19.741508 -118.85549 -16.198416 -119.56379 -12.230415 -119.56379 z M -69.539578 -119.05375 L -65.288158 -118.969 C -59.27947 -118.85563 -56.105339 -118.79847 -55.765225 -118.79847 L -43.691027 -118.969 L -41.225027 -117.18306 L -41.990355 -110.72092 L -63.07744 -110.72092 L -64.268065 -96.521273 C -61.320407 -97.258188 -58.656072 -97.626632 -56.275271 -97.626632 C -50.663384 -97.626632 -46.100183 -96.124274 -42.585668 -93.11993 C -39.014466 -90.172272 -37.228889 -85.836165 -37.228889 -80.110905 C -37.228889 -76.539704 -38.079065 -73.336993 -39.779637 -70.502706 C -41.423524 -67.66842 -43.804638 -65.429173 -46.922354 -63.785287 C -50.040069 -62.198086 -53.724513 -61.404554 -57.975943 -61.404554 C -61.433773 -61.404554 -64.57984 -61.886286 -67.414126 -62.849943 C -70.191727 -63.813601 -72.373813 -65.14551 -73.961013 -66.846082 C -75.548214 -68.60334 -76.342263 -70.559366 -76.342263 -72.713424 C -76.342263 -74.980853 -75.718663 -76.709787 -74.471577 -77.900188 C -73.22449 -79.147274 -71.694069 -79.770358 -69.880126 -79.770358 C -68.859782 -79.770358 -67.839157 -79.572362 -66.818814 -79.175562 C -65.741785 -78.778762 -64.77832 -78.211805 -63.928034 -77.474891 C -64.438206 -76.28449 -64.693362 -75.037289 -64.693362 -73.733517 C -64.693362 -71.862888 -64.154469 -70.332466 -63.07744 -69.142066 C -61.943725 -67.951665 -60.243372 -67.356645 -57.975943 -67.356645 C -52.874227 -67.356645 -50.32318 -71.608045 -50.32318 -80.110905 C -50.32318 -84.135593 -51.116712 -87.054567 -52.703913 -88.86851 C -54.291114 -90.73914 -56.417072 -91.674541 -59.081302 -91.674541 C -60.725188 -91.674541 -62.482185 -91.36274 -64.352814 -90.739197 C -66.223444 -90.115654 -68.066182 -89.236897 -69.880126 -88.103182 L -74.556326 -92.609884 L -72.345608 -116.75776 L -69.539578 -119.05375 z M -12.740461 -113.69697 C -15.177948 -113.69697 -17.04875 -112.76157 -18.352521 -110.89094 C -19.656293 -109.02031 -20.307958 -106.35597 -20.307958 -102.89814 C -20.307958 -99.383629 -19.599649 -96.634587 -18.182506 -94.650586 C -16.708677 -92.723271 -14.639363 -91.759807 -11.975133 -91.759807 C -9.6510178 -91.759807 -7.0719075 -92.723271 -4.2376207 -94.650586 L -4.2376207 -95.755945 C -4.2376207 -101.93469 -4.9178654 -106.46931 -6.2783231 -109.36028 C -7.6387807 -112.25126 -9.7928027 -113.69697 -12.740461 -113.69697 z M -89.861852 -101.28274 C -87.877851 -101.28274 -86.404074 -100.68772 -85.440416 -99.497319 C -84.420073 -98.363604 -83.90976 -96.776539 -83.90976 -94.735852 C -83.90976 -92.695166 -84.420073 -91.107584 -85.440416 -89.973869 C -86.404074 -88.840154 -87.877851 -88.273198 -89.861852 -88.273198 C -91.845852 -88.273198 -93.347693 -88.840154 -94.368037 -89.973869 C -95.331694 -91.16427 -95.813426 -92.751852 -95.813426 -94.735852 C -95.813426 -96.833225 -95.331694 -98.448354 -94.368037 -99.582068 C -93.347693 -100.71578 -91.845852 -101.28274 -89.861852 -101.28274 z M -89.861852 -74.498845 C -87.877851 -74.498845 -86.404074 -73.903824 -85.440416 -72.713424 C -84.420073 -71.579709 -83.90976 -69.992127 -83.90976 -67.951441 C -83.90976 -65.910754 -84.420073 -64.323689 -85.440416 -63.189974 C -86.404074 -62.05626 -87.877851 -61.489303 -89.861852 -61.489303 C -91.845852 -61.489303 -93.347693 -62.05626 -94.368037 -63.189974 C -95.331694 -64.380375 -95.813426 -65.96744 -95.813426 -67.951441 C -95.813426 -70.048813 -95.331694 -71.664459 -94.368037 -72.798173 C -93.347693 -73.931888 -91.845852 -74.498845 -89.861852 -74.498845 z " /></g></svg>
