<?xml version="1.0" encoding="UTF-8" standalone="no"?>
<!-- Created with Inkscape (http://www.inkscape.org/) -->

<svg
   width="172.6701mm"
   height="172.6701mm"
   viewBox="0 0 172.6701 172.6701"
   version="1.1"
   id="svg1"
   xml:space="preserve"
   xmlns="http://www.w3.org/2000/svg"
   xmlns:svg="http://www.w3.org/2000/svg"><defs
     id="defs1" /><g
     id="layer1"
     transform="translate(157.25102,198.81012)"><path
       id="path5"
       style="fill:#ffffff;fill-opacity:1;stroke-width:0.805188;stroke-linecap:round;stroke-linejoin:round"
       d="M -2.0863309 -198.17657 L -10.088943 -183.11289 L -10.930235 -165.68398 L -19.198981 -165.68398 L -11.423229 -155.47426 L -12.166336 -140.07934 C -28.353216 -157.12094 -50.823548 -166.77435 -74.327399 -166.78417 C -103.64471 -166.77397 -130.92652 -151.79225 -146.66717 -127.05894 L -157.25102 -127.05894 L -149.61996 -115.86014 L -157.25102 -26.140039 L -8.5138455 -26.140039 L 15.419061 -26.140039 L 8.0799737 -154.80195 L 15.419061 -165.68398 L 7.4593397 -165.68398 L 6.4490654 -183.39297 L -2.0863309 -198.17657 z M -83.43072 -192.21621 C -85.584619 -189.65499 -86.77489 -186.4211 -86.795372 -183.07465 C -86.842092 -175.15518 -80.459903 -168.69733 -72.540428 -168.65072 C -64.621155 -168.60402 -58.163395 -174.98588 -58.116503 -182.90515 C -58.102813 -186.26049 -59.266203 -189.5144 -61.404157 -192.10045 C -60.83125 -190.6836 -60.536835 -189.16959 -60.537027 -187.64129 C -60.575787 -181.07411 -65.930869 -175.78172 -72.498054 -175.82031 C -79.065241 -175.85911 -84.357627 -181.21415 -84.319038 -187.78134 C -84.309338 -189.30285 -84.007827 -190.80837 -83.43072 -192.21621 z M -57.465896 -119.73381 C -51.627266 -119.73381 -46.978841 -118.28861 -43.521011 -115.39764 C -40.063181 -112.56335 -38.334248 -108.56711 -38.334248 -103.40871 C -38.334248 -98.873849 -40.063181 -94.026912 -43.521011 -88.86851 C -46.978841 -83.766794 -52.675955 -77.616529 -60.611958 -70.41744 L -37.738935 -70.41744 L -37.738935 -62.084615 L -76.256997 -62.084615 L -76.256997 -67.016097 C -69.964881 -73.081471 -65.0613 -78.268272 -61.546784 -82.576388 C -58.032269 -86.884504 -55.509802 -90.852684 -53.979287 -94.480571 C -52.392087 -98.108458 -51.598554 -101.84955 -51.598554 -105.70418 C -51.598554 -111.82623 -53.639288 -114.88759 -57.720661 -114.88759 C -59.534605 -114.88759 -61.008382 -114.0369 -62.142097 -112.33633 C -63.275811 -110.69244 -63.842768 -108.65171 -63.842768 -106.21422 C -63.842768 -104.51365 -63.247748 -102.89852 -62.057347 -101.36801 C -63.021005 -100.46103 -64.126338 -99.752209 -65.373424 -99.242037 C -66.563824 -98.731866 -67.753865 -98.476709 -68.944265 -98.476709 C -70.984952 -98.476709 -72.685822 -99.10031 -74.04628 -100.3474 C -75.406737 -101.65117 -76.086982 -103.52197 -76.086982 -105.95946 C -76.086982 -108.567 -75.321513 -110.91953 -73.790998 -113.01691 C -72.260483 -115.11428 -70.106461 -116.75799 -67.32886 -117.94839 C -64.494573 -119.13879 -61.207155 -119.73381 -57.465896 -119.73381 z M -125.3186 -119.56379 C -118.573 -119.56379 -113.41478 -117.69351 -109.84358 -113.95225 C -106.21569 -110.21099 -104.40153 -104.7971 -104.40153 -97.711381 C -104.40153 -88.811721 -107.17916 -81.216258 -112.73436 -74.924142 C -118.23287 -68.688711 -126.22536 -64.09693 -136.71222 -61.149272 L -138.75292 -65.400692 C -133.08435 -67.838179 -128.52115 -70.956182 -125.06332 -74.754126 C -121.60549 -78.608756 -119.31012 -83.086732 -118.1764 -88.188448 C -121.3508 -86.601248 -124.43971 -85.807715 -127.44405 -85.807715 C -133.11263 -85.807715 -137.59112 -87.338137 -140.87889 -90.399166 C -144.10998 -93.460196 -145.72563 -97.598308 -145.72563 -102.8134 C -145.72563 -106.04448 -144.87493 -108.93539 -143.17436 -111.48625 C -141.4171 -114.03711 -139.00792 -116.0212 -135.94689 -117.43834 C -132.82918 -118.85549 -129.2866 -119.56379 -125.3186 -119.56379 z M -26.090034 -119.05375 L -21.838614 -118.969 C -15.829926 -118.85563 -12.655795 -118.79847 -12.315681 -118.79847 L -0.24148224 -118.969 L 2.2245171 -117.18306 L 1.4591891 -110.72092 L -19.627896 -110.72092 L -20.818521 -96.521273 C -17.870863 -97.258188 -15.206528 -97.626632 -12.825727 -97.626632 C -7.2138393 -97.626632 -2.6506389 -96.124274 0.86387665 -93.11993 C 4.435078 -90.172272 6.2206556 -85.836165 6.2206556 -80.110905 C 6.2206556 -76.539704 5.370479 -73.336993 3.6699069 -70.502706 C 2.0260206 -67.66842 -0.35457736 -65.429173 -3.4722928 -63.785287 C -6.5900082 -62.198086 -10.274968 -61.404554 -14.526398 -61.404554 C -17.984228 -61.404554 -21.130295 -61.886286 -23.964582 -62.849943 C -26.742183 -63.813601 -28.924269 -65.14551 -30.511469 -66.846082 C -32.09867 -68.60334 -32.892202 -70.559366 -32.892202 -72.713424 C -32.892202 -74.980853 -32.268602 -76.709787 -31.021516 -77.900188 C -29.774429 -79.147274 -28.244008 -79.770358 -26.430065 -79.770358 C -25.409721 -79.770358 -24.389613 -79.572362 -23.36927 -79.175562 C -22.292241 -78.778762 -21.328259 -78.211805 -20.477973 -77.474891 C -20.988145 -76.28449 -21.243301 -75.037289 -21.243301 -73.733517 C -21.243301 -71.862888 -20.704925 -70.332466 -19.627896 -69.142066 C -18.494181 -67.951665 -16.793828 -67.356645 -14.526398 -67.356645 C -9.4246823 -67.356645 -6.8736356 -71.608045 -6.8736356 -80.110905 C -6.8736356 -84.135593 -7.6671682 -87.054567 -9.2543688 -88.86851 C -10.841569 -90.73914 -12.967528 -91.674541 -15.631757 -91.674541 C -17.275644 -91.674541 -19.032641 -91.36274 -20.90327 -90.739197 C -22.773899 -90.115654 -24.616121 -89.236897 -26.430065 -88.103182 L -31.106782 -92.609884 L -28.896064 -116.75776 L -26.090034 -119.05375 z M -125.82865 -113.69697 C -128.26614 -113.69697 -130.13694 -112.76157 -131.44071 -110.89094 C -132.74448 -109.02031 -133.39615 -106.35597 -133.39615 -102.89814 C -133.39615 -99.383629 -132.68784 -96.634587 -131.27069 -94.650586 C -129.79686 -92.723271 -127.72755 -91.759807 -125.06332 -91.759807 C -122.73921 -91.759807 -120.1601 -92.723271 -117.32581 -94.650586 L -117.32581 -95.755945 C -117.32581 -101.93469 -118.00605 -106.46931 -119.36651 -109.36028 C -120.72697 -112.25126 -122.88099 -113.69697 -125.82865 -113.69697 z M -89.521304 -101.28274 C -87.537303 -101.28274 -86.063526 -100.68772 -85.099868 -99.497319 C -84.079525 -98.363604 -83.569729 -96.776539 -83.569729 -94.735852 C -83.569729 -92.695166 -84.079525 -91.107584 -85.099868 -89.973869 C -86.063526 -88.840154 -87.537303 -88.273198 -89.521304 -88.273198 C -91.505305 -88.273198 -93.007662 -88.840154 -94.028006 -89.973869 C -94.991663 -91.16427 -95.473395 -92.751852 -95.473395 -94.735852 C -95.473395 -96.833225 -94.991663 -98.448354 -94.028006 -99.582068 C -93.007662 -100.71578 -91.505305 -101.28274 -89.521304 -101.28274 z M -89.521304 -74.498845 C -87.537303 -74.498845 -86.063526 -73.903824 -85.099868 -72.713424 C -84.079525 -71.579709 -83.569729 -69.992127 -83.569729 -67.951441 C -83.569729 -65.910754 -84.079525 -64.323689 -85.099868 -63.189974 C -86.063526 -62.05626 -87.537303 -61.489303 -89.521304 -61.489303 C -91.505305 -61.489303 -93.007662 -62.05626 -94.028006 -63.189974 C -94.991663 -64.380375 -95.473395 -65.96744 -95.473395 -67.951441 C -95.473395 -70.048813 -94.991663 -71.664459 -94.028006 -72.798173 C -93.007662 -73.931888 -91.505305 -74.498845 -89.521304 -74.498845 z " /></g></svg>
