<?xml version="1.0" encoding="UTF-8" standalone="no"?>
<!-- Created with Inkscape (http://www.inkscape.org/) -->

<svg
   width="172.6701mm"
   height="172.6701mm"
   viewBox="0 0 172.6701 172.6701"
   version="1.1"
   id="svg1"
   xml:space="preserve"
   xmlns="http://www.w3.org/2000/svg"
   xmlns:svg="http://www.w3.org/2000/svg"><defs
     id="defs1" /><g
     id="layer1"
     transform="translate(157.25102,198.81012)"><path
       id="path5"
       style="fill:#ffffff;fill-opacity:1;stroke-width:0.805188;stroke-linecap:round;stroke-linejoin:round"
       d="M -2.0863309 -198.17657 L -10.088943 -183.11289 L -10.930235 -165.68398 L -19.198981 -165.68398 L -11.423229 -155.47426 L -12.166336 -140.07934 C -28.353216 -157.12094 -50.823548 -166.77435 -74.327399 -166.78417 C -103.64471 -166.77397 -130.92652 -151.79225 -146.66717 -127.05894 L -157.25102 -127.05894 L -149.61996 -115.86014 L -157.25102 -26.140039 L -8.5138455 -26.140039 L 15.419061 -26.140039 L 8.0799737 -154.80195 L 15.419061 -165.68398 L 7.4593397 -165.68398 L 6.4490654 -183.39297 L -2.0863309 -198.17657 z M -83.43072 -192.21621 C -85.584619 -189.65499 -86.77489 -186.4211 -86.795372 -183.07465 C -86.842092 -175.15518 -80.459903 -168.69733 -72.540428 -168.65072 C -64.621155 -168.60402 -58.163395 -174.98588 -58.116503 -182.90515 C -58.102813 -186.26049 -59.266203 -189.5144 -61.404157 -192.10045 C -60.83125 -190.6836 -60.536835 -189.16959 -60.537027 -187.64129 C -60.575787 -181.07411 -65.930869 -175.78172 -72.498054 -175.82031 C -79.065241 -175.85911 -84.357627 -181.21415 -84.319038 -187.78134 C -84.309338 -189.30285 -84.007827 -190.80837 -83.43072 -192.21621 z M -58.443614 -119.73381 C -54.759042 -119.73381 -51.499687 -119.11073 -48.6654 -117.86364 C -45.831113 -116.67324 -43.61993 -114.97237 -42.03273 -112.76163 C -40.445529 -110.60757 -39.651997 -108.11368 -39.651997 -105.27939 C -39.651997 -102.10499 -40.587398 -99.384015 -42.458027 -97.116586 C -44.328656 -94.849156 -47.106279 -93.120223 -50.790852 -91.929822 C -46.142621 -90.909479 -42.883266 -89.237189 -41.012637 -86.913074 C -39.142008 -84.588959 -38.206607 -81.442892 -38.206607 -77.474891 C -38.206607 -74.017061 -39.255296 -71.069506 -41.352668 -68.632019 C -43.393354 -66.194533 -46.057689 -64.380375 -49.345462 -63.189974 C -52.633234 -61.999574 -56.034458 -61.404554 -59.548973 -61.404554 C -64.650689 -61.404554 -68.986797 -62.453243 -72.557998 -64.550615 C -76.072514 -66.647987 -77.830028 -69.510317 -77.830028 -73.138204 C -77.830028 -75.235577 -77.206427 -76.851222 -75.959341 -77.984937 C -74.712255 -79.175337 -73.153253 -79.770358 -71.282624 -79.770358 C -69.355309 -79.770358 -67.399799 -79.005405 -65.415799 -77.474891 C -65.92597 -76.397862 -66.181127 -75.094016 -66.181127 -73.563501 C -66.181127 -71.749558 -65.64275 -70.275781 -64.565721 -69.142066 C -63.432007 -68.008351 -61.759717 -67.441394 -59.548973 -67.441394 C -54.674 -67.441394 -52.236241 -70.814037 -52.236241 -77.55964 C -52.236241 -81.244213 -53.426799 -84.10706 -55.8076 -86.147746 C -58.131715 -88.188433 -61.447714 -89.208541 -65.75583 -89.208541 L -65.75583 -94.480571 C -57.423027 -95.1608 -53.256851 -98.760535 -53.256851 -105.27939 C -53.256851 -108.56717 -53.766647 -110.97583 -54.78699 -112.50634 C -55.807333 -114.09354 -57.196403 -114.88759 -58.953661 -114.88759 C -61.051033 -114.88759 -62.638098 -114.15071 -63.715127 -112.67688 C -64.73547 -111.20305 -65.245783 -109.41747 -65.245783 -107.3201 C -65.245783 -105.44947 -64.848758 -103.77718 -64.055158 -102.30335 C -65.642359 -100.60278 -67.683093 -99.752084 -70.177265 -99.752084 C -72.444695 -99.752084 -74.202209 -100.43233 -75.449295 -101.79279 C -76.696381 -103.15324 -77.319982 -104.91076 -77.319982 -107.06482 C -77.319982 -109.8991 -76.356 -112.25164 -74.428685 -114.12227 C -72.444684 -116.04958 -70.007443 -117.46671 -67.11647 -118.37369 C -64.168812 -119.28066 -61.277901 -119.73381 -58.443614 -119.73381 z M -125.95629 -119.56379 C -119.21069 -119.56379 -114.05247 -117.69351 -110.48126 -113.95225 C -106.85338 -110.21099 -105.03922 -104.7971 -105.03922 -97.711381 C -105.03922 -88.811721 -107.81684 -81.216258 -113.37204 -74.924142 C -118.87056 -68.688711 -126.86305 -64.09693 -137.34991 -61.149272 L -139.39061 -65.400692 C -133.72204 -67.838179 -129.15884 -70.956182 -125.70101 -74.754126 C -122.24318 -78.608756 -119.9478 -83.086732 -118.81409 -88.188448 C -121.98849 -86.601248 -125.0774 -85.807715 -128.08174 -85.807715 C -133.75031 -85.807715 -138.22881 -87.338137 -141.51658 -90.399166 C -144.74767 -93.460196 -146.36331 -97.598308 -146.36331 -102.8134 C -146.36331 -106.04448 -145.51262 -108.93539 -143.81205 -111.48625 C -142.05479 -114.03711 -139.64561 -116.0212 -136.58458 -117.43834 C -133.46687 -118.85549 -129.92429 -119.56379 -125.95629 -119.56379 z M -13.548164 -119.56379 C -6.8025611 -119.56379 -1.6443404 -117.69351 1.9268609 -113.95225 C 5.5547479 -110.21099 7.3683892 -104.7971 7.3683892 -97.711381 C 7.3683892 -88.811721 4.5912833 -81.216258 -0.96391876 -74.924142 C -6.4624351 -68.688711 -14.455439 -64.09693 -24.9423 -61.149272 L -26.983002 -65.400692 C -21.314429 -67.838179 -16.751229 -70.956182 -13.293399 -74.754126 C -9.8355689 -78.608756 -7.5396785 -83.086732 -6.4059638 -88.188448 C -9.580365 -86.601248 -12.669788 -85.807715 -15.674132 -85.807715 C -21.342705 -85.807715 -25.820681 -87.338137 -29.108454 -90.399166 C -32.339541 -93.460196 -33.955187 -97.598308 -33.955187 -102.8134 C -33.955187 -106.04448 -33.10501 -108.93539 -31.404438 -111.48625 C -29.64718 -114.03711 -27.238002 -116.0212 -24.176972 -117.43834 C -21.059257 -118.85549 -17.516165 -119.56379 -13.548164 -119.56379 z M -126.46634 -113.69697 C -128.90382 -113.69697 -130.77462 -112.76157 -132.0784 -110.89094 C -133.38217 -109.02031 -134.03383 -106.35597 -134.03383 -102.89814 C -134.03383 -99.383629 -133.32552 -96.634587 -131.90838 -94.650586 C -130.43455 -92.723271 -128.36524 -91.759807 -125.70101 -91.759807 C -123.37689 -91.759807 -120.79778 -92.723271 -117.9635 -94.650586 L -117.9635 -95.755945 C -117.9635 -101.93469 -118.64374 -106.46931 -120.0042 -109.36028 C -121.36466 -112.25126 -123.51868 -113.69697 -126.46634 -113.69697 z M -14.058727 -113.69697 C -16.496213 -113.69697 -18.366499 -112.76157 -19.67027 -110.89094 C -20.974042 -109.02031 -21.626223 -106.35597 -21.626223 -102.89814 C -21.626223 -99.383629 -20.917398 -96.634587 -19.500255 -94.650586 C -18.026426 -92.723271 -15.957628 -91.759807 -13.293399 -91.759807 C -10.969284 -91.759807 -8.3901733 -92.723271 -5.5558865 -94.650586 L -5.5558865 -95.755945 C -5.5558865 -101.93469 -6.2361312 -106.46931 -7.5965888 -109.36028 C -8.9570465 -112.25126 -11.111068 -113.69697 -14.058727 -113.69697 z M -90.158991 -101.28274 C -88.17499 -101.28274 -86.701213 -100.68772 -85.737556 -99.497319 C -84.717212 -98.363604 -84.207416 -96.776539 -84.207416 -94.735852 C -84.207416 -92.695166 -84.717212 -91.107584 -85.737556 -89.973869 C -86.701213 -88.840154 -88.17499 -88.273198 -90.158991 -88.273198 C -92.142992 -88.273198 -93.64535 -88.840154 -94.665693 -89.973869 C -95.62935 -91.16427 -96.111083 -92.751852 -96.111083 -94.735852 C -96.111083 -96.833225 -95.62935 -98.448354 -94.665693 -99.582068 C -93.64535 -100.71578 -92.142992 -101.28274 -90.158991 -101.28274 z M -90.158991 -74.498845 C -88.17499 -74.498845 -86.701213 -73.903824 -85.737556 -72.713424 C -84.717212 -71.579709 -84.207416 -69.992127 -84.207416 -67.951441 C -84.207416 -65.910754 -84.717212 -64.323689 -85.737556 -63.189974 C -86.701213 -62.05626 -88.17499 -61.489303 -90.158991 -61.489303 C -92.142992 -61.489303 -93.64535 -62.05626 -94.665693 -63.189974 C -95.62935 -64.380375 -96.111083 -65.96744 -96.111083 -67.951441 C -96.111083 -70.048813 -95.62935 -71.664459 -94.665693 -72.798173 C -93.64535 -73.931888 -92.142992 -74.498845 -90.158991 -74.498845 z " /></g></svg>
