<?xml version="1.0" encoding="UTF-8" standalone="no"?>
<!-- Created with Inkscape (http://www.inkscape.org/) -->

<svg
   width="172.6701mm"
   height="172.6701mm"
   viewBox="0 0 172.6701 172.6701"
   version="1.1"
   id="svg1"
   xml:space="preserve"
   xmlns="http://www.w3.org/2000/svg"
   xmlns:svg="http://www.w3.org/2000/svg"><defs
     id="defs1" /><g
     id="layer1"
     transform="translate(157.25102,198.81012)"><path
       id="path5"
       style="fill:#ffffff;fill-opacity:1;stroke-width:0.805188;stroke-linecap:round;stroke-linejoin:round"
       d="M -2.0863309 -198.17657 L -10.088943 -183.11289 L -10.930235 -165.68398 L -19.198981 -165.68398 L -11.423229 -155.47426 L -12.166336 -140.07934 C -28.353216 -157.12094 -50.823548 -166.77435 -74.327399 -166.78417 C -103.64471 -166.77397 -130.92652 -151.79225 -146.66717 -127.05894 L -157.25102 -127.05894 L -149.61996 -115.86014 L -157.25102 -26.140039 L -8.5138455 -26.140039 L 15.419061 -26.140039 L 8.0799737 -154.80195 L 15.419061 -165.68398 L 7.4593397 -165.68398 L 6.4490654 -183.39297 L -2.0863309 -198.17657 z M -83.43072 -192.21621 C -85.584619 -189.65499 -86.77489 -186.4211 -86.795372 -183.07465 C -86.842092 -175.15518 -80.459903 -168.69733 -72.540428 -168.65072 C -64.621155 -168.60402 -58.163395 -174.98588 -58.116503 -182.90515 C -58.102813 -186.26049 -59.266203 -189.5144 -61.404157 -192.10045 C -60.83125 -190.6836 -60.536835 -189.16959 -60.537027 -187.64129 C -60.575787 -181.07411 -65.930869 -175.78172 -72.498054 -175.82031 C -79.065241 -175.85911 -84.357627 -181.21415 -84.319038 -187.78134 C -84.309338 -189.30285 -84.007827 -190.80837 -83.43072 -192.21621 z M -127.44405 -120.07436 C -122.9092 -119.84761 -119.22475 -118.85557 -116.39046 -117.09831 L -136.62747 -83.767013 L -123.61793 -83.767013 L -122.76785 -97.626632 C -120.95391 -97.626632 -119.65006 -97.995076 -118.85646 -98.731991 C -118.00618 -99.468905 -117.354 -100.71611 -116.90051 -102.47336 L -112.0543 -102.47336 L -112.13904 -83.341716 C -109.98499 -82.718173 -107.26401 -82.066508 -103.97624 -81.38628 L -104.40153 -77.304875 L -112.56434 -77.304875 L -112.56434 -62.084615 L -123.61793 -62.084615 L -123.61793 -77.304875 L -148.19111 -77.304875 L -148.87169 -80.36567 L -127.44405 -120.07436 z M -57.210615 -119.73381 C -51.371984 -119.73381 -46.723559 -118.28861 -43.265729 -115.39764 C -39.8079 -112.56335 -38.078966 -108.56711 -38.078966 -103.40871 C -38.078966 -98.873849 -39.8079 -94.026912 -43.265729 -88.86851 C -46.723559 -83.766794 -52.420673 -77.616529 -60.356676 -70.41744 L -37.48417 -70.41744 L -37.48417 -62.084615 L -76.001716 -62.084615 L -76.001716 -67.016097 C -69.709599 -73.081471 -64.806535 -78.268272 -61.292019 -82.576388 C -57.777504 -86.884504 -55.255037 -90.852684 -53.724523 -94.480571 C -52.137322 -98.108458 -51.343789 -101.84955 -51.343789 -105.70418 C -51.343789 -111.82623 -53.384523 -114.88759 -57.465896 -114.88759 C -59.27984 -114.88759 -60.753617 -114.0369 -61.887332 -112.33633 C -63.021047 -110.69244 -63.588003 -108.65171 -63.588003 -106.21422 C -63.588003 -104.51365 -62.992466 -102.89852 -61.802066 -101.36801 C -62.765723 -100.46103 -63.871056 -99.752209 -65.118142 -99.242037 C -66.308543 -98.731866 -67.4991 -98.476709 -68.689501 -98.476709 C -70.730187 -98.476709 -72.43054 -99.10031 -73.790998 -100.3474 C -75.151456 -101.65117 -75.8317 -103.52197 -75.8317 -105.95946 C -75.8317 -108.567 -75.066748 -110.91953 -73.536233 -113.01691 C -72.005718 -115.11428 -69.851696 -116.75799 -67.074095 -117.94839 C -64.239809 -119.13879 -60.951873 -119.73381 -57.210615 -119.73381 z M -12.315681 -119.64906 C -5.6834496 -119.64906 -0.60993662 -117.15466 2.904579 -112.16631 C 6.4757803 -107.23465 8.2613579 -100.06428 8.2613579 -90.654448 C 8.2613579 -81.244616 6.4757803 -74.017081 2.904579 -68.97205 C -0.60993662 -63.983706 -5.6834496 -61.489303 -12.315681 -61.489303 C -18.947912 -61.489303 -24.049488 -63.983706 -27.62069 -68.97205 C -31.191891 -74.017081 -32.977469 -81.244616 -32.977469 -90.654448 C -32.977469 -100.00759 -31.191891 -107.17797 -27.62069 -112.16631 C -24.049488 -117.15466 -18.947912 -119.64906 -12.315681 -119.64906 z M -12.315681 -115.31237 C -15.206653 -115.31237 -17.304031 -113.41351 -18.607803 -109.61556 C -19.854889 -105.81762 -20.47849 -99.497422 -20.47849 -90.654448 C -20.47849 -81.868159 -19.854889 -75.576025 -18.607803 -71.778081 C -17.304031 -68.036822 -15.206653 -66.16602 -12.315681 -66.16602 C -9.4247082 -66.16602 -7.3553938 -68.036822 -6.1083076 -71.778081 C -4.8045357 -75.576025 -4.1528714 -81.868159 -4.1528714 -90.654448 C -4.1528714 -99.440737 -4.8045357 -105.73287 -6.1083076 -109.53081 C -7.3553938 -113.38544 -9.4247082 -115.31237 -12.315681 -115.31237 z M -89.266539 -101.28274 C -87.282538 -101.28274 -85.808761 -100.68772 -84.845104 -99.497319 C -83.82476 -98.363604 -83.314448 -96.776539 -83.314448 -94.735852 C -83.314448 -92.695166 -83.82476 -91.107584 -84.845104 -89.973869 C -85.808761 -88.840154 -87.282538 -88.273198 -89.266539 -88.273198 C -91.25054 -88.273198 -92.752898 -88.840154 -93.773241 -89.973869 C -94.736898 -91.16427 -95.218631 -92.751852 -95.218631 -94.735852 C -95.218631 -96.833225 -94.736898 -98.448354 -93.773241 -99.582068 C -92.752898 -100.71578 -91.25054 -101.28274 -89.266539 -101.28274 z M -89.266539 -74.498845 C -87.282538 -74.498845 -85.808761 -73.903824 -84.845104 -72.713424 C -83.82476 -71.579709 -83.314448 -69.992127 -83.314448 -67.951441 C -83.314448 -65.910754 -83.82476 -64.323689 -84.845104 -63.189974 C -85.808761 -62.05626 -87.282538 -61.489303 -89.266539 -61.489303 C -91.25054 -61.489303 -92.752898 -62.05626 -93.773241 -63.189974 C -94.736898 -64.380375 -95.218631 -65.96744 -95.218631 -67.951441 C -95.218631 -70.048813 -94.736898 -71.664459 -93.773241 -72.798173 C -92.752898 -73.931888 -91.25054 -74.498845 -89.266539 -74.498845 z " /></g></svg>
