<?xml version="1.0" encoding="UTF-8" standalone="no"?>
<!-- Created with Inkscape (http://www.inkscape.org/) -->

<svg
   width="172.6701mm"
   height="172.6701mm"
   viewBox="0 0 172.6701 172.6701"
   version="1.1"
   id="svg1"
   xml:space="preserve"
   xmlns="http://www.w3.org/2000/svg"
   xmlns:svg="http://www.w3.org/2000/svg"><defs
     id="defs1" /><g
     id="layer1"
     transform="translate(157.25102,198.81012)"><path
       id="path5"
       style="fill:#ffffff;fill-opacity:1;stroke-width:0.805188;stroke-linecap:round;stroke-linejoin:round"
       d="M -2.0863309 -198.17657 L -10.088943 -183.11289 L -10.930235 -165.68398 L -19.198981 -165.68398 L -11.423229 -155.47426 L -12.166336 -140.07934 C -28.353216 -157.12094 -50.823548 -166.77435 -74.327399 -166.78417 C -103.64471 -166.77397 -130.92652 -151.79225 -146.66717 -127.05894 L -157.25102 -127.05894 L -149.61996 -115.86014 L -157.25102 -26.140039 L -8.5138455 -26.140039 L 15.419061 -26.140039 L 8.0799737 -154.80195 L 15.419061 -165.68398 L 7.4593397 -165.68398 L 6.4490654 -183.39297 L -2.0863309 -198.17657 z M -83.43072 -192.21621 C -85.584619 -189.65499 -86.77489 -186.4211 -86.795372 -183.07465 C -86.842092 -175.15518 -80.459903 -168.69733 -72.540428 -168.65072 C -64.621155 -168.60402 -58.163395 -174.98588 -58.116503 -182.90515 C -58.102813 -186.26049 -59.266203 -189.5144 -61.404157 -192.10045 C -60.83125 -190.6836 -60.536835 -189.16959 -60.537027 -187.64129 C -60.575787 -181.07411 -65.930869 -175.78172 -72.498054 -175.82031 C -79.065241 -175.85911 -84.357627 -181.21415 -84.319038 -187.78134 C -84.309338 -189.30285 -84.007827 -190.80837 -83.43072 -192.21621 z M -60.05902 -120.07436 C -55.524161 -119.84761 -51.839718 -118.85557 -49.005431 -117.09831 L -69.241922 -83.767013 L -56.232897 -83.767013 L -55.382303 -97.626632 C -53.568359 -97.626632 -52.264514 -97.995076 -51.470913 -98.731991 C -50.620627 -99.468905 -49.968963 -100.71611 -49.515477 -102.47336 L -44.668745 -102.47336 L -44.754011 -83.341716 C -42.599953 -82.718173 -39.878974 -82.066508 -36.591201 -81.38628 L -37.015982 -77.304875 L -45.178791 -77.304875 L -45.178791 -62.084615 L -56.232897 -62.084615 L -56.232897 -77.304875 L -80.806074 -77.304875 L -81.486136 -80.36567 L -60.05902 -120.07436 z M -13.038117 -120.07436 C -8.5032584 -119.84761 -4.8188151 -118.85557 -1.9845283 -117.09831 L -22.221536 -83.767013 L -9.2119941 -83.767013 L -8.3614 -97.626632 C -6.5474565 -97.626632 -5.2441279 -97.995076 -4.4505276 -98.731991 C -3.6002416 -99.468905 -2.9480606 -100.71611 -2.4945747 -102.47336 L 2.3521579 -102.47336 L 2.2668918 -83.341716 C 4.4209497 -82.718173 7.1419284 -82.066508 10.429701 -81.38628 L 10.004404 -77.304875 L 1.8415947 -77.304875 L 1.8415947 -62.084615 L -9.2119941 -62.084615 L -9.2119941 -77.304875 L -33.785171 -77.304875 L -34.465233 -80.36567 L -13.038117 -120.07436 z M -116.68812 -119.90383 L -114.64742 -115.65241 C -126.09794 -110.72075 -132.98509 -103.12528 -135.30921 -92.865166 C -132.02143 -94.452366 -128.90395 -95.245899 -125.95629 -95.245899 C -120.28772 -95.245899 -115.8378 -93.715477 -112.60672 -90.654448 C -109.31894 -87.593418 -107.67523 -83.455306 -107.67523 -78.240218 C -107.67523 -75.009132 -108.55347 -72.118221 -110.31073 -69.567363 C -112.0113 -67.016505 -114.42048 -65.032415 -117.5382 -63.615271 C -120.59923 -62.198128 -124.11374 -61.489303 -128.08174 -61.489303 C -134.82734 -61.489303 -140.01414 -63.360105 -143.64203 -67.101363 C -147.21323 -70.842622 -148.99881 -76.255999 -148.99881 -83.341716 C -148.99881 -92.241376 -146.24977 -99.808775 -140.75125 -106.04421 C -135.19605 -112.33632 -127.17498 -116.95617 -116.68812 -119.90383 z M -92.710257 -101.28274 C -90.726256 -101.28274 -89.251962 -100.68772 -88.288304 -99.497319 C -87.267961 -98.363604 -86.758165 -96.776539 -86.758165 -94.735852 C -86.758165 -92.695166 -87.267961 -91.107584 -88.288304 -89.973869 C -89.251962 -88.840154 -90.726256 -88.273198 -92.710257 -88.273198 C -94.694257 -88.273198 -96.196098 -88.840154 -97.216442 -89.973869 C -98.180099 -91.16427 -98.661831 -92.751852 -98.661831 -94.735852 C -98.661831 -96.833225 -98.180099 -98.448354 -97.216442 -99.582068 C -96.196098 -100.71578 -94.694257 -101.28274 -92.710257 -101.28274 z M -128.33702 -89.293807 C -130.71782 -89.293807 -133.29693 -88.330343 -136.07453 -86.403028 L -136.07453 -85.297669 C -136.07453 -79.118924 -135.39429 -74.583787 -134.03383 -71.692814 C -132.67337 -68.801842 -130.51935 -67.356645 -127.57169 -67.356645 C -125.13421 -67.356645 -123.26341 -68.291529 -121.95963 -70.162159 C -120.65586 -72.032788 -120.0042 -74.697123 -120.0042 -78.154952 C -120.0042 -81.669468 -120.74109 -84.390447 -122.21492 -86.317762 C -123.63206 -88.301762 -125.67279 -89.293807 -128.33702 -89.293807 z M -92.710257 -74.498845 C -90.726256 -74.498845 -89.251962 -73.903824 -88.288304 -72.713424 C -87.267961 -71.579709 -86.758165 -69.992127 -86.758165 -67.951441 C -86.758165 -65.910754 -87.267961 -64.323689 -88.288304 -63.189974 C -89.251962 -62.05626 -90.726256 -61.489303 -92.710257 -61.489303 C -94.694257 -61.489303 -96.196098 -62.05626 -97.216442 -63.189974 C -98.180099 -64.380375 -98.661831 -65.96744 -98.661831 -67.951441 C -98.661831 -70.048813 -98.180099 -71.664459 -97.216442 -72.798173 C -96.196098 -73.931888 -94.694257 -74.498845 -92.710257 -74.498845 z " /></g></svg>
