<?xml version="1.0" encoding="UTF-8" standalone="no"?>
<!-- Created with Inkscape (http://www.inkscape.org/) -->

<svg
   width="172.6701mm"
   height="172.6701mm"
   viewBox="0 0 172.6701 172.6701"
   version="1.1"
   id="svg1"
   xml:space="preserve"
   xmlns="http://www.w3.org/2000/svg"
   xmlns:svg="http://www.w3.org/2000/svg"><defs
     id="defs1" /><g
     id="layer1"
     transform="translate(157.25102,198.81012)"><path
       id="path5"
       style="fill:#ffffff;fill-opacity:1;stroke-width:0.805188;stroke-linecap:round;stroke-linejoin:round"
       d="M -2.0863309 -198.17657 L -10.088943 -183.11289 L -10.930235 -165.68398 L -19.198981 -165.68398 L -11.423229 -155.47426 L -12.166336 -140.07934 C -28.353216 -157.12094 -50.823548 -166.77435 -74.327399 -166.78417 C -103.64471 -166.77397 -130.92652 -151.79225 -146.66717 -127.05894 L -157.25102 -127.05894 L -149.61996 -115.86014 L -157.25102 -26.140039 L -8.5138455 -26.140039 L 15.419061 -26.140039 L 8.0799737 -154.80195 L 15.419061 -165.68398 L 7.4593397 -165.68398 L 6.4490654 -183.39297 L -2.0863309 -198.17657 z M -83.43072 -192.21621 C -85.584619 -189.65499 -86.77489 -186.4211 -86.795372 -183.07465 C -86.842092 -175.15518 -80.459903 -168.69733 -72.540428 -168.65072 C -64.621155 -168.60402 -58.163395 -174.98588 -58.116503 -182.90515 C -58.102813 -186.26049 -59.266203 -189.5144 -61.404157 -192.10045 C -60.83125 -190.6836 -60.536835 -189.16959 -60.537027 -187.64129 C -60.575787 -181.07411 -65.930869 -175.78172 -72.498054 -175.82031 C -79.065241 -175.85911 -84.357627 -181.21415 -84.319038 -187.78134 C -84.309338 -189.30285 -84.007827 -190.80837 -83.43072 -192.21621 z M -122.51257 -119.81908 C -116.56057 -119.81908 -111.82744 -118.54381 -108.31292 -115.99295 C -104.79841 -113.44209 -103.04089 -110.01229 -103.04089 -105.70418 C -103.04089 -103.38006 -103.89107 -101.05611 -105.59164 -98.731991 C -107.29221 -96.407876 -109.53146 -94.50901 -112.30906 -93.035181 C -108.79454 -91.334609 -106.0455 -89.350519 -104.0615 -87.08309 C -102.02082 -84.81566 -101.00019 -81.896169 -101.00019 -78.324968 C -101.00019 -73.166566 -102.87099 -69.057034 -106.61225 -65.996005 C -110.35351 -62.991661 -115.39844 -61.489303 -121.74724 -61.489303 C -128.71959 -61.489303 -134.1049 -62.878373 -137.90285 -65.655974 C -141.64411 -68.433575 -143.51491 -72.401238 -143.51491 -77.55964 C -143.51491 -80.223869 -142.66421 -82.86014 -140.96364 -85.467684 C -139.26307 -88.131914 -136.88247 -90.483931 -133.82144 -92.524618 C -136.3723 -93.941761 -138.35639 -95.642631 -139.77353 -97.626632 C -141.19068 -99.610633 -141.89899 -102.07646 -141.89899 -105.02411 C -141.89899 -109.55897 -140.14199 -113.15871 -136.62747 -115.82294 C -133.11296 -118.48717 -128.40789 -119.81908 -122.51257 -119.81908 z M -53.894538 -119.73381 C -48.055907 -119.73381 -43.407483 -118.28861 -39.949653 -115.39764 C -36.491823 -112.56335 -34.762889 -108.56711 -34.762889 -103.40871 C -34.762889 -98.873849 -36.491823 -94.026912 -39.949653 -88.86851 C -43.407483 -83.766794 -49.104596 -77.616529 -57.040599 -70.41744 L -34.167577 -70.41744 L -34.167577 -62.084615 L -72.685639 -62.084615 L -72.685639 -67.016097 C -66.393523 -73.081471 -61.490458 -78.268272 -57.975943 -82.576388 C -54.461427 -86.884504 -51.938961 -90.852684 -50.408446 -94.480571 C -48.821245 -98.108458 -48.027713 -101.84955 -48.027713 -105.70418 C -48.027713 -111.82623 -50.06793 -114.88759 -54.149303 -114.88759 C -55.963246 -114.88759 -57.43754 -114.0369 -58.571255 -112.33633 C -59.70497 -110.69244 -60.27141 -108.65171 -60.27141 -106.21422 C -60.27141 -104.51365 -59.67639 -102.89852 -58.485989 -101.36801 C -59.449647 -100.46103 -60.55498 -99.752209 -61.802066 -99.242037 C -62.992466 -98.731866 -64.183024 -98.476709 -65.373424 -98.476709 C -67.41411 -98.476709 -69.114464 -99.10031 -70.474921 -100.3474 C -71.835379 -101.65117 -72.515624 -103.52197 -72.515624 -105.95946 C -72.515624 -108.567 -71.750671 -110.91953 -70.220157 -113.01691 C -68.689642 -115.11428 -66.53562 -116.75799 -63.758019 -117.94839 C -60.923732 -119.13879 -57.635797 -119.73381 -53.894538 -119.73381 z M -8.234276 -119.13901 L -5.4282457 -117.86364 L -5.4282457 -68.716769 C -4.3512168 -68.093226 -2.6503467 -67.526269 -0.32623159 -67.016097 C 1.9978835 -66.562611 3.8401052 -66.279392 5.2005628 -66.16602 L 4.9452813 -62.084615 L -29.746141 -62.084615 L -29.576126 -66.16602 C -24.531095 -66.732877 -20.67672 -67.583054 -18.012491 -68.716769 L -18.012491 -109.44555 L -29.40611 -109.44555 L -29.40611 -114.37703 C -25.778223 -114.66046 -22.037136 -115.19935 -18.182506 -115.99295 C -14.327876 -116.84324 -11.011877 -117.89193 -8.234276 -119.13901 z M -122.51257 -113.78224 C -124.78 -113.78224 -126.56558 -113.04535 -127.86935 -111.57152 C -129.17312 -110.15437 -129.8253 -108.22693 -129.8253 -105.78944 C -129.8253 -103.63538 -129.00319 -101.84981 -127.3593 -100.43266 C -125.65873 -99.072205 -123.19291 -97.711715 -119.96182 -96.351258 C -118.54468 -97.314915 -117.41077 -98.646824 -116.56048 -100.3474 C -115.71019 -102.04797 -115.28511 -103.86213 -115.28511 -105.78944 C -115.28511 -108.22693 -115.96535 -110.15437 -117.32581 -111.57152 C -118.62958 -113.04535 -120.35851 -113.78224 -122.51257 -113.78224 z M -85.950463 -101.28274 C -83.966462 -101.28274 -82.492684 -100.68772 -81.529027 -99.497319 C -80.508684 -98.363604 -79.998371 -96.776539 -79.998371 -94.735852 C -79.998371 -92.695166 -80.508684 -91.107584 -81.529027 -89.973869 C -82.492684 -88.840154 -83.966462 -88.273198 -85.950463 -88.273198 C -87.934463 -88.273198 -89.436304 -88.840154 -90.456647 -89.973869 C -91.420305 -91.16427 -91.902554 -92.751852 -91.902554 -94.735852 C -91.902554 -96.833225 -91.420305 -98.448354 -90.456647 -99.582068 C -89.436304 -100.71578 -87.934463 -101.28274 -85.950463 -101.28274 z M -125.99866 -89.038526 C -127.69924 -87.678068 -128.94644 -86.119583 -129.74004 -84.362325 C -130.53364 -82.605068 -130.93066 -80.50769 -130.93066 -78.070203 C -130.93066 -74.725745 -130.10855 -72.089474 -128.46466 -70.162159 C -126.82078 -68.291529 -124.58153 -67.356645 -121.74724 -67.356645 C -118.96964 -67.356645 -116.81562 -68.291529 -115.28511 -70.162159 C -113.69791 -72.032788 -112.90437 -74.640479 -112.90437 -77.984937 C -112.90437 -79.855566 -113.49939 -81.442631 -114.68979 -82.746403 C -115.82351 -84.106861 -117.26922 -85.212194 -119.02648 -86.06248 C -120.78374 -86.969452 -123.10769 -87.961497 -125.99866 -89.038526 z M -85.950463 -74.498845 C -83.966462 -74.498845 -82.492684 -73.903824 -81.529027 -72.713424 C -80.508684 -71.579709 -79.998371 -69.992127 -79.998371 -67.951441 C -79.998371 -65.910754 -80.508684 -64.323689 -81.529027 -63.189974 C -82.492684 -62.05626 -83.966462 -61.489303 -85.950463 -61.489303 C -87.934463 -61.489303 -89.436304 -62.05626 -90.456647 -63.189974 C -91.420305 -64.380375 -91.902554 -65.96744 -91.902554 -67.951441 C -91.902554 -70.048813 -91.420305 -71.664459 -90.456647 -72.798173 C -89.436304 -73.931888 -87.934463 -74.498845 -85.950463 -74.498845 z " /></g></svg>
