<?xml version="1.0" encoding="UTF-8" standalone="no"?>
<!-- Created with Inkscape (http://www.inkscape.org/) -->

<svg
   width="172.6701mm"
   height="172.6701mm"
   viewBox="0 0 172.6701 172.6701"
   version="1.1"
   id="svg1"
   xml:space="preserve"
   xmlns="http://www.w3.org/2000/svg"
   xmlns:svg="http://www.w3.org/2000/svg"><defs
     id="defs1" /><g
     id="layer1"
     transform="translate(157.25102,198.81012)"><path
       id="path5"
       style="fill:#ffffff;fill-opacity:1;stroke-width:0.805188;stroke-linecap:round;stroke-linejoin:round"
       d="M -2.0863309 -198.17657 L -10.088943 -183.11289 L -10.930235 -165.68398 L -19.198981 -165.68398 L -11.423229 -155.47426 L -12.166336 -140.07934 C -28.353216 -157.12094 -50.823548 -166.77435 -74.327399 -166.78417 C -103.64471 -166.77397 -130.92652 -151.79225 -146.66717 -127.05894 L -157.25102 -127.05894 L -149.61996 -115.86014 L -157.25102 -26.140039 L -8.5138455 -26.140039 L 15.419061 -26.140039 L 8.0799737 -154.80195 L 15.419061 -165.68398 L 7.4593397 -165.68398 L 6.4490654 -183.39297 L -2.0863309 -198.17657 z M -83.43072 -192.21621 C -85.584619 -189.65499 -86.77489 -186.4211 -86.795372 -183.07465 C -86.842092 -175.15518 -80.459903 -168.69733 -72.540428 -168.65072 C -64.621155 -168.60402 -58.163395 -174.98588 -58.116503 -182.90515 C -58.102813 -186.26049 -59.266203 -189.5144 -61.404157 -192.10045 C -60.83125 -190.6836 -60.536835 -189.16959 -60.537027 -187.64129 C -60.575787 -181.07411 -65.930869 -175.78172 -72.498054 -175.82031 C -79.065241 -175.85911 -84.357627 -181.21415 -84.319038 -187.78134 C -84.309338 -189.30285 -84.007827 -190.80837 -83.43072 -192.21621 z M -2.7074816 -119.90383 L -0.66677928 -115.65241 C -12.117298 -110.72075 -19.004452 -103.12528 -21.328567 -92.865166 C -18.040795 -94.452366 -14.922791 -95.245899 -11.975133 -95.245899 C -6.3065594 -95.245899 -1.8571639 -93.715477 1.373923 -90.654448 C 4.6616957 -87.593418 6.3059217 -83.455306 6.3059217 -78.240218 C 6.3059217 -75.009132 5.4271647 -72.118221 3.6699069 -69.567363 C 1.9693349 -67.016505 -0.43984347 -65.032415 -3.5575589 -63.615271 C -6.6185886 -62.198128 -10.1331 -61.489303 -14.101101 -61.489303 C -20.846704 -61.489303 -26.033505 -63.360105 -29.661392 -67.101363 C -33.232593 -70.842622 -35.018171 -76.255999 -35.018171 -83.341716 C -35.018171 -92.241376 -32.269129 -99.808775 -26.770612 -106.04421 C -21.21541 -112.33632 -13.194343 -116.95617 -2.7074816 -119.90383 z M -126.67873 -119.73381 C -122.99415 -119.73381 -119.7348 -119.11073 -116.90051 -117.86364 C -114.06622 -116.67324 -111.85556 -114.97237 -110.26836 -112.76163 C -108.68116 -110.60757 -107.88762 -108.11368 -107.88762 -105.27939 C -107.88762 -102.10499 -108.82303 -99.384015 -110.69366 -97.116586 C -112.56428 -94.849156 -115.34191 -93.120223 -119.02648 -91.929822 C -114.37825 -90.909479 -111.11889 -89.237189 -109.24827 -86.913074 C -107.37764 -84.588959 -106.44224 -81.442892 -106.44224 -77.474891 C -106.44224 -74.017061 -107.49092 -71.069506 -109.5883 -68.632019 C -111.62898 -66.194533 -114.29332 -64.380375 -117.58109 -63.189974 C -120.86886 -61.999574 -124.27009 -61.404554 -127.7846 -61.404554 C -132.88632 -61.404554 -137.22243 -62.453243 -140.79363 -64.550615 C -144.30814 -66.647987 -146.06566 -69.510317 -146.06566 -73.138204 C -146.06566 -75.235577 -145.44206 -76.851222 -144.19497 -77.984937 C -142.94788 -79.175337 -141.38888 -79.770358 -139.51825 -79.770358 C -137.59094 -79.770358 -135.63543 -79.005405 -133.65143 -77.474891 C -134.1616 -76.397862 -134.41675 -75.094016 -134.41675 -73.563501 C -134.41675 -71.749558 -133.87786 -70.275781 -132.80083 -69.142066 C -131.66712 -68.008351 -129.99535 -67.441394 -127.7846 -67.441394 C -122.90963 -67.441394 -120.47187 -70.814037 -120.47187 -77.55964 C -120.47187 -81.244213 -121.66243 -84.10706 -124.04323 -86.147746 C -126.36734 -88.188433 -129.68334 -89.208541 -133.99146 -89.208541 L -133.99146 -94.480571 C -125.65865 -95.1608 -121.49248 -98.760535 -121.49248 -105.27939 C -121.49248 -108.56717 -122.00228 -110.97583 -123.02262 -112.50634 C -124.04296 -114.09354 -125.43203 -114.88759 -127.18929 -114.88759 C -129.28666 -114.88759 -130.87373 -114.15071 -131.95076 -112.67688 C -132.9711 -111.20305 -133.48141 -109.41747 -133.48141 -107.3201 C -133.48141 -105.44947 -133.08439 -103.77718 -132.29079 -102.30335 C -133.87799 -100.60278 -135.91872 -99.752084 -138.41289 -99.752084 C -140.68032 -99.752084 -142.43784 -100.43233 -143.68492 -101.79279 C -144.93201 -103.15324 -145.55509 -104.91076 -145.55509 -107.06482 C -145.55509 -109.8991 -144.59163 -112.25164 -142.66431 -114.12227 C -140.68031 -116.04958 -138.24307 -117.46671 -135.3521 -118.37369 C -132.40444 -119.28066 -129.51301 -119.73381 -126.67873 -119.73381 z M -59.336066 -119.73381 C -53.497436 -119.73381 -48.849528 -118.28861 -45.391698 -115.39764 C -41.933868 -112.56335 -40.204934 -108.56711 -40.204934 -103.40871 C -40.204934 -98.873849 -41.933868 -94.026912 -45.391698 -88.86851 C -48.849528 -83.766794 -54.546125 -77.616529 -62.482128 -70.41744 L -39.609622 -70.41744 L -39.609622 -62.084615 L -78.127684 -62.084615 L -78.127684 -67.016097 C -71.835568 -73.081471 -66.931987 -78.268272 -63.417471 -82.576388 C -59.902955 -86.884504 -57.380489 -90.852684 -55.849974 -94.480571 C -54.262774 -98.108458 -53.469241 -101.84955 -53.469241 -105.70418 C -53.469241 -111.82623 -55.509975 -114.88759 -59.591348 -114.88759 C -61.405291 -114.88759 -62.879069 -114.0369 -64.012784 -112.33633 C -65.146498 -110.69244 -65.713455 -108.65171 -65.713455 -106.21422 C -65.713455 -104.51365 -65.118435 -102.89852 -63.928034 -101.36801 C -64.891692 -100.46103 -65.997025 -99.752209 -67.244111 -99.242037 C -68.434511 -98.731866 -69.624552 -98.476709 -70.814952 -98.476709 C -72.855639 -98.476709 -74.556509 -99.10031 -75.916966 -100.3474 C -77.277424 -101.65117 -77.957669 -103.52197 -77.957669 -105.95946 C -77.957669 -108.567 -77.1922 -110.91953 -75.661685 -113.01691 C -74.13117 -115.11428 -71.977148 -116.75799 -69.199547 -117.94839 C -66.36526 -119.13879 -63.077325 -119.73381 -59.336066 -119.73381 z M -91.391991 -101.28274 C -89.40799 -101.28274 -87.934213 -100.68772 -86.970555 -99.497319 C -85.950212 -98.363604 -85.439899 -96.776539 -85.439899 -94.735852 C -85.439899 -92.695166 -85.950212 -91.107584 -86.970555 -89.973869 C -87.934213 -88.840154 -89.40799 -88.273198 -91.391991 -88.273198 C -93.375992 -88.273198 -94.878349 -88.840154 -95.898693 -89.973869 C -96.86235 -91.16427 -97.344082 -92.751852 -97.344082 -94.735852 C -97.344082 -96.833225 -96.86235 -98.448354 -95.898693 -99.582068 C -94.878349 -100.71578 -93.375992 -101.28274 -91.391991 -101.28274 z M -14.356383 -89.293807 C -16.737184 -89.293807 -19.316294 -88.330343 -22.093895 -86.403028 L -22.093895 -85.297669 C -22.093895 -79.118924 -21.41365 -74.583787 -20.053193 -71.692814 C -18.692735 -68.801842 -16.538713 -67.356645 -13.591055 -67.356645 C -11.153568 -67.356645 -9.2827664 -68.291529 -7.9789944 -70.162159 C -6.6752225 -72.032788 -6.0235582 -74.697123 -6.0235582 -78.154952 C -6.0235582 -81.669468 -6.7604469 -84.390447 -8.234276 -86.317762 C -9.6514194 -88.301762 -11.692153 -89.293807 -14.356383 -89.293807 z M -91.391991 -74.498845 C -89.40799 -74.498845 -87.934213 -73.903824 -86.970555 -72.713424 C -85.950212 -71.579709 -85.439899 -69.992127 -85.439899 -67.951441 C -85.439899 -65.910754 -85.950212 -64.323689 -86.970555 -63.189974 C -87.934213 -62.05626 -89.40799 -61.489303 -91.391991 -61.489303 C -93.375992 -61.489303 -94.878349 -62.05626 -95.898693 -63.189974 C -96.86235 -64.380375 -97.344082 -65.96744 -97.344082 -67.951441 C -97.344082 -70.048813 -96.86235 -71.664459 -95.898693 -72.798173 C -94.878349 -73.931888 -93.375992 -74.498845 -91.391991 -74.498845 z " /></g></svg>
