<?xml version="1.0" encoding="UTF-8" standalone="no"?>
<!-- Created with Inkscape (http://www.inkscape.org/) -->

<svg
   width="172.6701mm"
   height="172.6701mm"
   viewBox="0 0 172.6701 172.6701"
   version="1.1"
   id="svg1"
   xml:space="preserve"
   xmlns="http://www.w3.org/2000/svg"
   xmlns:svg="http://www.w3.org/2000/svg"><defs
     id="defs1" /><g
     id="layer1"
     transform="translate(157.25102,198.81012)"><path
       id="path5"
       style="fill:#ffffff;fill-opacity:1;stroke-width:0.805188;stroke-linecap:round;stroke-linejoin:round"
       d="M -2.0863309 -198.17657 L -10.088943 -183.11289 L -10.930235 -165.68398 L -19.198981 -165.68398 L -11.423229 -155.47426 L -12.166336 -140.07934 C -28.353216 -157.12094 -50.823548 -166.77435 -74.327399 -166.78417 C -103.64471 -166.77397 -130.92652 -151.79225 -146.66717 -127.05894 L -157.25102 -127.05894 L -149.61996 -115.86014 L -157.25102 -26.140039 L -8.5138455 -26.140039 L 15.419061 -26.140039 L 8.0799737 -154.80195 L 15.419061 -165.68398 L 7.4593397 -165.68398 L 6.4490654 -183.39297 L -2.0863309 -198.17657 z M -83.43072 -192.21621 C -85.584619 -189.65499 -86.77489 -186.4211 -86.795372 -183.07465 C -86.842092 -175.15518 -80.459903 -168.69733 -72.540428 -168.65072 C -64.621155 -168.60402 -58.163395 -174.98588 -58.116503 -182.90515 C -58.102813 -186.26049 -59.266203 -189.5144 -61.404157 -192.10045 C -60.83125 -190.6836 -60.536835 -189.16959 -60.537027 -187.64129 C -60.575787 -181.07411 -65.930869 -175.78172 -72.498054 -175.82031 C -79.065241 -175.85911 -84.357627 -181.21415 -84.319038 -187.78134 C -84.309338 -189.30285 -84.007827 -190.80837 -83.43072 -192.21621 z M -126.93401 -120.07436 C -122.39915 -119.84761 -118.71471 -118.85557 -115.88042 -117.09831 L -136.11691 -83.767013 L -123.10788 -83.767013 L -122.25729 -97.626632 C -120.44335 -97.626632 -119.14002 -97.995076 -118.34642 -98.731991 C -117.49613 -99.468905 -116.84395 -100.71611 -116.39046 -102.47336 L -111.54373 -102.47336 L -111.629 -83.341716 C -109.47494 -82.718173 -106.75396 -82.066508 -103.46619 -81.38628 L -103.89149 -77.304875 L -112.0543 -77.304875 L -112.0543 -62.084615 L -123.10788 -62.084615 L -123.10788 -77.304875 L -147.68106 -77.304875 L -148.36112 -80.36567 L -126.93401 -120.07436 z M -12.825727 -119.73381 C -9.1411543 -119.73381 -5.8817993 -119.11073 -3.0475125 -117.86364 C -0.21322576 -116.67324 1.997957 -114.97237 3.5851576 -112.76163 C 5.1723582 -110.60757 5.9658908 -108.11368 5.9658908 -105.27939 C 5.9658908 -102.10499 5.0304898 -99.384015 3.1598605 -97.116586 C 1.2892313 -94.849156 -1.4883914 -93.120223 -5.1729642 -91.929822 C -0.5247339 -90.909479 2.7346211 -89.237189 4.6052503 -86.913074 C 6.4758796 -84.588959 7.4112806 -81.442892 7.4112806 -77.474891 C 7.4112806 -74.017061 6.3625916 -71.069506 4.2652194 -68.632019 C 2.224533 -66.194533 -0.43980173 -64.380375 -3.7275744 -63.189974 C -7.015347 -61.999574 -10.41657 -61.404554 -13.931086 -61.404554 C -19.032802 -61.404554 -23.36891 -62.453243 -26.940111 -64.550615 C -30.454627 -66.647987 -32.212141 -69.510317 -32.212141 -73.138204 C -32.212141 -75.235577 -31.58854 -76.851222 -30.341454 -77.984937 C -29.094368 -79.175337 -27.535366 -79.770358 -25.664737 -79.770358 C -23.737422 -79.770358 -21.781912 -79.005405 -19.797911 -77.474891 C -20.308083 -76.397862 -20.563239 -75.094016 -20.563239 -73.563501 C -20.563239 -71.749558 -20.024863 -70.275781 -18.947834 -69.142066 C -17.814119 -68.008351 -16.14183 -67.441394 -13.931086 -67.441394 C -9.0561127 -67.441394 -6.618354 -70.814037 -6.618354 -77.55964 C -6.618354 -81.244213 -7.8089113 -84.10706 -10.189712 -86.147746 C -12.513827 -88.188433 -15.829826 -89.208541 -20.137942 -89.208541 L -20.137942 -94.480571 C -11.805139 -95.1608 -7.6389635 -98.760535 -7.6389635 -105.27939 C -7.6389635 -108.56717 -8.1492762 -110.97583 -9.1696194 -112.50634 C -10.189963 -114.09354 -11.578516 -114.88759 -13.335773 -114.88759 C -15.433146 -114.88759 -17.020211 -114.15071 -18.09724 -112.67688 C -19.117583 -111.20305 -19.627896 -109.41747 -19.627896 -107.3201 C -19.627896 -105.44947 -19.230871 -103.77718 -18.437271 -102.30335 C -20.024471 -100.60278 -22.065205 -99.752084 -24.559378 -99.752084 C -26.826807 -99.752084 -28.584321 -100.43233 -29.831407 -101.79279 C -31.078494 -103.15324 -31.702094 -104.91076 -31.702094 -107.06482 C -31.702094 -109.8991 -30.738113 -112.25164 -28.810798 -114.12227 C -26.826797 -116.04958 -24.389555 -117.46671 -21.498583 -118.37369 C -18.550924 -119.28066 -15.660014 -119.73381 -12.825727 -119.73381 z M -68.434219 -119.05375 L -64.182799 -118.969 C -58.174111 -118.85563 -54.99998 -118.79847 -54.659866 -118.79847 L -42.585668 -118.969 L -40.119668 -117.18306 L -40.884996 -110.72092 L -61.972081 -110.72092 L -63.162706 -96.521273 C -60.215048 -97.258188 -57.550713 -97.626632 -55.169912 -97.626632 C -49.558025 -97.626632 -44.994824 -96.124274 -41.480309 -93.11993 C -37.909107 -90.172272 -36.12353 -85.836165 -36.12353 -80.110905 C -36.12353 -76.539704 -36.973706 -73.336993 -38.674278 -70.502706 C -40.318165 -67.66842 -42.69928 -65.429173 -45.816995 -63.785287 C -48.93471 -62.198086 -52.619154 -61.404554 -56.870584 -61.404554 C -60.328414 -61.404554 -63.474481 -61.886286 -66.308767 -62.849943 C -69.086368 -63.813601 -71.268454 -65.14551 -72.855655 -66.846082 C -74.442855 -68.60334 -75.236388 -70.559366 -75.236388 -72.713424 C -75.236388 -74.980853 -74.613304 -76.709787 -73.366218 -77.900188 C -72.119132 -79.147274 -70.588194 -79.770358 -68.77425 -79.770358 C -67.753907 -79.770358 -66.733798 -79.572362 -65.713455 -79.175562 C -64.636426 -78.778762 -63.672961 -78.211805 -62.822675 -77.474891 C -63.332847 -76.28449 -63.587486 -75.037289 -63.587486 -73.733517 C -63.587486 -71.862888 -63.04911 -70.332466 -61.972081 -69.142066 C -60.838366 -67.951665 -59.138013 -67.356645 -56.870584 -67.356645 C -51.768868 -67.356645 -49.217821 -71.608045 -49.217821 -80.110905 C -49.217821 -84.135593 -50.011354 -87.054567 -51.598554 -88.86851 C -53.185755 -90.73914 -55.311713 -91.674541 -57.975943 -91.674541 C -59.619829 -91.674541 -61.376826 -91.36274 -63.247456 -90.739197 C -65.118085 -90.115654 -66.960306 -89.236897 -68.77425 -88.103182 L -73.450967 -92.609884 L -71.240249 -116.75776 L -68.434219 -119.05375 z M -88.756493 -101.28274 C -86.772492 -101.28274 -85.298198 -100.68772 -84.334541 -99.497319 C -83.314197 -98.363604 -82.804401 -96.776539 -82.804401 -94.735852 C -82.804401 -92.695166 -83.314197 -91.107584 -84.334541 -89.973869 C -85.298198 -88.840154 -86.772492 -88.273198 -88.756493 -88.273198 C -90.740494 -88.273198 -92.242334 -88.840154 -93.262678 -89.973869 C -94.226335 -91.16427 -94.708068 -92.751852 -94.708068 -94.735852 C -94.708068 -96.833225 -94.226335 -98.448354 -93.262678 -99.582068 C -92.242334 -100.71578 -90.740494 -101.28274 -88.756493 -101.28274 z M -88.756493 -74.498845 C -86.772492 -74.498845 -85.298198 -73.903824 -84.334541 -72.713424 C -83.314197 -71.579709 -82.804401 -69.992127 -82.804401 -67.951441 C -82.804401 -65.910754 -83.314197 -64.323689 -84.334541 -63.189974 C -85.298198 -62.05626 -86.772492 -61.489303 -88.756493 -61.489303 C -90.740494 -61.489303 -92.242334 -62.05626 -93.262678 -63.189974 C -94.226335 -64.380375 -94.708068 -65.96744 -94.708068 -67.951441 C -94.708068 -70.048813 -94.226335 -71.664459 -93.262678 -72.798173 C -92.242334 -73.931888 -90.740494 -74.498845 -88.756493 -74.498845 z " /></g></svg>
