<?xml version="1.0" encoding="UTF-8" standalone="no"?>
<!-- Created with Inkscape (http://www.inkscape.org/) -->

<svg
   width="172.6701mm"
   height="172.6701mm"
   viewBox="0 0 172.6701 172.6701"
   version="1.1"
   id="svg1"
   xml:space="preserve"
   xmlns="http://www.w3.org/2000/svg"
   xmlns:svg="http://www.w3.org/2000/svg"><defs
     id="defs1" /><g
     id="layer1"
     transform="translate(157.25102,198.81012)"><path
       id="path5"
       style="fill:#ffffff;fill-opacity:1;stroke-width:0.805188;stroke-linecap:round;stroke-linejoin:round"
       d="M -2.0863309 -198.17657 L -10.088943 -183.11289 L -10.930235 -165.68398 L -19.198981 -165.68398 L -11.423229 -155.47426 L -12.166336 -140.07934 C -28.353216 -157.12094 -50.823548 -166.77435 -74.327399 -166.78417 C -103.64471 -166.77397 -130.92652 -151.79225 -146.66717 -127.05894 L -157.25102 -127.05894 L -149.61996 -115.86014 L -157.25102 -26.140039 L -8.5138455 -26.140039 L 15.419061 -26.140039 L 8.0799737 -154.80195 L 15.419061 -165.68398 L 7.4593397 -165.68398 L 6.4490654 -183.39297 L -2.0863309 -198.17657 z M -83.43072 -192.21621 C -85.584619 -189.65499 -86.77489 -186.4211 -86.795372 -183.07465 C -86.842092 -175.15518 -80.459903 -168.69733 -72.540428 -168.65072 C -64.621155 -168.60402 -58.163395 -174.98588 -58.116503 -182.90515 C -58.102813 -186.26049 -59.266203 -189.5144 -61.404157 -192.10045 C -60.83125 -190.6836 -60.536835 -189.16959 -60.537027 -187.64129 C -60.575787 -181.07411 -65.930869 -175.78172 -72.498054 -175.82031 C -79.065241 -175.85911 -84.357627 -181.21415 -84.319038 -187.78134 C -84.309338 -189.30285 -84.007827 -190.80837 -83.43072 -192.21621 z M -60.144286 -119.73381 C -56.459713 -119.73381 -53.199841 -119.11073 -50.365555 -117.86364 C -47.531268 -116.67324 -45.320602 -114.97237 -43.733401 -112.76163 C -42.146201 -110.60757 -41.352668 -108.11368 -41.352668 -105.27939 C -41.352668 -102.10499 -42.288069 -99.384015 -44.158698 -97.116586 C -46.029327 -94.849156 -48.80695 -93.120223 -52.491523 -91.929822 C -47.843293 -90.909479 -44.583938 -89.237189 -42.713308 -86.913074 C -40.842679 -84.588959 -39.907278 -81.442892 -39.907278 -77.474891 C -39.907278 -74.017061 -40.955967 -71.069506 -43.053339 -68.632019 C -45.094026 -66.194533 -47.75836 -64.380375 -51.046133 -63.189974 C -54.333906 -61.999574 -57.735129 -61.404554 -61.249645 -61.404554 C -66.351361 -61.404554 -70.687468 -62.453243 -74.25867 -64.550615 C -77.773185 -66.647987 -79.530699 -69.510317 -79.530699 -73.138204 C -79.530699 -75.235577 -78.907099 -76.851222 -77.660013 -77.984937 C -76.412926 -79.175337 -74.853925 -79.770358 -72.983295 -79.770358 C -71.05598 -79.770358 -69.100471 -79.005405 -67.11647 -77.474891 C -67.626642 -76.397862 -67.881798 -75.094016 -67.881798 -73.563501 C -67.881798 -71.749558 -67.342905 -70.275781 -66.265876 -69.142066 C -65.132161 -68.008351 -63.460388 -67.441394 -61.249645 -67.441394 C -56.374671 -67.441394 -53.936913 -70.814037 -53.936913 -77.55964 C -53.936913 -81.244213 -55.12747 -84.10706 -57.508271 -86.147746 C -59.832386 -88.188433 -63.148385 -89.208541 -67.456501 -89.208541 L -67.456501 -94.480571 C -59.123698 -95.1608 -54.957522 -98.760535 -54.957522 -105.27939 C -54.957522 -108.56717 -55.467318 -110.97583 -56.487661 -112.50634 C -57.508005 -114.09354 -58.897074 -114.88759 -60.654332 -114.88759 C -62.751704 -114.88759 -64.33877 -114.15071 -65.415799 -112.67688 C -66.436142 -111.20305 -66.946455 -109.41747 -66.946455 -107.3201 C -66.946455 -105.44947 -66.54943 -103.77718 -65.75583 -102.30335 C -67.34303 -100.60278 -69.383764 -99.752084 -71.877937 -99.752084 C -74.145366 -99.752084 -75.90288 -100.43233 -77.149966 -101.79279 C -78.397052 -103.15324 -79.020653 -104.91076 -79.020653 -107.06482 C -79.020653 -109.8991 -78.056672 -112.25164 -76.129357 -114.12227 C -74.145356 -116.04958 -71.708114 -117.46671 -68.817141 -118.37369 C -65.869483 -119.28066 -62.978573 -119.73381 -60.144286 -119.73381 z M -15.248835 -119.56379 C -8.5032325 -119.56379 -3.3450118 -117.69351 0.22618947 -113.95225 C 3.8540765 -110.21099 5.6682346 -104.7971 5.6682346 -97.711381 C 5.6682346 -88.811721 2.8906119 -81.216258 -2.6645901 -74.924142 C -8.1631065 -68.688711 -16.156111 -64.09693 -26.642971 -61.149272 L -28.683674 -65.400692 C -23.0151 -67.838179 -18.4519 -70.956182 -14.99407 -74.754126 C -11.53624 -78.608756 -9.2403499 -83.086732 -8.1066352 -88.188448 C -11.281036 -86.601248 -14.370459 -85.807715 -17.374803 -85.807715 C -23.043377 -85.807715 -27.521353 -87.338137 -30.809125 -90.399166 C -34.040212 -93.460196 -35.655858 -97.598308 -35.655858 -102.8134 C -35.655858 -106.04448 -34.805681 -108.93539 -33.105109 -111.48625 C -31.347852 -114.03711 -28.938673 -116.0212 -25.877644 -117.43834 C -22.759928 -118.85549 -19.216836 -119.56379 -15.248835 -119.56379 z M -144.15259 -118.88373 L -139.98592 -118.88373 C -137.83187 -118.82705 -133.1268 -118.79847 -125.87102 -118.79847 C -118.33182 -118.79847 -113.42876 -118.82705 -111.16133 -118.88373 L -107.07992 -118.88373 L -105.37925 -115.22762 C -106.45628 -113.52705 -108.49701 -109.84261 -111.50136 -104.17404 C -114.5057 -98.505463 -117.33997 -92.496548 -120.0042 -86.147746 C -122.66843 -79.798944 -124.00034 -74.838719 -124.00034 -71.267517 C -124.00034 -68.433231 -123.00881 -66.307789 -121.02481 -64.890646 C -122.95212 -62.566531 -125.41794 -61.404554 -128.42229 -61.404554 C -131.19989 -61.404554 -133.35391 -62.169506 -134.88443 -63.700021 C -136.41494 -65.230536 -137.17989 -67.356494 -137.17989 -70.077409 C -137.17989 -73.478553 -136.3583 -77.077772 -134.71441 -80.875717 C -133.07052 -84.730347 -130.12245 -89.945728 -125.87102 -96.521273 L -115.83804 -111.9963 L -135.22446 -111.9963 C -136.01806 -109.44544 -136.49979 -106.44124 -136.66985 -102.98341 C -137.69019 -102.81335 -138.73888 -102.72813 -139.81591 -102.72813 C -140.94962 -102.72813 -142.05496 -102.81335 -143.13199 -102.98341 L -145.51272 -117.60836 L -144.15259 -118.88373 z M -15.759398 -113.69697 C -18.196885 -113.69697 -20.06717 -112.76157 -21.370942 -110.89094 C -22.674714 -109.02031 -23.326895 -106.35597 -23.326895 -102.89814 C -23.326895 -99.383629 -22.61807 -96.634587 -21.200926 -94.650586 C -19.727097 -92.723271 -17.6583 -91.759807 -14.99407 -91.759807 C -12.669955 -91.759807 -10.090845 -92.723271 -7.2565579 -94.650586 L -7.2565579 -95.755945 C -7.2565579 -101.93469 -7.9368026 -106.46931 -9.2972602 -109.36028 C -10.657718 -112.25126 -12.81174 -113.69697 -15.759398 -113.69697 z M -91.859663 -101.28274 C -89.875662 -101.28274 -88.401885 -100.68772 -87.438227 -99.497319 C -86.417884 -98.363604 -85.907571 -96.776539 -85.907571 -94.735852 C -85.907571 -92.695166 -86.417884 -91.107584 -87.438227 -89.973869 C -88.401885 -88.840154 -89.875662 -88.273198 -91.859663 -88.273198 C -93.843663 -88.273198 -95.346021 -88.840154 -96.366364 -89.973869 C -97.330022 -91.16427 -97.811754 -92.751852 -97.811754 -94.735852 C -97.811754 -96.833225 -97.330022 -98.448354 -96.366364 -99.582068 C -95.346021 -100.71578 -93.843663 -101.28274 -91.859663 -101.28274 z M -91.859663 -74.498845 C -89.875662 -74.498845 -88.401885 -73.903824 -87.438227 -72.713424 C -86.417884 -71.579709 -85.907571 -69.992127 -85.907571 -67.951441 C -85.907571 -65.910754 -86.417884 -64.323689 -87.438227 -63.189974 C -88.401885 -62.05626 -89.875662 -61.489303 -91.859663 -61.489303 C -93.843663 -61.489303 -95.346021 -62.05626 -96.366364 -63.189974 C -97.330022 -64.380375 -97.811754 -65.96744 -97.811754 -67.951441 C -97.811754 -70.048813 -97.330022 -71.664459 -96.366364 -72.798173 C -95.346021 -73.931888 -93.843663 -74.498845 -91.859663 -74.498845 z " /></g></svg>
