<?xml version="1.0" encoding="UTF-8" standalone="no"?>
<!-- Created with Inkscape (http://www.inkscape.org/) -->

<svg
   width="172.6701mm"
   height="172.6701mm"
   viewBox="0 0 172.6701 172.6701"
   version="1.1"
   id="svg1"
   xml:space="preserve"
   xmlns="http://www.w3.org/2000/svg"
   xmlns:svg="http://www.w3.org/2000/svg"><defs
     id="defs1" /><g
     id="layer1"
     transform="translate(157.25102,198.81012)"><path
       id="path5"
       style="fill:#ffffff;fill-opacity:1;stroke-width:0.805188;stroke-linecap:round;stroke-linejoin:round"
       d="M -2.0863309 -198.17657 L -10.088943 -183.11289 L -10.930235 -165.68398 L -19.198981 -165.68398 L -11.423229 -155.47426 L -12.166336 -140.07934 C -28.353216 -157.12094 -50.823548 -166.77435 -74.327399 -166.78417 C -103.64471 -166.77397 -130.92652 -151.79225 -146.66717 -127.05894 L -157.25102 -127.05894 L -149.61996 -115.86014 L -157.25102 -26.140039 L -8.5138455 -26.140039 L 15.419061 -26.140039 L 8.0799737 -154.80195 L 15.419061 -165.68398 L 7.4593397 -165.68398 L 6.4490654 -183.39297 L -2.0863309 -198.17657 z M -83.43072 -192.21621 C -85.584619 -189.65499 -86.77489 -186.4211 -86.795372 -183.07465 C -86.842092 -175.15518 -80.459903 -168.69733 -72.540428 -168.65072 C -64.621155 -168.60402 -58.163395 -174.98588 -58.116503 -182.90515 C -58.102813 -186.26049 -59.266203 -189.5144 -61.404157 -192.10045 C -60.83125 -190.6836 -60.536835 -189.16959 -60.537027 -187.64129 C -60.575787 -181.07411 -65.930869 -175.78172 -72.498054 -175.82031 C -79.065241 -175.85911 -84.357627 -181.21415 -84.319038 -187.78134 C -84.309338 -189.30285 -84.007827 -190.80837 -83.43072 -192.21621 z M -2.7498563 -119.90383 L -0.70915395 -115.65241 C -12.159672 -110.72075 -19.046827 -103.12528 -21.370942 -92.865166 C -18.083169 -94.452366 -14.965683 -95.245899 -12.018024 -95.245899 C -6.3494509 -95.245899 -1.8995385 -93.715477 1.3315484 -90.654448 C 4.619321 -87.593418 6.2630303 -83.455306 6.2630303 -78.240218 C 6.2630303 -75.009132 5.38479 -72.118221 3.6275322 -69.567363 C 1.9269602 -67.016505 -0.48221815 -65.032415 -3.5999336 -63.615271 C -6.6609633 -62.198128 -10.175475 -61.489303 -14.143476 -61.489303 C -20.889079 -61.489303 -26.07588 -63.360105 -29.703767 -67.101363 C -33.274968 -70.842622 -35.060546 -76.255999 -35.060546 -83.341716 C -35.060546 -92.241376 -32.311503 -99.808775 -26.812987 -106.04421 C -21.257785 -112.33632 -13.236717 -116.95617 -2.7498563 -119.90383 z M -123.83032 -119.81908 C -117.87832 -119.81908 -113.14519 -118.54381 -109.63067 -115.99295 C -106.11616 -113.44209 -104.35916 -110.01229 -104.35916 -105.70418 C -104.35916 -103.38006 -105.20933 -101.05611 -106.90991 -98.731991 C -108.61048 -96.407876 -110.84973 -94.50901 -113.62733 -93.035181 C -110.11281 -91.334609 -107.36325 -89.350519 -105.37925 -87.08309 C -103.33856 -84.81566 -102.31846 -81.896169 -102.31846 -78.324968 C -102.31846 -73.166566 -104.18874 -69.057034 -107.93 -65.996005 C -111.67126 -62.991661 -116.71671 -61.489303 -123.06551 -61.489303 C -130.03786 -61.489303 -135.42265 -62.878373 -139.2206 -65.655974 C -142.96185 -68.433575 -144.83266 -72.401238 -144.83266 -77.55964 C -144.83266 -80.223869 -143.98248 -82.86014 -142.28191 -85.467684 C -140.58134 -88.131914 -138.20022 -90.483931 -135.13919 -92.524618 C -137.69005 -93.941761 -139.67414 -95.642631 -141.09128 -97.626632 C -142.50843 -99.610633 -143.21725 -102.07646 -143.21725 -105.02411 C -143.21725 -109.55897 -141.45974 -113.15871 -137.94522 -115.82294 C -134.43071 -118.48717 -129.72564 -119.81908 -123.83032 -119.81908 z M -52.661538 -119.13901 L -49.855508 -117.86364 L -49.855508 -68.716769 C -48.778479 -68.093226 -47.078126 -67.526269 -44.754011 -67.016097 C -42.429896 -66.562611 -40.587674 -66.279392 -39.227216 -66.16602 L -39.481981 -62.084615 L -74.17392 -62.084615 L -74.003905 -66.16602 C -68.958875 -66.732877 -65.103982 -67.583054 -62.439753 -68.716769 L -62.439753 -109.44555 L -73.833889 -109.44555 L -73.833889 -114.37703 C -70.206002 -114.66046 -66.464398 -115.19935 -62.609768 -115.99295 C -58.755138 -116.84324 -55.439139 -117.89193 -52.661538 -119.13901 z M -123.83032 -113.78224 C -126.09775 -113.78224 -127.88333 -113.04535 -129.1871 -111.57152 C -130.49087 -110.15437 -131.14305 -108.22693 -131.14305 -105.78944 C -131.14305 -103.63538 -130.32094 -101.84981 -128.67705 -100.43266 C -126.97648 -99.072205 -124.51066 -97.711715 -121.27957 -96.351258 C -119.86243 -97.314915 -118.72903 -98.646824 -117.87875 -100.3474 C -117.02846 -102.04797 -116.60286 -103.86213 -116.60286 -105.78944 C -116.60286 -108.22693 -117.2831 -110.15437 -118.64356 -111.57152 C -119.94733 -113.04535 -121.67626 -113.78224 -123.83032 -113.78224 z M -87.268212 -101.28274 C -85.284211 -101.28274 -83.810434 -100.68772 -82.846776 -99.497319 C -81.826433 -98.363604 -81.31612 -96.776539 -81.31612 -94.735852 C -81.31612 -92.695166 -81.826433 -91.107584 -82.846776 -89.973869 C -83.810434 -88.840154 -85.284211 -88.273198 -87.268212 -88.273198 C -89.252212 -88.273198 -90.75457 -88.840154 -91.774913 -89.973869 C -92.738571 -91.16427 -93.220303 -92.751852 -93.220303 -94.735852 C -93.220303 -96.833225 -92.738571 -98.448354 -91.774913 -99.582068 C -90.75457 -100.71578 -89.252212 -101.28274 -87.268212 -101.28274 z M -14.398758 -89.293807 C -16.779559 -89.293807 -19.358669 -88.330343 -22.13627 -86.403028 L -22.13627 -85.297669 C -22.13627 -79.118924 -21.456025 -74.583787 -20.095568 -71.692814 C -18.73511 -68.801842 -16.581088 -67.356645 -13.63343 -67.356645 C -11.195943 -67.356645 -9.325141 -68.291529 -8.0213691 -70.162159 C -6.7175972 -72.032788 -6.0659329 -74.697123 -6.0659329 -78.154952 C -6.0659329 -81.669468 -6.8028216 -84.390447 -8.2766507 -86.317762 C -9.6937941 -88.301762 -11.734528 -89.293807 -14.398758 -89.293807 z M -127.31693 -89.038526 C -129.0175 -87.678068 -130.26419 -86.119583 -131.05779 -84.362325 C -131.85139 -82.605068 -132.24841 -80.50769 -132.24841 -78.070203 C -132.24841 -74.725745 -131.4263 -72.089474 -129.78241 -70.162159 C -128.13853 -68.291529 -125.8998 -67.356645 -123.06551 -67.356645 C -120.28791 -67.356645 -118.13337 -68.291529 -116.60286 -70.162159 C -115.01565 -72.032788 -114.22212 -74.640479 -114.22212 -77.984937 C -114.22212 -79.855566 -114.81766 -81.442631 -116.00806 -82.746403 C -117.14177 -84.106861 -118.58697 -85.212194 -120.34423 -86.06248 C -122.10149 -86.969452 -124.42596 -87.961497 -127.31693 -89.038526 z M -87.268212 -74.498845 C -85.284211 -74.498845 -83.810434 -73.903824 -82.846776 -72.713424 C -81.826433 -71.579709 -81.31612 -69.992127 -81.31612 -67.951441 C -81.31612 -65.910754 -81.826433 -64.323689 -82.846776 -63.189974 C -83.810434 -62.05626 -85.284211 -61.489303 -87.268212 -61.489303 C -89.252212 -61.489303 -90.75457 -62.05626 -91.774913 -63.189974 C -92.738571 -64.380375 -93.220303 -65.96744 -93.220303 -67.951441 C -93.220303 -70.048813 -92.738571 -71.664459 -91.774913 -72.798173 C -90.75457 -73.931888 -89.252212 -74.498845 -87.268212 -74.498845 z " /></g></svg>
