<?xml version="1.0" encoding="UTF-8" standalone="no"?>
<!-- Created with Inkscape (http://www.inkscape.org/) -->

<svg
   width="172.6701mm"
   height="172.6701mm"
   viewBox="0 0 172.6701 172.6701"
   version="1.1"
   id="svg1"
   xml:space="preserve"
   xmlns="http://www.w3.org/2000/svg"
   xmlns:svg="http://www.w3.org/2000/svg"><defs
     id="defs1" /><g
     id="layer1"
     transform="translate(157.25102,198.81012)"><path
       id="path5"
       style="fill:#ffffff;fill-opacity:1;stroke-width:0.805188;stroke-linecap:round;stroke-linejoin:round"
       d="M -2.0863309 -198.17657 L -10.088943 -183.11289 L -10.930235 -165.68398 L -19.198981 -165.68398 L -11.423229 -155.47426 L -12.166336 -140.07934 C -28.353216 -157.12094 -50.823548 -166.77435 -74.327399 -166.78417 C -103.64471 -166.77397 -130.92652 -151.79225 -146.66717 -127.05894 L -157.25102 -127.05894 L -149.61996 -115.86014 L -157.25102 -26.140039 L -8.5138455 -26.140039 L 15.419061 -26.140039 L 8.0799737 -154.80195 L 15.419061 -165.68398 L 7.4593397 -165.68398 L 6.4490654 -183.39297 L -2.0863309 -198.17657 z M -83.43072 -192.21621 C -85.584619 -189.65499 -86.77489 -186.4211 -86.795372 -183.07465 C -86.842092 -175.15518 -80.459903 -168.69733 -72.540428 -168.65072 C -64.621155 -168.60402 -58.163395 -174.98588 -58.116503 -182.90515 C -58.102813 -186.26049 -59.266203 -189.5144 -61.404157 -192.10045 C -60.83125 -190.6836 -60.536835 -189.16959 -60.537027 -187.64129 C -60.575787 -181.07411 -65.930869 -175.78172 -72.498054 -175.82031 C -79.065241 -175.85911 -84.357627 -181.21415 -84.319038 -187.78134 C -84.309338 -189.30285 -84.007827 -190.80837 -83.43072 -192.21621 z M -126.89163 -120.07436 C -122.35677 -119.84761 -118.67233 -118.85557 -115.83804 -117.09831 L -136.07453 -83.767013 L -123.06551 -83.767013 L -122.21492 -97.626632 C -120.40097 -97.626632 -119.09713 -97.995076 -118.30353 -98.731991 C -117.45324 -99.468905 -116.80158 -100.71611 -116.34809 -102.47336 L -111.50136 -102.47336 L -111.58662 -83.341716 C -109.43257 -82.718173 -106.71159 -82.066508 -103.42381 -81.38628 L -103.84859 -77.304875 L -112.0114 -77.304875 L -112.0114 -62.084615 L -123.06551 -62.084615 L -123.06551 -77.304875 L -147.63869 -77.304875 L -148.31875 -80.36567 L -126.89163 -120.07436 z M -54.872256 -119.64906 C -48.240025 -119.64906 -43.166512 -117.15466 -39.651997 -112.16631 C -36.080795 -107.23465 -34.295218 -100.06428 -34.295218 -90.654448 C -34.295218 -81.244616 -36.080795 -74.017081 -39.651997 -68.97205 C -43.166512 -63.983706 -48.240025 -61.489303 -54.872256 -61.489303 C -61.504487 -61.489303 -66.606064 -63.983706 -70.177265 -68.97205 C -73.748466 -74.017081 -75.534044 -81.244616 -75.534044 -90.654448 C -75.534044 -100.00759 -73.748466 -107.17797 -70.177265 -112.16631 C -66.606064 -117.15466 -61.504487 -119.64906 -54.872256 -119.64906 z M -29.873782 -118.88373 L -25.707628 -118.88373 C -23.55357 -118.82705 -18.848501 -118.79847 -11.592727 -118.79847 C -4.0535246 -118.79847 0.85005646 -118.82705 3.1174859 -118.88373 L 7.1988905 -118.88373 L 8.8990451 -115.22762 C 7.8220161 -113.52705 5.7812821 -109.84261 2.7769382 -104.17404 C -0.22740579 -98.505463 -3.0616725 -92.496548 -5.725902 -86.147746 C -8.3901315 -79.798944 -9.7220405 -74.838719 -9.7220405 -71.267517 C -9.7220405 -68.433231 -8.7299955 -66.307789 -6.7459948 -64.890646 C -8.6733098 -62.566531 -11.139132 -61.404554 -14.143476 -61.404554 C -16.921077 -61.404554 -19.075099 -62.169506 -20.605614 -63.700021 C -22.136129 -65.230536 -22.901598 -67.356494 -22.901598 -70.077409 C -22.901598 -73.478553 -22.079485 -77.077772 -20.435598 -80.875717 C -18.791712 -84.730347 -15.844157 -89.945728 -11.592727 -96.521273 L -1.5592313 -111.9963 L -20.945645 -111.9963 C -21.739245 -109.44544 -22.221494 -106.44124 -22.391551 -102.98341 C -23.411895 -102.81335 -24.460584 -102.72813 -25.537613 -102.72813 C -26.671327 -102.72813 -27.77666 -102.81335 -28.853689 -102.98341 L -31.234423 -117.60836 L -29.873782 -118.88373 z M -54.872256 -115.31237 C -57.763229 -115.31237 -59.860607 -113.41351 -61.164379 -109.61556 C -62.411465 -105.81762 -63.035065 -99.497422 -63.035065 -90.654448 C -63.035065 -81.868159 -62.411465 -75.576025 -61.164379 -71.778081 C -59.860607 -68.036822 -57.763229 -66.16602 -54.872256 -66.16602 C -51.981284 -66.16602 -49.912486 -68.036822 -48.6654 -71.778081 C -47.361628 -75.576025 -46.709447 -81.868159 -46.709447 -90.654448 C -46.709447 -99.440737 -47.361628 -105.73287 -48.6654 -109.53081 C -49.912486 -113.38544 -51.981284 -115.31237 -54.872256 -115.31237 z M -88.713601 -101.28274 C -86.729601 -101.28274 -85.255823 -100.68772 -84.292166 -99.497319 C -83.271823 -98.363604 -82.76151 -96.776539 -82.76151 -94.735852 C -82.76151 -92.695166 -83.271823 -91.107584 -84.292166 -89.973869 C -85.255823 -88.840154 -86.729601 -88.273198 -88.713601 -88.273198 C -90.697602 -88.273198 -92.19996 -88.840154 -93.220303 -89.973869 C -94.183961 -91.16427 -94.665693 -92.751852 -94.665693 -94.735852 C -94.665693 -96.833225 -94.183961 -98.448354 -93.220303 -99.582068 C -92.19996 -100.71578 -90.697602 -101.28274 -88.713601 -101.28274 z M -88.713601 -74.498845 C -86.729601 -74.498845 -85.255823 -73.903824 -84.292166 -72.713424 C -83.271823 -71.579709 -82.76151 -69.992127 -82.76151 -67.951441 C -82.76151 -65.910754 -83.271823 -64.323689 -84.292166 -63.189974 C -85.255823 -62.05626 -86.729601 -61.489303 -88.713601 -61.489303 C -90.697602 -61.489303 -92.19996 -62.05626 -93.220303 -63.189974 C -94.183961 -64.380375 -94.665693 -65.96744 -94.665693 -67.951441 C -94.665693 -70.048813 -94.183961 -71.664459 -93.220303 -72.798173 C -92.19996 -73.931888 -90.697602 -74.498845 -88.713601 -74.498845 z " /></g></svg>
