<?xml version="1.0" encoding="UTF-8" standalone="no"?>
<!-- Created with Inkscape (http://www.inkscape.org/) -->

<svg
   width="172.6701mm"
   height="172.6701mm"
   viewBox="0 0 172.6701 172.6701"
   version="1.1"
   id="svg1"
   xml:space="preserve"
   xmlns="http://www.w3.org/2000/svg"
   xmlns:svg="http://www.w3.org/2000/svg"><defs
     id="defs1" /><g
     id="layer1"
     transform="translate(157.25102,198.81012)"><path
       id="path5"
       style="fill:#ffffff;fill-opacity:1;stroke-width:0.805188;stroke-linecap:round;stroke-linejoin:round"
       d="M -2.0863309 -198.17657 L -10.088943 -183.11289 L -10.930235 -165.68398 L -19.198981 -165.68398 L -11.423229 -155.47426 L -12.166336 -140.07934 C -28.353216 -157.12094 -50.823548 -166.77435 -74.327399 -166.78417 C -103.64471 -166.77397 -130.92652 -151.79225 -146.66717 -127.05894 L -157.25102 -127.05894 L -149.61996 -115.86014 L -157.25102 -26.140039 L -8.5138455 -26.140039 L 15.419061 -26.140039 L 8.0799737 -154.80195 L 15.419061 -165.68398 L 7.4593397 -165.68398 L 6.4490654 -183.39297 L -2.0863309 -198.17657 z M -83.43072 -192.21621 C -85.584619 -189.65499 -86.77489 -186.4211 -86.795372 -183.07465 C -86.842092 -175.15518 -80.459903 -168.69733 -72.540428 -168.65072 C -64.621155 -168.60402 -58.163395 -174.98588 -58.116503 -182.90515 C -58.102813 -186.26049 -59.266203 -189.5144 -61.404157 -192.10045 C -60.83125 -190.6836 -60.536835 -189.16959 -60.537027 -187.64129 C -60.575787 -181.07411 -65.930869 -175.78172 -72.498054 -175.82031 C -79.065241 -175.85911 -84.357627 -181.21415 -84.319038 -187.78134 C -84.309338 -189.30285 -84.007827 -190.80837 -83.43072 -192.21621 z M -125.57337 -119.73381 C -119.73474 -119.73381 -115.08683 -118.28861 -111.629 -115.39764 C -108.17117 -112.56335 -106.44224 -108.56711 -106.44224 -103.40871 C -106.44224 -98.873849 -108.17117 -94.026912 -111.629 -88.86851 C -115.08683 -83.766794 -120.78343 -77.616529 -128.71943 -70.41744 L -105.84692 -70.41744 L -105.84692 -62.084615 L -144.36498 -62.084615 L -144.36498 -67.016097 C -138.07287 -73.081471 -133.16929 -78.268272 -129.65477 -82.576388 C -126.14026 -86.884504 -123.61779 -90.852684 -122.08727 -94.480571 C -120.50007 -98.108458 -119.70654 -101.84955 -119.70654 -105.70418 C -119.70654 -111.82623 -121.74728 -114.88759 -125.82865 -114.88759 C -127.64259 -114.88759 -129.11637 -114.0369 -130.25008 -112.33633 C -131.3838 -110.69244 -131.95076 -108.65171 -131.95076 -106.21422 C -131.95076 -104.51365 -131.35574 -102.89852 -130.16533 -101.36801 C -131.12899 -100.46103 -132.23433 -99.752209 -133.48141 -99.242037 C -134.67181 -98.731866 -135.86185 -98.476709 -137.05225 -98.476709 C -139.09294 -98.476709 -140.79381 -99.10031 -142.15427 -100.3474 C -143.51472 -101.65117 -144.19497 -103.52197 -144.19497 -105.95946 C -144.19497 -108.567 -143.4295 -110.91953 -141.89899 -113.01691 C -140.36847 -115.11428 -138.21445 -116.75799 -135.43685 -117.94839 C -132.60256 -119.13879 -129.31463 -119.73381 -125.57337 -119.73381 z M -58.996035 -119.73381 C -55.311463 -119.73381 -52.052108 -119.11073 -49.217821 -117.86364 C -46.383534 -116.67324 -44.172868 -114.97237 -42.585668 -112.76163 C -40.998467 -110.60757 -40.204934 -108.11368 -40.204934 -105.27939 C -40.204934 -102.10499 -41.140335 -99.384015 -43.010965 -97.116586 C -44.881594 -94.849156 -47.659217 -93.120223 -51.343789 -91.929822 C -46.695559 -90.909479 -43.435687 -89.237189 -41.565058 -86.913074 C -39.694429 -84.588959 -38.759545 -81.442892 -38.759545 -77.474891 C -38.759545 -74.017061 -39.808234 -71.069506 -41.905606 -68.632019 C -43.946292 -66.194533 -46.61011 -64.380375 -49.897883 -63.189974 C -53.185655 -61.999574 -56.586879 -61.404554 -60.101394 -61.404554 C -65.203111 -61.404554 -69.539735 -62.453243 -73.110936 -64.550615 C -76.625452 -66.647987 -78.382449 -69.510317 -78.382449 -73.138204 C -78.382449 -75.235577 -77.759365 -76.851222 -76.512279 -77.984937 C -75.265193 -79.175337 -73.706191 -79.770358 -71.835562 -79.770358 C -69.908247 -79.770358 -67.952737 -79.005405 -65.968736 -77.474891 C -66.478908 -76.397862 -66.733548 -75.094016 -66.733548 -73.563501 C -66.733548 -71.749558 -66.195171 -70.275781 -65.118142 -69.142066 C -63.984428 -68.008351 -62.312138 -67.441394 -60.101394 -67.441394 C -55.226421 -67.441394 -52.789179 -70.814037 -52.789179 -77.55964 C -52.789179 -81.244213 -53.97922 -84.10706 -56.360021 -86.147746 C -58.684136 -88.188433 -62.000652 -89.208541 -66.308767 -89.208541 L -66.308767 -94.480571 C -57.975964 -95.1608 -53.809272 -98.760535 -53.809272 -105.27939 C -53.809272 -108.56717 -54.319585 -110.97583 -55.339928 -112.50634 C -56.360271 -114.09354 -57.748824 -114.88759 -59.506082 -114.88759 C -61.603454 -114.88759 -63.191036 -114.15071 -64.268065 -112.67688 C -65.288408 -111.20305 -65.798204 -109.41747 -65.798204 -107.3201 C -65.798204 -105.44947 -65.401696 -103.77718 -64.608096 -102.30335 C -66.195297 -100.60278 -68.236031 -99.752084 -70.730203 -99.752084 C -72.997632 -99.752084 -74.75463 -100.43233 -76.001716 -101.79279 C -77.248802 -103.15324 -77.872403 -104.91076 -77.872403 -107.06482 C -77.872403 -109.8991 -76.908938 -112.25164 -74.981623 -114.12227 C -72.997622 -116.04958 -70.559864 -117.46671 -67.668891 -118.37369 C -64.721233 -119.28066 -61.830322 -119.73381 -58.996035 -119.73381 z M -27.195393 -119.05375 L -22.943972 -118.969 C -16.935285 -118.85563 -13.761154 -118.79847 -13.42104 -118.79847 L -1.3468411 -118.969 L 1.1191582 -117.18306 L 0.35383026 -110.72092 L -20.733255 -110.72092 L -21.92388 -96.521273 C -18.976221 -97.258188 -16.311887 -97.626632 -13.931086 -97.626632 C -8.3191981 -97.626632 -3.7559978 -96.124274 -0.24148224 -93.11993 C 3.3297191 -90.172272 5.1152967 -85.836165 5.1152967 -80.110905 C 5.1152967 -76.539704 4.2651201 -73.336993 2.564548 -70.502706 C 0.92066172 -67.66842 -1.4599362 -65.429173 -4.5776517 -63.785287 C -7.6953671 -62.198086 -11.380327 -61.404554 -15.631757 -61.404554 C -19.089587 -61.404554 -22.235654 -61.886286 -25.069941 -62.849943 C -27.847542 -63.813601 -30.029628 -65.14551 -31.616828 -66.846082 C -33.204029 -68.60334 -33.997561 -70.559366 -33.997561 -72.713424 C -33.997561 -74.980853 -33.374477 -76.709787 -32.127391 -77.900188 C -30.880305 -79.147274 -29.349367 -79.770358 -27.535423 -79.770358 C -26.51508 -79.770358 -25.494972 -79.572362 -24.474628 -79.175562 C -23.397599 -78.778762 -22.434135 -78.211805 -21.583849 -77.474891 C -22.09402 -76.28449 -22.34866 -75.037289 -22.34866 -73.733517 C -22.34866 -71.862888 -21.810284 -70.332466 -20.733255 -69.142066 C -19.59954 -67.951665 -17.899187 -67.356645 -15.631757 -67.356645 C -10.530041 -67.356645 -7.9789944 -71.608045 -7.9789944 -80.110905 C -7.9789944 -84.135593 -8.7725271 -87.054567 -10.359728 -88.86851 C -11.946928 -90.73914 -14.072887 -91.674541 -16.737116 -91.674541 C -18.381003 -91.674541 -20.138 -91.36274 -22.008629 -90.739197 C -23.879258 -90.115654 -25.72148 -89.236897 -27.535423 -88.103182 L -32.212141 -92.609884 L -30.001423 -116.75776 L -27.195393 -119.05375 z M -90.711929 -101.28274 C -88.727928 -101.28274 -87.254151 -100.68772 -86.290493 -99.497319 C -85.27015 -98.363604 -84.759838 -96.776539 -84.759838 -94.735852 C -84.759838 -92.695166 -85.27015 -91.107584 -86.290493 -89.973869 C -87.254151 -88.840154 -88.727928 -88.273198 -90.711929 -88.273198 C -92.69593 -88.273198 -94.198287 -88.840154 -95.218631 -89.973869 C -96.182288 -91.16427 -96.66402 -92.751852 -96.66402 -94.735852 C -96.66402 -96.833225 -96.182288 -98.448354 -95.218631 -99.582068 C -94.198287 -100.71578 -92.69593 -101.28274 -90.711929 -101.28274 z M -90.711929 -74.498845 C -88.727928 -74.498845 -87.254151 -73.903824 -86.290493 -72.713424 C -85.27015 -71.579709 -84.759838 -69.992127 -84.759838 -67.951441 C -84.759838 -65.910754 -85.27015 -64.323689 -86.290493 -63.189974 C -87.254151 -62.05626 -88.727928 -61.489303 -90.711929 -61.489303 C -92.69593 -61.489303 -94.198287 -62.05626 -95.218631 -63.189974 C -96.182288 -64.380375 -96.66402 -65.96744 -96.66402 -67.951441 C -96.66402 -70.048813 -96.182288 -71.664459 -95.218631 -72.798173 C -94.198287 -73.931888 -92.69593 -74.498845 -90.711929 -74.498845 z " /></g></svg>
