<?xml version="1.0" encoding="UTF-8" standalone="no"?>
<!-- Created with Inkscape (http://www.inkscape.org/) -->

<svg
   width="172.6701mm"
   height="172.6701mm"
   viewBox="0 0 172.6701 172.6701"
   version="1.1"
   id="svg1"
   xml:space="preserve"
   xmlns="http://www.w3.org/2000/svg"
   xmlns:svg="http://www.w3.org/2000/svg"><defs
     id="defs1" /><g
     id="layer1"
     transform="translate(157.25102,198.81012)"><path
       id="path5"
       style="fill:#ffffff;fill-opacity:1;stroke-width:0.805188;stroke-linecap:round;stroke-linejoin:round"
       d="M -2.0863309 -198.17657 L -10.088943 -183.11289 L -10.930235 -165.68398 L -19.198981 -165.68398 L -11.423229 -155.47426 L -12.166336 -140.07934 C -28.353216 -157.12094 -50.823548 -166.77435 -74.327399 -166.78417 C -103.64471 -166.77397 -130.92652 -151.79225 -146.66717 -127.05894 L -157.25102 -127.05894 L -149.61996 -115.86014 L -157.25102 -26.140039 L -8.5138455 -26.140039 L 15.419061 -26.140039 L 8.0799737 -154.80195 L 15.419061 -165.68398 L 7.4593397 -165.68398 L 6.4490654 -183.39297 L -2.0863309 -198.17657 z M -83.43072 -192.21621 C -85.584619 -189.65499 -86.77489 -186.4211 -86.795372 -183.07465 C -86.842092 -175.15518 -80.459903 -168.69733 -72.540428 -168.65072 C -64.621155 -168.60402 -58.163395 -174.98588 -58.116503 -182.90515 C -58.102813 -186.26049 -59.266203 -189.5144 -61.404157 -192.10045 C -60.83125 -190.6836 -60.536835 -189.16959 -60.537027 -187.64129 C -60.575787 -181.07411 -65.930869 -175.78172 -72.498054 -175.82031 C -79.065241 -175.85911 -84.357627 -181.21415 -84.319038 -187.78134 C -84.309338 -189.30285 -84.007827 -190.80837 -83.43072 -192.21621 z M -69.978828 -149.59659 C -56.847415 -149.59659 -46.805976 -145.95516 -39.854051 -138.67219 C -32.791779 -131.38922 -29.260383 -120.85108 -29.260383 -107.05758 C -29.260383 -89.732945 -34.667511 -74.946643 -45.481615 -62.698015 C -56.185371 -50.559734 -71.744489 -41.62121 -92.158869 -35.883114 L -96.131236 -44.159095 C -85.096436 -48.904059 -76.213445 -54.973453 -69.482217 -62.366769 C -62.750989 -69.870433 -58.282244 -78.587857 -56.075284 -88.519178 C -62.254772 -85.429434 -68.268632 -83.884835 -74.117076 -83.884835 C -85.151877 -83.884835 -93.869301 -86.863999 -100.26949 -92.822791 C -106.55932 -98.781583 -109.70405 -106.83674 -109.70405 -116.98876 C -109.70405 -123.27859 -108.0489 -128.90682 -104.73846 -133.87248 C -101.31767 -138.83814 -96.62783 -142.70015 -90.669038 -145.45885 C -84.599897 -148.21755 -77.703188 -149.59659 -69.978828 -149.59659 z M -70.972049 -138.17558 C -75.717013 -138.17558 -79.358442 -136.35486 -81.896446 -132.71338 C -84.43445 -129.0719 -85.703449 -123.88587 -85.703449 -117.15464 C -85.703449 -110.31306 -84.324417 -104.96095 -81.565717 -101.09877 C -78.696669 -97.346939 -74.668573 -95.471208 -69.482217 -95.471208 C -64.957949 -95.471208 -59.937487 -97.346939 -54.420087 -101.09877 L -54.420087 -103.25058 C -54.420087 -115.27851 -55.744103 -124.10648 -58.392455 -129.73423 C -61.040807 -135.36198 -65.233953 -138.17558 -70.972049 -138.17558 z " /></g></svg>
