<?xml version="1.0" encoding="UTF-8" standalone="no"?>
<!-- Created with Inkscape (http://www.inkscape.org/) -->

<svg
   width="172.6701mm"
   height="172.6701mm"
   viewBox="0 0 172.6701 172.6701"
   version="1.1"
   id="svg1"
   xml:space="preserve"
   xmlns="http://www.w3.org/2000/svg"
   xmlns:svg="http://www.w3.org/2000/svg"><defs
     id="defs1" /><g
     id="layer1"
     transform="translate(157.25102,198.81012)"><path
       id="path5"
       style="fill:#ffffff;fill-opacity:1;stroke-width:0.805188;stroke-linecap:round;stroke-linejoin:round"
       d="M -2.0863309 -198.17657 L -10.088943 -183.11289 L -10.930235 -165.68398 L -19.198981 -165.68398 L -11.423229 -155.47426 L -12.166336 -140.07934 C -28.353216 -157.12094 -50.823548 -166.77435 -74.327399 -166.78417 C -103.64471 -166.77397 -130.92652 -151.79225 -146.66717 -127.05894 L -157.25102 -127.05894 L -149.61996 -115.86014 L -157.25102 -26.140039 L -8.5138455 -26.140039 L 15.419061 -26.140039 L 8.0799737 -154.80195 L 15.419061 -165.68398 L 7.4593397 -165.68398 L 6.4490654 -183.39297 L -2.0863309 -198.17657 z M -83.43072 -192.21621 C -85.584619 -189.65499 -86.77489 -186.4211 -86.795372 -183.07465 C -86.842092 -175.15518 -80.459903 -168.69733 -72.540428 -168.65072 C -64.621155 -168.60402 -58.163395 -174.98588 -58.116503 -182.90515 C -58.102813 -186.26049 -59.266203 -189.5144 -61.404157 -192.10045 C -60.83125 -190.6836 -60.536835 -189.16959 -60.537027 -187.64129 C -60.575787 -181.07411 -65.930869 -175.78172 -72.498054 -175.82031 C -79.065241 -175.85911 -84.357627 -181.21415 -84.319038 -187.78134 C -84.309338 -189.30285 -84.007827 -190.80837 -83.43072 -192.21621 z M -127.18929 -119.73381 C -121.35066 -119.73381 -116.70223 -118.28861 -113.2444 -115.39764 C -109.78657 -112.56335 -108.05764 -108.56711 -108.05764 -103.40871 C -108.05764 -98.873849 -109.78657 -94.026912 -113.2444 -88.86851 C -116.70223 -83.766794 -122.39935 -77.616529 -130.33535 -70.41744 L -107.46284 -70.41744 L -107.46284 -62.084615 L -145.98039 -62.084615 L -145.98039 -67.016097 C -139.68827 -73.081471 -134.78521 -78.268272 -131.27069 -82.576388 C -127.75618 -86.884504 -125.23371 -90.852684 -123.7032 -94.480571 C -122.116 -98.108458 -121.32246 -101.84955 -121.32246 -105.70418 C -121.32246 -111.82623 -123.3632 -114.88759 -127.44457 -114.88759 C -129.25851 -114.88759 -130.73229 -114.0369 -131.86601 -112.33633 C -132.99972 -110.69244 -133.56616 -108.65171 -133.56616 -106.21422 C -133.56616 -104.51365 -132.97114 -102.89852 -131.78074 -101.36801 C -132.7444 -100.46103 -133.84973 -99.752209 -135.09682 -99.242037 C -136.28722 -98.731866 -137.47777 -98.476709 -138.66817 -98.476709 C -140.70886 -98.476709 -142.40921 -99.10031 -143.76967 -100.3474 C -145.13013 -101.65117 -145.81037 -103.52197 -145.81037 -105.95946 C -145.81037 -108.567 -145.04542 -110.91953 -143.51491 -113.01691 C -141.98439 -115.11428 -139.83037 -116.75799 -137.05277 -117.94839 C -134.21848 -119.13879 -130.93055 -119.73381 -127.18929 -119.73381 z M -58.485989 -119.64906 C -51.853758 -119.64906 -46.780245 -117.15466 -43.265729 -112.16631 C -39.694528 -107.23465 -37.908951 -100.06428 -37.908951 -90.654448 C -37.908951 -81.244616 -39.694528 -74.017081 -43.265729 -68.97205 C -46.780245 -63.983706 -51.853758 -61.489303 -58.485989 -61.489303 C -65.11822 -61.489303 -70.219797 -63.983706 -73.790998 -68.97205 C -77.362199 -74.017081 -79.147777 -81.244616 -79.147777 -90.654448 C -79.147777 -100.00759 -77.362199 -107.17797 -73.790998 -112.16631 C -70.219797 -117.15466 -65.11822 -119.64906 -58.485989 -119.64906 z M -13.165758 -119.64906 C -6.533527 -119.64906 -1.4600139 -117.15466 2.0545016 -112.16631 C 5.625703 -107.23465 7.4112806 -100.06428 7.4112806 -90.654448 C 7.4112806 -81.244616 5.625703 -74.017081 2.0545016 -68.97205 C -1.4600139 -63.983706 -6.533527 -61.489303 -13.165758 -61.489303 C -19.797989 -61.489303 -24.899566 -63.983706 -28.470767 -68.97205 C -32.041968 -74.017081 -33.827546 -81.244616 -33.827546 -90.654448 C -33.827546 -100.00759 -32.041968 -107.17797 -28.470767 -112.16631 C -24.899566 -117.15466 -19.797989 -119.64906 -13.165758 -119.64906 z M -58.485989 -115.31237 C -61.376962 -115.31237 -63.47434 -113.41351 -64.778111 -109.61556 C -66.025198 -105.81762 -66.648798 -99.497422 -66.648798 -90.654448 C -66.648798 -81.868159 -66.025198 -75.576025 -64.778111 -71.778081 C -63.47434 -68.036822 -61.376962 -66.16602 -58.485989 -66.16602 C -55.595017 -66.16602 -53.526219 -68.036822 -52.279133 -71.778081 C -50.975361 -75.576025 -50.32318 -81.868159 -50.32318 -90.654448 C -50.32318 -99.440737 -50.975361 -105.73287 -52.279133 -109.53081 C -53.526219 -113.38544 -55.595017 -115.31237 -58.485989 -115.31237 z M -13.165758 -115.31237 C -16.05673 -115.31237 -18.154108 -113.41351 -19.45788 -109.61556 C -20.704967 -105.81762 -21.328567 -99.497422 -21.328567 -90.654448 C -21.328567 -81.868159 -20.704967 -75.576025 -19.45788 -71.778081 C -18.154108 -68.036822 -16.05673 -66.16602 -13.165758 -66.16602 C -10.274785 -66.16602 -8.2059878 -68.036822 -6.9589017 -71.778081 C -5.6551298 -75.576025 -5.0029487 -81.868159 -5.0029487 -90.654448 C -5.0029487 -99.440737 -5.6551298 -105.73287 -6.9589017 -109.53081 C -8.2059878 -113.38544 -10.274785 -115.31237 -13.165758 -115.31237 z M -92.327334 -101.28274 C -90.343334 -101.28274 -88.869556 -100.68772 -87.905899 -99.497319 C -86.885556 -98.363604 -86.37576 -96.776539 -86.37576 -94.735852 C -86.37576 -92.695166 -86.885556 -91.107584 -87.905899 -89.973869 C -88.869556 -88.840154 -90.343334 -88.273198 -92.327334 -88.273198 C -94.311335 -88.273198 -95.813693 -88.840154 -96.834036 -89.973869 C -97.797693 -91.16427 -98.279426 -92.751852 -98.279426 -94.735852 C -98.279426 -96.833225 -97.797693 -98.448354 -96.834036 -99.582068 C -95.813693 -100.71578 -94.311335 -101.28274 -92.327334 -101.28274 z M -92.327334 -74.498845 C -90.343334 -74.498845 -88.869556 -73.903824 -87.905899 -72.713424 C -86.885556 -71.579709 -86.37576 -69.992127 -86.37576 -67.951441 C -86.37576 -65.910754 -86.885556 -64.323689 -87.905899 -63.189974 C -88.869556 -62.05626 -90.343334 -61.489303 -92.327334 -61.489303 C -94.311335 -61.489303 -95.813693 -62.05626 -96.834036 -63.189974 C -97.797693 -64.380375 -98.279426 -65.96744 -98.279426 -67.951441 C -98.279426 -70.048813 -97.797693 -71.664459 -96.834036 -72.798173 C -95.813693 -73.931888 -94.311335 -74.498845 -92.327334 -74.498845 z " /></g></svg>
