<?xml version="1.0" encoding="UTF-8" standalone="no"?>
<!-- Created with Inkscape (http://www.inkscape.org/) -->

<svg
   width="172.6701mm"
   height="172.6701mm"
   viewBox="0 0 172.6701 172.6701"
   version="1.1"
   id="svg1"
   xml:space="preserve"
   xmlns="http://www.w3.org/2000/svg"
   xmlns:svg="http://www.w3.org/2000/svg"><defs
     id="defs1" /><g
     id="layer1"
     transform="translate(157.25102,198.81012)"><path
       id="path5"
       style="fill:#ffffff;fill-opacity:1;stroke-width:0.805188;stroke-linecap:round;stroke-linejoin:round"
       d="M -2.0863309 -198.17657 L -10.088943 -183.11289 L -10.930235 -165.68398 L -19.198981 -165.68398 L -11.423229 -155.47426 L -12.166336 -140.07934 C -28.353216 -157.12094 -50.823548 -166.77435 -74.327399 -166.78417 C -103.64471 -166.77397 -130.92652 -151.79225 -146.66717 -127.05894 L -157.25102 -127.05894 L -149.61996 -115.86014 L -157.25102 -26.140039 L -8.5138455 -26.140039 L 15.419061 -26.140039 L 8.0799737 -154.80195 L 15.419061 -165.68398 L 7.4593397 -165.68398 L 6.4490654 -183.39297 L -2.0863309 -198.17657 z M -83.43072 -192.21621 C -85.584619 -189.65499 -86.77489 -186.4211 -86.795372 -183.07465 C -86.842092 -175.15518 -80.459903 -168.69733 -72.540428 -168.65072 C -64.621155 -168.60402 -58.163395 -174.98588 -58.116503 -182.90515 C -58.102813 -186.26049 -59.266203 -189.5144 -61.404157 -192.10045 C -60.83125 -190.6836 -60.536835 -189.16959 -60.537027 -187.64129 C -60.575787 -181.07411 -65.930869 -175.78172 -72.498054 -175.82031 C -79.065241 -175.85911 -84.357627 -181.21415 -84.319038 -187.78134 C -84.309338 -189.30285 -84.007827 -190.80837 -83.43072 -192.21621 z M -60.824348 -120.07436 C -56.289489 -119.84761 -52.605046 -118.85557 -49.770759 -117.09831 L -70.00725 -83.767013 L -56.997708 -83.767013 L -56.147631 -97.626632 C -54.333687 -97.626632 -53.029842 -97.995076 -52.236241 -98.731991 C -51.385955 -99.468905 -50.734291 -100.71611 -50.280805 -102.47336 L -45.434073 -102.47336 L -45.518822 -83.341716 C -43.364764 -82.718173 -40.644302 -82.066508 -37.356529 -81.38628 L -37.78131 -77.304875 L -45.944119 -77.304875 L -45.944119 -62.084615 L -56.997708 -62.084615 L -56.997708 -77.304875 L -81.571402 -77.304875 L -82.251464 -80.36567 L -60.824348 -120.07436 z M -13.803445 -120.07436 C -9.2685863 -119.84761 -5.584143 -118.85557 -2.7498563 -117.09831 L -22.986347 -83.767013 L -9.9773221 -83.767013 L -9.126728 -97.626632 C -7.3127845 -97.626632 -6.0089391 -97.995076 -5.2153388 -98.731991 C -4.3650528 -99.468905 -3.7133885 -100.71611 -3.2599026 -102.47336 L 1.5868299 -102.47336 L 1.5015638 -83.341716 C 3.6556218 -82.718173 6.3766004 -82.066508 9.6643731 -81.38628 L 9.239076 -77.304875 L 1.0767835 -77.304875 L 1.0767835 -62.084615 L -9.9773221 -62.084615 L -9.9773221 -77.304875 L -34.550499 -77.304875 L -35.230561 -80.36567 L -13.803445 -120.07436 z M -141.17655 -119.05375 L -136.92513 -118.969 C -130.91644 -118.85563 -127.74179 -118.79847 -127.40168 -118.79847 L -115.32748 -118.969 L -112.862 -117.18306 L -113.62733 -110.72092 L -134.71441 -110.72092 L -135.90452 -96.521273 C -132.95686 -97.258188 -130.29253 -97.626632 -127.91173 -97.626632 C -122.29984 -97.626632 -117.73664 -96.124274 -114.22212 -93.11993 C -110.65092 -90.172272 -108.86534 -85.836165 -108.86534 -80.110905 C -108.86534 -76.539704 -109.71552 -73.336993 -111.41609 -70.502706 C -113.05998 -67.66842 -115.44109 -65.429173 -118.55881 -63.785287 C -121.67652 -62.198086 -125.36097 -61.404554 -129.6124 -61.404554 C -133.07023 -61.404554 -136.21629 -61.886286 -139.05058 -62.849943 C -141.82818 -63.813601 -144.01078 -65.14551 -145.59798 -66.846082 C -147.18519 -68.60334 -147.97872 -70.559366 -147.97872 -72.713424 C -147.97872 -74.980853 -147.35512 -76.709787 -146.10803 -77.900188 C -144.86094 -79.147274 -143.33052 -79.770358 -141.51658 -79.770358 C -140.49624 -79.770358 -139.47561 -79.572362 -138.45527 -79.175562 C -137.37824 -78.778762 -136.41477 -78.211805 -135.56449 -77.474891 C -136.07466 -76.28449 -136.32982 -75.037289 -136.32982 -73.733517 C -136.32982 -71.862888 -135.79144 -70.332466 -134.71441 -69.142066 C -133.5807 -67.951665 -131.87983 -67.356645 -129.6124 -67.356645 C -124.51068 -67.356645 -121.95963 -71.608045 -121.95963 -80.110905 C -121.95963 -84.135593 -122.75368 -87.054567 -124.34088 -88.86851 C -125.92808 -90.73914 -128.05353 -91.674541 -130.71776 -91.674541 C -132.36164 -91.674541 -134.11916 -91.36274 -135.98979 -90.739197 C -137.86041 -90.115654 -139.70264 -89.236897 -141.51658 -88.103182 L -146.19278 -92.609884 L -143.98206 -116.75776 L -141.17655 -119.05375 z M -93.475068 -101.28274 C -91.491067 -101.28274 -90.01729 -100.68772 -89.053632 -99.497319 C -88.033289 -98.363604 -87.523493 -96.776539 -87.523493 -94.735852 C -87.523493 -92.695166 -88.033289 -91.107584 -89.053632 -89.973869 C -90.01729 -88.840154 -91.491067 -88.273198 -93.475068 -88.273198 C -95.459069 -88.273198 -96.961426 -88.840154 -97.98177 -89.973869 C -98.945427 -91.16427 -99.427159 -92.751852 -99.427159 -94.735852 C -99.427159 -96.833225 -98.945427 -98.448354 -97.98177 -99.582068 C -96.961426 -100.71578 -95.459069 -101.28274 -93.475068 -101.28274 z M -93.475068 -74.498845 C -91.491067 -74.498845 -90.01729 -73.903824 -89.053632 -72.713424 C -88.033289 -71.579709 -87.523493 -69.992127 -87.523493 -67.951441 C -87.523493 -65.910754 -88.033289 -64.323689 -89.053632 -63.189974 C -90.01729 -62.05626 -91.491067 -61.489303 -93.475068 -61.489303 C -95.459069 -61.489303 -96.961426 -62.05626 -97.98177 -63.189974 C -98.945427 -64.380375 -99.427159 -65.96744 -99.427159 -67.951441 C -99.427159 -70.048813 -98.945427 -71.664459 -97.98177 -72.798173 C -96.961426 -73.931888 -95.459069 -74.498845 -93.475068 -74.498845 z " /></g></svg>
