<?xml version="1.0" encoding="UTF-8" standalone="no"?>
<!-- Created with Inkscape (http://www.inkscape.org/) -->

<svg
   width="172.6701mm"
   height="172.6701mm"
   viewBox="0 0 172.6701 172.6701"
   version="1.1"
   id="svg1"
   xml:space="preserve"
   xmlns="http://www.w3.org/2000/svg"
   xmlns:svg="http://www.w3.org/2000/svg"><defs
     id="defs1" /><g
     id="layer1"
     transform="translate(157.25102,198.81012)"><path
       id="path5"
       style="fill:#ffffff;fill-opacity:1;stroke-width:0.805188;stroke-linecap:round;stroke-linejoin:round"
       d="M -2.0863309 -198.17657 L -10.088943 -183.11289 L -10.930235 -165.68398 L -19.198981 -165.68398 L -11.423229 -155.47426 L -12.166336 -140.07934 C -28.353216 -157.12094 -50.823548 -166.77435 -74.327399 -166.78417 C -103.64471 -166.77397 -130.92652 -151.79225 -146.66717 -127.05894 L -157.25102 -127.05894 L -149.61996 -115.86014 L -157.25102 -26.140039 L -8.5138455 -26.140039 L 15.419061 -26.140039 L 8.0799737 -154.80195 L 15.419061 -165.68398 L 7.4593397 -165.68398 L 6.4490654 -183.39297 L -2.0863309 -198.17657 z M -83.43072 -192.21621 C -85.584619 -189.65499 -86.77489 -186.4211 -86.795372 -183.07465 C -86.842092 -175.15518 -80.459903 -168.69733 -72.540428 -168.65072 C -64.621155 -168.60402 -58.163395 -174.98588 -58.116503 -182.90515 C -58.102813 -186.26049 -59.266203 -189.5144 -61.404157 -192.10045 C -60.83125 -190.6836 -60.536835 -189.16959 -60.537027 -187.64129 C -60.575787 -181.07411 -65.930869 -175.78172 -72.498054 -175.82031 C -79.065241 -175.85911 -84.357627 -181.21415 -84.319038 -187.78134 C -84.309338 -189.30285 -84.007827 -190.80837 -83.43072 -192.21621 z M -60.18666 -120.07436 C -55.651802 -119.84761 -51.966842 -118.85557 -49.132555 -117.09831 L -69.369562 -83.767013 L -56.360021 -83.767013 L -55.509943 -97.626632 C -53.696 -97.626632 -52.392154 -97.995076 -51.598554 -98.731991 C -50.748268 -99.468905 -50.096604 -100.71611 -49.643118 -102.47336 L -44.796385 -102.47336 L -44.881135 -83.341716 C -42.727077 -82.718173 -40.006615 -82.066508 -36.718842 -81.38628 L -37.143623 -77.304875 L -45.306432 -77.304875 L -45.306432 -62.084615 L -56.360021 -62.084615 L -56.360021 -77.304875 L -80.933714 -77.304875 L -81.613776 -80.36567 L -60.18666 -120.07436 z M -0.24148224 -119.90383 L 1.7992201 -115.65241 C -9.6512984 -110.72075 -16.538453 -103.12528 -18.862568 -92.865166 C -15.574795 -94.452366 -12.457309 -95.245899 -9.5096504 -95.245899 C -3.8410769 -95.245899 0.60883548 -93.715477 3.8399224 -90.654448 C 7.127695 -87.593418 8.7714043 -83.455306 8.7714043 -78.240218 C 8.7714043 -75.009132 7.8931641 -72.118221 6.1359063 -69.567363 C 4.4353342 -67.016505 2.0261559 -65.032415 -1.0915596 -63.615271 C -4.1525892 -62.198128 -7.6671006 -61.489303 -11.635102 -61.489303 C -18.380705 -61.489303 -23.567506 -63.360105 -27.195393 -67.101363 C -30.766594 -70.842622 -32.552172 -76.255999 -32.552172 -83.341716 C -32.552172 -92.241376 -29.803129 -99.808775 -24.304613 -106.04421 C -18.749411 -112.33632 -10.728343 -116.95617 -0.24148224 -119.90383 z M -140.53886 -119.05375 L -136.28744 -118.969 C -130.27875 -118.85563 -127.10411 -118.79847 -126.76399 -118.79847 L -114.68979 -118.969 L -112.22431 -117.18306 L -112.98964 -110.72092 L -134.07672 -110.72092 L -135.26683 -96.521273 C -132.31917 -97.258188 -129.65484 -97.626632 -127.27404 -97.626632 C -121.66215 -97.626632 -117.09895 -96.124274 -113.58443 -93.11993 C -110.01323 -90.172272 -108.22766 -85.836165 -108.22766 -80.110905 C -108.22766 -76.539704 -109.07783 -73.336993 -110.7784 -70.502706 C -112.42229 -67.66842 -114.80341 -65.429173 -117.92112 -63.785287 C -121.03884 -62.198086 -124.72328 -61.404554 -128.97471 -61.404554 C -132.43254 -61.404554 -135.57861 -61.886286 -138.41289 -62.849943 C -141.19049 -63.813601 -143.3731 -65.14551 -144.9603 -66.846082 C -146.5475 -68.60334 -147.34103 -70.559366 -147.34103 -72.713424 C -147.34103 -74.980853 -146.71743 -76.709787 -145.47034 -77.900188 C -144.22326 -79.147274 -142.69284 -79.770358 -140.87889 -79.770358 C -139.85855 -79.770358 -138.83792 -79.572362 -137.81758 -79.175562 C -136.74055 -78.778762 -135.77709 -78.211805 -134.9268 -77.474891 C -135.43697 -76.28449 -135.69213 -75.037289 -135.69213 -73.733517 C -135.69213 -71.862888 -135.15375 -70.332466 -134.07672 -69.142066 C -132.94301 -67.951665 -131.24214 -67.356645 -128.97471 -67.356645 C -123.87299 -67.356645 -121.32195 -71.608045 -121.32195 -80.110905 C -121.32195 -84.135593 -122.116 -87.054567 -123.7032 -88.86851 C -125.2904 -90.73914 -127.41584 -91.674541 -130.08007 -91.674541 C -131.72395 -91.674541 -133.48147 -91.36274 -135.3521 -90.739197 C -137.22273 -90.115654 -139.06495 -89.236897 -140.87889 -88.103182 L -145.55509 -92.609884 L -143.34438 -116.75776 L -140.53886 -119.05375 z M -92.837381 -101.28274 C -90.85338 -101.28274 -89.379603 -100.68772 -88.415945 -99.497319 C -87.395602 -98.363604 -86.885806 -96.776539 -86.885806 -94.735852 C -86.885806 -92.695166 -87.395602 -91.107584 -88.415945 -89.973869 C -89.379603 -88.840154 -90.85338 -88.273198 -92.837381 -88.273198 C -94.821381 -88.273198 -96.323739 -88.840154 -97.344082 -89.973869 C -98.30774 -91.16427 -98.789472 -92.751852 -98.789472 -94.735852 C -98.789472 -96.833225 -98.30774 -98.448354 -97.344082 -99.582068 C -96.323739 -100.71578 -94.821381 -101.28274 -92.837381 -101.28274 z M -11.890384 -89.293807 C -14.271184 -89.293807 -16.850295 -88.330343 -19.627896 -86.403028 L -19.627896 -85.297669 C -19.627896 -79.118924 -18.947651 -74.583787 -17.587194 -71.692814 C -16.226736 -68.801842 -14.072714 -67.356645 -11.125056 -67.356645 C -8.687569 -67.356645 -6.816767 -68.291529 -5.5129951 -70.162159 C -4.2092232 -72.032788 -3.5575589 -74.697123 -3.5575589 -78.154952 C -3.5575589 -81.669468 -4.2944476 -84.390447 -5.7682767 -86.317762 C -7.18542 -88.301762 -9.2261541 -89.293807 -11.890384 -89.293807 z M -92.837381 -74.498845 C -90.85338 -74.498845 -89.379603 -73.903824 -88.415945 -72.713424 C -87.395602 -71.579709 -86.885806 -69.992127 -86.885806 -67.951441 C -86.885806 -65.910754 -87.395602 -64.323689 -88.415945 -63.189974 C -89.379603 -62.05626 -90.85338 -61.489303 -92.837381 -61.489303 C -94.821381 -61.489303 -96.323739 -62.05626 -97.344082 -63.189974 C -98.30774 -64.380375 -98.789472 -65.96744 -98.789472 -67.951441 C -98.789472 -70.048813 -98.30774 -71.664459 -97.344082 -72.798173 C -96.323739 -73.931888 -94.821381 -74.498845 -92.837381 -74.498845 z " /></g></svg>
