<?xml version="1.0" encoding="UTF-8" standalone="no"?>
<!-- Created with Inkscape (http://www.inkscape.org/) -->

<svg
   width="172.6701mm"
   height="172.6701mm"
   viewBox="0 0 172.6701 172.6701"
   version="1.1"
   id="svg1"
   xml:space="preserve"
   xmlns="http://www.w3.org/2000/svg"
   xmlns:svg="http://www.w3.org/2000/svg"><defs
     id="defs1" /><g
     id="layer1"
     transform="translate(157.25102,198.81012)"><path
       id="path5"
       style="fill:#ffffff;fill-opacity:1;stroke-width:0.805188;stroke-linecap:round;stroke-linejoin:round"
       d="M -2.0863309 -198.17657 L -10.088943 -183.11289 L -10.930235 -165.68398 L -19.198981 -165.68398 L -11.423229 -155.47426 L -12.166336 -140.07934 C -28.353216 -157.12094 -50.823548 -166.77435 -74.327399 -166.78417 C -103.64471 -166.77397 -130.92652 -151.79225 -146.66717 -127.05894 L -157.25102 -127.05894 L -149.61996 -115.86014 L -157.25102 -26.140039 L -8.5138455 -26.140039 L 15.419061 -26.140039 L 8.0799737 -154.80195 L 15.419061 -165.68398 L 7.4593397 -165.68398 L 6.4490654 -183.39297 L -2.0863309 -198.17657 z M -83.43072 -192.21621 C -85.584619 -189.65499 -86.77489 -186.4211 -86.795372 -183.07465 C -86.842092 -175.15518 -80.459903 -168.69733 -72.540428 -168.65072 C -64.621155 -168.60402 -58.163395 -174.98588 -58.116503 -182.90515 C -58.102813 -186.26049 -59.266203 -189.5144 -61.404157 -192.10045 C -60.83125 -190.6836 -60.536835 -189.16959 -60.537027 -187.64129 C -60.575787 -181.07411 -65.930869 -175.78172 -72.498054 -175.82031 C -79.065241 -175.85911 -84.357627 -181.21415 -84.319038 -187.78134 C -84.309338 -189.30285 -84.007827 -190.80837 -83.43072 -192.21621 z M -113.32967 -119.90383 L -111.28897 -115.65241 C -122.73949 -110.72075 -129.62664 -103.12528 -131.95076 -92.865166 C -128.66298 -94.452366 -125.5455 -95.245899 -122.59784 -95.245899 C -116.92926 -95.245899 -112.47935 -93.715477 -109.24827 -90.654448 C -105.96049 -87.593418 -104.31627 -83.455306 -104.31627 -78.240218 C -104.31627 -75.009132 -105.19502 -72.118221 -106.95228 -69.567363 C -108.65285 -67.016505 -111.06203 -65.032415 -114.17975 -63.615271 C -117.24078 -62.198128 -120.75529 -61.489303 -124.72329 -61.489303 C -131.46889 -61.489303 -136.65569 -63.360105 -140.28358 -67.101363 C -143.85478 -70.842622 -145.64036 -76.255999 -145.64036 -83.341716 C -145.64036 -92.241376 -142.89132 -99.808775 -137.3928 -106.04421 C -131.8376 -112.33632 -123.81653 -116.95617 -113.32967 -119.90383 z M -55.509943 -119.64906 C -48.877712 -119.64906 -43.804199 -117.15466 -40.289684 -112.16631 C -36.718482 -107.23465 -34.932905 -100.06428 -34.932905 -90.654448 C -34.932905 -81.244616 -36.718482 -74.017081 -40.289684 -68.97205 C -43.804199 -63.983706 -48.877712 -61.489303 -55.509943 -61.489303 C -62.142174 -61.489303 -67.243751 -63.983706 -70.814952 -68.97205 C -74.386154 -74.017081 -76.171731 -81.244616 -76.171731 -90.654448 C -76.171731 -100.00759 -74.386154 -107.17797 -70.814952 -112.16631 C -67.243751 -117.15466 -62.142174 -119.64906 -55.509943 -119.64906 z M -30.511469 -118.88373 L -26.345315 -118.88373 C -24.191257 -118.82705 -19.486189 -118.79847 -12.230415 -118.79847 C -4.6912118 -118.79847 0.21236928 -118.82705 2.4797987 -118.88373 L 6.5612033 -118.88373 L 8.2613579 -115.22762 C 7.184329 -113.52705 5.143595 -109.84261 2.139251 -104.17404 C -0.86509296 -98.505463 -3.6993596 -92.496548 -6.3635892 -86.147746 C -9.0278187 -79.798944 -10.359728 -74.838719 -10.359728 -71.267517 C -10.359728 -68.433231 -9.3676827 -66.307789 -7.3836819 -64.890646 C -9.3109969 -62.566531 -11.776819 -61.404554 -14.781163 -61.404554 C -17.558764 -61.404554 -19.712786 -62.169506 -21.243301 -63.700021 C -22.773816 -65.230536 -23.539285 -67.356494 -23.539285 -70.077409 C -23.539285 -73.478553 -22.717172 -77.077772 -21.073286 -80.875717 C -19.429399 -84.730347 -16.481845 -89.945728 -12.230415 -96.521273 L -2.1969184 -111.9963 L -21.583332 -111.9963 C -22.376932 -109.44544 -22.859181 -106.44124 -23.029239 -102.98341 C -24.049582 -102.81335 -25.098271 -102.72813 -26.1753 -102.72813 C -27.309014 -102.72813 -28.414347 -102.81335 -29.491376 -102.98341 L -31.87211 -117.60836 L -30.511469 -118.88373 z M -55.509943 -115.31237 C -58.400916 -115.31237 -60.498294 -113.41351 -61.802066 -109.61556 C -63.049152 -105.81762 -63.672753 -99.497422 -63.672753 -90.654448 C -63.672753 -81.868159 -63.049152 -75.576025 -61.802066 -71.778081 C -60.498294 -68.036822 -58.400916 -66.16602 -55.509943 -66.16602 C -52.618971 -66.16602 -50.550173 -68.036822 -49.303087 -71.778081 C -47.999315 -75.576025 -47.347134 -81.868159 -47.347134 -90.654448 C -47.347134 -99.440737 -47.999315 -105.73287 -49.303087 -109.53081 C -50.550173 -113.38544 -52.618971 -115.31237 -55.509943 -115.31237 z M -89.351289 -101.28274 C -87.367288 -101.28274 -85.893511 -100.68772 -84.929853 -99.497319 C -83.90951 -98.363604 -83.399197 -96.776539 -83.399197 -94.735852 C -83.399197 -92.695166 -83.90951 -91.107584 -84.929853 -89.973869 C -85.893511 -88.840154 -87.367288 -88.273198 -89.351289 -88.273198 C -91.335289 -88.273198 -92.837647 -88.840154 -93.85799 -89.973869 C -94.821648 -91.16427 -95.30338 -92.751852 -95.30338 -94.735852 C -95.30338 -96.833225 -94.821648 -98.448354 -93.85799 -99.582068 C -92.837647 -100.71578 -91.335289 -101.28274 -89.351289 -101.28274 z M -124.97857 -89.293807 C -127.35937 -89.293807 -129.93848 -88.330343 -132.71608 -86.403028 L -132.71608 -85.297669 C -132.71608 -79.118924 -132.03584 -74.583787 -130.67538 -71.692814 C -129.31492 -68.801842 -127.1609 -67.356645 -124.21324 -67.356645 C -121.77576 -67.356645 -119.90495 -68.291529 -118.60118 -70.162159 C -117.29741 -72.032788 -116.64575 -74.697123 -116.64575 -78.154952 C -116.64575 -81.669468 -117.38264 -84.390447 -118.85646 -86.317762 C -120.27361 -88.301762 -122.31434 -89.293807 -124.97857 -89.293807 z M -89.351289 -74.498845 C -87.367288 -74.498845 -85.893511 -73.903824 -84.929853 -72.713424 C -83.90951 -71.579709 -83.399197 -69.992127 -83.399197 -67.951441 C -83.399197 -65.910754 -83.90951 -64.323689 -84.929853 -63.189974 C -85.893511 -62.05626 -87.367288 -61.489303 -89.351289 -61.489303 C -91.335289 -61.489303 -92.837647 -62.05626 -93.85799 -63.189974 C -94.821648 -64.380375 -95.30338 -65.96744 -95.30338 -67.951441 C -95.30338 -70.048813 -94.821648 -71.664459 -93.85799 -72.798173 C -92.837647 -73.931888 -91.335289 -74.498845 -89.351289 -74.498845 z " /></g></svg>
