<?xml version="1.0" encoding="UTF-8" standalone="no"?>
<!-- Created with Inkscape (http://www.inkscape.org/) -->

<svg
   width="172.6701mm"
   height="172.6701mm"
   viewBox="0 0 172.6701 172.6701"
   version="1.1"
   id="svg1"
   xml:space="preserve"
   xmlns="http://www.w3.org/2000/svg"
   xmlns:svg="http://www.w3.org/2000/svg"><defs
     id="defs1" /><g
     id="layer1"
     transform="translate(157.25102,198.81012)"><path
       id="path5"
       style="fill:#ffffff;fill-opacity:1;stroke-width:0.805188;stroke-linecap:round;stroke-linejoin:round"
       d="M -2.0863309 -198.17657 L -10.088943 -183.11289 L -10.930235 -165.68398 L -19.198981 -165.68398 L -11.423229 -155.47426 L -12.166336 -140.07934 C -28.353216 -157.12094 -50.823548 -166.77435 -74.327399 -166.78417 C -103.64471 -166.77397 -130.92652 -151.79225 -146.66717 -127.05894 L -157.25102 -127.05894 L -149.61996 -115.86014 L -157.25102 -26.140039 L -8.5138455 -26.140039 L 15.419061 -26.140039 L 8.0799737 -154.80195 L 15.419061 -165.68398 L 7.4593397 -165.68398 L 6.4490654 -183.39297 L -2.0863309 -198.17657 z M -83.43072 -192.21621 C -85.584619 -189.65499 -86.77489 -186.4211 -86.795372 -183.07465 C -86.842092 -175.15518 -80.459903 -168.69733 -72.540428 -168.65072 C -64.621155 -168.60402 -58.163395 -174.98588 -58.116503 -182.90515 C -58.102813 -186.26049 -59.266203 -189.5144 -61.404157 -192.10045 C -60.83125 -190.6836 -60.536835 -189.16959 -60.537027 -187.64129 C -60.575787 -181.07411 -65.930869 -175.78172 -72.498054 -175.82031 C -79.065241 -175.85911 -84.357627 -181.21415 -84.319038 -187.78134 C -84.309338 -189.30285 -84.007827 -190.80837 -83.43072 -192.21621 z M -56.01999 -120.07436 C -51.485131 -119.84761 -47.800688 -118.85557 -44.966401 -117.09831 L -65.203409 -83.767013 L -52.193867 -83.767013 L -51.343789 -97.626632 C -49.529846 -97.626632 -48.226 -97.995076 -47.4324 -98.731991 C -46.582114 -99.468905 -45.929933 -100.71611 -45.476447 -102.47336 L -40.629715 -102.47336 L -40.714981 -83.341716 C -38.560923 -82.718173 -35.839944 -82.066508 -32.552172 -81.38628 L -32.977469 -77.304875 L -41.140278 -77.304875 L -41.140278 -62.084615 L -52.193867 -62.084615 L -52.193867 -77.304875 L -76.767044 -77.304875 L -77.447106 -80.36567 L -56.01999 -120.07436 z M -112.64909 -119.90383 L -110.60839 -115.65241 C -122.05891 -110.72075 -128.94658 -103.12528 -131.27069 -92.865166 C -127.98292 -94.452366 -124.86492 -95.245899 -121.91726 -95.245899 C -116.24869 -95.245899 -111.79877 -93.715477 -108.56769 -90.654448 C -105.27991 -87.593418 -103.6362 -83.455306 -103.6362 -78.240218 C -103.6362 -75.009132 -104.51496 -72.118221 -106.27222 -69.567363 C -107.97279 -67.016505 -110.38197 -65.032415 -113.49969 -63.615271 C -116.56072 -62.198128 -120.07523 -61.489303 -124.04323 -61.489303 C -130.78883 -61.489303 -135.97563 -63.360105 -139.60352 -67.101363 C -143.17472 -70.842622 -144.9603 -76.255999 -144.9603 -83.341716 C -144.9603 -92.241376 -142.21074 -99.808775 -136.71222 -106.04421 C -131.15702 -112.33632 -123.13595 -116.95617 -112.64909 -119.90383 z M -7.043651 -119.13901 L -4.2376207 -117.86364 L -4.2376207 -68.716769 C -3.1605918 -68.093226 -1.4602385 -67.526269 0.86387665 -67.016097 C 3.1879918 -66.562611 5.0302134 -66.279392 6.3906711 -66.16602 L 6.1359063 -62.084615 L -28.556033 -62.084615 L -28.386018 -66.16602 C -23.340987 -66.732877 -19.486095 -67.583054 -16.821866 -68.716769 L -16.821866 -109.44555 L -28.216002 -109.44555 L -28.216002 -114.37703 C -24.588115 -114.66046 -20.846511 -115.19935 -16.991881 -115.99295 C -13.137251 -116.84324 -9.821252 -117.89193 -7.043651 -119.13901 z M -88.671227 -101.28274 C -86.687226 -101.28274 -85.213449 -100.68772 -84.249791 -99.497319 C -83.229448 -98.363604 -82.719135 -96.776539 -82.719135 -94.735852 C -82.719135 -92.695166 -83.229448 -91.107584 -84.249791 -89.973869 C -85.213449 -88.840154 -86.687226 -88.273198 -88.671227 -88.273198 C -90.655227 -88.273198 -92.157585 -88.840154 -93.177928 -89.973869 C -94.141586 -91.16427 -94.623318 -92.751852 -94.623318 -94.735852 C -94.623318 -96.833225 -94.141586 -98.448354 -93.177928 -99.582068 C -92.157585 -100.71578 -90.655227 -101.28274 -88.671227 -101.28274 z M -124.29799 -89.293807 C -126.67879 -89.293807 -129.25842 -88.330343 -132.03602 -86.403028 L -132.03602 -85.297669 C -132.03602 -79.118924 -131.35578 -74.583787 -129.99532 -71.692814 C -128.63486 -68.801842 -126.48084 -67.356645 -123.53318 -67.356645 C -121.09569 -67.356645 -119.22489 -68.291529 -117.92112 -70.162159 C -116.61735 -72.032788 -115.96517 -74.697123 -115.96517 -78.154952 C -115.96517 -81.669468 -116.70206 -84.390447 -118.17589 -86.317762 C -119.59303 -88.301762 -121.63376 -89.293807 -124.29799 -89.293807 z M -88.671227 -74.498845 C -86.687226 -74.498845 -85.213449 -73.903824 -84.249791 -72.713424 C -83.229448 -71.579709 -82.719135 -69.992127 -82.719135 -67.951441 C -82.719135 -65.910754 -83.229448 -64.323689 -84.249791 -63.189974 C -85.213449 -62.05626 -86.687226 -61.489303 -88.671227 -61.489303 C -90.655227 -61.489303 -92.157585 -62.05626 -93.177928 -63.189974 C -94.141586 -64.380375 -94.623318 -65.96744 -94.623318 -67.951441 C -94.623318 -70.048813 -94.141586 -71.664459 -93.177928 -72.798173 C -92.157585 -73.931888 -90.655227 -74.498845 -88.671227 -74.498845 z " /></g></svg>
