<?xml version="1.0" encoding="UTF-8" standalone="no"?>
<!-- Created with Inkscape (http://www.inkscape.org/) -->

<svg
   width="172.6701mm"
   height="172.6701mm"
   viewBox="0 0 172.6701 172.6701"
   version="1.1"
   id="svg1"
   xml:space="preserve"
   xmlns="http://www.w3.org/2000/svg"
   xmlns:svg="http://www.w3.org/2000/svg"><defs
     id="defs1" /><g
     id="layer1"
     transform="translate(157.25102,198.81012)"><path
       id="path5"
       style="fill:#ffffff;fill-opacity:1;stroke-width:0.805188;stroke-linecap:round;stroke-linejoin:round"
       d="M -2.0863309 -198.17657 L -10.088943 -183.11289 L -10.930235 -165.68398 L -19.198981 -165.68398 L -11.423229 -155.47426 L -12.166336 -140.07934 C -28.353216 -157.12094 -50.823548 -166.77435 -74.327399 -166.78417 C -103.64471 -166.77397 -130.92652 -151.79225 -146.66717 -127.05894 L -157.25102 -127.05894 L -149.61996 -115.86014 L -157.25102 -26.140039 L -8.5138455 -26.140039 L 15.419061 -26.140039 L 8.0799737 -154.80195 L 15.419061 -165.68398 L 7.4593397 -165.68398 L 6.4490654 -183.39297 L -2.0863309 -198.17657 z M -83.43072 -192.21621 C -85.584619 -189.65499 -86.77489 -186.4211 -86.795372 -183.07465 C -86.842092 -175.15518 -80.459903 -168.69733 -72.540428 -168.65072 C -64.621155 -168.60402 -58.163395 -174.98588 -58.116503 -182.90515 C -58.102813 -186.26049 -59.266203 -189.5144 -61.404157 -192.10045 C -60.83125 -190.6836 -60.536835 -189.16959 -60.537027 -187.64129 C -60.575787 -181.07411 -65.930869 -175.78172 -72.498054 -175.82031 C -79.065241 -175.85911 -84.357627 -181.21415 -84.319038 -187.78134 C -84.309338 -189.30285 -84.007827 -190.80837 -83.43072 -192.21621 z M -36.691971 -133.81925 C -29.162317 -133.44277 -23.044085 -131.79518 -18.338052 -128.87744 L -51.939619 -73.534563 L -30.33887 -73.534563 L -28.92707 -96.547111 C -25.915208 -96.547111 -23.750065 -97.15909 -22.432376 -98.382658 C -21.020566 -99.606227 -19.938511 -101.67694 -19.185546 -104.59468 L -11.137975 -104.59468 L -11.279051 -72.828662 C -7.7024661 -71.793335 -3.1848722 -70.71128 2.2741265 -69.581832 L 1.5682264 -62.804985 L -11.984951 -62.804985 L -11.984951 -37.533659 L -30.33887 -37.533659 L -30.33887 -62.804985 L -71.139997 -62.804985 L -72.269644 -67.887362 L -36.691971 -133.81925 z M -109.2586 -133.25443 C -99.564172 -133.25443 -91.846336 -130.85399 -86.104975 -126.05384 C -80.363614 -121.3478 -77.493098 -114.71254 -77.493098 -106.14756 C -77.493098 -98.617906 -80.363614 -90.570344 -86.104975 -82.005363 C -91.846336 -73.534503 -101.30568 -63.322832 -114.48257 -51.369507 L -76.505044 -51.369507 L -76.505044 -37.533659 L -140.4598 -37.533659 L -140.4598 -45.722307 C -130.0124 -55.793218 -121.87093 -64.404768 -116.03545 -71.557939 C -110.19997 -78.71111 -106.01158 -85.299935 -103.47032 -91.323658 C -100.83494 -97.34738 -99.517593 -103.55901 -99.517593 -109.95921 C -99.517593 -120.12424 -102.90566 -125.20686 -109.68235 -125.20686 C -112.69421 -125.20686 -115.1416 -123.79508 -117.02402 -120.97146 C -118.90643 -118.24196 -119.84762 -114.85389 -119.84762 -110.80671 C -119.84762 -107.98309 -118.85896 -105.30039 -116.88242 -102.75914 C -118.48248 -101.2532 -120.31789 -100.07672 -122.38855 -99.229635 C -124.36508 -98.382549 -126.34189 -97.958912 -128.31842 -97.958912 C -131.70676 -97.958912 -134.53032 -98.994527 -136.78922 -101.06518 C -139.04812 -103.22996 -140.17764 -106.33577 -140.17764 -110.38296 C -140.17764 -114.71251 -138.90673 -118.61864 -136.36547 -122.10111 C -133.82422 -125.58357 -130.24781 -128.3127 -125.6359 -130.28924 C -120.92986 -132.26577 -115.47056 -133.25443 -109.2586 -133.25443 z " /></g></svg>
