<?xml version="1.0" encoding="UTF-8" standalone="no"?>
<!-- Created with Inkscape (http://www.inkscape.org/) -->

<svg
   width="172.6701mm"
   height="172.6701mm"
   viewBox="0 0 172.6701 172.6701"
   version="1.1"
   id="svg1"
   xml:space="preserve"
   xmlns="http://www.w3.org/2000/svg"
   xmlns:svg="http://www.w3.org/2000/svg"><defs
     id="defs1" /><g
     id="layer1"
     transform="translate(157.25102,198.81012)"><path
       id="path5"
       style="fill:#ffffff;fill-opacity:1;stroke-width:0.805188;stroke-linecap:round;stroke-linejoin:round"
       d="M -2.0863309 -198.17657 L -10.088943 -183.11289 L -10.930235 -165.68398 L -19.198981 -165.68398 L -11.423229 -155.47426 L -12.166336 -140.07934 C -28.353216 -157.12094 -50.823548 -166.77435 -74.327399 -166.78417 C -103.64471 -166.77397 -130.92652 -151.79225 -146.66717 -127.05894 L -157.25102 -127.05894 L -149.61996 -115.86014 L -157.25102 -26.140039 L -8.5138455 -26.140039 L 15.419061 -26.140039 L 8.0799737 -154.80195 L 15.419061 -165.68398 L 7.4593397 -165.68398 L 6.4490654 -183.39297 L -2.0863309 -198.17657 z M -83.43072 -192.21621 C -85.584619 -189.65499 -86.77489 -186.4211 -86.795372 -183.07465 C -86.842092 -175.15518 -80.459903 -168.69733 -72.540428 -168.65072 C -64.621155 -168.60402 -58.163395 -174.98588 -58.116503 -182.90515 C -58.102813 -186.26049 -59.266203 -189.5144 -61.404157 -192.10045 C -60.83125 -190.6836 -60.536835 -189.16959 -60.537027 -187.64129 C -60.575787 -181.07411 -65.930869 -175.78172 -72.498054 -175.82031 C -79.065241 -175.85911 -84.357627 -181.21415 -84.319038 -187.78134 C -84.309338 -189.30285 -84.007827 -190.80837 -83.43072 -192.21621 z M -59.038927 -119.64906 C -52.406696 -119.64906 -47.333183 -117.15466 -43.818667 -112.16631 C -40.247466 -107.23465 -38.461888 -100.06428 -38.461888 -90.654448 C -38.461888 -81.244616 -40.247466 -74.017081 -43.818667 -68.97205 C -47.333183 -63.983706 -52.406696 -61.489303 -59.038927 -61.489303 C -65.671158 -61.489303 -70.772735 -63.983706 -74.343936 -68.97205 C -77.915137 -74.017081 -79.700715 -81.244616 -79.700715 -90.654448 C -79.700715 -100.00759 -77.915137 -107.17797 -74.343936 -112.16631 C -70.772735 -117.15466 -65.671158 -119.64906 -59.038927 -119.64906 z M -13.718696 -119.64906 C -7.0864648 -119.64906 -2.0129518 -117.15466 1.5015638 -112.16631 C 5.0727651 -107.23465 6.8583428 -100.06428 6.8583428 -90.654448 C 6.8583428 -81.244616 5.0727651 -74.017081 1.5015638 -68.97205 C -2.0129518 -63.983706 -7.0864648 -61.489303 -13.718696 -61.489303 C -20.350927 -61.489303 -25.452503 -63.983706 -29.023705 -68.97205 C -32.594906 -74.017081 -34.380484 -81.244616 -34.380484 -90.654448 C -34.380484 -100.00759 -32.594906 -107.17797 -29.023705 -112.16631 C -25.452503 -117.15466 -20.350927 -119.64906 -13.718696 -119.64906 z M -145.17269 -118.88373 L -141.00653 -118.88373 C -138.85248 -118.82705 -134.14741 -118.79847 -126.89163 -118.79847 C -119.35243 -118.79847 -114.44885 -118.82705 -112.18142 -118.88373 L -108.10053 -118.88373 L -106.39986 -115.22762 C -107.47689 -113.52705 -109.51762 -109.84261 -112.52197 -104.17404 C -115.52631 -98.505463 -118.36058 -92.496548 -121.02481 -86.147746 C -123.68904 -79.798944 -125.02095 -74.838719 -125.02095 -71.267517 C -125.02095 -68.433231 -124.0289 -66.307789 -122.0449 -64.890646 C -123.97222 -62.566531 -126.43804 -61.404554 -129.44238 -61.404554 C -132.21998 -61.404554 -134.374 -62.169506 -135.90452 -63.700021 C -137.43503 -65.230536 -138.2005 -67.356494 -138.2005 -70.077409 C -138.2005 -73.478553 -137.37839 -77.077772 -135.7345 -80.875717 C -134.09062 -84.730347 -131.14306 -89.945728 -126.89163 -96.521273 L -116.85814 -111.9963 L -136.24455 -111.9963 C -137.03815 -109.44544 -137.5204 -106.44124 -137.69046 -102.98341 C -138.7108 -102.81335 -139.75949 -102.72813 -140.83652 -102.72813 C -141.97023 -102.72813 -143.07557 -102.81335 -144.15259 -102.98341 L -146.53333 -117.60836 L -145.17269 -118.88373 z M -59.038927 -115.31237 C -61.929899 -115.31237 -64.027277 -113.41351 -65.331049 -109.61556 C -66.578135 -105.81762 -67.201736 -99.497422 -67.201736 -90.654448 C -67.201736 -81.868159 -66.578135 -75.576025 -65.331049 -71.778081 C -64.027277 -68.036822 -61.929899 -66.16602 -59.038927 -66.16602 C -56.147954 -66.16602 -54.07864 -68.036822 -52.831554 -71.778081 C -51.527782 -75.576025 -50.876118 -81.868159 -50.876118 -90.654448 C -50.876118 -99.440737 -51.527782 -105.73287 -52.831554 -109.53081 C -54.07864 -113.38544 -56.147954 -115.31237 -59.038927 -115.31237 z M -13.718696 -115.31237 C -16.609668 -115.31237 -18.707046 -113.41351 -20.010818 -109.61556 C -21.257904 -105.81762 -21.880988 -99.497422 -21.880988 -90.654448 C -21.880988 -81.868159 -21.257904 -75.576025 -20.010818 -71.778081 C -18.707046 -68.036822 -16.609668 -66.16602 -13.718696 -66.16602 C -10.827723 -66.16602 -8.7584089 -68.036822 -7.5113227 -71.778081 C -6.2075508 -75.576025 -5.5558865 -81.868159 -5.5558865 -90.654448 C -5.5558865 -99.440737 -6.2075508 -105.73287 -7.5113227 -109.53081 C -8.7584089 -113.38544 -10.827723 -115.31237 -13.718696 -115.31237 z M -92.880272 -101.28274 C -90.896271 -101.28274 -89.422494 -100.68772 -88.458837 -99.497319 C -87.438493 -98.363604 -86.928181 -96.776539 -86.928181 -94.735852 C -86.928181 -92.695166 -87.438493 -91.107584 -88.458837 -89.973869 C -89.422494 -88.840154 -90.896271 -88.273198 -92.880272 -88.273198 C -94.864273 -88.273198 -96.366631 -88.840154 -97.386974 -89.973869 C -98.350631 -91.16427 -98.832364 -92.751852 -98.832364 -94.735852 C -98.832364 -96.833225 -98.350631 -98.448354 -97.386974 -99.582068 C -96.366631 -100.71578 -94.864273 -101.28274 -92.880272 -101.28274 z M -92.880272 -74.498845 C -90.896271 -74.498845 -89.422494 -73.903824 -88.458837 -72.713424 C -87.438493 -71.579709 -86.928181 -69.992127 -86.928181 -67.951441 C -86.928181 -65.910754 -87.438493 -64.323689 -88.458837 -63.189974 C -89.422494 -62.05626 -90.896271 -61.489303 -92.880272 -61.489303 C -94.864273 -61.489303 -96.366631 -62.05626 -97.386974 -63.189974 C -98.350631 -64.380375 -98.832364 -65.96744 -98.832364 -67.951441 C -98.832364 -70.048813 -98.350631 -71.664459 -97.386974 -72.798173 C -96.366631 -73.931888 -94.864273 -74.498845 -92.880272 -74.498845 z " /></g></svg>
