<?xml version="1.0" encoding="UTF-8" standalone="no"?>
<!-- Created with Inkscape (http://www.inkscape.org/) -->

<svg
   width="172.6701mm"
   height="172.6701mm"
   viewBox="0 0 172.6701 172.6701"
   version="1.1"
   id="svg1"
   xml:space="preserve"
   xmlns="http://www.w3.org/2000/svg"
   xmlns:svg="http://www.w3.org/2000/svg"><defs
     id="defs1" /><g
     id="layer1"
     transform="translate(157.25102,198.81012)"><path
       id="path5"
       style="fill:#ffffff;fill-opacity:1;stroke-width:0.805188;stroke-linecap:round;stroke-linejoin:round"
       d="M -2.0863309 -198.17657 L -10.088943 -183.11289 L -10.930235 -165.68398 L -19.198981 -165.68398 L -11.423229 -155.47426 L -12.166336 -140.07934 C -28.353216 -157.12094 -50.823548 -166.77435 -74.327399 -166.78417 C -103.64471 -166.77397 -130.92652 -151.79225 -146.66717 -127.05894 L -157.25102 -127.05894 L -149.61996 -115.86014 L -157.25102 -26.140039 L -8.5138455 -26.140039 L 15.419061 -26.140039 L 8.0799737 -154.80195 L 15.419061 -165.68398 L 7.4593397 -165.68398 L 6.4490654 -183.39297 L -2.0863309 -198.17657 z M -83.43072 -192.21621 C -85.584619 -189.65499 -86.77489 -186.4211 -86.795372 -183.07465 C -86.842092 -175.15518 -80.459903 -168.69733 -72.540428 -168.65072 C -64.621155 -168.60402 -58.163395 -174.98588 -58.116503 -182.90515 C -58.102813 -186.26049 -59.266203 -189.5144 -61.404157 -192.10045 C -60.83125 -190.6836 -60.536835 -189.16959 -60.537027 -187.64129 C -60.575787 -181.07411 -65.930869 -175.78172 -72.498054 -175.82031 C -79.065241 -175.85911 -84.357627 -181.21415 -84.319038 -187.78134 C -84.309338 -189.30285 -84.007827 -190.80837 -83.43072 -192.21621 z M -123.06551 -119.81908 C -117.11351 -119.81908 -112.37986 -118.54381 -108.86534 -115.99295 C -105.35083 -113.44209 -103.59383 -110.01229 -103.59383 -105.70418 C -103.59383 -103.38006 -104.44401 -101.05611 -106.14458 -98.731991 C -107.84515 -96.407876 -110.0844 -94.50901 -112.862 -93.035181 C -109.34748 -91.334609 -106.59792 -89.350519 -104.61392 -87.08309 C -102.57324 -84.81566 -101.55313 -81.896169 -101.55313 -78.324968 C -101.55313 -73.166566 -103.42393 -69.057034 -107.16519 -65.996005 C -110.90645 -62.991661 -115.95138 -61.489303 -122.30018 -61.489303 C -129.27253 -61.489303 -134.65732 -62.878373 -138.45527 -65.655974 C -142.19653 -68.433575 -144.06733 -72.401238 -144.06733 -77.55964 C -144.06733 -80.223869 -143.21715 -82.86014 -141.51658 -85.467684 C -139.81601 -88.131914 -137.43489 -90.483931 -134.37386 -92.524618 C -136.92472 -93.941761 -138.90881 -95.642631 -140.32595 -97.626632 C -141.7431 -99.610633 -142.45192 -102.07646 -142.45192 -105.02411 C -142.45192 -109.55897 -140.69441 -113.15871 -137.17989 -115.82294 C -133.66538 -118.48717 -128.96083 -119.81908 -123.06551 -119.81908 z M -51.89621 -119.13901 L -49.09018 -117.86364 L -49.09018 -68.716769 C -48.013151 -68.093226 -46.312798 -67.526269 -43.988683 -67.016097 C -41.664568 -66.562611 -39.822346 -66.279392 -38.461888 -66.16602 L -38.716653 -62.084615 L -73.408592 -62.084615 L -73.238577 -66.16602 C -68.193547 -66.732877 -64.338654 -67.583054 -61.674425 -68.716769 L -61.674425 -109.44555 L -73.068562 -109.44555 L -73.068562 -114.37703 C -69.440674 -114.66046 -65.69907 -115.19935 -61.84444 -115.99295 C -57.98981 -116.84324 -54.673811 -117.89193 -51.89621 -119.13901 z M -27.237767 -119.05375 L -22.986347 -118.969 C -16.977659 -118.85563 -13.803529 -118.79847 -13.463414 -118.79847 L -1.3892158 -118.969 L 1.0762668 -117.18306 L 0.31145559 -110.72092 L -20.775629 -110.72092 L -21.966254 -96.521273 C -19.018596 -97.258188 -16.354261 -97.626632 -13.973461 -97.626632 C -8.3615728 -97.626632 -3.7983725 -96.124274 -0.28385691 -93.11993 C 3.2873444 -90.172272 5.0729221 -85.836165 5.0729221 -80.110905 C 5.0729221 -76.539704 4.2227454 -73.336993 2.5221734 -70.502706 C 0.87828704 -67.66842 -1.5028277 -65.429173 -4.6205431 -63.785287 C -7.7382585 -62.198086 -11.422702 -61.404554 -15.674132 -61.404554 C -19.131962 -61.404554 -22.278029 -61.886286 -25.112316 -62.849943 C -27.889917 -63.813601 -30.072519 -65.14551 -31.65972 -66.846082 C -33.24692 -68.60334 -34.040453 -70.559366 -34.040453 -72.713424 C -34.040453 -74.980853 -33.416852 -76.709787 -32.169766 -77.900188 C -30.92268 -79.147274 -29.392258 -79.770358 -27.578315 -79.770358 C -26.557972 -79.770358 -25.537346 -79.572362 -24.517003 -79.175562 C -23.439974 -78.778762 -22.476509 -78.211805 -21.626223 -77.474891 C -22.136395 -76.28449 -22.391551 -75.037289 -22.391551 -73.733517 C -22.391551 -71.862888 -21.852658 -70.332466 -20.775629 -69.142066 C -19.641915 -67.951665 -17.941561 -67.356645 -15.674132 -67.356645 C -10.572416 -67.356645 -8.0213691 -71.608045 -8.0213691 -80.110905 C -8.0213691 -84.135593 -8.8149018 -87.054567 -10.402102 -88.86851 C -11.989303 -90.73914 -14.115261 -91.674541 -16.779491 -91.674541 C -18.423377 -91.674541 -20.180374 -91.36274 -22.051004 -90.739197 C -23.921633 -90.115654 -25.764371 -89.236897 -27.578315 -88.103182 L -32.254515 -92.609884 L -30.043798 -116.75776 L -27.237767 -119.05375 z M -123.06551 -113.78224 C -125.33294 -113.78224 -127.11852 -113.04535 -128.42229 -111.57152 C -129.72606 -110.15437 -130.37772 -108.22693 -130.37772 -105.78944 C -130.37772 -103.63538 -129.55561 -101.84981 -127.91173 -100.43266 C -126.21115 -99.072205 -123.74533 -97.711715 -120.51424 -96.351258 C -119.0971 -97.314915 -117.9637 -98.646824 -117.11342 -100.3474 C -116.26313 -102.04797 -115.83804 -103.86213 -115.83804 -105.78944 C -115.83804 -108.22693 -116.51829 -110.15437 -117.87875 -111.57152 C -119.18252 -113.04535 -120.91145 -113.78224 -123.06551 -113.78224 z M -86.502884 -101.28274 C -84.518883 -101.28274 -83.045106 -100.68772 -82.081448 -99.497319 C -81.061105 -98.363604 -80.550792 -96.776539 -80.550792 -94.735852 C -80.550792 -92.695166 -81.061105 -91.107584 -82.081448 -89.973869 C -83.045106 -88.840154 -84.518883 -88.273198 -86.502884 -88.273198 C -88.486884 -88.273198 -89.989242 -88.840154 -91.009585 -89.973869 C -91.973243 -91.16427 -92.454975 -92.751852 -92.454975 -94.735852 C -92.454975 -96.833225 -91.973243 -98.448354 -91.009585 -99.582068 C -89.989242 -100.71578 -88.486884 -101.28274 -86.502884 -101.28274 z M -126.5516 -89.038526 C -128.25217 -87.678068 -129.49938 -86.119583 -130.29298 -84.362325 C -131.08658 -82.605068 -131.48308 -80.50769 -131.48308 -78.070203 C -131.48308 -74.725745 -130.66097 -72.089474 -129.01708 -70.162159 C -127.3732 -68.291529 -125.13447 -67.356645 -122.30018 -67.356645 C -119.52258 -67.356645 -117.36856 -68.291529 -115.83804 -70.162159 C -114.25084 -72.032788 -113.45731 -74.640479 -113.45731 -77.984937 C -113.45731 -79.855566 -114.05233 -81.442631 -115.24273 -82.746403 C -116.37645 -84.106861 -117.82164 -85.212194 -119.5789 -86.06248 C -121.33616 -86.969452 -123.66063 -87.961497 -126.5516 -89.038526 z M -86.502884 -74.498845 C -84.518883 -74.498845 -83.045106 -73.903824 -82.081448 -72.713424 C -81.061105 -71.579709 -80.550792 -69.992127 -80.550792 -67.951441 C -80.550792 -65.910754 -81.061105 -64.323689 -82.081448 -63.189974 C -83.045106 -62.05626 -84.518883 -61.489303 -86.502884 -61.489303 C -88.486884 -61.489303 -89.989242 -62.05626 -91.009585 -63.189974 C -91.973243 -64.380375 -92.454975 -65.96744 -92.454975 -67.951441 C -92.454975 -70.048813 -91.973243 -71.664459 -91.009585 -72.798173 C -89.989242 -73.931888 -88.486884 -74.498845 -86.502884 -74.498845 z " /></g></svg>
