<?xml version="1.0" encoding="UTF-8" standalone="no"?>
<!-- Created with Inkscape (http://www.inkscape.org/) -->

<svg
   width="172.6701mm"
   height="172.6701mm"
   viewBox="0 0 172.6701 172.6701"
   version="1.1"
   id="svg1"
   xml:space="preserve"
   xmlns="http://www.w3.org/2000/svg"
   xmlns:svg="http://www.w3.org/2000/svg"><defs
     id="defs1" /><g
     id="layer1"
     transform="translate(157.25102,198.81012)"><path
       id="path5"
       style="fill:#ffffff;fill-opacity:1;stroke-width:0.805188;stroke-linecap:round;stroke-linejoin:round"
       d="M -2.0863309 -198.17657 L -10.088943 -183.11289 L -10.930235 -165.68398 L -19.198981 -165.68398 L -11.423229 -155.47426 L -12.166336 -140.07934 C -28.353216 -157.12094 -50.823548 -166.77435 -74.327399 -166.78417 C -103.64471 -166.77397 -130.92652 -151.79225 -146.66717 -127.05894 L -157.25102 -127.05894 L -149.61996 -115.86014 L -157.25102 -26.140039 L -8.5138455 -26.140039 L 15.419061 -26.140039 L 8.0799737 -154.80195 L 15.419061 -165.68398 L 7.4593397 -165.68398 L 6.4490654 -183.39297 L -2.0863309 -198.17657 z M -83.43072 -192.21621 C -85.584619 -189.65499 -86.77489 -186.4211 -86.795372 -183.07465 C -86.842092 -175.15518 -80.459903 -168.69733 -72.540428 -168.65072 C -64.621155 -168.60402 -58.163395 -174.98588 -58.116503 -182.90515 C -58.102813 -186.26049 -59.266203 -189.5144 -61.404157 -192.10045 C -60.83125 -190.6836 -60.536835 -189.16959 -60.537027 -187.64129 C -60.575787 -181.07411 -65.930869 -175.78172 -72.498054 -175.82031 C -79.065241 -175.85911 -84.357627 -181.21415 -84.319038 -187.78134 C -84.309338 -189.30285 -84.007827 -190.80837 -83.43072 -192.21621 z M -16.311819 -120.07436 C -11.77696 -119.84761 -8.092517 -118.85557 -5.2582303 -117.09831 L -25.494721 -83.767013 L -12.485696 -83.767013 L -11.635102 -97.626632 C -9.8211585 -97.626632 -8.5173132 -97.995076 -7.7237129 -98.731991 C -6.8734268 -99.468905 -6.2217626 -100.71611 -5.7682767 -102.47336 L -0.92154409 -102.47336 L -1.0068102 -83.341716 C 1.1472477 -82.718173 3.8682264 -82.066508 7.155999 -81.38628 L 6.730702 -77.304875 L -1.4315905 -77.304875 L -1.4315905 -62.084615 L -12.485696 -62.084615 L -12.485696 -77.304875 L -37.058873 -77.304875 L -37.738935 -80.36567 L -16.311819 -120.07436 z M -126.93401 -119.73381 C -121.09538 -119.73381 -116.44695 -118.28861 -112.98912 -115.39764 C -109.53129 -112.56335 -107.80288 -108.56711 -107.80288 -103.40871 C -107.80288 -98.873849 -109.53129 -94.026912 -112.98912 -88.86851 C -116.44695 -83.766794 -122.14407 -77.616529 -130.08007 -70.41744 L -107.20756 -70.41744 L -107.20756 -62.084615 L -145.72563 -62.084615 L -145.72563 -67.016097 C -139.43351 -73.081471 -134.52993 -78.268272 -131.01541 -82.576388 C -127.5009 -86.884504 -124.97843 -90.852684 -123.44792 -94.480571 C -121.86071 -98.108458 -121.06718 -101.84955 -121.06718 -105.70418 C -121.06718 -111.82623 -123.10792 -114.88759 -127.18929 -114.88759 C -129.00323 -114.88759 -130.47701 -114.0369 -131.61072 -112.33633 C -132.74444 -110.69244 -133.3114 -108.65171 -133.3114 -106.21422 C -133.3114 -104.51365 -132.71586 -102.89852 -131.52546 -101.36801 C -132.48912 -100.46103 -133.59445 -99.752209 -134.84154 -99.242037 C -136.03194 -98.731866 -137.22249 -98.476709 -138.41289 -98.476709 C -140.45358 -98.476709 -142.15393 -99.10031 -143.51439 -100.3474 C -144.87485 -101.65117 -145.55509 -103.52197 -145.55509 -105.95946 C -145.55509 -108.567 -144.79014 -110.91953 -143.25963 -113.01691 C -141.72911 -115.11428 -139.57509 -116.75799 -136.79749 -117.94839 C -133.9632 -119.13879 -130.67527 -119.73381 -126.93401 -119.73381 z M -60.016645 -119.73381 C -54.178014 -119.73381 -49.52959 -118.28861 -46.07176 -115.39764 C -42.61393 -112.56335 -40.884996 -108.56711 -40.884996 -103.40871 C -40.884996 -98.873849 -42.61393 -94.026912 -46.07176 -88.86851 C -49.52959 -83.766794 -55.226703 -77.616529 -63.162706 -70.41744 L -40.289684 -70.41744 L -40.289684 -62.084615 L -78.807746 -62.084615 L -78.807746 -67.016097 C -72.515629 -73.081471 -67.612565 -78.268272 -64.09805 -82.576388 C -60.583534 -86.884504 -58.061068 -90.852684 -56.530553 -94.480571 C -54.943352 -98.108458 -54.149303 -101.84955 -54.149303 -105.70418 C -54.149303 -111.82623 -56.190037 -114.88759 -60.27141 -114.88759 C -62.085353 -114.88759 -63.559131 -114.0369 -64.692845 -112.33633 C -65.82656 -110.69244 -66.393517 -108.65171 -66.393517 -106.21422 C -66.393517 -104.51365 -65.798496 -102.89852 -64.608096 -101.36801 C -65.571754 -100.46103 -66.677086 -99.752209 -67.924173 -99.242037 C -69.114573 -98.731866 -70.30513 -98.476709 -71.495531 -98.476709 C -73.536217 -98.476709 -75.236571 -99.10031 -76.597028 -100.3474 C -77.957486 -101.65117 -78.637731 -103.52197 -78.637731 -105.95946 C -78.637731 -108.567 -77.872262 -110.91953 -76.341747 -113.01691 C -74.811232 -115.11428 -72.65721 -116.75799 -69.879609 -117.94839 C -67.045322 -119.13879 -63.757904 -119.73381 -60.016645 -119.73381 z M -92.072569 -101.28274 C -90.088569 -101.28274 -88.614275 -100.68772 -87.650617 -99.497319 C -86.630274 -98.363604 -86.120478 -96.776539 -86.120478 -94.735852 C -86.120478 -92.695166 -86.630274 -91.107584 -87.650617 -89.973869 C -88.614275 -88.840154 -90.088569 -88.273198 -92.072569 -88.273198 C -94.05657 -88.273198 -95.558411 -88.840154 -96.578754 -89.973869 C -97.542412 -91.16427 -98.024144 -92.751852 -98.024144 -94.735852 C -98.024144 -96.833225 -97.542412 -98.448354 -96.578754 -99.582068 C -95.558411 -100.71578 -94.05657 -101.28274 -92.072569 -101.28274 z M -92.072569 -74.498845 C -90.088569 -74.498845 -88.614275 -73.903824 -87.650617 -72.713424 C -86.630274 -71.579709 -86.120478 -69.992127 -86.120478 -67.951441 C -86.120478 -65.910754 -86.630274 -64.323689 -87.650617 -63.189974 C -88.614275 -62.05626 -90.088569 -61.489303 -92.072569 -61.489303 C -94.05657 -61.489303 -95.558411 -62.05626 -96.578754 -63.189974 C -97.542412 -64.380375 -98.024144 -65.96744 -98.024144 -67.951441 C -98.024144 -70.048813 -97.542412 -71.664459 -96.578754 -72.798173 C -95.558411 -73.931888 -94.05657 -74.498845 -92.072569 -74.498845 z " /></g></svg>
