<?xml version="1.0" encoding="UTF-8" standalone="no"?>
<!-- Created with Inkscape (http://www.inkscape.org/) -->

<svg
   width="172.6701mm"
   height="172.6701mm"
   viewBox="0 0 172.6701 172.6701"
   version="1.1"
   id="svg1"
   xml:space="preserve"
   xmlns="http://www.w3.org/2000/svg"
   xmlns:svg="http://www.w3.org/2000/svg"><defs
     id="defs1" /><g
     id="layer1"
     transform="translate(157.25102,198.81012)"><path
       id="path5"
       style="fill:#ffffff;fill-opacity:1;stroke-width:0.805188;stroke-linecap:round;stroke-linejoin:round"
       d="M -2.0863309 -198.17657 L -10.088943 -183.11289 L -10.930235 -165.68398 L -19.198981 -165.68398 L -11.423229 -155.47426 L -12.166336 -140.07934 C -28.353216 -157.12094 -50.823548 -166.77435 -74.327399 -166.78417 C -103.64471 -166.77397 -130.92652 -151.79225 -146.66717 -127.05894 L -157.25102 -127.05894 L -149.61996 -115.86014 L -157.25102 -26.140039 L -8.5138455 -26.140039 L 15.419061 -26.140039 L 8.0799737 -154.80195 L 15.419061 -165.68398 L 7.4593397 -165.68398 L 6.4490654 -183.39297 L -2.0863309 -198.17657 z M -83.43072 -192.21621 C -85.584619 -189.65499 -86.77489 -186.4211 -86.795372 -183.07465 C -86.842092 -175.15518 -80.459903 -168.69733 -72.540428 -168.65072 C -64.621155 -168.60402 -58.163395 -174.98588 -58.116503 -182.90515 C -58.102813 -186.26049 -59.266203 -189.5144 -61.404157 -192.10045 C -60.83125 -190.6836 -60.536835 -189.16959 -60.537027 -187.64129 C -60.575787 -181.07411 -65.930869 -175.78172 -72.498054 -175.82031 C -79.065241 -175.85911 -84.357627 -181.21415 -84.319038 -187.78134 C -84.309338 -189.30285 -84.007827 -190.80837 -83.43072 -192.21621 z M -56.275271 -119.64906 C -49.64304 -119.64906 -44.569527 -117.15466 -41.055012 -112.16631 C -37.48381 -107.23465 -35.698233 -100.06428 -35.698233 -90.654448 C -35.698233 -81.244616 -37.48381 -74.017081 -41.055012 -68.97205 C -44.569527 -63.983706 -49.64304 -61.489303 -56.275271 -61.489303 C -62.907502 -61.489303 -68.009079 -63.983706 -71.58028 -68.97205 C -75.151482 -74.017081 -76.937059 -81.244616 -76.937059 -90.654448 C -76.937059 -100.00759 -75.151482 -107.17797 -71.58028 -112.16631 C -68.009079 -117.15466 -62.907502 -119.64906 -56.275271 -119.64906 z M -137.81758 -119.05375 L -133.56616 -118.969 C -127.55747 -118.85563 -124.38334 -118.79847 -124.04323 -118.79847 L -111.96903 -118.969 L -109.50303 -117.18306 L -110.26836 -110.72092 L -131.35544 -110.72092 L -132.54607 -96.521273 C -129.59841 -97.258188 -126.93408 -97.626632 -124.55327 -97.626632 C -118.94139 -97.626632 -114.37819 -96.124274 -110.86367 -93.11993 C -107.29247 -90.172272 -105.50689 -85.836165 -105.50689 -80.110905 C -105.50689 -76.539704 -106.35707 -73.336993 -108.05764 -70.502706 C -109.70153 -67.66842 -112.08264 -65.429173 -115.20036 -63.785287 C -118.31807 -62.198086 -122.00252 -61.404554 -126.25395 -61.404554 C -129.71178 -61.404554 -132.85784 -61.886286 -135.69213 -62.849943 C -138.46973 -63.813601 -140.65182 -65.14551 -142.23902 -66.846082 C -143.82622 -68.60334 -144.62027 -70.559366 -144.62027 -72.713424 C -144.62027 -74.980853 -143.99667 -76.709787 -142.74958 -77.900188 C -141.50249 -79.147274 -139.97207 -79.770358 -138.15813 -79.770358 C -137.13779 -79.770358 -136.11716 -79.572362 -135.09682 -79.175562 C -134.01979 -78.778762 -133.05632 -78.211805 -132.20604 -77.474891 C -132.71621 -76.28449 -132.97137 -75.037289 -132.97137 -73.733517 C -132.97137 -71.862888 -132.43247 -70.332466 -131.35544 -69.142066 C -130.22173 -67.951665 -128.52138 -67.356645 -126.25395 -67.356645 C -121.15223 -67.356645 -118.60118 -71.608045 -118.60118 -80.110905 C -118.60118 -84.135593 -119.39472 -87.054567 -120.98192 -88.86851 C -122.56912 -90.73914 -124.69507 -91.674541 -127.3593 -91.674541 C -129.00319 -91.674541 -130.76019 -91.36274 -132.63082 -90.739197 C -134.50145 -90.115654 -136.34419 -89.236897 -138.15813 -88.103182 L -142.83433 -92.609884 L -140.62361 -116.75776 L -137.81758 -119.05375 z M -31.276797 -118.88373 L -27.110126 -118.88373 C -24.956069 -118.82705 -20.251517 -118.79847 -12.995742 -118.79847 C -5.4565397 -118.79847 -0.55295868 -118.82705 1.7144707 -118.88373 L 5.7958753 -118.88373 L 7.49603 -115.22762 C 6.419001 -113.52705 4.3787838 -109.84261 1.3744398 -104.17404 C -1.6299042 -98.505463 -4.4641708 -92.496548 -7.1284004 -86.147746 C -9.7926299 -79.798944 -11.125056 -74.838719 -11.125056 -71.267517 C -11.125056 -68.433231 -10.133011 -66.307789 -8.1490099 -64.890646 C -10.076325 -62.566531 -12.542147 -61.404554 -15.546491 -61.404554 C -18.324092 -61.404554 -20.478114 -62.169506 -22.008629 -63.700021 C -23.539144 -65.230536 -24.304613 -67.356494 -24.304613 -70.077409 C -24.304613 -73.478553 -23.4825 -77.077772 -21.838614 -80.875717 C -20.194727 -84.730347 -17.247173 -89.945728 -12.995742 -96.521273 L -2.9622464 -111.9963 L -22.34866 -111.9963 C -23.14226 -109.44544 -23.623993 -106.44124 -23.79405 -102.98341 C -24.814393 -102.81335 -25.863082 -102.72813 -26.940111 -102.72813 C -28.073826 -102.72813 -29.179159 -102.81335 -30.256188 -102.98341 L -32.637438 -117.60836 L -31.276797 -118.88373 z M -56.275271 -115.31237 C -59.166244 -115.31237 -61.263622 -113.41351 -62.567394 -109.61556 C -63.81448 -105.81762 -64.438081 -99.497422 -64.438081 -90.654448 C -64.438081 -81.868159 -63.81448 -75.576025 -62.567394 -71.778081 C -61.263622 -68.036822 -59.166244 -66.16602 -56.275271 -66.16602 C -53.384299 -66.16602 -51.315501 -68.036822 -50.068415 -71.778081 C -48.764643 -75.576025 -48.112462 -81.868159 -48.112462 -90.654448 C -48.112462 -99.440737 -48.764643 -105.73287 -50.068415 -109.53081 C -51.315501 -113.38544 -53.384299 -115.31237 -56.275271 -115.31237 z M -90.116617 -101.28274 C -88.132616 -101.28274 -86.658838 -100.68772 -85.695181 -99.497319 C -84.674838 -98.363604 -84.164525 -96.776539 -84.164525 -94.735852 C -84.164525 -92.695166 -84.674838 -91.107584 -85.695181 -89.973869 C -86.658838 -88.840154 -88.132616 -88.273198 -90.116617 -88.273198 C -92.100617 -88.273198 -93.602975 -88.840154 -94.623318 -89.973869 C -95.586976 -91.16427 -96.068708 -92.751852 -96.068708 -94.735852 C -96.068708 -96.833225 -95.586976 -98.448354 -94.623318 -99.582068 C -93.602975 -100.71578 -92.100617 -101.28274 -90.116617 -101.28274 z M -90.116617 -74.498845 C -88.132616 -74.498845 -86.658838 -73.903824 -85.695181 -72.713424 C -84.674838 -71.579709 -84.164525 -69.992127 -84.164525 -67.951441 C -84.164525 -65.910754 -84.674838 -64.323689 -85.695181 -63.189974 C -86.658838 -62.05626 -88.132616 -61.489303 -90.116617 -61.489303 C -92.100617 -61.489303 -93.602975 -62.05626 -94.623318 -63.189974 C -95.586976 -64.380375 -96.068708 -65.96744 -96.068708 -67.951441 C -96.068708 -70.048813 -95.586976 -71.664459 -94.623318 -72.798173 C -93.602975 -73.931888 -92.100617 -74.498845 -90.116617 -74.498845 z " /></g></svg>
