<?xml version="1.0" encoding="UTF-8" standalone="no"?>
<!-- Created with Inkscape (http://www.inkscape.org/) -->

<svg
   width="172.6701mm"
   height="172.6701mm"
   viewBox="0 0 172.6701 172.6701"
   version="1.1"
   id="svg1"
   xml:space="preserve"
   xmlns="http://www.w3.org/2000/svg"
   xmlns:svg="http://www.w3.org/2000/svg"><defs
     id="defs1" /><g
     id="layer1"
     transform="translate(157.25102,198.81012)"><path
       id="path5"
       style="fill:#ffffff;fill-opacity:1;stroke-width:0.805188;stroke-linecap:round;stroke-linejoin:round"
       d="M -2.0863309 -198.17657 L -10.088943 -183.11289 L -10.930235 -165.68398 L -19.198981 -165.68398 L -11.423229 -155.47426 L -12.166336 -140.07934 C -28.353216 -157.12094 -50.823548 -166.77435 -74.327399 -166.78417 C -103.64471 -166.77397 -130.92652 -151.79225 -146.66717 -127.05894 L -157.25102 -127.05894 L -149.61996 -115.86014 L -157.25102 -26.140039 L -8.5138455 -26.140039 L 15.419061 -26.140039 L 8.0799737 -154.80195 L 15.419061 -165.68398 L 7.4593397 -165.68398 L 6.4490654 -183.39297 L -2.0863309 -198.17657 z M -83.43072 -192.21621 C -85.584619 -189.65499 -86.77489 -186.4211 -86.795372 -183.07465 C -86.842092 -175.15518 -80.459903 -168.69733 -72.540428 -168.65072 C -64.621155 -168.60402 -58.163395 -174.98588 -58.116503 -182.90515 C -58.102813 -186.26049 -59.266203 -189.5144 -61.404157 -192.10045 C -60.83125 -190.6836 -60.536835 -189.16959 -60.537027 -187.64129 C -60.575787 -181.07411 -65.930869 -175.78172 -72.498054 -175.82031 C -79.065241 -175.85911 -84.357627 -181.21415 -84.319038 -187.78134 C -84.309338 -189.30285 -84.007827 -190.80837 -83.43072 -192.21621 z M -60.101394 -119.73381 C -56.416822 -119.73381 -53.157467 -119.11073 -50.32318 -117.86364 C -47.488893 -116.67324 -45.278227 -114.97237 -43.691027 -112.76163 C -42.103826 -110.60757 -41.310293 -108.11368 -41.310293 -105.27939 C -41.310293 -102.10499 -42.245694 -99.384015 -44.116324 -97.116586 C -45.986953 -94.849156 -48.764575 -93.120223 -52.449148 -91.929822 C -47.800918 -90.909479 -44.541563 -89.237189 -42.670934 -86.913074 C -40.800304 -84.588959 -39.864903 -81.442892 -39.864903 -77.474891 C -39.864903 -74.017061 -40.913592 -71.069506 -43.010965 -68.632019 C -45.051651 -66.194533 -47.715986 -64.380375 -51.003758 -63.189974 C -54.291531 -61.999574 -57.692238 -61.404554 -61.206753 -61.404554 C -66.308469 -61.404554 -70.645094 -62.453243 -74.216295 -64.550615 C -77.730811 -66.647987 -79.488325 -69.510317 -79.488325 -73.138204 C -79.488325 -75.235577 -78.864724 -76.851222 -77.617638 -77.984937 C -76.370552 -79.175337 -74.81155 -79.770358 -72.940921 -79.770358 C -71.013606 -79.770358 -69.058096 -79.005405 -67.074095 -77.474891 C -67.584267 -76.397862 -67.839423 -75.094016 -67.839423 -73.563501 C -67.839423 -71.749558 -67.30053 -70.275781 -66.223501 -69.142066 C -65.089787 -68.008351 -63.417497 -67.441394 -61.206753 -67.441394 C -56.33178 -67.441394 -53.894538 -70.814037 -53.894538 -77.55964 C -53.894538 -81.244213 -55.085095 -84.10706 -57.465896 -86.147746 C -59.790011 -88.188433 -63.10601 -89.208541 -67.414126 -89.208541 L -67.414126 -94.480571 C -59.081323 -95.1608 -54.914631 -98.760535 -54.914631 -105.27939 C -54.914631 -108.56717 -55.424944 -110.97583 -56.445287 -112.50634 C -57.46563 -114.09354 -58.8547 -114.88759 -60.611958 -114.88759 C -62.70933 -114.88759 -64.296395 -114.15071 -65.373424 -112.67688 C -66.393767 -111.20305 -66.90408 -109.41747 -66.90408 -107.3201 C -66.90408 -105.44947 -66.507055 -103.77718 -65.713455 -102.30335 C -67.300655 -100.60278 -69.341389 -99.752084 -71.835562 -99.752084 C -74.102991 -99.752084 -75.859989 -100.43233 -77.107075 -101.79279 C -78.354161 -103.15324 -78.977762 -104.91076 -78.977762 -107.06482 C -78.977762 -109.8991 -78.014297 -112.25164 -76.086982 -114.12227 C -74.102981 -116.04958 -71.665222 -117.46671 -68.77425 -118.37369 C -65.826592 -119.28066 -62.935681 -119.73381 -60.101394 -119.73381 z M -14.781163 -119.64906 C -8.1489322 -119.64906 -3.075936 -117.15466 0.43857961 -112.16631 C 4.0097809 -107.23465 5.7953586 -100.06428 5.7953586 -90.654448 C 5.7953586 -81.244616 4.0097809 -74.017081 0.43857961 -68.97205 C -3.075936 -63.983706 -8.1489322 -61.489303 -14.781163 -61.489303 C -21.413394 -61.489303 -26.515488 -63.983706 -30.086689 -68.97205 C -33.65789 -74.017081 -35.443468 -81.244616 -35.443468 -90.654448 C -35.443468 -100.00759 -33.65789 -107.17797 -30.086689 -112.16631 C -26.515488 -117.15466 -21.413394 -119.64906 -14.781163 -119.64906 z M -144.1097 -118.88373 L -139.94355 -118.88373 C -137.78949 -118.82705 -133.08442 -118.79847 -125.82865 -118.79847 C -118.28945 -118.79847 -113.38638 -118.82705 -111.11895 -118.88373 L -107.03755 -118.88373 L -105.33688 -115.22762 C -106.41391 -113.52705 -108.45464 -109.84261 -111.45898 -104.17404 C -114.46333 -98.505463 -117.29759 -92.496548 -119.96182 -86.147746 C -122.62605 -79.798944 -123.95796 -74.838719 -123.95796 -71.267517 C -123.95796 -68.433231 -122.96592 -66.307789 -120.98192 -64.890646 C -122.90923 -62.566531 -125.37505 -61.404554 -128.3794 -61.404554 C -131.157 -61.404554 -133.31102 -62.169506 -134.84154 -63.700021 C -136.37205 -65.230536 -137.13752 -67.356494 -137.13752 -70.077409 C -137.13752 -73.478553 -136.31541 -77.077772 -134.67152 -80.875717 C -133.02763 -84.730347 -130.08008 -89.945728 -125.82865 -96.521273 L -115.79515 -111.9963 L -135.18208 -111.9963 C -135.97568 -109.44544 -136.45742 -106.44124 -136.62747 -102.98341 C -137.64782 -102.81335 -138.6965 -102.72813 -139.77353 -102.72813 C -140.90725 -102.72813 -142.01258 -102.81335 -143.08961 -102.98341 L -145.47034 -117.60836 L -144.1097 -118.88373 z M -14.781163 -115.31237 C -17.672136 -115.31237 -19.769514 -113.41351 -21.073286 -109.61556 C -22.320372 -105.81762 -22.943972 -99.497422 -22.943972 -90.654448 C -22.943972 -81.868159 -22.320372 -75.576025 -21.073286 -71.778081 C -19.769514 -68.036822 -17.672136 -66.16602 -14.781163 -66.16602 C -11.890191 -66.16602 -9.8213931 -68.036822 -8.5743069 -71.778081 C -7.270535 -75.576025 -6.6188707 -81.868159 -6.6188707 -90.654448 C -6.6188707 -99.440737 -7.270535 -105.73287 -8.5743069 -109.53081 C -9.8213931 -113.38544 -11.890191 -115.31237 -14.781163 -115.31237 z M -91.817288 -101.28274 C -89.833287 -101.28274 -88.35951 -100.68772 -87.395852 -99.497319 C -86.375509 -98.363604 -85.865196 -96.776539 -85.865196 -94.735852 C -85.865196 -92.695166 -86.375509 -91.107584 -87.395852 -89.973869 C -88.35951 -88.840154 -89.833287 -88.273198 -91.817288 -88.273198 C -93.801289 -88.273198 -95.303646 -88.840154 -96.32399 -89.973869 C -97.287647 -91.16427 -97.769379 -92.751852 -97.769379 -94.735852 C -97.769379 -96.833225 -97.287647 -98.448354 -96.32399 -99.582068 C -95.303646 -100.71578 -93.801289 -101.28274 -91.817288 -101.28274 z M -91.817288 -74.498845 C -89.833287 -74.498845 -88.35951 -73.903824 -87.395852 -72.713424 C -86.375509 -71.579709 -85.865196 -69.992127 -85.865196 -67.951441 C -85.865196 -65.910754 -86.375509 -64.323689 -87.395852 -63.189974 C -88.35951 -62.05626 -89.833287 -61.489303 -91.817288 -61.489303 C -93.801289 -61.489303 -95.303646 -62.05626 -96.32399 -63.189974 C -97.287647 -64.380375 -97.769379 -65.96744 -97.769379 -67.951441 C -97.769379 -70.048813 -97.287647 -71.664459 -96.32399 -72.798173 C -95.303646 -73.931888 -93.801289 -74.498845 -91.817288 -74.498845 z " /></g></svg>
