<?xml version="1.0" encoding="UTF-8" standalone="no"?>
<!-- Created with Inkscape (http://www.inkscape.org/) -->

<svg
   width="172.6701mm"
   height="172.6701mm"
   viewBox="0 0 172.6701 172.6701"
   version="1.1"
   id="svg1"
   xml:space="preserve"
   xmlns="http://www.w3.org/2000/svg"
   xmlns:svg="http://www.w3.org/2000/svg"><defs
     id="defs1" /><g
     id="layer1"
     transform="translate(157.25102,198.81012)"><path
       id="path5"
       style="fill:#ffffff;fill-opacity:1;stroke-width:0.805188;stroke-linecap:round;stroke-linejoin:round"
       d="M -2.0863309 -198.17657 L -10.088943 -183.11289 L -10.930235 -165.68398 L -19.198981 -165.68398 L -11.423229 -155.47426 L -12.166336 -140.07934 C -28.353216 -157.12094 -50.823548 -166.77435 -74.327399 -166.78417 C -103.64471 -166.77397 -130.92652 -151.79225 -146.66717 -127.05894 L -157.25102 -127.05894 L -149.61996 -115.86014 L -157.25102 -26.140039 L -8.5138455 -26.140039 L 15.419061 -26.140039 L 8.0799737 -154.80195 L 15.419061 -165.68398 L 7.4593397 -165.68398 L 6.4490654 -183.39297 L -2.0863309 -198.17657 z M -83.43072 -192.21621 C -85.584619 -189.65499 -86.77489 -186.4211 -86.795372 -183.07465 C -86.842092 -175.15518 -80.459903 -168.69733 -72.540428 -168.65072 C -64.621155 -168.60402 -58.163395 -174.98588 -58.116503 -182.90515 C -58.102813 -186.26049 -59.266203 -189.5144 -61.404157 -192.10045 C -60.83125 -190.6836 -60.536835 -189.16959 -60.537027 -187.64129 C -60.575787 -181.07411 -65.930869 -175.78172 -72.498054 -175.82031 C -79.065241 -175.85911 -84.357627 -181.21415 -84.319038 -187.78134 C -84.309338 -189.30285 -84.007827 -190.80837 -83.43072 -192.21621 z M -58.018317 -119.73381 C -52.179687 -119.73381 -47.531262 -118.28861 -44.073432 -115.39764 C -40.615602 -112.56335 -38.886669 -108.56711 -38.886669 -103.40871 C -38.886669 -98.873849 -40.615602 -94.026912 -44.073432 -88.86851 C -47.531262 -83.766794 -53.228376 -77.616529 -61.164379 -70.41744 L -38.291873 -70.41744 L -38.291873 -62.084615 L -76.809935 -62.084615 L -76.809935 -67.016097 C -70.517819 -73.081471 -65.614238 -78.268272 -62.099722 -82.576388 C -58.585206 -86.884504 -56.06274 -90.852684 -54.532225 -94.480571 C -52.945025 -98.108458 -52.151492 -101.84955 -52.151492 -105.70418 C -52.151492 -111.82623 -54.192226 -114.88759 -58.273599 -114.88759 C -60.087542 -114.88759 -61.56132 -114.0369 -62.695034 -112.33633 C -63.828749 -110.69244 -64.395706 -108.65171 -64.395706 -106.21422 C -64.395706 -104.51365 -63.800169 -102.89852 -62.609768 -101.36801 C -63.573426 -100.46103 -64.678759 -99.752209 -65.925845 -99.242037 C -67.116245 -98.731866 -68.306803 -98.476709 -69.497203 -98.476709 C -71.53789 -98.476709 -73.238243 -99.10031 -74.598701 -100.3474 C -75.959158 -101.65117 -76.639403 -103.52197 -76.639403 -105.95946 C -76.639403 -108.567 -75.874451 -110.91953 -74.343936 -113.01691 C -72.813421 -115.11428 -70.659399 -116.75799 -67.881798 -117.94839 C -65.047511 -119.13879 -61.759576 -119.73381 -58.018317 -119.73381 z M -13.123383 -119.64906 C -6.4911523 -119.64906 -1.4176393 -117.15466 2.0968763 -112.16631 C 5.6680776 -107.23465 7.4536553 -100.06428 7.4536553 -90.654448 C 7.4536553 -81.244616 5.6680776 -74.017081 2.0968763 -68.97205 C -1.4176393 -63.983706 -6.4911523 -61.489303 -13.123383 -61.489303 C -19.755614 -61.489303 -24.857191 -63.983706 -28.428392 -68.97205 C -31.999594 -74.017081 -33.785171 -81.244616 -33.785171 -90.654448 C -33.785171 -100.00759 -31.999594 -107.17797 -28.428392 -112.16631 C -24.857191 -117.15466 -19.755614 -119.64906 -13.123383 -119.64906 z M -125.87102 -119.56379 C -119.12542 -119.56379 -113.9672 -117.69351 -110.396 -113.95225 C -106.76811 -110.21099 -104.95447 -104.7971 -104.95447 -97.711381 C -104.95447 -88.811721 -107.73209 -81.216258 -113.2873 -74.924142 C -118.78581 -68.688711 -126.7783 -64.09693 -137.26516 -61.149272 L -139.30586 -65.400692 C -133.63729 -67.838179 -129.07409 -70.956182 -125.61626 -74.754126 C -122.15843 -78.608756 -119.86254 -83.086732 -118.72882 -88.188448 C -121.90322 -86.601248 -124.99265 -85.807715 -127.99699 -85.807715 C -133.66557 -85.807715 -138.14354 -87.338137 -141.43131 -90.399166 C -144.6624 -93.460196 -146.27805 -97.598308 -146.27805 -102.8134 C -146.27805 -106.04448 -145.42787 -108.93539 -143.7273 -111.48625 C -141.97004 -114.03711 -139.56086 -116.0212 -136.49983 -117.43834 C -133.38212 -118.85549 -129.83902 -119.56379 -125.87102 -119.56379 z M -13.123383 -115.31237 C -16.014356 -115.31237 -18.111734 -113.41351 -19.415506 -109.61556 C -20.662592 -105.81762 -21.286193 -99.497422 -21.286193 -90.654448 C -21.286193 -81.868159 -20.662592 -75.576025 -19.415506 -71.778081 C -18.111734 -68.036822 -16.014356 -66.16602 -13.123383 -66.16602 C -10.232411 -66.16602 -8.1630964 -68.036822 -6.9160102 -71.778081 C -5.6122383 -75.576025 -4.960574 -81.868159 -4.960574 -90.654448 C -4.960574 -99.440737 -5.6122383 -105.73287 -6.9160102 -109.53081 C -8.1630964 -113.38544 -10.232411 -115.31237 -13.123383 -115.31237 z M -126.38159 -113.69697 C -128.81907 -113.69697 -130.68936 -112.76157 -131.99313 -110.89094 C -133.2969 -109.02031 -133.94908 -106.35597 -133.94908 -102.89814 C -133.94908 -99.383629 -133.24026 -96.634587 -131.82311 -94.650586 C -130.34929 -92.723271 -128.28049 -91.759807 -125.61626 -91.759807 C -123.29214 -91.759807 -120.71303 -92.723271 -117.87875 -94.650586 L -117.87875 -95.755945 C -117.87875 -101.93469 -118.55899 -106.46931 -119.91945 -109.36028 C -121.27991 -112.25126 -123.43393 -113.69697 -126.38159 -113.69697 z M -90.074242 -101.28274 C -88.090241 -101.28274 -86.616464 -100.68772 -85.652806 -99.497319 C -84.632463 -98.363604 -84.12215 -96.776539 -84.12215 -94.735852 C -84.12215 -92.695166 -84.632463 -91.107584 -85.652806 -89.973869 C -86.616464 -88.840154 -88.090241 -88.273198 -90.074242 -88.273198 C -92.058243 -88.273198 -93.5606 -88.840154 -94.580944 -89.973869 C -95.544601 -91.16427 -96.026333 -92.751852 -96.026333 -94.735852 C -96.026333 -96.833225 -95.544601 -98.448354 -94.580944 -99.582068 C -93.5606 -100.71578 -92.058243 -101.28274 -90.074242 -101.28274 z M -90.074242 -74.498845 C -88.090241 -74.498845 -86.616464 -73.903824 -85.652806 -72.713424 C -84.632463 -71.579709 -84.12215 -69.992127 -84.12215 -67.951441 C -84.12215 -65.910754 -84.632463 -64.323689 -85.652806 -63.189974 C -86.616464 -62.05626 -88.090241 -61.489303 -90.074242 -61.489303 C -92.058243 -61.489303 -93.5606 -62.05626 -94.580944 -63.189974 C -95.544601 -64.380375 -96.026333 -65.96744 -96.026333 -67.951441 C -96.026333 -70.048813 -95.544601 -71.664459 -94.580944 -72.798173 C -93.5606 -73.931888 -92.058243 -74.498845 -90.074242 -74.498845 z " /></g></svg>
