<?xml version="1.0" encoding="UTF-8" standalone="no"?>
<!-- Created with Inkscape (http://www.inkscape.org/) -->

<svg
   width="172.6701mm"
   height="172.6701mm"
   viewBox="0 0 172.6701 172.6701"
   version="1.1"
   id="svg1"
   xml:space="preserve"
   xmlns="http://www.w3.org/2000/svg"
   xmlns:svg="http://www.w3.org/2000/svg"><defs
     id="defs1" /><g
     id="layer1"
     transform="translate(157.25102,198.81012)"><path
       id="path5"
       style="fill:#ffffff;fill-opacity:1;stroke-width:0.805188;stroke-linecap:round;stroke-linejoin:round"
       d="M -2.0863309 -198.17657 L -10.088943 -183.11289 L -10.930235 -165.68398 L -19.198981 -165.68398 L -11.423229 -155.47426 L -12.166336 -140.07934 C -28.353216 -157.12094 -50.823548 -166.77435 -74.327399 -166.78417 C -103.64471 -166.77397 -130.92652 -151.79225 -146.66717 -127.05894 L -157.25102 -127.05894 L -149.61996 -115.86014 L -157.25102 -26.140039 L -8.5138455 -26.140039 L 15.419061 -26.140039 L 8.0799737 -154.80195 L 15.419061 -165.68398 L 7.4593397 -165.68398 L 6.4490654 -183.39297 L -2.0863309 -198.17657 z M -83.43072 -192.21621 C -85.584619 -189.65499 -86.77489 -186.4211 -86.795372 -183.07465 C -86.842092 -175.15518 -80.459903 -168.69733 -72.540428 -168.65072 C -64.621155 -168.60402 -58.163395 -174.98588 -58.116503 -182.90515 C -58.102813 -186.26049 -59.266203 -189.5144 -61.404157 -192.10045 C -60.83125 -190.6836 -60.536835 -189.16959 -60.537027 -187.64129 C -60.575787 -181.07411 -65.930869 -175.78172 -72.498054 -175.82031 C -79.065241 -175.85911 -84.357627 -181.21415 -84.319038 -187.78134 C -84.309338 -189.30285 -84.007827 -190.80837 -83.43072 -192.21621 z M -124.42563 -119.73381 C -120.74106 -119.73381 -117.48171 -119.11073 -114.64742 -117.86364 C -111.81313 -116.67324 -109.60247 -114.97237 -108.01527 -112.76163 C -106.42807 -110.60757 -105.63453 -108.11368 -105.63453 -105.27939 C -105.63453 -102.10499 -106.56993 -99.384015 -108.44056 -97.116586 C -110.31119 -94.849156 -113.08881 -93.120223 -116.77339 -91.929822 C -112.12516 -90.909479 -108.86529 -89.237189 -106.99466 -86.913074 C -105.12403 -84.588959 -104.18914 -81.442892 -104.18914 -77.474891 C -104.18914 -74.017061 -105.23783 -71.069506 -107.3352 -68.632019 C -109.37589 -66.194533 -112.03971 -64.380375 -115.32748 -63.189974 C -118.61525 -61.999574 -122.01648 -61.404554 -125.53099 -61.404554 C -130.63271 -61.404554 -134.96933 -62.453243 -138.54053 -64.550615 C -142.05505 -66.647987 -143.81205 -69.510317 -143.81205 -73.138204 C -143.81205 -75.235577 -143.18896 -76.851222 -141.94188 -77.984937 C -140.69479 -79.175337 -139.13579 -79.770358 -137.26516 -79.770358 C -135.33784 -79.770358 -133.38234 -79.005405 -131.39833 -77.474891 C -131.90851 -76.397862 -132.16315 -75.094016 -132.16315 -73.563501 C -132.16315 -71.749558 -131.62477 -70.275781 -130.54774 -69.142066 C -129.41403 -68.008351 -127.74174 -67.441394 -125.53099 -67.441394 C -120.65602 -67.441394 -118.21878 -70.814037 -118.21878 -77.55964 C -118.21878 -81.244213 -119.40882 -84.10706 -121.78962 -86.147746 C -124.11373 -88.188433 -127.43025 -89.208541 -131.73837 -89.208541 L -131.73837 -94.480571 C -123.40556 -95.1608 -119.23887 -98.760535 -119.23887 -105.27939 C -119.23887 -108.56717 -119.74918 -110.97583 -120.76953 -112.50634 C -121.78987 -114.09354 -123.17842 -114.88759 -124.93568 -114.88759 C -127.03305 -114.88759 -128.62063 -114.15071 -129.69766 -112.67688 C -130.71801 -111.20305 -131.2278 -109.41747 -131.2278 -107.3201 C -131.2278 -105.44947 -130.83129 -103.77718 -130.03769 -102.30335 C -131.62489 -100.60278 -133.66563 -99.752084 -136.1598 -99.752084 C -138.42723 -99.752084 -140.18423 -100.43233 -141.43131 -101.79279 C -142.6784 -103.15324 -143.302 -104.91076 -143.302 -107.06482 C -143.302 -109.8991 -142.33854 -112.25164 -140.41122 -114.12227 C -138.42722 -116.04958 -135.98946 -117.46671 -133.09849 -118.37369 C -130.15083 -119.28066 -127.25992 -119.73381 -124.42563 -119.73381 z M -16.779491 -119.56379 C -10.033888 -119.56379 -4.8756678 -117.69351 -1.3044665 -113.95225 C 2.3234206 -110.21099 4.1375786 -104.7971 4.1375786 -97.711381 C 4.1375786 -88.811721 1.359956 -81.216258 -4.1952461 -74.924142 C -9.6937624 -68.688711 -17.68625 -64.09693 -28.173111 -61.149272 L -30.213813 -65.400692 C -24.545239 -67.838179 -19.982039 -70.956182 -16.524209 -74.754126 C -13.066379 -78.608756 -10.771006 -83.086732 -9.6372912 -88.188448 C -12.811692 -86.601248 -15.901115 -85.807715 -18.905459 -85.807715 C -24.574033 -85.807715 -29.052009 -87.338137 -32.339781 -90.399166 C -35.570868 -93.460196 -37.186514 -97.598308 -37.186514 -102.8134 C -37.186514 -106.04448 -36.335821 -108.93539 -34.635249 -111.48625 C -32.877991 -114.03711 -30.469329 -116.0212 -27.408299 -117.43834 C -24.290584 -118.85549 -20.747492 -119.56379 -16.779491 -119.56379 z M -54.532225 -119.13901 L -51.726195 -117.86364 L -51.726195 -68.716769 C -50.649166 -68.093226 -48.948813 -67.526269 -46.624698 -67.016097 C -44.300582 -66.562611 -42.458361 -66.279392 -41.097903 -66.16602 L -41.352668 -62.084615 L -76.044607 -62.084615 L -75.874592 -66.16602 C -70.829561 -66.732877 -66.974669 -67.583054 -64.31044 -68.716769 L -64.31044 -109.44555 L -75.704576 -109.44555 L -75.704576 -114.37703 C -72.076689 -114.66046 -68.335085 -115.19935 -64.480455 -115.99295 C -60.625825 -116.84324 -57.309826 -117.89193 -54.532225 -119.13901 z M -17.289537 -113.69697 C -19.727024 -113.69697 -21.597826 -112.76157 -22.901598 -110.89094 C -24.20537 -109.02031 -24.857034 -106.35597 -24.857034 -102.89814 C -24.857034 -99.383629 -24.148726 -96.634587 -22.731582 -94.650586 C -21.257753 -92.723271 -19.188439 -91.759807 -16.524209 -91.759807 C -14.200094 -91.759807 -11.620984 -92.723271 -8.7866971 -94.650586 L -8.7866971 -95.755945 C -8.7866971 -101.93469 -9.4669418 -106.46931 -10.827399 -109.36028 C -12.187857 -112.25126 -14.341879 -113.69697 -17.289537 -113.69697 z M -89.138898 -101.28274 C -87.154898 -101.28274 -85.68112 -100.68772 -84.717463 -99.497319 C -83.69712 -98.363604 -83.186807 -96.776539 -83.186807 -94.735852 C -83.186807 -92.695166 -83.69712 -91.107584 -84.717463 -89.973869 C -85.68112 -88.840154 -87.154898 -88.273198 -89.138898 -88.273198 C -91.122899 -88.273198 -92.625257 -88.840154 -93.6456 -89.973869 C -94.609258 -91.16427 -95.09099 -92.751852 -95.09099 -94.735852 C -95.09099 -96.833225 -94.609258 -98.448354 -93.6456 -99.582068 C -92.625257 -100.71578 -91.122899 -101.28274 -89.138898 -101.28274 z M -89.138898 -74.498845 C -87.154898 -74.498845 -85.68112 -73.903824 -84.717463 -72.713424 C -83.69712 -71.579709 -83.186807 -69.992127 -83.186807 -67.951441 C -83.186807 -65.910754 -83.69712 -64.323689 -84.717463 -63.189974 C -85.68112 -62.05626 -87.154898 -61.489303 -89.138898 -61.489303 C -91.122899 -61.489303 -92.625257 -62.05626 -93.6456 -63.189974 C -94.609258 -64.380375 -95.09099 -65.96744 -95.09099 -67.951441 C -95.09099 -70.048813 -94.609258 -71.664459 -93.6456 -72.798173 C -92.625257 -73.931888 -91.122899 -74.498845 -89.138898 -74.498845 z " /></g></svg>
