<?xml version="1.0" encoding="UTF-8" standalone="no"?>
<!-- Created with Inkscape (http://www.inkscape.org/) -->

<svg
   width="172.6701mm"
   height="172.6701mm"
   viewBox="0 0 172.6701 172.6701"
   version="1.1"
   id="svg1"
   xml:space="preserve"
   xmlns="http://www.w3.org/2000/svg"
   xmlns:svg="http://www.w3.org/2000/svg"><defs
     id="defs1" /><g
     id="layer1"
     transform="translate(157.25102,198.81012)"><path
       id="path5"
       style="fill:#ffffff;fill-opacity:1;stroke-width:0.805188;stroke-linecap:round;stroke-linejoin:round"
       d="M -2.0863309 -198.17657 L -10.088943 -183.11289 L -10.930235 -165.68398 L -19.198981 -165.68398 L -11.423229 -155.47426 L -12.166336 -140.07934 C -28.353216 -157.12094 -50.823548 -166.77435 -74.327399 -166.78417 C -103.64471 -166.77397 -130.92652 -151.79225 -146.66717 -127.05894 L -157.25102 -127.05894 L -149.61996 -115.86014 L -157.25102 -26.140039 L -8.5138455 -26.140039 L 15.419061 -26.140039 L 8.0799737 -154.80195 L 15.419061 -165.68398 L 7.4593397 -165.68398 L 6.4490654 -183.39297 L -2.0863309 -198.17657 z M -83.43072 -192.21621 C -85.584619 -189.65499 -86.77489 -186.4211 -86.795372 -183.07465 C -86.842092 -175.15518 -80.459903 -168.69733 -72.540428 -168.65072 C -64.621155 -168.60402 -58.163395 -174.98588 -58.116503 -182.90515 C -58.102813 -186.26049 -59.266203 -189.5144 -61.404157 -192.10045 C -60.83125 -190.6836 -60.536835 -189.16959 -60.537027 -187.64129 C -60.575787 -181.07411 -65.930869 -175.78172 -72.498054 -175.82031 C -79.065241 -175.85911 -84.357627 -181.21415 -84.319038 -187.78134 C -84.309338 -189.30285 -84.007827 -190.80837 -83.43072 -192.21621 z M -58.868395 -120.07436 C -54.333536 -119.84761 -50.649093 -118.85557 -47.814806 -117.09831 L -68.051813 -83.767013 L -55.042272 -83.767013 L -54.192194 -97.626632 C -52.378251 -97.626632 -51.074405 -97.995076 -50.280805 -98.731991 C -49.430519 -99.468905 -48.778338 -100.71611 -48.324852 -102.47336 L -43.478636 -102.47336 L -43.563386 -83.341716 C -41.409328 -82.718173 -38.688349 -82.066508 -35.400576 -81.38628 L -35.825874 -77.304875 L -43.988683 -77.304875 L -43.988683 -62.084615 L -55.042272 -62.084615 L -55.042272 -77.304875 L -79.615449 -77.304875 L -80.296027 -80.36567 L -58.868395 -120.07436 z M -126.38159 -119.73381 C -120.54296 -119.73381 -115.89453 -118.28861 -112.4367 -115.39764 C -108.97887 -112.56335 -107.24994 -108.56711 -107.24994 -103.40871 C -107.24994 -98.873849 -108.97887 -94.026912 -112.4367 -88.86851 C -115.89453 -83.766794 -121.59164 -77.616529 -129.52765 -70.41744 L -106.65463 -70.41744 L -106.65463 -62.084615 L -145.17269 -62.084615 L -145.17269 -67.016097 C -138.88057 -73.081471 -133.97699 -78.268272 -130.46247 -82.576388 C -126.94796 -86.884504 -124.42549 -90.852684 -122.89498 -94.480571 C -121.30778 -98.108458 -120.51424 -101.84955 -120.51424 -105.70418 C -120.51424 -111.82623 -122.55498 -114.88759 -126.63635 -114.88759 C -128.45029 -114.88759 -129.92407 -114.0369 -131.05779 -112.33633 C -132.1915 -110.69244 -132.75846 -108.65171 -132.75846 -106.21422 C -132.75846 -104.51365 -132.16344 -102.89852 -130.97304 -101.36801 C -131.93669 -100.46103 -133.04203 -99.752209 -134.28911 -99.242037 C -135.47951 -98.731866 -136.66956 -98.476709 -137.85996 -98.476709 C -139.90064 -98.476709 -141.60151 -99.10031 -142.96197 -100.3474 C -144.32243 -101.65117 -145.00267 -103.52197 -145.00267 -105.95946 C -145.00267 -108.567 -144.2372 -110.91953 -142.70669 -113.01691 C -141.17617 -115.11428 -139.02215 -116.75799 -136.24455 -117.94839 C -133.41026 -119.13879 -130.12284 -119.73381 -126.38159 -119.73381 z M -30.979141 -118.88373 L -26.812987 -118.88373 C -24.658929 -118.82705 -19.95386 -118.79847 -12.698086 -118.79847 C -5.1588835 -118.79847 -0.25581919 -118.82705 2.0116102 -118.88373 L 6.0930148 -118.88373 L 7.7936862 -115.22762 C 6.7166573 -113.52705 4.6759232 -109.84261 1.6715793 -104.17404 C -1.3327647 -98.505463 -4.1670313 -92.496548 -6.8312609 -86.147746 C -9.4954904 -79.798944 -10.827399 -74.838719 -10.827399 -71.267517 C -10.827399 -68.433231 -9.8353544 -66.307789 -7.8513537 -64.890646 C -9.7786687 -62.566531 -12.244491 -61.404554 -15.248835 -61.404554 C -18.026436 -61.404554 -20.180458 -62.169506 -21.710973 -63.700021 C -23.241488 -65.230536 -24.006957 -67.356494 -24.006957 -70.077409 C -24.006957 -73.478553 -23.184844 -77.077772 -21.540957 -80.875717 C -19.897071 -84.730347 -16.949516 -89.945728 -12.698086 -96.521273 L -2.6645901 -111.9963 L -22.051004 -111.9963 C -22.844604 -109.44544 -23.326853 -106.44124 -23.49691 -102.98341 C -24.517254 -102.81335 -25.565943 -102.72813 -26.642971 -102.72813 C -27.776686 -102.72813 -28.882019 -102.81335 -29.959048 -102.98341 L -32.339781 -117.60836 L -30.979141 -118.88373 z M -91.519632 -101.28274 C -89.535631 -101.28274 -88.061854 -100.68772 -87.098196 -99.497319 C -86.077853 -98.363604 -85.56754 -96.776539 -85.56754 -94.735852 C -85.56754 -92.695166 -86.077853 -91.107584 -87.098196 -89.973869 C -88.061854 -88.840154 -89.535631 -88.273198 -91.519632 -88.273198 C -93.503632 -88.273198 -95.00599 -88.840154 -96.026333 -89.973869 C -96.989991 -91.16427 -97.471723 -92.751852 -97.471723 -94.735852 C -97.471723 -96.833225 -96.989991 -98.448354 -96.026333 -99.582068 C -95.00599 -100.71578 -93.503632 -101.28274 -91.519632 -101.28274 z M -91.519632 -74.498845 C -89.535631 -74.498845 -88.061854 -73.903824 -87.098196 -72.713424 C -86.077853 -71.579709 -85.56754 -69.992127 -85.56754 -67.951441 C -85.56754 -65.910754 -86.077853 -64.323689 -87.098196 -63.189974 C -88.061854 -62.05626 -89.535631 -61.489303 -91.519632 -61.489303 C -93.503632 -61.489303 -95.00599 -62.05626 -96.026333 -63.189974 C -96.989991 -64.380375 -97.471723 -65.96744 -97.471723 -67.951441 C -97.471723 -70.048813 -96.989991 -71.664459 -96.026333 -72.798173 C -95.00599 -73.931888 -93.503632 -74.498845 -91.519632 -74.498845 z " /></g></svg>
