<?xml version="1.0" encoding="UTF-8" standalone="no"?>
<!-- Created with Inkscape (http://www.inkscape.org/) -->

<svg
   width="172.6701mm"
   height="172.6701mm"
   viewBox="0 0 172.6701 172.6701"
   version="1.1"
   id="svg1"
   xml:space="preserve"
   xmlns="http://www.w3.org/2000/svg"
   xmlns:svg="http://www.w3.org/2000/svg"><defs
     id="defs1" /><g
     id="layer1"
     transform="translate(157.25102,198.81012)"><path
       id="path5"
       style="fill:#ffffff;fill-opacity:1;stroke-width:0.805188;stroke-linecap:round;stroke-linejoin:round"
       d="M -2.0863309 -198.17657 L -10.088943 -183.11289 L -10.930235 -165.68398 L -19.198981 -165.68398 L -11.423229 -155.47426 L -12.166336 -140.07934 C -28.353216 -157.12094 -50.823548 -166.77435 -74.327399 -166.78417 C -103.64471 -166.77397 -130.92652 -151.79225 -146.66717 -127.05894 L -157.25102 -127.05894 L -149.61996 -115.86014 L -157.25102 -26.140039 L -8.5138455 -26.140039 L 15.419061 -26.140039 L 8.0799737 -154.80195 L 15.419061 -165.68398 L 7.4593397 -165.68398 L 6.4490654 -183.39297 L -2.0863309 -198.17657 z M -83.43072 -192.21621 C -85.584619 -189.65499 -86.77489 -186.4211 -86.795372 -183.07465 C -86.842092 -175.15518 -80.459903 -168.69733 -72.540428 -168.65072 C -64.621155 -168.60402 -58.163395 -174.98588 -58.116503 -182.90515 C -58.102813 -186.26049 -59.266203 -189.5144 -61.404157 -192.10045 C -60.83125 -190.6836 -60.536835 -189.16959 -60.537027 -187.64129 C -60.575787 -181.07411 -65.930869 -175.78172 -72.498054 -175.82031 C -79.065241 -175.85911 -84.357627 -181.21415 -84.319038 -187.78134 C -84.309338 -189.30285 -84.007827 -190.80837 -83.43072 -192.21621 z M -15.716507 -120.07436 C -11.181648 -119.84761 -7.4972045 -118.85557 -4.6629178 -117.09831 L -24.899925 -83.767013 L -11.890384 -83.767013 L -11.03979 -97.626632 C -9.225846 -97.626632 -7.9225174 -97.995076 -7.1289171 -98.731991 C -6.2786311 -99.468905 -5.6264501 -100.71611 -5.1729642 -102.47336 L -0.32623159 -102.47336 L -0.4114977 -83.341716 C 1.7425602 -82.718173 4.4635389 -82.066508 7.7513115 -81.38628 L 7.3260145 -77.304875 L -0.83679474 -77.304875 L -0.83679474 -62.084615 L -11.890384 -62.084615 L -11.890384 -77.304875 L -36.463561 -77.304875 L -37.143623 -80.36567 L -15.716507 -120.07436 z M -127.86935 -119.73381 C -124.18478 -119.73381 -120.92542 -119.11073 -118.09114 -117.86364 C -115.25685 -116.67324 -113.04618 -114.97237 -111.45898 -112.76163 C -109.87178 -110.60757 -109.07825 -108.11368 -109.07825 -105.27939 C -109.07825 -102.10499 -110.01313 -99.384015 -111.88376 -97.116586 C -113.75439 -94.849156 -116.53202 -93.120223 -120.21659 -91.929822 C -115.56836 -90.909479 -112.309 -89.237189 -110.43837 -86.913074 C -108.56774 -84.588959 -107.63234 -81.442892 -107.63234 -77.474891 C -107.63234 -74.017061 -108.68103 -71.069506 -110.7784 -68.632019 C -112.81909 -66.194533 -115.48343 -64.380375 -118.7712 -63.189974 C -122.05897 -61.999574 -125.46019 -61.404554 -128.97471 -61.404554 C -134.07643 -61.404554 -138.41305 -62.453243 -141.98425 -64.550615 C -145.49877 -66.647987 -147.25576 -69.510317 -147.25576 -73.138204 C -147.25576 -75.235577 -146.63216 -76.851222 -145.38508 -77.984937 C -144.13799 -79.175337 -142.57951 -79.770358 -140.70888 -79.770358 C -138.78156 -79.770358 -136.82554 -79.005405 -134.84154 -77.474891 C -135.35171 -76.397862 -135.60686 -75.094016 -135.60686 -73.563501 C -135.60686 -71.749558 -135.06849 -70.275781 -133.99146 -69.142066 C -132.85774 -68.008351 -131.18545 -67.441394 -128.97471 -67.441394 C -124.09974 -67.441394 -121.66249 -70.814037 -121.66249 -77.55964 C -121.66249 -81.244213 -122.85254 -84.10706 -125.23334 -86.147746 C -127.55745 -88.188433 -130.87397 -89.208541 -135.18208 -89.208541 L -135.18208 -94.480571 C -126.84928 -95.1608 -122.68259 -98.760535 -122.68259 -105.27939 C -122.68259 -108.56717 -123.1929 -110.97583 -124.21324 -112.50634 C -125.23359 -114.09354 -126.62214 -114.88759 -128.3794 -114.88759 C -130.47677 -114.88759 -132.06435 -114.15071 -133.14138 -112.67688 C -134.16172 -111.20305 -134.67152 -109.41747 -134.67152 -107.3201 C -134.67152 -105.44947 -134.27501 -103.77718 -133.48141 -102.30335 C -135.06861 -100.60278 -137.10935 -99.752084 -139.60352 -99.752084 C -141.87095 -99.752084 -143.62795 -100.43233 -144.87503 -101.79279 C -146.12212 -103.15324 -146.74572 -104.91076 -146.74572 -107.06482 C -146.74572 -109.8991 -145.78225 -112.25164 -143.85494 -114.12227 C -141.87094 -116.04958 -139.43318 -117.46671 -136.54221 -118.37369 C -133.59455 -119.28066 -130.70364 -119.73381 -127.86935 -119.73381 z M -72.260859 -119.05375 L -68.009439 -118.969 C -62.000751 -118.85563 -58.826103 -118.79847 -58.485989 -118.79847 L -46.411791 -118.969 L -43.946308 -117.18306 L -44.711636 -110.72092 L -65.798721 -110.72092 L -66.988829 -96.521273 C -64.041171 -97.258188 -61.376836 -97.626632 -58.996035 -97.626632 C -53.384148 -97.626632 -48.820947 -96.124274 -45.306432 -93.11993 C -41.73523 -90.172272 -39.949653 -85.836165 -39.949653 -80.110905 C -39.949653 -76.539704 -40.799829 -73.336993 -42.500402 -70.502706 C -44.144288 -67.66842 -46.525403 -65.429173 -49.643118 -63.785287 C -52.760833 -62.198086 -56.445277 -61.404554 -60.696707 -61.404554 C -64.154537 -61.404554 -67.300604 -61.886286 -70.13489 -62.849943 C -72.912491 -63.813601 -75.095094 -65.14551 -76.682294 -66.846082 C -78.269495 -68.60334 -79.063028 -70.559366 -79.063028 -72.713424 C -79.063028 -74.980853 -78.439427 -76.709787 -77.192341 -77.900188 C -75.945255 -79.147274 -74.414833 -79.770358 -72.60089 -79.770358 C -71.580547 -79.770358 -70.559921 -79.572362 -69.539578 -79.175562 C -68.462549 -78.778762 -67.499084 -78.211805 -66.648798 -77.474891 C -67.15897 -76.28449 -67.414126 -75.037289 -67.414126 -73.733517 C -67.414126 -71.862888 -66.87575 -70.332466 -65.798721 -69.142066 C -64.665006 -67.951665 -62.964136 -67.356645 -60.696707 -67.356645 C -55.594991 -67.356645 -53.043944 -71.608045 -53.043944 -80.110905 C -53.043944 -84.135593 -53.837993 -87.054567 -55.425194 -88.86851 C -57.012395 -90.73914 -59.137836 -91.674541 -61.802066 -91.674541 C -63.445952 -91.674541 -65.203466 -91.36274 -67.074095 -90.739197 C -68.944725 -90.115654 -70.786946 -89.236897 -72.60089 -88.103182 L -77.27709 -92.609884 L -75.066372 -116.75776 L -72.260859 -119.05375 z M -92.582616 -101.28274 C -90.598615 -101.28274 -89.124838 -100.68772 -88.16118 -99.497319 C -87.140837 -98.363604 -86.630524 -96.776539 -86.630524 -94.735852 C -86.630524 -92.695166 -87.140837 -91.107584 -88.16118 -89.973869 C -89.124838 -88.840154 -90.598615 -88.273198 -92.582616 -88.273198 C -94.566617 -88.273198 -96.068974 -88.840154 -97.089318 -89.973869 C -98.052975 -91.16427 -98.534707 -92.751852 -98.534707 -94.735852 C -98.534707 -96.833225 -98.052975 -98.448354 -97.089318 -99.582068 C -96.068974 -100.71578 -94.566617 -101.28274 -92.582616 -101.28274 z M -92.582616 -74.498845 C -90.598615 -74.498845 -89.124838 -73.903824 -88.16118 -72.713424 C -87.140837 -71.579709 -86.630524 -69.992127 -86.630524 -67.951441 C -86.630524 -65.910754 -87.140837 -64.323689 -88.16118 -63.189974 C -89.124838 -62.05626 -90.598615 -61.489303 -92.582616 -61.489303 C -94.566617 -61.489303 -96.068974 -62.05626 -97.089318 -63.189974 C -98.052975 -64.380375 -98.534707 -65.96744 -98.534707 -67.951441 C -98.534707 -70.048813 -98.052975 -71.664459 -97.089318 -72.798173 C -96.068974 -73.931888 -94.566617 -74.498845 -92.582616 -74.498845 z " /></g></svg>
