<?xml version="1.0" encoding="UTF-8" standalone="no"?>
<!-- Created with Inkscape (http://www.inkscape.org/) -->

<svg
   width="172.6701mm"
   height="172.6701mm"
   viewBox="0 0 172.6701 172.6701"
   version="1.1"
   id="svg1"
   xml:space="preserve"
   xmlns="http://www.w3.org/2000/svg"
   xmlns:svg="http://www.w3.org/2000/svg"><defs
     id="defs1" /><g
     id="layer1"
     transform="translate(157.25102,198.81012)"><path
       id="path5"
       style="fill:#ffffff;fill-opacity:1;stroke-width:0.805188;stroke-linecap:round;stroke-linejoin:round"
       d="M -2.0863309 -198.17657 L -10.088943 -183.11289 L -10.930235 -165.68398 L -19.198981 -165.68398 L -11.423229 -155.47426 L -12.166336 -140.07934 C -28.353216 -157.12094 -50.823548 -166.77435 -74.327399 -166.78417 C -103.64471 -166.77397 -130.92652 -151.79225 -146.66717 -127.05894 L -157.25102 -127.05894 L -149.61996 -115.86014 L -157.25102 -26.140039 L -8.5138455 -26.140039 L 15.419061 -26.140039 L 8.0799737 -154.80195 L 15.419061 -165.68398 L 7.4593397 -165.68398 L 6.4490654 -183.39297 L -2.0863309 -198.17657 z M -83.43072 -192.21621 C -85.584619 -189.65499 -86.77489 -186.4211 -86.795372 -183.07465 C -86.842092 -175.15518 -80.459903 -168.69733 -72.540428 -168.65072 C -64.621155 -168.60402 -58.163395 -174.98588 -58.116503 -182.90515 C -58.102813 -186.26049 -59.266203 -189.5144 -61.404157 -192.10045 C -60.83125 -190.6836 -60.536835 -189.16959 -60.537027 -187.64129 C -60.575787 -181.07411 -65.930869 -175.78172 -72.498054 -175.82031 C -79.065241 -175.85911 -84.357627 -181.21415 -84.319038 -187.78134 C -84.309338 -189.30285 -84.007827 -190.80837 -83.43072 -192.21621 z M -126.46634 -119.73381 C -122.78176 -119.73381 -119.52241 -119.11073 -116.68812 -117.86364 C -113.85383 -116.67324 -111.64317 -114.97237 -110.05597 -112.76163 C -108.46877 -110.60757 -107.67523 -108.11368 -107.67523 -105.27939 C -107.67523 -102.10499 -108.61064 -99.384015 -110.48126 -97.116586 C -112.35189 -94.849156 -115.12952 -93.120223 -118.81409 -91.929822 C -114.16586 -90.909479 -110.90599 -89.237189 -109.03536 -86.913074 C -107.16473 -84.588959 -106.22984 -81.442892 -106.22984 -77.474891 C -106.22984 -74.017061 -107.27853 -71.069506 -109.37591 -68.632019 C -111.41659 -66.194533 -114.08041 -64.380375 -117.36818 -63.189974 C -120.65596 -61.999574 -124.05718 -61.404554 -127.57169 -61.404554 C -132.67341 -61.404554 -137.01004 -62.453243 -140.58124 -64.550615 C -144.09575 -66.647987 -145.85275 -69.510317 -145.85275 -73.138204 C -145.85275 -75.235577 -145.22967 -76.851222 -143.98258 -77.984937 C -142.73549 -79.175337 -141.17649 -79.770358 -139.30586 -79.770358 C -137.37855 -79.770358 -135.42304 -79.005405 -133.43904 -77.474891 C -133.94921 -76.397862 -134.20385 -75.094016 -134.20385 -73.563501 C -134.20385 -71.749558 -133.66547 -70.275781 -132.58844 -69.142066 C -131.45473 -68.008351 -129.78244 -67.441394 -127.57169 -67.441394 C -122.69672 -67.441394 -120.25948 -70.814037 -120.25948 -77.55964 C -120.25948 -81.244213 -121.44952 -84.10706 -123.83032 -86.147746 C -126.15444 -88.188433 -129.47095 -89.208541 -133.77907 -89.208541 L -133.77907 -94.480571 C -125.44626 -95.1608 -121.27957 -98.760535 -121.27957 -105.27939 C -121.27957 -108.56717 -121.78988 -110.97583 -122.81023 -112.50634 C -123.83057 -114.09354 -125.21912 -114.88759 -126.97638 -114.88759 C -129.07375 -114.88759 -130.66134 -114.15071 -131.73837 -112.67688 C -132.75871 -111.20305 -133.2685 -109.41747 -133.2685 -107.3201 C -133.2685 -105.44947 -132.872 -103.77718 -132.0784 -102.30335 C -133.6656 -100.60278 -135.70633 -99.752084 -138.2005 -99.752084 C -140.46793 -99.752084 -142.22493 -100.43233 -143.47202 -101.79279 C -144.7191 -103.15324 -145.3427 -104.91076 -145.3427 -107.06482 C -145.3427 -109.8991 -144.37924 -112.25164 -142.45192 -114.12227 C -140.46792 -116.04958 -138.03016 -117.46671 -135.13919 -118.37369 C -132.19153 -119.28066 -129.30062 -119.73381 -126.46634 -119.73381 z M -13.803445 -119.73381 C -7.9648144 -119.73381 -3.3163897 -118.28861 0.14144012 -115.39764 C 3.59927 -112.56335 5.3282036 -108.56711 5.3282036 -103.40871 C 5.3282036 -98.873849 3.59927 -94.026912 0.14144012 -88.86851 C -3.3163897 -83.766794 -9.0135034 -77.616529 -16.949506 -70.41744 L 5.9229994 -70.41744 L 5.9229994 -62.084615 L -32.594546 -62.084615 L -32.594546 -67.016097 C -26.30243 -73.081471 -21.399365 -78.268272 -17.88485 -82.576388 C -14.370334 -86.884504 -11.847868 -90.852684 -10.317353 -94.480571 C -8.7301524 -98.108458 -7.9366198 -101.84955 -7.9366198 -105.70418 C -7.9366198 -111.82623 -9.9773538 -114.88759 -14.058727 -114.88759 C -15.87267 -114.88759 -17.346448 -114.0369 -18.480162 -112.33633 C -19.613877 -110.69244 -20.180834 -108.65171 -20.180834 -106.21422 C -20.180834 -104.51365 -19.585297 -102.89852 -18.394896 -101.36801 C -19.358554 -100.46103 -20.463887 -99.752209 -21.710973 -99.242037 C -22.901373 -98.731866 -24.091931 -98.476709 -25.282331 -98.476709 C -27.323017 -98.476709 -29.023371 -99.10031 -30.383828 -100.3474 C -31.744286 -101.65117 -32.424531 -103.52197 -32.424531 -105.95946 C -32.424531 -108.567 -31.659578 -110.91953 -30.129064 -113.01691 C -28.598549 -115.11428 -26.444527 -116.75799 -23.666926 -117.94839 C -20.832639 -119.13879 -17.544704 -119.73381 -13.803445 -119.73381 z M -57.338256 -119.64906 C -50.706025 -119.64906 -45.632511 -117.15466 -42.117996 -112.16631 C -38.546795 -107.23465 -36.761217 -100.06428 -36.761217 -90.654448 C -36.761217 -81.244616 -38.546795 -74.017081 -42.117996 -68.97205 C -45.632511 -63.983706 -50.706025 -61.489303 -57.338256 -61.489303 C -63.970487 -61.489303 -69.072063 -63.983706 -72.643264 -68.97205 C -76.214466 -74.017081 -78.000043 -81.244616 -78.000043 -90.654448 C -78.000043 -100.00759 -76.214466 -107.17797 -72.643264 -112.16631 C -69.072063 -117.15466 -63.970487 -119.64906 -57.338256 -119.64906 z M -57.338256 -115.31237 C -60.229228 -115.31237 -62.326606 -113.41351 -63.630378 -109.61556 C -64.877464 -105.81762 -65.501065 -99.497422 -65.501065 -90.654448 C -65.501065 -81.868159 -64.877464 -75.576025 -63.630378 -71.778081 C -62.326606 -68.036822 -60.229228 -66.16602 -57.338256 -66.16602 C -54.447283 -66.16602 -52.377969 -68.036822 -51.130882 -71.778081 C -49.827111 -75.576025 -49.175446 -81.868159 -49.175446 -90.654448 C -49.175446 -99.440737 -49.827111 -105.73287 -51.130882 -109.53081 C -52.377969 -113.38544 -54.447283 -115.31237 -57.338256 -115.31237 z M -91.179601 -101.28274 C -89.1956 -101.28274 -87.721823 -100.68772 -86.758165 -99.497319 C -85.737822 -98.363604 -85.227509 -96.776539 -85.227509 -94.735852 C -85.227509 -92.695166 -85.737822 -91.107584 -86.758165 -89.973869 C -87.721823 -88.840154 -89.1956 -88.273198 -91.179601 -88.273198 C -93.163601 -88.273198 -94.665959 -88.840154 -95.686302 -89.973869 C -96.64996 -91.16427 -97.131692 -92.751852 -97.131692 -94.735852 C -97.131692 -96.833225 -96.64996 -98.448354 -95.686302 -99.582068 C -94.665959 -100.71578 -93.163601 -101.28274 -91.179601 -101.28274 z M -91.179601 -74.498845 C -89.1956 -74.498845 -87.721823 -73.903824 -86.758165 -72.713424 C -85.737822 -71.579709 -85.227509 -69.992127 -85.227509 -67.951441 C -85.227509 -65.910754 -85.737822 -64.323689 -86.758165 -63.189974 C -87.721823 -62.05626 -89.1956 -61.489303 -91.179601 -61.489303 C -93.163601 -61.489303 -94.665959 -62.05626 -95.686302 -63.189974 C -96.64996 -64.380375 -97.131692 -65.96744 -97.131692 -67.951441 C -97.131692 -70.048813 -96.64996 -71.664459 -95.686302 -72.798173 C -94.665959 -73.931888 -93.163601 -74.498845 -91.179601 -74.498845 z " /></g></svg>
