<?xml version="1.0" encoding="UTF-8" standalone="no"?>
<!-- Created with Inkscape (http://www.inkscape.org/) -->

<svg
   width="172.6701mm"
   height="172.6701mm"
   viewBox="0 0 172.6701 172.6701"
   version="1.1"
   id="svg1"
   xml:space="preserve"
   xmlns="http://www.w3.org/2000/svg"
   xmlns:svg="http://www.w3.org/2000/svg"><defs
     id="defs1" /><g
     id="layer1"
     transform="translate(157.25102,198.81012)"><path
       id="path5"
       style="fill:#ffffff;fill-opacity:1;stroke-width:0.805188;stroke-linecap:round;stroke-linejoin:round"
       d="M -2.0863309 -198.17657 L -10.088943 -183.11289 L -10.930235 -165.68398 L -19.198981 -165.68398 L -11.423229 -155.47426 L -12.166336 -140.07934 C -28.353216 -157.12094 -50.823548 -166.77435 -74.327399 -166.78417 C -103.64471 -166.77397 -130.92652 -151.79225 -146.66717 -127.05894 L -157.25102 -127.05894 L -149.61996 -115.86014 L -157.25102 -26.140039 L -8.5138455 -26.140039 L 15.419061 -26.140039 L 8.0799737 -154.80195 L 15.419061 -165.68398 L 7.4593397 -165.68398 L 6.4490654 -183.39297 L -2.0863309 -198.17657 z M -83.43072 -192.21621 C -85.584619 -189.65499 -86.77489 -186.4211 -86.795372 -183.07465 C -86.842092 -175.15518 -80.459903 -168.69733 -72.540428 -168.65072 C -64.621155 -168.60402 -58.163395 -174.98588 -58.116503 -182.90515 C -58.102813 -186.26049 -59.266203 -189.5144 -61.404157 -192.10045 C -60.83125 -190.6836 -60.536835 -189.16959 -60.537027 -187.64129 C -60.575787 -181.07411 -65.930869 -175.78172 -72.498054 -175.82031 C -79.065241 -175.85911 -84.357627 -181.21415 -84.319038 -187.78134 C -84.309338 -189.30285 -84.007827 -190.80837 -83.43072 -192.21621 z M -113.92447 -119.90383 L -111.88428 -115.65241 C -123.3348 -110.72075 -130.22195 -103.12528 -132.54607 -92.865166 C -129.2583 -94.452366 -126.14029 -95.245899 -123.19263 -95.245899 C -117.52406 -95.245899 -113.07466 -93.715477 -109.84358 -90.654448 C -106.55581 -87.593418 -104.91158 -83.455306 -104.91158 -78.240218 C -104.91158 -75.009132 -105.79034 -72.118221 -107.54759 -69.567363 C -109.24817 -67.016505 -111.65734 -65.032415 -114.77506 -63.615271 C -117.83609 -62.198128 -121.3506 -61.489303 -125.3186 -61.489303 C -132.0642 -61.489303 -137.25101 -63.360105 -140.87889 -67.101363 C -144.45009 -70.842622 -146.23567 -76.255999 -146.23567 -83.341716 C -146.23567 -92.241376 -143.48611 -99.808775 -137.9876 -106.04421 C -132.43239 -112.33632 -124.41133 -116.95617 -113.92447 -119.90383 z M -57.890677 -119.73381 C -52.052046 -119.73381 -47.404138 -118.28861 -43.946308 -115.39764 C -40.488478 -112.56335 -38.759545 -108.56711 -38.759545 -103.40871 C -38.759545 -98.873849 -40.488478 -94.026912 -43.946308 -88.86851 C -47.404138 -83.766794 -53.100735 -77.616529 -61.036738 -70.41744 L -38.164232 -70.41744 L -38.164232 -62.084615 L -76.682294 -62.084615 L -76.682294 -67.016097 C -70.390178 -73.081471 -65.486597 -78.268272 -61.972081 -82.576388 C -58.457566 -86.884504 -55.935099 -90.852684 -54.404584 -94.480571 C -52.817384 -98.108458 -52.023851 -101.84955 -52.023851 -105.70418 C -52.023851 -111.82623 -54.064585 -114.88759 -58.145958 -114.88759 C -59.959902 -114.88759 -61.433679 -114.0369 -62.567394 -112.33633 C -63.701108 -110.69244 -64.268065 -108.65171 -64.268065 -106.21422 C -64.268065 -104.51365 -63.672528 -102.89852 -62.482128 -101.36801 C -63.445785 -100.46103 -64.551635 -99.752209 -65.798721 -99.242037 C -66.989121 -98.731866 -68.179162 -98.476709 -69.369562 -98.476709 C -71.410249 -98.476709 -73.111119 -99.10031 -74.471577 -100.3474 C -75.832034 -101.65117 -76.512279 -103.52197 -76.512279 -105.95946 C -76.512279 -108.567 -75.74681 -110.91953 -74.216295 -113.01691 C -72.68578 -115.11428 -70.531758 -116.75799 -67.754157 -117.94839 C -64.91987 -119.13879 -61.631935 -119.73381 -57.890677 -119.73381 z M -13.42104 -119.56379 C -6.6754371 -119.56379 -1.5166997 -117.69351 2.0545016 -113.95225 C 5.6823887 -110.21099 7.49603 -104.7971 7.49603 -97.711381 C 7.49603 -88.811721 4.7184073 -81.216258 -0.83679474 -74.924142 C -6.335311 -68.688711 -14.327798 -64.09693 -24.814659 -61.149272 L -26.855362 -65.400692 C -21.186788 -67.838179 -16.623588 -70.956182 -13.165758 -74.754126 C -9.7079281 -78.608756 -7.4120378 -83.086732 -6.2783231 -88.188448 C -9.4527242 -86.601248 -12.542147 -85.807715 -15.546491 -85.807715 C -21.215065 -85.807715 -25.693557 -87.338137 -28.98133 -90.399166 C -32.212417 -93.460196 -33.827546 -97.598308 -33.827546 -102.8134 C -33.827546 -106.04448 -32.977369 -108.93539 -31.276797 -111.48625 C -29.519539 -114.03711 -27.110361 -116.0212 -24.049331 -117.43834 C -20.931616 -118.85549 -17.389041 -119.56379 -13.42104 -119.56379 z M -13.931086 -113.69697 C -16.368573 -113.69697 -18.239375 -112.76157 -19.543146 -110.89094 C -20.846918 -109.02031 -21.498583 -106.35597 -21.498583 -102.89814 C -21.498583 -99.383629 -20.789758 -96.634587 -19.372614 -94.650586 C -17.898785 -92.723271 -15.829988 -91.759807 -13.165758 -91.759807 C -10.841643 -91.759807 -8.2625325 -92.723271 -5.4282457 -94.650586 L -5.4282457 -95.755945 C -5.4282457 -101.93469 -6.1084904 -106.46931 -7.4689481 -109.36028 C -8.8294057 -112.25126 -10.983428 -113.69697 -13.931086 -113.69697 z M -89.946601 -101.28274 C -87.9626 -101.28274 -86.488823 -100.68772 -85.525166 -99.497319 C -84.504822 -98.363604 -83.99451 -96.776539 -83.99451 -94.735852 C -83.99451 -92.695166 -84.504822 -91.107584 -85.525166 -89.973869 C -86.488823 -88.840154 -87.9626 -88.273198 -89.946601 -88.273198 C -91.930602 -88.273198 -93.432959 -88.840154 -94.453303 -89.973869 C -95.41696 -91.16427 -95.898693 -92.751852 -95.898693 -94.735852 C -95.898693 -96.833225 -95.41696 -98.448354 -94.453303 -99.582068 C -93.432959 -100.71578 -91.930602 -101.28274 -89.946601 -101.28274 z M -125.57388 -89.293807 C -127.95468 -89.293807 -130.53379 -88.330343 -133.3114 -86.403028 L -133.3114 -85.297669 C -133.3114 -79.118924 -132.63115 -74.583787 -131.27069 -71.692814 C -129.91024 -68.801842 -127.75621 -67.356645 -124.80856 -67.356645 C -122.37107 -67.356645 -120.50027 -68.291529 -119.1965 -70.162159 C -117.89272 -72.032788 -117.24106 -74.697123 -117.24106 -78.154952 C -117.24106 -81.669468 -117.97795 -84.390447 -119.45178 -86.317762 C -120.86892 -88.301762 -122.90965 -89.293807 -125.57388 -89.293807 z M -89.946601 -74.498845 C -87.9626 -74.498845 -86.488823 -73.903824 -85.525166 -72.713424 C -84.504822 -71.579709 -83.99451 -69.992127 -83.99451 -67.951441 C -83.99451 -65.910754 -84.504822 -64.323689 -85.525166 -63.189974 C -86.488823 -62.05626 -87.9626 -61.489303 -89.946601 -61.489303 C -91.930602 -61.489303 -93.432959 -62.05626 -94.453303 -63.189974 C -95.41696 -64.380375 -95.898693 -65.96744 -95.898693 -67.951441 C -95.898693 -70.048813 -95.41696 -71.664459 -94.453303 -72.798173 C -93.432959 -73.931888 -91.930602 -74.498845 -89.946601 -74.498845 z " /></g></svg>
