<?xml version="1.0" encoding="UTF-8" standalone="no"?>
<!-- Created with Inkscape (http://www.inkscape.org/) -->

<svg
   width="172.6701mm"
   height="172.6701mm"
   viewBox="0 0 172.6701 172.6701"
   version="1.1"
   id="svg1"
   xml:space="preserve"
   xmlns="http://www.w3.org/2000/svg"
   xmlns:svg="http://www.w3.org/2000/svg"><defs
     id="defs1" /><g
     id="layer1"
     transform="translate(157.25102,198.81012)"><path
       id="path5"
       style="fill:#ffffff;fill-opacity:1;stroke-width:0.805188;stroke-linecap:round;stroke-linejoin:round"
       d="M -2.0863309 -198.17657 L -10.088943 -183.11289 L -10.930235 -165.68398 L -19.198981 -165.68398 L -11.423229 -155.47426 L -12.166336 -140.07934 C -28.353216 -157.12094 -50.823548 -166.77435 -74.327399 -166.78417 C -103.64471 -166.77397 -130.92652 -151.79225 -146.66717 -127.05894 L -157.25102 -127.05894 L -149.61996 -115.86014 L -157.25102 -26.140039 L -8.5138455 -26.140039 L 15.419061 -26.140039 L 8.0799737 -154.80195 L 15.419061 -165.68398 L 7.4593397 -165.68398 L 6.4490654 -183.39297 L -2.0863309 -198.17657 z M -83.43072 -192.21621 C -85.584619 -189.65499 -86.77489 -186.4211 -86.795372 -183.07465 C -86.842092 -175.15518 -80.459903 -168.69733 -72.540428 -168.65072 C -64.621155 -168.60402 -58.163395 -174.98588 -58.116503 -182.90515 C -58.102813 -186.26049 -59.266203 -189.5144 -61.404157 -192.10045 C -60.83125 -190.6836 -60.536835 -189.16959 -60.537027 -187.64129 C -60.575787 -181.07411 -65.930869 -175.78172 -72.498054 -175.82031 C -79.065241 -175.85911 -84.357627 -181.21415 -84.319038 -187.78134 C -84.309338 -189.30285 -84.007827 -190.80837 -83.43072 -192.21621 z M -13.165758 -119.64906 C -6.533527 -119.64906 -1.4600139 -117.15466 2.0545016 -112.16631 C 5.625703 -107.23465 7.4112806 -100.06428 7.4112806 -90.654448 C 7.4112806 -81.244616 5.625703 -74.017081 2.0545016 -68.97205 C -1.4600139 -63.983706 -6.533527 -61.489303 -13.165758 -61.489303 C -19.797989 -61.489303 -24.899566 -63.983706 -28.470767 -68.97205 C -32.041968 -74.017081 -33.827546 -81.244616 -33.827546 -90.654448 C -33.827546 -100.00759 -32.041968 -107.17797 -28.470767 -112.16631 C -24.899566 -117.15466 -19.797989 -119.64906 -13.165758 -119.64906 z M -138.92294 -119.05375 L -134.67152 -118.969 C -128.66283 -118.85563 -125.4887 -118.79847 -125.14859 -118.79847 L -113.07439 -118.969 L -110.60891 -117.18306 L -111.37372 -110.72092 L -132.4608 -110.72092 L -133.65143 -96.521273 C -130.70377 -97.258188 -128.03943 -97.626632 -125.65863 -97.626632 C -120.04675 -97.626632 -115.48355 -96.124274 -111.96903 -93.11993 C -108.39783 -90.172272 -106.61225 -85.836165 -106.61225 -80.110905 C -106.61225 -76.539704 -107.46243 -73.336993 -109.163 -70.502706 C -110.80689 -67.66842 -113.188 -65.429173 -116.30572 -63.785287 C -119.42343 -62.198086 -123.10787 -61.404554 -127.3593 -61.404554 C -130.81713 -61.404554 -133.9632 -61.886286 -136.79749 -62.849943 C -139.57509 -63.813601 -141.75769 -65.14551 -143.34489 -66.846082 C -144.93209 -68.60334 -145.72563 -70.559366 -145.72563 -72.713424 C -145.72563 -74.980853 -145.10202 -76.709787 -143.85494 -77.900188 C -142.60785 -79.147274 -141.07743 -79.770358 -139.26349 -79.770358 C -138.24314 -79.770358 -137.22252 -79.572362 -136.20218 -79.175562 C -135.12515 -78.778762 -134.16168 -78.211805 -133.3114 -77.474891 C -133.82157 -76.28449 -134.07672 -75.037289 -134.07672 -73.733517 C -134.07672 -71.862888 -133.53783 -70.332466 -132.4608 -69.142066 C -131.32709 -67.951665 -129.62673 -67.356645 -127.3593 -67.356645 C -122.25759 -67.356645 -119.70654 -71.608045 -119.70654 -80.110905 C -119.70654 -84.135593 -120.50007 -87.054567 -122.08727 -88.86851 C -123.67448 -90.73914 -125.80043 -91.674541 -128.46466 -91.674541 C -130.10855 -91.674541 -131.86606 -91.36274 -133.73669 -90.739197 C -135.60732 -90.115654 -137.44954 -89.236897 -139.26349 -88.103182 L -143.93969 -92.609884 L -141.72897 -116.75776 L -138.92294 -119.05375 z M -70.900218 -119.05375 L -66.648798 -118.969 C -60.64011 -118.85563 -57.465463 -118.79847 -57.125349 -118.79847 L -45.051667 -118.969 L -42.585668 -117.18306 L -43.350996 -110.72092 L -64.438081 -110.72092 L -65.628189 -96.521273 C -62.680531 -97.258188 -60.016713 -97.626632 -57.635912 -97.626632 C -52.024024 -97.626632 -47.460824 -96.124274 -43.946308 -93.11993 C -40.375107 -90.172272 -38.589529 -85.836165 -38.589529 -80.110905 C -38.589529 -76.539704 -39.439706 -73.336993 -41.140278 -70.502706 C -42.784164 -67.66842 -45.164762 -65.429173 -48.282478 -63.785287 C -51.400193 -62.198086 -55.084636 -61.404554 -59.336066 -61.404554 C -62.793896 -61.404554 -65.939963 -61.886286 -68.77425 -62.849943 C -71.551851 -63.813601 -73.734453 -65.14551 -75.321654 -66.846082 C -76.908855 -68.60334 -77.702387 -70.559366 -77.702387 -72.713424 C -77.702387 -74.980853 -77.078787 -76.709787 -75.8317 -77.900188 C -74.584614 -79.147274 -73.054193 -79.770358 -71.240249 -79.770358 C -70.219906 -79.770358 -69.199797 -79.572362 -68.179454 -79.175562 C -67.102425 -78.778762 -66.138444 -78.211805 -65.288158 -77.474891 C -65.798329 -76.28449 -66.053486 -75.037289 -66.053486 -73.733517 C -66.053486 -71.862888 -65.51511 -70.332466 -64.438081 -69.142066 C -63.304366 -67.951665 -61.603496 -67.356645 -59.336066 -67.356645 C -54.23435 -67.356645 -51.68382 -71.608045 -51.68382 -80.110905 C -51.68382 -84.135593 -52.477353 -87.054567 -54.064554 -88.86851 C -55.651754 -90.73914 -57.777712 -91.674541 -60.441942 -91.674541 C -62.085828 -91.674541 -63.842826 -91.36274 -65.713455 -90.739197 C -67.584084 -90.115654 -69.426306 -89.236897 -71.240249 -88.103182 L -75.916966 -92.609884 L -73.706249 -116.75776 L -70.900218 -119.05375 z M -13.165758 -115.31237 C -16.05673 -115.31237 -18.154108 -113.41351 -19.45788 -109.61556 C -20.704967 -105.81762 -21.328567 -99.497422 -21.328567 -90.654448 C -21.328567 -81.868159 -20.704967 -75.576025 -19.45788 -71.778081 C -18.154108 -68.036822 -16.05673 -66.16602 -13.165758 -66.16602 C -10.274785 -66.16602 -8.2059878 -68.036822 -6.9589017 -71.778081 C -5.6551298 -75.576025 -5.0029487 -81.868159 -5.0029487 -90.654448 C -5.0029487 -99.440737 -5.6551298 -105.73287 -6.9589017 -109.53081 C -8.2059878 -113.38544 -10.274785 -115.31237 -13.165758 -115.31237 z M -91.221975 -101.28274 C -89.237975 -101.28274 -87.764197 -100.68772 -86.80054 -99.497319 C -85.780197 -98.363604 -85.269884 -96.776539 -85.269884 -94.735852 C -85.269884 -92.695166 -85.780197 -91.107584 -86.80054 -89.973869 C -87.764197 -88.840154 -89.237975 -88.273198 -91.221975 -88.273198 C -93.205976 -88.273198 -94.708334 -88.840154 -95.728677 -89.973869 C -96.692335 -91.16427 -97.174067 -92.751852 -97.174067 -94.735852 C -97.174067 -96.833225 -96.692335 -98.448354 -95.728677 -99.582068 C -94.708334 -100.71578 -93.205976 -101.28274 -91.221975 -101.28274 z M -91.221975 -74.498845 C -89.237975 -74.498845 -87.764197 -73.903824 -86.80054 -72.713424 C -85.780197 -71.579709 -85.269884 -69.992127 -85.269884 -67.951441 C -85.269884 -65.910754 -85.780197 -64.323689 -86.80054 -63.189974 C -87.764197 -62.05626 -89.237975 -61.489303 -91.221975 -61.489303 C -93.205976 -61.489303 -94.708334 -62.05626 -95.728677 -63.189974 C -96.692335 -64.380375 -97.174067 -65.96744 -97.174067 -67.951441 C -97.174067 -70.048813 -96.692335 -71.664459 -95.728677 -72.798173 C -94.708334 -73.931888 -93.205976 -74.498845 -91.221975 -74.498845 z " /></g></svg>
