<?xml version="1.0" encoding="UTF-8" standalone="no"?>
<!-- Created with Inkscape (http://www.inkscape.org/) -->

<svg
   width="172.6701mm"
   height="172.6701mm"
   viewBox="0 0 172.6701 172.6701"
   version="1.1"
   id="svg1"
   xml:space="preserve"
   xmlns="http://www.w3.org/2000/svg"
   xmlns:svg="http://www.w3.org/2000/svg"><defs
     id="defs1" /><g
     id="layer1"
     transform="translate(157.25102,198.81012)"><path
       id="path5"
       style="fill:#ffffff;fill-opacity:1;stroke-width:0.805188;stroke-linecap:round;stroke-linejoin:round"
       d="M -2.0863309 -198.17657 L -10.088943 -183.11289 L -10.930235 -165.68398 L -19.198981 -165.68398 L -11.423229 -155.47426 L -12.166336 -140.07934 C -28.353216 -157.12094 -50.823548 -166.77435 -74.327399 -166.78417 C -103.64471 -166.77397 -130.92652 -151.79225 -146.66717 -127.05894 L -157.25102 -127.05894 L -149.61996 -115.86014 L -157.25102 -26.140039 L -8.5138455 -26.140039 L 15.419061 -26.140039 L 8.0799737 -154.80195 L 15.419061 -165.68398 L 7.4593397 -165.68398 L 6.4490654 -183.39297 L -2.0863309 -198.17657 z M -83.43072 -192.21621 C -85.584619 -189.65499 -86.77489 -186.4211 -86.795372 -183.07465 C -86.842092 -175.15518 -80.459903 -168.69733 -72.540428 -168.65072 C -64.621155 -168.60402 -58.163395 -174.98588 -58.116503 -182.90515 C -58.102813 -186.26049 -59.266203 -189.5144 -61.404157 -192.10045 C -60.83125 -190.6836 -60.536835 -189.16959 -60.537027 -187.64129 C -60.575787 -181.07411 -65.930869 -175.78172 -72.498054 -175.82031 C -79.065241 -175.85911 -84.357627 -181.21415 -84.319038 -187.78134 C -84.309338 -189.30285 -84.007827 -190.80837 -83.43072 -192.21621 z M -71.137413 -149.92783 C -63.964793 -149.92783 -57.6198 -148.71385 -52.102399 -146.28619 C -46.584999 -143.96889 -42.281304 -140.65859 -39.19156 -136.35502 C -36.101815 -132.16179 -34.557217 -127.30638 -34.557217 -121.78898 C -34.557217 -115.60949 -36.377932 -110.31292 -40.019416 -105.899 C -43.6609 -101.48508 -49.068028 -98.119245 -56.240648 -95.801937 C -47.192112 -93.815673 -40.847118 -90.56091 -37.205634 -86.036642 C -33.56415 -81.512374 -31.743435 -75.387963 -31.743435 -67.663603 C -31.743435 -60.932375 -33.784733 -55.194114 -37.867609 -50.44915 C -41.840137 -45.704186 -47.026682 -42.173306 -53.426866 -39.855998 C -59.82705 -37.53869 -66.447644 -36.379724 -73.28922 -36.379724 C -83.22054 -36.379724 -91.662365 -38.421022 -98.614289 -42.503898 C -105.45587 -46.586775 -108.87671 -52.159469 -108.87671 -59.221741 C -108.87671 -63.304617 -107.66273 -66.449864 -105.23507 -68.656824 C -102.80742 -70.974132 -99.772721 -72.132581 -96.131236 -72.132581 C -92.379404 -72.132581 -88.572408 -70.642999 -84.710228 -67.663603 C -85.70336 -65.566991 -86.20006 -63.028994 -86.20006 -60.049598 C -86.20006 -56.518461 -85.151644 -53.649331 -83.055032 -51.442371 C -80.848072 -49.235411 -77.592792 -48.131979 -73.28922 -48.131979 C -63.799292 -48.131979 -59.05443 -54.697555 -59.05443 -67.828968 C -59.05443 -75.001588 -61.371844 -80.574282 -66.00646 -84.54681 C -70.530728 -88.519338 -76.985755 -90.50562 -85.372203 -90.50562 L -85.372203 -100.76804 C -69.151047 -102.09222 -61.040872 -109.09896 -61.040872 -121.78898 C -61.040872 -128.18917 -62.033754 -132.87901 -64.020018 -135.85841 C -66.006282 -138.94815 -68.709846 -140.49327 -72.130634 -140.49327 C -76.21351 -140.49327 -79.303224 -139.0587 -81.399836 -136.18965 C -83.3861 -133.3206 -84.379499 -129.84474 -84.379499 -125.76187 C -84.379499 -122.12038 -83.606683 -118.8651 -82.061811 -115.99605 C -85.151555 -112.68561 -89.124118 -111.03047 -93.97943 -111.03047 C -98.39335 -111.03047 -101.8142 -112.35448 -104.24185 -115.00283 C -106.66951 -117.65118 -107.88349 -121.07203 -107.88349 -125.26526 C -107.88349 -130.78266 -106.00724 -135.36195 -102.25541 -139.00343 C -98.39323 -142.75527 -93.648369 -145.51385 -88.02062 -147.27942 C -82.282524 -149.04498 -76.654813 -149.92783 -71.137413 -149.92783 z " /></g></svg>
