<?xml version="1.0" encoding="UTF-8" standalone="no"?>
<!-- Created with Inkscape (http://www.inkscape.org/) -->

<svg
   width="172.6701mm"
   height="172.6701mm"
   viewBox="0 0 172.6701 172.6701"
   version="1.1"
   id="svg1"
   xml:space="preserve"
   xmlns="http://www.w3.org/2000/svg"
   xmlns:svg="http://www.w3.org/2000/svg"><defs
     id="defs1" /><g
     id="layer1"
     transform="translate(157.25102,198.81012)"><path
       id="path5"
       style="fill:#ffffff;fill-opacity:1;stroke-width:0.805188;stroke-linecap:round;stroke-linejoin:round"
       d="M -2.0863309 -198.17657 L -10.088943 -183.11289 L -10.930235 -165.68398 L -19.198981 -165.68398 L -11.423229 -155.47426 L -12.166336 -140.07934 C -28.353216 -157.12094 -50.823548 -166.77435 -74.327399 -166.78417 C -103.64471 -166.77397 -130.92652 -151.79225 -146.66717 -127.05894 L -157.25102 -127.05894 L -149.61996 -115.86014 L -157.25102 -26.140039 L -8.5138455 -26.140039 L 15.419061 -26.140039 L 8.0799737 -154.80195 L 15.419061 -165.68398 L 7.4593397 -165.68398 L 6.4490654 -183.39297 L -2.0863309 -198.17657 z M -83.43072 -192.21621 C -85.584619 -189.65499 -86.77489 -186.4211 -86.795372 -183.07465 C -86.842092 -175.15518 -80.459903 -168.69733 -72.540428 -168.65072 C -64.621155 -168.60402 -58.163395 -174.98588 -58.116503 -182.90515 C -58.102813 -186.26049 -59.266203 -189.5144 -61.404157 -192.10045 C -60.83125 -190.6836 -60.536835 -189.16959 -60.537027 -187.64129 C -60.575787 -181.07411 -65.930869 -175.78172 -72.498054 -175.82031 C -79.065241 -175.85911 -84.357627 -181.21415 -84.319038 -187.78134 C -84.309338 -189.30285 -84.007827 -190.80837 -83.43072 -192.21621 z M -33.797574 -133.39551 C -23.914904 -133.39551 -16.055683 -131.27784 -10.220201 -127.04241 C -4.38472 -122.80698 -1.4672472 -117.11238 -1.4672472 -109.95921 C -1.4672472 -106.10027 -2.8790276 -102.24161 -5.7026476 -98.382658 C -8.5262676 -94.523711 -12.244059 -91.370425 -16.855972 -88.923287 C -11.020491 -86.099667 -6.455424 -82.805513 -3.1612007 -79.040686 C 0.22714333 -75.27586 1.9211765 -70.42854 1.9211765 -64.498938 C 1.9211765 -55.933958 -1.1846371 -49.110352 -7.3966011 -44.027836 C -13.608565 -39.039441 -21.985335 -36.545089 -32.52685 -36.545089 C -44.103692 -36.545089 -53.045485 -38.8511 -59.351569 -43.463013 C -65.563533 -48.074926 -68.669347 -54.663751 -68.669347 -63.228732 C -68.669347 -67.652403 -67.257566 -72.028612 -64.433946 -76.358163 C -61.610326 -80.781834 -57.657238 -84.687967 -52.574722 -88.076311 C -56.810152 -90.429327 -60.104306 -93.252888 -62.457323 -96.547111 C -64.81034 -99.841335 -65.986823 -103.93581 -65.986823 -108.83008 C -65.986823 -116.35974 -63.06935 -122.33607 -57.233869 -126.75974 C -51.398388 -131.18341 -43.586123 -133.39551 -33.797574 -133.39551 z M -109.47047 -133.25443 C -99.776045 -133.25443 -92.058209 -130.85399 -86.316848 -126.05384 C -80.575488 -121.3478 -77.704971 -114.71254 -77.704971 -106.14756 C -77.704971 -98.617906 -80.575488 -90.570344 -86.316848 -82.005363 C -92.058209 -73.534503 -101.51755 -63.322832 -114.69444 -51.369507 L -76.716401 -51.369507 L -76.716401 -37.533659 L -140.67167 -37.533659 L -140.67167 -45.722307 C -130.22428 -55.793218 -122.0828 -64.404768 -116.24732 -71.557939 C -110.41184 -78.71111 -106.22345 -85.299935 -103.6822 -91.323658 C -101.04682 -97.34738 -99.72895 -103.55901 -99.72895 -109.95921 C -99.72895 -120.12424 -103.11753 -125.20686 -109.89422 -125.20686 C -112.90608 -125.20686 -115.35296 -123.79508 -117.23537 -120.97146 C -119.11779 -118.24196 -120.05897 -114.85389 -120.05897 -110.80671 C -120.05897 -107.98309 -119.07083 -105.30039 -117.0943 -102.75914 C -118.69435 -101.2532 -120.52977 -100.07672 -122.60042 -99.229635 C -124.57696 -98.382549 -126.55376 -97.958912 -128.53029 -97.958912 C -131.91864 -97.958912 -134.7422 -98.994527 -137.00109 -101.06518 C -139.25999 -103.22996 -140.38952 -106.33577 -140.38952 -110.38296 C -140.38952 -114.71251 -139.1186 -118.61864 -136.57735 -122.10111 C -134.03609 -125.58357 -130.45968 -128.3127 -125.84777 -130.28924 C -121.14174 -132.26577 -115.68244 -133.25443 -109.47047 -133.25443 z M -33.797574 -123.37183 C -37.5624 -123.37183 -40.527346 -122.14787 -42.692121 -119.70074 C -44.856896 -117.34772 -45.938951 -114.14799 -45.938951 -110.10081 C -45.938951 -106.52422 -44.574644 -103.55928 -41.845144 -101.20626 C -39.021524 -98.947363 -34.927051 -96.688307 -29.562173 -94.429411 C -27.209156 -96.029463 -25.326783 -98.241562 -23.914973 -101.06518 C -22.503163 -103.8888 -21.797272 -106.9007 -21.797272 -110.10081 C -21.797272 -114.14799 -22.9268 -117.34772 -25.185696 -119.70074 C -27.350471 -122.14787 -30.220988 -123.37183 -33.797574 -123.37183 z M -39.585851 -82.288033 C -42.409471 -80.029137 -44.480185 -77.440873 -45.797875 -74.523133 C -47.115564 -71.605392 -47.774498 -68.122897 -47.774498 -64.075708 C -47.774498 -58.522589 -46.409674 -54.145863 -43.680174 -50.94576 C -40.950675 -47.839778 -37.232883 -46.286613 -32.52685 -46.286613 C -27.914937 -46.286613 -24.33853 -47.839778 -21.797272 -50.94576 C -19.161894 -54.051742 -17.844025 -58.381512 -17.844025 -63.934632 C -17.844025 -67.040614 -18.832685 -69.675834 -20.809219 -71.840609 C -22.691632 -74.099505 -25.091556 -75.934923 -28.009296 -77.346733 C -30.927037 -78.852664 -34.785697 -80.499741 -39.585851 -82.288033 z " /></g></svg>
