<?xml version="1.0" encoding="UTF-8" standalone="no"?>
<!-- Created with Inkscape (http://www.inkscape.org/) -->

<svg
   width="172.6701mm"
   height="172.6701mm"
   viewBox="0 0 172.6701 172.6701"
   version="1.1"
   id="svg1"
   xml:space="preserve"
   xmlns="http://www.w3.org/2000/svg"
   xmlns:svg="http://www.w3.org/2000/svg"><defs
     id="defs1" /><g
     id="layer1"
     transform="translate(157.25102,198.81012)"><path
       id="path5"
       style="fill:#ffffff;fill-opacity:1;stroke-width:0.805188;stroke-linecap:round;stroke-linejoin:round"
       d="M -2.0863309 -198.17657 L -10.088943 -183.11289 L -10.930235 -165.68398 L -19.198981 -165.68398 L -11.423229 -155.47426 L -12.166336 -140.07934 C -28.353216 -157.12094 -50.823548 -166.77435 -74.327399 -166.78417 C -103.64471 -166.77397 -130.92652 -151.79225 -146.66717 -127.05894 L -157.25102 -127.05894 L -149.61996 -115.86014 L -157.25102 -26.140039 L -8.5138455 -26.140039 L 15.419061 -26.140039 L 8.0799737 -154.80195 L 15.419061 -165.68398 L 7.4593397 -165.68398 L 6.4490654 -183.39297 L -2.0863309 -198.17657 z M -83.43072 -192.21621 C -85.584619 -189.65499 -86.77489 -186.4211 -86.795372 -183.07465 C -86.842092 -175.15518 -80.459903 -168.69733 -72.540428 -168.65072 C -64.621155 -168.60402 -58.163395 -174.98588 -58.116503 -182.90515 C -58.102813 -186.26049 -59.266203 -189.5144 -61.404157 -192.10045 C -60.83125 -190.6836 -60.536835 -189.16959 -60.537027 -187.64129 C -60.575787 -181.07411 -65.930869 -175.78172 -72.498054 -175.82031 C -79.065241 -175.85911 -84.357627 -181.21415 -84.319038 -187.78134 C -84.309338 -189.30285 -84.007827 -190.80837 -83.43072 -192.21621 z M -57.550646 -119.73381 C -51.712015 -119.73381 -47.06359 -118.28861 -43.60576 -115.39764 C -40.147931 -112.56335 -38.418997 -108.56711 -38.418997 -103.40871 C -38.418997 -98.873849 -40.147931 -94.026912 -43.60576 -88.86851 C -47.06359 -83.766794 -52.760704 -77.616529 -60.696707 -70.41744 L -37.824201 -70.41744 L -37.824201 -62.084615 L -76.341747 -62.084615 L -76.341747 -67.016097 C -70.04963 -73.081471 -65.146566 -78.268272 -61.63205 -82.576388 C -58.117535 -86.884504 -55.595068 -90.852684 -54.064554 -94.480571 C -52.477353 -98.108458 -51.68382 -101.84955 -51.68382 -105.70418 C -51.68382 -111.82623 -53.724554 -114.88759 -57.805927 -114.88759 C -59.619871 -114.88759 -61.093648 -114.0369 -62.227363 -112.33633 C -63.361077 -110.69244 -63.928034 -108.65171 -63.928034 -106.21422 C -63.928034 -104.51365 -63.332497 -102.89852 -62.142097 -101.36801 C -63.105754 -100.46103 -64.211087 -99.752209 -65.458173 -99.242037 C -66.648574 -98.731866 -67.839131 -98.476709 -69.029532 -98.476709 C -71.070218 -98.476709 -72.770571 -99.10031 -74.131029 -100.3474 C -75.491487 -101.65117 -76.171731 -103.52197 -76.171731 -105.95946 C -76.171731 -108.567 -75.406779 -110.91953 -73.876264 -113.01691 C -72.345749 -115.11428 -70.191727 -116.75799 -67.414126 -117.94839 C -64.57984 -119.13879 -61.291904 -119.73381 -57.550646 -119.73381 z M -14.781163 -119.73381 C -11.09659 -119.73381 -7.8372355 -119.11073 -5.0029487 -117.86364 C -2.168662 -116.67324 0.042004028 -114.97237 1.6292046 -112.76163 C 3.2164052 -110.60757 4.0099378 -108.11368 4.0099378 -105.27939 C 4.0099378 -102.10499 3.0745368 -99.384015 1.2039076 -97.116586 C -0.66672169 -94.849156 -3.4443444 -93.120223 -7.1289171 -91.929822 C -2.4806869 -90.909479 0.77918489 -89.237189 2.6498141 -86.913074 C 4.5204434 -84.588959 5.4553277 -81.442892 5.4553277 -77.474891 C 5.4553277 -74.017061 4.4066387 -71.069506 2.3092665 -68.632019 C 0.26858 -66.194533 -2.3952379 -64.380375 -5.6830106 -63.189974 C -8.9707832 -61.999574 -12.372007 -61.404554 -15.886522 -61.404554 C -20.988238 -61.404554 -25.324863 -62.453243 -28.896064 -64.550615 C -32.41058 -66.647987 -34.167577 -69.510317 -34.167577 -73.138204 C -34.167577 -75.235577 -33.543976 -76.851222 -32.29689 -77.984937 C -31.049804 -79.175337 -29.491319 -79.770358 -27.62069 -79.770358 C -25.693375 -79.770358 -23.737348 -79.005405 -21.753347 -77.474891 C -22.263519 -76.397862 -22.518675 -75.094016 -22.518675 -73.563501 C -22.518675 -71.749558 -21.980299 -70.275781 -20.90327 -69.142066 C -19.769555 -68.008351 -18.097266 -67.441394 -15.886522 -67.441394 C -11.011549 -67.441394 -8.5743069 -70.814037 -8.5743069 -77.55964 C -8.5743069 -81.244213 -9.7643475 -84.10706 -12.145148 -86.147746 C -14.469264 -88.188433 -17.785779 -89.208541 -22.093895 -89.208541 L -22.093895 -94.480571 C -13.761092 -95.1608 -9.5943997 -98.760535 -9.5943997 -105.27939 C -9.5943997 -108.56717 -10.104712 -110.97583 -11.125056 -112.50634 C -12.145399 -114.09354 -13.533952 -114.88759 -15.29121 -114.88759 C -17.388582 -114.88759 -18.976164 -114.15071 -20.053193 -112.67688 C -21.073536 -111.20305 -21.583332 -109.41747 -21.583332 -107.3201 C -21.583332 -105.44947 -21.186824 -103.77718 -20.393224 -102.30335 C -21.980424 -100.60278 -24.021158 -99.752084 -26.515331 -99.752084 C -28.78276 -99.752084 -30.539757 -100.43233 -31.786844 -101.79279 C -33.03393 -103.15324 -33.65753 -104.91076 -33.65753 -107.06482 C -33.65753 -109.8991 -32.694066 -112.25164 -30.766751 -114.12227 C -28.78275 -116.04958 -26.344991 -117.46671 -23.454019 -118.37369 C -20.506361 -119.28066 -17.61545 -119.73381 -14.781163 -119.73381 z M -137.30753 -119.05375 L -133.05611 -118.969 C -127.04743 -118.85563 -123.8733 -118.79847 -123.53318 -118.79847 L -111.45898 -118.969 L -108.99298 -117.18306 L -109.75831 -110.72092 L -130.8454 -110.72092 L -132.03602 -96.521273 C -129.08836 -97.258188 -126.42403 -97.626632 -124.04323 -97.626632 C -118.43134 -97.626632 -113.86814 -96.124274 -110.35362 -93.11993 C -106.78242 -90.172272 -104.99685 -85.836165 -104.99685 -80.110905 C -104.99685 -76.539704 -105.84702 -73.336993 -107.54759 -70.502706 C -109.19148 -67.66842 -111.57208 -65.429173 -114.68979 -63.785287 C -117.80751 -62.198086 -121.49247 -61.404554 -125.7439 -61.404554 C -129.20173 -61.404554 -132.3478 -61.886286 -135.18208 -62.849943 C -137.95968 -63.813601 -140.14177 -65.14551 -141.72897 -66.846082 C -143.31617 -68.60334 -144.1097 -70.559366 -144.1097 -72.713424 C -144.1097 -74.980853 -143.4861 -76.709787 -142.23902 -77.900188 C -140.99193 -79.147274 -139.46151 -79.770358 -137.64757 -79.770358 C -136.62722 -79.770358 -135.60711 -79.572362 -134.58677 -79.175562 C -133.50974 -78.778762 -132.54576 -78.211805 -131.69547 -77.474891 C -132.20565 -76.28449 -132.4608 -75.037289 -132.4608 -73.733517 C -132.4608 -71.862888 -131.92243 -70.332466 -130.8454 -69.142066 C -129.71168 -67.951665 -128.01133 -67.356645 -125.7439 -67.356645 C -120.64218 -67.356645 -118.09114 -71.608045 -118.09114 -80.110905 C -118.09114 -84.135593 -118.88467 -87.054567 -120.47187 -88.86851 C -122.05907 -90.73914 -124.18503 -91.674541 -126.84926 -91.674541 C -128.49314 -91.674541 -130.25014 -91.36274 -132.12077 -90.739197 C -133.9914 -90.115654 -135.83362 -89.236897 -137.64757 -88.103182 L -142.32428 -92.609884 L -140.11356 -116.75776 L -137.30753 -119.05375 z M -89.60657 -101.28274 C -87.622569 -101.28274 -86.148792 -100.68772 -85.185135 -99.497319 C -84.164791 -98.363604 -83.654479 -96.776539 -83.654479 -94.735852 C -83.654479 -92.695166 -84.164791 -91.107584 -85.185135 -89.973869 C -86.148792 -88.840154 -87.622569 -88.273198 -89.60657 -88.273198 C -91.590571 -88.273198 -93.092412 -88.840154 -94.112755 -89.973869 C -95.076413 -91.16427 -95.558662 -92.751852 -95.558662 -94.735852 C -95.558662 -96.833225 -95.076413 -98.448354 -94.112755 -99.582068 C -93.092412 -100.71578 -91.590571 -101.28274 -89.60657 -101.28274 z M -89.60657 -74.498845 C -87.622569 -74.498845 -86.148792 -73.903824 -85.185135 -72.713424 C -84.164791 -71.579709 -83.654479 -69.992127 -83.654479 -67.951441 C -83.654479 -65.910754 -84.164791 -64.323689 -85.185135 -63.189974 C -86.148792 -62.05626 -87.622569 -61.489303 -89.60657 -61.489303 C -91.590571 -61.489303 -93.092412 -62.05626 -94.112755 -63.189974 C -95.076413 -64.380375 -95.558662 -65.96744 -95.558662 -67.951441 C -95.558662 -70.048813 -95.076413 -71.664459 -94.112755 -72.798173 C -93.092412 -73.931888 -91.590571 -74.498845 -89.60657 -74.498845 z " /></g></svg>
