<?xml version="1.0" encoding="UTF-8" standalone="no"?>
<!-- Created with Inkscape (http://www.inkscape.org/) -->

<svg
   width="172.6701mm"
   height="172.6701mm"
   viewBox="0 0 172.6701 172.6701"
   version="1.1"
   id="svg1"
   xml:space="preserve"
   xmlns="http://www.w3.org/2000/svg"
   xmlns:svg="http://www.w3.org/2000/svg"><defs
     id="defs1" /><g
     id="layer1"
     transform="translate(157.25102,198.81012)"><path
       id="path5"
       style="fill:#ffffff;fill-opacity:1;stroke-width:0.805188;stroke-linecap:round;stroke-linejoin:round"
       d="M -2.0863309 -198.17657 L -10.088943 -183.11289 L -10.930235 -165.68398 L -19.198981 -165.68398 L -11.423229 -155.47426 L -12.166336 -140.07934 C -28.353216 -157.12094 -50.823548 -166.77435 -74.327399 -166.78417 C -103.64471 -166.77397 -130.92652 -151.79225 -146.66717 -127.05894 L -157.25102 -127.05894 L -149.61996 -115.86014 L -157.25102 -26.140039 L -8.5138455 -26.140039 L 15.419061 -26.140039 L 8.0799737 -154.80195 L 15.419061 -165.68398 L 7.4593397 -165.68398 L 6.4490654 -183.39297 L -2.0863309 -198.17657 z M -83.43072 -192.21621 C -85.584619 -189.65499 -86.77489 -186.4211 -86.795372 -183.07465 C -86.842092 -175.15518 -80.459903 -168.69733 -72.540428 -168.65072 C -64.621155 -168.60402 -58.163395 -174.98588 -58.116503 -182.90515 C -58.102813 -186.26049 -59.266203 -189.5144 -61.404157 -192.10045 C -60.83125 -190.6836 -60.536835 -189.16959 -60.537027 -187.64129 C -60.575787 -181.07411 -65.930869 -175.78172 -72.498054 -175.82031 C -79.065241 -175.85911 -84.357627 -181.21415 -84.319038 -187.78134 C -84.309338 -189.30285 -84.007827 -190.80837 -83.43072 -192.21621 z M -16.907132 -119.64906 C -10.274901 -119.64906 -5.2013876 -117.15466 -1.6868721 -112.16631 C 1.8843293 -107.23465 3.6699069 -100.06428 3.6699069 -90.654448 C 3.6699069 -81.244616 1.8843293 -74.017081 -1.6868721 -68.97205 C -5.2013876 -63.983706 -10.274901 -61.489303 -16.907132 -61.489303 C -23.539363 -61.489303 -28.640939 -63.983706 -32.212141 -68.97205 C -35.783342 -74.017081 -37.56892 -81.244616 -37.56892 -90.654448 C -37.56892 -100.00759 -35.783342 -107.17797 -32.212141 -112.16631 C -28.640939 -117.15466 -23.539363 -119.64906 -16.907132 -119.64906 z M -55.085163 -119.13901 L -52.279133 -117.86364 L -52.279133 -68.716769 C -51.202104 -68.093226 -49.501234 -67.526269 -47.177119 -67.016097 C -44.853003 -66.562611 -43.010782 -66.279392 -41.650324 -66.16602 L -41.905606 -62.084615 L -76.597028 -62.084615 L -76.427013 -66.16602 C -71.381982 -66.732877 -67.527607 -67.583054 -64.863378 -68.716769 L -64.863378 -109.44555 L -76.256997 -109.44555 L -76.256997 -114.37703 C -72.62911 -114.66046 -68.888023 -115.19935 -65.033393 -115.99295 C -61.178763 -116.84324 -57.862764 -117.89193 -55.085163 -119.13901 z M -141.98425 -118.88373 L -137.81758 -118.88373 C -135.66352 -118.82705 -130.95897 -118.79847 -123.7032 -118.79847 C -116.16399 -118.79847 -111.26041 -118.82705 -108.99298 -118.88373 L -104.91158 -118.88373 L -103.21091 -115.22762 C -104.28794 -113.52705 -106.32867 -109.84261 -109.33301 -104.17404 C -112.33736 -98.505463 -115.17163 -92.496548 -117.83585 -86.147746 C -120.50008 -79.798944 -121.83251 -74.838719 -121.83251 -71.267517 C -121.83251 -68.433231 -120.84047 -66.307789 -118.85646 -64.890646 C -120.78378 -62.566531 -123.2496 -61.404554 -126.25395 -61.404554 C -129.03155 -61.404554 -131.18557 -62.169506 -132.71608 -63.700021 C -134.2466 -65.230536 -135.01207 -67.356494 -135.01207 -70.077409 C -135.01207 -73.478553 -134.18995 -77.077772 -132.54607 -80.875717 C -130.90218 -84.730347 -127.95463 -89.945728 -123.7032 -96.521273 L -113.6697 -111.9963 L -133.05611 -111.9963 C -133.84971 -109.44544 -134.33145 -106.44124 -134.5015 -102.98341 C -135.52185 -102.81335 -136.57054 -102.72813 -137.64757 -102.72813 C -138.78128 -102.72813 -139.88661 -102.81335 -140.96364 -102.98341 L -143.34438 -117.60836 L -141.98425 -118.88373 z M -16.907132 -115.31237 C -19.798104 -115.31237 -21.895482 -113.41351 -23.199254 -109.61556 C -24.44634 -105.81762 -25.069941 -99.497422 -25.069941 -90.654448 C -25.069941 -81.868159 -24.44634 -75.576025 -23.199254 -71.778081 C -21.895482 -68.036822 -19.798104 -66.16602 -16.907132 -66.16602 C -14.016159 -66.16602 -11.946845 -68.036822 -10.699759 -71.778081 C -9.3959867 -75.576025 -8.7443224 -81.868159 -8.7443224 -90.654448 C -8.7443224 -99.440737 -9.3959867 -105.73287 -10.699759 -109.53081 C -11.946845 -113.38544 -14.016159 -115.31237 -16.907132 -115.31237 z M -89.691836 -101.28274 C -87.707836 -101.28274 -86.233541 -100.68772 -85.269884 -99.497319 C -84.249541 -98.363604 -83.739745 -96.776539 -83.739745 -94.735852 C -83.739745 -92.695166 -84.249541 -91.107584 -85.269884 -89.973869 C -86.233541 -88.840154 -87.707836 -88.273198 -89.691836 -88.273198 C -91.675837 -88.273198 -93.177678 -88.840154 -94.198021 -89.973869 C -95.161679 -91.16427 -95.643411 -92.751852 -95.643411 -94.735852 C -95.643411 -96.833225 -95.161679 -98.448354 -94.198021 -99.582068 C -93.177678 -100.71578 -91.675837 -101.28274 -89.691836 -101.28274 z M -89.691836 -74.498845 C -87.707836 -74.498845 -86.233541 -73.903824 -85.269884 -72.713424 C -84.249541 -71.579709 -83.739745 -69.992127 -83.739745 -67.951441 C -83.739745 -65.910754 -84.249541 -64.323689 -85.269884 -63.189974 C -86.233541 -62.05626 -87.707836 -61.489303 -89.691836 -61.489303 C -91.675837 -61.489303 -93.177678 -62.05626 -94.198021 -63.189974 C -95.161679 -64.380375 -95.643411 -65.96744 -95.643411 -67.951441 C -95.643411 -70.048813 -95.161679 -71.664459 -94.198021 -72.798173 C -93.177678 -73.931888 -91.675837 -74.498845 -89.691836 -74.498845 z " /></g></svg>
