<?xml version="1.0" encoding="UTF-8" standalone="no"?>
<!-- Created with Inkscape (http://www.inkscape.org/) -->

<svg
   width="172.6701mm"
   height="172.6701mm"
   viewBox="0 0 172.6701 172.6701"
   version="1.1"
   id="svg1"
   xml:space="preserve"
   xmlns="http://www.w3.org/2000/svg"
   xmlns:svg="http://www.w3.org/2000/svg"><defs
     id="defs1" /><g
     id="layer1"
     transform="translate(157.25102,198.81012)"><path
       id="path5"
       style="fill:#ffffff;fill-opacity:1;stroke-width:0.805188;stroke-linecap:round;stroke-linejoin:round"
       d="M -2.0863309 -198.17657 L -10.088943 -183.11289 L -10.930235 -165.68398 L -19.198981 -165.68398 L -11.423229 -155.47426 L -12.166336 -140.07934 C -28.353216 -157.12094 -50.823548 -166.77435 -74.327399 -166.78417 C -103.64471 -166.77397 -130.92652 -151.79225 -146.66717 -127.05894 L -157.25102 -127.05894 L -149.61996 -115.86014 L -157.25102 -26.140039 L -8.5138455 -26.140039 L 15.419061 -26.140039 L 8.0799737 -154.80195 L 15.419061 -165.68398 L 7.4593397 -165.68398 L 6.4490654 -183.39297 L -2.0863309 -198.17657 z M -83.43072 -192.21621 C -85.584619 -189.65499 -86.77489 -186.4211 -86.795372 -183.07465 C -86.842092 -175.15518 -80.459903 -168.69733 -72.540428 -168.65072 C -64.621155 -168.60402 -58.163395 -174.98588 -58.116503 -182.90515 C -58.102813 -186.26049 -59.266203 -189.5144 -61.404157 -192.10045 C -60.83125 -190.6836 -60.536835 -189.16959 -60.537027 -187.64129 C -60.575787 -181.07411 -65.930869 -175.78172 -72.498054 -175.82031 C -79.065241 -175.85911 -84.357627 -181.21415 -84.319038 -187.78134 C -84.309338 -189.30285 -84.007827 -190.80837 -83.43072 -192.21621 z M -15.121194 -120.07436 C -10.586335 -119.84761 -6.901892 -118.85557 -4.0676053 -117.09831 L -24.304613 -83.767013 L -11.295071 -83.767013 L -10.444994 -97.626632 C -8.6310503 -97.626632 -7.3272049 -97.995076 -6.5336046 -98.731991 C -5.6833186 -99.468905 -5.0311376 -100.71611 -4.5776517 -102.47336 L 0.26856415 -102.47336 L 0.1838148 -83.341716 C 2.3378727 -82.718173 5.0588514 -82.066508 8.346624 -81.38628 L 7.921327 -77.304875 L -0.24148224 -77.304875 L -0.24148224 -62.084615 L -11.295071 -62.084615 L -11.295071 -77.304875 L -35.868248 -77.304875 L -36.548827 -80.36567 L -15.121194 -120.07436 z M -59.251317 -119.73381 C -55.566744 -119.73381 -52.307389 -119.11073 -49.473103 -117.86364 C -46.638816 -116.67324 -44.427633 -114.97237 -42.840432 -112.76163 C -41.253232 -110.60757 -40.459699 -108.11368 -40.459699 -105.27939 C -40.459699 -102.10499 -41.3951 -99.384015 -43.265729 -97.116586 C -45.136359 -94.849156 -47.913981 -93.120223 -51.598554 -91.929822 C -46.950324 -90.909479 -43.690969 -89.237189 -41.82034 -86.913074 C -39.94971 -84.588959 -39.014309 -81.442892 -39.014309 -77.474891 C -39.014309 -74.017061 -40.062998 -71.069506 -42.160371 -68.632019 C -44.201057 -66.194533 -46.865392 -64.380375 -50.153164 -63.189974 C -53.440937 -61.999574 -56.84216 -61.404554 -60.356676 -61.404554 C -65.458392 -61.404554 -69.7945 -62.453243 -73.365701 -64.550615 C -76.880217 -66.647987 -78.637731 -69.510317 -78.637731 -73.138204 C -78.637731 -75.235577 -78.01413 -76.851222 -76.767044 -77.984937 C -75.519958 -79.175337 -73.960956 -79.770358 -72.090327 -79.770358 C -70.163012 -79.770358 -68.207502 -79.005405 -66.223501 -77.474891 C -66.733673 -76.397862 -66.988829 -75.094016 -66.988829 -73.563501 C -66.988829 -71.749558 -66.450453 -70.275781 -65.373424 -69.142066 C -64.239709 -68.008351 -62.56742 -67.441394 -60.356676 -67.441394 C -55.481703 -67.441394 -53.043944 -70.814037 -53.043944 -77.55964 C -53.043944 -81.244213 -54.234501 -84.10706 -56.615302 -86.147746 C -58.939417 -88.188433 -62.255416 -89.208541 -66.563532 -89.208541 L -66.563532 -94.480571 C -58.230729 -95.1608 -54.064554 -98.760535 -54.064554 -105.27939 C -54.064554 -108.56717 -54.574866 -110.97583 -55.595209 -112.50634 C -56.615553 -114.09354 -58.004106 -114.88759 -59.761363 -114.88759 C -61.858736 -114.88759 -63.445801 -114.15071 -64.52283 -112.67688 C -65.543173 -111.20305 -66.053486 -109.41747 -66.053486 -107.3201 C -66.053486 -105.44947 -65.656461 -103.77718 -64.862861 -102.30335 C -66.450061 -100.60278 -68.490795 -99.752084 -70.984968 -99.752084 C -73.252397 -99.752084 -75.009911 -100.43233 -76.256997 -101.79279 C -77.504084 -103.15324 -78.127684 -104.91076 -78.127684 -107.06482 C -78.127684 -109.8991 -77.163703 -112.25164 -75.236388 -114.12227 C -73.252387 -116.04958 -70.815145 -117.46671 -67.924173 -118.37369 C -64.976514 -119.28066 -62.085604 -119.73381 -59.251317 -119.73381 z M -126.76399 -119.56379 C -120.01839 -119.56379 -114.86017 -117.69351 -111.28897 -113.95225 C -107.66108 -110.21099 -105.84692 -104.7971 -105.84692 -97.711381 C -105.84692 -88.811721 -108.62455 -81.216258 -114.17975 -74.924142 C -119.67826 -68.688711 -127.67075 -64.09693 -138.15761 -61.149272 L -140.19831 -65.400692 C -134.52974 -67.838179 -129.96654 -70.956182 -126.50871 -74.754126 C -123.05088 -78.608756 -120.75551 -83.086732 -119.62179 -88.188448 C -122.79619 -86.601248 -125.88562 -85.807715 -128.88996 -85.807715 C -134.55853 -85.807715 -139.03651 -87.338137 -142.32428 -90.399166 C -145.55537 -93.460196 -147.17102 -97.598308 -147.17102 -102.8134 C -147.17102 -106.04448 -146.32032 -108.93539 -144.61975 -111.48625 C -142.86249 -114.03711 -140.45383 -116.0212 -137.3928 -117.43834 C -134.27509 -118.85549 -130.73199 -119.56379 -126.76399 -119.56379 z M -127.27404 -113.69697 C -129.71152 -113.69697 -131.58233 -112.76157 -132.8861 -110.89094 C -134.18987 -109.02031 -134.84154 -106.35597 -134.84154 -102.89814 C -134.84154 -99.383629 -134.13323 -96.634587 -132.71608 -94.650586 C -131.24225 -92.723271 -129.17294 -91.759807 -126.50871 -91.759807 C -124.1846 -91.759807 -121.60548 -92.723271 -118.7712 -94.650586 L -118.7712 -95.755945 C -118.7712 -101.93469 -119.45144 -106.46931 -120.8119 -109.36028 C -122.17236 -112.25126 -124.32638 -113.69697 -127.27404 -113.69697 z M -90.966694 -101.28274 C -88.982693 -101.28274 -87.508916 -100.68772 -86.545258 -99.497319 C -85.524915 -98.363604 -85.015119 -96.776539 -85.015119 -94.735852 C -85.015119 -92.695166 -85.524915 -91.107584 -86.545258 -89.973869 C -87.508916 -88.840154 -88.982693 -88.273198 -90.966694 -88.273198 C -92.950695 -88.273198 -94.453052 -88.840154 -95.473395 -89.973869 C -96.437053 -91.16427 -96.918785 -92.751852 -96.918785 -94.735852 C -96.918785 -96.833225 -96.437053 -98.448354 -95.473395 -99.582068 C -94.453052 -100.71578 -92.950695 -101.28274 -90.966694 -101.28274 z M -90.966694 -74.498845 C -88.982693 -74.498845 -87.508916 -73.903824 -86.545258 -72.713424 C -85.524915 -71.579709 -85.015119 -69.992127 -85.015119 -67.951441 C -85.015119 -65.910754 -85.524915 -64.323689 -86.545258 -63.189974 C -87.508916 -62.05626 -88.982693 -61.489303 -90.966694 -61.489303 C -92.950695 -61.489303 -94.453052 -62.05626 -95.473395 -63.189974 C -96.437053 -64.380375 -96.918785 -65.96744 -96.918785 -67.951441 C -96.918785 -70.048813 -96.437053 -71.664459 -95.473395 -72.798173 C -94.453052 -73.931888 -92.950695 -74.498845 -90.966694 -74.498845 z " /></g></svg>
