<?xml version="1.0" encoding="UTF-8" standalone="no"?>
<!-- Created with Inkscape (http://www.inkscape.org/) -->

<svg
   width="172.6701mm"
   height="172.6701mm"
   viewBox="0 0 172.6701 172.6701"
   version="1.1"
   id="svg1"
   xml:space="preserve"
   xmlns="http://www.w3.org/2000/svg"
   xmlns:svg="http://www.w3.org/2000/svg"><defs
     id="defs1" /><g
     id="layer1"
     transform="translate(157.25102,198.81012)"><path
       id="path5"
       style="fill:#ffffff;fill-opacity:1;stroke-width:0.805188;stroke-linecap:round;stroke-linejoin:round"
       d="M -2.0863309 -198.17657 L -10.088943 -183.11289 L -10.930235 -165.68398 L -19.198981 -165.68398 L -11.423229 -155.47426 L -12.166336 -140.07934 C -28.353216 -157.12094 -50.823548 -166.77435 -74.327399 -166.78417 C -103.64471 -166.77397 -130.92652 -151.79225 -146.66717 -127.05894 L -157.25102 -127.05894 L -149.61996 -115.86014 L -157.25102 -26.140039 L -8.5138455 -26.140039 L 15.419061 -26.140039 L 8.0799737 -154.80195 L 15.419061 -165.68398 L 7.4593397 -165.68398 L 6.4490654 -183.39297 L -2.0863309 -198.17657 z M -83.43072 -192.21621 C -85.584619 -189.65499 -86.77489 -186.4211 -86.795372 -183.07465 C -86.842092 -175.15518 -80.459903 -168.69733 -72.540428 -168.65072 C -64.621155 -168.60402 -58.163395 -174.98588 -58.116503 -182.90515 C -58.102813 -186.26049 -59.266203 -189.5144 -61.404157 -192.10045 C -60.83125 -190.6836 -60.536835 -189.16959 -60.537027 -187.64129 C -60.575787 -181.07411 -65.930869 -175.78172 -72.498054 -175.82031 C -79.065241 -175.85911 -84.357627 -181.21415 -84.319038 -187.78134 C -84.309338 -189.30285 -84.007827 -190.80837 -83.43072 -192.21621 z M -121.19482 -119.73381 C -117.51025 -119.73381 -114.25038 -119.11073 -111.41609 -117.86364 C -108.5818 -116.67324 -106.37114 -114.97237 -104.78394 -112.76163 C -103.19674 -110.60757 -102.40321 -108.11368 -102.40321 -105.27939 C -102.40321 -102.10499 -103.33861 -99.384015 -105.20924 -97.116586 C -107.07986 -94.849156 -109.85749 -93.120223 -113.54206 -91.929822 C -108.89383 -90.909479 -105.63447 -89.237189 -103.76385 -86.913074 C -101.89322 -84.588959 -100.95782 -81.442892 -100.95782 -77.474891 C -100.95782 -74.017061 -102.0065 -71.069506 -104.10388 -68.632019 C -106.14456 -66.194533 -108.8089 -64.380375 -112.09667 -63.189974 C -115.38444 -61.999574 -118.78567 -61.404554 -122.30018 -61.404554 C -127.4019 -61.404554 -131.73801 -62.453243 -135.30921 -64.550615 C -138.82372 -66.647987 -140.58124 -69.510317 -140.58124 -73.138204 C -140.58124 -75.235577 -139.95764 -76.851222 -138.71055 -77.984937 C -137.46346 -79.175337 -135.90446 -79.770358 -134.03383 -79.770358 C -132.10652 -79.770358 -130.15101 -79.005405 -128.16701 -77.474891 C -128.67718 -76.397862 -128.93234 -75.094016 -128.93234 -73.563501 C -128.93234 -71.749558 -128.39396 -70.275781 -127.31693 -69.142066 C -126.18322 -68.008351 -124.51093 -67.441394 -122.30018 -67.441394 C -117.42521 -67.441394 -114.98745 -70.814037 -114.98745 -77.55964 C -114.98745 -81.244213 -116.17801 -84.10706 -118.55881 -86.147746 C -120.88292 -88.188433 -124.19892 -89.208541 -128.50704 -89.208541 L -128.50704 -94.480571 C -120.17424 -95.1608 -116.00806 -98.760535 -116.00806 -105.27939 C -116.00806 -108.56717 -116.51786 -110.97583 -117.5382 -112.50634 C -118.55854 -114.09354 -119.94761 -114.88759 -121.70487 -114.88759 C -123.80224 -114.88759 -125.38931 -114.15071 -126.46634 -112.67688 C -127.48668 -111.20305 -127.99699 -109.41747 -127.99699 -107.3201 C -127.99699 -105.44947 -127.59997 -103.77718 -126.80637 -102.30335 C -128.39357 -100.60278 -130.4343 -99.752084 -132.92847 -99.752084 C -135.1959 -99.752084 -136.95342 -100.43233 -138.2005 -101.79279 C -139.44759 -103.15324 -140.07119 -104.91076 -140.07119 -107.06482 C -140.07119 -109.8991 -139.10721 -112.25164 -137.17989 -114.12227 C -135.19589 -116.04958 -132.75865 -117.46671 -129.86768 -118.37369 C -126.92002 -119.28066 -124.02911 -119.73381 -121.19482 -119.73381 z M -51.300898 -119.13901 L -48.495384 -117.86364 L -48.495384 -68.716769 C -47.418355 -68.093226 -45.717485 -67.526269 -43.39337 -67.016097 C -41.069255 -66.562611 -39.227033 -66.279392 -37.866576 -66.16602 L -38.121857 -62.084615 L -72.81328 -62.084615 L -72.643264 -66.16602 C -67.598234 -66.732877 -63.743859 -67.583054 -61.079629 -68.716769 L -61.079629 -109.44555 L -72.473249 -109.44555 L -72.473249 -114.37703 C -68.845362 -114.66046 -65.104275 -115.19935 -61.249645 -115.99295 C -57.395015 -116.84324 -54.078499 -117.89193 -51.300898 -119.13901 z M -12.358055 -119.13901 L -9.552025 -117.86364 L -9.552025 -68.716769 C -8.4749961 -68.093226 -6.7746428 -67.526269 -4.4505276 -67.016097 C -2.1264125 -66.562611 -0.28419086 -66.279392 1.0762668 -66.16602 L 0.82150197 -62.084615 L -33.870437 -62.084615 L -33.700422 -66.16602 C -28.655391 -66.732877 -24.800499 -67.583054 -22.13627 -68.716769 L -22.13627 -109.44555 L -33.52989 -109.44555 L -33.52989 -114.37703 C -29.902003 -114.66046 -26.160915 -115.19935 -22.306285 -115.99295 C -18.451655 -116.84324 -15.135656 -117.89193 -12.358055 -119.13901 z M -85.907571 -101.28274 C -83.92357 -101.28274 -82.449793 -100.68772 -81.486136 -99.497319 C -80.465792 -98.363604 -79.955996 -96.776539 -79.955996 -94.735852 C -79.955996 -92.695166 -80.465792 -91.107584 -81.486136 -89.973869 C -82.449793 -88.840154 -83.92357 -88.273198 -85.907571 -88.273198 C -87.891572 -88.273198 -89.39393 -88.840154 -90.414273 -89.973869 C -91.37793 -91.16427 -91.859663 -92.751852 -91.859663 -94.735852 C -91.859663 -96.833225 -91.37793 -98.448354 -90.414273 -99.582068 C -89.39393 -100.71578 -87.891572 -101.28274 -85.907571 -101.28274 z M -85.907571 -74.498845 C -83.92357 -74.498845 -82.449793 -73.903824 -81.486136 -72.713424 C -80.465792 -71.579709 -79.955996 -69.992127 -79.955996 -67.951441 C -79.955996 -65.910754 -80.465792 -64.323689 -81.486136 -63.189974 C -82.449793 -62.05626 -83.92357 -61.489303 -85.907571 -61.489303 C -87.891572 -61.489303 -89.39393 -62.05626 -90.414273 -63.189974 C -91.37793 -64.380375 -91.859663 -65.96744 -91.859663 -67.951441 C -91.859663 -70.048813 -91.37793 -71.664459 -90.414273 -72.798173 C -89.39393 -73.931888 -87.891572 -74.498845 -85.907571 -74.498845 z " /></g></svg>
