<?xml version="1.0" encoding="UTF-8" standalone="no"?>
<!-- Created with Inkscape (http://www.inkscape.org/) -->

<svg
   width="172.6701mm"
   height="172.6701mm"
   viewBox="0 0 172.6701 172.6701"
   version="1.1"
   id="svg1"
   xml:space="preserve"
   xmlns="http://www.w3.org/2000/svg"
   xmlns:svg="http://www.w3.org/2000/svg"><defs
     id="defs1" /><g
     id="layer1"
     transform="translate(157.25102,198.81012)"><path
       id="path5"
       style="fill:#ffffff;fill-opacity:1;stroke-width:0.805188;stroke-linecap:round;stroke-linejoin:round"
       d="M -2.0863309 -198.17657 L -10.088943 -183.11289 L -10.930235 -165.68398 L -19.198981 -165.68398 L -11.423229 -155.47426 L -12.166336 -140.07934 C -28.353216 -157.12094 -50.823548 -166.77435 -74.327399 -166.78417 C -103.64471 -166.77397 -130.92652 -151.79225 -146.66717 -127.05894 L -157.25102 -127.05894 L -149.61996 -115.86014 L -157.25102 -26.140039 L -8.5138455 -26.140039 L 15.419061 -26.140039 L 8.0799737 -154.80195 L 15.419061 -165.68398 L 7.4593397 -165.68398 L 6.4490654 -183.39297 L -2.0863309 -198.17657 z M -83.43072 -192.21621 C -85.584619 -189.65499 -86.77489 -186.4211 -86.795372 -183.07465 C -86.842092 -175.15518 -80.459903 -168.69733 -72.540428 -168.65072 C -64.621155 -168.60402 -58.163395 -174.98588 -58.116503 -182.90515 C -58.102813 -186.26049 -59.266203 -189.5144 -61.404157 -192.10045 C -60.83125 -190.6836 -60.536835 -189.16959 -60.537027 -187.64129 C -60.575787 -181.07411 -65.930869 -175.78172 -72.498054 -175.82031 C -79.065241 -175.85911 -84.357627 -181.21415 -84.319038 -187.78134 C -84.309338 -189.30285 -84.007827 -190.80837 -83.43072 -192.21621 z M -16.099429 -119.81908 C -10.147427 -119.81908 -5.4137778 -118.54381 -1.8992622 -115.99295 C 1.6152534 -113.44209 3.3722507 -110.01229 3.3722507 -105.70418 C 3.3722507 -103.38006 2.522074 -101.05611 0.82150197 -98.731991 C -0.87907008 -96.407876 -3.1183164 -94.50901 -5.8959175 -93.035181 C -2.3814019 -91.334609 0.36815717 -89.350519 2.3521579 -87.08309 C 4.3928444 -84.81566 5.412953 -81.896169 5.412953 -78.324968 C 5.412953 -73.166566 3.5421509 -69.057034 -0.19910757 -65.996005 C -3.9403661 -62.991661 -8.9852987 -61.489303 -15.334101 -61.489303 C -22.306446 -61.489303 -27.691243 -62.878373 -31.489187 -65.655974 C -35.230446 -68.433575 -37.101248 -72.401238 -37.101248 -77.55964 C -37.101248 -80.223869 -36.251071 -82.86014 -34.550499 -85.467684 C -32.849927 -88.131914 -30.468812 -90.483931 -27.407783 -92.524618 C -29.958641 -93.941761 -31.942731 -95.642631 -33.359874 -97.626632 C -34.777018 -99.610633 -35.485843 -102.07646 -35.485843 -105.02411 C -35.485843 -109.55897 -33.728329 -113.15871 -30.213813 -115.82294 C -26.699297 -118.48717 -21.994745 -119.81908 -16.099429 -119.81908 z M -54.957522 -119.13901 L -52.151492 -117.86364 L -52.151492 -68.716769 C -51.074463 -68.093226 -49.373593 -67.526269 -47.049478 -67.016097 C -44.725363 -66.562611 -42.883141 -66.279392 -41.522683 -66.16602 L -41.777965 -62.084615 L -76.469388 -62.084615 L -76.299372 -66.16602 C -71.254342 -66.732877 -67.399966 -67.583054 -64.735737 -68.716769 L -64.735737 -109.44555 L -76.129357 -109.44555 L -76.129357 -114.37703 C -72.50147 -114.66046 -68.760382 -115.19935 -64.905752 -115.99295 C -61.051122 -116.84324 -57.735123 -117.89193 -54.957522 -119.13901 z M -137.26516 -119.05375 L -133.01374 -118.969 C -127.00505 -118.85563 -123.8304 -118.79847 -123.49029 -118.79847 L -111.41661 -118.969 L -108.95061 -117.18306 L -109.71594 -110.72092 L -130.80302 -110.72092 L -131.99313 -96.521273 C -129.04547 -97.258188 -126.38165 -97.626632 -124.00085 -97.626632 C -118.38897 -97.626632 -113.82577 -96.124274 -110.31125 -93.11993 C -106.74005 -90.172272 -104.95395 -85.836165 -104.95395 -80.110905 C -104.95395 -76.539704 -105.80465 -73.336993 -107.50522 -70.502706 C -109.14911 -67.66842 -111.5297 -65.429173 -114.64742 -63.785287 C -117.76513 -62.198086 -121.44958 -61.404554 -125.70101 -61.404554 C -129.15884 -61.404554 -132.3049 -61.886286 -135.13919 -62.849943 C -137.91679 -63.813601 -140.09939 -65.14551 -141.6866 -66.846082 C -143.2738 -68.60334 -144.06733 -70.559366 -144.06733 -72.713424 C -144.06733 -74.980853 -143.44373 -76.709787 -142.19664 -77.900188 C -140.94956 -79.147274 -139.41913 -79.770358 -137.60519 -79.770358 C -136.58485 -79.770358 -135.56474 -79.572362 -134.5444 -79.175562 C -133.46737 -78.778762 -132.50339 -78.211805 -131.6531 -77.474891 C -132.16327 -76.28449 -132.41843 -75.037289 -132.41843 -73.733517 C -132.41843 -71.862888 -131.88005 -70.332466 -130.80302 -69.142066 C -129.66931 -67.951665 -127.96844 -67.356645 -125.70101 -67.356645 C -120.59929 -67.356645 -118.04876 -71.608045 -118.04876 -80.110905 C -118.04876 -84.135593 -118.84229 -87.054567 -120.42949 -88.86851 C -122.0167 -90.73914 -124.14214 -91.674541 -126.80637 -91.674541 C -128.45025 -91.674541 -130.20777 -91.36274 -132.0784 -90.739197 C -133.94903 -90.115654 -135.79125 -89.236897 -137.60519 -88.103182 L -142.28191 -92.609884 L -140.07119 -116.75776 L -137.26516 -119.05375 z M -16.099429 -113.78224 C -18.366858 -113.78224 -20.152436 -113.04535 -21.456208 -111.57152 C -22.75998 -110.15437 -23.411644 -108.22693 -23.411644 -105.78944 C -23.411644 -103.63538 -22.589531 -101.84981 -20.945645 -100.43266 C -19.245073 -99.072205 -16.77925 -97.711715 -13.548164 -96.351258 C -12.13102 -97.314915 -10.997624 -98.646824 -10.147338 -100.3474 C -9.2970515 -102.04797 -8.8719632 -103.86213 -8.8719632 -105.78944 C -8.8719632 -108.22693 -9.5522079 -110.15437 -10.912666 -111.57152 C -12.216437 -113.04535 -13.945371 -113.78224 -16.099429 -113.78224 z M -89.564195 -101.28274 C -87.580195 -101.28274 -86.105901 -100.68772 -85.142243 -99.497319 C -84.1219 -98.363604 -83.612104 -96.776539 -83.612104 -94.735852 C -83.612104 -92.695166 -84.1219 -91.107584 -85.142243 -89.973869 C -86.105901 -88.840154 -87.580195 -88.273198 -89.564195 -88.273198 C -91.548196 -88.273198 -93.050037 -88.840154 -94.07038 -89.973869 C -95.034038 -91.16427 -95.51577 -92.751852 -95.51577 -94.735852 C -95.51577 -96.833225 -95.034038 -98.448354 -94.07038 -99.582068 C -93.050037 -100.71578 -91.548196 -101.28274 -89.564195 -101.28274 z M -19.585521 -89.038526 C -21.286093 -87.678068 -22.532778 -86.119583 -23.326378 -84.362325 C -24.119978 -82.605068 -24.517003 -80.50769 -24.517003 -78.070203 C -24.517003 -74.725745 -23.69489 -72.089474 -22.051004 -70.162159 C -20.407117 -68.291529 -18.168388 -67.356645 -15.334101 -67.356645 C -12.5565 -67.356645 -10.402478 -68.291529 -8.8719632 -70.162159 C -7.2847626 -72.032788 -6.4907132 -74.640479 -6.4907132 -77.984937 C -6.4907132 -79.855566 -7.0862503 -81.442631 -8.2766507 -82.746403 C -9.4103654 -84.106861 -10.855562 -85.212194 -12.61282 -86.06248 C -14.370078 -86.969452 -16.694549 -87.961497 -19.585521 -89.038526 z M -89.564195 -74.498845 C -87.580195 -74.498845 -86.105901 -73.903824 -85.142243 -72.713424 C -84.1219 -71.579709 -83.612104 -69.992127 -83.612104 -67.951441 C -83.612104 -65.910754 -84.1219 -64.323689 -85.142243 -63.189974 C -86.105901 -62.05626 -87.580195 -61.489303 -89.564195 -61.489303 C -91.548196 -61.489303 -93.050037 -62.05626 -94.07038 -63.189974 C -95.034038 -64.380375 -95.51577 -65.96744 -95.51577 -67.951441 C -95.51577 -70.048813 -95.034038 -71.664459 -94.07038 -72.798173 C -93.050037 -73.931888 -91.548196 -74.498845 -89.564195 -74.498845 z " /></g></svg>
