<?xml version="1.0" encoding="UTF-8" standalone="no"?>
<!-- Created with Inkscape (http://www.inkscape.org/) -->

<svg
   width="172.6701mm"
   height="172.6701mm"
   viewBox="0 0 172.6701 172.6701"
   version="1.1"
   id="svg1"
   xml:space="preserve"
   xmlns="http://www.w3.org/2000/svg"
   xmlns:svg="http://www.w3.org/2000/svg"><defs
     id="defs1" /><g
     id="layer1"
     transform="translate(157.25102,198.81012)"><path
       id="path5"
       style="fill:#ffffff;fill-opacity:1;stroke-width:0.805188;stroke-linecap:round;stroke-linejoin:round"
       d="M -2.0863309 -198.17657 L -10.088943 -183.11289 L -10.930235 -165.68398 L -19.198981 -165.68398 L -11.423229 -155.47426 L -12.166336 -140.07934 C -28.353216 -157.12094 -50.823548 -166.77435 -74.327399 -166.78417 C -103.64471 -166.77397 -130.92652 -151.79225 -146.66717 -127.05894 L -157.25102 -127.05894 L -149.61996 -115.86014 L -157.25102 -26.140039 L -8.5138455 -26.140039 L 15.419061 -26.140039 L 8.0799737 -154.80195 L 15.419061 -165.68398 L 7.4593397 -165.68398 L 6.4490654 -183.39297 L -2.0863309 -198.17657 z M -83.43072 -192.21621 C -85.584619 -189.65499 -86.77489 -186.4211 -86.795372 -183.07465 C -86.842092 -175.15518 -80.459903 -168.69733 -72.540428 -168.65072 C -64.621155 -168.60402 -58.163395 -174.98588 -58.116503 -182.90515 C -58.102813 -186.26049 -59.266203 -189.5144 -61.404157 -192.10045 C -60.83125 -190.6836 -60.536835 -189.16959 -60.537027 -187.64129 C -60.575787 -181.07411 -65.930869 -175.78172 -72.498054 -175.82031 C -79.065241 -175.85911 -84.357627 -181.21415 -84.319038 -187.78134 C -84.309338 -189.30285 -84.007827 -190.80837 -83.43072 -192.21621 z M -13.42104 -119.81908 C -7.4690373 -119.81908 -2.7353883 -118.54381 0.7791273 -115.99295 C 4.2936429 -113.44209 6.0506402 -110.01229 6.0506402 -105.70418 C 6.0506402 -103.38006 5.2004635 -101.05611 3.4998915 -98.731991 C 1.7993194 -96.407876 -0.43992696 -94.50901 -3.217528 -93.035181 C 0.2969876 -91.334609 3.0465467 -89.350519 5.0305474 -87.08309 C 7.0712338 -84.81566 8.0913425 -81.896169 8.0913425 -78.324968 C 8.0913425 -73.166566 6.2210572 -69.057034 2.4797987 -65.996005 C -1.2614598 -62.991661 -6.3069092 -61.489303 -12.655712 -61.489303 C -19.628057 -61.489303 -25.012854 -62.878373 -28.810798 -65.655974 C -32.552056 -68.433575 -34.422858 -72.401238 -34.422858 -77.55964 C -34.422858 -80.223869 -33.572682 -82.86014 -31.87211 -85.467684 C -30.171538 -88.131914 -27.790423 -90.483931 -24.729393 -92.524618 C -27.280251 -93.941761 -29.264341 -95.642631 -30.681485 -97.626632 C -32.098628 -99.610633 -32.807453 -102.07646 -32.807453 -105.02411 C -32.807453 -109.55897 -31.049939 -113.15871 -27.535423 -115.82294 C -24.020908 -118.48717 -19.316356 -119.81908 -13.42104 -119.81908 z M -58.996035 -119.73381 C -53.157405 -119.73381 -48.509497 -118.28861 -45.051667 -115.39764 C -41.593837 -112.56335 -39.864903 -108.56711 -39.864903 -103.40871 C -39.864903 -98.873849 -41.593837 -94.026912 -45.051667 -88.86851 C -48.509497 -83.766794 -54.206094 -77.616529 -62.142097 -70.41744 L -39.269591 -70.41744 L -39.269591 -62.084615 L -77.787653 -62.084615 L -77.787653 -67.016097 C -71.495537 -73.081471 -66.591956 -78.268272 -63.07744 -82.576388 C -59.562925 -86.884504 -57.040458 -90.852684 -55.509943 -94.480571 C -53.922743 -98.108458 -53.12921 -101.84955 -53.12921 -105.70418 C -53.12921 -111.82623 -55.169944 -114.88759 -59.251317 -114.88759 C -61.065261 -114.88759 -62.539038 -114.0369 -63.672753 -112.33633 C -64.806467 -110.69244 -65.373424 -108.65171 -65.373424 -106.21422 C -65.373424 -104.51365 -64.777887 -102.89852 -63.587486 -101.36801 C -64.551144 -100.46103 -65.656477 -99.752209 -66.903563 -99.242037 C -68.093964 -98.731866 -69.284521 -98.476709 -70.474921 -98.476709 C -72.515608 -98.476709 -74.216478 -99.10031 -75.576936 -100.3474 C -76.937393 -101.65117 -77.617638 -103.52197 -77.617638 -105.95946 C -77.617638 -108.567 -76.852169 -110.91953 -75.321654 -113.01691 C -73.791139 -115.11428 -71.637117 -116.75799 -68.859516 -117.94839 C -66.025229 -119.13879 -62.737294 -119.73381 -58.996035 -119.73381 z M -126.84926 -119.56379 C -120.10366 -119.56379 -114.94492 -117.69351 -111.37372 -113.95225 C -107.74583 -110.21099 -105.93219 -104.7971 -105.93219 -97.711381 C -105.93219 -88.811721 -108.70981 -81.216258 -114.26501 -74.924142 C -119.76353 -68.688711 -127.75602 -64.09693 -138.24288 -61.149272 L -140.28358 -65.400692 C -134.61501 -67.838179 -130.05181 -70.956182 -126.59398 -74.754126 C -123.13615 -78.608756 -120.84026 -83.086732 -119.70654 -88.188448 C -122.88094 -86.601248 -125.97037 -85.807715 -128.97471 -85.807715 C -134.64328 -85.807715 -139.12126 -87.338137 -142.40903 -90.399166 C -145.64012 -93.460196 -147.25576 -97.598308 -147.25576 -102.8134 C -147.25576 -106.04448 -146.40559 -108.93539 -144.70502 -111.48625 C -142.94776 -114.03711 -140.53858 -116.0212 -137.47755 -117.43834 C -134.35983 -118.85549 -130.81726 -119.56379 -126.84926 -119.56379 z M -13.42104 -113.78224 C -15.688469 -113.78224 -17.474047 -113.04535 -18.777819 -111.57152 C -20.08159 -110.15437 -20.733255 -108.22693 -20.733255 -105.78944 C -20.733255 -103.63538 -19.911142 -101.84981 -18.267255 -100.43266 C -16.566683 -99.072205 -14.100861 -97.711715 -10.869774 -96.351258 C -9.4526307 -97.314915 -8.3192341 -98.646824 -7.4689481 -100.3474 C -6.618662 -102.04797 -6.1935737 -103.86213 -6.1935737 -105.78944 C -6.1935737 -108.22693 -6.8738184 -110.15437 -8.234276 -111.57152 C -9.5380479 -113.04535 -11.266982 -113.78224 -13.42104 -113.78224 z M -127.3593 -113.69697 C -129.79679 -113.69697 -131.66759 -112.76157 -132.97137 -110.89094 C -134.27514 -109.02031 -134.9268 -106.35597 -134.9268 -102.89814 C -134.9268 -99.383629 -134.21798 -96.634587 -132.80083 -94.650586 C -131.327 -92.723271 -129.25821 -91.759807 -126.59398 -91.759807 C -124.26986 -91.759807 -121.69075 -92.723271 -118.85646 -94.650586 L -118.85646 -95.755945 C -118.85646 -101.93469 -119.53671 -106.46931 -120.89717 -109.36028 C -122.25762 -112.25126 -124.41165 -113.69697 -127.3593 -113.69697 z M -91.05196 -101.28274 C -89.067959 -101.28274 -87.594182 -100.68772 -86.630524 -99.497319 C -85.610181 -98.363604 -85.099868 -96.776539 -85.099868 -94.735852 C -85.099868 -92.695166 -85.610181 -91.107584 -86.630524 -89.973869 C -87.594182 -88.840154 -89.067959 -88.273198 -91.05196 -88.273198 C -93.035961 -88.273198 -94.538318 -88.840154 -95.558662 -89.973869 C -96.522319 -91.16427 -97.004051 -92.751852 -97.004051 -94.735852 C -97.004051 -96.833225 -96.522319 -98.448354 -95.558662 -99.582068 C -94.538318 -100.71578 -93.035961 -101.28274 -91.05196 -101.28274 z M -16.907132 -89.038526 C -18.607704 -87.678068 -19.854388 -86.119583 -20.647989 -84.362325 C -21.441589 -82.605068 -21.838614 -80.50769 -21.838614 -78.070203 C -21.838614 -74.725745 -21.016501 -72.089474 -19.372614 -70.162159 C -17.728728 -68.291529 -15.489998 -67.356645 -12.655712 -67.356645 C -9.8781106 -67.356645 -7.7240886 -68.291529 -6.1935737 -70.162159 C -4.6063731 -72.032788 -3.8123237 -74.640479 -3.8123237 -77.984937 C -3.8123237 -79.855566 -4.4078608 -81.442631 -5.5982612 -82.746403 C -6.7319759 -84.106861 -8.1771729 -85.212194 -9.9344306 -86.06248 C -11.691688 -86.969452 -14.016159 -87.961497 -16.907132 -89.038526 z M -91.05196 -74.498845 C -89.067959 -74.498845 -87.594182 -73.903824 -86.630524 -72.713424 C -85.610181 -71.579709 -85.099868 -69.992127 -85.099868 -67.951441 C -85.099868 -65.910754 -85.610181 -64.323689 -86.630524 -63.189974 C -87.594182 -62.05626 -89.067959 -61.489303 -91.05196 -61.489303 C -93.035961 -61.489303 -94.538318 -62.05626 -95.558662 -63.189974 C -96.522319 -64.380375 -97.004051 -65.96744 -97.004051 -67.951441 C -97.004051 -70.048813 -96.522319 -71.664459 -95.558662 -72.798173 C -94.538318 -73.931888 -93.035961 -74.498845 -91.05196 -74.498845 z " /></g></svg>
