<?xml version="1.0" encoding="UTF-8" standalone="no"?>
<!-- Created with Inkscape (http://www.inkscape.org/) -->

<svg
   width="172.6701mm"
   height="172.6701mm"
   viewBox="0 0 172.6701 172.6701"
   version="1.1"
   id="svg1"
   xml:space="preserve"
   xmlns="http://www.w3.org/2000/svg"
   xmlns:svg="http://www.w3.org/2000/svg"><defs
     id="defs1" /><g
     id="layer1"
     transform="translate(157.25102,198.81012)"><path
       id="path5"
       style="fill:#ffffff;fill-opacity:1;stroke-width:0.805188;stroke-linecap:round;stroke-linejoin:round"
       d="M -2.0863309 -198.17657 L -10.088943 -183.11289 L -10.930235 -165.68398 L -19.198981 -165.68398 L -11.423229 -155.47426 L -12.166336 -140.07934 C -28.353216 -157.12094 -50.823548 -166.77435 -74.327399 -166.78417 C -103.64471 -166.77397 -130.92652 -151.79225 -146.66717 -127.05894 L -157.25102 -127.05894 L -149.61996 -115.86014 L -157.25102 -26.140039 L -8.5138455 -26.140039 L 15.419061 -26.140039 L 8.0799737 -154.80195 L 15.419061 -165.68398 L 7.4593397 -165.68398 L 6.4490654 -183.39297 L -2.0863309 -198.17657 z M -83.43072 -192.21621 C -85.584619 -189.65499 -86.77489 -186.4211 -86.795372 -183.07465 C -86.842092 -175.15518 -80.459903 -168.69733 -72.540428 -168.65072 C -64.621155 -168.60402 -58.163395 -174.98588 -58.116503 -182.90515 C -58.102813 -186.26049 -59.266203 -189.5144 -61.404157 -192.10045 C -60.83125 -190.6836 -60.536835 -189.16959 -60.537027 -187.64129 C -60.575787 -181.07411 -65.930869 -175.78172 -72.498054 -175.82031 C -79.065241 -175.85911 -84.357627 -181.21415 -84.319038 -187.78134 C -84.309338 -189.30285 -84.007827 -190.80837 -83.43072 -192.21621 z M -124.97857 -119.73381 C -119.13994 -119.73381 -114.49152 -118.28861 -111.03369 -115.39764 C -107.57586 -112.56335 -105.84692 -108.56711 -105.84692 -103.40871 C -105.84692 -98.873849 -107.57586 -94.026912 -111.03369 -88.86851 C -114.49152 -83.766794 -120.18863 -77.616529 -128.12463 -70.41744 L -105.25161 -70.41744 L -105.25161 -62.084615 L -143.76967 -62.084615 L -143.76967 -67.016097 C -137.47756 -73.081471 -132.57449 -78.268272 -129.05998 -82.576388 C -125.54546 -86.884504 -123.02299 -90.852684 -121.49248 -94.480571 C -119.90528 -98.108458 -119.11123 -101.84955 -119.11123 -105.70418 C -119.11123 -111.82623 -121.15196 -114.88759 -125.23334 -114.88759 C -127.04728 -114.88759 -128.52106 -114.0369 -129.65477 -112.33633 C -130.78849 -110.69244 -131.35544 -108.65171 -131.35544 -106.21422 C -131.35544 -104.51365 -130.76042 -102.89852 -129.57002 -101.36801 C -130.53368 -100.46103 -131.63901 -99.752209 -132.8861 -99.242037 C -134.0765 -98.731866 -135.26706 -98.476709 -136.45746 -98.476709 C -138.49814 -98.476709 -140.1985 -99.10031 -141.55895 -100.3474 C -142.91941 -101.65117 -143.59966 -103.52197 -143.59966 -105.95946 C -143.59966 -108.567 -142.83419 -110.91953 -141.30367 -113.01691 C -139.77316 -115.11428 -137.61914 -116.75799 -134.84154 -117.94839 C -132.00725 -119.13879 -128.71983 -119.73381 -124.97857 -119.73381 z M -58.060692 -119.73381 C -52.222061 -119.73381 -47.574153 -118.28861 -44.116324 -115.39764 C -40.658494 -112.56335 -38.92956 -108.56711 -38.92956 -103.40871 C -38.92956 -98.873849 -40.658494 -94.026912 -44.116324 -88.86851 C -47.574153 -83.766794 -53.27075 -77.616529 -61.206753 -70.41744 L -38.334248 -70.41744 L -38.334248 -62.084615 L -76.85231 -62.084615 L -76.85231 -67.016097 C -70.560193 -73.081471 -65.656612 -78.268272 -62.142097 -82.576388 C -58.627581 -86.884504 -56.105115 -90.852684 -54.5746 -94.480571 C -52.987399 -98.108458 -52.193867 -101.84955 -52.193867 -105.70418 C -52.193867 -111.82623 -54.234601 -114.88759 -58.315974 -114.88759 C -60.129917 -114.88759 -61.603694 -114.0369 -62.737409 -112.33633 C -63.871124 -110.69244 -64.438081 -108.65171 -64.438081 -106.21422 C -64.438081 -104.51365 -63.842543 -102.89852 -62.652143 -101.36801 C -63.615801 -100.46103 -64.72165 -99.752209 -65.968736 -99.242037 C -67.159137 -98.731866 -68.349178 -98.476709 -69.539578 -98.476709 C -71.580264 -98.476709 -73.281134 -99.10031 -74.641592 -100.3474 C -76.00205 -101.65117 -76.682294 -103.52197 -76.682294 -105.95946 C -76.682294 -108.567 -75.916825 -110.91953 -74.386311 -113.01691 C -72.855796 -115.11428 -70.701774 -116.75799 -67.924173 -117.94839 C -65.089886 -119.13879 -61.801951 -119.73381 -58.060692 -119.73381 z M -14.951179 -119.73381 C -9.112548 -119.73381 -4.46464 -118.28861 -1.0068102 -115.39764 C 2.4510196 -112.56335 4.1799533 -108.56711 4.1799533 -103.40871 C 4.1799533 -98.873849 2.4510196 -94.026912 -1.0068102 -88.86851 C -4.46464 -83.766794 -10.161237 -77.616529 -18.09724 -70.41744 L 4.7752658 -70.41744 L 4.7752658 -62.084615 L -33.742797 -62.084615 L -33.742797 -67.016097 C -27.45068 -73.081471 -22.547099 -78.268272 -19.032583 -82.576388 C -15.518068 -86.884504 -12.995601 -90.852684 -11.465087 -94.480571 C -9.877886 -98.108458 -9.0843533 -101.84955 -9.0843533 -105.70418 C -9.0843533 -111.82623 -11.125087 -114.88759 -15.20646 -114.88759 C -17.020404 -114.88759 -18.494181 -114.0369 -19.627896 -112.33633 C -20.761611 -110.69244 -21.328567 -108.65171 -21.328567 -106.21422 C -21.328567 -104.51365 -20.733547 -102.89852 -19.543146 -101.36801 C -20.506804 -100.46103 -21.612137 -99.752209 -22.859223 -99.242037 C -24.049624 -98.731866 -25.239664 -98.476709 -26.430065 -98.476709 C -28.470751 -98.476709 -30.171621 -99.10031 -31.532079 -100.3474 C -32.892536 -101.65117 -33.572781 -103.52197 -33.572781 -105.95946 C -33.572781 -108.567 -32.807312 -110.91953 -31.276797 -113.01691 C -29.746282 -115.11428 -27.59226 -116.75799 -24.814659 -117.94839 C -21.980373 -119.13879 -18.692437 -119.73381 -14.951179 -119.73381 z M -90.116617 -101.28274 C -88.132616 -101.28274 -86.658838 -100.68772 -85.695181 -99.497319 C -84.674838 -98.363604 -84.164525 -96.776539 -84.164525 -94.735852 C -84.164525 -92.695166 -84.674838 -91.107584 -85.695181 -89.973869 C -86.658838 -88.840154 -88.132616 -88.273198 -90.116617 -88.273198 C -92.100617 -88.273198 -93.602975 -88.840154 -94.623318 -89.973869 C -95.586976 -91.16427 -96.068708 -92.751852 -96.068708 -94.735852 C -96.068708 -96.833225 -95.586976 -98.448354 -94.623318 -99.582068 C -93.602975 -100.71578 -92.100617 -101.28274 -90.116617 -101.28274 z M -90.116617 -74.498845 C -88.132616 -74.498845 -86.658838 -73.903824 -85.695181 -72.713424 C -84.674838 -71.579709 -84.164525 -69.992127 -84.164525 -67.951441 C -84.164525 -65.910754 -84.674838 -64.323689 -85.695181 -63.189974 C -86.658838 -62.05626 -88.132616 -61.489303 -90.116617 -61.489303 C -92.100617 -61.489303 -93.602975 -62.05626 -94.623318 -63.189974 C -95.586976 -64.380375 -96.068708 -65.96744 -96.068708 -67.951441 C -96.068708 -70.048813 -95.586976 -71.664459 -94.623318 -72.798173 C -93.602975 -73.931888 -92.100617 -74.498845 -90.116617 -74.498845 z " /></g></svg>
