<?xml version="1.0" encoding="UTF-8" standalone="no"?>
<!-- Created with Inkscape (http://www.inkscape.org/) -->

<svg
   width="172.6701mm"
   height="172.6701mm"
   viewBox="0 0 172.6701 172.6701"
   version="1.1"
   id="svg1"
   xml:space="preserve"
   xmlns="http://www.w3.org/2000/svg"
   xmlns:svg="http://www.w3.org/2000/svg"><defs
     id="defs1" /><g
     id="layer1"
     transform="translate(157.25102,198.81012)"><path
       id="path5"
       style="fill:#ffffff;fill-opacity:1;stroke-width:0.805188;stroke-linecap:round;stroke-linejoin:round"
       d="M -2.0863309 -198.17657 L -10.088943 -183.11289 L -10.930235 -165.68398 L -19.198981 -165.68398 L -11.423229 -155.47426 L -12.166336 -140.07934 C -28.353216 -157.12094 -50.823548 -166.77435 -74.327399 -166.78417 C -103.64471 -166.77397 -130.92652 -151.79225 -146.66717 -127.05894 L -157.25102 -127.05894 L -149.61996 -115.86014 L -157.25102 -26.140039 L -8.5138455 -26.140039 L 15.419061 -26.140039 L 8.0799737 -154.80195 L 15.419061 -165.68398 L 7.4593397 -165.68398 L 6.4490654 -183.39297 L -2.0863309 -198.17657 z M -83.43072 -192.21621 C -85.584619 -189.65499 -86.77489 -186.4211 -86.795372 -183.07465 C -86.842092 -175.15518 -80.459903 -168.69733 -72.540428 -168.65072 C -64.621155 -168.60402 -58.163395 -174.98588 -58.116503 -182.90515 C -58.102813 -186.26049 -59.266203 -189.5144 -61.404157 -192.10045 C -60.83125 -190.6836 -60.536835 -189.16959 -60.537027 -187.64129 C -60.575787 -181.07411 -65.930869 -175.78172 -72.498054 -175.82031 C -79.065241 -175.85911 -84.357627 -181.21415 -84.319038 -187.78134 C -84.309338 -189.30285 -84.007827 -190.80837 -83.43072 -192.21621 z M -110.10609 -133.81925 C -102.57644 -133.44277 -96.458726 -131.79518 -91.752692 -128.87744 L -125.35374 -73.534563 L -103.75299 -73.534563 L -102.34119 -96.547111 C -99.329332 -96.547111 -97.164189 -97.15909 -95.846499 -98.382658 C -94.434689 -99.606227 -93.352634 -101.67694 -92.599669 -104.59468 L -84.552098 -104.59468 L -84.693175 -72.828662 C -81.11659 -71.793335 -76.598996 -70.71128 -71.139997 -69.581832 L -71.845897 -62.804985 L -85.399075 -62.804985 L -85.399075 -37.533659 L -103.75299 -37.533659 L -103.75299 -62.804985 L -144.55412 -62.804985 L -145.68377 -67.887362 L -110.10609 -133.81925 z M -30.0562 -133.11335 C -19.044082 -133.11335 -10.620355 -128.97193 -4.7848742 -120.68931 C 1.1447278 -112.50081 4.1091566 -100.59459 4.1091566 -84.970557 C 4.1091566 -69.346526 1.1447278 -57.345876 -4.7848742 -48.969137 C -10.620355 -40.686518 -19.044082 -36.545089 -30.0562 -36.545089 C -41.068318 -36.545089 -49.539517 -40.686518 -55.469119 -48.969137 C -61.398721 -57.345876 -64.363666 -69.346526 -64.363666 -84.970557 C -64.363666 -100.50047 -61.398721 -112.40669 -55.469119 -120.68931 C -49.539517 -128.97193 -41.068318 -133.11335 -30.0562 -133.11335 z M -30.0562 -125.91276 C -34.856354 -125.91276 -38.338849 -122.75999 -40.503624 -116.45391 C -42.574279 -110.14782 -43.609895 -99.653381 -43.609895 -84.970557 C -43.609895 -70.381854 -42.574279 -59.934369 -40.503624 -53.628284 C -38.338849 -47.41632 -34.856354 -44.310507 -30.0562 -44.310507 C -25.256046 -44.310507 -21.821024 -47.41632 -19.750369 -53.628284 C -17.585594 -59.934369 -16.503022 -70.381854 -16.503022 -84.970557 C -16.503022 -99.55926 -17.585594 -110.00623 -19.750369 -116.31231 C -21.821024 -122.71252 -25.256046 -125.91276 -30.0562 -125.91276 z " /></g></svg>
