<?xml version="1.0" encoding="UTF-8" standalone="no"?>
<!-- Created with Inkscape (http://www.inkscape.org/) -->

<svg
   width="172.6701mm"
   height="172.6701mm"
   viewBox="0 0 172.6701 172.6701"
   version="1.1"
   id="svg1"
   xml:space="preserve"
   xmlns="http://www.w3.org/2000/svg"
   xmlns:svg="http://www.w3.org/2000/svg"><defs
     id="defs1" /><g
     id="layer1"
     transform="translate(157.25102,198.81012)"><path
       id="path5"
       style="fill:#ffffff;fill-opacity:1;stroke-width:0.805188;stroke-linecap:round;stroke-linejoin:round"
       d="M -2.0863309 -198.17657 L -10.088943 -183.11289 L -10.930235 -165.68398 L -19.198981 -165.68398 L -11.423229 -155.47426 L -12.166336 -140.07934 C -28.353216 -157.12094 -50.823548 -166.77435 -74.327399 -166.78417 C -103.64471 -166.77397 -130.92652 -151.79225 -146.66717 -127.05894 L -157.25102 -127.05894 L -149.61996 -115.86014 L -157.25102 -26.140039 L -8.5138455 -26.140039 L 15.419061 -26.140039 L 8.0799737 -154.80195 L 15.419061 -165.68398 L 7.4593397 -165.68398 L 6.4490654 -183.39297 L -2.0863309 -198.17657 z M -83.43072 -192.21621 C -85.584619 -189.65499 -86.77489 -186.4211 -86.795372 -183.07465 C -86.842092 -175.15518 -80.459903 -168.69733 -72.540428 -168.65072 C -64.621155 -168.60402 -58.163395 -174.98588 -58.116503 -182.90515 C -58.102813 -186.26049 -59.266203 -189.5144 -61.404157 -192.10045 C -60.83125 -190.6836 -60.536835 -189.16959 -60.537027 -187.64129 C -60.575787 -181.07411 -65.930869 -175.78172 -72.498054 -175.82031 C -79.065241 -175.85911 -84.357627 -181.21415 -84.319038 -187.78134 C -84.309338 -189.30285 -84.007827 -190.80837 -83.43072 -192.21621 z M -57.295364 -120.07436 C -52.760505 -119.84761 -49.076062 -118.85557 -46.241775 -117.09831 L -66.478783 -83.767013 L -53.469241 -83.767013 L -52.619164 -97.626632 C -50.80522 -97.626632 -49.501375 -97.995076 -48.707775 -98.731991 C -47.857489 -99.468905 -47.205307 -100.71611 -46.751822 -102.47336 L -41.905606 -102.47336 L -41.990355 -83.341716 C -39.836297 -82.718173 -37.115319 -82.066508 -33.827546 -81.38628 L -34.252843 -77.304875 L -42.415652 -77.304875 L -42.415652 -62.084615 L -53.469241 -62.084615 L -53.469241 -77.304875 L -78.042418 -77.304875 L -78.722997 -80.36567 L -57.295364 -120.07436 z M -125.23334 -119.73381 C -121.54876 -119.73381 -118.28941 -119.11073 -115.45512 -117.86364 C -112.62083 -116.67324 -110.41017 -114.97237 -108.82297 -112.76163 C -107.23577 -110.60757 -106.44224 -108.11368 -106.44224 -105.27939 C -106.44224 -102.10499 -107.37764 -99.384015 -109.24827 -97.116586 C -111.11889 -94.849156 -113.89652 -93.120223 -117.58109 -91.929822 C -112.93286 -90.909479 -109.67299 -89.237189 -107.80236 -86.913074 C -105.93173 -84.588959 -104.99685 -81.442892 -104.99685 -77.474891 C -104.99685 -74.017061 -106.04553 -71.069506 -108.14291 -68.632019 C -110.18359 -66.194533 -112.84741 -64.380375 -116.13518 -63.189974 C -119.42296 -61.999574 -122.82418 -61.404554 -126.33869 -61.404554 C -131.44041 -61.404554 -135.77704 -62.453243 -139.34824 -64.550615 C -142.86275 -66.647987 -144.61975 -69.510317 -144.61975 -73.138204 C -144.61975 -75.235577 -143.99667 -76.851222 -142.74958 -77.984937 C -141.50249 -79.175337 -139.94349 -79.770358 -138.07286 -79.770358 C -136.14555 -79.770358 -134.19004 -79.005405 -132.20604 -77.474891 C -132.71621 -76.397862 -132.97085 -75.094016 -132.97085 -73.563501 C -132.97085 -71.749558 -132.43247 -70.275781 -131.35544 -69.142066 C -130.22173 -68.008351 -128.54944 -67.441394 -126.33869 -67.441394 C -121.46372 -67.441394 -119.02648 -70.814037 -119.02648 -77.55964 C -119.02648 -81.244213 -120.21704 -84.10706 -122.59784 -86.147746 C -124.92195 -88.188433 -128.23795 -89.208541 -132.54607 -89.208541 L -132.54607 -94.480571 C -124.21326 -95.1608 -120.04657 -98.760535 -120.04657 -105.27939 C -120.04657 -108.56717 -120.55689 -110.97583 -121.57723 -112.50634 C -122.59757 -114.09354 -123.98612 -114.88759 -125.74338 -114.88759 C -127.84075 -114.88759 -129.42834 -114.15071 -130.50537 -112.67688 C -131.52571 -111.20305 -132.0355 -109.41747 -132.0355 -107.3201 C -132.0355 -105.44947 -131.639 -103.77718 -130.8454 -102.30335 C -132.4326 -100.60278 -134.47333 -99.752084 -136.9675 -99.752084 C -139.23493 -99.752084 -140.99193 -100.43233 -142.23902 -101.79279 C -143.4861 -103.15324 -144.1097 -104.91076 -144.1097 -107.06482 C -144.1097 -109.8991 -143.14624 -112.25164 -141.21892 -114.12227 C -139.23492 -116.04958 -136.79716 -117.46671 -133.90619 -118.37369 C -130.95853 -119.28066 -128.06762 -119.73381 -125.23334 -119.73381 z M -8.3190254 -119.13901 L -5.5129951 -117.86364 L -5.5129951 -68.716769 C -4.4359661 -68.093226 -2.7356128 -67.526269 -0.4114977 -67.016097 C 1.9126174 -66.562611 3.7548391 -66.279392 5.1152967 -66.16602 L 4.8600152 -62.084615 L -29.831407 -62.084615 L -29.661392 -66.16602 C -24.616361 -66.732877 -20.761469 -67.583054 -18.09724 -68.716769 L -18.09724 -109.44555 L -29.491376 -109.44555 L -29.491376 -114.37703 C -25.863489 -114.66046 -22.122402 -115.19935 -18.267772 -115.99295 C -14.413142 -116.84324 -11.096626 -117.89193 -8.3190254 -119.13901 z M -89.946601 -101.28274 C -87.9626 -101.28274 -86.488823 -100.68772 -85.525166 -99.497319 C -84.504822 -98.363604 -83.99451 -96.776539 -83.99451 -94.735852 C -83.99451 -92.695166 -84.504822 -91.107584 -85.525166 -89.973869 C -86.488823 -88.840154 -87.9626 -88.273198 -89.946601 -88.273198 C -91.930602 -88.273198 -93.432959 -88.840154 -94.453303 -89.973869 C -95.41696 -91.16427 -95.898693 -92.751852 -95.898693 -94.735852 C -95.898693 -96.833225 -95.41696 -98.448354 -94.453303 -99.582068 C -93.432959 -100.71578 -91.930602 -101.28274 -89.946601 -101.28274 z M -89.946601 -74.498845 C -87.9626 -74.498845 -86.488823 -73.903824 -85.525166 -72.713424 C -84.504822 -71.579709 -83.99451 -69.992127 -83.99451 -67.951441 C -83.99451 -65.910754 -84.504822 -64.323689 -85.525166 -63.189974 C -86.488823 -62.05626 -87.9626 -61.489303 -89.946601 -61.489303 C -91.930602 -61.489303 -93.432959 -62.05626 -94.453303 -63.189974 C -95.41696 -64.380375 -95.898693 -65.96744 -95.898693 -67.951441 C -95.898693 -70.048813 -95.41696 -71.664459 -94.453303 -72.798173 C -93.432959 -73.931888 -91.930602 -74.498845 -89.946601 -74.498845 z " /></g></svg>
