<?xml version="1.0" encoding="UTF-8" standalone="no"?>
<!-- Created with Inkscape (http://www.inkscape.org/) -->

<svg
   width="172.6701mm"
   height="172.6701mm"
   viewBox="0 0 172.6701 172.6701"
   version="1.1"
   id="svg1"
   xml:space="preserve"
   xmlns="http://www.w3.org/2000/svg"
   xmlns:svg="http://www.w3.org/2000/svg"><defs
     id="defs1" /><g
     id="layer1"
     transform="translate(157.25102,198.81012)"><path
       id="path5"
       style="fill:#ffffff;fill-opacity:1;stroke-width:0.805188;stroke-linecap:round;stroke-linejoin:round"
       d="M -2.0863309 -198.17657 L -10.088943 -183.11289 L -10.930235 -165.68398 L -19.198981 -165.68398 L -11.423229 -155.47426 L -12.166336 -140.07934 C -28.353216 -157.12094 -50.823548 -166.77435 -74.327399 -166.78417 C -103.64471 -166.77397 -130.92652 -151.79225 -146.66717 -127.05894 L -157.25102 -127.05894 L -149.61996 -115.86014 L -157.25102 -26.140039 L -8.5138455 -26.140039 L 15.419061 -26.140039 L 8.0799737 -154.80195 L 15.419061 -165.68398 L 7.4593397 -165.68398 L 6.4490654 -183.39297 L -2.0863309 -198.17657 z M -83.43072 -192.21621 C -85.584619 -189.65499 -86.77489 -186.4211 -86.795372 -183.07465 C -86.842092 -175.15518 -80.459903 -168.69733 -72.540428 -168.65072 C -64.621155 -168.60402 -58.163395 -174.98588 -58.116503 -182.90515 C -58.102813 -186.26049 -59.266203 -189.5144 -61.404157 -192.10045 C -60.83125 -190.6836 -60.536835 -189.16959 -60.537027 -187.64129 C -60.575787 -181.07411 -65.930869 -175.78172 -72.498054 -175.82031 C -79.065241 -175.85911 -84.357627 -181.21415 -84.319038 -187.78134 C -84.309338 -189.30285 -84.007827 -190.80837 -83.43072 -192.21621 z M -113.37204 -119.90383 L -111.33134 -115.65241 C -122.78186 -110.72075 -129.66902 -103.12528 -131.99313 -92.865166 C -128.70536 -94.452366 -125.58787 -95.245899 -122.64021 -95.245899 C -116.97164 -95.245899 -112.52173 -93.715477 -109.29064 -90.654448 C -106.00287 -87.593418 -104.35916 -83.455306 -104.35916 -78.240218 C -104.35916 -75.009132 -105.2374 -72.118221 -106.99466 -69.567363 C -108.69523 -67.016505 -111.10441 -65.032415 -114.22212 -63.615271 C -117.28315 -62.198128 -120.79766 -61.489303 -124.76566 -61.489303 C -131.51127 -61.489303 -136.69807 -63.360105 -140.32595 -67.101363 C -143.89716 -70.842622 -145.68273 -76.255999 -145.68273 -83.341716 C -145.68273 -92.241376 -142.93369 -99.808775 -137.43518 -106.04421 C -131.87997 -112.33632 -123.85891 -116.95617 -113.37204 -119.90383 z M -57.678286 -119.73381 C -53.993714 -119.73381 -50.734359 -119.11073 -47.900072 -117.86364 C -45.065785 -116.67324 -42.855119 -114.97237 -41.267919 -112.76163 C -39.680718 -110.60757 -38.886669 -108.11368 -38.886669 -105.27939 C -38.886669 -102.10499 -39.82207 -99.384015 -41.692699 -97.116586 C -43.563328 -94.849156 -46.340951 -93.120223 -50.025524 -91.929822 C -45.377293 -90.909479 -42.117938 -89.237189 -40.247309 -86.913074 C -38.37668 -84.588959 -37.441279 -81.442892 -37.441279 -77.474891 C -37.441279 -74.017061 -38.489968 -71.069506 -40.58734 -68.632019 C -42.628026 -66.194533 -45.292361 -64.380375 -48.580134 -63.189974 C -51.867906 -61.999574 -55.26913 -61.404554 -58.783645 -61.404554 C -63.885361 -61.404554 -68.221986 -62.453243 -71.793187 -64.550615 C -75.307703 -66.647987 -77.0647 -69.510317 -77.0647 -73.138204 C -77.0647 -75.235577 -76.441099 -76.851222 -75.194013 -77.984937 C -73.946927 -79.175337 -72.387925 -79.770358 -70.517296 -79.770358 C -68.589981 -79.770358 -66.634471 -79.005405 -64.650471 -77.474891 C -65.160642 -76.397862 -65.415799 -75.094016 -65.415799 -73.563501 C -65.415799 -71.749558 -64.877422 -70.275781 -63.800393 -69.142066 C -62.666679 -68.008351 -60.994389 -67.441394 -58.783645 -67.441394 C -53.908672 -67.441394 -51.470913 -70.814037 -51.470913 -77.55964 C -51.470913 -81.244213 -52.661471 -84.10706 -55.042272 -86.147746 C -57.366387 -88.188433 -60.682386 -89.208541 -64.990502 -89.208541 L -64.990502 -94.480571 C -56.657699 -95.1608 -52.491523 -98.760535 -52.491523 -105.27939 C -52.491523 -108.56717 -53.001836 -110.97583 -54.022179 -112.50634 C -55.042522 -114.09354 -56.431075 -114.88759 -58.188333 -114.88759 C -60.285705 -114.88759 -61.87277 -114.15071 -62.949799 -112.67688 C -63.970143 -111.20305 -64.480455 -109.41747 -64.480455 -107.3201 C -64.480455 -105.44947 -64.083947 -103.77718 -63.290347 -102.30335 C -64.877548 -100.60278 -66.917765 -99.752084 -69.411937 -99.752084 C -71.679367 -99.752084 -73.436881 -100.43233 -74.683967 -101.79279 C -75.931053 -103.15324 -76.554654 -104.91076 -76.554654 -107.06482 C -76.554654 -109.8991 -75.590672 -112.25164 -73.663357 -114.12227 C -71.679357 -116.04958 -69.242115 -117.46671 -66.351142 -118.37369 C -63.403484 -119.28066 -60.512573 -119.73381 -57.678286 -119.73381 z M -25.877644 -119.05375 L -21.626223 -118.969 C -15.617536 -118.85563 -12.442888 -118.79847 -12.102774 -118.79847 L -0.029092103 -118.969 L 2.4369072 -117.18306 L 1.6715793 -110.72092 L -19.415506 -110.72092 L -20.605614 -96.521273 C -17.657956 -97.258188 -14.994138 -97.626632 -12.613337 -97.626632 C -7.0014491 -97.626632 -2.4382488 -96.124274 1.0762668 -93.11993 C 4.6474681 -90.172272 6.4330458 -85.836165 6.4330458 -80.110905 C 6.4330458 -76.539704 5.5828691 -73.336993 3.8822971 -70.502706 C 2.2384107 -67.66842 -0.14218722 -65.429173 -3.2599026 -63.785287 C -6.3776181 -62.198086 -10.062061 -61.404554 -14.313492 -61.404554 C -17.771321 -61.404554 -20.917388 -61.886286 -23.751675 -62.849943 C -26.529276 -63.813601 -28.711879 -65.14551 -30.299079 -66.846082 C -31.88628 -68.60334 -32.679812 -70.559366 -32.679812 -72.713424 C -32.679812 -74.980853 -32.056212 -76.709787 -30.809125 -77.900188 C -29.562039 -79.147274 -28.031618 -79.770358 -26.217674 -79.770358 C -25.197331 -79.770358 -24.177223 -79.572362 -23.156879 -79.175562 C -22.07985 -78.778762 -21.115869 -78.211805 -20.265583 -77.474891 C -20.775755 -76.28449 -21.030911 -75.037289 -21.030911 -73.733517 C -21.030911 -71.862888 -20.492535 -70.332466 -19.415506 -69.142066 C -18.281791 -67.951665 -16.580921 -67.356645 -14.313492 -67.356645 C -9.2117754 -67.356645 -6.6612454 -71.608045 -6.6612454 -80.110905 C -6.6612454 -84.135593 -7.4547781 -87.054567 -9.0419787 -88.86851 C -10.629179 -90.73914 -12.754621 -91.674541 -15.41885 -91.674541 C -17.062737 -91.674541 -18.820251 -91.36274 -20.69088 -90.739197 C -22.561509 -90.115654 -24.403731 -89.236897 -26.217674 -88.103182 L -30.894392 -92.609884 L -28.683674 -116.75776 L -25.877644 -119.05375 z M -89.39418 -101.28274 C -87.410179 -101.28274 -85.935885 -100.68772 -84.972228 -99.497319 C -83.951884 -98.363604 -83.442089 -96.776539 -83.442089 -94.735852 C -83.442089 -92.695166 -83.951884 -91.107584 -84.972228 -89.973869 C -85.935885 -88.840154 -87.410179 -88.273198 -89.39418 -88.273198 C -91.378181 -88.273198 -92.880022 -88.840154 -93.900365 -89.973869 C -94.864022 -91.16427 -95.345755 -92.751852 -95.345755 -94.735852 C -95.345755 -96.833225 -94.864022 -98.448354 -93.900365 -99.582068 C -92.880022 -100.71578 -91.378181 -101.28274 -89.39418 -101.28274 z M -125.02095 -89.293807 C -127.40175 -89.293807 -129.98086 -88.330343 -132.75846 -86.403028 L -132.75846 -85.297669 C -132.75846 -79.118924 -132.07821 -74.583787 -130.71776 -71.692814 C -129.3573 -68.801842 -127.20328 -67.356645 -124.25562 -67.356645 C -121.81813 -67.356645 -119.94733 -68.291529 -118.64356 -70.162159 C -117.33979 -72.032788 -116.68812 -74.697123 -116.68812 -78.154952 C -116.68812 -81.669468 -117.42501 -84.390447 -118.89884 -86.317762 C -120.31598 -88.301762 -122.35672 -89.293807 -125.02095 -89.293807 z M -89.39418 -74.498845 C -87.410179 -74.498845 -85.935885 -73.903824 -84.972228 -72.713424 C -83.951884 -71.579709 -83.442089 -69.992127 -83.442089 -67.951441 C -83.442089 -65.910754 -83.951884 -64.323689 -84.972228 -63.189974 C -85.935885 -62.05626 -87.410179 -61.489303 -89.39418 -61.489303 C -91.378181 -61.489303 -92.880022 -62.05626 -93.900365 -63.189974 C -94.864022 -64.380375 -95.345755 -65.96744 -95.345755 -67.951441 C -95.345755 -70.048813 -94.864022 -71.664459 -93.900365 -72.798173 C -92.880022 -73.931888 -91.378181 -74.498845 -89.39418 -74.498845 z " /></g></svg>
