<?xml version="1.0" encoding="UTF-8" standalone="no"?>
<!-- Created with Inkscape (http://www.inkscape.org/) -->

<svg
   width="172.6701mm"
   height="172.6701mm"
   viewBox="0 0 172.6701 172.6701"
   version="1.1"
   id="svg1"
   xml:space="preserve"
   xmlns="http://www.w3.org/2000/svg"
   xmlns:svg="http://www.w3.org/2000/svg"><defs
     id="defs1" /><g
     id="layer1"
     transform="translate(157.25102,198.81012)"><path
       id="path5"
       style="fill:#ffffff;fill-opacity:1;stroke-width:0.805188;stroke-linecap:round;stroke-linejoin:round"
       d="M -2.0863309 -198.17657 L -10.088943 -183.11289 L -10.930235 -165.68398 L -19.198981 -165.68398 L -11.423229 -155.47426 L -12.166336 -140.07934 C -28.353216 -157.12094 -50.823548 -166.77435 -74.327399 -166.78417 C -103.64471 -166.77397 -130.92652 -151.79225 -146.66717 -127.05894 L -157.25102 -127.05894 L -149.61996 -115.86014 L -157.25102 -26.140039 L -8.5138455 -26.140039 L 15.419061 -26.140039 L 8.0799737 -154.80195 L 15.419061 -165.68398 L 7.4593397 -165.68398 L 6.4490654 -183.39297 L -2.0863309 -198.17657 z M -83.43072 -192.21621 C -85.584619 -189.65499 -86.77489 -186.4211 -86.795372 -183.07465 C -86.842092 -175.15518 -80.459903 -168.69733 -72.540428 -168.65072 C -64.621155 -168.60402 -58.163395 -174.98588 -58.116503 -182.90515 C -58.102813 -186.26049 -59.266203 -189.5144 -61.404157 -192.10045 C -60.83125 -190.6836 -60.536835 -189.16959 -60.537027 -187.64129 C -60.575787 -181.07411 -65.930869 -175.78172 -72.498054 -175.82031 C -79.065241 -175.85911 -84.357627 -181.21415 -84.319038 -187.78134 C -84.309338 -189.30285 -84.007827 -190.80837 -83.43072 -192.21621 z M -114.43503 -119.90383 L -112.39433 -115.65241 C -123.84484 -110.72075 -130.732 -103.12528 -133.05611 -92.865166 C -129.76834 -94.452366 -126.65086 -95.245899 -123.7032 -95.245899 C -118.03462 -95.245899 -113.58471 -93.715477 -110.35362 -90.654448 C -107.06585 -87.593418 -105.42214 -83.455306 -105.42214 -78.240218 C -105.42214 -75.009132 -106.30038 -72.118221 -108.05764 -69.567363 C -109.75821 -67.016505 -112.16739 -65.032415 -115.28511 -63.615271 C -118.34614 -62.198128 -121.86065 -61.489303 -125.82865 -61.489303 C -132.57425 -61.489303 -137.76105 -63.360105 -141.38894 -67.101363 C -144.96014 -70.842622 -146.74572 -76.255999 -146.74572 -83.341716 C -146.74572 -92.241376 -143.99668 -99.808775 -138.49816 -106.04421 C -132.94296 -112.33632 -124.92189 -116.95617 -114.43503 -119.90383 z M -56.615302 -119.64906 C -49.983071 -119.64906 -44.909558 -117.15466 -41.395043 -112.16631 C -37.823841 -107.23465 -36.038264 -100.06428 -36.038264 -90.654448 C -36.038264 -81.244616 -37.823841 -74.017081 -41.395043 -68.97205 C -44.909558 -63.983706 -49.983071 -61.489303 -56.615302 -61.489303 C -63.247533 -61.489303 -68.34911 -63.983706 -71.920311 -68.97205 C -75.491512 -74.017081 -77.277607 -81.244616 -77.277607 -90.654448 C -77.277607 -100.00759 -75.491512 -107.17797 -71.920311 -112.16631 C -68.34911 -117.15466 -63.247533 -119.64906 -56.615302 -119.64906 z M -24.814659 -119.05375 L -20.563239 -118.969 C -14.554551 -118.85563 -11.379904 -118.79847 -11.03979 -118.79847 L 1.0338921 -118.969 L 3.4998915 -117.18306 L 2.7345635 -110.72092 L -18.352521 -110.72092 L -19.54263 -96.521273 C -16.594971 -97.258188 -13.931154 -97.626632 -11.550353 -97.626632 C -5.9384649 -97.626632 -1.3752646 -96.124274 2.139251 -93.11993 C 5.7104523 -90.172272 7.49603 -85.836165 7.49603 -80.110905 C 7.49603 -76.539704 6.6458533 -73.336993 4.9452813 -70.502706 C 3.301395 -67.66842 0.92079699 -65.429173 -2.1969184 -63.785287 C -5.3146339 -62.198086 -8.9990772 -61.404554 -13.250507 -61.404554 C -16.708337 -61.404554 -19.854404 -61.886286 -22.688691 -62.849943 C -25.466292 -63.813601 -27.648894 -65.14551 -29.236095 -66.846082 C -30.823295 -68.60334 -31.616828 -70.559366 -31.616828 -72.713424 C -31.616828 -74.980853 -30.993227 -76.709787 -29.746141 -77.900188 C -28.499055 -79.147274 -26.968634 -79.770358 -25.15469 -79.770358 C -24.134347 -79.770358 -23.114238 -79.572362 -22.093895 -79.175562 C -21.016866 -78.778762 -20.052885 -78.211805 -19.202599 -77.474891 C -19.71277 -76.28449 -19.967927 -75.037289 -19.967927 -73.733517 C -19.967927 -71.862888 -19.42955 -70.332466 -18.352521 -69.142066 C -17.218807 -67.951665 -15.517937 -67.356645 -13.250507 -67.356645 C -8.1487911 -67.356645 -5.5982612 -71.608045 -5.5982612 -80.110905 C -5.5982612 -84.135593 -6.3917939 -87.054567 -7.9789944 -88.86851 C -9.566195 -90.73914 -11.692153 -91.674541 -14.356383 -91.674541 C -16.000269 -91.674541 -17.757267 -91.36274 -19.627896 -90.739197 C -21.498525 -90.115654 -23.340747 -89.236897 -25.15469 -88.103182 L -29.831407 -92.609884 L -27.62069 -116.75776 L -24.814659 -119.05375 z M -56.615302 -115.31237 C -59.506275 -115.31237 -61.603653 -113.41351 -62.907425 -109.61556 C -64.154511 -105.81762 -64.778111 -99.497422 -64.778111 -90.654448 C -64.778111 -81.868159 -64.154511 -75.576025 -62.907425 -71.778081 C -61.603653 -68.036822 -59.506275 -66.16602 -56.615302 -66.16602 C -53.72433 -66.16602 -51.655532 -68.036822 -50.408446 -71.778081 C -49.104674 -75.576025 -48.452493 -81.868159 -48.452493 -90.654448 C -48.452493 -99.440737 -49.104674 -105.73287 -50.408446 -109.53081 C -51.655532 -113.38544 -53.72433 -115.31237 -56.615302 -115.31237 z M -90.456647 -101.28274 C -88.472647 -101.28274 -86.998869 -100.68772 -86.035212 -99.497319 C -85.014869 -98.363604 -84.505073 -96.776539 -84.505073 -94.735852 C -84.505073 -92.695166 -85.014869 -91.107584 -86.035212 -89.973869 C -86.998869 -88.840154 -88.472647 -88.273198 -90.456647 -88.273198 C -92.440648 -88.273198 -93.943006 -88.840154 -94.963349 -89.973869 C -95.927007 -91.16427 -96.408739 -92.751852 -96.408739 -94.735852 C -96.408739 -96.833225 -95.927007 -98.448354 -94.963349 -99.582068 C -93.943006 -100.71578 -92.440648 -101.28274 -90.456647 -101.28274 z M -126.08393 -89.293807 C -128.46473 -89.293807 -131.04384 -88.330343 -133.82144 -86.403028 L -133.82144 -85.297669 C -133.82144 -79.118924 -133.1412 -74.583787 -131.78074 -71.692814 C -130.42028 -68.801842 -128.26626 -67.356645 -125.3186 -67.356645 C -122.88112 -67.356645 -121.01031 -68.291529 -119.70654 -70.162159 C -118.40277 -72.032788 -117.75111 -74.697123 -117.75111 -78.154952 C -117.75111 -81.669468 -118.48799 -84.390447 -119.96182 -86.317762 C -121.37897 -88.301762 -123.4197 -89.293807 -126.08393 -89.293807 z M -90.456647 -74.498845 C -88.472647 -74.498845 -86.998869 -73.903824 -86.035212 -72.713424 C -85.014869 -71.579709 -84.505073 -69.992127 -84.505073 -67.951441 C -84.505073 -65.910754 -85.014869 -64.323689 -86.035212 -63.189974 C -86.998869 -62.05626 -88.472647 -61.489303 -90.456647 -61.489303 C -92.440648 -61.489303 -93.943006 -62.05626 -94.963349 -63.189974 C -95.927007 -64.380375 -96.408739 -65.96744 -96.408739 -67.951441 C -96.408739 -70.048813 -95.927007 -71.664459 -94.963349 -72.798173 C -93.943006 -73.931888 -92.440648 -74.498845 -90.456647 -74.498845 z " /></g></svg>
