<?xml version="1.0" encoding="UTF-8" standalone="no"?>
<!-- Created with Inkscape (http://www.inkscape.org/) -->

<svg
   width="172.6701mm"
   height="172.6701mm"
   viewBox="0 0 172.6701 172.6701"
   version="1.1"
   id="svg1"
   xml:space="preserve"
   xmlns="http://www.w3.org/2000/svg"
   xmlns:svg="http://www.w3.org/2000/svg"><defs
     id="defs1" /><g
     id="layer1"
     transform="translate(157.25102,198.81012)"><path
       id="path5"
       style="fill:#ffffff;fill-opacity:1;stroke-width:0.805188;stroke-linecap:round;stroke-linejoin:round"
       d="M -2.0863309 -198.17657 L -10.088943 -183.11289 L -10.930235 -165.68398 L -19.198981 -165.68398 L -11.423229 -155.47426 L -12.166336 -140.07934 C -28.353216 -157.12094 -50.823548 -166.77435 -74.327399 -166.78417 C -103.64471 -166.77397 -130.92652 -151.79225 -146.66717 -127.05894 L -157.25102 -127.05894 L -149.61996 -115.86014 L -157.25102 -26.140039 L -8.5138455 -26.140039 L 15.419061 -26.140039 L 8.0799737 -154.80195 L 15.419061 -165.68398 L 7.4593397 -165.68398 L 6.4490654 -183.39297 L -2.0863309 -198.17657 z M -83.43072 -192.21621 C -85.584619 -189.65499 -86.77489 -186.4211 -86.795372 -183.07465 C -86.842092 -175.15518 -80.459903 -168.69733 -72.540428 -168.65072 C -64.621155 -168.60402 -58.163395 -174.98588 -58.116503 -182.90515 C -58.102813 -186.26049 -59.266203 -189.5144 -61.404157 -192.10045 C -60.83125 -190.6836 -60.536835 -189.16959 -60.537027 -187.64129 C -60.575787 -181.07411 -65.930869 -175.78172 -72.498054 -175.82031 C -79.065241 -175.85911 -84.357627 -181.21415 -84.319038 -187.78134 C -84.309338 -189.30285 -84.007827 -190.80837 -83.43072 -192.21621 z M -14.483507 -119.81908 C -8.5315048 -119.81908 -3.7983725 -118.54381 -0.28385691 -115.99295 C 3.2306587 -113.44209 4.9876559 -110.01229 4.9876559 -105.70418 C 4.9876559 -103.38006 4.1374793 -101.05611 2.4369072 -98.731991 C 0.73633519 -96.407876 -1.5029112 -94.50901 -4.2805122 -93.035181 C -0.76599661 -91.334609 1.9835624 -89.350519 3.9675632 -87.08309 C 6.0082496 -84.81566 7.0283583 -81.896169 7.0283583 -78.324968 C 7.0283583 -73.166566 5.158073 -69.057034 1.4168145 -65.996005 C -2.324444 -62.991661 -7.3698935 -61.489303 -13.718696 -61.489303 C -20.691041 -61.489303 -26.075838 -62.878373 -29.873782 -65.655974 C -33.615041 -68.433575 -35.485843 -72.401238 -35.485843 -77.55964 C -35.485843 -80.223869 -34.635666 -82.86014 -32.935094 -85.467684 C -31.234522 -88.131914 -28.853407 -90.483931 -25.792377 -92.524618 C -28.343235 -93.941761 -30.327326 -95.642631 -31.744469 -97.626632 C -33.161612 -99.610633 -33.870437 -102.07646 -33.870437 -105.02411 C -33.870437 -109.55897 -32.112923 -113.15871 -28.598408 -115.82294 C -25.083892 -118.48717 -20.378823 -119.81908 -14.483507 -119.81908 z M -127.48695 -119.73381 C -123.80237 -119.73381 -120.5425 -119.11073 -117.70821 -117.86364 C -114.87393 -116.67324 -112.66326 -114.97237 -111.07606 -112.76163 C -109.48886 -110.60757 -108.69533 -108.11368 -108.69533 -105.27939 C -108.69533 -102.10499 -109.63073 -99.384015 -111.50136 -97.116586 C -113.37199 -94.849156 -116.14961 -93.120223 -119.83418 -91.929822 C -115.18595 -90.909479 -111.9266 -89.237189 -110.05597 -86.913074 C -108.18534 -84.588959 -107.24994 -81.442892 -107.24994 -77.474891 C -107.24994 -74.017061 -108.29863 -71.069506 -110.396 -68.632019 C -112.43669 -66.194533 -115.10102 -64.380375 -118.38879 -63.189974 C -121.67657 -61.999574 -125.07779 -61.404554 -128.5923 -61.404554 C -133.69402 -61.404554 -138.03013 -62.453243 -141.60133 -64.550615 C -145.11584 -66.647987 -146.87336 -69.510317 -146.87336 -73.138204 C -146.87336 -75.235577 -146.24976 -76.851222 -145.00267 -77.984937 C -143.75559 -79.175337 -142.19658 -79.770358 -140.32595 -79.770358 C -138.39864 -79.770358 -136.44313 -79.005405 -134.45913 -77.474891 C -134.9693 -76.397862 -135.22446 -75.094016 -135.22446 -73.563501 C -135.22446 -71.749558 -134.68556 -70.275781 -133.60854 -69.142066 C -132.47482 -68.008351 -130.80305 -67.441394 -128.5923 -67.441394 C -123.71733 -67.441394 -121.27957 -70.814037 -121.27957 -77.55964 C -121.27957 -81.244213 -122.47013 -84.10706 -124.85093 -86.147746 C -127.17505 -88.188433 -130.49104 -89.208541 -134.79916 -89.208541 L -134.79916 -94.480571 C -126.46636 -95.1608 -122.30018 -98.760535 -122.30018 -105.27939 C -122.30018 -108.56717 -122.80998 -110.97583 -123.83032 -112.50634 C -124.85066 -114.09354 -126.23973 -114.88759 -127.99699 -114.88759 C -130.09436 -114.88759 -131.68143 -114.15071 -132.75846 -112.67688 C -133.7788 -111.20305 -134.28911 -109.41747 -134.28911 -107.3201 C -134.28911 -105.44947 -133.89209 -103.77718 -133.09849 -102.30335 C -134.68569 -100.60278 -136.72642 -99.752084 -139.2206 -99.752084 C -141.48803 -99.752084 -143.24554 -100.43233 -144.49263 -101.79279 C -145.73971 -103.15324 -146.36331 -104.91076 -146.36331 -107.06482 C -146.36331 -109.8991 -145.39933 -112.25164 -143.47202 -114.12227 C -141.48802 -116.04958 -139.05077 -117.46671 -136.1598 -118.37369 C -133.21214 -119.28066 -130.32123 -119.73381 -127.48695 -119.73381 z M -60.484317 -119.73381 C -56.799744 -119.73381 -53.540389 -119.11073 -50.706102 -117.86364 C -47.871815 -116.67324 -45.660633 -114.97237 -44.073432 -112.76163 C -42.486232 -110.60757 -41.692699 -108.11368 -41.692699 -105.27939 C -41.692699 -102.10499 -42.6281 -99.384015 -44.498729 -97.116586 C -46.369358 -94.849156 -49.146981 -93.120223 -52.831554 -91.929822 C -48.183324 -90.909479 -44.923969 -89.237189 -43.053339 -86.913074 C -41.18271 -84.588959 -40.247309 -81.442892 -40.247309 -77.474891 C -40.247309 -74.017061 -41.295998 -71.069506 -43.39337 -68.632019 C -45.434057 -66.194533 -48.098391 -64.380375 -51.386164 -63.189974 C -54.673937 -61.999574 -58.07516 -61.404554 -61.589676 -61.404554 C -66.691392 -61.404554 -71.027499 -62.453243 -74.598701 -64.550615 C -78.113216 -66.647987 -79.87073 -69.510317 -79.87073 -73.138204 C -79.87073 -75.235577 -79.24713 -76.851222 -78.000043 -77.984937 C -76.752957 -79.175337 -75.193956 -79.770358 -73.323326 -79.770358 C -71.396011 -79.770358 -69.440502 -79.005405 -67.456501 -77.474891 C -67.966673 -76.397862 -68.221829 -75.094016 -68.221829 -73.563501 C -68.221829 -71.749558 -67.683453 -70.275781 -66.606424 -69.142066 C -65.472709 -68.008351 -63.800419 -67.441394 -61.589676 -67.441394 C -56.714702 -67.441394 -54.276944 -70.814037 -54.276944 -77.55964 C -54.276944 -81.244213 -55.467501 -84.10706 -57.848302 -86.147746 C -60.172417 -88.188433 -63.488416 -89.208541 -67.796532 -89.208541 L -67.796532 -94.480571 C -59.463729 -95.1608 -55.297553 -98.760535 -55.297553 -105.27939 C -55.297553 -108.56717 -55.807349 -110.97583 -56.827692 -112.50634 C -57.848036 -114.09354 -59.237105 -114.88759 -60.994363 -114.88759 C -63.091735 -114.88759 -64.678801 -114.15071 -65.75583 -112.67688 C -66.776173 -111.20305 -67.286485 -109.41747 -67.286485 -107.3201 C -67.286485 -105.44947 -66.889461 -103.77718 -66.09586 -102.30335 C -67.683061 -100.60278 -69.723795 -99.752084 -72.217967 -99.752084 C -74.485397 -99.752084 -76.242911 -100.43233 -77.489997 -101.79279 C -78.737083 -103.15324 -79.360684 -104.91076 -79.360684 -107.06482 C -79.360684 -109.8991 -78.396703 -112.25164 -76.469388 -114.12227 C -74.485387 -116.04958 -72.048145 -117.46671 -69.157172 -118.37369 C -66.209514 -119.28066 -63.318603 -119.73381 -60.484317 -119.73381 z M -14.483507 -113.78224 C -16.750936 -113.78224 -18.536514 -113.04535 -19.840286 -111.57152 C -21.144058 -110.15437 -21.796239 -108.22693 -21.796239 -105.78944 C -21.796239 -103.63538 -20.974126 -101.84981 -19.33024 -100.43266 C -17.629668 -99.072205 -15.163845 -97.711715 -11.932758 -96.351258 C -10.515615 -97.314915 -9.3822183 -98.646824 -8.5319323 -100.3474 C -7.6816462 -102.04797 -7.2565579 -103.86213 -7.2565579 -105.78944 C -7.2565579 -108.22693 -7.9362858 -110.15437 -9.2967435 -111.57152 C -10.600515 -113.04535 -12.329449 -113.78224 -14.483507 -113.78224 z M -92.199694 -101.28274 C -90.215693 -101.28274 -88.741915 -100.68772 -87.778258 -99.497319 C -86.757915 -98.363604 -86.248119 -96.776539 -86.248119 -94.735852 C -86.248119 -92.695166 -86.757915 -91.107584 -87.778258 -89.973869 C -88.741915 -88.840154 -90.215693 -88.273198 -92.199694 -88.273198 C -94.183694 -88.273198 -95.686052 -88.840154 -96.706395 -89.973869 C -97.670053 -91.16427 -98.151785 -92.751852 -98.151785 -94.735852 C -98.151785 -96.833225 -97.670053 -98.448354 -96.706395 -99.582068 C -95.686052 -100.71578 -94.183694 -101.28274 -92.199694 -101.28274 z M -17.970116 -89.038526 C -19.670688 -87.678068 -20.917373 -86.119583 -21.710973 -84.362325 C -22.504573 -82.605068 -22.901598 -80.50769 -22.901598 -78.070203 C -22.901598 -74.725745 -22.079485 -72.089474 -20.435598 -70.162159 C -18.791712 -68.291529 -16.552983 -67.356645 -13.718696 -67.356645 C -10.941095 -67.356645 -8.7870728 -68.291529 -7.2565579 -70.162159 C -5.6693573 -72.032788 -4.8753079 -74.640479 -4.8753079 -77.984937 C -4.8753079 -79.855566 -5.470845 -81.442631 -6.6612454 -82.746403 C -7.7949601 -84.106861 -9.2401571 -85.212194 -10.997415 -86.06248 C -12.754673 -86.969452 -15.079143 -87.961497 -17.970116 -89.038526 z M -92.199694 -74.498845 C -90.215693 -74.498845 -88.741915 -73.903824 -87.778258 -72.713424 C -86.757915 -71.579709 -86.248119 -69.992127 -86.248119 -67.951441 C -86.248119 -65.910754 -86.757915 -64.323689 -87.778258 -63.189974 C -88.741915 -62.05626 -90.215693 -61.489303 -92.199694 -61.489303 C -94.183694 -61.489303 -95.686052 -62.05626 -96.706395 -63.189974 C -97.670053 -64.380375 -98.151785 -65.96744 -98.151785 -67.951441 C -98.151785 -70.048813 -97.670053 -71.664459 -96.706395 -72.798173 C -95.686052 -73.931888 -94.183694 -74.498845 -92.199694 -74.498845 z " /></g></svg>
