<?xml version="1.0" encoding="UTF-8" standalone="no"?>
<!-- Created with Inkscape (http://www.inkscape.org/) -->

<svg
   width="172.6701mm"
   height="172.6701mm"
   viewBox="0 0 172.6701 172.6701"
   version="1.1"
   id="svg1"
   xml:space="preserve"
   xmlns="http://www.w3.org/2000/svg"
   xmlns:svg="http://www.w3.org/2000/svg"><defs
     id="defs1" /><g
     id="layer1"
     transform="translate(157.25102,198.81012)"><path
       id="path5"
       style="fill:#ffffff;fill-opacity:1;stroke-width:0.805188;stroke-linecap:round;stroke-linejoin:round"
       d="M -2.0863309 -198.17657 L -10.088943 -183.11289 L -10.930235 -165.68398 L -19.198981 -165.68398 L -11.423229 -155.47426 L -12.166336 -140.07934 C -28.353216 -157.12094 -50.823548 -166.77435 -74.327399 -166.78417 C -103.64471 -166.77397 -130.92652 -151.79225 -146.66717 -127.05894 L -157.25102 -127.05894 L -149.61996 -115.86014 L -157.25102 -26.140039 L -8.5138455 -26.140039 L 15.419061 -26.140039 L 8.0799737 -154.80195 L 15.419061 -165.68398 L 7.4593397 -165.68398 L 6.4490654 -183.39297 L -2.0863309 -198.17657 z M -83.43072 -192.21621 C -85.584619 -189.65499 -86.77489 -186.4211 -86.795372 -183.07465 C -86.842092 -175.15518 -80.459903 -168.69733 -72.540428 -168.65072 C -64.621155 -168.60402 -58.163395 -174.98588 -58.116503 -182.90515 C -58.102813 -186.26049 -59.266203 -189.5144 -61.404157 -192.10045 C -60.83125 -190.6836 -60.536835 -189.16959 -60.537027 -187.64129 C -60.575787 -181.07411 -65.930869 -175.78172 -72.498054 -175.82031 C -79.065241 -175.85911 -84.357627 -181.21415 -84.319038 -187.78134 C -84.309338 -189.30285 -84.007827 -190.80837 -83.43072 -192.21621 z M -126.50871 -119.73381 C -122.82414 -119.73381 -119.56478 -119.11073 -116.7305 -117.86364 C -113.89621 -116.67324 -111.68554 -114.97237 -110.09834 -112.76163 C -108.51114 -110.60757 -107.71761 -108.11368 -107.71761 -105.27939 C -107.71761 -102.10499 -108.65301 -99.384015 -110.52364 -97.116586 C -112.39427 -94.849156 -115.17189 -93.120223 -118.85646 -91.929822 C -114.20823 -90.909479 -110.94888 -89.237189 -109.07825 -86.913074 C -107.20762 -84.588959 -106.27222 -81.442892 -106.27222 -77.474891 C -106.27222 -74.017061 -107.32091 -71.069506 -109.41828 -68.632019 C -111.45897 -66.194533 -114.1233 -64.380375 -117.41107 -63.189974 C -120.69885 -61.999574 -124.09955 -61.404554 -127.61407 -61.404554 C -132.71579 -61.404554 -137.05241 -62.453243 -140.62361 -64.550615 C -144.13813 -66.647987 -145.89564 -69.510317 -145.89564 -73.138204 C -145.89564 -75.235577 -145.27204 -76.851222 -144.02495 -77.984937 C -142.77787 -79.175337 -141.21887 -79.770358 -139.34824 -79.770358 C -137.42092 -79.770358 -135.46541 -79.005405 -133.48141 -77.474891 C -133.99158 -76.397862 -134.24674 -75.094016 -134.24674 -73.563501 C -134.24674 -71.749558 -133.70785 -70.275781 -132.63082 -69.142066 C -131.4971 -68.008351 -129.82481 -67.441394 -127.61407 -67.441394 C -122.7391 -67.441394 -120.30185 -70.814037 -120.30185 -77.55964 C -120.30185 -81.244213 -121.49241 -84.10706 -123.87321 -86.147746 C -126.19733 -88.188433 -129.51333 -89.208541 -133.82144 -89.208541 L -133.82144 -94.480571 C -125.48864 -95.1608 -121.32195 -98.760535 -121.32195 -105.27939 C -121.32195 -108.56717 -121.83226 -110.97583 -122.8526 -112.50634 C -123.87295 -114.09354 -125.26202 -114.88759 -127.01927 -114.88759 C -129.11665 -114.88759 -130.70371 -114.15071 -131.78074 -112.67688 C -132.80108 -111.20305 -133.3114 -109.41747 -133.3114 -107.3201 C -133.3114 -105.44947 -132.91437 -103.77718 -132.12077 -102.30335 C -133.70797 -100.60278 -135.74871 -99.752084 -138.24288 -99.752084 C -140.51031 -99.752084 -142.2673 -100.43233 -143.51439 -101.79279 C -144.76148 -103.15324 -145.38508 -104.91076 -145.38508 -107.06482 C -145.38508 -109.8991 -144.42161 -112.25164 -142.4943 -114.12227 C -140.5103 -116.04958 -138.07306 -117.46671 -135.18208 -118.37369 C -132.23442 -119.28066 -129.343 -119.73381 -126.50871 -119.73381 z M -59.506599 -119.73381 C -55.822026 -119.73381 -52.562154 -119.11073 -49.727867 -117.86364 C -46.893581 -116.67324 -44.682915 -114.97237 -43.095714 -112.76163 C -41.508513 -110.60757 -40.714981 -108.11368 -40.714981 -105.27939 C -40.714981 -102.10499 -41.650382 -99.384015 -43.521011 -97.116586 C -45.39164 -94.849156 -48.169263 -93.120223 -51.853836 -91.929822 C -47.205605 -90.909479 -43.94625 -89.237189 -42.075621 -86.913074 C -40.204992 -84.588959 -39.269591 -81.442892 -39.269591 -77.474891 C -39.269591 -74.017061 -40.31828 -71.069506 -42.415652 -68.632019 C -44.456339 -66.194533 -47.120673 -64.380375 -50.408446 -63.189974 C -53.696219 -61.999574 -57.097442 -61.404554 -60.611958 -61.404554 C -65.713674 -61.404554 -70.049781 -62.453243 -73.620983 -64.550615 C -77.135498 -66.647987 -78.893012 -69.510317 -78.893012 -73.138204 C -78.893012 -75.235577 -78.269412 -76.851222 -77.022325 -77.984937 C -75.775239 -79.175337 -74.216237 -79.770358 -72.345608 -79.770358 C -70.418293 -79.770358 -68.462784 -79.005405 -66.478783 -77.474891 C -66.988954 -76.397862 -67.244111 -75.094016 -67.244111 -73.563501 C -67.244111 -71.749558 -66.705218 -70.275781 -65.628189 -69.142066 C -64.494474 -68.008351 -62.822701 -67.441394 -60.611958 -67.441394 C -55.736984 -67.441394 -53.299226 -70.814037 -53.299226 -77.55964 C -53.299226 -81.244213 -54.489783 -84.10706 -56.870584 -86.147746 C -59.194699 -88.188433 -62.510698 -89.208541 -66.818814 -89.208541 L -66.818814 -94.480571 C -58.486011 -95.1608 -54.319835 -98.760535 -54.319835 -105.27939 C -54.319835 -108.56717 -54.829631 -110.97583 -55.849974 -112.50634 C -56.870317 -114.09354 -58.259387 -114.88759 -60.016645 -114.88759 C -62.114017 -114.88759 -63.701083 -114.15071 -64.778111 -112.67688 C -65.798455 -111.20305 -66.308767 -109.41747 -66.308767 -107.3201 C -66.308767 -105.44947 -65.911743 -103.77718 -65.118142 -102.30335 C -66.705343 -100.60278 -68.746077 -99.752084 -71.240249 -99.752084 C -73.507679 -99.752084 -75.265193 -100.43233 -76.512279 -101.79279 C -77.759365 -103.15324 -78.382966 -104.91076 -78.382966 -107.06482 C -78.382966 -109.8991 -77.418984 -112.25164 -75.491669 -114.12227 C -73.507669 -116.04958 -71.070427 -117.46671 -68.179454 -118.37369 C -65.231796 -119.28066 -62.340885 -119.73381 -59.506599 -119.73381 z M -14.186367 -119.64906 C -7.5541365 -119.64906 -2.4806235 -117.15466 1.0338921 -112.16631 C 4.6050934 -107.23465 6.3906711 -100.06428 6.3906711 -90.654448 C 6.3906711 -81.244616 4.6050934 -74.017081 1.0338921 -68.97205 C -2.4806235 -63.983706 -7.5541365 -61.489303 -14.186367 -61.489303 C -20.818598 -61.489303 -25.920175 -63.983706 -29.491376 -68.97205 C -33.062578 -74.017081 -34.848155 -81.244616 -34.848155 -90.654448 C -34.848155 -100.00759 -33.062578 -107.17797 -29.491376 -112.16631 C -25.920175 -117.15466 -20.818598 -119.64906 -14.186367 -119.64906 z M -14.186367 -115.31237 C -17.07734 -115.31237 -19.174718 -113.41351 -20.47849 -109.61556 C -21.725576 -105.81762 -22.349177 -99.497422 -22.349177 -90.654448 C -22.349177 -81.868159 -21.725576 -75.576025 -20.47849 -71.778081 C -19.174718 -68.036822 -17.07734 -66.16602 -14.186367 -66.16602 C -11.295395 -66.16602 -9.2260806 -68.036822 -7.9789944 -71.778081 C -6.6752225 -75.576025 -6.0235582 -81.868159 -6.0235582 -90.654448 C -6.0235582 -99.440737 -6.6752225 -105.73287 -7.9789944 -109.53081 C -9.2260806 -113.38544 -11.295395 -115.31237 -14.186367 -115.31237 z M -91.221975 -101.28274 C -89.237975 -101.28274 -87.764197 -100.68772 -86.80054 -99.497319 C -85.780197 -98.363604 -85.269884 -96.776539 -85.269884 -94.735852 C -85.269884 -92.695166 -85.780197 -91.107584 -86.80054 -89.973869 C -87.764197 -88.840154 -89.237975 -88.273198 -91.221975 -88.273198 C -93.205976 -88.273198 -94.708334 -88.840154 -95.728677 -89.973869 C -96.692335 -91.16427 -97.174067 -92.751852 -97.174067 -94.735852 C -97.174067 -96.833225 -96.692335 -98.448354 -95.728677 -99.582068 C -94.708334 -100.71578 -93.205976 -101.28274 -91.221975 -101.28274 z M -91.221975 -74.498845 C -89.237975 -74.498845 -87.764197 -73.903824 -86.80054 -72.713424 C -85.780197 -71.579709 -85.269884 -69.992127 -85.269884 -67.951441 C -85.269884 -65.910754 -85.780197 -64.323689 -86.80054 -63.189974 C -87.764197 -62.05626 -89.237975 -61.489303 -91.221975 -61.489303 C -93.205976 -61.489303 -94.708334 -62.05626 -95.728677 -63.189974 C -96.692335 -64.380375 -97.174067 -65.96744 -97.174067 -67.951441 C -97.174067 -70.048813 -96.692335 -71.664459 -95.728677 -72.798173 C -94.708334 -73.931888 -93.205976 -74.498845 -91.221975 -74.498845 z " /></g></svg>
