<?xml version="1.0" encoding="UTF-8" standalone="no"?>
<!-- Created with Inkscape (http://www.inkscape.org/) -->

<svg
   width="172.6701mm"
   height="172.6701mm"
   viewBox="0 0 172.6701 172.6701"
   version="1.1"
   id="svg1"
   xml:space="preserve"
   xmlns="http://www.w3.org/2000/svg"
   xmlns:svg="http://www.w3.org/2000/svg"><defs
     id="defs1" /><g
     id="layer1"
     transform="translate(157.25102,198.81012)"><path
       id="path5"
       style="fill:#ffffff;fill-opacity:1;stroke-width:0.805188;stroke-linecap:round;stroke-linejoin:round"
       d="M -2.0863309 -198.17657 L -10.088943 -183.11289 L -10.930235 -165.68398 L -19.198981 -165.68398 L -11.423229 -155.47426 L -12.166336 -140.07934 C -28.353216 -157.12094 -50.823548 -166.77435 -74.327399 -166.78417 C -103.64471 -166.77397 -130.92652 -151.79225 -146.66717 -127.05894 L -157.25102 -127.05894 L -149.61996 -115.86014 L -157.25102 -26.140039 L -8.5138455 -26.140039 L 15.419061 -26.140039 L 8.0799737 -154.80195 L 15.419061 -165.68398 L 7.4593397 -165.68398 L 6.4490654 -183.39297 L -2.0863309 -198.17657 z M -83.43072 -192.21621 C -85.584619 -189.65499 -86.77489 -186.4211 -86.795372 -183.07465 C -86.842092 -175.15518 -80.459903 -168.69733 -72.540428 -168.65072 C -64.621155 -168.60402 -58.163395 -174.98588 -58.116503 -182.90515 C -58.102813 -186.26049 -59.266203 -189.5144 -61.404157 -192.10045 C -60.83125 -190.6836 -60.536835 -189.16959 -60.537027 -187.64129 C -60.575787 -181.07411 -65.930869 -175.78172 -72.498054 -175.82031 C -79.065241 -175.85911 -84.357627 -181.21415 -84.319038 -187.78134 C -84.309338 -189.30285 -84.007827 -190.80837 -83.43072 -192.21621 z M -113.32967 -119.90383 L -111.28897 -115.65241 C -122.73949 -110.72075 -129.62664 -103.12528 -131.95076 -92.865166 C -128.66298 -94.452366 -125.5455 -95.245899 -122.59784 -95.245899 C -116.92926 -95.245899 -112.47935 -93.715477 -109.24827 -90.654448 C -105.96049 -87.593418 -104.31627 -83.455306 -104.31627 -78.240218 C -104.31627 -75.009132 -105.19502 -72.118221 -106.95228 -69.567363 C -108.65285 -67.016505 -111.06203 -65.032415 -114.17975 -63.615271 C -117.24078 -62.198128 -120.75529 -61.489303 -124.72329 -61.489303 C -131.46889 -61.489303 -136.65569 -63.360105 -140.28358 -67.101363 C -143.85478 -70.842622 -145.64036 -76.255999 -145.64036 -83.341716 C -145.64036 -92.241376 -142.89132 -99.808775 -137.3928 -106.04421 C -131.8376 -112.33632 -123.81653 -116.95617 -113.32967 -119.90383 z M -57.295364 -119.73381 C -51.456733 -119.73381 -46.808825 -118.28861 -43.350996 -115.39764 C -39.893166 -112.56335 -38.164232 -108.56711 -38.164232 -103.40871 C -38.164232 -98.873849 -39.893166 -94.026912 -43.350996 -88.86851 C -46.808825 -83.766794 -52.505422 -77.616529 -60.441425 -70.41744 L -37.56892 -70.41744 L -37.56892 -62.084615 L -76.086982 -62.084615 L -76.086982 -67.016097 C -69.794865 -73.081471 -64.891284 -78.268272 -61.376769 -82.576388 C -57.862253 -86.884504 -55.339787 -90.852684 -53.809272 -94.480571 C -52.222071 -98.108458 -51.428539 -101.84955 -51.428539 -105.70418 C -51.428539 -111.82623 -53.469273 -114.88759 -57.550646 -114.88759 C -59.364589 -114.88759 -60.838366 -114.0369 -61.972081 -112.33633 C -63.105796 -110.69244 -63.672753 -108.65171 -63.672753 -106.21422 C -63.672753 -104.51365 -63.077732 -102.89852 -61.887332 -101.36801 C -62.850989 -100.46103 -63.956322 -99.752209 -65.203409 -99.242037 C -66.393809 -98.731866 -67.58385 -98.476709 -68.77425 -98.476709 C -70.814936 -98.476709 -72.515806 -99.10031 -73.876264 -100.3474 C -75.236722 -101.65117 -75.916966 -103.52197 -75.916966 -105.95946 C -75.916966 -108.567 -75.151497 -110.91953 -73.620983 -113.01691 C -72.090468 -115.11428 -69.936446 -116.75799 -67.158845 -117.94839 C -64.324558 -119.13879 -61.036623 -119.73381 -57.295364 -119.73381 z M -25.920018 -119.05375 L -21.668598 -118.969 C -15.65991 -118.85563 -12.48578 -118.79847 -12.145665 -118.79847 L -0.071466777 -118.969 L 2.3945326 -117.18306 L 1.6292046 -110.72092 L -19.45788 -110.72092 L -20.648505 -96.521273 C -17.700847 -97.258188 -15.036512 -97.626632 -12.655712 -97.626632 C -7.0438238 -97.626632 -2.4806235 -96.124274 1.0338921 -93.11993 C 4.6050934 -90.172272 6.3906711 -85.836165 6.3906711 -80.110905 C 6.3906711 -76.539704 5.5404944 -73.336993 3.8399224 -70.502706 C 2.1960361 -67.66842 -0.1845619 -65.429173 -3.3022773 -63.785287 C -6.4199928 -62.198086 -10.104953 -61.404554 -14.356383 -61.404554 C -17.814213 -61.404554 -20.96028 -61.886286 -23.794567 -62.849943 C -26.572168 -63.813601 -28.754253 -65.14551 -30.341454 -66.846082 C -31.928654 -68.60334 -32.722187 -70.559366 -32.722187 -72.713424 C -32.722187 -74.980853 -32.098586 -76.709787 -30.8515 -77.900188 C -29.604414 -79.147274 -28.073993 -79.770358 -26.260049 -79.770358 C -25.239706 -79.770358 -24.219597 -79.572362 -23.199254 -79.175562 C -22.122225 -78.778762 -21.158244 -78.211805 -20.307958 -77.474891 C -20.818129 -76.28449 -21.073286 -75.037289 -21.073286 -73.733517 C -21.073286 -71.862888 -20.534909 -70.332466 -19.45788 -69.142066 C -18.324166 -67.951665 -16.623812 -67.356645 -14.356383 -67.356645 C -9.2546668 -67.356645 -6.7036201 -71.608045 -6.7036201 -80.110905 C -6.7036201 -84.135593 -7.4971528 -87.054567 -9.0843533 -88.86851 C -10.671554 -90.73914 -12.797512 -91.674541 -15.461742 -91.674541 C -17.105628 -91.674541 -18.862625 -91.36274 -20.733255 -90.739197 C -22.603884 -90.115654 -24.446106 -89.236897 -26.260049 -88.103182 L -30.936766 -92.609884 L -28.726048 -116.75776 L -25.920018 -119.05375 z M -89.351289 -101.28274 C -87.367288 -101.28274 -85.893511 -100.68772 -84.929853 -99.497319 C -83.90951 -98.363604 -83.399197 -96.776539 -83.399197 -94.735852 C -83.399197 -92.695166 -83.90951 -91.107584 -84.929853 -89.973869 C -85.893511 -88.840154 -87.367288 -88.273198 -89.351289 -88.273198 C -91.335289 -88.273198 -92.837647 -88.840154 -93.85799 -89.973869 C -94.821648 -91.16427 -95.30338 -92.751852 -95.30338 -94.735852 C -95.30338 -96.833225 -94.821648 -98.448354 -93.85799 -99.582068 C -92.837647 -100.71578 -91.335289 -101.28274 -89.351289 -101.28274 z M -124.97857 -89.293807 C -127.35937 -89.293807 -129.93848 -88.330343 -132.71608 -86.403028 L -132.71608 -85.297669 C -132.71608 -79.118924 -132.03584 -74.583787 -130.67538 -71.692814 C -129.31492 -68.801842 -127.1609 -67.356645 -124.21324 -67.356645 C -121.77576 -67.356645 -119.90495 -68.291529 -118.60118 -70.162159 C -117.29741 -72.032788 -116.64575 -74.697123 -116.64575 -78.154952 C -116.64575 -81.669468 -117.38264 -84.390447 -118.85646 -86.317762 C -120.27361 -88.301762 -122.31434 -89.293807 -124.97857 -89.293807 z M -89.351289 -74.498845 C -87.367288 -74.498845 -85.893511 -73.903824 -84.929853 -72.713424 C -83.90951 -71.579709 -83.399197 -69.992127 -83.399197 -67.951441 C -83.399197 -65.910754 -83.90951 -64.323689 -84.929853 -63.189974 C -85.893511 -62.05626 -87.367288 -61.489303 -89.351289 -61.489303 C -91.335289 -61.489303 -92.837647 -62.05626 -93.85799 -63.189974 C -94.821648 -64.380375 -95.30338 -65.96744 -95.30338 -67.951441 C -95.30338 -70.048813 -94.821648 -71.664459 -93.85799 -72.798173 C -92.837647 -73.931888 -91.335289 -74.498845 -89.351289 -74.498845 z " /></g></svg>
