<?xml version="1.0" encoding="UTF-8" standalone="no"?>
<!-- Created with Inkscape (http://www.inkscape.org/) -->

<svg
   width="172.6701mm"
   height="172.6701mm"
   viewBox="0 0 172.6701 172.6701"
   version="1.1"
   id="svg1"
   xml:space="preserve"
   xmlns="http://www.w3.org/2000/svg"
   xmlns:svg="http://www.w3.org/2000/svg"><defs
     id="defs1" /><g
     id="layer1"
     transform="translate(157.25102,198.81012)"><path
       id="path5"
       style="fill:#ffffff;fill-opacity:1;stroke-width:0.805188;stroke-linecap:round;stroke-linejoin:round"
       d="M -2.0863309 -198.17657 L -10.088943 -183.11289 L -10.930235 -165.68398 L -19.198981 -165.68398 L -11.423229 -155.47426 L -12.166336 -140.07934 C -28.353216 -157.12094 -50.823548 -166.77435 -74.327399 -166.78417 C -103.64471 -166.77397 -130.92652 -151.79225 -146.66717 -127.05894 L -157.25102 -127.05894 L -149.61996 -115.86014 L -157.25102 -26.140039 L -8.5138455 -26.140039 L 15.419061 -26.140039 L 8.0799737 -154.80195 L 15.419061 -165.68398 L 7.4593397 -165.68398 L 6.4490654 -183.39297 L -2.0863309 -198.17657 z M -83.43072 -192.21621 C -85.584619 -189.65499 -86.77489 -186.4211 -86.795372 -183.07465 C -86.842092 -175.15518 -80.459903 -168.69733 -72.540428 -168.65072 C -64.621155 -168.60402 -58.163395 -174.98588 -58.116503 -182.90515 C -58.102813 -186.26049 -59.266203 -189.5144 -61.404157 -192.10045 C -60.83125 -190.6836 -60.536835 -189.16959 -60.537027 -187.64129 C -60.575787 -181.07411 -65.930869 -175.78172 -72.498054 -175.82031 C -79.065241 -175.85911 -84.357627 -181.21415 -84.319038 -187.78134 C -84.309338 -189.30285 -84.007827 -190.80837 -83.43072 -192.21621 z M -55.236058 -131.80491 L -47.841161 -131.65711 C -37.389561 -131.45991 -31.86788 -131.36101 -31.27628 -131.36101 L -10.274462 -131.65711 L -5.9853177 -128.55136 L -7.3165026 -117.3107 L -43.995401 -117.3107 L -46.066075 -92.611434 C -40.938876 -93.893234 -36.304765 -94.534314 -32.163565 -94.534314 C -22.402165 -94.534314 -14.464781 -91.921316 -8.3515815 -86.695516 C -2.1397818 -81.568317 0.96619598 -74.025523 0.96619598 -64.066923 C 0.96619598 -57.855124 -0.51325938 -52.284248 -3.4712593 -47.354248 C -6.3306591 -42.424249 -10.471791 -38.52909 -15.89479 -35.66969 C -21.31779 -32.90889 -27.726524 -31.528858 -35.121524 -31.528858 C -41.136123 -31.528858 -46.60861 -32.366716 -51.53861 -34.042916 C -56.370009 -35.719116 -60.166262 -38.03643 -62.927062 -40.99443 C -65.687862 -44.05103 -67.067894 -47.452692 -67.067894 -51.199492 C -67.067894 -55.143492 -65.983546 -58.150563 -63.814346 -60.221163 C -61.645146 -62.390363 -58.982953 -63.475228 -55.827753 -63.475228 C -54.052953 -63.475228 -52.277814 -63.129833 -50.503014 -62.439633 C -48.629614 -61.749433 -46.953897 -60.763473 -45.474897 -59.481674 C -46.362297 -57.411074 -46.805565 -55.24186 -46.805565 -52.97406 C -46.805565 -49.720261 -45.868801 -47.058068 -43.995401 -44.987468 C -42.023401 -42.916868 -39.065524 -41.881714 -35.121524 -41.881714 C -26.247524 -41.881714 -21.810708 -49.276924 -21.810708 -64.066923 C -21.810708 -71.067523 -23.191258 -76.145419 -25.952058 -79.300619 C -28.712857 -82.554419 -32.410204 -84.180941 -37.044404 -84.180941 C -39.903804 -84.180941 -42.960587 -83.638767 -46.214387 -82.554167 C -49.468187 -81.469567 -52.672554 -79.941434 -55.827753 -77.969434 L -63.962141 -85.808232 L -60.116897 -127.81187 L -55.236058 -131.80491 z M -140.13062 -131.50932 L -132.88352 -131.50932 C -129.13672 -131.41072 -120.95284 -131.36101 -108.33204 -131.36101 C -95.218243 -131.36101 -86.68949 -131.41072 -82.74549 -131.50932 L -75.646182 -131.50932 L -72.688223 -125.1495 C -74.561623 -122.1915 -78.111386 -115.78225 -83.337185 -105.92225 C -88.562985 -96.06225 -93.49278 -85.610774 -98.12698 -74.567574 C -102.76118 -63.524375 -105.07849 -54.896716 -105.07849 -48.684917 C -105.07849 -43.754917 -103.35255 -40.05757 -99.901549 -37.59257 C -103.25395 -33.549971 -107.54318 -31.528858 -112.76898 -31.528858 C -117.60038 -31.528858 -121.34744 -32.859696 -124.00964 -35.521896 C -126.67184 -38.184096 -128.00268 -41.881959 -128.00268 -46.614759 C -128.00268 -52.530758 -126.57293 -58.791392 -123.71353 -65.397592 C -120.85413 -72.102391 -115.72704 -81.173835 -108.33204 -92.611434 L -90.879877 -119.52917 L -124.60082 -119.52917 C -125.98122 -115.09217 -126.81959 -109.86669 -127.11539 -103.85209 C -128.89019 -103.55629 -130.71453 -103.40819 -132.58793 -103.40819 C -134.55993 -103.40819 -136.48213 -103.55629 -138.35553 -103.85209 L -142.49688 -129.29085 L -140.13062 -131.50932 z " /></g></svg>
