<?xml version="1.0" encoding="UTF-8" standalone="no"?>
<!-- Created with Inkscape (http://www.inkscape.org/) -->

<svg
   width="172.6701mm"
   height="172.6701mm"
   viewBox="0 0 172.6701 172.6701"
   version="1.1"
   id="svg1"
   xml:space="preserve"
   xmlns="http://www.w3.org/2000/svg"
   xmlns:svg="http://www.w3.org/2000/svg"><defs
     id="defs1" /><g
     id="layer1"
     transform="translate(157.25102,198.81012)"><path
       id="path5"
       style="fill:#ffffff;fill-opacity:1;stroke-width:0.805188;stroke-linecap:round;stroke-linejoin:round"
       d="M -2.0863309 -198.17657 L -10.088943 -183.11289 L -10.930235 -165.68398 L -19.198981 -165.68398 L -11.423229 -155.47426 L -12.166336 -140.07934 C -28.353216 -157.12094 -50.823548 -166.77435 -74.327399 -166.78417 C -103.64471 -166.77397 -130.92652 -151.79225 -146.66717 -127.05894 L -157.25102 -127.05894 L -149.61996 -115.86014 L -157.25102 -26.140039 L -8.5138455 -26.140039 L 15.419061 -26.140039 L 8.0799737 -154.80195 L 15.419061 -165.68398 L 7.4593397 -165.68398 L 6.4490654 -183.39297 L -2.0863309 -198.17657 z M -83.43072 -192.21621 C -85.584619 -189.65499 -86.77489 -186.4211 -86.795372 -183.07465 C -86.842092 -175.15518 -80.459903 -168.69733 -72.540428 -168.65072 C -64.621155 -168.60402 -58.163395 -174.98588 -58.116503 -182.90515 C -58.102813 -186.26049 -59.266203 -189.5144 -61.404157 -192.10045 C -60.83125 -190.6836 -60.536835 -189.16959 -60.537027 -187.64129 C -60.575787 -181.07411 -65.930869 -175.78172 -72.498054 -175.82031 C -79.065241 -175.85911 -84.357627 -181.21415 -84.319038 -187.78134 C -84.309338 -189.30285 -84.007827 -190.80837 -83.43072 -192.21621 z M -58.911286 -119.64906 C -52.279055 -119.64906 -47.205542 -117.15466 -43.691027 -112.16631 C -40.119825 -107.23465 -38.334248 -100.06428 -38.334248 -90.654448 C -38.334248 -81.244616 -40.119825 -74.017081 -43.691027 -68.97205 C -47.205542 -63.983706 -52.279055 -61.489303 -58.911286 -61.489303 C -65.543517 -61.489303 -70.645094 -63.983706 -74.216295 -68.97205 C -77.787496 -74.017081 -79.573074 -81.244616 -79.573074 -90.654448 C -79.573074 -100.00759 -77.787496 -107.17797 -74.216295 -112.16631 C -70.645094 -117.15466 -65.543517 -119.64906 -58.911286 -119.64906 z M -120.89717 -119.13901 L -118.09114 -117.86364 L -118.09114 -68.716769 C -117.01411 -68.093226 -115.31375 -67.526269 -112.98964 -67.016097 C -110.66552 -66.562611 -108.82279 -66.279392 -107.46233 -66.16602 L -107.71761 -62.084615 L -142.40955 -62.084615 L -142.23902 -66.16602 C -137.19399 -66.732877 -133.33961 -67.583054 -130.67538 -68.716769 L -130.67538 -109.44555 L -142.069 -109.44555 L -142.069 -114.37703 C -138.44111 -114.66046 -134.70003 -115.19935 -130.8454 -115.99295 C -126.99077 -116.84324 -123.67477 -117.89193 -120.89717 -119.13901 z M -33.912812 -118.88373 L -29.746141 -118.88373 C -27.592083 -118.82705 -22.887531 -118.79847 -15.631757 -118.79847 C -8.0925545 -118.79847 -3.1889735 -118.82705 -0.92154409 -118.88373 L 3.1598605 -118.88373 L 4.8605319 -115.22762 C 3.783503 -113.52705 1.7427689 -109.84261 -1.261575 -104.17404 C -4.265919 -98.505463 -7.1001856 -92.496548 -9.7644152 -86.147746 C -12.428645 -79.798944 -13.76107 -74.838719 -13.76107 -71.267517 C -13.76107 -68.433231 -12.769025 -66.307789 -10.785025 -64.890646 C -12.71234 -62.566531 -15.178162 -61.404554 -18.182506 -61.404554 C -20.960107 -61.404554 -23.114129 -62.169506 -24.644644 -63.700021 C -26.175159 -65.230536 -26.940111 -67.356494 -26.940111 -70.077409 C -26.940111 -73.478553 -26.118515 -77.077772 -24.474628 -80.875717 C -22.830742 -84.730347 -19.883187 -89.945728 -15.631757 -96.521273 L -5.5982612 -111.9963 L -24.984675 -111.9963 C -25.778275 -109.44544 -26.260007 -106.44124 -26.430065 -102.98341 C -27.450408 -102.81335 -28.499097 -102.72813 -29.576126 -102.72813 C -30.70984 -102.72813 -31.815173 -102.81335 -32.892202 -102.98341 L -35.272936 -117.60836 L -33.912812 -118.88373 z M -58.911286 -115.31237 C -61.802259 -115.31237 -63.899637 -113.41351 -65.203409 -109.61556 C -66.450495 -105.81762 -67.074095 -99.497422 -67.074095 -90.654448 C -67.074095 -81.868159 -66.450495 -75.576025 -65.203409 -71.778081 C -63.899637 -68.036822 -61.802259 -66.16602 -58.911286 -66.16602 C -56.020314 -66.16602 -53.950999 -68.036822 -52.703913 -71.778081 C -51.400141 -75.576025 -50.748477 -81.868159 -50.748477 -90.654448 C -50.748477 -99.440737 -51.400141 -105.73287 -52.703913 -109.53081 C -53.950999 -113.38544 -56.020314 -115.31237 -58.911286 -115.31237 z M -92.752631 -101.28274 C -90.768631 -101.28274 -89.294853 -100.68772 -88.331196 -99.497319 C -87.310853 -98.363604 -86.80054 -96.776539 -86.80054 -94.735852 C -86.80054 -92.695166 -87.310853 -91.107584 -88.331196 -89.973869 C -89.294853 -88.840154 -90.768631 -88.273198 -92.752631 -88.273198 C -94.736632 -88.273198 -96.23899 -88.840154 -97.259333 -89.973869 C -98.22299 -91.16427 -98.704723 -92.751852 -98.704723 -94.735852 C -98.704723 -96.833225 -98.22299 -98.448354 -97.259333 -99.582068 C -96.23899 -100.71578 -94.736632 -101.28274 -92.752631 -101.28274 z M -92.752631 -74.498845 C -90.768631 -74.498845 -89.294853 -73.903824 -88.331196 -72.713424 C -87.310853 -71.579709 -86.80054 -69.992127 -86.80054 -67.951441 C -86.80054 -65.910754 -87.310853 -64.323689 -88.331196 -63.189974 C -89.294853 -62.05626 -90.768631 -61.489303 -92.752631 -61.489303 C -94.736632 -61.489303 -96.23899 -62.05626 -97.259333 -63.189974 C -98.22299 -64.380375 -98.704723 -65.96744 -98.704723 -67.951441 C -98.704723 -70.048813 -98.22299 -71.664459 -97.259333 -72.798173 C -96.23899 -73.931888 -94.736632 -74.498845 -92.752631 -74.498845 z " /></g></svg>
