<?xml version="1.0" encoding="UTF-8" standalone="no"?>
<!-- Created with Inkscape (http://www.inkscape.org/) -->

<svg
   width="172.6701mm"
   height="172.6701mm"
   viewBox="0 0 172.6701 172.6701"
   version="1.1"
   id="svg1"
   xml:space="preserve"
   xmlns="http://www.w3.org/2000/svg"
   xmlns:svg="http://www.w3.org/2000/svg"><defs
     id="defs1" /><g
     id="layer1"
     transform="translate(157.25102,198.81012)"><path
       id="path5"
       style="fill:#ffffff;fill-opacity:1;stroke-width:0.805188;stroke-linecap:round;stroke-linejoin:round"
       d="M -2.0863309 -198.17657 L -10.088943 -183.11289 L -10.930235 -165.68398 L -19.198981 -165.68398 L -11.423229 -155.47426 L -12.166336 -140.07934 C -28.353216 -157.12094 -50.823548 -166.77435 -74.327399 -166.78417 C -103.64471 -166.77397 -130.92652 -151.79225 -146.66717 -127.05894 L -157.25102 -127.05894 L -149.61996 -115.86014 L -157.25102 -26.140039 L -8.5138455 -26.140039 L 15.419061 -26.140039 L 8.0799737 -154.80195 L 15.419061 -165.68398 L 7.4593397 -165.68398 L 6.4490654 -183.39297 L -2.0863309 -198.17657 z M -83.43072 -192.21621 C -85.584619 -189.65499 -86.77489 -186.4211 -86.795372 -183.07465 C -86.842092 -175.15518 -80.459903 -168.69733 -72.540428 -168.65072 C -64.621155 -168.60402 -58.163395 -174.98588 -58.116503 -182.90515 C -58.102813 -186.26049 -59.266203 -189.5144 -61.404157 -192.10045 C -60.83125 -190.6836 -60.536835 -189.16959 -60.537027 -187.64129 C -60.575787 -181.07411 -65.930869 -175.78172 -72.498054 -175.82031 C -79.065241 -175.85911 -84.357627 -181.21415 -84.319038 -187.78134 C -84.309338 -189.30285 -84.007827 -190.80837 -83.43072 -192.21621 z M -124.63802 -119.81908 C -118.68602 -119.81908 -113.95289 -118.54381 -110.43837 -115.99295 C -106.92386 -113.44209 -105.16686 -110.01229 -105.16686 -105.70418 C -105.16686 -103.38006 -106.01704 -101.05611 -107.71761 -98.731991 C -109.41818 -96.407876 -111.65743 -94.50901 -114.43503 -93.035181 C -110.92051 -91.334609 -108.17095 -89.350519 -106.18695 -87.08309 C -104.14627 -84.81566 -103.12616 -81.896169 -103.12616 -78.324968 C -103.12616 -73.166566 -104.99644 -69.057034 -108.7377 -65.996005 C -112.47896 -62.991661 -117.52441 -61.489303 -123.87321 -61.489303 C -130.84556 -61.489303 -136.23035 -62.878373 -140.0283 -65.655974 C -143.76956 -68.433575 -145.64036 -72.401238 -145.64036 -77.55964 C -145.64036 -80.223869 -144.79018 -82.86014 -143.08961 -85.467684 C -141.38904 -88.131914 -139.00792 -90.483931 -135.94689 -92.524618 C -138.49775 -93.941761 -140.48184 -95.642631 -141.89899 -97.626632 C -143.31613 -99.610633 -144.02495 -102.07646 -144.02495 -105.02411 C -144.02495 -109.55897 -142.26744 -113.15871 -138.75292 -115.82294 C -135.23841 -118.48717 -130.53334 -119.81908 -124.63802 -119.81908 z M -56.01999 -119.73381 C -50.181359 -119.73381 -45.533451 -118.28861 -42.075621 -115.39764 C -38.617791 -112.56335 -36.888858 -108.56711 -36.888858 -103.40871 C -36.888858 -98.873849 -38.617791 -94.026912 -42.075621 -88.86851 C -45.533451 -83.766794 -51.230048 -77.616529 -59.166051 -70.41744 L -36.293545 -70.41744 L -36.293545 -62.084615 L -74.811608 -62.084615 L -74.811608 -67.016097 C -68.519491 -73.081471 -63.61591 -78.268272 -60.101394 -82.576388 C -56.586879 -86.884504 -54.064412 -90.852684 -52.533898 -94.480571 C -50.946697 -98.108458 -50.153164 -101.84955 -50.153164 -105.70418 C -50.153164 -111.82623 -52.193898 -114.88759 -56.275271 -114.88759 C -58.089215 -114.88759 -59.562992 -114.0369 -60.696707 -112.33633 C -61.830422 -110.69244 -62.397378 -108.65171 -62.397378 -106.21422 C -62.397378 -104.51365 -61.801841 -102.89852 -60.611441 -101.36801 C -61.575098 -100.46103 -62.680948 -99.752209 -63.928034 -99.242037 C -65.118435 -98.731866 -66.308475 -98.476709 -67.498876 -98.476709 C -69.539562 -98.476709 -71.240432 -99.10031 -72.60089 -100.3474 C -73.961347 -101.65117 -74.641592 -103.52197 -74.641592 -105.95946 C -74.641592 -108.567 -73.876123 -110.91953 -72.345608 -113.01691 C -70.815093 -115.11428 -68.661071 -116.75799 -65.88347 -117.94839 C -63.049184 -119.13879 -59.761248 -119.73381 -56.01999 -119.73381 z M -13.250507 -119.73381 C -9.5659345 -119.73381 -6.3065795 -119.11073 -3.4722928 -117.86364 C -0.63800603 -116.67324 1.57266 -114.97237 3.1598605 -112.76163 C 4.7470611 -110.60757 5.5405938 -108.11368 5.5405938 -105.27939 C 5.5405938 -102.10499 4.6051928 -99.384015 2.7345635 -97.116586 C 0.86393424 -94.849156 -1.9136884 -93.120223 -5.5982612 -91.929822 C -0.95003094 -90.909479 2.3093241 -89.237189 4.1799533 -86.913074 C 6.0505826 -84.588959 6.9859836 -81.442892 6.9859836 -77.474891 C 6.9859836 -74.017061 5.9372946 -71.069506 3.8399224 -68.632019 C 1.7992359 -66.194533 -0.86509877 -64.380375 -4.1528714 -63.189974 C -7.440644 -61.999574 -10.841867 -61.404554 -14.356383 -61.404554 C -19.458099 -61.404554 -23.794207 -62.453243 -27.365408 -64.550615 C -30.879924 -66.647987 -32.637438 -69.510317 -32.637438 -73.138204 C -32.637438 -75.235577 -32.013837 -76.851222 -30.766751 -77.984937 C -29.519665 -79.175337 -27.960663 -79.770358 -26.090034 -79.770358 C -24.162719 -79.770358 -22.207209 -79.005405 -20.223208 -77.474891 C -20.73338 -76.397862 -20.988536 -75.094016 -20.988536 -73.563501 C -20.988536 -71.749558 -20.449643 -70.275781 -19.372614 -69.142066 C -18.2389 -68.008351 -16.567127 -67.441394 -14.356383 -67.441394 C -9.4814097 -67.441394 -7.043651 -70.814037 -7.043651 -77.55964 C -7.043651 -81.244213 -8.2342084 -84.10706 -10.615009 -86.147746 C -12.939124 -88.188433 -16.255123 -89.208541 -20.563239 -89.208541 L -20.563239 -94.480571 C -12.230436 -95.1608 -8.0642606 -98.760535 -8.0642606 -105.27939 C -8.0642606 -108.56717 -8.5740565 -110.97583 -9.5943997 -112.50634 C -10.614743 -114.09354 -12.003813 -114.88759 -13.76107 -114.88759 C -15.858443 -114.88759 -17.445508 -114.15071 -18.522537 -112.67688 C -19.54288 -111.20305 -20.053193 -109.41747 -20.053193 -107.3201 C -20.053193 -105.44947 -19.656168 -103.77718 -18.862568 -102.30335 C -20.449768 -100.60278 -22.490502 -99.752084 -24.984675 -99.752084 C -27.252104 -99.752084 -29.009618 -100.43233 -30.256704 -101.79279 C -31.503791 -103.15324 -32.126874 -104.91076 -32.126874 -107.06482 C -32.126874 -109.8991 -31.16341 -112.25164 -29.236095 -114.12227 C -27.252094 -116.04958 -24.814852 -117.46671 -21.92388 -118.37369 C -18.976221 -119.28066 -16.084794 -119.73381 -13.250507 -119.73381 z M -124.63802 -113.78224 C -126.90545 -113.78224 -128.69155 -113.04535 -129.99532 -111.57152 C -131.29909 -110.15437 -131.95076 -108.22693 -131.95076 -105.78944 C -131.95076 -103.63538 -131.12864 -101.84981 -129.48476 -100.43266 C -127.78418 -99.072205 -125.31836 -97.711715 -122.08727 -96.351258 C -120.67013 -97.314915 -119.53673 -98.646824 -118.68645 -100.3474 C -117.83616 -102.04797 -117.41107 -103.86213 -117.41107 -105.78944 C -117.41107 -108.22693 -118.09132 -110.15437 -119.45178 -111.57152 C -120.75555 -113.04535 -122.48397 -113.78224 -124.63802 -113.78224 z M -88.075914 -101.28274 C -86.091913 -101.28274 -84.618136 -100.68772 -83.654479 -99.497319 C -82.634135 -98.363604 -82.123823 -96.776539 -82.123823 -94.735852 C -82.123823 -92.695166 -82.634135 -91.107584 -83.654479 -89.973869 C -84.618136 -88.840154 -86.091913 -88.273198 -88.075914 -88.273198 C -90.059915 -88.273198 -91.562273 -88.840154 -92.582616 -89.973869 C -93.546273 -91.16427 -94.028006 -92.751852 -94.028006 -94.735852 C -94.028006 -96.833225 -93.546273 -98.448354 -92.582616 -99.582068 C -91.562273 -100.71578 -90.059915 -101.28274 -88.075914 -101.28274 z M -128.12463 -89.038526 C -129.8252 -87.678068 -131.07189 -86.119583 -131.86549 -84.362325 C -132.65909 -82.605068 -133.05611 -80.50769 -133.05611 -78.070203 C -133.05611 -74.725745 -132.234 -72.089474 -130.59012 -70.162159 C -128.94623 -68.291529 -126.7075 -67.356645 -123.87321 -67.356645 C -121.09561 -67.356645 -118.94159 -68.291529 -117.41107 -70.162159 C -115.82387 -72.032788 -115.02982 -74.640479 -115.02982 -77.984937 C -115.02982 -79.855566 -115.62536 -81.442631 -116.81576 -82.746403 C -117.94948 -84.106861 -119.39467 -85.212194 -121.15193 -86.06248 C -122.90919 -86.969452 -125.23366 -87.961497 -128.12463 -89.038526 z M -88.075914 -74.498845 C -86.091913 -74.498845 -84.618136 -73.903824 -83.654479 -72.713424 C -82.634135 -71.579709 -82.123823 -69.992127 -82.123823 -67.951441 C -82.123823 -65.910754 -82.634135 -64.323689 -83.654479 -63.189974 C -84.618136 -62.05626 -86.091913 -61.489303 -88.075914 -61.489303 C -90.059915 -61.489303 -91.562273 -62.05626 -92.582616 -63.189974 C -93.546273 -64.380375 -94.028006 -65.96744 -94.028006 -67.951441 C -94.028006 -70.048813 -93.546273 -71.664459 -92.582616 -72.798173 C -91.562273 -73.931888 -90.059915 -74.498845 -88.075914 -74.498845 z " /></g></svg>
