<?xml version="1.0" encoding="UTF-8" standalone="no"?>
<!-- Created with Inkscape (http://www.inkscape.org/) -->

<svg
   width="172.6701mm"
   height="172.6701mm"
   viewBox="0 0 172.6701 172.6701"
   version="1.1"
   id="svg1"
   xml:space="preserve"
   xmlns="http://www.w3.org/2000/svg"
   xmlns:svg="http://www.w3.org/2000/svg"><defs
     id="defs1" /><g
     id="layer1"
     transform="translate(157.25102,198.81012)"><path
       id="path5"
       style="fill:#ffffff;fill-opacity:1;stroke-width:0.805188;stroke-linecap:round;stroke-linejoin:round"
       d="M -2.0863309 -198.17657 L -10.088943 -183.11289 L -10.930235 -165.68398 L -19.198981 -165.68398 L -11.423229 -155.47426 L -12.166336 -140.07934 C -28.353216 -157.12094 -50.823548 -166.77435 -74.327399 -166.78417 C -103.64471 -166.77397 -130.92652 -151.79225 -146.66717 -127.05894 L -157.25102 -127.05894 L -149.61996 -115.86014 L -157.25102 -26.140039 L -8.5138455 -26.140039 L 15.419061 -26.140039 L 8.0799737 -154.80195 L 15.419061 -165.68398 L 7.4593397 -165.68398 L 6.4490654 -183.39297 L -2.0863309 -198.17657 z M -83.43072 -192.21621 C -85.584619 -189.65499 -86.77489 -186.4211 -86.795372 -183.07465 C -86.842092 -175.15518 -80.459903 -168.69733 -72.540428 -168.65072 C -64.621155 -168.60402 -58.163395 -174.98588 -58.116503 -182.90515 C -58.102813 -186.26049 -59.266203 -189.5144 -61.404157 -192.10045 C -60.83125 -190.6836 -60.536835 -189.16959 -60.537027 -187.64129 C -60.575787 -181.07411 -65.930869 -175.78172 -72.498054 -175.82031 C -79.065241 -175.85911 -84.357627 -181.21415 -84.319038 -187.78134 C -84.309338 -189.30285 -84.007827 -190.80837 -83.43072 -192.21621 z M -59.591348 -119.73381 C -53.752717 -119.73381 -49.104293 -118.28861 -45.646463 -115.39764 C -42.188633 -112.56335 -40.459699 -108.56711 -40.459699 -103.40871 C -40.459699 -98.873849 -42.188633 -94.026912 -45.646463 -88.86851 C -49.104293 -83.766794 -54.801406 -77.616529 -62.737409 -70.41744 L -39.864903 -70.41744 L -39.864903 -62.084615 L -78.382449 -62.084615 L -78.382449 -67.016097 C -72.090332 -73.081471 -67.187268 -78.268272 -63.672753 -82.576388 C -60.158237 -86.884504 -57.635771 -90.852684 -56.105256 -94.480571 C -54.518055 -98.108458 -53.724523 -101.84955 -53.724523 -105.70418 C -53.724523 -111.82623 -55.765257 -114.88759 -59.84663 -114.88759 C -61.660573 -114.88759 -63.13435 -114.0369 -64.268065 -112.33633 C -65.40178 -110.69244 -65.968736 -108.65171 -65.968736 -106.21422 C -65.968736 -104.51365 -65.373199 -102.89852 -64.182799 -101.36801 C -65.146456 -100.46103 -66.251789 -99.752209 -67.498876 -99.242037 C -68.689276 -98.731866 -69.879833 -98.476709 -71.070234 -98.476709 C -73.11092 -98.476709 -74.811274 -99.10031 -76.171731 -100.3474 C -77.532189 -101.65117 -78.212434 -103.52197 -78.212434 -105.95946 C -78.212434 -108.567 -77.447481 -110.91953 -75.916966 -113.01691 C -74.386452 -115.11428 -72.23243 -116.75799 -69.454829 -117.94839 C -66.620542 -119.13879 -63.332606 -119.73381 -59.591348 -119.73381 z M -119.79181 -119.13901 L -116.98578 -117.86364 L -116.98578 -68.716769 C -115.90875 -68.093226 -114.20788 -67.526269 -111.88376 -67.016097 C -109.55965 -66.562611 -107.71743 -66.279392 -106.35697 -66.16602 L -106.61225 -62.084615 L -141.30367 -62.084615 L -141.13366 -66.16602 C -136.08863 -66.732877 -132.23425 -67.583054 -129.57002 -68.716769 L -129.57002 -109.44555 L -140.96364 -109.44555 L -140.96364 -114.37703 C -137.33576 -114.66046 -133.59467 -115.19935 -129.74004 -115.99295 C -125.88541 -116.84324 -122.56941 -117.89193 -119.79181 -119.13901 z M -35.018171 -118.88373 L -30.8515 -118.88373 C -28.697442 -118.82705 -23.99289 -118.79847 -16.737116 -118.79847 C -9.1979134 -118.79847 -4.2943324 -118.82705 -2.026903 -118.88373 L 2.0545016 -118.88373 L 3.755173 -115.22762 C 2.6781441 -113.52705 0.63741006 -109.84261 -2.3669339 -104.17404 C -5.3712779 -98.505463 -8.2055445 -92.496548 -10.869774 -86.147746 C -13.534004 -79.798944 -14.866429 -74.838719 -14.866429 -71.267517 C -14.866429 -68.433231 -13.874384 -66.307789 -11.890384 -64.890646 C -13.817699 -62.566531 -16.283521 -61.404554 -19.287865 -61.404554 C -22.065466 -61.404554 -24.219488 -62.169506 -25.750003 -63.700021 C -27.280518 -65.230536 -28.045987 -67.356494 -28.045987 -70.077409 C -28.045987 -73.478553 -27.223874 -77.077772 -25.579987 -80.875717 C -23.936101 -84.730347 -20.988546 -89.945728 -16.737116 -96.521273 L -6.7036201 -111.9963 L -26.090034 -111.9963 C -26.883634 -109.44544 -27.365366 -106.44124 -27.535423 -102.98341 C -28.555767 -102.81335 -29.604456 -102.72813 -30.681485 -102.72813 C -31.815199 -102.72813 -32.920532 -102.81335 -33.997561 -102.98341 L -36.378295 -117.60836 L -35.018171 -118.88373 z M -91.647272 -101.28274 C -89.663272 -101.28274 -88.189494 -100.68772 -87.225837 -99.497319 C -86.205494 -98.363604 -85.695181 -96.776539 -85.695181 -94.735852 C -85.695181 -92.695166 -86.205494 -91.107584 -87.225837 -89.973869 C -88.189494 -88.840154 -89.663272 -88.273198 -91.647272 -88.273198 C -93.631273 -88.273198 -95.133114 -88.840154 -96.153457 -89.973869 C -97.117115 -91.16427 -97.599364 -92.751852 -97.599364 -94.735852 C -97.599364 -96.833225 -97.117115 -98.448354 -96.153457 -99.582068 C -95.133114 -100.71578 -93.631273 -101.28274 -91.647272 -101.28274 z M -91.647272 -74.498845 C -89.663272 -74.498845 -88.189494 -73.903824 -87.225837 -72.713424 C -86.205494 -71.579709 -85.695181 -69.992127 -85.695181 -67.951441 C -85.695181 -65.910754 -86.205494 -64.323689 -87.225837 -63.189974 C -88.189494 -62.05626 -89.663272 -61.489303 -91.647272 -61.489303 C -93.631273 -61.489303 -95.133114 -62.05626 -96.153457 -63.189974 C -97.117115 -64.380375 -97.599364 -65.96744 -97.599364 -67.951441 C -97.599364 -70.048813 -97.117115 -71.664459 -96.153457 -72.798173 C -95.133114 -73.931888 -93.631273 -74.498845 -91.647272 -74.498845 z " /></g></svg>
