<?xml version="1.0" encoding="UTF-8" standalone="no"?>
<!-- Created with Inkscape (http://www.inkscape.org/) -->

<svg
   width="172.6701mm"
   height="172.6701mm"
   viewBox="0 0 172.6701 172.6701"
   version="1.1"
   id="svg1"
   xml:space="preserve"
   xmlns="http://www.w3.org/2000/svg"
   xmlns:svg="http://www.w3.org/2000/svg"><defs
     id="defs1" /><g
     id="layer1"
     transform="translate(157.25102,198.81012)"><path
       id="path5"
       style="fill:#ffffff;fill-opacity:1;stroke-width:0.805188;stroke-linecap:round;stroke-linejoin:round"
       d="M -2.0863309 -198.17657 L -10.088943 -183.11289 L -10.930235 -165.68398 L -19.198981 -165.68398 L -11.423229 -155.47426 L -12.166336 -140.07934 C -28.353216 -157.12094 -50.823548 -166.77435 -74.327399 -166.78417 C -103.64471 -166.77397 -130.92652 -151.79225 -146.66717 -127.05894 L -157.25102 -127.05894 L -149.61996 -115.86014 L -157.25102 -26.140039 L -8.5138455 -26.140039 L 15.419061 -26.140039 L 8.0799737 -154.80195 L 15.419061 -165.68398 L 7.4593397 -165.68398 L 6.4490654 -183.39297 L -2.0863309 -198.17657 z M -83.43072 -192.21621 C -85.584619 -189.65499 -86.77489 -186.4211 -86.795372 -183.07465 C -86.842092 -175.15518 -80.459903 -168.69733 -72.540428 -168.65072 C -64.621155 -168.60402 -58.163395 -174.98588 -58.116503 -182.90515 C -58.102813 -186.26049 -59.266203 -189.5144 -61.404157 -192.10045 C -60.83125 -190.6836 -60.536835 -189.16959 -60.537027 -187.64129 C -60.575787 -181.07411 -65.930869 -175.78172 -72.498054 -175.82031 C -79.065241 -175.85911 -84.357627 -181.21415 -84.319038 -187.78134 C -84.309338 -189.30285 -84.007827 -190.80837 -83.43072 -192.21621 z M -59.166051 -119.73381 C -53.32742 -119.73381 -48.679512 -118.28861 -45.221682 -115.39764 C -41.763853 -112.56335 -40.034919 -108.56711 -40.034919 -103.40871 C -40.034919 -98.873849 -41.763853 -94.026912 -45.221682 -88.86851 C -48.679512 -83.766794 -54.376109 -77.616529 -62.312112 -70.41744 L -39.439606 -70.41744 L -39.439606 -62.084615 L -77.957669 -62.084615 L -77.957669 -67.016097 C -71.665552 -73.081471 -66.761971 -78.268272 -63.247456 -82.576388 C -59.73294 -86.884504 -57.210474 -90.852684 -55.679959 -94.480571 C -54.092758 -98.108458 -53.299226 -101.84955 -53.299226 -105.70418 C -53.299226 -111.82623 -55.33996 -114.88759 -59.421333 -114.88759 C -61.235276 -114.88759 -62.709053 -114.0369 -63.842768 -112.33633 C -64.976483 -110.69244 -65.543439 -108.65171 -65.543439 -106.21422 C -65.543439 -104.51365 -64.948419 -102.89852 -63.758019 -101.36801 C -64.721676 -100.46103 -65.827009 -99.752209 -67.074095 -99.242037 C -68.264496 -98.731866 -69.454536 -98.476709 -70.644937 -98.476709 C -72.685623 -98.476709 -74.386493 -99.10031 -75.746951 -100.3474 C -77.107409 -101.65117 -77.787653 -103.52197 -77.787653 -105.95946 C -77.787653 -108.567 -77.022184 -110.91953 -75.491669 -113.01691 C -73.961155 -115.11428 -71.807133 -116.75799 -69.029532 -117.94839 C -66.195245 -119.13879 -62.907309 -119.73381 -59.166051 -119.73381 z M -27.790705 -119.05375 L -23.539285 -118.969 C -17.530597 -118.85563 -14.35595 -118.79847 -14.015835 -118.79847 L -1.9421536 -118.969 L 0.52384572 -117.18306 L -0.24148224 -110.72092 L -21.328567 -110.72092 L -22.519192 -96.521273 C -19.571534 -97.258188 -16.907199 -97.626632 -14.526398 -97.626632 C -8.9145106 -97.626632 -4.3513103 -96.124274 -0.83679474 -93.11993 C 2.7344066 -90.172272 4.5199842 -85.836165 4.5199842 -80.110905 C 4.5199842 -76.539704 3.6698076 -73.336993 1.9692355 -70.502706 C 0.32534922 -67.66842 -2.0552487 -65.429173 -5.1729642 -63.785287 C -8.2906796 -62.198086 -11.97564 -61.404554 -16.22707 -61.404554 C -19.6849 -61.404554 -22.830967 -61.886286 -25.665253 -62.849943 C -28.442854 -63.813601 -30.62494 -65.14551 -32.212141 -66.846082 C -33.799341 -68.60334 -34.592874 -70.559366 -34.592874 -72.713424 C -34.592874 -74.980853 -33.969273 -76.709787 -32.722187 -77.900188 C -31.475101 -79.147274 -29.94468 -79.770358 -28.130736 -79.770358 C -27.110393 -79.770358 -26.090284 -79.572362 -25.069941 -79.175562 C -23.992912 -78.778762 -23.028931 -78.211805 -22.178645 -77.474891 C -22.688816 -76.28449 -22.943972 -75.037289 -22.943972 -73.733517 C -22.943972 -71.862888 -22.405596 -70.332466 -21.328567 -69.142066 C -20.194852 -67.951665 -18.494499 -67.356645 -16.22707 -67.356645 C -11.125354 -67.356645 -8.5743069 -71.608045 -8.5743069 -80.110905 C -8.5743069 -84.135593 -9.3678396 -87.054567 -10.95504 -88.86851 C -12.542241 -90.73914 -14.668199 -91.674541 -17.332429 -91.674541 C -18.976315 -91.674541 -20.733312 -91.36274 -22.603942 -90.739197 C -24.474571 -90.115654 -26.316792 -89.236897 -28.130736 -88.103182 L -32.807453 -92.609884 L -30.596735 -116.75776 L -27.790705 -119.05375 z M -143.51491 -118.88373 L -139.34824 -118.88373 C -137.19418 -118.82705 -132.48911 -118.79847 -125.23334 -118.79847 C -117.69413 -118.79847 -112.79107 -118.82705 -110.52364 -118.88373 L -106.44224 -118.88373 L -104.74156 -115.22762 C -105.81859 -113.52705 -107.85933 -109.84261 -110.86367 -104.17404 C -113.86801 -98.505463 -116.70228 -92.496548 -119.36651 -86.147746 C -122.03074 -79.798944 -123.36265 -74.838719 -123.36265 -71.267517 C -123.36265 -68.433231 -122.37112 -66.307789 -120.38712 -64.890646 C -122.31444 -62.566531 -124.78026 -61.404554 -127.7846 -61.404554 C -130.5622 -61.404554 -132.71622 -62.169506 -134.24674 -63.700021 C -135.77725 -65.230536 -136.54221 -67.356494 -136.54221 -70.077409 C -136.54221 -73.478553 -135.72061 -77.077772 -134.07672 -80.875717 C -132.43284 -84.730347 -129.48477 -89.945728 -125.23334 -96.521273 L -115.20036 -111.9963 L -134.58677 -111.9963 C -135.38037 -109.44544 -135.8621 -106.44124 -136.03216 -102.98341 C -137.0525 -102.81335 -138.10119 -102.72813 -139.17822 -102.72813 C -140.31194 -102.72813 -141.41727 -102.81335 -142.4943 -102.98341 L -144.87503 -117.60836 L -143.51491 -118.88373 z M -91.221975 -101.28274 C -89.237975 -101.28274 -87.764197 -100.68772 -86.80054 -99.497319 C -85.780197 -98.363604 -85.269884 -96.776539 -85.269884 -94.735852 C -85.269884 -92.695166 -85.780197 -91.107584 -86.80054 -89.973869 C -87.764197 -88.840154 -89.237975 -88.273198 -91.221975 -88.273198 C -93.205976 -88.273198 -94.708334 -88.840154 -95.728677 -89.973869 C -96.692335 -91.16427 -97.174067 -92.751852 -97.174067 -94.735852 C -97.174067 -96.833225 -96.692335 -98.448354 -95.728677 -99.582068 C -94.708334 -100.71578 -93.205976 -101.28274 -91.221975 -101.28274 z M -91.221975 -74.498845 C -89.237975 -74.498845 -87.764197 -73.903824 -86.80054 -72.713424 C -85.780197 -71.579709 -85.269884 -69.992127 -85.269884 -67.951441 C -85.269884 -65.910754 -85.780197 -64.323689 -86.80054 -63.189974 C -87.764197 -62.05626 -89.237975 -61.489303 -91.221975 -61.489303 C -93.205976 -61.489303 -94.708334 -62.05626 -95.728677 -63.189974 C -96.692335 -64.380375 -97.174067 -65.96744 -97.174067 -67.951441 C -97.174067 -70.048813 -96.692335 -71.664459 -95.728677 -72.798173 C -94.708334 -73.931888 -93.205976 -74.498845 -91.221975 -74.498845 z " /></g></svg>
