<?xml version="1.0" encoding="UTF-8" standalone="no"?>
<!-- Created with Inkscape (http://www.inkscape.org/) -->

<svg
   width="172.6701mm"
   height="172.6701mm"
   viewBox="0 0 172.6701 172.6701"
   version="1.1"
   id="svg1"
   xml:space="preserve"
   xmlns="http://www.w3.org/2000/svg"
   xmlns:svg="http://www.w3.org/2000/svg"><defs
     id="defs1" /><g
     id="layer1"
     transform="translate(157.25102,198.81012)"><path
       id="path5"
       style="fill:#ffffff;fill-opacity:1;stroke-width:0.805188;stroke-linecap:round;stroke-linejoin:round"
       d="M -2.0863309 -198.17657 L -10.088943 -183.11289 L -10.930235 -165.68398 L -19.198981 -165.68398 L -11.423229 -155.47426 L -12.166336 -140.07934 C -28.353216 -157.12094 -50.823548 -166.77435 -74.327399 -166.78417 C -103.64471 -166.77397 -130.92652 -151.79225 -146.66717 -127.05894 L -157.25102 -127.05894 L -149.61996 -115.86014 L -157.25102 -26.140039 L -8.5138455 -26.140039 L 15.419061 -26.140039 L 8.0799737 -154.80195 L 15.419061 -165.68398 L 7.4593397 -165.68398 L 6.4490654 -183.39297 L -2.0863309 -198.17657 z M -83.43072 -192.21621 C -85.584619 -189.65499 -86.77489 -186.4211 -86.795372 -183.07465 C -86.842092 -175.15518 -80.459903 -168.69733 -72.540428 -168.65072 C -64.621155 -168.60402 -58.163395 -174.98588 -58.116503 -182.90515 C -58.102813 -186.26049 -59.266203 -189.5144 -61.404157 -192.10045 C -60.83125 -190.6836 -60.536835 -189.16959 -60.537027 -187.64129 C -60.575787 -181.07411 -65.930869 -175.78172 -72.498054 -175.82031 C -79.065241 -175.85911 -84.357627 -181.21415 -84.319038 -187.78134 C -84.309338 -189.30285 -84.007827 -190.80837 -83.43072 -192.21621 z M -126.80637 -119.81908 C -120.85436 -119.81908 -116.12123 -118.54381 -112.60672 -115.99295 C -109.0922 -113.44209 -107.3352 -110.01229 -107.3352 -105.70418 C -107.3352 -103.38006 -108.18538 -101.05611 -109.88595 -98.731991 C -111.58652 -96.407876 -113.82577 -94.50901 -116.60337 -93.035181 C -113.08886 -91.334609 -110.3393 -89.350519 -108.3553 -87.08309 C -106.31461 -84.81566 -105.2945 -81.896169 -105.2945 -78.324968 C -105.2945 -73.166566 -107.16479 -69.057034 -110.90605 -65.996005 C -114.6473 -62.991661 -119.69275 -61.489303 -126.04156 -61.489303 C -133.0139 -61.489303 -138.3987 -62.878373 -142.19664 -65.655974 C -145.9379 -68.433575 -147.8087 -72.401238 -147.8087 -77.55964 C -147.8087 -80.223869 -146.95853 -82.86014 -145.25795 -85.467684 C -143.55738 -88.131914 -141.17627 -90.483931 -138.11524 -92.524618 C -140.6661 -93.941761 -142.65019 -95.642631 -144.06733 -97.626632 C -145.48447 -99.610633 -146.1933 -102.07646 -146.1933 -105.02411 C -146.1933 -109.55897 -144.43578 -113.15871 -140.92127 -115.82294 C -137.40675 -118.48717 -132.70168 -119.81908 -126.80637 -119.81908 z M -56.402912 -119.64906 C -49.770681 -119.64906 -44.697168 -117.15466 -41.182652 -112.16631 C -37.611451 -107.23465 -35.825874 -100.06428 -35.825874 -90.654448 C -35.825874 -81.244616 -37.611451 -74.017081 -41.182652 -68.97205 C -44.697168 -63.983706 -49.770681 -61.489303 -56.402912 -61.489303 C -63.035143 -61.489303 -68.13672 -63.983706 -71.707921 -68.97205 C -75.279122 -74.017081 -77.0647 -81.244616 -77.0647 -90.654448 C -77.0647 -100.00759 -75.279122 -107.17797 -71.707921 -112.16631 C -68.13672 -117.15466 -63.035143 -119.64906 -56.402912 -119.64906 z M -11.082681 -119.64906 C -4.45045 -119.64906 0.62306306 -117.15466 4.1375786 -112.16631 C 7.7087799 -107.23465 9.4943576 -100.06428 9.4943576 -90.654448 C 9.4943576 -81.244616 7.7087799 -74.017081 4.1375786 -68.97205 C 0.62306306 -63.983706 -4.45045 -61.489303 -11.082681 -61.489303 C -17.714912 -61.489303 -22.816489 -63.983706 -26.38769 -68.97205 C -29.958891 -74.017081 -31.744469 -81.244616 -31.744469 -90.654448 C -31.744469 -100.00759 -29.958891 -107.17797 -26.38769 -112.16631 C -22.816489 -117.15466 -17.714912 -119.64906 -11.082681 -119.64906 z M -56.402912 -115.31237 C -59.293885 -115.31237 -61.391263 -113.41351 -62.695034 -109.61556 C -63.942121 -105.81762 -64.565721 -99.497422 -64.565721 -90.654448 C -64.565721 -81.868159 -63.942121 -75.576025 -62.695034 -71.778081 C -61.391263 -68.036822 -59.293885 -66.16602 -56.402912 -66.16602 C -53.51194 -66.16602 -51.442625 -68.036822 -50.195539 -71.778081 C -48.891767 -75.576025 -48.240103 -81.868159 -48.240103 -90.654448 C -48.240103 -99.440737 -48.891767 -105.73287 -50.195539 -109.53081 C -51.442625 -113.38544 -53.51194 -115.31237 -56.402912 -115.31237 z M -11.082681 -115.31237 C -13.973653 -115.31237 -16.071031 -113.41351 -17.374803 -109.61556 C -18.62189 -105.81762 -19.24549 -99.497422 -19.24549 -90.654448 C -19.24549 -81.868159 -18.62189 -75.576025 -17.374803 -71.778081 C -16.071031 -68.036822 -13.973653 -66.16602 -11.082681 -66.16602 C -8.1917085 -66.16602 -6.1223941 -68.036822 -4.8753079 -71.778081 C -3.571536 -75.576025 -2.9198717 -81.868159 -2.9198717 -90.654448 C -2.9198717 -99.440737 -3.571536 -105.73287 -4.8753079 -109.53081 C -6.1223941 -113.38544 -8.1917085 -115.31237 -11.082681 -115.31237 z M -126.80637 -113.78224 C -129.0738 -113.78224 -130.85989 -113.04535 -132.16366 -111.57152 C -133.46743 -110.15437 -134.1191 -108.22693 -134.1191 -105.78944 C -134.1191 -103.63538 -133.29699 -101.84981 -131.6531 -100.43266 C -129.95253 -99.072205 -127.4867 -97.711715 -124.25562 -96.351258 C -122.83847 -97.314915 -121.70508 -98.646824 -120.85479 -100.3474 C -120.00451 -102.04797 -119.57942 -103.86213 -119.57942 -105.78944 C -119.57942 -108.22693 -120.25915 -110.15437 -121.6196 -111.57152 C -122.92338 -113.04535 -124.65231 -113.78224 -126.80637 -113.78224 z M -90.244257 -101.28274 C -88.260257 -101.28274 -86.786479 -100.68772 -85.822822 -99.497319 C -84.802479 -98.363604 -84.292166 -96.776539 -84.292166 -94.735852 C -84.292166 -92.695166 -84.802479 -91.107584 -85.822822 -89.973869 C -86.786479 -88.840154 -88.260257 -88.273198 -90.244257 -88.273198 C -92.228258 -88.273198 -93.730616 -88.840154 -94.750959 -89.973869 C -95.714616 -91.16427 -96.196349 -92.751852 -96.196349 -94.735852 C -96.196349 -96.833225 -95.714616 -98.448354 -94.750959 -99.582068 C -93.730616 -100.71578 -92.228258 -101.28274 -90.244257 -101.28274 z M -130.29298 -89.038526 C -131.99355 -87.678068 -133.24023 -86.119583 -134.03383 -84.362325 C -134.82743 -82.605068 -135.22446 -80.50769 -135.22446 -78.070203 C -135.22446 -74.725745 -134.40234 -72.089474 -132.75846 -70.162159 C -131.11457 -68.291529 -128.87584 -67.356645 -126.04156 -67.356645 C -123.26395 -67.356645 -121.10993 -68.291529 -119.57942 -70.162159 C -117.99222 -72.032788 -117.19817 -74.640479 -117.19817 -77.984937 C -117.19817 -79.855566 -117.7937 -81.442631 -118.98411 -82.746403 C -120.11782 -84.106861 -121.56302 -85.212194 -123.32027 -86.06248 C -125.07753 -86.969452 -127.402 -87.961497 -130.29298 -89.038526 z M -90.244257 -74.498845 C -88.260257 -74.498845 -86.786479 -73.903824 -85.822822 -72.713424 C -84.802479 -71.579709 -84.292166 -69.992127 -84.292166 -67.951441 C -84.292166 -65.910754 -84.802479 -64.323689 -85.822822 -63.189974 C -86.786479 -62.05626 -88.260257 -61.489303 -90.244257 -61.489303 C -92.228258 -61.489303 -93.730616 -62.05626 -94.750959 -63.189974 C -95.714616 -64.380375 -96.196349 -65.96744 -96.196349 -67.951441 C -96.196349 -70.048813 -95.714616 -71.664459 -94.750959 -72.798173 C -93.730616 -73.931888 -92.228258 -74.498845 -90.244257 -74.498845 z " /></g></svg>
