<?xml version="1.0" encoding="UTF-8" standalone="no"?>
<!-- Created with Inkscape (http://www.inkscape.org/) -->

<svg
   width="172.6701mm"
   height="172.6701mm"
   viewBox="0 0 172.6701 172.6701"
   version="1.1"
   id="svg1"
   xml:space="preserve"
   xmlns="http://www.w3.org/2000/svg"
   xmlns:svg="http://www.w3.org/2000/svg"><defs
     id="defs1" /><g
     id="layer1"
     transform="translate(157.25102,198.81012)"><path
       id="path5"
       style="fill:#ffffff;fill-opacity:1;stroke-width:0.805188;stroke-linecap:round;stroke-linejoin:round"
       d="M -2.0863309 -198.17657 L -10.088943 -183.11289 L -10.930235 -165.68398 L -19.198981 -165.68398 L -11.423229 -155.47426 L -12.166336 -140.07934 C -28.353216 -157.12094 -50.823548 -166.77435 -74.327399 -166.78417 C -103.64471 -166.77397 -130.92652 -151.79225 -146.66717 -127.05894 L -157.25102 -127.05894 L -149.61996 -115.86014 L -157.25102 -26.140039 L -8.5138455 -26.140039 L 15.419061 -26.140039 L 8.0799737 -154.80195 L 15.419061 -165.68398 L 7.4593397 -165.68398 L 6.4490654 -183.39297 L -2.0863309 -198.17657 z M -83.43072 -192.21621 C -85.584619 -189.65499 -86.77489 -186.4211 -86.795372 -183.07465 C -86.842092 -175.15518 -80.459903 -168.69733 -72.540428 -168.65072 C -64.621155 -168.60402 -58.163395 -174.98588 -58.116503 -182.90515 C -58.102813 -186.26049 -59.266203 -189.5144 -61.404157 -192.10045 C -60.83125 -190.6836 -60.536835 -189.16959 -60.537027 -187.64129 C -60.575787 -181.07411 -65.930869 -175.78172 -72.498054 -175.82031 C -79.065241 -175.85911 -84.357627 -181.21415 -84.319038 -187.78134 C -84.309338 -189.30285 -84.007827 -190.80837 -83.43072 -192.21621 z M -31.645767 -135.16543 C -23.757767 -134.77103 -17.349033 -133.0456 -12.419034 -129.989 L -47.618952 -72.012175 L -24.990359 -72.012175 L -23.51138 -96.119747 C -20.35618 -96.119747 -18.088577 -96.760827 -16.708177 -98.042627 C -15.229177 -99.324427 -14.095118 -101.49364 -13.306318 -104.55024 L -4.8758247 -104.55024 L -5.024136 -71.272685 C -1.2773362 -70.188085 3.4556807 -69.054026 9.1744805 -67.870826 L 8.4349907 -60.771517 L -5.7636258 -60.771517 L -5.7636258 -34.297681 L -24.990359 -34.297681 L -24.990359 -60.771517 L -67.733487 -60.771517 L -68.916877 -66.096257 L -31.645767 -135.16543 z M -110.62441 -134.72153 C -100.27141 -134.72153 -92.038341 -132.50312 -85.925141 -128.06612 C -79.811941 -123.62912 -76.755158 -117.66365 -76.755158 -110.17005 C -76.755158 -106.12745 -78.234614 -102.08523 -81.192613 -98.042627 C -84.150613 -94.000027 -88.045255 -90.696755 -92.876655 -88.133155 C -86.763455 -85.175155 -81.981243 -81.724298 -78.530244 -77.780298 C -74.980644 -73.836298 -73.206021 -68.758402 -73.206021 -62.546603 C -73.206021 -53.574003 -76.459582 -46.425283 -82.967182 -41.100883 C -89.474782 -35.875084 -98.250024 -33.262085 -109.29322 -33.262085 C -121.42102 -33.262085 -130.78815 -35.677788 -137.39435 -40.509188 C -143.90195 -45.340588 -147.15551 -52.242818 -147.15551 -61.215418 C -147.15551 -65.849618 -145.67657 -70.434534 -142.71857 -74.970134 C -139.76057 -79.604334 -135.61944 -83.69627 -130.29504 -87.24587 C -134.73204 -89.71087 -138.18342 -92.668747 -140.64842 -96.119747 C -143.11342 -99.570747 -144.34586 -103.85998 -144.34586 -108.98718 C -144.34586 -116.87518 -141.28908 -123.13633 -135.17588 -127.77053 C -129.06268 -132.40473 -120.87881 -134.72153 -110.62441 -134.72153 z M -110.62441 -124.22087 C -114.56841 -124.22087 -117.67439 -122.93923 -119.94219 -120.37563 C -122.20999 -117.91063 -123.34405 -114.55816 -123.34405 -110.31836 C -123.34405 -106.57156 -121.9143 -103.46559 -119.0549 -101.00059 C -116.0969 -98.634186 -111.80767 -96.267678 -106.18747 -93.901278 C -103.72247 -95.577478 -101.75055 -97.894792 -100.27155 -100.85279 C -98.792552 -103.81079 -98.053083 -106.96596 -98.053083 -110.31836 C -98.053083 -114.55816 -99.236337 -117.91063 -101.60274 -120.37563 C -103.87054 -122.93923 -106.87761 -124.22087 -110.62441 -124.22087 z M -116.68812 -81.182158 C -119.64612 -78.815758 -121.81533 -76.103854 -123.19573 -73.047254 C -124.57613 -69.990654 -125.26641 -66.342502 -125.26641 -62.102702 C -125.26641 -56.285302 -123.83666 -51.700386 -120.97727 -48.347986 C -118.11787 -45.094186 -114.22322 -43.467664 -109.29322 -43.467664 C -104.46182 -43.467664 -100.71528 -45.094186 -98.053083 -48.347986 C -95.292283 -51.601786 -93.911734 -56.137508 -93.911734 -61.954908 C -93.911734 -65.208707 -94.946887 -67.969289 -97.017487 -70.237089 C -98.989487 -72.603489 -101.5041 -74.526213 -104.5607 -76.005213 C -107.6173 -77.582813 -111.65952 -79.308758 -116.68812 -81.182158 z " /></g></svg>
