<?xml version="1.0" encoding="UTF-8" standalone="no"?>
<!-- Created with Inkscape (http://www.inkscape.org/) -->

<svg
   width="172.6701mm"
   height="172.6701mm"
   viewBox="0 0 172.6701 172.6701"
   version="1.1"
   id="svg1"
   xml:space="preserve"
   xmlns="http://www.w3.org/2000/svg"
   xmlns:svg="http://www.w3.org/2000/svg"><defs
     id="defs1" /><g
     id="layer1"
     transform="translate(157.25102,198.81012)"><path
       id="path5"
       style="fill:#ffffff;fill-opacity:1;stroke-width:0.805188;stroke-linecap:round;stroke-linejoin:round"
       d="M -2.0863309 -198.17657 L -10.088943 -183.11289 L -10.930235 -165.68398 L -19.198981 -165.68398 L -11.423229 -155.47426 L -12.166336 -140.07934 C -28.353216 -157.12094 -50.823548 -166.77435 -74.327399 -166.78417 C -103.64471 -166.77397 -130.92652 -151.79225 -146.66717 -127.05894 L -157.25102 -127.05894 L -149.61996 -115.86014 L -157.25102 -26.140039 L -8.5138455 -26.140039 L 15.419061 -26.140039 L 8.0799737 -154.80195 L 15.419061 -165.68398 L 7.4593397 -165.68398 L 6.4490654 -183.39297 L -2.0863309 -198.17657 z M -83.43072 -192.21621 C -85.584619 -189.65499 -86.77489 -186.4211 -86.795372 -183.07465 C -86.842092 -175.15518 -80.459903 -168.69733 -72.540428 -168.65072 C -64.621155 -168.60402 -58.163395 -174.98588 -58.116503 -182.90515 C -58.102813 -186.26049 -59.266203 -189.5144 -61.404157 -192.10045 C -60.83125 -190.6836 -60.536835 -189.16959 -60.537027 -187.64129 C -60.575787 -181.07411 -65.930869 -175.78172 -72.498054 -175.82031 C -79.065241 -175.85911 -84.357627 -181.21415 -84.319038 -187.78134 C -84.309338 -189.30285 -84.007827 -190.80837 -83.43072 -192.21621 z M -108.61058 -119.90383 L -106.56988 -115.65241 C -118.02039 -110.72075 -124.90755 -103.12528 -127.23166 -92.865166 C -123.94389 -94.452366 -120.8264 -95.245899 -117.87875 -95.245899 C -112.21017 -95.245899 -107.76026 -93.715477 -104.52917 -90.654448 C -101.2414 -87.593418 -99.597175 -83.455306 -99.597175 -78.240218 C -99.597175 -75.009132 -100.47593 -72.118221 -102.23319 -69.567363 C -103.93376 -67.016505 -106.34294 -65.032415 -109.46066 -63.615271 C -112.52169 -62.198128 -116.0362 -61.489303 -120.0042 -61.489303 C -126.7498 -61.489303 -131.9366 -63.360105 -135.56449 -67.101363 C -139.13569 -70.842622 -140.92127 -76.255999 -140.92127 -83.341716 C -140.92127 -92.241376 -138.17223 -99.808775 -132.67371 -106.04421 C -127.11851 -112.33632 -119.09744 -116.95617 -108.61058 -119.90383 z M -50.025524 -119.13901 L -47.219493 -117.86364 L -47.219493 -68.716769 C -46.142464 -68.093226 -44.442111 -67.526269 -42.117996 -67.016097 C -39.793881 -66.562611 -37.951659 -66.279392 -36.591201 -66.16602 L -36.845966 -62.084615 L -71.537906 -62.084615 L -71.36789 -66.16602 C -66.32286 -66.732877 -62.467968 -67.583054 -59.803738 -68.716769 L -59.803738 -109.44555 L -71.197875 -109.44555 L -71.197875 -114.37703 C -67.569988 -114.66046 -63.828384 -115.19935 -59.973754 -115.99295 C -56.119124 -116.84324 -52.803125 -117.89193 -50.025524 -119.13901 z M -11.082681 -119.13901 L -8.2766507 -117.86364 L -8.2766507 -68.716769 C -7.1996217 -68.093226 -5.4987517 -67.526269 -3.1746365 -67.016097 C -0.8505214 -66.562611 0.99170026 -66.279392 2.3521579 -66.16602 L 2.0968763 -62.084615 L -32.594546 -62.084615 L -32.424531 -66.16602 C -27.3795 -66.732877 -23.525125 -67.583054 -20.860895 -68.716769 L -20.860895 -109.44555 L -32.254515 -109.44555 L -32.254515 -114.37703 C -28.626628 -114.66046 -24.885541 -115.19935 -21.030911 -115.99295 C -17.176281 -116.84324 -13.860282 -117.89193 -11.082681 -119.13901 z M -84.632197 -101.28274 C -82.648196 -101.28274 -81.174419 -100.68772 -80.210761 -99.497319 C -79.190418 -98.363604 -78.680105 -96.776539 -78.680105 -94.735852 C -78.680105 -92.695166 -79.190418 -91.107584 -80.210761 -89.973869 C -81.174419 -88.840154 -82.648196 -88.273198 -84.632197 -88.273198 C -86.616197 -88.273198 -88.118555 -88.840154 -89.138898 -89.973869 C -90.102556 -91.16427 -90.584288 -92.751852 -90.584288 -94.735852 C -90.584288 -96.833225 -90.102556 -98.448354 -89.138898 -99.582068 C -88.118555 -100.71578 -86.616197 -101.28274 -84.632197 -101.28274 z M -120.25948 -89.293807 C -122.64028 -89.293807 -125.21939 -88.330343 -127.99699 -86.403028 L -127.99699 -85.297669 C -127.99699 -79.118924 -127.31675 -74.583787 -125.95629 -71.692814 C -124.59583 -68.801842 -122.44181 -67.356645 -119.49415 -67.356645 C -117.05666 -67.356645 -115.18586 -68.291529 -113.88209 -70.162159 C -112.57832 -72.032788 -111.92665 -74.697123 -111.92665 -78.154952 C -111.92665 -81.669468 -112.66354 -84.390447 -114.13737 -86.317762 C -115.55452 -88.301762 -117.59525 -89.293807 -120.25948 -89.293807 z M -84.632197 -74.498845 C -82.648196 -74.498845 -81.174419 -73.903824 -80.210761 -72.713424 C -79.190418 -71.579709 -78.680105 -69.992127 -78.680105 -67.951441 C -78.680105 -65.910754 -79.190418 -64.323689 -80.210761 -63.189974 C -81.174419 -62.05626 -82.648196 -61.489303 -84.632197 -61.489303 C -86.616197 -61.489303 -88.118555 -62.05626 -89.138898 -63.189974 C -90.102556 -64.380375 -90.584288 -65.96744 -90.584288 -67.951441 C -90.584288 -70.048813 -90.102556 -71.664459 -89.138898 -72.798173 C -88.118555 -73.931888 -86.616197 -74.498845 -84.632197 -74.498845 z " /></g></svg>
