<?xml version="1.0" encoding="UTF-8" standalone="no"?>
<!-- Created with Inkscape (http://www.inkscape.org/) -->

<svg
   width="172.6701mm"
   height="172.6701mm"
   viewBox="0 0 172.6701 172.6701"
   version="1.1"
   id="svg1"
   xml:space="preserve"
   xmlns="http://www.w3.org/2000/svg"
   xmlns:svg="http://www.w3.org/2000/svg"><defs
     id="defs1" /><g
     id="layer1"
     transform="translate(157.25102,198.81012)"><path
       id="path5"
       style="fill:#ffffff;fill-opacity:1;stroke-width:0.805188;stroke-linecap:round;stroke-linejoin:round"
       d="M -2.0863309 -198.17657 L -10.088943 -183.11289 L -10.930235 -165.68398 L -19.198981 -165.68398 L -11.423229 -155.47426 L -12.166336 -140.07934 C -28.353216 -157.12094 -50.823548 -166.77435 -74.327399 -166.78417 C -103.64471 -166.77397 -130.92652 -151.79225 -146.66717 -127.05894 L -157.25102 -127.05894 L -149.61996 -115.86014 L -157.25102 -26.140039 L -8.5138455 -26.140039 L 15.419061 -26.140039 L 8.0799737 -154.80195 L 15.419061 -165.68398 L 7.4593397 -165.68398 L 6.4490654 -183.39297 L -2.0863309 -198.17657 z M -83.43072 -192.21621 C -85.584619 -189.65499 -86.77489 -186.4211 -86.795372 -183.07465 C -86.842092 -175.15518 -80.459903 -168.69733 -72.540428 -168.65072 C -64.621155 -168.60402 -58.163395 -174.98588 -58.116503 -182.90515 C -58.102813 -186.26049 -59.266203 -189.5144 -61.404157 -192.10045 C -60.83125 -190.6836 -60.536835 -189.16959 -60.537027 -187.64129 C -60.575787 -181.07411 -65.930869 -175.78172 -72.498054 -175.82031 C -79.065241 -175.85911 -84.357627 -181.21415 -84.319038 -187.78134 C -84.309338 -189.30285 -84.007827 -190.80837 -83.43072 -192.21621 z M -109.21933 -134.72153 C -98.866327 -134.72153 -90.633259 -132.50312 -84.520059 -128.06612 C -78.406859 -123.62912 -75.350593 -117.66365 -75.350593 -110.17005 C -75.350593 -106.12745 -76.829531 -102.08523 -79.787531 -98.042627 C -82.745531 -94.000027 -86.640173 -90.696755 -91.471573 -88.133155 C -85.358373 -85.175155 -80.576161 -81.724298 -77.125161 -77.780298 C -73.575562 -73.836298 -71.800939 -68.758402 -71.800939 -62.546603 C -71.800939 -53.574003 -75.0545 -46.425283 -81.5621 -41.100883 C -88.0697 -35.875084 -96.844942 -33.262085 -107.88814 -33.262085 C -120.01594 -33.262085 -129.38307 -35.677788 -135.98927 -40.509188 C -142.49687 -45.340588 -145.75095 -52.242818 -145.75095 -61.215418 C -145.75095 -65.849618 -144.27201 -70.434534 -141.31401 -74.970134 C -138.35601 -79.604334 -134.21436 -83.69627 -128.88996 -87.24587 C -133.32696 -89.71087 -136.77833 -92.668747 -139.24333 -96.119747 C -141.70833 -99.570747 -142.94078 -103.85998 -142.94078 -108.98718 C -142.94078 -116.87518 -139.884 -123.13633 -133.7708 -127.77053 C -127.6576 -132.40473 -119.47373 -134.72153 -109.21933 -134.72153 z M -28.910017 -134.27814 C -17.176617 -134.27814 -8.2040795 -131.02406 -1.9922798 -124.51646 C 4.31812 -118.00886 7.4738091 -108.59254 7.4738091 -96.267542 C 7.4738091 -80.787343 2.642403 -67.575284 -7.0203966 -56.630685 C -16.584596 -45.784685 -30.487446 -37.798107 -48.728445 -32.670907 L -52.278099 -40.065804 C -42.4181 -44.305604 -34.480716 -49.728379 -28.466116 -56.334579 C -22.451516 -63.039379 -18.457969 -70.828662 -16.485969 -79.702662 C -22.007569 -76.941862 -27.381666 -75.561829 -32.607465 -75.561829 C -42.467465 -75.561829 -50.256748 -78.224022 -55.975548 -83.548422 C -61.595748 -88.872821 -64.406041 -96.070736 -64.406041 -105.14194 C -64.406041 -110.76214 -62.926586 -115.79032 -59.968586 -120.22732 C -56.911986 -124.66432 -52.72166 -128.11569 -47.39726 -130.58069 C -41.97426 -133.04569 -35.812016 -134.27814 -28.910017 -134.27814 z M -109.21933 -124.22087 C -113.16333 -124.22087 -116.2693 -122.93923 -118.5371 -120.37563 C -120.8049 -117.91063 -121.93896 -114.55816 -121.93896 -110.31836 C -121.93896 -106.57156 -120.50922 -103.46559 -117.64982 -101.00059 C -114.69182 -98.634186 -110.40259 -96.267678 -104.78239 -93.901278 C -102.31739 -95.577478 -100.34547 -97.894792 -98.86647 -100.85279 C -97.38747 -103.81079 -96.648001 -106.96596 -96.648001 -110.31836 C -96.648001 -114.55816 -97.831255 -117.91063 -100.19765 -120.37563 C -102.46545 -122.93923 -105.47253 -124.22087 -109.21933 -124.22087 z M -29.797301 -124.07308 C -34.037101 -124.07308 -37.290662 -122.44604 -39.558462 -119.19224 C -41.826262 -115.93844 -42.960322 -111.30433 -42.960322 -105.28973 C -42.960322 -99.17653 -41.727873 -94.394319 -39.262873 -90.943319 C -36.699273 -87.590919 -33.100316 -85.914685 -28.466116 -85.914685 C -24.423516 -85.914685 -19.936989 -87.590919 -15.006989 -90.943319 L -15.006989 -92.866199 C -15.006989 -103.6136 -16.190243 -111.50127 -18.556643 -116.52987 C -20.923043 -121.55847 -24.670101 -124.07308 -29.797301 -124.07308 z M -115.28356 -81.182158 C -118.24156 -78.815758 -120.41077 -76.103854 -121.79117 -73.047254 C -123.17157 -69.990654 -123.86133 -66.342502 -123.86133 -62.102702 C -123.86133 -56.285302 -122.4321 -51.700386 -119.5727 -48.347986 C -116.7133 -45.094186 -112.81814 -43.467664 -107.88814 -43.467664 C -103.05674 -43.467664 -99.310201 -45.094186 -96.648001 -48.347986 C -93.887201 -51.601786 -92.506652 -56.137508 -92.506652 -61.954908 C -92.506652 -65.208707 -93.542322 -67.969289 -95.612922 -70.237089 C -97.584922 -72.603489 -100.09901 -74.526213 -103.15561 -76.005213 C -106.21221 -77.582813 -110.25496 -79.308758 -115.28356 -81.182158 z " /></g></svg>
