<?xml version="1.0" encoding="UTF-8" standalone="no"?>
<!-- Created with Inkscape (http://www.inkscape.org/) -->

<svg
   width="172.6701mm"
   height="172.6701mm"
   viewBox="0 0 172.6701 172.6701"
   version="1.1"
   id="svg1"
   xml:space="preserve"
   xmlns="http://www.w3.org/2000/svg"
   xmlns:svg="http://www.w3.org/2000/svg"><defs
     id="defs1" /><g
     id="layer1"
     transform="translate(157.25102,198.81012)"><path
       id="path5"
       style="fill:#ffffff;fill-opacity:1;stroke-width:0.805188;stroke-linecap:round;stroke-linejoin:round"
       d="M -2.0863309 -198.17657 L -10.088943 -183.11289 L -10.930235 -165.68398 L -19.198981 -165.68398 L -11.423229 -155.47426 L -12.166336 -140.07934 C -28.353216 -157.12094 -50.823548 -166.77435 -74.327399 -166.78417 C -103.64471 -166.77397 -130.92652 -151.79225 -146.66717 -127.05894 L -157.25102 -127.05894 L -149.61996 -115.86014 L -157.25102 -26.140039 L -8.5138455 -26.140039 L 15.419061 -26.140039 L 8.0799737 -154.80195 L 15.419061 -165.68398 L 7.4593397 -165.68398 L 6.4490654 -183.39297 L -2.0863309 -198.17657 z M -83.43072 -192.21621 C -85.584619 -189.65499 -86.77489 -186.4211 -86.795372 -183.07465 C -86.842092 -175.15518 -80.459903 -168.69733 -72.540428 -168.65072 C -64.621155 -168.60402 -58.163395 -174.98588 -58.116503 -182.90515 C -58.102813 -186.26049 -59.266203 -189.5144 -61.404157 -192.10045 C -60.83125 -190.6836 -60.536835 -189.16959 -60.537027 -187.64129 C -60.575787 -181.07411 -65.930869 -175.78172 -72.498054 -175.82031 C -79.065241 -175.85911 -84.357627 -181.21415 -84.319038 -187.78134 C -84.309338 -189.30285 -84.007827 -190.80837 -83.43072 -192.21621 z M -107.29696 -134.72153 C -96.943964 -134.72153 -88.710379 -132.50312 -82.597179 -128.06612 C -76.483979 -123.62912 -73.427713 -117.66365 -73.427713 -110.17005 C -73.427713 -106.12745 -74.906651 -102.08523 -77.864651 -98.042627 C -80.822651 -94.000027 -84.717293 -90.696755 -89.548693 -88.133155 C -83.435493 -85.175155 -78.653281 -81.724298 -75.202281 -77.780298 C -71.652682 -73.836298 -69.878059 -68.758402 -69.878059 -62.546603 C -69.878059 -53.574003 -73.13162 -46.425283 -79.63922 -41.100883 C -86.14682 -35.875084 -94.922579 -33.262085 -105.96578 -33.262085 C -118.09358 -33.262085 -127.46019 -35.677788 -134.06639 -40.509188 C -140.57399 -45.340588 -143.82807 -52.242818 -143.82807 -61.215418 C -143.82807 -65.849618 -142.34913 -70.434534 -139.39113 -74.970134 C -136.43313 -79.604334 -132.292 -83.69627 -126.9676 -87.24587 C -131.4046 -89.71087 -134.85545 -92.668747 -137.32045 -96.119747 C -139.78545 -99.570747 -141.0179 -103.85998 -141.0179 -108.98718 C -141.0179 -116.87518 -137.96112 -123.13633 -131.84792 -127.77053 C -125.73472 -132.40473 -117.55136 -134.72153 -107.29696 -134.72153 z M -29.945096 -134.57373 C -23.536096 -134.57373 -17.866314 -133.48938 -12.936315 -131.32018 C -8.0063148 -129.24958 -4.1613845 -126.29119 -1.4005846 -122.44579 C 1.3602153 -118.69899 2.7407647 -114.36056 2.7407647 -109.43056 C 2.7407647 -103.90896 1.1137255 -99.176463 -2.1400744 -95.232463 C -5.3938742 -91.288463 -10.22528 -88.280875 -16.63428 -86.210275 C -8.5490804 -84.435475 -2.879299 -81.526792 0.37450083 -77.484192 C 3.6283007 -73.441592 5.2553399 -67.969623 5.2553399 -61.067623 C 5.2553399 -55.053024 3.4310055 -49.925933 -0.21719432 -45.686133 C -3.7667942 -41.446333 -8.4009051 -38.291161 -14.119705 -36.220561 C -19.838505 -34.149961 -25.754776 -33.114291 -31.867976 -33.114291 C -40.741975 -33.114291 -48.284769 -34.938625 -54.496569 -38.586825 C -60.609768 -42.235025 -63.666035 -47.214015 -63.666035 -53.524414 C -63.666035 -57.172614 -62.581686 -59.982908 -60.412486 -61.954908 C -58.243287 -64.025508 -55.531899 -65.060661 -52.278099 -65.060661 C -48.925699 -65.060661 -45.524037 -63.729823 -42.073037 -61.067623 C -42.960437 -59.194223 -43.403706 -56.926104 -43.403706 -54.263904 C -43.403706 -51.108704 -42.467458 -48.545417 -40.594058 -46.573418 C -38.622058 -44.601418 -35.713375 -43.615459 -31.867976 -43.615459 C -23.388376 -43.615459 -19.148339 -49.482018 -19.148339 -61.215418 C -19.148339 -67.624418 -21.219163 -72.603924 -25.360362 -76.153524 C -29.402962 -79.703124 -35.170616 -81.477747 -42.664216 -81.477747 L -42.664216 -90.64773 C -28.170016 -91.83093 -20.922907 -98.091563 -20.922907 -109.43056 C -20.922907 -115.14936 -21.810477 -119.34021 -23.585277 -122.00241 C -25.360077 -124.76321 -27.77578 -126.14375 -30.83238 -126.14375 C -34.48058 -126.14375 -37.241679 -124.86159 -39.115078 -122.29799 C -40.889878 -119.73439 -41.776931 -116.62842 -41.776931 -112.98022 C -41.776931 -109.72642 -41.086657 -106.81773 -39.706257 -104.25413 C -42.467057 -101.29613 -46.016819 -99.817196 -50.355219 -99.817196 C -54.299219 -99.817196 -57.356002 -101.00045 -59.525202 -103.36685 C -61.694402 -105.73325 -62.77875 -108.79003 -62.77875 -112.53683 C -62.77875 -117.46683 -61.102517 -121.55877 -57.750117 -124.81257 C -54.299117 -128.16497 -50.059596 -130.62987 -45.030996 -132.20747 C -39.903797 -133.78507 -34.875095 -134.57373 -29.945096 -134.57373 z M -107.29696 -124.22087 C -111.24096 -124.22087 -114.34642 -122.93923 -116.61422 -120.37563 C -118.88202 -117.91063 -120.01608 -114.55816 -120.01608 -110.31836 C -120.01608 -106.57156 -118.58634 -103.46559 -115.72694 -101.00059 C -112.76894 -98.634186 -108.47971 -96.267678 -102.85951 -93.901278 C -100.39451 -95.577478 -98.42259 -97.894792 -96.94359 -100.85279 C -95.46459 -103.81079 -94.725121 -106.96596 -94.725121 -110.31836 C -94.725121 -114.55816 -95.908375 -117.91063 -98.274775 -120.37563 C -100.54257 -122.93923 -103.55016 -124.22087 -107.29696 -124.22087 z M -113.36068 -81.182158 C -116.31868 -78.815758 -118.48789 -76.103854 -119.86829 -73.047254 C -121.24869 -69.990654 -121.93896 -66.342502 -121.93896 -62.102702 C -121.93896 -56.285302 -120.50922 -51.700386 -117.64982 -48.347986 C -114.79042 -45.094186 -110.89578 -43.467664 -105.96578 -43.467664 C -101.13438 -43.467664 -97.387321 -45.094186 -94.725121 -48.347986 C -91.964321 -51.601786 -90.583771 -56.137508 -90.583771 -61.954908 C -90.583771 -65.208707 -91.619442 -67.969289 -93.690042 -70.237089 C -95.662042 -72.603489 -98.176134 -74.526213 -101.23273 -76.005213 C -104.28933 -77.582813 -108.33208 -79.308758 -113.36068 -81.182158 z " /></g></svg>
