<?xml version="1.0" encoding="UTF-8" standalone="no"?>
<!-- Created with Inkscape (http://www.inkscape.org/) -->

<svg
   width="172.6701mm"
   height="172.6701mm"
   viewBox="0 0 172.6701 172.6701"
   version="1.1"
   id="svg1"
   xml:space="preserve"
   xmlns="http://www.w3.org/2000/svg"
   xmlns:svg="http://www.w3.org/2000/svg"><defs
     id="defs1" /><g
     id="layer1"
     transform="translate(157.25102,198.81012)"><path
       id="path5"
       style="fill:#ffffff;fill-opacity:1;stroke-width:0.805188;stroke-linecap:round;stroke-linejoin:round"
       d="M -2.0863309 -198.17657 L -10.088943 -183.11289 L -10.930235 -165.68398 L -19.198981 -165.68398 L -11.423229 -155.47426 L -12.166336 -140.07934 C -28.353216 -157.12094 -50.823548 -166.77435 -74.327399 -166.78417 C -103.64471 -166.77397 -130.92652 -151.79225 -146.66717 -127.05894 L -157.25102 -127.05894 L -149.61996 -115.86014 L -157.25102 -26.140039 L -8.5138455 -26.140039 L 15.419061 -26.140039 L 8.0799737 -154.80195 L 15.419061 -165.68398 L 7.4593397 -165.68398 L 6.4490654 -183.39297 L -2.0863309 -198.17657 z M -83.43072 -192.21621 C -85.584619 -189.65499 -86.77489 -186.4211 -86.795372 -183.07465 C -86.842092 -175.15518 -80.459903 -168.69733 -72.540428 -168.65072 C -64.621155 -168.60402 -58.163395 -174.98588 -58.116503 -182.90515 C -58.102813 -186.26049 -59.266203 -189.5144 -61.404157 -192.10045 C -60.83125 -190.6836 -60.536835 -189.16959 -60.537027 -187.64129 C -60.575787 -181.07411 -65.930869 -175.78172 -72.498054 -175.82031 C -79.065241 -175.85911 -84.357627 -181.21415 -84.319038 -187.78134 C -84.309338 -189.30285 -84.007827 -190.80837 -83.43072 -192.21621 z M -13.675804 -119.73381 C -9.9912316 -119.73381 -6.7318766 -119.11073 -3.8975898 -117.86364 C -1.0633031 -116.67324 1.1473629 -114.97237 2.7345635 -112.76163 C 4.3217641 -110.60757 5.1152967 -108.11368 5.1152967 -105.27939 C 5.1152967 -102.10499 4.1804125 -99.384015 2.3097832 -97.116586 C 0.43915397 -94.849156 -2.3384687 -93.120223 -6.0230415 -91.929822 C -1.3748112 -90.909479 1.8845438 -89.237189 3.755173 -86.913074 C 5.6258023 -84.588959 6.5612033 -81.442892 6.5612033 -77.474891 C 6.5612033 -74.017061 5.5125143 -71.069506 3.4151421 -68.632019 C 1.3744556 -66.194533 -1.289879 -64.380375 -4.5776517 -63.189974 C -7.8654243 -61.999574 -11.266648 -61.404554 -14.781163 -61.404554 C -19.882879 -61.404554 -24.219504 -62.453243 -27.790705 -64.550615 C -31.305221 -66.647987 -33.062218 -69.510317 -33.062218 -73.138204 C -33.062218 -75.235577 -32.438617 -76.851222 -31.191531 -77.984937 C -29.944445 -79.175337 -28.38596 -79.770358 -26.515331 -79.770358 C -24.588016 -79.770358 -22.631989 -79.005405 -20.647989 -77.474891 C -21.15816 -76.397862 -21.413317 -75.094016 -21.413317 -73.563501 C -21.413317 -71.749558 -20.87494 -70.275781 -19.797911 -69.142066 C -18.664197 -68.008351 -16.991907 -67.441394 -14.781163 -67.441394 C -9.90619 -67.441394 -7.4689481 -70.814037 -7.4689481 -77.55964 C -7.4689481 -81.244213 -8.6589887 -84.10706 -11.03979 -86.147746 C -13.363905 -88.188433 -16.68042 -89.208541 -20.988536 -89.208541 L -20.988536 -94.480571 C -12.655733 -95.1608 -8.4890408 -98.760535 -8.4890408 -105.27939 C -8.4890408 -108.56717 -8.9993535 -110.97583 -10.019697 -112.50634 C -11.04004 -114.09354 -12.428593 -114.88759 -14.185851 -114.88759 C -16.283223 -114.88759 -17.870805 -114.15071 -18.947834 -112.67688 C -19.968177 -111.20305 -20.477973 -109.41747 -20.477973 -107.3201 C -20.477973 -105.44947 -20.081465 -103.77718 -19.287865 -102.30335 C -20.875065 -100.60278 -22.915799 -99.752084 -25.409972 -99.752084 C -27.677401 -99.752084 -29.434399 -100.43233 -30.681485 -101.79279 C -31.928571 -103.15324 -32.552172 -104.91076 -32.552172 -107.06482 C -32.552172 -109.8991 -31.588707 -112.25164 -29.661392 -114.12227 C -27.677391 -116.04958 -25.239632 -117.46671 -22.34866 -118.37369 C -19.401002 -119.28066 -16.510091 -119.73381 -13.675804 -119.73381 z M -56.870584 -119.64906 C -50.238353 -119.64906 -45.16484 -117.15466 -41.650324 -112.16631 C -38.079123 -107.23465 -36.293545 -100.06428 -36.293545 -90.654448 C -36.293545 -81.244616 -38.079123 -74.017081 -41.650324 -68.97205 C -45.16484 -63.983706 -50.238353 -61.489303 -56.870584 -61.489303 C -63.502815 -61.489303 -68.604391 -63.983706 -72.175593 -68.97205 C -75.746794 -74.017081 -77.532372 -81.244616 -77.532372 -90.654448 C -77.532372 -100.00759 -75.746794 -107.17797 -72.175593 -112.16631 C -68.604391 -117.15466 -63.502815 -119.64906 -56.870584 -119.64906 z M -138.41289 -119.05375 L -134.16147 -118.969 C -128.15279 -118.85563 -124.97865 -118.79847 -124.63854 -118.79847 L -112.56434 -118.969 L -110.09834 -117.18306 L -110.86367 -110.72092 L -131.95076 -110.72092 L -133.14138 -96.521273 C -130.19372 -97.258188 -127.52939 -97.626632 -125.14859 -97.626632 C -119.5367 -97.626632 -114.9735 -96.124274 -111.45898 -93.11993 C -107.88778 -90.172272 -106.1022 -85.836165 -106.1022 -80.110905 C -106.1022 -76.539704 -106.95238 -73.336993 -108.65295 -70.502706 C -110.29684 -67.66842 -112.67744 -65.429173 -115.79515 -63.785287 C -118.91287 -62.198086 -122.59783 -61.404554 -126.84926 -61.404554 C -130.30709 -61.404554 -133.45315 -61.886286 -136.28744 -62.849943 C -139.06504 -63.813601 -141.24713 -65.14551 -142.83433 -66.846082 C -144.42153 -68.60334 -145.21506 -70.559366 -145.21506 -72.713424 C -145.21506 -74.980853 -144.59198 -76.709787 -143.34489 -77.900188 C -142.09781 -79.147274 -140.56687 -79.770358 -138.75292 -79.770358 C -137.73258 -79.770358 -136.71247 -79.572362 -135.69213 -79.175562 C -134.6151 -78.778762 -133.65112 -78.211805 -132.80083 -77.474891 C -133.311 -76.28449 -133.56616 -75.037289 -133.56616 -73.733517 C -133.56616 -71.862888 -133.02778 -70.332466 -131.95076 -69.142066 C -130.81704 -67.951665 -129.11669 -67.356645 -126.84926 -67.356645 C -121.74754 -67.356645 -119.1965 -71.608045 -119.1965 -80.110905 C -119.1965 -84.135593 -119.99003 -87.054567 -121.57723 -88.86851 C -123.16443 -90.73914 -125.29039 -91.674541 -127.95462 -91.674541 C -129.5985 -91.674541 -131.3555 -91.36274 -133.22613 -90.739197 C -135.09676 -90.115654 -136.93898 -89.236897 -138.75292 -88.103182 L -143.42964 -92.609884 L -141.21892 -116.75776 L -138.41289 -119.05375 z M -56.870584 -115.31237 C -59.761556 -115.31237 -61.858934 -113.41351 -63.162706 -109.61556 C -64.409792 -105.81762 -65.033393 -99.497422 -65.033393 -90.654448 C -65.033393 -81.868159 -64.409792 -75.576025 -63.162706 -71.778081 C -61.858934 -68.036822 -59.761556 -66.16602 -56.870584 -66.16602 C -53.979611 -66.16602 -51.910297 -68.036822 -50.663211 -71.778081 C -49.359439 -75.576025 -48.707775 -81.868159 -48.707775 -90.654448 C -48.707775 -99.440737 -49.359439 -105.73287 -50.663211 -109.53081 C -51.910297 -113.38544 -53.979611 -115.31237 -56.870584 -115.31237 z M -90.711929 -101.28274 C -88.727928 -101.28274 -87.254151 -100.68772 -86.290493 -99.497319 C -85.27015 -98.363604 -84.759838 -96.776539 -84.759838 -94.735852 C -84.759838 -92.695166 -85.27015 -91.107584 -86.290493 -89.973869 C -87.254151 -88.840154 -88.727928 -88.273198 -90.711929 -88.273198 C -92.69593 -88.273198 -94.198287 -88.840154 -95.218631 -89.973869 C -96.182288 -91.16427 -96.66402 -92.751852 -96.66402 -94.735852 C -96.66402 -96.833225 -96.182288 -98.448354 -95.218631 -99.582068 C -94.198287 -100.71578 -92.69593 -101.28274 -90.711929 -101.28274 z M -90.711929 -74.498845 C -88.727928 -74.498845 -87.254151 -73.903824 -86.290493 -72.713424 C -85.27015 -71.579709 -84.759838 -69.992127 -84.759838 -67.951441 C -84.759838 -65.910754 -85.27015 -64.323689 -86.290493 -63.189974 C -87.254151 -62.05626 -88.727928 -61.489303 -90.711929 -61.489303 C -92.69593 -61.489303 -94.198287 -62.05626 -95.218631 -63.189974 C -96.182288 -64.380375 -96.66402 -65.96744 -96.66402 -67.951441 C -96.66402 -70.048813 -96.182288 -71.664459 -95.218631 -72.798173 C -94.198287 -73.931888 -92.69593 -74.498845 -90.711929 -74.498845 z " /></g></svg>
