<?xml version="1.0" encoding="UTF-8" standalone="no"?>
<!-- Created with Inkscape (http://www.inkscape.org/) -->

<svg
   width="172.6701mm"
   height="172.6701mm"
   viewBox="0 0 172.6701 172.6701"
   version="1.1"
   id="svg1"
   xml:space="preserve"
   xmlns="http://www.w3.org/2000/svg"
   xmlns:svg="http://www.w3.org/2000/svg"><defs
     id="defs1" /><g
     id="layer1"
     transform="translate(157.25102,198.81012)"><path
       id="path5"
       style="fill:#ffffff;fill-opacity:1;stroke-width:0.805188;stroke-linecap:round;stroke-linejoin:round"
       d="M -2.0863309 -198.17657 L -10.088943 -183.11289 L -10.930235 -165.68398 L -19.198981 -165.68398 L -11.423229 -155.47426 L -12.166336 -140.07934 C -28.353216 -157.12094 -50.823548 -166.77435 -74.327399 -166.78417 C -103.64471 -166.77397 -130.92652 -151.79225 -146.66717 -127.05894 L -157.25102 -127.05894 L -149.61996 -115.86014 L -157.25102 -26.140039 L -8.5138455 -26.140039 L 15.419061 -26.140039 L 8.0799737 -154.80195 L 15.419061 -165.68398 L 7.4593397 -165.68398 L 6.4490654 -183.39297 L -2.0863309 -198.17657 z M -83.43072 -192.21621 C -85.584619 -189.65499 -86.77489 -186.4211 -86.795372 -183.07465 C -86.842092 -175.15518 -80.459903 -168.69733 -72.540428 -168.65072 C -64.621155 -168.60402 -58.163395 -174.98588 -58.116503 -182.90515 C -58.102813 -186.26049 -59.266203 -189.5144 -61.404157 -192.10045 C -60.83125 -190.6836 -60.536835 -189.16959 -60.537027 -187.64129 C -60.575787 -181.07411 -65.930869 -175.78172 -72.498054 -175.82031 C -79.065241 -175.85911 -84.357627 -181.21415 -84.319038 -187.78134 C -84.309338 -189.30285 -84.007827 -190.80837 -83.43072 -192.21621 z M -16.226553 -120.07436 C -11.691694 -119.84761 -8.0072509 -118.85557 -5.1729642 -117.09831 L -25.409972 -83.767013 L -12.40043 -83.767013 L -11.550353 -97.626632 C -9.7364092 -97.626632 -8.4325638 -97.995076 -7.6389635 -98.731991 C -6.7886775 -99.468905 -6.1364964 -100.71611 -5.6830106 -102.47336 L -0.83679474 -102.47336 L -0.92154409 -83.341716 C 1.2325138 -82.718173 3.9534925 -82.066508 7.2412652 -81.38628 L 6.8159681 -77.304875 L -1.3468411 -77.304875 L -1.3468411 -62.084615 L -12.40043 -62.084615 L -12.40043 -77.304875 L -36.973607 -77.304875 L -37.654186 -80.36567 L -16.226553 -120.07436 z M -127.3593 -119.73381 C -123.67473 -119.73381 -120.41538 -119.11073 -117.58109 -117.86364 C -114.7468 -116.67324 -112.53562 -114.97237 -110.94842 -112.76163 C -109.36122 -110.60757 -108.56769 -108.11368 -108.56769 -105.27939 C -108.56769 -102.10499 -109.50309 -99.384015 -111.37372 -97.116586 C -113.24435 -94.849156 -116.02197 -93.120223 -119.70654 -91.929822 C -115.05831 -90.909479 -111.79896 -89.237189 -109.92833 -86.913074 C -108.0577 -84.588959 -107.1223 -81.442892 -107.1223 -77.474891 C -107.1223 -74.017061 -108.17099 -71.069506 -110.26836 -68.632019 C -112.30904 -66.194533 -114.97338 -64.380375 -118.26115 -63.189974 C -121.54892 -61.999574 -124.95015 -61.404554 -128.46466 -61.404554 C -133.56638 -61.404554 -137.90249 -62.453243 -141.47369 -64.550615 C -144.9882 -66.647987 -146.74572 -69.510317 -146.74572 -73.138204 C -146.74572 -75.235577 -146.12212 -76.851222 -144.87503 -77.984937 C -143.62795 -79.175337 -142.06894 -79.770358 -140.19831 -79.770358 C -138.271 -79.770358 -136.31549 -79.005405 -134.33149 -77.474891 C -134.84166 -76.397862 -135.09682 -75.094016 -135.09682 -73.563501 C -135.09682 -71.749558 -134.55844 -70.275781 -133.48141 -69.142066 C -132.3477 -68.008351 -130.67541 -67.441394 -128.46466 -67.441394 C -123.58969 -67.441394 -121.15193 -70.814037 -121.15193 -77.55964 C -121.15193 -81.244213 -122.34249 -84.10706 -124.72329 -86.147746 C -127.0474 -88.188433 -130.3634 -89.208541 -134.67152 -89.208541 L -134.67152 -94.480571 C -126.33872 -95.1608 -122.17254 -98.760535 -122.17254 -105.27939 C -122.17254 -108.56717 -122.68234 -110.97583 -123.70268 -112.50634 C -124.72302 -114.09354 -126.11209 -114.88759 -127.86935 -114.88759 C -129.96672 -114.88759 -131.55379 -114.15071 -132.63082 -112.67688 C -133.65116 -111.20305 -134.16147 -109.41747 -134.16147 -107.3201 C -134.16147 -105.44947 -133.76445 -103.77718 -132.97085 -102.30335 C -134.55805 -100.60278 -136.59878 -99.752084 -139.09296 -99.752084 C -141.36038 -99.752084 -143.1179 -100.43233 -144.36498 -101.79279 C -145.61207 -103.15324 -146.23567 -104.91076 -146.23567 -107.06482 C -146.23567 -109.8991 -145.27169 -112.25164 -143.34438 -114.12227 C -141.36037 -116.04958 -138.92313 -117.46671 -136.03216 -118.37369 C -133.0845 -119.28066 -130.19359 -119.73381 -127.3593 -119.73381 z M -60.356676 -119.73381 C -56.672103 -119.73381 -53.412748 -119.11073 -50.578461 -117.86364 C -47.744175 -116.67324 -45.533509 -114.97237 -43.946308 -112.76163 C -42.359108 -110.60757 -41.565058 -108.11368 -41.565058 -105.27939 C -41.565058 -102.10499 -42.500459 -99.384015 -44.371088 -97.116586 C -46.241718 -94.849156 -49.01934 -93.120223 -52.703913 -91.929822 C -48.055683 -90.909479 -44.796328 -89.237189 -42.925699 -86.913074 C -41.055069 -84.588959 -40.119668 -81.442892 -40.119668 -77.474891 C -40.119668 -74.017061 -41.168357 -71.069506 -43.265729 -68.632019 C -45.306416 -66.194533 -47.970751 -64.380375 -51.258523 -63.189974 C -54.546296 -61.999574 -57.947519 -61.404554 -61.462035 -61.404554 C -66.563751 -61.404554 -70.900375 -62.453243 -74.471577 -64.550615 C -77.986092 -66.647987 -79.743089 -69.510317 -79.743089 -73.138204 C -79.743089 -75.235577 -79.119489 -76.851222 -77.872403 -77.984937 C -76.625316 -79.175337 -75.066315 -79.770358 -73.195686 -79.770358 C -71.268371 -79.770358 -69.312861 -79.005405 -67.32886 -77.474891 C -67.839032 -76.397862 -68.094188 -75.094016 -68.094188 -73.563501 C -68.094188 -71.749558 -67.555812 -70.275781 -66.478783 -69.142066 C -65.345068 -68.008351 -63.672778 -67.441394 -61.462035 -67.441394 C -56.587062 -67.441394 -54.149303 -70.814037 -54.149303 -77.55964 C -54.149303 -81.244213 -55.33986 -84.10706 -57.720661 -86.147746 C -60.044776 -88.188433 -63.360775 -89.208541 -67.668891 -89.208541 L -67.668891 -94.480571 C -59.336088 -95.1608 -55.169912 -98.760535 -55.169912 -105.27939 C -55.169912 -108.56717 -55.680225 -110.97583 -56.700568 -112.50634 C -57.720912 -114.09354 -59.109465 -114.88759 -60.866722 -114.88759 C -62.964095 -114.88759 -64.55116 -114.15071 -65.628189 -112.67688 C -66.648532 -111.20305 -67.158845 -109.41747 -67.158845 -107.3201 C -67.158845 -105.44947 -66.762337 -103.77718 -65.968736 -102.30335 C -67.555937 -100.60278 -69.596154 -99.752084 -72.090327 -99.752084 C -74.357756 -99.752084 -76.11527 -100.43233 -77.362356 -101.79279 C -78.609442 -103.15324 -79.233043 -104.91076 -79.233043 -107.06482 C -79.233043 -109.8991 -78.269062 -112.25164 -76.341747 -114.12227 C -74.357746 -116.04958 -71.920504 -117.46671 -69.029532 -118.37369 C -66.081873 -119.28066 -63.190963 -119.73381 -60.356676 -119.73381 z M -92.072569 -101.28274 C -90.088569 -101.28274 -88.614275 -100.68772 -87.650617 -99.497319 C -86.630274 -98.363604 -86.120478 -96.776539 -86.120478 -94.735852 C -86.120478 -92.695166 -86.630274 -91.107584 -87.650617 -89.973869 C -88.614275 -88.840154 -90.088569 -88.273198 -92.072569 -88.273198 C -94.05657 -88.273198 -95.558411 -88.840154 -96.578754 -89.973869 C -97.542412 -91.16427 -98.024144 -92.751852 -98.024144 -94.735852 C -98.024144 -96.833225 -97.542412 -98.448354 -96.578754 -99.582068 C -95.558411 -100.71578 -94.05657 -101.28274 -92.072569 -101.28274 z M -92.072569 -74.498845 C -90.088569 -74.498845 -88.614275 -73.903824 -87.650617 -72.713424 C -86.630274 -71.579709 -86.120478 -69.992127 -86.120478 -67.951441 C -86.120478 -65.910754 -86.630274 -64.323689 -87.650617 -63.189974 C -88.614275 -62.05626 -90.088569 -61.489303 -92.072569 -61.489303 C -94.05657 -61.489303 -95.558411 -62.05626 -96.578754 -63.189974 C -97.542412 -64.380375 -98.024144 -65.96744 -98.024144 -67.951441 C -98.024144 -70.048813 -97.542412 -71.664459 -96.578754 -72.798173 C -95.558411 -73.931888 -94.05657 -74.498845 -92.072569 -74.498845 z " /></g></svg>
