<?xml version="1.0" encoding="UTF-8" standalone="no"?>
<!-- Created with Inkscape (http://www.inkscape.org/) -->

<svg
   width="172.6701mm"
   height="172.6701mm"
   viewBox="0 0 172.6701 172.6701"
   version="1.1"
   id="svg1"
   xml:space="preserve"
   xmlns="http://www.w3.org/2000/svg"
   xmlns:svg="http://www.w3.org/2000/svg"><defs
     id="defs1" /><g
     id="layer1"
     transform="translate(157.25102,198.81012)"><path
       id="path5"
       style="fill:#ffffff;fill-opacity:1;stroke-width:0.805188;stroke-linecap:round;stroke-linejoin:round"
       d="M -2.0863309 -198.17657 L -10.088943 -183.11289 L -10.930235 -165.68398 L -19.198981 -165.68398 L -11.423229 -155.47426 L -12.166336 -140.07934 C -28.353216 -157.12094 -50.823548 -166.77435 -74.327399 -166.78417 C -103.64471 -166.77397 -130.92652 -151.79225 -146.66717 -127.05894 L -157.25102 -127.05894 L -149.61996 -115.86014 L -157.25102 -26.140039 L -8.5138455 -26.140039 L 15.419061 -26.140039 L 8.0799737 -154.80195 L 15.419061 -165.68398 L 7.4593397 -165.68398 L 6.4490654 -183.39297 L -2.0863309 -198.17657 z M -83.43072 -192.21621 C -85.584619 -189.65499 -86.77489 -186.4211 -86.795372 -183.07465 C -86.842092 -175.15518 -80.459903 -168.69733 -72.540428 -168.65072 C -64.621155 -168.60402 -58.163395 -174.98588 -58.116503 -182.90515 C -58.102813 -186.26049 -59.266203 -189.5144 -61.404157 -192.10045 C -60.83125 -190.6836 -60.536835 -189.16959 -60.537027 -187.64129 C -60.575787 -181.07411 -65.930869 -175.78172 -72.498054 -175.82031 C -79.065241 -175.85911 -84.357627 -181.21415 -84.319038 -187.78134 C -84.309338 -189.30285 -84.007827 -190.80837 -83.43072 -192.21621 z M -3.7275744 -119.90383 L -1.6868721 -115.65241 C -13.137391 -110.72075 -20.024545 -103.12528 -22.34866 -92.865166 C -19.060887 -94.452366 -15.943401 -95.245899 -12.995742 -95.245899 C -7.327169 -95.245899 -2.8772566 -93.715477 0.35383026 -90.654448 C 3.6416029 -87.593418 5.2853122 -83.455306 5.2853122 -78.240218 C 5.2853122 -75.009132 4.4070719 -72.118221 2.6498141 -69.567363 C 0.9492421 -67.016505 -1.4599362 -65.032415 -4.5776517 -63.615271 C -7.6386814 -62.198128 -11.153193 -61.489303 -15.121194 -61.489303 C -21.866797 -61.489303 -27.053598 -63.360105 -30.681485 -67.101363 C -34.252686 -70.842622 -36.038264 -76.255999 -36.038264 -83.341716 C -36.038264 -92.241376 -33.289221 -99.808775 -27.790705 -106.04421 C -22.235503 -112.33632 -14.214435 -116.95617 -3.7275744 -119.90383 z M -60.781973 -119.64906 C -54.149742 -119.64906 -49.076229 -117.15466 -45.561713 -112.16631 C -41.990512 -107.23465 -40.204934 -100.06428 -40.204934 -90.654448 C -40.204934 -81.244616 -41.990512 -74.017081 -45.561713 -68.97205 C -49.076229 -63.983706 -54.149742 -61.489303 -60.781973 -61.489303 C -67.414204 -61.489303 -72.515781 -63.983706 -76.086982 -68.97205 C -79.658183 -74.017081 -81.443761 -81.244616 -81.443761 -90.654448 C -81.443761 -100.00759 -79.658183 -107.17797 -76.086982 -112.16631 C -72.515781 -117.15466 -67.414204 -119.64906 -60.781973 -119.64906 z M -122.76785 -119.13901 L -119.96182 -117.86364 L -119.96182 -68.716769 C -118.88479 -68.093226 -117.18444 -67.526269 -114.86033 -67.016097 C -112.53621 -66.562611 -110.69347 -66.279392 -109.33301 -66.16602 L -109.5883 -62.084615 L -144.27972 -62.084615 L -144.1097 -66.16602 C -139.06467 -66.732877 -135.2103 -67.583054 -132.54607 -68.716769 L -132.54607 -109.44555 L -143.93969 -109.44555 L -143.93969 -114.37703 C -140.3118 -114.66046 -136.57071 -115.19935 -132.71608 -115.99295 C -128.86145 -116.84324 -125.54545 -117.89193 -122.76785 -119.13901 z M -60.781973 -115.31237 C -63.672945 -115.31237 -65.770323 -113.41351 -67.074095 -109.61556 C -68.321182 -105.81762 -68.944782 -99.497422 -68.944782 -90.654448 C -68.944782 -81.868159 -68.321182 -75.576025 -67.074095 -71.778081 C -65.770323 -68.036822 -63.672945 -66.16602 -60.781973 -66.16602 C -57.891 -66.16602 -55.821686 -68.036822 -54.5746 -71.778081 C -53.270828 -75.576025 -52.619164 -81.868159 -52.619164 -90.654448 C -52.619164 -99.440737 -53.270828 -105.73287 -54.5746 -109.53081 C -55.821686 -113.38544 -57.891 -115.31237 -60.781973 -115.31237 z M -94.623318 -101.28274 C -92.639317 -101.28274 -91.16554 -100.68772 -90.201883 -99.497319 C -89.181539 -98.363604 -88.671227 -96.776539 -88.671227 -94.735852 C -88.671227 -92.695166 -89.181539 -91.107584 -90.201883 -89.973869 C -91.16554 -88.840154 -92.639317 -88.273198 -94.623318 -88.273198 C -96.607319 -88.273198 -98.109677 -88.840154 -99.13002 -89.973869 C -100.09368 -91.16427 -100.57541 -92.751852 -100.57541 -94.735852 C -100.57541 -96.833225 -100.09368 -98.448354 -99.13002 -99.582068 C -98.109677 -100.71578 -96.607319 -101.28274 -94.623318 -101.28274 z M -15.376476 -89.293807 C -17.757277 -89.293807 -20.336387 -88.330343 -23.113988 -86.403028 L -23.113988 -85.297669 C -23.113988 -79.118924 -22.433743 -74.583787 -21.073286 -71.692814 C -19.712828 -68.801842 -17.558806 -67.356645 -14.611148 -67.356645 C -12.173661 -67.356645 -10.302859 -68.291529 -8.9990872 -70.162159 C -7.6953153 -72.032788 -7.043651 -74.697123 -7.043651 -78.154952 C -7.043651 -81.669468 -7.7805397 -84.390447 -9.2543688 -86.317762 C -10.671512 -88.301762 -12.712246 -89.293807 -15.376476 -89.293807 z M -94.623318 -74.498845 C -92.639317 -74.498845 -91.16554 -73.903824 -90.201883 -72.713424 C -89.181539 -71.579709 -88.671227 -69.992127 -88.671227 -67.951441 C -88.671227 -65.910754 -89.181539 -64.323689 -90.201883 -63.189974 C -91.16554 -62.05626 -92.639317 -61.489303 -94.623318 -61.489303 C -96.607319 -61.489303 -98.109677 -62.05626 -99.13002 -63.189974 C -100.09368 -64.380375 -100.57541 -65.96744 -100.57541 -67.951441 C -100.57541 -70.048813 -100.09368 -71.664459 -99.13002 -72.798173 C -98.109677 -73.931888 -96.607319 -74.498845 -94.623318 -74.498845 z " /></g></svg>
