<?xml version="1.0" encoding="UTF-8" standalone="no"?>
<!-- Created with Inkscape (http://www.inkscape.org/) -->

<svg
   width="172.6701mm"
   height="172.6701mm"
   viewBox="0 0 172.6701 172.6701"
   version="1.1"
   id="svg1"
   xml:space="preserve"
   xmlns="http://www.w3.org/2000/svg"
   xmlns:svg="http://www.w3.org/2000/svg"><defs
     id="defs1" /><g
     id="layer1"
     transform="translate(157.25102,198.81012)"><path
       id="path5"
       style="fill:#ffffff;fill-opacity:1;stroke-width:0.805188;stroke-linecap:round;stroke-linejoin:round"
       d="M -2.0863309 -198.17657 L -10.088943 -183.11289 L -10.930235 -165.68398 L -19.198981 -165.68398 L -11.423229 -155.47426 L -12.166336 -140.07934 C -28.353216 -157.12094 -50.823548 -166.77435 -74.327399 -166.78417 C -103.64471 -166.77397 -130.92652 -151.79225 -146.66717 -127.05894 L -157.25102 -127.05894 L -149.61996 -115.86014 L -157.25102 -26.140039 L -8.5138455 -26.140039 L 15.419061 -26.140039 L 8.0799737 -154.80195 L 15.419061 -165.68398 L 7.4593397 -165.68398 L 6.4490654 -183.39297 L -2.0863309 -198.17657 z M -83.43072 -192.21621 C -85.584619 -189.65499 -86.77489 -186.4211 -86.795372 -183.07465 C -86.842092 -175.15518 -80.459903 -168.69733 -72.540428 -168.65072 C -64.621155 -168.60402 -58.163395 -174.98588 -58.116503 -182.90515 C -58.102813 -186.26049 -59.266203 -189.5144 -61.404157 -192.10045 C -60.83125 -190.6836 -60.536835 -189.16959 -60.537027 -187.64129 C -60.575787 -181.07411 -65.930869 -175.78172 -72.498054 -175.82031 C -79.065241 -175.85911 -84.357627 -181.21415 -84.319038 -187.78134 C -84.309338 -189.30285 -84.007827 -190.80837 -83.43072 -192.21621 z M -16.099429 -119.81908 C -10.147427 -119.81908 -5.4137778 -118.54381 -1.8992622 -115.99295 C 1.6152534 -113.44209 3.3722507 -110.01229 3.3722507 -105.70418 C 3.3722507 -103.38006 2.522074 -101.05611 0.82150197 -98.731991 C -0.87907008 -96.407876 -3.1183164 -94.50901 -5.8959175 -93.035181 C -2.3814019 -91.334609 0.36815717 -89.350519 2.3521579 -87.08309 C 4.3928444 -84.81566 5.412953 -81.896169 5.412953 -78.324968 C 5.412953 -73.166566 3.5421509 -69.057034 -0.19910757 -65.996005 C -3.9403661 -62.991661 -8.9852987 -61.489303 -15.334101 -61.489303 C -22.306446 -61.489303 -27.691243 -62.878373 -31.489187 -65.655974 C -35.230446 -68.433575 -37.101248 -72.401238 -37.101248 -77.55964 C -37.101248 -80.223869 -36.251071 -82.86014 -34.550499 -85.467684 C -32.849927 -88.131914 -30.468812 -90.483931 -27.407783 -92.524618 C -29.958641 -93.941761 -31.942731 -95.642631 -33.359874 -97.626632 C -34.777018 -99.610633 -35.485843 -102.07646 -35.485843 -105.02411 C -35.485843 -109.55897 -33.728329 -113.15871 -30.213813 -115.82294 C -26.699297 -118.48717 -21.994745 -119.81908 -16.099429 -119.81908 z M -122.98024 -119.13901 L -120.17421 -117.86364 L -120.17421 -68.716769 C -119.09718 -68.093226 -117.39683 -67.526269 -115.07272 -67.016097 C -112.7486 -66.562611 -110.90638 -66.279392 -109.54592 -66.16602 L -109.80069 -62.084615 L -144.49263 -62.084615 L -144.32261 -66.16602 C -139.27758 -66.732877 -135.42269 -67.583054 -132.75846 -68.716769 L -132.75846 -109.44555 L -144.15259 -109.44555 L -144.15259 -114.37703 C -140.52471 -114.66046 -136.7831 -115.19935 -132.92847 -115.99295 C -129.07384 -116.84324 -125.75784 -117.89193 -122.98024 -119.13901 z M -74.513951 -119.05375 L -70.262531 -118.969 C -64.253843 -118.85563 -61.079196 -118.79847 -60.739082 -118.79847 L -48.6654 -118.969 L -46.199401 -117.18306 L -46.964728 -110.72092 L -68.051813 -110.72092 L -69.241922 -96.521273 C -66.294263 -97.258188 -63.630446 -97.626632 -61.249645 -97.626632 C -55.637757 -97.626632 -51.074557 -96.124274 -47.560041 -93.11993 C -43.98884 -90.172272 -42.203262 -85.836165 -42.203262 -80.110905 C -42.203262 -76.539704 -43.053439 -73.336993 -44.754011 -70.502706 C -46.397897 -67.66842 -48.778495 -65.429173 -51.89621 -63.785287 C -55.013926 -62.198086 -58.698369 -61.404554 -62.949799 -61.404554 C -66.407629 -61.404554 -69.553696 -61.886286 -72.387983 -62.849943 C -75.165584 -63.813601 -77.348186 -65.14551 -78.935387 -66.846082 C -80.522587 -68.60334 -81.31612 -70.559366 -81.31612 -72.713424 C -81.31612 -74.980853 -80.692519 -76.709787 -79.445433 -77.900188 C -78.198347 -79.147274 -76.667926 -79.770358 -74.853982 -79.770358 C -73.833639 -79.770358 -72.81353 -79.572362 -71.793187 -79.175562 C -70.716158 -78.778762 -69.752177 -78.211805 -68.901891 -77.474891 C -69.412062 -76.28449 -69.667219 -75.037289 -69.667219 -73.733517 C -69.667219 -71.862888 -69.128842 -70.332466 -68.051813 -69.142066 C -66.918099 -67.951665 -65.217229 -67.356645 -62.949799 -67.356645 C -57.848083 -67.356645 -55.297553 -71.608045 -55.297553 -80.110905 C -55.297553 -84.135593 -56.091086 -87.054567 -57.678286 -88.86851 C -59.265487 -90.73914 -61.390929 -91.674541 -64.055158 -91.674541 C -65.699045 -91.674541 -67.456559 -91.36274 -69.327188 -90.739197 C -71.197817 -90.115654 -73.040039 -89.236897 -74.853982 -88.103182 L -79.530699 -92.609884 L -77.319982 -116.75776 L -74.513951 -119.05375 z M -16.099429 -113.78224 C -18.366858 -113.78224 -20.152436 -113.04535 -21.456208 -111.57152 C -22.75998 -110.15437 -23.411644 -108.22693 -23.411644 -105.78944 C -23.411644 -103.63538 -22.589531 -101.84981 -20.945645 -100.43266 C -19.245073 -99.072205 -16.77925 -97.711715 -13.548164 -96.351258 C -12.13102 -97.314915 -10.997624 -98.646824 -10.147338 -100.3474 C -9.2970515 -102.04797 -8.8719632 -103.86213 -8.8719632 -105.78944 C -8.8719632 -108.22693 -9.5522079 -110.15437 -10.912666 -111.57152 C -12.216437 -113.04535 -13.945371 -113.78224 -16.099429 -113.78224 z M -94.835708 -101.28274 C -92.851708 -101.28274 -91.37793 -100.68772 -90.414273 -99.497319 C -89.39393 -98.363604 -88.883617 -96.776539 -88.883617 -94.735852 C -88.883617 -92.695166 -89.39393 -91.107584 -90.414273 -89.973869 C -91.37793 -88.840154 -92.851708 -88.273198 -94.835708 -88.273198 C -96.819709 -88.273198 -98.322067 -88.840154 -99.34241 -89.973869 C -100.30607 -91.16427 -100.7878 -92.751852 -100.7878 -94.735852 C -100.7878 -96.833225 -100.30607 -98.448354 -99.34241 -99.582068 C -98.322067 -100.71578 -96.819709 -101.28274 -94.835708 -101.28274 z M -19.585521 -89.038526 C -21.286093 -87.678068 -22.532778 -86.119583 -23.326378 -84.362325 C -24.119978 -82.605068 -24.517003 -80.50769 -24.517003 -78.070203 C -24.517003 -74.725745 -23.69489 -72.089474 -22.051004 -70.162159 C -20.407117 -68.291529 -18.168388 -67.356645 -15.334101 -67.356645 C -12.5565 -67.356645 -10.402478 -68.291529 -8.8719632 -70.162159 C -7.2847626 -72.032788 -6.4907132 -74.640479 -6.4907132 -77.984937 C -6.4907132 -79.855566 -7.0862503 -81.442631 -8.2766507 -82.746403 C -9.4103654 -84.106861 -10.855562 -85.212194 -12.61282 -86.06248 C -14.370078 -86.969452 -16.694549 -87.961497 -19.585521 -89.038526 z M -94.835708 -74.498845 C -92.851708 -74.498845 -91.37793 -73.903824 -90.414273 -72.713424 C -89.39393 -71.579709 -88.883617 -69.992127 -88.883617 -67.951441 C -88.883617 -65.910754 -89.39393 -64.323689 -90.414273 -63.189974 C -91.37793 -62.05626 -92.851708 -61.489303 -94.835708 -61.489303 C -96.819709 -61.489303 -98.322067 -62.05626 -99.34241 -63.189974 C -100.30607 -64.380375 -100.7878 -65.96744 -100.7878 -67.951441 C -100.7878 -70.048813 -100.30607 -71.664459 -99.34241 -72.798173 C -98.322067 -73.931888 -96.819709 -74.498845 -94.835708 -74.498845 z " /></g></svg>
