<?xml version="1.0" encoding="UTF-8" standalone="no"?>
<!-- Created with Inkscape (http://www.inkscape.org/) -->

<svg
   width="172.6701mm"
   height="172.6701mm"
   viewBox="0 0 172.6701 172.6701"
   version="1.1"
   id="svg1"
   xml:space="preserve"
   xmlns="http://www.w3.org/2000/svg"
   xmlns:svg="http://www.w3.org/2000/svg"><defs
     id="defs1" /><g
     id="layer1"
     transform="translate(157.25102,198.81012)"><path
       id="path5"
       style="fill:#ffffff;fill-opacity:1;stroke-width:0.805188;stroke-linecap:round;stroke-linejoin:round"
       d="M -2.0863309 -198.17657 L -10.088943 -183.11289 L -10.930235 -165.68398 L -19.198981 -165.68398 L -11.423229 -155.47426 L -12.166336 -140.07934 C -28.353216 -157.12094 -50.823548 -166.77435 -74.327399 -166.78417 C -103.64471 -166.77397 -130.92652 -151.79225 -146.66717 -127.05894 L -157.25102 -127.05894 L -149.61996 -115.86014 L -157.25102 -26.140039 L -8.5138455 -26.140039 L 15.419061 -26.140039 L 8.0799737 -154.80195 L 15.419061 -165.68398 L 7.4593397 -165.68398 L 6.4490654 -183.39297 L -2.0863309 -198.17657 z M -83.43072 -192.21621 C -85.584619 -189.65499 -86.77489 -186.4211 -86.795372 -183.07465 C -86.842092 -175.15518 -80.459903 -168.69733 -72.540428 -168.65072 C -64.621155 -168.60402 -58.163395 -174.98588 -58.116503 -182.90515 C -58.102813 -186.26049 -59.266203 -189.5144 -61.404157 -192.10045 C -60.83125 -190.6836 -60.536835 -189.16959 -60.537027 -187.64129 C -60.575787 -181.07411 -65.930869 -175.78172 -72.498054 -175.82031 C -79.065241 -175.85911 -84.357627 -181.21415 -84.319038 -187.78134 C -84.309338 -189.30285 -84.007827 -190.80837 -83.43072 -192.21621 z M -1.6016059 -119.90383 L 0.43909637 -115.65241 C -11.011422 -110.72075 -17.899093 -103.12528 -20.223208 -92.865166 C -16.935436 -94.452366 -13.817432 -95.245899 -10.869774 -95.245899 C -5.2012006 -95.245899 -0.75180498 -93.715477 2.4792819 -90.654448 C 5.7670546 -87.593418 7.4112806 -83.455306 7.4112806 -78.240218 C 7.4112806 -75.009132 6.5325236 -72.118221 4.7752658 -69.567363 C 3.0746938 -67.016505 0.66551542 -65.032415 -2.4522 -63.615271 C -5.5132297 -62.198128 -9.027741 -61.489303 -12.995742 -61.489303 C -19.741345 -61.489303 -24.928146 -63.360105 -28.556033 -67.101363 C -32.127234 -70.842622 -33.912812 -76.255999 -33.912812 -83.341716 C -33.912812 -92.241376 -31.163253 -99.808775 -25.664737 -106.04421 C -20.109535 -112.33632 -12.088467 -116.95617 -1.6016059 -119.90383 z M -127.7846 -119.73381 C -124.10003 -119.73381 -120.84016 -119.11073 -118.00587 -117.86364 C -115.17158 -116.67324 -112.96092 -114.97237 -111.37372 -112.76163 C -109.78652 -110.60757 -108.99298 -108.11368 -108.99298 -105.27939 C -108.99298 -102.10499 -109.92838 -99.384015 -111.79901 -97.116586 C -113.66964 -94.849156 -116.44727 -93.120223 -120.13184 -91.929822 C -115.48361 -90.909479 -112.22425 -89.237189 -110.35362 -86.913074 C -108.48299 -84.588959 -107.54759 -81.442892 -107.54759 -77.474891 C -107.54759 -74.017061 -108.59628 -71.069506 -110.69366 -68.632019 C -112.73434 -66.194533 -115.39868 -64.380375 -118.68645 -63.189974 C -121.97422 -61.999574 -125.37544 -61.404554 -128.88996 -61.404554 C -133.99168 -61.404554 -138.32778 -62.453243 -141.89899 -64.550615 C -145.4135 -66.647987 -147.17102 -69.510317 -147.17102 -73.138204 C -147.17102 -75.235577 -146.54741 -76.851222 -145.30033 -77.984937 C -144.05324 -79.175337 -142.49424 -79.770358 -140.62361 -79.770358 C -138.6963 -79.770358 -136.74079 -79.005405 -134.75679 -77.474891 C -135.26696 -76.397862 -135.52211 -75.094016 -135.52211 -73.563501 C -135.52211 -71.749558 -134.98322 -70.275781 -133.90619 -69.142066 C -132.77248 -68.008351 -131.1007 -67.441394 -128.88996 -67.441394 C -124.01499 -67.441394 -121.57723 -70.814037 -121.57723 -77.55964 C -121.57723 -81.244213 -122.76779 -84.10706 -125.14859 -86.147746 C -127.4727 -88.188433 -130.7887 -89.208541 -135.09682 -89.208541 L -135.09682 -94.480571 C -126.76401 -95.1608 -122.59784 -98.760535 -122.59784 -105.27939 C -122.59784 -108.56717 -123.10763 -110.97583 -124.12798 -112.50634 C -125.14832 -114.09354 -126.53739 -114.88759 -128.29465 -114.88759 C -130.39202 -114.88759 -131.97909 -114.15071 -133.05611 -112.67688 C -134.07646 -111.20305 -134.58677 -109.41747 -134.58677 -107.3201 C -134.58677 -105.44947 -134.18975 -103.77718 -133.39615 -102.30335 C -134.98335 -100.60278 -137.02408 -99.752084 -139.51825 -99.752084 C -141.78568 -99.752084 -143.5432 -100.43233 -144.79028 -101.79279 C -146.03737 -103.15324 -146.66097 -104.91076 -146.66097 -107.06482 C -146.66097 -109.8991 -145.69699 -112.25164 -143.76967 -114.12227 C -141.78567 -116.04958 -139.34843 -117.46671 -136.45746 -118.37369 C -133.5098 -119.28066 -130.61889 -119.73381 -127.7846 -119.73381 z M -58.656005 -119.64906 C -52.023774 -119.64906 -46.950261 -117.15466 -43.435745 -112.16631 C -39.864544 -107.23465 -38.078966 -100.06428 -38.078966 -90.654448 C -38.078966 -81.244616 -39.864544 -74.017081 -43.435745 -68.97205 C -46.950261 -63.983706 -52.023774 -61.489303 -58.656005 -61.489303 C -65.288236 -61.489303 -70.389812 -63.983706 -73.961013 -68.97205 C -77.532215 -74.017081 -79.318309 -81.244616 -79.318309 -90.654448 C -79.318309 -100.00759 -77.532215 -107.17797 -73.961013 -112.16631 C -70.389812 -117.15466 -65.288236 -119.64906 -58.656005 -119.64906 z M -58.656005 -115.31237 C -61.546977 -115.31237 -63.644355 -113.41351 -64.948127 -109.61556 C -66.195213 -105.81762 -66.818814 -99.497422 -66.818814 -90.654448 C -66.818814 -81.868159 -66.195213 -75.576025 -64.948127 -71.778081 C -63.644355 -68.036822 -61.546977 -66.16602 -58.656005 -66.16602 C -55.765032 -66.16602 -53.696234 -68.036822 -52.449148 -71.778081 C -51.145376 -75.576025 -50.493195 -81.868159 -50.493195 -90.654448 C -50.493195 -99.440737 -51.145376 -105.73287 -52.449148 -109.53081 C -53.696234 -113.38544 -55.765032 -115.31237 -58.656005 -115.31237 z M -92.49735 -101.28274 C -90.513349 -101.28274 -89.039572 -100.68772 -88.075914 -99.497319 C -87.055571 -98.363604 -86.545775 -96.776539 -86.545775 -94.735852 C -86.545775 -92.695166 -87.055571 -91.107584 -88.075914 -89.973869 C -89.039572 -88.840154 -90.513349 -88.273198 -92.49735 -88.273198 C -94.48135 -88.273198 -95.983708 -88.840154 -97.004051 -89.973869 C -97.967709 -91.16427 -98.449441 -92.751852 -98.449441 -94.735852 C -98.449441 -96.833225 -97.967709 -98.448354 -97.004051 -99.582068 C -95.983708 -100.71578 -94.48135 -101.28274 -92.49735 -101.28274 z M -13.250507 -89.293807 C -15.631308 -89.293807 -18.210935 -88.330343 -20.988536 -86.403028 L -20.988536 -85.297669 C -20.988536 -79.118924 -20.308292 -74.583787 -18.947834 -71.692814 C -17.587376 -68.801842 -15.433354 -67.356645 -12.485696 -67.356645 C -10.048209 -67.356645 -8.1774075 -68.291529 -6.8736356 -70.162159 C -5.5698637 -72.032788 -4.9181994 -74.697123 -4.9181994 -78.154952 C -4.9181994 -81.669468 -5.655088 -84.390447 -7.1289171 -86.317762 C -8.5460605 -88.301762 -10.586278 -89.293807 -13.250507 -89.293807 z M -92.49735 -74.498845 C -90.513349 -74.498845 -89.039572 -73.903824 -88.075914 -72.713424 C -87.055571 -71.579709 -86.545775 -69.992127 -86.545775 -67.951441 C -86.545775 -65.910754 -87.055571 -64.323689 -88.075914 -63.189974 C -89.039572 -62.05626 -90.513349 -61.489303 -92.49735 -61.489303 C -94.48135 -61.489303 -95.983708 -62.05626 -97.004051 -63.189974 C -97.967709 -64.380375 -98.449441 -65.96744 -98.449441 -67.951441 C -98.449441 -70.048813 -97.967709 -71.664459 -97.004051 -72.798173 C -95.983708 -73.931888 -94.48135 -74.498845 -92.49735 -74.498845 z " /></g></svg>
