<?xml version="1.0" encoding="UTF-8" standalone="no"?>
<!-- Created with Inkscape (http://www.inkscape.org/) -->

<svg
   width="172.6701mm"
   height="172.6701mm"
   viewBox="0 0 172.6701 172.6701"
   version="1.1"
   id="svg1"
   xml:space="preserve"
   xmlns="http://www.w3.org/2000/svg"
   xmlns:svg="http://www.w3.org/2000/svg"><defs
     id="defs1" /><g
     id="layer1"
     transform="translate(157.25102,198.81012)"><path
       id="path5"
       style="fill:#ffffff;fill-opacity:1;stroke-width:0.805188;stroke-linecap:round;stroke-linejoin:round"
       d="M -2.0863309 -198.17657 L -10.088943 -183.11289 L -10.930235 -165.68398 L -19.198981 -165.68398 L -11.423229 -155.47426 L -12.166336 -140.07934 C -28.353216 -157.12094 -50.823548 -166.77435 -74.327399 -166.78417 C -103.64471 -166.77397 -130.92652 -151.79225 -146.66717 -127.05894 L -157.25102 -127.05894 L -149.61996 -115.86014 L -157.25102 -26.140039 L -8.5138455 -26.140039 L 15.419061 -26.140039 L 8.0799737 -154.80195 L 15.419061 -165.68398 L 7.4593397 -165.68398 L 6.4490654 -183.39297 L -2.0863309 -198.17657 z M -83.43072 -192.21621 C -85.584619 -189.65499 -86.77489 -186.4211 -86.795372 -183.07465 C -86.842092 -175.15518 -80.459903 -168.69733 -72.540428 -168.65072 C -64.621155 -168.60402 -58.163395 -174.98588 -58.116503 -182.90515 C -58.102813 -186.26049 -59.266203 -189.5144 -61.404157 -192.10045 C -60.83125 -190.6836 -60.536835 -189.16959 -60.537027 -187.64129 C -60.575787 -181.07411 -65.930869 -175.78172 -72.498054 -175.82031 C -79.065241 -175.85911 -84.357627 -181.21415 -84.319038 -187.78134 C -84.309338 -189.30285 -84.007827 -190.80837 -83.43072 -192.21621 z M -2.7498563 -119.90383 L -0.70915395 -115.65241 C -12.159672 -110.72075 -19.046827 -103.12528 -21.370942 -92.865166 C -18.083169 -94.452366 -14.965683 -95.245899 -12.018024 -95.245899 C -6.3494509 -95.245899 -1.8995385 -93.715477 1.3315484 -90.654448 C 4.619321 -87.593418 6.2630303 -83.455306 6.2630303 -78.240218 C 6.2630303 -75.009132 5.38479 -72.118221 3.6275322 -69.567363 C 1.9269602 -67.016505 -0.48221815 -65.032415 -3.5999336 -63.615271 C -6.6609633 -62.198128 -10.175475 -61.489303 -14.143476 -61.489303 C -20.889079 -61.489303 -26.07588 -63.360105 -29.703767 -67.101363 C -33.274968 -70.842622 -35.060546 -76.255999 -35.060546 -83.341716 C -35.060546 -92.241376 -32.311503 -99.808775 -26.812987 -106.04421 C -21.257785 -112.33632 -13.236717 -116.95617 -2.7498563 -119.90383 z M -72.217967 -119.05375 L -67.966547 -118.969 C -61.957859 -118.85563 -58.783729 -118.79847 -58.443614 -118.79847 L -46.369416 -118.969 L -43.903417 -117.18306 L -44.668745 -110.72092 L -65.75583 -110.72092 L -66.946455 -96.521273 C -63.998796 -97.258188 -61.334462 -97.626632 -58.953661 -97.626632 C -53.341773 -97.626632 -48.778573 -96.124274 -45.264057 -93.11993 C -41.692856 -90.172272 -39.907278 -85.836165 -39.907278 -80.110905 C -39.907278 -76.539704 -40.757455 -73.336993 -42.458027 -70.502706 C -44.101913 -67.66842 -46.483028 -65.429173 -49.600743 -63.785287 C -52.718459 -62.198086 -56.402902 -61.404554 -60.654332 -61.404554 C -64.112162 -61.404554 -67.258229 -61.886286 -70.092516 -62.849943 C -72.870117 -63.813601 -75.052202 -65.14551 -76.639403 -66.846082 C -78.226604 -68.60334 -79.020653 -70.559366 -79.020653 -72.713424 C -79.020653 -74.980853 -78.397052 -76.709787 -77.149966 -77.900188 C -75.90288 -79.147274 -74.372459 -79.770358 -72.558515 -79.770358 C -71.538172 -79.770358 -70.517546 -79.572362 -69.497203 -79.175562 C -68.420174 -78.778762 -67.45671 -78.211805 -66.606424 -77.474891 C -67.116595 -76.28449 -67.371752 -75.037289 -67.371752 -73.733517 C -67.371752 -71.862888 -66.832859 -70.332466 -65.75583 -69.142066 C -64.622115 -67.951665 -62.921762 -67.356645 -60.654332 -67.356645 C -55.552616 -67.356645 -53.001569 -71.608045 -53.001569 -80.110905 C -53.001569 -84.135593 -53.795102 -87.054567 -55.382303 -88.86851 C -56.969503 -90.73914 -59.095462 -91.674541 -61.759691 -91.674541 C -63.403577 -91.674541 -65.160575 -91.36274 -67.031204 -90.739197 C -68.901833 -90.115654 -70.744572 -89.236897 -72.558515 -88.103182 L -77.234715 -92.609884 L -75.023998 -116.75776 L -72.217967 -119.05375 z M -144.83266 -118.88373 L -140.66599 -118.88373 C -138.51193 -118.82705 -133.80738 -118.79847 -126.5516 -118.79847 C -119.0124 -118.79847 -114.10882 -118.82705 -111.84139 -118.88373 L -107.75998 -118.88373 L -106.05931 -115.22762 C -107.13634 -113.52705 -109.17708 -109.84261 -112.18142 -104.17404 C -115.18576 -98.505463 -118.02003 -92.496548 -120.68426 -86.147746 C -123.34849 -79.798944 -124.68092 -74.838719 -124.68092 -71.267517 C -124.68092 -68.433231 -123.68887 -66.307789 -121.70487 -64.890646 C -123.63218 -62.566531 -126.09801 -61.404554 -129.10235 -61.404554 C -131.87995 -61.404554 -134.03397 -62.169506 -135.56449 -63.700021 C -137.095 -65.230536 -137.86047 -67.356494 -137.86047 -70.077409 C -137.86047 -73.478553 -137.03836 -77.077772 -135.39447 -80.875717 C -133.75059 -84.730347 -130.80303 -89.945728 -126.5516 -96.521273 L -116.51811 -111.9963 L -135.90452 -111.9963 C -136.69812 -109.44544 -137.17985 -106.44124 -137.34991 -102.98341 C -138.37025 -102.81335 -139.41894 -102.72813 -140.49597 -102.72813 C -141.62969 -102.72813 -142.73502 -102.81335 -143.81205 -102.98341 L -146.1933 -117.60836 L -144.83266 -118.88373 z M -92.540241 -101.28274 C -90.55624 -101.28274 -89.082463 -100.68772 -88.118806 -99.497319 C -87.098462 -98.363604 -86.58815 -96.776539 -86.58815 -94.735852 C -86.58815 -92.695166 -87.098462 -91.107584 -88.118806 -89.973869 C -89.082463 -88.840154 -90.55624 -88.273198 -92.540241 -88.273198 C -94.524242 -88.273198 -96.026083 -88.840154 -97.046426 -89.973869 C -98.010084 -91.16427 -98.491816 -92.751852 -98.491816 -94.735852 C -98.491816 -96.833225 -98.010084 -98.448354 -97.046426 -99.582068 C -96.026083 -100.71578 -94.524242 -101.28274 -92.540241 -101.28274 z M -14.398758 -89.293807 C -16.779559 -89.293807 -19.358669 -88.330343 -22.13627 -86.403028 L -22.13627 -85.297669 C -22.13627 -79.118924 -21.456025 -74.583787 -20.095568 -71.692814 C -18.73511 -68.801842 -16.581088 -67.356645 -13.63343 -67.356645 C -11.195943 -67.356645 -9.325141 -68.291529 -8.0213691 -70.162159 C -6.7175972 -72.032788 -6.0659329 -74.697123 -6.0659329 -78.154952 C -6.0659329 -81.669468 -6.8028216 -84.390447 -8.2766507 -86.317762 C -9.6937941 -88.301762 -11.734528 -89.293807 -14.398758 -89.293807 z M -92.540241 -74.498845 C -90.55624 -74.498845 -89.082463 -73.903824 -88.118806 -72.713424 C -87.098462 -71.579709 -86.58815 -69.992127 -86.58815 -67.951441 C -86.58815 -65.910754 -87.098462 -64.323689 -88.118806 -63.189974 C -89.082463 -62.05626 -90.55624 -61.489303 -92.540241 -61.489303 C -94.524242 -61.489303 -96.026083 -62.05626 -97.046426 -63.189974 C -98.010084 -64.380375 -98.491816 -65.96744 -98.491816 -67.951441 C -98.491816 -70.048813 -98.010084 -71.664459 -97.046426 -72.798173 C -96.026083 -73.931888 -94.524242 -74.498845 -92.540241 -74.498845 z " /></g></svg>
