<?xml version="1.0" encoding="UTF-8" standalone="no"?>
<!-- Created with Inkscape (http://www.inkscape.org/) -->

<svg
   width="172.6701mm"
   height="172.6701mm"
   viewBox="0 0 172.6701 172.6701"
   version="1.1"
   id="svg1"
   xml:space="preserve"
   xmlns="http://www.w3.org/2000/svg"
   xmlns:svg="http://www.w3.org/2000/svg"><defs
     id="defs1" /><g
     id="layer1"
     transform="translate(157.25102,198.81012)"><path
       id="path5"
       style="fill:#ffffff;fill-opacity:1;stroke-width:0.805188;stroke-linecap:round;stroke-linejoin:round"
       d="M -2.0863309 -198.17657 L -10.088943 -183.11289 L -10.930235 -165.68398 L -19.198981 -165.68398 L -11.423229 -155.47426 L -12.166336 -140.07934 C -28.353216 -157.12094 -50.823548 -166.77435 -74.327399 -166.78417 C -103.64471 -166.77397 -130.92652 -151.79225 -146.66717 -127.05894 L -157.25102 -127.05894 L -149.61996 -115.86014 L -157.25102 -26.140039 L -8.5138455 -26.140039 L 15.419061 -26.140039 L 8.0799737 -154.80195 L 15.419061 -165.68398 L 7.4593397 -165.68398 L 6.4490654 -183.39297 L -2.0863309 -198.17657 z M -83.43072 -192.21621 C -85.584619 -189.65499 -86.77489 -186.4211 -86.795372 -183.07465 C -86.842092 -175.15518 -80.459903 -168.69733 -72.540428 -168.65072 C -64.621155 -168.60402 -58.163395 -174.98588 -58.116503 -182.90515 C -58.102813 -186.26049 -59.266203 -189.5144 -61.404157 -192.10045 C -60.83125 -190.6836 -60.536835 -189.16959 -60.537027 -187.64129 C -60.575787 -181.07411 -65.930869 -175.78172 -72.498054 -175.82031 C -79.065241 -175.85911 -84.357627 -181.21415 -84.319038 -187.78134 C -84.309338 -189.30285 -84.007827 -190.80837 -83.43072 -192.21621 z M -112.22431 -119.90383 L -110.18361 -115.65241 C -121.63413 -110.72075 -128.52128 -103.12528 -130.8454 -92.865166 C -127.55762 -94.452366 -124.44014 -95.245899 -121.49248 -95.245899 C -115.82391 -95.245899 -111.37399 -93.715477 -108.14291 -90.654448 C -104.85513 -87.593418 -103.21091 -83.455306 -103.21091 -78.240218 C -103.21091 -75.009132 -104.08966 -72.118221 -105.84692 -69.567363 C -107.54749 -67.016505 -109.95667 -65.032415 -113.07439 -63.615271 C -116.13542 -62.198128 -119.64993 -61.489303 -123.61793 -61.489303 C -130.36353 -61.489303 -135.55033 -63.360105 -139.17822 -67.101363 C -142.74942 -70.842622 -144.535 -76.255999 -144.535 -83.341716 C -144.535 -92.241376 -141.78596 -99.808775 -136.28744 -106.04421 C -130.73224 -112.33632 -122.71117 -116.95617 -112.22431 -119.90383 z M -56.190005 -119.73381 C -50.351374 -119.73381 -45.703467 -118.28861 -42.245637 -115.39764 C -38.787807 -112.56335 -37.058873 -108.56711 -37.058873 -103.40871 C -37.058873 -98.873849 -38.787807 -94.026912 -42.245637 -88.86851 C -45.703467 -83.766794 -51.400063 -77.616529 -59.336066 -70.41744 L -36.463561 -70.41744 L -36.463561 -62.084615 L -74.981623 -62.084615 L -74.981623 -67.016097 C -68.689506 -73.081471 -63.785925 -78.268272 -60.27141 -82.576388 C -56.756894 -86.884504 -54.234428 -90.852684 -52.703913 -94.480571 C -51.116712 -98.108458 -50.32318 -101.84955 -50.32318 -105.70418 C -50.32318 -111.82623 -52.363914 -114.88759 -56.445287 -114.88759 C -58.25923 -114.88759 -59.733008 -114.0369 -60.866722 -112.33633 C -62.000437 -110.69244 -62.567394 -108.65171 -62.567394 -106.21422 C -62.567394 -104.51365 -61.972373 -102.89852 -60.781973 -101.36801 C -61.74563 -100.46103 -62.850963 -99.752209 -64.09805 -99.242037 C -65.28845 -98.731866 -66.478491 -98.476709 -67.668891 -98.476709 C -69.709578 -98.476709 -71.410448 -99.10031 -72.770905 -100.3474 C -74.131363 -101.65117 -74.811608 -103.52197 -74.811608 -105.95946 C -74.811608 -108.567 -74.046139 -110.91953 -72.515624 -113.01691 C -70.985109 -115.11428 -68.831087 -116.75799 -66.053486 -117.94839 C -63.219199 -119.13879 -59.931264 -119.73381 -56.190005 -119.73381 z M -31.616828 -118.88373 L -27.450674 -118.88373 C -25.296616 -118.82705 -20.591548 -118.79847 -13.335773 -118.79847 C -5.7965707 -118.79847 -0.89350637 -118.82705 1.373923 -118.88373 L 5.4553277 -118.88373 L 7.155999 -115.22762 C 6.0789701 -113.52705 4.0382361 -109.84261 1.0338921 -104.17404 C -1.9704518 -98.505463 -4.8047185 -92.496548 -7.4689481 -86.147746 C -10.133178 -79.798944 -11.465087 -74.838719 -11.465087 -71.267517 C -11.465087 -68.433231 -10.473042 -66.307789 -8.4890408 -64.890646 C -10.416356 -62.566531 -12.882178 -61.404554 -15.886522 -61.404554 C -18.664123 -61.404554 -20.818145 -62.169506 -22.34866 -63.700021 C -23.879175 -65.230536 -24.644644 -67.356494 -24.644644 -70.077409 C -24.644644 -73.478553 -23.822531 -77.077772 -22.178645 -80.875717 C -20.534758 -84.730347 -17.587204 -89.945728 -13.335773 -96.521273 L -3.3022773 -111.9963 L -22.688691 -111.9963 C -23.482291 -109.44544 -23.96454 -106.44124 -24.134597 -102.98341 C -25.154941 -102.81335 -26.20363 -102.72813 -27.280659 -102.72813 C -28.414373 -102.72813 -29.519706 -102.81335 -30.596735 -102.98341 L -32.977469 -117.60836 L -31.616828 -118.88373 z M -88.24593 -101.28274 C -86.261929 -101.28274 -84.788152 -100.68772 -83.824494 -99.497319 C -82.804151 -98.363604 -82.293838 -96.776539 -82.293838 -94.735852 C -82.293838 -92.695166 -82.804151 -91.107584 -83.824494 -89.973869 C -84.788152 -88.840154 -86.261929 -88.273198 -88.24593 -88.273198 C -90.22993 -88.273198 -91.732288 -88.840154 -92.752631 -89.973869 C -93.716289 -91.16427 -94.198021 -92.751852 -94.198021 -94.735852 C -94.198021 -96.833225 -93.716289 -98.448354 -92.752631 -99.582068 C -91.732288 -100.71578 -90.22993 -101.28274 -88.24593 -101.28274 z M -123.87321 -89.293807 C -126.25401 -89.293807 -128.83312 -88.330343 -131.61072 -86.403028 L -131.61072 -85.297669 C -131.61072 -79.118924 -130.93048 -74.583787 -129.57002 -71.692814 C -128.20956 -68.801842 -126.05554 -67.356645 -123.10788 -67.356645 C -120.6704 -67.356645 -118.7996 -68.291529 -117.49582 -70.162159 C -116.19205 -72.032788 -115.54039 -74.697123 -115.54039 -78.154952 C -115.54039 -81.669468 -116.27728 -84.390447 -117.75111 -86.317762 C -119.16825 -88.301762 -121.20898 -89.293807 -123.87321 -89.293807 z M -88.24593 -74.498845 C -86.261929 -74.498845 -84.788152 -73.903824 -83.824494 -72.713424 C -82.804151 -71.579709 -82.293838 -69.992127 -82.293838 -67.951441 C -82.293838 -65.910754 -82.804151 -64.323689 -83.824494 -63.189974 C -84.788152 -62.05626 -86.261929 -61.489303 -88.24593 -61.489303 C -90.22993 -61.489303 -91.732288 -62.05626 -92.752631 -63.189974 C -93.716289 -64.380375 -94.198021 -65.96744 -94.198021 -67.951441 C -94.198021 -70.048813 -93.716289 -71.664459 -92.752631 -72.798173 C -91.732288 -73.931888 -90.22993 -74.498845 -88.24593 -74.498845 z " /></g></svg>
