<?xml version="1.0" encoding="UTF-8" standalone="no"?>
<!-- Created with Inkscape (http://www.inkscape.org/) -->

<svg
   width="172.6701mm"
   height="172.6701mm"
   viewBox="0 0 172.6701 172.6701"
   version="1.1"
   id="svg1"
   xml:space="preserve"
   xmlns="http://www.w3.org/2000/svg"
   xmlns:svg="http://www.w3.org/2000/svg"><defs
     id="defs1" /><g
     id="layer1"
     transform="translate(157.25102,198.81012)"><path
       id="path5"
       style="fill:#ffffff;fill-opacity:1;stroke-width:0.805188;stroke-linecap:round;stroke-linejoin:round"
       d="M -2.0863309 -198.17657 L -10.088943 -183.11289 L -10.930235 -165.68398 L -19.198981 -165.68398 L -11.423229 -155.47426 L -12.166336 -140.07934 C -28.353216 -157.12094 -50.823548 -166.77435 -74.327399 -166.78417 C -103.64471 -166.77397 -130.92652 -151.79225 -146.66717 -127.05894 L -157.25102 -127.05894 L -149.61996 -115.86014 L -157.25102 -26.140039 L -8.5138455 -26.140039 L 15.419061 -26.140039 L 8.0799737 -154.80195 L 15.419061 -165.68398 L 7.4593397 -165.68398 L 6.4490654 -183.39297 L -2.0863309 -198.17657 z M -83.43072 -192.21621 C -85.584619 -189.65499 -86.77489 -186.4211 -86.795372 -183.07465 C -86.842092 -175.15518 -80.459903 -168.69733 -72.540428 -168.65072 C -64.621155 -168.60402 -58.163395 -174.98588 -58.116503 -182.90515 C -58.102813 -186.26049 -59.266203 -189.5144 -61.404157 -192.10045 C -60.83125 -190.6836 -60.536835 -189.16959 -60.537027 -187.64129 C -60.575787 -181.07411 -65.930869 -175.78172 -72.498054 -175.82031 C -79.065241 -175.85911 -84.357627 -181.21415 -84.319038 -187.78134 C -84.309338 -189.30285 -84.007827 -190.80837 -83.43072 -192.21621 z M -97.399893 -132.26586 L -92.740746 -130.14816 L -92.740746 -48.545907 C -90.952453 -47.51058 -88.128892 -46.569393 -84.269945 -45.722307 C -80.410998 -44.969341 -77.35214 -44.498748 -75.093244 -44.310507 L -75.516474 -37.533659 L -133.11864 -37.533659 L -132.83597 -44.310507 C -124.45923 -45.251713 -118.05927 -46.663494 -113.63559 -48.545907 L -113.63559 -116.17124 L -132.55382 -116.17124 L -132.55382 -124.35988 C -126.5301 -124.83049 -120.31795 -125.72472 -113.91775 -127.04241 C -107.51754 -128.45422 -102.01181 -130.19521 -97.399893 -132.26586 z M -67.751573 -131.84263 L -60.833649 -131.84263 C -57.257064 -131.74851 -49.445316 -131.70104 -37.397871 -131.70104 C -24.879822 -131.70104 -16.738348 -131.74851 -12.973522 -131.84263 L -6.1966743 -131.84263 L -3.373074 -125.77168 C -5.1613667 -122.94806 -8.5499497 -116.83035 -13.538345 -107.41828 C -18.52674 -98.006216 -23.232675 -88.029324 -27.656346 -77.48781 C -32.080018 -66.946295 -34.2916 -58.710909 -34.2916 -52.781307 C -34.2916 -48.075274 -32.644523 -44.545306 -29.3503 -42.19229 C -32.550402 -38.333342 -36.644876 -36.404012 -41.633271 -36.404012 C -46.245184 -36.404012 -49.821591 -37.674925 -52.362849 -40.216183 C -54.904107 -42.757441 -56.175019 -46.286892 -56.175019 -50.804684 C -56.175019 -56.451924 -54.810195 -62.428254 -52.080695 -68.734339 C -49.351196 -75.134544 -44.456921 -83.794084 -37.397871 -94.712081 L -20.738422 -120.40664 L -52.927672 -120.40664 C -54.245361 -116.17121 -55.045164 -111.18302 -55.327526 -105.44166 C -57.021698 -105.1593 -58.763203 -105.01791 -60.551496 -105.01791 C -62.433909 -105.01791 -64.269327 -105.1593 -66.05762 -105.44166 L -70.01035 -129.72493 L -67.751573 -131.84263 z " /></g></svg>
