<?xml version="1.0" encoding="UTF-8" standalone="no"?>
<!-- Created with Inkscape (http://www.inkscape.org/) -->

<svg
   width="172.6701mm"
   height="172.6701mm"
   viewBox="0 0 172.6701 172.6701"
   version="1.1"
   id="svg1"
   xml:space="preserve"
   xmlns="http://www.w3.org/2000/svg"
   xmlns:svg="http://www.w3.org/2000/svg"><defs
     id="defs1" /><g
     id="layer1"
     transform="translate(157.25102,198.81012)"><path
       id="path5"
       style="fill:#ffffff;fill-opacity:1;stroke-width:0.805188;stroke-linecap:round;stroke-linejoin:round"
       d="M -2.0863309 -198.17657 L -10.088943 -183.11289 L -10.930235 -165.68398 L -19.198981 -165.68398 L -11.423229 -155.47426 L -12.166336 -140.07934 C -28.353216 -157.12094 -50.823548 -166.77435 -74.327399 -166.78417 C -103.64471 -166.77397 -130.92652 -151.79225 -146.66717 -127.05894 L -157.25102 -127.05894 L -149.61996 -115.86014 L -157.25102 -26.140039 L -8.5138455 -26.140039 L 15.419061 -26.140039 L 8.0799737 -154.80195 L 15.419061 -165.68398 L 7.4593397 -165.68398 L 6.4490654 -183.39297 L -2.0863309 -198.17657 z M -83.43072 -192.21621 C -85.584619 -189.65499 -86.77489 -186.4211 -86.795372 -183.07465 C -86.842092 -175.15518 -80.459903 -168.69733 -72.540428 -168.65072 C -64.621155 -168.60402 -58.163395 -174.98588 -58.116503 -182.90515 C -58.102813 -186.26049 -59.266203 -189.5144 -61.404157 -192.10045 C -60.83125 -190.6836 -60.536835 -189.16959 -60.537027 -187.64129 C -60.575787 -181.07411 -65.930869 -175.78172 -72.498054 -175.82031 C -79.065241 -175.85911 -84.357627 -181.21415 -84.319038 -187.78134 C -84.309338 -189.30285 -84.007827 -190.80837 -83.43072 -192.21621 z M -128.29465 -120.07436 C -123.75979 -119.84761 -120.07483 -118.85557 -117.24054 -117.09831 L -137.47755 -83.767013 L -124.46801 -83.767013 L -123.61793 -97.626632 C -121.80399 -97.626632 -120.50014 -97.995076 -119.70654 -98.731991 C -118.85626 -99.468905 -118.20459 -100.71611 -117.75111 -102.47336 L -112.90437 -102.47336 L -112.98912 -83.341716 C -110.83506 -82.718173 -108.1146 -82.066508 -104.82683 -81.38628 L -105.25161 -77.304875 L -113.41442 -77.304875 L -113.41442 -62.084615 L -124.46801 -62.084615 L -124.46801 -77.304875 L -149.0417 -77.304875 L -149.72176 -80.36567 L -128.29465 -120.07436 z M -57.465896 -120.07436 C -52.931037 -119.84761 -49.246077 -118.85557 -46.411791 -117.09831 L -66.648798 -83.767013 L -53.639256 -83.767013 L -52.789179 -97.626632 C -50.975236 -97.626632 -49.67139 -97.995076 -48.87779 -98.731991 C -48.027504 -99.468905 -47.37584 -100.71611 -46.922354 -102.47336 L -42.075621 -102.47336 L -42.160371 -83.341716 C -40.006313 -82.718173 -37.285334 -82.066508 -33.997561 -81.38628 L -34.422858 -77.304875 L -42.585668 -77.304875 L -42.585668 -62.084615 L -53.639256 -62.084615 L -53.639256 -77.304875 L -78.212434 -77.304875 L -78.893012 -80.36567 L -57.465896 -120.07436 z M -11.040306 -119.73381 C -5.2016756 -119.73381 -0.55325088 -118.28861 2.904579 -115.39764 C 6.3624088 -112.56335 8.0913425 -108.56711 8.0913425 -103.40871 C 8.0913425 -98.873849 6.3624088 -94.026912 2.904579 -88.86851 C -0.55325088 -83.766794 -6.2503646 -77.616529 -14.186367 -70.41744 L 8.686655 -70.41744 L 8.686655 -62.084615 L -29.831407 -62.084615 L -29.831407 -67.016097 C -23.539291 -73.081471 -18.63571 -78.268272 -15.121194 -82.576388 C -11.606679 -86.884504 -9.0842123 -90.852684 -7.5536974 -94.480571 C -5.9664968 -98.108458 -5.1729642 -101.84955 -5.1729642 -105.70418 C -5.1729642 -111.82623 -7.2136982 -114.88759 -11.295071 -114.88759 C -13.109015 -114.88759 -14.582792 -114.0369 -15.716507 -112.33633 C -16.850221 -110.69244 -17.417178 -108.65171 -17.417178 -106.21422 C -17.417178 -104.51365 -16.822158 -102.89852 -15.631757 -101.36801 C -16.595415 -100.46103 -17.700748 -99.752209 -18.947834 -99.242037 C -20.138234 -98.731866 -21.328792 -98.476709 -22.519192 -98.476709 C -24.559879 -98.476709 -26.260232 -99.10031 -27.62069 -100.3474 C -28.981147 -101.65117 -29.661392 -103.52197 -29.661392 -105.95946 C -29.661392 -108.567 -28.895923 -110.91953 -27.365408 -113.01691 C -25.834893 -115.11428 -23.680871 -116.75799 -20.90327 -117.94839 C -18.068983 -119.13879 -14.781565 -119.73381 -11.040306 -119.73381 z M -90.116617 -101.28274 C -88.132616 -101.28274 -86.658838 -100.68772 -85.695181 -99.497319 C -84.674838 -98.363604 -84.164525 -96.776539 -84.164525 -94.735852 C -84.164525 -92.695166 -84.674838 -91.107584 -85.695181 -89.973869 C -86.658838 -88.840154 -88.132616 -88.273198 -90.116617 -88.273198 C -92.100617 -88.273198 -93.602975 -88.840154 -94.623318 -89.973869 C -95.586976 -91.16427 -96.068708 -92.751852 -96.068708 -94.735852 C -96.068708 -96.833225 -95.586976 -98.448354 -94.623318 -99.582068 C -93.602975 -100.71578 -92.100617 -101.28274 -90.116617 -101.28274 z M -90.116617 -74.498845 C -88.132616 -74.498845 -86.658838 -73.903824 -85.695181 -72.713424 C -84.674838 -71.579709 -84.164525 -69.992127 -84.164525 -67.951441 C -84.164525 -65.910754 -84.674838 -64.323689 -85.695181 -63.189974 C -86.658838 -62.05626 -88.132616 -61.489303 -90.116617 -61.489303 C -92.100617 -61.489303 -93.602975 -62.05626 -94.623318 -63.189974 C -95.586976 -64.380375 -96.068708 -65.96744 -96.068708 -67.951441 C -96.068708 -70.048813 -95.586976 -71.664459 -94.623318 -72.798173 C -93.602975 -73.931888 -92.100617 -74.498845 -90.116617 -74.498845 z " /></g></svg>
