<?xml version="1.0" encoding="UTF-8" standalone="no"?>
<!-- Created with Inkscape (http://www.inkscape.org/) -->

<svg
   width="172.6701mm"
   height="172.6701mm"
   viewBox="0 0 172.6701 172.6701"
   version="1.1"
   id="svg1"
   xml:space="preserve"
   xmlns="http://www.w3.org/2000/svg"
   xmlns:svg="http://www.w3.org/2000/svg"><defs
     id="defs1" /><g
     id="layer1"
     transform="translate(157.25102,198.81012)"><path
       id="path5"
       style="fill:#ffffff;fill-opacity:1;stroke-width:0.805188;stroke-linecap:round;stroke-linejoin:round"
       d="M -2.0863309 -198.17657 L -10.088943 -183.11289 L -10.930235 -165.68398 L -19.198981 -165.68398 L -11.423229 -155.47426 L -12.166336 -140.07934 C -28.353216 -157.12094 -50.823548 -166.77435 -74.327399 -166.78417 C -103.64471 -166.77397 -130.92652 -151.79225 -146.66717 -127.05894 L -157.25102 -127.05894 L -149.61996 -115.86014 L -157.25102 -26.140039 L -8.5138455 -26.140039 L 15.419061 -26.140039 L 8.0799737 -154.80195 L 15.419061 -165.68398 L 7.4593397 -165.68398 L 6.4490654 -183.39297 L -2.0863309 -198.17657 z M -83.43072 -192.21621 C -85.584619 -189.65499 -86.77489 -186.4211 -86.795372 -183.07465 C -86.842092 -175.15518 -80.459903 -168.69733 -72.540428 -168.65072 C -64.621155 -168.60402 -58.163395 -174.98588 -58.116503 -182.90515 C -58.102813 -186.26049 -59.266203 -189.5144 -61.404157 -192.10045 C -60.83125 -190.6836 -60.536835 -189.16959 -60.537027 -187.64129 C -60.575787 -181.07411 -65.930869 -175.78172 -72.498054 -175.82031 C -79.065241 -175.85911 -84.357627 -181.21415 -84.319038 -187.78134 C -84.309338 -189.30285 -84.007827 -190.80837 -83.43072 -192.21621 z M -56.360021 -119.73381 C -50.52139 -119.73381 -45.873482 -118.28861 -42.415652 -115.39764 C -38.957822 -112.56335 -37.228889 -108.56711 -37.228889 -103.40871 C -37.228889 -98.873849 -38.957822 -94.026912 -42.415652 -88.86851 C -45.873482 -83.766794 -51.570079 -77.616529 -59.506082 -70.41744 L -36.633576 -70.41744 L -36.633576 -62.084615 L -75.151638 -62.084615 L -75.151638 -67.016097 C -68.859522 -73.081471 -63.955941 -78.268272 -60.441425 -82.576388 C -56.92691 -86.884504 -54.404443 -90.852684 -52.873929 -94.480571 C -51.286728 -98.108458 -50.493195 -101.84955 -50.493195 -105.70418 C -50.493195 -111.82623 -52.533929 -114.88759 -56.615302 -114.88759 C -58.429246 -114.88759 -59.903023 -114.0369 -61.036738 -112.33633 C -62.170452 -110.69244 -62.737409 -108.65171 -62.737409 -106.21422 C -62.737409 -104.51365 -62.142389 -102.89852 -60.951988 -101.36801 C -61.915646 -100.46103 -63.020979 -99.752209 -64.268065 -99.242037 C -65.458466 -98.731866 -66.648506 -98.476709 -67.838907 -98.476709 C -69.879593 -98.476709 -71.580463 -99.10031 -72.940921 -100.3474 C -74.301378 -101.65117 -74.981623 -103.52197 -74.981623 -105.95946 C -74.981623 -108.567 -74.216154 -110.91953 -72.685639 -113.01691 C -71.155124 -115.11428 -69.001102 -116.75799 -66.223501 -117.94839 C -63.389215 -119.13879 -60.101279 -119.73381 -56.360021 -119.73381 z M -124.21324 -119.56379 C -117.46764 -119.56379 -112.3089 -117.69351 -108.7377 -113.95225 C -105.10982 -110.21099 -103.29617 -104.7971 -103.29617 -97.711381 C -103.29617 -88.811721 -106.0738 -81.216258 -111.629 -74.924142 C -117.12751 -68.688711 -125.12 -64.09693 -135.60686 -61.149272 L -137.64757 -65.400692 C -131.97899 -67.838179 -127.41579 -70.956182 -123.95796 -74.754126 C -120.50013 -78.608756 -118.20424 -83.086732 -117.07053 -88.188448 C -120.24493 -86.601248 -123.33435 -85.807715 -126.33869 -85.807715 C -132.00727 -85.807715 -136.48576 -87.338137 -139.77353 -90.399166 C -143.00462 -93.460196 -144.62027 -97.598308 -144.62027 -102.8134 C -144.62027 -106.04448 -143.76957 -108.93539 -142.069 -111.48625 C -140.31174 -114.03711 -137.90256 -116.0212 -134.84154 -117.43834 C -131.72382 -118.85549 -128.18124 -119.56379 -124.21324 -119.56379 z M -31.786844 -118.88373 L -27.62069 -118.88373 C -25.466632 -118.82705 -20.761563 -118.79847 -13.505789 -118.79847 C -5.9665861 -118.79847 -1.0635218 -118.82705 1.2039076 -118.88373 L 5.2853122 -118.88373 L 6.9859836 -115.22762 C 5.9089546 -113.52705 3.8682206 -109.84261 0.86387665 -104.17404 C -2.1404673 -98.505463 -4.974734 -92.496548 -7.6389635 -86.147746 C -10.303193 -79.798944 -11.635102 -74.838719 -11.635102 -71.267517 C -11.635102 -68.433231 -10.643057 -66.307789 -8.6590563 -64.890646 C -10.586371 -62.566531 -13.052194 -61.404554 -16.056538 -61.404554 C -18.834139 -61.404554 -20.988161 -62.169506 -22.518675 -63.700021 C -24.04919 -65.230536 -24.814659 -67.356494 -24.814659 -70.077409 C -24.814659 -73.478553 -23.992546 -77.077772 -22.34866 -80.875717 C -20.704774 -84.730347 -17.757219 -89.945728 -13.505789 -96.521273 L -3.4722928 -111.9963 L -22.859223 -111.9963 C -23.652823 -109.44544 -24.134556 -106.44124 -24.304613 -102.98341 C -25.324956 -102.81335 -26.373645 -102.72813 -27.450674 -102.72813 C -28.584389 -102.72813 -29.689722 -102.81335 -30.766751 -102.98341 L -33.147484 -117.60836 L -31.786844 -118.88373 z M -124.72329 -113.69697 C -127.16078 -113.69697 -129.03158 -112.76157 -130.33535 -110.89094 C -131.63912 -109.02031 -132.29079 -106.35597 -132.29079 -102.89814 C -132.29079 -99.383629 -131.58248 -96.634587 -130.16533 -94.650586 C -128.69151 -92.723271 -126.62219 -91.759807 -123.95796 -91.759807 C -121.63385 -91.759807 -119.05474 -92.723271 -116.22045 -94.650586 L -116.22045 -95.755945 C -116.22045 -101.93469 -116.90069 -106.46931 -118.26115 -109.36028 C -119.62161 -112.25126 -121.77563 -113.69697 -124.72329 -113.69697 z M -88.415945 -101.28274 C -86.431944 -101.28274 -84.958167 -100.68772 -83.99451 -99.497319 C -82.974166 -98.363604 -82.463854 -96.776539 -82.463854 -94.735852 C -82.463854 -92.695166 -82.974166 -91.107584 -83.99451 -89.973869 C -84.958167 -88.840154 -86.431944 -88.273198 -88.415945 -88.273198 C -90.399946 -88.273198 -91.902304 -88.840154 -92.922647 -89.973869 C -93.886304 -91.16427 -94.368037 -92.751852 -94.368037 -94.735852 C -94.368037 -96.833225 -93.886304 -98.448354 -92.922647 -99.582068 C -91.902304 -100.71578 -90.399946 -101.28274 -88.415945 -101.28274 z M -88.415945 -74.498845 C -86.431944 -74.498845 -84.958167 -73.903824 -83.99451 -72.713424 C -82.974166 -71.579709 -82.463854 -69.992127 -82.463854 -67.951441 C -82.463854 -65.910754 -82.974166 -64.323689 -83.99451 -63.189974 C -84.958167 -62.05626 -86.431944 -61.489303 -88.415945 -61.489303 C -90.399946 -61.489303 -91.902304 -62.05626 -92.922647 -63.189974 C -93.886304 -64.380375 -94.368037 -65.96744 -94.368037 -67.951441 C -94.368037 -70.048813 -93.886304 -71.664459 -92.922647 -72.798173 C -91.902304 -73.931888 -90.399946 -74.498845 -88.415945 -74.498845 z " /></g></svg>
