<?xml version="1.0" encoding="UTF-8" standalone="no"?>
<!-- Created with Inkscape (http://www.inkscape.org/) -->

<svg
   width="172.6701mm"
   height="172.6701mm"
   viewBox="0 0 172.6701 172.6701"
   version="1.1"
   id="svg1"
   xml:space="preserve"
   xmlns="http://www.w3.org/2000/svg"
   xmlns:svg="http://www.w3.org/2000/svg"><defs
     id="defs1" /><g
     id="layer1"
     transform="translate(157.25102,198.81012)"><path
       id="path5"
       style="fill:#ffffff;fill-opacity:1;stroke-width:0.805188;stroke-linecap:round;stroke-linejoin:round"
       d="M -2.0863309 -198.17657 L -10.088943 -183.11289 L -10.930235 -165.68398 L -19.198981 -165.68398 L -11.423229 -155.47426 L -12.166336 -140.07934 C -28.353216 -157.12094 -50.823548 -166.77435 -74.327399 -166.78417 C -103.64471 -166.77397 -130.92652 -151.79225 -146.66717 -127.05894 L -157.25102 -127.05894 L -149.61996 -115.86014 L -157.25102 -26.140039 L -8.5138455 -26.140039 L 15.419061 -26.140039 L 8.0799737 -154.80195 L 15.419061 -165.68398 L 7.4593397 -165.68398 L 6.4490654 -183.39297 L -2.0863309 -198.17657 z M -83.43072 -192.21621 C -85.584619 -189.65499 -86.77489 -186.4211 -86.795372 -183.07465 C -86.842092 -175.15518 -80.459903 -168.69733 -72.540428 -168.65072 C -64.621155 -168.60402 -58.163395 -174.98588 -58.116503 -182.90515 C -58.102813 -186.26049 -59.266203 -189.5144 -61.404157 -192.10045 C -60.83125 -190.6836 -60.536835 -189.16959 -60.537027 -187.64129 C -60.575787 -181.07411 -65.930869 -175.78172 -72.498054 -175.82031 C -79.065241 -175.85911 -84.357627 -181.21415 -84.319038 -187.78134 C -84.309338 -189.30285 -84.007827 -190.80837 -83.43072 -192.21621 z M -112.26669 -119.90383 L -110.22598 -115.65241 C -121.6765 -110.72075 -128.56366 -103.12528 -130.88777 -92.865166 C -127.6 -94.452366 -124.48251 -95.245899 -121.53485 -95.245899 C -115.86628 -95.245899 -111.41637 -93.715477 -108.18528 -90.654448 C -104.89751 -87.593418 -103.2538 -83.455306 -103.2538 -78.240218 C -103.2538 -75.009132 -104.13204 -72.118221 -105.8893 -69.567363 C -107.58987 -67.016505 -109.99905 -65.032415 -113.11676 -63.615271 C -116.17779 -62.198128 -119.6923 -61.489303 -123.66031 -61.489303 C -130.40591 -61.489303 -135.59271 -63.360105 -139.2206 -67.101363 C -142.7918 -70.842622 -144.57737 -76.255999 -144.57737 -83.341716 C -144.57737 -92.241376 -141.82833 -99.808775 -136.32982 -106.04421 C -130.77461 -112.33632 -122.75355 -116.95617 -112.26669 -119.90383 z M -56.572928 -119.73381 C -52.888355 -119.73381 -49.629 -119.11073 -46.794713 -117.86364 C -43.960426 -116.67324 -41.749244 -114.97237 -40.162043 -112.76163 C -38.574842 -110.60757 -37.78131 -108.11368 -37.78131 -105.27939 C -37.78131 -102.10499 -38.716711 -99.384015 -40.58734 -97.116586 C -42.457969 -94.849156 -45.235592 -93.120223 -48.920165 -91.929822 C -44.271934 -90.909479 -41.012579 -89.237189 -39.14195 -86.913074 C -37.271321 -84.588959 -36.33592 -81.442892 -36.33592 -77.474891 C -36.33592 -74.017061 -37.384609 -71.069506 -39.481981 -68.632019 C -41.522668 -66.194533 -44.187002 -64.380375 -47.474775 -63.189974 C -50.762548 -61.999574 -54.163771 -61.404554 -57.678286 -61.404554 C -62.780003 -61.404554 -67.11611 -62.453243 -70.687312 -64.550615 C -74.201827 -66.647987 -75.959341 -69.510317 -75.959341 -73.138204 C -75.959341 -75.235577 -75.33574 -76.851222 -74.088654 -77.984937 C -72.841568 -79.175337 -71.282566 -79.770358 -69.411937 -79.770358 C -67.484622 -79.770358 -65.529113 -79.005405 -63.545112 -77.474891 C -64.055283 -76.397862 -64.31044 -75.094016 -64.31044 -73.563501 C -64.31044 -71.749558 -63.772063 -70.275781 -62.695034 -69.142066 C -61.56132 -68.008351 -59.88903 -67.441394 -57.678286 -67.441394 C -52.803313 -67.441394 -50.365555 -70.814037 -50.365555 -77.55964 C -50.365555 -81.244213 -51.556112 -84.10706 -53.936913 -86.147746 C -56.261028 -88.188433 -59.577027 -89.208541 -63.885143 -89.208541 L -63.885143 -94.480571 C -55.55234 -95.1608 -51.386164 -98.760535 -51.386164 -105.27939 C -51.386164 -108.56717 -51.896477 -110.97583 -52.91682 -112.50634 C -53.937163 -114.09354 -55.325716 -114.88759 -57.082974 -114.88759 C -59.180346 -114.88759 -60.767411 -114.15071 -61.84444 -112.67688 C -62.864784 -111.20305 -63.375096 -109.41747 -63.375096 -107.3201 C -63.375096 -105.44947 -62.978072 -103.77718 -62.184471 -102.30335 C -63.771672 -100.60278 -65.812406 -99.752084 -68.306578 -99.752084 C -70.574008 -99.752084 -72.331522 -100.43233 -73.578608 -101.79279 C -74.825694 -103.15324 -75.449295 -104.91076 -75.449295 -107.06482 C -75.449295 -109.8991 -74.485313 -112.25164 -72.557998 -114.12227 C -70.573998 -116.04958 -68.136756 -117.46671 -65.245783 -118.37369 C -62.298125 -119.28066 -59.407214 -119.73381 -56.572928 -119.73381 z M -31.574453 -118.88373 L -27.408299 -118.88373 C -25.254242 -118.82705 -20.549173 -118.79847 -13.293399 -118.79847 C -5.754196 -118.79847 -0.85061493 -118.82705 1.4168145 -118.88373 L 5.4982191 -118.88373 L 7.1983737 -115.22762 C 6.1213448 -113.52705 4.0811275 -109.84261 1.0767835 -104.17404 C -1.9275604 -98.505463 -4.7623438 -92.496548 -7.4265734 -86.147746 C -10.090803 -79.798944 -11.422712 -74.838719 -11.422712 -71.267517 C -11.422712 -68.433231 -10.430667 -66.307789 -8.4466662 -64.890646 C -10.373981 -62.566531 -12.839803 -61.404554 -15.844147 -61.404554 C -18.621748 -61.404554 -20.77577 -62.169506 -22.306285 -63.700021 C -23.8368 -65.230536 -24.602269 -67.356494 -24.602269 -70.077409 C -24.602269 -73.478553 -23.780156 -77.077772 -22.13627 -80.875717 C -20.492384 -84.730347 -17.544829 -89.945728 -13.293399 -96.521273 L -3.2599026 -111.9963 L -22.646316 -111.9963 C -23.439917 -109.44544 -23.921649 -106.44124 -24.091706 -102.98341 C -25.112049 -102.81335 -26.160738 -102.72813 -27.237767 -102.72813 C -28.371482 -102.72813 -29.477332 -102.81335 -30.554361 -102.98341 L -32.935094 -117.60836 L -31.574453 -118.88373 z M -88.288304 -101.28274 C -86.304304 -101.28274 -84.830526 -100.68772 -83.866869 -99.497319 C -82.846526 -98.363604 -82.33673 -96.776539 -82.33673 -94.735852 C -82.33673 -92.695166 -82.846526 -91.107584 -83.866869 -89.973869 C -84.830526 -88.840154 -86.304304 -88.273198 -88.288304 -88.273198 C -90.272305 -88.273198 -91.774663 -88.840154 -92.795006 -89.973869 C -93.758663 -91.16427 -94.240396 -92.751852 -94.240396 -94.735852 C -94.240396 -96.833225 -93.758663 -98.448354 -92.795006 -99.582068 C -91.774663 -100.71578 -90.272305 -101.28274 -88.288304 -101.28274 z M -123.91559 -89.293807 C -126.29639 -89.293807 -128.8755 -88.330343 -131.6531 -86.403028 L -131.6531 -85.297669 C -131.6531 -79.118924 -130.97285 -74.583787 -129.6124 -71.692814 C -128.25194 -68.801842 -126.09792 -67.356645 -123.15026 -67.356645 C -120.71277 -67.356645 -118.84197 -68.291529 -117.5382 -70.162159 C -116.23443 -72.032788 -115.58276 -74.697123 -115.58276 -78.154952 C -115.58276 -81.669468 -116.31965 -84.390447 -117.79348 -86.317762 C -119.21062 -88.301762 -121.25136 -89.293807 -123.91559 -89.293807 z M -88.288304 -74.498845 C -86.304304 -74.498845 -84.830526 -73.903824 -83.866869 -72.713424 C -82.846526 -71.579709 -82.33673 -69.992127 -82.33673 -67.951441 C -82.33673 -65.910754 -82.846526 -64.323689 -83.866869 -63.189974 C -84.830526 -62.05626 -86.304304 -61.489303 -88.288304 -61.489303 C -90.272305 -61.489303 -91.774663 -62.05626 -92.795006 -63.189974 C -93.758663 -64.380375 -94.240396 -65.96744 -94.240396 -67.951441 C -94.240396 -70.048813 -93.758663 -71.664459 -92.795006 -72.798173 C -91.774663 -73.931888 -90.272305 -74.498845 -88.288304 -74.498845 z " /></g></svg>
