<?xml version="1.0" encoding="UTF-8" standalone="no"?>
<!-- Created with Inkscape (http://www.inkscape.org/) -->

<svg
   width="172.6701mm"
   height="172.6701mm"
   viewBox="0 0 172.6701 172.6701"
   version="1.1"
   id="svg1"
   xml:space="preserve"
   xmlns="http://www.w3.org/2000/svg"
   xmlns:svg="http://www.w3.org/2000/svg"><defs
     id="defs1" /><g
     id="layer1"
     transform="translate(157.25102,198.81012)"><path
       id="path5"
       style="fill:#ffffff;fill-opacity:1;stroke-width:0.805188;stroke-linecap:round;stroke-linejoin:round"
       d="M -2.0863309 -198.17657 L -10.088943 -183.11289 L -10.930235 -165.68398 L -19.198981 -165.68398 L -11.423229 -155.47426 L -12.166336 -140.07934 C -28.353216 -157.12094 -50.823548 -166.77435 -74.327399 -166.78417 C -103.64471 -166.77397 -130.92652 -151.79225 -146.66717 -127.05894 L -157.25102 -127.05894 L -149.61996 -115.86014 L -157.25102 -26.140039 L -8.5138455 -26.140039 L 15.419061 -26.140039 L 8.0799737 -154.80195 L 15.419061 -165.68398 L 7.4593397 -165.68398 L 6.4490654 -183.39297 L -2.0863309 -198.17657 z M -83.43072 -192.21621 C -85.584619 -189.65499 -86.77489 -186.4211 -86.795372 -183.07465 C -86.842092 -175.15518 -80.459903 -168.69733 -72.540428 -168.65072 C -64.621155 -168.60402 -58.163395 -174.98588 -58.116503 -182.90515 C -58.102813 -186.26049 -59.266203 -189.5144 -61.404157 -192.10045 C -60.83125 -190.6836 -60.536835 -189.16959 -60.537027 -187.64129 C -60.575787 -181.07411 -65.930869 -175.78172 -72.498054 -175.82031 C -79.065241 -175.85911 -84.357627 -181.21415 -84.319038 -187.78134 C -84.309338 -189.30285 -84.007827 -190.80837 -83.43072 -192.21621 z M -57.38063 -119.64906 C -50.748399 -119.64906 -45.674886 -117.15466 -42.160371 -112.16631 C -38.589169 -107.23465 -36.803592 -100.06428 -36.803592 -90.654448 C -36.803592 -81.244616 -38.589169 -74.017081 -42.160371 -68.97205 C -45.674886 -63.983706 -50.748399 -61.489303 -57.38063 -61.489303 C -64.012861 -61.489303 -69.114438 -63.983706 -72.685639 -68.97205 C -76.25684 -74.017081 -78.042418 -81.244616 -78.042418 -90.654448 C -78.042418 -100.00759 -76.25684 -107.17797 -72.685639 -112.16631 C -69.114438 -117.15466 -64.012861 -119.64906 -57.38063 -119.64906 z M -143.51491 -118.88373 L -139.34824 -118.88373 C -137.19418 -118.82705 -132.48911 -118.79847 -125.23334 -118.79847 C -117.69413 -118.79847 -112.79107 -118.82705 -110.52364 -118.88373 L -106.44224 -118.88373 L -104.74156 -115.22762 C -105.81859 -113.52705 -107.85933 -109.84261 -110.86367 -104.17404 C -113.86801 -98.505463 -116.70228 -92.496548 -119.36651 -86.147746 C -122.03074 -79.798944 -123.36265 -74.838719 -123.36265 -71.267517 C -123.36265 -68.433231 -122.37112 -66.307789 -120.38712 -64.890646 C -122.31444 -62.566531 -124.78026 -61.404554 -127.7846 -61.404554 C -130.5622 -61.404554 -132.71622 -62.169506 -134.24674 -63.700021 C -135.77725 -65.230536 -136.54221 -67.356494 -136.54221 -70.077409 C -136.54221 -73.478553 -135.72061 -77.077772 -134.07672 -80.875717 C -132.43284 -84.730347 -129.48477 -89.945728 -125.23334 -96.521273 L -115.20036 -111.9963 L -134.58677 -111.9963 C -135.38037 -109.44544 -135.8621 -106.44124 -136.03216 -102.98341 C -137.0525 -102.81335 -138.10119 -102.72813 -139.17822 -102.72813 C -140.31194 -102.72813 -141.41727 -102.81335 -142.4943 -102.98341 L -144.87503 -117.60836 L -143.51491 -118.88373 z M -32.382156 -118.88373 L -28.216002 -118.88373 C -26.061944 -118.82705 -21.356875 -118.79847 -14.101101 -118.79847 C -6.5618986 -118.79847 -1.6583176 -118.82705 0.60911184 -118.88373 L 4.6905165 -118.88373 L 6.3906711 -115.22762 C 5.3136421 -113.52705 3.2729081 -109.84261 0.26856415 -104.17404 C -2.7357798 -98.505463 -5.5700465 -92.496548 -8.234276 -86.147746 C -10.898506 -79.798944 -12.230415 -74.838719 -12.230415 -71.267517 C -12.230415 -68.433231 -11.23837 -66.307789 -9.2543688 -64.890646 C -11.181684 -62.566531 -13.647506 -61.404554 -16.65185 -61.404554 C -19.429451 -61.404554 -21.583473 -62.169506 -23.113988 -63.700021 C -24.644503 -65.230536 -25.409972 -67.356494 -25.409972 -70.077409 C -25.409972 -73.478553 -24.587859 -77.077772 -22.943972 -80.875717 C -21.300086 -84.730347 -18.352532 -89.945728 -14.101101 -96.521273 L -4.0676053 -111.9963 L -23.454019 -111.9963 C -24.247619 -109.44544 -24.729351 -106.44124 -24.899409 -102.98341 C -25.919752 -102.81335 -26.968441 -102.72813 -28.04547 -102.72813 C -29.179185 -102.72813 -30.285034 -102.81335 -31.362063 -102.98341 L -33.742797 -117.60836 L -32.382156 -118.88373 z M -57.38063 -115.31237 C -60.271603 -115.31237 -62.368981 -113.41351 -63.672753 -109.61556 C -64.919839 -105.81762 -65.543439 -99.497422 -65.543439 -90.654448 C -65.543439 -81.868159 -64.919839 -75.576025 -63.672753 -71.778081 C -62.368981 -68.036822 -60.271603 -66.16602 -57.38063 -66.16602 C -54.489658 -66.16602 -52.42086 -68.036822 -51.173774 -71.778081 C -49.870002 -75.576025 -49.217821 -81.868159 -49.217821 -90.654448 C -49.217821 -99.440737 -49.870002 -105.73287 -51.173774 -109.53081 C -52.42086 -113.38544 -54.489658 -115.31237 -57.38063 -115.31237 z M -91.221975 -101.28274 C -89.237975 -101.28274 -87.764197 -100.68772 -86.80054 -99.497319 C -85.780197 -98.363604 -85.269884 -96.776539 -85.269884 -94.735852 C -85.269884 -92.695166 -85.780197 -91.107584 -86.80054 -89.973869 C -87.764197 -88.840154 -89.237975 -88.273198 -91.221975 -88.273198 C -93.205976 -88.273198 -94.708334 -88.840154 -95.728677 -89.973869 C -96.692335 -91.16427 -97.174067 -92.751852 -97.174067 -94.735852 C -97.174067 -96.833225 -96.692335 -98.448354 -95.728677 -99.582068 C -94.708334 -100.71578 -93.205976 -101.28274 -91.221975 -101.28274 z M -91.221975 -74.498845 C -89.237975 -74.498845 -87.764197 -73.903824 -86.80054 -72.713424 C -85.780197 -71.579709 -85.269884 -69.992127 -85.269884 -67.951441 C -85.269884 -65.910754 -85.780197 -64.323689 -86.80054 -63.189974 C -87.764197 -62.05626 -89.237975 -61.489303 -91.221975 -61.489303 C -93.205976 -61.489303 -94.708334 -62.05626 -95.728677 -63.189974 C -96.692335 -64.380375 -97.174067 -65.96744 -97.174067 -67.951441 C -97.174067 -70.048813 -96.692335 -71.664459 -95.728677 -72.798173 C -94.708334 -73.931888 -93.205976 -74.498845 -91.221975 -74.498845 z " /></g></svg>
