<?xml version="1.0" encoding="UTF-8" standalone="no"?>
<!-- Created with Inkscape (http://www.inkscape.org/) -->

<svg
   width="172.6701mm"
   height="172.6701mm"
   viewBox="0 0 172.6701 172.6701"
   version="1.1"
   id="svg1"
   xml:space="preserve"
   xmlns="http://www.w3.org/2000/svg"
   xmlns:svg="http://www.w3.org/2000/svg"><defs
     id="defs1" /><g
     id="layer1"
     transform="translate(157.25102,198.81012)"><path
       id="path5"
       style="fill:#ffffff;fill-opacity:1;stroke-width:0.805188;stroke-linecap:round;stroke-linejoin:round"
       d="M -2.0863309 -198.17657 L -10.088943 -183.11289 L -10.930235 -165.68398 L -19.198981 -165.68398 L -11.423229 -155.47426 L -12.166336 -140.07934 C -28.353216 -157.12094 -50.823548 -166.77435 -74.327399 -166.78417 C -103.64471 -166.77397 -130.92652 -151.79225 -146.66717 -127.05894 L -157.25102 -127.05894 L -149.61996 -115.86014 L -157.25102 -26.140039 L -8.5138455 -26.140039 L 15.419061 -26.140039 L 8.0799737 -154.80195 L 15.419061 -165.68398 L 7.4593397 -165.68398 L 6.4490654 -183.39297 L -2.0863309 -198.17657 z M -83.43072 -192.21621 C -85.584619 -189.65499 -86.77489 -186.4211 -86.795372 -183.07465 C -86.842092 -175.15518 -80.459903 -168.69733 -72.540428 -168.65072 C -64.621155 -168.60402 -58.163395 -174.98588 -58.116503 -182.90515 C -58.102813 -186.26049 -59.266203 -189.5144 -61.404157 -192.10045 C -60.83125 -190.6836 -60.536835 -189.16959 -60.537027 -187.64129 C -60.575787 -181.07411 -65.930869 -175.78172 -72.498054 -175.82031 C -79.065241 -175.85911 -84.357627 -181.21415 -84.319038 -187.78134 C -84.309338 -189.30285 -84.007827 -190.80837 -83.43072 -192.21621 z M -105.7291 -133.25443 C -99.611257 -133.25443 -94.199432 -132.21882 -89.493399 -130.14816 C -84.787365 -128.17163 -81.11653 -125.34807 -78.481151 -121.67736 C -75.845772 -118.10078 -74.528421 -113.95935 -74.528421 -109.25331 C -74.528421 -103.98256 -76.081069 -99.464961 -79.187051 -95.700135 C -82.293033 -91.935308 -86.905056 -89.064791 -93.022899 -87.088257 C -85.305004 -85.394085 -79.89318 -82.61748 -76.787198 -78.758533 C -73.681216 -74.899586 -72.12805 -69.675585 -72.12805 -63.087138 C -72.12805 -57.345778 -73.869556 -52.451502 -77.352021 -48.404314 C -80.740365 -44.357125 -85.164047 -41.345223 -90.623046 -39.368689 C -96.082044 -37.392155 -101.72917 -36.404012 -107.56465 -36.404012 C -116.03551 -36.404012 -123.23579 -38.145518 -129.1654 -41.627983 C -135.00088 -45.110448 -137.91835 -49.863338 -137.91835 -55.887061 C -137.91835 -59.369526 -136.88325 -62.052218 -134.8126 -63.934632 C -132.74194 -65.911166 -130.15368 -66.899309 -127.0477 -66.899309 C -123.84759 -66.899309 -120.60039 -65.628396 -117.30617 -63.087138 C -118.15326 -61.298846 -118.57689 -59.134219 -118.57689 -56.592961 C -118.57689 -53.5811 -117.68266 -51.13422 -115.89437 -49.251807 C -114.01196 -47.369394 -111.23535 -46.428207 -107.56465 -46.428207 C -99.47027 -46.428207 -95.423269 -52.028372 -95.423269 -63.228732 C -95.423269 -69.346575 -97.399555 -74.099466 -101.35262 -77.48781 C -105.21157 -80.876154 -110.71782 -82.570187 -117.87099 -82.570187 L -117.87099 -91.323658 C -104.03526 -92.453106 -97.117223 -98.429436 -97.117223 -109.25331 C -97.117223 -114.71231 -97.964498 -118.71287 -99.65867 -121.25413 C -101.35284 -123.88951 -103.65885 -125.20686 -106.57659 -125.20686 C -110.05906 -125.20686 -112.69428 -123.98342 -114.48257 -121.53628 C -116.17674 -119.08915 -117.02402 -116.1242 -117.02402 -112.64174 C -117.02402 -109.53575 -116.36508 -106.75915 -115.04739 -104.31201 C -117.68277 -101.48839 -121.07084 -100.07661 -125.21215 -100.07661 C -128.97698 -100.07661 -131.89496 -101.20614 -133.96562 -103.46504 C -136.03627 -105.72393 -137.07137 -108.64192 -137.07137 -112.21851 C -137.07137 -116.92454 -135.47125 -120.83016 -132.27115 -123.93614 C -128.97693 -127.13624 -124.92993 -129.48921 -120.12977 -130.99514 C -115.2355 -132.50107 -110.43513 -133.25443 -105.7291 -133.25443 z M -64.222073 -131.84263 L -57.304149 -131.84263 C -53.727564 -131.74851 -45.915816 -131.70104 -33.86837 -131.70104 C -21.350322 -131.70104 -13.208848 -131.74851 -9.4440213 -131.84263 L -2.667174 -131.84263 L 0.15642629 -125.77168 C -1.6318664 -122.94806 -5.0204494 -116.83035 -10.008845 -107.41828 C -14.99724 -98.006216 -19.703175 -88.029324 -24.126846 -77.48781 C -28.550517 -66.946295 -30.7621 -58.710909 -30.7621 -52.781307 C -30.7621 -48.075274 -29.115023 -44.545306 -25.820799 -42.19229 C -29.020902 -38.333342 -33.115375 -36.404012 -38.103771 -36.404012 C -42.715683 -36.404012 -46.29209 -37.674925 -48.833348 -40.216183 C -51.374606 -42.757441 -52.645519 -46.286892 -52.645519 -50.804684 C -52.645519 -56.451924 -51.280694 -62.428254 -48.551195 -68.734339 C -45.821696 -75.134544 -40.92742 -83.794084 -33.86837 -94.712081 L -17.208922 -120.40664 L -49.398172 -120.40664 C -50.715861 -116.17121 -51.515663 -111.18302 -51.798025 -105.44166 C -53.492197 -105.1593 -55.233703 -105.01791 -57.021996 -105.01791 C -58.904409 -105.01791 -60.739827 -105.1593 -62.52812 -105.44166 L -66.48085 -129.72493 L -64.222073 -131.84263 z " /></g></svg>
