<?xml version="1.0" encoding="UTF-8" standalone="no"?>
<!-- Created with Inkscape (http://www.inkscape.org/) -->

<svg
   width="172.6701mm"
   height="172.6701mm"
   viewBox="0 0 172.6701 172.6701"
   version="1.1"
   id="svg1"
   xml:space="preserve"
   xmlns="http://www.w3.org/2000/svg"
   xmlns:svg="http://www.w3.org/2000/svg"><defs
     id="defs1" /><g
     id="layer1"
     transform="translate(157.25102,198.81012)"><path
       id="path5"
       style="fill:#ffffff;fill-opacity:1;stroke-width:0.805188;stroke-linecap:round;stroke-linejoin:round"
       d="M -2.0863309 -198.17657 L -10.088943 -183.11289 L -10.930235 -165.68398 L -19.198981 -165.68398 L -11.423229 -155.47426 L -12.166336 -140.07934 C -28.353216 -157.12094 -50.823548 -166.77435 -74.327399 -166.78417 C -103.64471 -166.77397 -130.92652 -151.79225 -146.66717 -127.05894 L -157.25102 -127.05894 L -149.61996 -115.86014 L -157.25102 -26.140039 L -8.5138455 -26.140039 L 15.419061 -26.140039 L 8.0799737 -154.80195 L 15.419061 -165.68398 L 7.4593397 -165.68398 L 6.4490654 -183.39297 L -2.0863309 -198.17657 z M -83.43072 -192.21621 C -85.584619 -189.65499 -86.77489 -186.4211 -86.795372 -183.07465 C -86.842092 -175.15518 -80.459903 -168.69733 -72.540428 -168.65072 C -64.621155 -168.60402 -58.163395 -174.98588 -58.116503 -182.90515 C -58.102813 -186.26049 -59.266203 -189.5144 -61.404157 -192.10045 C -60.83125 -190.6836 -60.536835 -189.16959 -60.537027 -187.64129 C -60.575787 -181.07411 -65.930869 -175.78172 -72.498054 -175.82031 C -79.065241 -175.85911 -84.357627 -181.21415 -84.319038 -187.78134 C -84.309338 -189.30285 -84.007827 -190.80837 -83.43072 -192.21621 z M -14.526398 -119.81908 C -8.5743962 -119.81908 -3.8407472 -118.54381 -0.32623159 -115.99295 C 3.188284 -113.44209 4.9452813 -110.01229 4.9452813 -105.70418 C 4.9452813 -103.38006 4.0951046 -101.05611 2.3945326 -98.731991 C 0.69396052 -96.407876 -1.5452858 -94.50901 -4.3228869 -93.035181 C -0.80837129 -91.334609 1.9411878 -89.350519 3.9251885 -87.08309 C 5.965875 -84.81566 6.9859836 -81.896169 6.9859836 -78.324968 C 6.9859836 -73.166566 5.1151815 -69.057034 1.373923 -65.996005 C -2.3673355 -62.991661 -7.4122681 -61.489303 -13.76107 -61.489303 C -20.733416 -61.489303 -26.118212 -62.878373 -29.916157 -65.655974 C -33.657415 -68.433575 -35.528217 -72.401238 -35.528217 -77.55964 C -35.528217 -80.223869 -34.678041 -82.86014 -32.977469 -85.467684 C -31.276897 -88.131914 -28.896299 -90.483931 -25.835269 -92.524618 C -28.386127 -93.941761 -30.3697 -95.642631 -31.786844 -97.626632 C -33.203987 -99.610633 -33.912812 -102.07646 -33.912812 -105.02411 C -33.912812 -109.55897 -32.155298 -113.15871 -28.640782 -115.82294 C -25.126267 -118.48717 -20.421715 -119.81908 -14.526398 -119.81908 z M -127.44405 -119.73381 C -123.75948 -119.73381 -120.50013 -119.11073 -117.66584 -117.86364 C -114.83155 -116.67324 -112.62089 -114.97237 -111.03369 -112.76163 C -109.44649 -110.60757 -108.65295 -108.11368 -108.65295 -105.27939 C -108.65295 -102.10499 -109.58835 -99.384015 -111.45898 -97.116586 C -113.32961 -94.849156 -116.10723 -93.120223 -119.79181 -91.929822 C -115.14358 -90.909479 -111.88422 -89.237189 -110.01359 -86.913074 C -108.14296 -84.588959 -107.20756 -81.442892 -107.20756 -77.474891 C -107.20756 -74.017061 -108.25625 -71.069506 -110.35362 -68.632019 C -112.39431 -66.194533 -115.05813 -64.380375 -118.3459 -63.189974 C -121.63367 -61.999574 -125.0349 -61.404554 -128.54941 -61.404554 C -133.65113 -61.404554 -137.98775 -62.453243 -141.55895 -64.550615 C -145.07347 -66.647987 -146.83098 -69.510317 -146.83098 -73.138204 C -146.83098 -75.235577 -146.20738 -76.851222 -144.9603 -77.984937 C -143.71321 -79.175337 -142.15421 -79.770358 -140.28358 -79.770358 C -138.35627 -79.770358 -136.40076 -79.005405 -134.41675 -77.474891 C -134.92693 -76.397862 -135.18157 -75.094016 -135.18157 -73.563501 C -135.18157 -71.749558 -134.64319 -70.275781 -133.56616 -69.142066 C -132.43245 -68.008351 -130.76016 -67.441394 -128.54941 -67.441394 C -123.67444 -67.441394 -121.2372 -70.814037 -121.2372 -77.55964 C -121.2372 -81.244213 -122.42775 -84.10706 -124.80856 -86.147746 C -127.13267 -88.188433 -130.44867 -89.208541 -134.75679 -89.208541 L -134.75679 -94.480571 C -126.42398 -95.1608 -122.25729 -98.760535 -122.25729 -105.27939 C -122.25729 -108.56717 -122.7676 -110.97583 -123.78795 -112.50634 C -124.80829 -114.09354 -126.19736 -114.88759 -127.95462 -114.88759 C -130.05199 -114.88759 -131.63905 -114.15071 -132.71608 -112.67688 C -133.73643 -111.20305 -134.24674 -109.41747 -134.24674 -107.3201 C -134.24674 -105.44947 -133.84971 -103.77718 -133.05611 -102.30335 C -134.64331 -100.60278 -136.68405 -99.752084 -139.17822 -99.752084 C -141.44565 -99.752084 -143.20265 -100.43233 -144.44973 -101.79279 C -145.69682 -103.15324 -146.32042 -104.91076 -146.32042 -107.06482 C -146.32042 -109.8991 -145.35696 -112.25164 -143.42964 -114.12227 C -141.44564 -116.04958 -139.00788 -117.46671 -136.11691 -118.37369 C -133.16925 -119.28066 -130.27834 -119.73381 -127.44405 -119.73381 z M -60.101394 -119.73381 C -54.262764 -119.73381 -49.614856 -118.28861 -46.157026 -115.39764 C -42.699196 -112.56335 -40.970262 -108.56711 -40.970262 -103.40871 C -40.970262 -98.873849 -42.699196 -94.026912 -46.157026 -88.86851 C -49.614856 -83.766794 -55.311453 -77.616529 -63.247456 -70.41744 L -40.37495 -70.41744 L -40.37495 -62.084615 L -78.893012 -62.084615 L -78.893012 -67.016097 C -72.600896 -73.081471 -67.697315 -78.268272 -64.182799 -82.576388 C -60.668283 -86.884504 -58.145817 -90.852684 -56.615302 -94.480571 C -55.028102 -98.108458 -54.234569 -101.84955 -54.234569 -105.70418 C -54.234569 -111.82623 -56.275303 -114.88759 -60.356676 -114.88759 C -62.170619 -114.88759 -63.644397 -114.0369 -64.778111 -112.33633 C -65.911826 -110.69244 -66.478783 -108.65171 -66.478783 -106.21422 C -66.478783 -104.51365 -65.883246 -102.89852 -64.692845 -101.36801 C -65.656503 -100.46103 -66.762353 -99.752209 -68.009439 -99.242037 C -69.199839 -98.731866 -70.38988 -98.476709 -71.58028 -98.476709 C -73.620967 -98.476709 -75.321837 -99.10031 -76.682294 -100.3474 C -78.042752 -101.65117 -78.722997 -103.52197 -78.722997 -105.95946 C -78.722997 -108.567 -77.957528 -110.91953 -76.427013 -113.01691 C -74.896498 -115.11428 -72.742476 -116.75799 -69.964875 -117.94839 C -67.130588 -119.13879 -63.842653 -119.73381 -60.101394 -119.73381 z M -14.526398 -113.78224 C -16.793828 -113.78224 -18.579405 -113.04535 -19.883177 -111.57152 C -21.186949 -110.15437 -21.838614 -108.22693 -21.838614 -105.78944 C -21.838614 -103.63538 -21.016501 -101.84981 -19.372614 -100.43266 C -17.672042 -99.072205 -15.20622 -97.711715 -11.975133 -96.351258 C -10.55799 -97.314915 -9.424593 -98.646824 -8.5743069 -100.3474 C -7.7240209 -102.04797 -7.2989326 -103.86213 -7.2989326 -105.78944 C -7.2989326 -108.22693 -7.9791773 -110.15437 -9.3396349 -111.57152 C -10.643407 -113.04535 -12.37234 -113.78224 -14.526398 -113.78224 z M -92.157319 -101.28274 C -90.173318 -101.28274 -88.699541 -100.68772 -87.735883 -99.497319 C -86.71554 -98.363604 -86.205227 -96.776539 -86.205227 -94.735852 C -86.205227 -92.695166 -86.71554 -91.107584 -87.735883 -89.973869 C -88.699541 -88.840154 -90.173318 -88.273198 -92.157319 -88.273198 C -94.14132 -88.273198 -95.643677 -88.840154 -96.66402 -89.973869 C -97.627678 -91.16427 -98.10941 -92.751852 -98.10941 -94.735852 C -98.10941 -96.833225 -97.627678 -98.448354 -96.66402 -99.582068 C -95.643677 -100.71578 -94.14132 -101.28274 -92.157319 -101.28274 z M -18.012491 -89.038526 C -19.713063 -87.678068 -20.960264 -86.119583 -21.753864 -84.362325 C -22.547465 -82.605068 -22.943972 -80.50769 -22.943972 -78.070203 C -22.943972 -74.725745 -22.121859 -72.089474 -20.477973 -70.162159 C -18.834087 -68.291529 -16.595357 -67.356645 -13.76107 -67.356645 C -10.983469 -67.356645 -8.8294474 -68.291529 -7.2989326 -70.162159 C -5.711732 -72.032788 -4.9181994 -74.640479 -4.9181994 -77.984937 C -4.9181994 -79.855566 -5.5132197 -81.442631 -6.7036201 -82.746403 C -7.8373348 -84.106861 -9.2830485 -85.212194 -11.040306 -86.06248 C -12.797564 -86.969452 -15.121518 -87.961497 -18.012491 -89.038526 z M -92.157319 -74.498845 C -90.173318 -74.498845 -88.699541 -73.903824 -87.735883 -72.713424 C -86.71554 -71.579709 -86.205227 -69.992127 -86.205227 -67.951441 C -86.205227 -65.910754 -86.71554 -64.323689 -87.735883 -63.189974 C -88.699541 -62.05626 -90.173318 -61.489303 -92.157319 -61.489303 C -94.14132 -61.489303 -95.643677 -62.05626 -96.66402 -63.189974 C -97.627678 -64.380375 -98.10941 -65.96744 -98.10941 -67.951441 C -98.10941 -70.048813 -97.627678 -71.664459 -96.66402 -72.798173 C -95.643677 -73.931888 -94.14132 -74.498845 -92.157319 -74.498845 z " /></g></svg>
