<?xml version="1.0" encoding="UTF-8" standalone="no"?>
<!-- Created with Inkscape (http://www.inkscape.org/) -->

<svg
   width="172.6701mm"
   height="172.6701mm"
   viewBox="0 0 172.6701 172.6701"
   version="1.1"
   id="svg1"
   xml:space="preserve"
   xmlns="http://www.w3.org/2000/svg"
   xmlns:svg="http://www.w3.org/2000/svg"><defs
     id="defs1" /><g
     id="layer1"
     transform="translate(157.25102,198.81012)"><path
       id="path5"
       style="fill:#ffffff;fill-opacity:1;stroke-width:0.805188;stroke-linecap:round;stroke-linejoin:round"
       d="M -2.0863309 -198.17657 L -10.088943 -183.11289 L -10.930235 -165.68398 L -19.198981 -165.68398 L -11.423229 -155.47426 L -12.166336 -140.07934 C -28.353216 -157.12094 -50.823548 -166.77435 -74.327399 -166.78417 C -103.64471 -166.77397 -130.92652 -151.79225 -146.66717 -127.05894 L -157.25102 -127.05894 L -149.61996 -115.86014 L -157.25102 -26.140039 L -8.5138455 -26.140039 L 15.419061 -26.140039 L 8.0799737 -154.80195 L 15.419061 -165.68398 L 7.4593397 -165.68398 L 6.4490654 -183.39297 L -2.0863309 -198.17657 z M -83.43072 -192.21621 C -85.584619 -189.65499 -86.77489 -186.4211 -86.795372 -183.07465 C -86.842092 -175.15518 -80.459903 -168.69733 -72.540428 -168.65072 C -64.621155 -168.60402 -58.163395 -174.98588 -58.116503 -182.90515 C -58.102813 -186.26049 -59.266203 -189.5144 -61.404157 -192.10045 C -60.83125 -190.6836 -60.536835 -189.16959 -60.537027 -187.64129 C -60.575787 -181.07411 -65.930869 -175.78172 -72.498054 -175.82031 C -79.065241 -175.85911 -84.357627 -181.21415 -84.319038 -187.78134 C -84.309338 -189.30285 -84.007827 -190.80837 -83.43072 -192.21621 z M -125.7439 -119.81908 C -119.7919 -119.81908 -115.05825 -118.54381 -111.54373 -115.99295 C -108.02922 -113.44209 -106.27222 -110.01229 -106.27222 -105.70418 C -106.27222 -103.38006 -107.1224 -101.05611 -108.82297 -98.731991 C -110.52354 -96.407876 -112.76279 -94.50901 -115.54039 -93.035181 C -112.02587 -91.334609 -109.27631 -89.350519 -107.29231 -87.08309 C -105.25163 -84.81566 -104.23152 -81.896169 -104.23152 -78.324968 C -104.23152 -73.166566 -106.10232 -69.057034 -109.84358 -65.996005 C -113.58484 -62.991661 -118.62977 -61.489303 -124.97857 -61.489303 C -131.95092 -61.489303 -137.33571 -62.878373 -141.13366 -65.655974 C -144.87492 -68.433575 -146.74572 -72.401238 -146.74572 -77.55964 C -146.74572 -80.223869 -145.89554 -82.86014 -144.19497 -85.467684 C -142.4944 -88.131914 -140.11328 -90.483931 -137.05225 -92.524618 C -139.60311 -93.941761 -141.5872 -95.642631 -143.00434 -97.626632 C -144.42149 -99.610633 -145.13031 -102.07646 -145.13031 -105.02411 C -145.13031 -109.55897 -143.3728 -113.15871 -139.85828 -115.82294 C -136.34377 -118.48717 -131.63922 -119.81908 -125.7439 -119.81908 z M -57.125349 -119.73381 C -51.286718 -119.73381 -46.63881 -118.28861 -43.18098 -115.39764 C -39.72315 -112.56335 -37.994217 -108.56711 -37.994217 -103.40871 C -37.994217 -98.873849 -39.72315 -94.026912 -43.18098 -88.86851 C -46.63881 -83.766794 -52.335407 -77.616529 -60.27141 -70.41744 L -37.398904 -70.41744 L -37.398904 -62.084615 L -75.916966 -62.084615 L -75.916966 -67.016097 C -69.62485 -73.081471 -64.721269 -78.268272 -61.206753 -82.576388 C -57.692238 -86.884504 -55.169771 -90.852684 -53.639256 -94.480571 C -52.052056 -98.108458 -51.258523 -101.84955 -51.258523 -105.70418 C -51.258523 -111.82623 -53.299257 -114.88759 -57.38063 -114.88759 C -59.194574 -114.88759 -60.668351 -114.0369 -61.802066 -112.33633 C -62.93578 -110.69244 -63.502737 -108.65171 -63.502737 -106.21422 C -63.502737 -104.51365 -62.907717 -102.89852 -61.717316 -101.36801 C -62.680974 -100.46103 -63.786307 -99.752209 -65.033393 -99.242037 C -66.223793 -98.731866 -67.413834 -98.476709 -68.604235 -98.476709 C -70.644921 -98.476709 -72.345791 -99.10031 -73.706249 -100.3474 C -75.066706 -101.65117 -75.746951 -103.52197 -75.746951 -105.95946 C -75.746951 -108.567 -74.981482 -110.91953 -73.450967 -113.01691 C -71.920452 -115.11428 -69.76643 -116.75799 -66.988829 -117.94839 C -64.154542 -119.13879 -60.866607 -119.73381 -57.125349 -119.73381 z M -12.655712 -119.56379 C -5.9101091 -119.56379 -0.7513717 -117.69351 2.8198296 -113.95225 C 6.4477167 -110.21099 8.2613579 -104.7971 8.2613579 -97.711381 C 8.2613579 -88.811721 5.4837353 -81.216258 -0.071466777 -74.924142 C -5.5699831 -68.688711 -13.56247 -64.09693 -24.049331 -61.149272 L -26.090034 -65.400692 C -20.42146 -67.838179 -15.85826 -70.956182 -12.40043 -74.754126 C -8.9426002 -78.608756 -6.6467098 -83.086732 -5.5129951 -88.188448 C -8.6873963 -86.601248 -11.776819 -85.807715 -14.781163 -85.807715 C -20.449737 -85.807715 -24.928229 -87.338137 -28.216002 -90.399166 C -31.447089 -93.460196 -33.062218 -97.598308 -33.062218 -102.8134 C -33.062218 -106.04448 -32.212041 -108.93539 -30.511469 -111.48625 C -28.754211 -114.03711 -26.345033 -116.0212 -23.284003 -117.43834 C -20.166288 -118.85549 -16.623713 -119.56379 -12.655712 -119.56379 z M -125.7439 -113.78224 C -128.01133 -113.78224 -129.79691 -113.04535 -131.10068 -111.57152 C -132.40445 -110.15437 -133.05611 -108.22693 -133.05611 -105.78944 C -133.05611 -103.63538 -132.234 -101.84981 -130.59012 -100.43266 C -128.88954 -99.072205 -126.42372 -97.711715 -123.19263 -96.351258 C -121.77549 -97.314915 -120.64209 -98.646824 -119.79181 -100.3474 C -118.94152 -102.04797 -118.51643 -103.86213 -118.51643 -105.78944 C -118.51643 -108.22693 -119.19668 -110.15437 -120.55714 -111.57152 C -121.86091 -113.04535 -123.58984 -113.78224 -125.7439 -113.78224 z M -13.165758 -113.69697 C -15.603245 -113.69697 -17.474047 -112.76157 -18.777819 -110.89094 C -20.08159 -109.02031 -20.733255 -106.35597 -20.733255 -102.89814 C -20.733255 -99.383629 -20.024946 -96.634587 -18.607803 -94.650586 C -17.133974 -92.723271 -15.06466 -91.759807 -12.40043 -91.759807 C -10.076315 -91.759807 -7.4972045 -92.723271 -4.6629178 -94.650586 L -4.6629178 -95.755945 C -4.6629178 -101.93469 -5.3431625 -106.46931 -6.7036201 -109.36028 C -8.0640777 -112.25126 -10.2181 -113.69697 -13.165758 -113.69697 z M -89.181273 -101.28274 C -87.197272 -101.28274 -85.723495 -100.68772 -84.759838 -99.497319 C -83.739494 -98.363604 -83.229182 -96.776539 -83.229182 -94.735852 C -83.229182 -92.695166 -83.739494 -91.107584 -84.759838 -89.973869 C -85.723495 -88.840154 -87.197272 -88.273198 -89.181273 -88.273198 C -91.165274 -88.273198 -92.667632 -88.840154 -93.687975 -89.973869 C -94.651632 -91.16427 -95.133365 -92.751852 -95.133365 -94.735852 C -95.133365 -96.833225 -94.651632 -98.448354 -93.687975 -99.582068 C -92.667632 -100.71578 -91.165274 -101.28274 -89.181273 -101.28274 z M -129.22999 -89.038526 C -130.93056 -87.678068 -132.17776 -86.119583 -132.97137 -84.362325 C -133.76497 -82.605068 -134.16147 -80.50769 -134.16147 -78.070203 C -134.16147 -74.725745 -133.33936 -72.089474 -131.69547 -70.162159 C -130.05159 -68.291529 -127.81286 -67.356645 -124.97857 -67.356645 C -122.20097 -67.356645 -120.04695 -68.291529 -118.51643 -70.162159 C -116.92923 -72.032788 -116.1357 -74.640479 -116.1357 -77.984937 C -116.1357 -79.855566 -116.73072 -81.442631 -117.92112 -82.746403 C -119.05484 -84.106861 -120.50003 -85.212194 -122.25729 -86.06248 C -124.01455 -86.969452 -126.33902 -87.961497 -129.22999 -89.038526 z M -89.181273 -74.498845 C -87.197272 -74.498845 -85.723495 -73.903824 -84.759838 -72.713424 C -83.739494 -71.579709 -83.229182 -69.992127 -83.229182 -67.951441 C -83.229182 -65.910754 -83.739494 -64.323689 -84.759838 -63.189974 C -85.723495 -62.05626 -87.197272 -61.489303 -89.181273 -61.489303 C -91.165274 -61.489303 -92.667632 -62.05626 -93.687975 -63.189974 C -94.651632 -64.380375 -95.133365 -65.96744 -95.133365 -67.951441 C -95.133365 -70.048813 -94.651632 -71.664459 -93.687975 -72.798173 C -92.667632 -73.931888 -91.165274 -74.498845 -89.181273 -74.498845 z " /></g></svg>
