<?xml version="1.0" encoding="UTF-8" standalone="no"?>
<!-- Created with Inkscape (http://www.inkscape.org/) -->

<svg
   width="172.6701mm"
   height="172.6701mm"
   viewBox="0 0 172.6701 172.6701"
   version="1.1"
   id="svg1"
   xml:space="preserve"
   xmlns="http://www.w3.org/2000/svg"
   xmlns:svg="http://www.w3.org/2000/svg"><defs
     id="defs1" /><g
     id="layer1"
     transform="translate(157.25102,198.81012)"><path
       id="path5"
       style="fill:#ffffff;fill-opacity:1;stroke-width:0.805188;stroke-linecap:round;stroke-linejoin:round"
       d="M -2.0863309 -198.17657 L -10.088943 -183.11289 L -10.930235 -165.68398 L -19.198981 -165.68398 L -11.423229 -155.47426 L -12.166336 -140.07934 C -28.353216 -157.12094 -50.823548 -166.77435 -74.327399 -166.78417 C -103.64471 -166.77397 -130.92652 -151.79225 -146.66717 -127.05894 L -157.25102 -127.05894 L -149.61996 -115.86014 L -157.25102 -26.140039 L -8.5138455 -26.140039 L 15.419061 -26.140039 L 8.0799737 -154.80195 L 15.419061 -165.68398 L 7.4593397 -165.68398 L 6.4490654 -183.39297 L -2.0863309 -198.17657 z M -83.43072 -192.21621 C -85.584619 -189.65499 -86.77489 -186.4211 -86.795372 -183.07465 C -86.842092 -175.15518 -80.459903 -168.69733 -72.540428 -168.65072 C -64.621155 -168.60402 -58.163395 -174.98588 -58.116503 -182.90515 C -58.102813 -186.26049 -59.266203 -189.5144 -61.404157 -192.10045 C -60.83125 -190.6836 -60.536835 -189.16959 -60.537027 -187.64129 C -60.575787 -181.07411 -65.930869 -175.78172 -72.498054 -175.82031 C -79.065241 -175.85911 -84.357627 -181.21415 -84.319038 -187.78134 C -84.309338 -189.30285 -84.007827 -190.80837 -83.43072 -192.21621 z M -59.208942 -120.07436 C -54.674084 -119.84761 -50.989123 -118.85557 -48.154837 -117.09831 L -68.391844 -83.767013 L -55.382303 -83.767013 L -54.532225 -97.626632 C -52.718282 -97.626632 -51.414436 -97.995076 -50.620836 -98.731991 C -49.77055 -99.468905 -49.118886 -100.71611 -48.6654 -102.47336 L -43.818667 -102.47336 L -43.903417 -83.341716 C -41.749359 -82.718173 -39.02838 -82.066508 -35.740607 -81.38628 L -36.165904 -77.304875 L -44.328714 -77.304875 L -44.328714 -62.084615 L -55.382303 -62.084615 L -55.382303 -77.304875 L -79.95548 -77.304875 L -80.636058 -80.36567 L -59.208942 -120.07436 z M -115.83804 -119.90383 L -113.79734 -115.65241 C -125.24786 -110.72075 -132.13501 -103.12528 -134.45913 -92.865166 C -131.17136 -94.452366 -128.05387 -95.245899 -125.10621 -95.245899 C -119.43764 -95.245899 -114.98773 -93.715477 -111.75664 -90.654448 C -108.46887 -87.593418 -106.82464 -83.455306 -106.82464 -78.240218 C -106.82464 -75.009132 -107.7034 -72.118221 -109.46066 -69.567363 C -111.16123 -67.016505 -113.57041 -65.032415 -116.68812 -63.615271 C -119.74915 -62.198128 -123.26366 -61.489303 -127.23166 -61.489303 C -133.97727 -61.489303 -139.16407 -63.360105 -142.79195 -67.101363 C -146.36316 -70.842622 -148.14873 -76.255999 -148.14873 -83.341716 C -148.14873 -92.241376 -145.39969 -99.808775 -139.90117 -106.04421 C -134.34597 -112.33632 -126.3249 -116.95617 -115.83804 -119.90383 z M -10.997415 -119.64906 C -4.3651839 -119.64906 0.70781241 -117.15466 4.222328 -112.16631 C 7.7935293 -107.23465 9.579107 -100.06428 9.579107 -90.654448 C 9.579107 -81.244616 7.7935293 -74.017081 4.222328 -68.97205 C 0.70781241 -63.983706 -4.3651839 -61.489303 -10.997415 -61.489303 C -17.629646 -61.489303 -22.731739 -63.983706 -26.302941 -68.97205 C -29.874142 -74.017081 -31.65972 -81.244616 -31.65972 -90.654448 C -31.65972 -100.00759 -29.874142 -107.17797 -26.302941 -112.16631 C -22.731739 -117.15466 -17.629646 -119.64906 -10.997415 -119.64906 z M -10.997415 -115.31237 C -13.888387 -115.31237 -15.985765 -113.41351 -17.289537 -109.61556 C -18.536623 -105.81762 -19.160224 -99.497422 -19.160224 -90.654448 C -19.160224 -81.868159 -18.536623 -75.576025 -17.289537 -71.778081 C -15.985765 -68.036822 -13.888387 -66.16602 -10.997415 -66.16602 C -8.1064424 -66.16602 -6.0376447 -68.036822 -4.7905586 -71.778081 C -3.4867867 -75.576025 -2.8346056 -81.868159 -2.8346056 -90.654448 C -2.8346056 -99.440737 -3.4867867 -105.73287 -4.7905586 -109.53081 C -6.0376447 -113.38544 -8.1064424 -115.31237 -10.997415 -115.31237 z M -91.859663 -101.28274 C -89.875662 -101.28274 -88.401885 -100.68772 -87.438227 -99.497319 C -86.417884 -98.363604 -85.907571 -96.776539 -85.907571 -94.735852 C -85.907571 -92.695166 -86.417884 -91.107584 -87.438227 -89.973869 C -88.401885 -88.840154 -89.875662 -88.273198 -91.859663 -88.273198 C -93.843663 -88.273198 -95.346021 -88.840154 -96.366364 -89.973869 C -97.330022 -91.16427 -97.811754 -92.751852 -97.811754 -94.735852 C -97.811754 -96.833225 -97.330022 -98.448354 -96.366364 -99.582068 C -95.346021 -100.71578 -93.843663 -101.28274 -91.859663 -101.28274 z M -127.48695 -89.293807 C -129.86775 -89.293807 -132.44686 -88.330343 -135.22446 -86.403028 L -135.22446 -85.297669 C -135.22446 -79.118924 -134.54421 -74.583787 -133.18376 -71.692814 C -131.8233 -68.801842 -129.66928 -67.356645 -126.72162 -67.356645 C -124.28413 -67.356645 -122.41333 -68.291529 -121.10956 -70.162159 C -119.80578 -72.032788 -119.15412 -74.697123 -119.15412 -78.154952 C -119.15412 -81.669468 -119.89101 -84.390447 -121.36484 -86.317762 C -122.78198 -88.301762 -124.82272 -89.293807 -127.48695 -89.293807 z M -91.859663 -74.498845 C -89.875662 -74.498845 -88.401885 -73.903824 -87.438227 -72.713424 C -86.417884 -71.579709 -85.907571 -69.992127 -85.907571 -67.951441 C -85.907571 -65.910754 -86.417884 -64.323689 -87.438227 -63.189974 C -88.401885 -62.05626 -89.875662 -61.489303 -91.859663 -61.489303 C -93.843663 -61.489303 -95.346021 -62.05626 -96.366364 -63.189974 C -97.330022 -64.380375 -97.811754 -65.96744 -97.811754 -67.951441 C -97.811754 -70.048813 -97.330022 -71.664459 -96.366364 -72.798173 C -95.346021 -73.931888 -93.843663 -74.498845 -91.859663 -74.498845 z " /></g></svg>
