<?xml version="1.0" encoding="UTF-8" standalone="no"?>
<!-- Created with Inkscape (http://www.inkscape.org/) -->

<svg
   width="172.6701mm"
   height="172.6701mm"
   viewBox="0 0 172.6701 172.6701"
   version="1.1"
   id="svg1"
   xml:space="preserve"
   xmlns="http://www.w3.org/2000/svg"
   xmlns:svg="http://www.w3.org/2000/svg"><defs
     id="defs1" /><g
     id="layer1"
     transform="translate(157.25102,198.81012)"><path
       id="path5"
       style="fill:#ffffff;fill-opacity:1;stroke-width:0.805188;stroke-linecap:round;stroke-linejoin:round"
       d="M -2.0863309 -198.17657 L -10.088943 -183.11289 L -10.930235 -165.68398 L -19.198981 -165.68398 L -11.423229 -155.47426 L -12.166336 -140.07934 C -28.353216 -157.12094 -50.823548 -166.77435 -74.327399 -166.78417 C -103.64471 -166.77397 -130.92652 -151.79225 -146.66717 -127.05894 L -157.25102 -127.05894 L -149.61996 -115.86014 L -157.25102 -26.140039 L -8.5138455 -26.140039 L 15.419061 -26.140039 L 8.0799737 -154.80195 L 15.419061 -165.68398 L 7.4593397 -165.68398 L 6.4490654 -183.39297 L -2.0863309 -198.17657 z M -83.43072 -192.21621 C -85.584619 -189.65499 -86.77489 -186.4211 -86.795372 -183.07465 C -86.842092 -175.15518 -80.459903 -168.69733 -72.540428 -168.65072 C -64.621155 -168.60402 -58.163395 -174.98588 -58.116503 -182.90515 C -58.102813 -186.26049 -59.266203 -189.5144 -61.404157 -192.10045 C -60.83125 -190.6836 -60.536835 -189.16959 -60.537027 -187.64129 C -60.575787 -181.07411 -65.930869 -175.78172 -72.498054 -175.82031 C -79.065241 -175.85911 -84.357627 -181.21415 -84.319038 -187.78134 C -84.309338 -189.30285 -84.007827 -190.80837 -83.43072 -192.21621 z M -115.20036 -119.90383 L -113.15965 -115.65241 C -124.61017 -110.72075 -131.49733 -103.12528 -133.82144 -92.865166 C -130.53367 -94.452366 -127.41618 -95.245899 -124.46852 -95.245899 C -118.79995 -95.245899 -114.35004 -93.715477 -111.11895 -90.654448 C -107.83118 -87.593418 -106.18695 -83.455306 -106.18695 -78.240218 C -106.18695 -75.009132 -107.06571 -72.118221 -108.82297 -69.567363 C -110.52354 -67.016505 -112.93272 -65.032415 -116.05043 -63.615271 C -119.11146 -62.198128 -122.62598 -61.489303 -126.59398 -61.489303 C -133.33958 -61.489303 -138.52638 -63.360105 -142.15427 -67.101363 C -145.72547 -70.842622 -147.51105 -76.255999 -147.51105 -83.341716 C -147.51105 -92.241376 -144.762 -99.808775 -139.26349 -106.04421 C -133.70829 -112.33632 -125.68722 -116.95617 -115.20036 -119.90383 z M -0.32623159 -119.90383 L 1.7144707 -115.65241 C -9.7360478 -110.72075 -16.623719 -103.12528 -18.947834 -92.865166 C -15.660061 -94.452366 -12.542058 -95.245899 -9.5943997 -95.245899 C -3.9258262 -95.245899 0.52408614 -93.715477 3.755173 -90.654448 C 7.0429457 -87.593418 8.686655 -83.455306 8.686655 -78.240218 C 8.686655 -75.009132 7.8078979 -72.118221 6.0506402 -69.567363 C 4.3500681 -67.016505 1.9408898 -65.032415 -1.1768257 -63.615271 C -4.2378554 -62.198128 -7.7523667 -61.489303 -11.720368 -61.489303 C -18.465971 -61.489303 -23.652772 -63.360105 -27.280659 -67.101363 C -30.85186 -70.842622 -32.637438 -76.255999 -32.637438 -83.341716 C -32.637438 -92.241376 -29.887879 -99.808775 -24.389362 -106.04421 C -18.83416 -112.33632 -10.813093 -116.95617 -0.32623159 -119.90383 z M -57.38063 -119.64906 C -50.748399 -119.64906 -45.674886 -117.15466 -42.160371 -112.16631 C -38.589169 -107.23465 -36.803592 -100.06428 -36.803592 -90.654448 C -36.803592 -81.244616 -38.589169 -74.017081 -42.160371 -68.97205 C -45.674886 -63.983706 -50.748399 -61.489303 -57.38063 -61.489303 C -64.012861 -61.489303 -69.114438 -63.983706 -72.685639 -68.97205 C -76.25684 -74.017081 -78.042418 -81.244616 -78.042418 -90.654448 C -78.042418 -100.00759 -76.25684 -107.17797 -72.685639 -112.16631 C -69.114438 -117.15466 -64.012861 -119.64906 -57.38063 -119.64906 z M -57.38063 -115.31237 C -60.271603 -115.31237 -62.368981 -113.41351 -63.672753 -109.61556 C -64.919839 -105.81762 -65.543439 -99.497422 -65.543439 -90.654448 C -65.543439 -81.868159 -64.919839 -75.576025 -63.672753 -71.778081 C -62.368981 -68.036822 -60.271603 -66.16602 -57.38063 -66.16602 C -54.489658 -66.16602 -52.42086 -68.036822 -51.173774 -71.778081 C -49.870002 -75.576025 -49.217821 -81.868159 -49.217821 -90.654448 C -49.217821 -99.440737 -49.870002 -105.73287 -51.173774 -109.53081 C -52.42086 -113.38544 -54.489658 -115.31237 -57.38063 -115.31237 z M -91.221975 -101.28274 C -89.237975 -101.28274 -87.764197 -100.68772 -86.80054 -99.497319 C -85.780197 -98.363604 -85.269884 -96.776539 -85.269884 -94.735852 C -85.269884 -92.695166 -85.780197 -91.107584 -86.80054 -89.973869 C -87.764197 -88.840154 -89.237975 -88.273198 -91.221975 -88.273198 C -93.205976 -88.273198 -94.708334 -88.840154 -95.728677 -89.973869 C -96.692335 -91.16427 -97.174067 -92.751852 -97.174067 -94.735852 C -97.174067 -96.833225 -96.692335 -98.448354 -95.728677 -99.582068 C -94.708334 -100.71578 -93.205976 -101.28274 -91.221975 -101.28274 z M -126.84926 -89.293807 C -129.23006 -89.293807 -131.80917 -88.330343 -134.58677 -86.403028 L -134.58677 -85.297669 C -134.58677 -79.118924 -133.90653 -74.583787 -132.54607 -71.692814 C -131.18561 -68.801842 -129.03159 -67.356645 -126.08393 -67.356645 C -123.64644 -67.356645 -121.77564 -68.291529 -120.47187 -70.162159 C -119.1681 -72.032788 -118.51643 -74.697123 -118.51643 -78.154952 C -118.51643 -81.669468 -119.25332 -84.390447 -120.72715 -86.317762 C -122.14429 -88.301762 -124.18503 -89.293807 -126.84926 -89.293807 z M -11.975133 -89.293807 C -14.355934 -89.293807 -16.935561 -88.330343 -19.713162 -86.403028 L -19.713162 -85.297669 C -19.713162 -79.118924 -19.032917 -74.583787 -17.67246 -71.692814 C -16.312002 -68.801842 -14.157463 -67.356645 -11.209805 -67.356645 C -8.7723184 -67.356645 -6.9020331 -68.291529 -5.5982612 -70.162159 C -4.2944893 -72.032788 -3.6423082 -74.697123 -3.6423082 -78.154952 C -3.6423082 -81.669468 -4.3791969 -84.390447 -5.853026 -86.317762 C -7.2701694 -88.301762 -9.3109034 -89.293807 -11.975133 -89.293807 z M -91.221975 -74.498845 C -89.237975 -74.498845 -87.764197 -73.903824 -86.80054 -72.713424 C -85.780197 -71.579709 -85.269884 -69.992127 -85.269884 -67.951441 C -85.269884 -65.910754 -85.780197 -64.323689 -86.80054 -63.189974 C -87.764197 -62.05626 -89.237975 -61.489303 -91.221975 -61.489303 C -93.205976 -61.489303 -94.708334 -62.05626 -95.728677 -63.189974 C -96.692335 -64.380375 -97.174067 -65.96744 -97.174067 -67.951441 C -97.174067 -70.048813 -96.692335 -71.664459 -95.728677 -72.798173 C -94.708334 -73.931888 -93.205976 -74.498845 -91.221975 -74.498845 z " /></g></svg>
