<?xml version="1.0" encoding="UTF-8" standalone="no"?>
<!-- Created with Inkscape (http://www.inkscape.org/) -->

<svg
   width="172.6701mm"
   height="172.6701mm"
   viewBox="0 0 172.6701 172.6701"
   version="1.1"
   id="svg1"
   xml:space="preserve"
   xmlns="http://www.w3.org/2000/svg"
   xmlns:svg="http://www.w3.org/2000/svg"><defs
     id="defs1" /><g
     id="layer1"
     transform="translate(157.25102,198.81012)"><path
       id="path5"
       style="fill:#ffffff;fill-opacity:1;stroke-width:0.805188;stroke-linecap:round;stroke-linejoin:round"
       d="M -2.0863309 -198.17657 L -10.088943 -183.11289 L -10.930235 -165.68398 L -19.198981 -165.68398 L -11.423229 -155.47426 L -12.166336 -140.07934 C -28.353216 -157.12094 -50.823548 -166.77435 -74.327399 -166.78417 C -103.64471 -166.77397 -130.92652 -151.79225 -146.66717 -127.05894 L -157.25102 -127.05894 L -149.61996 -115.86014 L -157.25102 -26.140039 L -8.5138455 -26.140039 L 15.419061 -26.140039 L 8.0799737 -154.80195 L 15.419061 -165.68398 L 7.4593397 -165.68398 L 6.4490654 -183.39297 L -2.0863309 -198.17657 z M -83.43072 -192.21621 C -85.584619 -189.65499 -86.77489 -186.4211 -86.795372 -183.07465 C -86.842092 -175.15518 -80.459903 -168.69733 -72.540428 -168.65072 C -64.621155 -168.60402 -58.163395 -174.98588 -58.116503 -182.90515 C -58.102813 -186.26049 -59.266203 -189.5144 -61.404157 -192.10045 C -60.83125 -190.6836 -60.536835 -189.16959 -60.537027 -187.64129 C -60.575787 -181.07411 -65.930869 -175.78172 -72.498054 -175.82031 C -79.065241 -175.85911 -84.357627 -181.21415 -84.319038 -187.78134 C -84.309338 -189.30285 -84.007827 -190.80837 -83.43072 -192.21621 z M -18.394896 -120.07436 C -13.860037 -119.84761 -10.175594 -118.85557 -7.3413073 -117.09831 L -27.578315 -83.767013 L -14.568773 -83.767013 L -13.718179 -97.626632 C -11.904235 -97.626632 -10.600907 -97.995076 -9.8073066 -98.731991 C -8.9570206 -99.468905 -8.3048395 -100.71611 -7.8513537 -102.47336 L -3.0046211 -102.47336 L -3.0898872 -83.341716 C -0.93582925 -82.718173 1.7851494 -82.066508 5.0729221 -81.38628 L 4.647625 -77.304875 L -3.5151842 -77.304875 L -3.5151842 -62.084615 L -14.568773 -62.084615 L -14.568773 -77.304875 L -39.14195 -77.304875 L -39.822012 -80.36567 L -18.394896 -120.07436 z M -62.099722 -119.73381 C -56.261091 -119.73381 -51.612667 -118.28861 -48.154837 -115.39764 C -44.697007 -112.56335 -42.968073 -108.56711 -42.968073 -103.40871 C -42.968073 -98.873849 -44.697007 -94.026912 -48.154837 -88.86851 C -51.612667 -83.766794 -57.30978 -77.616529 -65.245783 -70.41744 L -42.373277 -70.41744 L -42.373277 -62.084615 L -80.890823 -62.084615 L -80.890823 -67.016097 C -74.598706 -73.081471 -69.695642 -78.268272 -66.181127 -82.576388 C -62.666611 -86.884504 -60.144145 -90.852684 -58.61363 -94.480571 C -57.026429 -98.108458 -56.232897 -101.84955 -56.232897 -105.70418 C -56.232897 -111.82623 -58.273631 -114.88759 -62.355004 -114.88759 C -64.168947 -114.88759 -65.642724 -114.0369 -66.776439 -112.33633 C -67.910154 -110.69244 -68.476594 -108.65171 -68.476594 -106.21422 C -68.476594 -104.51365 -67.881573 -102.89852 -66.691173 -101.36801 C -67.65483 -100.46103 -68.760163 -99.752209 -70.00725 -99.242037 C -71.19765 -98.731866 -72.388207 -98.476709 -73.578608 -98.476709 C -75.619294 -98.476709 -77.319648 -99.10031 -78.680105 -100.3474 C -80.040563 -101.65117 -80.720808 -103.52197 -80.720808 -105.95946 C -80.720808 -108.567 -79.955855 -110.91953 -78.42534 -113.01691 C -76.894826 -115.11428 -74.740804 -116.75799 -71.963203 -117.94839 C -69.128916 -119.13879 -65.840981 -119.73381 -62.099722 -119.73381 z M -122.30018 -119.13901 L -119.49415 -117.86364 L -119.49415 -68.716769 C -118.41712 -68.093226 -116.71625 -67.526269 -114.39214 -67.016097 C -112.06802 -66.562611 -110.2258 -66.279392 -108.86534 -66.16602 L -109.12062 -62.084615 L -143.81205 -62.084615 L -143.64203 -66.16602 C -138.597 -66.732877 -134.74263 -67.583054 -132.0784 -68.716769 L -132.0784 -109.44555 L -143.47202 -109.44555 L -143.47202 -114.37703 C -139.84413 -114.66046 -136.10304 -115.19935 -132.24841 -115.99295 C -128.39378 -116.84324 -125.07778 -117.89193 -122.30018 -119.13901 z M -94.155646 -101.28274 C -92.171646 -101.28274 -90.697868 -100.68772 -89.734211 -99.497319 C -88.713868 -98.363604 -88.203555 -96.776539 -88.203555 -94.735852 C -88.203555 -92.695166 -88.713868 -91.107584 -89.734211 -89.973869 C -90.697868 -88.840154 -92.171646 -88.273198 -94.155646 -88.273198 C -96.139647 -88.273198 -97.641488 -88.840154 -98.661831 -89.973869 C -99.625489 -91.16427 -100.10774 -92.751852 -100.10774 -94.735852 C -100.10774 -96.833225 -99.625489 -98.448354 -98.661831 -99.582068 C -97.641488 -100.71578 -96.139647 -101.28274 -94.155646 -101.28274 z M -94.155646 -74.498845 C -92.171646 -74.498845 -90.697868 -73.903824 -89.734211 -72.713424 C -88.713868 -71.579709 -88.203555 -69.992127 -88.203555 -67.951441 C -88.203555 -65.910754 -88.713868 -64.323689 -89.734211 -63.189974 C -90.697868 -62.05626 -92.171646 -61.489303 -94.155646 -61.489303 C -96.139647 -61.489303 -97.641488 -62.05626 -98.661831 -63.189974 C -99.625489 -64.380375 -100.10774 -65.96744 -100.10774 -67.951441 C -100.10774 -70.048813 -99.625489 -71.664459 -98.661831 -72.798173 C -97.641488 -73.931888 -96.139647 -74.498845 -94.155646 -74.498845 z " /></g></svg>
