<?xml version="1.0" encoding="UTF-8" standalone="no"?>
<!-- Created with Inkscape (http://www.inkscape.org/) -->

<svg
   width="172.6701mm"
   height="172.6701mm"
   viewBox="0 0 172.6701 172.6701"
   version="1.1"
   id="svg1"
   xml:space="preserve"
   xmlns="http://www.w3.org/2000/svg"
   xmlns:svg="http://www.w3.org/2000/svg"><defs
     id="defs1" /><g
     id="layer1"
     transform="translate(157.25102,198.81012)"><path
       id="path5"
       style="fill:#ffffff;fill-opacity:1;stroke-width:0.805188;stroke-linecap:round;stroke-linejoin:round"
       d="M -2.0863309 -198.17657 L -10.088943 -183.11289 L -10.930235 -165.68398 L -19.198981 -165.68398 L -11.423229 -155.47426 L -12.166336 -140.07934 C -28.353216 -157.12094 -50.823548 -166.77435 -74.327399 -166.78417 C -103.64471 -166.77397 -130.92652 -151.79225 -146.66717 -127.05894 L -157.25102 -127.05894 L -149.61996 -115.86014 L -157.25102 -26.140039 L -8.5138455 -26.140039 L 15.419061 -26.140039 L 8.0799737 -154.80195 L 15.419061 -165.68398 L 7.4593397 -165.68398 L 6.4490654 -183.39297 L -2.0863309 -198.17657 z M -83.43072 -192.21621 C -85.584619 -189.65499 -86.77489 -186.4211 -86.795372 -183.07465 C -86.842092 -175.15518 -80.459903 -168.69733 -72.540428 -168.65072 C -64.621155 -168.60402 -58.163395 -174.98588 -58.116503 -182.90515 C -58.102813 -186.26049 -59.266203 -189.5144 -61.404157 -192.10045 C -60.83125 -190.6836 -60.536835 -189.16959 -60.537027 -187.64129 C -60.575787 -181.07411 -65.930869 -175.78172 -72.498054 -175.82031 C -79.065241 -175.85911 -84.357627 -181.21415 -84.319038 -187.78134 C -84.309338 -189.30285 -84.007827 -190.80837 -83.43072 -192.21621 z M -113.37204 -119.90383 L -111.33134 -115.65241 C -122.78186 -110.72075 -129.66902 -103.12528 -131.99313 -92.865166 C -128.70536 -94.452366 -125.58787 -95.245899 -122.64021 -95.245899 C -116.97164 -95.245899 -112.52173 -93.715477 -109.29064 -90.654448 C -106.00287 -87.593418 -104.35916 -83.455306 -104.35916 -78.240218 C -104.35916 -75.009132 -105.2374 -72.118221 -106.99466 -69.567363 C -108.69523 -67.016505 -111.10441 -65.032415 -114.22212 -63.615271 C -117.28315 -62.198128 -120.79766 -61.489303 -124.76566 -61.489303 C -131.51127 -61.489303 -136.69807 -63.360105 -140.32595 -67.101363 C -143.89716 -70.842622 -145.68273 -76.255999 -145.68273 -83.341716 C -145.68273 -92.241376 -142.93369 -99.808775 -137.43518 -106.04421 C -131.87997 -112.33632 -123.85891 -116.95617 -113.37204 -119.90383 z M -13.463414 -119.73381 C -9.7788414 -119.73381 -6.5194864 -119.11073 -3.6851997 -117.86364 C -0.85091293 -116.67324 1.3602698 -114.97237 2.9474704 -112.76163 C 4.534671 -110.60757 5.3282036 -108.11368 5.3282036 -105.27939 C 5.3282036 -102.10499 4.3928026 -99.384015 2.5221734 -97.116586 C 0.6515441 -94.849156 -2.1260786 -93.120223 -5.8106513 -91.929822 C -1.1624211 -90.909479 2.0969339 -89.237189 3.9675632 -86.913074 C 5.8381924 -84.588959 6.7735934 -81.442892 6.7735934 -77.474891 C 6.7735934 -74.017061 5.7249044 -71.069506 3.6275322 -68.632019 C 1.5868458 -66.194533 -1.0774889 -64.380375 -4.3652615 -63.189974 C -7.6530342 -61.999574 -11.054258 -61.404554 -14.568773 -61.404554 C -19.670489 -61.404554 -24.006597 -62.453243 -27.577798 -64.550615 C -31.092314 -66.647987 -32.849828 -69.510317 -32.849828 -73.138204 C -32.849828 -75.235577 -32.226227 -76.851222 -30.979141 -77.984937 C -29.732055 -79.175337 -28.173053 -79.770358 -26.302424 -79.770358 C -24.375109 -79.770358 -22.419599 -79.005405 -20.435598 -77.474891 C -20.94577 -76.397862 -21.200926 -75.094016 -21.200926 -73.563501 C -21.200926 -71.749558 -20.66255 -70.275781 -19.585521 -69.142066 C -18.451806 -68.008351 -16.779517 -67.441394 -14.568773 -67.441394 C -9.6937999 -67.441394 -7.2560412 -70.814037 -7.2560412 -77.55964 C -7.2560412 -81.244213 -8.4465985 -84.10706 -10.827399 -86.147746 C -13.151515 -88.188433 -16.467514 -89.208541 -20.775629 -89.208541 L -20.775629 -94.480571 C -12.442826 -95.1608 -8.2766507 -98.760535 -8.2766507 -105.27939 C -8.2766507 -108.56717 -8.7869634 -110.97583 -9.8073066 -112.50634 C -10.82765 -114.09354 -12.216203 -114.88759 -13.973461 -114.88759 C -16.070833 -114.88759 -17.657898 -114.15071 -18.734927 -112.67688 C -19.75527 -111.20305 -20.265583 -109.41747 -20.265583 -107.3201 C -20.265583 -105.44947 -19.868558 -103.77718 -19.074958 -102.30335 C -20.662159 -100.60278 -22.702893 -99.752084 -25.197065 -99.752084 C -27.464494 -99.752084 -29.222008 -100.43233 -30.469095 -101.79279 C -31.716181 -103.15324 -32.339781 -104.91076 -32.339781 -107.06482 C -32.339781 -109.8991 -31.3758 -112.25164 -29.448485 -114.12227 C -27.464484 -116.04958 -25.027242 -117.46671 -22.13627 -118.37369 C -19.188612 -119.28066 -16.297701 -119.73381 -13.463414 -119.73381 z M -69.071906 -119.05375 L -64.820486 -118.969 C -58.811798 -118.85563 -55.637668 -118.79847 -55.297553 -118.79847 L -43.223355 -118.969 L -40.757355 -117.18306 L -41.522683 -110.72092 L -62.609768 -110.72092 L -63.800393 -96.521273 C -60.852735 -97.258188 -58.1884 -97.626632 -55.8076 -97.626632 C -50.195712 -97.626632 -45.632511 -96.124274 -42.117996 -93.11993 C -38.546795 -90.172272 -36.761217 -85.836165 -36.761217 -80.110905 C -36.761217 -76.539704 -37.611394 -73.336993 -39.311966 -70.502706 C -40.955852 -67.66842 -43.336967 -65.429173 -46.454682 -63.785287 C -49.572398 -62.198086 -53.256841 -61.404554 -57.508271 -61.404554 C -60.966101 -61.404554 -64.112168 -61.886286 -66.946455 -62.849943 C -69.724056 -63.813601 -71.906141 -65.14551 -73.493342 -66.846082 C -75.080542 -68.60334 -75.874075 -70.559366 -75.874075 -72.713424 C -75.874075 -74.980853 -75.250991 -76.709787 -74.003905 -77.900188 C -72.756819 -79.147274 -71.225881 -79.770358 -69.411937 -79.770358 C -68.391594 -79.770358 -67.371485 -79.572362 -66.351142 -79.175562 C -65.274113 -78.778762 -64.310648 -78.211805 -63.460362 -77.474891 C -63.970534 -76.28449 -64.225174 -75.037289 -64.225174 -73.733517 C -64.225174 -71.862888 -63.686797 -70.332466 -62.609768 -69.142066 C -61.476054 -67.951665 -59.7757 -67.356645 -57.508271 -67.356645 C -52.406555 -67.356645 -49.855508 -71.608045 -49.855508 -80.110905 C -49.855508 -84.135593 -50.649041 -87.054567 -52.236241 -88.86851 C -53.823442 -90.73914 -55.9494 -91.674541 -58.61363 -91.674541 C -60.257516 -91.674541 -62.014513 -91.36274 -63.885143 -90.739197 C -65.755772 -90.115654 -67.597994 -89.236897 -69.411937 -88.103182 L -74.088654 -92.609884 L -71.877937 -116.75776 L -69.071906 -119.05375 z M -89.39418 -101.28274 C -87.410179 -101.28274 -85.935885 -100.68772 -84.972228 -99.497319 C -83.951884 -98.363604 -83.442089 -96.776539 -83.442089 -94.735852 C -83.442089 -92.695166 -83.951884 -91.107584 -84.972228 -89.973869 C -85.935885 -88.840154 -87.410179 -88.273198 -89.39418 -88.273198 C -91.378181 -88.273198 -92.880022 -88.840154 -93.900365 -89.973869 C -94.864022 -91.16427 -95.345755 -92.751852 -95.345755 -94.735852 C -95.345755 -96.833225 -94.864022 -98.448354 -93.900365 -99.582068 C -92.880022 -100.71578 -91.378181 -101.28274 -89.39418 -101.28274 z M -125.02095 -89.293807 C -127.40175 -89.293807 -129.98086 -88.330343 -132.75846 -86.403028 L -132.75846 -85.297669 C -132.75846 -79.118924 -132.07821 -74.583787 -130.71776 -71.692814 C -129.3573 -68.801842 -127.20328 -67.356645 -124.25562 -67.356645 C -121.81813 -67.356645 -119.94733 -68.291529 -118.64356 -70.162159 C -117.33979 -72.032788 -116.68812 -74.697123 -116.68812 -78.154952 C -116.68812 -81.669468 -117.42501 -84.390447 -118.89884 -86.317762 C -120.31598 -88.301762 -122.35672 -89.293807 -125.02095 -89.293807 z M -89.39418 -74.498845 C -87.410179 -74.498845 -85.935885 -73.903824 -84.972228 -72.713424 C -83.951884 -71.579709 -83.442089 -69.992127 -83.442089 -67.951441 C -83.442089 -65.910754 -83.951884 -64.323689 -84.972228 -63.189974 C -85.935885 -62.05626 -87.410179 -61.489303 -89.39418 -61.489303 C -91.378181 -61.489303 -92.880022 -62.05626 -93.900365 -63.189974 C -94.864022 -64.380375 -95.345755 -65.96744 -95.345755 -67.951441 C -95.345755 -70.048813 -94.864022 -71.664459 -93.900365 -72.798173 C -92.880022 -73.931888 -91.378181 -74.498845 -89.39418 -74.498845 z " /></g></svg>
