<?xml version="1.0" encoding="UTF-8" standalone="no"?>
<!-- Created with Inkscape (http://www.inkscape.org/) -->

<svg
   width="172.6701mm"
   height="172.6701mm"
   viewBox="0 0 172.6701 172.6701"
   version="1.1"
   id="svg1"
   xml:space="preserve"
   xmlns="http://www.w3.org/2000/svg"
   xmlns:svg="http://www.w3.org/2000/svg"><defs
     id="defs1" /><g
     id="layer1"
     transform="translate(157.25102,198.81012)"><path
       id="path5"
       style="fill:#ffffff;fill-opacity:1;stroke-width:0.805188;stroke-linecap:round;stroke-linejoin:round"
       d="M -2.0863309 -198.17657 L -10.088943 -183.11289 L -10.930235 -165.68398 L -19.198981 -165.68398 L -11.423229 -155.47426 L -12.166336 -140.07934 C -28.353216 -157.12094 -50.823548 -166.77435 -74.327399 -166.78417 C -103.64471 -166.77397 -130.92652 -151.79225 -146.66717 -127.05894 L -157.25102 -127.05894 L -149.61996 -115.86014 L -157.25102 -26.140039 L -8.5138455 -26.140039 L 15.419061 -26.140039 L 8.0799737 -154.80195 L 15.419061 -165.68398 L 7.4593397 -165.68398 L 6.4490654 -183.39297 L -2.0863309 -198.17657 z M -83.43072 -192.21621 C -85.584619 -189.65499 -86.77489 -186.4211 -86.795372 -183.07465 C -86.842092 -175.15518 -80.459903 -168.69733 -72.540428 -168.65072 C -64.621155 -168.60402 -58.163395 -174.98588 -58.116503 -182.90515 C -58.102813 -186.26049 -59.266203 -189.5144 -61.404157 -192.10045 C -60.83125 -190.6836 -60.536835 -189.16959 -60.537027 -187.64129 C -60.575787 -181.07411 -65.930869 -175.78172 -72.498054 -175.82031 C -79.065241 -175.85911 -84.357627 -181.21415 -84.319038 -187.78134 C -84.309338 -189.30285 -84.007827 -190.80837 -83.43072 -192.21621 z M -126.21105 -120.07436 C -121.6762 -119.84761 -117.99175 -118.85557 -115.15747 -117.09831 L -135.39447 -83.767013 L -122.38493 -83.767013 L -121.53485 -97.626632 C -119.72091 -97.626632 -118.41706 -97.995076 -117.62346 -98.731991 C -116.77318 -99.468905 -116.121 -100.71611 -115.66751 -102.47336 L -110.8213 -102.47336 L -110.90605 -83.341716 C -108.75199 -82.718173 -106.03101 -82.066508 -102.74324 -81.38628 L -103.16853 -77.304875 L -111.33134 -77.304875 L -111.33134 -62.084615 L -122.38493 -62.084615 L -122.38493 -77.304875 L -146.95811 -77.304875 L -147.63869 -80.36567 L -126.21105 -120.07436 z M -16.43946 -120.07436 C -11.904601 -119.84761 -8.2201578 -118.85557 -5.3858711 -117.09831 L -25.622362 -83.767013 L -12.61282 -83.767013 L -11.762743 -97.626632 C -9.9487993 -97.626632 -8.6449539 -97.995076 -7.8513537 -98.731991 C -7.0010676 -99.468905 -6.3494033 -100.71611 -5.8959175 -102.47336 L -1.0491849 -102.47336 L -1.134451 -83.341716 C 1.0196069 -82.718173 3.7405856 -82.066508 7.0283583 -81.38628 L 6.603578 -77.304875 L -1.5592313 -77.304875 L -1.5592313 -62.084615 L -12.61282 -62.084615 L -12.61282 -77.304875 L -37.186514 -77.304875 L -37.866576 -80.36567 L -16.43946 -120.07436 z M -53.426866 -119.13901 L -50.620836 -117.86364 L -50.620836 -68.716769 C -49.543807 -68.093226 -47.843454 -67.526269 -45.519339 -67.016097 C -43.195224 -66.562611 -41.352485 -66.279392 -39.992027 -66.16602 L -40.247309 -62.084615 L -74.939248 -62.084615 L -74.769233 -66.16602 C -69.724202 -66.732877 -65.86931 -67.583054 -63.205081 -68.716769 L -63.205081 -109.44555 L -74.598701 -109.44555 L -74.598701 -114.37703 C -70.970814 -114.66046 -67.229726 -115.19935 -63.375096 -115.99295 C -59.520466 -116.84324 -56.204467 -117.89193 -53.426866 -119.13901 z M -88.03354 -101.28274 C -86.049539 -101.28274 -84.575761 -100.68772 -83.612104 -99.497319 C -82.591761 -98.363604 -82.081448 -96.776539 -82.081448 -94.735852 C -82.081448 -92.695166 -82.591761 -91.107584 -83.612104 -89.973869 C -84.575761 -88.840154 -86.049539 -88.273198 -88.03354 -88.273198 C -90.01754 -88.273198 -91.519898 -88.840154 -92.540241 -89.973869 C -93.503899 -91.16427 -93.985631 -92.751852 -93.985631 -94.735852 C -93.985631 -96.833225 -93.503899 -98.448354 -92.540241 -99.582068 C -91.519898 -100.71578 -90.01754 -101.28274 -88.03354 -101.28274 z M -88.03354 -74.498845 C -86.049539 -74.498845 -84.575761 -73.903824 -83.612104 -72.713424 C -82.591761 -71.579709 -82.081448 -69.992127 -82.081448 -67.951441 C -82.081448 -65.910754 -82.591761 -64.323689 -83.612104 -63.189974 C -84.575761 -62.05626 -86.049539 -61.489303 -88.03354 -61.489303 C -90.01754 -61.489303 -91.519898 -62.05626 -92.540241 -63.189974 C -93.503899 -64.380375 -93.985631 -65.96744 -93.985631 -67.951441 C -93.985631 -70.048813 -93.503899 -71.664459 -92.540241 -72.798173 C -91.519898 -73.931888 -90.01754 -74.498845 -88.03354 -74.498845 z " /></g></svg>
