<?xml version="1.0" encoding="UTF-8" standalone="no"?>
<!-- Created with Inkscape (http://www.inkscape.org/) -->

<svg
   width="172.6701mm"
   height="172.6701mm"
   viewBox="0 0 172.6701 172.6701"
   version="1.1"
   id="svg1"
   xml:space="preserve"
   xmlns="http://www.w3.org/2000/svg"
   xmlns:svg="http://www.w3.org/2000/svg"><defs
     id="defs1" /><g
     id="layer1"
     transform="translate(157.25102,198.81012)"><path
       id="path5"
       style="fill:#ffffff;fill-opacity:1;stroke-width:0.805188;stroke-linecap:round;stroke-linejoin:round"
       d="M -2.0863309 -198.17657 L -10.088943 -183.11289 L -10.930235 -165.68398 L -19.198981 -165.68398 L -11.423229 -155.47426 L -12.166336 -140.07934 C -28.353216 -157.12094 -50.823548 -166.77435 -74.327399 -166.78417 C -103.64471 -166.77397 -130.92652 -151.79225 -146.66717 -127.05894 L -157.25102 -127.05894 L -149.61996 -115.86014 L -157.25102 -26.140039 L -8.5138455 -26.140039 L 15.419061 -26.140039 L 8.0799737 -154.80195 L 15.419061 -165.68398 L 7.4593397 -165.68398 L 6.4490654 -183.39297 L -2.0863309 -198.17657 z M -83.43072 -192.21621 C -85.584619 -189.65499 -86.77489 -186.4211 -86.795372 -183.07465 C -86.842092 -175.15518 -80.459903 -168.69733 -72.540428 -168.65072 C -64.621155 -168.60402 -58.163395 -174.98588 -58.116503 -182.90515 C -58.102813 -186.26049 -59.266203 -189.5144 -61.404157 -192.10045 C -60.83125 -190.6836 -60.536835 -189.16959 -60.537027 -187.64129 C -60.575787 -181.07411 -65.930869 -175.78172 -72.498054 -175.82031 C -79.065241 -175.85911 -84.357627 -181.21415 -84.319038 -187.78134 C -84.309338 -189.30285 -84.007827 -190.80837 -83.43072 -192.21621 z M -85.703449 -136.45527 L -82.153795 -129.06037 C -102.07099 -120.48217 -114.0506 -107.2696 -118.0932 -89.422998 C -112.3744 -92.183798 -106.95163 -93.564348 -101.82443 -93.564348 C -91.964429 -93.564348 -84.224341 -90.902155 -78.604141 -85.577755 C -72.885341 -80.253355 -70.025853 -73.055441 -70.025853 -63.984241 C -70.025853 -58.364041 -71.554503 -53.33534 -74.611103 -48.89834 C -77.569103 -44.46134 -81.759429 -41.010484 -87.182429 -38.545484 C -92.506828 -36.080484 -98.619878 -34.848035 -105.52188 -34.848035 C -117.25528 -34.848035 -126.27701 -38.101597 -132.58741 -44.609196 C -138.79921 -51.116796 -141.90519 -60.533119 -141.90519 -72.858118 C -141.90519 -88.338317 -137.12349 -101.5017 -127.55929 -112.3477 C -117.89649 -123.2923 -103.94445 -131.32807 -85.703449 -136.45527 z M -61.891466 -134.6807 L -54.644363 -134.6807 C -50.897563 -134.5821 -42.71369 -134.53239 -30.09289 -134.53239 C -16.979091 -134.53239 -8.450338 -134.5821 -4.5063382 -134.6807 L 2.5929701 -134.6807 L 5.5509291 -128.32088 C 3.6775291 -125.36288 0.12776644 -118.95363 -5.0980333 -109.09363 C -10.323833 -99.233633 -15.253628 -88.782157 -19.887828 -77.738957 C -24.522028 -66.695758 -26.839342 -58.068099 -26.839342 -51.856299 C -26.839342 -46.926299 -25.113397 -43.228953 -21.662397 -40.763953 C -25.014797 -36.721353 -29.304029 -34.70024 -34.529829 -34.70024 C -39.361228 -34.70024 -43.108286 -36.031078 -45.770486 -38.693278 C -48.432686 -41.355478 -49.763524 -45.052825 -49.763524 -49.785625 C -49.763524 -55.701624 -48.33378 -61.962774 -45.47438 -68.568974 C -42.61498 -75.273774 -37.48789 -84.345217 -30.09289 -95.782817 L -12.640725 -122.70055 L -46.362181 -122.70055 C -47.742581 -118.26355 -48.58044 -113.03756 -48.87624 -107.02296 C -50.65104 -106.72716 -52.475374 -106.57957 -54.348774 -106.57957 C -56.320774 -106.57957 -58.242981 -106.72716 -60.116381 -107.02296 L -64.25773 -132.46172 L -61.891466 -134.6807 z M -105.96578 -83.211491 C -110.10698 -83.211491 -114.59299 -81.535257 -119.42439 -78.182858 L -119.42439 -76.259978 C -119.42439 -65.512578 -118.24113 -57.624389 -115.87473 -52.595789 C -113.50833 -47.567189 -109.76179 -45.053097 -104.63459 -45.053097 C -100.39479 -45.053097 -97.140715 -46.680136 -94.872915 -49.933936 C -92.605115 -53.187736 -91.471573 -57.821847 -91.471573 -63.836446 C -91.471573 -69.949646 -92.753216 -74.682146 -95.316816 -78.034546 C -97.781816 -81.485546 -101.33158 -83.211491 -105.96578 -83.211491 z " /></g></svg>
