<?xml version="1.0" encoding="UTF-8" standalone="no"?>
<!-- Created with Inkscape (http://www.inkscape.org/) -->

<svg
   width="172.6701mm"
   height="172.6701mm"
   viewBox="0 0 172.6701 172.6701"
   version="1.1"
   id="svg1"
   xml:space="preserve"
   xmlns="http://www.w3.org/2000/svg"
   xmlns:svg="http://www.w3.org/2000/svg"><defs
     id="defs1" /><g
     id="layer1"
     transform="translate(157.25102,198.81012)"><path
       id="path5"
       style="fill:#ffffff;fill-opacity:1;stroke-width:0.805188;stroke-linecap:round;stroke-linejoin:round"
       d="M -2.0863309 -198.17657 L -10.088943 -183.11289 L -10.930235 -165.68398 L -19.198981 -165.68398 L -11.423229 -155.47426 L -12.166336 -140.07934 C -28.353216 -157.12094 -50.823548 -166.77435 -74.327399 -166.78417 C -103.64471 -166.77397 -130.92652 -151.79225 -146.66717 -127.05894 L -157.25102 -127.05894 L -149.61996 -115.86014 L -157.25102 -26.140039 L -8.5138455 -26.140039 L 15.419061 -26.140039 L 8.0799737 -154.80195 L 15.419061 -165.68398 L 7.4593397 -165.68398 L 6.4490654 -183.39297 L -2.0863309 -198.17657 z M -83.43072 -192.21621 C -85.584619 -189.65499 -86.77489 -186.4211 -86.795372 -183.07465 C -86.842092 -175.15518 -80.459903 -168.69733 -72.540428 -168.65072 C -64.621155 -168.60402 -58.163395 -174.98588 -58.116503 -182.90515 C -58.102813 -186.26049 -59.266203 -189.5144 -61.404157 -192.10045 C -60.83125 -190.6836 -60.536835 -189.16959 -60.537027 -187.64129 C -60.575787 -181.07411 -65.930869 -175.78172 -72.498054 -175.82031 C -79.065241 -175.85911 -84.357627 -181.21415 -84.319038 -187.78134 C -84.309338 -189.30285 -84.007827 -190.80837 -83.43072 -192.21621 z M -4.8329332 -119.90383 L -2.7922309 -115.65241 C -14.242749 -110.72075 -21.129904 -103.12528 -23.454019 -92.865166 C -20.166246 -94.452366 -17.04876 -95.245899 -14.101101 -95.245899 C -8.4325279 -95.245899 -3.9826155 -93.715477 -0.75152863 -90.654448 C 2.536244 -87.593418 4.1799533 -83.455306 4.1799533 -78.240218 C 4.1799533 -75.009132 3.301713 -72.118221 1.5444553 -69.567363 C -0.15611679 -67.016505 -2.5652951 -65.032415 -5.6830106 -63.615271 C -8.7440403 -62.198128 -12.258552 -61.489303 -16.226553 -61.489303 C -22.972156 -61.489303 -28.158957 -63.360105 -31.786844 -67.101363 C -35.358045 -70.842622 -37.143623 -76.255999 -37.143623 -83.341716 C -37.143623 -92.241376 -34.39458 -99.808775 -28.896064 -106.04421 C -23.340862 -112.33632 -15.319794 -116.95617 -4.8329332 -119.90383 z M -61.462035 -119.73381 C -55.623404 -119.73381 -50.974979 -118.28861 -47.51715 -115.39764 C -44.05932 -112.56335 -42.330386 -108.56711 -42.330386 -103.40871 C -42.330386 -98.873849 -44.05932 -94.026912 -47.51715 -88.86851 C -50.974979 -83.766794 -56.672093 -77.616529 -64.608096 -70.41744 L -41.73559 -70.41744 L -41.73559 -62.084615 L -80.253136 -62.084615 L -80.253136 -67.016097 C -73.961019 -73.081471 -69.057955 -78.268272 -65.543439 -82.576388 C -62.028924 -86.884504 -59.506458 -90.852684 -57.975943 -94.480571 C -56.388742 -98.108458 -55.595209 -101.84955 -55.595209 -105.70418 C -55.595209 -111.82623 -57.635943 -114.88759 -61.717316 -114.88759 C -63.53126 -114.88759 -65.005037 -114.0369 -66.138752 -112.33633 C -67.272467 -110.69244 -67.838907 -108.65171 -67.838907 -106.21422 C -67.838907 -104.51365 -67.243886 -102.89852 -66.053486 -101.36801 C -67.017143 -100.46103 -68.122476 -99.752209 -69.369562 -99.242037 C -70.559963 -98.731866 -71.75052 -98.476709 -72.940921 -98.476709 C -74.981607 -98.476709 -76.68196 -99.10031 -78.042418 -100.3474 C -79.402876 -101.65117 -80.08312 -103.52197 -80.08312 -105.95946 C -80.08312 -108.567 -79.318168 -110.91953 -77.787653 -113.01691 C -76.257138 -115.11428 -74.103116 -116.75799 -71.325515 -117.94839 C -68.491229 -119.13879 -65.203293 -119.73381 -61.462035 -119.73381 z M -121.66249 -119.13901 L -118.85646 -117.86364 L -118.85646 -68.716769 C -117.77944 -68.093226 -116.07857 -67.526269 -113.75445 -67.016097 C -111.43034 -66.562611 -109.58811 -66.279392 -108.22766 -66.16602 L -108.48294 -62.084615 L -143.17436 -62.084615 L -143.00434 -66.16602 C -137.95931 -66.732877 -134.10494 -67.583054 -131.44071 -68.716769 L -131.44071 -109.44555 L -142.83433 -109.44555 L -142.83433 -114.37703 C -139.20644 -114.66046 -135.46535 -115.19935 -131.61072 -115.99295 C -127.75609 -116.84324 -124.4401 -117.89193 -121.66249 -119.13901 z M -93.517959 -101.28274 C -91.533959 -101.28274 -90.060181 -100.68772 -89.096524 -99.497319 C -88.076181 -98.363604 -87.565868 -96.776539 -87.565868 -94.735852 C -87.565868 -92.695166 -88.076181 -91.107584 -89.096524 -89.973869 C -90.060181 -88.840154 -91.533959 -88.273198 -93.517959 -88.273198 C -95.50196 -88.273198 -97.003801 -88.840154 -98.024144 -89.973869 C -98.987802 -91.16427 -99.470051 -92.751852 -99.470051 -94.735852 C -99.470051 -96.833225 -98.987802 -98.448354 -98.024144 -99.582068 C -97.003801 -100.71578 -95.50196 -101.28274 -93.517959 -101.28274 z M -16.481835 -89.293807 C -18.862635 -89.293807 -21.441746 -88.330343 -24.219347 -86.403028 L -24.219347 -85.297669 C -24.219347 -79.118924 -23.539102 -74.583787 -22.178645 -71.692814 C -20.818187 -68.801842 -18.664165 -67.356645 -15.716507 -67.356645 C -13.27902 -67.356645 -11.408735 -68.291529 -10.104963 -70.162159 C -8.801191 -72.032788 -8.1490099 -74.697123 -8.1490099 -78.154952 C -8.1490099 -81.669468 -8.8858986 -84.390447 -10.359728 -86.317762 C -11.776871 -88.301762 -13.817605 -89.293807 -16.481835 -89.293807 z M -93.517959 -74.498845 C -91.533959 -74.498845 -90.060181 -73.903824 -89.096524 -72.713424 C -88.076181 -71.579709 -87.565868 -69.992127 -87.565868 -67.951441 C -87.565868 -65.910754 -88.076181 -64.323689 -89.096524 -63.189974 C -90.060181 -62.05626 -91.533959 -61.489303 -93.517959 -61.489303 C -95.50196 -61.489303 -97.003801 -62.05626 -98.024144 -63.189974 C -98.987802 -64.380375 -99.470051 -65.96744 -99.470051 -67.951441 C -99.470051 -70.048813 -98.987802 -71.664459 -98.024144 -72.798173 C -97.003801 -73.931888 -95.50196 -74.498845 -93.517959 -74.498845 z " /></g></svg>
