<?xml version="1.0" encoding="UTF-8" standalone="no"?>
<!-- Created with Inkscape (http://www.inkscape.org/) -->

<svg
   width="172.6701mm"
   height="172.6701mm"
   viewBox="0 0 172.6701 172.6701"
   version="1.1"
   id="svg1"
   xml:space="preserve"
   xmlns="http://www.w3.org/2000/svg"
   xmlns:svg="http://www.w3.org/2000/svg"><defs
     id="defs1" /><g
     id="layer1"
     transform="translate(157.25102,198.81012)"><path
       id="path5"
       style="fill:#ffffff;fill-opacity:1;stroke-width:0.805188;stroke-linecap:round;stroke-linejoin:round"
       d="M -2.0863309 -198.17657 L -10.088943 -183.11289 L -10.930235 -165.68398 L -19.198981 -165.68398 L -11.423229 -155.47426 L -12.166336 -140.07934 C -28.353216 -157.12094 -50.823548 -166.77435 -74.327399 -166.78417 C -103.64471 -166.77397 -130.92652 -151.79225 -146.66717 -127.05894 L -157.25102 -127.05894 L -149.61996 -115.86014 L -157.25102 -26.140039 L -8.5138455 -26.140039 L 15.419061 -26.140039 L 8.0799737 -154.80195 L 15.419061 -165.68398 L 7.4593397 -165.68398 L 6.4490654 -183.39297 L -2.0863309 -198.17657 z M -83.43072 -192.21621 C -85.584619 -189.65499 -86.77489 -186.4211 -86.795372 -183.07465 C -86.842092 -175.15518 -80.459903 -168.69733 -72.540428 -168.65072 C -64.621155 -168.60402 -58.163395 -174.98588 -58.116503 -182.90515 C -58.102813 -186.26049 -59.266203 -189.5144 -61.404157 -192.10045 C -60.83125 -190.6836 -60.536835 -189.16959 -60.537027 -187.64129 C -60.575787 -181.07411 -65.930869 -175.78172 -72.498054 -175.82031 C -79.065241 -175.85911 -84.357627 -181.21415 -84.319038 -187.78134 C -84.309338 -189.30285 -84.007827 -190.80837 -83.43072 -192.21621 z M -57.720661 -120.07436 C -53.185802 -119.84761 -49.501359 -118.85557 -46.667072 -117.09831 L -66.903563 -83.767013 L -53.894538 -83.767013 L -53.043944 -97.626632 C -51.23 -97.626632 -49.926155 -97.995076 -49.132555 -98.731991 C -48.282269 -99.468905 -47.630605 -100.71611 -47.177119 -102.47336 L -42.330386 -102.47336 L -42.415652 -83.341716 C -40.261594 -82.718173 -37.540616 -82.066508 -34.252843 -81.38628 L -34.67814 -77.304875 L -42.840432 -77.304875 L -42.840432 -62.084615 L -53.894538 -62.084615 L -53.894538 -77.304875 L -78.467715 -77.304875 L -79.147777 -80.36567 L -57.720661 -120.07436 z M -126.16868 -119.56379 C -119.42308 -119.56379 -114.26486 -117.69351 -110.69366 -113.95225 C -107.06577 -110.21099 -105.25161 -104.7971 -105.25161 -97.711381 C -105.25161 -88.811721 -108.02923 -81.216258 -113.58443 -74.924142 C -119.08295 -68.688711 -127.07596 -64.09693 -137.56282 -61.149272 L -139.60352 -65.400692 C -133.93494 -67.838179 -129.37174 -70.956182 -125.91391 -74.754126 C -122.45608 -78.608756 -120.16019 -83.086732 -119.02648 -88.188448 C -122.20088 -86.601248 -125.2903 -85.807715 -128.29465 -85.807715 C -133.96322 -85.807715 -138.4412 -87.338137 -141.72897 -90.399166 C -144.96006 -93.460196 -146.5757 -97.598308 -146.5757 -102.8134 C -146.5757 -106.04448 -145.72553 -108.93539 -144.02495 -111.48625 C -142.2677 -114.03711 -139.85852 -116.0212 -136.79749 -117.43834 C -133.67977 -118.85549 -130.13668 -119.56379 -126.16868 -119.56379 z M -29.831407 -118.88373 L -25.664737 -118.88373 C -23.510679 -118.82705 -18.806127 -118.79847 -11.550353 -118.79847 C -4.0111499 -118.79847 0.89243113 -118.82705 3.1598605 -118.88373 L 7.2412652 -118.88373 L 8.9419365 -115.22762 C 7.8649076 -113.52705 5.8241736 -109.84261 2.8198296 -104.17404 C -0.18451435 -98.505463 -3.018781 -92.496548 -5.6830106 -86.147746 C -8.3472401 -79.798944 -9.6796658 -74.838719 -9.6796658 -71.267517 C -9.6796658 -68.433231 -8.6876208 -66.307789 -6.7036201 -64.890646 C -8.6309351 -62.566531 -11.096757 -61.404554 -14.101101 -61.404554 C -16.878702 -61.404554 -19.032724 -62.169506 -20.563239 -63.700021 C -22.093754 -65.230536 -22.859223 -67.356494 -22.859223 -70.077409 C -22.859223 -73.478553 -22.03711 -77.077772 -20.393224 -80.875717 C -18.749337 -84.730347 -15.801783 -89.945728 -11.550353 -96.521273 L -1.5168566 -111.9963 L -20.90327 -111.9963 C -21.69687 -109.44544 -22.178603 -106.44124 -22.34866 -102.98341 C -23.369003 -102.81335 -24.417692 -102.72813 -25.494721 -102.72813 C -26.628436 -102.72813 -27.733769 -102.81335 -28.810798 -102.98341 L -31.192048 -117.60836 L -29.831407 -118.88373 z M -126.67873 -113.69697 C -129.11621 -113.69697 -130.98701 -112.76157 -132.29079 -110.89094 C -133.59456 -109.02031 -134.24674 -106.35597 -134.24674 -102.89814 C -134.24674 -99.383629 -133.53791 -96.634587 -132.12077 -94.650586 C -130.64694 -92.723271 -128.57814 -91.759807 -125.91391 -91.759807 C -123.5898 -91.759807 -121.01017 -92.723271 -118.17589 -94.650586 L -118.17589 -95.755945 C -118.17589 -101.93469 -118.85613 -106.46931 -120.21659 -109.36028 C -121.57705 -112.25126 -123.73107 -113.69697 -126.67873 -113.69697 z M -90.371898 -101.28274 C -88.387897 -101.28274 -86.91412 -100.68772 -85.950463 -99.497319 C -84.930119 -98.363604 -84.419807 -96.776539 -84.419807 -94.735852 C -84.419807 -92.695166 -84.930119 -91.107584 -85.950463 -89.973869 C -86.91412 -88.840154 -88.387897 -88.273198 -90.371898 -88.273198 C -92.355899 -88.273198 -93.85774 -88.840154 -94.878083 -89.973869 C -95.84174 -91.16427 -96.323473 -92.751852 -96.323473 -94.735852 C -96.323473 -96.833225 -95.84174 -98.448354 -94.878083 -99.582068 C -93.85774 -100.71578 -92.355899 -101.28274 -90.371898 -101.28274 z M -90.371898 -74.498845 C -88.387897 -74.498845 -86.91412 -73.903824 -85.950463 -72.713424 C -84.930119 -71.579709 -84.419807 -69.992127 -84.419807 -67.951441 C -84.419807 -65.910754 -84.930119 -64.323689 -85.950463 -63.189974 C -86.91412 -62.05626 -88.387897 -61.489303 -90.371898 -61.489303 C -92.355899 -61.489303 -93.85774 -62.05626 -94.878083 -63.189974 C -95.84174 -64.380375 -96.323473 -65.96744 -96.323473 -67.951441 C -96.323473 -70.048813 -95.84174 -71.664459 -94.878083 -72.798173 C -93.85774 -73.931888 -92.355899 -74.498845 -90.371898 -74.498845 z " /></g></svg>
