<?xml version="1.0" encoding="UTF-8" standalone="no"?>
<!-- Created with Inkscape (http://www.inkscape.org/) -->

<svg
   width="172.6701mm"
   height="172.6701mm"
   viewBox="0 0 172.6701 172.6701"
   version="1.1"
   id="svg1"
   xml:space="preserve"
   xmlns="http://www.w3.org/2000/svg"
   xmlns:svg="http://www.w3.org/2000/svg"><defs
     id="defs1" /><g
     id="layer1"
     transform="translate(157.25102,198.81012)"><path
       id="path5"
       style="fill:#ffffff;fill-opacity:1;stroke-width:0.805188;stroke-linecap:round;stroke-linejoin:round"
       d="M -2.0863309 -198.17657 L -10.088943 -183.11289 L -10.930235 -165.68398 L -19.198981 -165.68398 L -11.423229 -155.47426 L -12.166336 -140.07934 C -28.353216 -157.12094 -50.823548 -166.77435 -74.327399 -166.78417 C -103.64471 -166.77397 -130.92652 -151.79225 -146.66717 -127.05894 L -157.25102 -127.05894 L -149.61996 -115.86014 L -157.25102 -26.140039 L -8.5138455 -26.140039 L 15.419061 -26.140039 L 8.0799737 -154.80195 L 15.419061 -165.68398 L 7.4593397 -165.68398 L 6.4490654 -183.39297 L -2.0863309 -198.17657 z M -83.43072 -192.21621 C -85.584619 -189.65499 -86.77489 -186.4211 -86.795372 -183.07465 C -86.842092 -175.15518 -80.459903 -168.69733 -72.540428 -168.65072 C -64.621155 -168.60402 -58.163395 -174.98588 -58.116503 -182.90515 C -58.102813 -186.26049 -59.266203 -189.5144 -61.404157 -192.10045 C -60.83125 -190.6836 -60.536835 -189.16959 -60.537027 -187.64129 C -60.575787 -181.07411 -65.930869 -175.78172 -72.498054 -175.82031 C -79.065241 -175.85911 -84.357627 -181.21415 -84.319038 -187.78134 C -84.309338 -189.30285 -84.007827 -190.80837 -83.43072 -192.21621 z M -18.437788 -119.64906 C -11.805557 -119.64906 -6.7320435 -117.15466 -3.217528 -112.16631 C 0.35367333 -107.23465 2.139251 -100.06428 2.139251 -90.654448 C 2.139251 -81.244616 0.35367333 -74.017081 -3.217528 -68.97205 C -6.7320435 -63.983706 -11.805557 -61.489303 -18.437788 -61.489303 C -25.070019 -61.489303 -30.171595 -63.983706 -33.742797 -68.97205 C -37.313998 -74.017081 -39.099576 -81.244616 -39.099576 -90.654448 C -39.099576 -100.00759 -37.313998 -107.17797 -33.742797 -112.16631 C -30.171595 -117.15466 -25.070019 -119.64906 -18.437788 -119.64906 z M -119.36651 -119.13901 L -116.56048 -117.86364 L -116.56048 -68.716769 C -115.48345 -68.093226 -113.7831 -67.526269 -111.45898 -67.016097 C -109.13487 -66.562611 -107.29265 -66.279392 -105.93219 -66.16602 L -106.18695 -62.084615 L -140.87889 -62.084615 L -140.70888 -66.16602 C -135.66385 -66.732877 -131.80895 -67.583054 -129.14473 -68.716769 L -129.14473 -109.44555 L -140.53886 -109.44555 L -140.53886 -114.37703 C -136.91097 -114.66046 -133.16937 -115.19935 -129.31474 -115.99295 C -125.46011 -116.84324 -122.14411 -117.89193 -119.36651 -119.13901 z M -56.615302 -119.13901 L -53.809272 -117.86364 L -53.809272 -68.716769 C -52.732243 -68.093226 -51.03189 -67.526269 -48.707775 -67.016097 C -46.383659 -66.562611 -44.541438 -66.279392 -43.18098 -66.16602 L -43.435745 -62.084615 L -78.127684 -62.084615 L -77.957669 -66.16602 C -72.912638 -66.732877 -69.057746 -67.583054 -66.393517 -68.716769 L -66.393517 -109.44555 L -77.787653 -109.44555 L -77.787653 -114.37703 C -74.159766 -114.66046 -70.418162 -115.19935 -66.563532 -115.99295 C -62.708902 -116.84324 -59.392903 -117.89193 -56.615302 -119.13901 z M -18.437788 -115.31237 C -21.32876 -115.31237 -23.426138 -113.41351 -24.72991 -109.61556 C -25.976996 -105.81762 -26.60008 -99.497422 -26.60008 -90.654448 C -26.60008 -81.868159 -25.976996 -75.576025 -24.72991 -71.778081 C -23.426138 -68.036822 -21.32876 -66.16602 -18.437788 -66.16602 C -15.546815 -66.16602 -13.477501 -68.036822 -12.230415 -71.778081 C -10.926643 -75.576025 -10.274978 -81.868159 -10.274978 -90.654448 C -10.274978 -99.440737 -10.926643 -105.73287 -12.230415 -109.53081 C -13.477501 -113.38544 -15.546815 -115.31237 -18.437788 -115.31237 z M -91.221975 -101.28274 C -89.237975 -101.28274 -87.764197 -100.68772 -86.80054 -99.497319 C -85.780197 -98.363604 -85.269884 -96.776539 -85.269884 -94.735852 C -85.269884 -92.695166 -85.780197 -91.107584 -86.80054 -89.973869 C -87.764197 -88.840154 -89.237975 -88.273198 -91.221975 -88.273198 C -93.205976 -88.273198 -94.708334 -88.840154 -95.728677 -89.973869 C -96.692335 -91.16427 -97.174067 -92.751852 -97.174067 -94.735852 C -97.174067 -96.833225 -96.692335 -98.448354 -95.728677 -99.582068 C -94.708334 -100.71578 -93.205976 -101.28274 -91.221975 -101.28274 z M -91.221975 -74.498845 C -89.237975 -74.498845 -87.764197 -73.903824 -86.80054 -72.713424 C -85.780197 -71.579709 -85.269884 -69.992127 -85.269884 -67.951441 C -85.269884 -65.910754 -85.780197 -64.323689 -86.80054 -63.189974 C -87.764197 -62.05626 -89.237975 -61.489303 -91.221975 -61.489303 C -93.205976 -61.489303 -94.708334 -62.05626 -95.728677 -63.189974 C -96.692335 -64.380375 -97.174067 -65.96744 -97.174067 -67.951441 C -97.174067 -70.048813 -96.692335 -71.664459 -95.728677 -72.798173 C -94.708334 -73.931888 -93.205976 -74.498845 -91.221975 -74.498845 z " /></g></svg>
