<?xml version="1.0" encoding="UTF-8" standalone="no"?>
<!-- Created with Inkscape (http://www.inkscape.org/) -->

<svg
   width="172.6701mm"
   height="172.6701mm"
   viewBox="0 0 172.6701 172.6701"
   version="1.1"
   id="svg1"
   xml:space="preserve"
   xmlns="http://www.w3.org/2000/svg"
   xmlns:svg="http://www.w3.org/2000/svg"><defs
     id="defs1" /><g
     id="layer1"
     transform="translate(157.25102,198.81012)"><path
       id="path5"
       style="fill:#ffffff;fill-opacity:1;stroke-width:0.805188;stroke-linecap:round;stroke-linejoin:round"
       d="M -2.0863309 -198.17657 L -10.088943 -183.11289 L -10.930235 -165.68398 L -19.198981 -165.68398 L -11.423229 -155.47426 L -12.166336 -140.07934 C -28.353216 -157.12094 -50.823548 -166.77435 -74.327399 -166.78417 C -103.64471 -166.77397 -130.92652 -151.79225 -146.66717 -127.05894 L -157.25102 -127.05894 L -149.61996 -115.86014 L -157.25102 -26.140039 L -8.5138455 -26.140039 L 15.419061 -26.140039 L 8.0799737 -154.80195 L 15.419061 -165.68398 L 7.4593397 -165.68398 L 6.4490654 -183.39297 L -2.0863309 -198.17657 z M -83.43072 -192.21621 C -85.584619 -189.65499 -86.77489 -186.4211 -86.795372 -183.07465 C -86.842092 -175.15518 -80.459903 -168.69733 -72.540428 -168.65072 C -64.621155 -168.60402 -58.163395 -174.98588 -58.116503 -182.90515 C -58.102813 -186.26049 -59.266203 -189.5144 -61.404157 -192.10045 C -60.83125 -190.6836 -60.536835 -189.16959 -60.537027 -187.64129 C -60.575787 -181.07411 -65.930869 -175.78172 -72.498054 -175.82031 C -79.065241 -175.85911 -84.357627 -181.21415 -84.319038 -187.78134 C -84.309338 -189.30285 -84.007827 -190.80837 -83.43072 -192.21621 z M -57.38063 -119.64906 C -50.748399 -119.64906 -45.674886 -117.15466 -42.160371 -112.16631 C -38.589169 -107.23465 -36.803592 -100.06428 -36.803592 -90.654448 C -36.803592 -81.244616 -38.589169 -74.017081 -42.160371 -68.97205 C -45.674886 -63.983706 -50.748399 -61.489303 -57.38063 -61.489303 C -64.012861 -61.489303 -69.114438 -63.983706 -72.685639 -68.97205 C -76.25684 -74.017081 -78.042418 -81.244616 -78.042418 -90.654448 C -78.042418 -100.00759 -76.25684 -107.17797 -72.685639 -112.16631 C -69.114438 -117.15466 -64.012861 -119.64906 -57.38063 -119.64906 z M -127.01927 -119.56379 C -120.27367 -119.56379 -115.11493 -117.69351 -111.54373 -113.95225 C -107.91585 -110.21099 -106.1022 -104.7971 -106.1022 -97.711381 C -106.1022 -88.811721 -108.87983 -81.216258 -114.43503 -74.924142 C -119.93355 -68.688711 -127.92603 -64.09693 -138.41289 -61.149272 L -140.4536 -65.400692 C -134.78502 -67.838179 -130.22182 -70.956182 -126.76399 -74.754126 C -123.30616 -78.608756 -121.01027 -83.086732 -119.87656 -88.188448 C -123.05096 -86.601248 -126.14038 -85.807715 -129.14473 -85.807715 C -134.8133 -85.807715 -139.29179 -87.338137 -142.57956 -90.399166 C -145.81065 -93.460196 -147.4263 -97.598308 -147.4263 -102.8134 C -147.4263 -106.04448 -146.5756 -108.93539 -144.87503 -111.48625 C -143.11777 -114.03711 -140.7086 -116.0212 -137.64757 -117.43834 C -134.52985 -118.85549 -130.98728 -119.56379 -127.01927 -119.56379 z M -12.485696 -119.56379 C -5.7400936 -119.56379 -0.58135624 -117.69351 2.9898451 -113.95225 C 6.6177321 -110.21099 8.4313734 -104.7971 8.4313734 -97.711381 C 8.4313734 -88.811721 5.6537507 -81.216258 0.098548685 -74.924142 C -5.3999676 -68.688711 -13.392455 -64.09693 -23.879316 -61.149272 L -25.920018 -65.400692 C -20.251445 -67.838179 -15.688244 -70.956182 -12.230415 -74.754126 C -8.7725847 -78.608756 -6.4766943 -83.086732 -5.3429796 -88.188448 C -8.5173808 -86.601248 -11.606804 -85.807715 -14.611148 -85.807715 C -20.279721 -85.807715 -24.757697 -87.338137 -28.04547 -90.399166 C -31.276557 -93.460196 -32.892202 -97.598308 -32.892202 -102.8134 C -32.892202 -106.04448 -32.042026 -108.93539 -30.341454 -111.48625 C -28.584196 -114.03711 -26.175018 -116.0212 -23.113988 -117.43834 C -19.996273 -118.85549 -16.453698 -119.56379 -12.485696 -119.56379 z M -57.38063 -115.31237 C -60.271603 -115.31237 -62.368981 -113.41351 -63.672753 -109.61556 C -64.919839 -105.81762 -65.543439 -99.497422 -65.543439 -90.654448 C -65.543439 -81.868159 -64.919839 -75.576025 -63.672753 -71.778081 C -62.368981 -68.036822 -60.271603 -66.16602 -57.38063 -66.16602 C -54.489658 -66.16602 -52.42086 -68.036822 -51.173774 -71.778081 C -49.870002 -75.576025 -49.217821 -81.868159 -49.217821 -90.654448 C -49.217821 -99.440737 -49.870002 -105.73287 -51.173774 -109.53081 C -52.42086 -113.38544 -54.489658 -115.31237 -57.38063 -115.31237 z M -127.52932 -113.69697 C -129.96681 -113.69697 -131.83761 -112.76157 -133.14138 -110.89094 C -134.44515 -109.02031 -135.09682 -106.35597 -135.09682 -102.89814 C -135.09682 -99.383629 -134.38851 -96.634587 -132.97137 -94.650586 C -131.49754 -92.723271 -129.42822 -91.759807 -126.76399 -91.759807 C -124.43988 -91.759807 -121.86077 -92.723271 -119.02648 -94.650586 L -119.02648 -95.755945 C -119.02648 -101.93469 -119.70672 -106.46931 -121.06718 -109.36028 C -122.42764 -112.25126 -124.58166 -113.69697 -127.52932 -113.69697 z M -12.995742 -113.69697 C -15.433229 -113.69697 -17.303514 -112.76157 -18.607286 -110.89094 C -19.911058 -109.02031 -20.563239 -106.35597 -20.563239 -102.89814 C -20.563239 -99.383629 -19.854414 -96.634587 -18.437271 -94.650586 C -16.963442 -92.723271 -14.894644 -91.759807 -12.230415 -91.759807 C -9.9062994 -91.759807 -7.3271891 -92.723271 -4.4929023 -94.650586 L -4.4929023 -95.755945 C -4.4929023 -101.93469 -5.173147 -106.46931 -6.5336046 -109.36028 C -7.8940623 -112.25126 -10.048084 -113.69697 -12.995742 -113.69697 z M -91.221975 -101.28274 C -89.237975 -101.28274 -87.764197 -100.68772 -86.80054 -99.497319 C -85.780197 -98.363604 -85.269884 -96.776539 -85.269884 -94.735852 C -85.269884 -92.695166 -85.780197 -91.107584 -86.80054 -89.973869 C -87.764197 -88.840154 -89.237975 -88.273198 -91.221975 -88.273198 C -93.205976 -88.273198 -94.708334 -88.840154 -95.728677 -89.973869 C -96.692335 -91.16427 -97.174067 -92.751852 -97.174067 -94.735852 C -97.174067 -96.833225 -96.692335 -98.448354 -95.728677 -99.582068 C -94.708334 -100.71578 -93.205976 -101.28274 -91.221975 -101.28274 z M -91.221975 -74.498845 C -89.237975 -74.498845 -87.764197 -73.903824 -86.80054 -72.713424 C -85.780197 -71.579709 -85.269884 -69.992127 -85.269884 -67.951441 C -85.269884 -65.910754 -85.780197 -64.323689 -86.80054 -63.189974 C -87.764197 -62.05626 -89.237975 -61.489303 -91.221975 -61.489303 C -93.205976 -61.489303 -94.708334 -62.05626 -95.728677 -63.189974 C -96.692335 -64.380375 -97.174067 -65.96744 -97.174067 -67.951441 C -97.174067 -70.048813 -96.692335 -71.664459 -95.728677 -72.798173 C -94.708334 -73.931888 -93.205976 -74.498845 -91.221975 -74.498845 z " /></g></svg>
