<?xml version="1.0" encoding="UTF-8" standalone="no"?>
<!-- Created with Inkscape (http://www.inkscape.org/) -->

<svg
   width="172.6701mm"
   height="172.6701mm"
   viewBox="0 0 172.6701 172.6701"
   version="1.1"
   id="svg1"
   xml:space="preserve"
   xmlns="http://www.w3.org/2000/svg"
   xmlns:svg="http://www.w3.org/2000/svg"><defs
     id="defs1" /><g
     id="layer1"
     transform="translate(157.25102,198.81012)"><path
       id="path5"
       style="fill:#ffffff;fill-opacity:1;stroke-width:0.805188;stroke-linecap:round;stroke-linejoin:round"
       d="M -2.0863309 -198.17657 L -10.088943 -183.11289 L -10.930235 -165.68398 L -19.198981 -165.68398 L -11.423229 -155.47426 L -12.166336 -140.07934 C -28.353216 -157.12094 -50.823548 -166.77435 -74.327399 -166.78417 C -103.64471 -166.77397 -130.92652 -151.79225 -146.66717 -127.05894 L -157.25102 -127.05894 L -149.61996 -115.86014 L -157.25102 -26.140039 L -8.5138455 -26.140039 L 15.419061 -26.140039 L 8.0799737 -154.80195 L 15.419061 -165.68398 L 7.4593397 -165.68398 L 6.4490654 -183.39297 L -2.0863309 -198.17657 z M -83.43072 -192.21621 C -85.584619 -189.65499 -86.77489 -186.4211 -86.795372 -183.07465 C -86.842092 -175.15518 -80.459903 -168.69733 -72.540428 -168.65072 C -64.621155 -168.60402 -58.163395 -174.98588 -58.116503 -182.90515 C -58.102813 -186.26049 -59.266203 -189.5144 -61.404157 -192.10045 C -60.83125 -190.6836 -60.536835 -189.16959 -60.537027 -187.64129 C -60.575787 -181.07411 -65.930869 -175.78172 -72.498054 -175.82031 C -79.065241 -175.85911 -84.357627 -181.21415 -84.319038 -187.78134 C -84.309338 -189.30285 -84.007827 -190.80837 -83.43072 -192.21621 z M -14.398758 -119.73381 C -8.5601269 -119.73381 -3.9117022 -118.28861 -0.45387238 -115.39764 C 3.0039575 -112.56335 4.7328911 -108.56711 4.7328911 -103.40871 C 4.7328911 -98.873849 3.0039575 -94.026912 -0.45387238 -88.86851 C -3.9117022 -83.766794 -9.6088159 -77.616529 -17.544819 -70.41744 L 5.3282036 -70.41744 L 5.3282036 -62.084615 L -33.189859 -62.084615 L -33.189859 -67.016097 C -26.897742 -73.081471 -21.994678 -78.268272 -18.480162 -82.576388 C -14.965647 -86.884504 -12.44318 -90.852684 -10.912666 -94.480571 C -9.3254649 -98.108458 -8.5314155 -101.84955 -8.5314155 -105.70418 C -8.5314155 -111.82623 -10.57215 -114.88759 -14.653522 -114.88759 C -16.467466 -114.88759 -17.94176 -114.0369 -19.075475 -112.33633 C -20.209189 -110.69244 -20.775629 -108.65171 -20.775629 -106.21422 C -20.775629 -104.51365 -20.180609 -102.89852 -18.990209 -101.36801 C -19.953866 -100.46103 -21.059199 -99.752209 -22.306285 -99.242037 C -23.496686 -98.731866 -24.687243 -98.476709 -25.877644 -98.476709 C -27.91833 -98.476709 -29.618683 -99.10031 -30.979141 -100.3474 C -32.339599 -101.65117 -33.019843 -103.52197 -33.019843 -105.95946 C -33.019843 -108.567 -32.254891 -110.91953 -30.724376 -113.01691 C -29.193861 -115.11428 -27.039323 -116.75799 -24.261721 -117.94839 C -21.427435 -119.13879 -18.140016 -119.73381 -14.398758 -119.73381 z M -57.933568 -119.64906 C -51.301337 -119.64906 -46.227824 -117.15466 -42.713308 -112.16631 C -39.142107 -107.23465 -37.356529 -100.06428 -37.356529 -90.654448 C -37.356529 -81.244616 -39.142107 -74.017081 -42.713308 -68.97205 C -46.227824 -63.983706 -51.301337 -61.489303 -57.933568 -61.489303 C -64.565799 -61.489303 -69.667376 -63.983706 -73.238577 -68.97205 C -76.809778 -74.017081 -78.595356 -81.244616 -78.595356 -90.654448 C -78.595356 -100.00759 -76.809778 -107.17797 -73.238577 -112.16631 C -69.667376 -117.15466 -64.565799 -119.64906 -57.933568 -119.64906 z M -144.06733 -118.88373 L -139.90117 -118.88373 C -137.74712 -118.82705 -133.04205 -118.79847 -125.78627 -118.79847 C -118.24707 -118.79847 -113.34349 -118.82705 -111.07606 -118.88373 L -106.99466 -118.88373 L -105.2945 -115.22762 C -106.37153 -113.52705 -108.41226 -109.84261 -111.41661 -104.17404 C -114.42095 -98.505463 -117.25522 -92.496548 -119.91945 -86.147746 C -122.58368 -79.798944 -123.91559 -74.838719 -123.91559 -71.267517 C -123.91559 -68.433231 -122.92354 -66.307789 -120.93954 -64.890646 C -122.86686 -62.566531 -125.33268 -61.404554 -128.33702 -61.404554 C -131.11462 -61.404554 -133.26865 -62.169506 -134.79916 -63.700021 C -136.32968 -65.230536 -137.09514 -67.356494 -137.09514 -70.077409 C -137.09514 -73.478553 -136.27303 -77.077772 -134.62915 -80.875717 C -132.98526 -84.730347 -130.0377 -89.945728 -125.78627 -96.521273 L -115.75278 -111.9963 L -135.13919 -111.9963 C -135.93279 -109.44544 -136.41504 -106.44124 -136.5851 -102.98341 C -137.60544 -102.81335 -138.65361 -102.72813 -139.73064 -102.72813 C -140.86436 -102.72813 -141.97021 -102.81335 -143.04724 -102.98341 L -145.42797 -117.60836 L -144.06733 -118.88373 z M -57.933568 -115.31237 C -60.824541 -115.31237 -62.921919 -113.41351 -64.22569 -109.61556 C -65.472777 -105.81762 -66.096377 -99.497422 -66.096377 -90.654448 C -66.096377 -81.868159 -65.472777 -75.576025 -64.22569 -71.778081 C -62.921919 -68.036822 -60.824541 -66.16602 -57.933568 -66.16602 C -55.042596 -66.16602 -52.973281 -68.036822 -51.726195 -71.778081 C -50.422423 -75.576025 -49.770759 -81.868159 -49.770759 -90.654448 C -49.770759 -99.440737 -50.422423 -105.73287 -51.726195 -109.53081 C -52.973281 -113.38544 -55.042596 -115.31237 -57.933568 -115.31237 z M -91.774913 -101.28274 C -89.790913 -101.28274 -88.317135 -100.68772 -87.353478 -99.497319 C -86.333134 -98.363604 -85.822822 -96.776539 -85.822822 -94.735852 C -85.822822 -92.695166 -86.333134 -91.107584 -87.353478 -89.973869 C -88.317135 -88.840154 -89.790913 -88.273198 -91.774913 -88.273198 C -93.758914 -88.273198 -95.260755 -88.840154 -96.281098 -89.973869 C -97.244756 -91.16427 -97.727005 -92.751852 -97.727005 -94.735852 C -97.727005 -96.833225 -97.244756 -98.448354 -96.281098 -99.582068 C -95.260755 -100.71578 -93.758914 -101.28274 -91.774913 -101.28274 z M -91.774913 -74.498845 C -89.790913 -74.498845 -88.317135 -73.903824 -87.353478 -72.713424 C -86.333134 -71.579709 -85.822822 -69.992127 -85.822822 -67.951441 C -85.822822 -65.910754 -86.333134 -64.323689 -87.353478 -63.189974 C -88.317135 -62.05626 -89.790913 -61.489303 -91.774913 -61.489303 C -93.758914 -61.489303 -95.260755 -62.05626 -96.281098 -63.189974 C -97.244756 -64.380375 -97.727005 -65.96744 -97.727005 -67.951441 C -97.727005 -70.048813 -97.244756 -71.664459 -96.281098 -72.798173 C -95.260755 -73.931888 -93.758914 -74.498845 -91.774913 -74.498845 z " /></g></svg>
