<?xml version="1.0" encoding="UTF-8" standalone="no"?>
<!-- Created with Inkscape (http://www.inkscape.org/) -->

<svg
   width="172.6701mm"
   height="172.6701mm"
   viewBox="0 0 172.6701 172.6701"
   version="1.1"
   id="svg1"
   xml:space="preserve"
   xmlns="http://www.w3.org/2000/svg"
   xmlns:svg="http://www.w3.org/2000/svg"><defs
     id="defs1" /><g
     id="layer1"
     transform="translate(157.25102,198.81012)"><path
       id="path5"
       style="fill:#ffffff;fill-opacity:1;stroke-width:0.805188;stroke-linecap:round;stroke-linejoin:round"
       d="M -2.0863309 -198.17657 L -10.088943 -183.11289 L -10.930235 -165.68398 L -19.198981 -165.68398 L -11.423229 -155.47426 L -12.166336 -140.07934 C -28.353216 -157.12094 -50.823548 -166.77435 -74.327399 -166.78417 C -103.64471 -166.77397 -130.92652 -151.79225 -146.66717 -127.05894 L -157.25102 -127.05894 L -149.61996 -115.86014 L -157.25102 -26.140039 L -8.5138455 -26.140039 L 15.419061 -26.140039 L 8.0799737 -154.80195 L 15.419061 -165.68398 L 7.4593397 -165.68398 L 6.4490654 -183.39297 L -2.0863309 -198.17657 z M -83.43072 -192.21621 C -85.584619 -189.65499 -86.77489 -186.4211 -86.795372 -183.07465 C -86.842092 -175.15518 -80.459903 -168.69733 -72.540428 -168.65072 C -64.621155 -168.60402 -58.163395 -174.98588 -58.116503 -182.90515 C -58.102813 -186.26049 -59.266203 -189.5144 -61.404157 -192.10045 C -60.83125 -190.6836 -60.536835 -189.16959 -60.537027 -187.64129 C -60.575787 -181.07411 -65.930869 -175.78172 -72.498054 -175.82031 C -79.065241 -175.85911 -84.357627 -181.21415 -84.319038 -187.78134 C -84.309338 -189.30285 -84.007827 -190.80837 -83.43072 -192.21621 z M -123.2779 -119.73381 C -119.59333 -119.73381 -116.33397 -119.11073 -113.49969 -117.86364 C -110.6654 -116.67324 -108.45473 -114.97237 -106.86753 -112.76163 C -105.28033 -110.60757 -104.48628 -108.11368 -104.48628 -105.27939 C -104.48628 -102.10499 -105.42168 -99.384015 -107.29231 -97.116586 C -109.16294 -94.849156 -111.94056 -93.120223 -115.62514 -91.929822 C -110.97691 -90.909479 -107.71755 -89.237189 -105.84692 -86.913074 C -103.97629 -84.588959 -103.04089 -81.442892 -103.04089 -77.474891 C -103.04089 -74.017061 -104.08958 -71.069506 -106.18695 -68.632019 C -108.22764 -66.194533 -110.89197 -64.380375 -114.17975 -63.189974 C -117.46752 -61.999574 -120.86874 -61.404554 -124.38326 -61.404554 C -129.48497 -61.404554 -133.8216 -62.453243 -137.3928 -64.550615 C -140.90732 -66.647987 -142.66431 -69.510317 -142.66431 -73.138204 C -142.66431 -75.235577 -142.04071 -76.851222 -140.79363 -77.984937 C -139.54654 -79.175337 -137.98754 -79.770358 -136.11691 -79.770358 C -134.18959 -79.770358 -132.23408 -79.005405 -130.25008 -77.474891 C -130.76026 -76.397862 -131.01541 -75.094016 -131.01541 -73.563501 C -131.01541 -71.749558 -130.47704 -70.275781 -129.40001 -69.142066 C -128.26629 -68.008351 -126.594 -67.441394 -124.38326 -67.441394 C -119.50829 -67.441394 -117.07053 -70.814037 -117.07053 -77.55964 C -117.07053 -81.244213 -118.26108 -84.10706 -120.64189 -86.147746 C -122.966 -88.188433 -126.282 -89.208541 -130.59012 -89.208541 L -130.59012 -94.480571 C -122.25731 -95.1608 -118.09114 -98.760535 -118.09114 -105.27939 C -118.09114 -108.56717 -118.60145 -110.97583 -119.62179 -112.50634 C -120.64214 -114.09354 -122.03069 -114.88759 -123.78795 -114.88759 C -125.88532 -114.88759 -127.47238 -114.15071 -128.54941 -112.67688 C -129.56976 -111.20305 -130.08007 -109.41747 -130.08007 -107.3201 C -130.08007 -105.44947 -129.68356 -103.77718 -128.88996 -102.30335 C -130.47716 -100.60278 -132.51738 -99.752084 -135.01155 -99.752084 C -137.27898 -99.752084 -139.03649 -100.43233 -140.28358 -101.79279 C -141.53067 -103.15324 -142.15427 -104.91076 -142.15427 -107.06482 C -142.15427 -109.8991 -141.19029 -112.25164 -139.26297 -114.12227 C -137.27897 -116.04958 -134.84173 -117.46671 -131.95076 -118.37369 C -129.0031 -119.28066 -126.11219 -119.73381 -123.2779 -119.73381 z M -16.991881 -119.73381 C -11.15325 -119.73381 -6.5053424 -118.28861 -3.0475125 -115.39764 C 0.41031733 -112.56335 2.139251 -108.56711 2.139251 -103.40871 C 2.139251 -98.873849 0.41031733 -94.026912 -3.0475125 -88.86851 C -6.5053424 -83.766794 -12.201939 -77.616529 -20.137942 -70.41744 L 2.7345635 -70.41744 L 2.7345635 -62.084615 L -35.783499 -62.084615 L -35.783499 -67.016097 C -29.491382 -73.081471 -24.587801 -78.268272 -21.073286 -82.576388 C -17.55877 -86.884504 -15.036304 -90.852684 -13.505789 -94.480571 C -11.918588 -98.108458 -11.125056 -101.84955 -11.125056 -105.70418 C -11.125056 -111.82623 -13.16579 -114.88759 -17.247163 -114.88759 C -19.061106 -114.88759 -20.534883 -114.0369 -21.668598 -112.33633 C -22.802313 -110.69244 -23.36927 -108.65171 -23.36927 -106.21422 C -23.36927 -104.51365 -22.774249 -102.89852 -21.583849 -101.36801 C -22.547506 -100.46103 -23.652839 -99.752209 -24.899925 -99.242037 C -26.090326 -98.731866 -27.280366 -98.476709 -28.470767 -98.476709 C -30.511453 -98.476709 -32.212323 -99.10031 -33.572781 -100.3474 C -34.933239 -101.65117 -35.613483 -103.52197 -35.613483 -105.95946 C -35.613483 -108.567 -34.848014 -110.91953 -33.317499 -113.01691 C -31.786985 -115.11428 -29.632963 -116.75799 -26.855362 -117.94839 C -24.021075 -119.13879 -20.73314 -119.73381 -16.991881 -119.73381 z M -53.384492 -119.13901 L -50.578461 -117.86364 L -50.578461 -68.716769 C -49.501432 -68.093226 -47.800562 -67.526269 -45.476447 -67.016097 C -43.152332 -66.562611 -41.31011 -66.279392 -39.949653 -66.16602 L -40.204934 -62.084615 L -74.896357 -62.084615 L -74.726341 -66.16602 C -69.681311 -66.732877 -65.826936 -67.583054 -63.162706 -68.716769 L -63.162706 -109.44555 L -74.556326 -109.44555 L -74.556326 -114.37703 C -70.928439 -114.66046 -67.187352 -115.19935 -63.332722 -115.99295 C -59.478092 -116.84324 -56.162093 -117.89193 -53.384492 -119.13901 z M -87.991165 -101.28274 C -86.007164 -101.28274 -84.533387 -100.68772 -83.569729 -99.497319 C -82.549386 -98.363604 -82.039073 -96.776539 -82.039073 -94.735852 C -82.039073 -92.695166 -82.549386 -91.107584 -83.569729 -89.973869 C -84.533387 -88.840154 -86.007164 -88.273198 -87.991165 -88.273198 C -89.975166 -88.273198 -91.477007 -88.840154 -92.49735 -89.973869 C -93.461007 -91.16427 -93.943256 -92.751852 -93.943256 -94.735852 C -93.943256 -96.833225 -93.461007 -98.448354 -92.49735 -99.582068 C -91.477007 -100.71578 -89.975166 -101.28274 -87.991165 -101.28274 z M -87.991165 -74.498845 C -86.007164 -74.498845 -84.533387 -73.903824 -83.569729 -72.713424 C -82.549386 -71.579709 -82.039073 -69.992127 -82.039073 -67.951441 C -82.039073 -65.910754 -82.549386 -64.323689 -83.569729 -63.189974 C -84.533387 -62.05626 -86.007164 -61.489303 -87.991165 -61.489303 C -89.975166 -61.489303 -91.477007 -62.05626 -92.49735 -63.189974 C -93.461007 -64.380375 -93.943256 -65.96744 -93.943256 -67.951441 C -93.943256 -70.048813 -93.461007 -71.664459 -92.49735 -72.798173 C -91.477007 -73.931888 -89.975166 -74.498845 -87.991165 -74.498845 z " /></g></svg>
