<?xml version="1.0" encoding="UTF-8" standalone="no"?>
<!-- Created with Inkscape (http://www.inkscape.org/) -->

<svg
   width="172.6701mm"
   height="172.6701mm"
   viewBox="0 0 172.6701 172.6701"
   version="1.1"
   id="svg1"
   xml:space="preserve"
   xmlns="http://www.w3.org/2000/svg"
   xmlns:svg="http://www.w3.org/2000/svg"><defs
     id="defs1" /><g
     id="layer1"
     transform="translate(157.25102,198.81012)"><path
       id="path5"
       style="fill:#ffffff;fill-opacity:1;stroke-width:0.805188;stroke-linecap:round;stroke-linejoin:round"
       d="M -2.0863309 -198.17657 L -10.088943 -183.11289 L -10.930235 -165.68398 L -19.198981 -165.68398 L -11.423229 -155.47426 L -12.166336 -140.07934 C -28.353216 -157.12094 -50.823548 -166.77435 -74.327399 -166.78417 C -103.64471 -166.77397 -130.92652 -151.79225 -146.66717 -127.05894 L -157.25102 -127.05894 L -149.61996 -115.86014 L -157.25102 -26.140039 L -8.5138455 -26.140039 L 15.419061 -26.140039 L 8.0799737 -154.80195 L 15.419061 -165.68398 L 7.4593397 -165.68398 L 6.4490654 -183.39297 L -2.0863309 -198.17657 z M -83.43072 -192.21621 C -85.584619 -189.65499 -86.77489 -186.4211 -86.795372 -183.07465 C -86.842092 -175.15518 -80.459903 -168.69733 -72.540428 -168.65072 C -64.621155 -168.60402 -58.163395 -174.98588 -58.116503 -182.90515 C -58.102813 -186.26049 -59.266203 -189.5144 -61.404157 -192.10045 C -60.83125 -190.6836 -60.536835 -189.16959 -60.537027 -187.64129 C -60.575787 -181.07411 -65.930869 -175.78172 -72.498054 -175.82031 C -79.065241 -175.85911 -84.357627 -181.21415 -84.319038 -187.78134 C -84.309338 -189.30285 -84.007827 -190.80837 -83.43072 -192.21621 z M -60.696707 -120.07436 C -56.161848 -119.84761 -52.477405 -118.85557 -49.643118 -117.09831 L -69.879609 -83.767013 L -56.870584 -83.767013 L -56.01999 -97.626632 C -54.206046 -97.626632 -52.902201 -97.995076 -52.108601 -98.731991 C -51.258315 -99.468905 -50.60665 -100.71611 -50.153164 -102.47336 L -45.306432 -102.47336 L -45.391698 -83.341716 C -43.23764 -82.718173 -40.516661 -82.066508 -37.228889 -81.38628 L -37.654186 -77.304875 L -45.816995 -77.304875 L -45.816995 -62.084615 L -56.870584 -62.084615 L -56.870584 -77.304875 L -81.443761 -77.304875 L -82.123823 -80.36567 L -60.696707 -120.07436 z M -0.75152863 -119.90383 L 1.2891737 -115.65241 C -10.161345 -110.72075 -17.049016 -103.12528 -19.373131 -92.865166 C -16.085358 -94.452366 -12.967355 -95.245899 -10.019697 -95.245899 C -4.3511233 -95.245899 0.098789097 -93.715477 3.329876 -90.654448 C 6.6176486 -87.593418 8.2613579 -83.455306 8.2613579 -78.240218 C 8.2613579 -75.009132 7.3826009 -72.118221 5.6253431 -69.567363 C 3.9247711 -67.016505 1.5155927 -65.032415 -1.6021227 -63.615271 C -4.6631524 -62.198128 -8.1776637 -61.489303 -12.145665 -61.489303 C -18.891268 -61.489303 -24.077552 -63.360105 -27.705439 -67.101363 C -31.27664 -70.842622 -33.062735 -76.255999 -33.062735 -83.341716 C -33.062735 -92.241376 -30.313176 -99.808775 -24.814659 -106.04421 C -19.259457 -112.33632 -11.23839 -116.95617 -0.75152863 -119.90383 z M -128.63468 -119.73381 C -124.95011 -119.73381 -121.69075 -119.11073 -118.85646 -117.86364 C -116.02218 -116.67324 -113.81151 -114.97237 -112.22431 -112.76163 C -110.63711 -110.60757 -109.84306 -108.11368 -109.84306 -105.27939 C -109.84306 -102.10499 -110.77846 -99.384015 -112.64909 -97.116586 C -114.51972 -94.849156 -117.29734 -93.120223 -120.98192 -91.929822 C -116.33369 -90.909479 -113.07433 -89.237189 -111.2037 -86.913074 C -109.33307 -84.588959 -108.39767 -81.442892 -108.39767 -77.474891 C -108.39767 -74.017061 -109.44636 -71.069506 -111.54373 -68.632019 C -113.58442 -66.194533 -116.24875 -64.380375 -119.53653 -63.189974 C -122.8243 -61.999574 -126.22552 -61.404554 -129.74004 -61.404554 C -134.84175 -61.404554 -139.17838 -62.453243 -142.74958 -64.550615 C -146.2641 -66.647987 -148.02109 -69.510317 -148.02109 -73.138204 C -148.02109 -75.235577 -147.39749 -76.851222 -146.15041 -77.984937 C -144.90332 -79.175337 -143.34432 -79.770358 -141.47369 -79.770358 C -139.54637 -79.770358 -137.59086 -79.005405 -135.60686 -77.474891 C -136.11703 -76.397862 -136.37219 -75.094016 -136.37219 -73.563501 C -136.37219 -71.749558 -135.83381 -70.275781 -134.75679 -69.142066 C -133.62307 -68.008351 -131.95078 -67.441394 -129.74004 -67.441394 C -124.86506 -67.441394 -122.42731 -70.814037 -122.42731 -77.55964 C -122.42731 -81.244213 -123.61786 -84.10706 -125.99866 -86.147746 C -128.32278 -88.188433 -131.63878 -89.208541 -135.94689 -89.208541 L -135.94689 -94.480571 C -127.61409 -95.1608 -123.44792 -98.760535 -123.44792 -105.27939 C -123.44792 -108.56717 -123.95823 -110.97583 -124.97857 -112.50634 C -125.99891 -114.09354 -127.38747 -114.88759 -129.14473 -114.88759 C -131.2421 -114.88759 -132.82916 -114.15071 -133.90619 -112.67688 C -134.92653 -111.20305 -135.43685 -109.41747 -135.43685 -107.3201 C -135.43685 -105.44947 -135.04034 -103.77718 -134.24674 -102.30335 C -135.83394 -100.60278 -137.87416 -99.752084 -140.36833 -99.752084 C -142.63576 -99.752084 -144.39327 -100.43233 -145.64036 -101.79279 C -146.88745 -103.15324 -147.51105 -104.91076 -147.51105 -107.06482 C -147.51105 -109.8991 -146.54706 -112.25164 -144.61975 -114.12227 C -142.63575 -116.04958 -140.19851 -117.46671 -137.30753 -118.37369 C -134.35988 -119.28066 -131.46897 -119.73381 -128.63468 -119.73381 z M -93.347944 -101.28274 C -91.363943 -101.28274 -89.890166 -100.68772 -88.926508 -99.497319 C -87.906165 -98.363604 -87.395852 -96.776539 -87.395852 -94.735852 C -87.395852 -92.695166 -87.906165 -91.107584 -88.926508 -89.973869 C -89.890166 -88.840154 -91.363943 -88.273198 -93.347944 -88.273198 C -95.331945 -88.273198 -96.833785 -88.840154 -97.854129 -89.973869 C -98.817786 -91.16427 -99.300035 -92.751852 -99.300035 -94.735852 C -99.300035 -96.833225 -98.817786 -98.448354 -97.854129 -99.582068 C -96.833785 -100.71578 -95.331945 -101.28274 -93.347944 -101.28274 z M -12.40043 -89.293807 C -14.781231 -89.293807 -17.360341 -88.330343 -20.137942 -86.403028 L -20.137942 -85.297669 C -20.137942 -79.118924 -19.457698 -74.583787 -18.09724 -71.692814 C -16.736782 -68.801842 -14.58276 -67.356645 -11.635102 -67.356645 C -9.1976154 -67.356645 -7.3273302 -68.291529 -6.0235582 -70.162159 C -4.7197863 -72.032788 -4.0676053 -74.697123 -4.0676053 -78.154952 C -4.0676053 -81.669468 -4.8044939 -84.390447 -6.2783231 -86.317762 C -7.6954664 -88.301762 -9.7362004 -89.293807 -12.40043 -89.293807 z M -93.347944 -74.498845 C -91.363943 -74.498845 -89.890166 -73.903824 -88.926508 -72.713424 C -87.906165 -71.579709 -87.395852 -69.992127 -87.395852 -67.951441 C -87.395852 -65.910754 -87.906165 -64.323689 -88.926508 -63.189974 C -89.890166 -62.05626 -91.363943 -61.489303 -93.347944 -61.489303 C -95.331945 -61.489303 -96.833785 -62.05626 -97.854129 -63.189974 C -98.817786 -64.380375 -99.300035 -65.96744 -99.300035 -67.951441 C -99.300035 -70.048813 -98.817786 -71.664459 -97.854129 -72.798173 C -96.833785 -73.931888 -95.331945 -74.498845 -93.347944 -74.498845 z " /></g></svg>
