<?xml version="1.0" encoding="UTF-8" standalone="no"?>
<!-- Created with Inkscape (http://www.inkscape.org/) -->

<svg
   width="172.6701mm"
   height="172.6701mm"
   viewBox="0 0 172.6701 172.6701"
   version="1.1"
   id="svg1"
   xml:space="preserve"
   xmlns="http://www.w3.org/2000/svg"
   xmlns:svg="http://www.w3.org/2000/svg"><defs
     id="defs1" /><g
     id="layer1"
     transform="translate(157.25102,198.81012)"><path
       id="path5"
       style="fill:#ffffff;fill-opacity:1;stroke-width:0.805188;stroke-linecap:round;stroke-linejoin:round"
       d="M -2.0863309 -198.17657 L -10.088943 -183.11289 L -10.930235 -165.68398 L -19.198981 -165.68398 L -11.423229 -155.47426 L -12.166336 -140.07934 C -28.353216 -157.12094 -50.823548 -166.77435 -74.327399 -166.78417 C -103.64471 -166.77397 -130.92652 -151.79225 -146.66717 -127.05894 L -157.25102 -127.05894 L -149.61996 -115.86014 L -157.25102 -26.140039 L -8.5138455 -26.140039 L 15.419061 -26.140039 L 8.0799737 -154.80195 L 15.419061 -165.68398 L 7.4593397 -165.68398 L 6.4490654 -183.39297 L -2.0863309 -198.17657 z M -83.43072 -192.21621 C -85.584619 -189.65499 -86.77489 -186.4211 -86.795372 -183.07465 C -86.842092 -175.15518 -80.459903 -168.69733 -72.540428 -168.65072 C -64.621155 -168.60402 -58.163395 -174.98588 -58.116503 -182.90515 C -58.102813 -186.26049 -59.266203 -189.5144 -61.404157 -192.10045 C -60.83125 -190.6836 -60.536835 -189.16959 -60.537027 -187.64129 C -60.575787 -181.07411 -65.930869 -175.78172 -72.498054 -175.82031 C -79.065241 -175.85911 -84.357627 -181.21415 -84.319038 -187.78134 C -84.309338 -189.30285 -84.007827 -190.80837 -83.43072 -192.21621 z M -14.781163 -119.73381 C -11.09659 -119.73381 -7.8372355 -119.11073 -5.0029487 -117.86364 C -2.168662 -116.67324 0.042004028 -114.97237 1.6292046 -112.76163 C 3.2164052 -110.60757 4.0099378 -108.11368 4.0099378 -105.27939 C 4.0099378 -102.10499 3.0745368 -99.384015 1.2039076 -97.116586 C -0.66672169 -94.849156 -3.4443444 -93.120223 -7.1289171 -91.929822 C -2.4806869 -90.909479 0.77918489 -89.237189 2.6498141 -86.913074 C 4.5204434 -84.588959 5.4553277 -81.442892 5.4553277 -77.474891 C 5.4553277 -74.017061 4.4066387 -71.069506 2.3092665 -68.632019 C 0.26858 -66.194533 -2.3952379 -64.380375 -5.6830106 -63.189974 C -8.9707832 -61.999574 -12.372007 -61.404554 -15.886522 -61.404554 C -20.988238 -61.404554 -25.324863 -62.453243 -28.896064 -64.550615 C -32.41058 -66.647987 -34.167577 -69.510317 -34.167577 -73.138204 C -34.167577 -75.235577 -33.543976 -76.851222 -32.29689 -77.984937 C -31.049804 -79.175337 -29.491319 -79.770358 -27.62069 -79.770358 C -25.693375 -79.770358 -23.737348 -79.005405 -21.753347 -77.474891 C -22.263519 -76.397862 -22.518675 -75.094016 -22.518675 -73.563501 C -22.518675 -71.749558 -21.980299 -70.275781 -20.90327 -69.142066 C -19.769555 -68.008351 -18.097266 -67.441394 -15.886522 -67.441394 C -11.011549 -67.441394 -8.5743069 -70.814037 -8.5743069 -77.55964 C -8.5743069 -81.244213 -9.7643475 -84.10706 -12.145148 -86.147746 C -14.469264 -88.188433 -17.785779 -89.208541 -22.093895 -89.208541 L -22.093895 -94.480571 C -13.761092 -95.1608 -9.5943997 -98.760535 -9.5943997 -105.27939 C -9.5943997 -108.56717 -10.104712 -110.97583 -11.125056 -112.50634 C -12.145399 -114.09354 -13.533952 -114.88759 -15.29121 -114.88759 C -17.388582 -114.88759 -18.976164 -114.15071 -20.053193 -112.67688 C -21.073536 -111.20305 -21.583332 -109.41747 -21.583332 -107.3201 C -21.583332 -105.44947 -21.186824 -103.77718 -20.393224 -102.30335 C -21.980424 -100.60278 -24.021158 -99.752084 -26.515331 -99.752084 C -28.78276 -99.752084 -30.539757 -100.43233 -31.786844 -101.79279 C -33.03393 -103.15324 -33.65753 -104.91076 -33.65753 -107.06482 C -33.65753 -109.8991 -32.694066 -112.25164 -30.766751 -114.12227 C -28.78275 -116.04958 -26.344991 -117.46671 -23.454019 -118.37369 C -20.506361 -119.28066 -17.61545 -119.73381 -14.781163 -119.73381 z M -57.975943 -119.64906 C -51.343712 -119.64906 -46.270199 -117.15466 -42.755683 -112.16631 C -39.184482 -107.23465 -37.398904 -100.06428 -37.398904 -90.654448 C -37.398904 -81.244616 -39.184482 -74.017081 -42.755683 -68.97205 C -46.270199 -63.983706 -51.343712 -61.489303 -57.975943 -61.489303 C -64.608174 -61.489303 -69.70975 -63.983706 -73.280952 -68.97205 C -76.852153 -74.017081 -78.637731 -81.244616 -78.637731 -90.654448 C -78.637731 -100.00759 -76.852153 -107.17797 -73.280952 -112.16631 C -69.70975 -117.15466 -64.608174 -119.64906 -57.975943 -119.64906 z M -144.1097 -118.88373 L -139.94355 -118.88373 C -137.78949 -118.82705 -133.08442 -118.79847 -125.82865 -118.79847 C -118.28945 -118.79847 -113.38638 -118.82705 -111.11895 -118.88373 L -107.03755 -118.88373 L -105.33688 -115.22762 C -106.41391 -113.52705 -108.45464 -109.84261 -111.45898 -104.17404 C -114.46333 -98.505463 -117.29759 -92.496548 -119.96182 -86.147746 C -122.62605 -79.798944 -123.95796 -74.838719 -123.95796 -71.267517 C -123.95796 -68.433231 -122.96592 -66.307789 -120.98192 -64.890646 C -122.90923 -62.566531 -125.37505 -61.404554 -128.3794 -61.404554 C -131.157 -61.404554 -133.31102 -62.169506 -134.84154 -63.700021 C -136.37205 -65.230536 -137.13752 -67.356494 -137.13752 -70.077409 C -137.13752 -73.478553 -136.31541 -77.077772 -134.67152 -80.875717 C -133.02763 -84.730347 -130.08008 -89.945728 -125.82865 -96.521273 L -115.79515 -111.9963 L -135.18208 -111.9963 C -135.97568 -109.44544 -136.45742 -106.44124 -136.62747 -102.98341 C -137.64782 -102.81335 -138.6965 -102.72813 -139.77353 -102.72813 C -140.90725 -102.72813 -142.01258 -102.81335 -143.08961 -102.98341 L -145.47034 -117.60836 L -144.1097 -118.88373 z M -57.975943 -115.31237 C -60.866915 -115.31237 -62.964293 -113.41351 -64.268065 -109.61556 C -65.515151 -105.81762 -66.138752 -99.497422 -66.138752 -90.654448 C -66.138752 -81.868159 -65.515151 -75.576025 -64.268065 -71.778081 C -62.964293 -68.036822 -60.866915 -66.16602 -57.975943 -66.16602 C -55.08497 -66.16602 -53.015656 -68.036822 -51.76857 -71.778081 C -50.464798 -75.576025 -49.813133 -81.868159 -49.813133 -90.654448 C -49.813133 -99.440737 -50.464798 -105.73287 -51.76857 -109.53081 C -53.015656 -113.38544 -55.08497 -115.31237 -57.975943 -115.31237 z M -91.817288 -101.28274 C -89.833287 -101.28274 -88.35951 -100.68772 -87.395852 -99.497319 C -86.375509 -98.363604 -85.865196 -96.776539 -85.865196 -94.735852 C -85.865196 -92.695166 -86.375509 -91.107584 -87.395852 -89.973869 C -88.35951 -88.840154 -89.833287 -88.273198 -91.817288 -88.273198 C -93.801289 -88.273198 -95.303646 -88.840154 -96.32399 -89.973869 C -97.287647 -91.16427 -97.769379 -92.751852 -97.769379 -94.735852 C -97.769379 -96.833225 -97.287647 -98.448354 -96.32399 -99.582068 C -95.303646 -100.71578 -93.801289 -101.28274 -91.817288 -101.28274 z M -91.817288 -74.498845 C -89.833287 -74.498845 -88.35951 -73.903824 -87.395852 -72.713424 C -86.375509 -71.579709 -85.865196 -69.992127 -85.865196 -67.951441 C -85.865196 -65.910754 -86.375509 -64.323689 -87.395852 -63.189974 C -88.35951 -62.05626 -89.833287 -61.489303 -91.817288 -61.489303 C -93.801289 -61.489303 -95.303646 -62.05626 -96.32399 -63.189974 C -97.287647 -64.380375 -97.769379 -65.96744 -97.769379 -67.951441 C -97.769379 -70.048813 -97.287647 -71.664459 -96.32399 -72.798173 C -95.303646 -73.931888 -93.801289 -74.498845 -91.817288 -74.498845 z " /></g></svg>
