<?xml version="1.0" encoding="UTF-8" standalone="no"?>
<!-- Created with Inkscape (http://www.inkscape.org/) -->

<svg
   width="172.6701mm"
   height="172.6701mm"
   viewBox="0 0 172.6701 172.6701"
   version="1.1"
   id="svg1"
   xml:space="preserve"
   xmlns="http://www.w3.org/2000/svg"
   xmlns:svg="http://www.w3.org/2000/svg"><defs
     id="defs1" /><g
     id="layer1"
     transform="translate(157.25102,198.81012)"><path
       id="path5"
       style="fill:#ffffff;fill-opacity:1;stroke-width:0.805188;stroke-linecap:round;stroke-linejoin:round"
       d="M -2.0863309 -198.17657 L -10.088943 -183.11289 L -10.930235 -165.68398 L -19.198981 -165.68398 L -11.423229 -155.47426 L -12.166336 -140.07934 C -28.353216 -157.12094 -50.823548 -166.77435 -74.327399 -166.78417 C -103.64471 -166.77397 -130.92652 -151.79225 -146.66717 -127.05894 L -157.25102 -127.05894 L -149.61996 -115.86014 L -157.25102 -26.140039 L -8.5138455 -26.140039 L 15.419061 -26.140039 L 8.0799737 -154.80195 L 15.419061 -165.68398 L 7.4593397 -165.68398 L 6.4490654 -183.39297 L -2.0863309 -198.17657 z M -83.43072 -192.21621 C -85.584619 -189.65499 -86.77489 -186.4211 -86.795372 -183.07465 C -86.842092 -175.15518 -80.459903 -168.69733 -72.540428 -168.65072 C -64.621155 -168.60402 -58.163395 -174.98588 -58.116503 -182.90515 C -58.102813 -186.26049 -59.266203 -189.5144 -61.404157 -192.10045 C -60.83125 -190.6836 -60.536835 -189.16959 -60.537027 -187.64129 C -60.575787 -181.07411 -65.930869 -175.78172 -72.498054 -175.82031 C -79.065241 -175.85911 -84.357627 -181.21415 -84.319038 -187.78134 C -84.309338 -189.30285 -84.007827 -190.80837 -83.43072 -192.21621 z M -57.338256 -119.64906 C -50.706025 -119.64906 -45.632511 -117.15466 -42.117996 -112.16631 C -38.546795 -107.23465 -36.761217 -100.06428 -36.761217 -90.654448 C -36.761217 -81.244616 -38.546795 -74.017081 -42.117996 -68.97205 C -45.632511 -63.983706 -50.706025 -61.489303 -57.338256 -61.489303 C -63.970487 -61.489303 -69.072063 -63.983706 -72.643264 -68.97205 C -76.214466 -74.017081 -78.000043 -81.244616 -78.000043 -90.654448 C -78.000043 -100.00759 -76.214466 -107.17797 -72.643264 -112.16631 C -69.072063 -117.15466 -63.970487 -119.64906 -57.338256 -119.64906 z M -12.018024 -119.64906 C -5.3857934 -119.64906 -0.31228037 -117.15466 3.2022352 -112.16631 C 6.7734365 -107.23465 8.5590142 -100.06428 8.5590142 -90.654448 C 8.5590142 -81.244616 6.7734365 -74.017081 3.2022352 -68.97205 C -0.31228037 -63.983706 -5.3857934 -61.489303 -12.018024 -61.489303 C -18.650255 -61.489303 -23.751832 -63.983706 -27.323033 -68.97205 C -30.894235 -74.017081 -32.679812 -81.244616 -32.679812 -90.654448 C -32.679812 -100.00759 -30.894235 -107.17797 -27.323033 -112.16631 C -23.751832 -117.15466 -18.650255 -119.64906 -12.018024 -119.64906 z M -126.9769 -119.56379 C -120.2313 -119.56379 -115.07256 -117.69351 -111.50136 -113.95225 C -107.87347 -110.21099 -106.05983 -104.7971 -106.05983 -97.711381 C -106.05983 -88.811721 -108.83745 -81.216258 -114.39265 -74.924142 C -119.89117 -68.688711 -127.88366 -64.09693 -138.37052 -61.149272 L -140.41122 -65.400692 C -134.74265 -67.838179 -130.17945 -70.956182 -126.72162 -74.754126 C -123.26379 -78.608756 -120.9679 -83.086732 -119.83418 -88.188448 C -123.00858 -86.601248 -126.09801 -85.807715 -129.10235 -85.807715 C -134.77092 -85.807715 -139.2489 -87.338137 -142.53667 -90.399166 C -145.76776 -93.460196 -147.38341 -97.598308 -147.38341 -102.8134 C -147.38341 -106.04448 -146.53323 -108.93539 -144.83266 -111.48625 C -143.0754 -114.03711 -140.66622 -116.0212 -137.60519 -117.43834 C -134.48748 -118.85549 -130.9449 -119.56379 -126.9769 -119.56379 z M -57.338256 -115.31237 C -60.229228 -115.31237 -62.326606 -113.41351 -63.630378 -109.61556 C -64.877464 -105.81762 -65.501065 -99.497422 -65.501065 -90.654448 C -65.501065 -81.868159 -64.877464 -75.576025 -63.630378 -71.778081 C -62.326606 -68.036822 -60.229228 -66.16602 -57.338256 -66.16602 C -54.447283 -66.16602 -52.377969 -68.036822 -51.130882 -71.778081 C -49.827111 -75.576025 -49.175446 -81.868159 -49.175446 -90.654448 C -49.175446 -99.440737 -49.827111 -105.73287 -51.130882 -109.53081 C -52.377969 -113.38544 -54.447283 -115.31237 -57.338256 -115.31237 z M -12.018024 -115.31237 C -14.908997 -115.31237 -17.006375 -113.41351 -18.310147 -109.61556 C -19.557233 -105.81762 -20.180834 -99.497422 -20.180834 -90.654448 C -20.180834 -81.868159 -19.557233 -75.576025 -18.310147 -71.778081 C -17.006375 -68.036822 -14.908997 -66.16602 -12.018024 -66.16602 C -9.1270519 -66.16602 -7.0577375 -68.036822 -5.8106513 -71.778081 C -4.5068794 -75.576025 -3.8552151 -81.868159 -3.8552151 -90.654448 C -3.8552151 -99.440737 -4.5068794 -105.73287 -5.8106513 -109.53081 C -7.0577375 -113.38544 -9.1270519 -115.31237 -12.018024 -115.31237 z M -127.48695 -113.69697 C -129.92443 -113.69697 -131.79523 -112.76157 -133.09901 -110.89094 C -134.40278 -109.02031 -135.05444 -106.35597 -135.05444 -102.89814 C -135.05444 -99.383629 -134.34562 -96.634587 -132.92847 -94.650586 C -131.45464 -92.723271 -129.38585 -91.759807 -126.72162 -91.759807 C -124.3975 -91.759807 -121.81839 -92.723271 -118.98411 -94.650586 L -118.98411 -95.755945 C -118.98411 -101.93469 -119.66435 -106.46931 -121.02481 -109.36028 C -122.38527 -112.25126 -124.53929 -113.69697 -127.48695 -113.69697 z M -91.179601 -101.28274 C -89.1956 -101.28274 -87.721823 -100.68772 -86.758165 -99.497319 C -85.737822 -98.363604 -85.227509 -96.776539 -85.227509 -94.735852 C -85.227509 -92.695166 -85.737822 -91.107584 -86.758165 -89.973869 C -87.721823 -88.840154 -89.1956 -88.273198 -91.179601 -88.273198 C -93.163601 -88.273198 -94.665959 -88.840154 -95.686302 -89.973869 C -96.64996 -91.16427 -97.131692 -92.751852 -97.131692 -94.735852 C -97.131692 -96.833225 -96.64996 -98.448354 -95.686302 -99.582068 C -94.665959 -100.71578 -93.163601 -101.28274 -91.179601 -101.28274 z M -91.179601 -74.498845 C -89.1956 -74.498845 -87.721823 -73.903824 -86.758165 -72.713424 C -85.737822 -71.579709 -85.227509 -69.992127 -85.227509 -67.951441 C -85.227509 -65.910754 -85.737822 -64.323689 -86.758165 -63.189974 C -87.721823 -62.05626 -89.1956 -61.489303 -91.179601 -61.489303 C -93.163601 -61.489303 -94.665959 -62.05626 -95.686302 -63.189974 C -96.64996 -64.380375 -97.131692 -65.96744 -97.131692 -67.951441 C -97.131692 -70.048813 -96.64996 -71.664459 -95.686302 -72.798173 C -94.665959 -73.931888 -93.163601 -74.498845 -91.179601 -74.498845 z " /></g></svg>
