<?xml version="1.0" encoding="UTF-8" standalone="no"?>
<!-- Created with Inkscape (http://www.inkscape.org/) -->

<svg
   width="172.6701mm"
   height="172.6701mm"
   viewBox="0 0 172.6701 172.6701"
   version="1.1"
   id="svg1"
   xml:space="preserve"
   xmlns="http://www.w3.org/2000/svg"
   xmlns:svg="http://www.w3.org/2000/svg"><defs
     id="defs1" /><g
     id="layer1"
     transform="translate(157.25102,198.81012)"><path
       id="path5"
       style="fill:#ffffff;fill-opacity:1;stroke-width:0.805188;stroke-linecap:round;stroke-linejoin:round"
       d="M -2.0863309 -198.17657 L -10.088943 -183.11289 L -10.930235 -165.68398 L -19.198981 -165.68398 L -11.423229 -155.47426 L -12.166336 -140.07934 C -28.353216 -157.12094 -50.823548 -166.77435 -74.327399 -166.78417 C -103.64471 -166.77397 -130.92652 -151.79225 -146.66717 -127.05894 L -157.25102 -127.05894 L -149.61996 -115.86014 L -157.25102 -26.140039 L -8.5138455 -26.140039 L 15.419061 -26.140039 L 8.0799737 -154.80195 L 15.419061 -165.68398 L 7.4593397 -165.68398 L 6.4490654 -183.39297 L -2.0863309 -198.17657 z M -83.43072 -192.21621 C -85.584619 -189.65499 -86.77489 -186.4211 -86.795372 -183.07465 C -86.842092 -175.15518 -80.459903 -168.69733 -72.540428 -168.65072 C -64.621155 -168.60402 -58.163395 -174.98588 -58.116503 -182.90515 C -58.102813 -186.26049 -59.266203 -189.5144 -61.404157 -192.10045 C -60.83125 -190.6836 -60.536835 -189.16959 -60.537027 -187.64129 C -60.575787 -181.07411 -65.930869 -175.78172 -72.498054 -175.82031 C -79.065241 -175.85911 -84.357627 -181.21415 -84.319038 -187.78134 C -84.309338 -189.30285 -84.007827 -190.80837 -83.43072 -192.21621 z M -16.65185 -119.81908 C -10.699848 -119.81908 -5.9667156 -118.54381 -2.4522 -115.99295 C 1.0623156 -113.44209 2.8198296 -110.01229 2.8198296 -105.70418 C 2.8198296 -103.38006 1.9691362 -101.05611 0.26856415 -98.731991 C -1.4320079 -96.407876 -3.6707375 -94.50901 -6.4483385 -93.035181 C -2.9338229 -91.334609 -0.18478066 -89.350519 1.7992201 -87.08309 C 3.8399065 -84.81566 4.8605319 -81.896169 4.8605319 -78.324968 C 4.8605319 -73.166566 2.9897299 -69.057034 -0.75152863 -65.996005 C -4.4927871 -62.991661 -9.5377198 -61.489303 -15.886522 -61.489303 C -22.858868 -61.489303 -28.244181 -62.878373 -32.042125 -65.655974 C -35.783384 -68.433575 -37.654186 -72.401238 -37.654186 -77.55964 C -37.654186 -80.223869 -36.803492 -82.86014 -35.10292 -85.467684 C -33.402348 -88.131914 -31.02175 -90.483931 -27.960721 -92.524618 C -30.511579 -93.941761 -32.495669 -95.642631 -33.912812 -97.626632 C -35.329955 -99.610633 -36.038264 -102.07646 -36.038264 -105.02411 C -36.038264 -109.55897 -34.281266 -113.15871 -30.766751 -115.82294 C -27.252235 -118.48717 -22.547167 -119.81908 -16.65185 -119.81908 z M -62.227363 -119.73381 C -56.388732 -119.73381 -51.740307 -118.28861 -48.282478 -115.39764 C -44.824648 -112.56335 -43.095714 -108.56711 -43.095714 -103.40871 C -43.095714 -98.873849 -44.824648 -94.026912 -48.282478 -88.86851 C -51.740307 -83.766794 -57.437421 -77.616529 -65.373424 -70.41744 L -42.500402 -70.41744 L -42.500402 -62.084615 L -81.018464 -62.084615 L -81.018464 -67.016097 C -74.726347 -73.081471 -69.823283 -78.268272 -66.308767 -82.576388 C -62.794252 -86.884504 -60.271785 -90.852684 -58.741271 -94.480571 C -57.15407 -98.108458 -56.360021 -101.84955 -56.360021 -105.70418 C -56.360021 -111.82623 -58.400755 -114.88759 -62.482128 -114.88759 C -64.296071 -114.88759 -65.769848 -114.0369 -66.903563 -112.33633 C -68.037278 -110.69244 -68.604235 -108.65171 -68.604235 -106.21422 C -68.604235 -104.51365 -68.009214 -102.89852 -66.818814 -101.36801 C -67.782471 -100.46103 -68.887804 -99.752209 -70.13489 -99.242037 C -71.325291 -98.731866 -72.515848 -98.476709 -73.706249 -98.476709 C -75.746935 -98.476709 -77.447288 -99.10031 -78.807746 -100.3474 C -80.168204 -101.65117 -80.848448 -103.52197 -80.848448 -105.95946 C -80.848448 -108.567 -80.083496 -110.91953 -78.552981 -113.01691 C -77.022466 -115.11428 -74.867928 -116.75799 -72.090327 -117.94839 C -69.25604 -119.13879 -65.968621 -119.73381 -62.227363 -119.73381 z M -122.42731 -119.13901 L -119.62179 -117.86364 L -119.62179 -68.716769 C -118.54476 -68.093226 -116.84389 -67.526269 -114.51978 -67.016097 C -112.19566 -66.562611 -110.35344 -66.279392 -108.99298 -66.16602 L -109.24827 -62.084615 L -143.93969 -62.084615 L -143.76967 -66.16602 C -138.72464 -66.732877 -134.87027 -67.583054 -132.20604 -68.716769 L -132.20604 -109.44555 L -143.59966 -109.44555 L -143.59966 -114.37703 C -139.97177 -114.66046 -136.23068 -115.19935 -132.37605 -115.99295 C -128.52142 -116.84324 -125.20491 -117.89193 -122.42731 -119.13901 z M -16.65185 -113.78224 C -18.919279 -113.78224 -20.704857 -113.04535 -22.008629 -111.57152 C -23.312401 -110.15437 -23.964582 -108.22693 -23.964582 -105.78944 C -23.964582 -103.63538 -23.142469 -101.84981 -21.498583 -100.43266 C -19.798011 -99.072205 -17.332188 -97.711715 -14.101101 -96.351258 C -12.683958 -97.314915 -11.550045 -98.646824 -10.699759 -100.3474 C -9.8494726 -102.04797 -9.4243843 -103.86213 -9.4243843 -105.78944 C -9.4243843 -108.22693 -10.104629 -110.15437 -11.465087 -111.57152 C -12.768858 -113.04535 -14.497792 -113.78224 -16.65185 -113.78224 z M -94.283287 -101.28274 C -92.299287 -101.28274 -90.824992 -100.68772 -89.861335 -99.497319 C -88.840992 -98.363604 -88.331196 -96.776539 -88.331196 -94.735852 C -88.331196 -92.695166 -88.840992 -91.107584 -89.861335 -89.973869 C -90.824992 -88.840154 -92.299287 -88.273198 -94.283287 -88.273198 C -96.267288 -88.273198 -97.769129 -88.840154 -98.789472 -89.973869 C -99.75313 -91.16427 -100.23486 -92.751852 -100.23486 -94.735852 C -100.23486 -96.833225 -99.75313 -98.448354 -98.789472 -99.582068 C -97.769129 -100.71578 -96.267288 -101.28274 -94.283287 -101.28274 z M -20.137942 -89.038526 C -21.838514 -87.678068 -23.085716 -86.119583 -23.879316 -84.362325 C -24.672916 -82.605068 -25.069941 -80.50769 -25.069941 -78.070203 C -25.069941 -74.725745 -24.247828 -72.089474 -22.603942 -70.162159 C -20.960055 -68.291529 -18.720809 -67.356645 -15.886522 -67.356645 C -13.108921 -67.356645 -10.954899 -68.291529 -9.4243843 -70.162159 C -7.8371837 -72.032788 -7.043651 -74.640479 -7.043651 -77.984937 C -7.043651 -79.855566 -7.6386713 -81.442631 -8.8290718 -82.746403 C -9.9627865 -84.106861 -11.4085 -85.212194 -13.165758 -86.06248 C -14.923016 -86.969452 -17.24697 -87.961497 -20.137942 -89.038526 z M -94.283287 -74.498845 C -92.299287 -74.498845 -90.824992 -73.903824 -89.861335 -72.713424 C -88.840992 -71.579709 -88.331196 -69.992127 -88.331196 -67.951441 C -88.331196 -65.910754 -88.840992 -64.323689 -89.861335 -63.189974 C -90.824992 -62.05626 -92.299287 -61.489303 -94.283287 -61.489303 C -96.267288 -61.489303 -97.769129 -62.05626 -98.789472 -63.189974 C -99.75313 -64.380375 -100.23486 -65.96744 -100.23486 -67.951441 C -100.23486 -70.048813 -99.75313 -71.664459 -98.789472 -72.798173 C -97.769129 -73.931888 -96.267288 -74.498845 -94.283287 -74.498845 z " /></g></svg>
