<?xml version="1.0" encoding="UTF-8" standalone="no"?>
<!-- Created with Inkscape (http://www.inkscape.org/) -->

<svg
   width="172.6701mm"
   height="172.6701mm"
   viewBox="0 0 172.6701 172.6701"
   version="1.1"
   id="svg1"
   xml:space="preserve"
   xmlns="http://www.w3.org/2000/svg"
   xmlns:svg="http://www.w3.org/2000/svg"><defs
     id="defs1" /><g
     id="layer1"
     transform="translate(157.25102,198.81012)"><path
       id="path5"
       style="fill:#ffffff;fill-opacity:1;stroke-width:0.805188;stroke-linecap:round;stroke-linejoin:round"
       d="M -2.0863309 -198.17657 L -10.088943 -183.11289 L -10.930235 -165.68398 L -19.198981 -165.68398 L -11.423229 -155.47426 L -12.166336 -140.07934 C -28.353216 -157.12094 -50.823548 -166.77435 -74.327399 -166.78417 C -103.64471 -166.77397 -130.92652 -151.79225 -146.66717 -127.05894 L -157.25102 -127.05894 L -149.61996 -115.86014 L -157.25102 -26.140039 L -8.5138455 -26.140039 L 15.419061 -26.140039 L 8.0799737 -154.80195 L 15.419061 -165.68398 L 7.4593397 -165.68398 L 6.4490654 -183.39297 L -2.0863309 -198.17657 z M -83.43072 -192.21621 C -85.584619 -189.65499 -86.77489 -186.4211 -86.795372 -183.07465 C -86.842092 -175.15518 -80.459903 -168.69733 -72.540428 -168.65072 C -64.621155 -168.60402 -58.163395 -174.98588 -58.116503 -182.90515 C -58.102813 -186.26049 -59.266203 -189.5144 -61.404157 -192.10045 C -60.83125 -190.6836 -60.536835 -189.16959 -60.537027 -187.64129 C -60.575787 -181.07411 -65.930869 -175.78172 -72.498054 -175.82031 C -79.065241 -175.85911 -84.357627 -181.21415 -84.319038 -187.78134 C -84.309338 -189.30285 -84.007827 -190.80837 -83.43072 -192.21621 z M -126.25395 -119.81908 C -120.30194 -119.81908 -115.56881 -118.54381 -112.0543 -115.99295 C -108.53978 -113.44209 -106.78227 -110.01229 -106.78227 -105.70418 C -106.78227 -103.38006 -107.63244 -101.05611 -109.33301 -98.731991 C -111.03359 -96.407876 -113.27283 -94.50901 -116.05043 -93.035181 C -112.53592 -91.334609 -109.78688 -89.350519 -107.80288 -87.08309 C -105.76219 -84.81566 -104.74156 -81.896169 -104.74156 -78.324968 C -104.74156 -73.166566 -106.61237 -69.057034 -110.35362 -65.996005 C -114.09488 -62.991661 -119.13982 -61.489303 -125.48862 -61.489303 C -132.46096 -61.489303 -137.84628 -62.878373 -141.64422 -65.655974 C -145.38548 -68.433575 -147.25576 -72.401238 -147.25576 -77.55964 C -147.25576 -80.223869 -146.40559 -82.86014 -144.70502 -85.467684 C -143.00444 -88.131914 -140.62385 -90.483931 -137.56282 -92.524618 C -140.11367 -93.941761 -142.09776 -95.642631 -143.51491 -97.626632 C -144.93205 -99.610633 -145.64036 -102.07646 -145.64036 -105.02411 C -145.64036 -109.55897 -143.88336 -113.15871 -140.36885 -115.82294 C -136.85433 -118.48717 -132.14926 -119.81908 -126.25395 -119.81908 z M -55.849974 -119.64906 C -49.217743 -119.64906 -44.144747 -117.15466 -40.630231 -112.16631 C -37.05903 -107.23465 -35.273452 -100.06428 -35.273452 -90.654448 C -35.273452 -81.244616 -37.05903 -74.017081 -40.630231 -68.97205 C -44.144747 -63.983706 -49.217743 -61.489303 -55.849974 -61.489303 C -62.482205 -61.489303 -67.584299 -63.983706 -71.1555 -68.97205 C -74.726701 -74.017081 -76.512279 -81.244616 -76.512279 -90.654448 C -76.512279 -100.00759 -74.726701 -107.17797 -71.1555 -112.16631 C -67.584299 -117.15466 -62.482205 -119.64906 -55.849974 -119.64906 z M -24.049331 -119.05375 L -19.797911 -118.969 C -13.789223 -118.85563 -10.615093 -118.79847 -10.274978 -118.79847 L 1.7992201 -118.969 L 4.2652194 -117.18306 L 3.4998915 -110.72092 L -17.587194 -110.72092 L -18.777819 -96.521273 C -15.83016 -97.258188 -13.165826 -97.626632 -10.785025 -97.626632 C -5.1731369 -97.626632 -0.60993662 -96.124274 2.904579 -93.11993 C 6.4757803 -90.172272 8.2613579 -85.836165 8.2613579 -80.110905 C 8.2613579 -76.539704 7.4111813 -73.336993 5.7106092 -70.502706 C 4.0667229 -67.66842 1.686125 -65.429173 -1.4315905 -63.785287 C -4.5493059 -62.198086 -8.234266 -61.404554 -12.485696 -61.404554 C -15.943526 -61.404554 -19.089593 -61.886286 -21.92388 -62.849943 C -24.701481 -63.813601 -26.883566 -65.14551 -28.470767 -66.846082 C -30.057967 -68.60334 -30.8515 -70.559366 -30.8515 -72.713424 C -30.8515 -74.980853 -30.227899 -76.709787 -28.980813 -77.900188 C -27.733727 -79.147274 -26.203306 -79.770358 -24.389362 -79.770358 C -23.369019 -79.770358 -22.34891 -79.572362 -21.328567 -79.175562 C -20.251538 -78.778762 -19.287557 -78.211805 -18.437271 -77.474891 C -18.947442 -76.28449 -19.202599 -75.037289 -19.202599 -73.733517 C -19.202599 -71.862888 -18.664222 -70.332466 -17.587194 -69.142066 C -16.453479 -67.951665 -14.753126 -67.356645 -12.485696 -67.356645 C -7.38398 -67.356645 -4.8329332 -71.608045 -4.8329332 -80.110905 C -4.8329332 -84.135593 -5.6264659 -87.054567 -7.2136665 -88.86851 C -8.8008671 -90.73914 -10.926825 -91.674541 -13.591055 -91.674541 C -15.234941 -91.674541 -16.991939 -91.36274 -18.862568 -90.739197 C -20.733197 -90.115654 -22.575419 -89.236897 -24.389362 -88.103182 L -29.066079 -92.609884 L -26.855362 -116.75776 L -24.049331 -119.05375 z M -55.849974 -115.31237 C -58.740947 -115.31237 -60.838325 -113.41351 -62.142097 -109.61556 C -63.389183 -105.81762 -64.012784 -99.497422 -64.012784 -90.654448 C -64.012784 -81.868159 -63.389183 -75.576025 -62.142097 -71.778081 C -60.838325 -68.036822 -58.740947 -66.16602 -55.849974 -66.16602 C -52.959002 -66.16602 -50.890204 -68.036822 -49.643118 -71.778081 C -48.339346 -75.576025 -47.687682 -81.868159 -47.687682 -90.654448 C -47.687682 -99.440737 -48.339346 -105.73287 -49.643118 -109.53081 C -50.890204 -113.38544 -52.959002 -115.31237 -55.849974 -115.31237 z M -126.25395 -113.78224 C -128.52138 -113.78224 -130.30695 -113.04535 -131.61072 -111.57152 C -132.9145 -110.15437 -133.56616 -108.22693 -133.56616 -105.78944 C -133.56616 -103.63538 -132.74456 -101.84981 -131.10068 -100.43266 C -129.40011 -99.072205 -126.93428 -97.711715 -123.7032 -96.351258 C -122.28605 -97.314915 -121.15214 -98.646824 -120.30185 -100.3474 C -119.45157 -102.04797 -119.02648 -103.86213 -119.02648 -105.78944 C -119.02648 -108.22693 -119.70672 -110.15437 -121.06718 -111.57152 C -122.37095 -113.04535 -124.09989 -113.78224 -126.25395 -113.78224 z M -89.691836 -101.28274 C -87.707836 -101.28274 -86.233541 -100.68772 -85.269884 -99.497319 C -84.249541 -98.363604 -83.739745 -96.776539 -83.739745 -94.735852 C -83.739745 -92.695166 -84.249541 -91.107584 -85.269884 -89.973869 C -86.233541 -88.840154 -87.707836 -88.273198 -89.691836 -88.273198 C -91.675837 -88.273198 -93.177678 -88.840154 -94.198021 -89.973869 C -95.161679 -91.16427 -95.643411 -92.751852 -95.643411 -94.735852 C -95.643411 -96.833225 -95.161679 -98.448354 -94.198021 -99.582068 C -93.177678 -100.71578 -91.675837 -101.28274 -89.691836 -101.28274 z M -129.74004 -89.038526 C -131.44061 -87.678068 -132.68781 -86.119583 -133.48141 -84.362325 C -134.27501 -82.605068 -134.67152 -80.50769 -134.67152 -78.070203 C -134.67152 -74.725745 -133.84992 -72.089474 -132.20604 -70.162159 C -130.56215 -68.291529 -128.3229 -67.356645 -125.48862 -67.356645 C -122.71102 -67.356645 -120.55699 -68.291529 -119.02648 -70.162159 C -117.43928 -72.032788 -116.64575 -74.640479 -116.64575 -77.984937 C -116.64575 -79.855566 -117.24077 -81.442631 -118.43117 -82.746403 C -119.56488 -84.106861 -121.0106 -85.212194 -122.76785 -86.06248 C -124.52511 -86.969452 -126.84907 -87.961497 -129.74004 -89.038526 z M -89.691836 -74.498845 C -87.707836 -74.498845 -86.233541 -73.903824 -85.269884 -72.713424 C -84.249541 -71.579709 -83.739745 -69.992127 -83.739745 -67.951441 C -83.739745 -65.910754 -84.249541 -64.323689 -85.269884 -63.189974 C -86.233541 -62.05626 -87.707836 -61.489303 -89.691836 -61.489303 C -91.675837 -61.489303 -93.177678 -62.05626 -94.198021 -63.189974 C -95.161679 -64.380375 -95.643411 -65.96744 -95.643411 -67.951441 C -95.643411 -70.048813 -95.161679 -71.664459 -94.198021 -72.798173 C -93.177678 -73.931888 -91.675837 -74.498845 -89.691836 -74.498845 z " /></g></svg>
