<?xml version="1.0" encoding="UTF-8" standalone="no"?>
<!-- Created with Inkscape (http://www.inkscape.org/) -->

<svg
   width="172.6701mm"
   height="172.6701mm"
   viewBox="0 0 172.6701 172.6701"
   version="1.1"
   id="svg1"
   xml:space="preserve"
   xmlns="http://www.w3.org/2000/svg"
   xmlns:svg="http://www.w3.org/2000/svg"><defs
     id="defs1" /><g
     id="layer1"
     transform="translate(157.25102,198.81012)"><path
       id="path5"
       style="fill:#ffffff;fill-opacity:1;stroke-width:0.805188;stroke-linecap:round;stroke-linejoin:round"
       d="M -2.0863309 -198.17657 L -10.088943 -183.11289 L -10.930235 -165.68398 L -19.198981 -165.68398 L -11.423229 -155.47426 L -12.166336 -140.07934 C -28.353216 -157.12094 -50.823548 -166.77435 -74.327399 -166.78417 C -103.64471 -166.77397 -130.92652 -151.79225 -146.66717 -127.05894 L -157.25102 -127.05894 L -149.61996 -115.86014 L -157.25102 -26.140039 L -8.5138455 -26.140039 L 15.419061 -26.140039 L 8.0799737 -154.80195 L 15.419061 -165.68398 L 7.4593397 -165.68398 L 6.4490654 -183.39297 L -2.0863309 -198.17657 z M -83.43072 -192.21621 C -85.584619 -189.65499 -86.77489 -186.4211 -86.795372 -183.07465 C -86.842092 -175.15518 -80.459903 -168.69733 -72.540428 -168.65072 C -64.621155 -168.60402 -58.163395 -174.98588 -58.116503 -182.90515 C -58.102813 -186.26049 -59.266203 -189.5144 -61.404157 -192.10045 C -60.83125 -190.6836 -60.536835 -189.16959 -60.537027 -187.64129 C -60.575787 -181.07411 -65.930869 -175.78172 -72.498054 -175.82031 C -79.065241 -175.85911 -84.357627 -181.21415 -84.319038 -187.78134 C -84.309338 -189.30285 -84.007827 -190.80837 -83.43072 -192.21621 z M -123.32027 -119.73381 C -119.6357 -119.73381 -116.37635 -119.11073 -113.54206 -117.86364 C -110.70777 -116.67324 -108.49711 -114.97237 -106.90991 -112.76163 C -105.32271 -110.60757 -104.52917 -108.11368 -104.52917 -105.27939 C -104.52917 -102.10499 -105.46406 -99.384015 -107.33469 -97.116586 C -109.20532 -94.849156 -111.98294 -93.120223 -115.66751 -91.929822 C -111.01928 -90.909479 -107.75993 -89.237189 -105.8893 -86.913074 C -104.01867 -84.588959 -103.08327 -81.442892 -103.08327 -77.474891 C -103.08327 -74.017061 -104.13196 -71.069506 -106.22933 -68.632019 C -108.27001 -66.194533 -110.93435 -64.380375 -114.22212 -63.189974 C -117.50989 -61.999574 -120.91112 -61.404554 -124.42563 -61.404554 C -129.52735 -61.404554 -133.86397 -62.453243 -137.43518 -64.550615 C -140.94969 -66.647987 -142.70669 -69.510317 -142.70669 -73.138204 C -142.70669 -75.235577 -142.08309 -76.851222 -140.836 -77.984937 C -139.58892 -79.175337 -138.03043 -79.770358 -136.1598 -79.770358 C -134.23249 -79.770358 -132.27646 -79.005405 -130.29246 -77.474891 C -130.80263 -76.397862 -131.05779 -75.094016 -131.05779 -73.563501 C -131.05779 -71.749558 -130.51941 -70.275781 -129.44238 -69.142066 C -128.30867 -68.008351 -126.63638 -67.441394 -124.42563 -67.441394 C -119.55066 -67.441394 -117.11342 -70.814037 -117.11342 -77.55964 C -117.11342 -81.244213 -118.30346 -84.10706 -120.68426 -86.147746 C -123.00837 -88.188433 -126.32489 -89.208541 -130.63301 -89.208541 L -130.63301 -94.480571 C -122.3002 -95.1608 -118.13351 -98.760535 -118.13351 -105.27939 C -118.13351 -108.56717 -118.64382 -110.97583 -119.66417 -112.50634 C -120.68451 -114.09354 -122.07306 -114.88759 -123.83032 -114.88759 C -125.92769 -114.88759 -127.51528 -114.15071 -128.5923 -112.67688 C -129.61265 -111.20305 -130.12244 -109.41747 -130.12244 -107.3201 C -130.12244 -105.44947 -129.72594 -103.77718 -128.93234 -102.30335 C -130.51954 -100.60278 -132.56027 -99.752084 -135.05444 -99.752084 C -137.32187 -99.752084 -139.07887 -100.43233 -140.32595 -101.79279 C -141.57304 -103.15324 -142.19664 -104.91076 -142.19664 -107.06482 C -142.19664 -109.8991 -141.23318 -112.25164 -139.30586 -114.12227 C -137.32186 -116.04958 -134.8841 -117.46671 -131.99313 -118.37369 C -129.04547 -119.28066 -126.15456 -119.73381 -123.32027 -119.73381 z M -17.374803 -119.73381 C -13.690231 -119.73381 -10.430876 -119.11073 -7.5965888 -117.86364 C -4.7623021 -116.67324 -2.5511193 -114.97237 -0.96391876 -112.76163 C 0.62328182 -110.60757 1.4168145 -108.11368 1.4168145 -105.27939 C 1.4168145 -102.10499 0.48141346 -99.384015 -1.3892158 -97.116586 C -3.2598451 -94.849156 -6.0374677 -93.120223 -9.7220405 -91.929822 C -5.0738102 -90.909479 -1.8144552 -89.237189 0.05617401 -86.913074 C 1.9268033 -84.588959 2.8622043 -81.442892 2.8622043 -77.474891 C 2.8622043 -74.017061 1.8135153 -71.069506 -0.28385691 -68.632019 C -2.3245434 -66.194533 -4.9888781 -64.380375 -8.2766507 -63.189974 C -11.564423 -61.999574 -14.965647 -61.404554 -18.480162 -61.404554 C -23.581878 -61.404554 -27.917986 -62.453243 -31.489187 -64.550615 C -35.003703 -66.647987 -36.761217 -69.510317 -36.761217 -73.138204 C -36.761217 -75.235577 -36.137616 -76.851222 -34.89053 -77.984937 C -33.643444 -79.175337 -32.084442 -79.770358 -30.213813 -79.770358 C -28.286498 -79.770358 -26.330988 -79.005405 -24.346988 -77.474891 C -24.857159 -76.397862 -25.112316 -75.094016 -25.112316 -73.563501 C -25.112316 -71.749558 -24.573939 -70.275781 -23.49691 -69.142066 C -22.363196 -68.008351 -20.690906 -67.441394 -18.480162 -67.441394 C -13.605189 -67.441394 -11.16743 -70.814037 -11.16743 -77.55964 C -11.16743 -81.244213 -12.357988 -84.10706 -14.738789 -86.147746 C -17.062904 -88.188433 -20.378903 -89.208541 -24.687019 -89.208541 L -24.687019 -94.480571 C -16.354215 -95.1608 -12.18804 -98.760535 -12.18804 -105.27939 C -12.18804 -108.56717 -12.697836 -110.97583 -13.718179 -112.50634 C -14.738522 -114.09354 -16.127592 -114.88759 -17.88485 -114.88759 C -19.982222 -114.88759 -21.569287 -114.15071 -22.646316 -112.67688 C -23.666659 -111.20305 -24.176972 -109.41747 -24.176972 -107.3201 C -24.176972 -105.44947 -23.779947 -103.77718 -22.986347 -102.30335 C -24.573548 -100.60278 -26.614282 -99.752084 -29.108454 -99.752084 C -31.375883 -99.752084 -33.133398 -100.43233 -34.380484 -101.79279 C -35.62757 -103.15324 -36.251171 -104.91076 -36.251171 -107.06482 C -36.251171 -109.8991 -35.287189 -112.25164 -33.359874 -114.12227 C -31.375873 -116.04958 -28.938631 -117.46671 -26.047659 -118.37369 C -23.100001 -119.28066 -20.20909 -119.73381 -17.374803 -119.73381 z M -53.426866 -119.13901 L -50.620836 -117.86364 L -50.620836 -68.716769 C -49.543807 -68.093226 -47.843454 -67.526269 -45.519339 -67.016097 C -43.195224 -66.562611 -41.352485 -66.279392 -39.992027 -66.16602 L -40.247309 -62.084615 L -74.939248 -62.084615 L -74.769233 -66.16602 C -69.724202 -66.732877 -65.86931 -67.583054 -63.205081 -68.716769 L -63.205081 -109.44555 L -74.598701 -109.44555 L -74.598701 -114.37703 C -70.970814 -114.66046 -67.229726 -115.19935 -63.375096 -115.99295 C -59.520466 -116.84324 -56.204467 -117.89193 -53.426866 -119.13901 z M -88.03354 -101.28274 C -86.049539 -101.28274 -84.575761 -100.68772 -83.612104 -99.497319 C -82.591761 -98.363604 -82.081448 -96.776539 -82.081448 -94.735852 C -82.081448 -92.695166 -82.591761 -91.107584 -83.612104 -89.973869 C -84.575761 -88.840154 -86.049539 -88.273198 -88.03354 -88.273198 C -90.01754 -88.273198 -91.519898 -88.840154 -92.540241 -89.973869 C -93.503899 -91.16427 -93.985631 -92.751852 -93.985631 -94.735852 C -93.985631 -96.833225 -93.503899 -98.448354 -92.540241 -99.582068 C -91.519898 -100.71578 -90.01754 -101.28274 -88.03354 -101.28274 z M -88.03354 -74.498845 C -86.049539 -74.498845 -84.575761 -73.903824 -83.612104 -72.713424 C -82.591761 -71.579709 -82.081448 -69.992127 -82.081448 -67.951441 C -82.081448 -65.910754 -82.591761 -64.323689 -83.612104 -63.189974 C -84.575761 -62.05626 -86.049539 -61.489303 -88.03354 -61.489303 C -90.01754 -61.489303 -91.519898 -62.05626 -92.540241 -63.189974 C -93.503899 -64.380375 -93.985631 -65.96744 -93.985631 -67.951441 C -93.985631 -70.048813 -93.503899 -71.664459 -92.540241 -72.798173 C -91.519898 -73.931888 -90.01754 -74.498845 -88.03354 -74.498845 z " /></g></svg>
