<?xml version="1.0" encoding="UTF-8" standalone="no"?>
<!-- Created with Inkscape (http://www.inkscape.org/) -->

<svg
   width="172.6701mm"
   height="172.6701mm"
   viewBox="0 0 172.6701 172.6701"
   version="1.1"
   id="svg1"
   xml:space="preserve"
   xmlns="http://www.w3.org/2000/svg"
   xmlns:svg="http://www.w3.org/2000/svg"><defs
     id="defs1" /><g
     id="layer1"
     transform="translate(157.25102,198.81012)"><path
       id="path5"
       style="fill:#ffffff;fill-opacity:1;stroke-width:0.805188;stroke-linecap:round;stroke-linejoin:round"
       d="M -2.0863309 -198.17657 L -10.088943 -183.11289 L -10.930235 -165.68398 L -19.198981 -165.68398 L -11.423229 -155.47426 L -12.166336 -140.07934 C -28.353216 -157.12094 -50.823548 -166.77435 -74.327399 -166.78417 C -103.64471 -166.77397 -130.92652 -151.79225 -146.66717 -127.05894 L -157.25102 -127.05894 L -149.61996 -115.86014 L -157.25102 -26.140039 L -8.5138455 -26.140039 L 15.419061 -26.140039 L 8.0799737 -154.80195 L 15.419061 -165.68398 L 7.4593397 -165.68398 L 6.4490654 -183.39297 L -2.0863309 -198.17657 z M -83.43072 -192.21621 C -85.584619 -189.65499 -86.77489 -186.4211 -86.795372 -183.07465 C -86.842092 -175.15518 -80.459903 -168.69733 -72.540428 -168.65072 C -64.621155 -168.60402 -58.163395 -174.98588 -58.116503 -182.90515 C -58.102813 -186.26049 -59.266203 -189.5144 -61.404157 -192.10045 C -60.83125 -190.6836 -60.536835 -189.16959 -60.537027 -187.64129 C -60.575787 -181.07411 -65.930869 -175.78172 -72.498054 -175.82031 C -79.065241 -175.85911 -84.357627 -181.21415 -84.319038 -187.78134 C -84.309338 -189.30285 -84.007827 -190.80837 -83.43072 -192.21621 z M -58.315974 -120.07436 C -53.781115 -119.84761 -50.096671 -118.85557 -47.262385 -117.09831 L -67.498876 -83.767013 L -54.489334 -83.767013 L -53.639256 -97.626632 C -51.825313 -97.626632 -50.521468 -97.995076 -49.727867 -98.731991 C -48.877581 -99.468905 -48.225917 -100.71611 -47.772431 -102.47336 L -42.925699 -102.47336 L -43.010965 -83.341716 C -40.856907 -82.718173 -38.135928 -82.066508 -34.848155 -81.38628 L -35.272936 -77.304875 L -43.435745 -77.304875 L -43.435745 -62.084615 L -54.489334 -62.084615 L -54.489334 -77.304875 L -79.063028 -77.304875 L -79.743089 -80.36567 L -58.315974 -120.07436 z M -138.66817 -119.05375 L -134.41675 -118.969 C -128.40807 -118.85563 -125.23342 -118.79847 -124.89331 -118.79847 L -112.81911 -118.969 L -110.35362 -117.18306 L -111.11895 -110.72092 L -132.20604 -110.72092 L -133.39615 -96.521273 C -130.44849 -97.258188 -127.78415 -97.626632 -125.40335 -97.626632 C -119.79146 -97.626632 -115.22826 -96.124274 -111.71375 -93.11993 C -108.14255 -90.172272 -106.35697 -85.836165 -106.35697 -80.110905 C -106.35697 -76.539704 -107.20766 -73.336993 -108.90823 -70.502706 C -110.55212 -67.66842 -112.93272 -65.429173 -116.05043 -63.785287 C -119.16815 -62.198086 -122.85259 -61.404554 -127.10402 -61.404554 C -130.56185 -61.404554 -133.70792 -61.886286 -136.54221 -62.849943 C -139.31981 -63.813601 -141.50241 -65.14551 -143.08961 -66.846082 C -144.67681 -68.60334 -145.47034 -70.559366 -145.47034 -72.713424 C -145.47034 -74.980853 -144.84674 -76.709787 -143.59966 -77.900188 C -142.35257 -79.147274 -140.82215 -79.770358 -139.00821 -79.770358 C -137.98786 -79.770358 -136.96724 -79.572362 -135.94689 -79.175562 C -134.86987 -78.778762 -133.9064 -78.211805 -133.05611 -77.474891 C -133.56629 -76.28449 -133.82144 -75.037289 -133.82144 -73.733517 C -133.82144 -71.862888 -133.28307 -70.332466 -132.20604 -69.142066 C -131.07232 -67.951665 -129.37145 -67.356645 -127.10402 -67.356645 C -122.00231 -67.356645 -119.45178 -71.608045 -119.45178 -80.110905 C -119.45178 -84.135593 -120.24531 -87.054567 -121.83251 -88.86851 C -123.41971 -90.73914 -125.54515 -91.674541 -128.20938 -91.674541 C -129.85327 -91.674541 -131.61078 -91.36274 -133.48141 -90.739197 C -135.35204 -90.115654 -137.19426 -89.236897 -139.00821 -88.103182 L -143.68492 -92.609884 L -141.47369 -116.75776 L -138.66817 -119.05375 z M -30.42672 -118.88373 L -26.260049 -118.88373 C -24.105991 -118.82705 -19.400923 -118.79847 -12.145148 -118.79847 C -4.6059457 -118.79847 0.29711863 -118.82705 2.564548 -118.88373 L 6.6459527 -118.88373 L 8.346624 -115.22762 C 7.2695951 -113.52705 5.2288611 -109.84261 2.2245171 -104.17404 C -0.77982685 -98.505463 -3.6140935 -92.496548 -6.2783231 -86.147746 C -8.9425526 -79.798944 -10.274978 -74.838719 -10.274978 -71.267517 C -10.274978 -68.433231 -9.2829333 -66.307789 -7.2989326 -64.890646 C -9.2262476 -62.566531 -11.69207 -61.404554 -14.696414 -61.404554 C -17.474015 -61.404554 -19.628037 -62.169506 -21.158552 -63.700021 C -22.689067 -65.230536 -23.454019 -67.356494 -23.454019 -70.077409 C -23.454019 -73.478553 -22.632423 -77.077772 -20.988536 -80.875717 C -19.34465 -84.730347 -16.396579 -89.945728 -12.145148 -96.521273 L -2.1121691 -111.9963 L -21.498583 -111.9963 C -22.292183 -109.44544 -22.773915 -106.44124 -22.943972 -102.98341 C -23.964316 -102.81335 -25.013005 -102.72813 -26.090034 -102.72813 C -27.223748 -102.72813 -28.329081 -102.81335 -29.40611 -102.98341 L -31.786844 -117.60836 L -30.42672 -118.88373 z M -90.966694 -101.28274 C -88.982693 -101.28274 -87.508916 -100.68772 -86.545258 -99.497319 C -85.524915 -98.363604 -85.015119 -96.776539 -85.015119 -94.735852 C -85.015119 -92.695166 -85.524915 -91.107584 -86.545258 -89.973869 C -87.508916 -88.840154 -88.982693 -88.273198 -90.966694 -88.273198 C -92.950695 -88.273198 -94.453052 -88.840154 -95.473395 -89.973869 C -96.437053 -91.16427 -96.918785 -92.751852 -96.918785 -94.735852 C -96.918785 -96.833225 -96.437053 -98.448354 -95.473395 -99.582068 C -94.453052 -100.71578 -92.950695 -101.28274 -90.966694 -101.28274 z M -90.966694 -74.498845 C -88.982693 -74.498845 -87.508916 -73.903824 -86.545258 -72.713424 C -85.524915 -71.579709 -85.015119 -69.992127 -85.015119 -67.951441 C -85.015119 -65.910754 -85.524915 -64.323689 -86.545258 -63.189974 C -87.508916 -62.05626 -88.982693 -61.489303 -90.966694 -61.489303 C -92.950695 -61.489303 -94.453052 -62.05626 -95.473395 -63.189974 C -96.437053 -64.380375 -96.918785 -65.96744 -96.918785 -67.951441 C -96.918785 -70.048813 -96.437053 -71.664459 -95.473395 -72.798173 C -94.453052 -73.931888 -92.950695 -74.498845 -90.966694 -74.498845 z " /></g></svg>
