<?xml version="1.0" encoding="UTF-8" standalone="no"?>
<!-- Created with Inkscape (http://www.inkscape.org/) -->

<svg
   width="172.6701mm"
   height="172.6701mm"
   viewBox="0 0 172.6701 172.6701"
   version="1.1"
   id="svg1"
   xml:space="preserve"
   xmlns="http://www.w3.org/2000/svg"
   xmlns:svg="http://www.w3.org/2000/svg"><defs
     id="defs1" /><g
     id="layer1"
     transform="translate(157.25102,198.81012)"><path
       id="path5"
       style="fill:#ffffff;fill-opacity:1;stroke-width:0.805188;stroke-linecap:round;stroke-linejoin:round"
       d="M -2.0863309 -198.17657 L -10.088943 -183.11289 L -10.930235 -165.68398 L -19.198981 -165.68398 L -11.423229 -155.47426 L -12.166336 -140.07934 C -28.353216 -157.12094 -50.823548 -166.77435 -74.327399 -166.78417 C -103.64471 -166.77397 -130.92652 -151.79225 -146.66717 -127.05894 L -157.25102 -127.05894 L -149.61996 -115.86014 L -157.25102 -26.140039 L -8.5138455 -26.140039 L 15.419061 -26.140039 L 8.0799737 -154.80195 L 15.419061 -165.68398 L 7.4593397 -165.68398 L 6.4490654 -183.39297 L -2.0863309 -198.17657 z M -83.43072 -192.21621 C -85.584619 -189.65499 -86.77489 -186.4211 -86.795372 -183.07465 C -86.842092 -175.15518 -80.459903 -168.69733 -72.540428 -168.65072 C -64.621155 -168.60402 -58.163395 -174.98588 -58.116503 -182.90515 C -58.102813 -186.26049 -59.266203 -189.5144 -61.404157 -192.10045 C -60.83125 -190.6836 -60.536835 -189.16959 -60.537027 -187.64129 C -60.575787 -181.07411 -65.930869 -175.78172 -72.498054 -175.82031 C -79.065241 -175.85911 -84.357627 -181.21415 -84.319038 -187.78134 C -84.309338 -189.30285 -84.007827 -190.80837 -83.43072 -192.21621 z M -17.374803 -119.56379 C -10.629201 -119.56379 -5.4704635 -117.69351 -1.8992622 -113.95225 C 1.7286249 -110.21099 3.5422661 -104.7971 3.5422661 -97.711381 C 3.5422661 -88.811721 0.76464346 -81.216258 -4.7905586 -74.924142 C -10.289075 -68.688711 -18.281562 -64.09693 -28.768423 -61.149272 L -30.809125 -65.400692 C -25.140552 -67.838179 -20.577352 -70.956182 -17.119522 -74.754126 C -13.661692 -78.608756 -11.365802 -83.086732 -10.232087 -88.188448 C -13.406488 -86.601248 -16.495911 -85.807715 -19.500255 -85.807715 C -25.168829 -85.807715 -29.647321 -87.338137 -32.935094 -90.399166 C -36.166181 -93.460196 -37.78131 -97.598308 -37.78131 -102.8134 C -37.78131 -106.04448 -36.931133 -108.93539 -35.230561 -111.48625 C -33.473303 -114.03711 -31.064125 -116.0212 -28.003095 -117.43834 C -24.88538 -118.85549 -21.342805 -119.56379 -17.374803 -119.56379 z M -55.127538 -119.13901 L -52.321507 -117.86364 L -52.321507 -68.716769 C -51.244479 -68.093226 -49.544125 -67.526269 -47.22001 -67.016097 C -44.895895 -66.562611 -43.053157 -66.279392 -41.692699 -66.16602 L -41.94798 -62.084615 L -76.639403 -62.084615 L -76.469388 -66.16602 C -71.424357 -66.732877 -67.569982 -67.583054 -64.905752 -68.716769 L -64.905752 -109.44555 L -76.299372 -109.44555 L -76.299372 -114.37703 C -72.671485 -114.66046 -68.930398 -115.19935 -65.075768 -115.99295 C -61.221138 -116.84324 -57.905139 -117.89193 -55.127538 -119.13901 z M -142.02663 -118.88373 L -137.86047 -118.88373 C -135.70641 -118.82705 -131.00135 -118.79847 -123.74557 -118.79847 C -116.20637 -118.79847 -111.30279 -118.82705 -109.03536 -118.88373 L -104.95395 -118.88373 L -103.2538 -115.22762 C -104.33083 -113.52705 -106.37156 -109.84261 -109.37591 -104.17404 C -112.38025 -98.505463 -115.21452 -92.496548 -117.87875 -86.147746 C -120.54298 -79.798944 -121.87488 -74.838719 -121.87488 -71.267517 C -121.87488 -68.433231 -120.88284 -66.307789 -118.89884 -64.890646 C -120.82615 -62.566531 -123.29198 -61.404554 -126.29632 -61.404554 C -129.07392 -61.404554 -131.22794 -62.169506 -132.75846 -63.700021 C -134.28897 -65.230536 -135.05444 -67.356494 -135.05444 -70.077409 C -135.05444 -73.478553 -134.23233 -77.077772 -132.58844 -80.875717 C -130.94456 -84.730347 -127.997 -89.945728 -123.74557 -96.521273 L -113.71208 -111.9963 L -133.09849 -111.9963 C -133.89209 -109.44544 -134.37434 -106.44124 -134.5444 -102.98341 C -135.56474 -102.81335 -136.61343 -102.72813 -137.69046 -102.72813 C -138.82417 -102.72813 -139.9295 -102.81335 -141.00653 -102.98341 L -143.38727 -117.60836 L -142.02663 -118.88373 z M -17.88485 -113.69697 C -20.322336 -113.69697 -22.193138 -112.76157 -23.49691 -110.89094 C -24.800682 -109.02031 -25.452346 -106.35597 -25.452346 -102.89814 C -25.452346 -99.383629 -24.744038 -96.634587 -23.326895 -94.650586 C -21.853066 -92.723271 -19.783751 -91.759807 -17.119522 -91.759807 C -14.795407 -91.759807 -12.216296 -92.723271 -9.3820096 -94.650586 L -9.3820096 -95.755945 C -9.3820096 -101.93469 -10.062254 -106.46931 -11.422712 -109.36028 C -12.78317 -112.25126 -14.937192 -113.69697 -17.88485 -113.69697 z M -89.734211 -101.28274 C -87.75021 -101.28274 -86.276433 -100.68772 -85.312775 -99.497319 C -84.292432 -98.363604 -83.782119 -96.776539 -83.782119 -94.735852 C -83.782119 -92.695166 -84.292432 -91.107584 -85.312775 -89.973869 C -86.276433 -88.840154 -87.75021 -88.273198 -89.734211 -88.273198 C -91.718212 -88.273198 -93.220053 -88.840154 -94.240396 -89.973869 C -95.204053 -91.16427 -95.686302 -92.751852 -95.686302 -94.735852 C -95.686302 -96.833225 -95.204053 -98.448354 -94.240396 -99.582068 C -93.220053 -100.71578 -91.718212 -101.28274 -89.734211 -101.28274 z M -89.734211 -74.498845 C -87.75021 -74.498845 -86.276433 -73.903824 -85.312775 -72.713424 C -84.292432 -71.579709 -83.782119 -69.992127 -83.782119 -67.951441 C -83.782119 -65.910754 -84.292432 -64.323689 -85.312775 -63.189974 C -86.276433 -62.05626 -87.75021 -61.489303 -89.734211 -61.489303 C -91.718212 -61.489303 -93.220053 -62.05626 -94.240396 -63.189974 C -95.204053 -64.380375 -95.686302 -65.96744 -95.686302 -67.951441 C -95.686302 -70.048813 -95.204053 -71.664459 -94.240396 -72.798173 C -93.220053 -73.931888 -91.718212 -74.498845 -89.734211 -74.498845 z " /></g></svg>
