<?xml version="1.0" encoding="UTF-8" standalone="no"?>
<!-- Created with Inkscape (http://www.inkscape.org/) -->

<svg
   width="172.6701mm"
   height="172.6701mm"
   viewBox="0 0 172.6701 172.6701"
   version="1.1"
   id="svg1"
   xml:space="preserve"
   xmlns="http://www.w3.org/2000/svg"
   xmlns:svg="http://www.w3.org/2000/svg"><defs
     id="defs1" /><g
     id="layer1"
     transform="translate(157.25102,198.81012)"><path
       id="path5"
       style="fill:#ffffff;fill-opacity:1;stroke-width:0.805188;stroke-linecap:round;stroke-linejoin:round"
       d="M -2.0863309 -198.17657 L -10.088943 -183.11289 L -10.930235 -165.68398 L -19.198981 -165.68398 L -11.423229 -155.47426 L -12.166336 -140.07934 C -28.353216 -157.12094 -50.823548 -166.77435 -74.327399 -166.78417 C -103.64471 -166.77397 -130.92652 -151.79225 -146.66717 -127.05894 L -157.25102 -127.05894 L -149.61996 -115.86014 L -157.25102 -26.140039 L -8.5138455 -26.140039 L 15.419061 -26.140039 L 8.0799737 -154.80195 L 15.419061 -165.68398 L 7.4593397 -165.68398 L 6.4490654 -183.39297 L -2.0863309 -198.17657 z M -83.43072 -192.21621 C -85.584619 -189.65499 -86.77489 -186.4211 -86.795372 -183.07465 C -86.842092 -175.15518 -80.459903 -168.69733 -72.540428 -168.65072 C -64.621155 -168.60402 -58.163395 -174.98588 -58.116503 -182.90515 C -58.102813 -186.26049 -59.266203 -189.5144 -61.404157 -192.10045 C -60.83125 -190.6836 -60.536835 -189.16959 -60.537027 -187.64129 C -60.575787 -181.07411 -65.930869 -175.78172 -72.498054 -175.82031 C -79.065241 -175.85911 -84.357627 -181.21415 -84.319038 -187.78134 C -84.309338 -189.30285 -84.007827 -190.80837 -83.43072 -192.21621 z M -115.58276 -130.68663 C -107.55844 -130.68663 -101.17031 -128.69999 -96.418041 -124.72679 C -91.665775 -120.83149 -89.289794 -115.3392 -89.289794 -108.24976 C -89.289794 -102.01728 -91.665775 -95.356443 -96.418041 -88.266997 C -101.17031 -81.255457 -108.99969 -72.8024 -119.90653 -62.908338 L -88.471756 -62.908338 L -88.471756 -51.456324 L -141.40858 -51.456324 L -141.40858 -58.234204 C -132.76101 -66.570147 -126.02241 -73.698606 -121.19224 -79.619462 C -116.36207 -85.540319 -112.8953 -90.99372 -110.79184 -95.979704 C -108.61047 -100.96569 -107.51969 -106.10751 -107.51969 -111.40512 C -107.51969 -119.81897 -110.32441 -124.02554 -115.93365 -124.02554 C -118.42664 -124.02554 -120.45216 -122.85699 -122.01028 -120.51981 C -123.5684 -118.26053 -124.34709 -115.45633 -124.34709 -112.10637 C -124.34709 -109.76919 -123.52951 -107.54874 -121.89349 -105.44528 C -123.21789 -104.19878 -124.7369 -103.22464 -126.45083 -102.52349 C -128.08686 -101.82234 -129.72303 -101.47188 -131.35906 -101.47188 C -134.16368 -101.47188 -136.50077 -102.32885 -138.37052 -104.04278 C -140.24026 -105.83462 -141.175 -108.40553 -141.175 -111.75549 C -141.175 -115.33916 -140.1231 -118.57211 -138.01964 -121.45463 C -135.91617 -124.33716 -132.95592 -126.59649 -129.13852 -128.23252 C -125.24322 -129.86854 -120.72456 -130.68663 -115.58276 -130.68663 z M -56.335216 -130.68663 C -48.310898 -130.68663 -41.92276 -128.69999 -37.170494 -124.72679 C -32.418228 -120.83149 -30.042247 -115.3392 -30.042247 -108.24976 C -30.042247 -102.01728 -32.418228 -95.356443 -37.170494 -88.266997 C -41.92276 -81.255457 -49.752143 -72.8024 -60.658983 -62.908338 L -29.224209 -62.908338 L -29.224209 -51.456324 L -82.16103 -51.456324 L -82.16103 -58.234204 C -73.513464 -66.570147 -66.774865 -73.698606 -61.944693 -79.619462 C -57.114521 -85.540319 -53.647756 -90.99372 -51.544294 -95.979704 C -49.362926 -100.96569 -48.272142 -106.10751 -48.272142 -111.40512 C -48.272142 -119.81897 -51.076867 -124.02554 -56.686099 -124.02554 C -59.179091 -124.02554 -61.204611 -122.85699 -62.762731 -120.51981 C -64.320851 -118.26053 -65.100056 -115.45633 -65.100056 -112.10637 C -65.100056 -109.76919 -64.281968 -107.54874 -62.645942 -105.44528 C -63.970344 -104.19878 -65.489354 -103.22464 -67.203286 -102.52349 C -68.839312 -101.82234 -70.475488 -101.47188 -72.111514 -101.47188 C -74.91613 -101.47188 -77.253228 -102.32885 -79.122972 -104.04278 C -80.992716 -105.83462 -81.927452 -108.40553 -81.927452 -111.75549 C -81.927452 -115.33916 -80.875551 -118.57211 -78.772089 -121.45463 C -76.668627 -124.33716 -73.708372 -126.59649 -69.890978 -128.23252 C -65.995678 -129.86854 -61.477012 -130.68663 -56.335216 -130.68663 z M -8.4234118 -105.32849 C -5.6967017 -105.32849 -3.6711821 -104.5104 -2.3467801 -102.87437 C -0.94447208 -101.31625 -0.24303253 -99.134686 -0.24303253 -96.33007 C -0.24303253 -93.525454 -0.94447208 -91.344404 -2.3467801 -89.786284 C -3.6711821 -88.228164 -5.6967017 -87.448959 -8.4234118 -87.448959 C -11.150122 -87.448959 -13.214524 -88.228164 -14.616832 -89.786284 C -15.941234 -91.42231 -16.603274 -93.60336 -16.603274 -96.33007 C -16.603274 -99.212592 -15.941234 -101.43304 -14.616832 -102.99116 C -13.214524 -104.54928 -11.150122 -105.32849 -8.4234118 -105.32849 z M -8.4234118 -68.517814 C -5.6967017 -68.517814 -3.6711821 -67.699727 -2.3467801 -66.063701 C -0.94447208 -64.505581 -0.24303253 -62.324013 -0.24303253 -59.519397 C -0.24303253 -56.714781 -0.94447208 -54.533731 -2.3467801 -52.975611 C -3.6711821 -51.417491 -5.6967017 -50.638286 -8.4234118 -50.638286 C -11.150122 -50.638286 -13.214524 -51.417491 -14.616832 -52.975611 C -15.941234 -54.611637 -16.603274 -56.792687 -16.603274 -59.519397 C -16.603274 -62.401919 -15.941234 -64.622369 -14.616832 -66.180489 C -13.214524 -67.738609 -11.150122 -68.517814 -8.4234118 -68.517814 z " /></g></svg>
