<?xml version="1.0" encoding="UTF-8" standalone="no"?>
<!-- Created with Inkscape (http://www.inkscape.org/) -->

<svg
   width="172.6701mm"
   height="172.6701mm"
   viewBox="0 0 172.6701 172.6701"
   version="1.1"
   id="svg1"
   xml:space="preserve"
   xmlns="http://www.w3.org/2000/svg"
   xmlns:svg="http://www.w3.org/2000/svg"><defs
     id="defs1" /><g
     id="layer1"
     transform="translate(157.25102,198.81012)"><path
       id="path5"
       style="fill:#ffffff;fill-opacity:1;stroke-width:0.805188;stroke-linecap:round;stroke-linejoin:round"
       d="M -2.0863309 -198.17657 L -10.088943 -183.11289 L -10.930235 -165.68398 L -19.198981 -165.68398 L -11.423229 -155.47426 L -12.166336 -140.07934 C -28.353216 -157.12094 -50.823548 -166.77435 -74.327399 -166.78417 C -103.64471 -166.77397 -130.92652 -151.79225 -146.66717 -127.05894 L -157.25102 -127.05894 L -149.61996 -115.86014 L -157.25102 -26.140039 L -8.5138455 -26.140039 L 15.419061 -26.140039 L 8.0799737 -154.80195 L 15.419061 -165.68398 L 7.4593397 -165.68398 L 6.4490654 -183.39297 L -2.0863309 -198.17657 z M -83.43072 -192.21621 C -85.584619 -189.65499 -86.77489 -186.4211 -86.795372 -183.07465 C -86.842092 -175.15518 -80.459903 -168.69733 -72.540428 -168.65072 C -64.621155 -168.60402 -58.163395 -174.98588 -58.116503 -182.90515 C -58.102813 -186.26049 -59.266203 -189.5144 -61.404157 -192.10045 C -60.83125 -190.6836 -60.536835 -189.16959 -60.537027 -187.64129 C -60.575787 -181.07411 -65.930869 -175.78172 -72.498054 -175.82031 C -79.065241 -175.85911 -84.357627 -181.21415 -84.319038 -187.78134 C -84.309338 -189.30285 -84.007827 -190.80837 -83.43072 -192.21621 z M -6.9160102 -119.90383 L -4.8753079 -115.65241 C -16.325826 -110.72075 -23.213497 -103.12528 -25.537613 -92.865166 C -22.24984 -94.452366 -19.131837 -95.245899 -16.184178 -95.245899 C -10.515605 -95.245899 -6.0656925 -93.715477 -2.8346056 -90.654448 C 0.45316702 -87.593418 2.0968763 -83.455306 2.0968763 -78.240218 C 2.0968763 -75.009132 1.2181193 -72.118221 -0.53913849 -69.567363 C -2.2397105 -67.016505 -4.6488889 -65.032415 -7.7666043 -63.615271 C -10.827634 -62.198128 -14.342145 -61.489303 -18.310147 -61.489303 C -25.055749 -61.489303 -30.24255 -63.360105 -33.870437 -67.101363 C -37.441639 -70.842622 -39.227216 -76.255999 -39.227216 -83.341716 C -39.227216 -92.241376 -36.477657 -99.808775 -30.979141 -106.04421 C -25.423939 -112.33632 -17.402871 -116.95617 -6.9160102 -119.90383 z M -119.5789 -119.13901 L -116.77339 -117.86364 L -116.77339 -68.716769 C -115.69636 -68.093226 -113.99549 -67.526269 -111.67137 -67.016097 C -109.34726 -66.562611 -107.50504 -66.279392 -106.14458 -66.16602 L -106.39986 -62.084615 L -141.09128 -62.084615 L -140.92127 -66.16602 C -135.87624 -66.732877 -132.02186 -67.583054 -129.35763 -68.716769 L -129.35763 -109.44555 L -140.75125 -109.44555 L -140.75125 -114.37703 C -137.12336 -114.66046 -133.38228 -115.19935 -129.52765 -115.99295 C -125.67302 -116.84324 -122.3565 -117.89193 -119.5789 -119.13901 z M -56.827692 -119.13901 L -54.022179 -117.86364 L -54.022179 -68.716769 C -52.94515 -68.093226 -51.24428 -67.526269 -48.920165 -67.016097 C -46.59605 -66.562611 -44.753828 -66.279392 -43.39337 -66.16602 L -43.648652 -62.084615 L -78.340074 -62.084615 L -78.170059 -66.16602 C -73.125028 -66.732877 -69.270653 -67.583054 -66.606424 -68.716769 L -66.606424 -109.44555 L -78.000043 -109.44555 L -78.000043 -114.37703 C -74.372156 -114.66046 -70.631069 -115.19935 -66.776439 -115.99295 C -62.921809 -116.84324 -59.605293 -117.89193 -56.827692 -119.13901 z M -91.434882 -101.28274 C -89.450882 -101.28274 -87.976587 -100.68772 -87.01293 -99.497319 C -85.992587 -98.363604 -85.482791 -96.776539 -85.482791 -94.735852 C -85.482791 -92.695166 -85.992587 -91.107584 -87.01293 -89.973869 C -87.976587 -88.840154 -89.450882 -88.273198 -91.434882 -88.273198 C -93.418883 -88.273198 -94.920724 -88.840154 -95.941067 -89.973869 C -96.904725 -91.16427 -97.386457 -92.751852 -97.386457 -94.735852 C -97.386457 -96.833225 -96.904725 -98.448354 -95.941067 -99.582068 C -94.920724 -100.71578 -93.418883 -101.28274 -91.434882 -101.28274 z M -18.564912 -89.293807 C -20.945712 -89.293807 -23.524823 -88.330343 -26.302424 -86.403028 L -26.302424 -85.297669 C -26.302424 -79.118924 -25.622179 -74.583787 -24.261721 -71.692814 C -22.901264 -68.801842 -20.747242 -67.356645 -17.799584 -67.356645 C -15.362097 -67.356645 -13.491812 -68.291529 -12.18804 -70.162159 C -10.884268 -72.032788 -10.232087 -74.697123 -10.232087 -78.154952 C -10.232087 -81.669468 -10.968976 -84.390447 -12.442805 -86.317762 C -13.859948 -88.301762 -15.900682 -89.293807 -18.564912 -89.293807 z M -91.434882 -74.498845 C -89.450882 -74.498845 -87.976587 -73.903824 -87.01293 -72.713424 C -85.992587 -71.579709 -85.482791 -69.992127 -85.482791 -67.951441 C -85.482791 -65.910754 -85.992587 -64.323689 -87.01293 -63.189974 C -87.976587 -62.05626 -89.450882 -61.489303 -91.434882 -61.489303 C -93.418883 -61.489303 -94.920724 -62.05626 -95.941067 -63.189974 C -96.904725 -64.380375 -97.386457 -65.96744 -97.386457 -67.951441 C -97.386457 -70.048813 -96.904725 -71.664459 -95.941067 -72.798173 C -94.920724 -73.931888 -93.418883 -74.498845 -91.434882 -74.498845 z " /></g></svg>
