<?xml version="1.0" encoding="UTF-8" standalone="no"?>
<!-- Created with Inkscape (http://www.inkscape.org/) -->

<svg
   width="172.6701mm"
   height="172.6701mm"
   viewBox="0 0 172.6701 172.6701"
   version="1.1"
   id="svg1"
   xml:space="preserve"
   xmlns="http://www.w3.org/2000/svg"
   xmlns:svg="http://www.w3.org/2000/svg"><defs
     id="defs1" /><g
     id="layer1"
     transform="translate(157.25102,198.81012)"><path
       id="path5"
       style="fill:#ffffff;fill-opacity:1;stroke-width:0.805188;stroke-linecap:round;stroke-linejoin:round"
       d="M -2.0863309 -198.17657 L -10.088943 -183.11289 L -10.930235 -165.68398 L -19.198981 -165.68398 L -11.423229 -155.47426 L -12.166336 -140.07934 C -28.353216 -157.12094 -50.823548 -166.77435 -74.327399 -166.78417 C -103.64471 -166.77397 -130.92652 -151.79225 -146.66717 -127.05894 L -157.25102 -127.05894 L -149.61996 -115.86014 L -157.25102 -26.140039 L -8.5138455 -26.140039 L 15.419061 -26.140039 L 8.0799737 -154.80195 L 15.419061 -165.68398 L 7.4593397 -165.68398 L 6.4490654 -183.39297 L -2.0863309 -198.17657 z M -83.43072 -192.21621 C -85.584619 -189.65499 -86.77489 -186.4211 -86.795372 -183.07465 C -86.842092 -175.15518 -80.459903 -168.69733 -72.540428 -168.65072 C -64.621155 -168.60402 -58.163395 -174.98588 -58.116503 -182.90515 C -58.102813 -186.26049 -59.266203 -189.5144 -61.404157 -192.10045 C -60.83125 -190.6836 -60.536835 -189.16959 -60.537027 -187.64129 C -60.575787 -181.07411 -65.930869 -175.78172 -72.498054 -175.82031 C -79.065241 -175.85911 -84.357627 -181.21415 -84.319038 -187.78134 C -84.309338 -189.30285 -84.007827 -190.80837 -83.43072 -192.21621 z M -57.508271 -119.73381 C -51.66964 -119.73381 -47.021216 -118.28861 -43.563386 -115.39764 C -40.105556 -112.56335 -38.376622 -108.56711 -38.376622 -103.40871 C -38.376622 -98.873849 -40.105556 -94.026912 -43.563386 -88.86851 C -47.021216 -83.766794 -52.718329 -77.616529 -60.654332 -70.41744 L -37.78131 -70.41744 L -37.78131 -62.084615 L -76.299372 -62.084615 L -76.299372 -67.016097 C -70.007255 -73.081471 -65.104191 -78.268272 -61.589676 -82.576388 C -58.07516 -86.884504 -55.552694 -90.852684 -54.022179 -94.480571 C -52.434978 -98.108458 -51.640929 -101.84955 -51.640929 -105.70418 C -51.640929 -111.82623 -53.681663 -114.88759 -57.763036 -114.88759 C -59.576979 -114.88759 -61.050757 -114.0369 -62.184471 -112.33633 C -63.318186 -110.69244 -63.885143 -108.65171 -63.885143 -106.21422 C -63.885143 -104.51365 -63.290122 -102.89852 -62.099722 -101.36801 C -63.063379 -100.46103 -64.168712 -99.752209 -65.415799 -99.242037 C -66.606199 -98.731866 -67.796756 -98.476709 -68.987157 -98.476709 C -71.027843 -98.476709 -72.728197 -99.10031 -74.088654 -100.3474 C -75.449112 -101.65117 -76.129357 -103.52197 -76.129357 -105.95946 C -76.129357 -108.567 -75.364404 -110.91953 -73.833889 -113.01691 C -72.303375 -115.11428 -70.148836 -116.75799 -67.371235 -117.94839 C -64.536948 -119.13879 -61.249529 -119.73381 -57.508271 -119.73381 z M -14.398758 -119.73381 C -8.5601269 -119.73381 -3.9117022 -118.28861 -0.45387238 -115.39764 C 3.0039575 -112.56335 4.7328911 -108.56711 4.7328911 -103.40871 C 4.7328911 -98.873849 3.0039575 -94.026912 -0.45387238 -88.86851 C -3.9117022 -83.766794 -9.6088159 -77.616529 -17.544819 -70.41744 L 5.3282036 -70.41744 L 5.3282036 -62.084615 L -33.189859 -62.084615 L -33.189859 -67.016097 C -26.897742 -73.081471 -21.994678 -78.268272 -18.480162 -82.576388 C -14.965647 -86.884504 -12.44318 -90.852684 -10.912666 -94.480571 C -9.3254649 -98.108458 -8.5314155 -101.84955 -8.5314155 -105.70418 C -8.5314155 -111.82623 -10.57215 -114.88759 -14.653522 -114.88759 C -16.467466 -114.88759 -17.94176 -114.0369 -19.075475 -112.33633 C -20.209189 -110.69244 -20.775629 -108.65171 -20.775629 -106.21422 C -20.775629 -104.51365 -20.180609 -102.89852 -18.990209 -101.36801 C -19.953866 -100.46103 -21.059199 -99.752209 -22.306285 -99.242037 C -23.496686 -98.731866 -24.687243 -98.476709 -25.877644 -98.476709 C -27.91833 -98.476709 -29.618683 -99.10031 -30.979141 -100.3474 C -32.339599 -101.65117 -33.019843 -103.52197 -33.019843 -105.95946 C -33.019843 -108.567 -32.254891 -110.91953 -30.724376 -113.01691 C -29.193861 -115.11428 -27.039323 -116.75799 -24.261721 -117.94839 C -21.427435 -119.13879 -18.140016 -119.73381 -14.398758 -119.73381 z M -137.26516 -119.05375 L -133.01374 -118.969 C -127.00505 -118.85563 -123.8304 -118.79847 -123.49029 -118.79847 L -111.41661 -118.969 L -108.95061 -117.18306 L -109.71594 -110.72092 L -130.80302 -110.72092 L -131.99313 -96.521273 C -129.04547 -97.258188 -126.38165 -97.626632 -124.00085 -97.626632 C -118.38897 -97.626632 -113.82577 -96.124274 -110.31125 -93.11993 C -106.74005 -90.172272 -104.95395 -85.836165 -104.95395 -80.110905 C -104.95395 -76.539704 -105.80465 -73.336993 -107.50522 -70.502706 C -109.14911 -67.66842 -111.5297 -65.429173 -114.64742 -63.785287 C -117.76513 -62.198086 -121.44958 -61.404554 -125.70101 -61.404554 C -129.15884 -61.404554 -132.3049 -61.886286 -135.13919 -62.849943 C -137.91679 -63.813601 -140.09939 -65.14551 -141.6866 -66.846082 C -143.2738 -68.60334 -144.06733 -70.559366 -144.06733 -72.713424 C -144.06733 -74.980853 -143.44373 -76.709787 -142.19664 -77.900188 C -140.94956 -79.147274 -139.41913 -79.770358 -137.60519 -79.770358 C -136.58485 -79.770358 -135.56474 -79.572362 -134.5444 -79.175562 C -133.46737 -78.778762 -132.50339 -78.211805 -131.6531 -77.474891 C -132.16327 -76.28449 -132.41843 -75.037289 -132.41843 -73.733517 C -132.41843 -71.862888 -131.88005 -70.332466 -130.80302 -69.142066 C -129.66931 -67.951665 -127.96844 -67.356645 -125.70101 -67.356645 C -120.59929 -67.356645 -118.04876 -71.608045 -118.04876 -80.110905 C -118.04876 -84.135593 -118.84229 -87.054567 -120.42949 -88.86851 C -122.0167 -90.73914 -124.14214 -91.674541 -126.80637 -91.674541 C -128.45025 -91.674541 -130.20777 -91.36274 -132.0784 -90.739197 C -133.94903 -90.115654 -135.79125 -89.236897 -137.60519 -88.103182 L -142.28191 -92.609884 L -140.07119 -116.75776 L -137.26516 -119.05375 z M -89.564195 -101.28274 C -87.580195 -101.28274 -86.105901 -100.68772 -85.142243 -99.497319 C -84.1219 -98.363604 -83.612104 -96.776539 -83.612104 -94.735852 C -83.612104 -92.695166 -84.1219 -91.107584 -85.142243 -89.973869 C -86.105901 -88.840154 -87.580195 -88.273198 -89.564195 -88.273198 C -91.548196 -88.273198 -93.050037 -88.840154 -94.07038 -89.973869 C -95.034038 -91.16427 -95.51577 -92.751852 -95.51577 -94.735852 C -95.51577 -96.833225 -95.034038 -98.448354 -94.07038 -99.582068 C -93.050037 -100.71578 -91.548196 -101.28274 -89.564195 -101.28274 z M -89.564195 -74.498845 C -87.580195 -74.498845 -86.105901 -73.903824 -85.142243 -72.713424 C -84.1219 -71.579709 -83.612104 -69.992127 -83.612104 -67.951441 C -83.612104 -65.910754 -84.1219 -64.323689 -85.142243 -63.189974 C -86.105901 -62.05626 -87.580195 -61.489303 -89.564195 -61.489303 C -91.548196 -61.489303 -93.050037 -62.05626 -94.07038 -63.189974 C -95.034038 -64.380375 -95.51577 -65.96744 -95.51577 -67.951441 C -95.51577 -70.048813 -95.034038 -71.664459 -94.07038 -72.798173 C -93.050037 -73.931888 -91.548196 -74.498845 -89.564195 -74.498845 z " /></g></svg>
