<?xml version="1.0" encoding="UTF-8" standalone="no"?>
<!-- Created with Inkscape (http://www.inkscape.org/) -->

<svg
   width="172.6701mm"
   height="172.6701mm"
   viewBox="0 0 172.6701 172.6701"
   version="1.1"
   id="svg1"
   xml:space="preserve"
   xmlns="http://www.w3.org/2000/svg"
   xmlns:svg="http://www.w3.org/2000/svg"><defs
     id="defs1" /><g
     id="layer1"
     transform="translate(157.25102,198.81012)"><path
       id="path5"
       style="fill:#ffffff;fill-opacity:1;stroke-width:0.805188;stroke-linecap:round;stroke-linejoin:round"
       d="M -2.0863309 -198.17657 L -10.088943 -183.11289 L -10.930235 -165.68398 L -19.198981 -165.68398 L -11.423229 -155.47426 L -12.166336 -140.07934 C -28.353216 -157.12094 -50.823548 -166.77435 -74.327399 -166.78417 C -103.64471 -166.77397 -130.92652 -151.79225 -146.66717 -127.05894 L -157.25102 -127.05894 L -149.61996 -115.86014 L -157.25102 -26.140039 L -8.5138455 -26.140039 L 15.419061 -26.140039 L 8.0799737 -154.80195 L 15.419061 -165.68398 L 7.4593397 -165.68398 L 6.4490654 -183.39297 L -2.0863309 -198.17657 z M -83.43072 -192.21621 C -85.584619 -189.65499 -86.77489 -186.4211 -86.795372 -183.07465 C -86.842092 -175.15518 -80.459903 -168.69733 -72.540428 -168.65072 C -64.621155 -168.60402 -58.163395 -174.98588 -58.116503 -182.90515 C -58.102813 -186.26049 -59.266203 -189.5144 -61.404157 -192.10045 C -60.83125 -190.6836 -60.536835 -189.16959 -60.537027 -187.64129 C -60.575787 -181.07411 -65.930869 -175.78172 -72.498054 -175.82031 C -79.065241 -175.85911 -84.357627 -181.21415 -84.319038 -187.78134 C -84.309338 -189.30285 -84.007827 -190.80837 -83.43072 -192.21621 z M -17.632152 -133.53658 L -14.244245 -126.47758 C -33.25662 -118.28909 -44.692248 -105.67697 -48.551195 -88.641134 C -43.092196 -91.276513 -37.915668 -92.594381 -33.021394 -92.594381 C -23.609327 -92.594381 -16.220699 -90.053073 -10.855821 -84.970557 C -5.3968228 -79.888041 -2.667174 -73.016963 -2.667174 -64.357862 C -2.667174 -58.992984 -4.1259104 -54.193137 -7.043651 -49.957707 C -9.867271 -45.722277 -13.867832 -42.427606 -19.044469 -40.074589 C -24.126985 -37.721573 -29.962447 -36.545089 -36.550894 -36.545089 C -47.751253 -36.545089 -56.36332 -39.651419 -62.387043 -45.863383 C -68.316645 -52.075347 -71.281074 -61.063579 -71.281074 -72.828662 C -71.281074 -87.605607 -66.716524 -100.17076 -57.586819 -110.52404 C -48.362994 -120.97143 -35.044475 -128.64231 -17.632152 -133.53658 z M -100.50565 -132.26586 L -95.846499 -130.14816 L -95.846499 -48.545907 C -94.058207 -47.51058 -91.234646 -46.569393 -87.375699 -45.722307 C -83.516751 -44.969341 -80.457894 -44.498748 -78.198998 -44.310507 L -78.622744 -37.533659 L -136.2244 -37.533659 L -135.94224 -44.310507 C -127.5655 -45.251713 -121.16502 -46.663494 -116.74135 -48.545907 L -116.74135 -116.17124 L -135.65957 -116.17124 L -135.65957 -124.35988 C -129.63585 -124.83049 -123.42422 -125.72472 -117.02402 -127.04241 C -110.62381 -128.45422 -105.11756 -130.19521 -100.50565 -132.26586 z M -36.974124 -82.711263 C -40.927192 -82.711263 -45.210006 -81.111659 -49.821918 -77.911556 L -49.821918 -76.076009 C -49.821918 -65.816857 -48.692391 -58.287361 -46.433495 -53.487207 C -44.174599 -48.687053 -40.597675 -46.286613 -35.7034 -46.286613 C -31.656212 -46.286613 -28.550398 -47.839778 -26.385623 -50.94576 C -24.220848 -54.051742 -23.138276 -58.475424 -23.138276 -64.216785 C -23.138276 -70.052266 -24.362232 -74.56986 -26.80937 -77.769963 C -29.162386 -81.064186 -32.550453 -82.711263 -36.974124 -82.711263 z " /></g></svg>
