<?xml version="1.0" encoding="UTF-8" standalone="no"?>
<!-- Created with Inkscape (http://www.inkscape.org/) -->

<svg
   width="172.6701mm"
   height="172.6701mm"
   viewBox="0 0 172.6701 172.6701"
   version="1.1"
   id="svg1"
   xml:space="preserve"
   xmlns="http://www.w3.org/2000/svg"
   xmlns:svg="http://www.w3.org/2000/svg"><defs
     id="defs1" /><g
     id="layer1"
     transform="translate(157.25102,198.81012)"><path
       id="path5"
       style="fill:#ffffff;fill-opacity:1;stroke-width:0.805188;stroke-linecap:round;stroke-linejoin:round"
       d="M -2.0863309 -198.17657 L -10.088943 -183.11289 L -10.930235 -165.68398 L -19.198981 -165.68398 L -11.423229 -155.47426 L -12.166336 -140.07934 C -28.353216 -157.12094 -50.823548 -166.77435 -74.327399 -166.78417 C -103.64471 -166.77397 -130.92652 -151.79225 -146.66717 -127.05894 L -157.25102 -127.05894 L -149.61996 -115.86014 L -157.25102 -26.140039 L -8.5138455 -26.140039 L 15.419061 -26.140039 L 8.0799737 -154.80195 L 15.419061 -165.68398 L 7.4593397 -165.68398 L 6.4490654 -183.39297 L -2.0863309 -198.17657 z M -83.43072 -192.21621 C -85.584619 -189.65499 -86.77489 -186.4211 -86.795372 -183.07465 C -86.842092 -175.15518 -80.459903 -168.69733 -72.540428 -168.65072 C -64.621155 -168.60402 -58.163395 -174.98588 -58.116503 -182.90515 C -58.102813 -186.26049 -59.266203 -189.5144 -61.404157 -192.10045 C -60.83125 -190.6836 -60.536835 -189.16959 -60.537027 -187.64129 C -60.575787 -181.07411 -65.930869 -175.78172 -72.498054 -175.82031 C -79.065241 -175.85911 -84.357627 -181.21415 -84.319038 -187.78134 C -84.309338 -189.30285 -84.007827 -190.80837 -83.43072 -192.21621 z M -124.80856 -119.73381 C -121.12398 -119.73381 -117.86411 -119.11073 -115.02982 -117.86364 C -112.19554 -116.67324 -109.98487 -114.97237 -108.39767 -112.76163 C -106.81047 -110.60757 -106.01694 -108.11368 -106.01694 -105.27939 C -106.01694 -102.10499 -106.95234 -99.384015 -108.82297 -97.116586 C -110.6936 -94.849156 -113.47122 -93.120223 -117.15579 -91.929822 C -112.50756 -90.909479 -109.24821 -89.237189 -107.37758 -86.913074 C -105.50695 -84.588959 -104.57155 -81.442892 -104.57155 -77.474891 C -104.57155 -74.017061 -105.62024 -71.069506 -107.71761 -68.632019 C -109.7583 -66.194533 -112.42263 -64.380375 -115.7104 -63.189974 C -118.99818 -61.999574 -122.3994 -61.404554 -125.91391 -61.404554 C -131.01563 -61.404554 -135.35174 -62.453243 -138.92294 -64.550615 C -142.43746 -66.647987 -144.19497 -69.510317 -144.19497 -73.138204 C -144.19497 -75.235577 -143.57137 -76.851222 -142.32428 -77.984937 C -141.0772 -79.175337 -139.51819 -79.770358 -137.64757 -79.770358 C -135.72025 -79.770358 -133.76474 -79.005405 -131.78074 -77.474891 C -132.29091 -76.397862 -132.54607 -75.094016 -132.54607 -73.563501 C -132.54607 -71.749558 -132.00717 -70.275781 -130.93015 -69.142066 C -129.79643 -68.008351 -128.12466 -67.441394 -125.91391 -67.441394 C -121.03894 -67.441394 -118.60118 -70.814037 -118.60118 -77.55964 C -118.60118 -81.244213 -119.79174 -84.10706 -122.17254 -86.147746 C -124.49666 -88.188433 -127.81266 -89.208541 -132.12077 -89.208541 L -132.12077 -94.480571 C -123.78797 -95.1608 -119.62179 -98.760535 -119.62179 -105.27939 C -119.62179 -108.56717 -120.13159 -110.97583 -121.15193 -112.50634 C -122.17227 -114.09354 -123.56134 -114.88759 -125.3186 -114.88759 C -127.41597 -114.88759 -129.00304 -114.15071 -130.08007 -112.67688 C -131.10041 -111.20305 -131.61072 -109.41747 -131.61072 -107.3201 C -131.61072 -105.44947 -131.2137 -103.77718 -130.4201 -102.30335 C -132.0073 -100.60278 -134.04803 -99.752084 -136.54221 -99.752084 C -138.80964 -99.752084 -140.56715 -100.43233 -141.81424 -101.79279 C -143.06132 -103.15324 -143.68492 -104.91076 -143.68492 -107.06482 C -143.68492 -109.8991 -142.72094 -112.25164 -140.79363 -114.12227 C -138.80963 -116.04958 -136.37238 -117.46671 -133.48141 -118.37369 C -130.53375 -119.28066 -127.64284 -119.73381 -124.80856 -119.73381 z M -57.465896 -119.73381 C -51.627266 -119.73381 -46.978841 -118.28861 -43.521011 -115.39764 C -40.063181 -112.56335 -38.334248 -108.56711 -38.334248 -103.40871 C -38.334248 -98.873849 -40.063181 -94.026912 -43.521011 -88.86851 C -46.978841 -83.766794 -52.675955 -77.616529 -60.611958 -70.41744 L -37.738935 -70.41744 L -37.738935 -62.084615 L -76.256997 -62.084615 L -76.256997 -67.016097 C -69.964881 -73.081471 -65.0613 -78.268272 -61.546784 -82.576388 C -58.032269 -86.884504 -55.509802 -90.852684 -53.979287 -94.480571 C -52.392087 -98.108458 -51.598554 -101.84955 -51.598554 -105.70418 C -51.598554 -111.82623 -53.639288 -114.88759 -57.720661 -114.88759 C -59.534605 -114.88759 -61.008382 -114.0369 -62.142097 -112.33633 C -63.275811 -110.69244 -63.842768 -108.65171 -63.842768 -106.21422 C -63.842768 -104.51365 -63.247748 -102.89852 -62.057347 -101.36801 C -63.021005 -100.46103 -64.126338 -99.752209 -65.373424 -99.242037 C -66.563824 -98.731866 -67.753865 -98.476709 -68.944265 -98.476709 C -70.984952 -98.476709 -72.685822 -99.10031 -74.04628 -100.3474 C -75.406737 -101.65117 -76.086982 -103.52197 -76.086982 -105.95946 C -76.086982 -108.567 -75.321513 -110.91953 -73.790998 -113.01691 C -72.260483 -115.11428 -70.106461 -116.75799 -67.32886 -117.94839 C -64.494573 -119.13879 -61.207155 -119.73381 -57.465896 -119.73381 z M -32.892202 -118.88373 L -28.726048 -118.88373 C -26.571991 -118.82705 -21.866922 -118.79847 -14.611148 -118.79847 C -7.071945 -118.79847 -2.1688807 -118.82705 0.098548685 -118.88373 L 4.1799533 -118.88373 L 5.8806247 -115.22762 C 4.8035957 -113.52705 2.7628617 -109.84261 -0.24148224 -104.17404 C -3.2458262 -98.505463 -6.0800929 -92.496548 -8.7443224 -86.147746 C -11.408552 -79.798944 -12.740461 -74.838719 -12.740461 -71.267517 C -12.740461 -68.433231 -11.748416 -66.307789 -9.7644152 -64.890646 C -11.69173 -62.566531 -14.157553 -61.404554 -17.161896 -61.404554 C -19.939497 -61.404554 -22.093519 -62.169506 -23.624034 -63.700021 C -25.154549 -65.230536 -25.920018 -67.356494 -25.920018 -70.077409 C -25.920018 -73.478553 -25.097905 -77.077772 -23.454019 -80.875717 C -21.810133 -84.730347 -18.862578 -89.945728 -14.611148 -96.521273 L -4.5776517 -111.9963 L -23.964582 -111.9963 C -24.758182 -109.44544 -25.239915 -106.44124 -25.409972 -102.98341 C -26.430315 -102.81335 -27.479004 -102.72813 -28.556033 -102.72813 C -29.689748 -102.72813 -30.795081 -102.81335 -31.87211 -102.98341 L -34.252843 -117.60836 L -32.892202 -118.88373 z M -89.521304 -101.28274 C -87.537303 -101.28274 -86.063526 -100.68772 -85.099868 -99.497319 C -84.079525 -98.363604 -83.569729 -96.776539 -83.569729 -94.735852 C -83.569729 -92.695166 -84.079525 -91.107584 -85.099868 -89.973869 C -86.063526 -88.840154 -87.537303 -88.273198 -89.521304 -88.273198 C -91.505305 -88.273198 -93.007662 -88.840154 -94.028006 -89.973869 C -94.991663 -91.16427 -95.473395 -92.751852 -95.473395 -94.735852 C -95.473395 -96.833225 -94.991663 -98.448354 -94.028006 -99.582068 C -93.007662 -100.71578 -91.505305 -101.28274 -89.521304 -101.28274 z M -89.521304 -74.498845 C -87.537303 -74.498845 -86.063526 -73.903824 -85.099868 -72.713424 C -84.079525 -71.579709 -83.569729 -69.992127 -83.569729 -67.951441 C -83.569729 -65.910754 -84.079525 -64.323689 -85.099868 -63.189974 C -86.063526 -62.05626 -87.537303 -61.489303 -89.521304 -61.489303 C -91.505305 -61.489303 -93.007662 -62.05626 -94.028006 -63.189974 C -94.991663 -64.380375 -95.473395 -65.96744 -95.473395 -67.951441 C -95.473395 -70.048813 -94.991663 -71.664459 -94.028006 -72.798173 C -93.007662 -73.931888 -91.505305 -74.498845 -89.521304 -74.498845 z " /></g></svg>
