<?xml version="1.0" encoding="UTF-8" standalone="no"?>
<!-- Created with Inkscape (http://www.inkscape.org/) -->

<svg
   width="172.6701mm"
   height="172.6701mm"
   viewBox="0 0 172.6701 172.6701"
   version="1.1"
   id="svg1"
   xml:space="preserve"
   xmlns="http://www.w3.org/2000/svg"
   xmlns:svg="http://www.w3.org/2000/svg"><defs
     id="defs1" /><g
     id="layer1"
     transform="translate(157.25102,198.81012)"><path
       id="path5"
       style="fill:#ffffff;fill-opacity:1;stroke-width:0.805188;stroke-linecap:round;stroke-linejoin:round"
       d="M -2.0863309 -198.17657 L -10.088943 -183.11289 L -10.930235 -165.68398 L -19.198981 -165.68398 L -11.423229 -155.47426 L -12.166336 -140.07934 C -28.353216 -157.12094 -50.823548 -166.77435 -74.327399 -166.78417 C -103.64471 -166.77397 -130.92652 -151.79225 -146.66717 -127.05894 L -157.25102 -127.05894 L -149.61996 -115.86014 L -157.25102 -26.140039 L -8.5138455 -26.140039 L 15.419061 -26.140039 L 8.0799737 -154.80195 L 15.419061 -165.68398 L 7.4593397 -165.68398 L 6.4490654 -183.39297 L -2.0863309 -198.17657 z M -83.43072 -192.21621 C -85.584619 -189.65499 -86.77489 -186.4211 -86.795372 -183.07465 C -86.842092 -175.15518 -80.459903 -168.69733 -72.540428 -168.65072 C -64.621155 -168.60402 -58.163395 -174.98588 -58.116503 -182.90515 C -58.102813 -186.26049 -59.266203 -189.5144 -61.404157 -192.10045 C -60.83125 -190.6836 -60.536835 -189.16959 -60.537027 -187.64129 C -60.575787 -181.07411 -65.930869 -175.78172 -72.498054 -175.82031 C -79.065241 -175.85911 -84.357627 -181.21415 -84.319038 -187.78134 C -84.309338 -189.30285 -84.007827 -190.80837 -83.43072 -192.21621 z M -4.7905586 -119.90383 L -2.7498563 -115.65241 C -14.200375 -110.72075 -21.087529 -103.12528 -23.411644 -92.865166 C -20.123872 -94.452366 -17.006385 -95.245899 -14.058727 -95.245899 C -8.3901532 -95.245899 -3.9402409 -93.715477 -0.70915395 -90.654448 C 2.5786187 -87.593418 4.222328 -83.455306 4.222328 -78.240218 C 4.222328 -75.009132 3.3440877 -72.118221 1.5868299 -69.567363 C -0.11374212 -67.016505 -2.5229205 -65.032415 -5.6406359 -63.615271 C -8.7016656 -62.198128 -12.216177 -61.489303 -16.184178 -61.489303 C -22.929781 -61.489303 -28.116582 -63.360105 -31.744469 -67.101363 C -35.31567 -70.842622 -37.101248 -76.255999 -37.101248 -83.341716 C -37.101248 -92.241376 -34.352206 -99.808775 -28.853689 -106.04421 C -23.298487 -112.33632 -15.27742 -116.95617 -4.7905586 -119.90383 z M -61.84444 -119.73381 C -58.159868 -119.73381 -54.900513 -119.11073 -52.066226 -117.86364 C -49.231939 -116.67324 -47.021273 -114.97237 -45.434073 -112.76163 C -43.846872 -110.60757 -43.053339 -108.11368 -43.053339 -105.27939 C -43.053339 -102.10499 -43.98874 -99.384015 -45.85937 -97.116586 C -47.729999 -94.849156 -50.507622 -93.120223 -54.192194 -91.929822 C -49.543964 -90.909479 -46.284609 -89.237189 -44.41398 -86.913074 C -42.543351 -84.588959 -41.60795 -81.442892 -41.60795 -77.474891 C -41.60795 -74.017061 -42.656639 -71.069506 -44.754011 -68.632019 C -46.794697 -66.194533 -49.458515 -64.380375 -52.746288 -63.189974 C -56.03406 -61.999574 -59.435284 -61.404554 -62.949799 -61.404554 C -68.051515 -61.404554 -72.38814 -62.453243 -75.959341 -64.550615 C -79.473857 -66.647987 -81.231371 -69.510317 -81.231371 -73.138204 C -81.231371 -75.235577 -80.60777 -76.851222 -79.360684 -77.984937 C -78.113598 -79.175337 -76.554596 -79.770358 -74.683967 -79.770358 C -72.756652 -79.770358 -70.801142 -79.005405 -68.817141 -77.474891 C -69.327313 -76.397862 -69.581953 -75.094016 -69.581953 -73.563501 C -69.581953 -71.749558 -69.043576 -70.275781 -67.966547 -69.142066 C -66.832833 -68.008351 -65.160543 -67.441394 -62.949799 -67.441394 C -58.074826 -67.441394 -55.637584 -70.814037 -55.637584 -77.55964 C -55.637584 -81.244213 -56.828141 -84.10706 -59.208942 -86.147746 C -61.533058 -88.188433 -64.849056 -89.208541 -69.157172 -89.208541 L -69.157172 -94.480571 C -60.824369 -95.1608 -56.657677 -98.760535 -56.657677 -105.27939 C -56.657677 -108.56717 -57.16799 -110.97583 -58.188333 -112.50634 C -59.208676 -114.09354 -60.597746 -114.88759 -62.355004 -114.88759 C -64.452376 -114.88759 -66.039441 -114.15071 -67.11647 -112.67688 C -68.136813 -111.20305 -68.647126 -109.41747 -68.647126 -107.3201 C -68.647126 -105.44947 -68.250101 -103.77718 -67.456501 -102.30335 C -69.043702 -100.60278 -71.084436 -99.752084 -73.578608 -99.752084 C -75.846037 -99.752084 -77.603035 -100.43233 -78.850121 -101.79279 C -80.097207 -103.15324 -80.720808 -104.91076 -80.720808 -107.06482 C -80.720808 -109.8991 -79.757343 -112.25164 -77.830028 -114.12227 C -75.846027 -116.04958 -73.408269 -117.46671 -70.517296 -118.37369 C -67.569638 -119.28066 -64.678727 -119.73381 -61.84444 -119.73381 z M -121.70487 -119.13901 L -118.89884 -117.86364 L -118.89884 -68.716769 C -117.82181 -68.093226 -116.12146 -67.526269 -113.79734 -67.016097 C -111.47323 -66.562611 -109.63049 -66.279392 -108.27003 -66.16602 L -108.52531 -62.084615 L -143.21725 -62.084615 L -143.04724 -66.16602 C -138.00221 -66.732877 -134.14731 -67.583054 -131.48308 -68.716769 L -131.48308 -109.44555 L -142.8767 -109.44555 L -142.8767 -114.37703 C -139.24882 -114.66046 -135.50773 -115.19935 -131.6531 -115.99295 C -127.79847 -116.84324 -124.48247 -117.89193 -121.70487 -119.13901 z M -93.560334 -101.28274 C -91.576333 -101.28274 -90.102556 -100.68772 -89.138898 -99.497319 C -88.118555 -98.363604 -87.608242 -96.776539 -87.608242 -94.735852 C -87.608242 -92.695166 -88.118555 -91.107584 -89.138898 -89.973869 C -90.102556 -88.840154 -91.576333 -88.273198 -93.560334 -88.273198 C -95.544335 -88.273198 -97.046692 -88.840154 -98.067036 -89.973869 C -99.030693 -91.16427 -99.512425 -92.751852 -99.512425 -94.735852 C -99.512425 -96.833225 -99.030693 -98.448354 -98.067036 -99.582068 C -97.046692 -100.71578 -95.544335 -101.28274 -93.560334 -101.28274 z M -16.43946 -89.293807 C -18.820261 -89.293807 -21.399371 -88.330343 -24.176972 -86.403028 L -24.176972 -85.297669 C -24.176972 -79.118924 -23.496727 -74.583787 -22.13627 -71.692814 C -20.775812 -68.801842 -18.62179 -67.356645 -15.674132 -67.356645 C -13.236645 -67.356645 -11.365843 -68.291529 -10.062071 -70.162159 C -8.7582995 -72.032788 -8.1066352 -74.697123 -8.1066352 -78.154952 C -8.1066352 -81.669468 -8.8435239 -84.390447 -10.317353 -86.317762 C -11.734496 -88.301762 -13.77523 -89.293807 -16.43946 -89.293807 z M -93.560334 -74.498845 C -91.576333 -74.498845 -90.102556 -73.903824 -89.138898 -72.713424 C -88.118555 -71.579709 -87.608242 -69.992127 -87.608242 -67.951441 C -87.608242 -65.910754 -88.118555 -64.323689 -89.138898 -63.189974 C -90.102556 -62.05626 -91.576333 -61.489303 -93.560334 -61.489303 C -95.544335 -61.489303 -97.046692 -62.05626 -98.067036 -63.189974 C -99.030693 -64.380375 -99.512425 -65.96744 -99.512425 -67.951441 C -99.512425 -70.048813 -99.030693 -71.664459 -98.067036 -72.798173 C -97.046692 -73.931888 -95.544335 -74.498845 -93.560334 -74.498845 z " /></g></svg>
