<?xml version="1.0" encoding="UTF-8" standalone="no"?>
<!-- Created with Inkscape (http://www.inkscape.org/) -->

<svg
   width="172.6701mm"
   height="172.6701mm"
   viewBox="0 0 172.6701 172.6701"
   version="1.1"
   id="svg1"
   xml:space="preserve"
   xmlns="http://www.w3.org/2000/svg"
   xmlns:svg="http://www.w3.org/2000/svg"><defs
     id="defs1" /><g
     id="layer1"
     transform="translate(157.25102,198.81012)"><path
       id="path5"
       style="fill:#ffffff;fill-opacity:1;stroke-width:0.805188;stroke-linecap:round;stroke-linejoin:round"
       d="M -2.0863309 -198.17657 L -10.088943 -183.11289 L -10.930235 -165.68398 L -19.198981 -165.68398 L -11.423229 -155.47426 L -12.166336 -140.07934 C -28.353216 -157.12094 -50.823548 -166.77435 -74.327399 -166.78417 C -103.64471 -166.77397 -130.92652 -151.79225 -146.66717 -127.05894 L -157.25102 -127.05894 L -149.61996 -115.86014 L -157.25102 -26.140039 L -8.5138455 -26.140039 L 15.419061 -26.140039 L 8.0799737 -154.80195 L 15.419061 -165.68398 L 7.4593397 -165.68398 L 6.4490654 -183.39297 L -2.0863309 -198.17657 z M -83.43072 -192.21621 C -85.584619 -189.65499 -86.77489 -186.4211 -86.795372 -183.07465 C -86.842092 -175.15518 -80.459903 -168.69733 -72.540428 -168.65072 C -64.621155 -168.60402 -58.163395 -174.98588 -58.116503 -182.90515 C -58.102813 -186.26049 -59.266203 -189.5144 -61.404157 -192.10045 C -60.83125 -190.6836 -60.536835 -189.16959 -60.537027 -187.64129 C -60.575787 -181.07411 -65.930869 -175.78172 -72.498054 -175.82031 C -79.065241 -175.85911 -84.357627 -181.21415 -84.319038 -187.78134 C -84.309338 -189.30285 -84.007827 -190.80837 -83.43072 -192.21621 z M -30.240685 -134.72153 C -19.887685 -134.72153 -11.654617 -132.50312 -5.5414171 -128.06612 C 0.57178261 -123.62912 3.628049 -117.66365 3.628049 -110.17005 C 3.628049 -106.12745 2.1491104 -102.08523 -0.80888947 -98.042627 C -3.7668893 -94.000027 -7.661531 -90.696755 -12.492931 -88.133155 C -6.3797311 -85.175155 -1.5975195 -81.724298 1.8534803 -77.780298 C 5.4030802 -73.836298 7.1777031 -68.758402 7.1777031 -62.546603 C 7.1777031 -53.574003 3.9241416 -46.425283 -2.5834582 -41.100883 C -9.0910579 -35.875084 -17.8663 -33.262085 -28.9095 -33.262085 C -41.037299 -33.262085 -50.404427 -35.677788 -57.010627 -40.509188 C -63.518227 -45.340588 -66.772305 -52.242818 -66.772305 -61.215418 C -66.772305 -65.849618 -65.293366 -70.434534 -62.335367 -74.970134 C -59.377367 -79.604334 -55.235718 -83.69627 -49.911319 -87.24587 C -54.348318 -89.71087 -57.799692 -92.668747 -60.264692 -96.119747 C -62.729692 -99.570747 -63.962141 -103.85998 -63.962141 -108.98718 C -63.962141 -116.87518 -60.905357 -123.13633 -54.792158 -127.77053 C -48.678958 -132.40473 -40.495084 -134.72153 -30.240685 -134.72153 z M -111.14221 -134.27814 C -99.408807 -134.27814 -90.436269 -131.02406 -84.22447 -124.51646 C -77.91407 -118.00886 -74.758898 -108.59254 -74.758898 -96.267542 C -74.758898 -80.787343 -79.590304 -67.575284 -89.253103 -56.630685 C -98.817303 -45.784685 -112.71964 -37.798107 -130.96064 -32.670907 L -134.51029 -40.065804 C -124.65029 -44.305604 -116.71291 -49.728379 -110.69831 -56.334579 C -104.68371 -63.039379 -100.69068 -70.828662 -98.718675 -79.702662 C -104.24028 -76.941862 -109.61386 -75.561829 -114.83966 -75.561829 C -124.69965 -75.561829 -132.48894 -78.224022 -138.20774 -83.548422 C -143.82794 -88.872821 -146.63823 -96.070736 -146.63823 -105.14194 C -146.63823 -110.76214 -145.15929 -115.79032 -142.20129 -120.22732 C -139.14469 -124.66432 -134.95385 -128.11569 -129.62945 -130.58069 C -124.20645 -133.04569 -118.04421 -134.27814 -111.14221 -134.27814 z M -30.240685 -124.22087 C -34.184685 -124.22087 -37.290662 -122.93923 -39.558462 -120.37563 C -41.826262 -117.91063 -42.960322 -114.55816 -42.960322 -110.31836 C -42.960322 -106.57156 -41.530578 -103.46559 -38.671178 -101.00059 C -35.713178 -98.634186 -31.423946 -96.267678 -25.803746 -93.901278 C -23.338746 -95.577478 -21.366828 -97.894792 -19.887828 -100.85279 C -18.408828 -103.81079 -17.669359 -106.96596 -17.669359 -110.31836 C -17.669359 -114.55816 -18.852613 -117.91063 -21.219013 -120.37563 C -23.486813 -122.93923 -26.493885 -124.22087 -30.240685 -124.22087 z M -112.02949 -124.07308 C -116.26929 -124.07308 -119.52337 -122.44604 -121.79117 -119.19224 C -124.05897 -115.93844 -125.19251 -111.30433 -125.19251 -105.28973 C -125.19251 -99.17653 -123.96006 -94.394319 -121.49506 -90.943319 C -118.93146 -87.590919 -115.33251 -85.914685 -110.69831 -85.914685 C -106.65571 -85.914685 -102.1697 -87.590919 -97.239696 -90.943319 L -97.239696 -92.866199 C -97.239696 -103.6136 -98.42295 -111.50127 -100.78935 -116.52987 C -103.15575 -121.55847 -106.90229 -124.07308 -112.02949 -124.07308 z M -36.304914 -81.182158 C -39.262914 -78.815758 -41.432127 -76.103854 -42.812527 -73.047254 C -44.192927 -69.990654 -44.882685 -66.342502 -44.882685 -62.102702 C -44.882685 -56.285302 -43.453458 -51.700386 -40.594058 -48.347986 C -37.734658 -45.094186 -33.8395 -43.467664 -28.9095 -43.467664 C -24.0781 -43.467664 -20.331559 -45.094186 -17.669359 -48.347986 C -14.908559 -51.601786 -13.52801 -56.137508 -13.52801 -61.954908 C -13.52801 -65.208707 -14.56368 -67.969289 -16.63428 -70.237089 C -18.60628 -72.603489 -21.120372 -74.526213 -24.176972 -76.005213 C -27.233572 -77.582813 -31.276314 -79.308758 -36.304914 -81.182158 z " /></g></svg>
