<?xml version="1.0" encoding="UTF-8" standalone="no"?>
<!-- Created with Inkscape (http://www.inkscape.org/) -->

<svg
   width="172.6701mm"
   height="172.6701mm"
   viewBox="0 0 172.6701 172.6701"
   version="1.1"
   id="svg1"
   xml:space="preserve"
   xmlns="http://www.w3.org/2000/svg"
   xmlns:svg="http://www.w3.org/2000/svg"><defs
     id="defs1" /><g
     id="layer1"
     transform="translate(157.25102,198.81012)"><path
       id="path5"
       style="fill:#ffffff;fill-opacity:1;stroke-width:0.805188;stroke-linecap:round;stroke-linejoin:round"
       d="M -2.0863309 -198.17657 L -10.088943 -183.11289 L -10.930235 -165.68398 L -19.198981 -165.68398 L -11.423229 -155.47426 L -12.166336 -140.07934 C -28.353216 -157.12094 -50.823548 -166.77435 -74.327399 -166.78417 C -103.64471 -166.77397 -130.92652 -151.79225 -146.66717 -127.05894 L -157.25102 -127.05894 L -149.61996 -115.86014 L -157.25102 -26.140039 L -8.5138455 -26.140039 L 15.419061 -26.140039 L 8.0799737 -154.80195 L 15.419061 -165.68398 L 7.4593397 -165.68398 L 6.4490654 -183.39297 L -2.0863309 -198.17657 z M -83.43072 -192.21621 C -85.584619 -189.65499 -86.77489 -186.4211 -86.795372 -183.07465 C -86.842092 -175.15518 -80.459903 -168.69733 -72.540428 -168.65072 C -64.621155 -168.60402 -58.163395 -174.98588 -58.116503 -182.90515 C -58.102813 -186.26049 -59.266203 -189.5144 -61.404157 -192.10045 C -60.83125 -190.6836 -60.536835 -189.16959 -60.537027 -187.64129 C -60.575787 -181.07411 -65.930869 -175.78172 -72.498054 -175.82031 C -79.065241 -175.85911 -84.357627 -181.21415 -84.319038 -187.78134 C -84.309338 -189.30285 -84.007827 -190.80837 -83.43072 -192.21621 z M -60.016645 -119.64906 C -53.384414 -119.64906 -48.310901 -117.15466 -44.796385 -112.16631 C -41.225184 -107.23465 -39.439606 -100.06428 -39.439606 -90.654448 C -39.439606 -81.244616 -41.225184 -74.017081 -44.796385 -68.97205 C -48.310901 -63.983706 -53.384414 -61.489303 -60.016645 -61.489303 C -66.648876 -61.489303 -71.750453 -63.983706 -75.321654 -68.97205 C -78.892855 -74.017081 -80.678433 -81.244616 -80.678433 -90.654448 C -80.678433 -100.00759 -78.892855 -107.17797 -75.321654 -112.16631 C -71.750453 -117.15466 -66.648876 -119.64906 -60.016645 -119.64906 z M -122.00253 -119.13901 L -119.1965 -117.86364 L -119.1965 -68.716769 C -118.11947 -68.093226 -116.41911 -67.526269 -114.095 -67.016097 C -111.77088 -66.562611 -109.92866 -66.279392 -108.5682 -66.16602 L -108.82297 -62.084615 L -143.51491 -62.084615 L -143.34489 -66.16602 C -138.29986 -66.732877 -134.44497 -67.583054 -131.78074 -68.716769 L -131.78074 -109.44555 L -143.17436 -109.44555 L -143.17436 -114.37703 C -139.54647 -114.66046 -135.80539 -115.19935 -131.95076 -115.99295 C -128.09613 -116.84324 -124.78013 -117.89193 -122.00253 -119.13901 z M -28.216002 -119.05375 L -23.964582 -118.969 C -17.955894 -118.85563 -14.781247 -118.79847 -14.441132 -118.79847 L -2.3669339 -118.969 L 0.098548685 -117.18306 L -0.66677928 -110.72092 L -21.753864 -110.72092 L -22.943972 -96.521273 C -19.996314 -97.258188 -17.33198 -97.626632 -14.951179 -97.626632 C -9.3392909 -97.626632 -4.7760906 -96.124274 -1.261575 -93.11993 C 2.3096263 -90.172272 4.095204 -85.836165 4.095204 -80.110905 C 4.095204 -76.539704 3.2450273 -73.336993 1.5444553 -70.502706 C -0.099431057 -67.66842 -2.4805458 -65.429173 -5.5982612 -63.785287 C -8.7159766 -62.198086 -12.40042 -61.404554 -16.65185 -61.404554 C -20.10968 -61.404554 -23.255747 -61.886286 -26.090034 -62.849943 C -28.867635 -63.813601 -31.050237 -65.14551 -32.637438 -66.846082 C -34.224638 -68.60334 -35.018171 -70.559366 -35.018171 -72.713424 C -35.018171 -74.980853 -34.39457 -76.709787 -33.147484 -77.900188 C -31.900398 -79.147274 -30.369977 -79.770358 -28.556033 -79.770358 C -27.53569 -79.770358 -26.515064 -79.572362 -25.494721 -79.175562 C -24.417692 -78.778762 -23.454228 -78.211805 -22.603942 -77.474891 C -23.114113 -76.28449 -23.36927 -75.037289 -23.36927 -73.733517 C -23.36927 -71.862888 -22.830893 -70.332466 -21.753864 -69.142066 C -20.62015 -67.951665 -18.919279 -67.356645 -16.65185 -67.356645 C -11.550134 -67.356645 -8.9990872 -71.608045 -8.9990872 -80.110905 C -8.9990872 -84.135593 -9.7931366 -87.054567 -11.380337 -88.86851 C -12.967538 -90.73914 -15.092979 -91.674541 -17.757209 -91.674541 C -19.401095 -91.674541 -21.158609 -91.36274 -23.029239 -90.739197 C -24.899868 -90.115654 -26.742089 -89.236897 -28.556033 -88.103182 L -33.232233 -92.609884 L -31.021516 -116.75776 L -28.216002 -119.05375 z M -60.016645 -115.31237 C -62.907617 -115.31237 -65.004995 -113.41351 -66.308767 -109.61556 C -67.555854 -105.81762 -68.179454 -99.497422 -68.179454 -90.654448 C -68.179454 -81.868159 -67.555854 -75.576025 -66.308767 -71.778081 C -65.004995 -68.036822 -62.907617 -66.16602 -60.016645 -66.16602 C -57.125673 -66.16602 -55.056358 -68.036822 -53.809272 -71.778081 C -52.5055 -75.576025 -51.853836 -81.868159 -51.853836 -90.654448 C -51.853836 -99.440737 -52.5055 -105.73287 -53.809272 -109.53081 C -55.056358 -113.38544 -57.125673 -115.31237 -60.016645 -115.31237 z M -93.85799 -101.28274 C -91.873989 -101.28274 -90.400212 -100.68772 -89.436555 -99.497319 C -88.416211 -98.363604 -87.905899 -96.776539 -87.905899 -94.735852 C -87.905899 -92.695166 -88.416211 -91.107584 -89.436555 -89.973869 C -90.400212 -88.840154 -91.873989 -88.273198 -93.85799 -88.273198 C -95.841991 -88.273198 -97.344349 -88.840154 -98.364692 -89.973869 C -99.328349 -91.16427 -99.810082 -92.751852 -99.810082 -94.735852 C -99.810082 -96.833225 -99.328349 -98.448354 -98.364692 -99.582068 C -97.344349 -100.71578 -95.841991 -101.28274 -93.85799 -101.28274 z M -93.85799 -74.498845 C -91.873989 -74.498845 -90.400212 -73.903824 -89.436555 -72.713424 C -88.416211 -71.579709 -87.905899 -69.992127 -87.905899 -67.951441 C -87.905899 -65.910754 -88.416211 -64.323689 -89.436555 -63.189974 C -90.400212 -62.05626 -91.873989 -61.489303 -93.85799 -61.489303 C -95.841991 -61.489303 -97.344349 -62.05626 -98.364692 -63.189974 C -99.328349 -64.380375 -99.810082 -65.96744 -99.810082 -67.951441 C -99.810082 -70.048813 -99.328349 -71.664459 -98.364692 -72.798173 C -97.344349 -73.931888 -95.841991 -74.498845 -93.85799 -74.498845 z " /></g></svg>
