<?xml version="1.0" encoding="UTF-8" standalone="no"?>
<!-- Created with Inkscape (http://www.inkscape.org/) -->

<svg
   width="172.6701mm"
   height="172.6701mm"
   viewBox="0 0 172.6701 172.6701"
   version="1.1"
   id="svg1"
   xml:space="preserve"
   xmlns="http://www.w3.org/2000/svg"
   xmlns:svg="http://www.w3.org/2000/svg"><defs
     id="defs1" /><g
     id="layer1"
     transform="translate(157.25102,198.81012)"><path
       id="path5"
       style="fill:#ffffff;fill-opacity:1;stroke-width:0.805188;stroke-linecap:round;stroke-linejoin:round"
       d="M -2.0863309 -198.17657 L -10.088943 -183.11289 L -10.930235 -165.68398 L -19.198981 -165.68398 L -11.423229 -155.47426 L -12.166336 -140.07934 C -28.353216 -157.12094 -50.823548 -166.77435 -74.327399 -166.78417 C -103.64471 -166.77397 -130.92652 -151.79225 -146.66717 -127.05894 L -157.25102 -127.05894 L -149.61996 -115.86014 L -157.25102 -26.140039 L -8.5138455 -26.140039 L 15.419061 -26.140039 L 8.0799737 -154.80195 L 15.419061 -165.68398 L 7.4593397 -165.68398 L 6.4490654 -183.39297 L -2.0863309 -198.17657 z M -83.43072 -192.21621 C -85.584619 -189.65499 -86.77489 -186.4211 -86.795372 -183.07465 C -86.842092 -175.15518 -80.459903 -168.69733 -72.540428 -168.65072 C -64.621155 -168.60402 -58.163395 -174.98588 -58.116503 -182.90515 C -58.102813 -186.26049 -59.266203 -189.5144 -61.404157 -192.10045 C -60.83125 -190.6836 -60.536835 -189.16959 -60.537027 -187.64129 C -60.575787 -181.07411 -65.930869 -175.78172 -72.498054 -175.82031 C -79.065241 -175.85911 -84.357627 -181.21415 -84.319038 -187.78134 C -84.309338 -189.30285 -84.007827 -190.80837 -83.43072 -192.21621 z M -114.64742 -119.90383 L -112.60672 -115.65241 C -124.05724 -110.72075 -130.94439 -103.12528 -133.2685 -92.865166 C -129.98073 -94.452366 -126.86325 -95.245899 -123.91559 -95.245899 C -118.24701 -95.245899 -113.7971 -93.715477 -110.56601 -90.654448 C -107.27824 -87.593418 -105.63453 -83.455306 -105.63453 -78.240218 C -105.63453 -75.009132 -106.51329 -72.118221 -108.27055 -69.567363 C -109.97112 -67.016505 -112.3803 -65.032415 -115.49801 -63.615271 C -118.55904 -62.198128 -122.07355 -61.489303 -126.04156 -61.489303 C -132.78716 -61.489303 -137.97344 -63.360105 -141.60133 -67.101363 C -145.17253 -70.842622 -146.95811 -76.255999 -146.95811 -83.341716 C -146.95811 -92.241376 -144.20907 -99.808775 -138.71055 -106.04421 C -133.15535 -112.33632 -125.13428 -116.95617 -114.64742 -119.90383 z M -0.87916941 -119.90383 L 1.1615329 -115.65241 C -10.288986 -110.72075 -17.17614 -103.12528 -19.500255 -92.865166 C -16.212482 -94.452366 -13.094996 -95.245899 -10.147338 -95.245899 C -4.478764 -95.245899 -0.02885169 -93.715477 3.2022352 -90.654448 C 6.4900078 -87.593418 8.1337171 -83.455306 8.1337171 -78.240218 C 8.1337171 -75.009132 7.2554769 -72.118221 5.4982191 -69.567363 C 3.797647 -67.016505 1.3884687 -65.032415 -1.7292467 -63.615271 C -4.7902764 -62.198128 -8.3047878 -61.489303 -12.272789 -61.489303 C -19.018392 -61.489303 -24.205193 -63.360105 -27.83308 -67.101363 C -31.404281 -70.842622 -33.189859 -76.255999 -33.189859 -83.341716 C -33.189859 -92.241376 -30.440816 -99.808775 -24.9423 -106.04421 C -19.387098 -112.33632 -11.36603 -116.95617 -0.87916941 -119.90383 z M -70.347281 -119.05375 L -66.09586 -118.969 C -60.087173 -118.85563 -56.913042 -118.79847 -56.572928 -118.79847 L -44.498729 -118.969 L -42.03273 -117.18306 L -42.798058 -110.72092 L -63.885143 -110.72092 L -65.075768 -96.521273 C -62.128109 -97.258188 -59.463775 -97.626632 -57.082974 -97.626632 C -51.471086 -97.626632 -46.907886 -96.124274 -43.39337 -93.11993 C -39.822169 -90.172272 -38.036591 -85.836165 -38.036591 -80.110905 C -38.036591 -76.539704 -38.886768 -73.336993 -40.58734 -70.502706 C -42.231226 -67.66842 -44.612341 -65.429173 -47.730056 -63.785287 C -50.847772 -62.198086 -54.532215 -61.404554 -58.783645 -61.404554 C -62.241475 -61.404554 -65.387542 -61.886286 -68.221829 -62.849943 C -70.99943 -63.813601 -73.182032 -65.14551 -74.769233 -66.846082 C -76.356433 -68.60334 -77.149966 -70.559366 -77.149966 -72.713424 C -77.149966 -74.980853 -76.526365 -76.709787 -75.279279 -77.900188 C -74.032193 -79.147274 -72.501772 -79.770358 -70.687828 -79.770358 C -69.667485 -79.770358 -68.64686 -79.572362 -67.626516 -79.175562 C -66.549487 -78.778762 -65.586023 -78.211805 -64.735737 -77.474891 C -65.245908 -76.28449 -65.501065 -75.037289 -65.501065 -73.733517 C -65.501065 -71.862888 -64.962172 -70.332466 -63.885143 -69.142066 C -62.751428 -67.951665 -61.051075 -67.356645 -58.783645 -67.356645 C -53.681929 -67.356645 -51.130882 -71.608045 -51.130882 -80.110905 C -51.130882 -84.135593 -51.924415 -87.054567 -53.511616 -88.86851 C -55.098816 -90.73914 -57.224775 -91.674541 -59.889004 -91.674541 C -61.532891 -91.674541 -63.289888 -91.36274 -65.160517 -90.739197 C -67.031146 -90.115654 -68.873885 -89.236897 -70.687828 -88.103182 L -75.364029 -92.609884 L -73.153311 -116.75776 L -70.347281 -119.05375 z M -90.669554 -101.28274 C -88.685554 -101.28274 -87.211776 -100.68772 -86.248119 -99.497319 C -85.227776 -98.363604 -84.717463 -96.776539 -84.717463 -94.735852 C -84.717463 -92.695166 -85.227776 -91.107584 -86.248119 -89.973869 C -87.211776 -88.840154 -88.685554 -88.273198 -90.669554 -88.273198 C -92.653555 -88.273198 -94.155396 -88.840154 -95.175739 -89.973869 C -96.139397 -91.16427 -96.621646 -92.751852 -96.621646 -94.735852 C -96.621646 -96.833225 -96.139397 -98.448354 -95.175739 -99.582068 C -94.155396 -100.71578 -92.653555 -101.28274 -90.669554 -101.28274 z M -126.29632 -89.293807 C -128.67712 -89.293807 -131.25623 -88.330343 -134.03383 -86.403028 L -134.03383 -85.297669 C -134.03383 -79.118924 -133.35359 -74.583787 -131.99313 -71.692814 C -130.63267 -68.801842 -128.47865 -67.356645 -125.53099 -67.356645 C -123.09351 -67.356645 -121.22322 -68.291529 -119.91945 -70.162159 C -118.61568 -72.032788 -117.9635 -74.697123 -117.9635 -78.154952 C -117.9635 -81.669468 -118.70038 -84.390447 -120.17421 -86.317762 C -121.59136 -88.301762 -123.63209 -89.293807 -126.29632 -89.293807 z M -12.528071 -89.293807 C -14.908872 -89.293807 -17.487982 -88.330343 -20.265583 -86.403028 L -20.265583 -85.297669 C -20.265583 -79.118924 -19.585338 -74.583787 -18.224881 -71.692814 C -16.864423 -68.801842 -14.710401 -67.356645 -11.762743 -67.356645 C -9.3252562 -67.356645 -7.4544542 -68.291529 -6.1506823 -70.162159 C -4.8469104 -72.032788 -4.1952461 -74.697123 -4.1952461 -78.154952 C -4.1952461 -81.669468 -4.9321347 -84.390447 -6.4059638 -86.317762 C -7.8231072 -88.301762 -9.8638412 -89.293807 -12.528071 -89.293807 z M -90.669554 -74.498845 C -88.685554 -74.498845 -87.211776 -73.903824 -86.248119 -72.713424 C -85.227776 -71.579709 -84.717463 -69.992127 -84.717463 -67.951441 C -84.717463 -65.910754 -85.227776 -64.323689 -86.248119 -63.189974 C -87.211776 -62.05626 -88.685554 -61.489303 -90.669554 -61.489303 C -92.653555 -61.489303 -94.155396 -62.05626 -95.175739 -63.189974 C -96.139397 -64.380375 -96.621646 -65.96744 -96.621646 -67.951441 C -96.621646 -70.048813 -96.139397 -71.664459 -95.175739 -72.798173 C -94.155396 -73.931888 -92.653555 -74.498845 -90.669554 -74.498845 z " /></g></svg>
