<?xml version="1.0" encoding="UTF-8" standalone="no"?>
<!-- Created with Inkscape (http://www.inkscape.org/) -->

<svg
   width="172.6701mm"
   height="172.6701mm"
   viewBox="0 0 172.6701 172.6701"
   version="1.1"
   id="svg1"
   xml:space="preserve"
   xmlns="http://www.w3.org/2000/svg"
   xmlns:svg="http://www.w3.org/2000/svg"><defs
     id="defs1" /><g
     id="layer1"
     transform="translate(157.25102,198.81012)"><path
       id="path5"
       style="fill:#ffffff;fill-opacity:1;stroke-width:0.805188;stroke-linecap:round;stroke-linejoin:round"
       d="M -2.0863309 -198.17657 L -10.088943 -183.11289 L -10.930235 -165.68398 L -19.198981 -165.68398 L -11.423229 -155.47426 L -12.166336 -140.07934 C -28.353216 -157.12094 -50.823548 -166.77435 -74.327399 -166.78417 C -103.64471 -166.77397 -130.92652 -151.79225 -146.66717 -127.05894 L -157.25102 -127.05894 L -149.61996 -115.86014 L -157.25102 -26.140039 L -8.5138455 -26.140039 L 15.419061 -26.140039 L 8.0799737 -154.80195 L 15.419061 -165.68398 L 7.4593397 -165.68398 L 6.4490654 -183.39297 L -2.0863309 -198.17657 z M -83.43072 -192.21621 C -85.584619 -189.65499 -86.77489 -186.4211 -86.795372 -183.07465 C -86.842092 -175.15518 -80.459903 -168.69733 -72.540428 -168.65072 C -64.621155 -168.60402 -58.163395 -174.98588 -58.116503 -182.90515 C -58.102813 -186.26049 -59.266203 -189.5144 -61.404157 -192.10045 C -60.83125 -190.6836 -60.536835 -189.16959 -60.537027 -187.64129 C -60.575787 -181.07411 -65.930869 -175.78172 -72.498054 -175.82031 C -79.065241 -175.85911 -84.357627 -181.21415 -84.319038 -187.78134 C -84.309338 -189.30285 -84.007827 -190.80837 -83.43072 -192.21621 z M -16.821866 -120.07436 C -12.287007 -119.84761 -8.6025634 -118.85557 -5.7682767 -117.09831 L -26.005284 -83.767013 L -12.995742 -83.767013 L -12.145665 -97.626632 C -10.331722 -97.626632 -9.0278763 -97.995076 -8.234276 -98.731991 C -7.38399 -99.468905 -6.7318089 -100.71611 -6.2783231 -102.47336 L -1.4315905 -102.47336 L -1.5168566 -83.341716 C 0.63720134 -82.718173 3.35818 -82.066508 6.6459527 -81.38628 L 6.2206556 -77.304875 L -1.9421536 -77.304875 L -1.9421536 -62.084615 L -12.995742 -62.084615 L -12.995742 -77.304875 L -37.56892 -77.304875 L -38.248981 -80.36567 L -16.821866 -120.07436 z M -60.951988 -119.73381 C -57.267416 -119.73381 -54.007544 -119.11073 -51.173257 -117.86364 C -48.33897 -116.67324 -46.128304 -114.97237 -44.541104 -112.76163 C -42.953903 -110.60757 -42.160371 -108.11368 -42.160371 -105.27939 C -42.160371 -102.10499 -43.095772 -99.384015 -44.966401 -97.116586 C -46.83703 -94.849156 -49.614653 -93.120223 -53.299226 -91.929822 C -48.650995 -90.909479 -45.39164 -89.237189 -43.521011 -86.913074 C -41.650382 -84.588959 -40.714981 -81.442892 -40.714981 -77.474891 C -40.714981 -74.017061 -41.76367 -71.069506 -43.861042 -68.632019 C -45.901728 -66.194533 -48.566063 -64.380375 -51.853836 -63.189974 C -55.141608 -61.999574 -58.542832 -61.404554 -62.057347 -61.404554 C -67.159063 -61.404554 -71.495171 -62.453243 -75.066372 -64.550615 C -78.580888 -66.647987 -80.338402 -69.510317 -80.338402 -73.138204 C -80.338402 -75.235577 -79.714801 -76.851222 -78.467715 -77.984937 C -77.220629 -79.175337 -75.661627 -79.770358 -73.790998 -79.770358 C -71.863683 -79.770358 -69.908173 -79.005405 -67.924173 -77.474891 C -68.434344 -76.397862 -68.689501 -75.094016 -68.689501 -73.563501 C -68.689501 -71.749558 -68.151124 -70.275781 -67.074095 -69.142066 C -65.940381 -68.008351 -64.268091 -67.441394 -62.057347 -67.441394 C -57.182374 -67.441394 -54.744615 -70.814037 -54.744615 -77.55964 C -54.744615 -81.244213 -55.935173 -84.10706 -58.315974 -86.147746 C -60.640089 -88.188433 -63.956088 -89.208541 -68.264204 -89.208541 L -68.264204 -94.480571 C -59.931401 -95.1608 -55.765225 -98.760535 -55.765225 -105.27939 C -55.765225 -108.56717 -56.275021 -110.97583 -57.295364 -112.50634 C -58.315707 -114.09354 -59.704777 -114.88759 -61.462035 -114.88759 C -63.559407 -114.88759 -65.146472 -114.15071 -66.223501 -112.67688 C -67.243845 -111.20305 -67.754157 -109.41747 -67.754157 -107.3201 C -67.754157 -105.44947 -67.357132 -103.77718 -66.563532 -102.30335 C -68.150733 -100.60278 -70.191467 -99.752084 -72.685639 -99.752084 C -74.953069 -99.752084 -76.710583 -100.43233 -77.957669 -101.79279 C -79.204755 -103.15324 -79.828356 -104.91076 -79.828356 -107.06482 C -79.828356 -109.8991 -78.864374 -112.25164 -76.937059 -114.12227 C -74.953058 -116.04958 -72.515817 -117.46671 -69.624844 -118.37369 C -66.677186 -119.28066 -63.786275 -119.73381 -60.951988 -119.73381 z M -144.9603 -118.88373 L -140.79363 -118.88373 C -138.63957 -118.82705 -133.9345 -118.79847 -126.67873 -118.79847 C -119.13952 -118.79847 -114.23646 -118.82705 -111.96903 -118.88373 L -107.88762 -118.88373 L -106.18695 -115.22762 C -107.26398 -113.52705 -109.30472 -109.84261 -112.30906 -104.17404 C -115.3134 -98.505463 -118.14767 -92.496548 -120.8119 -86.147746 C -123.47613 -79.798944 -124.80804 -74.838719 -124.80804 -71.267517 C -124.80804 -68.433231 -123.81651 -66.307789 -121.83251 -64.890646 C -123.75983 -62.566531 -126.22565 -61.404554 -129.22999 -61.404554 C -132.00759 -61.404554 -134.16161 -62.169506 -135.69213 -63.700021 C -137.22264 -65.230536 -137.9876 -67.356494 -137.9876 -70.077409 C -137.9876 -73.478553 -137.166 -77.077772 -135.52211 -80.875717 C -133.87823 -84.730347 -130.93016 -89.945728 -126.67873 -96.521273 L -116.64575 -111.9963 L -136.03216 -111.9963 C -136.82576 -109.44544 -137.30749 -106.44124 -137.47755 -102.98341 C -138.49789 -102.81335 -139.54658 -102.72813 -140.62361 -102.72813 C -141.75733 -102.72813 -142.86266 -102.81335 -143.93969 -102.98341 L -146.32042 -117.60836 L -144.9603 -118.88373 z M -92.667365 -101.28274 C -90.683364 -101.28274 -89.209587 -100.68772 -88.24593 -99.497319 C -87.225586 -98.363604 -86.715274 -96.776539 -86.715274 -94.735852 C -86.715274 -92.695166 -87.225586 -91.107584 -88.24593 -89.973869 C -89.209587 -88.840154 -90.683364 -88.273198 -92.667365 -88.273198 C -94.651366 -88.273198 -96.153724 -88.840154 -97.174067 -89.973869 C -98.137724 -91.16427 -98.619457 -92.751852 -98.619457 -94.735852 C -98.619457 -96.833225 -98.137724 -98.448354 -97.174067 -99.582068 C -96.153724 -100.71578 -94.651366 -101.28274 -92.667365 -101.28274 z M -92.667365 -74.498845 C -90.683364 -74.498845 -89.209587 -73.903824 -88.24593 -72.713424 C -87.225586 -71.579709 -86.715274 -69.992127 -86.715274 -67.951441 C -86.715274 -65.910754 -87.225586 -64.323689 -88.24593 -63.189974 C -89.209587 -62.05626 -90.683364 -61.489303 -92.667365 -61.489303 C -94.651366 -61.489303 -96.153724 -62.05626 -97.174067 -63.189974 C -98.137724 -64.380375 -98.619457 -65.96744 -98.619457 -67.951441 C -98.619457 -70.048813 -98.137724 -71.664459 -97.174067 -72.798173 C -96.153724 -73.931888 -94.651366 -74.498845 -92.667365 -74.498845 z " /></g></svg>
