<?xml version="1.0" encoding="UTF-8" standalone="no"?>
<!-- Created with Inkscape (http://www.inkscape.org/) -->

<svg
   width="172.6701mm"
   height="172.6701mm"
   viewBox="0 0 172.6701 172.6701"
   version="1.1"
   id="svg1"
   xml:space="preserve"
   xmlns="http://www.w3.org/2000/svg"
   xmlns:svg="http://www.w3.org/2000/svg"><defs
     id="defs1" /><g
     id="layer1"
     transform="translate(157.25102,198.81012)"><path
       id="path5"
       style="fill:#ffffff;fill-opacity:1;stroke-width:0.805188;stroke-linecap:round;stroke-linejoin:round"
       d="M -2.0863309 -198.17657 L -10.088943 -183.11289 L -10.930235 -165.68398 L -19.198981 -165.68398 L -11.423229 -155.47426 L -12.166336 -140.07934 C -28.353216 -157.12094 -50.823548 -166.77435 -74.327399 -166.78417 C -103.64471 -166.77397 -130.92652 -151.79225 -146.66717 -127.05894 L -157.25102 -127.05894 L -149.61996 -115.86014 L -157.25102 -26.140039 L -8.5138455 -26.140039 L 15.419061 -26.140039 L 8.0799737 -154.80195 L 15.419061 -165.68398 L 7.4593397 -165.68398 L 6.4490654 -183.39297 L -2.0863309 -198.17657 z M -83.43072 -192.21621 C -85.584619 -189.65499 -86.77489 -186.4211 -86.795372 -183.07465 C -86.842092 -175.15518 -80.459903 -168.69733 -72.540428 -168.65072 C -64.621155 -168.60402 -58.163395 -174.98588 -58.116503 -182.90515 C -58.102813 -186.26049 -59.266203 -189.5144 -61.404157 -192.10045 C -60.83125 -190.6836 -60.536835 -189.16959 -60.537027 -187.64129 C -60.575787 -181.07411 -65.930869 -175.78172 -72.498054 -175.82031 C -79.065241 -175.85911 -84.357627 -181.21415 -84.319038 -187.78134 C -84.309338 -189.30285 -84.007827 -190.80837 -83.43072 -192.21621 z M -14.738789 -119.56379 C -7.9931861 -119.56379 -2.8349654 -117.69351 0.73623586 -113.95225 C 4.3641229 -110.21099 6.1782809 -104.7971 6.1782809 -97.711381 C 6.1782809 -88.811721 3.4006583 -81.216258 -2.1545438 -74.924142 C -7.6530601 -68.688711 -15.645547 -64.09693 -26.132408 -61.149272 L -28.173111 -65.400692 C -22.504537 -67.838179 -17.941337 -70.956182 -14.483507 -74.754126 C -11.025677 -78.608756 -8.7303035 -83.086732 -7.5965888 -88.188448 C -10.77099 -86.601248 -13.860413 -85.807715 -16.864757 -85.807715 C -22.53333 -85.807715 -27.011306 -87.338137 -30.299079 -90.399166 C -33.530166 -93.460196 -35.145812 -97.598308 -35.145812 -102.8134 C -35.145812 -106.04448 -34.295118 -108.93539 -32.594546 -111.48625 C -30.837288 -114.03711 -28.428627 -116.0212 -25.367597 -117.43834 C -22.249882 -118.85549 -18.70679 -119.56379 -14.738789 -119.56379 z M -72.047952 -119.05375 L -67.796532 -118.969 C -61.787844 -118.85563 -58.613713 -118.79847 -58.273599 -118.79847 L -46.199401 -118.969 L -43.733401 -117.18306 L -44.498729 -110.72092 L -65.585814 -110.72092 L -66.776439 -96.521273 C -63.828781 -97.258188 -61.164446 -97.626632 -58.783645 -97.626632 C -53.171758 -97.626632 -48.608557 -96.124274 -45.094042 -93.11993 C -41.52284 -90.172272 -39.737263 -85.836165 -39.737263 -80.110905 C -39.737263 -76.539704 -40.587439 -73.336993 -42.288011 -70.502706 C -43.931898 -67.66842 -46.313012 -65.429173 -49.430728 -63.785287 C -52.548443 -62.198086 -56.232887 -61.404554 -60.484317 -61.404554 C -63.942147 -61.404554 -67.088214 -61.886286 -69.9225 -62.849943 C -72.700101 -63.813601 -74.882187 -65.14551 -76.469388 -66.846082 C -78.056588 -68.60334 -78.850638 -70.559366 -78.850638 -72.713424 C -78.850638 -74.980853 -78.227037 -76.709787 -76.979951 -77.900188 C -75.732864 -79.147274 -74.201926 -79.770358 -72.387983 -79.770358 C -71.36764 -79.770358 -70.347531 -79.572362 -69.327188 -79.175562 C -68.250159 -78.778762 -67.286694 -78.211805 -66.436408 -77.474891 C -66.94658 -76.28449 -67.201736 -75.037289 -67.201736 -73.733517 C -67.201736 -71.862888 -66.662843 -70.332466 -65.585814 -69.142066 C -64.452099 -67.951665 -62.751746 -67.356645 -60.484317 -67.356645 C -55.382601 -67.356645 -52.831554 -71.608045 -52.831554 -80.110905 C -52.831554 -84.135593 -53.625087 -87.054567 -55.212287 -88.86851 C -56.799488 -90.73914 -58.925446 -91.674541 -61.589676 -91.674541 C -63.233562 -91.674541 -64.990559 -91.36274 -66.861188 -90.739197 C -68.731818 -90.115654 -70.574039 -89.236897 -72.387983 -88.103182 L -77.0647 -92.609884 L -74.853982 -116.75776 L -72.047952 -119.05375 z M -144.66264 -118.88373 L -140.49597 -118.88373 C -138.34191 -118.82705 -133.63736 -118.79847 -126.38159 -118.79847 C -118.84238 -118.79847 -113.9388 -118.82705 -111.67137 -118.88373 L -107.58997 -118.88373 L -105.8893 -115.22762 C -106.96633 -113.52705 -109.00706 -109.84261 -112.0114 -104.17404 C -115.01575 -98.505463 -117.85001 -92.496548 -120.51424 -86.147746 C -123.17847 -79.798944 -124.5109 -74.838719 -124.5109 -71.267517 C -124.5109 -68.433231 -123.51885 -66.307789 -121.53485 -64.890646 C -123.46217 -62.566531 -125.92799 -61.404554 -128.93234 -61.404554 C -131.70994 -61.404554 -133.86396 -62.169506 -135.39447 -63.700021 C -136.92499 -65.230536 -137.69046 -67.356494 -137.69046 -70.077409 C -137.69046 -73.478553 -136.86834 -77.077772 -135.22446 -80.875717 C -133.58057 -84.730347 -130.63302 -89.945728 -126.38159 -96.521273 L -116.34809 -111.9963 L -135.7345 -111.9963 C -136.5281 -109.44544 -137.00984 -106.44124 -137.17989 -102.98341 C -138.20024 -102.81335 -139.24893 -102.72813 -140.32595 -102.72813 C -141.45967 -102.72813 -142.565 -102.81335 -143.64203 -102.98341 L -146.02276 -117.60836 L -144.66264 -118.88373 z M -15.248835 -113.69697 C -17.686322 -113.69697 -19.557124 -112.76157 -20.860895 -110.89094 C -22.164667 -109.02031 -22.816332 -106.35597 -22.816332 -102.89814 C -22.816332 -99.383629 -22.108023 -96.634587 -20.69088 -94.650586 C -19.217051 -92.723271 -17.147737 -91.759807 -14.483507 -91.759807 C -12.159392 -91.759807 -9.5802815 -92.723271 -6.7459948 -94.650586 L -6.7459948 -95.755945 C -6.7459948 -101.93469 -7.4262394 -106.46931 -8.7866971 -109.36028 C -10.147155 -112.25126 -12.301177 -113.69697 -15.248835 -113.69697 z M -92.370226 -101.28274 C -90.386225 -101.28274 -88.911931 -100.68772 -87.948273 -99.497319 C -86.92793 -98.363604 -86.418134 -96.776539 -86.418134 -94.735852 C -86.418134 -92.695166 -86.92793 -91.107584 -87.948273 -89.973869 C -88.911931 -88.840154 -90.386225 -88.273198 -92.370226 -88.273198 C -94.354226 -88.273198 -95.856067 -88.840154 -96.876411 -89.973869 C -97.840068 -91.16427 -98.3218 -92.751852 -98.3218 -94.735852 C -98.3218 -96.833225 -97.840068 -98.448354 -96.876411 -99.582068 C -95.856067 -100.71578 -94.354226 -101.28274 -92.370226 -101.28274 z M -92.370226 -74.498845 C -90.386225 -74.498845 -88.911931 -73.903824 -87.948273 -72.713424 C -86.92793 -71.579709 -86.418134 -69.992127 -86.418134 -67.951441 C -86.418134 -65.910754 -86.92793 -64.323689 -87.948273 -63.189974 C -88.911931 -62.05626 -90.386225 -61.489303 -92.370226 -61.489303 C -94.354226 -61.489303 -95.856067 -62.05626 -96.876411 -63.189974 C -97.840068 -64.380375 -98.3218 -65.96744 -98.3218 -67.951441 C -98.3218 -70.048813 -97.840068 -71.664459 -96.876411 -72.798173 C -95.856067 -73.931888 -94.354226 -74.498845 -92.370226 -74.498845 z " /></g></svg>
