<?xml version="1.0" encoding="UTF-8" standalone="no"?>
<!-- Created with Inkscape (http://www.inkscape.org/) -->

<svg
   width="172.6701mm"
   height="172.6701mm"
   viewBox="0 0 172.6701 172.6701"
   version="1.1"
   id="svg1"
   xml:space="preserve"
   xmlns="http://www.w3.org/2000/svg"
   xmlns:svg="http://www.w3.org/2000/svg"><defs
     id="defs1" /><g
     id="layer1"
     transform="translate(157.25102,198.81012)"><path
       id="path5"
       style="fill:#ffffff;fill-opacity:1;stroke-width:0.805188;stroke-linecap:round;stroke-linejoin:round"
       d="M -2.0863309 -198.17657 L -10.088943 -183.11289 L -10.930235 -165.68398 L -19.198981 -165.68398 L -11.423229 -155.47426 L -12.166336 -140.07934 C -28.353216 -157.12094 -50.823548 -166.77435 -74.327399 -166.78417 C -103.64471 -166.77397 -130.92652 -151.79225 -146.66717 -127.05894 L -157.25102 -127.05894 L -149.61996 -115.86014 L -157.25102 -26.140039 L -8.5138455 -26.140039 L 15.419061 -26.140039 L 8.0799737 -154.80195 L 15.419061 -165.68398 L 7.4593397 -165.68398 L 6.4490654 -183.39297 L -2.0863309 -198.17657 z M -83.43072 -192.21621 C -85.584619 -189.65499 -86.77489 -186.4211 -86.795372 -183.07465 C -86.842092 -175.15518 -80.459903 -168.69733 -72.540428 -168.65072 C -64.621155 -168.60402 -58.163395 -174.98588 -58.116503 -182.90515 C -58.102813 -186.26049 -59.266203 -189.5144 -61.404157 -192.10045 C -60.83125 -190.6836 -60.536835 -189.16959 -60.537027 -187.64129 C -60.575787 -181.07411 -65.930869 -175.78172 -72.498054 -175.82031 C -79.065241 -175.85911 -84.357627 -181.21415 -84.319038 -187.78134 C -84.309338 -189.30285 -84.007827 -190.80837 -83.43072 -192.21621 z M -25.803746 -131.9527 L -20.923424 -129.73423 L -20.923424 -44.247978 C -19.050024 -43.163378 -16.09163 -42.177419 -12.04903 -41.290019 C -8.0064304 -40.501219 -4.8020635 -40.00824 -2.4356636 -39.81104 L -2.8795641 -32.711731 L -63.222651 -32.711731 L -62.927062 -39.81104 C -54.151662 -40.79704 -47.446727 -42.275978 -42.812527 -44.247978 L -42.812527 -115.09223 L -62.630956 -115.09223 L -62.630956 -123.67052 C -56.320556 -124.16352 -49.812916 -125.10028 -43.108116 -126.48068 C -36.403317 -127.95968 -30.635146 -129.7835 -25.803746 -131.9527 z M -135.54588 -131.50932 L -128.29878 -131.50932 C -124.55198 -131.41072 -116.36811 -131.36101 -103.74731 -131.36101 C -90.63351 -131.36101 -82.10424 -131.41072 -78.16024 -131.50932 L -71.061449 -131.50932 L -68.10349 -125.1495 C -69.97689 -122.1915 -73.526136 -115.78225 -78.751936 -105.92225 C -83.977735 -96.06225 -88.908047 -85.610774 -93.542247 -74.567574 C -98.176447 -63.524375 -100.49324 -54.896716 -100.49324 -48.684917 C -100.49324 -43.754917 -98.767816 -40.05757 -95.316816 -37.59257 C -98.669216 -33.549971 -102.95845 -31.528858 -108.18425 -31.528858 C -113.01565 -31.528858 -116.76219 -32.859696 -119.42439 -35.521896 C -122.08659 -38.184096 -123.41794 -41.881959 -123.41794 -46.614759 C -123.41794 -52.530758 -121.9882 -58.791392 -119.1288 -65.397592 C -116.2694 -72.102391 -111.14231 -81.173835 -103.74731 -92.611434 L -86.295144 -119.52917 L -120.01608 -119.52917 C -121.39648 -115.09217 -122.23486 -109.86669 -122.53066 -103.85209 C -124.30546 -103.55629 -126.12928 -103.40819 -128.00268 -103.40819 C -129.97468 -103.40819 -131.8974 -103.55629 -133.7708 -103.85209 L -137.91215 -129.29085 L -135.54588 -131.50932 z " /></g></svg>
