<?xml version="1.0" encoding="UTF-8" standalone="no"?>
<!-- Created with Inkscape (http://www.inkscape.org/) -->

<svg
   width="172.6701mm"
   height="172.6701mm"
   viewBox="0 0 172.6701 172.6701"
   version="1.1"
   id="svg1"
   xml:space="preserve"
   xmlns="http://www.w3.org/2000/svg"
   xmlns:svg="http://www.w3.org/2000/svg"><defs
     id="defs1" /><g
     id="layer1"
     transform="translate(157.25102,198.81012)"><path
       id="path5"
       style="fill:#ffffff;fill-opacity:1;stroke-width:0.805188;stroke-linecap:round;stroke-linejoin:round"
       d="M -2.0863309 -198.17657 L -10.088943 -183.11289 L -10.930235 -165.68398 L -19.198981 -165.68398 L -11.423229 -155.47426 L -12.166336 -140.07934 C -28.353216 -157.12094 -50.823548 -166.77435 -74.327399 -166.78417 C -103.64471 -166.77397 -130.92652 -151.79225 -146.66717 -127.05894 L -157.25102 -127.05894 L -149.61996 -115.86014 L -157.25102 -26.140039 L -8.5138455 -26.140039 L 15.419061 -26.140039 L 8.0799737 -154.80195 L 15.419061 -165.68398 L 7.4593397 -165.68398 L 6.4490654 -183.39297 L -2.0863309 -198.17657 z M -83.43072 -192.21621 C -85.584619 -189.65499 -86.77489 -186.4211 -86.795372 -183.07465 C -86.842092 -175.15518 -80.459903 -168.69733 -72.540428 -168.65072 C -64.621155 -168.60402 -58.163395 -174.98588 -58.116503 -182.90515 C -58.102813 -186.26049 -59.266203 -189.5144 -61.404157 -192.10045 C -60.83125 -190.6836 -60.536835 -189.16959 -60.537027 -187.64129 C -60.575787 -181.07411 -65.930869 -175.78172 -72.498054 -175.82031 C -79.065241 -175.85911 -84.357627 -181.21415 -84.319038 -187.78134 C -84.309338 -189.30285 -84.007827 -190.80837 -83.43072 -192.21621 z M -56.530553 -119.73381 C -50.691922 -119.73381 -46.043497 -118.28861 -42.585668 -115.39764 C -39.127838 -112.56335 -37.398904 -108.56711 -37.398904 -103.40871 C -37.398904 -98.873849 -39.127838 -94.026912 -42.585668 -88.86851 C -46.043497 -83.766794 -51.740611 -77.616529 -59.676614 -70.41744 L -36.803592 -70.41744 L -36.803592 -62.084615 L -75.321654 -62.084615 L -75.321654 -67.016097 C -69.029537 -73.081471 -64.126473 -78.268272 -60.611958 -82.576388 C -57.097442 -86.884504 -54.574459 -90.852684 -53.043944 -94.480571 C -51.456743 -98.108458 -50.663211 -101.84955 -50.663211 -105.70418 C -50.663211 -111.82623 -52.703945 -114.88759 -56.785318 -114.88759 C -58.599261 -114.88759 -60.073039 -114.0369 -61.206753 -112.33633 C -62.340468 -110.69244 -62.907425 -108.65171 -62.907425 -106.21422 C -62.907425 -104.51365 -62.312404 -102.89852 -61.122004 -101.36801 C -62.085661 -100.46103 -63.190994 -99.752209 -64.438081 -99.242037 C -65.628481 -98.731866 -66.819038 -98.476709 -68.009439 -98.476709 C -70.050125 -98.476709 -71.750479 -99.10031 -73.110936 -100.3474 C -74.471394 -101.65117 -75.151638 -103.52197 -75.151638 -105.95946 C -75.151638 -108.567 -74.386169 -110.91953 -72.855655 -113.01691 C -71.32514 -115.11428 -69.171118 -116.75799 -66.393517 -117.94839 C -63.55923 -119.13879 -60.271811 -119.73381 -56.530553 -119.73381 z M -10.869774 -119.13901 L -8.0642606 -117.86364 L -8.0642606 -68.716769 C -6.9872316 -68.093226 -5.2863615 -67.526269 -2.9622464 -67.016097 C -0.63813126 -66.562611 1.2040904 -66.279392 2.564548 -66.16602 L 2.3092665 -62.084615 L -32.382156 -62.084615 L -32.212141 -66.16602 C -27.16711 -66.732877 -23.312735 -67.583054 -20.648505 -68.716769 L -20.648505 -109.44555 L -32.042125 -109.44555 L -32.042125 -114.37703 C -28.414238 -114.66046 -24.673151 -115.19935 -20.818521 -115.99295 C -16.963891 -116.84324 -13.647375 -117.89193 -10.869774 -119.13901 z M -140.87889 -118.88373 L -136.71222 -118.88373 C -134.55816 -118.82705 -129.85361 -118.79847 -122.59784 -118.79847 C -115.05864 -118.79847 -110.15505 -118.82705 -107.88762 -118.88373 L -103.80622 -118.88373 L -102.10555 -115.22762 C -103.18258 -113.52705 -105.22331 -109.84261 -108.22766 -104.17404 C -111.232 -98.505463 -114.06627 -92.496548 -116.7305 -86.147746 C -119.39473 -79.798944 -120.72715 -74.838719 -120.72715 -71.267517 C -120.72715 -68.433231 -119.73511 -66.307789 -117.75111 -64.890646 C -119.67842 -62.566531 -122.14424 -61.404554 -125.14859 -61.404554 C -127.92619 -61.404554 -130.08021 -62.169506 -131.61072 -63.700021 C -133.14124 -65.230536 -133.90619 -67.356494 -133.90619 -70.077409 C -133.90619 -73.478553 -133.0846 -77.077772 -131.44071 -80.875717 C -129.79682 -84.730347 -126.84927 -89.945728 -122.59784 -96.521273 L -112.56434 -111.9963 L -131.95076 -111.9963 C -132.74436 -109.44544 -133.22609 -106.44124 -133.39615 -102.98341 C -134.41649 -102.81335 -135.46518 -102.72813 -136.54221 -102.72813 C -137.67592 -102.72813 -138.78125 -102.81335 -139.85828 -102.98341 L -142.23902 -117.60836 L -140.87889 -118.88373 z M -88.585961 -101.28274 C -86.60196 -101.28274 -85.128183 -100.68772 -84.164525 -99.497319 C -83.144182 -98.363604 -82.634386 -96.776539 -82.634386 -94.735852 C -82.634386 -92.695166 -83.144182 -91.107584 -84.164525 -89.973869 C -85.128183 -88.840154 -86.60196 -88.273198 -88.585961 -88.273198 C -90.569961 -88.273198 -92.072319 -88.840154 -93.092662 -89.973869 C -94.05632 -91.16427 -94.538052 -92.751852 -94.538052 -94.735852 C -94.538052 -96.833225 -94.05632 -98.448354 -93.092662 -99.582068 C -92.072319 -100.71578 -90.569961 -101.28274 -88.585961 -101.28274 z M -88.585961 -74.498845 C -86.60196 -74.498845 -85.128183 -73.903824 -84.164525 -72.713424 C -83.144182 -71.579709 -82.634386 -69.992127 -82.634386 -67.951441 C -82.634386 -65.910754 -83.144182 -64.323689 -84.164525 -63.189974 C -85.128183 -62.05626 -86.60196 -61.489303 -88.585961 -61.489303 C -90.569961 -61.489303 -92.072319 -62.05626 -93.092662 -63.189974 C -94.05632 -64.380375 -94.538052 -65.96744 -94.538052 -67.951441 C -94.538052 -70.048813 -94.05632 -71.664459 -93.092662 -72.798173 C -92.072319 -73.931888 -90.569961 -74.498845 -88.585961 -74.498845 z " /></g></svg>
