<?xml version="1.0" encoding="UTF-8" standalone="no"?>
<!-- Created with Inkscape (http://www.inkscape.org/) -->

<svg
   width="172.6701mm"
   height="172.6701mm"
   viewBox="0 0 172.6701 172.6701"
   version="1.1"
   id="svg1"
   xml:space="preserve"
   xmlns="http://www.w3.org/2000/svg"
   xmlns:svg="http://www.w3.org/2000/svg"><defs
     id="defs1" /><g
     id="layer1"
     transform="translate(157.25102,198.81012)"><path
       id="path5"
       style="fill:#ffffff;fill-opacity:1;stroke-width:0.805188;stroke-linecap:round;stroke-linejoin:round"
       d="M -2.0863309 -198.17657 L -10.088943 -183.11289 L -10.930235 -165.68398 L -19.198981 -165.68398 L -11.423229 -155.47426 L -12.166336 -140.07934 C -28.353216 -157.12094 -50.823548 -166.77435 -74.327399 -166.78417 C -103.64471 -166.77397 -130.92652 -151.79225 -146.66717 -127.05894 L -157.25102 -127.05894 L -149.61996 -115.86014 L -157.25102 -26.140039 L -8.5138455 -26.140039 L 15.419061 -26.140039 L 8.0799737 -154.80195 L 15.419061 -165.68398 L 7.4593397 -165.68398 L 6.4490654 -183.39297 L -2.0863309 -198.17657 z M -83.43072 -192.21621 C -85.584619 -189.65499 -86.77489 -186.4211 -86.795372 -183.07465 C -86.842092 -175.15518 -80.459903 -168.69733 -72.540428 -168.65072 C -64.621155 -168.60402 -58.163395 -174.98588 -58.116503 -182.90515 C -58.102813 -186.26049 -59.266203 -189.5144 -61.404157 -192.10045 C -60.83125 -190.6836 -60.536835 -189.16959 -60.537027 -187.64129 C -60.575787 -181.07411 -65.930869 -175.78172 -72.498054 -175.82031 C -79.065241 -175.85911 -84.357627 -181.21415 -84.319038 -187.78134 C -84.309338 -189.30285 -84.007827 -190.80837 -83.43072 -192.21621 z M -13.080492 -119.73381 C -9.3959191 -119.73381 -6.1365641 -119.11073 -3.3022773 -117.86364 C -0.46799057 -116.67324 1.7426754 -114.97237 3.329876 -112.76163 C 4.9170766 -110.60757 5.7106092 -108.11368 5.7106092 -105.27939 C 5.7106092 -102.10499 4.7752082 -99.384015 2.904579 -97.116586 C 1.0339497 -94.849156 -1.743673 -93.120223 -5.4282457 -91.929822 C -0.78001547 -90.909479 2.4793395 -89.237189 4.3499688 -86.913074 C 6.220598 -84.588959 7.155999 -81.442892 7.155999 -77.474891 C 7.155999 -74.017061 6.10731 -71.069506 4.0099378 -68.632019 C 1.9692514 -66.194533 -0.69456654 -64.380375 -3.9823392 -63.189974 C -7.2701118 -61.999574 -10.671335 -61.404554 -14.185851 -61.404554 C -19.287567 -61.404554 -23.624191 -62.453243 -27.195393 -64.550615 C -30.709908 -66.647987 -32.466905 -69.510317 -32.466905 -73.138204 C -32.466905 -75.235577 -31.843822 -76.851222 -30.596735 -77.984937 C -29.349649 -79.175337 -27.790647 -79.770358 -25.920018 -79.770358 C -23.992703 -79.770358 -22.037194 -79.005405 -20.053193 -77.474891 C -20.563364 -76.397862 -20.818004 -75.094016 -20.818004 -73.563501 C -20.818004 -71.749558 -20.279628 -70.275781 -19.202599 -69.142066 C -18.068884 -68.008351 -16.396594 -67.441394 -14.185851 -67.441394 C -9.3108775 -67.441394 -6.8736356 -70.814037 -6.8736356 -77.55964 C -6.8736356 -81.244213 -8.0641929 -84.10706 -10.444994 -86.147746 C -12.769109 -88.188433 -16.085108 -89.208541 -20.393224 -89.208541 L -20.393224 -94.480571 C -12.060421 -95.1608 -7.8937283 -98.760535 -7.8937283 -105.27939 C -7.8937283 -108.56717 -8.404041 -110.97583 -9.4243843 -112.50634 C -10.444727 -114.09354 -11.833797 -114.88759 -13.591055 -114.88759 C -15.688427 -114.88759 -17.275492 -114.15071 -18.352521 -112.67688 C -19.372865 -111.20305 -19.883177 -109.41747 -19.883177 -107.3201 C -19.883177 -105.44947 -19.486153 -103.77718 -18.692552 -102.30335 C -20.279753 -100.60278 -22.320487 -99.752084 -24.814659 -99.752084 C -27.082089 -99.752084 -28.839086 -100.43233 -30.086172 -101.79279 C -31.333258 -103.15324 -31.956859 -104.91076 -31.956859 -107.06482 C -31.956859 -109.8991 -30.993394 -112.25164 -29.066079 -114.12227 C -27.082079 -116.04958 -24.64432 -117.46671 -21.753347 -118.37369 C -18.805689 -119.28066 -15.914779 -119.73381 -13.080492 -119.73381 z M -56.275271 -119.64906 C -49.64304 -119.64906 -44.569527 -117.15466 -41.055012 -112.16631 C -37.48381 -107.23465 -35.698233 -100.06428 -35.698233 -90.654448 C -35.698233 -81.244616 -37.48381 -74.017081 -41.055012 -68.97205 C -44.569527 -63.983706 -49.64304 -61.489303 -56.275271 -61.489303 C -62.907502 -61.489303 -68.009079 -63.983706 -71.58028 -68.97205 C -75.151482 -74.017081 -76.937059 -81.244616 -76.937059 -90.654448 C -76.937059 -100.00759 -75.151482 -107.17797 -71.58028 -112.16631 C -68.009079 -117.15466 -62.907502 -119.64906 -56.275271 -119.64906 z M -125.91391 -119.56379 C -119.16831 -119.56379 -114.00957 -117.69351 -110.43837 -113.95225 C -106.81049 -110.21099 -104.99685 -104.7971 -104.99685 -97.711381 C -104.99685 -88.811721 -107.77447 -81.216258 -113.32967 -74.924142 C -118.82819 -68.688711 -126.82067 -64.09693 -137.30753 -61.149272 L -139.34824 -65.400692 C -133.67966 -67.838179 -129.11646 -70.956182 -125.65863 -74.754126 C -122.2008 -78.608756 -119.90491 -83.086732 -118.7712 -88.188448 C -121.9456 -86.601248 -125.03502 -85.807715 -128.03937 -85.807715 C -133.70794 -85.807715 -138.18643 -87.338137 -141.47421 -90.399166 C -144.70529 -93.460196 -146.32042 -97.598308 -146.32042 -102.8134 C -146.32042 -106.04448 -145.47024 -108.93539 -143.76967 -111.48625 C -142.01241 -114.03711 -139.60324 -116.0212 -136.54221 -117.43834 C -133.42449 -118.85549 -129.88192 -119.56379 -125.91391 -119.56379 z M -56.275271 -115.31237 C -59.166244 -115.31237 -61.263622 -113.41351 -62.567394 -109.61556 C -63.81448 -105.81762 -64.438081 -99.497422 -64.438081 -90.654448 C -64.438081 -81.868159 -63.81448 -75.576025 -62.567394 -71.778081 C -61.263622 -68.036822 -59.166244 -66.16602 -56.275271 -66.16602 C -53.384299 -66.16602 -51.315501 -68.036822 -50.068415 -71.778081 C -48.764643 -75.576025 -48.112462 -81.868159 -48.112462 -90.654448 C -48.112462 -99.440737 -48.764643 -105.73287 -50.068415 -109.53081 C -51.315501 -113.38544 -53.384299 -115.31237 -56.275271 -115.31237 z M -126.42396 -113.69697 C -128.86145 -113.69697 -130.73225 -112.76157 -132.03602 -110.89094 C -133.33979 -109.02031 -133.99146 -106.35597 -133.99146 -102.89814 C -133.99146 -99.383629 -133.28315 -96.634587 -131.86601 -94.650586 C -130.39218 -92.723271 -128.32286 -91.759807 -125.65863 -91.759807 C -123.33452 -91.759807 -120.75541 -92.723271 -117.92112 -94.650586 L -117.92112 -95.755945 C -117.92112 -101.93469 -118.60137 -106.46931 -119.96182 -109.36028 C -121.32228 -112.25126 -123.4763 -113.69697 -126.42396 -113.69697 z M -90.116617 -101.28274 C -88.132616 -101.28274 -86.658838 -100.68772 -85.695181 -99.497319 C -84.674838 -98.363604 -84.164525 -96.776539 -84.164525 -94.735852 C -84.164525 -92.695166 -84.674838 -91.107584 -85.695181 -89.973869 C -86.658838 -88.840154 -88.132616 -88.273198 -90.116617 -88.273198 C -92.100617 -88.273198 -93.602975 -88.840154 -94.623318 -89.973869 C -95.586976 -91.16427 -96.068708 -92.751852 -96.068708 -94.735852 C -96.068708 -96.833225 -95.586976 -98.448354 -94.623318 -99.582068 C -93.602975 -100.71578 -92.100617 -101.28274 -90.116617 -101.28274 z M -90.116617 -74.498845 C -88.132616 -74.498845 -86.658838 -73.903824 -85.695181 -72.713424 C -84.674838 -71.579709 -84.164525 -69.992127 -84.164525 -67.951441 C -84.164525 -65.910754 -84.674838 -64.323689 -85.695181 -63.189974 C -86.658838 -62.05626 -88.132616 -61.489303 -90.116617 -61.489303 C -92.100617 -61.489303 -93.602975 -62.05626 -94.623318 -63.189974 C -95.586976 -64.380375 -96.068708 -65.96744 -96.068708 -67.951441 C -96.068708 -70.048813 -95.586976 -71.664459 -94.623318 -72.798173 C -93.602975 -73.931888 -92.100617 -74.498845 -90.116617 -74.498845 z " /></g></svg>
