<?xml version="1.0" encoding="UTF-8" standalone="no"?>
<!-- Created with Inkscape (http://www.inkscape.org/) -->

<svg
   width="172.6701mm"
   height="172.6701mm"
   viewBox="0 0 172.6701 172.6701"
   version="1.1"
   id="svg1"
   xml:space="preserve"
   xmlns="http://www.w3.org/2000/svg"
   xmlns:svg="http://www.w3.org/2000/svg"><defs
     id="defs1" /><g
     id="layer1"
     transform="translate(157.25102,198.81012)"><path
       id="path5"
       style="fill:#ffffff;fill-opacity:1;stroke-width:0.805188;stroke-linecap:round;stroke-linejoin:round"
       d="M -2.0863309 -198.17657 L -10.088943 -183.11289 L -10.930235 -165.68398 L -19.198981 -165.68398 L -11.423229 -155.47426 L -12.166336 -140.07934 C -28.353216 -157.12094 -50.823548 -166.77435 -74.327399 -166.78417 C -103.64471 -166.77397 -130.92652 -151.79225 -146.66717 -127.05894 L -157.25102 -127.05894 L -149.61996 -115.86014 L -157.25102 -26.140039 L -8.5138455 -26.140039 L 15.419061 -26.140039 L 8.0799737 -154.80195 L 15.419061 -165.68398 L 7.4593397 -165.68398 L 6.4490654 -183.39297 L -2.0863309 -198.17657 z M -83.43072 -192.21621 C -85.584619 -189.65499 -86.77489 -186.4211 -86.795372 -183.07465 C -86.842092 -175.15518 -80.459903 -168.69733 -72.540428 -168.65072 C -64.621155 -168.60402 -58.163395 -174.98588 -58.116503 -182.90515 C -58.102813 -186.26049 -59.266203 -189.5144 -61.404157 -192.10045 C -60.83125 -190.6836 -60.536835 -189.16959 -60.537027 -187.64129 C -60.575787 -181.07411 -65.930869 -175.78172 -72.498054 -175.82031 C -79.065241 -175.85911 -84.357627 -181.21415 -84.319038 -187.78134 C -84.309338 -189.30285 -84.007827 -190.80837 -83.43072 -192.21621 z M -123.32027 -119.73381 C -119.6357 -119.73381 -116.37635 -119.11073 -113.54206 -117.86364 C -110.70777 -116.67324 -108.49711 -114.97237 -106.90991 -112.76163 C -105.32271 -110.60757 -104.52917 -108.11368 -104.52917 -105.27939 C -104.52917 -102.10499 -105.46406 -99.384015 -107.33469 -97.116586 C -109.20532 -94.849156 -111.98294 -93.120223 -115.66751 -91.929822 C -111.01928 -90.909479 -107.75993 -89.237189 -105.8893 -86.913074 C -104.01867 -84.588959 -103.08327 -81.442892 -103.08327 -77.474891 C -103.08327 -74.017061 -104.13196 -71.069506 -106.22933 -68.632019 C -108.27001 -66.194533 -110.93435 -64.380375 -114.22212 -63.189974 C -117.50989 -61.999574 -120.91112 -61.404554 -124.42563 -61.404554 C -129.52735 -61.404554 -133.86397 -62.453243 -137.43518 -64.550615 C -140.94969 -66.647987 -142.70669 -69.510317 -142.70669 -73.138204 C -142.70669 -75.235577 -142.08309 -76.851222 -140.836 -77.984937 C -139.58892 -79.175337 -138.03043 -79.770358 -136.1598 -79.770358 C -134.23249 -79.770358 -132.27646 -79.005405 -130.29246 -77.474891 C -130.80263 -76.397862 -131.05779 -75.094016 -131.05779 -73.563501 C -131.05779 -71.749558 -130.51941 -70.275781 -129.44238 -69.142066 C -128.30867 -68.008351 -126.63638 -67.441394 -124.42563 -67.441394 C -119.55066 -67.441394 -117.11342 -70.814037 -117.11342 -77.55964 C -117.11342 -81.244213 -118.30346 -84.10706 -120.68426 -86.147746 C -123.00837 -88.188433 -126.32489 -89.208541 -130.63301 -89.208541 L -130.63301 -94.480571 C -122.3002 -95.1608 -118.13351 -98.760535 -118.13351 -105.27939 C -118.13351 -108.56717 -118.64382 -110.97583 -119.66417 -112.50634 C -120.68451 -114.09354 -122.07306 -114.88759 -123.83032 -114.88759 C -125.92769 -114.88759 -127.51528 -114.15071 -128.5923 -112.67688 C -129.61265 -111.20305 -130.12244 -109.41747 -130.12244 -107.3201 C -130.12244 -105.44947 -129.72594 -103.77718 -128.93234 -102.30335 C -130.51954 -100.60278 -132.56027 -99.752084 -135.05444 -99.752084 C -137.32187 -99.752084 -139.07887 -100.43233 -140.32595 -101.79279 C -141.57304 -103.15324 -142.19664 -104.91076 -142.19664 -107.06482 C -142.19664 -109.8991 -141.23318 -112.25164 -139.30586 -114.12227 C -137.32186 -116.04958 -134.8841 -117.46671 -131.99313 -118.37369 C -129.04547 -119.28066 -126.15456 -119.73381 -123.32027 -119.73381 z M -56.317646 -119.73381 C -52.633073 -119.73381 -49.373718 -119.11073 -46.539431 -117.86364 C -43.705145 -116.67324 -41.494479 -114.97237 -39.907278 -112.76163 C -38.320078 -110.60757 -37.526545 -108.11368 -37.526545 -105.27939 C -37.526545 -102.10499 -38.461946 -99.384015 -40.332575 -97.116586 C -42.203204 -94.849156 -44.980827 -93.120223 -48.6654 -91.929822 C -44.01717 -90.909479 -40.757298 -89.237189 -38.886669 -86.913074 C -37.016039 -84.588959 -36.081155 -81.442892 -36.081155 -77.474891 C -36.081155 -74.017061 -37.129844 -71.069506 -39.227216 -68.632019 C -41.267903 -66.194533 -43.931721 -64.380375 -47.219493 -63.189974 C -50.507266 -61.999574 -53.908489 -61.404554 -57.423005 -61.404554 C -62.524721 -61.404554 -66.861345 -62.453243 -70.432547 -64.550615 C -73.947062 -66.647987 -75.70406 -69.510317 -75.70406 -73.138204 C -75.70406 -75.235577 -75.080976 -76.851222 -73.833889 -77.984937 C -72.586803 -79.175337 -71.027802 -79.770358 -69.157172 -79.770358 C -67.229857 -79.770358 -65.274348 -79.005405 -63.290347 -77.474891 C -63.800519 -76.397862 -64.055158 -75.094016 -64.055158 -73.563501 C -64.055158 -71.749558 -63.516782 -70.275781 -62.439753 -69.142066 C -61.306038 -68.008351 -59.633749 -67.441394 -57.423005 -67.441394 C -52.548032 -67.441394 -50.11079 -70.814037 -50.11079 -77.55964 C -50.11079 -81.244213 -51.30083 -84.10706 -53.681631 -86.147746 C -56.005746 -88.188433 -59.322262 -89.208541 -63.630378 -89.208541 L -63.630378 -94.480571 C -55.297575 -95.1608 -51.130882 -98.760535 -51.130882 -105.27939 C -51.130882 -108.56717 -51.641195 -110.97583 -52.661538 -112.50634 C -53.681882 -114.09354 -55.070435 -114.88759 -56.827692 -114.88759 C -58.925065 -114.88759 -60.512647 -114.15071 -61.589676 -112.67688 C -62.610019 -111.20305 -63.119815 -109.41747 -63.119815 -107.3201 C -63.119815 -105.44947 -62.723307 -103.77718 -61.929707 -102.30335 C -63.516907 -100.60278 -65.557641 -99.752084 -68.051813 -99.752084 C -70.319243 -99.752084 -72.07624 -100.43233 -73.323326 -101.79279 C -74.570412 -103.15324 -75.194013 -104.91076 -75.194013 -107.06482 C -75.194013 -109.8991 -74.230549 -112.25164 -72.303234 -114.12227 C -70.319233 -116.04958 -67.881474 -117.46671 -64.990502 -118.37369 C -62.042843 -119.28066 -59.151933 -119.73381 -56.317646 -119.73381 z M -10.232087 -119.13901 L -7.4265734 -117.86364 L -7.4265734 -68.716769 C -6.3495444 -68.093226 -4.6486744 -67.526269 -2.3245592 -67.016097 C -0.00044408752 -66.562611 1.8417776 -66.279392 3.2022352 -66.16602 L 2.9469536 -62.084615 L -31.744469 -62.084615 L -31.574453 -66.16602 C -26.529423 -66.732877 -22.675048 -67.583054 -20.010818 -68.716769 L -20.010818 -109.44555 L -31.404438 -109.44555 L -31.404438 -114.37703 C -27.776551 -114.66046 -24.035464 -115.19935 -20.180834 -115.99295 C -16.326204 -116.84324 -13.009688 -117.89193 -10.232087 -119.13901 z M -88.03354 -101.28274 C -86.049539 -101.28274 -84.575761 -100.68772 -83.612104 -99.497319 C -82.591761 -98.363604 -82.081448 -96.776539 -82.081448 -94.735852 C -82.081448 -92.695166 -82.591761 -91.107584 -83.612104 -89.973869 C -84.575761 -88.840154 -86.049539 -88.273198 -88.03354 -88.273198 C -90.01754 -88.273198 -91.519898 -88.840154 -92.540241 -89.973869 C -93.503899 -91.16427 -93.985631 -92.751852 -93.985631 -94.735852 C -93.985631 -96.833225 -93.503899 -98.448354 -92.540241 -99.582068 C -91.519898 -100.71578 -90.01754 -101.28274 -88.03354 -101.28274 z M -88.03354 -74.498845 C -86.049539 -74.498845 -84.575761 -73.903824 -83.612104 -72.713424 C -82.591761 -71.579709 -82.081448 -69.992127 -82.081448 -67.951441 C -82.081448 -65.910754 -82.591761 -64.323689 -83.612104 -63.189974 C -84.575761 -62.05626 -86.049539 -61.489303 -88.03354 -61.489303 C -90.01754 -61.489303 -91.519898 -62.05626 -92.540241 -63.189974 C -93.503899 -64.380375 -93.985631 -65.96744 -93.985631 -67.951441 C -93.985631 -70.048813 -93.503899 -71.664459 -92.540241 -72.798173 C -91.519898 -73.931888 -90.01754 -74.498845 -88.03354 -74.498845 z " /></g></svg>
