<?xml version="1.0" encoding="UTF-8" standalone="no"?>
<!-- Created with Inkscape (http://www.inkscape.org/) -->

<svg
   width="172.6701mm"
   height="172.6701mm"
   viewBox="0 0 172.6701 172.6701"
   version="1.1"
   id="svg1"
   xml:space="preserve"
   xmlns="http://www.w3.org/2000/svg"
   xmlns:svg="http://www.w3.org/2000/svg"><defs
     id="defs1" /><g
     id="layer1"
     transform="translate(157.25102,198.81012)"><path
       id="path5"
       style="fill:#ffffff;fill-opacity:1;stroke-width:0.805188;stroke-linecap:round;stroke-linejoin:round"
       d="M -2.0863309 -198.17657 L -10.088943 -183.11289 L -10.930235 -165.68398 L -19.198981 -165.68398 L -11.423229 -155.47426 L -12.166336 -140.07934 C -28.353216 -157.12094 -50.823548 -166.77435 -74.327399 -166.78417 C -103.64471 -166.77397 -130.92652 -151.79225 -146.66717 -127.05894 L -157.25102 -127.05894 L -149.61996 -115.86014 L -157.25102 -26.140039 L -8.5138455 -26.140039 L 15.419061 -26.140039 L 8.0799737 -154.80195 L 15.419061 -165.68398 L 7.4593397 -165.68398 L 6.4490654 -183.39297 L -2.0863309 -198.17657 z M -83.43072 -192.21621 C -85.584619 -189.65499 -86.77489 -186.4211 -86.795372 -183.07465 C -86.842092 -175.15518 -80.459903 -168.69733 -72.540428 -168.65072 C -64.621155 -168.60402 -58.163395 -174.98588 -58.116503 -182.90515 C -58.102813 -186.26049 -59.266203 -189.5144 -61.404157 -192.10045 C -60.83125 -190.6836 -60.536835 -189.16959 -60.537027 -187.64129 C -60.575787 -181.07411 -65.930869 -175.78172 -72.498054 -175.82031 C -79.065241 -175.85911 -84.357627 -181.21415 -84.319038 -187.78134 C -84.309338 -189.30285 -84.007827 -190.80837 -83.43072 -192.21621 z M -125.53099 -119.73381 C -119.69236 -119.73381 -115.04445 -118.28861 -111.58662 -115.39764 C -108.12879 -112.56335 -106.39986 -108.56711 -106.39986 -103.40871 C -106.39986 -98.873849 -108.12879 -94.026912 -111.58662 -88.86851 C -115.04445 -83.766794 -120.74105 -77.616529 -128.67705 -70.41744 L -105.80455 -70.41744 L -105.80455 -62.084615 L -144.32261 -62.084615 L -144.32261 -67.016097 C -138.03049 -73.081471 -133.12691 -78.268272 -129.6124 -82.576388 C -126.09788 -86.884504 -123.57542 -90.852684 -122.0449 -94.480571 C -120.4577 -98.108458 -119.66417 -101.84955 -119.66417 -105.70418 C -119.66417 -111.82623 -121.7049 -114.88759 -125.78627 -114.88759 C -127.60022 -114.88759 -129.07399 -114.0369 -130.20771 -112.33633 C -131.34142 -110.69244 -131.90838 -108.65171 -131.90838 -106.21422 C -131.90838 -104.51365 -131.31284 -102.89852 -130.12244 -101.36801 C -131.0861 -100.46103 -132.19195 -99.752209 -133.43904 -99.242037 C -134.62944 -98.731866 -135.81948 -98.476709 -137.00988 -98.476709 C -139.05056 -98.476709 -140.75143 -99.10031 -142.11189 -100.3474 C -143.47235 -101.65117 -144.15259 -103.52197 -144.15259 -105.95946 C -144.15259 -108.567 -143.38713 -110.91953 -141.85661 -113.01691 C -140.3261 -115.11428 -138.17207 -116.75799 -135.39447 -117.94839 C -132.56019 -119.13879 -129.27225 -119.73381 -125.53099 -119.73381 z M -56.828209 -119.64906 C -50.195978 -119.64906 -45.122465 -117.15466 -41.60795 -112.16631 C -38.036748 -107.23465 -36.251171 -100.06428 -36.251171 -90.654448 C -36.251171 -81.244616 -38.036748 -74.017081 -41.60795 -68.97205 C -45.122465 -63.983706 -50.195978 -61.489303 -56.828209 -61.489303 C -63.46044 -61.489303 -68.562017 -63.983706 -72.133218 -68.97205 C -75.704419 -74.017081 -77.489997 -81.244616 -77.489997 -90.654448 C -77.489997 -100.00759 -75.704419 -107.17797 -72.133218 -112.16631 C -68.562017 -117.15466 -63.46044 -119.64906 -56.828209 -119.64906 z M -31.829218 -118.88373 L -27.663064 -118.88373 C -25.509006 -118.82705 -20.803938 -118.79847 -13.548164 -118.79847 C -6.0089608 -118.79847 -1.1058965 -118.82705 1.1615329 -118.88373 L 5.2429375 -118.88373 L 6.9436089 -115.22762 C 5.8665799 -113.52705 3.8258459 -109.84261 0.82150197 -104.17404 C -2.182842 -98.505463 -5.0171086 -92.496548 -7.6813382 -86.147746 C -10.345568 -79.798944 -11.677477 -74.838719 -11.677477 -71.267517 C -11.677477 -68.433231 -10.685948 -66.307789 -8.7019477 -64.890646 C -10.629263 -62.566531 -13.095085 -61.404554 -16.099429 -61.404554 C -18.87703 -61.404554 -21.031052 -62.169506 -22.561567 -63.700021 C -24.092082 -65.230536 -24.857034 -67.356494 -24.857034 -70.077409 C -24.857034 -73.478553 -24.035438 -77.077772 -22.391551 -80.875717 C -20.747665 -84.730347 -17.799594 -89.945728 -13.548164 -96.521273 L -3.5151842 -111.9963 L -22.901598 -111.9963 C -23.695198 -109.44544 -24.17693 -106.44124 -24.346988 -102.98341 C -25.367331 -102.81335 -26.41602 -102.72813 -27.493049 -102.72813 C -28.626764 -102.72813 -29.732097 -102.81335 -30.809125 -102.98341 L -33.189859 -117.60836 L -31.829218 -118.88373 z M -56.828209 -115.31237 C -59.719182 -115.31237 -61.81656 -113.41351 -63.120332 -109.61556 C -64.367418 -105.81762 -64.990502 -99.497422 -64.990502 -90.654448 C -64.990502 -81.868159 -64.367418 -75.576025 -63.120332 -71.778081 C -61.81656 -68.036822 -59.719182 -66.16602 -56.828209 -66.16602 C -53.937237 -66.16602 -51.867922 -68.036822 -50.620836 -71.778081 C -49.317064 -75.576025 -48.6654 -81.868159 -48.6654 -90.654448 C -48.6654 -99.440737 -49.317064 -105.73287 -50.620836 -109.53081 C -51.867922 -113.38544 -53.937237 -115.31237 -56.828209 -115.31237 z M -90.669554 -101.28274 C -88.685554 -101.28274 -87.211776 -100.68772 -86.248119 -99.497319 C -85.227776 -98.363604 -84.717463 -96.776539 -84.717463 -94.735852 C -84.717463 -92.695166 -85.227776 -91.107584 -86.248119 -89.973869 C -87.211776 -88.840154 -88.685554 -88.273198 -90.669554 -88.273198 C -92.653555 -88.273198 -94.155396 -88.840154 -95.175739 -89.973869 C -96.139397 -91.16427 -96.621646 -92.751852 -96.621646 -94.735852 C -96.621646 -96.833225 -96.139397 -98.448354 -95.175739 -99.582068 C -94.155396 -100.71578 -92.653555 -101.28274 -90.669554 -101.28274 z M -90.669554 -74.498845 C -88.685554 -74.498845 -87.211776 -73.903824 -86.248119 -72.713424 C -85.227776 -71.579709 -84.717463 -69.992127 -84.717463 -67.951441 C -84.717463 -65.910754 -85.227776 -64.323689 -86.248119 -63.189974 C -87.211776 -62.05626 -88.685554 -61.489303 -90.669554 -61.489303 C -92.653555 -61.489303 -94.155396 -62.05626 -95.175739 -63.189974 C -96.139397 -64.380375 -96.621646 -65.96744 -96.621646 -67.951441 C -96.621646 -70.048813 -96.139397 -71.664459 -95.175739 -72.798173 C -94.155396 -73.931888 -92.653555 -74.498845 -90.669554 -74.498845 z " /></g></svg>
