<?xml version="1.0" encoding="UTF-8" standalone="no"?>
<!-- Created with Inkscape (http://www.inkscape.org/) -->

<svg
   width="172.6701mm"
   height="172.6701mm"
   viewBox="0 0 172.6701 172.6701"
   version="1.1"
   id="svg1"
   xml:space="preserve"
   xmlns="http://www.w3.org/2000/svg"
   xmlns:svg="http://www.w3.org/2000/svg"><defs
     id="defs1" /><g
     id="layer1"
     transform="translate(157.25102,198.81012)"><path
       id="path5"
       style="fill:#ffffff;fill-opacity:1;stroke-width:0.805188;stroke-linecap:round;stroke-linejoin:round"
       d="M -2.0863309 -198.17657 L -10.088943 -183.11289 L -10.930235 -165.68398 L -19.198981 -165.68398 L -11.423229 -155.47426 L -12.166336 -140.07934 C -28.353216 -157.12094 -50.823548 -166.77435 -74.327399 -166.78417 C -103.64471 -166.77397 -130.92652 -151.79225 -146.66717 -127.05894 L -157.25102 -127.05894 L -149.61996 -115.86014 L -157.25102 -26.140039 L -8.5138455 -26.140039 L 15.419061 -26.140039 L 8.0799737 -154.80195 L 15.419061 -165.68398 L 7.4593397 -165.68398 L 6.4490654 -183.39297 L -2.0863309 -198.17657 z M -83.43072 -192.21621 C -85.584619 -189.65499 -86.77489 -186.4211 -86.795372 -183.07465 C -86.842092 -175.15518 -80.459903 -168.69733 -72.540428 -168.65072 C -64.621155 -168.60402 -58.163395 -174.98588 -58.116503 -182.90515 C -58.102813 -186.26049 -59.266203 -189.5144 -61.404157 -192.10045 C -60.83125 -190.6836 -60.536835 -189.16959 -60.537027 -187.64129 C -60.575787 -181.07411 -65.930869 -175.78172 -72.498054 -175.82031 C -79.065241 -175.85911 -84.357627 -181.21415 -84.319038 -187.78134 C -84.309338 -189.30285 -84.007827 -190.80837 -83.43072 -192.21621 z M -16.311819 -119.73381 C -12.627246 -119.73381 -9.3678914 -119.11073 -6.5336046 -117.86364 C -3.6993179 -116.67324 -1.4886519 -114.97237 0.098548685 -112.76163 C 1.6857493 -110.60757 2.4797987 -108.11368 2.4797987 -105.27939 C 2.4797987 -102.10499 1.5443977 -99.384015 -0.32623159 -97.116586 C -2.1968608 -94.849156 -4.9744835 -93.120223 -8.6590563 -91.929822 C -4.010826 -90.909479 -0.75147103 -89.237189 1.1191582 -86.913074 C 2.9897875 -84.588959 3.9251885 -81.442892 3.9251885 -77.474891 C 3.9251885 -74.017061 2.8764995 -71.069506 0.7791273 -68.632019 C -1.2615592 -66.194533 -3.9258939 -64.380375 -7.2136665 -63.189974 C -10.501439 -61.999574 -13.902662 -61.404554 -17.417178 -61.404554 C -22.518894 -61.404554 -26.855519 -62.453243 -30.42672 -64.550615 C -33.941235 -66.647987 -35.698233 -69.510317 -35.698233 -73.138204 C -35.698233 -75.235577 -35.074632 -76.851222 -33.827546 -77.984937 C -32.58046 -79.175337 -31.021458 -79.770358 -29.150829 -79.770358 C -27.223514 -79.770358 -25.268004 -79.005405 -23.284003 -77.474891 C -23.794175 -76.397862 -24.049331 -75.094016 -24.049331 -73.563501 C -24.049331 -71.749558 -23.510955 -70.275781 -22.433926 -69.142066 C -21.300211 -68.008351 -19.627922 -67.441394 -17.417178 -67.441394 C -12.542205 -67.441394 -10.104446 -70.814037 -10.104446 -77.55964 C -10.104446 -81.244213 -11.295003 -84.10706 -13.675804 -86.147746 C -15.999919 -88.188433 -19.315918 -89.208541 -23.624034 -89.208541 L -23.624034 -94.480571 C -15.291231 -95.1608 -11.125056 -98.760535 -11.125056 -105.27939 C -11.125056 -108.56717 -11.635368 -110.97583 -12.655712 -112.50634 C -13.676055 -114.09354 -15.064608 -114.88759 -16.821866 -114.88759 C -18.919238 -114.88759 -20.506303 -114.15071 -21.583332 -112.67688 C -22.603675 -111.20305 -23.113988 -109.41747 -23.113988 -107.3201 C -23.113988 -105.44947 -22.71748 -103.77718 -21.92388 -102.30335 C -23.51108 -100.60278 -25.551298 -99.752084 -28.04547 -99.752084 C -30.312899 -99.752084 -32.070413 -100.43233 -33.317499 -101.79279 C -34.564586 -103.15324 -35.188186 -104.91076 -35.188186 -107.06482 C -35.188186 -109.8991 -34.224205 -112.25164 -32.29689 -114.12227 C -30.312889 -116.04958 -27.875647 -117.46671 -24.984675 -118.37369 C -22.037017 -119.28066 -19.146106 -119.73381 -16.311819 -119.73381 z M -59.506599 -119.64906 C -52.874368 -119.64906 -47.800855 -117.15466 -44.286339 -112.16631 C -40.715138 -107.23465 -38.92956 -100.06428 -38.92956 -90.654448 C -38.92956 -81.244616 -40.715138 -74.017081 -44.286339 -68.97205 C -47.800855 -63.983706 -52.874368 -61.489303 -59.506599 -61.489303 C -66.13883 -61.489303 -71.240406 -63.983706 -74.811608 -68.97205 C -78.382809 -74.017081 -80.168387 -81.244616 -80.168387 -90.654448 C -80.168387 -100.00759 -78.382809 -107.17797 -74.811608 -112.16631 C -71.240406 -117.15466 -66.13883 -119.64906 -59.506599 -119.64906 z M -121.49248 -119.13901 L -118.68645 -117.86364 L -118.68645 -68.716769 C -117.60942 -68.093226 -115.90855 -67.526269 -113.58443 -67.016097 C -111.26032 -66.562611 -109.4181 -66.279392 -108.05764 -66.16602 L -108.31292 -62.084615 L -143.00434 -62.084615 L -142.83433 -66.16602 C -137.7893 -66.732877 -133.93492 -67.583054 -131.27069 -68.716769 L -131.27069 -109.44555 L -142.66431 -109.44555 L -142.66431 -114.37703 C -139.03643 -114.66046 -135.29534 -115.19935 -131.44071 -115.99295 C -127.58608 -116.84324 -124.27008 -117.89193 -121.49248 -119.13901 z M -59.506599 -115.31237 C -62.397571 -115.31237 -64.494949 -113.41351 -65.798721 -109.61556 C -67.045807 -105.81762 -67.668891 -99.497422 -67.668891 -90.654448 C -67.668891 -81.868159 -67.045807 -75.576025 -65.798721 -71.778081 C -64.494949 -68.036822 -62.397571 -66.16602 -59.506599 -66.16602 C -56.615626 -66.16602 -54.546312 -68.036822 -53.299226 -71.778081 C -51.995454 -75.576025 -51.343789 -81.868159 -51.343789 -90.654448 C -51.343789 -99.440737 -51.995454 -105.73287 -53.299226 -109.53081 C -54.546312 -113.38544 -56.615626 -115.31237 -59.506599 -115.31237 z M -93.347944 -101.28274 C -91.363943 -101.28274 -89.890166 -100.68772 -88.926508 -99.497319 C -87.906165 -98.363604 -87.395852 -96.776539 -87.395852 -94.735852 C -87.395852 -92.695166 -87.906165 -91.107584 -88.926508 -89.973869 C -89.890166 -88.840154 -91.363943 -88.273198 -93.347944 -88.273198 C -95.331945 -88.273198 -96.833785 -88.840154 -97.854129 -89.973869 C -98.817786 -91.16427 -99.300035 -92.751852 -99.300035 -94.735852 C -99.300035 -96.833225 -98.817786 -98.448354 -97.854129 -99.582068 C -96.833785 -100.71578 -95.331945 -101.28274 -93.347944 -101.28274 z M -93.347944 -74.498845 C -91.363943 -74.498845 -89.890166 -73.903824 -88.926508 -72.713424 C -87.906165 -71.579709 -87.395852 -69.992127 -87.395852 -67.951441 C -87.395852 -65.910754 -87.906165 -64.323689 -88.926508 -63.189974 C -89.890166 -62.05626 -91.363943 -61.489303 -93.347944 -61.489303 C -95.331945 -61.489303 -96.833785 -62.05626 -97.854129 -63.189974 C -98.817786 -64.380375 -99.300035 -65.96744 -99.300035 -67.951441 C -99.300035 -70.048813 -98.817786 -71.664459 -97.854129 -72.798173 C -96.833785 -73.931888 -95.331945 -74.498845 -93.347944 -74.498845 z " /></g></svg>
