<?xml version="1.0" encoding="UTF-8" standalone="no"?>
<!-- Created with Inkscape (http://www.inkscape.org/) -->

<svg
   width="172.6701mm"
   height="172.6701mm"
   viewBox="0 0 172.6701 172.6701"
   version="1.1"
   id="svg1"
   xml:space="preserve"
   xmlns="http://www.w3.org/2000/svg"
   xmlns:svg="http://www.w3.org/2000/svg"><defs
     id="defs1" /><g
     id="layer1"
     transform="translate(157.25102,198.81012)"><path
       id="path5"
       style="fill:#ffffff;fill-opacity:1;stroke-width:0.805188;stroke-linecap:round;stroke-linejoin:round"
       d="M -2.0863309 -198.17657 L -10.088943 -183.11289 L -10.930235 -165.68398 L -19.198981 -165.68398 L -11.423229 -155.47426 L -12.166336 -140.07934 C -28.353216 -157.12094 -50.823548 -166.77435 -74.327399 -166.78417 C -103.64471 -166.77397 -130.92652 -151.79225 -146.66717 -127.05894 L -157.25102 -127.05894 L -149.61996 -115.86014 L -157.25102 -26.140039 L -8.5138455 -26.140039 L 15.419061 -26.140039 L 8.0799737 -154.80195 L 15.419061 -165.68398 L 7.4593397 -165.68398 L 6.4490654 -183.39297 L -2.0863309 -198.17657 z M -83.43072 -192.21621 C -85.584619 -189.65499 -86.77489 -186.4211 -86.795372 -183.07465 C -86.842092 -175.15518 -80.459903 -168.69733 -72.540428 -168.65072 C -64.621155 -168.60402 -58.163395 -174.98588 -58.116503 -182.90515 C -58.102813 -186.26049 -59.266203 -189.5144 -61.404157 -192.10045 C -60.83125 -190.6836 -60.536835 -189.16959 -60.537027 -187.64129 C -60.575787 -181.07411 -65.930869 -175.78172 -72.498054 -175.82031 C -79.065241 -175.85911 -84.357627 -181.21415 -84.319038 -187.78134 C -84.309338 -189.30285 -84.007827 -190.80837 -83.43072 -192.21621 z M -53.426866 -119.13901 L -50.620836 -117.86364 L -50.620836 -68.716769 C -49.543807 -68.093226 -47.843454 -67.526269 -45.519339 -67.016097 C -43.195224 -66.562611 -41.352485 -66.279392 -39.992027 -66.16602 L -40.247309 -62.084615 L -74.939248 -62.084615 L -74.769233 -66.16602 C -69.724202 -66.732877 -65.86931 -67.583054 -63.205081 -68.716769 L -63.205081 -109.44555 L -74.598701 -109.44555 L -74.598701 -114.37703 C -70.970814 -114.66046 -67.229726 -115.19935 -63.375096 -115.99295 C -59.520466 -116.84324 -56.204467 -117.89193 -53.426866 -119.13901 z M -140.32595 -118.88373 L -136.1598 -118.88373 C -134.00574 -118.82705 -129.30067 -118.79847 -122.0449 -118.79847 C -114.5057 -118.79847 -109.60263 -118.82705 -107.3352 -118.88373 L -103.2538 -118.88373 L -101.55313 -115.22762 C -102.63016 -113.52705 -104.67089 -109.84261 -107.67523 -104.17404 C -110.67958 -98.505463 -113.51385 -92.496548 -116.17807 -86.147746 C -118.8423 -79.798944 -120.17421 -74.838719 -120.17421 -71.267517 C -120.17421 -68.433231 -119.18217 -66.307789 -117.19817 -64.890646 C -119.12548 -62.566531 -121.5913 -61.404554 -124.59565 -61.404554 C -127.37325 -61.404554 -129.52727 -62.169506 -131.05779 -63.700021 C -132.5883 -65.230536 -133.35377 -67.356494 -133.35377 -70.077409 C -133.35377 -73.478553 -132.53166 -77.077772 -130.88777 -80.875717 C -129.24388 -84.730347 -126.29633 -89.945728 -122.0449 -96.521273 L -112.0114 -111.9963 L -131.39782 -111.9963 C -132.19142 -109.44544 -132.67367 -106.44124 -132.84372 -102.98341 C -133.86407 -102.81335 -134.91276 -102.72813 -135.98979 -102.72813 C -137.1235 -102.72813 -138.22883 -102.81335 -139.30586 -102.98341 L -141.6866 -117.60836 L -140.32595 -118.88373 z M -35.570592 -118.88373 L -31.404438 -118.88373 C -29.25038 -118.82705 -24.545311 -118.79847 -17.289537 -118.79847 C -9.7503345 -118.79847 -4.8472702 -118.82705 -2.5798408 -118.88373 L 1.5015638 -118.88373 L 3.2022352 -115.22762 C 2.1252062 -113.52705 0.084472233 -109.84261 -2.9198717 -104.17404 C -5.9242157 -98.505463 -8.7584823 -92.496548 -11.422712 -86.147746 C -14.086941 -79.798944 -15.41885 -74.838719 -15.41885 -71.267517 C -15.41885 -68.433231 -14.426805 -66.307789 -12.442805 -64.890646 C -14.37012 -62.566531 -16.835942 -61.404554 -19.840286 -61.404554 C -22.617887 -61.404554 -24.771909 -62.169506 -26.302424 -63.700021 C -27.832939 -65.230536 -28.598408 -67.356494 -28.598408 -70.077409 C -28.598408 -73.478553 -27.776295 -77.077772 -26.132408 -80.875717 C -24.488522 -84.730347 -21.540967 -89.945728 -17.289537 -96.521273 L -7.2560412 -111.9963 L -26.642971 -111.9963 C -27.436572 -109.44544 -27.918304 -106.44124 -28.088361 -102.98341 C -29.108705 -102.81335 -30.157394 -102.72813 -31.234423 -102.72813 C -32.368137 -102.72813 -33.47347 -102.81335 -34.550499 -102.98341 L -36.931232 -117.60836 L -35.570592 -118.88373 z M -88.03354 -101.28274 C -86.049539 -101.28274 -84.575761 -100.68772 -83.612104 -99.497319 C -82.591761 -98.363604 -82.081448 -96.776539 -82.081448 -94.735852 C -82.081448 -92.695166 -82.591761 -91.107584 -83.612104 -89.973869 C -84.575761 -88.840154 -86.049539 -88.273198 -88.03354 -88.273198 C -90.01754 -88.273198 -91.519898 -88.840154 -92.540241 -89.973869 C -93.503899 -91.16427 -93.985631 -92.751852 -93.985631 -94.735852 C -93.985631 -96.833225 -93.503899 -98.448354 -92.540241 -99.582068 C -91.519898 -100.71578 -90.01754 -101.28274 -88.03354 -101.28274 z M -88.03354 -74.498845 C -86.049539 -74.498845 -84.575761 -73.903824 -83.612104 -72.713424 C -82.591761 -71.579709 -82.081448 -69.992127 -82.081448 -67.951441 C -82.081448 -65.910754 -82.591761 -64.323689 -83.612104 -63.189974 C -84.575761 -62.05626 -86.049539 -61.489303 -88.03354 -61.489303 C -90.01754 -61.489303 -91.519898 -62.05626 -92.540241 -63.189974 C -93.503899 -64.380375 -93.985631 -65.96744 -93.985631 -67.951441 C -93.985631 -70.048813 -93.503899 -71.664459 -92.540241 -72.798173 C -91.519898 -73.931888 -90.01754 -74.498845 -88.03354 -74.498845 z " /></g></svg>
