<?xml version="1.0" encoding="UTF-8" standalone="no"?>
<!-- Created with Inkscape (http://www.inkscape.org/) -->

<svg
   width="172.6701mm"
   height="172.6701mm"
   viewBox="0 0 172.6701 172.6701"
   version="1.1"
   id="svg1"
   xml:space="preserve"
   xmlns="http://www.w3.org/2000/svg"
   xmlns:svg="http://www.w3.org/2000/svg"><defs
     id="defs1" /><g
     id="layer1"
     transform="translate(157.25102,198.81012)"><path
       id="path5"
       style="fill:#ffffff;fill-opacity:1;stroke-width:0.805188;stroke-linecap:round;stroke-linejoin:round"
       d="M -2.0863309 -198.17657 L -10.088943 -183.11289 L -10.930235 -165.68398 L -19.198981 -165.68398 L -11.423229 -155.47426 L -12.166336 -140.07934 C -28.353216 -157.12094 -50.823548 -166.77435 -74.327399 -166.78417 C -103.64471 -166.77397 -130.92652 -151.79225 -146.66717 -127.05894 L -157.25102 -127.05894 L -149.61996 -115.86014 L -157.25102 -26.140039 L -8.5138455 -26.140039 L 15.419061 -26.140039 L 8.0799737 -154.80195 L 15.419061 -165.68398 L 7.4593397 -165.68398 L 6.4490654 -183.39297 L -2.0863309 -198.17657 z M -83.43072 -192.21621 C -85.584619 -189.65499 -86.77489 -186.4211 -86.795372 -183.07465 C -86.842092 -175.15518 -80.459903 -168.69733 -72.540428 -168.65072 C -64.621155 -168.60402 -58.163395 -174.98588 -58.116503 -182.90515 C -58.102813 -186.26049 -59.266203 -189.5144 -61.404157 -192.10045 C -60.83125 -190.6836 -60.536835 -189.16959 -60.537027 -187.64129 C -60.575787 -181.07411 -65.930869 -175.78172 -72.498054 -175.82031 C -79.065241 -175.85911 -84.357627 -181.21415 -84.319038 -187.78134 C -84.309338 -189.30285 -84.007827 -190.80837 -83.43072 -192.21621 z M -68.741177 -142.81199 L -60.884292 -142.65489 C -49.780297 -142.44538 -43.914411 -142.3407 -43.285883 -142.3407 L -20.973033 -142.65489 L -16.416206 -139.35535 L -17.830589 -127.41293 L -56.79927 -127.41293 L -58.999136 -101.17215 C -53.551893 -102.53396 -48.628158 -103.21492 -44.228461 -103.21492 C -33.857749 -103.21492 -25.425053 -100.43875 -18.930264 -94.886748 C -12.33072 -89.439505 -9.0311266 -81.425543 -9.0311266 -70.845321 C -9.0311266 -64.245777 -10.602411 -58.327549 -13.745051 -53.089816 C -16.782936 -47.852082 -21.182738 -43.713988 -26.944245 -40.676103 C -32.705752 -37.742972 -39.514305 -36.276372 -47.370905 -36.276372 C -53.76094 -36.276372 -59.575001 -37.166697 -64.812735 -38.947526 C -69.945713 -40.728356 -73.978607 -43.190482 -76.911738 -46.333122 C -79.844869 -49.580517 -81.311469 -53.19416 -81.311469 -57.174838 C -81.311469 -61.365024 -80.159435 -64.560451 -77.854833 -66.760299 C -75.55023 -69.064902 -72.721712 -70.216936 -69.369562 -70.216936 C -67.483978 -70.216936 -65.598644 -69.850544 -63.71306 -69.117261 C -61.722721 -68.383978 -59.941554 -67.336111 -58.370234 -65.974301 C -59.313026 -63.774452 -59.784618 -61.469868 -59.784618 -59.060511 C -59.784618 -55.603607 -58.789609 -52.775605 -56.79927 -50.575757 C -54.704177 -48.375909 -51.561092 -47.2757 -47.370905 -47.2757 C -37.942985 -47.2757 -33.229133 -55.132121 -33.229133 -70.845321 C -33.229133 -78.282903 -34.695734 -83.67823 -37.628864 -87.03038 C -40.561995 -90.487284 -44.490205 -92.215593 -49.413675 -92.215593 C -52.45156 -92.215593 -55.699328 -91.639318 -59.156232 -90.487016 C -62.613136 -89.334715 -66.017413 -87.711089 -69.369562 -85.615996 L -78.011929 -93.944169 L -73.92639 -138.56935 L -68.741177 -142.81199 z M -128.29413 -86.872766 L -91.996605 -86.872766 L -91.996605 -71.945512 L -128.29413 -71.945512 L -128.29413 -86.872766 z " /></g></svg>
