<?xml version="1.0" encoding="UTF-8" standalone="no"?>
<!-- Created with Inkscape (http://www.inkscape.org/) -->

<svg
   width="172.6701mm"
   height="172.6701mm"
   viewBox="0 0 172.6701 172.6701"
   version="1.1"
   id="svg1"
   xml:space="preserve"
   xmlns="http://www.w3.org/2000/svg"
   xmlns:svg="http://www.w3.org/2000/svg"><defs
     id="defs1" /><g
     id="layer1"
     transform="translate(157.25102,198.81012)"><path
       id="path5"
       style="fill:#ffffff;fill-opacity:1;stroke-width:0.805188;stroke-linecap:round;stroke-linejoin:round"
       d="M -2.0863309 -198.17657 L -10.088943 -183.11289 L -10.930235 -165.68398 L -19.198981 -165.68398 L -11.423229 -155.47426 L -12.166336 -140.07934 C -28.353216 -157.12094 -50.823548 -166.77435 -74.327399 -166.78417 C -103.64471 -166.77397 -130.92652 -151.79225 -146.66717 -127.05894 L -157.25102 -127.05894 L -149.61996 -115.86014 L -157.25102 -26.140039 L -8.5138455 -26.140039 L 15.419061 -26.140039 L 8.0799737 -154.80195 L 15.419061 -165.68398 L 7.4593397 -165.68398 L 6.4490654 -183.39297 L -2.0863309 -198.17657 z M -83.43072 -192.21621 C -85.584619 -189.65499 -86.77489 -186.4211 -86.795372 -183.07465 C -86.842092 -175.15518 -80.459903 -168.69733 -72.540428 -168.65072 C -64.621155 -168.60402 -58.163395 -174.98588 -58.116503 -182.90515 C -58.102813 -186.26049 -59.266203 -189.5144 -61.404157 -192.10045 C -60.83125 -190.6836 -60.536835 -189.16959 -60.537027 -187.64129 C -60.575787 -181.07411 -65.930869 -175.78172 -72.498054 -175.82031 C -79.065241 -175.85911 -84.357627 -181.21415 -84.319038 -187.78134 C -84.309338 -189.30285 -84.007827 -190.80837 -83.43072 -192.21621 z M -12.640725 -133.28389 L -9.0910713 -125.88899 C -29.00827 -117.31079 -40.988397 -104.09822 -45.030996 -86.251616 C -39.312197 -89.012416 -33.888905 -90.392965 -28.761705 -90.392965 C -18.901706 -90.392965 -11.161617 -87.730772 -5.5414171 -82.406372 C 0.17738263 -77.081973 3.0363539 -69.884058 3.0363539 -60.812858 C 3.0363539 -55.192659 1.5082207 -50.163957 -1.5483792 -45.726958 C -4.5063791 -41.289958 -8.6967051 -37.839101 -14.119705 -35.374101 C -19.444105 -32.909101 -25.557671 -31.676652 -32.459671 -31.676652 C -44.19307 -31.676652 -53.214802 -34.930214 -59.525202 -41.437814 C -65.737002 -47.945413 -68.84298 -57.361736 -68.84298 -69.686735 C -68.84298 -85.166935 -64.060768 -98.330315 -54.496569 -109.17631 C -44.833769 -120.12091 -30.881725 -128.15669 -12.640725 -133.28389 z M -141.4618 -131.50932 L -134.2147 -131.50932 C -130.4679 -131.41072 -122.28403 -131.36101 -109.66323 -131.36101 C -96.549428 -131.36101 -88.020675 -131.41072 -84.076675 -131.50932 L -76.977367 -131.50932 L -74.019408 -125.1495 C -75.892808 -122.1915 -79.442054 -115.78225 -84.667853 -105.92225 C -89.893653 -96.06225 -94.823965 -85.610774 -99.458165 -74.567574 C -104.09236 -63.524375 -106.40916 -54.896716 -106.40916 -48.684917 C -106.40916 -43.754917 -104.68373 -40.05757 -101.23273 -37.59257 C -104.58513 -33.549971 -108.87437 -31.528858 -114.10017 -31.528858 C -118.93157 -31.528858 -122.67811 -32.859696 -125.34031 -35.521896 C -128.00251 -38.184096 -129.33386 -41.881959 -129.33386 -46.614759 C -129.33386 -52.530758 -127.90412 -58.791392 -125.04472 -65.397592 C -122.18532 -72.102391 -117.05823 -81.173835 -109.66323 -92.611434 L -92.211062 -119.52917 L -125.932 -119.52917 C -127.3124 -115.09217 -128.15078 -109.86669 -128.44658 -103.85209 C -130.22138 -103.55629 -132.04519 -103.40819 -133.91859 -103.40819 C -135.89059 -103.40819 -137.81332 -103.55629 -139.68672 -103.85209 L -143.82807 -129.29085 L -141.4618 -131.50932 z M -32.903055 -80.040109 C -37.044254 -80.040109 -41.530781 -78.363875 -46.362181 -75.011475 L -46.362181 -73.088595 C -46.362181 -62.341195 -45.178927 -54.453006 -42.812527 -49.424406 C -40.446127 -44.395807 -36.699069 -41.881714 -31.57187 -41.881714 C -27.33207 -41.881714 -24.078508 -43.508753 -21.810708 -46.762553 C -19.542908 -50.016353 -18.408849 -54.650464 -18.408849 -60.665064 C -18.408849 -66.778264 -19.690492 -71.511281 -22.254092 -74.86368 C -24.719092 -78.31468 -28.268855 -80.040109 -32.903055 -80.040109 z " /></g></svg>
