<?xml version="1.0" encoding="UTF-8" standalone="no"?>
<!-- Created with Inkscape (http://www.inkscape.org/) -->

<svg
   width="172.6701mm"
   height="172.6701mm"
   viewBox="0 0 172.6701 172.6701"
   version="1.1"
   id="svg1"
   xml:space="preserve"
   xmlns="http://www.w3.org/2000/svg"
   xmlns:svg="http://www.w3.org/2000/svg"><defs
     id="defs1" /><g
     id="layer1"
     transform="translate(157.25102,198.81012)"><path
       id="path5"
       style="fill:#ffffff;fill-opacity:1;stroke-width:0.805188;stroke-linecap:round;stroke-linejoin:round"
       d="M -2.0863309 -198.17657 L -10.088943 -183.11289 L -10.930235 -165.68398 L -19.198981 -165.68398 L -11.423229 -155.47426 L -12.166336 -140.07934 C -28.353216 -157.12094 -50.823548 -166.77435 -74.327399 -166.78417 C -103.64471 -166.77397 -130.92652 -151.79225 -146.66717 -127.05894 L -157.25102 -127.05894 L -149.61996 -115.86014 L -157.25102 -26.140039 L -8.5138455 -26.140039 L 15.419061 -26.140039 L 8.0799737 -154.80195 L 15.419061 -165.68398 L 7.4593397 -165.68398 L 6.4490654 -183.39297 L -2.0863309 -198.17657 z M -83.43072 -192.21621 C -85.584619 -189.65499 -86.77489 -186.4211 -86.795372 -183.07465 C -86.842092 -175.15518 -80.459903 -168.69733 -72.540428 -168.65072 C -64.621155 -168.60402 -58.163395 -174.98588 -58.116503 -182.90515 C -58.102813 -186.26049 -59.266203 -189.5144 -61.404157 -192.10045 C -60.83125 -190.6836 -60.536835 -189.16959 -60.537027 -187.64129 C -60.575787 -181.07411 -65.930869 -175.78172 -72.498054 -175.82031 C -79.065241 -175.85911 -84.357627 -181.21415 -84.319038 -187.78134 C -84.309338 -189.30285 -84.007827 -190.80837 -83.43072 -192.21621 z M -123.44792 -119.73381 C -117.60928 -119.73381 -112.96086 -118.28861 -109.50303 -115.39764 C -106.0452 -112.56335 -104.31627 -108.56711 -104.31627 -103.40871 C -104.31627 -98.873849 -106.0452 -94.026912 -109.50303 -88.86851 C -112.96086 -83.766794 -118.65797 -77.616529 -126.59398 -70.41744 L -103.72147 -70.41744 L -103.72147 -62.084615 L -142.23902 -62.084615 L -142.23902 -67.016097 C -135.9469 -73.081471 -131.04384 -78.268272 -127.52932 -82.576388 C -124.0148 -86.884504 -121.49234 -90.852684 -119.96182 -94.480571 C -118.37462 -98.108458 -117.58109 -101.84955 -117.58109 -105.70418 C -117.58109 -111.82623 -119.62182 -114.88759 -123.7032 -114.88759 C -125.51714 -114.88759 -126.99092 -114.0369 -128.12463 -112.33633 C -129.25835 -110.69244 -129.8253 -108.65171 -129.8253 -106.21422 C -129.8253 -104.51365 -129.22977 -102.89852 -128.03937 -101.36801 C -129.00302 -100.46103 -130.10836 -99.752209 -131.35544 -99.242037 C -132.54584 -98.731866 -133.7364 -98.476709 -134.9268 -98.476709 C -136.96749 -98.476709 -138.66784 -99.10031 -140.0283 -100.3474 C -141.38876 -101.65117 -142.069 -103.52197 -142.069 -105.95946 C -142.069 -108.567 -141.30405 -110.91953 -139.77353 -113.01691 C -138.24302 -115.11428 -136.089 -116.75799 -133.3114 -117.94839 C -130.47711 -119.13879 -127.18917 -119.73381 -123.44792 -119.73381 z M -53.979287 -119.13901 L -51.173774 -117.86364 L -51.173774 -68.716769 C -50.096745 -68.093226 -48.395875 -67.526269 -46.07176 -67.016097 C -43.747645 -66.562611 -41.905423 -66.279392 -40.544965 -66.16602 L -40.800247 -62.084615 L -75.491669 -62.084615 L -75.321654 -66.16602 C -70.276624 -66.732877 -66.422248 -67.583054 -63.758019 -68.716769 L -63.758019 -109.44555 L -75.151638 -109.44555 L -75.151638 -114.37703 C -71.523751 -114.66046 -67.782664 -115.19935 -63.928034 -115.99295 C -60.073404 -116.84324 -56.756888 -117.89193 -53.979287 -119.13901 z M -29.321361 -119.05375 L -25.069941 -118.969 C -19.061253 -118.85563 -15.886606 -118.79847 -15.546491 -118.79847 L -3.4722928 -118.969 L -1.0068102 -117.18306 L -1.7721382 -110.72092 L -22.859223 -110.72092 L -24.049331 -96.521273 C -21.101673 -97.258188 -18.437338 -97.626632 -16.056538 -97.626632 C -10.44465 -97.626632 -5.8814495 -96.124274 -2.3669339 -93.11993 C 1.2042674 -90.172272 2.9898451 -85.836165 2.9898451 -80.110905 C 2.9898451 -76.539704 2.1391517 -73.336993 0.43857961 -70.502706 C -1.2053067 -67.66842 -3.5859047 -65.429173 -6.7036201 -63.785287 C -9.8213355 -62.198086 -13.505779 -61.404554 -17.757209 -61.404554 C -21.215039 -61.404554 -24.361106 -61.886286 -27.195393 -62.849943 C -29.972994 -63.813601 -32.155596 -65.14551 -33.742797 -66.846082 C -35.329997 -68.60334 -36.12353 -70.559366 -36.12353 -72.713424 C -36.12353 -74.980853 -35.499929 -76.709787 -34.252843 -77.900188 C -33.005757 -79.147274 -31.475335 -79.770358 -29.661392 -79.770358 C -28.641049 -79.770358 -27.620423 -79.572362 -26.60008 -79.175562 C -25.523051 -78.778762 -24.559586 -78.211805 -23.7093 -77.474891 C -24.219472 -76.28449 -24.474628 -75.037289 -24.474628 -73.733517 C -24.474628 -71.862888 -23.936252 -70.332466 -22.859223 -69.142066 C -21.725508 -67.951665 -20.024638 -67.356645 -17.757209 -67.356645 C -12.655493 -67.356645 -10.104963 -71.608045 -10.104963 -80.110905 C -10.104963 -84.135593 -10.898496 -87.054567 -12.485696 -88.86851 C -14.072897 -90.73914 -16.198338 -91.674541 -18.862568 -91.674541 C -20.506454 -91.674541 -22.263968 -91.36274 -24.134597 -90.739197 C -26.005227 -90.115654 -27.847448 -89.236897 -29.661392 -88.103182 L -34.338109 -92.609884 L -32.127391 -116.75776 L -29.321361 -119.05375 z M -88.585961 -101.28274 C -86.60196 -101.28274 -85.128183 -100.68772 -84.164525 -99.497319 C -83.144182 -98.363604 -82.634386 -96.776539 -82.634386 -94.735852 C -82.634386 -92.695166 -83.144182 -91.107584 -84.164525 -89.973869 C -85.128183 -88.840154 -86.60196 -88.273198 -88.585961 -88.273198 C -90.569961 -88.273198 -92.072319 -88.840154 -93.092662 -89.973869 C -94.05632 -91.16427 -94.538052 -92.751852 -94.538052 -94.735852 C -94.538052 -96.833225 -94.05632 -98.448354 -93.092662 -99.582068 C -92.072319 -100.71578 -90.569961 -101.28274 -88.585961 -101.28274 z M -88.585961 -74.498845 C -86.60196 -74.498845 -85.128183 -73.903824 -84.164525 -72.713424 C -83.144182 -71.579709 -82.634386 -69.992127 -82.634386 -67.951441 C -82.634386 -65.910754 -83.144182 -64.323689 -84.164525 -63.189974 C -85.128183 -62.05626 -86.60196 -61.489303 -88.585961 -61.489303 C -90.569961 -61.489303 -92.072319 -62.05626 -93.092662 -63.189974 C -94.05632 -64.380375 -94.538052 -65.96744 -94.538052 -67.951441 C -94.538052 -70.048813 -94.05632 -71.664459 -93.092662 -72.798173 C -92.072319 -73.931888 -90.569961 -74.498845 -88.585961 -74.498845 z " /></g></svg>
