<?xml version="1.0" encoding="UTF-8" standalone="no"?>
<!-- Created with Inkscape (http://www.inkscape.org/) -->

<svg
   width="172.6701mm"
   height="172.6701mm"
   viewBox="0 0 172.6701 172.6701"
   version="1.1"
   id="svg1"
   xml:space="preserve"
   xmlns="http://www.w3.org/2000/svg"
   xmlns:svg="http://www.w3.org/2000/svg"><defs
     id="defs1" /><g
     id="layer1"
     transform="translate(157.25102,198.81012)"><path
       id="path5"
       style="fill:#ffffff;fill-opacity:1;stroke-width:0.805188;stroke-linecap:round;stroke-linejoin:round"
       d="M -2.0863309 -198.17657 L -10.088943 -183.11289 L -10.930235 -165.68398 L -19.198981 -165.68398 L -11.423229 -155.47426 L -12.166336 -140.07934 C -28.353216 -157.12094 -50.823548 -166.77435 -74.327399 -166.78417 C -103.64471 -166.77397 -130.92652 -151.79225 -146.66717 -127.05894 L -157.25102 -127.05894 L -149.61996 -115.86014 L -157.25102 -26.140039 L -8.5138455 -26.140039 L 15.419061 -26.140039 L 8.0799737 -154.80195 L 15.419061 -165.68398 L 7.4593397 -165.68398 L 6.4490654 -183.39297 L -2.0863309 -198.17657 z M -83.43072 -192.21621 C -85.584619 -189.65499 -86.77489 -186.4211 -86.795372 -183.07465 C -86.842092 -175.15518 -80.459903 -168.69733 -72.540428 -168.65072 C -64.621155 -168.60402 -58.163395 -174.98588 -58.116503 -182.90515 C -58.102813 -186.26049 -59.266203 -189.5144 -61.404157 -192.10045 C -60.83125 -190.6836 -60.536835 -189.16959 -60.537027 -187.64129 C -60.575787 -181.07411 -65.930869 -175.78172 -72.498054 -175.82031 C -79.065241 -175.85911 -84.357627 -181.21415 -84.319038 -187.78134 C -84.309338 -189.30285 -84.007827 -190.80837 -83.43072 -192.21621 z M -126.1263 -119.73381 C -120.28767 -119.73381 -115.63925 -118.28861 -112.18142 -115.39764 C -108.72359 -112.56335 -106.99466 -108.56711 -106.99466 -103.40871 C -106.99466 -98.873849 -108.72359 -94.026912 -112.18142 -88.86851 C -115.63925 -83.766794 -121.33636 -77.616529 -129.27237 -70.41744 L -106.39986 -70.41744 L -106.39986 -62.084615 L -144.91741 -62.084615 L -144.91741 -67.016097 C -138.62529 -73.081471 -133.72223 -78.268272 -130.20771 -82.576388 C -126.69319 -86.884504 -124.17073 -90.852684 -122.64021 -94.480571 C -121.05301 -98.108458 -120.25948 -101.84955 -120.25948 -105.70418 C -120.25948 -111.82623 -122.30021 -114.88759 -126.38159 -114.88759 C -128.19553 -114.88759 -129.66931 -114.0369 -130.80302 -112.33633 C -131.93674 -110.69244 -132.50369 -108.65171 -132.50369 -106.21422 C -132.50369 -104.51365 -131.90816 -102.89852 -130.71776 -101.36801 C -131.68141 -100.46103 -132.78675 -99.752209 -134.03383 -99.242037 C -135.22423 -98.731866 -136.41479 -98.476709 -137.60519 -98.476709 C -139.64588 -98.476709 -141.34623 -99.10031 -142.70669 -100.3474 C -144.06715 -101.65117 -144.74739 -103.52197 -144.74739 -105.95946 C -144.74739 -108.567 -143.98244 -110.91953 -142.45192 -113.01691 C -140.92141 -115.11428 -138.76739 -116.75799 -135.98979 -117.94839 C -133.1555 -119.13879 -129.86756 -119.73381 -126.1263 -119.73381 z M -59.548973 -119.73381 C -55.864401 -119.73381 -52.605046 -119.11073 -49.770759 -117.86364 C -46.936472 -116.67324 -44.725806 -114.97237 -43.138605 -112.76163 C -41.551405 -110.60757 -40.757355 -108.11368 -40.757355 -105.27939 C -40.757355 -102.10499 -41.692756 -99.384015 -43.563386 -97.116586 C -45.434015 -94.849156 -48.211638 -93.120223 -51.89621 -91.929822 C -47.24798 -90.909479 -43.988625 -89.237189 -42.117996 -86.913074 C -40.247367 -84.588959 -39.311966 -81.442892 -39.311966 -77.474891 C -39.311966 -74.017061 -40.360655 -71.069506 -42.458027 -68.632019 C -44.498713 -66.194533 -47.163048 -64.380375 -50.450821 -63.189974 C -53.738593 -61.999574 -57.139817 -61.404554 -60.654332 -61.404554 C -65.756048 -61.404554 -70.092673 -62.453243 -73.663874 -64.550615 C -77.17839 -66.647987 -78.935387 -69.510317 -78.935387 -73.138204 C -78.935387 -75.235577 -78.311786 -76.851222 -77.0647 -77.984937 C -75.817614 -79.175337 -74.258612 -79.770358 -72.387983 -79.770358 C -70.460668 -79.770358 -68.505158 -79.005405 -66.521158 -77.474891 C -67.031329 -76.397862 -67.286485 -75.094016 -67.286485 -73.563501 C -67.286485 -71.749558 -66.748109 -70.275781 -65.67108 -69.142066 C -64.537366 -68.008351 -62.865076 -67.441394 -60.654332 -67.441394 C -55.779359 -67.441394 -53.3416 -70.814037 -53.3416 -77.55964 C -53.3416 -81.244213 -54.532158 -84.10706 -56.912958 -86.147746 C -59.237074 -88.188433 -62.553073 -89.208541 -66.861188 -89.208541 L -66.861188 -94.480571 C -58.528385 -95.1608 -54.36221 -98.760535 -54.36221 -105.27939 C -54.36221 -108.56717 -54.872522 -110.97583 -55.892866 -112.50634 C -56.913209 -114.09354 -58.301762 -114.88759 -60.05902 -114.88759 C -62.156392 -114.88759 -63.743457 -114.15071 -64.820486 -112.67688 C -65.840829 -111.20305 -66.351142 -109.41747 -66.351142 -107.3201 C -66.351142 -105.44947 -65.954117 -103.77718 -65.160517 -102.30335 C -66.747718 -100.60278 -68.788452 -99.752084 -71.282624 -99.752084 C -73.550053 -99.752084 -75.307567 -100.43233 -76.554654 -101.79279 C -77.80174 -103.15324 -78.42534 -104.91076 -78.42534 -107.06482 C -78.42534 -109.8991 -77.461359 -112.25164 -75.534044 -114.12227 C -73.550043 -116.04958 -71.112801 -117.46671 -68.221829 -118.37369 C -65.274171 -119.28066 -62.38326 -119.73381 -59.548973 -119.73381 z M -14.228742 -119.64906 C -7.5965112 -119.64906 -2.5229981 -117.15466 0.99151743 -112.16631 C 4.5627187 -107.23465 6.3482964 -100.06428 6.3482964 -90.654448 C 6.3482964 -81.244616 4.5627187 -74.017081 0.99151743 -68.97205 C -2.5229981 -63.983706 -7.5965112 -61.489303 -14.228742 -61.489303 C -20.860973 -61.489303 -25.96255 -63.983706 -29.533751 -68.97205 C -33.104952 -74.017081 -34.89053 -81.244616 -34.89053 -90.654448 C -34.89053 -100.00759 -33.104952 -107.17797 -29.533751 -112.16631 C -25.96255 -117.15466 -20.860973 -119.64906 -14.228742 -119.64906 z M -14.228742 -115.31237 C -17.119715 -115.31237 -19.217093 -113.41351 -20.520865 -109.61556 C -21.767951 -105.81762 -22.391551 -99.497422 -22.391551 -90.654448 C -22.391551 -81.868159 -21.767951 -75.576025 -20.520865 -71.778081 C -19.217093 -68.036822 -17.119715 -66.16602 -14.228742 -66.16602 C -11.33777 -66.16602 -9.2684553 -68.036822 -8.0213691 -71.778081 C -6.7175972 -75.576025 -6.0659329 -81.868159 -6.0659329 -90.654448 C -6.0659329 -99.440737 -6.7175972 -105.73287 -8.0213691 -109.53081 C -9.2684553 -113.38544 -11.33777 -115.31237 -14.228742 -115.31237 z M -91.26435 -101.28274 C -89.280349 -101.28274 -87.806572 -100.68772 -86.842915 -99.497319 C -85.822571 -98.363604 -85.312775 -96.776539 -85.312775 -94.735852 C -85.312775 -92.695166 -85.822571 -91.107584 -86.842915 -89.973869 C -87.806572 -88.840154 -89.280349 -88.273198 -91.26435 -88.273198 C -93.248351 -88.273198 -94.750709 -88.840154 -95.771052 -89.973869 C -96.734709 -91.16427 -97.216442 -92.751852 -97.216442 -94.735852 C -97.216442 -96.833225 -96.734709 -98.448354 -95.771052 -99.582068 C -94.750709 -100.71578 -93.248351 -101.28274 -91.26435 -101.28274 z M -91.26435 -74.498845 C -89.280349 -74.498845 -87.806572 -73.903824 -86.842915 -72.713424 C -85.822571 -71.579709 -85.312775 -69.992127 -85.312775 -67.951441 C -85.312775 -65.910754 -85.822571 -64.323689 -86.842915 -63.189974 C -87.806572 -62.05626 -89.280349 -61.489303 -91.26435 -61.489303 C -93.248351 -61.489303 -94.750709 -62.05626 -95.771052 -63.189974 C -96.734709 -64.380375 -97.216442 -65.96744 -97.216442 -67.951441 C -97.216442 -70.048813 -96.734709 -71.664459 -95.771052 -72.798173 C -94.750709 -73.931888 -93.248351 -74.498845 -91.26435 -74.498845 z " /></g></svg>
