<?xml version="1.0" encoding="UTF-8" standalone="no"?>
<!-- Created with Inkscape (http://www.inkscape.org/) -->

<svg
   width="172.6701mm"
   height="172.6701mm"
   viewBox="0 0 172.6701 172.6701"
   version="1.1"
   id="svg1"
   xml:space="preserve"
   xmlns="http://www.w3.org/2000/svg"
   xmlns:svg="http://www.w3.org/2000/svg"><defs
     id="defs1" /><g
     id="layer1"
     transform="translate(157.25102,198.81012)"><path
       id="path5"
       style="fill:#ffffff;fill-opacity:1;stroke-width:0.805188;stroke-linecap:round;stroke-linejoin:round"
       d="M -2.0863309 -198.17657 L -10.088943 -183.11289 L -10.930235 -165.68398 L -19.198981 -165.68398 L -11.423229 -155.47426 L -12.166336 -140.07934 C -28.353216 -157.12094 -50.823548 -166.77435 -74.327399 -166.78417 C -103.64471 -166.77397 -130.92652 -151.79225 -146.66717 -127.05894 L -157.25102 -127.05894 L -149.61996 -115.86014 L -157.25102 -26.140039 L -8.5138455 -26.140039 L 15.419061 -26.140039 L 8.0799737 -154.80195 L 15.419061 -165.68398 L 7.4593397 -165.68398 L 6.4490654 -183.39297 L -2.0863309 -198.17657 z M -83.43072 -192.21621 C -85.584619 -189.65499 -86.77489 -186.4211 -86.795372 -183.07465 C -86.842092 -175.15518 -80.459903 -168.69733 -72.540428 -168.65072 C -64.621155 -168.60402 -58.163395 -174.98588 -58.116503 -182.90515 C -58.102813 -186.26049 -59.266203 -189.5144 -61.404157 -192.10045 C -60.83125 -190.6836 -60.536835 -189.16959 -60.537027 -187.64129 C -60.575787 -181.07411 -65.930869 -175.78172 -72.498054 -175.82031 C -79.065241 -175.85911 -84.357627 -181.21415 -84.319038 -187.78134 C -84.309338 -189.30285 -84.007827 -190.80837 -83.43072 -192.21621 z M -122.55495 -119.81908 C -116.60294 -119.81908 -111.86981 -118.54381 -108.3553 -115.99295 C -104.84078 -113.44209 -103.08378 -110.01229 -103.08378 -105.70418 C -103.08378 -103.38006 -103.93396 -101.05611 -105.63453 -98.731991 C -107.3351 -96.407876 -109.57383 -94.50901 -112.35144 -93.035181 C -108.83692 -91.334609 -106.08788 -89.350519 -104.10388 -87.08309 C -102.06319 -84.81566 -101.04308 -81.896169 -101.04308 -78.324968 C -101.04308 -73.166566 -102.91337 -69.057034 -106.65463 -65.996005 C -110.39588 -62.991661 -115.44082 -61.489303 -121.78962 -61.489303 C -128.76196 -61.489303 -134.14728 -62.878373 -137.94522 -65.655974 C -141.68648 -68.433575 -143.55728 -72.401238 -143.55728 -77.55964 C -143.55728 -80.223869 -142.70711 -82.86014 -141.00653 -85.467684 C -139.30596 -88.131914 -136.92485 -90.483931 -133.86382 -92.524618 C -136.41468 -93.941761 -138.39877 -95.642631 -139.81591 -97.626632 C -141.23305 -99.610633 -141.94136 -102.07646 -141.94136 -105.02411 C -141.94136 -109.55897 -140.18436 -113.15871 -136.66985 -115.82294 C -133.15533 -118.48717 -128.45026 -119.81908 -122.55495 -119.81908 z M -54.276944 -119.73381 C -50.592371 -119.73381 -47.333016 -119.11073 -44.498729 -117.86364 C -41.664442 -116.67324 -39.453776 -114.97237 -37.866576 -112.76163 C -36.279375 -110.60757 -35.485843 -108.11368 -35.485843 -105.27939 C -35.485843 -102.10499 -36.421244 -99.384015 -38.291873 -97.116586 C -40.162502 -94.849156 -42.940125 -93.120223 -46.624698 -91.929822 C -41.976467 -90.909479 -38.716596 -89.237189 -36.845966 -86.913074 C -34.975337 -84.588959 -34.040453 -81.442892 -34.040453 -77.474891 C -34.040453 -74.017061 -35.089142 -71.069506 -37.186514 -68.632019 C -39.2272 -66.194533 -41.891018 -64.380375 -45.178791 -63.189974 C -48.466564 -61.999574 -51.867787 -61.404554 -55.382303 -61.404554 C -60.484019 -61.404554 -64.820643 -62.453243 -68.391844 -64.550615 C -71.90636 -66.647987 -73.663357 -69.510317 -73.663357 -73.138204 C -73.663357 -75.235577 -73.040273 -76.851222 -71.793187 -77.984937 C -70.546101 -79.175337 -68.987099 -79.770358 -67.11647 -79.770358 C -65.189155 -79.770358 -63.233645 -79.005405 -61.249645 -77.474891 C -61.759816 -76.397862 -62.014456 -75.094016 -62.014456 -73.563501 C -62.014456 -71.749558 -61.47608 -70.275781 -60.399051 -69.142066 C -59.265336 -68.008351 -57.593046 -67.441394 -55.382303 -67.441394 C -50.507329 -67.441394 -48.070087 -70.814037 -48.070087 -77.55964 C -48.070087 -81.244213 -49.260128 -84.10706 -51.640929 -86.147746 C -53.965044 -88.188433 -57.28156 -89.208541 -61.589676 -89.208541 L -61.589676 -94.480571 C -53.256873 -95.1608 -49.09018 -98.760535 -49.09018 -105.27939 C -49.09018 -108.56717 -49.600493 -110.97583 -50.620836 -112.50634 C -51.641179 -114.09354 -53.029732 -114.88759 -54.78699 -114.88759 C -56.884362 -114.88759 -58.471944 -114.15071 -59.548973 -112.67688 C -60.569317 -111.20305 -61.079112 -109.41747 -61.079112 -107.3201 C -61.079112 -105.44947 -60.682605 -103.77718 -59.889004 -102.30335 C -61.476205 -100.60278 -63.516939 -99.752084 -66.011111 -99.752084 C -68.278541 -99.752084 -70.035538 -100.43233 -71.282624 -101.79279 C -72.52971 -103.15324 -73.153311 -104.91076 -73.153311 -107.06482 C -73.153311 -109.8991 -72.189846 -112.25164 -70.262531 -114.12227 C -68.278531 -116.04958 -65.840772 -117.46671 -62.949799 -118.37369 C -60.002141 -119.28066 -57.11123 -119.73381 -54.276944 -119.73381 z M -8.1913846 -119.13901 L -5.3858711 -117.86364 L -5.3858711 -68.716769 C -4.3088421 -68.093226 -2.6079721 -67.526269 -0.28385691 -67.016097 C 2.0402582 -66.562611 3.8824799 -66.279392 5.2429375 -66.16602 L 4.9876559 -62.084615 L -29.703767 -62.084615 L -29.533751 -66.16602 C -24.488721 -66.732877 -20.634345 -67.583054 -17.970116 -68.716769 L -17.970116 -109.44555 L -29.363736 -109.44555 L -29.363736 -114.37703 C -25.735849 -114.66046 -21.994761 -115.19935 -18.140131 -115.99295 C -14.285501 -116.84324 -10.968986 -117.89193 -8.1913846 -119.13901 z M -122.55495 -113.78224 C -124.82238 -113.78224 -126.60795 -113.04535 -127.91173 -111.57152 C -129.2155 -110.15437 -129.86768 -108.22693 -129.86768 -105.78944 C -129.86768 -103.63538 -129.04557 -101.84981 -127.40168 -100.43266 C -125.70111 -99.072205 -123.23528 -97.711715 -120.0042 -96.351258 C -118.58705 -97.314915 -117.45314 -98.646824 -116.60286 -100.3474 C -115.75257 -102.04797 -115.32748 -103.86213 -115.32748 -105.78944 C -115.32748 -108.22693 -116.00773 -110.15437 -117.36818 -111.57152 C -118.67195 -113.04535 -120.40089 -113.78224 -122.55495 -113.78224 z M -85.992837 -101.28274 C -84.008836 -101.28274 -82.535059 -100.68772 -81.571402 -99.497319 C -80.551058 -98.363604 -80.040746 -96.776539 -80.040746 -94.735852 C -80.040746 -92.695166 -80.551058 -91.107584 -81.571402 -89.973869 C -82.535059 -88.840154 -84.008836 -88.273198 -85.992837 -88.273198 C -87.976838 -88.273198 -89.479196 -88.840154 -90.499539 -89.973869 C -91.463196 -91.16427 -91.944929 -92.751852 -91.944929 -94.735852 C -91.944929 -96.833225 -91.463196 -98.448354 -90.499539 -99.582068 C -89.479196 -100.71578 -87.976838 -101.28274 -85.992837 -101.28274 z M -126.04104 -89.038526 C -127.74161 -87.678068 -128.98881 -86.119583 -129.78241 -84.362325 C -130.57601 -82.605068 -130.97304 -80.50769 -130.97304 -78.070203 C -130.97304 -74.725745 -130.15092 -72.089474 -128.50704 -70.162159 C -126.86315 -68.291529 -124.62391 -67.356645 -121.78962 -67.356645 C -119.01202 -67.356645 -116.858 -68.291529 -115.32748 -70.162159 C -113.74028 -72.032788 -112.94675 -74.640479 -112.94675 -77.984937 C -112.94675 -79.855566 -113.54228 -81.442631 -114.73269 -82.746403 C -115.8664 -84.106861 -117.3116 -85.212194 -119.06885 -86.06248 C -120.82611 -86.969452 -123.15007 -87.961497 -126.04104 -89.038526 z M -85.992837 -74.498845 C -84.008836 -74.498845 -82.535059 -73.903824 -81.571402 -72.713424 C -80.551058 -71.579709 -80.040746 -69.992127 -80.040746 -67.951441 C -80.040746 -65.910754 -80.551058 -64.323689 -81.571402 -63.189974 C -82.535059 -62.05626 -84.008836 -61.489303 -85.992837 -61.489303 C -87.976838 -61.489303 -89.479196 -62.05626 -90.499539 -63.189974 C -91.463196 -64.380375 -91.944929 -65.96744 -91.944929 -67.951441 C -91.944929 -70.048813 -91.463196 -71.664459 -90.499539 -72.798173 C -89.479196 -73.931888 -87.976838 -74.498845 -85.992837 -74.498845 z " /></g></svg>
