<?xml version="1.0" encoding="UTF-8" standalone="no"?>
<!-- Created with Inkscape (http://www.inkscape.org/) -->

<svg
   width="172.6701mm"
   height="172.6701mm"
   viewBox="0 0 172.6701 172.6701"
   version="1.1"
   id="svg1"
   xml:space="preserve"
   xmlns="http://www.w3.org/2000/svg"
   xmlns:svg="http://www.w3.org/2000/svg"><defs
     id="defs1" /><g
     id="layer1"
     transform="translate(157.25102,198.81012)"><path
       id="path5"
       style="fill:#ffffff;fill-opacity:1;stroke-width:0.805188;stroke-linecap:round;stroke-linejoin:round"
       d="M -2.0863309 -198.17657 L -10.088943 -183.11289 L -10.930235 -165.68398 L -19.198981 -165.68398 L -11.423229 -155.47426 L -12.166336 -140.07934 C -28.353216 -157.12094 -50.823548 -166.77435 -74.327399 -166.78417 C -103.64471 -166.77397 -130.92652 -151.79225 -146.66717 -127.05894 L -157.25102 -127.05894 L -149.61996 -115.86014 L -157.25102 -26.140039 L -8.5138455 -26.140039 L 15.419061 -26.140039 L 8.0799737 -154.80195 L 15.419061 -165.68398 L 7.4593397 -165.68398 L 6.4490654 -183.39297 L -2.0863309 -198.17657 z M -83.43072 -192.21621 C -85.584619 -189.65499 -86.77489 -186.4211 -86.795372 -183.07465 C -86.842092 -175.15518 -80.459903 -168.69733 -72.540428 -168.65072 C -64.621155 -168.60402 -58.163395 -174.98588 -58.116503 -182.90515 C -58.102813 -186.26049 -59.266203 -189.5144 -61.404157 -192.10045 C -60.83125 -190.6836 -60.536835 -189.16959 -60.537027 -187.64129 C -60.575787 -181.07411 -65.930869 -175.78172 -72.498054 -175.82031 C -79.065241 -175.85911 -84.357627 -181.21415 -84.319038 -187.78134 C -84.309338 -189.30285 -84.007827 -190.80837 -83.43072 -192.21621 z M -111.84139 -119.90383 L -109.80069 -115.65241 C -121.2512 -110.72075 -128.13888 -103.12528 -130.46299 -92.865166 C -127.17522 -94.452366 -124.05722 -95.245899 -121.10956 -95.245899 C -115.44098 -95.245899 -110.99107 -93.715477 -107.75998 -90.654448 C -104.47221 -87.593418 -102.8285 -83.455306 -102.8285 -78.240218 C -102.8285 -75.009132 -103.70726 -72.118221 -105.46452 -69.567363 C -107.16509 -67.016505 -109.57427 -65.032415 -112.69198 -63.615271 C -115.75301 -62.198128 -119.26752 -61.489303 -123.23553 -61.489303 C -129.98113 -61.489303 -135.16793 -63.360105 -138.79582 -67.101363 C -142.36702 -70.842622 -144.15259 -76.255999 -144.15259 -83.341716 C -144.15259 -92.241376 -141.40304 -99.808775 -135.90452 -106.04421 C -130.34932 -112.33632 -122.32825 -116.95617 -111.84139 -119.90383 z M -15.504117 -119.56379 C -8.758514 -119.56379 -3.5997766 -117.69351 -0.028575339 -113.95225 C 3.5993117 -110.21099 5.412953 -104.7971 5.412953 -97.711381 C 5.412953 -88.811721 2.6353303 -81.216258 -2.9198717 -74.924142 C -8.418388 -68.688711 -16.410875 -64.09693 -26.897736 -61.149272 L -28.938439 -65.400692 C -23.269865 -67.838179 -18.706665 -70.956182 -15.248835 -74.754126 C -11.791005 -78.608756 -9.4951147 -83.086732 -8.3614 -88.188448 C -11.535801 -86.601248 -14.625224 -85.807715 -17.629568 -85.807715 C -23.298142 -85.807715 -27.776634 -87.338137 -31.064407 -90.399166 C -34.295494 -93.460196 -35.91114 -97.598308 -35.91114 -102.8134 C -35.91114 -106.04448 -35.060446 -108.93539 -33.359874 -111.48625 C -31.602616 -114.03711 -29.193438 -116.0212 -26.132408 -117.43834 C -23.014693 -118.85549 -19.472118 -119.56379 -15.504117 -119.56379 z M -53.256851 -119.13901 L -50.450821 -117.86364 L -50.450821 -68.716769 C -49.373792 -68.093226 -47.673438 -67.526269 -45.349323 -67.016097 C -43.025208 -66.562611 -41.18247 -66.279392 -39.822012 -66.16602 L -40.077294 -62.084615 L -74.769233 -62.084615 L -74.598701 -66.16602 C -69.55367 -66.732877 -65.699295 -67.583054 -63.035065 -68.716769 L -63.035065 -109.44555 L -74.428685 -109.44555 L -74.428685 -114.37703 C -70.800798 -114.66046 -67.059711 -115.19935 -63.205081 -115.99295 C -59.350451 -116.84324 -56.034452 -117.89193 -53.256851 -119.13901 z M -16.014163 -113.69697 C -18.45165 -113.69697 -20.322452 -112.76157 -21.626223 -110.89094 C -22.929995 -109.02031 -23.58166 -106.35597 -23.58166 -102.89814 C -23.58166 -99.383629 -22.873351 -96.634587 -21.456208 -94.650586 C -19.982379 -92.723271 -17.913064 -91.759807 -15.248835 -91.759807 C -12.92472 -91.759807 -10.345609 -92.723271 -7.5113227 -94.650586 L -7.5113227 -95.755945 C -7.5113227 -101.93469 -8.1915674 -106.46931 -9.552025 -109.36028 C -10.912483 -112.25126 -13.066505 -113.69697 -16.014163 -113.69697 z M -87.863524 -101.28274 C -85.879523 -101.28274 -84.405746 -100.68772 -83.442089 -99.497319 C -82.421745 -98.363604 -81.911433 -96.776539 -81.911433 -94.735852 C -81.911433 -92.695166 -82.421745 -91.107584 -83.442089 -89.973869 C -84.405746 -88.840154 -85.879523 -88.273198 -87.863524 -88.273198 C -89.847525 -88.273198 -91.349882 -88.840154 -92.370226 -89.973869 C -93.333883 -91.16427 -93.815616 -92.751852 -93.815616 -94.735852 C -93.815616 -96.833225 -93.333883 -98.448354 -92.370226 -99.582068 C -91.349882 -100.71578 -89.847525 -101.28274 -87.863524 -101.28274 z M -123.49029 -89.293807 C -125.87109 -89.293807 -128.4502 -88.330343 -131.2278 -86.403028 L -131.2278 -85.297669 C -131.2278 -79.118924 -130.54807 -74.583787 -129.18762 -71.692814 C -127.82716 -68.801842 -125.67262 -67.356645 -122.72496 -67.356645 C -120.28748 -67.356645 -118.41719 -68.291529 -117.11342 -70.162159 C -115.80965 -72.032788 -115.15747 -74.697123 -115.15747 -78.154952 C -115.15747 -81.669468 -115.89435 -84.390447 -117.36818 -86.317762 C -118.78533 -88.301762 -120.82606 -89.293807 -123.49029 -89.293807 z M -87.863524 -74.498845 C -85.879523 -74.498845 -84.405746 -73.903824 -83.442089 -72.713424 C -82.421745 -71.579709 -81.911433 -69.992127 -81.911433 -67.951441 C -81.911433 -65.910754 -82.421745 -64.323689 -83.442089 -63.189974 C -84.405746 -62.05626 -85.879523 -61.489303 -87.863524 -61.489303 C -89.847525 -61.489303 -91.349882 -62.05626 -92.370226 -63.189974 C -93.333883 -64.380375 -93.815616 -65.96744 -93.815616 -67.951441 C -93.815616 -70.048813 -93.333883 -71.664459 -92.370226 -72.798173 C -91.349882 -73.931888 -89.847525 -74.498845 -87.863524 -74.498845 z " /></g></svg>
