<?xml version="1.0" encoding="UTF-8" standalone="no"?>
<!-- Created with Inkscape (http://www.inkscape.org/) -->

<svg
   width="172.6701mm"
   height="172.6701mm"
   viewBox="0 0 172.6701 172.6701"
   version="1.1"
   id="svg1"
   xml:space="preserve"
   xmlns="http://www.w3.org/2000/svg"
   xmlns:svg="http://www.w3.org/2000/svg"><defs
     id="defs1" /><g
     id="layer1"
     transform="translate(157.25102,198.81012)"><path
       id="path5"
       style="fill:#ffffff;fill-opacity:1;stroke-width:0.805188;stroke-linecap:round;stroke-linejoin:round"
       d="M -2.0863309 -198.17657 L -10.088943 -183.11289 L -10.930235 -165.68398 L -19.198981 -165.68398 L -11.423229 -155.47426 L -12.166336 -140.07934 C -28.353216 -157.12094 -50.823548 -166.77435 -74.327399 -166.78417 C -103.64471 -166.77397 -130.92652 -151.79225 -146.66717 -127.05894 L -157.25102 -127.05894 L -149.61996 -115.86014 L -157.25102 -26.140039 L -8.5138455 -26.140039 L 15.419061 -26.140039 L 8.0799737 -154.80195 L 15.419061 -165.68398 L 7.4593397 -165.68398 L 6.4490654 -183.39297 L -2.0863309 -198.17657 z M -83.43072 -192.21621 C -85.584619 -189.65499 -86.77489 -186.4211 -86.795372 -183.07465 C -86.842092 -175.15518 -80.459903 -168.69733 -72.540428 -168.65072 C -64.621155 -168.60402 -58.163395 -174.98588 -58.116503 -182.90515 C -58.102813 -186.26049 -59.266203 -189.5144 -61.404157 -192.10045 C -60.83125 -190.6836 -60.536835 -189.16959 -60.537027 -187.64129 C -60.575787 -181.07411 -65.930869 -175.78172 -72.498054 -175.82031 C -79.065241 -175.85911 -84.357627 -181.21415 -84.319038 -187.78134 C -84.309338 -189.30285 -84.007827 -190.80837 -83.43072 -192.21621 z M -112.862 -119.90383 L -110.8213 -115.65241 C -122.27181 -110.72075 -129.15897 -103.12528 -131.48308 -92.865166 C -128.19531 -94.452366 -125.07782 -95.245899 -122.13017 -95.245899 C -116.46159 -95.245899 -112.01168 -93.715477 -108.78059 -90.654448 C -105.49282 -87.593418 -103.84859 -83.455306 -103.84859 -78.240218 C -103.84859 -75.009132 -104.72735 -72.118221 -106.48461 -69.567363 C -108.18518 -67.016505 -110.59436 -65.032415 -113.71208 -63.615271 C -116.77311 -62.198128 -120.28762 -61.489303 -124.25562 -61.489303 C -131.00122 -61.489303 -136.18802 -63.360105 -139.81591 -67.101363 C -143.38711 -70.842622 -145.17269 -76.255999 -145.17269 -83.341716 C -145.17269 -92.241376 -142.42365 -99.808775 -136.92513 -106.04421 C -131.36993 -112.33632 -123.34886 -116.95617 -112.862 -119.90383 z M -57.16824 -119.73381 C -53.483667 -119.73381 -50.223796 -119.11073 -47.389509 -117.86364 C -44.555222 -116.67324 -42.344556 -114.97237 -40.757355 -112.76163 C -39.170155 -110.60757 -38.376622 -108.11368 -38.376622 -105.27939 C -38.376622 -102.10499 -39.312023 -99.384015 -41.182652 -97.116586 C -43.053282 -94.849156 -45.830904 -93.120223 -49.515477 -91.929822 C -44.867247 -90.909479 -41.607892 -89.237189 -39.737263 -86.913074 C -37.866633 -84.588959 -36.931232 -81.442892 -36.931232 -77.474891 C -36.931232 -74.017061 -37.979921 -71.069506 -40.077294 -68.632019 C -42.11798 -66.194533 -44.782315 -64.380375 -48.070087 -63.189974 C -51.35786 -61.999574 -54.759083 -61.404554 -58.273599 -61.404554 C -63.375315 -61.404554 -67.711423 -62.453243 -71.282624 -64.550615 C -74.79714 -66.647987 -76.554654 -69.510317 -76.554654 -73.138204 C -76.554654 -75.235577 -75.931053 -76.851222 -74.683967 -77.984937 C -73.436881 -79.175337 -71.877879 -79.770358 -70.00725 -79.770358 C -68.079935 -79.770358 -66.124425 -79.005405 -64.140424 -77.474891 C -64.650596 -76.397862 -64.905752 -75.094016 -64.905752 -73.563501 C -64.905752 -71.749558 -64.366859 -70.275781 -63.28983 -69.142066 C -62.156116 -68.008351 -60.484343 -67.441394 -58.273599 -67.441394 C -53.398626 -67.441394 -50.960867 -70.814037 -50.960867 -77.55964 C -50.960867 -81.244213 -52.151424 -84.10706 -54.532225 -86.147746 C -56.85634 -88.188433 -60.172339 -89.208541 -64.480455 -89.208541 L -64.480455 -94.480571 C -56.147652 -95.1608 -51.981477 -98.760535 -51.981477 -105.27939 C -51.981477 -108.56717 -52.491272 -110.97583 -53.511616 -112.50634 C -54.531959 -114.09354 -55.921029 -114.88759 -57.678286 -114.88759 C -59.775659 -114.88759 -61.362724 -114.15071 -62.439753 -112.67688 C -63.460096 -111.20305 -63.970409 -109.41747 -63.970409 -107.3201 C -63.970409 -105.44947 -63.573384 -103.77718 -62.779784 -102.30335 C -64.366984 -100.60278 -66.407718 -99.752084 -68.901891 -99.752084 C -71.16932 -99.752084 -72.926834 -100.43233 -74.17392 -101.79279 C -75.421007 -103.15324 -76.04409 -104.91076 -76.04409 -107.06482 C -76.04409 -109.8991 -75.080626 -112.25164 -73.153311 -114.12227 C -71.16931 -116.04958 -68.732068 -117.46671 -65.841096 -118.37369 C -62.893437 -119.28066 -60.002527 -119.73381 -57.16824 -119.73381 z M -13.973461 -119.73381 C -10.288888 -119.73381 -7.0295328 -119.11073 -4.1952461 -117.86364 C -1.3609593 -116.67324 0.84970666 -114.97237 2.4369072 -112.76163 C 4.0241078 -110.60757 4.8176405 -108.11368 4.8176405 -105.27939 C 4.8176405 -102.10499 3.8822395 -99.384015 2.0116102 -97.116586 C 0.14098095 -94.849156 -2.636125 -93.120223 -6.3206977 -91.929822 C -1.6724675 -90.909479 1.5868875 -89.237189 3.4575168 -86.913074 C 5.328146 -84.588959 6.2630303 -81.442892 6.2630303 -77.474891 C 6.2630303 -74.017061 5.2143413 -71.069506 3.1169691 -68.632019 C 1.0762826 -66.194533 -1.5875353 -64.380375 -4.8753079 -63.189974 C -8.1630806 -61.999574 -11.564304 -61.404554 -15.078819 -61.404554 C -20.180536 -61.404554 -24.51716 -62.453243 -28.088361 -64.550615 C -31.602877 -66.647987 -33.359874 -69.510317 -33.359874 -73.138204 C -33.359874 -75.235577 -32.736273 -76.851222 -31.489187 -77.984937 C -30.242101 -79.175337 -28.683616 -79.770358 -26.812987 -79.770358 C -24.885672 -79.770358 -22.929646 -79.005405 -20.945645 -77.474891 C -21.455816 -76.397862 -21.710973 -75.094016 -21.710973 -73.563501 C -21.710973 -71.749558 -21.172596 -70.275781 -20.095568 -69.142066 C -18.961853 -68.008351 -17.289563 -67.441394 -15.078819 -67.441394 C -10.203846 -67.441394 -7.7666043 -70.814037 -7.7666043 -77.55964 C -7.7666043 -81.244213 -8.9566449 -84.10706 -11.337446 -86.147746 C -13.661561 -88.188433 -16.978077 -89.208541 -21.286193 -89.208541 L -21.286193 -94.480571 C -12.953389 -95.1608 -8.7866971 -98.760535 -8.7866971 -105.27939 C -8.7866971 -108.56717 -9.2970098 -110.97583 -10.317353 -112.50634 C -11.337696 -114.09354 -12.726249 -114.88759 -14.483507 -114.88759 C -16.580879 -114.88759 -18.168461 -114.15071 -19.24549 -112.67688 C -20.265833 -111.20305 -20.775629 -109.41747 -20.775629 -107.3201 C -20.775629 -105.44947 -20.379121 -103.77718 -19.585521 -102.30335 C -21.172722 -100.60278 -23.213456 -99.752084 -25.707628 -99.752084 C -27.975057 -99.752084 -29.732055 -100.43233 -30.979141 -101.79279 C -32.226227 -103.15324 -32.849828 -104.91076 -32.849828 -107.06482 C -32.849828 -109.8991 -31.886363 -112.25164 -29.959048 -114.12227 C -27.975047 -116.04958 -25.537289 -117.46671 -22.646316 -118.37369 C -19.698658 -119.28066 -16.807747 -119.73381 -13.973461 -119.73381 z M -88.883617 -101.28274 C -86.899616 -101.28274 -85.425839 -100.68772 -84.462181 -99.497319 C -83.441838 -98.363604 -82.931525 -96.776539 -82.931525 -94.735852 C -82.931525 -92.695166 -83.441838 -91.107584 -84.462181 -89.973869 C -85.425839 -88.840154 -86.899616 -88.273198 -88.883617 -88.273198 C -90.867618 -88.273198 -92.369975 -88.840154 -93.390319 -89.973869 C -94.353976 -91.16427 -94.835708 -92.751852 -94.835708 -94.735852 C -94.835708 -96.833225 -94.353976 -98.448354 -93.390319 -99.582068 C -92.369975 -100.71578 -90.867618 -101.28274 -88.883617 -101.28274 z M -124.5109 -89.293807 C -126.8917 -89.293807 -129.47081 -88.330343 -132.24841 -86.403028 L -132.24841 -85.297669 C -132.24841 -79.118924 -131.56817 -74.583787 -130.20771 -71.692814 C -128.84725 -68.801842 -126.69323 -67.356645 -123.74557 -67.356645 C -121.30808 -67.356645 -119.43728 -68.291529 -118.13351 -70.162159 C -116.82974 -72.032788 -116.17807 -74.697123 -116.17807 -78.154952 C -116.17807 -81.669468 -116.91496 -84.390447 -118.38879 -86.317762 C -119.80594 -88.301762 -121.84667 -89.293807 -124.5109 -89.293807 z M -88.883617 -74.498845 C -86.899616 -74.498845 -85.425839 -73.903824 -84.462181 -72.713424 C -83.441838 -71.579709 -82.931525 -69.992127 -82.931525 -67.951441 C -82.931525 -65.910754 -83.441838 -64.323689 -84.462181 -63.189974 C -85.425839 -62.05626 -86.899616 -61.489303 -88.883617 -61.489303 C -90.867618 -61.489303 -92.369975 -62.05626 -93.390319 -63.189974 C -94.353976 -64.380375 -94.835708 -65.96744 -94.835708 -67.951441 C -94.835708 -70.048813 -94.353976 -71.664459 -93.390319 -72.798173 C -92.369975 -73.931888 -90.867618 -74.498845 -88.883617 -74.498845 z " /></g></svg>
