<?xml version="1.0" encoding="UTF-8" standalone="no"?>
<!-- Created with Inkscape (http://www.inkscape.org/) -->

<svg
   width="172.6701mm"
   height="172.6701mm"
   viewBox="0 0 172.6701 172.6701"
   version="1.1"
   id="svg1"
   xml:space="preserve"
   xmlns="http://www.w3.org/2000/svg"
   xmlns:svg="http://www.w3.org/2000/svg"><defs
     id="defs1" /><g
     id="layer1"
     transform="translate(157.25102,198.81012)"><path
       id="path5"
       style="fill:#ffffff;fill-opacity:1;stroke-width:0.805188;stroke-linecap:round;stroke-linejoin:round"
       d="M -2.0863309 -198.17657 L -10.088943 -183.11289 L -10.930235 -165.68398 L -19.198981 -165.68398 L -11.423229 -155.47426 L -12.166336 -140.07934 C -28.353216 -157.12094 -50.823548 -166.77435 -74.327399 -166.78417 C -103.64471 -166.77397 -130.92652 -151.79225 -146.66717 -127.05894 L -157.25102 -127.05894 L -149.61996 -115.86014 L -157.25102 -26.140039 L -8.5138455 -26.140039 L 15.419061 -26.140039 L 8.0799737 -154.80195 L 15.419061 -165.68398 L 7.4593397 -165.68398 L 6.4490654 -183.39297 L -2.0863309 -198.17657 z M -83.43072 -192.21621 C -85.584619 -189.65499 -86.77489 -186.4211 -86.795372 -183.07465 C -86.842092 -175.15518 -80.459903 -168.69733 -72.540428 -168.65072 C -64.621155 -168.60402 -58.163395 -174.98588 -58.116503 -182.90515 C -58.102813 -186.26049 -59.266203 -189.5144 -61.404157 -192.10045 C -60.83125 -190.6836 -60.536835 -189.16959 -60.537027 -187.64129 C -60.575787 -181.07411 -65.930869 -175.78172 -72.498054 -175.82031 C -79.065241 -175.85911 -84.357627 -181.21415 -84.319038 -187.78134 C -84.309338 -189.30285 -84.007827 -190.80837 -83.43072 -192.21621 z M -124.80856 -120.07436 C -120.2737 -119.84761 -116.58874 -118.85557 -113.75445 -117.09831 L -133.99146 -83.767013 L -120.98192 -83.767013 L -120.13184 -97.626632 C -118.3179 -97.626632 -117.01405 -97.995076 -116.22045 -98.731991 C -115.37016 -99.468905 -114.7185 -100.71611 -114.26501 -102.47336 L -109.41828 -102.47336 L -109.50303 -83.341716 C -107.34897 -82.718173 -104.62799 -82.066508 -101.34022 -81.38628 L -101.76552 -77.304875 L -109.92833 -77.304875 L -109.92833 -62.084615 L -120.98192 -62.084615 L -120.98192 -77.304875 L -145.55509 -77.304875 L -146.23567 -80.36567 L -124.80856 -120.07436 z M -7.808979 -119.13901 L -5.0029487 -117.86364 L -5.0029487 -68.716769 C -3.9259197 -68.093226 -2.2255665 -67.526269 0.098548685 -67.016097 C 2.4226638 -66.562611 4.2648855 -66.279392 5.6253431 -66.16602 L 5.3705783 -62.084615 L -29.321361 -62.084615 L -29.151346 -66.16602 C -24.106315 -66.732877 -20.251423 -67.583054 -17.587194 -68.716769 L -17.587194 -109.44555 L -28.98133 -109.44555 L -28.98133 -114.37703 C -25.353443 -114.66046 -21.611839 -115.19935 -17.757209 -115.99295 C -13.902579 -116.84324 -10.58658 -117.89193 -7.808979 -119.13901 z M -66.308767 -119.05375 L -62.057347 -118.969 C -56.048659 -118.85563 -52.874012 -118.79847 -52.533898 -118.79847 L -40.460216 -118.969 L -37.994217 -117.18306 L -38.759545 -110.72092 L -59.84663 -110.72092 L -61.036738 -96.521273 C -58.08908 -97.258188 -55.425262 -97.626632 -53.044461 -97.626632 C -47.432573 -97.626632 -42.869373 -96.124274 -39.354857 -93.11993 C -35.783656 -90.172272 -33.997561 -85.836165 -33.997561 -80.110905 C -33.997561 -76.539704 -34.848255 -73.336993 -36.548827 -70.502706 C -38.192713 -67.66842 -40.573311 -65.429173 -43.691027 -63.785287 C -46.808742 -62.198086 -50.493185 -61.404554 -54.744615 -61.404554 C -58.202445 -61.404554 -61.348512 -61.886286 -64.182799 -62.849943 C -66.9604 -63.813601 -69.143002 -65.14551 -70.730203 -66.846082 C -72.317404 -68.60334 -73.110936 -70.559366 -73.110936 -72.713424 C -73.110936 -74.980853 -72.487336 -76.709787 -71.240249 -77.900188 C -69.993163 -79.147274 -68.462742 -79.770358 -66.648798 -79.770358 C -65.628455 -79.770358 -64.608346 -79.572362 -63.588003 -79.175562 C -62.510974 -78.778762 -61.546993 -78.211805 -60.696707 -77.474891 C -61.206878 -76.28449 -61.462035 -75.037289 -61.462035 -73.733517 C -61.462035 -71.862888 -60.923659 -70.332466 -59.84663 -69.142066 C -58.712915 -67.951665 -57.012045 -67.356645 -54.744615 -67.356645 C -49.642899 -67.356645 -47.092369 -71.608045 -47.092369 -80.110905 C -47.092369 -84.135593 -47.885902 -87.054567 -49.473103 -88.86851 C -51.060303 -90.73914 -53.185745 -91.674541 -55.849974 -91.674541 C -57.493861 -91.674541 -59.251375 -91.36274 -61.122004 -90.739197 C -62.992633 -90.115654 -64.834855 -89.236897 -66.648798 -88.103182 L -71.325515 -92.609884 L -69.114798 -116.75776 L -66.308767 -119.05375 z M -86.630524 -101.28274 C -84.646524 -101.28274 -83.172746 -100.68772 -82.209089 -99.497319 C -81.188746 -98.363604 -80.678433 -96.776539 -80.678433 -94.735852 C -80.678433 -92.695166 -81.188746 -91.107584 -82.209089 -89.973869 C -83.172746 -88.840154 -84.646524 -88.273198 -86.630524 -88.273198 C -88.614525 -88.273198 -90.116883 -88.840154 -91.137226 -89.973869 C -92.100884 -91.16427 -92.582616 -92.751852 -92.582616 -94.735852 C -92.582616 -96.833225 -92.100884 -98.448354 -91.137226 -99.582068 C -90.116883 -100.71578 -88.614525 -101.28274 -86.630524 -101.28274 z M -86.630524 -74.498845 C -84.646524 -74.498845 -83.172746 -73.903824 -82.209089 -72.713424 C -81.188746 -71.579709 -80.678433 -69.992127 -80.678433 -67.951441 C -80.678433 -65.910754 -81.188746 -64.323689 -82.209089 -63.189974 C -83.172746 -62.05626 -84.646524 -61.489303 -86.630524 -61.489303 C -88.614525 -61.489303 -90.116883 -62.05626 -91.137226 -63.189974 C -92.100884 -64.380375 -92.582616 -65.96744 -92.582616 -67.951441 C -92.582616 -70.048813 -92.100884 -71.664459 -91.137226 -72.798173 C -90.116883 -73.931888 -88.614525 -74.498845 -86.630524 -74.498845 z " /></g></svg>
