<?xml version="1.0" encoding="UTF-8" standalone="no"?>
<!-- Created with Inkscape (http://www.inkscape.org/) -->

<svg
   width="172.6701mm"
   height="172.6701mm"
   viewBox="0 0 172.6701 172.6701"
   version="1.1"
   id="svg1"
   xml:space="preserve"
   xmlns="http://www.w3.org/2000/svg"
   xmlns:svg="http://www.w3.org/2000/svg"><defs
     id="defs1" /><g
     id="layer1"
     transform="translate(157.25102,198.81012)"><path
       id="path5"
       style="fill:#ffffff;fill-opacity:1;stroke-width:0.805188;stroke-linecap:round;stroke-linejoin:round"
       d="M -2.0863309 -198.17657 L -10.088943 -183.11289 L -10.930235 -165.68398 L -19.198981 -165.68398 L -11.423229 -155.47426 L -12.166336 -140.07934 C -28.353216 -157.12094 -50.823548 -166.77435 -74.327399 -166.78417 C -103.64471 -166.77397 -130.92652 -151.79225 -146.66717 -127.05894 L -157.25102 -127.05894 L -149.61996 -115.86014 L -157.25102 -26.140039 L -8.5138455 -26.140039 L 15.419061 -26.140039 L 8.0799737 -154.80195 L 15.419061 -165.68398 L 7.4593397 -165.68398 L 6.4490654 -183.39297 L -2.0863309 -198.17657 z M -83.43072 -192.21621 C -85.584619 -189.65499 -86.77489 -186.4211 -86.795372 -183.07465 C -86.842092 -175.15518 -80.459903 -168.69733 -72.540428 -168.65072 C -64.621155 -168.60402 -58.163395 -174.98588 -58.116503 -182.90515 C -58.102813 -186.26049 -59.266203 -189.5144 -61.404157 -192.10045 C -60.83125 -190.6836 -60.536835 -189.16959 -60.537027 -187.64129 C -60.575787 -181.07411 -65.930869 -175.78172 -72.498054 -175.82031 C -79.065241 -175.85911 -84.357627 -181.21415 -84.319038 -187.78134 C -84.309338 -189.30285 -84.007827 -190.80837 -83.43072 -192.21621 z M -124.80856 -120.07436 C -120.2737 -119.84761 -116.58874 -118.85557 -113.75445 -117.09831 L -133.99146 -83.767013 L -120.98192 -83.767013 L -120.13184 -97.626632 C -118.3179 -97.626632 -117.01405 -97.995076 -116.22045 -98.731991 C -115.37016 -99.468905 -114.7185 -100.71611 -114.26501 -102.47336 L -109.41828 -102.47336 L -109.50303 -83.341716 C -107.34897 -82.718173 -104.62799 -82.066508 -101.34022 -81.38628 L -101.76552 -77.304875 L -109.92833 -77.304875 L -109.92833 -62.084615 L -120.98192 -62.084615 L -120.98192 -77.304875 L -145.55509 -77.304875 L -146.23567 -80.36567 L -124.80856 -120.07436 z M -52.023851 -119.13901 L -49.217821 -117.86364 L -49.217821 -68.716769 C -48.140792 -68.093226 -46.440439 -67.526269 -44.116324 -67.016097 C -41.792208 -66.562611 -39.949987 -66.279392 -38.589529 -66.16602 L -38.844294 -62.084615 L -73.536233 -62.084615 L -73.366218 -66.16602 C -68.321187 -66.732877 -64.466295 -67.583054 -61.802066 -68.716769 L -61.802066 -109.44555 L -73.196202 -109.44555 L -73.196202 -114.37703 C -69.568315 -114.66046 -65.826711 -115.19935 -61.972081 -115.99295 C -58.117451 -116.84324 -54.801452 -117.89193 -52.023851 -119.13901 z M -27.365408 -119.05375 L -23.113988 -118.969 C -17.1053 -118.85563 -13.931169 -118.79847 -13.591055 -118.79847 L -1.5168566 -118.969 L 0.94914276 -117.18306 L 0.1838148 -110.72092 L -20.90327 -110.72092 L -22.093895 -96.521273 C -19.146237 -97.258188 -16.481902 -97.626632 -14.101101 -97.626632 C -8.4892136 -97.626632 -3.9260133 -96.124274 -0.4114977 -93.11993 C 3.1597036 -90.172272 4.9452813 -85.836165 4.9452813 -80.110905 C 4.9452813 -76.539704 4.0951046 -73.336993 2.3945326 -70.502706 C 0.75064625 -67.66842 -1.6304685 -65.429173 -4.7481839 -63.785287 C -7.8658993 -62.198086 -11.550343 -61.404554 -15.801773 -61.404554 C -19.259603 -61.404554 -22.40567 -61.886286 -25.239956 -62.849943 C -28.017557 -63.813601 -30.199643 -65.14551 -31.786844 -66.846082 C -33.374044 -68.60334 -34.168094 -70.559366 -34.168094 -72.713424 C -34.168094 -74.980853 -33.544493 -76.709787 -32.297407 -77.900188 C -31.050321 -79.147274 -29.519382 -79.770358 -27.705439 -79.770358 C -26.685096 -79.770358 -25.664987 -79.572362 -24.644644 -79.175562 C -23.567615 -78.778762 -22.60415 -78.211805 -21.753864 -77.474891 C -22.264036 -76.28449 -22.518675 -75.037289 -22.518675 -73.733517 C -22.518675 -71.862888 -21.980299 -70.332466 -20.90327 -69.142066 C -19.769555 -67.951665 -18.069202 -67.356645 -15.801773 -67.356645 C -10.700057 -67.356645 -8.1490099 -71.608045 -8.1490099 -80.110905 C -8.1490099 -84.135593 -8.9425426 -87.054567 -10.529743 -88.86851 C -12.116944 -90.73914 -14.242902 -91.674541 -16.907132 -91.674541 C -18.551018 -91.674541 -20.308015 -91.36274 -22.178645 -90.739197 C -24.049274 -90.115654 -25.891495 -89.236897 -27.705439 -88.103182 L -32.382156 -92.609884 L -30.171438 -116.75776 L -27.365408 -119.05375 z M -86.630524 -101.28274 C -84.646524 -101.28274 -83.172746 -100.68772 -82.209089 -99.497319 C -81.188746 -98.363604 -80.678433 -96.776539 -80.678433 -94.735852 C -80.678433 -92.695166 -81.188746 -91.107584 -82.209089 -89.973869 C -83.172746 -88.840154 -84.646524 -88.273198 -86.630524 -88.273198 C -88.614525 -88.273198 -90.116883 -88.840154 -91.137226 -89.973869 C -92.100884 -91.16427 -92.582616 -92.751852 -92.582616 -94.735852 C -92.582616 -96.833225 -92.100884 -98.448354 -91.137226 -99.582068 C -90.116883 -100.71578 -88.614525 -101.28274 -86.630524 -101.28274 z M -86.630524 -74.498845 C -84.646524 -74.498845 -83.172746 -73.903824 -82.209089 -72.713424 C -81.188746 -71.579709 -80.678433 -69.992127 -80.678433 -67.951441 C -80.678433 -65.910754 -81.188746 -64.323689 -82.209089 -63.189974 C -83.172746 -62.05626 -84.646524 -61.489303 -86.630524 -61.489303 C -88.614525 -61.489303 -90.116883 -62.05626 -91.137226 -63.189974 C -92.100884 -64.380375 -92.582616 -65.96744 -92.582616 -67.951441 C -92.582616 -70.048813 -92.100884 -71.664459 -91.137226 -72.798173 C -90.116883 -73.931888 -88.614525 -74.498845 -86.630524 -74.498845 z " /></g></svg>
