<?xml version="1.0" encoding="UTF-8" standalone="no"?>
<!-- Created with Inkscape (http://www.inkscape.org/) -->

<svg
   width="172.6701mm"
   height="172.6701mm"
   viewBox="0 0 172.6701 172.6701"
   version="1.1"
   id="svg1"
   xml:space="preserve"
   xmlns="http://www.w3.org/2000/svg"
   xmlns:svg="http://www.w3.org/2000/svg"><defs
     id="defs1" /><g
     id="layer1"
     transform="translate(157.25102,198.81012)"><path
       id="path5"
       style="fill:#ffffff;fill-opacity:1;stroke-width:0.805188;stroke-linecap:round;stroke-linejoin:round"
       d="M -2.0863309 -198.17657 L -10.088943 -183.11289 L -10.930235 -165.68398 L -19.198981 -165.68398 L -11.423229 -155.47426 L -12.166336 -140.07934 C -28.353216 -157.12094 -50.823548 -166.77435 -74.327399 -166.78417 C -103.64471 -166.77397 -130.92652 -151.79225 -146.66717 -127.05894 L -157.25102 -127.05894 L -149.61996 -115.86014 L -157.25102 -26.140039 L -8.5138455 -26.140039 L 15.419061 -26.140039 L 8.0799737 -154.80195 L 15.419061 -165.68398 L 7.4593397 -165.68398 L 6.4490654 -183.39297 L -2.0863309 -198.17657 z M -83.43072 -192.21621 C -85.584619 -189.65499 -86.77489 -186.4211 -86.795372 -183.07465 C -86.842092 -175.15518 -80.459903 -168.69733 -72.540428 -168.65072 C -64.621155 -168.60402 -58.163395 -174.98588 -58.116503 -182.90515 C -58.102813 -186.26049 -59.266203 -189.5144 -61.404157 -192.10045 C -60.83125 -190.6836 -60.536835 -189.16959 -60.537027 -187.64129 C -60.575787 -181.07411 -65.930869 -175.78172 -72.498054 -175.82031 C -79.065241 -175.85911 -84.357627 -181.21415 -84.319038 -187.78134 C -84.309338 -189.30285 -84.007827 -190.80837 -83.43072 -192.21621 z M -58.61363 -119.73381 C -52.774999 -119.73381 -48.126574 -118.28861 -44.668745 -115.39764 C -41.210915 -112.56335 -39.481981 -108.56711 -39.481981 -103.40871 C -39.481981 -98.873849 -41.210915 -94.026912 -44.668745 -88.86851 C -48.126574 -83.766794 -53.823688 -77.616529 -61.759691 -70.41744 L -38.886669 -70.41744 L -38.886669 -62.084615 L -77.404731 -62.084615 L -77.404731 -67.016097 C -71.112614 -73.081471 -66.20955 -78.268272 -62.695034 -82.576388 C -59.180519 -86.884504 -56.658053 -90.852684 -55.127538 -94.480571 C -53.540337 -98.108458 -52.746805 -101.84955 -52.746805 -105.70418 C -52.746805 -111.82623 -54.787022 -114.88759 -58.868395 -114.88759 C -60.682338 -114.88759 -62.156632 -114.0369 -63.290347 -112.33633 C -64.424062 -110.69244 -64.990502 -108.65171 -64.990502 -106.21422 C -64.990502 -104.51365 -64.395481 -102.89852 -63.205081 -101.36801 C -64.168738 -100.46103 -65.274071 -99.752209 -66.521158 -99.242037 C -67.711558 -98.731866 -68.902115 -98.476709 -70.092516 -98.476709 C -72.133202 -98.476709 -73.833556 -99.10031 -75.194013 -100.3474 C -76.554471 -101.65117 -77.234715 -103.52197 -77.234715 -105.95946 C -77.234715 -108.567 -76.469763 -110.91953 -74.939248 -113.01691 C -73.408734 -115.11428 -71.254712 -116.75799 -68.47711 -117.94839 C -65.642824 -119.13879 -62.354888 -119.73381 -58.61363 -119.73381 z M -15.504117 -119.73381 C -9.6654858 -119.73381 -5.0170611 -118.28861 -1.5592313 -115.39764 C 1.8985986 -112.56335 3.6275322 -108.56711 3.6275322 -103.40871 C 3.6275322 -98.873849 1.8985986 -94.026912 -1.5592313 -88.86851 C -5.0170611 -83.766794 -10.714175 -77.616529 -18.650178 -70.41744 L 4.222328 -70.41744 L 4.222328 -62.084615 L -34.295218 -62.084615 L -34.295218 -67.016097 C -28.003101 -73.081471 -23.100037 -78.268272 -19.585521 -82.576388 C -16.071006 -86.884504 -13.548539 -90.852684 -12.018024 -94.480571 C -10.430824 -98.108458 -9.6372912 -101.84955 -9.6372912 -105.70418 C -9.6372912 -111.82623 -11.678025 -114.88759 -15.759398 -114.88759 C -17.573342 -114.88759 -19.047119 -114.0369 -20.180834 -112.33633 C -21.314548 -110.69244 -21.880988 -108.65171 -21.880988 -106.21422 C -21.880988 -104.51365 -21.285968 -102.89852 -20.095568 -101.36801 C -21.059225 -100.46103 -22.164558 -99.752209 -23.411644 -99.242037 C -24.602045 -98.731866 -25.792602 -98.476709 -26.983002 -98.476709 C -29.023689 -98.476709 -30.724042 -99.10031 -32.0845 -100.3474 C -33.444957 -101.65117 -34.125202 -103.52197 -34.125202 -105.95946 C -34.125202 -108.567 -33.36025 -110.91953 -31.829735 -113.01691 C -30.29922 -115.11428 -28.145198 -116.75799 -25.367597 -117.94839 C -22.53331 -119.13879 -19.245375 -119.73381 -15.504117 -119.73381 z M -142.96197 -118.88373 L -138.7953 -118.88373 C -136.64124 -118.82705 -131.93669 -118.79847 -124.68092 -118.79847 C -117.14171 -118.79847 -112.23813 -118.82705 -109.9707 -118.88373 L -105.8893 -118.88373 L -104.18914 -115.22762 C -105.26617 -113.52705 -107.30639 -109.84261 -110.31073 -104.17404 C -113.31508 -98.505463 -116.14934 -92.496548 -118.81357 -86.147746 C -121.4778 -79.798944 -122.81023 -74.838719 -122.81023 -71.267517 C -122.81023 -68.433231 -121.81818 -66.307789 -119.83418 -64.890646 C -121.7615 -62.566531 -124.22732 -61.404554 -127.23166 -61.404554 C -130.00926 -61.404554 -132.16329 -62.169506 -133.6938 -63.700021 C -135.22432 -65.230536 -135.98979 -67.356494 -135.98979 -70.077409 C -135.98979 -73.478553 -135.16767 -77.077772 -133.52379 -80.875717 C -131.8799 -84.730347 -128.93235 -89.945728 -124.68092 -96.521273 L -114.64742 -111.9963 L -134.03383 -111.9963 C -134.82743 -109.44544 -135.30917 -106.44124 -135.47922 -102.98341 C -136.49957 -102.81335 -137.54825 -102.72813 -138.62528 -102.72813 C -139.759 -102.72813 -140.86433 -102.81335 -141.94136 -102.98341 L -144.32261 -117.60836 L -142.96197 -118.88373 z M -90.669554 -101.28274 C -88.685554 -101.28274 -87.211776 -100.68772 -86.248119 -99.497319 C -85.227776 -98.363604 -84.717463 -96.776539 -84.717463 -94.735852 C -84.717463 -92.695166 -85.227776 -91.107584 -86.248119 -89.973869 C -87.211776 -88.840154 -88.685554 -88.273198 -90.669554 -88.273198 C -92.653555 -88.273198 -94.155396 -88.840154 -95.175739 -89.973869 C -96.139397 -91.16427 -96.621646 -92.751852 -96.621646 -94.735852 C -96.621646 -96.833225 -96.139397 -98.448354 -95.175739 -99.582068 C -94.155396 -100.71578 -92.653555 -101.28274 -90.669554 -101.28274 z M -90.669554 -74.498845 C -88.685554 -74.498845 -87.211776 -73.903824 -86.248119 -72.713424 C -85.227776 -71.579709 -84.717463 -69.992127 -84.717463 -67.951441 C -84.717463 -65.910754 -85.227776 -64.323689 -86.248119 -63.189974 C -87.211776 -62.05626 -88.685554 -61.489303 -90.669554 -61.489303 C -92.653555 -61.489303 -94.155396 -62.05626 -95.175739 -63.189974 C -96.139397 -64.380375 -96.621646 -65.96744 -96.621646 -67.951441 C -96.621646 -70.048813 -96.139397 -71.664459 -95.175739 -72.798173 C -94.155396 -73.931888 -92.653555 -74.498845 -90.669554 -74.498845 z " /></g></svg>
