<?xml version="1.0" encoding="UTF-8" standalone="no"?>
<!-- Created with Inkscape (http://www.inkscape.org/) -->

<svg
   width="172.6701mm"
   height="172.6701mm"
   viewBox="0 0 172.6701 172.6701"
   version="1.1"
   id="svg1"
   xml:space="preserve"
   xmlns="http://www.w3.org/2000/svg"
   xmlns:svg="http://www.w3.org/2000/svg"><defs
     id="defs1" /><g
     id="layer1"
     transform="translate(157.25102,198.81012)"><path
       id="path5"
       style="fill:#ffffff;fill-opacity:1;stroke-width:0.805188;stroke-linecap:round;stroke-linejoin:round"
       d="M -2.0863309 -198.17657 L -10.088943 -183.11289 L -10.930235 -165.68398 L -19.198981 -165.68398 L -11.423229 -155.47426 L -12.166336 -140.07934 C -28.353216 -157.12094 -50.823548 -166.77435 -74.327399 -166.78417 C -103.64471 -166.77397 -130.92652 -151.79225 -146.66717 -127.05894 L -157.25102 -127.05894 L -149.61996 -115.86014 L -157.25102 -26.140039 L -8.5138455 -26.140039 L 15.419061 -26.140039 L 8.0799737 -154.80195 L 15.419061 -165.68398 L 7.4593397 -165.68398 L 6.4490654 -183.39297 L -2.0863309 -198.17657 z M -83.43072 -192.21621 C -85.584619 -189.65499 -86.77489 -186.4211 -86.795372 -183.07465 C -86.842092 -175.15518 -80.459903 -168.69733 -72.540428 -168.65072 C -64.621155 -168.60402 -58.163395 -174.98588 -58.116503 -182.90515 C -58.102813 -186.26049 -59.266203 -189.5144 -61.404157 -192.10045 C -60.83125 -190.6836 -60.536835 -189.16959 -60.537027 -187.64129 C -60.575787 -181.07411 -65.930869 -175.78172 -72.498054 -175.82031 C -79.065241 -175.85911 -84.357627 -181.21415 -84.319038 -187.78134 C -84.309338 -189.30285 -84.007827 -190.80837 -83.43072 -192.21621 z M -57.550646 -120.07436 C -53.015787 -119.84761 -49.331344 -118.85557 -46.497057 -117.09831 L -66.733548 -83.767013 L -53.724523 -83.767013 L -52.873929 -97.626632 C -51.059985 -97.626632 -49.75614 -97.995076 -48.962539 -98.731991 C -48.112253 -99.468905 -47.460589 -100.71611 -47.007103 -102.47336 L -42.160371 -102.47336 L -42.245637 -83.341716 C -40.091579 -82.718173 -37.3706 -82.066508 -34.082827 -81.38628 L -34.508124 -77.304875 L -42.670417 -77.304875 L -42.670417 -62.084615 L -53.724523 -62.084615 L -53.724523 -77.304875 L -78.2977 -77.304875 L -78.977762 -80.36567 L -57.550646 -120.07436 z M -114.17975 -119.90383 L -112.13904 -115.65241 C -123.58956 -110.72075 -130.47672 -103.12528 -132.80083 -92.865166 C -129.51306 -94.452366 -126.39557 -95.245899 -123.44792 -95.245899 C -117.77934 -95.245899 -113.32943 -93.715477 -110.09834 -90.654448 C -106.81057 -87.593418 -105.16686 -83.455306 -105.16686 -78.240218 C -105.16686 -75.009132 -106.0451 -72.118221 -107.80236 -69.567363 C -109.50293 -67.016505 -111.91211 -65.032415 -115.02982 -63.615271 C -118.09085 -62.198128 -121.60537 -61.489303 -125.57337 -61.489303 C -132.31897 -61.489303 -137.50577 -63.360105 -141.13366 -67.101363 C -144.70486 -70.842622 -146.49044 -76.255999 -146.49044 -83.341716 C -146.49044 -92.241376 -143.74139 -99.808775 -138.24288 -106.04421 C -132.68768 -112.33632 -124.66661 -116.95617 -114.17975 -119.90383 z M -29.661392 -118.88373 L -25.494721 -118.88373 C -23.340663 -118.82705 -18.636111 -118.79847 -11.380337 -118.79847 C -3.8411345 -118.79847 1.0624466 -118.82705 3.329876 -118.88373 L 7.4112806 -118.88373 L 9.111952 -115.22762 C 8.034923 -113.52705 5.994189 -109.84261 2.9898451 -104.17404 C -0.014498887 -98.505463 -2.8487655 -92.496548 -5.5129951 -86.147746 C -8.1772246 -79.798944 -9.5096504 -74.838719 -9.5096504 -71.267517 C -9.5096504 -68.433231 -8.5176054 -66.307789 -6.5336046 -64.890646 C -8.4609196 -62.566531 -10.926742 -61.404554 -13.931086 -61.404554 C -16.708687 -61.404554 -18.862709 -62.169506 -20.393224 -63.700021 C -21.923739 -65.230536 -22.689208 -67.356494 -22.689208 -70.077409 C -22.689208 -73.478553 -21.867095 -77.077772 -20.223208 -80.875717 C -18.579322 -84.730347 -15.631767 -89.945728 -11.380337 -96.521273 L -1.3468411 -111.9963 L -20.733255 -111.9963 C -21.526855 -109.44544 -22.008587 -106.44124 -22.178645 -102.98341 C -23.198988 -102.81335 -24.247677 -102.72813 -25.324706 -102.72813 C -26.45842 -102.72813 -27.563753 -102.81335 -28.640782 -102.98341 L -31.021516 -117.60836 L -29.661392 -118.88373 z M -90.201883 -101.28274 C -88.217882 -101.28274 -86.744105 -100.68772 -85.780447 -99.497319 C -84.760104 -98.363604 -84.249791 -96.776539 -84.249791 -94.735852 C -84.249791 -92.695166 -84.760104 -91.107584 -85.780447 -89.973869 C -86.744105 -88.840154 -88.217882 -88.273198 -90.201883 -88.273198 C -92.185883 -88.273198 -93.687724 -88.840154 -94.708068 -89.973869 C -95.671725 -91.16427 -96.153457 -92.751852 -96.153457 -94.735852 C -96.153457 -96.833225 -95.671725 -98.448354 -94.708068 -99.582068 C -93.687724 -100.71578 -92.185883 -101.28274 -90.201883 -101.28274 z M -125.82865 -89.293807 C -128.20945 -89.293807 -130.78856 -88.330343 -133.56616 -86.403028 L -133.56616 -85.297669 C -133.56616 -79.118924 -132.88592 -74.583787 -131.52546 -71.692814 C -130.165 -68.801842 -128.01098 -67.356645 -125.06332 -67.356645 C -122.62583 -67.356645 -120.75555 -68.291529 -119.45178 -70.162159 C -118.148 -72.032788 -117.49582 -74.697123 -117.49582 -78.154952 C -117.49582 -81.669468 -118.23271 -84.390447 -119.70654 -86.317762 C -121.12369 -88.301762 -123.16442 -89.293807 -125.82865 -89.293807 z M -90.201883 -74.498845 C -88.217882 -74.498845 -86.744105 -73.903824 -85.780447 -72.713424 C -84.760104 -71.579709 -84.249791 -69.992127 -84.249791 -67.951441 C -84.249791 -65.910754 -84.760104 -64.323689 -85.780447 -63.189974 C -86.744105 -62.05626 -88.217882 -61.489303 -90.201883 -61.489303 C -92.185883 -61.489303 -93.687724 -62.05626 -94.708068 -63.189974 C -95.671725 -64.380375 -96.153457 -65.96744 -96.153457 -67.951441 C -96.153457 -70.048813 -95.671725 -71.664459 -94.708068 -72.798173 C -93.687724 -73.931888 -92.185883 -74.498845 -90.201883 -74.498845 z " /></g></svg>
