<?xml version="1.0" encoding="UTF-8" standalone="no"?>
<!-- Created with Inkscape (http://www.inkscape.org/) -->

<svg
   width="172.6701mm"
   height="172.6701mm"
   viewBox="0 0 172.6701 172.6701"
   version="1.1"
   id="svg1"
   xml:space="preserve"
   xmlns="http://www.w3.org/2000/svg"
   xmlns:svg="http://www.w3.org/2000/svg"><defs
     id="defs1" /><g
     id="layer1"
     transform="translate(157.25102,198.81012)"><path
       id="path5"
       style="fill:#ffffff;fill-opacity:1;stroke-width:0.805188;stroke-linecap:round;stroke-linejoin:round"
       d="M -2.0863309 -198.17657 L -10.088943 -183.11289 L -10.930235 -165.68398 L -19.198981 -165.68398 L -11.423229 -155.47426 L -12.166336 -140.07934 C -28.353216 -157.12094 -50.823548 -166.77435 -74.327399 -166.78417 C -103.64471 -166.77397 -130.92652 -151.79225 -146.66717 -127.05894 L -157.25102 -127.05894 L -149.61996 -115.86014 L -157.25102 -26.140039 L -8.5138455 -26.140039 L 15.419061 -26.140039 L 8.0799737 -154.80195 L 15.419061 -165.68398 L 7.4593397 -165.68398 L 6.4490654 -183.39297 L -2.0863309 -198.17657 z M -83.43072 -192.21621 C -85.584619 -189.65499 -86.77489 -186.4211 -86.795372 -183.07465 C -86.842092 -175.15518 -80.459903 -168.69733 -72.540428 -168.65072 C -64.621155 -168.60402 -58.163395 -174.98588 -58.116503 -182.90515 C -58.102813 -186.26049 -59.266203 -189.5144 -61.404157 -192.10045 C -60.83125 -190.6836 -60.536835 -189.16959 -60.537027 -187.64129 C -60.575787 -181.07411 -65.930869 -175.78172 -72.498054 -175.82031 C -79.065241 -175.85911 -84.357627 -181.21415 -84.319038 -187.78134 C -84.309338 -189.30285 -84.007827 -190.80837 -83.43072 -192.21621 z M -117.10205 -130.68663 C -109.07773 -130.68663 -102.68959 -128.69999 -97.937328 -124.72679 C -93.185062 -120.83149 -90.809081 -115.3392 -90.809081 -108.24976 C -90.809081 -102.01728 -93.185062 -95.356443 -97.937328 -88.266997 C -102.68959 -81.255457 -110.51898 -72.8024 -121.42582 -62.908338 L -89.991043 -62.908338 L -89.991043 -51.456324 L -142.92786 -51.456324 L -142.92786 -58.234204 C -134.2803 -66.570147 -127.5417 -73.698606 -122.71153 -79.619462 C -117.88135 -85.540319 -114.41459 -90.99372 -112.31113 -95.979704 C -110.12976 -100.96569 -109.03898 -106.10751 -109.03898 -111.40512 C -109.03898 -119.81897 -111.8437 -124.02554 -117.45293 -124.02554 C -119.94592 -124.02554 -121.97144 -122.85699 -123.52956 -120.51981 C -125.08768 -118.26053 -125.86637 -115.45633 -125.86637 -112.10637 C -125.86637 -109.76919 -125.04828 -107.54874 -123.41226 -105.44528 C -124.73666 -104.19878 -126.25619 -103.22464 -127.97012 -102.52349 C -129.60615 -101.82234 -131.2418 -101.47188 -132.87783 -101.47188 C -135.68245 -101.47188 -138.02006 -102.32885 -139.88981 -104.04278 C -141.75955 -105.83462 -142.69429 -108.40553 -142.69429 -111.75549 C -142.69429 -115.33916 -141.64238 -118.57211 -139.53892 -121.45463 C -137.43546 -124.33716 -134.47521 -126.59649 -130.65781 -128.23252 C -126.76251 -129.86854 -122.24385 -130.68663 -117.10205 -130.68663 z M -55.400389 -130.56984 C -46.285387 -130.56984 -39.312975 -127.14196 -34.482803 -120.28623 C -29.574725 -113.50841 -27.120462 -103.65351 -27.120462 -90.72111 C -27.120462 -77.788714 -29.574725 -67.85553 -34.482803 -60.921896 C -39.312975 -54.066168 -46.285387 -50.638286 -55.400389 -50.638286 C -64.515391 -50.638286 -71.527203 -54.066168 -76.435281 -60.921896 C -81.343359 -67.85553 -83.797106 -77.788714 -83.797106 -90.72111 C -83.797106 -103.5756 -81.343359 -113.4305 -76.435281 -120.28623 C -71.527203 -127.14196 -64.515391 -130.56984 -55.400389 -130.56984 z M -55.400389 -124.61 C -59.373595 -124.61 -62.256085 -122.0002 -64.047923 -116.7805 C -65.761856 -111.5608 -66.618826 -102.87445 -66.618826 -90.72111 C -66.618826 -78.64568 -65.761856 -69.997693 -64.047923 -64.777991 C -62.256085 -59.636195 -59.373595 -57.065284 -55.400389 -57.065284 C -51.427183 -57.065284 -48.583576 -59.636195 -46.869644 -64.777991 C -45.077806 -69.997693 -44.181953 -78.64568 -44.181953 -90.72111 C -44.181953 -102.79654 -45.077806 -111.44401 -46.869644 -116.66371 C -48.583576 -121.96132 -51.427183 -124.61 -55.400389 -124.61 z M -6.9041247 -105.32849 C -4.1774146 -105.32849 -2.151895 -104.5104 -0.82749298 -102.87437 C 0.57481503 -101.31625 1.2762546 -99.134686 1.2762546 -96.33007 C 1.2762546 -93.525454 0.57481503 -91.344404 -0.82749298 -89.786284 C -2.151895 -88.228164 -4.1774146 -87.448959 -6.9041247 -87.448959 C -9.6308347 -87.448959 -11.695237 -88.228164 -13.097545 -89.786284 C -14.421947 -91.42231 -15.083987 -93.60336 -15.083987 -96.33007 C -15.083987 -99.212592 -14.421947 -101.43304 -13.097545 -102.99116 C -11.695237 -104.54928 -9.6308347 -105.32849 -6.9041247 -105.32849 z M -6.9041247 -68.517814 C -4.1774146 -68.517814 -2.151895 -67.699727 -0.82749298 -66.063701 C 0.57481503 -64.505581 1.2762546 -62.324013 1.2762546 -59.519397 C 1.2762546 -56.714781 0.57481503 -54.533731 -0.82749298 -52.975611 C -2.151895 -51.417491 -4.1774146 -50.638286 -6.9041247 -50.638286 C -9.6308347 -50.638286 -11.695237 -51.417491 -13.097545 -52.975611 C -14.421947 -54.611637 -15.083987 -56.792687 -15.083987 -59.519397 C -15.083987 -62.401919 -14.421947 -64.622369 -13.097545 -66.180489 C -11.695237 -67.738609 -9.6308347 -68.517814 -6.9041247 -68.517814 z " /></g></svg>
