<?xml version="1.0" encoding="UTF-8" standalone="no"?>
<!-- Created with Inkscape (http://www.inkscape.org/) -->

<svg
   width="172.6701mm"
   height="172.6701mm"
   viewBox="0 0 172.6701 172.6701"
   version="1.1"
   id="svg1"
   xml:space="preserve"
   xmlns="http://www.w3.org/2000/svg"
   xmlns:svg="http://www.w3.org/2000/svg"><defs
     id="defs1" /><g
     id="layer1"
     transform="translate(157.25102,198.81012)"><path
       id="path5"
       style="fill:#ffffff;fill-opacity:1;stroke-width:0.805188;stroke-linecap:round;stroke-linejoin:round"
       d="M -2.0863309 -198.17657 L -10.088943 -183.11289 L -10.930235 -165.68398 L -19.198981 -165.68398 L -11.423229 -155.47426 L -12.166336 -140.07934 C -28.353216 -157.12094 -50.823548 -166.77435 -74.327399 -166.78417 C -103.64471 -166.77397 -130.92652 -151.79225 -146.66717 -127.05894 L -157.25102 -127.05894 L -149.61996 -115.86014 L -157.25102 -26.140039 L -8.5138455 -26.140039 L 15.419061 -26.140039 L 8.0799737 -154.80195 L 15.419061 -165.68398 L 7.4593397 -165.68398 L 6.4490654 -183.39297 L -2.0863309 -198.17657 z M -83.43072 -192.21621 C -85.584619 -189.65499 -86.77489 -186.4211 -86.795372 -183.07465 C -86.842092 -175.15518 -80.459903 -168.69733 -72.540428 -168.65072 C -64.621155 -168.60402 -58.163395 -174.98588 -58.116503 -182.90515 C -58.102813 -186.26049 -59.266203 -189.5144 -61.404157 -192.10045 C -60.83125 -190.6836 -60.536835 -189.16959 -60.537027 -187.64129 C -60.575787 -181.07411 -65.930869 -175.78172 -72.498054 -175.82031 C -79.065241 -175.85911 -84.357627 -181.21415 -84.319038 -187.78134 C -84.309338 -189.30285 -84.007827 -190.80837 -83.43072 -192.21621 z M -46.640201 -150.25908 L -42.667833 -141.98258 C -64.95813 -132.3823 -78.365399 -117.596 -82.889667 -97.623015 C -76.489483 -100.71276 -70.420089 -102.25736 -64.681993 -102.25736 C -53.647193 -102.25736 -44.985302 -99.278194 -38.695466 -93.319401 C -32.295282 -87.360609 -29.095018 -79.304934 -29.095018 -69.152918 C -29.095018 -62.863082 -30.805183 -57.235371 -34.225971 -52.269711 C -37.536411 -47.304051 -42.226257 -43.442038 -48.295397 -40.683338 C -54.254189 -37.924638 -61.095882 -36.545089 -68.820242 -36.545089 C -81.951654 -36.545089 -92.048627 -40.187035 -99.1109 -47.470004 C -106.06282 -54.752972 -109.53869 -65.291111 -109.53869 -79.084611 C -109.53869 -96.409248 -104.18658 -111.14053 -93.482819 -123.27881 C -82.668715 -135.52744 -67.054581 -144.52098 -46.640201 -150.25908 z M -69.316853 -90.670984 C -73.951469 -90.670984 -78.972447 -88.795253 -84.379499 -85.043421 L -84.379499 -82.891614 C -84.379499 -70.863682 -83.054967 -62.035707 -80.406615 -56.407959 C -77.758263 -50.780211 -73.565117 -47.966097 -67.827021 -47.966097 C -63.082057 -47.966097 -59.440627 -49.786812 -56.902623 -53.428296 C -54.364619 -57.06978 -53.09562 -62.256325 -53.09562 -68.987553 C -53.09562 -75.829129 -54.530186 -81.125707 -57.399234 -84.877539 C -60.157934 -88.73972 -64.130496 -90.670984 -69.316853 -90.670984 z " /></g></svg>
