<?xml version="1.0" encoding="UTF-8" standalone="no"?>
<!-- Created with Inkscape (http://www.inkscape.org/) -->

<svg
   width="172.6701mm"
   height="172.6701mm"
   viewBox="0 0 172.6701 172.6701"
   version="1.1"
   id="svg1"
   xml:space="preserve"
   xmlns="http://www.w3.org/2000/svg"
   xmlns:svg="http://www.w3.org/2000/svg"><defs
     id="defs1" /><g
     id="layer1"
     transform="translate(157.25102,198.81012)"><path
       id="path5"
       style="fill:#ffffff;fill-opacity:1;stroke-width:0.805188;stroke-linecap:round;stroke-linejoin:round"
       d="M -2.0863309 -198.17657 L -10.088943 -183.11289 L -10.930235 -165.68398 L -19.198981 -165.68398 L -11.423229 -155.47426 L -12.166336 -140.07934 C -28.353216 -157.12094 -50.823548 -166.77435 -74.327399 -166.78417 C -103.64471 -166.77397 -130.92652 -151.79225 -146.66717 -127.05894 L -157.25102 -127.05894 L -149.61996 -115.86014 L -157.25102 -26.140039 L -8.5138455 -26.140039 L 15.419061 -26.140039 L 8.0799737 -154.80195 L 15.419061 -165.68398 L 7.4593397 -165.68398 L 6.4490654 -183.39297 L -2.0863309 -198.17657 z M -83.43072 -192.21621 C -85.584619 -189.65499 -86.77489 -186.4211 -86.795372 -183.07465 C -86.842092 -175.15518 -80.459903 -168.69733 -72.540428 -168.65072 C -64.621155 -168.60402 -58.163395 -174.98588 -58.116503 -182.90515 C -58.102813 -186.26049 -59.266203 -189.5144 -61.404157 -192.10045 C -60.83125 -190.6836 -60.536835 -189.16959 -60.537027 -187.64129 C -60.575787 -181.07411 -65.930869 -175.78172 -72.498054 -175.82031 C -79.065241 -175.85911 -84.357627 -181.21415 -84.319038 -187.78134 C -84.309338 -189.30285 -84.007827 -190.80837 -83.43072 -192.21621 z M -48.549645 -144.69766 C -40.169271 -144.27864 -33.360201 -142.44513 -28.122468 -139.19774 L -65.519668 -77.602015 L -41.478758 -77.602015 L -39.907278 -103.21492 C -36.555129 -103.21492 -34.145861 -103.89588 -32.679296 -105.25769 C -31.107976 -106.6195 -29.903083 -108.92409 -29.065046 -112.17148 L -20.108487 -112.17148 L -20.265583 -76.816533 C -16.284906 -75.664231 -11.257003 -74.459339 -5.1812324 -73.202283 L -5.9667142 -65.660108 L -21.051582 -65.660108 L -21.051582 -37.533659 L -41.478758 -37.533659 L -41.478758 -65.660108 L -86.88994 -65.660108 L -88.146711 -71.317127 L -48.549645 -144.69766 z M -130.88674 -86.872766 L -94.589212 -86.872766 L -94.589212 -71.945512 L -130.88674 -71.945512 L -130.88674 -86.872766 z " /></g></svg>
