<?xml version="1.0" encoding="UTF-8" standalone="no"?>
<!-- Created with Inkscape (http://www.inkscape.org/) -->

<svg
   width="172.6701mm"
   height="172.6701mm"
   viewBox="0 0 172.6701 172.6701"
   version="1.1"
   id="svg1"
   xml:space="preserve"
   xmlns="http://www.w3.org/2000/svg"
   xmlns:svg="http://www.w3.org/2000/svg"><defs
     id="defs1" /><g
     id="layer1"
     transform="translate(157.25102,198.81012)"><path
       id="path5"
       style="fill:#ffffff;fill-opacity:1;stroke-width:0.805188;stroke-linecap:round;stroke-linejoin:round"
       d="M -2.0863309 -198.17657 L -10.088943 -183.11289 L -10.930235 -165.68398 L -19.198981 -165.68398 L -11.423229 -155.47426 L -12.166336 -140.07934 C -28.353216 -157.12094 -50.823548 -166.77435 -74.327399 -166.78417 C -103.64471 -166.77397 -130.92652 -151.79225 -146.66717 -127.05894 L -157.25102 -127.05894 L -149.61996 -115.86014 L -157.25102 -26.140039 L -8.5138455 -26.140039 L 15.419061 -26.140039 L 8.0799737 -154.80195 L 15.419061 -165.68398 L 7.4593397 -165.68398 L 6.4490654 -183.39297 L -2.0863309 -198.17657 z M -83.43072 -192.21621 C -85.584619 -189.65499 -86.77489 -186.4211 -86.795372 -183.07465 C -86.842092 -175.15518 -80.459903 -168.69733 -72.540428 -168.65072 C -64.621155 -168.60402 -58.163395 -174.98588 -58.116503 -182.90515 C -58.102813 -186.26049 -59.266203 -189.5144 -61.404157 -192.10045 C -60.83125 -190.6836 -60.536835 -189.16959 -60.537027 -187.64129 C -60.575787 -181.07411 -65.930869 -175.78172 -72.498054 -175.82031 C -79.065241 -175.85911 -84.357627 -181.21415 -84.319038 -187.78134 C -84.309338 -189.30285 -84.007827 -190.80837 -83.43072 -192.21621 z M -59.421333 -120.07436 C -54.886474 -119.84761 -51.20203 -118.85557 -48.367744 -117.09831 L -68.604235 -83.767013 L -55.595209 -83.767013 L -54.744615 -97.626632 C -52.930672 -97.626632 -51.626827 -97.995076 -50.833226 -98.731991 C -49.98294 -99.468905 -49.331276 -100.71611 -48.87779 -102.47336 L -44.031057 -102.47336 L -44.116324 -83.341716 C -41.962266 -82.718173 -39.241287 -82.066508 -35.953514 -81.38628 L -36.378295 -77.304875 L -44.541104 -77.304875 L -44.541104 -62.084615 L -55.595209 -62.084615 L -55.595209 -77.304875 L -80.168387 -77.304875 L -80.848448 -80.36567 L -59.421333 -120.07436 z M -126.93401 -119.73381 C -121.09538 -119.73381 -116.44695 -118.28861 -112.98912 -115.39764 C -109.53129 -112.56335 -107.80288 -108.56711 -107.80288 -103.40871 C -107.80288 -98.873849 -109.53129 -94.026912 -112.98912 -88.86851 C -116.44695 -83.766794 -122.14407 -77.616529 -130.08007 -70.41744 L -107.20756 -70.41744 L -107.20756 -62.084615 L -145.72563 -62.084615 L -145.72563 -67.016097 C -139.43351 -73.081471 -134.52993 -78.268272 -131.01541 -82.576388 C -127.5009 -86.884504 -124.97843 -90.852684 -123.44792 -94.480571 C -121.86071 -98.108458 -121.06718 -101.84955 -121.06718 -105.70418 C -121.06718 -111.82623 -123.10792 -114.88759 -127.18929 -114.88759 C -129.00323 -114.88759 -130.47701 -114.0369 -131.61072 -112.33633 C -132.74444 -110.69244 -133.3114 -108.65171 -133.3114 -106.21422 C -133.3114 -104.51365 -132.71586 -102.89852 -131.52546 -101.36801 C -132.48912 -100.46103 -133.59445 -99.752209 -134.84154 -99.242037 C -136.03194 -98.731866 -137.22249 -98.476709 -138.41289 -98.476709 C -140.45358 -98.476709 -142.15393 -99.10031 -143.51439 -100.3474 C -144.87485 -101.65117 -145.55509 -103.52197 -145.55509 -105.95946 C -145.55509 -108.567 -144.79014 -110.91953 -143.25963 -113.01691 C -141.72911 -115.11428 -139.57509 -116.75799 -136.79749 -117.94839 C -133.9632 -119.13879 -130.67527 -119.73381 -126.93401 -119.73381 z M -12.995742 -119.73381 C -7.1571118 -119.73381 -2.5086871 -118.28861 0.94914276 -115.39764 C 4.4069726 -112.56335 6.1359063 -108.56711 6.1359063 -103.40871 C 6.1359063 -98.873849 4.4069726 -94.026912 0.94914276 -88.86851 C -2.5086871 -83.766794 -8.2058008 -77.616529 -16.141804 -70.41744 L 6.730702 -70.41744 L 6.730702 -62.084615 L -31.786844 -62.084615 L -31.786844 -67.016097 C -25.494727 -73.081471 -20.591663 -78.268272 -17.077147 -82.576388 C -13.562632 -86.884504 -11.040165 -90.852684 -9.5096504 -94.480571 C -7.9224498 -98.108458 -7.1289171 -101.84955 -7.1289171 -105.70418 C -7.1289171 -111.82623 -9.1696511 -114.88759 -13.251024 -114.88759 C -15.064968 -114.88759 -16.538745 -114.0369 -17.67246 -112.33633 C -18.806174 -110.69244 -19.372614 -108.65171 -19.372614 -106.21422 C -19.372614 -104.51365 -18.777594 -102.89852 -17.587194 -101.36801 C -18.550851 -100.46103 -19.656184 -99.752209 -20.90327 -99.242037 C -22.093671 -98.731866 -23.284228 -98.476709 -24.474628 -98.476709 C -26.515315 -98.476709 -28.215668 -99.10031 -29.576126 -100.3474 C -30.936583 -101.65117 -31.616828 -103.52197 -31.616828 -105.95946 C -31.616828 -108.567 -30.851876 -110.91953 -29.321361 -113.01691 C -27.790846 -115.11428 -25.636824 -116.75799 -22.859223 -117.94839 C -20.024936 -119.13879 -16.737001 -119.73381 -12.995742 -119.73381 z M -92.072569 -101.28274 C -90.088569 -101.28274 -88.614275 -100.68772 -87.650617 -99.497319 C -86.630274 -98.363604 -86.120478 -96.776539 -86.120478 -94.735852 C -86.120478 -92.695166 -86.630274 -91.107584 -87.650617 -89.973869 C -88.614275 -88.840154 -90.088569 -88.273198 -92.072569 -88.273198 C -94.05657 -88.273198 -95.558411 -88.840154 -96.578754 -89.973869 C -97.542412 -91.16427 -98.024144 -92.751852 -98.024144 -94.735852 C -98.024144 -96.833225 -97.542412 -98.448354 -96.578754 -99.582068 C -95.558411 -100.71578 -94.05657 -101.28274 -92.072569 -101.28274 z M -92.072569 -74.498845 C -90.088569 -74.498845 -88.614275 -73.903824 -87.650617 -72.713424 C -86.630274 -71.579709 -86.120478 -69.992127 -86.120478 -67.951441 C -86.120478 -65.910754 -86.630274 -64.323689 -87.650617 -63.189974 C -88.614275 -62.05626 -90.088569 -61.489303 -92.072569 -61.489303 C -94.05657 -61.489303 -95.558411 -62.05626 -96.578754 -63.189974 C -97.542412 -64.380375 -98.024144 -65.96744 -98.024144 -67.951441 C -98.024144 -70.048813 -97.542412 -71.664459 -96.578754 -72.798173 C -95.558411 -73.931888 -94.05657 -74.498845 -92.072569 -74.498845 z " /></g></svg>
