<?xml version="1.0" encoding="UTF-8" standalone="no"?>
<!-- Created with Inkscape (http://www.inkscape.org/) -->

<svg
   width="172.6701mm"
   height="172.6701mm"
   viewBox="0 0 172.6701 172.6701"
   version="1.1"
   id="svg1"
   xml:space="preserve"
   xmlns="http://www.w3.org/2000/svg"
   xmlns:svg="http://www.w3.org/2000/svg"><defs
     id="defs1" /><g
     id="layer1"
     transform="translate(157.25102,198.81012)"><path
       id="path5"
       style="fill:#ffffff;fill-opacity:1;stroke-width:0.805188;stroke-linecap:round;stroke-linejoin:round"
       d="M -2.0863309 -198.17657 L -10.088943 -183.11289 L -10.930235 -165.68398 L -19.198981 -165.68398 L -11.423229 -155.47426 L -12.166336 -140.07934 C -28.353216 -157.12094 -50.823548 -166.77435 -74.327399 -166.78417 C -103.64471 -166.77397 -130.92652 -151.79225 -146.66717 -127.05894 L -157.25102 -127.05894 L -149.61996 -115.86014 L -157.25102 -26.140039 L -8.5138455 -26.140039 L 15.419061 -26.140039 L 8.0799737 -154.80195 L 15.419061 -165.68398 L 7.4593397 -165.68398 L 6.4490654 -183.39297 L -2.0863309 -198.17657 z M -83.43072 -192.21621 C -85.584619 -189.65499 -86.77489 -186.4211 -86.795372 -183.07465 C -86.842092 -175.15518 -80.459903 -168.69733 -72.540428 -168.65072 C -64.621155 -168.60402 -58.163395 -174.98588 -58.116503 -182.90515 C -58.102813 -186.26049 -59.266203 -189.5144 -61.404157 -192.10045 C -60.83125 -190.6836 -60.536835 -189.16959 -60.537027 -187.64129 C -60.575787 -181.07411 -65.930869 -175.78172 -72.498054 -175.82031 C -79.065241 -175.85911 -84.357627 -181.21415 -84.319038 -187.78134 C -84.309338 -189.30285 -84.007827 -190.80837 -83.43072 -192.21621 z M -58.656005 -120.07436 C -54.121146 -119.84761 -50.436702 -118.85557 -47.602416 -117.09831 L -67.838907 -83.767013 L -54.829881 -83.767013 L -53.979287 -97.626632 C -52.165344 -97.626632 -50.861499 -97.995076 -50.067898 -98.731991 C -49.217612 -99.468905 -48.565948 -100.71611 -48.112462 -102.47336 L -43.265729 -102.47336 L -43.350996 -83.341716 C -41.196938 -82.718173 -38.475959 -82.066508 -35.188186 -81.38628 L -35.613483 -77.304875 L -43.776293 -77.304875 L -43.776293 -62.084615 L -54.829881 -62.084615 L -54.829881 -77.304875 L -79.403059 -77.304875 L -80.08312 -80.36567 L -58.656005 -120.07436 z M -115.28511 -119.90383 L -113.2444 -115.65241 C -124.69492 -110.72075 -131.58208 -103.12528 -133.90619 -92.865166 C -130.61842 -94.452366 -127.50093 -95.245899 -124.55327 -95.245899 C -118.8847 -95.245899 -114.43479 -93.715477 -111.2037 -90.654448 C -107.91593 -87.593418 -106.27222 -83.455306 -106.27222 -78.240218 C -106.27222 -75.009132 -107.15098 -72.118221 -108.90823 -69.567363 C -110.60881 -67.016505 -113.01798 -65.032415 -116.1357 -63.615271 C -119.19673 -62.198128 -122.71124 -61.489303 -126.67924 -61.489303 C -133.42485 -61.489303 -138.61113 -63.360105 -142.23902 -67.101363 C -145.81022 -70.842622 -147.5958 -76.255999 -147.5958 -83.341716 C -147.5958 -92.241376 -144.84675 -99.808775 -139.34824 -106.04421 C -133.79303 -112.33632 -125.77197 -116.95617 -115.28511 -119.90383 z M -23.964582 -119.05375 L -19.713162 -118.969 C -13.704474 -118.85563 -10.529827 -118.79847 -10.189712 -118.79847 L 1.8844862 -118.969 L 4.3499688 -117.18306 L 3.5846408 -110.72092 L -17.502444 -110.72092 L -18.692552 -96.521273 C -15.744894 -97.258188 -13.080559 -97.626632 -10.699759 -97.626632 C -5.0878708 -97.626632 -0.5246705 -96.124274 2.9898451 -93.11993 C 6.5610464 -90.172272 8.346624 -85.836165 8.346624 -80.110905 C 8.346624 -76.539704 7.4959306 -73.336993 5.7953586 -70.502706 C 4.1514723 -67.66842 1.7708743 -65.429173 -1.3468411 -63.785287 C -4.4645566 -62.198086 -8.1489999 -61.404554 -12.40043 -61.404554 C -15.85826 -61.404554 -19.004327 -61.886286 -21.838614 -62.849943 C -24.616215 -63.813601 -26.798817 -65.14551 -28.386018 -66.846082 C -29.973218 -68.60334 -30.766751 -70.559366 -30.766751 -72.713424 C -30.766751 -74.980853 -30.14315 -76.709787 -28.896064 -77.900188 C -27.648978 -79.147274 -26.118556 -79.770358 -24.304613 -79.770358 C -23.28427 -79.770358 -22.263644 -79.572362 -21.243301 -79.175562 C -20.166272 -78.778762 -19.202807 -78.211805 -18.352521 -77.474891 C -18.862693 -76.28449 -19.117849 -75.037289 -19.117849 -73.733517 C -19.117849 -71.862888 -18.579473 -70.332466 -17.502444 -69.142066 C -16.368729 -67.951665 -14.667859 -67.356645 -12.40043 -67.356645 C -7.2987138 -67.356645 -4.7481839 -71.608045 -4.7481839 -80.110905 C -4.7481839 -84.135593 -5.5417166 -87.054567 -7.1289171 -88.86851 C -8.7161177 -90.73914 -10.841559 -91.674541 -13.505789 -91.674541 C -15.149675 -91.674541 -16.907189 -91.36274 -18.777819 -90.739197 C -20.648448 -90.115654 -22.490669 -89.236897 -24.304613 -88.103182 L -28.98133 -92.609884 L -26.770612 -116.75776 L -23.964582 -119.05375 z M -91.307242 -101.28274 C -89.323241 -101.28274 -87.849463 -100.68772 -86.885806 -99.497319 C -85.865463 -98.363604 -85.35515 -96.776539 -85.35515 -94.735852 C -85.35515 -92.695166 -85.865463 -91.107584 -86.885806 -89.973869 C -87.849463 -88.840154 -89.323241 -88.273198 -91.307242 -88.273198 C -93.291242 -88.273198 -94.793083 -88.840154 -95.813426 -89.973869 C -96.777084 -91.16427 -97.259333 -92.751852 -97.259333 -94.735852 C -97.259333 -96.833225 -96.777084 -98.448354 -95.813426 -99.582068 C -94.793083 -100.71578 -93.291242 -101.28274 -91.307242 -101.28274 z M -126.93401 -89.293807 C -129.31481 -89.293807 -131.89392 -88.330343 -134.67152 -86.403028 L -134.67152 -85.297669 C -134.67152 -79.118924 -133.99128 -74.583787 -132.63082 -71.692814 C -131.27036 -68.801842 -129.11634 -67.356645 -126.16868 -67.356645 C -123.73119 -67.356645 -121.86091 -68.291529 -120.55714 -70.162159 C -119.25336 -72.032788 -118.60118 -74.697123 -118.60118 -78.154952 C -118.60118 -81.669468 -119.33807 -84.390447 -120.8119 -86.317762 C -122.22904 -88.301762 -124.26978 -89.293807 -126.93401 -89.293807 z M -91.307242 -74.498845 C -89.323241 -74.498845 -87.849463 -73.903824 -86.885806 -72.713424 C -85.865463 -71.579709 -85.35515 -69.992127 -85.35515 -67.951441 C -85.35515 -65.910754 -85.865463 -64.323689 -86.885806 -63.189974 C -87.849463 -62.05626 -89.323241 -61.489303 -91.307242 -61.489303 C -93.291242 -61.489303 -94.793083 -62.05626 -95.813426 -63.189974 C -96.777084 -64.380375 -97.259333 -65.96744 -97.259333 -67.951441 C -97.259333 -70.048813 -96.777084 -71.664459 -95.813426 -72.798173 C -94.793083 -73.931888 -93.291242 -74.498845 -91.307242 -74.498845 z " /></g></svg>
