<?xml version="1.0" encoding="UTF-8" standalone="no"?>
<!-- Created with Inkscape (http://www.inkscape.org/) -->

<svg
   width="172.6701mm"
   height="172.6701mm"
   viewBox="0 0 172.6701 172.6701"
   version="1.1"
   id="svg1"
   xml:space="preserve"
   xmlns="http://www.w3.org/2000/svg"
   xmlns:svg="http://www.w3.org/2000/svg"><defs
     id="defs1" /><g
     id="layer1"
     transform="translate(157.25102,198.81012)"><path
       id="path5"
       style="fill:#ffffff;fill-opacity:1;stroke-width:0.805188;stroke-linecap:round;stroke-linejoin:round"
       d="M -2.0863309 -198.17657 L -10.088943 -183.11289 L -10.930235 -165.68398 L -19.198981 -165.68398 L -11.423229 -155.47426 L -12.166336 -140.07934 C -28.353216 -157.12094 -50.823548 -166.77435 -74.327399 -166.78417 C -103.64471 -166.77397 -130.92652 -151.79225 -146.66717 -127.05894 L -157.25102 -127.05894 L -149.61996 -115.86014 L -157.25102 -26.140039 L -8.5138455 -26.140039 L 15.419061 -26.140039 L 8.0799737 -154.80195 L 15.419061 -165.68398 L 7.4593397 -165.68398 L 6.4490654 -183.39297 L -2.0863309 -198.17657 z M -83.43072 -192.21621 C -85.584619 -189.65499 -86.77489 -186.4211 -86.795372 -183.07465 C -86.842092 -175.15518 -80.459903 -168.69733 -72.540428 -168.65072 C -64.621155 -168.60402 -58.163395 -174.98588 -58.116503 -182.90515 C -58.102813 -186.26049 -59.266203 -189.5144 -61.404157 -192.10045 C -60.83125 -190.6836 -60.536835 -189.16959 -60.537027 -187.64129 C -60.575787 -181.07411 -65.930869 -175.78172 -72.498054 -175.82031 C -79.065241 -175.85911 -84.357627 -181.21415 -84.319038 -187.78134 C -84.309338 -189.30285 -84.007827 -190.80837 -83.43072 -192.21621 z M -62.652143 -120.07436 C -58.117284 -119.84761 -54.432841 -118.85557 -51.598554 -117.09831 L -71.835562 -83.767013 L -58.82602 -83.767013 L -57.975943 -97.626632 C -56.161999 -97.626632 -54.858154 -97.995076 -54.064554 -98.731991 C -53.214268 -99.468905 -52.562086 -100.71611 -52.108601 -102.47336 L -47.262385 -102.47336 L -47.347134 -83.341716 C -45.193076 -82.718173 -42.472097 -82.066508 -39.184325 -81.38628 L -39.609622 -77.304875 L -47.772431 -77.304875 L -47.772431 -62.084615 L -58.82602 -62.084615 L -58.82602 -77.304875 L -83.399197 -77.304875 L -84.079776 -80.36567 L -62.652143 -120.07436 z M -14.866429 -119.56379 C -8.1208269 -119.56379 -2.9626062 -117.69351 0.60859507 -113.95225 C 4.2364821 -110.21099 6.0506402 -104.7971 6.0506402 -97.711381 C 6.0506402 -88.811721 3.2730175 -81.216258 -2.2821846 -74.924142 C -7.7807009 -68.688711 -15.773188 -64.09693 -26.260049 -61.149272 L -28.300751 -65.400692 C -22.632178 -67.838179 -18.068978 -70.956182 -14.611148 -74.754126 C -11.153318 -78.608756 -8.8574276 -83.086732 -7.7237129 -88.188448 C -10.898114 -86.601248 -13.987537 -85.807715 -16.991881 -85.807715 C -22.660455 -85.807715 -27.138947 -87.338137 -30.42672 -90.399166 C -33.657807 -93.460196 -35.273452 -97.598308 -35.273452 -102.8134 C -35.273452 -106.04448 -34.422759 -108.93539 -32.722187 -111.48625 C -30.964929 -114.03711 -28.555751 -116.0212 -25.494721 -117.43834 C -22.377006 -118.85549 -18.834431 -119.56379 -14.866429 -119.56379 z M -123.44792 -119.13901 L -120.64189 -117.86364 L -120.64189 -68.716769 C -119.56486 -68.093226 -117.8645 -67.526269 -115.54039 -67.016097 C -113.21627 -66.562611 -111.37405 -66.279392 -110.01359 -66.16602 L -110.26836 -62.084615 L -144.9603 -62.084615 L -144.79028 -66.16602 C -139.74525 -66.732877 -135.89036 -67.583054 -133.22613 -68.716769 L -133.22613 -109.44555 L -144.62027 -109.44555 L -144.62027 -114.37703 C -140.99238 -114.66046 -137.25078 -115.19935 -133.39615 -115.99295 C -129.54152 -116.84324 -126.22552 -117.89193 -123.44792 -119.13901 z M -15.376476 -113.69697 C -17.813962 -113.69697 -19.684764 -112.76157 -20.988536 -110.89094 C -22.292308 -109.02031 -22.943972 -106.35597 -22.943972 -102.89814 C -22.943972 -99.383629 -22.235664 -96.634587 -20.818521 -94.650586 C -19.344692 -92.723271 -17.275377 -91.759807 -14.611148 -91.759807 C -12.287033 -91.759807 -9.7079223 -92.723271 -6.8736356 -94.650586 L -6.8736356 -95.755945 C -6.8736356 -101.93469 -7.5538802 -106.46931 -8.9143379 -109.36028 C -10.274796 -112.25126 -12.428818 -113.69697 -15.376476 -113.69697 z M -95.30338 -101.28274 C -93.319379 -101.28274 -91.845602 -100.68772 -90.881944 -99.497319 C -89.861601 -98.363604 -89.351289 -96.776539 -89.351289 -94.735852 C -89.351289 -92.695166 -89.861601 -91.107584 -90.881944 -89.973869 C -91.845602 -88.840154 -93.319379 -88.273198 -95.30338 -88.273198 C -97.287381 -88.273198 -98.789738 -88.840154 -99.810082 -89.973869 C -100.77374 -91.16427 -101.25547 -92.751852 -101.25547 -94.735852 C -101.25547 -96.833225 -100.77374 -98.448354 -99.810082 -99.582068 C -98.789738 -100.71578 -97.287381 -101.28274 -95.30338 -101.28274 z M -95.30338 -74.498845 C -93.319379 -74.498845 -91.845602 -73.903824 -90.881944 -72.713424 C -89.861601 -71.579709 -89.351289 -69.992127 -89.351289 -67.951441 C -89.351289 -65.910754 -89.861601 -64.323689 -90.881944 -63.189974 C -91.845602 -62.05626 -93.319379 -61.489303 -95.30338 -61.489303 C -97.287381 -61.489303 -98.789738 -62.05626 -99.810082 -63.189974 C -100.77374 -64.380375 -101.25547 -65.96744 -101.25547 -67.951441 C -101.25547 -70.048813 -100.77374 -71.664459 -99.810082 -72.798173 C -98.789738 -73.931888 -97.287381 -74.498845 -95.30338 -74.498845 z " /></g></svg>
