<?xml version="1.0" encoding="UTF-8" standalone="no"?>
<!-- Created with Inkscape (http://www.inkscape.org/) -->

<svg
   width="172.6701mm"
   height="172.6701mm"
   viewBox="0 0 172.6701 172.6701"
   version="1.1"
   id="svg1"
   xml:space="preserve"
   xmlns="http://www.w3.org/2000/svg"
   xmlns:svg="http://www.w3.org/2000/svg"><defs
     id="defs1" /><g
     id="layer1"
     transform="translate(157.25102,198.81012)"><path
       id="path5"
       style="fill:#ffffff;fill-opacity:1;stroke-width:0.805188;stroke-linecap:round;stroke-linejoin:round"
       d="M -2.0863309 -198.17657 L -10.088943 -183.11289 L -10.930235 -165.68398 L -19.198981 -165.68398 L -11.423229 -155.47426 L -12.166336 -140.07934 C -28.353216 -157.12094 -50.823548 -166.77435 -74.327399 -166.78417 C -103.64471 -166.77397 -130.92652 -151.79225 -146.66717 -127.05894 L -157.25102 -127.05894 L -149.61996 -115.86014 L -157.25102 -26.140039 L -8.5138455 -26.140039 L 15.419061 -26.140039 L 8.0799737 -154.80195 L 15.419061 -165.68398 L 7.4593397 -165.68398 L 6.4490654 -183.39297 L -2.0863309 -198.17657 z M -83.43072 -192.21621 C -85.584619 -189.65499 -86.77489 -186.4211 -86.795372 -183.07465 C -86.842092 -175.15518 -80.459903 -168.69733 -72.540428 -168.65072 C -64.621155 -168.60402 -58.163395 -174.98588 -58.116503 -182.90515 C -58.102813 -186.26049 -59.266203 -189.5144 -61.404157 -192.10045 C -60.83125 -190.6836 -60.536835 -189.16959 -60.537027 -187.64129 C -60.575787 -181.07411 -65.930869 -175.78172 -72.498054 -175.82031 C -79.065241 -175.85911 -84.357627 -181.21415 -84.319038 -187.78134 C -84.309338 -189.30285 -84.007827 -190.80837 -83.43072 -192.21621 z M -105.40044 -148.27264 L -97.289822 -148.27264 C -93.096598 -148.16229 -83.938007 -148.10727 -69.813463 -148.10727 C -55.137179 -148.10727 -45.591922 -148.16229 -41.178002 -148.27264 L -33.23275 -148.27264 L -29.922358 -141.15524 C -32.01897 -137.8448 -35.991533 -130.67198 -41.839977 -119.63717 C -47.688421 -108.60237 -53.206099 -96.905787 -58.392455 -84.54681 C -63.578811 -72.187834 -66.171825 -62.532027 -66.171825 -55.580103 C -66.171825 -50.062703 -64.24056 -45.92509 -60.37838 -43.16639 C -64.130212 -38.642122 -68.930607 -36.379724 -74.779051 -36.379724 C -80.186104 -36.379724 -84.379249 -37.869306 -87.358645 -40.848702 C -90.338041 -43.828098 -91.827623 -47.966228 -91.827623 -53.262932 C -91.827623 -59.883812 -90.227491 -66.891071 -87.027399 -74.284388 C -83.827307 -81.788052 -78.089563 -91.940041 -69.813463 -104.74041 L -50.281839 -134.86519 L -88.02062 -134.86519 C -89.565492 -129.89953 -90.503358 -124.05123 -90.834402 -117.32 C -92.820666 -116.98896 -94.862481 -116.82339 -96.959093 -116.82339 C -99.166053 -116.82339 -101.3179 -116.98896 -103.41451 -117.32 L -108.04886 -145.78958 L -105.40044 -148.27264 z " /></g></svg>
