<?xml version="1.0" encoding="UTF-8" standalone="no"?>
<!-- Created with Inkscape (http://www.inkscape.org/) -->

<svg
   width="172.6701mm"
   height="172.6701mm"
   viewBox="0 0 172.6701 172.6701"
   version="1.1"
   id="svg1"
   xml:space="preserve"
   xmlns="http://www.w3.org/2000/svg"
   xmlns:svg="http://www.w3.org/2000/svg"><defs
     id="defs1" /><g
     id="layer1"
     transform="translate(157.25102,198.81012)"><path
       id="path5"
       style="fill:#ffffff;fill-opacity:1;stroke-width:0.805188;stroke-linecap:round;stroke-linejoin:round"
       d="M -2.0863309 -198.17657 L -10.088943 -183.11289 L -10.930235 -165.68398 L -19.198981 -165.68398 L -11.423229 -155.47426 L -12.166336 -140.07934 C -28.353216 -157.12094 -50.823548 -166.77435 -74.327399 -166.78417 C -103.64471 -166.77397 -130.92652 -151.79225 -146.66717 -127.05894 L -157.25102 -127.05894 L -149.61996 -115.86014 L -157.25102 -26.140039 L -8.5138455 -26.140039 L 15.419061 -26.140039 L 8.0799737 -154.80195 L 15.419061 -165.68398 L 7.4593397 -165.68398 L 6.4490654 -183.39297 L -2.0863309 -198.17657 z M -83.43072 -192.21621 C -85.584619 -189.65499 -86.77489 -186.4211 -86.795372 -183.07465 C -86.842092 -175.15518 -80.459903 -168.69733 -72.540428 -168.65072 C -64.621155 -168.60402 -58.163395 -174.98588 -58.116503 -182.90515 C -58.102813 -186.26049 -59.266203 -189.5144 -61.404157 -192.10045 C -60.83125 -190.6836 -60.536835 -189.16959 -60.537027 -187.64129 C -60.575787 -181.07411 -65.930869 -175.78172 -72.498054 -175.82031 C -79.065241 -175.85911 -84.357627 -181.21415 -84.319038 -187.78134 C -84.309338 -189.30285 -84.007827 -190.80837 -83.43072 -192.21621 z M -59.463707 -120.07436 C -54.928848 -119.84761 -51.244405 -118.85557 -48.410118 -117.09831 L -68.647126 -83.767013 L -55.637584 -83.767013 L -54.78699 -97.626632 C -52.973047 -97.626632 -51.669718 -97.995076 -50.876118 -98.731991 C -50.025832 -99.468905 -49.373651 -100.71611 -48.920165 -102.47336 L -44.073432 -102.47336 L -44.158698 -83.341716 C -42.00464 -82.718173 -39.283662 -82.066508 -35.995889 -81.38628 L -36.421186 -77.304875 L -44.583995 -77.304875 L -44.583995 -62.084615 L -55.637584 -62.084615 L -55.637584 -77.304875 L -80.210761 -77.304875 L -80.890823 -80.36567 L -59.463707 -120.07436 z M -126.97638 -119.73381 C -121.13775 -119.73381 -116.48984 -118.28861 -113.03201 -115.39764 C -109.57418 -112.56335 -107.84525 -108.56711 -107.84525 -103.40871 C -107.84525 -98.873849 -109.57418 -94.026912 -113.03201 -88.86851 C -116.48984 -83.766794 -122.18644 -77.616529 -130.12244 -70.41744 L -107.24994 -70.41744 L -107.24994 -62.084615 L -145.768 -62.084615 L -145.768 -67.016097 C -139.47588 -73.081471 -134.5723 -78.268272 -131.05779 -82.576388 C -127.54327 -86.884504 -125.0208 -90.852684 -123.49029 -94.480571 C -121.90309 -98.108458 -121.10956 -101.84955 -121.10956 -105.70418 C -121.10956 -111.82623 -123.15029 -114.88759 -127.23166 -114.88759 C -129.04561 -114.88759 -130.51938 -114.0369 -131.6531 -112.33633 C -132.78681 -110.69244 -133.35377 -108.65171 -133.35377 -106.21422 C -133.35377 -104.51365 -132.75823 -102.89852 -131.56783 -101.36801 C -132.53149 -100.46103 -133.63734 -99.752209 -134.88443 -99.242037 C -136.07483 -98.731866 -137.26487 -98.476709 -138.45527 -98.476709 C -140.49595 -98.476709 -142.19682 -99.10031 -143.55728 -100.3474 C -144.91774 -101.65117 -145.59798 -103.52197 -145.59798 -105.95946 C -145.59798 -108.567 -144.83252 -110.91953 -143.302 -113.01691 C -141.77149 -115.11428 -139.61746 -116.75799 -136.83986 -117.94839 C -134.00558 -119.13879 -130.71764 -119.73381 -126.97638 -119.73381 z M -13.378148 -119.73381 C -9.6935753 -119.73381 -6.4342203 -119.11073 -3.5999336 -117.86364 C -0.76564682 -116.67324 1.4450192 -114.97237 3.0322197 -112.76163 C 4.6194203 -110.60757 5.412953 -108.11368 5.412953 -105.27939 C 5.412953 -102.10499 4.477552 -99.384015 2.6069227 -97.116586 C 0.73629345 -94.849156 -2.0413292 -93.120223 -5.725902 -91.929822 C -1.0776717 -90.909479 2.1816833 -89.237189 4.0523125 -86.913074 C 5.9229418 -84.588959 6.8583428 -81.442892 6.8583428 -77.474891 C 6.8583428 -74.017061 5.8096538 -71.069506 3.7122816 -68.632019 C 1.6715951 -66.194533 -0.99273955 -64.380375 -4.2805122 -63.189974 C -7.5682848 -61.999574 -10.968991 -61.404554 -14.483507 -61.404554 C -19.585223 -61.404554 -23.921847 -62.453243 -27.493049 -64.550615 C -31.007564 -66.647987 -32.765078 -69.510317 -32.765078 -73.138204 C -32.765078 -75.235577 -32.141478 -76.851222 -30.894392 -77.984937 C -29.647305 -79.175337 -28.088304 -79.770358 -26.217674 -79.770358 C -24.290359 -79.770358 -22.33485 -79.005405 -20.350849 -77.474891 C -20.861021 -76.397862 -21.116177 -75.094016 -21.116177 -73.563501 C -21.116177 -71.749558 -20.577284 -70.275781 -19.500255 -69.142066 C -18.36654 -68.008351 -16.694251 -67.441394 -14.483507 -67.441394 C -9.6085338 -67.441394 -7.1712918 -70.814037 -7.1712918 -77.55964 C -7.1712918 -81.244213 -8.3618492 -84.10706 -10.74265 -86.147746 C -13.066765 -88.188433 -16.382764 -89.208541 -20.69088 -89.208541 L -20.69088 -94.480571 C -12.358077 -95.1608 -8.1913846 -98.760535 -8.1913846 -105.27939 C -8.1913846 -108.56717 -8.7016973 -110.97583 -9.7220405 -112.50634 C -10.742384 -114.09354 -12.131453 -114.88759 -13.888711 -114.88759 C -15.986083 -114.88759 -17.573149 -114.15071 -18.650178 -112.67688 C -19.670521 -111.20305 -20.180834 -109.41747 -20.180834 -107.3201 C -20.180834 -105.44947 -19.783809 -103.77718 -18.990209 -102.30335 C -20.577409 -100.60278 -22.618143 -99.752084 -25.112316 -99.752084 C -27.379745 -99.752084 -29.136742 -100.43233 -30.383828 -101.79279 C -31.630915 -103.15324 -32.254515 -104.91076 -32.254515 -107.06482 C -32.254515 -109.8991 -31.291051 -112.25164 -29.363736 -114.12227 C -27.379735 -116.04958 -24.941976 -117.46671 -22.051004 -118.37369 C -19.103346 -119.28066 -16.212435 -119.73381 -13.378148 -119.73381 z M -92.114944 -101.28274 C -90.130943 -101.28274 -88.657166 -100.68772 -87.693509 -99.497319 C -86.673165 -98.363604 -86.162853 -96.776539 -86.162853 -94.735852 C -86.162853 -92.695166 -86.673165 -91.107584 -87.693509 -89.973869 C -88.657166 -88.840154 -90.130943 -88.273198 -92.114944 -88.273198 C -94.098945 -88.273198 -95.600786 -88.840154 -96.621129 -89.973869 C -97.584787 -91.16427 -98.067036 -92.751852 -98.067036 -94.735852 C -98.067036 -96.833225 -97.584787 -98.448354 -96.621129 -99.582068 C -95.600786 -100.71578 -94.098945 -101.28274 -92.114944 -101.28274 z M -92.114944 -74.498845 C -90.130943 -74.498845 -88.657166 -73.903824 -87.693509 -72.713424 C -86.673165 -71.579709 -86.162853 -69.992127 -86.162853 -67.951441 C -86.162853 -65.910754 -86.673165 -64.323689 -87.693509 -63.189974 C -88.657166 -62.05626 -90.130943 -61.489303 -92.114944 -61.489303 C -94.098945 -61.489303 -95.600786 -62.05626 -96.621129 -63.189974 C -97.584787 -64.380375 -98.067036 -65.96744 -98.067036 -67.951441 C -98.067036 -70.048813 -97.584787 -71.664459 -96.621129 -72.798173 C -95.600786 -73.931888 -94.098945 -74.498845 -92.114944 -74.498845 z " /></g></svg>
