<?xml version="1.0" encoding="UTF-8" standalone="no"?>
<!-- Created with Inkscape (http://www.inkscape.org/) -->

<svg
   width="172.6701mm"
   height="172.6701mm"
   viewBox="0 0 172.6701 172.6701"
   version="1.1"
   id="svg1"
   xml:space="preserve"
   xmlns="http://www.w3.org/2000/svg"
   xmlns:svg="http://www.w3.org/2000/svg"><defs
     id="defs1" /><g
     id="layer1"
     transform="translate(157.25102,198.81012)"><path
       id="path5"
       style="fill:#ffffff;fill-opacity:1;stroke-width:0.805188;stroke-linecap:round;stroke-linejoin:round"
       d="M -2.0863309 -198.17657 L -10.088943 -183.11289 L -10.930235 -165.68398 L -19.198981 -165.68398 L -11.423229 -155.47426 L -12.166336 -140.07934 C -28.353216 -157.12094 -50.823548 -166.77435 -74.327399 -166.78417 C -103.64471 -166.77397 -130.92652 -151.79225 -146.66717 -127.05894 L -157.25102 -127.05894 L -149.61996 -115.86014 L -157.25102 -26.140039 L -8.5138455 -26.140039 L 15.419061 -26.140039 L 8.0799737 -154.80195 L 15.419061 -165.68398 L 7.4593397 -165.68398 L 6.4490654 -183.39297 L -2.0863309 -198.17657 z M -83.43072 -192.21621 C -85.584619 -189.65499 -86.77489 -186.4211 -86.795372 -183.07465 C -86.842092 -175.15518 -80.459903 -168.69733 -72.540428 -168.65072 C -64.621155 -168.60402 -58.163395 -174.98588 -58.116503 -182.90515 C -58.102813 -186.26049 -59.266203 -189.5144 -61.404157 -192.10045 C -60.83125 -190.6836 -60.536835 -189.16959 -60.537027 -187.64129 C -60.575787 -181.07411 -65.930869 -175.78172 -72.498054 -175.82031 C -79.065241 -175.85911 -84.357627 -181.21415 -84.319038 -187.78134 C -84.309338 -189.30285 -84.007827 -190.80837 -83.43072 -192.21621 z M -17.970116 -119.73381 C -14.285543 -119.73381 -11.025671 -119.11073 -8.1913846 -117.86364 C -5.3570978 -116.67324 -3.1464318 -114.97237 -1.5592313 -112.76163 C 0.027969319 -110.60757 0.82150197 -108.11368 0.82150197 -105.27939 C 0.82150197 -102.10499 -0.11389904 -99.384015 -1.9845283 -97.116586 C -3.8551576 -94.849156 -6.6327802 -93.120223 -10.317353 -91.929822 C -5.6691227 -90.909479 -2.4097677 -89.237189 -0.53913849 -86.913074 C 1.3314908 -84.588959 2.2668918 -81.442892 2.2668918 -77.474891 C 2.2668918 -74.017061 1.2182028 -71.069506 -0.87916941 -68.632019 C -2.9198559 -66.194533 -5.5841906 -64.380375 -8.8719632 -63.189974 C -12.159736 -61.999574 -15.560959 -61.404554 -19.075475 -61.404554 C -24.177191 -61.404554 -28.513299 -62.453243 -32.0845 -64.550615 C -35.599015 -66.647987 -37.356529 -69.510317 -37.356529 -73.138204 C -37.356529 -75.235577 -36.732929 -76.851222 -35.485843 -77.984937 C -34.238756 -79.175337 -32.679755 -79.770358 -30.809125 -79.770358 C -28.88181 -79.770358 -26.926301 -79.005405 -24.9423 -77.474891 C -25.452472 -76.397862 -25.707628 -75.094016 -25.707628 -73.563501 C -25.707628 -71.749558 -25.168735 -70.275781 -24.091706 -69.142066 C -22.957991 -68.008351 -21.286218 -67.441394 -19.075475 -67.441394 C -14.200502 -67.441394 -11.762743 -70.814037 -11.762743 -77.55964 C -11.762743 -81.244213 -12.9533 -84.10706 -15.334101 -86.147746 C -17.658216 -88.188433 -20.974215 -89.208541 -25.282331 -89.208541 L -25.282331 -94.480571 C -16.949528 -95.1608 -12.783352 -98.760535 -12.783352 -105.27939 C -12.783352 -108.56717 -13.293148 -110.97583 -14.313492 -112.50634 C -15.333835 -114.09354 -16.722904 -114.88759 -18.480162 -114.88759 C -20.577534 -114.88759 -22.1646 -114.15071 -23.241629 -112.67688 C -24.261972 -111.20305 -24.772285 -109.41747 -24.772285 -107.3201 C -24.772285 -105.44947 -24.37526 -103.77718 -23.58166 -102.30335 C -25.16886 -100.60278 -27.209594 -99.752084 -29.703767 -99.752084 C -31.971196 -99.752084 -33.72871 -100.43233 -34.975796 -101.79279 C -36.222882 -103.15324 -36.845966 -104.91076 -36.845966 -107.06482 C -36.845966 -109.8991 -35.882502 -112.25164 -33.955187 -114.12227 C -31.971186 -116.04958 -29.533944 -117.46671 -26.642971 -118.37369 C -23.695313 -119.28066 -20.804403 -119.73381 -17.970116 -119.73381 z M -54.022179 -119.13901 L -51.216149 -117.86364 L -51.216149 -68.716769 C -50.13912 -68.093226 -48.43825 -67.526269 -46.114134 -67.016097 C -43.790019 -66.562611 -41.947798 -66.279392 -40.58734 -66.16602 L -40.842622 -62.084615 L -75.534044 -62.084615 L -75.364029 -66.16602 C -70.318998 -66.732877 -66.464623 -67.583054 -63.800393 -68.716769 L -63.800393 -109.44555 L -75.194013 -109.44555 L -75.194013 -114.37703 C -71.566126 -114.66046 -67.825039 -115.19935 -63.970409 -115.99295 C -60.115779 -116.84324 -56.79978 -117.89193 -54.022179 -119.13901 z M -140.92127 -118.88373 L -136.7546 -118.88373 C -134.60054 -118.82705 -129.89599 -118.79847 -122.64021 -118.79847 C -115.10101 -118.79847 -110.19743 -118.82705 -107.93 -118.88373 L -103.84859 -118.88373 L -102.14844 -115.22762 C -103.22547 -113.52705 -105.26569 -109.84261 -108.27003 -104.17404 C -111.27437 -98.505463 -114.10864 -92.496548 -116.77287 -86.147746 C -119.4371 -79.798944 -120.76953 -74.838719 -120.76953 -71.267517 C -120.76953 -68.433231 -119.77748 -66.307789 -117.79348 -64.890646 C -119.7208 -62.566531 -122.18662 -61.404554 -125.19096 -61.404554 C -127.96856 -61.404554 -130.12258 -62.169506 -131.6531 -63.700021 C -133.18361 -65.230536 -133.94908 -67.356494 -133.94908 -70.077409 C -133.94908 -73.478553 -133.12697 -77.077772 -131.48308 -80.875717 C -129.8392 -84.730347 -126.89164 -89.945728 -122.64021 -96.521273 L -112.60672 -111.9963 L -131.99313 -111.9963 C -132.78673 -109.44544 -133.26846 -106.44124 -133.43852 -102.98341 C -134.45886 -102.81335 -135.50755 -102.72813 -136.58458 -102.72813 C -137.7183 -102.72813 -138.82363 -102.81335 -139.90066 -102.98341 L -142.28191 -117.60836 L -140.92127 -118.88373 z M -88.628852 -101.28274 C -86.644851 -101.28274 -85.171074 -100.68772 -84.207416 -99.497319 C -83.187073 -98.363604 -82.676761 -96.776539 -82.676761 -94.735852 C -82.676761 -92.695166 -83.187073 -91.107584 -84.207416 -89.973869 C -85.171074 -88.840154 -86.644851 -88.273198 -88.628852 -88.273198 C -90.612853 -88.273198 -92.114694 -88.840154 -93.135037 -89.973869 C -94.098694 -91.16427 -94.580944 -92.751852 -94.580944 -94.735852 C -94.580944 -96.833225 -94.098694 -98.448354 -93.135037 -99.582068 C -92.114694 -100.71578 -90.612853 -101.28274 -88.628852 -101.28274 z M -88.628852 -74.498845 C -86.644851 -74.498845 -85.171074 -73.903824 -84.207416 -72.713424 C -83.187073 -71.579709 -82.676761 -69.992127 -82.676761 -67.951441 C -82.676761 -65.910754 -83.187073 -64.323689 -84.207416 -63.189974 C -85.171074 -62.05626 -86.644851 -61.489303 -88.628852 -61.489303 C -90.612853 -61.489303 -92.114694 -62.05626 -93.135037 -63.189974 C -94.098694 -64.380375 -94.580944 -65.96744 -94.580944 -67.951441 C -94.580944 -70.048813 -94.098694 -71.664459 -93.135037 -72.798173 C -92.114694 -73.931888 -90.612853 -74.498845 -88.628852 -74.498845 z " /></g></svg>
