<?xml version="1.0" encoding="UTF-8" standalone="no"?>
<!-- Created with Inkscape (http://www.inkscape.org/) -->

<svg
   width="172.6701mm"
   height="172.6701mm"
   viewBox="0 0 172.6701 172.6701"
   version="1.1"
   id="svg1"
   xml:space="preserve"
   xmlns="http://www.w3.org/2000/svg"
   xmlns:svg="http://www.w3.org/2000/svg"><defs
     id="defs1" /><g
     id="layer1"
     transform="translate(157.25102,198.81012)"><path
       id="path5"
       style="fill:#ffffff;fill-opacity:1;stroke-width:0.805188;stroke-linecap:round;stroke-linejoin:round"
       d="M -2.0863309 -198.17657 L -10.088943 -183.11289 L -10.930235 -165.68398 L -19.198981 -165.68398 L -11.423229 -155.47426 L -12.166336 -140.07934 C -28.353216 -157.12094 -50.823548 -166.77435 -74.327399 -166.78417 C -103.64471 -166.77397 -130.92652 -151.79225 -146.66717 -127.05894 L -157.25102 -127.05894 L -149.61996 -115.86014 L -157.25102 -26.140039 L -8.5138455 -26.140039 L 15.419061 -26.140039 L 8.0799737 -154.80195 L 15.419061 -165.68398 L 7.4593397 -165.68398 L 6.4490654 -183.39297 L -2.0863309 -198.17657 z M -83.43072 -192.21621 C -85.584619 -189.65499 -86.77489 -186.4211 -86.795372 -183.07465 C -86.842092 -175.15518 -80.459903 -168.69733 -72.540428 -168.65072 C -64.621155 -168.60402 -58.163395 -174.98588 -58.116503 -182.90515 C -58.102813 -186.26049 -59.266203 -189.5144 -61.404157 -192.10045 C -60.83125 -190.6836 -60.536835 -189.16959 -60.537027 -187.64129 C -60.575787 -181.07411 -65.930869 -175.78172 -72.498054 -175.82031 C -79.065241 -175.85911 -84.357627 -181.21415 -84.319038 -187.78134 C -84.309338 -189.30285 -84.007827 -190.80837 -83.43072 -192.21621 z M -127.23166 -119.73381 C -121.39303 -119.73381 -116.74513 -118.28861 -113.2873 -115.39764 C -109.82947 -112.56335 -108.10053 -108.56711 -108.10053 -103.40871 C -108.10053 -98.873849 -109.82947 -94.026912 -113.2873 -88.86851 C -116.74513 -83.766794 -122.44172 -77.616529 -130.37772 -70.41744 L -107.50522 -70.41744 L -107.50522 -62.084615 L -146.02328 -62.084615 L -146.02328 -67.016097 C -139.73116 -73.081471 -134.82758 -78.268272 -131.31307 -82.576388 C -127.79855 -86.884504 -125.27609 -90.852684 -123.74557 -94.480571 C -122.15837 -98.108458 -121.36484 -101.84955 -121.36484 -105.70418 C -121.36484 -111.82623 -123.40557 -114.88759 -127.48695 -114.88759 C -129.30089 -114.88759 -130.77467 -114.0369 -131.90838 -112.33633 C -133.0421 -110.69244 -133.60905 -108.65171 -133.60905 -106.21422 C -133.60905 -104.51365 -133.01352 -102.89852 -131.82311 -101.36801 C -132.78677 -100.46103 -133.89211 -99.752209 -135.13919 -99.242037 C -136.32959 -98.731866 -137.52015 -98.476709 -138.71055 -98.476709 C -140.75124 -98.476709 -142.45211 -99.10031 -143.81256 -100.3474 C -145.17302 -101.65117 -145.85275 -103.52197 -145.85275 -105.95946 C -145.85275 -108.567 -145.0878 -110.91953 -143.55728 -113.01691 C -142.02677 -115.11428 -139.87275 -116.75799 -137.09514 -117.94839 C -134.26086 -119.13879 -130.97292 -119.73381 -127.23166 -119.73381 z M -58.528364 -119.64906 C -51.896133 -119.64906 -46.823136 -117.15466 -43.308621 -112.16631 C -39.73742 -107.23465 -37.951842 -100.06428 -37.951842 -90.654448 C -37.951842 -81.244616 -39.73742 -74.017081 -43.308621 -68.97205 C -46.823136 -63.983706 -51.896133 -61.489303 -58.528364 -61.489303 C -65.160595 -61.489303 -70.262688 -63.983706 -73.833889 -68.97205 C -77.405091 -74.017081 -79.190668 -81.244616 -79.190668 -90.654448 C -79.190668 -100.00759 -77.405091 -107.17797 -73.833889 -112.16631 C -70.262688 -117.15466 -65.160595 -119.64906 -58.528364 -119.64906 z M -13.63343 -119.56379 C -6.8878272 -119.56379 -1.7296066 -117.69351 1.8415947 -113.95225 C 5.4694818 -110.21099 7.2836398 -104.7971 7.2836398 -97.711381 C 7.2836398 -88.811721 4.5060172 -81.216258 -1.0491849 -74.924142 C -6.5477012 -68.688711 -14.540188 -64.09693 -25.027049 -61.149272 L -27.067752 -65.400692 C -21.399178 -67.838179 -16.835978 -70.956182 -13.378148 -74.754126 C -9.9203183 -78.608756 -7.6249447 -83.086732 -6.49123 -88.188448 C -9.6656311 -86.601248 -12.754537 -85.807715 -15.758881 -85.807715 C -21.427455 -85.807715 -25.905948 -87.338137 -29.19372 -90.399166 C -32.424807 -93.460196 -34.040453 -97.598308 -34.040453 -102.8134 C -34.040453 -106.04448 -33.189759 -108.93539 -31.489187 -111.48625 C -29.73193 -114.03711 -27.322751 -116.0212 -24.261721 -117.43834 C -21.144006 -118.85549 -17.601431 -119.56379 -13.63343 -119.56379 z M -58.528364 -115.31237 C -61.419336 -115.31237 -63.516714 -113.41351 -64.820486 -109.61556 C -66.067572 -105.81762 -66.691173 -99.497422 -66.691173 -90.654448 C -66.691173 -81.868159 -66.067572 -75.576025 -64.820486 -71.778081 C -63.516714 -68.036822 -61.419336 -66.16602 -58.528364 -66.16602 C -55.637391 -66.16602 -53.568594 -68.036822 -52.321507 -71.778081 C -51.017736 -75.576025 -50.366071 -81.868159 -50.366071 -90.654448 C -50.366071 -99.440737 -51.017736 -105.73287 -52.321507 -109.53081 C -53.568594 -113.38544 -55.637391 -115.31237 -58.528364 -115.31237 z M -14.143476 -113.69697 C -16.580963 -113.69697 -18.451765 -112.76157 -19.755537 -110.89094 C -21.059309 -109.02031 -21.710973 -106.35597 -21.710973 -102.89814 C -21.710973 -99.383629 -21.002665 -96.634587 -19.585521 -94.650586 C -18.111692 -92.723271 -16.042378 -91.759807 -13.378148 -91.759807 C -11.054033 -91.759807 -8.4749226 -92.723271 -5.6406359 -94.650586 L -5.6406359 -95.755945 C -5.6406359 -101.93469 -6.3208806 -106.46931 -7.6813382 -109.36028 C -9.0417958 -112.25126 -11.195818 -113.69697 -14.143476 -113.69697 z M -92.370226 -101.28274 C -90.386225 -101.28274 -88.911931 -100.68772 -87.948273 -99.497319 C -86.92793 -98.363604 -86.418134 -96.776539 -86.418134 -94.735852 C -86.418134 -92.695166 -86.92793 -91.107584 -87.948273 -89.973869 C -88.911931 -88.840154 -90.386225 -88.273198 -92.370226 -88.273198 C -94.354226 -88.273198 -95.856067 -88.840154 -96.876411 -89.973869 C -97.840068 -91.16427 -98.3218 -92.751852 -98.3218 -94.735852 C -98.3218 -96.833225 -97.840068 -98.448354 -96.876411 -99.582068 C -95.856067 -100.71578 -94.354226 -101.28274 -92.370226 -101.28274 z M -92.370226 -74.498845 C -90.386225 -74.498845 -88.911931 -73.903824 -87.948273 -72.713424 C -86.92793 -71.579709 -86.418134 -69.992127 -86.418134 -67.951441 C -86.418134 -65.910754 -86.92793 -64.323689 -87.948273 -63.189974 C -88.911931 -62.05626 -90.386225 -61.489303 -92.370226 -61.489303 C -94.354226 -61.489303 -95.856067 -62.05626 -96.876411 -63.189974 C -97.840068 -64.380375 -98.3218 -65.96744 -98.3218 -67.951441 C -98.3218 -70.048813 -97.840068 -71.664459 -96.876411 -72.798173 C -95.856067 -73.931888 -94.354226 -74.498845 -92.370226 -74.498845 z " /></g></svg>
