<?xml version="1.0" encoding="UTF-8" standalone="no"?>
<!-- Created with Inkscape (http://www.inkscape.org/) -->

<svg
   width="172.6701mm"
   height="172.6701mm"
   viewBox="0 0 172.6701 172.6701"
   version="1.1"
   id="svg1"
   xml:space="preserve"
   xmlns="http://www.w3.org/2000/svg"
   xmlns:svg="http://www.w3.org/2000/svg"><defs
     id="defs1" /><g
     id="layer1"
     transform="translate(157.25102,198.81012)"><path
       id="path5"
       style="fill:#ffffff;fill-opacity:1;stroke-width:0.805188;stroke-linecap:round;stroke-linejoin:round"
       d="M -2.0863309 -198.17657 L -10.088943 -183.11289 L -10.930235 -165.68398 L -19.198981 -165.68398 L -11.423229 -155.47426 L -12.166336 -140.07934 C -28.353216 -157.12094 -50.823548 -166.77435 -74.327399 -166.78417 C -103.64471 -166.77397 -130.92652 -151.79225 -146.66717 -127.05894 L -157.25102 -127.05894 L -149.61996 -115.86014 L -157.25102 -26.140039 L -8.5138455 -26.140039 L 15.419061 -26.140039 L 8.0799737 -154.80195 L 15.419061 -165.68398 L 7.4593397 -165.68398 L 6.4490654 -183.39297 L -2.0863309 -198.17657 z M -83.43072 -192.21621 C -85.584619 -189.65499 -86.77489 -186.4211 -86.795372 -183.07465 C -86.842092 -175.15518 -80.459903 -168.69733 -72.540428 -168.65072 C -64.621155 -168.60402 -58.163395 -174.98588 -58.116503 -182.90515 C -58.102813 -186.26049 -59.266203 -189.5144 -61.404157 -192.10045 C -60.83125 -190.6836 -60.536835 -189.16959 -60.537027 -187.64129 C -60.575787 -181.07411 -65.930869 -175.78172 -72.498054 -175.82031 C -79.065241 -175.85911 -84.357627 -181.21415 -84.319038 -187.78134 C -84.309338 -189.30285 -84.007827 -190.80837 -83.43072 -192.21621 z M -117.70821 -119.13901 L -114.9027 -117.86364 L -114.9027 -68.716769 C -113.82567 -68.093226 -112.1248 -67.526269 -109.80069 -67.016097 C -107.47657 -66.562611 -105.63435 -66.279392 -104.27389 -66.16602 L -104.52917 -62.084615 L -139.2206 -62.084615 L -139.05058 -66.16602 C -134.00555 -66.732877 -130.15117 -67.583054 -127.48695 -68.716769 L -127.48695 -109.44555 L -138.88057 -109.44555 L -138.88057 -114.37703 C -135.25268 -114.66046 -131.51159 -115.19935 -127.65696 -115.99295 C -123.80233 -116.84324 -120.48582 -117.89193 -117.70821 -119.13901 z M -54.957522 -119.13901 L -52.151492 -117.86364 L -52.151492 -68.716769 C -51.074463 -68.093226 -49.373593 -67.526269 -47.049478 -67.016097 C -44.725363 -66.562611 -42.883141 -66.279392 -41.522683 -66.16602 L -41.777965 -62.084615 L -76.469388 -62.084615 L -76.299372 -66.16602 C -71.254342 -66.732877 -67.399966 -67.583054 -64.735737 -68.716769 L -64.735737 -109.44555 L -76.129357 -109.44555 L -76.129357 -114.37703 C -72.50147 -114.66046 -68.760382 -115.19935 -64.905752 -115.99295 C -61.051122 -116.84324 -57.735123 -117.89193 -54.957522 -119.13901 z M -37.101248 -118.88373 L -32.935094 -118.88373 C -30.781036 -118.82705 -26.075967 -118.79847 -18.820193 -118.79847 C -11.28099 -118.79847 -6.3774094 -118.82705 -4.10998 -118.88373 L -0.028575339 -118.88373 L 1.6715793 -115.22762 C 0.59455032 -113.52705 -1.4461837 -109.84261 -4.4505276 -104.17404 C -7.4548716 -98.505463 -10.289138 -92.496548 -12.953368 -86.147746 C -15.617597 -79.798944 -16.949506 -74.838719 -16.949506 -71.267517 C -16.949506 -68.433231 -15.957461 -66.307789 -13.973461 -64.890646 C -15.900776 -62.566531 -18.366598 -61.404554 -21.370942 -61.404554 C -24.148543 -61.404554 -26.302565 -62.169506 -27.83308 -63.700021 C -29.363595 -65.230536 -30.129064 -67.356494 -30.129064 -70.077409 C -30.129064 -73.478553 -29.306951 -77.077772 -27.663064 -80.875717 C -26.019178 -84.730347 -23.071623 -89.945728 -18.820193 -96.521273 L -8.7866971 -111.9963 L -28.173111 -111.9963 C -28.966711 -109.44544 -29.448443 -106.44124 -29.6185 -102.98341 C -30.638844 -102.81335 -31.687533 -102.72813 -32.764562 -102.72813 C -33.898276 -102.72813 -35.004126 -102.81335 -36.081155 -102.98341 L -38.461888 -117.60836 L -37.101248 -118.88373 z M -89.564195 -101.28274 C -87.580195 -101.28274 -86.105901 -100.68772 -85.142243 -99.497319 C -84.1219 -98.363604 -83.612104 -96.776539 -83.612104 -94.735852 C -83.612104 -92.695166 -84.1219 -91.107584 -85.142243 -89.973869 C -86.105901 -88.840154 -87.580195 -88.273198 -89.564195 -88.273198 C -91.548196 -88.273198 -93.050037 -88.840154 -94.07038 -89.973869 C -95.034038 -91.16427 -95.51577 -92.751852 -95.51577 -94.735852 C -95.51577 -96.833225 -95.034038 -98.448354 -94.07038 -99.582068 C -93.050037 -100.71578 -91.548196 -101.28274 -89.564195 -101.28274 z M -89.564195 -74.498845 C -87.580195 -74.498845 -86.105901 -73.903824 -85.142243 -72.713424 C -84.1219 -71.579709 -83.612104 -69.992127 -83.612104 -67.951441 C -83.612104 -65.910754 -84.1219 -64.323689 -85.142243 -63.189974 C -86.105901 -62.05626 -87.580195 -61.489303 -89.564195 -61.489303 C -91.548196 -61.489303 -93.050037 -62.05626 -94.07038 -63.189974 C -95.034038 -64.380375 -95.51577 -65.96744 -95.51577 -67.951441 C -95.51577 -70.048813 -95.034038 -71.664459 -94.07038 -72.798173 C -93.050037 -73.931888 -91.548196 -74.498845 -89.564195 -74.498845 z " /></g></svg>
