<?xml version="1.0" encoding="UTF-8" standalone="no"?>
<!-- Created with Inkscape (http://www.inkscape.org/) -->

<svg
   width="172.6701mm"
   height="172.6701mm"
   viewBox="0 0 172.6701 172.6701"
   version="1.1"
   id="svg1"
   xml:space="preserve"
   xmlns="http://www.w3.org/2000/svg"
   xmlns:svg="http://www.w3.org/2000/svg"><defs
     id="defs1" /><g
     id="layer1"
     transform="translate(157.25102,198.81012)"><path
       id="path5"
       style="fill:#ffffff;fill-opacity:1;stroke-width:0.805188;stroke-linecap:round;stroke-linejoin:round"
       d="M -2.0863309 -198.17657 L -10.088943 -183.11289 L -10.930235 -165.68398 L -19.198981 -165.68398 L -11.423229 -155.47426 L -12.166336 -140.07934 C -28.353216 -157.12094 -50.823548 -166.77435 -74.327399 -166.78417 C -103.64471 -166.77397 -130.92652 -151.79225 -146.66717 -127.05894 L -157.25102 -127.05894 L -149.61996 -115.86014 L -157.25102 -26.140039 L -8.5138455 -26.140039 L 15.419061 -26.140039 L 8.0799737 -154.80195 L 15.419061 -165.68398 L 7.4593397 -165.68398 L 6.4490654 -183.39297 L -2.0863309 -198.17657 z M -83.43072 -192.21621 C -85.584619 -189.65499 -86.77489 -186.4211 -86.795372 -183.07465 C -86.842092 -175.15518 -80.459903 -168.69733 -72.540428 -168.65072 C -64.621155 -168.60402 -58.163395 -174.98588 -58.116503 -182.90515 C -58.102813 -186.26049 -59.266203 -189.5144 -61.404157 -192.10045 C -60.83125 -190.6836 -60.536835 -189.16959 -60.537027 -187.64129 C -60.575787 -181.07411 -65.930869 -175.78172 -72.498054 -175.82031 C -79.065241 -175.85911 -84.357627 -181.21415 -84.319038 -187.78134 C -84.309338 -189.30285 -84.007827 -190.80837 -83.43072 -192.21621 z M -124.63802 -119.81908 C -118.68602 -119.81908 -113.95289 -118.54381 -110.43837 -115.99295 C -106.92386 -113.44209 -105.16686 -110.01229 -105.16686 -105.70418 C -105.16686 -103.38006 -106.01704 -101.05611 -107.71761 -98.731991 C -109.41818 -96.407876 -111.65743 -94.50901 -114.43503 -93.035181 C -110.92051 -91.334609 -108.17095 -89.350519 -106.18695 -87.08309 C -104.14627 -84.81566 -103.12616 -81.896169 -103.12616 -78.324968 C -103.12616 -73.166566 -104.99644 -69.057034 -108.7377 -65.996005 C -112.47896 -62.991661 -117.52441 -61.489303 -123.87321 -61.489303 C -130.84556 -61.489303 -136.23035 -62.878373 -140.0283 -65.655974 C -143.76956 -68.433575 -145.64036 -72.401238 -145.64036 -77.55964 C -145.64036 -80.223869 -144.79018 -82.86014 -143.08961 -85.467684 C -141.38904 -88.131914 -139.00792 -90.483931 -135.94689 -92.524618 C -138.49775 -93.941761 -140.48184 -95.642631 -141.89899 -97.626632 C -143.31613 -99.610633 -144.02495 -102.07646 -144.02495 -105.02411 C -144.02495 -109.55897 -142.26744 -113.15871 -138.75292 -115.82294 C -135.23841 -118.48717 -130.53334 -119.81908 -124.63802 -119.81908 z M -56.360021 -119.73381 C -52.675448 -119.73381 -49.416093 -119.11073 -46.581806 -117.86364 C -43.747519 -116.67324 -41.536853 -114.97237 -39.949653 -112.76163 C -38.362452 -110.60757 -37.56892 -108.11368 -37.56892 -105.27939 C -37.56892 -102.10499 -38.504321 -99.384015 -40.37495 -97.116586 C -42.245579 -94.849156 -45.023202 -93.120223 -48.707775 -91.929822 C -44.059544 -90.909479 -40.800189 -89.237189 -38.92956 -86.913074 C -37.058931 -84.588959 -36.12353 -81.442892 -36.12353 -77.474891 C -36.12353 -74.017061 -37.172219 -71.069506 -39.269591 -68.632019 C -41.310277 -66.194533 -43.974612 -64.380375 -47.262385 -63.189974 C -50.550157 -61.999574 -53.950864 -61.404554 -57.46538 -61.404554 C -62.567096 -61.404554 -66.90372 -62.453243 -70.474921 -64.550615 C -73.989437 -66.647987 -75.746951 -69.510317 -75.746951 -73.138204 C -75.746951 -75.235577 -75.12335 -76.851222 -73.876264 -77.984937 C -72.629178 -79.175337 -71.070176 -79.770358 -69.199547 -79.770358 C -67.272232 -79.770358 -65.316722 -79.005405 -63.332722 -77.474891 C -63.842893 -76.397862 -64.09805 -75.094016 -64.09805 -73.563501 C -64.09805 -71.749558 -63.559157 -70.275781 -62.482128 -69.142066 C -61.348413 -68.008351 -59.676123 -67.441394 -57.46538 -67.441394 C -52.590406 -67.441394 -50.153164 -70.814037 -50.153164 -77.55964 C -50.153164 -81.244213 -51.343722 -84.10706 -53.724523 -86.147746 C -56.048638 -88.188433 -59.364637 -89.208541 -63.672753 -89.208541 L -63.672753 -94.480571 C -55.33995 -95.1608 -51.173257 -98.760535 -51.173257 -105.27939 C -51.173257 -108.56717 -51.68357 -110.97583 -52.703913 -112.50634 C -53.724256 -114.09354 -55.113326 -114.88759 -56.870584 -114.88759 C -58.967956 -114.88759 -60.555021 -114.15071 -61.63205 -112.67688 C -62.652394 -111.20305 -63.162706 -109.41747 -63.162706 -107.3201 C -63.162706 -105.44947 -62.765681 -103.77718 -61.972081 -102.30335 C -63.559282 -100.60278 -65.600016 -99.752084 -68.094188 -99.752084 C -70.361618 -99.752084 -72.119132 -100.43233 -73.366218 -101.79279 C -74.613304 -103.15324 -75.236388 -104.91076 -75.236388 -107.06482 C -75.236388 -109.8991 -74.272923 -112.25164 -72.345608 -114.12227 C -70.361607 -116.04958 -67.924366 -117.46671 -65.033393 -118.37369 C -62.085735 -119.28066 -59.194307 -119.73381 -56.360021 -119.73381 z M -12.825727 -119.73381 C -6.9870963 -119.73381 -2.3386716 -118.28861 1.1191582 -115.39764 C 4.5769881 -112.56335 6.3059217 -108.56711 6.3059217 -103.40871 C 6.3059217 -98.873849 4.5769881 -94.026912 1.1191582 -88.86851 C -2.3386716 -83.766794 -8.0357853 -77.616529 -15.971788 -70.41744 L 6.9007175 -70.41744 L 6.9007175 -62.084615 L -31.616828 -62.084615 L -31.616828 -67.016097 C -25.324712 -73.081471 -20.421647 -78.268272 -16.907132 -82.576388 C -13.392616 -86.884504 -10.87015 -90.852684 -9.3396349 -94.480571 C -7.7524343 -98.108458 -6.9589017 -101.84955 -6.9589017 -105.70418 C -6.9589017 -111.82623 -8.9996357 -114.88759 -13.081009 -114.88759 C -14.894952 -114.88759 -16.368729 -114.0369 -17.502444 -112.33633 C -18.636159 -110.69244 -19.202599 -108.65171 -19.202599 -106.21422 C -19.202599 -104.51365 -18.607578 -102.89852 -17.417178 -101.36801 C -18.380836 -100.46103 -19.486169 -99.752209 -20.733255 -99.242037 C -21.923655 -98.731866 -23.114212 -98.476709 -24.304613 -98.476709 C -26.345299 -98.476709 -28.045653 -99.10031 -29.40611 -100.3474 C -30.766568 -101.65117 -31.446813 -103.52197 -31.446813 -105.95946 C -31.446813 -108.567 -30.68186 -110.91953 -29.151346 -113.01691 C -27.620831 -115.11428 -25.466809 -116.75799 -22.689208 -117.94839 C -19.854921 -119.13879 -16.566986 -119.73381 -12.825727 -119.73381 z M -124.63802 -113.78224 C -126.90545 -113.78224 -128.69155 -113.04535 -129.99532 -111.57152 C -131.29909 -110.15437 -131.95076 -108.22693 -131.95076 -105.78944 C -131.95076 -103.63538 -131.12864 -101.84981 -129.48476 -100.43266 C -127.78418 -99.072205 -125.31836 -97.711715 -122.08727 -96.351258 C -120.67013 -97.314915 -119.53673 -98.646824 -118.68645 -100.3474 C -117.83616 -102.04797 -117.41107 -103.86213 -117.41107 -105.78944 C -117.41107 -108.22693 -118.09132 -110.15437 -119.45178 -111.57152 C -120.75555 -113.04535 -122.48397 -113.78224 -124.63802 -113.78224 z M -88.075914 -101.28274 C -86.091913 -101.28274 -84.618136 -100.68772 -83.654479 -99.497319 C -82.634135 -98.363604 -82.123823 -96.776539 -82.123823 -94.735852 C -82.123823 -92.695166 -82.634135 -91.107584 -83.654479 -89.973869 C -84.618136 -88.840154 -86.091913 -88.273198 -88.075914 -88.273198 C -90.059915 -88.273198 -91.562273 -88.840154 -92.582616 -89.973869 C -93.546273 -91.16427 -94.028006 -92.751852 -94.028006 -94.735852 C -94.028006 -96.833225 -93.546273 -98.448354 -92.582616 -99.582068 C -91.562273 -100.71578 -90.059915 -101.28274 -88.075914 -101.28274 z M -128.12463 -89.038526 C -129.8252 -87.678068 -131.07189 -86.119583 -131.86549 -84.362325 C -132.65909 -82.605068 -133.05611 -80.50769 -133.05611 -78.070203 C -133.05611 -74.725745 -132.234 -72.089474 -130.59012 -70.162159 C -128.94623 -68.291529 -126.7075 -67.356645 -123.87321 -67.356645 C -121.09561 -67.356645 -118.94159 -68.291529 -117.41107 -70.162159 C -115.82387 -72.032788 -115.02982 -74.640479 -115.02982 -77.984937 C -115.02982 -79.855566 -115.62536 -81.442631 -116.81576 -82.746403 C -117.94948 -84.106861 -119.39467 -85.212194 -121.15193 -86.06248 C -122.90919 -86.969452 -125.23366 -87.961497 -128.12463 -89.038526 z M -88.075914 -74.498845 C -86.091913 -74.498845 -84.618136 -73.903824 -83.654479 -72.713424 C -82.634135 -71.579709 -82.123823 -69.992127 -82.123823 -67.951441 C -82.123823 -65.910754 -82.634135 -64.323689 -83.654479 -63.189974 C -84.618136 -62.05626 -86.091913 -61.489303 -88.075914 -61.489303 C -90.059915 -61.489303 -91.562273 -62.05626 -92.582616 -63.189974 C -93.546273 -64.380375 -94.028006 -65.96744 -94.028006 -67.951441 C -94.028006 -70.048813 -93.546273 -71.664459 -92.582616 -72.798173 C -91.562273 -73.931888 -90.059915 -74.498845 -88.075914 -74.498845 z " /></g></svg>
