<?xml version="1.0" encoding="UTF-8" standalone="no"?>
<!-- Created with Inkscape (http://www.inkscape.org/) -->

<svg
   width="172.6701mm"
   height="172.6701mm"
   viewBox="0 0 172.6701 172.6701"
   version="1.1"
   id="svg1"
   xml:space="preserve"
   xmlns="http://www.w3.org/2000/svg"
   xmlns:svg="http://www.w3.org/2000/svg"><defs
     id="defs1" /><g
     id="layer1"
     transform="translate(157.25102,198.81012)"><path
       id="path5"
       style="fill:#ffffff;fill-opacity:1;stroke-width:0.805188;stroke-linecap:round;stroke-linejoin:round"
       d="M -2.0863309 -198.17657 L -10.088943 -183.11289 L -10.930235 -165.68398 L -19.198981 -165.68398 L -11.423229 -155.47426 L -12.166336 -140.07934 C -28.353216 -157.12094 -50.823548 -166.77435 -74.327399 -166.78417 C -103.64471 -166.77397 -130.92652 -151.79225 -146.66717 -127.05894 L -157.25102 -127.05894 L -149.61996 -115.86014 L -157.25102 -26.140039 L -8.5138455 -26.140039 L 15.419061 -26.140039 L 8.0799737 -154.80195 L 15.419061 -165.68398 L 7.4593397 -165.68398 L 6.4490654 -183.39297 L -2.0863309 -198.17657 z M -83.43072 -192.21621 C -85.584619 -189.65499 -86.77489 -186.4211 -86.795372 -183.07465 C -86.842092 -175.15518 -80.459903 -168.69733 -72.540428 -168.65072 C -64.621155 -168.60402 -58.163395 -174.98588 -58.116503 -182.90515 C -58.102813 -186.26049 -59.266203 -189.5144 -61.404157 -192.10045 C -60.83125 -190.6836 -60.536835 -189.16959 -60.537027 -187.64129 C -60.575787 -181.07411 -65.930869 -175.78172 -72.498054 -175.82031 C -79.065241 -175.85911 -84.357627 -181.21415 -84.319038 -187.78134 C -84.309338 -189.30285 -84.007827 -190.80837 -83.43072 -192.21621 z M -16.269444 -119.73381 C -12.584872 -119.73381 -9.3249999 -119.11073 -6.4907132 -117.86364 C -3.6564264 -116.67324 -1.4457605 -114.97237 0.14144012 -112.76163 C 1.7286407 -110.60757 2.5221734 -108.11368 2.5221734 -105.27939 C 2.5221734 -102.10499 1.5867723 -99.384015 -0.28385691 -97.116586 C -2.1544862 -94.849156 -4.9321088 -93.120223 -8.6166816 -91.929822 C -3.9684513 -90.909479 -0.70909636 -89.237189 1.1615329 -86.913074 C 3.0321622 -84.588959 3.9675632 -81.442892 3.9675632 -77.474891 C 3.9675632 -74.017061 2.9188742 -71.069506 0.82150197 -68.632019 C -1.2191845 -66.194533 -3.8835192 -64.380375 -7.1712918 -63.189974 C -10.459064 -61.999574 -13.860288 -61.404554 -17.374803 -61.404554 C -22.47652 -61.404554 -26.812627 -62.453243 -30.383828 -64.550615 C -33.898344 -66.647987 -35.655858 -69.510317 -35.655858 -73.138204 C -35.655858 -75.235577 -35.032257 -76.851222 -33.785171 -77.984937 C -32.538085 -79.175337 -30.979083 -79.770358 -29.108454 -79.770358 C -27.181139 -79.770358 -25.225629 -79.005405 -23.241629 -77.474891 C -23.7518 -76.397862 -24.006957 -75.094016 -24.006957 -73.563501 C -24.006957 -71.749558 -23.46858 -70.275781 -22.391551 -69.142066 C -21.257837 -68.008351 -19.585547 -67.441394 -17.374803 -67.441394 C -12.49983 -67.441394 -10.062071 -70.814037 -10.062071 -77.55964 C -10.062071 -81.244213 -11.252629 -84.10706 -13.63343 -86.147746 C -15.957545 -88.188433 -19.273544 -89.208541 -23.58166 -89.208541 L -23.58166 -94.480571 C -15.248857 -95.1608 -11.082681 -98.760535 -11.082681 -105.27939 C -11.082681 -108.56717 -11.592477 -110.97583 -12.61282 -112.50634 C -13.633163 -114.09354 -15.022233 -114.88759 -16.779491 -114.88759 C -18.876863 -114.88759 -20.463928 -114.15071 -21.540957 -112.67688 C -22.561301 -111.20305 -23.071613 -109.41747 -23.071613 -107.3201 C -23.071613 -105.44947 -22.674589 -103.77718 -21.880988 -102.30335 C -23.468189 -100.60278 -25.508923 -99.752084 -28.003095 -99.752084 C -30.270525 -99.752084 -32.028039 -100.43233 -33.275125 -101.79279 C -34.522211 -103.15324 -35.145812 -104.91076 -35.145812 -107.06482 C -35.145812 -109.8991 -34.18183 -112.25164 -32.254515 -114.12227 C -30.270515 -116.04958 -27.833273 -117.46671 -24.9423 -118.37369 C -21.994642 -119.28066 -19.103731 -119.73381 -16.269444 -119.73381 z M -122.72496 -119.56379 C -115.97936 -119.56379 -110.82114 -117.69351 -107.24994 -113.95225 C -103.62205 -110.21099 -101.80789 -104.7971 -101.80789 -97.711381 C -101.80789 -88.811721 -104.58552 -81.216258 -110.14072 -74.924142 C -115.63923 -68.688711 -123.63224 -64.09693 -134.1191 -61.149272 L -136.1598 -65.400692 C -130.49123 -67.838179 -125.92803 -70.956182 -122.4702 -74.754126 C -119.01237 -78.608756 -116.71648 -83.086732 -115.58276 -88.188448 C -118.75716 -86.601248 -121.84659 -85.807715 -124.85093 -85.807715 C -130.5195 -85.807715 -134.99748 -87.338137 -138.28525 -90.399166 C -141.51634 -93.460196 -143.13199 -97.598308 -143.13199 -102.8134 C -143.13199 -106.04448 -142.28181 -108.93539 -140.58124 -111.48625 C -138.82398 -114.03711 -136.4148 -116.0212 -133.35377 -117.43834 C -130.23606 -118.85549 -126.69296 -119.56379 -122.72496 -119.56379 z M -52.321507 -119.13901 L -49.515477 -117.86364 L -49.515477 -68.716769 C -48.438448 -68.093226 -46.738095 -67.526269 -44.41398 -67.016097 C -42.089865 -66.562611 -40.247126 -66.279392 -38.886669 -66.16602 L -39.14195 -62.084615 L -73.833373 -62.084615 L -73.663357 -66.16602 C -68.618327 -66.732877 -64.763952 -67.583054 -62.099722 -68.716769 L -62.099722 -109.44555 L -73.493342 -109.44555 L -73.493342 -114.37703 C -69.865455 -114.66046 -66.124367 -115.19935 -62.269737 -115.99295 C -58.415107 -116.84324 -55.099108 -117.89193 -52.321507 -119.13901 z M -123.23553 -113.69697 C -125.67301 -113.69697 -127.5433 -112.76157 -128.84707 -110.89094 C -130.15084 -109.02031 -130.80302 -106.35597 -130.80302 -102.89814 C -130.80302 -99.383629 -130.0942 -96.634587 -128.67705 -94.650586 C -127.20322 -92.723271 -125.13443 -91.759807 -122.4702 -91.759807 C -120.14608 -91.759807 -117.56697 -92.723271 -114.73269 -94.650586 L -114.73269 -95.755945 C -114.73269 -101.93469 -115.41293 -106.46931 -116.77339 -109.36028 C -118.13384 -112.25126 -120.28787 -113.69697 -123.23553 -113.69697 z M -86.928181 -101.28274 C -84.94418 -101.28274 -83.470403 -100.68772 -82.506745 -99.497319 C -81.486402 -98.363604 -80.976089 -96.776539 -80.976089 -94.735852 C -80.976089 -92.695166 -81.486402 -91.107584 -82.506745 -89.973869 C -83.470403 -88.840154 -84.94418 -88.273198 -86.928181 -88.273198 C -88.912181 -88.273198 -90.414022 -88.840154 -91.434366 -89.973869 C -92.398023 -91.16427 -92.880272 -92.751852 -92.880272 -94.735852 C -92.880272 -96.833225 -92.398023 -98.448354 -91.434366 -99.582068 C -90.414022 -100.71578 -88.912181 -101.28274 -86.928181 -101.28274 z M -86.928181 -74.498845 C -84.94418 -74.498845 -83.470403 -73.903824 -82.506745 -72.713424 C -81.486402 -71.579709 -80.976089 -69.992127 -80.976089 -67.951441 C -80.976089 -65.910754 -81.486402 -64.323689 -82.506745 -63.189974 C -83.470403 -62.05626 -84.94418 -61.489303 -86.928181 -61.489303 C -88.912181 -61.489303 -90.414022 -62.05626 -91.434366 -63.189974 C -92.398023 -64.380375 -92.880272 -65.96744 -92.880272 -67.951441 C -92.880272 -70.048813 -92.398023 -71.664459 -91.434366 -72.798173 C -90.414022 -73.931888 -88.912181 -74.498845 -86.928181 -74.498845 z " /></g></svg>
