<?xml version="1.0" encoding="UTF-8" standalone="no"?>
<!-- Created with Inkscape (http://www.inkscape.org/) -->

<svg
   width="172.6701mm"
   height="172.6701mm"
   viewBox="0 0 172.6701 172.6701"
   version="1.1"
   id="svg1"
   xml:space="preserve"
   xmlns="http://www.w3.org/2000/svg"
   xmlns:svg="http://www.w3.org/2000/svg"><defs
     id="defs1" /><g
     id="layer1"
     transform="translate(157.25102,198.81012)"><path
       id="path5"
       style="fill:#ffffff;fill-opacity:1;stroke-width:0.805188;stroke-linecap:round;stroke-linejoin:round"
       d="M -2.0863309 -198.17657 L -10.088943 -183.11289 L -10.930235 -165.68398 L -19.198981 -165.68398 L -11.423229 -155.47426 L -12.166336 -140.07934 C -28.353216 -157.12094 -50.823548 -166.77435 -74.327399 -166.78417 C -103.64471 -166.77397 -130.92652 -151.79225 -146.66717 -127.05894 L -157.25102 -127.05894 L -149.61996 -115.86014 L -157.25102 -26.140039 L -8.5138455 -26.140039 L 15.419061 -26.140039 L 8.0799737 -154.80195 L 15.419061 -165.68398 L 7.4593397 -165.68398 L 6.4490654 -183.39297 L -2.0863309 -198.17657 z M -83.43072 -192.21621 C -85.584619 -189.65499 -86.77489 -186.4211 -86.795372 -183.07465 C -86.842092 -175.15518 -80.459903 -168.69733 -72.540428 -168.65072 C -64.621155 -168.60402 -58.163395 -174.98588 -58.116503 -182.90515 C -58.102813 -186.26049 -59.266203 -189.5144 -61.404157 -192.10045 C -60.83125 -190.6836 -60.536835 -189.16959 -60.537027 -187.64129 C -60.575787 -181.07411 -65.930869 -175.78172 -72.498054 -175.82031 C -79.065241 -175.85911 -84.357627 -181.21415 -84.319038 -187.78134 C -84.309338 -189.30285 -84.007827 -190.80837 -83.43072 -192.21621 z M -60.016645 -120.07436 C -55.481786 -119.84761 -51.796826 -118.85557 -48.962539 -117.09831 L -69.199547 -83.767013 L -56.190005 -83.767013 L -55.339928 -97.626632 C -53.525984 -97.626632 -52.222139 -97.995076 -51.428539 -98.731991 C -50.578253 -99.468905 -49.926588 -100.71611 -49.473103 -102.47336 L -44.62637 -102.47336 L -44.711119 -83.341716 C -42.557061 -82.718173 -39.836599 -82.066508 -36.548827 -81.38628 L -36.973607 -77.304875 L -45.136416 -77.304875 L -45.136416 -62.084615 L -56.190005 -62.084615 L -56.190005 -77.304875 L -80.763699 -77.304875 L -81.443761 -80.36567 L -60.016645 -120.07436 z M -12.230415 -119.56379 C -5.4848121 -119.56379 -0.32659143 -117.69351 3.2446099 -113.95225 C 6.8724969 -110.21099 8.686655 -104.7971 8.686655 -97.711381 C 8.686655 -88.811721 5.9090323 -81.216258 0.35383026 -74.924142 C -5.144686 -68.688711 -13.137173 -64.09693 -23.624034 -61.149272 L -25.664737 -65.400692 C -19.996163 -67.838179 -15.432963 -70.956182 -11.975133 -74.754126 C -8.5173031 -78.608756 -6.2219295 -83.086732 -5.0882148 -88.188448 C -8.262616 -86.601248 -11.352039 -85.807715 -14.356383 -85.807715 C -20.024956 -85.807715 -24.502932 -87.338137 -27.790705 -90.399166 C -31.021792 -93.460196 -32.637438 -97.598308 -32.637438 -102.8134 C -32.637438 -106.04448 -31.787261 -108.93539 -30.086689 -111.48625 C -28.329431 -114.03711 -25.920253 -116.0212 -22.859223 -117.43834 C -19.741508 -118.85549 -16.198416 -119.56379 -12.230415 -119.56379 z M -140.36885 -119.05375 L -136.11743 -118.969 C -130.10874 -118.85563 -126.93409 -118.79847 -126.59398 -118.79847 L -114.51978 -118.969 L -112.0543 -117.18306 L -112.81911 -110.72092 L -133.90619 -110.72092 L -135.09682 -96.521273 C -132.14916 -97.258188 -129.48482 -97.626632 -127.10402 -97.626632 C -121.49214 -97.626632 -116.92893 -96.124274 -113.41442 -93.11993 C -109.84322 -90.172272 -108.05764 -85.836165 -108.05764 -80.110905 C -108.05764 -76.539704 -108.90782 -73.336993 -110.60839 -70.502706 C -112.25228 -67.66842 -114.63339 -65.429173 -117.75111 -63.785287 C -120.86882 -62.198086 -124.55326 -61.404554 -128.80469 -61.404554 C -132.26252 -61.404554 -135.40859 -61.886286 -138.24288 -62.849943 C -141.02048 -63.813601 -143.20308 -65.14551 -144.79028 -66.846082 C -146.37748 -68.60334 -147.17102 -70.559366 -147.17102 -72.713424 C -147.17102 -74.980853 -146.54741 -76.709787 -145.30033 -77.900188 C -144.05324 -79.147274 -142.52282 -79.770358 -140.70888 -79.770358 C -139.68853 -79.770358 -138.66791 -79.572362 -137.64757 -79.175562 C -136.57054 -78.778762 -135.60707 -78.211805 -134.75679 -77.474891 C -135.26696 -76.28449 -135.52211 -75.037289 -135.52211 -73.733517 C -135.52211 -71.862888 -134.98322 -70.332466 -133.90619 -69.142066 C -132.77248 -67.951665 -131.07212 -67.356645 -128.80469 -67.356645 C -123.70298 -67.356645 -121.15193 -71.608045 -121.15193 -80.110905 C -121.15193 -84.135593 -121.94598 -87.054567 -123.53318 -88.86851 C -125.12038 -90.73914 -127.24582 -91.674541 -129.91005 -91.674541 C -131.55394 -91.674541 -133.31145 -91.36274 -135.18208 -90.739197 C -137.05271 -90.115654 -138.89493 -89.236897 -140.70888 -88.103182 L -145.38508 -92.609884 L -143.17436 -116.75776 L -140.36885 -119.05375 z M -12.740461 -113.69697 C -15.177948 -113.69697 -17.04875 -112.76157 -18.352521 -110.89094 C -19.656293 -109.02031 -20.307958 -106.35597 -20.307958 -102.89814 C -20.307958 -99.383629 -19.599649 -96.634587 -18.182506 -94.650586 C -16.708677 -92.723271 -14.639363 -91.759807 -11.975133 -91.759807 C -9.6510178 -91.759807 -7.0719075 -92.723271 -4.2376207 -94.650586 L -4.2376207 -95.755945 C -4.2376207 -101.93469 -4.9178654 -106.46931 -6.2783231 -109.36028 C -7.6387807 -112.25126 -9.7928027 -113.69697 -12.740461 -113.69697 z M -92.667365 -101.28274 C -90.683364 -101.28274 -89.209587 -100.68772 -88.24593 -99.497319 C -87.225586 -98.363604 -86.715274 -96.776539 -86.715274 -94.735852 C -86.715274 -92.695166 -87.225586 -91.107584 -88.24593 -89.973869 C -89.209587 -88.840154 -90.683364 -88.273198 -92.667365 -88.273198 C -94.651366 -88.273198 -96.153724 -88.840154 -97.174067 -89.973869 C -98.137724 -91.16427 -98.619457 -92.751852 -98.619457 -94.735852 C -98.619457 -96.833225 -98.137724 -98.448354 -97.174067 -99.582068 C -96.153724 -100.71578 -94.651366 -101.28274 -92.667365 -101.28274 z M -92.667365 -74.498845 C -90.683364 -74.498845 -89.209587 -73.903824 -88.24593 -72.713424 C -87.225586 -71.579709 -86.715274 -69.992127 -86.715274 -67.951441 C -86.715274 -65.910754 -87.225586 -64.323689 -88.24593 -63.189974 C -89.209587 -62.05626 -90.683364 -61.489303 -92.667365 -61.489303 C -94.651366 -61.489303 -96.153724 -62.05626 -97.174067 -63.189974 C -98.137724 -64.380375 -98.619457 -65.96744 -98.619457 -67.951441 C -98.619457 -70.048813 -98.137724 -71.664459 -97.174067 -72.798173 C -96.153724 -73.931888 -94.651366 -74.498845 -92.667365 -74.498845 z " /></g></svg>
