<?xml version="1.0" encoding="UTF-8" standalone="no"?>
<!-- Created with Inkscape (http://www.inkscape.org/) -->

<svg
   width="172.6701mm"
   height="172.6701mm"
   viewBox="0 0 172.6701 172.6701"
   version="1.1"
   id="svg1"
   xml:space="preserve"
   xmlns="http://www.w3.org/2000/svg"
   xmlns:svg="http://www.w3.org/2000/svg"><defs
     id="defs1" /><g
     id="layer1"
     transform="translate(157.25102,198.81012)"><path
       id="path5"
       style="fill:#ffffff;fill-opacity:1;stroke-width:0.805188;stroke-linecap:round;stroke-linejoin:round"
       d="M -2.0863309 -198.17657 L -10.088943 -183.11289 L -10.930235 -165.68398 L -19.198981 -165.68398 L -11.423229 -155.47426 L -12.166336 -140.07934 C -28.353216 -157.12094 -50.823548 -166.77435 -74.327399 -166.78417 C -103.64471 -166.77397 -130.92652 -151.79225 -146.66717 -127.05894 L -157.25102 -127.05894 L -149.61996 -115.86014 L -157.25102 -26.140039 L -8.5138455 -26.140039 L 15.419061 -26.140039 L 8.0799737 -154.80195 L 15.419061 -165.68398 L 7.4593397 -165.68398 L 6.4490654 -183.39297 L -2.0863309 -198.17657 z M -83.43072 -192.21621 C -85.584619 -189.65499 -86.77489 -186.4211 -86.795372 -183.07465 C -86.842092 -175.15518 -80.459903 -168.69733 -72.540428 -168.65072 C -64.621155 -168.60402 -58.163395 -174.98588 -58.116503 -182.90515 C -58.102813 -186.26049 -59.266203 -189.5144 -61.404157 -192.10045 C -60.83125 -190.6836 -60.536835 -189.16959 -60.537027 -187.64129 C -60.575787 -181.07411 -65.930869 -175.78172 -72.498054 -175.82031 C -79.065241 -175.85911 -84.357627 -181.21415 -84.319038 -187.78134 C -84.309338 -189.30285 -84.007827 -190.80837 -83.43072 -192.21621 z M -125.91391 -119.73381 C -122.22934 -119.73381 -118.96947 -119.11073 -116.13518 -117.86364 C -113.3009 -116.67324 -111.09023 -114.97237 -109.50303 -112.76163 C -107.91583 -110.60757 -107.1223 -108.11368 -107.1223 -105.27939 C -107.1223 -102.10499 -108.0577 -99.384015 -109.92833 -97.116586 C -111.79896 -94.849156 -114.57658 -93.120223 -118.26115 -91.929822 C -113.61292 -90.909479 -110.35357 -89.237189 -108.48294 -86.913074 C -106.61231 -84.588959 -105.67691 -81.442892 -105.67691 -77.474891 C -105.67691 -74.017061 -106.7256 -71.069506 -108.82297 -68.632019 C -110.86365 -66.194533 -113.52799 -64.380375 -116.81576 -63.189974 C -120.10353 -61.999574 -123.50476 -61.404554 -127.01927 -61.404554 C -132.12099 -61.404554 -136.4571 -62.453243 -140.0283 -64.550615 C -143.54281 -66.647987 -145.30033 -69.510317 -145.30033 -73.138204 C -145.30033 -75.235577 -144.67673 -76.851222 -143.42964 -77.984937 C -142.18256 -79.175337 -140.62355 -79.770358 -138.75292 -79.770358 C -136.82561 -79.770358 -134.8701 -79.005405 -132.8861 -77.474891 C -133.39627 -76.397862 -133.65143 -75.094016 -133.65143 -73.563501 C -133.65143 -71.749558 -133.11305 -70.275781 -132.03602 -69.142066 C -130.90231 -68.008351 -129.23002 -67.441394 -127.01927 -67.441394 C -122.1443 -67.441394 -119.70654 -70.814037 -119.70654 -77.55964 C -119.70654 -81.244213 -120.8971 -84.10706 -123.2779 -86.147746 C -125.60202 -88.188433 -128.91801 -89.208541 -133.22613 -89.208541 L -133.22613 -94.480571 C -124.89333 -95.1608 -120.72715 -98.760535 -120.72715 -105.27939 C -120.72715 -108.56717 -121.23695 -110.97583 -122.25729 -112.50634 C -123.27763 -114.09354 -124.6667 -114.88759 -126.42396 -114.88759 C -128.52133 -114.88759 -130.1084 -114.15071 -131.18543 -112.67688 C -132.20577 -111.20305 -132.71608 -109.41747 -132.71608 -107.3201 C -132.71608 -105.44947 -132.31906 -103.77718 -131.52546 -102.30335 C -133.11266 -100.60278 -135.15339 -99.752084 -137.64757 -99.752084 C -139.91499 -99.752084 -141.67251 -100.43233 -142.9196 -101.79279 C -144.16668 -103.15324 -144.79028 -104.91076 -144.79028 -107.06482 C -144.79028 -109.8991 -143.8263 -112.25164 -141.89899 -114.12227 C -139.91498 -116.04958 -137.47774 -117.46671 -134.58677 -118.37369 C -131.63911 -119.28066 -128.7482 -119.73381 -125.91391 -119.73381 z M -58.571255 -119.73381 C -52.732624 -119.73381 -48.0842 -118.28861 -44.62637 -115.39764 C -41.16854 -112.56335 -39.439606 -108.56711 -39.439606 -103.40871 C -39.439606 -98.873849 -41.16854 -94.026912 -44.62637 -88.86851 C -48.0842 -83.766794 -53.781313 -77.616529 -61.717316 -70.41744 L -38.844294 -70.41744 L -38.844294 -62.084615 L -77.362356 -62.084615 L -77.362356 -67.016097 C -71.07024 -73.081471 -66.167175 -78.268272 -62.65266 -82.576388 C -59.138144 -86.884504 -56.615161 -90.852684 -55.084646 -94.480571 C -53.497446 -98.108458 -52.703913 -101.84955 -52.703913 -105.70418 C -52.703913 -111.82623 -54.744647 -114.88759 -58.82602 -114.88759 C -60.639964 -114.88759 -62.113741 -114.0369 -63.247456 -112.33633 C -64.38117 -110.69244 -64.948127 -108.65171 -64.948127 -106.21422 C -64.948127 -104.51365 -64.353107 -102.89852 -63.162706 -101.36801 C -64.126364 -100.46103 -65.231697 -99.752209 -66.478783 -99.242037 C -67.669183 -98.731866 -68.859741 -98.476709 -70.050141 -98.476709 C -72.090828 -98.476709 -73.791181 -99.10031 -75.151638 -100.3474 C -76.512096 -101.65117 -77.192341 -103.52197 -77.192341 -105.95946 C -77.192341 -108.567 -76.426872 -110.91953 -74.896357 -113.01691 C -73.365842 -115.11428 -71.21182 -116.75799 -68.434219 -117.94839 C -65.599932 -119.13879 -62.312514 -119.73381 -58.571255 -119.73381 z M -27.195393 -119.05375 L -22.943972 -118.969 C -16.935285 -118.85563 -13.761154 -118.79847 -13.42104 -118.79847 L -1.3468411 -118.969 L 1.1191582 -117.18306 L 0.35383026 -110.72092 L -20.733255 -110.72092 L -21.92388 -96.521273 C -18.976221 -97.258188 -16.311887 -97.626632 -13.931086 -97.626632 C -8.3191981 -97.626632 -3.7559978 -96.124274 -0.24148224 -93.11993 C 3.3297191 -90.172272 5.1152967 -85.836165 5.1152967 -80.110905 C 5.1152967 -76.539704 4.2651201 -73.336993 2.564548 -70.502706 C 0.92066172 -67.66842 -1.4599362 -65.429173 -4.5776517 -63.785287 C -7.6953671 -62.198086 -11.380327 -61.404554 -15.631757 -61.404554 C -19.089587 -61.404554 -22.235654 -61.886286 -25.069941 -62.849943 C -27.847542 -63.813601 -30.029628 -65.14551 -31.616828 -66.846082 C -33.204029 -68.60334 -33.997561 -70.559366 -33.997561 -72.713424 C -33.997561 -74.980853 -33.374477 -76.709787 -32.127391 -77.900188 C -30.880305 -79.147274 -29.349367 -79.770358 -27.535423 -79.770358 C -26.51508 -79.770358 -25.494972 -79.572362 -24.474628 -79.175562 C -23.397599 -78.778762 -22.434135 -78.211805 -21.583849 -77.474891 C -22.09402 -76.28449 -22.34866 -75.037289 -22.34866 -73.733517 C -22.34866 -71.862888 -21.810284 -70.332466 -20.733255 -69.142066 C -19.59954 -67.951665 -17.899187 -67.356645 -15.631757 -67.356645 C -10.530041 -67.356645 -7.9789944 -71.608045 -7.9789944 -80.110905 C -7.9789944 -84.135593 -8.7725271 -87.054567 -10.359728 -88.86851 C -11.946928 -90.73914 -14.072887 -91.674541 -16.737116 -91.674541 C -18.381003 -91.674541 -20.138 -91.36274 -22.008629 -90.739197 C -23.879258 -90.115654 -25.72148 -89.236897 -27.535423 -88.103182 L -32.212141 -92.609884 L -30.001423 -116.75776 L -27.195393 -119.05375 z M -90.626663 -101.28274 C -88.642662 -101.28274 -87.168885 -100.68772 -86.205227 -99.497319 C -85.184884 -98.363604 -84.675088 -96.776539 -84.675088 -94.735852 C -84.675088 -92.695166 -85.184884 -91.107584 -86.205227 -89.973869 C -87.168885 -88.840154 -88.642662 -88.273198 -90.626663 -88.273198 C -92.610664 -88.273198 -94.113021 -88.840154 -95.133365 -89.973869 C -96.097022 -91.16427 -96.578754 -92.751852 -96.578754 -94.735852 C -96.578754 -96.833225 -96.097022 -98.448354 -95.133365 -99.582068 C -94.113021 -100.71578 -92.610664 -101.28274 -90.626663 -101.28274 z M -90.626663 -74.498845 C -88.642662 -74.498845 -87.168885 -73.903824 -86.205227 -72.713424 C -85.184884 -71.579709 -84.675088 -69.992127 -84.675088 -67.951441 C -84.675088 -65.910754 -85.184884 -64.323689 -86.205227 -63.189974 C -87.168885 -62.05626 -88.642662 -61.489303 -90.626663 -61.489303 C -92.610664 -61.489303 -94.113021 -62.05626 -95.133365 -63.189974 C -96.097022 -64.380375 -96.578754 -65.96744 -96.578754 -67.951441 C -96.578754 -70.048813 -96.097022 -71.664459 -95.133365 -72.798173 C -94.113021 -73.931888 -92.610664 -74.498845 -90.626663 -74.498845 z " /></g></svg>
