<?xml version="1.0" encoding="UTF-8" standalone="no"?>
<!-- Created with Inkscape (http://www.inkscape.org/) -->

<svg
   width="172.6701mm"
   height="172.6701mm"
   viewBox="0 0 172.6701 172.6701"
   version="1.1"
   id="svg1"
   xml:space="preserve"
   xmlns="http://www.w3.org/2000/svg"
   xmlns:svg="http://www.w3.org/2000/svg"><defs
     id="defs1" /><g
     id="layer1"
     transform="translate(157.25102,198.81012)"><path
       id="path5"
       style="fill:#ffffff;fill-opacity:1;stroke-width:0.805188;stroke-linecap:round;stroke-linejoin:round"
       d="M -2.0863309 -198.17657 L -10.088943 -183.11289 L -10.930235 -165.68398 L -19.198981 -165.68398 L -11.423229 -155.47426 L -12.166336 -140.07934 C -28.353216 -157.12094 -50.823548 -166.77435 -74.327399 -166.78417 C -103.64471 -166.77397 -130.92652 -151.79225 -146.66717 -127.05894 L -157.25102 -127.05894 L -149.61996 -115.86014 L -157.25102 -26.140039 L -8.5138455 -26.140039 L 15.419061 -26.140039 L 8.0799737 -154.80195 L 15.419061 -165.68398 L 7.4593397 -165.68398 L 6.4490654 -183.39297 L -2.0863309 -198.17657 z M -83.43072 -192.21621 C -85.584619 -189.65499 -86.77489 -186.4211 -86.795372 -183.07465 C -86.842092 -175.15518 -80.459903 -168.69733 -72.540428 -168.65072 C -64.621155 -168.60402 -58.163395 -174.98588 -58.116503 -182.90515 C -58.102813 -186.26049 -59.266203 -189.5144 -61.404157 -192.10045 C -60.83125 -190.6836 -60.536835 -189.16959 -60.537027 -187.64129 C -60.575787 -181.07411 -65.930869 -175.78172 -72.498054 -175.82031 C -79.065241 -175.85911 -84.357627 -181.21415 -84.319038 -187.78134 C -84.309338 -189.30285 -84.007827 -190.80837 -83.43072 -192.21621 z M -125.91391 -119.73381 C -122.22934 -119.73381 -118.96947 -119.11073 -116.13518 -117.86364 C -113.3009 -116.67324 -111.09023 -114.97237 -109.50303 -112.76163 C -107.91583 -110.60757 -107.1223 -108.11368 -107.1223 -105.27939 C -107.1223 -102.10499 -108.0577 -99.384015 -109.92833 -97.116586 C -111.79896 -94.849156 -114.57658 -93.120223 -118.26115 -91.929822 C -113.61292 -90.909479 -110.35357 -89.237189 -108.48294 -86.913074 C -106.61231 -84.588959 -105.67691 -81.442892 -105.67691 -77.474891 C -105.67691 -74.017061 -106.7256 -71.069506 -108.82297 -68.632019 C -110.86365 -66.194533 -113.52799 -64.380375 -116.81576 -63.189974 C -120.10353 -61.999574 -123.50476 -61.404554 -127.01927 -61.404554 C -132.12099 -61.404554 -136.4571 -62.453243 -140.0283 -64.550615 C -143.54281 -66.647987 -145.30033 -69.510317 -145.30033 -73.138204 C -145.30033 -75.235577 -144.67673 -76.851222 -143.42964 -77.984937 C -142.18256 -79.175337 -140.62355 -79.770358 -138.75292 -79.770358 C -136.82561 -79.770358 -134.8701 -79.005405 -132.8861 -77.474891 C -133.39627 -76.397862 -133.65143 -75.094016 -133.65143 -73.563501 C -133.65143 -71.749558 -133.11305 -70.275781 -132.03602 -69.142066 C -130.90231 -68.008351 -129.23002 -67.441394 -127.01927 -67.441394 C -122.1443 -67.441394 -119.70654 -70.814037 -119.70654 -77.55964 C -119.70654 -81.244213 -120.8971 -84.10706 -123.2779 -86.147746 C -125.60202 -88.188433 -128.91801 -89.208541 -133.22613 -89.208541 L -133.22613 -94.480571 C -124.89333 -95.1608 -120.72715 -98.760535 -120.72715 -105.27939 C -120.72715 -108.56717 -121.23695 -110.97583 -122.25729 -112.50634 C -123.27763 -114.09354 -124.6667 -114.88759 -126.42396 -114.88759 C -128.52133 -114.88759 -130.1084 -114.15071 -131.18543 -112.67688 C -132.20577 -111.20305 -132.71608 -109.41747 -132.71608 -107.3201 C -132.71608 -105.44947 -132.31906 -103.77718 -131.52546 -102.30335 C -133.11266 -100.60278 -135.15339 -99.752084 -137.64757 -99.752084 C -139.91499 -99.752084 -141.67251 -100.43233 -142.9196 -101.79279 C -144.16668 -103.15324 -144.79028 -104.91076 -144.79028 -107.06482 C -144.79028 -109.8991 -143.8263 -112.25164 -141.89899 -114.12227 C -139.91498 -116.04958 -137.47774 -117.46671 -134.58677 -118.37369 C -131.63911 -119.28066 -128.7482 -119.73381 -125.91391 -119.73381 z M -56.785318 -119.64906 C -50.153087 -119.64906 -45.08009 -117.15466 -41.565575 -112.16631 C -37.994374 -107.23465 -36.208796 -100.06428 -36.208796 -90.654448 C -36.208796 -81.244616 -37.994374 -74.017081 -41.565575 -68.97205 C -45.08009 -63.983706 -50.153087 -61.489303 -56.785318 -61.489303 C -63.417549 -61.489303 -68.519642 -63.983706 -72.090843 -68.97205 C -75.662045 -74.017081 -77.447622 -81.244616 -77.447622 -90.654448 C -77.447622 -100.00759 -75.662045 -107.17797 -72.090843 -112.16631 C -68.519642 -117.15466 -63.417549 -119.64906 -56.785318 -119.64906 z M -31.786844 -118.88373 L -27.62069 -118.88373 C -25.466632 -118.82705 -20.761563 -118.79847 -13.505789 -118.79847 C -5.9665861 -118.79847 -1.0635218 -118.82705 1.2039076 -118.88373 L 5.2853122 -118.88373 L 6.9859836 -115.22762 C 5.9089546 -113.52705 3.8682206 -109.84261 0.86387665 -104.17404 C -2.1404673 -98.505463 -4.974734 -92.496548 -7.6389635 -86.147746 C -10.303193 -79.798944 -11.635102 -74.838719 -11.635102 -71.267517 C -11.635102 -68.433231 -10.643057 -66.307789 -8.6590563 -64.890646 C -10.586371 -62.566531 -13.052194 -61.404554 -16.056538 -61.404554 C -18.834139 -61.404554 -20.988161 -62.169506 -22.518675 -63.700021 C -24.04919 -65.230536 -24.814659 -67.356494 -24.814659 -70.077409 C -24.814659 -73.478553 -23.992546 -77.077772 -22.34866 -80.875717 C -20.704774 -84.730347 -17.757219 -89.945728 -13.505789 -96.521273 L -3.4722928 -111.9963 L -22.859223 -111.9963 C -23.652823 -109.44544 -24.134556 -106.44124 -24.304613 -102.98341 C -25.324956 -102.81335 -26.373645 -102.72813 -27.450674 -102.72813 C -28.584389 -102.72813 -29.689722 -102.81335 -30.766751 -102.98341 L -33.147484 -117.60836 L -31.786844 -118.88373 z M -56.785318 -115.31237 C -59.67629 -115.31237 -61.773668 -113.41351 -63.07744 -109.61556 C -64.324526 -105.81762 -64.948127 -99.497422 -64.948127 -90.654448 C -64.948127 -81.868159 -64.324526 -75.576025 -63.07744 -71.778081 C -61.773668 -68.036822 -59.67629 -66.16602 -56.785318 -66.16602 C -53.894345 -66.16602 -51.825548 -68.036822 -50.578461 -71.778081 C -49.274689 -75.576025 -48.622508 -81.868159 -48.622508 -90.654448 C -48.622508 -99.440737 -49.274689 -105.73287 -50.578461 -109.53081 C -51.825548 -113.38544 -53.894345 -115.31237 -56.785318 -115.31237 z M -90.626663 -101.28274 C -88.642662 -101.28274 -87.168885 -100.68772 -86.205227 -99.497319 C -85.184884 -98.363604 -84.675088 -96.776539 -84.675088 -94.735852 C -84.675088 -92.695166 -85.184884 -91.107584 -86.205227 -89.973869 C -87.168885 -88.840154 -88.642662 -88.273198 -90.626663 -88.273198 C -92.610664 -88.273198 -94.113021 -88.840154 -95.133365 -89.973869 C -96.097022 -91.16427 -96.578754 -92.751852 -96.578754 -94.735852 C -96.578754 -96.833225 -96.097022 -98.448354 -95.133365 -99.582068 C -94.113021 -100.71578 -92.610664 -101.28274 -90.626663 -101.28274 z M -90.626663 -74.498845 C -88.642662 -74.498845 -87.168885 -73.903824 -86.205227 -72.713424 C -85.184884 -71.579709 -84.675088 -69.992127 -84.675088 -67.951441 C -84.675088 -65.910754 -85.184884 -64.323689 -86.205227 -63.189974 C -87.168885 -62.05626 -88.642662 -61.489303 -90.626663 -61.489303 C -92.610664 -61.489303 -94.113021 -62.05626 -95.133365 -63.189974 C -96.097022 -64.380375 -96.578754 -65.96744 -96.578754 -67.951441 C -96.578754 -70.048813 -96.097022 -71.664459 -95.133365 -72.798173 C -94.113021 -73.931888 -92.610664 -74.498845 -90.626663 -74.498845 z " /></g></svg>
