<?xml version="1.0" encoding="UTF-8" standalone="no"?>
<!-- Created with Inkscape (http://www.inkscape.org/) -->

<svg
   width="172.6701mm"
   height="172.6701mm"
   viewBox="0 0 172.6701 172.6701"
   version="1.1"
   id="svg1"
   xml:space="preserve"
   xmlns="http://www.w3.org/2000/svg"
   xmlns:svg="http://www.w3.org/2000/svg"><defs
     id="defs1" /><g
     id="layer1"
     transform="translate(157.25102,198.81012)"><path
       id="path5"
       style="fill:#ffffff;fill-opacity:1;stroke-width:0.805188;stroke-linecap:round;stroke-linejoin:round"
       d="M -2.0863309 -198.17657 L -10.088943 -183.11289 L -10.930235 -165.68398 L -19.198981 -165.68398 L -11.423229 -155.47426 L -12.166336 -140.07934 C -28.353216 -157.12094 -50.823548 -166.77435 -74.327399 -166.78417 C -103.64471 -166.77397 -130.92652 -151.79225 -146.66717 -127.05894 L -157.25102 -127.05894 L -149.61996 -115.86014 L -157.25102 -26.140039 L -8.5138455 -26.140039 L 15.419061 -26.140039 L 8.0799737 -154.80195 L 15.419061 -165.68398 L 7.4593397 -165.68398 L 6.4490654 -183.39297 L -2.0863309 -198.17657 z M -83.43072 -192.21621 C -85.584619 -189.65499 -86.77489 -186.4211 -86.795372 -183.07465 C -86.842092 -175.15518 -80.459903 -168.69733 -72.540428 -168.65072 C -64.621155 -168.60402 -58.163395 -174.98588 -58.116503 -182.90515 C -58.102813 -186.26049 -59.266203 -189.5144 -61.404157 -192.10045 C -60.83125 -190.6836 -60.536835 -189.16959 -60.537027 -187.64129 C -60.575787 -181.07411 -65.930869 -175.78172 -72.498054 -175.82031 C -79.065241 -175.85911 -84.357627 -181.21415 -84.319038 -187.78134 C -84.309338 -189.30285 -84.007827 -190.80837 -83.43072 -192.21621 z M -107.56465 -133.25443 C -101.4468 -133.25443 -96.034979 -132.21882 -91.328946 -130.14816 C -86.622912 -128.17163 -82.952077 -125.34807 -80.316698 -121.67736 C -77.681319 -118.10078 -76.363451 -113.95935 -76.363451 -109.25331 C -76.363451 -103.98256 -77.916616 -99.464961 -81.022598 -95.700135 C -84.12858 -91.935308 -88.740603 -89.064791 -94.858446 -87.088257 C -87.140551 -85.394085 -81.728726 -82.61748 -78.622744 -78.758533 C -75.516762 -74.899586 -73.963597 -69.675585 -73.963597 -63.087138 C -73.963597 -57.345778 -75.705103 -52.451502 -79.187568 -48.404314 C -82.575912 -44.357125 -86.999594 -41.345223 -92.458592 -39.368689 C -97.917591 -37.392155 -103.56471 -36.404012 -109.40019 -36.404012 C -117.87105 -36.404012 -125.07134 -38.145518 -131.00094 -41.627983 C -136.83642 -45.110448 -139.7539 -49.863338 -139.7539 -55.887061 C -139.7539 -59.369526 -138.7188 -62.052218 -136.64814 -63.934632 C -134.57749 -65.911166 -131.98922 -66.899309 -128.88324 -66.899309 C -125.68314 -66.899309 -122.43594 -65.628396 -119.14172 -63.087138 C -119.9888 -61.298846 -120.41192 -59.134219 -120.41192 -56.592961 C -120.41192 -53.5811 -119.51821 -51.13422 -117.72992 -49.251807 C -115.8475 -47.369394 -113.0709 -46.428207 -109.40019 -46.428207 C -101.30582 -46.428207 -97.258299 -52.028372 -97.258299 -63.228732 C -97.258299 -69.346575 -99.235102 -74.099466 -103.18817 -77.48781 C -107.04712 -80.876154 -112.55285 -82.570187 -119.70602 -82.570187 L -119.70602 -91.323658 C -105.87029 -92.453106 -98.95277 -98.429436 -98.95277 -109.25331 C -98.95277 -114.71231 -99.799528 -118.71287 -101.4937 -121.25413 C -103.18787 -123.88951 -105.49388 -125.20686 -108.41162 -125.20686 C -111.89409 -125.20686 -114.52983 -123.98342 -116.31812 -121.53628 C -118.01229 -119.08915 -118.85905 -116.1242 -118.85905 -112.64174 C -118.85905 -109.53575 -118.20011 -106.75915 -116.88242 -104.31201 C -119.5178 -101.48839 -122.90639 -100.07661 -127.0477 -100.07661 C -130.81252 -100.07661 -133.73 -101.20614 -135.80065 -103.46504 C -137.8713 -105.72393 -138.90692 -108.64192 -138.90692 -112.21851 C -138.90692 -116.92454 -137.3068 -120.83016 -134.1067 -123.93614 C -130.81247 -127.13624 -126.76547 -129.48921 -121.96532 -130.99514 C -117.07104 -132.50107 -112.27068 -133.25443 -107.56465 -133.25443 z M -54.763219 -132.12478 L -47.704218 -131.98371 C -37.727428 -131.79547 -32.456471 -131.70104 -31.891747 -131.70104 L -11.843875 -131.98371 L -7.7500679 -129.01903 L -9.0202746 -118.28894 L -44.033124 -118.28894 L -46.009748 -94.712081 C -41.115473 -95.93565 -36.691791 -96.547111 -32.738723 -96.547111 C -23.420777 -96.547111 -15.844326 -94.053276 -10.008845 -89.064881 C -4.0792427 -84.170606 -1.1142972 -76.970319 -1.1142972 -67.464132 C -1.1142972 -61.53453 -2.5260776 -56.216617 -5.3496976 -51.510584 C -8.0791969 -46.804551 -12.032285 -43.086759 -17.208922 -40.357259 C -22.385559 -37.721881 -28.503274 -36.404012 -35.562324 -36.404012 C -41.303684 -36.404012 -46.527685 -37.204331 -51.233719 -38.804383 C -55.845631 -40.404434 -59.468994 -42.616017 -62.104373 -45.439637 C -64.739752 -48.357377 -66.05762 -51.604576 -66.05762 -55.181161 C -66.05762 -58.945988 -65.022004 -61.816504 -62.95135 -63.793038 C -60.880695 -65.863693 -58.339904 -66.899309 -55.328042 -66.899309 C -53.63387 -66.899309 -51.93932 -66.569583 -50.245148 -65.910738 C -48.456856 -65.251894 -46.856735 -64.310707 -45.444925 -63.087138 C -46.292011 -61.110604 -46.715648 -59.03989 -46.715648 -56.875114 C -46.715648 -53.769132 -45.821417 -51.228341 -44.033124 -49.251807 C -42.150711 -47.275273 -39.32715 -46.286613 -35.562324 -46.286613 C -27.091464 -46.286613 -22.856123 -53.346032 -22.856123 -67.464132 C -22.856123 -74.146699 -24.173991 -78.993502 -26.80937 -82.005363 C -29.444748 -85.111345 -32.974199 -86.66451 -37.397871 -86.66451 C -40.12737 -86.66451 -43.044843 -86.146961 -46.150825 -85.111634 C -49.256807 -84.076306 -52.316181 -82.61757 -55.328042 -80.735157 L -63.092943 -88.217387 L -59.421849 -128.31313 L -54.763219 -132.12478 z " /></g></svg>
