<?xml version="1.0" encoding="UTF-8" standalone="no"?>
<!-- Created with Inkscape (http://www.inkscape.org/) -->

<svg
   width="172.6701mm"
   height="172.6701mm"
   viewBox="0 0 172.6701 172.6701"
   version="1.1"
   id="svg1"
   xml:space="preserve"
   xmlns="http://www.w3.org/2000/svg"
   xmlns:svg="http://www.w3.org/2000/svg"><defs
     id="defs1" /><g
     id="layer1"
     transform="translate(157.25102,198.81012)"><path
       id="path5"
       style="fill:#ffffff;fill-opacity:1;stroke-width:0.805188;stroke-linecap:round;stroke-linejoin:round"
       d="M -2.0863309 -198.17657 L -10.088943 -183.11289 L -10.930235 -165.68398 L -19.198981 -165.68398 L -11.423229 -155.47426 L -12.166336 -140.07934 C -28.353216 -157.12094 -50.823548 -166.77435 -74.327399 -166.78417 C -103.64471 -166.77397 -130.92652 -151.79225 -146.66717 -127.05894 L -157.25102 -127.05894 L -149.61996 -115.86014 L -157.25102 -26.140039 L -8.5138455 -26.140039 L 15.419061 -26.140039 L 8.0799737 -154.80195 L 15.419061 -165.68398 L 7.4593397 -165.68398 L 6.4490654 -183.39297 L -2.0863309 -198.17657 z M -83.43072 -192.21621 C -85.584619 -189.65499 -86.77489 -186.4211 -86.795372 -183.07465 C -86.842092 -175.15518 -80.459903 -168.69733 -72.540428 -168.65072 C -64.621155 -168.60402 -58.163395 -174.98588 -58.116503 -182.90515 C -58.102813 -186.26049 -59.266203 -189.5144 -61.404157 -192.10045 C -60.83125 -190.6836 -60.536835 -189.16959 -60.537027 -187.64129 C -60.575787 -181.07411 -65.930869 -175.78172 -72.498054 -175.82031 C -79.065241 -175.85911 -84.357627 -181.21415 -84.319038 -187.78134 C -84.309338 -189.30285 -84.007827 -190.80837 -83.43072 -192.21621 z M -58.656005 -119.73381 C -52.817374 -119.73381 -48.168949 -118.28861 -44.711119 -115.39764 C -41.253289 -112.56335 -39.524356 -108.56711 -39.524356 -103.40871 C -39.524356 -98.873849 -41.253289 -94.026912 -44.711119 -88.86851 C -48.168949 -83.766794 -53.866063 -77.616529 -61.802066 -70.41744 L -38.92956 -70.41744 L -38.92956 -62.084615 L -77.447622 -62.084615 L -77.447622 -67.016097 C -71.155506 -73.081471 -66.251925 -78.268272 -62.737409 -82.576388 C -59.222894 -86.884504 -56.700427 -90.852684 -55.169912 -94.480571 C -53.582712 -98.108458 -52.789179 -101.84955 -52.789179 -105.70418 C -52.789179 -111.82623 -54.829913 -114.88759 -58.911286 -114.88759 C -60.72523 -114.88759 -62.199007 -114.0369 -63.332722 -112.33633 C -64.466436 -110.69244 -65.033393 -108.65171 -65.033393 -106.21422 C -65.033393 -104.51365 -64.437856 -102.89852 -63.247456 -101.36801 C -64.211113 -100.46103 -65.316446 -99.752209 -66.563532 -99.242037 C -67.753933 -98.731866 -68.94449 -98.476709 -70.13489 -98.476709 C -72.175577 -98.476709 -73.87593 -99.10031 -75.236388 -100.3474 C -76.596845 -101.65117 -77.27709 -103.52197 -77.27709 -105.95946 C -77.27709 -108.567 -76.512138 -110.91953 -74.981623 -113.01691 C -73.451108 -115.11428 -71.297086 -116.75799 -68.519485 -117.94839 C -65.685198 -119.13879 -62.397263 -119.73381 -58.656005 -119.73381 z M -14.185851 -119.56379 C -7.4402483 -119.56379 -2.2820276 -117.69351 1.2891737 -113.95225 C 4.9170607 -110.21099 6.730702 -104.7971 6.730702 -97.711381 C 6.730702 -88.811721 3.9535961 -81.216258 -1.6016059 -74.924142 C -7.1001222 -68.688711 -15.093126 -64.09693 -25.579987 -61.149272 L -27.62069 -65.400692 C -21.952116 -67.838179 -17.388916 -70.956182 -13.931086 -74.754126 C -10.473256 -78.608756 -8.1773657 -83.086732 -7.043651 -88.188448 C -10.218052 -86.601248 -13.307475 -85.807715 -16.311819 -85.807715 C -21.980393 -85.807715 -26.458369 -87.338137 -29.746141 -90.399166 C -32.977228 -93.460196 -34.592874 -97.598308 -34.592874 -102.8134 C -34.592874 -106.04448 -33.742697 -108.93539 -32.042125 -111.48625 C -30.284867 -114.03711 -27.875689 -116.0212 -24.814659 -117.43834 C -21.696944 -118.85549 -18.153852 -119.56379 -14.185851 -119.56379 z M -138.41289 -119.05375 L -134.16147 -118.969 C -128.15279 -118.85563 -124.97865 -118.79847 -124.63854 -118.79847 L -112.56434 -118.969 L -110.09834 -117.18306 L -110.86367 -110.72092 L -131.95076 -110.72092 L -133.14138 -96.521273 C -130.19372 -97.258188 -127.52939 -97.626632 -125.14859 -97.626632 C -119.5367 -97.626632 -114.9735 -96.124274 -111.45898 -93.11993 C -107.88778 -90.172272 -106.1022 -85.836165 -106.1022 -80.110905 C -106.1022 -76.539704 -106.95238 -73.336993 -108.65295 -70.502706 C -110.29684 -67.66842 -112.67744 -65.429173 -115.79515 -63.785287 C -118.91287 -62.198086 -122.59783 -61.404554 -126.84926 -61.404554 C -130.30709 -61.404554 -133.45315 -61.886286 -136.28744 -62.849943 C -139.06504 -63.813601 -141.24713 -65.14551 -142.83433 -66.846082 C -144.42153 -68.60334 -145.21506 -70.559366 -145.21506 -72.713424 C -145.21506 -74.980853 -144.59198 -76.709787 -143.34489 -77.900188 C -142.09781 -79.147274 -140.56687 -79.770358 -138.75292 -79.770358 C -137.73258 -79.770358 -136.71247 -79.572362 -135.69213 -79.175562 C -134.6151 -78.778762 -133.65112 -78.211805 -132.80083 -77.474891 C -133.311 -76.28449 -133.56616 -75.037289 -133.56616 -73.733517 C -133.56616 -71.862888 -133.02778 -70.332466 -131.95076 -69.142066 C -130.81704 -67.951665 -129.11669 -67.356645 -126.84926 -67.356645 C -121.74754 -67.356645 -119.1965 -71.608045 -119.1965 -80.110905 C -119.1965 -84.135593 -119.99003 -87.054567 -121.57723 -88.86851 C -123.16443 -90.73914 -125.29039 -91.674541 -127.95462 -91.674541 C -129.5985 -91.674541 -131.3555 -91.36274 -133.22613 -90.739197 C -135.09676 -90.115654 -136.93898 -89.236897 -138.75292 -88.103182 L -143.42964 -92.609884 L -141.21892 -116.75776 L -138.41289 -119.05375 z M -14.696414 -113.69697 C -17.1339 -113.69697 -19.004186 -112.76157 -20.307958 -110.89094 C -21.61173 -109.02031 -22.263911 -106.35597 -22.263911 -102.89814 C -22.263911 -99.383629 -21.555086 -96.634587 -20.137942 -94.650586 C -18.664113 -92.723271 -16.595315 -91.759807 -13.931086 -91.759807 C -11.606971 -91.759807 -9.0278605 -92.723271 -6.1935737 -94.650586 L -6.1935737 -95.755945 C -6.1935737 -101.93469 -6.8738184 -106.46931 -8.234276 -109.36028 C -9.5947337 -112.25126 -11.748756 -113.69697 -14.696414 -113.69697 z M -90.711929 -101.28274 C -88.727928 -101.28274 -87.254151 -100.68772 -86.290493 -99.497319 C -85.27015 -98.363604 -84.759838 -96.776539 -84.759838 -94.735852 C -84.759838 -92.695166 -85.27015 -91.107584 -86.290493 -89.973869 C -87.254151 -88.840154 -88.727928 -88.273198 -90.711929 -88.273198 C -92.69593 -88.273198 -94.198287 -88.840154 -95.218631 -89.973869 C -96.182288 -91.16427 -96.66402 -92.751852 -96.66402 -94.735852 C -96.66402 -96.833225 -96.182288 -98.448354 -95.218631 -99.582068 C -94.198287 -100.71578 -92.69593 -101.28274 -90.711929 -101.28274 z M -90.711929 -74.498845 C -88.727928 -74.498845 -87.254151 -73.903824 -86.290493 -72.713424 C -85.27015 -71.579709 -84.759838 -69.992127 -84.759838 -67.951441 C -84.759838 -65.910754 -85.27015 -64.323689 -86.290493 -63.189974 C -87.254151 -62.05626 -88.727928 -61.489303 -90.711929 -61.489303 C -92.69593 -61.489303 -94.198287 -62.05626 -95.218631 -63.189974 C -96.182288 -64.380375 -96.66402 -65.96744 -96.66402 -67.951441 C -96.66402 -70.048813 -96.182288 -71.664459 -95.218631 -72.798173 C -94.198287 -73.931888 -92.69593 -74.498845 -90.711929 -74.498845 z " /></g></svg>
