<?xml version="1.0" encoding="UTF-8" standalone="no"?>
<!-- Created with Inkscape (http://www.inkscape.org/) -->

<svg
   width="172.6701mm"
   height="172.6701mm"
   viewBox="0 0 172.6701 172.6701"
   version="1.1"
   id="svg1"
   xml:space="preserve"
   xmlns="http://www.w3.org/2000/svg"
   xmlns:svg="http://www.w3.org/2000/svg"><defs
     id="defs1" /><g
     id="layer1"
     transform="translate(157.25102,198.81012)"><path
       id="path5"
       style="fill:#ffffff;fill-opacity:1;stroke-width:0.805188;stroke-linecap:round;stroke-linejoin:round"
       d="M -2.0863309 -198.17657 L -10.088943 -183.11289 L -10.930235 -165.68398 L -19.198981 -165.68398 L -11.423229 -155.47426 L -12.166336 -140.07934 C -28.353216 -157.12094 -50.823548 -166.77435 -74.327399 -166.78417 C -103.64471 -166.77397 -130.92652 -151.79225 -146.66717 -127.05894 L -157.25102 -127.05894 L -149.61996 -115.86014 L -157.25102 -26.140039 L -8.5138455 -26.140039 L 15.419061 -26.140039 L 8.0799737 -154.80195 L 15.419061 -165.68398 L 7.4593397 -165.68398 L 6.4490654 -183.39297 L -2.0863309 -198.17657 z M -83.43072 -192.21621 C -85.584619 -189.65499 -86.77489 -186.4211 -86.795372 -183.07465 C -86.842092 -175.15518 -80.459903 -168.69733 -72.540428 -168.65072 C -64.621155 -168.60402 -58.163395 -174.98588 -58.116503 -182.90515 C -58.102813 -186.26049 -59.266203 -189.5144 -61.404157 -192.10045 C -60.83125 -190.6836 -60.536835 -189.16959 -60.537027 -187.64129 C -60.575787 -181.07411 -65.930869 -175.78172 -72.498054 -175.82031 C -79.065241 -175.85911 -84.357627 -181.21415 -84.319038 -187.78134 C -84.309338 -189.30285 -84.007827 -190.80837 -83.43072 -192.21621 z M -125.95629 -119.73381 C -122.27172 -119.73381 -119.01236 -119.11073 -116.17807 -117.86364 C -113.34379 -116.67324 -111.13312 -114.97237 -109.54592 -112.76163 C -107.95872 -110.60757 -107.16467 -108.11368 -107.16467 -105.27939 C -107.16467 -102.10499 -108.10007 -99.384015 -109.9707 -97.116586 C -111.84133 -94.849156 -114.61895 -93.120223 -118.30353 -91.929822 C -113.6553 -90.909479 -110.39594 -89.237189 -108.52531 -86.913074 C -106.65468 -84.588959 -105.71928 -81.442892 -105.71928 -77.474891 C -105.71928 -74.017061 -106.76797 -71.069506 -108.86534 -68.632019 C -110.90603 -66.194533 -113.57036 -64.380375 -116.85814 -63.189974 C -120.14591 -61.999574 -123.54713 -61.404554 -127.06165 -61.404554 C -132.16336 -61.404554 -136.49999 -62.453243 -140.07119 -64.550615 C -143.58571 -66.647987 -145.3427 -69.510317 -145.3427 -73.138204 C -145.3427 -75.235577 -144.7191 -76.851222 -143.47202 -77.984937 C -142.22493 -79.175337 -140.66593 -79.770358 -138.7953 -79.770358 C -136.86798 -79.770358 -134.91247 -79.005405 -132.92847 -77.474891 C -133.43865 -76.397862 -133.6938 -75.094016 -133.6938 -73.563501 C -133.6938 -71.749558 -133.15543 -70.275781 -132.0784 -69.142066 C -130.94468 -68.008351 -129.27239 -67.441394 -127.06165 -67.441394 C -122.18668 -67.441394 -119.74892 -70.814037 -119.74892 -77.55964 C -119.74892 -81.244213 -120.93947 -84.10706 -123.32027 -86.147746 C -125.64439 -88.188433 -128.96039 -89.208541 -133.2685 -89.208541 L -133.2685 -94.480571 C -124.9357 -95.1608 -120.76953 -98.760535 -120.76953 -105.27939 C -120.76953 -108.56717 -121.27984 -110.97583 -122.30018 -112.50634 C -123.32053 -114.09354 -124.70908 -114.88759 -126.46634 -114.88759 C -128.56371 -114.88759 -130.15077 -114.15071 -131.2278 -112.67688 C -132.24815 -111.20305 -132.75846 -109.41747 -132.75846 -107.3201 C -132.75846 -105.44947 -132.36195 -103.77718 -131.56835 -102.30335 C -133.15555 -100.60278 -135.19577 -99.752084 -137.68994 -99.752084 C -139.95737 -99.752084 -141.71488 -100.43233 -142.96197 -101.79279 C -144.20906 -103.15324 -144.83266 -104.91076 -144.83266 -107.06482 C -144.83266 -109.8991 -143.86868 -112.25164 -141.94136 -114.12227 C -139.95736 -116.04958 -137.52012 -117.46671 -134.62915 -118.37369 C -131.68149 -119.28066 -128.79058 -119.73381 -125.95629 -119.73381 z M -14.738789 -119.73381 C -11.054216 -119.73381 -7.7948608 -119.11073 -4.960574 -117.86364 C -2.1262873 -116.67324 0.084378702 -114.97237 1.6715793 -112.76163 C 3.2587799 -110.60757 4.0523125 -108.11368 4.0523125 -105.27939 C 4.0523125 -102.10499 3.1174283 -99.384015 1.246799 -97.116586 C -0.62383025 -94.849156 -3.4014529 -93.120223 -7.0860257 -91.929822 C -2.4377954 -90.909479 0.82155956 -89.237189 2.6921888 -86.913074 C 4.5628181 -84.588959 5.4982191 -81.442892 5.4982191 -77.474891 C 5.4982191 -74.017061 4.4495301 -71.069506 2.3521579 -68.632019 C 0.31147143 -66.194533 -2.3528633 -64.380375 -5.6406359 -63.189974 C -8.9284085 -61.999574 -12.329632 -61.404554 -15.844147 -61.404554 C -20.945864 -61.404554 -25.282488 -62.453243 -28.853689 -64.550615 C -32.368205 -66.647987 -34.125202 -69.510317 -34.125202 -73.138204 C -34.125202 -75.235577 -33.501601 -76.851222 -32.254515 -77.984937 C -31.007429 -79.175337 -29.448944 -79.770358 -27.578315 -79.770358 C -25.651 -79.770358 -23.694974 -79.005405 -21.710973 -77.474891 C -22.221144 -76.397862 -22.476301 -75.094016 -22.476301 -73.563501 C -22.476301 -71.749558 -21.937924 -70.275781 -20.860895 -69.142066 C -19.727181 -68.008351 -18.054891 -67.441394 -15.844147 -67.441394 C -10.969174 -67.441394 -8.5314155 -70.814037 -8.5314155 -77.55964 C -8.5314155 -81.244213 -9.7219729 -84.10706 -12.102774 -86.147746 C -14.426889 -88.188433 -17.742888 -89.208541 -22.051004 -89.208541 L -22.051004 -94.480571 C -13.718201 -95.1608 -9.552025 -98.760535 -9.552025 -105.27939 C -9.552025 -108.56717 -10.062338 -110.97583 -11.082681 -112.50634 C -12.103024 -114.09354 -13.491577 -114.88759 -15.248835 -114.88759 C -17.346207 -114.88759 -18.933272 -114.15071 -20.010301 -112.67688 C -21.030645 -111.20305 -21.540957 -109.41747 -21.540957 -107.3201 C -21.540957 -105.44947 -21.144449 -103.77718 -20.350849 -102.30335 C -21.93805 -100.60278 -23.978784 -99.752084 -26.472956 -99.752084 C -28.740385 -99.752084 -30.497383 -100.43233 -31.744469 -101.79279 C -32.991555 -103.15324 -33.615156 -104.91076 -33.615156 -107.06482 C -33.615156 -109.8991 -32.651691 -112.25164 -30.724376 -114.12227 C -28.740375 -116.04958 -26.302617 -117.46671 -23.411644 -118.37369 C -20.463986 -119.28066 -17.573075 -119.73381 -14.738789 -119.73381 z M -70.347281 -119.05375 L -66.09586 -118.969 C -60.087173 -118.85563 -56.913042 -118.79847 -56.572928 -118.79847 L -44.498729 -118.969 L -42.03273 -117.18306 L -42.798058 -110.72092 L -63.885143 -110.72092 L -65.075768 -96.521273 C -62.128109 -97.258188 -59.463775 -97.626632 -57.082974 -97.626632 C -51.471086 -97.626632 -46.907886 -96.124274 -43.39337 -93.11993 C -39.822169 -90.172272 -38.036591 -85.836165 -38.036591 -80.110905 C -38.036591 -76.539704 -38.886768 -73.336993 -40.58734 -70.502706 C -42.231226 -67.66842 -44.612341 -65.429173 -47.730056 -63.785287 C -50.847772 -62.198086 -54.532215 -61.404554 -58.783645 -61.404554 C -62.241475 -61.404554 -65.387542 -61.886286 -68.221829 -62.849943 C -70.99943 -63.813601 -73.182032 -65.14551 -74.769233 -66.846082 C -76.356433 -68.60334 -77.149966 -70.559366 -77.149966 -72.713424 C -77.149966 -74.980853 -76.526365 -76.709787 -75.279279 -77.900188 C -74.032193 -79.147274 -72.501772 -79.770358 -70.687828 -79.770358 C -69.667485 -79.770358 -68.64686 -79.572362 -67.626516 -79.175562 C -66.549487 -78.778762 -65.586023 -78.211805 -64.735737 -77.474891 C -65.245908 -76.28449 -65.501065 -75.037289 -65.501065 -73.733517 C -65.501065 -71.862888 -64.962172 -70.332466 -63.885143 -69.142066 C -62.751428 -67.951665 -61.051075 -67.356645 -58.783645 -67.356645 C -53.681929 -67.356645 -51.130882 -71.608045 -51.130882 -80.110905 C -51.130882 -84.135593 -51.924415 -87.054567 -53.511616 -88.86851 C -55.098816 -90.73914 -57.224775 -91.674541 -59.889004 -91.674541 C -61.532891 -91.674541 -63.289888 -91.36274 -65.160517 -90.739197 C -67.031146 -90.115654 -68.873885 -89.236897 -70.687828 -88.103182 L -75.364029 -92.609884 L -73.153311 -116.75776 L -70.347281 -119.05375 z M -90.669554 -101.28274 C -88.685554 -101.28274 -87.211776 -100.68772 -86.248119 -99.497319 C -85.227776 -98.363604 -84.717463 -96.776539 -84.717463 -94.735852 C -84.717463 -92.695166 -85.227776 -91.107584 -86.248119 -89.973869 C -87.211776 -88.840154 -88.685554 -88.273198 -90.669554 -88.273198 C -92.653555 -88.273198 -94.155396 -88.840154 -95.175739 -89.973869 C -96.139397 -91.16427 -96.621646 -92.751852 -96.621646 -94.735852 C -96.621646 -96.833225 -96.139397 -98.448354 -95.175739 -99.582068 C -94.155396 -100.71578 -92.653555 -101.28274 -90.669554 -101.28274 z M -90.669554 -74.498845 C -88.685554 -74.498845 -87.211776 -73.903824 -86.248119 -72.713424 C -85.227776 -71.579709 -84.717463 -69.992127 -84.717463 -67.951441 C -84.717463 -65.910754 -85.227776 -64.323689 -86.248119 -63.189974 C -87.211776 -62.05626 -88.685554 -61.489303 -90.669554 -61.489303 C -92.653555 -61.489303 -94.155396 -62.05626 -95.175739 -63.189974 C -96.139397 -64.380375 -96.621646 -65.96744 -96.621646 -67.951441 C -96.621646 -70.048813 -96.139397 -71.664459 -95.175739 -72.798173 C -94.155396 -73.931888 -92.653555 -74.498845 -90.669554 -74.498845 z " /></g></svg>
