<?xml version="1.0" encoding="UTF-8" standalone="no"?>
<!-- Created with Inkscape (http://www.inkscape.org/) -->

<svg
   width="172.6701mm"
   height="172.6701mm"
   viewBox="0 0 172.6701 172.6701"
   version="1.1"
   id="svg1"
   xml:space="preserve"
   xmlns="http://www.w3.org/2000/svg"
   xmlns:svg="http://www.w3.org/2000/svg"><defs
     id="defs1" /><g
     id="layer1"
     transform="translate(157.25102,198.81012)"><path
       id="path5"
       style="fill:#ffffff;fill-opacity:1;stroke-width:0.805188;stroke-linecap:round;stroke-linejoin:round"
       d="M -2.0863309 -198.17657 L -10.088943 -183.11289 L -10.930235 -165.68398 L -19.198981 -165.68398 L -11.423229 -155.47426 L -12.166336 -140.07934 C -28.353216 -157.12094 -50.823548 -166.77435 -74.327399 -166.78417 C -103.64471 -166.77397 -130.92652 -151.79225 -146.66717 -127.05894 L -157.25102 -127.05894 L -149.61996 -115.86014 L -157.25102 -26.140039 L -8.5138455 -26.140039 L 15.419061 -26.140039 L 8.0799737 -154.80195 L 15.419061 -165.68398 L 7.4593397 -165.68398 L 6.4490654 -183.39297 L -2.0863309 -198.17657 z M -83.43072 -192.21621 C -85.584619 -189.65499 -86.77489 -186.4211 -86.795372 -183.07465 C -86.842092 -175.15518 -80.459903 -168.69733 -72.540428 -168.65072 C -64.621155 -168.60402 -58.163395 -174.98588 -58.116503 -182.90515 C -58.102813 -186.26049 -59.266203 -189.5144 -61.404157 -192.10045 C -60.83125 -190.6836 -60.536835 -189.16959 -60.537027 -187.64129 C -60.575787 -181.07411 -65.930869 -175.78172 -72.498054 -175.82031 C -79.065241 -175.85911 -84.357627 -181.21415 -84.319038 -187.78134 C -84.309338 -189.30285 -84.007827 -190.80837 -83.43072 -192.21621 z M -15.758881 -120.07436 C -11.224023 -119.84761 -7.5395792 -118.85557 -4.7052925 -117.09831 L -24.9423 -83.767013 L -11.932758 -83.767013 L -11.082681 -97.626632 C -9.2687374 -97.626632 -7.9648921 -97.995076 -7.1712918 -98.731991 C -6.3210058 -99.468905 -5.6688247 -100.71611 -5.2153388 -102.47336 L -0.36912303 -102.47336 L -0.45387238 -83.341716 C 1.7001856 -82.718173 4.4211642 -82.066508 7.7089369 -81.38628 L 7.2836398 -77.304875 L -0.87916941 -77.304875 L -0.87916941 -62.084615 L -11.932758 -62.084615 L -11.932758 -77.304875 L -36.505935 -77.304875 L -37.186514 -80.36567 L -15.758881 -120.07436 z M -127.48695 -119.73381 C -121.64831 -119.73381 -116.99989 -118.28861 -113.54206 -115.39764 C -110.08423 -112.56335 -108.3553 -108.56711 -108.3553 -103.40871 C -108.3553 -98.873849 -110.08423 -94.026912 -113.54206 -88.86851 C -116.99989 -83.766794 -122.697 -77.616529 -130.63301 -70.41744 L -107.75998 -70.41744 L -107.75998 -62.084615 L -146.27805 -62.084615 L -146.27805 -67.016097 C -139.98593 -73.081471 -135.08287 -78.268272 -131.56835 -82.576388 C -128.05383 -86.884504 -125.53085 -90.852684 -124.00034 -94.480571 C -122.41314 -98.108458 -121.6196 -101.84955 -121.6196 -105.70418 C -121.6196 -111.82623 -123.66034 -114.88759 -127.74171 -114.88759 C -129.55565 -114.88759 -131.02943 -114.0369 -132.16315 -112.33633 C -133.29686 -110.69244 -133.86382 -108.65171 -133.86382 -106.21422 C -133.86382 -104.51365 -133.2688 -102.89852 -132.0784 -101.36801 C -133.04205 -100.46103 -134.14739 -99.752209 -135.39447 -99.242037 C -136.58487 -98.731866 -137.77543 -98.476709 -138.96583 -98.476709 C -141.00652 -98.476709 -142.70687 -99.10031 -144.06733 -100.3474 C -145.42779 -101.65117 -146.10803 -103.52197 -146.10803 -105.95946 C -146.10803 -108.567 -145.34256 -110.91953 -143.81205 -113.01691 C -142.28153 -115.11428 -140.12751 -116.75799 -137.34991 -117.94839 C -134.51562 -119.13879 -131.2282 -119.73381 -127.48695 -119.73381 z M -72.303234 -119.05375 L -68.051813 -118.969 C -62.043126 -118.85563 -58.868478 -118.79847 -58.528364 -118.79847 L -46.454682 -118.969 L -43.988683 -117.18306 L -44.754011 -110.72092 L -65.841096 -110.72092 L -67.031204 -96.521273 C -64.083546 -97.258188 -61.419728 -97.626632 -59.038927 -97.626632 C -53.427039 -97.626632 -48.863839 -96.124274 -45.349323 -93.11993 C -41.778122 -90.172272 -39.992027 -85.836165 -39.992027 -80.110905 C -39.992027 -76.539704 -40.842721 -73.336993 -42.543293 -70.502706 C -44.187179 -67.66842 -46.567777 -65.429173 -49.685493 -63.785287 C -52.803208 -62.198086 -56.487651 -61.404554 -60.739082 -61.404554 C -64.196911 -61.404554 -67.342978 -61.886286 -70.177265 -62.849943 C -72.954866 -63.813601 -75.137469 -65.14551 -76.724669 -66.846082 C -78.31187 -68.60334 -79.105402 -70.559366 -79.105402 -72.713424 C -79.105402 -74.980853 -78.481802 -76.709787 -77.234715 -77.900188 C -75.987629 -79.147274 -74.457208 -79.770358 -72.643264 -79.770358 C -71.622921 -79.770358 -70.602813 -79.572362 -69.582469 -79.175562 C -68.50544 -78.778762 -67.541459 -78.211805 -66.691173 -77.474891 C -67.201345 -76.28449 -67.456501 -75.037289 -67.456501 -73.733517 C -67.456501 -71.862888 -66.918125 -70.332466 -65.841096 -69.142066 C -64.707381 -67.951665 -63.006511 -67.356645 -60.739082 -67.356645 C -55.637365 -67.356645 -53.086835 -71.608045 -53.086835 -80.110905 C -53.086835 -84.135593 -53.880368 -87.054567 -55.467569 -88.86851 C -57.054769 -90.73914 -59.180211 -91.674541 -61.84444 -91.674541 C -63.488327 -91.674541 -65.245841 -91.36274 -67.11647 -90.739197 C -68.987099 -90.115654 -70.829321 -89.236897 -72.643264 -88.103182 L -77.319982 -92.609884 L -75.109264 -116.75776 L -72.303234 -119.05375 z M -92.624991 -101.28274 C -90.64099 -101.28274 -89.167212 -100.68772 -88.203555 -99.497319 C -87.183212 -98.363604 -86.672899 -96.776539 -86.672899 -94.735852 C -86.672899 -92.695166 -87.183212 -91.107584 -88.203555 -89.973869 C -89.167212 -88.840154 -90.64099 -88.273198 -92.624991 -88.273198 C -94.608991 -88.273198 -96.111349 -88.840154 -97.131692 -89.973869 C -98.09535 -91.16427 -98.577082 -92.751852 -98.577082 -94.735852 C -98.577082 -96.833225 -98.09535 -98.448354 -97.131692 -99.582068 C -96.111349 -100.71578 -94.608991 -101.28274 -92.624991 -101.28274 z M -92.624991 -74.498845 C -90.64099 -74.498845 -89.167212 -73.903824 -88.203555 -72.713424 C -87.183212 -71.579709 -86.672899 -69.992127 -86.672899 -67.951441 C -86.672899 -65.910754 -87.183212 -64.323689 -88.203555 -63.189974 C -89.167212 -62.05626 -90.64099 -61.489303 -92.624991 -61.489303 C -94.608991 -61.489303 -96.111349 -62.05626 -97.131692 -63.189974 C -98.09535 -64.380375 -98.577082 -65.96744 -98.577082 -67.951441 C -98.577082 -70.048813 -98.09535 -71.664459 -97.131692 -72.798173 C -96.111349 -73.931888 -94.608991 -74.498845 -92.624991 -74.498845 z " /></g></svg>
