<?xml version="1.0" encoding="UTF-8" standalone="no"?>
<!-- Created with Inkscape (http://www.inkscape.org/) -->

<svg
   width="172.6701mm"
   height="172.6701mm"
   viewBox="0 0 172.6701 172.6701"
   version="1.1"
   id="svg1"
   xml:space="preserve"
   xmlns="http://www.w3.org/2000/svg"
   xmlns:svg="http://www.w3.org/2000/svg"><defs
     id="defs1" /><g
     id="layer1"
     transform="translate(157.25102,198.81012)"><path
       id="path5"
       style="fill:#ffffff;fill-opacity:1;stroke-width:0.805188;stroke-linecap:round;stroke-linejoin:round"
       d="M -2.0863309 -198.17657 L -10.088943 -183.11289 L -10.930235 -165.68398 L -19.198981 -165.68398 L -11.423229 -155.47426 L -12.166336 -140.07934 C -28.353216 -157.12094 -50.823548 -166.77435 -74.327399 -166.78417 C -103.64471 -166.77397 -130.92652 -151.79225 -146.66717 -127.05894 L -157.25102 -127.05894 L -149.61996 -115.86014 L -157.25102 -26.140039 L -8.5138455 -26.140039 L 15.419061 -26.140039 L 8.0799737 -154.80195 L 15.419061 -165.68398 L 7.4593397 -165.68398 L 6.4490654 -183.39297 L -2.0863309 -198.17657 z M -83.43072 -192.21621 C -85.584619 -189.65499 -86.77489 -186.4211 -86.795372 -183.07465 C -86.842092 -175.15518 -80.459903 -168.69733 -72.540428 -168.65072 C -64.621155 -168.60402 -58.163395 -174.98588 -58.116503 -182.90515 C -58.102813 -186.26049 -59.266203 -189.5144 -61.404157 -192.10045 C -60.83125 -190.6836 -60.536835 -189.16959 -60.537027 -187.64129 C -60.575787 -181.07411 -65.930869 -175.78172 -72.498054 -175.82031 C -79.065241 -175.85911 -84.357627 -181.21415 -84.319038 -187.78134 C -84.309338 -189.30285 -84.007827 -190.80837 -83.43072 -192.21621 z M -127.74171 -120.07436 C -123.20685 -119.84761 -119.52241 -118.85557 -116.68812 -117.09831 L -136.92513 -83.767013 L -123.91559 -83.767013 L -123.06499 -97.626632 C -121.25105 -97.626632 -119.94772 -97.995076 -119.15412 -98.731991 C -118.30383 -99.468905 -117.65165 -100.71611 -117.19817 -102.47336 L -112.35144 -102.47336 L -112.4367 -83.341716 C -110.28264 -82.718173 -107.56166 -82.066508 -104.27389 -81.38628 L -104.69919 -77.304875 L -112.862 -77.304875 L -112.862 -62.084615 L -123.91559 -62.084615 L -123.91559 -77.304875 L -148.48876 -77.304875 L -149.16883 -80.36567 L -127.74171 -120.07436 z M -56.912958 -120.07436 C -52.3781 -119.84761 -48.693656 -118.85557 -45.85937 -117.09831 L -66.09586 -83.767013 L -53.086835 -83.767013 L -52.236241 -97.626632 C -50.422298 -97.626632 -49.118452 -97.995076 -48.324852 -98.731991 C -47.474566 -99.468905 -46.822902 -100.71611 -46.369416 -102.47336 L -41.522683 -102.47336 L -41.60795 -83.341716 C -39.453892 -82.718173 -36.732913 -82.066508 -33.44514 -81.38628 L -33.870437 -77.304875 L -42.03273 -77.304875 L -42.03273 -62.084615 L -53.086835 -62.084615 L -53.086835 -77.304875 L -77.660013 -77.304875 L -78.340074 -80.36567 L -56.912958 -120.07436 z M -29.023705 -118.88373 L -24.857034 -118.88373 C -22.702976 -118.82705 -17.998424 -118.79847 -10.74265 -118.79847 C -3.2034473 -118.79847 1.7001338 -118.82705 3.9675632 -118.88373 L 8.0489678 -118.88373 L 9.7496392 -115.22762 C 8.6726102 -113.52705 6.6318762 -109.84261 3.6275322 -104.17404 C 0.62318829 -98.505463 -2.2110784 -92.496548 -4.8753079 -86.147746 C -7.5395375 -79.798944 -8.8719632 -74.838719 -8.8719632 -71.267517 C -8.8719632 -68.433231 -7.8799182 -66.307789 -5.8959175 -64.890646 C -7.8232325 -62.566531 -10.289055 -61.404554 -13.293399 -61.404554 C -16.071 -61.404554 -18.225022 -62.169506 -19.755537 -63.700021 C -21.286051 -65.230536 -22.051004 -67.356494 -22.051004 -70.077409 C -22.051004 -73.478553 -21.229407 -77.077772 -19.585521 -80.875717 C -17.941635 -84.730347 -14.99408 -89.945728 -10.74265 -96.521273 L -0.70915395 -111.9963 L -20.095568 -111.9963 C -20.889168 -109.44544 -21.3709 -106.44124 -21.540957 -102.98341 C -22.561301 -102.81335 -23.60999 -102.72813 -24.687019 -102.72813 C -25.820733 -102.72813 -26.926066 -102.81335 -28.003095 -102.98341 L -30.383828 -117.60836 L -29.023705 -118.88373 z M -89.564195 -101.28274 C -87.580195 -101.28274 -86.105901 -100.68772 -85.142243 -99.497319 C -84.1219 -98.363604 -83.612104 -96.776539 -83.612104 -94.735852 C -83.612104 -92.695166 -84.1219 -91.107584 -85.142243 -89.973869 C -86.105901 -88.840154 -87.580195 -88.273198 -89.564195 -88.273198 C -91.548196 -88.273198 -93.050037 -88.840154 -94.07038 -89.973869 C -95.034038 -91.16427 -95.51577 -92.751852 -95.51577 -94.735852 C -95.51577 -96.833225 -95.034038 -98.448354 -94.07038 -99.582068 C -93.050037 -100.71578 -91.548196 -101.28274 -89.564195 -101.28274 z M -89.564195 -74.498845 C -87.580195 -74.498845 -86.105901 -73.903824 -85.142243 -72.713424 C -84.1219 -71.579709 -83.612104 -69.992127 -83.612104 -67.951441 C -83.612104 -65.910754 -84.1219 -64.323689 -85.142243 -63.189974 C -86.105901 -62.05626 -87.580195 -61.489303 -89.564195 -61.489303 C -91.548196 -61.489303 -93.050037 -62.05626 -94.07038 -63.189974 C -95.034038 -64.380375 -95.51577 -65.96744 -95.51577 -67.951441 C -95.51577 -70.048813 -95.034038 -71.664459 -94.07038 -72.798173 C -93.050037 -73.931888 -91.548196 -74.498845 -89.564195 -74.498845 z " /></g></svg>
