<?xml version="1.0" encoding="UTF-8" standalone="no"?>
<!-- Created with Inkscape (http://www.inkscape.org/) -->

<svg
   width="172.6701mm"
   height="172.6701mm"
   viewBox="0 0 172.6701 172.6701"
   version="1.1"
   id="svg1"
   xml:space="preserve"
   xmlns="http://www.w3.org/2000/svg"
   xmlns:svg="http://www.w3.org/2000/svg"><defs
     id="defs1" /><g
     id="layer1"
     transform="translate(157.25102,198.81012)"><path
       id="path5"
       style="fill:#ffffff;fill-opacity:1;stroke-width:0.805188;stroke-linecap:round;stroke-linejoin:round"
       d="M -2.0863309 -198.17657 L -10.088943 -183.11289 L -10.930235 -165.68398 L -19.198981 -165.68398 L -11.423229 -155.47426 L -12.166336 -140.07934 C -28.353216 -157.12094 -50.823548 -166.77435 -74.327399 -166.78417 C -103.64471 -166.77397 -130.92652 -151.79225 -146.66717 -127.05894 L -157.25102 -127.05894 L -149.61996 -115.86014 L -157.25102 -26.140039 L -8.5138455 -26.140039 L 15.419061 -26.140039 L 8.0799737 -154.80195 L 15.419061 -165.68398 L 7.4593397 -165.68398 L 6.4490654 -183.39297 L -2.0863309 -198.17657 z M -83.43072 -192.21621 C -85.584619 -189.65499 -86.77489 -186.4211 -86.795372 -183.07465 C -86.842092 -175.15518 -80.459903 -168.69733 -72.540428 -168.65072 C -64.621155 -168.60402 -58.163395 -174.98588 -58.116503 -182.90515 C -58.102813 -186.26049 -59.266203 -189.5144 -61.404157 -192.10045 C -60.83125 -190.6836 -60.536835 -189.16959 -60.537027 -187.64129 C -60.575787 -181.07411 -65.930869 -175.78172 -72.498054 -175.82031 C -79.065241 -175.85911 -84.357627 -181.21415 -84.319038 -187.78134 C -84.309338 -189.30285 -84.007827 -190.80837 -83.43072 -192.21621 z M -91.371837 -146.44381 C -80.455142 -146.44381 -71.764237 -143.74165 -65.29901 -138.33629 C -58.833782 -133.03693 -55.600894 -125.56442 -55.600894 -115.91957 C -55.600894 -107.44059 -58.833782 -98.378999 -65.29901 -88.734152 C -71.764237 -79.195291 -82.415938 -67.695357 -97.254165 -54.234965 L -54.4883 -54.234965 L -54.4883 -38.655038 L -126.50664 -38.655038 L -126.50664 -47.875664 C -114.74205 -59.216308 -105.57411 -68.914458 -99.002896 -76.969495 C -92.431681 -85.024532 -87.71503 -92.443345 -84.853372 -99.226534 C -81.885727 -106.00972 -80.401964 -113.00519 -80.401964 -120.21233 C -80.401964 -131.65897 -84.217722 -137.38234 -91.848811 -137.38234 C -95.240405 -137.38234 -97.996259 -135.79223 -100.11601 -132.61261 C -102.23575 -129.53898 -103.29514 -125.72374 -103.29514 -121.16628 C -103.29514 -117.98666 -102.18258 -114.96596 -99.956843 -112.1043 C -101.75863 -110.4085 -103.82526 -109.08375 -106.15698 -108.12987 C -108.38272 -107.17598 -110.60836 -106.69895 -112.83409 -106.69895 C -116.64964 -106.69895 -119.82935 -107.86469 -122.37305 -110.19641 C -124.91674 -112.63412 -126.18883 -116.13185 -126.18883 -120.68931 C -126.18883 -125.56472 -124.75773 -129.96284 -121.89607 -133.88437 C -119.03441 -137.8059 -115.00698 -140.87978 -109.81361 -143.10551 C -104.51424 -145.33124 -98.367001 -146.44381 -91.371837 -146.44381 z M -26.189769 -111.94514 C -22.480212 -111.94514 -19.724358 -110.83257 -17.922574 -108.60684 C -16.014802 -106.48709 -15.060733 -103.51905 -15.060733 -99.703508 C -15.060733 -95.887964 -16.014802 -92.920439 -17.922574 -90.800692 C -19.724358 -88.680945 -22.480212 -87.621041 -26.189769 -87.621041 C -29.899326 -87.621041 -32.707839 -88.680945 -34.615611 -90.800692 C -36.417396 -93.026426 -37.318289 -95.993951 -37.318289 -99.703508 C -37.318289 -103.62504 -36.417396 -106.64574 -34.615611 -108.76549 C -32.707839 -110.88523 -29.899326 -111.94514 -26.189769 -111.94514 z M -26.189769 -61.866024 C -22.480212 -61.866024 -19.724358 -60.753461 -17.922574 -58.527727 C -16.014802 -56.40798 -15.060733 -53.439938 -15.060733 -49.624394 C -15.060733 -45.80885 -16.014802 -42.841325 -17.922574 -40.721578 C -19.724358 -38.601832 -22.480212 -37.541927 -26.189769 -37.541927 C -29.899326 -37.541927 -32.707839 -38.601832 -34.615611 -40.721578 C -36.417396 -42.947312 -37.318289 -45.914837 -37.318289 -49.624394 C -37.318289 -53.545925 -36.417396 -56.566627 -34.615611 -58.686373 C -32.707839 -60.80612 -29.899326 -61.866024 -26.189769 -61.866024 z " /></g></svg>
