<?xml version="1.0" encoding="UTF-8" standalone="no"?>
<!-- Created with Inkscape (http://www.inkscape.org/) -->

<svg
   width="172.6701mm"
   height="172.6701mm"
   viewBox="0 0 172.6701 172.6701"
   version="1.1"
   id="svg1"
   xml:space="preserve"
   xmlns="http://www.w3.org/2000/svg"
   xmlns:svg="http://www.w3.org/2000/svg"><defs
     id="defs1" /><g
     id="layer1"
     transform="translate(157.25102,198.81012)"><path
       id="path5"
       style="fill:#ffffff;fill-opacity:1;stroke-width:0.805188;stroke-linecap:round;stroke-linejoin:round"
       d="M -2.0863309 -198.17657 L -10.088943 -183.11289 L -10.930235 -165.68398 L -19.198981 -165.68398 L -11.423229 -155.47426 L -12.166336 -140.07934 C -28.353216 -157.12094 -50.823548 -166.77435 -74.327399 -166.78417 C -103.64471 -166.77397 -130.92652 -151.79225 -146.66717 -127.05894 L -157.25102 -127.05894 L -149.61996 -115.86014 L -157.25102 -26.140039 L -8.5138455 -26.140039 L 15.419061 -26.140039 L 8.0799737 -154.80195 L 15.419061 -165.68398 L 7.4593397 -165.68398 L 6.4490654 -183.39297 L -2.0863309 -198.17657 z M -83.43072 -192.21621 C -85.584619 -189.65499 -86.77489 -186.4211 -86.795372 -183.07465 C -86.842092 -175.15518 -80.459903 -168.69733 -72.540428 -168.65072 C -64.621155 -168.60402 -58.163395 -174.98588 -58.116503 -182.90515 C -58.102813 -186.26049 -59.266203 -189.5144 -61.404157 -192.10045 C -60.83125 -190.6836 -60.536835 -189.16959 -60.537027 -187.64129 C -60.575787 -181.07411 -65.930869 -175.78172 -72.498054 -175.82031 C -79.065241 -175.85911 -84.357627 -181.21415 -84.319038 -187.78134 C -84.309338 -189.30285 -84.007827 -190.80837 -83.43072 -192.21621 z M -13.63343 -119.73381 C -9.9488569 -119.73381 -6.6895019 -119.11073 -3.8552151 -117.86364 C -1.0209284 -116.67324 1.1897376 -114.97237 2.7769382 -112.76163 C 4.3641388 -110.60757 5.1581882 -108.11368 5.1581882 -105.27939 C 5.1581882 -102.10499 4.2227872 -99.384015 2.3521579 -97.116586 C 0.48152864 -94.849156 -2.296094 -93.120223 -5.9806668 -91.929822 C -1.3324365 -90.909479 1.9269185 -89.237189 3.7975477 -86.913074 C 5.668177 -84.588959 6.603578 -81.442892 6.603578 -77.474891 C 6.603578 -74.017061 5.554889 -71.069506 3.4575168 -68.632019 C 1.4168303 -66.194533 -1.2475044 -64.380375 -4.535277 -63.189974 C -7.8230496 -61.999574 -11.224273 -61.404554 -14.738789 -61.404554 C -19.840505 -61.404554 -24.177129 -62.453243 -27.74833 -64.550615 C -31.262846 -66.647987 -33.019843 -69.510317 -33.019843 -73.138204 C -33.019843 -75.235577 -32.396243 -76.851222 -31.149156 -77.984937 C -29.90207 -79.175337 -28.343069 -79.770358 -26.472439 -79.770358 C -24.545124 -79.770358 -22.589615 -79.005405 -20.605614 -77.474891 C -21.115786 -76.397862 -21.370942 -75.094016 -21.370942 -73.563501 C -21.370942 -71.749558 -20.832566 -70.275781 -19.755537 -69.142066 C -18.621822 -68.008351 -16.949532 -67.441394 -14.738789 -67.441394 C -9.8638153 -67.441394 -7.4260566 -70.814037 -7.4260566 -77.55964 C -7.4260566 -81.244213 -8.616614 -84.10706 -10.997415 -86.147746 C -13.32153 -88.188433 -16.637529 -89.208541 -20.945645 -89.208541 L -20.945645 -94.480571 C -12.612842 -95.1608 -8.4466662 -98.760535 -8.4466662 -105.27939 C -8.4466662 -108.56717 -8.9569789 -110.97583 -9.9773221 -112.50634 C -10.997665 -114.09354 -12.386218 -114.88759 -14.143476 -114.88759 C -16.240848 -114.88759 -17.827914 -114.15071 -18.904943 -112.67688 C -19.925286 -111.20305 -20.435598 -109.41747 -20.435598 -107.3201 C -20.435598 -105.44947 -20.039091 -103.77718 -19.24549 -102.30335 C -20.832691 -100.60278 -22.872908 -99.752084 -25.36708 -99.752084 C -27.63451 -99.752084 -29.392024 -100.43233 -30.63911 -101.79279 C -31.886196 -103.15324 -32.509797 -104.91076 -32.509797 -107.06482 C -32.509797 -109.8991 -31.545815 -112.25164 -29.6185 -114.12227 C -27.6345 -116.04958 -25.197258 -117.46671 -22.306285 -118.37369 C -19.358627 -119.28066 -16.467716 -119.73381 -13.63343 -119.73381 z M -125.36098 -119.56379 C -118.61537 -119.56379 -113.45715 -117.69351 -109.88595 -113.95225 C -106.25807 -110.21099 -104.44391 -104.7971 -104.44391 -97.711381 C -104.44391 -88.811721 -107.22153 -81.216258 -112.77673 -74.924142 C -118.27525 -68.688711 -126.26825 -64.09693 -136.75511 -61.149272 L -138.79582 -65.400692 C -133.12724 -67.838179 -128.56404 -70.956182 -125.10621 -74.754126 C -121.64838 -78.608756 -119.35249 -83.086732 -118.21878 -88.188448 C -121.39318 -86.601248 -124.4826 -85.807715 -127.48695 -85.807715 C -133.15552 -85.807715 -137.63349 -87.338137 -140.92127 -90.399166 C -144.15235 -93.460196 -145.768 -97.598308 -145.768 -102.8134 C -145.768 -106.04448 -144.91782 -108.93539 -143.21725 -111.48625 C -141.45999 -114.03711 -139.05082 -116.0212 -135.98979 -117.43834 C -132.87207 -118.85549 -129.32898 -119.56379 -125.36098 -119.56379 z M -69.241922 -119.05375 L -64.990502 -118.969 C -58.981814 -118.85563 -55.807683 -118.79847 -55.467569 -118.79847 L -43.39337 -118.969 L -40.927371 -117.18306 L -41.692699 -110.72092 L -62.779784 -110.72092 L -63.970409 -96.521273 C -61.022751 -97.258188 -58.358416 -97.626632 -55.977615 -97.626632 C -50.365727 -97.626632 -45.802527 -96.124274 -42.288011 -93.11993 C -38.71681 -90.172272 -36.931232 -85.836165 -36.931232 -80.110905 C -36.931232 -76.539704 -37.781409 -73.336993 -39.481981 -70.502706 C -41.125867 -67.66842 -43.506982 -65.429173 -46.624698 -63.785287 C -49.742413 -62.198086 -53.426856 -61.404554 -57.678286 -61.404554 C -61.136116 -61.404554 -64.282183 -61.886286 -67.11647 -62.849943 C -69.894071 -63.813601 -72.076157 -65.14551 -73.663357 -66.846082 C -75.250558 -68.60334 -76.044607 -70.559366 -76.044607 -72.713424 C -76.044607 -74.980853 -75.421007 -76.709787 -74.17392 -77.900188 C -72.926834 -79.147274 -71.395896 -79.770358 -69.581953 -79.770358 C -68.561609 -79.770358 -67.541501 -79.572362 -66.521158 -79.175562 C -65.444129 -78.778762 -64.480664 -78.211805 -63.630378 -77.474891 C -64.14055 -76.28449 -64.395706 -75.037289 -64.395706 -73.733517 C -64.395706 -71.862888 -63.856813 -70.332466 -62.779784 -69.142066 C -61.646069 -67.951665 -59.945716 -67.356645 -57.678286 -67.356645 C -52.57657 -67.356645 -50.025524 -71.608045 -50.025524 -80.110905 C -50.025524 -84.135593 -50.819056 -87.054567 -52.406257 -88.86851 C -53.993457 -90.73914 -56.119416 -91.674541 -58.783645 -91.674541 C -60.427532 -91.674541 -62.184529 -91.36274 -64.055158 -90.739197 C -65.925787 -90.115654 -67.768009 -89.236897 -69.581953 -88.103182 L -74.25867 -92.609884 L -72.047952 -116.75776 L -69.241922 -119.05375 z M -125.87102 -113.69697 C -128.30851 -113.69697 -130.17931 -112.76157 -131.48308 -110.89094 C -132.78686 -109.02031 -133.43904 -106.35597 -133.43904 -102.89814 C -133.43904 -99.383629 -132.73021 -96.634587 -131.31307 -94.650586 C -129.83924 -92.723271 -127.77044 -91.759807 -125.10621 -91.759807 C -122.7821 -91.759807 -120.20247 -92.723271 -117.36818 -94.650586 L -117.36818 -95.755945 C -117.36818 -101.93469 -118.04843 -106.46931 -119.40889 -109.36028 C -120.76934 -112.25126 -122.92337 -113.69697 -125.87102 -113.69697 z M -89.564195 -101.28274 C -87.580195 -101.28274 -86.105901 -100.68772 -85.142243 -99.497319 C -84.1219 -98.363604 -83.612104 -96.776539 -83.612104 -94.735852 C -83.612104 -92.695166 -84.1219 -91.107584 -85.142243 -89.973869 C -86.105901 -88.840154 -87.580195 -88.273198 -89.564195 -88.273198 C -91.548196 -88.273198 -93.050037 -88.840154 -94.07038 -89.973869 C -95.034038 -91.16427 -95.51577 -92.751852 -95.51577 -94.735852 C -95.51577 -96.833225 -95.034038 -98.448354 -94.07038 -99.582068 C -93.050037 -100.71578 -91.548196 -101.28274 -89.564195 -101.28274 z M -89.564195 -74.498845 C -87.580195 -74.498845 -86.105901 -73.903824 -85.142243 -72.713424 C -84.1219 -71.579709 -83.612104 -69.992127 -83.612104 -67.951441 C -83.612104 -65.910754 -84.1219 -64.323689 -85.142243 -63.189974 C -86.105901 -62.05626 -87.580195 -61.489303 -89.564195 -61.489303 C -91.548196 -61.489303 -93.050037 -62.05626 -94.07038 -63.189974 C -95.034038 -64.380375 -95.51577 -65.96744 -95.51577 -67.951441 C -95.51577 -70.048813 -95.034038 -71.664459 -94.07038 -72.798173 C -93.050037 -73.931888 -91.548196 -74.498845 -89.564195 -74.498845 z " /></g></svg>
