<?xml version="1.0" encoding="UTF-8" standalone="no"?>
<!-- Created with Inkscape (http://www.inkscape.org/) -->

<svg
   width="172.6701mm"
   height="172.6701mm"
   viewBox="0 0 172.6701 172.6701"
   version="1.1"
   id="svg1"
   xml:space="preserve"
   xmlns="http://www.w3.org/2000/svg"
   xmlns:svg="http://www.w3.org/2000/svg"><defs
     id="defs1" /><g
     id="layer1"
     transform="translate(157.25102,198.81012)"><path
       id="path5"
       style="fill:#ffffff;fill-opacity:1;stroke-width:0.805188;stroke-linecap:round;stroke-linejoin:round"
       d="M -2.0863309 -198.17657 L -10.088943 -183.11289 L -10.930235 -165.68398 L -19.198981 -165.68398 L -11.423229 -155.47426 L -12.166336 -140.07934 C -28.353216 -157.12094 -50.823548 -166.77435 -74.327399 -166.78417 C -103.64471 -166.77397 -130.92652 -151.79225 -146.66717 -127.05894 L -157.25102 -127.05894 L -149.61996 -115.86014 L -157.25102 -26.140039 L -8.5138455 -26.140039 L 15.419061 -26.140039 L 8.0799737 -154.80195 L 15.419061 -165.68398 L 7.4593397 -165.68398 L 6.4490654 -183.39297 L -2.0863309 -198.17657 z M -83.43072 -192.21621 C -85.584619 -189.65499 -86.77489 -186.4211 -86.795372 -183.07465 C -86.842092 -175.15518 -80.459903 -168.69733 -72.540428 -168.65072 C -64.621155 -168.60402 -58.163395 -174.98588 -58.116503 -182.90515 C -58.102813 -186.26049 -59.266203 -189.5144 -61.404157 -192.10045 C -60.83125 -190.6836 -60.536835 -189.16959 -60.537027 -187.64129 C -60.575787 -181.07411 -65.930869 -175.78172 -72.498054 -175.82031 C -79.065241 -175.85911 -84.357627 -181.21415 -84.319038 -187.78134 C -84.309338 -189.30285 -84.007827 -190.80837 -83.43072 -192.21621 z M -130.37772 -120.07436 C -125.84287 -119.84761 -122.15842 -118.85557 -119.32414 -117.09831 L -139.56063 -83.767013 L -126.5516 -83.767013 L -125.70101 -97.626632 C -123.88706 -97.626632 -122.58322 -97.995076 -121.78962 -98.731991 C -120.93933 -99.468905 -120.28767 -100.71611 -119.83418 -102.47336 L -114.98745 -102.47336 L -115.07272 -83.341716 C -112.91866 -82.718173 -110.19768 -82.066508 -106.90991 -81.38628 L -107.33469 -77.304875 L -115.4975 -77.304875 L -115.4975 -62.084615 L -126.5516 -62.084615 L -126.5516 -77.304875 L -151.12478 -77.304875 L -151.80484 -80.36567 L -130.37772 -120.07436 z M -59.548973 -120.07436 C -55.014114 -119.84761 -51.329154 -118.85557 -48.494868 -117.09831 L -68.731875 -83.767013 L -55.722333 -83.767013 L -54.872256 -97.626632 C -53.058313 -97.626632 -51.754467 -97.995076 -50.960867 -98.731991 C -50.110581 -99.468905 -49.458917 -100.71611 -49.005431 -102.47336 L -44.158698 -102.47336 L -44.243448 -83.341716 C -42.08939 -82.718173 -39.368928 -82.066508 -36.081155 -81.38628 L -36.505935 -77.304875 L -44.668745 -77.304875 L -44.668745 -62.084615 L -55.722333 -62.084615 L -55.722333 -77.304875 L -80.296027 -77.304875 L -80.976089 -80.36567 L -59.548973 -120.07436 z M -10.657384 -119.81908 C -4.7053818 -119.81908 0.027750559 -118.54381 3.5422661 -115.99295 C 7.0567817 -113.44209 8.8142958 -110.01229 8.8142958 -105.70418 C 8.8142958 -103.38006 7.9636023 -101.05611 6.2630303 -98.731991 C 4.5624582 -96.407876 2.3237286 -94.50901 -0.45387238 -93.035181 C 3.0606432 -91.334609 5.8096855 -89.350519 7.7936862 -87.08309 C 9.8343727 -84.81566 10.854998 -81.896169 10.854998 -78.324968 C 10.854998 -73.166566 8.984196 -69.057034 5.2429375 -65.996005 C 1.501679 -62.991661 -3.5432536 -61.489303 -9.892056 -61.489303 C -16.864401 -61.489303 -22.249715 -62.878373 -26.047659 -65.655974 C -29.788918 -68.433575 -31.65972 -72.401238 -31.65972 -77.55964 C -31.65972 -80.223869 -30.809026 -82.86014 -29.108454 -85.467684 C -27.407882 -88.131914 -25.027284 -90.483931 -21.966254 -92.524618 C -24.517112 -93.941761 -26.501202 -95.642631 -27.918346 -97.626632 C -29.335489 -99.610633 -30.043798 -102.07646 -30.043798 -105.02411 C -30.043798 -109.55897 -28.2868 -113.15871 -24.772285 -115.82294 C -21.257769 -118.48717 -16.5527 -119.81908 -10.657384 -119.81908 z M -10.657384 -113.78224 C -12.924813 -113.78224 -14.710391 -113.04535 -16.014163 -111.57152 C -17.317935 -110.15437 -17.970116 -108.22693 -17.970116 -105.78944 C -17.970116 -103.63538 -17.148003 -101.84981 -15.504117 -100.43266 C -13.803544 -99.072205 -11.337722 -97.711715 -8.1066352 -96.351258 C -6.6894919 -97.314915 -5.5555785 -98.646824 -4.7052925 -100.3474 C -3.8550064 -102.04797 -3.4299181 -103.86213 -3.4299181 -105.78944 C -3.4299181 -108.22693 -4.1101628 -110.15437 -5.4706204 -111.57152 C -6.7743923 -113.04535 -8.503326 -113.78224 -10.657384 -113.78224 z M -92.199694 -101.28274 C -90.215693 -101.28274 -88.741915 -100.68772 -87.778258 -99.497319 C -86.757915 -98.363604 -86.248119 -96.776539 -86.248119 -94.735852 C -86.248119 -92.695166 -86.757915 -91.107584 -87.778258 -89.973869 C -88.741915 -88.840154 -90.215693 -88.273198 -92.199694 -88.273198 C -94.183694 -88.273198 -95.686052 -88.840154 -96.706395 -89.973869 C -97.670053 -91.16427 -98.151785 -92.751852 -98.151785 -94.735852 C -98.151785 -96.833225 -97.670053 -98.448354 -96.706395 -99.582068 C -95.686052 -100.71578 -94.183694 -101.28274 -92.199694 -101.28274 z M -14.143476 -89.038526 C -15.844048 -87.678068 -17.091249 -86.119583 -17.88485 -84.362325 C -18.67845 -82.605068 -19.075475 -80.50769 -19.075475 -78.070203 C -19.075475 -74.725745 -18.253362 -72.089474 -16.609475 -70.162159 C -14.965589 -68.291529 -12.726343 -67.356645 -9.892056 -67.356645 C -7.114455 -67.356645 -4.960433 -68.291529 -3.4299181 -70.162159 C -1.8427175 -72.032788 -1.0491849 -74.640479 -1.0491849 -77.984937 C -1.0491849 -79.855566 -1.6442052 -81.442631 -2.8346056 -82.746403 C -3.9683203 -84.106861 -5.414034 -85.212194 -7.1712918 -86.06248 C -8.9285496 -86.969452 -11.252504 -87.961497 -14.143476 -89.038526 z M -92.199694 -74.498845 C -90.215693 -74.498845 -88.741915 -73.903824 -87.778258 -72.713424 C -86.757915 -71.579709 -86.248119 -69.992127 -86.248119 -67.951441 C -86.248119 -65.910754 -86.757915 -64.323689 -87.778258 -63.189974 C -88.741915 -62.05626 -90.215693 -61.489303 -92.199694 -61.489303 C -94.183694 -61.489303 -95.686052 -62.05626 -96.706395 -63.189974 C -97.670053 -64.380375 -98.151785 -65.96744 -98.151785 -67.951441 C -98.151785 -70.048813 -97.670053 -71.664459 -96.706395 -72.798173 C -95.686052 -73.931888 -94.183694 -74.498845 -92.199694 -74.498845 z " /></g></svg>
