<?xml version="1.0" encoding="UTF-8" standalone="no"?>
<!-- Created with Inkscape (http://www.inkscape.org/) -->

<svg
   width="172.6701mm"
   height="172.6701mm"
   viewBox="0 0 172.6701 172.6701"
   version="1.1"
   id="svg1"
   xml:space="preserve"
   xmlns="http://www.w3.org/2000/svg"
   xmlns:svg="http://www.w3.org/2000/svg"><defs
     id="defs1" /><g
     id="layer1"
     transform="translate(157.25102,198.81012)"><path
       id="path5"
       style="fill:#ffffff;fill-opacity:1;stroke-width:0.805188;stroke-linecap:round;stroke-linejoin:round"
       d="M -2.0863309 -198.17657 L -10.088943 -183.11289 L -10.930235 -165.68398 L -19.198981 -165.68398 L -11.423229 -155.47426 L -12.166336 -140.07934 C -28.353216 -157.12094 -50.823548 -166.77435 -74.327399 -166.78417 C -103.64471 -166.77397 -130.92652 -151.79225 -146.66717 -127.05894 L -157.25102 -127.05894 L -149.61996 -115.86014 L -157.25102 -26.140039 L -8.5138455 -26.140039 L 15.419061 -26.140039 L 8.0799737 -154.80195 L 15.419061 -165.68398 L 7.4593397 -165.68398 L 6.4490654 -183.39297 L -2.0863309 -198.17657 z M -83.43072 -192.21621 C -85.584619 -189.65499 -86.77489 -186.4211 -86.795372 -183.07465 C -86.842092 -175.15518 -80.459903 -168.69733 -72.540428 -168.65072 C -64.621155 -168.60402 -58.163395 -174.98588 -58.116503 -182.90515 C -58.102813 -186.26049 -59.266203 -189.5144 -61.404157 -192.10045 C -60.83125 -190.6836 -60.536835 -189.16959 -60.537027 -187.64129 C -60.575787 -181.07411 -65.930869 -175.78172 -72.498054 -175.82031 C -79.065241 -175.85911 -84.357627 -181.21415 -84.319038 -187.78134 C -84.309338 -189.30285 -84.007827 -190.80837 -83.43072 -192.21621 z M -25.820799 -132.26586 L -21.162169 -130.14816 L -21.162169 -48.545907 C -19.373876 -47.51058 -16.549799 -46.569393 -12.690852 -45.722307 C -8.8319042 -44.969341 -5.7730467 -44.498748 -3.5141507 -44.310507 L -3.9378974 -37.533659 L -61.539549 -37.533659 L -61.257396 -44.310507 C -52.880657 -45.251713 -46.480172 -46.663494 -42.056501 -48.545907 L -42.056501 -116.17124 L -60.974726 -116.17124 L -60.974726 -124.35988 C -54.951003 -124.83049 -48.739376 -125.72472 -42.339171 -127.04241 C -35.938966 -128.45422 -30.432712 -130.19521 -25.820799 -132.26586 z M -122.95337 -132.12478 L -115.89437 -131.98371 C -105.91758 -131.79547 -100.64714 -131.70104 -100.08242 -131.70104 L -80.034545 -131.98371 L -75.940221 -129.01903 L -77.210944 -118.28894 L -112.22379 -118.28894 L -114.20042 -94.712081 C -109.30614 -95.93565 -104.88246 -96.547111 -100.92939 -96.547111 C -91.611447 -96.547111 -84.034479 -94.053276 -78.198998 -89.064881 C -72.269396 -84.170606 -69.304967 -76.970319 -69.304967 -67.464132 C -69.304967 -61.53453 -70.716747 -56.216617 -73.540367 -51.510584 C -76.269867 -46.804551 -80.222955 -43.086759 -85.399592 -40.357259 C -90.576228 -37.721881 -96.693943 -36.404012 -103.75299 -36.404012 C -109.49435 -36.404012 -114.71784 -37.204331 -119.42387 -38.804383 C -124.03578 -40.404434 -127.65966 -42.616017 -130.29504 -45.439637 C -132.93042 -48.357377 -134.24777 -51.604576 -134.24777 -55.181161 C -134.24777 -58.945988 -133.21267 -61.816504 -131.14202 -63.793038 C -129.07136 -65.863693 -126.53006 -66.899309 -123.5182 -66.899309 C -121.82402 -66.899309 -120.12999 -66.569583 -118.43582 -65.910738 C -116.64753 -65.251894 -115.0474 -64.310707 -113.63559 -63.087138 C -114.48268 -61.110604 -114.90632 -59.03989 -114.90632 -56.875114 C -114.90632 -53.769132 -114.01209 -51.228341 -112.22379 -49.251807 C -110.34138 -47.275273 -107.51782 -46.286613 -103.75299 -46.286613 C -95.282133 -46.286613 -91.046792 -53.346032 -91.046792 -67.464132 C -91.046792 -74.146699 -92.364144 -78.993502 -94.999523 -82.005363 C -97.634901 -85.111345 -101.16435 -86.66451 -105.58802 -86.66451 C -108.31752 -86.66451 -111.23551 -86.146961 -114.34149 -85.111634 C -117.44748 -84.076306 -120.50633 -82.61757 -123.5182 -80.735157 L -131.2831 -88.217387 L -127.61252 -128.31313 L -122.95337 -132.12478 z " /></g></svg>
