<?xml version="1.0" encoding="UTF-8" standalone="no"?>
<!-- Created with Inkscape (http://www.inkscape.org/) -->

<svg
   width="172.6701mm"
   height="172.6701mm"
   viewBox="0 0 172.6701 172.6701"
   version="1.1"
   id="svg1"
   xml:space="preserve"
   xmlns="http://www.w3.org/2000/svg"
   xmlns:svg="http://www.w3.org/2000/svg"><defs
     id="defs1" /><g
     id="layer1"
     transform="translate(157.25102,198.81012)"><path
       id="path5"
       style="fill:#ffffff;fill-opacity:1;stroke-width:0.805188;stroke-linecap:round;stroke-linejoin:round"
       d="M -2.0863309 -198.17657 L -10.088943 -183.11289 L -10.930235 -165.68398 L -19.198981 -165.68398 L -11.423229 -155.47426 L -12.166336 -140.07934 C -28.353216 -157.12094 -50.823548 -166.77435 -74.327399 -166.78417 C -103.64471 -166.77397 -130.92652 -151.79225 -146.66717 -127.05894 L -157.25102 -127.05894 L -149.61996 -115.86014 L -157.25102 -26.140039 L -8.5138455 -26.140039 L 15.419061 -26.140039 L 8.0799737 -154.80195 L 15.419061 -165.68398 L 7.4593397 -165.68398 L 6.4490654 -183.39297 L -2.0863309 -198.17657 z M -83.43072 -192.21621 C -85.584619 -189.65499 -86.77489 -186.4211 -86.795372 -183.07465 C -86.842092 -175.15518 -80.459903 -168.69733 -72.540428 -168.65072 C -64.621155 -168.60402 -58.163395 -174.98588 -58.116503 -182.90515 C -58.102813 -186.26049 -59.266203 -189.5144 -61.404157 -192.10045 C -60.83125 -190.6836 -60.536835 -189.16959 -60.537027 -187.64129 C -60.575787 -181.07411 -65.930869 -175.78172 -72.498054 -175.82031 C -79.065241 -175.85911 -84.357627 -181.21415 -84.319038 -187.78134 C -84.309338 -189.30285 -84.007827 -190.80837 -83.43072 -192.21621 z M -58.868395 -120.07436 C -54.333536 -119.84761 -50.649093 -118.85557 -47.814806 -117.09831 L -68.051813 -83.767013 L -55.042272 -83.767013 L -54.192194 -97.626632 C -52.378251 -97.626632 -51.074405 -97.995076 -50.280805 -98.731991 C -49.430519 -99.468905 -48.778338 -100.71611 -48.324852 -102.47336 L -43.478636 -102.47336 L -43.563386 -83.341716 C -41.409328 -82.718173 -38.688349 -82.066508 -35.400576 -81.38628 L -35.825874 -77.304875 L -43.988683 -77.304875 L -43.988683 -62.084615 L -55.042272 -62.084615 L -55.042272 -77.304875 L -79.615449 -77.304875 L -80.296027 -80.36567 L -58.868395 -120.07436 z M -12.442805 -119.73381 C -6.604174 -119.73381 -1.956266 -118.28861 1.5015638 -115.39764 C 4.9593937 -112.56335 6.6883273 -108.56711 6.6883273 -103.40871 C 6.6883273 -98.873849 4.9593937 -94.026912 1.5015638 -88.86851 C -1.956266 -83.766794 -7.652863 -77.616529 -15.588866 -70.41744 L 7.2836398 -70.41744 L 7.2836398 -62.084615 L -31.234423 -62.084615 L -31.234423 -67.016097 C -24.942306 -73.081471 -20.038725 -78.268272 -16.524209 -82.576388 C -13.009694 -86.884504 -10.487227 -90.852684 -8.9567125 -94.480571 C -7.369512 -98.108458 -6.5759793 -101.84955 -6.5759793 -105.70418 C -6.5759793 -111.82623 -8.6167133 -114.88759 -12.698086 -114.88759 C -14.51203 -114.88759 -15.985807 -114.0369 -17.119522 -112.33633 C -18.253236 -110.69244 -18.820193 -108.65171 -18.820193 -106.21422 C -18.820193 -104.51365 -18.225173 -102.89852 -17.034772 -101.36801 C -17.99843 -100.46103 -19.103763 -99.752209 -20.350849 -99.242037 C -21.54125 -98.731866 -22.73129 -98.476709 -23.921691 -98.476709 C -25.962377 -98.476709 -27.663247 -99.10031 -29.023705 -100.3474 C -30.384162 -101.65117 -31.064407 -103.52197 -31.064407 -105.95946 C -31.064407 -108.567 -30.298938 -110.91953 -28.768423 -113.01691 C -27.237908 -115.11428 -25.083886 -116.75799 -22.306285 -117.94839 C -19.471999 -119.13879 -16.184063 -119.73381 -12.442805 -119.73381 z M -139.2206 -119.05375 L -134.96918 -118.969 C -128.96049 -118.85563 -125.78636 -118.79847 -125.44624 -118.79847 L -113.37204 -118.969 L -110.90605 -117.18306 L -111.67137 -110.72092 L -132.75846 -110.72092 L -133.94908 -96.521273 C -131.00142 -97.258188 -128.33709 -97.626632 -125.95629 -97.626632 C -120.3444 -97.626632 -115.7812 -96.124274 -112.26669 -93.11993 C -108.69548 -90.172272 -106.90991 -85.836165 -106.90991 -80.110905 C -106.90991 -76.539704 -107.76008 -73.336993 -109.46066 -70.502706 C -111.10454 -67.66842 -113.48514 -65.429173 -116.60286 -63.785287 C -119.72057 -62.198086 -123.40553 -61.404554 -127.65696 -61.404554 C -131.11479 -61.404554 -134.26086 -61.886286 -137.09514 -62.849943 C -139.87275 -63.813601 -142.05483 -65.14551 -143.64203 -66.846082 C -145.22923 -68.60334 -146.02276 -70.559366 -146.02276 -72.713424 C -146.02276 -74.980853 -145.39968 -76.709787 -144.15259 -77.900188 C -142.90551 -79.147274 -141.37457 -79.770358 -139.56063 -79.770358 C -138.54028 -79.770358 -137.52018 -79.572362 -136.49983 -79.175562 C -135.4228 -78.778762 -134.45934 -78.211805 -133.60905 -77.474891 C -134.11922 -76.28449 -134.37386 -75.037289 -134.37386 -73.733517 C -134.37386 -71.862888 -133.83549 -70.332466 -132.75846 -69.142066 C -131.62474 -67.951665 -129.92439 -67.356645 -127.65696 -67.356645 C -122.55524 -67.356645 -120.0042 -71.608045 -120.0042 -80.110905 C -120.0042 -84.135593 -120.79773 -87.054567 -122.38493 -88.86851 C -123.97213 -90.73914 -126.09809 -91.674541 -128.76232 -91.674541 C -130.40621 -91.674541 -132.1632 -91.36274 -134.03383 -90.739197 C -135.90446 -90.115654 -137.74668 -89.236897 -139.56063 -88.103182 L -144.23734 -92.609884 L -142.02663 -116.75776 L -139.2206 -119.05375 z M -91.519632 -101.28274 C -89.535631 -101.28274 -88.061854 -100.68772 -87.098196 -99.497319 C -86.077853 -98.363604 -85.56754 -96.776539 -85.56754 -94.735852 C -85.56754 -92.695166 -86.077853 -91.107584 -87.098196 -89.973869 C -88.061854 -88.840154 -89.535631 -88.273198 -91.519632 -88.273198 C -93.503632 -88.273198 -95.00599 -88.840154 -96.026333 -89.973869 C -96.989991 -91.16427 -97.471723 -92.751852 -97.471723 -94.735852 C -97.471723 -96.833225 -96.989991 -98.448354 -96.026333 -99.582068 C -95.00599 -100.71578 -93.503632 -101.28274 -91.519632 -101.28274 z M -91.519632 -74.498845 C -89.535631 -74.498845 -88.061854 -73.903824 -87.098196 -72.713424 C -86.077853 -71.579709 -85.56754 -69.992127 -85.56754 -67.951441 C -85.56754 -65.910754 -86.077853 -64.323689 -87.098196 -63.189974 C -88.061854 -62.05626 -89.535631 -61.489303 -91.519632 -61.489303 C -93.503632 -61.489303 -95.00599 -62.05626 -96.026333 -63.189974 C -96.989991 -64.380375 -97.471723 -65.96744 -97.471723 -67.951441 C -97.471723 -70.048813 -96.989991 -71.664459 -96.026333 -72.798173 C -95.00599 -73.931888 -93.503632 -74.498845 -91.519632 -74.498845 z " /></g></svg>
