<?xml version="1.0" encoding="UTF-8" standalone="no"?>
<!-- Created with Inkscape (http://www.inkscape.org/) -->

<svg
   width="172.6701mm"
   height="172.6701mm"
   viewBox="0 0 172.6701 172.6701"
   version="1.1"
   id="svg1"
   xml:space="preserve"
   xmlns="http://www.w3.org/2000/svg"
   xmlns:svg="http://www.w3.org/2000/svg"><defs
     id="defs1" /><g
     id="layer1"
     transform="translate(157.25102,198.81012)"><path
       id="path5"
       style="fill:#ffffff;fill-opacity:1;stroke-width:0.805188;stroke-linecap:round;stroke-linejoin:round"
       d="M -2.0863309 -198.17657 L -10.088943 -183.11289 L -10.930235 -165.68398 L -19.198981 -165.68398 L -11.423229 -155.47426 L -12.166336 -140.07934 C -28.353216 -157.12094 -50.823548 -166.77435 -74.327399 -166.78417 C -103.64471 -166.77397 -130.92652 -151.79225 -146.66717 -127.05894 L -157.25102 -127.05894 L -149.61996 -115.86014 L -157.25102 -26.140039 L -8.5138455 -26.140039 L 15.419061 -26.140039 L 8.0799737 -154.80195 L 15.419061 -165.68398 L 7.4593397 -165.68398 L 6.4490654 -183.39297 L -2.0863309 -198.17657 z M -83.43072 -192.21621 C -85.584619 -189.65499 -86.77489 -186.4211 -86.795372 -183.07465 C -86.842092 -175.15518 -80.459903 -168.69733 -72.540428 -168.65072 C -64.621155 -168.60402 -58.163395 -174.98588 -58.116503 -182.90515 C -58.102813 -186.26049 -59.266203 -189.5144 -61.404157 -192.10045 C -60.83125 -190.6836 -60.536835 -189.16959 -60.537027 -187.64129 C -60.575787 -181.07411 -65.930869 -175.78172 -72.498054 -175.82031 C -79.065241 -175.85911 -84.357627 -181.21415 -84.319038 -187.78134 C -84.309338 -189.30285 -84.007827 -190.80837 -83.43072 -192.21621 z M -58.400723 -119.73381 C -54.71615 -119.73381 -51.456795 -119.11073 -48.622508 -117.86364 C -45.788222 -116.67324 -43.577556 -114.97237 -41.990355 -112.76163 C -40.403155 -110.60757 -39.609622 -108.11368 -39.609622 -105.27939 C -39.609622 -102.10499 -40.545023 -99.384015 -42.415652 -97.116586 C -44.286281 -94.849156 -47.063904 -93.120223 -50.748477 -91.929822 C -46.100247 -90.909479 -42.840892 -89.237189 -40.970262 -86.913074 C -39.099633 -84.588959 -38.164232 -81.442892 -38.164232 -77.474891 C -38.164232 -74.017061 -39.212921 -71.069506 -41.310293 -68.632019 C -43.35098 -66.194533 -46.015314 -64.380375 -49.303087 -63.189974 C -52.59086 -61.999574 -55.991566 -61.404554 -59.506082 -61.404554 C -64.607798 -61.404554 -68.944422 -62.453243 -72.515624 -64.550615 C -76.030139 -66.647987 -77.787653 -69.510317 -77.787653 -73.138204 C -77.787653 -75.235577 -77.164053 -76.851222 -75.916966 -77.984937 C -74.66988 -79.175337 -73.110879 -79.770358 -71.240249 -79.770358 C -69.312934 -79.770358 -67.357425 -79.005405 -65.373424 -77.474891 C -65.883596 -76.397862 -66.138752 -75.094016 -66.138752 -73.563501 C -66.138752 -71.749558 -65.599859 -70.275781 -64.52283 -69.142066 C -63.389115 -68.008351 -61.716826 -67.441394 -59.506082 -67.441394 C -54.631109 -67.441394 -52.193867 -70.814037 -52.193867 -77.55964 C -52.193867 -81.244213 -53.384424 -84.10706 -55.765225 -86.147746 C -58.08934 -88.188433 -61.405339 -89.208541 -65.713455 -89.208541 L -65.713455 -94.480571 C -57.380652 -95.1608 -53.213959 -98.760535 -53.213959 -105.27939 C -53.213959 -108.56717 -53.724272 -110.97583 -54.744615 -112.50634 C -55.764959 -114.09354 -57.154028 -114.88759 -58.911286 -114.88759 C -61.008658 -114.88759 -62.595724 -114.15071 -63.672753 -112.67688 C -64.693096 -111.20305 -65.203409 -109.41747 -65.203409 -107.3201 C -65.203409 -105.44947 -64.806384 -103.77718 -64.012784 -102.30335 C -65.599984 -100.60278 -67.640718 -99.752084 -70.13489 -99.752084 C -72.40232 -99.752084 -74.159834 -100.43233 -75.40692 -101.79279 C -76.654006 -103.15324 -77.27709 -104.91076 -77.27709 -107.06482 C -77.27709 -109.8991 -76.313626 -112.25164 -74.386311 -114.12227 C -72.40231 -116.04958 -69.965068 -117.46671 -67.074095 -118.37369 C -64.126437 -119.28066 -61.23501 -119.73381 -58.400723 -119.73381 z M -13.081009 -119.64906 C -6.4487776 -119.64906 -1.3752646 -117.15466 2.139251 -112.16631 C 5.7104523 -107.23465 7.49603 -100.06428 7.49603 -90.654448 C 7.49603 -81.244616 5.7104523 -74.017081 2.139251 -68.97205 C -1.3752646 -63.983706 -6.4487776 -61.489303 -13.081009 -61.489303 C -19.71324 -61.489303 -24.814816 -63.983706 -28.386018 -68.97205 C -31.957219 -74.017081 -33.742797 -81.244616 -33.742797 -90.654448 C -33.742797 -100.00759 -31.957219 -107.17797 -28.386018 -112.16631 C -24.814816 -117.15466 -19.71324 -119.64906 -13.081009 -119.64906 z M -125.91391 -119.56379 C -119.16831 -119.56379 -114.00957 -117.69351 -110.43837 -113.95225 C -106.81049 -110.21099 -104.99685 -104.7971 -104.99685 -97.711381 C -104.99685 -88.811721 -107.77447 -81.216258 -113.32967 -74.924142 C -118.82819 -68.688711 -126.82067 -64.09693 -137.30753 -61.149272 L -139.34824 -65.400692 C -133.67966 -67.838179 -129.11646 -70.956182 -125.65863 -74.754126 C -122.2008 -78.608756 -119.90491 -83.086732 -118.7712 -88.188448 C -121.9456 -86.601248 -125.03502 -85.807715 -128.03937 -85.807715 C -133.70794 -85.807715 -138.18643 -87.338137 -141.47421 -90.399166 C -144.70529 -93.460196 -146.32042 -97.598308 -146.32042 -102.8134 C -146.32042 -106.04448 -145.47024 -108.93539 -143.76967 -111.48625 C -142.01241 -114.03711 -139.60324 -116.0212 -136.54221 -117.43834 C -133.42449 -118.85549 -129.88192 -119.56379 -125.91391 -119.56379 z M -13.081009 -115.31237 C -15.971981 -115.31237 -18.069359 -113.41351 -19.373131 -109.61556 C -20.620217 -105.81762 -21.243301 -99.497422 -21.243301 -90.654448 C -21.243301 -81.868159 -20.620217 -75.576025 -19.373131 -71.778081 C -18.069359 -68.036822 -15.971981 -66.16602 -13.081009 -66.16602 C -10.190036 -66.16602 -8.1207217 -68.036822 -6.8736356 -71.778081 C -5.5698637 -75.576025 -4.9181994 -81.868159 -4.9181994 -90.654448 C -4.9181994 -99.440737 -5.5698637 -105.73287 -6.8736356 -109.53081 C -8.1207217 -113.38544 -10.190036 -115.31237 -13.081009 -115.31237 z M -126.42396 -113.69697 C -128.86145 -113.69697 -130.73225 -112.76157 -132.03602 -110.89094 C -133.33979 -109.02031 -133.99146 -106.35597 -133.99146 -102.89814 C -133.99146 -99.383629 -133.28315 -96.634587 -131.86601 -94.650586 C -130.39218 -92.723271 -128.32286 -91.759807 -125.65863 -91.759807 C -123.33452 -91.759807 -120.75541 -92.723271 -117.92112 -94.650586 L -117.92112 -95.755945 C -117.92112 -101.93469 -118.60137 -106.46931 -119.96182 -109.36028 C -121.32228 -112.25126 -123.4763 -113.69697 -126.42396 -113.69697 z M -90.116617 -101.28274 C -88.132616 -101.28274 -86.658838 -100.68772 -85.695181 -99.497319 C -84.674838 -98.363604 -84.164525 -96.776539 -84.164525 -94.735852 C -84.164525 -92.695166 -84.674838 -91.107584 -85.695181 -89.973869 C -86.658838 -88.840154 -88.132616 -88.273198 -90.116617 -88.273198 C -92.100617 -88.273198 -93.602975 -88.840154 -94.623318 -89.973869 C -95.586976 -91.16427 -96.068708 -92.751852 -96.068708 -94.735852 C -96.068708 -96.833225 -95.586976 -98.448354 -94.623318 -99.582068 C -93.602975 -100.71578 -92.100617 -101.28274 -90.116617 -101.28274 z M -90.116617 -74.498845 C -88.132616 -74.498845 -86.658838 -73.903824 -85.695181 -72.713424 C -84.674838 -71.579709 -84.164525 -69.992127 -84.164525 -67.951441 C -84.164525 -65.910754 -84.674838 -64.323689 -85.695181 -63.189974 C -86.658838 -62.05626 -88.132616 -61.489303 -90.116617 -61.489303 C -92.100617 -61.489303 -93.602975 -62.05626 -94.623318 -63.189974 C -95.586976 -64.380375 -96.068708 -65.96744 -96.068708 -67.951441 C -96.068708 -70.048813 -95.586976 -71.664459 -94.623318 -72.798173 C -93.602975 -73.931888 -92.100617 -74.498845 -90.116617 -74.498845 z " /></g></svg>
