<?xml version="1.0" encoding="UTF-8" standalone="no"?>
<!-- Created with Inkscape (http://www.inkscape.org/) -->

<svg
   width="172.6701mm"
   height="172.6701mm"
   viewBox="0 0 172.6701 172.6701"
   version="1.1"
   id="svg1"
   xml:space="preserve"
   xmlns="http://www.w3.org/2000/svg"
   xmlns:svg="http://www.w3.org/2000/svg"><defs
     id="defs1" /><g
     id="layer1"
     transform="translate(157.25102,198.81012)"><path
       id="path5"
       style="fill:#ffffff;fill-opacity:1;stroke-width:0.805188;stroke-linecap:round;stroke-linejoin:round"
       d="M -2.0863309 -198.17657 L -10.088943 -183.11289 L -10.930235 -165.68398 L -19.198981 -165.68398 L -11.423229 -155.47426 L -12.166336 -140.07934 C -28.353216 -157.12094 -50.823548 -166.77435 -74.327399 -166.78417 C -103.64471 -166.77397 -130.92652 -151.79225 -146.66717 -127.05894 L -157.25102 -127.05894 L -149.61996 -115.86014 L -157.25102 -26.140039 L -8.5138455 -26.140039 L 15.419061 -26.140039 L 8.0799737 -154.80195 L 15.419061 -165.68398 L 7.4593397 -165.68398 L 6.4490654 -183.39297 L -2.0863309 -198.17657 z M -83.43072 -192.21621 C -85.584619 -189.65499 -86.77489 -186.4211 -86.795372 -183.07465 C -86.842092 -175.15518 -80.459903 -168.69733 -72.540428 -168.65072 C -64.621155 -168.60402 -58.163395 -174.98588 -58.116503 -182.90515 C -58.102813 -186.26049 -59.266203 -189.5144 -61.404157 -192.10045 C -60.83125 -190.6836 -60.536835 -189.16959 -60.537027 -187.64129 C -60.575787 -181.07411 -65.930869 -175.78172 -72.498054 -175.82031 C -79.065241 -175.85911 -84.357627 -181.21415 -84.319038 -187.78134 C -84.309338 -189.30285 -84.007827 -190.80837 -83.43072 -192.21621 z M -58.485989 -120.07436 C -53.95113 -119.84761 -50.266687 -118.85557 -47.4324 -117.09831 L -67.668891 -83.767013 L -54.659866 -83.767013 L -53.809272 -97.626632 C -51.995328 -97.626632 -50.691483 -97.995076 -49.897883 -98.731991 C -49.047597 -99.468905 -48.395932 -100.71611 -47.942447 -102.47336 L -43.095714 -102.47336 L -43.18098 -83.341716 C -41.026922 -82.718173 -38.305944 -82.066508 -35.018171 -81.38628 L -35.443468 -77.304875 L -43.60576 -77.304875 L -43.60576 -62.084615 L -54.659866 -62.084615 L -54.659866 -77.304875 L -79.233043 -77.304875 L -79.913105 -80.36567 L -58.485989 -120.07436 z M -127.69934 -119.81908 C -121.74733 -119.81908 -117.0142 -118.54381 -113.49969 -115.99295 C -109.98517 -113.44209 -108.22766 -110.01229 -108.22766 -105.70418 C -108.22766 -103.38006 -109.07783 -101.05611 -110.7784 -98.731991 C -112.47898 -96.407876 -114.71822 -94.50901 -117.49582 -93.035181 C -113.98131 -91.334609 -111.23227 -89.350519 -109.24827 -87.08309 C -107.20758 -84.81566 -106.18695 -81.896169 -106.18695 -78.324968 C -106.18695 -73.166566 -108.05776 -69.057034 -111.79901 -65.996005 C -115.54027 -62.991661 -120.58521 -61.489303 -126.93401 -61.489303 C -133.90635 -61.489303 -139.29167 -62.878373 -143.08961 -65.655974 C -146.83087 -68.433575 -148.70115 -72.401238 -148.70115 -77.55964 C -148.70115 -80.223869 -147.85098 -82.86014 -146.15041 -85.467684 C -144.44983 -88.131914 -142.06924 -90.483931 -139.00821 -92.524618 C -141.55906 -93.941761 -143.54315 -95.642631 -144.9603 -97.626632 C -146.37744 -99.610633 -147.08575 -102.07646 -147.08575 -105.02411 C -147.08575 -109.55897 -145.32875 -113.15871 -141.81424 -115.82294 C -138.29972 -118.48717 -133.59465 -119.81908 -127.69934 -119.81908 z M -10.699759 -119.56379 C -3.9541561 -119.56379 1.2040645 -117.69351 4.7752658 -113.95225 C 8.4031529 -110.21099 10.217311 -104.7971 10.217311 -97.711381 C 10.217311 -88.811721 7.4396882 -81.216258 1.8844862 -74.924142 C -3.6140301 -68.688711 -11.607034 -64.09693 -22.093895 -61.149272 L -24.134597 -65.400692 C -18.466024 -67.838179 -13.902824 -70.956182 -10.444994 -74.754126 C -6.987164 -78.608756 -4.6912736 -83.086732 -3.5575589 -88.188448 C -6.7319601 -86.601248 -9.8213831 -85.807715 -12.825727 -85.807715 C -18.494301 -85.807715 -22.972277 -87.338137 -26.260049 -90.399166 C -29.491136 -93.460196 -31.106782 -97.598308 -31.106782 -102.8134 C -31.106782 -106.04448 -30.256605 -108.93539 -28.556033 -111.48625 C -26.798775 -114.03711 -24.389597 -116.0212 -21.328567 -117.43834 C -18.210852 -118.85549 -14.66776 -119.56379 -10.699759 -119.56379 z M -127.69934 -113.78224 C -129.96676 -113.78224 -131.75234 -113.04535 -133.05611 -111.57152 C -134.35989 -110.15437 -135.01155 -108.22693 -135.01155 -105.78944 C -135.01155 -103.63538 -134.18995 -101.84981 -132.54607 -100.43266 C -130.8455 -99.072205 -128.37967 -97.711715 -125.14859 -96.351258 C -123.73144 -97.314915 -122.59753 -98.646824 -121.74724 -100.3474 C -120.89696 -102.04797 -120.47187 -103.86213 -120.47187 -105.78944 C -120.47187 -108.22693 -121.15211 -110.15437 -122.51257 -111.57152 C -123.81634 -113.04535 -125.54528 -113.78224 -127.69934 -113.78224 z M -11.210322 -113.69697 C -13.647808 -113.69697 -15.518094 -112.76157 -16.821866 -110.89094 C -18.125637 -109.02031 -18.777819 -106.35597 -18.777819 -102.89814 C -18.777819 -99.383629 -18.068993 -96.634587 -16.65185 -94.650586 C -15.178021 -92.723271 -13.109223 -91.759807 -10.444994 -91.759807 C -8.1208787 -91.759807 -5.5417683 -92.723271 -2.7074816 -94.650586 L -2.7074816 -95.755945 C -2.7074816 -101.93469 -3.3877263 -106.46931 -4.7481839 -109.36028 C -6.1086415 -112.25126 -8.2626635 -113.69697 -11.210322 -113.69697 z M -91.137226 -101.28274 C -89.153225 -101.28274 -87.679448 -100.68772 -86.715791 -99.497319 C -85.695447 -98.363604 -85.185135 -96.776539 -85.185135 -94.735852 C -85.185135 -92.695166 -85.695447 -91.107584 -86.715791 -89.973869 C -87.679448 -88.840154 -89.153225 -88.273198 -91.137226 -88.273198 C -93.121227 -88.273198 -94.623068 -88.840154 -95.643411 -89.973869 C -96.607068 -91.16427 -97.088801 -92.751852 -97.088801 -94.735852 C -97.088801 -96.833225 -96.607068 -98.448354 -95.643411 -99.582068 C -94.623068 -100.71578 -93.121227 -101.28274 -91.137226 -101.28274 z M -131.18543 -89.038526 C -132.886 -87.678068 -134.1332 -86.119583 -134.9268 -84.362325 C -135.7204 -82.605068 -136.11691 -80.50769 -136.11691 -78.070203 C -136.11691 -74.725745 -135.29531 -72.089474 -133.65143 -70.162159 C -132.00754 -68.291529 -129.76829 -67.356645 -126.93401 -67.356645 C -124.15641 -67.356645 -122.00238 -68.291529 -120.47187 -70.162159 C -118.88467 -72.032788 -118.09114 -74.640479 -118.09114 -77.984937 C -118.09114 -79.855566 -118.68616 -81.442631 -119.87656 -82.746403 C -121.01027 -84.106861 -122.45599 -85.212194 -124.21324 -86.06248 C -125.9705 -86.969452 -128.29446 -87.961497 -131.18543 -89.038526 z M -91.137226 -74.498845 C -89.153225 -74.498845 -87.679448 -73.903824 -86.715791 -72.713424 C -85.695447 -71.579709 -85.185135 -69.992127 -85.185135 -67.951441 C -85.185135 -65.910754 -85.695447 -64.323689 -86.715791 -63.189974 C -87.679448 -62.05626 -89.153225 -61.489303 -91.137226 -61.489303 C -93.121227 -61.489303 -94.623068 -62.05626 -95.643411 -63.189974 C -96.607068 -64.380375 -97.088801 -65.96744 -97.088801 -67.951441 C -97.088801 -70.048813 -96.607068 -71.664459 -95.643411 -72.798173 C -94.623068 -73.931888 -93.121227 -74.498845 -91.137226 -74.498845 z " /></g></svg>
