<?xml version="1.0" encoding="UTF-8" standalone="no"?>
<!-- Created with Inkscape (http://www.inkscape.org/) -->

<svg
   width="172.6701mm"
   height="172.6701mm"
   viewBox="0 0 172.6701 172.6701"
   version="1.1"
   id="svg1"
   xml:space="preserve"
   xmlns="http://www.w3.org/2000/svg"
   xmlns:svg="http://www.w3.org/2000/svg"><defs
     id="defs1" /><g
     id="layer1"
     transform="translate(157.25102,198.81012)"><path
       id="path5"
       style="fill:#ffffff;fill-opacity:1;stroke-width:0.805188;stroke-linecap:round;stroke-linejoin:round"
       d="M -2.0863309 -198.17657 L -10.088943 -183.11289 L -10.930235 -165.68398 L -19.198981 -165.68398 L -11.423229 -155.47426 L -12.166336 -140.07934 C -28.353216 -157.12094 -50.823548 -166.77435 -74.327399 -166.78417 C -103.64471 -166.77397 -130.92652 -151.79225 -146.66717 -127.05894 L -157.25102 -127.05894 L -149.61996 -115.86014 L -157.25102 -26.140039 L -8.5138455 -26.140039 L 15.419061 -26.140039 L 8.0799737 -154.80195 L 15.419061 -165.68398 L 7.4593397 -165.68398 L 6.4490654 -183.39297 L -2.0863309 -198.17657 z M -83.43072 -192.21621 C -85.584619 -189.65499 -86.77489 -186.4211 -86.795372 -183.07465 C -86.842092 -175.15518 -80.459903 -168.69733 -72.540428 -168.65072 C -64.621155 -168.60402 -58.163395 -174.98588 -58.116503 -182.90515 C -58.102813 -186.26049 -59.266203 -189.5144 -61.404157 -192.10045 C -60.83125 -190.6836 -60.536835 -189.16959 -60.537027 -187.64129 C -60.575787 -181.07411 -65.930869 -175.78172 -72.498054 -175.82031 C -79.065241 -175.85911 -84.357627 -181.21415 -84.319038 -187.78134 C -84.309338 -189.30285 -84.007827 -190.80837 -83.43072 -192.21621 z M -122.13017 -119.56379 C -115.38456 -119.56379 -110.22583 -117.69351 -106.65463 -113.95225 C -103.02674 -110.21099 -101.2131 -104.7971 -101.2131 -97.711381 C -101.2131 -88.811721 -103.99072 -81.216258 -109.54592 -74.924142 C -115.04444 -68.688711 -123.03693 -64.09693 -133.52379 -61.149272 L -135.56449 -65.400692 C -129.89591 -67.838179 -125.33271 -70.956182 -121.87488 -74.754126 C -118.41705 -78.608756 -116.12116 -83.086732 -114.98745 -88.188448 C -118.16185 -86.601248 -121.25127 -85.807715 -124.25562 -85.807715 C -129.92419 -85.807715 -134.40268 -87.338137 -137.69046 -90.399166 C -140.92154 -93.460196 -142.53667 -97.598308 -142.53667 -102.8134 C -142.53667 -106.04448 -141.6865 -108.93539 -139.98592 -111.48625 C -138.22867 -114.03711 -135.81949 -116.0212 -132.75846 -117.43834 C -129.64074 -118.85549 -126.09817 -119.56379 -122.13017 -119.56379 z M -51.726195 -119.13901 L -48.920165 -117.86364 L -48.920165 -68.716769 C -47.843136 -68.093226 -46.142782 -67.526269 -43.818667 -67.016097 C -41.494552 -66.562611 -39.652331 -66.279392 -38.291873 -66.16602 L -38.546638 -62.084615 L -73.238577 -62.084615 L -73.068562 -66.16602 C -68.023531 -66.732877 -64.168639 -67.583054 -61.504409 -68.716769 L -61.504409 -109.44555 L -72.898546 -109.44555 L -72.898546 -114.37703 C -69.270659 -114.66046 -65.529055 -115.19935 -61.674425 -115.99295 C -57.819795 -116.84324 -54.503796 -117.89193 -51.726195 -119.13901 z M -33.869921 -118.88373 L -29.703767 -118.88373 C -27.549709 -118.82705 -22.84464 -118.79847 -15.588866 -118.79847 C -8.0496631 -118.79847 -3.1465988 -118.82705 -0.87916941 -118.88373 L 3.2022352 -118.88373 L 4.9029066 -115.22762 C 3.8258776 -113.52705 1.7851436 -109.84261 -1.2192003 -104.17404 C -4.2235443 -98.505463 -7.057811 -92.496548 -9.7220405 -86.147746 C -12.38627 -79.798944 -13.718179 -74.838719 -13.718179 -71.267517 C -13.718179 -68.433231 -12.726134 -66.307789 -10.742133 -64.890646 C -12.669448 -62.566531 -15.135271 -61.404554 -18.139615 -61.404554 C -20.917216 -61.404554 -23.071754 -62.169506 -24.602269 -63.700021 C -26.132784 -65.230536 -26.897736 -67.356494 -26.897736 -70.077409 C -26.897736 -73.478553 -26.075623 -77.077772 -24.431737 -80.875717 C -22.787851 -84.730347 -19.840296 -89.945728 -15.588866 -96.521273 L -5.5558865 -111.9963 L -24.9423 -111.9963 C -25.7359 -109.44544 -26.217633 -106.44124 -26.38769 -102.98341 C -27.408033 -102.81335 -28.456722 -102.72813 -29.533751 -102.72813 C -30.667466 -102.72813 -31.772799 -102.81335 -32.849828 -102.98341 L -35.230561 -117.60836 L -33.869921 -118.88373 z M -122.64021 -113.69697 C -125.0777 -113.69697 -126.9485 -112.76157 -128.25227 -110.89094 C -129.55605 -109.02031 -130.20771 -106.35597 -130.20771 -102.89814 C -130.20771 -99.383629 -129.49888 -96.634587 -128.08174 -94.650586 C -126.60791 -92.723271 -124.53911 -91.759807 -121.87488 -91.759807 C -119.55077 -91.759807 -116.97166 -92.723271 -114.13737 -94.650586 L -114.13737 -95.755945 C -114.13737 -101.93469 -114.81762 -106.46931 -116.17807 -109.36028 C -117.53853 -112.25126 -119.69255 -113.69697 -122.64021 -113.69697 z M -86.332868 -101.28274 C -84.348867 -101.28274 -82.87509 -100.68772 -81.911433 -99.497319 C -80.891089 -98.363604 -80.380777 -96.776539 -80.380777 -94.735852 C -80.380777 -92.695166 -80.891089 -91.107584 -81.911433 -89.973869 C -82.87509 -88.840154 -84.348867 -88.273198 -86.332868 -88.273198 C -88.316869 -88.273198 -89.819227 -88.840154 -90.83957 -89.973869 C -91.803227 -91.16427 -92.28496 -92.751852 -92.28496 -94.735852 C -92.28496 -96.833225 -91.803227 -98.448354 -90.83957 -99.582068 C -89.819227 -100.71578 -88.316869 -101.28274 -86.332868 -101.28274 z M -86.332868 -74.498845 C -84.348867 -74.498845 -82.87509 -73.903824 -81.911433 -72.713424 C -80.891089 -71.579709 -80.380777 -69.992127 -80.380777 -67.951441 C -80.380777 -65.910754 -80.891089 -64.323689 -81.911433 -63.189974 C -82.87509 -62.05626 -84.348867 -61.489303 -86.332868 -61.489303 C -88.316869 -61.489303 -89.819227 -62.05626 -90.83957 -63.189974 C -91.803227 -64.380375 -92.28496 -65.96744 -92.28496 -67.951441 C -92.28496 -70.048813 -91.803227 -71.664459 -90.83957 -72.798173 C -89.819227 -73.931888 -88.316869 -74.498845 -86.332868 -74.498845 z " /></g></svg>
