<?xml version="1.0" encoding="UTF-8" standalone="no"?>
<!-- Created with Inkscape (http://www.inkscape.org/) -->

<svg
   width="172.6701mm"
   height="172.6701mm"
   viewBox="0 0 172.6701 172.6701"
   version="1.1"
   id="svg1"
   xml:space="preserve"
   xmlns="http://www.w3.org/2000/svg"
   xmlns:svg="http://www.w3.org/2000/svg"><defs
     id="defs1" /><g
     id="layer1"
     transform="translate(157.25102,198.81012)"><path
       id="path5"
       style="fill:#ffffff;fill-opacity:1;stroke-width:0.805188;stroke-linecap:round;stroke-linejoin:round"
       d="M -2.0863309 -198.17657 L -10.088943 -183.11289 L -10.930235 -165.68398 L -19.198981 -165.68398 L -11.423229 -155.47426 L -12.166336 -140.07934 C -28.353216 -157.12094 -50.823548 -166.77435 -74.327399 -166.78417 C -103.64471 -166.77397 -130.92652 -151.79225 -146.66717 -127.05894 L -157.25102 -127.05894 L -149.61996 -115.86014 L -157.25102 -26.140039 L -8.5138455 -26.140039 L 15.419061 -26.140039 L 8.0799737 -154.80195 L 15.419061 -165.68398 L 7.4593397 -165.68398 L 6.4490654 -183.39297 L -2.0863309 -198.17657 z M -83.43072 -192.21621 C -85.584619 -189.65499 -86.77489 -186.4211 -86.795372 -183.07465 C -86.842092 -175.15518 -80.459903 -168.69733 -72.540428 -168.65072 C -64.621155 -168.60402 -58.163395 -174.98588 -58.116503 -182.90515 C -58.102813 -186.26049 -59.266203 -189.5144 -61.404157 -192.10045 C -60.83125 -190.6836 -60.536835 -189.16959 -60.537027 -187.64129 C -60.575787 -181.07411 -65.930869 -175.78172 -72.498054 -175.82031 C -79.065241 -175.85911 -84.357627 -181.21415 -84.319038 -187.78134 C -84.309338 -189.30285 -84.007827 -190.80837 -83.43072 -192.21621 z M -62.609768 -120.07436 C -58.07491 -119.84761 -54.390466 -118.85557 -51.55618 -117.09831 L -71.793187 -83.767013 L -58.783645 -83.767013 L -57.933568 -97.626632 C -56.119624 -97.626632 -54.815779 -97.995076 -54.022179 -98.731991 C -53.171893 -99.468905 -52.519712 -100.71611 -52.066226 -102.47336 L -47.219493 -102.47336 L -47.304759 -83.341716 C -45.150701 -82.718173 -42.429723 -82.066508 -39.14195 -81.38628 L -39.567247 -77.304875 L -47.730056 -77.304875 L -47.730056 -62.084615 L -58.783645 -62.084615 L -58.783645 -77.304875 L -83.356822 -77.304875 L -84.036884 -80.36567 L -62.609768 -120.07436 z M -14.398758 -119.64906 C -7.7665266 -119.64906 -2.6930136 -117.15466 0.82150197 -112.16631 C 4.3927033 -107.23465 6.1782809 -100.06428 6.1782809 -90.654448 C 6.1782809 -81.244616 4.3927033 -74.017081 0.82150197 -68.97205 C -2.6930136 -63.983706 -7.7665266 -61.489303 -14.398758 -61.489303 C -21.030989 -61.489303 -26.132565 -63.983706 -29.703767 -68.97205 C -33.274968 -74.017081 -35.060546 -81.244616 -35.060546 -90.654448 C -35.060546 -100.00759 -33.274968 -107.17797 -29.703767 -112.16631 C -26.132565 -117.15466 -21.030989 -119.64906 -14.398758 -119.64906 z M -123.40554 -119.13901 L -120.59951 -117.86364 L -120.59951 -68.716769 C -119.52248 -68.093226 -117.82213 -67.526269 -115.49801 -67.016097 C -113.1739 -66.562611 -111.33116 -66.279392 -109.9707 -66.16602 L -110.22598 -62.084615 L -144.91741 -62.084615 L -144.74739 -66.16602 C -139.70236 -66.732877 -135.84798 -67.583054 -133.18376 -68.716769 L -133.18376 -109.44555 L -144.57737 -109.44555 L -144.57737 -114.37703 C -140.94949 -114.66046 -137.2084 -115.19935 -133.35377 -115.99295 C -129.49914 -116.84324 -126.18314 -117.89193 -123.40554 -119.13901 z M -14.398758 -115.31237 C -17.28973 -115.31237 -19.387108 -113.41351 -20.69088 -109.61556 C -21.937966 -105.81762 -22.561567 -99.497422 -22.561567 -90.654448 C -22.561567 -81.868159 -21.937966 -75.576025 -20.69088 -71.778081 C -19.387108 -68.036822 -17.28973 -66.16602 -14.398758 -66.16602 C -11.507785 -66.16602 -9.4384708 -68.036822 -8.1913846 -71.778081 C -6.8876127 -75.576025 -6.2359484 -81.868159 -6.2359484 -90.654448 C -6.2359484 -99.440737 -6.8876127 -105.73287 -8.1913846 -109.53081 C -9.4384708 -113.38544 -11.507785 -115.31237 -14.398758 -115.31237 z M -95.261005 -101.28274 C -93.277005 -101.28274 -91.803227 -100.68772 -90.83957 -99.497319 C -89.819227 -98.363604 -89.308914 -96.776539 -89.308914 -94.735852 C -89.308914 -92.695166 -89.819227 -91.107584 -90.83957 -89.973869 C -91.803227 -88.840154 -93.277005 -88.273198 -95.261005 -88.273198 C -97.245006 -88.273198 -98.747364 -88.840154 -99.767707 -89.973869 C -100.73136 -91.16427 -101.2131 -92.751852 -101.2131 -94.735852 C -101.2131 -96.833225 -100.73136 -98.448354 -99.767707 -99.582068 C -98.747364 -100.71578 -97.245006 -101.28274 -95.261005 -101.28274 z M -95.261005 -74.498845 C -93.277005 -74.498845 -91.803227 -73.903824 -90.83957 -72.713424 C -89.819227 -71.579709 -89.308914 -69.992127 -89.308914 -67.951441 C -89.308914 -65.910754 -89.819227 -64.323689 -90.83957 -63.189974 C -91.803227 -62.05626 -93.277005 -61.489303 -95.261005 -61.489303 C -97.245006 -61.489303 -98.747364 -62.05626 -99.767707 -63.189974 C -100.73136 -64.380375 -101.2131 -65.96744 -101.2131 -67.951441 C -101.2131 -70.048813 -100.73136 -71.664459 -99.767707 -72.798173 C -98.747364 -73.931888 -97.245006 -74.498845 -95.261005 -74.498845 z " /></g></svg>
