<?xml version="1.0" encoding="UTF-8" standalone="no"?>
<!-- Created with Inkscape (http://www.inkscape.org/) -->

<svg
   width="172.6701mm"
   height="172.6701mm"
   viewBox="0 0 172.6701 172.6701"
   version="1.1"
   id="svg1"
   xml:space="preserve"
   xmlns="http://www.w3.org/2000/svg"
   xmlns:svg="http://www.w3.org/2000/svg"><defs
     id="defs1" /><g
     id="layer1"
     transform="translate(157.25102,198.81012)"><path
       id="path5"
       style="fill:#ffffff;fill-opacity:1;stroke-width:0.805188;stroke-linecap:round;stroke-linejoin:round"
       d="M -2.0863309 -198.17657 L -10.088943 -183.11289 L -10.930235 -165.68398 L -19.198981 -165.68398 L -11.423229 -155.47426 L -12.166336 -140.07934 C -28.353216 -157.12094 -50.823548 -166.77435 -74.327399 -166.78417 C -103.64471 -166.77397 -130.92652 -151.79225 -146.66717 -127.05894 L -157.25102 -127.05894 L -149.61996 -115.86014 L -157.25102 -26.140039 L -8.5138455 -26.140039 L 15.419061 -26.140039 L 8.0799737 -154.80195 L 15.419061 -165.68398 L 7.4593397 -165.68398 L 6.4490654 -183.39297 L -2.0863309 -198.17657 z M -83.43072 -192.21621 C -85.584619 -189.65499 -86.77489 -186.4211 -86.795372 -183.07465 C -86.842092 -175.15518 -80.459903 -168.69733 -72.540428 -168.65072 C -64.621155 -168.60402 -58.163395 -174.98588 -58.116503 -182.90515 C -58.102813 -186.26049 -59.266203 -189.5144 -61.404157 -192.10045 C -60.83125 -190.6836 -60.536835 -189.16959 -60.537027 -187.64129 C -60.575787 -181.07411 -65.930869 -175.78172 -72.498054 -175.82031 C -79.065241 -175.85911 -84.357627 -181.21415 -84.319038 -187.78134 C -84.309338 -189.30285 -84.007827 -190.80837 -83.43072 -192.21621 z M -19.117849 -119.73381 C -13.279219 -119.73381 -8.630794 -118.28861 -5.1729642 -115.39764 C -1.7151343 -112.56335 0.013799336 -108.56711 0.013799336 -103.40871 C 0.013799336 -98.873849 -1.7151343 -94.026912 -5.1729642 -88.86851 C -8.630794 -83.766794 -14.327908 -77.616529 -22.263911 -70.41744 L 0.60911184 -70.41744 L 0.60911184 -62.084615 L -37.908951 -62.084615 L -37.908951 -67.016097 C -31.616834 -73.081471 -26.71377 -78.268272 -23.199254 -82.576388 C -19.684738 -86.884504 -17.162272 -90.852684 -15.631757 -94.480571 C -14.044557 -98.108458 -13.250507 -101.84955 -13.250507 -105.70418 C -13.250507 -111.82623 -15.291241 -114.88759 -19.372614 -114.88759 C -21.186558 -114.88759 -22.660852 -114.0369 -23.794567 -112.33633 C -24.928281 -110.69244 -25.494721 -108.65171 -25.494721 -106.21422 C -25.494721 -104.51365 -24.899701 -102.89852 -23.7093 -101.36801 C -24.672958 -100.46103 -25.778291 -99.752209 -27.025377 -99.242037 C -28.215778 -98.731866 -29.406335 -98.476709 -30.596735 -98.476709 C -32.637422 -98.476709 -34.337775 -99.10031 -35.698233 -100.3474 C -37.05869 -101.65117 -37.738935 -103.52197 -37.738935 -105.95946 C -37.738935 -108.567 -36.973983 -110.91953 -35.443468 -113.01691 C -33.912953 -115.11428 -31.758414 -116.75799 -28.980813 -117.94839 C -26.146527 -119.13879 -22.859108 -119.73381 -19.117849 -119.73381 z M -118.26115 -119.13901 L -115.45512 -117.86364 L -115.45512 -68.716769 C -114.37809 -68.093226 -112.67774 -67.526269 -110.35362 -67.016097 C -108.02951 -66.562611 -106.18729 -66.279392 -104.82683 -66.16602 L -105.08159 -62.084615 L -139.77353 -62.084615 L -139.60352 -66.16602 C -134.55849 -66.732877 -130.7036 -67.583054 -128.03937 -68.716769 L -128.03937 -109.44555 L -139.4335 -109.44555 L -139.4335 -114.37703 C -135.80562 -114.66046 -132.06401 -115.19935 -128.20938 -115.99295 C -124.35475 -116.84324 -121.03875 -117.89193 -118.26115 -119.13901 z M -55.509943 -119.13901 L -52.703913 -117.86364 L -52.703913 -68.716769 C -51.626884 -68.093226 -49.926531 -67.526269 -47.602416 -67.016097 C -45.278301 -66.562611 -43.436079 -66.279392 -42.075621 -66.16602 L -42.330386 -62.084615 L -77.022325 -62.084615 L -76.85231 -66.16602 C -71.807279 -66.732877 -67.952387 -67.583054 -65.288158 -68.716769 L -65.288158 -109.44555 L -76.682294 -109.44555 L -76.682294 -114.37703 C -73.054407 -114.66046 -69.312803 -115.19935 -65.458173 -115.99295 C -61.603543 -116.84324 -58.287544 -117.89193 -55.509943 -119.13901 z M -90.116617 -101.28274 C -88.132616 -101.28274 -86.658838 -100.68772 -85.695181 -99.497319 C -84.674838 -98.363604 -84.164525 -96.776539 -84.164525 -94.735852 C -84.164525 -92.695166 -84.674838 -91.107584 -85.695181 -89.973869 C -86.658838 -88.840154 -88.132616 -88.273198 -90.116617 -88.273198 C -92.100617 -88.273198 -93.602975 -88.840154 -94.623318 -89.973869 C -95.586976 -91.16427 -96.068708 -92.751852 -96.068708 -94.735852 C -96.068708 -96.833225 -95.586976 -98.448354 -94.623318 -99.582068 C -93.602975 -100.71578 -92.100617 -101.28274 -90.116617 -101.28274 z M -90.116617 -74.498845 C -88.132616 -74.498845 -86.658838 -73.903824 -85.695181 -72.713424 C -84.674838 -71.579709 -84.164525 -69.992127 -84.164525 -67.951441 C -84.164525 -65.910754 -84.674838 -64.323689 -85.695181 -63.189974 C -86.658838 -62.05626 -88.132616 -61.489303 -90.116617 -61.489303 C -92.100617 -61.489303 -93.602975 -62.05626 -94.623318 -63.189974 C -95.586976 -64.380375 -96.068708 -65.96744 -96.068708 -67.951441 C -96.068708 -70.048813 -95.586976 -71.664459 -94.623318 -72.798173 C -93.602975 -73.931888 -92.100617 -74.498845 -90.116617 -74.498845 z " /></g></svg>
