<?xml version="1.0" encoding="UTF-8" standalone="no"?>
<!-- Created with Inkscape (http://www.inkscape.org/) -->

<svg
   width="172.6701mm"
   height="172.6701mm"
   viewBox="0 0 172.6701 172.6701"
   version="1.1"
   id="svg1"
   xml:space="preserve"
   xmlns="http://www.w3.org/2000/svg"
   xmlns:svg="http://www.w3.org/2000/svg"><defs
     id="defs1" /><g
     id="layer1"
     transform="translate(157.25102,198.81012)"><path
       id="path5"
       style="fill:#ffffff;fill-opacity:1;stroke-width:0.805188;stroke-linecap:round;stroke-linejoin:round"
       d="M -2.0863309 -198.17657 L -10.088943 -183.11289 L -10.930235 -165.68398 L -19.198981 -165.68398 L -11.423229 -155.47426 L -12.166336 -140.07934 C -28.353216 -157.12094 -50.823548 -166.77435 -74.327399 -166.78417 C -103.64471 -166.77397 -130.92652 -151.79225 -146.66717 -127.05894 L -157.25102 -127.05894 L -149.61996 -115.86014 L -157.25102 -26.140039 L -8.5138455 -26.140039 L 15.419061 -26.140039 L 8.0799737 -154.80195 L 15.419061 -165.68398 L 7.4593397 -165.68398 L 6.4490654 -183.39297 L -2.0863309 -198.17657 z M -83.43072 -192.21621 C -85.584619 -189.65499 -86.77489 -186.4211 -86.795372 -183.07465 C -86.842092 -175.15518 -80.459903 -168.69733 -72.540428 -168.65072 C -64.621155 -168.60402 -58.163395 -174.98588 -58.116503 -182.90515 C -58.102813 -186.26049 -59.266203 -189.5144 -61.404157 -192.10045 C -60.83125 -190.6836 -60.536835 -189.16959 -60.537027 -187.64129 C -60.575787 -181.07411 -65.930869 -175.78172 -72.498054 -175.82031 C -79.065241 -175.85911 -84.357627 -181.21415 -84.319038 -187.78134 C -84.309338 -189.30285 -84.007827 -190.80837 -83.43072 -192.21621 z M -58.82602 -120.07436 C -54.291161 -119.84761 -50.606718 -118.85557 -47.772431 -117.09831 L -68.008922 -83.767013 L -54.999897 -83.767013 L -54.149303 -97.626632 C -52.335359 -97.626632 -51.032031 -97.995076 -50.23843 -98.731991 C -49.388144 -99.468905 -48.735963 -100.71611 -48.282478 -102.47336 L -43.435745 -102.47336 L -43.521011 -83.341716 C -41.366953 -82.718173 -38.645974 -82.066508 -35.358202 -81.38628 L -35.783499 -77.304875 L -43.946308 -77.304875 L -43.946308 -62.084615 L -54.999897 -62.084615 L -54.999897 -77.304875 L -79.573074 -77.304875 L -80.253136 -80.36567 L -58.82602 -120.07436 z M -127.27404 -119.56379 C -120.52844 -119.56379 -115.37022 -117.69351 -111.79901 -113.95225 C -108.17113 -110.21099 -106.35697 -104.7971 -106.35697 -97.711381 C -106.35697 -88.811721 -109.13459 -81.216258 -114.68979 -74.924142 C -120.18831 -68.688711 -128.18131 -64.09693 -138.66817 -61.149272 L -140.70888 -65.400692 C -135.0403 -67.838179 -130.4771 -70.956182 -127.01927 -74.754126 C -123.56144 -78.608756 -121.26555 -83.086732 -120.13184 -88.188448 C -123.30624 -86.601248 -126.39566 -85.807715 -129.40001 -85.807715 C -135.06858 -85.807715 -139.54656 -87.338137 -142.83433 -90.399166 C -146.06542 -93.460196 -147.68106 -97.598308 -147.68106 -102.8134 C -147.68106 -106.04448 -146.83088 -108.93539 -145.13031 -111.48625 C -143.37306 -114.03711 -140.96388 -116.0212 -137.90285 -117.43834 C -134.78513 -118.85549 -131.24204 -119.56379 -127.27404 -119.56379 z M -24.134597 -119.05375 L -19.883177 -118.969 C -13.874489 -118.85563 -10.699842 -118.79847 -10.359728 -118.79847 L 1.7144707 -118.969 L 4.1799533 -117.18306 L 3.4146253 -110.72092 L -17.67246 -110.72092 L -18.862568 -96.521273 C -15.91491 -97.258188 -13.250575 -97.626632 -10.869774 -97.626632 C -5.2578863 -97.626632 -0.69468596 -96.124274 2.8198296 -93.11993 C 6.3910309 -90.172272 8.1766086 -85.836165 8.1766086 -80.110905 C 8.1766086 -76.539704 7.3259152 -73.336993 5.6253431 -70.502706 C 3.9814568 -67.66842 1.6008588 -65.429173 -1.5168566 -63.785287 C -4.634572 -62.198086 -8.3190153 -61.404554 -12.570445 -61.404554 C -16.028275 -61.404554 -19.174342 -61.886286 -22.008629 -62.849943 C -24.78623 -63.813601 -26.968832 -65.14551 -28.556033 -66.846082 C -30.143234 -68.60334 -30.936766 -70.559366 -30.936766 -72.713424 C -30.936766 -74.980853 -30.313166 -76.709787 -29.066079 -77.900188 C -27.818993 -79.147274 -26.288572 -79.770358 -24.474628 -79.770358 C -23.454285 -79.770358 -22.43366 -79.572362 -21.413317 -79.175562 C -20.336288 -78.778762 -19.372823 -78.211805 -18.522537 -77.474891 C -19.032709 -76.28449 -19.287865 -75.037289 -19.287865 -73.733517 C -19.287865 -71.862888 -18.749489 -70.332466 -17.67246 -69.142066 C -16.538745 -67.951665 -14.837875 -67.356645 -12.570445 -67.356645 C -7.4687293 -67.356645 -4.9181994 -71.608045 -4.9181994 -80.110905 C -4.9181994 -84.135593 -5.711732 -87.054567 -7.2989326 -88.86851 C -8.8861332 -90.73914 -11.011575 -91.674541 -13.675804 -91.674541 C -15.319691 -91.674541 -17.077205 -91.36274 -18.947834 -90.739197 C -20.818463 -90.115654 -22.660685 -89.236897 -24.474628 -88.103182 L -29.151346 -92.609884 L -26.940628 -116.75776 L -24.134597 -119.05375 z M -127.7846 -113.69697 C -130.22209 -113.69697 -132.09237 -112.76157 -133.39615 -110.89094 C -134.69992 -109.02031 -135.3521 -106.35597 -135.3521 -102.89814 C -135.3521 -99.383629 -134.64327 -96.634587 -133.22613 -94.650586 C -131.7523 -92.723271 -129.6835 -91.759807 -127.01927 -91.759807 C -124.69516 -91.759807 -122.11605 -92.723271 -119.28176 -94.650586 L -119.28176 -95.755945 C -119.28176 -101.93469 -119.96201 -106.46931 -121.32246 -109.36028 C -122.68292 -112.25126 -124.83694 -113.69697 -127.7846 -113.69697 z M -91.477257 -101.28274 C -89.493256 -101.28274 -88.019479 -100.68772 -87.055821 -99.497319 C -86.035478 -98.363604 -85.525166 -96.776539 -85.525166 -94.735852 C -85.525166 -92.695166 -86.035478 -91.107584 -87.055821 -89.973869 C -88.019479 -88.840154 -89.493256 -88.273198 -91.477257 -88.273198 C -93.461258 -88.273198 -94.963099 -88.840154 -95.983442 -89.973869 C -96.947099 -91.16427 -97.429348 -92.751852 -97.429348 -94.735852 C -97.429348 -96.833225 -96.947099 -98.448354 -95.983442 -99.582068 C -94.963099 -100.71578 -93.461258 -101.28274 -91.477257 -101.28274 z M -91.477257 -74.498845 C -89.493256 -74.498845 -88.019479 -73.903824 -87.055821 -72.713424 C -86.035478 -71.579709 -85.525166 -69.992127 -85.525166 -67.951441 C -85.525166 -65.910754 -86.035478 -64.323689 -87.055821 -63.189974 C -88.019479 -62.05626 -89.493256 -61.489303 -91.477257 -61.489303 C -93.461258 -61.489303 -94.963099 -62.05626 -95.983442 -63.189974 C -96.947099 -64.380375 -97.429348 -65.96744 -97.429348 -67.951441 C -97.429348 -70.048813 -96.947099 -71.664459 -95.983442 -72.798173 C -94.963099 -73.931888 -93.461258 -74.498845 -91.477257 -74.498845 z " /></g></svg>
