<?xml version="1.0" encoding="UTF-8" standalone="no"?>
<!-- Created with Inkscape (http://www.inkscape.org/) -->

<svg
   width="172.6701mm"
   height="172.6701mm"
   viewBox="0 0 172.6701 172.6701"
   version="1.1"
   id="svg1"
   xml:space="preserve"
   xmlns="http://www.w3.org/2000/svg"
   xmlns:svg="http://www.w3.org/2000/svg"><defs
     id="defs1" /><g
     id="layer1"
     transform="translate(157.25102,198.81012)"><path
       id="path5"
       style="fill:#ffffff;fill-opacity:1;stroke-width:0.805188;stroke-linecap:round;stroke-linejoin:round"
       d="M -2.0863309 -198.17657 L -10.088943 -183.11289 L -10.930235 -165.68398 L -19.198981 -165.68398 L -11.423229 -155.47426 L -12.166336 -140.07934 C -28.353216 -157.12094 -50.823548 -166.77435 -74.327399 -166.78417 C -103.64471 -166.77397 -130.92652 -151.79225 -146.66717 -127.05894 L -157.25102 -127.05894 L -149.61996 -115.86014 L -157.25102 -26.140039 L -8.5138455 -26.140039 L 15.419061 -26.140039 L 8.0799737 -154.80195 L 15.419061 -165.68398 L 7.4593397 -165.68398 L 6.4490654 -183.39297 L -2.0863309 -198.17657 z M -83.43072 -192.21621 C -85.584619 -189.65499 -86.77489 -186.4211 -86.795372 -183.07465 C -86.842092 -175.15518 -80.459903 -168.69733 -72.540428 -168.65072 C -64.621155 -168.60402 -58.163395 -174.98588 -58.116503 -182.90515 C -58.102813 -186.26049 -59.266203 -189.5144 -61.404157 -192.10045 C -60.83125 -190.6836 -60.536835 -189.16959 -60.537027 -187.64129 C -60.575787 -181.07411 -65.930869 -175.78172 -72.498054 -175.82031 C -79.065241 -175.85911 -84.357627 -181.21415 -84.319038 -187.78134 C -84.309338 -189.30285 -84.007827 -190.80837 -83.43072 -192.21621 z M -125.19096 -119.81908 C -119.23896 -119.81908 -114.50583 -118.54381 -110.99131 -115.99295 C -107.4768 -113.44209 -105.71928 -110.01229 -105.71928 -105.70418 C -105.71928 -103.38006 -106.56946 -101.05611 -108.27003 -98.731991 C -109.9706 -96.407876 -112.20985 -94.50901 -114.98745 -93.035181 C -111.47293 -91.334609 -108.72389 -89.350519 -106.73989 -87.08309 C -104.6992 -84.81566 -103.67858 -81.896169 -103.67858 -78.324968 C -103.67858 -73.166566 -105.54938 -69.057034 -109.29064 -65.996005 C -113.0319 -62.991661 -118.07683 -61.489303 -124.42563 -61.489303 C -131.39798 -61.489303 -136.78329 -62.878373 -140.58124 -65.655974 C -144.32249 -68.433575 -146.1933 -72.401238 -146.1933 -77.55964 C -146.1933 -80.223869 -145.3426 -82.86014 -143.64203 -85.467684 C -141.94146 -88.131914 -139.56086 -90.483931 -136.49983 -92.524618 C -139.05069 -93.941761 -141.03478 -95.642631 -142.45192 -97.626632 C -143.86907 -99.610633 -144.57737 -102.07646 -144.57737 -105.02411 C -144.57737 -109.55897 -142.82038 -113.15871 -139.30586 -115.82294 C -135.79135 -118.48717 -131.08628 -119.81908 -125.19096 -119.81908 z M -56.912958 -119.73381 C -53.228386 -119.73381 -49.969031 -119.11073 -47.134744 -117.86364 C -44.300457 -116.67324 -42.089791 -114.97237 -40.502591 -112.76163 C -38.91539 -110.60757 -38.121857 -108.11368 -38.121857 -105.27939 C -38.121857 -102.10499 -39.056742 -99.384015 -40.927371 -97.116586 C -42.798 -94.849156 -45.575623 -93.120223 -49.260196 -91.929822 C -44.611965 -90.909479 -41.35261 -89.237189 -39.481981 -86.913074 C -37.611352 -84.588959 -36.675951 -81.442892 -36.675951 -77.474891 C -36.675951 -74.017061 -37.72464 -71.069506 -39.822012 -68.632019 C -41.862698 -66.194533 -44.527033 -64.380375 -47.814806 -63.189974 C -51.102578 -61.999574 -54.503802 -61.404554 -58.018317 -61.404554 C -63.120034 -61.404554 -67.456658 -62.453243 -71.027859 -64.550615 C -74.542375 -66.647987 -76.299372 -69.510317 -76.299372 -73.138204 C -76.299372 -75.235577 -75.675771 -76.851222 -74.428685 -77.984937 C -73.181599 -79.175337 -71.623114 -79.770358 -69.752485 -79.770358 C -67.82517 -79.770358 -65.869143 -79.005405 -63.885143 -77.474891 C -64.395314 -76.397862 -64.650471 -75.094016 -64.650471 -73.563501 C -64.650471 -71.749558 -64.112094 -70.275781 -63.035065 -69.142066 C -61.901351 -68.008351 -60.229061 -67.441394 -58.018317 -67.441394 C -53.143344 -67.441394 -50.706102 -70.814037 -50.706102 -77.55964 C -50.706102 -81.244213 -51.896143 -84.10706 -54.276944 -86.147746 C -56.601059 -88.188433 -59.917058 -89.208541 -64.225174 -89.208541 L -64.225174 -94.480571 C -55.892371 -95.1608 -51.726195 -98.760535 -51.726195 -105.27939 C -51.726195 -108.56717 -52.236508 -110.97583 -53.256851 -112.50634 C -54.277194 -114.09354 -55.665747 -114.88759 -57.423005 -114.88759 C -59.520377 -114.88759 -61.107959 -114.15071 -62.184988 -112.67688 C -63.205331 -111.20305 -63.715127 -109.41747 -63.715127 -107.3201 C -63.715127 -105.44947 -63.318619 -103.77718 -62.525019 -102.30335 C -64.11222 -100.60278 -66.152954 -99.752084 -68.647126 -99.752084 C -70.914555 -99.752084 -72.671553 -100.43233 -73.918639 -101.79279 C -75.165725 -103.15324 -75.789326 -104.91076 -75.789326 -107.06482 C -75.789326 -109.8991 -74.825861 -112.25164 -72.898546 -114.12227 C -70.914545 -116.04958 -68.476787 -117.46671 -65.585814 -118.37369 C -62.638156 -119.28066 -59.747245 -119.73381 -56.912958 -119.73381 z M -25.112316 -119.05375 L -20.860895 -118.969 C -14.852208 -118.85563 -11.67756 -118.79847 -11.337446 -118.79847 L 0.73623586 -118.969 L 3.2022352 -117.18306 L 2.4369072 -110.72092 L -18.650178 -110.72092 L -19.840803 -96.521273 C -16.893144 -97.258188 -14.22881 -97.626632 -11.848009 -97.626632 C -6.2361212 -97.626632 -1.6729208 -96.124274 1.8415947 -93.11993 C 5.4127961 -90.172272 7.1983737 -85.836165 7.1983737 -80.110905 C 7.1983737 -76.539704 6.3481971 -73.336993 4.647625 -70.502706 C 3.0037387 -67.66842 0.62314074 -65.429173 -2.4945747 -63.785287 C -5.6122901 -62.198086 -9.2972502 -61.404554 -13.54868 -61.404554 C -17.00651 -61.404554 -20.152577 -61.886286 -22.986864 -62.849943 C -25.764465 -63.813601 -27.946551 -65.14551 -29.533751 -66.846082 C -31.120952 -68.60334 -31.914484 -70.559366 -31.914484 -72.713424 C -31.914484 -74.980853 -31.290884 -76.709787 -30.043798 -77.900188 C -28.796711 -79.147274 -27.26629 -79.770358 -25.452346 -79.770358 C -24.432003 -79.770358 -23.411895 -79.572362 -22.391551 -79.175562 C -21.314522 -78.778762 -20.350541 -78.211805 -19.500255 -77.474891 C -20.010427 -76.28449 -20.265583 -75.037289 -20.265583 -73.733517 C -20.265583 -71.862888 -19.727207 -70.332466 -18.650178 -69.142066 C -17.516463 -67.951665 -15.81611 -67.356645 -13.54868 -67.356645 C -8.4469642 -67.356645 -5.8959175 -71.608045 -5.8959175 -80.110905 C -5.8959175 -84.135593 -6.6894501 -87.054567 -8.2766507 -88.86851 C -9.8638513 -90.73914 -11.98981 -91.674541 -14.654039 -91.674541 C -16.297926 -91.674541 -18.054923 -91.36274 -19.925552 -90.739197 C -21.796181 -90.115654 -23.638403 -89.236897 -25.452346 -88.103182 L -30.129064 -92.609884 L -27.918346 -116.75776 L -25.112316 -119.05375 z M -125.19096 -113.78224 C -127.45839 -113.78224 -129.24397 -113.04535 -130.54774 -111.57152 C -131.85151 -110.15437 -132.50369 -108.22693 -132.50369 -105.78944 C -132.50369 -103.63538 -131.68158 -101.84981 -130.03769 -100.43266 C -128.33712 -99.072205 -125.8713 -97.711715 -122.64021 -96.351258 C -121.22307 -97.314915 -120.08916 -98.646824 -119.23887 -100.3474 C -118.38858 -102.04797 -117.9635 -103.86213 -117.9635 -105.78944 C -117.9635 -108.22693 -118.64374 -110.15437 -120.0042 -111.57152 C -121.30797 -113.04535 -123.0369 -113.78224 -125.19096 -113.78224 z M -88.628852 -101.28274 C -86.644851 -101.28274 -85.171074 -100.68772 -84.207416 -99.497319 C -83.187073 -98.363604 -82.676761 -96.776539 -82.676761 -94.735852 C -82.676761 -92.695166 -83.187073 -91.107584 -84.207416 -89.973869 C -85.171074 -88.840154 -86.644851 -88.273198 -88.628852 -88.273198 C -90.612853 -88.273198 -92.114694 -88.840154 -93.135037 -89.973869 C -94.098694 -91.16427 -94.580944 -92.751852 -94.580944 -94.735852 C -94.580944 -96.833225 -94.098694 -98.448354 -93.135037 -99.582068 C -92.114694 -100.71578 -90.612853 -101.28274 -88.628852 -101.28274 z M -128.67705 -89.038526 C -130.37763 -87.678068 -131.62483 -86.119583 -132.41843 -84.362325 C -133.21203 -82.605068 -133.60905 -80.50769 -133.60905 -78.070203 C -133.60905 -74.725745 -132.78694 -72.089474 -131.14305 -70.162159 C -129.49917 -68.291529 -127.25992 -67.356645 -124.42563 -67.356645 C -121.64803 -67.356645 -119.49401 -68.291529 -117.9635 -70.162159 C -116.3763 -72.032788 -115.58276 -74.640479 -115.58276 -77.984937 C -115.58276 -79.855566 -116.17778 -81.442631 -117.36818 -82.746403 C -118.5019 -84.106861 -119.94761 -85.212194 -121.70487 -86.06248 C -123.46213 -86.969452 -125.78608 -87.961497 -128.67705 -89.038526 z M -88.628852 -74.498845 C -86.644851 -74.498845 -85.171074 -73.903824 -84.207416 -72.713424 C -83.187073 -71.579709 -82.676761 -69.992127 -82.676761 -67.951441 C -82.676761 -65.910754 -83.187073 -64.323689 -84.207416 -63.189974 C -85.171074 -62.05626 -86.644851 -61.489303 -88.628852 -61.489303 C -90.612853 -61.489303 -92.114694 -62.05626 -93.135037 -63.189974 C -94.098694 -64.380375 -94.580944 -65.96744 -94.580944 -67.951441 C -94.580944 -70.048813 -94.098694 -71.664459 -93.135037 -72.798173 C -92.114694 -73.931888 -90.612853 -74.498845 -88.628852 -74.498845 z " /></g></svg>
