<?xml version="1.0" encoding="UTF-8" standalone="no"?>
<!-- Created with Inkscape (http://www.inkscape.org/) -->

<svg
   width="172.6701mm"
   height="172.6701mm"
   viewBox="0 0 172.6701 172.6701"
   version="1.1"
   id="svg1"
   xml:space="preserve"
   xmlns="http://www.w3.org/2000/svg"
   xmlns:svg="http://www.w3.org/2000/svg"><defs
     id="defs1" /><g
     id="layer1"
     transform="translate(157.25102,198.81012)"><path
       id="path5"
       style="fill:#ffffff;fill-opacity:1;stroke-width:0.805188;stroke-linecap:round;stroke-linejoin:round"
       d="M -2.0863309 -198.17657 L -10.088943 -183.11289 L -10.930235 -165.68398 L -19.198981 -165.68398 L -11.423229 -155.47426 L -12.166336 -140.07934 C -28.353216 -157.12094 -50.823548 -166.77435 -74.327399 -166.78417 C -103.64471 -166.77397 -130.92652 -151.79225 -146.66717 -127.05894 L -157.25102 -127.05894 L -149.61996 -115.86014 L -157.25102 -26.140039 L -8.5138455 -26.140039 L 15.419061 -26.140039 L 8.0799737 -154.80195 L 15.419061 -165.68398 L 7.4593397 -165.68398 L 6.4490654 -183.39297 L -2.0863309 -198.17657 z M -83.43072 -192.21621 C -85.584619 -189.65499 -86.77489 -186.4211 -86.795372 -183.07465 C -86.842092 -175.15518 -80.459903 -168.69733 -72.540428 -168.65072 C -64.621155 -168.60402 -58.163395 -174.98588 -58.116503 -182.90515 C -58.102813 -186.26049 -59.266203 -189.5144 -61.404157 -192.10045 C -60.83125 -190.6836 -60.536835 -189.16959 -60.537027 -187.64129 C -60.575787 -181.07411 -65.930869 -175.78172 -72.498054 -175.82031 C -79.065241 -175.85911 -84.357627 -181.21415 -84.319038 -187.78134 C -84.309338 -189.30285 -84.007827 -190.80837 -83.43072 -192.21621 z M -59.973754 -120.07436 C -55.438895 -119.84761 -51.754451 -118.85557 -48.920165 -117.09831 L -69.157172 -83.767013 L -56.147631 -83.767013 L -55.297553 -97.626632 C -53.48361 -97.626632 -52.179764 -97.995076 -51.386164 -98.731991 C -50.535878 -99.468905 -49.883697 -100.71611 -49.430211 -102.47336 L -44.583995 -102.47336 L -44.668745 -83.341716 C -42.514687 -82.718173 -39.793708 -82.066508 -36.505935 -81.38628 L -36.931232 -77.304875 L -45.094042 -77.304875 L -45.094042 -62.084615 L -56.147631 -62.084615 L -56.147631 -77.304875 L -80.720808 -77.304875 L -81.401386 -80.36567 L -59.973754 -120.07436 z M -127.48695 -119.73381 C -121.64831 -119.73381 -116.99989 -118.28861 -113.54206 -115.39764 C -110.08423 -112.56335 -108.3553 -108.56711 -108.3553 -103.40871 C -108.3553 -98.873849 -110.08423 -94.026912 -113.54206 -88.86851 C -116.99989 -83.766794 -122.697 -77.616529 -130.63301 -70.41744 L -107.75998 -70.41744 L -107.75998 -62.084615 L -146.27805 -62.084615 L -146.27805 -67.016097 C -139.98593 -73.081471 -135.08287 -78.268272 -131.56835 -82.576388 C -128.05383 -86.884504 -125.53085 -90.852684 -124.00034 -94.480571 C -122.41314 -98.108458 -121.6196 -101.84955 -121.6196 -105.70418 C -121.6196 -111.82623 -123.66034 -114.88759 -127.74171 -114.88759 C -129.55565 -114.88759 -131.02943 -114.0369 -132.16315 -112.33633 C -133.29686 -110.69244 -133.86382 -108.65171 -133.86382 -106.21422 C -133.86382 -104.51365 -133.2688 -102.89852 -132.0784 -101.36801 C -133.04205 -100.46103 -134.14739 -99.752209 -135.39447 -99.242037 C -136.58487 -98.731866 -137.77543 -98.476709 -138.96583 -98.476709 C -141.00652 -98.476709 -142.70687 -99.10031 -144.06733 -100.3474 C -145.42779 -101.65117 -146.10803 -103.52197 -146.10803 -105.95946 C -146.10803 -108.567 -145.34256 -110.91953 -143.81205 -113.01691 C -142.28153 -115.11428 -140.12751 -116.75799 -137.34991 -117.94839 C -134.51562 -119.13879 -131.2282 -119.73381 -127.48695 -119.73381 z M -25.282331 -119.05375 L -21.030911 -118.969 C -15.022223 -118.85563 -11.848092 -118.79847 -11.507978 -118.79847 L 0.5662204 -118.969 L 3.0322197 -117.18306 L 2.2668918 -110.72092 L -18.820193 -110.72092 L -20.010818 -96.521273 C -17.06316 -97.258188 -14.398825 -97.626632 -12.018024 -97.626632 C -6.4061366 -97.626632 -1.8429363 -96.124274 1.6715793 -93.11993 C 5.2427806 -90.172272 7.0283583 -85.836165 7.0283583 -80.110905 C 7.0283583 -76.539704 6.1781816 -73.336993 4.4776096 -70.502706 C 2.8337232 -67.66842 0.45312528 -65.429173 -2.6645901 -63.785287 C -5.7823056 -62.198086 -9.4672657 -61.404554 -13.718696 -61.404554 C -17.176526 -61.404554 -20.322593 -61.886286 -23.156879 -62.849943 C -25.93448 -63.813601 -28.116566 -65.14551 -29.703767 -66.846082 C -31.290967 -68.60334 -32.0845 -70.559366 -32.0845 -72.713424 C -32.0845 -74.980853 -31.460899 -76.709787 -30.213813 -77.900188 C -28.966727 -79.147274 -27.436305 -79.770358 -25.622362 -79.770358 C -24.602019 -79.770358 -23.58191 -79.572362 -22.561567 -79.175562 C -21.484538 -78.778762 -20.520557 -78.211805 -19.67027 -77.474891 C -20.180442 -76.28449 -20.435598 -75.037289 -20.435598 -73.733517 C -20.435598 -71.862888 -19.897222 -70.332466 -18.820193 -69.142066 C -17.686478 -67.951665 -15.986125 -67.356645 -13.718696 -67.356645 C -8.6169796 -67.356645 -6.0659329 -71.608045 -6.0659329 -80.110905 C -6.0659329 -84.135593 -6.8594656 -87.054567 -8.4466662 -88.86851 C -10.033867 -90.73914 -12.159825 -91.674541 -14.824055 -91.674541 C -16.467941 -91.674541 -18.224938 -91.36274 -20.095568 -90.739197 C -21.966197 -90.115654 -23.808418 -89.236897 -25.622362 -88.103182 L -30.299079 -92.609884 L -28.088361 -116.75776 L -25.282331 -119.05375 z M -92.624991 -101.28274 C -90.64099 -101.28274 -89.167212 -100.68772 -88.203555 -99.497319 C -87.183212 -98.363604 -86.672899 -96.776539 -86.672899 -94.735852 C -86.672899 -92.695166 -87.183212 -91.107584 -88.203555 -89.973869 C -89.167212 -88.840154 -90.64099 -88.273198 -92.624991 -88.273198 C -94.608991 -88.273198 -96.111349 -88.840154 -97.131692 -89.973869 C -98.09535 -91.16427 -98.577082 -92.751852 -98.577082 -94.735852 C -98.577082 -96.833225 -98.09535 -98.448354 -97.131692 -99.582068 C -96.111349 -100.71578 -94.608991 -101.28274 -92.624991 -101.28274 z M -92.624991 -74.498845 C -90.64099 -74.498845 -89.167212 -73.903824 -88.203555 -72.713424 C -87.183212 -71.579709 -86.672899 -69.992127 -86.672899 -67.951441 C -86.672899 -65.910754 -87.183212 -64.323689 -88.203555 -63.189974 C -89.167212 -62.05626 -90.64099 -61.489303 -92.624991 -61.489303 C -94.608991 -61.489303 -96.111349 -62.05626 -97.131692 -63.189974 C -98.09535 -64.380375 -98.577082 -65.96744 -98.577082 -67.951441 C -98.577082 -70.048813 -98.09535 -71.664459 -97.131692 -72.798173 C -96.111349 -73.931888 -94.608991 -74.498845 -92.624991 -74.498845 z " /></g></svg>
