<?xml version="1.0" encoding="UTF-8" standalone="no"?>
<!-- Created with Inkscape (http://www.inkscape.org/) -->

<svg
   width="172.6701mm"
   height="172.6701mm"
   viewBox="0 0 172.6701 172.6701"
   version="1.1"
   id="svg1"
   xml:space="preserve"
   xmlns="http://www.w3.org/2000/svg"
   xmlns:svg="http://www.w3.org/2000/svg"><defs
     id="defs1" /><g
     id="layer1"
     transform="translate(157.25102,198.81012)"><path
       id="path5"
       style="fill:#ffffff;fill-opacity:1;stroke-width:0.805188;stroke-linecap:round;stroke-linejoin:round"
       d="M -2.0863309 -198.17657 L -10.088943 -183.11289 L -10.930235 -165.68398 L -19.198981 -165.68398 L -11.423229 -155.47426 L -12.166336 -140.07934 C -28.353216 -157.12094 -50.823548 -166.77435 -74.327399 -166.78417 C -103.64471 -166.77397 -130.92652 -151.79225 -146.66717 -127.05894 L -157.25102 -127.05894 L -149.61996 -115.86014 L -157.25102 -26.140039 L -8.5138455 -26.140039 L 15.419061 -26.140039 L 8.0799737 -154.80195 L 15.419061 -165.68398 L 7.4593397 -165.68398 L 6.4490654 -183.39297 L -2.0863309 -198.17657 z M -83.43072 -192.21621 C -85.584619 -189.65499 -86.77489 -186.4211 -86.795372 -183.07465 C -86.842092 -175.15518 -80.459903 -168.69733 -72.540428 -168.65072 C -64.621155 -168.60402 -58.163395 -174.98588 -58.116503 -182.90515 C -58.102813 -186.26049 -59.266203 -189.5144 -61.404157 -192.10045 C -60.83125 -190.6836 -60.536835 -189.16959 -60.537027 -187.64129 C -60.575787 -181.07411 -65.930869 -175.78172 -72.498054 -175.82031 C -79.065241 -175.85911 -84.357627 -181.21415 -84.319038 -187.78134 C -84.309338 -189.30285 -84.007827 -190.80837 -83.43072 -192.21621 z M -9.2119941 -119.13901 L -6.4059638 -117.86364 L -6.4059638 -68.716769 C -5.3289349 -68.093226 -3.6285816 -67.526269 -1.3044665 -67.016097 C 1.0196487 -66.562611 2.8623871 -66.279392 4.2228447 -66.16602 L 3.9675632 -62.084615 L -30.724376 -62.084615 L -30.553844 -66.16602 C -25.508813 -66.732877 -21.654438 -67.583054 -18.990209 -68.716769 L -18.990209 -109.44555 L -30.383828 -109.44555 L -30.383828 -114.37703 C -26.755941 -114.66046 -23.014854 -115.19935 -19.160224 -115.99295 C -15.305594 -116.84324 -11.989595 -117.89193 -9.2119941 -119.13901 z M -135.7345 -119.05375 L -131.48308 -118.969 C -125.4744 -118.85563 -122.30027 -118.79847 -121.96015 -118.79847 L -109.88595 -118.969 L -107.41995 -117.18306 L -108.18528 -110.72092 L -129.27237 -110.72092 L -130.46299 -96.521273 C -127.51533 -97.258188 -124.851 -97.626632 -122.4702 -97.626632 C -116.85831 -97.626632 -112.29511 -96.124274 -108.78059 -93.11993 C -105.20939 -90.172272 -103.42381 -85.836165 -103.42381 -80.110905 C -103.42381 -76.539704 -104.27399 -73.336993 -105.97456 -70.502706 C -107.61845 -67.66842 -109.99905 -65.429173 -113.11676 -63.785287 C -116.23448 -62.198086 -119.91944 -61.404554 -124.17087 -61.404554 C -127.6287 -61.404554 -130.77477 -61.886286 -133.60905 -62.849943 C -136.38665 -63.813601 -138.56874 -65.14551 -140.15594 -66.846082 C -141.74314 -68.60334 -142.53667 -70.559366 -142.53667 -72.713424 C -142.53667 -74.980853 -141.91359 -76.709787 -140.6665 -77.900188 C -139.41942 -79.147274 -137.88848 -79.770358 -136.07453 -79.770358 C -135.05419 -79.770358 -134.03408 -79.572362 -133.01374 -79.175562 C -131.93671 -78.778762 -130.97273 -78.211805 -130.12244 -77.474891 C -130.63261 -76.28449 -130.88777 -75.037289 -130.88777 -73.733517 C -130.88777 -71.862888 -130.34939 -70.332466 -129.27237 -69.142066 C -128.13865 -67.951665 -126.4383 -67.356645 -124.17087 -67.356645 C -119.06915 -67.356645 -116.51811 -71.608045 -116.51811 -80.110905 C -116.51811 -84.135593 -117.31164 -87.054567 -118.89884 -88.86851 C -120.48604 -90.73914 -122.612 -91.674541 -125.27623 -91.674541 C -126.92011 -91.674541 -128.67711 -91.36274 -130.54774 -90.739197 C -132.41837 -90.115654 -134.26059 -89.236897 -136.07453 -88.103182 L -140.75125 -92.609884 L -138.54053 -116.75776 L -135.7345 -119.05375 z M -67.711783 -119.05375 L -63.460362 -118.969 C -57.451675 -118.85563 -54.277027 -118.79847 -53.936913 -118.79847 L -41.862714 -118.969 L -39.397232 -117.18306 L -40.16256 -110.72092 L -61.249645 -110.72092 L -62.439753 -96.521273 C -59.492095 -97.258188 -56.82776 -97.626632 -54.446959 -97.626632 C -48.835071 -97.626632 -44.271871 -96.124274 -40.757355 -93.11993 C -37.186154 -90.172272 -35.400576 -85.836165 -35.400576 -80.110905 C -35.400576 -76.539704 -36.25127 -73.336993 -37.951842 -70.502706 C -39.595728 -67.66842 -41.976326 -65.429173 -45.094042 -63.785287 C -48.211757 -62.198086 -51.8962 -61.404554 -56.147631 -61.404554 C -59.60546 -61.404554 -62.751527 -61.886286 -65.585814 -62.849943 C -68.363415 -63.813601 -70.546017 -65.14551 -72.133218 -66.846082 C -73.720419 -68.60334 -74.513951 -70.559366 -74.513951 -72.713424 C -74.513951 -74.980853 -73.890351 -76.709787 -72.643264 -77.900188 C -71.396178 -79.147274 -69.865757 -79.770358 -68.051813 -79.770358 C -67.03147 -79.770358 -66.010845 -79.572362 -64.990502 -79.175562 C -63.913473 -78.778762 -62.950008 -78.211805 -62.099722 -77.474891 C -62.609894 -76.28449 -62.86505 -75.037289 -62.86505 -73.733517 C -62.86505 -71.862888 -62.326674 -70.332466 -61.249645 -69.142066 C -60.11593 -67.951665 -58.41506 -67.356645 -56.147631 -67.356645 C -51.045914 -67.356645 -48.495384 -71.608045 -48.495384 -80.110905 C -48.495384 -84.135593 -49.288917 -87.054567 -50.876118 -88.86851 C -52.463318 -90.73914 -54.58876 -91.674541 -57.252989 -91.674541 C -58.896876 -91.674541 -60.65439 -91.36274 -62.525019 -90.739197 C -64.395648 -90.115654 -66.23787 -89.236897 -68.051813 -88.103182 L -72.728531 -92.609884 L -70.517296 -116.75776 L -67.711783 -119.05375 z M -88.03354 -101.28274 C -86.049539 -101.28274 -84.575761 -100.68772 -83.612104 -99.497319 C -82.591761 -98.363604 -82.081448 -96.776539 -82.081448 -94.735852 C -82.081448 -92.695166 -82.591761 -91.107584 -83.612104 -89.973869 C -84.575761 -88.840154 -86.049539 -88.273198 -88.03354 -88.273198 C -90.01754 -88.273198 -91.519898 -88.840154 -92.540241 -89.973869 C -93.503899 -91.16427 -93.985631 -92.751852 -93.985631 -94.735852 C -93.985631 -96.833225 -93.503899 -98.448354 -92.540241 -99.582068 C -91.519898 -100.71578 -90.01754 -101.28274 -88.03354 -101.28274 z M -88.03354 -74.498845 C -86.049539 -74.498845 -84.575761 -73.903824 -83.612104 -72.713424 C -82.591761 -71.579709 -82.081448 -69.992127 -82.081448 -67.951441 C -82.081448 -65.910754 -82.591761 -64.323689 -83.612104 -63.189974 C -84.575761 -62.05626 -86.049539 -61.489303 -88.03354 -61.489303 C -90.01754 -61.489303 -91.519898 -62.05626 -92.540241 -63.189974 C -93.503899 -64.380375 -93.985631 -65.96744 -93.985631 -67.951441 C -93.985631 -70.048813 -93.503899 -71.664459 -92.540241 -72.798173 C -91.519898 -73.931888 -90.01754 -74.498845 -88.03354 -74.498845 z " /></g></svg>
