<?xml version="1.0" encoding="UTF-8" standalone="no"?>
<!-- Created with Inkscape (http://www.inkscape.org/) -->

<svg
   width="172.6701mm"
   height="172.6701mm"
   viewBox="0 0 172.6701 172.6701"
   version="1.1"
   id="svg1"
   xml:space="preserve"
   xmlns="http://www.w3.org/2000/svg"
   xmlns:svg="http://www.w3.org/2000/svg"><defs
     id="defs1" /><g
     id="layer1"
     transform="translate(157.25102,198.81012)"><path
       id="path5"
       style="fill:#ffffff;fill-opacity:1;stroke-width:0.805188;stroke-linecap:round;stroke-linejoin:round"
       d="M -2.0863309 -198.17657 L -10.088943 -183.11289 L -10.930235 -165.68398 L -19.198981 -165.68398 L -11.423229 -155.47426 L -12.166336 -140.07934 C -28.353216 -157.12094 -50.823548 -166.77435 -74.327399 -166.78417 C -103.64471 -166.77397 -130.92652 -151.79225 -146.66717 -127.05894 L -157.25102 -127.05894 L -149.61996 -115.86014 L -157.25102 -26.140039 L -8.5138455 -26.140039 L 15.419061 -26.140039 L 8.0799737 -154.80195 L 15.419061 -165.68398 L 7.4593397 -165.68398 L 6.4490654 -183.39297 L -2.0863309 -198.17657 z M -83.43072 -192.21621 C -85.584619 -189.65499 -86.77489 -186.4211 -86.795372 -183.07465 C -86.842092 -175.15518 -80.459903 -168.69733 -72.540428 -168.65072 C -64.621155 -168.60402 -58.163395 -174.98588 -58.116503 -182.90515 C -58.102813 -186.26049 -59.266203 -189.5144 -61.404157 -192.10045 C -60.83125 -190.6836 -60.536835 -189.16959 -60.537027 -187.64129 C -60.575787 -181.07411 -65.930869 -175.78172 -72.498054 -175.82031 C -79.065241 -175.85911 -84.357627 -181.21415 -84.319038 -187.78134 C -84.309338 -189.30285 -84.007827 -190.80837 -83.43072 -192.21621 z M -125.95629 -119.73381 C -122.27172 -119.73381 -119.01236 -119.11073 -116.17807 -117.86364 C -113.34379 -116.67324 -111.13312 -114.97237 -109.54592 -112.76163 C -107.95872 -110.60757 -107.16467 -108.11368 -107.16467 -105.27939 C -107.16467 -102.10499 -108.10007 -99.384015 -109.9707 -97.116586 C -111.84133 -94.849156 -114.61895 -93.120223 -118.30353 -91.929822 C -113.6553 -90.909479 -110.39594 -89.237189 -108.52531 -86.913074 C -106.65468 -84.588959 -105.71928 -81.442892 -105.71928 -77.474891 C -105.71928 -74.017061 -106.76797 -71.069506 -108.86534 -68.632019 C -110.90603 -66.194533 -113.57036 -64.380375 -116.85814 -63.189974 C -120.14591 -61.999574 -123.54713 -61.404554 -127.06165 -61.404554 C -132.16336 -61.404554 -136.49999 -62.453243 -140.07119 -64.550615 C -143.58571 -66.647987 -145.3427 -69.510317 -145.3427 -73.138204 C -145.3427 -75.235577 -144.7191 -76.851222 -143.47202 -77.984937 C -142.22493 -79.175337 -140.66593 -79.770358 -138.7953 -79.770358 C -136.86798 -79.770358 -134.91247 -79.005405 -132.92847 -77.474891 C -133.43865 -76.397862 -133.6938 -75.094016 -133.6938 -73.563501 C -133.6938 -71.749558 -133.15543 -70.275781 -132.0784 -69.142066 C -130.94468 -68.008351 -129.27239 -67.441394 -127.06165 -67.441394 C -122.18668 -67.441394 -119.74892 -70.814037 -119.74892 -77.55964 C -119.74892 -81.244213 -120.93947 -84.10706 -123.32027 -86.147746 C -125.64439 -88.188433 -128.96039 -89.208541 -133.2685 -89.208541 L -133.2685 -94.480571 C -124.9357 -95.1608 -120.76953 -98.760535 -120.76953 -105.27939 C -120.76953 -108.56717 -121.27984 -110.97583 -122.30018 -112.50634 C -123.32053 -114.09354 -124.70908 -114.88759 -126.46634 -114.88759 C -128.56371 -114.88759 -130.15077 -114.15071 -131.2278 -112.67688 C -132.24815 -111.20305 -132.75846 -109.41747 -132.75846 -107.3201 C -132.75846 -105.44947 -132.36195 -103.77718 -131.56835 -102.30335 C -133.15555 -100.60278 -135.19577 -99.752084 -137.68994 -99.752084 C -139.95737 -99.752084 -141.71488 -100.43233 -142.96197 -101.79279 C -144.20906 -103.15324 -144.83266 -104.91076 -144.83266 -107.06482 C -144.83266 -109.8991 -143.86868 -112.25164 -141.94136 -114.12227 C -139.95736 -116.04958 -137.52012 -117.46671 -134.62915 -118.37369 C -131.68149 -119.28066 -128.79058 -119.73381 -125.95629 -119.73381 z M -58.953661 -119.73381 C -55.269088 -119.73381 -52.009733 -119.11073 -49.175446 -117.86364 C -46.34116 -116.67324 -44.130494 -114.97237 -42.543293 -112.76163 C -40.956092 -110.60757 -40.16256 -108.11368 -40.16256 -105.27939 C -40.16256 -102.10499 -41.097444 -99.384015 -42.968073 -97.116586 C -44.838702 -94.849156 -47.616325 -93.120223 -51.300898 -91.929822 C -46.652668 -90.909479 -43.393313 -89.237189 -41.522683 -86.913074 C -39.652054 -84.588959 -38.716653 -81.442892 -38.716653 -77.474891 C -38.716653 -74.017061 -39.765342 -71.069506 -41.862714 -68.632019 C -43.903401 -66.194533 -46.567735 -64.380375 -49.855508 -63.189974 C -53.143281 -61.999574 -56.544504 -61.404554 -60.05902 -61.404554 C -65.160736 -61.404554 -69.49736 -62.453243 -73.068562 -64.550615 C -76.583077 -66.647987 -78.340074 -69.510317 -78.340074 -73.138204 C -78.340074 -75.235577 -77.716474 -76.851222 -76.469388 -77.984937 C -75.222301 -79.175337 -73.663816 -79.770358 -71.793187 -79.770358 C -69.865872 -79.770358 -67.909846 -79.005405 -65.925845 -77.474891 C -66.436017 -76.397862 -66.691173 -75.094016 -66.691173 -73.563501 C -66.691173 -71.749558 -66.152797 -70.275781 -65.075768 -69.142066 C -63.942053 -68.008351 -62.269763 -67.441394 -60.05902 -67.441394 C -55.184046 -67.441394 -52.746805 -70.814037 -52.746805 -77.55964 C -52.746805 -81.244213 -53.936845 -84.10706 -56.317646 -86.147746 C -58.641761 -88.188433 -61.95776 -89.208541 -66.265876 -89.208541 L -66.265876 -94.480571 C -57.933073 -95.1608 -53.766897 -98.760535 -53.766897 -105.27939 C -53.766897 -108.56717 -54.27721 -110.97583 -55.297553 -112.50634 C -56.317896 -114.09354 -57.706449 -114.88759 -59.463707 -114.88759 C -61.561079 -114.88759 -63.148661 -114.15071 -64.22569 -112.67688 C -65.246034 -111.20305 -65.75583 -109.41747 -65.75583 -107.3201 C -65.75583 -105.44947 -65.359322 -103.77718 -64.565721 -102.30335 C -66.152922 -100.60278 -68.193656 -99.752084 -70.687828 -99.752084 C -72.955258 -99.752084 -74.712255 -100.43233 -75.959341 -101.79279 C -77.206427 -103.15324 -77.830028 -104.91076 -77.830028 -107.06482 C -77.830028 -109.8991 -76.866563 -112.25164 -74.939248 -114.12227 C -72.955248 -116.04958 -70.517489 -117.46671 -67.626516 -118.37369 C -64.678858 -119.28066 -61.787948 -119.73381 -58.953661 -119.73381 z M -27.153018 -119.05375 L -22.901598 -118.969 C -16.89291 -118.85563 -13.718263 -118.79847 -13.378148 -118.79847 L -1.3044665 -118.969 L 1.1615329 -117.18306 L 0.39620493 -110.72092 L -20.69088 -110.72092 L -21.881505 -96.521273 C -18.933847 -97.258188 -16.269512 -97.626632 -13.888711 -97.626632 C -8.2768235 -97.626632 -3.7136231 -96.124274 -0.19910757 -93.11993 C 3.3720937 -90.172272 5.1576714 -85.836165 5.1576714 -80.110905 C 5.1576714 -76.539704 4.3074948 -73.336993 2.6069227 -70.502706 C 0.96303639 -67.66842 -1.4175616 -65.429173 -4.535277 -63.785287 C -7.6529924 -62.198086 -11.337953 -61.404554 -15.589383 -61.404554 C -19.047212 -61.404554 -22.193279 -61.886286 -25.027566 -62.849943 C -27.805167 -63.813601 -29.987253 -65.14551 -31.574453 -66.846082 C -33.161654 -68.60334 -33.955187 -70.559366 -33.955187 -72.713424 C -33.955187 -74.980853 -33.331586 -76.709787 -32.0845 -77.900188 C -30.837414 -79.147274 -29.306992 -79.770358 -27.493049 -79.770358 C -26.472706 -79.770358 -25.452597 -79.572362 -24.432254 -79.175562 C -23.355225 -78.778762 -22.391243 -78.211805 -21.540957 -77.474891 C -22.051129 -76.28449 -22.306285 -75.037289 -22.306285 -73.733517 C -22.306285 -71.862888 -21.767909 -70.332466 -20.69088 -69.142066 C -19.557165 -67.951665 -17.856812 -67.356645 -15.589383 -67.356645 C -10.487666 -67.356645 -7.9366198 -71.608045 -7.9366198 -80.110905 C -7.9366198 -84.135593 -8.7301524 -87.054567 -10.317353 -88.86851 C -11.904554 -90.73914 -14.030512 -91.674541 -16.694742 -91.674541 C -18.338628 -91.674541 -20.095625 -91.36274 -21.966254 -90.739197 C -23.836884 -90.115654 -25.679105 -89.236897 -27.493049 -88.103182 L -32.169766 -92.609884 L -29.959048 -116.75776 L -27.153018 -119.05375 z M -90.669554 -101.28274 C -88.685554 -101.28274 -87.211776 -100.68772 -86.248119 -99.497319 C -85.227776 -98.363604 -84.717463 -96.776539 -84.717463 -94.735852 C -84.717463 -92.695166 -85.227776 -91.107584 -86.248119 -89.973869 C -87.211776 -88.840154 -88.685554 -88.273198 -90.669554 -88.273198 C -92.653555 -88.273198 -94.155396 -88.840154 -95.175739 -89.973869 C -96.139397 -91.16427 -96.621646 -92.751852 -96.621646 -94.735852 C -96.621646 -96.833225 -96.139397 -98.448354 -95.175739 -99.582068 C -94.155396 -100.71578 -92.653555 -101.28274 -90.669554 -101.28274 z M -90.669554 -74.498845 C -88.685554 -74.498845 -87.211776 -73.903824 -86.248119 -72.713424 C -85.227776 -71.579709 -84.717463 -69.992127 -84.717463 -67.951441 C -84.717463 -65.910754 -85.227776 -64.323689 -86.248119 -63.189974 C -87.211776 -62.05626 -88.685554 -61.489303 -90.669554 -61.489303 C -92.653555 -61.489303 -94.155396 -62.05626 -95.175739 -63.189974 C -96.139397 -64.380375 -96.621646 -65.96744 -96.621646 -67.951441 C -96.621646 -70.048813 -96.139397 -71.664459 -95.175739 -72.798173 C -94.155396 -73.931888 -92.653555 -74.498845 -90.669554 -74.498845 z " /></g></svg>
