<?xml version="1.0" encoding="UTF-8" standalone="no"?>
<!-- Created with Inkscape (http://www.inkscape.org/) -->

<svg
   width="172.6701mm"
   height="172.6701mm"
   viewBox="0 0 172.6701 172.6701"
   version="1.1"
   id="svg1"
   xml:space="preserve"
   xmlns="http://www.w3.org/2000/svg"
   xmlns:svg="http://www.w3.org/2000/svg"><defs
     id="defs1" /><g
     id="layer1"
     transform="translate(157.25102,198.81012)"><path
       id="path5"
       style="fill:#ffffff;fill-opacity:1;stroke-width:0.805188;stroke-linecap:round;stroke-linejoin:round"
       d="M -2.0863309 -198.17657 L -10.088943 -183.11289 L -10.930235 -165.68398 L -19.198981 -165.68398 L -11.423229 -155.47426 L -12.166336 -140.07934 C -28.353216 -157.12094 -50.823548 -166.77435 -74.327399 -166.78417 C -103.64471 -166.77397 -130.92652 -151.79225 -146.66717 -127.05894 L -157.25102 -127.05894 L -149.61996 -115.86014 L -157.25102 -26.140039 L -8.5138455 -26.140039 L 15.419061 -26.140039 L 8.0799737 -154.80195 L 15.419061 -165.68398 L 7.4593397 -165.68398 L 6.4490654 -183.39297 L -2.0863309 -198.17657 z M -83.43072 -192.21621 C -85.584619 -189.65499 -86.77489 -186.4211 -86.795372 -183.07465 C -86.842092 -175.15518 -80.459903 -168.69733 -72.540428 -168.65072 C -64.621155 -168.60402 -58.163395 -174.98588 -58.116503 -182.90515 C -58.102813 -186.26049 -59.266203 -189.5144 -61.404157 -192.10045 C -60.83125 -190.6836 -60.536835 -189.16959 -60.537027 -187.64129 C -60.575787 -181.07411 -65.930869 -175.78172 -72.498054 -175.82031 C -79.065241 -175.85911 -84.357627 -181.21415 -84.319038 -187.78134 C -84.309338 -189.30285 -84.007827 -190.80837 -83.43072 -192.21621 z M -115.03034 -119.90383 L -112.98964 -115.65241 C -124.44016 -110.72075 -131.32731 -103.12528 -133.65143 -92.865166 C -130.36365 -94.452366 -127.24617 -95.245899 -124.29851 -95.245899 C -118.62994 -95.245899 -114.18002 -93.715477 -110.94894 -90.654448 C -107.66116 -87.593418 -106.01694 -83.455306 -106.01694 -78.240218 C -106.01694 -75.009132 -106.89569 -72.118221 -108.65295 -69.567363 C -110.35352 -67.016505 -112.7627 -65.032415 -115.88042 -63.615271 C -118.94145 -62.198128 -122.45596 -61.489303 -126.42396 -61.489303 C -133.16956 -61.489303 -138.35636 -63.360105 -141.98425 -67.101363 C -145.55545 -70.842622 -147.34103 -76.255999 -147.34103 -83.341716 C -147.34103 -92.241376 -144.59199 -99.808775 -139.09347 -106.04421 C -133.53827 -112.33632 -125.5172 -116.95617 -115.03034 -119.90383 z M -57.210615 -119.64906 C -50.578384 -119.64906 -45.504871 -117.15466 -41.990355 -112.16631 C -38.419154 -107.23465 -36.633576 -100.06428 -36.633576 -90.654448 C -36.633576 -81.244616 -38.419154 -74.017081 -41.990355 -68.97205 C -45.504871 -63.983706 -50.578384 -61.489303 -57.210615 -61.489303 C -63.842846 -61.489303 -68.944422 -63.983706 -72.515624 -68.97205 C -76.086825 -74.017081 -77.872403 -81.244616 -77.872403 -90.654448 C -77.872403 -100.00759 -76.086825 -107.17797 -72.515624 -112.16631 C -68.944422 -117.15466 -63.842846 -119.64906 -57.210615 -119.64906 z M -12.315681 -119.56379 C -5.5700782 -119.56379 -0.41134078 -117.69351 3.1598605 -113.95225 C 6.7877476 -110.21099 8.6013889 -104.7971 8.6013889 -97.711381 C 8.6013889 -88.811721 5.8237662 -81.216258 0.26856415 -74.924142 C -5.2299522 -68.688711 -13.222439 -64.09693 -23.7093 -61.149272 L -25.750003 -65.400692 C -20.081429 -67.838179 -15.518229 -70.956182 -12.060399 -74.754126 C -8.6025692 -78.608756 -6.3066789 -83.086732 -5.1729642 -88.188448 C -8.3473653 -86.601248 -11.436788 -85.807715 -14.441132 -85.807715 C -20.109706 -85.807715 -24.587682 -87.338137 -27.875454 -90.399166 C -31.106541 -93.460196 -32.722187 -97.598308 -32.722187 -102.8134 C -32.722187 -106.04448 -31.87201 -108.93539 -30.171438 -111.48625 C -28.414181 -114.03711 -26.005002 -116.0212 -22.943972 -117.43834 C -19.826257 -118.85549 -16.283682 -119.56379 -12.315681 -119.56379 z M -57.210615 -115.31237 C -60.101587 -115.31237 -62.198965 -113.41351 -63.502737 -109.61556 C -64.749823 -105.81762 -65.373424 -99.497422 -65.373424 -90.654448 C -65.373424 -81.868159 -64.749823 -75.576025 -63.502737 -71.778081 C -62.198965 -68.036822 -60.101587 -66.16602 -57.210615 -66.16602 C -54.319642 -66.16602 -52.250845 -68.036822 -51.003758 -71.778081 C -49.699987 -75.576025 -49.047805 -81.868159 -49.047805 -90.654448 C -49.047805 -99.440737 -49.699987 -105.73287 -51.003758 -109.53081 C -52.250845 -113.38544 -54.319642 -115.31237 -57.210615 -115.31237 z M -12.825727 -113.69697 C -15.263214 -113.69697 -17.133499 -112.76157 -18.437271 -110.89094 C -19.741043 -109.02031 -20.393224 -106.35597 -20.393224 -102.89814 C -20.393224 -99.383629 -19.684399 -96.634587 -18.267255 -94.650586 C -16.793426 -92.723271 -14.724629 -91.759807 -12.060399 -91.759807 C -9.7362839 -91.759807 -7.1571736 -92.723271 -4.3228869 -94.650586 L -4.3228869 -95.755945 C -4.3228869 -101.93469 -5.0031315 -106.46931 -6.3635892 -109.36028 C -7.7240468 -112.25126 -9.8780688 -113.69697 -12.825727 -113.69697 z M -91.05196 -101.28274 C -89.067959 -101.28274 -87.594182 -100.68772 -86.630524 -99.497319 C -85.610181 -98.363604 -85.099868 -96.776539 -85.099868 -94.735852 C -85.099868 -92.695166 -85.610181 -91.107584 -86.630524 -89.973869 C -87.594182 -88.840154 -89.067959 -88.273198 -91.05196 -88.273198 C -93.035961 -88.273198 -94.538318 -88.840154 -95.558662 -89.973869 C -96.522319 -91.16427 -97.004051 -92.751852 -97.004051 -94.735852 C -97.004051 -96.833225 -96.522319 -98.448354 -95.558662 -99.582068 C -94.538318 -100.71578 -93.035961 -101.28274 -91.05196 -101.28274 z M -126.67924 -89.293807 C -129.06004 -89.293807 -131.63915 -88.330343 -134.41675 -86.403028 L -134.41675 -85.297669 C -134.41675 -79.118924 -133.73651 -74.583787 -132.37605 -71.692814 C -131.01559 -68.801842 -128.86157 -67.356645 -125.91391 -67.356645 C -123.47643 -67.356645 -121.60563 -68.291529 -120.30185 -70.162159 C -118.99808 -72.032788 -118.34642 -74.697123 -118.34642 -78.154952 C -118.34642 -81.669468 -119.08331 -84.390447 -120.55714 -86.317762 C -121.97428 -88.301762 -124.01501 -89.293807 -126.67924 -89.293807 z M -91.05196 -74.498845 C -89.067959 -74.498845 -87.594182 -73.903824 -86.630524 -72.713424 C -85.610181 -71.579709 -85.099868 -69.992127 -85.099868 -67.951441 C -85.099868 -65.910754 -85.610181 -64.323689 -86.630524 -63.189974 C -87.594182 -62.05626 -89.067959 -61.489303 -91.05196 -61.489303 C -93.035961 -61.489303 -94.538318 -62.05626 -95.558662 -63.189974 C -96.522319 -64.380375 -97.004051 -65.96744 -97.004051 -67.951441 C -97.004051 -70.048813 -96.522319 -71.664459 -95.558662 -72.798173 C -94.538318 -73.931888 -93.035961 -74.498845 -91.05196 -74.498845 z " /></g></svg>
