<?xml version="1.0" encoding="UTF-8" standalone="no"?>
<!-- Created with Inkscape (http://www.inkscape.org/) -->

<svg
   width="172.6701mm"
   height="172.6701mm"
   viewBox="0 0 172.6701 172.6701"
   version="1.1"
   id="svg1"
   xml:space="preserve"
   xmlns="http://www.w3.org/2000/svg"
   xmlns:svg="http://www.w3.org/2000/svg"><defs
     id="defs1" /><g
     id="layer1"
     transform="translate(157.25102,198.81012)"><path
       id="path5"
       style="fill:#ffffff;fill-opacity:1;stroke-width:0.805188;stroke-linecap:round;stroke-linejoin:round"
       d="M -2.0863309 -198.17657 L -10.088943 -183.11289 L -10.930235 -165.68398 L -19.198981 -165.68398 L -11.423229 -155.47426 L -12.166336 -140.07934 C -28.353216 -157.12094 -50.823548 -166.77435 -74.327399 -166.78417 C -103.64471 -166.77397 -130.92652 -151.79225 -146.66717 -127.05894 L -157.25102 -127.05894 L -149.61996 -115.86014 L -157.25102 -26.140039 L -8.5138455 -26.140039 L 15.419061 -26.140039 L 8.0799737 -154.80195 L 15.419061 -165.68398 L 7.4593397 -165.68398 L 6.4490654 -183.39297 L -2.0863309 -198.17657 z M -83.43072 -192.21621 C -85.584619 -189.65499 -86.77489 -186.4211 -86.795372 -183.07465 C -86.842092 -175.15518 -80.459903 -168.69733 -72.540428 -168.65072 C -64.621155 -168.60402 -58.163395 -174.98588 -58.116503 -182.90515 C -58.102813 -186.26049 -59.266203 -189.5144 -61.404157 -192.10045 C -60.83125 -190.6836 -60.536835 -189.16959 -60.537027 -187.64129 C -60.575787 -181.07411 -65.930869 -175.78172 -72.498054 -175.82031 C -79.065241 -175.85911 -84.357627 -181.21415 -84.319038 -187.78134 C -84.309338 -189.30285 -84.007827 -190.80837 -83.43072 -192.21621 z M -57.933568 -119.64906 C -51.301337 -119.64906 -46.227824 -117.15466 -42.713308 -112.16631 C -39.142107 -107.23465 -37.356529 -100.06428 -37.356529 -90.654448 C -37.356529 -81.244616 -39.142107 -74.017081 -42.713308 -68.97205 C -46.227824 -63.983706 -51.301337 -61.489303 -57.933568 -61.489303 C -64.565799 -61.489303 -69.667376 -63.983706 -73.238577 -68.97205 C -76.809778 -74.017081 -78.595356 -81.244616 -78.595356 -90.654448 C -78.595356 -100.00759 -76.809778 -107.17797 -73.238577 -112.16631 C -69.667376 -117.15466 -64.565799 -119.64906 -57.933568 -119.64906 z M -12.61282 -119.64906 C -5.9805891 -119.64906 -0.90759287 -117.15466 2.6069227 -112.16631 C 6.178124 -107.23465 7.9637017 -100.06428 7.9637017 -90.654448 C 7.9637017 -81.244616 6.178124 -74.017081 2.6069227 -68.97205 C -0.90759287 -63.983706 -5.9805891 -61.489303 -12.61282 -61.489303 C -19.245051 -61.489303 -24.347145 -63.983706 -27.918346 -68.97205 C -31.489547 -74.017081 -33.275125 -81.244616 -33.275125 -90.654448 C -33.275125 -100.00759 -31.489547 -107.17797 -27.918346 -112.16631 C -24.347145 -117.15466 -19.245051 -119.64906 -12.61282 -119.64906 z M -139.47588 -119.05375 L -135.22446 -118.969 C -129.21577 -118.85563 -126.04112 -118.79847 -125.70101 -118.79847 L -113.62733 -118.969 L -111.16133 -117.18306 L -111.92665 -110.72092 L -133.01374 -110.72092 L -134.20436 -96.521273 C -131.25671 -97.258188 -128.59237 -97.626632 -126.21157 -97.626632 C -120.59968 -97.626632 -116.03648 -96.124274 -112.52197 -93.11993 C -108.95077 -90.172272 -107.16519 -85.836165 -107.16519 -80.110905 C -107.16519 -76.539704 -108.01536 -73.336993 -109.71594 -70.502706 C -111.35982 -67.66842 -113.74042 -65.429173 -116.85814 -63.785287 C -119.97585 -62.198086 -123.66081 -61.404554 -127.91224 -61.404554 C -131.37007 -61.404554 -134.51614 -61.886286 -137.35043 -62.849943 C -140.12803 -63.813601 -142.31011 -65.14551 -143.89731 -66.846082 C -145.48451 -68.60334 -146.27805 -70.559366 -146.27805 -72.713424 C -146.27805 -74.980853 -145.65445 -76.709787 -144.40736 -77.900188 C -143.16027 -79.147274 -141.62985 -79.770358 -139.81591 -79.770358 C -138.79557 -79.770358 -137.77546 -79.572362 -136.75511 -79.175562 C -135.67808 -78.778762 -134.7141 -78.211805 -133.86382 -77.474891 C -134.37399 -76.28449 -134.62915 -75.037289 -134.62915 -73.733517 C -134.62915 -71.862888 -134.09077 -70.332466 -133.01374 -69.142066 C -131.88003 -67.951665 -130.17967 -67.356645 -127.91224 -67.356645 C -122.81053 -67.356645 -120.25948 -71.608045 -120.25948 -80.110905 C -120.25948 -84.135593 -121.05301 -87.054567 -122.64021 -88.86851 C -124.22741 -90.73914 -126.35337 -91.674541 -129.0176 -91.674541 C -130.66149 -91.674541 -132.41848 -91.36274 -134.28911 -90.739197 C -136.15974 -90.115654 -138.00196 -89.236897 -139.81591 -88.103182 L -144.49263 -92.609884 L -142.28191 -116.75776 L -139.47588 -119.05375 z M -57.933568 -115.31237 C -60.824541 -115.31237 -62.921919 -113.41351 -64.22569 -109.61556 C -65.472777 -105.81762 -66.09586 -99.497422 -66.09586 -90.654448 C -66.09586 -81.868159 -65.472777 -75.576025 -64.22569 -71.778081 C -62.921919 -68.036822 -60.824541 -66.16602 -57.933568 -66.16602 C -55.042596 -66.16602 -52.973281 -68.036822 -51.726195 -71.778081 C -50.422423 -75.576025 -49.770759 -81.868159 -49.770759 -90.654448 C -49.770759 -99.440737 -50.422423 -105.73287 -51.726195 -109.53081 C -52.973281 -113.38544 -55.042596 -115.31237 -57.933568 -115.31237 z M -12.61282 -115.31237 C -15.503793 -115.31237 -17.601171 -113.41351 -18.904943 -109.61556 C -20.152029 -105.81762 -20.775629 -99.497422 -20.775629 -90.654448 C -20.775629 -81.868159 -20.152029 -75.576025 -18.904943 -71.778081 C -17.601171 -68.036822 -15.503793 -66.16602 -12.61282 -66.16602 C -9.7218476 -66.16602 -7.65305 -68.036822 -6.4059638 -71.778081 C -5.1021919 -75.576025 -4.4505276 -81.868159 -4.4505276 -90.654448 C -4.4505276 -99.440737 -5.1021919 -105.73287 -6.4059638 -109.53081 C -7.65305 -113.38544 -9.7218476 -115.31237 -12.61282 -115.31237 z M -91.774913 -101.28274 C -89.790913 -101.28274 -88.317135 -100.68772 -87.353478 -99.497319 C -86.333134 -98.363604 -85.822822 -96.776539 -85.822822 -94.735852 C -85.822822 -92.695166 -86.333134 -91.107584 -87.353478 -89.973869 C -88.317135 -88.840154 -89.790913 -88.273198 -91.774913 -88.273198 C -93.758914 -88.273198 -95.260755 -88.840154 -96.281098 -89.973869 C -97.244756 -91.16427 -97.727005 -92.751852 -97.727005 -94.735852 C -97.727005 -96.833225 -97.244756 -98.448354 -96.281098 -99.582068 C -95.260755 -100.71578 -93.758914 -101.28274 -91.774913 -101.28274 z M -91.774913 -74.498845 C -89.790913 -74.498845 -88.317135 -73.903824 -87.353478 -72.713424 C -86.333134 -71.579709 -85.822822 -69.992127 -85.822822 -67.951441 C -85.822822 -65.910754 -86.333134 -64.323689 -87.353478 -63.189974 C -88.317135 -62.05626 -89.790913 -61.489303 -91.774913 -61.489303 C -93.758914 -61.489303 -95.260755 -62.05626 -96.281098 -63.189974 C -97.244756 -64.380375 -97.727005 -65.96744 -97.727005 -67.951441 C -97.727005 -70.048813 -97.244756 -71.664459 -96.281098 -72.798173 C -95.260755 -73.931888 -93.758914 -74.498845 -91.774913 -74.498845 z " /></g></svg>
