<?xml version="1.0" encoding="UTF-8" standalone="no"?>
<!-- Created with Inkscape (http://www.inkscape.org/) -->

<svg
   width="172.6701mm"
   height="172.6701mm"
   viewBox="0 0 172.6701 172.6701"
   version="1.1"
   id="svg1"
   xml:space="preserve"
   xmlns="http://www.w3.org/2000/svg"
   xmlns:svg="http://www.w3.org/2000/svg"><defs
     id="defs1" /><g
     id="layer1"
     transform="translate(157.25102,198.81012)"><path
       id="path5"
       style="fill:#ffffff;fill-opacity:1;stroke-width:0.805188;stroke-linecap:round;stroke-linejoin:round"
       d="M -2.0863309 -198.17657 L -10.088943 -183.11289 L -10.930235 -165.68398 L -19.198981 -165.68398 L -11.423229 -155.47426 L -12.166336 -140.07934 C -28.353216 -157.12094 -50.823548 -166.77435 -74.327399 -166.78417 C -103.64471 -166.77397 -130.92652 -151.79225 -146.66717 -127.05894 L -157.25102 -127.05894 L -149.61996 -115.86014 L -157.25102 -26.140039 L -8.5138455 -26.140039 L 15.419061 -26.140039 L 8.0799737 -154.80195 L 15.419061 -165.68398 L 7.4593397 -165.68398 L 6.4490654 -183.39297 L -2.0863309 -198.17657 z M -83.43072 -192.21621 C -85.584619 -189.65499 -86.77489 -186.4211 -86.795372 -183.07465 C -86.842092 -175.15518 -80.459903 -168.69733 -72.540428 -168.65072 C -64.621155 -168.60402 -58.163395 -174.98588 -58.116503 -182.90515 C -58.102813 -186.26049 -59.266203 -189.5144 -61.404157 -192.10045 C -60.83125 -190.6836 -60.536835 -189.16959 -60.537027 -187.64129 C -60.575787 -181.07411 -65.930869 -175.78172 -72.498054 -175.82031 C -79.065241 -175.85911 -84.357627 -181.21415 -84.319038 -187.78134 C -84.309338 -189.30285 -84.007827 -190.80837 -83.43072 -192.21621 z M -14.568773 -119.81908 C -8.6167709 -119.81908 -3.8836386 -118.54381 -0.36912303 -115.99295 C 3.1453925 -113.44209 4.9029066 -110.01229 4.9029066 -105.70418 C 4.9029066 -103.38006 4.0527299 -101.05611 2.3521579 -98.731991 C 0.65158585 -96.407876 -1.5876605 -94.50901 -4.3652615 -93.035181 C -0.85074596 -91.334609 1.8982963 -89.350519 3.8822971 -87.08309 C 5.9229835 -84.81566 6.9436089 -81.896169 6.9436089 -78.324968 C 6.9436089 -73.166566 5.0728069 -69.057034 1.3315484 -65.996005 C -2.4097102 -62.991661 -7.4546428 -61.489303 -13.803445 -61.489303 C -20.775791 -61.489303 -26.161104 -62.878373 -29.959048 -65.655974 C -33.700307 -68.433575 -35.570592 -72.401238 -35.570592 -77.55964 C -35.570592 -80.223869 -34.720415 -82.86014 -33.019843 -85.467684 C -31.319271 -88.131914 -28.938673 -90.483931 -25.877644 -92.524618 C -28.428502 -93.941761 -30.412592 -95.642631 -31.829735 -97.626632 C -33.246878 -99.610633 -33.955187 -102.07646 -33.955187 -105.02411 C -33.955187 -109.55897 -32.198189 -113.15871 -28.683674 -115.82294 C -25.169158 -118.48717 -20.46409 -119.81908 -14.568773 -119.81908 z M -127.06165 -119.73381 C -121.22302 -119.73381 -116.57459 -118.28861 -113.11676 -115.39764 C -109.65893 -112.56335 -107.93 -108.56711 -107.93 -103.40871 C -107.93 -98.873849 -109.65893 -94.026912 -113.11676 -88.86851 C -116.57459 -83.766794 -122.27171 -77.616529 -130.20771 -70.41744 L -107.3352 -70.41744 L -107.3352 -62.084615 L -145.85275 -62.084615 L -145.85275 -67.016097 C -139.56063 -73.081471 -134.65757 -78.268272 -131.14305 -82.576388 C -127.62854 -86.884504 -125.10607 -90.852684 -123.57556 -94.480571 C -121.98836 -98.108458 -121.19482 -101.84955 -121.19482 -105.70418 C -121.19482 -111.82623 -123.23556 -114.88759 -127.31693 -114.88759 C -129.13087 -114.88759 -130.60465 -114.0369 -131.73837 -112.33633 C -132.87208 -110.69244 -133.43852 -108.65171 -133.43852 -106.21422 C -133.43852 -104.51365 -132.8435 -102.89852 -131.6531 -101.36801 C -132.61676 -100.46103 -133.72209 -99.752209 -134.96918 -99.242037 C -136.15958 -98.731866 -137.35013 -98.476709 -138.54053 -98.476709 C -140.58122 -98.476709 -142.28157 -99.10031 -143.64203 -100.3474 C -145.00249 -101.65117 -145.68273 -103.52197 -145.68273 -105.95946 C -145.68273 -108.567 -144.91778 -110.91953 -143.38727 -113.01691 C -141.85675 -115.11428 -139.70273 -116.75799 -136.92513 -117.94839 C -134.09084 -119.13879 -130.80291 -119.73381 -127.06165 -119.73381 z M -60.144286 -119.73381 C -54.305655 -119.73381 -49.65723 -118.28861 -46.199401 -115.39764 C -42.741571 -112.56335 -41.012637 -108.56711 -41.012637 -103.40871 C -41.012637 -98.873849 -42.741571 -94.026912 -46.199401 -88.86851 C -49.65723 -83.766794 -55.354344 -77.616529 -63.290347 -70.41744 L -40.417325 -70.41744 L -40.417325 -62.084615 L -78.935387 -62.084615 L -78.935387 -67.016097 C -72.64327 -73.081471 -67.739689 -78.268272 -64.225174 -82.576388 C -60.710658 -86.884504 -58.188192 -90.852684 -56.657677 -94.480571 C -55.070476 -98.108458 -54.276944 -101.84955 -54.276944 -105.70418 C -54.276944 -111.82623 -56.317678 -114.88759 -60.399051 -114.88759 C -62.212994 -114.88759 -63.686771 -114.0369 -64.820486 -112.33633 C -65.954201 -110.69244 -66.521158 -108.65171 -66.521158 -106.21422 C -66.521158 -104.51365 -65.926137 -102.89852 -64.735737 -101.36801 C -65.699394 -100.46103 -66.804727 -99.752209 -68.051813 -99.242037 C -69.242214 -98.731866 -70.432254 -98.476709 -71.622655 -98.476709 C -73.663341 -98.476709 -75.364211 -99.10031 -76.724669 -100.3474 C -78.085127 -101.65117 -78.765371 -103.52197 -78.765371 -105.95946 C -78.765371 -108.567 -77.999902 -110.91953 -76.469388 -113.01691 C -74.938873 -115.11428 -72.784851 -116.75799 -70.00725 -117.94839 C -67.172963 -119.13879 -63.885544 -119.73381 -60.144286 -119.73381 z M -14.568773 -113.78224 C -16.836202 -113.78224 -18.62178 -113.04535 -19.925552 -111.57152 C -21.229324 -110.15437 -21.880988 -108.22693 -21.880988 -105.78944 C -21.880988 -103.63538 -21.059392 -101.84981 -19.415506 -100.43266 C -17.714934 -99.072205 -15.249111 -97.711715 -12.018024 -96.351258 C -10.600881 -97.314915 -9.4669676 -98.646824 -8.6166816 -100.3474 C -7.7663956 -102.04797 -7.3413073 -103.86213 -7.3413073 -105.78944 C -7.3413073 -108.22693 -8.0215519 -110.15437 -9.3820096 -111.57152 C -10.685781 -113.04535 -12.414715 -113.78224 -14.568773 -113.78224 z M -92.199694 -101.28274 C -90.215693 -101.28274 -88.741915 -100.68772 -87.778258 -99.497319 C -86.757915 -98.363604 -86.248119 -96.776539 -86.248119 -94.735852 C -86.248119 -92.695166 -86.757915 -91.107584 -87.778258 -89.973869 C -88.741915 -88.840154 -90.215693 -88.273198 -92.199694 -88.273198 C -94.183694 -88.273198 -95.686052 -88.840154 -96.706395 -89.973869 C -97.670053 -91.16427 -98.151785 -92.751852 -98.151785 -94.735852 C -98.151785 -96.833225 -97.670053 -98.448354 -96.706395 -99.582068 C -95.686052 -100.71578 -94.183694 -101.28274 -92.199694 -101.28274 z M -18.054865 -89.038526 C -19.755437 -87.678068 -21.002639 -86.119583 -21.796239 -84.362325 C -22.589839 -82.605068 -22.986347 -80.50769 -22.986347 -78.070203 C -22.986347 -74.725745 -22.164751 -72.089474 -20.520865 -70.162159 C -18.876978 -68.291529 -16.637732 -67.356645 -13.803445 -67.356645 C -11.025844 -67.356645 -8.8718221 -68.291529 -7.3413073 -70.162159 C -5.7541067 -72.032788 -4.960574 -74.640479 -4.960574 -77.984937 C -4.960574 -79.855566 -5.5555943 -81.442631 -6.7459948 -82.746403 C -7.8797095 -84.106861 -9.3254232 -85.212194 -11.082681 -86.06248 C -12.839939 -86.969452 -15.163893 -87.961497 -18.054865 -89.038526 z M -92.199694 -74.498845 C -90.215693 -74.498845 -88.741915 -73.903824 -87.778258 -72.713424 C -86.757915 -71.579709 -86.248119 -69.992127 -86.248119 -67.951441 C -86.248119 -65.910754 -86.757915 -64.323689 -87.778258 -63.189974 C -88.741915 -62.05626 -90.215693 -61.489303 -92.199694 -61.489303 C -94.183694 -61.489303 -95.686052 -62.05626 -96.706395 -63.189974 C -97.670053 -64.380375 -98.151785 -65.96744 -98.151785 -67.951441 C -98.151785 -70.048813 -97.670053 -71.664459 -96.706395 -72.798173 C -95.686052 -73.931888 -94.183694 -74.498845 -92.199694 -74.498845 z " /></g></svg>
