<?xml version="1.0" encoding="UTF-8" standalone="no"?>
<!-- Created with Inkscape (http://www.inkscape.org/) -->

<svg
   width="172.6701mm"
   height="172.6701mm"
   viewBox="0 0 172.6701 172.6701"
   version="1.1"
   id="svg1"
   xml:space="preserve"
   xmlns="http://www.w3.org/2000/svg"
   xmlns:svg="http://www.w3.org/2000/svg"><defs
     id="defs1" /><g
     id="layer1"
     transform="translate(157.25102,198.81012)"><path
       id="path5"
       style="fill:#ffffff;fill-opacity:1;stroke-width:0.805188;stroke-linecap:round;stroke-linejoin:round"
       d="M -2.0863309 -198.17657 L -10.088943 -183.11289 L -10.930235 -165.68398 L -19.198981 -165.68398 L -11.423229 -155.47426 L -12.166336 -140.07934 C -28.353216 -157.12094 -50.823548 -166.77435 -74.327399 -166.78417 C -103.64471 -166.77397 -130.92652 -151.79225 -146.66717 -127.05894 L -157.25102 -127.05894 L -149.61996 -115.86014 L -157.25102 -26.140039 L -8.5138455 -26.140039 L 15.419061 -26.140039 L 8.0799737 -154.80195 L 15.419061 -165.68398 L 7.4593397 -165.68398 L 6.4490654 -183.39297 L -2.0863309 -198.17657 z M -83.43072 -192.21621 C -85.584619 -189.65499 -86.77489 -186.4211 -86.795372 -183.07465 C -86.842092 -175.15518 -80.459903 -168.69733 -72.540428 -168.65072 C -64.621155 -168.60402 -58.163395 -174.98588 -58.116503 -182.90515 C -58.102813 -186.26049 -59.266203 -189.5144 -61.404157 -192.10045 C -60.83125 -190.6836 -60.536835 -189.16959 -60.537027 -187.64129 C -60.575787 -181.07411 -65.930869 -175.78172 -72.498054 -175.82031 C -79.065241 -175.85911 -84.357627 -181.21415 -84.319038 -187.78134 C -84.309338 -189.30285 -84.007827 -190.80837 -83.43072 -192.21621 z M -106.01177 -133.25443 C -96.317342 -133.25443 -88.599505 -130.85399 -82.858145 -126.05384 C -77.116784 -121.3478 -74.245751 -114.71254 -74.245751 -106.14756 C -74.245751 -98.617906 -77.116784 -90.570344 -82.858145 -82.005363 C -88.599505 -73.534503 -98.058331 -63.322832 -111.23522 -51.369507 L -73.257697 -51.369507 L -73.257697 -37.533659 L -137.21297 -37.533659 L -137.21297 -45.722307 C -126.76557 -55.793218 -118.6241 -64.404768 -112.78862 -71.557939 C -106.95314 -78.71111 -102.76475 -85.299935 -100.22349 -91.323658 C -97.588114 -97.34738 -96.270246 -103.55901 -96.270246 -109.95921 C -96.270246 -120.12424 -99.658829 -125.20686 -106.43552 -125.20686 C -109.44738 -125.20686 -111.89426 -123.79508 -113.77667 -120.97146 C -115.65908 -118.24196 -116.60027 -114.85389 -116.60027 -110.80671 C -116.60027 -107.98309 -115.61213 -105.30039 -113.63559 -102.75914 C -115.23565 -101.2532 -117.07106 -100.07672 -119.14172 -99.229635 C -121.11825 -98.382549 -123.09454 -97.958912 -125.07107 -97.958912 C -128.45942 -97.958912 -131.28298 -98.994527 -133.54187 -101.06518 C -135.80077 -103.22996 -136.9303 -106.33577 -136.9303 -110.38296 C -136.9303 -114.71251 -135.6599 -118.61864 -133.11864 -122.10111 C -130.57738 -125.58357 -127.00046 -128.3127 -122.38855 -130.28924 C -117.68252 -132.26577 -112.22373 -133.25443 -106.01177 -133.25443 z M -34.433194 -133.25443 C -24.738765 -133.25443 -17.020412 -130.85399 -11.279051 -126.05384 C -5.5376908 -121.3478 -2.667174 -114.71254 -2.667174 -106.14756 C -2.667174 -98.617906 -5.5376908 -90.570344 -11.279051 -82.005363 C -17.020412 -73.534503 -26.479754 -63.322832 -39.656647 -51.369507 L -1.6791206 -51.369507 L -1.6791206 -37.533659 L -65.633873 -37.533659 L -65.633873 -45.722307 C -55.186479 -55.793218 -47.045006 -64.404768 -41.209524 -71.557939 C -35.374043 -78.71111 -31.185658 -85.299935 -28.6444 -91.323658 C -26.009021 -97.34738 -24.691669 -103.55901 -24.691669 -109.95921 C -24.691669 -120.12424 -28.079736 -125.20686 -34.856424 -125.20686 C -37.868285 -125.20686 -40.315681 -123.79508 -42.198094 -120.97146 C -44.080508 -118.24196 -45.021695 -114.85389 -45.021695 -110.80671 C -45.021695 -107.98309 -44.033035 -105.30039 -42.056501 -102.75914 C -43.656552 -101.2532 -45.49197 -100.07672 -47.562625 -99.229635 C -49.539159 -98.382549 -51.515961 -97.958912 -53.492495 -97.958912 C -56.880839 -97.958912 -59.7044 -98.994527 -61.963296 -101.06518 C -64.222192 -103.22996 -65.35172 -106.33577 -65.35172 -110.38296 C -65.35172 -114.71251 -64.080807 -118.61864 -61.539549 -122.10111 C -58.998291 -125.58357 -55.421884 -128.3127 -50.809972 -130.28924 C -46.103938 -132.26577 -40.645158 -133.25443 -34.433194 -133.25443 z " /></g></svg>
