<?xml version="1.0" encoding="UTF-8" standalone="no"?>
<!-- Created with Inkscape (http://www.inkscape.org/) -->

<svg
   width="172.6701mm"
   height="172.6701mm"
   viewBox="0 0 172.6701 172.6701"
   version="1.1"
   id="svg1"
   xml:space="preserve"
   xmlns="http://www.w3.org/2000/svg"
   xmlns:svg="http://www.w3.org/2000/svg"><defs
     id="defs1" /><g
     id="layer1"
     transform="translate(157.25102,198.81012)"><path
       id="path5"
       style="fill:#ffffff;fill-opacity:1;stroke-width:0.805188;stroke-linecap:round;stroke-linejoin:round"
       d="M -2.0863309 -198.17657 L -10.088943 -183.11289 L -10.930235 -165.68398 L -19.198981 -165.68398 L -11.423229 -155.47426 L -12.166336 -140.07934 C -28.353216 -157.12094 -50.823548 -166.77435 -74.327399 -166.78417 C -103.64471 -166.77397 -130.92652 -151.79225 -146.66717 -127.05894 L -157.25102 -127.05894 L -149.61996 -115.86014 L -157.25102 -26.140039 L -8.5138455 -26.140039 L 15.419061 -26.140039 L 8.0799737 -154.80195 L 15.419061 -165.68398 L 7.4593397 -165.68398 L 6.4490654 -183.39297 L -2.0863309 -198.17657 z M -83.43072 -192.21621 C -85.584619 -189.65499 -86.77489 -186.4211 -86.795372 -183.07465 C -86.842092 -175.15518 -80.459903 -168.69733 -72.540428 -168.65072 C -64.621155 -168.60402 -58.163395 -174.98588 -58.116503 -182.90515 C -58.102813 -186.26049 -59.266203 -189.5144 -61.404157 -192.10045 C -60.83125 -190.6836 -60.536835 -189.16959 -60.537027 -187.64129 C -60.575787 -181.07411 -65.930869 -175.78172 -72.498054 -175.82031 C -79.065241 -175.85911 -84.357627 -181.21415 -84.319038 -187.78134 C -84.309338 -189.30285 -84.007827 -190.80837 -83.43072 -192.21621 z M -125.40335 -119.73381 C -121.71878 -119.73381 -118.45942 -119.11073 -115.62514 -117.86364 C -112.79085 -116.67324 -110.58018 -114.97237 -108.99298 -112.76163 C -107.40578 -110.60757 -106.61225 -108.11368 -106.61225 -105.27939 C -106.61225 -102.10499 -107.54765 -99.384015 -109.41828 -97.116586 C -111.28891 -94.849156 -114.06653 -93.120223 -117.75111 -91.929822 C -113.10288 -90.909479 -109.84352 -89.237189 -107.97289 -86.913074 C -106.10226 -84.588959 -105.16686 -81.442892 -105.16686 -77.474891 C -105.16686 -74.017061 -106.21555 -71.069506 -108.31292 -68.632019 C -110.35361 -66.194533 -113.01743 -64.380375 -116.3052 -63.189974 C -119.59297 -61.999574 -122.99419 -61.404554 -126.50871 -61.404554 C -131.61043 -61.404554 -135.94705 -62.453243 -139.51825 -64.550615 C -143.03277 -66.647987 -144.79028 -69.510317 -144.79028 -73.138204 C -144.79028 -75.235577 -144.16668 -76.851222 -142.9196 -77.984937 C -141.67251 -79.175337 -140.11351 -79.770358 -138.24288 -79.770358 C -136.31556 -79.770358 -134.36005 -79.005405 -132.37605 -77.474891 C -132.88622 -76.397862 -133.14086 -75.094016 -133.14086 -73.563501 C -133.14086 -71.749558 -132.60249 -70.275781 -131.52546 -69.142066 C -130.39174 -68.008351 -128.71945 -67.441394 -126.50871 -67.441394 C -121.63374 -67.441394 -119.1965 -70.814037 -119.1965 -77.55964 C -119.1965 -81.244213 -120.38705 -84.10706 -122.76785 -86.147746 C -125.09197 -88.188433 -128.40797 -89.208541 -132.71608 -89.208541 L -132.71608 -94.480571 C -124.38328 -95.1608 -120.21659 -98.760535 -120.21659 -105.27939 C -120.21659 -108.56717 -120.7269 -110.97583 -121.74724 -112.50634 C -122.76759 -114.09354 -124.15666 -114.88759 -125.91391 -114.88759 C -128.01129 -114.88759 -129.59835 -114.15071 -130.67538 -112.67688 C -131.69572 -111.20305 -132.20604 -109.41747 -132.20604 -107.3201 C -132.20604 -105.44947 -131.80901 -103.77718 -131.01541 -102.30335 C -132.60261 -100.60278 -134.64335 -99.752084 -137.13752 -99.752084 C -139.40495 -99.752084 -141.16195 -100.43233 -142.40903 -101.79279 C -143.65612 -103.15324 -144.27972 -104.91076 -144.27972 -107.06482 C -144.27972 -109.8991 -143.31625 -112.25164 -141.38894 -114.12227 C -139.40494 -116.04958 -136.96718 -117.46671 -134.07621 -118.37369 C -131.12855 -119.28066 -128.23764 -119.73381 -125.40335 -119.73381 z M -58.400723 -119.73381 C -54.71615 -119.73381 -51.456795 -119.11073 -48.622508 -117.86364 C -45.788222 -116.67324 -43.577556 -114.97237 -41.990355 -112.76163 C -40.403155 -110.60757 -39.609622 -108.11368 -39.609622 -105.27939 C -39.609622 -102.10499 -40.545023 -99.384015 -42.415652 -97.116586 C -44.286281 -94.849156 -47.063904 -93.120223 -50.748477 -91.929822 C -46.100247 -90.909479 -42.840892 -89.237189 -40.970262 -86.913074 C -39.099633 -84.588959 -38.164232 -81.442892 -38.164232 -77.474891 C -38.164232 -74.017061 -39.212921 -71.069506 -41.310293 -68.632019 C -43.35098 -66.194533 -46.015314 -64.380375 -49.303087 -63.189974 C -52.59086 -61.999574 -55.991566 -61.404554 -59.506082 -61.404554 C -64.607798 -61.404554 -68.944422 -62.453243 -72.515624 -64.550615 C -76.030139 -66.647987 -77.787653 -69.510317 -77.787653 -73.138204 C -77.787653 -75.235577 -77.164053 -76.851222 -75.916966 -77.984937 C -74.66988 -79.175337 -73.110879 -79.770358 -71.240249 -79.770358 C -69.312934 -79.770358 -67.357425 -79.005405 -65.373424 -77.474891 C -65.883596 -76.397862 -66.138752 -75.094016 -66.138752 -73.563501 C -66.138752 -71.749558 -65.599859 -70.275781 -64.52283 -69.142066 C -63.389115 -68.008351 -61.716826 -67.441394 -59.506082 -67.441394 C -54.631109 -67.441394 -52.193867 -70.814037 -52.193867 -77.55964 C -52.193867 -81.244213 -53.384424 -84.10706 -55.765225 -86.147746 C -58.08934 -88.188433 -61.405339 -89.208541 -65.713455 -89.208541 L -65.713455 -94.480571 C -57.380652 -95.1608 -53.214476 -98.760535 -53.214476 -105.27939 C -53.214476 -108.56717 -53.724272 -110.97583 -54.744615 -112.50634 C -55.764959 -114.09354 -57.154028 -114.88759 -58.911286 -114.88759 C -61.008658 -114.88759 -62.595724 -114.15071 -63.672753 -112.67688 C -64.693096 -111.20305 -65.203409 -109.41747 -65.203409 -107.3201 C -65.203409 -105.44947 -64.806384 -103.77718 -64.012784 -102.30335 C -65.599984 -100.60278 -67.640718 -99.752084 -70.13489 -99.752084 C -72.40232 -99.752084 -74.159834 -100.43233 -75.40692 -101.79279 C -76.654006 -103.15324 -77.27709 -104.91076 -77.27709 -107.06482 C -77.27709 -109.8991 -76.313626 -112.25164 -74.386311 -114.12227 C -72.40231 -116.04958 -69.965068 -117.46671 -67.074095 -118.37369 C -64.126437 -119.28066 -61.23501 -119.73381 -58.400723 -119.73381 z M -14.866429 -119.73381 C -9.0277986 -119.73381 -4.3793739 -118.28861 -0.92154409 -115.39764 C 2.5362858 -112.56335 4.2652194 -108.56711 4.2652194 -103.40871 C 4.2652194 -98.873849 2.5362858 -94.026912 -0.92154409 -88.86851 C -4.3793739 -83.766794 -10.076488 -77.616529 -18.012491 -70.41744 L 4.8600152 -70.41744 L 4.8600152 -62.084615 L -33.65753 -62.084615 L -33.65753 -67.016097 C -27.365414 -73.081471 -22.46235 -78.268272 -18.947834 -82.576388 C -15.433318 -86.884504 -12.910852 -90.852684 -11.380337 -94.480571 C -9.7931366 -98.108458 -8.999604 -101.84955 -8.999604 -105.70418 C -8.999604 -111.82623 -11.040338 -114.88759 -15.121711 -114.88759 C -16.935654 -114.88759 -18.409432 -114.0369 -19.543146 -112.33633 C -20.676861 -110.69244 -21.243301 -108.65171 -21.243301 -106.21422 C -21.243301 -104.51365 -20.648281 -102.89852 -19.45788 -101.36801 C -20.421538 -100.46103 -21.526871 -99.752209 -22.773957 -99.242037 C -23.964357 -98.731866 -25.154915 -98.476709 -26.345315 -98.476709 C -28.386002 -98.476709 -30.086355 -99.10031 -31.446813 -100.3474 C -32.80727 -101.65117 -33.487515 -103.52197 -33.487515 -105.95946 C -33.487515 -108.567 -32.722563 -110.91953 -31.192048 -113.01691 C -29.661533 -115.11428 -27.507511 -116.75799 -24.72991 -117.94839 C -21.895623 -119.13879 -18.607688 -119.73381 -14.866429 -119.73381 z M -90.116617 -101.28274 C -88.132616 -101.28274 -86.658838 -100.68772 -85.695181 -99.497319 C -84.674838 -98.363604 -84.164525 -96.776539 -84.164525 -94.735852 C -84.164525 -92.695166 -84.674838 -91.107584 -85.695181 -89.973869 C -86.658838 -88.840154 -88.132616 -88.273198 -90.116617 -88.273198 C -92.100617 -88.273198 -93.602975 -88.840154 -94.623318 -89.973869 C -95.586976 -91.16427 -96.068708 -92.751852 -96.068708 -94.735852 C -96.068708 -96.833225 -95.586976 -98.448354 -94.623318 -99.582068 C -93.602975 -100.71578 -92.100617 -101.28274 -90.116617 -101.28274 z M -90.116617 -74.498845 C -88.132616 -74.498845 -86.658838 -73.903824 -85.695181 -72.713424 C -84.674838 -71.579709 -84.164525 -69.992127 -84.164525 -67.951441 C -84.164525 -65.910754 -84.674838 -64.323689 -85.695181 -63.189974 C -86.658838 -62.05626 -88.132616 -61.489303 -90.116617 -61.489303 C -92.100617 -61.489303 -93.602975 -62.05626 -94.623318 -63.189974 C -95.586976 -64.380375 -96.068708 -65.96744 -96.068708 -67.951441 C -96.068708 -70.048813 -95.586976 -71.664459 -94.623318 -72.798173 C -93.602975 -73.931888 -92.100617 -74.498845 -90.116617 -74.498845 z " /></g></svg>
