<?xml version="1.0" encoding="UTF-8" standalone="no"?>
<!-- Created with Inkscape (http://www.inkscape.org/) -->

<svg
   width="172.6701mm"
   height="172.6701mm"
   viewBox="0 0 172.6701 172.6701"
   version="1.1"
   id="svg1"
   xml:space="preserve"
   xmlns="http://www.w3.org/2000/svg"
   xmlns:svg="http://www.w3.org/2000/svg"><defs
     id="defs1" /><g
     id="layer1"
     transform="translate(157.25102,198.81012)"><path
       id="path5"
       style="fill:#ffffff;fill-opacity:1;stroke-width:0.805188;stroke-linecap:round;stroke-linejoin:round"
       d="M -2.0863309 -198.17657 L -10.088943 -183.11289 L -10.930235 -165.68398 L -19.198981 -165.68398 L -11.423229 -155.47426 L -12.166336 -140.07934 C -28.353216 -157.12094 -50.823548 -166.77435 -74.327399 -166.78417 C -103.64471 -166.77397 -130.92652 -151.79225 -146.66717 -127.05894 L -157.25102 -127.05894 L -149.61996 -115.86014 L -157.25102 -26.140039 L -8.5138455 -26.140039 L 15.419061 -26.140039 L 8.0799737 -154.80195 L 15.419061 -165.68398 L 7.4593397 -165.68398 L 6.4490654 -183.39297 L -2.0863309 -198.17657 z M -83.43072 -192.21621 C -85.584619 -189.65499 -86.77489 -186.4211 -86.795372 -183.07465 C -86.842092 -175.15518 -80.459903 -168.69733 -72.540428 -168.65072 C -64.621155 -168.60402 -58.163395 -174.98588 -58.116503 -182.90515 C -58.102813 -186.26049 -59.266203 -189.5144 -61.404157 -192.10045 C -60.83125 -190.6836 -60.536835 -189.16959 -60.537027 -187.64129 C -60.575787 -181.07411 -65.930869 -175.78172 -72.498054 -175.82031 C -79.065241 -175.85911 -84.357627 -181.21415 -84.319038 -187.78134 C -84.309338 -189.30285 -84.007827 -190.80837 -83.43072 -192.21621 z M -114.98745 -119.90383 L -112.94675 -115.65241 C -124.39727 -110.72075 -131.28494 -103.12528 -133.60905 -92.865166 C -130.32128 -94.452366 -127.20328 -95.245899 -124.25562 -95.245899 C -118.58704 -95.245899 -114.13713 -93.715477 -110.90605 -90.654448 C -107.61827 -87.593418 -105.97456 -83.455306 -105.97456 -78.240218 C -105.97456 -75.009132 -106.85332 -72.118221 -108.61058 -69.567363 C -110.31115 -67.016505 -112.72033 -65.032415 -115.83804 -63.615271 C -118.89907 -62.198128 -122.41358 -61.489303 -126.38159 -61.489303 C -133.12719 -61.489303 -138.31399 -63.360105 -141.94188 -67.101363 C -145.51308 -70.842622 -147.29866 -76.255999 -147.29866 -83.341716 C -147.29866 -92.241376 -144.5491 -99.808775 -139.05058 -106.04421 C -133.49538 -112.33632 -125.47431 -116.95617 -114.98745 -119.90383 z M -57.16824 -119.64906 C -50.536009 -119.64906 -45.462496 -117.15466 -41.94798 -112.16631 C -38.376779 -107.23465 -36.591201 -100.06428 -36.591201 -90.654448 C -36.591201 -81.244616 -38.376779 -74.017081 -41.94798 -68.97205 C -45.462496 -63.983706 -50.536009 -61.489303 -57.16824 -61.489303 C -63.800471 -61.489303 -68.902048 -63.983706 -72.473249 -68.97205 C -76.04445 -74.017081 -77.830028 -81.244616 -77.830028 -90.654448 C -77.830028 -100.00759 -76.04445 -107.17797 -72.473249 -112.16631 C -68.902048 -117.15466 -63.800471 -119.64906 -57.16824 -119.64906 z M -11.848009 -119.64906 C -5.2157779 -119.64906 -0.1422649 -117.15466 3.3722507 -112.16631 C 6.943452 -107.23465 8.7290296 -100.06428 8.7290296 -90.654448 C 8.7290296 -81.244616 6.943452 -74.017081 3.3722507 -68.97205 C -0.1422649 -63.983706 -5.2157779 -61.489303 -11.848009 -61.489303 C -18.48024 -61.489303 -23.581817 -63.983706 -27.153018 -68.97205 C -30.724219 -74.017081 -32.509797 -81.244616 -32.509797 -90.654448 C -32.509797 -100.00759 -30.724219 -107.17797 -27.153018 -112.16631 C -23.581817 -117.15466 -18.48024 -119.64906 -11.848009 -119.64906 z M -57.16824 -115.31237 C -60.059213 -115.31237 -62.156591 -113.41351 -63.460362 -109.61556 C -64.707449 -105.81762 -65.331049 -99.497422 -65.331049 -90.654448 C -65.331049 -81.868159 -64.707449 -75.576025 -63.460362 -71.778081 C -62.156591 -68.036822 -60.059213 -66.16602 -57.16824 -66.16602 C -54.277268 -66.16602 -52.207953 -68.036822 -50.960867 -71.778081 C -49.657095 -75.576025 -49.005431 -81.868159 -49.005431 -90.654448 C -49.005431 -99.440737 -49.657095 -105.73287 -50.960867 -109.53081 C -52.207953 -113.38544 -54.277268 -115.31237 -57.16824 -115.31237 z M -11.848009 -115.31237 C -14.738981 -115.31237 -16.836359 -113.41351 -18.140131 -109.61556 C -19.387217 -105.81762 -20.010301 -99.497422 -20.010301 -90.654448 C -20.010301 -81.868159 -19.387217 -75.576025 -18.140131 -71.778081 C -16.836359 -68.036822 -14.738981 -66.16602 -11.848009 -66.16602 C -8.9570364 -66.16602 -6.8877221 -68.036822 -5.6406359 -71.778081 C -4.336864 -75.576025 -3.6851997 -81.868159 -3.6851997 -90.654448 C -3.6851997 -99.440737 -4.336864 -105.73287 -5.6406359 -109.53081 C -6.8877221 -113.38544 -8.9570364 -115.31237 -11.848009 -115.31237 z M -91.009585 -101.28274 C -89.025585 -101.28274 -87.551807 -100.68772 -86.58815 -99.497319 C -85.567806 -98.363604 -85.057494 -96.776539 -85.057494 -94.735852 C -85.057494 -92.695166 -85.567806 -91.107584 -86.58815 -89.973869 C -87.551807 -88.840154 -89.025585 -88.273198 -91.009585 -88.273198 C -92.993586 -88.273198 -94.495944 -88.840154 -95.516287 -89.973869 C -96.479944 -91.16427 -96.961677 -92.751852 -96.961677 -94.735852 C -96.961677 -96.833225 -96.479944 -98.448354 -95.516287 -99.582068 C -94.495944 -100.71578 -92.993586 -101.28274 -91.009585 -101.28274 z M -126.63635 -89.293807 C -129.01715 -89.293807 -131.59678 -88.330343 -134.37438 -86.403028 L -134.37438 -85.297669 C -134.37438 -79.118924 -133.69414 -74.583787 -132.33368 -71.692814 C -130.97322 -68.801842 -128.8192 -67.356645 -125.87154 -67.356645 C -123.43405 -67.356645 -121.56325 -68.291529 -120.25948 -70.162159 C -118.95571 -72.032788 -118.30353 -74.697123 -118.30353 -78.154952 C -118.30353 -81.669468 -119.04093 -84.390447 -120.51476 -86.317762 C -121.9319 -88.301762 -123.97212 -89.293807 -126.63635 -89.293807 z M -91.009585 -74.498845 C -89.025585 -74.498845 -87.551807 -73.903824 -86.58815 -72.713424 C -85.567806 -71.579709 -85.057494 -69.992127 -85.057494 -67.951441 C -85.057494 -65.910754 -85.567806 -64.323689 -86.58815 -63.189974 C -87.551807 -62.05626 -89.025585 -61.489303 -91.009585 -61.489303 C -92.993586 -61.489303 -94.495944 -62.05626 -95.516287 -63.189974 C -96.479944 -64.380375 -96.961677 -65.96744 -96.961677 -67.951441 C -96.961677 -70.048813 -96.479944 -71.664459 -95.516287 -72.798173 C -94.495944 -73.931888 -92.993586 -74.498845 -91.009585 -74.498845 z " /></g></svg>
