<?xml version="1.0" encoding="UTF-8" standalone="no"?>
<!-- Created with Inkscape (http://www.inkscape.org/) -->

<svg
   width="172.6701mm"
   height="172.6701mm"
   viewBox="0 0 172.6701 172.6701"
   version="1.1"
   id="svg1"
   xml:space="preserve"
   xmlns="http://www.w3.org/2000/svg"
   xmlns:svg="http://www.w3.org/2000/svg"><defs
     id="defs1" /><g
     id="layer1"
     transform="translate(157.25102,198.81012)"><path
       id="path5"
       style="fill:#ffffff;fill-opacity:1;stroke-width:0.805188;stroke-linecap:round;stroke-linejoin:round"
       d="M -2.0863309 -198.17657 L -10.088943 -183.11289 L -10.930235 -165.68398 L -19.198981 -165.68398 L -11.423229 -155.47426 L -12.166336 -140.07934 C -28.353216 -157.12094 -50.823548 -166.77435 -74.327399 -166.78417 C -103.64471 -166.77397 -130.92652 -151.79225 -146.66717 -127.05894 L -157.25102 -127.05894 L -149.61996 -115.86014 L -157.25102 -26.140039 L -8.5138455 -26.140039 L 15.419061 -26.140039 L 8.0799737 -154.80195 L 15.419061 -165.68398 L 7.4593397 -165.68398 L 6.4490654 -183.39297 L -2.0863309 -198.17657 z M -83.43072 -192.21621 C -85.584619 -189.65499 -86.77489 -186.4211 -86.795372 -183.07465 C -86.842092 -175.15518 -80.459903 -168.69733 -72.540428 -168.65072 C -64.621155 -168.60402 -58.163395 -174.98588 -58.116503 -182.90515 C -58.102813 -186.26049 -59.266203 -189.5144 -61.404157 -192.10045 C -60.83125 -190.6836 -60.536835 -189.16959 -60.537027 -187.64129 C -60.575787 -181.07411 -65.930869 -175.78172 -72.498054 -175.82031 C -79.065241 -175.85911 -84.357627 -181.21415 -84.319038 -187.78134 C -84.309338 -189.30285 -84.007827 -190.80837 -83.43072 -192.21621 z M -61.292019 -119.73381 C -55.453389 -119.73381 -50.804964 -118.28861 -47.347134 -115.39764 C -43.889304 -112.56335 -42.160371 -108.56711 -42.160371 -103.40871 C -42.160371 -98.873849 -43.889304 -94.026912 -47.347134 -88.86851 C -50.804964 -83.766794 -56.502078 -77.616529 -64.438081 -70.41744 L -41.565058 -70.41744 L -41.565058 -62.084615 L -80.08312 -62.084615 L -80.08312 -67.016097 C -73.791004 -73.081471 -68.88794 -78.268272 -65.373424 -82.576388 C -61.858908 -86.884504 -59.336442 -90.852684 -57.805927 -94.480571 C -56.218727 -98.108458 -55.425194 -101.84955 -55.425194 -105.70418 C -55.425194 -111.82623 -57.465411 -114.88759 -61.546784 -114.88759 C -63.360728 -114.88759 -64.835022 -114.0369 -65.968736 -112.33633 C -67.102451 -110.69244 -67.668891 -108.65171 -67.668891 -106.21422 C -67.668891 -104.51365 -67.073871 -102.89852 -65.88347 -101.36801 C -66.847128 -100.46103 -67.952461 -99.752209 -69.199547 -99.242037 C -70.389947 -98.731866 -71.580505 -98.476709 -72.770905 -98.476709 C -74.811592 -98.476709 -76.511945 -99.10031 -77.872403 -100.3474 C -79.23286 -101.65117 -79.913105 -103.52197 -79.913105 -105.95946 C -79.913105 -108.567 -79.148153 -110.91953 -77.617638 -113.01691 C -76.087123 -115.11428 -73.933101 -116.75799 -71.1555 -117.94839 C -68.321213 -119.13879 -65.033278 -119.73381 -61.292019 -119.73381 z M -16.821866 -119.56379 C -10.076263 -119.56379 -4.9180424 -117.69351 -1.3468411 -113.95225 C 2.2810459 -110.21099 4.095204 -104.7971 4.095204 -97.711381 C 4.095204 -88.811721 1.3175813 -81.216258 -4.2376207 -74.924142 C -9.7361371 -68.688711 -17.729141 -64.09693 -28.216002 -61.149272 L -30.256704 -65.400692 C -24.588131 -67.838179 -20.024931 -70.956182 -16.567101 -74.754126 C -13.109271 -78.608756 -10.813381 -83.086732 -9.6796658 -88.188448 C -12.854067 -86.601248 -15.94349 -85.807715 -18.947834 -85.807715 C -24.616407 -85.807715 -29.094383 -87.338137 -32.382156 -90.399166 C -35.613243 -93.460196 -37.228889 -97.598308 -37.228889 -102.8134 C -37.228889 -106.04448 -36.378712 -108.93539 -34.67814 -111.48625 C -32.920882 -114.03711 -30.511704 -116.0212 -27.450674 -117.43834 C -24.332959 -118.85549 -20.789867 -119.56379 -16.821866 -119.56379 z M -121.49248 -119.13901 L -118.68645 -117.86364 L -118.68645 -68.716769 C -117.60942 -68.093226 -115.90855 -67.526269 -113.58443 -67.016097 C -111.26032 -66.562611 -109.4181 -66.279392 -108.05764 -66.16602 L -108.31292 -62.084615 L -143.00434 -62.084615 L -142.83433 -66.16602 C -137.7893 -66.732877 -133.93492 -67.583054 -131.27069 -68.716769 L -131.27069 -109.44555 L -142.66431 -109.44555 L -142.66431 -114.37703 C -139.03643 -114.66046 -135.29534 -115.19935 -131.44071 -115.99295 C -127.58608 -116.84324 -124.27008 -117.89193 -121.49248 -119.13901 z M -17.331912 -113.69697 C -19.769399 -113.69697 -21.640201 -112.76157 -22.943972 -110.89094 C -24.247744 -109.02031 -24.899925 -106.35597 -24.899925 -102.89814 C -24.899925 -99.383629 -24.1911 -96.634587 -22.773957 -94.650586 C -21.300128 -92.723271 -19.23133 -91.759807 -16.567101 -91.759807 C -14.242986 -91.759807 -11.663359 -92.723271 -8.8290718 -94.650586 L -8.8290718 -95.755945 C -8.8290718 -101.93469 -9.5093164 -106.46931 -10.869774 -109.36028 C -12.230232 -112.25126 -14.384254 -113.69697 -17.331912 -113.69697 z M -93.347944 -101.28274 C -91.363943 -101.28274 -89.890166 -100.68772 -88.926508 -99.497319 C -87.906165 -98.363604 -87.395852 -96.776539 -87.395852 -94.735852 C -87.395852 -92.695166 -87.906165 -91.107584 -88.926508 -89.973869 C -89.890166 -88.840154 -91.363943 -88.273198 -93.347944 -88.273198 C -95.331945 -88.273198 -96.833785 -88.840154 -97.854129 -89.973869 C -98.817786 -91.16427 -99.300035 -92.751852 -99.300035 -94.735852 C -99.300035 -96.833225 -98.817786 -98.448354 -97.854129 -99.582068 C -96.833785 -100.71578 -95.331945 -101.28274 -93.347944 -101.28274 z M -93.347944 -74.498845 C -91.363943 -74.498845 -89.890166 -73.903824 -88.926508 -72.713424 C -87.906165 -71.579709 -87.395852 -69.992127 -87.395852 -67.951441 C -87.395852 -65.910754 -87.906165 -64.323689 -88.926508 -63.189974 C -89.890166 -62.05626 -91.363943 -61.489303 -93.347944 -61.489303 C -95.331945 -61.489303 -96.833785 -62.05626 -97.854129 -63.189974 C -98.817786 -64.380375 -99.300035 -65.96744 -99.300035 -67.951441 C -99.300035 -70.048813 -98.817786 -71.664459 -97.854129 -72.798173 C -96.833785 -73.931888 -95.331945 -74.498845 -93.347944 -74.498845 z " /></g></svg>
