<?xml version="1.0" encoding="UTF-8" standalone="no"?>
<!-- Created with Inkscape (http://www.inkscape.org/) -->

<svg
   width="172.6701mm"
   height="172.6701mm"
   viewBox="0 0 172.6701 172.6701"
   version="1.1"
   id="svg1"
   xml:space="preserve"
   xmlns="http://www.w3.org/2000/svg"
   xmlns:svg="http://www.w3.org/2000/svg"><defs
     id="defs1" /><g
     id="layer1"
     transform="translate(157.25102,198.81012)"><path
       id="path5"
       style="fill:#ffffff;fill-opacity:1;stroke-width:0.805188;stroke-linecap:round;stroke-linejoin:round"
       d="M -2.0863309 -198.17657 L -10.088943 -183.11289 L -10.930235 -165.68398 L -19.198981 -165.68398 L -11.423229 -155.47426 L -12.166336 -140.07934 C -28.353216 -157.12094 -50.823548 -166.77435 -74.327399 -166.78417 C -103.64471 -166.77397 -130.92652 -151.79225 -146.66717 -127.05894 L -157.25102 -127.05894 L -149.61996 -115.86014 L -157.25102 -26.140039 L -8.5138455 -26.140039 L 15.419061 -26.140039 L 8.0799737 -154.80195 L 15.419061 -165.68398 L 7.4593397 -165.68398 L 6.4490654 -183.39297 L -2.0863309 -198.17657 z M -83.43072 -192.21621 C -85.584619 -189.65499 -86.77489 -186.4211 -86.795372 -183.07465 C -86.842092 -175.15518 -80.459903 -168.69733 -72.540428 -168.65072 C -64.621155 -168.60402 -58.163395 -174.98588 -58.116503 -182.90515 C -58.102813 -186.26049 -59.266203 -189.5144 -61.404157 -192.10045 C -60.83125 -190.6836 -60.536835 -189.16959 -60.537027 -187.64129 C -60.575787 -181.07411 -65.930869 -175.78172 -72.498054 -175.82031 C -79.065241 -175.85911 -84.357627 -181.21415 -84.319038 -187.78134 C -84.309338 -189.30285 -84.007827 -190.80837 -83.43072 -192.21621 z M -123.61793 -119.81908 C -117.66593 -119.81908 -112.9328 -118.54381 -109.41828 -115.99295 C -105.90377 -113.44209 -104.14625 -110.01229 -104.14625 -105.70418 C -104.14625 -103.38006 -104.99694 -101.05611 -106.69752 -98.731991 C -108.39809 -96.407876 -110.63682 -94.50901 -113.41442 -93.035181 C -109.8999 -91.334609 -107.15086 -89.350519 -105.16686 -87.08309 C -103.12617 -84.81566 -102.10555 -81.896169 -102.10555 -78.324968 C -102.10555 -73.166566 -103.97635 -69.057034 -107.71761 -65.996005 C -111.45887 -62.991661 -116.5038 -61.489303 -122.8526 -61.489303 C -129.82495 -61.489303 -135.21026 -62.878373 -139.00821 -65.655974 C -142.74946 -68.433575 -144.62027 -72.401238 -144.62027 -77.55964 C -144.62027 -80.223869 -143.76957 -82.86014 -142.069 -85.467684 C -140.36843 -88.131914 -137.98783 -90.483931 -134.9268 -92.524618 C -137.47766 -93.941761 -139.46175 -95.642631 -140.87889 -97.626632 C -142.29604 -99.610633 -143.00434 -102.07646 -143.00434 -105.02411 C -143.00434 -109.55897 -141.24735 -113.15871 -137.73283 -115.82294 C -134.21832 -118.48717 -129.51325 -119.81908 -123.61793 -119.81908 z M -53.214476 -119.64906 C -46.582245 -119.64906 -41.508732 -117.15466 -37.994217 -112.16631 C -34.423015 -107.23465 -32.637438 -100.06428 -32.637438 -90.654448 C -32.637438 -81.244616 -34.423015 -74.017081 -37.994217 -68.97205 C -41.508732 -63.983706 -46.582245 -61.489303 -53.214476 -61.489303 C -59.846707 -61.489303 -64.948284 -63.983706 -68.519485 -68.97205 C -72.090686 -74.017081 -73.876264 -81.244616 -73.876264 -90.654448 C -73.876264 -100.00759 -72.090686 -107.17797 -68.519485 -112.16631 C -64.948284 -117.15466 -59.846707 -119.64906 -53.214476 -119.64906 z M -7.1289171 -119.13901 L -4.3228869 -117.86364 L -4.3228869 -68.716769 C -3.2458579 -68.093226 -1.5449878 -67.526269 0.7791273 -67.016097 C 3.1032424 -66.562611 4.9454641 -66.279392 6.3059217 -66.16602 L 6.0506402 -62.084615 L -28.640782 -62.084615 L -28.470767 -66.16602 C -23.425736 -66.732877 -19.571361 -67.583054 -16.907132 -68.716769 L -16.907132 -109.44555 L -28.300751 -109.44555 L -28.300751 -114.37703 C -24.672864 -114.66046 -20.931777 -115.19935 -17.077147 -115.99295 C -13.222517 -116.84324 -9.9065182 -117.89193 -7.1289171 -119.13901 z M -53.214476 -115.31237 C -56.105449 -115.31237 -58.202827 -113.41351 -59.506599 -109.61556 C -60.753685 -105.81762 -61.376769 -99.497422 -61.376769 -90.654448 C -61.376769 -81.868159 -60.753685 -75.576025 -59.506599 -71.778081 C -58.202827 -68.036822 -56.105449 -66.16602 -53.214476 -66.16602 C -50.323504 -66.16602 -48.254189 -68.036822 -47.007103 -71.778081 C -45.703331 -75.576025 -45.051667 -81.868159 -45.051667 -90.654448 C -45.051667 -99.440737 -45.703331 -105.73287 -47.007103 -109.53081 C -48.254189 -113.38544 -50.323504 -115.31237 -53.214476 -115.31237 z M -123.61793 -113.78224 C -125.88536 -113.78224 -127.67094 -113.04535 -128.97471 -111.57152 C -130.27848 -110.15437 -130.93066 -108.22693 -130.93066 -105.78944 C -130.93066 -103.63538 -130.10855 -101.84981 -128.46466 -100.43266 C -126.76409 -99.072205 -124.29827 -97.711715 -121.06718 -96.351258 C -119.65004 -97.314915 -118.51613 -98.646824 -117.66584 -100.3474 C -116.81555 -102.04797 -116.39046 -103.86213 -116.39046 -105.78944 C -116.39046 -108.22693 -117.07071 -110.15437 -118.43117 -111.57152 C -119.73494 -113.04535 -121.46387 -113.78224 -123.61793 -113.78224 z M -87.055821 -101.28274 C -85.071821 -101.28274 -83.598043 -100.68772 -82.634386 -99.497319 C -81.614043 -98.363604 -81.10373 -96.776539 -81.10373 -94.735852 C -81.10373 -92.695166 -81.614043 -91.107584 -82.634386 -89.973869 C -83.598043 -88.840154 -85.071821 -88.273198 -87.055821 -88.273198 C -89.039822 -88.273198 -90.541663 -88.840154 -91.562006 -89.973869 C -92.525664 -91.16427 -93.007913 -92.751852 -93.007913 -94.735852 C -93.007913 -96.833225 -92.525664 -98.448354 -91.562006 -99.582068 C -90.541663 -100.71578 -89.039822 -101.28274 -87.055821 -101.28274 z M -127.10402 -89.038526 C -128.80459 -87.678068 -130.0518 -86.119583 -130.8454 -84.362325 C -131.639 -82.605068 -132.03602 -80.50769 -132.03602 -78.070203 C -132.03602 -74.725745 -131.21391 -72.089474 -129.57002 -70.162159 C -127.92614 -68.291529 -125.68689 -67.356645 -122.8526 -67.356645 C -120.075 -67.356645 -117.92098 -68.291529 -116.39046 -70.162159 C -114.80326 -72.032788 -114.00973 -74.640479 -114.00973 -77.984937 C -114.00973 -79.855566 -114.60475 -81.442631 -115.79515 -82.746403 C -116.92887 -84.106861 -118.37458 -85.212194 -120.13184 -86.06248 C -121.8891 -86.969452 -124.21305 -87.961497 -127.10402 -89.038526 z M -87.055821 -74.498845 C -85.071821 -74.498845 -83.598043 -73.903824 -82.634386 -72.713424 C -81.614043 -71.579709 -81.10373 -69.992127 -81.10373 -67.951441 C -81.10373 -65.910754 -81.614043 -64.323689 -82.634386 -63.189974 C -83.598043 -62.05626 -85.071821 -61.489303 -87.055821 -61.489303 C -89.039822 -61.489303 -90.541663 -62.05626 -91.562006 -63.189974 C -92.525664 -64.380375 -93.007913 -65.96744 -93.007913 -67.951441 C -93.007913 -70.048813 -92.525664 -71.664459 -91.562006 -72.798173 C -90.541663 -73.931888 -89.039822 -74.498845 -87.055821 -74.498845 z " /></g></svg>
