<?xml version="1.0" encoding="UTF-8" standalone="no"?>
<!-- Created with Inkscape (http://www.inkscape.org/) -->

<svg
   width="172.6701mm"
   height="172.6701mm"
   viewBox="0 0 172.6701 172.6701"
   version="1.1"
   id="svg1"
   xml:space="preserve"
   xmlns="http://www.w3.org/2000/svg"
   xmlns:svg="http://www.w3.org/2000/svg"><defs
     id="defs1" /><g
     id="layer1"
     transform="translate(157.25102,198.81012)"><path
       id="path5"
       style="fill:#ffffff;fill-opacity:1;stroke-width:0.805188;stroke-linecap:round;stroke-linejoin:round"
       d="M -2.0863309 -198.17657 L -10.088943 -183.11289 L -10.930235 -165.68398 L -19.198981 -165.68398 L -11.423229 -155.47426 L -12.166336 -140.07934 C -28.353216 -157.12094 -50.823548 -166.77435 -74.327399 -166.78417 C -103.64471 -166.77397 -130.92652 -151.79225 -146.66717 -127.05894 L -157.25102 -127.05894 L -149.61996 -115.86014 L -157.25102 -26.140039 L -8.5138455 -26.140039 L 15.419061 -26.140039 L 8.0799737 -154.80195 L 15.419061 -165.68398 L 7.4593397 -165.68398 L 6.4490654 -183.39297 L -2.0863309 -198.17657 z M -83.43072 -192.21621 C -85.584619 -189.65499 -86.77489 -186.4211 -86.795372 -183.07465 C -86.842092 -175.15518 -80.459903 -168.69733 -72.540428 -168.65072 C -64.621155 -168.60402 -58.163395 -174.98588 -58.116503 -182.90515 C -58.102813 -186.26049 -59.266203 -189.5144 -61.404157 -192.10045 C -60.83125 -190.6836 -60.536835 -189.16959 -60.537027 -187.64129 C -60.575787 -181.07411 -65.930869 -175.78172 -72.498054 -175.82031 C -79.065241 -175.85911 -84.357627 -181.21415 -84.319038 -187.78134 C -84.309338 -189.30285 -84.007827 -190.80837 -83.43072 -192.21621 z M -56.190005 -120.07436 C -51.655146 -119.84761 -47.970703 -118.85557 -45.136416 -117.09831 L -65.373424 -83.767013 L -52.363882 -83.767013 L -51.513805 -97.626632 C -49.699861 -97.626632 -48.396016 -97.995076 -47.602416 -98.731991 C -46.75213 -99.468905 -46.099949 -100.71611 -45.646463 -102.47336 L -40.800247 -102.47336 L -40.884996 -83.341716 C -38.730938 -82.718173 -36.00996 -82.066508 -32.722187 -81.38628 L -33.147484 -77.304875 L -41.310293 -77.304875 L -41.310293 -62.084615 L -52.363882 -62.084615 L -52.363882 -77.304875 L -76.937059 -77.304875 L -77.617638 -80.36567 L -56.190005 -120.07436 z M -124.63854 -119.56379 C -117.89294 -119.56379 -112.7342 -117.69351 -109.163 -113.95225 C -105.53511 -110.21099 -103.72147 -104.7971 -103.72147 -97.711381 C -103.72147 -88.811721 -106.49909 -81.216258 -112.0543 -74.924142 C -117.55281 -68.688711 -125.5453 -64.09693 -136.03216 -61.149272 L -138.07286 -65.400692 C -132.40429 -67.838179 -127.84109 -70.956182 -124.38326 -74.754126 C -120.92543 -78.608756 -118.62954 -83.086732 -117.49582 -88.188448 C -120.67023 -86.601248 -123.75965 -85.807715 -126.76399 -85.807715 C -132.43257 -85.807715 -136.91054 -87.338137 -140.19831 -90.399166 C -143.4294 -93.460196 -145.04505 -97.598308 -145.04505 -102.8134 C -145.04505 -106.04448 -144.19487 -108.93539 -142.4943 -111.48625 C -140.73704 -114.03711 -138.32786 -116.0212 -135.26683 -117.43834 C -132.14912 -118.85549 -128.60654 -119.56379 -124.63854 -119.56379 z M -7.2136665 -119.13901 L -4.4076362 -117.86364 L -4.4076362 -68.716769 C -3.3306072 -68.093226 -1.630254 -67.526269 0.69386118 -67.016097 C 3.0179763 -66.562611 4.860198 -66.279392 6.2206556 -66.16602 L 5.9658908 -62.084615 L -28.726048 -62.084615 L -28.556033 -66.16602 C -23.511003 -66.732877 -19.656111 -67.583054 -16.991881 -68.716769 L -16.991881 -109.44555 L -28.386018 -109.44555 L -28.386018 -114.37703 C -24.758131 -114.66046 -21.016526 -115.19935 -17.161896 -115.99295 C -13.307266 -116.84324 -9.9912675 -117.89193 -7.2136665 -119.13901 z M -125.14859 -113.69697 C -127.58607 -113.69697 -129.45636 -112.76157 -130.76013 -110.89094 C -132.0639 -109.02031 -132.71608 -106.35597 -132.71608 -102.89814 C -132.71608 -99.383629 -132.00726 -96.634587 -130.59012 -94.650586 C -129.11629 -92.723271 -127.04749 -91.759807 -124.38326 -91.759807 C -122.05914 -91.759807 -119.48003 -92.723271 -116.64575 -94.650586 L -116.64575 -95.755945 C -116.64575 -101.93469 -117.32599 -106.46931 -118.68645 -109.36028 C -120.04691 -112.25126 -122.20093 -113.69697 -125.14859 -113.69697 z M -88.841242 -101.28274 C -86.857241 -101.28274 -85.383464 -100.68772 -84.419807 -99.497319 C -83.399463 -98.363604 -82.889151 -96.776539 -82.889151 -94.735852 C -82.889151 -92.695166 -83.399463 -91.107584 -84.419807 -89.973869 C -85.383464 -88.840154 -86.857241 -88.273198 -88.841242 -88.273198 C -90.825243 -88.273198 -92.327601 -88.840154 -93.347944 -89.973869 C -94.311601 -91.16427 -94.793334 -92.751852 -94.793334 -94.735852 C -94.793334 -96.833225 -94.311601 -98.448354 -93.347944 -99.582068 C -92.327601 -100.71578 -90.825243 -101.28274 -88.841242 -101.28274 z M -88.841242 -74.498845 C -86.857241 -74.498845 -85.383464 -73.903824 -84.419807 -72.713424 C -83.399463 -71.579709 -82.889151 -69.992127 -82.889151 -67.951441 C -82.889151 -65.910754 -83.399463 -64.323689 -84.419807 -63.189974 C -85.383464 -62.05626 -86.857241 -61.489303 -88.841242 -61.489303 C -90.825243 -61.489303 -92.327601 -62.05626 -93.347944 -63.189974 C -94.311601 -64.380375 -94.793334 -65.96744 -94.793334 -67.951441 C -94.793334 -70.048813 -94.311601 -71.664459 -93.347944 -72.798173 C -92.327601 -73.931888 -90.825243 -74.498845 -88.841242 -74.498845 z " /></g></svg>
