<?xml version="1.0" encoding="UTF-8" standalone="no"?>
<!-- Created with Inkscape (http://www.inkscape.org/) -->

<svg
   width="172.6701mm"
   height="172.6701mm"
   viewBox="0 0 172.6701 172.6701"
   version="1.1"
   id="svg1"
   xml:space="preserve"
   xmlns="http://www.w3.org/2000/svg"
   xmlns:svg="http://www.w3.org/2000/svg"><defs
     id="defs1" /><g
     id="layer1"
     transform="translate(157.25102,198.81012)"><path
       id="path5"
       style="fill:#ffffff;fill-opacity:1;stroke-width:0.805188;stroke-linecap:round;stroke-linejoin:round"
       d="M -2.0863309 -198.17657 L -10.088943 -183.11289 L -10.930235 -165.68398 L -19.198981 -165.68398 L -11.423229 -155.47426 L -12.166336 -140.07934 C -28.353216 -157.12094 -50.823548 -166.77435 -74.327399 -166.78417 C -103.64471 -166.77397 -130.92652 -151.79225 -146.66717 -127.05894 L -157.25102 -127.05894 L -149.61996 -115.86014 L -157.25102 -26.140039 L -8.5138455 -26.140039 L 15.419061 -26.140039 L 8.0799737 -154.80195 L 15.419061 -165.68398 L 7.4593397 -165.68398 L 6.4490654 -183.39297 L -2.0863309 -198.17657 z M -83.43072 -192.21621 C -85.584619 -189.65499 -86.77489 -186.4211 -86.795372 -183.07465 C -86.842092 -175.15518 -80.459903 -168.69733 -72.540428 -168.65072 C -64.621155 -168.60402 -58.163395 -174.98588 -58.116503 -182.90515 C -58.102813 -186.26049 -59.266203 -189.5144 -61.404157 -192.10045 C -60.83125 -190.6836 -60.536835 -189.16959 -60.537027 -187.64129 C -60.575787 -181.07411 -65.930869 -175.78172 -72.498054 -175.82031 C -79.065241 -175.85911 -84.357627 -181.21415 -84.319038 -187.78134 C -84.309338 -189.30285 -84.007827 -190.80837 -83.43072 -192.21621 z M -127.44405 -120.07436 C -122.9092 -119.84761 -119.22475 -118.85557 -116.39046 -117.09831 L -136.62747 -83.767013 L -123.61793 -83.767013 L -122.76785 -97.626632 C -120.95391 -97.626632 -119.65006 -97.995076 -118.85646 -98.731991 C -118.00618 -99.468905 -117.354 -100.71611 -116.90051 -102.47336 L -112.0543 -102.47336 L -112.13904 -83.341716 C -109.98499 -82.718173 -107.26401 -82.066508 -103.97624 -81.38628 L -104.40153 -77.304875 L -112.56434 -77.304875 L -112.56434 -62.084615 L -123.61793 -62.084615 L -123.61793 -77.304875 L -148.19111 -77.304875 L -148.87169 -80.36567 L -127.44405 -120.07436 z M -68.944782 -119.05375 L -64.693362 -118.969 C -58.684674 -118.85563 -55.510027 -118.79847 -55.169912 -118.79847 L -43.095714 -118.969 L -40.630231 -117.18306 L -41.395559 -110.72092 L -62.482644 -110.72092 L -63.672753 -96.521273 C -60.725094 -97.258188 -58.06076 -97.626632 -55.679959 -97.626632 C -50.068071 -97.626632 -45.504871 -96.124274 -41.990355 -93.11993 C -38.419154 -90.172272 -36.633576 -85.836165 -36.633576 -80.110905 C -36.633576 -76.539704 -37.483753 -73.336993 -39.184325 -70.502706 C -40.828211 -67.66842 -43.209326 -65.429173 -46.327041 -63.785287 C -49.444757 -62.198086 -53.1292 -61.404554 -57.38063 -61.404554 C -60.83846 -61.404554 -63.984527 -61.886286 -66.818814 -62.849943 C -69.596415 -63.813601 -71.779017 -65.14551 -73.366218 -66.846082 C -74.953418 -68.60334 -75.746951 -70.559366 -75.746951 -72.713424 C -75.746951 -74.980853 -75.12335 -76.709787 -73.876264 -77.900188 C -72.629178 -79.147274 -71.098757 -79.770358 -69.284813 -79.770358 C -68.26447 -79.770358 -67.243845 -79.572362 -66.223501 -79.175562 C -65.146472 -78.778762 -64.183008 -78.211805 -63.332722 -77.474891 C -63.842893 -76.28449 -64.09805 -75.037289 -64.09805 -73.733517 C -64.09805 -71.862888 -63.559673 -70.332466 -62.482644 -69.142066 C -61.34893 -67.951665 -59.64806 -67.356645 -57.38063 -67.356645 C -52.278914 -67.356645 -49.727867 -71.608045 -49.727867 -80.110905 C -49.727867 -84.135593 -50.521917 -87.054567 -52.109117 -88.86851 C -53.696318 -90.73914 -55.82176 -91.674541 -58.485989 -91.674541 C -60.129875 -91.674541 -61.887389 -91.36274 -63.758019 -90.739197 C -65.628648 -90.115654 -67.47087 -89.236897 -69.284813 -88.103182 L -73.961013 -92.609884 L -71.750296 -116.75776 L -68.944782 -119.05375 z M -24.72991 -119.05375 L -20.477973 -118.969 C -14.469285 -118.85563 -11.295155 -118.79847 -10.95504 -118.79847 L 1.1191582 -118.969 L 3.5846408 -117.18306 L 2.8198296 -110.72092 L -18.267255 -110.72092 L -19.45788 -96.521273 C -16.510222 -97.258188 -13.845887 -97.626632 -11.465087 -97.626632 C -5.8531988 -97.626632 -1.2899985 -96.124274 2.2245171 -93.11993 C 5.7957184 -90.172272 7.5812961 -85.836165 7.5812961 -80.110905 C 7.5812961 -76.539704 6.7311194 -73.336993 5.0305474 -70.502706 C 3.3866611 -67.66842 1.0055463 -65.429173 -2.1121691 -63.785287 C -5.2298845 -62.198086 -8.9143278 -61.404554 -13.165758 -61.404554 C -16.623588 -61.404554 -19.769655 -61.886286 -22.603942 -62.849943 C -25.381543 -63.813601 -27.564145 -65.14551 -29.151346 -66.846082 C -30.738546 -68.60334 -31.532079 -70.559366 -31.532079 -72.713424 C -31.532079 -74.980853 -30.908478 -76.709787 -29.661392 -77.900188 C -28.414306 -79.147274 -26.883884 -79.770358 -25.069941 -79.770358 C -24.049598 -79.770358 -23.028972 -79.572362 -22.008629 -79.175562 C -20.9316 -78.778762 -19.968135 -78.211805 -19.117849 -77.474891 C -19.628021 -76.28449 -19.883177 -75.037289 -19.883177 -73.733517 C -19.883177 -71.862888 -19.344284 -70.332466 -18.267255 -69.142066 C -17.133541 -67.951665 -15.433187 -67.356645 -13.165758 -67.356645 C -8.0640418 -67.356645 -5.5129951 -71.608045 -5.5129951 -80.110905 C -5.5129951 -84.135593 -6.3070445 -87.054567 -7.8942451 -88.86851 C -9.4814457 -90.73914 -11.606887 -91.674541 -14.271117 -91.674541 C -15.915003 -91.674541 -17.672517 -91.36274 -19.543146 -90.739197 C -21.413776 -90.115654 -23.255997 -89.236897 -25.069941 -88.103182 L -29.746141 -92.609884 L -27.535423 -116.75776 L -24.72991 -119.05375 z M -89.266539 -101.28274 C -87.282538 -101.28274 -85.808761 -100.68772 -84.845104 -99.497319 C -83.82476 -98.363604 -83.314448 -96.776539 -83.314448 -94.735852 C -83.314448 -92.695166 -83.82476 -91.107584 -84.845104 -89.973869 C -85.808761 -88.840154 -87.282538 -88.273198 -89.266539 -88.273198 C -91.25054 -88.273198 -92.752898 -88.840154 -93.773241 -89.973869 C -94.736898 -91.16427 -95.218631 -92.751852 -95.218631 -94.735852 C -95.218631 -96.833225 -94.736898 -98.448354 -93.773241 -99.582068 C -92.752898 -100.71578 -91.25054 -101.28274 -89.266539 -101.28274 z M -89.266539 -74.498845 C -87.282538 -74.498845 -85.808761 -73.903824 -84.845104 -72.713424 C -83.82476 -71.579709 -83.314448 -69.992127 -83.314448 -67.951441 C -83.314448 -65.910754 -83.82476 -64.323689 -84.845104 -63.189974 C -85.808761 -62.05626 -87.282538 -61.489303 -89.266539 -61.489303 C -91.25054 -61.489303 -92.752898 -62.05626 -93.773241 -63.189974 C -94.736898 -64.380375 -95.218631 -65.96744 -95.218631 -67.951441 C -95.218631 -70.048813 -94.736898 -71.664459 -93.773241 -72.798173 C -92.752898 -73.931888 -91.25054 -74.498845 -89.266539 -74.498845 z " /></g></svg>
