<?xml version="1.0" encoding="UTF-8" standalone="no"?>
<!-- Created with Inkscape (http://www.inkscape.org/) -->

<svg
   width="172.6701mm"
   height="172.6701mm"
   viewBox="0 0 172.6701 172.6701"
   version="1.1"
   id="svg1"
   xml:space="preserve"
   xmlns="http://www.w3.org/2000/svg"
   xmlns:svg="http://www.w3.org/2000/svg"><defs
     id="defs1" /><g
     id="layer1"
     transform="translate(157.25102,198.81012)"><path
       id="path5"
       style="fill:#ffffff;fill-opacity:1;stroke-width:0.805188;stroke-linecap:round;stroke-linejoin:round"
       d="M -2.0863309 -198.17657 L -10.088943 -183.11289 L -10.930235 -165.68398 L -19.198981 -165.68398 L -11.423229 -155.47426 L -12.166336 -140.07934 C -28.353216 -157.12094 -50.823548 -166.77435 -74.327399 -166.78417 C -103.64471 -166.77397 -130.92652 -151.79225 -146.66717 -127.05894 L -157.25102 -127.05894 L -149.61996 -115.86014 L -157.25102 -26.140039 L -8.5138455 -26.140039 L 15.419061 -26.140039 L 8.0799737 -154.80195 L 15.419061 -165.68398 L 7.4593397 -165.68398 L 6.4490654 -183.39297 L -2.0863309 -198.17657 z M -83.43072 -192.21621 C -85.584619 -189.65499 -86.77489 -186.4211 -86.795372 -183.07465 C -86.842092 -175.15518 -80.459903 -168.69733 -72.540428 -168.65072 C -64.621155 -168.60402 -58.163395 -174.98588 -58.116503 -182.90515 C -58.102813 -186.26049 -59.266203 -189.5144 -61.404157 -192.10045 C -60.83125 -190.6836 -60.536835 -189.16959 -60.537027 -187.64129 C -60.575787 -181.07411 -65.930869 -175.78172 -72.498054 -175.82031 C -79.065241 -175.85911 -84.357627 -181.21415 -84.319038 -187.78134 C -84.309338 -189.30285 -84.007827 -190.80837 -83.43072 -192.21621 z M -127.01927 -119.73381 C -123.3347 -119.73381 -120.07535 -119.11073 -117.24106 -117.86364 C -114.40677 -116.67324 -112.19559 -114.97237 -110.60839 -112.76163 C -109.02119 -110.60757 -108.22766 -108.11368 -108.22766 -105.27939 C -108.22766 -102.10499 -109.16306 -99.384015 -111.03369 -97.116586 C -112.90432 -94.849156 -115.68194 -93.120223 -119.36651 -91.929822 C -114.71828 -90.909479 -111.45893 -89.237189 -109.5883 -86.913074 C -107.71767 -84.588959 -106.78227 -81.442892 -106.78227 -77.474891 C -106.78227 -74.017061 -107.83095 -71.069506 -109.92833 -68.632019 C -111.96901 -66.194533 -114.63335 -64.380375 -117.92112 -63.189974 C -121.20889 -61.999574 -124.61012 -61.404554 -128.12463 -61.404554 C -133.22635 -61.404554 -137.56246 -62.453243 -141.13366 -64.550615 C -144.64817 -66.647987 -146.40569 -69.510317 -146.40569 -73.138204 C -146.40569 -75.235577 -145.78209 -76.851222 -144.535 -77.984937 C -143.28791 -79.175337 -141.72891 -79.770358 -139.85828 -79.770358 C -137.93097 -79.770358 -135.97546 -79.005405 -133.99146 -77.474891 C -134.50163 -76.397862 -134.75679 -75.094016 -134.75679 -73.563501 C -134.75679 -71.749558 -134.21841 -70.275781 -133.14138 -69.142066 C -132.00767 -68.008351 -130.33538 -67.441394 -128.12463 -67.441394 C -123.24966 -67.441394 -120.8119 -70.814037 -120.8119 -77.55964 C -120.8119 -81.244213 -122.00246 -84.10706 -124.38326 -86.147746 C -126.70737 -88.188433 -130.02337 -89.208541 -134.33149 -89.208541 L -134.33149 -94.480571 C -125.99869 -95.1608 -121.83251 -98.760535 -121.83251 -105.27939 C -121.83251 -108.56717 -122.34282 -110.97583 -123.36317 -112.50634 C -124.38351 -114.09354 -125.77206 -114.88759 -127.52932 -114.88759 C -129.62669 -114.88759 -131.21376 -114.15071 -132.29079 -112.67688 C -133.31113 -111.20305 -133.82144 -109.41747 -133.82144 -107.3201 C -133.82144 -105.44947 -133.42442 -103.77718 -132.63082 -102.30335 C -134.21802 -100.60278 -136.25875 -99.752084 -138.75292 -99.752084 C -141.02035 -99.752084 -142.77787 -100.43233 -144.02495 -101.79279 C -145.27204 -103.15324 -145.89564 -104.91076 -145.89564 -107.06482 C -145.89564 -109.8991 -144.93166 -112.25164 -143.00434 -114.12227 C -141.02034 -116.04958 -138.5831 -117.46671 -135.69213 -118.37369 C -132.74447 -119.28066 -129.85356 -119.73381 -127.01927 -119.73381 z M -13.675804 -119.64906 C -7.0435733 -119.64906 -1.9705771 -117.15466 1.5439385 -112.16631 C 5.1151398 -107.23465 6.9007175 -100.06428 6.9007175 -90.654448 C 6.9007175 -81.244616 5.1151398 -74.017081 1.5439385 -68.97205 C -1.9705771 -63.983706 -7.0435733 -61.489303 -13.675804 -61.489303 C -20.308035 -61.489303 -25.410129 -63.983706 -28.98133 -68.97205 C -32.552531 -74.017081 -34.338109 -81.244616 -34.338109 -90.654448 C -34.338109 -100.00759 -32.552531 -107.17797 -28.98133 -112.16631 C -25.410129 -117.15466 -20.308035 -119.64906 -13.675804 -119.64906 z M -71.410265 -119.05375 L -67.158845 -118.969 C -61.150157 -118.85563 -57.976026 -118.79847 -57.635912 -118.79847 L -45.561713 -118.969 L -43.095714 -117.18306 L -43.861042 -110.72092 L -64.948127 -110.72092 L -66.138752 -96.521273 C -63.191094 -97.258188 -60.526759 -97.626632 -58.145958 -97.626632 C -52.53407 -97.626632 -47.97087 -96.124274 -44.456354 -93.11993 C -40.885153 -90.172272 -39.099576 -85.836165 -39.099576 -80.110905 C -39.099576 -76.539704 -39.949752 -73.336993 -41.650324 -70.502706 C -43.294211 -67.66842 -45.675325 -65.429173 -48.793041 -63.785287 C -51.910756 -62.198086 -55.595199 -61.404554 -59.84663 -61.404554 C -63.304459 -61.404554 -66.450526 -61.886286 -69.284813 -62.849943 C -72.062414 -63.813601 -74.2445 -65.14551 -75.8317 -66.846082 C -77.418901 -68.60334 -78.21295 -70.559366 -78.21295 -72.713424 C -78.21295 -74.980853 -77.58935 -76.709787 -76.342263 -77.900188 C -75.095177 -79.147274 -73.564239 -79.770358 -71.750296 -79.770358 C -70.729952 -79.770358 -69.709844 -79.572362 -68.689501 -79.175562 C -67.612472 -78.778762 -66.649007 -78.211805 -65.798721 -77.474891 C -66.308893 -76.28449 -66.564049 -75.037289 -66.564049 -73.733517 C -66.564049 -71.862888 -66.025156 -70.332466 -64.948127 -69.142066 C -63.814412 -67.951665 -62.114059 -67.356645 -59.84663 -67.356645 C -54.744913 -67.356645 -52.193867 -71.608045 -52.193867 -80.110905 C -52.193867 -84.135593 -52.987399 -87.054567 -54.5746 -88.86851 C -56.1618 -90.73914 -58.287759 -91.674541 -60.951988 -91.674541 C -62.595875 -91.674541 -64.352872 -91.36274 -66.223501 -90.739197 C -68.094131 -90.115654 -69.936352 -89.236897 -71.750296 -88.103182 L -76.427013 -92.609884 L -74.216295 -116.75776 L -71.410265 -119.05375 z M -13.675804 -115.31237 C -16.566777 -115.31237 -18.664155 -113.41351 -19.967927 -109.61556 C -21.215013 -105.81762 -21.838614 -99.497422 -21.838614 -90.654448 C -21.838614 -81.868159 -21.215013 -75.576025 -19.967927 -71.778081 C -18.664155 -68.036822 -16.566777 -66.16602 -13.675804 -66.16602 C -10.784832 -66.16602 -8.7160342 -68.036822 -7.4689481 -71.778081 C -6.1651762 -75.576025 -5.5129951 -81.868159 -5.5129951 -90.654448 C -5.5129951 -99.440737 -6.1651762 -105.73287 -7.4689481 -109.53081 C -8.7160342 -113.38544 -10.784832 -115.31237 -13.675804 -115.31237 z M -91.732539 -101.28274 C -89.748538 -101.28274 -88.274244 -100.68772 -87.310586 -99.497319 C -86.290243 -98.363604 -85.780447 -96.776539 -85.780447 -94.735852 C -85.780447 -92.695166 -86.290243 -91.107584 -87.310586 -89.973869 C -88.274244 -88.840154 -89.748538 -88.273198 -91.732539 -88.273198 C -93.716539 -88.273198 -95.21838 -88.840154 -96.238723 -89.973869 C -97.202381 -91.16427 -97.684113 -92.751852 -97.684113 -94.735852 C -97.684113 -96.833225 -97.202381 -98.448354 -96.238723 -99.582068 C -95.21838 -100.71578 -93.716539 -101.28274 -91.732539 -101.28274 z M -91.732539 -74.498845 C -89.748538 -74.498845 -88.274244 -73.903824 -87.310586 -72.713424 C -86.290243 -71.579709 -85.780447 -69.992127 -85.780447 -67.951441 C -85.780447 -65.910754 -86.290243 -64.323689 -87.310586 -63.189974 C -88.274244 -62.05626 -89.748538 -61.489303 -91.732539 -61.489303 C -93.716539 -61.489303 -95.21838 -62.05626 -96.238723 -63.189974 C -97.202381 -64.380375 -97.684113 -65.96744 -97.684113 -67.951441 C -97.684113 -70.048813 -97.202381 -71.664459 -96.238723 -72.798173 C -95.21838 -73.931888 -93.716539 -74.498845 -91.732539 -74.498845 z " /></g></svg>
