<?xml version="1.0" encoding="UTF-8" standalone="no"?>
<!-- Created with Inkscape (http://www.inkscape.org/) -->

<svg
   width="172.6701mm"
   height="172.6701mm"
   viewBox="0 0 172.6701 172.6701"
   version="1.1"
   id="svg1"
   xml:space="preserve"
   xmlns="http://www.w3.org/2000/svg"
   xmlns:svg="http://www.w3.org/2000/svg"><defs
     id="defs1" /><g
     id="layer1"
     transform="translate(157.25102,198.81012)"><path
       id="path5"
       style="fill:#ffffff;fill-opacity:1;stroke-width:0.805188;stroke-linecap:round;stroke-linejoin:round"
       d="M -2.0863309 -198.17657 L -10.088943 -183.11289 L -10.930235 -165.68398 L -19.198981 -165.68398 L -11.423229 -155.47426 L -12.166336 -140.07934 C -28.353216 -157.12094 -50.823548 -166.77435 -74.327399 -166.78417 C -103.64471 -166.77397 -130.92652 -151.79225 -146.66717 -127.05894 L -157.25102 -127.05894 L -149.61996 -115.86014 L -157.25102 -26.140039 L -8.5138455 -26.140039 L 15.419061 -26.140039 L 8.0799737 -154.80195 L 15.419061 -165.68398 L 7.4593397 -165.68398 L 6.4490654 -183.39297 L -2.0863309 -198.17657 z M -83.43072 -192.21621 C -85.584619 -189.65499 -86.77489 -186.4211 -86.795372 -183.07465 C -86.842092 -175.15518 -80.459903 -168.69733 -72.540428 -168.65072 C -64.621155 -168.60402 -58.163395 -174.98588 -58.116503 -182.90515 C -58.102813 -186.26049 -59.266203 -189.5144 -61.404157 -192.10045 C -60.83125 -190.6836 -60.536835 -189.16959 -60.537027 -187.64129 C -60.575787 -181.07411 -65.930869 -175.78172 -72.498054 -175.82031 C -79.065241 -175.85911 -84.357627 -181.21415 -84.319038 -187.78134 C -84.309338 -189.30285 -84.007827 -190.80837 -83.43072 -192.21621 z M -16.86424 -119.73381 C -13.179667 -119.73381 -9.9203124 -119.11073 -7.0860257 -117.86364 C -4.2517389 -116.67324 -2.041073 -114.97237 -0.45387238 -112.76163 C 1.1333282 -110.60757 1.9268609 -108.11368 1.9268609 -105.27939 C 1.9268609 -102.10499 0.99145984 -99.384015 -0.87916941 -97.116586 C -2.7497987 -94.849156 -5.5274213 -93.120223 -9.2119941 -91.929822 C -4.5637638 -90.909479 -1.3044089 -89.237189 0.5662204 -86.913074 C 2.4368497 -84.588959 3.3722507 -81.442892 3.3722507 -77.474891 C 3.3722507 -74.017061 2.3235617 -71.069506 0.22618947 -68.632019 C -1.814497 -66.194533 -4.4788317 -64.380375 -7.7666043 -63.189974 C -11.054377 -61.999574 -14.455084 -61.404554 -17.969599 -61.404554 C -23.071315 -61.404554 -27.40794 -62.453243 -30.979141 -64.550615 C -34.493657 -66.647987 -36.251171 -69.510317 -36.251171 -73.138204 C -36.251171 -75.235577 -35.62757 -76.851222 -34.380484 -77.984937 C -33.133398 -79.175337 -31.574396 -79.770358 -29.703767 -79.770358 C -27.776452 -79.770358 -25.820942 -79.005405 -23.836941 -77.474891 C -24.347113 -76.397862 -24.602269 -75.094016 -24.602269 -73.563501 C -24.602269 -71.749558 -24.063376 -70.275781 -22.986347 -69.142066 C -21.852632 -68.008351 -20.180343 -67.441394 -17.969599 -67.441394 C -13.094626 -67.441394 -10.657384 -70.814037 -10.657384 -77.55964 C -10.657384 -81.244213 -11.847941 -84.10706 -14.228742 -86.147746 C -16.552857 -88.188433 -19.868856 -89.208541 -24.176972 -89.208541 L -24.176972 -94.480571 C -15.844169 -95.1608 -11.677477 -98.760535 -11.677477 -105.27939 C -11.677477 -108.56717 -12.187789 -110.97583 -13.208133 -112.50634 C -14.228476 -114.09354 -15.617546 -114.88759 -17.374803 -114.88759 C -19.472176 -114.88759 -21.059241 -114.15071 -22.13627 -112.67688 C -23.156613 -111.20305 -23.666926 -109.41747 -23.666926 -107.3201 C -23.666926 -105.44947 -23.269901 -103.77718 -22.476301 -102.30335 C -24.063501 -100.60278 -26.104235 -99.752084 -28.598408 -99.752084 C -30.865837 -99.752084 -32.622834 -100.43233 -33.869921 -101.79279 C -35.117007 -103.15324 -35.740607 -104.91076 -35.740607 -107.06482 C -35.740607 -109.8991 -34.777143 -112.25164 -32.849828 -114.12227 C -30.865827 -116.04958 -28.428585 -117.46671 -25.537613 -118.37369 C -22.589954 -119.28066 -19.698527 -119.73381 -16.86424 -119.73381 z M -120.93954 -119.13901 L -118.13351 -117.86364 L -118.13351 -68.716769 C -117.05648 -68.093226 -115.35613 -67.526269 -113.03201 -67.016097 C -110.7079 -66.562611 -108.86568 -66.279392 -107.50522 -66.16602 L -107.75998 -62.084615 L -142.45192 -62.084615 L -142.28191 -66.16602 C -137.23688 -66.732877 -133.38199 -67.583054 -130.71776 -68.716769 L -130.71776 -109.44555 L -142.11189 -109.44555 L -142.11189 -114.37703 C -138.48401 -114.66046 -134.7424 -115.19935 -130.88777 -115.99295 C -127.03314 -116.84324 -123.71714 -117.89193 -120.93954 -119.13901 z M -72.473249 -119.05375 L -68.221829 -118.969 C -62.213141 -118.85563 -59.038494 -118.79847 -58.698379 -118.79847 L -46.624698 -118.969 L -44.158698 -117.18306 L -44.924026 -110.72092 L -66.011111 -110.72092 L -67.201219 -96.521273 C -64.253561 -97.258188 -61.589743 -97.626632 -59.208942 -97.626632 C -53.597055 -97.626632 -49.033854 -96.124274 -45.519339 -93.11993 C -41.948137 -90.172272 -40.16256 -85.836165 -40.16256 -80.110905 C -40.16256 -76.539704 -41.012736 -73.336993 -42.713308 -70.502706 C -44.357195 -67.66842 -46.737793 -65.429173 -49.855508 -63.785287 C -52.973224 -62.198086 -56.657667 -61.404554 -60.909097 -61.404554 C -64.366927 -61.404554 -67.512994 -61.886286 -70.347281 -62.849943 C -73.124882 -63.813601 -75.307484 -65.14551 -76.894685 -66.846082 C -78.481885 -68.60334 -79.275418 -70.559366 -79.275418 -72.713424 C -79.275418 -74.980853 -78.651817 -76.709787 -77.404731 -77.900188 C -76.157645 -79.147274 -74.627223 -79.770358 -72.81328 -79.770358 C -71.792937 -79.770358 -70.772828 -79.572362 -69.752485 -79.175562 C -68.675456 -78.778762 -67.711474 -78.211805 -66.861188 -77.474891 C -67.37136 -76.28449 -67.626516 -75.037289 -67.626516 -73.733517 C -67.626516 -71.862888 -67.08814 -70.332466 -66.011111 -69.142066 C -64.877396 -67.951665 -63.176526 -67.356645 -60.909097 -67.356645 C -55.807381 -67.356645 -53.256851 -71.608045 -53.256851 -80.110905 C -53.256851 -84.135593 -54.050384 -87.054567 -55.637584 -88.86851 C -57.224785 -90.73914 -59.350226 -91.674541 -62.014456 -91.674541 C -63.658342 -91.674541 -65.415856 -91.36274 -67.286485 -90.739197 C -69.157115 -90.115654 -70.999336 -89.236897 -72.81328 -88.103182 L -77.489997 -92.609884 L -75.279279 -116.75776 L -72.473249 -119.05375 z M -92.795006 -101.28274 C -90.811005 -101.28274 -89.337228 -100.68772 -88.37357 -99.497319 C -87.353227 -98.363604 -86.842915 -96.776539 -86.842915 -94.735852 C -86.842915 -92.695166 -87.353227 -91.107584 -88.37357 -89.973869 C -89.337228 -88.840154 -90.811005 -88.273198 -92.795006 -88.273198 C -94.779007 -88.273198 -96.281364 -88.840154 -97.301708 -89.973869 C -98.265365 -91.16427 -98.747097 -92.751852 -98.747097 -94.735852 C -98.747097 -96.833225 -98.265365 -98.448354 -97.301708 -99.582068 C -96.281364 -100.71578 -94.779007 -101.28274 -92.795006 -101.28274 z M -92.795006 -74.498845 C -90.811005 -74.498845 -89.337228 -73.903824 -88.37357 -72.713424 C -87.353227 -71.579709 -86.842915 -69.992127 -86.842915 -67.951441 C -86.842915 -65.910754 -87.353227 -64.323689 -88.37357 -63.189974 C -89.337228 -62.05626 -90.811005 -61.489303 -92.795006 -61.489303 C -94.779007 -61.489303 -96.281364 -62.05626 -97.301708 -63.189974 C -98.265365 -64.380375 -98.747097 -65.96744 -98.747097 -67.951441 C -98.747097 -70.048813 -98.265365 -71.664459 -97.301708 -72.798173 C -96.281364 -73.931888 -94.779007 -74.498845 -92.795006 -74.498845 z " /></g></svg>
