<?xml version="1.0" encoding="UTF-8" standalone="no"?>
<!-- Created with Inkscape (http://www.inkscape.org/) -->

<svg
   width="172.6701mm"
   height="172.6701mm"
   viewBox="0 0 172.6701 172.6701"
   version="1.1"
   id="svg1"
   xml:space="preserve"
   xmlns="http://www.w3.org/2000/svg"
   xmlns:svg="http://www.w3.org/2000/svg"><defs
     id="defs1" /><g
     id="layer1"
     transform="translate(157.25102,198.81012)"><path
       id="path5"
       style="fill:#ffffff;fill-opacity:1;stroke-width:0.805188;stroke-linecap:round;stroke-linejoin:round"
       d="M -2.0863309 -198.17657 L -10.088943 -183.11289 L -10.930235 -165.68398 L -19.198981 -165.68398 L -11.423229 -155.47426 L -12.166336 -140.07934 C -28.353216 -157.12094 -50.823548 -166.77435 -74.327399 -166.78417 C -103.64471 -166.77397 -130.92652 -151.79225 -146.66717 -127.05894 L -157.25102 -127.05894 L -149.61996 -115.86014 L -157.25102 -26.140039 L -8.5138455 -26.140039 L 15.419061 -26.140039 L 8.0799737 -154.80195 L 15.419061 -165.68398 L 7.4593397 -165.68398 L 6.4490654 -183.39297 L -2.0863309 -198.17657 z M -83.43072 -192.21621 C -85.584619 -189.65499 -86.77489 -186.4211 -86.795372 -183.07465 C -86.842092 -175.15518 -80.459903 -168.69733 -72.540428 -168.65072 C -64.621155 -168.60402 -58.163395 -174.98588 -58.116503 -182.90515 C -58.102813 -186.26049 -59.266203 -189.5144 -61.404157 -192.10045 C -60.83125 -190.6836 -60.536835 -189.16959 -60.537027 -187.64129 C -60.575787 -181.07411 -65.930869 -175.78172 -72.498054 -175.82031 C -79.065241 -175.85911 -84.357627 -181.21415 -84.319038 -187.78134 C -84.309338 -189.30285 -84.007827 -190.80837 -83.43072 -192.21621 z M -61.63205 -119.73381 C -57.947477 -119.73381 -54.688123 -119.11073 -51.853836 -117.86364 C -49.019549 -116.67324 -46.808883 -114.97237 -45.221682 -112.76163 C -43.634482 -110.60757 -42.840949 -108.11368 -42.840949 -105.27939 C -42.840949 -102.10499 -43.775833 -99.384015 -45.646463 -97.116586 C -47.517092 -94.849156 -50.294715 -93.120223 -53.979287 -91.929822 C -49.331057 -90.909479 -46.071702 -89.237189 -44.201073 -86.913074 C -42.330444 -84.588959 -41.395043 -81.442892 -41.395043 -77.474891 C -41.395043 -74.017061 -42.443732 -71.069506 -44.541104 -68.632019 C -46.58179 -66.194533 -49.246125 -64.380375 -52.533898 -63.189974 C -55.82167 -61.999574 -59.222894 -61.404554 -62.737409 -61.404554 C -67.839125 -61.404554 -72.17575 -62.453243 -75.746951 -64.550615 C -79.261467 -66.647987 -81.018464 -69.510317 -81.018464 -73.138204 C -81.018464 -75.235577 -80.394863 -76.851222 -79.147777 -77.984937 C -77.900691 -79.175337 -76.342206 -79.770358 -74.471577 -79.770358 C -72.544262 -79.770358 -70.588235 -79.005405 -68.604235 -77.474891 C -69.114406 -76.397862 -69.369562 -75.094016 -69.369562 -73.563501 C -69.369562 -71.749558 -68.831186 -70.275781 -67.754157 -69.142066 C -66.620443 -68.008351 -64.948153 -67.441394 -62.737409 -67.441394 C -57.862436 -67.441394 -55.425194 -70.814037 -55.425194 -77.55964 C -55.425194 -81.244213 -56.615235 -84.10706 -58.996035 -86.147746 C -61.320151 -88.188433 -64.63615 -89.208541 -68.944265 -89.208541 L -68.944265 -94.480571 C -60.611462 -95.1608 -56.445287 -98.760535 -56.445287 -105.27939 C -56.445287 -108.56717 -56.955599 -110.97583 -57.975943 -112.50634 C -58.996286 -114.09354 -60.384839 -114.88759 -62.142097 -114.88759 C -64.239469 -114.88759 -65.827051 -114.15071 -66.90408 -112.67688 C -67.924423 -111.20305 -68.434219 -109.41747 -68.434219 -107.3201 C -68.434219 -105.44947 -68.037711 -103.77718 -67.244111 -102.30335 C -68.831311 -100.60278 -70.872045 -99.752084 -73.366218 -99.752084 C -75.633647 -99.752084 -77.390644 -100.43233 -78.637731 -101.79279 C -79.884817 -103.15324 -80.508417 -104.91076 -80.508417 -107.06482 C -80.508417 -109.8991 -79.544953 -112.25164 -77.617638 -114.12227 C -75.633637 -116.04958 -73.195878 -117.46671 -70.304906 -118.37369 C -67.357248 -119.28066 -64.466337 -119.73381 -61.63205 -119.73381 z M -16.311819 -119.64906 C -9.6795882 -119.64906 -4.6060751 -117.15466 -1.0915596 -112.16631 C 2.4796418 -107.23465 4.2652194 -100.06428 4.2652194 -90.654448 C 4.2652194 -81.244616 2.4796418 -74.017081 -1.0915596 -68.97205 C -4.6060751 -63.983706 -9.6795882 -61.489303 -16.311819 -61.489303 C -22.94405 -61.489303 -28.045627 -63.983706 -31.616828 -68.97205 C -35.188029 -74.017081 -36.973607 -81.244616 -36.973607 -90.654448 C -36.973607 -100.00759 -35.188029 -107.17797 -31.616828 -112.16631 C -28.045627 -117.15466 -22.94405 -119.64906 -16.311819 -119.64906 z M -121.49248 -119.13901 L -118.68645 -117.86364 L -118.68645 -68.716769 C -117.60942 -68.093226 -115.90855 -67.526269 -113.58443 -67.016097 C -111.26032 -66.562611 -109.4181 -66.279392 -108.05764 -66.16602 L -108.31292 -62.084615 L -143.00434 -62.084615 L -142.83433 -66.16602 C -137.7893 -66.732877 -133.93492 -67.583054 -131.27069 -68.716769 L -131.27069 -109.44555 L -142.66431 -109.44555 L -142.66431 -114.37703 C -139.03643 -114.66046 -135.29534 -115.19935 -131.44071 -115.99295 C -127.58608 -116.84324 -124.27008 -117.89193 -121.49248 -119.13901 z M -16.311819 -115.31237 C -19.202792 -115.31237 -21.30017 -113.41351 -22.603942 -109.61556 C -23.851028 -105.81762 -24.474628 -99.497422 -24.474628 -90.654448 C -24.474628 -81.868159 -23.851028 -75.576025 -22.603942 -71.778081 C -21.30017 -68.036822 -19.202792 -66.16602 -16.311819 -66.16602 C -13.420847 -66.16602 -11.352049 -68.036822 -10.104963 -71.778081 C -8.801191 -75.576025 -8.1490099 -81.868159 -8.1490099 -90.654448 C -8.1490099 -99.440737 -8.801191 -105.73287 -10.104963 -109.53081 C -11.352049 -113.38544 -13.420847 -115.31237 -16.311819 -115.31237 z M -93.347944 -101.28274 C -91.363943 -101.28274 -89.890166 -100.68772 -88.926508 -99.497319 C -87.906165 -98.363604 -87.395852 -96.776539 -87.395852 -94.735852 C -87.395852 -92.695166 -87.906165 -91.107584 -88.926508 -89.973869 C -89.890166 -88.840154 -91.363943 -88.273198 -93.347944 -88.273198 C -95.331945 -88.273198 -96.833785 -88.840154 -97.854129 -89.973869 C -98.817786 -91.16427 -99.300035 -92.751852 -99.300035 -94.735852 C -99.300035 -96.833225 -98.817786 -98.448354 -97.854129 -99.582068 C -96.833785 -100.71578 -95.331945 -101.28274 -93.347944 -101.28274 z M -93.347944 -74.498845 C -91.363943 -74.498845 -89.890166 -73.903824 -88.926508 -72.713424 C -87.906165 -71.579709 -87.395852 -69.992127 -87.395852 -67.951441 C -87.395852 -65.910754 -87.906165 -64.323689 -88.926508 -63.189974 C -89.890166 -62.05626 -91.363943 -61.489303 -93.347944 -61.489303 C -95.331945 -61.489303 -96.833785 -62.05626 -97.854129 -63.189974 C -98.817786 -64.380375 -99.300035 -65.96744 -99.300035 -67.951441 C -99.300035 -70.048813 -98.817786 -71.664459 -97.854129 -72.798173 C -96.833785 -73.931888 -95.331945 -74.498845 -93.347944 -74.498845 z " /></g></svg>
