<?xml version="1.0" encoding="UTF-8" standalone="no"?>
<!-- Created with Inkscape (http://www.inkscape.org/) -->

<svg
   width="172.6701mm"
   height="172.6701mm"
   viewBox="0 0 172.6701 172.6701"
   version="1.1"
   id="svg1"
   xml:space="preserve"
   xmlns="http://www.w3.org/2000/svg"
   xmlns:svg="http://www.w3.org/2000/svg"><defs
     id="defs1" /><g
     id="layer1"
     transform="translate(157.25102,198.81012)"><path
       id="path5"
       style="fill:#ffffff;fill-opacity:1;stroke-width:0.805188;stroke-linecap:round;stroke-linejoin:round"
       d="M -2.0863309 -198.17657 L -10.088943 -183.11289 L -10.930235 -165.68398 L -19.198981 -165.68398 L -11.423229 -155.47426 L -12.166336 -140.07934 C -28.353216 -157.12094 -50.823548 -166.77435 -74.327399 -166.78417 C -103.64471 -166.77397 -130.92652 -151.79225 -146.66717 -127.05894 L -157.25102 -127.05894 L -149.61996 -115.86014 L -157.25102 -26.140039 L -8.5138455 -26.140039 L 15.419061 -26.140039 L 8.0799737 -154.80195 L 15.419061 -165.68398 L 7.4593397 -165.68398 L 6.4490654 -183.39297 L -2.0863309 -198.17657 z M -83.43072 -192.21621 C -85.584619 -189.65499 -86.77489 -186.4211 -86.795372 -183.07465 C -86.842092 -175.15518 -80.459903 -168.69733 -72.540428 -168.65072 C -64.621155 -168.60402 -58.163395 -174.98588 -58.116503 -182.90515 C -58.102813 -186.26049 -59.266203 -189.5144 -61.404157 -192.10045 C -60.83125 -190.6836 -60.536835 -189.16959 -60.537027 -187.64129 C -60.575787 -181.07411 -65.930869 -175.78172 -72.498054 -175.82031 C -79.065241 -175.85911 -84.357627 -181.21415 -84.319038 -187.78134 C -84.309338 -189.30285 -84.007827 -190.80837 -83.43072 -192.21621 z M -15.716507 -120.07436 C -11.181648 -119.84761 -7.4972045 -118.85557 -4.6629178 -117.09831 L -24.899925 -83.767013 L -11.890384 -83.767013 L -11.03979 -97.626632 C -9.225846 -97.626632 -7.9225174 -97.995076 -7.1289171 -98.731991 C -6.2786311 -99.468905 -5.6264501 -100.71611 -5.1729642 -102.47336 L -0.32623159 -102.47336 L -0.4114977 -83.341716 C 1.7425602 -82.718173 4.4635389 -82.066508 7.7513115 -81.38628 L 7.3260145 -77.304875 L -0.83679474 -77.304875 L -0.83679474 -62.084615 L -11.890384 -62.084615 L -11.890384 -77.304875 L -36.463561 -77.304875 L -37.143623 -80.36567 L -15.716507 -120.07436 z M -59.84663 -119.73381 C -56.162057 -119.73381 -52.902185 -119.11073 -50.067898 -117.86364 C -47.233612 -116.67324 -45.022946 -114.97237 -43.435745 -112.76163 C -41.848544 -110.60757 -41.055012 -108.11368 -41.055012 -105.27939 C -41.055012 -102.10499 -41.990413 -99.384015 -43.861042 -97.116586 C -45.731671 -94.849156 -48.509294 -93.120223 -52.193867 -91.929822 C -47.545636 -90.909479 -44.286281 -89.237189 -42.415652 -86.913074 C -40.545023 -84.588959 -39.609622 -81.442892 -39.609622 -77.474891 C -39.609622 -74.017061 -40.658311 -71.069506 -42.755683 -68.632019 C -44.79637 -66.194533 -47.460704 -64.380375 -50.748477 -63.189974 C -54.03625 -61.999574 -57.437473 -61.404554 -60.951988 -61.404554 C -66.053705 -61.404554 -70.389812 -62.453243 -73.961013 -64.550615 C -77.475529 -66.647987 -79.233043 -69.510317 -79.233043 -73.138204 C -79.233043 -75.235577 -78.609442 -76.851222 -77.362356 -77.984937 C -76.11527 -79.175337 -74.556268 -79.770358 -72.685639 -79.770358 C -70.758324 -79.770358 -68.802815 -79.005405 -66.818814 -77.474891 C -67.328985 -76.397862 -67.584142 -75.094016 -67.584142 -73.563501 C -67.584142 -71.749558 -67.045249 -70.275781 -65.96822 -69.142066 C -64.834505 -68.008351 -63.162732 -67.441394 -60.951988 -67.441394 C -56.077015 -67.441394 -53.639256 -70.814037 -53.639256 -77.55964 C -53.639256 -81.244213 -54.829814 -84.10706 -57.210615 -86.147746 C -59.53473 -88.188433 -62.850729 -89.208541 -67.158845 -89.208541 L -67.158845 -94.480571 C -58.826042 -95.1608 -54.659866 -98.760535 -54.659866 -105.27939 C -54.659866 -108.56717 -55.169662 -110.97583 -56.190005 -112.50634 C -57.210348 -114.09354 -58.599418 -114.88759 -60.356676 -114.88759 C -62.454048 -114.88759 -64.041113 -114.15071 -65.118142 -112.67688 C -66.138486 -111.20305 -66.648798 -109.41747 -66.648798 -107.3201 C -66.648798 -105.44947 -66.251774 -103.77718 -65.458173 -102.30335 C -67.045374 -100.60278 -69.086108 -99.752084 -71.58028 -99.752084 C -73.84771 -99.752084 -75.605224 -100.43233 -76.85231 -101.79279 C -78.099396 -103.15324 -78.72248 -104.91076 -78.72248 -107.06482 C -78.72248 -109.8991 -77.759015 -112.25164 -75.8317 -114.12227 C -73.8477 -116.04958 -71.410458 -117.46671 -68.519485 -118.37369 C -65.571827 -119.28066 -62.680916 -119.73381 -59.84663 -119.73381 z M -139.26297 -119.05375 L -135.01155 -118.969 C -129.00286 -118.85563 -125.82873 -118.79847 -125.48862 -118.79847 L -113.41442 -118.969 L -110.94842 -117.18306 L -111.71375 -110.72092 L -132.80083 -110.72092 L -133.99146 -96.521273 C -131.0438 -97.258188 -128.37946 -97.626632 -125.99866 -97.626632 C -120.38678 -97.626632 -115.82358 -96.124274 -112.30906 -93.11993 C -108.73786 -90.172272 -106.95228 -85.836165 -106.95228 -80.110905 C -106.95228 -76.539704 -107.80246 -73.336993 -109.50303 -70.502706 C -111.14692 -67.66842 -113.52803 -65.429173 -116.64575 -63.785287 C -119.76346 -62.198086 -123.44791 -61.404554 -127.69934 -61.404554 C -131.15717 -61.404554 -134.30323 -61.886286 -137.13752 -62.849943 C -139.91512 -63.813601 -142.09772 -65.14551 -143.68492 -66.846082 C -145.27212 -68.60334 -146.06566 -70.559366 -146.06566 -72.713424 C -146.06566 -74.980853 -145.44206 -76.709787 -144.19497 -77.900188 C -142.94788 -79.147274 -141.41746 -79.770358 -139.60352 -79.770358 C -138.58318 -79.770358 -137.56255 -79.572362 -136.54221 -79.175562 C -135.46518 -78.778762 -134.50171 -78.211805 -133.65143 -77.474891 C -134.1616 -76.28449 -134.41675 -75.037289 -134.41675 -73.733517 C -134.41675 -71.862888 -133.87786 -70.332466 -132.80083 -69.142066 C -131.66712 -67.951665 -129.96676 -67.356645 -127.69934 -67.356645 C -122.59762 -67.356645 -120.04657 -71.608045 -120.04657 -80.110905 C -120.04657 -84.135593 -120.84011 -87.054567 -122.42731 -88.86851 C -124.01451 -90.73914 -126.14046 -91.674541 -128.80469 -91.674541 C -130.44858 -91.674541 -132.20558 -91.36274 -134.07621 -90.739197 C -135.94684 -90.115654 -137.78957 -89.236897 -139.60352 -88.103182 L -144.27972 -92.609884 L -142.069 -116.75776 L -139.26297 -119.05375 z M -91.562006 -101.28274 C -89.578006 -101.28274 -88.104228 -100.68772 -87.140571 -99.497319 C -86.120228 -98.363604 -85.609915 -96.776539 -85.609915 -94.735852 C -85.609915 -92.695166 -86.120228 -91.107584 -87.140571 -89.973869 C -88.104228 -88.840154 -89.578006 -88.273198 -91.562006 -88.273198 C -93.546007 -88.273198 -95.048365 -88.840154 -96.068708 -89.973869 C -97.032365 -91.16427 -97.514098 -92.751852 -97.514098 -94.735852 C -97.514098 -96.833225 -97.032365 -98.448354 -96.068708 -99.582068 C -95.048365 -100.71578 -93.546007 -101.28274 -91.562006 -101.28274 z M -91.562006 -74.498845 C -89.578006 -74.498845 -88.104228 -73.903824 -87.140571 -72.713424 C -86.120228 -71.579709 -85.609915 -69.992127 -85.609915 -67.951441 C -85.609915 -65.910754 -86.120228 -64.323689 -87.140571 -63.189974 C -88.104228 -62.05626 -89.578006 -61.489303 -91.562006 -61.489303 C -93.546007 -61.489303 -95.048365 -62.05626 -96.068708 -63.189974 C -97.032365 -64.380375 -97.514098 -65.96744 -97.514098 -67.951441 C -97.514098 -70.048813 -97.032365 -71.664459 -96.068708 -72.798173 C -95.048365 -73.931888 -93.546007 -74.498845 -91.562006 -74.498845 z " /></g></svg>
