<?xml version="1.0" encoding="UTF-8" standalone="no"?>
<!-- Created with Inkscape (http://www.inkscape.org/) -->

<svg
   width="172.6701mm"
   height="172.6701mm"
   viewBox="0 0 172.6701 172.6701"
   version="1.1"
   id="svg1"
   xml:space="preserve"
   xmlns="http://www.w3.org/2000/svg"
   xmlns:svg="http://www.w3.org/2000/svg"><defs
     id="defs1" /><g
     id="layer1"
     transform="translate(157.25102,198.81012)"><path
       id="path5"
       style="fill:#ffffff;fill-opacity:1;stroke-width:0.805188;stroke-linecap:round;stroke-linejoin:round"
       d="M -2.0863309 -198.17657 L -10.088943 -183.11289 L -10.930235 -165.68398 L -19.198981 -165.68398 L -11.423229 -155.47426 L -12.166336 -140.07934 C -28.353216 -157.12094 -50.823548 -166.77435 -74.327399 -166.78417 C -103.64471 -166.77397 -130.92652 -151.79225 -146.66717 -127.05894 L -157.25102 -127.05894 L -149.61996 -115.86014 L -157.25102 -26.140039 L -8.5138455 -26.140039 L 15.419061 -26.140039 L 8.0799737 -154.80195 L 15.419061 -165.68398 L 7.4593397 -165.68398 L 6.4490654 -183.39297 L -2.0863309 -198.17657 z M -83.43072 -192.21621 C -85.584619 -189.65499 -86.77489 -186.4211 -86.795372 -183.07465 C -86.842092 -175.15518 -80.459903 -168.69733 -72.540428 -168.65072 C -64.621155 -168.60402 -58.163395 -174.98588 -58.116503 -182.90515 C -58.102813 -186.26049 -59.266203 -189.5144 -61.404157 -192.10045 C -60.83125 -190.6836 -60.536835 -189.16959 -60.537027 -187.64129 C -60.575787 -181.07411 -65.930869 -175.78172 -72.498054 -175.82031 C -79.065241 -175.85911 -84.357627 -181.21415 -84.319038 -187.78134 C -84.309338 -189.30285 -84.007827 -190.80837 -83.43072 -192.21621 z M -128.97471 -120.07436 C -124.43985 -119.84761 -120.75541 -118.85557 -117.92112 -117.09831 L -138.15761 -83.767013 L -125.14859 -83.767013 L -124.29799 -97.626632 C -122.48405 -97.626632 -121.18072 -97.995076 -120.38712 -98.731991 C -119.53683 -99.468905 -118.88465 -100.71611 -118.43117 -102.47336 L -113.58443 -102.47336 L -113.6697 -83.341716 C -111.51564 -82.718173 -108.79466 -82.066508 -105.50689 -81.38628 L -105.93219 -77.304875 L -114.095 -77.304875 L -114.095 -62.084615 L -125.14859 -62.084615 L -125.14859 -77.304875 L -149.72176 -77.304875 L -150.40183 -80.36567 L -128.97471 -120.07436 z M -12.060399 -119.81908 C -6.1083969 -119.81908 -1.3752646 -118.54381 2.139251 -115.99295 C 5.6537666 -113.44209 7.4112806 -110.01229 7.4112806 -105.70418 C 7.4112806 -103.38006 6.561104 -101.05611 4.8605319 -98.731991 C 3.1599599 -96.407876 0.92071351 -94.50901 -1.8568875 -93.035181 C 1.6576281 -91.334609 4.4066704 -89.350519 6.3906711 -87.08309 C 8.4313575 -84.81566 9.4519829 -81.896169 9.4519829 -78.324968 C 9.4519829 -73.166566 7.5811809 -69.057034 3.8399224 -65.996005 C 0.098663868 -62.991661 -4.9462688 -61.489303 -11.295071 -61.489303 C -18.267417 -61.489303 -23.65273 -62.878373 -27.450674 -65.655974 C -31.191933 -68.433575 -33.062218 -72.401238 -33.062218 -77.55964 C -33.062218 -80.223869 -32.212041 -82.86014 -30.511469 -85.467684 C -28.810897 -88.131914 -26.430299 -90.483931 -23.36927 -92.524618 C -25.920128 -93.941761 -27.904218 -95.642631 -29.321361 -97.626632 C -30.738504 -99.610633 -31.446813 -102.07646 -31.446813 -105.02411 C -31.446813 -109.55897 -29.689815 -113.15871 -26.1753 -115.82294 C -22.660784 -118.48717 -17.955716 -119.81908 -12.060399 -119.81908 z M -70.474921 -119.05375 L -66.223501 -118.969 C -60.214813 -118.85563 -57.040683 -118.79847 -56.700568 -118.79847 L -44.62637 -118.969 L -42.160371 -117.18306 L -42.925699 -110.72092 L -64.012784 -110.72092 L -65.203409 -96.521273 C -62.25575 -97.258188 -59.591416 -97.626632 -57.210615 -97.626632 C -51.598727 -97.626632 -47.035527 -96.124274 -43.521011 -93.11993 C -39.94981 -90.172272 -38.164232 -85.836165 -38.164232 -80.110905 C -38.164232 -76.539704 -39.014409 -73.336993 -40.714981 -70.502706 C -42.358867 -67.66842 -44.739982 -65.429173 -47.857697 -63.785287 C -50.975413 -62.198086 -54.659856 -61.404554 -58.911286 -61.404554 C -62.369116 -61.404554 -65.515183 -61.886286 -68.34947 -62.849943 C -71.127071 -63.813601 -73.309156 -65.14551 -74.896357 -66.846082 C -76.483557 -68.60334 -77.27709 -70.559366 -77.27709 -72.713424 C -77.27709 -74.980853 -76.654006 -76.709787 -75.40692 -77.900188 C -74.159834 -79.147274 -72.628896 -79.770358 -70.814952 -79.770358 C -69.794609 -79.770358 -68.7745 -79.572362 -67.754157 -79.175562 C -66.677128 -78.778762 -65.713664 -78.211805 -64.863378 -77.474891 C -65.373549 -76.28449 -65.628189 -75.037289 -65.628189 -73.733517 C -65.628189 -71.862888 -65.089812 -70.332466 -64.012784 -69.142066 C -62.879069 -67.951665 -61.178716 -67.356645 -58.911286 -67.356645 C -53.80957 -67.356645 -51.258523 -71.608045 -51.258523 -80.110905 C -51.258523 -84.135593 -52.052056 -87.054567 -53.639256 -88.86851 C -55.226457 -90.73914 -57.352415 -91.674541 -60.016645 -91.674541 C -61.660531 -91.674541 -63.417529 -91.36274 -65.288158 -90.739197 C -67.158787 -90.115654 -69.001009 -89.236897 -70.814952 -88.103182 L -75.491669 -92.609884 L -73.280952 -116.75776 L -70.474921 -119.05375 z M -12.060399 -113.78224 C -14.327828 -113.78224 -16.113406 -113.04535 -17.417178 -111.57152 C -18.72095 -110.15437 -19.372614 -108.22693 -19.372614 -105.78944 C -19.372614 -103.63538 -18.551018 -101.84981 -16.907132 -100.43266 C -15.20656 -99.072205 -12.740737 -97.711715 -9.5096504 -96.351258 C -8.092507 -97.314915 -6.9585936 -98.646824 -6.1083076 -100.3474 C -5.2580216 -102.04797 -4.8329332 -103.86213 -4.8329332 -105.78944 C -4.8329332 -108.22693 -5.5131779 -110.15437 -6.8736356 -111.57152 C -8.1774075 -113.04535 -9.9063411 -113.78224 -12.060399 -113.78224 z M -90.797195 -101.28274 C -88.813194 -101.28274 -87.3389 -100.68772 -86.375243 -99.497319 C -85.3549 -98.363604 -84.845104 -96.776539 -84.845104 -94.735852 C -84.845104 -92.695166 -85.3549 -91.107584 -86.375243 -89.973869 C -87.3389 -88.840154 -88.813194 -88.273198 -90.797195 -88.273198 C -92.781196 -88.273198 -94.283037 -88.840154 -95.30338 -89.973869 C -96.267038 -91.16427 -96.74877 -92.751852 -96.74877 -94.735852 C -96.74877 -96.833225 -96.267038 -98.448354 -95.30338 -99.582068 C -94.283037 -100.71578 -92.781196 -101.28274 -90.797195 -101.28274 z M -15.546491 -89.038526 C -17.247063 -87.678068 -18.494265 -86.119583 -19.287865 -84.362325 C -20.081465 -82.605068 -20.477973 -80.50769 -20.477973 -78.070203 C -20.477973 -74.725745 -19.656377 -72.089474 -18.012491 -70.162159 C -16.368604 -68.291529 -14.129358 -67.356645 -11.295071 -67.356645 C -8.5174701 -67.356645 -6.3634481 -68.291529 -4.8329332 -70.162159 C -3.2457327 -72.032788 -2.4522 -74.640479 -2.4522 -77.984937 C -2.4522 -79.855566 -3.0472203 -81.442631 -4.2376207 -82.746403 C -5.3713355 -84.106861 -6.8170492 -85.212194 -8.5743069 -86.06248 C -10.331565 -86.969452 -12.655519 -87.961497 -15.546491 -89.038526 z M -90.797195 -74.498845 C -88.813194 -74.498845 -87.3389 -73.903824 -86.375243 -72.713424 C -85.3549 -71.579709 -84.845104 -69.992127 -84.845104 -67.951441 C -84.845104 -65.910754 -85.3549 -64.323689 -86.375243 -63.189974 C -87.3389 -62.05626 -88.813194 -61.489303 -90.797195 -61.489303 C -92.781196 -61.489303 -94.283037 -62.05626 -95.30338 -63.189974 C -96.267038 -64.380375 -96.74877 -65.96744 -96.74877 -67.951441 C -96.74877 -70.048813 -96.267038 -71.664459 -95.30338 -72.798173 C -94.283037 -73.931888 -92.781196 -74.498845 -90.797195 -74.498845 z " /></g></svg>
