<?xml version="1.0" encoding="UTF-8" standalone="no"?>
<!-- Created with Inkscape (http://www.inkscape.org/) -->

<svg
   width="172.6701mm"
   height="172.6701mm"
   viewBox="0 0 172.6701 172.6701"
   version="1.1"
   id="svg1"
   xml:space="preserve"
   xmlns="http://www.w3.org/2000/svg"
   xmlns:svg="http://www.w3.org/2000/svg"><defs
     id="defs1" /><g
     id="layer1"
     transform="translate(157.25102,198.81012)"><path
       id="path5"
       style="fill:#ffffff;fill-opacity:1;stroke-width:0.805188;stroke-linecap:round;stroke-linejoin:round"
       d="M -2.0863309 -198.17657 L -10.088943 -183.11289 L -10.930235 -165.68398 L -19.198981 -165.68398 L -11.423229 -155.47426 L -12.166336 -140.07934 C -28.353216 -157.12094 -50.823548 -166.77435 -74.327399 -166.78417 C -103.64471 -166.77397 -130.92652 -151.79225 -146.66717 -127.05894 L -157.25102 -127.05894 L -149.61996 -115.86014 L -157.25102 -26.140039 L -8.5138455 -26.140039 L 15.419061 -26.140039 L 8.0799737 -154.80195 L 15.419061 -165.68398 L 7.4593397 -165.68398 L 6.4490654 -183.39297 L -2.0863309 -198.17657 z M -83.43072 -192.21621 C -85.584619 -189.65499 -86.77489 -186.4211 -86.795372 -183.07465 C -86.842092 -175.15518 -80.459903 -168.69733 -72.540428 -168.65072 C -64.621155 -168.60402 -58.163395 -174.98588 -58.116503 -182.90515 C -58.102813 -186.26049 -59.266203 -189.5144 -61.404157 -192.10045 C -60.83125 -190.6836 -60.536835 -189.16959 -60.537027 -187.64129 C -60.575787 -181.07411 -65.930869 -175.78172 -72.498054 -175.82031 C -79.065241 -175.85911 -84.357627 -181.21415 -84.319038 -187.78134 C -84.309338 -189.30285 -84.007827 -190.80837 -83.43072 -192.21621 z M -60.739082 -120.07436 C -56.204223 -119.84761 -52.519779 -118.85557 -49.685493 -117.09831 L -69.9225 -83.767013 L -56.912958 -83.767013 L -56.062881 -97.626632 C -54.248938 -97.626632 -52.945092 -97.995076 -52.151492 -98.731991 C -51.301206 -99.468905 -50.649025 -100.71611 -50.195539 -102.47336 L -45.348806 -102.47336 L -45.434073 -83.341716 C -43.280015 -82.718173 -40.559036 -82.066508 -37.271263 -81.38628 L -37.69656 -77.304875 L -45.85937 -77.304875 L -45.85937 -62.084615 L -56.912958 -62.084615 L -56.912958 -77.304875 L -81.486136 -77.304875 L -82.166197 -80.36567 L -60.739082 -120.07436 z M -0.7939033 -119.90383 L 1.246799 -115.65241 C -10.203719 -110.72075 -17.091391 -103.12528 -19.415506 -92.865166 C -16.127733 -94.452366 -13.00973 -95.245899 -10.062071 -95.245899 C -4.3934979 -95.245899 0.056414423 -93.715477 3.2875013 -90.654448 C 6.575274 -87.593418 8.2189833 -83.455306 8.2189833 -78.240218 C 8.2189833 -75.009132 7.3402262 -72.118221 5.5829684 -69.567363 C 3.8823964 -67.016505 1.4732181 -65.032415 -1.6444974 -63.615271 C -4.7055271 -62.198128 -8.2200384 -61.489303 -12.18804 -61.489303 C -18.933642 -61.489303 -24.120443 -63.360105 -27.74833 -67.101363 C -31.319532 -70.842622 -33.105109 -76.255999 -33.105109 -83.341716 C -33.105109 -92.241376 -30.35555 -99.808775 -24.857034 -106.04421 C -19.301832 -112.33632 -11.280764 -116.95617 -0.7939033 -119.90383 z M -128.25176 -119.73381 C -122.41313 -119.73381 -117.76522 -118.28861 -114.30739 -115.39764 C -110.84956 -112.56335 -109.12062 -108.56711 -109.12062 -103.40871 C -109.12062 -98.873849 -110.84956 -94.026912 -114.30739 -88.86851 C -117.76522 -83.766794 -123.46181 -77.616529 -131.39782 -70.41744 L -108.52531 -70.41744 L -108.52531 -62.084615 L -147.04337 -62.084615 L -147.04337 -67.016097 C -140.75126 -73.081471 -135.84768 -78.268272 -132.33316 -82.576388 C -128.81865 -86.884504 -126.29618 -90.852684 -124.76566 -94.480571 C -123.17846 -98.108458 -122.38493 -101.84955 -122.38493 -105.70418 C -122.38493 -111.82623 -124.42567 -114.88759 -128.50704 -114.88759 C -130.32098 -114.88759 -131.79476 -114.0369 -132.92847 -112.33633 C -134.06219 -110.69244 -134.62915 -108.65171 -134.62915 -106.21422 C -134.62915 -104.51365 -134.03412 -102.89852 -132.84372 -101.36801 C -133.80738 -100.46103 -134.91271 -99.752209 -136.1598 -99.242037 C -137.3502 -98.731866 -138.54024 -98.476709 -139.73064 -98.476709 C -141.77133 -98.476709 -143.4722 -99.10031 -144.83266 -100.3474 C -146.19311 -101.65117 -146.87336 -103.52197 -146.87336 -105.95946 C -146.87336 -108.567 -146.10789 -110.91953 -144.57737 -113.01691 C -143.04686 -115.11428 -140.89284 -116.75799 -138.11524 -117.94839 C -135.28095 -119.13879 -131.99302 -119.73381 -128.25176 -119.73381 z M -93.390319 -101.28274 C -91.406318 -101.28274 -89.93254 -100.68772 -88.968883 -99.497319 C -87.94854 -98.363604 -87.438227 -96.776539 -87.438227 -94.735852 C -87.438227 -92.695166 -87.94854 -91.107584 -88.968883 -89.973869 C -89.93254 -88.840154 -91.406318 -88.273198 -93.390319 -88.273198 C -95.374319 -88.273198 -96.876677 -88.840154 -97.89702 -89.973869 C -98.860678 -91.16427 -99.34241 -92.751852 -99.34241 -94.735852 C -99.34241 -96.833225 -98.860678 -98.448354 -97.89702 -99.582068 C -96.876677 -100.71578 -95.374319 -101.28274 -93.390319 -101.28274 z M -12.442805 -89.293807 C -14.823606 -89.293807 -17.403233 -88.330343 -20.180834 -86.403028 L -20.180834 -85.297669 C -20.180834 -79.118924 -19.500589 -74.583787 -18.140131 -71.692814 C -16.779674 -68.801842 -14.625652 -67.356645 -11.677993 -67.356645 C -9.2405069 -67.356645 -7.3697048 -68.291529 -6.0659329 -70.162159 C -4.762161 -72.032788 -4.10998 -74.697123 -4.10998 -78.154952 C -4.10998 -81.669468 -4.8473854 -84.390447 -6.3212145 -86.317762 C -7.7383579 -88.301762 -9.7785751 -89.293807 -12.442805 -89.293807 z M -93.390319 -74.498845 C -91.406318 -74.498845 -89.93254 -73.903824 -88.968883 -72.713424 C -87.94854 -71.579709 -87.438227 -69.992127 -87.438227 -67.951441 C -87.438227 -65.910754 -87.94854 -64.323689 -88.968883 -63.189974 C -89.93254 -62.05626 -91.406318 -61.489303 -93.390319 -61.489303 C -95.374319 -61.489303 -96.876677 -62.05626 -97.89702 -63.189974 C -98.860678 -64.380375 -99.34241 -65.96744 -99.34241 -67.951441 C -99.34241 -70.048813 -98.860678 -71.664459 -97.89702 -72.798173 C -96.876677 -73.931888 -95.374319 -74.498845 -93.390319 -74.498845 z " /></g></svg>
