<?xml version="1.0" encoding="UTF-8" standalone="no"?>
<!-- Created with Inkscape (http://www.inkscape.org/) -->

<svg
   width="172.6701mm"
   height="172.6701mm"
   viewBox="0 0 172.6701 172.6701"
   version="1.1"
   id="svg1"
   xml:space="preserve"
   xmlns="http://www.w3.org/2000/svg"
   xmlns:svg="http://www.w3.org/2000/svg"><defs
     id="defs1" /><g
     id="layer1"
     transform="translate(157.25102,198.81012)"><path
       id="path5"
       style="fill:#ffffff;fill-opacity:1;stroke-width:0.805188;stroke-linecap:round;stroke-linejoin:round"
       d="M -2.0863309 -198.17657 L -10.088943 -183.11289 L -10.930235 -165.68398 L -19.198981 -165.68398 L -11.423229 -155.47426 L -12.166336 -140.07934 C -28.353216 -157.12094 -50.823548 -166.77435 -74.327399 -166.78417 C -103.64471 -166.77397 -130.92652 -151.79225 -146.66717 -127.05894 L -157.25102 -127.05894 L -149.61996 -115.86014 L -157.25102 -26.140039 L -8.5138455 -26.140039 L 15.419061 -26.140039 L 8.0799737 -154.80195 L 15.419061 -165.68398 L 7.4593397 -165.68398 L 6.4490654 -183.39297 L -2.0863309 -198.17657 z M -83.43072 -192.21621 C -85.584619 -189.65499 -86.77489 -186.4211 -86.795372 -183.07465 C -86.842092 -175.15518 -80.459903 -168.69733 -72.540428 -168.65072 C -64.621155 -168.60402 -58.163395 -174.98588 -58.116503 -182.90515 C -58.102813 -186.26049 -59.266203 -189.5144 -61.404157 -192.10045 C -60.83125 -190.6836 -60.536835 -189.16959 -60.537027 -187.64129 C -60.575787 -181.07411 -65.930869 -175.78172 -72.498054 -175.82031 C -79.065241 -175.85911 -84.357627 -181.21415 -84.319038 -187.78134 C -84.309338 -189.30285 -84.007827 -190.80837 -83.43072 -192.21621 z M -62.057347 -120.07436 C -57.522489 -119.84761 -53.837528 -118.85557 -51.003242 -117.09831 L -71.240249 -83.767013 L -58.230708 -83.767013 L -57.38063 -97.626632 C -55.566687 -97.626632 -54.262841 -97.995076 -53.469241 -98.731991 C -52.618955 -99.468905 -51.967291 -100.71611 -51.513805 -102.47336 L -46.667072 -102.47336 L -46.751822 -83.341716 C -44.597764 -82.718173 -41.877302 -82.066508 -38.589529 -81.38628 L -39.014309 -77.304875 L -47.177119 -77.304875 L -47.177119 -62.084615 L -58.230708 -62.084615 L -58.230708 -77.304875 L -82.804401 -77.304875 L -83.484463 -80.36567 L -62.057347 -120.07436 z M -122.8526 -119.13901 L -120.04657 -117.86364 L -120.04657 -68.716769 C -118.96954 -68.093226 -117.26919 -67.526269 -114.94508 -67.016097 C -112.62096 -66.562611 -110.77874 -66.279392 -109.41828 -66.16602 L -109.67305 -62.084615 L -144.36498 -62.084615 L -144.19497 -66.16602 C -139.14994 -66.732877 -135.29505 -67.583054 -132.63082 -68.716769 L -132.63082 -109.44555 L -144.02495 -109.44555 L -144.02495 -114.37703 C -140.39707 -114.66046 -136.65546 -115.19935 -132.80083 -115.99295 C -128.9462 -116.84324 -125.6302 -117.89193 -122.8526 -119.13901 z M -27.365408 -119.05375 L -23.113988 -118.969 C -17.1053 -118.85563 -13.931169 -118.79847 -13.591055 -118.79847 L -1.5168566 -118.969 L 0.94914276 -117.18306 L 0.1838148 -110.72092 L -20.90327 -110.72092 L -22.093895 -96.521273 C -19.146237 -97.258188 -16.481902 -97.626632 -14.101101 -97.626632 C -8.4892136 -97.626632 -3.9260133 -96.124274 -0.4114977 -93.11993 C 3.1597036 -90.172272 4.9452813 -85.836165 4.9452813 -80.110905 C 4.9452813 -76.539704 4.0951046 -73.336993 2.3945326 -70.502706 C 0.75064625 -67.66842 -1.6304685 -65.429173 -4.7481839 -63.785287 C -7.8658993 -62.198086 -11.550343 -61.404554 -15.801773 -61.404554 C -19.259603 -61.404554 -22.40567 -61.886286 -25.239956 -62.849943 C -28.017557 -63.813601 -30.199643 -65.14551 -31.786844 -66.846082 C -33.374044 -68.60334 -34.168094 -70.559366 -34.168094 -72.713424 C -34.168094 -74.980853 -33.544493 -76.709787 -32.297407 -77.900188 C -31.050321 -79.147274 -29.519382 -79.770358 -27.705439 -79.770358 C -26.685096 -79.770358 -25.664987 -79.572362 -24.644644 -79.175562 C -23.567615 -78.778762 -22.60415 -78.211805 -21.753864 -77.474891 C -22.264036 -76.28449 -22.518675 -75.037289 -22.518675 -73.733517 C -22.518675 -71.862888 -21.980299 -70.332466 -20.90327 -69.142066 C -19.769555 -67.951665 -18.069202 -67.356645 -15.801773 -67.356645 C -10.700057 -67.356645 -8.1490099 -71.608045 -8.1490099 -80.110905 C -8.1490099 -84.135593 -8.9425426 -87.054567 -10.529743 -88.86851 C -12.116944 -90.73914 -14.242902 -91.674541 -16.907132 -91.674541 C -18.551018 -91.674541 -20.308015 -91.36274 -22.178645 -90.739197 C -24.049274 -90.115654 -25.891495 -89.236897 -27.705439 -88.103182 L -32.382156 -92.609884 L -30.171438 -116.75776 L -27.365408 -119.05375 z M -94.708068 -101.28274 C -92.724067 -101.28274 -91.250289 -100.68772 -90.286632 -99.497319 C -89.266289 -98.363604 -88.755976 -96.776539 -88.755976 -94.735852 C -88.755976 -92.695166 -89.266289 -91.107584 -90.286632 -89.973869 C -91.250289 -88.840154 -92.724067 -88.273198 -94.708068 -88.273198 C -96.692068 -88.273198 -98.194426 -88.840154 -99.214769 -89.973869 C -100.17843 -91.16427 -100.66016 -92.751852 -100.66016 -94.735852 C -100.66016 -96.833225 -100.17843 -98.448354 -99.214769 -99.582068 C -98.194426 -100.71578 -96.692068 -101.28274 -94.708068 -101.28274 z M -94.708068 -74.498845 C -92.724067 -74.498845 -91.250289 -73.903824 -90.286632 -72.713424 C -89.266289 -71.579709 -88.755976 -69.992127 -88.755976 -67.951441 C -88.755976 -65.910754 -89.266289 -64.323689 -90.286632 -63.189974 C -91.250289 -62.05626 -92.724067 -61.489303 -94.708068 -61.489303 C -96.692068 -61.489303 -98.194426 -62.05626 -99.214769 -63.189974 C -100.17843 -64.380375 -100.66016 -65.96744 -100.66016 -67.951441 C -100.66016 -70.048813 -100.17843 -71.664459 -99.214769 -72.798173 C -98.194426 -73.931888 -96.692068 -74.498845 -94.708068 -74.498845 z " /></g></svg>
