<?xml version="1.0" encoding="UTF-8" standalone="no"?>
<!-- Created with Inkscape (http://www.inkscape.org/) -->

<svg
   width="172.6701mm"
   height="172.6701mm"
   viewBox="0 0 172.6701 172.6701"
   version="1.1"
   id="svg1"
   xml:space="preserve"
   xmlns="http://www.w3.org/2000/svg"
   xmlns:svg="http://www.w3.org/2000/svg"><defs
     id="defs1" /><g
     id="layer1"
     transform="translate(157.25102,198.81012)"><path
       id="path5"
       style="fill:#ffffff;fill-opacity:1;stroke-width:0.805188;stroke-linecap:round;stroke-linejoin:round"
       d="M -2.0863309 -198.17657 L -10.088943 -183.11289 L -10.930235 -165.68398 L -19.198981 -165.68398 L -11.423229 -155.47426 L -12.166336 -140.07934 C -28.353216 -157.12094 -50.823548 -166.77435 -74.327399 -166.78417 C -103.64471 -166.77397 -130.92652 -151.79225 -146.66717 -127.05894 L -157.25102 -127.05894 L -149.61996 -115.86014 L -157.25102 -26.140039 L -8.5138455 -26.140039 L 15.419061 -26.140039 L 8.0799737 -154.80195 L 15.419061 -165.68398 L 7.4593397 -165.68398 L 6.4490654 -183.39297 L -2.0863309 -198.17657 z M -83.43072 -192.21621 C -85.584619 -189.65499 -86.77489 -186.4211 -86.795372 -183.07465 C -86.842092 -175.15518 -80.459903 -168.69733 -72.540428 -168.65072 C -64.621155 -168.60402 -58.163395 -174.98588 -58.116503 -182.90515 C -58.102813 -186.26049 -59.266203 -189.5144 -61.404157 -192.10045 C -60.83125 -190.6836 -60.536835 -189.16959 -60.537027 -187.64129 C -60.575787 -181.07411 -65.930869 -175.78172 -72.498054 -175.82031 C -79.065241 -175.85911 -84.357627 -181.21415 -84.319038 -187.78134 C -84.309338 -189.30285 -84.007827 -190.80837 -83.43072 -192.21621 z M -37.538947 -132.97176 C -26.338588 -132.97176 -17.773477 -129.86595 -11.843875 -123.65398 C -5.8201522 -117.44202 -2.8082506 -108.45327 -2.8082506 -96.688188 C -2.8082506 -81.911243 -7.4202733 -69.299132 -16.644099 -58.851738 C -25.773803 -48.498465 -39.044849 -40.875057 -56.457172 -35.980782 L -59.845596 -43.039783 C -50.433529 -47.086972 -42.856561 -52.2635 -37.115201 -58.569585 C -31.37384 -64.96979 -27.562136 -72.405373 -25.679723 -80.876233 C -30.95048 -78.240855 -36.080052 -76.922986 -41.068448 -76.922986 C -50.480514 -76.922986 -57.916098 -79.464294 -63.375096 -84.54681 C -68.739974 -89.629326 -71.42215 -96.500404 -71.42215 -105.15951 C -71.42215 -110.52438 -70.01037 -115.32423 -67.18675 -119.55966 C -64.269009 -123.79509 -60.268965 -127.08924 -55.186449 -129.44226 C -50.009812 -131.79528 -44.127394 -132.97176 -37.538947 -132.97176 z M -100.22349 -132.26586 L -95.564346 -130.14816 L -95.564346 -48.545907 C -93.776053 -47.51058 -90.952493 -46.569393 -87.093545 -45.722307 C -83.234598 -44.969341 -80.17574 -44.498748 -77.916844 -44.310507 L -78.340074 -37.533659 L -135.94224 -37.533659 L -135.65957 -44.310507 C -127.28283 -45.251713 -120.88287 -46.663494 -116.45919 -48.545907 L -116.45919 -116.17124 L -135.37742 -116.17124 L -135.37742 -124.35988 C -129.3537 -124.83049 -123.14155 -125.72472 -116.74135 -127.04241 C -110.34114 -128.45422 -104.83541 -130.19521 -100.22349 -132.26586 z M -38.385924 -123.23024 C -42.433113 -123.23024 -45.539443 -121.67759 -47.704218 -118.57161 C -49.868994 -115.46562 -50.951048 -111.04194 -50.951048 -105.30058 C -50.951048 -99.465101 -49.774565 -94.900034 -47.421548 -91.605811 C -44.974411 -88.405708 -41.538872 -86.805587 -37.115201 -86.805587 C -33.256253 -86.805587 -28.973956 -88.405708 -24.267923 -91.605811 L -24.267923 -93.441358 C -24.267923 -103.70051 -25.39745 -111.23001 -27.656346 -116.03016 C -29.915242 -120.83031 -33.491649 -123.23024 -38.385924 -123.23024 z " /></g></svg>
