<?xml version="1.0" encoding="UTF-8" standalone="no"?>
<!-- Created with Inkscape (http://www.inkscape.org/) -->

<svg
   width="172.6701mm"
   height="172.6701mm"
   viewBox="0 0 172.6701 172.6701"
   version="1.1"
   id="svg1"
   xml:space="preserve"
   xmlns="http://www.w3.org/2000/svg"
   xmlns:svg="http://www.w3.org/2000/svg"><defs
     id="defs1" /><g
     id="layer1"
     transform="translate(157.25102,198.81012)"><path
       id="path5"
       style="fill:#ffffff;fill-opacity:1;stroke-width:0.805188;stroke-linecap:round;stroke-linejoin:round"
       d="M -2.0863309 -198.17657 L -10.088943 -183.11289 L -10.930235 -165.68398 L -19.198981 -165.68398 L -11.423229 -155.47426 L -12.166336 -140.07934 C -28.353216 -157.12094 -50.823548 -166.77435 -74.327399 -166.78417 C -103.64471 -166.77397 -130.92652 -151.79225 -146.66717 -127.05894 L -157.25102 -127.05894 L -149.61996 -115.86014 L -157.25102 -26.140039 L -8.5138455 -26.140039 L 15.419061 -26.140039 L 8.0799737 -154.80195 L 15.419061 -165.68398 L 7.4593397 -165.68398 L 6.4490654 -183.39297 L -2.0863309 -198.17657 z M -83.43072 -192.21621 C -85.584619 -189.65499 -86.77489 -186.4211 -86.795372 -183.07465 C -86.842092 -175.15518 -80.459903 -168.69733 -72.540428 -168.65072 C -64.621155 -168.60402 -58.163395 -174.98588 -58.116503 -182.90515 C -58.102813 -186.26049 -59.266203 -189.5144 -61.404157 -192.10045 C -60.83125 -190.6836 -60.536835 -189.16959 -60.537027 -187.64129 C -60.575787 -181.07411 -65.930869 -175.78172 -72.498054 -175.82031 C -79.065241 -175.85911 -84.357627 -181.21415 -84.319038 -187.78134 C -84.309338 -189.30285 -84.007827 -190.80837 -83.43072 -192.21621 z M -32.8798 -133.39551 C -22.99713 -133.39551 -15.138426 -131.27784 -9.3029446 -127.04241 C -3.4674633 -122.80698 -0.54947378 -117.11238 -0.54947378 -109.95921 C -0.54947378 -106.10027 -1.9612542 -102.24161 -4.7848742 -98.382658 C -7.6084942 -94.523711 -11.326286 -91.370425 -15.938199 -88.923287 C -10.102717 -86.099667 -5.5376506 -82.805513 -2.2434272 -79.040686 C 1.1449168 -75.27586 2.8389499 -70.42854 2.8389499 -64.498938 C 2.8389499 -55.933958 -0.26686363 -49.110352 -6.4788276 -44.027836 C -12.690792 -39.039441 -21.067562 -36.545089 -31.609077 -36.545089 C -43.185919 -36.545089 -52.127711 -38.8511 -58.433796 -43.463013 C -64.64576 -48.074926 -67.751573 -54.663751 -67.751573 -63.228732 C -67.751573 -67.652403 -66.339793 -72.028612 -63.516173 -76.358163 C -60.692553 -80.781834 -56.739465 -84.687967 -51.656949 -88.076311 C -55.892379 -90.429327 -59.186533 -93.252888 -61.539549 -96.547111 C -63.892566 -99.841335 -65.06905 -103.93581 -65.06905 -108.83008 C -65.06905 -116.35974 -62.151577 -122.33607 -56.316096 -126.75974 C -50.480614 -131.18341 -42.668349 -133.39551 -32.8798 -133.39551 z M -129.8713 -132.12478 L -122.8123 -131.98371 C -112.8355 -131.79547 -107.56455 -131.70104 -106.99982 -131.70104 L -86.952469 -131.98371 L -82.858145 -129.01903 L -84.128868 -118.28894 L -119.14172 -118.28894 L -121.11834 -94.712081 C -116.22407 -95.93565 -111.80039 -96.547111 -107.84732 -96.547111 C -98.529371 -96.547111 -90.952403 -94.053276 -85.116922 -89.064881 C -79.18732 -84.170606 -76.222374 -76.970319 -76.222374 -67.464132 C -76.222374 -61.53453 -77.634155 -56.216617 -80.457775 -51.510584 C -83.187274 -46.804551 -87.140362 -43.086759 -92.316999 -40.357259 C -97.493636 -37.721881 -103.61187 -36.404012 -110.67092 -36.404012 C -116.41228 -36.404012 -121.63576 -37.204331 -126.3418 -38.804383 C -130.95371 -40.404434 -134.57759 -42.616017 -137.21297 -45.439637 C -139.84835 -48.357377 -141.1657 -51.604576 -141.1657 -55.181161 C -141.1657 -58.945988 -140.1306 -61.816504 -138.05994 -63.793038 C -135.98929 -65.863693 -133.44798 -66.899309 -130.43612 -66.899309 C -128.74195 -66.899309 -127.04791 -66.569583 -125.35374 -65.910738 C -123.56545 -65.251894 -121.96533 -64.310707 -120.55352 -63.087138 C -121.4006 -61.110604 -121.82424 -59.03989 -121.82424 -56.875114 C -121.82424 -53.769132 -120.93001 -51.228341 -119.14172 -49.251807 C -117.2593 -47.275273 -114.43574 -46.286613 -110.67092 -46.286613 C -102.20006 -46.286613 -97.9642 -53.346032 -97.9642 -67.464132 C -97.9642 -74.146699 -99.282068 -78.993502 -101.91745 -82.005363 C -104.55283 -85.111345 -108.08228 -86.66451 -112.50595 -86.66451 C -115.23545 -86.66451 -118.15344 -86.146961 -121.25942 -85.111634 C -124.3654 -84.076306 -127.42426 -82.61757 -130.43612 -80.735157 L -138.20102 -88.217387 L -134.53044 -128.31313 L -129.8713 -132.12478 z M -32.8798 -123.37183 C -36.644627 -123.37183 -39.609572 -122.14787 -41.774348 -119.70074 C -43.939123 -117.34772 -45.021695 -114.14799 -45.021695 -110.10081 C -45.021695 -106.52422 -43.65687 -103.55928 -40.927371 -101.20626 C -38.103751 -98.947363 -34.009278 -96.688307 -28.6444 -94.429411 C -26.291383 -96.029463 -24.409009 -98.241562 -22.997199 -101.06518 C -21.585389 -103.8888 -20.879499 -106.9007 -20.879499 -110.10081 C -20.879499 -114.14799 -22.009027 -117.34772 -24.267923 -119.70074 C -26.432698 -122.14787 -29.303215 -123.37183 -32.8798 -123.37183 z M -38.668594 -82.288033 C -41.492214 -80.029137 -43.562412 -77.440873 -44.880101 -74.523133 C -46.197791 -71.605392 -46.856725 -68.122897 -46.856725 -64.075708 C -46.856725 -58.522589 -45.4919 -54.145863 -42.762401 -50.94576 C -40.032902 -47.839778 -36.31511 -46.286613 -31.609077 -46.286613 C -26.997164 -46.286613 -23.420757 -47.839778 -20.879499 -50.94576 C -18.24412 -54.051742 -16.926252 -58.381512 -16.926252 -63.934632 C -16.926252 -67.040614 -17.914912 -69.675834 -19.891446 -71.840609 C -21.773859 -74.099505 -24.173782 -75.934923 -27.091523 -77.346733 C -30.009264 -78.852664 -33.86844 -80.499741 -38.668594 -82.288033 z " /></g></svg>
