<?xml version="1.0" encoding="UTF-8" standalone="no"?>
<!-- Created with Inkscape (http://www.inkscape.org/) -->

<svg
   width="172.6701mm"
   height="172.6701mm"
   viewBox="0 0 172.6701 172.6701"
   version="1.1"
   id="svg1"
   xml:space="preserve"
   xmlns="http://www.w3.org/2000/svg"
   xmlns:svg="http://www.w3.org/2000/svg"><defs
     id="defs1" /><g
     id="layer1"
     transform="translate(157.25102,198.81012)"><path
       id="path5"
       style="fill:#ffffff;fill-opacity:1;stroke-width:0.805188;stroke-linecap:round;stroke-linejoin:round"
       d="M -2.0863309 -198.17657 L -10.088943 -183.11289 L -10.930235 -165.68398 L -19.198981 -165.68398 L -11.423229 -155.47426 L -12.166336 -140.07934 C -28.353216 -157.12094 -50.823548 -166.77435 -74.327399 -166.78417 C -103.64471 -166.77397 -130.92652 -151.79225 -146.66717 -127.05894 L -157.25102 -127.05894 L -149.61996 -115.86014 L -157.25102 -26.140039 L -8.5138455 -26.140039 L 15.419061 -26.140039 L 8.0799737 -154.80195 L 15.419061 -165.68398 L 7.4593397 -165.68398 L 6.4490654 -183.39297 L -2.0863309 -198.17657 z M -83.43072 -192.21621 C -85.584619 -189.65499 -86.77489 -186.4211 -86.795372 -183.07465 C -86.842092 -175.15518 -80.459903 -168.69733 -72.540428 -168.65072 C -64.621155 -168.60402 -58.163395 -174.98588 -58.116503 -182.90515 C -58.102813 -186.26049 -59.266203 -189.5144 -61.404157 -192.10045 C -60.83125 -190.6836 -60.536835 -189.16959 -60.537027 -187.64129 C -60.575787 -181.07411 -65.930869 -175.78172 -72.498054 -175.82031 C -79.065241 -175.85911 -84.357627 -181.21415 -84.319038 -187.78134 C -84.309338 -189.30285 -84.007827 -190.80837 -83.43072 -192.21621 z M -60.356676 -120.07436 C -55.821817 -119.84761 -52.137374 -118.85557 -49.303087 -117.09831 L -69.539578 -83.767013 L -56.530036 -83.767013 L -55.679959 -97.626632 C -53.866015 -97.626632 -52.56217 -97.995076 -51.76857 -98.731991 C -50.918284 -99.468905 -50.266619 -100.71611 -49.813133 -102.47336 L -44.966401 -102.47336 L -45.051667 -83.341716 C -42.897609 -82.718173 -40.17663 -82.066508 -36.888858 -81.38628 L -37.313638 -77.304875 L -45.476447 -77.304875 L -45.476447 -62.084615 L -56.530036 -62.084615 L -56.530036 -77.304875 L -81.10373 -77.304875 L -81.783792 -80.36567 L -60.356676 -120.07436 z M -11.465087 -119.81908 C -5.5130844 -119.81908 -0.77995208 -118.54381 2.7345635 -115.99295 C 6.2490791 -113.44209 8.0065931 -110.01229 8.0065931 -105.70418 C 8.0065931 -103.38006 7.1558997 -101.05611 5.4553277 -98.731991 C 3.7547556 -96.407876 1.516026 -94.50901 -1.261575 -93.035181 C 2.2529406 -91.334609 5.0019829 -89.350519 6.9859836 -87.08309 C 9.02667 -84.81566 10.047295 -81.896169 10.047295 -78.324968 C 10.047295 -73.166566 8.1764934 -69.057034 4.4352349 -65.996005 C 0.69397637 -62.991661 -4.3509563 -61.489303 -10.699759 -61.489303 C -17.672104 -61.489303 -23.057417 -62.878373 -26.855362 -65.655974 C -30.59662 -68.433575 -32.467422 -72.401238 -32.467422 -77.55964 C -32.467422 -80.223869 -31.616729 -82.86014 -29.916157 -85.467684 C -28.215585 -88.131914 -25.834987 -90.483931 -22.773957 -92.524618 C -25.324815 -93.941761 -27.308905 -95.642631 -28.726048 -97.626632 C -30.143192 -99.610633 -30.8515 -102.07646 -30.8515 -105.02411 C -30.8515 -109.55897 -29.094503 -113.15871 -25.579987 -115.82294 C -22.065472 -118.48717 -17.360403 -119.81908 -11.465087 -119.81908 z M -128.80469 -119.56379 C -122.05909 -119.56379 -116.90087 -117.69351 -113.32967 -113.95225 C -109.70178 -110.21099 -107.88762 -104.7971 -107.88762 -97.711381 C -107.88762 -88.811721 -110.66525 -81.216258 -116.22045 -74.924142 C -121.71897 -68.688711 -129.71145 -64.09693 -140.19831 -61.149272 L -142.23902 -65.400692 C -136.57044 -67.838179 -132.00724 -70.956182 -128.54941 -74.754126 C -125.09158 -78.608756 -122.79621 -83.086732 -121.66249 -88.188448 C -124.8369 -86.601248 -127.92632 -85.807715 -130.93066 -85.807715 C -136.59924 -85.807715 -141.07721 -87.338137 -144.36498 -90.399166 C -147.59607 -93.460196 -149.21172 -97.598308 -149.21172 -102.8134 C -149.21172 -106.04448 -148.36102 -108.93539 -146.66045 -111.48625 C -144.90319 -114.03711 -142.49453 -116.0212 -139.4335 -117.43834 C -136.31579 -118.85549 -132.7727 -119.56379 -128.80469 -119.56379 z M -11.465087 -113.78224 C -13.732516 -113.78224 -15.518094 -113.04535 -16.821866 -111.57152 C -18.125637 -110.15437 -18.777819 -108.22693 -18.777819 -105.78944 C -18.777819 -103.63538 -17.955705 -101.84981 -16.311819 -100.43266 C -14.611247 -99.072205 -12.145425 -97.711715 -8.9143379 -96.351258 C -7.4971945 -97.314915 -6.3632811 -98.646824 -5.5129951 -100.3474 C -4.6627091 -102.04797 -4.2376207 -103.86213 -4.2376207 -105.78944 C -4.2376207 -108.22693 -4.9178654 -110.15437 -6.2783231 -111.57152 C -7.582095 -113.04535 -9.3110286 -113.78224 -11.465087 -113.78224 z M -129.31474 -113.69697 C -131.75223 -113.69697 -133.62303 -112.76157 -134.9268 -110.89094 C -136.23057 -109.02031 -136.88224 -106.35597 -136.88224 -102.89814 C -136.88224 -99.383629 -136.17393 -96.634587 -134.75679 -94.650586 C -133.28296 -92.723271 -131.21364 -91.759807 -128.54941 -91.759807 C -126.2253 -91.759807 -123.64619 -92.723271 -120.8119 -94.650586 L -120.8119 -95.755945 C -120.8119 -101.93469 -121.49215 -106.46931 -122.8526 -109.36028 C -124.21306 -112.25126 -126.36708 -113.69697 -129.31474 -113.69697 z M -93.007396 -101.28274 C -91.023395 -101.28274 -89.549618 -100.68772 -88.585961 -99.497319 C -87.565617 -98.363604 -87.055821 -96.776539 -87.055821 -94.735852 C -87.055821 -92.695166 -87.565617 -91.107584 -88.585961 -89.973869 C -89.549618 -88.840154 -91.023395 -88.273198 -93.007396 -88.273198 C -94.991397 -88.273198 -96.493755 -88.840154 -97.514098 -89.973869 C -98.477755 -91.16427 -98.959488 -92.751852 -98.959488 -94.735852 C -98.959488 -96.833225 -98.477755 -98.448354 -97.514098 -99.582068 C -96.493755 -100.71578 -94.991397 -101.28274 -93.007396 -101.28274 z M -14.951179 -89.038526 C -16.651751 -87.678068 -17.898952 -86.119583 -18.692552 -84.362325 C -19.486153 -82.605068 -19.883177 -80.50769 -19.883177 -78.070203 C -19.883177 -74.725745 -19.061064 -72.089474 -17.417178 -70.162159 C -15.773292 -68.291529 -13.534045 -67.356645 -10.699759 -67.356645 C -7.9221576 -67.356645 -5.7681356 -68.291529 -4.2376207 -70.162159 C -2.6504202 -72.032788 -1.8568875 -74.640479 -1.8568875 -77.984937 C -1.8568875 -79.855566 -2.4519078 -81.442631 -3.6423082 -82.746403 C -4.776023 -84.106861 -6.2217367 -85.212194 -7.9789944 -86.06248 C -9.7362522 -86.969452 -12.060206 -87.961497 -14.951179 -89.038526 z M -93.007396 -74.498845 C -91.023395 -74.498845 -89.549618 -73.903824 -88.585961 -72.713424 C -87.565617 -71.579709 -87.055821 -69.992127 -87.055821 -67.951441 C -87.055821 -65.910754 -87.565617 -64.323689 -88.585961 -63.189974 C -89.549618 -62.05626 -91.023395 -61.489303 -93.007396 -61.489303 C -94.991397 -61.489303 -96.493755 -62.05626 -97.514098 -63.189974 C -98.477755 -64.380375 -98.959488 -65.96744 -98.959488 -67.951441 C -98.959488 -70.048813 -98.477755 -71.664459 -97.514098 -72.798173 C -96.493755 -73.931888 -94.991397 -74.498845 -93.007396 -74.498845 z " /></g></svg>
