<?xml version="1.0" encoding="UTF-8" standalone="no"?>
<!-- Created with Inkscape (http://www.inkscape.org/) -->

<svg
   width="172.6701mm"
   height="172.6701mm"
   viewBox="0 0 172.6701 172.6701"
   version="1.1"
   id="svg1"
   xml:space="preserve"
   xmlns="http://www.w3.org/2000/svg"
   xmlns:svg="http://www.w3.org/2000/svg"><defs
     id="defs1" /><g
     id="layer1"
     transform="translate(157.25102,198.81012)"><path
       id="path5"
       style="fill:#ffffff;fill-opacity:1;stroke-width:0.805188;stroke-linecap:round;stroke-linejoin:round"
       d="M -2.0863309 -198.17657 L -10.088943 -183.11289 L -10.930235 -165.68398 L -19.198981 -165.68398 L -11.423229 -155.47426 L -12.166336 -140.07934 C -28.353216 -157.12094 -50.823548 -166.77435 -74.327399 -166.78417 C -103.64471 -166.77397 -130.92652 -151.79225 -146.66717 -127.05894 L -157.25102 -127.05894 L -149.61996 -115.86014 L -157.25102 -26.140039 L -8.5138455 -26.140039 L 15.419061 -26.140039 L 8.0799737 -154.80195 L 15.419061 -165.68398 L 7.4593397 -165.68398 L 6.4490654 -183.39297 L -2.0863309 -198.17657 z M -83.43072 -192.21621 C -85.584619 -189.65499 -86.77489 -186.4211 -86.795372 -183.07465 C -86.842092 -175.15518 -80.459903 -168.69733 -72.540428 -168.65072 C -64.621155 -168.60402 -58.163395 -174.98588 -58.116503 -182.90515 C -58.102813 -186.26049 -59.266203 -189.5144 -61.404157 -192.10045 C -60.83125 -190.6836 -60.536835 -189.16959 -60.537027 -187.64129 C -60.575787 -181.07411 -65.930869 -175.78172 -72.498054 -175.82031 C -79.065241 -175.85911 -84.357627 -181.21415 -84.319038 -187.78134 C -84.309338 -189.30285 -84.007827 -190.80837 -83.43072 -192.21621 z M -12.315164 -119.81908 C -6.3631617 -119.81908 -1.6300294 -118.54381 1.8844862 -115.99295 C 5.3990018 -113.44209 7.155999 -110.01229 7.155999 -105.70418 C 7.155999 -103.38006 6.3058224 -101.05611 4.6052503 -98.731991 C 2.9046783 -96.407876 0.66543193 -94.50901 -2.1121691 -93.035181 C 1.4023465 -91.334609 4.1519055 -89.350519 6.1359063 -87.08309 C 8.1765927 -84.81566 9.1967014 -81.896169 9.1967014 -78.324968 C 9.1967014 -73.166566 7.3264161 -69.057034 3.5851576 -65.996005 C -0.15610094 -62.991661 -5.2015504 -61.489303 -11.550353 -61.489303 C -18.522698 -61.489303 -23.907495 -62.878373 -27.705439 -65.655974 C -31.446697 -68.433575 -33.317499 -72.401238 -33.317499 -77.55964 C -33.317499 -80.223869 -32.467323 -82.86014 -30.766751 -85.467684 C -29.066179 -88.131914 -26.685064 -90.483931 -23.624034 -92.524618 C -26.174892 -93.941761 -28.158982 -95.642631 -29.576126 -97.626632 C -30.993269 -99.610633 -31.702094 -102.07646 -31.702094 -105.02411 C -31.702094 -109.55897 -29.94458 -113.15871 -26.430065 -115.82294 C -22.915549 -118.48717 -18.21048 -119.81908 -12.315164 -119.81908 z M -58.315974 -119.64906 C -51.683743 -119.64906 -46.61023 -117.15466 -43.095714 -112.16631 C -39.524513 -107.23465 -37.738935 -100.06428 -37.738935 -90.654448 C -37.738935 -81.244616 -39.524513 -74.017081 -43.095714 -68.97205 C -46.61023 -63.983706 -51.683743 -61.489303 -58.315974 -61.489303 C -64.948205 -61.489303 -70.049781 -63.983706 -73.620983 -68.97205 C -77.192184 -74.017081 -78.977762 -81.244616 -78.977762 -90.654448 C -78.977762 -100.00759 -77.192184 -107.17797 -73.620983 -112.16631 C -70.049781 -117.15466 -64.948205 -119.64906 -58.315974 -119.64906 z M -127.95462 -119.56379 C -121.20901 -119.56379 -116.05028 -117.69351 -112.47908 -113.95225 C -108.85119 -110.21099 -107.03755 -104.7971 -107.03755 -97.711381 C -107.03755 -88.811721 -109.81517 -81.216258 -115.37037 -74.924142 C -120.86889 -68.688711 -128.86138 -64.09693 -139.34824 -61.149272 L -141.38894 -65.400692 C -135.72037 -67.838179 -131.15717 -70.956182 -127.69934 -74.754126 C -124.24151 -78.608756 -121.94562 -83.086732 -120.8119 -88.188448 C -123.9863 -86.601248 -127.07572 -85.807715 -130.08007 -85.807715 C -135.74864 -85.807715 -140.22713 -87.338137 -143.51491 -90.399166 C -146.74599 -93.460196 -148.36112 -97.598308 -148.36112 -102.8134 C -148.36112 -106.04448 -147.51095 -108.93539 -145.81037 -111.48625 C -144.05312 -114.03711 -141.64394 -116.0212 -138.58291 -117.43834 C -135.46519 -118.85549 -131.92262 -119.56379 -127.95462 -119.56379 z M -58.315974 -115.31237 C -61.206946 -115.31237 -63.304324 -113.41351 -64.608096 -109.61556 C -65.855182 -105.81762 -66.478783 -99.497422 -66.478783 -90.654448 C -66.478783 -81.868159 -65.855182 -75.576025 -64.608096 -71.778081 C -63.304324 -68.036822 -61.206946 -66.16602 -58.315974 -66.16602 C -55.425001 -66.16602 -53.355687 -68.036822 -52.108601 -71.778081 C -50.804829 -75.576025 -50.153164 -81.868159 -50.153164 -90.654448 C -50.153164 -99.440737 -50.804829 -105.73287 -52.108601 -109.53081 C -53.355687 -113.38544 -55.425001 -115.31237 -58.315974 -115.31237 z M -12.315164 -113.78224 C -14.582593 -113.78224 -16.368171 -113.04535 -17.671943 -111.57152 C -18.975715 -110.15437 -19.627896 -108.22693 -19.627896 -105.78944 C -19.627896 -103.63538 -18.805783 -101.84981 -17.161896 -100.43266 C -15.461324 -99.072205 -12.995502 -97.711715 -9.7644152 -96.351258 C -8.3472718 -97.314915 -7.2138752 -98.646824 -6.3635892 -100.3474 C -5.5133031 -102.04797 -5.0882148 -103.86213 -5.0882148 -105.78944 C -5.0882148 -108.22693 -5.7679427 -110.15437 -7.1284004 -111.57152 C -8.4321723 -113.04535 -10.161106 -113.78224 -12.315164 -113.78224 z M -128.46466 -113.69697 C -130.90215 -113.69697 -132.77295 -112.76157 -134.07672 -110.89094 C -135.3805 -109.02031 -136.03216 -106.35597 -136.03216 -102.89814 C -136.03216 -99.383629 -135.32385 -96.634587 -133.90671 -94.650586 C -132.43288 -92.723271 -130.36356 -91.759807 -127.69934 -91.759807 C -125.37522 -91.759807 -122.79611 -92.723271 -119.96182 -94.650586 L -119.96182 -95.755945 C -119.96182 -101.93469 -120.64207 -106.46931 -122.00253 -109.36028 C -123.36298 -112.25126 -125.51701 -113.69697 -128.46466 -113.69697 z M -92.157319 -101.28274 C -90.173318 -101.28274 -88.699541 -100.68772 -87.735883 -99.497319 C -86.71554 -98.363604 -86.205227 -96.776539 -86.205227 -94.735852 C -86.205227 -92.695166 -86.71554 -91.107584 -87.735883 -89.973869 C -88.699541 -88.840154 -90.173318 -88.273198 -92.157319 -88.273198 C -94.14132 -88.273198 -95.643677 -88.840154 -96.66402 -89.973869 C -97.627678 -91.16427 -98.10941 -92.751852 -98.10941 -94.735852 C -98.10941 -96.833225 -97.627678 -98.448354 -96.66402 -99.582068 C -95.643677 -100.71578 -94.14132 -101.28274 -92.157319 -101.28274 z M -15.801773 -89.038526 C -17.502345 -87.678068 -18.749029 -86.119583 -19.54263 -84.362325 C -20.33623 -82.605068 -20.733255 -80.50769 -20.733255 -78.070203 C -20.733255 -74.725745 -19.911142 -72.089474 -18.267255 -70.162159 C -16.623369 -68.291529 -14.384639 -67.356645 -11.550353 -67.356645 C -8.7727517 -67.356645 -6.6187297 -68.291529 -5.0882148 -70.162159 C -3.5010142 -72.032788 -2.7069648 -74.640479 -2.7069648 -77.984937 C -2.7069648 -79.855566 -3.3025019 -81.442631 -4.4929023 -82.746403 C -5.626617 -84.106861 -7.071814 -85.212194 -8.8290718 -86.06248 C -10.58633 -86.969452 -12.9108 -87.961497 -15.801773 -89.038526 z M -92.157319 -74.498845 C -90.173318 -74.498845 -88.699541 -73.903824 -87.735883 -72.713424 C -86.71554 -71.579709 -86.205227 -69.992127 -86.205227 -67.951441 C -86.205227 -65.910754 -86.71554 -64.323689 -87.735883 -63.189974 C -88.699541 -62.05626 -90.173318 -61.489303 -92.157319 -61.489303 C -94.14132 -61.489303 -95.643677 -62.05626 -96.66402 -63.189974 C -97.627678 -64.380375 -98.10941 -65.96744 -98.10941 -67.951441 C -98.10941 -70.048813 -97.627678 -71.664459 -96.66402 -72.798173 C -95.643677 -73.931888 -94.14132 -74.498845 -92.157319 -74.498845 z " /></g></svg>
