<?xml version="1.0" encoding="UTF-8" standalone="no"?>
<!-- Created with Inkscape (http://www.inkscape.org/) -->

<svg
   width="172.6701mm"
   height="172.6701mm"
   viewBox="0 0 172.6701 172.6701"
   version="1.1"
   id="svg1"
   xml:space="preserve"
   xmlns="http://www.w3.org/2000/svg"
   xmlns:svg="http://www.w3.org/2000/svg"><defs
     id="defs1" /><g
     id="layer1"
     transform="translate(157.25102,198.81012)"><path
       id="path5"
       style="fill:#ffffff;fill-opacity:1;stroke-width:0.805188;stroke-linecap:round;stroke-linejoin:round"
       d="M -2.0863309 -198.17657 L -10.088943 -183.11289 L -10.930235 -165.68398 L -19.198981 -165.68398 L -11.423229 -155.47426 L -12.166336 -140.07934 C -28.353216 -157.12094 -50.823548 -166.77435 -74.327399 -166.78417 C -103.64471 -166.77397 -130.92652 -151.79225 -146.66717 -127.05894 L -157.25102 -127.05894 L -149.61996 -115.86014 L -157.25102 -26.140039 L -8.5138455 -26.140039 L 15.419061 -26.140039 L 8.0799737 -154.80195 L 15.419061 -165.68398 L 7.4593397 -165.68398 L 6.4490654 -183.39297 L -2.0863309 -198.17657 z M -83.43072 -192.21621 C -85.584619 -189.65499 -86.77489 -186.4211 -86.795372 -183.07465 C -86.842092 -175.15518 -80.459903 -168.69733 -72.540428 -168.65072 C -64.621155 -168.60402 -58.163395 -174.98588 -58.116503 -182.90515 C -58.102813 -186.26049 -59.266203 -189.5144 -61.404157 -192.10045 C -60.83125 -190.6836 -60.536835 -189.16959 -60.537027 -187.64129 C -60.575787 -181.07411 -65.930869 -175.78172 -72.498054 -175.82031 C -79.065241 -175.85911 -84.357627 -181.21415 -84.319038 -187.78134 C -84.309338 -189.30285 -84.007827 -190.80837 -83.43072 -192.21621 z M -125.06332 -119.73381 C -119.22469 -119.73381 -114.57678 -118.28861 -111.11895 -115.39764 C -107.66112 -112.56335 -105.93219 -108.56711 -105.93219 -103.40871 C -105.93219 -98.873849 -107.66112 -94.026912 -111.11895 -88.86851 C -114.57678 -83.766794 -120.27338 -77.616529 -128.20938 -70.41744 L -105.33688 -70.41744 L -105.33688 -62.084615 L -143.85494 -62.084615 L -143.85494 -67.016097 C -137.56282 -73.081471 -132.65924 -78.268272 -129.14473 -82.576388 C -125.63021 -86.884504 -123.10774 -90.852684 -121.57723 -94.480571 C -119.99003 -98.108458 -119.1965 -101.84955 -119.1965 -105.70418 C -119.1965 -111.82623 -121.23723 -114.88759 -125.3186 -114.88759 C -127.13255 -114.88759 -128.60632 -114.0369 -129.74004 -112.33633 C -130.87375 -110.69244 -131.44071 -108.65171 -131.44071 -106.21422 C -131.44071 -104.51365 -130.84517 -102.89852 -129.65477 -101.36801 C -130.61843 -100.46103 -131.72376 -99.752209 -132.97085 -99.242037 C -134.16125 -98.731866 -135.35181 -98.476709 -136.54221 -98.476709 C -138.58289 -98.476709 -140.28376 -99.10031 -141.64422 -100.3474 C -143.00468 -101.65117 -143.68441 -103.52197 -143.68441 -105.95946 C -143.68441 -108.567 -142.91945 -110.91953 -141.38894 -113.01691 C -139.85842 -115.11428 -137.7044 -116.75799 -134.9268 -117.94839 C -132.09251 -119.13879 -128.80458 -119.73381 -125.06332 -119.73381 z M -58.485989 -119.73381 C -54.801416 -119.73381 -51.542061 -119.11073 -48.707775 -117.86364 C -45.873488 -116.67324 -43.662822 -114.97237 -42.075621 -112.76163 C -40.488421 -110.60757 -39.694371 -108.11368 -39.694371 -105.27939 C -39.694371 -102.10499 -40.629772 -99.384015 -42.500402 -97.116586 C -44.371031 -94.849156 -47.148653 -93.120223 -50.833226 -91.929822 C -46.184996 -90.909479 -42.925641 -89.237189 -41.055012 -86.913074 C -39.184382 -84.588959 -38.248981 -81.442892 -38.248981 -77.474891 C -38.248981 -74.017061 -39.29767 -71.069506 -41.395043 -68.632019 C -43.435729 -66.194533 -46.100064 -64.380375 -49.387836 -63.189974 C -52.675609 -61.999574 -56.076832 -61.404554 -59.591348 -61.404554 C -64.693064 -61.404554 -69.029688 -62.453243 -72.60089 -64.550615 C -76.115405 -66.647987 -77.872403 -69.510317 -77.872403 -73.138204 C -77.872403 -75.235577 -77.248802 -76.851222 -76.001716 -77.984937 C -74.75463 -79.175337 -73.196145 -79.770358 -71.325515 -79.770358 C -69.3982 -79.770358 -67.442174 -79.005405 -65.458173 -77.474891 C -65.968345 -76.397862 -66.223501 -75.094016 -66.223501 -73.563501 C -66.223501 -71.749558 -65.685125 -70.275781 -64.608096 -69.142066 C -63.474381 -68.008351 -61.802092 -67.441394 -59.591348 -67.441394 C -54.716375 -67.441394 -52.278616 -70.814037 -52.278616 -77.55964 C -52.278616 -81.244213 -53.469173 -84.10706 -55.849974 -86.147746 C -58.174089 -88.188433 -61.490088 -89.208541 -65.798204 -89.208541 L -65.798204 -94.480571 C -57.465401 -95.1608 -53.299226 -98.760535 -53.299226 -105.27939 C -53.299226 -108.56717 -53.809538 -110.97583 -54.829881 -112.50634 C -55.850225 -114.09354 -57.238778 -114.88759 -58.996035 -114.88759 C -61.093408 -114.88759 -62.680473 -114.15071 -63.757502 -112.67688 C -64.777845 -111.20305 -65.288158 -109.41747 -65.288158 -107.3201 C -65.288158 -105.44947 -64.89165 -103.77718 -64.09805 -102.30335 C -65.68525 -100.60278 -67.725467 -99.752084 -70.21964 -99.752084 C -72.487069 -99.752084 -74.244583 -100.43233 -75.491669 -101.79279 C -76.738756 -103.15324 -77.362356 -104.91076 -77.362356 -107.06482 C -77.362356 -109.8991 -76.398892 -112.25164 -74.471577 -114.12227 C -72.487576 -116.04958 -70.049817 -117.46671 -67.158845 -118.37369 C -64.211186 -119.28066 -61.320276 -119.73381 -58.485989 -119.73381 z M -15.291726 -119.73381 C -11.607154 -119.73381 -8.3472819 -119.11073 -5.5129951 -117.86364 C -2.6787083 -116.67324 -0.46804236 -114.97237 1.1191582 -112.76163 C 2.7063588 -110.60757 3.4998915 -108.11368 3.4998915 -105.27939 C 3.4998915 -102.10499 2.5644904 -99.384015 0.69386118 -97.116586 C -1.1767681 -94.849156 -3.9543907 -93.120223 -7.6389635 -91.929822 C -2.9907332 -90.909479 0.26862174 -89.237189 2.139251 -86.913074 C 4.0098803 -84.588959 4.9452813 -81.442892 4.9452813 -77.474891 C 4.9452813 -74.017061 3.8965923 -71.069506 1.7992201 -68.632019 C -0.24146639 -66.194533 -2.9058011 -64.380375 -6.1935737 -63.189974 C -9.4813463 -61.999574 -12.88257 -61.404554 -16.397085 -61.404554 C -21.498801 -61.404554 -25.834909 -62.453243 -29.40611 -64.550615 C -32.920626 -66.647987 -34.67814 -69.510317 -34.67814 -73.138204 C -34.67814 -75.235577 -34.054539 -76.851222 -32.807453 -77.984937 C -31.560367 -79.175337 -30.001365 -79.770358 -28.130736 -79.770358 C -26.203421 -79.770358 -24.247911 -79.005405 -22.263911 -77.474891 C -22.774082 -76.397862 -23.029239 -75.094016 -23.029239 -73.563501 C -23.029239 -71.749558 -22.490346 -70.275781 -21.413317 -69.142066 C -20.279602 -68.008351 -18.607829 -67.441394 -16.397085 -67.441394 C -11.522112 -67.441394 -9.0843533 -70.814037 -9.0843533 -77.55964 C -9.0843533 -81.244213 -10.274911 -84.10706 -12.655712 -86.147746 C -14.979827 -88.188433 -18.295826 -89.208541 -22.603942 -89.208541 L -22.603942 -94.480571 C -14.271138 -95.1608 -10.104963 -98.760535 -10.104963 -105.27939 C -10.104963 -108.56717 -10.614759 -110.97583 -11.635102 -112.50634 C -12.655445 -114.09354 -14.044515 -114.88759 -15.801773 -114.88759 C -17.899145 -114.88759 -19.48621 -114.15071 -20.563239 -112.67688 C -21.583582 -111.20305 -22.093895 -109.41747 -22.093895 -107.3201 C -22.093895 -105.44947 -21.69687 -103.77718 -20.90327 -102.30335 C -22.490471 -100.60278 -24.531205 -99.752084 -27.025377 -99.752084 C -29.292806 -99.752084 -31.050321 -100.43233 -32.297407 -101.79279 C -33.544493 -103.15324 -34.167577 -104.91076 -34.167577 -107.06482 C -34.167577 -109.8991 -33.204112 -112.25164 -31.276797 -114.12227 C -29.292796 -116.04958 -26.855555 -117.46671 -23.964582 -118.37369 C -21.016924 -119.28066 -18.126013 -119.73381 -15.291726 -119.73381 z M -90.201883 -101.28274 C -88.217882 -101.28274 -86.744105 -100.68772 -85.780447 -99.497319 C -84.760104 -98.363604 -84.249791 -96.776539 -84.249791 -94.735852 C -84.249791 -92.695166 -84.760104 -91.107584 -85.780447 -89.973869 C -86.744105 -88.840154 -88.217882 -88.273198 -90.201883 -88.273198 C -92.185883 -88.273198 -93.687724 -88.840154 -94.708068 -89.973869 C -95.671725 -91.16427 -96.153457 -92.751852 -96.153457 -94.735852 C -96.153457 -96.833225 -95.671725 -98.448354 -94.708068 -99.582068 C -93.687724 -100.71578 -92.185883 -101.28274 -90.201883 -101.28274 z M -90.201883 -74.498845 C -88.217882 -74.498845 -86.744105 -73.903824 -85.780447 -72.713424 C -84.760104 -71.579709 -84.249791 -69.992127 -84.249791 -67.951441 C -84.249791 -65.910754 -84.760104 -64.323689 -85.780447 -63.189974 C -86.744105 -62.05626 -88.217882 -61.489303 -90.201883 -61.489303 C -92.185883 -61.489303 -93.687724 -62.05626 -94.708068 -63.189974 C -95.671725 -64.380375 -96.153457 -65.96744 -96.153457 -67.951441 C -96.153457 -70.048813 -95.671725 -71.664459 -94.708068 -72.798173 C -93.687724 -73.931888 -92.185883 -74.498845 -90.201883 -74.498845 z " /></g></svg>
