<?xml version="1.0" encoding="UTF-8" standalone="no"?>
<!-- Created with Inkscape (http://www.inkscape.org/) -->

<svg
   width="172.6701mm"
   height="172.6701mm"
   viewBox="0 0 172.6701 172.6701"
   version="1.1"
   id="svg1"
   xml:space="preserve"
   xmlns="http://www.w3.org/2000/svg"
   xmlns:svg="http://www.w3.org/2000/svg"><defs
     id="defs1" /><g
     id="layer1"
     transform="translate(157.25102,198.81012)"><path
       id="path5"
       style="fill:#ffffff;fill-opacity:1;stroke-width:0.805188;stroke-linecap:round;stroke-linejoin:round"
       d="M -2.0863309 -198.17657 L -10.088943 -183.11289 L -10.930235 -165.68398 L -19.198981 -165.68398 L -11.423229 -155.47426 L -12.166336 -140.07934 C -28.353216 -157.12094 -50.823548 -166.77435 -74.327399 -166.78417 C -103.64471 -166.77397 -130.92652 -151.79225 -146.66717 -127.05894 L -157.25102 -127.05894 L -149.61996 -115.86014 L -157.25102 -26.140039 L -8.5138455 -26.140039 L 15.419061 -26.140039 L 8.0799737 -154.80195 L 15.419061 -165.68398 L 7.4593397 -165.68398 L 6.4490654 -183.39297 L -2.0863309 -198.17657 z M -83.43072 -192.21621 C -85.584619 -189.65499 -86.77489 -186.4211 -86.795372 -183.07465 C -86.842092 -175.15518 -80.459903 -168.69733 -72.540428 -168.65072 C -64.621155 -168.60402 -58.163395 -174.98588 -58.116503 -182.90515 C -58.102813 -186.26049 -59.266203 -189.5144 -61.404157 -192.10045 C -60.83125 -190.6836 -60.536835 -189.16959 -60.537027 -187.64129 C -60.575787 -181.07411 -65.930869 -175.78172 -72.498054 -175.82031 C -79.065241 -175.85911 -84.357627 -181.21415 -84.319038 -187.78134 C -84.309338 -189.30285 -84.007827 -190.80837 -83.43072 -192.21621 z M -113.32967 -119.90383 L -111.28897 -115.65241 C -122.73949 -110.72075 -129.62664 -103.12528 -131.95076 -92.865166 C -128.66298 -94.452366 -125.5455 -95.245899 -122.59784 -95.245899 C -116.92926 -95.245899 -112.47935 -93.715477 -109.24827 -90.654448 C -105.96049 -87.593418 -104.31627 -83.455306 -104.31627 -78.240218 C -104.31627 -75.009132 -105.19502 -72.118221 -106.95228 -69.567363 C -108.65285 -67.016505 -111.06203 -65.032415 -114.17975 -63.615271 C -117.24078 -62.198128 -120.75529 -61.489303 -124.72329 -61.489303 C -131.46889 -61.489303 -136.65569 -63.360105 -140.28358 -67.101363 C -143.85478 -70.842622 -145.64036 -76.255999 -145.64036 -83.341716 C -145.64036 -92.241376 -142.89132 -99.808775 -137.3928 -106.04421 C -131.8376 -112.33632 -123.81653 -116.95617 -113.32967 -119.90383 z M -13.080492 -119.73381 C -7.2418611 -119.73381 -2.5939532 -118.28861 0.86387665 -115.39764 C 4.3217065 -112.56335 6.0506402 -108.56711 6.0506402 -103.40871 C 6.0506402 -98.873849 4.3217065 -94.026912 0.86387665 -88.86851 C -2.5939532 -83.766794 -8.2905501 -77.616529 -16.226553 -70.41744 L 6.6459527 -70.41744 L 6.6459527 -62.084615 L -31.87211 -62.084615 L -31.87211 -67.016097 C -25.579993 -73.081471 -20.676412 -78.268272 -17.161896 -82.576388 C -13.647381 -86.884504 -11.124915 -90.852684 -9.5943997 -94.480571 C -8.0071991 -98.108458 -7.2136665 -101.84955 -7.2136665 -105.70418 C -7.2136665 -111.82623 -9.2544005 -114.88759 -13.335773 -114.88759 C -15.149717 -114.88759 -16.623494 -114.0369 -17.757209 -112.33633 C -18.890924 -110.69244 -19.45788 -108.65171 -19.45788 -106.21422 C -19.45788 -104.51365 -18.86286 -102.89852 -17.67246 -101.36801 C -18.636117 -100.46103 -19.74145 -99.752209 -20.988536 -99.242037 C -22.178937 -98.731866 -23.368977 -98.476709 -24.559378 -98.476709 C -26.600064 -98.476709 -28.300934 -99.10031 -29.661392 -100.3474 C -31.02185 -101.65117 -31.702094 -103.52197 -31.702094 -105.95946 C -31.702094 -108.567 -30.936625 -110.91953 -29.40611 -113.01691 C -27.875595 -115.11428 -25.721573 -116.75799 -22.943972 -117.94839 C -20.109686 -119.13879 -16.82175 -119.73381 -13.080492 -119.73381 z M -69.029532 -119.05375 L -64.778111 -118.969 C -58.769424 -118.85563 -55.594776 -118.79847 -55.254662 -118.79847 L -43.18098 -118.969 L -40.714981 -117.18306 L -41.480309 -110.72092 L -62.567394 -110.72092 L -63.758019 -96.521273 C -60.81036 -97.258188 -58.146026 -97.626632 -55.765225 -97.626632 C -50.153337 -97.626632 -45.590137 -96.124274 -42.075621 -93.11993 C -38.50442 -90.172272 -36.718842 -85.836165 -36.718842 -80.110905 C -36.718842 -76.539704 -37.569019 -73.336993 -39.269591 -70.502706 C -40.913477 -67.66842 -43.294075 -65.429173 -46.411791 -63.785287 C -49.529506 -62.198086 -53.214466 -61.404554 -57.465896 -61.404554 C -60.923726 -61.404554 -64.069793 -61.886286 -66.90408 -62.849943 C -69.681681 -63.813601 -71.863767 -65.14551 -73.450967 -66.846082 C -75.038168 -68.60334 -75.8317 -70.559366 -75.8317 -72.713424 C -75.8317 -74.980853 -75.2081 -76.709787 -73.961013 -77.900188 C -72.713927 -79.147274 -71.183506 -79.770358 -69.369562 -79.770358 C -68.349219 -79.770358 -67.329111 -79.572362 -66.308767 -79.175562 C -65.231738 -78.778762 -64.267757 -78.211805 -63.417471 -77.474891 C -63.927643 -76.28449 -64.182799 -75.037289 -64.182799 -73.733517 C -64.182799 -71.862888 -63.644423 -70.332466 -62.567394 -69.142066 C -61.433679 -67.951665 -59.733326 -67.356645 -57.465896 -67.356645 C -52.36418 -67.356645 -49.813133 -71.608045 -49.813133 -80.110905 C -49.813133 -84.135593 -50.606666 -87.054567 -52.193867 -88.86851 C -53.781067 -90.73914 -55.907026 -91.674541 -58.571255 -91.674541 C -60.215142 -91.674541 -61.972139 -91.36274 -63.842768 -90.739197 C -65.713397 -90.115654 -67.555619 -89.236897 -69.369562 -88.103182 L -74.04628 -92.609884 L -71.835562 -116.75776 L -69.029532 -119.05375 z M -89.351289 -101.28274 C -87.367288 -101.28274 -85.893511 -100.68772 -84.929853 -99.497319 C -83.90951 -98.363604 -83.399197 -96.776539 -83.399197 -94.735852 C -83.399197 -92.695166 -83.90951 -91.107584 -84.929853 -89.973869 C -85.893511 -88.840154 -87.367288 -88.273198 -89.351289 -88.273198 C -91.335289 -88.273198 -92.837647 -88.840154 -93.85799 -89.973869 C -94.821648 -91.16427 -95.30338 -92.751852 -95.30338 -94.735852 C -95.30338 -96.833225 -94.821648 -98.448354 -93.85799 -99.582068 C -92.837647 -100.71578 -91.335289 -101.28274 -89.351289 -101.28274 z M -124.97857 -89.293807 C -127.35937 -89.293807 -129.93848 -88.330343 -132.71608 -86.403028 L -132.71608 -85.297669 C -132.71608 -79.118924 -132.03584 -74.583787 -130.67538 -71.692814 C -129.31492 -68.801842 -127.1609 -67.356645 -124.21324 -67.356645 C -121.77576 -67.356645 -119.90495 -68.291529 -118.60118 -70.162159 C -117.29741 -72.032788 -116.64575 -74.697123 -116.64575 -78.154952 C -116.64575 -81.669468 -117.38264 -84.390447 -118.85646 -86.317762 C -120.27361 -88.301762 -122.31434 -89.293807 -124.97857 -89.293807 z M -89.351289 -74.498845 C -87.367288 -74.498845 -85.893511 -73.903824 -84.929853 -72.713424 C -83.90951 -71.579709 -83.399197 -69.992127 -83.399197 -67.951441 C -83.399197 -65.910754 -83.90951 -64.323689 -84.929853 -63.189974 C -85.893511 -62.05626 -87.367288 -61.489303 -89.351289 -61.489303 C -91.335289 -61.489303 -92.837647 -62.05626 -93.85799 -63.189974 C -94.821648 -64.380375 -95.30338 -65.96744 -95.30338 -67.951441 C -95.30338 -70.048813 -94.821648 -71.664459 -93.85799 -72.798173 C -92.837647 -73.931888 -91.335289 -74.498845 -89.351289 -74.498845 z " /></g></svg>
