<?xml version="1.0" encoding="UTF-8" standalone="no"?>
<!-- Created with Inkscape (http://www.inkscape.org/) -->

<svg
   width="172.6701mm"
   height="172.6701mm"
   viewBox="0 0 172.6701 172.6701"
   version="1.1"
   id="svg1"
   xml:space="preserve"
   xmlns="http://www.w3.org/2000/svg"
   xmlns:svg="http://www.w3.org/2000/svg"><defs
     id="defs1" /><g
     id="layer1"
     transform="translate(157.25102,198.81012)"><path
       id="path5"
       style="fill:#ffffff;fill-opacity:1;stroke-width:0.805188;stroke-linecap:round;stroke-linejoin:round"
       d="M -2.0863309 -198.17657 L -10.088943 -183.11289 L -10.930235 -165.68398 L -19.198981 -165.68398 L -11.423229 -155.47426 L -12.166336 -140.07934 C -28.353216 -157.12094 -50.823548 -166.77435 -74.327399 -166.78417 C -103.64471 -166.77397 -130.92652 -151.79225 -146.66717 -127.05894 L -157.25102 -127.05894 L -149.61996 -115.86014 L -157.25102 -26.140039 L -8.5138455 -26.140039 L 15.419061 -26.140039 L 8.0799737 -154.80195 L 15.419061 -165.68398 L 7.4593397 -165.68398 L 6.4490654 -183.39297 L -2.0863309 -198.17657 z M -83.43072 -192.21621 C -85.584619 -189.65499 -86.77489 -186.4211 -86.795372 -183.07465 C -86.842092 -175.15518 -80.459903 -168.69733 -72.540428 -168.65072 C -64.621155 -168.60402 -58.163395 -174.98588 -58.116503 -182.90515 C -58.102813 -186.26049 -59.266203 -189.5144 -61.404157 -192.10045 C -60.83125 -190.6836 -60.536835 -189.16959 -60.537027 -187.64129 C -60.575787 -181.07411 -65.930869 -175.78172 -72.498054 -175.82031 C -79.065241 -175.85911 -84.357627 -181.21415 -84.319038 -187.78134 C -84.309338 -189.30285 -84.007827 -190.80837 -83.43072 -192.21621 z M -123.23553 -119.56379 C -116.48992 -119.56379 -111.33119 -117.69351 -107.75998 -113.95225 C -104.1321 -110.21099 -102.31846 -104.7971 -102.31846 -97.711381 C -102.31846 -88.811721 -105.09608 -81.216258 -110.65128 -74.924142 C -116.1498 -68.688711 -124.14228 -64.09693 -134.62915 -61.149272 L -136.66985 -65.400692 C -131.00127 -67.838179 -126.43807 -70.956182 -122.98024 -74.754126 C -119.52241 -78.608756 -117.22652 -83.086732 -116.09281 -88.188448 C -119.26721 -86.601248 -122.35663 -85.807715 -125.36098 -85.807715 C -131.02955 -85.807715 -135.50804 -87.338137 -138.79582 -90.399166 C -142.0269 -93.460196 -143.64203 -97.598308 -143.64203 -102.8134 C -143.64203 -106.04448 -142.79185 -108.93539 -141.09128 -111.48625 C -139.33403 -114.03711 -136.92485 -116.0212 -133.86382 -117.43834 C -130.7461 -118.85549 -127.20353 -119.56379 -123.23553 -119.56379 z M -52.831554 -119.13901 L -50.025524 -117.86364 L -50.025524 -68.716769 C -48.948495 -68.093226 -47.248141 -67.526269 -44.924026 -67.016097 C -42.599911 -66.562611 -40.757689 -66.279392 -39.397232 -66.16602 L -39.651997 -62.084615 L -74.343936 -62.084615 L -74.17392 -66.16602 C -69.12889 -66.732877 -65.273998 -67.583054 -62.609768 -68.716769 L -62.609768 -109.44555 L -74.003905 -109.44555 L -74.003905 -114.37703 C -70.376018 -114.66046 -66.634414 -115.19935 -62.779784 -115.99295 C -58.925154 -116.84324 -55.609155 -117.89193 -52.831554 -119.13901 z M -28.173111 -119.05375 L -23.921691 -118.969 C -17.913003 -118.85563 -14.738872 -118.79847 -14.398758 -118.79847 L -2.3245592 -118.969 L 0.14144012 -117.18306 L -0.62388784 -110.72092 L -21.710973 -110.72092 L -22.901598 -96.521273 C -19.95394 -97.258188 -17.289605 -97.626632 -14.908804 -97.626632 C -9.2969162 -97.626632 -4.7337159 -96.124274 -1.2192003 -93.11993 C 2.352001 -90.172272 4.1375786 -85.836165 4.1375786 -80.110905 C 4.1375786 -76.539704 3.287402 -73.336993 1.5868299 -70.502706 C -0.057056382 -67.66842 -2.4381711 -65.429173 -5.5558865 -63.785287 C -8.673602 -62.198086 -12.358045 -61.404554 -16.609475 -61.404554 C -20.067305 -61.404554 -23.213372 -61.886286 -26.047659 -62.849943 C -28.82526 -63.813601 -31.007346 -65.14551 -32.594546 -66.846082 C -34.181747 -68.60334 -34.975796 -70.559366 -34.975796 -72.713424 C -34.975796 -74.980853 -34.352196 -76.709787 -33.105109 -77.900188 C -31.858023 -79.147274 -30.327602 -79.770358 -28.513658 -79.770358 C -27.493315 -79.770358 -26.47269 -79.572362 -25.452346 -79.175562 C -24.375318 -78.778762 -23.411853 -78.211805 -22.561567 -77.474891 C -23.071738 -76.28449 -23.326895 -75.037289 -23.326895 -73.733517 C -23.326895 -71.862888 -22.788002 -70.332466 -21.710973 -69.142066 C -20.577258 -67.951665 -18.876905 -67.356645 -16.609475 -67.356645 C -11.507759 -67.356645 -8.9567125 -71.608045 -8.9567125 -80.110905 C -8.9567125 -84.135593 -9.7502452 -87.054567 -11.337446 -88.86851 C -12.924646 -90.73914 -15.050605 -91.674541 -17.714834 -91.674541 C -19.358721 -91.674541 -21.115718 -91.36274 -22.986347 -90.739197 C -24.856976 -90.115654 -26.699715 -89.236897 -28.513658 -88.103182 L -33.189859 -92.609884 L -30.979141 -116.75776 L -28.173111 -119.05375 z M -123.74557 -113.69697 C -126.18306 -113.69697 -128.05386 -112.76157 -129.35763 -110.89094 C -130.6614 -109.02031 -131.31307 -106.35597 -131.31307 -102.89814 C -131.31307 -99.383629 -130.60476 -96.634587 -129.18762 -94.650586 C -127.71379 -92.723271 -125.64447 -91.759807 -122.98024 -91.759807 C -120.65613 -91.759807 -118.07702 -92.723271 -115.24273 -94.650586 L -115.24273 -95.755945 C -115.24273 -101.93469 -115.92298 -106.46931 -117.28343 -109.36028 C -118.64389 -112.25126 -120.79791 -113.69697 -123.74557 -113.69697 z M -87.438227 -101.28274 C -85.454226 -101.28274 -83.980449 -100.68772 -83.016791 -99.497319 C -81.996448 -98.363604 -81.486136 -96.776539 -81.486136 -94.735852 C -81.486136 -92.695166 -81.996448 -91.107584 -83.016791 -89.973869 C -83.980449 -88.840154 -85.454226 -88.273198 -87.438227 -88.273198 C -89.422228 -88.273198 -90.924585 -88.840154 -91.944929 -89.973869 C -92.908586 -91.16427 -93.390319 -92.751852 -93.390319 -94.735852 C -93.390319 -96.833225 -92.908586 -98.448354 -91.944929 -99.582068 C -90.924585 -100.71578 -89.422228 -101.28274 -87.438227 -101.28274 z M -87.438227 -74.498845 C -85.454226 -74.498845 -83.980449 -73.903824 -83.016791 -72.713424 C -81.996448 -71.579709 -81.486136 -69.992127 -81.486136 -67.951441 C -81.486136 -65.910754 -81.996448 -64.323689 -83.016791 -63.189974 C -83.980449 -62.05626 -85.454226 -61.489303 -87.438227 -61.489303 C -89.422228 -61.489303 -90.924585 -62.05626 -91.944929 -63.189974 C -92.908586 -64.380375 -93.390319 -65.96744 -93.390319 -67.951441 C -93.390319 -70.048813 -92.908586 -71.664459 -91.944929 -72.798173 C -90.924585 -73.931888 -89.422228 -74.498845 -87.438227 -74.498845 z " /></g></svg>
