<?xml version="1.0" encoding="UTF-8" standalone="no"?>
<!-- Created with Inkscape (http://www.inkscape.org/) -->

<svg
   width="172.6701mm"
   height="172.6701mm"
   viewBox="0 0 172.6701 172.6701"
   version="1.1"
   id="svg1"
   xml:space="preserve"
   xmlns="http://www.w3.org/2000/svg"
   xmlns:svg="http://www.w3.org/2000/svg"><defs
     id="defs1" /><g
     id="layer1"
     transform="translate(157.25102,198.81012)"><path
       id="path5"
       style="fill:#ffffff;fill-opacity:1;stroke-width:0.805188;stroke-linecap:round;stroke-linejoin:round"
       d="M -2.0863309 -198.17657 L -10.088943 -183.11289 L -10.930235 -165.68398 L -19.198981 -165.68398 L -11.423229 -155.47426 L -12.166336 -140.07934 C -28.353216 -157.12094 -50.823548 -166.77435 -74.327399 -166.78417 C -103.64471 -166.77397 -130.92652 -151.79225 -146.66717 -127.05894 L -157.25102 -127.05894 L -149.61996 -115.86014 L -157.25102 -26.140039 L -8.5138455 -26.140039 L 15.419061 -26.140039 L 8.0799737 -154.80195 L 15.419061 -165.68398 L 7.4593397 -165.68398 L 6.4490654 -183.39297 L -2.0863309 -198.17657 z M -83.43072 -192.21621 C -85.584619 -189.65499 -86.77489 -186.4211 -86.795372 -183.07465 C -86.842092 -175.15518 -80.459903 -168.69733 -72.540428 -168.65072 C -64.621155 -168.60402 -58.163395 -174.98588 -58.116503 -182.90515 C -58.102813 -186.26049 -59.266203 -189.5144 -61.404157 -192.10045 C -60.83125 -190.6836 -60.536835 -189.16959 -60.537027 -187.64129 C -60.575787 -181.07411 -65.930869 -175.78172 -72.498054 -175.82031 C -79.065241 -175.85911 -84.357627 -181.21415 -84.319038 -187.78134 C -84.309338 -189.30285 -84.007827 -190.80837 -83.43072 -192.21621 z M -59.198607 -130.68663 C -51.174289 -130.68663 -44.785635 -128.69999 -40.033369 -124.72679 C -35.281103 -120.83149 -32.905122 -115.3392 -32.905122 -108.24976 C -32.905122 -102.01728 -35.281103 -95.356443 -40.033369 -88.266997 C -44.785635 -81.255457 -52.615534 -72.8024 -63.522374 -62.908338 L -32.087084 -62.908338 L -32.087084 -51.456324 L -85.024421 -51.456324 L -85.024421 -58.234204 C -76.376855 -66.570147 -69.637739 -73.698606 -64.807567 -79.619462 C -59.977395 -85.540319 -56.51063 -90.99372 -54.407168 -95.979704 C -52.2258 -100.96569 -51.135017 -106.10751 -51.135017 -111.40512 C -51.135017 -119.81897 -53.939741 -124.02554 -59.548973 -124.02554 C -62.041965 -124.02554 -64.067485 -122.85699 -65.625605 -120.51981 C -67.183725 -118.26053 -67.96293 -115.45633 -67.96293 -112.10637 C -67.96293 -109.76919 -67.144842 -107.54874 -65.508816 -105.44528 C -66.833218 -104.19878 -68.352229 -103.22464 -70.066161 -102.52349 C -71.702187 -101.82234 -73.338362 -101.47188 -74.974388 -101.47188 C -77.779004 -101.47188 -80.116103 -102.32885 -81.985847 -104.04278 C -83.855591 -105.83462 -84.790327 -108.40553 -84.790327 -111.75549 C -84.790327 -115.33916 -83.738942 -118.57211 -81.63548 -121.45463 C -79.532018 -124.33716 -76.571246 -126.59649 -72.753852 -128.23252 C -68.858552 -129.86854 -64.340403 -130.68663 -59.198607 -130.68663 z M -109.21416 -129.86859 L -105.35755 -128.11573 L -105.35755 -60.57153 C -103.87733 -59.714563 -101.54023 -58.935358 -98.346088 -58.234204 C -95.151942 -57.610956 -92.619914 -57.221096 -90.75017 -57.065284 L -91.101053 -51.456324 L -138.77928 -51.456324 L -138.5457 -57.065284 C -131.61207 -57.844344 -126.3142 -59.013409 -122.65262 -60.57153 L -122.65262 -116.54692 L -138.31212 -116.54692 L -138.31212 -123.32481 C -133.32614 -123.71434 -128.18432 -124.45414 -122.88671 -125.54482 C -117.5891 -126.71341 -113.03155 -128.15466 -109.21416 -129.86859 z M -11.286286 -105.32849 C -8.5595761 -105.32849 -6.5340565 -104.5104 -5.2096544 -102.87437 C -3.8073464 -101.31625 -3.1059069 -99.134686 -3.1059069 -96.33007 C -3.1059069 -93.525454 -3.8073464 -91.344404 -5.2096544 -89.786284 C -6.5340565 -88.228164 -8.5595761 -87.448959 -11.286286 -87.448959 C -14.012996 -87.448959 -16.077399 -88.228164 -17.479707 -89.786284 C -18.804109 -91.42231 -19.466149 -93.60336 -19.466149 -96.33007 C -19.466149 -99.212592 -18.804109 -101.43304 -17.479707 -102.99116 C -16.077399 -104.54928 -14.012996 -105.32849 -11.286286 -105.32849 z M -11.286286 -68.517814 C -8.5595761 -68.517814 -6.5340565 -67.699727 -5.2096544 -66.063701 C -3.8073464 -64.505581 -3.1059069 -62.324013 -3.1059069 -59.519397 C -3.1059069 -56.714781 -3.8073464 -54.533731 -5.2096544 -52.975611 C -6.5340565 -51.417491 -8.5595761 -50.638286 -11.286286 -50.638286 C -14.012996 -50.638286 -16.077399 -51.417491 -17.479707 -52.975611 C -18.804109 -54.611637 -19.466149 -56.792687 -19.466149 -59.519397 C -19.466149 -62.401919 -18.804109 -64.622369 -17.479707 -66.180489 C -16.077399 -67.738609 -14.012996 -68.517814 -11.286286 -68.517814 z " /></g></svg>
