<?xml version="1.0" encoding="UTF-8" standalone="no"?>
<!-- Created with Inkscape (http://www.inkscape.org/) -->

<svg
   width="172.6701mm"
   height="172.6701mm"
   viewBox="0 0 172.6701 172.6701"
   version="1.1"
   id="svg1"
   xml:space="preserve"
   xmlns="http://www.w3.org/2000/svg"
   xmlns:svg="http://www.w3.org/2000/svg"><defs
     id="defs1" /><g
     id="layer1"
     transform="translate(157.25102,198.81012)"><path
       id="path5"
       style="fill:#ffffff;fill-opacity:1;stroke-width:0.805188;stroke-linecap:round;stroke-linejoin:round"
       d="M -2.0863309 -198.17657 L -10.088943 -183.11289 L -10.930235 -165.68398 L -19.198981 -165.68398 L -11.423229 -155.47426 L -12.166336 -140.07934 C -28.353216 -157.12094 -50.823548 -166.77435 -74.327399 -166.78417 C -103.64471 -166.77397 -130.92652 -151.79225 -146.66717 -127.05894 L -157.25102 -127.05894 L -149.61996 -115.86014 L -157.25102 -26.140039 L -8.5138455 -26.140039 L 15.419061 -26.140039 L 8.0799737 -154.80195 L 15.419061 -165.68398 L 7.4593397 -165.68398 L 6.4490654 -183.39297 L -2.0863309 -198.17657 z M -83.43072 -192.21621 C -85.584619 -189.65499 -86.77489 -186.4211 -86.795372 -183.07465 C -86.842092 -175.15518 -80.459903 -168.69733 -72.540428 -168.65072 C -64.621155 -168.60402 -58.163395 -174.98588 -58.116503 -182.90515 C -58.102813 -186.26049 -59.266203 -189.5144 -61.404157 -192.10045 C -60.83125 -190.6836 -60.536835 -189.16959 -60.537027 -187.64129 C -60.575787 -181.07411 -65.930869 -175.78172 -72.498054 -175.82031 C -79.065241 -175.85911 -84.357627 -181.21415 -84.319038 -187.78134 C -84.309338 -189.30285 -84.007827 -190.80837 -83.43072 -192.21621 z M -0.11384145 -119.90383 L 1.9268609 -115.65241 C -9.5236576 -110.72075 -16.410812 -103.12528 -18.734927 -92.865166 C -15.447154 -94.452366 -12.329668 -95.245899 -9.3820096 -95.245899 C -3.7134361 -95.245899 0.73647627 -93.715477 3.9675632 -90.654448 C 7.2553358 -87.593418 8.8990451 -83.455306 8.8990451 -78.240218 C 8.8990451 -75.009132 8.0202881 -72.118221 6.2630303 -69.567363 C 4.5624582 -67.016505 2.1537967 -65.032415 -0.96391876 -63.615271 C -4.0249485 -62.198128 -7.5394598 -61.489303 -11.507461 -61.489303 C -18.253064 -61.489303 -23.439865 -63.360105 -27.067752 -67.101363 C -30.638953 -70.842622 -32.424531 -76.255999 -32.424531 -83.341716 C -32.424531 -92.241376 -29.675488 -99.808775 -24.176972 -106.04421 C -18.62177 -112.33632 -10.600702 -116.95617 -0.11384145 -119.90383 z M -126.46634 -119.81908 C -120.51433 -119.81908 -115.7812 -118.54381 -112.26669 -115.99295 C -108.75217 -113.44209 -106.99466 -110.01229 -106.99466 -105.70418 C -106.99466 -103.38006 -107.84535 -101.05611 -109.54592 -98.731991 C -111.24649 -96.407876 -113.48522 -94.50901 -116.26282 -93.035181 C -112.74831 -91.334609 -109.99927 -89.350519 -108.01527 -87.08309 C -105.97458 -84.81566 -104.95395 -81.896169 -104.95395 -78.324968 C -104.95395 -73.166566 -106.82476 -69.057034 -110.56601 -65.996005 C -114.30727 -62.991661 -119.35221 -61.489303 -125.70101 -61.489303 C -132.67335 -61.489303 -138.05867 -62.878373 -141.85661 -65.655974 C -145.59787 -68.433575 -147.46867 -72.401238 -147.46867 -77.55964 C -147.46867 -80.223869 -146.61798 -82.86014 -144.91741 -85.467684 C -143.21683 -88.131914 -140.83624 -90.483931 -137.77521 -92.524618 C -140.32606 -93.941761 -142.31015 -95.642631 -143.7273 -97.626632 C -145.14444 -99.610633 -145.85275 -102.07646 -145.85275 -105.02411 C -145.85275 -109.55897 -144.09575 -113.15871 -140.58124 -115.82294 C -137.06672 -118.48717 -132.36165 -119.81908 -126.46634 -119.81908 z M -69.582469 -119.05375 L -65.331049 -118.969 C -59.322361 -118.85563 -56.147714 -118.79847 -55.8076 -118.79847 L -43.733401 -118.969 L -41.267919 -117.18306 L -42.033247 -110.72092 L -63.120332 -110.72092 L -64.31044 -96.521273 C -61.362782 -97.258188 -58.698447 -97.626632 -56.317646 -97.626632 C -50.705758 -97.626632 -46.142558 -96.124274 -42.628042 -93.11993 C -39.056841 -90.172272 -37.271263 -85.836165 -37.271263 -80.110905 C -37.271263 -76.539704 -38.12144 -73.336993 -39.822012 -70.502706 C -41.465898 -67.66842 -43.847013 -65.429173 -46.964728 -63.785287 C -50.082444 -62.198086 -53.766887 -61.404554 -58.018317 -61.404554 C -61.476147 -61.404554 -64.622214 -61.886286 -67.456501 -62.849943 C -70.234102 -63.813601 -72.416704 -65.14551 -74.003905 -66.846082 C -75.591106 -68.60334 -76.384638 -70.559366 -76.384638 -72.713424 C -76.384638 -74.980853 -75.761037 -76.709787 -74.513951 -77.900188 C -73.266865 -79.147274 -71.736444 -79.770358 -69.9225 -79.770358 C -68.902157 -79.770358 -67.881532 -79.572362 -66.861188 -79.175562 C -65.784159 -78.778762 -64.820695 -78.211805 -63.970409 -77.474891 C -64.48058 -76.28449 -64.735737 -75.037289 -64.735737 -73.733517 C -64.735737 -71.862888 -64.19736 -70.332466 -63.120332 -69.142066 C -61.986617 -67.951665 -60.285747 -67.356645 -58.018317 -67.356645 C -52.916601 -67.356645 -50.365555 -71.608045 -50.365555 -80.110905 C -50.365555 -84.135593 -51.159604 -87.054567 -52.746805 -88.86851 C -54.334005 -90.73914 -56.459447 -91.674541 -59.123676 -91.674541 C -60.767563 -91.674541 -62.525077 -91.36274 -64.395706 -90.739197 C -66.266335 -90.115654 -68.108557 -89.236897 -69.9225 -88.103182 L -74.598701 -92.609884 L -72.387983 -116.75776 L -69.582469 -119.05375 z M -126.46634 -113.78224 C -128.73377 -113.78224 -130.51934 -113.04535 -131.82311 -111.57152 C -133.12689 -110.15437 -133.77907 -108.22693 -133.77907 -105.78944 C -133.77907 -103.63538 -132.95695 -101.84981 -131.31307 -100.43266 C -129.6125 -99.072205 -127.14667 -97.711715 -123.91559 -96.351258 C -122.49844 -97.314915 -121.36453 -98.646824 -120.51424 -100.3474 C -119.66396 -102.04797 -119.23887 -103.86213 -119.23887 -105.78944 C -119.23887 -108.22693 -119.91911 -110.15437 -121.27957 -111.57152 C -122.58334 -113.04535 -124.31228 -113.78224 -126.46634 -113.78224 z M -89.904226 -101.28274 C -87.920226 -101.28274 -86.446448 -100.68772 -85.482791 -99.497319 C -84.462448 -98.363604 -83.952135 -96.776539 -83.952135 -94.735852 C -83.952135 -92.695166 -84.462448 -91.107584 -85.482791 -89.973869 C -86.446448 -88.840154 -87.920226 -88.273198 -89.904226 -88.273198 C -91.888227 -88.273198 -93.390585 -88.840154 -94.410928 -89.973869 C -95.374586 -91.16427 -95.856318 -92.751852 -95.856318 -94.735852 C -95.856318 -96.833225 -95.374586 -98.448354 -94.410928 -99.582068 C -93.390585 -100.71578 -91.888227 -101.28274 -89.904226 -101.28274 z M -11.762743 -89.293807 C -14.143544 -89.293807 -16.722654 -88.330343 -19.500255 -86.403028 L -19.500255 -85.297669 C -19.500255 -79.118924 -18.82001 -74.583787 -17.459553 -71.692814 C -16.099095 -68.801842 -13.945073 -67.356645 -10.997415 -67.356645 C -8.5599282 -67.356645 -6.689643 -68.291529 -5.3858711 -70.162159 C -4.0820992 -72.032788 -3.4299181 -74.697123 -3.4299181 -78.154952 C -3.4299181 -81.669468 -4.1668068 -84.390447 -5.6406359 -86.317762 C -7.0577793 -88.301762 -9.0985133 -89.293807 -11.762743 -89.293807 z M -129.95243 -89.038526 C -131.653 -87.678068 -132.9002 -86.119583 -133.6938 -84.362325 C -134.4874 -82.605068 -134.88443 -80.50769 -134.88443 -78.070203 C -134.88443 -74.725745 -134.06231 -72.089474 -132.41843 -70.162159 C -130.77454 -68.291529 -128.53529 -67.356645 -125.70101 -67.356645 C -122.92341 -67.356645 -120.76938 -68.291529 -119.23887 -70.162159 C -117.65167 -72.032788 -116.85814 -74.640479 -116.85814 -77.984937 C -116.85814 -79.855566 -117.45316 -81.442631 -118.64356 -82.746403 C -119.77727 -84.106861 -121.22299 -85.212194 -122.98024 -86.06248 C -124.7375 -86.969452 -127.06146 -87.961497 -129.95243 -89.038526 z M -89.904226 -74.498845 C -87.920226 -74.498845 -86.446448 -73.903824 -85.482791 -72.713424 C -84.462448 -71.579709 -83.952135 -69.992127 -83.952135 -67.951441 C -83.952135 -65.910754 -84.462448 -64.323689 -85.482791 -63.189974 C -86.446448 -62.05626 -87.920226 -61.489303 -89.904226 -61.489303 C -91.888227 -61.489303 -93.390585 -62.05626 -94.410928 -63.189974 C -95.374586 -64.380375 -95.856318 -65.96744 -95.856318 -67.951441 C -95.856318 -70.048813 -95.374586 -71.664459 -94.410928 -72.798173 C -93.390585 -73.931888 -91.888227 -74.498845 -89.904226 -74.498845 z " /></g></svg>
