<?xml version="1.0" encoding="UTF-8" standalone="no"?>
<!-- Created with Inkscape (http://www.inkscape.org/) -->

<svg
   width="172.6701mm"
   height="172.6701mm"
   viewBox="0 0 172.6701 172.6701"
   version="1.1"
   id="svg1"
   xml:space="preserve"
   xmlns="http://www.w3.org/2000/svg"
   xmlns:svg="http://www.w3.org/2000/svg"><defs
     id="defs1" /><g
     id="layer1"
     transform="translate(157.25102,198.81012)"><path
       id="path5"
       style="fill:#ffffff;fill-opacity:1;stroke-width:0.805188;stroke-linecap:round;stroke-linejoin:round"
       d="M -2.0863309 -198.17657 L -10.088943 -183.11289 L -10.930235 -165.68398 L -19.198981 -165.68398 L -11.423229 -155.47426 L -12.166336 -140.07934 C -28.353216 -157.12094 -50.823548 -166.77435 -74.327399 -166.78417 C -103.64471 -166.77397 -130.92652 -151.79225 -146.66717 -127.05894 L -157.25102 -127.05894 L -149.61996 -115.86014 L -157.25102 -26.140039 L -8.5138455 -26.140039 L 15.419061 -26.140039 L 8.0799737 -154.80195 L 15.419061 -165.68398 L 7.4593397 -165.68398 L 6.4490654 -183.39297 L -2.0863309 -198.17657 z M -83.43072 -192.21621 C -85.584619 -189.65499 -86.77489 -186.4211 -86.795372 -183.07465 C -86.842092 -175.15518 -80.459903 -168.69733 -72.540428 -168.65072 C -64.621155 -168.60402 -58.163395 -174.98588 -58.116503 -182.90515 C -58.102813 -186.26049 -59.266203 -189.5144 -61.404157 -192.10045 C -60.83125 -190.6836 -60.536835 -189.16959 -60.537027 -187.64129 C -60.575787 -181.07411 -65.930869 -175.78172 -72.498054 -175.82031 C -79.065241 -175.85911 -84.357627 -181.21415 -84.319038 -187.78134 C -84.309338 -189.30285 -84.007827 -190.80837 -83.43072 -192.21621 z M -58.443614 -119.73381 C -54.759042 -119.73381 -51.499687 -119.11073 -48.6654 -117.86364 C -45.831113 -116.67324 -43.61993 -114.97237 -42.03273 -112.76163 C -40.445529 -110.60757 -39.651997 -108.11368 -39.651997 -105.27939 C -39.651997 -102.10499 -40.587398 -99.384015 -42.458027 -97.116586 C -44.328656 -94.849156 -47.106279 -93.120223 -50.790852 -91.929822 C -46.142621 -90.909479 -42.883266 -89.237189 -41.012637 -86.913074 C -39.142008 -84.588959 -38.206607 -81.442892 -38.206607 -77.474891 C -38.206607 -74.017061 -39.255296 -71.069506 -41.352668 -68.632019 C -43.393354 -66.194533 -46.057689 -64.380375 -49.345462 -63.189974 C -52.633234 -61.999574 -56.034458 -61.404554 -59.548973 -61.404554 C -64.650689 -61.404554 -68.986797 -62.453243 -72.557998 -64.550615 C -76.072514 -66.647987 -77.830028 -69.510317 -77.830028 -73.138204 C -77.830028 -75.235577 -77.206427 -76.851222 -75.959341 -77.984937 C -74.712255 -79.175337 -73.153253 -79.770358 -71.282624 -79.770358 C -69.355309 -79.770358 -67.399799 -79.005405 -65.415799 -77.474891 C -65.92597 -76.397862 -66.181127 -75.094016 -66.181127 -73.563501 C -66.181127 -71.749558 -65.64275 -70.275781 -64.565721 -69.142066 C -63.432007 -68.008351 -61.759717 -67.441394 -59.548973 -67.441394 C -54.674 -67.441394 -52.236241 -70.814037 -52.236241 -77.55964 C -52.236241 -81.244213 -53.426799 -84.10706 -55.8076 -86.147746 C -58.131715 -88.188433 -61.447714 -89.208541 -65.75583 -89.208541 L -65.75583 -94.480571 C -57.423027 -95.1608 -53.256851 -98.760535 -53.256851 -105.27939 C -53.256851 -108.56717 -53.766647 -110.97583 -54.78699 -112.50634 C -55.807333 -114.09354 -57.196403 -114.88759 -58.953661 -114.88759 C -61.051033 -114.88759 -62.638098 -114.15071 -63.715127 -112.67688 C -64.73547 -111.20305 -65.245783 -109.41747 -65.245783 -107.3201 C -65.245783 -105.44947 -64.848758 -103.77718 -64.055158 -102.30335 C -65.642359 -100.60278 -67.683093 -99.752084 -70.177265 -99.752084 C -72.444695 -99.752084 -74.202209 -100.43233 -75.449295 -101.79279 C -76.696381 -103.15324 -77.319982 -104.91076 -77.319982 -107.06482 C -77.319982 -109.8991 -76.356 -112.25164 -74.428685 -114.12227 C -72.444684 -116.04958 -70.007443 -117.46671 -67.11647 -118.37369 C -64.168812 -119.28066 -61.277901 -119.73381 -58.443614 -119.73381 z M -137.86047 -119.05375 L -133.60905 -118.969 C -127.60036 -118.85563 -124.42572 -118.79847 -124.0856 -118.79847 L -112.0114 -118.969 L -109.54592 -117.18306 L -110.31125 -110.72092 L -131.39833 -110.72092 L -132.58844 -96.521273 C -129.64078 -97.258188 -126.97645 -97.626632 -124.59565 -97.626632 C -118.98376 -97.626632 -114.42056 -96.124274 -110.90605 -93.11993 C -107.33484 -90.172272 -105.54927 -85.836165 -105.54927 -80.110905 C -105.54927 -76.539704 -106.39944 -73.336993 -108.10001 -70.502706 C -109.7439 -67.66842 -112.12502 -65.429173 -115.24273 -63.785287 C -118.36045 -62.198086 -122.04489 -61.404554 -126.29632 -61.404554 C -129.75415 -61.404554 -132.90022 -61.886286 -135.7345 -62.849943 C -138.5121 -63.813601 -140.69471 -65.14551 -142.28191 -66.846082 C -143.86911 -68.60334 -144.66264 -70.559366 -144.66264 -72.713424 C -144.66264 -74.980853 -144.03904 -76.709787 -142.79195 -77.900188 C -141.54487 -79.147274 -140.01445 -79.770358 -138.2005 -79.770358 C -137.18016 -79.770358 -136.15953 -79.572362 -135.13919 -79.175562 C -134.06216 -78.778762 -133.0987 -78.211805 -132.24841 -77.474891 C -132.75858 -76.28449 -133.01374 -75.037289 -133.01374 -73.733517 C -133.01374 -71.862888 -132.47536 -70.332466 -131.39833 -69.142066 C -130.26462 -67.951665 -128.56375 -67.356645 -126.29632 -67.356645 C -121.1946 -67.356645 -118.64356 -71.608045 -118.64356 -80.110905 C -118.64356 -84.135593 -119.43761 -87.054567 -121.02481 -88.86851 C -122.61201 -90.73914 -124.73745 -91.674541 -127.40168 -91.674541 C -129.04557 -91.674541 -130.80308 -91.36274 -132.67371 -90.739197 C -134.54434 -90.115654 -136.38656 -89.236897 -138.2005 -88.103182 L -142.8767 -92.609884 L -140.66599 -116.75776 L -137.86047 -119.05375 z M -26.642971 -119.05375 L -22.391551 -118.969 C -16.382863 -118.85563 -13.208216 -118.79847 -12.868102 -118.79847 L -0.7939033 -118.969 L 1.6715793 -117.18306 L 0.90625132 -110.72092 L -20.180834 -110.72092 L -21.370942 -96.521273 C -18.423284 -97.258188 -15.758949 -97.626632 -13.378148 -97.626632 C -7.7662603 -97.626632 -3.20306 -96.124274 0.31145559 -93.11993 C 3.8826569 -90.172272 5.6682346 -85.836165 5.6682346 -80.110905 C 5.6682346 -76.539704 4.8175411 -73.336993 3.1169691 -70.502706 C 1.4730828 -67.66842 -0.90751518 -65.429173 -4.0252306 -63.785287 C -7.142946 -62.198086 -10.827389 -61.404554 -15.078819 -61.404554 C -18.536649 -61.404554 -21.682716 -61.886286 -24.517003 -62.849943 C -27.294604 -63.813601 -29.477206 -65.14551 -31.064407 -66.846082 C -32.651608 -68.60334 -33.44514 -70.559366 -33.44514 -72.713424 C -33.44514 -74.980853 -32.82154 -76.709787 -31.574453 -77.900188 C -30.327367 -79.147274 -28.796946 -79.770358 -26.983002 -79.770358 C -25.962659 -79.770358 -24.942034 -79.572362 -23.921691 -79.175562 C -22.844662 -78.778762 -21.881197 -78.211805 -21.030911 -77.474891 C -21.541083 -76.28449 -21.796239 -75.037289 -21.796239 -73.733517 C -21.796239 -71.862888 -21.257863 -70.332466 -20.180834 -69.142066 C -19.047119 -67.951665 -17.346249 -67.356645 -15.078819 -67.356645 C -9.9771033 -67.356645 -7.4265734 -71.608045 -7.4265734 -80.110905 C -7.4265734 -84.135593 -8.220106 -87.054567 -9.8073066 -88.86851 C -11.394507 -90.73914 -13.519949 -91.674541 -16.184178 -91.674541 C -17.828065 -91.674541 -19.585579 -91.36274 -21.456208 -90.739197 C -23.326837 -90.115654 -25.169059 -89.236897 -26.983002 -88.103182 L -31.65972 -92.609884 L -29.449002 -116.75776 L -26.642971 -119.05375 z M -90.158991 -101.28274 C -88.17499 -101.28274 -86.701213 -100.68772 -85.737556 -99.497319 C -84.717212 -98.363604 -84.207416 -96.776539 -84.207416 -94.735852 C -84.207416 -92.695166 -84.717212 -91.107584 -85.737556 -89.973869 C -86.701213 -88.840154 -88.17499 -88.273198 -90.158991 -88.273198 C -92.142992 -88.273198 -93.64535 -88.840154 -94.665693 -89.973869 C -95.62935 -91.16427 -96.111083 -92.751852 -96.111083 -94.735852 C -96.111083 -96.833225 -95.62935 -98.448354 -94.665693 -99.582068 C -93.64535 -100.71578 -92.142992 -101.28274 -90.158991 -101.28274 z M -90.158991 -74.498845 C -88.17499 -74.498845 -86.701213 -73.903824 -85.737556 -72.713424 C -84.717212 -71.579709 -84.207416 -69.992127 -84.207416 -67.951441 C -84.207416 -65.910754 -84.717212 -64.323689 -85.737556 -63.189974 C -86.701213 -62.05626 -88.17499 -61.489303 -90.158991 -61.489303 C -92.142992 -61.489303 -93.64535 -62.05626 -94.665693 -63.189974 C -95.62935 -64.380375 -96.111083 -65.96744 -96.111083 -67.951441 C -96.111083 -70.048813 -95.62935 -71.664459 -94.665693 -72.798173 C -93.64535 -73.931888 -92.142992 -74.498845 -90.158991 -74.498845 z " /></g></svg>
