<?xml version="1.0" encoding="UTF-8" standalone="no"?>
<!-- Created with Inkscape (http://www.inkscape.org/) -->

<svg
   width="172.6701mm"
   height="172.6701mm"
   viewBox="0 0 172.6701 172.6701"
   version="1.1"
   id="svg1"
   xml:space="preserve"
   xmlns="http://www.w3.org/2000/svg"
   xmlns:svg="http://www.w3.org/2000/svg"><defs
     id="defs1" /><g
     id="layer1"
     transform="translate(157.25102,198.81012)"><path
       id="path5"
       style="fill:#ffffff;fill-opacity:1;stroke-width:0.805188;stroke-linecap:round;stroke-linejoin:round"
       d="M -2.0863309 -198.17657 L -10.088943 -183.11289 L -10.930235 -165.68398 L -19.198981 -165.68398 L -11.423229 -155.47426 L -12.166336 -140.07934 C -28.353216 -157.12094 -50.823548 -166.77435 -74.327399 -166.78417 C -103.64471 -166.77397 -130.92652 -151.79225 -146.66717 -127.05894 L -157.25102 -127.05894 L -149.61996 -115.86014 L -157.25102 -26.140039 L -8.5138455 -26.140039 L 15.419061 -26.140039 L 8.0799737 -154.80195 L 15.419061 -165.68398 L 7.4593397 -165.68398 L 6.4490654 -183.39297 L -2.0863309 -198.17657 z M -83.43072 -192.21621 C -85.584619 -189.65499 -86.77489 -186.4211 -86.795372 -183.07465 C -86.842092 -175.15518 -80.459903 -168.69733 -72.540428 -168.65072 C -64.621155 -168.60402 -58.163395 -174.98588 -58.116503 -182.90515 C -58.102813 -186.26049 -59.266203 -189.5144 -61.404157 -192.10045 C -60.83125 -190.6836 -60.536835 -189.16959 -60.537027 -187.64129 C -60.575787 -181.07411 -65.930869 -175.78172 -72.498054 -175.82031 C -79.065241 -175.85911 -84.357627 -181.21415 -84.319038 -187.78134 C -84.309338 -189.30285 -84.007827 -190.80837 -83.43072 -192.21621 z M -1.6444974 -119.90383 L 0.39620493 -115.65241 C -11.054314 -110.72075 -17.941468 -103.12528 -20.265583 -92.865166 C -16.97781 -94.452366 -13.860324 -95.245899 -10.912666 -95.245899 C -5.244092 -95.245899 -0.79417965 -93.715477 2.4369072 -90.654448 C 5.7246799 -87.593418 7.3689059 -83.455306 7.3689059 -78.240218 C 7.3689059 -75.009132 6.4901489 -72.118221 4.7328911 -69.567363 C 3.0323191 -67.016505 0.62314074 -65.032415 -2.4945747 -63.615271 C -5.5556044 -62.198128 -9.0701157 -61.489303 -13.038117 -61.489303 C -19.78372 -61.489303 -24.970521 -63.360105 -28.598408 -67.101363 C -32.169609 -70.842622 -33.955187 -76.255999 -33.955187 -83.341716 C -33.955187 -92.241376 -31.206144 -99.808775 -25.707628 -106.04421 C -20.152426 -112.33632 -12.131358 -116.95617 -1.6444974 -119.90383 z M -127.40168 -119.73381 C -121.56305 -119.73381 -116.91514 -118.28861 -113.45731 -115.39764 C -109.99948 -112.56335 -108.27055 -108.56711 -108.27055 -103.40871 C -108.27055 -98.873849 -109.99948 -94.026912 -113.45731 -88.86851 C -116.91514 -83.766794 -122.61174 -77.616529 -130.54774 -70.41744 L -107.67523 -70.41744 L -107.67523 -62.084615 L -146.1933 -62.084615 L -146.1933 -67.016097 C -139.90118 -73.081471 -134.9976 -78.268272 -131.48308 -82.576388 C -127.96857 -86.884504 -125.4461 -90.852684 -123.91559 -94.480571 C -122.32839 -98.108458 -121.53485 -101.84955 -121.53485 -105.70418 C -121.53485 -111.82623 -123.57559 -114.88759 -127.65696 -114.88759 C -129.4709 -114.88759 -130.94468 -114.0369 -132.0784 -112.33633 C -133.21211 -110.69244 -133.77907 -108.65171 -133.77907 -106.21422 C -133.77907 -104.51365 -133.18353 -102.89852 -131.99313 -101.36801 C -132.95679 -100.46103 -134.06212 -99.752209 -135.30921 -99.242037 C -136.49961 -98.731866 -137.69016 -98.476709 -138.88057 -98.476709 C -140.92125 -98.476709 -142.62212 -99.10031 -143.98258 -100.3474 C -145.34304 -101.65117 -146.02328 -103.52197 -146.02328 -105.95946 C -146.02328 -108.567 -145.25781 -110.91953 -143.7273 -113.01691 C -142.19678 -115.11428 -140.04276 -116.75799 -137.26516 -117.94839 C -134.43087 -119.13879 -131.14294 -119.73381 -127.40168 -119.73381 z M -58.698379 -119.64906 C -52.066148 -119.64906 -46.993152 -117.15466 -43.478636 -112.16631 C -39.907435 -107.23465 -38.121857 -100.06428 -38.121857 -90.654448 C -38.121857 -81.244616 -39.907435 -74.017081 -43.478636 -68.97205 C -46.993152 -63.983706 -52.066148 -61.489303 -58.698379 -61.489303 C -65.33061 -61.489303 -70.432704 -63.983706 -74.003905 -68.97205 C -77.575106 -74.017081 -79.360684 -81.244616 -79.360684 -90.654448 C -79.360684 -100.00759 -77.575106 -107.17797 -74.003905 -112.16631 C -70.432704 -117.15466 -65.33061 -119.64906 -58.698379 -119.64906 z M -58.698379 -115.31237 C -61.589352 -115.31237 -63.68673 -113.41351 -64.990502 -109.61556 C -66.237588 -105.81762 -66.861188 -99.497422 -66.861188 -90.654448 C -66.861188 -81.868159 -66.237588 -75.576025 -64.990502 -71.778081 C -63.68673 -68.036822 -61.589352 -66.16602 -58.698379 -66.16602 C -55.807407 -66.16602 -53.738609 -68.036822 -52.491523 -71.778081 C -51.187751 -75.576025 -50.536087 -81.868159 -50.536087 -90.654448 C -50.536087 -99.440737 -51.187751 -105.73287 -52.491523 -109.53081 C -53.738609 -113.38544 -55.807407 -115.31237 -58.698379 -115.31237 z M -92.540241 -101.28274 C -90.55624 -101.28274 -89.082463 -100.68772 -88.118806 -99.497319 C -87.098462 -98.363604 -86.58815 -96.776539 -86.58815 -94.735852 C -86.58815 -92.695166 -87.098462 -91.107584 -88.118806 -89.973869 C -89.082463 -88.840154 -90.55624 -88.273198 -92.540241 -88.273198 C -94.524242 -88.273198 -96.026083 -88.840154 -97.046426 -89.973869 C -98.010084 -91.16427 -98.491816 -92.751852 -98.491816 -94.735852 C -98.491816 -96.833225 -98.010084 -98.448354 -97.046426 -99.582068 C -96.026083 -100.71578 -94.524242 -101.28274 -92.540241 -101.28274 z M -13.293399 -89.293807 C -15.6742 -89.293807 -18.25331 -88.330343 -21.030911 -86.403028 L -21.030911 -85.297669 C -21.030911 -79.118924 -20.350666 -74.583787 -18.990209 -71.692814 C -17.629751 -68.801842 -15.475729 -67.356645 -12.528071 -67.356645 C -10.090584 -67.356645 -8.2197821 -68.291529 -6.9160102 -70.162159 C -5.6122383 -72.032788 -4.960574 -74.697123 -4.960574 -78.154952 C -4.960574 -81.669468 -5.6974627 -84.390447 -7.1712918 -86.317762 C -8.5884352 -88.301762 -10.629169 -89.293807 -13.293399 -89.293807 z M -92.540241 -74.498845 C -90.55624 -74.498845 -89.082463 -73.903824 -88.118806 -72.713424 C -87.098462 -71.579709 -86.58815 -69.992127 -86.58815 -67.951441 C -86.58815 -65.910754 -87.098462 -64.323689 -88.118806 -63.189974 C -89.082463 -62.05626 -90.55624 -61.489303 -92.540241 -61.489303 C -94.524242 -61.489303 -96.026083 -62.05626 -97.046426 -63.189974 C -98.010084 -64.380375 -98.491816 -65.96744 -98.491816 -67.951441 C -98.491816 -70.048813 -98.010084 -71.664459 -97.046426 -72.798173 C -96.026083 -73.931888 -94.524242 -74.498845 -92.540241 -74.498845 z " /></g></svg>
