<?xml version="1.0" encoding="UTF-8" standalone="no"?>
<!-- Created with Inkscape (http://www.inkscape.org/) -->

<svg
   width="172.6701mm"
   height="172.6701mm"
   viewBox="0 0 172.6701 172.6701"
   version="1.1"
   id="svg1"
   xml:space="preserve"
   xmlns="http://www.w3.org/2000/svg"
   xmlns:svg="http://www.w3.org/2000/svg"><defs
     id="defs1" /><g
     id="layer1"
     transform="translate(157.25102,198.81012)"><path
       id="path5"
       style="fill:#ffffff;fill-opacity:1;stroke-width:0.805188;stroke-linecap:round;stroke-linejoin:round"
       d="M -2.0863309 -198.17657 L -10.088943 -183.11289 L -10.930235 -165.68398 L -19.198981 -165.68398 L -11.423229 -155.47426 L -12.166336 -140.07934 C -28.353216 -157.12094 -50.823548 -166.77435 -74.327399 -166.78417 C -103.64471 -166.77397 -130.92652 -151.79225 -146.66717 -127.05894 L -157.25102 -127.05894 L -149.61996 -115.86014 L -157.25102 -26.140039 L -8.5138455 -26.140039 L 15.419061 -26.140039 L 8.0799737 -154.80195 L 15.419061 -165.68398 L 7.4593397 -165.68398 L 6.4490654 -183.39297 L -2.0863309 -198.17657 z M -83.43072 -192.21621 C -85.584619 -189.65499 -86.77489 -186.4211 -86.795372 -183.07465 C -86.842092 -175.15518 -80.459903 -168.69733 -72.540428 -168.65072 C -64.621155 -168.60402 -58.163395 -174.98588 -58.116503 -182.90515 C -58.102813 -186.26049 -59.266203 -189.5144 -61.404157 -192.10045 C -60.83125 -190.6836 -60.536835 -189.16959 -60.537027 -187.64129 C -60.575787 -181.07411 -65.930869 -175.78172 -72.498054 -175.82031 C -79.065241 -175.85911 -84.357627 -181.21415 -84.319038 -187.78134 C -84.309338 -189.30285 -84.007827 -190.80837 -83.43072 -192.21621 z M -127.61459 -119.73381 C -123.93001 -119.73381 -120.67014 -119.11073 -117.83585 -117.86364 C -115.00157 -116.67324 -112.7909 -114.97237 -111.2037 -112.76163 C -109.6165 -110.60757 -108.82297 -108.11368 -108.82297 -105.27939 C -108.82297 -102.10499 -109.75837 -99.384015 -111.629 -97.116586 C -113.49963 -94.849156 -116.27725 -93.120223 -119.96182 -91.929822 C -115.31359 -90.909479 -112.05424 -89.237189 -110.18361 -86.913074 C -108.31298 -84.588959 -107.37758 -81.442892 -107.37758 -77.474891 C -107.37758 -74.017061 -108.42627 -71.069506 -110.52364 -68.632019 C -112.56433 -66.194533 -115.22866 -64.380375 -118.51643 -63.189974 C -121.80421 -61.999574 -125.20543 -61.404554 -128.71994 -61.404554 C -133.82166 -61.404554 -138.15777 -62.453243 -141.72897 -64.550615 C -145.24349 -66.647987 -147.001 -69.510317 -147.001 -73.138204 C -147.001 -75.235577 -146.3774 -76.851222 -145.13031 -77.984937 C -143.88323 -79.175337 -142.32422 -79.770358 -140.4536 -79.770358 C -138.52628 -79.770358 -136.57077 -79.005405 -134.58677 -77.474891 C -135.09694 -76.397862 -135.3521 -75.094016 -135.3521 -73.563501 C -135.3521 -71.749558 -134.81321 -70.275781 -133.73618 -69.142066 C -132.60246 -68.008351 -130.93069 -67.441394 -128.71994 -67.441394 C -123.84497 -67.441394 -121.40721 -70.814037 -121.40721 -77.55964 C -121.40721 -81.244213 -122.59777 -84.10706 -124.97857 -86.147746 C -127.30269 -88.188433 -130.61869 -89.208541 -134.9268 -89.208541 L -134.9268 -94.480571 C -126.594 -95.1608 -122.42782 -98.760535 -122.42782 -105.27939 C -122.42782 -108.56717 -122.93762 -110.97583 -123.95796 -112.50634 C -124.9783 -114.09354 -126.36737 -114.88759 -128.12463 -114.88759 C -130.222 -114.88759 -131.80907 -114.15071 -132.8861 -112.67688 C -133.90644 -111.20305 -134.41675 -109.41747 -134.41675 -107.3201 C -134.41675 -105.44947 -134.01973 -103.77718 -133.22613 -102.30335 C -134.81333 -100.60278 -136.85406 -99.752084 -139.34824 -99.752084 C -141.61567 -99.752084 -143.37318 -100.43233 -144.62027 -101.79279 C -145.86735 -103.15324 -146.49044 -104.91076 -146.49044 -107.06482 C -146.49044 -109.8991 -145.52697 -112.25164 -143.59966 -114.12227 C -141.61566 -116.04958 -139.17841 -117.46671 -136.28744 -118.37369 C -133.33978 -119.28066 -130.44887 -119.73381 -127.61459 -119.73381 z M -58.485989 -119.64906 C -51.853758 -119.64906 -46.780245 -117.15466 -43.265729 -112.16631 C -39.694528 -107.23465 -37.908951 -100.06428 -37.908951 -90.654448 C -37.908951 -81.244616 -39.694528 -74.017081 -43.265729 -68.97205 C -46.780245 -63.983706 -51.853758 -61.489303 -58.485989 -61.489303 C -65.11822 -61.489303 -70.219797 -63.983706 -73.790998 -68.97205 C -77.362199 -74.017081 -79.147777 -81.244616 -79.147777 -90.654448 C -79.147777 -100.00759 -77.362199 -107.17797 -73.790998 -112.16631 C -70.219797 -117.15466 -65.11822 -119.64906 -58.485989 -119.64906 z M -13.591055 -119.56379 C -6.8454525 -119.56379 -1.6867151 -117.69351 1.8844862 -113.95225 C 5.5123732 -110.21099 7.3260145 -104.7971 7.3260145 -97.711381 C 7.3260145 -88.811721 4.5483918 -81.216258 -1.0068102 -74.924142 C -6.5053265 -68.688711 -14.497814 -64.09693 -24.984675 -61.149272 L -27.025377 -65.400692 C -21.356804 -67.838179 -16.793603 -70.956182 -13.335773 -74.754126 C -9.8779436 -78.608756 -7.5820532 -83.086732 -6.4483385 -88.188448 C -9.6227397 -86.601248 -12.712163 -85.807715 -15.716507 -85.807715 C -21.38508 -85.807715 -25.863573 -87.338137 -29.151346 -90.399166 C -32.382432 -93.460196 -33.997561 -97.598308 -33.997561 -102.8134 C -33.997561 -106.04448 -33.147385 -108.93539 -31.446813 -111.48625 C -29.689555 -114.03711 -27.280377 -116.0212 -24.219347 -117.43834 C -21.101631 -118.85549 -17.559056 -119.56379 -13.591055 -119.56379 z M -58.485989 -115.31237 C -61.376962 -115.31237 -63.47434 -113.41351 -64.778111 -109.61556 C -66.025198 -105.81762 -66.648798 -99.497422 -66.648798 -90.654448 C -66.648798 -81.868159 -66.025198 -75.576025 -64.778111 -71.778081 C -63.47434 -68.036822 -61.376962 -66.16602 -58.485989 -66.16602 C -55.595017 -66.16602 -53.526219 -68.036822 -52.279133 -71.778081 C -50.975361 -75.576025 -50.32318 -81.868159 -50.32318 -90.654448 C -50.32318 -99.440737 -50.975361 -105.73287 -52.279133 -109.53081 C -53.526219 -113.38544 -55.595017 -115.31237 -58.485989 -115.31237 z M -14.101101 -113.69697 C -16.538588 -113.69697 -18.40939 -112.76157 -19.713162 -110.89094 C -21.016934 -109.02031 -21.668598 -106.35597 -21.668598 -102.89814 C -21.668598 -99.383629 -20.96029 -96.634587 -19.543146 -94.650586 C -18.069317 -92.723271 -16.000003 -91.759807 -13.335773 -91.759807 C -11.011658 -91.759807 -8.432548 -92.723271 -5.5982612 -94.650586 L -5.5982612 -95.755945 C -5.5982612 -101.93469 -6.2785059 -106.46931 -7.6389635 -109.36028 C -8.9994212 -112.25126 -11.153443 -113.69697 -14.101101 -113.69697 z M -92.327334 -101.28274 C -90.343334 -101.28274 -88.869556 -100.68772 -87.905899 -99.497319 C -86.885556 -98.363604 -86.37576 -96.776539 -86.37576 -94.735852 C -86.37576 -92.695166 -86.885556 -91.107584 -87.905899 -89.973869 C -88.869556 -88.840154 -90.343334 -88.273198 -92.327334 -88.273198 C -94.311335 -88.273198 -95.813693 -88.840154 -96.834036 -89.973869 C -97.797693 -91.16427 -98.279426 -92.751852 -98.279426 -94.735852 C -98.279426 -96.833225 -97.797693 -98.448354 -96.834036 -99.582068 C -95.813693 -100.71578 -94.311335 -101.28274 -92.327334 -101.28274 z M -92.327334 -74.498845 C -90.343334 -74.498845 -88.869556 -73.903824 -87.905899 -72.713424 C -86.885556 -71.579709 -86.37576 -69.992127 -86.37576 -67.951441 C -86.37576 -65.910754 -86.885556 -64.323689 -87.905899 -63.189974 C -88.869556 -62.05626 -90.343334 -61.489303 -92.327334 -61.489303 C -94.311335 -61.489303 -95.813693 -62.05626 -96.834036 -63.189974 C -97.797693 -64.380375 -98.279426 -65.96744 -98.279426 -67.951441 C -98.279426 -70.048813 -97.797693 -71.664459 -96.834036 -72.798173 C -95.813693 -73.931888 -94.311335 -74.498845 -92.327334 -74.498845 z " /></g></svg>
