<?xml version="1.0" encoding="UTF-8" standalone="no"?>
<!-- Created with Inkscape (http://www.inkscape.org/) -->

<svg
   width="172.6701mm"
   height="172.6701mm"
   viewBox="0 0 172.6701 172.6701"
   version="1.1"
   id="svg1"
   xml:space="preserve"
   xmlns="http://www.w3.org/2000/svg"
   xmlns:svg="http://www.w3.org/2000/svg"><defs
     id="defs1" /><g
     id="layer1"
     transform="translate(157.25102,198.81012)"><path
       id="path5"
       style="fill:#ffffff;fill-opacity:1;stroke-width:0.805188;stroke-linecap:round;stroke-linejoin:round"
       d="M -2.0863309 -198.17657 L -10.088943 -183.11289 L -10.930235 -165.68398 L -19.198981 -165.68398 L -11.423229 -155.47426 L -12.166336 -140.07934 C -28.353216 -157.12094 -50.823548 -166.77435 -74.327399 -166.78417 C -103.64471 -166.77397 -130.92652 -151.79225 -146.66717 -127.05894 L -157.25102 -127.05894 L -149.61996 -115.86014 L -157.25102 -26.140039 L -8.5138455 -26.140039 L 15.419061 -26.140039 L 8.0799737 -154.80195 L 15.419061 -165.68398 L 7.4593397 -165.68398 L 6.4490654 -183.39297 L -2.0863309 -198.17657 z M -83.43072 -192.21621 C -85.584619 -189.65499 -86.77489 -186.4211 -86.795372 -183.07465 C -86.842092 -175.15518 -80.459903 -168.69733 -72.540428 -168.65072 C -64.621155 -168.60402 -58.163395 -174.98588 -58.116503 -182.90515 C -58.102813 -186.26049 -59.266203 -189.5144 -61.404157 -192.10045 C -60.83125 -190.6836 -60.536835 -189.16959 -60.537027 -187.64129 C -60.575787 -181.07411 -65.930869 -175.78172 -72.498054 -175.82031 C -79.065241 -175.85911 -84.357627 -181.21415 -84.319038 -187.78134 C -84.309338 -189.30285 -84.007827 -190.80837 -83.43072 -192.21621 z M -18.734927 -119.81908 C -12.782925 -119.81908 -8.0497926 -118.54381 -4.535277 -115.99295 C -1.0207614 -113.44209 0.73623586 -110.01229 0.73623586 -105.70418 C 0.73623586 -103.38006 -0.11394079 -101.05611 -1.8145128 -98.731991 C -3.5150849 -96.407876 -5.7538145 -94.50901 -8.5314155 -93.035181 C -5.0168999 -91.334609 -2.2678576 -89.350519 -0.28385691 -87.08309 C 1.7568295 -84.81566 2.7769382 -81.896169 2.7769382 -78.324968 C 2.7769382 -73.166566 0.9066529 -69.057034 -2.8346056 -65.996005 C -6.5758641 -62.991661 -11.620797 -61.489303 -17.969599 -61.489303 C -24.941945 -61.489303 -30.327258 -62.878373 -34.125202 -65.655974 C -37.866461 -68.433575 -39.737263 -72.401238 -39.737263 -77.55964 C -39.737263 -80.223869 -38.887086 -82.86014 -37.186514 -85.467684 C -35.485942 -88.131914 -33.104827 -90.483931 -30.043798 -92.524618 C -32.594656 -93.941761 -34.578746 -95.642631 -35.995889 -97.626632 C -37.413032 -99.610633 -38.121857 -102.07646 -38.121857 -105.02411 C -38.121857 -109.55897 -36.364343 -113.15871 -32.849828 -115.82294 C -29.335312 -118.48717 -24.630244 -119.81908 -18.734927 -119.81908 z M -120.34423 -119.13901 L -117.5382 -117.86364 L -117.5382 -68.716769 C -116.46117 -68.093226 -114.76082 -67.526269 -112.4367 -67.016097 C -110.11259 -66.562611 -108.27036 -66.279392 -106.90991 -66.16602 L -107.16519 -62.084615 L -141.85661 -62.084615 L -141.6866 -66.16602 C -136.64156 -66.732877 -132.78667 -67.583054 -130.12244 -68.716769 L -130.12244 -109.44555 L -141.51658 -109.44555 L -141.51658 -114.37703 C -137.88869 -114.66046 -134.14709 -115.19935 -130.29246 -115.99295 C -126.43783 -116.84324 -123.12183 -117.89193 -120.34423 -119.13901 z M -57.59302 -119.13901 L -54.78699 -117.86364 L -54.78699 -68.716769 C -53.709961 -68.093226 -52.009608 -67.526269 -49.685493 -67.016097 C -47.361378 -66.562611 -45.519156 -66.279392 -44.158698 -66.16602 L -44.41398 -62.084615 L -79.105402 -62.084615 L -78.935387 -66.16602 C -73.890356 -66.732877 -70.035464 -67.583054 -67.371235 -68.716769 L -67.371235 -109.44555 L -78.765371 -109.44555 L -78.765371 -114.37703 C -75.137484 -114.66046 -71.396397 -115.19935 -67.541767 -115.99295 C -63.687137 -116.84324 -60.370621 -117.89193 -57.59302 -119.13901 z M -18.734927 -113.78224 C -21.002356 -113.78224 -22.787934 -113.04535 -24.091706 -111.57152 C -25.395478 -110.15437 -26.047659 -108.22693 -26.047659 -105.78944 C -26.047659 -103.63538 -25.225546 -101.84981 -23.58166 -100.43266 C -21.881088 -99.072205 -19.415265 -97.711715 -16.184178 -96.351258 C -14.767035 -97.314915 -13.633638 -98.646824 -12.783352 -100.3474 C -11.933066 -102.04797 -11.507461 -103.86213 -11.507461 -105.78944 C -11.507461 -108.22693 -12.187706 -110.15437 -13.548164 -111.57152 C -14.851935 -113.04535 -16.580869 -113.78224 -18.734927 -113.78224 z M -92.199694 -101.28274 C -90.215693 -101.28274 -88.741915 -100.68772 -87.778258 -99.497319 C -86.757915 -98.363604 -86.248119 -96.776539 -86.248119 -94.735852 C -86.248119 -92.695166 -86.757915 -91.107584 -87.778258 -89.973869 C -88.741915 -88.840154 -90.215693 -88.273198 -92.199694 -88.273198 C -94.183694 -88.273198 -95.686052 -88.840154 -96.706395 -89.973869 C -97.670053 -91.16427 -98.151785 -92.751852 -98.151785 -94.735852 C -98.151785 -96.833225 -97.670053 -98.448354 -96.706395 -99.582068 C -95.686052 -100.71578 -94.183694 -101.28274 -92.199694 -101.28274 z M -22.221019 -89.038526 C -23.921591 -87.678068 -25.168793 -86.119583 -25.962393 -84.362325 C -26.755993 -82.605068 -27.153018 -80.50769 -27.153018 -78.070203 C -27.153018 -74.725745 -26.330905 -72.089474 -24.687019 -70.162159 C -23.043132 -68.291529 -20.803886 -67.356645 -17.969599 -67.356645 C -15.191998 -67.356645 -13.037976 -68.291529 -11.507461 -70.162159 C -9.9202607 -72.032788 -9.126728 -74.640479 -9.126728 -77.984937 C -9.126728 -79.855566 -9.7222651 -81.442631 -10.912666 -82.746403 C -12.04638 -84.106861 -13.491577 -85.212194 -15.248835 -86.06248 C -17.006093 -86.969452 -19.330047 -87.961497 -22.221019 -89.038526 z M -92.199694 -74.498845 C -90.215693 -74.498845 -88.741915 -73.903824 -87.778258 -72.713424 C -86.757915 -71.579709 -86.248119 -69.992127 -86.248119 -67.951441 C -86.248119 -65.910754 -86.757915 -64.323689 -87.778258 -63.189974 C -88.741915 -62.05626 -90.215693 -61.489303 -92.199694 -61.489303 C -94.183694 -61.489303 -95.686052 -62.05626 -96.706395 -63.189974 C -97.670053 -64.380375 -98.151785 -65.96744 -98.151785 -67.951441 C -98.151785 -70.048813 -97.670053 -71.664459 -96.706395 -72.798173 C -95.686052 -73.931888 -94.183694 -74.498845 -92.199694 -74.498845 z " /></g></svg>
