<?xml version="1.0" encoding="UTF-8" standalone="no"?>
<!-- Created with Inkscape (http://www.inkscape.org/) -->

<svg
   width="172.6701mm"
   height="172.6701mm"
   viewBox="0 0 172.6701 172.6701"
   version="1.1"
   id="svg1"
   xml:space="preserve"
   xmlns="http://www.w3.org/2000/svg"
   xmlns:svg="http://www.w3.org/2000/svg"><defs
     id="defs1" /><g
     id="layer1"
     transform="translate(157.25102,198.81012)"><path
       id="path5"
       style="fill:#ffffff;fill-opacity:1;stroke-width:0.805188;stroke-linecap:round;stroke-linejoin:round"
       d="M -2.0863309 -198.17657 L -10.088943 -183.11289 L -10.930235 -165.68398 L -19.198981 -165.68398 L -11.423229 -155.47426 L -12.166336 -140.07934 C -28.353216 -157.12094 -50.823548 -166.77435 -74.327399 -166.78417 C -103.64471 -166.77397 -130.92652 -151.79225 -146.66717 -127.05894 L -157.25102 -127.05894 L -149.61996 -115.86014 L -157.25102 -26.140039 L -8.5138455 -26.140039 L 15.419061 -26.140039 L 8.0799737 -154.80195 L 15.419061 -165.68398 L 7.4593397 -165.68398 L 6.4490654 -183.39297 L -2.0863309 -198.17657 z M -83.43072 -192.21621 C -85.584619 -189.65499 -86.77489 -186.4211 -86.795372 -183.07465 C -86.842092 -175.15518 -80.459903 -168.69733 -72.540428 -168.65072 C -64.621155 -168.60402 -58.163395 -174.98588 -58.116503 -182.90515 C -58.102813 -186.26049 -59.266203 -189.5144 -61.404157 -192.10045 C -60.83125 -190.6836 -60.536835 -189.16959 -60.537027 -187.64129 C -60.575787 -181.07411 -65.930869 -175.78172 -72.498054 -175.82031 C -79.065241 -175.85911 -84.357627 -181.21415 -84.319038 -187.78134 C -84.309338 -189.30285 -84.007827 -190.80837 -83.43072 -192.21621 z M -14.951179 -120.07436 C -10.41632 -119.84761 -6.7318766 -118.85557 -3.8975898 -117.09831 L -24.134597 -83.767013 L -11.125056 -83.767013 L -10.274978 -97.626632 C -8.4610348 -97.626632 -7.1571895 -97.995076 -6.3635892 -98.731991 C -5.5133031 -99.468905 -4.8611221 -100.71611 -4.4076362 -102.47336 L 0.43857961 -102.47336 L 0.35383026 -83.341716 C 2.5078882 -82.718173 5.2288669 -82.066508 8.5166395 -81.38628 L 8.0913425 -77.304875 L -0.071466777 -77.304875 L -0.071466777 -62.084615 L -11.125056 -62.084615 L -11.125056 -77.304875 L -35.698233 -77.304875 L -36.378811 -80.36567 L -14.951179 -120.07436 z M -114.77506 -119.90383 L -112.73436 -115.65241 C -124.18488 -110.72075 -131.07203 -103.12528 -133.39615 -92.865166 C -130.10837 -94.452366 -126.99089 -95.245899 -124.04323 -95.245899 C -118.37465 -95.245899 -113.92474 -93.715477 -110.69366 -90.654448 C -107.40588 -87.593418 -105.76217 -83.455306 -105.76217 -78.240218 C -105.76217 -75.009132 -106.64041 -72.118221 -108.39767 -69.567363 C -110.09824 -67.016505 -112.50742 -65.032415 -115.62514 -63.615271 C -118.68617 -62.198128 -122.20068 -61.489303 -126.16868 -61.489303 C -132.91428 -61.489303 -138.10108 -63.360105 -141.72897 -67.101363 C -145.30017 -70.842622 -147.08575 -76.255999 -147.08575 -83.341716 C -147.08575 -92.241376 -144.33671 -99.808775 -138.83819 -106.04421 C -133.28299 -112.33632 -125.26192 -116.95617 -114.77506 -119.90383 z M -59.081302 -119.73381 C -55.396729 -119.73381 -52.137374 -119.11073 -49.303087 -117.86364 C -46.4688 -116.67324 -44.257618 -114.97237 -42.670417 -112.76163 C -41.083216 -110.60757 -40.289684 -108.11368 -40.289684 -105.27939 C -40.289684 -102.10499 -41.225085 -99.384015 -43.095714 -97.116586 C -44.966343 -94.849156 -47.743966 -93.120223 -51.428539 -91.929822 C -46.780308 -90.909479 -43.520953 -89.237189 -41.650324 -86.913074 C -39.779695 -84.588959 -38.844294 -81.442892 -38.844294 -77.474891 C -38.844294 -74.017061 -39.892983 -71.069506 -41.990355 -68.632019 C -44.031042 -66.194533 -46.695376 -64.380375 -49.983149 -63.189974 C -53.270922 -61.999574 -56.672145 -61.404554 -60.18666 -61.404554 C -65.288377 -61.404554 -69.624484 -62.453243 -73.195686 -64.550615 C -76.710201 -66.647987 -78.467715 -69.510317 -78.467715 -73.138204 C -78.467715 -75.235577 -77.844114 -76.851222 -76.597028 -77.984937 C -75.349942 -79.175337 -73.79094 -79.770358 -71.920311 -79.770358 C -69.992996 -79.770358 -68.037487 -79.005405 -66.053486 -77.474891 C -66.563657 -76.397862 -66.818814 -75.094016 -66.818814 -73.563501 C -66.818814 -71.749558 -66.280437 -70.275781 -65.203409 -69.142066 C -64.069694 -68.008351 -62.397404 -67.441394 -60.18666 -67.441394 C -55.311687 -67.441394 -52.873929 -70.814037 -52.873929 -77.55964 C -52.873929 -81.244213 -54.064486 -84.10706 -56.445287 -86.147746 C -58.769402 -88.188433 -62.085401 -89.208541 -66.393517 -89.208541 L -66.393517 -94.480571 C -58.060714 -95.1608 -53.894538 -98.760535 -53.894538 -105.27939 C -53.894538 -108.56717 -54.404334 -110.97583 -55.424677 -112.50634 C -56.44502 -114.09354 -57.83409 -114.88759 -59.591348 -114.88759 C -61.68872 -114.88759 -63.275785 -114.15071 -64.352814 -112.67688 C -65.373158 -111.20305 -65.88347 -109.41747 -65.88347 -107.3201 C -65.88347 -105.44947 -65.486446 -103.77718 -64.692845 -102.30335 C -66.280046 -100.60278 -68.32078 -99.752084 -70.814952 -99.752084 C -73.082382 -99.752084 -74.839896 -100.43233 -76.086982 -101.79279 C -77.334068 -103.15324 -77.957669 -104.91076 -77.957669 -107.06482 C -77.957669 -109.8991 -76.993687 -112.25164 -75.066372 -114.12227 C -73.082372 -116.04958 -70.64513 -117.46671 -67.754157 -118.37369 C -64.806499 -119.28066 -61.915588 -119.73381 -59.081302 -119.73381 z M -90.796678 -101.28274 C -88.812678 -101.28274 -87.3389 -100.68772 -86.375243 -99.497319 C -85.3549 -98.363604 -84.845104 -96.776539 -84.845104 -94.735852 C -84.845104 -92.695166 -85.3549 -91.107584 -86.375243 -89.973869 C -87.3389 -88.840154 -88.812678 -88.273198 -90.796678 -88.273198 C -92.780679 -88.273198 -94.283037 -88.840154 -95.30338 -89.973869 C -96.267038 -91.16427 -96.74877 -92.751852 -96.74877 -94.735852 C -96.74877 -96.833225 -96.267038 -98.448354 -95.30338 -99.582068 C -94.283037 -100.71578 -92.780679 -101.28274 -90.796678 -101.28274 z M -126.42396 -89.293807 C -128.80476 -89.293807 -131.38387 -88.330343 -134.16147 -86.403028 L -134.16147 -85.297669 C -134.16147 -79.118924 -133.48123 -74.583787 -132.12077 -71.692814 C -130.76031 -68.801842 -128.60629 -67.356645 -125.65863 -67.356645 C -123.22115 -67.356645 -121.35034 -68.291529 -120.04657 -70.162159 C -118.7428 -72.032788 -118.09114 -74.697123 -118.09114 -78.154952 C -118.09114 -81.669468 -118.82803 -84.390447 -120.30185 -86.317762 C -121.719 -88.301762 -123.75973 -89.293807 -126.42396 -89.293807 z M -90.796678 -74.498845 C -88.812678 -74.498845 -87.3389 -73.903824 -86.375243 -72.713424 C -85.3549 -71.579709 -84.845104 -69.992127 -84.845104 -67.951441 C -84.845104 -65.910754 -85.3549 -64.323689 -86.375243 -63.189974 C -87.3389 -62.05626 -88.812678 -61.489303 -90.796678 -61.489303 C -92.780679 -61.489303 -94.283037 -62.05626 -95.30338 -63.189974 C -96.267038 -64.380375 -96.74877 -65.96744 -96.74877 -67.951441 C -96.74877 -70.048813 -96.267038 -71.664459 -95.30338 -72.798173 C -94.283037 -73.931888 -92.780679 -74.498845 -90.796678 -74.498845 z " /></g></svg>
