<?xml version="1.0" encoding="UTF-8" standalone="no"?>
<!-- Created with Inkscape (http://www.inkscape.org/) -->

<svg
   width="172.6701mm"
   height="172.6701mm"
   viewBox="0 0 172.6701 172.6701"
   version="1.1"
   id="svg1"
   xml:space="preserve"
   xmlns="http://www.w3.org/2000/svg"
   xmlns:svg="http://www.w3.org/2000/svg"><defs
     id="defs1" /><g
     id="layer1"
     transform="translate(157.25102,198.81012)"><path
       id="path5"
       style="fill:#ffffff;fill-opacity:1;stroke-width:0.805188;stroke-linecap:round;stroke-linejoin:round"
       d="M -2.0863309 -198.17657 L -10.088943 -183.11289 L -10.930235 -165.68398 L -19.198981 -165.68398 L -11.423229 -155.47426 L -12.166336 -140.07934 C -28.353216 -157.12094 -50.823548 -166.77435 -74.327399 -166.78417 C -103.64471 -166.77397 -130.92652 -151.79225 -146.66717 -127.05894 L -157.25102 -127.05894 L -149.61996 -115.86014 L -157.25102 -26.140039 L -8.5138455 -26.140039 L 15.419061 -26.140039 L 8.0799737 -154.80195 L 15.419061 -165.68398 L 7.4593397 -165.68398 L 6.4490654 -183.39297 L -2.0863309 -198.17657 z M -83.43072 -192.21621 C -85.584619 -189.65499 -86.77489 -186.4211 -86.795372 -183.07465 C -86.842092 -175.15518 -80.459903 -168.69733 -72.540428 -168.65072 C -64.621155 -168.60402 -58.163395 -174.98588 -58.116503 -182.90515 C -58.102813 -186.26049 -59.266203 -189.5144 -61.404157 -192.10045 C -60.83125 -190.6836 -60.536835 -189.16959 -60.537027 -187.64129 C -60.575787 -181.07411 -65.930869 -175.78172 -72.498054 -175.82031 C -79.065241 -175.85911 -84.357627 -181.21415 -84.319038 -187.78134 C -84.309338 -189.30285 -84.007827 -190.80837 -83.43072 -192.21621 z M -59.973754 -120.07436 C -55.438895 -119.84761 -51.754451 -118.85557 -48.920165 -117.09831 L -69.157172 -83.767013 L -56.147631 -83.767013 L -55.297553 -97.626632 C -53.48361 -97.626632 -52.179764 -97.995076 -51.386164 -98.731991 C -50.535878 -99.468905 -49.883697 -100.71611 -49.430211 -102.47336 L -44.583995 -102.47336 L -44.668745 -83.341716 C -42.514687 -82.718173 -39.793708 -82.066508 -36.505935 -81.38628 L -36.931232 -77.304875 L -45.094042 -77.304875 L -45.094042 -62.084615 L -56.147631 -62.084615 L -56.147631 -77.304875 L -80.720808 -77.304875 L -81.401386 -80.36567 L -59.973754 -120.07436 z M -11.762743 -119.64906 C -5.1305118 -119.64906 -0.05699879 -117.15466 3.4575168 -112.16631 C 7.0287181 -107.23465 8.8142958 -100.06428 8.8142958 -90.654448 C 8.8142958 -81.244616 7.0287181 -74.017081 3.4575168 -68.97205 C -0.05699879 -63.983706 -5.1305118 -61.489303 -11.762743 -61.489303 C -18.394974 -61.489303 -23.49655 -63.983706 -27.067752 -68.97205 C -30.638953 -74.017081 -32.424531 -81.244616 -32.424531 -90.654448 C -32.424531 -100.00759 -30.638953 -107.17797 -27.067752 -112.16631 C -23.49655 -117.15466 -18.394974 -119.64906 -11.762743 -119.64906 z M -140.32595 -119.05375 L -136.07453 -118.969 C -130.06585 -118.85563 -126.89172 -118.79847 -126.5516 -118.79847 L -114.4774 -118.969 L -112.0114 -117.18306 L -112.77673 -110.72092 L -133.86382 -110.72092 L -135.05444 -96.521273 C -132.10678 -97.258188 -129.44245 -97.626632 -127.06165 -97.626632 C -121.44976 -97.626632 -116.88656 -96.124274 -113.37204 -93.11993 C -109.80084 -90.172272 -108.01527 -85.836165 -108.01527 -80.110905 C -108.01527 -76.539704 -108.86544 -73.336993 -110.56601 -70.502706 C -112.2099 -67.66842 -114.59102 -65.429173 -117.70873 -63.785287 C -120.82645 -62.198086 -124.51089 -61.404554 -128.76232 -61.404554 C -132.22015 -61.404554 -135.36622 -61.886286 -138.2005 -62.849943 C -140.9781 -63.813601 -143.16019 -65.14551 -144.74739 -66.846082 C -146.33459 -68.60334 -147.12864 -70.559366 -147.12864 -72.713424 C -147.12864 -74.980853 -146.50504 -76.709787 -145.25795 -77.900188 C -144.01087 -79.147274 -142.47993 -79.770358 -140.66599 -79.770358 C -139.64564 -79.770358 -138.62553 -79.572362 -137.60519 -79.175562 C -136.52816 -78.778762 -135.5647 -78.211805 -134.71441 -77.474891 C -135.22458 -76.28449 -135.47974 -75.037289 -135.47974 -73.733517 C -135.47974 -71.862888 -134.94085 -70.332466 -133.86382 -69.142066 C -132.7301 -67.951665 -131.02975 -67.356645 -128.76232 -67.356645 C -123.6606 -67.356645 -121.10956 -71.608045 -121.10956 -80.110905 C -121.10956 -84.135593 -121.90309 -87.054567 -123.49029 -88.86851 C -125.07749 -90.73914 -127.20345 -91.674541 -129.86768 -91.674541 C -131.51156 -91.674541 -133.26856 -91.36274 -135.13919 -90.739197 C -137.00982 -90.115654 -138.85204 -89.236897 -140.66599 -88.103182 L -145.3427 -92.609884 L -143.13199 -116.75776 L -140.32595 -119.05375 z M -11.762743 -115.31237 C -14.653715 -115.31237 -16.751093 -113.41351 -18.054865 -109.61556 C -19.301951 -105.81762 -19.925552 -99.497422 -19.925552 -90.654448 C -19.925552 -81.868159 -19.301951 -75.576025 -18.054865 -71.778081 C -16.751093 -68.036822 -14.653715 -66.16602 -11.762743 -66.16602 C -8.8717703 -66.16602 -6.8029727 -68.036822 -5.5558865 -71.778081 C -4.2521146 -75.576025 -3.5999336 -81.868159 -3.5999336 -90.654448 C -3.5999336 -99.440737 -4.2521146 -105.73287 -5.5558865 -109.53081 C -6.8029727 -113.38544 -8.8717703 -115.31237 -11.762743 -115.31237 z M -92.624991 -101.28274 C -90.64099 -101.28274 -89.167212 -100.68772 -88.203555 -99.497319 C -87.183212 -98.363604 -86.672899 -96.776539 -86.672899 -94.735852 C -86.672899 -92.695166 -87.183212 -91.107584 -88.203555 -89.973869 C -89.167212 -88.840154 -90.64099 -88.273198 -92.624991 -88.273198 C -94.608991 -88.273198 -96.111349 -88.840154 -97.131692 -89.973869 C -98.09535 -91.16427 -98.577082 -92.751852 -98.577082 -94.735852 C -98.577082 -96.833225 -98.09535 -98.448354 -97.131692 -99.582068 C -96.111349 -100.71578 -94.608991 -101.28274 -92.624991 -101.28274 z M -92.624991 -74.498845 C -90.64099 -74.498845 -89.167212 -73.903824 -88.203555 -72.713424 C -87.183212 -71.579709 -86.672899 -69.992127 -86.672899 -67.951441 C -86.672899 -65.910754 -87.183212 -64.323689 -88.203555 -63.189974 C -89.167212 -62.05626 -90.64099 -61.489303 -92.624991 -61.489303 C -94.608991 -61.489303 -96.111349 -62.05626 -97.131692 -63.189974 C -98.09535 -64.380375 -98.577082 -65.96744 -98.577082 -67.951441 C -98.577082 -70.048813 -98.09535 -71.664459 -97.131692 -72.798173 C -96.111349 -73.931888 -94.608991 -74.498845 -92.624991 -74.498845 z " /></g></svg>
