<?xml version="1.0" encoding="UTF-8" standalone="no"?>
<!-- Created with Inkscape (http://www.inkscape.org/) -->

<svg
   width="172.6701mm"
   height="172.6701mm"
   viewBox="0 0 172.6701 172.6701"
   version="1.1"
   id="svg1"
   xml:space="preserve"
   xmlns="http://www.w3.org/2000/svg"
   xmlns:svg="http://www.w3.org/2000/svg"><defs
     id="defs1" /><g
     id="layer1"
     transform="translate(157.25102,198.81012)"><path
       id="path5"
       style="fill:#ffffff;fill-opacity:1;stroke-width:0.805188;stroke-linecap:round;stroke-linejoin:round"
       d="M -2.0863309 -198.17657 L -10.088943 -183.11289 L -10.930235 -165.68398 L -19.198981 -165.68398 L -11.423229 -155.47426 L -12.166336 -140.07934 C -28.353216 -157.12094 -50.823548 -166.77435 -74.327399 -166.78417 C -103.64471 -166.77397 -130.92652 -151.79225 -146.66717 -127.05894 L -157.25102 -127.05894 L -149.61996 -115.86014 L -157.25102 -26.140039 L -8.5138455 -26.140039 L 15.419061 -26.140039 L 8.0799737 -154.80195 L 15.419061 -165.68398 L 7.4593397 -165.68398 L 6.4490654 -183.39297 L -2.0863309 -198.17657 z M -83.43072 -192.21621 C -85.584619 -189.65499 -86.77489 -186.4211 -86.795372 -183.07465 C -86.842092 -175.15518 -80.459903 -168.69733 -72.540428 -168.65072 C -64.621155 -168.60402 -58.163395 -174.98588 -58.116503 -182.90515 C -58.102813 -186.26049 -59.266203 -189.5144 -61.404157 -192.10045 C -60.83125 -190.6836 -60.536835 -189.16959 -60.537027 -187.64129 C -60.575787 -181.07411 -65.930869 -175.78172 -72.498054 -175.82031 C -79.065241 -175.85911 -84.357627 -181.21415 -84.319038 -187.78134 C -84.309338 -189.30285 -84.007827 -190.80837 -83.43072 -192.21621 z M -124.97857 -119.73381 C -119.13994 -119.73381 -114.49152 -118.28861 -111.03369 -115.39764 C -107.57586 -112.56335 -105.84692 -108.56711 -105.84692 -103.40871 C -105.84692 -98.873849 -107.57586 -94.026912 -111.03369 -88.86851 C -114.49152 -83.766794 -120.18863 -77.616529 -128.12463 -70.41744 L -105.25161 -70.41744 L -105.25161 -62.084615 L -143.76967 -62.084615 L -143.76967 -67.016097 C -137.47756 -73.081471 -132.57449 -78.268272 -129.05998 -82.576388 C -125.54546 -86.884504 -123.02299 -90.852684 -121.49248 -94.480571 C -119.90528 -98.108458 -119.11123 -101.84955 -119.11123 -105.70418 C -119.11123 -111.82623 -121.15196 -114.88759 -125.23334 -114.88759 C -127.04728 -114.88759 -128.52106 -114.0369 -129.65477 -112.33633 C -130.78849 -110.69244 -131.35544 -108.65171 -131.35544 -106.21422 C -131.35544 -104.51365 -130.76042 -102.89852 -129.57002 -101.36801 C -130.53368 -100.46103 -131.63901 -99.752209 -132.8861 -99.242037 C -134.0765 -98.731866 -135.26706 -98.476709 -136.45746 -98.476709 C -138.49814 -98.476709 -140.1985 -99.10031 -141.55895 -100.3474 C -142.91941 -101.65117 -143.59966 -103.52197 -143.59966 -105.95946 C -143.59966 -108.567 -142.83419 -110.91953 -141.30367 -113.01691 C -139.77316 -115.11428 -137.61914 -116.75799 -134.84154 -117.94839 C -132.00725 -119.13879 -128.71983 -119.73381 -124.97857 -119.73381 z M -69.79486 -119.05375 L -65.543439 -118.969 C -59.534752 -118.85563 -56.360104 -118.79847 -56.01999 -118.79847 L -43.946308 -118.969 L -41.480309 -117.18306 L -42.245637 -110.72092 L -63.332722 -110.72092 L -64.52283 -96.521273 C -61.575172 -97.258188 -58.911354 -97.626632 -56.530553 -97.626632 C -50.918665 -97.626632 -46.355465 -96.124274 -42.840949 -93.11993 C -39.269748 -90.172272 -37.48417 -85.836165 -37.48417 -80.110905 C -37.48417 -76.539704 -38.334347 -73.336993 -40.034919 -70.502706 C -41.678805 -67.66842 -44.059403 -65.429173 -47.177119 -63.785287 C -50.294834 -62.198086 -53.979277 -61.404554 -58.230708 -61.404554 C -61.688537 -61.404554 -64.834604 -61.886286 -67.668891 -62.849943 C -70.446492 -63.813601 -72.629094 -65.14551 -74.216295 -66.846082 C -75.803496 -68.60334 -76.597028 -70.559366 -76.597028 -72.713424 C -76.597028 -74.980853 -75.973428 -76.709787 -74.726341 -77.900188 C -73.479255 -79.147274 -71.948834 -79.770358 -70.13489 -79.770358 C -69.114547 -79.770358 -68.094439 -79.572362 -67.074095 -79.175562 C -65.997066 -78.778762 -65.033085 -78.211805 -64.182799 -77.474891 C -64.692971 -76.28449 -64.948127 -75.037289 -64.948127 -73.733517 C -64.948127 -71.862888 -64.409751 -70.332466 -63.332722 -69.142066 C -62.199007 -67.951665 -60.498137 -67.356645 -58.230708 -67.356645 C -53.128991 -67.356645 -50.578461 -71.608045 -50.578461 -80.110905 C -50.578461 -84.135593 -51.371994 -87.054567 -52.959195 -88.86851 C -54.546395 -90.73914 -56.671837 -91.674541 -59.336066 -91.674541 C -60.979953 -91.674541 -62.737467 -91.36274 -64.608096 -90.739197 C -66.478725 -90.115654 -68.320947 -89.236897 -70.13489 -88.103182 L -74.811608 -92.609884 L -72.60089 -116.75776 L -69.79486 -119.05375 z M -32.382156 -118.88373 L -28.216002 -118.88373 C -26.061944 -118.82705 -21.356875 -118.79847 -14.101101 -118.79847 C -6.5618986 -118.79847 -1.6583176 -118.82705 0.60911184 -118.88373 L 4.6905165 -118.88373 L 6.3906711 -115.22762 C 5.3136421 -113.52705 3.2729081 -109.84261 0.26856415 -104.17404 C -2.7357798 -98.505463 -5.5700465 -92.496548 -8.234276 -86.147746 C -10.898506 -79.798944 -12.230415 -74.838719 -12.230415 -71.267517 C -12.230415 -68.433231 -11.23837 -66.307789 -9.2543688 -64.890646 C -11.181684 -62.566531 -13.647506 -61.404554 -16.65185 -61.404554 C -19.429451 -61.404554 -21.583473 -62.169506 -23.113988 -63.700021 C -24.644503 -65.230536 -25.409972 -67.356494 -25.409972 -70.077409 C -25.409972 -73.478553 -24.587859 -77.077772 -22.943972 -80.875717 C -21.300086 -84.730347 -18.352532 -89.945728 -14.101101 -96.521273 L -4.0676053 -111.9963 L -23.454019 -111.9963 C -24.247619 -109.44544 -24.729351 -106.44124 -24.899409 -102.98341 C -25.919752 -102.81335 -26.968441 -102.72813 -28.04547 -102.72813 C -29.179185 -102.72813 -30.285034 -102.81335 -31.362063 -102.98341 L -33.742797 -117.60836 L -32.382156 -118.88373 z M -90.116617 -101.28274 C -88.132616 -101.28274 -86.658838 -100.68772 -85.695181 -99.497319 C -84.674838 -98.363604 -84.164525 -96.776539 -84.164525 -94.735852 C -84.164525 -92.695166 -84.674838 -91.107584 -85.695181 -89.973869 C -86.658838 -88.840154 -88.132616 -88.273198 -90.116617 -88.273198 C -92.100617 -88.273198 -93.602975 -88.840154 -94.623318 -89.973869 C -95.586976 -91.16427 -96.068708 -92.751852 -96.068708 -94.735852 C -96.068708 -96.833225 -95.586976 -98.448354 -94.623318 -99.582068 C -93.602975 -100.71578 -92.100617 -101.28274 -90.116617 -101.28274 z M -90.116617 -74.498845 C -88.132616 -74.498845 -86.658838 -73.903824 -85.695181 -72.713424 C -84.674838 -71.579709 -84.164525 -69.992127 -84.164525 -67.951441 C -84.164525 -65.910754 -84.674838 -64.323689 -85.695181 -63.189974 C -86.658838 -62.05626 -88.132616 -61.489303 -90.116617 -61.489303 C -92.100617 -61.489303 -93.602975 -62.05626 -94.623318 -63.189974 C -95.586976 -64.380375 -96.068708 -65.96744 -96.068708 -67.951441 C -96.068708 -70.048813 -95.586976 -71.664459 -94.623318 -72.798173 C -93.602975 -73.931888 -92.100617 -74.498845 -90.116617 -74.498845 z " /></g></svg>
