<?xml version="1.0" encoding="UTF-8" standalone="no"?>
<!-- Created with Inkscape (http://www.inkscape.org/) -->

<svg
   width="172.6701mm"
   height="172.6701mm"
   viewBox="0 0 172.6701 172.6701"
   version="1.1"
   id="svg1"
   xml:space="preserve"
   xmlns="http://www.w3.org/2000/svg"
   xmlns:svg="http://www.w3.org/2000/svg"><defs
     id="defs1" /><g
     id="layer1"
     transform="translate(157.25102,198.81012)"><path
       id="path5"
       style="fill:#ffffff;fill-opacity:1;stroke-width:0.805188;stroke-linecap:round;stroke-linejoin:round"
       d="M -2.0863309 -198.17657 L -10.088943 -183.11289 L -10.930235 -165.68398 L -19.198981 -165.68398 L -11.423229 -155.47426 L -12.166336 -140.07934 C -28.353216 -157.12094 -50.823548 -166.77435 -74.327399 -166.78417 C -103.64471 -166.77397 -130.92652 -151.79225 -146.66717 -127.05894 L -157.25102 -127.05894 L -149.61996 -115.86014 L -157.25102 -26.140039 L -8.5138455 -26.140039 L 15.419061 -26.140039 L 8.0799737 -154.80195 L 15.419061 -165.68398 L 7.4593397 -165.68398 L 6.4490654 -183.39297 L -2.0863309 -198.17657 z M -83.43072 -192.21621 C -85.584619 -189.65499 -86.77489 -186.4211 -86.795372 -183.07465 C -86.842092 -175.15518 -80.459903 -168.69733 -72.540428 -168.65072 C -64.621155 -168.60402 -58.163395 -174.98588 -58.116503 -182.90515 C -58.102813 -186.26049 -59.266203 -189.5144 -61.404157 -192.10045 C -60.83125 -190.6836 -60.536835 -189.16959 -60.537027 -187.64129 C -60.575787 -181.07411 -65.930869 -175.78172 -72.498054 -175.82031 C -79.065241 -175.85911 -84.357627 -181.21415 -84.319038 -187.78134 C -84.309338 -189.30285 -84.007827 -190.80837 -83.43072 -192.21621 z M -57.38063 -120.07436 C -52.845771 -119.84761 -49.161328 -118.85557 -46.327041 -117.09831 L -66.563532 -83.767013 L -53.554507 -83.767013 L -52.703913 -97.626632 C -50.88997 -97.626632 -49.586124 -97.995076 -48.792524 -98.731991 C -47.942238 -99.468905 -47.290574 -100.71611 -46.837088 -102.47336 L -41.990355 -102.47336 L -42.075621 -83.341716 C -39.921563 -82.718173 -37.200585 -82.066508 -33.912812 -81.38628 L -34.337592 -77.304875 L -42.500402 -77.304875 L -42.500402 -62.084615 L -53.554507 -62.084615 L -53.554507 -77.304875 L -78.127684 -77.304875 L -78.807746 -80.36567 L -57.38063 -120.07436 z M -126.59398 -119.81908 C -120.64197 -119.81908 -115.90884 -118.54381 -112.39433 -115.99295 C -108.87981 -113.44209 -107.1223 -110.01229 -107.1223 -105.70418 C -107.1223 -103.38006 -107.97247 -101.05611 -109.67305 -98.731991 C -111.37362 -96.407876 -113.61286 -94.50901 -116.39046 -93.035181 C -112.87595 -91.334609 -110.12691 -89.350519 -108.14291 -87.08309 C -106.10222 -84.81566 -105.08159 -81.896169 -105.08159 -78.324968 C -105.08159 -73.166566 -106.9524 -69.057034 -110.69366 -65.996005 C -114.43491 -62.991661 -119.47985 -61.489303 -125.82865 -61.489303 C -132.80099 -61.489303 -138.18631 -62.878373 -141.98425 -65.655974 C -145.72551 -68.433575 -147.5958 -72.401238 -147.5958 -77.55964 C -147.5958 -80.223869 -146.74562 -82.86014 -145.04505 -85.467684 C -143.34447 -88.131914 -140.96388 -90.483931 -137.90285 -92.524618 C -140.45371 -93.941761 -142.4378 -95.642631 -143.85494 -97.626632 C -145.27208 -99.610633 -145.98039 -102.07646 -145.98039 -105.02411 C -145.98039 -109.55897 -144.22339 -113.15871 -140.70888 -115.82294 C -137.19436 -118.48717 -132.48929 -119.81908 -126.59398 -119.81908 z M -11.295071 -119.73381 C -7.6104983 -119.73381 -4.3511433 -119.11073 -1.5168566 -117.86364 C 1.3174302 -116.67324 3.5280961 -114.97237 5.1152967 -112.76163 C 6.7024973 -110.60757 7.49603 -108.11368 7.49603 -105.27939 C 7.49603 -102.10499 6.560629 -99.384015 4.6899997 -97.116586 C 2.8193704 -94.849156 0.042264531 -93.120223 -3.6423082 -91.929822 C 1.005922 -90.909479 4.265277 -89.237189 6.1359063 -86.913074 C 8.0065355 -84.588959 8.9414198 -81.442892 8.9414198 -77.474891 C 8.9414198 -74.017061 7.8932475 -71.069506 5.7958753 -68.632019 C 3.7551889 -66.194533 1.0908542 -64.380375 -2.1969184 -63.189974 C -5.4846911 -61.999574 -8.8859144 -61.404554 -12.40043 -61.404554 C -17.502146 -61.404554 -21.838771 -62.453243 -25.409972 -64.550615 C -28.924487 -66.647987 -30.681485 -69.510317 -30.681485 -73.138204 C -30.681485 -75.235577 -30.057884 -76.851222 -28.810798 -77.984937 C -27.563712 -79.175337 -26.005227 -79.770358 -24.134597 -79.770358 C -22.207282 -79.770358 -20.251256 -79.005405 -18.267255 -77.474891 C -18.777427 -76.397862 -19.032583 -75.094016 -19.032583 -73.563501 C -19.032583 -71.749558 -18.494207 -70.275781 -17.417178 -69.142066 C -16.283463 -68.008351 -14.611174 -67.441394 -12.40043 -67.441394 C -7.5254568 -67.441394 -5.0882148 -70.814037 -5.0882148 -77.55964 C -5.0882148 -81.244213 -6.2782554 -84.10706 -8.6590563 -86.147746 C -10.983171 -88.188433 -14.299687 -89.208541 -18.607803 -89.208541 L -18.607803 -94.480571 C -10.275 -95.1608 -6.1083076 -98.760535 -6.1083076 -105.27939 C -6.1083076 -108.56717 -6.6186203 -110.97583 -7.6389635 -112.50634 C -8.6593068 -114.09354 -10.04786 -114.88759 -11.805117 -114.88759 C -13.90249 -114.88759 -15.490072 -114.15071 -16.567101 -112.67688 C -17.587444 -111.20305 -18.09724 -109.41747 -18.09724 -107.3201 C -18.09724 -105.44947 -17.700732 -103.77718 -16.907132 -102.30335 C -18.494332 -100.60278 -20.535066 -99.752084 -23.029239 -99.752084 C -25.296668 -99.752084 -27.053665 -100.43233 -28.300751 -101.79279 C -29.547838 -103.15324 -30.171438 -104.91076 -30.171438 -107.06482 C -30.171438 -109.8991 -29.207974 -112.25164 -27.280659 -114.12227 C -25.296658 -116.04958 -22.858899 -117.46671 -19.967927 -118.37369 C -17.020269 -119.28066 -14.129358 -119.73381 -11.295071 -119.73381 z M -126.59398 -113.78224 C -128.86141 -113.78224 -130.64698 -113.04535 -131.95076 -111.57152 C -133.25453 -110.15437 -133.90619 -108.22693 -133.90619 -105.78944 C -133.90619 -103.63538 -133.0846 -101.84981 -131.44071 -100.43266 C -129.74014 -99.072205 -127.27431 -97.711715 -124.04323 -96.351258 C -122.62608 -97.314915 -121.49217 -98.646824 -120.64189 -100.3474 C -119.7916 -102.04797 -119.36651 -103.86213 -119.36651 -105.78944 C -119.36651 -108.22693 -120.04676 -110.15437 -121.40721 -111.57152 C -122.71098 -113.04535 -124.43992 -113.78224 -126.59398 -113.78224 z M -90.031867 -101.28274 C -88.047866 -101.28274 -86.573572 -100.68772 -85.609915 -99.497319 C -84.589572 -98.363604 -84.079776 -96.776539 -84.079776 -94.735852 C -84.079776 -92.695166 -84.589572 -91.107584 -85.609915 -89.973869 C -86.573572 -88.840154 -88.047866 -88.273198 -90.031867 -88.273198 C -92.015868 -88.273198 -93.517709 -88.840154 -94.538052 -89.973869 C -95.50171 -91.16427 -95.983442 -92.751852 -95.983442 -94.735852 C -95.983442 -96.833225 -95.50171 -98.448354 -94.538052 -99.582068 C -93.517709 -100.71578 -92.015868 -101.28274 -90.031867 -101.28274 z M -130.08007 -89.038526 C -131.78064 -87.678068 -133.02784 -86.119583 -133.82144 -84.362325 C -134.61504 -82.605068 -135.01155 -80.50769 -135.01155 -78.070203 C -135.01155 -74.725745 -134.18995 -72.089474 -132.54607 -70.162159 C -130.90218 -68.291529 -128.66294 -67.356645 -125.82865 -67.356645 C -123.05105 -67.356645 -120.89703 -68.291529 -119.36651 -70.162159 C -117.77931 -72.032788 -116.98578 -74.640479 -116.98578 -77.984937 C -116.98578 -79.855566 -117.5808 -81.442631 -118.7712 -82.746403 C -119.90491 -84.106861 -121.35063 -85.212194 -123.10788 -86.06248 C -124.86514 -86.969452 -127.1891 -87.961497 -130.08007 -89.038526 z M -90.031867 -74.498845 C -88.047866 -74.498845 -86.573572 -73.903824 -85.609915 -72.713424 C -84.589572 -71.579709 -84.079776 -69.992127 -84.079776 -67.951441 C -84.079776 -65.910754 -84.589572 -64.323689 -85.609915 -63.189974 C -86.573572 -62.05626 -88.047866 -61.489303 -90.031867 -61.489303 C -92.015868 -61.489303 -93.517709 -62.05626 -94.538052 -63.189974 C -95.50171 -64.380375 -95.983442 -65.96744 -95.983442 -67.951441 C -95.983442 -70.048813 -95.50171 -71.664459 -94.538052 -72.798173 C -93.517709 -73.931888 -92.015868 -74.498845 -90.031867 -74.498845 z " /></g></svg>
