<?xml version="1.0" encoding="UTF-8" standalone="no"?>
<!-- Created with Inkscape (http://www.inkscape.org/) -->

<svg
   width="172.6701mm"
   height="172.6701mm"
   viewBox="0 0 172.6701 172.6701"
   version="1.1"
   id="svg1"
   xml:space="preserve"
   xmlns="http://www.w3.org/2000/svg"
   xmlns:svg="http://www.w3.org/2000/svg"><defs
     id="defs1" /><g
     id="layer1"
     transform="translate(157.25102,198.81012)"><path
       id="path5"
       style="fill:#ffffff;fill-opacity:1;stroke-width:0.805188;stroke-linecap:round;stroke-linejoin:round"
       d="M -2.0863309 -198.17657 L -10.088943 -183.11289 L -10.930235 -165.68398 L -19.198981 -165.68398 L -11.423229 -155.47426 L -12.166336 -140.07934 C -28.353216 -157.12094 -50.823548 -166.77435 -74.327399 -166.78417 C -103.64471 -166.77397 -130.92652 -151.79225 -146.66717 -127.05894 L -157.25102 -127.05894 L -149.61996 -115.86014 L -157.25102 -26.140039 L -8.5138455 -26.140039 L 15.419061 -26.140039 L 8.0799737 -154.80195 L 15.419061 -165.68398 L 7.4593397 -165.68398 L 6.4490654 -183.39297 L -2.0863309 -198.17657 z M -83.43072 -192.21621 C -85.584619 -189.65499 -86.77489 -186.4211 -86.795372 -183.07465 C -86.842092 -175.15518 -80.459903 -168.69733 -72.540428 -168.65072 C -64.621155 -168.60402 -58.163395 -174.98588 -58.116503 -182.90515 C -58.102813 -186.26049 -59.266203 -189.5144 -61.404157 -192.10045 C -60.83125 -190.6836 -60.536835 -189.16959 -60.537027 -187.64129 C -60.575787 -181.07411 -65.930869 -175.78172 -72.498054 -175.82031 C -79.065241 -175.85911 -84.357627 -181.21415 -84.319038 -187.78134 C -84.309338 -189.30285 -84.007827 -190.80837 -83.43072 -192.21621 z M -87.626329 -136.45527 L -84.076675 -129.06037 C -103.99387 -120.48217 -115.97348 -107.2696 -120.01608 -89.422998 C -114.29728 -92.183798 -108.87451 -93.564348 -103.74731 -93.564348 C -93.887309 -93.564348 -86.147221 -90.902155 -80.527021 -85.577755 C -74.808221 -80.253355 -71.948733 -73.055441 -71.948733 -63.984241 C -71.948733 -58.364041 -73.476866 -53.33534 -76.533466 -48.89834 C -79.491466 -44.46134 -83.682309 -41.010484 -89.105309 -38.545484 C -94.429709 -36.080484 -100.54276 -34.848035 -107.44476 -34.848035 C -119.17816 -34.848035 -128.19989 -38.101597 -134.51029 -44.609196 C -140.72209 -51.116796 -143.82807 -60.533119 -143.82807 -72.858118 C -143.82807 -88.338317 -139.04586 -101.5017 -129.48166 -112.3477 C -119.81886 -123.2923 -105.86733 -131.32807 -87.626329 -136.45527 z M -51.981993 -134.97629 L -44.587096 -134.8285 C -34.135496 -134.6313 -28.613815 -134.53239 -28.022215 -134.53239 L -7.0203966 -134.8285 L -2.7312527 -131.72223 L -4.0624376 -120.48208 L -40.741853 -120.48208 L -42.812527 -95.782817 C -37.685327 -97.064617 -33.051216 -97.705697 -28.910017 -97.705697 C -19.148617 -97.705697 -11.211233 -95.092699 -5.0980333 -89.866899 C 1.1137664 -84.739699 4.2197442 -77.196906 4.2197442 -67.238306 C 4.2197442 -61.026506 2.7408056 -55.455631 -0.21719432 -50.525631 C -3.0765942 -45.595631 -7.2177256 -41.700473 -12.640725 -38.841073 C -18.063725 -36.080273 -24.472976 -34.70024 -31.867976 -34.70024 C -37.882575 -34.70024 -43.354545 -35.538099 -48.284545 -37.214299 C -53.115944 -38.890499 -56.912197 -41.207813 -59.672997 -44.165813 C -62.433797 -47.222412 -63.814346 -50.624075 -63.814346 -54.370874 C -63.814346 -58.314874 -62.729481 -61.321946 -60.560281 -63.392546 C -58.391081 -65.561746 -55.728888 -66.646611 -52.573688 -66.646611 C -50.798889 -66.646611 -49.024266 -66.301215 -47.249466 -65.611015 C -45.376066 -64.920815 -43.699832 -63.934856 -42.220832 -62.653056 C -43.108232 -60.582456 -43.552017 -58.413243 -43.552017 -56.145443 C -43.552017 -52.891643 -42.615252 -50.22945 -40.741853 -48.15885 C -38.769853 -46.088251 -35.811975 -45.053097 -31.867976 -45.053097 C -22.993976 -45.053097 -18.556643 -52.448307 -18.556643 -67.238306 C -18.556643 -74.238906 -19.937193 -79.316802 -22.697993 -82.472002 C -25.458793 -85.725801 -29.156139 -87.352324 -33.790339 -87.352324 C -36.649739 -87.352324 -39.706522 -86.81015 -42.960322 -85.72555 C -46.214122 -84.64095 -49.418489 -83.112817 -52.573688 -81.140817 L -60.708076 -88.979615 L -56.862832 -130.98274 L -51.981993 -134.97629 z M -107.88866 -83.211491 C -112.02986 -83.211491 -116.51587 -81.535257 -121.34727 -78.182858 L -121.34727 -76.259978 C -121.34727 -65.512578 -120.16401 -57.624389 -117.79761 -52.595789 C -115.43121 -47.567189 -111.68467 -45.053097 -106.55747 -45.053097 C -102.31767 -45.053097 -99.063595 -46.680136 -96.795795 -49.933936 C -94.527995 -53.187736 -93.394453 -57.821847 -93.394453 -63.836446 C -93.394453 -69.949646 -94.676096 -74.682146 -97.239696 -78.034546 C -99.704696 -81.485546 -103.25446 -83.211491 -107.88866 -83.211491 z " /></g></svg>
