<?xml version="1.0" encoding="UTF-8" standalone="no"?>
<!-- Created with Inkscape (http://www.inkscape.org/) -->

<svg
   width="172.6701mm"
   height="172.6701mm"
   viewBox="0 0 172.6701 172.6701"
   version="1.1"
   id="svg1"
   xml:space="preserve"
   xmlns="http://www.w3.org/2000/svg"
   xmlns:svg="http://www.w3.org/2000/svg"><defs
     id="defs1" /><g
     id="layer1"
     transform="translate(157.25102,198.81012)"><path
       id="path5"
       style="fill:#ffffff;fill-opacity:1;stroke-width:0.805188;stroke-linecap:round;stroke-linejoin:round"
       d="M -2.0863309 -198.17657 L -10.088943 -183.11289 L -10.930235 -165.68398 L -19.198981 -165.68398 L -11.423229 -155.47426 L -12.166336 -140.07934 C -28.353216 -157.12094 -50.823548 -166.77435 -74.327399 -166.78417 C -103.64471 -166.77397 -130.92652 -151.79225 -146.66717 -127.05894 L -157.25102 -127.05894 L -149.61996 -115.86014 L -157.25102 -26.140039 L -8.5138455 -26.140039 L 15.419061 -26.140039 L 8.0799737 -154.80195 L 15.419061 -165.68398 L 7.4593397 -165.68398 L 6.4490654 -183.39297 L -2.0863309 -198.17657 z M -83.43072 -192.21621 C -85.584619 -189.65499 -86.77489 -186.4211 -86.795372 -183.07465 C -86.842092 -175.15518 -80.459903 -168.69733 -72.540428 -168.65072 C -64.621155 -168.60402 -58.163395 -174.98588 -58.116503 -182.90515 C -58.102813 -186.26049 -59.266203 -189.5144 -61.404157 -192.10045 C -60.83125 -190.6836 -60.536835 -189.16959 -60.537027 -187.64129 C -60.575787 -181.07411 -65.930869 -175.78172 -72.498054 -175.82031 C -79.065241 -175.85911 -84.357627 -181.21415 -84.319038 -187.78134 C -84.309338 -189.30285 -84.007827 -190.80837 -83.43072 -192.21621 z M -122.17254 -120.07436 C -117.63768 -119.84761 -113.95324 -118.85557 -111.11895 -117.09831 L -131.35544 -83.767013 L -118.34642 -83.767013 L -117.49582 -97.626632 C -115.68188 -97.626632 -114.37804 -97.995076 -113.58443 -98.731991 C -112.73415 -99.468905 -112.08248 -100.71611 -111.629 -102.47336 L -106.78227 -102.47336 L -106.86753 -83.341716 C -104.71347 -82.718173 -101.9925 -82.066508 -98.704723 -81.38628 L -99.129503 -77.304875 L -107.29231 -77.304875 L -107.29231 -62.084615 L -118.34642 -62.084615 L -118.34642 -77.304875 L -142.9196 -77.304875 L -143.59966 -80.36567 L -122.17254 -120.07436 z M -49.387836 -119.13901 L -46.581806 -117.86364 L -46.581806 -68.716769 C -45.504777 -68.093226 -43.804424 -67.526269 -41.480309 -67.016097 C -39.156194 -66.562611 -37.313972 -66.279392 -35.953514 -66.16602 L -36.208796 -62.084615 L -70.900218 -62.084615 L -70.730203 -66.16602 C -65.685173 -66.732877 -61.83028 -67.583054 -59.166051 -68.716769 L -59.166051 -109.44555 L -70.560187 -109.44555 L -70.560187 -114.37703 C -66.9323 -114.66046 -63.190696 -115.19935 -59.336066 -115.99295 C -55.481436 -116.84324 -52.165437 -117.89193 -49.387836 -119.13901 z M -10.444994 -119.13901 L -7.6389635 -117.86364 L -7.6389635 -68.716769 C -6.5619346 -68.093226 -4.8610645 -67.526269 -2.5369494 -67.016097 C -0.21283422 -66.562611 1.6293874 -66.279392 2.9898451 -66.16602 L 2.7345635 -62.084615 L -31.956859 -62.084615 L -31.786844 -66.16602 C -26.741813 -66.732877 -22.887438 -67.583054 -20.223208 -68.716769 L -20.223208 -109.44555 L -31.616828 -109.44555 L -31.616828 -114.37703 C -27.988941 -114.66046 -24.247854 -115.19935 -20.393224 -115.99295 C -16.538594 -116.84324 -13.222595 -117.89193 -10.444994 -119.13901 z M -83.99451 -101.28274 C -82.010509 -101.28274 -80.536732 -100.68772 -79.573074 -99.497319 C -78.552731 -98.363604 -78.042418 -96.776539 -78.042418 -94.735852 C -78.042418 -92.695166 -78.552731 -91.107584 -79.573074 -89.973869 C -80.536732 -88.840154 -82.010509 -88.273198 -83.99451 -88.273198 C -85.97851 -88.273198 -87.480868 -88.840154 -88.501211 -89.973869 C -89.464869 -91.16427 -89.946601 -92.751852 -89.946601 -94.735852 C -89.946601 -96.833225 -89.464869 -98.448354 -88.501211 -99.582068 C -87.480868 -100.71578 -85.97851 -101.28274 -83.99451 -101.28274 z M -83.99451 -74.498845 C -82.010509 -74.498845 -80.536732 -73.903824 -79.573074 -72.713424 C -78.552731 -71.579709 -78.042418 -69.992127 -78.042418 -67.951441 C -78.042418 -65.910754 -78.552731 -64.323689 -79.573074 -63.189974 C -80.536732 -62.05626 -82.010509 -61.489303 -83.99451 -61.489303 C -85.97851 -61.489303 -87.480868 -62.05626 -88.501211 -63.189974 C -89.464869 -64.380375 -89.946601 -65.96744 -89.946601 -67.951441 C -89.946601 -70.048813 -89.464869 -71.664459 -88.501211 -72.798173 C -87.480868 -73.931888 -85.97851 -74.498845 -83.99451 -74.498845 z " /></g></svg>
