<?xml version="1.0" encoding="UTF-8" standalone="no"?>
<!-- Created with Inkscape (http://www.inkscape.org/) -->

<svg
   width="172.6701mm"
   height="172.6701mm"
   viewBox="0 0 172.6701 172.6701"
   version="1.1"
   id="svg1"
   xml:space="preserve"
   xmlns="http://www.w3.org/2000/svg"
   xmlns:svg="http://www.w3.org/2000/svg"><defs
     id="defs1" /><g
     id="layer1"
     transform="translate(157.25102,198.81012)"><path
       id="path5"
       style="fill:#ffffff;fill-opacity:1;stroke-width:0.805188;stroke-linecap:round;stroke-linejoin:round"
       d="M -2.0863309 -198.17657 L -10.088943 -183.11289 L -10.930235 -165.68398 L -19.198981 -165.68398 L -11.423229 -155.47426 L -12.166336 -140.07934 C -28.353216 -157.12094 -50.823548 -166.77435 -74.327399 -166.78417 C -103.64471 -166.77397 -130.92652 -151.79225 -146.66717 -127.05894 L -157.25102 -127.05894 L -149.61996 -115.86014 L -157.25102 -26.140039 L -8.5138455 -26.140039 L 15.419061 -26.140039 L 8.0799737 -154.80195 L 15.419061 -165.68398 L 7.4593397 -165.68398 L 6.4490654 -183.39297 L -2.0863309 -198.17657 z M -83.43072 -192.21621 C -85.584619 -189.65499 -86.77489 -186.4211 -86.795372 -183.07465 C -86.842092 -175.15518 -80.459903 -168.69733 -72.540428 -168.65072 C -64.621155 -168.60402 -58.163395 -174.98588 -58.116503 -182.90515 C -58.102813 -186.26049 -59.266203 -189.5144 -61.404157 -192.10045 C -60.83125 -190.6836 -60.536835 -189.16959 -60.537027 -187.64129 C -60.575787 -181.07411 -65.930869 -175.78172 -72.498054 -175.82031 C -79.065241 -175.85911 -84.357627 -181.21415 -84.319038 -187.78134 C -84.309338 -189.30285 -84.007827 -190.80837 -83.43072 -192.21621 z M -124.76566 -119.56379 C -118.02006 -119.56379 -112.86184 -117.69351 -109.29064 -113.95225 C -105.66275 -110.21099 -103.84859 -104.7971 -103.84859 -97.711381 C -103.84859 -88.811721 -106.62622 -81.216258 -112.18142 -74.924142 C -117.67994 -68.688711 -125.67294 -64.09693 -136.1598 -61.149272 L -138.2005 -65.400692 C -132.53193 -67.838179 -127.96873 -70.956182 -124.5109 -74.754126 C -121.05307 -78.608756 -118.75718 -83.086732 -117.62346 -88.188448 C -120.79787 -86.601248 -123.88729 -85.807715 -126.89163 -85.807715 C -132.56021 -85.807715 -137.03818 -87.338137 -140.32595 -90.399166 C -143.55704 -93.460196 -145.17269 -97.598308 -145.17269 -102.8134 C -145.17269 -106.04448 -144.32251 -108.93539 -142.62194 -111.48625 C -140.86468 -114.03711 -138.4555 -116.0212 -135.39447 -117.43834 C -132.27676 -118.85549 -128.73367 -119.56379 -124.76566 -119.56379 z M -68.647126 -119.05375 L -64.395706 -118.969 C -58.387018 -118.85563 -55.212371 -118.79847 -54.872256 -118.79847 L -42.798058 -118.969 L -40.332575 -117.18306 L -41.097386 -110.72092 L -62.184471 -110.72092 L -63.375096 -96.521273 C -60.427438 -97.258188 -57.763103 -97.626632 -55.382303 -97.626632 C -49.770415 -97.626632 -45.207214 -96.124274 -41.692699 -93.11993 C -38.121498 -90.172272 -36.33592 -85.836165 -36.33592 -80.110905 C -36.33592 -76.539704 -37.186097 -73.336993 -38.886669 -70.502706 C -40.530555 -67.66842 -42.91167 -65.429173 -46.029385 -63.785287 C -49.147101 -62.198086 -52.831544 -61.404554 -57.082974 -61.404554 C -60.540804 -61.404554 -63.686871 -61.886286 -66.521158 -62.849943 C -69.298759 -63.813601 -71.481361 -65.14551 -73.068562 -66.846082 C -74.655762 -68.60334 -75.449295 -70.559366 -75.449295 -72.713424 C -75.449295 -74.980853 -74.825694 -76.709787 -73.578608 -77.900188 C -72.331522 -79.147274 -70.8011 -79.770358 -68.987157 -79.770358 C -67.966814 -79.770358 -66.946188 -79.572362 -65.925845 -79.175562 C -64.848816 -78.778762 -63.885351 -78.211805 -63.035065 -77.474891 C -63.545237 -76.28449 -63.800393 -75.037289 -63.800393 -73.733517 C -63.800393 -71.862888 -63.2615 -70.332466 -62.184471 -69.142066 C -61.050757 -67.951665 -59.350403 -67.356645 -57.082974 -67.356645 C -51.981258 -67.356645 -49.430211 -71.608045 -49.430211 -80.110905 C -49.430211 -84.135593 -50.22426 -87.054567 -51.811461 -88.86851 C -53.398662 -90.73914 -55.524103 -91.674541 -58.188333 -91.674541 C -59.832219 -91.674541 -61.589733 -91.36274 -63.460362 -90.739197 C -65.330992 -90.115654 -67.173213 -89.236897 -68.987157 -88.103182 L -73.663357 -92.609884 L -71.452639 -116.75776 L -68.647126 -119.05375 z M -31.234423 -118.88373 L -27.067752 -118.88373 C -24.913694 -118.82705 -20.209142 -118.79847 -12.953368 -118.79847 C -5.4141651 -118.79847 -0.51058401 -118.82705 1.7568454 -118.88373 L 5.83825 -118.88373 L 7.5389214 -115.22762 C 6.4618924 -113.52705 4.4211584 -109.84261 1.4168145 -104.17404 C -1.5875295 -98.505463 -4.4217961 -92.496548 -7.0860257 -86.147746 C -9.7502552 -79.798944 -11.082681 -74.838719 -11.082681 -71.267517 C -11.082681 -68.433231 -10.090636 -66.307789 -8.1066352 -64.890646 C -10.03395 -62.566531 -12.499773 -61.404554 -15.504117 -61.404554 C -18.281718 -61.404554 -20.43574 -62.169506 -21.966254 -63.700021 C -23.496769 -65.230536 -24.261721 -67.356494 -24.261721 -70.077409 C -24.261721 -73.478553 -23.440125 -77.077772 -21.796239 -80.875717 C -20.152353 -84.730347 -17.204798 -89.945728 -12.953368 -96.521273 L -2.9198717 -111.9963 L -22.306285 -111.9963 C -23.099886 -109.44544 -23.581618 -106.44124 -23.751675 -102.98341 C -24.772018 -102.81335 -25.820707 -102.72813 -26.897736 -102.72813 C -28.031451 -102.72813 -29.136784 -102.81335 -30.213813 -102.98341 L -32.594546 -117.60836 L -31.234423 -118.88373 z M -125.27623 -113.69697 C -127.71371 -113.69697 -129.584 -112.76157 -130.88777 -110.89094 C -132.19154 -109.02031 -132.84372 -106.35597 -132.84372 -102.89814 C -132.84372 -99.383629 -132.1349 -96.634587 -130.71776 -94.650586 C -129.24393 -92.723271 -127.17513 -91.759807 -124.5109 -91.759807 C -122.18678 -91.759807 -119.60767 -92.723271 -116.77339 -94.650586 L -116.77339 -95.755945 C -116.77339 -101.93469 -117.45363 -106.46931 -118.81409 -109.36028 C -120.17455 -112.25126 -122.32857 -113.69697 -125.27623 -113.69697 z M -88.968883 -101.28274 C -86.984882 -101.28274 -85.511105 -100.68772 -84.547447 -99.497319 C -83.527104 -98.363604 -83.016791 -96.776539 -83.016791 -94.735852 C -83.016791 -92.695166 -83.527104 -91.107584 -84.547447 -89.973869 C -85.511105 -88.840154 -86.984882 -88.273198 -88.968883 -88.273198 C -90.952884 -88.273198 -92.454725 -88.840154 -93.475068 -89.973869 C -94.438725 -91.16427 -94.920974 -92.751852 -94.920974 -94.735852 C -94.920974 -96.833225 -94.438725 -98.448354 -93.475068 -99.582068 C -92.454725 -100.71578 -90.952884 -101.28274 -88.968883 -101.28274 z M -88.968883 -74.498845 C -86.984882 -74.498845 -85.511105 -73.903824 -84.547447 -72.713424 C -83.527104 -71.579709 -83.016791 -69.992127 -83.016791 -67.951441 C -83.016791 -65.910754 -83.527104 -64.323689 -84.547447 -63.189974 C -85.511105 -62.05626 -86.984882 -61.489303 -88.968883 -61.489303 C -90.952884 -61.489303 -92.454725 -62.05626 -93.475068 -63.189974 C -94.438725 -64.380375 -94.920974 -65.96744 -94.920974 -67.951441 C -94.920974 -70.048813 -94.438725 -71.664459 -93.475068 -72.798173 C -92.454725 -73.931888 -90.952884 -74.498845 -88.968883 -74.498845 z " /></g></svg>
