<?xml version="1.0" encoding="UTF-8" standalone="no"?>
<!-- Created with Inkscape (http://www.inkscape.org/) -->

<svg
   width="172.6701mm"
   height="172.6701mm"
   viewBox="0 0 172.6701 172.6701"
   version="1.1"
   id="svg1"
   xml:space="preserve"
   xmlns="http://www.w3.org/2000/svg"
   xmlns:svg="http://www.w3.org/2000/svg"><defs
     id="defs1" /><g
     id="layer1"
     transform="translate(157.25102,198.81012)"><path
       id="path5"
       style="fill:#ffffff;fill-opacity:1;stroke-width:0.805188;stroke-linecap:round;stroke-linejoin:round"
       d="M -2.0863309 -198.17657 L -10.088943 -183.11289 L -10.930235 -165.68398 L -19.198981 -165.68398 L -11.423229 -155.47426 L -12.166336 -140.07934 C -28.353216 -157.12094 -50.823548 -166.77435 -74.327399 -166.78417 C -103.64471 -166.77397 -130.92652 -151.79225 -146.66717 -127.05894 L -157.25102 -127.05894 L -149.61996 -115.86014 L -157.25102 -26.140039 L -8.5138455 -26.140039 L 15.419061 -26.140039 L 8.0799737 -154.80195 L 15.419061 -165.68398 L 7.4593397 -165.68398 L 6.4490654 -183.39297 L -2.0863309 -198.17657 z M -83.43072 -192.21621 C -85.584619 -189.65499 -86.77489 -186.4211 -86.795372 -183.07465 C -86.842092 -175.15518 -80.459903 -168.69733 -72.540428 -168.65072 C -64.621155 -168.60402 -58.163395 -174.98588 -58.116503 -182.90515 C -58.102813 -186.26049 -59.266203 -189.5144 -61.404157 -192.10045 C -60.83125 -190.6836 -60.536835 -189.16959 -60.537027 -187.64129 C -60.575787 -181.07411 -65.930869 -175.78172 -72.498054 -175.82031 C -79.065241 -175.85911 -84.357627 -181.21415 -84.319038 -187.78134 C -84.309338 -189.30285 -84.007827 -190.80837 -83.43072 -192.21621 z M -125.44624 -119.73381 C -121.76167 -119.73381 -118.5018 -119.11073 -115.66751 -117.86364 C -112.83322 -116.67324 -110.62256 -114.97237 -109.03536 -112.76163 C -107.44816 -110.60757 -106.65463 -108.11368 -106.65463 -105.27939 C -106.65463 -102.10499 -107.59003 -99.384015 -109.46066 -97.116586 C -111.33128 -94.849156 -114.10891 -93.120223 -117.79348 -91.929822 C -113.14525 -90.909479 -109.88589 -89.237189 -108.01527 -86.913074 C -106.14464 -84.588959 -105.20924 -81.442892 -105.20924 -77.474891 C -105.20924 -74.017061 -106.25792 -71.069506 -108.3553 -68.632019 C -110.39598 -66.194533 -113.06032 -64.380375 -116.34809 -63.189974 C -119.63586 -61.999574 -123.03709 -61.404554 -126.5516 -61.404554 C -131.65332 -61.404554 -135.98943 -62.453243 -139.56063 -64.550615 C -143.07514 -66.647987 -144.83266 -69.510317 -144.83266 -73.138204 C -144.83266 -75.235577 -144.20906 -76.851222 -142.96197 -77.984937 C -141.71488 -79.175337 -140.15588 -79.770358 -138.28525 -79.770358 C -136.35794 -79.770358 -134.40243 -79.005405 -132.41843 -77.474891 C -132.9286 -76.397862 -133.18376 -75.094016 -133.18376 -73.563501 C -133.18376 -71.749558 -132.64486 -70.275781 -131.56783 -69.142066 C -130.43412 -68.008351 -128.76235 -67.441394 -126.5516 -67.441394 C -121.67663 -67.441394 -119.23887 -70.814037 -119.23887 -77.55964 C -119.23887 -81.244213 -120.42943 -84.10706 -122.81023 -86.147746 C -125.13434 -88.188433 -128.45034 -89.208541 -132.75846 -89.208541 L -132.75846 -94.480571 C -124.42566 -95.1608 -120.25948 -98.760535 -120.25948 -105.27939 C -120.25948 -108.56717 -120.76928 -110.97583 -121.78962 -112.50634 C -122.80996 -114.09354 -124.19903 -114.88759 -125.95629 -114.88759 C -128.05366 -114.88759 -129.64073 -114.15071 -130.71776 -112.67688 C -131.7381 -111.20305 -132.24841 -109.41747 -132.24841 -107.3201 C -132.24841 -105.44947 -131.85139 -103.77718 -131.05779 -102.30335 C -132.64499 -100.60278 -134.68572 -99.752084 -137.17989 -99.752084 C -139.44732 -99.752084 -141.20484 -100.43233 -142.45192 -101.79279 C -143.69901 -103.15324 -144.32261 -104.91076 -144.32261 -107.06482 C -144.32261 -109.8991 -143.35863 -112.25164 -141.43131 -114.12227 C -139.44731 -116.04958 -137.01007 -117.46671 -134.1191 -118.37369 C -131.17144 -119.28066 -128.28053 -119.73381 -125.44624 -119.73381 z M -58.443614 -119.73381 C -54.759042 -119.73381 -51.499687 -119.11073 -48.6654 -117.86364 C -45.831113 -116.67324 -43.61993 -114.97237 -42.03273 -112.76163 C -40.445529 -110.60757 -39.651997 -108.11368 -39.651997 -105.27939 C -39.651997 -102.10499 -40.587398 -99.384015 -42.458027 -97.116586 C -44.328656 -94.849156 -47.106279 -93.120223 -50.790852 -91.929822 C -46.142621 -90.909479 -42.883266 -89.237189 -41.012637 -86.913074 C -39.142008 -84.588959 -38.206607 -81.442892 -38.206607 -77.474891 C -38.206607 -74.017061 -39.255296 -71.069506 -41.352668 -68.632019 C -43.393354 -66.194533 -46.057689 -64.380375 -49.345462 -63.189974 C -52.633234 -61.999574 -56.034458 -61.404554 -59.548973 -61.404554 C -64.650689 -61.404554 -68.986797 -62.453243 -72.557998 -64.550615 C -76.072514 -66.647987 -77.830028 -69.510317 -77.830028 -73.138204 C -77.830028 -75.235577 -77.206427 -76.851222 -75.959341 -77.984937 C -74.712255 -79.175337 -73.153253 -79.770358 -71.282624 -79.770358 C -69.355309 -79.770358 -67.399799 -79.005405 -65.415799 -77.474891 C -65.92597 -76.397862 -66.181127 -75.094016 -66.181127 -73.563501 C -66.181127 -71.749558 -65.64275 -70.275781 -64.565721 -69.142066 C -63.432007 -68.008351 -61.759717 -67.441394 -59.548973 -67.441394 C -54.674 -67.441394 -52.236241 -70.814037 -52.236241 -77.55964 C -52.236241 -81.244213 -53.426799 -84.10706 -55.8076 -86.147746 C -58.131715 -88.188433 -61.447714 -89.208541 -65.75583 -89.208541 L -65.75583 -94.480571 C -57.423027 -95.1608 -53.256851 -98.760535 -53.256851 -105.27939 C -53.256851 -108.56717 -53.766647 -110.97583 -54.78699 -112.50634 C -55.807333 -114.09354 -57.196403 -114.88759 -58.953661 -114.88759 C -61.051033 -114.88759 -62.638098 -114.15071 -63.715127 -112.67688 C -64.73547 -111.20305 -65.245783 -109.41747 -65.245783 -107.3201 C -65.245783 -105.44947 -64.848758 -103.77718 -64.055158 -102.30335 C -65.642359 -100.60278 -67.683093 -99.752084 -70.177265 -99.752084 C -72.444695 -99.752084 -74.202209 -100.43233 -75.449295 -101.79279 C -76.696381 -103.15324 -77.319982 -104.91076 -77.319982 -107.06482 C -77.319982 -109.8991 -76.356 -112.25164 -74.428685 -114.12227 C -72.444684 -116.04958 -70.007443 -117.46671 -67.11647 -118.37369 C -64.168812 -119.28066 -61.277901 -119.73381 -58.443614 -119.73381 z M -15.248835 -119.73381 C -11.564262 -119.73381 -8.3049072 -119.11073 -5.4706204 -117.86364 C -2.6363337 -116.67324 -0.42566768 -114.97237 1.1615329 -112.76163 C 2.7487335 -110.60757 3.5422661 -108.11368 3.5422661 -105.27939 C 3.5422661 -102.10499 2.6068651 -99.384015 0.73623586 -97.116586 C -1.1343934 -94.849156 -3.9120161 -93.120223 -7.5965888 -91.929822 C -2.9483586 -90.909479 0.31151318 -89.237189 2.1821424 -86.913074 C 4.0527717 -84.588959 4.9876559 -81.442892 4.9876559 -77.474891 C 4.9876559 -74.017061 3.9389669 -71.069506 1.8415947 -68.632019 C -0.19909172 -66.194533 -2.8629096 -64.380375 -6.1506823 -63.189974 C -9.4384549 -61.999574 -12.839678 -61.404554 -16.354194 -61.404554 C -21.45591 -61.404554 -25.792534 -62.453243 -29.363736 -64.550615 C -32.878251 -66.647987 -34.635249 -69.510317 -34.635249 -73.138204 C -34.635249 -75.235577 -34.012165 -76.851222 -32.765078 -77.984937 C -31.517992 -79.175337 -29.958991 -79.770358 -28.088361 -79.770358 C -26.161046 -79.770358 -24.205537 -79.005405 -22.221536 -77.474891 C -22.731708 -76.397862 -22.986347 -75.094016 -22.986347 -73.563501 C -22.986347 -71.749558 -22.447971 -70.275781 -21.370942 -69.142066 C -20.237227 -68.008351 -18.564937 -67.441394 -16.354194 -67.441394 C -11.479221 -67.441394 -9.0419787 -70.814037 -9.0419787 -77.55964 C -9.0419787 -81.244213 -10.232536 -84.10706 -12.613337 -86.147746 C -14.937452 -88.188433 -18.253451 -89.208541 -22.561567 -89.208541 L -22.561567 -94.480571 C -14.228764 -95.1608 -10.062071 -98.760535 -10.062071 -105.27939 C -10.062071 -108.56717 -10.572384 -110.97583 -11.592727 -112.50634 C -12.613071 -114.09354 -14.00214 -114.88759 -15.759398 -114.88759 C -17.85677 -114.88759 -19.443836 -114.15071 -20.520865 -112.67688 C -21.541208 -111.20305 -22.05152 -109.41747 -22.05152 -107.3201 C -22.05152 -105.44947 -21.654496 -103.77718 -20.860895 -102.30335 C -22.448096 -100.60278 -24.48883 -99.752084 -26.983002 -99.752084 C -29.250432 -99.752084 -31.007429 -100.43233 -32.254515 -101.79279 C -33.501601 -103.15324 -34.125202 -104.91076 -34.125202 -107.06482 C -34.125202 -109.8991 -33.161737 -112.25164 -31.234423 -114.12227 C -29.250422 -116.04958 -26.812663 -117.46671 -23.921691 -118.37369 C -20.974032 -119.28066 -18.083122 -119.73381 -15.248835 -119.73381 z M -90.158991 -101.28274 C -88.17499 -101.28274 -86.701213 -100.68772 -85.737556 -99.497319 C -84.717212 -98.363604 -84.207416 -96.776539 -84.207416 -94.735852 C -84.207416 -92.695166 -84.717212 -91.107584 -85.737556 -89.973869 C -86.701213 -88.840154 -88.17499 -88.273198 -90.158991 -88.273198 C -92.142992 -88.273198 -93.64535 -88.840154 -94.665693 -89.973869 C -95.62935 -91.16427 -96.111083 -92.751852 -96.111083 -94.735852 C -96.111083 -96.833225 -95.62935 -98.448354 -94.665693 -99.582068 C -93.64535 -100.71578 -92.142992 -101.28274 -90.158991 -101.28274 z M -90.158991 -74.498845 C -88.17499 -74.498845 -86.701213 -73.903824 -85.737556 -72.713424 C -84.717212 -71.579709 -84.207416 -69.992127 -84.207416 -67.951441 C -84.207416 -65.910754 -84.717212 -64.323689 -85.737556 -63.189974 C -86.701213 -62.05626 -88.17499 -61.489303 -90.158991 -61.489303 C -92.142992 -61.489303 -93.64535 -62.05626 -94.665693 -63.189974 C -95.62935 -64.380375 -96.111083 -65.96744 -96.111083 -67.951441 C -96.111083 -70.048813 -95.62935 -71.664459 -94.665693 -72.798173 C -93.64535 -73.931888 -92.142992 -74.498845 -90.158991 -74.498845 z " /></g></svg>
