<?xml version="1.0" encoding="UTF-8" standalone="no"?>
<!-- Created with Inkscape (http://www.inkscape.org/) -->

<svg
   width="172.6701mm"
   height="172.6701mm"
   viewBox="0 0 172.6701 172.6701"
   version="1.1"
   id="svg1"
   xml:space="preserve"
   xmlns="http://www.w3.org/2000/svg"
   xmlns:svg="http://www.w3.org/2000/svg"><defs
     id="defs1" /><g
     id="layer1"
     transform="translate(157.25102,198.81012)"><path
       id="path5"
       style="fill:#ffffff;fill-opacity:1;stroke-width:0.805188;stroke-linecap:round;stroke-linejoin:round"
       d="M -2.0863309 -198.17657 L -10.088943 -183.11289 L -10.930235 -165.68398 L -19.198981 -165.68398 L -11.423229 -155.47426 L -12.166336 -140.07934 C -28.353216 -157.12094 -50.823548 -166.77435 -74.327399 -166.78417 C -103.64471 -166.77397 -130.92652 -151.79225 -146.66717 -127.05894 L -157.25102 -127.05894 L -149.61996 -115.86014 L -157.25102 -26.140039 L -8.5138455 -26.140039 L 15.419061 -26.140039 L 8.0799737 -154.80195 L 15.419061 -165.68398 L 7.4593397 -165.68398 L 6.4490654 -183.39297 L -2.0863309 -198.17657 z M -83.43072 -192.21621 C -85.584619 -189.65499 -86.77489 -186.4211 -86.795372 -183.07465 C -86.842092 -175.15518 -80.459903 -168.69733 -72.540428 -168.65072 C -64.621155 -168.60402 -58.163395 -174.98588 -58.116503 -182.90515 C -58.102813 -186.26049 -59.266203 -189.5144 -61.404157 -192.10045 C -60.83125 -190.6836 -60.536835 -189.16959 -60.537027 -187.64129 C -60.575787 -181.07411 -65.930869 -175.78172 -72.498054 -175.82031 C -79.065241 -175.85911 -84.357627 -181.21415 -84.319038 -187.78134 C -84.309338 -189.30285 -84.007827 -190.80837 -83.43072 -192.21621 z M -124.0856 -119.81908 C -118.1336 -119.81908 -113.40047 -118.54381 -109.88595 -115.99295 C -106.37144 -113.44209 -104.61392 -110.01229 -104.61392 -105.70418 C -104.61392 -103.38006 -105.4641 -101.05611 -107.16467 -98.731991 C -108.86524 -96.407876 -111.10449 -94.50901 -113.88209 -93.035181 C -110.36758 -91.334609 -107.61853 -89.350519 -105.63453 -87.08309 C -103.59385 -84.81566 -102.57322 -81.896169 -102.57322 -78.324968 C -102.57322 -73.166566 -104.44402 -69.057034 -108.18528 -65.996005 C -111.92654 -62.991661 -116.97147 -61.489303 -123.32027 -61.489303 C -130.29262 -61.489303 -135.67793 -62.878373 -139.47588 -65.655974 C -143.21714 -68.433575 -145.08742 -72.401238 -145.08742 -77.55964 C -145.08742 -80.223869 -144.23724 -82.86014 -142.53667 -85.467684 C -140.8361 -88.131914 -138.4555 -90.483931 -135.39447 -92.524618 C -137.94533 -93.941761 -139.92942 -95.642631 -141.34656 -97.626632 C -142.76371 -99.610633 -143.47202 -102.07646 -143.47202 -105.02411 C -143.47202 -109.55897 -141.71502 -113.15871 -138.2005 -115.82294 C -134.68599 -118.48717 -129.98092 -119.81908 -124.0856 -119.81908 z M -55.8076 -119.73381 C -52.123027 -119.73381 -48.863672 -119.11073 -46.029385 -117.86364 C -43.195098 -116.67324 -40.984432 -114.97237 -39.397232 -112.76163 C -37.810031 -110.60757 -37.015982 -108.11368 -37.015982 -105.27939 C -37.015982 -102.10499 -37.951383 -99.384015 -39.822012 -97.116586 C -41.692641 -94.849156 -44.470264 -93.120223 -48.154837 -91.929822 C -43.506606 -90.909479 -40.247251 -89.237189 -38.376622 -86.913074 C -36.505993 -84.588959 -35.570592 -81.442892 -35.570592 -77.474891 C -35.570592 -74.017061 -36.619281 -71.069506 -38.716653 -68.632019 C -40.75734 -66.194533 -43.421674 -64.380375 -46.709447 -63.189974 C -49.99722 -61.999574 -53.398443 -61.404554 -56.912958 -61.404554 C -62.014675 -61.404554 -66.351299 -62.453243 -69.9225 -64.550615 C -73.437016 -66.647987 -75.194013 -69.510317 -75.194013 -73.138204 C -75.194013 -75.235577 -74.570412 -76.851222 -73.323326 -77.984937 C -72.07624 -79.175337 -70.517755 -79.770358 -68.647126 -79.770358 C -66.719811 -79.770358 -64.763785 -79.005405 -62.779784 -77.474891 C -63.289955 -76.397862 -63.545112 -75.094016 -63.545112 -73.563501 C -63.545112 -71.749558 -63.006735 -70.275781 -61.929707 -69.142066 C -60.795992 -68.008351 -59.123702 -67.441394 -56.912958 -67.441394 C -52.037985 -67.441394 -49.600227 -70.814037 -49.600227 -77.55964 C -49.600227 -81.244213 -50.790784 -84.10706 -53.171585 -86.147746 C -55.4957 -88.188433 -58.811699 -89.208541 -63.119815 -89.208541 L -63.119815 -94.480571 C -54.787012 -95.1608 -50.620836 -98.760535 -50.620836 -105.27939 C -50.620836 -108.56717 -51.131149 -110.97583 -52.151492 -112.50634 C -53.171835 -114.09354 -54.560388 -114.88759 -56.317646 -114.88759 C -58.415018 -114.88759 -60.002083 -114.15071 -61.079112 -112.67688 C -62.099456 -111.20305 -62.609768 -109.41747 -62.609768 -107.3201 C -62.609768 -105.44947 -62.21326 -103.77718 -61.41966 -102.30335 C -63.006861 -100.60278 -65.047078 -99.752084 -67.54125 -99.752084 C -69.80868 -99.752084 -71.566194 -100.43233 -72.81328 -101.79279 C -74.060366 -103.15324 -74.683967 -104.91076 -74.683967 -107.06482 C -74.683967 -109.8991 -73.720502 -112.25164 -71.793187 -114.12227 C -69.809186 -116.04958 -67.371428 -117.46671 -64.480455 -118.37369 C -61.532797 -119.28066 -58.641886 -119.73381 -55.8076 -119.73381 z M -30.809125 -118.88373 L -26.642971 -118.88373 C -24.488914 -118.82705 -19.783845 -118.79847 -12.528071 -118.79847 C -4.988868 -118.79847 -0.085286968 -118.82705 2.1821424 -118.88373 L 6.2630303 -118.88373 L 7.9637017 -115.22762 C 6.8866727 -113.52705 4.8459387 -109.84261 1.8415947 -104.17404 C -1.1627492 -98.505463 -3.9970159 -92.496548 -6.6612454 -86.147746 C -9.325475 -79.798944 -10.657384 -74.838719 -10.657384 -71.267517 C -10.657384 -68.433231 -9.6653389 -66.307789 -7.6813382 -64.890646 C -9.6086532 -62.566531 -12.074476 -61.404554 -15.078819 -61.404554 C -17.85642 -61.404554 -20.010442 -62.169506 -21.540957 -63.700021 C -23.071472 -65.230536 -23.836941 -67.356494 -23.836941 -70.077409 C -23.836941 -73.478553 -23.014828 -77.077772 -21.370942 -80.875717 C -19.727056 -84.730347 -16.779501 -89.945728 -12.528071 -96.521273 L -2.4945747 -111.9963 L -21.880988 -111.9963 C -22.674589 -109.44544 -23.156838 -106.44124 -23.326895 -102.98341 C -24.347238 -102.81335 -25.395927 -102.72813 -26.472956 -102.72813 C -27.606671 -102.72813 -28.712004 -102.81335 -29.789033 -102.98341 L -32.169766 -117.60836 L -30.809125 -118.88373 z M -124.0856 -113.78224 C -126.35303 -113.78224 -128.13861 -113.04535 -129.44238 -111.57152 C -130.74615 -110.15437 -131.39782 -108.22693 -131.39782 -105.78944 C -131.39782 -103.63538 -130.57622 -101.84981 -128.93234 -100.43266 C -127.23176 -99.072205 -124.76594 -97.711715 -121.53485 -96.351258 C -120.11771 -97.314915 -118.9838 -98.646824 -118.13351 -100.3474 C -117.28323 -102.04797 -116.85814 -103.86213 -116.85814 -105.78944 C -116.85814 -108.22693 -117.53838 -110.15437 -118.89884 -111.57152 C -120.20261 -113.04535 -121.93154 -113.78224 -124.0856 -113.78224 z M -87.523493 -101.28274 C -85.539492 -101.28274 -84.065198 -100.68772 -83.101541 -99.497319 C -82.081198 -98.363604 -81.571402 -96.776539 -81.571402 -94.735852 C -81.571402 -92.695166 -82.081198 -91.107584 -83.101541 -89.973869 C -84.065198 -88.840154 -85.539492 -88.273198 -87.523493 -88.273198 C -89.507494 -88.273198 -91.009335 -88.840154 -92.029678 -89.973869 C -92.993336 -91.16427 -93.475068 -92.751852 -93.475068 -94.735852 C -93.475068 -96.833225 -92.993336 -98.448354 -92.029678 -99.582068 C -91.009335 -100.71578 -89.507494 -101.28274 -87.523493 -101.28274 z M -127.57169 -89.038526 C -129.27227 -87.678068 -130.51947 -86.119583 -131.31307 -84.362325 C -132.10667 -82.605068 -132.50318 -80.50769 -132.50318 -78.070203 C -132.50318 -74.725745 -131.68158 -72.089474 -130.03769 -70.162159 C -128.39381 -68.291529 -126.15456 -67.356645 -123.32027 -67.356645 C -120.54267 -67.356645 -118.38865 -68.291529 -116.85814 -70.162159 C -115.27094 -72.032788 -114.4774 -74.640479 -114.4774 -77.984937 C -114.4774 -79.855566 -115.07242 -81.442631 -116.26282 -82.746403 C -117.39654 -84.106861 -118.84225 -85.212194 -120.59951 -86.06248 C -122.35677 -86.969452 -124.68072 -87.961497 -127.57169 -89.038526 z M -87.523493 -74.498845 C -85.539492 -74.498845 -84.065198 -73.903824 -83.101541 -72.713424 C -82.081198 -71.579709 -81.571402 -69.992127 -81.571402 -67.951441 C -81.571402 -65.910754 -82.081198 -64.323689 -83.101541 -63.189974 C -84.065198 -62.05626 -85.539492 -61.489303 -87.523493 -61.489303 C -89.507494 -61.489303 -91.009335 -62.05626 -92.029678 -63.189974 C -92.993336 -64.380375 -93.475068 -65.96744 -93.475068 -67.951441 C -93.475068 -70.048813 -92.993336 -71.664459 -92.029678 -72.798173 C -91.009335 -73.931888 -89.507494 -74.498845 -87.523493 -74.498845 z " /></g></svg>
