<?xml version="1.0" encoding="UTF-8" standalone="no"?>
<!-- Created with Inkscape (http://www.inkscape.org/) -->

<svg
   width="172.6701mm"
   height="172.6701mm"
   viewBox="0 0 172.6701 172.6701"
   version="1.1"
   id="svg1"
   xml:space="preserve"
   xmlns="http://www.w3.org/2000/svg"
   xmlns:svg="http://www.w3.org/2000/svg"><defs
     id="defs1" /><g
     id="layer1"
     transform="translate(157.25102,198.81012)"><path
       id="path5"
       style="fill:#ffffff;fill-opacity:1;stroke-width:0.805188;stroke-linecap:round;stroke-linejoin:round"
       d="M -2.0863309 -198.17657 L -10.088943 -183.11289 L -10.930235 -165.68398 L -19.198981 -165.68398 L -11.423229 -155.47426 L -12.166336 -140.07934 C -28.353216 -157.12094 -50.823548 -166.77435 -74.327399 -166.78417 C -103.64471 -166.77397 -130.92652 -151.79225 -146.66717 -127.05894 L -157.25102 -127.05894 L -149.61996 -115.86014 L -157.25102 -26.140039 L -8.5138455 -26.140039 L 15.419061 -26.140039 L 8.0799737 -154.80195 L 15.419061 -165.68398 L 7.4593397 -165.68398 L 6.4490654 -183.39297 L -2.0863309 -198.17657 z M -83.43072 -192.21621 C -85.584619 -189.65499 -86.77489 -186.4211 -86.795372 -183.07465 C -86.842092 -175.15518 -80.459903 -168.69733 -72.540428 -168.65072 C -64.621155 -168.60402 -58.163395 -174.98588 -58.116503 -182.90515 C -58.102813 -186.26049 -59.266203 -189.5144 -61.404157 -192.10045 C -60.83125 -190.6836 -60.536835 -189.16959 -60.537027 -187.64129 C -60.575787 -181.07411 -65.930869 -175.78172 -72.498054 -175.82031 C -79.065241 -175.85911 -84.357627 -181.21415 -84.319038 -187.78134 C -84.309338 -189.30285 -84.007827 -190.80837 -83.43072 -192.21621 z M -128.46466 -120.07436 C -123.9298 -119.84761 -120.24536 -118.85557 -117.41107 -117.09831 L -137.64757 -83.767013 L -124.63802 -83.767013 L -123.78795 -97.626632 C -121.974 -97.626632 -120.67016 -97.995076 -119.87656 -98.731991 C -119.02627 -99.468905 -118.37461 -100.71611 -117.92112 -102.47336 L -113.07439 -102.47336 L -113.15914 -83.341716 C -111.00508 -82.718173 -108.28462 -82.066508 -104.99685 -81.38628 L -105.42163 -77.304875 L -113.58443 -77.304875 L -113.58443 -62.084615 L -124.63802 -62.084615 L -124.63802 -77.304875 L -149.21172 -77.304875 L -149.89178 -80.36567 L -128.46466 -120.07436 z M -12.570445 -119.81908 C -6.6184433 -119.81908 -1.885311 -118.54381 1.6292046 -115.99295 C 5.1437202 -113.44209 6.9007175 -110.01229 6.9007175 -105.70418 C 6.9007175 -103.38006 6.0505408 -101.05611 4.3499688 -98.731991 C 2.6493967 -96.407876 0.41066712 -94.50901 -2.3669339 -93.035181 C 1.1475817 -91.334609 3.896624 -89.350519 5.8806247 -87.08309 C 7.9213112 -84.81566 8.9414198 -81.896169 8.9414198 -78.324968 C 8.9414198 -73.166566 7.0711345 -69.057034 3.329876 -65.996005 C -0.41138252 -62.991661 -5.4563152 -61.489303 -11.805117 -61.489303 C -18.777463 -61.489303 -24.162776 -62.878373 -27.960721 -65.655974 C -31.701979 -68.433575 -33.572781 -72.401238 -33.572781 -77.55964 C -33.572781 -80.223869 -32.722604 -82.86014 -31.022032 -85.467684 C -29.32146 -88.131914 -26.940346 -90.483931 -23.879316 -92.524618 C -26.430174 -93.941761 -28.414264 -95.642631 -29.831407 -97.626632 C -31.248551 -99.610633 -31.956859 -102.07646 -31.956859 -105.02411 C -31.956859 -109.55897 -30.199862 -113.15871 -26.685346 -115.82294 C -23.170831 -118.48717 -18.465762 -119.81908 -12.570445 -119.81908 z M -58.571255 -119.73381 C -54.886682 -119.73381 -51.626811 -119.11073 -48.792524 -117.86364 C -45.958237 -116.67324 -43.747571 -114.97237 -42.160371 -112.76163 C -40.57317 -110.60757 -39.779637 -108.11368 -39.779637 -105.27939 C -39.779637 -102.10499 -40.715038 -99.384015 -42.585668 -97.116586 C -44.456297 -94.849156 -47.23392 -93.120223 -50.918492 -91.929822 C -46.270262 -90.909479 -43.010907 -89.237189 -41.140278 -86.913074 C -39.269649 -84.588959 -38.334248 -81.442892 -38.334248 -77.474891 C -38.334248 -74.017061 -39.382937 -71.069506 -41.480309 -68.632019 C -43.520995 -66.194533 -46.18533 -64.380375 -49.473103 -63.189974 C -52.760875 -61.999574 -56.162099 -61.404554 -59.676614 -61.404554 C -64.77833 -61.404554 -69.114438 -62.453243 -72.685639 -64.550615 C -76.200155 -66.647987 -77.957669 -69.510317 -77.957669 -73.138204 C -77.957669 -75.235577 -77.334068 -76.851222 -76.086982 -77.984937 C -74.839896 -79.175337 -73.280894 -79.770358 -71.410265 -79.770358 C -69.48295 -79.770358 -67.52744 -79.005405 -65.543439 -77.474891 C -66.053611 -76.397862 -66.308767 -75.094016 -66.308767 -73.563501 C -66.308767 -71.749558 -65.769874 -70.275781 -64.692845 -69.142066 C -63.559131 -68.008351 -61.887358 -67.441394 -59.676614 -67.441394 C -54.801641 -67.441394 -52.363882 -70.814037 -52.363882 -77.55964 C -52.363882 -81.244213 -53.55444 -84.10706 -55.93524 -86.147746 C -58.259356 -88.188433 -61.575354 -89.208541 -65.88347 -89.208541 L -65.88347 -94.480571 C -57.550667 -95.1608 -53.384492 -98.760535 -53.384492 -105.27939 C -53.384492 -108.56717 -53.894288 -110.97583 -54.914631 -112.50634 C -55.934974 -114.09354 -57.324044 -114.88759 -59.081302 -114.88759 C -61.178674 -114.88759 -62.765739 -114.15071 -63.842768 -112.67688 C -64.863111 -111.20305 -65.373424 -109.41747 -65.373424 -107.3201 C -65.373424 -105.44947 -64.976399 -103.77718 -64.182799 -102.30335 C -65.77 -100.60278 -67.810734 -99.752084 -70.304906 -99.752084 C -72.572335 -99.752084 -74.329849 -100.43233 -75.576936 -101.79279 C -76.824022 -103.15324 -77.447106 -104.91076 -77.447106 -107.06482 C -77.447106 -109.8991 -76.483641 -112.25164 -74.556326 -114.12227 C -72.572325 -116.04958 -70.135083 -117.46671 -67.244111 -118.37369 C -64.296453 -119.28066 -61.405542 -119.73381 -58.571255 -119.73381 z M -12.570445 -113.78224 C -14.837875 -113.78224 -16.623453 -113.04535 -17.927224 -111.57152 C -19.230996 -110.15437 -19.883177 -108.22693 -19.883177 -105.78944 C -19.883177 -103.63538 -19.061064 -101.84981 -17.417178 -100.43266 C -15.716606 -99.072205 -13.250784 -97.711715 -10.019697 -96.351258 C -8.6025534 -97.314915 -7.46864 -98.646824 -6.618354 -100.3474 C -5.768068 -102.04797 -5.3429796 -103.86213 -5.3429796 -105.78944 C -5.3429796 -108.22693 -6.0232243 -110.15437 -7.3836819 -111.57152 C -8.6874539 -113.04535 -10.416388 -113.78224 -12.570445 -113.78224 z M -90.286632 -101.28274 C -88.302631 -101.28274 -86.828854 -100.68772 -85.865196 -99.497319 C -84.844853 -98.363604 -84.334541 -96.776539 -84.334541 -94.735852 C -84.334541 -92.695166 -84.844853 -91.107584 -85.865196 -89.973869 C -86.828854 -88.840154 -88.302631 -88.273198 -90.286632 -88.273198 C -92.270633 -88.273198 -93.77299 -88.840154 -94.793334 -89.973869 C -95.756991 -91.16427 -96.238723 -92.751852 -96.238723 -94.735852 C -96.238723 -96.833225 -95.756991 -98.448354 -94.793334 -99.582068 C -93.77299 -100.71578 -92.270633 -101.28274 -90.286632 -101.28274 z M -16.056538 -89.038526 C -17.75711 -87.678068 -19.004311 -86.119583 -19.797911 -84.362325 C -20.591512 -82.605068 -20.988536 -80.50769 -20.988536 -78.070203 C -20.988536 -74.725745 -20.166423 -72.089474 -18.522537 -70.162159 C -16.878651 -68.291529 -14.639404 -67.356645 -11.805117 -67.356645 C -9.0275165 -67.356645 -6.8734945 -68.291529 -5.3429796 -70.162159 C -3.7557791 -72.032788 -2.9622464 -74.640479 -2.9622464 -77.984937 C -2.9622464 -79.855566 -3.5577835 -81.442631 -4.7481839 -82.746403 C -5.8818986 -84.106861 -7.3270955 -85.212194 -9.0843533 -86.06248 C -10.841611 -86.969452 -13.165565 -87.961497 -16.056538 -89.038526 z M -90.286632 -74.498845 C -88.302631 -74.498845 -86.828854 -73.903824 -85.865196 -72.713424 C -84.844853 -71.579709 -84.334541 -69.992127 -84.334541 -67.951441 C -84.334541 -65.910754 -84.844853 -64.323689 -85.865196 -63.189974 C -86.828854 -62.05626 -88.302631 -61.489303 -90.286632 -61.489303 C -92.270633 -61.489303 -93.77299 -62.05626 -94.793334 -63.189974 C -95.756991 -64.380375 -96.238723 -65.96744 -96.238723 -67.951441 C -96.238723 -70.048813 -95.756991 -71.664459 -94.793334 -72.798173 C -93.77299 -73.931888 -92.270633 -74.498845 -90.286632 -74.498845 z " /></g></svg>
