<?xml version="1.0" encoding="UTF-8" standalone="no"?>
<!-- Created with Inkscape (http://www.inkscape.org/) -->

<svg
   width="172.6701mm"
   height="172.6701mm"
   viewBox="0 0 172.6701 172.6701"
   version="1.1"
   id="svg1"
   xml:space="preserve"
   xmlns="http://www.w3.org/2000/svg"
   xmlns:svg="http://www.w3.org/2000/svg"><defs
     id="defs1" /><g
     id="layer1"
     transform="translate(157.25102,198.81012)"><path
       id="path5"
       style="fill:#ffffff;fill-opacity:1;stroke-width:0.805188;stroke-linecap:round;stroke-linejoin:round"
       d="M -2.0863309 -198.17657 L -10.088943 -183.11289 L -10.930235 -165.68398 L -19.198981 -165.68398 L -11.423229 -155.47426 L -12.166336 -140.07934 C -28.353216 -157.12094 -50.823548 -166.77435 -74.327399 -166.78417 C -103.64471 -166.77397 -130.92652 -151.79225 -146.66717 -127.05894 L -157.25102 -127.05894 L -149.61996 -115.86014 L -157.25102 -26.140039 L -8.5138455 -26.140039 L 15.419061 -26.140039 L 8.0799737 -154.80195 L 15.419061 -165.68398 L 7.4593397 -165.68398 L 6.4490654 -183.39297 L -2.0863309 -198.17657 z M -83.43072 -192.21621 C -85.584619 -189.65499 -86.77489 -186.4211 -86.795372 -183.07465 C -86.842092 -175.15518 -80.459903 -168.69733 -72.540428 -168.65072 C -64.621155 -168.60402 -58.163395 -174.98588 -58.116503 -182.90515 C -58.102813 -186.26049 -59.266203 -189.5144 -61.404157 -192.10045 C -60.83125 -190.6836 -60.536835 -189.16959 -60.537027 -187.64129 C -60.575787 -181.07411 -65.930869 -175.78172 -72.498054 -175.82031 C -79.065241 -175.85911 -84.357627 -181.21415 -84.319038 -187.78134 C -84.309338 -189.30285 -84.007827 -190.80837 -83.43072 -192.21621 z M -58.060692 -119.73381 C -52.222061 -119.73381 -47.574153 -118.28861 -44.116324 -115.39764 C -40.658494 -112.56335 -38.92956 -108.56711 -38.92956 -103.40871 C -38.92956 -98.873849 -40.658494 -94.026912 -44.116324 -88.86851 C -47.574153 -83.766794 -53.27075 -77.616529 -61.206753 -70.41744 L -38.334248 -70.41744 L -38.334248 -62.084615 L -76.85231 -62.084615 L -76.85231 -67.016097 C -70.560193 -73.081471 -65.656612 -78.268272 -62.142097 -82.576388 C -58.627581 -86.884504 -56.105115 -90.852684 -54.5746 -94.480571 C -52.987399 -98.108458 -52.193867 -101.84955 -52.193867 -105.70418 C -52.193867 -111.82623 -54.234601 -114.88759 -58.315974 -114.88759 C -60.129917 -114.88759 -61.603694 -114.0369 -62.737409 -112.33633 C -63.871124 -110.69244 -64.438081 -108.65171 -64.438081 -106.21422 C -64.438081 -104.51365 -63.842543 -102.89852 -62.652143 -101.36801 C -63.615801 -100.46103 -64.72165 -99.752209 -65.968736 -99.242037 C -67.159137 -98.731866 -68.349178 -98.476709 -69.539578 -98.476709 C -71.580264 -98.476709 -73.281134 -99.10031 -74.641592 -100.3474 C -76.00205 -101.65117 -76.682294 -103.52197 -76.682294 -105.95946 C -76.682294 -108.567 -75.916825 -110.91953 -74.386311 -113.01691 C -72.855796 -115.11428 -70.701774 -116.75799 -67.924173 -117.94839 C -65.089886 -119.13879 -61.801951 -119.73381 -58.060692 -119.73381 z M -125.91391 -119.56379 C -119.16831 -119.56379 -114.00957 -117.69351 -110.43837 -113.95225 C -106.81049 -110.21099 -104.99685 -104.7971 -104.99685 -97.711381 C -104.99685 -88.811721 -107.77447 -81.216258 -113.32967 -74.924142 C -118.82819 -68.688711 -126.82067 -64.09693 -137.30753 -61.149272 L -139.34824 -65.400692 C -133.67966 -67.838179 -129.11646 -70.956182 -125.65863 -74.754126 C -122.2008 -78.608756 -119.90491 -83.086732 -118.7712 -88.188448 C -121.9456 -86.601248 -125.03502 -85.807715 -128.03937 -85.807715 C -133.70794 -85.807715 -138.18643 -87.338137 -141.47421 -90.399166 C -144.70529 -93.460196 -146.32042 -97.598308 -146.32042 -102.8134 C -146.32042 -106.04448 -145.47024 -108.93539 -143.76967 -111.48625 C -142.01241 -114.03711 -139.60324 -116.0212 -136.54221 -117.43834 C -133.42449 -118.85549 -129.88192 -119.56379 -125.91391 -119.56379 z M -13.591055 -119.56379 C -6.8454525 -119.56379 -1.6867151 -117.69351 1.8844862 -113.95225 C 5.5123732 -110.21099 7.3260145 -104.7971 7.3260145 -97.711381 C 7.3260145 -88.811721 4.5483918 -81.216258 -1.0068102 -74.924142 C -6.5053265 -68.688711 -14.497814 -64.09693 -24.984675 -61.149272 L -27.025377 -65.400692 C -21.356804 -67.838179 -16.793603 -70.956182 -13.335773 -74.754126 C -9.8779436 -78.608756 -7.5820532 -83.086732 -6.4483385 -88.188448 C -9.6227397 -86.601248 -12.712163 -85.807715 -15.716507 -85.807715 C -21.38508 -85.807715 -25.863573 -87.338137 -29.151346 -90.399166 C -32.382432 -93.460196 -33.997561 -97.598308 -33.997561 -102.8134 C -33.997561 -106.04448 -33.147385 -108.93539 -31.446813 -111.48625 C -29.689555 -114.03711 -27.280377 -116.0212 -24.219347 -117.43834 C -21.101631 -118.85549 -17.559056 -119.56379 -13.591055 -119.56379 z M -126.42396 -113.69697 C -128.86145 -113.69697 -130.73225 -112.76157 -132.03602 -110.89094 C -133.33979 -109.02031 -133.99146 -106.35597 -133.99146 -102.89814 C -133.99146 -99.383629 -133.28315 -96.634587 -131.86601 -94.650586 C -130.39218 -92.723271 -128.32286 -91.759807 -125.65863 -91.759807 C -123.33452 -91.759807 -120.75541 -92.723271 -117.92112 -94.650586 L -117.92112 -95.755945 C -117.92112 -101.93469 -118.60137 -106.46931 -119.96182 -109.36028 C -121.32228 -112.25126 -123.4763 -113.69697 -126.42396 -113.69697 z M -14.101101 -113.69697 C -16.538588 -113.69697 -18.40939 -112.76157 -19.713162 -110.89094 C -21.016934 -109.02031 -21.668598 -106.35597 -21.668598 -102.89814 C -21.668598 -99.383629 -20.96029 -96.634587 -19.543146 -94.650586 C -18.069317 -92.723271 -16.000003 -91.759807 -13.335773 -91.759807 C -11.011658 -91.759807 -8.432548 -92.723271 -5.5982612 -94.650586 L -5.5982612 -95.755945 C -5.5982612 -101.93469 -6.2785059 -106.46931 -7.6389635 -109.36028 C -8.9994212 -112.25126 -11.153443 -113.69697 -14.101101 -113.69697 z M -90.116617 -101.28274 C -88.132616 -101.28274 -86.658838 -100.68772 -85.695181 -99.497319 C -84.674838 -98.363604 -84.164525 -96.776539 -84.164525 -94.735852 C -84.164525 -92.695166 -84.674838 -91.107584 -85.695181 -89.973869 C -86.658838 -88.840154 -88.132616 -88.273198 -90.116617 -88.273198 C -92.100617 -88.273198 -93.602975 -88.840154 -94.623318 -89.973869 C -95.586976 -91.16427 -96.068708 -92.751852 -96.068708 -94.735852 C -96.068708 -96.833225 -95.586976 -98.448354 -94.623318 -99.582068 C -93.602975 -100.71578 -92.100617 -101.28274 -90.116617 -101.28274 z M -90.116617 -74.498845 C -88.132616 -74.498845 -86.658838 -73.903824 -85.695181 -72.713424 C -84.674838 -71.579709 -84.164525 -69.992127 -84.164525 -67.951441 C -84.164525 -65.910754 -84.674838 -64.323689 -85.695181 -63.189974 C -86.658838 -62.05626 -88.132616 -61.489303 -90.116617 -61.489303 C -92.100617 -61.489303 -93.602975 -62.05626 -94.623318 -63.189974 C -95.586976 -64.380375 -96.068708 -65.96744 -96.068708 -67.951441 C -96.068708 -70.048813 -95.586976 -71.664459 -94.623318 -72.798173 C -93.602975 -73.931888 -92.100617 -74.498845 -90.116617 -74.498845 z " /></g></svg>
