<?xml version="1.0" encoding="UTF-8" standalone="no"?>
<!-- Created with Inkscape (http://www.inkscape.org/) -->

<svg
   width="172.6701mm"
   height="172.6701mm"
   viewBox="0 0 172.6701 172.6701"
   version="1.1"
   id="svg1"
   xml:space="preserve"
   xmlns="http://www.w3.org/2000/svg"
   xmlns:svg="http://www.w3.org/2000/svg"><defs
     id="defs1" /><g
     id="layer1"
     transform="translate(157.25102,198.81012)"><path
       id="path5"
       style="fill:#ffffff;fill-opacity:1;stroke-width:0.805188;stroke-linecap:round;stroke-linejoin:round"
       d="M -2.0863309 -198.17657 L -10.088943 -183.11289 L -10.930235 -165.68398 L -19.198981 -165.68398 L -11.423229 -155.47426 L -12.166336 -140.07934 C -28.353216 -157.12094 -50.823548 -166.77435 -74.327399 -166.78417 C -103.64471 -166.77397 -130.92652 -151.79225 -146.66717 -127.05894 L -157.25102 -127.05894 L -149.61996 -115.86014 L -157.25102 -26.140039 L -8.5138455 -26.140039 L 15.419061 -26.140039 L 8.0799737 -154.80195 L 15.419061 -165.68398 L 7.4593397 -165.68398 L 6.4490654 -183.39297 L -2.0863309 -198.17657 z M -83.43072 -192.21621 C -85.584619 -189.65499 -86.77489 -186.4211 -86.795372 -183.07465 C -86.842092 -175.15518 -80.459903 -168.69733 -72.540428 -168.65072 C -64.621155 -168.60402 -58.163395 -174.98588 -58.116503 -182.90515 C -58.102813 -186.26049 -59.266203 -189.5144 -61.404157 -192.10045 C -60.83125 -190.6836 -60.536835 -189.16959 -60.537027 -187.64129 C -60.575787 -181.07411 -65.930869 -175.78172 -72.498054 -175.82031 C -79.065241 -175.85911 -84.357627 -181.21415 -84.319038 -187.78134 C -84.309338 -189.30285 -84.007827 -190.80837 -83.43072 -192.21621 z M -126.63635 -119.73381 C -120.79772 -119.73381 -116.14981 -118.28861 -112.69198 -115.39764 C -109.23415 -112.56335 -107.50522 -108.56711 -107.50522 -103.40871 C -107.50522 -98.873849 -109.23415 -94.026912 -112.69198 -88.86851 C -116.14981 -83.766794 -121.84641 -77.616529 -129.78241 -70.41744 L -106.90991 -70.41744 L -106.90991 -62.084615 L -145.42797 -62.084615 L -145.42797 -67.016097 C -139.13585 -73.081471 -134.23227 -78.268272 -130.71776 -82.576388 C -127.20324 -86.884504 -124.68077 -90.852684 -123.15026 -94.480571 C -121.56306 -98.108458 -120.76953 -101.84955 -120.76953 -105.70418 C -120.76953 -111.82623 -122.81026 -114.88759 -126.89163 -114.88759 C -128.70558 -114.88759 -130.17935 -114.0369 -131.31307 -112.33633 C -132.44678 -110.69244 -133.01374 -108.65171 -133.01374 -106.21422 C -133.01374 -104.51365 -132.41872 -102.89852 -131.22832 -101.36801 C -132.19198 -100.46103 -133.29731 -99.752209 -134.5444 -99.242037 C -135.7348 -98.731866 -136.92484 -98.476709 -138.11524 -98.476709 C -140.15592 -98.476709 -141.85679 -99.10031 -143.21725 -100.3474 C -144.57771 -101.65117 -145.25795 -103.52197 -145.25795 -105.95946 C -145.25795 -108.567 -144.49248 -110.91953 -142.96197 -113.01691 C -141.43145 -115.11428 -139.27743 -116.75799 -136.49983 -117.94839 C -133.66555 -119.13879 -130.37761 -119.73381 -126.63635 -119.73381 z M -13.718696 -119.64906 C -7.0864648 -119.64906 -2.0129518 -117.15466 1.5015638 -112.16631 C 5.0727651 -107.23465 6.8583428 -100.06428 6.8583428 -90.654448 C 6.8583428 -81.244616 5.0727651 -74.017081 1.5015638 -68.97205 C -2.0129518 -63.983706 -7.0864648 -61.489303 -13.718696 -61.489303 C -20.350927 -61.489303 -25.452503 -63.983706 -29.023705 -68.97205 C -32.594906 -74.017081 -34.380484 -81.244616 -34.380484 -90.654448 C -34.380484 -100.00759 -32.594906 -107.17797 -29.023705 -112.16631 C -25.452503 -117.15466 -20.350927 -119.64906 -13.718696 -119.64906 z M -71.453156 -119.05375 L -67.201736 -118.969 C -61.193048 -118.85563 -58.018401 -118.79847 -57.678286 -118.79847 L -45.604088 -118.969 L -43.138605 -117.18306 L -43.903417 -110.72092 L -64.990502 -110.72092 L -66.181127 -96.521273 C -63.233468 -97.258188 -60.569134 -97.626632 -58.188333 -97.626632 C -52.576445 -97.626632 -48.013245 -96.124274 -44.498729 -93.11993 C -40.927528 -90.172272 -39.14195 -85.836165 -39.14195 -80.110905 C -39.14195 -76.539704 -39.992127 -73.336993 -41.692699 -70.502706 C -43.336585 -67.66842 -45.7177 -65.429173 -48.835415 -63.785287 C -51.953131 -62.198086 -55.637574 -61.404554 -59.889004 -61.404554 C -63.346834 -61.404554 -66.492901 -61.886286 -69.327188 -62.849943 C -72.104789 -63.813601 -74.287391 -65.14551 -75.874592 -66.846082 C -77.461792 -68.60334 -78.255325 -70.559366 -78.255325 -72.713424 C -78.255325 -74.980853 -77.631724 -76.709787 -76.384638 -77.900188 C -75.137552 -79.147274 -73.607131 -79.770358 -71.793187 -79.770358 C -70.772844 -79.770358 -69.752219 -79.572362 -68.731875 -79.175562 C -67.654846 -78.778762 -66.691382 -78.211805 -65.841096 -77.474891 C -66.351267 -76.28449 -66.606424 -75.037289 -66.606424 -73.733517 C -66.606424 -71.862888 -66.067531 -70.332466 -64.990502 -69.142066 C -63.856787 -67.951665 -62.156434 -67.356645 -59.889004 -67.356645 C -54.787288 -67.356645 -52.236241 -71.608045 -52.236241 -80.110905 C -52.236241 -84.135593 -53.030291 -87.054567 -54.617491 -88.86851 C -56.204692 -90.73914 -58.330134 -91.674541 -60.994363 -91.674541 C -62.638249 -91.674541 -64.395763 -91.36274 -66.266393 -90.739197 C -68.137022 -90.115654 -69.979244 -89.236897 -71.793187 -88.103182 L -76.469388 -92.609884 L -74.25867 -116.75776 L -71.453156 -119.05375 z M -13.718696 -115.31237 C -16.609668 -115.31237 -18.707046 -113.41351 -20.010818 -109.61556 C -21.257904 -105.81762 -21.880988 -99.497422 -21.880988 -90.654448 C -21.880988 -81.868159 -21.257904 -75.576025 -20.010818 -71.778081 C -18.707046 -68.036822 -16.609668 -66.16602 -13.718696 -66.16602 C -10.827723 -66.16602 -8.7584089 -68.036822 -7.5113227 -71.778081 C -6.2075508 -75.576025 -5.5558865 -81.868159 -5.5558865 -90.654448 C -5.5558865 -99.440737 -6.2075508 -105.73287 -7.5113227 -109.53081 C -8.7584089 -113.38544 -10.827723 -115.31237 -13.718696 -115.31237 z M -91.774913 -101.28274 C -89.790913 -101.28274 -88.317135 -100.68772 -87.353478 -99.497319 C -86.333134 -98.363604 -85.822822 -96.776539 -85.822822 -94.735852 C -85.822822 -92.695166 -86.333134 -91.107584 -87.353478 -89.973869 C -88.317135 -88.840154 -89.790913 -88.273198 -91.774913 -88.273198 C -93.758914 -88.273198 -95.260755 -88.840154 -96.281098 -89.973869 C -97.244756 -91.16427 -97.727005 -92.751852 -97.727005 -94.735852 C -97.727005 -96.833225 -97.244756 -98.448354 -96.281098 -99.582068 C -95.260755 -100.71578 -93.758914 -101.28274 -91.774913 -101.28274 z M -91.774913 -74.498845 C -89.790913 -74.498845 -88.317135 -73.903824 -87.353478 -72.713424 C -86.333134 -71.579709 -85.822822 -69.992127 -85.822822 -67.951441 C -85.822822 -65.910754 -86.333134 -64.323689 -87.353478 -63.189974 C -88.317135 -62.05626 -89.790913 -61.489303 -91.774913 -61.489303 C -93.758914 -61.489303 -95.260755 -62.05626 -96.281098 -63.189974 C -97.244756 -64.380375 -97.727005 -65.96744 -97.727005 -67.951441 C -97.727005 -70.048813 -97.244756 -71.664459 -96.281098 -72.798173 C -95.260755 -73.931888 -93.758914 -74.498845 -91.774913 -74.498845 z " /></g></svg>
