<?xml version="1.0" encoding="UTF-8" standalone="no"?>
<!-- Created with Inkscape (http://www.inkscape.org/) -->

<svg
   width="172.6701mm"
   height="172.6701mm"
   viewBox="0 0 172.6701 172.6701"
   version="1.1"
   id="svg1"
   xml:space="preserve"
   xmlns="http://www.w3.org/2000/svg"
   xmlns:svg="http://www.w3.org/2000/svg"><defs
     id="defs1" /><g
     id="layer1"
     transform="translate(157.25102,198.81012)"><path
       id="path5"
       style="fill:#ffffff;fill-opacity:1;stroke-width:0.805188;stroke-linecap:round;stroke-linejoin:round"
       d="M -2.0863309 -198.17657 L -10.088943 -183.11289 L -10.930235 -165.68398 L -19.198981 -165.68398 L -11.423229 -155.47426 L -12.166336 -140.07934 C -28.353216 -157.12094 -50.823548 -166.77435 -74.327399 -166.78417 C -103.64471 -166.77397 -130.92652 -151.79225 -146.66717 -127.05894 L -157.25102 -127.05894 L -149.61996 -115.86014 L -157.25102 -26.140039 L -8.5138455 -26.140039 L 15.419061 -26.140039 L 8.0799737 -154.80195 L 15.419061 -165.68398 L 7.4593397 -165.68398 L 6.4490654 -183.39297 L -2.0863309 -198.17657 z M -83.43072 -192.21621 C -85.584619 -189.65499 -86.77489 -186.4211 -86.795372 -183.07465 C -86.842092 -175.15518 -80.459903 -168.69733 -72.540428 -168.65072 C -64.621155 -168.60402 -58.163395 -174.98588 -58.116503 -182.90515 C -58.102813 -186.26049 -59.266203 -189.5144 -61.404157 -192.10045 C -60.83125 -190.6836 -60.536835 -189.16959 -60.537027 -187.64129 C -60.575787 -181.07411 -65.930869 -175.78172 -72.498054 -175.82031 C -79.065241 -175.85911 -84.357627 -181.21415 -84.319038 -187.78134 C -84.309338 -189.30285 -84.007827 -190.80837 -83.43072 -192.21621 z M -109.51543 -134.27814 C -97.782033 -134.27814 -88.809495 -131.02406 -82.597696 -124.51646 C -76.287296 -118.00886 -73.132124 -108.59254 -73.132124 -96.267542 C -73.132124 -80.787343 -77.96353 -67.575284 -87.626329 -56.630685 C -97.190529 -45.784685 -111.09286 -37.798107 -129.33386 -32.670907 L -132.88352 -40.065804 C -123.02352 -44.305604 -115.08613 -49.728379 -109.07153 -56.334579 C -103.05693 -63.039379 -99.063901 -70.828662 -97.091901 -79.702662 C -102.6135 -76.941862 -107.98708 -75.561829 -113.21288 -75.561829 C -123.07288 -75.561829 -130.86216 -78.224022 -136.58096 -83.548422 C -142.20116 -88.872821 -145.01146 -96.070736 -145.01146 -105.14194 C -145.01146 -110.76214 -143.53252 -115.79032 -140.57452 -120.22732 C -137.51792 -124.66432 -133.32708 -128.11569 -128.00268 -130.58069 C -122.57968 -133.04569 -116.41743 -134.27814 -109.51543 -134.27814 z M -30.536791 -134.27814 C -18.803391 -134.27814 -9.8308536 -131.02406 -3.6190539 -124.51646 C 2.6913459 -118.00886 5.8465182 -108.59254 5.8465182 -96.267542 C 5.8465182 -80.787343 1.0151121 -67.575284 -8.6476875 -56.630685 C -18.211887 -45.784685 -32.11422 -37.798107 -50.355219 -32.670907 L -53.904873 -40.065804 C -44.044874 -44.305604 -36.10749 -49.728379 -30.09289 -56.334579 C -24.07829 -63.039379 -20.08526 -70.828662 -18.11326 -79.702662 C -23.634859 -76.941862 -29.00844 -75.561829 -34.234239 -75.561829 C -44.094239 -75.561829 -51.883522 -78.224022 -57.602322 -83.548422 C -63.222522 -88.872821 -66.032815 -96.070736 -66.032815 -105.14194 C -66.032815 -110.76214 -64.553877 -115.79032 -61.595877 -120.22732 C -58.539277 -124.66432 -54.348434 -128.11569 -49.024034 -130.58069 C -43.601035 -133.04569 -37.43879 -134.27814 -30.536791 -134.27814 z M -110.40272 -124.07308 C -114.64252 -124.07308 -117.89608 -122.44604 -120.16388 -119.19224 C -122.43168 -115.93844 -123.56574 -111.30433 -123.56574 -105.28973 C -123.56574 -99.17653 -122.33329 -94.394319 -119.86829 -90.943319 C -117.30469 -87.590919 -113.70573 -85.914685 -109.07153 -85.914685 C -105.02893 -85.914685 -100.54292 -87.590919 -95.612922 -90.943319 L -95.612922 -92.866199 C -95.612922 -103.6136 -96.796176 -111.50127 -99.162576 -116.52987 C -101.52898 -121.55847 -105.27552 -124.07308 -110.40272 -124.07308 z M -31.424075 -124.07308 C -35.663875 -124.07308 -38.917436 -122.44604 -41.185236 -119.19224 C -43.453036 -115.93844 -44.587096 -111.30433 -44.587096 -105.28973 C -44.587096 -99.17653 -43.354647 -94.394319 -40.889647 -90.943319 C -38.326047 -87.590919 -34.72709 -85.914685 -30.09289 -85.914685 C -26.05029 -85.914685 -21.56428 -87.590919 -16.63428 -90.943319 L -16.63428 -92.866199 C -16.63428 -103.6136 -17.817534 -111.50127 -20.183934 -116.52987 C -22.550334 -121.55847 -26.296875 -124.07308 -31.424075 -124.07308 z " /></g></svg>
