<?xml version="1.0" encoding="UTF-8" standalone="no"?>
<!-- Created with Inkscape (http://www.inkscape.org/) -->

<svg
   width="172.6701mm"
   height="172.6701mm"
   viewBox="0 0 172.6701 172.6701"
   version="1.1"
   id="svg1"
   xml:space="preserve"
   xmlns="http://www.w3.org/2000/svg"
   xmlns:svg="http://www.w3.org/2000/svg"><defs
     id="defs1" /><g
     id="layer1"
     transform="translate(157.25102,198.81012)"><path
       id="path5"
       style="fill:#ffffff;fill-opacity:1;stroke-width:0.805188;stroke-linecap:round;stroke-linejoin:round"
       d="M -2.0863309 -198.17657 L -10.088943 -183.11289 L -10.930235 -165.68398 L -19.198981 -165.68398 L -11.423229 -155.47426 L -12.166336 -140.07934 C -28.353216 -157.12094 -50.823548 -166.77435 -74.327399 -166.78417 C -103.64471 -166.77397 -130.92652 -151.79225 -146.66717 -127.05894 L -157.25102 -127.05894 L -149.61996 -115.86014 L -157.25102 -26.140039 L -8.5138455 -26.140039 L 15.419061 -26.140039 L 8.0799737 -154.80195 L 15.419061 -165.68398 L 7.4593397 -165.68398 L 6.4490654 -183.39297 L -2.0863309 -198.17657 z M -83.43072 -192.21621 C -85.584619 -189.65499 -86.77489 -186.4211 -86.795372 -183.07465 C -86.842092 -175.15518 -80.459903 -168.69733 -72.540428 -168.65072 C -64.621155 -168.60402 -58.163395 -174.98588 -58.116503 -182.90515 C -58.102813 -186.26049 -59.266203 -189.5144 -61.404157 -192.10045 C -60.83125 -190.6836 -60.536835 -189.16959 -60.537027 -187.64129 C -60.575787 -181.07411 -65.930869 -175.78172 -72.498054 -175.82031 C -79.065241 -175.85911 -84.357627 -181.21415 -84.319038 -187.78134 C -84.309338 -189.30285 -84.007827 -190.80837 -83.43072 -192.21621 z M -107.9176 -133.25443 C -98.223168 -133.25443 -90.505332 -130.85399 -84.763972 -126.05384 C -79.022611 -121.3478 -76.152094 -114.71254 -76.152094 -106.14756 C -76.152094 -98.617906 -79.022611 -90.570344 -84.763972 -82.005363 C -90.505332 -73.534503 -99.964674 -63.322832 -113.14157 -51.369507 L -75.163524 -51.369507 L -75.163524 -37.533659 L -139.11879 -37.533659 L -139.11879 -45.722307 C -128.6714 -55.793218 -120.52993 -64.404768 -114.69444 -71.557939 C -108.85896 -78.71111 -104.67058 -85.299935 -102.12932 -91.323658 C -99.493941 -97.34738 -98.176073 -103.55901 -98.176073 -109.95921 C -98.176073 -120.12424 -101.56466 -125.20686 -108.34134 -125.20686 C -111.35321 -125.20686 -113.80008 -123.79508 -115.6825 -120.97146 C -117.56491 -118.24196 -118.5061 -114.85389 -118.5061 -110.80671 C -118.5061 -107.98309 -117.51796 -105.30039 -115.54142 -102.75914 C -117.14147 -101.2532 -118.97689 -100.07672 -121.04755 -99.229635 C -123.02408 -98.382549 -125.00036 -97.958912 -126.9769 -97.958912 C -130.36524 -97.958912 -133.18932 -98.994527 -135.44822 -101.06518 C -137.70711 -103.22996 -138.83612 -106.33577 -138.83612 -110.38296 C -138.83612 -114.71251 -137.56573 -118.61864 -135.02447 -122.10111 C -132.48321 -125.58357 -128.9068 -128.3127 -124.29489 -130.28924 C -119.58886 -132.26577 -114.12956 -133.25443 -107.9176 -133.25443 z M -34.080244 -132.97176 C -22.879884 -132.97176 -14.314773 -129.86595 -8.3851712 -123.65398 C -2.3614485 -117.44202 0.65045298 -108.45327 0.65045298 -96.688188 C 0.65045298 -81.911243 -3.9615697 -69.299132 -13.185395 -58.851738 C -22.3151 -48.498465 -35.586145 -40.875057 -52.998469 -35.980782 L -56.386376 -43.039783 C -46.974309 -47.086972 -39.397858 -52.2635 -33.656497 -58.569585 C -27.915136 -64.96979 -24.103433 -72.405373 -22.221019 -80.876233 C -27.491777 -78.240855 -32.621349 -76.922986 -37.609744 -76.922986 C -47.021811 -76.922986 -54.457394 -79.464294 -59.916393 -84.54681 C -65.281271 -89.629326 -67.963447 -96.500404 -67.963447 -105.15951 C -67.963447 -110.52438 -66.551666 -115.32423 -63.728046 -119.55966 C -60.810306 -123.79509 -56.810261 -127.08924 -51.727745 -129.44226 C -46.551109 -131.79528 -40.66869 -132.97176 -34.080244 -132.97176 z M -34.92722 -123.23024 C -38.974409 -123.23024 -42.080223 -121.67759 -44.244998 -118.57161 C -46.409773 -115.46562 -47.492345 -111.04194 -47.492345 -105.30058 C -47.492345 -99.465101 -46.315861 -94.900034 -43.962845 -91.605811 C -41.515707 -88.405708 -38.080168 -86.805587 -33.656497 -86.805587 C -29.79755 -86.805587 -25.515252 -88.405708 -20.809219 -91.605811 L -20.809219 -93.441358 C -20.809219 -103.70051 -21.93823 -111.23001 -24.197126 -116.03016 C -26.456022 -120.83031 -30.032946 -123.23024 -34.92722 -123.23024 z " /></g></svg>
