<?xml version="1.0" encoding="UTF-8" standalone="no"?>
<!-- Created with Inkscape (http://www.inkscape.org/) -->

<svg
   width="172.6701mm"
   height="172.6701mm"
   viewBox="0 0 172.6701 172.6701"
   version="1.1"
   id="svg1"
   xml:space="preserve"
   xmlns="http://www.w3.org/2000/svg"
   xmlns:svg="http://www.w3.org/2000/svg"><defs
     id="defs1" /><g
     id="layer1"
     transform="translate(157.25102,198.81012)"><path
       id="path5"
       style="fill:#ffffff;fill-opacity:1;stroke-width:0.805188;stroke-linecap:round;stroke-linejoin:round"
       d="M -2.0863309 -198.17657 L -10.088943 -183.11289 L -10.930235 -165.68398 L -19.198981 -165.68398 L -11.423229 -155.47426 L -12.166336 -140.07934 C -28.353216 -157.12094 -50.823548 -166.77435 -74.327399 -166.78417 C -103.64471 -166.77397 -130.92652 -151.79225 -146.66717 -127.05894 L -157.25102 -127.05894 L -149.61996 -115.86014 L -157.25102 -26.140039 L -8.5138455 -26.140039 L 15.419061 -26.140039 L 8.0799737 -154.80195 L 15.419061 -165.68398 L 7.4593397 -165.68398 L 6.4490654 -183.39297 L -2.0863309 -198.17657 z M -83.43072 -192.21621 C -85.584619 -189.65499 -86.77489 -186.4211 -86.795372 -183.07465 C -86.842092 -175.15518 -80.459903 -168.69733 -72.540428 -168.65072 C -64.621155 -168.60402 -58.163395 -174.98588 -58.116503 -182.90515 C -58.102813 -186.26049 -59.266203 -189.5144 -61.404157 -192.10045 C -60.83125 -190.6836 -60.536835 -189.16959 -60.537027 -187.64129 C -60.575787 -181.07411 -65.930869 -175.78172 -72.498054 -175.82031 C -79.065241 -175.85911 -84.357627 -181.21415 -84.319038 -187.78134 C -84.309338 -189.30285 -84.007827 -190.80837 -83.43072 -192.21621 z M -59.378958 -120.07436 C -54.844099 -119.84761 -51.159139 -118.85557 -48.324852 -117.09831 L -68.56186 -83.767013 L -55.552318 -83.767013 L -54.702241 -97.626632 C -52.888297 -97.626632 -51.584452 -97.995076 -50.790852 -98.731991 C -49.940566 -99.468905 -49.288901 -100.71611 -48.835415 -102.47336 L -43.988683 -102.47336 L -44.073432 -83.341716 C -41.919374 -82.718173 -39.198912 -82.066508 -35.91114 -81.38628 L -36.33592 -77.304875 L -44.498729 -77.304875 L -44.498729 -62.084615 L -55.552318 -62.084615 L -55.552318 -77.304875 L -80.126012 -77.304875 L -80.806074 -80.36567 L -59.378958 -120.07436 z M -127.31641 -119.73381 C -123.63184 -119.73381 -120.37249 -119.11073 -117.5382 -117.86364 C -114.70391 -116.67324 -112.49325 -114.97237 -110.90605 -112.76163 C -109.31884 -110.60757 -108.52531 -108.11368 -108.52531 -105.27939 C -108.52531 -102.10499 -109.46071 -99.384015 -111.33134 -97.116586 C -113.20197 -94.849156 -115.97959 -93.120223 -119.66417 -91.929822 C -115.01594 -90.909479 -111.75658 -89.237189 -109.88595 -86.913074 C -108.01532 -84.588959 -107.07992 -81.442892 -107.07992 -77.474891 C -107.07992 -74.017061 -108.12861 -71.069506 -110.22598 -68.632019 C -112.26667 -66.194533 -114.931 -64.380375 -118.21878 -63.189974 C -121.50655 -61.999574 -124.90777 -61.404554 -128.42229 -61.404554 C -133.524 -61.404554 -137.86011 -62.453243 -141.43131 -64.550615 C -144.94583 -66.647987 -146.70334 -69.510317 -146.70334 -73.138204 C -146.70334 -75.235577 -146.07974 -76.851222 -144.83266 -77.984937 C -143.58557 -79.175337 -142.02657 -79.770358 -140.15594 -79.770358 C -138.22862 -79.770358 -136.27311 -79.005405 -134.28911 -77.474891 C -134.79929 -76.397862 -135.05444 -75.094016 -135.05444 -73.563501 C -135.05444 -71.749558 -134.51555 -70.275781 -133.43852 -69.142066 C -132.30481 -68.008351 -130.63303 -67.441394 -128.42229 -67.441394 C -123.54732 -67.441394 -121.10956 -70.814037 -121.10956 -77.55964 C -121.10956 -81.244213 -122.30011 -84.10706 -124.68092 -86.147746 C -127.00503 -88.188433 -130.32103 -89.208541 -134.62915 -89.208541 L -134.62915 -94.480571 C -126.29634 -95.1608 -122.13017 -98.760535 -122.13017 -105.27939 C -122.13017 -108.56717 -122.63996 -110.97583 -123.66031 -112.50634 C -124.68065 -114.09354 -126.06972 -114.88759 -127.82698 -114.88759 C -129.92435 -114.88759 -131.51141 -114.15071 -132.58844 -112.67688 C -133.60879 -111.20305 -134.1191 -109.41747 -134.1191 -107.3201 C -134.1191 -105.44947 -133.72207 -103.77718 -132.92847 -102.30335 C -134.51567 -100.60278 -136.55641 -99.752084 -139.05058 -99.752084 C -141.31801 -99.752084 -143.07552 -100.43233 -144.32261 -101.79279 C -145.5697 -103.15324 -146.19278 -104.91076 -146.19278 -107.06482 C -146.19278 -109.8991 -145.22932 -112.25164 -143.302 -114.12227 C -141.318 -116.04958 -138.88076 -117.46671 -135.98979 -118.37369 C -133.04213 -119.28066 -130.1507 -119.73381 -127.31641 -119.73381 z M -12.953368 -119.73381 C -7.1147371 -119.73381 -2.4663124 -118.28861 0.99151743 -115.39764 C 4.4493473 -112.56335 6.1782809 -108.56711 6.1782809 -103.40871 C 6.1782809 -98.873849 4.4493473 -94.026912 0.99151743 -88.86851 C -2.4663124 -83.766794 -8.1634261 -77.616529 -16.099429 -70.41744 L 6.7735934 -70.41744 L 6.7735934 -62.084615 L -31.744469 -62.084615 L -31.744469 -67.016097 C -25.452352 -73.081471 -20.549288 -78.268272 -17.034772 -82.576388 C -13.520257 -86.884504 -10.997791 -90.852684 -9.4672757 -94.480571 C -7.8800751 -98.108458 -7.0860257 -101.84955 -7.0860257 -105.70418 C -7.0860257 -111.82623 -9.1267597 -114.88759 -13.208133 -114.88759 C -15.022076 -114.88759 -16.495853 -114.0369 -17.629568 -112.33633 C -18.763283 -110.69244 -19.33024 -108.65171 -19.33024 -106.21422 C -19.33024 -104.51365 -18.735219 -102.89852 -17.544819 -101.36801 C -18.508476 -100.46103 -19.613809 -99.752209 -20.860895 -99.242037 C -22.051296 -98.731866 -23.241853 -98.476709 -24.432254 -98.476709 C -26.47294 -98.476709 -28.173293 -99.10031 -29.533751 -100.3474 C -30.894209 -101.65117 -31.574453 -103.52197 -31.574453 -105.95946 C -31.574453 -108.567 -30.808984 -110.91953 -29.27847 -113.01691 C -27.747955 -115.11428 -25.593933 -116.75799 -22.816332 -117.94839 C -19.982045 -119.13879 -16.694626 -119.73381 -12.953368 -119.73381 z M -92.029678 -101.28274 C -90.045677 -101.28274 -88.5719 -100.68772 -87.608242 -99.497319 C -86.587899 -98.363604 -86.077587 -96.776539 -86.077587 -94.735852 C -86.077587 -92.695166 -86.587899 -91.107584 -87.608242 -89.973869 C -88.5719 -88.840154 -90.045677 -88.273198 -92.029678 -88.273198 C -94.013679 -88.273198 -95.516036 -88.840154 -96.53638 -89.973869 C -97.500037 -91.16427 -97.98177 -92.751852 -97.98177 -94.735852 C -97.98177 -96.833225 -97.500037 -98.448354 -96.53638 -99.582068 C -95.516036 -100.71578 -94.013679 -101.28274 -92.029678 -101.28274 z M -92.029678 -74.498845 C -90.045677 -74.498845 -88.5719 -73.903824 -87.608242 -72.713424 C -86.587899 -71.579709 -86.077587 -69.992127 -86.077587 -67.951441 C -86.077587 -65.910754 -86.587899 -64.323689 -87.608242 -63.189974 C -88.5719 -62.05626 -90.045677 -61.489303 -92.029678 -61.489303 C -94.013679 -61.489303 -95.516036 -62.05626 -96.53638 -63.189974 C -97.500037 -64.380375 -97.98177 -65.96744 -97.98177 -67.951441 C -97.98177 -70.048813 -97.500037 -71.664459 -96.53638 -72.798173 C -95.516036 -73.931888 -94.013679 -74.498845 -92.029678 -74.498845 z " /></g></svg>
