<?xml version="1.0" encoding="UTF-8" standalone="no"?>
<!-- Created with Inkscape (http://www.inkscape.org/) -->

<svg
   width="172.6701mm"
   height="172.6701mm"
   viewBox="0 0 172.6701 172.6701"
   version="1.1"
   id="svg1"
   xml:space="preserve"
   xmlns="http://www.w3.org/2000/svg"
   xmlns:svg="http://www.w3.org/2000/svg"><defs
     id="defs1" /><g
     id="layer1"
     transform="translate(157.25102,198.81012)"><path
       id="path5"
       style="fill:#ffffff;fill-opacity:1;stroke-width:0.805188;stroke-linecap:round;stroke-linejoin:round"
       d="M -2.0863309 -198.17657 L -10.088943 -183.11289 L -10.930235 -165.68398 L -19.198981 -165.68398 L -11.423229 -155.47426 L -12.166336 -140.07934 C -28.353216 -157.12094 -50.823548 -166.77435 -74.327399 -166.78417 C -103.64471 -166.77397 -130.92652 -151.79225 -146.66717 -127.05894 L -157.25102 -127.05894 L -149.61996 -115.86014 L -157.25102 -26.140039 L -8.5138455 -26.140039 L 15.419061 -26.140039 L 8.0799737 -154.80195 L 15.419061 -165.68398 L 7.4593397 -165.68398 L 6.4490654 -183.39297 L -2.0863309 -198.17657 z M -83.43072 -192.21621 C -85.584619 -189.65499 -86.77489 -186.4211 -86.795372 -183.07465 C -86.842092 -175.15518 -80.459903 -168.69733 -72.540428 -168.65072 C -64.621155 -168.60402 -58.163395 -174.98588 -58.116503 -182.90515 C -58.102813 -186.26049 -59.266203 -189.5144 -61.404157 -192.10045 C -60.83125 -190.6836 -60.536835 -189.16959 -60.537027 -187.64129 C -60.575787 -181.07411 -65.930869 -175.78172 -72.498054 -175.82031 C -79.065241 -175.85911 -84.357627 -181.21415 -84.319038 -187.78134 C -84.309338 -189.30285 -84.007827 -190.80837 -83.43072 -192.21621 z M -58.996035 -119.73381 C -55.311463 -119.73381 -52.052108 -119.11073 -49.217821 -117.86364 C -46.383534 -116.67324 -44.172868 -114.97237 -42.585668 -112.76163 C -40.998467 -110.60757 -40.204934 -108.11368 -40.204934 -105.27939 C -40.204934 -102.10499 -41.140335 -99.384015 -43.010965 -97.116586 C -44.881594 -94.849156 -47.659217 -93.120223 -51.343789 -91.929822 C -46.695559 -90.909479 -43.435687 -89.237189 -41.565058 -86.913074 C -39.694429 -84.588959 -38.759545 -81.442892 -38.759545 -77.474891 C -38.759545 -74.017061 -39.808234 -71.069506 -41.905606 -68.632019 C -43.946292 -66.194533 -46.61011 -64.380375 -49.897883 -63.189974 C -53.185655 -61.999574 -56.586879 -61.404554 -60.101394 -61.404554 C -65.203111 -61.404554 -69.539735 -62.453243 -73.110936 -64.550615 C -76.625452 -66.647987 -78.382449 -69.510317 -78.382449 -73.138204 C -78.382449 -75.235577 -77.759365 -76.851222 -76.512279 -77.984937 C -75.265193 -79.175337 -73.706191 -79.770358 -71.835562 -79.770358 C -69.908247 -79.770358 -67.952737 -79.005405 -65.968736 -77.474891 C -66.478908 -76.397862 -66.733548 -75.094016 -66.733548 -73.563501 C -66.733548 -71.749558 -66.195171 -70.275781 -65.118142 -69.142066 C -63.984428 -68.008351 -62.312138 -67.441394 -60.101394 -67.441394 C -55.226421 -67.441394 -52.789179 -70.814037 -52.789179 -77.55964 C -52.789179 -81.244213 -53.97922 -84.10706 -56.360021 -86.147746 C -58.684136 -88.188433 -62.000652 -89.208541 -66.308767 -89.208541 L -66.308767 -94.480571 C -57.975964 -95.1608 -53.809272 -98.760535 -53.809272 -105.27939 C -53.809272 -108.56717 -54.319585 -110.97583 -55.339928 -112.50634 C -56.360271 -114.09354 -57.748824 -114.88759 -59.506082 -114.88759 C -61.603454 -114.88759 -63.191036 -114.15071 -64.268065 -112.67688 C -65.288408 -111.20305 -65.798204 -109.41747 -65.798204 -107.3201 C -65.798204 -105.44947 -65.401696 -103.77718 -64.608096 -102.30335 C -66.195297 -100.60278 -68.236031 -99.752084 -70.730203 -99.752084 C -72.997632 -99.752084 -74.75463 -100.43233 -76.001716 -101.79279 C -77.248802 -103.15324 -77.872403 -104.91076 -77.872403 -107.06482 C -77.872403 -109.8991 -76.908938 -112.25164 -74.981623 -114.12227 C -72.997622 -116.04958 -70.559864 -117.46671 -67.668891 -118.37369 C -64.721233 -119.28066 -61.830322 -119.73381 -58.996035 -119.73381 z M -13.675804 -119.64906 C -7.0435733 -119.64906 -1.9705771 -117.15466 1.5439385 -112.16631 C 5.1151398 -107.23465 6.9007175 -100.06428 6.9007175 -90.654448 C 6.9007175 -81.244616 5.1151398 -74.017081 1.5439385 -68.97205 C -1.9705771 -63.983706 -7.0435733 -61.489303 -13.675804 -61.489303 C -20.308035 -61.489303 -25.410129 -63.983706 -28.98133 -68.97205 C -32.552531 -74.017081 -34.338109 -81.244616 -34.338109 -90.654448 C -34.338109 -100.00759 -32.552531 -107.17797 -28.98133 -112.16631 C -25.410129 -117.15466 -20.308035 -119.64906 -13.675804 -119.64906 z M -138.41289 -119.05375 L -134.16147 -118.969 C -128.15279 -118.85563 -124.97865 -118.79847 -124.63854 -118.79847 L -112.56434 -118.969 L -110.09834 -117.18306 L -110.86367 -110.72092 L -131.95076 -110.72092 L -133.14138 -96.521273 C -130.19372 -97.258188 -127.52939 -97.626632 -125.14859 -97.626632 C -119.5367 -97.626632 -114.9735 -96.124274 -111.45898 -93.11993 C -107.88778 -90.172272 -106.1022 -85.836165 -106.1022 -80.110905 C -106.1022 -76.539704 -106.95238 -73.336993 -108.65295 -70.502706 C -110.29684 -67.66842 -112.67744 -65.429173 -115.79515 -63.785287 C -118.91287 -62.198086 -122.59783 -61.404554 -126.84926 -61.404554 C -130.30709 -61.404554 -133.45315 -61.886286 -136.28744 -62.849943 C -139.06504 -63.813601 -141.24713 -65.14551 -142.83433 -66.846082 C -144.42153 -68.60334 -145.21506 -70.559366 -145.21506 -72.713424 C -145.21506 -74.980853 -144.59198 -76.709787 -143.34489 -77.900188 C -142.09781 -79.147274 -140.56687 -79.770358 -138.75292 -79.770358 C -137.73258 -79.770358 -136.71247 -79.572362 -135.69213 -79.175562 C -134.6151 -78.778762 -133.65112 -78.211805 -132.80083 -77.474891 C -133.311 -76.28449 -133.56616 -75.037289 -133.56616 -73.733517 C -133.56616 -71.862888 -133.02778 -70.332466 -131.95076 -69.142066 C -130.81704 -67.951665 -129.11669 -67.356645 -126.84926 -67.356645 C -121.74754 -67.356645 -119.1965 -71.608045 -119.1965 -80.110905 C -119.1965 -84.135593 -119.99003 -87.054567 -121.57723 -88.86851 C -123.16443 -90.73914 -125.29039 -91.674541 -127.95462 -91.674541 C -129.5985 -91.674541 -131.3555 -91.36274 -133.22613 -90.739197 C -135.09676 -90.115654 -136.93898 -89.236897 -138.75292 -88.103182 L -143.42964 -92.609884 L -141.21892 -116.75776 L -138.41289 -119.05375 z M -13.675804 -115.31237 C -16.566777 -115.31237 -18.664155 -113.41351 -19.967927 -109.61556 C -21.215013 -105.81762 -21.838614 -99.497422 -21.838614 -90.654448 C -21.838614 -81.868159 -21.215013 -75.576025 -19.967927 -71.778081 C -18.664155 -68.036822 -16.566777 -66.16602 -13.675804 -66.16602 C -10.784832 -66.16602 -8.7160342 -68.036822 -7.4689481 -71.778081 C -6.1651762 -75.576025 -5.5129951 -81.868159 -5.5129951 -90.654448 C -5.5129951 -99.440737 -6.1651762 -105.73287 -7.4689481 -109.53081 C -8.7160342 -113.38544 -10.784832 -115.31237 -13.675804 -115.31237 z M -90.711929 -101.28274 C -88.727928 -101.28274 -87.254151 -100.68772 -86.290493 -99.497319 C -85.27015 -98.363604 -84.759838 -96.776539 -84.759838 -94.735852 C -84.759838 -92.695166 -85.27015 -91.107584 -86.290493 -89.973869 C -87.254151 -88.840154 -88.727928 -88.273198 -90.711929 -88.273198 C -92.69593 -88.273198 -94.198287 -88.840154 -95.218631 -89.973869 C -96.182288 -91.16427 -96.66402 -92.751852 -96.66402 -94.735852 C -96.66402 -96.833225 -96.182288 -98.448354 -95.218631 -99.582068 C -94.198287 -100.71578 -92.69593 -101.28274 -90.711929 -101.28274 z M -90.711929 -74.498845 C -88.727928 -74.498845 -87.254151 -73.903824 -86.290493 -72.713424 C -85.27015 -71.579709 -84.759838 -69.992127 -84.759838 -67.951441 C -84.759838 -65.910754 -85.27015 -64.323689 -86.290493 -63.189974 C -87.254151 -62.05626 -88.727928 -61.489303 -90.711929 -61.489303 C -92.69593 -61.489303 -94.198287 -62.05626 -95.218631 -63.189974 C -96.182288 -64.380375 -96.66402 -65.96744 -96.66402 -67.951441 C -96.66402 -70.048813 -96.182288 -71.664459 -95.218631 -72.798173 C -94.198287 -73.931888 -92.69593 -74.498845 -90.711929 -74.498845 z " /></g></svg>
