<?xml version="1.0" encoding="UTF-8" standalone="no"?>
<!-- Created with Inkscape (http://www.inkscape.org/) -->

<svg
   width="172.6701mm"
   height="172.6701mm"
   viewBox="0 0 172.6701 172.6701"
   version="1.1"
   id="svg1"
   xml:space="preserve"
   xmlns="http://www.w3.org/2000/svg"
   xmlns:svg="http://www.w3.org/2000/svg"><defs
     id="defs1" /><g
     id="layer1"
     transform="translate(157.25102,198.81012)"><path
       id="path5"
       style="fill:#ffffff;fill-opacity:1;stroke-width:0.805188;stroke-linecap:round;stroke-linejoin:round"
       d="M -2.0863309 -198.17657 L -10.088943 -183.11289 L -10.930235 -165.68398 L -19.198981 -165.68398 L -11.423229 -155.47426 L -12.166336 -140.07934 C -28.353216 -157.12094 -50.823548 -166.77435 -74.327399 -166.78417 C -103.64471 -166.77397 -130.92652 -151.79225 -146.66717 -127.05894 L -157.25102 -127.05894 L -149.61996 -115.86014 L -157.25102 -26.140039 L -8.5138455 -26.140039 L 15.419061 -26.140039 L 8.0799737 -154.80195 L 15.419061 -165.68398 L 7.4593397 -165.68398 L 6.4490654 -183.39297 L -2.0863309 -198.17657 z M -83.43072 -192.21621 C -85.584619 -189.65499 -86.77489 -186.4211 -86.795372 -183.07465 C -86.842092 -175.15518 -80.459903 -168.69733 -72.540428 -168.65072 C -64.621155 -168.60402 -58.163395 -174.98588 -58.116503 -182.90515 C -58.102813 -186.26049 -59.266203 -189.5144 -61.404157 -192.10045 C -60.83125 -190.6836 -60.536835 -189.16959 -60.537027 -187.64129 C -60.575787 -181.07411 -65.930869 -175.78172 -72.498054 -175.82031 C -79.065241 -175.85911 -84.357627 -181.21415 -84.319038 -187.78134 C -84.309338 -189.30285 -84.007827 -190.80837 -83.43072 -192.21621 z M -125.57337 -119.73381 C -119.73474 -119.73381 -115.08683 -118.28861 -111.629 -115.39764 C -108.17117 -112.56335 -106.44224 -108.56711 -106.44224 -103.40871 C -106.44224 -98.873849 -108.17117 -94.026912 -111.629 -88.86851 C -115.08683 -83.766794 -120.78343 -77.616529 -128.71943 -70.41744 L -105.84692 -70.41744 L -105.84692 -62.084615 L -144.36498 -62.084615 L -144.36498 -67.016097 C -138.07287 -73.081471 -133.16929 -78.268272 -129.65477 -82.576388 C -126.14026 -86.884504 -123.61779 -90.852684 -122.08727 -94.480571 C -120.50007 -98.108458 -119.70654 -101.84955 -119.70654 -105.70418 C -119.70654 -111.82623 -121.74728 -114.88759 -125.82865 -114.88759 C -127.64259 -114.88759 -129.11637 -114.0369 -130.25008 -112.33633 C -131.3838 -110.69244 -131.95076 -108.65171 -131.95076 -106.21422 C -131.95076 -104.51365 -131.35574 -102.89852 -130.16533 -101.36801 C -131.12899 -100.46103 -132.23433 -99.752209 -133.48141 -99.242037 C -134.67181 -98.731866 -135.86185 -98.476709 -137.05225 -98.476709 C -139.09294 -98.476709 -140.79381 -99.10031 -142.15427 -100.3474 C -143.51472 -101.65117 -144.19497 -103.52197 -144.19497 -105.95946 C -144.19497 -108.567 -143.4295 -110.91953 -141.89899 -113.01691 C -140.36847 -115.11428 -138.21445 -116.75799 -135.43685 -117.94839 C -132.60256 -119.13879 -129.31463 -119.73381 -125.57337 -119.73381 z M -14.781163 -119.73381 C -11.09659 -119.73381 -7.8372355 -119.11073 -5.0029487 -117.86364 C -2.168662 -116.67324 0.042004028 -114.97237 1.6292046 -112.76163 C 3.2164052 -110.60757 4.0099378 -108.11368 4.0099378 -105.27939 C 4.0099378 -102.10499 3.0745368 -99.384015 1.2039076 -97.116586 C -0.66672169 -94.849156 -3.4443444 -93.120223 -7.1289171 -91.929822 C -2.4806869 -90.909479 0.77918489 -89.237189 2.6498141 -86.913074 C 4.5204434 -84.588959 5.4553277 -81.442892 5.4553277 -77.474891 C 5.4553277 -74.017061 4.4066387 -71.069506 2.3092665 -68.632019 C 0.26858 -66.194533 -2.3952379 -64.380375 -5.6830106 -63.189974 C -8.9707832 -61.999574 -12.372007 -61.404554 -15.886522 -61.404554 C -20.988238 -61.404554 -25.324863 -62.453243 -28.896064 -64.550615 C -32.41058 -66.647987 -34.167577 -69.510317 -34.167577 -73.138204 C -34.167577 -75.235577 -33.543976 -76.851222 -32.29689 -77.984937 C -31.049804 -79.175337 -29.491319 -79.770358 -27.62069 -79.770358 C -25.693375 -79.770358 -23.737348 -79.005405 -21.753347 -77.474891 C -22.263519 -76.397862 -22.518675 -75.094016 -22.518675 -73.563501 C -22.518675 -71.749558 -21.980299 -70.275781 -20.90327 -69.142066 C -19.769555 -68.008351 -18.097266 -67.441394 -15.886522 -67.441394 C -11.011549 -67.441394 -8.5743069 -70.814037 -8.5743069 -77.55964 C -8.5743069 -81.244213 -9.7643475 -84.10706 -12.145148 -86.147746 C -14.469264 -88.188433 -17.785779 -89.208541 -22.093895 -89.208541 L -22.093895 -94.480571 C -13.761092 -95.1608 -9.5943997 -98.760535 -9.5943997 -105.27939 C -9.5943997 -108.56717 -10.104712 -110.97583 -11.125056 -112.50634 C -12.145399 -114.09354 -13.533952 -114.88759 -15.29121 -114.88759 C -17.388582 -114.88759 -18.976164 -114.15071 -20.053193 -112.67688 C -21.073536 -111.20305 -21.583332 -109.41747 -21.583332 -107.3201 C -21.583332 -105.44947 -21.186824 -103.77718 -20.393224 -102.30335 C -21.980424 -100.60278 -24.021158 -99.752084 -26.515331 -99.752084 C -28.78276 -99.752084 -30.539757 -100.43233 -31.786844 -101.79279 C -33.03393 -103.15324 -33.65753 -104.91076 -33.65753 -107.06482 C -33.65753 -109.8991 -32.694066 -112.25164 -30.766751 -114.12227 C -28.78275 -116.04958 -26.344991 -117.46671 -23.454019 -118.37369 C -20.506361 -119.28066 -17.61545 -119.73381 -14.781163 -119.73381 z M -70.390172 -119.05375 L -66.138752 -118.969 C -60.130064 -118.85563 -56.955417 -118.79847 -56.615302 -118.79847 L -44.541104 -118.969 L -42.075621 -117.18306 L -42.840949 -110.72092 L -63.928034 -110.72092 L -65.118142 -96.521273 C -62.170484 -97.258188 -59.506149 -97.626632 -57.125349 -97.626632 C -51.513461 -97.626632 -46.950261 -96.124274 -43.435745 -93.11993 C -39.864544 -90.172272 -38.078966 -85.836165 -38.078966 -80.110905 C -38.078966 -76.539704 -38.929659 -73.336993 -40.630231 -70.502706 C -42.274118 -67.66842 -44.654716 -65.429173 -47.772431 -63.785287 C -50.890147 -62.198086 -54.57459 -61.404554 -58.82602 -61.404554 C -62.28385 -61.404554 -65.429917 -61.886286 -68.264204 -62.849943 C -71.041805 -63.813601 -73.224407 -65.14551 -74.811608 -66.846082 C -76.398808 -68.60334 -77.192341 -70.559366 -77.192341 -72.713424 C -77.192341 -74.980853 -76.56874 -76.709787 -75.321654 -77.900188 C -74.074568 -79.147274 -72.544146 -79.770358 -70.730203 -79.770358 C -69.70986 -79.770358 -68.689234 -79.572362 -67.668891 -79.175562 C -66.591862 -78.778762 -65.628397 -78.211805 -64.778111 -77.474891 C -65.288283 -76.28449 -65.543439 -75.037289 -65.543439 -73.733517 C -65.543439 -71.862888 -65.005063 -70.332466 -63.928034 -69.142066 C -62.794319 -67.951665 -61.093449 -67.356645 -58.82602 -67.356645 C -53.724304 -67.356645 -51.173774 -71.608045 -51.173774 -80.110905 C -51.173774 -84.135593 -51.967307 -87.054567 -53.554507 -88.86851 C -55.141708 -90.73914 -57.267149 -91.674541 -59.931379 -91.674541 C -61.575265 -91.674541 -63.332779 -91.36274 -65.203409 -90.739197 C -67.074038 -90.115654 -68.916259 -89.236897 -70.730203 -88.103182 L -75.40692 -92.609884 L -73.195686 -116.75776 L -70.390172 -119.05375 z M -90.711929 -101.28274 C -88.727928 -101.28274 -87.254151 -100.68772 -86.290493 -99.497319 C -85.27015 -98.363604 -84.759838 -96.776539 -84.759838 -94.735852 C -84.759838 -92.695166 -85.27015 -91.107584 -86.290493 -89.973869 C -87.254151 -88.840154 -88.727928 -88.273198 -90.711929 -88.273198 C -92.69593 -88.273198 -94.198287 -88.840154 -95.218631 -89.973869 C -96.182288 -91.16427 -96.66402 -92.751852 -96.66402 -94.735852 C -96.66402 -96.833225 -96.182288 -98.448354 -95.218631 -99.582068 C -94.198287 -100.71578 -92.69593 -101.28274 -90.711929 -101.28274 z M -90.711929 -74.498845 C -88.727928 -74.498845 -87.254151 -73.903824 -86.290493 -72.713424 C -85.27015 -71.579709 -84.759838 -69.992127 -84.759838 -67.951441 C -84.759838 -65.910754 -85.27015 -64.323689 -86.290493 -63.189974 C -87.254151 -62.05626 -88.727928 -61.489303 -90.711929 -61.489303 C -92.69593 -61.489303 -94.198287 -62.05626 -95.218631 -63.189974 C -96.182288 -64.380375 -96.66402 -65.96744 -96.66402 -67.951441 C -96.66402 -70.048813 -96.182288 -71.664459 -95.218631 -72.798173 C -94.198287 -73.931888 -92.69593 -74.498845 -90.711929 -74.498845 z " /></g></svg>
