<?xml version="1.0" encoding="UTF-8" standalone="no"?>
<!-- Created with Inkscape (http://www.inkscape.org/) -->

<svg
   width="172.6701mm"
   height="172.6701mm"
   viewBox="0 0 172.6701 172.6701"
   version="1.1"
   id="svg1"
   xml:space="preserve"
   xmlns="http://www.w3.org/2000/svg"
   xmlns:svg="http://www.w3.org/2000/svg"><defs
     id="defs1" /><g
     id="layer1"
     transform="translate(157.25102,198.81012)"><path
       id="path5"
       style="fill:#ffffff;fill-opacity:1;stroke-width:0.805188;stroke-linecap:round;stroke-linejoin:round"
       d="M -2.0863309 -198.17657 L -10.088943 -183.11289 L -10.930235 -165.68398 L -19.198981 -165.68398 L -11.423229 -155.47426 L -12.166336 -140.07934 C -28.353216 -157.12094 -50.823548 -166.77435 -74.327399 -166.78417 C -103.64471 -166.77397 -130.92652 -151.79225 -146.66717 -127.05894 L -157.25102 -127.05894 L -149.61996 -115.86014 L -157.25102 -26.140039 L -8.5138455 -26.140039 L 15.419061 -26.140039 L 8.0799737 -154.80195 L 15.419061 -165.68398 L 7.4593397 -165.68398 L 6.4490654 -183.39297 L -2.0863309 -198.17657 z M -83.43072 -192.21621 C -85.584619 -189.65499 -86.77489 -186.4211 -86.795372 -183.07465 C -86.842092 -175.15518 -80.459903 -168.69733 -72.540428 -168.65072 C -64.621155 -168.60402 -58.163395 -174.98588 -58.116503 -182.90515 C -58.102813 -186.26049 -59.266203 -189.5144 -61.404157 -192.10045 C -60.83125 -190.6836 -60.536835 -189.16959 -60.537027 -187.64129 C -60.575787 -181.07411 -65.930869 -175.78172 -72.498054 -175.82031 C -79.065241 -175.85911 -84.357627 -181.21415 -84.319038 -187.78134 C -84.309338 -189.30285 -84.007827 -190.80837 -83.43072 -192.21621 z M -59.718989 -119.73381 C -53.880358 -119.73381 -49.231933 -118.28861 -45.774103 -115.39764 C -42.316274 -112.56335 -40.58734 -108.56711 -40.58734 -103.40871 C -40.58734 -98.873849 -42.316274 -94.026912 -45.774103 -88.86851 C -49.231933 -83.766794 -54.929047 -77.616529 -62.86505 -70.41744 L -39.992544 -70.41744 L -39.992544 -62.084615 L -78.51009 -62.084615 L -78.51009 -67.016097 C -72.217973 -73.081471 -67.314909 -78.268272 -63.800393 -82.576388 C -60.285878 -86.884504 -57.763411 -90.852684 -56.232897 -94.480571 C -54.645696 -98.108458 -53.852163 -101.84955 -53.852163 -105.70418 C -53.852163 -111.82623 -55.892897 -114.88759 -59.97427 -114.88759 C -61.788214 -114.88759 -63.261991 -114.0369 -64.395706 -112.33633 C -65.529421 -110.69244 -66.096377 -108.65171 -66.096377 -106.21422 C -66.096377 -104.51365 -65.50084 -102.89852 -64.31044 -101.36801 C -65.274097 -100.46103 -66.37943 -99.752209 -67.626516 -99.242037 C -68.816917 -98.731866 -70.007474 -98.476709 -71.197875 -98.476709 C -73.238561 -98.476709 -74.938914 -99.10031 -76.299372 -100.3474 C -77.65983 -101.65117 -78.340074 -103.52197 -78.340074 -105.95946 C -78.340074 -108.567 -77.575122 -110.91953 -76.044607 -113.01691 C -74.514092 -115.11428 -72.36007 -116.75799 -69.582469 -117.94839 C -66.748183 -119.13879 -63.460247 -119.73381 -59.718989 -119.73381 z M -14.824055 -119.64906 C -8.1918237 -119.64906 -3.1183106 -117.15466 0.39620493 -112.16631 C 3.9674062 -107.23465 5.7529839 -100.06428 5.7529839 -90.654448 C 5.7529839 -81.244616 3.9674062 -74.017081 0.39620493 -68.97205 C -3.1183106 -63.983706 -8.1918237 -61.489303 -14.824055 -61.489303 C -21.456286 -61.489303 -26.557862 -63.983706 -30.129064 -68.97205 C -33.700265 -74.017081 -35.485843 -81.244616 -35.485843 -90.654448 C -35.485843 -100.00759 -33.700265 -107.17797 -30.129064 -112.16631 C -26.557862 -117.15466 -21.456286 -119.64906 -14.824055 -119.64906 z M -144.06733 -118.88373 L -139.90117 -118.88373 C -137.74712 -118.82705 -133.04205 -118.79847 -125.78627 -118.79847 C -118.24707 -118.79847 -113.34349 -118.82705 -111.07606 -118.88373 L -106.99466 -118.88373 L -105.2945 -115.22762 C -106.37153 -113.52705 -108.41226 -109.84261 -111.41661 -104.17404 C -114.42095 -98.505463 -117.25522 -92.496548 -119.91945 -86.147746 C -122.58368 -79.798944 -123.91559 -74.838719 -123.91559 -71.267517 C -123.91559 -68.433231 -122.92354 -66.307789 -120.93954 -64.890646 C -122.86686 -62.566531 -125.33268 -61.404554 -128.33702 -61.404554 C -131.11462 -61.404554 -133.26865 -62.169506 -134.79916 -63.700021 C -136.32968 -65.230536 -137.09514 -67.356494 -137.09514 -70.077409 C -137.09514 -73.478553 -136.27303 -77.077772 -134.62915 -80.875717 C -132.98526 -84.730347 -130.0377 -89.945728 -125.78627 -96.521273 L -115.75278 -111.9963 L -135.13919 -111.9963 C -135.93279 -109.44544 -136.41504 -106.44124 -136.5851 -102.98341 C -137.60544 -102.81335 -138.65361 -102.72813 -139.73064 -102.72813 C -140.86436 -102.72813 -141.97021 -102.81335 -143.04724 -102.98341 L -145.42797 -117.60836 L -144.06733 -118.88373 z M -14.824055 -115.31237 C -17.715027 -115.31237 -19.812405 -113.41351 -21.116177 -109.61556 C -22.363263 -105.81762 -22.986864 -99.497422 -22.986864 -90.654448 C -22.986864 -81.868159 -22.363263 -75.576025 -21.116177 -71.778081 C -19.812405 -68.036822 -17.715027 -66.16602 -14.824055 -66.16602 C -11.933082 -66.16602 -9.8637678 -68.036822 -8.6166816 -71.778081 C -7.3129097 -75.576025 -6.6612454 -81.868159 -6.6612454 -90.654448 C -6.6612454 -99.440737 -7.3129097 -105.73287 -8.6166816 -109.53081 C -9.8637678 -113.38544 -11.933082 -115.31237 -14.824055 -115.31237 z M -91.774913 -101.28274 C -89.790913 -101.28274 -88.317135 -100.68772 -87.353478 -99.497319 C -86.333134 -98.363604 -85.822822 -96.776539 -85.822822 -94.735852 C -85.822822 -92.695166 -86.333134 -91.107584 -87.353478 -89.973869 C -88.317135 -88.840154 -89.790913 -88.273198 -91.774913 -88.273198 C -93.758914 -88.273198 -95.260755 -88.840154 -96.281098 -89.973869 C -97.244756 -91.16427 -97.727005 -92.751852 -97.727005 -94.735852 C -97.727005 -96.833225 -97.244756 -98.448354 -96.281098 -99.582068 C -95.260755 -100.71578 -93.758914 -101.28274 -91.774913 -101.28274 z M -91.774913 -74.498845 C -89.790913 -74.498845 -88.317135 -73.903824 -87.353478 -72.713424 C -86.333134 -71.579709 -85.822822 -69.992127 -85.822822 -67.951441 C -85.822822 -65.910754 -86.333134 -64.323689 -87.353478 -63.189974 C -88.317135 -62.05626 -89.790913 -61.489303 -91.774913 -61.489303 C -93.758914 -61.489303 -95.260755 -62.05626 -96.281098 -63.189974 C -97.244756 -64.380375 -97.727005 -65.96744 -97.727005 -67.951441 C -97.727005 -70.048813 -97.244756 -71.664459 -96.281098 -72.798173 C -95.260755 -73.931888 -93.758914 -74.498845 -91.774913 -74.498845 z " /></g></svg>
