<?xml version="1.0" encoding="UTF-8" standalone="no"?>
<!-- Created with Inkscape (http://www.inkscape.org/) -->

<svg
   width="172.6701mm"
   height="172.6701mm"
   viewBox="0 0 172.6701 172.6701"
   version="1.1"
   id="svg1"
   xml:space="preserve"
   xmlns="http://www.w3.org/2000/svg"
   xmlns:svg="http://www.w3.org/2000/svg"><defs
     id="defs1" /><g
     id="layer1"
     transform="translate(157.25102,198.81012)"><path
       id="path5"
       style="fill:#ffffff;fill-opacity:1;stroke-width:0.805188;stroke-linecap:round;stroke-linejoin:round"
       d="M -2.0863309 -198.17657 L -10.088943 -183.11289 L -10.930235 -165.68398 L -19.198981 -165.68398 L -11.423229 -155.47426 L -12.166336 -140.07934 C -28.353216 -157.12094 -50.823548 -166.77435 -74.327399 -166.78417 C -103.64471 -166.77397 -130.92652 -151.79225 -146.66717 -127.05894 L -157.25102 -127.05894 L -149.61996 -115.86014 L -157.25102 -26.140039 L -8.5138455 -26.140039 L 15.419061 -26.140039 L 8.0799737 -154.80195 L 15.419061 -165.68398 L 7.4593397 -165.68398 L 6.4490654 -183.39297 L -2.0863309 -198.17657 z M -83.43072 -192.21621 C -85.584619 -189.65499 -86.77489 -186.4211 -86.795372 -183.07465 C -86.842092 -175.15518 -80.459903 -168.69733 -72.540428 -168.65072 C -64.621155 -168.60402 -58.163395 -174.98588 -58.116503 -182.90515 C -58.102813 -186.26049 -59.266203 -189.5144 -61.404157 -192.10045 C -60.83125 -190.6836 -60.536835 -189.16959 -60.537027 -187.64129 C -60.575787 -181.07411 -65.930869 -175.78172 -72.498054 -175.82031 C -79.065241 -175.85911 -84.357627 -181.21415 -84.319038 -187.78134 C -84.309338 -189.30285 -84.007827 -190.80837 -83.43072 -192.21621 z M -13.84582 -119.73381 C -8.0071891 -119.73381 -3.3592812 -118.28861 0.098548685 -115.39764 C 3.5563785 -112.56335 5.2853122 -108.56711 5.2853122 -103.40871 C 5.2853122 -98.873849 3.5563785 -94.026912 0.098548685 -88.86851 C -3.3592812 -83.766794 -9.0558781 -77.616529 -16.991881 -70.41744 L 5.8806247 -70.41744 L 5.8806247 -62.084615 L -32.637438 -62.084615 L -32.637438 -67.016097 C -26.345321 -73.081471 -21.44174 -78.268272 -17.927224 -82.576388 C -14.412709 -86.884504 -11.890243 -90.852684 -10.359728 -94.480571 C -8.7725271 -98.108458 -7.9789944 -101.84955 -7.9789944 -105.70418 C -7.9789944 -111.82623 -10.019728 -114.88759 -14.101101 -114.88759 C -15.915045 -114.88759 -17.388822 -114.0369 -18.522537 -112.33633 C -19.656252 -110.69244 -20.223208 -108.65171 -20.223208 -106.21422 C -20.223208 -104.51365 -19.627671 -102.89852 -18.437271 -101.36801 C -19.400928 -100.46103 -20.506261 -99.752209 -21.753347 -99.242037 C -22.943748 -98.731866 -24.134305 -98.476709 -25.324706 -98.476709 C -27.365392 -98.476709 -29.066262 -99.10031 -30.42672 -100.3474 C -31.787178 -101.65117 -32.467422 -103.52197 -32.467422 -105.95946 C -32.467422 -108.567 -31.701953 -110.91953 -30.171438 -113.01691 C -28.640923 -115.11428 -26.486901 -116.75799 -23.7093 -117.94839 C -20.875014 -119.13879 -17.587078 -119.73381 -13.84582 -119.73381 z M -137.81758 -119.05375 L -133.56616 -118.969 C -127.55747 -118.85563 -124.38334 -118.79847 -124.04323 -118.79847 L -111.96903 -118.969 L -109.50303 -117.18306 L -110.26836 -110.72092 L -131.35544 -110.72092 L -132.54607 -96.521273 C -129.59841 -97.258188 -126.93408 -97.626632 -124.55327 -97.626632 C -118.94139 -97.626632 -114.37819 -96.124274 -110.86367 -93.11993 C -107.29247 -90.172272 -105.50689 -85.836165 -105.50689 -80.110905 C -105.50689 -76.539704 -106.35707 -73.336993 -108.05764 -70.502706 C -109.70153 -67.66842 -112.08264 -65.429173 -115.20036 -63.785287 C -118.31807 -62.198086 -122.00252 -61.404554 -126.25395 -61.404554 C -129.71178 -61.404554 -132.85784 -61.886286 -135.69213 -62.849943 C -138.46973 -63.813601 -140.65182 -65.14551 -142.23902 -66.846082 C -143.82622 -68.60334 -144.62027 -70.559366 -144.62027 -72.713424 C -144.62027 -74.980853 -143.99667 -76.709787 -142.74958 -77.900188 C -141.50249 -79.147274 -139.97207 -79.770358 -138.15813 -79.770358 C -137.13779 -79.770358 -136.11716 -79.572362 -135.09682 -79.175562 C -134.01979 -78.778762 -133.05632 -78.211805 -132.20604 -77.474891 C -132.71621 -76.28449 -132.97137 -75.037289 -132.97137 -73.733517 C -132.97137 -71.862888 -132.43247 -70.332466 -131.35544 -69.142066 C -130.22173 -67.951665 -128.52138 -67.356645 -126.25395 -67.356645 C -121.15223 -67.356645 -118.60118 -71.608045 -118.60118 -80.110905 C -118.60118 -84.135593 -119.39472 -87.054567 -120.98192 -88.86851 C -122.56912 -90.73914 -124.69507 -91.674541 -127.3593 -91.674541 C -129.00319 -91.674541 -130.76019 -91.36274 -132.63082 -90.739197 C -134.50145 -90.115654 -136.34419 -89.236897 -138.15813 -88.103182 L -142.83433 -92.609884 L -140.62361 -116.75776 L -137.81758 -119.05375 z M -69.79486 -119.05375 L -65.543439 -118.969 C -59.534752 -118.85563 -56.360104 -118.79847 -56.01999 -118.79847 L -43.946308 -118.969 L -41.480309 -117.18306 L -42.245637 -110.72092 L -63.332722 -110.72092 L -64.52283 -96.521273 C -61.575172 -97.258188 -58.911354 -97.626632 -56.530553 -97.626632 C -50.918665 -97.626632 -46.355465 -96.124274 -42.840949 -93.11993 C -39.269748 -90.172272 -37.48417 -85.836165 -37.48417 -80.110905 C -37.48417 -76.539704 -38.334347 -73.336993 -40.034919 -70.502706 C -41.678805 -67.66842 -44.059403 -65.429173 -47.177119 -63.785287 C -50.294834 -62.198086 -53.979277 -61.404554 -58.230708 -61.404554 C -61.688537 -61.404554 -64.834604 -61.886286 -67.668891 -62.849943 C -70.446492 -63.813601 -72.629094 -65.14551 -74.216295 -66.846082 C -75.803496 -68.60334 -76.597028 -70.559366 -76.597028 -72.713424 C -76.597028 -74.980853 -75.973428 -76.709787 -74.726341 -77.900188 C -73.479255 -79.147274 -71.948834 -79.770358 -70.13489 -79.770358 C -69.114547 -79.770358 -68.094439 -79.572362 -67.074095 -79.175562 C -65.997066 -78.778762 -65.033085 -78.211805 -64.182799 -77.474891 C -64.692971 -76.28449 -64.948127 -75.037289 -64.948127 -73.733517 C -64.948127 -71.862888 -64.409751 -70.332466 -63.332722 -69.142066 C -62.199007 -67.951665 -60.498137 -67.356645 -58.230708 -67.356645 C -53.128991 -67.356645 -50.578461 -71.608045 -50.578461 -80.110905 C -50.578461 -84.135593 -51.371994 -87.054567 -52.959195 -88.86851 C -54.546395 -90.73914 -56.671837 -91.674541 -59.336066 -91.674541 C -60.979953 -91.674541 -62.737467 -91.36274 -64.608096 -90.739197 C -66.478725 -90.115654 -68.320947 -89.236897 -70.13489 -88.103182 L -74.811608 -92.609884 L -72.60089 -116.75776 L -69.79486 -119.05375 z M -90.116617 -101.28274 C -88.132616 -101.28274 -86.658838 -100.68772 -85.695181 -99.497319 C -84.674838 -98.363604 -84.164525 -96.776539 -84.164525 -94.735852 C -84.164525 -92.695166 -84.674838 -91.107584 -85.695181 -89.973869 C -86.658838 -88.840154 -88.132616 -88.273198 -90.116617 -88.273198 C -92.100617 -88.273198 -93.602975 -88.840154 -94.623318 -89.973869 C -95.586976 -91.16427 -96.068708 -92.751852 -96.068708 -94.735852 C -96.068708 -96.833225 -95.586976 -98.448354 -94.623318 -99.582068 C -93.602975 -100.71578 -92.100617 -101.28274 -90.116617 -101.28274 z M -90.116617 -74.498845 C -88.132616 -74.498845 -86.658838 -73.903824 -85.695181 -72.713424 C -84.674838 -71.579709 -84.164525 -69.992127 -84.164525 -67.951441 C -84.164525 -65.910754 -84.674838 -64.323689 -85.695181 -63.189974 C -86.658838 -62.05626 -88.132616 -61.489303 -90.116617 -61.489303 C -92.100617 -61.489303 -93.602975 -62.05626 -94.623318 -63.189974 C -95.586976 -64.380375 -96.068708 -65.96744 -96.068708 -67.951441 C -96.068708 -70.048813 -95.586976 -71.664459 -94.623318 -72.798173 C -93.602975 -73.931888 -92.100617 -74.498845 -90.116617 -74.498845 z " /></g></svg>
