<?xml version="1.0" encoding="UTF-8" standalone="no"?>
<!-- Created with Inkscape (http://www.inkscape.org/) -->

<svg
   width="172.6701mm"
   height="172.6701mm"
   viewBox="0 0 172.6701 172.6701"
   version="1.1"
   id="svg1"
   xml:space="preserve"
   xmlns="http://www.w3.org/2000/svg"
   xmlns:svg="http://www.w3.org/2000/svg"><defs
     id="defs1" /><g
     id="layer1"
     transform="translate(157.25102,198.81012)"><path
       id="path5"
       style="fill:#ffffff;fill-opacity:1;stroke-width:0.805188;stroke-linecap:round;stroke-linejoin:round"
       d="M -2.0863309 -198.17657 L -10.088943 -183.11289 L -10.930235 -165.68398 L -19.198981 -165.68398 L -11.423229 -155.47426 L -12.166336 -140.07934 C -28.353216 -157.12094 -50.823548 -166.77435 -74.327399 -166.78417 C -103.64471 -166.77397 -130.92652 -151.79225 -146.66717 -127.05894 L -157.25102 -127.05894 L -149.61996 -115.86014 L -157.25102 -26.140039 L -8.5138455 -26.140039 L 15.419061 -26.140039 L 8.0799737 -154.80195 L 15.419061 -165.68398 L 7.4593397 -165.68398 L 6.4490654 -183.39297 L -2.0863309 -198.17657 z M -83.43072 -192.21621 C -85.584619 -189.65499 -86.77489 -186.4211 -86.795372 -183.07465 C -86.842092 -175.15518 -80.459903 -168.69733 -72.540428 -168.65072 C -64.621155 -168.60402 -58.163395 -174.98588 -58.116503 -182.90515 C -58.102813 -186.26049 -59.266203 -189.5144 -61.404157 -192.10045 C -60.83125 -190.6836 -60.536835 -189.16959 -60.537027 -187.64129 C -60.575787 -181.07411 -65.930869 -175.78172 -72.498054 -175.82031 C -79.065241 -175.85911 -84.357627 -181.21415 -84.319038 -187.78134 C -84.309338 -189.30285 -84.007827 -190.80837 -83.43072 -192.21621 z M -55.254662 -120.07436 C -50.719803 -119.84761 -47.03536 -118.85557 -44.201073 -117.09831 L -64.438081 -83.767013 L -51.428539 -83.767013 L -50.578461 -97.626632 C -48.764518 -97.626632 -47.460673 -97.995076 -46.667072 -98.731991 C -45.816786 -99.468905 -45.164605 -100.71611 -44.711119 -102.47336 L -39.864903 -102.47336 L -39.949653 -83.341716 C -37.795595 -82.718173 -35.074616 -82.066508 -31.786844 -81.38628 L -32.212141 -77.304875 L -40.37495 -77.304875 L -40.37495 -62.084615 L -51.428539 -62.084615 L -51.428539 -77.304875 L -76.001716 -77.304875 L -76.682294 -80.36567 L -55.254662 -120.07436 z M -124.46801 -119.81908 C -118.51601 -119.81908 -113.78287 -118.54381 -110.26836 -115.99295 C -106.75384 -113.44209 -104.99685 -110.01229 -104.99685 -105.70418 C -104.99685 -103.38006 -105.84702 -101.05611 -107.54759 -98.731991 C -109.24817 -96.407876 -111.48741 -94.50901 -114.26501 -93.035181 C -110.7505 -91.334609 -108.00094 -89.350519 -106.01694 -87.08309 C -103.97625 -84.81566 -102.95614 -81.896169 -102.95614 -78.324968 C -102.95614 -73.166566 -104.82643 -69.057034 -108.56769 -65.996005 C -112.30895 -62.991661 -117.35439 -61.489303 -123.7032 -61.489303 C -130.67554 -61.489303 -136.06034 -62.878373 -139.85828 -65.655974 C -143.59954 -68.433575 -145.47034 -72.401238 -145.47034 -77.55964 C -145.47034 -80.223869 -144.62017 -82.86014 -142.9196 -85.467684 C -141.21902 -88.131914 -138.83791 -90.483931 -135.77688 -92.524618 C -138.32774 -93.941761 -140.31183 -95.642631 -141.72897 -97.626632 C -143.14611 -99.610633 -143.85494 -102.07646 -143.85494 -105.02411 C -143.85494 -109.55897 -142.09742 -113.15871 -138.58291 -115.82294 C -135.06839 -118.48717 -130.36332 -119.81908 -124.46801 -119.81908 z M -6.2783231 -119.13901 L -3.4722928 -117.86364 L -3.4722928 -68.716769 C -2.3952638 -68.093226 -0.69491053 -67.526269 1.6292046 -67.016097 C 3.9533197 -66.562611 5.7955414 -66.279392 7.155999 -66.16602 L 6.9007175 -62.084615 L -27.790705 -62.084615 L -27.62069 -66.16602 C -22.575659 -66.732877 -18.720767 -67.583054 -16.056538 -68.716769 L -16.056538 -109.44555 L -27.450674 -109.44555 L -27.450674 -114.37703 C -23.822787 -114.66046 -20.0817 -115.19935 -16.22707 -115.99295 C -12.37244 -116.84324 -9.0559241 -117.89193 -6.2783231 -119.13901 z M -124.46801 -113.78224 C -126.73544 -113.78224 -128.52102 -113.04535 -129.82479 -111.57152 C -131.12856 -110.15437 -131.78074 -108.22693 -131.78074 -105.78944 C -131.78074 -103.63538 -130.95863 -101.84981 -129.31474 -100.43266 C -127.61417 -99.072205 -125.14835 -97.711715 -121.91726 -96.351258 C -120.50012 -97.314915 -119.36672 -98.646824 -118.51643 -100.3474 C -117.66615 -102.04797 -117.24054 -103.86213 -117.24054 -105.78944 C -117.24054 -108.22693 -117.92079 -110.15437 -119.28124 -111.57152 C -120.58502 -113.04535 -122.31395 -113.78224 -124.46801 -113.78224 z M -87.905899 -101.28274 C -85.921898 -101.28274 -84.448121 -100.68772 -83.484463 -99.497319 C -82.46412 -98.363604 -81.953807 -96.776539 -81.953807 -94.735852 C -81.953807 -92.695166 -82.46412 -91.107584 -83.484463 -89.973869 C -84.448121 -88.840154 -85.921898 -88.273198 -87.905899 -88.273198 C -89.889899 -88.273198 -91.392257 -88.840154 -92.4126 -89.973869 C -93.376258 -91.16427 -93.85799 -92.751852 -93.85799 -94.735852 C -93.85799 -96.833225 -93.376258 -98.448354 -92.4126 -99.582068 C -91.392257 -100.71578 -89.889899 -101.28274 -87.905899 -101.28274 z M -127.95462 -89.038526 C -129.65519 -87.678068 -130.90187 -86.119583 -131.69547 -84.362325 C -132.48907 -82.605068 -132.8861 -80.50769 -132.8861 -78.070203 C -132.8861 -74.725745 -132.06399 -72.089474 -130.4201 -70.162159 C -128.77621 -68.291529 -126.53748 -67.356645 -123.7032 -67.356645 C -120.9256 -67.356645 -118.77106 -68.291529 -117.24054 -70.162159 C -115.65334 -72.032788 -114.85981 -74.640479 -114.85981 -77.984937 C -114.85981 -79.855566 -115.45535 -81.442631 -116.64575 -82.746403 C -117.77946 -84.106861 -119.22466 -85.212194 -120.98192 -86.06248 C -122.73917 -86.969452 -125.06364 -87.961497 -127.95462 -89.038526 z M -87.905899 -74.498845 C -85.921898 -74.498845 -84.448121 -73.903824 -83.484463 -72.713424 C -82.46412 -71.579709 -81.953807 -69.992127 -81.953807 -67.951441 C -81.953807 -65.910754 -82.46412 -64.323689 -83.484463 -63.189974 C -84.448121 -62.05626 -85.921898 -61.489303 -87.905899 -61.489303 C -89.889899 -61.489303 -91.392257 -62.05626 -92.4126 -63.189974 C -93.376258 -64.380375 -93.85799 -65.96744 -93.85799 -67.951441 C -93.85799 -70.048813 -93.376258 -71.664459 -92.4126 -72.798173 C -91.392257 -73.931888 -89.889899 -74.498845 -87.905899 -74.498845 z " /></g></svg>
