<?xml version="1.0" encoding="UTF-8" standalone="no"?>
<!-- Created with Inkscape (http://www.inkscape.org/) -->

<svg
   width="172.6701mm"
   height="172.6701mm"
   viewBox="0 0 172.6701 172.6701"
   version="1.1"
   id="svg1"
   xml:space="preserve"
   xmlns="http://www.w3.org/2000/svg"
   xmlns:svg="http://www.w3.org/2000/svg"><defs
     id="defs1" /><g
     id="layer1"
     transform="translate(157.25102,198.81012)"><path
       id="path5"
       style="fill:#ffffff;fill-opacity:1;stroke-width:0.805188;stroke-linecap:round;stroke-linejoin:round"
       d="M -2.0863309 -198.17657 L -10.088943 -183.11289 L -10.930235 -165.68398 L -19.198981 -165.68398 L -11.423229 -155.47426 L -12.166336 -140.07934 C -28.353216 -157.12094 -50.823548 -166.77435 -74.327399 -166.78417 C -103.64471 -166.77397 -130.92652 -151.79225 -146.66717 -127.05894 L -157.25102 -127.05894 L -149.61996 -115.86014 L -157.25102 -26.140039 L -8.5138455 -26.140039 L 15.419061 -26.140039 L 8.0799737 -154.80195 L 15.419061 -165.68398 L 7.4593397 -165.68398 L 6.4490654 -183.39297 L -2.0863309 -198.17657 z M -83.43072 -192.21621 C -85.584619 -189.65499 -86.77489 -186.4211 -86.795372 -183.07465 C -86.842092 -175.15518 -80.459903 -168.69733 -72.540428 -168.65072 C -64.621155 -168.60402 -58.163395 -174.98588 -58.116503 -182.90515 C -58.102813 -186.26049 -59.266203 -189.5144 -61.404157 -192.10045 C -60.83125 -190.6836 -60.536835 -189.16959 -60.537027 -187.64129 C -60.575787 -181.07411 -65.930869 -175.78172 -72.498054 -175.82031 C -79.065241 -175.85911 -84.357627 -181.21415 -84.319038 -187.78134 C -84.309338 -189.30285 -84.007827 -190.80837 -83.43072 -192.21621 z M -37.891897 -133.25443 C -28.197469 -133.25443 -20.479632 -130.85399 -14.738272 -126.05384 C -8.9969111 -121.3478 -6.1263943 -114.71254 -6.1263943 -106.14756 C -6.1263943 -98.617906 -8.9969111 -90.570344 -14.738272 -82.005363 C -20.479632 -73.534503 -29.938458 -63.322832 -43.115351 -51.369507 L -5.1378242 -51.369507 L -5.1378242 -37.533659 L -69.093094 -37.533659 L -69.093094 -45.722307 C -58.6457 -55.793218 -50.504226 -64.404768 -44.668745 -71.557939 C -38.833263 -78.71111 -34.644878 -85.299935 -32.10362 -91.323658 C -29.468241 -97.34738 -28.150373 -103.55901 -28.150373 -109.95921 C -28.150373 -120.12424 -31.538956 -125.20686 -38.315644 -125.20686 C -41.327505 -125.20686 -43.774385 -123.79508 -45.656798 -120.97146 C -47.539211 -118.24196 -48.480398 -114.85389 -48.480398 -110.80671 C -48.480398 -107.98309 -47.492255 -105.30039 -45.515721 -102.75914 C -47.115773 -101.2532 -48.951191 -100.07672 -51.021845 -99.229635 C -52.998379 -98.382549 -54.974665 -97.958912 -56.951199 -97.958912 C -60.339543 -97.958912 -63.163104 -98.994527 -65.422 -101.06518 C -67.680896 -103.22996 -68.810423 -106.33577 -68.810423 -110.38296 C -68.810423 -114.71251 -67.540028 -118.61864 -64.99877 -122.10111 C -62.457512 -125.58357 -58.880588 -128.3127 -54.268675 -130.28924 C -49.562642 -132.26577 -44.103861 -133.25443 -37.891897 -133.25443 z M -98.31715 -132.26586 L -93.658519 -130.14816 L -93.658519 -48.545907 C -91.870227 -47.51058 -89.046666 -46.569393 -85.187718 -45.722307 C -81.328771 -44.969341 -78.269914 -44.498748 -76.011018 -44.310507 L -76.434248 -37.533659 L -134.03642 -37.533659 L -133.75375 -44.310507 C -125.37701 -45.251713 -118.97704 -46.663494 -114.55337 -48.545907 L -114.55337 -116.17124 L -133.47159 -116.17124 L -133.47159 -124.35988 C -127.44787 -124.83049 -121.23573 -125.72472 -114.83552 -127.04241 C -108.43532 -128.45422 -102.92906 -130.19521 -98.31715 -132.26586 z " /></g></svg>
