<?xml version="1.0" encoding="UTF-8" standalone="no"?>
<!-- Created with Inkscape (http://www.inkscape.org/) -->

<svg
   width="172.6701mm"
   height="172.6701mm"
   viewBox="0 0 172.6701 172.6701"
   version="1.1"
   id="svg1"
   xml:space="preserve"
   xmlns="http://www.w3.org/2000/svg"
   xmlns:svg="http://www.w3.org/2000/svg"><defs
     id="defs1" /><g
     id="layer1"
     transform="translate(157.25102,198.81012)"><path
       id="path5"
       style="fill:#ffffff;fill-opacity:1;stroke-width:0.805188;stroke-linecap:round;stroke-linejoin:round"
       d="M -2.0863309 -198.17657 L -10.088943 -183.11289 L -10.930235 -165.68398 L -19.198981 -165.68398 L -11.423229 -155.47426 L -12.166336 -140.07934 C -28.353216 -157.12094 -50.823548 -166.77435 -74.327399 -166.78417 C -103.64471 -166.77397 -130.92652 -151.79225 -146.66717 -127.05894 L -157.25102 -127.05894 L -149.61996 -115.86014 L -157.25102 -26.140039 L -8.5138455 -26.140039 L 15.419061 -26.140039 L 8.0799737 -154.80195 L 15.419061 -165.68398 L 7.4593397 -165.68398 L 6.4490654 -183.39297 L -2.0863309 -198.17657 z M -83.43072 -192.21621 C -85.584619 -189.65499 -86.77489 -186.4211 -86.795372 -183.07465 C -86.842092 -175.15518 -80.459903 -168.69733 -72.540428 -168.65072 C -64.621155 -168.60402 -58.163395 -174.98588 -58.116503 -182.90515 C -58.102813 -186.26049 -59.266203 -189.5144 -61.404157 -192.10045 C -60.83125 -190.6836 -60.536835 -189.16959 -60.537027 -187.64129 C -60.575787 -181.07411 -65.930869 -175.78172 -72.498054 -175.82031 C -79.065241 -175.85911 -84.357627 -181.21415 -84.319038 -187.78134 C -84.309338 -189.30285 -84.007827 -190.80837 -83.43072 -192.21621 z M -115.41275 -119.90383 L -113.37204 -115.65241 C -124.82256 -110.72075 -131.70972 -103.12528 -134.03383 -92.865166 C -130.74606 -94.452366 -127.62857 -95.245899 -124.68092 -95.245899 C -119.01234 -95.245899 -114.56243 -93.715477 -111.33134 -90.654448 C -108.04357 -87.593418 -106.39986 -83.455306 -106.39986 -78.240218 C -106.39986 -75.009132 -107.2781 -72.118221 -109.03536 -69.567363 C -110.73593 -67.016505 -113.14511 -65.032415 -116.26282 -63.615271 C -119.32385 -62.198128 -122.83837 -61.489303 -126.80637 -61.489303 C -133.55197 -61.489303 -138.73877 -63.360105 -142.36666 -67.101363 C -145.93786 -70.842622 -147.72344 -76.255999 -147.72344 -83.341716 C -147.72344 -92.241376 -144.97439 -99.808775 -139.47588 -106.04421 C -133.92068 -112.33632 -125.89961 -116.95617 -115.41275 -119.90383 z M -12.698086 -119.81908 C -6.7460841 -119.81908 -2.0129518 -118.54381 1.5015638 -115.99295 C 5.0160794 -113.44209 6.7735934 -110.01229 6.7735934 -105.70418 C 6.7735934 -103.38006 5.9234168 -101.05611 4.2228447 -98.731991 C 2.5222727 -96.407876 0.28302633 -94.50901 -2.4945747 -93.035181 C 1.0199409 -91.334609 3.7689832 -89.350519 5.7529839 -87.08309 C 7.7936704 -84.81566 8.8142958 -81.896169 8.8142958 -78.324968 C 8.8142958 -73.166566 6.9434937 -69.057034 3.2022352 -65.996005 C -0.53902331 -62.991661 -5.583956 -61.489303 -11.932758 -61.489303 C -18.905104 -61.489303 -24.290417 -62.878373 -28.088361 -65.655974 C -31.82962 -68.433575 -33.699905 -72.401238 -33.699905 -77.55964 C -33.699905 -80.223869 -32.849728 -82.86014 -31.149156 -85.467684 C -29.448584 -88.131914 -27.067986 -90.483931 -24.006957 -92.524618 C -26.557815 -93.941761 -28.541905 -95.642631 -29.959048 -97.626632 C -31.376192 -99.610633 -32.0845 -102.07646 -32.0845 -105.02411 C -32.0845 -109.55897 -30.327503 -113.15871 -26.812987 -115.82294 C -23.298471 -118.48717 -18.593403 -119.81908 -12.698086 -119.81908 z M -71.112609 -119.05375 L -66.861188 -118.969 C -60.852501 -118.85563 -57.67837 -118.79847 -57.338256 -118.79847 L -45.264057 -118.969 L -42.798058 -117.18306 L -43.563386 -110.72092 L -64.650471 -110.72092 L -65.841096 -96.521273 C -62.893437 -97.258188 -60.229103 -97.626632 -57.848302 -97.626632 C -52.236414 -97.626632 -47.673214 -96.124274 -44.158698 -93.11993 C -40.587497 -90.172272 -38.801919 -85.836165 -38.801919 -80.110905 C -38.801919 -76.539704 -39.652096 -73.336993 -41.352668 -70.502706 C -42.996554 -67.66842 -45.377669 -65.429173 -48.495384 -63.785287 C -51.6131 -62.198086 -55.297543 -61.404554 -59.548973 -61.404554 C -63.006803 -61.404554 -66.15287 -61.886286 -68.987157 -62.849943 C -71.764758 -63.813601 -73.946844 -65.14551 -75.534044 -66.846082 C -77.121245 -68.60334 -77.914777 -70.559366 -77.914777 -72.713424 C -77.914777 -74.980853 -77.291693 -76.709787 -76.044607 -77.900188 C -74.797521 -79.147274 -73.266583 -79.770358 -71.452639 -79.770358 C -70.432296 -79.770358 -69.412188 -79.572362 -68.391844 -79.175562 C -67.314815 -78.778762 -66.351351 -78.211805 -65.501065 -77.474891 C -66.011236 -76.28449 -66.265876 -75.037289 -66.265876 -73.733517 C -66.265876 -71.862888 -65.7275 -70.332466 -64.650471 -69.142066 C -63.516756 -67.951665 -61.816403 -67.356645 -59.548973 -67.356645 C -54.447257 -67.356645 -51.89621 -71.608045 -51.89621 -80.110905 C -51.89621 -84.135593 -52.689743 -87.054567 -54.276944 -88.86851 C -55.864144 -90.73914 -57.990103 -91.674541 -60.654332 -91.674541 C -62.298218 -91.674541 -64.055216 -91.36274 -65.925845 -90.739197 C -67.796474 -90.115654 -69.638696 -89.236897 -71.452639 -88.103182 L -76.129357 -92.609884 L -73.918639 -116.75776 L -71.112609 -119.05375 z M -12.698086 -113.78224 C -14.965516 -113.78224 -16.751093 -113.04535 -18.054865 -111.57152 C -19.358637 -110.15437 -20.010301 -108.22693 -20.010301 -105.78944 C -20.010301 -103.63538 -19.188705 -101.84981 -17.544819 -100.43266 C -15.844247 -99.072205 -13.378424 -97.711715 -10.147338 -96.351258 C -8.7301942 -97.314915 -7.5962808 -98.646824 -6.7459948 -100.3474 C -5.8957087 -102.04797 -5.4706204 -103.86213 -5.4706204 -105.78944 C -5.4706204 -108.22693 -6.1508651 -110.15437 -7.5113227 -111.57152 C -8.8150946 -113.04535 -10.544028 -113.78224 -12.698086 -113.78224 z M -91.434882 -101.28274 C -89.450882 -101.28274 -87.976587 -100.68772 -87.01293 -99.497319 C -85.992587 -98.363604 -85.482791 -96.776539 -85.482791 -94.735852 C -85.482791 -92.695166 -85.992587 -91.107584 -87.01293 -89.973869 C -87.976587 -88.840154 -89.450882 -88.273198 -91.434882 -88.273198 C -93.418883 -88.273198 -94.920724 -88.840154 -95.941067 -89.973869 C -96.904725 -91.16427 -97.386457 -92.751852 -97.386457 -94.735852 C -97.386457 -96.833225 -96.904725 -98.448354 -95.941067 -99.582068 C -94.920724 -100.71578 -93.418883 -101.28274 -91.434882 -101.28274 z M -127.06165 -89.293807 C -129.44245 -89.293807 -132.02156 -88.330343 -134.79916 -86.403028 L -134.79916 -85.297669 C -134.79916 -79.118924 -134.11892 -74.583787 -132.75846 -71.692814 C -131.398 -68.801842 -129.24398 -67.356645 -126.29632 -67.356645 C -123.85883 -67.356645 -121.98803 -68.291529 -120.68426 -70.162159 C -119.38049 -72.032788 -118.72882 -74.697123 -118.72882 -78.154952 C -118.72882 -81.669468 -119.46571 -84.390447 -120.93954 -86.317762 C -122.35668 -88.301762 -124.39742 -89.293807 -127.06165 -89.293807 z M -16.184178 -89.038526 C -17.88475 -87.678068 -19.131952 -86.119583 -19.925552 -84.362325 C -20.719152 -82.605068 -21.11566 -80.50769 -21.11566 -78.070203 C -21.11566 -74.725745 -20.294064 -72.089474 -18.650178 -70.162159 C -17.006291 -68.291529 -14.767045 -67.356645 -11.932758 -67.356645 C -9.1551573 -67.356645 -7.0011353 -68.291529 -5.4706204 -70.162159 C -3.8834198 -72.032788 -3.0898872 -74.640479 -3.0898872 -77.984937 C -3.0898872 -79.855566 -3.6849075 -81.442631 -4.8753079 -82.746403 C -6.0090226 -84.106861 -7.4547363 -85.212194 -9.2119941 -86.06248 C -10.969252 -86.969452 -13.293206 -87.961497 -16.184178 -89.038526 z M -91.434882 -74.498845 C -89.450882 -74.498845 -87.976587 -73.903824 -87.01293 -72.713424 C -85.992587 -71.579709 -85.482791 -69.992127 -85.482791 -67.951441 C -85.482791 -65.910754 -85.992587 -64.323689 -87.01293 -63.189974 C -87.976587 -62.05626 -89.450882 -61.489303 -91.434882 -61.489303 C -93.418883 -61.489303 -94.920724 -62.05626 -95.941067 -63.189974 C -96.904725 -64.380375 -97.386457 -65.96744 -97.386457 -67.951441 C -97.386457 -70.048813 -96.904725 -71.664459 -95.941067 -72.798173 C -94.920724 -73.931888 -93.418883 -74.498845 -91.434882 -74.498845 z " /></g></svg>
