<?xml version="1.0" encoding="UTF-8" standalone="no"?>
<!-- Created with Inkscape (http://www.inkscape.org/) -->

<svg
   width="172.6701mm"
   height="172.6701mm"
   viewBox="0 0 172.6701 172.6701"
   version="1.1"
   id="svg1"
   xml:space="preserve"
   xmlns="http://www.w3.org/2000/svg"
   xmlns:svg="http://www.w3.org/2000/svg"><defs
     id="defs1" /><g
     id="layer1"
     transform="translate(157.25102,198.81012)"><path
       id="path5"
       style="fill:#ffffff;fill-opacity:1;stroke-width:0.805188;stroke-linecap:round;stroke-linejoin:round"
       d="M -2.0863309 -198.17657 L -10.088943 -183.11289 L -10.930235 -165.68398 L -19.198981 -165.68398 L -11.423229 -155.47426 L -12.166336 -140.07934 C -28.353216 -157.12094 -50.823548 -166.77435 -74.327399 -166.78417 C -103.64471 -166.77397 -130.92652 -151.79225 -146.66717 -127.05894 L -157.25102 -127.05894 L -149.61996 -115.86014 L -157.25102 -26.140039 L -8.5138455 -26.140039 L 15.419061 -26.140039 L 8.0799737 -154.80195 L 15.419061 -165.68398 L 7.4593397 -165.68398 L 6.4490654 -183.39297 L -2.0863309 -198.17657 z M -83.43072 -192.21621 C -85.584619 -189.65499 -86.77489 -186.4211 -86.795372 -183.07465 C -86.842092 -175.15518 -80.459903 -168.69733 -72.540428 -168.65072 C -64.621155 -168.60402 -58.163395 -174.98588 -58.116503 -182.90515 C -58.102813 -186.26049 -59.266203 -189.5144 -61.404157 -192.10045 C -60.83125 -190.6836 -60.536835 -189.16959 -60.537027 -187.64129 C -60.575787 -181.07411 -65.930869 -175.78172 -72.498054 -175.82031 C -79.065241 -175.85911 -84.357627 -181.21415 -84.319038 -187.78134 C -84.309338 -189.30285 -84.007827 -190.80837 -83.43072 -192.21621 z M -59.421333 -120.07436 C -54.886474 -119.84761 -51.20203 -118.85557 -48.367744 -117.09831 L -68.604235 -83.767013 L -55.595209 -83.767013 L -54.744615 -97.626632 C -52.930672 -97.626632 -51.626827 -97.995076 -50.833226 -98.731991 C -49.98294 -99.468905 -49.331276 -100.71611 -48.87779 -102.47336 L -44.031057 -102.47336 L -44.116324 -83.341716 C -41.962266 -82.718173 -39.241287 -82.066508 -35.953514 -81.38628 L -36.378295 -77.304875 L -44.541104 -77.304875 L -44.541104 -62.084615 L -55.595209 -62.084615 L -55.595209 -77.304875 L -80.168387 -77.304875 L -80.848448 -80.36567 L -59.421333 -120.07436 z M -127.86935 -119.56379 C -121.12375 -119.56379 -115.96553 -117.69351 -112.39433 -113.95225 C -108.76644 -110.21099 -106.95228 -104.7971 -106.95228 -97.711381 C -106.95228 -88.811721 -109.7299 -81.216258 -115.28511 -74.924142 C -120.78362 -68.688711 -128.77663 -64.09693 -139.26349 -61.149272 L -141.30367 -65.400692 C -135.6351 -67.838179 -131.0719 -70.956182 -127.61407 -74.754126 C -124.15624 -78.608756 -121.86087 -83.086732 -120.72715 -88.188448 C -123.90155 -86.601248 -126.99098 -85.807715 -129.99532 -85.807715 C -135.66389 -85.807715 -140.14187 -87.338137 -143.42964 -90.399166 C -146.66073 -93.460196 -148.27637 -97.598308 -148.27637 -102.8134 C -148.27637 -106.04448 -147.4262 -108.93539 -145.72563 -111.48625 C -143.96837 -114.03711 -141.55919 -116.0212 -138.49816 -117.43834 C -135.38044 -118.85549 -131.83735 -119.56379 -127.86935 -119.56379 z M -11.635102 -119.56379 C -4.8894996 -119.56379 0.26872107 -117.69351 3.8399224 -113.95225 C 7.4678094 -110.21099 9.2819675 -104.7971 9.2819675 -97.711381 C 9.2819675 -88.811721 6.5043448 -81.216258 0.94914276 -74.924142 C -4.5493735 -68.688711 -12.542378 -64.09693 -23.029239 -61.149272 L -25.069941 -65.400692 C -19.401367 -67.838179 -14.838167 -70.956182 -11.380337 -74.754126 C -7.9225074 -78.608756 -5.626617 -83.086732 -4.4929023 -88.188448 C -7.6673035 -86.601248 -10.756726 -85.807715 -13.76107 -85.807715 C -19.429644 -85.807715 -23.90762 -87.338137 -27.195393 -90.399166 C -30.426479 -93.460196 -32.042125 -97.598308 -32.042125 -102.8134 C -32.042125 -106.04448 -31.191948 -108.93539 -29.491376 -111.48625 C -27.734119 -114.03711 -25.32494 -116.0212 -22.263911 -117.43834 C -19.146195 -118.85549 -15.603103 -119.56379 -11.635102 -119.56379 z M -128.3794 -113.69697 C -130.81688 -113.69697 -132.68769 -112.76157 -133.99146 -110.89094 C -135.29523 -109.02031 -135.94689 -106.35597 -135.94689 -102.89814 C -135.94689 -99.383629 -135.23859 -96.634587 -133.82144 -94.650586 C -132.34761 -92.723271 -130.2783 -91.759807 -127.61407 -91.759807 C -125.28995 -91.759807 -122.71084 -92.723271 -119.87656 -94.650586 L -119.87656 -95.755945 C -119.87656 -101.93469 -120.5568 -106.46931 -121.91726 -109.36028 C -123.27772 -112.25126 -125.43174 -113.69697 -128.3794 -113.69697 z M -12.145665 -113.69697 C -14.583152 -113.69697 -16.453437 -112.76157 -17.757209 -110.89094 C -19.060981 -109.02031 -19.713162 -106.35597 -19.713162 -102.89814 C -19.713162 -99.383629 -19.004337 -96.634587 -17.587194 -94.650586 C -16.113364 -92.723271 -14.044567 -91.759807 -11.380337 -91.759807 C -9.0562221 -91.759807 -6.4771118 -92.723271 -3.642825 -94.650586 L -3.642825 -95.755945 C -3.642825 -101.93469 -4.3225529 -106.46931 -5.6830106 -109.36028 C -7.0434682 -112.25126 -9.198007 -113.69697 -12.145665 -113.69697 z M -92.072569 -101.28274 C -90.088569 -101.28274 -88.614275 -100.68772 -87.650617 -99.497319 C -86.630274 -98.363604 -86.120478 -96.776539 -86.120478 -94.735852 C -86.120478 -92.695166 -86.630274 -91.107584 -87.650617 -89.973869 C -88.614275 -88.840154 -90.088569 -88.273198 -92.072569 -88.273198 C -94.05657 -88.273198 -95.558411 -88.840154 -96.578754 -89.973869 C -97.542412 -91.16427 -98.024144 -92.751852 -98.024144 -94.735852 C -98.024144 -96.833225 -97.542412 -98.448354 -96.578754 -99.582068 C -95.558411 -100.71578 -94.05657 -101.28274 -92.072569 -101.28274 z M -92.072569 -74.498845 C -90.088569 -74.498845 -88.614275 -73.903824 -87.650617 -72.713424 C -86.630274 -71.579709 -86.120478 -69.992127 -86.120478 -67.951441 C -86.120478 -65.910754 -86.630274 -64.323689 -87.650617 -63.189974 C -88.614275 -62.05626 -90.088569 -61.489303 -92.072569 -61.489303 C -94.05657 -61.489303 -95.558411 -62.05626 -96.578754 -63.189974 C -97.542412 -64.380375 -98.024144 -65.96744 -98.024144 -67.951441 C -98.024144 -70.048813 -97.542412 -71.664459 -96.578754 -72.798173 C -95.558411 -73.931888 -94.05657 -74.498845 -92.072569 -74.498845 z " /></g></svg>
