<?xml version="1.0" encoding="UTF-8" standalone="no"?>
<!-- Created with Inkscape (http://www.inkscape.org/) -->

<svg
   width="172.6701mm"
   height="172.6701mm"
   viewBox="0 0 172.6701 172.6701"
   version="1.1"
   id="svg1"
   xml:space="preserve"
   xmlns="http://www.w3.org/2000/svg"
   xmlns:svg="http://www.w3.org/2000/svg"><defs
     id="defs1" /><g
     id="layer1"
     transform="translate(157.25102,198.81012)"><path
       id="path5"
       style="fill:#ffffff;fill-opacity:1;stroke-width:0.805188;stroke-linecap:round;stroke-linejoin:round"
       d="M -2.0863309 -198.17657 L -10.088943 -183.11289 L -10.930235 -165.68398 L -19.198981 -165.68398 L -11.423229 -155.47426 L -12.166336 -140.07934 C -28.353216 -157.12094 -50.823548 -166.77435 -74.327399 -166.78417 C -103.64471 -166.77397 -130.92652 -151.79225 -146.66717 -127.05894 L -157.25102 -127.05894 L -149.61996 -115.86014 L -157.25102 -26.140039 L -8.5138455 -26.140039 L 15.419061 -26.140039 L 8.0799737 -154.80195 L 15.419061 -165.68398 L 7.4593397 -165.68398 L 6.4490654 -183.39297 L -2.0863309 -198.17657 z M -83.43072 -192.21621 C -85.584619 -189.65499 -86.77489 -186.4211 -86.795372 -183.07465 C -86.842092 -175.15518 -80.459903 -168.69733 -72.540428 -168.65072 C -64.621155 -168.60402 -58.163395 -174.98588 -58.116503 -182.90515 C -58.102813 -186.26049 -59.266203 -189.5144 -61.404157 -192.10045 C -60.83125 -190.6836 -60.536835 -189.16959 -60.537027 -187.64129 C -60.575787 -181.07411 -65.930869 -175.78172 -72.498054 -175.82031 C -79.065241 -175.85911 -84.357627 -181.21415 -84.319038 -187.78134 C -84.309338 -189.30285 -84.007827 -190.80837 -83.43072 -192.21621 z M -106.71767 -133.25443 C -100.59983 -133.25443 -95.188002 -132.21882 -90.481969 -130.14816 C -85.775936 -128.17163 -82.1051 -125.34807 -79.469721 -121.67736 C -76.834343 -118.10078 -75.516474 -113.95935 -75.516474 -109.25331 C -75.516474 -103.98256 -77.069639 -99.464961 -80.175621 -95.700135 C -83.281603 -91.935308 -87.893626 -89.064791 -94.011469 -87.088257 C -86.293575 -85.394085 -80.881233 -82.61748 -77.775251 -78.758533 C -74.669269 -74.899586 -73.116621 -69.675585 -73.116621 -63.087138 C -73.116621 -57.345778 -74.85761 -52.451502 -78.340074 -48.404314 C -81.728418 -44.357125 -86.1521 -41.345223 -91.611099 -39.368689 C -97.070098 -37.392155 -102.71722 -36.404012 -108.5527 -36.404012 C -117.02356 -36.404012 -124.22385 -38.145518 -130.15345 -41.627983 C -135.98893 -45.110448 -138.90692 -49.863338 -138.90692 -55.887061 C -138.90692 -59.369526 -137.8713 -62.052218 -135.80065 -63.934632 C -133.73 -65.911166 -131.14173 -66.899309 -128.03575 -66.899309 C -124.83565 -66.899309 -121.58845 -65.628396 -118.29422 -63.087138 C -119.14131 -61.298846 -119.56495 -59.134219 -119.56495 -56.592961 C -119.56495 -53.5811 -118.67072 -51.13422 -116.88242 -49.251807 C -115.00001 -47.369394 -112.22341 -46.428207 -108.5527 -46.428207 C -100.45832 -46.428207 -96.411323 -52.028372 -96.411323 -63.228732 C -96.411323 -69.346575 -98.388125 -74.099466 -102.34119 -77.48781 C -106.20014 -80.876154 -111.70588 -82.570187 -118.85905 -82.570187 L -118.85905 -91.323658 C -105.02331 -92.453106 -98.105276 -98.429436 -98.105276 -109.25331 C -98.105276 -114.71231 -98.952551 -118.71287 -100.64672 -121.25413 C -102.3409 -123.88951 -104.64691 -125.20686 -107.56465 -125.20686 C -111.04711 -125.20686 -113.68233 -123.98342 -115.47062 -121.53628 C -117.1648 -119.08915 -118.01207 -116.1242 -118.01207 -112.64174 C -118.01207 -109.53575 -117.35314 -106.75915 -116.03545 -104.31201 C -118.67083 -101.48839 -122.05941 -100.07661 -126.20072 -100.07661 C -129.96555 -100.07661 -132.88302 -101.20614 -134.95367 -103.46504 C -137.02433 -105.72393 -138.05994 -108.64192 -138.05994 -112.21851 C -138.05994 -116.92454 -136.45982 -120.83016 -133.25972 -123.93614 C -129.9655 -127.13624 -125.91798 -129.48921 -121.11783 -130.99514 C -116.22355 -132.50107 -111.4237 -133.25443 -106.71767 -133.25443 z M -34.9975 -133.25443 C -28.879657 -133.25443 -23.467832 -132.21882 -18.761799 -130.14816 C -14.055765 -128.17163 -10.38493 -125.34807 -7.7495511 -121.67736 C -5.1141724 -118.10078 -3.7968208 -113.95935 -3.7968208 -109.25331 C -3.7968208 -103.98256 -5.3494692 -99.464961 -8.4554512 -95.700135 C -11.561433 -91.935308 -16.173456 -89.064791 -22.291299 -87.088257 C -14.573404 -85.394085 -9.1615796 -82.61748 -6.0555976 -78.758533 C -2.9496156 -74.899586 -1.3964505 -69.675585 -1.3964505 -63.087138 C -1.3964505 -57.345778 -3.1379564 -52.451502 -6.620421 -48.404314 C -10.008765 -44.357125 -14.432447 -41.345223 -19.891446 -39.368689 C -25.350444 -37.392155 -30.997566 -36.404012 -36.833047 -36.404012 C -45.303907 -36.404012 -52.504194 -38.145518 -58.433796 -41.627983 C -64.269277 -45.110448 -67.18675 -49.863338 -67.18675 -55.887061 C -67.18675 -59.369526 -66.151651 -62.052218 -64.080996 -63.934632 C -62.010342 -65.911166 -59.422078 -66.899309 -56.316096 -66.899309 C -53.115993 -66.899309 -49.868795 -65.628396 -46.574571 -63.087138 C -47.421657 -61.298846 -47.845295 -59.134219 -47.845295 -56.592961 C -47.845295 -53.5811 -46.951064 -51.13422 -45.162771 -49.251807 C -43.280358 -47.369394 -40.503753 -46.428207 -36.833047 -46.428207 C -28.73867 -46.428207 -24.691669 -52.028372 -24.691669 -63.228732 C -24.691669 -69.346575 -26.667955 -74.099466 -30.621023 -77.48781 C -34.479971 -80.876154 -39.986224 -82.570187 -47.139395 -82.570187 L -47.139395 -91.323658 C -33.303657 -92.453106 -26.385623 -98.429436 -26.385623 -109.25331 C -26.385623 -114.71231 -27.232898 -118.71287 -28.92707 -121.25413 C -30.621242 -123.88951 -32.927253 -125.20686 -35.844994 -125.20686 C -39.327458 -125.20686 -41.962679 -123.98342 -43.750971 -121.53628 C -45.445143 -119.08915 -46.292418 -116.1242 -46.292418 -112.64174 C -46.292418 -109.53575 -45.633484 -106.75915 -44.315795 -104.31201 C -46.951173 -101.48839 -50.339239 -100.07661 -54.480549 -100.07661 C -58.245375 -100.07661 -61.163365 -101.20614 -63.23402 -103.46504 C -65.304674 -105.72393 -66.339773 -108.64192 -66.339773 -112.21851 C -66.339773 -116.92454 -64.739652 -120.83016 -61.539549 -123.93614 C -58.245326 -127.13624 -54.198326 -129.48921 -49.398172 -130.99514 C -44.503897 -132.50107 -39.703534 -133.25443 -34.9975 -133.25443 z " /></g></svg>
