<?xml version="1.0" encoding="UTF-8" standalone="no"?>
<!-- Created with Inkscape (http://www.inkscape.org/) -->

<svg
   width="172.6701mm"
   height="172.6701mm"
   viewBox="0 0 172.6701 172.6701"
   version="1.1"
   id="svg1"
   xml:space="preserve"
   xmlns="http://www.w3.org/2000/svg"
   xmlns:svg="http://www.w3.org/2000/svg"><defs
     id="defs1" /><g
     id="layer1"
     transform="translate(157.25102,198.81012)"><path
       id="path5"
       style="fill:#ffffff;fill-opacity:1;stroke-width:0.805188;stroke-linecap:round;stroke-linejoin:round"
       d="M -2.0863309 -198.17657 L -10.088943 -183.11289 L -10.930235 -165.68398 L -19.198981 -165.68398 L -11.423229 -155.47426 L -12.166336 -140.07934 C -28.353216 -157.12094 -50.823548 -166.77435 -74.327399 -166.78417 C -103.64471 -166.77397 -130.92652 -151.79225 -146.66717 -127.05894 L -157.25102 -127.05894 L -149.61996 -115.86014 L -157.25102 -26.140039 L -8.5138455 -26.140039 L 15.419061 -26.140039 L 8.0799737 -154.80195 L 15.419061 -165.68398 L 7.4593397 -165.68398 L 6.4490654 -183.39297 L -2.0863309 -198.17657 z M -83.43072 -192.21621 C -85.584619 -189.65499 -86.77489 -186.4211 -86.795372 -183.07465 C -86.842092 -175.15518 -80.459903 -168.69733 -72.540428 -168.65072 C -64.621155 -168.60402 -58.163395 -174.98588 -58.116503 -182.90515 C -58.102813 -186.26049 -59.266203 -189.5144 -61.404157 -192.10045 C -60.83125 -190.6836 -60.536835 -189.16959 -60.537027 -187.64129 C -60.575787 -181.07411 -65.930869 -175.78172 -72.498054 -175.82031 C -79.065241 -175.85911 -84.357627 -181.21415 -84.319038 -187.78134 C -84.309338 -189.30285 -84.007827 -190.80837 -83.43072 -192.21621 z M -55.679959 -119.64906 C -49.047728 -119.64906 -43.974215 -117.15466 -40.459699 -112.16631 C -36.888498 -107.23465 -35.10292 -100.06428 -35.10292 -90.654448 C -35.10292 -81.244616 -36.888498 -74.017081 -40.459699 -68.97205 C -43.974215 -63.983706 -49.047728 -61.489303 -55.679959 -61.489303 C -62.31219 -61.489303 -67.413766 -63.983706 -70.984968 -68.97205 C -74.556169 -74.017081 -76.341747 -81.244616 -76.341747 -90.654448 C -76.341747 -100.00759 -74.556169 -107.17797 -70.984968 -112.16631 C -67.413766 -117.15466 -62.31219 -119.64906 -55.679959 -119.64906 z M -125.3186 -119.56379 C -118.573 -119.56379 -113.41478 -117.69351 -109.84358 -113.95225 C -106.21569 -110.21099 -104.40153 -104.7971 -104.40153 -97.711381 C -104.40153 -88.811721 -107.17916 -81.216258 -112.73436 -74.924142 C -118.23287 -68.688711 -126.22536 -64.09693 -136.71222 -61.149272 L -138.75292 -65.400692 C -133.08435 -67.838179 -128.52115 -70.956182 -125.06332 -74.754126 C -121.60549 -78.608756 -119.31012 -83.086732 -118.1764 -88.188448 C -121.3508 -86.601248 -124.43971 -85.807715 -127.44405 -85.807715 C -133.11263 -85.807715 -137.59112 -87.338137 -140.87889 -90.399166 C -144.10998 -93.460196 -145.72563 -97.598308 -145.72563 -102.8134 C -145.72563 -106.04448 -144.87493 -108.93539 -143.17436 -111.48625 C -141.4171 -114.03711 -139.00792 -116.0212 -135.94689 -117.43834 C -132.82918 -118.85549 -129.2866 -119.56379 -125.3186 -119.56379 z M -30.681485 -118.88373 L -26.515331 -118.88373 C -24.361273 -118.82705 -19.656204 -118.79847 -12.40043 -118.79847 C -4.8612272 -118.79847 0.04235382 -118.82705 2.3097832 -118.88373 L 6.3906711 -118.88373 L 8.0913425 -115.22762 C 7.0143135 -113.52705 4.9735795 -109.84261 1.9692355 -104.17404 C -1.0351084 -98.505463 -3.8693751 -92.496548 -6.5336046 -86.147746 C -9.1978342 -79.798944 -10.529743 -74.838719 -10.529743 -71.267517 C -10.529743 -68.433231 -9.5376981 -66.307789 -7.5536974 -64.890646 C -9.4810124 -62.566531 -11.946835 -61.404554 -14.951179 -61.404554 C -17.72878 -61.404554 -19.882802 -62.169506 -21.413317 -63.700021 C -22.943831 -65.230536 -23.7093 -67.356494 -23.7093 -70.077409 C -23.7093 -73.478553 -22.887187 -77.077772 -21.243301 -80.875717 C -19.599415 -84.730347 -16.65186 -89.945728 -12.40043 -96.521273 L -2.3669339 -111.9963 L -21.753347 -111.9963 C -22.546948 -109.44544 -23.029197 -106.44124 -23.199254 -102.98341 C -24.219597 -102.81335 -25.268286 -102.72813 -26.345315 -102.72813 C -27.47903 -102.72813 -28.584363 -102.81335 -29.661392 -102.98341 L -32.042125 -117.60836 L -30.681485 -118.88373 z M -55.679959 -115.31237 C -58.570931 -115.31237 -60.668309 -113.41351 -61.972081 -109.61556 C -63.219167 -105.81762 -63.842768 -99.497422 -63.842768 -90.654448 C -63.842768 -81.868159 -63.219167 -75.576025 -61.972081 -71.778081 C -60.668309 -68.036822 -58.570931 -66.16602 -55.679959 -66.16602 C -52.788986 -66.16602 -50.720189 -68.036822 -49.473103 -71.778081 C -48.169331 -75.576025 -47.51715 -81.868159 -47.51715 -90.654448 C -47.51715 -99.440737 -48.169331 -105.73287 -49.473103 -109.53081 C -50.720189 -113.38544 -52.788986 -115.31237 -55.679959 -115.31237 z M -125.82865 -113.69697 C -128.26614 -113.69697 -130.13694 -112.76157 -131.44071 -110.89094 C -132.74448 -109.02031 -133.39615 -106.35597 -133.39615 -102.89814 C -133.39615 -99.383629 -132.68784 -96.634587 -131.27069 -94.650586 C -129.79686 -92.723271 -127.72755 -91.759807 -125.06332 -91.759807 C -122.73921 -91.759807 -120.1601 -92.723271 -117.32581 -94.650586 L -117.32581 -95.755945 C -117.32581 -101.93469 -118.00605 -106.46931 -119.36651 -109.36028 C -120.72697 -112.25126 -122.88099 -113.69697 -125.82865 -113.69697 z M -89.521304 -101.28274 C -87.537303 -101.28274 -86.063526 -100.68772 -85.099868 -99.497319 C -84.079525 -98.363604 -83.569729 -96.776539 -83.569729 -94.735852 C -83.569729 -92.695166 -84.079525 -91.107584 -85.099868 -89.973869 C -86.063526 -88.840154 -87.537303 -88.273198 -89.521304 -88.273198 C -91.505305 -88.273198 -93.007662 -88.840154 -94.028006 -89.973869 C -94.991663 -91.16427 -95.473395 -92.751852 -95.473395 -94.735852 C -95.473395 -96.833225 -94.991663 -98.448354 -94.028006 -99.582068 C -93.007662 -100.71578 -91.505305 -101.28274 -89.521304 -101.28274 z M -89.521304 -74.498845 C -87.537303 -74.498845 -86.063526 -73.903824 -85.099868 -72.713424 C -84.079525 -71.579709 -83.569729 -69.992127 -83.569729 -67.951441 C -83.569729 -65.910754 -84.079525 -64.323689 -85.099868 -63.189974 C -86.063526 -62.05626 -87.537303 -61.489303 -89.521304 -61.489303 C -91.505305 -61.489303 -93.007662 -62.05626 -94.028006 -63.189974 C -94.991663 -64.380375 -95.473395 -65.96744 -95.473395 -67.951441 C -95.473395 -70.048813 -94.991663 -71.664459 -94.028006 -72.798173 C -93.007662 -73.931888 -91.505305 -74.498845 -89.521304 -74.498845 z " /></g></svg>
