<?xml version="1.0" encoding="UTF-8" standalone="no"?>
<!-- Created with Inkscape (http://www.inkscape.org/) -->

<svg
   width="172.6701mm"
   height="172.6701mm"
   viewBox="0 0 172.6701 172.6701"
   version="1.1"
   id="svg1"
   xml:space="preserve"
   xmlns="http://www.w3.org/2000/svg"
   xmlns:svg="http://www.w3.org/2000/svg"><defs
     id="defs1" /><g
     id="layer1"
     transform="translate(157.25102,198.81012)"><path
       id="path5"
       style="fill:#ffffff;fill-opacity:1;stroke-width:0.805188;stroke-linecap:round;stroke-linejoin:round"
       d="M -2.0863309 -198.17657 L -10.088943 -183.11289 L -10.930235 -165.68398 L -19.198981 -165.68398 L -11.423229 -155.47426 L -12.166336 -140.07934 C -28.353216 -157.12094 -50.823548 -166.77435 -74.327399 -166.78417 C -103.64471 -166.77397 -130.92652 -151.79225 -146.66717 -127.05894 L -157.25102 -127.05894 L -149.61996 -115.86014 L -157.25102 -26.140039 L -8.5138455 -26.140039 L 15.419061 -26.140039 L 8.0799737 -154.80195 L 15.419061 -165.68398 L 7.4593397 -165.68398 L 6.4490654 -183.39297 L -2.0863309 -198.17657 z M -83.43072 -192.21621 C -85.584619 -189.65499 -86.77489 -186.4211 -86.795372 -183.07465 C -86.842092 -175.15518 -80.459903 -168.69733 -72.540428 -168.65072 C -64.621155 -168.60402 -58.163395 -174.98588 -58.116503 -182.90515 C -58.102813 -186.26049 -59.266203 -189.5144 -61.404157 -192.10045 C -60.83125 -190.6836 -60.536835 -189.16959 -60.537027 -187.64129 C -60.575787 -181.07411 -65.930869 -175.78172 -72.498054 -175.82031 C -79.065241 -175.85911 -84.357627 -181.21415 -84.319038 -187.78134 C -84.309338 -189.30285 -84.007827 -190.80837 -83.43072 -192.21621 z M -32.976952 -136.75086 C -25.088952 -136.35646 -18.680218 -134.63103 -13.750218 -131.57443 L -48.950137 -73.597608 L -26.321544 -73.597608 L -24.842565 -97.705697 C -21.687365 -97.705697 -19.419245 -98.34626 -18.038846 -99.62806 C -16.559846 -100.90986 -15.426303 -103.07907 -14.637503 -106.13567 L -6.2070096 -106.13567 L -6.3548042 -72.858118 C -2.6080043 -71.773518 2.1244958 -70.639975 7.8432956 -69.456775 L 7.1038058 -62.357467 L -7.0942939 -62.357467 L -7.0942939 -35.883114 L -26.321544 -35.883114 L -26.321544 -62.357467 L -69.064672 -62.357467 L -70.247545 -67.68169 L -32.976952 -136.75086 z M -90.06649 -136.45527 L -86.516836 -129.06037 C -106.43404 -120.48217 -118.41364 -107.2696 -122.45624 -89.422998 C -116.73744 -92.183798 -111.31467 -93.564348 -106.18747 -93.564348 C -96.327471 -93.564348 -88.587382 -90.902155 -82.967182 -85.577755 C -77.248382 -80.253355 -74.388894 -73.055441 -74.388894 -63.984241 C -74.388894 -58.364041 -75.917544 -53.33534 -78.974144 -48.89834 C -81.932144 -44.46134 -86.12247 -41.010484 -91.54547 -38.545484 C -96.86987 -36.080484 -102.98292 -34.848035 -109.88492 -34.848035 C -121.61832 -34.848035 -130.64005 -38.101597 -136.95045 -44.609196 C -143.16225 -51.116796 -146.26823 -60.533119 -146.26823 -72.858118 C -146.26823 -88.338317 -141.48653 -101.5017 -131.92233 -112.3477 C -122.25953 -123.2923 -108.30749 -131.32807 -90.06649 -136.45527 z M -110.32882 -83.211491 C -114.47002 -83.211491 -118.95603 -81.535257 -123.78743 -78.182858 L -123.78743 -76.259978 C -123.78743 -65.512578 -122.60418 -57.624389 -120.23778 -52.595789 C -117.87138 -47.567189 -114.12483 -45.053097 -108.99763 -45.053097 C -104.75783 -45.053097 -101.50376 -46.680136 -99.235957 -49.933936 C -96.968157 -53.187736 -95.834614 -57.821847 -95.834614 -63.836446 C -95.834614 -69.949646 -97.116257 -74.682146 -99.679857 -78.034546 C -102.14486 -81.485546 -105.69462 -83.211491 -110.32882 -83.211491 z " /></g></svg>
