<?xml version="1.0" encoding="UTF-8" standalone="no"?>
<!-- Created with Inkscape (http://www.inkscape.org/) -->

<svg
   width="172.6701mm"
   height="172.6701mm"
   viewBox="0 0 172.6701 172.6701"
   version="1.1"
   id="svg1"
   xml:space="preserve"
   xmlns="http://www.w3.org/2000/svg"
   xmlns:svg="http://www.w3.org/2000/svg"><defs
     id="defs1" /><g
     id="layer1"
     transform="translate(157.25102,198.81012)"><path
       id="path5"
       style="fill:#ffffff;fill-opacity:1;stroke-width:0.805188;stroke-linecap:round;stroke-linejoin:round"
       d="M -2.0863309 -198.17657 L -10.088943 -183.11289 L -10.930235 -165.68398 L -19.198981 -165.68398 L -11.423229 -155.47426 L -12.166336 -140.07934 C -28.353216 -157.12094 -50.823548 -166.77435 -74.327399 -166.78417 C -103.64471 -166.77397 -130.92652 -151.79225 -146.66717 -127.05894 L -157.25102 -127.05894 L -149.61996 -115.86014 L -157.25102 -26.140039 L -8.5138455 -26.140039 L 15.419061 -26.140039 L 8.0799737 -154.80195 L 15.419061 -165.68398 L 7.4593397 -165.68398 L 6.4490654 -183.39297 L -2.0863309 -198.17657 z M -83.43072 -192.21621 C -85.584619 -189.65499 -86.77489 -186.4211 -86.795372 -183.07465 C -86.842092 -175.15518 -80.459903 -168.69733 -72.540428 -168.65072 C -64.621155 -168.60402 -58.163395 -174.98588 -58.116503 -182.90515 C -58.102813 -186.26049 -59.266203 -189.5144 -61.404157 -192.10045 C -60.83125 -190.6836 -60.536835 -189.16959 -60.537027 -187.64129 C -60.575787 -181.07411 -65.930869 -175.78172 -72.498054 -175.82031 C -79.065241 -175.85911 -84.357627 -181.21415 -84.319038 -187.78134 C -84.309338 -189.30285 -84.007827 -190.80837 -83.43072 -192.21621 z M -60.229035 -120.07436 C -55.694176 -119.84761 -52.009733 -118.85557 -49.175446 -117.09831 L -69.411937 -83.767013 L -56.402912 -83.767013 L -55.552318 -97.626632 C -53.738374 -97.626632 -52.434529 -97.995076 -51.640929 -98.731991 C -50.790643 -99.468905 -50.138979 -100.71611 -49.685493 -102.47336 L -44.83876 -102.47336 L -44.924026 -83.341716 C -42.769968 -82.718173 -40.04899 -82.066508 -36.761217 -81.38628 L -37.186514 -77.304875 L -45.348806 -77.304875 L -45.348806 -62.084615 L -56.402912 -62.084615 L -56.402912 -77.304875 L -80.976089 -77.304875 L -81.656151 -80.36567 L -60.229035 -120.07436 z M -13.208133 -120.07436 C -8.6732738 -119.84761 -4.9888305 -118.85557 -2.1545438 -117.09831 L -22.391551 -83.767013 L -9.3820096 -83.767013 L -8.5319323 -97.626632 C -6.7179888 -97.626632 -5.4141434 -97.995076 -4.6205431 -98.731991 C -3.7702571 -99.468905 -3.118076 -100.71611 -2.6645901 -102.47336 L 2.1821424 -102.47336 L 2.0968763 -83.341716 C 4.2509343 -82.718173 6.9719129 -82.066508 10.259686 -81.38628 L 9.8343885 -77.304875 L 1.6715793 -77.304875 L 1.6715793 -62.084615 L -9.3820096 -62.084615 L -9.3820096 -77.304875 L -33.955187 -77.304875 L -34.635249 -80.36567 L -13.208133 -120.07436 z M -128.67705 -119.56379 C -121.93145 -119.56379 -116.77323 -117.69351 -113.20203 -113.95225 C -109.57414 -110.21099 -107.75998 -104.7971 -107.75998 -97.711381 C -107.75998 -88.811721 -110.53761 -81.216258 -116.09281 -74.924142 C -121.59133 -68.688711 -129.58433 -64.09693 -140.07119 -61.149272 L -142.11189 -65.400692 C -136.44332 -67.838179 -131.88012 -70.956182 -128.42229 -74.754126 C -124.96446 -78.608756 -122.66857 -83.086732 -121.53485 -88.188448 C -124.70925 -86.601248 -127.79868 -85.807715 -130.80302 -85.807715 C -136.4716 -85.807715 -140.94957 -87.338137 -144.23734 -90.399166 C -147.46843 -93.460196 -149.08408 -97.598308 -149.08408 -102.8134 C -149.08408 -106.04448 -148.2339 -108.93539 -146.53333 -111.48625 C -144.77607 -114.03711 -142.36689 -116.0212 -139.30586 -117.43834 C -136.18815 -118.85549 -132.64505 -119.56379 -128.67705 -119.56379 z M -129.1871 -113.69697 C -131.62459 -113.69697 -133.49539 -112.76157 -134.79916 -110.89094 C -136.10293 -109.02031 -136.75511 -106.35597 -136.75511 -102.89814 C -136.75511 -99.383629 -136.04629 -96.634587 -134.62915 -94.650586 C -133.15532 -92.723271 -131.08652 -91.759807 -128.42229 -91.759807 C -126.09817 -91.759807 -123.51855 -92.723271 -120.68426 -94.650586 L -120.68426 -95.755945 C -120.68426 -101.93469 -121.3645 -106.46931 -122.72496 -109.36028 C -124.08542 -112.25126 -126.23944 -113.69697 -129.1871 -113.69697 z M -92.880272 -101.28274 C -90.896271 -101.28274 -89.421977 -100.68772 -88.45832 -99.497319 C -87.437977 -98.363604 -86.928181 -96.776539 -86.928181 -94.735852 C -86.928181 -92.695166 -87.437977 -91.107584 -88.45832 -89.973869 C -89.421977 -88.840154 -90.896271 -88.273198 -92.880272 -88.273198 C -94.864273 -88.273198 -96.366114 -88.840154 -97.386457 -89.973869 C -98.350115 -91.16427 -98.831847 -92.751852 -98.831847 -94.735852 C -98.831847 -96.833225 -98.350115 -98.448354 -97.386457 -99.582068 C -96.366114 -100.71578 -94.864273 -101.28274 -92.880272 -101.28274 z M -92.880272 -74.498845 C -90.896271 -74.498845 -89.421977 -73.903824 -88.45832 -72.713424 C -87.437977 -71.579709 -86.928181 -69.992127 -86.928181 -67.951441 C -86.928181 -65.910754 -87.437977 -64.323689 -88.45832 -63.189974 C -89.421977 -62.05626 -90.896271 -61.489303 -92.880272 -61.489303 C -94.864273 -61.489303 -96.366114 -62.05626 -97.386457 -63.189974 C -98.350115 -64.380375 -98.831847 -65.96744 -98.831847 -67.951441 C -98.831847 -70.048813 -98.350115 -71.664459 -97.386457 -72.798173 C -96.366114 -73.931888 -94.864273 -74.498845 -92.880272 -74.498845 z " /></g></svg>
