<?xml version="1.0" encoding="UTF-8" standalone="no"?>
<!-- Created with Inkscape (http://www.inkscape.org/) -->

<svg
   width="172.6701mm"
   height="172.6701mm"
   viewBox="0 0 172.6701 172.6701"
   version="1.1"
   id="svg1"
   xml:space="preserve"
   xmlns="http://www.w3.org/2000/svg"
   xmlns:svg="http://www.w3.org/2000/svg"><defs
     id="defs1" /><g
     id="layer1"
     transform="translate(157.25102,198.81012)"><path
       id="path5"
       style="fill:#ffffff;fill-opacity:1;stroke-width:0.805188;stroke-linecap:round;stroke-linejoin:round"
       d="M -2.0863309 -198.17657 L -10.088943 -183.11289 L -10.930235 -165.68398 L -19.198981 -165.68398 L -11.423229 -155.47426 L -12.166336 -140.07934 C -28.353216 -157.12094 -50.823548 -166.77435 -74.327399 -166.78417 C -103.64471 -166.77397 -130.92652 -151.79225 -146.66717 -127.05894 L -157.25102 -127.05894 L -149.61996 -115.86014 L -157.25102 -26.140039 L -8.5138455 -26.140039 L 15.419061 -26.140039 L 8.0799737 -154.80195 L 15.419061 -165.68398 L 7.4593397 -165.68398 L 6.4490654 -183.39297 L -2.0863309 -198.17657 z M -83.43072 -192.21621 C -85.584619 -189.65499 -86.77489 -186.4211 -86.795372 -183.07465 C -86.842092 -175.15518 -80.459903 -168.69733 -72.540428 -168.65072 C -64.621155 -168.60402 -58.163395 -174.98588 -58.116503 -182.90515 C -58.102813 -186.26049 -59.266203 -189.5144 -61.404157 -192.10045 C -60.83125 -190.6836 -60.536835 -189.16959 -60.537027 -187.64129 C -60.575787 -181.07411 -65.930869 -175.78172 -72.498054 -175.82031 C -79.065241 -175.85911 -84.357627 -181.21415 -84.319038 -187.78134 C -84.309338 -189.30285 -84.007827 -190.80837 -83.43072 -192.21621 z M -113.88209 -119.90383 L -111.84139 -115.65241 C -123.29191 -110.72075 -130.17958 -103.12528 -132.50369 -92.865166 C -129.21592 -94.452366 -126.09792 -95.245899 -123.15026 -95.245899 C -117.48169 -95.245899 -113.03177 -93.715477 -109.80069 -90.654448 C -106.51291 -87.593418 -104.8692 -83.455306 -104.8692 -78.240218 C -104.8692 -75.009132 -105.74796 -72.118221 -107.50522 -69.567363 C -109.20579 -67.016505 -111.61497 -65.032415 -114.73269 -63.615271 C -117.79371 -62.198128 -121.30823 -61.489303 -125.27623 -61.489303 C -132.02183 -61.489303 -137.20863 -63.360105 -140.83652 -67.101363 C -144.40772 -70.842622 -146.1933 -76.255999 -146.1933 -83.341716 C -146.1933 -92.241376 -143.44374 -99.808775 -137.94522 -106.04421 C -132.39002 -112.33632 -124.36895 -116.95617 -113.88209 -119.90383 z M -12.528071 -119.73381 C -6.6894401 -119.73381 -2.0410154 -118.28861 1.4168145 -115.39764 C 4.8746443 -112.56335 6.603578 -108.56711 6.603578 -103.40871 C 6.603578 -98.873849 4.8746443 -94.026912 1.4168145 -88.86851 C -2.0410154 -83.766794 -7.7381291 -77.616529 -15.674132 -70.41744 L 7.1988905 -70.41744 L 7.1988905 -62.084615 L -31.319172 -62.084615 L -31.319172 -67.016097 C -25.027055 -73.081471 -20.123991 -78.268272 -16.609475 -82.576388 C -13.09496 -86.884504 -10.572494 -90.852684 -9.0419787 -94.480571 C -7.4547781 -98.108458 -6.6612454 -101.84955 -6.6612454 -105.70418 C -6.6612454 -111.82623 -8.7014627 -114.88759 -12.782836 -114.88759 C -14.596779 -114.88759 -16.071073 -114.0369 -17.204788 -112.33633 C -18.338503 -110.69244 -18.904943 -108.65171 -18.904943 -106.21422 C -18.904943 -104.51365 -18.309922 -102.89852 -17.119522 -101.36801 C -18.083179 -100.46103 -19.188512 -99.752209 -20.435598 -99.242037 C -21.625999 -98.731866 -22.816556 -98.476709 -24.006957 -98.476709 C -26.047643 -98.476709 -27.747996 -99.10031 -29.108454 -100.3474 C -30.468912 -101.65117 -31.149156 -103.52197 -31.149156 -105.95946 C -31.149156 -108.567 -30.384204 -110.91953 -28.853689 -113.01691 C -27.323174 -115.11428 -25.169152 -116.75799 -22.391551 -117.94839 C -19.557265 -119.13879 -16.269329 -119.73381 -12.528071 -119.73381 z M -56.062881 -119.64906 C -49.43065 -119.64906 -44.357137 -117.15466 -40.842622 -112.16631 C -37.27142 -107.23465 -35.485843 -100.06428 -35.485843 -90.654448 C -35.485843 -81.244616 -37.27142 -74.017081 -40.842622 -68.97205 C -44.357137 -63.983706 -49.43065 -61.489303 -56.062881 -61.489303 C -62.695112 -61.489303 -67.796689 -63.983706 -71.36789 -68.97205 C -74.939091 -74.017081 -76.724669 -81.244616 -76.724669 -90.654448 C -76.724669 -100.00759 -74.939091 -107.17797 -71.36789 -112.16631 C -67.796689 -117.15466 -62.695112 -119.64906 -56.062881 -119.64906 z M -56.062881 -115.31237 C -58.953854 -115.31237 -61.051232 -113.41351 -62.355004 -109.61556 C -63.60209 -105.81762 -64.22569 -99.497422 -64.22569 -90.654448 C -64.22569 -81.868159 -63.60209 -75.576025 -62.355004 -71.778081 C -61.051232 -68.036822 -58.953854 -66.16602 -56.062881 -66.16602 C -53.171909 -66.16602 -51.102594 -68.036822 -49.855508 -71.778081 C -48.551736 -75.576025 -47.900072 -81.868159 -47.900072 -90.654448 C -47.900072 -99.440737 -48.551736 -105.73287 -49.855508 -109.53081 C -51.102594 -113.38544 -53.171909 -115.31237 -56.062881 -115.31237 z M -89.904226 -101.28274 C -87.920226 -101.28274 -86.446448 -100.68772 -85.482791 -99.497319 C -84.462448 -98.363604 -83.952135 -96.776539 -83.952135 -94.735852 C -83.952135 -92.695166 -84.462448 -91.107584 -85.482791 -89.973869 C -86.446448 -88.840154 -87.920226 -88.273198 -89.904226 -88.273198 C -91.888227 -88.273198 -93.390585 -88.840154 -94.410928 -89.973869 C -95.374586 -91.16427 -95.856318 -92.751852 -95.856318 -94.735852 C -95.856318 -96.833225 -95.374586 -98.448354 -94.410928 -99.582068 C -93.390585 -100.71578 -91.888227 -101.28274 -89.904226 -101.28274 z M -125.53099 -89.293807 C -127.91179 -89.293807 -130.4909 -88.330343 -133.2685 -86.403028 L -133.2685 -85.297669 C -133.2685 -79.118924 -132.58878 -74.583787 -131.22832 -71.692814 C -129.86786 -68.801842 -127.71332 -67.356645 -124.76566 -67.356645 C -122.32818 -67.356645 -120.45789 -68.291529 -119.15412 -70.162159 C -117.85035 -72.032788 -117.19817 -74.697123 -117.19817 -78.154952 C -117.19817 -81.669468 -117.93506 -84.390447 -119.40889 -86.317762 C -120.82603 -88.301762 -122.86676 -89.293807 -125.53099 -89.293807 z M -89.904226 -74.498845 C -87.920226 -74.498845 -86.446448 -73.903824 -85.482791 -72.713424 C -84.462448 -71.579709 -83.952135 -69.992127 -83.952135 -67.951441 C -83.952135 -65.910754 -84.462448 -64.323689 -85.482791 -63.189974 C -86.446448 -62.05626 -87.920226 -61.489303 -89.904226 -61.489303 C -91.888227 -61.489303 -93.390585 -62.05626 -94.410928 -63.189974 C -95.374586 -64.380375 -95.856318 -65.96744 -95.856318 -67.951441 C -95.856318 -70.048813 -95.374586 -71.664459 -94.410928 -72.798173 C -93.390585 -73.931888 -91.888227 -74.498845 -89.904226 -74.498845 z " /></g></svg>
