<?xml version="1.0" encoding="UTF-8" standalone="no"?>
<!-- Created with Inkscape (http://www.inkscape.org/) -->

<svg
   width="172.6701mm"
   height="172.6701mm"
   viewBox="0 0 172.6701 172.6701"
   version="1.1"
   id="svg1"
   xml:space="preserve"
   xmlns="http://www.w3.org/2000/svg"
   xmlns:svg="http://www.w3.org/2000/svg"><defs
     id="defs1" /><g
     id="layer1"
     transform="translate(157.25102,198.81012)"><path
       id="path5"
       style="fill:#ffffff;fill-opacity:1;stroke-width:0.805188;stroke-linecap:round;stroke-linejoin:round"
       d="M -2.0863309 -198.17657 L -10.088943 -183.11289 L -10.930235 -165.68398 L -19.198981 -165.68398 L -11.423229 -155.47426 L -12.166336 -140.07934 C -28.353216 -157.12094 -50.823548 -166.77435 -74.327399 -166.78417 C -103.64471 -166.77397 -130.92652 -151.79225 -146.66717 -127.05894 L -157.25102 -127.05894 L -149.61996 -115.86014 L -157.25102 -26.140039 L -8.5138455 -26.140039 L 15.419061 -26.140039 L 8.0799737 -154.80195 L 15.419061 -165.68398 L 7.4593397 -165.68398 L 6.4490654 -183.39297 L -2.0863309 -198.17657 z M -83.43072 -192.21621 C -85.584619 -189.65499 -86.77489 -186.4211 -86.795372 -183.07465 C -86.842092 -175.15518 -80.459903 -168.69733 -72.540428 -168.65072 C -64.621155 -168.60402 -58.163395 -174.98588 -58.116503 -182.90515 C -58.102813 -186.26049 -59.266203 -189.5144 -61.404157 -192.10045 C -60.83125 -190.6836 -60.536835 -189.16959 -60.537027 -187.64129 C -60.575787 -181.07411 -65.930869 -175.78172 -72.498054 -175.82031 C -79.065241 -175.85911 -84.357627 -181.21415 -84.319038 -187.78134 C -84.309338 -189.30285 -84.007827 -190.80837 -83.43072 -192.21621 z M -125.36098 -120.07436 C -120.82612 -119.84761 -117.14167 -118.85557 -114.30739 -117.09831 L -134.5444 -83.767013 L -121.53485 -83.767013 L -120.68426 -97.626632 C -118.87032 -97.626632 -117.56699 -97.995076 -116.77339 -98.731991 C -115.9231 -99.468905 -115.27092 -100.71611 -114.81743 -102.47336 L -109.9707 -102.47336 L -110.05597 -83.341716 C -107.90191 -82.718173 -105.18093 -82.066508 -101.89316 -81.38628 L -102.31846 -77.304875 L -110.48126 -77.304875 L -110.48126 -62.084615 L -121.53485 -62.084615 L -121.53485 -77.304875 L -146.10803 -77.304875 L -146.78809 -80.36567 L -125.36098 -120.07436 z M -53.3416 -119.64906 C -46.709369 -119.64906 -41.636373 -117.15466 -38.121857 -112.16631 C -34.550656 -107.23465 -32.765078 -100.06428 -32.765078 -90.654448 C -32.765078 -81.244616 -34.550656 -74.017081 -38.121857 -68.97205 C -41.636373 -63.983706 -46.709369 -61.489303 -53.3416 -61.489303 C -59.973831 -61.489303 -65.075925 -63.983706 -68.647126 -68.97205 C -72.218327 -74.017081 -74.003905 -81.244616 -74.003905 -90.654448 C -74.003905 -100.00759 -72.218327 -107.17797 -68.647126 -112.16631 C -65.075925 -117.15466 -59.973831 -119.64906 -53.3416 -119.64906 z M -7.2560412 -119.13901 L -4.4505276 -117.86364 L -4.4505276 -68.716769 C -3.3734987 -68.093226 -1.6726286 -67.526269 0.65148651 -67.016097 C 2.9756016 -66.562611 4.8178233 -66.279392 6.1782809 -66.16602 L 5.9229994 -62.084615 L -28.768423 -62.084615 L -28.598408 -66.16602 C -23.553377 -66.732877 -19.699002 -67.583054 -17.034772 -68.716769 L -17.034772 -109.44555 L -28.428392 -109.44555 L -28.428392 -114.37703 C -24.800505 -114.66046 -21.059418 -115.19935 -17.204788 -115.99295 C -13.350158 -116.84324 -10.033642 -117.89193 -7.2560412 -119.13901 z M -53.3416 -115.31237 C -56.232573 -115.31237 -58.329951 -113.41351 -59.633723 -109.61556 C -60.880809 -105.81762 -61.504409 -99.497422 -61.504409 -90.654448 C -61.504409 -81.868159 -60.880809 -75.576025 -59.633723 -71.778081 C -58.329951 -68.036822 -56.232573 -66.16602 -53.3416 -66.16602 C -50.450628 -66.16602 -48.38183 -68.036822 -47.134744 -71.778081 C -45.830972 -75.576025 -45.179308 -81.868159 -45.179308 -90.654448 C -45.179308 -99.440737 -45.830972 -105.73287 -47.134744 -109.53081 C -48.38183 -113.38544 -50.450628 -115.31237 -53.3416 -115.31237 z M -87.183462 -101.28274 C -85.199461 -101.28274 -83.725684 -100.68772 -82.762027 -99.497319 C -81.741683 -98.363604 -81.231371 -96.776539 -81.231371 -94.735852 C -81.231371 -92.695166 -81.741683 -91.107584 -82.762027 -89.973869 C -83.725684 -88.840154 -85.199461 -88.273198 -87.183462 -88.273198 C -89.167463 -88.273198 -90.669304 -88.840154 -91.689647 -89.973869 C -92.653305 -91.16427 -93.135037 -92.751852 -93.135037 -94.735852 C -93.135037 -96.833225 -92.653305 -98.448354 -91.689647 -99.582068 C -90.669304 -100.71578 -89.167463 -101.28274 -87.183462 -101.28274 z M -87.183462 -74.498845 C -85.199461 -74.498845 -83.725684 -73.903824 -82.762027 -72.713424 C -81.741683 -71.579709 -81.231371 -69.992127 -81.231371 -67.951441 C -81.231371 -65.910754 -81.741683 -64.323689 -82.762027 -63.189974 C -83.725684 -62.05626 -85.199461 -61.489303 -87.183462 -61.489303 C -89.167463 -61.489303 -90.669304 -62.05626 -91.689647 -63.189974 C -92.653305 -64.380375 -93.135037 -65.96744 -93.135037 -67.951441 C -93.135037 -70.048813 -92.653305 -71.664459 -91.689647 -72.798173 C -90.669304 -73.931888 -89.167463 -74.498845 -87.183462 -74.498845 z " /></g></svg>
