<?xml version="1.0" encoding="UTF-8" standalone="no"?>
<!-- Created with Inkscape (http://www.inkscape.org/) -->

<svg
   width="172.6701mm"
   height="172.6701mm"
   viewBox="0 0 172.6701 172.6701"
   version="1.1"
   id="svg1"
   xml:space="preserve"
   xmlns="http://www.w3.org/2000/svg"
   xmlns:svg="http://www.w3.org/2000/svg"><defs
     id="defs1" /><g
     id="layer1"
     transform="translate(157.25102,198.81012)"><path
       id="path5"
       style="fill:#ffffff;fill-opacity:1;stroke-width:0.805188;stroke-linecap:round;stroke-linejoin:round"
       d="M -2.0863309 -198.17657 L -10.088943 -183.11289 L -10.930235 -165.68398 L -19.198981 -165.68398 L -11.423229 -155.47426 L -12.166336 -140.07934 C -28.353216 -157.12094 -50.823548 -166.77435 -74.327399 -166.78417 C -103.64471 -166.77397 -130.92652 -151.79225 -146.66717 -127.05894 L -157.25102 -127.05894 L -149.61996 -115.86014 L -157.25102 -26.140039 L -8.5138455 -26.140039 L 15.419061 -26.140039 L 8.0799737 -154.80195 L 15.419061 -165.68398 L 7.4593397 -165.68398 L 6.4490654 -183.39297 L -2.0863309 -198.17657 z M -83.43072 -192.21621 C -85.584619 -189.65499 -86.77489 -186.4211 -86.795372 -183.07465 C -86.842092 -175.15518 -80.459903 -168.69733 -72.540428 -168.65072 C -64.621155 -168.60402 -58.163395 -174.98588 -58.116503 -182.90515 C -58.102813 -186.26049 -59.266203 -189.5144 -61.404157 -192.10045 C -60.83125 -190.6836 -60.536835 -189.16959 -60.537027 -187.64129 C -60.575787 -181.07411 -65.930869 -175.78172 -72.498054 -175.82031 C -79.065241 -175.85911 -84.357627 -181.21415 -84.319038 -187.78134 C -84.309338 -189.30285 -84.007827 -190.80837 -83.43072 -192.21621 z M -109.14543 -134.72153 C -98.79243 -134.72153 -90.559361 -132.50312 -84.446162 -128.06612 C -78.332962 -123.62912 -75.276695 -117.66365 -75.276695 -110.17005 C -75.276695 -106.12745 -76.755634 -102.08523 -79.713634 -98.042627 C -82.671634 -94.000027 -86.566275 -90.696755 -91.397675 -88.133155 C -85.284476 -85.175155 -80.502264 -81.724298 -77.051264 -77.780298 C -73.501664 -73.836298 -71.727041 -68.758402 -71.727041 -62.546603 C -71.727041 -53.574003 -74.980603 -46.425283 -81.488203 -41.100883 C -87.995802 -35.875084 -96.771045 -33.262085 -107.81424 -33.262085 C -119.94204 -33.262085 -129.30917 -35.677788 -135.91537 -40.509188 C -142.42297 -45.340588 -145.67705 -52.242818 -145.67705 -61.215418 C -145.67705 -65.849618 -144.19811 -70.434534 -141.24011 -74.970134 C -138.28211 -79.604334 -134.14046 -83.69627 -128.81606 -87.24587 C -133.25306 -89.71087 -136.70444 -92.668747 -139.16944 -96.119747 C -141.63444 -99.570747 -142.86689 -103.85998 -142.86689 -108.98718 C -142.86689 -116.87518 -139.8101 -123.13633 -133.6969 -127.77053 C -127.5837 -132.40473 -119.39983 -134.72153 -109.14543 -134.72153 z M -28.09663 -134.42594 C -16.56043 -134.42594 -7.7354763 -130.08751 -1.6222765 -121.41071 C 4.5895232 -112.83251 7.695501 -100.3594 7.695501 -83.991805 C 7.695501 -67.624206 4.5895232 -55.052711 -1.6222765 -46.277312 C -7.7354763 -37.600512 -16.56043 -33.262085 -28.09663 -33.262085 C -39.632829 -33.262085 -48.506461 -37.600512 -54.71826 -46.277312 C -60.93006 -55.052711 -64.036038 -67.624206 -64.036038 -83.991805 C -64.036038 -100.2608 -60.93006 -112.73391 -54.71826 -121.41071 C -48.506461 -130.08751 -39.632829 -134.42594 -28.09663 -134.42594 z M -28.09663 -126.88324 C -33.125229 -126.88324 -36.773381 -123.57997 -39.041181 -116.97377 C -41.210381 -110.36757 -42.294729 -99.373405 -42.294729 -83.991805 C -42.294729 -68.708806 -41.210381 -57.76435 -39.041181 -51.158151 C -36.773381 -44.650551 -33.125229 -41.396989 -28.09663 -41.396989 C -23.06803 -41.396989 -19.469072 -44.650551 -17.299873 -51.158151 C -15.032073 -57.76435 -13.898013 -68.708806 -13.898013 -83.991805 C -13.898013 -99.274805 -15.032073 -110.21978 -17.299873 -116.82598 C -19.469072 -123.53078 -23.06803 -126.88324 -28.09663 -126.88324 z M -109.14543 -124.22087 C -113.08943 -124.22087 -116.19541 -122.93923 -118.46321 -120.37563 C -120.73101 -117.91063 -121.86507 -114.55816 -121.86507 -110.31836 C -121.86507 -106.57156 -120.43532 -103.46559 -117.57592 -101.00059 C -114.61792 -98.634186 -110.32869 -96.267678 -104.70849 -93.901278 C -102.24349 -95.577478 -100.27157 -97.894792 -98.792573 -100.85279 C -97.313573 -103.81079 -96.574103 -106.96596 -96.574103 -110.31836 C -96.574103 -114.55816 -97.757358 -117.91063 -100.12376 -120.37563 C -102.39156 -122.93923 -105.39863 -124.22087 -109.14543 -124.22087 z M -115.20966 -81.182158 C -118.16766 -78.815758 -120.33687 -76.103854 -121.71727 -73.047254 C -123.09767 -69.990654 -123.78743 -66.342502 -123.78743 -62.102702 C -123.78743 -56.285302 -122.3582 -51.700386 -119.4988 -48.347986 C -116.6394 -45.094186 -112.74424 -43.467664 -107.81424 -43.467664 C -102.98284 -43.467664 -99.236303 -45.094186 -96.574103 -48.347986 C -93.813304 -51.601786 -92.432754 -56.137508 -92.432754 -61.954908 C -92.432754 -65.208707 -93.468425 -67.969289 -95.539025 -70.237089 C -97.511024 -72.603489 -100.02512 -74.526213 -103.08172 -76.005213 C -106.13832 -77.582813 -110.18106 -79.308758 -115.20966 -81.182158 z " /></g></svg>
