<?xml version="1.0" encoding="UTF-8" standalone="no"?>
<!-- Created with Inkscape (http://www.inkscape.org/) -->

<svg
   width="172.6701mm"
   height="172.6701mm"
   viewBox="0 0 172.6701 172.6701"
   version="1.1"
   id="svg1"
   xml:space="preserve"
   xmlns="http://www.w3.org/2000/svg"
   xmlns:svg="http://www.w3.org/2000/svg"><defs
     id="defs1" /><g
     id="layer1"
     transform="translate(157.25102,198.81012)"><path
       id="path5"
       style="fill:#ffffff;fill-opacity:1;stroke-width:0.805188;stroke-linecap:round;stroke-linejoin:round"
       d="M -2.0863309 -198.17657 L -10.088943 -183.11289 L -10.930235 -165.68398 L -19.198981 -165.68398 L -11.423229 -155.47426 L -12.166336 -140.07934 C -28.353216 -157.12094 -50.823548 -166.77435 -74.327399 -166.78417 C -103.64471 -166.77397 -130.92652 -151.79225 -146.66717 -127.05894 L -157.25102 -127.05894 L -149.61996 -115.86014 L -157.25102 -26.140039 L -8.5138455 -26.140039 L 15.419061 -26.140039 L 8.0799737 -154.80195 L 15.419061 -165.68398 L 7.4593397 -165.68398 L 6.4490654 -183.39297 L -2.0863309 -198.17657 z M -83.43072 -192.21621 C -85.584619 -189.65499 -86.77489 -186.4211 -86.795372 -183.07465 C -86.842092 -175.15518 -80.459903 -168.69733 -72.540428 -168.65072 C -64.621155 -168.60402 -58.163395 -174.98588 -58.116503 -182.90515 C -58.102813 -186.26049 -59.266203 -189.5144 -61.404157 -192.10045 C -60.83125 -190.6836 -60.536835 -189.16959 -60.537027 -187.64129 C -60.575787 -181.07411 -65.930869 -175.78172 -72.498054 -175.82031 C -79.065241 -175.85911 -84.357627 -181.21415 -84.319038 -187.78134 C -84.309338 -189.30285 -84.007827 -190.80837 -83.43072 -192.21621 z M -56.742943 -119.73381 C -53.05837 -119.73381 -49.799015 -119.11073 -46.964728 -117.86364 C -44.130442 -116.67324 -41.919776 -114.97237 -40.332575 -112.76163 C -38.745375 -110.60757 -37.951325 -108.11368 -37.951325 -105.27939 C -37.951325 -102.10499 -38.886726 -99.384015 -40.757355 -97.116586 C -42.627985 -94.849156 -45.405607 -93.120223 -49.09018 -91.929822 C -44.44195 -90.909479 -41.182595 -89.237189 -39.311966 -86.913074 C -37.441336 -84.588959 -36.505935 -81.442892 -36.505935 -77.474891 C -36.505935 -74.017061 -37.554624 -71.069506 -39.651997 -68.632019 C -41.692683 -66.194533 -44.357018 -64.380375 -47.64479 -63.189974 C -50.932563 -61.999574 -54.333786 -61.404554 -57.848302 -61.404554 C -62.950018 -61.404554 -67.286642 -62.453243 -70.857844 -64.550615 C -74.372359 -66.647987 -76.129357 -69.510317 -76.129357 -73.138204 C -76.129357 -75.235577 -75.505756 -76.851222 -74.25867 -77.984937 C -73.011584 -79.175337 -71.452582 -79.770358 -69.581953 -79.770358 C -67.654638 -79.770358 -65.699128 -79.005405 -63.715127 -77.474891 C -64.225299 -76.397862 -64.480455 -75.094016 -64.480455 -73.563501 C -64.480455 -71.749558 -63.942079 -70.275781 -62.86505 -69.142066 C -61.731335 -68.008351 -60.059046 -67.441394 -57.848302 -67.441394 C -52.973329 -67.441394 -50.53557 -70.814037 -50.53557 -77.55964 C -50.53557 -81.244213 -51.726127 -84.10706 -54.106928 -86.147746 C -56.431043 -88.188433 -59.747042 -89.208541 -64.055158 -89.208541 L -64.055158 -94.480571 C -55.722355 -95.1608 -51.55618 -98.760535 -51.55618 -105.27939 C -51.55618 -108.56717 -52.066492 -110.97583 -53.086835 -112.50634 C -54.107179 -114.09354 -55.495732 -114.88759 -57.252989 -114.88759 C -59.350362 -114.88759 -60.937427 -114.15071 -62.014456 -112.67688 C -63.034799 -111.20305 -63.545112 -109.41747 -63.545112 -107.3201 C -63.545112 -105.44947 -63.148087 -103.77718 -62.354487 -102.30335 C -63.941687 -100.60278 -65.982421 -99.752084 -68.476594 -99.752084 C -70.744023 -99.752084 -72.501537 -100.43233 -73.748623 -101.79279 C -74.99571 -103.15324 -75.61931 -104.91076 -75.61931 -107.06482 C -75.61931 -109.8991 -74.655329 -112.25164 -72.728014 -114.12227 C -70.744013 -116.04958 -68.306771 -117.46671 -65.415799 -118.37369 C -62.46814 -119.28066 -59.57723 -119.73381 -56.742943 -119.73381 z M -124.25562 -119.56379 C -117.51002 -119.56379 -112.35179 -117.69351 -108.78059 -113.95225 C -105.15271 -110.21099 -103.33855 -104.7971 -103.33855 -97.711381 C -103.33855 -88.811721 -106.11617 -81.216258 -111.67137 -74.924142 C -117.16989 -68.688711 -125.16238 -64.09693 -135.64924 -61.149272 L -137.68994 -65.400692 C -132.02137 -67.838179 -127.45817 -70.956182 -124.00034 -74.754126 C -120.54251 -78.608756 -118.24713 -83.086732 -117.11342 -88.188448 C -120.28782 -86.601248 -123.37724 -85.807715 -126.38159 -85.807715 C -132.05016 -85.807715 -136.52814 -87.338137 -139.81591 -90.399166 C -143.047 -93.460196 -144.66264 -97.598308 -144.66264 -102.8134 C -144.66264 -106.04448 -143.81246 -108.93539 -142.11189 -111.48625 C -140.35463 -114.03711 -137.94546 -116.0212 -134.88443 -117.43834 C -131.76671 -118.85549 -128.22362 -119.56379 -124.25562 -119.56379 z M -31.744469 -118.88373 L -27.578315 -118.88373 C -25.424257 -118.82705 -20.719188 -118.79847 -13.463414 -118.79847 C -5.9242114 -118.79847 -1.0206304 -118.82705 1.246799 -118.88373 L 5.3282036 -118.88373 L 7.0283583 -115.22762 C 5.9513293 -113.52705 3.9105953 -109.84261 0.90625132 -104.17404 C -2.0980926 -98.505463 -4.9323593 -92.496548 -7.5965888 -86.147746 C -10.260818 -79.798944 -11.592727 -74.838719 -11.592727 -71.267517 C -11.592727 -68.433231 -10.600682 -66.307789 -8.6166816 -64.890646 C -10.543997 -62.566531 -13.009819 -61.404554 -16.014163 -61.404554 C -18.791764 -61.404554 -20.945786 -62.169506 -22.476301 -63.700021 C -24.006816 -65.230536 -24.772285 -67.356494 -24.772285 -70.077409 C -24.772285 -73.478553 -23.950172 -77.077772 -22.306285 -80.875717 C -20.662399 -84.730347 -17.714844 -89.945728 -13.463414 -96.521273 L -3.4299181 -111.9963 L -22.816332 -111.9963 C -23.609932 -109.44544 -24.091664 -106.44124 -24.261721 -102.98341 C -25.282065 -102.81335 -26.330754 -102.72813 -27.407783 -102.72813 C -28.541497 -102.72813 -29.647347 -102.81335 -30.724376 -102.98341 L -33.105109 -117.60836 L -31.744469 -118.88373 z M -124.76566 -113.69697 C -127.20315 -113.69697 -129.07395 -112.76157 -130.37772 -110.89094 C -131.6815 -109.02031 -132.33316 -106.35597 -132.33316 -102.89814 C -132.33316 -99.383629 -131.62485 -96.634587 -130.20771 -94.650586 C -128.73388 -92.723271 -126.66457 -91.759807 -124.00034 -91.759807 C -121.67622 -91.759807 -119.09711 -92.723271 -116.26282 -94.650586 L -116.26282 -95.755945 C -116.26282 -101.93469 -116.94307 -106.46931 -118.30353 -109.36028 C -119.66398 -112.25126 -121.81801 -113.69697 -124.76566 -113.69697 z M -88.45832 -101.28274 C -86.474319 -101.28274 -85.000542 -100.68772 -84.036884 -99.497319 C -83.016541 -98.363604 -82.506745 -96.776539 -82.506745 -94.735852 C -82.506745 -92.695166 -83.016541 -91.107584 -84.036884 -89.973869 C -85.000542 -88.840154 -86.474319 -88.273198 -88.45832 -88.273198 C -90.442321 -88.273198 -91.944678 -88.840154 -92.965021 -89.973869 C -93.928679 -91.16427 -94.410411 -92.751852 -94.410411 -94.735852 C -94.410411 -96.833225 -93.928679 -98.448354 -92.965021 -99.582068 C -91.944678 -100.71578 -90.442321 -101.28274 -88.45832 -101.28274 z M -88.45832 -74.498845 C -86.474319 -74.498845 -85.000542 -73.903824 -84.036884 -72.713424 C -83.016541 -71.579709 -82.506745 -69.992127 -82.506745 -67.951441 C -82.506745 -65.910754 -83.016541 -64.323689 -84.036884 -63.189974 C -85.000542 -62.05626 -86.474319 -61.489303 -88.45832 -61.489303 C -90.442321 -61.489303 -91.944678 -62.05626 -92.965021 -63.189974 C -93.928679 -64.380375 -94.410411 -65.96744 -94.410411 -67.951441 C -94.410411 -70.048813 -93.928679 -71.664459 -92.965021 -72.798173 C -91.944678 -73.931888 -90.442321 -74.498845 -88.45832 -74.498845 z " /></g></svg>
