<?xml version="1.0" encoding="UTF-8" standalone="no"?>
<!-- Created with Inkscape (http://www.inkscape.org/) -->

<svg
   width="172.6701mm"
   height="172.6701mm"
   viewBox="0 0 172.6701 172.6701"
   version="1.1"
   id="svg1"
   xml:space="preserve"
   xmlns="http://www.w3.org/2000/svg"
   xmlns:svg="http://www.w3.org/2000/svg"><defs
     id="defs1" /><g
     id="layer1"
     transform="translate(157.25102,198.81012)"><path
       id="path5"
       style="fill:#ffffff;fill-opacity:1;stroke-width:0.805188;stroke-linecap:round;stroke-linejoin:round"
       d="M -2.0863309 -198.17657 L -10.088943 -183.11289 L -10.930235 -165.68398 L -19.198981 -165.68398 L -11.423229 -155.47426 L -12.166336 -140.07934 C -28.353216 -157.12094 -50.823548 -166.77435 -74.327399 -166.78417 C -103.64471 -166.77397 -130.92652 -151.79225 -146.66717 -127.05894 L -157.25102 -127.05894 L -149.61996 -115.86014 L -157.25102 -26.140039 L -8.5138455 -26.140039 L 15.419061 -26.140039 L 8.0799737 -154.80195 L 15.419061 -165.68398 L 7.4593397 -165.68398 L 6.4490654 -183.39297 L -2.0863309 -198.17657 z M -83.43072 -192.21621 C -85.584619 -189.65499 -86.77489 -186.4211 -86.795372 -183.07465 C -86.842092 -175.15518 -80.459903 -168.69733 -72.540428 -168.65072 C -64.621155 -168.60402 -58.163395 -174.98588 -58.116503 -182.90515 C -58.102813 -186.26049 -59.266203 -189.5144 -61.404157 -192.10045 C -60.83125 -190.6836 -60.536835 -189.16959 -60.537027 -187.64129 C -60.575787 -181.07411 -65.930869 -175.78172 -72.498054 -175.82031 C -79.065241 -175.85911 -84.357627 -181.21415 -84.319038 -187.78134 C -84.309338 -189.30285 -84.007827 -190.80837 -83.43072 -192.21621 z M -60.569066 -119.73381 C -56.884493 -119.73381 -53.625138 -119.11073 -50.790852 -117.86364 C -47.956565 -116.67324 -45.745899 -114.97237 -44.158698 -112.76163 C -42.571498 -110.60757 -41.777965 -108.11368 -41.777965 -105.27939 C -41.777965 -102.10499 -42.713366 -99.384015 -44.583995 -97.116586 C -46.454625 -94.849156 -49.232247 -93.120223 -52.91682 -91.929822 C -48.26859 -90.909479 -45.008718 -89.237189 -43.138089 -86.913074 C -41.267459 -84.588959 -40.332575 -81.442892 -40.332575 -77.474891 C -40.332575 -74.017061 -41.381264 -71.069506 -43.478636 -68.632019 C -45.519323 -66.194533 -48.183141 -64.380375 -51.470913 -63.189974 C -54.758686 -61.999574 -58.159909 -61.404554 -61.674425 -61.404554 C -66.776141 -61.404554 -71.112765 -62.453243 -74.683967 -64.550615 C -78.198482 -66.647987 -79.95548 -69.510317 -79.95548 -73.138204 C -79.95548 -75.235577 -79.331879 -76.851222 -78.084793 -77.984937 C -76.837707 -79.175337 -75.279222 -79.770358 -73.408592 -79.770358 C -71.481277 -79.770358 -69.525251 -79.005405 -67.54125 -77.474891 C -68.051422 -76.397862 -68.306578 -75.094016 -68.306578 -73.563501 C -68.306578 -71.749558 -67.768202 -70.275781 -66.691173 -69.142066 C -65.557458 -68.008351 -63.885169 -67.441394 -61.674425 -67.441394 C -56.799452 -67.441394 -54.36221 -70.814037 -54.36221 -77.55964 C -54.36221 -81.244213 -55.55225 -84.10706 -57.933051 -86.147746 C -60.257166 -88.188433 -63.573682 -89.208541 -67.881798 -89.208541 L -67.881798 -94.480571 C -59.548995 -95.1608 -55.382303 -98.760535 -55.382303 -105.27939 C -55.382303 -108.56717 -55.892615 -110.97583 -56.912958 -112.50634 C -57.933302 -114.09354 -59.321855 -114.88759 -61.079112 -114.88759 C -63.176485 -114.88759 -64.764067 -114.15071 -65.841096 -112.67688 C -66.861439 -111.20305 -67.371235 -109.41747 -67.371235 -107.3201 C -67.371235 -105.44947 -66.974727 -103.77718 -66.181127 -102.30335 C -67.768327 -100.60278 -69.809061 -99.752084 -72.303234 -99.752084 C -74.570663 -99.752084 -76.32766 -100.43233 -77.574746 -101.79279 C -78.821833 -103.15324 -79.445433 -104.91076 -79.445433 -107.06482 C -79.445433 -109.8991 -78.481969 -112.25164 -76.554654 -114.12227 C -74.570653 -116.04958 -72.132894 -117.46671 -69.241922 -118.37369 C -66.294263 -119.28066 -63.403353 -119.73381 -60.569066 -119.73381 z M -17.374803 -119.73381 C -13.690231 -119.73381 -10.430876 -119.11073 -7.5965888 -117.86364 C -4.7623021 -116.67324 -2.5511193 -114.97237 -0.96391876 -112.76163 C 0.62328182 -110.60757 1.4168145 -108.11368 1.4168145 -105.27939 C 1.4168145 -102.10499 0.48141346 -99.384015 -1.3892158 -97.116586 C -3.2598451 -94.849156 -6.0374677 -93.120223 -9.7220405 -91.929822 C -5.0738102 -90.909479 -1.8144552 -89.237189 0.05617401 -86.913074 C 1.9268033 -84.588959 2.8622043 -81.442892 2.8622043 -77.474891 C 2.8622043 -74.017061 1.8135153 -71.069506 -0.28385691 -68.632019 C -2.3245434 -66.194533 -4.9888781 -64.380375 -8.2766507 -63.189974 C -11.564423 -61.999574 -14.965647 -61.404554 -18.480162 -61.404554 C -23.581878 -61.404554 -27.917986 -62.453243 -31.489187 -64.550615 C -35.003703 -66.647987 -36.761217 -69.510317 -36.761217 -73.138204 C -36.761217 -75.235577 -36.137616 -76.851222 -34.89053 -77.984937 C -33.643444 -79.175337 -32.084442 -79.770358 -30.213813 -79.770358 C -28.286498 -79.770358 -26.330988 -79.005405 -24.346988 -77.474891 C -24.857159 -76.397862 -25.112316 -75.094016 -25.112316 -73.563501 C -25.112316 -71.749558 -24.573939 -70.275781 -23.49691 -69.142066 C -22.363196 -68.008351 -20.690906 -67.441394 -18.480162 -67.441394 C -13.605189 -67.441394 -11.16743 -70.814037 -11.16743 -77.55964 C -11.16743 -81.244213 -12.357988 -84.10706 -14.738789 -86.147746 C -17.062904 -88.188433 -20.378903 -89.208541 -24.687019 -89.208541 L -24.687019 -94.480571 C -16.354215 -95.1608 -12.18804 -98.760535 -12.18804 -105.27939 C -12.18804 -108.56717 -12.697836 -110.97583 -13.718179 -112.50634 C -14.738522 -114.09354 -16.127592 -114.88759 -17.88485 -114.88759 C -19.982222 -114.88759 -21.569287 -114.15071 -22.646316 -112.67688 C -23.666659 -111.20305 -24.176972 -109.41747 -24.176972 -107.3201 C -24.176972 -105.44947 -23.779947 -103.77718 -22.986347 -102.30335 C -24.573548 -100.60278 -26.614282 -99.752084 -29.108454 -99.752084 C -31.375883 -99.752084 -33.133398 -100.43233 -34.380484 -101.79279 C -35.62757 -103.15324 -36.251171 -104.91076 -36.251171 -107.06482 C -36.251171 -109.8991 -35.287189 -112.25164 -33.359874 -114.12227 C -31.375873 -116.04958 -28.938631 -117.46671 -26.047659 -118.37369 C -23.100001 -119.28066 -20.20909 -119.73381 -17.374803 -119.73381 z M -120.42949 -119.13901 L -117.62346 -117.86364 L -117.62346 -68.716769 C -116.54644 -68.093226 -114.84557 -67.526269 -112.52145 -67.016097 C -110.19734 -66.562611 -108.35511 -66.279392 -106.99466 -66.16602 L -107.24994 -62.084615 L -141.94136 -62.084615 L -141.77134 -66.16602 C -136.72631 -66.732877 -132.87194 -67.583054 -130.20771 -68.716769 L -130.20771 -109.44555 L -141.60133 -109.44555 L -141.60133 -114.37703 C -137.97344 -114.66046 -134.23235 -115.19935 -130.37772 -115.99295 C -126.52309 -116.84324 -123.2071 -117.89193 -120.42949 -119.13901 z M -92.28496 -101.28274 C -90.300959 -101.28274 -88.827182 -100.68772 -87.863524 -99.497319 C -86.843181 -98.363604 -86.332868 -96.776539 -86.332868 -94.735852 C -86.332868 -92.695166 -86.843181 -91.107584 -87.863524 -89.973869 C -88.827182 -88.840154 -90.300959 -88.273198 -92.28496 -88.273198 C -94.26896 -88.273198 -95.770801 -88.840154 -96.791145 -89.973869 C -97.754802 -91.16427 -98.237051 -92.751852 -98.237051 -94.735852 C -98.237051 -96.833225 -97.754802 -98.448354 -96.791145 -99.582068 C -95.770801 -100.71578 -94.26896 -101.28274 -92.28496 -101.28274 z M -92.28496 -74.498845 C -90.300959 -74.498845 -88.827182 -73.903824 -87.863524 -72.713424 C -86.843181 -71.579709 -86.332868 -69.992127 -86.332868 -67.951441 C -86.332868 -65.910754 -86.843181 -64.323689 -87.863524 -63.189974 C -88.827182 -62.05626 -90.300959 -61.489303 -92.28496 -61.489303 C -94.26896 -61.489303 -95.770801 -62.05626 -96.791145 -63.189974 C -97.754802 -64.380375 -98.237051 -65.96744 -98.237051 -67.951441 C -98.237051 -70.048813 -97.754802 -71.664459 -96.791145 -72.798173 C -95.770801 -73.931888 -94.26896 -74.498845 -92.28496 -74.498845 z " /></g></svg>
