<?xml version="1.0" encoding="UTF-8" standalone="no"?>
<!-- Created with Inkscape (http://www.inkscape.org/) -->

<svg
   width="172.6701mm"
   height="172.6701mm"
   viewBox="0 0 172.6701 172.6701"
   version="1.1"
   id="svg1"
   xml:space="preserve"
   xmlns="http://www.w3.org/2000/svg"
   xmlns:svg="http://www.w3.org/2000/svg"><defs
     id="defs1" /><g
     id="layer1"
     transform="translate(157.25102,198.81012)"><path
       id="path5"
       style="fill:#ffffff;fill-opacity:1;stroke-width:0.805188;stroke-linecap:round;stroke-linejoin:round"
       d="M -2.0863309 -198.17657 L -10.088943 -183.11289 L -10.930235 -165.68398 L -19.198981 -165.68398 L -11.423229 -155.47426 L -12.166336 -140.07934 C -28.353216 -157.12094 -50.823548 -166.77435 -74.327399 -166.78417 C -102.72519 -166.77429 -129.18031 -152.68812 -145.11946 -129.32806 L -142.79247 -131.50932 L -135.54537 -131.50932 C -131.79857 -131.41072 -123.61521 -131.36101 -110.99441 -131.36101 C -97.880612 -131.36101 -89.351343 -131.41072 -85.407343 -131.50932 L -78.308552 -131.50932 L -75.350076 -125.1495 C -77.223476 -122.1915 -80.773239 -115.78225 -85.999038 -105.92225 C -91.224838 -96.06225 -96.15515 -85.610774 -100.78935 -74.567574 C -105.42355 -63.524375 -107.74035 -54.896716 -107.74035 -48.684917 C -107.74035 -43.754917 -106.01492 -40.05757 -102.56392 -37.59257 C -105.91632 -33.549971 -110.20555 -31.528858 -115.43135 -31.528858 C -120.26275 -31.528858 -124.00929 -32.859696 -126.67149 -35.521896 C -129.33369 -38.184096 -130.66505 -41.881959 -130.66505 -46.614759 C -130.66505 -52.530758 -129.2353 -58.791392 -126.3759 -65.397592 C -123.5165 -72.102391 -118.38941 -81.173835 -110.99441 -92.611434 L -93.542247 -119.52917 L -127.26319 -119.52917 C -128.64359 -115.09217 -129.48196 -109.86669 -129.77776 -103.85209 C -131.55256 -103.55629 -133.37638 -103.40819 -135.24978 -103.40819 C -137.22178 -103.40819 -139.1445 -103.55629 -141.0179 -103.85209 L -145.15667 -129.2738 C -145.6599 -128.53506 -146.1853 -127.81611 -146.66717 -127.05894 L -157.25102 -127.05894 L -149.61996 -115.86014 L -157.25102 -26.140039 L -8.5138455 -26.140039 L 15.419061 -26.140039 L 8.0799737 -154.80195 L 15.419061 -165.68398 L 7.4593397 -165.68398 L 6.4490654 -183.39297 L -2.0863309 -198.17657 z M -83.43072 -192.21621 C -85.584619 -189.65499 -86.77489 -186.4211 -86.795372 -183.07465 C -86.842092 -175.15518 -80.459903 -168.69733 -72.540428 -168.65072 C -64.621155 -168.60402 -58.163395 -174.98588 -58.116503 -182.90515 C -58.102813 -186.26049 -59.266203 -189.5144 -61.404157 -192.10045 C -60.83125 -190.6836 -60.536835 -189.16959 -60.537027 -187.64129 C -60.575787 -181.07411 -65.930869 -175.78172 -72.498054 -175.82031 C -79.065241 -175.85911 -84.357627 -181.21415 -84.319038 -187.78134 C -84.309338 -189.30285 -84.007827 -190.80837 -83.43072 -192.21621 z M -33.198644 -133.13609 C -22.845644 -133.13609 -14.612576 -130.91768 -8.4993761 -126.48068 C -2.3861764 -122.04368 0.67009003 -116.07822 0.67009003 -108.58462 C 0.67009003 -104.54202 -0.80884857 -100.49928 -3.7668485 -96.456678 C -6.7248483 -92.414078 -10.61949 -89.111322 -15.45089 -86.547722 C -9.33769 -83.589722 -4.5554785 -80.138348 -1.1044787 -76.194349 C 2.4451212 -72.250349 4.2197442 -67.172453 4.2197442 -60.960653 C 4.2197442 -51.988053 0.9661826 -44.83985 -5.5414171 -39.51545 C -12.049017 -34.289651 -20.824776 -31.676652 -31.867976 -31.676652 C -43.995775 -31.676652 -53.362386 -34.092355 -59.968586 -38.923755 C -66.476186 -43.755155 -69.730264 -50.657385 -69.730264 -59.629985 C -69.730264 -64.264185 -68.251325 -68.849101 -65.293326 -73.384701 C -62.335326 -78.018901 -58.194194 -82.110321 -52.869794 -85.659921 C -57.306794 -88.124921 -60.757651 -91.083314 -63.222651 -94.534314 C -65.687651 -97.985314 -66.9201 -102.27403 -66.9201 -107.40123 C -66.9201 -115.28923 -63.863316 -121.55038 -57.750117 -126.18458 C -51.636917 -130.81878 -43.453043 -133.13609 -33.198644 -133.13609 z M -33.198644 -122.63492 C -37.142644 -122.63492 -40.248621 -121.35328 -42.516421 -118.78968 C -44.784221 -116.32468 -45.918281 -112.97221 -45.918281 -108.73241 C -45.918281 -104.98561 -44.488537 -101.87964 -41.629137 -99.414637 C -38.671137 -97.048237 -34.381905 -94.682245 -28.761705 -92.315845 C -26.296705 -93.992045 -24.324787 -96.308842 -22.845787 -99.266842 C -21.366787 -102.22484 -20.627318 -105.38001 -20.627318 -108.73241 C -20.627318 -112.97221 -21.810572 -116.32468 -24.176972 -118.78968 C -26.444772 -121.35328 -29.451844 -122.63492 -33.198644 -122.63492 z M -39.262873 -79.596208 C -42.220873 -77.229808 -44.390086 -74.518421 -45.770486 -71.461821 C -47.150886 -68.405221 -47.841161 -64.757069 -47.841161 -60.517269 C -47.841161 -54.699869 -46.411417 -50.114953 -43.552017 -46.762553 C -40.692617 -43.508753 -36.797975 -41.881714 -31.867976 -41.881714 C -27.036576 -41.881714 -23.289518 -43.508753 -20.627318 -46.762553 C -17.866518 -50.016353 -16.485969 -54.552075 -16.485969 -60.369475 C -16.485969 -63.623275 -17.521639 -66.383857 -19.592239 -68.651656 C -21.564239 -71.018056 -24.078331 -72.94078 -27.134931 -74.41978 C -30.191531 -75.99738 -34.234273 -77.722808 -39.262873 -79.596208 z " /></g></svg>
