<?xml version="1.0" encoding="UTF-8" standalone="no"?>
<!-- Created with Inkscape (http://www.inkscape.org/) -->

<svg
   width="172.6701mm"
   height="172.6701mm"
   viewBox="0 0 172.6701 172.6701"
   version="1.1"
   id="svg1"
   xml:space="preserve"
   xmlns="http://www.w3.org/2000/svg"
   xmlns:svg="http://www.w3.org/2000/svg"><defs
     id="defs1" /><g
     id="layer1"
     transform="translate(157.25102,198.81012)"><path
       id="path5"
       style="fill:#ffffff;fill-opacity:1;stroke-width:0.805188;stroke-linecap:round;stroke-linejoin:round"
       d="M -2.0863309 -198.17657 L -10.088943 -183.11289 L -10.930235 -165.68398 L -19.198981 -165.68398 L -11.423229 -155.47426 L -12.166336 -140.07934 C -28.353216 -157.12094 -50.823548 -166.77435 -74.327399 -166.78417 C -103.64471 -166.77397 -130.92652 -151.79225 -146.66717 -127.05894 L -157.25102 -127.05894 L -149.61996 -115.86014 L -157.25102 -26.140039 L -8.5138455 -26.140039 L 15.419061 -26.140039 L 8.0799737 -154.80195 L 15.419061 -165.68398 L 7.4593397 -165.68398 L 6.4490654 -183.39297 L -2.0863309 -198.17657 z M -83.43072 -192.21621 C -85.584619 -189.65499 -86.77489 -186.4211 -86.795372 -183.07465 C -86.842092 -175.15518 -80.459903 -168.69733 -72.540428 -168.65072 C -64.621155 -168.60402 -58.163395 -174.98588 -58.116503 -182.90515 C -58.102813 -186.26049 -59.266203 -189.5144 -61.404157 -192.10045 C -60.83125 -190.6836 -60.536835 -189.16959 -60.537027 -187.64129 C -60.575787 -181.07411 -65.930869 -175.78172 -72.498054 -175.82031 C -79.065241 -175.85911 -84.357627 -181.21415 -84.319038 -187.78134 C -84.309338 -189.30285 -84.007827 -190.80837 -83.43072 -192.21621 z M -113.92447 -119.90383 L -111.88428 -115.65241 C -123.3348 -110.72075 -130.22195 -103.12528 -132.54607 -92.865166 C -129.2583 -94.452366 -126.14029 -95.245899 -123.19263 -95.245899 C -117.52406 -95.245899 -113.07466 -93.715477 -109.84358 -90.654448 C -106.55581 -87.593418 -104.91158 -83.455306 -104.91158 -78.240218 C -104.91158 -75.009132 -105.79034 -72.118221 -107.54759 -69.567363 C -109.24817 -67.016505 -111.65734 -65.032415 -114.77506 -63.615271 C -117.83609 -62.198128 -121.3506 -61.489303 -125.3186 -61.489303 C -132.0642 -61.489303 -137.25101 -63.360105 -140.87889 -67.101363 C -144.45009 -70.842622 -146.23567 -76.255999 -146.23567 -83.341716 C -146.23567 -92.241376 -143.48611 -99.808775 -137.9876 -106.04421 C -132.43239 -112.33632 -124.41133 -116.95617 -113.92447 -119.90383 z M -58.230708 -119.73381 C -54.546135 -119.73381 -51.28678 -119.11073 -48.452493 -117.86364 C -45.618206 -116.67324 -43.40754 -114.97237 -41.82034 -112.76163 C -40.233139 -110.60757 -39.439606 -108.11368 -39.439606 -105.27939 C -39.439606 -102.10499 -40.375007 -99.384015 -42.245637 -97.116586 C -44.116266 -94.849156 -46.893889 -93.120223 -50.578461 -91.929822 C -45.930231 -90.909479 -42.670876 -89.237189 -40.800247 -86.913074 C -38.929618 -84.588959 -37.994217 -81.442892 -37.994217 -77.474891 C -37.994217 -74.017061 -39.042906 -71.069506 -41.140278 -68.632019 C -43.180964 -66.194533 -45.845299 -64.380375 -49.133072 -63.189974 C -52.420844 -61.999574 -55.821551 -61.404554 -59.336066 -61.404554 C -64.437783 -61.404554 -68.774407 -62.453243 -72.345608 -64.550615 C -75.860124 -66.647987 -77.617638 -69.510317 -77.617638 -73.138204 C -77.617638 -75.235577 -76.994037 -76.851222 -75.746951 -77.984937 C -74.499865 -79.175337 -72.940863 -79.770358 -71.070234 -79.770358 C -69.142919 -79.770358 -67.187409 -79.005405 -65.203409 -77.474891 C -65.71358 -76.397862 -65.968736 -75.094016 -65.968736 -73.563501 C -65.968736 -71.749558 -65.429843 -70.275781 -64.352814 -69.142066 C -63.2191 -68.008351 -61.54681 -67.441394 -59.336066 -67.441394 C -54.461093 -67.441394 -52.023851 -70.814037 -52.023851 -77.55964 C -52.023851 -81.244213 -53.214409 -84.10706 -55.595209 -86.147746 C -57.919325 -88.188433 -61.235324 -89.208541 -65.543439 -89.208541 L -65.543439 -94.480571 C -57.210636 -95.1608 -53.043944 -98.760535 -53.043944 -105.27939 C -53.043944 -108.56717 -53.554257 -110.97583 -54.5746 -112.50634 C -55.594943 -114.09354 -56.984013 -114.88759 -58.741271 -114.88759 C -60.838643 -114.88759 -62.425708 -114.15071 -63.502737 -112.67688 C -64.52308 -111.20305 -65.033393 -109.41747 -65.033393 -107.3201 C -65.033393 -105.44947 -64.636368 -103.77718 -63.842768 -102.30335 C -65.429969 -100.60278 -67.470703 -99.752084 -69.964875 -99.752084 C -72.232304 -99.752084 -73.989302 -100.43233 -75.236388 -101.79279 C -76.483474 -103.15324 -77.107075 -104.91076 -77.107075 -107.06482 C -77.107075 -109.8991 -76.14361 -112.25164 -74.216295 -114.12227 C -72.232294 -116.04958 -69.795052 -117.46671 -66.90408 -118.37369 C -63.956422 -119.28066 -61.064994 -119.73381 -58.230708 -119.73381 z M -12.910476 -119.64906 C -6.2782454 -119.64906 -1.2052491 -117.15466 2.3092665 -112.16631 C 5.8804678 -107.23465 7.6660454 -100.06428 7.6660454 -90.654448 C 7.6660454 -81.244616 5.8804678 -74.017081 2.3092665 -68.97205 C -1.2052491 -63.983706 -6.2782454 -61.489303 -12.910476 -61.489303 C -19.542707 -61.489303 -24.644801 -63.983706 -28.216002 -68.97205 C -31.787203 -74.017081 -33.572781 -81.244616 -33.572781 -90.654448 C -33.572781 -100.00759 -31.787203 -107.17797 -28.216002 -112.16631 C -24.644801 -117.15466 -19.542707 -119.64906 -12.910476 -119.64906 z M -12.910476 -115.31237 C -15.801449 -115.31237 -17.898827 -113.41351 -19.202599 -109.61556 C -20.449685 -105.81762 -21.073286 -99.497422 -21.073286 -90.654448 C -21.073286 -81.868159 -20.449685 -75.576025 -19.202599 -71.778081 C -17.898827 -68.036822 -15.801449 -66.16602 -12.910476 -66.16602 C -10.019504 -66.16602 -7.9507063 -68.036822 -6.7036201 -71.778081 C -5.3998482 -75.576025 -4.7481839 -81.868159 -4.7481839 -90.654448 C -4.7481839 -99.440737 -5.3998482 -105.73287 -6.7036201 -109.53081 C -7.9507063 -113.38544 -10.019504 -115.31237 -12.910476 -115.31237 z M -89.946601 -101.28274 C -87.9626 -101.28274 -86.488823 -100.68772 -85.525166 -99.497319 C -84.504822 -98.363604 -83.99451 -96.776539 -83.99451 -94.735852 C -83.99451 -92.695166 -84.504822 -91.107584 -85.525166 -89.973869 C -86.488823 -88.840154 -87.9626 -88.273198 -89.946601 -88.273198 C -91.930602 -88.273198 -93.432959 -88.840154 -94.453303 -89.973869 C -95.41696 -91.16427 -95.898693 -92.751852 -95.898693 -94.735852 C -95.898693 -96.833225 -95.41696 -98.448354 -94.453303 -99.582068 C -93.432959 -100.71578 -91.930602 -101.28274 -89.946601 -101.28274 z M -125.57388 -89.293807 C -127.95468 -89.293807 -130.53379 -88.330343 -133.3114 -86.403028 L -133.3114 -85.297669 C -133.3114 -79.118924 -132.63115 -74.583787 -131.27069 -71.692814 C -129.91024 -68.801842 -127.75621 -67.356645 -124.80856 -67.356645 C -122.37107 -67.356645 -120.50027 -68.291529 -119.1965 -70.162159 C -117.89272 -72.032788 -117.24106 -74.697123 -117.24106 -78.154952 C -117.24106 -81.669468 -117.97795 -84.390447 -119.45178 -86.317762 C -120.86892 -88.301762 -122.90965 -89.293807 -125.57388 -89.293807 z M -89.946601 -74.498845 C -87.9626 -74.498845 -86.488823 -73.903824 -85.525166 -72.713424 C -84.504822 -71.579709 -83.99451 -69.992127 -83.99451 -67.951441 C -83.99451 -65.910754 -84.504822 -64.323689 -85.525166 -63.189974 C -86.488823 -62.05626 -87.9626 -61.489303 -89.946601 -61.489303 C -91.930602 -61.489303 -93.432959 -62.05626 -94.453303 -63.189974 C -95.41696 -64.380375 -95.898693 -65.96744 -95.898693 -67.951441 C -95.898693 -70.048813 -95.41696 -71.664459 -94.453303 -72.798173 C -93.432959 -73.931888 -91.930602 -74.498845 -89.946601 -74.498845 z " /></g></svg>
