<?xml version="1.0" encoding="UTF-8" standalone="no"?>
<!-- Created with Inkscape (http://www.inkscape.org/) -->

<svg
   width="172.6701mm"
   height="172.6701mm"
   viewBox="0 0 172.6701 172.6701"
   version="1.1"
   id="svg1"
   xml:space="preserve"
   xmlns="http://www.w3.org/2000/svg"
   xmlns:svg="http://www.w3.org/2000/svg"><defs
     id="defs1" /><g
     id="layer1"
     transform="translate(157.25102,198.81012)"><path
       id="path5"
       style="fill:#ffffff;fill-opacity:1;stroke-width:0.805188;stroke-linecap:round;stroke-linejoin:round"
       d="M -2.0863309 -198.17657 L -10.088943 -183.11289 L -10.930235 -165.68398 L -19.198981 -165.68398 L -11.423229 -155.47426 L -12.166336 -140.07934 C -28.353216 -157.12094 -50.823548 -166.77435 -74.327399 -166.78417 C -103.64471 -166.77397 -130.92652 -151.79225 -146.66717 -127.05894 L -157.25102 -127.05894 L -149.61996 -115.86014 L -157.25102 -26.140039 L -8.5138455 -26.140039 L 15.419061 -26.140039 L 8.0799737 -154.80195 L 15.419061 -165.68398 L 7.4593397 -165.68398 L 6.4490654 -183.39297 L -2.0863309 -198.17657 z M -83.43072 -192.21621 C -85.584619 -189.65499 -86.77489 -186.4211 -86.795372 -183.07465 C -86.842092 -175.15518 -80.459903 -168.69733 -72.540428 -168.65072 C -64.621155 -168.60402 -58.163395 -174.98588 -58.116503 -182.90515 C -58.102813 -186.26049 -59.266203 -189.5144 -61.404157 -192.10045 C -60.83125 -190.6836 -60.536835 -189.16959 -60.537027 -187.64129 C -60.575787 -181.07411 -65.930869 -175.78172 -72.498054 -175.82031 C -79.065241 -175.85911 -84.357627 -181.21415 -84.319038 -187.78134 C -84.309338 -189.30285 -84.007827 -190.80837 -83.43072 -192.21621 z M -110.73603 -119.90383 L -108.69533 -115.65241 C -120.14585 -110.72075 -127.03352 -103.12528 -129.35763 -92.865166 C -126.06986 -94.452366 -122.95186 -95.245899 -120.0042 -95.245899 C -114.33562 -95.245899 -109.88571 -93.715477 -106.65463 -90.654448 C -103.36685 -87.593418 -101.72314 -83.455306 -101.72314 -78.240218 C -101.72314 -75.009132 -102.6019 -72.118221 -104.35916 -69.567363 C -106.05973 -67.016505 -108.46891 -65.032415 -111.58662 -63.615271 C -114.64765 -62.198128 -118.16216 -61.489303 -122.13017 -61.489303 C -128.87577 -61.489303 -134.06205 -63.360105 -137.68994 -67.101363 C -141.26114 -70.842622 -143.04724 -76.255999 -143.04724 -83.341716 C -143.04724 -92.241376 -140.29768 -99.808775 -134.79916 -106.04421 C -129.24396 -112.33632 -121.22289 -116.95617 -110.73603 -119.90383 z M -55.042272 -119.73381 C -51.357699 -119.73381 -48.098344 -119.11073 -45.264057 -117.86364 C -42.42977 -116.67324 -40.219104 -114.97237 -38.631904 -112.76163 C -37.044703 -110.60757 -36.251171 -108.11368 -36.251171 -105.27939 C -36.251171 -102.10499 -37.186055 -99.384015 -39.056684 -97.116586 C -40.927313 -94.849156 -43.704936 -93.120223 -47.389509 -91.929822 C -42.741278 -90.909479 -39.481924 -89.237189 -37.611294 -86.913074 C -35.740665 -84.588959 -34.805264 -81.442892 -34.805264 -77.474891 C -34.805264 -74.017061 -35.853953 -71.069506 -37.951325 -68.632019 C -39.992012 -66.194533 -42.656346 -64.380375 -45.944119 -63.189974 C -49.231892 -61.999574 -52.633115 -61.404554 -56.147631 -61.404554 C -61.249347 -61.404554 -65.585971 -62.453243 -69.157172 -64.550615 C -72.671688 -66.647987 -74.428685 -69.510317 -74.428685 -73.138204 C -74.428685 -75.235577 -73.805085 -76.851222 -72.557998 -77.984937 C -71.310912 -79.175337 -69.752427 -79.770358 -67.881798 -79.770358 C -65.954483 -79.770358 -63.998457 -79.005405 -62.014456 -77.474891 C -62.524627 -76.397862 -62.779784 -75.094016 -62.779784 -73.563501 C -62.779784 -71.749558 -62.241408 -70.275781 -61.164379 -69.142066 C -60.030664 -68.008351 -58.358374 -67.441394 -56.147631 -67.441394 C -51.272657 -67.441394 -48.835415 -70.814037 -48.835415 -77.55964 C -48.835415 -81.244213 -50.025456 -84.10706 -52.406257 -86.147746 C -54.730372 -88.188433 -58.046888 -89.208541 -62.355004 -89.208541 L -62.355004 -94.480571 C -54.022201 -95.1608 -49.855508 -98.760535 -49.855508 -105.27939 C -49.855508 -108.56717 -50.365821 -110.97583 -51.386164 -112.50634 C -52.406507 -114.09354 -53.79506 -114.88759 -55.552318 -114.88759 C -57.64969 -114.88759 -59.237272 -114.15071 -60.314301 -112.67688 C -61.334644 -111.20305 -61.84444 -109.41747 -61.84444 -107.3201 C -61.84444 -105.44947 -61.447932 -103.77718 -60.654332 -102.30335 C -62.241533 -100.60278 -64.282267 -99.752084 -66.776439 -99.752084 C -69.043869 -99.752084 -70.800866 -100.43233 -72.047952 -101.79279 C -73.295038 -103.15324 -73.918639 -104.91076 -73.918639 -107.06482 C -73.918639 -109.8991 -72.955174 -112.25164 -71.027859 -114.12227 C -69.043858 -116.04958 -66.6061 -117.46671 -63.715127 -118.37369 C -60.767469 -119.28066 -57.876558 -119.73381 -55.042272 -119.73381 z M -8.9567125 -119.13901 L -6.1506823 -117.86364 L -6.1506823 -68.716769 C -5.0736533 -68.093226 -3.3733 -67.526269 -1.0491849 -67.016097 C 1.2749303 -66.562611 3.1171519 -66.279392 4.4776096 -66.16602 L 4.222328 -62.084615 L -30.469095 -62.084615 L -30.299079 -66.16602 C -25.254049 -66.732877 -21.399157 -67.583054 -18.734927 -68.716769 L -18.734927 -109.44555 L -30.129064 -109.44555 L -30.129064 -114.37703 C -26.501177 -114.66046 -22.760089 -115.19935 -18.905459 -115.99295 C -15.050829 -116.84324 -11.734314 -117.89193 -8.9567125 -119.13901 z M -86.758165 -101.28274 C -84.774164 -101.28274 -83.300387 -100.68772 -82.33673 -99.497319 C -81.316386 -98.363604 -80.806074 -96.776539 -80.806074 -94.735852 C -80.806074 -92.695166 -81.316386 -91.107584 -82.33673 -89.973869 C -83.300387 -88.840154 -84.774164 -88.273198 -86.758165 -88.273198 C -88.742166 -88.273198 -90.244007 -88.840154 -91.26435 -89.973869 C -92.228008 -91.16427 -92.710257 -92.751852 -92.710257 -94.735852 C -92.710257 -96.833225 -92.228008 -98.448354 -91.26435 -99.582068 C -90.244007 -100.71578 -88.742166 -101.28274 -86.758165 -101.28274 z M -122.38493 -89.293807 C -124.76573 -89.293807 -127.34484 -88.330343 -130.12244 -86.403028 L -130.12244 -85.297669 C -130.12244 -79.118924 -129.4422 -74.583787 -128.08174 -71.692814 C -126.72128 -68.801842 -124.56726 -67.356645 -121.6196 -67.356645 C -119.18212 -67.356645 -117.31183 -68.291529 -116.00806 -70.162159 C -114.70429 -72.032788 -114.05211 -74.697123 -114.05211 -78.154952 C -114.05211 -81.669468 -114.789 -84.390447 -116.26282 -86.317762 C -117.67997 -88.301762 -119.7207 -89.293807 -122.38493 -89.293807 z M -86.758165 -74.498845 C -84.774164 -74.498845 -83.300387 -73.903824 -82.33673 -72.713424 C -81.316386 -71.579709 -80.806074 -69.992127 -80.806074 -67.951441 C -80.806074 -65.910754 -81.316386 -64.323689 -82.33673 -63.189974 C -83.300387 -62.05626 -84.774164 -61.489303 -86.758165 -61.489303 C -88.742166 -61.489303 -90.244007 -62.05626 -91.26435 -63.189974 C -92.228008 -64.380375 -92.710257 -65.96744 -92.710257 -67.951441 C -92.710257 -70.048813 -92.228008 -71.664459 -91.26435 -72.798173 C -90.244007 -73.931888 -88.742166 -74.498845 -86.758165 -74.498845 z " /></g></svg>
