<?xml version="1.0" encoding="UTF-8" standalone="no"?>
<!-- Created with Inkscape (http://www.inkscape.org/) -->

<svg
   width="172.6701mm"
   height="172.6701mm"
   viewBox="0 0 172.6701 172.6701"
   version="1.1"
   id="svg1"
   xml:space="preserve"
   xmlns="http://www.w3.org/2000/svg"
   xmlns:svg="http://www.w3.org/2000/svg"><defs
     id="defs1" /><g
     id="layer1"
     transform="translate(157.25102,198.81012)"><path
       id="path5"
       style="fill:#ffffff;fill-opacity:1;stroke-width:0.805188;stroke-linecap:round;stroke-linejoin:round"
       d="M -2.0863309 -198.17657 L -10.088943 -183.11289 L -10.930235 -165.68398 L -19.198981 -165.68398 L -11.423229 -155.47426 L -12.166336 -140.07934 C -28.353216 -157.12094 -50.823548 -166.77435 -74.327399 -166.78417 C -103.64471 -166.77397 -130.92652 -151.79225 -146.66717 -127.05894 L -157.25102 -127.05894 L -149.61996 -115.86014 L -157.25102 -26.140039 L -8.5138455 -26.140039 L 15.419061 -26.140039 L 8.0799737 -154.80195 L 15.419061 -165.68398 L 7.4593397 -165.68398 L 6.4490654 -183.39297 L -2.0863309 -198.17657 z M -83.43072 -192.21621 C -85.584619 -189.65499 -86.77489 -186.4211 -86.795372 -183.07465 C -86.842092 -175.15518 -80.459903 -168.69733 -72.540428 -168.65072 C -64.621155 -168.60402 -58.163395 -174.98588 -58.116503 -182.90515 C -58.102813 -186.26049 -59.266203 -189.5144 -61.404157 -192.10045 C -60.83125 -190.6836 -60.536835 -189.16959 -60.537027 -187.64129 C -60.575787 -181.07411 -65.930869 -175.78172 -72.498054 -175.82031 C -79.065241 -175.85911 -84.357627 -181.21415 -84.319038 -187.78134 C -84.309338 -189.30285 -84.007827 -190.80837 -83.43072 -192.21621 z M -113.96736 -119.90383 L -111.92665 -115.65241 C -123.37717 -110.72075 -130.26433 -103.12528 -132.58844 -92.865166 C -129.30067 -94.452366 -126.18318 -95.245899 -123.23553 -95.245899 C -117.56695 -95.245899 -113.11704 -93.715477 -109.88595 -90.654448 C -106.59818 -87.593418 -104.95395 -83.455306 -104.95395 -78.240218 C -104.95395 -75.009132 -105.83271 -72.118221 -107.58997 -69.567363 C -109.29054 -67.016505 -111.69972 -65.032415 -114.81743 -63.615271 C -117.87846 -62.198128 -121.39298 -61.489303 -125.36098 -61.489303 C -132.10658 -61.489303 -137.29338 -63.360105 -140.92127 -67.101363 C -144.49247 -70.842622 -146.27805 -76.255999 -146.27805 -83.341716 C -146.27805 -92.241376 -143.529 -99.808775 -138.03049 -106.04421 C -132.47529 -112.33632 -124.45422 -116.95617 -113.96736 -119.90383 z M -58.273599 -119.73381 C -54.589026 -119.73381 -51.329154 -119.11073 -48.494868 -117.86364 C -45.660581 -116.67324 -43.449915 -114.97237 -41.862714 -112.76163 C -40.275514 -110.60757 -39.481981 -108.11368 -39.481981 -105.27939 C -39.481981 -102.10499 -40.417382 -99.384015 -42.288011 -97.116586 C -44.158641 -94.849156 -46.936263 -93.120223 -50.620836 -91.929822 C -45.972606 -90.909479 -42.713251 -89.237189 -40.842622 -86.913074 C -38.971992 -84.588959 -38.036591 -81.442892 -38.036591 -77.474891 C -38.036591 -74.017061 -39.08528 -71.069506 -41.182652 -68.632019 C -43.223339 -66.194533 -45.887674 -64.380375 -49.175446 -63.189974 C -52.463219 -61.999574 -55.864442 -61.404554 -59.378958 -61.404554 C -64.480674 -61.404554 -68.816782 -62.453243 -72.387983 -64.550615 C -75.902498 -66.647987 -77.660013 -69.510317 -77.660013 -73.138204 C -77.660013 -75.235577 -77.036412 -76.851222 -75.789326 -77.984937 C -74.542239 -79.175337 -72.983238 -79.770358 -71.112609 -79.770358 C -69.185294 -79.770358 -67.229784 -79.005405 -65.245783 -77.474891 C -65.755955 -76.397862 -66.011111 -75.094016 -66.011111 -73.563501 C -66.011111 -71.749558 -65.472735 -70.275781 -64.395706 -69.142066 C -63.261991 -68.008351 -61.589701 -67.441394 -59.378958 -67.441394 C -54.503985 -67.441394 -52.066226 -70.814037 -52.066226 -77.55964 C -52.066226 -81.244213 -53.256783 -84.10706 -55.637584 -86.147746 C -57.961699 -88.188433 -61.277698 -89.208541 -65.585814 -89.208541 L -65.585814 -94.480571 C -57.253011 -95.1608 -53.086835 -98.760535 -53.086835 -105.27939 C -53.086835 -108.56717 -53.596631 -110.97583 -54.616975 -112.50634 C -55.637318 -114.09354 -57.026388 -114.88759 -58.783645 -114.88759 C -60.881018 -114.88759 -62.468083 -114.15071 -63.545112 -112.67688 C -64.565455 -111.20305 -65.075768 -109.41747 -65.075768 -107.3201 C -65.075768 -105.44947 -64.678743 -103.77718 -63.885143 -102.30335 C -65.472343 -100.60278 -67.513077 -99.752084 -70.00725 -99.752084 C -72.274679 -99.752084 -74.032193 -100.43233 -75.279279 -101.79279 C -76.526365 -103.15324 -77.149966 -104.91076 -77.149966 -107.06482 C -77.149966 -109.8991 -76.185985 -112.25164 -74.25867 -114.12227 C -72.274669 -116.04958 -69.837427 -117.46671 -66.946455 -118.37369 C -63.998796 -119.28066 -61.107886 -119.73381 -58.273599 -119.73381 z M -13.378148 -119.56379 C -6.6325456 -119.56379 -1.474325 -117.69351 2.0968763 -113.95225 C 5.7247634 -110.21099 7.5389214 -104.7971 7.5389214 -97.711381 C 7.5389214 -88.811721 4.7612987 -81.216258 -0.7939033 -74.924142 C -6.2924196 -68.688711 -14.285424 -64.09693 -24.772285 -61.149272 L -26.812987 -65.400692 C -21.144413 -67.838179 -16.581213 -70.956182 -13.123383 -74.754126 C -9.6655534 -78.608756 -7.3696631 -83.086732 -6.2359484 -88.188448 C -9.4103495 -86.601248 -12.499773 -85.807715 -15.504117 -85.807715 C -21.17269 -85.807715 -25.650666 -87.338137 -28.938439 -90.399166 C -32.169526 -93.460196 -33.785171 -97.598308 -33.785171 -102.8134 C -33.785171 -106.04448 -32.934995 -108.93539 -31.234423 -111.48625 C -29.477165 -114.03711 -27.067986 -116.0212 -24.006957 -117.43834 C -20.889241 -118.85549 -17.34615 -119.56379 -13.378148 -119.56379 z M -13.888711 -113.69697 C -16.326198 -113.69697 -18.196483 -112.76157 -19.500255 -110.89094 C -20.804027 -109.02031 -21.456208 -106.35597 -21.456208 -102.89814 C -21.456208 -99.383629 -20.747383 -96.634587 -19.33024 -94.650586 C -17.85641 -92.723271 -15.787613 -91.759807 -13.123383 -91.759807 C -10.799268 -91.759807 -8.2201578 -92.723271 -5.3858711 -94.650586 L -5.3858711 -95.755945 C -5.3858711 -101.93469 -6.0661157 -106.46931 -7.4265734 -109.36028 C -8.787031 -112.25126 -10.941053 -113.69697 -13.888711 -113.69697 z M -89.988976 -101.28274 C -88.004975 -101.28274 -86.531198 -100.68772 -85.56754 -99.497319 C -84.547197 -98.363604 -84.036884 -96.776539 -84.036884 -94.735852 C -84.036884 -92.695166 -84.547197 -91.107584 -85.56754 -89.973869 C -86.531198 -88.840154 -88.004975 -88.273198 -89.988976 -88.273198 C -91.972976 -88.273198 -93.475334 -88.840154 -94.495677 -89.973869 C -95.459335 -91.16427 -95.941067 -92.751852 -95.941067 -94.735852 C -95.941067 -96.833225 -95.459335 -98.448354 -94.495677 -99.582068 C -93.475334 -100.71578 -91.972976 -101.28274 -89.988976 -101.28274 z M -125.61626 -89.293807 C -127.99706 -89.293807 -130.57617 -88.330343 -133.35377 -86.403028 L -133.35377 -85.297669 C -133.35377 -79.118924 -132.67353 -74.583787 -131.31307 -71.692814 C -129.95261 -68.801842 -127.79859 -67.356645 -124.85093 -67.356645 C -122.41344 -67.356645 -120.54264 -68.291529 -119.23887 -70.162159 C -117.9351 -72.032788 -117.28343 -74.697123 -117.28343 -78.154952 C -117.28343 -81.669468 -118.02032 -84.390447 -119.49415 -86.317762 C -120.91129 -88.301762 -122.95203 -89.293807 -125.61626 -89.293807 z M -89.988976 -74.498845 C -88.004975 -74.498845 -86.531198 -73.903824 -85.56754 -72.713424 C -84.547197 -71.579709 -84.036884 -69.992127 -84.036884 -67.951441 C -84.036884 -65.910754 -84.547197 -64.323689 -85.56754 -63.189974 C -86.531198 -62.05626 -88.004975 -61.489303 -89.988976 -61.489303 C -91.972976 -61.489303 -93.475334 -62.05626 -94.495677 -63.189974 C -95.459335 -64.380375 -95.941067 -65.96744 -95.941067 -67.951441 C -95.941067 -70.048813 -95.459335 -71.664459 -94.495677 -72.798173 C -93.475334 -73.931888 -91.972976 -74.498845 -89.988976 -74.498845 z " /></g></svg>
