<?xml version="1.0" encoding="UTF-8" standalone="no"?>
<!-- Created with Inkscape (http://www.inkscape.org/) -->

<svg
   width="172.6701mm"
   height="172.6701mm"
   viewBox="0 0 172.6701 172.6701"
   version="1.1"
   id="svg1"
   xml:space="preserve"
   xmlns="http://www.w3.org/2000/svg"
   xmlns:svg="http://www.w3.org/2000/svg"><defs
     id="defs1" /><g
     id="layer1"
     transform="translate(157.25102,198.81012)"><path
       id="path5"
       style="fill:#ffffff;fill-opacity:1;stroke-width:0.805188;stroke-linecap:round;stroke-linejoin:round"
       d="M -2.0863309 -198.17657 L -10.088943 -183.11289 L -10.930235 -165.68398 L -19.198981 -165.68398 L -11.423229 -155.47426 L -12.166336 -140.07934 C -28.353216 -157.12094 -50.823548 -166.77435 -74.327399 -166.78417 C -103.64471 -166.77397 -130.92652 -151.79225 -146.66717 -127.05894 L -157.25102 -127.05894 L -149.61996 -115.86014 L -157.25102 -26.140039 L -8.5138455 -26.140039 L 15.419061 -26.140039 L 8.0799737 -154.80195 L 15.419061 -165.68398 L 7.4593397 -165.68398 L 6.4490654 -183.39297 L -2.0863309 -198.17657 z M -83.43072 -192.21621 C -85.584619 -189.65499 -86.77489 -186.4211 -86.795372 -183.07465 C -86.842092 -175.15518 -80.459903 -168.69733 -72.540428 -168.65072 C -64.621155 -168.60402 -58.163395 -174.98588 -58.116503 -182.90515 C -58.102813 -186.26049 -59.266203 -189.5144 -61.404157 -192.10045 C -60.83125 -190.6836 -60.536835 -189.16959 -60.537027 -187.64129 C -60.575787 -181.07411 -65.930869 -175.78172 -72.498054 -175.82031 C -79.065241 -175.85911 -84.357627 -181.21415 -84.319038 -187.78134 C -84.309338 -189.30285 -84.007827 -190.80837 -83.43072 -192.21621 z M -61.122004 -120.07436 C -56.587145 -119.84761 -52.902702 -118.85557 -50.068415 -117.09831 L -70.304906 -83.767013 L -57.295364 -83.767013 L -56.445287 -97.626632 C -54.631343 -97.626632 -53.327498 -97.995076 -52.533898 -98.731991 C -51.683612 -99.468905 -51.031947 -100.71611 -50.578461 -102.47336 L -45.731729 -102.47336 L -45.816995 -83.341716 C -43.662937 -82.718173 -40.941958 -82.066508 -37.654186 -81.38628 L -38.078966 -77.304875 L -46.241775 -77.304875 L -46.241775 -62.084615 L -57.295364 -62.084615 L -57.295364 -77.304875 L -81.869058 -77.304875 L -82.54912 -80.36567 L -61.122004 -120.07436 z M -13.335773 -119.56379 C -6.5901709 -119.56379 -1.4319503 -117.69351 2.139251 -113.95225 C 5.767138 -110.21099 7.5812961 -104.7971 7.5812961 -97.711381 C 7.5812961 -88.811721 4.8036734 -81.216258 -0.75152863 -74.924142 C -6.2500449 -68.688711 -14.243049 -64.09693 -24.72991 -61.149272 L -26.770612 -65.400692 C -21.102039 -67.838179 -16.538838 -70.956182 -13.081009 -74.754126 C -9.6231788 -78.608756 -7.3272884 -83.086732 -6.1935737 -88.188448 C -9.3679749 -86.601248 -12.457398 -85.807715 -15.461742 -85.807715 C -21.130315 -85.807715 -25.608291 -87.338137 -28.896064 -90.399166 C -32.127151 -93.460196 -33.742797 -97.598308 -33.742797 -102.8134 C -33.742797 -106.04448 -32.89262 -108.93539 -31.192048 -111.48625 C -29.43479 -114.03711 -27.025612 -116.0212 -23.964582 -117.43834 C -20.846867 -118.85549 -17.303775 -119.56379 -13.335773 -119.56379 z M -146.06566 -118.88373 L -141.89899 -118.88373 C -139.74493 -118.82705 -135.03986 -118.79847 -127.78408 -118.79847 C -120.24488 -118.79847 -115.34182 -118.82705 -113.07439 -118.88373 L -108.99298 -118.88373 L -107.29231 -115.22762 C -108.36934 -113.52705 -110.41008 -109.84261 -113.41442 -104.17404 C -116.41876 -98.505463 -119.25303 -92.496548 -121.91726 -86.147746 C -124.58149 -79.798944 -125.91391 -74.838719 -125.91391 -71.267517 C -125.91391 -68.433231 -124.92187 -66.307789 -122.93787 -64.890646 C -124.86518 -62.566531 -127.33101 -61.404554 -130.33535 -61.404554 C -133.11295 -61.404554 -135.26697 -62.169506 -136.79749 -63.700021 C -138.328 -65.230536 -139.09296 -67.356494 -139.09296 -70.077409 C -139.09296 -73.478553 -138.27136 -77.077772 -136.62747 -80.875717 C -134.98359 -84.730347 -132.03551 -89.945728 -127.78408 -96.521273 L -117.75111 -111.9963 L -137.13752 -111.9963 C -137.93112 -109.44544 -138.41285 -106.44124 -138.58291 -102.98341 C -139.60325 -102.81335 -140.65194 -102.72813 -141.72897 -102.72813 C -142.86268 -102.72813 -143.96802 -102.81335 -145.04505 -102.98341 L -147.42578 -117.60836 L -146.06566 -118.88373 z M -13.84582 -113.69697 C -16.283306 -113.69697 -18.154108 -112.76157 -19.45788 -110.89094 C -20.761652 -109.02031 -21.413833 -106.35597 -21.413833 -102.89814 C -21.413833 -99.383629 -20.705008 -96.634587 -19.287865 -94.650586 C -17.814036 -92.723271 -15.745238 -91.759807 -13.081009 -91.759807 C -10.756893 -91.759807 -8.1772664 -92.723271 -5.3429796 -94.650586 L -5.3429796 -95.755945 C -5.3429796 -101.93469 -6.0232243 -106.46931 -7.3836819 -109.36028 C -8.7441396 -112.25126 -10.898162 -113.69697 -13.84582 -113.69697 z M -93.772724 -101.28274 C -91.788723 -101.28274 -90.314946 -100.68772 -89.351289 -99.497319 C -88.330945 -98.363604 -87.821149 -96.776539 -87.821149 -94.735852 C -87.821149 -92.695166 -88.330945 -91.107584 -89.351289 -89.973869 C -90.314946 -88.840154 -91.788723 -88.273198 -93.772724 -88.273198 C -95.756725 -88.273198 -97.259083 -88.840154 -98.279426 -89.973869 C -99.243083 -91.16427 -99.724816 -92.751852 -99.724816 -94.735852 C -99.724816 -96.833225 -99.243083 -98.448354 -98.279426 -99.582068 C -97.259083 -100.71578 -95.756725 -101.28274 -93.772724 -101.28274 z M -93.772724 -74.498845 C -91.788723 -74.498845 -90.314946 -73.903824 -89.351289 -72.713424 C -88.330945 -71.579709 -87.821149 -69.992127 -87.821149 -67.951441 C -87.821149 -65.910754 -88.330945 -64.323689 -89.351289 -63.189974 C -90.314946 -62.05626 -91.788723 -61.489303 -93.772724 -61.489303 C -95.756725 -61.489303 -97.259083 -62.05626 -98.279426 -63.189974 C -99.243083 -64.380375 -99.724816 -65.96744 -99.724816 -67.951441 C -99.724816 -70.048813 -99.243083 -71.664459 -98.279426 -72.798173 C -97.259083 -73.931888 -95.756725 -74.498845 -93.772724 -74.498845 z " /></g></svg>
