<?xml version="1.0" encoding="UTF-8" standalone="no"?>
<!-- Created with Inkscape (http://www.inkscape.org/) -->

<svg
   width="172.6701mm"
   height="172.6701mm"
   viewBox="0 0 172.6701 172.6701"
   version="1.1"
   id="svg1"
   xml:space="preserve"
   xmlns="http://www.w3.org/2000/svg"
   xmlns:svg="http://www.w3.org/2000/svg"><defs
     id="defs1" /><g
     id="layer1"
     transform="translate(157.25102,198.81012)"><path
       id="path5"
       style="fill:#ffffff;fill-opacity:1;stroke-width:0.805188;stroke-linecap:round;stroke-linejoin:round"
       d="M -2.0863309 -198.17657 L -10.088943 -183.11289 L -10.930235 -165.68398 L -19.198981 -165.68398 L -11.423229 -155.47426 L -12.166336 -140.07934 C -28.353216 -157.12094 -50.823548 -166.77435 -74.327399 -166.78417 C -103.64471 -166.77397 -130.92652 -151.79225 -146.66717 -127.05894 L -157.25102 -127.05894 L -149.61996 -115.86014 L -157.25102 -26.140039 L -8.5138455 -26.140039 L 15.419061 -26.140039 L 8.0799737 -154.80195 L 15.419061 -165.68398 L 7.4593397 -165.68398 L 6.4490654 -183.39297 L -2.0863309 -198.17657 z M -83.43072 -192.21621 C -85.584619 -189.65499 -86.77489 -186.4211 -86.795372 -183.07465 C -86.842092 -175.15518 -80.459903 -168.69733 -72.540428 -168.65072 C -64.621155 -168.60402 -58.163395 -174.98588 -58.116503 -182.90515 C -58.102813 -186.26049 -59.266203 -189.5144 -61.404157 -192.10045 C -60.83125 -190.6836 -60.536835 -189.16959 -60.537027 -187.64129 C -60.575787 -181.07411 -65.930869 -175.78172 -72.498054 -175.82031 C -79.065241 -175.85911 -84.357627 -181.21415 -84.319038 -187.78134 C -84.309338 -189.30285 -84.007827 -190.80837 -83.43072 -192.21621 z M -12.698086 -119.73381 C -6.8594555 -119.73381 -2.2110308 -118.28861 1.246799 -115.39764 C 4.7046288 -112.56335 6.4335625 -108.56711 6.4335625 -103.40871 C 6.4335625 -98.873849 4.7046288 -94.026912 1.246799 -88.86851 C -2.2110308 -83.766794 -7.9081445 -77.616529 -15.844147 -70.41744 L 7.0283583 -70.41744 L 7.0283583 -62.084615 L -31.489187 -62.084615 L -31.489187 -67.016097 C -25.197071 -73.081471 -20.294006 -78.268272 -16.779491 -82.576388 C -13.264975 -86.884504 -10.742509 -90.852684 -9.2119941 -94.480571 C -7.6247935 -98.108458 -6.8312609 -101.84955 -6.8312609 -105.70418 C -6.8312609 -111.82623 -8.8719949 -114.88759 -12.953368 -114.88759 C -14.767311 -114.88759 -16.241089 -114.0369 -17.374803 -112.33633 C -18.508518 -110.69244 -19.074958 -108.65171 -19.074958 -106.21422 C -19.074958 -104.51365 -18.479938 -102.89852 -17.289537 -101.36801 C -18.253195 -100.46103 -19.358528 -99.752209 -20.605614 -99.242037 C -21.796014 -98.731866 -22.986572 -98.476709 -24.176972 -98.476709 C -26.217659 -98.476709 -27.918012 -99.10031 -29.27847 -100.3474 C -30.638927 -101.65117 -31.319172 -103.52197 -31.319172 -105.95946 C -31.319172 -108.567 -30.55422 -110.91953 -29.023705 -113.01691 C -27.49319 -115.11428 -25.339168 -116.75799 -22.561567 -117.94839 C -19.72728 -119.13879 -16.439345 -119.73381 -12.698086 -119.73381 z M -56.232897 -119.64906 C -49.600666 -119.64906 -44.527153 -117.15466 -41.012637 -112.16631 C -37.441436 -107.23465 -35.655858 -100.06428 -35.655858 -90.654448 C -35.655858 -81.244616 -37.441436 -74.017081 -41.012637 -68.97205 C -44.527153 -63.983706 -49.600666 -61.489303 -56.232897 -61.489303 C -62.865128 -61.489303 -67.966704 -63.983706 -71.537906 -68.97205 C -75.109107 -74.017081 -76.894685 -81.244616 -76.894685 -90.654448 C -76.894685 -100.00759 -75.109107 -107.17797 -71.537906 -112.16631 C -67.966704 -117.15466 -62.865128 -119.64906 -56.232897 -119.64906 z M -125.87102 -119.56379 C -119.12542 -119.56379 -113.9672 -117.69351 -110.396 -113.95225 C -106.76811 -110.21099 -104.95447 -104.7971 -104.95447 -97.711381 C -104.95447 -88.811721 -107.73209 -81.216258 -113.2873 -74.924142 C -118.78581 -68.688711 -126.7783 -64.09693 -137.26516 -61.149272 L -139.30586 -65.400692 C -133.63729 -67.838179 -129.07409 -70.956182 -125.61626 -74.754126 C -122.15843 -78.608756 -119.86254 -83.086732 -118.72882 -88.188448 C -121.90322 -86.601248 -124.99265 -85.807715 -127.99699 -85.807715 C -133.66557 -85.807715 -138.14354 -87.338137 -141.43131 -90.399166 C -144.6624 -93.460196 -146.27805 -97.598308 -146.27805 -102.8134 C -146.27805 -106.04448 -145.42787 -108.93539 -143.7273 -111.48625 C -141.97004 -114.03711 -139.56086 -116.0212 -136.49983 -117.43834 C -133.38212 -118.85549 -129.83902 -119.56379 -125.87102 -119.56379 z M -56.232897 -115.31237 C -59.123869 -115.31237 -61.221247 -113.41351 -62.525019 -109.61556 C -63.772105 -105.81762 -64.395706 -99.497422 -64.395706 -90.654448 C -64.395706 -81.868159 -63.772105 -75.576025 -62.525019 -71.778081 C -61.221247 -68.036822 -59.123869 -66.16602 -56.232897 -66.16602 C -53.341924 -66.16602 -51.27261 -68.036822 -50.025524 -71.778081 C -48.721752 -75.576025 -48.070087 -81.868159 -48.070087 -90.654448 C -48.070087 -99.440737 -48.721752 -105.73287 -50.025524 -109.53081 C -51.27261 -113.38544 -53.341924 -115.31237 -56.232897 -115.31237 z M -126.38159 -113.69697 C -128.81907 -113.69697 -130.68936 -112.76157 -131.99313 -110.89094 C -133.2969 -109.02031 -133.94908 -106.35597 -133.94908 -102.89814 C -133.94908 -99.383629 -133.24026 -96.634587 -131.82311 -94.650586 C -130.34929 -92.723271 -128.28049 -91.759807 -125.61626 -91.759807 C -123.29214 -91.759807 -120.71303 -92.723271 -117.87875 -94.650586 L -117.87875 -95.755945 C -117.87875 -101.93469 -118.55899 -106.46931 -119.91945 -109.36028 C -121.27991 -112.25126 -123.43393 -113.69697 -126.38159 -113.69697 z M -90.074242 -101.28274 C -88.090241 -101.28274 -86.616464 -100.68772 -85.652806 -99.497319 C -84.632463 -98.363604 -84.12215 -96.776539 -84.12215 -94.735852 C -84.12215 -92.695166 -84.632463 -91.107584 -85.652806 -89.973869 C -86.616464 -88.840154 -88.090241 -88.273198 -90.074242 -88.273198 C -92.058243 -88.273198 -93.5606 -88.840154 -94.580944 -89.973869 C -95.544601 -91.16427 -96.026333 -92.751852 -96.026333 -94.735852 C -96.026333 -96.833225 -95.544601 -98.448354 -94.580944 -99.582068 C -93.5606 -100.71578 -92.058243 -101.28274 -90.074242 -101.28274 z M -90.074242 -74.498845 C -88.090241 -74.498845 -86.616464 -73.903824 -85.652806 -72.713424 C -84.632463 -71.579709 -84.12215 -69.992127 -84.12215 -67.951441 C -84.12215 -65.910754 -84.632463 -64.323689 -85.652806 -63.189974 C -86.616464 -62.05626 -88.090241 -61.489303 -90.074242 -61.489303 C -92.058243 -61.489303 -93.5606 -62.05626 -94.580944 -63.189974 C -95.544601 -64.380375 -96.026333 -65.96744 -96.026333 -67.951441 C -96.026333 -70.048813 -95.544601 -71.664459 -94.580944 -72.798173 C -93.5606 -73.931888 -92.058243 -74.498845 -90.074242 -74.498845 z " /></g></svg>
