<?xml version="1.0" encoding="UTF-8" standalone="no"?>
<!-- Created with Inkscape (http://www.inkscape.org/) -->

<svg
   width="172.6701mm"
   height="172.6701mm"
   viewBox="0 0 172.6701 172.6701"
   version="1.1"
   id="svg1"
   xml:space="preserve"
   xmlns="http://www.w3.org/2000/svg"
   xmlns:svg="http://www.w3.org/2000/svg"><defs
     id="defs1" /><g
     id="layer1"
     transform="translate(157.25102,198.81012)"><path
       id="path5"
       style="fill:#ffffff;fill-opacity:1;stroke-width:0.805188;stroke-linecap:round;stroke-linejoin:round"
       d="M -2.0863309 -198.17657 L -10.088943 -183.11289 L -10.930235 -165.68398 L -19.198981 -165.68398 L -11.423229 -155.47426 L -12.166336 -140.07934 C -28.353216 -157.12094 -50.823548 -166.77435 -74.327399 -166.78417 C -103.64471 -166.77397 -130.92652 -151.79225 -146.66717 -127.05894 L -157.25102 -127.05894 L -149.61996 -115.86014 L -157.25102 -26.140039 L -8.5138455 -26.140039 L 15.419061 -26.140039 L 8.0799737 -154.80195 L 15.419061 -165.68398 L 7.4593397 -165.68398 L 6.4490654 -183.39297 L -2.0863309 -198.17657 z M -83.43072 -192.21621 C -85.584619 -189.65499 -86.77489 -186.4211 -86.795372 -183.07465 C -86.842092 -175.15518 -80.459903 -168.69733 -72.540428 -168.65072 C -64.621155 -168.60402 -58.163395 -174.98588 -58.116503 -182.90515 C -58.102813 -186.26049 -59.266203 -189.5144 -61.404157 -192.10045 C -60.83125 -190.6836 -60.536835 -189.16959 -60.537027 -187.64129 C -60.575787 -181.07411 -65.930869 -175.78172 -72.498054 -175.82031 C -79.065241 -175.85911 -84.357627 -181.21415 -84.319038 -187.78134 C -84.309338 -189.30285 -84.007827 -190.80837 -83.43072 -192.21621 z M -62.822675 -120.07436 C -58.287816 -119.84761 -54.602856 -118.85557 -51.76857 -117.09831 L -72.005577 -83.767013 L -58.996035 -83.767013 L -58.145958 -97.626632 C -56.332015 -97.626632 -55.028169 -97.995076 -54.234569 -98.731991 C -53.384283 -99.468905 -52.732619 -100.71611 -52.279133 -102.47336 L -47.4324 -102.47336 L -47.51715 -83.341716 C -45.363092 -82.718173 -42.642113 -82.066508 -39.35434 -81.38628 L -39.779637 -77.304875 L -47.942447 -77.304875 L -47.942447 -62.084615 L -58.996035 -62.084615 L -58.996035 -77.304875 L -83.569213 -77.304875 L -84.249791 -80.36567 L -62.822675 -120.07436 z M -2.8774971 -119.90383 L -0.83679474 -115.65241 C -12.287313 -110.72075 -19.174468 -103.12528 -21.498583 -92.865166 C -18.21081 -94.452366 -15.093323 -95.245899 -12.145665 -95.245899 C -6.4770917 -95.245899 -2.0271793 -93.715477 1.2039076 -90.654448 C 4.4916802 -87.593418 6.1359063 -83.455306 6.1359063 -78.240218 C 6.1359063 -75.009132 5.2571492 -72.118221 3.4998915 -69.567363 C 1.7993194 -67.016505 -0.60985893 -65.032415 -3.7275744 -63.615271 C -6.7886041 -62.198128 -10.303115 -61.489303 -14.271117 -61.489303 C -21.016719 -61.489303 -26.20352 -63.360105 -29.831407 -67.101363 C -33.402609 -70.842622 -35.188186 -76.255999 -35.188186 -83.341716 C -35.188186 -92.241376 -32.439144 -99.808775 -26.940628 -106.04421 C -21.385426 -112.33632 -13.364358 -116.95617 -2.8774971 -119.90383 z M -123.61793 -119.13901 L -120.8119 -117.86364 L -120.8119 -68.716769 C -119.73487 -68.093226 -118.03452 -67.526269 -115.7104 -67.016097 C -113.38629 -66.562611 -111.54407 -66.279392 -110.18361 -66.16602 L -110.43837 -62.084615 L -145.13031 -62.084615 L -144.9603 -66.16602 C -139.91527 -66.732877 -136.06037 -67.583054 -133.39615 -68.716769 L -133.39615 -109.44555 L -144.79028 -109.44555 L -144.79028 -114.37703 C -141.16239 -114.66046 -137.42079 -115.19935 -133.56616 -115.99295 C -129.71153 -116.84324 -126.39553 -117.89193 -123.61793 -119.13901 z M -95.473395 -101.28274 C -93.489395 -101.28274 -92.015617 -100.68772 -91.05196 -99.497319 C -90.031617 -98.363604 -89.521304 -96.776539 -89.521304 -94.735852 C -89.521304 -92.695166 -90.031617 -91.107584 -91.05196 -89.973869 C -92.015617 -88.840154 -93.489395 -88.273198 -95.473395 -88.273198 C -97.457396 -88.273198 -98.959754 -88.840154 -99.980097 -89.973869 C -100.94375 -91.16427 -101.42549 -92.751852 -101.42549 -94.735852 C -101.42549 -96.833225 -100.94375 -98.448354 -99.980097 -99.582068 C -98.959754 -100.71578 -97.457396 -101.28274 -95.473395 -101.28274 z M -14.526398 -89.293807 C -16.907199 -89.293807 -19.48631 -88.330343 -22.263911 -86.403028 L -22.263911 -85.297669 C -22.263911 -79.118924 -21.583666 -74.583787 -20.223208 -71.692814 C -18.862751 -68.801842 -16.708729 -67.356645 -13.76107 -67.356645 C -11.323584 -67.356645 -9.4527818 -68.291529 -8.1490099 -70.162159 C -6.845238 -72.032788 -6.1935737 -74.697123 -6.1935737 -78.154952 C -6.1935737 -81.669468 -6.9304624 -84.390447 -8.4042915 -86.317762 C -9.8214349 -88.301762 -11.862169 -89.293807 -14.526398 -89.293807 z M -95.473395 -74.498845 C -93.489395 -74.498845 -92.015617 -73.903824 -91.05196 -72.713424 C -90.031617 -71.579709 -89.521304 -69.992127 -89.521304 -67.951441 C -89.521304 -65.910754 -90.031617 -64.323689 -91.05196 -63.189974 C -92.015617 -62.05626 -93.489395 -61.489303 -95.473395 -61.489303 C -97.457396 -61.489303 -98.959754 -62.05626 -99.980097 -63.189974 C -100.94375 -64.380375 -101.42549 -65.96744 -101.42549 -67.951441 C -101.42549 -70.048813 -100.94375 -71.664459 -99.980097 -72.798173 C -98.959754 -73.931888 -97.457396 -74.498845 -95.473395 -74.498845 z " /></g></svg>
