<?xml version="1.0" encoding="UTF-8" standalone="no"?>
<!-- Created with Inkscape (http://www.inkscape.org/) -->

<svg
   width="172.6701mm"
   height="172.6701mm"
   viewBox="0 0 172.6701 172.6701"
   version="1.1"
   id="svg1"
   xml:space="preserve"
   xmlns="http://www.w3.org/2000/svg"
   xmlns:svg="http://www.w3.org/2000/svg"><defs
     id="defs1" /><g
     id="layer1"
     transform="translate(157.25102,198.81012)"><path
       id="path5"
       style="fill:#ffffff;fill-opacity:1;stroke-width:0.805188;stroke-linecap:round;stroke-linejoin:round"
       d="M -2.0863309 -198.17657 L -10.088943 -183.11289 L -10.930235 -165.68398 L -19.198981 -165.68398 L -11.423229 -155.47426 L -12.166336 -140.07934 C -28.353216 -157.12094 -50.823548 -166.77435 -74.327399 -166.78417 C -103.64471 -166.77397 -130.92652 -151.79225 -146.66717 -127.05894 L -157.25102 -127.05894 L -149.61996 -115.86014 L -157.25102 -26.140039 L -8.5138455 -26.140039 L 15.419061 -26.140039 L 8.0799737 -154.80195 L 15.419061 -165.68398 L 7.4593397 -165.68398 L 6.4490654 -183.39297 L -2.0863309 -198.17657 z M -83.43072 -192.21621 C -85.584619 -189.65499 -86.77489 -186.4211 -86.795372 -183.07465 C -86.842092 -175.15518 -80.459903 -168.69733 -72.540428 -168.65072 C -64.621155 -168.60402 -58.163395 -174.98588 -58.116503 -182.90515 C -58.102813 -186.26049 -59.266203 -189.5144 -61.404157 -192.10045 C -60.83125 -190.6836 -60.536835 -189.16959 -60.537027 -187.64129 C -60.575787 -181.07411 -65.930869 -175.78172 -72.498054 -175.82031 C -79.065241 -175.85911 -84.357627 -181.21415 -84.319038 -187.78134 C -84.309338 -189.30285 -84.007827 -190.80837 -83.43072 -192.21621 z M -40.150674 -133.81925 C -32.621021 -133.44277 -26.503306 -131.79518 -21.797272 -128.87744 L -55.398322 -73.534563 L -33.797574 -73.534563 L -32.385773 -96.547111 C -29.373912 -96.547111 -27.209286 -97.15909 -25.891596 -98.382658 C -24.479786 -99.606227 -23.397214 -101.67694 -22.644249 -104.59468 L -14.597195 -104.59468 L -14.738272 -72.828662 C -11.161686 -71.793335 -6.6435758 -70.71128 -1.1845771 -69.581832 L -1.8904772 -62.804985 L -15.444172 -62.804985 L -15.444172 -37.533659 L -33.797574 -37.533659 L -33.797574 -62.804985 L -74.598701 -62.804985 L -75.728347 -67.887362 L -40.150674 -133.81925 z M -101.5645 -132.26586 L -96.905349 -130.14816 L -96.905349 -48.545907 C -95.117057 -47.51058 -92.293496 -46.569393 -88.434549 -45.722307 C -84.575601 -44.969341 -81.516744 -44.498748 -79.257848 -44.310507 L -79.681595 -37.533659 L -137.28325 -37.533659 L -137.00109 -44.310507 C -128.62435 -45.251713 -122.22387 -46.663494 -117.8002 -48.545907 L -117.8002 -116.17124 L -136.71842 -116.17124 L -136.71842 -124.35988 C -130.6947 -124.83049 -124.48307 -125.72472 -118.08287 -127.04241 C -111.68266 -128.45422 -106.17641 -130.19521 -101.5645 -132.26586 z " /></g></svg>
