<?xml version="1.0" encoding="UTF-8" standalone="no"?>
<!-- Created with Inkscape (http://www.inkscape.org/) -->

<svg
   width="172.6701mm"
   height="172.6701mm"
   viewBox="0 0 172.6701 172.6701"
   version="1.1"
   id="svg1"
   xml:space="preserve"
   xmlns="http://www.w3.org/2000/svg"
   xmlns:svg="http://www.w3.org/2000/svg"><defs
     id="defs1" /><g
     id="layer1"
     transform="translate(157.25102,198.81012)"><path
       id="path5"
       style="fill:#ffffff;fill-opacity:1;stroke-width:0.805188;stroke-linecap:round;stroke-linejoin:round"
       d="M -2.0863309 -198.17657 L -10.088943 -183.11289 L -10.930235 -165.68398 L -19.198981 -165.68398 L -11.423229 -155.47426 L -12.166336 -140.07934 C -28.353216 -157.12094 -50.823548 -166.77435 -74.327399 -166.78417 C -103.64471 -166.77397 -130.92652 -151.79225 -146.66717 -127.05894 L -157.25102 -127.05894 L -149.61996 -115.86014 L -157.25102 -26.140039 L -8.5138455 -26.140039 L 15.419061 -26.140039 L 8.0799737 -154.80195 L 15.419061 -165.68398 L 7.4593397 -165.68398 L 6.4490654 -183.39297 L -2.0863309 -198.17657 z M -83.43072 -192.21621 C -85.584619 -189.65499 -86.77489 -186.4211 -86.795372 -183.07465 C -86.842092 -175.15518 -80.459903 -168.69733 -72.540428 -168.65072 C -64.621155 -168.60402 -58.163395 -174.98588 -58.116503 -182.90515 C -58.102813 -186.26049 -59.266203 -189.5144 -61.404157 -192.10045 C -60.83125 -190.6836 -60.536835 -189.16959 -60.537027 -187.64129 C -60.575787 -181.07411 -65.930869 -175.78172 -72.498054 -175.82031 C -79.065241 -175.85911 -84.357627 -181.21415 -84.319038 -187.78134 C -84.309338 -189.30285 -84.007827 -190.80837 -83.43072 -192.21621 z M -125.02095 -119.73381 C -119.18232 -119.73381 -114.53389 -118.28861 -111.07606 -115.39764 C -107.61823 -112.56335 -105.8893 -108.56711 -105.8893 -103.40871 C -105.8893 -98.873849 -107.61823 -94.026912 -111.07606 -88.86851 C -114.53389 -83.766794 -120.231 -77.616529 -128.16701 -70.41744 L -105.2945 -70.41744 L -105.2945 -62.084615 L -143.81205 -62.084615 L -143.81205 -67.016097 C -137.51993 -73.081471 -132.61687 -78.268272 -129.10235 -82.576388 C -125.58783 -86.884504 -123.06537 -90.852684 -121.53485 -94.480571 C -119.94765 -98.108458 -119.15412 -101.84955 -119.15412 -105.70418 C -119.15412 -111.82623 -121.19485 -114.88759 -125.27623 -114.88759 C -127.09017 -114.88759 -128.56395 -114.0369 -129.69766 -112.33633 C -130.83138 -110.69244 -131.39782 -108.65171 -131.39782 -106.21422 C -131.39782 -104.51365 -130.8028 -102.89852 -129.6124 -101.36801 C -130.57605 -100.46103 -131.68139 -99.752209 -132.92847 -99.242037 C -134.11887 -98.731866 -135.30943 -98.476709 -136.49983 -98.476709 C -138.54052 -98.476709 -140.24087 -99.10031 -141.60133 -100.3474 C -142.96179 -101.65117 -143.64203 -103.52197 -143.64203 -105.95946 C -143.64203 -108.567 -142.87708 -110.91953 -141.34656 -113.01691 C -139.81605 -115.11428 -137.66203 -116.75799 -134.88443 -117.94839 C -132.05014 -119.13879 -128.7622 -119.73381 -125.02095 -119.73381 z M -58.443614 -119.73381 C -54.759042 -119.73381 -51.499687 -119.11073 -48.6654 -117.86364 C -45.831113 -116.67324 -43.61993 -114.97237 -42.03273 -112.76163 C -40.445529 -110.60757 -39.651997 -108.11368 -39.651997 -105.27939 C -39.651997 -102.10499 -40.587398 -99.384015 -42.458027 -97.116586 C -44.328656 -94.849156 -47.106279 -93.120223 -50.790852 -91.929822 C -46.142621 -90.909479 -42.883266 -89.237189 -41.012637 -86.913074 C -39.142008 -84.588959 -38.206607 -81.442892 -38.206607 -77.474891 C -38.206607 -74.017061 -39.255296 -71.069506 -41.352668 -68.632019 C -43.393354 -66.194533 -46.057689 -64.380375 -49.345462 -63.189974 C -52.633234 -61.999574 -56.034458 -61.404554 -59.548973 -61.404554 C -64.650689 -61.404554 -68.986797 -62.453243 -72.557998 -64.550615 C -76.072514 -66.647987 -77.830028 -69.510317 -77.830028 -73.138204 C -77.830028 -75.235577 -77.206427 -76.851222 -75.959341 -77.984937 C -74.712255 -79.175337 -73.153253 -79.770358 -71.282624 -79.770358 C -69.355309 -79.770358 -67.399799 -79.005405 -65.415799 -77.474891 C -65.92597 -76.397862 -66.181127 -75.094016 -66.181127 -73.563501 C -66.181127 -71.749558 -65.64275 -70.275781 -64.565721 -69.142066 C -63.432007 -68.008351 -61.759717 -67.441394 -59.548973 -67.441394 C -54.674 -67.441394 -52.236241 -70.814037 -52.236241 -77.55964 C -52.236241 -81.244213 -53.426799 -84.10706 -55.8076 -86.147746 C -58.131715 -88.188433 -61.447714 -89.208541 -65.75583 -89.208541 L -65.75583 -94.480571 C -57.423027 -95.1608 -53.256851 -98.760535 -53.256851 -105.27939 C -53.256851 -108.56717 -53.766647 -110.97583 -54.78699 -112.50634 C -55.807333 -114.09354 -57.196403 -114.88759 -58.953661 -114.88759 C -61.051033 -114.88759 -62.638098 -114.15071 -63.715127 -112.67688 C -64.73547 -111.20305 -65.245783 -109.41747 -65.245783 -107.3201 C -65.245783 -105.44947 -64.848758 -103.77718 -64.055158 -102.30335 C -65.642359 -100.60278 -67.683093 -99.752084 -70.177265 -99.752084 C -72.444695 -99.752084 -74.202209 -100.43233 -75.449295 -101.79279 C -76.696381 -103.15324 -77.319982 -104.91076 -77.319982 -107.06482 C -77.319982 -109.8991 -76.356 -112.25164 -74.428685 -114.12227 C -72.444684 -116.04958 -70.007443 -117.46671 -67.11647 -118.37369 C -64.168812 -119.28066 -61.277901 -119.73381 -58.443614 -119.73381 z M -14.908804 -119.73381 C -9.0701733 -119.73381 -4.4217486 -118.28861 -0.96391876 -115.39764 C 2.4939111 -112.56335 4.222328 -108.56711 4.222328 -103.40871 C 4.222328 -98.873849 2.4939111 -94.026912 -0.96391876 -88.86851 C -4.4217486 -83.766794 -10.118862 -77.616529 -18.054865 -70.41744 L 4.8176405 -70.41744 L 4.8176405 -62.084615 L -33.700422 -62.084615 L -33.700422 -67.016097 C -27.408305 -73.081471 -22.504724 -78.268272 -18.990209 -82.576388 C -15.475693 -86.884504 -12.953227 -90.852684 -11.422712 -94.480571 C -9.8355113 -98.108458 -9.0419787 -101.84955 -9.0419787 -105.70418 C -9.0419787 -111.82623 -11.082713 -114.88759 -15.164086 -114.88759 C -16.978029 -114.88759 -18.451806 -114.0369 -19.585521 -112.33633 C -20.719236 -110.69244 -21.286193 -108.65171 -21.286193 -106.21422 C -21.286193 -104.51365 -20.690655 -102.89852 -19.500255 -101.36801 C -20.463913 -100.46103 -21.569246 -99.752209 -22.816332 -99.242037 C -24.006732 -98.731866 -25.197289 -98.476709 -26.38769 -98.476709 C -28.428376 -98.476709 -30.12873 -99.10031 -31.489187 -100.3474 C -32.849645 -101.65117 -33.52989 -103.52197 -33.52989 -105.95946 C -33.52989 -108.567 -32.764937 -110.91953 -31.234423 -113.01691 C -29.703908 -115.11428 -27.549886 -116.75799 -24.772285 -117.94839 C -21.937998 -119.13879 -18.650063 -119.73381 -14.908804 -119.73381 z M -90.158991 -101.28274 C -88.17499 -101.28274 -86.701213 -100.68772 -85.737556 -99.497319 C -84.717212 -98.363604 -84.207416 -96.776539 -84.207416 -94.735852 C -84.207416 -92.695166 -84.717212 -91.107584 -85.737556 -89.973869 C -86.701213 -88.840154 -88.17499 -88.273198 -90.158991 -88.273198 C -92.142992 -88.273198 -93.64535 -88.840154 -94.665693 -89.973869 C -95.62935 -91.16427 -96.111083 -92.751852 -96.111083 -94.735852 C -96.111083 -96.833225 -95.62935 -98.448354 -94.665693 -99.582068 C -93.64535 -100.71578 -92.142992 -101.28274 -90.158991 -101.28274 z M -90.158991 -74.498845 C -88.17499 -74.498845 -86.701213 -73.903824 -85.737556 -72.713424 C -84.717212 -71.579709 -84.207416 -69.992127 -84.207416 -67.951441 C -84.207416 -65.910754 -84.717212 -64.323689 -85.737556 -63.189974 C -86.701213 -62.05626 -88.17499 -61.489303 -90.158991 -61.489303 C -92.142992 -61.489303 -93.64535 -62.05626 -94.665693 -63.189974 C -95.62935 -64.380375 -96.111083 -65.96744 -96.111083 -67.951441 C -96.111083 -70.048813 -95.62935 -71.664459 -94.665693 -72.798173 C -93.64535 -73.931888 -92.142992 -74.498845 -90.158991 -74.498845 z " /></g></svg>
