<?xml version="1.0" encoding="UTF-8" standalone="no"?>
<!-- Created with Inkscape (http://www.inkscape.org/) -->

<svg
   width="172.6701mm"
   height="172.6701mm"
   viewBox="0 0 172.6701 172.6701"
   version="1.1"
   id="svg1"
   xml:space="preserve"
   inkscape:version="1.4 (e7c3feb100, 2024-10-09)"
   sodipodi:docname="ezanvakti.svg"
   xmlns:inkscape="http://www.inkscape.org/namespaces/inkscape"
   xmlns:sodipodi="http://sodipodi.sourceforge.net/DTD/sodipodi-0.dtd"
   xmlns="http://www.w3.org/2000/svg"
   xmlns:svg="http://www.w3.org/2000/svg"><sodipodi:namedview
     id="namedview1"
     pagecolor="#6f6f6f"
     bordercolor="#000000"
     borderopacity="0.25"
     inkscape:showpageshadow="2"
     inkscape:pageopacity="0.0"
     inkscape:pagecheckerboard="0"
     inkscape:deskcolor="#d1d1d1"
     inkscape:document-units="mm"
     inkscape:zoom="0.5"
     inkscape:cx="-99"
     inkscape:cy="403"
     inkscape:window-width="1536"
     inkscape:window-height="792"
     inkscape:window-x="0"
     inkscape:window-y="0"
     inkscape:window-maximized="1"
     inkscape:current-layer="layer1"
     showgrid="false"><inkscape:grid
       id="grid10"
       units="mm"
       originx="0"
       originy="0"
       spacingx="0.99999993"
       spacingy="0.99999993"
       empcolor="#0099e5"
       empopacity="0.30196078"
       color="#0099e5"
       opacity="0.14901961"
       empspacing="5"
       enabled="true"
       visible="false" /></sodipodi:namedview><defs
     id="defs1" /><g
     inkscape:label="Layer 1"
     inkscape:groupmode="layer"
     id="layer1"
     transform="translate(157.25102,198.81012)"><path
       id="path5"
       style="fill:#ffffff;fill-opacity:1;stroke-width:0.805188;stroke-linecap:round;stroke-linejoin:round"
       d="m -2.0863309,-198.17657 -8.0026121,15.06368 -0.841292,17.42891 h -8.268746 l 7.775752,10.20972 -0.743107,15.39492 c -16.18688,-17.0416 -38.657212,-26.69501 -62.161063,-26.70483 -29.317311,0.0102 -56.599121,14.99192 -72.339771,39.72523 h -10.58385 l 7.63102,11.19893 -7.63102,89.719971 H -8.5138455 15.419061 L 8.0799737,-154.80195 15.419061,-165.68398 H 7.4593397 l -1.0102743,-17.70899 z m -81.3443891,5.96036 c -2.153899,2.56122 -3.34417,5.79511 -3.364652,9.14156 -0.04672,7.91947 6.335469,14.37732 14.254944,14.42393 7.919273,0.0467 14.377033,-6.33516 14.423925,-14.25443 0.01369,-3.35534 -1.1497,-6.60925 -3.287654,-9.1953 0.572907,1.41685 0.867322,2.93086 0.86713,4.45916 -0.03876,6.56718 -5.393842,11.85957 -11.961027,11.82098 -6.567187,-0.0388 -11.859573,-5.39384 -11.820984,-11.96103 0.0097,-1.52151 0.311211,-3.02703 0.888318,-4.43487 z"
       sodipodi:nodetypes="ccccccccccccccccccccccccccc" /><text
       xml:space="preserve"
       style="font-style:normal;font-variant:normal;font-weight:bold;font-stretch:normal;font-size:116.859px;font-family:Caladea;-inkscape-font-specification:'Caladea, Bold';font-variant-ligatures:normal;font-variant-caps:normal;font-variant-numeric:normal;font-variant-east-asian:normal;text-align:center;writing-mode:lr-tb;direction:ltr;text-anchor:middle;mix-blend-mode:normal;fill:#000000;fill-opacity:1;stroke-width:11.0417;stroke-linecap:round;stroke-linejoin:round"
       x="-69.187042"
       y="-46.966167"
       id="text10"><tspan
         sodipodi:role="line"
         id="tspan10"
         style="fill:#000000;fill-opacity:1;stroke-width:11.0417"
         x="-69.187042"
         y="-46.966167">23:</tspan></text></g></svg>
