<?xml version="1.0" encoding="UTF-8" standalone="no"?>
<!-- Created with Inkscape (http://www.inkscape.org/) -->

<svg
   width="172.6701mm"
   height="172.6701mm"
   viewBox="0 0 172.6701 172.6701"
   version="1.1"
   id="svg1"
   xml:space="preserve"
   sodipodi:docname="ezanvakti-icon.svg"
   inkscape:version="1.4 (e7c3feb100, 2024-10-09)"
   xmlns:inkscape="http://www.inkscape.org/namespaces/inkscape"
   xmlns:sodipodi="http://sodipodi.sourceforge.net/DTD/sodipodi-0.dtd"
   xmlns="http://www.w3.org/2000/svg"
   xmlns:svg="http://www.w3.org/2000/svg"><sodipodi:namedview
     id="namedview1"
     pagecolor="#ffffff"
     bordercolor="#000000"
     borderopacity="0.25"
     inkscape:showpageshadow="2"
     inkscape:pageopacity="0.0"
     inkscape:pagecheckerboard="0"
     inkscape:deskcolor="#d1d1d1"
     inkscape:document-units="mm"
     inkscape:zoom="0.62951555"
     inkscape:cx="407.45618"
     inkscape:cy="394.74799"
     inkscape:window-width="1536"
     inkscape:window-height="792"
     inkscape:window-x="0"
     inkscape:window-y="0"
     inkscape:window-maximized="1"
     inkscape:current-layer="svg1" /><defs
     id="defs1" /><path
     id="path5"
     style="fill:#366581;fill-opacity:1;stroke-width:0.805188;stroke-linecap:round;stroke-linejoin:round"
     d="m 73.8203,6.59391 c -2.153899,2.56122 -3.34417,5.79511 -3.364652,9.14156 -0.04672,7.91947 6.335469,14.37732 14.254944,14.42393 7.919273,0.0467 14.377033,-6.33516 14.423925,-14.25443 0.01369,-3.35534 -1.1497,-6.60925 -3.287654,-9.1953 0.572907,1.41685 0.867322,2.93086 0.86713,4.45916 -0.03876,6.56718 -5.393842,11.85957 -11.961027,11.82098 -6.567187,-0.0388 -11.859573,-5.39384 -11.820984,-11.96103 0.0097,-1.52151 0.311211,-3.02703 0.888318,-4.43487 z"
     sodipodi:nodetypes="ccccccccc" /><path
     style="fill:#8f7b3f;fill-opacity:1;stroke-width:0.799999;stroke-linecap:round;stroke-linejoin:round"
     d="m 145.08468,58.73078 2.07739,-43.03355 16.53801,-0.28008 8.97,157.25293 z"
     id="path10" /><path
     style="fill:#a28b47;fill-opacity:1;stroke-width:0.799999;stroke-linecap:round;stroke-linejoin:round"
     d="M 159.27916,82.95011 H 7.63102 L 0,172.6701 h 172.6701 z"
     id="path7" /><path
     id="path1"
     style="fill:#366581;fill-opacity:1;stroke-width:1.10089;stroke-linecap:round;stroke-linejoin:round"
     d="M 82.880212,32.17943 A 86.247879,86.247879 0 0 0 10.48411,71.58374 l 0.0997,0.16744 H 155.37863 A 86.247879,86.247879 0 0 0 82.880212,32.17943 Z" /><path
     style="fill:#5d3822;fill-opacity:1;stroke-width:0.799999;stroke-linecap:round;stroke-linejoin:round"
     d="M 166.9135,71.75118 H 0 l 7.63102,11.19893 h 151.64815 z"
     id="path4" /><g
     id="g11"><path
       id="path3"
       style="fill:#cdd17f;fill-opacity:1;stroke-width:0.799999;stroke-linecap:round;stroke-linejoin:round"
       d="m -92.848618,86.533936 c -12.508002,0.0326 -23.319962,8.73696 -26.022192,20.949624 -0.0887,0.35283 -0.20948,0.8669 -0.2682,1.23147 -0.0739,0.40051 -0.13873,0.80266 -0.1943,1.20613 l -9.76323,60.64746 h 74.083342 c -3.61066,-21.81483 -7.6072,-44.02952 -12.28039,-65.12058 l -0.003,-0.0134 h -0.002 c -3.43758,-11.230484 -13.80517,-18.899804 -25.55003,-18.900704 z" /><path
       style="fill:#3b3f17;fill-opacity:1;stroke-width:0.799999;stroke-linecap:round;stroke-linejoin:round"
       d="m -117.98403,170.5686 6.08541,-57.31175 h 38.100002 l 6.08542,57.31175 z"
       id="path2" /><path
       id="path6"
       style="fill:#3b3f17;fill-opacity:1;stroke-width:0.799999;stroke-linecap:round;stroke-linejoin:round"
       d="m -92.848618,94.395466 a 18.861498,18.861498 0 0 0 -17.166912,11.052564 h 34.330722 a 18.861498,18.861498 0 0 0 -17.16381,-11.052564 z" /></g><path
     style="fill:#366581;fill-opacity:1;stroke-width:1.00089;stroke-linecap:round;stroke-linejoin:round"
     d="M 145.08563,19.479901 165.77653,19.129489 155.0978,0.63355 Z"
     id="path8" /><path
     style="fill:#5d3822;fill-opacity:1;stroke-width:0.799999;stroke-linecap:round;stroke-linejoin:round"
     d="m 138.05204,33.12614 h 34.61804 l -7.33909,10.88203 -19.5032,0.06321 z"
     id="path9"
     sodipodi:nodetypes="ccccc" /><g
     id="g12"
     transform="translate(83.043735)"><rect
       style="fill:#cdd17f;fill-opacity:1;stroke-width:0.780856;stroke-linecap:round;stroke-linejoin:round"
       id="rect1"
       width="40.760754"
       height="53.03125"
       x="21.280191"
       y="109.34396" /><circle
       style="fill:#cdd17f;fill-opacity:1;stroke-width:0.870803;stroke-linecap:round;stroke-linejoin:round"
       id="path11"
       cx="41.660561"
       cy="109.34396"
       r="20.380369" /><rect
       style="fill:#3b3f17;fill-opacity:1;stroke-width:0.526782;stroke-linecap:round;stroke-linejoin:round"
       id="rect11"
       width="22.337799"
       height="44.040691"
       x="30.491652"
       y="109.08385" /><circle
       style="fill:#3b3f17;fill-opacity:1;stroke-width:0.477914;stroke-linecap:round;stroke-linejoin:round"
       id="circle11"
       cx="41.660561"
       cy="109.34396"
       r="11.185149" /></g><g
     id="g13"
     transform="translate(24.856625,9.666825)"><rect
       style="fill:#cdd17f;fill-opacity:1;stroke-width:0.893867;stroke-linecap:round;stroke-linejoin:round"
       id="rect12"
       width="52.787724"
       height="53.659313"
       x="9.2532215"
       y="109.34396" /><circle
       style="fill:#cdd17f;fill-opacity:1;stroke-width:1.12774;stroke-linecap:round;stroke-linejoin:round"
       id="circle12"
       cx="35.647076"
       cy="109.34396"
       r="26.393854" /><rect
       style="fill:#3b3f17;fill-opacity:1;stroke-width:0.715351;stroke-linecap:round;stroke-linejoin:round"
       id="rect13"
       width="33.645424"
       height="53.919434"
       x="19.184025"
       y="109.08385" /><circle
       style="fill:#3b3f17;fill-opacity:1;stroke-width:0.719184;stroke-linecap:round;stroke-linejoin:round"
       id="circle13"
       cx="36.013863"
       cy="109.34396"
       r="16.831848" /></g></svg>
